<svg viewBox="0 0 128 128" xmlns="http://www.w3.org/2000/svg" xmlns:xlink="http://www.w3.org/1999/xlink"><linearGradient id="a" gradientUnits="userSpaceOnUse" x1="110.96875" x2="110.96875" y1="976.29968" y2="992.375"><stop offset="0" stop-color="#666"/><stop offset="1" stop-color="#333"/></linearGradient><linearGradient id="b" gradientTransform="matrix(1 0 0 1.00011 0 -.10551)" gradientUnits="userSpaceOnUse" x1="121.98373" x2="121.98373" xlink:href="#c" y1="976.33423" y2="992.46613"/><linearGradient id="c"><stop offset="0" stop-color="#18a303"/><stop offset="1" stop-color="#106802"/></linearGradient><linearGradient id="d" gradientTransform="matrix(1.00399 0 0 1.00959 -1.49914 -9.36636)" gradientUnits="userSpaceOnUse" x1="110.96875" x2="110.96875" xlink:href="#c" y1="976.29968" y2="992.375"/><linearGradient id="e"><stop offset="0" stop-opacity="0"/><stop offset=".49305555"/><stop offset="1" stop-opacity="0"/></linearGradient><linearGradient id="f" gradientUnits="userSpaceOnUse" x1="504.53375" x2="504.53375" xlink:href="#c" y1="-1118.63988" y2="-1066.63988"/><linearGradient id="g" gradientTransform="matrix(.378882 0 0 .999984 501.441 127.981)" gradientUnits="userSpaceOnUse" x1="-17" x2="144" xlink:href="#e" y1="-1194.6378" y2="-1194.6378"/><linearGradient id="h" gradientUnits="userSpaceOnUse" x1="534.06253" x2="534.06253" y1="-1062.63795" y2="-1088.6379"><stop offset="0" stop-color="#727272"/><stop offset="1" stop-color="#9a9a9a"/></linearGradient><linearGradient id="i" gradientTransform="matrix(.948718 0 0 1.3 -262.385 319.091)" gradientUnits="userSpaceOnUse" x1="829.36053" x2="829.36053" y1="-1064.7994" y2="-1082.3413"><stop offset="0" stop-color="#e4e4e4"/><stop offset="1" stop-color="#f9f9f9"/></linearGradient><linearGradient id="j" gradientUnits="userSpaceOnUse" x1="555.999536" x2="545.772679" y1="-1065.638373" y2="-1075.865246"><stop offset="0"/><stop offset=".45461464" stop-opacity=".360784"/><stop offset="1" stop-opacity="0"/></linearGradient><linearGradient id="k" gradientTransform="matrix(.192547 0 0 .999984 527.273 117.981)" gradientUnits="userSpaceOnUse" x1="-17" x2="144" xlink:href="#e" y1="-1194.6378" y2="-1194.6378"/><radialGradient id="l" cx="152.3331" cy="-754.6377" gradientTransform="matrix(0 .111737 -1.16375 -.00002705 -338.754 -1083.18)" gradientUnits="userSpaceOnUse" r="15"><stop offset="0" stop-opacity=".501961"/><stop offset="1" stop-opacity="0"/></radialGradient><linearGradient id="m" gradientTransform="matrix(.192547 0 0 .999984 527.273 122.981)" gradientUnits="userSpaceOnUse" x1="-17" x2="144" xlink:href="#e" y1="-1194.6378" y2="-1194.6378"/><linearGradient id="n" gradientTransform="matrix(.192547 0 0 .999984 527.273 112.981)" gradientUnits="userSpaceOnUse" x1="-17" x2="144" xlink:href="#e" y1="-1194.6378" y2="-1194.6378"/><linearGradient id="o" gradientTransform="matrix(.714286 0 0 1.55555 151.071 2743.74)" gradientUnits="userSpaceOnUse" x1="525.63947" x2="525.63947" y1="-1078.6444" y2="-1068.7872"><stop offset="0" stop-color="#63bbee"/><stop offset="1" stop-color="#aadcf7"/></linearGradient><linearGradient id="p" gradientTransform="matrix(.192547 0 0 .999984 527.273 107.981)" gradientUnits="userSpaceOnUse" x1="-17" x2="144" xlink:href="#e" y1="-1194.6378" y2="-1194.6378"/><linearGradient id="q" gradientUnits="userSpaceOnUse" x1="538.65625" x2="538.65625" y1="-1077.6066" y2="-1086.6378"><stop offset="0" stop-color="#a33e03"/><stop offset="1" stop-color="#c15414"/></linearGradient><linearGradient id="r" gradientTransform="matrix(.714286 0 0 2.11111 159.071 3342.7)" gradientUnits="userSpaceOnUse" x1="525.63947" x2="525.63947" y1="-1078.6444" y2="-1068.7872"><stop offset="0" stop-color="#f09e6f"/><stop offset="1" stop-color="#f9cfb5"/></linearGradient><linearGradient id="s" gradientTransform="matrix(.714286 0 0 .888884 167.071 2024.98)" gradientUnits="userSpaceOnUse" x1="525.63947" x2="525.63947" y1="-1078.6444" y2="-1068.7872"><stop offset="0" stop-color="#f5ce53"/><stop offset="1" stop-color="#fde9a9"/></linearGradient><linearGradient id="t" gradientTransform="matrix(.714286 0 0 1.33333 175.071 2504.15)" gradientUnits="userSpaceOnUse" x1="525.63947" x2="525.63947" y1="-1078.6444" y2="-1068.7872"><stop offset="0" stop-color="#8ee780"/><stop offset="1" stop-color="#ccf4c6"/></linearGradient><linearGradient id="u" gradientTransform="matrix(.217391 0 0 .999984 525.696 128.981)" gradientUnits="userSpaceOnUse" x1="-17" x2="144" xlink:href="#v" y1="-1194.6378" y2="-1194.6378"/><linearGradient id="v"><stop offset="0" stop-color="#fff" stop-opacity="0"/><stop offset=".49305555" stop-color="#fff"/><stop offset="1" stop-color="#fff" stop-opacity="0"/></linearGradient><linearGradient id="w" gradientTransform="matrix(.25 0 0 1.41667 401.75 1154.6)" gradientUnits="userSpaceOnUse" x1="529.25" x2="535" y1="-1568.6378" y2="-1574.6378"><stop offset="0" stop-color="#800000"/><stop offset="1" stop-color="#ffc600" stop-opacity="0"/></linearGradient><linearGradient id="x" gradientTransform="matrix(.0310559 0 0 .999984 533.528 108.981)" gradientUnits="userSpaceOnUse" x1="-17" x2="144" xlink:href="#v" y1="-1194.6378" y2="-1194.6378"/><linearGradient id="y" gradientTransform="matrix(.0310559 0 0 .999984 525.528 113.981)" gradientUnits="userSpaceOnUse" x1="-17" x2="144" xlink:href="#v" y1="-1194.6378" y2="-1194.6378"/><linearGradient id="z" gradientTransform="matrix(.0310559 0 0 .999984 541.528 119.981)" gradientUnits="userSpaceOnUse" x1="-17" x2="144" xlink:href="#v" y1="-1194.6378" y2="-1194.6378"/><linearGradient id="A" gradientTransform="matrix(.0310559 0 0 .999984 549.528 115.981)" gradientUnits="userSpaceOnUse" x1="-17" x2="144" xlink:href="#v" y1="-1194.6378" y2="-1194.6378"/><linearGradient id="B" gradientTransform="matrix(.25 0 0 1 393.75 501)" gradientUnits="userSpaceOnUse" x1="529.25" x2="535" y1="-1568.6378" y2="-1574.6379"><stop offset="0" stop-color="#4a00ff"/><stop offset="1" stop-color="#00a0c1" stop-opacity="0"/></linearGradient><linearGradient id="C" gradientTransform="matrix(.25 0 0 .833333 417.75 239.56)" gradientUnits="userSpaceOnUse" x1="529.25" x2="535" y1="-1568.6378" y2="-1574.6379"><stop offset="0" stop-color="#003362"/><stop offset="1" stop-color="#00ff8c" stop-opacity="0"/></linearGradient><linearGradient id="D" gradientTransform="matrix(.25 0 0 .5 409.75 -283.319)" gradientUnits="userSpaceOnUse" x1="529.25" x2="535" y1="-1568.6378" y2="-1574.6379"><stop offset="0" stop-color="#f00"/><stop offset="1" stop-color="#d3d300" stop-opacity="0"/></linearGradient><linearGradient id="E" gradientTransform="matrix(.192547 0 0 .999984 527.273 129.981)" gradientUnits="userSpaceOnUse" x1="-17" x2="144" xlink:href="#e" y1="-1194.6378" y2="-1194.6378"/><linearGradient id="F" gradientTransform="matrix(.192547 0 0 .999984 527.273 104.981)" gradientUnits="userSpaceOnUse" x1="-17" x2="144" xlink:href="#e" y1="-1194.6378" y2="-1194.6378"/><linearGradient id="G" gradientTransform="matrix(.149068 0 0 .999984 -1086.1 672.619)" gradientUnits="userSpaceOnUse" x1="-17" x2="144" xlink:href="#e" y1="-1194.6378" y2="-1194.6378"/><linearGradient id="H" gradientTransform="matrix(.149068 0 0 .999984 -1086.1 636.619)" gradientUnits="userSpaceOnUse" x1="-17" x2="144" xlink:href="#e" y1="-1194.6378" y2="-1194.6378"/><linearGradient id="I" gradientUnits="userSpaceOnUse" x1="-495.000192" x2="-508.945903" y1="-1066.63831" y2="-1080.584042"><stop offset="0" stop-color="#125a00"/><stop offset="1" stop-color="#69ce00" stop-opacity="0"/></linearGradient><radialGradient id="J" cx="-1535.3044" cy="-853" gradientTransform="matrix(-1.65787 0 0 -2.3 -1428.55 -2486.9)" gradientUnits="userSpaceOnUse" r="10"><stop offset="0" stop-color="#fff"/><stop offset="1" stop-color="#f5ffaa" stop-opacity="0"/></radialGradient><linearGradient id="K" gradientTransform="matrix(.666667 0 0 .5 145.333 -325.319)" gradientUnits="userSpaceOnUse" x1="529.25" x2="535.43829" y1="-1568.6378" y2="-1574.826"><stop offset="0" stop-color="#008000"/><stop offset="1" stop-color="#0f0" stop-opacity="0"/></linearGradient><linearGradient id="L" gradientTransform="matrix(.10559 0 0 .999984 498.795 85.9811)" gradientUnits="userSpaceOnUse" x1="-17" x2="144" xlink:href="#e" y1="-1194.6378" y2="-1194.6378"/><linearGradient id="M" gradientTransform="matrix(7.97915 0 0 8.01241 -2383.61 -3106.53)" gradientUnits="userSpaceOnUse" x1="294.3429" x2="294.41818" y1="256.58133" y2="243.13852"><stop offset="0" stop-color="#b3b3b3"/><stop offset="1" stop-color="#e6e6e6"/></linearGradient><linearGradient id="N" gradientTransform="matrix(4.00013 0 0 4 -875.027 1971.85)" gradientUnits="userSpaceOnUse" x1="209.0625" x2="209.0625" y1="-755.38788" y2="-781.62268"><stop offset="0" stop-color="#fff" stop-opacity=".65"/><stop offset="1" stop-color="#fff" stop-opacity=".949"/></linearGradient><g transform="translate(62.99976 1166.6378)"><path id="O" d="m-44.99976-1160.6378v2 112 2h1.999997 88.000006 1.999997v-2-70-.8752l-.624971-.6248-41.7500028-42-.4999691-.5h-.875016-46.2500441z" fill="url(#M)"/><path id="P" d="m-40.99984-1156.6378h42.2350277l41.7649723 42v66h-84z" fill="url(#N)"/></g><g transform="translate(-464.00076 1166.6364)"><g fill="url(#a)" transform="matrix(7.99974 0 0 7.9969 -411.968 -8974.56)"><path d="m111.56249 976.3733c-.4584.0875-.57071.28336-.56249.75001v14.50168c.00005.52364.22641.74996.74999.75001h11.50001c.52358-.00005.74994-.22637.74999-.75001v-8.98088c.006-.26409-.0975-.52903-.28125-.71883l-5.27042-5.2707c-.18978-.18372-.45469-.2874-.71875-.28128h-5.97958c-.0623-.006-.12518-.006-.1875 0z" fill="url(#b)"/><path d="m120.32938 976.3765c-.33282.10664-.44483.61349-.18825.85184l3.01199 3.02879c.27825.26531.83246.0383.84712-.34705v-3.02878c-.00003-.26431-.23916-.50477-.502-.5048h-3.01199c-.0519-.008-.105-.008-.15687 0z" fill="url(#d)"/></g><use height="1085" transform="translate(527)" width="5033" xlink:href="#O"/><use height="1085" transform="translate(527)" width="5033" xlink:href="#P"/><path d="m495-1118.6378v2 8 2 8 2 8 2 8 2 8 2h60v-2-50h-58z" fill="url(#f)"/><path d="m495-1066.6378h61v1h-61z" fill="url(#g)" opacity=".25"/><g id="Q"><path d="m497-1116.6378h17v8h-17z" fill="#92e285"/><path d="m498-1115.6378h8v5.999999h-8z" fill="url(#K)" opacity=".75"/><path d="m497-1108.6378h17v1h-17z" fill="url(#L)" opacity=".5"/></g><use height="1085" transform="matrix(1.05882 0 0 1 -10.2353 0)" width="5033" xlink:href="#Q"/><use height="1085" transform="translate(39)" width="5033" xlink:href="#Q"/><g id="R" transform="translate(0 10)"><path d="m497-1116.6378h17v8h-17z" fill="#d4f1cf"/><path d="m498-1115.6378h8v5.999999h-8z" fill="url(#K)" opacity=".35"/><path d="m497-1108.6378h17v1h-17z" fill="url(#L)" opacity=".5"/></g><use height="1085" transform="translate(39)" width="5033" xlink:href="#R"/><use height="1085" transform="matrix(1.05882 0 0 1 -10.2353 10)" width="5033" xlink:href="#R"/><use height="1085" transform="translate(39 10)" width="5033" xlink:href="#R"/><use height="1085" transform="translate(0 10)" width="5033" xlink:href="#R"/><use height="1085" transform="matrix(1.05882 0 0 1 -10.2353 20)" width="5033" xlink:href="#R"/><use height="1085" transform="translate(0 20)" width="5033" xlink:href="#R"/><use height="1085" transform="matrix(1.05882 0 0 1 -10.2353 30)" width="5033" xlink:href="#R"/><use height="1085" transform="translate(0 30)" width="5033" xlink:href="#R"/><path d="m520-1090.6378h39v27.999968h-39z" fill="url(#h)"/><path d="m522-1088.6378h35v23.999983h-35z" fill="url(#i)"/><path d="m534-1087.6378h22v22h-22z" fill="url(#j)" opacity=".25"/><path d="m524-1076.6378h31v1h-31z" fill="url(#k)" opacity=".15"/><path d="m523-1067.5951h33c .554 0 1 .446 1 1v .9572c0 .554-.446 1-1 1h-33c-.554 0-1-.446-1-1v-.9572c0-.554.446-1 1-1z" fill="url(#l)" opacity=".5"/><path d="m524-1071.6378h31v1h-31z" fill="url(#m)" opacity=".15"/><path d="m524-1081.6378h31v1h-31z" fill="url(#n)" opacity=".15"/><path d="m524-1081.6378h7v15.999921h-7z" fill="#0369a3"/><path d="m525 1066.6378h5v13.999983h-5z" fill="url(#o)" transform="scale(1 -1)"/><path d="m524-1086.6378h31v1h-31z" fill="url(#p)" opacity=".15"/><path d="m532-1086.6378h7v20.999865h-7z" fill="url(#q)"/><path d="m533 1066.6378h5v18.999983h-5z" fill="url(#r)" transform="scale(1 -1)"/><path d="m540-1075.6378h7v9.999914h-7z" fill="#c99c00"/><path d="m541 1066.6378h5v7.999959h-5z" fill="url(#s)" transform="scale(1 -1)"/><path d="m548-1079.6378h7v13.999983h-7z" fill="#43c330"/><path d="m549 1066.6378h5v11.999964h-5z" fill="url(#t)" transform="scale(1 -1)"/><path d="m522-1065.6378h35v1h-35z" fill="url(#u)" opacity=".75"/><path d="m534-1084.6378h3v17h-3z" fill="url(#w)" opacity=".35"/><path d="m533-1085.6378h5v1h-5z" fill="url(#x)" opacity=".75"/><path d="m525-1080.6378h5v1h-5z" fill="url(#y)" opacity=".75"/><path d="m541-1074.6378h5v1h-5z" fill="url(#z)" opacity=".75"/><path d="m549-1078.6378h5v1h-5z" fill="url(#A)" opacity=".75"/><path d="m526-1079.6378h3v12h-3z" fill="url(#B)" opacity=".35"/><path d="m550-1077.6378h3v10h-3z" fill="url(#C)" opacity=".35"/><path d="m542-1073.6378h3v6h-3z" fill="url(#D)" opacity=".35"/><path d="m524-1064.6378h31v1h-31z" fill="url(#E)" opacity=".5"/><path d="m524-1089.6378h31v1h-31z" fill="url(#F)" opacity=".5"/><path d="m-1088.6378-522h24v1h-24z" fill="url(#G)" opacity=".5" transform="rotate(90)"/><path d="m-1088.6378-558h24v1h-24z" fill="url(#H)" opacity=".5" transform="rotate(90)"/><path d="m-525-1096.6378h30v30h-30z" fill="url(#I)" opacity=".5" transform="scale(-1 1)"/><rect fill="url(#J)" height="46" opacity=".6" rx="2" transform="matrix(0 -1 -1 0 0 0)" width="15.999998" x="1100.6378" y="-548"/><use height="1085" transform="matrix(1.05882 0 0 1 -10.2353 0)" width="5033" xlink:href="#R"/></g></svg>