<svg height="57" viewBox="0 0 70.999998 56.999999" width="71" xmlns="http://www.w3.org/2000/svg" xmlns:xlink="http://www.w3.org/1999/xlink"><linearGradient id="a" gradientTransform="matrix(1.05 0 0 1.0434783 -38.5 -41.661711)" gradientUnits="userSpaceOnUse" x1="798" x2="798" y1="958.21936" y2="912.21936"><stop offset="0" stop-color="#bdc3c7"/><stop offset="1" stop-color="#dadfe1"/></linearGradient><linearGradient id="b" gradientTransform="matrix(1.0576923 0 0 1.3793103 -.46154 -15.82759)" gradientUnits="userSpaceOnUse" x1="34" x2="34" y1="47.000004" y2="18.000004"><stop offset="0" stop-color="#5e6b78"/><stop offset="1" stop-color="#768492"/></linearGradient><linearGradient id="c" gradientUnits="userSpaceOnUse" x1="777" x2="817" y1="914.21936" y2="954.21936"><stop offset="0" stop-color="#383e51"/><stop offset="1" stop-color="#655c6f" stop-opacity="0"/></linearGradient><g transform="translate(-766 -905.21936)"><path d="m770.00009 910.21936h62.99982c.00005 0 .00009.00004.00009.0001v47.9998c0 .00006.00009-29.21729 0-14.60859v14.60869h-14.7-48.29991c-.00005 0-.00009-.00004-.00009-.0001v-47.9998c0-.00006.00004-.0001.00009-.0001z" fill="url(#a)"/><rect fill="#2e3132" fill-opacity=".294118" height="1" ry=".000017" width="63" x="770" y="957.21936"/><rect fill="#fff" fill-opacity=".411765" height="1" ry=".000017" width="63" x="770" y="910.21936"/><path d="m829 914.21936 4 4v40h-55l-4-4 2-12-2-2 2-12-2-2 17-12 2 2 17-2 2 2z" fill="url(#c)" fill-rule="evenodd" opacity=".2"/><path d="m8 9v12h17v-12zm19 0v12h7.482422 2.035156 1.019531 6.462891v-12h-6.462891-1.019531-2.035156zm19 0v12h17v-12zm-38 14v5 2 5h17v-12zm19 0v12h7.482422 2.035156 4.074219 3.408203v-12h-3.408203-4.074219-2.035156zm19 0v12h17v-5-2-5zm-38 14v2 10h17v-12zm19 0v12h6.462891 1.019531 2.035156 6.111328 1.371094v-12h-1.371094-6.111328-2.035156-1.019531zm19 0v12h17v-10-2z" fill="url(#b)" transform="translate(766 905.21936)"/></g></svg>