/* XPM */
static char * L3PSetup_m_pm[] = {
/* width height ncolors cpp [x_hot y_hot] */
"32 32 11 1 0 0",
/* colors */
" 	s none	m none	c none",
".	s iconColor1	m black	c black",
"X	c #000000008617",
"o	c #861782078617",
"O	s iconColor2	m white	c white",
"+	c #C71BC30BC71B",
"@	s iconColor6	m white	c yellow",
"#	c #00000000FFFF",
"$	c #861782070000",
"%	c #000082078617",
"&	c #861700000000",
/* pixels */
"                                ",
"                  ........  XXXX",
"           .o..oo.OOOOOOO+..X+OX",
"          .+ooOO.@OO@OOOO@OOXOOX",
"         .+oo+O.OO.OOOOOOOOOXXXX",
"        .+oo+O.O@.OOO@OOOO@OXXXX",
"       .+oo+O.@O.O@O.OO@OOOOXXXX",
"      .+oo+O.OO.+.O.OOOOOOOOXXXX",
"     .+oo+O.O@.+O+.O@O.OOO..X.X.",
"    .+oo+O+...+O++o.O.OO@.  .X. ",
"   .+oo+O+O+O+O++++o.@O..o  ... ",
"  .ooo+O+O+O+O++++ooo..         ",
" .ooo+O+O+O+O++++o..+Oo         ",
" .oo+O+O+O+O++++o....OO.        ",
" ..+O+O+O+O++++o......OO.       ",
" .o+OO+O+O++#+o....$o..OO.      ",
" .oo+OO+O++%+o....$$$...Oo.     ",
" .ooo+OO++&+o...$$$+$+...o.     ",
" .oooo+O+++o...$$$+$+++..o.     ",
" .oooooOO+o.o.$$++$+OoOO..o     ",
" .ooooo+Oo..O.$++$OOoOO$O.o     ",
"o.ooooooO.o.OO.+$OOoOOoOOO.     ",
"oo.ooooo.O.O.OO.OOoOO$OOoOO.    ",
" oo.oooo+O.OO.OO.OOOoOOoOO.o    ",
"  oo.ooo+O.oOo.Oo.O$OO$OO.o     ",
"   oo.oo+O.o+o.+o.OOOoOO.o      ",
"    oo.o+O.o+o.+o.OOoOO.o       ",
"     oo.+..o+o.+o..OOO.o        ",
"      oo.oo.+..+o.o.O.o         ",
"       ooooo.o.o.ooo.o          ",
"           oooo.o  oo           ",
"              oo                "};
