<svg height="32" viewBox="0 0 8.4666665 8.466667" width="32" xmlns="http://www.w3.org/2000/svg" xmlns:xlink="http://www.w3.org/1999/xlink"><linearGradient id="a"><stop offset="0" stop-color="#06f"/><stop offset="1" stop-color="#80b3ff"/></linearGradient><linearGradient id="b" gradientUnits="userSpaceOnUse" x1="6.157489" x2="4.618117" xlink:href="#a" y1="289.30313" y2="275.44876"/><linearGradient id="c" gradientUnits="userSpaceOnUse" x1="6.11595" x2="6.157489" xlink:href="#a" y1="270.77991" y2="263.13379"/><g transform="matrix(.171875 0 0 .171875 .425239 -43.411163)"><path d="m3.078125 282.66797a1.4480612 1.4480612 0 0 0 -1.4472656 1.44726v5.75391c0 .24096-.00573.44907-.013672.62109a1.4480612 1.4480612 0 0 0 0 .0215c-.00573.18326-.014199.32061-.019531.38281a1.4480612 1.4480612 0 0 0 1.4433594 1.57031h1.2695313a1.4480612 1.4480612 0 0 0 .53125-.10156c.1109244.0371.2128188.0951.328125.11914.2536986.0529.5030114.0742.7421875.0742.5205211 0 1.0596769-.10738 1.5429687-.36719h.00195c.4394405-.23492.832917-.58585 1.1171876-1.0039a1.4480612 1.4480612 0 0 0 .00586-.008c.2690639-.40095.4453625-.84893.5527344-1.30859.0001642-.00069.00179-.001.00195-.002.1058031-.44378.1542969-.90638.1542969-1.38477 0-.46806-.044533-.92066-.1425781-1.35547-.1018862-.45184-.2744674-.89021-.5351563-1.28711-.2683393-.41626-.6459627-.77698-1.0839843-1.01757-.4819728-.26797-1.018552-.37696-1.5332032-.37696-.055121 0-.1067451.0367-.1621094.0391v-.36915a1.4480612 1.4480612 0 0 0 -1.4472656-1.44726zm2.6933594 8.36328-.00977.0703c.00179-.0119.00221-.0251.00391-.0371.0009487-.01.00484-.023.00586-.0332z" fill="url(#b)" transform="matrix(1.2 0 0 1.2 -1.088155 -58.580804)"/><text style="font-size:12.7;font-family:sans-serif;letter-spacing:0;word-spacing:0;fill:#bfd9ff;stroke-width:.3175" x="1.808365" y="290.63992"><tspan fill="#bfd9ff" font-family="Liberation Sans" font-size="11.429999" font-weight="bold" stroke-width=".3175" x="1.808365" y="290.63992">b</tspan></text></g><g transform="matrix(.171875 0 0 .171875 .438077 -44.394155)"><path d="m5.4609375 266.51562c-.4513178.00001-.8899248.0463-1.3222656.16993-.0005522.00015-.0014-.00016-.00195 0-.4049191.11375-.803241.29326-1.1601563.5625a1.5546596 1.5546596 0 0 0 -.011719.008c-.3342274.25665-.6218897.59157-.8242188.96289-.1861096.33888-.3115073.70832-.375 1.08398a1.5546596 1.5546596 0 0 0 .1367188.94141c-.014686.0264-.046798.0417-.060547.0684a1.5546596 1.5546596 0 0 0 -.00391.008c-.241774.47623-.3222656.9745-.3222656 1.45313 0 .39657.059294.8035.2070312 1.19531.1423895.37765.3731006.74536.6757813 1.04102a1.5546596 1.5546596 0 0 0 .013672.0137c.3005514.28656.6612426.4981 1.0292968.63086a1.5546596 1.5546596 0 0 0 .029297.01c.3787716.12829.7671543.17969 1.1484375.17969.5479796 0 1.1095051-.17472 1.6210938-.45117.3696714.15419.7318674.41406 1.0722656.41406.1306531 0 .2536588-.005.3769531-.0156.1030862-.009.2015179-.0211.2949219-.0352.111848-.0168.2232034-.0392.3320312-.0664.051616-.0129.1179602-.0283.1953126-.0469a1.5546596 1.5546596 0 0 0 1.1914062-1.51172v-.70703a1.5546596 1.5546596 0 0 0 -.7011711-1.29948v-1.25c0-.45235-.069055-.91303-.2480469-1.35742-.1707129-.42386-.4463837-.82464-.7949218-1.13672-.3503362-.3165-.7678891-.54177-1.1914063-.67578-.4240749-.13419-.8621686-.18945-1.3066406-.18946zm-.4316406 2.09376h.00977c-.1515038.002-.3016466.0401-.453125.0547v-.0469zm-1.09375.13085c-.00421.00098-.00751.005-.011719.006-.00191.00047-.00395-.00046-.00586 0zm1.4765625 2.24805c.1134391.0499.2156478.0493.296875.13281l.029297.0312c.2490343.27038.25.52372.25.51758 0-.0115.016645.1023-.1054687.32617-.012311.0226-.0559.0486-.074219.0742l-.9160157-.90429a1.5546596 1.5546596 0 0 0 .5195313-.17774z" fill="url(#c)" transform="matrix(1.2 0 0 1.2 -1.121875 -54.135936)"/><text style="font-size:12.7;font-family:sans-serif;letter-spacing:0;word-spacing:0;fill:#bfd9ff;stroke-width:.3175" x="2.228001" y="273.69904"><tspan fill="#bfd9ff" font-family="Liberation Sans" font-size="11.429999" font-weight="bold" stroke-width=".3175" x="2.228001" y="273.69904">a</tspan></text></g><g fill="#404040" fill-opacity=".839216" transform="scale(.25)"><g transform="matrix(-.9 0 0 1 2.116667 -264.19164)"><path d="m-31.749998 273.71664h21.166666v1.05835h-21.166666z"/><path d="m-31.749998 269.48331h21.166666v1.05835h-21.166666z"/><path d="m-26.458332 277.94998h15.875v1.05835h-15.875z"/></g><g transform="matrix(-.9 0 0 1 2.116667 -249.37499)"><path d="m-31.749998 273.71664h21.166666v1.05835h-21.166666z"/><path d="m-31.749998 269.48331h21.166666v1.05835h-21.166666z"/><path d="m-26.458332 277.94998h15.875v1.05835h-15.875z"/></g></g></svg>