<svg height="32" viewBox="0 0 32 32" width="32" xmlns="http://www.w3.org/2000/svg" xmlns:xlink="http://www.w3.org/1999/xlink"><linearGradient id="a" gradientUnits="userSpaceOnUse" x1="-.037799" x2="128.0378" y1="64.17524" y2="64.17524"><stop offset="0" stop-color="#b4b4b6"/><stop offset=".5" stop-color="#9c9ca1"/><stop offset="1" stop-color="#cdcdd1"/></linearGradient><linearGradient id="b" gradientUnits="userSpaceOnUse" x1="60" x2="60" y1="128" y2="0"><stop offset="0" stop-color="#fff"/><stop offset=".53340602" stop-color="#fff"/><stop offset=".9375" stop-color="#f1f1f1"/><stop offset=".96875" stop-color="#eaeaea"/><stop offset="1" stop-color="#dfdfdf"/></linearGradient><g fill-rule="evenodd" transform="matrix(.25 0 0 .25 -.00003 .001953)"><path d="m4.7734375-.0078125c-1.418331-.00000857-2.5203958.46419853-3.5078125 1.4785156a4.0291733 4.0291733 0 0 0 -.00195.00195c-.45127227.4639428-.98424407 1.357071-1.1621125 2.0898469s-.13477147 1.1082711-.13476562 1.2460938a4.0291733 4.0291733 0 0 0 0 .00195l.0097656 32.6445312c.0011889 4.300777 5.48831902 6.997977 8.75976562 3.726563l7.0332029-7.035157 35.503907 34.154297.697265.982422v54.7168.33008a4.0291733 4.0291733 0 0 0 4.113281 4.02734l7.916016-.16406 7.916016.16406a4.0291733 4.0291733 0 0 0 4.113281-4.02734v-.33008-54.716797l.697265-.982422 35.503908-34.154297 7.0332 7.035157c3.27145 3.271415 8.75858.574216 8.75977-3.726563l.01-32.6445311a4.0291733 4.0291733 0 0 0 0-.00195c.00001-.1371519.0431-.5108905-.13476-1.2441407-.17785-.7332502-.7122-1.6295644-1.16406-2.09375-.98746-1.01435662-2.08949-1.47852417-3.50782-1.4785156h-32.427972c-2.046307.00000235-4.054704 1.299885-4.876953 3.0527344-.822249 1.7528462-.613512 4.231296 1.037109 5.830075l6.535157 6.537109-29.494141 29.759766-29.494141-29.759766 6.535157-6.537109c1.650621-1.5987791 1.859358-4.0772288 1.037109-5.8300781s-2.830646-3.05273205-4.876953-3.0527344z" fill="url(#a)"/><path d="m4.7734375 4.0214844c-.23172-.0000014-.4678737.1023714-.6210937.2597656-.1531301.1574296-.1562601.2866942-.15625.5273438l.00977 32.6445312c.00029 1.049103 1.2705294 1.48923 1.8808594.878906l9.8281248-9.828125 38.625 37.15625 1.660152 2.339844v56 .33008l8-.16602 8 .16602v-.33008-56l1.660156-2.339844 38.625004-37.15625 9.82812 9.828125c.61033.610324 1.88057.170197 1.88086-.878906l.01-32.6445312c.00001-.2406497-.003-.3699142-.15625-.5273438-.15322-.1573942-.38938-.259767-.6211-.2597656h-32.427962c-1.219242.0000014-1.712949 1.304371-1.037109 1.9589844l9.417969 9.4179692-35.179688 35.496093-35.179688-35.496093 9.417969-9.4179692c.67584-.6546134.182133-1.958983-1.037109-1.9589844z" fill="url(#b)"/></g></svg>