<svg height="32" width="32" xmlns="http://www.w3.org/2000/svg" xmlns:xlink="http://www.w3.org/1999/xlink"><linearGradient id="a"><stop offset="0" stop-color="#0968ef"/><stop offset="1" stop-color="#aecffc"/></linearGradient><linearGradient id="b" gradientTransform="matrix(.70710678 .70710678 .70710678 -.70710678 -55.077638 32.690648)" gradientUnits="userSpaceOnUse" x1="118.65708" x2="-19.999998" xlink:href="#a" y1="60.891796" y2="60.000008"/><linearGradient id="c" gradientTransform="matrix(.17364818 .98480775 .98480775 -.17364818 -56.08813 -8.094336)" gradientUnits="userSpaceOnUse" x1="118.65708" x2="-19.999998" xlink:href="#a" y1="60.891796" y2="60.000008"/><linearGradient id="d" gradientTransform="matrix(.98480775 .17364818 .17364818 -.98480775 -29.993511 66.226322)" gradientUnits="userSpaceOnUse" x1="118.65708" x2="-19.999998" xlink:href="#a" y1="60.891796" y2="60.000008"/><g transform="matrix(.25 0 0 .25 4 4)"><path d="m63.766286 63.85738-15.533991-1.412177.000007-2.806598 6.998724-1.492116-48.0832613-48.083261 2.8243613-2.8243613 48.083261 48.0832613 1.421066-6.927674 2.877648-.07106 1.412177 15.533991z" fill="url(#b)"/><path d="m26.164981 101.35895-11.914709-10.066714 1.609804-2.299027 6.588861 2.792034-14.5864464-82.7238516 3.9335684-.6935942 14.586447 82.7238508 5.137619-4.859728 2.397988 1.592345-7.753143 13.534695z" fill="url(#c)"/><path d="m100.99116 26.36891-13.534692 7.753144-1.609793-2.299035 4.877176-5.236572-82.723851-14.586447.6935942-3.9335684 82.7238518 14.5864464-2.809482-6.489907 2.316475-1.708758 10.066711 11.914708z" fill="url(#d)"/><circle cx="8" cy="8.0625" fill="#0f6cef" r="12"/></g></svg>