<svg height="32" viewBox="0 0 8.4666665 8.466667" width="32" xmlns="http://www.w3.org/2000/svg" xmlns:xlink="http://www.w3.org/1999/xlink"><linearGradient id="a" gradientUnits="userSpaceOnUse" x1="15.301584" x2="21.210022" y1=".911704" y2="22.07837"><stop offset="0" stop-color="#3b3e22"/><stop offset="1" stop-color="#454545" stop-opacity="0"/></linearGradient><linearGradient id="b" gradientUnits="userSpaceOnUse" x1="18.523479" x2="19.581811" y1="29.39258" y2="5.05091"><stop offset="0" stop-color="#555"/><stop offset="1"/></linearGradient><g transform="scale(.25)"><path d="m27.082751 29.175604h-20.2988345l12.2978335-12.297834-12.2237501-12.1867086h19.7802511l.4445 6.5563756h-.592667q-.259292-2.3706672-2.111375-3.8893755-1.852084-1.5187084-4.296834-1.5187084h-6.074833q-1.185334 0-1.185334.66675 0 .1481667.851959 1.0742084.851958.889 2.148417 2.2225 1.3335 1.2964585 2.592916 2.5558755 1.259417 1.222375 2.407709 2.370666 1.185333 1.11125 1.407583 1.3335l-9.927167 9.890126h11.297709q1.296458 0 2.037292-.926042.777875-.926042.777875-2.2225v-.259292h.66675z" fill="url(#b)" stroke-width=".879992"/><path d="m28.273438 18.705078 44.533203 44.394531a.97275722.97275722 0 0 1 0 1.373047l-9.951172 9.951172a98.947008 46.021865 0 0 0 7.722656-1.697266l12.046875-12.003906c-.745225-.723617-2.005878-1.923361-4.591797-4.347656a.97275722.97275722 0 0 1 -.02148-.02148c-2.889033-2.88903-5.923055-5.862015-9.09375-8.939454a.97275722.97275722 0 0 1 -.0078-.01562c-3.170475-3.17048-6.432694-6.391163-9.789062-9.654297a.97275722.97275722 0 0 1 -.01367-.01563c-3.26778-3.361143-5.979856-6.165714-8.128906-8.408204a.97275722.97275722 0 0 1 -.01367-.01367c-1.082162-1.176263-1.895578-2.109428-2.458985-2.820313-.281699-.355443-.504676-.652616-.671875-.921875-.167198-.269259-.345703-.41586-.345703-.974609 0-1.128351.626831-2.185328 1.615235-2.740235.988399-.554906 2.255628-.751953 3.839843-.751953h22.957032c6.360963.000001 12.032116 1.997078 16.861328 5.957032 4.605195 3.776259 7.30559 8.680519 8.14844 14.482421h.40625l-1.542992-22.832035z" fill="url(#a)" stroke-width="3.325954" transform="scale(.26458334)"/></g></svg>