<svg height="32" viewBox="0 0 8.4666665 8.466667" width="32" xmlns="http://www.w3.org/2000/svg" xmlns:xlink="http://www.w3.org/1999/xlink"><linearGradient id="a"><stop offset="0" stop-color="#07265b"/><stop offset=".34029821" stop-color="#254a7b" stop-opacity=".996078"/><stop offset=".68983138" stop-color="#3066af" stop-opacity=".996078"/><stop offset=".78474706" stop-color="#6897d9" stop-opacity=".996078"/><stop offset=".89468229" stop-color="#78a3e1" stop-opacity=".996078"/><stop offset="1" stop-color="#07265b"/></linearGradient><linearGradient id="b" gradientUnits="userSpaceOnUse" x1="64.719795" x2="70.545692" y1="272.79059" y2="277.75809"><stop offset="0" stop-color="#262626"/><stop offset=".19744514" stop-color="#262626"/><stop offset=".42606577" stop-color="#1e1e1e"/><stop offset=".6397509" stop-color="#4e4e4e"/><stop offset=".85343605" stop-color="#a7a7a7"/><stop offset="1" stop-color="#262626"/></linearGradient><linearGradient id="c" gradientUnits="userSpaceOnUse" x1="56.703594" x2="62.300526" xlink:href="#a" y1="281.46518" y2="286.82559"/><linearGradient id="d" gradientUnits="userSpaceOnUse" x1="56.045506" x2="58.09845" y1="285.7522" y2="288.1142"><stop offset="0" stop-color="#1f4375" stop-opacity=".996078"/><stop offset="1" stop-color="#2f63ab" stop-opacity=".996078"/></linearGradient><linearGradient id="e" gradientUnits="userSpaceOnUse" x1="225.25" x2="224.72266" y1="94.132812" y2="92.070312"><stop offset="0" stop-color="#1a3b72"/><stop offset="1" stop-color="#1a3b72" stop-opacity="0"/></linearGradient><filter id="f" color-interpolation-filters="sRGB" height="1.208843" width="1.109883" x="-.054941" y="-.104422"><feGaussianBlur stdDeviation=".48131835"/></filter><linearGradient id="g" gradientUnits="userSpaceOnUse" x1="52.800537" x2="54.721642" y1="289.1893" y2="291.10693"><stop offset="0" stop-color="#af9a1c"/><stop offset=".375525" stop-color="#d8c722"/><stop offset=".89346695" stop-color="#e6ec84"/><stop offset="1" stop-color="#d8bb22"/></linearGradient><linearGradient id="h" gradientUnits="userSpaceOnUse" x1="191.87305" x2="205.5957" y1="105.80078" y2="105.80078"><stop offset="0" stop-color="#aea722"/><stop offset="1" stop-color="#d1b229"/></linearGradient><linearGradient id="i" gradientUnits="userSpaceOnUse" x1="244.610251" x2="266.62939" xlink:href="#a" y1="36.499934" y2="55.274737"/><linearGradient id="j" gradientUnits="userSpaceOnUse" x1="9.167345" x2="10.102788" y1="264.5401" y2="276.23315"><stop offset="0" stop-color="#e2b823"/><stop offset="1" stop-color="#e2db47"/></linearGradient><g transform="matrix(.25 0 0 .25 0 -65.78333)"><path d="m0 263.13333h20.20557v15.99989h-20.20557z" fill="url(#j)"/><path d="m.329215 289.60999h33.208233v7.015825h-33.208233z" fill="#f00"/><g transform="translate(-41.159223 -2.013615)"><g fill-rule="evenodd"><path d="m54.127844 286.96549v.49082l-3.537291 4.16729 3.68813-.0118 2.313845-2.5242z" fill="url(#g)"/><path d="m55.901417 281.99593 5.821878 5.46667 1.232041-1.22021-5.976866-5.28096z" fill="url(#c)"/><path d="m70.949595 267.54307 4.263236 3.6543c-.89243 3.23727-8.098601 10.44672-12.257495 15.04502l-5.976866-5.28096c4.612944-4.35152 12.125923-14.2948 13.971125-13.41836z" fill="url(#b)"/><path d="m55.901417 281.99593c-.76758 3.52722-1.005993 4.06235-1.773573 4.96956l2.464684 2.12204c1.544092-1.17015 3.027982-1.24691 5.130767-1.62493z" fill="url(#d)"/><g transform="matrix(.26458333 0 0 .26458333 0 263.13332)"><path d="m211.28125 71.291016c-2.90109 13.331225-3.80204 15.354378-6.70313 18.783203l1.7168 1.478515c1.34838-1.382434 2.8848-2.993314 3.36133-3.68164.7621-1.100779 5.17069-10.28923 6.24609-12.240235z" fill="#16386b"/><path d="m231.38281 90.171875c-6.458 2.494116-13.25795 3.478263-18.00781 7.476563l.51758.445312c5.83594-4.422614 11.44504-4.711888 19.39258-6.140625l-.37891-.355469c-.13527-.08747-1.52344-1.425781-1.52344-1.425781z" fill="url(#e)"/><g fill-opacity=".996078"><path d="m227.57031 86.585938-.23633.136718c-.76502.458997-12.0202 7.493444-15.45312 9.638672l1.49414 1.28711c4.74986-3.9983 11.54981-4.982447 18.00781-7.476563 0 0 1.38817 1.338311 1.52344 1.425781z" fill="#73a0df" filter="url(#f)"/><path d="m204.57812 90.074219v1.855469l-.11718.134765c2.43773 2.032389 5.50415 4.592589 8.43359 7.119141l.99805-1.087891z" fill="#997337"/></g></g></g><path d="m198.875 103.92383a7.3749994 5.4519225 0 0 0 -7.00195 3.7539l13.27539-.043.44726-.48829a7.3749994 5.4519225 0 0 0 -6.7207-3.22265z" fill="url(#h)" transform="matrix(.26458333 0 0 .26458333 0 263.13332)"/><path d="m267.03711 16.464844c-2.00658.08668-5.03028 2.113143-8.68555 5.34375l20.79883 18.335937c2.54824-3.735286 4.39955-7.055726 5.11914-9.666015l-16.11328-13.8125c-.32691-.155275-.70143-.219216-1.11914-.201172z" fill="url(#i)" fill-rule="evenodd" transform="matrix(.26458333 0 0 .26458333 0 263.13332)"/></g><text font-family="sans-serif" font-size="13.853707" letter-spacing="0" stroke-width=".346343" word-spacing="0" x="2.998776" y="275.49445"><tspan font-family="FreeSans" stroke-width=".346343" x="2.998776" y="275.49445">ab</tspan></text></g></svg>