<svg height="32" viewBox="0 0 32 32" width="32" xmlns="http://www.w3.org/2000/svg" xmlns:xlink="http://www.w3.org/1999/xlink"><linearGradient id="a" gradientUnits="userSpaceOnUse" x1="24.5" x2="31.5" y1="-12" y2="-12"><stop offset="0" stop-color="#b4b4b6"/><stop offset=".5" stop-color="#9c9ca1"/><stop offset="1" stop-color="#cdcdd1"/></linearGradient><linearGradient id="b" gradientUnits="userSpaceOnUse" x1="38.706953" x2="38.706953" y1="8.06166" y2="1.81752"><stop offset="0" stop-color="#fff"/><stop offset=".52040988" stop-color="#fff"/><stop offset=".7672472" stop-color="#f1f1f1"/><stop offset=".90625" stop-color="#eaeaea"/><stop offset="1" stop-color="#dfdfdf"/></linearGradient><path d="m16 2a14 14 0 0 0 -14 14 14 14 0 0 0 14 14 14 14 0 0 0 14-14h-13v-13.9492188a14 14 0 0 0 -1-.0507812z" fill="url(#a)"/><path d="m16 3.0234375a12.976323 12.976323 0 0 0 -12.9765625 12.9765625 12.976323 12.976323 0 0 0 12.9765625 12.976562 12.976323 12.976323 0 0 0 12.927734-11.976562h-12.927734z" fill="url(#b)" stroke-width="1.081967"/></svg>