<svg height="32" viewBox="0 0 32 32" width="32" xmlns="http://www.w3.org/2000/svg" xmlns:xlink="http://www.w3.org/1999/xlink"><linearGradient id="a"><stop offset="0" stop-color="#b4b4b6"/><stop offset=".5" stop-color="#9c9ca1"/><stop offset="1" stop-color="#cdcdd1"/></linearGradient><linearGradient id="b" gradientUnits="userSpaceOnUse" x1="64" x2="64" y1="128" y2="0"><stop offset="0" stop-color="#fff"/><stop offset=".53125" stop-color="#fff"/><stop offset=".82421875" stop-color="#f1f1f1"/><stop offset=".90234375" stop-color="#eaeaea"/><stop offset="1" stop-color="#dfdfdf"/></linearGradient><linearGradient id="c" gradientUnits="userSpaceOnUse" x1="11.986328" x2="120.01367" xlink:href="#a" y1="64" y2="64"/><linearGradient id="d" gradientUnits="userSpaceOnUse" x1="60.039062" x2="119.9586" xlink:href="#a" y1="97.999191" y2="97.999191"/><g transform="scale(.25)"><path d="m16 3.9863281a4.0139588 4.0139588 0 0 0 -4.013672 4.0136719v112a4.0139588 4.0139588 0 0 0 4.013672 4.01367h48a4.0139588 4.0139588 0 0 0 2.582031-.93945l51.999999-43.669923a4.0139588 4.0139588 0 0 0 1.43164-3.074219v-68.330078a4.0139588 4.0139588 0 0 0 -4.01367-4.0136719z" fill="url(#c)"/><path d="m16 8h100v68.330233l-52 43.669767h-48z" fill="url(#b)"/><path d="m64 72.039062a3.9621271 3.9621271 0 0 0 -3.960938 3.960938v44a3.9621271 3.9621271 0 0 0 6.519532 3.02344l51.999996-44.000002a3.9621271 3.9621271 0 0 0 -2.55859-6.984376z" fill="url(#d)"/><path d="m64 76h52l-52 44z" fill="#fff"/></g></svg>