<svg height="32" width="32" xmlns="http://www.w3.org/2000/svg" xmlns:xlink="http://www.w3.org/1999/xlink"><linearGradient id="a"><stop offset="0" stop-color="#fd0000"/><stop offset="1" stop-color="#8f0000"/></linearGradient><linearGradient id="b"><stop offset="0" stop-color="#fff"/><stop offset="1" stop-color="#fff" stop-opacity="0"/></linearGradient><linearGradient id="c" gradientUnits="userSpaceOnUse" x1="66.333336" x2="69.999977" xlink:href="#a" y1="15.999999" y2="49"/><radialGradient id="d" cx="72.631729" cy="22.787588" gradientTransform="matrix(7.0638773 0 0 7.0638919 -449.01994 -117.94822)" gradientUnits="userSpaceOnUse" r="1.265237" xlink:href="#a"/><linearGradient id="e" gradientUnits="userSpaceOnUse" x1="60.772835" x2="64.905632" xlink:href="#b" y1="28.263599" y2="43.687416"/><linearGradient id="f" gradientTransform="matrix(.48886706 -.00000002 0 .28707749 60.10574 45.533441)" gradientUnits="userSpaceOnUse" x1="45.049786" x2="9.692278" y1="92.52153" y2="103.48482"><stop offset="0" stop-color="#72d13d"/><stop offset=".3553" stop-color="#35ac1c"/><stop offset=".6194" stop-color="#0f9508"/><stop offset=".7574" stop-color="#008c00"/><stop offset="1" stop-color="#007a00"/></linearGradient><linearGradient id="g" gradientUnits="userSpaceOnUse" x1="50.33334" x2="53.999981" xlink:href="#a" y1="72" y2="105"/><radialGradient id="h" cx="72.631729" cy="22.787588" gradientTransform="matrix(7.0638773 0 0 7.0638919 -465.01994 -61.94822)" gradientUnits="userSpaceOnUse" r="1.265237" xlink:href="#a"/><linearGradient id="i" gradientUnits="userSpaceOnUse" x1="44.772835" x2="48.905632" xlink:href="#b" y1="84.263596" y2="99.687416"/><linearGradient id="j" gradientUnits="userSpaceOnUse" x1="82.333336" x2="85.999977" xlink:href="#a" y1="72" y2="105"/><radialGradient id="k" cx="72.631729" cy="22.787588" gradientTransform="matrix(7.0638773 0 0 7.0638919 -433.01994 -61.94822)" gradientUnits="userSpaceOnUse" r="1.265237" xlink:href="#a"/><linearGradient id="l" gradientUnits="userSpaceOnUse" x1="76.772835" x2="80.905632" xlink:href="#b" y1="84.263596" y2="99.687416"/><g transform="scale(.25)"><path d="m16 40v3.95895h96v-3.95895z" fill="#4d4d4d"/><rect fill="url(#c)" height="16" rx="1.546875" width="16" x="56" y="32"/><rect fill="url(#d)" height="11.916666" rx=".837891" width="11.916671" x="58.083344" y="34.083336"/><path d="m59.237755 34.083335c-.618922 0-1.117188.498267-1.117188 1.117188v5.632485c.905495.08607 1.83761.139648 2.792968.139648 3.438363 0 6.6018-.579838 9.123696-1.559407v-4.212726c0-.618921-.498263-1.117188-1.117188-1.117188z" fill="url(#e)"/><path d="m65.875 89.53125a2.3883604 2.3883604 0 0 0 -1.4375.6875l-2 2.03125a2.3883604 2.3883604 0 0 0 -.3125 3l1.59375 2.375h-15.71875a2.3883604 2.3883604 0 0 0 -2.375 2.375v4.03125a2.3883604 2.3883604 0 0 0 2.375 2.375h15.71875l-1.59375 2.375a2.3883604 2.3883604 0 0 0 .3125 3l2 2.03125a2.3883604 2.3883604 0 0 0 3.21875.15625l12.125-10.09375a2.3883604 2.3883604 0 0 0 0-3.6875l-12.125-10.125a2.3883604 2.3883604 0 0 0 -1.78125-.53125z" fill="#fff" transform="matrix(0 1 -1 0 167.995001 3.940441)"/><path d="m55.87908 70.08014 2.01987-2.01987 6.05959 4.03973-.002-20.159559h4.03846l.005 20.159559 6.05938-4.03973 2.01987 2.01987-10.1024 12.1103-10.09615-12.1103h-.001z" fill="url(#f)"/><path d="m8 96v3.95895h48v-3.95895z" fill="#4d4d4d"/><rect fill="url(#g)" height="16" rx="1.546875" width="16" x="40" y="88"/><rect fill="url(#h)" height="11.916666" rx=".837891" width="11.916671" x="42.083347" y="90.083336"/><path d="m43.237755 90.083335c-.618922 0-1.117188.498267-1.117188 1.117188v5.632485c.905495.08607 1.83761.139648 2.792968.139648 3.438363 0 6.6018-.579838 9.123696-1.559407v-4.212726c0-.618921-.498263-1.117188-1.117188-1.117188z" fill="url(#i)"/><path d="m72 96v3.95895h48v-3.95895z" fill="#4d4d4d"/><rect fill="url(#j)" height="16" rx="1.546875" width="16" x="72" y="88"/><rect fill="url(#k)" height="11.916666" rx=".837891" width="11.916671" x="74.083344" y="90.083336"/><path d="m75.237755 90.083335c-.618922 0-1.117188.498267-1.117188 1.117188v5.632485c.905495.08607 1.83761.139648 2.792968.139648 3.438363 0 6.6018-.579838 9.123696-1.559407v-4.212726c0-.618921-.498263-1.117188-1.117188-1.117188z" fill="url(#l)"/></g></svg>