<svg height="32" viewBox="0 0 32 32" width="32" xmlns="http://www.w3.org/2000/svg" xmlns:xlink="http://www.w3.org/1999/xlink"><linearGradient id="a" gradientUnits="userSpaceOnUse" x1="8.279297" x2="119.7207" y1="64" y2="64"><stop offset="0" stop-color="#b4b4b6"/><stop offset=".5" stop-color="#9c9ca1"/><stop offset="1" stop-color="#cdcdd1"/></linearGradient><linearGradient id="b" gradientUnits="userSpaceOnUse" x1="64" x2="64" y1="128" y2="4"><stop offset="0" stop-color="#fff"/><stop offset=".59375" stop-color="#fff"/><stop offset=".84375" stop-color="#f1f1f1"/><stop offset=".90625" stop-color="#eaeaea"/><stop offset="1" stop-color="#dfdfdf"/></linearGradient><path d="m89.201172 3.9023438c-3.206241.0024643-6.293764 1.0561877-8.814453 2.9492187-2.415395-1.6428362-5.280504-2.5583968-8.248047-2.5605469a3.1714544 3.1714544 0 0 0 -.0039 0c-5.00183.00374-9.478892 2.6475241-12.158204 6.7265624-1.229009-.258491-2.475775-.431323-3.736328-.435547a3.1714544 3.1714544 0 0 0 -.01367 0c-5.27839.0051-10.182701 2.365162-13.664062 6.25-.999317-.169387-1.98561-.430297-3.001953-.433593a3.1714544 3.1714544 0 0 0 -.0098 0c-10.081209.000756-18.31222 8.172903-18.464843 18.21875-7.322343 2.609739-12.41298 9.571173-12.4199224 17.535156a3.1714544 3.1714544 0 0 0 0 .0039c.00256 2.870076.8242689 5.627749 2.0878904 8.185547-1.5002461 2.73783-2.4726096 5.737281-2.4746091 8.878906a3.1714544 3.1714544 0 0 0 0 .002c.0007405 10.270765 8.3947941 18.666507 18.6660151 18.666016a3.1714544 3.1714544 0 0 0 .01172 0c.754008-.0029 1.470901-.27753 2.216797-.371094.461171 2.215633 1.332954 4.245681 2.542969 6.074219-2.052009.431632-3.995769 1.069585-5.681641 1.982422-3.196867 1.730984-5.752588 4.621891-5.753906 8.134761a3.1714544 3.1714544 0 0 0 0 .002c-.000206 2.05888.936899 3.8628 2.306641 5.38672-1.029927.28017-2.048789.59216-2.949219 1.08007-2.204564 1.19458-4.182421 3.33304-4.181641 6.08594.000382 2.75314 1.978829 4.89175 4.183594 6.08594 2.204765 1.19418 4.89271 1.74801 7.595703 1.74805 2.702993-.00004 5.390938-.55387 7.595703-1.74805 2.204229-1.1939 4.18225-3.33182 4.183594-6.08399.000438-.69159-.126225-1.34427-.347656-1.95312 3.668578-.1607 7.270691-.91238 10.136719-2.46484 3.19667-1.73157 5.752305-4.62359 5.751953-8.13672a3.1714544 3.1714544 0 0 0 0-.006c-.0024-1.34212-.462706-2.55542-1.103516-3.68555.827865-.366623 1.53139-.966418 2.296875-1.458983 3.161355 2.345333 6.970386 3.697573 10.951172 3.703123a3.1714544 3.1714544 0 0 0 .0059 0c6.612073-.003031 12.496471-3.665849 15.779281-9.263611.813931.11218 1.613267.336437 2.435547.339844a3.1714544 3.1714544 0 0 0 .01367 0c10.175587.000469 18.493373-8.31658 18.494143-18.492188a3.1714544 3.1714544 0 0 0 0-.002c-.001-1.282421-.19619-2.546648-.45899-3.792969 9.35339-.8973 16.75044-8.737029 16.75-18.316406a3.1714544 3.1714544 0 0 0 0-.002c-.005-6.093434-3.12466-11.584926-8-15 1.09736-2.086174 1.8749-4.32158 1.87891-6.714844a3.1714544 3.1714544 0 0 0 0-.0098c-.008828-6.259188-4.105908-11.526062-9.818358-13.591668-.61719-7.5240395-6.903292-13.515615-14.578125-13.5156252a3.1714544 3.1714544 0 0 0 -.002 0z" fill="url(#a)" transform="scale(.25)"/><path d="m89.203125 8.8945312c-2.815918.00273-5.489859 1.2274678-7.332031 3.3574218a1.8206315 1.8206315 0 0 1 -2.699219.060547c-1.830869-1.932224-4.371278-3.0263008-7.033203-3.0292969h-.0039c-3.963407.00456-7.515471 2.4083289-8.994141 6.0859379a1.8206315 1.8206315 0 0 1 -2.316406 1.029297c-1.472588-.539579-3.02762-.818515-4.595703-.824219h-.0039c-4.358025.0068-8.439952 2.112144-10.970703 5.660156a1.8206315 1.8206315 0 0 1 -1.990234.691406c-1.206969-.350204-2.456975-.530538-3.712891-.535156h-.0059c-7.473162.0038-13.491284 6.02459-13.494141 13.498047-.000001.002 0 .0039 0 .0059.0054.602816.05255 1.202602.138672 1.800781a1.8206315 1.8206315 0 0 1 -1.457031 2.046876c-6.435366 1.246361-11.066636 6.855541-11.074219 13.410156.000001.000651-.000001.0013 0 .002-.000001.000662.000001.0013 0 .002.003 2.572027.731458 5.090562 2.101563 7.267578a1.8206315 1.8206315 0 0 1 -.04492 2.007813c-1.588627 2.287099-2.44119 5.005414-2.44336 7.791015.000546 7.571624 6.097385 13.670988 13.667969 13.673828 1.481722-.0059 2.954618-.252566 4.357422-.730468a1.8206315 1.8206315 0 0 1 2.40625 1.8125 1.8206315 1.8206315 0 0 1 0 .0059c.0081 4.501861 2.360605 8.418572 5.898437 10.65625a1.8206315 1.8206315 0 0 1 -1.0625 3.357422c-.37198-.01839-.745367-.02836-1.11914-.0293h-.0039c-3.396302.000295-6.770207.784675-9.003907 1.994141-2.234572 1.209939-3.138259 2.647669-3.138671 3.748049-.000111 1.10055.902142 2.53779 3.136718 3.74804 2.234577 1.21026 5.611562 1.99642 9.009766 1.9961 3.397901.00006 6.773631-.78589 9.007812-1.9961 2.233155-1.20965 3.136-2.64583 3.136719-3.74609-.0028-1.09745-.904279-2.53083-3.128906-3.738281a1.8206315 1.8206315 0 0 1 .744141-3.416015c2.816169-.193698 5.492284-1.311886 7.595703-3.207032a1.8206315 1.8206315 0 0 1 2.49414.05273c2.520534 2.473861 5.906741 3.862264 9.4375 3.867187 5.473766-.0034 10.391043-3.301133 12.47461-8.363281a1.8206315 1.8206315 0 0 1 2.173828-1.060547c1.166132.326678 2.374206.494972 3.58789.5 7.473862-.0039 13.492508-6.023423 13.494141-13.498047-.0018-2.159714-.522053-4.287957-1.515625-6.205078a1.8206315 1.8206315 0 0 1 1.947266-2.628906c.781061.143608 1.573729.218413 2.369139.222656 7.47292-.0059 13.48951-6.026028 13.49024-13.5-.004-5.341718-3.14792-10.16959-8.03125-12.333984a1.8206315 1.8206315 0 0 1 -.60938-2.886719c1.61652-1.780933 2.51405-4.097683 2.51953-6.501953v-.0039c-.009-4.789662-3.47826-8.834235-8.21094-9.572266a1.8206315 1.8206315 0 0 1 -1.531246-1.972656c.02764-.289313.04322-.580421.04492-.867188v-.002c-.001058-5.380002-4.324807-9.7021731-9.705056-9.7032518zm-61.966797 104.5253888c-1.995722.00003-3.97834.47329-5.220703 1.14649-1.242363.67319-1.566622 1.35447-1.566406 1.69531a1.8206315 1.8206315 0 0 1 0 .002c.000047.34075.325947 1.02238 1.568359 1.69531 1.242412.67294 3.22356 1.14646 5.21875 1.14649 1.995191-.00003 3.976338-.47355 5.21875-1.14649 1.242412-.67293 1.568312-1.35456 1.56836-1.69531a1.8206315 1.8206315 0 0 1 0-.002c.000215-.34084-.324044-1.02212-1.566407-1.69531-1.242363-.6732-3.224981-1.14646-5.220703-1.14649z" fill="url(#b)" transform="scale(.25)"/></svg>