<svg height="32" width="32" xmlns="http://www.w3.org/2000/svg" xmlns:xlink="http://www.w3.org/1999/xlink"><linearGradient id="a" gradientUnits="userSpaceOnUse" x1="14.214549" x2="17.881189" xlink:href="#f" y1="13.678409" y2="46.67841"/><radialGradient id="b" cx="72.631729" cy="22.787588" gradientTransform="matrix(7.0638773 0 0 7.0638919 -501.13873 -120.26981)" gradientUnits="userSpaceOnUse" r="1.265237" xlink:href="#f"/><linearGradient id="c" gradientUnits="userSpaceOnUse" x1="8.654038" x2="12.786838" y1="25.942007" y2="41.365826"><stop offset="0" stop-color="#fff"/><stop offset="1" stop-color="#fff" stop-opacity="0"/></linearGradient><filter id="d" color-interpolation-filters="sRGB" height="1.306617" width="1.43589" x="-.217945" y="-.153309"><feGaussianBlur stdDeviation="3.1542391"/></filter><linearGradient id="e" gradientUnits="userSpaceOnUse" x1="27.118645" x2="23.050846" y1="48" y2="22.779661"><stop offset="0" stop-color="#070707"/><stop offset="1" stop-color="#474747"/></linearGradient><linearGradient id="f"><stop offset="0" stop-color="#fd0000"/><stop offset="1" stop-color="#8f0000"/></linearGradient><linearGradient id="g" gradientUnits="userSpaceOnUse" x1="104" x2="96" y1="128" y2="32"><stop offset="0" stop-color="#0968ef"/><stop offset="1" stop-color="#aecffc"/></linearGradient><g transform="scale(.25)"><path d="m21.74849 16.443651 21.417504 38.456833-19.819697 52.687526 83.334713-10.136198-49.140675-33.069811 45.799495-48.291904z" fill="url(#g)"/><g fill="#4d4d4d"><path d="m110.24975 96.726345-83.450093 7.821115.391013 3.99841 83.39799-7.668z"/><path d="m63.80731 72.033797 42.75556 25.369682 2.04722-3.456693-42.646282-25.476455z"/><path d="m97.910898 11.941515-67.877702.112375.01772 4.01742 67.824265.0353z"/><path d="m98.381386 19.471603-41.928815 46.210945 2.981317 2.692894 42.004932-46.075186z"/></g><path d="m21.117327 21.82685 17.29055 30.631051 3.500319-1.971679-17.148181-30.679071z" fill="#4d4d4d"/><g transform="translate(12.026995 -21.779345)"><rect fill="url(#a)" height="16" rx="1.546875" width="16" x="3.8812" y="29.678408"/><rect fill="url(#b)" height="11.916666" rx=".837891" width="11.916671" x="5.964551" y="31.761745"/><path d="m7.1189636 31.761745c-.61893 0-1.11719.498267-1.11719 1.117188v5.632487c.90549.0861 1.83761.13965 2.79297.13965 3.4383604 0 6.6018004-.57984 9.1236904-1.55941v-4.212727c0-.618921-.49826-1.117188-1.11719-1.117188z" fill="url(#c)"/></g><g transform="translate(92.173443 -21.621413)"><rect fill="url(#a)" height="16" rx="1.546875" width="16" x="3.8812" y="29.678408"/><rect fill="url(#b)" height="11.916666" rx=".837891" width="11.916671" x="5.964551" y="31.761745"/><path d="m7.1189636 31.761745c-.61893 0-1.11719.498267-1.11719 1.117188v5.632487c.90549.0861 1.83761.13965 2.79297.13965 3.4383604 0 6.6018004-.57984 9.1236904-1.55941v-4.212727c0-.618921-.49826-1.117188-1.11719-1.117188z" fill="url(#c)"/></g><path d="m38.113075 57.22772-17.867518 47.47984 3.761459 1.41112 17.991463-47.390167z" fill="#4d4d4d"/><g transform="translate(28.139225 14.389179)"><rect fill="url(#a)" height="16" rx="1.546875" width="16" x="3.8812" y="29.678408"/><rect fill="url(#b)" height="11.916666" rx=".837891" width="11.916671" x="5.964551" y="31.761745"/><path d="m7.1189636 31.761745c-.61893 0-1.11719.498267-1.11719 1.117188v5.632487c.90549.0861 1.83761.13965 2.79297.13965 3.4383604 0 6.6018004-.57984 9.1236904-1.55941v-4.212727c0-.618921-.49826-1.117188-1.11719-1.117188z" fill="url(#c)"/></g><g transform="translate(52.06621 30.220655)"><rect fill="url(#a)" height="16" rx="1.546875" width="16" x="3.8812" y="29.678408"/><rect fill="url(#b)" height="11.916666" rx=".837891" width="11.916671" x="5.964551" y="31.761745"/><path d="m7.1189636 31.761745c-.61893 0-1.11719.498267-1.11719 1.117188v5.632487c.90549.0861 1.83761.13965 2.79297.13965 3.4383604 0 6.6018004-.57984 9.1236904-1.55941v-4.212727c0-.618921-.49826-1.117188-1.11719-1.117188z" fill="url(#c)"/></g><g transform="translate(99.960132 62.375539)"><rect fill="url(#a)" height="16" rx="1.546875" width="16" x="3.8812" y="29.678408"/><rect fill="url(#b)" height="11.916666" rx=".837891" width="11.916671" x="5.964551" y="31.761745"/><path d="m7.1189636 31.761745c-.61893 0-1.11719.498267-1.11719 1.117188v5.632487c.90549.0861 1.83761.13965 2.79297.13965 3.4383604 0 6.6018004-.57984 9.1236904-1.55941v-4.212727c0-.618921-.49826-1.117188-1.11719-1.117188z" fill="url(#c)"/></g><g transform="translate(8.119826 70.357141)"><rect fill="url(#a)" height="16" rx="1.546875" width="16" x="3.8812" y="29.678408"/><rect fill="url(#b)" height="11.916666" rx=".837891" width="11.916671" x="5.964551" y="31.761745"/><path d="m7.1189636 31.761745c-.61893 0-1.11719.498267-1.11719 1.117188v5.632487c.90549.0861 1.83761.13965 2.79297.13965 3.4383604 0 6.6018004-.57984 9.1236904-1.55941v-4.212727c0-.618921-.49826-1.117188-1.11719-1.117188z" fill="url(#c)"/></g><g transform="matrix(1.425 0 0 1.425 53.27012 40.423486)"><path d="m17.060547 12.158203a2.3165482 2.3165482 0 0 0 -2.292969 2.316406v43.931641a2.3165482 2.3165482 0 0 0 2.789063 2.267578l12.017578-2.501953 4.052734 2.925781a2.3165482 2.3165482 0 0 0 2.1875.285156s.994873-.375522 2.029297-.955078c.517212-.289778 1.056187-.616741 1.599609-1.136718.271711-.259989.557908-.570762.802735-1.060547.244826-.489785.429144-1.250221.238281-2.013672-.143844-.575376-.480314-2.249138-.744141-3.541016l8.742188-5.908203a2.3165482 2.3165482 0 0 0 .347656-3.550781l-30.101562-30.373047a2.3165482 2.3165482 0 0 0 -1.667969-.685547z" filter="url(#d)" opacity=".76"/><path d="m17.060547 10.158203a2.3165482 2.3165482 0 0 0 -2.292969 2.316406v43.931641a2.3165482 2.3165482 0 0 0 2.789063 2.267578l12.017578-2.501953 4.052734 2.925781a2.3165482 2.3165482 0 0 0 2.1875.285156s.994873-.375522 2.029297-.955078c.517212-.289778 1.056187-.616741 1.599609-1.136718.271711-.259989.557908-.570762.802735-1.060547.244826-.489785.429144-1.250221.238281-2.013672-.143844-.575376-.480314-2.249138-.744141-3.541016l8.742188-5.908203a2.3165482 2.3165482 0 0 0 .347656-3.550781l-30.101562-30.373047a2.3165482 2.3165482 0 0 0 -1.667969-.685547z" fill="#fff"/><path d="m18.757812 16.544922v37.800781l11.001954-2.291015c.783411-.07693 1.014571.122272 1.322265.283203l4.083985 2.951171c.205739-.08636.376081-.147386.726562-.34375.257288-.144149.430719-.278581.585938-.396484-.358612-1.585341-.966797-4.59375-.966797-4.59375-.244571-.620166.125465-1.178871.703126-1.716813l8.357422-5.646484z" fill="url(#e)"/></g></g></svg>