<svg height="32" viewBox="0 0 8.4666665 8.466667" width="32" xmlns="http://www.w3.org/2000/svg" xmlns:xlink="http://www.w3.org/1999/xlink"><radialGradient id="a" cx="51.767773" cy="14.017021" gradientTransform="matrix(1.72893 .00000002 0 .08175904 -35.735084 6.887999)" gradientUnits="userSpaceOnUse" r="46" xlink:href="#b"/><linearGradient id="b"><stop offset="0" stop-color="#fff"/><stop offset="1" stop-color="#fff" stop-opacity="0"/></linearGradient><radialGradient id="c" cx="50" cy="106.01698" gradientTransform="matrix(.8043478 .00000021 -.00000006 .2293229 11.782615 87.687866)" gradientUnits="userSpaceOnUse" r="46" xlink:href="#b"/><radialGradient id="d" cx="52" cy="98.397842" gradientTransform="matrix(1 0 0 1.1459883 2 -8.762777)" gradientUnits="userSpaceOnUse" r="41.838463"><stop offset="0" stop-color="#5e5e5e"/><stop offset="1" stop-opacity="0"/></radialGradient><linearGradient id="e" gradientUnits="userSpaceOnUse" x1="62" x2="62" xlink:href="#b" y1="140" y2="28"/><filter id="f"><feGaussianBlur stdDeviation=".13617728"/></filter><linearGradient id="g" gradientUnits="userSpaceOnUse" x1="91.095451" x2="96.487144" xlink:href="#b" y1="14.023225" y2="4.300506"/><filter id="h" height="1.317541" width="1.244662" x="-.122331" y="-.15877"><feGaussianBlur stdDeviation=".27482165"/></filter><linearGradient id="i" gradientUnits="userSpaceOnUse" x1="12.518213" x2="12.518213" xlink:href="#b" y1="12.211263" y2="-1.444737"/><filter id="j" height="1.317541" width="1.271353" x="-.135676" y="-.15877"><feGaussianBlur stdDeviation=".27482165"/></filter><linearGradient id="k" gradientUnits="userSpaceOnUse" x1="42" x2="58" xlink:href="#b" y1="-104" y2="64"/><linearGradient id="l" gradientUnits="userSpaceOnUse" x1="78.224998" x2="46.225002" xlink:href="#b" y1="63.974998" y2="-32.025002"/><linearGradient id="m" gradientUnits="userSpaceOnUse" x1="54.000004" x2="57.724998" xlink:href="#b" y1="0" y2="63.974998"/><linearGradient id="n" gradientUnits="userSpaceOnUse" x1="80.125" x2="76.8125" xlink:href="#b" y1="106.1875" y2="101.125"/><filter id="o" height="1.260297" width="1.097377" x="-.048689" y="-.130148"><feGaussianBlur stdDeviation=".17624262"/></filter><linearGradient id="p" gradientUnits="userSpaceOnUse" x1="78.125" x2="74.8125" xlink:href="#b" y1="106.1875" y2="101.125"/><g transform="scale(.25)"><g transform="matrix(.79404701 0 0 .79404701 3.498514 -200.77572)"><path d="m18.890121 266.5729c.000002 1.0807-.876082 6.71929-1.956787 6.71929s-1.95679-5.63858-1.956788-6.71929c.000004-1.0807.876087-1.95678 1.956788-1.95678s1.956783.87608 1.956787 1.95678z" fill="#f60"/><path d="m11.885829 267.40472c.540352.93592 2.600936 6.25712 1.665018 6.79747-.935918.54036-4.5139198-3.90475-5.0542731-4.84068-.5403465-.93591-.2196764-2.13266.7162381-2.67301.935915-.54035 2.132664-.21969 2.673017.71622z" fill="#c00"/><path d="m6.2358445 271.62725c.9359185.54035 5.3810365 4.11835 4.8406825 5.05427-.540348.93592-5.8615439-1.12465-6.7974685-1.66501-.9359088-.54035-1.2565754-1.7371-.7162247-2.67302.5403512-.93591 1.7370962-1.25659 2.6730107-.71624z" fill="#730055"/><path d="m3.4540793 278.10906c1.0807042 0 6.7192897.87608 6.7192887 1.95678.000005 1.08071-5.6385706 1.9568-6.719285 1.9568-1.0806958-.00001-1.9567763-.87609-1.9567788-1.95679.0000028-1.0807.8760744-1.95679 1.9567751-1.95679z" fill="#2c0059"/><path d="m4.285905 285.11335c.9359173-.54035 6.257116-2.60093 6.797465-1.66502.540359.93592-3.9047457 4.51392-4.8406718 5.05428-.935915.54034-2.132663.21967-2.6730152-.71624-.5403475-.93591-.2196923-2.13267.716222-2.67302z" fill="#039"/><path d="m8.5084322 290.76333c.5403532-.93591 4.1183568-5.38103 5.0542678-4.84068.935924.54035-1.124649 5.86154-1.665005 6.79747-.540356.93591-1.737106 1.25657-2.6730193.71623-.9359096-.54035-1.2565941-1.7371-.7162435-2.67302z" fill="#36c"/><path d="m14.990238 293.5451c.000005-1.0807.876087-6.71929 1.956784-6.71929 1.080709-.00001 1.956796 5.63857 1.956799 6.71928-.000007 1.0807-.876093 1.95678-1.956788 1.95679-1.080696 0-1.956792-.87608-1.956795-1.95678z" fill="#69f"/><path d="m21.994532 292.71328c-.540346-.93592-2.600932-6.25712-1.665021-6.79747.935917-.54036 4.51392 3.90475 5.054278 4.84067.540344.93591.219671 2.13266-.716233 2.67302-.93591.54035-2.132672.21969-2.673024-.71622z" fill="#9c3"/><path d="m27.644518 288.49075c-.935913-.54036-5.381033-4.11836-4.840685-5.05427.540348-.93592 5.861544 1.12465 6.797468 1.66501.935906.54034 1.25657 1.7371.716234 2.67301-.540347.93592-1.737103 1.2566-2.673017.71625z" fill="#0c0"/><path d="m30.519829 282.10248c-1.080705-.00001-6.719292-.87609-6.719292-1.95678-.000005-1.08071 5.638571-1.9568 6.719285-1.9568 1.080689 0 1.956772.87609 1.956782 1.95678.000006 1.08071-.876075 1.9568-1.956775 1.9568z" fill="#690"/><path d="m29.59446 275.00465c-.935923.54034-6.257122 2.60093-6.797467 1.66502-.540359-.93592 3.904746-4.51392 4.840671-5.05428.935904-.54035 2.13266-.21967 2.673013.71623.54036.93592.219697 2.13268-.716217 2.67303z" fill="#fc0"/><path d="m25.371934 269.35466c-.540363.93591-4.118362 5.38104-5.054269 4.84069-.935925-.54035 1.124649-5.86154 1.665004-6.79747.540341-.93591 1.737103-1.25657 2.673012-.71624.935925.54035 1.256603 1.73711.716253 2.67302z" fill="#f90"/></g><g transform="matrix(.19310343 0 0 .19310343 6.88697 .75142)"><path d="m7.6184157 8.0340192-1.6184158 31.9659808h7.6886241l.336729-1.616495c1.620211-8.865674 4.911925-13.323265 7.567278-15.496907 1.541606-1.260214 2.506958-1.82056 4.321344-2.251547s4.526678-.635051 9.035537-.635051h7.015168l.03532 67.999999c-.313043 4.423918.547584 9.576952-2.122968 13.399761-2.636929 2.93537-8.073635 2.82925-12.08115 3.26828l-1.795883.1732v7.15876h52v-7.15876l-1.795883-.1732c-6.44286-.48116-9.93895-1.15418-11.734776-2.64742-2.453359-2.039992-2.469337-7.774431-2.469339-14.020621v-67.999999h7.295775c4.708211 0 7.552777.200033 9.372265.635051s2.681715 1.003308 4.040737 2.251547c2.387107 2.19517 5.383475 6.717683 7.26587 15.554639l.336728 1.558763 7.688624.099999-1.373128-32.0659798z"/><path d="m7.6184157 8.0340192-1.6184158 31.9659808h7.6886241l.336729-1.616495c1.620211-8.865674 4.911925-13.323265 7.567278-15.496907 1.541606-1.260214 2.506958-1.82056 4.321344-2.251547s4.526678-.635051 9.035537-.635051h7.015168 20.035321 7.295775c4.708211 0 7.552777.200033 9.372265.635051s2.681715 1.003308 4.040737 2.251547c2.387107 2.19517 5.383475 6.717683 7.26587 15.554639l.336728 1.558763 7.688624.099999-1.373128-32.0659798z" fill="url(#a)" opacity=".74"/><path d="m42 87.999999c-.313043 4.423918.547584 9.576952-2.122968 13.399761-2.636929 2.93537-8.073635 2.82925-12.08115 3.26828l-1.795883.1732v7.15876h52v-7.15876l-1.795883-.1732c-6.44286-.48116-9.93895-1.15418-11.734776-2.64742-2.453359-2.039992-2.469337-7.774431-2.469339-14.020621z" fill="url(#c)" opacity=".632"/><path d="m11.365898 12.077427h81.488195l1.010184 23.901031h-.617334c-2.031178-8.253911-4.963004-13.394313-7.91311-16.107216-1.5336-1.408586-3.490912-2.627843-5.780499-3.175258-2.442676-.584015-5.453406-.750512-10.270207-.750516h-7.295775-3.928494v4.041237 68.008249c.000002 3.126654-.02548 6.242548.336728 9.121649.36221 2.879101.963326 5.896897 3.591766 8.082477 1.950085 1.62151 4.388503 2.31098 7.239654 2.77113h-34.1779c2.572241-.46432 5.493303-1.30406 7.744746-3.81031l.168364-.17319.112242-.23093c3.885007-5.561263 2.722718-11.79946 2.981663-15.458872v-.115464-.173195l-.056121-72.008249h-12c-4.624535 0-6.608615.128746-8.996615.695984-2.245754.533452-4.112989 1.593053-5.83662 3.002062-3.236194 2.649113-6.707414 7.770849-8.586566 16.22268h-.39285z" fill="url(#d)"/><path d="m11.365898 12.077427h81.488195l1.010184 23.901031h-.617334c-2.031178-8.253911-4.963004-13.394313-7.91311-16.107216-1.5336-1.408586-3.490912-2.627843-5.780499-3.175258-2.442676-.584015-5.453406-.750512-10.270207-.750516h-7.295775-3.928494v4.041237 68.008249c.000002 3.126654-.02548 6.242548.336728 9.121649.36221 2.879101.963326 5.896897 3.591766 8.082477 1.950085 1.62151 4.388503 2.31098 7.239654 2.77113h-34.1779c2.572241-.46432 5.493303-1.30406 7.744746-3.81031l.168364-.17319.112242-.23093c3.885007-5.561263 2.722718-11.79946 2.981663-15.458872v-.115464-.173195l-.056121-72.008249h-12c-4.624535 0-6.608615.128746-8.996615.695984-2.245754.533452-4.112989 1.593053-5.83662 3.002062-3.236194 2.649113-6.707414 7.770849-8.586566 16.22268h-.39285z" fill="none" filter="url(#f)" opacity=".56" stroke="url(#e)"/><path d="m96.487145 8.0570111-3.535534 4.1542519-1.856156-.265165z" fill="url(#g)" fill-rule="evenodd" filter="url(#h)"/><path d="m11.280777 12.122875-3.6239227-4.1542523 4.8613587 3.9774753z" fill="url(#i)" fill-rule="evenodd" filter="url(#j)"/><path d="m11.375 12.0625-1.1875 23.84375h.40625c1.879152-8.451831 5.326306-13.569637 8.5625-16.21875 1.723631-1.409009 3.597995-2.466548 5.84375-3 2.388-.567238 4.375465-.6875 9-.6875h12l.0063 34.59375c4.223425-.606961 8.189108-1.410961 12.05625-2.375v-28.21875-4.0625h3.93745 7.28125c4.816801.000004 7.838571.165985 10.28125.75 2.289587.547415 4.247651 1.778913 5.78125 3.1875 2.264701 2.082608 4.499776 5.620927 6.34375 10.875.675527-.750161 1.301403-1.50489 1.875-2.28125l-.71875-16.40625z" fill="url(#k)" opacity=".908"/><path d="m92.5375 12.0375.6875 15.40625c-.5736.77636-1.19947 1.531089-1.875 2.28125-.82979-2.364333-1.73226-4.154601-2.6875-5.625 1.07235 1.801665 2.07801 3.997964 3 6.625.67553-.750161 1.3014-1.50489 1.875-2.28125l-.71875-16.40625zm-34.8125 35.15625c-3.7708.940023-7.53322 2.011109-11.64375 2.6125v.7625c4.22343-.606961 8.08911-1.410961 11.95625-2.375v-28.21875-4.0625zm-28.90625-31.125c-1.60781.116595-2.96225.310131-4.15625.59375-2.24575.533452-4.12012 1.590991-5.84375 3-3.23619 2.649113-6.68335 6.766919-8.5625 15.21875h-.03125l-.0625 1h.40625c1.87915-8.451831 5.32631-13.569637 8.5625-16.21875 1.72363-1.409009 3.598-2.466548 5.84375-3 1.194-.283619 2.51719-.477155 4.125-.59375-.08756.0058-.19531-.0062-.28125 0z" fill="url(#l)" opacity=".908"/><path d="m11.1 12.0375-1.1875004 23.84375h.0625l1.1250004-23.64375c26.951596.409308 54.0474.6302 81.46875.1l.6875 16.16875c.01342-.01807.01788-.04441.03125-.0625l-.71875-16.40625z" fill="url(#m)" opacity=".908"/><g fill-rule="evenodd"><path d="m69.312501 107.8125 2.375-3.75 6.3125.8125z" fill="url(#n)" filter="url(#o)"/><path d="m67.312501 107.8125 2.375-3.75 6.3125.8125z" fill="url(#p)" filter="url(#o)" transform="matrix(-1 0 0 1 102.0625 .2)"/></g></g><path d="m.329215 26.47667h33.208237v7.015825h-33.208237z" fill="#f00"/></g></svg>