<svg height="32" width="32" xmlns="http://www.w3.org/2000/svg" xmlns:xlink="http://www.w3.org/1999/xlink"><linearGradient id="a"><stop offset="0" stop-color="#0968ef"/><stop offset="1" stop-color="#aecffc"/></linearGradient><linearGradient id="b" gradientUnits="userSpaceOnUse" x1="-108" x2="-104" xlink:href="#a" y1="-124" y2="-68"/><linearGradient id="c" gradientUnits="userSpaceOnUse" x1="-16" x2="-16" xlink:href="#a" y1="39.990814" y2="-28.009184"/><g transform="scale(.25)"><g fill="#4d4d4d"><path d="m36 108h68v4h-68z" opacity=".99"/><path d="m96 64h-60v4h60z" opacity=".99"/><path d="m24 20h72v4h-72z" opacity=".99"/></g><circle cx="-18.009184" cy="22" fill="url(#c)" opacity=".99" r="18.009184" transform="scale(-1 1)"/><path d="m96 20v4c6.648 0 12 7.136 12 16v8c0 8.864-5.352 16-12 16v4c4.75527 0 8.93585-2.598715 11.69336-6.275391 2.75751-3.676675 4.30664-8.48752 4.30664-13.724609v-8c0-5.237089-1.54913-10.047934-4.30664-13.724609-2.75751-3.676676-6.93809-6.275391-11.69336-6.275391z" fill="#4d4d4d" fill-opacity=".992157" opacity=".99"/><path d="m36 64v4c-6.648 0-12 7.136-12 16v8c0 8.864 5.352 16 12 16v4c-4.75527 0-8.93585-2.59871-11.69336-6.27539s-4.30664-8.487521-4.30664-13.72461v-8c0-5.237089 1.54913-10.047934 4.30664-13.724609 2.75751-3.676676 6.93809-6.275391 11.69336-6.275391z" fill="#4d4d4d" fill-opacity=".992157" opacity=".99"/><path d="m-123.99999-123.99999h31.99999v31.99999h-31.99999z" fill="url(#b)" opacity=".99" transform="scale(-1)"/></g></svg>