<svg height="32" width="32" xmlns="http://www.w3.org/2000/svg" xmlns:xlink="http://www.w3.org/1999/xlink"><filter id="a" height="1.509401" width="1.128116" x="-.064058" y="-.254701"><feGaussianBlur stdDeviation="1.2735026"/></filter><linearGradient id="b"><stop offset="0" stop-color="#cbff10"/><stop offset="1" stop-color="#004d00"/></linearGradient><linearGradient id="c"><stop offset="0" stop-color="#fff"/><stop offset="1" stop-color="#fff" stop-opacity="0"/></linearGradient><radialGradient id="d" cx="23.961966" cy="95.505981" gradientTransform="matrix(1 0 0 .82857145 -.0266 17.9961)" gradientUnits="userSpaceOnUse" r="23.961966" xlink:href="#c"/><linearGradient id="e" gradientTransform="matrix(-1 0 0 1 47.91001 2.03502)" gradientUnits="userSpaceOnUse" x1="34.305496" x2="10.116755" xlink:href="#b" y1="86.119057" y2="110.3078"/><linearGradient id="f" gradientUnits="userSpaceOnUse" x1="30.745365" x2="3.166721" xlink:href="#b" y1="91.687608" y2="107.61015"/><linearGradient id="g" gradientUnits="userSpaceOnUse" x1="19.745952" x2="19.745952" xlink:href="#b" y1="81.84781" y2="102.03457"/><filter id="h"><feGaussianBlur stdDeviation=".45393981"/></filter><clipPath id="i"><path d="m-95.9375 68-23.96875 6.40625h-.0313l-.0625 29.3125 24 12 .03125-15.84375.03125 15.84375 24-12-.06245-29.28125.0625-.03125-.0625-.03125h-.03125z"/></clipPath><linearGradient id="j" gradientUnits="userSpaceOnUse" x1="-101.26798" x2="-101.26798" y1="99.718452" y2="59.979767"><stop offset="0" stop-color="#1d3c12"/><stop offset="1" stop-color="#1d3c12" stop-opacity="0"/></linearGradient><filter id="k"><feGaussianBlur stdDeviation=".80029544"/></filter><radialGradient id="l" cx="23.961966" cy="95.505981" gradientTransform="matrix(.19271654 0 0 .15967942 19.317499 81.87929)" gradientUnits="userSpaceOnUse" r="23.961966" xlink:href="#c"/><linearGradient id="m" gradientTransform="matrix(2.3043855 0 0 2.301606 102.81078 14.683986)" gradientUnits="userSpaceOnUse" x1="-56.766014" x2="-2.955573" y1="7.523449" y2="35.33012"><stop offset="0" stop-color="#cfd13d"/><stop offset="1" stop-color="#db8900"/></linearGradient><linearGradient id="n" gradientUnits="userSpaceOnUse" x1="12" x2="132.79991" y1="73" y2="45.746693"><stop offset="0" stop-color="#fdff63"/><stop offset="1" stop-color="#fff" stop-opacity="0"/></linearGradient><g transform="matrix(.49758883 0 0 .49758883 7.870824 -39.332197)"><path d="m.26028 115.82963 23.71312 11.90539 24-12" filter="url(#a)" stroke="#000"/><path d="m-.0266 86.432484 24 9.596196 24-9.596196-24-6.397464z" fill="url(#g)"/><path d="m-.08999 115.7561 24 12 .0634-31.72108-24-9.614372z" fill="url(#f)"/><path d="m47.9734 115.7561-24 12-.0634-31.72108 24-9.614372z" fill="url(#e)"/><path d="m-.0266 86.403799 24 9.331221 23.92393-9.280508-23.93661 10.497618.0507 29.16007-.81142-29.3122-23.22662-10.396201z" fill="url(#d)"/><path clip-path="url(#i)" d="m-95.9375 67.7-24.26875 6.40625h-.0313l.2375 29.6125 24 12h.0625l24-12 .43755-29.58125.0625-.03125-.0625-.03125h-.03125z" fill="none" filter="url(#h)" stroke="url(#j)" stroke-width="5.508869" transform="translate(120.00005 11.98125)"/><path d="m-.0266 86.403799 24 9.331221 23.92393-9.280508-23.93661 10.497618.0507 29.16007-.81142-29.3122-23.22662-10.396201z" fill="url(#d)" filter="url(#k)"/><path d="m-.0266 86.403799 24 9.331221 23.92393-9.280508-23.93661 10.497618.0507 29.16007-.81142-29.3122-23.22662-10.396201z" fill="url(#l)" filter="url(#k)"/></g><g fill-rule="evenodd" transform="matrix(.25 0 0 .25 .000336 -.003587)"><path d="m7.9979194 53.532577a4.47222 4.4668257 0 0 0 -4.3522284 3.447914c-3.67343937 15.60882-4.7069839 25.816898-1.1476923 33.445212 1.779647 3.814157 4.9869944 6.659525 8.7584643 8.176997 3.771471 1.51747 8.027021 1.96289 12.876655 1.94647l23.876494-.0809h5.20287l-8.3759 8.37479a4.47222 4.4668257 0 0 0 -.83714 5.15164l4.001169 8.00168a4.47222 4.4668257 0 0 0 6.81414 1.47896l38.026861-30.694085a4.47222 4.4668257 0 0 0 -.08101-7.012706l-38.026864-29.305019a4.47222 4.4668257 0 0 0 -6.818642 1.721709l-3.659111 8.203967a4.47222 4.4668257 0 0 0 .909151 4.958343l8.114857 8.185984h-29.610453a4.47222 4.4668257 0 0 0 -.05851.0046c-2.54479.03273-2.97012-.458637-3.560093-1.303644-.589976-.845007-1.109272-2.732823-1.156696-5.187603-.04742-2.45478.300317-5.336897.697618-7.970211.397299-2.633311.882147-4.785651.882147-7.075641a4.47222 4.4668257 0 0 0 -4.473746-4.468349z" fill="url(#m)"/><path d="m90.028508 89.307551-38.028509-29.307551-3.656133 8.206301 15.656133 15.793698h-40.332652c-14.4366644.185602-7.667348-20.498048-7.667348-25.999995h-7.9999988c-7.20035665 30.59505-2.0333967 38.142313 16.1216398 38.080842l23.878361-.08085h15.999998l-15.999998 16.000004 3.999998 8z" fill="#fd0"/><path d="m12.666016 58-.666016 2c-4.711081 10.692059-3.1250304 27.739603 4 28 24.60617.395874 54.511334 5.030943 72.333984 0l-36.333984-28-3.65625 8.207031 15.65625 15.792969h-40.332031c-14.4366646.185602-7.667969-20.498053-7.667969-26z" fill="url(#n)"/></g></svg>