<svg height="32" width="32" xmlns="http://www.w3.org/2000/svg" xmlns:xlink="http://www.w3.org/1999/xlink"><linearGradient id="a" gradientTransform="matrix(.08974312 0 0 .1561428 29.508881 -31.95813)" gradientUnits="userSpaceOnUse" x1="384.33163" x2="384.33163" y1="819.49426" y2="691.40637"><stop offset="0" stop-color="#cbcbcd"/><stop offset=".5" stop-color="#e0e0e2"/><stop offset="1" stop-color="#fff"/></linearGradient><filter id="b"><feGaussianBlur stdDeviation="2.4"/></filter><g fill="#06f" transform="scale(.25)"><path d="m16 108h56v4h-56z"/><path d="m16 88h4v20h-4z"/><path d="m16 20h56v4h-56z"/><path d="m16 24h4v16h-4z"/></g><g transform="matrix(.25 0 0 .25 -17 -9.461538)"><path d="m131.79641 260.73324h69.98027c1.02599 0 1.85197.97507 1.85197 2.18627v59.91315c0 1.21119-.82598 2.18627-1.85197 2.18627h-69.98027c-1.02599 0-1.85197-.97508-1.85197-2.18627v-59.91315c0-1.2112.82598-2.18627 1.85197-2.18627z" filter="url(#b)" opacity=".5" transform="matrix(.79166666 0 0 .8615385 -34.039348 -150.47787)"/><path d="m72 77.84615h52v48h-52z" fill="url(#a)"/><path d="m72 97.84615h52v28h-52z" fill="#fff"/></g><g transform="matrix(.25 0 0 .25 0 -18.461538)"><path d="m131.79641 260.73324h69.98027c1.02599 0 1.85197.97507 1.85197 2.18627v59.91315c0 1.21119-.82598 2.18627-1.85197 2.18627h-69.98027c-1.02599 0-1.85197-.97508-1.85197-2.18627v-59.91315c0-1.2112.82598-2.18627 1.85197-2.18627z" filter="url(#b)" opacity=".5" transform="matrix(.79166666 0 0 .8615385 -34.039348 -150.47787)"/><path d="m72 77.84615h52v48h-52z" fill="url(#a)"/><path d="m72 97.84615h52v28h-52z" fill="#fff"/></g><g transform="matrix(.25 0 0 .25 0 -.461538)"><path d="m131.79641 260.73324h69.98027c1.02599 0 1.85197.97507 1.85197 2.18627v59.91315c0 1.21119-.82598 2.18627-1.85197 2.18627h-69.98027c-1.02599 0-1.85197-.97508-1.85197-2.18627v-59.91315c0-1.2112.82598-2.18627 1.85197-2.18627z" filter="url(#b)" opacity=".5" transform="matrix(.79166666 0 0 .8615385 -34.039348 -150.47787)"/><path d="m72 77.84615h52v48h-52z" fill="url(#a)"/><path d="m72 97.84615h52v28h-52z" fill="#fff"/></g></svg>