<svg height="32" width="32" xmlns="http://www.w3.org/2000/svg" xmlns:xlink="http://www.w3.org/1999/xlink"><radialGradient id="a" cx="84.903702" cy="-130.14005" gradientTransform="matrix(.70710678 -.70710678 .70710678 .70710678 241.963333 183.869701)" gradientUnits="userSpaceOnUse" r="57.039597" xlink:href="#b"/><linearGradient id="b"><stop offset="0" stop-color="#3a0b02"/><stop offset="1" stop-color="#a21d07" stop-opacity=".382353"/></linearGradient><radialGradient id="c" cx="2.720703" cy="-66.273438" gradientTransform="matrix(.70710678 -.70710678 .70710678 .70710678 241.963333 183.869701)" gradientUnits="userSpaceOnUse" r="57.039597" xlink:href="#b"/><radialGradient id="d" cx="51.991096" cy="-78.028419" gradientTransform="matrix(.70710678 -.70710678 .70710678 .70710678 241.963333 183.869701)" gradientUnits="userSpaceOnUse" r="57.039597" xlink:href="#b"/><linearGradient id="e" gradientTransform="scale(1.0975951 .9110828)" gradientUnits="userSpaceOnUse" x1="26.091133" x2="31.500689" y1="14.856744" y2="14.856744"><stop offset="0" stop-color="#fff"/><stop offset="1" stop-color="#fff" stop-opacity="0"/></linearGradient><filter id="f" height="1.277481" width="1.279832" x="-.139916" y="-.138741"><feGaussianBlur stdDeviation=".28784801"/></filter><linearGradient id="g" gradientUnits="userSpaceOnUse" x1="304.88663" x2="345.62039" y1="385.86127" y2="384.62384"><stop offset="0" stop-color="#765c44"/><stop offset="1" stop-color="#765c44" stop-opacity="0"/></linearGradient><linearGradient id="h" gradientUnits="userSpaceOnUse" spreadMethod="reflect" x1="88.606247" x2="91.575104" y1="13.510336" y2="13.510336"><stop offset="0" stop-color="#ff8787"/><stop offset="1" stop-color="#ff8787" stop-opacity="0"/></linearGradient><linearGradient id="i" gradientUnits="userSpaceOnUse" spreadMethod="reflect" x1="31.606251" x2="34.575108" y1="13.510336" y2="13.510336"><stop offset="0" stop-color="#fff"/><stop offset="1" stop-color="#790000" stop-opacity="0"/></linearGradient><radialGradient id="j" cx="50.424522" cy="-81.945961" gradientTransform="matrix(.70710678 -.70710678 .70710678 .70710678 241.963326 183.869704)" gradientUnits="userSpaceOnUse" r="50.15279"><stop offset="0" stop-color="#db3424"/><stop offset="1" stop-color="#b32016"/></radialGradient><linearGradient id="k" gradientTransform="matrix(.70710678 -.70710678 .70710678 .70710678 241.963333 183.869701)" gradientUnits="userSpaceOnUse" x1="50.06789" x2="59.441998" y1="-154.40843" y2="-71.617722"><stop offset="0" stop-color="#fff"/><stop offset="1" stop-color="#fcf3f3" stop-opacity="0"/></linearGradient><linearGradient id="l" gradientTransform="matrix(1.5000376 0 0 1 11.999997 -13.334003)" gradientUnits="userSpaceOnUse" x1="53.332001" x2="53.332001" y1="101.334" y2="117.3336"><stop offset="0" stop-color="#781212"/><stop offset="1" stop-color="#781212" stop-opacity=".037879"/></linearGradient><linearGradient id="m" gradientUnits="userSpaceOnUse" x1="120" x2="120" xlink:href="#o" y1="88" y2="108"/><linearGradient id="n" gradientUnits="userSpaceOnUse" x1="42" x2="72.138878" y1="118.03125" y2="5.551427"><stop offset="0" stop-color="#084775"/><stop offset="1" stop-color="#084775" stop-opacity="0"/></linearGradient><linearGradient id="o"><stop offset="0" stop-color="#828282"/><stop offset="1" stop-color="#828282" stop-opacity="0"/></linearGradient><linearGradient id="p" gradientTransform="matrix(1.0384874 0 0 .91306627 2.461539 10.953601)" gradientUnits="userSpaceOnUse" x1="46.048" x2="46.048" y1="128.01709" y2="16.6203"><stop offset="0" stop-color="#c7cdd7"/><stop offset="1" stop-color="#fff"/></linearGradient><linearGradient id="q" gradientTransform="matrix(1.0384875 0 0 1.5000375 -3.076923 -64.004803)" gradientUnits="userSpaceOnUse" x1="114.6638" x2="114.6638" y1="101.334" y2="112.0004"><stop offset="0" stop-color="#c9d1dc"/><stop offset="1" stop-color="#c9d1dc" stop-opacity="0"/></linearGradient><linearGradient id="r" gradientTransform="matrix(-1 0 0 1 113.34375 -9.34375)" gradientUnits="userSpaceOnUse" x1="50.665401" x2="62.393192" y1="68.042" y2="24.273293"><stop offset="0" stop-color="#781212"/><stop offset="1" stop-color="#d81b1b"/></linearGradient><linearGradient id="s" gradientUnits="userSpaceOnUse" x1="120" x2="120" y1="-32.325989" y2="104.05867"><stop offset="0" stop-color="#fff"/><stop offset="1" stop-color="#555"/></linearGradient><linearGradient id="t" gradientUnits="userSpaceOnUse" x1="8" x2="8" xlink:href="#o" y1="88" y2="108"/><clipPath id="u"><path d="m-23.029324-146.61201c-5.531616-.24083-10.64527 3.53552-12 8.96875-.000021.0104-.000021.0208 0 .0312l-2.8125 11.40625h-6.03125c-6.441349 0-11.84375 5.4024-11.84375 11.84375v8c0 5.84595 4.517586 10.626564 10.15625 11.5l-4.125 16.65625h-6.1875c-6.441349 0-11.84375 5.402402-11.84375 11.84375v8c0 5.890458 4.58168 10.71459 10.28125 11.53125l-.84375 3.4375c-1.553679 6.23113 2.382454 12.78725 8.625 14.34375l7.78125 1.9375c6.231123 1.55368 12.818494-2.3825 14.375-8.625.000021-.01042.000021-.02083 0-.03125l2.65625-10.75h14.65625l-.78125 3.125c-1.553681 6.23114 2.382455 12.78725 8.625 14.34375l7.78125 1.9375c6.213771 1.54936 12.804599-2.45209 14.34375-8.625.000021-.01042.000021-.02083 0-.03125l2.65625-10.75h9.6875c6.44135 0 11.84375-5.402396 11.84375-11.84375v-8c0-6.441353-5.4024-11.84375-11.84375-11.84375h-1.875l4.03125-16.3125h9.84375c6.44135 0 11.84375-5.402396 11.84375-11.84375v-8c0-6.44135-5.4024-11.84375-11.84375-11.84375h-2.03125l.9375-3.78125c1.55369-6.23115-2.3825-12.78724-8.625-14.34375l-7.78125-1.9375c-6.231121-1.55367-12.818487 2.38251-14.375 8.625-.000021.0104-.000021.0208 0 .0312l-2.8125 11.40625h-14.625l.9375-3.78125c1.571025-6.30072-2.431097-12.79157-8.65625-14.34375l-7.75-1.9375c-.677154-.16884-1.43324-.30275-2.375-.34375zm10.03125 52.09375h14.625l-4.03125 16.3125h-14.625z"/></clipPath><filter id="v"><feGaussianBlur stdDeviation="1.2346784"/></filter><linearGradient id="w" gradientTransform="matrix(.23077499 0 0 1.5000375 33.538463 -64.004803)" gradientUnits="userSpaceOnUse" x1="114.6638" x2="114.6638" y1="101.334" y2="112.0004"><stop offset="0" stop-color="#edd1d3"/><stop offset="1" stop-color="#edd1d3" stop-opacity="0"/></linearGradient><g transform="scale(.25)"><path d="m8 88h108v20h-108z" fill="url(#q)" opacity=".764706"/><path d="m8 28h108v56h-108z" fill="url(#p)"/><rect fill="#eececf" height="55.911613" opacity=".85" rx=".206393" ry=".374495" width="23.969669" x="36.030331" y="28.088385"/><text x="552.36987" y="202.81038"><tspan fill="#555" x="552.36987" y="219.61037"/></text><path d="m4 24v4 16 4 16 4 16 4h4 24 4 24 4 24 4 24 4v-4-16-4-16-4-16-4h-4-24-4-24-4-24-4-24zm4 4h24v16h-24zm28 0h24v16h-24zm28 0h24v16h-24zm28 0h24v16h-24zm-84 20h24v16h-24zm28 0h24v16h-24zm28 0h24v16h-24zm28 0h24v16h-24zm-84 20h24v16h-24zm28 0h24v16h-24zm28 0h24v16h-24zm28 0h24v16h-24z" fill="url(#s)"/><path d="m36 88h23.999998v20h-23.999998z" fill="url(#w)" opacity=".764706"/><path d="m4 84h116v4.000001h-116z" fill="#fff" opacity=".262911"/><path d="m32 24v64h4v-.375c0 .20747.09269.375.207031.375h23.585938c.114341 0 .207031-.16753.207031-.375v.375h4v-61.40625-2.59375zm4 4h24v16.375c0-.20747-.09269-.375-.207031-.375h-23.585938c-.114341 0-.207031.16753-.207031.375zm0 19.625c0 .20747.09269.375.207031.375h23.585938c.114341 0 .207031-.16753.207031-.375v16.75c0-.20747-.09269-.375-.207031-.375h-23.585938c-.114341 0-.207031.16753-.207031.375zm0 20c0 .20747.09269.375.207031.375h23.585938c.114341 0 .207031-.16753.207031-.375v16.75c0-.20747-.09269-.375-.207031-.375h-23.585938c-.114341 0-.207031.16753-.207031.375z" fill="url(#r)"/><path d="m88 88h4v15.9996h-4z" fill="url(#l)" transform="matrix(-1 0 0 1 124 0)"/><path d="m88 88h4v15.9996h-4z" fill="url(#l)" transform="matrix(-1 0 0 1 152 .0004)"/><path d="m4 88h4v20h-4z" fill="url(#t)"/><path d="m116 88h4v20h-4z" fill="url(#m)" transform="translate(-28)"/><text x="284.18808" y="202.81038"><tspan fill="#555" x="284.18808" y="219.61037"/></text><text x="-10.252362" y="133.87732"><tspan fill="#555" x="-10.252362" y="150.67731"/></text><text x="161.66467" y="-39.856026"><tspan fill="#555" x="161.66467" y="-23.056038"/></text><path d="m116 88h4v20h-4z" fill="url(#m)"/><path clip-path="url(#u)" d="m22.5 42.5-2.25 15.5 14-11.75zm21.75.5 12 14.625 11-.125 17.25-12.75zm50 2 9.25 12.375h6l4.5-11.375zm-83.5 46.75-2.25 13.375 14.5-10.875zm91 1.25-18 1 7.75 11.375 7.25-.5zm-31 .5-34.5.25 8.75 12.8125 10.3125-.9375z" fill="url(#n)" fill-rule="evenodd" filter="url(#v)" transform="translate(118.47918 -240.81844)"/><path clip-path="url(#u)" d="m22.5 42.5-8.662305 12.749263 6.412305 2.750737 14-11.75zm71.75 2.5 9.25 12.375 18.02082 1.06066-7.52082-12.43566zm-83.5 46.75-10.20495127 12.66789 22.45495127-10.16789zm91 1.25-18 1 7.75 11.375 17.14949.38388z" fill="url(#n)" fill-rule="evenodd" filter="url(#v)" opacity=".450495" transform="translate(118.47918 -240.81844)"/><g transform="matrix(.29628449 .29628449 -.29628449 .29628449 59.456365 -54.404296)"><path d="m195.29345-8.8169787c-3.80348-.0001142-6.88683 3.0832392-6.88672 6.886715v60.9323257l-60.93428-.000004c-3.80348-.000114-6.88683 3.083242-6.88672 6.88672l.00001 24.380857c-.00011 3.803473 3.08324 6.886827 6.88671 6.886718l60.93428.000001v60.932326c-.00011 3.80348 3.08324 6.88683 6.88672 6.88672h24.38086c3.80348.00011 6.88683-3.08324 6.88672-6.88672v-60.932327h60.93232c3.80348.000114 6.88683-3.083242 6.88672-6.886719v-24.380857c.00011-3.803478-3.08324-6.886834-6.88672-6.88672l-60.93232.000001v-60.9323237c.00011-3.8034781-3.08325-6.8868307-6.88673-6.886711z" fill="url(#a)"/><path d="m195.29345-8.8169787c-3.80348-.0001142-6.88683 3.0832392-6.88672 6.886715v60.9323257l-60.93428-.000004c-3.80348-.000114-6.88683 3.083242-6.88672 6.88672l.00001 24.380857c-.00011 3.803473 3.08324 6.886827 6.88671 6.886718l60.93428.000001v60.932326c-.00011 3.80348 3.08324 6.88683 6.88672 6.88672h24.38086c3.80348.00011 6.88683-3.08324 6.88672-6.88672v-60.932327h60.93232c3.80348.000114 6.88683-3.083242 6.88672-6.886719v-24.380857c.00011-3.803478-3.08324-6.886834-6.88672-6.88672l-60.93232.000001v-60.9323237c.00011-3.8034781-3.08325-6.8868307-6.88673-6.886711z" fill="url(#c)"/><path d="m195.29345-8.8169787c-3.80348-.0001142-6.88683 3.0832392-6.88672 6.886715v60.9323257l-60.93428-.000004c-3.80348-.000114-6.88683 3.083242-6.88672 6.88672l.00001 24.380857c-.00011 3.803473 3.08324 6.886827 6.88671 6.886718l60.93428.000001v60.932326c-.00011 3.80348 3.08324 6.88683 6.88672 6.88672h24.38086c3.80348.00011 6.88683-3.08324 6.88672-6.88672v-60.932327h60.93232c3.80348.000114 6.88683-3.083242 6.88672-6.886719v-24.380857c.00011-3.803478-3.08324-6.886834-6.88672-6.88672l-60.93232.000001v-60.9323237c.00011-3.8034781-3.08325-6.8868307-6.88673-6.886711z" fill="url(#d)"/><path d="m195.29345-8.8169787c-3.80348-.0001142-6.88683 3.0832392-6.88672 6.886715v60.9323257l-60.93428-.000004c-3.80348-.000114-6.88683 3.083242-6.88672 6.88672l.00001 24.380857c-.00011 3.803473 3.08324 6.886827 6.88671 6.886718l60.93428.000001v60.932326c-.00011 3.80348 3.08324 6.88683 6.88672 6.88672h24.38086c3.80348.00011 6.88683-3.08324 6.88672-6.88672v-60.932327h60.93232c3.80348.000114 6.88683-3.083242 6.88672-6.886719v-24.380857c.00011-3.803478-3.08324-6.886834-6.88672-6.88672l-60.93232.000001v-60.9323237c.00011-3.8034781-3.08325-6.8868307-6.88673-6.886711z" fill="#56331f" fill-opacity=".905882"/><g fill-rule="evenodd"><path d="m31.7 16 2.875-3.375c-1.051205-1.695758-3.935136-2.288018-5.9375-.3125l2.8125 3.375z" fill="url(#e)" filter="url(#f)" opacity=".498127" transform="matrix(1.4915065 1.4915065 1.5058288 -1.5058288 127.59411 129.77373)"/><path d="m31.7 16 2.875-3.375c-1.051205-1.695758-3.935136-2.288018-5.9375-.3125l2.8125 3.375z" fill="url(#e)" filter="url(#f)" opacity=".790262" transform="matrix(-1.4871264 1.4871264 -1.472982 -1.472982 353.36672 62.915512)"/><path d="m31.7 16 2.875-3.375c-1.051205-1.695758-3.935136-2.288018-5.9375-.3125l2.8125 3.375z" fill="url(#g)" filter="url(#f)" opacity=".498127" transform="matrix(1.3506327 1.3506327 -1.3636023 1.3636023 262.13812 4.105902)"/><path d="m88.7 16 2.875-3.375c-1.051205-1.695758-3.935136-2.288018-5.9375-.3125l2.8125 3.375z" fill="url(#h)" filter="url(#f)" opacity=".790262" transform="matrix(-1.3636023 1.3636023 -1.3506327 -1.3506327 358.72933 55.241431)"/><path d="m31.7 16 2.875-3.375c-1.051205-1.695758-3.935136-2.288018-5.9375-.3125l2.8125 3.375z" fill="url(#i)" filter="url(#f)" opacity=".790262" transform="matrix(-1.2400782 1.2400782 1.2282835 1.2282835 217.29025 -57.594987)"/><path d="m88.7 16 2.875-3.375c-1.051205-1.695758-3.935136-2.288018-5.9375-.3125l2.8125 3.375z" fill="url(#h)" filter="url(#f)" opacity=".790262" transform="matrix(-1.2731338 1.2731338 1.2610246 1.2610246 223.27547 -64.198776)"/></g><path d="m195.29345-1.9302687v67.8190487l-67.82099.000001-.00001 24.38085 67.821.000003v67.819046h24.38086v-67.819046h67.81904v-24.380854l-67.81904-.000001-.00001-67.8190447z" fill="url(#j)"/><path d="m127.47266 65.887832-.00001 24.381371h67.82164l-.001 67.820257h24.38138v-67.818875l67.81887-.000001v-24.381372l-67.81887-.000001-.00001-67.8188687-24.38136.000002v67.8188677zm1.73186 1.731861 66.08839.0014c.95652.000092 1.73195-.775341 1.73186-1.731859v-66.08700768l20.91765-.000004v66.08700768c-.00009.956519.77534 1.731954 1.73186 1.731862h66.08701v20.917655h-66.08701c-.95652-.000092-1.73195.775341-1.73186 1.731859v66.087014h-20.91766l.001-66.088395c.00009-.956518-.77534-1.731953-1.73186-1.731861l-66.08977.000002z" fill="#f4caca" fill-opacity=".779412"/><path d="m127.47266 65.887832-.00001 24.381371h67.82164v13.963747c9.21859-12.920037 23.72456-29.858471 27.09896-38.336918l-2.71897-.0068-.00001-67.8188687-24.38136.000002v67.8188677z" fill="url(#k)" fill-rule="evenodd"/></g></g></svg>