<svg height="32" width="32" xmlns="http://www.w3.org/2000/svg" xmlns:xlink="http://www.w3.org/1999/xlink"><linearGradient id="a"><stop offset="0" stop-color="#fbaeff"/><stop offset="1" stop-color="#ffd7d7"/></linearGradient><linearGradient id="b"><stop offset="0" stop-color="#fff"/><stop offset="1" stop-color="#fff" stop-opacity="0"/></linearGradient><linearGradient id="c"><stop offset="0" stop-color="#b900c4"/><stop offset="1" stop-color="#ae4300"/></linearGradient><linearGradient id="d" gradientTransform="matrix(1.239926 0 0 1.0875439 -5.206751 -15.211905)" gradientUnits="userSpaceOnUse" x1="35.803963" x2="35.803963" xlink:href="#c" y1="116.09032" y2="27.999783"/><linearGradient id="e" gradientTransform="matrix(.94405372 0 0 .98097394 4.987462 -7.254109)" gradientUnits="userSpaceOnUse" x1="48" x2="47.9986" xlink:href="#a" y1="88" y2="21.335606"/><linearGradient id="f" gradientTransform="matrix(.94405372 0 0 .98097394 8.826177 14.186941)" gradientUnits="userSpaceOnUse" x1="9.269054" x2="40" xlink:href="#b" y1="30.772436" y2="84"/><linearGradient id="g" gradientTransform="matrix(1.239926 0 0 1.0875439 19.010183 -13.501353)" gradientUnits="userSpaceOnUse" x1="35.803963" x2="35.803963" xlink:href="#c" y1="116.09032" y2="27.999783"/><linearGradient id="h" gradientTransform="matrix(.94405372 0 0 .98097394 29.204396 -5.543557)" gradientUnits="userSpaceOnUse" x1="48" x2="47.9986" xlink:href="#a" y1="88" y2="21.335606"/><linearGradient id="i" gradientTransform="matrix(.9688391 0 0 .98097394 32.020326 -18.135439)" gradientUnits="userSpaceOnUse" x1="9.269054" x2="40" xlink:href="#b" y1="30.772436" y2="84"/><linearGradient id="j" gradientTransform="matrix(1.239926 0 0 1.0875439 43.010183 -14.538463)" gradientUnits="userSpaceOnUse" x1="35.803963" x2="35.803963" xlink:href="#c" y1="116.09032" y2="27.999783"/><linearGradient id="k" gradientTransform="matrix(.94405372 0 0 .98097394 53.204396 -6.580666)" gradientUnits="userSpaceOnUse" x1="48" x2="47.9986" xlink:href="#a" y1="88" y2="21.335606"/><linearGradient id="l" gradientTransform="matrix(.9688391 0 0 .98097394 56.020326 .827452)" gradientUnits="userSpaceOnUse" x1="9.269054" x2="40" xlink:href="#b" y1="30.772436" y2="84"/><g transform="scale(.25)"><rect fill="url(#g)" height="81.709663" rx="4" ry="4.103271" width="20.216934" x="56" y="24"/><rect fill="url(#h)" height="73.709663" rx="1.668867" ry="1.734133" width="12.000229" x="60" y="28"/><path d="m20 4v11.555556 92.444444h-4.109764v-92.444444-11.555556z" fill="#797979"/><path d="m127.93762 108.0455h-12.69855-95.23907v-4.0455h95.23907 12.69855z" fill="#797979"/><rect fill="url(#d)" height="48" rx="4.678204" ry="4.103271" width="20" x="32" y="55.999115"/><rect fill="url(#e)" height="39.999115" rx="1.668867" ry="1.734133" width="11.783295" x="36" y="60"/><path d="m37.669784 59.999115c-.924552 0-1.669922.775154-1.669922 1.735864v27.658867c4.491706-1.6273 9.035659-4.053484 11.783204-7.104398v-20.554469c0-.96071-.743417-1.735864-1.667969-1.735864z" fill="url(#f)"/><path d="m61.667969 28c-.924552 0-1.667969.773665-1.667969 1.734375v27.302734c4.579548-1.627024 9.199105-4.039724 12-7.070312v-20.232422c0-.96071-.743417-1.734375-1.667969-1.734375z" fill="url(#i)"/><rect fill="url(#j)" height="60" rx="4" ry="4.103271" width="20" x="80" y="44"/><rect fill="url(#k)" height="52.672562" rx="1.668867" ry="1.734133" width="12.000229" x="84" y="48"/><path d="m85.667969 48c-.924552 0-1.667969.773665-1.667969 1.734375v26.265625c4.57955-1.627025 9.19911-4.039726 12-7.070313v-19.195312c0-.96071-.74342-1.734375-1.66797-1.734375z" fill="url(#l)"/><path d="m116-128h8.03225v112h-8.03225z" fill="#1975ff" opacity=".99" transform="rotate(90)"/></g></svg>