<svg height="32" width="32" xmlns="http://www.w3.org/2000/svg" xmlns:xlink="http://www.w3.org/1999/xlink"><linearGradient id="a"><stop offset="0" stop-color="#fff"/><stop offset="1" stop-color="#fff" stop-opacity="0"/></linearGradient><linearGradient id="b"><stop offset="0" stop-color="#b4b4b6"/><stop offset=".5" stop-color="#9c9ca1"/><stop offset="1" stop-color="#cdcdd1"/></linearGradient><linearGradient id="c"><stop offset="0" stop-color="#fff"/><stop offset=".42597079" stop-color="#fff"/><stop offset=".5892781" stop-color="#f1f1f1"/><stop offset=".80219781" stop-color="#eaeaea"/><stop offset="1" stop-color="#dfdfdf"/></linearGradient><linearGradient id="d"><stop offset="0" stop-color="#0968ef"/><stop offset="1" stop-color="#aecffc"/></linearGradient><linearGradient id="e" gradientTransform="matrix(2.1122575 0 0 1.1370159 21.647386 -126.0961)" gradientUnits="userSpaceOnUse" x1="16.263456" x2="28.913122" xlink:href="#d" y1="67.869316" y2="-12.523698"/><linearGradient id="f" gradientTransform="matrix(.06503009 0 0 .1431311 -63.720537 -186.65387)" gradientUnits="userSpaceOnUse" x1="399.77466" x2="399.77466" xlink:href="#b" y1="1164.6696" y2="549.06134"/><linearGradient id="g" gradientTransform="matrix(.4947918 0 0 1.0000001 -59.416664 -127.99997)" gradientUnits="userSpaceOnUse" x1="42.728634" x2="95.831558" xlink:href="#c" y1="99.999985" y2="43.999992"/><linearGradient id="h" gradientTransform="matrix(.90967582 0 0 1.2589042 -15.174841 -12.142465)" gradientUnits="userSpaceOnUse" x1="102.31124" x2="74.330322" xlink:href="#a" y1="-5.830213" y2="32"/><linearGradient id="i" gradientTransform="matrix(-.00024526 -.49999994 .49999994 -.00024526 87.997562 136.01933)" gradientUnits="userSpaceOnUse" x1="113.15723" x2="39.268185" xlink:href="#d" y1="25.786163" y2="25.786163"/><linearGradient id="j" gradientTransform="matrix(.06503009 0 0 .1431311 -143.72055 -178.65387)" gradientUnits="userSpaceOnUse" x1="399.77466" x2="399.77466" xlink:href="#b" y1="1164.6696" y2="549.06134"/><linearGradient id="k" gradientTransform="matrix(.4947918 0 0 1.0000001 -139.41668 -119.99997)" gradientUnits="userSpaceOnUse" x1="42.728634" x2="124.09152" xlink:href="#c" y1="99.999985" y2="27.999992"/><linearGradient id="l" gradientTransform="matrix(1 0 0 1.3839042 -27.500007 61.85753)" gradientUnits="userSpaceOnUse" x1="102.31124" x2="74.330322" xlink:href="#a" y1="-5.830213" y2="32"/><linearGradient id="m" gradientTransform="matrix(1.9362358 0 0 1.1370159 44.510108 -126.0961)" gradientUnits="userSpaceOnUse" x1="16.263456" x2="28.913122" xlink:href="#d" y1="67.869316" y2="-12.523698"/><linearGradient id="n" gradientTransform="matrix(-.00024526 .49999994 .49999994 .00024526 87.997562 -8.00686)" gradientUnits="userSpaceOnUse" x1="113.15723" x2="39.268185" xlink:href="#d" y1="25.786163" y2="25.786163"/><g transform="matrix(.25 0 0 .25 0 -.035616)"><rect fill="url(#j)" height="64" rx="3.632653" transform="matrix(0 -1 -1 0 0 0)" width="44" x="-124.00001" y="-88"/><rect fill="url(#k)" fill-rule="evenodd" height="56" rx=".6" ry="3.25" transform="matrix(0 -1 -1 0 0 0)" width="36" x="-120.00001" y="-84"/><path d="m64 84c-10.683566 13.04756-20.698422 27.15997-26.9375 44.28493h27.21875c1.52447-16.39508 6.28344-31.20587 12.84375-44.28493z" fill="url(#l)" fill-rule="evenodd"/><rect fill="url(#m)" height="88" rx="1.999999" ry="2.000007" transform="rotate(90)" width="3.999998" x="72.000008" y="-99.999977"/><g transform="matrix(0 -1 -1 0 0 0)"><path d="m-104.00001-88h4v4.000001h-4z" fill="#d5c8c7" opacity=".337079"/><path d="m-104.00001-27.999975h4v4h-4z" fill="#d5c8c7" opacity=".337079"/><rect fill="url(#f)" height="52" rx="3.632653" width="44" x="-48" y="-88"/><path d="m-44-84h36v44h-36z" fill="url(#g)" fill-rule="evenodd"/></g><path d="m68.060504 8c-9.718581 11.869051-18.828854 24.706768-24.504392 40.28493h24.760239c1.386774-14.914212 5.715894-28.387223 11.683649-40.28493z" fill="url(#h)" fill-rule="evenodd"/><rect fill="url(#e)" height="88" rx="2.000001" transform="rotate(90)" width="4.000002" x="52" y="-99.999977"/><path d="m-27.715071-40h4v4h-4z" fill="#d5c8c7" opacity=".337079" transform="matrix(0 -1 -1 0 0 0)"/><path d="m101.96812 76.012475-9.994105 12.004906 1.988398 1.986441 6.010672-3.90232.0269 17.898498 3.999985-.002-.0269-17.898497 5.91387 3.896509 2.08707-1.988445z" fill="url(#i)" fill-rule="evenodd"/><path d="m101.96812 52-9.994105-12.00491 1.988398-1.98644 6.010672 3.90232.0269-17.898495 3.999985.002-.0269 17.898495 5.91387-3.89651 2.08707 1.98845z" fill="url(#n)" fill-rule="evenodd"/></g></svg>