<svg height="32" width="32" xmlns="http://www.w3.org/2000/svg" xmlns:xlink="http://www.w3.org/1999/xlink"><linearGradient id="a" gradientUnits="userSpaceOnUse" x1="32" x2="110" y1="24" y2="64.600113"><stop offset="0" stop-color="#a4ca51"/><stop offset=".5" stop-color="#93c131"/><stop offset="1" stop-color="#8ebd27"/></linearGradient><linearGradient id="b" gradientUnits="userSpaceOnUse" x1="88.591797" x2="71.262016" y1="96.592697" y2="79.262917"><stop offset="0" stop-color="#fff"/><stop offset="1" stop-color="#555753"/></linearGradient><filter id="c" color-interpolation-filters="sRGB"><feGaussianBlur stdDeviation=".40750996"/></filter><filter id="d" color-interpolation-filters="sRGB"><feGaussianBlur stdDeviation=".90565481"/></filter><linearGradient id="e" gradientUnits="userSpaceOnUse" x1="85.219681" x2="61.336319" y1="93.219681" y2="69.336319"><stop offset="0"/><stop offset="1" stop-color="#393b38"/></linearGradient><filter id="f" color-interpolation-filters="sRGB"><feGaussianBlur stdDeviation=".4901192"/></filter><linearGradient id="g" gradientUnits="userSpaceOnUse" x1="96" x2="88.000198" y1="104" y2="96.000198"><stop offset="0" stop-color="#888a85"/><stop offset=".0072" stop-color="#8c8e89"/><stop offset=".0673" stop-color="#abaca9"/><stop offset=".1347" stop-color="#c5c6c4"/><stop offset=".2115" stop-color="#dbdbda"/><stop offset=".3012" stop-color="#ebebeb"/><stop offset=".4122" stop-color="#f7f7f6"/><stop offset=".5679" stop-color="#fdfdfd"/><stop offset="1" stop-color="#fff"/></linearGradient><linearGradient id="h" gradientUnits="userSpaceOnUse" x1="120.92" x2="120.92" y1="65.000099" y2="10.931036"><stop offset="0"/><stop offset=".1" stop-color="#233b00"/><stop offset="1"/></linearGradient><filter id="i" color-interpolation-filters="sRGB"><feGaussianBlur stdDeviation="1.0394514"/></filter><filter id="j" color-interpolation-filters="sRGB"><feGaussianBlur stdDeviation=".50063244"/></filter><linearGradient id="k" gradientUnits="userSpaceOnUse" x1="120.92" x2="120.92" y1="65.000099" y2="7.068967"><stop offset="0"/><stop offset=".06845312" stop-color="#233b00"/><stop offset="1"/></linearGradient><g transform="scale(.25)"><path d="m23 9 .04082 112h61.131184c.53 0 1.039-.211 1.414-.586l32.827996-32.828c.375-.375.586-.884.586-1.414v-77.172z" fill="url(#k)" filter="url(#i)" opacity=".306849" transform="matrix(1.0416667 0 0 1.0357143 -9.958338 -3.32143)"/><path d="m24.919999 10.931136v108.137934l58.676001-.0001c.53 0 1.039-.211 1.414-.586l31.484-31.765936c.375-.375.586-.884.586-1.414v-74.371898z" filter="url(#j)" opacity=".89589" transform="matrix(1.0416667 0 0 1.0357143 -9.958338 -3.32143)"/><path d="m23 9.9655172.040816 111.0344828h61.131184c.53 0 1.039-.211 1.414-.586l32.828-32.828c.375-.375.586-.884.586-1.414v-76.2064828z" fill="url(#h)" filter="url(#i)" opacity=".306849" transform="matrix(1.0416667 0 0 1.0357143 -9.958338 -3.32143)"/><path d="m15.999997 8.0001v112.00002h61.172c.53 0 1.039-.211 1.414-.586l32.828003-32.828c.375-.375.586-.884.586-1.414v-77.17202z" fill="#cde2a2"/><path d="m19.67872 11.4001c-.539276 0-.978723.44084-.978723.98182l-.7 104.6364c0 .542.439447.9818.978723.9818h57.913022c.257404 0 .509915-.104.691957-.2876l32.129531-32.2312c.18303-.1836.28677-.4359.28677-.6941v-72.6053c0-.54098-.43847-.98182-.97872-.98182z" fill="url(#a)"/><path d="m63.999183 91.001634-27.001302-27.003514 27.001302-26.999647 9.001158 8.999524-18.002325 18.000123 9.000619 9.001135 27.001292-26.999647-23.521285-23.521338c-1.920685-1.922285-5.036052-1.922285-6.95838 0l-38.043055 38.043152c-1.920686 1.920674-1.920686 5.036052 0 6.958339l38.043603 38.041959c1.922328 1.9223 5.037694 1.9223 6.95838 0l38.0436-38.041959c1.92069-1.922287 1.92069-5.037665 0-6.958339l-5.52279-5.521215z" fill="#fff" stroke-width="10.740828"/><g transform="translate(-.000003 .0001)"><path d="m111.414 86.586c.25-.25-26.379-1.586-31.414-1.586-1.654 0-3 1.346-3 3 0 5.035 1.336 31.664 1.586 31.414z" fill="url(#b)" filter="url(#c)" opacity=".1"/><path d="m111.414 86.586c.375-.375-21.97-.586-31.414-.586-1.103 0-2 .897-2 2 0 9.444.211 31.789.586 31.414z" filter="url(#d)" opacity=".2"/><path d="m111.414 86.586c.239-.239-21.607.414-31.414.414-.553 0-1 .447-1 1 0 9.807-.653 31.653-.414 31.414z" fill="url(#e)" filter="url(#f)" opacity=".1"/><path d="m78.586 119.414s11.914-9.914 17.414-15.414 15.414-17.414 15.414-17.414-21.164 1.414-31.414 1.414c0 10.25-1.414 31.414-1.414 31.414z" fill="url(#g)"/></g></g></svg>