<svg enable-background="new 0 0 128 128" height="32" viewBox="0 0 46.545455 46.545455" width="32" xmlns="http://www.w3.org/2000/svg" xmlns:xlink="http://www.w3.org/1999/xlink"><filter id="a"><feGaussianBlur stdDeviation="1.0600355"/></filter><linearGradient id="b" gradientTransform="matrix(.5886274 0 0 .5386093 20.90981 17.536688)" gradientUnits="userSpaceOnUse" x1="71.626404" x2="46.225941" y1="123.73875" y2="28.942928"><stop offset="0" stop-color="#005f1e"/><stop offset="1" stop-color="#43943c"/></linearGradient><radialGradient id="c" cx="71.775223" cy="16.0865" gradientTransform="matrix(.9650814 .2619502 -.9201984 3.3902106 33.309062 -57.693239)" gradientUnits="userSpaceOnUse" r="3.15625" xlink:href="#e"/><linearGradient id="d"><stop offset="0" stop-color="#fff"/><stop offset="1" stop-color="#fff" stop-opacity="0"/></linearGradient><linearGradient id="e" xlink:href="#d"/><filter id="f" height="1.157943" width="1.244782" x="-.122391" y="-.078971"><feGaussianBlur stdDeviation=".321914"/></filter><radialGradient id="g" cx="71.775223" cy="16.0865" gradientTransform="matrix(.9650814 .2619502 -.9201984 3.3902106 17.309062 -57.693239)" gradientUnits="userSpaceOnUse" r="3.15625" xlink:href="#h"/><linearGradient id="h"><stop offset="0" stop-color="#f0ff80"/><stop offset="1" stop-color="#f0ff80" stop-opacity="0"/></linearGradient><linearGradient id="i" gradientTransform="matrix(.5266666 0 0 .4609973 23.76001 22.503737)" gradientUnits="userSpaceOnUse" x1="43.799026" x2="58.606159" y1="32.051865" y2="96.363052"><stop offset="0" stop-color="#37a42c"/><stop offset="1" stop-color="#bff500"/></linearGradient><radialGradient id="j" cx="11.578125" cy="64.53125" gradientTransform="matrix(6.5079869 0 0 1.510917 -63.772161 -32.970115)" gradientUnits="userSpaceOnUse" r="3.578125" xlink:href="#e"/><filter id="k" height="1.598266" width="1.90393" x="-.451965" y="-.299133"><feGaussianBlur stdDeviation="1.3476562"/></filter><radialGradient id="l" cx="72.222832" cy="81.225037" fx="75.65107" fy="93.974243" gradientTransform="matrix(.7599745 .00000004 -.00000004 .6386057 9.87431 8.009204)" gradientUnits="userSpaceOnUse" r="50" xlink:href="#m"/><linearGradient id="m"><stop offset="0" stop-color="#cbff10"/><stop offset="1" stop-color="#004d00"/></linearGradient><linearGradient id="n" gradientTransform="matrix(-.5266666 0 0 .4609973 110.13333 22.503737)" gradientUnits="userSpaceOnUse" x1="91.785248" x2="91.992706" xlink:href="#o" y1="112.5" y2="44.287056"/><linearGradient id="o"><stop offset="0" stop-color="#e5ff00"/><stop offset="1" stop-color="#e5ff00" stop-opacity="0"/></linearGradient><filter id="p"><feGaussianBlur stdDeviation=".495"/></filter><linearGradient id="q" gradientTransform="matrix(.5266666 0 0 .4609973 25.86667 22.503737)" gradientUnits="userSpaceOnUse" x1="63.159035" x2="63.159035" y1="21.171064" y2="80.12056"><stop offset="0" stop-color="#edffbf"/><stop offset="1" stop-color="#edffbf" stop-opacity="0"/></linearGradient><linearGradient id="r" gradientTransform="matrix(.5266666 0 0 .4609973 25.86667 22.503737)" gradientUnits="userSpaceOnUse" x1="73.739265" x2="35.568035" xlink:href="#e" y1="69.923088" y2="48.212151"/><linearGradient id="s" gradientTransform="matrix(.5266666 0 0 .4609973 25.86667 22.503737)" gradientUnits="userSpaceOnUse" x1="63.159035" x2="63.159035" xlink:href="#e" y1="21.171064" y2="80.12056"/><linearGradient id="t" gradientTransform="matrix(1.0533333 0 0 .9219945 11.76 4.992427)" gradientUnits="userSpaceOnUse" x1="73.739265" x2="35.568035" xlink:href="#e" y1="69.923088" y2="48.212151"/><linearGradient id="u" gradientTransform="matrix(1.0533333 0 0 .9219945 11.76 4.992427)" gradientUnits="userSpaceOnUse" x1="63.159035" x2="63.159035" xlink:href="#e" y1="21.171064" y2="80.12056"/><radialGradient id="v" cx="122.17677" cy="53.333336" gradientTransform="matrix(10.715398 2.871182 -2.6956613 10.060345 -1183.2272 -819.3435)" gradientUnits="userSpaceOnUse" r="2" xlink:href="#m"/><linearGradient id="w" gradientTransform="matrix(-1 0 0 1 140 0)" gradientUnits="userSpaceOnUse" x1="122.12132" x2="122.12132" xlink:href="#h" y1="24" y2="60.048988"/><linearGradient id="x" gradientTransform="matrix(-1 0 0 1 140 0)" gradientUnits="userSpaceOnUse" x1="132" x2="116" xlink:href="#e" y1="52" y2="28"/><linearGradient id="y" gradientUnits="userSpaceOnUse" x1="121.85139" x2="120" xlink:href="#o" y1="64" y2="44"/><filter id="z" height="1.028862" width="1.331226" x="-.165613" y="-.014431"><feGaussianBlur stdDeviation=".28982301"/></filter><filter id="A"><feGaussianBlur stdDeviation=".1159292"/></filter><linearGradient id="B" gradientUnits="userSpaceOnUse" x1="116" x2="124" xlink:href="#e" y1="29.274029" y2="74.399025"/><radialGradient id="C" cx="114" cy="26" gradientTransform="matrix(.7071068 -.7071068 2.6709373 2.6709373 -36.054544 37.165802)" gradientUnits="userSpaceOnUse" r="2.5" xlink:href="#e"/><filter id="D" height="1.499115" width="1.499115" x="-.249558" y="-.249558"><feGaussianBlur stdDeviation=".4159292"/></filter><radialGradient id="E" cx="114" cy="26" gradientTransform="matrix(.7071068 -.7071068 2.6709373 2.6709373 -136.05454 37.165802)" gradientUnits="userSpaceOnUse" r="2.5" xlink:href="#e"/><radialGradient id="F" cx="114" cy="26" gradientTransform="matrix(.7071068 -.7071068 2.6709373 2.6709373 -36.054544 37.165802)" gradientUnits="userSpaceOnUse" r="2.5" xlink:href="#o"/><linearGradient id="G" gradientUnits="userSpaceOnUse" x1="56" x2="57.158199" xlink:href="#d" y1="32" y2="101.91251"/><filter id="H"><feGaussianBlur stdDeviation="1.9"/></filter><filter id="I"><feGaussianBlur stdDeviation="1.1263538"/></filter><linearGradient id="J" gradientUnits="userSpaceOnUse" x1="52" x2="52" y1="64" y2="68"><stop offset="0"/><stop offset="1" stop-opacity="0"/></linearGradient><radialGradient id="K" cx="48" cy="112" gradientTransform="matrix(1.3667896 .00220264 -.00165678 1.028074 -1.13535 -13.092416)" gradientUnits="userSpaceOnUse" r="32"><stop offset="0" stop-color="#ffea00"/><stop offset="1" stop-color="#ffa000"/></radialGradient><radialGradient id="L" cx="100.88867" cy="155.99673" gradientTransform="matrix(5.8172522 0 0 5.1765744 -450.23524 -615.02583)" gradientUnits="userSpaceOnUse" r="40"><stop offset="0" stop-color="#fff"/><stop offset=".11366145" stop-color="#bdbebf"/><stop offset=".20296688" stop-color="#ececec"/><stop offset=".2363" stop-color="#fafafa"/><stop offset=".38818121" stop-color="#fff"/><stop offset=".5313" stop-color="#fafafa"/><stop offset=".8449" stop-color="#ebecec"/><stop offset="1" stop-color="#e1e2e3"/></radialGradient><filter id="M" height="1.294962" width="1.106002" x="-.053001" y="-.147481"><feGaussianBlur stdDeviation="1.4133574"/></filter><clipPath id="N"><path d="m27.909017 66.895729c-1.219674 0-2.1875.967827-2.1875 2.1875l-.000001 14.144432c9.640302 2.396967 10.640993 4.526529 22.131697 4.526529s22.359699-2.129562 32-4.526529l.000001-14.144432c0-1.219674-.967827-2.1875-2.1875-2.1875z" filter="url(#M)"/></clipPath><g transform="matrix(.3636375 0 0 .3636375 -6.220052 -5.562347)"><path d="m25.524085 57.906165c-3.884437 0-6.999999 3.146813-6.999999 7.03125l-.000001 48.750085c0 3.88444 3.115563 7 7 7h55.475915c3.884437 0 7-3.11556 7-7l.000001-48.750085c0-3.884437-3.115563-7.03125-7-7.03125l2.410953-.04752-.0269 5.039421c0 .95614-.762611 1.71875-1.71875 1.71875h-11.502696c-.95614 0-1.71875-.762611-1.71875-1.71875l.0269-5.039421z" style="fill:#020202;stroke:#000;stroke-width:2;stroke-linecap:round;stroke-linejoin:round;stroke-dashoffset:1.0878;filter:url(#H)" transform="matrix(1.2962495 0 0 1.3017032 2.059823 -46.237988)"/><path d="m33.851947 27.358228c-4.842843 0-8.746884 3.920466-8.746884 8.783687l-.000001 55.154254v10.738841c0 4.86324 3.904041 8.7837 8.746884 8.7837h74.497534c4.84284 0 8.74689-3.92046 8.74689-8.7837v-65.893094c0-4.863221-3.90405-8.783687-8.74689-8.783687l.75532-.06186-.0349 5.72119c0 1.267689-1.00686 2.278788-2.26924 2.278788h-11.461442c-1.262376 0-2.269238-1.0111-2.269238-2.278788l.03487-5.72119z" fill="#fff"/><path d="m33.749376 28.499277c-3.849102 0-6.959096 3.123078-6.959096 6.988378l-.000001 67.201615c0 3.86532 3.109992 6.98839 6.959096 6.98839h75.272645c3.84911 0 6.95911-3.12307 6.95911-6.98839v-67.201614c0-3.865299-3.11-6.988378-6.95911-6.988378l.19472-.06186-.0349 5.158256c0 1.590917-1.27395 2.870226-2.85821 2.870226h-10.325834c-1.584256 0-2.8582-1.279306-2.8582-2.870226l.03487-5.158256z" fill="url(#L)"/><rect fill="url(#K)" height="51.999832" rx="3.081831" ry="3.01785" width="75.999763" x="33.105038" y="51.296295"/><rect fill="url(#J)" filter="url(#I)" height="32.098705" rx="2.201577" transform="matrix(1.3998291 0 0 1.3707673 -.906814 -35.36837)" width="54.292171" x="24.297146" y="63.223469"/><path d="m33.787676 100.35341v1.37077c0 1.67187 1.354793 2.99854 3.062126 2.99854h69.263348c1.70735 0 3.06213-1.32667 3.06213-2.99854v-1.37077c0 1.67188-1.35478 2.99856-3.06213 2.99856h-69.263348c-1.707333 0-3.062126-1.32668-3.062126-2.99856z" fill="#fff"/><path clip-path="url(#N)" d="m27.909017 66.895729c-1.219674 0-2.1875.967827-2.1875 2.1875l-.000001 14.144433c9.640301 2.396967 19.21344 4.526529 30.704144 4.526529s13.787251-2.129562 23.427552-4.526529l.000001-14.144433c0-1.219674-.967827-2.1875-2.1875-2.1875z" fill="url(#G)" filter="url(#M)" transform="matrix(1.3998291 0 0 1.3707673 -2.906808 -40.402185)"/></g><g transform="matrix(.3636375 0 0 .3636375 1.052676 1.710381)"><path d="m25.524085 57.906165c-3.884437 0-6.999999 3.146813-6.999999 7.03125l-.000001 48.750085c0 3.88444 3.115563 7 7 7h55.475915c3.884437 0 7-3.11556 7-7l.000001-48.750085c0-3.884437-3.115563-7.03125-7-7.03125l2.410953-.04752-.0269 5.039421c0 .95614-.762611 1.71875-1.71875 1.71875h-11.502696c-.95614 0-1.71875-.762611-1.71875-1.71875l.0269-5.039421z" style="fill:#020202;stroke:#000;stroke-width:2;stroke-linecap:round;stroke-linejoin:round;stroke-dashoffset:1.0878;filter:url(#H)" transform="matrix(1.2962495 0 0 1.3017032 2.059823 -46.237988)"/><path d="m33.851947 27.358228c-4.842843 0-8.746884 3.920466-8.746884 8.783687l-.000001 55.154254v10.738841c0 4.86324 3.904041 8.7837 8.746884 8.7837h74.497534c4.84284 0 8.74689-3.92046 8.74689-8.7837v-65.893094c0-4.863221-3.90405-8.783687-8.74689-8.783687l.75532-.06186-.0349 5.72119c0 1.267689-1.00686 2.278788-2.26924 2.278788h-11.461442c-1.262376 0-2.269238-1.0111-2.269238-2.278788l.03487-5.72119z" fill="#fff"/><path d="m33.749376 28.499277c-3.849102 0-6.959096 3.123078-6.959096 6.988378l-.000001 67.201615c0 3.86532 3.109992 6.98839 6.959096 6.98839h75.272645c3.84911 0 6.95911-3.12307 6.95911-6.98839v-67.201614c0-3.865299-3.11-6.988378-6.95911-6.988378l.19472-.06186-.0349 5.158256c0 1.590917-1.27395 2.870226-2.85821 2.870226h-10.325834c-1.584256 0-2.8582-1.279306-2.8582-2.870226l.03487-5.158256z" fill="url(#L)"/><rect fill="url(#K)" height="51.999832" rx="3.081831" ry="3.01785" width="75.999763" x="33.105038" y="51.296295"/><rect fill="url(#J)" filter="url(#I)" height="32.098705" rx="2.201577" transform="matrix(1.3998291 0 0 1.3707673 -.906814 -35.36837)" width="54.292171" x="24.297146" y="63.223469"/><path d="m33.787676 100.35341v1.37077c0 1.67187 1.354793 2.99854 3.062126 2.99854h69.263348c1.70735 0 3.06213-1.32667 3.06213-2.99854v-1.37077c0 1.67188-1.35478 2.99856-3.06213 2.99856h-69.263348c-1.707333 0-3.062126-1.32668-3.062126-2.99856z" fill="#fff"/><path clip-path="url(#N)" d="m27.909017 66.895729c-1.219674 0-2.1875.967827-2.1875 2.1875l-.000001 14.144433c9.640301 2.396967 19.21344 4.526529 30.704144 4.526529s13.787251-2.129562 23.427552-4.526529l.000001-14.144433c0-1.219674-.967827-2.1875-2.1875-2.1875z" fill="url(#G)" filter="url(#M)" transform="matrix(1.3998291 0 0 1.3707673 -2.906808 -40.402185)"/></g><g transform="matrix(.36363637 0 0 .36363637 -.000001 .000039)"><path d="m87.875 12c-.865503.02693-1.698899.333976-2.375.875l-60 48c-.949856.759129-1.5 1.909063-1.5 3.125s.550144 2.365871 1.5 3.125l60 48c1.200963.96113 2.832437 1.13525 4.21875.46875 1.386317-.6665 2.281892-2.05554 2.28125-3.59375v-23.6875-10.25l-1.5-1.1875c-1.200963-.96113-2.832437-1.135247-4.21875-.46875-1.386317.666498-2.281892 2.055543-2.28125 3.59375v23.6875l-49.59375-39.6875 49.59375-39.6875v23.6875c-.000642 1.538207.894936 2.927253 2.28125 3.59375 1.38631.666496 3.017787.49238 4.21875-.46875l1.5-1.1875v-10.25-23.6875c.000417-1.082848-.441373-2.121179-1.21875-2.875-.777377-.75382-1.823927-1.158727-2.90625-1.125z" style="opacity:.905263;fill:none;stroke:#638000;stroke-width:.966;stroke-linejoin:round;filter:url(#a)" transform="matrix(.5266666 0 0 .5086866 17.44 19.451617)"/><g fill-rule="evenodd"><path d="m89.5625 24c.63709-.01817 1.26116.187735 1.71875.59375s.719.979268.71875 1.5625v12.75 2.875 2.65625 15.15625 3.125 2.375 12.78125c.00038.82849-.52772 1.547266-1.34375 1.90625-.81602.35898-1.76183.267673-2.46875-.25l-20.1875-14.75v.3125 12.78125c.00038.82849-.527728 1.547266-1.34375 1.90625-.816025.35898-1.761828.267673-2.46875-.25l-35.34375-25.84375c-.55912-.408874-.875-1.032585-.875-1.6875 0-.654916.31588-1.278625.875-1.6875l35.34375-25.84375c.397968-.291401.865539-.454242 1.375-.46875.637082-.01817 1.261167.187735 1.71875.59375.457582.406015.719.979268.71875 1.5625v12.75.3125l20.1875-14.75c.39797-.291401.86554-.454242 1.375-.46875zm-68.8125 0c1.8005 0 3.25 1.4495 3.25 3.25v49.5c0 1.8005-1.4495 3.25-3.25 3.25h-5.5c-1.8005 0-3.25-1.4495-3.25-3.25v-49.5c0-1.8005 1.4495-3.25 3.25-3.25zm66.53125 6.625-19.28125 14.125v14.5l19.28125 14.125v-10.125h-8.8125c-.3261 0-.59375-.23286-.59375-.53125v-20.9375c0-.298389.26765-.531251.59375-.53125h8.8125zm-24 0-29.1875 21.375 29.1875 21.375v-10.125h-8.8125c-.326102 0-.593749-.23286-.59375-.53125v-8.28125l-1.03125-.75c-.559115-.408874-.875002-1.032585-.875-1.6875-.000003-.654916.315886-1.278625.875-1.6875l1.03125-.75v-7.78125c-.000003-.298389.267649-.531251.59375-.53125h8.8125z" fill="url(#b)"/><path d="m87.875 12c-.799041.02487-1.572946.283948-2.21875.75l-.85878 9.522712 7.17128-6.647712c-.08779-.946211-.499493-1.832841-1.1875-2.5-.777377-.75382-1.823927-1.158727-2.90625-1.125z" fill="url(#c)" filter="url(#f)" opacity=".85" transform="matrix(.5266666 0 0 .5086866 19.34 18.451617)"/><path d="m71.875 12c-.799041.02487-1.572946.283948-2.21875.75l-1.048654 10.259904 7.361154-7.384904c-.08779-.946211-.499493-1.832841-1.1875-2.5-.777377-.75382-1.823927-1.158727-2.90625-1.125z" fill="url(#g)" filter="url(#f)" opacity=".35" transform="matrix(.5266666 0 0 -.5086866 27.86667 86.451238)"/><path d="m87.78125 29.875v44.25l-23.999995-16.8125v16.8125l-31.593745-22.125 31.593745-22.125v16.8125z" fill="url(#i)"/><path d="m11.6875 59.125-2.1875 1.75c-.9498559.759129-1.5 1.909063-1.5 3.125.0000001 1.215937.5501441 2.365871 1.5 3.125l3.53125 2.8125 2.125-5.625z" fill="url(#j)" filter="url(#k)" opacity=".5" transform="matrix(.5266666 0 0 -.5086866 25.86667 84.849638)"/><path d="m87.78125 29.875v14.75 14.75 14.75l-23.999995-16.8125v2.0625 14.75l-30.593745-22.125 30.593745-22.125v14.75 2.0625z" fill="url(#l)"/></g><path d="m48.218745 29.875v14.75 14.75 14.75l24-16.8125v2.0625 14.75l30.593745-22.125-30.593745-22.125v14.75 2.0625z" fill="none" filter="url(#p)" stroke="url(#n)" stroke-width=".5" transform="matrix(-1 0 0 1 136 0)"/><g fill-rule="evenodd"><path d="m87.78125 29.875v14.75 5.34375c-5.83489 1.676631-12.99317 2.656249-20.749995 2.65625-3.755295 0-7.384324-.226831-10.78125-.65625l.6875-.46875c-4.276931.725743-8.960926 1.124999-13.90625 1.125-3.755295 0-7.384325-.226831-10.781245-.65625l31.531245-22.09375v14.75 2.0625z" fill="url(#q)"/><path d="m63.781255 29.875v14.75 2.0625l-.4375.3125v-2.5625-14.25zm-6.15625 21.125-.6875.5c-4.276931.725743-8.960926 1.124999-13.90625 1.125-3.755295 0-7.384325-.226831-10.781245-.65625l.375-.25c3.24049.393862 6.68425.593751 10.249995.59375 5.28369 0 10.261659-.481775 14.75-1.3125z" fill="url(#r)"/><path d="m63.781255 29.875v14.75 2.0625l-.46875.34375v-2.15625-14.34375l-30.593745 21.4375c1.64848.208391 3.34972.391304 5.09375.5-1.90513-.111891-3.76685-.273003-5.5625-.5z" fill="url(#s)"/><g transform="matrix(.5 0 0 .5 43.986665 20.007523)"><path d="m87.875 12c-.799041.02487-1.572946.283948-2.21875.75l-.289159 9.276981 6.601659-6.401981c-.08779-.946211-.499493-1.832841-1.1875-2.5-.777377-.75382-1.823927-1.158727-2.90625-1.125z" fill="url(#c)" filter="url(#f)" opacity=".85" transform="matrix(1.0533333 0 0 1.0173732 -1.893333 -2.711812)"/><path d="m71.875 12c-.799041.02487-1.572946.283948-2.21875.75l.09059 9.276981 6.22191-6.401981c-.08779-.946211-.499493-1.832841-1.1875-2.5-.777377-.75382-1.823927-1.158727-2.90625-1.125z" fill="url(#g)" filter="url(#f)" opacity=".35" transform="matrix(1.0533333 0 0 -1.0173732 14.56 131.28743)"/><path d="m87.6 19.744339-.88875.633871v28.46658 10.516499c-11.508047 3.306789-25.649685 5.243844-40.948333 5.243844-7.131481 0-13.993161-.422394-20.474167-1.210119l-.757083.518622c6.793856.858836 14.016911 1.325368 21.5275 1.325367 15.513654 0 29.871052-1.977018 41.540833-5.33028v-10.660561z" fill="url(#t)"/><path d="m87.6 19.744339-63.068333 44.169297c3.591314.453991 7.315582.78465 11.125833 1.008432-3.488053-.217395-7.70721-.562838-11.004167-.97962l14.013515-9.934699c.04653.237807.186819.308909.264603.264145l47.746882-33.202189v28.639454 10.343625c-4.247377 1.220467-8.856521 2.26888-13.759166 3.08292 5.231797-.85061 10.165161-1.929422 14.680833-3.226981v-10.660561zm-51.9425 45.177729c1.745003.102487 3.515059.179649 5.299583.230498-1.785355-.05547-3.555557-.121801-5.299583-.230498z" fill="url(#u)"/></g></g><path d="m-20 28h4v48h-4z" fill="url(#v)" transform="scale(-1 1)"/><path d="m20 28v24.475c-1.39407-.154294-2.72024-.283031-4-.7375v-23.7375z" fill="url(#w)"/><path d="m16.09375 28v23.5375c1.25133.444372 2.54609.579078 3.90625.7375v.2c-1.39407-.154294-2.72024-.283031-4-.7375v-23.7375z" fill="url(#x)"/><path d="m116 28h4v48h-4z" style="fill:none;stroke-width:.2;stroke-linecap:round;stroke-linejoin:round;filter:url(#z);stroke:url(#y)" transform="matrix(-1 0 0 1 136 0)"/><path d="m116 28h4v48h-4z" style="fill:none;stroke-width:.2;stroke-linecap:round;stroke-linejoin:round;stroke:url(#y);filter:url(#A)" transform="matrix(-1 0 0 1 136 0)"/><path d="m116 28v24.798059-.088389l.1875-24.52217h3.8125v-.1875z" fill="url(#B)" filter="url(#A)" transform="matrix(-1 0 0 1 136 0)"/><g fill-rule="evenodd"><path d="m116 28v-4c-2.96316.314689-3.85012 1.927009-4 4z" fill="url(#C)" filter="url(#D)" opacity=".815315" transform="matrix(-1 0 0 1 136 0)"/><path d="m16 28v-4c-2.96316.314689-3.85012 1.927009-4 4z" fill="url(#E)" filter="url(#D)" opacity=".815315"/><g fill="url(#F)"><path d="m116 28v-4c-2.96316.314689-3.85012 1.927009-4 4z" filter="url(#D)" opacity=".369369" transform="matrix(-1 0 0 -1 136 104.2)"/><path d="m116 28v-4c-2.96316.314689-3.85012 1.927009-4 4z" filter="url(#D)" opacity=".369369" transform="matrix(1 0 0 -1 -100 104.2)"/></g></g></g></svg>