<svg height="32" viewBox="0 0 32 32" width="32" xmlns="http://www.w3.org/2000/svg" xmlns:xlink="http://www.w3.org/1999/xlink"><linearGradient id="a" gradientTransform="matrix(0 -.40973888 .24845378 0 20.258463 81.861382)" gradientUnits="userSpaceOnUse" x1="-112.60493" x2="202.69926" y1="240.45332" y2="240.45332"><stop offset="0" stop-color="#fff"/><stop offset=".30376765" stop-color="#fff"/><stop offset=".69874382" stop-color="#f1f1f1"/><stop offset=".91130292" stop-color="#eaeaea"/><stop offset="1" stop-color="#dfdfdf"/></linearGradient><linearGradient id="b" gradientTransform="matrix(0 -.40973888 .24845378 0 20.258463 81.861382)" gradientUnits="userSpaceOnUse" x1="-239.63541" x2="319.21747" y1="260.29001" y2="261.44675"><stop offset="0" stop-color="#b4b4b6"/><stop offset=".5" stop-color="#9c9ca1"/><stop offset="1" stop-color="#cdcdd1"/></linearGradient><g fill-rule="evenodd" transform="scale(.25)"><path d="m8 12.019531a3.981008 3.981008 0 0 0 -3.9804688 3.980469v96a3.981008 3.981008 0 0 0 3.9804688 3.98047h65.525391.08789a3.981008 3.981008 0 0 0 .535157-.041c28.539182-.30859 49.979452-23.451582 49.980472-51.93947-.00103-28.490836-21.44552-51.635211-49.988285-51.939453a3.981008 3.981008 0 0 0 -.53125-.04102z" fill="url(#b)"/><path d="m8 15.999998v96.000002h65.613281v-.0137c26.695549-.01818 46.534209-21.290749 46.535159-47.9863-.00096-26.697073-19.842-47.970275-46.539065-47.98633v-.01367h-65.609375zm65.580078.01172c-47.858073 74.907552-23.929036 37.453776 0 0zm0 95.976562c-47.858073 10.42578-23.929036 5.21289 0 0z" fill="url(#a)"/></g></svg>