<svg height="32" viewBox="0 0 32 32" width="32" xmlns="http://www.w3.org/2000/svg" xmlns:xlink="http://www.w3.org/1999/xlink"><linearGradient id="a" gradientUnits="userSpaceOnUse" x1="80" x2="80" y1="127.99999" y2="-.871647"><stop offset="0" stop-color="#fff"/><stop offset=".42597079" stop-color="#fff"/><stop offset=".7030763" stop-color="#f1f1f1"/><stop offset=".93115902" stop-color="#eaeaea"/><stop offset="1" stop-color="#dfdfdf"/></linearGradient><linearGradient id="b" gradientUnits="userSpaceOnUse" x1="12" x2="116" y1="63.462219" y2="63.462219"><stop offset="0" stop-color="#b4b4b6"/><stop offset=".5" stop-color="#9c9ca1"/><stop offset="1" stop-color="#cdcdd1"/></linearGradient><g fill-rule="evenodd" transform="scale(.25)"><path d="m91.396484 5.2109375c-11.37297-.1282365-21.375745 5.2346435-29.804687 11.6972655l.08203-.0625c-6.770852 4.915759-13.826283 8.329645-21.421875 8.876953-7.595592.547309-15.979853-1.63713-25.916015-8.90039a3.9582434 3.9582434 0 0 0 -6.2929692 3.195312v59.1875 26.361332 2.45117a3.9582434 3.9582434 0 0 0 1.6210937 3.19531c11.0742835 8.09522 21.5658525 11.09729 31.1562495 10.40625 9.590398-.69104 18.031107-4.94036 25.50586-10.36719a3.9582434 3.9582434 0 0 0 .08203-.0625c6.855682-5.25635 14.207263-9.22772 21.810547-9.96679 7.603284-.73908 15.734442 1.46646 25.169922 9.75195a3.9582434 3.9582434 0 0 0 6.56836-2.97461v-88a3.9582434 3.9582434 0 0 0 -1.3457-2.974609c-9.3059-8.1716887-18.38417-11.7148829-27.214846-11.8144535z" fill="url(#b)"/><path d="m91.35156 9.1677004c-10.087038-.1137369-19.28941 4.6994626-27.351562 10.8808596-14.245601 10.34256-30.98955 15.32723-51.999998-.03125v59.18854 26.36029 2.45117c21.010448 15.35848 37.754397 10.37381 51.999998.0312 14.332714-10.989101 31.896399-17.701884 52.000002-.04851v-88c-8.79533-7.723349-16.802965-10.7438376-24.64844-10.8322996z" fill="url(#a)"/></g></svg>