<svg height="32" viewBox="0 0 32 32" width="32" xmlns="http://www.w3.org/2000/svg" xmlns:xlink="http://www.w3.org/1999/xlink"><linearGradient id="a" gradientUnits="userSpaceOnUse" x1="25.037109" x2="102.96289" xlink:href="#b" y1="64" y2="64"/><linearGradient id="b"><stop offset="0" stop-color="#b4b4b6"/><stop offset=".5" stop-color="#9c9ca1"/><stop offset="1" stop-color="#cdcdd1"/></linearGradient><linearGradient id="c" gradientUnits="userSpaceOnUse" x1="60" x2="60" y1="128" y2="-1.321351"><stop offset="0" stop-color="#fff"/><stop offset=".42597079" stop-color="#fff"/><stop offset=".5892781" stop-color="#f1f1f1"/><stop offset=".80219781" stop-color="#eaeaea"/><stop offset="1" stop-color="#dfdfdf"/></linearGradient><linearGradient id="d" gradientUnits="userSpaceOnUse" x1="60" x2="60" xlink:href="#b" y1="128" y2="-1.321351"/><linearGradient id="e" gradientUnits="userSpaceOnUse" x1="59.691711" x2="59.691711" xlink:href="#b" y1="132.93271" y2="-6.355898"/><g transform="scale(.25)"><circle cx="64" cy="64" fill="url(#e)" r="55.974892"/><circle cx="64" cy="64" fill="url(#c)" r="51.969425"/><path d="m28.066406 25.037109a53.052898 53.052898 0 0 0 -3.017578 3.041016l35.921875 35.921875-35.933594 35.933594a53.052898 53.052898 0 0 0 3.041016 3.017576l35.921875-35.921873 35.933594 35.933593a53.052898 53.052898 0 0 0 3.017576-3.041015l-35.921873-35.921875 35.933593-35.933594a53.052898 53.052898 0 0 0 -3.041015-3.017578l-35.921875 35.921875z" fill="url(#a)"/><circle cx="64" cy="64" fill="url(#d)" r="0"/></g></svg>