<svg height="32" viewBox="0 0 32 32" width="32" xmlns="http://www.w3.org/2000/svg" xmlns:xlink="http://www.w3.org/1999/xlink"><linearGradient id="a" gradientTransform="matrix(1 0 0 -1 0 96.009765)" gradientUnits="userSpaceOnUse" x1=".019531" x2="127.98047" y1="63.999996" y2="63.999996"><stop offset="0" stop-color="#b4b4b6"/><stop offset=".5" stop-color="#9c9ca1"/><stop offset="1" stop-color="#cdcdd1"/></linearGradient><linearGradient id="b" gradientTransform="matrix(1 0 0 -1 0 96.009765)" gradientUnits="userSpaceOnUse" x1="64" x2="64" y1="-31.990234" y2="80.009766"><stop offset="0" stop-color="#fff"/><stop offset=".53340602" stop-color="#fff"/><stop offset=".9375" stop-color="#f1f1f1"/><stop offset=".96875" stop-color="#eaeaea"/><stop offset="1" stop-color="#dfdfdf"/></linearGradient><g transform="scale(.25)"><path d="m64 95.990234c-16.750244.000088-33.397976-6.894071-45.242188-18.738281-11.8442097-11.844212-18.73836945-28.491944-18.73828075-45.242188h19.98046875a44 44 0 0 0 44 44 44 44 0 0 0 44-44h19.98047c.00009 16.750244-6.89407 33.397976-18.73828 45.242188-11.844214 11.84421-28.491946 18.738369-45.24219 18.738281z" fill="url(#a)"/><path d="m64 92.009765c-31.791606.000169-57.7912956-24.729803-59.8515625-56h12.0527345a48 48 0 0 0 47.798828 44 48 48 0 0 0 47.80469-44h12.04687c-2.06026 31.270197-28.059954 56.000169-59.85156 56z" fill="url(#b)"/></g></svg>