<svg height="32" width="32" xmlns="http://www.w3.org/2000/svg" xmlns:xlink="http://www.w3.org/1999/xlink"><linearGradient id="a" gradientTransform="matrix(.8342942 0 0 1.0210988 10.813747 -1.944822)" gradientUnits="userSpaceOnUse" x1="55.875" x2="70.71875" xlink:href="#e" y1="91.296875" y2="91.296875"/><radialGradient id="b" cx="63.462833" cy="66.417244" gradientTransform="matrix(.9021317 0 0 .1440028 6.569572 54.660582)" gradientUnits="userSpaceOnUse" r="13.788582" xlink:href="#c"/><linearGradient id="c"><stop offset="0"/><stop offset="1" stop-opacity="0"/></linearGradient><linearGradient id="d"><stop offset="0" stop-color="#fff"/><stop offset="1" stop-color="#fff" stop-opacity="0"/></linearGradient><linearGradient id="e"><stop offset="0" stop-color="#fff" stop-opacity=".537906"/><stop offset=".21464799" stop-color="#fff"/><stop offset=".66342056" stop-color="#fff" stop-opacity=".415162"/><stop offset="1" stop-color="#fff" stop-opacity="0"/></linearGradient><radialGradient id="f" cx="63.912209" cy="115.70919" fy="115.7093" gradientTransform="matrix(1 0 0 .197802 0 92.82166)" gradientUnits="userSpaceOnUse" r="63.912209" xlink:href="#c"/><radialGradient id="g" cx="63.816387" cy="120.57538" gradientTransform="matrix(1 0 0 .289157 0 85.71021)" gradientUnits="userSpaceOnUse" r="14.672465"><stop offset="0"/><stop offset=".5714286"/><stop offset="1" stop-opacity="0"/></radialGradient><linearGradient id="h" gradientTransform="matrix(.9384891 0 0 .9797769 5.360263 -.11023)" gradientUnits="userSpaceOnUse" x1="48.648247" x2="63.212357" xlink:href="#c" y1="123.09119" y2="60.341194"/><linearGradient id="i" gradientTransform="matrix(.8342942 0 0 .6237166 10.813747 4.972114)" gradientUnits="userSpaceOnUse" x1="27.080584" x2="59.768688" xlink:href="#d" y1="-14.285192" y2="17.40625"/><linearGradient id="j" gradientTransform="matrix(.8332988 -.04074194 .0435632 .8910022 10.908193 1.296071)" gradientUnits="userSpaceOnUse" x1="26.516504" x2="67.55307" xlink:href="#d" y1="6.289245" y2="6.289245"/><radialGradient id="k" cx="63.462833" cy="66.417244" gradientTransform="matrix(.9021317 0 0 .2520869 6.569572 47.48181)" gradientUnits="userSpaceOnUse" r="13.788582" xlink:href="#c"/><radialGradient id="l" cx="52.715279" cy="41.561275" gradientTransform="matrix(1.6417463 -.8079979 1.3565327 2.8660381 -96.448304 -52.309632)" gradientUnits="userSpaceOnUse" r="15.995545" xlink:href="#e"/><radialGradient id="m" cx="51.78791" cy="41.299831" gradientTransform="matrix(1.6417463 -.8125119 1.3565327 2.88205 -96.448304 -52.949828)" gradientUnits="userSpaceOnUse" r="15.995545" xlink:href="#e"/><linearGradient id="n" gradientTransform="matrix(.8342942 0 0 1.0210978 10.813748 -1.944821)" gradientUnits="userSpaceOnUse" spreadMethod="reflect" x1="55.826965" x2="121.36113" y1="61.3554" y2="52.6054"><stop offset="0" stop-color="#bdbdbd"/><stop offset="1" stop-color="#bdbdbd" stop-opacity="0"/></linearGradient><linearGradient id="o" gradientTransform="matrix(.8342942 0 0 .8975001 10.813747 5.940948)" gradientUnits="userSpaceOnUse" x1="94.42218" x2="100.78125" xlink:href="#c" y1="30.355696" y2="35.359375"/><radialGradient id="p" cx="57.214077" cy="124.00706" fx="49.233025" fy="124.00705" gradientTransform="matrix(.556928 -.00000003 0 .138799 37.13478 97.17706)" gradientUnits="userSpaceOnUse" r="11.383312" xlink:href="#d"/><filter id="q" color-interpolation-filters="sRGB" height="1.12069" width="1.119315" x="-.059658" y="-.060345"><feGaussianBlur stdDeviation=".82504758"/></filter><linearGradient id="r" gradientUnits="userSpaceOnUse" x1="98.129425" x2="98.129425" xlink:href="#s" y1="90.067581" y2="-21.726805"/><linearGradient id="s"><stop offset="0" stop-color="#525252"/><stop offset="1" stop-color="#d8d8d8"/></linearGradient><linearGradient id="t" gradientUnits="userSpaceOnUse" x1="39.224991" x2="152.77499" y1="27.11668" y2="27.11668"><stop offset="0" stop-color="#ebebeb"/><stop offset=".3164545" stop-color="#cacaca"/><stop offset=".58694273" stop-color="#c7c7c7" stop-opacity=".955882"/><stop offset=".84601915" stop-color="#cacaca"/><stop offset="1" stop-color="#dedede"/></linearGradient><filter id="u" color-interpolation-filters="sRGB" height="1.024" width="1.024" x="-.012" y="-.012"><feGaussianBlur stdDeviation=".12785668"/></filter><linearGradient id="v" gradientUnits="userSpaceOnUse" x1="97.901085" x2="98.137222" y1="-19.072107" y2="75.337692"><stop offset="0" stop-color="#171a1c"/><stop offset="1" stop-color="#8ca0ac"/></linearGradient><radialGradient id="w" cx="63.02887" cy="288.18738" gradientUnits="userSpaceOnUse" r="11.437257"><stop offset="0" stop-color="#7cb5fc"/><stop offset="1" stop-color="#0d5bab"/></radialGradient><filter id="x" color-interpolation-filters="sRGB" height="1.024" width="1.024" x="-.012" y="-.012"><feGaussianBlur stdDeviation=".11169196"/></filter><filter id="y" color-interpolation-filters="sRGB" height="1.023839" width="1.024163" x="-.012082" y="-.01192"><feGaussianBlur stdDeviation=".087289468"/></filter><linearGradient id="z" gradientTransform="matrix(3.1220474 0 0 3.3307435 -99.682263 -910.34368)" gradientUnits="userSpaceOnUse" x1="63.499996" x2="63.499996" y1="269.89706" y2="286.49451"><stop offset="0" stop-color="#e3f3fd"/><stop offset="1" stop-color="#a3d8f9" stop-opacity="0"/></linearGradient><linearGradient id="A" gradientUnits="userSpaceOnUse" x1="96.185791" x2="97.510162" y1="-31.978367" y2="4.394227"><stop offset="0" stop-color="#fcfcfc"/><stop offset="1" stop-color="#fcfcfc" stop-opacity="0"/></linearGradient><radialGradient id="B" cx="67.73333" cy="277.9501" gradientTransform="matrix(-3.3904774 0 0 -3.3904774 310.92706 979.89649)" gradientUnits="userSpaceOnUse" r="7.574691"><stop offset="0" stop-color="#bfbfbf"/><stop offset="1" stop-color="#dfdfdf" stop-opacity="0"/></radialGradient><filter id="C" color-interpolation-filters="sRGB" height="1.047739" width="1.048264" x="-.024132" y="-.02387"><feGaussianBlur stdDeviation=".9480859"/></filter><radialGradient id="D" cx="21.273409" cy="276.88303" gradientUnits="userSpaceOnUse" r="6.794981"><stop offset="0" stop-color="#e10000"/><stop offset="1" stop-color="#851400"/></radialGradient><radialGradient id="E" cx="21.273409" cy="276.88303" gradientUnits="userSpaceOnUse" r="6.794981"><stop offset="0" stop-color="#ffbfbf"/><stop offset="1" stop-color="#ffbfbf" stop-opacity="0"/></radialGradient><linearGradient id="F" gradientUnits="userSpaceOnUse" x1="16.526453" x2="17.475842" xlink:href="#s" y1="277.83243" y2="281.63"/><radialGradient id="G" cx="17.52717" cy="278.68237" gradientUnits="userSpaceOnUse" r="2.42716"><stop offset="0" stop-color="#e8e8e8"/><stop offset="1" stop-color="#c7c7c7"/></radialGradient><filter id="H" color-interpolation-filters="sRGB" height="1.08803" width="1.060909" x="-.030454" y="-.044015"><feGaussianBlur stdDeviation=".61981931"/></filter><g transform="scale(.25)"><path d="m127.82442 115.70919a63.91221 12.641975 0 1 1 -127.82442 0 63.91221 12.641975 0 1 1 127.82442 0z" fill="url(#f)" opacity=".381395" transform="matrix(.6102121 0 0 .416667 24.999997 74.520305)"/><path d="m78.488853 120.57538a14.672466 4.2426406 0 1 1 -29.344931 0 14.672466 4.2426406 0 1 1 29.344931 0z" fill="url(#g)" opacity=".413934" transform="matrix(.9702784 0 0 .9820563 2.080338 1.421678)"/><path d="m53.349575 3.2933654v-2.79415759z" fill="#fff" fill-opacity=".756881"/><path d="m102.76856 18.730326c-10.743867 15.154665-23.320525 29.317723-30.651309 44.47239l1.171186-.03966 35.685193-46.171632c-2.28657.97088-4.33545 1.51561-6.20507 1.738907z" fill="url(#o)" opacity=".42"/><path d="m64.07844.4721712c-26.48883 0-47.986141 5.2410524-47.986141 11.2462638 0 12.378012 37.304851 50.534456 37.304851 50.534456.15424.220906.33787.586613.32471 1.012938v54.463801c0 1.34296 1.8583 2.17807 9.16761 2.17807 7.15307 0 11.54554-.64365 11.54554-2.17807 0-.009.00072-.0255 0-.034l-.05511-54.429792c0-.25001.03393-.533963.15023-.746911 0 0 37.37801-38.768103 37.37801-51.267003 0-4.2571568-21.34088-10.7797527-47.8297-10.7797528z" style="stroke:#000;stroke-width:.184596;stroke-linecap:round;stroke-linejoin:round;stroke-dashoffset:4;fill:url(#n)"/><path d="m64.077815 9.398298c-19.533714 0-35.708795 3.958045-38.285978 9.08667 8.417987 3.30255 22.417904 5.515032 38.285978 5.515032 15.850743 0 29.839638-2.166048 38.260675-5.462505-2.527458-5.142725-18.69015-9.139197-38.260675-9.139197z"/><path d="m57.429913 63.660786v55.608734c1.785083.37543 4.003191.63818 6.648277.63818 2.20064 0 4.105219-.18266 5.735768-.44674v-55.800174c-4.128014.921909-8.25603 1.458575-12.384045 0z" fill="url(#a)" opacity=".614754"/><path d="m54.05364 62.480138c-.0033.02286-.02338.04079-.02338.06382 0 1.220585 4.615845 3.226439 10.309993 3.226439 5.694143 0 10.333367-2.005853 10.333371-3.226439 0-.02236-.0203-.04162-.02338-.06382-2.270886.514645-6.041741.829643-10.309991.829643-4.267242-.000001-8.015554-.315203-10.286613-.829643z" fill="url(#b)" opacity=".11"/><path d="m57.429913 63.807359-12.831081-39.807359c8.82615 1.007037 17.831686.599508 26.689963.160406l-1.474837 39.646953c-4.128014.772391-8.25603 1.222019-12.384045 0z" fill="url(#m)" opacity=".758197"/><path d="m54.05364 62.480138c-.0033.02286-.02338.04079-.02338.06382 0 1.220585 4.615845 2.414162 10.309993 2.414162 5.694143 0 10.333367-1.193576 10.333371-2.414162 0-.02236-.0203-.04162-.02338-.06382-2.270885.514645-6.107864 1.371162-10.376116 1.371162-4.267242-.000001-7.949428-.856722-10.220488-1.371162z" fill="url(#b)" opacity=".11"/><path d="m79.338449 112.83906a11.285211 1.4818963 0 1 1 -22.570422 0 11.285211 1.4818963 0 1 1 22.570422 0z" style="fill:none;stroke:#5b5b5b;stroke-width:.196203;stroke-linecap:round;stroke-linejoin:round;stroke-dashoffset:4" transform="matrix(4.2019807 0 0 7.7206883 -221.93924 -859.19522)"/><path d="m56.729366 63.68609-14.841989-39.68609c8.826152 1.001442 22.837449.808862 31.695727.3722l-3.21608 39.426685c-4.128018.7681-9.509643 1.102435-13.637658-.112795z" fill="url(#l)" opacity=".758197"/><path d="m79.338449 112.83906a11.285211 1.4818963 0 1 1 -22.570422 0 11.285211 1.4818963 0 1 1 22.570422 0z" style="fill:none;stroke-width:.137008;stroke-linecap:round;stroke-linejoin:round;stroke-dashoffset:4;stroke:url(#p)" transform="matrix(4.2043803 0 0 7.832456 -222.10254 -871.80695)"/><path d="m54.05364 62.480138c-.0033.02286-.02338.04079-.02338.06382 0 1.220585 4.648908 4.128971 10.343053 4.128971 5.694144 0 10.300307-2.908385 10.300311-4.128971 0-.02236-.0203-.04162-.02338-.06382-2.270886.514645-6.30624 1.596795-10.574491 1.596795-4.267244-.000001-7.751054-1.082355-10.022114-1.596795z" fill="url(#k)" opacity=".11"/><path d="m56.752048 63.49897.677865 55.77055c1.785083.37543 4.003191.63818 6.648277.63818 2.20064 0 4.105219-.18266 5.735768-.44674l.469291-55.800174c-4.128015.921909-9.403184 1.29676-13.531201-.161816z" fill="url(#a)" opacity=".614754"/><path d="m72.189405 63.195363h1.042865v55.645727l-1.07974.39388z" opacity=".213115"/><path d="m33.561894 4.0688722c5.152843-.9966745 10.276942-1.7833941 15.357326-2.2507631l.118128 7.0750915c-4.218239.2927382-7.930747 1.4689904-11.927639 2.2754524z" fill="url(#j)" opacity=".836066"/><path d="m45.279272 11.288602c-4.44982.186297-5.271609.256128-8.680632.583377 3.214297 1.364021 6.904683 2.48046 9.985452 3.664336 4.097528.166059 8.479256.248852 13.061913.292368-2.943282-1.466769-6.600453-5.154562-10.976177-5.699554-3.072748-.3827076-3.322993 1.188573-3.390556 1.159473z" fill="url(#i)" opacity=".836066"/><path d="m53.730639 62.885731-.0164-.01531.161302 55.327159c.148106.6005.650298.68958 1.07974.88376.739628-22.806226-.504757-38.570057-1.224646-56.19561z" fill="url(#h)" opacity=".532787"/></g><g transform="matrix(.13103281 0 0 .13103281 11.506675 20.362765)"><ellipse cx="62.895233" cy="281.04938" fill="#5a5a5a" filter="url(#q)" rx="16.59565" ry="16.406662" transform="matrix(3.4973155 0 0 3.5176096 -123.96447 -958.622)"/><circle cx="96" cy="27.116606" fill="url(#r)" r="57.769276"/><circle cx="96" cy="27.116606" fill="url(#t)" r="56.774998"/><circle cx="62.895233" cy="281.23837" fill="#f0f3f4" filter="url(#u)" r="12.785668" transform="matrix(3.6412308 0 0 3.6412308 -133.01607 -996.9372)"/><circle cx="96" cy="27.116606" fill="url(#v)" r="43.97504"/><circle cx="96" cy="27.116606" fill="#032668" r="39.82795"/><circle cx="62.895233" cy="281.23837" fill="url(#w)" filter="url(#x)" r="11.169196" transform="matrix(3.3425285 0 0 3.3425285 -114.22911 -912.93062)"/><path d="m68.953232 290.2807-1.443425-4.75293c1.416094-1.66975 1.823029-3.9728 1.064875-6.02671l2.979396-3.96944-4.746321 1.45286c-1.669825-1.41586-3.972826-1.82258-6.026605-1.06431l-4.134512-3.21514 1.617929 4.98206c-1.41584 1.66963-1.822725 3.9724-1.064771 6.02613l-2.985837 3.96023 4.752927-1.44343c1.669699 1.41602 3.972653 1.82293 6.02652 1.06485zm-3.668966-5.25007c-1.890643 1.32376-4.496438.8642-5.820182-1.02645-1.323703-1.89056-.864252-4.49622 1.026222-5.82003 1.890562-1.32389 4.496384-.8645 5.820259 1.02606 1.323953 1.89065.864456 4.49661-1.026299 5.82042z" fill="#326fb6" filter="url(#y)" transform="matrix(3.3904774 0 0 3.3904774 -117.24487 -926.41571)"/><g transform="matrix(1.3038578 1.3038578 -1.3038578 1.3038578 260.21962 -528.13141)"><path d="m169.10577 279.56256-8.05633-4.30293c-.32979-4.01212-2.79507-7.53557-6.45124-9.22028l-1.28722-9.03467-4.28206 8.06c-4.01193.33019-7.53503 2.79568-9.21941 6.45183l-9.55581 1.19534 8.58112 4.37395c.32997 4.01164 2.79494 7.53465 6.45062 9.21939l1.26687 9.03107 4.30292-8.05632c4.01196-.32983 7.53525-2.79501 9.21999-6.45103zm-11.59628-2.05571c-.73704 4.17928-4.72253 6.96975-8.9018 6.23267-4.17909-.73701-6.96953-4.72218-6.23277-8.9013.73677-4.17934 4.72207-6.97007 8.90139-6.23328 4.17954.73681 6.97031 4.72243 6.23318 8.90191z" fill="#dbe8f9"/><path d="m566.44336 16.882812a31.567267 31.567267 0 0 0 -31.56836 31.56836 31.567267 31.567267 0 0 0 31.56836 31.566406 31.567267 31.567267 0 0 0 31.56641-31.566406 31.567267 31.567267 0 0 0 -31.56641-31.56836zm0 2.525391a29.041884 29.041884 0 0 1 29.04102 29.042969 29.041884 29.041884 0 0 1 -29.04102 29.041016 29.041884 29.041884 0 0 1 -29.04297-29.041016 29.041884 29.041884 0 0 1 29.04297-29.042969z" fill="#f7fcfe" transform="matrix(.26458333 0 0 .26458333 0 263.13332)"/></g><ellipse cx="96.679634" cy="23.718515" fill="url(#z)" rx="33.425331" ry="32.989063"/><path d="m96.000544-28.944925a46.594666 24.187068 0 0 0 -14.993288 1.312252 56.774998 56.774998 0 0 0 -31.563155 22.2949803 46.594666 24.187068 0 0 0 -.03935.58114 46.594666 24.187068 0 0 0 6.150658 11.948901 45.140334 45.140334 0 0 1 40.445146-25.2156483 45.140334 45.140334 0 0 1 40.475145 25.2119063 46.594666 24.187068 0 0 0 6.1188-11.945159 46.594666 24.187068 0 0 0 -.0506-.523011 56.774998 56.774998 0 0 0 -32.14241-22.4505833 46.594666 24.187068 0 0 0 -14.400919-1.214778z" fill="url(#A)"/><path d="m54.548273 69.497632 51.363637-34.903898-7.861471-7.861455z" fill="url(#B)"/><g transform="matrix(4.0794043 0 0 4.0794043 26.909745 -1114.6013)"><path d="m285.0332 23.582031-57.25586 38.908203 10.08985 10.091797-47.125 46.326169 57.25781-38.9082-.77734-.777344z" fill="#4a2828" filter="url(#C)" transform="matrix(.23734813 0 0 .23734813 -39.487706 263.59154)"/><path d="m28.345842 268.42042-13.589964 9.23498 4.354979 4.35499z" fill="url(#D)"/><path d="m5.5208237 291.24544 9.2349853-13.58997 4.354978 4.35498z" fill="#e8e8e8"/><path d="m26.656733 269.80571-11.593498 7.87909 1.774854 1.7731z" fill="url(#E)"/><circle cx="16.933331" cy="279.83292" fill="url(#F)" r="2.598824"/><circle cx="16.933331" cy="279.83292" fill="url(#G)" r="2.427159"/><circle cx="16.933331" cy="279.83292" fill="#555" r="1.1984"/><path d="m278.68164 26.181641-48.8457 33.197265.60156.59961 44.91797-30.527344z" fill="#fefefe" filter="url(#H)" transform="matrix(.23734813 0 0 .23734813 -39.487706 263.59154)"/></g></g></svg>