<svg height="32" width="32" xmlns="http://www.w3.org/2000/svg" xmlns:xlink="http://www.w3.org/1999/xlink"><linearGradient id="a" gradientTransform="matrix(.06503009 0 0 .1431311 -143.72055 -182.65387)" gradientUnits="userSpaceOnUse" x1="399.77466" x2="364.7627" y1="1164.6696" y2="465.68405"><stop offset="0" stop-color="#a7a7a9"/><stop offset=".5" stop-color="#7d7d83"/><stop offset="1" stop-color="#aaaab1"/></linearGradient><linearGradient id="b" gradientTransform="matrix(.4947918 0 0 1.0000001 -139.41668 -123.99997)" gradientUnits="userSpaceOnUse" x1="42.728634" x2="265.59995" y1="99.999985" y2="-8.00003"><stop offset="0" stop-color="#fff"/><stop offset=".42597079" stop-color="#fff"/><stop offset=".5892781" stop-color="#f1f1f1"/><stop offset=".80219781" stop-color="#eaeaea"/><stop offset="1" stop-color="#dfdfdf"/></linearGradient><linearGradient id="c" gradientTransform="matrix(1 0 0 1.3839042 -7.500007 1.85753)" gradientUnits="userSpaceOnUse" x1="102.31124" x2="79.781258" y1="-5.830213" y2="48"><stop offset="0" stop-color="#fff"/><stop offset="1" stop-color="#fff" stop-opacity="0"/></linearGradient><linearGradient id="d" gradientTransform="matrix(.99999999 0 0 .50000003 64.142139 -28.573589)" gradientUnits="userSpaceOnUse" x1="-21.213205" x2="25.455845" y1="-80.024391" y2="-104.6518"><stop offset="0" stop-color="#0968ef"/><stop offset="1" stop-color="#aecffc"/></linearGradient><linearGradient id="e" gradientTransform="matrix(.99999997 0 0 .57322316 -14.852818 59.545942)" gradientUnits="userSpaceOnUse" x1="58.852818" x2="151.32086" y1="-16.142143" y2="-19.120222"><stop offset="0" stop-color="#06f"/><stop offset="1" stop-color="#80b3ff"/></linearGradient><linearGradient id="f" gradientUnits="userSpaceOnUse" x1="78.61102" x2="120.343665" y1="1011.214676" y2="1033.909412"><stop offset="0" stop-color="#fff"/><stop offset="1" stop-color="#ccc"/></linearGradient><linearGradient id="g" gradientUnits="userSpaceOnUse" x1="100.83469" x2="116.42816" y1="35.992722" y2="78.92421"><stop offset="0" stop-color="#fff" stop-opacity=".683453"/><stop offset="1" stop-color="#fff" stop-opacity="0"/></linearGradient><linearGradient id="h" gradientTransform="matrix(.5963646 0 0 .63697579 63.973311 385.80879)" gradientUnits="userSpaceOnUse" x1="65.456863" x2="65.985519" y1="947.38373" y2="1011.6694"><stop offset="0" stop-color="#363636"/><stop offset="1" stop-color="#cdcdcd"/></linearGradient><linearGradient id="i" gradientUnits="userSpaceOnUse" x1="88.38102" x2="130.48599" y1="1008.9966" y2="1015.6953"><stop offset="0" stop-color="#5e5e5e"/><stop offset="1" stop-color="#5e5e5e" stop-opacity="0"/></linearGradient><filter id="j" color-interpolation-filters="sRGB" height="1.12903" width="1.240695" x="-.120348" y="-.064515"><feGaussianBlur stdDeviation="1.8475301"/></filter><linearGradient id="k" gradientUnits="userSpaceOnUse" x1="102.76828" x2="102.872631" y1="996.594855" y2="1014.125991"><stop offset="0" stop-color="#979797"/><stop offset=".148461" stop-color="#f6f6f6"/><stop offset=".28399727" stop-color="#e2e2e2"/><stop offset=".59572202" stop-color="#dedede"/><stop offset=".73809379" stop-color="#f6f6f6"/><stop offset="1" stop-color="#6b6b6b"/></linearGradient><linearGradient id="l" gradientUnits="userSpaceOnUse" x1="102.6542" x2="102.706578" y1="-1035.714993" y2="-1014.948846"><stop offset="0" stop-color="#777"/><stop offset=".07421063" stop-color="#a8a8a8"/><stop offset=".22864534" stop-color="#cdcdcd"/><stop offset=".34561315" stop-color="#f7f7f7"/><stop offset="1" stop-color="#fff"/></linearGradient><g transform="scale(.25)"><rect fill="url(#a)" height="88" rx="3.632653" transform="matrix(0 -1 -1 0 0 0)" width="88" x="-108" y="-108"/><rect fill="url(#b)" fill-rule="evenodd" height="80" rx=".6" ry="3.25" transform="matrix(0 -1 -1 0 0 0)" width="80" x="-104" y="-104"/><path d="m84 24c-10.683566 13.04756-49.479672 59.15997-55.71875 76.28493l52 4c1.52447-16.39508 10.28344-67.20587 16.84375-80.28493z" fill="url(#c)" fill-rule="evenodd"/><g transform="matrix(-.70710678 -.70710678 .70710678 -.70710678 77.935029 149.05992)"><path d="m44 48h52v4.585786h-52z" fill="url(#e)"/><path d="m24-72h52v4.000001h-52z" fill="url(#d)" transform="rotate(90)"/></g><g transform="translate(-.00018 -922.36226)"><path d="m76.46817 972.50342h51.194408v77.779846h-51.194408z" fill="#4d4d4d"/><path d="m78.611023 974.10779h46.908691v74.213753h-46.908691z" fill="url(#f)"/><path d="m78.611328 49.746094v51.285156c16.429399-20.561618 32.025322-27.545067 46.908202-28.796875v-22.488281z" fill="url(#g)" fill-rule="evenodd" transform="translate(0 924.36216)"/><path d="m90.869186 988.89819h22.89193v42.1455h-22.89193z" fill="url(#h)"/><path d="m92.81509 1029.6319c1.071428 1.4286 10.71429 15.3572 11.78571 13.5715 1.07143-1.7858 26.42857-25.3572 25-26.7858-1.42857-1.4285-33.928567-41.78567-33.928567-41.78567z" fill="url(#i)" fill-rule="evenodd" filter="url(#j)" transform="matrix(.69309305 0 0 .69309305 41.154082 321.73716)"/><path d="m92.999054 991.90948h18.632183v36.122967h-18.632183z" fill="#171717"/><path d="m94.788757 996.69385h15.05279v17.709164h-15.05279z" fill="url(#k)"/><path d="m94.827774-1035.9587h14.974748v21.984106h-14.974748z" fill="url(#l)" transform="scale(1 -1)"/></g></g></svg>