<svg height="32" viewBox="0 0 8.4666665 8.466667" width="32" xmlns="http://www.w3.org/2000/svg" xmlns:xlink="http://www.w3.org/1999/xlink"><linearGradient id="a" gradientTransform="matrix(.97949862 0 0 1.0018308 .347495 -.181652)" gradientUnits="userSpaceOnUse" x1="9.883268" x2="16.999222" y1="292.12424" y2="273.28015"><stop offset="0" stop-color="#b0ddf7"/><stop offset="1" stop-color="#9dd7fd" stop-opacity=".996078"/></linearGradient><filter id="b" color-interpolation-filters="sRGB" height="1.055376" width="1.042358" x="-.021179" y="-.027688"><feGaussianBlur stdDeviation=".57555788"/></filter><linearGradient id="c" gradientUnits="userSpaceOnUse" x1="66.334534" x2="69.518967" y1="114.51981" y2="50.775654"><stop offset="0" stop-color="#deeef9"/><stop offset="1" stop-color="#deeef9" stop-opacity="0"/></linearGradient><filter id="d" color-interpolation-filters="sRGB" height="1.047341" width="1.150274" x="-.075137" y="-.023671"><feGaussianBlur stdDeviation=".83043266"/></filter><radialGradient id="e" cx="14.487545" cy="280.09064" gradientTransform="matrix(-.66030771 3.8898645 -1.8332442 -.31119472 537.52832 309.99432)" gradientUnits="userSpaceOnUse" r="1.964281"><stop offset="0" stop-color="#eff9fc"/><stop offset="1" stop-color="#eff9fc" stop-opacity=".474265"/></radialGradient><filter id="f" color-interpolation-filters="sRGB" height="1.365834" width="1.697748" x="-.348874" y="-.182917"><feGaussianBlur stdDeviation=".53227701"/></filter><clipPath id="g"><path d="m65.137697 6.7616788c.223762 13.9853522-5.123291 27.9058412-12.178817 39.3550662a.77490083.77490083 0 0 1 -.01505.01544c-2.52741 3.927706-7.271598 10.354917-11.500538 16.941801-4.228943 6.586882-7.898118 13.399919-8.297574 17.605021a.77490083.77490083 0 0 1 -.01509.09029c-2.375745 10.650719.0038 19.779703 5.576932 26.196503 5.573193 6.41679 14.385982 10.14624 25.020835 9.79734a.77490083.77490083 0 0 1 .06783 0c12.595059.70999 21.436326-2.84088 26.611018-9.1266 5.174688-6.28571 6.748136-15.413503 4.461546-26.098525-5.334818-17.664836-17.557643-29.716471-22.986001-49.378493l.05275.135824c-.196793-.402532-.361672-.965044-.602914-1.823822-.241241-.858739-.528918-1.961808-.844076-3.225549-.630309-2.527522-1.373948-5.696116-2.08758-8.802511-1.362823-5.932342-2.497598-11.1186559-2.607592-11.6211274z"/></clipPath><linearGradient id="h" gradientUnits="userSpaceOnUse" x1="11.867569" x2="16.233906" y1="266.29752" y2="294.4978"><stop offset="0" stop-color="#226fad"/><stop offset="1" stop-color="#1d5e92"/></linearGradient><g fill-rule="evenodd" transform="matrix(.25 0 0 .25 0 -65.78333)"><path d="m17.027668 264.54301a.45639329.45639329 0 0 0 -.451488.47253c.115073 3.51755-1.246082 7.10967-3.064759 10.06091-.629421.97735-1.866917 2.65393-2.976757 4.38286-1.1092121 1.72797-2.1130073 3.46432-2.2478735 4.84585-.6360161 2.91086.019342 5.5008 1.5974244 7.31754 1.5841291 1.8237 4.0706791 2.85463 6.9865801 2.7625 3.390985.18489 5.919805-.78907 7.413197-2.60372 1.497589-1.81974 1.913023-4.41625 1.291331-7.32137a.45639329.45639329 0 0 0 -.0096-.0363c-1.435608-4.77183-4.596529-7.87072-5.955428-12.79278a.45639329.45639329 0 0 0 -.03061-.0803c.01034.0212-.05337-.14966-.112873-.36158-.0595-.2119-.133516-.49289-.214265-.81688-.161498-.64797-.353181-1.46764-.537576-2.27083-.368791-1.60638-.705928-3.14893-.705928-3.14893a.45639329.45639329 0 0 0 -.40366-.35775l-.531837-.0498a.45639329.45639329 0 0 0 -.04591-.002z" fill="url(#h)"/><path d="m17.228516 265.2207c.05799 3.62443-1.327747 7.23205-3.15625 10.19922a.20082253.20082253 0 0 1 -.0039.004c-.655001 1.0179-1.8845 2.68357-2.980468 4.39062-1.0959688 1.70705-2.0468686 3.47271-2.150391 4.5625a.20082253.20082253 0 0 1 -.00391.0234c-.6156958 2.76023.0009693 5.12609 1.445312 6.78906 1.444343 1.66297 3.728257 2.62949 6.484375 2.53907a.20082253.20082253 0 0 1 .01758 0c3.264123.184 5.555417-.73624 6.896485-2.36524 1.341067-1.629 1.74884-3.99455 1.15625-6.76367-1.382569-4.578-4.550224-7.70129-5.957032-12.79688l.01367.0352c-.051-.10432-.09373-.2501-.15625-.47266-.06252-.22255-.137074-.50842-.21875-.83593-.16335-.65503-.356071-1.4762-.541015-2.28125-.353188-1.53742-.647275-2.8815-.675781-3.01172z" fill="url(#a)"/><path clip-path="url(#g)" d="m89.949219 67.740234c1.43464 3.218615 2.719778 6.561068 3.740234 10.144532 4.393686 21.690784-6.013029 37.606724-30.171875 36.167964-20.502837.71067-34.281342-15.229438-29.699219-36.931636.09445-1.050489 6.00553-12.092257 6.400468-13.351211-1.195998 2.60891-7.658846 14.869665-7.84578 16.837539-4.84089 21.702198 9.716254 37.642308 31.376953 36.931638 25.523172 1.43876 36.51876-14.47718 31.876953-36.167966-1.472549-4.894632-3.463589-9.344025-5.677734-13.63086z" fill="url(#c)" filter="url(#b)" transform="matrix(.25915901 0 0 .25915901 .347495 263.46835)"/><path d="m65.736328 16.472656c.183282 5.602538 2.431419 5.934678.784833 11.336475.872955 3.678439.980941 8.024373 1.289786 8.656143 4.563462 16.529273 13.5354 23.563517 18.11082 38.771806 2.792003 13.046799 7.011852 20.808167-3.190928 25.43454 13.211362-6.585596 8.019214-12.892917 9.53088-20.150136-4.575421-15.208289-14.956069-25.414087-19.519531-41.943359-.845503-1.72955-5.263672-21.943359-5.263672-21.943359z" fill="#6ec4f2" fill-opacity=".996078" filter="url(#d)" transform="matrix(.25915901 0 0 .25915901 .347495 263.46835)"/><path d="m13.32479 284.607c.833583-.43064 3.667197-5.50301 2.981771-5.77718.167563-1.17294-2.443287-1.62625-2.70223-.74544-.186361.37272-.372722 1.3977-.652263 2.14314-.279541.74545-.18636 1.77043-.18636 2.23633s.559082 2.14315.559082 2.14315z" fill="url(#e)" filter="url(#f)" transform="matrix(.97949862 0 0 .97949862 .347495 5.729629)"/></g></svg>