<svg height="32" viewBox="0 0 8.4666665 8.466667" width="32" xmlns="http://www.w3.org/2000/svg" xmlns:xlink="http://www.w3.org/1999/xlink"><linearGradient id="a" gradientUnits="userSpaceOnUse" x1="15.874999" x2="16.933332" y1="292.76666" y2="268.42499"><stop offset="0" stop-color="#555"/><stop offset="1"/></linearGradient><linearGradient id="b" gradientTransform="matrix(.21702136 0 0 .2614866 -3.392044 .559566)" gradientUnits="userSpaceOnUse" x1="37.670307" x2="36.798912" y1="8.943642" y2="84.496201"><stop offset="0" stop-color="#3b3e22"/><stop offset="1" stop-color="#454545" stop-opacity="0"/></linearGradient><linearGradient id="c" gradientUnits="userSpaceOnUse" x1="171.13498" x2="171.13498" y1="34.230507" y2="27.340368"><stop offset="0" stop-color="#06f"/><stop offset="1" stop-color="#80b3ff"/></linearGradient><path d="m11.873164 279.23357 10.523815.0181v-7.18608c0-1.3335-.185208-2.18546-.555625-2.55587-.370417-.39511-1.271764-.65441-2.704041-.77788v-.70379h10.297583v.70379c-1.432277.12347-2.333624.38277-2.704041.77788-.370417.37041-.555626 1.22237-.555626 2.55587v16.4465c0 1.30881.197556 2.16077.592667 2.55588s1.284111.6544 2.667.77787v.70379h-10.297583v-.70379c1.432277-.0988 2.333624-.35807 2.704041-.77787.370417-.41981.555625-1.40759.555625-2.96334v-7.22312l-10.523815-.0181v7.63058c0 1.30881.197556 2.16077.592667 2.55588s1.284111.6544 2.667.77787v.70379h-10.2975834v-.70379c1.4322778-.0988 2.333625-.35807 2.7040417-.77787.3704167-.41981.555625-1.40759.555625-2.96334v-16.03904c0-1.3335-.1852083-2.18546-.555625-2.55587-.3704167-.39511-1.2717639-.65441-2.7040417-.77788v-.70379h10.2975834v.70379c-1.432278.12347-2.333625.38277-2.704042.77788-.370416.37041-.555625 1.22237-.555625 2.55587z" fill="url(#a)" stroke-width=".879992" transform="matrix(.20505956 0 0 .24707396 -.848011 -64.8735)"/><path d="m10.824219 23.058594c.418749.341854.996184.470193 1.349609.919922 2.080216 2.537234 2.367188 6.220535 2.367188 11.43164v33.757813a58.44068 40.81356 0 0 0 7.18164 2.234375v-3.060547a2.2665299 2.7309164 0 0 1 2.271485-2.728516l32.623047.06445a2.2665299 2.7309164 0 0 1 2.257812 2.728519v3.892578a58.44068 40.81356 0 0 0 7.1875-1.888672v-34.927734c0-5.208416.275622-8.895496 2.361328-11.439453.355112-.451858.936839-.577396 1.357422-.919922h-14.623047c.420586.342526 1.000357.468064 1.355469.919922 2.085709 2.543995 2.361328 6.231037 2.361328 11.439453v26.839844a2.2665299 2.7309164 0 0 1 -2.269531 2.728515l-32.625-.06445a2.2665299 2.7309164 0 0 1 -2.257813-2.728519v-26.847656c0-5.211105.286972-8.894406 2.367188-11.43164.353425-.449729.932814-.578068 1.351562-.919922z" fill="url(#b)" opacity=".75" transform="scale(.06614584)"/><g transform="matrix(.49087565 0 0 .49087565 -79.50961 -8.708788)"><path d="m168.99159 34.803917v-.607358h1.0142v-2.792683l-.98223.61317v-.642231l1.02582-.665478h.773v3.487222h.93865v.607358z" stroke="url(#c)" stroke-linejoin="round" stroke-width="2" transform="scale(1.0236449 .97690126)"/><path d="m173.08002 34v-.593329h.99078v-2.728176l-.95955.599007v-.627396l1.00213-.650106h.75515v3.406671h.91696v.593329z" fill="#bfd9ff"/></g></svg>