<svg height="32" viewBox="0 0 32 32" width="32" xmlns="http://www.w3.org/2000/svg" xmlns:xlink="http://www.w3.org/1999/xlink"><radialGradient id="a" cx="129.3913" cy="145.48148" fx="129.3913" fy="145.48148" gradientTransform="matrix(.9787234 0 0 .9818182 1.361704 61.16364)" gradientUnits="userSpaceOnUse" r="139.55859" xlink:href="#b"/><radialGradient id="b" cx="102" cy="112.3047" gradientUnits="userSpaceOnUse" r="139.55859"><stop offset="0" stop-color="#c3c4c6"/><stop offset=".11366145" stop-color="#c5c6c7"/><stop offset=".20296688" stop-color="#ececec"/><stop offset=".2363" stop-color="#fafafa"/><stop offset=".2722" stop-color="#fff"/><stop offset=".5313" stop-color="#fafafa"/><stop offset=".8449" stop-color="#ebecec"/><stop offset="1" stop-color="#e1e2e3"/></radialGradient><radialGradient id="c" cx="136.000002" cy="200.000003" fx="136.000002" fy="200.000003" gradientUnits="userSpaceOnUse" r="139.5585" xlink:href="#d"/><radialGradient id="d" cx="102" cy="112.3047" gradientUnits="userSpaceOnUse" r="139.5585"><stop offset="0" stop-color="#00537d"/><stop offset=".0151" stop-color="#186389"/><stop offset=".0558" stop-color="#558ca8"/><stop offset=".0964" stop-color="#89afc3"/><stop offset=".1357" stop-color="#b3ccd8"/><stop offset=".1737" stop-color="#d4e2e9"/><stop offset=".2099" stop-color="#ecf2f5"/><stop offset=".2435" stop-color="#fafcfd"/><stop offset=".2722" stop-color="#fff"/></radialGradient><filter id="e"><feGaussianBlur stdDeviation="1.0394514"/></filter><filter id="f"><feGaussianBlur stdDeviation=".50063244"/></filter><radialGradient id="g" cx="136.000002" cy="120.000003" fx="136.000002" fy="120.000003" gradientUnits="userSpaceOnUse" r="139.5585" xlink:href="#d"/><radialGradient id="h" cx="129.3913" cy="145.48148" fx="129.3913" fy="145.48148" gradientTransform="matrix(.9787234 0 0 .9818182 1.361704 -18.83636)" gradientUnits="userSpaceOnUse" r="139.55859" xlink:href="#b"/><linearGradient id="i" gradientTransform="matrix(0 .49928121 .49928121 0 35.504266 79.472236)" gradientUnits="userSpaceOnUse" x1="113.15723" x2="51.728821" y1="25.786163" y2="25.786163"><stop offset="0" stop-color="#0968ef"/><stop offset="1" stop-color="#aecffc"/></linearGradient><clipPath id="j"><rect height="63" rx=".000002" ry="1.567624" width="110" x="10"/></clipPath><clipPath id="k"><rect height="68" rx=".000002" ry="1.61739" width="104" x="12" y="60"/></clipPath><g transform="scale(.25)"><g clip-path="url(#j)"><path d="m23 20.586207.04083 57.931075 95.37318.186c.37501-.375.586-.884.586-1.414l-.00001-56.703075z" filter="url(#e)" opacity=".306849" transform="matrix(1.0416667 0 0 1.0357143 -9.958333 -23.32153)"/><path d="m24.919999 24.448377v52.137935h91.574001c.375-.375.586-.884.586-1.414v-50.723935z" filter="url(#f)" opacity=".89589" transform="matrix(1.0416667 0 0 1.0357143 -9.958333 -23.32153)"/><path d="m23 21.551724.04087 56.965548 95.37318.47566c.375-.375.586-.88401.586-1.41401v-56.027163h-95.999996l-.00005-.000035z" filter="url(#e)" opacity=".306849" transform="matrix(1.0416667 0 0 1.0357143 -9.958333 -23.32153)"/><path d="m16.000002.000004v55.999996h95.413988c.375-.375.586-.884.586-1.414v-54.585996z" fill="url(#g)"/><path d="m19 0v53.017578c0 .54197.43924.982422.978516.982422l89.734374-.01953c.18303-.183601.28711-.435141.28711-.693361v-53.287109z" fill="url(#h)"/></g><g clip-path="url(#k)"><path d="m23 7.0689658.04083 65.6552132 95.37318.186c.37501-.375.586-.884.586-1.414l-.00001-64.4272132z" filter="url(#e)" opacity=".306849" transform="matrix(1.0416667 0 0 1.0357143 -9.958333 56.67847)"/><path d="m24.919999 10.931136v59.862073h91.574001c.375-.375.586-.884.586-1.414v-58.448073z" filter="url(#f)" opacity=".89589" transform="matrix(1.0416667 0 0 1.0357143 -9.958333 56.67847)"/><path d="m23 8.0344828.04087 64.6896862 95.37318.47566c.375-.375.586-.88401.586-1.41401v-63.7513012h-95.999996l-.00005-.000035z" filter="url(#e)" opacity=".306849" transform="matrix(1.0416667 0 0 1.0357143 -9.958333 56.67847)"/><path d="m16.000002 66.000004v63.999996h95.413988c.375-.375.586-.884.586-1.414v-62.585996z" fill="url(#c)"/><path d="m109.02148 70-89.042964.0078c-.539276.000012-.978516.439499-.978516.980481v56.029299c0 .54197.43924.98242.978516.98242l89.734374-.0195c.18303-.18363.28711-.43517.28711-.69339v-56.304688c0-.540982-.43827-.982422-.97852-.982422z" fill="url(#a)"/></g><g fill-rule="evenodd"><g transform="matrix(1.44 0 0 1.44 -7.27636 -150.17412)"><path d="m56.890625.47460938a4.3279265 4.3279265 0 0 0 -.123047 1.00195312v26.5800785l-1.951172-1.271485a4.3279265 4.3279265 0 0 0 -5.445312.591797l-2.833985 2.878906a4.3279265 4.3279265 0 0 0 -.240234 5.804688l14.355469 17.236328a4.3279265 4.3279265 0 0 0 3.427734 1.554687 4.3279265 4.3279265 0 0 0 3.21875-1.550781l14.398438-17.234375a4.3279265 4.3279265 0 0 0 -.330078-5.90625l-3.015626-2.878906a4.3279265 4.3279265 0 0 0 -5.376953-.478516l-1.789062 1.183594v-26.5097655a4.3279265 4.3279265 0 0 0 -.123047-1.00195312z" fill="#fff" opacity=".760563" transform="matrix(.69444444 0 0 .69444444 5.053028 104.28758)"/><path d="m49.484146 139.38599-9.98563-11.98275 1.98457-1.98456 6.00393 3.89376.006-24h3.99425l-.006 24 5.90345-3.89376 2.08505 1.98456-9.98563 11.98275z" fill="url(#i)"/></g><g transform="matrix(1.44 0 0 -1.44 -7.27636 272.17412)"><path d="m9.9277344 54.933594a3.0055045 3.0055045 0 0 0 -2.234375 1.076172l-10 11.96875a3.0055045 3.0055045 0 0 0 .2304687 4.101562l2.09375003 2a3.0055045 3.0055045 0 0 0 3.73437497.332031l1.2421875-.822265v18.410156a3.0055045 3.0055045 0 0 0 3.0058594 3.005859h4a3.0055045 3.0055045 0 0 0 3.005859-3.005859v-18.458984l1.355469.882812a3.0055045 3.0055045 0 0 0 3.78125-.410156l1.96875-2a3.0055045 3.0055045 0 0 0 .166016-4.03125l-9.96875-11.96875a3.0055045 3.0055045 0 0 0 -2.3808596-1.080078z" fill="#fff" opacity=".760563" transform="matrix(-1 0 0 -1 59.481266 197.312436)"/><path d="m49.484146 139.38599-9.98563-11.98275 1.98457-1.98456 6.00393 3.89376.006-24h3.99425l-.006 24 5.90345-3.89376 2.08505 1.98456-9.98563 11.98275z" fill="url(#i)"/></g></g></g></svg>