<svg height="32" viewBox="0 0 8.4666665 8.4666669" width="32" xmlns="http://www.w3.org/2000/svg" xmlns:xlink="http://www.w3.org/1999/xlink"><linearGradient id="a"><stop offset="0" stop-color="#555"/><stop offset="1"/></linearGradient><linearGradient id="b" gradientUnits="userSpaceOnUse" x1="3.759599" x2="3.759599" xlink:href="#a" y1="292.239361" y2="289.531209"/><linearGradient id="c" gradientUnits="userSpaceOnUse" x1="3.96875" x2="4.233333" xlink:href="#a" y1="296.470833" y2="293.295813"/><linearGradient id="d" gradientUnits="userSpaceOnUse" x1="7.9375" x2="7.9375" xlink:href="#a" y1="290.64999" y2="290.12082"/><g transform="translate(0 -288.53332)"><g fill="url(#b)" stroke-width=".117595"><path d="m4.3017757 292.16084v.0894h-1.1994733v-.0894q.1881527-.005.2587099-.0376.070557-.0329.070557-.1223 0-.11289-.089373-.31515l-.1928557-.4516h-1.2324001l-.2163755.55035q-.037631.0988-.037631.18344 0 .19286.3198596.19286v.0894h-.9313554v-.0894q.1740413-.009.2681176-.13171.09878-.127.3151557-.63971l.9783939-2.30958h.094076l1.1712504 2.67177q.1128916.25871.1881527.32927.075261.0706.2351908.08zm-2.3048703-1.11951h1.0865817l-.5456427-1.29355z"/><path d="m7.1508922 291.40353q0 .14111-.051742.27752-.051742.13641-.1740412.27282-.1175955.13171-.3527863.21638-.2351908.08-.5597542.08h-1.5710749v-.0894q.2916367-.009.3716016-.0847.079965-.0753.079965-.33867v-2.0885q0-.25871-.079965-.32926-.075261-.0753-.3716016-.0941v-.0894h1.3170688q1.2324 0 1.2324.79965 0 .15522-.056446.27752-.056446.1176-.1175954.18345-.056446.0611-.1787451.1176-.1222992.0564-.1552259.0659-.032927.005-.1364107.0329.1081878.0282.1599298.0423.056446.0141.1975603.08.1458183.0659.2257832.14112.079965.0753.1505221.21637.070557.13642.070557.31046zm-1.4817023.67264q.2116717 0 .3668977-.0282.1552259-.0282.2916366-.0941.1364107-.0705.206968-.20696.075261-.13642.075261-.33868 0-.19286-.075261-.32456-.070557-.13641-.1740413-.20697-.1034839-.0706-.2869328-.10819-.1834489-.0376-.3245634-.0423-.1411145-.009-.3763053-.009v1.16655q0 .11289.06115.15522.06115.0376.2351909.0376zm-.2963405-1.54755h.4468626q.3292672 0 .5080122-.14582.1834489-.15052.1834489-.42805 0-.31515-.2116718-.47979-.2116717-.16463-.6162-.16463h-.2069679q-.103484 0-.103484.14111z"/></g><g fill="url(#c)" stroke-width=".119901"><path d="m1.0581094 294.92218q0-.74818.4604201-1.2134.4604201-.47001 1.1462541-.47001.3069468 0 .5755251.0815.2685784.0767.3117428.0767.1582694 0 .2014338-.15827h.1007169l.043164 1.08391h-.110309q-.2637824-.89207-1.0311491-.89207-.5227687 0-.8345114.38848-.3069468.38848-.3069468 1.04074 0 .41726.105513.72421.110309.30215.2925586.46042.1822496.15347.3740913.22541.1966377.0671.4172557.0671.565933 0 1.0695174-.4844l.086329.0863q-.2206179.29256-.561137.45083-.340519.15827-.7481826.15827-.7098143 0-1.1510502-.44603-.4412359-.44603-.4412359-1.17983z"/><path d="m7.3837148 294.87902q0 .21582-.04796.42205-.04796.20623-.1774536.42685-.1294931.22062-.3309269.38368-.2014338.15827-.5371568.26378-.3309269.10552-.7529786.10552h-1.3620765v-.0911q.2733744-.0192.3453151-.0959.076737-.0767.076737-.33572v-2.12945q0-.26378-.071941-.33572-.067145-.0719-.3501111-.0959v-.0911h1.2949315q.4364398 0 .7769588.10071.3453151.0959.5515449.25419.2110259.15348.3453151.3693.1390852.21102.1870456.41725.052757.20623.052757.43165zm-.5227686.0336q0-.20623-.043164-.39328-.038368-.19184-.1438813-.38368-.1055129-.19664-.2733744-.33572-.1678615-.13909-.4412359-.22542-.2733744-.0911-.6234855-.0911-.1486773 0-.2014338.0384-.04796.0384-.04796.14868v2.43638q0 .11511.052756.15827.052757.0384.1966378.0384 1.5251415 0 1.5251415-1.39085z"/></g><path d="m7.408333 290.12082h1.058333v.264583h-1.058333z" fill="url(#d)"/></g></svg>