<svg height="32" width="32" xmlns="http://www.w3.org/2000/svg" xmlns:xlink="http://www.w3.org/1999/xlink"><linearGradient id="a" gradientTransform="matrix(1.0384874 0 0 .91306627 2.461539 10.953601)" gradientUnits="userSpaceOnUse" x1="46.048" x2="46.048" y1="128.01709" y2="16.6203"><stop offset="0" stop-color="#c7cdd7"/><stop offset="1" stop-color="#fff"/></linearGradient><linearGradient id="b" gradientUnits="userSpaceOnUse" x1="120" x2="120" y1="-32.325989" y2="104.05867"><stop offset="0" stop-color="#fff"/><stop offset="1" stop-color="#555"/></linearGradient><g transform="scale(.25)"><path d="m8 28h108v76h-108z" fill="url(#a)"/><path d="m4 24v4 16 4 16 4 16 4 16 4h4 20 4 64 20 4v-4-16-4-16-4-16-4-16-4h-4-20-4-32-28-4-20zm4 4h20v16h-20zm24 0h28 4 28v16h-28-4-28zm64 0h20v16h-20zm-88 20h20v16h-20zm24 0h60v16h-60zm64 0h20v16h-20zm-88 20h20v16h-20zm24 0h60v16h-60zm64 0h20v16h-20zm-88 20h20v16h-20zm24 0h28 4 28v16h-28-4-28zm64 0h20v16h-20z" fill="url(#b)"/><g fill="#8b7c8e"><circle cx="83.967072" cy="35.967068" r="4.032932"/><circle cx="83.945625" cy="56.005337" r="4.032932"/><circle cx="84.018196" cy="76.032883" r="4.032932"/><circle cx="84.009964" cy="96.019371" r="4.032932"/></g><circle cx="41.967072" cy="35.967068" fill="#06f" r="6.154253"/><circle cx="41.967072" cy="55.967068" fill="#fd0" r="6.154253"/><circle cx="41.967072" cy="75.967072" fill="#b14f9a" r="6.154253"/><circle cx="41.967072" cy="95.967072" fill="#80b3ff" r="6.154253"/></g></svg>