<svg height="32" width="32" xmlns="http://www.w3.org/2000/svg" xmlns:xlink="http://www.w3.org/1999/xlink"><linearGradient id="a"><stop offset="0" stop-color="#fff"/><stop offset="1" stop-color="#fff" stop-opacity="0"/></linearGradient><linearGradient id="b" gradientUnits="userSpaceOnUse" x1="70" x2="130" y1="98" y2="98"><stop offset="0" stop-color="#066704"/><stop offset="1" stop-color="#077d05" stop-opacity=".839216"/></linearGradient><radialGradient id="c" cx="108.95794" cy="91.491646" gradientTransform="matrix(1.0783631 -.16325698 .14968763 .98873334 -23.191389 17.327301)" gradientUnits="userSpaceOnUse" r="30" xlink:href="#d"/><linearGradient id="d"><stop offset="0" stop-color="#011701"/><stop offset=".80671918" stop-color="#145703"/><stop offset="1" stop-color="#2fa207" stop-opacity=".384314"/></linearGradient><radialGradient id="e" cx="92.257149" cy="104.91638" gradientTransform="matrix(1.0783631 -.16325698 .14968763 .98873334 -23.191389 17.327301)" gradientUnits="userSpaceOnUse" r="30" xlink:href="#d"/><linearGradient id="f" gradientTransform="scale(1.0975951 .9110828)" gradientUnits="userSpaceOnUse" x1="26.091133" x2="31.500689" xlink:href="#a" y1="14.856744" y2="14.856744"/><filter id="g" height="1.277481" width="1.279832" x="-.139916" y="-.138741"><feGaussianBlur stdDeviation=".28784801"/></filter><linearGradient id="h" gradientUnits="userSpaceOnUse" x1="304.88663" x2="345.62039" y1="385.86127" y2="384.62384"><stop offset="0" stop-color="#fff" stop-opacity=".683453"/><stop offset="1" stop-color="#fff" stop-opacity="0"/></linearGradient><radialGradient id="i" cx="96" cy="102" gradientUnits="userSpaceOnUse" r="26"><stop offset="0" stop-color="#7ae91e" stop-opacity=".996078"/><stop offset="1" stop-color="#62c916"/></radialGradient><linearGradient id="j" gradientUnits="userSpaceOnUse" x1="93.673332" x2="105.63081" xlink:href="#a" y1="57.081059" y2="114.86784"/><filter id="k" color-interpolation-filters="sRGB" height="1.048" width="1.048" x="-.024" y="-.024"><feGaussianBlur stdDeviation=".52"/></filter><linearGradient id="l" gradientUnits="userSpaceOnUse" spreadMethod="reflect" x1="88.606247" x2="91.575104" y1="13.510336" y2="13.510336"><stop offset="0" stop-color="#c8ff87"/><stop offset="1" stop-color="#abff87" stop-opacity="0"/></linearGradient><linearGradient id="m" gradientUnits="userSpaceOnUse" spreadMethod="reflect" x1="31.606251" x2="34.575108" y1="13.510336" y2="13.510336"><stop offset="0" stop-color="#fff"/><stop offset="1" stop-color="#790000" stop-opacity="0"/></linearGradient><filter id="n"><feGaussianBlur stdDeviation="1.177891"/></filter><linearGradient id="o" gradientTransform="matrix(.03036425 0 0 .04391512 28.890064 66.696083)" gradientUnits="userSpaceOnUse" x1="-333.0289" x2="-333.0289" y1="-1473.6504" y2="-776.61371"><stop offset="0" stop-color="#fff"/><stop offset=".49140647" stop-color="#fff"/><stop offset="1" stop-color="#dcdcdc"/></linearGradient><linearGradient id="p" gradientTransform="matrix(.03036425 0 0 .04391512 -.97068 -22.132443)" gradientUnits="userSpaceOnUse" x1="399.77466" x2="399.77466" y1="727.07941" y2="480.60214"><stop offset="0" stop-color="#cbcbcd"/><stop offset=".5" stop-color="#e0e0e2"/><stop offset="1" stop-color="#f2f2f2"/></linearGradient><path d="m83.772 239.27611h119.71329c1.18742 0 2.14336 1.12849 2.14336 2.53025v100.56093c0 1.40175-.95594 2.53025-2.14336 2.53025h-119.71329c-1.187418 0-2.143353-1.1285-2.143353-2.53025v-100.56093c0-1.40176.955935-2.53025 2.143353-2.53025z" filter="url(#n)" opacity=".5" transform="matrix(.25 0 0 .24616218 -19.907163 -57.400725)"/><g stroke-width=".25"><path d="m2.0185523 2.000005h27.9628867c.28728 0 1.018553.7730225 1.018553 1.1121575v23.2756795c0 .339135-.231273.612158-.518553.612158h-28.9628867c-.2872783 0-.51855305-.273023-.51855305-.612158v-23.2756795c0-.339135.73127475-1.1121575 1.01855305-1.1121575z" fill="url(#p)"/><path d="m2.015625 2.0000075c-.3585853-.06125-1.20385025.60856-1.015625 1.1093725v23.281245c0 .339138.2283465.609375.515625.609375h28.968749c.287283 0 .515625-.270237.515625-.609375v-23.281245c.078395-.3913975-.630417-1.174655-1.015625-1.1093725zm-.1484375.9140625h28.2656245c.272915 0 .492188.256015.492188.57422v22.562492c0 .318201-.219273.574218-.492188.574218h-28.2656245c-.2729143 0-.4921875-.256017-.4921875-.574218v-22.562492c0-.318205.2192732-.57422.4921875-.57422z" fill="url(#o)"/><path d="m1 11h29.999999v16h-29.999999z" fill="#fff"/></g><g fill="#cbcbcd"><path d="m8 13h20v1h-20z"/><path d="m4 13h2v2h-2z"/><path d="m8 17h20v1h-20z"/><path d="m4 17h2v2h-2z"/><path d="m8 21h20v1h-20z"/><path d="m4 21h2v2h-2z"/></g><g transform="matrix(.25 0 0 .25 -1.000001 -.5)"><path d="m96 68a4.0004 4.0004 0 0 0 -4 4v18h-18a4.0004 4.0004 0 0 0 -4 4v8a4.0004 4.0004 0 0 0 4 4h18v18a4.0004 4.0004 0 0 0 4 4h8a4.0004 4.0004 0 0 0 4-4v-18h18a4.0004 4.0004 0 0 0 4-4v-8a4.0004 4.0004 0 0 0 -4-4h-18v-18a4.0004 4.0004 0 0 0 -4-4z" fill="url(#b)"/><path d="m96 68a4.0004 4.0004 0 0 0 -4 4v18h-18a4.0004 4.0004 0 0 0 -4 4v8a4.0004 4.0004 0 0 0 4 4h18v18a4.0004 4.0004 0 0 0 4 4h8a4.0004 4.0004 0 0 0 4-4v-18h18a4.0004 4.0004 0 0 0 4-4v-8a4.0004 4.0004 0 0 0 -4-4h-18v-18a4.0004 4.0004 0 0 0 -4-4z" fill="url(#c)"/><path d="m96 68a4.0004 4.0004 0 0 0 -4 4v18h-18a4.0004 4.0004 0 0 0 -4 4v8a4.0004 4.0004 0 0 0 4 4h18v18a4.0004 4.0004 0 0 0 4 4h8a4.0004 4.0004 0 0 0 4-4v-18h18a4.0004 4.0004 0 0 0 4-4v-8a4.0004 4.0004 0 0 0 -4-4h-18v-18a4.0004 4.0004 0 0 0 -4-4z" fill="url(#e)"/><path d="m31.7 16 2.875-3.375c-1.051205-1.695758-3.935136-2.288018-5.9375-.3125l2.8125 3.375z" fill="url(#f)" fill-rule="evenodd" filter="url(#g)" opacity=".790262" transform="matrix(-.60073019 -.60073019 .59501648 -.59501648 106.15853 151.49848)"/><path d="m31.7 16 2.875-3.375c-1.051205-1.695758-3.935136-2.288018-5.9375-.3125l2.8125 3.375z" fill="url(#h)" fill-rule="evenodd" filter="url(#g)" opacity=".498127" transform="matrix(-.54559305 .54559305 -.55083218 -.55083218 129.81694 114.94021)"/><path d="m96 72v22h-22v8h22v22h8v-22h22v-8h-22v-22z" fill="url(#i)"/><path d="m96 72v21.224609.775391h-22v5.835938c5.252313.784812 12.103279 1.193282 17.28125 1.203122 12.42654-.0162 24.54521-2.29327 34.71875-6.523435v-.515625h-22v-22z" fill="url(#j)"/><path d="m96 72v22h-22v8h22v22h8v-22h22v-8h-22v-22z" style="fill:none;stroke:#eef4ca;stroke-width:.8;stroke-linecap:square;stroke-linejoin:round;stroke-opacity:.780392;filter:url(#k)"/><g fill-rule="evenodd"><path d="m31.7 16 2.875-3.375c-1.051205-1.695758-3.935136-2.288018-5.9375-.3125l2.8125 3.375z" fill="url(#f)" filter="url(#g)" opacity=".498127" transform="matrix(-.60249952 .60249952 .60828509 .60828509 83.418893 65.879107)"/><path d="m88.7 16 2.875-3.375c-1.051205-1.695758-3.935136-2.288018-5.9375-.3125l2.8125 3.375z" fill="url(#l)" filter="url(#g)" opacity=".790262" transform="matrix(-.55083218 -.55083218 .54559305 -.54559305 113.52649 159.24703)"/><path d="m31.7 16 2.875-3.375c-1.051205-1.695758-3.935136-2.288018-5.9375-.3125l2.8125 3.375z" fill="url(#m)" filter="url(#g)" opacity=".790262" transform="matrix(-.50093417 -.50093417 -.49616964 .49616964 149.45278 101.72037)"/><path d="m88.7 16 2.875-3.375c-1.051205-1.695758-3.935136-2.288018-5.9375-.3125l2.8125 3.375z" fill="url(#l)" filter="url(#g)" opacity=".790262" transform="matrix(-.51428706 -.51428706 -.50939554 .50939554 157.72648 109.73028)"/><path d="m88.7 16 2.875-3.375c-1.051205-1.695758-3.935136-2.288018-5.9375-.3125l2.8125 3.375z" fill="url(#l)" filter="url(#g)" opacity=".790262" transform="matrix(.51428706 -.51428706 .50939554 .50939554 42.798309 109.73028)"/><path d="m31.7 16 2.875-3.375c-1.051205-1.695758-3.935136-2.288018-5.9375-.3125l2.8125 3.375z" fill="url(#m)" filter="url(#g)" opacity=".790262" transform="matrix(-.50093417 .50093417 -.49616964 -.49616964 149.45278 94.179741)"/></g></g></svg>