<svg height="32" width="32" xmlns="http://www.w3.org/2000/svg" xmlns:xlink="http://www.w3.org/1999/xlink"><filter id="a"><feGaussianBlur stdDeviation=".385"/></filter><linearGradient id="b" gradientUnits="userSpaceOnUse" x1="87.231171" x2="114.63911" y1="9.712187" y2="112"><stop offset="0" stop-color="#2c72c7"/><stop offset="1" stop-color="#00438a"/></linearGradient><linearGradient id="c" gradientUnits="userSpaceOnUse" x1="72" x2="148" y1="60" y2="60"><stop offset="0" stop-color="#bbd6ff"/><stop offset="1" stop-color="#0057ae"/></linearGradient><linearGradient id="d" gradientUnits="userSpaceOnUse" x1="124.5" x2="135.74562" y1="108.5" y2="-13.567197"><stop offset="0" stop-color="#fff"/><stop offset="1" stop-color="#fff" stop-opacity="0"/></linearGradient><linearGradient id="e" gradientTransform="matrix(0 .25 -.25 0 35.396486 -15)" gradientUnits="userSpaceOnUse" x1="60" x2="124" y1="60" y2="56"><stop offset="0" stop-color="#d4e2f3"/><stop offset="1" stop-color="#fff" stop-opacity="0"/></linearGradient><g transform="matrix(0 .25 -.25 0 34.000001 -10)"><path d="m104 120-28-28h20v-68h16v68h20z" fill="none" stroke="url(#b)" stroke-linecap="round" stroke-linejoin="round" stroke-width="8"/><path d="m104 120-28-28h20v-68h16v68h20z" fill="url(#c)" fill-rule="evenodd"/><path d="m104 120-28-28h20v-68h16v68h20z" fill="none" filter="url(#a)" opacity=".898396" stroke="url(#d)"/><path d="m11 4-7 7 .8652344.865234 1.53125.134766h3c5.9444976-.293029 15.6867656-.614857 18.2421876-3h-16.638672z" fill="url(#e)" fill-rule="evenodd" stroke-width=".25" transform="matrix(0 -4 4 0 60 136)"/></g></svg>