<svg height="32" width="32" xmlns="http://www.w3.org/2000/svg" xmlns:xlink="http://www.w3.org/1999/xlink"><linearGradient id="a"><stop offset="0" stop-color="#fff"/><stop offset="1" stop-color="#fff" stop-opacity="0"/></linearGradient><linearGradient id="b" gradientTransform="matrix(1.0384874 0 0 1.2391614 2.461539 4.865601)" gradientUnits="userSpaceOnUse" x1="46.048" x2="46.048" y1="128.01709" y2="16.6203"><stop offset="0" stop-color="#c7cdd7"/><stop offset="1" stop-color="#fff"/></linearGradient><linearGradient id="c" gradientTransform="matrix(0 1 1 0 -25.0356 8.0217)" gradientUnits="userSpaceOnUse" x1="53.332001" x2="53.332001" xlink:href="#a" y1="135.07222" y2="145.51538"/><linearGradient id="d" gradientUnits="userSpaceOnUse" x1="12.3" x2="12.3" y1="88" y2="108"><stop offset="0" stop-color="#828282"/><stop offset="1" stop-color="#828282" stop-opacity="0"/></linearGradient><linearGradient id="e" gradientTransform="matrix(0 -1.2873059 1.2873059 0 -11.716299 177.28008)" gradientUnits="userSpaceOnUse" x1="74.667397" x2="74.667397" y1="102.74789" y2="18.856129"><stop offset="0" stop-color="#0c69ed" stop-opacity="0"/><stop offset=".25242254" stop-color="#1b77ef"/><stop offset=".5" stop-color="#4aa3f6"/><stop offset="1" stop-color="#89ddff"/></linearGradient><linearGradient id="f" gradientTransform="matrix(.6442951 0 0 1 32.724854 0)" gradientUnits="userSpaceOnUse" x1="92.000008" x2="129.25002" xlink:href="#a" y1="69.875" y2="69.875"/><mask id="g" maskUnits="userSpaceOnUse"><path d="m3.750004 11.249995h112.24999v117.25001h-112.24999z" fill="url(#f)"/></mask><mask id="h" maskUnits="userSpaceOnUse"><path d="m3.500004 11.249995h112.49999v117.25001h-112.49999z" fill="url(#f)"/></mask><mask id="i" maskUnits="userSpaceOnUse"><path d="m7.000004 11.249995h105.24999v117.25001h-105.24999z" fill="url(#f)"/></mask><linearGradient id="j" gradientTransform="matrix(0 1 1 0 -29.34375 -5.34375)" gradientUnits="userSpaceOnUse" x1="64.198212" x2="30.790039" xlink:href="#k" y1="79.519829" y2="79.519829"/><linearGradient id="k"><stop offset="0" stop-color="#0968ef"/><stop offset="1" stop-color="#aecffc"/></linearGradient><linearGradient id="l" gradientTransform="matrix(0 .49928121 -.49928121 0 132.28275 14.1598)" gradientUnits="userSpaceOnUse" x1="113.15723" x2="51.728821" xlink:href="#k" y1="25.786163" y2="25.786163"/><linearGradient id="m" gradientTransform="matrix(0 1 1 0 -29.34375 -5.34375)" gradientUnits="userSpaceOnUse" x1="64.198212" x2="23.010347" xlink:href="#k" y1="79.519829" y2="79.519829"/><linearGradient id="n" gradientTransform="matrix(0 .49928121 .49928121 0 -3.709201 14.1598)" gradientUnits="userSpaceOnUse" x1="113.15723" x2="51.728821" xlink:href="#k" y1="25.786163" y2="25.786163"/><linearGradient id="o" gradientUnits="userSpaceOnUse" x1="120" x2="120" y1="-32.325989" y2="104.05867"><stop offset="0" stop-color="#fff"/><stop offset="1" stop-color="#555"/></linearGradient><filter id="p" height="1.298618" width="1.298618" x="-.149309" y="-.149309"><feGaussianBlur stdDeviation="1.7081987"/></filter><radialGradient id="q" cx="343.99899" cy="92" gradientUnits="userSpaceOnUse" r="36"><stop offset="0" stop-color="#96ff00"/><stop offset="1" stop-color="#609800"/></radialGradient><radialGradient id="r" cx="343.99899" cy="92" gradientTransform="matrix(0 1 -1 0 -39.9985 140.0029)" gradientUnits="userSpaceOnUse" r="36"><stop offset="0" stop-color="#e5ff00"/><stop offset="1" stop-color="#bff500" stop-opacity="0"/></radialGradient><linearGradient id="s" gradientTransform="matrix(0 .7388168 -.7388168 0 -1.522665 63.255682)" gradientUnits="userSpaceOnUse" x1="-80.00296" x2="-45.096584" xlink:href="#a" y1="-131.93112" y2="-131.93112"/><linearGradient id="t" gradientUnits="userSpaceOnUse" x1="96.000004" x2="96.000004" y1="58.000001" y2="5.932847"><stop offset="0" stop-color="#004d00" stop-opacity="0"/><stop offset=".5" stop-color="#004d00"/><stop offset="1" stop-color="#004d00" stop-opacity="0"/></linearGradient><filter id="u"><feGaussianBlur stdDeviation="1.04"/></filter><g transform="matrix(.25 0 0 .25 -.075 0)"><path d="m8 28h108v76h-108z" fill="url(#b)" mask="url(#i)" transform="translate(4.3)"/><path d="m12.05 48.25h2.59375 105.40425l.002 4h-104l.25 7.75h104v4h-105.40425-2.59375v-2.65625l-.252-10.40625z" fill="url(#c)"/><path d="m12.3 68v2.40625l13.5625 13.59375h3.78125l-16-16zm11.75 0 15.96875 16h3.78125l-16-16zm12.875 0 15.96875 16h3.78125l-16-16zm14.15625 0 2.3125 2.3125v.09375l13.5625 13.59375h3.875l-16-16zm14.09375 0 15.9375 16h3.875l-16-16zm12.875 0 15.9375 16h3.78125l-6.5-6.5v-.09375l-9.40625-9.40625zm14.15625 0 15.9375 16h3.78125l-16-16zm14.15625 0 15.9375 16h2.25v-1.53125l-14.4375-14.46875zm12.875 0 5.3125 5.34375v-3.78125l-1.5625-1.5625zm-106.9375 12.8125v3.1875h3.1875z" fill="url(#e)"/><path d="m4 24v4 16 4 16 4 16 4 16 4h4 24 4 24 4 24 4 24 4v-4-16-4-6.25h-4v6.25h-24v-6.25-9.75-4-16-4-6-10h24v10h4v-10-4h-4-24-4-24-4-24-4-24zm4 4h24v16h-24zm28 0h24v16h-24zm28 0h24v16h-24zm-56 20h24v16h-24zm28 0h24v16h-24zm28 0h24v16h-24zm-56 20h24v16h-24zm28 0h24v16h-24zm28 0h24v16h-24zm-56 20h24v16h-24zm28 0h24v16h-24zm28 0h24v16h-24zm28 0h24v16h-24z" fill="url(#o)" mask="url(#g)" transform="translate(4.3)"/><path d="m92.3 24h4v84h-4z" fill="#fff" opacity=".262911"/><path d="m4 44h2.59375 112.40625v4h-111v16h111v4h-115z" fill="url(#j)" mask="url(#h)" transform="translate(4.3 20)"/><path d="m8.3 88h4v20h-4z" fill="url(#d)"/><path d="m118.30287 74.07355 9.98563-11.98275-1.98457-1.98456-6.00393 3.89376-.006-24h-3.99425l.006 24-5.90345-3.89376-2.08505 1.98456 9.98563 11.98275z" fill="url(#l)" fill-rule="evenodd"/><path d="m4 24.201009h2.59375 112.40625v4h-111v35.798991h111v4h-115z" fill="url(#m)" mask="url(#h)" transform="translate(4.3 20)"/><path d="m10.340065 77.066406a3.0055045 3.0055045 0 0 0 2.234375-1.076172l10-11.96875a3.0055045 3.0055045 0 0 0 -.230469-4.101562l-2.09375-2a3.0055045 3.0055045 0 0 0 -3.734375-.332031l-1.242188.822265v-18.410156a3.0055045 3.0055045 0 0 0 -3.005859-3.005859h-4a3.0055045 3.0055045 0 0 0 -3.005859 3.005859v18.458984l-1.355469-.882812a3.0055045 3.0055045 0 0 0 -3.78125.410156l-1.96875 2a3.0055045 3.0055045 0 0 0 -.166016 4.03125l9.96875 11.96875a3.0055045 3.0055045 0 0 0 2.38086 1.080078z" fill="#fff" fill-rule="evenodd" opacity=".760563"/><path d="m10.270679 74.07355-9.9856299-11.98275 1.98457-1.98456 6.00393 3.89376.006-24h3.9942499l-.006 24 5.90345-3.89376 2.08505 1.98456-9.98563 11.98275z" fill="url(#n)" fill-rule="evenodd"/><circle cx="110.88573" cy="28.728855" filter="url(#p)" opacity=".713615" r="13.728856"/><g transform="matrix(.62943973 0 0 .62943973 47.282562 4.416498)"><g transform="matrix(.89394268 0 0 .89394268 14.232072 -.648934)"><circle cx="343.99899" cy="92" fill="url(#q)" r="36" transform="matrix(-.858425 .2300143 -.2300143 -.858425 412.45864 31.85043)"/><circle cx="343.99899" cy="92" fill="url(#r)" r="36" transform="matrix(-.6438188 .1725107 -.1725107 -.6438188 333.34401 31.887831)"/><path d="m96.000027 4.1481901c-11.345716 0-20.826095 8.0116059-23.111114 18.6782149 4.554661 4.245895 13.196893 7.111109 23.111114 7.111109 9.914233 0 18.556453-2.865214 23.111113-7.111109-2.28501-10.666609-11.7654-18.6782149-23.111113-18.6782149z" fill="url(#s)" opacity=".8"/></g><path d="m95.99999 7.9999828v16.0000002h-16v8h16v16h8v-16h16v-8h-16v-16.0000001z" style="fill:none;stroke-width:4;stroke-linecap:round;stroke-linejoin:round;stroke:url(#t);filter:url(#u)"/><path d="m96.757748 8.870591-.05564 15.971935-15.831505-.08479v6.354857h15.887144v15.887145h6.354863v-15.887145h15.88714v-6.354857h-15.88714v-15.887145z" fill="#fff" fill-rule="evenodd"/></g></g></svg>