<svg height="32" width="32" xmlns="http://www.w3.org/2000/svg" xmlns:xlink="http://www.w3.org/1999/xlink"><linearGradient id="a" gradientUnits="userSpaceOnUse" x1="70" x2="130" y1="98" y2="98"><stop offset="0" stop-color="#066704"/><stop offset="1" stop-color="#077d05" stop-opacity=".839216"/></linearGradient><radialGradient id="b" cx="108.95794" cy="91.491646" gradientTransform="matrix(1.0783631 -.16325698 .14968763 .98873334 -23.191389 17.327301)" gradientUnits="userSpaceOnUse" r="30" xlink:href="#c"/><linearGradient id="c"><stop offset="0" stop-color="#011701"/><stop offset=".80671918" stop-color="#145703"/><stop offset="1" stop-color="#2fa207" stop-opacity=".384314"/></linearGradient><radialGradient id="d" cx="92.257149" cy="104.91638" gradientTransform="matrix(1.0783631 -.16325698 .14968763 .98873334 -23.191389 17.327301)" gradientUnits="userSpaceOnUse" r="30" xlink:href="#c"/><linearGradient id="e" gradientTransform="scale(1.0975951 .9110828)" gradientUnits="userSpaceOnUse" x1="26.091133" x2="31.500689" xlink:href="#f" y1="14.856744" y2="14.856744"/><linearGradient id="f"><stop offset="0" stop-color="#fff"/><stop offset="1" stop-color="#fff" stop-opacity="0"/></linearGradient><filter id="g" height="1.277481" width="1.279832" x="-.139916" y="-.138741"><feGaussianBlur stdDeviation=".28784801"/></filter><linearGradient id="h" gradientUnits="userSpaceOnUse" x1="304.88663" x2="345.62039" y1="385.86127" y2="384.62384"><stop offset="0" stop-color="#fff" stop-opacity=".683453"/><stop offset="1" stop-color="#fff" stop-opacity="0"/></linearGradient><radialGradient id="i" cx="96" cy="102" gradientUnits="userSpaceOnUse" r="26"><stop offset="0" stop-color="#7ae91e" stop-opacity=".996078"/><stop offset="1" stop-color="#62c916"/></radialGradient><linearGradient id="j" gradientUnits="userSpaceOnUse" x1="93.673332" x2="105.63081" xlink:href="#f" y1="57.081059" y2="114.86784"/><filter id="k" color-interpolation-filters="sRGB" height="1.048" width="1.048" x="-.024" y="-.024"><feGaussianBlur stdDeviation=".52"/></filter><linearGradient id="l" gradientUnits="userSpaceOnUse" spreadMethod="reflect" x1="88.606247" x2="91.575104" y1="13.510336" y2="13.510336"><stop offset="0" stop-color="#c8ff87"/><stop offset="1" stop-color="#abff87" stop-opacity="0"/></linearGradient><linearGradient id="m" gradientUnits="userSpaceOnUse" spreadMethod="reflect" x1="31.606251" x2="34.575108" y1="13.510336" y2="13.510336"><stop offset="0" stop-color="#fff"/><stop offset="1" stop-color="#790000" stop-opacity="0"/></linearGradient><radialGradient id="n" cx="90.750004" cy="110.252967" gradientUnits="userSpaceOnUse" r="24.501278" xlink:href="#f"/><clipPath id="o"><path d="m112 82.502986c0 4.465301-2.79749 6.409952-5.27972 8.093625-5.10854 3.46508-14.939114 3.32536-20.720284 3.40638-.081 5.781159.16586 15.504599-3.29922 20.613139-1.68367 2.48224-5.29051 5.38687-8.20078 5.38687 2.31803 0 4.74284-1.33476 7.58402-4.08481 9.14197-8.84873 17.36714-16.13535 25.673154-25.297529 1.91895-2.116745 4.24283-3.641881 4.24283-8.117675z"/></clipPath><filter id="p" color-interpolation-filters="sRGB"><feGaussianBlur stdDeviation=".43040059"/></filter><linearGradient id="q" gradientTransform="matrix(1.3731411 0 0 1.4035776 -41.378546 -43.42319)" gradientUnits="userSpaceOnUse" x1="82.15696" x2="94.220871" y1="90.381706" y2="102.18401"><stop offset="0" stop-color="#fcfcfc"/><stop offset=".52275378" stop-color="#f8f8f8"/><stop offset=".72337759" stop-color="#f0efef"/><stop offset=".89024991" stop-color="#e3e1e1"/><stop offset="1" stop-color="#cecbcb"/></linearGradient><clipPath id="r"><path d="m17.000001 8 .782827 110h57.5c1.675283 0 3.119418.18058 4.9-1.6 8.797935-8.79794 19.757642-19.851805 27.016212-27.175957 2.44056-2.462612 2.80096-4.47117 2.80096-6.724043v-74.5z"/></clipPath><radialGradient id="s" cx="64" cy="64.004021" fx="63.793392" fy="47.274845" gradientTransform="matrix(1.7069944 -.08541345 .06979496 1.3941371 -50.362376 -20.218185)" gradientUnits="userSpaceOnUse" r="47.5" xlink:href="#f"/><filter id="t" color-interpolation-filters="sRGB" height="2.025501" width="1.957419" x="-.478709" y="-.512751"><feGaussianBlur stdDeviation="10.140743"/></filter><linearGradient id="u" gradientTransform="matrix(1.013528 0 0 1.013266 -1.513369 -1.307365)" gradientUnits="userSpaceOnUse" x1="72" x2="72" y1="0" y2="116.40091"><stop offset="0" stop-color="#eeecec"/><stop offset=".40000001" stop-color="#f4f4f4"/><stop offset="1" stop-color="#f6f5f5"/></linearGradient><filter id="v"><feGaussianBlur stdDeviation="2.028"/></filter><filter id="w" height="1.408259" width="1.329301" x="-.164651" y="-.20413"><feGaussianBlur stdDeviation="4.2234282"/></filter><filter id="x"><feGaussianBlur stdDeviation="1.4598961"/></filter><clipPath id="y"><path d="m18.5 10.000003c-.339844 0-.5.234618-.5.5v109.718757c0 .82158.679616 1.47823 1.5 1.5l55.5 1.47255c.05305.001 3.273884-.008 3.9635.00005 6.540972-4.50366 20.6373-19.95333 29.58253-28.955137 1.47685-1.65649.4576-.37007 1.45391-1.60746l.00006-82.12876c0-.322717-.16322-.5-.5-.5z"/></clipPath><filter id="z" color-interpolation-filters="sRGB"><feGaussianBlur stdDeviation="1.56"/></filter><linearGradient id="A" gradientTransform="matrix(.6785714 0 0 .7083335 17.857477 26.780105)" gradientUnits="userSpaceOnUse" x1="45.123108" x2="94.190605" y1="21.220039" y2="114.55814"><stop offset="0" stop-color="#8e8e8e"/><stop offset=".5" stop-color="#ababab"/><stop offset="1" stop-color="#9d9d9d"/></linearGradient><linearGradient id="B" gradientTransform="matrix(.6428571 0 0 .6666667 20.143197 29.446773)" gradientUnits="userSpaceOnUse" x1="8" x2="120" y1="40.665478" y2="64"><stop offset="0" stop-color="#c6c6c6"/><stop offset=".52140325" stop-color="#eee"/><stop offset="1" stop-color="#c6c6c6"/></linearGradient><linearGradient id="C" gradientTransform="matrix(.9867021 0 0 1 1.61969 0)" gradientUnits="userSpaceOnUse" x1="9" x2="106.55763" y1="24.324116" y2="53.655067"><stop offset="0" stop-color="#555753"/><stop offset=".6272" stop-color="#2e2e2e"/><stop offset="1" stop-color="#2e2e2e"/></linearGradient><g transform="matrix(.25 0 0 .25 0 -.013695)"><path d="m13.333 5.3364v118.3304l49.8545-.0668c2.115554-.003 4.528919-1.77169 7-4.25.71234-.71442 1.440746-1.39395 2.15625-2.09375.415612-.40649.832187-.81443 1.25-1.21875 7.773958-7.40962 26.98341-25.122599 34.21875-33.099999.42065-.42064.81207-.8111 1.15625-1.1875 1.46444-1.49766 2.76158-2.8378 2.99375-5.8625l.0375-.73125-.0028-69.819851z" filter="url(#v)" opacity=".456067" transform="matrix(1.013528 0 0 1.013266 -1.513369 -1.307368)"/><path d="m13.246094 4.84375c-.208011.048165-.401122.2851257-.400391.4980469a.31469455.31469455 0 0 1 0 .00195v118.30664c.0043.23765.266208.49961.503906.50391h48.806641c1.805649 0 3.560459.28929 6.349609-1.59766.03711-.0388.07201-.0851.121094-.12891.08359-.0745.188131-.16299.306641-.25976.23702-.19354.528336-.42124.792968-.62891.217665-.17081.382332-.30341.513672-.41015a.31469455.31469455 0 0 1 .07422-.10743c9.63616-9.15378 27.613554-28.820625 38.804687-40.148433a.31469455.31469455 0 0 1 .002-.002c1.72022-1.720217 3.37696-3.28053 3.37696-7.558594v-67.9628405c-.004361-.2376834-.266301-.4996119-.503961-.5039063h-98.65039a.31469455.31469455 0 0 1 -.0293-.00195c-.0225-.00213-.04572-.0008527-.06836 0z" filter="url(#x)" transform="matrix(1.013528 0 0 1.013266 -1.513369 -1.307368)"/><path d="m12 4v120h49.999784c1.697965 0 3.967298-.57754 7.094784-3.68191 8.990151-8.92376 32.510002-32.235741 39.866862-39.726545 2.47359-2.518643 3.04157-4.572903 3.04157-6.87703l-.003-69.714515z" fill="#fff"/><path d="m15.506762 7c-.34444 0-.506762.2377304-.506762.5066333v111.9734567c0 .83248.688512 1.5205 1.520292 1.51991l44.959416-.0317c.05379-.00004.821348.0237 1.520292.0317 1.801712-.0406 3.174343-.76374 4.414963-1.61442 1.066096-.29489 30.125502-28.688123 39.369997-37.999684 1.38084-1.390828 2.21504-4.000546 2.21504-4.960555v-68.9187078c0-.3269982-.16543-.5066332-.50677-.5066332z" fill="url(#u)"/><path d="m15.506762 7c-.34444 0-.506762.2377304-.506762.5066333v111.9734567c0 .83249.688527 1.51486 1.520292 1.51991l46.845657.2846c.05379.00033 3.318172-.008 4.017117.00005 6.629458-4.5634 31.077115-31.337425 40.143354-40.458653.66623-.74707.46379-.37498 1.47358-1.628786v-71.6905778c0-.3269982-.16543-.5066332-.50677-.5066332z" fill="url(#s)" opacity=".846535"/><g clip-path="url(#y)" transform="matrix(1.3762387 0 0 1.387681 -40.784426 -49.847743)"><g clip-path="none" transform="matrix(.75658149 0 0 .75658149 32.429012 30.656003)"><g filter="url(#z)" opacity=".6" transform="matrix(.6785714 0 0 .7291667 28.036047 38.113447)"><path d="m-4.1301005.19589042c-1.6499999 0-3.0023903 1.35000148-2.9999999 2.99999988l.1301008 89.8041037c.00239 1.649999 1.35 3 2.9999999 3h106.8823697c1.65 0 3-1.35 3-3v-89.8041037c0-1.6499999-1.35-2.99999988-3-2.99999988z"/></g><path d="m25.233475 37.463243c-1.11964 0-2.03571.956249-2.03571 2.125v64.304137c0 1.16876.91607 2.125 2.03571 2.125h72.760292c1.11964 0 2.038343-.95624 2.035713-2.125l-.144684-64.304137c-.0026-1.168748-.91607-2.125-2.03571-2.125z" fill="url(#A)"/><path d="m27.013196 39.49027c-1.644046 0-2.96875 1.383256-2.96875 3.03125v59.60348c0 1.64799 1.324704 3.03125 2.96875 3.03125h69.128873c1.644041 0 2.96875-1.38325 2.96875-3.03125v-59.60348c0-1.648-1.324709-3.03125-2.96875-3.03125z" fill="url(#B)"/><path d="m23.197765 48.868744h76.831711v41.909004h-76.831711z"/><path d="m104.27839 67.488077c0 1.65-1.33204 3-2.9601 3h-87.858175c-1.628058 0-2.960106-1.35-2.960106-3v-51.633018c0-1.65 1.332048-3 2.960106-3h87.858175c1.62806 0 2.9601 1.35 2.9601 3z" fill="url(#C)" transform="matrix(.7762804 0 0 .6857143 17.135107 41.942017)"/><path d="m23.286047 79.566364c31.22306-15.079895 61.863649-18.582676 76.598749-19.349468l.144684-11.348151h-76.831715z" fill="#fff" opacity=".1"/></g><g fill="#fff" transform="translate(-13.999998 -9.000001)"><path d="m68.079512 95.744141v-2.241211l12.068359-5.375977-12.068359-5.361328v-2.255859l14.075195 6.123046v3.00293z"/><path d="m84.325317 99.689247.316929-2.835757 14.215434-.04675v2.882507z"/></g></g><path clip-path="url(#r)" d="m114.4 82.502986c0 4.465301-6.19771 3.506816-8.67994 5.190489-5.10854 3.46508-20.174689 2.225237-25.955859 2.306257-.081 5.781159.786541 16.143798.786541 22.293818 0 2.97817-3.440475 11.20945-6.350745 11.20945-2.091359 1.5337 3.488204 8.21101 6.734971 5.31989 9.501888-8.46107 35.131682-30.022704 43.350822-39.262889 2.04044-2.29392-4.90514-9.844666-9.88579-7.057015z" filter="url(#t)" opacity=".34728" transform="matrix(1.2713893 0 0 1.3008089 -31.411352 -31.072453)"/><path clip-path="url(#r)" d="m113.9 82.502986c0 4.465301-7.96273 11.129672-10.95287 11.553449-6.394981.906328-15.824979-3.47754-21.606149-3.39652-.081 5.781159 3.918356 18.962455.453276 24.070995-1.68367 2.48224-3.883991 8.07209-6.794261 8.07209-2.091359 1.5337 3.488204 11.21101 6.734971 8.31989 9.501888-8.46107 45.998943-30.20138 54.218083-39.441569 2.04044-2.29392-17.0724-11.965986-22.05305-9.178335z" filter="url(#w)" opacity=".492958" transform="matrix(1.323697 0 0 1.3543271 -37.27081 -37.383179)"/><path d="m111.80692 72.373791c0 6.193164-3.79585 8.890306-7.16393 11.225476-6.931674 4.805908-21.198649 3.788362-29.04299 3.900733-.109909 8.0182.701692 21.4147-4 28.5-2.284534 3.44276-6.727129 8.38457-10.67601 8.38457 3.145284 0 6.435454-1.85125 10.290589-5.66544 12.404537-12.27278 23.56509-22.378984 34.835341-35.086504 2.60379-2.935824 5.757-5.051122 5.757-11.258835z" fill="url(#q)"/><path d="m111.83234 71.941762c-.42932 5.407885-4.39696 7.298568-6.55729 8.796367-5.122 3.551191-11.925937 3.261871-33.27505 3.261871 0 19.65502.5 28.4-3.219913 33.20293-2.21447 2.85919-6.648335 6.04727-10.26176 6.86542 4.951272 0 8.407066-1.08166 11.641616-4.28186.460141-.53889 1.37925-1.54169 2.101048-2.68043 3.839187-5.78555 3.739009-17.201707 3.739009-29.10606 7.844341-.112342 21.630842 1.155905 28.5625-3.65.63154-.437847 2.56984-2.009889 3.13546-2.57551 3.14173-3.14173 3.82294-5.144366 4.13438-9.832728zm-53.314013 52.126588c-.213922.0483-.425295.0575-.636038.0866.213019-.0234.421235-.0465.636038-.0866z" fill="#fff"/><path clip-path="url(#o)" d="m108.97651 89.508691-29.041615 28.702079" fill="none" filter="url(#p)" stroke="url(#n)" stroke-width="1.856056" transform="matrix(1.3568778 0 0 1.3869539 -40.163409 -42.054049)"/></g><g transform="matrix(.25 0 0 .25 -1 -.5)"><path d="m96 68a4.0004 4.0004 0 0 0 -4 4v18h-18a4.0004 4.0004 0 0 0 -4 4v8a4.0004 4.0004 0 0 0 4 4h18v18a4.0004 4.0004 0 0 0 4 4h8a4.0004 4.0004 0 0 0 4-4v-18h18a4.0004 4.0004 0 0 0 4-4v-8a4.0004 4.0004 0 0 0 -4-4h-18v-18a4.0004 4.0004 0 0 0 -4-4z" fill="url(#a)"/><path d="m96 68a4.0004 4.0004 0 0 0 -4 4v18h-18a4.0004 4.0004 0 0 0 -4 4v8a4.0004 4.0004 0 0 0 4 4h18v18a4.0004 4.0004 0 0 0 4 4h8a4.0004 4.0004 0 0 0 4-4v-18h18a4.0004 4.0004 0 0 0 4-4v-8a4.0004 4.0004 0 0 0 -4-4h-18v-18a4.0004 4.0004 0 0 0 -4-4z" fill="url(#b)"/><path d="m96 68a4.0004 4.0004 0 0 0 -4 4v18h-18a4.0004 4.0004 0 0 0 -4 4v8a4.0004 4.0004 0 0 0 4 4h18v18a4.0004 4.0004 0 0 0 4 4h8a4.0004 4.0004 0 0 0 4-4v-18h18a4.0004 4.0004 0 0 0 4-4v-8a4.0004 4.0004 0 0 0 -4-4h-18v-18a4.0004 4.0004 0 0 0 -4-4z" fill="url(#d)"/><path d="m31.7 16 2.875-3.375c-1.051205-1.695758-3.935136-2.288018-5.9375-.3125l2.8125 3.375z" fill="url(#e)" fill-rule="evenodd" filter="url(#g)" opacity=".790262" transform="matrix(-.60073019 -.60073019 .59501648 -.59501648 106.15853 151.49848)"/><path d="m31.7 16 2.875-3.375c-1.051205-1.695758-3.935136-2.288018-5.9375-.3125l2.8125 3.375z" fill="url(#h)" fill-rule="evenodd" filter="url(#g)" opacity=".498127" transform="matrix(-.54559305 .54559305 -.55083218 -.55083218 129.81694 114.94021)"/><path d="m96 72v22h-22v8h22v22h8v-22h22v-8h-22v-22z" fill="url(#i)"/><path d="m96 72v21.224609.775391h-22v5.835938c5.252313.784812 12.103279 1.193282 17.28125 1.203122 12.42654-.0162 24.54521-2.29327 34.71875-6.523435v-.515625h-22v-22z" fill="url(#j)"/><path d="m96 72v22h-22v8h22v22h8v-22h22v-8h-22v-22z" style="fill:none;stroke:#eef4ca;stroke-width:.8;stroke-linecap:square;stroke-linejoin:round;stroke-opacity:.780392;filter:url(#k)"/><g fill-rule="evenodd"><path d="m31.7 16 2.875-3.375c-1.051205-1.695758-3.935136-2.288018-5.9375-.3125l2.8125 3.375z" fill="url(#e)" filter="url(#g)" opacity=".498127" transform="matrix(-.60249952 .60249952 .60828509 .60828509 83.418893 65.879107)"/><path d="m88.7 16 2.875-3.375c-1.051205-1.695758-3.935136-2.288018-5.9375-.3125l2.8125 3.375z" fill="url(#l)" filter="url(#g)" opacity=".790262" transform="matrix(-.55083218 -.55083218 .54559305 -.54559305 113.52649 159.24703)"/><path d="m31.7 16 2.875-3.375c-1.051205-1.695758-3.935136-2.288018-5.9375-.3125l2.8125 3.375z" fill="url(#m)" filter="url(#g)" opacity=".790262" transform="matrix(-.50093417 -.50093417 -.49616964 .49616964 149.45278 101.72037)"/><path d="m88.7 16 2.875-3.375c-1.051205-1.695758-3.935136-2.288018-5.9375-.3125l2.8125 3.375z" fill="url(#l)" filter="url(#g)" opacity=".790262" transform="matrix(-.51428706 -.51428706 -.50939554 .50939554 157.72648 109.73028)"/><path d="m88.7 16 2.875-3.375c-1.051205-1.695758-3.935136-2.288018-5.9375-.3125l2.8125 3.375z" fill="url(#l)" filter="url(#g)" opacity=".790262" transform="matrix(.51428706 -.51428706 .50939554 .50939554 42.798309 109.73028)"/><path d="m31.7 16 2.875-3.375c-1.051205-1.695758-3.935136-2.288018-5.9375-.3125l2.8125 3.375z" fill="url(#m)" filter="url(#g)" opacity=".790262" transform="matrix(-.50093417 .50093417 -.49616964 -.49616964 149.45278 94.179741)"/></g></g></svg>