<svg enable-background="new 0 0 128 128" height="32" viewBox="0 0 32 32" width="32" xmlns="http://www.w3.org/2000/svg" xmlns:xlink="http://www.w3.org/1999/xlink"><linearGradient id="a" gradientUnits="userSpaceOnUse" x1="88.591797" x2="71.262016" y1="96.592697" y2="79.262917"><stop offset="0" stop-color="#fff"/><stop offset="1" stop-color="#555753"/></linearGradient><linearGradient id="b" gradientUnits="userSpaceOnUse" x1="85.219681" x2="61.336319" y1="93.219681" y2="69.336319"><stop offset="0"/><stop offset="1" stop-color="#393b38"/></linearGradient><linearGradient id="c" gradientUnits="userSpaceOnUse" x1="96" x2="88.000198" y1="104" y2="96.000198"><stop offset="0" stop-color="#888a85"/><stop offset=".0072" stop-color="#8c8e89"/><stop offset=".0673" stop-color="#abaca9"/><stop offset=".1347" stop-color="#c5c6c4"/><stop offset=".2115" stop-color="#dbdbda"/><stop offset=".3012" stop-color="#ebebeb"/><stop offset=".4122" stop-color="#f7f7f6"/><stop offset=".5679" stop-color="#fdfdfd"/><stop offset="1" stop-color="#fff"/></linearGradient><radialGradient id="d" cx="102" cy="112.3047" gradientTransform="matrix(.91638744 0 0 .91928513 -10.507289 -4.254167)" gradientUnits="userSpaceOnUse" r="139.55859" xlink:href="#r"/><radialGradient id="e" cx="83.721246" cy="99.808201" fx="83.721246" fy="99.808201" gradientUnits="userSpaceOnUse" r="130.669867" xlink:href="#q"/><filter id="f"><feGaussianBlur stdDeviation="1.0394514"/></filter><filter id="g"><feGaussianBlur stdDeviation=".50063244"/></filter><filter id="h"><feGaussianBlur stdDeviation=".40750996"/></filter><filter id="i"><feGaussianBlur stdDeviation=".4901192"/></filter><filter id="j"><feGaussianBlur stdDeviation=".90565481"/></filter><linearGradient id="k" gradientTransform="matrix(0 -1 -1 0 380.7641 219.3673)" gradientUnits="userSpaceOnUse" x1="182.28288" x2="182.28288" y1="238.96916" y2="438.85495"><stop offset="0" stop-color="#8e79b9"/><stop offset="1" stop-color="#462886"/></linearGradient><linearGradient id="l" gradientTransform="matrix(1.6428244 0 0 .77142856 -153.40942 31.327553)" gradientUnits="userSpaceOnUse" x1="154.25229" x2="154.31448" y1="99.390213" y2="108.99689"><stop offset="0" stop-color="#4c78fd"/><stop offset="1" stop-color="#85a2fe"/></linearGradient><radialGradient id="m" cx="102" cy="112.3047" gradientTransform="matrix(0 .93630891 -.93630891 0 131.57419 19.732484)" gradientUnits="userSpaceOnUse" r="139.5585" xlink:href="#q"/><radialGradient id="n" cx="102" cy="112.3047" gradientTransform="matrix(0 .91638744 -.91928513 0 130.48467 21.007458)" gradientUnits="userSpaceOnUse" r="139.55859" xlink:href="#r"/><radialGradient id="o" cx="84.522567" cy="101.66142" fx="84.522567" fy="101.66142" gradientUnits="userSpaceOnUse" r="130.669867" xlink:href="#q"/><radialGradient id="p" cx="102" cy="112.3047" gradientTransform="matrix(0 .93630891 -.93630891 0 131.49047 19.133404)" gradientUnits="userSpaceOnUse" r="139.5585" xlink:href="#q"/><radialGradient id="q" cx="102" cy="112.3047" gradientUnits="userSpaceOnUse" r="139.5585"><stop offset="0" stop-color="#00537d"/><stop offset=".0151" stop-color="#186389"/><stop offset=".0558" stop-color="#558ca8"/><stop offset=".0964" stop-color="#89afc3"/><stop offset=".1357" stop-color="#b3ccd8"/><stop offset=".1737" stop-color="#d4e2e9"/><stop offset=".2099" stop-color="#ecf2f5"/><stop offset=".2435" stop-color="#fafcfd"/><stop offset=".2722" stop-color="#fff"/></radialGradient><radialGradient id="r" cx="102" cy="112.3047" gradientUnits="userSpaceOnUse" r="139.55859"><stop offset="0" stop-color="#535557"/><stop offset=".11366145" stop-color="#898a8c"/><stop offset=".20296688" stop-color="#ececec"/><stop offset=".2363" stop-color="#fafafa"/><stop offset=".2722" stop-color="#fff"/><stop offset=".5313" stop-color="#fafafa"/><stop offset=".8449" stop-color="#ebecec"/><stop offset="1" stop-color="#e1e2e3"/></radialGradient><g transform="scale(.25)"><g transform="matrix(-1 0 0 -1 144.083908 156.599084)"><path d="m20.832156 9 .04082 111.10637h63.299028c.53 0 1.039-.211 1.414-.586l32.827996-31.93437c.375-.375.586-.884.586-1.414v-77.172z" filter="url(#f)" opacity=".306849" transform="matrix(0 .97532181 -.96974853 0 134.68417 10.408406)"/><path d="m20.832156 9.9655172.040816 110.1408528h63.299028c.53 0 1.039-.211 1.414-.586l32.828-31.93437c.375-.375.586-.884.586-1.414v-76.2064828z" filter="url(#f)" opacity=".306849" transform="matrix(0 .97532181 -.96974853 0 134.68417 10.408406)"/><path d="m22.752155 10.931136v107.244304l60.843845-.0001c.53 0 1.039-.211 1.414-.586l31.484-30.872306c.375-.375.586-.884.586-1.414v-74.371898z" filter="url(#g)" opacity=".89589" transform="matrix(0 .97532181 -.96974853 0 134.68417 10.408406)"/><path d="m124.08372 32.59908h-104v59.390235c0 .496243.19756.972825.54868 1.32394l29.870547 30.737145c.351115.35112.827697.54868 1.32394.54868h72.256833z" fill="url(#m)"/><path d="m121.55568 36.043501c0-.504929-.41275-.916387-.91928-.916387l-97.76077-.655416c-.50746 0-.91929.411458-.91929.916387v56.338824c0 .24101.0974.477438.26935.647886l29.311691 30.083155c.171906.17138.408162.26851.649934.26851h69.104505c.50652 0 .91928-.41054.91928-.91638z" fill="url(#n)"/><g transform="matrix(0 .93630891 -.93630891 0 131.57419 19.732484)"><path d="m111.414 86.586c.25-.25-26.379-1.586-31.414-1.586-1.654 0-3 1.346-3 3 0 5.035 1.336 31.664 1.586 31.414z" fill="url(#a)" filter="url(#h)" opacity=".1"/><path d="m111.414 86.586c.375-.375-21.97-.586-31.414-.586-1.103 0-2 .897-2 2 0 9.444.211 31.789.586 31.414z" filter="url(#j)" opacity=".2"/><path d="m111.414 86.586c.239-.239-21.607.414-31.414.414-.553 0-1 .447-1 1 0 9.807-.653 31.653-.414 31.414z" fill="url(#b)" filter="url(#i)" opacity=".1"/><path d="m78.586 119.414s11.914-9.914 17.414-15.414 15.414-17.414 15.414-17.414-21.164 1.414-31.414 1.414c0 10.25-1.414 31.414-1.414 31.414z" fill="url(#c)"/></g><path d="m73.804688 32a4.5697857 4.5697857 0 0 0 2.195312.568359h21.943359a4.5697857 4.5697857 0 0 0 .03906 0c-.0556.000476-.0516.00031.01367 0 .634427-.003 1.078606.242088 1.175781.339844.09311.09367.234375.240122.234375 1.123047v45.400391h-3.494141a4.5697857 4.5697857 0 0 0 -.0059 0c-2.149417.0026-4.58548.907229-5.800781 3.33789-.875855 1.751712-.767065 3.257446-.228516 4.748047a4.5697857 4.5697857 0 0 0 1.039063 2.238281l13.59375 16.566411c.004.005.0212.0269.0273.0352l.0606.0723a4.5697857 4.5697857 0 0 0 .0195.0215 4.5697857 4.5697857 0 0 0 .0937.13281c-.11457-.14744-.13764-.17834-.17383-.22656.0322.0432.0432.0598.13672.18946a4.5697857 4.5697857 0 0 0 .0801.10742c1.38564 1.80847 2.7724 2.53906 5.12695 2.53906 2.35419 0 3.74148-.73074 5.12695-2.53906a4.5697857 4.5697857 0 0 0 .0879-.11914c.0926-.12931.10679-.14839.13477-.18555-.0327.0444-.0607.0824-.17383.22851a4.5697857 4.5697857 0 0 0 .082-.11718l-.0781.10351-.19922.19727a4.5697857 4.5697857 0 0 0 .28711-.31445 4.5697857 4.5697857 0 0 0 .004-.006 4.5697857 4.5697857 0 0 0 .01-.0117 4.5697857 4.5697857 0 0 0 .002 0l.0664-.0801 8.76926-10.687461v-16.224609c-.0425-.000748-.0844-.0059-.12695-.0059h-3.33008v-45.40035c0-.685176-.0384-1.361424-.10156-2.03125zm17.171874 57.820312a4.5697857 4.5697857 0 0 0 .220704.238282c-.01582-.0153-.029-.02776-.07031-.07031-.02754-.02837-.06209-.06399-.126953-.136719-.004-.0045-.01765-.02428-.02344-.03125zm13.476558 16.398438a4.5697857 4.5697857 0 0 0 .10938.1543c-.0122-.016-.0246-.0315-.0371-.0488-.0302-.0428-.0548-.0778-.0723-.10547z" fill="url(#p)" transform="translate(.08372 .59908)"/></g><g transform="translate(.801321 1.853219)"><path d="m23 9 .04082 111.10637h61.131184c.53 0 1.039-.211 1.414-.586l30.894636-31.93437c.375-.375.586-.884.586-1.414v-77.172z" filter="url(#f)" opacity=".306849" transform="matrix(.97532181 0 0 .96974853 -21.106341 -8.453672)"/><path d="m23 9.9655172.040816 110.1408528h61.131184c.53 0 1.039-.211 1.414-.586l30.89464-31.93437c.375-.375.586-.884.586-1.414v-76.2064828z" filter="url(#f)" opacity=".306849" transform="matrix(.97532181 0 0 .96974853 -21.106341 -8.453672)"/><path d="m24.919999 10.931136v107.244304l58.676001-.0001c.53 0 1.039-.211 1.414-.586l29.55064-30.872306c.375-.375.586-.884.586-1.414v-74.371898z" filter="url(#g)" opacity=".89589" transform="matrix(.97532181 0 0 .96974853 -21.106341 -8.453672)"/><path d="m3.1986789 2.1467815v103.9999985h57.2758891c.496243 0 .972825-.19756 1.32394-.54868l28.851494-29.870547c.351116-.351115.548677-.827697.548677-1.32394v-72.2568315z" fill="url(#e)"/><path d="m6.6431 4.6748155c-.5049289 0-.916387.4127587-.916387.919285l-.6554163 97.7607695c0 .50746.4114582.91929.9163871.91929h54.2244782c.24101 0 .477438-.0974.647886-.26935l28.197508-29.311691c.171373-.171906.268506-.408162.268506-.649934v-69.1045008c0-.5065262-.410544-.9192849-.916385-.9192849z" fill="url(#d)"/><g fill="#b3b3b3"><path d="m15.19867804 14.14678099h63.99999857v4.00000155h-63.99999857z"/><path d="m15.19867804 26.1467819h63.99999857v3.99999968h-63.99999857z"/><path d="m15.19867804 38.14678093h63.99999857v4.00000061h-63.99999857z"/><path d="m15.19867804 50.14678183h63.99999857v3.99999968h-63.99999857z"/><path d="m15.19867804 62.14678273h63.99999857v3.99999874h-63.99999857z"/><path d="m15.19867804 74.14678082h63.99999857v4.00000155h-63.99999857z"/><path d="m15.19867804 86.14678173h63.99999857v3.99999968h-63.99999857z"/></g><g transform="matrix(.93630891 0 0 .93630891 -11.706034 -4.248403)"><path d="m111.414 86.586c.25-.25-26.379-1.586-31.414-1.586-1.654 0-3 1.346-3 3 0 5.035 1.336 31.664 1.586 31.414z" fill="url(#a)" filter="url(#h)" opacity=".1"/><path d="m111.414 86.586c.375-.375-21.97-.586-31.414-.586-1.103 0-2 .897-2 2 0 9.444.211 31.789.586 31.414z" filter="url(#j)" opacity=".2"/><path d="m111.414 86.586c.239-.239-21.607.414-31.414.414-.553 0-1 .447-1 1 0 9.807-.653 31.653-.414 31.414z" fill="url(#b)" filter="url(#i)" opacity=".1"/><path d="m78.586 119.414s11.914-9.914 17.414-15.414 15.414-17.414 15.414-17.414-21.164 1.414-31.414 1.414c0 10.25-1.414 31.414-1.414 31.414z" fill="url(#c)"/></g><path d="m23.198679 14.146782h44.801323v9.853218h-44.801323z" fill="#f60"/><path d="m76 11.431641a4.5697857 4.5697857 0 0 0 -4.568359 4.568359v12a4.5697857 4.5697857 0 0 0 4.568359 4.568359h16v-21.136718z" fill="url(#o)" transform="translate(-.801321 -1.853219)"/></g><path d="m76 16v12h21.943359c.0105-.00009.02075.00005.03125 0 1.671996-.0078 3.310801.55407 4.437501 1.6875 1.13378 1.14054 1.5625 2.67719 1.5625 4.34375v49.96875h-8.062501c-.91099.0011-1.49859.372169-1.71875.8125-.27966.55932-.20325 1.40632.1875 1.9375v.03125s.02725.02525.03125.03125l13.718751 16.71875.0312.0312c.0327.0405.064.0822.0937.125.0217.0307.0425.062.0625.0937.0223.0287.0413.0643.0625.0937.32934.42984.96358.75 1.5.75.53647 0 1.17064-.32012 1.5-.75.0212-.0296.0399-.0645.0625-.0937.02-.0318.0408-.063.0625-.0937l.0937-.125.0312-.0312 13.71875-16.71875.0312-.03125v-.03125c.2223-.29881.3611-.65181.375-1.03125.0291-.90135-.80084-1.72075-1.875-1.71875h-7.90625v-49.96875c0-9.73943-8.70398-18.03125-18.531251-18.03125z" fill="url(#k)"/><path d="m76 104h44v12h-44z" fill="url(#l)"/></g></svg>