<svg height="32" viewBox="0 0 8.4666665 8.4666669" width="32" xmlns="http://www.w3.org/2000/svg" xmlns:xlink="http://www.w3.org/1999/xlink"><linearGradient id="a" gradientUnits="userSpaceOnUse" x1="1.14271" x2="1.124065" y1="-35.700258" y2="-35.979931"><stop offset="0" stop-color="#555"/><stop offset="1"/></linearGradient><linearGradient id="b" gradientUnits="userSpaceOnUse" x1="4.892196" x2="4.233332" y1="2.586176" y2="4.562766"><stop offset="0" stop-color="#3b3e22"/><stop offset="1" stop-color="#454545" stop-opacity="0"/></linearGradient><g fill="url(#a)" stroke-width=".076993" transform="matrix(1.2450958 0 0 1.2450958 .280153 .280155)"><path d="m2.2594587 4.1358709v.058515h-.7853273v-.058515q.1231886-.00308.1693843-.024638.046196-.021558.046196-.080073 0-.073913-.058515-.2063408l-.1262681-.295652h-.8068853l-.14166688.3603267q-.0246377.064674-.0246377.1201088 0 .1262683.20942061.1262683v.058515h-.60978355v-.058515q.11394945-.00616.17554374-.086232.064674-.083152.20634089-.4188412l.64058069-1.5121399h.061594l.766849 1.749278q.073913.1693843.1231886.21558.049275.046196.153986.052355zm-1.50906025-.7329721h.71141415l-.357247-.8469215z"/><path d="m4.1248516 3.6400369q0 .092391-.033877.1817031-.033877.089312-.1139495.1786235-.076993.086232-.2309786.1416669-.1539857.052355-.366486.052355h-1.0286246v-.058515q.1909423-.00616.2432975-.055435.052355-.049276.052355-.2217395v-1.3673926q0-.1693844-.052355-.2155801-.049275-.049275-.2432975-.061594v-.058515h.8623202q.8068852 0 .8068852.5235516 0 .1016305-.036956.1817031-.036957.076993-.076993.1201089-.036957.040036-.1170292.076993-.080073.036957-.1016306.043116-.021558.00308-.089312.021558.070833.018478.1047103.027717.036957.00924.129348.052355.095471.043116.1478263.092391.052355.049276.098551.1416669.046196.089312.046196.2032612zm-.9701101.4403992q.1385871 0 .2402177-.018478.1016306-.018478.1909424-.061594.089312-.046196.1355074-.1355075.049275-.089312.049275-.2217394 0-.1262683-.049275-.2125003-.0461957-.0893124-.1139494-.1355081-.0677538-.0461957-.1878626-.0708334-.1201089-.0246377-.2125004-.0277175-.0923914-.0061594-.2463771-.0061594v.7637693q0 .073913.040036.1016306.040036.024638.153986.024638zm-.194022-1.0132262h.2925729q.21558 0 .3326092-.095471.1201088-.098551.1201088-.2802541 0-.2063409-.1385871-.3141309-.1385872-.10779-.4034427-.10779h-.1355074q-.067754 0-.067754.092391z"/><path d="m4.355397 3.1934782q0-.4804355.2956526-.7791678.2956527-.3018121.7360519-.3018121.1971017 0 .3695657.052355.1724641.049275.2001815.049275.1016306 0 .129348-.1016306h.064674l.027718.6960156h-.070833q-.1693843-.572827-.6621386-.572827-.335689 0-.5358704.2494569-.1971018.2494569-.1971018.6682981 0 .2679352.067754.465037.070833.194022.1878626.2956526.1170291.098551.2402177.1447466.1262683.043116.2679352.043116.3634063 0 .6867764-.3110512l.055435.055435q-.1416682.1878631-.360328.2894936-.2186597.1016306-.4804355.1016306-.4557978 0-.7391315-.2864134-.2833338-.2864135-.2833338-.7576099z"/></g><path d="m6.9878182 2.9535693c-.3556544 0-.6481314.1200746-.8859909.3628895-.2372246.2396959-.3558117.5501366-.3558117.9400381 0 .057326.00777.1090767.012868.1627856a1.6419784 5.5353864 85.240271 0 0 .3564555-.055977c-.00345-.052378-.010297-.1011728-.010297-.1569946 0-.3544457.083216-.642628.2541512-.8589672.1735629-.2162862.4119248-.3268579.7013289-.3268579.2129231 0 .3957175.062601.5411171.1885224.1384288.119884.2403496.2986677.3120594.5250316h.014156l-.0308828-.7804705h-.0102969c-.014027.034117-.032063.064934-.059194.086218-.035606.027931-.08117.040535-.1306144.040535-.024615 0-.047724-.00618-.090079-.016729-.042354-.010546-.09932-.025803-.17115-.046326a.04337297.04337297 0 0 1 -.0006572-.0006416c-.1387158-.0421158-.2873597-.0630564-.4471622-.0630564zm-5.2419516.00772-.6402041 1.5107525a1.6419784 5.5353864 85.240271 0 0 .075924.011579l.4336656-1.0378344a.04337297.04337297 0 0 1 .036676-.02638.04337297.04337297 0 0 1 .043109.02638l.4452469 1.0545673a.04337297.04337297 0 0 1 -.039892.059838h-.2837491a1.6419784 5.5353864 85.240271 0 0 .6672276.040535l-.7187013-1.6394363zm1.566087.045683c.1015002.012451.1828621.031035.2277709.07528.062352.055935.078498.1555916.078497.2998343v1.2237867a1.6419784 5.5353864 85.240271 0 0 .3049819-.00965v-.3435877a.04337297.04337297 0 0 1 .039892-.043109.04337297.04337297 0 0 1 .00322 0c.1278732 0 .2300421.00254.3081988.00772.079751.00266.1705664.013905.2721671.034744.103323.021195.1864447.05149.2496472.094582.060152.041012.1088525.1010221.1486303.1743672a1.6419784 5.5353864 85.240271 0 0 .3197892-.0360285c-.0195848-.0284431-.0389886-.0523642-.0585513-.0707764-.0383544-.0360978-.0959928-.0722849-.1724367-.106808a.04337297.04337297 0 0 1 -.0006589 0c-.0759076-.0354228-.1293849-.0572783-.1524905-.0630552a.04337297.04337297 0 0 1 -.00128 0c-.0273671-.0074581-.0710451-.0187287-.1299761-.0341007a.04337297.04337297 0 0 1 -.0006589-.083646c.0539-.0147.086811-.023231.1106691-.027024.00972-.00276.054393-.020402.1203198-.05083.06341-.029267.1074095-.059686.1319014-.086218a.04337297.04337297 0 0 1 .0006589 0c.028805-.031023.058813-.077328.088149-.1383361v-.0006587c.027564-.059931.041824-.1281889.041824-.2071662 0-.2061596-.075329-.35138-.2316316-.4529683-.1563035-.1015874-.3994592-.1563505-.7296406-.1563503zm.7386472.055977h.1692197c.2256811 0 .4026416.045145.5282488.1428395.125581.097674.18981.2442269.1898094.4253014 0 .1604519-.055539.2927267-.1653592.3828354-.1072687.0875082-.2561173.1280401-.4413869.1280401h-.3648199a.04337297.04337297 0 0 1 -.0431091-.0431067v-.8776264c0-.043632.00679-.081631.028953-.1119553.02217-.030324.060432-.046326.098443-.046326z" fill="url(#b)"/></svg>