<svg height="32" viewBox="0 0 8.4666665 8.466667" width="32" xmlns="http://www.w3.org/2000/svg" xmlns:xlink="http://www.w3.org/1999/xlink"><linearGradient id="a" gradientTransform="matrix(.0716208 0 0 .07079464 -.351164 -.445073)" gradientUnits="userSpaceOnUse" x1="16.933095" x2="16.933095" y1=".000477" y2="16.933571"><stop offset="0" stop-color="#3b3e22"/><stop offset="1" stop-color="#454545" stop-opacity="0"/></linearGradient><linearGradient id="b" gradientTransform="matrix(.26912697 0 0 .26912699 -.346291 -.451335)" gradientUnits="userSpaceOnUse" x1="15.745811" x2="16.795531" y1="29.719465" y2="5.575883"><stop offset="0" stop-color="#555"/><stop offset="1"/></linearGradient><path d="m.75760932 5.9997387h.23730691c.01318367.237307.08239827.4152871.20764357.5339405.1252453.1186535.3197051.1779802.5833795.1779802h1.2953002l-.0098878-.4486895c-.2175313-.046143-.4416545-.1318371-.6723696-.2570824-.2241232-.1252453-.4416545-.2900418-.652594-.4943894-.2043476-.2109395-.37244-.4779097-.5042772-.8009108-.1318371-.3295929-.1977557-.6855533-.1977557-1.0678811 0-.7976149.2933377-1.4699845.8800131-2.0171087.5866754-.5471243 1.351331-.82068643 2.2939668-.82068643.9096765 0 1.6545565.25708243 2.23464.77124743.5800835.5075731.8701253 1.1832386.8701253 2.0269965 0 .6657777-.1779802 1.2326776-.5339405 1.7006995-.3493685.4614301-.8338701.7811353-1.4535048.9591154l-.049439.4486895h1.3249636c.4943894 0 .748176-.2373069.7613597-.7119207h.2373069l-.0593267 1.5128315h-2.6894783l.1285412-1.4770194c.8042067-.2570825 1.2063101-1.025034 1.2063101-2.3038545 0-.4877975-.0659186-.9096765-.1977557-1.2656369-.1318372-.3559603-.3065215-.6229306-.5240528-.8009108-.2109395-.1779802-.4218789-.3065214-.6328184-.3856237s-.4251749-.1186535-.6427062-.1186535c-.606451 0-1.0975445.234011-1.4732804.702033-.3691441.4680219-.5537161 1.067881-.5537161 1.7995773 0 1.2788206.4119912 2.0698436 1.2359735 2.3730691l.098878 1.4770194h-2.68947845z" fill="url(#b)" stroke-width=".234902" transform="scale(1.0140702 .98612501)"/><path d="m5.26967 1.1898406c.1490666.080087.3004642.1441302.443993.2617467.2648255.2111194.4636551.5144974.6082172.8940588.1468882.3856692.2158416.8309865.2158416 1.3343131 0 .3444624-.029416.6569093-.089945.9388586a6.2504546 2.2653967 0 0 0 .5662514-.1299746c.1047075-.2793498.1575099-.5893725.1575099-.9359548 0-.775168-.260194-1.356296-.7958024-1.8120387a.25498289.24795618 0 0 1 -.00112-.0011c-.3111772-.2682224-.6882395-.4361983-1.1049457-.5499091zm-2.1017626.0222616c-.3948458.122984-.7471038.3042214-1.0425583.5721645-.5496931.4985082-.8113292 1.0822489-.8113292 1.8080289 0 .3479955.061181.664989.1818496.9589078.0001075.0002478.0003152.0003045.0004226.0005522.039499.094035.082426.181386.1279941.2634059a6.2504546 2.2653967 0 0 0 .4981283.046182c-.1186751-.3603251-.1751352-.7766667-.1751352-1.2498292 0-.7633075.2019209-1.4170109.6161906-1.9277714a.25498289.24795618 0 0 1 .00154-.00152c.1700468-.2059781.3839836-.3437033.6029-.4701213z" fill="url(#a)" opacity=".75" stroke-width=".071207"/></svg>