<svg height="32" viewBox="0 0 32 32" width="32" xmlns="http://www.w3.org/2000/svg" xmlns:xlink="http://www.w3.org/1999/xlink"><linearGradient id="a" gradientTransform="matrix(0 .06940294 .11152914 0 -45.287823 40.766246)" gradientUnits="userSpaceOnUse" x1="399.77466" x2="399.77466" y1="1164.6696" y2="549.06134"><stop offset="0" stop-color="#717174"/><stop offset=".5" stop-color="#9c9ca1"/><stop offset="1" stop-color="#bdbdc2"/></linearGradient><linearGradient id="b" gradientTransform="matrix(0 .57141948 .76189349 0 1.524017 42.98484)" gradientUnits="userSpaceOnUse" x1="50.777336" x2="15.776781" y1="71.500786" y2="103.00125"><stop offset="0" stop-color="#fff"/><stop offset=".42597079" stop-color="#fff"/><stop offset=".5892781" stop-color="#e5e5e5"/><stop offset=".80219781" stop-color="#eaeaea"/><stop offset="1" stop-color="#eee"/></linearGradient><linearGradient id="c" gradientUnits="userSpaceOnUse" x1="47.9548" x2="124.00195" y1="42.023571" y2="42.023571"><stop offset="0" stop-color="#b4b4b6"/><stop offset=".5" stop-color="#9c9ca1"/><stop offset="1" stop-color="#cdcdd1"/></linearGradient><g transform="scale(.25)"><path d="m15.164062 44c-1.753289 0-3.164062 1.213165-3.164062 2.720703v5.279297h4v-2.734375-5.265625zm4.835938 0v4h4v-4zm8 0v4h4v-4zm8 0v4h4v-4zm8 0v4h4v-4zm-32 12v4h4v-4zm0 8v4h4v-4zm0 8v4h4v-4zm0 8v4h4v-3.527344-.472656zm68 0v4h4v-4zm-68 8v4h4v-4zm68 0v4h4v-4zm-68 8v4h4v-4zm68 0v4h4v-4zm-68 8v4h4v-4zm68 0v4h4v-4zm-68 8v1.2793c0 1.50754 1.410773 2.7207 3.164062 2.7207h.835938v-4zm8 0v4h4v-4zm8 0v4h4v-4zm8 0v4h4v-4zm8 0v4h4v-4h-.449219zm8 0v4h4v-4zm8 0v4h4v-4zm8 0v4h4v-4zm8 0v4h4.835938c1.753291 0 3.164062-1.21316 3.164062-2.7207v-1.2793h-5.523438z" fill="url(#a)" opacity=".75"/><path d="m52.554688 48a34.021244 34.021244 0 0 0 27.445312 27.466797v-26.201172c0-.70134-.67926-1.265625-1.523438-1.265625z" fill="url(#b)" fill-rule="evenodd"/><path d="m48.025391 44a38.023575 38.023575 0 0 0 35.974609 35.947266v-33.226563c0-1.507538-1.410771-2.720703-3.164062-2.720703zm4.470703 4h25.980468c.844178 0 1.523438.564277 1.523438 1.265625v26.216797a34.021244 34.021244 0 0 1 -27.503906-27.482422z" fill="url(#a)" opacity=".75"/><path d="m88 4.07227v4.0292969a34.021244 34.021244 0 0 1 4.849609.6054687l1.027344-3.8320312a38.023575 38.023575 0 0 0 -5.876953-.8027344zm-4 .027344a38.023575 38.023575 0 0 0 -5.886719.7382812l1.042969 3.890625a34.021244 34.021244 0 0 1 4.84375-.6582033zm-9.75 1.7792968a38.023575 38.023575 0 0 0 -5.478516 2.28125l1.990235 3.4453132a34.021244 34.021244 0 0 1 4.53125-1.8378913zm23.490234.035156-1.03125 3.8515625a34.021244 34.021244 0 0 1 4.505856 1.8808587l2.02344-3.5039056a38.023575 38.023575 0 0 0 -5.498046-2.2285156zm-29.941406 2.716797a38.023575 38.023575 0 0 0 -.177734.1015625zm38.898442 1.5214842-2.00977 3.482422a34.021244 34.021244 0 0 1 3.86914 2.980468l2.82422-2.826172a38.023575 38.023575 0 0 0 -4.68359-3.636718zm-41.394536.002a38.023575 38.023575 0 0 0 -4.705078 3.613281l2.832032 2.833984a34.021244 34.021244 0 0 1 3.867187-2.996093zm-6.228515 5.03125a38.023575 38.023575 0 0 0 -.556641.556641zm-1.306641 1.412109a38.023575 38.023575 0 0 0 -3.646484 4.6875l3.482422 2.009766a34.021244 34.021244 0 0 1 2.988281-3.873047zm56.445312.01953-2.83398 2.833984a34.021244 34.021244 0 0 1 2.99218 3.857422l3.45508-1.994141a38.023575 38.023575 0 0 0 -3.61328-4.697265zm-62.103515 8.125a38.023575 38.023575 0 0 0 -2.236328 5.505859l3.853515 1.033203a34.021244 34.021244 0 0 1 1.884766-4.515625zm67.714845.03906-3.44531 1.988281a34.021244 34.021244 0 0 1 1.84179 4.525391l3.88672-1.041016a38.023575 38.023575 0 0 0 -2.2832-5.472656zm-70.283204 6.468707a38.023575 38.023575 0 0 0 -.402344 1.5zm-.708985 2.863281a38.023575 38.023575 0 0 0 -.804687 5.886719h4.03125a34.021244 34.021244 0 0 1 .607422-4.861328zm74.322269.002-3.89063 1.042969a34.021244 34.021244 0 0 1 .66406 4.84175h3.97266a38.023575 38.023575 0 0 0 -.74609-5.884766zm-75.1543 6.646438a38.023575 38.023575 0 0 0 -.044922 1.261719 38.023575 38.023575 0 0 0 .044922 1.263671zm76 1.222656v.09375a38.023575 38.023575 0 0 0 .002-.05469 38.023575 38.023575 0 0 0 -.002-.03906zm-4.09961 2.015625a34.021244 34.021244 0 0 1 -.5957 4.851562l3.83203 1.027344a38.023575 38.023575 0 0 0 .79492-5.878906zm2.76172 7.998047-.0898.330078a38.023575 38.023575 0 0 0 .0898-.330078zm-4.41406.714844a34.021244 34.021244 0 0 1 -1.87696 4.511718l3.50391 2.023438a38.023575 38.023575 0 0 0 2.22656-5.503906zm-3.86328 7.984375a34.021244 34.021244 0 0 1 -2.97852 3.878906l2.82617 2.826172a38.023575 38.023575 0 0 0 3.64063-4.691406zm-5.8125 6.705078a34.021244 34.021244 0 0 1 -3.86329 3l1.9961 3.458984a38.023575 38.023575 0 0 0 4.70117-3.625zm4.89453.871094-.64063.640624a38.023575 38.023575 0 0 0 .64063-.640624zm-12.2168 4.140624a34.021244 34.021244 0 0 1 -4.535156 1.845704l1.042968 3.890625a38.023575 38.023575 0 0 0 5.482418-2.291016zm3.70117 2.521485-1.02734.59375a38.023575 38.023575 0 0 0 1.02734-.59375zm-12.099608.367187a34.021244 34.021244 0 0 1 -4.851562.667969v3.974609a38.023575 38.023575 0 0 0 5.894531-.748046zm4.488282 3-1.126953.300782a38.023575 38.023575 0 0 0 1.126953-.300782zm-12.292969 1.697266a38.023575 38.023575 0 0 0 .931641.04687 38.023575 38.023575 0 0 0 .939453-.04687z" fill="url(#c)"/></g></svg>