<svg height="32" viewBox="0 0 8.4666665 8.466667" width="32" xmlns="http://www.w3.org/2000/svg" xmlns:xlink="http://www.w3.org/1999/xlink"><linearGradient id="a" gradientUnits="userSpaceOnUse" x1="17.295068" x2="18.255733" y1="5.669421" y2="17.368449"><stop offset="0" stop-color="#3b3e22"/><stop offset="1" stop-color="#454545" stop-opacity="0"/></linearGradient><linearGradient id="b" gradientUnits="userSpaceOnUse" x1="-23.009677" x2="-24.792784" y1="300.833111" y2="269.963481"><stop offset="0" stop-color="#555"/><stop offset="1"/></linearGradient><g transform="matrix(.25 0 0 .25 0 -65.78333)"><text style="font-weight:bold;font-size:37.108696;font-family:FreeSerif;letter-spacing:0;word-spacing:0;stroke-width:.927761;fill:url(#b)" x="9.673166" y="292.16077"><tspan style="font-style:italic;font-weight:normal;font-size:37.041668;font-family:FreeSerif;stroke-width:.927761;fill:url(#b)" x="9.673166" y="292.16077">I</tspan></text><path d="m58.714844 19.552734c2.992048.426369 5.270911.935485 6.652344 1.875 1.689872.991522 2.552734 2.904465 2.552734 5.123047 0 2.34618-.533573 5.318039-1.578125 9.021485l-8.535156 30.666015a105.56094 41.16371 0 0 0 11.191406-.59375l9.744141-35.09375c1.140162-4.085593 2.214514-6.733473 3.890624-8.164062 1.463403-1.337575 4.001386-2.131786 7.484376-2.833985z" fill="url(#a)" transform="matrix(.26458333 0 0 .26458333 0 263.13332)"/></g></svg>