<svg height="32" width="32" xmlns="http://www.w3.org/2000/svg" xmlns:xlink="http://www.w3.org/1999/xlink"><radialGradient id="a" cx="11.500194" cy="19.698885" gradientTransform="matrix(1 .00000005 -.00000007 1.3636603 .000001 -5.862588)" gradientUnits="userSpaceOnUse" r="5.499904" xlink:href="#d"/><radialGradient id="b" cx="114" cy="26" gradientTransform="matrix(.7071068 -.7071068 2.6709373 2.6709373 -36.054544 37.165802)" gradientUnits="userSpaceOnUse" r="2.5" xlink:href="#j"/><linearGradient id="c"><stop offset="0" stop-color="#83fc28"/><stop offset="1" stop-color="#102c07"/></linearGradient><linearGradient id="d"><stop offset="0" stop-color="#002a0d" stop-opacity=".914439"/><stop offset="1" stop-color="#002a0d" stop-opacity="0"/></linearGradient><linearGradient id="e"><stop offset="0" stop-color="#fff"/><stop offset="1" stop-color="#fff" stop-opacity="0"/></linearGradient><filter id="f" height="1.255079" width="1.231461" x="-.11573" y="-.12754"><feGaussianBlur stdDeviation=".32549158"/></filter><linearGradient id="g" gradientUnits="userSpaceOnUse" x1="14.227228" x2="13.997105" xlink:href="#j" y1="1.112264" y2="20.47335"/><linearGradient id="h"><stop offset="0" stop-color="#005f1e"/><stop offset="1" stop-color="#43943c"/></linearGradient><linearGradient id="i"><stop offset="0" stop-color="#b2ff00"/><stop offset="1" stop-color="#acff00" stop-opacity="0"/></linearGradient><linearGradient id="j"><stop offset="0" stop-color="#edffbf"/><stop offset="1" stop-color="#edffbf" stop-opacity="0"/></linearGradient><radialGradient id="k" cx="10" cy="18.155405" gradientTransform="matrix(2.7367639 .02069401 -.01427307 1.8876003 -17.108506 -16.477089)" gradientUnits="userSpaceOnUse" r="9.5" xlink:href="#c"/><linearGradient id="l" gradientUnits="userSpaceOnUse" x1="13.313708" x2="21" xlink:href="#i" y1="25.577166" y2="12.25"/><filter id="m" color-interpolation-filters="sRGB" height="1.031622" width="1.03079" x="-.015395" y="-.015811"><feGaussianBlur stdDeviation=".121875"/></filter><radialGradient id="n" cx="11.578125" cy="64.53125" gradientTransform="matrix(6.5079869 0 0 1.510917 -63.772161 -32.970115)" gradientUnits="userSpaceOnUse" r="3.578125"><stop offset="0" stop-color="#f0ff80"/><stop offset="1" stop-color="#f0ff80" stop-opacity="0"/></radialGradient><linearGradient id="o" gradientTransform="matrix(1 0 0 .8610463 -108.16138 -1.436187)" gradientUnits="userSpaceOnUse" spreadMethod="reflect" x1="223.32712" x2="226.659" xlink:href="#e" y1="53.784153" y2="57.279232"/><radialGradient id="p" cx="11.000193" cy="9.432399" gradientTransform="matrix(1 .00000005 -.00000007 1.3636603 .000001 -5.862588)" gradientUnits="userSpaceOnUse" r="5.499904" xlink:href="#d"/><linearGradient id="q" gradientUnits="userSpaceOnUse" x1="1.000193" x2="3.000193" xlink:href="#d" y1="14" y2="9"/><linearGradient id="r" gradientUnits="userSpaceOnUse" x1="6.000193" x2="12.000193" xlink:href="#h" y1="28" y2="-4"/><filter id="s" color-interpolation-filters="sRGB" height="1.231986" width="1.248361" x="-.12418" y="-.115993"><feGaussianBlur stdDeviation=".40413639"/></filter><linearGradient id="t" gradientTransform="matrix(.2926726 0 0 .2689557 18.405532 26.790706)" gradientUnits="userSpaceOnUse" x1="18.392687" x2="18.392687" xlink:href="#h" y1="-84.578583" y2="138.59462"/><radialGradient id="u" cx="121.50754" cy="53.894485" fx="121.73788" fy="54.689716" gradientTransform="matrix(6.6353005 -18.521865 4.8584036 24.006579 -1080.0926 1032.7108)" gradientUnits="userSpaceOnUse" r="2" xlink:href="#c"/><linearGradient id="v" gradientTransform="matrix(-1.0087655 0 0 .4984719 133.06719 18.079501)" gradientUnits="userSpaceOnUse" x1="121.99782" x2="121.9855" xlink:href="#e" y1="-21.082006" y2="84.071663"/><linearGradient id="w" gradientTransform="matrix(-1.0087655 0 0 .4984719 133.06719 18.079501)" gradientUnits="userSpaceOnUse" x1="132" x2="116" xlink:href="#e" y1="52" y2="28"/><linearGradient id="x" gradientUnits="userSpaceOnUse" x1="121.37933" x2="121.85139" xlink:href="#j" y1="104.88686" y2="-12.290292"/><filter id="y" height="1.028862" width="1.331226" x="-.165613" y="-.014431"><feGaussianBlur stdDeviation=".28982301"/></filter><linearGradient id="z" gradientUnits="userSpaceOnUse" x1="126.19062" x2="118.11179" xlink:href="#i" y1="90.956627" y2="3.852773"/><filter id="A"><feGaussianBlur stdDeviation=".1159292"/></filter><linearGradient id="B" gradientUnits="userSpaceOnUse" x1="115.38874" x2="124" xlink:href="#e" y1="9.361521" y2="74.399025"/><radialGradient id="C" cx="114" cy="26" gradientTransform="matrix(.7071068 -.7071068 2.6709373 2.6709373 -40.054544 33.165802)" gradientUnits="userSpaceOnUse" r="2.5" xlink:href="#e"/><filter id="D" height="1.499115" width="1.499115" x="-.249558" y="-.249558"><feGaussianBlur stdDeviation=".4159292"/></filter><radialGradient id="E" cx="114" cy="26" gradientTransform="matrix(.7071068 -.7071068 2.6709373 2.6709373 -136.01222 49.26915)" gradientUnits="userSpaceOnUse" r="2.5" xlink:href="#e"/><g transform="matrix(-1 0 0 1 17.996683 .97335)"><path d="m10.970703 2c-.256921.00769-.50102.113999-.681641.296875-3.7641624 4.0721604-7.0774265 8.100766-10.9994099 12.022749-.3903681.39053-.3903681 1.023532 0 1.414062l1 1c3.3813113 3.436752 6.6634009 7.448064 9.9794749 10.94796.619198.661951 1.729062.224766 1.730469-.681646l.000404-24c.000184-.5639067-.465631-1.0164628-1.029297-1z" fill="url(#r)"/><path d="m10.970703 2c-.256921.00769-.50102.113999-.681641.296875l-10.9994099 12.022749c-.3903681.39053-.3903681 1.023532 0 1.414062l1 1c3.3813113 3.436752 6.6634009 7.448064 9.9794749 10.94796.619198.661951 1.729062.224766 1.730469-.681646l.000404-24c.000184-.5639067-.465631-1.0164628-1.029297-1z" fill="url(#q)" opacity=".25"/><path d="m10.970703 2c-.256921.00769-.50102.113999-.681641.296875l-10.9994099 12.022749c-.3903681.39053-.3903681 1.023532 0 1.414062l1 1c3.3813113 3.436752 6.6634009 7.448064 9.9794749 10.94796.619198.661951 1.729062.224766 1.730469-.681646l.000404-24c.000184-.5639067-.465631-1.0164628-1.029297-1z" fill="url(#p)"/><path d="m10.970703 2-11.6810509 12.319624c-.3903681.39053-.3903681 1.023532 0 1.414062l1 1c3.3813113 3.436752 6.6634009 7.448064 9.9794749 10.94796.619198.661951 1.729062.224766 1.730469-.681646l.000404-24c.000184-.5639067-.465631-1.0164628-1.029297-1z" fill="url(#a)"/><path d="m10.970703 2c-.256921.00769-.50102.113999-.681641.296875l-10.9994099 12.022749c-.3903681.39053-.3903681 1.023532 0 1.414062l1 1c3.3813113 3.436752 6.6634009 7.448064 9.9794749 10.94796.619198.661951 1.729062.224766 1.730469-.681646l.000404-24c.000184-.5639067-.465631-1.0164628-1.029297-1z" fill="url(#a)"/><path d="m11.000193 3-11.00351 12.02665c3.7621801 3.740023 7.3551288 8.122707 11.003106 11.97335z" fill="url(#k)"/><path d="m6.9960938 3.9726562v12.4999998l.2304687.230469c1.8878291-.05728 7.2087735-.941251 10.0382625-1.539756z" fill="url(#g)" transform="matrix(-1 0 0 1 17.996683 -.97335)"/><path d="m-16.349908 38.958508-2.1875 1.75c-.949856.759129-1.5 1.909063-1.5 3.125s.550144 2.365871 1.5 3.125l3.53125 2.8125.348651-5.604943z" fill="url(#n)" fill-rule="evenodd" filter="url(#s)" transform="matrix(-.09190798 -.13231659 .12779939 -.08877031 4.008251 28.981204)"/><path d="m11.000193 3c-3.5374211 4.3401748-7.0862706 8.109411-11.00351 12.02665 3.7621801 3.740023 7.3551288 8.122707 11.003106 11.97335z" fill="none" filter="url(#m)" stroke="url(#l)" stroke-width=".5"/><path d="m115.65112 40c-.33944 1.154561-2.5625 6.125-2.5625 6.125l6.75-.03125v-2.09375c.00076-2.05105-1.61796-4.000656-4-4z" fill="url(#o)" fill-rule="evenodd" filter="url(#f)" opacity=".749064" transform="matrix(-.09012751 -.14634907 -.14634907 .09012751 27.954468 15.739557)"/></g><g transform="matrix(-.25 0 0 .25 27 1.976634)"><path d="m16.329073 4.0760965c1.981133.021434 3.634792 1.6617322 3.635863 3.651513l.0475 88.2592525-.01242 8.530528c-.0029 1.98978-1.654614 3.65152-3.635863 3.65152h-8.7235301c-1.9812507 0-3.6358628-1.66174-3.6358628-3.65152l.049721-96.8832437c0-1.989781 1.6547282-3.6729471 3.6358629-3.651513z" fill="url(#t)" fill-rule="evenodd"/><path d="m-15.964936 8.0934632 7.964936-.0934632-.012424 95.98686-7.987576.1066z" fill="url(#u)" transform="scale(-1 1)"/><path d="m15.999997 8.1141897.01532 44.1226193c-1.406287-.076912-6.7440961-.141082-8.0350772-.367622l.0197618-43.7757235z" fill="url(#v)"/><path d="m8.0748144 32.036712v19.732782c1.2622966.221507 6.5684256.288651 7.9405066.36762v.0997c-1.406291-.076917-6.7441001-.141087-8.0350812-.367627v-19.832475z" fill="url(#w)"/><path d="m112.03474-4.1717569 7.94568.0000049.003 176.513192h-7.94568z" style="fill:none;stroke-width:.2;stroke-linecap:round;stroke-linejoin:round;stroke:url(#x);filter:url(#y)" transform="matrix(-1.0087655 0 0 .4984719 129.03211 18.079501)"/><path d="m112.04992-4.1717569 7.9305.0000049-.0123 176.513192-7.91818.21385z" style="fill:none;stroke-width:.2;stroke-linecap:round;stroke-linejoin:round;stroke:url(#z);filter:url(#A)" transform="matrix(-1.0087655 0 0 .4984719 129.03211 18.079501)"/><path d="m112.04994-4.005045-.0152 104.929465v-.0884l.0499-104.8410659 7.89574-.0000094v-.1875z" fill="url(#B)" filter="url(#A)" transform="matrix(-1.0087655 0 0 .4984719 129.03211 10.089866)"/><g fill-rule="evenodd"><path d="m112.02089 23.952988v-4c-2.96316.314689-3.85012 1.927009-4 4z" fill="url(#C)" filter="url(#D)" opacity=".815315" transform="matrix(-1.002829 0 0 1.002829 128.36154 -16.02982)"/><path d="m16.042316 40.103348v-4c-2.96316.314689-3.85012 1.927009-4 4z" fill="url(#E)" filter="url(#D)" opacity=".815315" transform="matrix(1.008133 0 0 1.008133 -8.160364 -32.442645)"/><g fill="url(#b)"><path d="m116 28v-4c-2.96316.314689-3.85012 1.927009-4 4z" filter="url(#D)" opacity=".369369" transform="matrix(-.9898733 0 0 -.9898733 130.87026 131.76828)"/><path d="m116 28v-4c-2.96316.314689-3.85012 1.927009-4 4z" filter="url(#D)" opacity=".369369" transform="matrix(.9898733 0 0 -.9898733 -106.79166 131.76828)"/></g></g></g></svg>