<svg height="32" width="32" xmlns="http://www.w3.org/2000/svg" xmlns:xlink="http://www.w3.org/1999/xlink"><linearGradient id="a"><stop offset="0" stop-color="#d3d3d3"/><stop offset="1" stop-color="#d3d3d3" stop-opacity="0"/></linearGradient><linearGradient id="b"><stop offset="0" stop-color="#fff"/><stop offset="1" stop-color="#fff" stop-opacity="0"/></linearGradient><linearGradient id="c" gradientTransform="matrix(0 1 -1 0 -39.9985 140.0029)" gradientUnits="userSpaceOnUse" x1="-84.002403" x2="-12.0029" y1="-383.9971" y2="-383.9971"><stop offset="0" stop-color="#888a85"/><stop offset="1"/></linearGradient><radialGradient id="d" cx="79.339813" cy="114.95621" gradientTransform="matrix(1 -.00000004 .00000002 .5714285 .660186 38.310745)" gradientUnits="userSpaceOnUse" r="56" xlink:href="#c"/><linearGradient id="e" gradientUnits="userSpaceOnUse" x1="56" x2="80" xlink:href="#b" y1="-32" y2="88"/><filter id="f"><feGaussianBlur stdDeviation="1.23375"/></filter><linearGradient id="g" gradientUnits="userSpaceOnUse" x1="82.36569" x2="82.36569" y1="41.208014" y2="105.708774"><stop offset="0" stop-color="#fff"/><stop offset="1" stop-color="#dfdfdf"/></linearGradient><radialGradient id="h" cx="76.209439" cy="68.793777" gradientUnits="userSpaceOnUse" r="40.329939"><stop offset="0" stop-color="#fff" stop-opacity=".48"/><stop offset="1" stop-color="#fff" stop-opacity="0"/></radialGradient><linearGradient id="i" gradientUnits="userSpaceOnUse" x1="80" x2="72" xlink:href="#b" y1="68" y2="44"/><linearGradient id="j" gradientUnits="userSpaceOnUse" x1="60" x2="79.95355" xlink:href="#b" y1="-8" y2="88"/><linearGradient id="k" gradientUnits="userSpaceOnUse" x1="72" x2="72" xlink:href="#a" y1="108" y2="60"/><filter id="l"><feGaussianBlur stdDeviation=".2125"/></filter><linearGradient id="m" gradientTransform="matrix(.9337087 0 0 .9276822 4.242641 6.782771)" gradientUnits="userSpaceOnUse" x1="72" x2="72" xlink:href="#c" y1="-16" y2="64"/><radialGradient id="n" cx="52.972271" cy="28" gradientTransform="matrix(.6205264 -.4280051 .8036782 .8890357 -.443159 29.36644)" gradientUnits="userSpaceOnUse" r="4" xlink:href="#b"/><radialGradient id="o" cx="115.55806" cy="28.883884" gradientTransform="matrix(.3277928 .30475277 -.68308796 .94938571 94.519256 -30.644915)" gradientUnits="userSpaceOnUse" r="4" xlink:href="#b"/><radialGradient id="p" cx="55.422085" cy="107.93423" gradientTransform="matrix(.35418989 .3891179 -.75913658 .91863364 118.72638 -12.876366)" gradientUnits="userSpaceOnUse" r="4.5" xlink:href="#a"/><radialGradient id="q" cx="116" cy="108" gradientTransform="matrix(.29005785 -.35287757 .90125355 .9572423 -18.119256 43.855696)" gradientUnits="userSpaceOnUse" r="4.5" xlink:href="#a"/><g transform="matrix(.22916609 0 0 .22916609 .666731 .006687)"><path d="m58.628906 30.515625c-1.489879-.0024-2.933408.54893-4.037109 1.539063a1.4696236 1.4696236 0 0 1 -.03125.02734l-39.416016 33.369144c-.000693.000622-.0013.0013-.002.002-1.253262 1.125707-1.960937 2.72867-1.960937 4.412109-.000001 1.683441.707676 3.286404 1.960937 4.41211.000693.000622.0013.0013.002.002l39.416016 33.369143a1.4696236 1.4696236 0 0 1 .03125.0273c1.103705.99014 2.547257 1.5415 4.037109 1.53906a1.4696236 1.4696236 0 0 1 .002 0h50.187501c3.27258-.00033 5.99967-2.71709 6-5.95312v-66.793024c-.00033-3.236028-2.72743-5.952799-6-5.953125h-50.187548a1.4696236 1.4696236 0 0 1 -.002 0z" fill="url(#m)"/><path d="m58.181818 34.88-40.727273 34.92 40.727273 34.92h52.363632v-69.84z" fill="url(#d)"/><path d="m58.181818 34.88-40.727273 34.92 3.451705 2.60625c7.1612.54765 14.54759.84375 22.09375.84375 25.68969 0 48.017994-3.620983 67.54545-9.27v-29.1z" fill="url(#e)"/><path d="m59.17819 37.864264-11.8125 11.78125 17.0625 17.0625-17.0625 17.03125 11.8125 11.8125 17.03125-17.0625 17.0625 17.0625 11.78125-11.8125-17.03125-17.03125 17.03125-17.0625-11.78125-11.78125-17.0625 17.03125z" style="fill:none;stroke-width:5;stroke-linecap:round;stroke-linejoin:round;stroke:url(#h);filter:url(#f)"/><path d="m59.17819 37.864264-11.8125 11.78125 17.0625 17.0625-17.0625 17.03125 11.8125 11.8125 17.03125-17.0625 17.0625 17.0625 11.78125-11.8125-17.03125-17.03125 17.03125-17.0625-11.78125-11.78125-17.0625 17.03125z" fill="url(#g)"/><path d="m59.1875 37.875-11.8125 11.78125 17.0625 17.0625-6.15625 6.125c11.311694-.592043 22.14911-1.831095 32.25-3.625l-2.5-2.5 17.03125-17.0625-11.78125-11.78125-17.0625 17.03125z" fill="url(#i)"/><path d="m58.181818 34.88-40.727273 34.92 40.727273-33.92h52.363632v-1z" fill="url(#j)"/><path d="m58.181818 34.88-40.727273 34.92 40.727273 34.92h52.363632v-69.84z" style="opacity:.604;fill:none;stroke-linecap:round;stroke-linejoin:round;stroke-dashoffset:4;stroke:url(#k);filter:url(#l)"/><g fill-rule="evenodd"><path d="m110.54545 31.029067v3.850933h3.38773c-.79612-3.101251-2.10779-3.389506-3.38773-3.850933z" fill="url(#o)"/><path d="m59.049497 30.813518v5.525126l-6.00901-2.762563c1.862203-1.093039 3.29545-2.710648 6.00901-2.762563z" fill="url(#n)"/><path d="m110.54545 104.72h3.39884c-.27074.94643.23562 2.87742-3.39884 3.86356z" fill="url(#q)"/><path d="m58.181818 104.72v4.51268c-1.549978-.35286-2.665461-1.2067-3.524637-2.35606z" fill="url(#p)"/></g></g></svg>