<svg enable-background="new 0 0 128 128" height="32" viewBox="0 0 32 32" width="32" xmlns="http://www.w3.org/2000/svg" xmlns:xlink="http://www.w3.org/1999/xlink"><filter id="a"><feGaussianBlur stdDeviation="1.0394514"/></filter><filter id="b"><feGaussianBlur stdDeviation=".50063244"/></filter><filter id="c"><feGaussianBlur stdDeviation=".90565481"/></filter><filter id="d"><feGaussianBlur stdDeviation=".4901192"/></filter><filter id="e"><feGaussianBlur stdDeviation=".40750996"/></filter><linearGradient id="f" gradientTransform="matrix(.56551406 .28989732 .2917329 -.56195586 -36.030212 101.6666)" gradientUnits="userSpaceOnUse" x1="113.15723" x2="39.268185" y1="25.786163" y2="25.786163"><stop offset="0" stop-color="#0968ef"/><stop offset="1" stop-color="#aecffc"/></linearGradient><radialGradient id="g" cx="-63.107743" cy="158.799452" gradientUnits="userSpaceOnUse" r="105.204975"><stop offset="0" stop-color="#00537d"/><stop offset=".0151" stop-color="#186389"/><stop offset=".0558" stop-color="#558ca8"/><stop offset=".0964" stop-color="#89afc3"/><stop offset=".1357" stop-color="#b3ccd8"/><stop offset=".1737" stop-color="#d4e2e9"/><stop offset=".2099" stop-color="#ecf2f5"/><stop offset=".2435" stop-color="#fafcfd"/><stop offset=".2722" stop-color="#fff"/></radialGradient><radialGradient id="h" cx="112.83274" cy="112.77987" gradientTransform="matrix(.9787234 0 0 .9818182 -173.53979 52.070123)" gradientUnits="userSpaceOnUse" r="139.55859"><stop offset="0" stop-color="#535557"/><stop offset=".11366145" stop-color="#898a8c"/><stop offset=".20296688" stop-color="#ececec"/><stop offset=".2363" stop-color="#fafafa"/><stop offset=".2722" stop-color="#fff"/><stop offset=".5313" stop-color="#fafafa"/><stop offset=".8449" stop-color="#ebecec"/><stop offset="1" stop-color="#e1e2e3"/></radialGradient><linearGradient id="i" gradientUnits="userSpaceOnUse" x1="94.343803" x2="86.535599" y1="102.3447" y2="94.536598"><stop offset="0" stop-color="#fff"/><stop offset="1" stop-color="#555753"/></linearGradient><linearGradient id="j" gradientUnits="userSpaceOnUse" x1="95" x2="87.292999" y1="103" y2="95.292999"><stop offset="0" stop-color="#fff"/><stop offset="1" stop-color="#393b38"/></linearGradient><linearGradient id="k" gradientUnits="userSpaceOnUse" x1="96" x2="88.000198" y1="104" y2="96.000198"><stop offset="0" stop-color="#888a85"/><stop offset=".0072" stop-color="#8c8e89"/><stop offset=".0673" stop-color="#abaca9"/><stop offset=".1347" stop-color="#c5c6c4"/><stop offset=".2115" stop-color="#dbdbda"/><stop offset=".3012" stop-color="#ebebeb"/><stop offset=".4122" stop-color="#f7f7f6"/><stop offset=".5679" stop-color="#fdfdfd"/><stop offset="1" stop-color="#fff"/></linearGradient><g transform="scale(.25)"><g transform="translate(135.10775 -66.799455)"><path d="m30.481987 12.758728.04083 69.517244 34.51214.000006c.53 0 1.039-.211 1.414-.586l28.460604-27.529145c.375-.375.586-.884.586-1.414l.266433-39.988105z" filter="url(#a)" opacity=".306849" transform="matrix(1.0416667 0 0 1.0357143 -164.85982 55.584953)"/><path d="m32.401986 14.689864.000013 65.655178 32.056957-.000094c.53 0 1.039-.211 1.414-.586l27.116605-26.467081c.375-.375.586-.884.586-1.414l.266433-37.188003z" filter="url(#b)" opacity=".89589" transform="matrix(1.0416667 0 0 1.0357143 -164.85982 55.584953)"/><path d="m30.481987 13.724245.04083 68.551727 34.51214.000006c.53 0 1.039-.211 1.414-.586l28.460604-27.529145c.375-.375.586-.884.586-1.414l.266433-39.022588z" filter="url(#a)" opacity=".306849" transform="matrix(1.0416667 0 0 1.0357143 -164.85982 55.584953)"/><path d="m-131.10775 70.799455.00001 67.999995h33.443828c.53 0 1.039-.211 1.414-.586l28.278631-27.33989c.375-.375.586-.884.586-1.414l.277534-38.660105z" fill="url(#g)"/><path d="m-126.42902 74.499455c-.53928 0-.97873.440836-.97873.981818l-.69999 60.336367c0 .54197.43945.98182.97873.98182l29.184848.00001c.2574 0 .50991-.10407.69196-.28767l25.580151-26.74304c.18303-.1836.28677-.43593.28677-.69415l.277534-33.293337c0-.540982-.43847-.981818-.97872-.981818z" fill="url(#h)"/><g transform="matrix(.88615191 0 0 .88615191 -166.11501 32.731214)"><path d="m111.414 86.586c.25-.25-26.379-1.586-31.414-1.586-1.654 0-3 1.346-3 3 0 5.035 1.336 31.664 1.586 31.414z" fill="url(#i)" filter="url(#e)" opacity=".1"/><path d="m111.414 86.586c.375-.375-21.97-.586-31.414-.586-1.103 0-2 .897-2 2 0 9.444.211 31.789.586 31.414z" filter="url(#c)" opacity=".2"/><path d="m111.414 86.586c.239-.239-21.607.414-31.414.414-.553 0-1 .447-1 1 0 9.807-.653 31.653-.414 31.414z" fill="url(#j)" filter="url(#d)" opacity=".1"/><path d="m78.586 119.414s11.914-9.914 17.414-15.414 15.414-17.414 15.414-17.414-21.164 1.414-31.414 1.414c0 10.25-1.414 31.414-1.414 31.414z" fill="url(#k)"/></g></g><path d="m40 120.71952-19.406997 4.28159-1.08823-3.38599 7.91843-4.49677c-21.1797344-10.85728-21.1130043-25.487986-15.423203-37.11835l4.592994 2.533487c-3.925054 9.374757-5.515408 20.513633 13.16407 30.089223l-.960877-8.90535 3.46612-1.19453z" fill="url(#f)" fill-rule="evenodd"/><g transform="translate(151.10775 -54.799455)"><path d="m30.481987 12.758728.04083 69.517244 34.51214.000006c.53 0 1.039-.211 1.414-.586l28.460604-27.529145c.375-.375.586-.884.586-1.414l.266433-39.988105z" filter="url(#a)" opacity=".306849" transform="matrix(1.0416667 0 0 1.0357143 -164.85982 55.584953)"/><path d="m32.401986 14.689864.000013 65.655178 32.056957-.000094c.53 0 1.039-.211 1.414-.586l27.116605-26.467081c.375-.375.586-.884.586-1.414l.266433-37.188003z" filter="url(#b)" opacity=".89589" transform="matrix(1.0416667 0 0 1.0357143 -164.85982 55.584953)"/><path d="m30.481987 13.724245.04083 68.551727 34.51214.000006c.53 0 1.039-.211 1.414-.586l28.460604-27.529145c.375-.375.586-.884.586-1.414l.266433-39.022588z" filter="url(#a)" opacity=".306849" transform="matrix(1.0416667 0 0 1.0357143 -164.85982 55.584953)"/><path d="m-131.10775 70.799455.00001 67.999995h33.443828c.53 0 1.039-.211 1.414-.586l28.278631-27.33989c.375-.375.586-.884.586-1.414l.277534-38.660105z" fill="url(#g)"/><path d="m-126.42902 74.499455c-.53928 0-.97873.440836-.97873.981818l-.69999 60.336367c0 .54197.43945.98182.97873.98182l29.184848.00001c.2574 0 .50991-.10407.69196-.28767l25.580151-26.74304c.18303-.1836.28677-.43593.28677-.69415l.277534-33.293337c0-.540982-.43847-.981818-.97872-.981818z" fill="url(#h)"/><g transform="matrix(.88615191 0 0 .88615191 -166.11501 32.731214)"><path d="m111.414 86.586c.25-.25-26.379-1.586-31.414-1.586-1.654 0-3 1.346-3 3 0 5.035 1.336 31.664 1.586 31.414z" fill="url(#i)" filter="url(#e)" opacity=".1"/><path d="m111.414 86.586c.375-.375-21.97-.586-31.414-.586-1.103 0-2 .897-2 2 0 9.444.211 31.789.586 31.414z" filter="url(#c)" opacity=".2"/><path d="m111.414 86.586c.239-.239-21.607.414-31.414.414-.553 0-1 .447-1 1 0 9.807-.653 31.653-.414 31.414z" fill="url(#j)" filter="url(#d)" opacity=".1"/><path d="m78.586 119.414s11.914-9.914 17.414-15.414 15.414-17.414 15.414-17.414-21.164 1.414-31.414 1.414c0 10.25-1.414 31.414-1.414 31.414z" fill="url(#k)"/></g></g><g transform="translate(183.10775 -26.799455)"><path d="m30.481987 12.758728.04082 81.103444 34.51214.000006c.53 0 1.039-.211 1.414-.586l28.727037-24.165418c.375-.375.586-.884.586-1.414v-54.938032z" filter="url(#a)" opacity=".306849" transform="matrix(1.0416667 0 0 1.0357143 -164.85982 55.584953)"/><path d="m32.401986 14.689864v77.241378l32.056957-.000094c.53 0 1.039-.211 1.414-.586l27.383041-23.103354c.375-.375.586-.884.586-1.414v-52.13793z" filter="url(#b)" opacity=".89589" transform="matrix(1.0416667 0 0 1.0357143 -164.85982 55.584953)"/><path d="m30.481987 13.724245.04082 80.137927 34.51214.000006c.53 0 1.039-.211 1.414-.586l28.727037-24.165418c.375-.375.586-.884.586-1.414v-53.972515z" filter="url(#a)" opacity=".306849" transform="matrix(1.0416667 0 0 1.0357143 -164.85982 55.584953)"/><path d="m-131.10775 70.799455v79.999985h33.443825c.53 0 1.039-.211 1.414-.586l28.556168-23.85603c.375-.375.586-.884.586-1.414v-54.143955z" fill="url(#g)"/><path d="m-126.42902 74.499455c-.53928 0-.97873.440836-.97873.981818l-.7 72.336357c0 .54197.43945.98182.97873.98182l29.184845.00001c.2574 0 .50991-.10407.69196-.28767l25.857688-23.25918c.18303-.1836.28677-.43593.28677-.69415v-48.777187c0-.540982-.43847-.981818-.97872-.981818z" fill="url(#h)"/><g transform="matrix(.88362343 .06689428 -.06689428 .88362343 -158.48509 41.135794)"><path d="m111.414 86.586c.25-.25-26.379-1.586-31.414-1.586-1.654 0-3 1.346-3 3 0 5.035 1.336 31.664 1.586 31.414z" fill="url(#i)" filter="url(#e)" opacity=".1"/><path d="m111.414 86.586c.375-.375-21.97-.586-31.414-.586-1.103 0-2 .897-2 2 0 9.444.211 31.789.586 31.414z" filter="url(#c)" opacity=".2"/><path d="m111.414 86.586c.239-.239-21.607.414-31.414.414-.553 0-1 .447-1 1 0 9.807-.653 31.653-.414 31.414z" fill="url(#j)" filter="url(#d)" opacity=".1"/><path d="m78.586 119.414s11.914-9.914 17.414-15.414 15.414-17.414 15.414-17.414-21.164 1.414-31.414 1.414c0 10.25-1.414 31.414-1.414 31.414z" fill="url(#k)"/></g><g fill="#696969" transform="translate(35.2618 36.359748)"><path d="m-159.22376 49.952005c.47424-.01581.94322.04742 1.40691.147541 1.03279.216042 1.01172.205504 1.34895-.131733l.27928-.279274c-.7904-.189696-1.24356-.279275-2.11827-.447893l1.05386-1.206677c.5849-.669204.81148-.879978.87998-.879978.0369 0 .0316.05269-.0105.100117-.25293.284544-.70609.858901-.70609 1.254101 0 .07904.0264.15808.1212.15808.10011 0 .36885-.210774.45843-.274006.0738-.05269.29508-.210773.29508-.305621 0-.05796-.0527-.0685-.0948-.07377.16862-.300352.6007-.916864.6007-1.254101 0-.15281-.0843-.342506-.26346-.342506-.27928 0-1.05387.78513-1.24356 1.011711l-1.53338 1.823188c-.22131.04216-.45843.04742-.67974.100118-.079.02108-.11593.08431-.16335.147541-.079.105386-.3267.400469-.3267.521663 0 .09485.0896.110656.16335.110656.14227 0 .28981-.08431.41628-.126464l.11592-.05269"/><path d="m-153.84262 49.093104c-.16335.121194-.31089.321429-.54274.279275.10012-.205504.20551-.389931.20551-.621781 0-.15808-.0316-.268736-.1897-.310891.058-.03162.12119-.06323.12119-.142271 0-.142272-.17388-.194966-.28981-.189696-.32143.01581-.70082.15808-.98536.38993-.29509.226581-.49005.490048-.47951.885247.0211.479509.274.753515.54801.753515.33197 0 .59016-.168619.81148-.3952.38466 0 .61651-.126464.85363-.426816zm-.96956-.411007c.0211.01054-.22658.342506-.22658.616511 0 .08958.0264.15808.0632.242389-.1212.110656-.23185.210774-.40574.210774-.13173 0-.23185-.04743-.23185-.200235 0-.163349.10012-.368853.21604-.484778.15808-.152811.40574-.279275.5849-.384661"/><path d="m-152.93374 48.840177.0105.01054c-.21077.252928-.48478.532203-.48478.890517 0 .200234.137.405738.35832.405738.30035 0 .90632-.584896 1.10655-.811476l-.0369-.194966c-.17388.131733-.50585.47424-.73243.47424-.079 0-.16335-.06323-.16335-.147541 0-.210773.2582-.468971.41101-.600704.12119-.100117.22131-.179157.22131-.342506-.0105-.09485-.0474-.179157-.12647-.279275-.0527-.06323-.3425 0-.83782.0685.0211-.04742.0369-.09485.0369-.147542 0-.04742-.0422-.08958-.0949-.08958-.12646 0-.66393.379392-.66393.758783 0 .110656.0316.152811.14227.163349-.10012.142272-.21078.274006-.34778.384661l.0211.231851c.22658-.226581.44789-.363584.63232-.653397l.54801-.121194"/><path d="m-149.99798 49.119451c-.27928.221311-.7219.605973-1.09602.605973-.16862 0-.34251-.0685-.3267-.268736l.0105-.115925c1.01171-.331968 1.26991-.721899 1.26991-.980096 0-.210773-.21078-.252927-.37939-.252927-.68502-.0053-1.44907.700821-1.42799 1.391103.0105.347775.18969.690282.57435.690282.52167 0 1.10129-.495317 1.42272-.869439l-.0474-.200235m-1.38056-.03689c.14227-.347776.44789-.600704.71136-.669205.0369-.01054.0632.02108.0632.05796.005.08958-.31089.453163-.7746.611243"/><path d="m-147.40325 49.019334.0105.01054c-.13173.216042-.38993.590165-.38993.853632 0 .15281.11066.305621.26874.305621.29508 0 1.05386-.621781 1.30152-.816746l-.0316-.247659c-.64812.442624-.70609.442624-.81674.468971-.0632.01581-.13174-.0685-.12647-.131734.005-.121194.0369-.205504.44789-.658666.058-.06323.16335-.179157.16335-.268736 0-.07377-.058-.15281-.0949-.210773-.0158-.02108-.0685-.147541-.11065-.147541-.0632 0-.19497.105387-.24766.147541l-1.16979.922133-.0105-.01054c.11592-.205504.49005-.63232.49005-.86417 0-.137002-.0738-.242389-.21605-.242389-.3425 0-1.28044.937941-1.53864 1.206677-.0158.01581-.079.08431-.10539.08431-.0211 0-.0369-.03689-.0369-.04742 0-.110656.0949-.194965.15281-.274005.079-.115926.19497-.210774.28982-.321429.0632-.07377.21077-.231851.21077-.337238 0-.110655-.15808-.110655-.23712-.121194-.31616-.04216-.87471.663936-.87998 1.18033 0 .189695.0738.600703.3267.600703.0949 0 .16862-.07904.22658-.147541.24766-.305621.54274-.621781.81675-.911594.0369-.03688.15281-.163349.2055-.163349.0211 0 .0369.01581.0369.03689 0 .01581-.0211.05796-.0316.0685-.3425.521664-.46897.764053-.4637.916864.005.126463.10539.221312.23185.221312.17916 0 .36885-.216043.49005-.331968l.83782-.769322"/><path d="m-143.04667 49.219568c-.21077.15281-.48477.432085-.76405.432085-.24239 0-.32143-.115925-.27927-.331967.22131-.152811.74297-.621782.74297-.885248 0-.115925-.14227-.147541-.23185-.147541-.31616 0-.97483.627051-.97483 1.269908 0 .268736.14228.627051.45317.627051.40047 0 .86417-.474241 1.10129-.764053l-.0474-.200235m-.24766-1.038058c.22658 0 .42154-.258197.42154-.46897 0-.09485-.079-.163349-.17389-.163349-.2055 0-.45843.189696-.45843.405738 0 .126464.0843.226581.21078.226581"/><path d="m-141.86979 49.562075c-.14228-.04742-.28982-.06323-.44263-.05269.14227-.189695.28981-.368853.48478-.511125.0685-.04742.32143-.210773.40574-.210773.0422 0 .058.03689.058.07377 0 .09485-.0738.184426-.13173.258197l-.37413.442624m-.80093.453162c.0685.01581.137.03162.21077.03162.0843 0 .16335-.01581.24239-.03162.12646.06323.23185.105387.37412.105387.56909 0 1.04333-.379393 1.43326-.758784l-.0369-.242389c-.56382.484778-.66921.569088-1.12237.537472.59016-.521664.85363-.885248.85363-1.175061 0-.137002-.079-.247658-.22131-.247658-.28454 0-.81675.347775-1.04333.511125l-.0105-.01054c.10539-.23712.26874-.432086.4479-.621781.0843-.08958.35831-.342507.35831-.458432 0-.100117-.16862-.126464-.24239-.126464-.20023 0-.29508.152811-.42155.289814l-1.39637 1.501759.0211.247658.83256-.795669.0105.01054c-.34251.579625-.60598 1.011712-.84837 1.354218-.21604.30562-.33196.569087-.32669.832554 0 .09485.0316.23712.15281.23712.10011 0 .19496-.142272.23712-.221312z"/><path d="m-139.64992 48.597787c.0316.179157.0527.321429.0685.432085-.0158.305621-.10012.3952-.41628.590165-.10012-.137002-.21604-.300351-.41101-.31089l.75878-.71136m.71663.843093c-.25819.194965-.4637.353045-.80093.295083.33723-.205504.68501-.526934.68501-.959018 0-.231851-.079-.411009-.10012-.611243-.0158-.147541-.0474-.194965-.2055-.194965-.1897 0-.28982.168619-.30036.342507l-1.14344 1.048596c-.0422.04215-.12646.115925-.12646.184427 0 .04742.0369.100117.0896.100117.0474 0 .0843-.03689.11592-.0685.0949.38466.48478.584895.83782.600703.42155.02108.99591-.458432 1.31734-.779861l-.0527-.200234-.31616.242389"/><path d="m-137.58237 49.172144c-.24766.221312-.53747.374123-.63232.374123-.0369 0-.0421-.05269-.0421-.07904 0-.221312.12646-.337238.28981-.453163.20551-.147541.23712-.194965.40047-.379391.058-.04742.20024-.194966.21077-.279275.0211-.15808-.24765-.110656-.32142-.110656-.0896 0-.15809.01054-.23186.05796-.33723.221311-.73243.748245-.73243 1.25937 0 .22658.14227.521663.40047.521663.28981 0 .64286-.47424.84836-.653397l.0105.01054c-.0527.137002-.11066.284544-.11066.442624 0 .184426.11593.347776.31089.347776.38993 0 .94848-.605974 1.21722-.864171l-.0316-.226581c-.15808.126464-.61124.495317-.81148.495317-.0843 0-.13173-.03162-.13173-.115925 0-.23712.37412-.653397.54274-.806207.0843-.07377.22658-.194966.21604-.32143-.0211-.274005-.079-.289813-.12119-.289813-.13173 0-.64813.500587-.75879.600704l-.52166.46897"/><path d="m-133.41688 49.019334.0105.01054c-.13174.216042-.38993.590165-.38993.853632 0 .15281.11065.305621.26873.305621.29509 0 1.05387-.621781 1.30153-.816746l-.0316-.247659c-.64813.442624-.70609.442624-.81675.468971-.0632.01581-.13173-.0685-.12646-.131734.005-.121194.0369-.205504.44789-.658666.058-.06323.16335-.179157.16335-.268736 0-.07377-.058-.15281-.0949-.210773-.0158-.02108-.0685-.147541-.11066-.147541-.0632 0-.19496.105387-.24766.147541l-1.16979.922133-.0105-.01054c.11593-.205504.49005-.63232.49005-.86417 0-.137002-.0738-.242389-.21604-.242389-.34251 0-1.28045.937941-1.53864 1.206677-.0158.01581-.079.08431-.10539.08431-.0211 0-.0369-.03689-.0369-.04742 0-.110656.0949-.194965.15281-.274005.079-.115926.19496-.210774.28981-.321429.0632-.07377.21077-.231851.21077-.337238 0-.110655-.15807-.110655-.23711-.121194-.31616-.04216-.87471.663936-.87998 1.18033 0 .189695.0738.600703.3267.600703.0948 0 .16861-.07904.22658-.147541.24765-.305621.54274-.621781.81674-.911594.0369-.03688.15281-.163349.20551-.163349.0211 0 .0369.01581.0369.03689 0 .01581-.0211.05796-.0316.0685-.34251.521664-.46897.764053-.4637.916864.005.126463.10538.221312.23185.221312.17915 0 .36885-.216043.49004-.331968l.83783-.769322"/><path d="m-127.85362 47.644039c.0843-.131734.22658-.347777.22658-.505856 0-.09485-.0632-.200235-.16862-.200235-.38466 0-.84837 1.090752-1.02225 1.391104-.0685-.07904-.11066-.152811-.22131-.147542-.44789.02635-1.49649.55328-1.49649 1.175061 0 .184426.14754.690282.38466.690282s.72717-.511125.91159-.669205c-.0211.131733-.0421.268736-.0421.400469 0 .168618.079.379392.27927.379392.38466 0 .92741-.55328 1.17507-.827285l-.0369-.173888c-.16862.110656-.65341.537472-.83256.537472-.11592 0-.12119-.179157-.12119-.263467 0-.337236.25292-.679744.42681-.953748l.53747-.832554m-1.14344.995903c-.0843.31089-.93267.94321-.99591.927402-.058-.01054-.0843-.05269-.079-.100117.0316-.347776.14755-.526934 1.07495-.827285"/><path d="m-125.75668 49.093104c-.16335.121194-.31089.321429-.54274.279275.10012-.205504.2055-.389931.2055-.621781 0-.15808-.0316-.268736-.18969-.310891.058-.03162.12119-.06323.12119-.142271 0-.142272-.17388-.194966-.28981-.189696-.32143.01581-.70082.15808-.98536.38993-.29509.226581-.49005.490048-.47951.885247.0211.479509.274.753515.54801.753515.33196 0 .59016-.168619.81147-.3952.38466 0 .61652-.126464.85363-.426816l-.0527-.221312m-.96955-.411007c.0211.01054-.22658.342506-.22658.616511 0 .08958.0264.15808.0632.242389-.1212.110656-.23185.210774-.40574.210774-.13173 0-.23185-.04743-.23185-.200235 0-.163349.10012-.368853.21604-.484778.15808-.152811.40574-.279275.5849-.384661"/><path d="m-125.1903 48.608326c.24765-.542741.54801-1.016981.8062-1.143445-.0949.300352-.42155.806208-.79567 1.153984l-.0105-.01054m1.02752.558549c-.21077.189695-.61652.526933-.90633.526933-.14227 0-.21604-.105387-.26347-.226581-.0264-.126464-.0105-.274005.0369-.363584 1.14345-1.106558 1.28046-1.570261 1.31734-2.070847.005-.0685-.0158-.194965-.10539-.194965-.16861 0-.6692.490048-1.1329 1.064405-.34251.421546-.57963 1.016981-.57963 1.57026 0 .31089.0843.685013.46897.685013.45316 0 .94848-.532203 1.2383-.832554l-.0738-.15808"/><path d="m-122.08256 49.093104c-.16334.121194-.31088.321429-.54274.279275.10012-.205504.20551-.389931.20551-.621781 0-.15808-.0316-.268736-.1897-.310891.058-.03162.1212-.06323.1212-.142271 0-.142272-.17389-.194966-.28982-.189696-.32143.01581-.70082.15808-.98536.38993-.29508.226581-.49005.490048-.47951.885247.0211.479509.274.753515.54801.753515.33197 0 .59016-.168619.81148-.3952.38466 0 .61651-.126464.85363-.426816zm-.96956-.411007c.0211.01054-.22658.342506-.22658.616511 0 .08958.0264.15808.0632.242389-.12119.110656-.23185.210774-.40574.210774-.13173 0-.23185-.04743-.23185-.200235 0-.163349.10012-.368853.21604-.484778.15808-.152811.40574-.279275.5849-.384661"/><path d="m-121.17368 48.840177.0105.01054c-.21077.252928-.48478.532203-.48478.890517 0 .200234.137.405738.35832.405738.30035 0 .90632-.584896 1.10656-.811476l-.0369-.194966c-.17389.131733-.50586.47424-.73244.47424-.079 0-.16335-.06323-.16335-.147541 0-.210773.2582-.468971.41101-.600704.12119-.100117.22131-.179157.22131-.342506-.0105-.09485-.0474-.179157-.12646-.279275-.0527-.06323-.34251 0-.83783.0685.0211-.04742.0369-.09485.0369-.147542 0-.04742-.0421-.08958-.0948-.08958-.12646 0-.66393.379392-.66393.758783 0 .110656.0316.152811.14227.163349-.10012.142272-.21078.274006-.34778.384661l.0211.231851c.22658-.226581.4479-.363584.63232-.653397l.54801-.121194"/><path d="m-117.66694 48.597787c.0316.179157.0527.321429.0685.432085-.0158.305621-.10012.3952-.41628.590165-.10011-.137002-.21604-.300351-.41101-.31089zm.71663.843093c-.2582.194965-.4637.353045-.80094.295083.33724-.205504.68501-.526934.68501-.959018 0-.231851-.079-.411009-.10012-.611243-.0158-.147541-.0474-.194965-.2055-.194965-.18969 0-.28981.168619-.30035.342507l-1.14344 1.048596c-.0422.04215-.12647.115925-.12647.184427 0 .04742.0369.100117.0896.100117.0474 0 .0843-.03689.11593-.0685.0949.38466.48477.584895.83782.600703.42155.02108.9959-.458432 1.31733-.779861l-.0527-.200234-.31616.242389"/><path d="m-115.13569 49.219568c-.21077.15281-.48477.432085-.76405.432085-.24239 0-.32143-.115925-.27927-.331967.22131-.152811.74297-.621782.74297-.885248 0-.115925-.14227-.147541-.23185-.147541-.31616 0-.97482.627051-.97482 1.269908 0 .268736.14227.627051.45316.627051.40047 0 .86417-.474241 1.10129-.764053l-.0474-.200235m-.24766-1.038058c.22658 0 .42154-.258197.42154-.46897 0-.09485-.079-.163349-.17389-.163349-.2055 0-.45843.189696-.45843.405738 0 .126464.0843.226581.21078.226581"/><path d="m-113.61104 47.881158c.0527-.07377.20551-.247658.20551-.342506 0-.08431-.10012-.100117-.16862-.100117-.30562 0-.42155.247658-.57963.463701-.56381.02108-.60597.105387-.89051.569087l-.058.09485c.27927-.04215.17915-.02108.50058-.02108-.19496.331967-.48478.600704-.80094.843093l.058.200234.26874-.216042.0105.01054c-.0685.152811-.137.353046-.137.526933 0 .210773.12646.353046.33196.353046.4479 0 1.01698-.563819 1.32787-.848363l-.0264-.23185c-.54801.38993-.7377.54801-.90632.54801-.1212 0-.15808-.0685-.15808-.184426 0-.31616.30035-.748246.47951-.980096.57962.03689.62178-.15808.86944-.658666l-.3267-.02635"/><path d="m-157.28546 55.890539c.0527-.07377.2055-.247659.2055-.342506 0-.08431-.10011-.100118-.16862-.100118-.30562 0-.42154.247659-.57962.463701-.56382.02108-.60597.105387-.89052.569088l-.058.09485c.27928-.04215.17916-.02108.50059-.02108-.19497.331967-.48478.600703-.80094.843092l.058.200235.26873-.216043.0105.01054c-.0685.15281-.13701.353045-.13701.526933 0 .210773.12647.353045.33197.353045.44789 0 1.01698-.563819 1.32787-.848362l-.0264-.231851c-.54801.38993-.73771.548011-.90632.548011-.1212 0-.15808-.0685-.15808-.184427 0-.31616.30035-.748245.47951-.980095.57962.03689.62178-.158081.86943-.658666l-.32669-.02635"/><path d="m-155.33597 57.128831c-.27928.221312-.7219.605973-1.09602.605973-.16862 0-.34251-.0685-.3267-.268735l.0105-.115926c1.01171-.331967 1.26991-.721898 1.26991-.980095 0-.210773-.21078-.252928-.3794-.252928-.68501-.0053-1.44906.700821-1.42798 1.391103.0105.347776.18969.690282.57435.690282.52166 0 1.10129-.495317 1.42272-.869439l-.0474-.200235m-1.38056-.03688c.14227-.347776.44789-.600704.71136-.669205.0369-.01054.0632.02108.0632.05796.005.08958-.31089.453162-.77459.611242"/><path d="m-153.85834 55.890539c.0527-.07377.20551-.247659.20551-.342506 0-.08431-.10012-.100118-.16862-.100118-.30562 0-.42155.247659-.57963.463701-.56382.02108-.60597.105387-.89052.569088l-.058.09485c.27928-.04215.17916-.02108.50059-.02108-.19496.331967-.48478.600703-.80094.843092l.058.200235.26874-.216043.0105.01054c-.0685.15281-.137.353045-.137.526933 0 .210773.12646.353045.33196.353045.4479 0 1.01699-.563819 1.32788-.848362l-.0263-.231851c-.54801.38993-.73771.548011-.90633.548011-.12119 0-.15808-.0685-.15808-.184427 0-.31616.30035-.748245.47951-.980095.57963.03689.62178-.158081.86944-.658666l-.3267-.02635"/><path d="m-152.84152 57.181525c-.24766.221311-.53747.374122-.63232.374122-.0369 0-.0421-.05269-.0421-.07904 0-.221312.12646-.337237.28981-.453162.20551-.147541.23712-.194966.40047-.379392.058-.04742.20024-.194966.21077-.279274.0211-.15808-.24766-.110656-.32142-.110656-.0896 0-.15809.01054-.23186.05796-.33723.221312-.73243.748246-.73243 1.25937 0 .226581.14227.521664.40047.521664.28981 0 .64285-.47424.84836-.653397l.0105.01054c-.0527.137002-.11066.284543-.11066.442623 0 .184426.11593.347776.31089.347776.38993 0 .94848-.605973 1.21722-.86417l-.0316-.226581c-.15808.126463-.61124.495317-.81148.495317-.0843 0-.13173-.03162-.13173-.115925 0-.23712.37412-.653398.54274-.806208.0843-.07377.22658-.194966.21604-.321429-.0211-.274005-.079-.289813-.12119-.289813-.13174 0-.64813.500586-.75879.600703l-.52166.468971"/><path d="m-149.38739 57.128831c-.27928.221312-.7219.605973-1.09603.605973-.16861 0-.3425-.0685-.32669-.268735l.0105-.115926c1.01171-.331967 1.26991-.721898 1.26991-.980095 0-.210773-.21078-.252928-.3794-.252928-.68501-.0053-1.44906.700821-1.42798 1.391103.0105.347776.18969.690282.57435.690282.52167 0 1.10129-.495317 1.42272-.869439l-.0474-.200235m-1.38056-.03688c.14227-.347776.44789-.600704.71136-.669205.0369-.01054.0632.02108.0632.05796.005.08958-.31089.453162-.7746.611242"/><path d="m-148.49465 56.849557.0105.01054c-.21077.252927-.48477.532202-.48477.890516 0 .200234.137.405739.35831.405739.30035 0 .90633-.584896 1.10656-.811477l-.0369-.194965c-.17389.131733-.50586.474239-.73244.474239-.079 0-.16335-.06323-.16335-.147541 0-.210773.2582-.468971.41101-.600703.1212-.100118.22131-.179158.22131-.342507-.0105-.09485-.0474-.179157-.12646-.279274-.0527-.06323-.34251 0-.83782.0685.0211-.04742.0369-.09485.0369-.147541 0-.04742-.0421-.08958-.0949-.08958-.12647 0-.66394.379392-.66394.758784 0 .110655.0316.15281.14227.163349-.10011.142271-.21077.274005-.34777.384661l.0211.23185c.22658-.226581.44789-.363584.63232-.653396l.54801-.121195"/><path d="m-144.16063 56.654592.0105.01054c-1.04333 1.053865-1.20668 1.038058-1.31206 1.059136-.079.01581-.10012-.07904-.10539-.105387 0-.258197.15281-.579627 1.40691-.964287m-.28454.711359.0105.01054c-.0685.142271-.19497.421546-.19497.590165 0 .15281.079.279274.25293.279274.2582 0 .96429-.563818 1.19087-.822015l-.0422-.194965c-.22658.15281-.52693.421546-.74825.421546-.0843 0-.16335-.03688-.16335-.126464 0-.247658.45844-.616512.45844-.78513 0-.115925-.0527-.173888-.15281-.216042.0474-.01581.18442-.0685.18442-.131734 0-.06323-.10011-.258197-.3425-.252928-.61125.01581-1.98127.690283-1.96019 1.348949.0105.274005.31616.621781.4637.621781.12119 0 .45843-.274006.55855-.353045l.48477-.389931"/><path d="m-140.58103 55.653419c.0843-.131733.22658-.347776.22658-.505856 0-.09485-.0632-.200234-.16861-.200234-.38467 0-.84837 1.090751-1.02225 1.391103-.0685-.07904-.11066-.152811-.22132-.147541-.44789.02635-1.49649.55328-1.49649 1.17506 0 .184426.14755.690283.38466.690283.23713 0 .72717-.511126.9116-.669205-.0211.131732-.0422.268735-.0422.400469 0 .168618.079.379391.27927.379391.38467 0 .92741-.55328 1.17506-.827284l-.0369-.173888c-.16861.110655-.65339.537471-.83255.537471-.11592 0-.12119-.179157-.12119-.263466 0-.337237.25292-.679744.42681-.953749l.53747-.832554m-1.14344.995903c-.0843.31089-.93267.94321-.9959.927403-.058-.01054-.0843-.05269-.079-.100118.0316-.347776.14754-.526933 1.07494-.827285"/><path d="m-139.14275 57.228949c-.21077.15281-.48477.432085-.76405.432085-.24239 0-.32143-.115926-.27927-.331968.22131-.152811.74297-.621781.74297-.885247 0-.115926-.14227-.147542-.23185-.147542-.31616 0-.97483.627051-.97483 1.269909 0 .268735.14228.62705.45317.62705.40047 0 .86417-.47424 1.10129-.764053l-.0474-.200234m-.24766-1.038058c.22658 0 .42154-.258198.42154-.468971 0-.09485-.079-.163349-.17388-.163349-.20551 0-.45844.189696-.45844.405739 0 .126463.0843.226581.21078.226581"/><path d="m-137.96587 57.571455c-.14228-.04742-.28982-.06323-.44263-.05269.14227-.189696.28981-.368854.48478-.511125.0685-.04742.32143-.210773.40574-.210773.0422 0 .058.03689.058.07377 0 .09485-.0738.184427-.13174.258197l-.37412.442624m-.80094.453163c.0685.01581.13701.03162.21078.03162.0843 0 .16335-.01581.24239-.03162.12646.06323.23185.105386.37412.105386.56909 0 1.04333-.379392 1.43326-.758783l-.0369-.24239c-.56382.484778-.66921.569088-1.12237.537472.59016-.521663.85363-.885248.85363-1.17506 0-.137003-.079-.247659-.22131-.247659-.28455 0-.81675.347776-1.04333.511125l-.0105-.01054c.10539-.237119.26874-.432085.44789-.621781.0843-.08958.35832-.342506.35832-.458431 0-.100117-.16862-.126464-.24239-.126464-.20023 0-.29508.15281-.42155.289813l-1.39637 1.501759.0211.247659.83256-.795669.0105.01054c-.34251.579626-.60598 1.011712-.84837 1.354218-.21604.305621-.33196.569088-.32669.832554 0 .09485.0316.23712.15281.23712.10011 0 .19496-.142272.23712-.221312l.49531-.969556"/><path d="m-135.10842 57.228949c-.21077.15281-.48477.432085-.76405.432085-.24239 0-.32143-.115926-.27927-.331968.22131-.152811.74297-.621781.74297-.885247 0-.115926-.14227-.147542-.23185-.147542-.31616 0-.97482.627051-.97482 1.269909 0 .268735.14227.62705.45316.62705.40047 0 .86417-.47424 1.10129-.764053l-.0474-.200234m-.24766-1.038058c.22658 0 .42155-.258198.42155-.468971 0-.09485-.079-.163349-.17389-.163349-.20551 0-.45843.189696-.45843.405739 0 .126463.0843.226581.21077.226581"/><path d="m-134.28459 56.607168c.0316.179157.0527.321429.0685.432085-.0158.305621-.10012.3952-.41628.590165-.10011-.137003-.21604-.300352-.411-.310891zm.71663.843093c-.2582.194964-.4637.353044-.80094.295082.33724-.205504.68501-.526933.68501-.959018 0-.23185-.079-.411008-.10011-.611242-.0158-.147541-.0474-.194965-.20551-.194965-.18969 0-.28981.168618-.30035.342506l-1.14344 1.048597c-.0422.04215-.12647.115925-.12647.184426 0 .04742.0369.100117.0896.100117.0474 0 .0843-.03689.11593-.0685.0949.384661.48478.584896.83782.600704.42155.02108.99591-.458432 1.31733-.779861l-.0527-.200235-.31616.24239"/><path d="m-132.16961 56.791594c.005.100117.058.231851.17916.231851.14227 0 .55854-.405739.55854-.695552 0-.15808-.0738-.242389-.23712-.242389-.29508 0-.80093.284544-1.03805.463701-.34251.258197-.50059.421547-.50059.86417 0 .38993.19497.769322.6007.769322.50059 0 1.09076-.521664 1.41218-.86417l-.0632-.205504c-.30562.23712-.76405.605973-1.16452.605973-.274 0-.40047-.163349-.40047-.284543 0-.147542.0949-.226582.21078-.310891l.44262-.331968"/><path d="m-129.85967 57.228949c-.21077.15281-.48478.432085-.76405.432085-.24239 0-.32143-.115926-.27928-.331968.22132-.152811.74298-.621781.74298-.885247 0-.115926-.14227-.147542-.23185-.147542-.31616 0-.97483.627051-.97483 1.269909 0 .268735.14227.62705.45317.62705.40046 0 .86417-.47424 1.10128-.764053l-.0474-.200234m-.24765-1.038058c.22658 0 .42154-.258198.42154-.468971 0-.09485-.079-.163349-.17389-.163349-.2055 0-.45843.189696-.45843.405739 0 .126463.0843.226581.21078.226581"/><path d="m-127.68689 57.334335c-.0949.07904-.3267.263467-.45317.263467-.0527 0-.0949-.04743-.0949-.09485 0-.363584.64813-.764053.64813-.969557-.0158-.110656-.0474-.205504-.079-.284544-.0316-.07377-.0632-.100117-.0843-.100117-.15281 0-1.12237.648128-1.54391 1.185599-.0211.02635-.0685.07377-.10539.07377-.0316 0-.058-.02635-.058-.05796 0-.126464.66394-.658666.66394-.86417 0-.03162.0263-.105386-.28982-.115925-.0896 0-.137.0053-.2055.06323-.30562.258197-.63759.790399-.62178 1.153983.005.179157.0632.511125.29508.511125.14227 0 .33724-.258197.41628-.358314.23712-.305621.50585-.579627.81148-.806208l.0105.01054c-.16862.242389-.45317.590165-.45317.906325 0 .179156.0948.347775.29508.347775.38467 0 .92741-.648128 1.20668-.895786l-.0421-.23185-.31616.263466"/><path d="m-126.36989 58.072042c-.28981.210772-1.09075.874708-1.09075 1.2541 0 .0685.0474.126464.12119.126464.20551 0 .66921-.337238 1.22249-1.217215l1.11183-.832554-.0264-.221312-.80093.574357-.0105-.01054.3952-.737706c.0369-.0685.11065-.189696.11065-.268736 0-.08958-.0948-.268736-.20023-.268736-.0843 0-.14754.08958-.20024.147541l-.56382.621781c-.20023.216042-.52166.342507-.6692.326699-.0474 0-.079-.01054-.0843-.05269-.0474-.384662.34251-.532203.67447-.71136l.60071-.326698c.0685-.04742.17389-.121195.17389-.216043 0-.115925-.20551-.137003-.27928-.131733-.40574.03688-1.55445.595435-1.55445 1.285716 0 .23185.10012.616512.3952.616512.28981 0 .84309-.47951 1.03279-.690282l.0105.01054-.36886.721899"/><path d="m-121.3735 57.128831c-.27927.221312-.72189.605973-1.09602.605973-.16862 0-.3425-.0685-.32669-.268735l.0105-.115926c1.01171-.331967 1.2699-.721898 1.2699-.980095 0-.210773-.21077-.252928-.37939-.252928-.68501-.0053-1.44906.700821-1.42799 1.391103.0105.347776.1897.690282.57436.690282.52166 0 1.10129-.495317 1.42272-.869439l-.0474-.200235m-1.38056-.03688c.14227-.347776.44789-.600704.71135-.669205.0369-.01054.0632.02108.0632.05796.005.08958-.31089.453162-.77459.611242"/><path d="m-120.82326 56.617706c.24766-.54274.54801-1.016981.80621-1.143444-.0949.300351-.42155.806207-.79567 1.153983l-.0105-.01054m1.02752.558549c-.21078.189696-.61651.526933-.90633.526933-.14227 0-.21604-.105387-.26346-.226581-.0264-.126464-.0105-.274005.0369-.363584 1.14344-1.106558 1.28044-1.570261 1.31733-2.070846.005-.0685-.0158-.194965-.10539-.194965-.16862 0-.6692.490048-1.1329 1.064404-.34251.421546-.57963 1.016981-.57963 1.570261 0 .31089.0843.685012.46897.685012.45316 0 .94848-.532202 1.23829-.832554l-.0738-.15808"/><path d="m-118.37418 57.228949c-.21077.15281-.48478.432085-.76405.432085-.24239 0-.32143-.115926-.27928-.331968.22132-.152811.74298-.621781.74298-.885247 0-.115926-.14227-.147542-.23185-.147542-.31616 0-.97483.627051-.97483 1.269909 0 .268735.14228.62705.45317.62705.40047 0 .86417-.47424 1.10129-.764053l-.0474-.200234m-.24766-1.038058c.22658 0 .42154-.258198.42154-.468971 0-.09485-.079-.163349-.17388-.163349-.20551 0-.45844.189696-.45844.405739 0 .126463.0843.226581.21078.226581"/><path d="m-116.84953 55.890539c.0527-.07377.2055-.247659.2055-.342506 0-.08431-.10011-.100118-.16861-.100118-.30562 0-.42155.247659-.57963.463701-.56382.02108-.60597.105387-.89052.569088l-.058.09485c.27928-.04215.17916-.02108.50059-.02108-.19496.331967-.48478.600703-.80094.843092l.058.200235.26874-.216043.0105.01054c-.0685.15281-.13701.353045-.13701.526933 0 .210773.12647.353045.33197.353045.4479 0 1.01698-.563819 1.32787-.848362l-.0264-.231851c-.54801.38993-.7377.548011-.90632.548011-.12119 0-.15808-.0685-.15808-.184427 0-.31616.30035-.748245.47951-.980095.57962.03689.62178-.158081.86944-.658666l-.3267-.02635"/><path d="m-116.18576 58.140543c.3267.03688.45843-.611242.45843-.616512 0-.15281-.18443-.15281-.25819-.168618-.30036-.06323-.53221.374122-.53221.563818 0 .179157.1897.205504.33197.221312"/><path d="m-156.72609 69.126514c-.13701.252928-.28455.584896-.28455.874709 0 .226581.0949.458432.35832.458432.22658 0 .77986-.284544 1.53864-1.264639.0421-.05269.058-.07904.058-.121195 0-.04742-.0105-.110656-.0211-.23712-.15281.189696-.84309.901055-1.05386.901055-.11593 0-.13701-.121194-.13701-.216042 0-.02108.0105-.126464.16335-.432085.50586-1.001173 1.18033-1.680916 1.18033-2.012884 0-.252927-.3425-.500586-.43208-.500586-.1212 0-.5164.300351-.67448.405738-.13173.08958-.57962.526933-1.59133 1.744148l-.0105-.01054c.67974-1.196138.88524-1.543914.91686-1.96546.0158-.194965-.15808-.295083-.33724-.295083-.43735 0-1.09075.368854-1.46487.574357l-.0105-.01054c.2582-.247657.28454-.331967.28454-.337236 0-.02635-.0316-.04216-.058-.04216-.15808 0-1.06967.679743-1.06967 1.312063 0 .06323-.005.23185.0949.23185.0474 0 .11592-.03689.15808-.0685.88524-.584896 1.46487-.86944 1.64403-.86944.0685 0 .0843.04216.0843.110656 0 .289814-1.01171 2.055039-1.22775 2.387007-.0158.02635-.0527.08431-.0527.115925 0 .121195.30035.331968.41627.331968.0685 0 .13174-.09485.16862-.147541.27928-.374123.83783-1.132906.99064-1.306794.37412-.421547.81147-.848362 1.2541-1.269909l.0105.01054-.89579 1.6493"/><path d="m-154.24457 69.200285c-.24766.221312-.53747.374122-.63232.374122-.0369 0-.0422-.05269-.0422-.07904 0-.221312.12647-.337237.28982-.453162.2055-.147541.23712-.194965.40046-.379392.058-.04742.20024-.194965.21078-.279274.0211-.15808-.24766-.110656-.32143-.110656-.0896 0-.15808.01054-.23185.05796-.33724.221312-.73244.748245-.73244 1.25937 0 .226581.14227.521664.40047.521664.28981 0 .64286-.47424.84836-.653397l.0105.01054c-.0527.137002-.11065.284543-.11065.442623 0 .184427.11592.347776.31089.347776.38993 0 .94848-.605973 1.21721-.86417l-.0316-.226581c-.15808.126464-.61124.495317-.81147.495317-.0843 0-.13174-.03162-.13174-.115925 0-.23712.37412-.653397.54274-.806208.0843-.07377.22659-.194965.21605-.321429-.0211-.274005-.079-.289813-.1212-.289813-.13173 0-.64813.500586-.75878.600703l-.52166.468971"/><path d="m-150.54805 69.353095c-.0949.07904-.3267.263467-.45316.263467-.0527 0-.0949-.04742-.0949-.09485 0-.363584.64812-.764053.64812-.969557-.0158-.110656-.0474-.205504-.079-.284544-.0316-.07377-.0632-.100117-.0843-.100117-.15281 0-1.12237.648128-1.54391 1.185599-.0211.02635-.0685.07377-.10539.07377-.0316 0-.058-.02635-.058-.05796 0-.126464.66394-.658666.66394-.86417 0-.03162.0264-.105386-.28981-.115925-.0896 0-.13701.0053-.20551.06323-.30562.258197-.63759.790399-.62178 1.153983.005.179157.0632.511125.29508.511125.14228 0 .33724-.258197.41628-.358314.23712-.305621.50586-.579626.81148-.806208l.0105.01054c-.16862.242389-.45316.590165-.45316.906325 0 .179157.0949.347776.29508.347776.38466 0 .9274-.648128 1.20668-.895787l-.0422-.23185-.31616.263466"/><path d="m-149.24686 68.810354c.005.100118.058.231851.17916.231851.14227 0 .55855-.405738.55855-.695552 0-.158079-.0738-.242389-.23712-.242389-.29508 0-.80094.284544-1.03806.463701-.3425.258197-.50058.421547-.50058.86417 0 .389931.19496.769323.6007.769323.50058 0 1.09075-.521664 1.41218-.864171l-.0632-.205503c-.30562.237119-.76405.605972-1.16452.605972-.27401 0-.40047-.163349-.40047-.284543 0-.147542.0949-.226582.21077-.310891l.44263-.331968"/><path d="m-143.96583 69.047474.0105.01054c-.13173.216042-.38993.590165-.38993.853631 0 .152811.11066.305622.26874.305622.29508 0 1.05387-.621781 1.30152-.816747l-.0316-.247658c-.64813.442624-.7061.442624-.81675.46897-.0632.01581-.13173-.0685-.12647-.131733.005-.121195.0369-.205504.4479-.658666.058-.06323.16335-.179157.16335-.268736 0-.07377-.058-.152811-.0949-.210773-.0158-.02108-.0685-.147541-.11066-.147541-.0632 0-.19496.105386-.24766.147541l-1.16979.922132-.0105-.01054c.11593-.205504.49005-.63232.49005-.86417 0-.137003-.0738-.242389-.21604-.242389-.34251 0-1.28045.93794-1.53865 1.206676-.0158.01581-.079.08431-.10538.08431-.0211 0-.0369-.03688-.0369-.04742 0-.110656.0949-.194965.15281-.274005.079-.115925.19496-.210773.28981-.321429.0632-.07377.21077-.23185.21077-.337237 0-.110656-.15808-.110656-.23712-.121195-.31616-.04215-.8747.663936-.87997 1.18033 0 .189696.0738.600704.32669.600704.0949 0 .16862-.07904.22659-.147541.24765-.305621.54274-.621781.81674-.911594.0369-.03689.15281-.16335.2055-.16335.0211 0 .0369.01581.0369.03689 0 .01581-.0211.05796-.0316.0685-.34251.521664-.46898.764053-.46371.916863.005.126464.10539.221312.23185.221312.17916 0 .36886-.216042.49005-.331968l.83782-.769322"/><path d="m-140.93103 69.147592c-.27927.221311-.7219.605972-1.09602.605972-.16862 0-.34251-.0685-.3267-.268735l.0105-.115926c1.01171-.331967 1.26991-.721898 1.26991-.980095 0-.210773-.21077-.252928-.37939-.252928-.68501-.0053-1.44907.700821-1.42799 1.391103.0105.347776.1897.690283.57436.690283.52166 0 1.10129-.495317 1.42272-.86944l-.0474-.200234m-1.38057-.03689c.14227-.347776.44789-.600703.71136-.669205.0369-.01054.0632.02108.0632.05796.005.08958-.31089.453162-.77459.611242"/><path d="m-139.4534 67.909299c.0527-.07377.20551-.247658.20551-.342506 0-.08431-.10012-.100118-.16862-.100118-.30562 0-.42155.247659-.57963.463701-.56381.02108-.60597.105387-.89051.569088l-.058.09485c.27927-.04216.17915-.02108.50058-.02108-.19496.331967-.48478.600703-.80093.843092l.058.200235.26874-.216043.0105.01054c-.0685.152811-.137.353045-.137.526933 0 .210773.12646.353045.33197.353045.44789 0 1.01698-.563818 1.32787-.848362l-.0264-.23185c-.54801.38993-.73771.54801-.90633.54801-.12119 0-.15808-.0685-.15808-.184427 0-.31616.30035-.748245.47951-.980095.57963.03688.62178-.15808.86944-.658666l-.3267-.02635"/><path d="m-138.43658 69.200285c-.24766.221312-.53747.374122-.63232.374122-.0369 0-.0422-.05269-.0422-.07904 0-.221312.12647-.337237.28981-.453162.20551-.147541.23712-.194965.40047-.379392.058-.04742.20024-.194965.21078-.279274.0211-.15808-.24766-.110656-.32143-.110656-.0896 0-.15808.01054-.23185.05796-.33724.221312-.73244.748245-.73244 1.25937 0 .226581.14227.521664.40047.521664.28981 0 .64286-.47424.84836-.653397l.0105.01054c-.0527.137002-.11065.284543-.11065.442623 0 .184427.11592.347776.31089.347776.38993 0 .94848-.605973 1.21721-.86417l-.0316-.226581c-.15808.126464-.61124.495317-.81147.495317-.0843 0-.13174-.03162-.13174-.115925 0-.23712.37412-.653397.54274-.806208.0843-.07377.22658-.194965.21605-.321429-.0211-.274005-.079-.289813-.1212-.289813-.13173 0-.64813.500586-.75878.600703l-.52167.468971"/><path d="m-136.08901 68.625928c.0316.179157.0527.321429.0685.432085-.0158.305621-.10012.3952-.41628.590165-.10011-.137003-.21604-.300352-.411-.310891zm.71663.843093c-.2582.194965-.4637.353045-.80094.295082.33724-.205504.68501-.526933.68501-.959018 0-.23185-.079-.411008-.10012-.611242-.0158-.147541-.0474-.194965-.2055-.194965-.18969 0-.28981.168618-.30035.342506l-1.14344 1.048597c-.0422.04215-.12647.115925-.12647.184426 0 .04742.0369.100118.0896.100118.0474 0 .0843-.03689.11593-.0685.0948.384661.48478.584896.83782.600704.42155.02108.9959-.458432 1.31733-.779861l-.0527-.200235-.31616.24239"/><path d="m-134.3745 70.159303c.3267.03689.45843-.611242.45843-.616512 0-.15281-.18443-.15281-.2582-.168618-.30035-.06323-.5322.374122-.5322.563818 0 .179157.1897.205504.33197.221312"/><path d="m-130.50352 69.258247c1.68618.189696 3.05094-.600703 3.05094-1.72307 0-.653397-.36359-1.074943-1.67037-1.074943-.47425 0-.95903.05269-1.41746.184426-.14754.04216-.30562.08431-.40047.216042-.0843.115926-.38992.521664-.38992.648128 0 .04742.0527.05269.0843.05269.15809 0 .89052-.337237 1.81266-.353045l-.83783 1.106559c-.22131.0685-.84309.210774-.84309.516395 0 .163349.11065.258197.23712.337237-.12647.221312-.50059.795669-.50059 1.027519 0 .115925.0527.189696.17916.189696.13173 0 .24239-.152811.31089-.247658.137-.184427.26874-.358315.26874-.426816 0-.05796-.0527-.08431-.10012-.09485l.21604-.358315m1.25937-1.775764c.079-.110656.11066-.179157.11593-.321429.24239 0 1.23302.06323 1.29098.384661.058.331968-.62178 1.085482-1.65457 1.143445-.16862.01054-.34777 0-.54274-.05269l.11593-.173888c.0843-.05796.5322-.08431.5322-.189696 0-.100117-.21604-.02635-.41101-.02635z"/><path d="m-127.37782 69.263517c.33724-.331968 2.01288-2.070847 2.01288-2.429161 0-.105386-.14227-.142272-.22658-.142272-.17915 0-1.22775.922133-1.84953 1.949652-.18443.300352-.32143.55328-.32143.916863 0 .121195.0264.532203.21077.532203.16862 0 .43209-.558549 1.33314-1.175061l.0105.01054c-.18969.247658-.55328.648127-.55328.980095 0 .142272.0843.279275.24239.279275.28982 0 .9274-.516395 1.16979-.700821l-.0264-.216043c-.15281.100117-.53747.384661-.71136.384661-.0632 0-.11592-.04215-.11592-.110656 0-.05269-.0158-.0685.31089-.463701.0632-.07377.274-.305621.274-.405738 0-.121195-.12646-.252928-.25292-.252928-.28982 0-1.24883.843093-1.50703 1.048597v-.205504"/><path d="m-123.75565 68.673352.0105.01054c-1.04333 1.053865-1.20668 1.038058-1.31206 1.059135-.079.01581-.10012-.07904-.10539-.105387 0-.258197.15281-.579626 1.40691-.964287m-.28454.711359.0105.01054c-.0685.142272-.19497.421546-.19497.590165 0 .152811.079.279274.25293.279274.2582 0 .96429-.563818 1.19087-.822015l-.0422-.194965c-.22658.15281-.52694.421546-.74825.421546-.0843 0-.16335-.03689-.16335-.126464 0-.247658.45843-.616511.45843-.78513 0-.115925-.0527-.173888-.15281-.216042.0474-.01581.18443-.0685.18443-.131734 0-.06323-.10012-.258197-.3425-.252927-.61125.01581-1.98127.690282-1.9602 1.348948.0105.274005.31616.621781.4637.621781.1212 0 .45844-.274005.55855-.353045l.48478-.389931"/><path d="m-122.02031 68.625928c.0316.179157.0527.321429.0685.432085-.0158.305621-.10012.3952-.41628.590165-.10011-.137003-.21604-.300352-.41101-.310891zm.71663.843093c-.2582.194965-.4637.353045-.80094.295082.33724-.205504.68501-.526933.68501-.959018 0-.23185-.079-.411008-.10012-.611242-.0158-.147541-.0474-.194965-.2055-.194965-.1897 0-.28981.168618-.30035.342506l-1.14345 1.048597c-.0422.04215-.12646.115925-.12646.184426 0 .04742.0369.100118.0896.100118.0474 0 .0843-.03689.11592-.0685.0948.384661.48478.584896.83783.600704.42154.02108.9959-.458432 1.31733-.779861l-.0527-.200235-.31616.24239"/><path d="m-119.02009 69.147592c-.27927.221311-.7219.605972-1.09602.605972-.16862 0-.3425-.0685-.32669-.268735l.0105-.115926c1.01172-.331967 1.26991-.721898 1.26991-.980095 0-.210773-.21077-.252928-.37939-.252928-.68501-.0053-1.44906.700821-1.42799 1.391103.0105.347776.1897.690283.57436.690283.52166 0 1.10129-.495317 1.42272-.86944zm-1.38056-.03689c.14227-.347776.44789-.600703.71135-.669205.0369-.01054.0632.02108.0632.05796.005.08958-.31089.453162-.77459.611242"/><path d="m-118.46985 68.636467c.24765-.542741.54801-1.016981.8062-1.143445-.0949.300352-.42154.806207-.79567 1.153983l-.0105-.01054m1.02751.558549c-.21077.189695-.61651.526933-.90632.526933-.14227 0-.21604-.105387-.26347-.226582-.0264-.126464-.0105-.274005.0369-.363583 1.14345-1.10656 1.28045-1.570261 1.31734-2.070847.005-.0685-.0158-.194965-.10539-.194965-.16862 0-.66921.490047-1.13291 1.064404-.3425.421547-.57962 1.016981-.57962 1.570261 0 .31089.0843.685013.46897.685013.45316 0 .94848-.532203 1.23829-.832555l-.0738-.158079"/><path d="m-116.88494 68.636467c.24766-.542741.54801-1.016981.80621-1.143445-.0949.300352-.42154.806207-.79567 1.153983l-.0105-.01054m1.02752.558549c-.21077.189695-.61651.526933-.90632.526933-.14228 0-.21605-.105387-.26347-.226582-.0263-.126464-.0105-.274005.0369-.363583 1.14344-1.10656 1.28045-1.570261 1.31733-2.070847.005-.0685-.0158-.194965-.10538-.194965-.16862 0-.66921.490047-1.13291 1.064404-.34251.421547-.57963 1.016981-.57963 1.570261 0 .31089.0843.685013.46897.685013.45317 0 .94848-.532203 1.2383-.832555l-.0738-.158079"/><path d="m-114.89955 69.200285c-.24766.221312-.53748.374122-.63232.374122-.0369 0-.0422-.05269-.0422-.07904 0-.221312.12646-.337237.28981-.453162.2055-.147541.23712-.194965.40047-.379392.058-.04742.20023-.194965.21077-.279274.0211-.15808-.24766-.110656-.32143-.110656-.0896 0-.15808.01054-.23185.05796-.33723.221312-.73243.748245-.73243 1.25937 0 .226581.14227.521664.40047.521664.28981 0 .64285-.47424.84836-.653397l.0105.01054c-.0527.137002-.11066.284543-.11066.442623 0 .184427.11593.347776.31089.347776.38993 0 .94848-.605973 1.21722-.86417l-.0316-.226581c-.15808.126464-.61125.495317-.81148.495317-.0843 0-.13173-.03162-.13173-.115925 0-.23712.37412-.653397.54274-.806208.0843-.07377.22658-.194965.21604-.321429-.0211-.274005-.079-.289813-.12119-.289813-.13174 0-.64813.500586-.75879.600703l-.52166.468971"/><path d="m-112.55198 68.625928c.0316.179157.0527.321429.0685.432085-.0158.305621-.10012.3952-.41628.590165-.10012-.137003-.21604-.300352-.41101-.310891l.75878-.711359m.71663.843093c-.25819.194965-.4637.353045-.80093.295082.33723-.205504.68501-.526933.68501-.959018 0-.23185-.079-.411008-.10012-.611242-.0158-.147541-.0474-.194965-.2055-.194965-.1897 0-.28982.168618-.30035.342506l-1.14345 1.048597c-.0421.04215-.12646.115925-.12646.184426 0 .04742.0369.100118.0896.100118.0474 0 .0843-.03689.11592-.0685.0949.384661.48478.584896.83783.600704.42154.02108.9959-.458432 1.31733-.779861l-.0527-.200235-.31616.24239"/><path d="m-157.98628 76.635309c.0316.179157.0527.321429.0685.432085-.0158.305621-.10012.3952-.41628.590165-.10012-.137002-.21604-.300352-.41101-.31089zm.71663.843093c-.2582.194965-.4637.353045-.80094.295082.33724-.205503.68501-.526932.68501-.959018 0-.23185-.079-.411007-.10012-.611242-.0158-.147541-.0474-.194965-.2055-.194965-.1897 0-.28981.168619-.30035.342506l-1.14345 1.048597c-.0421.04216-.12646.115925-.12646.184427 0 .04742.0369.100117.0896.100117.0474 0 .0843-.03688.11592-.0685.0949.384661.48478.584895.83783.600703.42154.02108.9959-.458431 1.31733-.779861l-.0527-.200234-.31616.242389"/><path d="m-154.98606 77.156973c-.27927.221312-.7219.605973-1.09602.605973-.16862 0-.3425-.0685-.3267-.268736l.0105-.115925c1.01171-.331968 1.26991-.721898 1.26991-.980096 0-.210773-.21077-.252927-.37939-.252927-.68501-.0053-1.44906.70082-1.42799 1.391103.0105.347775.1897.690282.57436.690282.52166 0 1.10129-.495317 1.42272-.86944l-.0474-.200234m-1.38057-.03688c.14228-.347776.4479-.600704.71136-.669205.0369-.01054.0632.02108.0632.05796.005.08958-.31089.453163-.77459.611243"/><path d="m-152.36498 75.681561c.0843-.131734.22658-.347776.22658-.505856 0-.09485-.0632-.200235-.16862-.200235-.38466 0-.84836 1.090752-1.02224 1.391103-.0685-.07904-.11066-.15281-.22132-.147541-.44789.02635-1.49649.55328-1.49649 1.175061 0 .184426.14755.690282.38466.690282.23712 0 .72717-.511125.9116-.669205-.0211.131733-.0422.268736-.0422.400469 0 .168619.079.379392.27927.379392.38467 0 .92741-.55328 1.17506-.827285l-.0369-.173888c-.16861.110656-.65339.537472-.83255.537472-.11593 0-.12119-.179157-.12119-.263467 0-.337237.25292-.679743.42681-.953748l.53747-.832554m-1.14344.995903c-.0843.31089-.93267.94321-.9959.927402-.058-.01054-.0843-.05269-.079-.100117.0316-.347776.14754-.526933 1.07494-.827285"/><path d="m-149.42049 77.599597c-.14227-.04742-.28982-.06323-.44263-.05269.14228-.189696.28982-.368853.48478-.511125.0685-.04742.32143-.210773.40574-.210773.0422 0 .058.03688.058.07377 0 .09485-.0738.184426-.13173.258197l-.37412.442624m-.80094.453162c.0685.01581.137.03162.21077.03162.0843 0 .16335-.01581.24239-.03162.12646.06323.23185.105387.37412.105387.56909 0 1.04333-.379392 1.43326-.758784l-.0369-.242389c-.56382.484778-.66921.569088-1.12237.537472.59017-.521664.85363-.885248.85363-1.175061 0-.137003-.079-.247659-.22131-.247659-.28454 0-.81674.347776-1.04333.511125l-.0105-.01054c.10539-.23712.26874-.432085.4479-.621781.0843-.08958.35831-.342507.35831-.458432 0-.100117-.16862-.126464-.24239-.126464-.20023 0-.29508.152811-.42154.289813l-1.39637 1.501759.0211.247659.83255-.795669.0105.01054c-.34251.579626-.60598 1.011711-.84836 1.354218-.21605.305621-.33197.569087-.3267.832554 0 .09485.0316.23712.15281.23712.10012 0 .19496-.142272.23712-.221312l.49532-.969557"/><path d="m-147.02673 77.209666c-.24766.221312-.53748.374123-.63232.374123-.0369 0-.0422-.05269-.0422-.07904 0-.221312.12646-.337237.28981-.453163.2055-.147541.23712-.194965.40047-.379391.058-.04742.20023-.194966.21077-.279275.0211-.15808-.24766-.110656-.32143-.110656-.0896 0-.15808.01054-.23185.05796-.33724.221312-.73243.748245-.73243 1.25937 0 .226581.14227.521663.40046.521663.28982 0 .64286-.474239.84837-.653397l.0105.01054c-.0527.137003-.11066.284544-.11066.442624 0 .184426.11592.347776.31089.347776.38993 0 .94848-.605973 1.21722-.864171l-.0316-.226581c-.15808.126464-.61125.495317-.81148.495317-.0843 0-.13173-.03162-.13173-.115925 0-.23712.37412-.653397.54274-.806207.0843-.07377.22658-.194966.21604-.32143-.0211-.274005-.079-.289813-.1212-.289813-.13173 0-.64812.500587-.75878.600704l-.52166.46897"/><path d="m-144.56324 76.877698.0105.01054c-.21077.252928-.48478.532202-.48478.890517 0 .200234.137.405738.35832.405738.30035 0 .90632-.584895 1.10655-.811477l-.0369-.194965c-.17388.131733-.50585.47424-.73243.47424-.079 0-.16335-.06323-.16335-.147541 0-.210774.2582-.468971.411-.600704.1212-.100117.22132-.179157.22132-.342506-.0105-.09485-.0474-.179158-.12647-.279275-.0527-.06323-.3425 0-.83782.0685.0211-.04742.0369-.09485.0369-.147541 0-.04742-.0422-.08958-.0949-.08958-.12646 0-.66394.379391-.66394.758783 0 .110656.0316.152811.14228.163349-.10012.142272-.21078.274005-.34778.384661l.0211.231851c.22658-.226581.44789-.363584.63232-.653397l.54801-.121195"/><path d="m-142.53957 77.209666c-.24766.221312-.53747.374123-.63232.374123-.0369 0-.0422-.05269-.0422-.07904 0-.221312.12646-.337237.28981-.453163.20551-.147541.23712-.194965.40047-.379391.058-.04742.20024-.194966.21077-.279275.0211-.15808-.24765-.110656-.32142-.110656-.0896 0-.15808.01054-.23185.05796-.33724.221312-.73244.748245-.73244 1.25937 0 .226581.14227.521663.40047.521663.28981 0 .64286-.474239.84836-.653397l.0105.01054c-.0527.137003-.11066.284544-.11066.442624 0 .184426.11593.347776.31089.347776.38993 0 .94848-.605973 1.21722-.864171l-.0316-.226581c-.15808.126464-.61124.495317-.81148.495317-.0843 0-.13173-.03162-.13173-.115925 0-.23712.37412-.653397.54274-.806207.0843-.07377.22658-.194966.21604-.32143-.0211-.274005-.079-.289813-.12119-.289813-.13173 0-.64813.500587-.75878.600704l-.52167.46897"/><path d="m-140.192 76.635309c.0316.179157.0527.321429.0685.432085-.0158.305621-.10012.3952-.41628.590165-.10012-.137002-.21604-.300352-.41101-.31089zm.71663.843093c-.2582.194965-.46371.353045-.80094.295082.33723-.205503.68501-.526932.68501-.959018 0-.23185-.079-.411007-.10012-.611242-.0158-.147541-.0474-.194965-.2055-.194965-.1897 0-.28981.168619-.30035.342506l-1.14345 1.048597c-.0422.04216-.12646.115925-.12646.184427 0 .04742.0369.100117.0896.100117.0474 0 .0843-.03688.11592-.0685.0949.384661.48478.584895.83783.600703.42154.02108.9959-.458431 1.31733-.779861l-.0527-.200234-.31616.242389"/><path d="m-136.28628 76.819736c.005.100117.058.23185.17916.23185.14227 0 .55855-.405738.55855-.695551 0-.15808-.0738-.242389-.23712-.242389-.29508 0-.80094.284543-1.03806.463701-.3425.258197-.50058.421546-.50058.86417 0 .38993.19496.769322.6007.769322.50058 0 1.09075-.521664 1.41218-.86417l-.0632-.205504c-.30562.23712-.76405.605973-1.16452.605973-.27401 0-.40047-.163349-.40047-.284544 0-.147541.0948-.226581.21077-.31089l.44263-.331968"/><path d="m-134.44003 77.209666c-.24766.221312-.53748.374123-.63232.374123-.0369 0-.0422-.05269-.0422-.07904 0-.221312.12646-.337237.28981-.453163.2055-.147541.23712-.194965.40047-.379391.058-.04742.20023-.194966.21077-.279275.0211-.15808-.24766-.110656-.32143-.110656-.0896 0-.15808.01054-.23185.05796-.33723.221312-.73243.748245-.73243 1.25937 0 .226581.14227.521663.40046.521663.28982 0 .64286-.474239.84837-.653397l.0105.01054c-.0527.137003-.11066.284544-.11066.442624 0 .184426.11593.347776.31089.347776.38993 0 .94848-.605973 1.21722-.864171l-.0316-.226581c-.15808.126464-.61125.495317-.81148.495317-.0843 0-.13173-.03162-.13173-.115925 0-.23712.37412-.653397.54274-.806207.0843-.07377.22658-.194966.21604-.32143-.0211-.274005-.079-.289813-.1212-.289813-.13173 0-.64812.500587-.75878.600704l-.52166.46897"/><path d="m-131.97654 76.877698.0105.01054c-.21077.252928-.48478.532202-.48478.890517 0 .200234.13701.405738.35832.405738.30035 0 .90632-.584895 1.10656-.811477l-.0369-.194965c-.17389.131733-.50586.47424-.73244.47424-.079 0-.16335-.06323-.16335-.147541 0-.210774.2582-.468971.41101-.600704.12119-.100117.22131-.179157.22131-.342506-.0105-.09485-.0474-.179158-.12646-.279275-.0527-.06323-.34251 0-.83783.0685.0211-.04742.0369-.09485.0369-.147541 0-.04742-.0422-.08958-.0949-.08958-.12646 0-.66393.379391-.66393.758783 0 .110656.0316.152811.14227.163349-.10012.142272-.21077.274005-.34778.384661l.0211.231851c.22658-.226581.44789-.363584.63232-.653397l.54801-.121193"/><path d="m-130.26055 76.635309c.0316.179157.0527.321429.0685.432085-.0158.305621-.10012.3952-.41628.590165-.10011-.137002-.21604-.300352-.411-.31089zm.71663.843093c-.2582.194965-.4637.353045-.80094.295082.33724-.205503.68501-.526932.68501-.959018 0-.23185-.079-.411007-.10011-.611242-.0158-.147541-.0474-.194965-.20551-.194965-.1897 0-.28981.168619-.30035.342506l-1.14345 1.048597c-.0422.04216-.12646.115925-.12646.184427 0 .04742.0369.100117.0896.100117.0474 0 .0843-.03688.11593-.0685.0949.384661.48478.584895.83782.600703.42155.02108.9959-.458431 1.31733-.779861l-.0527-.200234-.31616.242389"/><path d="m-128.193 77.209666c-.24765.221312-.53747.374123-.63232.374123-.0369 0-.0422-.05269-.0422-.07904 0-.221312.12647-.337237.28982-.453163.2055-.147541.23712-.194965.40046-.379391.058-.04742.20024-.194966.21078-.279275.0211-.15808-.24766-.110656-.32143-.110656-.0896 0-.15808.01054-.23185.05796-.33724.221312-.73244.748245-.73244 1.25937 0 .226581.14227.521663.40047.521663.28981 0 .64286-.474239.84836-.653397l.0105.01054c-.0527.137003-.11065.284544-.11065.442624 0 .184426.11592.347776.31089.347776.38993 0 .94848-.605973 1.21721-.864171l-.0316-.226581c-.15808.126464-.61124.495317-.81147.495317-.0843 0-.13174-.03162-.13174-.115925 0-.23712.37412-.653397.54274-.806207.0843-.07377.22658-.194966.21605-.32143-.0211-.274005-.079-.289813-.1212-.289813-.13173 0-.64813.500587-.75878.600704l-.52167.46897"/><path d="m-125.84543 76.635309c.0316.179157.0527.321429.0685.432085-.0158.305621-.10012.3952-.41628.590165-.10011-.137002-.21604-.300352-.411-.31089zm.71663.843093c-.2582.194965-.4637.353045-.80094.295082.33724-.205503.68501-.526932.68501-.959018 0-.23185-.079-.411007-.10011-.611242-.0158-.147541-.0474-.194965-.20551-.194965-.18969 0-.28981.168619-.30035.342506l-1.14344 1.048597c-.0422.04216-.12647.115925-.12647.184427 0 .04742.0369.100117.0896.100117.0474 0 .0843-.03688.11593-.0685.0949.384661.48478.584895.83782.600703.42155.02108.99591-.458431 1.31733-.779861l-.0527-.200234-.31615.242389"/><path d="m-121.52342 77.25709c-.21078.152811-.48478.432085-.76406.432085-.24239 0-.32143-.115925-.27927-.331968.22131-.15281.74297-.62178.74297-.885247 0-.115925-.14227-.147541-.23185-.147541-.31616 0-.97482.62705-.97482 1.269908 0 .268736.14227.627051.45316.627051.40047 0 .86417-.47424 1.10129-.764053l-.0474-.200235m-.24766-1.038058c.22658 0 .42155-.258197.42155-.46897 0-.09485-.079-.163349-.17389-.163349-.2055 0-.45843.189695-.45843.405738 0 .126464.0843.226581.21077.226581"/><path d="m-119.87231 76.682733.0105.01054c-1.04333 1.053866-1.20668 1.038058-1.31207 1.059135-.079.01581-.10012-.07904-.10538-.105386 0-.258198.15281-.579627 1.40691-.964288m-.28455.71136.0105.01054c-.0685.142272-.19496.421547-.19496.590165 0 .152811.079.279275.25293.279275.25819 0 .96428-.563818 1.19086-.822016l-.0422-.194965c-.22658.152811-.52693.421547-.74824.421547-.0843 0-.16335-.03689-.16335-.126464 0-.247659.45843-.616512.45843-.785131 0-.115925-.0527-.173887-.15281-.216042.0474-.01581.18443-.0685.18443-.131733 0-.06323-.10012-.258197-.34251-.252928-.61124.01581-1.98127.690282-1.96019 1.348948.0105.274005.31616.621781.4637.621781.1212 0 .45843-.274005.55855-.353045l.48478-.38993"/><path d="m-117.91566 76.819736c.005.100117.058.23185.17915.23185.14228 0 .55855-.405738.55855-.695551 0-.15808-.0738-.242389-.23712-.242389-.29508 0-.80094.284543-1.03805.463701-.34251.258197-.50059.421546-.50059.86417 0 .38993.19496.769322.6007.769322.50059 0 1.09075-.521664 1.41218-.86417l-.0632-.205504c-.30562.23712-.76405.605973-1.16452.605973-.274 0-.40047-.163349-.40047-.284544 0-.147541.0948-.226581.21078-.31089l.44262-.331968"/><path d="m-116.06942 77.209666c-.24766.221312-.53747.374123-.63232.374123-.0369 0-.0422-.05269-.0422-.07904 0-.221312.12646-.337237.28981-.453163.20551-.147541.23712-.194965.40047-.379391.058-.04742.20024-.194966.21078-.279275.0211-.15808-.24766-.110656-.32144-.110656-.0896 0-.15807.01054-.23185.05796-.33723.221312-.73243.748245-.73243 1.25937 0 .226581.14227.521663.40047.521663.28981 0 .64286-.474239.84836-.653397l.0105.01054c-.0527.137003-.11066.284544-.11066.442624 0 .184426.11593.347776.31089.347776.38993 0 .94848-.605973 1.21722-.864171l-.0316-.226581c-.15808.126464-.61124.495317-.81148.495317-.0843 0-.13173-.03162-.13173-.115925 0-.23712.37412-.653397.54274-.806207.0843-.07377.22658-.194966.21604-.32143-.0211-.274005-.079-.289813-.12119-.289813-.13174 0-.64813.500587-.75879.600704l-.52166.46897"/><path d="m-113.94843 76.645848c.24766-.542741.54801-1.016981.8062-1.143445-.0949.300352-.42154.806208-.79566 1.153984l-.0105-.01054m1.02752.558549c-.21078.189696-.61652.526933-.90633.526933-.14227 0-.21604-.105387-.26347-.226581-.0264-.126464-.0105-.274005.0369-.363584 1.14345-1.106559 1.28045-1.57026 1.31734-2.070847.005-.0685-.0158-.194965-.10539-.194965-.16862 0-.6692.490048-1.13291 1.064405-.3425.421546-.57962 1.01698-.57962 1.57026 0 .31089.0843.685013.46897.685013.45316 0 .94848-.532202 1.23829-.832554l-.0738-.15808"/><path d="m-111.49935 77.25709c-.21077.152811-.48478.432085-.76405.432085-.24239 0-.32143-.115925-.27928-.331968.22132-.15281.74298-.62178.74298-.885247 0-.115925-.14227-.147541-.23185-.147541-.31616 0-.97483.62705-.97483 1.269908 0 .268736.14227.627051.45317.627051.40046 0 .86417-.47424 1.10129-.764053l-.0474-.200235m-.24765-1.038058c.22658 0 .42154-.258197.42154-.46897 0-.09485-.079-.163349-.17389-.163349-.2055 0-.45843.189695-.45843.405738 0 .126464.0843.226581.21078.226581"/><path d="m-110.67552 76.635309c.0316.179157.0527.321429.0685.432085-.0158.305621-.10012.3952-.41628.590165-.10011-.137002-.21604-.300352-.411-.31089zm.71663.843093c-.2582.194965-.4637.353045-.80094.295082.33724-.205503.68501-.526932.68501-.959018 0-.23185-.079-.411007-.10012-.611242-.0158-.147541-.0474-.194965-.2055-.194965-.18969 0-.28981.168619-.30035.342506l-1.14344 1.048597c-.0422.04216-.12647.115925-.12647.184427 0 .04742.0369.100117.0896.100117.0474 0 .0843-.03688.11593-.0685.0948.384661.48478.584895.83782.600703.42155.02108.9959-.458431 1.31733-.779861l-.0527-.200234-.31616.242389"/><path d="m-108.96101 78.168684c.3267.03689.45843-.611242.45843-.616511 0-.152811-.18443-.152811-.2582-.168619-.30035-.06323-.5322.374123-.5322.563818 0 .179158.1897.205504.33197.221312"/><path d="m-157.63324 85.608978c-.14227-.04742-.28981-.06323-.44262-.05269.14227-.189696.28981-.368853.48478-.511125.0685-.04742.32143-.210774.40574-.210774.0422 0 .058.03689.058.07377 0 .09485-.0738.184427-.13174.258197l-.37412.442624m-.80094.453162c.0685.01581.13701.03162.21078.03162.0843 0 .16334-.01581.24238-.03162.12647.06323.23185.105387.37413.105387.56908 0 1.04333-.379392 1.43326-.758784l-.0369-.242389c-.56382.484779-.66921.569088-1.12237.537472.59016-.521664.85363-.885248.85363-1.175061 0-.137002-.079-.247658-.22131-.247658-.28455 0-.81675.347776-1.04333.511125l-.0105-.01054c.10539-.23712.26874-.432085.44789-.621781.0843-.08958.35832-.342506.35832-.458431 0-.100118-.16862-.126464-.24239-.126464-.20024 0-.29508.15281-.42155.289813l-1.39637 1.501759.0211.247658.83255-.795669.0105.01054c-.3425.579626-.60597 1.011711-.84836 1.354218-.21604.305621-.33197.569088-.3267.832554 0 .09485.0316.23712.15281.23712.10012 0 .19497-.142272.23712-.221312l.49532-.969557"/><path d="m-155.23948 85.219048c-.24766.221311-.53747.374122-.63232.374122-.0369 0-.0422-.05269-.0422-.07904 0-.221312.12646-.337237.28981-.453162.20551-.147542.23712-.194966.40047-.379392.058-.04742.20024-.194965.21078-.279275.0211-.158079-.24766-.110655-.32143-.110655-.0896 0-.15808.01054-.23185.05796-.33724.221312-.73244.748245-.73244 1.25937 0 .226581.14227.521664.40047.521664.28981 0 .64286-.47424.84836-.653397l.0105.01054c-.0527.137003-.11065.284544-.11065.442624 0 .184427.11592.347776.31089.347776.38993 0 .94848-.605973 1.21721-.86417l-.0316-.226581c-.15808.126463-.61124.495317-.81148.495317-.0843 0-.13173-.03162-.13173-.115926 0-.23712.37412-.653397.54274-.806207.0843-.07377.22658-.194965.21604-.321429-.0211-.274005-.079-.289813-.12119-.289813-.13173 0-.64813.500586-.75878.600703l-.52167.468971"/><path d="m-152.77598 84.88708.0105.01054c-.21077.252928-.48477.532203-.48477.890517 0 .200235.137.405739.35831.405739.30035 0 .90633-.584896 1.10656-.811477l-.0369-.194965c-.17389.131733-.50585.474239-.73244.474239-.079 0-.16334-.06323-.16334-.147541 0-.210773.25819-.46897.411-.600704.1212-.100117.22132-.179157.22132-.342506-.0106-.09485-.0474-.179157-.12647-.279274-.0527-.06323-.34251 0-.83782.0685.0211-.04742.0369-.09485.0369-.147541 0-.04742-.0422-.08958-.0949-.08958-.12647 0-.66394.379392-.66394.758783 0 .110656.0316.152811.14227.16335-.10011.142272-.21077.274005-.34777.384661l.0211.23185c.22658-.226581.44789-.363583.63232-.653397l.54801-.121194"/><path d="m-150.75232 85.219048c-.24765.221311-.53747.374122-.63232.374122-.0369 0-.0422-.05269-.0422-.07904 0-.221312.12647-.337237.28982-.453162.2055-.147542.23712-.194966.40047-.379392.058-.04742.20023-.194965.21077-.279275.0211-.158079-.24766-.110655-.32143-.110655-.0896 0-.15808.01054-.23185.05796-.33724.221312-.73244.748245-.73244 1.25937 0 .226581.14228.521664.40047.521664.28982 0 .64286-.47424.84837-.653397l.0105.01054c-.0527.137003-.11066.284544-.11066.442624 0 .184427.11593.347776.31089.347776.38993 0 .94848-.605973 1.21722-.86417l-.0316-.226581c-.15808.126463-.61125.495317-.81148.495317-.0843 0-.13173-.03162-.13173-.115926 0-.23712.37412-.653397.54274-.806207.0843-.07377.22658-.194965.21604-.321429-.0211-.274005-.079-.289813-.1212-.289813-.13173 0-.64812.500586-.75878.600703l-.52166.468971"/><path d="m-148.40475 84.644691c.0316.179157.0527.321429.0685.432085-.0158.305621-.10011.395199-.41627.590165-.10012-.137003-.21605-.300352-.41101-.310891zm.71663.843092c-.2582.194966-.4637.353045-.80094.295083.33724-.205504.68501-.526933.68501-.959018 0-.231851-.079-.411008-.10011-.611242-.0158-.147542-.0474-.194966-.20551-.194966-.18969 0-.28981.168619-.30035.342507l-1.14344 1.048596c-.0422.04216-.12647.115926-.12647.184427 0 .04742.0369.100117.0896.100117.0474 0 .0843-.03689.11593-.0685.0949.384661.48478.584896.83782.600704.42155.02108.99591-.458432 1.31733-.779861l-.0527-.200235-.31616.242389"/><path d="m-144.49902 84.829117c.005.100117.058.231851.17916.231851.14227 0 .55855-.405739.55855-.695552 0-.15808-.0738-.242389-.23712-.242389-.29509 0-.80094.284544-1.03806.463701-.34251.258197-.50059.421546-.50059.86417 0 .38993.19497.769322.60071.769322.50058 0 1.09075-.521663 1.41218-.86417l-.0632-.205504c-.30562.23712-.76406.605973-1.16453.605973-.274 0-.40046-.163349-.40046-.284544 0-.147541.0948-.226581.21077-.31089l.44262-.331968"/><path d="m-142.65278 85.219048c-.24766.221311-.53747.374122-.63232.374122-.0369 0-.0421-.05269-.0421-.07904 0-.221312.12647-.337237.28981-.453162.20551-.147542.23712-.194966.40047-.379392.058-.04742.20024-.194965.21078-.279275.0211-.158079-.24766-.110655-.32143-.110655-.0896 0-.15808.01054-.23185.05796-.33724.221312-.73244.748245-.73244 1.25937 0 .226581.14227.521664.40047.521664.28981 0 .64286-.47424.84836-.653397l.0105.01054c-.0527.137003-.11066.284544-.11066.442624 0 .184427.11593.347776.3109.347776.38993 0 .94848-.605973 1.21721-.86417l-.0316-.226581c-.15808.126463-.61124.495317-.81148.495317-.0843 0-.13173-.03162-.13173-.115926 0-.23712.37412-.653397.54274-.806207.0843-.07377.22658-.194965.21604-.321429-.0211-.274005-.079-.289813-.12119-.289813-.13173 0-.64813.500586-.75878.600703l-.52167.468971"/><path d="m-140.18928 84.88708.0105.01054c-.21078.252928-.48478.532203-.48478.890517 0 .200235.137.405739.35831.405739.30035 0 .90632-.584896 1.10656-.811477l-.0369-.194965c-.17389.131733-.50586.474239-.73244.474239-.079 0-.16335-.06323-.16335-.147541 0-.210773.2582-.46897.41101-.600704.1212-.100117.22131-.179157.22131-.342506-.0105-.09485-.0474-.179157-.12646-.279274-.0527-.06323-.34251 0-.83782.0685.0211-.04742.0369-.09485.0369-.147541 0-.04742-.0422-.08958-.0949-.08958-.12647 0-.66394.379392-.66394.758783 0 .110656.0316.152811.14227.16335-.10011.142272-.21077.274005-.34777.384661l.0211.23185c.22658-.226581.44789-.363583.63232-.653397l.54801-.121194"/><path d="m-138.4733 84.644691c.0316.179157.0527.321429.0685.432085-.0158.305621-.10011.395199-.41627.590165-.10012-.137003-.21604-.300352-.41101-.310891zm.71663.843092c-.25819.194966-.4637.353045-.80093.295083.33723-.205504.68501-.526933.68501-.959018 0-.231851-.079-.411008-.10012-.611242-.0158-.147542-.0474-.194966-.2055-.194966-.1897 0-.28982.168619-.30036.342507l-1.14344 1.048596c-.0421.04216-.12646.115926-.12646.184427 0 .04742.0369.100117.0896.100117.0474 0 .0843-.03689.11592-.0685.0949.384661.48478.584896.83783.600704.42154.02108.9959-.458432 1.31733-.779861l-.0527-.200235-.31616.242389"/><path d="m-136.40574 85.219048c-.24766.221311-.53747.374122-.63232.374122-.0369 0-.0422-.05269-.0422-.07904 0-.221312.12646-.337237.28981-.453162.20551-.147542.23712-.194966.40047-.379392.058-.04742.20024-.194965.21078-.279275.0211-.158079-.24766-.110655-.32143-.110655-.0896 0-.15808.01054-.23185.05796-.33724.221312-.73244.748245-.73244 1.25937 0 .226581.14227.521664.40047.521664.28981 0 .64286-.47424.84836-.653397l.0105.01054c-.0527.137003-.11066.284544-.11066.442624 0 .184427.11593.347776.31089.347776.38993 0 .94848-.605973 1.21722-.86417l-.0316-.226581c-.15808.126463-.61124.495317-.81148.495317-.0843 0-.13173-.03162-.13173-.115926 0-.23712.37412-.653397.54274-.806207.0843-.07377.22658-.194965.21604-.321429-.0211-.274005-.079-.289813-.12119-.289813-.13174 0-.64813.500586-.75879.600703l-.52166.468971"/><path d="m-134.05817 84.644691c.0316.179157.0527.321429.0685.432085-.0158.305621-.10012.395199-.41628.590165-.10012-.137003-.21604-.300352-.41101-.310891l.75878-.711359m.71663.843092c-.25819.194966-.4637.353045-.80093.295083.33723-.205504.68501-.526933.68501-.959018 0-.231851-.079-.411008-.10012-.611242-.0158-.147542-.0474-.194966-.2055-.194966-.1897 0-.28982.168619-.30035.342507l-1.14345 1.048596c-.0422.04216-.12646.115926-.12646.184427 0 .04742.0369.100117.0896.100117.0474 0 .0843-.03689.11592-.0685.0949.384661.48478.584896.83783.600704.42154.02108.9959-.458432 1.31733-.779861l-.0527-.200235-.31616.242389"/><path d="m-129.73617 85.266472c-.21077.15281-.48478.432085-.76405.432085-.24239 0-.32143-.115926-.27928-.331968.22132-.152811.74298-.621781.74298-.885248 0-.115925-.14227-.147541-.23185-.147541-.31616 0-.97483.62705-.97483 1.269909 0 .268735.14227.62705.45317.62705.40046 0 .86417-.47424 1.10128-.764053l-.0474-.200234m-.24765-1.038058c.22658 0 .42154-.258198.42154-.468971 0-.09485-.079-.163349-.17389-.163349-.2055 0-.45843.189696-.45843.405738 0 .126464.0843.226582.21078.226582"/><path d="m-128.08506 84.692115.0105.01054c-1.04332 1.053862-1.20667 1.038058-1.31206 1.059136-.079.01581-.10012-.07904-.10539-.105387 0-.258197.15281-.579626 1.40691-.964287m-.28454.711359.0105.01054c-.0685.142272-.19497.421546-.19497.590165 0 .15281.079.279274.25293.279274.2582 0 .96429-.563818 1.19087-.822015l-.0422-.194965c-.22658.15281-.52693.421546-.74824.421546-.0843 0-.16335-.03689-.16335-.126464 0-.247659.45843-.616512.45843-.78513 0-.115925-.0527-.173888-.15281-.216043.0474-.01581.18442-.0685.18442-.131733 0-.06323-.10011-.258197-.3425-.252928-.61124.01581-1.98127.690282-1.96019 1.348949.0105.274005.31616.621781.4637.621781.12119 0 .45843-.274006.55855-.353045l.48478-.389931"/><path d="m-126.12841 84.829117c.005.100117.058.231851.17916.231851.14227 0 .55855-.405739.55855-.695552 0-.15808-.0738-.242389-.23712-.242389-.29508 0-.80094.284544-1.03806.463701-.3425.258197-.50059.421546-.50059.86417 0 .38993.19497.769322.60071.769322.50058 0 1.09075-.521663 1.41218-.86417l-.0632-.205504c-.30562.23712-.76405.605973-1.16452.605973-.27401 0-.40047-.163349-.40047-.284544 0-.147541.0948-.226581.21077-.31089l.44262-.331968"/><path d="m-124.28217 85.219048c-.24765.221311-.53747.374122-.63232.374122-.0369 0-.0422-.05269-.0422-.07904 0-.221312.12647-.337237.28982-.453162.2055-.147542.23712-.194966.40047-.379392.058-.04742.20023-.194965.21077-.279275.0211-.158079-.24766-.110655-.32143-.110655-.0896 0-.15808.01054-.23185.05796-.33724.221312-.73244.748245-.73244 1.25937 0 .226581.14228.521664.40047.521664.28981 0 .64286-.47424.84836-.653397l.0105.01054c-.0527.137003-.11065.284544-.11065.442624 0 .184427.11592.347776.31089.347776.38993 0 .94848-.605973 1.21721-.86417l-.0316-.226581c-.15808.126463-.61124.495317-.81147.495317-.0843 0-.13174-.03162-.13174-.115926 0-.23712.37413-.653397.54275-.806207.0843-.07377.22658-.194965.21604-.321429-.0211-.274005-.079-.289813-.1212-.289813-.13173 0-.64812.500586-.75878.600703l-.52166.468971"/><path d="m-122.16118 84.655229c.24766-.542741.54801-1.01698.80621-1.143444-.0949.300351-.42155.806207-.79567 1.153983l-.0105-.01054m1.02752.558549c-.21077.189696-.61651.526933-.90633.526933-.14227 0-.21604-.105386-.26346-.226581-.0263-.126464-.0105-.274005.0369-.363584 1.14344-1.106559 1.28045-1.57026 1.31733-2.070846.005-.0685-.0158-.194966-.10539-.194966-.16861 0-.6692.490048-1.1329 1.064405-.34251.421546-.57963 1.016981-.57963 1.57026 0 .310891.0843.685013.46897.685013.45316 0 .94848-.532202 1.23829-.832554l-.0738-.15808"/><path d="m-119.71209 85.266472c-.21078.15281-.48478.432085-.76406.432085-.24238 0-.32142-.115926-.27927-.331968.22131-.152811.74298-.621781.74298-.885248 0-.115925-.14228-.147541-.23185-.147541-.31616 0-.97483.62705-.97483 1.269909 0 .268735.14227.62705.45316.62705.40047 0 .86417-.47424 1.10129-.764053l-.0474-.200234m-.24766-1.038058c.22658 0 .42155-.258198.42155-.468971 0-.09485-.079-.163349-.17389-.163349-.20551 0-.45843.189696-.45843.405738 0 .126464.0843.226582.21077.226582"/><path d="m-118.88827 84.644691c.0316.179157.0527.321429.0685.432085-.0158.305621-.10011.395199-.41627.590165-.10012-.137003-.21605-.300352-.41101-.310891zm.71663.843092c-.2582.194966-.4637.353045-.80094.295083.33724-.205504.68501-.526933.68501-.959018 0-.231851-.079-.411008-.10011-.611242-.0158-.147542-.0474-.194966-.20551-.194966-.18969 0-.28981.168619-.30035.342507l-1.14344 1.048596c-.0422.04216-.12647.115926-.12647.184427 0 .04742.0369.100117.0896.100117.0474 0 .0843-.03689.11593-.0685.0948.384661.48478.584896.83782.600704.42155.02108.99591-.458432 1.31733-.779861l-.0527-.200235-.31615.242389"/><path d="m-117.17376 86.178066c.3267.03689.45843-.611243.45843-.616512 0-.152811-.18442-.152811-.25819-.168619-.30036-.06323-.53221.374123-.53221.563819 0 .179157.1897.205504.33197.221312"/><path d="m-156.2741 95.662285c.10538-.137003.13173-.221312.17388-.38993.47424.02635 1.55446.04215 1.55446.721898 0 .463701-.38467 1.02225-1.49122 1.41218-.36886.126464-.84837.231851-1.21195.226581-.21604-.0053-.27927-.06323-.30035-.09485-.0316-.0685-.0527-.142271.11065-.358314l1.16453-1.517567m-1.38057 1.201407c-.23185.289813-.50585.637589-.50585 1.02752 0 .100117.0211.226581.12119.279274.10539.05796.33197.05796.45316.05796.65867 0 1.60715-.268736 2.17624-.590165.62178-.353045 1.24883-.953749 1.24883-1.712532 0-.442624-.16862-.916864-.55328-1.164522-.33724-.216043-.86417-.279275-1.25937-.279275-.54801 0-1.29099.152811-1.79157.368853-.2582.115926-.43209.231851-.50059.511125-.0211.08958-.0738.274005-.0738.363584 0 .121195.079.184427.20024.184427.24765 0 .61651-.16335.8747-.205504.0474-.0053.16335-.03162.16335-.09485 0-.07904-.25819-.05796-.28454-.05796h-.14227v-.01054c.35831-.137002.74824-.210773 1.1329-.247658l-1.25937 1.57026"/><path d="m-152.28687 97.158775c-.16335.121194-.31089.321429-.54274.279274.10012-.205504.20551-.38993.20551-.621781 0-.15808-.0316-.268736-.1897-.31089.058-.03162.12119-.06323.12119-.142272 0-.142272-.17388-.194965-.28981-.189696-.32143.01581-.70082.15808-.98536.38993-.29509.226582-.49005.490048-.47951.885248.0211.479509.274.753514.54801.753514.33196 0 .59016-.168619.81147-.3952.38466 0 .61652-.126464.85364-.426815zm-.96956-.411008c.0211.01054-.22658.342506-.22658.616512 0 .08958.0263.158079.0632.242389-.1212.110656-.23185.210773-.40574.210773-.13173 0-.23185-.04742-.23185-.200235 0-.163349.10012-.368853.21604-.484778.15808-.15281.40574-.279274.5849-.384661"/><path d="m-150.14497 97.390625c-.0949.07904-.3267.263467-.45316.263467-.0527 0-.0948-.04742-.0948-.09485 0-.363584.64813-.764053.64813-.969557-.0158-.110656-.0474-.205504-.079-.284544-.0316-.07377-.0632-.100117-.0843-.100117-.15281 0-1.12237.648128-1.54392 1.185599-.0211.02635-.0685.07377-.10538.07377-.0316 0-.058-.02635-.058-.05796 0-.126464.66393-.658666.66393-.86417 0-.03162.0263-.105386-.28981-.115925-.0896 0-.137.0053-.20551.06323-.30562.258197-.63758.790399-.62178 1.153983.005.179157.0632.511125.29509.511125.14227 0 .33723-.258197.41627-.358314.23712-.305622.50586-.579627.81148-.806208l.0105.01054c-.16862.242389-.45316.590165-.45316.906325 0 .179157.0949.347775.29508.347775.38466 0 .9274-.648127 1.20668-.895786l-.0421-.23185-.31616.263466"/><path d="m-147.95853 97.185121c-.27927.221312-.72189.605973-1.09602.605973-.16861 0-.3425-.0685-.32669-.268736l.0105-.115925c1.01171-.331968 1.2699-.721898 1.2699-.980095 0-.210773-.21077-.252928-.37939-.252928-.68501-.0053-1.44906.700821-1.42799 1.391103.0105.347776.1897.690282.57436.690282.52166 0 1.10129-.495317 1.42272-.869439l-.0474-.200235m-1.38056-.03688c.14227-.347776.44789-.600704.71136-.669205.0369-.01054.0632.02108.0632.05796.005.08958-.3109.453162-.7746.611242"/><path d="m-146.9604 96.847884c.005.100118.058.231851.17916.231851.14227 0 .55855-.405739.55855-.695552 0-.15808-.0738-.242389-.23712-.242389-.29508 0-.80094.284544-1.03806.463701-.34251.258197-.50059.421546-.50059.86417 0 .389931.19497.769322.60071.769322.50058 0 1.09075-.521663 1.41218-.86417l-.0632-.205504c-.30562.23712-.76406.605973-1.16452.605973-.27401 0-.40047-.163349-.40047-.284544 0-.147541.0949-.226581.21077-.31089l.44262-.331968"/><path d="m-143.32341 97.237815c-.24766.221312-.53747.374122-.63232.374122-.0369 0-.0421-.05269-.0421-.07904 0-.221312.12647-.337237.28981-.453162.20551-.147541.23712-.194965.40047-.379392.058-.04742.20024-.194965.21078-.279274.0211-.15808-.24766-.110656-.32143-.110656-.0896 0-.15808.01054-.23185.05796-.33724.221312-.73244.748245-.73244 1.25937 0 .226581.14227.521664.40047.521664.28981 0 .64286-.47424.84836-.653397l.0105.01054c-.0527.137003-.11065.284544-.11065.442624 0 .184427.11592.347776.31089.347776.38993 0 .94848-.605973 1.21721-.86417l-.0316-.226581c-.15808.126464-.61124.495317-.81147.495317-.0843 0-.13174-.03162-.13174-.115926 0-.237119.37412-.653396.54274-.806207.0843-.07377.22658-.194965.21605-.321429-.0211-.274005-.079-.289813-.1212-.289813-.13173 0-.64813.500586-.75878.600703l-.52167.468971"/><path d="m-140.27502 95.946829c.0527-.07377.20551-.247659.20551-.342507 0-.08431-.10012-.100117-.16862-.100117-.30562 0-.42155.247659-.57963.463701-.56382.02108-.60597.105387-.89052.569088l-.058.09485c.27928-.04215.17916-.02108.50059-.02108-.19496.331968-.48478.600704-.80094.843093l.058.200235.26874-.216043.0105.01054c-.0685.15281-.13701.353045-.13701.526933 0 .210773.12647.353045.33197.353045.4479 0 1.01698-.563818 1.32787-.848362l-.0264-.231851c-.54801.389931-.7377.548011-.90632.548011-.1212 0-.15808-.0685-.15808-.184427 0-.31616.30035-.748245.47951-.980095.57962.03688.62178-.15808.86944-.658666l-.3267-.02635"/><path d="m-137.46745 97.237815c-.24766.221312-.53748.374122-.63232.374122-.0369 0-.0422-.05269-.0422-.07904 0-.221312.12646-.337237.28981-.453162.2055-.147541.23712-.194965.40047-.379392.058-.04742.20023-.194965.21077-.279274.0211-.15808-.24766-.110656-.32143-.110656-.0896 0-.15808.01054-.23185.05796-.33723.221312-.73244.748245-.73244 1.25937 0 .226581.14228.521664.40047.521664.28982 0 .64286-.47424.84837-.653397l.0105.01054c-.0527.137003-.11066.284544-.11066.442624 0 .184427.11593.347776.31089.347776.38993 0 .94848-.605973 1.21722-.86417l-.0316-.226581c-.15809.126464-.61125.495317-.81148.495317-.0843 0-.13173-.03162-.13173-.115926 0-.237119.37412-.653396.54274-.806207.0843-.07377.22658-.194965.21604-.321429-.0211-.274005-.079-.289813-.1212-.289813-.13173 0-.64812.500586-.75878.600703l-.52166.468971"/><path d="m-135.00396 96.905847.0105.01054c-.21077.252927-.48478.532202-.48478.890516 0 .200235.137.405739.35832.405739.30035 0 .90632-.584896 1.10655-.811477l-.0369-.194965c-.17388.131733-.50585.474239-.73243.474239-.079 0-.16335-.06323-.16335-.147541 0-.210773.2582-.46897.41101-.600703.12119-.100118.22131-.179158.22131-.342507-.0105-.09485-.0474-.179157-.12646-.279274-.0527-.06323-.34251 0-.83783.0685.0211-.04742.0369-.09485.0369-.147541 0-.04742-.0421-.08958-.0949-.08958-.12646 0-.66393.379392-.66393.758784 0 .110655.0316.15281.14227.163349-.10012.142272-.21078.274005-.34778.384661l.0211.23185c.22658-.226581.4479-.363583.63232-.653397l.54801-.121194"/><path d="m-131.80523 97.390625c-.0948.07904-.3267.263467-.45316.263467-.0527 0-.0949-.04742-.0949-.09485 0-.363584.64813-.764053.64813-.969557-.0158-.110656-.0474-.205504-.079-.284544-.0316-.07377-.0632-.100117-.0843-.100117-.15281 0-1.12237.648128-1.54392 1.185599-.0211.02635-.0685.07377-.10538.07377-.0316 0-.058-.02635-.058-.05796 0-.126464.66393-.658666.66393-.86417 0-.03162.0264-.105386-.28981-.115925-.0896 0-.13701.0053-.20551.06323-.30562.258197-.63758.790399-.62178 1.153983.005.179157.0632.511125.29509.511125.14227 0 .33723-.258197.41627-.358314.23712-.305622.50586-.579627.81148-.806208l.0105.01054c-.16862.242389-.45316.590165-.45316.906325 0 .179157.0949.347775.29508.347775.38466 0 .9274-.648127 1.20668-.895786l-.0422-.23185-.31616.263466"/><path d="m-156.16836 105.09438.0105.0105c-.13174.21605-.38993.59017-.38993.85364 0 .15281.11065.30562.26873.30562.29508 0 1.05387-.62178 1.30153-.81675l-.0316-.24766c-.64813.44263-.70609.44263-.81675.46897-.0632.0158-.13173-.0685-.12646-.13173.005-.12119.0369-.2055.44789-.65867.058-.0632.16335-.17915.16335-.26873 0-.0738-.058-.15281-.0949-.21077-.0158-.0211-.0685-.14755-.11066-.14755-.0632 0-.19496.10539-.24766.14755l-1.16979.92213-.0105-.0105c.11593-.20551.49005-.63232.49005-.86417 0-.13701-.0738-.24239-.21604-.24239-.34251 0-1.28045.93794-1.53865 1.20668-.0158.0158-.079.0843-.10538.0843-.0211 0-.0369-.0369-.0369-.0474 0-.11066.0949-.19497.15281-.27401.079-.11593.19496-.21077.28981-.32143.0632-.0738.21078-.23185.21078-.33724 0-.11065-.15809-.11065-.23713-.12119-.31615-.0421-.8747.66393-.87997 1.18033 0 .18969.0738.6007.3267.6007.0949 0 .16861-.079.22658-.14754.24766-.30562.54274-.62178.81674-.91159.0369-.0369.15281-.16335.20551-.16335.0211 0 .0369.0158.0369.0369 0 .0158-.0211.058-.0316.0685-.34251.52166-.46897.76405-.4637.91686.005.12647.10538.22131.23185.22131.17915 0 .36885-.21604.49004-.33196l.83783-.76933"/><path d="m-153.41283 104.72026.0105.0105c-1.04333 1.05387-1.20668 1.03806-1.31207 1.05914-.079.0158-.10011-.079-.10538-.10539 0-.2582.15281-.57963 1.40691-.96429m-.28455.71136.0105.0105c-.0685.14228-.19496.42155-.19496.59017 0 .15281.079.27927.25293.27927.25819 0 .96428-.56381 1.19086-.82201l-.0422-.19497c-.22657.15281-.52693.42155-.74824.42155-.0843 0-.16335-.0369-.16335-.12646 0-.24766.45843-.61652.45843-.78513 0-.11593-.0527-.17389-.15281-.21605.0474-.0158.18443-.0685.18443-.13173 0-.0632-.10012-.2582-.34251-.25293-.61124.0158-1.98126.69029-1.96019 1.34895.0105.27401.31616.62178.4637.62178.1212 0 .45843-.274.55855-.35304l.48478-.38993"/><path d="m-151.67749 104.67284c.0316.17916.0527.32143.0685.43208-.0158.30563-.10012.3952-.41628.59017-.10012-.137-.21604-.30035-.41101-.31089zm.71662.84309c-.25819.19497-.4637.35305-.80093.29508.33723-.2055.68501-.52693.68501-.95901 0-.23185-.079-.41101-.10012-.61125-.0158-.14754-.0474-.19496-.2055-.19496-.1897 0-.28982.16862-.30035.3425l-1.14345 1.0486c-.0422.0421-.12646.11593-.12646.18443 0 .0474.0369.10012.0896.10012.0474 0 .0843-.0369.11592-.0685.0949.38466.48478.58489.83783.6007.42154.0211.9959-.45843 1.31733-.77986l-.0527-.20024-.31616.24239"/><path d="m-149.78383 104.67284c.0316.17916.0527.32143.0685.43208-.0158.30563-.10012.3952-.41628.59017-.10011-.137-.21604-.30035-.411-.31089zm.71663.84309c-.2582.19497-.4637.35305-.80094.29508.33724-.2055.68501-.52693.68501-.95901 0-.23185-.079-.41101-.10011-.61125-.0158-.14754-.0474-.19496-.20551-.19496-.18969 0-.28981.16862-.30035.3425l-1.14344 1.0486c-.0422.0421-.12647.11593-.12647.18443 0 .0474.0369.10012.0896.10012.0474 0 .0843-.0369.11593-.0685.0949.38466.48478.58489.83782.6007.42155.0211.9959-.45843 1.31733-.77986l-.0527-.20024-.31616.24239"/><path d="m-147.06288 104.72026.0105.0105c-1.04332 1.05387-1.20668 1.03806-1.31206 1.05914-.079.0158-.10012-.079-.10539-.10539 0-.2582.15281-.57963 1.40691-.96429m-.28454.71136.0105.0105c-.0685.14228-.19497.42155-.19497.59017 0 .15281.079.27927.25293.27927.2582 0 .96429-.56381 1.19087-.82201l-.0422-.19497c-.22658.15281-.52693.42155-.74824.42155-.0843 0-.16335-.0369-.16335-.12646 0-.24766.45843-.61652.45843-.78513 0-.11593-.0527-.17389-.15281-.21605.0474-.0158.18442-.0685.18442-.13173 0-.0632-.10011-.2582-.3425-.25293-.61124.0158-1.98127.69029-1.96019 1.34895.0105.27401.31616.62178.4637.62178.12119 0 .45843-.274.55855-.35304l.48478-.38993"/><path d="m-145.5067 106.20621c.3267.0369.45843-.61124.45843-.61651 0-.15281-.18442-.15281-.25819-.16862-.30035-.0632-.5322.37413-.5322.56382 0 .17916.18969.20551.33196.22131"/><path d="m-139.8178 104.34614-.80621.058-.0105-.0105 1.52284-1.25937.0105.0105-.71663 1.20141m.24766.62178.42155-.0211c.11592-.21077.24239-.42155.3952-.6007-.33197-.0738-.0948-.0211-.48478-.0211l.6534-1.14345c.0527-.0949.16334-.274.16334-.38466 0-.0948-.0738-.22658-.18442-.22658-.23712 0-.86944.47951-1.38584.90632l-1.18033.9801c-.0211 0-.23712.0105-.32142.0158-.0263 0-.0738-.0105-.0738-.0474 0-.0948.38466-.0474.38466-.14227 0-.0738-.28455-.0316-.49005.0369-.27928.0896-.66394.5322-.66394.63232 0 .137.17389.11592.51113.10538l-.41101.45317c-.49532.17388-.90105.67974-.90105.85363 0 .10012.10538.11592.18442.11592.1897 0 .38993-.22131.5164-.34777l1.08021-1.07495 1.14871-.0369c-.4637.85364-.38466.84837-.38466.89052 0 .16862.079.31616.26874.31616.37412 0 .82201-.42681 1.07494-.67974l-.0949-.13701c-.31089.23186-.36885.28982-.4637.28982-.0527 0-.0949-.0316-.0949-.0843l.33197-.64813"/><path d="m-138.07208 104.68338c.24765-.54274.54801-1.01698.8062-1.14345-.0949.30035-.42154.80621-.79567 1.15399l-.0105-.0105m1.02752.55854c-.21077.1897-.61651.52694-.90632.52694-.14227 0-.21604-.10539-.26347-.22658-.0263-.12647-.0105-.27401.0369-.36359 1.14345-1.10655 1.28045-1.57026 1.31734-2.07084.005-.0685-.0158-.19497-.10539-.19497-.16862 0-.66921.49005-1.13291 1.06441-.3425.42154-.57962 1.01698-.57962 1.57026 0 .31089.0843.68501.46897.68501.45316 0 .94848-.5322 1.23829-.83256l-.0738-.15808"/><path d="m-135.623 105.29462c-.21077.15281-.48478.43208-.76405.43208-.24239 0-.32143-.11592-.27928-.33196.22131-.15281.74298-.62178.74298-.88525 0-.11593-.14227-.14754-.23185-.14754-.31616 0-.97483.62705-.97483 1.26991 0 .26873.14228.62705.45317.62705.40046 0 .86417-.47424 1.10128-.76406l-.0474-.20023m-.24765-1.03806c.22658 0 .42154-.2582.42154-.46897 0-.0948-.079-.16335-.17389-.16335-.2055 0-.45843.1897-.45843.40574 0 .12646.0843.22658.21078.22658"/><path d="m-134.38816 106.11663c.10538.0105.0685.0105.19496.0105.005.0369.0105.0738.0105.11066 0 .29508-.49532.7219-.78513.84309.0474-.17915.137-.34777.24239-.49531l.33724-.46897m1.14344-.89579c-.46897.36885-.64813.49532-.82201.42682.12646-.21078.63758-.7219.63758-.95902 0-.079-.0474-.16335-.12646-.1897.0316-.0316.0843-.0843.0843-.13173 0-.0369-.0316-.10539-.058-.13173-.0527-.0527-.11592-.0474-.18442-.0474-.53748 0-1.20668.30035-1.57554.63759-.23712.21604-.39519.411-.39519.7377 0 .33197.25819.56909.40573.56909.29509 0 .94848-.69028 1.17506-.87998l.0105.0105c-.3952.53747-.84309 1.06441-1.18033 1.61242-.0685.11592-.16862.22658-.16862.36885 0 .11592.079.35304.21605.35304.12646 0 .61651-.32143.91686-.63232.24239-.25292.55328-.63232.51113-1.00117l.61651-.54274-.0632-.20023m-.57436-.60071c-.63759.75352-1.19614 1.06441-1.48068 1.0486.0211-.28981.0949-.3952.33197-.55855.34777-.23712.74824-.38993 1.14344-.49532l.005.005"/></g></g></g></svg>