<svg enable-background="new 0 0 128 128" height="32" viewBox="0 0 32 32" width="32" xmlns="http://www.w3.org/2000/svg" xmlns:xlink="http://www.w3.org/1999/xlink"><filter id="a"><feGaussianBlur stdDeviation="1.0394514"/></filter><filter id="b"><feGaussianBlur stdDeviation=".50063244"/></filter><filter id="c"><feGaussianBlur stdDeviation=".90565481"/></filter><filter id="d"><feGaussianBlur stdDeviation=".4901192"/></filter><filter id="e"><feGaussianBlur stdDeviation=".40750996"/></filter><linearGradient id="f" gradientTransform="matrix(.56551406 .28989732 .2917329 -.56195586 -36.030212 101.6666)" gradientUnits="userSpaceOnUse" x1="113.15723" x2="39.268185" y1="25.786163" y2="25.786163"><stop offset="0" stop-color="#0968ef"/><stop offset="1" stop-color="#aecffc"/></linearGradient><radialGradient id="g" cx="-63.107743" cy="158.799452" gradientUnits="userSpaceOnUse" r="105.204975"><stop offset="0" stop-color="#00537d"/><stop offset=".0151" stop-color="#186389"/><stop offset=".0558" stop-color="#558ca8"/><stop offset=".0964" stop-color="#89afc3"/><stop offset=".1357" stop-color="#b3ccd8"/><stop offset=".1737" stop-color="#d4e2e9"/><stop offset=".2099" stop-color="#ecf2f5"/><stop offset=".2435" stop-color="#fafcfd"/><stop offset=".2722" stop-color="#fff"/></radialGradient><radialGradient id="h" cx="112.83274" cy="112.77987" gradientTransform="matrix(.9787234 0 0 .9818182 -173.53979 52.070123)" gradientUnits="userSpaceOnUse" r="139.55859"><stop offset="0" stop-color="#535557"/><stop offset=".11366145" stop-color="#898a8c"/><stop offset=".20296688" stop-color="#ececec"/><stop offset=".2363" stop-color="#fafafa"/><stop offset=".2722" stop-color="#fff"/><stop offset=".5313" stop-color="#fafafa"/><stop offset=".8449" stop-color="#ebecec"/><stop offset="1" stop-color="#e1e2e3"/></radialGradient><linearGradient id="i" gradientUnits="userSpaceOnUse" x1="94.343803" x2="86.535599" y1="102.3447" y2="94.536598"><stop offset="0" stop-color="#fff"/><stop offset="1" stop-color="#555753"/></linearGradient><linearGradient id="j" gradientUnits="userSpaceOnUse" x1="95" x2="87.292999" y1="103" y2="95.292999"><stop offset="0" stop-color="#fff"/><stop offset="1" stop-color="#393b38"/></linearGradient><linearGradient id="k" gradientUnits="userSpaceOnUse" x1="96" x2="88.000198" y1="104" y2="96.000198"><stop offset="0" stop-color="#888a85"/><stop offset=".0072" stop-color="#8c8e89"/><stop offset=".0673" stop-color="#abaca9"/><stop offset=".1347" stop-color="#c5c6c4"/><stop offset=".2115" stop-color="#dbdbda"/><stop offset=".3012" stop-color="#ebebeb"/><stop offset=".4122" stop-color="#f7f7f6"/><stop offset=".5679" stop-color="#fdfdfd"/><stop offset="1" stop-color="#fff"/></linearGradient><linearGradient id="l" gradientUnits="userSpaceOnUse" x1="16.933332" x2="16.933332" y1="288.53329" y2="275.83331"><stop offset="0" stop-color="#0b0b0b"/><stop offset="1" stop-color="#1d1d1d"/></linearGradient><linearGradient id="m" gradientTransform="matrix(.26458333 0 0 .29398147 0 261.6046)" gradientUnits="userSpaceOnUse" x1="64" x2="64" y1="88" y2="56"><stop offset="0" stop-color="#7f7f81"/><stop offset=".44999999" stop-color="#b6b6b7"/><stop offset=".67499995" stop-color="#f5f5f5"/><stop offset="1" stop-color="#cfcfcf"/></linearGradient><linearGradient id="n" gradientUnits="userSpaceOnUse" x1="17.991667" x2="17.991667" y1="264.19162" y2="275.83331"><stop offset="0" stop-color="#fff"/><stop offset=".54545456" stop-color="#ebebeb"/><stop offset=".90909094" stop-color="#bababa"/><stop offset="1" stop-color="#7e7e7f"/></linearGradient><linearGradient id="o" gradientTransform="matrix(.24052171 0 0 .26458333 1.589963 263.13331)" gradientUnits="userSpaceOnUse" x1="64" x2="64" y1="48" y2="72"><stop offset="0" stop-color="#6e4388"/><stop offset=".21062189" stop-color="#651d8d"/><stop offset=".5" stop-color="#ac7ec6"/><stop offset=".66666639" stop-color="#ca87dc"/><stop offset="1" stop-color="#ebeaeb"/></linearGradient><linearGradient id="p" gradientUnits="userSpaceOnUse" x1="17.991667" x2="17.842356" y1="294.8833" y2="287.90549"><stop offset="0" stop-color="#fefefe"/><stop offset=".5" stop-color="#f7f7f7"/><stop offset=".91002578" stop-color="#8c8c8c"/><stop offset="1" stop-color="#666"/></linearGradient><linearGradient id="q" gradientTransform="matrix(.26458333 0 0 .16558711 0 269.86505)" gradientUnits="userSpaceOnUse" x1="52" x2="76" y1="72" y2="72"><stop offset="0"/><stop offset=".66666669" stop-color="#a6a6a6" stop-opacity=".866667"/><stop offset="1" stop-opacity=".737089"/></linearGradient><linearGradient id="r" gradientUnits="userSpaceOnUse" x1="17.000601" x2="17.000601" y1="274.77496" y2="280.06662"><stop offset="0" stop-color="#baaac4"/><stop offset="1" stop-color="#baaac4" stop-opacity="0"/></linearGradient><g transform="scale(.25)"><g transform="translate(135.10775 -66.799455)"><path d="m30.481987 12.758728.04083 69.517244 34.51214.000006c.53 0 1.039-.211 1.414-.586l28.460604-27.529145c.375-.375.586-.884.586-1.414l.266433-39.988105z" filter="url(#a)" opacity=".306849" transform="matrix(1.0416667 0 0 1.0357143 -164.85982 55.584953)"/><path d="m32.401986 14.689864.000013 65.655178 32.056957-.000094c.53 0 1.039-.211 1.414-.586l27.116605-26.467081c.375-.375.586-.884.586-1.414l.266433-37.188003z" filter="url(#b)" opacity=".89589" transform="matrix(1.0416667 0 0 1.0357143 -164.85982 55.584953)"/><path d="m30.481987 13.724245.04083 68.551727 34.51214.000006c.53 0 1.039-.211 1.414-.586l28.460604-27.529145c.375-.375.586-.884.586-1.414l.266433-39.022588z" filter="url(#a)" opacity=".306849" transform="matrix(1.0416667 0 0 1.0357143 -164.85982 55.584953)"/><path d="m-131.10775 70.799455.00001 67.999995h33.443828c.53 0 1.039-.211 1.414-.586l28.278631-27.33989c.375-.375.586-.884.586-1.414l.277534-38.660105z" fill="url(#g)"/><path d="m-126.42902 74.499455c-.53928 0-.97873.440836-.97873.981818l-.69999 60.336367c0 .54197.43945.98182.97873.98182l29.184848.00001c.2574 0 .50991-.10407.69196-.28767l25.580151-26.74304c.18303-.1836.28677-.43593.28677-.69415l.277534-33.293337c0-.540982-.43847-.981818-.97872-.981818z" fill="url(#h)"/><g transform="matrix(.88615191 0 0 .88615191 -166.11501 32.731214)"><path d="m111.414 86.586c.25-.25-26.379-1.586-31.414-1.586-1.654 0-3 1.346-3 3 0 5.035 1.336 31.664 1.586 31.414z" fill="url(#i)" filter="url(#e)" opacity=".1"/><path d="m111.414 86.586c.375-.375-21.97-.586-31.414-.586-1.103 0-2 .897-2 2 0 9.444.211 31.789.586 31.414z" filter="url(#c)" opacity=".2"/><path d="m111.414 86.586c.239-.239-21.607.414-31.414.414-.553 0-1 .447-1 1 0 9.807-.653 31.653-.414 31.414z" fill="url(#j)" filter="url(#d)" opacity=".1"/><path d="m78.586 119.414s11.914-9.914 17.414-15.414 15.414-17.414 15.414-17.414-21.164 1.414-31.414 1.414c0 10.25-1.414 31.414-1.414 31.414z" fill="url(#k)"/></g></g><path d="m40 120.71952-19.406997 4.28159-1.08823-3.38599 7.91843-4.49677c-21.1797344-10.85728-21.1130043-25.487986-15.423203-37.11835l4.592994 2.533487c-3.925054 9.374757-5.515408 20.513633 13.16407 30.089223l-.960877-8.90535 3.46612-1.19453z" fill="url(#f)" fill-rule="evenodd"/><g transform="translate(151.10775 -54.799455)"><path d="m30.481987 12.758728.04083 69.517244 34.51214.000006c.53 0 1.039-.211 1.414-.586l28.460604-27.529145c.375-.375.586-.884.586-1.414l.266433-39.988105z" filter="url(#a)" opacity=".306849" transform="matrix(1.0416667 0 0 1.0357143 -164.85982 55.584953)"/><path d="m32.401986 14.689864.000013 65.655178 32.056957-.000094c.53 0 1.039-.211 1.414-.586l27.116605-26.467081c.375-.375.586-.884.586-1.414l.266433-37.188003z" filter="url(#b)" opacity=".89589" transform="matrix(1.0416667 0 0 1.0357143 -164.85982 55.584953)"/><path d="m30.481987 13.724245.04083 68.551727 34.51214.000006c.53 0 1.039-.211 1.414-.586l28.460604-27.529145c.375-.375.586-.884.586-1.414l.266433-39.022588z" filter="url(#a)" opacity=".306849" transform="matrix(1.0416667 0 0 1.0357143 -164.85982 55.584953)"/><path d="m-131.10775 70.799455.00001 67.999995h33.443828c.53 0 1.039-.211 1.414-.586l28.278631-27.33989c.375-.375.586-.884.586-1.414l.277534-38.660105z" fill="url(#g)"/><path d="m-126.42902 74.499455c-.53928 0-.97873.440836-.97873.981818l-.69999 60.336367c0 .54197.43945.98182.97873.98182l29.184848.00001c.2574 0 .50991-.10407.69196-.28767l25.580151-26.74304c.18303-.1836.28677-.43593.28677-.69415l.277534-33.293337c0-.540982-.43847-.981818-.97872-.981818z" fill="url(#h)"/><g transform="matrix(.88615191 0 0 .88615191 -166.11501 32.731214)"><path d="m111.414 86.586c.25-.25-26.379-1.586-31.414-1.586-1.654 0-3 1.346-3 3 0 5.035 1.336 31.664 1.586 31.414z" fill="url(#i)" filter="url(#e)" opacity=".1"/><path d="m111.414 86.586c.375-.375-21.97-.586-31.414-.586-1.103 0-2 .897-2 2 0 9.444.211 31.789.586 31.414z" filter="url(#c)" opacity=".2"/><path d="m111.414 86.586c.239-.239-21.607.414-31.414.414-.553 0-1 .447-1 1 0 9.807-.653 31.653-.414 31.414z" fill="url(#j)" filter="url(#d)" opacity=".1"/><path d="m78.586 119.414s11.914-9.914 17.414-15.414 15.414-17.414 15.414-17.414-21.164 1.414-31.414 1.414c0 10.25-1.414 31.414-1.414 31.414z" fill="url(#k)"/></g></g><g transform="matrix(2.5484914 0 0 2.5484914 45.615385 -624.97877)"><rect height="1.569545" rx=".054608" ry=".108462" width="25.112898" x="4.074809" y="292.32147"/><rect fill="#1d1d1d" height="6.27821" rx="2.116667" transform="scale(1 -1)" width="31.391121" x=".935697" y="-279.76501"/><rect fill="url(#l)" height="12.677184" rx=".058809" ry=".080616" width="31.391119" x=".935697" y="276.62592"/><rect fill="#b6b6b6" height="5.855636" rx="1.965476" ry="2.116667" transform="scale(1 -1)" width="28.282192" x="2.505253" y="-279.76501"/><rect fill="url(#m)" height="10.986907" rx=".054608" ry=".073287" width="28.252007" x="2.505253" y="276.62592"/><rect fill="#111012" height="9.417329" rx=".054608" ry=".079045" width="21.973783" x="5.644365" y="267.20859"/><rect fill="#3e3c41" height="6.972047" rx=".048541" ry=".065958" width="18.472469" x="7.696861" y="268.77814"/><rect fill="#28232c" height="4.040584" rx=".055035" ry=".072666" width="24.653723" x="4.618117" y="273.90939"/><rect fill="#9f9f9f" fill-opacity=".996078" height="14.126008" rx=".06371" ry=".077951" width="14.126004" x="10.353033" y="262.49991"/><rect fill="url(#n)" height="12.556458" rx=".054608" ry=".065958" width="10.986893" x="11.922588" y="264.06946"/><path d="m5.3917056 273.93783h23.1832944c.0275 0 .04964.0411.04964.092v4.35722c0 .051-.03322.07-.04964.092l-1.970778 2.64583.09624 1.5875h-19.4342247l.096246-1.5875-1.9707781-2.64583c-.017928-.0241-.049642-.041-.049642-.092v-4.35722c0-.051.02214-.092.049642-.092z" style="stroke:#1f1f1f;stroke-width:.79375;stroke-linecap:square;stroke-linejoin:round;stroke-opacity:.924883;fill:url(#o)"/><g fill-rule="evenodd"><path d="m5.6443647 287.61281-1.569556 4.70867h25.1128963l-1.569556-4.70867z" fill="#424245"/><path d="m7.9212326 287.47983-2.2768675 7.98076h21.9737839l-2.049007-7.98076z" fill="#434343"/><path d="m8.471829 287.47983-1.0576881 6.87841h18.4347081l-1.057688-6.87841z" fill="url(#p)"/></g><rect height="3.146359" rx=".054608" ry=".070466" width="19.244411" x="7.213921" y="284.47369"/><rect fill="url(#q)" height="1.569546" rx=".054608" ry=".041279" width="7.84778" x="13.492145" y="281.33459"/><rect fill="url(#r)" height="6.278213" opacity=".92" rx=".081912" ry=".266648" width="14.126004" x="10.353033" y="273.48682"/><rect fill="#986aae" height="4.708691" rx=".074396" ry=".169417" width="10.986893" x="11.922588" y="273.48682"/><rect fill="#c9b1d5" height="3.1391" rx=".06826" ry=".139031" width="9.688491" x="12.507398" y="273.48682"/><rect fill="#1d1d1d" height="1.569561" rx=".06826" ry=".070525" width="7.847779" x="13.492145" y="273.48682"/><path d="m7.2139208 286.04325.052316-3.33078h19.4342292l-.436546 3.33078z" fill="#545156" fill-rule="evenodd"/></g></g></svg>