<svg height="32" viewBox="0 0 31.999999 31.999999" width="32" xmlns="http://www.w3.org/2000/svg" xmlns:xlink="http://www.w3.org/1999/xlink"><linearGradient id="a" gradientUnits="userSpaceOnUse" x1="78.611023" x2="120.34367" y1="1011.2147" y2="1033.9094"><stop offset="0" stop-color="#fff"/><stop offset="1" stop-color="#ccc"/></linearGradient><linearGradient id="b" gradientUnits="userSpaceOnUse" x1="100.83469" x2="116.42816" y1="35.992722" y2="78.92421"><stop offset="0" stop-color="#fff" stop-opacity=".683453"/><stop offset="1" stop-color="#fff" stop-opacity="0"/></linearGradient><linearGradient id="c" gradientTransform="matrix(.5963646 0 0 .63697579 63.973311 385.80879)" gradientUnits="userSpaceOnUse" x1="65.456863" x2="65.985519" y1="947.38373" y2="1011.6694"><stop offset="0" stop-color="#363636"/><stop offset="1" stop-color="#cdcdcd"/></linearGradient><linearGradient id="d" gradientUnits="userSpaceOnUse" x1="88.38102" x2="130.48599" y1="1008.9966" y2="1015.6953"><stop offset="0" stop-color="#5e5e5e"/><stop offset="1" stop-color="#5e5e5e" stop-opacity="0"/></linearGradient><filter id="e" color-interpolation-filters="sRGB" height="1.12903" width="1.240695" x="-.120348" y="-.064515"><feGaussianBlur stdDeviation="1.8475301"/></filter><linearGradient id="f" gradientUnits="userSpaceOnUse" x1="102.76828" x2="102.87263" y1="996.59485" y2="1014.126"><stop offset="0" stop-color="#979797"/><stop offset=".148461" stop-color="#f6f6f6"/><stop offset=".28399727" stop-color="#e2e2e2"/><stop offset=".59572202" stop-color="#dedede"/><stop offset=".73809379" stop-color="#f6f6f6"/><stop offset="1" stop-color="#6b6b6b"/></linearGradient><linearGradient id="g" gradientUnits="userSpaceOnUse" x1="102.6542" x2="102.70658" y1="-1035.715" y2="-1014.9489"><stop offset="0" stop-color="#777"/><stop offset=".07421063" stop-color="#a8a8a8"/><stop offset=".22864534" stop-color="#cdcdcd"/><stop offset=".34561315" stop-color="#f7f7f7"/><stop offset="1" stop-color="#fff"/></linearGradient><filter id="h"><feGaussianBlur stdDeviation="4"/></filter><linearGradient id="i" gradientUnits="userSpaceOnUse" x1="17.948702" x2="110.0518" y1="40" y2="40"><stop offset="0" stop-color="#fff"/><stop offset=".80000001" stop-color="#fff" stop-opacity="0"/></linearGradient><radialGradient id="j" cx="64" cy="64" gradientUnits="userSpaceOnUse" r="52"><stop offset="0" stop-color="#fff"/><stop offset=".574" stop-color="#fff"/><stop offset=".6842" stop-color="#fbfbfb"/><stop offset=".8001" stop-color="#eee"/><stop offset=".9" stop-color="#ddd"/><stop offset="1" stop-color="#bbb"/></radialGradient><linearGradient id="k" gradientUnits="userSpaceOnUse" x1="58.0005" x2="58.0005" y1="116" y2=".000488"><stop offset="0" stop-color="#555"/><stop offset="1" stop-color="#888"/></linearGradient><radialGradient id="l" cx="63.75" cy="63.875" gradientTransform="matrix(1 0 0 .9948454 0 .329253)" gradientUnits="userSpaceOnUse" r="24.25" spreadMethod="pad"><stop offset="0" stop-color="#f40000" stop-opacity=".941176"/><stop offset="1" stop-color="#cb0006"/></radialGradient><g transform="matrix(.21784633 0 0 .21784633 2.025578 2.090093)"><circle cx="58" cy="58" fill="url(#k)" r="58" transform="matrix(1.1034483 0 0 1.1034483 0 -.000003)"/><g filter="url(#h)" opacity=".8" transform="matrix(1.0833333 0 0 1.0833333 1.166669 1.166669)"><path d="m10 58c0 26.467 21.533 48 48 48s48-21.533 48-48-21.533-48-48-48-48 21.533-48 48z"/></g><path d="m12 63.999999c0 28.672582 23.327414 52.000001 51.999998 52.000001 28.672586 0 52.000002-23.327419 52.000002-52.000001 0-28.672584-23.327416-51.999999-52.000002-51.999999-28.672584 0-51.999998 23.327415-51.999998 51.999999z" fill="url(#j)"/><ellipse cx="63.75" cy="63.875" fill="url(#l)" fill-rule="evenodd" rx="24.25" ry="24.125" transform="matrix(.9896907 0 0 .9948187 .907217 .455959)"/><path d="m63.999998 63.999999c17.789001 0 33.967008-5.129999 46.051992-13.508999-5.852-19.909-24.275991-34.491-46.051992-34.491-21.776999 0-40.200999 14.582999-46.050998 34.491 12.083 8.379 28.260999 13.508999 46.050998 13.508999z" fill="url(#i)" opacity=".5"/></g><g transform="matrix(.25 0 0 .25 -.000044 -230.590566)"><path d="m76.46817 972.50342h51.19441v77.77988h-51.19441z" fill="#4d4d4d"/><path d="m78.611023 974.10779h46.908687v74.21371h-46.908687z" fill="url(#a)"/><path d="m78.611328 49.746094v51.285156c16.429399-20.561618 32.025322-27.545067 46.908202-28.796875v-22.488281z" fill="url(#b)" fill-rule="evenodd" transform="translate(0 924.36216)"/><path d="m90.869186 988.89819h22.891934v42.14551h-22.891934z" fill="url(#c)"/><path d="m92.81509 1029.6319c1.071428 1.4286 10.71429 15.3572 11.78571 13.5715 1.07143-1.7858 26.42857-25.3572 25-26.7858-1.42857-1.4285-33.928567-41.78567-33.928567-41.78567z" fill="url(#d)" fill-rule="evenodd" filter="url(#e)" transform="matrix(.69309305 0 0 .69309305 41.154082 321.73716)"/><path d="m92.999054 991.90948h18.632186v36.12292h-18.632186z" fill="#171717"/><path d="m94.788757 996.69385h15.052793v17.70915h-15.052793z" fill="url(#f)"/><path d="m94.827774-1035.9587h14.974746v21.9841h-14.974746z" fill="url(#g)" transform="scale(1 -1)"/></g></svg>