<svg enable-background="new 0 0 128 128" height="32" viewBox="0 0 32 32" width="32" xmlns="http://www.w3.org/2000/svg" xmlns:xlink="http://www.w3.org/1999/xlink"><linearGradient id="a" gradientUnits="userSpaceOnUse" x1="42" x2="72.138878" y1="118.03125" y2="5.551427"><stop offset="0" stop-color="#084775"/><stop offset="1" stop-color="#084775" stop-opacity="0"/></linearGradient><filter id="b"><feGaussianBlur stdDeviation="1.0394514"/></filter><filter id="c"><feGaussianBlur stdDeviation=".50063244"/></filter><filter id="d"><feGaussianBlur stdDeviation="1.2346784"/></filter><clipPath id="e"><path d="m-23.029324-146.61201c-5.531616-.24083-10.64527 3.53552-12 8.96875-.000021.0104-.000021.0208 0 .0312l-2.8125 11.40625h-6.03125c-6.441349 0-11.84375 5.4024-11.84375 11.84375v8c0 5.84595 4.517586 10.626564 10.15625 11.5l-4.125 16.65625h-6.1875c-6.441349 0-11.84375 5.402402-11.84375 11.84375v8c0 5.890458 4.58168 10.71459 10.28125 11.53125l-.84375 3.4375c-1.553679 6.23113 2.382454 12.78725 8.625 14.34375l7.78125 1.9375c6.231123 1.55368 12.818494-2.3825 14.375-8.625.000021-.01042.000021-.02083 0-.03125l2.65625-10.75h14.65625l-.78125 3.125c-1.553681 6.23114 2.382455 12.78725 8.625 14.34375l7.78125 1.9375c6.213771 1.54936 12.804599-2.45209 14.34375-8.625.000021-.01042.000021-.02083 0-.03125l2.65625-10.75h9.6875c6.44135 0 11.84375-5.402396 11.84375-11.84375v-8c0-6.441353-5.4024-11.84375-11.84375-11.84375h-1.875l4.03125-16.3125h9.84375c6.44135 0 11.84375-5.402396 11.84375-11.84375v-8c0-6.44135-5.4024-11.84375-11.84375-11.84375h-2.03125l.9375-3.78125c1.55369-6.23115-2.3825-12.78724-8.625-14.34375l-7.78125-1.9375c-6.231121-1.55367-12.818487 2.38251-14.375 8.625-.000021.0104-.000021.0208 0 .0312l-2.8125 11.40625h-14.625l.9375-3.78125c1.571025-6.30072-2.431097-12.79157-8.65625-14.34375l-7.75-1.9375c-.677154-.16884-1.43324-.30275-2.375-.34375zm10.03125 52.09375h14.625l-4.03125 16.3125h-14.625z"/></clipPath><linearGradient id="f" gradientTransform="matrix(-3.1980625 0 0 -3.2594209 118.15388 991.37507)" gradientUnits="userSpaceOnUse" x1="0" x2="31.942419" y1="294.88333" y2="274.79138"><stop offset="0" stop-color="#5499ff"/><stop offset=".11366145" stop-color="#5a9cff"/><stop offset=".20296694" stop-color="#80b3ff"/><stop offset=".21468808" stop-color="#7aafff"/><stop offset=".2560246" stop-color="#80b3ff"/><stop offset=".5313" stop-color="#80b3ff"/><stop offset=".8449" stop-color="#80b3ff"/><stop offset="1" stop-color="#80b3ff"/></linearGradient><linearGradient id="g" gradientUnits="userSpaceOnUse" x1="65.918159" x2="95.469009" y1="92.505585" y2="72.005585"><stop offset="0" stop-color="#382a23"/><stop offset="1" stop-color="#753919" stop-opacity="0"/></linearGradient><filter id="h" color-interpolation-filters="sRGB" height="1.116259" width="1.118972" x="-.059486" y="-.058129"><feGaussianBlur stdDeviation="2.3063507"/></filter><radialGradient id="i" cx="30.826572" cy="86.85881" gradientTransform="matrix(.97177617 0 0 .99360916 2.808391 -1.052321)" gradientUnits="userSpaceOnUse" r="48.221165"><stop offset="0" stop-color="#fff718"/><stop offset="1" stop-color="#e77100"/></radialGradient><linearGradient id="j" gradientUnits="userSpaceOnUse" x1="-6.953438" x2="66.845505" y1="100.30381" y2="77.467064"><stop offset="0" stop-color="#753919"/><stop offset="1" stop-color="#753919" stop-opacity="0"/></linearGradient><radialGradient id="k" cx="45.885448" cy="75.050514" gradientTransform="matrix(.97177617 0 0 .99360916 2.808391 -1.052321)" gradientUnits="userSpaceOnUse" r="48.221165" xlink:href="#l"/><linearGradient id="l"><stop offset="0" stop-color="#31170a"/><stop offset="1" stop-color="#542912" stop-opacity="0"/></linearGradient><radialGradient id="m" cx="-3.114552" cy="128.35297" gradientTransform="matrix(.97177617 0 0 .99360916 2.808391 -1.052321)" gradientUnits="userSpaceOnUse" r="48.221165" xlink:href="#l"/><linearGradient id="n" gradientUnits="userSpaceOnUse" x1="11.554377" x2="74.575577" xlink:href="#o" y1="103.21913" y2="90.586044"/><linearGradient id="o" gradientUnits="userSpaceOnUse" x1="28" x2="28" y1="57.5" y2="0"><stop offset="0" stop-color="#ffea00"/><stop offset="1" stop-color="#fc0"/></linearGradient><linearGradient id="p" gradientUnits="userSpaceOnUse" x1="4.266055" x2="89.204308" y1="115.05597" y2="115.05597"><stop offset="0" stop-color="#ffea00"/><stop offset="1" stop-color="#dea200"/></linearGradient><linearGradient id="q" gradientUnits="userSpaceOnUse" x1="2.814214" x2="68.147888" y1="124.73762" y2="62.865772"><stop offset="0" stop-color="#ffeb4a"/><stop offset="1" stop-color="#ffeb4a" stop-opacity="0"/></linearGradient><filter id="r" color-interpolation-filters="sRGB" height="1.035563" width="1.036448" x="-.018224" y="-.017782"><feGaussianBlur stdDeviation=".66328126"/></filter><linearGradient id="s" gradientUnits="userSpaceOnUse" x1="9.610824" x2="2.222648" xlink:href="#o" y1="58.780281" y2="105.91142"/><linearGradient id="t" gradientUnits="userSpaceOnUse" x1="1.90311" x2="32.767338" y1="44.651196" y2="82.160851"><stop offset="0" stop-color="#fff"/><stop offset="1" stop-color="#fff" stop-opacity="0"/></linearGradient><g transform="scale(.25)"><path d="m26.84 12.862069.04082 104.275861 84.02324.0272v-104.303031h-84.064056z" filter="url(#b)" opacity=".306849" transform="matrix(0 .93986309 -1.0357143 0 131.32153 4.969537)"/><path d="m28.759999 14.793205v100.413795h80.224061v-100.413795z" filter="url(#c)" opacity=".89589" transform="matrix(0 .93986309 -1.0357143 0 131.32153 4.969537)"/><path d="m26.84 13.827586.04082 103.310344 84.02324.0272v-103.337514h-84.064056z" filter="url(#b)" opacity=".698" transform="matrix(0 .93986309 -1.0357143 0 131.32153 4.969537)"/><path d="m116 32h-104v75.39963h104z" fill="#81b4ff" stroke-width=".949878"/><path d="m108.00003 100h-88.00003v-60h88.00003z" fill="url(#f)" opacity=".99"/><path clip-path="url(#e)" d="m22.5 42.5-2.25 15.5 14-11.75zm21.75.5 12 14.625 11-.125 17.25-12.75zm50 2 9.25 12.375h6l4.5-11.375zm-83.5 46.75-2.25 13.375 14.5-10.875zm91 1.25-18 1 7.75 11.375 7.25-.5zm-31 .5-34.5.25 8.75 12.8125 10.3125-.9375z" fill="url(#a)" fill-rule="evenodd" filter="url(#d)" transform="matrix(0 .90226854 -1 0 197.85875 310.08844)"/><path clip-path="url(#e)" d="m22.5 42.5-8.662305 12.749263 6.412305 2.750737 14-11.75zm71.75 2.5 9.25 12.375 18.02082 1.06066-7.52082-12.43566zm-83.5 46.75-10.20495127 12.66789 22.45495127-10.16789zm91 1.25-18 1 7.75 11.375 17.14949.38388z" fill="url(#a)" fill-rule="evenodd" filter="url(#d)" opacity=".450495" transform="matrix(0 .90226854 -1 0 197.85875 310.08844)"/><g fill="#eee"><path d="m16 36h96v4h-96z"/><path d="m16 100h96v4h-96z"/><path d="m40-20h60v4h-60z" transform="rotate(90)"/></g><path d="m40-112h60v4h-60z" fill="#cacaca" fill-opacity=".992157" transform="rotate(90)"/><path d="m16 56h96v4h-96z" fill="#eee"/></g><g transform="matrix(.25 0 0 .25 -.000073 .064457)"><path d="m3.7599545 30.894267c-1.5704891.0049-2.8411906 1.279112-2.84179695 2.849609v89.523444c.00061456 1.57354 1.27606815 2.849 2.84960945 2.84961h87.351562c2.521216-.00092 3.800225-3.03383 2.041016-4.83985l-87.3515624-89.523438c-.5386162-.551753-1.2777681-.861789-2.0488281-.859375zm14.1807005 42.435114 35.028717 35.643949h-35.028717z" fill="url(#g)" filter="url(#h)" transform="matrix(.97177617 0 0 .97177617 2.808391 .715728)"/><path d="m4.7443515 33.143064c-1.5261642.0048-2.7610017 1.243011-2.7615905 2.769183v86.996743c.0005934 1.52913 1.2400499 2.76859 2.7691825 2.76919h84.8861665c2.450068-.00089 3.692983-2.94821 1.983411-4.70326l-84.8861672-86.996735c-.5234143-.536181-1.2417045-.837466-1.9910023-.835121zm13.7804665 41.237433 34.040073 34.637943h-34.040073z" fill="url(#i)"/><path d="m4.7443515 33.143064c-1.5261642.0048-2.7610017 1.243011-2.7615905 2.769183v86.996743c.0005934 1.52913 1.2400499 2.76859 2.7691825 2.76919h84.8861665c2.450068-.00089 3.692983-2.94821 1.983411-4.70326l-84.8861672-86.996735c-.5234143-.536181-1.2417045-.837466-1.9910023-.835121zm13.7804665 41.237433 34.040073 34.637943h-34.040073z" fill="url(#j)"/><path d="m4.7443515 33.143064c-1.5261642.0048-2.7610017 1.243011-2.7615905 2.769183v86.996743c.0005934 1.52913 1.2400499 2.76859 2.7691825 2.76919h84.8861665c2.450068-.00089 3.692983-2.94821 1.983411-4.70326l-84.8861672-86.996735c-.5234143-.536181-1.2417045-.837466-1.9910023-.835121zm13.7804665 41.237433 34.040073 34.637943h-34.040073z" fill="url(#k)"/><path d="m4.7443515 33.143064c-1.5261642.0048-2.7610017 1.243011-2.7615905 2.769183v86.996743c.0005934 1.52913 1.2400499 2.76859 2.7691825 2.76919h84.8861665c2.450068-.00089 3.692983-2.94821 1.983411-4.70326l-84.8861672-86.996735c-.5234143-.536181-1.2417045-.837466-1.9910023-.835121zm9.7804665 33.237433 46.040073 46.637943h-46.040073z" fill="url(#m)"/><path d="m4.7519435 35.912247v86.996743h84.8861665zm11.0036925 31.663918 43.38203 44.211455h-43.38203z" fill="url(#n)"/><path d="m58.528407 111.16318.609259.62444h-38.934101l-15.4516215 10.76455v.35682h84.2598265z" fill="url(#p)" fill-rule="evenodd"/><path d="m2 36.21875v89.52344h87.351562zm11.323279 32.583551 44.641998 45.495509h-44.641998z" fill="none" filter="url(#r)" stroke="url(#q)" stroke-width="1.2" transform="matrix(.97177617 0 0 .97177617 2.808391 .715728)"/><path d="m4.7519435 36.608813v86.300177h.6624021l10.6127044-15.12137h-.271414v-34.033043c-2.961766-5.421563-6.9528377-26.361977-11.0036925-37.145764z" fill="url(#s)" fill-rule="evenodd"/><path d="m4.7519435 37.170224v53.896014l10.6614815-6.189167v-16.901984l14.001841 12.150217 4.776487-12.782659z" fill="url(#t)" fill-rule="evenodd"/><path d="m4.7519435 35.912247v86.996743h.7288321v-86.248932zm11.7325245 32.149806v.261925l42.653198 43.463642h-42.653198v.48589h43.38203z" fill="#fff"/></g></svg>