<svg height="32" viewBox="0 0 32 32" width="32" xmlns="http://www.w3.org/2000/svg" xmlns:xlink="http://www.w3.org/1999/xlink"><linearGradient id="a" gradientUnits="userSpaceOnUse" x1="88.591797" x2="71.262016" y1="96.592697" y2="79.262917"><stop offset="0" stop-color="#fff"/><stop offset="1" stop-color="#555753"/></linearGradient><filter id="b"><feGaussianBlur stdDeviation=".40750996"/></filter><filter id="c"><feGaussianBlur stdDeviation=".90565481"/></filter><linearGradient id="d" gradientUnits="userSpaceOnUse" x1="85.219681" x2="61.336319" y1="93.219681" y2="69.336319"><stop offset="0"/><stop offset="1" stop-color="#393b38"/></linearGradient><filter id="e"><feGaussianBlur stdDeviation=".4901192"/></filter><linearGradient id="f" gradientUnits="userSpaceOnUse" x1="96" x2="88.000198" y1="104" y2="96.000198"><stop offset="0" stop-color="#888a85"/><stop offset=".0072" stop-color="#8c8e89"/><stop offset=".0673" stop-color="#abaca9"/><stop offset=".1347" stop-color="#c5c6c4"/><stop offset=".2115" stop-color="#dbdbda"/><stop offset=".3012" stop-color="#ebebeb"/><stop offset=".4122" stop-color="#f7f7f6"/><stop offset=".5679" stop-color="#fdfdfd"/><stop offset="1" stop-color="#fff"/></linearGradient><linearGradient id="g" gradientUnits="userSpaceOnUse" x1="78.610847" x2="120.3435" y1="88.852417" y2="111.54715"><stop offset="0" stop-color="#fff"/><stop offset="1" stop-color="#ccc"/></linearGradient><linearGradient id="h" gradientUnits="userSpaceOnUse" x1="100.83452" x2="116.42799" y1="37.992622" y2="80.92411"><stop offset="0" stop-color="#fff" stop-opacity=".55036"/><stop offset="1" stop-color="#fff" stop-opacity="0"/></linearGradient><linearGradient id="i" gradientTransform="matrix(.5963646 0 0 .63697579 63.973141 -536.55347)" gradientUnits="userSpaceOnUse" x1="65.456863" x2="65.985519" y1="947.38373" y2="1011.6694"><stop offset="0" stop-color="#363636"/><stop offset="1" stop-color="#cdcdcd"/></linearGradient><linearGradient id="j" gradientUnits="userSpaceOnUse" x1="88.38102" x2="130.48599" y1="1008.9966" y2="1015.6953"><stop offset="0" stop-color="#5e5e5e"/><stop offset="1" stop-color="#5e5e5e" stop-opacity="0"/></linearGradient><clipPath id="k"><path d="m50.951443 938.9306h73.863687v112.2214h-73.863687z"/></clipPath><filter id="l" color-interpolation-filters="sRGB" height="1.12903" width="1.240695" x="-.120348" y="-.064515"><feGaussianBlur stdDeviation="1.8475301"/></filter><linearGradient id="m" gradientUnits="userSpaceOnUse" x1="102.76811" x2="102.87246" y1="74.232597" y2="91.763733"><stop offset="0" stop-color="#979797"/><stop offset=".148461" stop-color="#f6f6f6"/><stop offset=".28399727" stop-color="#e2e2e2"/><stop offset=".59572202" stop-color="#dedede"/><stop offset=".73809379" stop-color="#f6f6f6"/><stop offset="1" stop-color="#6b6b6b"/></linearGradient><linearGradient id="n" gradientUnits="userSpaceOnUse" x1="102.65403" x2="102.70641" y1="-113.35273" y2="-92.586586"><stop offset="0" stop-color="#777"/><stop offset=".07421063" stop-color="#a8a8a8"/><stop offset=".22864534" stop-color="#cdcdcd"/><stop offset=".34561315" stop-color="#f7f7f7"/><stop offset="1" stop-color="#fff"/></linearGradient><linearGradient id="o"><stop offset="0" stop-color="#fff"/><stop offset="1" stop-color="#fff" stop-opacity="0"/></linearGradient><linearGradient id="p" gradientUnits="userSpaceOnUse" x1="25.515633" x2="82.713898" xlink:href="#o" y1="-93.076469" y2="59.479324"/><linearGradient id="q" gradientUnits="userSpaceOnUse" x1="78.223663" x2="95.309601" y1="119.98714" y2="62.626804"><stop offset="0" stop-color="#5e5e5e"/><stop offset="1" stop-opacity="0"/></linearGradient><linearGradient id="r" gradientUnits="userSpaceOnUse" x1="90.739548" x2="96.131233" xlink:href="#o" y1="12.071719" y2="2.349"/><filter id="s" height="1.317541" width="1.244662" x="-.122331" y="-.15877"><feGaussianBlur stdDeviation=".27482165"/></filter><radialGradient id="t" cx="72.309822" cy="22.770975" gradientTransform="matrix(1.2890806 .00623099 -.00039589 .08190326 -20.745443 3.152109)" gradientUnits="userSpaceOnUse" r="35.712891" xlink:href="#o"/><linearGradient id="u" gradientUnits="userSpaceOnUse" x1="101.04345" x2="64.526085" xlink:href="#o" y1="72.676468" y2="-60.538036"/><linearGradient id="v" gradientUnits="userSpaceOnUse" x1="88.009483" x2="95.687553" xlink:href="#o" y1="145.50327" y2="62.626804"/><filter id="w" color-interpolation-filters="sRGB" height="1.005726" width="1.009696" x="-.004848" y="-.002863"><feGaussianBlur stdDeviation=".12613919"/></filter><g transform="scale(.25)"><path d="m56.22366 5.2664335v.2460938c-15.854861 1.8206395-27.829677 15.2323667-27.849609 31.1914057.01101 15.965751 11.98809 29.387571 27.849609 31.208984v52.074223l11.77634.01286v-88.134769h8v88.134769h12v-101.414066h6.060547c.929595 0 1.677734-.748139 1.677734-1.677735v-9.949218c0-.9295954-.748344-1.6601582-1.677734-1.6796875h-6.060547l-7.77634-.01286h-12.162109z"/><path d="m56.22366 5.2664335v.2460938c-15.854861 1.8206395-27.829677 15.2323667-27.849609 31.1914057.01101 15.965751 11.98809 29.387571 27.849609 31.208984v52.074223l11.77634.01286v-88.134769h8v88.134769h12v-101.414026h6.060547c.929595 0 1.677734-.748139 1.677734-1.677735v-9.949218c0-.9295954-.748439-1.6560616-1.677734-1.6796875h-6.060547l-7.77634-.0129h-12.162109z" fill="url(#t)" opacity=".74"/><path d="m56.960937 10.259728c-.304465.105766-.61943.17845-.939453.216797-13.62291 1.56434-23.135155 12.512168-23.157199 26.223502.000002.002-.000002.0039 0 .0059-.000002.0013.000002.0026 0 .0039.01438 13.717156 9.528514 25.680235 23.157199 27.245247 2.266783.260505 3.978015 2.179234 3.978516 4.460937v47.583989h4v-83.644569c.000583-2.479646 2.010588-4.489651 4.490234-4.490235l7.019531.00003c2.479647.000583 4.489652 2.010588 4.490235 4.490235v83.644539h4.857422v-96.923836c.000583-2.479646 2.010588-4.489651 4.490234-4.490235h3.248047v-4.326171h-3.248047-11.837891l-11.019531-.00003z" fill="url(#q)"/><path d="m58.035685 10.983568c-.304465.105765-.61943.17845-.939453.216797-13.62291 1.56434-24.209903 11.788328-24.231947 25.499662.000002.002-.000002.0039 0 .0059-.000002.0013.000002.0026 0 .0039.01438 13.717156 10.242409 25.177175 23.871094 26.742187 1.290071.150501 2.451821.85211 3.185547 1.923828 1.900925-.23256 2.214792-1.035747 4.079074-1.375842v-32.664096c.000583-2.479646 2.010588-4.489651 4.490234-4.490235l6.542968 1.253939c2.479647.000583 4.489652 2.010588 4.490235 4.490235v27.626953c1.666079-.688476 3.286739-1.424844 4.857422-2.207031v-38.699219c.000583-2.479646 2.010588-4.489651 4.490234-4.490235h3.248047v-4.326171h-3.248047-11.837891l-10.182115-.02704z" fill="url(#p)"/><path d="m96.131238 6.1055056-3.535535 4.1542524-1.85615-.265166z" fill="url(#r)" fill-rule="evenodd" filter="url(#s)"/><path d="m91.7182 10.514243v4.269531h-3.216796c-2.455054.0011-4.120068 2.425621-4.120545 4.882241v38.34375c-1.420579.701656-2.882001 1.365583-4.380859 1.990235v.669922c1.666079-.688476 3.286739-1.424844 4.857422-2.207031v-38.699219c.000583-2.479646 1.68582-4.922674 4.165466-4.923258h3.248047v-4.326171zm-23.270935 16.671304c-2.455816-.00001-4.446788 1.991836-4.447265 4.449218v32.365235c-1.845593.336976-2.40228.617991-4.284152.848464-.726513-1.06191-1.876869-1.757109-3.154297-1.90625-13.495031-1.550653-23.622479-12.90675-23.636719-26.498047.000002-.0013-.000002-.0026 0-.0039-.000002-.0019.000002-.0039 0-.0059.0034-2.113718.251564-4.171611.71875-6.148438-.50421 2.058645-.775747 4.206383-.779297 6.414063.000002.002-.000002.0039 0 .0059-.000002.0013.000002.0026 0 .0039.01438 13.717156 10.242409 25.177175 23.871094 26.742187 1.290071.150501 2.451821.85211 3.185547 1.923828 1.900925-.23256 2.476511-.516182 4.340793-.856277v-32.664061c.000583-2.479646 2.010588-4.489651 4.490234-4.490235l6.757812 1.1875c.563291.0021 1.121169.110051 1.644531.31836-.627305-.324921-1.322935-.495648-2.029296-.498047z" fill="url(#u)"/><path d="m56.960937 10.259728c-.304465.105765-.61943.17845-.939453.216797-13.62291 1.56434-23.135155 12.512168-23.157199 26.223502.000002.002-.000002.0039 0 .0059-.000002.0013.000002.0026 0 .0039.01438 13.717156 9.528514 25.680235 23.157199 27.245247 2.266783.260505 3.978015 2.179234 3.978516 4.460937v47.583989h4v-83.644569c.000583-2.479646 2.010588-4.489651 4.490234-4.490235l7.019531.00003c2.479647.000583 4.489652 2.010588 4.490235 4.490235v83.644539h4.857422v-96.923836c.000583-2.479646 2.010588-4.489651 4.490234-4.490235h3.248047v-4.326171h-3.248047-11.837891l-11.019531-.00003z" style="opacity:.56;fill:none;stroke-width:1.133858;stroke-linecap:round;stroke-linejoin:bevel;stroke:url(#v);filter:url(#w)"/></g><g transform="matrix(.25 0 0 .25 0 .000025)"><g transform="translate(.000002)"><path d="m111.414 86.586c.25-.25-26.379-1.586-31.414-1.586-1.654 0-3 1.346-3 3 0 5.035 1.336 31.664 1.586 31.414z" fill="url(#a)" filter="url(#b)" opacity=".1"/><path d="m111.414 86.586c.375-.375-21.97-.586-31.414-.586-1.103 0-2 .897-2 2 0 9.444.211 31.789.586 31.414z" filter="url(#c)" opacity=".2"/><path d="m111.414 86.586c.239-.239-21.607.414-31.414.414-.553 0-1 .447-1 1 0 9.807-.653 31.653-.414 31.414z" fill="url(#d)" filter="url(#e)" opacity=".1"/><path d="m78.586 119.414s11.914-9.914 17.414-15.414 15.414-17.414 15.414-17.414-21.164 1.414-31.414 1.414c0 10.25-1.414 31.414-1.414 31.414z" fill="url(#f)"/></g><g transform="translate(.000002)"><path d="m111.414 86.586c.25-.25-26.379-1.586-31.414-1.586-1.654 0-3 1.346-3 3 0 5.035 1.336 31.664 1.586 31.414z" fill="url(#a)" filter="url(#b)" opacity=".1"/><path d="m111.414 86.586c.375-.375-21.97-.586-31.414-.586-1.103 0-2 .897-2 2 0 9.444.211 31.789.586 31.414z" filter="url(#c)" opacity=".2"/><path d="m111.414 86.586c.239-.239-21.607.414-31.414.414-.553 0-1 .447-1 1 0 9.807-.653 31.653-.414 31.414z" fill="url(#d)" filter="url(#e)" opacity=".1"/><path d="m78.586 119.414s11.914-9.914 17.414-15.414 15.414-17.414 15.414-17.414-21.164 1.414-31.414 1.414c0 10.25-1.414 31.414-1.414 31.414z" fill="url(#f)"/></g><path d="m76.468002 50.141159h51.194408v77.779851h-51.194408z" fill="#4d4d4d"/><path d="m78.610855 51.745529h46.908695v74.213751h-46.908695z" fill="url(#g)"/><path d="m78.611158 51.745994v51.285156c16.429399-20.561618 32.025322-27.545067 46.908202-28.796875v-22.488281z" fill="url(#h)" fill-rule="evenodd"/><path d="m90.869019 66.535934h22.891931v42.145496h-22.891931z" fill="url(#i)"/><path clip-path="url(#k)" d="m92.81509 1029.6319c1.071428 1.4286 10.71429 15.3572 11.78571 13.5715 1.07143-1.7858 26.42857-25.3572 25-26.7858-1.42857-1.4285-33.928567-41.78567-33.928567-41.78567z" fill="url(#j)" fill-rule="evenodd" filter="url(#l)" transform="matrix(.69309305 0 0 .69309305 41.153912 -600.6251)"/><path d="m92.998886 69.547226h18.632184v36.122964h-18.632184z" fill="#171717"/><path d="m94.788589 74.331589h15.052791v17.709164h-15.052791z" fill="url(#m)"/><path d="m94.827606-113.59648h14.974744v21.984106h-14.974744z" fill="url(#n)" transform="scale(1 -1)"/></g></svg>