<svg height="32" width="32" xmlns="http://www.w3.org/2000/svg" xmlns:xlink="http://www.w3.org/1999/xlink"><clipPath id="a"><rect height="125.19099" rx="4.333439" ry="4.144913" transform="matrix(-.70710684 -.70710672 -.70710672 .70710684 0 0)" width="125.19099" x="-156.80151" y="-62.379433"/></clipPath><mask id="b" maskUnits="userSpaceOnUse"><path d="m9.923884-81.414215h159.999996v160h-159.999996z" fill="url(#c)" opacity=".6" transform="matrix(.70710683 .70710673 -.70710673 .70710683 0 0)"/></mask><radialGradient id="c" cx="89.923889" cy="-1.414208" gradientUnits="userSpaceOnUse" r="113.80746"><stop offset="0" stop-color="#fff"/><stop offset=".5" stop-color="#fff"/><stop offset="1" stop-opacity="0"/></radialGradient><linearGradient id="d" gradientUnits="userSpaceOnUse" x1="70" x2="70" xlink:href="#e" y1="127" y2="32.952141"/><linearGradient id="e"><stop offset="0"/><stop offset="1" stop-color="#7c7c7c"/></linearGradient><filter id="f"><feGaussianBlur stdDeviation="1.36"/></filter><linearGradient id="g" gradientTransform="matrix(1.1428572 0 0 1 -7.142858 0)" gradientUnits="userSpaceOnUse" x1="64" x2="64" xlink:href="#h" y1="100" y2="28"/><linearGradient id="h"><stop offset="0" stop-color="#c8c8c8"/><stop offset="1" stop-color="#e4e4e4"/></linearGradient><radialGradient id="i" cx="64" cy="54.400002" gradientTransform="matrix(7.7142861 0 0 1.7500001 -427.71431 -43.200007)" gradientUnits="userSpaceOnUse" r="16" spreadMethod="reflect" xlink:href="#j"/><linearGradient id="j"><stop offset="0" stop-color="#fff"/><stop offset="1" stop-color="#fff" stop-opacity="0"/></linearGradient><filter id="k" height="1.05568" width="1.348" x="-.174" y="-.02784"><feGaussianBlur stdDeviation="1.16"/></filter><linearGradient id="l" gradientUnits="userSpaceOnUse" x1="64" x2="64" xlink:href="#e" y1="83.729706" y2="-62.169582"/><linearGradient id="m" gradientUnits="userSpaceOnUse" x1="64" x2="64" xlink:href="#h" y1="24" y2="-52"/><radialGradient id="n" cx="66" cy="-10.851176" gradientTransform="matrix(23 -.000001 .00000061 14.035669 -1452 156.4281)" gradientUnits="userSpaceOnUse" r="2" spreadMethod="reflect" xlink:href="#j"/><linearGradient id="o"><stop offset="0" stop-color="#00181d"/><stop offset="1" stop-color="#00181d" stop-opacity="0"/></linearGradient><linearGradient id="p" gradientUnits="userSpaceOnUse" x1="89.642059" x2="83.003235" y1="104.45124" y2="96.992435"><stop offset="0" stop-color="#8c8c8c"/><stop offset=".25" stop-color="#a8a8a8"/><stop offset=".5" stop-color="#c5c5c5"/><stop offset=".75" stop-color="#e2e2e2"/><stop offset="1" stop-color="#fff"/></linearGradient><linearGradient id="q" gradientUnits="userSpaceOnUse" x1="72.523917" x2="72.523917" y1="15.676145" y2="32.142143"><stop offset="0" stop-color="#fff"/><stop offset=".50551778" stop-color="#8b8b8b"/><stop offset=".50551778" stop-color="#a5a5a5"/><stop offset=".65644157" stop-color="#f4f4f4"/><stop offset=".80480587" stop-color="#bbb"/><stop offset="1" stop-color="#b1b1b1"/></linearGradient><filter id="r" height="1.227488" width="1.075829" x="-.037915" y="-.113744"><feGaussianBlur stdDeviation=".75827487"/></filter><radialGradient id="s" cx="61.331802" cy="49.168488" gradientTransform="matrix(1.3948019 .00000003 -.00000004 1.9211571 -32.21391 -81.124195)" gradientUnits="userSpaceOnUse" r="50.665401"><stop offset="0"/><stop offset=".43397453" stop-color="#171717"/><stop offset=".66038471" stop-color="#424242"/><stop offset=".75739998" stop-color="#292929"/><stop offset="1" stop-color="#1c1c1c"/></radialGradient><radialGradient id="t" cx="61.331802" cy="66.66819" gradientTransform="matrix(1.7333368 0 0 4.1107997 -52.97687 -210.05797)" gradientUnits="userSpaceOnUse" r="50.665401"><stop offset="0" stop-color="#878787"/><stop offset=".35530001" stop-color="#646464"/><stop offset=".61940002" stop-color="#2d2d2d"/><stop offset=".75739998" stop-color="#232323"/><stop offset="1" stop-color="#1f1f1f"/></radialGradient><linearGradient id="u" gradientUnits="userSpaceOnUse" x1="74.204185" x2="74.204185" y1="118.27974" y2="63.956783"><stop offset="0" stop-color="#343434"/><stop offset="1" stop-opacity="0"/></linearGradient><filter id="v"><feGaussianBlur stdDeviation=".20220663"/></filter><radialGradient id="w" cx="106.664" cy="117.3336" fy="121.10474" gradientTransform="matrix(.50000015 -.5000004 .70710696 .70710661 -29.635422 87.698281)" gradientUnits="userSpaceOnUse" r="5.3332"><stop offset="0" stop-color="#eefcff"/><stop offset="1" stop-color="#eefcff" stop-opacity="0"/></radialGradient><radialGradient id="x" cx="91.455429" cy="103.26143" gradientTransform="matrix(2.425942 0 0 2.5158062 -138.41014 -157.88666)" gradientUnits="userSpaceOnUse" r="37.361931"><stop offset="0" stop-color="#ededed"/><stop offset=".25000003" stop-color="#fff"/><stop offset=".5" stop-color="#f6f6f6"/><stop offset="1" stop-color="#eee"/></radialGradient><linearGradient id="y" gradientTransform="matrix(.75001877 0 0 1.5000374 7.999999 -4.004799)" gradientUnits="userSpaceOnUse" x1="64.45015" x2="64.45015" xlink:href="#o" y1="7.977683" y2="5.333741"/><linearGradient id="z" gradientTransform="matrix(.75001877 0 0 1.5000375 7.999999 -4.004799)" gradientUnits="userSpaceOnUse" x1="69.331604" x2="69.331604" xlink:href="#j" y1="7.5863" y2="10.674664"/><linearGradient id="A" gradientTransform="matrix(.75003377 0 0 1.5000375 7.998958 3.995198)" gradientUnits="userSpaceOnUse" x1="64.45015" x2="64.45015" xlink:href="#o" y1="7.977683" y2="5.333741"/><linearGradient id="B" gradientTransform="matrix(.75003377 0 0 1.5000375 7.998958 3.995198)" gradientUnits="userSpaceOnUse" x1="69.331604" x2="69.331604" xlink:href="#j" y1="7.5863" y2="10.674664"/><filter id="C"><feGaussianBlur stdDeviation="2.1720601"/></filter><linearGradient id="D" gradientTransform="matrix(1.0500725 0 0 1.5000373 -10.403421 -32.004798)" gradientUnits="userSpaceOnUse" x1="74.664803" x2="74.664803" y1="18.669399" y2="8.003"><stop offset="0" stop-color="#fff"/><stop offset="1" stop-color="#555"/></linearGradient><filter id="E" height="1.232813" width="1.128976" x="-.064488" y="-.116406"><feGaussianBlur stdDeviation=".80190058"/></filter><filter id="F" color-interpolation-filters="sRGB"><feGaussianBlur stdDeviation="1.0394514"/></filter><radialGradient id="G" cx="116.999998" cy="116.304706" gradientUnits="userSpaceOnUse" r="139.5585"><stop offset="0" stop-color="#f1f1f1"/><stop offset=".2435" stop-color="#fafcfd"/><stop offset=".2722" stop-color="#fff"/></radialGradient><radialGradient id="H" cx="102" cy="112.3047" gradientTransform="matrix(.62168762 -.00255035 .00327535 .79842051 52.677129 26.020201)" gradientUnits="userSpaceOnUse" r="139.55859"><stop offset="0" stop-color="#fafafa"/><stop offset=".4086861" stop-color="#fff"/><stop offset=".73169935" stop-color="#fafafa"/><stop offset="1" stop-color="#ebecec"/><stop offset="1" stop-color="#e1e2e3"/></radialGradient><filter id="I"><feGaussianBlur stdDeviation="1.4899279"/></filter><g transform="scale(.25)"><g><path d="m48 1.8691406a.78717265.78717265 0 0 0 -.787109.7871094v13.34375a.78717265.78717265 0 0 0 .787109.787109h26.65625a.78717265.78717265 0 0 0 .787109-.787109v-13.34375a.78717265.78717265 0 0 0 -.787109-.7871094z" fill="#0f0f0f" filter="url(#E)" transform="matrix(1.0458423 0 0 1.1824703 -10.078661 1.080474)"/><path d="m12 12c-4.431889 0-8 3.568111-8 8v96 2.65625c0 2.95459 2.389157 5.34375 5.34375 5.34375h2.65625 84 2.65625c2.95459 0 5.34375-2.38916 5.34375-5.34375v-2.65625-96c0-4.431889-3.56811-8-8-8z" fill="url(#s)"/><path d="m12 46.34375c-4.431889 0-8 3.568111-8 8v12.3125 49.34375 2.65625c0 2.95459 2.389157 5.34375 5.34375 5.34375h2.65625 84 2.65625c2.95459 0 5.34375-2.38916 5.34375-5.34375v-2.65625-49.34375-12.3125c0-4.431889-3.56811-8-8-8z" fill="url(#u)"/><path d="m111.9972 117.3336a5.3332 5.3332 0 0 1 -5.3332 5.3332v-5.3332z" fill="url(#w)" filter="url(#v)" opacity=".632851" transform="matrix(-1.5000378 0 0 1.5000365 172.00004 -60.004678)"/><path d="m13.3121 16c-2.954593 0-5.3125 2.389157-5.3125 5.34375v40 53.32325 2.65625c0 1.4773 1.178953 2.6875 2.65625 2.6875h2.65625 81.33398 2.65625c1.4773 0 2.6875-1.2102 2.6875-2.6875v-2.65625-53.32325-40c0-2.954593-2.38916-5.34375-5.34375-5.34375z" fill="url(#t)"/><path d="m13.3125 16c-2.95459 0-5.3125 2.389157-5.3125 5.34375v4c0-2.954593 2.35791-5.34375 5.3125-5.34375h81.34375c2.95459 0 5.34375 2.389157 5.34375 5.34375v-4c0-2.954593-2.38916-5.34375-5.34375-5.34375z" fill="#fff" opacity=".513812"/><path d="m15.28125 24.28125v89.53125h59.625.0625c5.540627-.18609 11.198674.23989 14.90625-.71875.103096-.0188.207717-.0293.3125-.0313.005-.0839.01545-.16746.03125-.25.979346-4.88981 1.741321-12.14476 2.1875-18.3125v-.125-70.09375h-77.125z" fill="#191919" filter="url(#C)" opacity=".811594"/><path d="m16 24h76v67.706914c0 5.427106-2.837978 14.635686-3.59895 16.765876-1.287463.93428-10.83405 3.52721-16.169413 3.52721h-58.898837 2.6672z" fill="url(#p)"/><path d="m17.84375 25.84375v83.3125h57.46875.03125c4.89264-.11984 10.278453-1.66359 12.1875-2.40625.114101-.38857.198674-.65838.375-1.40625.27097-1.14929.578462-2.63256.875-4.21875.59111-3.161864 1.092973-6.794368 1.15625-9.25v-.03125-66z" fill="url(#x)"/><path d="m27.3324 16.0028h52.998799c1.256908 4.579055 1.44506 12.699364 0 18.8996l-52.9988.1c-1.771197-5.775999-2.527736-14.298334.000001-18.9996z" fill-opacity=".635838" filter="url(#r)"/><path d="m28 16h52v16h-52z" fill="url(#q)"/><path d="m39.998798-20h28.001202v16h-28.001202z" fill="url(#D)" transform="scale(1 -1)"/><path d="m48 4h12v4h-12z" fill="url(#y)" opacity=".400966"/><path d="m48 8h12v4h-12z" fill="url(#z)" opacity=".400966"/><path d="m47.99976 12h12.00024v4h-12.00024z" fill="url(#A)" opacity=".400966"/><path d="m47.99976 16h12.00024v4h-12.00024z" fill="url(#B)" opacity=".400966"/><g fill="#fff" fill-rule="evenodd"><path d="m40 4h8v4h-8z" opacity=".513812"/><path d="m40 4h8v4h-8z" opacity=".513812"/><path d="m48 8h12v4h-12z" opacity=".513812"/></g></g><g><path d="m17.24 32.172407.040816 88.827583 98.839184.00001v-30.000414-58.827172z" filter="url(#F)" opacity=".306849" transform="matrix(1.0416667 0 0 1.0357143 5.041668 .678473)"/><path d="m20.408 32.558715v87.475865l95.328-.00009v-25.076284-62.399484z" filter="url(#I)" opacity=".701657" transform="matrix(1.0416667 0 0 1.0357143 5.041668 .678473)"/><path d="m28 36v87.99999l95.99999.00001v-25.827997-62.171996z" fill="url(#G)"/><path d="m32.685563 40.7-.982711.981818.297148 77.336352.982711.98182 86.994339.00001v-21.212937-57.405238l-.98271-.981818z" fill="url(#H)"/><g clip-path="url(#a)" mask="url(#b)" transform="matrix(-.5422296 -.54222948 -.54222948 .5422296 152.23985 79.834322)"><rect height="84" rx="18.257076" style="opacity:.85;fill:none;stroke-width:18.297783;stroke-linecap:round;stroke-linejoin:round;stroke:url(#d);filter:url(#f)" transform="matrix(1.1428572 0 0 1 -7.14286 0)" width="28" x="50" y="22"/><rect fill="none" height="84" rx="20.865231" stroke="url(#g)" stroke-linecap="round" stroke-linejoin="round" stroke-width="7.824461" width="32" x="50.000004" y="22"/><rect fill="none" height="84" rx="20.865231" stroke="url(#i)" stroke-linecap="round" stroke-linejoin="round" stroke-width="7.824461" width="32" x="50.000004" y="22"/><g id="J" transform="translate(0 4)"><rect height="94.031357" rx="1.510971" ry="2.608154" style="opacity:.6;fill:none;stroke-width:18.257076;stroke-linecap:round;stroke-linejoin:round;stroke:url(#l);filter:url(#k)" width="3.836991" x="64" y="-56"/><rect fill="url(#m)" height="90.650108" rx="2.576326" ry="2.608154" width="8.563862" x="62.104618" y="-55.70195"/><rect fill="url(#n)" height="89.99807" rx="2.608154" width="8.237843" x="62.430637" y="-55.049911"/></g><use height="128" transform="translate(0 144)" width="128" xlink:href="#J"/></g></g></g></svg>