<svg height="32" viewBox="0 0 8.4666665 8.466667" width="32" xmlns="http://www.w3.org/2000/svg" xmlns:xlink="http://www.w3.org/1999/xlink"><linearGradient id="a" gradientUnits="userSpaceOnUse" x1="17.295068" x2="18.255733" y1="5.669421" y2="17.368449"><stop offset="0" stop-color="#3b3e22"/><stop offset="1" stop-color="#454545" stop-opacity="0"/></linearGradient><linearGradient id="b" gradientUnits="userSpaceOnUse" x1="-23.009677" x2="-24.792784" y1="300.833111" y2="269.963481"><stop offset="0" stop-color="#555"/><stop offset="1"/></linearGradient><linearGradient id="c" gradientTransform="matrix(.4695816 0 0 .4680988 905.62956 21.579329)" gradientUnits="userSpaceOnUse" x1="1316.3584" x2="1328.4294" y1="335.24103" y2="323.17004"><stop offset="0" stop-color="#888"/><stop offset="1" stop-color="#888" stop-opacity="0"/></linearGradient><linearGradient id="d" gradientTransform="matrix(.4645221 0 0 .4638897 911.0094 24.174062)" gradientUnits="userSpaceOnUse" x1="1182.0486" x2="1152.9833" y1="508.39056" y2="441.95822"><stop offset="0" stop-color="#ddd"/><stop offset="1" stop-color="#eee"/></linearGradient><linearGradient id="e" gradientUnits="userSpaceOnUse" x1="1509.024553" x2="1474.12877" y1="182.033699" y2="235.09642"><stop offset="0" stop-color="#eee"/><stop offset="1" stop-color="#dfdfdf"/></linearGradient><linearGradient id="f" gradientTransform="matrix(-1 0 0 -1 2908.704 488.06568)" gradientUnits="userSpaceOnUse" x1="1465.4807" x2="1464.5074" xlink:href="#g" y1="261.60468" y2="260.59665"/><linearGradient id="g"><stop offset="0"/><stop offset="1" stop-opacity="0"/></linearGradient><linearGradient id="h" gradientTransform="matrix(-.482916 -1.4677695 .5089942 -1.5470316 2090.8715 2716.9265)" gradientUnits="userSpaceOnUse" x1="1465.824" x2="1465.2319" xlink:href="#g" y1="261.93036" y2="261.30896"/><linearGradient id="i" gradientUnits="userSpaceOnUse" x1="1480.3827" x2="1480.3827" xlink:href="#j" y1="204.03857" y2="160.58171"/><linearGradient id="j"><stop offset="0" stop-color="#bf0303"/><stop offset="1" stop-color="#e20800"/></linearGradient><linearGradient id="k" gradientTransform="matrix(1.8255874 .4829161 1.9241724 -.5089942 -1642.1503 -392.85391)" gradientUnits="userSpaceOnUse" x1="1465.824" x2="1465.2319" xlink:href="#g" y1="261.93036" y2="261.30896"/><linearGradient id="l" gradientUnits="userSpaceOnUse" x1="1487.89342" x2="1487.89342" xlink:href="#j" y1="233.437112" y2="188.17571"/><radialGradient id="m" cx="1518.1744" cy="154.83128" gradientTransform="matrix(3.1677546 -1.9317804 .5553605 .9106865 -3369.5496 2935.4572)" gradientUnits="userSpaceOnUse" r="45.834949" xlink:href="#n"/><linearGradient id="n"><stop offset="0" stop-color="#fff"/><stop offset="1" stop-color="#fff" stop-opacity="0"/></linearGradient><linearGradient id="o" gradientUnits="userSpaceOnUse" x1="1465.4807" x2="1464.4922" xlink:href="#g" y1="261.60468" y2="260.63828"/><linearGradient id="p" gradientTransform="matrix(.00000019 2.0757397 -2.187833 .00000018 2014.2025 -2796.1845)" gradientUnits="userSpaceOnUse" x1="1465.824" x2="1465.2319" xlink:href="#g" y1="261.93036" y2="261.30896"/><linearGradient id="q" gradientTransform="matrix(-.00000019 -2.0757397 2.187833 -.00000018 963.7883 3222.5894)" gradientUnits="userSpaceOnUse" x1="1465.824" x2="1465.0554" xlink:href="#g" y1="261.93036" y2="261.14148"/><linearGradient id="r" gradientUnits="userSpaceOnUse" x1="1183.0288" x2="1183.3557" xlink:href="#n" y1="-950.54388" y2="-953.16302"/><linearGradient id="s" gradientUnits="userSpaceOnUse" x1="1462.9708" x2="1461.3134" xlink:href="#g" y1="237.53893" y2="239.19644"/><g transform="matrix(.25 0 0 .25 0 -65.78333)"><text style="font-weight:bold;font-size:37.108696;font-family:FreeSerif;letter-spacing:0;word-spacing:0;stroke-width:.927761;fill:url(#b)" x="9.673166" y="292.16077"><tspan style="font-style:italic;font-weight:normal;font-size:37.041668;font-family:FreeSerif;stroke-width:.927761;fill:url(#b)" x="9.673166" y="292.16077">I</tspan></text><path d="m58.714844 19.552734c2.992048.426369 5.270911.935485 6.652344 1.875 1.689872.991522 2.552734 2.904465 2.552734 5.123047 0 2.34618-.533573 5.318039-1.578125 9.021485l-8.535156 30.666015a105.56094 41.16371 0 0 0 11.191406-.59375l9.744141-35.09375c1.140162-4.085593 2.214514-6.733473 3.890624-8.164062 1.463403-1.337575 4.001386-2.131786 7.484376-2.833985z" fill="url(#a)" transform="matrix(.26458333 0 0 .26458333 0 263.13332)"/><g transform="matrix(.17459541 0 0 .17459541 -234.98851 249.17352)"><path d="m1478.4151 145.63165v-2.79471z" fill="#fff" fill-opacity=".756881"/><path d="m1447.12 222.32233-14.6666 14.66657 28.9165 28.91647 14.6666-14.66657z" fill="#888"/><path d="m1516.8151 160.66445h-9.8031l30.372 30.64863v-10.59895z" fill="#bbb"/><path d="m1507.2747 160.60919h9.6479l-6.1747 5.69226-4.631-4.43803z" fill="#4b4b4b" opacity=".583333"/><path d="m1516.781 160.60837h-9.7096l30.0825 30.45567v-10.53222z" fill="url(#c)"/><path d="m1447.6077 221.85275-14.5086 14.48879 28.1353 28.21379 14.5086-14.48879z" fill="url(#d)"/><path d="m1517.5357 171.16729-61.1043 61.1043 9.465 9.465 61.031-61.0456 10.5215 10.53623.073-.0734-19.9866-19.98656z" fill="url(#e)"/><path d="m1434.8372 237.81187 14.1511-14.13543-1.5693-1.57029-14.2074 14.27442z" fill="url(#f)" opacity=".905556"/><path d="m1448.8488 222.26261-15.1875 15.17188 1.375.0156 14.5312-14.46875-.7187-.71875z" fill="#fff" opacity=".483333"/><path d="m1507.1886 162.53954 8.1326-.38933 1.4499-1.52203-9.639.15103.056 1.76033z" fill="url(#h)" opacity=".827778"/><path d="m1506.9701 160.6017-61.1043 61.1043 10.5656 10.56559 61.1043-61.1043z" fill="url(#i)"/><path d="m1531.7323 187.09254 4.3416 4.63102 1.2542-1.15774v-9.64793z" fill="#fff" opacity=".583333"/><path d="m1534.9542 190.82892.7354-8.10029 1.6015-1.83849-.1475 9.99521-2.1894-.0564z" fill="url(#k)" opacity=".827778"/><path d="m1526.9274 180.69723-61.1043 61.1043 10.5656 10.56559 61.1043-61.10431z" fill="url(#l)"/><path d="m1506.97 160.65307-61.1043 61.1043 30.5656 30.81559 61.1043-61.1043z" fill="url(#m)" opacity=".494444"/><path d="m1507.2585 161.0581-60.5894 61.16914.4164.43608 60.3249-60.34619 29.9452 28.9846.01-.047-19.9502-20.07516-10.1524-10.1215z" fill="#fff" opacity=".244444"/><path d="m1525.1497 200.30824c-.2352.23538-.4738.37591-.7158.42158-.2418.0444-.4438-.0141-.6061-.17565-.1633-.16248-.2219-.36407-.1759-.60489.046-.24201.1897-.48339.4302-.72413.2398-.23997.4807-.38361.7226-.43092.2419-.0474.4442.01.607.17199.166.16522.2256.36856.1789.61014-.047.24109-.1942.48503-.4409.73188m-.1054-.11181c.1733-.17349.2697-.34511.289-.51491.019-.17021-.041-.32393-.1785-.46108-.1336-.13299-.2858-.18921-.4567-.16873-.17.0198-.339.11374-.507.28187-.1688.1689-.2626.33845-.2815.50869-.019.16976.038.32163.1729.45555.1341.13347.2865.19139.4572.1738.1707-.0176.3389-.10935.5046-.27519m1.0202-.8549.047-1.07574-1.0462.0265.2841-.2843.7948-.0229.041-.81394.2268-.22697-.046 1.03585 1.0862-.0279-.2841.2843-.8378.0258-.038.85115-.2279.22813m2.0377-2.0394-.4286-.42658-1.1638-.0288.2749-.27513.9032.021.011-.93577.2233-.22354-.011 1.19873.4315.42938-.2406.24073m2.3411-2.39826c-.1698.241-.3311.43792-.4838.59077-.2696.26978-.523.43067-.7603.48259-.2365.0512-.4414-.01-.6149-.18213-.1701-.16933-.2294-.37393-.1779-.6138.051-.24032.2083-.49233.4717-.756.1726-.17271.3676-.33685.5849-.49252l.1345.13392c-.2817.186-.4848.34131-.6093.46588-.1833.18343-.288.36345-.3142.54009-.025.17592.03.33199.1672.46821.1354.1348.2951.18551.4789.15198.1834-.034.3728-.14878.5683-.34443.08-.0802.1583-.17548.2343-.28577l-.3343-.33274.2394-.23959zm.4492-.39429-1.0265-1.02168.9472-.94805.109.10842-.7067.70732.3294.32786.5922-.59267.1075.107-.5922.59267.3718.37001.756-.7566.1089.10837zm1.2738-1.27477-1.0266-1.02167.236-.23616 1.6461-.065-.7928-.78903.2062-.20635 1.0266 1.02168-.2348.235-1.6474.0662.7929.78904-.2062.20634" fill="#f0f8ff"/><path d="m1476.1359 252.57696 59.8006-59.85627-.1082-.0252-59.6716 59.07205-27.6739-27.47011-.01.047 27.6586 28.23253z" fill="#00142d"/><path d="m650.17574 1632.3326v-8.8929h4.96923v.9434h-3.70739v2.8541h3.10651v.9314h-3.10651v3.2207h3.96576v.9433zm6.68172 0v-8.8929h2.69191c.85324 0 1.50619.1883 1.95885.5648.45666.3766.68499.9234.68499 1.6404 0 1.1857-.59887 2.027-1.79661 2.5237l2.96832 4.164h-1.55026l-2.52967-3.7614h-1.17772v3.7614zm1.24981-4.7048h.4086c1.5863 0 2.37945-.6229 2.37946-1.8687-.00001-.9173-.66497-1.376-1.9949-1.376h-.79316zm11.04406 1.3039-1.5142-3.8336-1.52021 3.8336zm1.33394 3.4009-.96741-2.4635h-3.76747l-.97943 2.4635h-1.1717l3.52713-8.8929h1.24981l3.47305 8.8929zm4.38637.2224c-.59687 0-1.35997-.1302-2.28932-.3906v-1.2498c1.00145.4647 1.82465.697 2.46959.697.49672 0 .89529-.1302 1.19574-.3906.30443-.2604.45665-.6028.45666-1.0275-.00001-.3485-.10015-.6449-.30044-.8893-.19629-.2443-.56082-.5167-1.09359-.8171l-.61289-.3546c-.7571-.4326-1.29188-.8392-1.60433-1.2197-.30845-.3846-.46267-.8312-.46267-1.34 0-.685.24836-1.2478.74508-1.6884.49672-.4447 1.12964-.667 1.89876-.667.68499 0 1.40804.1142 2.16915.3425v1.1537c-.93736-.3686-1.63638-.5528-2.09705-.5528-.43663 0-.79716.1161-1.08157.3485-.28441.2323-.42662.5247-.42662.8772 0 .2965.10415.5589.31246.7872.2083.2283.58885.5007 1.14166.8172l.63692.3605c.76912.4366 1.3059.8492 1.61034 1.2378s.45666.8552.45667 1.4c-.00001.7732-.28643 1.3941-.85925 1.8627-.56883.4687-1.32393.7031-2.2653.7031m4.89112-.2224v-8.8929h4.96922v.9434h-3.70739v2.8541h3.10652v.9314h-3.10652v3.2207h3.96577v.9433zm6.68171 0v-8.8929h2.69191c.85324 0 1.50618.1883 1.95885.5648.45666.3766.68499.9234.68499 1.6404 0 1.1857-.59887 2.027-1.79661 2.5237l2.96832 4.164h-1.55026l-2.52967-3.7614h-1.17772v3.7614zm1.24981-4.7048h.4086c1.5863 0 2.37945-.6229 2.37946-1.8687-.00001-.9173-.66497-1.376-1.9949-1.376h-.79316z" fill="#9c0f0f" transform="matrix(.9588222 -.9588222 .5214731 .5214731 0 0)"/><path d="m1473.8667 250.25382-14.1511 14.13543 1.5693 1.57029 14.2074-14.27442z" fill="url(#o)"/><path d="m1462.4136 264.47531-28.9181-28.66172-1.1683 1.24937 28.9629 28.77837z" fill="url(#p)" opacity=".866667"/><path d="m1515.165 162.34185 20.6124 20.10605 1.5805-1.66161-20.6572-20.2227z" fill="url(#q)" opacity=".661111"/><path d="m1180.4717-953.33618 40.748.43584 1.2259 1.0673s-.01 1.1576.027 1.23024l-43.2359.0182-.1669-1.51455 1.4018-1.23699z" fill="url(#r)" opacity=".85" transform="matrix(.70710678 .70710678 -.70710678 .70710678 0 0)"/><path d="m1446.8969 222.67353-1.0312 1.03125 28.978 28.80387 1-1z" fill="url(#s)"/></g></g></svg>