<svg height="32" viewBox="0 0 32 32" width="32" xmlns="http://www.w3.org/2000/svg" xmlns:xlink="http://www.w3.org/1999/xlink"><linearGradient id="a"><stop offset="0" stop-color="#dedfe1"/><stop offset="1" stop-color="#dedfe1" stop-opacity="0"/></linearGradient><filter id="b" color-interpolation-filters="sRGB" height="1.10145" width="1.055801" x="-.027901" y="-.050725"><feGaussianBlur stdDeviation=".1395035"/></filter><clipPath id="c"><path d="m2 2h12v5.7572458c-3.770831 1.3692251-7.7164657 1.6940439-12 0z"/></clipPath><filter id="d" color-interpolation-filters="sRGB" height="1.046436" width="1.049673" x="-.024837" y="-.023218"><feGaussianBlur stdDeviation=".14888193"/></filter><linearGradient id="e" gradientUnits="userSpaceOnUse" x1="12" x2="12" y1="8" y2="20"><stop offset="0" stop-color="#5d5e5e"/><stop offset=".25" stop-color="#b7b8b8"/><stop offset="1" stop-color="#8b8d8d"/></linearGradient><linearGradient id="f" gradientUnits="userSpaceOnUse" x1="12" x2="12" y1="29.949219" y2="31.949219"><stop offset="0" stop-color="#373838"/><stop offset="1" stop-color="#a5a7a7"/></linearGradient><linearGradient id="g" gradientUnits="userSpaceOnUse" x1="15" x2="15" y1="3" y2="10"><stop offset="0" stop-color="#abacad"/><stop offset="1" stop-color="#abacad" stop-opacity="0"/></linearGradient><filter id="h" color-interpolation-filters="sRGB" height="1.180547" width="1.012854" x="-.006427" y="-.090274"><feGaussianBlur stdDeviation=".058915818"/></filter><linearGradient id="i" gradientUnits="userSpaceOnUse" x1="22.990949" x2="26.2998" xlink:href="#a" y1="15.872721" y2="15.872721"/><linearGradient id="j" gradientTransform="matrix(-1 0 0 1 28 0)" gradientUnits="userSpaceOnUse" x1="22.990949" x2="26.2998" xlink:href="#a" y1="15.872721" y2="15.872721"/><filter id="k" color-interpolation-filters="sRGB" height="1.061826" width="1.039228" x="-.019614" y="-.030913"><feGaussianBlur stdDeviation=".20611467"/></filter><clipPath id="l"><path d="m4.0507812 20.206465 19.8984288-.257246.55079 11c-4.231279 1.912479-17.2816544 2.08571-21 0z"/></clipPath><g transform="translate(2 -4.949219)"><path d="m4.5 8.3984374c-.304567 0-.549852.2462156-.5507812.5507812l.0507812 9.0000004.050781 1-.6015624 13c-.0000374.02215.014134.04184.035156.04883 4.6262655 2.772066 17.5117984 2.425293 21.0312504 0 .02102-.007.03519-.02667.03516-.04883l-.601575-13 .05079-1 .05079-9.0000004c.0017-.3045622-.246214-.5507812-.550781-.5507812z" fill="#212121" filter="url(#d)"/><path d="m4.0507812 20.206465 19.8984288-.257246.55079 12c-4.231279 1.912479-17.2816544 2.08571-21 0z" fill="#808080"/><path d="m5.0507812 18.949219h17.8984288l.55079 12c-4.006087 1.868889-15.0237111 2.127747-19 0z" fill="#a6a6a6"/><path d="m6 10.949219h16v18h-16z" fill="#0c1114"/><path d="m7 11.949219h14v16h-14z" fill="#bce7ff"/><path clip-path="url(#l)" d="m4.5 8.9492186h19c.277 0 .467086.2249624.5.5l1.615568 13.5000004c.03291.275036-.242017.399135-.5.5-3.817717 1.492635-17.0336649 2.456139-22.2154469 0-.2503053-.118644-.532599-.224925-.5-.5l1.5998789-13.5000004c.032599-.2750751.223-.5.5-.5z" fill="#363737" filter="url(#k)" opacity=".68"/><path d="m6.5 29.949219h15c-1.598594 1.929279-13.6314232 2.072215-15 0z" fill="url(#f)"/><path d="m24 31.8832v.06602c-4.006087 1.868889-16.0237111 2.127747-20 0 4.2522374 1.558379 12.82966 2.368752 20-.06602z" fill="#e2e4e5" filter="url(#h)"/><path d="m4.5 7.9492186h19c.277 0 .467086.2249624.5.5l1.615568 13.5000004c.03291.275036-.242017.399135-.5.5-3.817717 1.492635-17.0336649 2.456139-22.2154469 0-.2503053-.118644-.532599-.224925-.5-.5l1.5998789-13.5000004c.032599-.2750751.223-.5.5-.5z" fill="url(#e)"/><path clip-path="url(#c)" d="m3 .9492186h14v10.5000004c-3.770831 1.308045-10.7164657 1.61835-15 0z" fill="#424648" filter="url(#b)" transform="translate(2 8.5)"/><path d="m5 8.9492186h18l1.615568 13.0000004c-3.770831 1.189132-16.9319126 1.471228-21.2154469 0z" fill="#c4c7c9"/><path d="m4.5 19.949219c4.5 1 14 1 19 0l1.115568 2c-3.770831 1.189132-16.9319126 1.471228-21.2154469 0z" fill="#e2e4e5"/><path d="m7 3.9999998-.2753906 1.3789063c6.1727236.2223047 14.4725116 1.3910672 18.9492186 3.0058593l-.673828-4.3847656z" fill="url(#g)" transform="translate(-2 4.949219)"/><path d="m23.5 19.949219s-.5-12.0000004-.5-11.0000004 1.615568 13.0000004 1.615568 13.0000004z" fill="url(#i)"/><path d="m4.5 19.949219s.5-12.0000008.5-11.0000008-1.615568 13.0000008-1.615568 13.0000008z" fill="url(#j)"/></g></svg>