<svg height="32" viewBox="0 0 8.4666665 8.466667" width="32" xmlns="http://www.w3.org/2000/svg" xmlns:xlink="http://www.w3.org/1999/xlink"><linearGradient id="a"><stop offset="0" stop-color="#06f"/><stop offset="1" stop-color="#80b3ff"/></linearGradient><linearGradient id="b" gradientUnits="userSpaceOnUse" x1="1.72204" x2="1.72204" xlink:href="#a" y1="290.70898" y2="288.50354"/><linearGradient id="c" gradientTransform="matrix(.95054585 0 0 .95055165 -501.98201 -345.67176)" gradientUnits="userSpaceOnUse" x1="533.97046" x2="533.97046" xlink:href="#a" y1="62.640213" y2="69.536903"/><g transform="scale(.25)"><g fill="#404040" fill-opacity=".839216" transform="matrix(-.9 0 0 1 2.116667 -264.19164)"><path d="m-31.749998 273.71664h21.166666v1.05835h-21.166666z"/><path d="m-31.749998 269.48331h21.166666v1.05835h-21.166666z"/><path d="m-26.458332 277.94998h15.875v1.05835h-15.875z"/></g><g font-family="Bitstream Vera Sans" font-size="3.175" transform="matrix(4.08 0 0 4.08 -.426733 -1175.652)"><text stroke="url(#b)" stroke-linejoin="round" stroke-width=".529167" x=".916063" y="290.89249"><tspan style="font-weight:bold;font-size:1.905007;font-family:Liberation Sans;stroke-width:.529167;stroke-linejoin:round;stroke:url(#b)" x=".916063" y="290.89249">1</tspan></text><text fill="#bfd9ff" stroke-width=".264583" x=".916079" y="290.89252"><tspan fill="#bfd9ff" font-family="Liberation Sans" font-size="1.905007" font-weight="bold" stroke-width=".264583" x=".916079" y="290.89252">1</tspan></text></g><g fill="#404040" fill-opacity=".839216" stroke-width=".948683"><path d="m30.691665 24.34165h-19.049999v1.05835h19.049999z"/><path d="m30.691665 20.10832h-19.049999v1.05835h19.049999z"/><path d="m25.929166 28.57499h-14.2875v1.05835h14.2875z"/></g><g transform="translate(0 -261.4012)"><ellipse cx="5.134189" cy="-284.36118" fill="none" rx="1.425819" ry="1.425828" stroke="url(#c)" stroke-linecap="round" stroke-linejoin="round" stroke-width="2.851658" transform="scale(1 -1)"/><ellipse cx="5.134231" cy="284.36118" fill="#bfd9ff" rx="1.425809" ry="1.425831"/></g></g></svg>