<svg height="32" viewBox="0 0 31.999999 31.999999" width="32" xmlns="http://www.w3.org/2000/svg" xmlns:xlink="http://www.w3.org/1999/xlink"><linearGradient id="a" gradientUnits="userSpaceOnUse" x1="29.999999" x2="29.999999" y1="-7.081497" y2="27.014667"><stop offset="0" stop-color="#fff"/><stop offset="1" stop-color="#555"/></linearGradient><linearGradient id="b" gradientTransform="matrix(1.0384874 0 0 .91306627 4.332511 8.824573)" gradientUnits="userSpaceOnUse" x1="46.048" x2="46.048" y1="128.01709" y2="16.6203"><stop offset="0" stop-color="#c7cdd7"/><stop offset="1" stop-color="#fff"/></linearGradient><linearGradient id="c" gradientUnits="userSpaceOnUse" x1="56" x2="60" y1="27.741945" y2="11.741946"><stop offset="0" stop-color="#1f620a"/><stop offset="1" stop-color="#3d9c10" stop-opacity=".94902"/></linearGradient><g transform="matrix(.25 0 0 .25 0 .064514)"><g transform="translate(-1.870975 5.870972)"><path d="m9.870977 45.870972h108.000003l-.00001 55.999998h-107.999998z" fill="url(#b)"/><path d="m1 12v1 4 1 4 1 4 1h1 5 1 7 1 7 1 5 1v-1-4-1-4-1-4-1h-1-5-1-7-1-7-1-5zm1 1h5v4h-5zm6 0h7v4h-7zm8 0h7v4h-7zm8 0h5v4h-5zm-22 5h5v4h-5zm6 0h7v4h-7zm8 0h7v4h-7zm8 0h5v4h-5zm-22 5h5v4h-5zm6 0h7v4h-7zm8 0h7v4h-7zm8 0h5v4h-5z" fill="url(#a)" stroke-width=".25" transform="matrix(4 0 0 4 1.870975 -6.129028)"/></g><path d="m4 27.741944h116v20h-116z" fill="url(#c)"/></g></svg>