<svg height="32" width="32" xmlns="http://www.w3.org/2000/svg" xmlns:xlink="http://www.w3.org/1999/xlink"><filter id="a"><feGaussianBlur stdDeviation="1.177891"/></filter><linearGradient id="b" gradientTransform="matrix(.121457 0 0 .1756605 195.18891 511.66043)" gradientUnits="userSpaceOnUse" x1="-333.0289" x2="-333.0289" y1="-1473.6504" y2="-776.61371"><stop offset="0" stop-color="#fff"/><stop offset=".49140647" stop-color="#fff"/><stop offset="1" stop-color="#dcdcdc"/></linearGradient><linearGradient id="c" gradientTransform="matrix(.121457 0 0 .1756605 75.745932 156.34633)" gradientUnits="userSpaceOnUse" x1="399.77466" x2="399.77466" y1="727.07941" y2="480.60214"><stop offset="0" stop-color="#cbcbcd"/><stop offset=".5" stop-color="#e0e0e2"/><stop offset="1" stop-color="#f2f2f2"/></linearGradient><linearGradient id="d" gradientTransform="matrix(1.0719231 0 0 1.1538462 28.259019 -12.134779)" gradientUnits="userSpaceOnUse" x1="137.25784" x2="137.25784" y1="260.75122" y2="312.87741"><stop offset="0" stop-color="#b3b3b6"/><stop offset="1" stop-color="#cecece"/></linearGradient><g transform="matrix(.25 0 0 .25 -19.907162 -59.219025)"><path d="m83.772 239.27611h119.71329c1.18742 0 2.14336 1.12849 2.14336 2.53025v100.56093c0 1.40175-.95594 2.53025-2.14336 2.53025h-119.71329c-1.187418 0-2.143353-1.1285-2.143353-2.53025v-100.56093c0-1.40176.955935-2.53025 2.143353-2.53025z" filter="url(#a)" opacity=".5" transform="matrix(1 0 0 .9846487 0 15.273201)"/><path d="m85.702859 252.87612h115.851551c1.14912 0 2.07421 1.09209 2.07421 2.44863v95.10272c0 1.35654-.92509 2.44863-2.07421 2.44863h-115.851551c-1.149113 0-2.074212-1.09209-2.074212-2.44863v-95.10272c0-1.35654.925099-2.44863 2.074212-2.44863z" fill="url(#c)"/><path d="m85.69115 252.87613c-1.149114 0-2.0625 1.08096-2.0625 2.43749v95.12498c0 1.35655.913386 2.4375 2.0625 2.4375h115.875c1.14913 0 2.0625-1.08095 2.0625-2.4375v-95.12498c0-1.35653-.91337-2.43749-2.0625-2.43749zm1.40625 3.65625h113.0625c1.09166 0 1.96875 1.02406 1.96875 2.29688v90.24997c0 1.2728-.87709 2.29687-1.96875 2.29687h-113.0625c-1.091657 0-1.96875-1.02407-1.96875-2.29687v-90.24997c0-1.27282.877093-2.29688 1.96875-2.29688z" fill="url(#b)"/><path d="m83.62865 288.8761h120v64h-120z" fill="#fff"/><g fill-rule="evenodd"><path d="m76 52-8 8v8l16-16zm16 0-8 8-16 16v8l28-28 4-4h-4zm16 0-24 24-4 4-12 12v8l12-12 4-4 12-12 16-16 4-4zm14.49609 1.503906-10.49609 10.496094-28 28-4 4-12 12v4h4l8-8 16-16 8-8 4-4 4-4 8-8 2.49609-2.496094zm0 16-10.49609 10.496094-4 4-4 4-4 4-4 4-4 4-12 12h8l8-8 12-12 4-4 8-8 2.49609-2.496094zm0 16-2.49609 2.496094-12 12-4 4-8 8h8l16-16 2.49609-2.496094zm0 16.000004-10.49609 10.49609h8l2.49609-2.49609z" fill="#ddd" transform="translate(79.62865 236.8761)"/><path d="m143.62865 288.8761h4.28769v60h-4.28769z" fill="url(#d)"/></g></g></svg>