<svg height="32" width="32" xmlns="http://www.w3.org/2000/svg" xmlns:xlink="http://www.w3.org/1999/xlink"><filter id="a" color-interpolation-filters="sRGB" height="1.041167" width="1.057553" x="-.028776" y="-.020584"><feGaussianBlur stdDeviation=".64701605"/></filter><linearGradient id="b" gradientTransform="matrix(.95940355 0 0 -.95940355 4.47639 -1.169343)" gradientUnits="userSpaceOnUse" x1="79.930611" x2="81.106064" y1="-60.215706" y2="-22.683981"><stop offset="0" stop-color="#e05f5b"/><stop offset="1" stop-color="#b83b2e" stop-opacity=".98848"/></linearGradient><linearGradient id="c" gradientTransform="scale(1 -1)" gradientUnits="userSpaceOnUse" x1="79.930611" x2="81.106064" y1="-60.215706" y2="-22.683981"><stop offset="0" stop-color="#eda4a2"/><stop offset="1" stop-color="#db8f87" stop-opacity=".988235"/></linearGradient><filter id="d" color-interpolation-filters="sRGB" height="1.039911" width="1.060203" x="-.030101" y="-.019955"><feGaussianBlur stdDeviation=".529834"/></filter><filter id="e" color-interpolation-filters="sRGB" height="1.127648" width="1.060204" x="-.030102" y="-.063824"><feGaussianBlur stdDeviation=".5298428"/></filter><linearGradient id="f" gradientUnits="userSpaceOnUse" x1="42" x2="42" y1="136" y2="36.585119"><stop offset="0" stop-color="#0968ef"/><stop offset="1" stop-color="#aecffc"/></linearGradient><g transform="scale(.25)"><g><path d="m16 20h96v88h-96z" fill="#f4f4f4" opacity=".628019"/><path d="m14.875 16c-1.586162 0-2.875 1.222001-2.875 2.75v90.5c0 1.528 1.288837 2.75 2.875 2.75h98.25c1.58616 0 2.875-1.222 2.875-2.75v-90.5c0-1.527998-1.28884-2.75-2.875-2.75zm1.125 4h96v88h-96z" fill="url(#f)"/></g><g><g fill="#121212" fill-opacity=".816176" filter="url(#a)" stroke-width="2.408786" transform="matrix(.95940357 0 0 -.95940357 3.568427 -.56031)"><path d="m124.58116-76.265448v50.835401c0 5.081031-1.08207 9.487729-3.24622 13.220092-2.16414 3.7009981-5.26921 6.5237934-9.31522 8.4683858s-8.82908 2.91688865-14.349213 2.91688865c-8.342929 0-14.913769-2.16414315-19.712521-6.49242955-4.798753-4.3282869-7.245176-10.2561569-7.339269-17.7836109v-51.164727l20.607989.000176v51.494053c.10799 4.301616 1.300456 5.368995 3.577398 7.202138 2.286838 3.103044 3.684997 2.096236 6.850696-1.171842 1.75641-1.881864 2.63461-2.939893 2.63461-7.174086v-50.741307z" fill="#121212" fill-opacity=".816176" stroke-width="2.408786"/></g><path d="m124.56783 72.313335v-48.771665c0-4.874759-1.03814-9.102561-3.11443-12.683403-2.07629-3.5507513-5.0553-6.2589511-8.93706-8.1246-3.88175-1.86564893-8.47065-2.79847342-13.766685-2.79847342-8.004235 0-14.308323 2.07628662-18.912263 6.22886012-4.60394 4.1525743-7.747119 9.5264583-7.837392 16.7483243v49.087622l20.567832.313335v-49.403578c.103606-4.126986 1.14812-5.282397 3.432168-6.909757 4.3001-.325622 5.17943.2094 6.04018.7491 1.68511 1.805467 2.47579 2.820875 2.52766 6.882844v48.681391z" fill="#a51e1e" stroke-width=".959404"/><path d="m76 68v-46.042003c.08238-6.590544 2.56257-9.625227 6.529444-13.2031908 3.960201-3.5719468 7.986318-4.7548062 15.470556-4.7548062 12.43939.4142053 21.64944 7.026483 22 18.235325v45.764675l-12.22745.06984v-45.674735c0-4.478197-.8847-6.306669-3.33729-8.934445-5.22788-3.575274-9.818305-1.832473-13.754974.9172-2.331789 2.510705-2.576755 3.102715-2.678386 7.151023-.000952.02497-.0016.04996-.0019.07496v46.396157z" fill="url(#b)"/><path d="m72.228647 48.112519v23.88765l19.771353-.000169v-23.88765zm31.771353-.000169v23.88765h20.17162l-.00083-24.000169z" fill="#7c3530" fill-opacity=".98848"/><path d="m97.669922 6.6835938c-7.343937 0-12.231581 1.7756652-15.789063 4.9843752-3.591571 3.239456-5.323152 7.170735-5.402343 13.505859v45.232422h4.888672v-45.634766c-.00006-.01042-.00006-.02083 0-.03125.000498-.0433.0025-.0853.0039-.126953.119558-4.646418 1.763982-7.515552 4.314453-10.261719 3.059964-3.294752 7.471277-4.6835932 11.984375-4.6835932 4.536764 0 9.386494 2.2848342 12.466104 5.5844202 2.76356 2.960955 4.21093 6.145311 4.21093 11.171876v44.882812h4.79493v-44.976562c0-4.246992-.86459-7.52601-2.44922-10.265626l-.002-.0039c-1.59758-2.728849-3.66767-4.6385-6.78901-6.1386779-3.10912-1.4943018-7.39877-3.2387173-12.231728-3.2387173z" fill="url(#c)" filter="url(#d)" transform="matrix(.95940357 0 0 .95940357 2.295128 -2.412264)"/><g fill-opacity=".98848"><path d="m76.242821 48v2.971903h-.0356l-.207221 17.028097h12l.207221-17.028097h-.0356v-2.971903zm31.999999 0v2.971903h-.0356l-.20722 17.028097h12l.20722-17.028097h-.0356v-2.971903z" fill="#f2e5e3"/><path d="m77.333691 51.10174v20.846285h4.169257v-20.846285zm33.354059 0v20.846285h4.16925v-20.846285z" fill="#fffbfb" filter="url(#e)" transform="matrix(.95940357 0 0 .95940357 1.805781 -1.027192)"/></g></g></g></svg>