<svg height="32" width="32" xmlns="http://www.w3.org/2000/svg" xmlns:xlink="http://www.w3.org/1999/xlink"><linearGradient id="a"><stop offset="0" stop-color="#ececec"/><stop offset="1" stop-color="#8696aa"/></linearGradient><filter id="b"><feGaussianBlur stdDeviation=".385"/></filter><radialGradient id="c" cx="56" cy="66" gradientTransform="matrix(.9738345 0 0 2.2398566 1.465266 -87.830542)" gradientUnits="userSpaceOnUse" r="48"><stop offset="0" stop-color="#fff"/><stop offset="1" stop-color="#fefefe"/></radialGradient><linearGradient id="d" gradientTransform="matrix(.7142858 0 0 1 10.285714 -4)" gradientUnits="userSpaceOnUse" x1="86.50396" x2="86.50396" xlink:href="#a" y1="37.416798" y2="8.61134"/><linearGradient id="e" gradientTransform="matrix(.7142858 0 0 1 10.285714 36)" gradientUnits="userSpaceOnUse" x1="86.50396" x2="86.50396" xlink:href="#a" y1="37.416798" y2="8.61134"/><linearGradient id="f" gradientUnits="userSpaceOnUse" x1="87.231171" x2="114.63911" y1="9.712187" y2="112"><stop offset="0" stop-color="#2c72c7"/><stop offset="1" stop-color="#00438a"/></linearGradient><linearGradient id="g" gradientUnits="userSpaceOnUse" x1="114.37838" x2="112.9539" y1="25.786964" y2="115.69691"><stop offset="0" stop-color="#bbd6ff"/><stop offset="1" stop-color="#0057ae"/></linearGradient><linearGradient id="h" gradientUnits="userSpaceOnUse" x1="124.5" x2="135.74562" y1="108.5" y2="-13.567197"><stop offset="0" stop-color="#fff"/><stop offset="1" stop-color="#fff" stop-opacity="0"/></linearGradient><linearGradient id="i" gradientTransform="matrix(1 0 0 -1 0 140)" gradientUnits="userSpaceOnUse" x1="104" x2="104" y1="120" y2="57.11084"><stop offset="0" stop-color="#d4e2f3"/><stop offset="1" stop-color="#fff" stop-opacity="0"/></linearGradient><linearGradient id="j" gradientTransform="matrix(.7142858 0 0 1 10.285714 76)" gradientUnits="userSpaceOnUse" x1="86.50396" x2="86.50396" xlink:href="#a" y1="37.416798" y2="8.61134"/><filter id="k" color-interpolation-filters="sRGB" height="1.113661" width="1.122348" x="-.061174" y="-.056831"><feGaussianBlur stdDeviation="2.8415336"/></filter><g transform="scale(.25)"><path d="m4.571429 4h111.479891v120h-111.479891z" fill="#5a5a5a" filter="url(#k)" opacity=".62" transform="matrix(.92777783 0 0 1 .330159 -4)"/><path d="m8 4h96v112h-96z" fill="#fff"/><path d="m16 8h80v104h-80z" fill="url(#c)"/><rect fill="url(#d)" height="20" opacity=".25" rx="3.052464" ry="2.543721" width="80" x="16" y="8"/><rect fill="url(#e)" height="20" opacity=".25" rx="3.052464" ry="2.543721" width="80" x="16" y="48"/><path d="m-68 56h16v4h-16z" opacity=".3" transform="scale(-1 1)"/><path d="m-68 16h16v4h-16z" opacity=".3" transform="scale(-1 1)"/><path d="m24 36h8v4h-8z" opacity=".3"/><g transform="translate(-3.5 -4)"><path d="m95.5 106-20-18h16v-64h8v64h16z" fill="none" stroke="#fff" stroke-linecap="round" stroke-linejoin="round" stroke-width="8"/><path d="m104 108-20-20h16v-64h8v64h16z" fill="none" stroke="url(#f)" stroke-linecap="round" stroke-linejoin="round" stroke-width="8"/><path d="m104 108-20-20h16v-64h8v64h16z" fill="url(#g)" fill-rule="evenodd"/><path d="m104 108-20-20h16v-64h8v64h16z" fill="none" filter="url(#b)" opacity=".898396" stroke="url(#h)"/><path d="m104 20-20 20h16v35.15625c2.72925-.692534 5.40416-1.45519 8-2.28125v-32.875h16z" fill="url(#i)" fill-rule="evenodd" transform="matrix(1 0 0 -1 0 128)"/></g><path d="m-48 16h24v4h-24z" opacity=".3" transform="scale(-1 1)"/><path d="m36 36h20v4h-20z" opacity=".3"/><path d="m-48 56h24v4h-24z" opacity=".3" transform="scale(-1 1)"/><path d="m-80 16h8v4h-8z" opacity=".3" transform="scale(-1 1)"/><path d="m60 36h20v4h-20z" opacity=".3"/><path d="m-80 56h8v4h-8z" opacity=".3" transform="scale(-1 1)"/><path d="m24 80h8v4h-8z" opacity=".3"/><path d="m36 80h20v4h-20z" opacity=".3"/><path d="m60 80h20v4h-20z" opacity=".3"/><g transform="scale(-1 1)"><path d="m-68 100h16v4h-16z" opacity=".3"/><path d="m-48 100h24v4h-24z" opacity=".3"/><path d="m-80 100h8v4h-8z" opacity=".3"/></g><rect fill="url(#j)" height="20" opacity=".25" rx="3.052464" ry="2.543721" width="80" x="16" y="88"/></g></svg>