<svg height="32" viewBox="0 0 32 32" width="32" xmlns="http://www.w3.org/2000/svg" xmlns:xlink="http://www.w3.org/1999/xlink"><linearGradient id="a" gradientUnits="userSpaceOnUse" x1="64" x2="64" y1="128" y2="0"><stop offset="0" stop-color="#fff"/><stop offset=".46428573" stop-color="#fff"/><stop offset=".8125" stop-color="#f1f1f1"/><stop offset=".90625" stop-color="#eaeaea"/><stop offset="1" stop-color="#dfdfdf"/></linearGradient><linearGradient id="b" gradientUnits="userSpaceOnUse" x1="8" x2="120.01562" y1="63.979492" y2="63.979492"><stop offset="0" stop-color="#b4b4b6"/><stop offset=".5" stop-color="#9c9ca1"/><stop offset="1" stop-color="#cdcdd1"/></linearGradient><g transform="scale(.25)"><path d="m42.113281 7.9589844a42.408745 42.408745 0 0 1 -34.113281 34.0468746v43.970703a42.408745 42.408745 0 0 1 34.09375 34.023438h43.802734a42.408745 42.408745 0 0 1 34.119136-34.009766v-43.96289a42.408745 42.408745 0 0 1 -34.117182-34.0683596z" fill="url(#b)"/><path d="m45.551833 12a46.661993 46.661993 0 0 1 -33.551829 33.530477v36.917686a46.661993 46.661993 0 0 1 33.530477 33.551837h36.917686a46.661993 46.661993 0 0 1 33.551833-33.530485v-36.917687a46.661993 46.661993 0 0 1 -33.530481-33.551828z" fill="url(#a)"/></g></svg>