<svg height="32" viewBox="0 0 32 32" width="32" xmlns="http://www.w3.org/2000/svg" xmlns:xlink="http://www.w3.org/1999/xlink"><linearGradient id="a" gradientUnits="userSpaceOnUse" x1="7.060274" x2="120.9386" y1="64.000862" y2="64.000862"><stop offset="0" stop-color="#b4b4b6"/><stop offset=".5" stop-color="#9c9ca1"/><stop offset="1" stop-color="#cdcdd1"/></linearGradient><linearGradient id="b" gradientUnits="userSpaceOnUse" x1="74.346382" x2="56.813534" y1="122.2762" y2="1.834788"><stop offset="0" stop-color="#fff"/><stop offset=".46428573" stop-color="#fff"/><stop offset=".77777779" stop-color="#f1f1f1"/><stop offset=".90625" stop-color="#eaeaea"/><stop offset="1" stop-color="#dfdfdf"/></linearGradient><path d="m58.447266 7.3046875a3.8958785 3.8958785 0 0 0 -3.679688 2.6699219l-11.480469 34.6992186-33.3378902 8.916016a3.8958785 3.8958785 0 0 0 -1.3007813 6.902344l29.4531245 21.644531-1.822265 34.458981a3.8958785 3.8958785 0 0 0 6.164062 3.36914l29.683594-21.322262 32.208987 12.382812a3.8958785 3.8958785 0 0 0 5.10937-4.82031l-11.105466-34.822268 21.730466-26.80664a3.8958785 3.8958785 0 0 0 -3.0039-6.347656l-36.550785-.201172-18.78125-28.949219a3.8958785 3.8958785 0 0 0 -3.287109-1.7734375z" fill="url(#a)" transform="matrix(.25870695 .03690013 -.03690013 .25870695 1.278083 -2.377095)"/><path d="m105.73509 107.38825-34.172747-13.136604-31.393241 22.549394 1.933691-36.559645-31.146795-22.888599 35.367835-9.458504 12.143462-36.695328 19.924833 30.713971 38.651872.209639-23.053614 28.440782z" fill="url(#b)" transform="matrix(.25870695 .03690013 -.03690013 .25870695 1.278083 -2.377095)"/></svg>