<svg height="32" viewBox="0 0 32 32" width="32" xmlns="http://www.w3.org/2000/svg" xmlns:xlink="http://www.w3.org/1999/xlink"><linearGradient id="a"><stop offset="0" stop-color="#fff"/><stop offset=".51373518" stop-color="#fff"/><stop offset=".8125" stop-color="#f1f1f1"/><stop offset=".90625" stop-color="#eaeaea"/><stop offset="1" stop-color="#dfdfdf"/></linearGradient><linearGradient id="b" gradientTransform="matrix(0 1 1 0 1.09623 .040617)" gradientUnits="userSpaceOnUse" x1="126.70971" x2="-.664055" xlink:href="#a" y1="57.996429" y2="60.104076"/><linearGradient id="c" gradientTransform="matrix(0 1 1 0 1.09623 .040617)" gradientUnits="userSpaceOnUse" x1="125.58904" x2=".919185" xlink:href="#a" y1="59.000004" y2="59.093666"/><linearGradient id="d" gradientTransform="matrix(0 1 1 0 1.09623 .040617)" gradientUnits="userSpaceOnUse" x1="50.905815" x2="52.431911" y1="128" y2="0"><stop offset="0" stop-color="#f1f1f1"/><stop offset="1" stop-color="#f1f1f1" stop-opacity="0"/></linearGradient><linearGradient id="e"><stop offset="0" stop-color="#b4b4b6"/><stop offset=".5" stop-color="#9c9ca1"/><stop offset="1" stop-color="#cdcdd1"/></linearGradient><linearGradient id="f" gradientTransform="matrix(0 1 1 0 1.09623 .040617)" gradientUnits="userSpaceOnUse" x1="3.755858" x2="90.166016" xlink:href="#e" y1="109.58594" y2="109.58594"/><linearGradient id="g" gradientTransform="matrix(0 1 1 0 1.09623 .040617)" gradientUnits="userSpaceOnUse" x1="14.842087" x2="108.02734" xlink:href="#e" y1="63.420898" y2="63.420898"/><linearGradient id="h" gradientTransform="matrix(0 1 1 0 1.09623 .040617)" gradientUnits="userSpaceOnUse" x1="34.264374" x2="120.0625" xlink:href="#e" y1="17.215792" y2="17.215792"/><g transform="scale(.25)"><path d="m97.277871 85.960539.03125-69.554688-.0039-5.732422a4.2453691 4.2453691 0 0 1 0-.0078c.0038-2.4166278 1.815891-4.3941754 3.201169-5.1796875 1.38529-.7855121 2.64532-1.0595113 3.88477-1.2734375 2.47891-.4278524 4.93592-.4154547 6.33985-.4160156a4.2453691 4.2453691 0 0 1 .006 0c6.27839.00504 11.45087 4.5318877 12.79102 10.5117186a4.2453691 4.2453691 0 0 1 .55859 2.09961l-.0312 69.55664a4.2453691 4.2453691 0 0 1 -4.24414 4.242188h-.0703a4.2453691 4.2453691 0 0 1 -4.22265-3.814454c-.25491-2.503957-2.2926-4.346669-4.8086-4.349609h-.002c-.001-.000001-.003 0-.004 0-2.51353.006-4.5501 1.848777-4.80469 4.349609a4.2453691 4.2453691 0 0 1 -4.22265 3.814454h-.1543a4.2453691 4.2453691 0 0 1 -4.244142-4.246094z" fill="url(#f)"/><path d="m119.81141 85.962578h-.0716c-.47202-4.636651-4.37647-8.163815-9.03709-8.16383-4.6564.0056-8.55448 3.53137-9.02607 8.16383h-.15411l.0312-69.556328-.005-5.733912c.004-2.5646834 6.44106-2.6306249 9.18442-2.631721 4.73553.0038 8.67369 3.644922 9.04809 8.365633h.0605z" fill="url(#d)"/><path d="m5.1763081 36.017179a4.0154247 4.0154247 0 0 1 .027344-.46875c.2988742-2.540491.8879104-5.781741 2.3339841-8.841796 1.4460738-3.060055 4.3525088-6.455343 8.7441408-6.648438a4.0154247 4.0154247 0 0 1 .173828-.0039l96.064455-.04883c.92905-.00047 1.72311-.396467 2.37109-1.173828a4.0154247 4.0154247 0 0 1 1.05078-.886719 4.0154247 4.0154247 0 0 1 7.91602.933594l-.0312 77.53125c-.001 2.993965-.91796 5.866018-2.80664 8.064448-1.88869 2.19844-4.81502 3.58164-7.92383 3.58203l-95.996094.0117c-2.542938.00033-5.21046-.41325-7.628906-1.95117s-4.2929687-4.61941-4.2929688-7.980466z" fill="url(#g)"/><path d="m9.1928908 36.017761c.5345874-4.544098 2.3098332-11.729079 7.2651272-11.946957l96.063992-.04972c2.17401-.0011 4.1145-1.013243 5.45313-2.619141 1.01721-.503409 1.78778-1.218144 1.86718-2.52539l-.0312 77.53125c-.002 4.356447-2.65889 7.632297-6.71489 7.632817l-95.996617.0123c-4.055998.00052-7.9066722-1.55953-7.9066722-5.91598zm110.6494292-17.141206v-.458985c.009.161422.009.312827 0 .458985z" fill="url(#b)"/><path d="m5.0845112 38.368742c.0004896-2.243454 1.819046-4.06201 4.0625-4.0625h.070313c2.0844728-.00032 3.8311058 1.576713 4.0429678 3.650391.264206 2.595286 2.38047 4.510721 4.988282 4.513672h.002.0039c2.605388-.0061 6.509787-1.555925 6.773668-4.148042.518209-5.087713 8.03464-4.758078 8.105469.355468.314923 22.806719.154297 46.357001.154297 69.363289-.000699.79206-.232873 1.56665-.667969 2.22851-1.386492 5.81299-8.228681 9.83114-14.363512 9.83359h-.0059c-6.208098-.005-11.3192821-4.49099-12.6249997-10.41016-.3530714-.61389-.5395724-1.30939-.5410157-2.01757z" fill="url(#h)"/><path d="m9.1465436 38.368652h.071548c.472021 4.636649 4.3764714 8.163811 9.0370844 8.163829 4.6564-.0057 10.343779-3.165738 10.81537-7.798199.314126 22.749015.154104 46.281256.154104 69.306338h-.12842c-.374518 4.72212-6.10411 7.99811-10.841054 8-4.735533-.004-8.6736863-3.64492-9.0480918-8.36563h-.060541z" fill="url(#c)"/></g></svg>