<svg height="32" viewBox="0 0 32 32" width="32" xmlns="http://www.w3.org/2000/svg" xmlns:xlink="http://www.w3.org/1999/xlink"><linearGradient id="a" gradientUnits="userSpaceOnUse" x1="72.649445" x2="64.35054" y1="128" y2="0"><stop offset="0" stop-color="#fff"/><stop offset=".51373518" stop-color="#fff"/><stop offset=".8125" stop-color="#f1f1f1"/><stop offset=".90625" stop-color="#eaeaea"/><stop offset="1" stop-color="#dfdfdf"/></linearGradient><linearGradient id="b" gradientUnits="userSpaceOnUse" x1="6.887536" x2="119.06422" y1="65.642921" y2="65.642921"><stop offset="0" stop-color="#b4b4b6"/><stop offset=".5" stop-color="#9c9ca1"/><stop offset="1" stop-color="#cdcdd1"/></linearGradient><g fill-rule="evenodd"><path d="m82.537109 7.2773438a2.0075183 2.0075183 0 0 0 -1.539062.8300781l-14.478516 20.0468751-8.060547-7.388672a2.0075183 2.0075183 0 0 0 -3.359375 1.373047l-1.021484 19.080078-18.511719-12.921875a2.0075183 2.0075183 0 0 0 -3.117187 2.041016l4.326172 21.628906-20.376953-2.144531a2.0075183 2.0075183 0 0 0 -1.710938 3.330078l13.757812 15.474609-19.8574214 3.082031a2.0075183 2.0075183 0 0 0 -.8378906 3.632813l16.738281 11.642578-8.960937 9.648437a2.0075183 2.0075183 0 0 0 1.613281 3.367188l15.070313-1.076172c.143052 1.584752.52082 5.900502 1.173828 11.558592.382005 3.30995.800346 6.54047 1.214843 8.86914.207249 1.16434.389652 2.06521.658203 2.83008.134276.38243.06845.72676.898438 1.39648.414992.33487 1.521776.62125 2.248047.2754.726271-.34586.911104-.7812 1.048828-1.05664.403561-.80713 1.14069-2.54294 2.150391-4.94336 1.0097-2.40042 2.238767-5.36529 3.429687-8.25391 1.117548-2.71065 1.328238-3.2349 2.164063-5.27734.173895.77673.166359.83428.355468 1.63281.461373 1.94818.944575 3.84313 1.398438 5.24609.226931.70148.407848 1.24218.740234 1.81836.166193.28809.223706.69181 1.166016 1.10156.471155.20488 1.330071.21694 1.880859-.0937.550789-.31069.762528-.69107.892578-.95117.24342-.48684.366555-.88873.585938-1.54687.219383-.65815.477933-1.4821.765625-2.42188.575384-1.87956 1.26192-4.21558 1.921875-6.5.841625-2.913261 1.148021-4.027601 1.617187-5.695311l10.148438 9.822271a2.0075183 2.0075183 0 0 0 3.404297-1.44336v-14.570367l11.242187 9.992187a2.0075183 2.0075183 0 0 0 3.337891-1.623046l-.984375-16.056641 15.777348 9.398438a2.0075183 2.0075183 0 0 0 2.71484-2.8125l-10.289063-15.966797 9.968753-2.892578a2.0075183 2.0075183 0 0 0 .92187-3.283204l-7.166014-7.818359 20.406254-10.931641a2.0075183 2.0075183 0 0 0 -.91993-3.777343l-25.761714-.359375 9.652344-16.892578a2.0075183 2.0075183 0 0 0 -2.892579-2.640625l-13.097656 9.169921-.351563-24.9707026a2.0075183 2.0075183 0 0 0 -2.095703-1.9785156z" fill="url(#b)" transform="scale(.25)"/><path d="m81.197266 13.802734-13.164063 18.228516a1.4900336 1.4900336 0 0 1 -2.212891.224609l-7.396484-6.78125-1.046875 19.53711a1.4900336 1.4900336 0 0 1 -2.341797 1.140625l-18.429687-12.865235 4.134765 20.667969a1.4900336 1.4900336 0 0 1 -1.617187 1.775391l-19.265625-2.027344 13.648437 15.353516a1.4900336 1.4900336 0 0 1 -.884765 2.46289l-19.81836 3.076172 15.580078 10.837891a1.4900336 1.4900336 0 0 1 .240235 2.236328l-7.960938 8.572266 13.244141-.945313a1.4900336 1.4900336 0 0 1 1.589844 1.355469s.606763 6.874716 1.363281 13.429686c.329694 2.85669.687922 5.43237 1.03125 7.54492.213027-.49983.250834-.55976.490234-1.1289 1.003895-2.38662 2.230756-5.34611 3.419922-8.23047 2.378334-5.76873 4.605469-11.23633 4.605469-11.23633a1.4900336 1.4900336 0 0 1 2.839844.269531s.807921 4.036559 1.710937 7.849609c.250384 1.05727.484615 1.83262.732422 2.75781.556298-1.82219 1.216021-4.05805 1.855469-6.27148 1.314307-4.549444 2.527344-8.900392 2.527344-8.900392a1.4900336 1.4900336 0 0 1 2.472656-.669922l10.03125 9.708984v-15.52539a1.4900336 1.4900336 0 0 1 2.480469-1.113281l11.886718 10.564453-.996093-16.246094a1.4900336 1.4900336 0 0 1 2.248046-1.371094l13.589844 8.097657-8.310547-12.898438a1.4900336 1.4900336 0 0 1 .835938-2.238281l10.253903-2.976563-7.291012-7.953125a1.4900336 1.4900336 0 0 1 .394531-2.318359l17.603511-9.429687-23.402339-.326172a1.4900336 1.4900336 0 0 1 -1.271485-2.228516l8.044922-14.080078-10.759766 7.533203a1.4900336 1.4900336 0 0 1 -2.34375-1.199219z" fill="url(#a)" transform="scale(.25)"/></g></svg>