<svg height="32" viewBox="0 0 32 32" width="32" xmlns="http://www.w3.org/2000/svg" xmlns:xlink="http://www.w3.org/1999/xlink"><linearGradient id="a" gradientUnits="userSpaceOnUse" x1="118.94735" x2="13.874024" y1="98.358978" y2="35.048981"><stop offset="0" stop-color="#fff"/><stop offset=".51373518" stop-color="#fff"/><stop offset=".8125" stop-color="#f1f1f1"/><stop offset=".90625" stop-color="#eaeaea"/><stop offset="1" stop-color="#dfdfdf"/></linearGradient><g transform="scale(.25)"><path d="m105.73509 107.38825-13.54273-8.489801 1.744645 17.274111-10.883952-11.70563-2.785673 17.13706-7.483449-14.12375-7.126151 15.83215-3.572962-15.57935-10.980994 13.44829.581017-15.97325-14.087501 10.14797 4.6954-15.2786-16.233967 6.15607 8.4898-13.542731-17.274116 1.744644 11.705634-10.883952-17.137062-2.785673 14.123748-7.483449-15.832145-7.126151 15.579352-3.572962-13.448294-10.980994 15.973248.581017-10.147964-14.087501 15.278595 4.6954-6.156067-16.233966 13.542731 8.489799-1.744644-17.274115 10.883951 11.705633 2.785673-17.137061 7.483449 14.123747 7.126151-15.832145 3.572962 15.579352 10.980994-13.448294-.581016 15.973249 14.0875-10.147964-4.6954 15.278595 16.233967-6.156067-8.4898 13.54273 17.27412-1.744644-11.70564 10.883951 17.13706 2.785673-14.12374 7.483449 15.83214 7.126152-15.57935 3.572962 13.44829 10.980994-15.97325-.581017 10.14797 14.0875-15.278596-4.6954z" style="stroke:#507dbe;stroke-width:3.826648;stroke-linecap:round;stroke-linejoin:bevel;stroke-opacity:.730392;fill:url(#a)" transform="matrix(.54901497 .88951507 -.88951507 .54901497 87.077864 -31.898917)"/><g fill="#ae1010"><path d="m42.607189 59.66q.28-9.84 9.36-9.84 4.04 0 6.56 2.32 2.52 2.32 2.52 6 0 5.28-6 8.56l-4 2.16q-2.6 1.4-3.72 2.72-1.12 1.32-1.4 3.12h14.92v3.48h-18.88q.24-4.68 1.88-7.2 1.64-2.56 6.08-5.08l3.68-2.08q3.84-2.2 3.84-5.6 0-2.28-1.6-3.8-1.6-1.52-4-1.52-5.32 0-5.72 6.76z"/><path d="m75.952814 71.38h-11.96v-3.72l12.88-17.84h2.6v18.4h4.2v3.16h-4.2v6.8h-3.52zm0-3.16v-12.4l-8.88 12.4z"/></g></g></svg>