<svg height="32" viewBox="0 0 32 32" width="32" xmlns="http://www.w3.org/2000/svg" xmlns:xlink="http://www.w3.org/1999/xlink"><linearGradient id="a" gradientTransform="matrix(0 .06940294 .11152914 0 -45.287823 40.766246)" gradientUnits="userSpaceOnUse" x1="399.77466" x2="399.77466" y1="1164.6696" y2="549.06134"><stop offset="0" stop-color="#717174"/><stop offset=".5" stop-color="#9c9ca1"/><stop offset="1" stop-color="#bdbdc2"/></linearGradient><linearGradient id="b" gradientUnits="userSpaceOnUse" x1="47.9548" x2="124.00195" y1="42.023567" y2="42.023567"><stop offset="0" stop-color="#b4b4b6"/><stop offset=".5" stop-color="#9c9ca1"/><stop offset="1" stop-color="#cdcdd1"/></linearGradient><linearGradient id="c" gradientTransform="matrix(0 .57141948 .76189349 0 1.524017 42.98484)" gradientUnits="userSpaceOnUse" x1="119.57646" x2="15.999996" y1="23.792561" y2="109.6508"><stop offset="0" stop-color="#fff"/><stop offset=".42597079" stop-color="#fff"/><stop offset=".5892781" stop-color="#e5e5e5"/><stop offset=".80219781" stop-color="#eaeaea"/><stop offset="1" stop-color="#eee"/></linearGradient><linearGradient id="d" gradientTransform="matrix(0 -1.3692663 -1.7142582 0 105.14142 195.38719)" gradientUnits="userSpaceOnUse" x1="102.31124" x2="74.330322" y1="-5.830213" y2="32"><stop offset="0" stop-color="#fff"/><stop offset="1" stop-color="#fff" stop-opacity="0"/></linearGradient><g transform="scale(.25)"><path d="m15.164062 44c-1.753291 0-3.164062 1.213165-3.164062 2.720703v66.558597c0 1.50754 1.410771 2.7207 3.164062 2.7207h65.671876c1.753291 0 3.164062-1.21316 3.164062-2.7207v-33.332034a38.023575 38.023575 0 0 1 -35.974609-35.947266z" fill="url(#a)" opacity=".75"/><path d="m17.523438 48c-.844178 0-1.523438.564277-1.523438 1.265625v61.468755c0 .70134.67926 1.26562 1.523438 1.26562h60.953124c.844178 0 1.523438-.56428 1.523438-1.26562v-31.207036a38.023575 38.023575 0 0 1 -31.550781-31.527344z" fill="url(#c)" fill-rule="evenodd"/><path d="m53.699219 62.074219c-13.085253 2.27686-26.953551 3.551767-37.699219 4.65625v37.269531c16.614895-6.691249 38.976825-16.018308 55.667969-26.773438a38.023575 38.023575 0 0 1 -17.96875-15.152343z" fill="url(#d)" fill-rule="evenodd"/><path d="m88 4.0722656v4.0292969a34.021244 34.021244 0 0 1 4.849609.6054687l1.027344-3.8320312a38.023575 38.023575 0 0 0 -5.876953-.8027344zm-4 .027344a38.023575 38.023575 0 0 0 -5.886719.7382812l1.042969 3.890625a34.021244 34.021244 0 0 1 4.84375-.6582033zm-9.75 1.7792968a38.023575 38.023575 0 0 0 -5.478516 2.28125l1.990235 3.4453126a34.021244 34.021244 0 0 1 4.53125-1.8378907zm23.490234.035156-1.03125 3.8515625a34.021244 34.021244 0 0 1 4.505856 1.8808591l2.02344-3.503906a38.023575 38.023575 0 0 0 -5.498046-2.2285156zm-29.941406 2.716797a38.023575 38.023575 0 0 0 -.177734.1015625zm38.898442 1.5214846-2.00977 3.482422a34.021244 34.021244 0 0 1 3.86914 2.980468l2.82422-2.826172a38.023575 38.023575 0 0 0 -4.68359-3.636718zm-41.394536.002a38.023575 38.023575 0 0 0 -4.705078 3.613281l2.832032 2.833984a34.021244 34.021244 0 0 1 3.867187-2.996093zm-6.228515 5.03125a38.023575 38.023575 0 0 0 -.556641.556641zm-1.306641 1.412109a38.023575 38.023575 0 0 0 -3.646484 4.6875l3.482422 2.009766a34.021244 34.021244 0 0 1 2.988281-3.873047zm56.445312.01953-2.83398 2.833984a34.021244 34.021244 0 0 1 2.99218 3.857422l3.45508-1.994141a38.023575 38.023575 0 0 0 -3.61328-4.697265zm-62.103515 8.125a38.023575 38.023575 0 0 0 -2.236328 5.505859l3.853515 1.033203a34.021244 34.021244 0 0 1 1.884766-4.515625zm67.714845.03906-3.44531 1.988281a34.021244 34.021244 0 0 1 1.84179 4.525391l3.88672-1.041016a38.023575 38.023575 0 0 0 -2.2832-5.472656zm-70.283204 6.468707a38.023575 38.023575 0 0 0 -.402344 1.5zm-.708985 2.863281a38.023575 38.023575 0 0 0 -.804687 5.886719h4.03125a34.021244 34.021244 0 0 1 .607422-4.861328zm74.322269.002-3.89063 1.042969a34.021244 34.021244 0 0 1 .66406 4.84175h3.97266a38.023575 38.023575 0 0 0 -.74609-5.884766zm-75.1543 6.646438a38.023575 38.023575 0 0 0 -.044922 1.261719 38.023575 38.023575 0 0 0 .044922 1.263671zm76 1.222656v.09375a38.023575 38.023575 0 0 0 .002-.05469 38.023575 38.023575 0 0 0 -.002-.03906zm-4.09961 2.015625a34.021244 34.021244 0 0 1 -.5957 4.851562l3.83203 1.027344a38.023575 38.023575 0 0 0 .79492-5.878906zm2.76172 7.998047-.0898.330078a38.023575 38.023575 0 0 0 .0898-.330078zm-4.41406.714844a34.021244 34.021244 0 0 1 -1.87696 4.511718l3.50391 2.023438a38.023575 38.023575 0 0 0 2.22656-5.503906zm-3.86328 7.984375a34.021244 34.021244 0 0 1 -2.97852 3.878906l2.82617 2.826172a38.023575 38.023575 0 0 0 3.64063-4.691406zm-5.8125 6.705078a34.021244 34.021244 0 0 1 -3.86329 3l1.9961 3.458984a38.023575 38.023575 0 0 0 4.70117-3.625zm4.89453.871094-.64063.640624a38.023575 38.023575 0 0 0 .64063-.640624zm-12.2168 4.140624a34.021244 34.021244 0 0 1 -4.535156 1.845704l1.042968 3.890625a38.023575 38.023575 0 0 0 5.482418-2.291016zm3.70117 2.521485-1.02734.59375a38.023575 38.023575 0 0 0 1.02734-.59375zm-12.099608.367187a34.021244 34.021244 0 0 1 -4.851562.667969v3.974609a38.023575 38.023575 0 0 0 5.894531-.748046zm4.488282 3-1.126953.300782a38.023575 38.023575 0 0 0 1.126953-.300782zm-12.292969 1.697266a38.023575 38.023575 0 0 0 .931641.04687 38.023575 38.023575 0 0 0 .939453-.04687z" fill="url(#b)"/><path d="m48.025391 44a38.023575 38.023575 0 0 0 35.974609 35.947266v-3.988282a34.021244 34.021244 0 0 1 -28-17.851562 34.021244 34.021244 0 0 1 -1.316406-2.8125 34.021244 34.021244 0 0 1 -.347656-.890625 34.021244 34.021244 0 0 1 -.81836-2.283203 34.021244 34.021244 0 0 1 -.277344-1.001953 34.021244 34.021244 0 0 1 -.558593-2.242188 34.021244 34.021244 0 0 1 -.185547-.876953h.0332a34.021244 34.021244 0 0 1 -.474609-4z" fill="url(#a)" opacity=".75"/></g></svg>