<svg height="32" viewBox="0 0 32 32" width="32" xmlns="http://www.w3.org/2000/svg" xmlns:xlink="http://www.w3.org/1999/xlink"><linearGradient id="a"><stop offset="0" stop-color="#ededed"/><stop offset="1" stop-color="#fcfcfc"/></linearGradient><linearGradient id="b" gradientUnits="userSpaceOnUse" x1="62.380199" x2="61.96743" xlink:href="#a" y1="50.34737" y2="80.066711"/><linearGradient id="c" gradientTransform="matrix(.99996333 -.00856374 .00856374 .99996333 -.545733 .550426)" gradientUnits="userSpaceOnUse" x1="8.62407" x2="119.37593" xlink:href="#a" y1="64" y2="64"/><g stroke="#507dbe" stroke-linecap="square" stroke-linejoin="bevel" stroke-opacity=".729412" stroke-width="4" transform="scale(.25)"><path d="m102.72921 103-29.778937-17.046483-9.141752 33.009333-9.003203-33.110571-29.805319 16.876931 17.046483-29.778937-33.0093334-9.141752 33.1105714-9.003203-16.87693-29.805318 29.778936 17.046483 9.141752-33.0093341 9.003203 33.1105721 29.805319-16.87693-17.046483 29.778935 33.009333 9.141752-33.110571 9.003204z" fill="url(#c)"/><path d="m64.000001 43.277141c-11.444916.000009-20.722851 9.277944-20.72286 20.72286.000008 11.444916 9.277944 20.722855 20.72286 20.722863 11.444917-.000008 20.722855-9.277946 20.722863-20.722863-.000008-11.444916-9.277947-20.722852-20.722863-20.72286z" fill="url(#b)"/></g></svg>