<svg height="32" viewBox="0 0 32 32" width="32" xmlns="http://www.w3.org/2000/svg" xmlns:xlink="http://www.w3.org/1999/xlink"><linearGradient id="a" gradientUnits="userSpaceOnUse" x1="83.777969" x2="81.958298" y1="128" y2="0"><stop offset="0" stop-color="#fff"/><stop offset=".55595475" stop-color="#fff"/><stop offset=".83333331" stop-color="#f1f1f1"/><stop offset=".89999998" stop-color="#eaeaea"/><stop offset="1" stop-color="#dfdfdf"/></linearGradient><path d="m32.145503 13.479139c-6.978892-.09138-13.597164 2.509328-18.674192 8.443576-10.9175103 13.197723-9.6139442 29.751881 1.367192 49.026932 5.916069 12.615837 23.998135 32.987713 48.357689 44.015693l.803808.36781.803809-.36781c24.359778-11.02793 42.441581-31.399766 48.357681-44.015693 10.98115-19.275051 12.28471-35.829209 1.3672-49.026932-10.15405-11.868497-26.479524-10.403459-39.503237-.733834l-11.012893 9.554197h-.02512l-11.012892-9.554197c-6.511857-4.834813-13.850154-7.618361-20.829045-7.709742z" fill="url(#a)" fill-rule="evenodd" stroke="#507dbe" stroke-opacity=".729412" stroke-width="4" transform="scale(.25)"/></svg>