<svg height="32" viewBox="0 0 31.999999 31.999999" width="32" xmlns="http://www.w3.org/2000/svg" xmlns:xlink="http://www.w3.org/1999/xlink"><linearGradient id="a" gradientUnits="userSpaceOnUse" x1="120" x2="120" y1="-28.584044" y2="107.80061"><stop offset="0" stop-color="#fff"/><stop offset="1" stop-color="#555"/></linearGradient><linearGradient id="b" gradientTransform="matrix(1.0384874 0 0 .91306627 2.461539 14.695545)" gradientUnits="userSpaceOnUse" x1="46.048" x2="46.048" y1="128.01709" y2="16.6203"><stop offset="0" stop-color="#c7cdd7"/><stop offset="1" stop-color="#fff"/></linearGradient><linearGradient id="c" gradientTransform="matrix(.49999994 -.00024526 .00024526 .49999994 55.98066 -.260481)" gradientUnits="userSpaceOnUse" x1="37.595825" x2="-95.973099" xlink:href="#d" y1="37.626347" y2="23.957754"/><linearGradient id="d"><stop offset="0" stop-color="#0968ef"/><stop offset="1" stop-color="#aecffc"/></linearGradient><linearGradient id="e" gradientUnits="userSpaceOnUse" x1="116" x2="132" xlink:href="#d" y1="13.741947" y2="-8.258053"/><linearGradient id="f" gradientTransform="matrix(-.49999994 -.00024526 -.00024526 .49999994 68.00685 -.260481)" gradientUnits="userSpaceOnUse" x1="37.595825" x2="-95.973099" xlink:href="#d" y1="37.626347" y2="23.957754"/><linearGradient id="g" gradientUnits="userSpaceOnUse" x1="4" x2="20" xlink:href="#d" y1="13.741947" y2="-8.258053"/><g transform="matrix(.25 0 0 .25 0 .064514)"><g><path d="m8 31.741943h108v75.999997h-108z" fill="url(#b)"/><path d="m3.9999998 27.741946v4 16 4 16 4 16 4 15.999994 4h4 20.0000002 4 28 4 28 4 20 4v-4-15.999994-4-16-4-16-4-16-4h-4-20-4-28-4-28-4-20.0000002zm4 4h20.0000002v16h-20.0000002zm24.0000002 0h28v16h-28zm32 0h28v16h-28zm32 0h20v16h-20zm-88.0000002 20h20.0000002v16h-20.0000002zm24.0000002 0h28v16h-28zm32 0h28v16h-28zm32 0h20v16h-20zm-88.0000002 20h20.0000002v16h-20.0000002zm24.0000002 0h28v16h-28zm32 0h28v16h-28zm32 0h20v16h-20zm-88.0000002 20h20.0000002v15.999994h-20.0000002zm24.0000002 0h28v15.999994h-28zm32 0h28v15.999994h-28zm32 0h20v15.999994h-20z" fill="url(#a)"/></g><g><path d="m115.98751 13.710083-12.0049-9.9941139-1.98643 1.9884097 3.90232 6.0106662-53.898501.0269.002 3.999997 53.898501-.0269-3.89651 5.913863 1.98845 2.087076z" fill="url(#c)" fill-rule="evenodd"/><rect fill="url(#e)" height="28" rx=".137769" ry=".535839" width="4" x="116" y="-.258053"/><path d="m7.999999 13.710083 12.0049-9.9941139 1.98643 1.9884097-3.90232 6.0106662 53.898501.0269-.002 3.999997-53.898502-.0269 3.89651 5.913863-1.98845 2.087076z" fill="url(#f)" fill-rule="evenodd"/><rect fill="url(#g)" height="28" rx=".137769" ry=".535839" width="4" x="4" y="-.258053"/></g></g></svg>