<svg height="32" viewBox="0 0 31.999999 31.999999" width="32" xmlns="http://www.w3.org/2000/svg" xmlns:xlink="http://www.w3.org/1999/xlink"><filter id="a"><feGaussianBlur stdDeviation="4"/></filter><linearGradient id="b" gradientUnits="userSpaceOnUse" x1="17.948702" x2="110.0518" y1="40" y2="40"><stop offset="0" stop-color="#fff"/><stop offset=".80000001" stop-color="#fff" stop-opacity="0"/></linearGradient><radialGradient id="c" cx="64" cy="64" gradientUnits="userSpaceOnUse" r="52"><stop offset="0" stop-color="#fff"/><stop offset=".574" stop-color="#fff"/><stop offset=".6842" stop-color="#fbfbfb"/><stop offset=".8001" stop-color="#eee"/><stop offset=".9" stop-color="#ddd"/><stop offset="1" stop-color="#bbb"/></radialGradient><linearGradient id="d" gradientUnits="userSpaceOnUse" x1="58.0005" x2="58.0005" y1="116" y2=".000488"><stop offset="0" stop-color="#555"/><stop offset="1" stop-color="#888"/></linearGradient><radialGradient id="e" cx="63.75" cy="63.875" gradientTransform="matrix(1 0 0 .9948454 0 .329253)" gradientUnits="userSpaceOnUse" r="24.25" spreadMethod="pad"><stop offset="0" stop-color="#f40000" stop-opacity=".941176"/><stop offset="1" stop-color="#cb0006"/></radialGradient><filter id="f" color-interpolation-filters="sRGB" height="1.306617" width="1.43589" x="-.217945" y="-.153309"><feGaussianBlur stdDeviation="3.1542391"/></filter><linearGradient id="g" gradientUnits="userSpaceOnUse" x1="27.118645" x2="23.050846" y1="48" y2="22.779661"><stop offset="0" stop-color="#070707"/><stop offset="1" stop-color="#474747"/></linearGradient><g transform="matrix(.21784633 0 0 .21784633 2.025578 2.090093)"><circle cx="58" cy="58" fill="url(#d)" r="58" transform="matrix(1.1034483 0 0 1.1034483 0 -.000003)"/><g filter="url(#a)" opacity=".8" transform="matrix(1.0833333 0 0 1.0833333 1.166669 1.166669)"><path d="m10 58c0 26.467 21.533 48 48 48s48-21.533 48-48-21.533-48-48-48-48 21.533-48 48z"/></g><path d="m12 63.999999c0 28.672582 23.327414 52.000001 51.999998 52.000001 28.672586 0 52.000002-23.327419 52.000002-52.000001 0-28.672584-23.327416-51.999999-52.000002-51.999999-28.672584 0-51.999998 23.327415-51.999998 51.999999z" fill="url(#c)"/><ellipse cx="63.75" cy="63.875" fill="url(#e)" fill-rule="evenodd" rx="24.25" ry="24.125" transform="matrix(.9896907 0 0 .9948187 .907217 .455959)"/><path d="m63.999998 63.999999c17.789001 0 33.967008-5.129999 46.051992-13.508999-5.852-19.909-24.275991-34.491-46.051992-34.491-21.776999 0-40.200999 14.582999-46.050998 34.491 12.083 8.379 28.260999 13.508999 46.050998 13.508999z" fill="url(#b)" opacity=".5"/></g><g transform="matrix(.35625 0 0 .35625 13.31753 10.105872)"><path d="m17.060547 12.158203a2.3165482 2.3165482 0 0 0 -2.292969 2.316406v43.931641a2.3165482 2.3165482 0 0 0 2.789063 2.267578l12.017578-2.501953 4.052734 2.925781a2.3165482 2.3165482 0 0 0 2.1875.285156s.994873-.375522 2.029297-.955078c.517212-.289778 1.056187-.616741 1.599609-1.136718.271711-.259989.557908-.570762.802735-1.060547.244826-.489785.429144-1.250221.238281-2.013672-.143844-.575376-.480314-2.249138-.744141-3.541016l8.742188-5.908203a2.3165482 2.3165482 0 0 0 .347656-3.550781l-30.101562-30.373047a2.3165482 2.3165482 0 0 0 -1.667969-.685547z" filter="url(#f)" opacity=".76"/><path d="m17.060547 10.158203a2.3165482 2.3165482 0 0 0 -2.292969 2.316406v43.931641a2.3165482 2.3165482 0 0 0 2.789063 2.267578l12.017578-2.501953 4.052734 2.925781a2.3165482 2.3165482 0 0 0 2.1875.285156s.994873-.375522 2.029297-.955078c.517212-.289778 1.056187-.616741 1.599609-1.136718.271711-.259989.557908-.570762.802735-1.060547.244826-.489785.429144-1.250221.238281-2.013672-.143844-.575376-.480314-2.249138-.744141-3.541016l8.742188-5.908203a2.3165482 2.3165482 0 0 0 .347656-3.550781l-30.101562-30.373047a2.3165482 2.3165482 0 0 0 -1.667969-.685547z" fill="#fff"/><path d="m18.757812 16.544922v37.800781l11.001954-2.291015c.783411-.07693 1.014571.122272 1.322265.283203l4.083985 2.951171c.205739-.08636.376081-.147386.726562-.34375.257288-.144149.430719-.278581.585938-.396484-.358612-1.585341-.966797-4.59375-.966797-4.59375-.244571-.620166.125465-1.178871.703126-1.716813l8.357422-5.646484z" fill="url(#g)"/></g></svg>