<svg height="32" viewBox="0 0 8.4666665 8.466667" width="32" xmlns="http://www.w3.org/2000/svg" xmlns:xlink="http://www.w3.org/1999/xlink"><linearGradient id="a" gradientTransform="matrix(1.268362 0 0 1 -4.544261 0)" gradientUnits="userSpaceOnUse" x1="16.902962" x2="16.675179" y1="293.13501" y2="272.55374"><stop offset="0" stop-color="#717171"/><stop offset="1" stop-color="#9c9c9c" stop-opacity=".940196"/></linearGradient><g transform="matrix(.25 0 0 .25 0 -65.78333)"><rect fill="url(#a)" height="23.597858" rx="4.908921" ry=".070745" width="2.272743" x="15.796962" y="270.27606"/><path d="m9.171875 69.412109a8.8674698 12.637378 0 0 0 -8.8671875 12.636719 8.8674698 12.637378 0 0 0 .20507812 2.63086h-.20507812a65.285144 54.906077 0 0 0 .52148438 1.595703 8.8674698 12.637378 0 0 0 .68945312 2.117187 65.285144 54.906077 0 0 0 62.484375 39.332032 65.285144 54.906077 0 0 0 63.66211-43.052735c-.0755.000091-.13107.0015-.19727.002a8.8674698 12.637378 0 0 0 .19727-2.625 8.8674698 12.637378 0 0 0 -8.86719-12.636719 8.8674698 12.637378 0 0 0 -8.86719 12.636719 8.8674698 12.637378 0 0 0 1.49805 7.015625 51.472071 43.289015 0 0 1 -47.42578 26.55659 51.472071 43.289015 0 0 1 -47.421875-26.640621 8.8674698 12.637378 0 0 0 1.460937-6.931641 8.8674698 12.637378 0 0 0 -8.867187-12.636719z" fill="#787878" fill-opacity=".988235" transform="matrix(.26458333 0 0 .26458333 0 263.13332)"/><ellipse cx="16.933332" cy="267.33215" fill="#828282" fill-opacity=".858824" rx="4.216332" ry="3.926809"/><rect fill="#909090" fill-opacity=".956863" height="1.247432" rx="3.870272" ry=".05407" width="16.797321" x="8.534673" y="273.81015"/><path d="m9.171875 73.154297c-.9255997.000042-2.0945734.522047-3.2070312 2.107422-1.1124579 1.585375-1.9178729 4.166056-1.9179688 6.787109.00357.695031.056818 1.389915.1601562 2.0625.028352.193988.041413.389904.039063.585938.039638.117677.074576.23606.1152343.353515.035943.104681.067224.210906.09375.31836.1417633.567471.3186719 1.107863.5234375 1.609375.023543.05674.045685.114047.066406.171875 3.6496809 10.376928 11.420539 19.832729 21.947266 26.458989 10.526726 6.62625 23.743231 10.35458 37.013671 10.375l-.0098-.002c14.001084-.0151 27.934287-4.17084 38.734381-11.47461 10.51921-7.11382 17.91136-17.138941 20.99609-27.937498.004-.151694.0169-.303015.0391-.453124.10188-.676764.15525-1.375746.15626-2.074219l-.002.0059c-.00009-2.621054-.80551-5.201734-1.91797-6.787109-1.11245-1.585375-2.28143-2.107381-3.20703-2.107422-.9256.000041-2.09457.522047-3.20703 2.107422-1.11218 1.584973-1.91942 4.164786-1.91992 6.785156.001 1.9649.43642 11.919826 1.14453 13.427734-12.31556 9.58417-15.549301 22.01755-50.806646 24.4043-15.878833-.31913-32.231436-4.1323-50.824218-24.466802.692031-1.498074 1.113083-11.427392 1.115234-13.365234v-.002c-.000911-2.619685-.806074-5.198631-1.917969-6.783203-1.112458-1.585375-2.281431-2.10738-3.2070309-2.107422z" fill="#dedede" transform="matrix(.26458333 0 0 .26458333 0 263.13332)"/><ellipse cx="16.933332" cy="267.33215" fill="#dcdcdc" rx="3.249496" ry="3.026363"/></g></svg>