<?xml version="1.0" encoding="UTF-8" standalone="no"?>
<svg
   xmlns:dc="http://purl.org/dc/elements/1.1/"
   xmlns:cc="http://creativecommons.org/ns#"
   xmlns:rdf="http://www.w3.org/1999/02/22-rdf-syntax-ns#"
   xmlns:svg="http://www.w3.org/2000/svg"
   xmlns="http://www.w3.org/2000/svg"
   xmlns:xlink="http://www.w3.org/1999/xlink"
   xmlns:sodipodi="http://sodipodi.sourceforge.net/DTD/sodipodi-0.dtd"
   xmlns:inkscape="http://www.inkscape.org/namespaces/inkscape"
   height="32"
   width="32"
   version="1.1"
   id="svg42"
   sodipodi:docname="wordcountdialog.svg"
   inkscape:version="0.92.4 (unknown)"
   inkscape:export-filename="/home/rizmut/Dokumen/Rizmut/Github/libreoffice-style-karasa-jaga/build/next/cmd/32/wordcountdialog.png"
   inkscape:export-xdpi="96"
   inkscape:export-ydpi="96">
  <metadata
     id="metadata48">
    <rdf:RDF>
      <cc:Work
         rdf:about="">
        <dc:format>image/svg+xml</dc:format>
        <dc:type
           rdf:resource="http://purl.org/dc/dcmitype/StillImage" />
        <dc:title></dc:title>
      </cc:Work>
    </rdf:RDF>
  </metadata>
  <defs
     id="defs46">
    <linearGradient
       inkscape:collect="always"
       xlink:href="#a"
       id="linearGradient890"
       gradientUnits="userSpaceOnUse"
       x1="49.979378"
       y1="57.400105"
       x2="63.77393"
       y2="9.119174" />
    <linearGradient
       inkscape:collect="always"
       xlink:href="#a"
       id="linearGradient892"
       gradientUnits="userSpaceOnUse"
       x1="49.979378"
       y1="57.400105"
       x2="63.77393"
       y2="9.119174" />
    <linearGradient
       inkscape:collect="always"
       xlink:href="#a"
       id="linearGradient894"
       gradientUnits="userSpaceOnUse"
       x1="49.979378"
       y1="57.400105"
       x2="63.77393"
       y2="9.119174" />
    <linearGradient
       inkscape:collect="always"
       xlink:href="#a"
       id="linearGradient896"
       gradientUnits="userSpaceOnUse"
       x1="49.979378"
       y1="57.400105"
       x2="63.77393"
       y2="9.119174" />
    <linearGradient
       inkscape:collect="always"
       xlink:href="#d"
       id="linearGradient898"
       gradientUnits="userSpaceOnUse"
       x1="56.93652"
       y1="119.04517"
       x2="48"
       y2="7.9999976" />
    <linearGradient
       inkscape:collect="always"
       xlink:href="#d"
       id="linearGradient900"
       gradientUnits="userSpaceOnUse"
       x1="56.93652"
       y1="119.04517"
       x2="48"
       y2="7.9999976" />
    <linearGradient
       inkscape:collect="always"
       xlink:href="#d"
       id="linearGradient902"
       gradientUnits="userSpaceOnUse"
       x1="56.93652"
       y1="119.04517"
       x2="48"
       y2="7.9999976" />
    <linearGradient
       inkscape:collect="always"
       xlink:href="#d"
       id="linearGradient904"
       gradientUnits="userSpaceOnUse"
       x1="56.93652"
       y1="119.04517"
       x2="48"
       y2="7.9999976" />
  </defs>
  <sodipodi:namedview
     pagecolor="#ffffff"
     bordercolor="#666666"
     borderopacity="1"
     objecttolerance="10"
     gridtolerance="10"
     guidetolerance="10"
     inkscape:pageopacity="0"
     inkscape:pageshadow="2"
     inkscape:window-width="640"
     inkscape:window-height="480"
     id="namedview44"
     showgrid="true"
     inkscape:zoom="7.4375"
     inkscape:cx="26.337391"
     inkscape:cy="30.243108"
     inkscape:current-layer="g888">
    <inkscape:grid
       type="xygrid"
       id="grid873" />
  </sodipodi:namedview>
  <linearGradient
     id="a"
     gradientUnits="userSpaceOnUse"
     x1="49.979378"
     x2="63.77393"
     y1="57.400105"
     y2="9.119174">
    <stop
       offset="0"
       stop-color="#555"
       id="stop2" />
    <stop
       offset="1"
       id="stop4" />
  </linearGradient>
  <linearGradient
     id="b"
     gradientUnits="userSpaceOnUse"
     x1="64"
     x2="64"
     y1="56"
     y2="128">
    <stop
       offset="0"
       stop-color="#717174"
       id="stop7" />
    <stop
       offset=".5"
       stop-color="#9c9ca1"
       id="stop9" />
    <stop
       offset="1"
       stop-color="#cdcdd1"
       id="stop11" />
  </linearGradient>
  <linearGradient
     id="c"
     gradientUnits="userSpaceOnUse"
     x1="80"
     x2="80"
     y1="120"
     y2="64">
    <stop
       offset="0"
       stop-color="#fff"
       id="stop14" />
    <stop
       offset=".2857143"
       stop-color="#fff"
       id="stop16" />
    <stop
       offset=".71428573"
       stop-color="#e5e5e5"
       id="stop18" />
    <stop
       offset=".80219781"
       stop-color="#eaeaea"
       id="stop20" />
    <stop
       offset="1"
       stop-color="#eee"
       id="stop22" />
  </linearGradient>
  <linearGradient
     id="d"
     gradientUnits="userSpaceOnUse"
     x1="56.93652"
     x2="48"
     y1="119.04517"
     y2="7.9999976">
    <stop
       offset="0"
       stop-color="#0968ef"
       id="stop25" />
    <stop
       offset="1"
       stop-color="#aecffc"
       id="stop27" />
  </linearGradient>
  <g
     id="g888"
     transform="scale(0.25)">
    <g
       id="text32"
       style="font-size:54.48219299px;font-family:sans-serif;letter-spacing:1.67224169;word-spacing:0;fill:url(#linearGradient896);stroke-width:1.36205494"
       aria-label="ABC">
      <path
         id="path858"
         style="font-family:FreeSans;letter-spacing:-1;fill:url(#linearGradient890);stroke-width:1.36205494"
         d="M 33.868862,37.110724 H 18.559366 l -4.195129,11.9316 H 8.9704998 L 23.13587,9.3248054 h 6.537863 L 43.621175,49.042324 H 37.955026 Z M 32.452325,32.861113 26.350319,14.773025 19.812456,32.861113 Z"
         inkscape:connector-curvature="0" />
      <path
         id="path860"
         style="font-family:FreeSans;letter-spacing:-1;fill:url(#linearGradient892);stroke-width:1.36205494"
         d="m 77.436147,37.710028 q 0,5.121326 -3.214449,8.226811 -3.21445,3.105485 -8.499222,3.105485 H 47.797834 V 9.3248054 h 16.126729 q 3.323414,0 5.775113,0.9806796 2.451698,0.980679 3.650307,2.615145 1.25309,1.579984 1.797912,3.214449 0.544822,1.579984 0.544822,3.268932 0,6.102006 -5.502702,8.662669 3.813754,1.471019 5.502702,3.759271 1.74343,2.288252 1.74343,5.884077 z M 62.671473,26.432214 q 7.9544,0 7.9544,-6.319934 0,-6.319935 -7.9544,-6.319935 h -9.806795 v 12.639869 z m 2.560663,18.14257 q 2.669627,0 4.358575,-1.144126 1.688948,-1.198608 2.23377,-2.615145 0.544822,-1.416537 0.544822,-3.051003 0,-3.105485 -1.852395,-4.957879 -1.852394,-1.906877 -5.284772,-1.906877 H 52.864678 v 13.67503 z"
         inkscape:connector-curvature="0" />
      <path
         id="path862"
         style="font-family:FreeSans;letter-spacing:-1;fill:url(#linearGradient894);stroke-width:1.36205494"
         d="m 80.798131,29.646663 q 0,-2.724109 0.435857,-5.393737 0.49034,-2.669627 1.797913,-5.557183 1.307572,-2.887557 3.214449,-5.012362 1.961359,-2.179288 5.230291,-3.595825 3.323413,-1.4165369 7.46406,-1.4165369 12.966759,0 15.309499,12.9667619 h -5.17581 q -0.87172,-4.249611 -3.43238,-6.374417 -2.56066,-2.124805 -7.300613,-2.124805 -5.775113,0 -9.153008,4.413058 -3.323414,4.413057 -3.323414,12.040564 0,7.464061 3.48686,11.877118 3.48686,4.358576 9.425419,4.358576 4.903396,0 7.518546,-2.72411 2.61514,-2.778592 3.54134,-8.553704 h 5.23029 q -1.79791,15.745354 -16.344658,15.745354 -4.086164,0 -7.355096,-1.362055 -3.214449,-1.416537 -5.175808,-3.541343 -1.906877,-2.124805 -3.214449,-4.957879 -1.253091,-2.887557 -1.743431,-5.502702 -0.435857,-2.615145 -0.435857,-5.284773 z"
         inkscape:connector-curvature="0" />
    </g>
    <path
       id="rect34"
       d="m 12,64 h 104 c 2.216,0 4,1.784 4,4 v 48 c 0,2.216 -1.784,4 -4,4 H 12 c -2.216,0 -4,-1.784 -4,-4 V 68 c 0,-2.216 1.784,-4 4,-4 z"
       style="fill:url(#b)"
       inkscape:connector-curvature="0" />
    <path
       id="path36"
       d="m 12,68 h 104 v 48 H 12 Z"
       style="fill:url(#c)"
       inkscape:connector-curvature="0" />
    <g
       id="text40"
       style="font-size:54.48219299px;font-family:sans-serif;letter-spacing:1.67224169;word-spacing:0;fill:url(#linearGradient904);stroke-width:1.36205494"
       aria-label="123">
      <path
         id="path866"
         style="font-family:FreeSans;letter-spacing:2;fill:url(#linearGradient898);stroke-width:1.36205494"
         d="m 29.221298,83.173886 h -8.553705 v -3.432378 q 5.557184,-0.708269 7.246132,-1.961359 1.688948,-1.253091 2.942039,-5.720631 h 3.159967 v 38.627872 h -4.794433 z"
         inkscape:connector-curvature="0" />
      <path
         id="path868"
         style="font-family:FreeSans;letter-spacing:2;fill:url(#linearGradient900);stroke-width:1.36205494"
         d="m 50.161523,85.462138 q 0.381375,-13.40262 12.748833,-13.40262 5.502702,0 8.93508,3.159968 3.432378,3.159967 3.432378,8.172328 0,7.19165 -8.172329,11.65919 l -5.448219,2.942038 q -3.541343,1.906877 -5.066844,3.704788 -1.525502,1.79791 -1.906877,4.24961 h 20.321858 v 4.73995 H 49.289808 q 0.326893,-6.37441 2.560663,-9.80679 2.23377,-3.486862 8.281293,-6.91924 l 5.012362,-2.833074 q 5.23029,-2.996521 5.23029,-7.627507 0,-3.105485 -2.179287,-5.175808 -2.179288,-2.070324 -5.44822,-2.070324 -7.246131,0 -7.790953,9.207491 z"
         inkscape:connector-curvature="0" />
      <path
         id="path870"
         style="font-family:FreeSans;letter-spacing:2;fill:url(#linearGradient902);stroke-width:1.36205494"
         d="m 94.474609,76.254647 q -4.140647,0 -5.72063,2.288252 -1.525502,2.23377 -1.634466,5.993042 H 82.32508 q 0.272411,-12.476423 12.095047,-12.476423 5.502701,0 8.608183,2.833074 3.15997,2.833074 3.15997,7.790954 0,5.884077 -5.39374,8.008882 3.48686,1.198609 5.01236,3.377896 1.52551,2.124806 1.52551,5.829595 0,5.502701 -3.59583,8.771631 -3.54134,3.26893 -9.4799,3.26893 -11.877118,0 -12.748833,-12.476419 h 4.794433 q 0.272411,4.195129 2.23377,6.210969 1.961359,2.01584 5.884077,2.01584 3.759271,0 5.884073,-2.01584 2.12481,-2.07032 2.12481,-5.720629 0,-7.028203 -8.008883,-7.028203 l -2.015842,0.05448 h -0.599304 v -4.086164 q 5.175809,-0.108964 7.300614,-1.307573 2.179285,-1.198608 2.179285,-4.73995 0,-3.051003 -1.852392,-4.794433 -1.797912,-1.797913 -4.957879,-1.797913 z"
         inkscape:connector-curvature="0" />
    </g>
  </g>
</svg>
