<svg viewBox="0 0 24 24" xmlns="http://www.w3.org/2000/svg" xmlns:xlink="http://www.w3.org/1999/xlink"><filter id="a" color-interpolation-filters="sRGB" height="1.094553" width="1.097492" x="-.048746" y="-.047277"><feGaussianBlur stdDeviation=".36559322"/></filter><path d="m3 17.940678h18v2.559322h-18z" filter="url(#a)" opacity=".15" stroke-width="1.015418"/><path d="m4 7h17v12h-17z" fill="#2d2d2d"/><path d="m4 6c-.554 0-1 .446-1 1v12c0 .554.446 1 1 1h17c.554 0 1-.446 1-1v-12c0-.554-.446-1-1-1zm0 1h17v12h-17z" fill="#f2f2f7"/><path d="m6 7v2h-2v1h2v6h-2v1h2v2h1v-2h11v2h1v-2h2v-1h-2v-6h2v-1h-2v-2h-1v2h-11v-2zm1 3h11v6h-11z" fill="#409cff"/></svg>