<svg xmlns="http://www.w3.org/2000/svg" viewBox="0 0 256 256">
  <path
     style="fill:#ffffff"
     d="m 83.938814,16.10926 v 7.99126 47.94756 H 28 v 23.97377 h 55.938814 v 55.93882 H 107.91259 V 96.02185 h 55.93882 V 72.04808 H 107.91259 V 16.10926 Z m 96.613076,119.61916 -5.02575,2.26315 -8.27221,3.7303 -0.43704,0.28097 c -11.74964,7.26447 -18.92812,20.10198 -18.948,33.916 v 0.0156 c 0,21.97259 17.98369,39.95629 39.95629,39.95629 13.8171,-0.009 26.67439,-7.18433 33.94725,-18.93242 L 222.06898,196.5057 228,183.17652 Z m -4.12049,29.77992 21.80427,21.80428 c -2.88792,2.65275 -6.34485,4.59461 -10.41049,4.60434 -8.92155,0 -15.98252,-7.06096 -15.98252,-15.98252 0.002,-4.06994 1.93741,-7.53229 4.58874,-10.4261 z"
     />
  <path
     style="fill:#000000"
     d="M 91.930073,24.10052 V 80.03933 H 35.991259 v 7.99126 h 55.938814 v 55.93882 h 7.991259 V 88.03059 H 155.86015 V 80.03933 H 99.921332 V 24.10052 Z m 86.873727,121.17995 -7.78836,3.51179 c -9.40722,5.81623 -15.13937,16.08216 -15.15529,27.14218 0,17.65381 14.31123,31.96504 31.96503,31.96504 11.0625,-0.007 21.33488,-5.73372 27.1578,-15.13969 l 3.48056,-7.81957 z m -1.95099,9.34915 32.26158,32.26159 c -4.10106,7.9813 -12.31593,13.00418 -21.28921,13.01701 -13.24035,0 -23.97377,-10.73343 -23.97377,-23.97378 0.004,-8.97547 5.02116,-17.19691 13.0014,-21.30482 z"
     />
</svg>
