<svg height="100" viewBox="0 0 100 100" width="100" xmlns="http://www.w3.org/2000/svg"><g fill="#004785" stroke-width=".999996"><path d="m49.847796 5.9426952c-24.052564 0-43.622116 19.9597898-43.622116 44.4919878 0 24.532196 19.569552 44.491983 43.622116 44.491983s43.622117-19.959787 43.622117-44.491983c0-24.532198-19.569553-44.4919878-43.622117-44.4919878zm0 82.1390538c-20.352514 0-36.911021-16.888702-36.911021-37.647066s16.558507-37.647067 36.911021-37.647067c20.352515 0 36.911023 16.888703 36.911023 37.647067s-16.558508 37.647066-36.911023 37.647066z"/><path d="m55.363192 67.818183h-1.363192v-23.636366c0-2.302461-1.832129-4.171125-4.089572-4.171125h-5.452765c-2.257446 0-4.089574 1.868664-4.089574 4.171125 0 2.30246 1.832128 4.171123 4.089574 4.171123h1.36319v19.465243h-1.36319c-2.257446 0-4.089574 1.868663-4.089574 4.171124 0 2.30246 1.832128 4.171123 4.089574 4.171123h10.905529c2.257443 0 4.089578-1.868663 4.089578-4.171123 0-2.302461-1.832135-4.171124-4.089578-4.171124z"/><ellipse cx="49.148602" cy="31.996174" rx="4.362212" ry="4.449198"/></g></svg>