<svg xmlns="http://www.w3.org/2000/svg" viewBox="0 0 256 256">
  <path
     style="fill:#ffffff"
     d="m 12,12 v 104 h 56 v 64 l 24,-24 27.59375,51.71875 c 3.36747,5.37539 11.72315,5.33031 16.78125,1.26563 4.41006,-4.12147 3.0781,-12.14063 0.39064,-16.42188 L 109.3125,148 H 148 L 92,97.593752 V 29.484375 L 73.421875,12 Z m 160,160 v 72 h 72 v -72 z"
     />
  <path
     style="fill:#000000"
     d="m 4,4 v 120 h 56 v 75.3125 l 30.015624,-30.01563 22.656246,42.43751 c 3.32813,6.86805 19.99371,9.72793 27.35938,4.17187 7.40028,-5.58218 7.88085,-20.61484 3.51562,-27.57812 L 123.64062,156 h 45.20313 L 100,94.031248 V 36 28 L 76,4 h -8 z m 8,8 H 68 V 36 H 92 V 86.828128 L 71.078125,68 H 60 v 48 H 12 Z M 76,14.421875 90.421872,28 H 76 Z M 68,76 92,97.593752 100,104.79687 148,148 h -38.6875 l 27.45312,44.5625 c 2.68749,4.28126 3.23441,12.7798 -0.39064,16.42188 -4.96222,4.01675 -13.41377,4.10976 -16.78124,-1.26563 L 92,156 68,180 Z m 96,88 v 88 h 88 v -88 z m 8,8 h 72 v 72 h -72 z m 24,8 10.34375,10.34375 L 192.71875,204 C 183.47334,214.20061 188,226.40738 196,236 h 8 v -8 l -4.85938,-7.82813 18.51563,-18.51562 L 228,212 v -32 z"
     />
</svg>
