<svg viewBox="0 0 256 256" xmlns="http://www.w3.org/2000/svg"><path d="m195.03125 28-2.34375 2.34375-148.6875 148.6875v8.96875l-16 21.32813v18.67187h18.671875l21.328125-16h9l89.1875-90.5 12.64063 12.64062 49.17187-49.171868v-41.937502l-15.03125-15.03125z" fill="#fff"/><path d="m198.34375 36-146.34375 146.34375v8.32812l-16 21.32813v8h8l21.328125-16h8.328125l138.34375-140.359375v14.703125l-38.82813 38.82812 5.65626 5.65626 41.17187-41.17188v-35.3125l-10.34375-10.34375zm3.3125 8h4.6875l5.65625 5.65625v5.03125l-72 71.65625v-20.6875zm-69.65625 69.65625v20.6875l-61.65625 61.65625h-10.34375v-10.34375z"/></svg>