<svg xmlns="http://www.w3.org/2000/svg" viewBox="0 0 256 256">
  <path
     style="fill:#ffffff"
     d="m 50.96705,32.006382 v 56.044676 h 55.76935 c 0,0 0,-7.548699 0,110.040852 l 29.93867,-29.53918 33.01969,51.32216 c 5.71591,9.16916 25.96863,1.89077 19.77758,-10.88367 l -32.84852,-52.69826 h 37.75012 c 0,0 0,0 -64.82564,-68.241902 h 56.85859 V 32.006382 Z"
     />
  <path
     style="fill:#000000"
     d="m 43,24 v 72.05744 h 55.769346 v 121.11217 l 36.520824,-36.02872 27.65127,42.98739 c 2.80446,4.49877 7.53936,6.93296 11.90389,7.61545 4.36453,0.68247 8.61099,-0.0272 12.47963,-1.78268 3.86866,-1.75523 7.51782,-4.66511 9.64761,-9.11663 2.12979,-4.45156 2.08459,-10.3484 -0.34235,-15.35599 l -0.18674,-0.39096 -25.4261,-40.79814 H 213 L 148.17439,96.05744 h 46.19955 V 24 Z m 7.96705,8.006382 H 186.40689 V 88.051058 H 140.56524 L 110.14418,56.025529 H 98.769346 v 8.006382 24.019147 H 50.96705 Z m 55.76935,32.025529 87.63754,92.261049 h -37.75012 l 32.84852,52.69826 c 6.19105,12.77444 -14.06167,20.05283 -19.77758,10.88367 l -33.01969,-51.32216 -29.93867,29.53918 z"
     />
</svg>
