<svg xmlns="http://www.w3.org/2000/svg" viewBox="0 0 256 256">
  <path
     style="fill:#ffffff"
     d="m 50.586742,32.006382 v 56.044676 h 56.044678 c 0,0 0,0 0,110.040852 l 30.08648,-29.53918 33.1827,51.32216 c 5.74414,9.16916 26.09684,1.89077 19.87522,-10.88367 l -33.01069,-52.69826 h 37.93649 L 129.55594,88.051058 h 57.1393 V 32.006382 Z"
     />
  <path
     style="fill:#000000"
     d="m 42.580359,24 v 72.05744 h 56.044676 v 121.11217 l 36.701125,-36.02872 27.78779,42.98739 c 2.8183,4.49877 7.57657,6.93296 11.96265,7.61545 4.38608,0.68247 8.6535,-0.0272 12.54125,-1.78268 3.88775,-1.75523 7.55492,-4.66512 9.69523,-9.11663 2.14031,-4.45156 2.09489,-10.3484 -0.34403,-15.35599 l -0.18767,-0.39096 -25.55163,-40.79814 h 42.18989 L 148.27399,96.05744 h 46.42763 V 24 Z m 8.006383,8.006382 H 186.69524 V 88.051058 H 140.62727 L 110.05602,56.025529 H 98.625035 v 8.006382 24.019147 H 50.586742 Z m 8.006382,8.006382 v 8.006383 h 8.006382 v -8.006383 z m 16.012764,0 v 8.006383 h 8.006383 v -8.006383 z m 16.012765,0 v 8.006383 h 8.006382 v -8.006383 z m 16.012767,0 v 8.006383 h 8.00638 v -8.006383 z m 16.01276,0 v 8.006383 h 8.00638 v -8.006383 z m 16.01277,0 v 8.006383 h 8.00638 v -8.006383 z m 16.01276,0 v 8.006383 h 8.00638 v -8.006383 z m 16.01277,0 v 8.006383 h 8.00638 V 40.012764 Z M 58.593124,56.025529 v 8.006382 h 8.006382 v -8.006382 z m 16.012764,0 v 8.006382 h 8.006383 v -8.006382 z m 48.038292,0 v 8.006382 h 8.00638 v -8.006382 z m 16.01277,0 v 8.006382 h 8.00638 v -8.006382 z m 16.01276,0 v 8.006382 h 8.00638 v -8.006382 z m 16.01277,0 v 8.006382 h 8.00638 v -8.006382 z m -64.05106,8.006382 88.0702,92.261049 h -37.93649 l 33.01069,52.69826 c 6.22162,12.77444 -14.13108,20.05283 -19.87522,10.88367 l -33.1827,-51.32216 -30.08648,29.53918 z m -48.038296,8.006383 v 8.006382 h 8.006382 v -8.006382 z m 16.012764,0 v 8.006382 h 8.006383 v -8.006382 z m 64.051062,0 v 8.006382 h 8.00638 v -8.006382 z m 16.01276,0 v 8.006382 h 8.00638 v -8.006382 z m 16.01277,0 v 8.006382 h 8.00638 v -8.006382 z"
     />
</svg>
