<svg height="128" viewBox="0 0 128 128" width="128" xmlns="http://www.w3.org/2000/svg"><g transform="translate(832.57143 85.92354)"><g fill="#a1ddaa"><path d="m18 .02539063c-4.15175 0-6.01832 3.48502087-6 5.99804687v115.9687525c.0004 4.1875 1.81145 5.99764 6 5.99804h91.99805c4.18855-.0004 5.9996-1.81054 6-5.99804v-71.818362c.048-2.111901-.78003-4.232189-2.25-5.75l-42.162112-42.1484374c-1.51821-1.46918997-3.637561-2.29894098-5.75-2.24999997zm0 5.97070317h2 46.25.875l.5.5 41.75 42.0000002.625.625v.875 69.999996 2h-2-88-2v-2-111.9999962z" transform="translate(-832.57143 -85.92354)"/><path d="m-745.9369-85.865323c-2.66247.852789-3.55852 4.906018-1.50595 6.812079l24.09514 24.220931c2.22593 2.121657 6.65945.306281 6.77673-2.775324v-24.220851c-.00024-2.113661-1.91322-4.036595-4.01586-4.036835h-24.09514c-.41519-.06397-.83997-.06397-1.25492 0z"/><path d="m30.998047 47.996094v2 8 2 8 2 8 2 8 2 8 2h25v-2h-4.001953v-8h4.001953v-2h-4.001953v-8h4.001953v-2h-4.001953v-8h18v6h2.001953v-6h17v6h2v-28h-58zm2 12h17v8h-17zm18.998047 0h18v8h-18zm20.001953 0h17v8h-17zm-39 10h17v8h-17zm0 10h17v8h-17zm0 10h17v8h-17z" transform="translate(-832.57143 -85.92354)"/></g><g fill="#3a3a38"><path d="m-799.57265-35.928356h17v8h-17z"/><path d="m-780.57441-35.928356h17.99994v8h-17.99994z"/><path d="m-760.57265-35.928356h17v8h-17z"/></g><path d="m55.998047 75.996094v27.999996h39v-27.999996zm2 2h35v23.999996h-35z" fill="#a1ddaa" transform="translate(-832.57143 -85.92354)"/><path d="m-772.57265-.92835556h7v15.99990056h-7z" fill="#83beec"/><path d="m-764.57265-5.9283556h7v20.9999006h-7z" fill="#ff9198"/><path d="m-756.57265 5.0716444h7v9.9999006h-7z" fill="#f8db8f"/><path d="m-748.57265 1.0716444h7v14.0000006h-7z" fill="#a1ddaa"/><path d="m-774.57265 15.071645h35v1h-35z" fill="none" opacity=".75"/><path d="m-763.57143-4.92354h5v19h-5z" fill="#d42314" stroke-width=".803904"/><path d="m-755.57143 6.07646h5v8h-5z" fill="#ed8733" stroke-width=".755933"/><path d="m-771.57143.07646h5v14h-5z" fill="#0063b1" stroke-width=".790572"/><g fill="#309048"><path d="m-747.57143 2.07646h5v12h-5z" stroke-width=".782461"/><g fill-opacity=".982993"><path d="m-799.57141-35.923538h17v8h-17z"/><path d="m-760.57143-35.92354h17v8h-17z"/><path d="m-780.57143-35.92354h18v8h-18z"/></g></g></g></svg>