<svg viewBox="0 0 32 32" xmlns="http://www.w3.org/2000/svg" xmlns:xlink="http://www.w3.org/1999/xlink"><path d="m4.625.00976563c-.9167679.17493262-1.6414394 1.06510617-1.625 1.99804687v27.9921875c.0001 1.046877.9528767 1.9999 2 2h22c1.047123-.0001 1.9999-.953123 2-2v-17.455078c.012-.527977-.195013-1.056094-.5625-1.435547l-10.541016-10.53710938c-.379547-.36729853-.909399-.57473528-1.4375-.56249999h-11.458984c-.1245956-.01199539-.2503643-.01199539-.375 0zm.375 2.00195317h.5 11.0625.21875l.125.125 9.9375 10.0000002.15625.15625v.21875 17 .5h-.5-21-.5v-.5-27.0000002z" fill="#ed5a33"/><path d="m21.658457.0153901c-.665617.21319788-.889629 1.2265076-.376487 1.7030241l6.023769 6.0552478c.556481.5304157 1.664862.07657 1.694181-.6938328v-6.0552278c-.00006-.52841648-.478303-1.00915133-1.003965-1.0092113h-6.023769c-.103796-.01599385-.209993-.01599385-.313729 0z" fill="#ed5a33"/><path d="m11 12v13h12v-13zm3 2h2 2c1.656854 0 3 1.343146 3 3s-1.343146 3-3 3h-2v3h-2zm2 2v2h2c.552285 0 1-.447715 1-1s-.447715-1-1-1z" fill="#fb6d3b" fill-opacity=".978947"/><g fill="#fafafa" transform="translate(-.4991)"><path d="m5 2v28h3v-28zm1 1.9960938h1v1h-1zm0 2.0039062h1v1h-1zm0 2h1v1h-1zm0 2.003906h1v1h-1zm0 1.996094h1v1h-1zm0 2.003906h1v1h-1zm0 2h1v1h-1zm0 2.003906h1v1h-1zm0 1.992188h1v1h-1zm0 2.003906h1v1h-1zm0 2h1v1h-1zm0 2.003906h1v1h-1zm0 1.992188h1v1h-1z" fill="#ed5a33" transform="translate(.4991)"/><path id="a" d="m2.4991 3.99632h3v1h-3z" fill="#fafafa"/><g fill="#fafafa"><use height="1085" transform="translate(0 2)" width="5033" xlink:href="#a"/><use height="1085" transform="translate(0 4)" width="5033" xlink:href="#a"/><use height="1085" transform="translate(0 6)" width="5033" xlink:href="#a"/><use height="1085" transform="translate(0 8)" width="5033" xlink:href="#a"/><use height="1085" transform="translate(0 10)" width="5033" xlink:href="#a"/><use height="1085" transform="translate(0 12)" width="5033" xlink:href="#a"/><use height="1085" transform="translate(0 14)" width="5033" xlink:href="#a"/><use height="1085" transform="translate(0 16)" width="5033" xlink:href="#a"/><use height="1085" transform="translate(0 18)" width="5033" xlink:href="#a"/><use height="1085" transform="translate(0 20)" width="5033" xlink:href="#a"/><use height="1085" transform="translate(0 22)" width="5033" xlink:href="#a"/><use height="1085" transform="translate(0 24)" width="5033" xlink:href="#a"/></g></g></svg>