<svg height="32" viewBox="0 0 8.4666665 8.4666669" width="32" xmlns="http://www.w3.org/2000/svg"><g stroke-width=".264583" transform="translate(0 -288.533307)"><path d="m5.9980469 2c-.5539998 0-1 .4459969-1 1v26c0 .554003.4460002 1 1 1h20.0000001c.554 0 .892483-.456542 1-1 0-6.871745 0-13.74349 0-20.6152344l-6.507813-6.3847656zm0 1h13.0000001v6c0 .6726425.491378 1 1 1h6v19h-20.0000001zm14.0019531 0 6 6h-6z" fill="#fafafa" stroke-width=".999999" transform="matrix(.26458333 0 0 .26458333 0 288.53332)"/><g stroke-width="1.333333" transform="matrix(.26458333 0 0 .26458333 0 288.53332)"><path d="m20.5 16.5-6.5 6.5-2.5-2.5-5.5 5.5v3h19.998047v-7.001953z" fill="#0063b1"/><path d="m20.5 15-6.5 6.5-2.5-2.5-5.5 5.5v1.5l5.5-5.5 1.75 1.75-6.75 6.75h1.5l6-6 6.5-6.5 5.498047 5.498047v-1.5z" fill="#83beec"/></g><g stroke-width=".264583"><path d="m3.1403767 290.42032a.79374998.79374998 0 0 1 .00103.004c-.00127-.00039-.00236-.001-.00362-.002.021779.0725.037208.14782.037208.22738 0 .0522-.0059.1031-.015502.15244a.79374998.79374998 0 0 1 -.0005291.005.79374998.79374998 0 0 1 -.00362.0139c-.010471.0475-.024343.0936-.04289.13746-.018841.0446-.041911.0867-.068213.12661a.79374998.79374998 0 0 1 -.00672.0109.79374998.79374998 0 0 1 -.00103.002c-.026636.0389-.056941.075-.089909.10852a.79374998.79374998 0 0 1 -.0062.007c-.031704.0315-.066726.0595-.1033528.0853a.79374998.79374998 0 0 1 -.019637.014c-.037486.0247-.077292.0459-.1188557.0641a.79374998.79374998 0 0 1 -.013952.006c-.041713.0173-.085282.0308-.1302246.0408a.79374998.79374998 0 0 1 -.021704.005c-.049021.009-.099625.015-.1514115.015-.079552 0-.1549187-.0154-.2273763-.0372.000381.001.00116.002.00155.004a.79374998.79374998 0 0 1 -.00413-.001.79374998.79374998 0 0 0 .1669149.29713 1.0583332 1.0583332 0 0 0 .00465 0c.1442378.16282.3524811.26665.5875609.26665.4383759 0 .79375-.35538.79375-.79375 0-.23534-.1040379-.44382-.2671673-.58807a1.0583332 1.0583332 0 0 0 -.0005292-.006.79374998.79374998 0 0 0 -.2961057-.16536zm.2511473.54105c.030266.0666.048059.14012.048059.21807 0 .29225-.2369162.52917-.5291667.52917-.077269 0-.1503476-.0173-.2165243-.047a1.0583332 1.0583332 0 0 0 .1100708-.0419c.013748-.006.026879-.0131.040308-.0196a1.0583332 1.0583332 0 0 0 .064595-.0336c.014897-.009.029505-.0176.043925-.0269a1.0583332 1.0583332 0 0 0 .056844-.0398c.012568-.009.025082-.0186.037207-.0284a1.0583332 1.0583332 0 0 0 .074931-.0661 1.0583332 1.0583332 0 0 0 .00775-.007c.0005027-.00053.00103-.001.00156-.002a1.0583332 1.0583332 0 0 0 .1550284-.19948 1.0583332 1.0583332 0 0 0 .05581-.10645c.00228-.005.00451-.01.00672-.015a1.0583332 1.0583332 0 0 0 .042891-.1142z" fill="#f8db8f"/><path d="m3.391524 290.96137c-.1025729.33433-.3636818.59641-.6976318.70022.066177.0298.1392555.047.2165243.047.2922505 0 .5291667-.23692.5291667-.52917 0-.078-.017793-.15144-.048059-.21807z" fill="#ed8733"/></g></g></svg>