<svg viewBox="0 0 16 16" xmlns="http://www.w3.org/2000/svg"><path d="m1.8125.00585938c-.4583913.08746719-.82071984.53357492-.8125 1.00000002v13.9941406c.00005.523384.4764299.99995 1 1h12c.52357-.00005.99995-.476616 1-1v-7.9960938c.006-.263961-.097505-.5290411-.28125-.71875l-6-5.99804682c-.1897764-.18363113-.454695-.28736771-.71875-.28125h-6c-.0622988-.00599775-.1251812-.00599775-.1875 0zm.1875.99414062h.5 5.3125.1875l.15625.125 5.6875 5.71875.15625.125v.21875 7.3125.5h-.5-11-.5v-.5-13z" fill="#ed5a33"/><path d="m11.343634.00599975c-.331493.10559039-.443051.60743213-.187496.8434336l2.999943 2.99887505c.277145.2626914.829134.037886.843734-.3436211v-2.99887505c-.00003-.26169182-.238205-.49978251-.49999-.4998125h-2.999943c-.0517-.007997-.104589-.007997-.156248 0z" fill="#ed5a33"/><g fill="#fb6d3b"><path d="m4.03044 6.0121004v.4688c-.0119 1.9999-.0196 3.9998996-.0312 5.9999996v.5312h.5 7 .5v-.5c-.00006-1.9921 0-4.0080996 0-5.9999996v-.5h-.5c-2.32275-.012-4.64771.01-6.96875 0h-.5zm1 1c1.98885.01 3.98117-.01 5.96875 0 0 1.6599-.00004 3.3398996 0 4.9999996h-6c.01-1.6668.0214-3.3333996.0312-4.9999996z"/><path d="m7.99919 7.9993004h2v1h-2z"/><path d="m7.99919 9.9993004h2v.9999996h-2z"/><path d="m5.99919 7.9993004h1v1h-1z"/><path d="m5.99919 9.9993004h1v.9999996h-1z"/></g></svg>