<svg viewBox="0 0 32 32" xmlns="http://www.w3.org/2000/svg"><path d="m4.625.00976563c-.9167679.17493262-1.6414394 1.06510617-1.625 1.99804687v27.9921875c.0001 1.046877.9528767 1.9999 2 2h22c1.047123-.0001 1.9999-.953123 2-2v-17.455078c.012-.527977-.195013-1.056094-.5625-1.435547l-10.541016-10.53710938c-.379547-.36729853-.909399-.57473528-1.4375-.56249999h-11.458984c-.1245956-.01199539-.2503643-.01199539-.375 0zm.375 2.00195317h.5 11.0625.21875l.125.125 9.9375 10.0000002.15625.15625v.21875 17 .5h-.5-21-.5v-.5-27.0000002z" fill="#ed5a33"/><path d="m21.658457.0153901c-.665617.21319788-.889629 1.2265076-.376487 1.7030241l6.023769 6.0552478c.556481.5304157 1.664862.07657 1.694181-.6938328v-6.0552278c-.00006-.52841648-.478303-1.00915133-1.003965-1.0092113h-6.023769c-.103796-.01599385-.209993-.01599385-.313729 0z" fill="#ed5a33"/><g fill="#fb6d3b"><path d="m9.9980469 11.996094c-1.108 0-2 .892-2 2v10c0 1.108.892 2 2 2h12.0000001c1.108 0 2-.892 2-2v-10c0-1.108-.892-2-2-2zm0 1h12.0000001c.554 0 1 .446 1 1v10c0 .554-.446 1-1 1h-12.0000001c-.554 0-1-.446-1-1v-10c0-.554.446-1 1-1z"/><path d="m10.9989 14.99635h10v2h-10z"/><path d="m13.9989 17.99635h7v2h-7z"/><ellipse cx="11.999139" cy="18.995903" rx=".999999" ry=".999999"/><path d="m13.9989 20.99635h7v2h-7z"/><ellipse cx="11.999139" cy="21.995903" rx=".999999" ry=".999999"/></g></svg>