<svg height="24" viewBox="0 0 24 24" width="24" xmlns="http://www.w3.org/2000/svg"><g stroke-width=".39994" transform="translate(0 23.739368)"><path d="m5.9791007-7.5742916q.06399 0 .1599759-.047993.095986-.06399.2399639-.1919711.159976-.1279807.2559615-.2239663.095986-.1119831.3039543-.3199518.2239663-.2239663.3199518-.3199519l.1919711.1599759q-.8798676 1.0878364-1.3118026 1.4237858-.431935.3359495-.9118628.3359495-.6399037 0-.6399037-.6559014 0-.3999398.3679447-1.8397231-1.0558412 1.4877761-1.7117425 1.9996991-.6559013.5119229-1.5037737.5119229-.76788449 0-1.1998195-.4639301-.43193501-.4799278-.43193501-1.3118027 0-1.2318146.6878965-2.5116224.70389411-1.279807 1.77573281-2.111682 1.0878363-.831875 2.1116823-.831875 1.0718387 0 1.2798074.927861l.1759735-.767885.047993-.04799.9758532-.111983.1119831.04799q-.015998.06399-.095985.335949-1.4237858 5.2152158-1.4237858 5.8071267 0 .2079687.2239663.2079687zm-.3039543-5.0712374q0-.447932-.271959-.703894-.2559615-.271959-.7038941-.271959-.8798676 0-1.6797473 1.023846-.783882 1.023846-1.1838219 2.143678-.3839422 1.1038336-.3839422 1.7277397 0 .5439182.2559615.8798676.2559615.3199519.6718989.3199519.7518869 0 1.5357689-.86387.7838821-.8798676 1.2638099-2.0796872.4959253-1.199819.4959253-2.175673z" stroke-width=".39994"/><path d="m18.08489-17.204843v-.271959q1.199819-.143978 2.447631-.367944l.07999.07999-1.663749 6.207066q.847872-1.3278 1.551766-1.871719.703894-.543918 1.535769-.543918.79988 0 1.3278.543918.527921.543919.527921 1.375793 0 1.231815-.767885 2.4796273-.751886 1.2318147-1.935708 2.0316943-1.183822.7998796-2.367644.7998796-.735889 0-1.439783-.2879566-.687897-.3039543-.687897-.6239061l2.175673-8.0147945q.255961-.895865.255961-1.103834 0-.271959-.175973-.335949-.159976-.07999-.86387-.09599zm.719891 10.0944816q.815878 0 1.551767-.5759133.751887-.5759134 1.199819-1.375793.447933-.7998797.703894-1.5517663.27196-.751887.27196-1.19982 0-.639903-.303955-1.007848-.303954-.367945-.815877-.367945-.719892 0-1.375793.687897-.655901.671899-1.071839 1.615757-.415937.9438577-.655901 1.8397229-.239964.8798676-.239964 1.3917906 0 .5439181.735889.5439181z" stroke-width=".39994"/><path d="m13 12v1l.666016 1h-4.666016v1h4.666016l-.666016 1v1l3-2.5z" transform="translate(0 -23.739368)"/></g></svg>