<svg height="24" viewBox="0 0 24 24" width="24" xmlns="http://www.w3.org/2000/svg"><g stroke-width=".39994" transform="translate(0 23.739368)"><path d="m5.8280587-7.5742916q.06399 0 .159976-.047993.095986-.06399.2399639-.1919711.1599759-.1279807.2559614-.2239663.095986-.1119831.3039543-.3199518.2239663-.2239663.3199519-.3199519l.1919711.1599759q-.8798676 1.0878364-1.3118026 1.4237858-.4319351.3359495-.9118628.3359495-.6399038 0-.6399038-.6559014 0-.3999398.3679447-1.8397231-1.0558412 1.4877761-1.7117425 1.9996991-.6559013.5119229-1.5037737.5119229-.76788446 0-1.19981947-.4639301-.43193501-.4799278-.43193501-1.3118027 0-1.2318146.6878965-2.5116224.70389408-1.279807 1.77573278-2.111682 1.0878364-.831875 2.1116823-.831875 1.0718387 0 1.2798074.927861l.1759736-.767885.047993-.04799.9758532-.111983.1119832.04799q-.015998.06399-.095986.335949-1.4237858 5.2152158-1.4237858 5.8071267 0 .2079687.2239663.2079687zm-.3039542-5.0712374q0-.447932-.2719591-.703894-.2559615-.271959-.7038941-.271959-.8798676 0-1.6797473 1.023846-.783882 1.023846-1.1838218 2.143678-.3839423 1.1038336-.3839423 1.7277397 0 .5439182.2559615.8798676.2559615.3199519.6718989.3199519.7518869 0 1.5357689-.86387.7838821-.8798676 1.2638099-2.0796872.4959254-1.199819.4959254-2.175673z" stroke-width=".39994"/><path d="m14.775201-6.5983903q0 0-.064-.096-.064-.096-.128-.192-.064-.085333-.213333-.2453333-.149334-.16-.309334-.2986667-.16-.1493333-.416-.3413333-.256-.192-.544-.352-.288-.16-.693333-.3413334-.405333-.1813333-.853333-.3306667-.448-.16-1.024-.2986666-.5760004-.1386667-1.2160004-.2346667v-.6293334q1.2373334-.1919996 2.2506664-.5333336 1.013334-.352 1.568-.682666.554667-.330667.96-.693334.405334-.373333.522667-.544.117333-.181333.16-.288v1.002667q-.05333.096-.16.234667-.106667.128-.416.405333-.309333.277333-.704.522667-.394667.234666-1.077333.490666-.682667.2453336-1.472.3840003 2.688.4586667 3.829333 2.0586667z"/><path d="m18.235932-17.204843v-.271959q1.199819-.143978 2.447631-.367944l.07999.07999-1.663749 6.207066q.847872-1.3278 1.551766-1.871719.703894-.543918 1.535769-.543918.79988 0 1.3278.543918.527921.543919.527921 1.375793 0 1.231815-.767885 2.4796273-.751886 1.2318147-1.935708 2.0316943-1.183822.7998796-2.367644.7998796-.735889 0-1.439783-.2879566-.687897-.3039543-.687897-.6239061l2.175673-8.0147945q.255961-.895865.255961-1.103834 0-.271959-.175973-.335949-.159976-.07999-.86387-.09599zm.719891 10.0944816q.815878 0 1.551767-.5759133.751887-.5759134 1.199819-1.375793.447933-.7998797.703894-1.5517663.27196-.751887.27196-1.19982 0-.639903-.303955-1.007848-.303954-.367945-.815877-.367945-.719892 0-1.375793.687897-.655901.671899-1.071839 1.615757-.415937.9438577-.655901 1.8397229-.239964.8798676-.239964 1.3917906 0 .5439181.735889.5439181z" stroke-width=".39994"/></g></svg>