<svg height="24" viewBox="0 0 24 24" width="24" xmlns="http://www.w3.org/2000/svg"><g stroke-width=".39994" transform="translate(0 23.739368)"><path d="m5.8711166-7.5742916q.06399 0 .159976-.047993.095986-.06399.2399639-.1919711.1599759-.1279807.2559614-.2239663.095986-.1119831.3039543-.3199518.2239663-.2239663.3199519-.3199519l.1919711.1599759q-.8798676 1.0878364-1.3118026 1.4237858-.4319351.3359495-.9118628.3359495-.6399038 0-.6399038-.6559014 0-.3999398.3679447-1.8397231-1.0558412 1.4877761-1.7117425 1.9996991-.6559013.5119229-1.5037737.5119229-.76788452 0-1.19981952-.4639301-.43193498-.4799278-.43193498-1.3118027 0-1.2318146.68789648-2.5116222.70389412-1.279807 1.77573282-2.111682 1.0878364-.831875 2.1116823-.831875 1.0718387 0 1.2798074.927861l.1759736-.767885.047993-.04799.9758532-.111983.1119832.04799q-.015998.06399-.095986.335949-1.4237858 5.2152156-1.4237858 5.8071265 0 .2079687.2239664.2079689zm-.3039542-5.0712374q0-.447932-.2719591-.703894-.2559615-.271959-.7038941-.271959-.8798676 0-1.6797473 1.023846-.783882 1.023846-1.1838218 2.143678-.3839423 1.1038336-.3839423 1.7277397 0 .5439182.2559615.8798676.2559615.3199519.6718989.3199519.7518869 0 1.5357689-.86387.7838821-.8798676 1.2638099-2.0796872.4959254-1.199819.4959254-2.175673z" stroke-width=".39994"/><path d="m16-8.739368v1h-3.986667l-.875805 2h-.72l.875805-2h-2.293333v-1h2.64l.706666-2h-3.346666v-1h3.706666l.933334-2.36h.72l-.933334 2.36h2.573334v1h-2.933334l-.706666 2z"/><path d="m18.192872-17.204843v-.271959q1.19982-.143978 2.447632-.367944l.07999.07999-1.66375 6.207066q.847873-1.3278 1.551767-1.871719.703894-.543918 1.535769-.543918.799879 0 1.3278.543918.52792.543919.52792 1.375793 0 1.231815-.767884 2.4796273-.751887 1.2318147-1.935709 2.0316943-1.183822.7998796-2.367644.7998796-.735889 0-1.439783-.2879566-.687896-.3039543-.687896-.6239061l2.175672-8.0147945q.255962-.895865.255962-1.103834 0-.271959-.175974-.335949-.159976-.07999-.86387-.09599zm.719892 10.0944816q.815877 0 1.551766-.5759133.751887-.5759134 1.19982-1.375793.447932-.7998797.703894-1.5517663.271959-.751887.271959-1.19982 0-.639903-.303954-1.007848-.303955-.367945-.815878-.367945-.719891 0-1.375792.687897-.655902.671899-1.071839 1.615757-.415938.9438577-.655902 1.8397229-.239963.8798676-.239963 1.3917906 0 .5439181.735889.5439181z" stroke-width=".39994"/></g></svg>