<svg height="96" viewBox="0 0 96 96" width="96" xmlns="http://www.w3.org/2000/svg" xmlns:xlink="http://www.w3.org/1999/xlink"><linearGradient id="a" gradientTransform="matrix(.0000613 -.12499998 -.12499998 -.0000613 80.99388 58.979459)" gradientUnits="userSpaceOnUse" x1="75.827911" x2="-64.172081" xlink:href="#b" y1="23.989048" y2="23.920387"/><linearGradient id="b"><stop offset="0" stop-color="#0968ef"/><stop offset="1" stop-color="#aecffc"/></linearGradient><linearGradient id="c" gradientUnits="userSpaceOnUse" x1="42.999501" x2="42.977244" xlink:href="#b" y1="71.999902" y2="53.001134"/><linearGradient id="d" gradientUnits="userSpaceOnUse" x1="43.999501" x2="43.499501" xlink:href="#b" y1="48.999899" y2="30.499899"/><linearGradient id="e" gradientTransform="matrix(.0000613 -.12499998 -.12499998 -.0000613 80.99388 58.979459)" gradientUnits="userSpaceOnUse" x1="80.007858" x2="-71.990166" xlink:href="#b" y1="11.980377" y2="7.90583"/><path d="m0 0h96v96h-96z" fill="#fff"/><g transform="translate(3 4)"><rect fill="url(#c)" height="5.999893" ry=".5" transform="matrix(0 1 1 0 0 0)" width=".9995" x="43" y="74"/><path d="m77.501238 43.977744 2.498528 3.001226-.4971.49661-1.502666-.97558v12.5l-1-.0005-.0001-12.499999-1.478466.974127-.52177-.497111z" fill="url(#a)" stroke-width=".125"/></g><g transform="matrix(1 0 0 -1 3.0001 121.999501)"><rect fill="url(#d)" height="42.001335" ry=".5" transform="matrix(0 1 1 0 0 0)" width=".978244" x="42.9995" y="37.999901"/><path d="m77.501238 43.977744 2.498528 3.001226-.4971.49661-1.502666-.97558-.0001 12.499501-1-.0005v-12.4995l-1.478466.974127-.52177-.497111z" fill="url(#e)" stroke-width=".125"/></g><text font-family="sans-serif" font-size="97.423424" letter-spacing="0" stroke-width="2.435586" transform="scale(.98527695 1.0149431)" word-spacing="0" x="-13.481309" y="75.97448"><tspan font-family="FreeSerif" font-style="italic" stroke-width="2.435586" x="-13.481309" y="75.97448">m</tspan></text><path d="m60.444679 24.136181q3.483623-9.350778 10.084171-9.350778 3.712809 0 6.09634 2.383532 2.383532 2.337694 2.383532 6.004666 0 5.042085-5.225435 9.992497l-7.425617 7.05892h6.921409q3.52946 0 4.537877-.550046 1.008417-.550046 2.016834-3.025251h1.100092l-2.062672 9.671637h-19.068251v-1.054255q7.838151-8.34236 10.405031-12.284354 2.56688-3.987831 2.56688-7.150594 0-2.337694-1.512625-4.079506-1.512626-1.741811-3.941995-1.741811-3.52946 0-5.592131 4.125343z" transform="matrix(.98527691 0 0 1.0149431 -.922475 -.013543)"/></svg>