<svg height="96" viewBox="0 0 96 96" width="96" xmlns="http://www.w3.org/2000/svg" xmlns:xlink="http://www.w3.org/1999/xlink"><linearGradient id="a" gradientTransform="matrix(-.12499998 .0000613 -.0000613 -.12499998 39.005334 70.000605)" gradientUnits="userSpaceOnUse" x1="113.15723" x2="39.268185" xlink:href="#b" y1="25.786163" y2="25.786163"/><linearGradient id="b"><stop offset="0" stop-color="#0968ef"/><stop offset="1" stop-color="#aecffc"/></linearGradient><linearGradient id="c" gradientTransform="matrix(.12499998 .0000613 .0000613 -.12499998 21.020042 69.993905)" gradientUnits="userSpaceOnUse" x1="113.15723" x2="39.268185" xlink:href="#b" y1="25.786163" y2="25.786163"/><linearGradient id="d" gradientUnits="userSpaceOnUse" x1="23" x2="23" xlink:href="#b" y1="64" y2="57"/><linearGradient id="e" gradientUnits="userSpaceOnUse" x1="36" x2="36.5" xlink:href="#b" y1="63.5" y2="55"/><path d="m0 0h96v96h-96z" fill="#fff"/><rect fill="url(#d)" height="10" ry=".5" width="1" x="23" y="59"/><path d="m24.003619 66.507963 3.001226 2.498528.49661-.4971-.97558-1.502666 3.474625-.006725-.0005-1-3.474624.0067.974127-1.478466-.497111-.52177z" fill="url(#a)" stroke-width=".125"/><rect fill="url(#e)" height="11" ry=".5" width="1" x="36" y="58"/><path d="m36.021757 66.501263-3.001226 2.498528-.49661-.4971.97558-1.502666-3.500001-.000025.0005-1h3.5l-.974127-1.478466.497111-.52177z" fill="url(#c)" stroke-width=".125"/><text font-family="sans-serif" font-size="44.22995" letter-spacing="0" stroke-width="1.105749" word-spacing="0" x="2.880633" y="58.512794"><tspan font-family="FreeSerif" font-style="italic" stroke-width="1.105749" x="2.880633" y="58.512794">a</tspan></text><text font-family="sans-serif" font-size="44.22995" letter-spacing="0" stroke-width="1.105749" word-spacing="0" x="72.88063" y="58.512794"><tspan font-family="FreeSerif" font-style="italic" stroke-width="1.105749" x="72.88063" y="58.512794">b</tspan></text><path d="m47 33v10h-10v3h10v10h3v-10h10v-3h-10v-10z"/></svg>