<svg xmlns="http://www.w3.org/2000/svg" viewBox="0 0 24 24">
 <path 
     style="fill:#4d4d4d" 
     d="M 4 4 L 4 5 L 4 6 L 4 19 L 4 20 L 19 20 L 20 20 L 20 6 L 20 5 L 20 4 L 4 4 z M 7 6 L 17 6 L 17 18 L 7 18 L 7 6 z M 5 7 L 6 7 L 6 8 L 5 8 L 5 7 z M 18 7 L 19 7 L 19 8 L 18 8 L 18 7 z M 5 9 L 6 9 L 6 10 L 5 10 L 5 9 z M 18 9 L 19 9 L 19 10 L 18 10 L 18 9 z M 5 11 L 6 11 L 6 12 L 5 12 L 5 11 z M 18 11 L 19 11 L 19 12 L 18 12 L 18 11 z M 5 13 L 6 13 L 6 14 L 5 14 L 5 13 z M 18 13 L 19 13 L 19 14 L 18 14 L 18 13 z M 5 15 L 6 15 L 6 16 L 5 16 L 5 15 z M 18 15 L 19 15 L 19 16 L 18 16 L 18 15 z M 5 17 L 6 17 L 6 18 L 5 18 L 5 17 z M 18 17 L 19 17 L 19 18 L 18 18 L 18 17 z "
     />
 </svg>
