<svg xmlns="http://www.w3.org/2000/svg" viewBox="0 0 24 24">
 <path 
     style="fill:#4d4d4d" 
     d="M 12 4 C 11.027093 7.405 8.6455541 10.332281 7.5957031 12.675781 C 7.2282991 13.372581 7 14.1546 7 15 C 7 17.77 9.229998 20 12 20 C 14.770002 20 17 17.77 17 15 C 17 14.1546 16.771701 13.372581 16.404297 12.675781 C 15.354447 10.332281 12.972897 7.405 12 4 z M 14.283203 11.716797 C 15.3209 12.437997 16 13.6351 16 15 C 16 17.216 14.216002 19 12 19 C 10.635043 19 9.4379979 18.321003 8.7167969 17.283203 C 9.3638449 17.732903 10.148916 18 11 18 C 13.216002 18 15 16.216 15 14 C 15 13.1489 14.732907 12.363797 14.283203 11.716797 z "
     />
 </svg>
