<svg viewBox="0 0 24 24" xmlns="http://www.w3.org/2000/svg">
  <path
     style="fill:#1d99f3"
     d="M 9 5 L 10.15625 6.15625 L 8.3125 8 L 9 8 L 9.6875 8 L 10.84375 6.84375 L 12 8 L 12 5 L 9 5 z M 12 16 L 10.84375 17.15625 L 9.9042969 16.216797 L 9.2167969 16.904297 L 10.15625 17.84375 L 9 19 L 12 19 L 12 16 z "
     />
  <path
     style="fill:#4d4d4d"
     d="M 13 4 L 13 8.8789062 L 14 7.8789062 L 14 5 L 16.878906 5 L 17.878906 4 L 13 4 z M 19.292969 4 L 4 19.292969 L 4.7070312 20 L 20 4.7070312 L 19.292969 4 z M 20 6.1210938 L 19 7.1210938 L 19 9 L 17.121094 9 L 16.121094 10 L 20 10 L 20 6.1210938 z M 4 9 L 4 15 L 6.8789062 15 L 7.8789062 14 L 5 14 L 5 10 L 10 10 L 10 11.878906 L 11 10.878906 L 11 9 L 4 9 z M 13 14 L 13 20 L 20 20 L 20 14 L 13 14 z M 14 15 L 19 15 L 19 19 L 14 19 L 14 15 z "
     />
</svg>
