<svg xmlns="http://www.w3.org/2000/svg" viewBox="0 0 24 24">
 <path 
     style="fill:#4d4d4d" 
     d="M 18 4 L 4 8 L 10.21875 18.71875 L 10.40625 19 L 10.96875 20 L 12.15625 20 L 11.59375 19 L 11.40625 18.71875 L 5.53125 8.625 L 16.59375 5.4375 L 15.03125 11.75 L 14.9375 12.125 L 15.09375 12.4375 L 15.875 14 L 17 14 L 16 12 L 18 4 z "
     />
 <path 
     style="fill:#1d99f3" 
     d="M 17.5 15 C 16.115 15 15 16.115 15 17.5 C 15 17.9334 15.120005 18.3328 15.3125 18.6875 L 16.0625 17.9375 C 16.021475 17.8004 16 17.6508 16 17.5 C 16 16.669 16.669 16 17.5 16 C 17.650791 16 17.800406 16.0215 17.9375 16.0625 L 18.6875 15.3125 C 18.332855 15.1201 17.933427 15 17.5 15 z M 19.6875 16.3125 L 18.9375 17.0625 C 18.97853 17.1996 19 17.3492 19 17.5 C 19 18.331 18.331 19 17.5 19 C 17.349209 19 17.199594 18.9785 17.0625 18.9375 L 16.3125 19.6875 C 16.667145 19.8799 17.066573 20 17.5 20 C 18.885 20 20 18.885 20 17.5 C 20 17.0666 19.879995 16.6672 19.6875 16.3125 z "
     />
 </svg>
