<svg viewBox="0 0 24 24" xmlns="http://www.w3.org/2000/svg">
  <path
     style="fill:#4d4d4d"
     d="M 5 4 L 5 5 L 5 18 L 6 18 L 8 18 L 9 18 L 9 19 L 9 20 L 14 20 L 14 19 L 10 19 L 10 8 L 18 8 L 18 14 L 19 14 L 19 8 L 19 7 L 17 7 L 17 4 L 16 4 L 6 4 L 5 4 z M 6 5 L 16 5 L 16 7 L 9 7 L 9 8 L 9 17 L 8 17 L 6 17 L 6 5 z "
     />
  <path
     style="fill:#1d99f3"
     d="m 17.5625,15.0625 c -0.433427,0 -0.832855,0.1201 -1.1875,0.3125 l 0.75,0.75 c 0.137094,-0.041 0.286709,-0.0625 0.4375,-0.0625 0.831,0 1.5,0.669 1.5,1.5 0,0.1508 -0.02148,0.3004 -0.0625,0.4375 l 0.75,0.75 c 0.192495,-0.3547 0.3125,-0.7541 0.3125,-1.1875 0,-1.385 -1.115,-2.5 -2.5,-2.5 z M 15.375,16.375 c -0.192495,0.3547 -0.3125,0.7541 -0.3125,1.1875 0,1.385 1.115,2.5 2.5,2.5 0.433427,0 0.832855,-0.1201 1.1875,-0.3125 L 18,19 c -0.137094,0.041 -0.286709,0.0625 -0.4375,0.0625 -0.831,0 -1.5,-0.669 -1.5,-1.5 0,-0.1508 0.02147,-0.3004 0.0625,-0.4375 z"
     />
</svg>
