<?xml version="1.0" encoding="UTF-8" standalone="no"?>
<!-- Created with Inkscape (http://www.inkscape.org/) -->

<svg
   xmlns:dc="http://purl.org/dc/elements/1.1/"
   xmlns:cc="http://creativecommons.org/ns#"
   xmlns:rdf="http://www.w3.org/1999/02/22-rdf-syntax-ns#"
   xmlns:svg="http://www.w3.org/2000/svg"
   xmlns="http://www.w3.org/2000/svg"
   xmlns:sodipodi="http://sodipodi.sourceforge.net/DTD/sodipodi-0.dtd"
   xmlns:inkscape="http://www.inkscape.org/namespaces/inkscape"
   id="svg7384"
   height="24"
   width="24"
   version="1.1"
   inkscape:version="0.91 r13725"
   sodipodi:docname="lc_diagramtype.svg"
   inkscape:export-filename="/home/uri/Descargas/NITRUX-KDE/NITRUX-KDE/16x16/actions/view-preview.png"
   inkscape:export-xdpi="30"
   inkscape:export-ydpi="30">
  <defs
     id="defs9" />
  <sodipodi:namedview
     pagecolor="#ffffff"
     bordercolor="#666666"
     borderopacity="1"
     objecttolerance="10"
     gridtolerance="10000"
     guidetolerance="10"
     inkscape:pageopacity="0"
     inkscape:pageshadow="2"
     inkscape:window-width="1920"
     inkscape:window-height="1021"
     id="namedview7"
     showgrid="true"
     inkscape:zoom="16.5"
     inkscape:cx="12.314364"
     inkscape:cy="7.2758917"
     inkscape:window-x="-4"
     inkscape:window-y="0"
     inkscape:window-maximized="1"
     inkscape:current-layer="svg7384"
     inkscape:showpageshadow="false"
     borderlayer="true"
     fit-margin-top="0"
     fit-margin-left="0"
     fit-margin-right="0"
     fit-margin-bottom="0"
     inkscape:snap-global="true"
     inkscape:snap-bbox="true"
     inkscape:object-nodes="true">
    <sodipodi:guide
       position="3,21"
       orientation="18,0"
       id="guide4064" />
    <sodipodi:guide
       position="3,3"
       orientation="0,18"
       id="guide4066" />
    <sodipodi:guide
       position="21,3"
       orientation="-18,0"
       id="guide4068" />
    <sodipodi:guide
       position="21,21"
       orientation="0,-18"
       id="guide4070" />
    <sodipodi:guide
       position="4,20"
       orientation="16,0"
       id="guide4072" />
    <sodipodi:guide
       position="4,4"
       orientation="0,16"
       id="guide4074" />
    <sodipodi:guide
       position="20,4"
       orientation="-16,0"
       id="guide4076" />
    <sodipodi:guide
       position="20,20"
       orientation="0,-16"
       id="guide4078" />
    <inkscape:grid
       type="xygrid"
       id="grid4080"
       originx="1px"
       originy="1px" />
  </sodipodi:namedview>
  <metadata
     id="metadata90">
    <rdf:RDF>
      <cc:Work
         rdf:about="">
        <dc:format>image/svg+xml</dc:format>
        <dc:type
           rdf:resource="http://purl.org/dc/dcmitype/StillImage" />
        <dc:title>Gnome Symbolic Icon Theme</dc:title>
      </cc:Work>
    </rdf:RDF>
  </metadata>
  <title
     id="title9167">Gnome Symbolic Icon Theme</title>
  <path
     style="opacity:1;fill:#4d4d4d;fill-opacity:1;stroke:none;stroke-width:8;stroke-linecap:square;stroke-miterlimit:4;stroke-dasharray:none;stroke-opacity:1"
     d="m 4,12 0,1 0,3 0,1 0,3 0,1 1,0 10,0 0,-1 0,-7 0,-1 -10,0 -1,0 z m 1,1 4,0 0,3 -4,0 0,-3 z m 5,0 4,0 0,3 -4,0 0,-3 z m -5,4 4,0 0,3 -4,0 0,-3 z m 5,0 4,0 0,3 -4,0 0,-3 z"
     id="rect4144"
     inkscape:connector-curvature="0" />
  <path
     style="opacity:1;fill:#4d4d4d;fill-opacity:1;stroke:none;stroke-width:8;stroke-linecap:square;stroke-miterlimit:4;stroke-dasharray:none;stroke-opacity:1"
     d="M 13 4 C 12.770604 4.0002071 12.544548 4.0112609 12.320312 4.0332031 A 7 7 0 0 0 12.130859 4.0605469 C 11.977566 4.0798015 11.824082 4.0998531 11.673828 4.1289062 A 7 7 0 0 0 11.376953 4.1972656 C 11.260202 4.2252026 11.143807 4.2533805 11.029297 4.2871094 A 7 7 0 0 0 10.724609 4.3886719 C 10.619731 4.4248965 10.514747 4.4609302 10.412109 4.5019531 A 7 7 0 0 0 10.111328 4.6308594 C 10.006447 4.678595 9.9028954 4.7285403 9.8007812 4.78125 A 7 7 0 0 0 9.515625 4.9355469 C 9.4301613 4.9848004 9.3468603 5.0371077 9.2636719 5.0898438 A 7 7 0 0 0 8.9414062 5.3027344 C 8.8865022 5.3419327 8.8349778 5.3850367 8.78125 5.4257812 A 7 7 0 0 0 8.421875 5.7109375 A 7 7 0 0 0 7.5703125 6.5898438 A 7 7 0 0 0 7.2773438 6.984375 C 7.2478515 7.0263965 7.216093 7.0666625 7.1875 7.109375 A 7 7 0 0 0 6.9316406 7.5273438 C 6.9078611 7.5689049 6.8842823 7.6102337 6.8613281 7.6523438 A 7 7 0 0 0 6.6484375 8.0761719 C 6.6216659 8.1344049 6.5955363 8.1928314 6.5703125 8.2519531 A 7 7 0 0 0 6.4082031 8.6699219 C 6.3858597 8.733301 6.364329 8.7970776 6.34375 8.8613281 A 7 7 0 0 0 6.2128906 9.3183594 C 6.2023602 9.3610341 6.1933504 9.4042635 6.1835938 9.4472656 A 7 7 0 0 0 6.0800781 9.9921875 C 6.0796889 9.9948627 6.0785113 9.9973237 6.078125 10 A 7 7 0 0 0 6 11 L 7 11 A 6 6 0 0 1 7.0898438 10 A 6 6 0 0 1 7.0898438 9.9980469 C 7.1488652 9.6495403 7.2405745 9.3138256 7.3554688 8.9902344 A 6 6 0 0 1 7.3808594 8.9199219 C 7.4971921 8.6049025 7.6365221 8.3019242 7.8007812 8.015625 A 6 6 0 0 1 7.8242188 7.9765625 C 8.1651889 7.392679 8.6016559 6.8753532 9.109375 6.4414062 A 6 6 0 0 1 9.1464844 6.4082031 C 9.391676 6.2021305 9.654088 6.0164387 9.9296875 5.8515625 A 6 6 0 0 1 10.03125 5.7949219 C 10.304719 5.63845 10.589341 5.5010497 10.886719 5.3886719 A 6 6 0 0 1 10.966797 5.3613281 C 11.261286 5.254789 11.566176 5.171019 11.878906 5.1113281 A 6 6 0 0 1 11.943359 5.0957031 C 12.287166 5.0340536 12.640298 5.0003552 13 5 L 13 10 L 13 11 L 19 11 C 18.999683 11.207791 18.986378 11.414507 18.964844 11.619141 A 6 6 0 0 1 18.9375 11.802734 C 18.918121 11.944398 18.898445 12.085298 18.869141 12.224609 A 6 6 0 0 1 18.800781 12.492188 C 18.773222 12.598588 18.74814 12.70601 18.714844 12.810547 A 6 6 0 0 1 18.623047 13.0625 C 18.581136 13.176246 18.54088 13.291403 18.492188 13.402344 A 6 6 0 0 1 18.398438 13.595703 C 18.339717 13.717432 18.279763 13.837477 18.212891 13.955078 A 6 6 0 0 1 18.107422 14.126953 C 18.035842 14.243525 17.962416 14.359006 17.882812 14.470703 A 6 6 0 0 1 17.742188 14.65625 C 17.668449 14.751654 17.593354 14.846363 17.513672 14.9375 A 6 6 0 0 1 17.308594 15.15625 C 17.235101 15.232275 17.161797 15.308463 17.083984 15.380859 A 6 6 0 0 1 16 16.1875 L 16 17.314453 A 7 7 0 0 0 17 16.724609 L 17 16.742188 C 17.052117 16.705898 17.097496 16.662561 17.148438 16.625 A 7 7 0 0 0 17.34375 16.46875 C 17.476719 16.363164 17.610285 16.258667 17.734375 16.144531 C 18.035023 15.868 18.305282 15.565071 18.550781 15.244141 A 7 7 0 0 0 18.683594 15.070312 C 18.775021 14.942736 18.858886 14.810941 18.941406 14.677734 A 7 7 0 0 0 19.099609 14.412109 C 19.168408 14.28925 19.23365 14.165846 19.294922 14.039062 A 7 7 0 0 0 19.449219 13.691406 C 19.496881 13.577321 19.54433 13.464266 19.585938 13.347656 A 7 7 0 0 0 19.714844 12.935547 C 19.746236 12.8268 19.782455 12.719804 19.808594 12.609375 A 7 7 0 0 0 19.945312 11.861328 C 19.94909 11.830956 19.949743 11.799987 19.953125 11.769531 A 7 7 0 0 0 20 11 A 7 7 0 0 0 19.962891 10.289062 A 7 7 0 0 0 19.962891 10.285156 C 19.939669 10.056494 19.906023 9.8309919 19.861328 9.609375 A 7 7 0 0 0 19.857422 9.5898438 C 19.764176 9.1341606 19.626328 8.6941248 19.449219 8.2753906 C 19.448879 8.2745862 19.447606 8.2742417 19.447266 8.2734375 C 19.355987 8.0578576 19.254204 7.8484245 19.142578 7.6445312 A 7 7 0 0 0 19.132812 7.6308594 C 19.025149 7.4353216 18.910402 7.244118 18.785156 7.0605469 A 7 7 0 0 0 18.685547 6.9257812 C 18.583518 6.7836611 18.479324 6.6436497 18.367188 6.5097656 A 7 7 0 0 0 18.203125 6.328125 C 18.109183 6.2235767 18.016017 6.1182468 17.916016 6.0195312 A 7 7 0 0 0 17.703125 5.8261719 C 17.598625 5.7311178 17.494895 5.6355433 17.384766 5.546875 A 7 7 0 0 0 17.212891 5.4179688 C 17.088463 5.3239074 16.962743 5.2322279 16.832031 5.1464844 A 7 7 0 0 0 16.597656 5.0039062 C 16.482714 4.9347827 16.367162 4.8672717 16.248047 4.8046875 A 7 7 0 0 0 15.988281 4.6777344 C 15.861366 4.617627 15.734484 4.558418 15.603516 4.5058594 A 7 7 0 0 0 15.388672 4.4277344 C 15.240588 4.3738867 15.092007 4.3212866 14.939453 4.2773438 A 7 7 0 0 0 14.703125 4.2167969 C 14.567019 4.1827064 14.43015 4.1509899 14.291016 4.125 A 7 7 0 0 0 13.943359 4.0722656 C 13.83365 4.0574338 13.724543 4.0409374 13.613281 4.03125 A 7 7 0 0 0 13 4 z "
     id="path4182" />
</svg>
