<svg viewBox="0 0 24 24" xmlns="http://www.w3.org/2000/svg"><path d="m4 4v1 14 1h15 1v-16h-1zm1 1h2v3 1h-1.0996094-.9003906zm3 0h1 1 1 2 1 1 1v3 1h-1v1h1v4h-1v1h1v4h-1-1-1-2-1-1-1v-4h1v-1h-1v-4h1v-1h-1v-1zm9 0h2v4h-1-1v-1zm-12 5h2v4h-2zm12 0h1 1v4h-1-1zm-12 5h2v4h-2zm12 0h1 1v4h-2v-3z" fill="#4d4d4d"/><path d="m9 5v14h1v-.292969l4-4v4.292969h1v-5.292969-3.9999998-4-.7070312h-.707031-.292969v.2929688l-4 4v-4.2929688zm5 1.7070312v2.5859376l-4 4.0000002v-2.585938zm0 3.9999998v2.585938l-4 4v-2.585938z" fill="#da4453"/></svg>