<svg xmlns="http://www.w3.org/2000/svg" viewBox="0 0 24 24">
 <path 
     style="fill:#4d4d4d" 
     d="M 6 4 L 5 5 L 5 6 L 5 6.3046875 L 9.03125 12 L 10.255859 12 L 6 5.9882812 L 6 5 L 18 5 L 18 5.9882812 L 13.744141 12 L 14.96875 12 L 19 6.3046875 L 19 5 L 18 4 L 6 4 z M 7 6 L 9 9 L 9 7 L 11 6 L 7 6 z M 20 9 L 18 11 L 20 13 L 20 9 z M 4 12 L 4 13 L 6 13 L 6 12 L 4 12 z M 7 12 L 7 13 L 9 13 L 9 12 L 7 12 z M 11 12 L 11 13 L 13 13 L 13 12 L 11 12 z M 13 13 L 13 13.048828 L 13 14 L 13 18.019531 L 11 16.535156 L 11 14 L 11 13.048828 L 11 13 L 10.964844 13 L 9.7402344 13 L 10 13.367188 L 10 17 L 10 17.039062 L 13.990234 20 L 14 20 L 14 13.367188 L 14.259766 13 L 13.035156 13 L 13 13 z M 15 12 L 15 13 L 17 13 L 17 12 L 15 12 z "
     />
 </svg>
