<svg viewBox="0 0 24 24" xmlns="http://www.w3.org/2000/svg"><path d="m5 3.9980469v16.0000001.001953h1 6v-1.001953h-6v-14.0000001h8v3 1h4v3.0019531h1v-2.59375-1.40625-.0097656l-3.992188-3.9921875-.007812.0097656v-.0097656h-1-8zm11 8.0019531c-2.20914 0-4 1.790867-4 4s1.79086 4 4 4 4-1.790867 4-4-1.79086-4-4-4zm0 .666016c.11506 0 .221924.010154.333984.021484h.082032c.03507.0067.07074.014201.105468.019531.09577.01533.176718.041123.269532.064453.171066.042.34048.09848.5.166016.08795.03733.1661.0806.25.125-.000047.0067.000533.012201 0 .019531.01933.0087.0299.046453.0625.064453.012.0067.010224.013532.021484.019532.01933.01067.045016.022355.041016.041015-.0053.02667-.04383.021016-.0625.041016.0027.03867-.031016.038453-.041016.064453.006.01667.038346.021676.041016.041016-.0033.02133-.049016.019685-.041016.041015.036.028.06952.0067.103516 0 .07466-.0093.1415-.006305.1875-.041015-.006-.03533.0665-.0305.0625-.0625.01913.014.04357.027015.0625.041015-.0072.0067-.011532.016201-.019532.019531-.014.006701-.030298.013485-.042968.021485-.01867.012-.04117.027685-.0625.041015-.01533.01067-.0465.0625-.0625.0625-.01933 0-.0485-.023531-.0625-.019531-.02.0067-.018416.033676-.041016.041016-.044.016-.131158-.024314-.146484.041015.01867.038001.09167.020346.125.041016.02067.01333.05723.061325.0625.083984.0053.018671.008.105 0 .125-.02067.053341-.0832.041676-.144532.041016h-.042968c-.10332-.0067-.203334-.052515-.25.021484.0033.056671.01267.0952 0 .144532-.0093.036-.0645.074401-.0625.105468.000666.016001.038968.03983.042968.0625.0027.012001-.0053.029676 0 .041016.01733.03267.051372-.0067.082032 0 .02933.0067.0625.049361.0625.082031 0 .02333-.004702.061315-.019532.083985-.02933.044-.083.0385-.125.0625-.03467.02-.04183.07107-.0625.105468-.022.037341-.051638.04998-.042968.103516-.03.05933-.063.09633-.125.125-.018.008-.0459.007501-.0625.019531-.01333.0093-.022346.043123-.041016.064453-.02333.026-.04983.042501-.0625.0625-.0093.015341-.011554.04117-.021484.0625-.01467.028001-.0439.034501-.0625.0625-.0087.01333-.010272.045171-.019532.0625-.02133.03867-.046968.06952-.042968.103516.0033.032.040968.03317.042968.0625.002.016-.022154.023676-.021484.041016.000667.02533.019554.044453.021484.064453.0047.04933-.033638.069781-.042968.103515-.0047.016001.004.028346 0 .041016-.008.02467-.040346.054655-.041016.083984-.000667.020671.039016.03317.041016.0625.0013.019331-.023532.04383-.019532.0625.0073.036.07552.07552.103516.103516.038.038.08686.06527.103516.105469.014.034.016968.0996.042968.125.01933.01867.057372.021675.082032.041015.02333.018001.0379.021676.0625.041016.04067.032.103302.108182.167968.103516.034-.0067.06548-.035016.103516-.041016.03933-.0067.08501-.024824.125-.021484.03067.0067.07152.023484.103516.021484.03333-.0067.0675-.007504.105468-.021484.066-.02867.173545-.07617.269532-.0625.07333.01067.07367.09233.125.125.05867.0067.09982-.01133.146484 0 .03533.0087.080654.055984.083984.083984.0033.02867-.038968.065985-.042968.083984-.0093.03867.0067.07885 0 .103516-.0053.01933-.020202.04317-.019532.0625 0 .01733.023016.061325.041016.083984.022.028.057324.052032.083984.082032.04867.056.06952.1135.103516.1875.0087.01867-.008.040453 0 .064453-.01467.111933-.05167.188567-.125.3125-.03467.04-.084654.07507-.083984.125-.0027.12.06787.1965.0625.3125-.012.155933.012.166733 0 .25.05267.02667.01533.110615 0 .166015-.02267.066-.04983.081-.0625.125.0354.01534.08568.0093.125 0-.01987.02067-.04217.041831-.0625.0625-.150807.150802-.322667.296149-.5.416016-.344027.2324-.725372.408933-1.144532.5-.229026.05-.465057.0625-.708984.0625-.126887 0-.252087-.005501-.375-.019531-.09791-.01133-.195876-.021676-.291016-.041016-.18878-.03867-.367282-.118433-.542968-.1875-.006-.01133-.021002-.029629-.019532-.042969.03467-.014669.09967.04933.125 0 .01267-.02333-.01667-.08018 0-.103515.012-.016.07886-.014871.103516-.019531.03533-.0067.08547-.012155.105469-.021485.022-.014.045025-.06265.041015-.103515-.002-.01933-.025755-.025639-.041015-.042969-.01267-.01467.0087-.027676 0-.041016-.016-.02333-.0559-.0285-.0625-.0625.048-.0093.118173.040825.1875.021485.03267-.0093.08818-.07278.103515-.103516.0047-.0093-.0053-.030969 0-.042969.006-.012.019485-.035015.021485-.041015.0047-.018-.004-.007502 0-.019532.012-.034.040547-.059984.060547-.083984.01533-.01867.0485-.04317.0625-.0625.016-.02067.010884-.022346.021484-.041016.01-.06067-.036154-.114702-.021484-.167968.016-.06.109975-.09767.167968-.125.02-.0093.0459-.013532.0625-.019532.04-.014.08767-.028345.125-.041015.06267-.02267.07285-.06773.103516-.125.01467-.02667.038346-.064655.041016-.083985.0027-.01733-.0033-.021015 0-.041015.0033-.01933-.0053-.03983 0-.0625.0073-.02867.021484-.09307.021484-.125 0-.02667-.020884-.0385-.021484-.0625-.0047-.08667.03057-.07767.0625-.125.016-.02333.031698-.067325.042968-.083985.054-.08.151198-.107182.144532-.228515-.0027-.04-.03323-.133818-.0625-.146485-.01667-.0073-.0379-.012824-.0625-.021484-.07866-.02933-.146523-.118333-.228516-.125h-.041016c-.032 0-.06947-.014871-.105468-.019531-.02267-.0067-.068702.0067-.082032 0-.02067-.01-.026298-.05117-.042968-.0625-.01333-.0093-.0419-.014155-.0625-.021485-.03267-.012-.044032-.039015-.082032-.041015-.012 0-.029628.0067-.042968 0-.02067-.0067-.041277-.009505-.060547-.021485-.024-.01467-.05257-.020345-.0625-.041015.022-.07193-.0479-.083-.0625-.125-.0067-.01933.0067-.064701 0-.082031-.0087-.024671-.03523-.043794-.0625-.064454-.048-.03733-.07782-.05383-.146485-.0625-.03067-.0067-.06685.0067-.103515 0-.03867-.0067-.09567-.02917-.125-.0625-.028-.03267-.0379-.066631-.0625-.082031-.02333-.01467-.0465-.028299-.0625-.042969-.0073-.0067-.014815-.005501-.021485-.019531-.012-.02467-.036154-.0325-.021484-.0625-.02667-.01333-.012346.024201-.041016.019531-.026-.03667-.04488-.07303-.103515-.0625-.02667.0067-.052645.06183-.083985.0625-.026 0-.049984-.05717-.083984-.0625-.026-.0067-.064031.024815-.082031.021485-.02867-.0067-.03657-.023676-.0625-.041016-.01933-.01267-.05183-.041685-.0625-.041015-.03333 0-.0595.065685-.105469.041015-.02267-.02867.048224-.03583.021484-.0625-.02-.01933-.025015.010201-.041015.019531-.01867.012-.0419.014145-.0625.021485-.046.01733-.08901.022355-.125.041015-.03333.01733-.04323.0285-.0625.0625-.01533.028-.03923.082645-.0625.083985-.028 0-.03717-.029676-.0625-.041016-.07666-.03333-.124174.018201-.1875.019531-.05867 0-.149151-.09115-.146485-.146484.002-.034.017545-.083.021485-.125.0033-.03333.040425-.07312.041015-.103516.000667-.04133-.07685-.05783-.103515-.0625-.06267-.01133-.137658.028-.208985 0-.01333-.02267.013545-.03983.021485-.0625.0047-.012-.0047-.027685 0-.041015.008-.02133.05257-.03983.0625-.0625.0073-.01733-.0073-.0405 0-.0625.0087-.024.039025-.04517.041015-.0625.0027-.02267-.023085-.049793-.041015-.064453-.05533.0067-.093.007504-.125.021484-.07199.03267-.05233.123818-.125.146484-.02467.008-.055975.014872-.083985.019532-.0122.0067-.027355 0-.041015 0 .0013-.0067-.0013-.012872 0-.019532.0033-.01533.016261-.026355.019531-.041015.04753-.216667.121578-.4264.208984-.625h.021485c.02533.0067.0405.039685.0625.041015.06133.0067.07433-.057324.125-.083984.052.0073.07767-.0067.125 0 .032.0067.07819.038346.103515.041016.02133 0 .021016-.022202.041016-.019532.02.0067.05923.0385.0625.0625.0033.03-.028261.07045-.019531.103516.03133.032.09986.04383.144531.0625.02933-.02467.0047-.06885 0-.103516-.000667-.01533.002-.0485 0-.0625-.0033-.024-.019531-.04183-.019531-.0625 0-.09533.08054-.130702.144531-.167968.02733-.016.059984-.0505.083984-.0625.034-.01667.055985-.005502.083985-.019532.05067-.02867.08567-.073.125-.105468.018-.04333-.002-.101865 0-.144532.018-.01133.04323 0 .0625 0 .03067-.0067.04517-.04517.0625-.0625.01-.01.029025-.011484.041015-.021484.03067-.024.03583-.05183.0625-.0625.0093-.0067.026346-.016824.041016-.021484.02-.0067.051984-.007502.083984-.019532.02067-.0073.075985-.012824.083985-.021484.01-.01-.0027-.04717 0-.0625.016-.07527.120173-.07812.1875-.103516.04667-.01733.09253-.0717.144531-.0625-.01.036-.049676.038702-.041016.082032.01133.06067.08218-.010872.103516-.019532.04067-.01733.114635-.0425.167969-.0625.04667-.01667.126025-.029984.082031-.083984-.03667-.0067-.050031.028346-.082031.041016-.022.0067-.024299-.017532-.042969-.019532-.018 0-.023016.022872-.041016.019532-.018-.0067-.038355-.0405-.041015-.0625-.0073-.056.0399-.06198.0625-.103516-.01533-.05067-.08234-.021676-.125-.041016.0047-.03.02723-.057793.0625-.064453.02867-.0067.107666.007495.125.021485.01.0087-.01527.027685 0 .041015.01733.01533.0399.0067.0625 0 .008-.038-.049639-.016355-.042969-.041015.04533-.02933.132173-.014145.1875-.021485.032-.0067.0768-.025685.105469-.041015.02667-.01533.0345-.044872.0625-.019532.008.02733-.005995.04783-.021485.0625-.05133.04533-.106491.09193-.146484.144532.02467.024.0641.016824.105469.021484.016.0067.0459 0 .0625 0 .02.0067.044547-.0067.060547 0 .028.0067.03457.0625.0625.0625.04533 0 .026-.053984 0-.083984.008-.03133.032884-.060032.021484-.082032-.02067-.04133-.09952.012315-.103516-.041015-.0027-.03333.029016-.03717.041016-.0625-.0053-.064.047676-.067.041016-.125-.0033-.024-.024346-.020299-.041016-.042969-.0087-.012-.011554-.05317-.021484-.0625-.03467-.02933-.09952-.0065-.103516-.0625-.002-.03333.0047-.06778 0-.103516-.0047-.034-.03323-.139817-.0625-.146484-.03733-.008-.05882.063324-.103516.083984-.024.01133-.08081.023532-.105468.019532-.016-.0067-.039016-.009696-.041016-.041016-.0027-.028.030616-.0405.041016-.0625.0027-.0067-.0013-.012201 0-.019531.0484-.01333.0973-.031639.146484-.042969.02793-.0067.055784-.014201.083984-.019531.01993-.0067.0425.0067.0625 0 .08903-.01667.178165-.032346.269532-.041016.110826-.01133.219917-.021484.333984-.021484zm-1.353516.3125c-.0212.121666-.135817.171435-.271484.167968-.03067.02933-.004704.08433-.021484.125-.014.034-.06952.06517-.103516.0625-.02467 0-.0625-.03917-.0625-.0625 0-.02867.046224-.02983.021484-.0625.0013-.0067.012602-.014824.019532-.021484.01347-.0087.029368-.013484.042968-.021484.1208-.07433.24464-.128834.375-.1875zm2.791016.125c-.01227.0067-.010684.014824-.021484.021484-.02533.01533-.04317.034346-.0625.041016-.02733.01-.05857.016355-.0625.041015-.0033.02067.022224.022346.021484.041016-.01.02467-.016154.034453-.021484.064453.034.05533.104491-.012824.146484-.021484.01867-.0067.031016-.007495.041016-.021485.01133-.018.012884-.03717.021484-.0625.0093-.028.044346-.03783.041016-.0625-.0027-.02467-.06222-.044355-.103516-.041015zm-3.646484.417968c.0316.02533.076724.07978.021484.103516-.0067.0067-.08752.024154-.103516.021484-.0067 0-.015884-.016824-.021484-.021484.03447-.03333.06766-.07152.103516-.103516zm.125.125c.016 0 .024298.040346.042968.041016.018 0 .030346-.024154.041016-.021484.028.0073.048224.063324.021484.083984-.022.0067-.026968-.024154-.042968-.021484-.04533.008-.06952.108135-.103516.105468-.032-.0067-.054224-.08213-.021484-.105468.000666-.02-.0013-.020346 0-.041016.01-.012.03583-.043016.0625-.041016zm-.166016.019532c.0093 0 .018224-.0067.021484 0-.0047.03533-.015628.04583-.042968.0625-.04733.02867-.08818.064-.103516.125-.0047.018-.061324.06677-.083984.0625-.05267-.01133.030968-.109734.042968-.125.01333-.01667.025676-.022346.041016-.041016.01533-.01867.026346-.05183.041016-.0625.016-.01133.055984-.020871.083984-.019531zm4.521484.105468c.05267-.0067.07952.050032.103516.082032.02.026.07085.065984.103516.083984.01867.01.04183.032346.0625.041016.04333.01933.123.08233.125.125.000666.02133-.022932.0425-.019532.0625.03267.0067.06183-.049372.0625-.082032.06127.08667.113083.177132.166016.269532.025.04333.060924.08.083984.125-.0294.0087-.038238.013015-.042968.041015-.0067.03733.014984.09887-.041016.105469-.03533.0067-.07634-.029676-.125-.041016-.02-.0067-.0465.0067-.0625 0-.03667-.012-.03123-.061984-.0625-.083984-.018-.01267-.07485-.038346-.103516-.041016-.018 0-.024298.0067-.042968 0-.02267-.0067-.063362.0093-.082032 0-.018-.01133-.05783-.04717-.0625-.0625-.0073-.02467.06117-.04117.0625-.0625.0013-.016-.018224-.039793-.021484-.064453-.0027-.01467.0033-.031025 0-.041015-.0047-.01733-.03523-.018872-.0625-.019532h-.0625-.125-.0625c-.058.0067-.101151-.0067-.146484 0-.03267 0-.09433.027676-.125.041016-.01533.0073-.021016.009501-.041016.019531-.0093.0067-.029016.016145-.041016.021485-.01867.0087-.04457.035685-.0625.041015-.026.0067-.05817-.0067-.105468 0-.034 0-.081362-.02183-.082032-.0625-.000666-.062.107356-.029685.166016-.041015.022-.0067.03583-.025016.0625-.041016.01267-.0073.009604-.013484.021484-.021484.02-.014.05923-.0465.0625-.0625.0027-.01467-.002-.029676 0-.041016.0027-.014.023016-.022346.041016-.041016.028-.028.049324-.065984.083984-.083984.02333-.012.05183-.022346.0625-.041016.0027-.02133-.000666-.021015 0-.041015.01467-.01333.029016-.018815.041016-.021485.036-.008.06155 0 .103516 0 .018 0 .04323.0087.0625 0 .016-.01067.026968-.033685.042968-.041015.01733-.0093.04117-.020145.0625-.021485zm.375.394532h-.083984c-.02933 0-.066654-.01533-.083984 0 .02467.04.06967.0525.125.0625.02-.01467.033638-.0365.042968-.0625zm-4.5625-.375h.0625c.01667 0 .034346-.0067.041016 0-.01067.044-.111818.037484-.146484.021484.002-.01667.021628-.018824.042968-.021484zm-.146484.083984c-.02913.02133-.05728.04783-.103516.0625-.02533.008-.05783.006496-.0625-.021484-.0053-.03467.03983-.016202.0625-.019532.02933-.0067.06952-.020154.103516-.021484zm4.333984 0c-.022.0073-.03267.05583 0 .0625.01533-.0093.023602-.03383.019532-.0625-.0087-.0093-.012932-.0067-.019532 0zm-.042968.103516c.000666.03733.0073.07307 0 .105468.02133.04133.073324.006496.083984-.021484.01267-.06933-.008996-.092654-.041016-.083984-.01067.0067-.031698-.0087-.042968 0zm-5.519532 1.5625c.0376.034.05855.0832.103516.105468.01667.0087.04123.014202.0625.019532.01733.0067.024346-.0067.041016 0 .03533.012.07747.028355.105468.041015.04267.01867.08833.08414.125.105469.002.02133-.0067.0465 0 .0625.01733.02333.0345.0465.0625.0625.034.01867.050032.04783.082032.0625.01133.0067.025628-.0067.042968 0 .044.01333.06548.07357.103516.0625.02467-.0073.017554-.0385.021484-.0625.01667-.018.0365-.041016.0625-.041016.04133 0 .04717.06332.0625.103516.0087.02267.035016.0385.041016.0625.01.04133.0087.162833 0 .1875-.01067.03067-.058654.0285-.083984.0625-.012.016-.010272.05117-.019532.0625-.016.01933-.030968.024969-.042968.042969-.0067.01-.013602.027675-.019532.041015-.02.04267-.059628.07367-.042968.125.0067.02067.042968.03783.042968.0625 0 .02933-.05783.051985-.0625.083985-.0033.02333.012272.050701.019532.082031.0053.02333.0485.04717.0625.0625.02333.026.04123.07247.0625.105469.042.06467.06417.143698.105468.207031.022.03267.067372.049324.082032.083984.0073.01733-.0067.0465 0 .0625.024.054.133506.119885.1875.146485.02533.01267.060654.006201.083984.019531.03533.02.107007.0744.125.105469.016.028.013554.09993.021484.144531.01.05867-.0027.104569 0 .167969.002.03467.019532.047361.019532.082031 0 .012.000666.04983 0 .0625-.000667.04133.0033.083 0 .125-.002.02267-.0013.04317 0 .0625.002.02067.020224.024969.021484.042969.0013.01933-.023554.04717-.021484.0625.0047.042.034968.06465.042968.103515.0067.03067.023532.109818.019532.146485-.0027.01933-.016872.0405-.019532.0625-.002.01733.0027.025675 0 .041015-.002.01533.004.028346 0 .041016-.02127-.01333-.04163-.027016-.0625-.041016-.177333-.119866-.349193-.265215-.5-.416015-.0204-.02067-.04263-.043123-.0625-.064453-.120382-.126726-.234557-.271549-.333984-.416016-.009-.01333-.012684-.028346-.021484-.041016-.115367-.172866-.209143-.347415-.291016-.541015-.006-.014-.015824-.028969-.021484-.042969-.07025-.172667-.125303-.355349-.166016-.541016-.0077-.03533-.014954-.06812-.021484-.103515-.01653-.08907-.031746-.180085-.041016-.271485-.0114-.113-.021484-.218917-.021484-.333984 0-.1584.021568-.306451.042968-.458984z" fill="#232629"/></svg>