<svg viewBox="0 0 24 24" xmlns="http://www.w3.org/2000/svg"><path d="m11 18c-.530627 0-.966769.4152-1 .9375v.125c.033231.5223.469373.9375 1 .9375.552285 0 1-.4477 1-1s-.447715-1-1-1zm4 0c-.552285 0-1 .4477-1 1s.447715 1 1 1 1-.4477 1-1-.447715-1-1-1zm4 0c-.552285 0-1 .4477-1 1s.447715 1 1 1 1-.4477 1-1-.447715-1-1-1z" fill="#f47750"/><path d="m4 4v16h1 4v-1h-4v-11h14v9h1v-13h-1-14zm11.625 1 1.375.8125 1.375-.8125.625.8125-1.6875 1-.3125.1875-.3125-.1875-1.6875-1zm-7.625 4c-1.104569 0-2 .8954-2 2s.895431 2 2 2 2-.8954 2-2-.895431-2-2-2zm0 1c.552285 0 1 .4477 1 1s-.447715 1-1 1-1-.4477-1-1 .447715-1 1-1zm4 1v1h6v-1zm-6 3v4h3 1v-1-3zm1 1h2v2h-2zm5 1v1h6v-1z" fill="#232629"/></svg>