<svg xmlns="http://www.w3.org/2000/svg" viewBox="0 0 24 24">
 <path 
     style="fill:#4d4d4d" 
     d="M 3 4 L 3 11 L 11 11 L 11 4 L 3 4 z M 12 4 L 12 11 L 20 11 L 20 4 L 12 4 z M 4 5 L 10 5 L 10 10 L 4 10 L 4 5 z M 13 5 L 19 5 L 19 10 L 13 10 L 13 5 z M 18 12 L 17 13 L 12 18 L 12 19 L 12 20 L 14 20 L 15 19 L 19 15 L 20 14 L 18 12 z M 3 13 L 3 20 L 11 20 L 11 13 L 3 13 z M 17.71875 13.6875 L 18.28125 14.28125 L 13.3125 19.28125 L 12.71875 18.6875 L 17.71875 13.6875 z M 4 14 L 10 14 L 10 19 L 4 19 L 4 14 z "
     />
 </svg>
