<svg xmlns="http://www.w3.org/2000/svg" viewBox="0 0 24 24">
 <path 
     style="fill:#4d4d4d" 
     d="M 3.9980469 4.9941406 L 3.9980469 14.994141 L 4.0097656 14.994141 L 3.9980469 15.005859 L 7.9902344 18.998047 L 8.0019531 18.998047 L 14 19 L 14 18 L 8.9960938 17.998047 L 8.9960938 13.998047 L 7.9960938 13.998047 L 4.9960938 13.998047 L 4.9960938 5.9980469 L 18.996094 5.9980469 C 19.000019 6.000064 19 13 19 13 L 20 13 C 20.002 27.688518 20.001953 10.943465 20.001953 5.9980469 L 20.001953 4.9980469 L 19.998047 4.9980469 L 19.998047 4.9941406 L 3.9980469 4.9941406 z "
     />
 <path 
     style="fill:#da4453" 
     d="M 15.712891 14 L 15 14.701172 L 16.794922 16.5 L 15 18.298828 L 15.712891 19 L 17.5 17.207031 L 19.289062 19 L 20 18.298828 L 18.205078 16.5 L 20 14.701172 L 19.289062 14 L 17.5 15.792969 L 15.712891 14 z "
     />
 </svg>
