<svg xmlns="http://www.w3.org/2000/svg" viewBox="0 0 24 24">
 <path 
     style="fill:#4d4d4d" 
     d="M 3 4 L 3 5 L 3 19 L 3 20 L 21 20 L 21 19 L 21 5 L 21 4 L 3 4 z M 4 5 L 20 5 L 20 19 L 4 19 L 4 5 z M 9 7 L 9 8 L 14 8 L 14 7 L 9 7 z M 15 7 L 15 15.3125 L 12.71875 13 L 12 13.71875 L 15.28125 17 L 15.5 17.21875 L 15.71875 17 L 19 13.71875 L 18.28125 13 L 16 15.3125 L 16 7 L 15 7 z M 9 9 L 9 10 L 12 10 L 12 9 L 9 9 z M 9 14 L 9 15 L 11 15 L 11 14 L 9 14 z M 9 16 L 9 17 L 13 17 L 13 16 L 9 16 z "
     />
 <path 
     style="fill:#27ae60" 
     d="M 6.5 7 C 5.67158 7 5.00001 7.67157 5 8.5 C 5.00001 9.32843 5.67158 10 6.5 10 C 7.32842 10 7.99999 9.32843 8 8.5 C 7.99999 7.67157 7.32842 7 6.5 7 z "
     />
 <path 
     style="fill:#da4453" 
     d="M 6.5 14 C 5.67157 14 5 14.67157 5 15.5 C 5 16.32843 5.67157 17 6.5 17 C 7.32843 17 8 16.32843 8 15.5 C 8 14.67157 7.32843 14 6.5 14 z "
     />
 </svg>
