<svg xmlns="http://www.w3.org/2000/svg" viewBox="0 0 24 24">
 <path 
     style="fill:#4d4d4d" 
     d="M 6 4 L 5 5 L 5 6 L 5 6.3046875 L 10 13.367188 L 10 17 L 10 17.039062 L 13.990234 20 L 14 20 L 14 13.367188 L 19 6.3046875 L 19 5 L 18 4 L 6 4 z M 6 5 L 18 5 L 18 5.9882812 L 13.035156 13 L 13 13 L 13 13.048828 L 13 14 L 13 18.019531 L 11 16.535156 L 11 14 L 11 13.048828 L 11 13 L 10.964844 13 L 6 5.9882812 L 6 5 z M 7 6 L 9 9 L 9 7 L 11 6 L 7 6 z M 18.5625 13.71875 L 17.78125 15 L 15 15 L 15 16 L 17.1875 16 L 16.59375 17 L 15 17 L 15 18 L 16 18 L 15.5625 18.71875 L 16.4375 19.25 L 17.1875 18 L 20 18 L 20 17 L 17.78125 17 L 18.375 16 L 20 16 L 20 15 L 19 15 L 19.4375 14.25 L 18.5625 13.71875 z "
     />
 </svg>
