<svg xmlns="http://www.w3.org/2000/svg" viewBox="0 0 24 24">
 <path 
     style="fill:#f47750" 
     d="M 11 18 A 1 1 0 0 0 10 19 A 1 1 0 0 0 11 20 A 1 1 0 0 0 12 19 A 1 1 0 0 0 11 18 z M 15 18 A 1 0.9999913 0 0 0 14 19 A 1 0.9999913 0 0 0 15 20 A 1 0.9999913 0 0 0 16 19 A 1 0.9999913 0 0 0 15 18 z M 19 18 A 1 0.9999913 0 0 0 18 19 A 1 0.9999913 0 0 0 19 20 A 1 0.9999913 0 0 0 20 19 A 1 0.9999913 0 0 0 19 18 z "
     />
 <path 
     style="fill:#4d4d4d" 
     d="M 5 4 L 5 20 L 6 20 L 9 20 L 9 19 L 6 19 L 6 5 L 9 5 L 18 5 L 18 7 L 18 14 L 18 15 L 18 17 L 19 17 L 19 16 L 19 15 L 19 14.59375 L 19 7 L 19 5 L 19 4 L 9 4 L 6 4 L 5 4 z M 7 7 L 7 11 L 11 11 L 11 7 L 7 7 z M 12 7 L 12 8 L 17 8 L 17 7 L 12 7 z M 8 8 L 10 8 L 10 10 L 8 10 L 8 8 z M 12 10 L 12 11 L 17 11 L 17 10 L 12 10 z M 7 13 L 7 14 L 17 14 L 17 13 L 7 13 z M 7 16 L 7 17 L 17 17 L 17 16 L 7 16 z "
     />
 </svg>
