<svg viewBox="0 0 24 24" xmlns="http://www.w3.org/2000/svg"><path d="m12 4c-4.418278 0-8 .8954-8 2v4 4 4c0 .930798 2.5560124 1.706565 6 1.929688v.007812c.058663.003773.124408.00242.183594.005859.586051.034177 1.188715.056641 1.816406.056641s1.230355-.022464 1.816406-.056641c.059186-.003439.124931-.002086.183594-.005859v-.007812c.345482-.022383.674073-.054788 1-.087891v-.966797c-.334176.022988-.639706.052708-1 .068359v-.005859c-.646468.028144-1.289092.0625-2 .0625s-1.353532-.034356-2-.0625v.005859c-2.871142-.124727-5-.492412-5-.943359v-3.0625c1.3529566.6249 3.9580758 1.0625 7 1.0625 1.07813 0 2.06791-.071126 3-.169922v-.955078c-.334176.022988-.639706.052708-1 .068359v-.005859c-.646468.028144-1.289092.0625-2 .0625s-1.353532-.034356-2-.0625v.005859c-2.871142-.124727-5-.492412-5-.943359v-3.0625c1.3529566.6249 3.9580758 1.0625 7 1.0625 1.07813 0 2.06791-.071126 3-.169922v-.830078h3.84375c.049817-.021179.109401-.040862.15625-.0625v.0625h1v-1-4c0-1.1046-3.581722-2-8-2zm0 1c3.865993 0 7 .4477 7 1s-3.134007 1-7 1c-3.8659932 0-7-.4477-7-1 0-.0345188.0132114-.0679447.0371094-.1015625.3584699-.504267 3.338522-.8984375 6.9628906-.8984375zm-7 1.9375c1.3529566.6249 3.9580758 1.0625 7 1.0625 3.041924 0 5.647043-.4376 7-1.0625v3.0625c0 .5523-3.134007 1-7 1-3.8659932 0-7-.4477-7-1v-.9375z" fill="#4d4d4d"/><path d="m16 12v1h2v6h-2v1h5v-1h-2v-6h2v-1z" fill="#1d99f3"/></svg>