<svg xmlns="http://www.w3.org/2000/svg" viewBox="0 0 24 24">
 <path 
     style="fill:#4d4d4d" 
     d="M 4.9375 4 L 4.9375 6 L 10 6 L 10 14 L 12 14 L 12 6 L 16.9375 6 L 16.9375 4 L 4.9375 4 z M 20 11 L 4 20 L 13.9375 20 L 13.9375 19 L 7.90625 19 L 19 12.8125 L 19 13.53125 L 20 13.53125 L 20 11 z "
     />
 <path 
     style="fill:#f47750" 
     d="M 19 14 L 15 18 L 15 20 L 17 20 L 21 16 L 19 14 z M 18.689453 15.689453 L 19.28125 16.28125 C 18.248396 17.302941 17.189755 18.392603 16.3125 19.28125 L 15.71875 18.6875 L 18.689453 15.689453 z "
     />
 </svg>
