<svg viewBox="0 0 24 24" xmlns="http://www.w3.org/2000/svg"><path d="m4 4v16h16v-16zm1 1h14v14h-14zm3.5 1c-1.385 0-2.5 1.115-2.5 2.5s1.115 2.5 2.5 2.5 2.5-1.115 2.5-2.5-1.115-2.5-2.5-2.5zm0 1c.831 0 1.5.669 1.5 1.5s-.669 1.5-1.5 1.5-1.5-.669-1.5-1.5.669-1.5 1.5-1.5zm6.494141 4-3.345703 3.34375-1.341797-1.34375-.00586.007812-.007812-.007812-4.292969 4.292969.7070312.707031 3.5917968-3.591797.642578.642578.707032.707031.707031-.707031 2.644531-2.644531 2.292969 2.292969.707031-.707031-2.992188-2.992188-.007812.007812z" fill="#232629"/></svg>