<svg xmlns="http://www.w3.org/2000/svg" viewBox="0 0 24 24">
  <path
     style="fill:#f47750"
      d="M 11 18 C 10.447715 18 10 18.447715 10 19 C 10 19.552285 10.447715 20 11 20 C 11.552285 20 12 19.552285 12 19 C 12 18.447715 11.552285 18 11 18 z M 15 18 C 14.447715 18 14 18.447715 14 19 C 14 19.552285 14.447715 20 15 20 C 15.552285 20 16 19.552285 16 19 C 16 18.447715 15.552285 18 15 18 z M 19 18 C 18.447715 18 18 18.447715 18 19 C 18 19.552285 18.447715 20 19 20 C 19.552285 20 20 19.552285 20 19 C 20 18.447715 19.552285 18 19 18 z " />
  <path
     style="fill:#4d4d4d"
     d="M 5 5 L 5 19 L 9 19 L 9 18 L 6 18 L 6 6 L 18 6 L 18 17 L 19 17 L 19 5 L 5 5 z M 9 9 L 9 15 L 15 15 L 15 9 L 9 9 z M 10 10 L 14 10 L 14 14 L 10 14 L 10 10 z " />
  <path
     style="fill:#b3b3b3"
     d="M 4 4 L 4 5 L 4 19 L 4 20 L 9 20 L 9 19 L 5 19 L 5 5 L 19 5 L 19 17 L 20 17 L 20 5 L 20 4 L 19 4 L 5 4 L 4 4 z M 8 8 L 8 9 L 8 15 L 8 16 L 16 16 L 16 15 L 16 9 L 16 8 L 15 8 L 9 8 L 8 8 z M 9 9 L 15 9 L 15 15 L 9 15 L 9 9 z " />
</svg>
