<svg viewBox="0 0 24 24" xmlns="http://www.w3.org/2000/svg"><path d="m4 4v1 12.878906l1.8789062-1.878906h-.8789062v-1-1-1-2-1-1-1h3 1v1h1v-1h3.878906l1.121094-1.1210938v-.8789062-1h1.878906l1-1zm15.292969 0-15.292969 15.292969.7070312.707031 15.2929688-15.2929688zm-14.292969 1h4v1 1h-1-3zm5 0h4v1 1h-4v-1zm10 1.1210938-1.878906 1.8789062h.878906v1 1 1 2 1 1 1h-4v-1h-1v1h-3.878906l-1.121094 1.121094v.978515.900391h-1.8789062l-1 1h12.8789062 1zm-10 10.8789062h4v2h-4zm5 0h4v2h-4z" fill="#232629"/><path d="m5 9v.7070312.2929688h.2929688l3.2929687 3.292969.7070313-.707031-2.5859376-2.585938h2.5859376l1.2929692 1.292969.707031-.707031-.585938-.585938h1.171875l1-1h-3.1718748-4zm12.121094 0-1 1h2.878906v-1zm-1.707032 1.707031-.707031.707031 2.585938 2.585938h-2.585938l-1.292969-1.292969-.707031.707031.585938.585938h-1.171875l-1 1h7.878906v-1h-.292969zm-10.414062 3.292969v1h1.8789062l1-1z" fill="#3daee9"/></svg>