<svg viewBox="0 0 24 24" xmlns="http://www.w3.org/2000/svg"><path d="m4 4v1 8 1 6h1 4 1 4v-1h-4v-2h4v-1h-4v-2h4v-1h-4v-2h4v-1h-4v-2h4v-1h-4v-2h4v-1h-4-1zm1 1h4v2h-4zm0 3h4v2h-4zm0 3h4v2h-4zm0 3h4v2h-4zm12 1v2h-2v1h2v2h1v-2h2v-1h-2v-2zm-12 2h4v2h-4z" fill="#4d4d4d"/><path d="m14 4v1 3 4 1 1h1 .28125 1.4375 2.28125 1v-1-1-2.71875-1.28125-3-1h-1-4zm1.71875 1h3.28125v3 .28125zm-.71875.71875 4 4v2.28125.28125l-.28125-.28125-3.71875-3.71875v-.28125zm0 4 2.28125 2.28125 1 1h-2.5625l-.71875-.71875v-.28125z" fill="#1d99f3"/></svg>