<svg xmlns="http://www.w3.org/2000/svg" viewBox="0 0 24 24">
 <path 
     style="fill:#4d4d4d" 
     d="M 4 10 L 4 14 L 4 15 L 4 20 L 5 20 L 13 20 L 14 20 L 14 19 L 14 15 L 14 14 L 14 10 L 13 10 L 13 14 L 11 14 L 11 10 L 10 10 L 10 14 L 8 14 L 8 10 L 7 10 L 7 14 L 5 14 L 5 10 L 4 10 z M 16 10 L 16 14 L 17 14 L 17 10 L 16 10 z M 19 10 L 19 14 L 20 14 L 20 10 L 19 10 z M 5 15 L 7 15 L 7 19 L 5 19 L 5 15 z M 8 15 L 10 15 L 10 19 L 8 19 L 8 15 z M 11 15 L 13 15 L 13 19 L 11 19 L 11 15 z M 17 15 L 17 17 L 15 17 L 15 18 L 17 18 L 17 20 L 18 20 L 18 18 L 20 18 L 20 17 L 18 17 L 18 15 L 17 15 z "
     />
 <path 
     style="fill:#1d99f3" 
     d="M 4 4 L 4 5 L 4 9 L 4 10 L 5 10 L 8 10 L 12 10 L 16 10 L 19 10 L 20 10 L 20 9 L 20 6.71875 L 20 5.28125 L 20 5 L 20 4 L 19 4 L 17.28125 4 L 16 4 L 12 4 L 9.28125 4 L 8 4 L 5 4 L 4 4 z M 5 5 L 8 5 L 8.28125 5 L 5 8.28125 L 5 5 z M 9.71875 5 L 12 5 L 12.28125 5 L 12 5.28125 L 8.28125 9 L 8 9 L 5.71875 9 L 9.71875 5 z M 13.71875 5 L 16 5 L 16.28125 5 L 16 5.28125 L 12.28125 9 L 12 9 L 9.71875 9 L 12 6.71875 L 13.71875 5 z M 17.71875 5 L 19 5 L 19 6.28125 L 16.28125 9 L 16 9 L 13.71875 9 L 16 6.71875 L 17.71875 5 z M 19 7.71875 L 19 9 L 17.71875 9 L 19 7.71875 z "
     />
 </svg>
