<svg viewBox="0 0 24 24" xmlns="http://www.w3.org/2000/svg"><path d="m5.5 4c-.831 0-1.5.669-1.5 1.5s.669 1.5 1.5 1.5 1.5-.669 1.5-1.5-.669-1.5-1.5-1.5zm2.5 0v1h8v-1zm10 0v1h2v-1zm-10 2v1h3v-1zm6 0v1h6v-1zm-8.5 11c-.831 0-1.5.669-1.5 1.5s.669 1.5 1.5 1.5 1.5-.669 1.5-1.5-.669-1.5-1.5-1.5zm2.5 0v1h8v-1zm10 0v1h2v-1zm-10 2v1h3v-1zm6 0v1h6v-1z" fill="#4d4d4d"/><path d="m5.5 10c-.831 0-1.5.669-1.5 1.5s.669 1.5 1.5 1.5 1.5-.669 1.5-1.5-.669-1.5-1.5-1.5zm2.5 0v1h8v-1zm10 0v1h2v-1zm-10 2v1h3v-1zm6 0v1h6v-1z" fill="#1d99f3"/></svg>