<?xml version="1.0" encoding="UTF-8" standalone="no"?>
<!-- Created with Inkscape (http://www.inkscape.org/) -->

<svg
   xmlns:dc="http://purl.org/dc/elements/1.1/"
   xmlns:cc="http://creativecommons.org/ns#"
   xmlns:rdf="http://www.w3.org/1999/02/22-rdf-syntax-ns#"
   xmlns:svg="http://www.w3.org/2000/svg"
   xmlns="http://www.w3.org/2000/svg"
   xmlns:sodipodi="http://sodipodi.sourceforge.net/DTD/sodipodi-0.dtd"
   xmlns:inkscape="http://www.inkscape.org/namespaces/inkscape"
   width="24"
   height="24"
   id="svg3760"
   version="1.1"
   inkscape:version="0.91 r13725"
   sodipodi:docname="lc_insertmasterpage.svg">
  <defs
     id="defs3762" />
  <sodipodi:namedview
     id="base"
     pagecolor="#ffffff"
     bordercolor="#666666"
     borderopacity="1.0"
     inkscape:pageopacity="0.0"
     inkscape:pageshadow="2"
     inkscape:zoom="33.52356"
     inkscape:cx="13.978497"
     inkscape:cy="10.0961"
     inkscape:document-units="px"
     inkscape:current-layer="layer1"
     showgrid="true"
     fit-margin-top="0"
     fit-margin-left="0"
     fit-margin-right="0"
     fit-margin-bottom="0"
     inkscape:window-width="1920"
     inkscape:window-height="1021"
     inkscape:window-x="-4"
     inkscape:window-y="0"
     inkscape:window-maximized="1"
     inkscape:showpageshadow="false"
     showguides="true"
     inkscape:snap-bbox="true"
     inkscape:object-nodes="true">
    <inkscape:grid
       type="xygrid"
       id="grid4106"
       originx="1.8863594e-05px"
       originy="-1.7016406e-05px" />
    <sodipodi:guide
       position="3.0000144,20.999978"
       orientation="0,18"
       id="guide4229" />
    <sodipodi:guide
       position="21.000014,20.999978"
       orientation="18,0"
       id="guide4231" />
    <sodipodi:guide
       position="21.000014,2.9999782"
       orientation="0,-18"
       id="guide4233" />
    <sodipodi:guide
       position="3.0000144,2.9999782"
       orientation="-18,0"
       id="guide4235" />
    <sodipodi:guide
       position="20.000014,3.9999782"
       orientation="0,-16"
       id="guide4241" />
    <sodipodi:guide
       position="4,20"
       orientation="6,0"
       id="guide4155" />
    <sodipodi:guide
       position="20,14"
       orientation="-6,0"
       id="guide4167" />
    <sodipodi:guide
       position="20,20"
       orientation="0,-6"
       id="guide4169" />
  </sodipodi:namedview>
  <metadata
     id="metadata3765">
    <rdf:RDF>
      <cc:Work
         rdf:about="">
        <dc:format>image/svg+xml</dc:format>
        <dc:type
           rdf:resource="http://purl.org/dc/dcmitype/StillImage" />
        <dc:title />
      </cc:Work>
    </rdf:RDF>
  </metadata>
  <g
     inkscape:label="Capa 1"
     inkscape:groupmode="layer"
     id="layer1"
     transform="translate(-550.28571,-606.64789)">
    <path
       style="fill:#1d99f3;fill-opacity:1;fill-rule:evenodd;stroke:none"
       d="m 567.28573,620.64802 0,2 -2,0 0,1 2,0 0,2 1,0 0,-2 2,0 0,-1 -2,0 0,-2 -1,0 z"
       id="path4141-0"
       inkscape:connector-curvature="0" />
    <path
       inkscape:connector-curvature="0"
       style="fill:#1d99f3;fill-opacity:1;stroke:none"
       d="m 554.28376,611.64214 0,1 0,8 0,1 0.0117,0 -0.0117,0.0117 3.99219,3.99219 0.0117,0 1.40625,0 1.59179,0 0,0.002 3,0 0,-1 -3,0 0,-0.002 -1,0 -1.0039,0 0,-4 -1,0 -3,0 0,-8 14,0 0,5.00195 0.004,0 0,2 1,0 0,1 0,4.99805 0.002,0 0,-1 0,-12 0,-1 -0.004,0 0,-0.004 -16,0 z m 6.99805,2.00391 1,0 -1,0 z m 4,0 1,0 -1,0 z m -4.9961,3.43164 a 1.5,1.5 0 0 0 -0.004,0.0684 1.5,1.5 0 0 0 0.004,0.0762 l 0,-0.14453 z"
       id="rect4139-3-0" />
  </g>
</svg>
