<svg xmlns="http://www.w3.org/2000/svg" viewBox="0 0 24 24">
 <path 
     style="fill:#4d4d4d" 
     d="M 4 4 L 4 9 L 4 10 L 4 14 L 5 14 L 5 10 L 7 10 L 7 14 L 8 14 L 8 10 L 10 10 L 10 14 L 11 14 L 11 10 L 13 10 L 13 14 L 14 14 L 14 10 L 16 10 L 16 14 L 17 14 L 17 10 L 19 10 L 19 14 L 20 14 L 20 10 L 20 9 L 20 5 L 20 4 L 14 4 L 13 4 L 5 4 L 4 4 z M 5 5 L 7 5 L 7 9 L 5 9 L 5 5 z M 8 5 L 10 5 L 10 9 L 8 9 L 8 5 z M 11 5 L 13 5 L 13 9 L 11 9 L 11 5 z M 14 5 L 16 5 L 16 9 L 14 9 L 14 5 z M 17 5 L 19 5 L 19 9 L 17 9 L 17 5 z M 17 15 L 17 17 L 15 17 L 15 18 L 17 18 L 17 20 L 18 20 L 18 18 L 20 18 L 20 17 L 18 17 L 18 15 L 17 15 z "
     />
 <path 
     style="fill:#1d99f3" 
     d="M 4 14 L 4 15 L 4 19 L 4 20 L 5 20 L 8 20 L 9.28125 20 L 12 20 L 13 20 L 14 20 L 14 19 L 14 16.71875 L 14 15.28125 L 14 15 L 14 14 L 13 14 L 12 14 L 8 14 L 5 14 L 4 14 z M 5.71875 15 L 8 15 L 8.28125 15 L 12 18.71875 L 12.28125 19 L 12 19 L 9.71875 19 L 5.71875 15 z M 9.71875 15 L 12 15 L 12.28125 15 L 13 15.71875 L 13 18.28125 L 12 17.28125 L 9.71875 15 z M 5 15.71875 L 8.28125 19 L 8 19 L 5 19 L 5 15.71875 z "
     />
 </svg>
