<svg xmlns="http://www.w3.org/2000/svg" viewBox="0 0 24 24">
 <path 
     style="fill:#4d4d4d" 
     d="M 19.513672 4.0078125 A 2 9 45 0 0 12.068359 9.1054688 A 2 9 45 0 0 8.5253906 13.21875 C 9.6014506 13.56139 10.440563 14.400495 10.783203 15.476562 A 2 9 45 0 0 14.896484 11.933594 A 2 9 45 0 0 19.845703 4.15625 A 2 9 45 0 0 19.513672 4.0078125 z M 8 14.664062 C 3.99999 15.735864 7 18.26795 4 20 C 8.00339 20 10 17.999182 10 16.664062 C 10 15.999182 10.0676 14.774622 8 14.664062 z "
     />
 <path 
     style="fill:#1d99f3" 
     d="M 17 15 L 17 17 L 15 17 L 15 18 L 17 18 L 17 20 L 18 20 L 18 18 L 20 18 L 20 17 L 18 17 L 18 15 L 17 15 z "
     />
 </svg>
