<svg viewBox="0 0 24 24" xmlns="http://www.w3.org/2000/svg">
  <path
     style="fill:#4d4d4d"
     d="M 13.5 4.0253906 A 6 6 0 0 0 11.449219 4.578125 L 11.951172 5.4472656 A 5 5 0 0 1 13.5 5.0292969 L 13.5 4.0253906 z M 14.5 4.0253906 L 14.5 5.0253906 A 5 5 0 0 1 16.070312 5.453125 L 16.572266 4.5859375 A 6 6 0 0 0 14.5 4.0253906 z M 10.580078 5.0722656 A 6 6 0 0 0 9.09375 6.5585938 L 9.9628906 7.0605469 A 5 5 0 0 1 11.085938 5.9453125 L 10.580078 5.0722656 z M 17.4375 5.0898438 L 16.935547 5.9589844 A 5 5 0 0 1 18.085938 7.1308594 L 18.960938 6.6269531 A 6 6 0 0 0 17.4375 5.0898438 z M 8.5898438 7.421875 A 6 6 0 0 0 8.0917969 9 L 7 9 L 7 10 L 8 10 A 6 6 0 0 0 14 16 L 14 17 L 15 17 L 15 15.908203 A 6 6 0 0 0 16.400391 15.494141 L 15.896484 14.623047 A 5 5 0 0 1 15 14.894531 L 15 9 L 9.1035156 9 A 5 5 0 0 1 9.4570312 7.921875 L 8.5898438 7.421875 z M 19.447266 7.5 L 18.576172 8.0019531 A 5 5 0 0 1 18.982422 9.6035156 L 19.980469 9.6035156 A 6 6 0 0 0 19.447266 7.5 z M 4 9 L 4 11 L 5 11 L 5 10 L 6 10 L 6 9 L 4 9 z M 9 10 L 14 10 L 14 15 A 5 5 0 0 1 9 10 z M 18.958984 10.603516 A 5 5 0 0 1 18.492188 12.181641 L 19.363281 12.685547 A 6 6 0 0 0 19.962891 10.603516 L 18.958984 10.603516 z M 4 12 L 4 14 L 5 14 L 5 12 L 4 12 z M 17.966797 13.033203 A 5 5 0 0 1 16.779297 14.150391 L 17.279297 15.017578 A 6 6 0 0 0 18.837891 13.537109 L 17.966797 13.033203 z M 4 15 L 4 17 L 5 17 L 5 15 L 4 15 z M 4 18 L 4 20 L 6 20 L 6 19 L 5 19 L 5 18 L 4 18 z M 14 18 L 14 19 L 13 19 L 13 20 L 15 20 L 15 18 L 14 18 z M 7 19 L 7 20 L 9 20 L 9 19 L 7 19 z M 10 19 L 10 20 L 12 20 L 12 19 L 10 19 z "
     />
  <path
     style="fill:#3daee9"
     d="M 9 10 A 5 5 0 0 0 14 15 L 14 10 L 9 10 z "
     />
</svg>
