<svg xmlns="http://www.w3.org/2000/svg" viewBox="0 0 24 24">
 <path 
     style="fill:#f47750" 
     d="m 10,1047.3622 c -0.552285,0 -1,0.4477 -1,1 0,0.5523 0.447715,1 1,1 0.552285,0 1,-0.4477 1,-1 0,-0.5523 -0.447715,-1 -1,-1 z m 4,0 c -0.552285,0 -1,0.4477 -1,1 0,0.5523 0.447715,1 1,1 0.552285,0 1,-0.4477 1,-1 0,-0.5523 -0.447715,-1 -1,-1 z m 4,0 c -0.552285,0 -1,0.4477 -1,1 0,0.5523 0.447715,1 1,1 0.552285,0 1,-0.4477 1,-1 0,-0.5523 -0.447715,-1 -1,-1 z"
     />
 <path 
     style="fill:#4d4d4d" 
     d="M 4 4 L 4 5 L 20 5 L 20 4 L 4 4 z M 7.5 6 L 7.28125 6.2148438 L 4 9.4453125 L 4.71875 10.154297 L 7 7.9082031 L 7 16.060547 L 7 20 L 8 20 L 8 16.060547 L 8 7.9082031 L 10.28125 10.154297 L 11 9.4453125 L 7.71875 6.2148438 L 7.5 6 z M 12 9 L 12 10 L 20 10 L 20 9 L 12 9 z M 12 14 L 12 15 L 20 15 L 20 14 L 12 14 z "
     />
 </svg>
