<?xml version="1.0" encoding="UTF-8" standalone="no"?>
<!-- Created with Inkscape (http://www.inkscape.org/) -->

<svg
   xmlns:dc="http://purl.org/dc/elements/1.1/"
   xmlns:cc="http://creativecommons.org/ns#"
   xmlns:rdf="http://www.w3.org/1999/02/22-rdf-syntax-ns#"
   xmlns:svg="http://www.w3.org/2000/svg"
   xmlns="http://www.w3.org/2000/svg"
   xmlns:sodipodi="http://sodipodi.sourceforge.net/DTD/sodipodi-0.dtd"
   xmlns:inkscape="http://www.inkscape.org/namespaces/inkscape"
   width="24"
   height="24"
   id="svg3404"
   version="1.1"
   inkscape:version="0.91 r13725"
   sodipodi:docname="lc_printersetup.svg">
  <defs
     id="defs3406" />
  <sodipodi:namedview
     id="base"
     pagecolor="#ffffff"
     bordercolor="#666666"
     borderopacity="1.0"
     inkscape:pageopacity="0.0"
     inkscape:pageshadow="2"
     inkscape:zoom="22.724638"
     inkscape:cx="15.143212"
     inkscape:cy="13.97976"
     inkscape:document-units="px"
     inkscape:current-layer="layer1"
     showgrid="false"
     fit-margin-top="0"
     fit-margin-left="0"
     fit-margin-right="0"
     fit-margin-bottom="0"
     inkscape:window-width="1920"
     inkscape:window-height="1013"
     inkscape:window-x="-4"
     inkscape:window-y="0"
     inkscape:window-maximized="1"
     inkscape:showpageshadow="false"
     inkscape:object-nodes="true"
     showguides="false">
    <inkscape:grid
       type="xygrid"
       id="grid4117"
       originx="0.99998835px"
       originy="1.0000143px" />
    <sodipodi:guide
       position="3,21"
       orientation="18,0"
       id="guide4123" />
    <sodipodi:guide
       position="3,3"
       orientation="0,18"
       id="guide4125" />
    <sodipodi:guide
       position="21,3"
       orientation="-18,0"
       id="guide4127" />
    <sodipodi:guide
       position="21,21"
       orientation="0,-18"
       id="guide4129" />
    <sodipodi:guide
       position="4,20"
       orientation="16,0"
       id="guide4131" />
    <sodipodi:guide
       position="4,4"
       orientation="0,16"
       id="guide4133" />
    <sodipodi:guide
       position="20,4"
       orientation="-16,0"
       id="guide4135" />
    <sodipodi:guide
       position="20,20"
       orientation="0,-16"
       id="guide4137" />
  </sodipodi:namedview>
  <metadata
     id="metadata3409">
    <rdf:RDF>
      <cc:Work
         rdf:about="">
        <dc:format>image/svg+xml</dc:format>
        <dc:type
           rdf:resource="http://purl.org/dc/dcmitype/StillImage" />
        <dc:title></dc:title>
      </cc:Work>
    </rdf:RDF>
  </metadata>
  <g
     inkscape:label="Capa 1"
     inkscape:groupmode="layer"
     id="layer1"
     transform="translate(-383.57144,-481.93362)">
    <path
       style="opacity:1;fill:#4d4d4d;fill-opacity:1;stroke:none"
       d="m 6,4 0,1 0,4 -2,0 0,1 0,7 1,0 3,0 0,2 0,1 8,0 0,-3 1,0 1,0 0,-1 -1,0 0,-2 -1,0 -9,0 0,2 -2,0 0,-6 14,0 -1.2e-5,-1.43e-5 0,-1 L 18,9 18,5 18,4 Z M 7,5 17,5 17,9 16,9 16,8 8,8 8,9 7,9 Z m 1,1 0,1 8,0 0,-1 z m -2,5 0,1 3,0 0,-1 z m 3,6 6,0 0,2 -6,0 z"
       transform="translate(383.57144,481.93362)"
       id="rect4145"
       inkscape:connector-curvature="0"
       sodipodi:nodetypes="ccccccccccccccccccccccccccccccccccccccccccccccccccccc" />
    <path
       style="fill:#f47750;fill-opacity:1;stroke:none"
       d="m 404.57143,492.93361 c 0,-0.55228 -0.4477,-1 -1,-1 -0.5523,0 -1,0.44772 -1,1 0,0.55228 0.4477,1 1,1 0.5523,0 1,-0.44772 1,-1 z m 0,4 c 0,-0.55228 -0.4477,-1 -1,-1 -0.5523,0 -1,0.44772 -1,1 0,0.55228 0.4477,1 1,1 0.5523,0 1,-0.44772 1,-1 z m 0,4 c 0,-0.55228 -0.4477,-1 -1,-1 -0.5523,0 -1,0.44772 -1,1 0,0.55228 0.4477,1 1,1 0.5523,0 1,-0.44772 1,-1 z"
       id="rect4108-9-7"
       inkscape:connector-curvature="0" />
  </g>
</svg>
