<svg xmlns="http://www.w3.org/2000/svg" viewBox="0 0 24 24">
 <path 
     style="fill:#f47750" 
     d="M 10 18 C 9.4477 18 9 18.4477 9 19 C 9 19.5523 9.4477 20 10 20 C 10.5523 20 11 19.5523 11 19 C 11 18.4477 10.5523 18 10 18 z M 14 18 C 13.4477 18 13 18.4477 13 19 C 13 19.5523 13.4477 20 14 20 C 14.5523 20 15 19.5523 15 19 C 15 18.4477 14.5523 18 14 18 z M 18 18 C 17.4477 18 17 18.4477 17 19 C 17 19.5523 17.4477 20 18 20 C 18.5523 20 19 19.5523 19 19 C 19 18.4477 18.5523 18 18 18 z "
     />
 <path 
     style="fill:#4d4d4d" 
     d="M 5 4 L 5 5 L 5 7 L 5 10 L 5 20 L 6 20 L 8 20 L 8 19 L 6 19 L 6 10 L 6 7 L 6 5 L 14 5 L 14 9 L 18 9 L 18 17 L 19 17 L 19 9.40625 L 19 8 L 15 4 L 5 4 z "
     />
 </svg>
