<svg xmlns="http://www.w3.org/2000/svg" viewBox="0 0 24 24">
 <path 
     style="fill:#4d4d4d" 
     d="M 11 4 C 8.23858 4 6 6.23857 6 9 C 6 11.76142 8.23858 14 11 14 L 11 17 L 11 20 L 12 20 L 12 17 L 12 5 L 13 5 L 13 17 L 13 20 L 14 20 L 14 17 L 14 4 L 12 4 L 11 4 z "
     />
 <path 
     style="fill:#f47750" 
     d="M 19 10 C 18.44771 10 18 10.44771 18 11 C 18 11.55228 18.44771 12 19 12 C 19.55228 12 20 11.55228 20 11 C 20 10.44771 19.55228 10 19 10 z M 19 14 C 18.44771 14 18 14.44771 18 15 C 18 15.55228 18.44771 16 19 16 C 19.55228 16 20 15.55228 20 15 C 20 14.44771 19.55228 14 19 14 z M 19 18 C 18.44771 18 18 18.44771 18 19 C 18 19.55228 18.44771 20 19 20 C 19.55228 20 20 19.55228 20 19 C 20 18.44771 19.55228 18 19 18 z "
     />
 </svg>
