<svg xmlns="http://www.w3.org/2000/svg" viewBox="0 0 24 24">
  <path
     style="fill:#4d4d4d"
     d="M 4 4 L 4 18 L 6 18 L 6 20 L 20 20 L 20 6 L 18 6 L 18 4 L 4 4 z M 5 5 L 17 5 L 17 6 L 6 6 L 6 17 L 5 17 L 5 5 z M 7 7 L 19 7 L 19 19 L 7 19 L 7 7 z M 10.5 8 C 9.115 8 8 9.115 8 10.5 C 8 11.885 9.115 13 10.5 13 C 11.885 13 13 11.885 13 10.5 C 13 9.115 11.885 8 10.5 8 z M 10.5 9 C 11.331 9 12 9.669 12 10.5 C 12 11.331 11.331 12 10.5 12 C 9.669 12 9 11.331 9 10.5 C 9 9.669 9.669 9 10.5 9 z M 15.994141 12 L 12.648438 15.34375 L 11.306641 14 L 11.300781 14.007812 L 11.292969 14 L 8 17.292969 L 8.7070312 18 L 11.298828 15.408203 L 11.941406 16.050781 L 12.648438 16.757812 L 13.355469 16.050781 L 16 13.40625 L 17.292969 14.699219 L 18 13.992188 L 16.007812 12 L 16 12.007812 L 15.994141 12 z "
     />
</svg>
