<svg viewBox="0 0 24 24" xmlns="http://www.w3.org/2000/svg"><path d="m15 14v2h1v2c0 .552285-.44772 1-1 1v1c1.10457 0 2-.895431 2-2v-2-1-1zm3 0v2h1v2c0 .552285-.44772 1-1 1v1c1.10457 0 2-.895431 2-2v-2-1-1z" fill="#1d99f3"/><path d="m10.429688 4c-1.2338076 0-2.3374037.3485662-3.3105474 1.046875-.9731436.6924896-1.7368866 1.6767569-2.2929687 2.9511719-.5502896 1.2685943-.8261719 2.6648121-.8261719 4.1894531 0 1.565376.4138568 2.781371 1.2421875 3.648438.8283306.867066 1.9878843 1.300781 3.4765625 1.300781h.1386719l.1464843-.017578 1.9218748 2.880859h2.033203l-2.390625-3.160156c1.367035-.45972 2.448612-1.396472 3.242188-2.810547.793575-1.419894 1.189453-3.087423 1.189453-5.0019532 0-1.5653756-.405844-2.7932501-1.216797-3.6835938-.80516-.896163-1.922763-1.34375-3.353515-1.34375zm-.113282 1.4140625c.938389 0 1.672099.3168747 2.199219.9511719.532912.6342971.798828 1.509659.798828 2.6269531 0 1.3093285-.199925 2.4817535-.599609 3.5175785-.393892 1.035825-.931717 1.833931-1.615235 2.392578-.677725.552828-1.4554071.830078-2.3300778.830078-.9499735 0-1.6997103-.312889-2.25-.935547-.5502895-.628478-.8261718-1.50978-.8261718-2.644531 0-1.262776.1958854-2.4114414.5839844-3.4472659.3880989-1.0416439.9339373-1.8516296 1.640625-2.4277343.7066876-.5761048 1.506389-.8632813 2.3984372-.8632813z" fill="#4d4d4d"/></svg>