<svg xmlns="http://www.w3.org/2000/svg" viewBox="0 0 24 24">
 <path 
     style="fill:#4d4d4d" 
     d="M 7 6 L 7 8 L 4 8 L 4 9 L 7 9 L 7 11 L 11 11 L 11 10 L 8 10 L 8 7 L 11 7 L 11 6 L 7 6 z M 13 6 L 13 7 L 16 7 L 16 10 L 13 10 L 13 11 L 17 11 L 17 9 L 20 9 L 20 8 L 17 8 L 17 6 L 13 6 z M 11 8 L 11 9 L 13 9 L 13 8 L 11 8 z "
     />
 <path 
     style="fill:#da4453" 
     d="M 14.990234 14 L 14 14.990234 L 16.009766 17 L 14 19.009766 L 14.990234 20 L 17 17.990234 L 19.009766 20 L 20 19.009766 L 17.990234 17 L 20 14.990234 L 19.009766 14 L 17 16.009766 L 14.990234 14 z "
     />
 </svg>
