<svg viewBox="0 0 24 24" xmlns="http://www.w3.org/2000/svg"><path d="m13.400391 4-3.292969 3.2929688-.2070314.2070312.2070314.2070312 3.292969 3.2929688.707031-.707031-2.292969-2.292969h2.285156.900391v-1h-.900391-2.285156l2.292969-2.2929688zm3.099609 3c-.277 0-.5.223-.5.5s.223.5.5.5.5-.223.5-.5-.223-.5-.5-.5zm-8.5507812 2-4.9492188 4.949219 6.0507812 6.050781 4.9492188-4.949219zm11.5507812 0c-.277 0-.5.223-.5.5s.223.5.5.5.5-.223.5-.5-.223-.5-.5-.5zm-11.5507812 1.414062 4.7773432 4.777344-3.5351558 3.535156-4.7773437-4.777343zm12.5507812 1.585938c-.277 0-.5.223-.5.5s.223.5.5.5.5-.223.5-.5-.223-.5-.5-.5zm-1 3c-.277 0-.5.223-.5.5s.223.5.5.5.5-.223.5-.5-.223-.5-.5-.5zm-3 2c-.277 0-.5.223-.5.5s.223.5.5.5.5-.223.5-.5-.223-.5-.5-.5z" fill="#4d4d4d"/></svg>