<svg viewBox="0 0 24 24" xmlns="http://www.w3.org/2000/svg">
  <path
     style="fill:#4d4d4d"
     d="M 13.5 4.0253906 C 12.638009 4.0977055 11.801847 4.3555501 11.048828 4.78125 L 11.601562 5.6191406 C 12.18837 5.2967581 12.833947 5.0955132 13.5 5.0273438 L 13.5 4.0253906 z M 14.5 4.0292969 L 14.5 5.0253906 C 15.167254 5.0924416 15.814202 5.2930354 16.402344 5.6152344 L 16.949219 4.7832031 C 16.196631 4.3584537 15.361172 4.1012869 14.5 4.0292969 z M 10.222656 5.34375 C 9.6809922 5.7840162 9.2203068 6.3154236 8.8613281 6.9140625 L 9.7597656 7.3632812 C 10.035402 6.9199927 10.378753 6.522601 10.777344 6.1855469 L 10.222656 5.34375 z M 17.779297 5.34375 L 17.226562 6.1816406 C 17.62531 6.519286 17.96867 6.9173461 18.244141 7.3613281 L 19.136719 6.9140625 C 18.77891 6.3157395 18.319563 5.7843519 17.779297 5.34375 z M 8.4160156 7.8085938 C 8.2665923 8.19345 8.1572893 8.5927007 8.0898438 9 L 4 9 L 4 20 L 15 20 L 15 19 L 15 15.914062 L 15 15.910156 L 15 15.90625 C 15.68529 15.791782 16.345492 15.559159 16.951172 15.21875 L 16.398438 14.380859 C 15.96056 14.620958 15.489182 14.794104 15 14.894531 C 14.671058 14.963201 14.336031 14.998536 14 15 C 11.238576 15 9 12.761424 9 10 C 9.0001784 9.6641014 9.0342044 9.3290757 9.1015625 9 L 9.1035156 9 C 9.1560768 8.7487564 9.2279006 8.5019331 9.3183594 8.2617188 L 8.4160156 7.8085938 z M 19.580078 7.8105469 L 18.683594 8.2597656 C 18.83175 8.6592584 18.928235 9.0760441 18.970703 9.5 L 19.974609 9.5 C 19.925641 8.9207093 19.792742 8.3516104 19.580078 7.8105469 z M 5 10 L 8 10 C 8 13.313708 10.686292 16 14 16 L 14 19 L 5 19 L 5 10 z M 18.974609 10.5 C 18.930089 10.923553 18.831635 11.339682 18.681641 11.738281 L 19.583984 12.191406 C 19.795495 11.64952 19.92708 11.079757 19.974609 10.5 L 18.974609 10.5 z M 18.240234 12.636719 C 17.964598 13.080007 17.621246 13.477399 17.222656 13.814453 L 17.777344 14.65625 C 18.319008 14.215984 18.779693 13.684576 19.138672 13.085938 L 18.240234 12.636719 z "
     />
</svg>
