<svg viewBox="0 0 24 24" xmlns="http://www.w3.org/2000/svg"><path d="m4 4v1 15h1 14 1v-15-1zm1 1h4v1 1h-1-3zm5 0h4v1 1h-4v-1zm5 0h4v2h-3-1v-1zm-10 3h3 1v1.3613281a4 4 0 0 1 1-.8203125v-.5410156h2 2v.5410156a4 4 0 0 1 1 .8203125v-1.3613281h4v2h-3.541016a4 4 0 0 1 .410157 1h3.130859v2h-3.132812a4 4 0 0 1 -.408204 1h3.541016v2h-4v-1.361328a4 4 0 0 1 -1 .820312v.541016h-2-2v-.541016a4 4 0 0 1 -1-.820312v1.361328h-1-3v-2h3.5410156a4 4 0 0 1 -.4101562-1h-3.1308594v-2h3.1328125a4 4 0 0 1 .4082031-1h-3.5410156zm0 9h3 1v1.099609.900391h-4zm5 0h4v2h-4zm5 0h4v2h-4z" fill="#4d4d4d"/><path d="m12 8a4 4 0 0 0 -4 4 4 4 0 0 0 4 4 4 4 0 0 0 4-4 4 4 0 0 0 -4-4zm0 1a3 3 0 0 1 3 3 3 3 0 0 1 -3 3 3 3 0 0 1 -3-3 3 3 0 0 1 3-3zm-1.009766 1-.990234.990234 1.009766 1.009766-1.009766 1.009766.990234.990234 1.009766-1.009766 1.009766 1.009766.990234-.990234-1.009766-1.009766 1.009766-1.009766-.990234-.990234-1.009766 1.009766z" fill="#da4453"/></svg>