<svg xmlns="http://www.w3.org/2000/svg" viewBox="0 0 24 24">
 <path 
     style="fill:#4d4d4d" 
     d="M 14 9.8925781 L 14 18.185547 L 11.707031 15.892578 L 11 16.599609 L 14.292969 19.892578 L 14.5 20.099609 L 14.707031 19.892578 L 18 16.599609 L 17.292969 15.892578 L 15 18.185547 L 15 9.8925781 L 14 9.8925781 z M 6.1113281 10.099609 L 6.1113281 10.914062 L 8.1835938 10.914062 L 6 14.167969 L 6 14.900391 L 9.828125 14.900391 L 9.828125 14.048828 L 7.5820312 14.048828 L 9.7558594 10.755859 L 9.7558594 10.099609 L 6.1113281 10.099609 z "
     />
 <path 
     style="fill:#1d99f3" 
     d="M 8.0957031 4 C 7.3124631 4.018 6.7105965 4.1550688 6.2734375 4.3554688 L 6.5195312 5.2558594 C 6.7290012 5.1828594 7.5218481 4.9296875 7.9863281 4.9296875 L 8.0488281 4.9296875 C 8.6954581 4.9566875 8.7421875 5.1925469 8.7421875 5.7480469 L 8.7421875 5.9667969 L 8.4042969 6.0214844 C 6.8378069 6.2479844 6 6.4403781 6 7.6425781 C 6 8.4804781 6.6107106 9 7.4941406 9 C 8.1043406 9 8.5042335 8.7445375 8.9140625 8.3984375 L 9.0410156 8.9082031 L 10.007812 8.9082031 L 10.007812 5.5390625 C 10.007812 4.5098625 9.296025 4 8.203125 4 L 8.0957031 4 z M 8.7421875 6.6777344 L 8.7421875 7.796875 C 8.4052165 8.024575 8.1500506 8.1894531 7.7128906 8.1894531 C 7.3212706 8.1894531 7.1289063 7.9436563 7.1289062 7.5976562 C 7.1289062 6.9418563 7.7030169 6.8326219 8.4042969 6.7324219 L 8.7421875 6.6777344 z "
     />
 </svg>
