<svg viewBox="0 0 24 24" xmlns="http://www.w3.org/2000/svg"><path d="m14.019531 4-1.716797 3.9746094-1.15625-3.2363282-.996093 3.3378907-2.244141-2.7128907 2.460938 4.4003907-4.1445318-2.7949219 3.1914063 3.771484-4.0371094-1.5175778 2.40625 1.8515628-3.7304687 1.179687 4.3027344.621094-4.3554688 1.955078 4.8203125-.724609-1.8125 3.611328 3.4023435-2.845703-2.4667966 4.046875 3.3789066-2.814453-.857422 3.146484 1.71875-3.845703 1.154297 4.595703.998047-4.699219 2.242187 2.585938-.833984-2.783203 3.412109 1.990234-4.083984-2.966797 4.927734.916016-3.296875-2.574219 2.998047-.660156-3.572266.183594 3.625-2.7597661-4.08789 1.5292971 2.703125-3.0566409-4.292969.8027344 2.466797-2.5605469-3.38086 3.015625z" fill="#4d4d4d"/></svg>