<svg xmlns="http://www.w3.org/2000/svg" viewBox="0 0 24 24">
 <path 
     style="fill:#4d4d4d" 
     d="M 5 3.9980469 L 5 4 L 5 20 L 6 20 L 14 20 L 15 20 L 15 19.990234 L 15.007812 20 L 19 16.007812 L 19 15.998047 L 19 14.591797 L 19 3.9980469 L 18 3.9980469 L 6 3.9980469 L 5 3.9980469 z M 6 5 L 18 5 L 18 15 L 14 15 L 14 16 L 14 19 L 6 19 L 6 5 z M 13.5 7 C 12.847785 7 12.298389 7.4186606 12.091797 8 L 7 8 L 7 9 L 12.091797 9 C 12.298389 9.5813394 12.847785 10 13.5 10 C 14.152215 10 14.701611 9.5813394 14.908203 9 L 17 9 L 17 8 L 14.908203 8 C 14.701611 7.4186606 14.152215 7 13.5 7 z M 10.5 11 A 1.5 1.5 0 0 0 9.0878906 12 L 7 12 L 7 13 L 9.0878906 13 A 1.5 1.5 0 0 0 10.5 14 A 1.5 1.5 0 0 0 11.912109 13 L 17 13 L 17 12 L 11.912109 12 A 1.5 1.5 0 0 0 10.5 11 z M 10.5 12 A 0.5 0.5 0 0 1 11 12.5 A 0.5 0.5 0 0 1 10.5 13 A 0.5 0.5 0 0 1 10 12.5 A 0.5 0.5 0 0 1 10.5 12 z "
     />
 </svg>
