<svg viewBox="0 0 24 24" xmlns="http://www.w3.org/2000/svg">
  <path
     style="fill:#4d4d4d"
     d="M 11 3 L 11 4 L 20 4 L 20 3 L 11 3 z M 11 5 L 11 6 L 20 6 L 20 5 L 11 5 z M 11 9 L 11 10 L 20 10 L 20 9 L 11 9 z M 11 11 L 11 12 L 18 12 L 18 11 L 11 11 z M 11 15 L 11 16 L 20 16 L 20 15 L 11 15 z M 11 17 L 11 18 L 17 18 L 17 17 L 11 17 z M 18 18 L 18 19 L 20 19 L 20 18 L 18 18 z "
     />
  <path
     style="fill:#27ae60"
     d="M 5 8 L 5 10 L 3 10 L 3 11 L 5 11 L 5 13 L 6 13 L 6 11 L 8 11 L 8 10 L 6 10 L 6 8 L 5 8 z "
     />
</svg>
