<svg xmlns="http://www.w3.org/2000/svg" viewBox="0 0 24 24">
 <path 
     style="fill:#f47750" 
     d="M 11 18 C 10.447715 18 10 18.44772 10 19 C 10 19.55228 10.447715 20 11 20 C 11.552285 20 12 19.55228 12 19 C 12 18.44772 11.552285 18 11 18 z M 15 18 C 14.447715 18 14 18.44772 14 19 C 14 19.55228 14.447715 20 15 20 C 15.552285 20 16 19.55228 16 19 C 16 18.44772 15.552285 18 15 18 z M 19 18 C 18.447715 18 18 18.447715 18 19 C 18 19.552285 18.447715 20 19 20 C 19.552285 20 20 19.552285 20 19 C 20 18.447715 19.552285 18 19 18 z "
     />
 <path 
     style="fill:#4d4d4d" 
     d="M 4 4 L 4 5 L 20 5 L 20 4 L 4 4 z M 7 8 L 7 14.09375 L 4.71875 11.875 L 4 12.59375 L 7.28125 15.78125 L 7.5 16 L 7.71875 15.78125 L 11 12.59375 L 10.28125 11.875 L 8 14.09375 L 8 8 L 7 8 z M 16.5 8 L 16.28125 8.21875 L 13 11.40625 L 13.71875 12.125 L 16 9.90625 L 16 16 L 17 16 L 17 9.90625 L 19.28125 12.125 L 20 11.40625 L 16.71875 8.21875 L 16.5 8 z M 4 19 L 4 20 L 9 20 L 9 19 L 4 19 z "
     />
 </svg>
