<svg xmlns="http://www.w3.org/2000/svg" viewBox="0 0 24 24">
 <path 
     style="fill:#4d4d4d" 
     d="M 11 4 L 11 5.078125 C 9.8122451 5.2471732 8.723949 5.7101022 7.8085938 6.3945312 L 6.4140625 5 L 5 6.4140625 L 6.3945312 7.8085938 C 5.7101021 8.723949 5.2471732 9.8122451 5.078125 11 L 4 11 L 4 13 L 5.078125 13 C 5.2471732 14.187755 5.7101022 15.276051 6.3945312 16.191406 L 5 17.585938 L 6.4140625 19 L 7.8085938 17.605469 C 8.723949 18.289898 9.8122451 18.752827 11 18.921875 L 11 20 L 13 20 L 13 18.921875 L 13 17.910156 C 12.674346 17.964459 12.341536 18 12 18 C 11.658464 18 11.325654 17.964459 11 17.910156 C 10.086757 17.757874 9.2459631 17.404143 8.5234375 16.890625 C 7.9762415 16.501718 7.4982817 16.023758 7.109375 15.476562 C 6.5958569 14.754043 6.2421264 13.913243 6.0898438 13 C 6.0355412 12.674346 6 12.341536 6 12 C 6 11.658464 6.0355412 11.325654 6.0898438 11 C 6.2421264 10.086757 6.5958569 9.2459631 7.109375 8.5234375 C 7.4982817 7.9762415 7.9762415 7.4982817 8.5234375 7.109375 C 9.2459631 6.5958569 10.086757 6.2421264 11 6.0898438 C 11.325654 6.0355412 11.658464 6 12 6 C 12.341536 6 12.674346 6.0355407 13 6.0898438 C 13.913243 6.2421264 14.754038 6.5958569 15.476562 7.109375 C 16.023761 7.4982817 16.501718 7.9762415 16.890625 8.5234375 C 17.404143 9.2459623 17.757874 10.086757 17.910156 11 C 17.964459 11.325654 18 11.658464 18 12 C 18 12.341536 17.964456 12.674346 17.910156 13 L 18.921875 13 L 20 13 L 20 11 L 18.921875 11 C 18.752827 9.8122451 18.289898 8.723949 17.605469 7.8085938 L 19 6.4140625 L 17.585938 5 L 16.191406 6.3945312 C 15.276051 5.7101021 14.187755 5.2471732 13 5.078125 L 13 4 L 11 4 z M 10 9 L 10 15 L 15 12 L 10 9 z M 17 14 L 17 18.292969 L 14.707031 16 L 14 16.707031 L 17.292969 20 L 17.5 20.207031 L 17.707031 20 L 21 16.707031 L 20.292969 16 L 18 18.292969 L 18 14 L 17 14 z "
     />
 </svg>
