<svg xmlns="http://www.w3.org/2000/svg" viewBox="0 0 24 24">
 <path 
     style="fill:#4d4d4d" 
     d="M 5 4 L 5 8 L 6 8 L 9 8 L 9 10 L 9 11 L 18 11 L 19 11 L 19 4 L 18 4 L 6 4 L 5 4 z M 6 5 L 9 5 L 9 7 L 6 7 L 6 5 z M 10 5 L 14 5 L 14 7 L 10 7 L 10 5 z M 15 5 L 18 5 L 18 7 L 15 7 L 15 5 z M 10 8 L 14 8 L 14 10 L 10 10 L 10 8 z M 15 8 L 18 8 L 18 10 L 15 10 L 15 8 z M 12 12 C 7.581722 12 4 12.8954 4 14 L 4 15 L 4 17 L 4 18 C 4 19.1046 7.581722 20 12 20 C 16.418278 20 20 19.1046 20 18 L 20 17 L 20 15 L 20 14 C 20 12.8954 16.418278 12 12 12 z M 12 13 C 15.865993 13 19 13.4477 19 14 C 19 14.5523 15.865993 15 12 15 C 8.1340068 15 5 14.5523 5 14 C 5 13.4477 8.1340068 13 12 13 z M 5 14.9375 C 5.0468485 14.959138 5.1064326 14.978821 5.15625 15 C 5.1573981 15.000488 5.1590066 15.001466 5.1601562 15.001953 C 5.4981155 15.145328 5.9051642 15.275972 6.3671875 15.394531 C 6.5134605 15.432201 6.6942531 15.459386 6.8515625 15.494141 C 7.2079973 15.572583 7.5572986 15.653076 7.9648438 15.714844 C 8.2054468 15.751511 8.4819246 15.77062 8.7382812 15.800781 C 9.1111861 15.84442 9.4672302 15.895169 9.8691406 15.923828 C 10.545384 15.972322 11.259191 16 12 16 C 12.740809 16 13.454616 15.972322 14.130859 15.923828 C 14.53277 15.895169 14.888814 15.84442 15.261719 15.800781 C 15.518075 15.77062 15.794553 15.751511 16.035156 15.714844 C 16.442701 15.653076 16.792003 15.572583 17.148438 15.494141 C 17.305747 15.459386 17.486539 15.432201 17.632812 15.394531 C 18.094836 15.275972 18.501884 15.145328 18.839844 15.001953 C 18.841134 15.001406 18.842462 15.000548 18.84375 15 C 18.893567 14.978821 18.953151 14.959138 19 14.9375 L 19 15 L 19 17 L 19 18 C 19 18.5523 15.865993 19 12 19 C 8.1340068 19 5 18.5523 5 18 L 5 17 L 5 15 L 5 14.9375 z "
     />
 </svg>
