<svg viewBox="0 0 24 24" xmlns="http://www.w3.org/2000/svg"><path d="m12 4c-4.4182785.000001-7.9999996 3.5817228-8 8 .6451632 8.554515 7.24508 7.937232 13 7v-1c-5.785941 1.244242-12.0821386.790436-12-6 0-3.8659932 3.1340068-7 7-7 3.477294.00314 6.957948 3.0398192 7 6-.0018 1.822562-1.235311 3.54436-3 4v-7h-1v1.3613281c-.758036-.8636302-1.850882-1.3595375-3-1.3613281-2.209139 0-4 1.790861-4 4s1.790861 4 4 4c1.149118-.0018 2.241964-.497698 3-1.361328v1.361328h1c2.327756-.475153 3.999743-2.624244 4-5 .03135-3.8366583-3.971261-6.9961887-8-7zm0 5c1.656854 0 3 1.343146 3 3s-1.343146 3-3 3-3-1.343146-3-3 1.343146-3 3-3z" fill="#4d4d4d"/></svg>