<?xml version="1.0" encoding="UTF-8" standalone="no"?>
<!-- Created with Inkscape (http://www.inkscape.org/) -->

<svg
   xmlns:dc="http://purl.org/dc/elements/1.1/"
   xmlns:cc="http://creativecommons.org/ns#"
   xmlns:rdf="http://www.w3.org/1999/02/22-rdf-syntax-ns#"
   xmlns:svg="http://www.w3.org/2000/svg"
   xmlns="http://www.w3.org/2000/svg"
   xmlns:sodipodi="http://sodipodi.sourceforge.net/DTD/sodipodi-0.dtd"
   xmlns:inkscape="http://www.inkscape.org/namespaces/inkscape"
   width="16"
   height="16"
   id="svg3049"
   version="1.1"
   inkscape:version="0.48.4 r9939"
   sodipodi:docname="sc_toggleobjectrotatemode.svg"
   inkscape:export-filename="/home/uri/.kde/share/icons/NITRUX-KDE/16x16/actions/view-right-new.png"
   inkscape:export-xdpi="30"
   inkscape:export-ydpi="30">
  <defs
     id="defs3051" />
  <sodipodi:namedview
     id="base"
     pagecolor="#ffffff"
     bordercolor="#666666"
     borderopacity="1.0"
     inkscape:pageopacity="0.0"
     inkscape:pageshadow="2"
     inkscape:zoom="45.254834"
     inkscape:cx="5.4632671"
     inkscape:cy="5.4053358"
     inkscape:document-units="px"
     inkscape:current-layer="layer1"
     showgrid="true"
     fit-margin-top="0"
     fit-margin-left="0"
     fit-margin-right="0"
     fit-margin-bottom="0"
     inkscape:window-width="1407"
     inkscape:window-height="1053"
     inkscape:window-x="509"
     inkscape:window-y="0"
     inkscape:window-maximized="0"
     inkscape:showpageshadow="false"
     borderlayer="true"
     inkscape:snap-bbox="true"
     inkscape:snap-global="false">
    <inkscape:grid
       type="xygrid"
       id="grid4085" />
    <sodipodi:guide
       position="2,15"
       orientation="12,0"
       id="guide4075" />
    <sodipodi:guide
       position="17,2"
       orientation="0,12"
       id="guide4077" />
    <sodipodi:guide
       position="14,13"
       orientation="-12,0"
       id="guide4079" />
    <sodipodi:guide
       position="0,14"
       orientation="0,-12"
       id="guide4081" />
  </sodipodi:namedview>
  <metadata
     id="metadata3054">
    <rdf:RDF>
      <cc:Work
         rdf:about="">
        <dc:format>image/svg+xml</dc:format>
        <dc:type
           rdf:resource="http://purl.org/dc/dcmitype/StillImage" />
        <dc:title></dc:title>
      </cc:Work>
    </rdf:RDF>
  </metadata>
  <g
     inkscape:label="Capa 1"
     inkscape:groupmode="layer"
     id="layer1"
     transform="translate(-421.71429,-531.79074)">
    <rect
       style="fill:#4d4d4d;fill-opacity:1;stroke:none"
       id="rect4035"
       width="0"
       height="10.999983"
       x="417.71429"
       y="534.79071" />
    <rect
       style="fill:#4d4d4d;fill-opacity:1;stroke:none"
       id="rect4035-2"
       width="0"
       height="10.999983"
       x="411.57404"
       y="535.0567" />
    <rect
       style="fill:#4d4d4d;fill-opacity:1;stroke:none"
       id="rect4035-5"
       width="0"
       height="10.999983"
       x="429.61481"
       y="533.00537" />
    <rect
       style="fill:#4d4d4d;fill-opacity:1;stroke:none"
       id="rect4035-8"
       width="0"
       height="10.999983"
       x="411.57404"
       y="535.0567" />
    <rect
       style="fill:#4d4d4d;fill-opacity:1;stroke:none"
       id="rect4035-59"
       width="0"
       height="10.999983"
       x="411.57404"
       y="535.0567" />
    <text
       sodipodi:linespacing="125%"
       id="text3781"
       y="547.81396"
       x="427.01001"
       style="font-size:9px;font-style:normal;font-weight:normal;line-height:125%;letter-spacing:0px;word-spacing:0px;fill:#4d4d4d;fill-opacity:1;stroke:none;font-family:Sans"
       xml:space="preserve"><tspan
         id="tspan3783"
         sodipodi:role="line"
         x="427.01001"
         y="547.81396" /></text>
    <text
       sodipodi:linespacing="125%"
       id="text3781-8"
       y="541.95062"
       x="427.7467"
       style="font-size:9px;font-style:normal;font-weight:normal;line-height:125%;letter-spacing:0px;word-spacing:0px;fill:#4d4d4d;fill-opacity:1;stroke:none;font-family:Sans"
       xml:space="preserve"><tspan
         id="tspan3783-1"
         sodipodi:role="line"
         x="427.7467"
         y="541.95062" /></text>
    <text
       sodipodi:linespacing="125%"
       id="text3781-4"
       y="548.81396"
       x="421.01001"
       style="font-size:9px;font-style:normal;font-weight:normal;line-height:125%;letter-spacing:0px;word-spacing:0px;fill:#4d4d4d;fill-opacity:1;stroke:none;font-family:Sans"
       xml:space="preserve"><tspan
         id="tspan3783-13"
         sodipodi:role="line"
         x="421.01001"
         y="548.81396" /></text>
    <rect
       style="fill:#4d4d4d;fill-opacity:1;stroke:none"
       id="rect4035-9"
       width="0"
       height="10.999983"
       x="411.57404"
       y="535.0567" />
    <rect
       style="fill:#4d4d4d;fill-opacity:1;stroke:none"
       id="rect4035-5-7"
       width="0"
       height="10.999983"
       x="429.61481"
       y="533.00537" />
    <rect
       style="fill:#4d4d4d;fill-opacity:1;stroke:none"
       id="rect4035-9-0"
       width="0"
       height="10.999983"
       x="391.57404"
       y="535.0567" />
    <rect
       style="fill:#4d4d4d;fill-opacity:1;stroke:none"
       id="rect4035-5-7-5"
       width="0"
       height="10.999983"
       x="409.61481"
       y="533.00537" />
    <path
       style="color:#000000;fill:#4d4d4d;fill-opacity:1;fill-rule:evenodd;stroke:none;stroke-width:2;marker:none;visibility:visible;display:inline;overflow:visible;enable-background:accumulate"
       d="M 8 2 C 6.89543 2 6 2.89543 6 4 C 6 4.93198 6.6373 5.71554 7.5 5.9375 L 7.5 8 L 5 8 L 5 9 L 7.5 9 L 7.5 10 L 7.5 12.96875 C 6.3123571 12.892642 4.936375 12.390014 3.9375 11.84375 L 4.4375 11.1875 L 3.59375 10.625 L 2 12.78125 C 2 12.78125 2.84332 13.30831 2.84375 13.3125 L 3.3125 12.6875 C 4.6170785 13.429365 6.4060192 14 8 14 C 9.598782 14 11.351983 13.401328 12.65625 12.65625 L 13.15625 13.3125 L 14 12.75 L 12.375 10.59375 L 11.5625 11.1875 L 12.03125 11.8125 C 11.030728 12.365584 9.7016152 12.891717 8.5 12.96875 L 8.5 10 L 8.5 9 L 11 9 L 11 8 L 8.5 8 L 8.5 5.9375 C 9.3627 5.71554 10 4.93198 10 4 C 10 2.89543 9.10457 2 8 2 z M 8 3 C 8.55228 3 9 3.44772 9 4 C 9 4.55228 8.55228 5 8 5 C 7.44772 5 7 4.55228 7 4 C 7 3.44772 7.44772 3 8 3 z "
       transform="translate(421.71429,531.79074)"
       id="rect3870" />
  </g>
</svg>
