<svg viewBox="0 0 16 16" xmlns="http://www.w3.org/2000/svg"><path d="m10.601865 4.0000074q.48312 0 .896391.150489.413271.1504891.715948.4334084.302678.2829194.471479.6922497.174622.4093302.174622.9330321 0 .4394279-.128056.8186604-.122235.373213-.337602.716328-.209546.343115-.48894.674191-.279395.325056-.587893.656132l-1.961584 2.112866q.221187-.06621.442375-.102332.227008-.03612.430734-.03612h2.42724q.15716 0 .250291.09631.09313.09029.09313.246802v.607976h-5v-.343115q0-.102332.040745-.216704.040745-.120391.1396974-.216704l2.3690376-2.528211q.302677-.319037.541327-.613996.24447-.294958.413271-.589917.1688-.300978.261932-.6079755.09313-.3069977.09313-.6501127 0-.343115-.104773-.6019562-.09895-.2588411-.273575-.4273889-.174622-.1745673-.413271-.2588411-.23865-.084274-.518044-.084274-.273575 0-.506403.090293-.232828.084274-.41327.240783-.180442.150489-.308498.3671933-.128056.2106846-.186263.4635062-.046566.2046651-.1629806.2708803-.1105937.0601956-.3143189.0300978l-.5064028-.0842739q.0698486-.5477801.2793947-.9631298.2153666-.4213693.5355063-.7042888.3201393-.2829194.7334113-.4273888.419092-.1444695.902212-.1444695z" fill="#232629"/><path d="m2 8h5v1h-5z" fill="#da4453"/></svg>