<svg xmlns="http://www.w3.org/2000/svg" viewBox="0 0 16 16">
 <path 
     style="fill:#4d4d4d" 
     d="M 2 2 L 2 13 L 2 14 L 14 14 L 14 13 L 14 5 L 14 2 L 13 2 L 12 2 L 12 4 L 10 4 L 10 2 L 6 2 L 6 4 L 4 4 L 4 2 L 3 2 L 2 2 z M 3 5 L 13 5 L 13 13 L 3 13 L 3 5 z "
     />
 <path 
     style="fill:#1d99f3" 
     d="M 9.0625 6.75 L 8.3125 8 L 5 8 L 5 9 L 7.7128906 9 L 7.1132812 10 L 5 10 L 5 11 L 6.5117188 11 L 6.0625 11.75 L 6.9375 12.25 L 7.6875 11 L 11 11 L 11 10 L 8.2871094 10 L 8.8867188 9 L 11 9 L 11 8 L 9.4882812 8 L 9.9375 7.25 L 9.0625 6.75 z "
     />
 </svg>
