<svg xmlns="http://www.w3.org/2000/svg" viewBox="0 0 16 16">
 <path 
     style="fill:#4d4d4d" 
     d="M 4.1152344 6 L 1.2851562 14 L 2.4277344 14 L 3.4023438 11.714844 L 6.125 11.714844 L 7 14 L 8.1425781 14 L 5.5507812 6 L 4.1152344 6 z M 9 6 L 9 14 L 9.5722656 14 L 10.142578 14 L 13 14 A 2.2857143 2.2857143 0 0 0 15.285156 11.714844 A 2.2857143 2.2857143 0 0 0 13.751953 9.5605469 A 2.2857143 2.2857143 0 0 0 14.142578 8.2851562 A 2.2857143 2.2857143 0 0 0 11.857422 6 L 10.142578 6 L 9.5722656 6 L 9 6 z M 10.142578 7.1425781 L 11.857422 7.1425781 A 1.1428571 1.1428571 0 0 1 13 8.2851562 A 1.1428571 1.1428571 0 0 1 11.857422 9.4277344 L 10.142578 9.4277344 L 10.142578 7.1425781 z M 4.8320312 7.2402344 L 5.9042969 10.572266 L 3.6484375 10.572266 L 4.8320312 7.2402344 z M 10.142578 10.572266 L 13 10.572266 A 1.1428571 1.1428571 0 0 1 14.142578 11.714844 A 1.1428571 1.1428571 0 0 1 13 12.857422 L 10.142578 12.857422 L 10.142578 10.572266 z "
     />
 <path 
     style="fill:#1d99f3" 
     d="M 11.5 2 L 9 5 L 14 5 L 11.5 2 z "
     />
 </svg>
