<svg viewBox="0 0 16 16" xmlns="http://www.w3.org/2000/svg"><path d="m2 2v11.28125.71875h7.0546875a3.5 3.5 0 0 1 -1.0546875-2.5 3.5 3.5 0 0 1 3.5-3.5 3.5 3.5 0 0 1 .546875.046875l-1.046875-1.046875-3.34375 3.34375-1.34375-1.34375h-.03125l-3.28125 3.28125v-9.28125h10v5.3417969a3.5 3.5 0 0 1 1 .7089843v-7.0507812zm4 2c-1.1045695 0-2 .895431-2 2 0 1.10457.8954305 2 2 2s2-.89543 2-2c0-1.104569-.8954305-2-2-2zm8 9.945312a3.5 3.5 0 0 1 -.050781.054688h.050781z" fill="#4d4d4d"/><path d="m11.5 9c-1.385 0-2.5 1.115-2.5 2.5 0 .4334.12.8328.3125 1.1875l.75-.75c-.041-.1371-.0625-.2867-.0625-.4375 0-.831.669-1.5 1.5-1.5.15079 0 .30041.0225.4375.0625l.75-.75c-.35465-.1924-.75407-.3125-1.1875-.3125zm2.1875 1.314453-.75.748047c.041.1371.0625.2867.0625.4375 0 .831-.669 1.5-1.5 1.5-.15079 0-.30041-.02055-.4375-.06055l-.75.75c.35464.1924.75407.3125 1.1875.3125 1.385 0 2.5-1.115 2.5-2.5 0-.4334-.12-.8328-.3125-1.1875z" fill="#1d99f3"/></svg>