<svg viewBox="0 0 16 16" xmlns="http://www.w3.org/2000/svg">
  <path
     style="fill:#4d4d4d"
     d="M 2 3 A 1 1 0 0 1 1 4 L 1 5 L 1 12 A 1 1 0 0 1 2 13 L 13 13 L 14 13 A 1 1 0 0 1 15 12 L 15 11 L 15 5 L 15 4 A 1 1 0 0 1 14 3 L 2 3 z M 2.7285156 4 L 13.271484 4 A 2 2 0 0 0 14 4.7304688 L 14 11.269531 A 2 2 0 0 0 13.271484 12 L 2.7285156 12 A 2 2 0 0 0 2 11.269531 L 2 4.7304688 A 2 2 0 0 0 2.7285156 4 z M 8 6 A 2 2 0 0 0 6 8 A 2 2 0 0 0 8 10 A 2 2 0 0 0 10 8 A 2 2 0 0 0 8 6 z M 8 7 A 1 1 0 0 1 9 8 A 1 1 0 0 1 8 9 A 1 1 0 0 1 7 8 A 1 1 0 0 1 8 7 z "
     />
</svg>
