<svg viewBox="0 0 16 16" xmlns="http://www.w3.org/2000/svg">/&gt;<path d="m3.5 2c-.828427 0-1.5.6715511-1.5 1.5 0 .8283739.671573 1.5 1.5 1.5.2329951 0 .4595208-.0614501.65625-.15625l7 7c-.094794.196729-.15625.423255-.15625.65625 0 .828427.671573 1.5 1.5 1.5s1.5-.671573 1.5-1.5-.671573-1.5-1.5-1.5c-.232995 0-.459521.061456-.65625.15625l-7-7c.0947938-.1967247.15625-.4233003.15625-.65625 0-.8284489-.671573-1.5-1.5-1.5zm0 1c.2761424 0 .5.2238504.5.5s-.2238576.5-.5.5c-.2761423 0-.5-.2238504-.5-.5s.2238577-.5.5-.5zm9 9c.276142 0 .5.223858.5.5s-.223858.5-.5.5-.5-.223858-.5-.5.223858-.5.5-.5z" fill="#4d4d4d"/></svg>