<svg xmlns="http://www.w3.org/2000/svg" viewBox="0 0 16 16">
     />
 <path 
     style="fill:#4d4d4d" 
     d="M 3.5 2 C 2.67157 2 2 2.67155 2 3.5 C 2 4.32845 2.67157 5 3.5 5 C 4.15584 5 4.70241 4.58642 4.90625 4 L 7 4 L 7 12 L 7 13 L 8.5 13 L 11 13 L 11.09375 13 C 11.29759 13.586412 11.844162 14 12.5 14 C 13.328427 14 14 13.328427 14 12.5 C 14 11.671573 13.328427 11 12.5 11 C 11.844162 11 11.29759 11.413588 11.09375 12 L 11 12 L 8 12 L 8 3 L 7.5 3 L 4.90625 3 C 4.70241 2.41358 4.15584 2 3.5 2 z M 3.5 3 C 3.77614 3 4 3.22385 4 3.5 C 4 3.77615 3.77614 4 3.5 4 C 3.22386 4 3 3.77615 3 3.5 C 3 3.22385 3.22386 3 3.5 3 z M 12.5 12 C 12.776142 12 13 12.223858 13 12.5 C 13 12.776142 12.776142 13 12.5 13 C 12.223858 13 12 12.776142 12 12.5 C 12 12.223858 12.223858 12 12.5 12 z "
     />
 </svg>
