<svg xmlns="http://www.w3.org/2000/svg" viewBox="0 0 16 16">
     />
 <path 
     style="fill:#4d4d4d" 
     d="M 8 2 C 4.6862928 2 2 3.5669951 2 5.5 C 2 7.4330049 4.6862928 9 8 9 C 11.313707 9 14 7.4330049 14 5.5 C 14 3.5669951 11.313707 2 8 2 z M 6.5 9 C 5.1192881 9 4 9.4477153 4 10 C 4 10.552285 5.1192881 11 6.5 11 C 7.8807119 11 9 10.552285 9 10 C 9 9.4477153 7.8807119 9 6.5 9 z M 4.5 11.25 C 3.6715729 11.25 3 11.585786 3 12 C 3 12.414214 3.6715729 12.75 4.5 12.75 C 5.3284271 12.75 6 12.414214 6 12 C 6 11.585786 5.3284271 11.25 4.5 11.25 z M 3 13 C 2.4477153 13 2 13.223866 2 13.5 C 2 13.776134 2.4477153 14 3 14 C 3.5522847 14 4 13.776134 4 13.5 C 4 13.223866 3.5522847 13 3 13 z "
     />
 </svg>
