<svg viewBox="0 0 16 16" xmlns="http://www.w3.org/2000/svg"><path d="m3.5 2c-.8284271 0-1.5.6715729-1.5 1.5 0 .6558381.413588 1.2024102 1 1.40625v6.09375h-1v3h3v-3h-1c0-2.03125 0-4.0625 0-6.09375.4320931-.1501977.7560523-.4741569.90625-.90625h6.09375v1h3v-3h-3v1c-2.03125 0-4.0625 0-6.09375 0-.2038398-.586412-.7504119-1-1.40625-1zm0 1c.2761424 0 .5.2238576.5.5s-.2238576.5-.5.5-.5-.2238576-.5-.5.2238576-.5.5-.5zm8.5 0h1v1h-1zm-9 9h1v1h-1z" fill="#232629"/><path d="m11.5 9c-1.385 0-2.5 1.115-2.5 2.5 0 .4334.12.8328.3125 1.1875l.75-.75c-.041-.1371-.0625-.2867-.0625-.4375 0-.831.669-1.5 1.5-1.5.15079 0 .30041.0225.4375.0625l.75-.75c-.35465-.1924-.75407-.3125-1.1875-.3125zm2.1875 1.314453-.75.748047c.041.1371.0625.2867.0625.4375 0 .831-.669 1.5-1.5 1.5-.15079 0-.30041-.020547-.4375-.060547l-.75.75c.35464.1924.75407.3125 1.1875.3125 1.385 0 2.5-1.115 2.5-2.5 0-.4334-.12-.8328-.3125-1.1875z" fill="#3daee9"/></svg>