<svg viewBox="0 0 16 16" xmlns="http://www.w3.org/2000/svg">/&gt;<path d="m3.5 2c-.82844 0-1.5.67158-1.5 1.5 0 .8285.67156 1.5 1.5 1.5.65584 0 1.20241-.41358 1.40625-1h.09375 6.5c.82843 0 1.5.67158 1.5 1.5 0 .8285-.67157 1.5-1.5 1.5h-7c-1.38071 0-2.5 1.11933-2.5 2.5 0 1.38075 1.11929 2.5 2.5 2.5h6.5.09375c.20384.58641.75041 1 1.40625 1 .82843 0 1.5-.67157 1.5-1.5s-.67157-1.5-1.5-1.5c-.65584 0-1.20241.41359-1.40625 1h-.09375-6.5c-.82843 0-1.5-.6715-1.5-1.5 0-.82842.67157-1.5 1.5-1.5h7c1.38071 0 2.5-1.11925 2.5-2.5 0-1.38067-1.11929-2.5-2.5-2.5h-6.5-.09375c-.20384-.58642-.75041-1-1.40625-1zm0 1c.27614 0 .5.22392.5.5 0 .27617-.22386.5-.5.5s-.5-.22383-.5-.5c0-.27608.22386-.5.5-.5zm9 8c.27614 0 .5.22386.5.5s-.22386.5-.5.5-.5-.22386-.5-.5.22386-.5.5-.5z" fill="#4d4d4d"/></svg>