<svg xmlns="http://www.w3.org/2000/svg" viewBox="0 0 16 16">
 <path 
     style="fill:#4d4d4d" 
     d="M 4 2 L 4 3 L 7 3 L 7 8 L 8 8 L 8 3 L 11 3 L 11 2 L 4 2 z M 2 6 L 2 6.875 L 2 13.5 L 2 14 L 2.46875 14 L 12.4375 14 L 14 14 L 12.65625 13.125 L 2.6875 6.46875 L 2 6 z M 3 8 L 10.84375 13.03125 L 3 13 L 3 8 z "
     />
 <path 
     style="fill:#f47750" 
     d="M 13 2 C 12.447715 2 12 2.4477153 12 3 C 12 3.5522847 12.447715 4 13 4 C 13.552285 4 14 3.5522847 14 3 C 14 2.4477153 13.552285 2 13 2 z M 13 5 C 12.447715 5 12 5.4477153 12 6 C 12 6.5522847 12.447715 7 13 7 C 13.552285 7 14 6.5522847 14 6 C 14 5.4477153 13.552285 5 13 5 z M 13 8 C 12.447715 8 12 8.4477153 12 9 C 12 9.5522847 12.447715 10 13 10 C 13.552285 10 14 9.5522847 14 9 C 14 8.4477153 13.552285 8 13 8 z "
     />
 </svg>
