<svg viewBox="0 0 16 16" xmlns="http://www.w3.org/2000/svg">
  <path
     style="fill:#4d4d4d"
     d="M 3 2 L 3 5 L 4 5 L 13 5 L 13 4 L 13 2 L 3 2 z M 4 3 L 12 3 L 12 4 L 4 4 L 4 3 z M 3 8 L 3 9 L 3 14 L 8 14 L 8 13 L 4 13 L 4 9 L 8 9 L 8 8 L 4 8 L 3 8 z "
     />
  <path
     style="fill:#1d99f3"
     d="M 2,6 V 7 H 4 V 6 Z M 7,6 V 7 H 9 V 6 Z m 5,0 v 1 h 2 V 6 Z"
     />
  <path
     style="fill:#da4453"
     d="M 9.7128906,9 9,9.7011719 10.794922,11.5 9,13.298828 9.7128906,14 11.5,12.207031 13.289062,14 14,13.298828 12.205078,11.5 14,9.7011719 13.289062,9 11.5,10.792969 Z"
     />
</svg>
