<svg viewBox="0 0 16 16" xmlns="http://www.w3.org/2000/svg"><path d="m4.71875 3-1.03125 1h6.78125l1.5-1h-5.96875-1zm8.28125.4375c-.73229.52629-1.53021 1.09972-2 1.4375v5.4375c.54568-.5505.73662-.76068 1.28125-1.3125.01013.01134.71875-.75.71875-.75zm-2.5 8.5625v.03125l.03125-.03125z" fill="#b3b3b3"/><path d="m4.3125 2c-.9742643.9746321-2.3125 2.3125-2.3125 2.3125v.6875 7h8 .6875s3.32345-3.28265 3.3125-3.28125v-.28125-.4375-5.28125-.71875h-1-7zm.40625 1h.28125 1 5.96875l-1.5 1h-5.46875-1.3125zm8.28125.4375v4.8125s-.708619.7613376-.71875.75c-.54463.55182-.73557.762-1.28125 1.3125v-5.4375c.469795-.3377835 1.26771-.9112056 2-1.4375zm-10 1.5625h2 5v1 5h-7zm-1 8v1h12v-1z" fill="#4d4d4d"/></svg>