<svg viewBox="0 0 16 16" xmlns="http://www.w3.org/2000/svg">
  <path
     style="fill:#1d99f3"
     d="M 6 5 L 6 10 L 10 10 L 10 5 L 6 5 z M 7 6 L 9 6 L 9 9 L 7 9 L 7 6 z M 7 12 A 1 1 0 0 0 6 13 A 1 1 0 0 0 7 14 A 1 1 0 0 0 8 13 A 1 1 0 0 0 7 12 z M 10 12 A 1 1 0 0 0 9 13 A 1 1 0 0 0 10 14 A 1 1 0 0 0 11 13 A 1 1 0 0 0 10 12 z M 13 12 A 1 1 0 0 0 12 13 A 1 1 0 0 0 13 14 A 1 1 0 0 0 14 13 A 1 1 0 0 0 13 12 z "
     />
  <path
     style="fill:#4d4d4d"
     d="M 2 2 L 2 14 L 5 14 L 5 13 L 3 13 L 3 10 L 5 10 L 5 9 L 3 9 L 3 6 L 5 6 L 5 5 L 3 5 L 3 3 L 6 3 L 6 4 L 7 4 L 7 3 L 9 3 L 9 4 L 10 4 L 10 3 L 13 3 L 13 5 L 11 5 L 11 6 L 13 6 L 13 9 L 11 9 L 11 10 L 13 10 L 13 11 L 14 11 L 14 2 L 2 2 z "
     />
</svg>
