<svg xmlns="http://www.w3.org/2000/svg" viewBox="0 0 16 16">
 <path
   style="fill:#4d4d4d"
   d="M 4 2 L 4 4 L 2 4 L 2 5 L 4 5 L 4 11 L 4 12 L 5 12 L 5 11 L 5.6875 11 L 11 5.6875 L 11 11 L 12 11 L 12 5 L 12 4.6875 L 14 2.6875 L 13.3125 2 L 11.3125 4 L 11 4 L 5 4 L 5 2 L 4 2 z M 5 5 L 10.3125 5 L 5 10.3125 L 5 5 z "
   />
<path
   style="fill:#f47750"
   d="m 7,12 c -0.55228,0 -1,0.44772 -1,1 0,0.55228 0.44772,1 1,1 0.55228,0 1,-0.44772 1,-1 0,-0.55228 -0.44772,-1 -1,-1 z m 3,0 c -0.55228,0 -1,0.44772 -1,1 0,0.55228 0.44772,1 1,1 0.55228,0 1,-0.44772 1,-1 0,-0.55228 -0.44772,-1 -1,-1 z m 3,0 c -0.55228,0 -1,0.44772 -1,1 0,0.55228 0.44772,1 1,1 0.55228,0 1,-0.44772 1,-1 0,-0.55228 -0.44772,-1 -1,-1 z"
   />
</svg>
