<svg xmlns="http://www.w3.org/2000/svg" viewBox="0 0 16 16">
 <path 
     style="fill:#4d4d4d" 
     d="M 3 2 L 2 3 L 2 4 L 2 4.3125 L 6 9.96875 L 6 10 L 6 11 L 7 11 L 7 10 L 7 9.625 L 3 4 L 3 3 L 7.25 3 L 9 3 L 13 3 L 13 4 L 9 9.625 L 9 10 L 9 11 L 10 11 L 10 10 L 10 9.96875 L 14 4.3125 L 14 3 L 13 2 L 9 2 L 7.25 2 L 3 2 z "
     />
 <path 
     style="fill:#f47750" 
     d="M 7 12 C 6.4477153 12 6 12.447715 6 13 C 6 13.552285 6.4477153 14 7 14 C 7.5522847 14 8 13.552285 8 13 C 8 12.447715 7.5522847 12 7 12 z M 10 12 C 9.4477153 12 9 12.447715 9 13 C 9 13.552285 9.4477153 14 10 14 C 10.552285 14 11 13.552285 11 13 C 11 12.447715 10.552285 12 10 12 z M 13 12 C 12.447715 12 12 12.447715 12 13 C 12 13.552285 12.447715 14 13 14 C 13.552285 14 14 13.552285 14 13 C 14 12.447715 13.552285 12 13 12 z "
     />
 </svg>
