<svg xmlns="http://www.w3.org/2000/svg" viewBox="0 0 16 16">
 <path 
     style="fill:#4d4d4d" 
     d="M 6 2 L 6 4 L 6 5 L 6 7 L 6 8 L 8.7695312 8 C 9.7923012 8 10.615234 7.10799 10.615234 6 C 10.615234 5.18909 10.157021 4.502 9.5195312 4.1875 C 9.6173313 3.9817 9.6914062 3.7483 9.6914062 3.5 C 9.6914062 2.669 9.0756737 2 8.3085938 2 L 6.9238281 2 L 6 2 z M 6.9238281 3 L 8.3085938 3 C 8.5642937 3 8.7695312 3.22299 8.7695312 3.5 C 8.7695312 3.77701 8.5642937 4 8.3085938 4 L 6.9238281 4 L 6.9238281 3 z M 6.9238281 5 L 8.3085938 5 L 8.7695312 5 C 9.2809213 5 9.6914062 5.44598 9.6914062 6 C 9.6914062 6.55399 9.2809213 7 8.7695312 7 L 6.9238281 7 L 6.9238281 5 z M 4 9 C 2.61929 9 1.5 10.11929 1.5 11.5 C 1.5 12.88071 2.61929 14 4 14 L 5 14 L 5 13 L 4 13 C 3.17157 13 2.5 12.32843 2.5 11.5 C 2.5 10.67157 3.17157 10 4 10 L 5 10 L 5 9 L 4 9 z M 6 9 L 6 14 L 7 14 L 8.5 14 C 9.32843 14 10 13.32843 10 12.5 L 10 10.5 C 10 9.67157 9.32843 9 8.5 9 L 7 9 L 6 9 z M 7 10 L 8.5 10 C 8.77614 10 9 10.22386 9 10.5 L 9 11.09375 L 9 11.90625 L 9 12.5 C 9 12.77614 8.77614 13 8.5 13 L 7 13 L 7 10 z "
     />
 <path 
     style="fill:#1d99f3" 
     d="M 11 4 L 11 5 L 14.5 5 L 14.5 4 L 11 4 z "
     />
 </svg>
