<svg viewBox="0 0 16 16" xmlns="http://www.w3.org/2000/svg">/&gt;<path d="m8 2a5.9999979 5.2499971 0 0 0 -6 5.25 5.9999979 5.2499971 0 0 0 3 4.53125l.25.71875h-2.5c-.595693-.159637-.7252166-.4952-.75-.65625v2.15625h4.8125v-1.5-.3125l-.40625-.15625a3.7499804 4.874985 0 0 1 -2.15625-4.40625 3.7499804 4.874985 0 0 1 3.75-4.875 3.7499804 4.874985 0 0 1 3.75 4.875 3.7499804 4.874985 0 0 1 -2.15625 4.40625l-.40625.15625v.3125 1.5h4.8125v-2.15625c-.024783.16105-.154307.496613-.75.65625h-2.5l.25-.71875a5.9999979 5.2499971 0 0 0 3-4.53125 5.9999979 5.2499971 0 0 0 -6-5.25z" fill="#4d4d4d"/></svg>