<?xml version="1.0" encoding="UTF-8" standalone="no"?>
<!-- Created with Inkscape (http://www.inkscape.org/) -->

<svg
   xmlns:dc="http://purl.org/dc/elements/1.1/"
   xmlns:cc="http://creativecommons.org/ns#"
   xmlns:rdf="http://www.w3.org/1999/02/22-rdf-syntax-ns#"
   xmlns:svg="http://www.w3.org/2000/svg"
   xmlns="http://www.w3.org/2000/svg"
   xmlns:sodipodi="http://sodipodi.sourceforge.net/DTD/sodipodi-0.dtd"
   xmlns:inkscape="http://www.inkscape.org/namespaces/inkscape"
   width="16"
   height="16"
   id="svg3049"
   version="1.1"
   inkscape:version="0.91 r13725"
   sodipodi:docname="sc_insertcolumnsafter.svg"
   inkscape:export-filename="/home/uri/.kde/share/icons/NITRUX-KDE/16x16/actions/view-right-new.png"
   inkscape:export-xdpi="30"
   inkscape:export-ydpi="30">
  <defs
     id="defs3051" />
  <sodipodi:namedview
     id="base"
     pagecolor="#ffffff"
     bordercolor="#666666"
     borderopacity="1.0"
     inkscape:pageopacity="0.0"
     inkscape:pageshadow="2"
     inkscape:zoom="34.5228"
     inkscape:cx="1.5743464"
     inkscape:cy="11.82468"
     inkscape:document-units="px"
     inkscape:current-layer="layer1"
     showgrid="true"
     fit-margin-top="0"
     fit-margin-left="0"
     fit-margin-right="0"
     fit-margin-bottom="0"
     inkscape:window-width="1920"
     inkscape:window-height="1021"
     inkscape:window-x="-4"
     inkscape:window-y="0"
     inkscape:window-maximized="1"
     inkscape:showpageshadow="false"
     borderlayer="true"
     inkscape:snap-bbox="true"
     inkscape:snap-global="true">
    <inkscape:grid
       type="xygrid"
       id="grid4085" />
    <sodipodi:guide
       position="2,15"
       orientation="12,0"
       id="guide4075" />
    <sodipodi:guide
       position="17,2"
       orientation="0,12"
       id="guide4077" />
    <sodipodi:guide
       position="14,13"
       orientation="-12,0"
       id="guide4079" />
    <sodipodi:guide
       position="0,14"
       orientation="0,-12"
       id="guide4081" />
  </sodipodi:namedview>
  <metadata
     id="metadata3054">
    <rdf:RDF>
      <cc:Work
         rdf:about="">
        <dc:format>image/svg+xml</dc:format>
        <dc:type
           rdf:resource="http://purl.org/dc/dcmitype/StillImage" />
        <dc:title></dc:title>
      </cc:Work>
    </rdf:RDF>
  </metadata>
  <g
     inkscape:label="Capa 1"
     inkscape:groupmode="layer"
     id="layer1"
     transform="translate(-421.71429,-531.79074)">
    <path
       sodipodi:nodetypes="ccccccccccccc"
       inkscape:connector-curvature="0"
       id="rect4112"
       d="m 432.71429,540.79074 0,2 -2,0 0,1 2,0 0,2 1,0 0,-2 2,0 0,-1 -2,0 0,-2 z"
       style="fill:#4d4d4d;fill-opacity:1;stroke:none" />
    <g
       id="g4142"
       transform="matrix(0,1,1,0,-110.07645,110.07647)">
      <path
         id="rect6826-6"
         transform="translate(421.71429,531.79074)"
         d="m 2,2 0,1 0,4 0,2 1,0 0,-2 3,0 0,2 1,0 0,-2 2,0 0,2 1,0 0,-2 3,0 0,1 0,1 1,0 L 14,8 14,7 14,3 14,2 10,2 9,2 2,2 Z M 3,3 6,3 6,6 3,6 3,3 Z M 7,3 9,3 9,6 7,6 7,3 Z m 3,0 3,0 0,3 -3,0 0,-3 z"
         style="color:#000000;display:inline;overflow:visible;visibility:visible;fill:#4d4d4d;fill-opacity:1;fill-rule:nonzero;stroke:none;stroke-width:2;marker:none;enable-background:accumulate"
         inkscape:connector-curvature="0" />
      <path
         id="rect4197-9-0"
         transform="translate(421.71429,531.79074)"
         d="M 2,9 2,10 2,12.28125 2,14 3,14 4.28125,14 5.71875,14 6,14 7,14 8.28125,14 9,14 9,13 7,13 6.71875,13 7,12.71875 l 1,-1 1,-1 L 9,9 8,9 7,9 6,9 5.28125,9 4,9 3,9 2,9 Z m 1,1 1,0 0.28125,0 L 4,10.28125 l -1,1 L 3,10 Z M 5.71875,10 6,10 7,10 8,10 8.28125,10 8,10.28125 l -1,1 -1,1 L 5.28125,13 3,13 l 0,-0.28125 1,-1 L 5.71875,10 Z"
         style="fill:#1d99f3;fill-opacity:1;stroke:none"
         inkscape:connector-curvature="0" />
      <g
         inkscape:label="Capa 1"
         id="layer1-0"
         transform="matrix(1,0,0,-1,-38.260002,1085.93)" />
    </g>
  </g>
</svg>
