<svg xmlns="http://www.w3.org/2000/svg" viewBox="0 0 16 16">
     />
 <path 
     style="fill:#4d4d4d" 
     d="M 5 2 L 5 3 L 5 10.28125 C 4.7054558 10.110475 4.3649652 10 4 10 C 2.8954305 10 2 10.895478 2 12 C 2 13.104597 2.8954305 14 4 14 C 5.1045695 14 6 13.104597 6 12 L 6 5 L 13 5 L 13 9.28125 C 12.705456 9.1105504 12.364965 9 12 9 C 10.895431 9 10 9.8954028 10 11 C 10 12.104597 10.895432 13 12 13 C 13.104569 13 14 12.104597 14 11 L 14 3 L 14 2 L 5 2 z M 6 3 L 13 3 L 13 4 L 6 4 L 6 3 z "
     />
 </svg>
