<svg xmlns="http://www.w3.org/2000/svg" viewBox="0 0 16 16">
     />
 <path 
     style="fill:#4d4d4d" 
     d="M 8 2 A 5.9999979 5.2499971 0 0 0 2 7.25 A 5.9999979 5.2499971 0 0 0 5 11.78125 L 5.25 12.5 L 2.75 12.5 C 2.154307 12.340363 2.0247834 12.0048 2 11.84375 L 2 14 L 6.8125 14 L 6.8125 12.5 L 6.8125 12.1875 L 6.40625 12.03125 A 3.7499804 4.874985 0 0 1 4.25 7.625 A 3.7499804 4.874985 0 0 1 8 2.75 A 3.7499804 4.874985 0 0 1 11.75 7.625 A 3.7499804 4.874985 0 0 1 9.59375 12.03125 L 9.1875 12.1875 L 9.1875 12.5 L 9.1875 14 L 14 14 L 14 11.84375 C 13.975217 12.0048 13.845693 12.340363 13.25 12.5 L 10.75 12.5 L 11 11.78125 A 5.9999979 5.2499971 0 0 0 14 7.25 A 5.9999979 5.2499971 0 0 0 8 2 z "
     />
 </svg>
