<svg viewBox="0 0 16 16" xmlns="http://www.w3.org/2000/svg"><path d="m6 3v3h8v-3zm0 6v3h2v-3z" fill="#b3b3b3"/><path d="m2 9v3h3v-3z" fill="#da4453"/><path d="m12.451172 7.0078125s-.493834 1.1532394-.853516 1.9921875h-2.597656v1h2.169922c-.212283.495276-.222966.522029-.427734 1h-1.742188v1h1.3125c-.254462.594597-.6898407 1.610054-.6894531 1.611328l.9179691.394531c.000881.000608.495925-1.157389.859375-2.005859h2.599609v-1h-2.171875c.212288-.495945.223509-.522716.427734-1h1.744141v-1h-1.314453c.250707-.5860423.683594-1.5976562.683594-1.5976562z" fill="#4d4d4d"/><path d="m2 3v3h3v-3z" fill="#2ecc71"/></svg>