<svg height="16" width="16" xmlns="http://www.w3.org/2000/svg" xmlns:xlink="http://www.w3.org/1999/xlink"><linearGradient id="a" gradientTransform="matrix(.71428567 0 0 .71428965 3.142856 297.52813)" gradientUnits="userSpaceOnUse" x1="3" x2="19" y1="1049.3622" y2="1033.3622"><stop offset="0" stop-color="#1d99f3"/><stop offset=".41666669" stop-color="#48acf5" stop-opacity=".761194"/><stop offset=".66666329" stop-color="#73c0f7" stop-opacity="0"/><stop offset="1" stop-color="#cae7fc" stop-opacity="0"/></linearGradient><g transform="matrix(.75 0 0 .74999813 -.249999 -773.019863)"><path d="m5.666666 1036.0291h10.666667v10.666708h-10.666667z" fill="#b3b3b3"/><path d="m5.666666 1041.3624h5.333333v5.333347h-5.333333z" fill="#777"/><path d="m10.999999 1036.0291h5.333333v5.333347h-5.333333z" fill="#777"/><path d="m14.999999 1034.6957-1.333333 1.3334h-8v9.3333h-1.3333333v2.6667h2.6666667l1.3333333-1.3333h8.0000003v-8.0001l1.333333-1.3333-.000001-2.6667z" fill="url(#a)"/><path d="m14.999999 1034.6957v1.3333h1.333333v1.3334h1.333333v-1.3334-1.3333h-1.333333z" fill="#999" fill-opacity=".761194"/><path d="m10 2v3.28125l-1 1-.1875.1875-.8125.8125-.71875.71875-2 2h-3.28125v4h4v-3.28125l2.71875-2.71875.8125-.8125.1875-.1875 1-1h3.28125v-4zm1 1h2v2h-2zm-8 8h2v2h-2z" fill="#4d4d4d" transform="matrix(1.3333333 0 0 1.3333367 .333333 1030.6957)"/></g></svg>