<svg viewBox="0 0 16 16" xmlns="http://www.w3.org/2000/svg"><path d="m2 2v3h8v-3zm4 4c-1.06609 0-1.53125.3482772-1.53125 1.25v1.21875c0 .5568736-.0050025 1.21875-.59375 1.21875h-.3125v.625h.3125c.58889 0 .59375.661876.59375 1.21875v1.21875c0 .901648.46516 1.25 1.53125 1.25v-.59375c-.7107199 0-.71875-.227427-.71875-1.09375v-1.03125c0-.415499-.15096-1.024901-.75-1.28125.59904-.2563494.75-.865751.75-1.28125v-1.03125c0-.8663228.0080003-1.09375.71875-1.09375zm1 0v1h1v-1zm2 0v.59375c.71073 0 .71875.2274272.71875 1.09375v1.03125c0 .415499.11971 1.0249006.71875 1.28125-.59904.256349-.71875.865751-.71875 1.28125v1.03125c0 .866323-.0080028 1.09375-.71875 1.09375v.59375c1.066099 0 1.53124-.348352 1.53125-1.25v-1.21875c0-.556874.046297-1.21875.625-1.21875h.28125v-.625h-.28125c-.578741 0-.62501-.6618764-.625-1.21875v-1.21875c0-.9017228-.465151-1.25-1.53125-1.25zm4 0a.99999998 1 0 0 0 -1 1 .99999998 1 0 0 0 1 1 .99999998 1 0 0 0 1-1 .99999998 1 0 0 0 -1-1zm-6 2v5h1v-5zm6 1a.99999998 1.0000024 0 0 0 -1 1 .99999998 1.0000024 0 0 0 1 1 .99999998 1.0000024 0 0 0 1-1 .99999998 1.0000024 0 0 0 -1-1zm0 3a.99999998 1.0000024 0 0 0 -1 1 .99999998 1.0000024 0 0 0 1 1 .99999998 1.0000024 0 0 0 1-1 .99999998 1.0000024 0 0 0 -1-1z" fill="#4d4d4d"/><path d="m11 2 1.5 3 1.5-3z" fill="#f47750"/></svg>