<svg viewBox="0 0 16 16" xmlns="http://www.w3.org/2000/svg">/&gt;<path d="m1 2v12h7v-1h-5.34375l3.9863281-4.6503906.3574219.3574218v-1.4140624l-4.2929688-4.2929688h10.5859378l-3 3h1.414062c1.040139-1.0399696 2.292969-2.2929685 2.292969-2.2929688v3.2929688h1v-5zm1 1.7070312 3.9335938 3.9335938-3.9335938 4.589844zm7.5 3.2929688-.53125.96875-.96875.53125.96875.53125.53125.96875.53125-.96875.96875-.53125-.96875-.53125zm4.0625 1-1.75 1.75-.25.25-1 1-.75.75-.25.25-.5625.5625 1.4375 1.4375.5625-.5625.25-.25 1.75-1.75.25-.25 1.75-1.75zm0 .71875.71875.71875-1.390625 1.390625-.71875-.71875z" fill="#4d4d4d"/></svg>