<?xml version="1.0" encoding="UTF-8" standalone="no"?>
<svg
   xmlns:dc="http://purl.org/dc/elements/1.1/"
   xmlns:cc="http://creativecommons.org/ns#"
   xmlns:rdf="http://www.w3.org/1999/02/22-rdf-syntax-ns#"
   xmlns:svg="http://www.w3.org/2000/svg"
   xmlns="http://www.w3.org/2000/svg"
   xmlns:sodipodi="http://sodipodi.sourceforge.net/DTD/sodipodi-0.dtd"
   xmlns:inkscape="http://www.inkscape.org/namespaces/inkscape"
   viewBox="0 0 16 16"
   version="1.1"
   id="svg8"
   sodipodi:docname="sc_merge.svg"
   inkscape:version="0.92.4 (unknown)">
  <metadata
     id="metadata14">
    <rdf:RDF>
      <cc:Work
         rdf:about="">
        <dc:format>image/svg+xml</dc:format>
        <dc:type
           rdf:resource="http://purl.org/dc/dcmitype/StillImage" />
        <dc:title></dc:title>
      </cc:Work>
    </rdf:RDF>
  </metadata>
  <defs
     id="defs12" />
  <sodipodi:namedview
     pagecolor="#ffffff"
     bordercolor="#666666"
     borderopacity="1"
     objecttolerance="10"
     gridtolerance="10"
     guidetolerance="10"
     inkscape:pageopacity="0"
     inkscape:pageshadow="2"
     inkscape:window-width="1360"
     inkscape:window-height="714"
     id="namedview10"
     showgrid="true"
     inkscape:zoom="14.75"
     inkscape:cx="8.7815464"
     inkscape:cy="1.6867044"
     inkscape:window-x="0"
     inkscape:window-y="28"
     inkscape:window-maximized="1"
     inkscape:current-layer="svg8">
    <inkscape:grid
       type="xygrid"
       id="grid821" />
  </sodipodi:namedview>
  <path
     style="fill:#232629"
     d="M 9.5 2 A 4.5 4.5 0 0 0 5.0332031 6 L 2 6 L 2 14 L 10 14 L 10 10.96875 A 4.5 4.5 0 0 0 14 6.5 A 4.5 4.5 0 0 0 9.5 2 z M 9.5 3 A 3.5 3.5 0 0 1 9.8125 3.015625 A 3.5 3.5 0 0 1 9.9453125 3.0332031 A 3.5 3.5 0 0 1 10.15625 3.0644531 A 3.5 3.5 0 0 1 10.292969 3.0957031 A 3.5 3.5 0 0 1 10.486328 3.1445312 A 3.5 3.5 0 0 1 10.683594 3.2089844 A 3.5 3.5 0 0 1 10.796875 3.2519531 A 3.5 3.5 0 0 1 11.001953 3.34375 A 3.5 3.5 0 0 1 11.125 3.4023438 A 3.5 3.5 0 0 1 11.294922 3.5 A 3.5 3.5 0 0 1 11.429688 3.5820312 A 3.5 3.5 0 0 1 11.572266 3.6835938 A 3.5 3.5 0 0 1 11.716797 3.7949219 A 3.5 3.5 0 0 1 11.837891 3.9003906 A 3.5 3.5 0 0 1 11.972656 4.0273438 A 3.5 3.5 0 0 1 12.099609 4.1621094 A 3.5 3.5 0 0 1 12.205078 4.2832031 A 3.5 3.5 0 0 1 12.316406 4.4277344 A 3.5 3.5 0 0 1 12.417969 4.5703125 A 3.5 3.5 0 0 1 12.5 4.7050781 A 3.5 3.5 0 0 1 12.597656 4.875 A 3.5 3.5 0 0 1 12.65625 4.9980469 A 3.5 3.5 0 0 1 12.748047 5.203125 A 3.5 3.5 0 0 1 12.791016 5.3164062 A 3.5 3.5 0 0 1 12.855469 5.5136719 A 3.5 3.5 0 0 1 12.904297 5.7070312 A 3.5 3.5 0 0 1 12.935547 5.84375 A 3.5 3.5 0 0 1 12.966797 6.0546875 A 3.5 3.5 0 0 1 12.984375 6.1875 A 3.5 3.5 0 0 1 13 6.5 A 3.5 3.5 0 0 1 12.984375 6.8125 A 3.5 3.5 0 0 1 12.966797 6.9453125 A 3.5 3.5 0 0 1 12.935547 7.15625 A 3.5 3.5 0 0 1 12.904297 7.2929688 A 3.5 3.5 0 0 1 12.855469 7.4863281 A 3.5 3.5 0 0 1 12.791016 7.6835938 A 3.5 3.5 0 0 1 12.748047 7.796875 A 3.5 3.5 0 0 1 12.65625 8.0019531 A 3.5 3.5 0 0 1 12.597656 8.125 A 3.5 3.5 0 0 1 12.5 8.2949219 A 3.5 3.5 0 0 1 12.417969 8.4296875 A 3.5 3.5 0 0 1 12.316406 8.5722656 A 3.5 3.5 0 0 1 12.205078 8.7167969 A 3.5 3.5 0 0 1 12.099609 8.8378906 A 3.5 3.5 0 0 1 11.972656 8.9726562 A 3.5 3.5 0 0 1 11.837891 9.0996094 A 3.5 3.5 0 0 1 11.716797 9.2050781 A 3.5 3.5 0 0 1 11.572266 9.3164062 A 3.5 3.5 0 0 1 11.429688 9.4179688 A 3.5 3.5 0 0 1 11.294922 9.5 A 3.5 3.5 0 0 1 11.125 9.5976562 A 3.5 3.5 0 0 1 11.001953 9.65625 A 3.5 3.5 0 0 1 10.796875 9.7480469 A 3.5 3.5 0 0 1 10.683594 9.7910156 A 3.5 3.5 0 0 1 10.486328 9.8554688 A 3.5 3.5 0 0 1 10.292969 9.9042969 A 3.5 3.5 0 0 1 10.15625 9.9355469 A 3.5 3.5 0 0 1 9.9453125 9.9667969 A 3.5 3.5 0 0 1 9.8125 9.984375 A 3.5 3.5 0 0 1 9.5 10 A 3.5 3.5 0 0 1 9.28125 9.9882812 A 3.5 3.5 0 0 1 9 9.9589844 L 9 10.966797 L 9 13 L 3 13 L 3 7 L 5.03125 7 L 6.0390625 7 A 3.5 3.5 0 0 1 6.0371094 6.9824219 A 3.5 3.5 0 0 1 6.0195312 6.8378906 A 3.5 3.5 0 0 1 6 6.5 A 3.5 3.5 0 0 1 6.015625 6.1875 A 3.5 3.5 0 0 1 6.0332031 6.0546875 A 3.5 3.5 0 0 1 6.0644531 5.84375 A 3.5 3.5 0 0 1 6.0957031 5.7070312 A 3.5 3.5 0 0 1 6.1445312 5.5136719 A 3.5 3.5 0 0 1 6.2089844 5.3164062 A 3.5 3.5 0 0 1 6.2519531 5.203125 A 3.5 3.5 0 0 1 6.34375 4.9980469 A 3.5 3.5 0 0 1 6.4023438 4.875 A 3.5 3.5 0 0 1 6.5 4.7050781 A 3.5 3.5 0 0 1 6.5820312 4.5703125 A 3.5 3.5 0 0 1 6.6835938 4.4277344 A 3.5 3.5 0 0 1 6.7949219 4.2832031 A 3.5 3.5 0 0 1 6.9003906 4.1621094 A 3.5 3.5 0 0 1 7.0273438 4.0273438 A 3.5 3.5 0 0 1 7.1621094 3.9003906 A 3.5 3.5 0 0 1 7.2832031 3.7949219 A 3.5 3.5 0 0 1 7.4277344 3.6835938 A 3.5 3.5 0 0 1 7.5703125 3.5820312 A 3.5 3.5 0 0 1 7.7050781 3.5 A 3.5 3.5 0 0 1 7.875 3.4023438 A 3.5 3.5 0 0 1 7.9980469 3.34375 A 3.5 3.5 0 0 1 8.203125 3.2519531 A 3.5 3.5 0 0 1 8.3164062 3.2089844 A 3.5 3.5 0 0 1 8.5136719 3.1445312 A 3.5 3.5 0 0 1 8.7070312 3.0957031 A 3.5 3.5 0 0 1 8.84375 3.0644531 A 3.5 3.5 0 0 1 9.0546875 3.0332031 A 3.5 3.5 0 0 1 9.1875 3.015625 A 3.5 3.5 0 0 1 9.5 3 z "
     id="path4" />
</svg>
