<?xml version="1.0" encoding="UTF-8" standalone="no"?>
<!-- Created with Inkscape (http://www.inkscape.org/) -->

<svg
   xmlns:dc="http://purl.org/dc/elements/1.1/"
   xmlns:cc="http://creativecommons.org/ns#"
   xmlns:rdf="http://www.w3.org/1999/02/22-rdf-syntax-ns#"
   xmlns:svg="http://www.w3.org/2000/svg"
   xmlns="http://www.w3.org/2000/svg"
   xmlns:sodipodi="http://sodipodi.sourceforge.net/DTD/sodipodi-0.dtd"
   xmlns:inkscape="http://www.inkscape.org/namespaces/inkscape"
   width="16"
   height="16"
   id="svg3049"
   version="1.1"
   inkscape:version="0.48.4 r9939"
   sodipodi:docname="sc_macrorecorder.svg"
   inkscape:export-filename="/home/uri/.kde/share/icons/NITRUX-KDE/16x16/actions/view-right-new.png"
   inkscape:export-xdpi="30"
   inkscape:export-ydpi="30">
  <defs
     id="defs3051" />
  <sodipodi:namedview
     id="base"
     pagecolor="#ffffff"
     bordercolor="#666666"
     borderopacity="1.0"
     inkscape:pageopacity="0.0"
     inkscape:pageshadow="2"
     inkscape:zoom="34.5228"
     inkscape:cx="4.1873909"
     inkscape:cy="5.2598796"
     inkscape:document-units="px"
     inkscape:current-layer="layer1"
     showgrid="true"
     fit-margin-top="0"
     fit-margin-left="0"
     fit-margin-right="0"
     fit-margin-bottom="0"
     inkscape:window-width="1868"
     inkscape:window-height="1060"
     inkscape:window-x="50"
     inkscape:window-y="-3"
     inkscape:window-maximized="1"
     inkscape:showpageshadow="false"
     borderlayer="true"
     inkscape:snap-bbox="true">
    <inkscape:grid
       type="xygrid"
       id="grid4085" />
    <sodipodi:guide
       position="2.0000044,14.00003"
       orientation="12,0"
       id="guide4075" />
    <sodipodi:guide
       position="2.0000044,2.0000296"
       orientation="0,12"
       id="guide4077" />
    <sodipodi:guide
       position="14.000004,2.0000296"
       orientation="-12,0"
       id="guide4079" />
    <sodipodi:guide
       position="14.000004,14.00003"
       orientation="0,-12"
       id="guide4081" />
  </sodipodi:namedview>
  <metadata
     id="metadata3054">
    <rdf:RDF>
      <cc:Work
         rdf:about="">
        <dc:format>image/svg+xml</dc:format>
        <dc:type
           rdf:resource="http://purl.org/dc/dcmitype/StillImage" />
        <dc:title></dc:title>
      </cc:Work>
    </rdf:RDF>
  </metadata>
  <g
     inkscape:label="Capa 1"
     inkscape:groupmode="layer"
     id="layer1"
     transform="translate(-421.71429,-531.79074)">
    <path
       style="color:#000000;fill:#4d4d4d;fill-opacity:1;fill-rule:nonzero;stroke:none;stroke-width:2;marker:none;visibility:visible;display:inline;overflow:visible;enable-background:accumulate"
       d="M 7 2 L 7 3.09375 C 6.681715 3.15888 6.3861487 3.247285 6.09375 3.375 C 6.0817388 3.3799696 6.0744638 3.4011897 6.0625 3.40625 C 5.9361483 3.4627067 5.8083472 3.5278417 5.6875 3.59375 C 5.536355 3.6736325 5.391471 3.749326 5.25 3.84375 L 5.21875 3.84375 L 4.40625 3 L 3 4.40625 L 3.84375 5.21875 L 3.84375 5.25 C 3.6716476 5.5092801 3.5292405 5.771744 3.40625 6.0625 C 3.4027151 6.0710198 3.4097397 6.0852067 3.40625 6.09375 C 3.3457184 6.2392428 3.2736663 6.3805261 3.21875 6.53125 C 3.1638338 6.6819737 3.126055 6.84214 3.09375 7 L 2 7 L 2 9 L 3.09375 9 C 3.15888 9.318285 3.2472838 9.6138512 3.375 9.90625 C 3.3799696 9.9182612 3.4011897 9.9255362 3.40625 9.9375 C 3.5306195 10.21584 3.6774056 10.49942 3.84375 10.75 C 3.848953 10.757795 3.8385045 10.773486 3.84375 10.78125 L 3 11.59375 L 4.40625 13 L 5.21875 12.15625 C 5.4652602 12.322789 5.7255583 12.444397 6 12.5625 C 6.0217 12.571838 6.0405835 12.58448 6.0625 12.59375 C 6.0710198 12.597285 6.0852067 12.59026 6.09375 12.59375 C 6.2265083 12.648392 6.3624995 12.706343 6.5 12.75 C 6.6631459 12.810904 6.8285296 12.871162 7 12.90625 L 7 14 L 9 14 L 9 12.90625 C 9.33238 12.83825 9.63334 12.7216 9.9375 12.59375 C 10.22334 12.47286 10.49425 12.35713 10.75 12.1875 L 11.59375 13 L 13 11.59375 L 12.1875 10.75 C 12.340802 10.518876 12.45795 10.257538 12.5625 10 C 12.571351 9.9781978 12.585144 9.9592717 12.59375 9.9375 C 12.648096 9.8090105 12.675542 9.6658631 12.71875 9.53125 C 12.722848 9.5186941 12.745595 9.5124738 12.75 9.5 C 12.808184 9.3349688 12.86966 9.17881 12.90625 9 L 14 9 L 14 7 L 12.90625 7 C 12.840969 6.6809894 12.746777 6.3854815 12.625 6.09375 C 12.62 6.08175 12.59875 6.0744 12.59375 6.0625 C 12.537133 5.9286439 12.466664 5.8147852 12.40625 5.6875 C 12.401948 5.6793622 12.410531 5.6643521 12.40625 5.65625 C 12.341003 5.5208234 12.272312 5.3778745 12.1875 5.25 L 13 4.40625 L 11.59375 3 L 10.75 3.8125 C 10.499303 3.6462249 10.216438 3.5165146 9.9375 3.40625 C 9.9284625 3.4024274 9.9154288 3.4098166 9.90625 3.40625 C 9.8761486 3.3937255 9.842793 3.3875725 9.8125 3.375 C 9.5499603 3.2660384 9.2830683 3.1516672 9 3.09375 L 9 2 L 7 2 z M 8 4 C 8.5279845 4 9.038539 4.0953969 9.5 4.28125 C 9.7026002 4.3624855 9.9093011 4.482064 10.09375 4.59375 C 10.113317 4.6057302 10.136906 4.6126947 10.15625 4.625 C 10.325923 4.7319405 10.473983 4.8382996 10.625 4.96875 C 10.647478 4.98818 10.665463 5.011332 10.6875 5.03125 C 10.821181 5.1518603 10.946272 5.2999655 11.0625 5.4375 C 11.071786 5.4484886 11.084582 5.4576597 11.09375 5.46875 C 11.103147 5.4802656 11.11573 5.4883783 11.125 5.5 C 11.255944 5.6620694 11.364244 5.8183339 11.46875 6 C 11.507597 6.067583 11.527562 6.1487569 11.5625 6.21875 C 11.628222 6.3504508 11.698942 6.4854037 11.75 6.625 C 11.816947 6.8081542 11.866437 6.9929363 11.90625 7.1875 C 11.959534 7.4478904 12 7.7238575 12 8 C 12 8.2656611 11.95566 8.5300737 11.90625 8.78125 C 11.897456 8.821845 11.883752 8.863392 11.875 8.90625 C 11.847806 9.0239061 11.818571 9.1365719 11.78125 9.25 C 11.741087 9.3661155 11.705472 9.4832775 11.65625 9.59375 C 11.595184 9.7339615 11.513621 9.8686972 11.4375 10 C 11.349858 10.151176 11.260206 10.301777 11.15625 10.4375 C 11.147398 10.449036 11.133974 10.457313 11.125 10.46875 C 11.028786 10.591456 10.922069 10.702931 10.8125 10.8125 C 10.692517 10.932483 10.573223 11.052294 10.4375 11.15625 C 10.301777 11.260206 10.151176 11.349858 10 11.4375 C 9.7624928 11.575193 9.5135955 11.690076 9.25 11.78125 C 9.1871171 11.80194 9.1267172 11.826137 9.0625 11.84375 C 9.0011279 11.860583 8.9375134 11.861056 8.875 11.875 C 8.844247 11.882458 8.8122702 11.89953 8.78125 11.90625 C 8.5300737 11.95566 8.2656611 12 8 12 C 7.73433 12 7.46992 11.95565 7.21875 11.90625 C 7.2091359 11.904164 7.1973361 11.908289 7.1875 11.90625 C 7.1016753 11.888688 7.0212262 11.866714 6.9375 11.84375 C 6.9054 11.83475 6.87545 11.822 6.84375 11.8125 C 6.8119314 11.802313 6.7813646 11.792099 6.75 11.78125 C 6.6326566 11.74264 6.518515 11.705144 6.40625 11.65625 C 6.2659363 11.593735 6.13288 11.51454 6 11.4375 C 5.848825 11.349855 5.6982234 11.260208 5.5625 11.15625 C 5.2910531 10.948335 5.0516619 10.708943 4.84375 10.4375 C 4.7397941 10.301779 4.65014 10.151173 4.5625 10 C 4.4863789 9.8686972 4.4048159 9.7339615 4.34375 9.59375 C 4.3383752 9.5816869 4.317767 9.5746255 4.3125 9.5625 C 4.2702366 9.462578 4.2529286 9.3538762 4.21875 9.25 C 4.2079026 9.2186355 4.1976837 9.1880686 4.1875 9.15625 C 4.1771 9.12385 4.16575 9.0952 4.15625 9.0625 C 4.148077 9.0326297 4.1601271 8.9992804 4.15625 8.96875 C 4.1481592 8.9363518 4.1322953 8.9077057 4.125 8.875 C 4.1201 8.85344 4.1016341 8.834452 4.09375 8.8125 C 4.0917276 8.8026166 4.0956994 8.7911598 4.09375 8.78125 C 4.04435 8.53007 4 8.26566 4 8 C 4 7.7238576 4.0404664 7.4478904 4.09375 7.1875 C 4.142238 6.9505447 4.1932451 6.7194838 4.28125 6.5 C 4.3384057 6.3580861 4.4275844 6.2270551 4.5 6.09375 C 4.5433751 6.0131554 4.5763932 5.9208703 4.625 5.84375 C 4.6892835 5.7426983 4.7709167 5.6571204 4.84375 5.5625 C 4.9084371 5.4781814 4.9601806 5.3912715 5.03125 5.3125 C 5.1518604 5.1788186 5.2999653 5.0537278 5.4375 4.9375 C 5.4599078 4.9185636 5.4771713 4.8934444 5.5 4.875 C 5.6184421 4.7805217 5.7461434 4.7057543 5.875 4.625 C 5.9863614 4.5547518 6.1002489 4.4966346 6.21875 4.4375 C 6.3312895 4.3813242 6.4442303 4.3268195 6.5625 4.28125 C 6.7654789 4.2029322 6.9697967 4.1382585 7.1875 4.09375 C 7.4478904 4.0404667 7.7238575 4 8 4 z "
       transform="translate(421.71429,531.79074)"
       id="path2998" />
    <path
       sodipodi:type="arc"
       style="color:#000000;fill:#da4453;fill-opacity:1;fill-rule:nonzero;stroke:none;stroke-width:2;marker:none;visibility:visible;display:inline;overflow:visible;enable-background:accumulate"
       id="path3892"
       sodipodi:cx="8"
       sodipodi:cy="8"
       sodipodi:rx="2"
       sodipodi:ry="2"
       d="M 10,8 A 2,2 0 1 1 6,8 2,2 0 1 1 10,8 z"
       transform="translate(421.71429,531.79074)" />
  </g>
</svg>
