<svg xmlns="http://www.w3.org/2000/svg" viewBox="0 0 16 16">
     />
 <path 
     style="fill:#4d4d4d" 
     d="M 2 0 L 2 1 L 13 1 L 13 0 L 2 0 z M 7.5 2 C 5.567 2 4 3.34315 4 5 L 4 6 L 4 10 L 4 11 C 4 12.65685 5.567 14 7.5 14 C 9.433 14 11 12.65685 11 11 L 11 6 L 11 5 C 11 3.34315 9.433 2 7.5 2 z M 8 3 C 9.10457 3 10 3.89543 10 5 L 10 7.09375 L 10 8.90625 L 10 10 L 10 11 C 10 12.10457 9.10457 13 8 13 C 6.89543 13 6 12.10457 6 11 L 6 8.3125 L 6 7.6875 L 6 6 L 6 5 C 6 3.89543 6.89543 3 8 3 z "
     />
 </svg>
