<svg viewBox="0 0 16 16" xmlns="http://www.w3.org/2000/svg">/&gt;<path d="m8 2c-.8286405 0-1.7578125 1.7578125-1.7578125 1.7578125s-1.8988022-.585573-2.484375 0 0 2.484375 0 2.484375-1.7578125.9291717-1.7578125 1.7578125 1.7578125 1.7578125 1.7578125 1.7578125-.5855728 1.8988015 0 2.4843755c.5855728.585572 2.484375-.000001 2.484375 0 0 0 .929172 1.757812 1.7578125 1.757812s1.7578125-1.757813 1.7578125-1.757812c0 0 1.8988015.585572 2.4843755 0 .585572-.585574 0-2.4843755 0-2.4843755s1.757812-.9291717 1.757812-1.7578125-1.757812-1.7578125-1.757812-1.7578125.585572-1.898802 0-2.484375c-.585574-.585573-2.4843755 0-2.4843755 0s-.929172-1.7578125-1.7578125-1.7578125zm0 3c1.6568542 0 3 1.3431452 3 3s-1.3431458 3-3 3-3-1.3431452-3-3 1.3431458-3 3-3z" fill="#4d4d4d"/></svg>