<svg viewBox="0 0 16 16" xmlns="http://www.w3.org/2000/svg">/&gt;<path d="m7 2v1.09375c-.63657.13026-1.22576.40198-1.75.75l-.84375-.84375-1.40625 1.40625.84375.84375c-.34662.52408-.5843 1.11559-.71875 1.75h-1.125v2h1.09375c.13026.63657.40199 1.22576.75 1.75l-.84375.84375 1.40625 1.40625.84375-.84375c.52408.34662 1.11559.5843 1.75.71875v1.125h2v-1.125c.35408-.073.67633-.20206 1-.34375v-1.09375c-.58909.34152-1.27007.5625-2 .5625-2.20914 0-4-1.79086-4-4s1.79086-4 4-4 4 1.79086 4 4c0 .3446227-.068304.6817191-.15625 1h1.0625 1.09375v-2h-1.09375c-.13026-.63655-.37163-1.22664-.71875-1.75l.8125-.84375-1.40625-1.40625-.84375.8125c-.52398-.34753-1.11557-.56261-1.75-.6875v-1.125zm0 4v4l3-2zm5 3.5v2.59375l-1.15625-1.15625-.6875.6875 2 2 .34375.375.34375-.375 2-2-.6875-.6875-1.15625 1.15625v-2.59375z" fill="#232629"/></svg>