<svg height="32" width="32" xmlns="http://www.w3.org/2000/svg" xmlns:xlink="http://www.w3.org/1999/xlink"><linearGradient id="a" gradientTransform="matrix(.49999977 0 0 .48275841 384.57144 516.34974)" gradientUnits="userSpaceOnUse" x1="32" x2="32" y1="61" y2="3"><stop offset="0" stop-color="#f39c12"/><stop offset="1" stop-color="#f9a11f"/></linearGradient><linearGradient id="b" gradientUnits="userSpaceOnUse" x1="407.950735" x2="407.950735" y1="545.556623" y2="538.798005"><stop offset="0" stop-color="#fddda3"/><stop offset="1" stop-color="#fde3a7"/></linearGradient><linearGradient id="c" gradientTransform="matrix(.48275841 0 0 -.48275841 378.50247 553.76351)" gradientUnits="userSpaceOnUse" x1="54" x2="39.500008" y1="31" y2="16.500048"><stop offset="0" stop-color="#383e51"/><stop offset="1" stop-color="#655c6f" stop-opacity="0"/></linearGradient><g transform="translate(-384.57143 -515.798)"><path d="m389.57144 517.79801v27.99999h14.99999l7.00003-7-.00003-14.24137v-6.75862h-7z" fill="url(#a)"/><path d="m389.57144 544.79797h14.999983v.999973h-14.999983z" fill="#2e3132" fill-opacity=".294118"/><path d="m389.57144 517.79797h21.999994v1.000026h-21.999994z" fill="#fff" fill-opacity=".411765"/><path d="m411.57144 538.798-7.00001 7v-7z" fill="url(#b)" fill-rule="evenodd"/><path d="m397.57143 545.79797 7-6.99997v7z" fill="url(#c)" fill-rule="evenodd" opacity=".2"/><path d="m396.57143 524.798c-1.108 0-2 .892-2 2s.892 2 2 2c.503 0 .95592-.18973 1.30664-.49414.43078.73415.69336 1.57738.69336 2.49414s-.26258 1.75999-.69336 2.49414c-.35072-.30442-.80364-.49414-1.30664-.49414-1.108 0-2 .892-2 2s.892 2 2 2c.74107 0 1.37905-.4042 1.72461-1h5.27539v1h3v-3h-3v1h-5c0-.19695-.0373-.383-.0898-.5625.68341-.97209 1.08984-2.15337 1.08984-3.4375 0-1.2799-.41662-2.44727-1.0957-3.41797.0563-.18526.0957-.37788.0957-.58203h4v2h4v-4h-4v1h-4.27539c-.34556-.5958-.98354-1-1.72461-1zm0 1c.554 0 1 .446 1 1s-.446 1-1 1-1-.446-1-1 .446-1 1-1zm7 0h2v2h-2zm-7 8c.554 0 1 .446 1 1s-.446 1-1 1-1-.446-1-1 .446-1 1-1zm8 1h1v1h-1z" fill="#fff8eb"/></g></svg>