<svg height="16" viewBox="0 0 4.2333332 4.2333335" width="16" xmlns="http://www.w3.org/2000/svg" xmlns:xlink="http://www.w3.org/1999/xlink"><linearGradient id="a" gradientUnits="userSpaceOnUse" x1="2.250512" x2=".398429" y1="294.883317" y2="294.883317"><stop offset="0" stop-color="#409cff"/><stop offset="1" stop-color="#0a84ff"/></linearGradient><g transform="matrix(-1 0 0 -1 4.233862 296.99998)"><g stroke-width=".264583"><path d="m.26458334 293.29581h3.70416656v3.175h-3.70416656z" fill="#2d2d2d"/><path d="m.13280843 293.03175c-.07310476-.0001-.13239338.0592-.13229167.13229v.92552h-.00051676v2.51354c-.00010171.0731.05918691.1324.13229167.1323h3.96874993c.073105.0001.1323932-.0592.1322916-.1323v-2.51354h.0005292v-.92552c.0001016-.0731-.059187-.13239-.1322917-.13229zm.13177491.26406h1.05833336.2645833 1.0583332.2645834 1.0583333.00103v.79375h-.0005292v2.38177h-3.70518603v-2.38177h.00051673v-.26458z" fill="#f2f2f7"/><path d="m1.3229167 293.29581v.79375h-1.05833336v.26459h1.05833336v.79375h-1.05833336v.26458h1.05833336v1.05833h.2645833v-1.05833h1.0583332v1.05833h.2645834v-1.05833h1.0583333v-.26458h-1.0583333v-.79375h1.0583333v-.26459h-1.0583333v-.79375h-.2645834v.79375h-1.0583332v-.79375zm.2645833 1.05834h1.0583332v.79375h-1.0583332z" fill="#e5e5ea"/></g><path d="m.26511238 294.08957v-.79376h3.70416672v.79376z" fill="#fc0" stroke-width=".247496"/><path d="m1.5875 293.03123h1.0583332v.26458h-1.0583332z" fill="#ff6961" opacity="0"/><path d="m.00052901 294.35416h4.23333329l.0000001-1.32293h-4.23333332zm.2645833-.26459.00000007-.79376h1.05833342l-.0000001.79376zm1.32291669 0 .0000001-.79376h1.0583333l-.0000001.79376zm1.3229167 0 .0000001-.79376h1.0583333l-.0000001.79376z" fill="#ff9f0a" stroke-width=".264583"/><path d="m1.5875 293.29581h1.058333v3.175h-1.058333z" fill="#ff9f0a" opacity="0"/><g transform="matrix(0 -1 1 0 -292.766121 296.604659)"><path d="m1.5523602 293.8255c-.018163.001-.035959.003-.053744.006a.39703613.39703613 0 0 0 -.00258.00052c-.2022343.0351-.3339012.19881-.3886056.38964h-.57826376c-.28632108 0-.52916666.24283-.52916666.52917v.26458c0 .28636.24280957.52917.52916666.52917h.56999106c.0999.32195.5082736.50439.7978841.29455a.39703613.39703613 0 0 0 .047542-.0403l.530717-.52968-.042892.0372c.2744658-.20499.2744658-.64251 0-.8475l.042375.0372-.5307171-.52865a.39703613.39703613 0 0 0 -.039274-.0341c-.09912-.0757-.221636-.11408-.3462321-.108a.39703613.39703613 0 0 0 -.0062 0z" fill="#2d2d2d" fill-opacity=".784314"/><path d="m1.5776817 294.22186c-.0045.00028-.00899.0008-.013436.002-.063441.011-.1095797.0663-.1090373.13074l.00155.26458h-.92759156c-.0732896 0-.13229167.059-.13229167.1323v.26458c0 .0733.0590021.13229.13229167.13229h.92759196l-.00155.26458c.0009181.10691.1221973.16815.2087728.10542l.5307171-.52968c.070456-.0526.070456-.15822 0-.21084l-.5307169-.52865c-.024691-.0189-.055263-.0284-.0863-.0269z" fill="url(#a)"/></g></g></svg>