<svg height="52" viewBox="0 0 60 52" width="60" xmlns="http://www.w3.org/2000/svg" xmlns:xlink="http://www.w3.org/1999/xlink"><filter id="a" color-interpolation-filters="sRGB" height="1.051728" width="1.044773" x="-.022387" y="-.025864"><feGaussianBlur stdDeviation=".555"/></filter><path d="m.5.5h59v51h-59z" fill="#656565" filter="url(#a)"/><path d="m1 1h58v50h-58z" fill="#2d2d2d"/><path d="m12 6-6 6v.5 30.5.5.5h1 36.5 1.5l6-6v-.5-.5-31zm1 1h37v30h-37zm-1 .5v29.5l-5 5v-29.5zm.5 30.5h37l-4.5 4.5-.5.5h-37l4.5-4.5z" fill="#f2f2f7"/><path d="m52.541016 2.7109372c-.29085.01729-.559395.1615619-.734375.3945313l-1.3125 1.75c-.49756-1.0100414-1.357633-1.8476563-2.494141-1.8476563-1.566595 0-2.992188 1.4255922-2.992188 2.9921875 0 1.3941901 1.180516 2.5276071 2.533204 2.7929688l-1.734375 2.3125005c-.329743.438832-.240466 1.062019.199218 1.390625l.800782.597656c.438158.32708 1.058358.237981 1.386718-.199219l1.3125-1.75c.49756 1.010042 1.357633 1.847657 2.494141 1.847657 1.566595 0 2.992188-1.425593 2.992188-2.9921883 0-1.3941901-1.180516-2.5276071-2.533204-2.7929688l1.734375-2.3125c.329743-.4388322.240466-1.0620193-.199218-1.390625l-.800782-.5976562c-.187594-.1400297-.418662-.2092119-.652343-.1953125z" fill="#2d2d2d"/><path d="m52.599609 3.7011717-6 8.0000003.800782.597656 6-8.0000001zm-4.599609.2988281a2 2 0 0 0 -2 2 2 2 0 0 0 2 2 2 2 0 0 0 2-2 2 2 0 0 0 -2-2zm0 1a1 1 0 0 1 1 1 1 1 0 0 1 -1 1 1 1 0 0 1 -1-1 1 1 0 0 1 1-1zm4 3a2 2 0 0 0 -2 1.9999999 2 2 0 0 0 2 2.0000003 2 2 0 0 0 2-2.0000003 2 2 0 0 0 -2-1.9999999zm0 1a1 1 0 0 1 1 .9999999 1 1 0 0 1 -1 1.0000003 1 1 0 0 1 -1-1.0000003 1 1 0 0 1 1-.9999999z" fill="#f2f2f7"/><path d="m32.486328 29-2.486328 13h13l-2.486328-13z" fill="#0a84ff"/><path d="m43.216797 27.189453-2.703125 1.810547 2.486328 13 4-4z" fill="#0a84ff" opacity=".7"/><path d="m36.5 8-2.294922 12h4.589844z" fill="#ff9f0a"/><path d="m34.205078 20-1.71875 9h8.027344l-1.71875-9z" fill="#28d74b"/><path d="m40.439453 19.253906-1.644531.746094 1.71875 9 2.703125-1.810547z" fill="#28d74b" opacity=".7"/><path d="m36.5 8 2.294922 12 1.644531-.746094z" fill="#ff9f0a" opacity=".7"/><path d="m14.529297 34-1.529297 8h13l-1.529297-8z" fill="#0a84ff"/><path d="m27.748047 31.564453-3.248047 2.435547-.068359-.207031 1.568359 8.207031 4-4z" fill="#0a84ff" opacity=".7"/><path d="m19.5 8-3.058594 16h6.117188z" fill="#ff9f0a"/><path d="m16.441406 24-1.912109 10h9.941406l-1.912109-10z" fill="#28d74b"/><path d="m19.613281 8.3222656-.023437.1425782 2.96289 15.5000002 2.054688-1.371094z" fill="#ff9f0a" opacity=".7"/><path d="m24.607422 22.59375-2.054688 1.371094 1.878907 9.828125.068359.207031 3.248047-2.435547z" fill="#28d74b" opacity=".7"/></svg>