<?xml version="1.0" encoding="UTF-8" standalone="no"?>
<svg
   viewBox="0 0 14 14"
   version="1.1"
   id="svg536"
   sodipodi:docname="emptypage_10x14.svg"
   width="14"
   height="14"
   inkscape:export-filename="emptypage_10x14.png"
   inkscape:export-xdpi="90"
   inkscape:export-ydpi="90"
   inkscape:version="1.2.2 (b0a8486541, 2022-12-01)"
   xmlns:inkscape="http://www.inkscape.org/namespaces/inkscape"
   xmlns:sodipodi="http://sodipodi.sourceforge.net/DTD/sodipodi-0.dtd"
   xmlns="http://www.w3.org/2000/svg"
   xmlns:svg="http://www.w3.org/2000/svg">
  <defs
     id="defs540" />
  <sodipodi:namedview
     id="namedview538"
     pagecolor="#505050"
     bordercolor="#ffffff"
     borderopacity="1"
     inkscape:showpageshadow="0"
     inkscape:pageopacity="0"
     inkscape:pagecheckerboard="1"
     inkscape:deskcolor="#505050"
     showgrid="false"
     inkscape:zoom="23.6"
     inkscape:cx="7.0127119"
     inkscape:cy="5"
     inkscape:window-width="1322"
     inkscape:window-height="458"
     inkscape:window-x="1684"
     inkscape:window-y="545"
     inkscape:window-maximized="0"
     inkscape:current-layer="svg536" />
  <path
     d="m 10,5 v 6 H 4 V 3 h 4 z"
     fill="#fafafa"
     id="path532" />
  <path
     d="m 8,2 c 0.132599,2.55e-5 0.25976,0.052716 0.353516,0.1464844 l 2.5,2.5 C 10.947286,4.7402404 10.999974,4.8674005 11,5 v 1 3 2 c 0,0.554 -0.446,1 -1,1 H 4 C 3.446,12 3,11.554 3,11 V 3 C 3,2.446 3.446,2 4,2 H 4.964844 5 7 Z M 8,3 H 7 5 4 v 8 h 6 V 9.0351562 c -4.12e-4,-0.011715 -4.12e-4,-0.023441 0,-0.035156 v -3 -1 H 8 Z"
     fill="#3a3a38"
     id="path534" />
</svg>
