<svg viewBox="0 0 32 32" xmlns="http://www.w3.org/2000/svg"><path d="m2.9980469 5c-.5539999 0-1 .446-1 1v20c0 .554.456533.892483 1 1h13.8535151l.992188-1h-14.8457031v-19.9980469-.0019531h26.0000001v.0019531 8.7675779l1-1.007812v-7.761719c0-.554-.446-1-1-1z" fill="#fafafa"/><path d="m7 15v1h1v-1zm2 0v1h16v-1zm-2 3v1h1v-1zm2 0v1h12v-1zm-2 3v1h1v-1zm2 0v1h12.816406l.994141-1z" fill="#797774"/><path d="m7 10h18v2h-18z" fill="#c8c6c4"/><path d="m30.499929 15.5-12 12h12zm-2 5v1.476392 3.523608h-4.499999-.500001z" fill="#ed8733" fill-rule="evenodd" stroke="#f8db8f" stroke-linecap="round" stroke-linejoin="round"/></svg>