<svg viewBox="0 0 32 32" xmlns="http://www.w3.org/2000/svg"><path d="m4 5v16h17v-1h-16v-14h16v-1z" fill="#fafafa"/><path d="m6 8v2h15v-2z" fill="#c8c6c4"/><path d="m2 4v1h19v-1z" fill="#1e8bcd"/><g fill="#fafafa" transform="translate(-1)"><path d="m15 21h1v7h-1z"/><path d="m19 28v1h-7v-1z"/></g><path d="m22 3v26h7v-26zm2 2h3v2h-3zm0 5h3v2h-3zm-1 4h5v4h-5zm0 5h5v4h-5zm1 6h3v2h-3z" fill="#fafafa"/><path d="m24 15h3v2h-3z" fill="#c8c6c4"/><path d="m24 20h3v2h-3z" fill="#c8c6c4"/><path d="m23 4v4h5v-4zm1 1h3v2h-3zm-1 4v4h5v-4zm1 1h3v2h-3zm-1 14v4h5v-4zm1 1h3v2h-3z" fill="#0063b1"/></svg>