<svg viewBox="0 0 32 32" xmlns="http://www.w3.org/2000/svg"><path d="m5 2c-.554 0-1 .446-1 1v26c0 .554.446 1 1 1h15.304688c-.187085-.3008-.304652-.643428-.304688-1h-15v-26h22v2c.356572.0000357.6992.1176026 1 .3046875v-2.3046875c0-.554-.446-1-1-1zm23 7.6953125c-.3008.1870849-.643428.3046518-1 .3046875v16c.356572.000036.6992.117603 1 .304688z" fill="#fafafa"/><g fill="#c8c6c4"><rect height="8" ry="1" width="6" x="7" y="6"/><path d="m15.5 7c-.277 0-.5.223-.5.5s.223.5.5.5h4.5v-1z" fill="#c8c6c4"/><path d="m7.4511719 25c-.2504418 0-.4511719.20073-.4511719.451172v.097656c0 .250442.2007301.451172.4511719.451172h14.5488281v-1z"/><path d="m15.5 11c-.277 0-.5.223-.5.5s.223.5.5.5h6.5v-1z" fill="#c8c6c4"/><path d="m7.4511719 21c-.2504418 0-.4511719.20073-.4511719.451172v.097656c0 .250442.2007301.451172.4511719.451172h14.5488281v-1z" fill="#c8c6c4"/><path d="m7.4511719 17c-.2504418 0-.4511719.20073-.4511719.451172v.097656c0 .250442.2007301.451172.4511719.451172h14.5488281v-1z"/></g><path d="m22 6a1.0001 1.0001 0 0 0 -1 1v1a1.0001 1.0001 0 0 0 1 1h1v3 12 3h-1a1.0001 1.0001 0 0 0 -1 1v1a1.0001 1.0001 0 0 0 1 1h2a1.0001 1.0001 0 0 0 .5-.134766 1.0001 1.0001 0 0 0 .5.134766h2a1.0001 1.0001 0 0 0 1-1v-1a1.0001 1.0001 0 0 0 -1-1h-1v-3-12-3h1a1.0001 1.0001 0 0 0 1-1v-1a1.0001 1.0001 0 0 0 -1-1h-2a1.0001 1.0001 0 0 0 -.5.1347656 1.0001 1.0001 0 0 0 -.5-.1347656zm0 1h2v1h1v-1h2v1h-2v20h2v1h-2v-1h-1v1h-2v-1h2v-20h-2z" fill="#fafafa"/></svg>