<svg viewBox="0 0 32 32" xmlns="http://www.w3.org/2000/svg"><path d="m4 5c-.554 0-1 .446-1 1v20c0 .554.446 1 1 1h17.863281l1-1h-18.863281v-20h24v14.863281l1-1v-13.863281c0-.554-.446-1-1-1z" fill="#fafafa"/><path d="m4 6v20h18.863281l.5-.5-.5-.5h-17.863281v-12h22v1 7.863281l1-1v-14.863281zm1 1h22v5h-22zm1 1v3h20v-3zm0 6v10h15.863281l-3.570312-3.570312c-.389703-.390806-.389703-1.023258 0-1.414063l.722656-.722656c.183424-.184366.431383-.290133.691406-.294922.270862-.0035.53158.102912.722657.294922l5.070312 5.070312.5-.5v-8.863281z" fill="#1e8bcd"/><path d="m31.277778 19-5.777778 5.777778-5.777778-5.777778-.722222.722222 5.777778 5.777778-5.777778 5.777778.722222.722222 5.777778-5.777778 5.777778 5.777778.722222-.722222-5.777778-5.777778 5.777778-5.777778z" fill="#ed3d3b"/></svg>