<svg viewBox="0 0 32 32" xmlns="http://www.w3.org/2000/svg"><g fill="#fafafa" fill-rule="evenodd" stroke-linecap="round" stroke-linejoin="round"><path d="m7 3c-.5522619.0000552-.9999448.4477381-1 1v2h1v-2h21v15h-2v1h2c.552262-.000055.999945-.447738 1-1v-15c-.000055-.5522619-.447738-.9999448-1-1z"/><path d="m4 6c-.5522619.0000552-.9999448.4477381-1 1v15c.0000552.552262.4477381.999945 1 1h4v5c.00101.87083 1.0372726 1.324421 1.6777344.734375l6.2128906-5.734375h4.972656l-1-1h-4.363281l-6.5 6v-6h-5v-15h21v15h-.863281l.976562.976562c.496139-.058901.886668-.464586.886719-.976562v-15c-.000055-.5522619-.447738-.9999448-1-1z"/></g><path d="m31.277778 19-5.777778 5.777778-5.777778-5.777778-.722222.722222 5.777778 5.777778-5.777778 5.777778.722222.722222 5.777778-5.777778 5.777778 5.777778.722222-.722222-5.777778-5.777778 5.777778-5.777778z" fill="#ed3d3b"/></svg>