<svg viewBox="0 0 32 32" xmlns="http://www.w3.org/2000/svg"><path d="m4.5 3c-.2761309.0000276-.4999724.2238691-.5.5v21c-.0004493.120386.042547.236893.1210938.328125 2.5113577 2.899957 4.8610816 4.221292 7.2812502 4.236328 2.406408.01495 4.764962-1.230091 7.404297-3.175781.0034-.002.0064-.002.0098-.0039 3.609148-2.103603 5.967491-2.568316 8.740235-2.888672.252284-.028797.442952-.242144.443324-.4961v-19c-.000028-.2761309-.223869-.4999724-.5-.5zm.5 1h22v18.089844c-2.656019.33236-5.166243.875825-8.697266 2.935547-.01549.009-.03048.01873-.04492.0293-2.590737 1.91542-4.784883 3.022595-6.849609 3.009765-2.0290016-.012609-4.051824-1.091902-6.408205-3.769534z" fill="#fafafa"/></svg>