<svg viewBox="0 0 32 32" xmlns="http://www.w3.org/2000/svg"><g fill="#fafafa"><path d="m4 11c-.554 0-1 .446-1 1v13c0 .554.446 1 1 1h12.132812l-1-1h-11.132812v-13h9.070312a8 8.0000003 0 0 1 -.070312-1zm19.849609 7.240234a1.0001 1.0001 0 0 0 -.072265.070313 1.0001 1.0001 0 0 1 .072265-.070313zm-5.019531 5.273438a1.0001 1.0001 0 0 0 -.064453.015625 1.0001 1.0001 0 0 1 .070313-.015625 1.0001 1.0001 0 0 0 -.00586 0zm-.365234.142578a1.0001 1.0001 0 0 0 -.056641.039062 1.0001 1.0001 0 0 1 .056641-.039062zm-.15625.123047a1.0001 1.0001 0 0 0 -.070313.072265 1.0001 1.0001 0 0 1 .070313-.072265zm-.226563.326172a1.0001 1.0001 0 0 0 -.033203.08789 1.0001 1.0001 0 0 1 .033203-.08789z"/><path d="m21 3a8 8.0000003 0 0 0 -8 8 8 8.0000003 0 0 0 1.404297 4.527344l.722656-.722656a7 7 0 0 1 -1.126953-3.804688 7 7 0 0 1 7-7 7 7 0 0 1 7 7 7 7 0 0 1 -3 5.734375l.716797.716797a8 8.0000003 0 0 0 3.283203-6.451172 8 8.0000003 0 0 0 -8-8zm2.849609 15.240234a1.0001 1.0001 0 0 0 -.072265.070313 1.0001 1.0001 0 0 1 .072265-.070313zm-.207031.25a1.0001 1.0001 0 0 0 -.039062.064454 8 8.0000003 0 0 0 .001953 0 1.0001 1.0001 0 0 1 .037109-.064454z"/><path d="m19.09375 11.001953a.4049017.4049017 0 0 0 -.28125.117188l-8.494141 8.49414a.4049017.4049017 0 0 0 0 .574219l8.494141 8.492188a.4049017.4049017 0 0 0 .574219 0l.304687-.304688.476563-.666016-.835938-.140625-.232422.232422-.328125-.328125a1.0001 1.0001 0 0 1 -.74414-.74414l-6.832032-6.828125 7.904297-7.904297 6 6.003906h.617188.548828l-6.878906-6.880859a.4049017.4049017 0 0 0 -.292969-.117188zm8.470703 8.294922.144531.871094.285157-.203125a.4049017.4049017 0 0 0 -.115235-.351563zm-9.564453 7.208984a1.0001 1.0001 0 0 0 .003906.064453 1.0001 1.0001 0 0 1 -.003906-.064453z"/></g><path d="m24.5 19-.371094 2.228516a4.5 4.5 0 0 0 -.683594.279296l-1.833984-1.310546-.861328.859375-.552734.554687 1.3125 1.835938a4.5 4.5 0 0 0 -.289063.68164l-2.220703.371094v1.216797.783203l2.228516.371094a4.5 4.5 0 0 0 .279296.683594l-1.310546 1.833984.552734.554687.861328.859375 1.835938-1.3125a4.5 4.5 0 0 0 .68164.289063l.371094 2.220703h1.216797.783203l.371094-2.228516a4.5 4.5 0 0 0 .683594-.279296l1.833984 1.310546.554687-.552734.859375-.861328-1.3125-1.835938a4.5 4.5 0 0 0 .289063-.68164l2.220703-.371094v-.783203-1.216797l-2.228516-.371094a4.5 4.5 0 0 0 -.279296-.683594l1.310546-1.833984-.859375-.861328-.554687-.552734-1.835938 1.3125a4.5 4.5 0 0 0 -.68164-.289063l-.371094-2.220703h-.783203zm.605469 1h.789062l.353516 2v.08984a3.5 3.5 0 0 1 1.136719.466797l.06055-.06055 1.664063-1.164063.558594.558594-1.164063 1.664063-.0625.0625a3.5 3.5 0 0 1 .470703 1.134765h.087887l2 .353516v.789062l-2 .353516h-.08984a3.5 3.5 0 0 1 -.466797 1.136719l.06055.06055 1.164063 1.664063-.558594.558594-1.664063-1.164063-.0625-.0625a3.5 3.5 0 0 1 -1.134765.470703v.087894l-.353516 2h-.789062l-.353516-2v-.08984a3.5 3.5 0 0 1 -1.136719-.466797l-.06055.06055-1.664063 1.164063-.558594-.558594 1.164063-1.664063.0625-.0625a3.5 3.5 0 0 1 -.470706-1.134772h-.087891l-2-.353516v-.789062l2-.353516h.08984a3.5 3.5 0 0 1 .466797-1.136719l-.06055-.06055-1.164063-1.664063.558594-.558594 1.664063 1.164063.0625.0625a3.5 3.5 0 0 1 1.134765-.470703v-.087887zm.394531 3a2.5 2.5 0 0 0 -2.5 2.5 2.5 2.5 0 0 0 2.5 2.5 2.5 2.5 0 0 0 2.5-2.5 2.5 2.5 0 0 0 -2.5-2.5zm0 1a1.5 1.5 0 0 1 1.5 1.5 1.5 1.5 0 0 1 -1.5 1.5 1.5 1.5 0 0 1 -1.5-1.5 1.5 1.5 0 0 1 1.5-1.5z" fill="#1e8bcd"/></svg>