<svg viewBox="0 0 32 32" xmlns="http://www.w3.org/2000/svg"><g fill="#fafafa"><path d="m4 8c-.554 0-1 .446-1 1v19c0 .554.446 1 1 1h24c.554 0 1-.446 1-1v-19c0-.554-.446-1-1-1h-5.189453l-.587891 1h5.777344v19h-24v-15.994141-3.005859h3.4804688l.3203124-.595703-.2226562-.404297z"/><path d="m7.0722656 5 1.8671875 3.400391-1.9394531 3.599609h1.2636719c.078482 0 .1416818-.02502.1894531-.07422.047771-.0492.091372-.10237.1289062-.162109l1.1464844-2.419921c.00682-.01757.015154-.03282.025391-.04687.010237-.01757.018567-.03516.025391-.05273l1.2343754 2.523437c.03754.05974.08163.114866.132812.164063.054595.045673.126619.06835.218749.06835h1.335938l-1.929688-3.664062 1.888672-3.335938h-1.283203c-.05801 0-.107491.015249-.148437.046875-.04095.028112-.08161.073073-.119141.1328125l-1.074219 2.2500005-.082031.152343-1.2285156-2.4296872c-.0341227-.0562246-.0723346-.0941498-.1132813-.1152344-.0375347-.024598-.0987817-.0371094-.1875-.0371094zm5.5878904 0 2.134766 4.291016v2.708984h1.332031v-2.699219l2.132813-4.300781h-1.191407c-.112604 0-.205687.032842-.277343.099609-.07165.063253-.126523.133236-.164063.2070312l-.833984 2.2656248c-.06824.137048-.128994.267633-.183594.390625-.05459.122992-.101132.246149-.138672.369141-.04436-.122992-.09629-.246149-.154297-.369141-.0546-.122992-.115842-.255922-.1875-.396484l-.839844-2.2597654c-.044358-.091365-.101676-.1664309-.169921-.2226562-.068245-.0562254-.156433-.0839844-.265625-.0839844zm5.88086 0v1.101563h2.820312l-2.927734 4.980468c-.07848.11245.01857.344403-.117188.38086v.537109h4.601563v-1.101562h-2.972657l2.925782-4.9707036c.085306-.1265061.128906-.2649113.128906-.4160156v-.5117188z"/></g></svg>