<svg viewBox="0 0 32 32" xmlns="http://www.w3.org/2000/svg"><path d="m16 3a13 13 0 0 0 -13 13 13 13 0 0 0 13 13 13 13 0 0 0 13-13 13 13 0 0 0 -13-13zm0 1a12 12 0 0 1 12 12 12 12 0 0 1 -12 12 12 12 0 0 1 -12-12 12 12 0 0 1 12-12z" fill="#83beec"/><path d="m16 4a12 12 0 0 0 -12 12 12 12 0 0 0 12 12 12 12 0 0 0 12-12 12 12 0 0 0 -12-12zm0 2c2.946667 0 5.333984 2.3873182 5.333984 5.333984 0 1.173334-.480234 2.24-1.240234 3l-1.201172 1.226563c-.96.973333-1.558594 1.773437-1.558594 3.773437h-2.667968v-.667968c0-1.466667.600546-2.800104 1.560546-3.773438l1.654297-1.679687c.493334-.48.785157-1.145573.785157-1.878907 0-1.4666658-1.199349-2.6679684-2.666016-2.6679684-1.466666 0-2.666016 1.2013026-2.666016 2.6679684h-2.667968c0-2.9466658 2.387318-5.333984 5.333984-5.333984zm-1.333984 17.333984h2.667968v2.666016h-2.667968z" fill="#0063b1"/></svg>