<svg viewBox="0 0 32 32" xmlns="http://www.w3.org/2000/svg"><path d="m4 2c-.554 0-1 .446-1 1v22c0 .554.4567584.891352 1 1h2v-1h-2v-22h16v3h1v-3c0-.554-.446-1-1-1z" fill="#fafafa"/><path d="m7 6c-.554 0-1 .446-1 1v22c0 .554.446 1 1 1h16c.554 0 1-.446 1-1v-2h-1v2h-16v-22h16v4h1v-4c0-.554-.446-1-1-1z" fill="#fafafa"/><g fill="#1e8bcd"><path d="m25 14h3v3h-3z" fill="#83beec"/><path d="m12 20h9v1h-9z"/><path d="m13 22h7v1h-7z"/><path d="m10 12c-.554 0-1 .446-1 1v12c0 .554.446 1 1 1h20c.554 0 1-.446 1-1v-12c0-.554-.446-1-1-1zm0 1h20v12h-20z" fill="#fafafa"/></g><path d="m26 15h1v1h-1z" fill="#0063b1"/></svg>