<svg height="32" viewBox="0 0 8.4666666 8.466667" width="32" xmlns="http://www.w3.org/2000/svg"><g stroke-width=".264583" transform="translate(0 -288.5333)"><g transform="matrix(.26458334 0 0 .26458334 0 288.5333)"><g fill="#fafafa"><path d="m4 2c-.5539999 0-1 .4459969-1 1v22c0 .554003.4567585.891339 1 1h2v-1h-2v-22h16v3h1v-3c0-.5540031-.446-1-1-1z"/><path d="m7 6c-.5539997 0-1 .4459969-1 1v22c0 .554003.4460003 1 1 1h9l-.173828-.347656-.826172-.826172v.173828h-8v-22h16v8h1v-8c0-.5540031-.446-1-1-1z" stroke-width=".999999"/></g><path d="m16 16a1.0001 1.0001 0 0 0 -1 1v9.998047a1.0001 1.0001 0 0 0 .292969.707031l2 2a1.0001 1.0001 0 0 0 .707031.292969l10 .001953a1.0001 1.0001 0 0 0 1-1v-12a1.0001 1.0001 0 0 0 -1-1zm3 1h6v4h-6zm0 8h6v4h-3v-3h-2v3h-1z" fill="#d492d8" stroke-width=".999999"/></g><path d="m4.2333333 293.03122v2.64532l.5291667.52916v-1.3224h2.1166667v1.32292h.5291666v-3.175h-.5291666v1.32292h-2.1166667v-1.32292z" fill="#922e9b"/></g></svg>