<svg viewBox="0 0 32 32" xmlns="http://www.w3.org/2000/svg"><path d="m15.21875 3.0039062c-.578758 0-1.075576.2714652-1.431641.6113282-.356065.3398629-.614353.7453052-.855468 1.1386718-.482232.7867335-.916715 1.4780052-1.378907 1.6660157v-.0019531c-.461393.1876601-1.275752.0012367-2.1816402-.2207032-.4529441-.1109699-.9243823-.2174479-1.4179688-.2109375-.4935865.0065105-1.0386595.1573886-1.4511719.5625-.4125512.4051494-.5714286.9510162-.578125 1.4414063s.1036569.9548907.2167969 1.4003906c.22628.891.4130189 1.680979.2265625 2.123047-.1867246.442612-.8944826.878482-1.6953125 1.351562-.400415.236541-.8118927.488154-1.1582031.837891-.3463105.349737-.6269533.843884-.6269531 1.421875 0 .577991.2804927 1.072481.6269531 1.421875s.757794.599921 1.1582031.835937c.8008182.472033 1.5086309.907007 1.6953125 1.34961.1864018.441846-.0002819 1.232005-.2265625 2.123047-.1131403.445521-.2234931.909983-.2167969 1.40039.0066962.490408.1655639 1.036247.578125 1.441407.4125282.405071.9575972.556014 1.4511719.5625s.9650329-.101923 1.4179688-.212891c.9058712-.221936 1.7202412-.408413 2.1816402-.220703a.61257903.61257903 0 0 0 0 .001953c.461929.187856.896694.878791 1.378907 1.666016.241106.393612.49943.798587.855468 1.138671.356039.340085.85275.611329 1.431641.611329s1.07576-.271172 1.431641-.611329c.35588-.340155.612659-.747012.853515-1.140624.414193-.676884.795553-1.218268 1.1875-1.494141l4.691406 4.605469a.61257903.61257903 0 0 0 .97461-.160157l1.470703-2.886718 2.941406-1.445313a.61257903.61257903 0 0 0 .285157-.287109c.000078-.000166.056654-.298599.05664-.298828-.000014-.00023-.035051-.171582-.035156-.171875s-.028931-.065934-.041016-.087891c-.012084-.021957-.022083-.039328-.03125-.052734-.036666-.053625-.054919-.069984-.070312-.085938-.030787-.031908-.04636-.044993-.064453-.060547-.036187-.031107-.07321-.059918-.119141-.095703-.091862-.071569-.217928-.166672-.375-.283203-.314144-.233062-.751198-.552119-1.253906-.917969-.932492-.678626-2.075689-1.508788-3.056641-2.234375-.039153-.320475-.069344-.628989.003906-.802734.186739-.442647.894507-.877575 1.695313-1.34961.400403-.236017.811753-.486541 1.158203-.835937s.626953-.843892.626953-1.421875c0-.577991-.280642-1.072138-.626953-1.421875s-.757788-.60135-1.158203-.837891c-.80083-.47308-1.508589-.908951-1.695313-1.351562-.186456-.442069.000283-1.232048.226563-2.123047.11314-.4454997.223493-.9100008.216797-1.4003906s-.165575-1.0362568-.578125-1.4414063c-.412513-.4051113-.957586-.5559895-1.451172-.5625-.493586-.0065104-.965025.0999676-1.417969.2109375-.905887.2219399-1.720246.4083636-2.181641.2207032v.0019531c-.462105-.1879754-.897175-.8792809-1.378906-1.6660157-.240865-.3933673-.497608-.7987379-.853515-1.1386718-.355908-.3399339-.852883-.6113282-1.431641-.6113282zm0 1.1210938c.260014 0 .439491.0918854.658203.3007812.218712.208896.442485.5394356.671875.9140626.458781.7492537.927446 1.7166456 1.91211 2.1171874.984404.4003819 2.004883.0418187 2.86914-.1699218.432129-.1058703.829608-.1837383 1.136719-.1796875s.500822.0646135.681641.2421875c.180784.177542.23813.3591571.242187.65625.004057.2970928-.075898.6853122-.183594 1.109375-.215391.8481256-.583496 1.8580746-.171875 2.8339846.411752.97602 1.394597 1.429768 2.158203 1.880859.381804.225546.718904.447267.931641.66211.212737.21484.302734.385412.302734.632812 0 .247407-.090132.418403-.302734.632812-.212602.214411-.549842.433153-.931641.658204-.763597.450101-1.746345.904587-2.158203 1.880859-.237722.563863-.166331 1.136062-.074218 1.644531a.50860531.50860531 0 0 0 .197265.31836c1.034006.767796 2.29862 1.685265 3.302735 2.416015.435249.316756.784649.573014 1.080078.791016l-2.390625 1.173828a.50860531.50860531 0 0 0 -.228516.226563l-1.248047 2.451171-4.527344-4.445312.027344.029297c-.162871-.186842-.473399-.211716-.611328-.167969-.072309.022934-.09655.057785-.138672.085937-.952273.412075-1.423717 1.350394-1.875 2.087891-.229398.374888-.453141.704994-.671875.914063s-.398299.300781-.658203.300781-.439265-.091653-.658203-.300781c-.218939-.209128-.442238-.539175-.671875-.914063-.459274-.749776-.929252-1.71864-1.914063-2.119141-.984399-.400481-2.0048696-.041822-2.8691402.169922-.4321354.105872-.8295981.183724-1.1367188.179688s-.5008358-.064651-.6816406-.242188c-.1807776-.177534-.2381305-.359127-.2421875-.65625-.004057-.297122.0758982-.685294.1835937-1.109375.2153911-.848161.5835419-1.858171.171875-2.833984-.4117888-.976309-1.3945875-1.430756-2.1582031-1.880859-.3818078-.225052-.7190287-.44379-.9316406-.658204-.2126119-.214411-.3027344-.385412-.3027344-.632812s.0899979-.417972.3027344-.632812c.2127364-.214843.5498376-.436564.9316406-.66211.7636059-.451091 1.74645-.904839 2.1582031-1.880859.4116216-.97591.0435166-1.985859-.171875-2.8339846-.1076958-.4240628-.1876506-.8122822-.1835937-1.109375.0040568-.2970928.0614017-.4787079.2421875-.65625.1808179-.1775739.3745297-.2381367.6816406-.2421875s.7045901.0738172 1.1367188.1796875c.8642571.2117405 1.8847362.5703041 2.8691402.1699218.984593-.4005125 1.454804-1.3679324 1.914063-2.1171874.229629-.3746276.452959-.7051077.671875-.9140626.218916-.2089548.398189-.3007812.658203-.3007812zm0 5.1210938c-3.290267-.0000002-5.9765625 2.6330672-5.9765625 5.8789062 0 3.245841 2.6862955 5.878906 5.9765625 5.878906 3.290268 0 5.976562-2.633065 5.976562-5.878906 0-3.245839-2.686294-5.8789062-5.976562-5.8789062zm0 1.1210942c2.695107 0 4.855469 2.128953 4.855469 4.757812 0 2.628861-2.160361 4.757812-4.855469 4.757812-2.695106 0-4.855469-2.128951-4.855469-4.757812 0-2.628858 2.160363-4.757814 4.855469-4.757812z" fill="#fafafa"/></svg>