<svg height="52" viewBox="0 0 60 52" width="60" xmlns="http://www.w3.org/2000/svg" xmlns:xlink="http://www.w3.org/1999/xlink"><linearGradient id="a"><stop offset="0" stop-color="#fff"/><stop offset="1" stop-color="#fff" stop-opacity="0"/></linearGradient><linearGradient id="b" gradientUnits="userSpaceOnUse" x1="23.5" x2="140.19827" y1="64" y2="32.730793"><stop offset="0" stop-color="#0968ef"/><stop offset="1" stop-color="#aecffc"/></linearGradient><linearGradient id="c" gradientUnits="userSpaceOnUse" x1="100" x2="32" y1="120" y2="20"><stop offset="0" stop-color="#b900c4"/><stop offset="1" stop-color="#ae4300"/></linearGradient><linearGradient id="d" gradientUnits="userSpaceOnUse" x1="78.349243" x2="92" y1="104" y2="52"><stop offset="0" stop-color="#99c2fc"/><stop offset="1" stop-color="#dceafe"/></linearGradient><linearGradient id="e" gradientUnits="userSpaceOnUse" x1="95.013466" x2="108.26859" xlink:href="#a" y1="48.888466" y2="71.847008"/><linearGradient id="f" gradientUnits="userSpaceOnUse" x1="69" x2="69" xlink:href="#a" y1="59.972244" y2="100.01249"/><linearGradient id="g" gradientUnits="userSpaceOnUse" x1="44.158581" x2="94.738983" y1="124.52154" y2="73.941132"><stop offset="0" stop-color="#fbaeff"/><stop offset="1" stop-color="#ffd7d7"/></linearGradient><path d="m0 1000.3622h60v52h-60z" fill="#fff" transform="translate(0 -1000.3622)"/><g transform="matrix(.38793103 0 0 .38793103 5.448276 -.103448)"><path d="m64 80v36h40v-76l-24 8z" fill="url(#d)" fill-rule="evenodd"/><path d="m120 118-4-2-8-4v4h-100v4h100v4l8-4z" fill="#797979" opacity=".613861"/><g fill="#787878" fill-opacity=".615686"><path d="m4 96h8v4h-8z"/><path d="m4 76h8v4h-8z"/><path d="m4 56h8v4h-8z"/><path d="m4 36h8v4h-8z"/><g transform="rotate(-90)"><path d="m-124 92h8v4h-8z"/><path d="m-124 72h8v4h-8z"/><path d="m-124 52h8v4h-8z"/><path d="m-124 32h8v4h-8z"/></g></g><path d="m10 8-2 4-4 8h4v96h4v-96h4l-4-8z" fill="#797979" opacity=".613861"/><path d="m104 40-24 8-13.875 27.75c16.032968-1.214966 29.824349-6.950015 37.875-15.09375z" fill="url(#e)" opacity=".79703"/><path d="m24 104 32-8 24-48 24-8" fill="none" stroke="url(#b)" stroke-linecap="round" stroke-linejoin="round" stroke-width="4"/><path d="m56 68-32 24v24h40 40v-28l-24 16-16-24z" fill="url(#g)" fill-rule="evenodd"/><path d="m56 68-21.3125 15.96875c7.43433 2.552218 15.992006 4.03125 25.09375 4.03125 3.148157 0 6.225061-.198091 9.21875-.53125l-5-7.46875z" fill="url(#f)" opacity=".960396"/><path d="m24 92 32-24 24 36 24-16" fill="none" stroke="url(#c)" stroke-linecap="round" stroke-linejoin="round" stroke-width="4"/><path d="m24 104 32-8 24-48 24-8" style="opacity:.158416;fill:none;stroke-width:4;stroke-linecap:round;stroke-linejoin:round;stroke:url(#b)"/></g></svg>