<svg height="52" viewBox="0 0 60 52" width="60" xmlns="http://www.w3.org/2000/svg" xmlns:xlink="http://www.w3.org/1999/xlink"><linearGradient id="a"><stop offset="0" stop-color="#fff"/><stop offset="1" stop-color="#fff" stop-opacity="0"/></linearGradient><linearGradient id="b" gradientUnits="userSpaceOnUse" x1="3.9985" x2="47.998501" y1="60" y2="60"><stop offset="0" stop-color="#245795"/><stop offset="1" stop-color="#afd4ff"/></linearGradient><linearGradient id="c"><stop offset="0" stop-color="#9fbde2"/><stop offset="1" stop-color="#fff"/></linearGradient><linearGradient id="d"><stop offset="0" stop-color="#ccc"/><stop offset="1" stop-color="#dfdfdf"/></linearGradient><linearGradient id="e"><stop offset="0" stop-color="#bfbfbf"/><stop offset="1" stop-color="#666e76"/></linearGradient><linearGradient id="f" gradientUnits="userSpaceOnUse" x1="17.090148" x2="17.090148" xlink:href="#b" y1="39.29044" y2="17.516033"/><linearGradient id="g" gradientUnits="userSpaceOnUse" x1="12.592063" x2="17.815895" xlink:href="#a" y1="8.9283" y2="28.423905"/><linearGradient id="h" gradientUnits="userSpaceOnUse" x1="21.516129" x2="21.516129" xlink:href="#c" y1="27.67742" y2="3"/><linearGradient id="i" gradientUnits="userSpaceOnUse" x1="28.703052" x2="28.703052" xlink:href="#b" y1="34.255158" y2="12.480718"/><linearGradient id="j" gradientUnits="userSpaceOnUse" x1="33.129033" x2="33.129033" xlink:href="#c" y1="21.893516" y2=".119322"/><linearGradient id="k" gradientUnits="userSpaceOnUse" x1="24.419355" x2="30.225806" xlink:href="#a" y1="13.183839" y2="25.533878"/><linearGradient id="l" gradientUnits="userSpaceOnUse" x1="40.315955" x2="40.315955" xlink:href="#b" y1="31.79286" y2="17.435151"/><linearGradient id="m" gradientUnits="userSpaceOnUse" x1="44.741936" x2="44.741936" xlink:href="#c" y1="24.502018" y2="-.175402"/><linearGradient id="n" gradientUnits="userSpaceOnUse" x1="35.732046" x2="44.741936" xlink:href="#a" y1="9.694286" y2="25.299875"/><linearGradient id="o" gradientUnits="userSpaceOnUse" x1="15.709677" x2="15.709677" xlink:href="#e" y1="29.129032" y2="39.290323"/><linearGradient id="p" gradientUnits="userSpaceOnUse" x1="20.064516" x2="20.064516" xlink:href="#d" y1="43.645161" y2="32.032258"/><linearGradient id="q" gradientUnits="userSpaceOnUse" x1="12.806452" x2="21.685185" xlink:href="#a" y1="21.870967" y2="42.106477"/><linearGradient id="r" gradientUnits="userSpaceOnUse" x1="27.322581" x2="27.322581" xlink:href="#e" y1="26.225806" y2="39.290323"/><linearGradient id="s" gradientUnits="userSpaceOnUse" x1="31.67742" x2="31.67742" xlink:href="#d" y1="42.193549" y2="29.129032"/><linearGradient id="t" gradientUnits="userSpaceOnUse" x1="25.870968" x2="33.298088" xlink:href="#a" y1="21.870968" y2="45.805824"/><linearGradient id="u" gradientUnits="userSpaceOnUse" x1="38.935484" x2="38.935484" xlink:href="#e" y1="26.407259" y2="39.471776"/><linearGradient id="v" gradientUnits="userSpaceOnUse" x1="43.290323" x2="43.290323" xlink:href="#d" y1="42.375001" y2="26.341412"/><linearGradient id="w" gradientUnits="userSpaceOnUse" x1="38.557162" x2="43.568271" xlink:href="#a" y1="22.149711" y2="40.851423"/><linearGradient id="x" gradientTransform="matrix(.02938475 0 0 .02833241 22.834828 -3.214481)" gradientUnits="userSpaceOnUse" x1="481.46896" x2="481.46896" y1="345.94937" y2="35.92186"><stop offset="0" stop-color="#0968ef"/><stop offset="1" stop-color="#aecffc"/></linearGradient><path d="m0 1000.3622h60v52h-60z" fill="#fff" transform="translate(0 -1000.3622)"/><g transform="matrix(0 -1 -1 0 55.000001 55.000001)"><path d="m49.096775 45.822581-1.451613-.725806-2.903226-1.451613v1.451613h-36.2903231v1.451613h36.2903231v1.451613l2.903226-1.451613z" fill="#797979" opacity=".613861"/><g fill="#787878" fill-opacity=".615686"><path d="m7 37.838711h2.903226v1.451613h-2.903226z"/><path d="m7 30.580645h2.903226v1.451613h-2.903226z"/><path d="m7 23.32258h2.903226v1.451613h-2.903226z"/><path d="m7 16.064516h2.903226v1.451613h-2.903226z"/></g><path d="m9.1774194 5.9032258-.7258065 1.451613-1.4516129 2.9032262h1.4516129v34.83871h1.451613v-34.83871h1.4516131l-1.4516131-2.9032262z" fill="#797979" opacity=".613861"/><rect fill="url(#f)" height="20.32258" rx="1.732127" width="8.709678" x="12.806452" y="13.16129"/><rect fill="url(#h)" height="17.419355" rx=".641528" width="5.806452" x="14.258064" y="14.612904"/><path d="m14.904486 14.612903c-.355407 0-.646421.291016-.646421.646422v10.013861c2.269582-.462382 4.28909-1.630287 5.806451-3.266129v-6.747732c0-.355407-.291015-.646422-.646421-.646422z" fill="url(#g)"/><rect fill="url(#i)" height="14.493581" rx="1.732127" width="8.709678" x="24.419355" y="13.183839"/><rect fill="url(#j)" height="11.590355" rx=".641528" width="5.806452" x="25.870968" y="14.635452"/><path d="m26.517389 14.635452c-.355406 0-.646421.291015-.646421.646421v6.021925c2.269582-.462382 4.289091-1.630287 5.806452-3.266129v-2.755796c0-.355407-.291016-.646421-.646422-.646421z" fill="url(#k)"/><rect fill="url(#l)" height="17.419355" rx="1.732127" width="8.709678" x="36.032257" y="13.16129"/><rect fill="url(#m)" height="10.16129" rx=".641528" width="5.806452" x="37.483871" y="18.967743"/><path d="m38.130293 14.612447c-.355407 0-.646422.291015-.646422.646421v7.473537c2.269582-.462382 4.289092-1.630285 5.806452-3.266129v-4.207408c0-.355407-.291016-.646421-.646421-.646421z" fill="url(#n)"/><rect fill="url(#u)" height="16.024443" rx="1.732127" width="8.709678" x="36.032257" y="29.129032"/><rect fill="url(#v)" height="13.121216" rx=".641528" width="5.806452" x="37.483871" y="30.580645"/><path d="m38.130293 30.571573c-.355407 0-.646422.291015-.646422.646421v7.110635c2.269582-.462381 4.289091-1.630287 5.806452-3.266129v-3.844506c0-.355406-.291016-.646421-.646421-.646421z" fill="url(#w)"/><rect fill="url(#r)" height="18.870972" rx="1.732127" width="8.709678" x="24.419355" y="26.225807"/><rect fill="url(#s)" height="15.967744" rx=".641528" width="5.806452" x="25.870968" y="27.67742"/><path d="m26.517389 27.647935c-.355406 0-.646421.291016-.646421.646422v7.110635c2.269582-.462382 4.289091-1.630287 5.806452-3.266129v-3.844506c0-.355407-.291016-.646422-.646422-.646422z" fill="url(#t)"/><g fill="#787878" fill-opacity=".615686" transform="rotate(-90)"><path d="m-48 38.935486h2.903226v1.451613h-2.903226z"/><path d="m-48 31.67742h2.903226v1.451613h-2.903226z"/><path d="m-48 24.419355h2.903226v1.451613h-2.903226z"/><path d="m-48 17.161291h2.903226v1.451613h-2.903226z"/></g><rect fill="url(#o)" height="13.064516" rx="1.732127" width="8.709678" x="12.806452" y="32.032257"/><rect fill="url(#p)" height="10.16129" rx=".641528" width="5.806452" x="14.258064" y="33.483871"/><path d="m14.904486 33.492944c-.355407 0-.646421.291015-.646421.646421v5.659023c2.269582-.462383 4.28909-1.630288 5.806451-3.26613v-2.392893c0-.355406-.291015-.646421-.646421-.646421z" fill="url(#q)"/></g><path d="m33.451613 2.1935478v1.1340726h-1.451613v1.7691533h1.451613v2.9032263h1.451613v-5.8064522zm4.354838 0v1.0887097h-1.451613v3.6290325h1.451613v1.08871h1.451613v-1.08871h1.451613v-3.6290325h-1.451613v-1.0887097zm5.806452 0v1.0887097h-1.451613v3.6290325h1.451613v1.08871h1.451613v-1.08871h1.451613v-3.6290325h-1.451613v-1.0887097zm5.080645 0c-.400645 0-.725806.3251613-.725806.7258065s.325161.7258065.725806.7258065.725807-.3251613.725807-.7258065-.325162-.7258065-.725807-.7258065zm2.903226.7258065-3.629032 3.6290327v.725806h.725806l3.629033-3.6290322v-.7258065zm-13.790323.7258065h1.451613v2.9032262h-1.451613zm5.806452 0h1.451613v2.9032262h-1.451613zm7.983871 2.9032262c-.400645 0-.725806.325161-.725806.725806s.325161.725807.725806.725807.725807-.325162.725807-.725807-.325162-.725806-.725807-.725806z" fill="url(#x)"/></svg>