<svg viewBox="0 0 30 30" xmlns="http://www.w3.org/2000/svg"><path d="m30 0h-30v30h30z" fill="#fff"/><path d="m27.478328 13.845891c0-.179745-.159031-.324219-.357422-.324219h-6.62294v-2.689562c0-.179745-.159032-.324219-.357422-.324219h-10.3195601c-.19839 0-.357422.144474-.357422.324219v2.689562h-6.600468c-.198391 0-.3574219.144474-.3574219.324219v2.324218c0 .179745.1590309.324219.3574219.324219h6.600468v2.673562c0 .179745.159032.324219.357422.324219h10.3195601c.19839 0 .357422-.144474.357422-.324219v-2.673562h6.62294c.198391 0 .357422-.144474.357422-.324219z" fill="#8c8c8c" stroke="#565656" stroke-linecap="round" stroke-linejoin="round"/></svg>