<svg viewBox="0 0 24 24" xmlns="http://www.w3.org/2000/svg" xmlns:xlink="http://www.w3.org/1999/xlink"><linearGradient id="a" gradientTransform="matrix(.57667265 -.00000001 0 .3986261 59.274431 -7.544538)" gradientUnits="userSpaceOnUse" x1="1.40058" x2="15.936521" y1="2.141993" y2="22.887756"><stop offset="0" stop-color="#fbaeff"/><stop offset="1" stop-color="#ffd7d7"/></linearGradient><linearGradient id="b" gradientUnits="userSpaceOnUse" x1="6.528146" x2="20.79105" y1="-5.834301" y2="13.437355"><stop offset="0" stop-color="#0968ef"/><stop offset="1" stop-color="#aecffc"/></linearGradient><linearGradient id="c" gradientUnits="userSpaceOnUse" x1="15.074356" x2="27.883123" y1="14.564268" y2="25.979523"><stop offset="0" stop-color="#bfbfbf"/><stop offset="1" stop-color="#8b939b"/></linearGradient><radialGradient id="d" cx="99.156998" cy="186.17" gradientTransform="matrix(.043493 0 0 .03633797 16.374033 13.311651)" gradientUnits="userSpaceOnUse" r="62.769001" xlink:href="#e"/><linearGradient id="e"><stop offset="0" stop-color="#3d3d3d"/><stop offset=".5" stop-color="#686868" stop-opacity=".498039"/><stop offset="1" stop-color="#686868" stop-opacity="0"/></linearGradient><radialGradient id="f" cx="99.156998" cy="186.17" gradientTransform="matrix(.11054841 0 0 .03922345 -.567444 12.482999)" gradientUnits="userSpaceOnUse" r="62.769001" xlink:href="#e"/><linearGradient id="g" gradientTransform="matrix(.16409195 0 0 .16555219 .337763 1.100752)" gradientUnits="userSpaceOnUse" x1="54.32" x2="53.698002" y1="11.726" y2="160.42"><stop offset="0" stop-color="#fff"/><stop offset=".54875" stop-color="#fff" stop-opacity=".235294"/><stop offset=".89156" stop-color="#fff" stop-opacity=".156863"/><stop offset="1" stop-color="#fff" stop-opacity=".392157"/></linearGradient><linearGradient id="h" gradientTransform="matrix(.17694583 0 0 .16270013 1.044431 .428074)" gradientUnits="userSpaceOnUse" x1="91.069" x2="80.983002" y1="12.637" y2="132.59"><stop offset="0" stop-color="#fff"/><stop offset=".36815" stop-color="#fff" stop-opacity=".235294"/><stop offset=".77671" stop-color="#fff" stop-opacity=".156863"/><stop offset="1" stop-color="#fff" stop-opacity=".392157"/></linearGradient><linearGradient id="i" gradientTransform="matrix(.0735089 0 0 .07157575 13.278885 12.194273)" gradientUnits="userSpaceOnUse" x1="95.411003" x2="93.052002" y1="81.265999" y2="88.222"><stop offset="0" stop-color="#fff"/><stop offset="1" stop-color="#fff" stop-opacity=".392157"/></linearGradient><path d="m23.417 20.077a2.73 2.2809 0 0 1 -5.46 0 2.73 2.2809 0 1 1 5.46 0z" fill="url(#d)" opacity=".316973"/><path d="m17.333 19.785a6.939 2.462 0 0 1 -13.878 0 6.939 2.462 0 1 1 13.878 0z" fill="url(#f)"/><path d="m13 2.5093v8.7474l8.6647 3.6167c.54681-1.103.85217-2.3267.85217-3.6167 0-4.8265-4.2658-8.7474-9.5169-8.7474z" fill="url(#b)"/><path d="m10.51 2.5092c-5.2507 0-9.5162 4.257-9.5162 9.4972s4.2655 9.4972 9.5162 9.4972c2.1989 0 4.2208-.75058 5.8333-2.0033l-5.8333-7.4939z" fill="url(#a)"/><path d="m14.693 14.173 5.8337 7.4944c1.2088-.93919 2.1887-2.1606 2.831-3.5674z" fill="url(#c)"/><g fill="none"><path d="m10.51 2.5092c-5.2507 0-9.5162 4.257-9.5162 9.4972s4.2655 9.4972 9.5162 9.4972c2.1989 0 4.2208-.75058 5.8333-2.0033l-5.8333-7.4939z" opacity=".4" stroke="#c04fc6" stroke-linejoin="round"/><path d="m13 2.5093v8.7474l8.6647 3.6167c.5468-1.103.85217-2.3267.85217-3.6167 0-4.8265-4.2658-8.7474-9.5169-8.7474z" opacity=".4" stroke="#2f80f2" stroke-linejoin="round"/><path d="m14.693 14.173 5.8337 7.4944c1.2088-.93919 2.1887-2.1606 2.831-3.5674z" opacity=".4" stroke="#91989f" stroke-linejoin="round" stroke-miterlimit="4.3"/><path d="m1.9797 12.368c.3925 6.504 7.4379 10.214 12.947 6.907-1.718-2.238-5.4121-6.876-5.4121-6.876s-.0133-5.9883-.0133-8.8234c-4.2436.4771-7.5647 4.0437-7.5219 8.7924z" opacity=".4" stroke="url(#g)"/><path d="m14.005 10.654c2.3403.98162 4.7758 2.0151 7.1161 2.9968 1.6627-4.6866-1.699-9.5356-7.1194-10.137 0 2.3715.0033 4.7685.0033 7.14z" opacity=".4" stroke="url(#h)"/><path d="m20.645 20.242c.4365-.35173 1.0961-1.2123 1.3289-1.6692-1.0534-.45947-4.03-1.8169-4.03-1.8169s2.0992 2.7453 2.7011 3.4861z" opacity=".4" stroke="url(#i)" stroke-miterlimit="4.2"/></g></svg>