<svg height="30" viewBox="0 0 7.9374998 7.9375002" width="30" xmlns="http://www.w3.org/2000/svg" xmlns:xlink="http://www.w3.org/1999/xlink"><linearGradient id="a" gradientTransform="matrix(.26458333 0 0 .26458333 -15.029314 281.91872)" gradientUnits="userSpaceOnUse" x1="8.008959" x2="53.133263" y1="22.594744" y2="22.594744"><stop offset="0" stop-color="#cd9ef7"/><stop offset="1" stop-color="#a56de2"/></linearGradient><linearGradient id="b" gradientUnits="userSpaceOnUse" x1="1.73077" x2="1.73077" xlink:href="#a" y1="12.692307" y2="13.846154"/><linearGradient id="c" gradientUnits="userSpaceOnUse" x1="4.038462" x2="4.038462" xlink:href="#a" y1="9.230769" y2="10.961539"/><linearGradient id="d" gradientUnits="userSpaceOnUse" x1="5.192308" x2="5.192308" xlink:href="#a" y1="2.884616" y2="4.038462"/><linearGradient id="e" gradientUnits="userSpaceOnUse" x1="9.807693" x2="9.807692" xlink:href="#a" y1="5.769231" y2="7.5"/><linearGradient id="f" gradientUnits="userSpaceOnUse" x1="12.692307" x2="12.692307" xlink:href="#a" y1="9.807693" y2="10.961539"/><linearGradient id="g" gradientUnits="userSpaceOnUse" x1="13.846154" x2="13.846153" xlink:href="#a" y1="13.269231" y2="14.423077"/><linearGradient id="h" gradientTransform="matrix(.07559506 0 0 .08048546 .037812 289.38861)" gradientUnits="userSpaceOnUse" x1="25.132275" x2="25.749872" y1=".985206" y2="84.70623"><stop offset="0" stop-color="#f4f4f4"/><stop offset="1" stop-color="#dbdbdb"/></linearGradient><linearGradient id="i" gradientTransform="matrix(.24324324 0 0 .35135133 2.162164 -.432428)" gradientUnits="userSpaceOnUse" x1="23.99999" x2="23.999838" y1="6.923065" y2="72.384537"><stop offset="0" stop-color="#fff"/><stop offset="0" stop-color="#fff" stop-opacity=".235294"/><stop offset="1" stop-color="#fff" stop-opacity=".156863"/><stop offset="1" stop-color="#fff" stop-opacity=".392157"/></linearGradient><linearGradient id="j" gradientTransform="matrix(.25378586 0 0 .30501865 19.128979 -.685477)" gradientUnits="userSpaceOnUse" x1="-51.732658" x2="-51.786404" y1="89.127182" y2="2.906247"><stop offset="0" stop-opacity=".339506"/><stop offset="1" stop-opacity=".246914"/></linearGradient><radialGradient id="k" cx="4.992979" cy="43.5" gradientTransform="matrix(.41855355 0 0 .15874997 4.801797 288.10998)" gradientUnits="userSpaceOnUse" r="2.5" xlink:href="#l"/><linearGradient id="l"><stop offset="0" stop-color="#181818"/><stop offset="1" stop-color="#181818" stop-opacity="0"/></linearGradient><radialGradient id="m" cx="4.992979" cy="43.5" gradientTransform="matrix(-.41855355 0 0 -.15874997 3.664869 301.92123)" gradientUnits="userSpaceOnUse" r="2.5" xlink:href="#l"/><linearGradient id="n" gradientTransform="matrix(.20888158 0 0 .11339284 -.779825 290.08302)" gradientUnits="userSpaceOnUse" x1="25.058096" x2="25.058096" y1="47.027729" y2="39.999443"><stop offset="0" stop-color="#181818" stop-opacity="0"/><stop offset=".5" stop-color="#181818"/><stop offset="1" stop-color="#181818" stop-opacity="0"/></linearGradient><g transform="translate(0 -289.06248)"><g opacity=".4" stroke-width=".153902" transform="translate(-.264583 1.322917)"><path d="m6.8791665 294.61873h1.0583334v.79375h-1.0583334z" fill="url(#k)"/><path d="m1.5874997 295.41248h-1.04440796v-.79375h1.04440796z" fill="url(#m)"/><path d="m1.5874997 294.61873h5.2916668v.79375h-5.2916668z" fill="url(#n)"/></g><path d="m.52917671 289.59165 6.61456379-.00001-.0000102 6.61457-6.61456681.00026z" fill="url(#h)" stroke-width=".264583"/><g fill="none"><g transform="matrix(.26458333 0 0 .26458333 -.264573 289.32707)"><path d="m27.499888 25.499916-23.9999381.000953.00005-24.000869 23.9999381-.0009539z" stroke="url(#i)" stroke-linecap="round"/><path d="m2.4999621.49997396c2.5206756 0 26.0000009.00000013 26.0000009.00000013l-.000037 25.99996791-26.000014.000953z" stroke="url(#j)" stroke-linejoin="round" stroke-width=".999922"/></g><g transform="translate(0 -.264584)"><g fill="#4d82b8" transform="matrix(.45861113 0 0 .45861113 .529167 289.06248)"><path d="m.576924 13.269231h1.153846v1.153846h-1.153846z" fill="url(#b)"/><path d="m2.884616 10.384616h1.153846v1.153846h-1.153846z" fill="url(#c)"/><path d="m4.038462 3.461539h1.153846v1.153846h-1.153846z" fill="url(#d)"/><path d="m8.653846 6.923077h1.153846v1.153846h-1.153846z" fill="url(#e)"/><path d="m11.538461 10.384616h1.153846v1.153846h-1.153846z" fill="url(#f)"/><path d="m12.692307 13.846154h1.153846v1.153846h-1.153846z" fill="url(#g)"/></g><path d="m2.2489585 294.88331c.091576-.4465.017612-.98104.2568069-1.38011.049577-.0827.2354041-.14193.2776562-.22398.1504136-.29209-.021106-.95326.066501-1.2139.040149-.11944.1460093-.0333.2013437-.11855.1175748-.18112-.1169688-.24186.064768-.35302.104058-.0636.5066311.0817.7425175.0242.2005281-.0488.2319543-.3058.3747815-.30655.1583602-.002.5207516.0587.6659205.10814.1076358.0366.093211.13277.1906957.19304.098145.0607.00506-.0785.094867.002.1053112.0941-.038182.25004.059948.37077.075771.0932.3154283.21622.3907396.32072.093775.13012.2885535.19719.373174.3387.073712.12327.024623.25122.086748.38159.045808.0961.2305806.14679.2733178.24463.040221.0921-.040435.19703-.00778.29047.029784.0852.1640243.14701.1918825.23144.028931.0877-.016441.24538.00476.33181.026262.10705.2267015.32505.2494758.42039.069393.29051-.057683.41097-.060209.60298" fill="none" stroke="#cc3b02" stroke-width=".264583"/></g></g></g></svg>