<svg height="52" viewBox="0 0 60 52" width="60" xmlns="http://www.w3.org/2000/svg" xmlns:xlink="http://www.w3.org/1999/xlink"><linearGradient id="a" gradientUnits="userSpaceOnUse" x1="42.5" x2="42.5" y1="49.5" y2="7"><stop offset="0" stop-color="#f6f6f6"/><stop offset=".35294119" stop-color="#fcfcfc"/><stop offset="1" stop-color="#fff" stop-opacity=".915441"/></linearGradient><linearGradient id="b" gradientUnits="userSpaceOnUse" x1="7.583168" x2="51.512402" y1="32.046768" y2="32.046768"><stop offset="0" stop-color="#ffa154"/><stop offset="1" stop-color="#f37329"/></linearGradient><linearGradient id="c" gradientUnits="userSpaceOnUse" x1="7.262925" x2="52.840714" y1="11.543041" y2="11.543041"><stop offset="0" stop-color="#cd9ef7"/><stop offset="1" stop-color="#a56de2"/></linearGradient><g fill="#010101"><path d="m3 3h57v49h-57z" opacity=".02"/><path d="m3 3h56.5v48.5h-56.5z" opacity=".05"/><path d="m3 3h56v48h-56z" opacity=".2"/></g><path d="m.5.5h57v49h-57z" fill="url(#a)" stroke="#939393" stroke-linecap="round" stroke-linejoin="round" stroke-width=".999"/><path d="m1.5 1.5h55v47h-55z" fill="none" stroke="#fff" stroke-linecap="round" stroke-linejoin="round" stroke-width=".999"/><path d="m43.464844 23.226562c-2.00438-.006786-4.006319.059372-5.464844.273438-5.164822.758035-10.354361 2.119235-15 4.5-4.634547 2.375081-12.289188 9.350297-13 10.001953-.0354038.032457-2 2.998047-2 2.998047s8.134617-7.506622 13-10c4.645639-2.380765 9.835178-3.741965 15-4.5 4.287402-.629257 13 0 13 0s2.145512-2.982814 2.005859-2.992188c-.852953-.056993-4.200382-.269938-7.541015-.28125z" fill="url(#b)" stroke="#cc3b02" stroke-opacity=".745098"/><path d="m24 6c-5.076889.1880329-9.407029 5.307296-14 8.001953-.043811.0257-2.9608618 3.55995-2.0625 3.035156l.0625-.035156v-.001953c.0004685-.000268.00148.000268.00195 0 4.666106-2.666896 8.853871-7.8094748 13.99805-8 5.890869.2642733 7.808526 6.191293 13 7 4.855018.704411 12.162707-2.304505 14.810547-2.888672.272569-.0549 1.024718-.20775 1.230469-.248047.187262-.036672 2.046302-3.0137139.958984-2.800781-2.5.489583-10.043605 3.65662-15 2.9375s-7.855304-7.1905443-13-7z" fill="url(#c)" stroke="#9468c4" stroke-opacity=".988235"/></svg>