<svg height="52" viewBox="0 0 60 52" width="60" xmlns="http://www.w3.org/2000/svg"><path d="m0 0h60v52h-60z" fill="#fff"/><path d="m52 45.672414-1.551725-.775863-3.103448-1.551724v1.551724h-38.7931028v1.551725h38.7931028v1.551724l3.103448-1.551724z" fill="#797979" opacity=".613861"/><g fill="#787878" fill-opacity=".615686" transform="matrix(.38793103 0 0 .38793103 5.448276 -.103448)"><path d="m4 96h8v4h-8z"/><path d="m4 76h8v4h-8z"/><path d="m4 56h8v4h-8z"/><path d="m4 36h8v4h-8z"/></g><path d="m9.3275863 3.0000002-.7758621 1.5517242-1.5517241 3.1034482h1.5517241v37.2413784h1.5517238v-37.2413784h1.551724l-1.551724-3.1034482z" fill="#797979" opacity=".613861"/><g fill="#787878" fill-opacity=".615686" transform="matrix(0 -.38793103 .38793103 0 5.448276 -.103448)"><path d="m-124 92h8v4h-8z"/><path d="m-124 72h8v4h-8z"/><path d="m-124 52h8v4h-8z"/><path d="m-124 32h8v4h-8z"/></g><g transform="translate(-.903842 32.059323)"><path d="m17 9v-8" fill="none" stroke="#b22b46" stroke-linecap="round"/><path d="m17.351695 5.0000002h1.885593" fill="none" stroke="#b22b46" stroke-linecap="round"/></g><g transform="translate(-1.529329 13.132851)"><path d="m17 9v-8" fill="none" stroke="#5295f5" stroke-linecap="round"/><path d="m17.511322 4.9349446h1.665254" fill="none" stroke="#5295f5" stroke-linecap="round"/></g><g transform="translate(27.585787 11.439625)"><path d="m17 9v-8" fill="none" stroke="#5295f5" stroke-linecap="round"/><path d="m17.511322 4.9349446h1.417372" fill="none" stroke="#5295f5" stroke-linecap="round"/></g><g transform="translate(27.463771 29.933228)"><path d="m17 9v-8" fill="none" stroke="#b22b46" stroke-linecap="round"/><path d="m17.351695 5.0000002h1.802966" fill="none" stroke="#b22b46" stroke-linecap="round"/></g><g transform="translate(8.979515 5.355932)"><path d="m17 9v-8" fill="none" stroke="#b22b46" stroke-linecap="round"/><path d="m17.351695 5.0000002h1.885593" fill="none" stroke="#b22b46" stroke-linecap="round"/></g><g transform="translate(17.944557 20.338983)"><path d="m17 9v-8" fill="none" stroke="#b22b46" stroke-linecap="round"/><path d="m17.351695 5.0000002h1.802966" fill="none" stroke="#b22b46" stroke-linecap="round"/></g><g transform="translate(8.238685 26.067797)"><path d="m17 9v-8" fill="none" stroke="#5295f5" stroke-linecap="round"/><path d="m17.511322 4.9349446h1.665254" fill="none" stroke="#5295f5" stroke-linecap="round"/></g><g transform="translate(17.713261 5.686441)"><path d="m17 9v-8" fill="none" stroke="#5295f5" stroke-linecap="round"/><path d="m17.511322 4.9349446h1.665254" fill="none" stroke="#5295f5" stroke-linecap="round"/></g></svg>