<svg viewBox="0 0 16 16" xmlns="http://www.w3.org/2000/svg" xmlns:xlink="http://www.w3.org/1999/xlink"><linearGradient id="a" gradientUnits="userSpaceOnUse" x1="4" x2="12" y1="7" y2="7"><stop offset="0" stop-color="#b900c4"/><stop offset="1" stop-color="#ae4300"/></linearGradient><linearGradient id="b" gradientUnits="userSpaceOnUse" x1="4" x2="14" y1="7" y2="7"><stop offset="0" stop-color="#0968ef"/><stop offset="1" stop-color="#aecffc"/></linearGradient><path d="m4 3v1h1v-1zm2 0v1h1v-1zm-2 2v1h1v-1zm2 0v1h1v-1zm3 3v1h1v-1zm2 0v1h1v-1zm-2 2v1h1v-1zm2 0v1h1v-1z" fill="url(#a)"/><path d="m12 2v1h1v-1zm1 1v1h1v-1zm0 1h-1v1h1zm-1 0v-1h-1v1zm-7 5v1h1v-1zm1 1v1h1v-1zm0 1h-1v1h1zm-1 0v-1h-1v1z" fill="url(#b)"/><path d="m1.5061881 13.50087h12.9894869" fill="none" stroke="#565656" stroke-linecap="round" stroke-width=".99816"/><path d="m2.50005 1.4590312v13.0338478" fill="none" stroke="#565656" stroke-linecap="round"/></svg>