<svg viewBox="0 0 16 16" xmlns="http://www.w3.org/2000/svg" xmlns:xlink="http://www.w3.org/1999/xlink"><linearGradient id="a" gradientUnits="userSpaceOnUse" x1="16.530293" x2="22.530369" y1="11.989279" y2="11.989279"><stop offset="0" stop-color="#cd9ef7"/><stop offset="1" stop-color="#a56de2"/></linearGradient><linearGradient id="b"><stop offset="0" stop-color="#fff"/><stop offset=".65377" stop-color="#fff" stop-opacity=".23529"/><stop offset="1" stop-color="#fff" stop-opacity=".15686"/><stop offset="1" stop-color="#fff" stop-opacity=".39216"/></linearGradient><linearGradient id="c" gradientUnits="userSpaceOnUse" x1="13.493202" x2="19.50662" y1="13.563705" y2="13.989304"><stop offset="0" stop-color="#ffa154"/><stop offset="1" stop-color="#f37329"/></linearGradient><linearGradient id="d" gradientUnits="userSpaceOnUse" x1="-11.519451" x2="-5.9193" xlink:href="#c" y1="3.780623" y2="3.780623"/><linearGradient id="e" gradientUnits="userSpaceOnUse" x1="-8.479678" x2="-8.479678" xlink:href="#b" y1="1.520321" y2="4.520321"/><linearGradient id="f" gradientUnits="userSpaceOnUse" x1="-14.578054" x2="-10.376961" xlink:href="#a" y1="10.022489" y2="10.022489"/><linearGradient id="g" gradientUnits="userSpaceOnUse" x1="-12.479678" x2="-12.479678" xlink:href="#b" y1="8.884489" y2="10.520321"/><linearGradient id="h" gradientUnits="userSpaceOnUse" x1="-8.085867" x2="-3.884774" xlink:href="#c" y1="11.522489" y2="11.522489"/><linearGradient id="i" gradientUnits="userSpaceOnUse" x1="-5.98749" x2="-5.98749" xlink:href="#b" y1="10.384489" y2="12.020321"/><linearGradient id="j" gradientUnits="userSpaceOnUse" x1="-5.285304" x2=".310546" xlink:href="#a" y1="7.017197" y2="7.017197"/><linearGradient id="k" gradientUnits="userSpaceOnUse" x1="-2.465373" x2="-2.465373" xlink:href="#b" y1="5.208024" y2="7.838711"/><g stroke-linecap="round"><g fill="none" stroke="#565656" transform="translate(-2.999979 2.99033)"><path d="m3.4999792 12.50967h14.9999998" stroke-width=".99816"/><path d="m3.4999792-2.4903304v14.5000004"/></g><g stroke-linejoin="round" stroke-opacity=".705882"><circle cx="-8.719376" cy="3.780624" fill="url(#d)" r="2.240061" stroke="#b24f39" transform="translate(15.979679 -1.020321)"/><circle cx="-8.719376" cy="3.780624" fill="none" r="1.27295" stroke="url(#e)" transform="translate(15.979679 -1.020321)"/><circle cx="-12.477509" cy="10.022489" fill="url(#f)" r="1.501383" stroke="#7239b3" transform="translate(15.979679 -1.020321)"/><circle cx="-12.477509" cy="10.022489" fill="none" r=".602842" stroke="url(#g)" stroke-width=".896351" transform="translate(15.979679 -1.020321)"/><circle cx="-5.985321" cy="11.522489" fill="url(#h)" r="1.501383" stroke="#b24f39" transform="translate(15.979679 -1.020321)"/><circle cx="-5.985321" cy="11.522489" fill="none" r=".602842" stroke="url(#i)" stroke-width=".896351" transform="translate(15.979679 -1.020321)"/><circle cx="-2.487379" cy="7.017194" fill="url(#j)" r="1.99984" stroke="#7239b3" transform="translate(15.979679 -1.020321)"/><circle cx="-2.461884" cy="7.038114" fill="none" r=".969469" stroke="url(#k)" transform="translate(15.979679 -1.020321)"/></g></g></svg>