<svg height="52" viewBox="0 0 60 52" width="60" xmlns="http://www.w3.org/2000/svg" xmlns:xlink="http://www.w3.org/1999/xlink"><linearGradient id="a" gradientUnits="userSpaceOnUse" x1="42.5" x2="42.5" y1="49.5" y2="7"><stop offset="0" stop-color="#f6f6f6"/><stop offset=".35294119" stop-color="#fcfcfc"/><stop offset="1" stop-color="#fff" stop-opacity=".915441"/></linearGradient><linearGradient id="b" gradientUnits="userSpaceOnUse" x1="4.467926" x2="55.926685" y1="21.525034" y2="21.525034"><stop offset="0" stop-color="#ffa154"/><stop offset="1" stop-color="#f37329"/></linearGradient><linearGradient id="c" gradientUnits="userSpaceOnUse" x1="8.008959" x2="53.133263" y1="22.594744" y2="22.594744"><stop offset="0" stop-color="#cd9ef7"/><stop offset="1" stop-color="#a56de2"/></linearGradient><g fill="#010101"><path d="m3 3h57v49h-57z" opacity=".02"/><path d="m3 3h56.5v48.5h-56.5z" opacity=".05"/><path d="m3 3h56v48h-56z" opacity=".2"/></g><g stroke-linecap="round"><path d="m.5.5h57v49h-57z" fill="url(#a)" stroke="#939393" stroke-linejoin="round" stroke-width=".999"/><path d="m1.5 1.5h55v47h-55z" fill="none" stroke="#fff" stroke-linejoin="round" stroke-width=".999"/><path d="m31.349609 4.4277344c-1.150132.0519668-2.274458.2366897-3.349609.5722656-3.460635 1.0801326-6.385261 4.3354702-8.798828 8.398438 1.98177-2.616128 4.244133-4.6010673 6.798828-5.398438 1.075151-.3355759 2.199477-.5202988 3.349609-.5722656 8.05093-.3637677 17.407887 5.8232736 20.650391 13.0097656 2.01098 4.457015-1.35015 12.624831-3.46875 17.007812-.858828 1.776753-1.53125 2.992188-1.53125 2.992188l2-3s7.826181-13.736221 5-20c-3.242504-7.186492-12.599461-13.3735333-20.650391-13.0097656zm-12.148437 8.9707036c-7.238271 9.555213-10.701172 27.601562-10.701172 27.601562l2-3s2.825356-14.710296 8.701172-24.601562z" fill="url(#c)" stroke="#9468c4" stroke-opacity=".988235"/></g><path d="m17 8.1875s-8.8595229 3.989816-9.9238281 8.105469c2.9414531-2.859208 7.9238281-5.105469 7.9238281-5.105469zm-9.9238281 8.105469c-1.363058 1.324946-2.2911087 2.780795-2.0761719 4.207031 1.7106614 11.351274 19.56197 14.025708 31 15 5.703394.485815 16.5-4.757813 16.5-4.757812l2-3c0-.000001-1.777074.852143-4.234375 1.833984-3.65534 1.46053-8.855013 3.214344-12.265625 2.923828-11.43803-.974292-29.2893386-3.648726-31-15-.0604085-.400847-.0278021-.804965.0761719-1.207031z" fill="url(#b)" stroke="#cc3b02" stroke-opacity=".745098"/></svg>