<svg height="52" viewBox="0 0 60 52" width="60" xmlns="http://www.w3.org/2000/svg" xmlns:xlink="http://www.w3.org/1999/xlink"><linearGradient id="a" gradientUnits="userSpaceOnUse" x1="13.608" x2="13.608" y1="2.5455" y2="21.532"><stop offset="0" stop-color="#ffa154"/><stop offset="1" stop-color="#f37329"/></linearGradient><linearGradient id="b" gradientUnits="userSpaceOnUse" x1="15.608" x2="15.608" y1="2.5455" y2="21.532"><stop offset="0" stop-color="#cd9ef7"/><stop offset="1" stop-color="#a56de2"/></linearGradient><linearGradient id="c" gradientUnits="userSpaceOnUse" x1="42.5" x2="42.5" y1="49.5" y2="7"><stop offset="0" stop-color="#f6f6f6"/><stop offset=".35294119" stop-color="#fcfcfc"/><stop offset="1" stop-color="#fff" stop-opacity=".915441"/></linearGradient><linearGradient id="d" gradientUnits="userSpaceOnUse" x1="52" x2="55" xlink:href="#a" y1="31.619459" y2="31.619459"/><linearGradient id="e" gradientUnits="userSpaceOnUse" x1="36.000042" x2="54.999958" xlink:href="#a" y1="33.99815" y2="33.99815"/><linearGradient id="f" gradientUnits="userSpaceOnUse" x1="36" x2="39" xlink:href="#a" y1="26.5" y2="26.5"/><linearGradient id="g" gradientUnits="userSpaceOnUse" x1="5.000043" x2="38.999958" xlink:href="#a" y1="19" y2="19"/><linearGradient id="h" gradientUnits="userSpaceOnUse" x1="5" x2="8" xlink:href="#a" y1="14.5" y2="14.5"/><linearGradient id="i" gradientUnits="userSpaceOnUse" x1="5.000043" x2="16.499956" xlink:href="#a" y1="10" y2="10"/><linearGradient id="j" gradientUnits="userSpaceOnUse" x1="9.000044" x2="28.999956" xlink:href="#b" y1="40" y2="40"/><linearGradient id="k" gradientUnits="userSpaceOnUse" x1="45" x2="48" xlink:href="#b" y1="28.53125" y2="28.53125"/><linearGradient id="l" gradientUnits="userSpaceOnUse" x1="45.000046" x2="52.999954" xlink:href="#b" y1="18.03125" y2="18.03125"/><linearGradient id="m" gradientUnits="userSpaceOnUse" x1="50" x2="53" xlink:href="#b" y1="12" y2="12"/><linearGradient id="n" gradientUnits="userSpaceOnUse" x1="26.000044" x2="52.999958" xlink:href="#b" y1="6" y2="6"/><linearGradient id="o" gradientUnits="userSpaceOnUse" x1="26" x2="29" xlink:href="#b" y1="23" y2="23"/><g fill="#010101"><path d="m3 3h57v49h-57z" opacity=".02"/><path d="m3 3h56.5v48.5h-56.5z" opacity=".05"/><path d="m3 3h56v48h-56z" opacity=".2"/></g><g stroke-linecap="round" stroke-linejoin="round"><path d="m.5.5h57v49h-57z" fill="url(#c)" stroke="#939393" stroke-width=".999"/><g fill="none"><path d="m11.5 38.5h17v-34h24v12l-5 .0625v20.9375" stroke="#9468c4" stroke-opacity=".988235"/><path d="m1.5 1.5h55v47h-55z" stroke="#fff" stroke-width=".999"/><path d="m45.5 40.5 2-3" stroke="#9468c4" stroke-opacity=".988235"/></g></g><path d="m45.5 40.5 2-3v-20.9375l-2 3z" fill="url(#k)"/><path d="m45.5 19.5625 5-.0625 2-3-5 .0625z" fill="url(#l)"/><path d="m50.5 19.5 2-3v-12l-2 3z" fill="url(#m)"/><path d="m50.5 7.5 2-3h-24l-2 3z" fill="url(#n)"/><path d="m28.5 4.5v34l-2 3v-34z" fill="url(#o)"/><path d="m9.5 41.5 2-3h17l-2 3z" fill="url(#j)"/><path d="m9.5 41.5h17v-34h24v12l-5 .0625v20.9375" fill="none" stroke="#9468c4" stroke-linecap="round" stroke-linejoin="round" stroke-opacity=".988235"/><path d="m16 8.5h-8.5v9h31v15l16-.0037v-4.75368" fill="none" stroke="#cc3b02" stroke-linecap="round" stroke-linejoin="round" stroke-opacity=".745098"/><path d="m14 11.5 2-3h-8.5l-2 3z" fill="url(#i)"/><path d="m5.5 20.5 2-3v-9l-2 3z" fill="url(#h)"/><path d="m5.5 20.5h31l2-3h-31z" fill="url(#g)"/><path d="m36.5 20.5v15l2-3v-15z" fill="url(#f)"/><path d="m36.5 35.5 16-.0037 2-3-16 .0037z" fill="url(#e)"/><path d="m52.5 30.74262 2-3v4.75368l-2 3z" fill="url(#d)"/><g fill="none" stroke-linecap="round" stroke-linejoin="round"><g stroke="#cc3b02" stroke-opacity=".745098"><path d="m14 11.5h-8.5v9h31v15l16-.0037v-4.75368"/><path d="m14 11.5 2-3"/><path d="m5.5 11.5 2-3"/><path d="m52.5 30.74262 2-3"/><path d="m52.5 35.4963 2-3"/></g><g stroke="#9468c4" stroke-opacity=".988235"><path d="m45.5 19.5625 2-3"/><path d="m50.5 19.5 2-3"/><path d="m26.5 7.5 2-3"/><path d="m26.5 41.5 2-3"/><path d="m9.5 41.5 2-3"/></g></g></svg>