<svg height="52" viewBox="0 0 60 52" width="60" xmlns="http://www.w3.org/2000/svg" xmlns:xlink="http://www.w3.org/1999/xlink"><linearGradient id="a" gradientUnits="userSpaceOnUse" x1="15.608" x2="15.608" y1="2.5455" y2="21.532"><stop offset="0" stop-color="#cd9ef7"/><stop offset="1" stop-color="#a56de2"/></linearGradient><linearGradient id="b" gradientUnits="userSpaceOnUse" x1="42.5" x2="42.5" y1="49.5" y2="7"><stop offset="0" stop-color="#f6f6f6"/><stop offset=".35294119" stop-color="#fcfcfc"/><stop offset="1" stop-color="#fff" stop-opacity=".915441"/></linearGradient><linearGradient id="c" gradientUnits="userSpaceOnUse" x1="44.500069" x2="52.499931" xlink:href="#a" y1="28.9375" y2="28.9375"/><linearGradient id="d" gradientUnits="userSpaceOnUse" x1="8.000451" x2="28.49955" xlink:href="#a" y1="23" y2="23"/><linearGradient id="e" gradientUnits="userSpaceOnUse" x1="25.500023" x2="52.499977" xlink:href="#a" y1="12.71875" y2="12.71875"/><linearGradient id="f" gradientUnits="userSpaceOnUse" x1="4.500023" x2="54.999931" y1="21.843882" y2="21.843882"><stop offset="0" stop-color="#ffa154"/><stop offset="1" stop-color="#f37329"/></linearGradient><g fill="#010101"><path d="m3 3h57v49h-57z" opacity=".02"/><path d="m3 3h56.5v48.5h-56.5z" opacity=".05"/><path d="m3 3h56v48h-56z" opacity=".2"/></g><g stroke-linecap="round" stroke-linejoin="round"><path d="m.5.5h57v49h-57z" fill="url(#b)" stroke="#939393" stroke-width=".999"/><g fill="none"><path d="m1.5 1.5h55v47h-55z" stroke="#fff" stroke-width=".999"/><path d="m10.5 38 17.5-33 24 12.4375-5 20" stroke="#9468c4" stroke-opacity=".988235"/></g></g><path d="m8.5 41 2-3 17.5-33-2 3z" fill="url(#d)"/><path d="m26 8 24 12.4375 2-3-24-12.4375z" fill="url(#e)"/><path d="m45 40.4375 2-3 5-20-2 3z" fill="url(#c)"/><path d="m8.5 41 17.5-33 24 12.4375-5 20" fill="none" stroke="#9468c4" stroke-linecap="round" stroke-linejoin="round" stroke-opacity=".988235"/><path d="m17 8.1875-10 9.3125 31 15 16.5-4.757359" fill="none" stroke="#cc3b02" stroke-linecap="round" stroke-linejoin="round" stroke-opacity=".745098"/><g fill="url(#f)"><path d="m52.5 30.742641 2-3-16.5 4.757359-2 3z"/><path d="m36 35.5 2-3-31-15-2 3z"/><path d="m5 20.5 10-9.3125 2-3-10 9.3125z"/></g><g fill="none" stroke-linecap="round"><g stroke="#cc3b02" stroke-opacity=".745098"><path d="m15 11.1875-10 9.3125 31 15 16.5-4.757359" stroke-linejoin="round"/><path d="m5 20.5 2-3"/><path d="m15 11.1875 2-3"/><path d="m52.5 30.742641 2-3"/></g><g stroke="#9468c4" stroke-opacity=".988235"><path d="m45 40.4375 2-3"/><path d="m26 8 2-3"/><path d="m8.5 41 2-3"/></g></g></svg>