<svg viewBox="0 0 16 16" xmlns="http://www.w3.org/2000/svg"><g transform="matrix(0 -1 1 0 0 16)"><path d="m14 10 2 3h-4z" fill="#4d82b8" fill-rule="evenodd"/><path d="m14 7 2-3h-4z" fill="#4d82b8" fill-rule="evenodd"/><g transform="matrix(0 -1 -1 0 16 8)"><path d="m1 5v2 5 4h1v-3h4c.554 0 1-.446 1-1v-5c0-.554-.446-1-1-1h-4v-1zm1 2h4v5h-4z" fill="#808080"/><path d="m2 7h4v5h-4z" fill="#fff"/></g><g transform="matrix(0 1 -1 0 16 1)"><path d="m9 5v2 7 2h1v-1h3c.554 0 1-.446 1-1v-7c0-.554-.446-1-1-1h-3v-1zm1 2h3v7h-3z" fill="#808080"/><path d="m10 7h3v7h-3z" fill="#fff"/></g></g></svg>