<svg viewBox="0 0 16 16" xmlns="http://www.w3.org/2000/svg">/&amp;gt;<path d="m7.9570312 0c-.5305254 0-.9570312.42650583-.9570312.95703125v.08593755c0 .5305254.4265058.9570312.9570312.9570312h.0429688.0429688c.5305254 0 .9570312-.4265058.9570312-.9570312v-.08593755c0-.53052542-.4265058-.95703125-.9570312-.95703125zm.0429688 2a6 6 0 0 0 -6 6 6 6 0 0 0 6 6 6 6 0 0 0 6-6 6 6 0 0 0 -6-6zm6 6c0 .554.446 1 1 1s1-.446 1-1-.446-1-1-1-1 .446-1 1zm-6 6h-.09375c-.5023559 0-.90625.403894-.90625.90625v.1875c0 .502356.4038941.90625.90625.90625h.1875c.5023559 0 .90625-.403894.90625-.90625v-.1875c0-.502356-.4038941-.90625-.90625-.90625zm-6-6v-.0332031c0-.5352204-.4315765-.9667969-.9667969-.9667969h-.06640622c-.53522035 0-.96679688.4315765-.96679688.9667969v.0664062c0 .5352204.43157653.9667969.96679688.9667969h.06640622c.5352204 0 .9667969-.4315765.9667969-.9667969zm-.2617188-7c-.1887235 0-.3768746.0721871-.5214843.2167969-.28921953.2892195-.28921953.7557023 0 1.0449219l.5214843.5214843c.2892196.2892195.7557024.2892195 1.0449219 0s.2892195-.7557023 0-1.0449219l-.5214843-.5214843c-.1446098-.1446098-.334714-.2167969-.5234376-.2167969zm12.5234378 0c-.188724 0-.378828.0721871-.523438.2167969l-.521484.5214843c-.28922.2892196-.28922.7557024 0 1.0449219.289219.2892196.755702.2892196 1.044922 0l.521484-.5214843c.28922-.2892196.28922-.7557024 0-1.0449219-.14461-.1446098-.332761-.2167969-.521484-.2167969zm-6.261719 2a5 5 0 0 1 5 5 5 5 0 0 1 -5 5 5 5 0 0 1 -5-5 5 5 0 0 1 5-5zm-5.7382812 10c-.1887236 0-.3788278.072187-.5234376.216797l-.5214843.521484c-.28921955.28922-.28921955.755703 0 1.044922.2892195.28922.7557023.28922 1.0449219 0l.5214843-.521484c.2892196-.28922.2892196-.755703 0-1.044922-.1446097-.14461-.3327608-.216797-.5214843-.216797zm11.4765622 0c-.188723 0-.376874.072187-.521484.216797-.28922.289219-.28922.755702 0 1.044922l.521484.521484c.28922.28922.755703.28922 1.044922 0 .28922-.289219.28922-.755702 0-1.044922l-.521484-.521484c-.14461-.14461-.334714-.216797-.523438-.216797z" fill="#808080"/><circle cx="8" cy="8" fill="#fff" r="5"/></svg>