<svg viewBox="0 0 117 92" xmlns="http://www.w3.org/2000/svg"><path d="m99 67.00002h11v11h-11z" fill="#797774"/><path d="m25 68.00002h22v22h-22z" fill="#c8c6c4"/><path d="m36 70.99987c-1.104569 0-2 .8954-2 2 0 .932.637301 1.7155 1.5 1.9375v2.0625h-2.5v1h2.5v7.96875c-2.303317-.147595-4.327644-1.277241-5.689453-2.96875h2.189453v-1h-3-1v1 3h1v-2.435547c1.639058 2.078797 4.148157 3.435547 7 3.435547s5.360528-1.35675 7-3.435547v2.435547h1v-3-1h-1-3v1h2.189453c-1.361809 1.691509-3.386137 2.821155-5.689453 2.96875v-7.96875h2.5v-1h-2.5v-2.0625c.862699-.222 1.5-1.0055 1.5-1.9375 0-1.1046-.895431-2-2-2zm0 1c.552285 0 1 .4477 1 1s-.447715 1-1 1-1-.4477-1-1 .447715-1 1-1z" fill="#3a3a38" fill-rule="evenodd"/><g fill="#c8c6c4"><path d="m0 22h7v7h-7z"/><path d="m8 23h7v7h-7z"/><path d="m17 23h9v9h-9z"/><path d="m34 25.5a3.5 3.5 0 0 1 -3.5 3.5 3.5 3.5 0 0 1 -3.5-3.5 3.5 3.5 0 0 1 3.5-3.5 3.5 3.5 0 0 1 3.5 3.5z"/><path d="m42 26.5a3.5 3.5 0 0 1 -3.5 3.5 3.5 3.5 0 0 1 -3.5-3.5 3.5 3.5 0 0 1 3.5-3.5 3.5 3.5 0 0 1 3.5 3.5z"/><path d="m53 27.5a4.5 4.5 0 0 1 -4.5 4.5 4.5 4.5 0 0 1 -4.5-4.5 4.5 4.5 0 0 1 4.5-4.5 4.5 4.5 0 0 1 4.5 4.5z"/><path d="m61 27a3.5 5 0 0 1 -3.5 5 3.5 5 0 0 1 -3.5-5 3.5 5 0 0 1 3.5-5 3.5 5 0 0 1 3.5 5z"/><path d="m69 27.5a3.5 4.5 0 0 1 -3.5 4.5 3.5 4.5 0 0 1 -3.5-4.5 3.5 4.5 0 0 1 3.5-4.5 3.5 4.5 0 0 1 3.5 4.5z"/><path d="m79 25.5a4.5 3.5 0 0 1 -4.5 3.5 4.5 3.5 0 0 1 -4.5-3.5 4.5 3.5 0 0 1 4.5-3.5 4.5 3.5 0 0 1 4.5 3.5z"/><path d="m89 26.5a4.5 3.5 0 0 1 -4.5 3.5 4.5 3.5 0 0 1 -4.5-3.5 4.5 3.5 0 0 1 4.5-3.5 4.5 3.5 0 0 1 4.5 3.5z"/><path d="m90 22v7h7v-7zm3 1h1v2h2v1h-2v2h-1v-1-1h-2v-1h2v-1z"/><path d="m97 22v9h9v-9zm4 1h1v3h3v1h-3v3h-1v-1-2h-3v-1h3v-2z"/><path d="m106 22v11h11v-11zm5 1h1v4h4v1h-4v4h-1v-1-3h-4v-1h4v-3z"/></g><g fill="#83beec"><path d="m97 0v9h9v-9zm4 1h1v1 2h2 1v1h-1-2v2 1h-1v-1-2h-2-1v-1h1 2v-2z"/><path d="m106 0v11h11v-11zm5 1h1v1 3h3 1v1h-1-3v3 1h-1v-1-3h-3-1v-1h1 3v-3z"/><path d="m90 0v7h7v-7zm3 1h1v1 1h1 1v1h-1-1v1 1h-1v-1-1h-1-1v-1h1 1v-1z"/><path d="m0 0v7h7v-7z"/><path d="m8 1v7h7v-7z"/><path d="m17 1v9h9v-9z"/><path d="m30.5 0c-1.932997 0-3.5 1.5670034-3.5 3.5s1.567003 3.5 3.5 3.5 3.5-1.5670034 3.5-3.5-1.567003-3.5-3.5-3.5z"/><path d="m38.5 1c-1.932997 0-3.5 1.5670034-3.5 3.5s1.567003 3.5 3.5 3.5 3.5-1.5670034 3.5-3.5-1.567003-3.5-3.5-3.5z"/><path d="m48.5 1c-2.485281 0-4.5 2.0147186-4.5 4.5s2.014719 4.5 4.5 4.5 4.5-2.0147186 4.5-4.5-2.014719-4.5-4.5-4.5z"/><path d="m57.5 0c-1.932997 0-3.5 2.2385763-3.5 5s1.567003 5 3.5 5 3.5-2.2385763 3.5-5-1.567003-5-3.5-5z"/><path d="m65.5 1c-1.932997 0-3.5 2.01472-3.5 4.5s1.567003 4.5 3.5 4.5 3.5-2.01472 3.5-4.5-1.567003-4.5-3.5-4.5z"/><path d="m84.5 1c-2.485281 0-4.5 1.5670034-4.5 3.5s2.014719 3.5 4.5 3.5 4.5-1.5670034 4.5-3.5-2.014719-3.5-4.5-3.5z"/><path d="m74.5 0c-2.485281 0-4.5 1.5670034-4.5 3.5s2.014719 3.5 4.5 3.5 4.5-1.5670034 4.5-3.5-2.014719-3.5-4.5-3.5z"/></g><g fill="#f8db8f"><path d="m0 11h7v7h-7z"/><path d="m8 12h7v7h-7z"/><path d="m17 12h9v9h-9z"/><path d="m34 14.50002a3.5 3.5 0 0 1 -3.5 3.5 3.5 3.5 0 0 1 -3.5-3.5 3.5 3.5 0 0 1 3.5-3.5 3.5 3.5 0 0 1 3.5 3.5z"/><path d="m42 15.50002a3.5 3.5 0 0 1 -3.5 3.5 3.5 3.5 0 0 1 -3.5-3.5 3.5 3.5 0 0 1 3.5-3.5 3.5 3.5 0 0 1 3.5 3.5z"/><path d="m53 16.50002a4.5 4.5 0 0 1 -4.5 4.5 4.5 4.5 0 0 1 -4.5-4.5 4.5 4.5 0 0 1 4.5-4.5 4.5 4.5 0 0 1 4.5 4.5z"/><path d="m61 16.00002a3.5 5 0 0 1 -3.5 5 3.5 5 0 0 1 -3.5-5 3.5 5 0 0 1 3.5-5 3.5 5 0 0 1 3.5 5z"/><path d="m69 16.50003a3.5 4.50001 0 0 1 -3.5 4.50001 3.5 4.50001 0 0 1 -3.5-4.50001 3.5 4.50001 0 0 1 3.5-4.50001 3.5 4.50001 0 0 1 3.5 4.50001z"/><path d="m79 14.50002a4.5 3.5 0 0 1 -4.5 3.5 4.5 3.5 0 0 1 -4.5-3.5 4.5 3.5 0 0 1 4.5-3.5 4.5 3.5 0 0 1 4.5 3.5z"/><path d="m89 15.50002a4.5 3.5 0 0 1 -4.5 3.5 4.5 3.5 0 0 1 -4.5-3.5 4.5 3.5 0 0 1 4.5-3.5 4.5 3.5 0 0 1 4.5 3.5z"/><path d="m90 11v7h7v-7zm3 1h1v2h2v1h-2v2h-1v-1-1h-2v-1h2v-1z"/><path d="m97 11v9h9v-9zm4 1h1v3h3v1h-3v3h-1v-1-2h-3v-1h3v-2z"/><path d="m106 11v11h11v-11zm5 1h1v4h4v1h-4v4h-1v-1-3h-4v-1h4v-3z"/></g><g fill="#797774"><path d="m0 55.00002h7v7h-7z"/><path d="m8 56.00002h7v7h-7z"/><path d="m17 56.00002h9v9h-9z"/><path d="m34 58.50002a3.5 3.5 0 0 1 -3.5 3.5 3.5 3.5 0 0 1 -3.5-3.5 3.5 3.5 0 0 1 3.5-3.5 3.5 3.5 0 0 1 3.5 3.5z"/><path d="m42 59.50002a3.5 3.5 0 0 1 -3.5 3.5 3.5 3.5 0 0 1 -3.5-3.5 3.5 3.5 0 0 1 3.5-3.5 3.5 3.5 0 0 1 3.5 3.5z"/><path d="m53 60.50002a4.5 4.5 0 0 1 -4.5 4.5 4.5 4.5 0 0 1 -4.5-4.5 4.5 4.5 0 0 1 4.5-4.5 4.5 4.5 0 0 1 4.5 4.5z"/><path d="m61 60.00002a3.5 5 0 0 1 -3.5 5 3.5 5 0 0 1 -3.5-5 3.5 5 0 0 1 3.5-5 3.5 5 0 0 1 3.5 5z"/><path d="m69 60.50001a3.5 4.49999 0 0 1 -3.5 4.49999 3.5 4.49999 0 0 1 -3.5-4.49999 3.5 4.49999 0 0 1 3.5-4.49999 3.5 4.49999 0 0 1 3.5 4.49999z"/><path d="m79 58.50002a4.5 3.5 0 0 1 -4.5 3.5 4.5 3.5 0 0 1 -4.5-3.5 4.5 3.5 0 0 1 4.5-3.5 4.5 3.5 0 0 1 4.5 3.5z"/><path d="m89 59.50002a4.5 3.5 0 0 1 -4.5 3.5 4.5 3.5 0 0 1 -4.5-3.5 4.5 3.5 0 0 1 4.5-3.5 4.5 3.5 0 0 1 4.5 3.5z"/><path d="m90 55v7h7v-7zm3 1h1v2h2v1h-2v2h-1v-1-1h-2v-1h2v-1z"/><path d="m97 55v9h9v-9zm4 1h1v3h3v1h-3v3h-1v-1-2h-3v-1h3v-2z"/><path d="m106 55v11h11v-11zm5 1h1v4h4v1h-4v4h-1v-1-3h-4v-1h4v-3z"/></g><g fill="#a1ddaa"><path d="m0 44.00002h7v7h-7z" opacity=".66"/><path d="m8 45.00002h7v7h-7z" opacity=".66"/><path d="m17 45.00002h9v9h-9z" opacity=".66"/><path d="m34 47.50002a3.5 3.5 0 0 1 -3.5 3.5 3.5 3.5 0 0 1 -3.5-3.5 3.5 3.5 0 0 1 3.5-3.5 3.5 3.5 0 0 1 3.5 3.5z" opacity=".66"/><path d="m42 48.50002a3.5 3.5 0 0 1 -3.5 3.5 3.5 3.5 0 0 1 -3.5-3.5 3.5 3.5 0 0 1 3.5-3.5 3.5 3.5 0 0 1 3.5 3.5z" opacity=".66"/><path d="m53 49.50002a4.5 4.5 0 0 1 -4.5 4.5 4.5 4.5 0 0 1 -4.5-4.5 4.5 4.5 0 0 1 4.5-4.5 4.5 4.5 0 0 1 4.5 4.5z" opacity=".66"/><path d="m61 49.00002a3.5 5 0 0 1 -3.5 5 3.5 5 0 0 1 -3.5-5 3.5 5 0 0 1 3.5-5 3.5 5 0 0 1 3.5 5z" opacity=".66"/></g><path d="m65.5 44.00002c-2.485281 0-4.5 2.4624-4.5 5.5 0 3.0375 2.014719 5.5 4.5 5.5s4.5-2.4625 4.5-5.5c0-3.0376-2.014719-5.5-4.5-5.5zm0 1c1.932997 0 3.5 2.0147 3.5 4.5s-1.567003 4.5-3.5 4.5-3.5-2.0147-3.5-4.5 1.567003-4.5 3.5-4.5z" fill="#309048" opacity=".9"/><g fill="#a1ddaa"><path d="m69 49.50002a3.5 4.5 0 0 1 -3.5 4.5 3.5 4.5 0 0 1 -3.5-4.5 3.5 4.5 0 0 1 3.5-4.5 3.5 4.5 0 0 1 3.5 4.5z" opacity=".66"/><path d="m79 47.50002a4.5 3.5 0 0 1 -4.5 3.5 4.5 3.5 0 0 1 -4.5-3.5 4.5 3.5 0 0 1 4.5-3.5 4.5 3.5 0 0 1 4.5 3.5z" opacity=".66"/><path d="m89 48.50002a4.5 3.5 0 0 1 -4.5 3.5 4.5 3.5 0 0 1 -4.5-3.5 4.5 3.5 0 0 1 4.5-3.5 4.5 3.5 0 0 1 4.5 3.5z" opacity=".66"/><path d="m90 44v7h7v-7zm3 1h1v2h2v1h-2v2h-1v-1-1h-2v-1h2v-1z" opacity=".66"/><path d="m97 44v9h9v-9zm4 1h1v3h3v1h-3v3h-1v-1-2h-3v-1h3v-2z" opacity=".66"/><path d="m106 44v11h11v-11zm5 1h1v4h4v1h-4v4h-1v-1-3h-4v-1h4v-3z" opacity=".66"/></g><g fill="#fafafa"><path d="m93 45.00002v2h-2v1h2v2h1v-2h2v-1h-2v-2z"/><path d="m101 45.00002v3h-3v1h3v3h1v-3h3v-1h-3v-3z"/><path d="m111 45.00002v4h-4v1h4v4h1v-4h4v-1h-4v-4z"/></g><g fill="#ff9198"><path d="m0 33h7v7.00002h-7z"/><path d="m8 34h7v7.00002h-7z"/><path d="m17 34h9v9.00002h-9z"/><path d="m34 36.5a3.5 3.5 0 0 1 -3.5 3.5 3.5 3.5 0 0 1 -3.5-3.5 3.5 3.5 0 0 1 3.5-3.5 3.5 3.5 0 0 1 3.5 3.5z"/><path d="m42 37.5a3.5 3.5 0 0 1 -3.5 3.5 3.5 3.5 0 0 1 -3.5-3.5 3.5 3.5 0 0 1 3.5-3.5 3.5 3.5 0 0 1 3.5 3.5z"/><path d="m53 38.5a4.5 4.5 0 0 1 -4.5 4.5 4.5 4.5 0 0 1 -4.5-4.5 4.5 4.5 0 0 1 4.5-4.5 4.5 4.5 0 0 1 4.5 4.5z"/><path d="m61 38a3.5 5 0 0 1 -3.5 5 3.5 5 0 0 1 -3.5-5 3.5 5 0 0 1 3.5-5 3.5 5 0 0 1 3.5 5z"/><path d="m69 38.49999a3.5 4.49999 0 0 1 -3.5 4.49999 3.5 4.49999 0 0 1 -3.5-4.49999 3.5 4.49999 0 0 1 3.5-4.49999 3.5 4.49999 0 0 1 3.5 4.49999z"/><path d="m79 36.5a4.5 3.5 0 0 1 -4.5 3.5 4.5 3.5 0 0 1 -4.5-3.5 4.5 3.5 0 0 1 4.5-3.5 4.5 3.5 0 0 1 4.5 3.5z"/><path d="m89 37.5a4.5 3.5 0 0 1 -4.5 3.5 4.5 3.5 0 0 1 -4.5-3.5 4.5 3.5 0 0 1 4.5-3.5 4.5 3.5 0 0 1 4.5 3.5z"/><path d="m90 33v7h7v-7zm3 1h1v2h2v1h-2v2h-1v-1-1h-2v-1h2v-1z"/><path d="m97 33v9h9v-9zm4 1h1v3h3v1h-3v3h-1v-1-2h-3v-1h3v-2z"/><path d="m106 33v11h11v-11zm5 1h1v4h4v1h-4v4h-1v-1-3h-4v-1h4v-3z"/></g><g fill="#fafafa"><path d="m93 34v2h-2v1h2v2h1v-2h2v-1h-2v-2z" opacity=".9"/><path d="m101 34v3h-3v1h3v3.00002h1v-3.00002h3v-1h-3v-3z" opacity=".9"/><path d="m111 34v4h-4v1h4v4.00002h1v-4.00002h4v-1h-4v-4z" opacity=".9"/></g><path d="m73 67.00002h11v11h-11z" fill="#83beec"/><path d="m86 67.00002h11v11h-11z" fill="#ff9198"/><path d="m73 80.00002h11v11h-11z" fill="#c8c6c4"/><path d="m86 80.00002h11v11h-11z" fill="#a1ddaa" opacity=".66"/><path d="m99 80.00002h11v11h-11z" fill="#f8db8f"/><path d="m7.5 71c-2.485281 0-4.5 2.0147-4.5 4.5s2.014719 4.5 4.5 4.5 4.5-2.0147 4.5-4.5-2.014719-4.5-4.5-4.5z" fill="#a1ddaa" opacity=".66"/><path d="m49 68v22h22v-22zm11 3c1.104569 0 2 .8954 2 2 0 .932-.637301 1.7155-1.5 1.9375v2.0625h2.5v1h-2.5v7.96875c2.303316-.147595 4.327644-1.277241 5.689453-2.96875h-2.189453v-1h3 1v1 3h-1v-2.435547c-1.639472 2.078797-4.148157 3.435547-7 3.435547s-5.360942-1.35675-7-3.435547v2.435547h-1v-3-1h1 3v1h-2.189453c1.361809 1.691509 3.386136 2.821155 5.689453 2.96875v-7.96875h-2.5v-1h2.5v-2.0625c-.862699-.222-1.5-1.0055-1.5-1.9375 0-1.1046.895431-2 2-2zm0 1c-.552285 0-1 .4477-1 1s.447715 1 1 1 1-.4477 1-1-.447715-1-1-1z" fill="#3a3a38"/><g fill="#fafafa"><path d="m93 23v2h-2v1h2v2h1v-2h2v-1h-2v-2z" opacity=".9"/><path d="m101 23v3h-3v1h3v3h1v-3h3v-1h-3v-3z" opacity=".9"/><path d="m111 23v4h-4v1h4v4h1v-4h4v-1h-4v-4z" opacity=".9"/><path d="m93 56.00002v2h-2v1h2v2h1v-2h2v-1h-2v-2z" opacity=".9"/><path d="m101 56.00002v3h-3v1h3v3h1v-3h3v-1h-3v-3z" opacity=".9"/><path d="m111 56.00002v4h-4v1h4v4h1v-4h4v-1h-4v-4z" opacity=".9"/><path d="m7 68v2.03125c-2.6379251.238104-4.7306463 2.330825-4.96875 4.96875h-2.03125v1h2.03125c.2381037 2.637925 2.3308249 4.730646 4.96875 4.96875v2.03125h1v-2.03125c2.637925-.238104 4.730646-2.330825 4.96875-4.96875h2.03125v-1h-2.03125c-.238104-2.637925-2.330825-4.730646-4.96875-4.96875v-2.03125zm0 3.0625v.9375h1v-.9375c2.079314.233649 3.703851 1.858186 3.9375 3.9375h-.9375v1h.9375c-.233649 2.079314-1.858186 3.703851-3.9375 3.9375v-.9375h-1v.9375c-2.0793143-.233649-3.7038511-1.858186-3.9375-3.9375h.9375v-1h-.9375c.2336489-2.079314 1.8581857-3.703851 3.9375-3.9375z" opacity=".9"/><path d="m93 45.00002v2h-2v1h2v2h1v-2h2v-1h-2v-2z" opacity=".9"/><path d="m101 45.00002v3h-3v1h3v3h1v-3h3v-1h-3v-3z" opacity=".9"/><path d="m111 45.00002v4h-4v1h4v4h1v-4h4v-1h-4v-4z" opacity=".9"/></g><g fill="#309048"><path d="m7 44.00002v8 1h8 1v-9h-1-7zm1 1h7v7h-7z" opacity=".9"/><path d="m16 44.00002v11h11v-11zm1 1h9v9h-9z" opacity=".9"/><path d="m38.5 44.00002c-2.485281 0-4.5 2.0147-4.5 4.5s2.014719 4.5 4.5 4.5 4.5-2.0147 4.5-4.5-2.014719-4.5-4.5-4.5zm0 1c1.932997 0 3.5 1.567 3.5 3.5s-1.567003 3.5-3.5 3.5-3.5-1.567-3.5-3.5 1.567003-3.5 3.5-3.5z" opacity=".9"/><path d="m48.5 44.00002c-3.037566 0-5.5 2.4624-5.5 5.5s2.462434 5.5 5.5 5.5 5.5-2.4624 5.5-5.5-2.462434-5.5-5.5-5.5zm0 1c2.485281 0 4.5 2.0147 4.5 4.5s-2.014719 4.5-4.5 4.5-4.5-2.0147-4.5-4.5 2.014719-4.5 4.5-4.5z" opacity=".9"/><path d="m84.5 44.00002c-3.037566 0-5.5 2.0147-5.5 4.5s2.462434 4.5 5.5 4.5 5.5-2.0147 5.5-4.5-2.462434-4.5-5.5-4.5zm0 1c2.485281 0 4.5 1.567 4.5 3.5s-2.014719 3.5-4.5 3.5-4.5-1.567-4.5-3.5 2.014719-3.5 4.5-3.5z" opacity=".9"/></g><g fill="#fafafa"><path d="m93 12.00002v2h-2v1h2v2h1v-2h2v-1h-2v-2z" opacity=".9"/><path d="m101 12.00002v3h-3v1h3v3h1v-3h3v-1h-3v-3z" opacity=".9"/><path d="m111 12.00002v4h-4v1h4v4h1v-4h4v-1h-4v-4z" opacity=".9"/></g><g fill="#d42314"><path d="m16 33v11.00002h11v-11.00002zm1 1h9v9.00002h-9z"/><path d="m7 33v9.00002h9v-9.00002zm1 1h7v7.00002h-7z"/><path d="m38.5 33c-2.485281 0-4.5 2.0147-4.5 4.5 0 2.48532 2.014719 4.50002 4.5 4.50002s4.5-2.0147 4.5-4.50002c0-2.4853-2.014719-4.5-4.5-4.5zm0 1c1.932997 0 3.5 1.567 3.5 3.5s-1.567003 3.50002-3.5 3.50002-3.5-1.56702-3.5-3.50002 1.567003-3.5 3.5-3.5z"/><path d="m48.5 33c-3.037566 0-5.5 2.4624-5.5 5.5 0 3.03752 2.462434 5.50002 5.5 5.50002s5.5-2.4625 5.5-5.50002c0-3.0376-2.462434-5.5-5.5-5.5zm0 1c2.485281 0 4.5 2.0147 4.5 4.5 0 2.48532-2.014719 4.50002-4.5 4.50002s-4.5-2.0147-4.5-4.50002c0-2.4853 2.014719-4.5 4.5-4.5z"/><path d="m84.5 33c-3.037566 0-5.5 2.0147-5.5 4.5 0 2.48532 2.462434 4.50002 5.5 4.50002s5.5-2.0147 5.5-4.50002c0-2.4853-2.462434-4.5-5.5-4.5zm0 1c2.485281 0 4.5 1.567 4.5 3.5s-2.014719 3.50002-4.5 3.50002-4.5-1.56702-4.5-3.50002 2.014719-3.5 4.5-3.5z"/><path d="m65.5 33c-2.485281 0-4.5 2.4624-4.5 5.5 0 3.03752 2.014719 5.50002 4.5 5.50002s4.5-2.4625 4.5-5.50002c0-3.0376-2.014719-5.5-4.5-5.5zm0 1c1.932997 0 3.5 2.0147 3.5 4.5 0 2.48532-1.567003 4.50002-3.5 4.50002s-3.5-2.0147-3.5-4.50002c0-2.4853 1.567003-4.5 3.5-4.5z"/></g><g fill="#0063b1"><path d="m7 0v8 1h8 1v-9h-1-7zm1 1h7v7h-7z"/><path d="m16 0v11h11v-11zm1 1h9v9h-9z"/><path d="m38.5 0c-2.485281 0-4.5 2.0147186-4.5 4.5s2.014719 4.5 4.5 4.5 4.5-2.0147186 4.5-4.5-2.014719-4.5-4.5-4.5zm0 1c1.932997 0 3.5 1.5670034 3.5 3.5s-1.567003 3.5-3.5 3.5-3.5-1.5670034-3.5-3.5 1.567003-3.5 3.5-3.5z"/><path d="m48.5 0c-3.037566 0-5.5 2.4624339-5.5 5.5s2.462434 5.5 5.5 5.5 5.5-2.4624339 5.5-5.5-2.462434-5.5-5.5-5.5zm0 1c2.485281 0 4.5 2.0147186 4.5 4.5s-2.014719 4.5-4.5 4.5-4.5-2.0147186-4.5-4.5 2.014719-4.5 4.5-4.5z"/><path d="m84.5 0c-3.037566 0-5.5 2.0147186-5.5 4.5s2.462434 4.5 5.5 4.5 5.5-2.0147186 5.5-4.5-2.462434-4.5-5.5-4.5zm0 1c2.485281 0 4.5 1.5670034 4.5 3.5s-2.014719 3.5-4.5 3.5-4.5-1.5670034-4.5-3.5 2.014719-3.5 4.5-3.5z"/><path d="m65.5 0c-2.485281 0-4.5 2.4624-4.5 5.5 0 3.0375 2.014719 5.5 4.5 5.5s4.5-2.4625 4.5-5.5c0-3.0376-2.014719-5.5-4.5-5.5zm0 1c1.932997 0 3.5 2.0147 3.5 4.5s-1.567003 4.5-3.5 4.5-3.5-2.0147-3.5-4.5 1.567003-4.5 3.5-4.5z"/></g><g fill="#3a3a38"><path d="m16 22v11h11v-11zm1 1h9v9h-9z"/><path d="m7 22v9h9v-9zm1 1h7v7h-7z"/><path d="m38.5 22c-2.485281 0-4.5 2.0147-4.5 4.5s2.014719 4.5 4.5 4.5 4.5-2.0147 4.5-4.5-2.014719-4.5-4.5-4.5zm0 1c1.932997 0 3.5 1.567 3.5 3.5s-1.567003 3.5-3.5 3.5-3.5-1.567-3.5-3.5 1.567003-3.5 3.5-3.5z"/><path d="m48.5 22c-3.037566 0-5.5 2.4624-5.5 5.5 0 3.0375 2.462434 5.5 5.5 5.5s5.5-2.4625 5.5-5.5c0-3.0376-2.462434-5.5-5.5-5.5zm0 1c2.485281 0 4.5 2.0147 4.5 4.5s-2.014719 4.5-4.5 4.5-4.5-2.0147-4.5-4.5 2.014719-4.5 4.5-4.5z"/><path d="m84.5 22c-3.037566 0-5.5 2.0147-5.5 4.5s2.462434 4.5 5.5 4.5 5.5-2.0147 5.5-4.5-2.462434-4.5-5.5-4.5zm0 1c2.485281 0 4.5 1.567 4.5 3.5s-2.014719 3.5-4.5 3.5-4.5-1.567-4.5-3.5 2.014719-3.5 4.5-3.5z"/><path d="m65.5 22c-2.485281 0-4.5 2.4624-4.5 5.5 0 3.0375 2.014719 5.5 4.5 5.5s4.5-2.4625 4.5-5.5c0-3.0376-2.014719-5.5-4.5-5.5zm0 1c1.932997 0 3.5 2.0147 3.5 4.5s-1.567003 4.5-3.5 4.5-3.5-2.0147-3.5-4.5 1.567003-4.5 3.5-4.5z"/></g><g fill="#3a3a38"><path d="m16 55.00002v11h11v-11zm1 1h9v9h-9z" opacity=".997"/><path d="m7 55.00002v9h9v-9zm1 1h7v7h-7z" opacity=".997"/><path d="m38.5 55.00002c-2.485281 0-4.5 2.0147-4.5 4.5s2.014719 4.5 4.5 4.5 4.5-2.0147 4.5-4.5-2.014719-4.5-4.5-4.5zm0 1c1.932997 0 3.5 1.567 3.5 3.5s-1.567003 3.5-3.5 3.5-3.5-1.567-3.5-3.5 1.567003-3.5 3.5-3.5z" opacity=".997"/><path d="m48.5 55.00002c-3.037566 0-5.5 2.4624-5.5 5.5 0 3.0375 2.462434 5.5 5.5 5.5s5.5-2.4625 5.5-5.5c0-3.0376-2.462434-5.5-5.5-5.5zm0 1c2.485281 0 4.5 2.0147 4.5 4.5s-2.014719 4.5-4.5 4.5-4.5-2.0147-4.5-4.5 2.014719-4.5 4.5-4.5z" opacity=".997"/><path d="m84.5 55.00002c-3.037566 0-5.5 2.0147-5.5 4.5s2.462434 4.5 5.5 4.5 5.5-2.0147 5.5-4.5-2.462434-4.5-5.5-4.5zm0 1c2.485281 0 4.5 1.567 4.5 3.5s-2.014719 3.5-4.5 3.5-4.5-1.567-4.5-3.5 2.014719-3.5 4.5-3.5z" opacity=".997"/><path d="m65.5 55.00002c-2.485281 0-4.5 2.4624-4.5 5.5 0 3.0375 2.014719 5.5 4.5 5.5s4.5-2.4625 4.5-5.5c0-3.0376-2.014719-5.5-4.5-5.5zm0 1c1.932997 0 3.5 2.0147 3.5 4.5s-1.567003 4.5-3.5 4.5-3.5-2.0147-3.5-4.5 1.567003-4.5 3.5-4.5z" opacity=".997"/></g><path d="m24 71.5a4.5 4.5 0 0 1 -4.5 4.5 4.5 4.5 0 0 1 -4.5-4.5 4.5 4.5 0 0 1 4.5-4.5 4.5 4.5 0 0 1 4.5 4.5z" fill="#fafafa"/><path d="m19.5 68a3.5 3.5 0 0 0 -3.5 3.5 3.5 3.5 0 0 0 3.5 3.5 3.5 3.5 0 0 0 3.5-3.5 3.5 3.5 0 0 0 -3.5-3.5zm-.5 1h1v2h2v1h-2v2h-1v-2h-2v-1h2z" fill="#ff9198"/><path d="m19 69v2h-2v1h2v2h1v-2h2v-1h-2v-2z" fill="#fafafa" opacity=".9"/><path d="m24 80.5a4.5 4.5 0 0 1 -4.5 4.5 4.5 4.5 0 0 1 -4.5-4.5 4.5 4.5 0 0 1 4.5-4.5 4.5 4.5 0 0 1 4.5 4.5z" fill="#fafafa"/><path d="m19.5 77a3.5 3.5 0 0 0 -3.5 3.5 3.5 3.5 0 0 0 3.5 3.5 3.5 3.5 0 0 0 3.5-3.5 3.5 3.5 0 0 0 -3.5-3.5zm-.5 1h1v2h2v1h-2v2h-1v-2h-2v-1h2z" fill="#c8c6c4"/><path d="m19 78v2h-2v1h2v2h1v-2h2v-1h-2v-2z" fill="#fafafa" opacity=".9"/><path d="m60 70.99987c-1.104569 0-2 .8954-2 2 0 .932.637301 1.7155 1.5 1.9375v2.0625h-2.5v1h2.5v7.96875c-2.303317-.147595-4.327644-1.277241-5.689453-2.96875h2.189453v-1h-3-1v1 3h1v-2.435547c1.639058 2.078797 4.148157 3.435547 7 3.435547s5.360528-1.35675 7-3.435547v2.435547h1v-3-1h-1-3v1h2.189453c-1.361809 1.691509-3.386137 2.821155-5.689453 2.96875v-7.96875h2.5v-1h-2.5v-2.0625c.862699-.222 1.5-1.0055 1.5-1.9375 0-1.1046-.895431-2-2-2zm0 1c.552285 0 1 .4477 1 1s-.447715 1-1 1-1-.4477-1-1 .447715-1 1-1z" fill="#fafafa" fill-rule="evenodd"/><g fill="#ed8733"><path d="m7 11v8 1h8 1v-9h-1-7zm1 1h7v7h-7z"/><path d="m16 11v11h11v-11zm1 1h9v9h-9z"/><path d="m38.5 11c-2.485281 0-4.5 2.014719-4.5 4.5s2.014719 4.5 4.5 4.5 4.5-2.014719 4.5-4.5-2.014719-4.5-4.5-4.5zm0 1c1.932997 0 3.5 1.567003 3.5 3.5s-1.567003 3.5-3.5 3.5-3.5-1.567003-3.5-3.5 1.567003-3.5 3.5-3.5z"/><path d="m48.5 11c-3.037566 0-5.5 2.462434-5.5 5.5s2.462434 5.5 5.5 5.5 5.5-2.462434 5.5-5.5-2.462434-5.5-5.5-5.5zm0 1c2.485281 0 4.5 2.014719 4.5 4.5s-2.014719 4.5-4.5 4.5-4.5-2.014719-4.5-4.5 2.014719-4.5 4.5-4.5z"/><path d="m84.5 11c-3.037566 0-5.5 2.014719-5.5 4.5s2.462434 4.5 5.5 4.5 5.5-2.014719 5.5-4.5-2.462434-4.5-5.5-4.5zm0 1c2.485281 0 4.5 1.567003 4.5 3.5s-2.014719 3.5-4.5 3.5-4.5-1.567003-4.5-3.5 2.014719-3.5 4.5-3.5z"/><path d="m65.5 11c-2.485281 0-4.5 2.4624-4.5 5.5 0 3.0375 2.014719 5.5 4.5 5.5s4.5-2.4625 4.5-5.5c0-3.0376-2.014719-5.5-4.5-5.5zm0 1c1.932997 0 3.5 2.0147 3.5 4.5s-1.567003 4.5-3.5 4.5-3.5-2.0147-3.5-4.5 1.567003-4.5 3.5-4.5z"/></g><g fill="#fafafa"><path d="m93 1v2h-2v1h2v2h1v-2h2v-1h-2v-2z" opacity=".9"/><path d="m101 1v3h-3v1h3v3h1v-3h3v-1h-3v-3z" opacity=".9"/><path d="m111 1v4h-4v1h4v4h1v-4h4v-1h-4v-4z" opacity=".9"/></g></svg>