<svg height="16" viewBox="0 0 24 16" width="24" xmlns="http://www.w3.org/2000/svg"><path d="m9.5714295 9.999999h-1.0329671c-.1172164 0-.2124543-.03044-.2857136-.09132-.068379-.06089-.1221-.136986-.1611721-.22831l-.8205137-2.537508h-3.9706963l-.813187 2.529898c-.029304.08625-.08547.162353-.1684981.22831-.078144.06596-.1733822.09893-.2857144.09893h-1.0329672l3.6117222-10h1.3553116zm-6.0490785-3.571428h3.4964613l-1.447383-4.1682979c-.04884-.1217656-.0976801-.2638255-.1465201-.4261796-.0488401-.1623542-.0952381-.3373922-.1391942-.5251142-.04884.1927956-.09768.3703704-.1465202.5327245-.04884.1623541-.095238.304414-.1391941.4261797z" fill="#696969"/><path d="m10.000001 10v-9.99999983h3.182539q.920635 0 1.579366.1826484.666666.17503805 1.087301.5175038.428571.33485543.626984.82191773.198413.4794521.198413 1.0882802 0 .3652967-.119048.7077625-.111111.3424657-.34127.631659-.230158.2891933-.579365.5251141-.349206.2359209-.825397.3805176 1.087303.2054795 1.634921.783866.555555.5707763.555555 1.5068494 0 .6392693-.230158 1.1643835-.230159.5251141-.674603.9056317-.444445.3729071-1.095239.5783869-.642857.205479-1.47619.205479zm1.444444-4.5509892v3.4550989h2.055556q.547618 0 .936507-.129376.396826-.1369862.642858-.3729071.253968-.2359209.365079-.563166.119047-.3348554.119047-.7229832 0-.7686454-.507936-1.2176559-.5-.4490107-1.555555-.4490107zm0-.9741249h1.68254q.531746 0 .928571-.1217656.396826-.1293759.658731-.350076.261904-.2207002.388889-.5327246.13492-.3120243.13492-.6925417 0-.8751903-.5-1.2785389-.492064-.4109589-1.555556-.4109589h-1.738095z" fill="#696969"/><g fill="none" stroke="#4d82b8" stroke-linecap="round" stroke-linejoin="round" transform="matrix(.99902543 0 0 .99843201 3.004727 8.012398)"><path d="m8.507121 1.494946-2.9999998 2.9949499 2.9999998 3.0050501"/><path d="m5.5071212 4.4898959h5.9928788"/></g><rect fill="#4d82b8" height="7" ry=".5" width="1" x="7" y="9"/><g fill="none" stroke="#4d82b8" stroke-linecap="round" stroke-linejoin="round" transform="matrix(-.99902543 0 0 .99843201 11.995419 8.012398)"><path d="m8.507121 1.494946-2.9999998 2.9949499 2.9999998 3.0050501"/><path d="m5.5071212 4.4898959h5.9928788"/></g></svg>