<svg height="15" width="15" xmlns="http://www.w3.org/2000/svg"><path d="m3 0c-1.0907028 0-2 .9092972-2 2v6.5c0 .626302.3157888 1.173684.7246094 1.517578l-.1132813-.107422.017578.02149c.0001666.000182.00351.0035.00391.0039-.0000581-.000054.00198.002.00195.002.011122.01085.059021.05356.089844.08203.00106.000892.0008898.003.00195.0039l-.013672-.0098c-.061546-.05313-.079161-.07677-.078125-.07617l4.1054688 4.712891c.1900328.221917.4676041.34964.7597681.349603h1 1c.2921642.000035.5697348-.12769.759766-.349609l4.103515-4.710938-.02344.02344-.06641.06055c.411014-.343648.726569-.894872.726569-1.523443v-6.5c0-1.0907028-.909297-2-2-2z" fill="#f2f2f7"/><path d="m3 1c-.554 0-1 .446-1 1v6.5c0 .309169.1481301.572707.3671875.755859.00139.0012.00251.0028.00391.0039l4.1289025 4.740241h1 1l4.128906-4.740234.0039-.0039c.219064-.183159.367194-.446697.367194-.755866v-6.5c0-.554-.446-1-1-1z" fill="#2d2d2d"/></svg>