<svg viewBox="0 0 32 32" xmlns="http://www.w3.org/2000/svg" xmlns:xlink="http://www.w3.org/1999/xlink"><linearGradient id="a" gradientTransform="matrix(-1 0 0 1 32 10)" gradientUnits="userSpaceOnUse" x1="6.711865" x2="6.423729" xlink:href="#b" y1="18.940678" y2="14.059322"/><linearGradient id="b" gradientTransform="translate(-25.830508 -3.59322)" gradientUnits="userSpaceOnUse" x1="14" x2="13.79661" y1="22" y2="2.135593"><stop offset="0" stop-color="#409cff"/><stop offset="1" stop-color="#0a84ff"/></linearGradient><linearGradient id="c" gradientTransform="matrix(-1 0 0 1 32 0)" gradientUnits="userSpaceOnUse" x1="6.644068" x2="6.423729" xlink:href="#b" y1="9.144068" y2="3.991525"/><linearGradient id="d" gradientTransform="matrix(-1 0 0 1 32 0)" gradientUnits="userSpaceOnUse" x1="6.711865" x2="6.423729" xlink:href="#b" y1="18.940678" y2="14.059322"/><g fill="#f2f2f7"><rect height="1" ry=".5" width="14.999998" x="4" y="4"/><rect height="1" ry=".392136" width="15.000005" x="4" y="14"/><rect height="1" ry=".436441" width="15.000001" x="4" y="24"/><rect height="1" ry=".5" width="8.999999" x="10" y="27"/><rect height="1" ry=".5" width="8.999999" x="10" y="17"/><rect height="1" ry=".5" width="9.000002" x="10" y="7"/></g><path d="m23 6.5a2.5 2.5 0 0 0 2.5 2.5 2.5 2.5 0 0 0 2.5-2.5 2.5 2.5 0 0 0 -2.5-2.5 2.5 2.5 0 0 0 -2.5 2.5z" fill="url(#c)"/><path d="m23 16.5a2.5 2.5 0 0 0 2.5 2.5 2.5 2.5 0 0 0 2.5-2.5 2.5 2.5 0 0 0 -2.5-2.5 2.5 2.5 0 0 0 -2.5 2.5z" fill="url(#d)"/><path d="m23 26.5a2.5 2.5 0 0 0 2.5 2.5 2.5 2.5 0 0 0 2.5-2.5 2.5 2.5 0 0 0 -2.5-2.5 2.5 2.5 0 0 0 -2.5 2.5z" fill="url(#a)"/></svg>