<svg height="54" viewBox="0 0 68 54" width="68" xmlns="http://www.w3.org/2000/svg"><path d="m8 4c-2.2159956 0-4 1.7840044-4 4v38c0 2.215996 1.7840044 4 4 4h52c2.215996 0 4-1.784004 4-4v-38c0-2.2159956-1.784004-4-4-4z" fill="#242424"/><path d="m8 2c-3.3239967 0-6 2.6760033-6 6v38c0 3.323997 2.6760033 6 6 6h52c3.323997 0 6-2.676003 6-6v-38c0-3.3239967-2.676003-6-6-6zm0 2h52c2.215998 0 4 1.7840022 4 4v38c0 2.215998-1.784002 4-4 4h-52c-2.2159978 0-4-1.784002-4-4v-38c0-2.2159978 1.7840022-4 4-4z" fill="#efefef"/></svg>