<svg height="21" viewBox="0 0 21 21" width="21" xmlns="http://www.w3.org/2000/svg"><path d="m21 3v2.8421053 12.3157897 2.842105h-15.157895-2.842105v-2.842105-12.3157897c0-1.5745264 1.267579-2.8421053 2.842105-2.8421053h11.842106z" fill="#efefef"/><path d="m8 5c-1.6446984 0-3 1.3553016-3 3v9c0 1.644698 1.3553016 3 3 3h9c1.644698 0 3-1.355302 3-3v-9c0-1.6446984-1.355302-3-3-3zm0 2h2v2h-3v-1c0-.5712994.4287006-1 1-1zm3 0h3v2h-3zm4 0h2c.571299 0 1 .4287006 1 1v1h-3zm-8 3h3v2h-3zm4 0h3v2h-3zm4 0h3v2h-3zm-8 3h3v2h-3zm4 0h3v2h-3zm4 0h3v2h-3zm-8 3h3v2h-2c-.5712994 0-1-.428701-1-1zm4 0h3v2h-3zm4 0h3v1c0 .571299-.428701 1-1 1h-2z" fill="#242424"/></svg>