<svg viewBox="0 0 24 24" xmlns="http://www.w3.org/2000/svg"><path d="m5.8867188 2a1.8876837 1.8876837 0 0 0 -1.8867188 1.8867188 1.8876837 1.8876837 0 0 0 .0097656.125l-.0097656.0097656v16.0917966a1.8876837 1.8876837 0 0 0 1.8867188 1.886719 1.8876837 1.8876837 0 0 0 1.8886718-1.886719v-6.441406h7.0175784a1.6283075 1.6283075 0 0 0 1.628906-1.628906 1.6283075 1.6283075 0 0 0 -1.628906-1.628907h-7.0175784v-5.1582026h7.9687504a1.6283073 1.6283073 0 0 0 1.628906-1.6289063 1.6283073 1.6283073 0 0 0 -1.628906-1.6269531z" fill="#efefef" stroke-width=".72049"/></svg>