<svg height="96" viewBox="0 0 96 96" width="96" xmlns="http://www.w3.org/2000/svg"><g fill="#eff0f1"><path d="m35.731378 172.51393c-11.190406-.25433-3.813678-2.0982-8.773063-5.53162-4.83222-3.43342-6.678059-10.49101-6.678059-21.17276v-33.76196c0-6.61251-1.144473-11.38115-3.43342-14.30592-2.161783-2.924765-6.421767-5.404458-12.7799528-7.439077 6.3581858-1.907455 10.0478978-4.323566 12.2096808-7.248331 2.288947-2.924765 4.003692-7.693404 4.003692-14.305917v-34.059433c0-5.595203.176952-10.545694 1.448589-13.979114 1.271637-3.560584 2.386731-7.539117 5.311496-9.319409 3.884955-2.604905 4.263073-2.3773206 8.691037-3.1083864l.000501 1.0374065c-3.509497 1.2076899-6.005993 2.9750709-7.242948 5.1774499-2.416111 3.43342-2.383978 12.223884-2.389587 19.345049l-.02473 31.393956c-.0062 7.884146-1.759491 13.728725-3.599436 17.436907-2.489383 5.017045-5.575422 5.899417-8.511559 7.820568 5.912079 2.041159 6.501794 4.951434 8.511559 7.629822 2.455642 3.272599 3.624165 8.901459 3.624165 16.785609v32.04525c0 7.12117 1.208055 12.39847 3.624166 15.83189 2.543274 3.43342-.604645 5.97669 6.007868 7.62982z" transform="matrix(1.0354899 0 0 .96572646 0 7)"/><path d="m47.999999 55.000001.434681-2.148596h.565085q.825895 0 1.434448-.162158.652021-.202698 1.347511-.770251.738957-.567555 1.825661-1.662123l5.47698-5.634997-2.999298-6.729566q-.69549-1.540503-1.39098-1.986438-.652021-.486475-1.912597-.486475h-.521617l.434681-2.148597h8.172003l3.042768 7.702516 6.042067-7.702516h5.303108l-.434681 2.148597h-.782426q-.825894 0-1.477915.243238-.652022.243237-1.347512.89187-.652021.608093-1.695256 1.78374l-4.477215 4.824207 3.173172 6.810645q.782426 1.702661 1.477916 2.310754.69549.567554 1.956064.567554h.565085l-.434681 2.148596h-8.432812l-3.260107-8.188989-6.781024 8.188989z" stroke-width="1.21771"/><path d="m46.226784 106.72944q-1.217106 0-2.390745-.20269-1.217106-.2027-2.129937-.52702l.652022-2.27022q.521616.16216 1.434447.32432.91283.2027 2.260341.2027 2.651554 0 4.738024-.85133 2.086469-.85134 3.781725-2.27022 1.738724-1.378344 3.260107-3.081006l-5.433512-18.486034q-.347746-1.216186-1.043235-1.662122-.695489-.486474-1.956065-.486474h-.434681l.521618-2.148597h8.519748l2.868895 10.499744q.304276 1.054029.608553 2.553993.304277 1.459424.521618 2.797228.260808 1.337806.304276 2.026978h.130405q1.738724-2.189136 3.129703-4.337731 1.434447-2.189137 2.30381-4.135035.869362-1.986439.869362-3.526942 0-1.378344-.738958-2.067517-.69549-.729711-1.956065-.729711 0-1.581043.999766-2.513453.999767-.972949 2.477682-.972949 1.782192 0 2.651554.93241.912831.891869.912831 2.513451 0 3.162086-2.216873 7.094422-2.173405 3.932337-5.998599 8.878163-2.347278 3.081004-4.34681 5.391756-1.956065 2.351306-3.999066 3.891796-2.043001 1.58104-4.520683 2.3513-2.434214.81079-5.781258.81079z" stroke-width="1.21771"/></g><g fill="#3daee9" transform="matrix(-3.7795276 0 0 3.7795276 71 -57.999998)"><path d="m10.900833 16.853958-.185209.185208.423334.423334-2.0108331-.000001v.264583l2.0108331.000001-.423334.423333.185209.185209.740833-.740834z"/><path d="m7.0908333 16.853958.1852083.185208-.4233333.423334 2.2754166-.000001v.264583l-2.2754166.000001.4233333.423333-.1852083.185209-.7408333-.740834z"/><g stroke-linecap="square" stroke-opacity=".566502" stroke-width=".264583"><path d="m6.0854166 16.933333h.2645833l.0000002 11.90625h-.2645833z"/><path d="m11.641666 16.933333h.264584l.000001 3.439584h-.264584z"/></g></g></svg>