<svg enable-background="new 0 0 121 120" height="16" viewBox="0 0 15.125003 15.125003" width="16" xmlns="http://www.w3.org/2000/svg" xmlns:xlink="http://www.w3.org/1999/xlink"><linearGradient id="a"><stop offset="0" stop-color="#fff"/><stop offset="1" stop-color="#fff" stop-opacity="0"/></linearGradient><linearGradient id="b"><stop offset="0" stop-color="#fff"/><stop offset=".5" stop-color="#78c9ff" stop-opacity=".498039"/><stop offset="1" stop-color="#fff" stop-opacity="0"/></linearGradient><filter id="c" height="1.089982" width="1.04574" x="-.02287" y="-.044991"><feGaussianBlur stdDeviation=".55418773"/></filter><filter id="d" height="1.149692" width="1.149692" x="-.074846" y="-.074846"><feGaussianBlur stdDeviation="1.9142018"/></filter><clipPath id="e"><circle cx="-166.53223" cy="93.331604" filter="url(#d)" r="30.690229"/></clipPath><radialGradient id="f" cx="-166.53223" cy="65.938202" gradientTransform="matrix(1 0 0 .6578174 0 22.562908)" gradientUnits="userSpaceOnUse" r="31.190229" xlink:href="#a"/><filter id="g" height="1.192637" width="1.192637" x="-.096318" y="-.096318"><feGaussianBlur stdDeviation="2.1987391"/></filter><linearGradient id="h" gradientTransform="matrix(.18317528 0 0 .18329578 38.04436 -12.406174)" gradientUnits="userSpaceOnUse" x1="-178.26802" x2="-178.26802" xlink:href="#b" y1="66.060356" y2="107.8426"/><linearGradient id="i" gradientTransform="matrix(.18317528 0 0 .18329578 37.974492 -13.085741)" gradientUnits="userSpaceOnUse" x1="-152.81725" x2="-196.51477" xlink:href="#b" y1="119.90653" y2="91.532112"/><linearGradient id="j" gradientTransform="matrix(.18317528 0 0 .18329578 38.04436 -12.406174)" gradientUnits="userSpaceOnUse" x1="-176.82246" x2="-176.82246" xlink:href="#b" y1="5.964059" y2="109.09552"/><linearGradient id="k" gradientTransform="matrix(.19377219 0 0 .19389967 39.046621 -12.337783)" gradientUnits="userSpaceOnUse" x1="-159.52231" x2="-160.82661" xlink:href="#b" y1="55.394547" y2="107.40737"/><radialGradient id="l" cx="-166.53223" cy="116.62209" gradientTransform="matrix(.17353312 0 0 .17364727 22.739943 -10.019025)" gradientUnits="userSpaceOnUse" r="31.190229"><stop offset="0" stop-color="#0081ec"/><stop offset="1" stop-color="#004c98"/></radialGradient><radialGradient id="m" cx="-166.53223" cy="84.275475" gradientTransform="matrix(.20157274 0 0 .20170534 27.40939 -12.622998)" gradientUnits="userSpaceOnUse" r="31.190229"><stop offset="0" stop-color="#0081ec"/><stop offset="1" stop-color="#003871"/></radialGradient><radialGradient id="n" cx="87.160835" cy="48.36097" gradientTransform="matrix(1.4591887 0 0 1 -40.023272 0)" gradientUnits="userSpaceOnUse" r="27.455904"><stop offset="0" stop-color="#020910"/><stop offset="1" stop-color="#113e69" stop-opacity="0"/></radialGradient><radialGradient id="o" cx="56.71875" cy="57.805096" gradientTransform="matrix(.11598396 0 0 .15339561 -.432945 -2.524686)" gradientUnits="userSpaceOnUse" r="30.249998"><stop offset="0" stop-color="#ddd"/><stop offset=".5" stop-color="#fff"/><stop offset=".94080001" stop-color="#f2f2f2"/></radialGradient><linearGradient id="p" gradientUnits="userSpaceOnUse" x1="62.77597943788" x2="62.77597943788" y1="81.93865889712" y2="-9.74533850014"><stop offset="0" stop-color="#810000"/><stop offset="1" stop-color="#c50000"/></linearGradient><clipPath id="q"><path d="m-64.510272 10.75c-1.042316.0084-2.040208.423209-2.78125 1.15625l-16.96875 16.96875c-1.561474 1.562119-1.561474 4.094131 0 5.65625l25.4375 25.46875-25.4375 25.46875c-1.561474 1.562119-1.561474 4.094131 0 5.65625l16.96875 16.96875c1.562119 1.56147 4.094131 1.56147 5.65625 0l25.46875-25.4375 25.46875 25.4375c1.5621191 1.56147 4.0941311 1.56147 5.6562501 0l16.9687499-16.96875c1.56147-1.562119 1.56147-4.094131 0-5.65625l-25.4375-25.46875 25.4375-25.46875c1.56147-1.562119 1.56147-4.094131 0-5.65625l-16.9687499-16.96875c-1.562119-1.561474-4.094131-1.561474-5.6562501 0l-25.46875 25.4375-25.46875-25.4375c-.764077-.756011-1.800247-1.172731-2.875-1.15625zm31.1875 63.40625c-.751409-.759464-1.775386-1.18681-2.84375-1.18681s-2.092341.427346-2.84375 1.18681z"/></clipPath><filter id="r" height="1.32671" width="1.249383" x="-.124687" y="-.16864"><feGaussianBlur stdDeviation="2.5695681"/></filter><linearGradient id="s" gradientTransform="scale(1.0975951 .9110828)" gradientUnits="userSpaceOnUse" x1="26.091133" x2="31.500689" xlink:href="#a" y1="14.856744" y2="14.856744"/><filter id="t" height="1.28034" width="1.232702" x="-.116351" y="-.14017"><feGaussianBlur stdDeviation=".28784801"/></filter><linearGradient id="u" gradientUnits="userSpaceOnUse" x1="304.88663" x2="345.62039" y1="385.86127" y2="384.62384"><stop offset="0" stop-color="#765c44"/><stop offset="1" stop-color="#765c44" stop-opacity="0"/></linearGradient><linearGradient id="v" gradientUnits="userSpaceOnUse" x1="59.13524170017" x2="59.13524170017" y1="91.73026967169" y2="41.25513545881"><stop offset="0" stop-color="#f00"/><stop offset="1" stop-color="#7f0000"/></linearGradient><linearGradient id="w" gradientUnits="userSpaceOnUse" spreadMethod="reflect" x1="88.60625" x2="91.575107" xlink:href="#x" y1="13.510336" y2="13.510336"/><linearGradient id="x"><stop offset="0" stop-color="#ff8787"/><stop offset="1" stop-color="#ff8787" stop-opacity="0"/></linearGradient><radialGradient id="y" cx="-36.592777" cy="90.072952" gradientTransform="matrix(.4576062 0 0 .782313 -19.847694 18.82067)" gradientUnits="userSpaceOnUse" r="25.986174"><stop offset="0"/><stop offset="1" stop-opacity="0"/></radialGradient><linearGradient id="z" gradientUnits="userSpaceOnUse" spreadMethod="reflect" x1="31.60625" x2="34.575107" xlink:href="#A" y1="13.510336" y2="13.510336"/><linearGradient id="A"><stop offset="0" stop-color="#fff"/><stop offset="1" stop-color="#790000" stop-opacity="0"/></linearGradient><linearGradient id="B" gradientUnits="userSpaceOnUse" spreadMethod="reflect" x1="88.60625" x2="91.575107" xlink:href="#A" y1="13.510336" y2="13.510336"/><linearGradient id="C" gradientUnits="userSpaceOnUse" x1="59.999996" x2="57.434441" y1="92.973083" y2="55.07938"><stop offset="0" stop-color="#fff5e4"/><stop offset=".25" stop-color="#ffecd0"/><stop offset=".5" stop-color="#ffd390"/><stop offset="1" stop-color="#ffc46a"/></linearGradient><filter id="D" height="1.054282" width="1.054282" x="-.027141" y="-.027141"><feGaussianBlur stdDeviation=".45754832"/></filter><linearGradient id="E" gradientTransform="matrix(1.381268 0 0 .6872743 5.540478 5.540485)" gradientUnits="userSpaceOnUse" x1="68.313011" x2="51.544849" y1="109.97649" y2="32.750854"><stop offset="0" stop-color="#f4f5f8"/><stop offset="1" stop-color="#fdfdfe"/></linearGradient><linearGradient id="F" gradientUnits="userSpaceOnUse" x1="51.5911358119" x2="51.5911358119" xlink:href="#x" y1="26.72081798575" y2="74.09136629706"/><linearGradient id="G" gradientUnits="userSpaceOnUse" x1="61.72658398666" x2="60.8660801659" y1="76.73918945221" y2="26.59814950463"><stop offset="0" stop-color="#fff" stop-opacity="0"/><stop offset="1" stop-color="#fff"/></linearGradient><circle cx="87.160835" cy="39.742821" fill="url(#n)" filter="url(#g)" r="27.393404" transform="matrix(.18501775 0 0 .11393199 -9.971109 4.950251)"/><ellipse cx="-6.158967" cy="6.202485" fill="url(#m)" rx="6.186314" ry="6.190383" transform="scale(-1 1)"/><circle clip-path="url(#e)" cx="-166.53223" cy="93.331604" fill="url(#f)" filter="url(#d)" r="30.690229" transform="matrix(-.20157274 0 0 .20170534 -27.40939 -12.622998)"/><ellipse cx="-6.158914" cy="6.187753" fill="url(#l)" rx="5.325771" ry="5.329275" transform="scale(-1 1)"/><path d="m6.1583862.86038481c-2.9398265 0-5.32353109 2.38527389-5.32353109 5.32703379 0 .2738659.017362.5448686.057242.8076471.0002791.00185-.0002821.00388 0 .00573 1.11934469.1791534 2.31135179.2692159 3.54901929.2692159 2.6441652 0 5.0848759-.4421371 7.0408016-1.1856949-.055-2.894226-2.4181427-5.22393559-5.3235321-5.22393609z" fill="url(#k)" opacity=".892193"/><path d="m-134.09375 98.625c-.003.166656-.0312.332675-.0312.5 0 16.04925 13.0445 29.0625 29.09375 29.0625 16.049249 0 29.062503-13.01325 29.0625-29.0625 0-.167107.0028-.33356 0-.5-.267346 15.81875-13.180358 28.5625-29.0625 28.5625-15.88193 0-28.79481-12.74404-29.0625-28.5625z" fill="#007fea" filter="url(#c)" transform="matrix(-.18317528 0 0 .18329578 -13.083634 -11.925729)"/><path d="m6.1551891.86417081c-2.9398249 0-5.32353099 2.38527429-5.32353099 5.32703469 0 .02698-.000343.053272 0 .080191.054942-2.8941677 2.41814139-5.2239305 5.32353099-5.2239285 2.8436028 0 5.1686809 2.2322448 5.3178079 5.0406333.0016-.0006292.0041.0006292.0057 0-.054989-2.8942201-2.4181407-5.22392839-5.3235302-5.22393039z" fill="url(#j)"/><path d="m8.150066 1.2458648c1.7661503.8424475 3.218391 2.7131387 3.257882 4.7915516-1.9559237.7435595-4.7221478 1.1533198-7.3663128 1.1533217-1.0297239.0218403-2.0267039-.0138615-3.15561389-.1939681.000276.00185-.0002831.00388 0 .00573 1.11934209.1791514 2.31135319.269214 3.54902079.269214 2.6441652 0 5.0848762-.4421335 7.0408009-1.185693-.04163-2.190885-1.404885-4.06193-3.325777-4.8401562z" fill="url(#i)"/><path d="m6.1551891.86417081c-2.9398249 0-5.32353099 2.38527429-5.32353099 5.32703469 0 .02698-.000343.053272 0 .080191.054942-2.8941677 2.41814139-5.29724879 5.32353099-5.29724679 2.8436028 0 5.1686809 2.30556309 5.3178079 5.11395159.0016-.0006292.0041.0006292.0057 0-.054989-2.8942201-2.4181407-5.22392839-5.3235302-5.22393039z" fill="url(#h)"/><path d="m6.1609385 1.7021445c-.510297 0-.9250962.4148021-.9250962.925097 0 .5104215.4149255.9250965.9250962.9250968.510929 0 .921671-.4146753.921671-.9250968 0-.5102949-.4107419-.9250969-.921671-.925097zm-3.5239326 2.263404v.877129h2.1928218v6.1399005h.8771287v-3.0699499h.8771287v3.0699499h.8771286v-6.1399005h2.1928216v-.877129z" fill="url(#o)" stroke-width=".115984"/><g transform="matrix(-.08483139 0 0 .08483139 16.482305 5.584664)"><path d="m72.775073 49.843027c-2.77938.000004-5.555956 1.056806-7.625 3.125l-11.875 11.84375c-4.136373 4.138092-4.136323 11.143173 0 15.281249l12.125 12.15625-11.140625 11.156254a52.353586 52.388025 0 0 0 41.5625-25.625004c-2.62083-7.18653-5.900823-13.741324-9.703125-19.093749-.01337-.01882-.01787-.04371-.03125-.0625l-5.6875-5.65625c-2.069049-2.068209-4.845619-3.125004-7.625-3.125z" fill="#fff" fill-opacity=".588235" transform="matrix(-1.3929288 0 0 1.3929288 192.93688 -64.482113)"/><path d="m36.38397 16.014487c-1.015554.0081-1.987832.412338-2.709842 1.126563l-16.533086 16.533086c-1.521389 1.522007-1.521384 3.989015-.000004 5.511024l24.784409 24.814857-24.784404 24.814852c-1.521385 1.522003-1.521385 3.989016 0 5.511019l16.533086 16.533082c1.522004 1.52139 3.989016 1.52139 5.511029.00001l24.814851-24.784401 24.814848 24.784401c1.522012 1.52138 3.989019 1.52138 5.511025-.00001l16.533088-16.533081c1.52138-1.522005 1.52138-3.989012 0-5.511024l-24.784398-24.814848 24.784408-24.814852c1.52137-1.522014 1.52137-3.989022-.00001-5.511033l-16.533085-16.533085c-1.522009-1.521381-3.989017-1.521385-5.511024.000004l-24.814852 24.784404-24.814857-24.784409c-.744461-.736601-1.754021-1.142617-2.801182-1.126559zm30.386773 61.778321c-.732115-.739963-1.7298-1.156336-2.770734-1.156336-1.040934.000001-2.038624.416372-2.770738 1.15634z" fill="url(#p)"/><g fill-rule="evenodd"><path clip-path="url(#q)" d="m-62.57895 106.7868 26.162951-26.870061 25.809397 26.516501-25.809397-40.305083z" filter="url(#r)" stroke="#000" stroke-width=".745176" transform="matrix(.9743255 0 0 .9743255 99.290143 5.540481)"/><path d="m31.7 16 2.875-3.375c-1.051205-1.695758-3.935136-2.288018-5.9375-.3125l2.8125 3.375z" fill="url(#s)" filter="url(#t)" opacity=".498127" transform="matrix(0 1.8163775 -1.8163775 0 130.55195 34.179955)"/><path d="m31.7 16 2.875-3.375c-1.051205-1.695758-3.935136-2.288018-5.9375-.3125l2.8125 3.375z" fill="url(#s)" filter="url(#t)" opacity=".790262" transform="matrix(1.7938181 0 0 -1.7938181 -20.276758 130.94405)"/><path d="m31.7 16 2.875-3.375c-1.051205-1.695758-3.935136-2.288018-5.9375-.3125l2.8125 3.375z" fill="url(#u)" filter="url(#t)" opacity=".498127" transform="matrix(0 1.6448195 1.6448195 0 -.724353 39.584706)"/></g><path d="m91.558091 23.43728-27.558085 27.558085-27.558082-27.558081-13.004648 13.004648 27.558082 27.558081-27.558089 27.558089 13.004655 13.004638 27.55808-27.55808 27.558084 27.55808 13.004642-13.004644-27.558078-27.558084 27.558078-27.558083z" fill="url(#v)" opacity=".921348"/><path d="m88.7 16 2.875-3.375c-1.051205-1.695758-3.935136-2.288018-5.9375-.3125l2.8125 3.375z" fill="url(#w)" fill-rule="evenodd" filter="url(#t)" opacity=".790262" transform="matrix(1.6448195 0 0 -1.6448195 -53.800876 129.5366)"/><path clip-path="url(#q)" d="m-62.57895 106.7868 26.162951-26.870061 25.809397 26.516501-25.809397-40.305083z" fill="url(#y)" fill-rule="evenodd" filter="url(#r)" transform="matrix(.9743255 0 0 -.9743255 99.290147 122.00005)"/><path d="m31.7 16 2.875-3.375c-1.051205-1.695758-3.935136-2.288018-5.9375-.3125l2.8125 3.375z" fill="url(#z)" fill-rule="evenodd" filter="url(#t)" opacity=".790262" transform="matrix(1.4958209 0 0 1.4958209 -10.888668 .614396)"/><path d="m88.7 16 2.875-3.375c-1.051205-1.695758-3.935136-2.288018-5.9375-.3125l2.8125 3.375z" fill="url(#B)" fill-rule="evenodd" filter="url(#t)" opacity=".790262" transform="matrix(1.5356935 0 0 1.5356935 -44.142789 .237756)"/><path d="m88.284271 18.368396-28.284271 28.28427-28.284271-28.28427-13.347333 13.347333 28.28427 28.284271-28.28427 28.284271 13.347333 13.347339 28.284271-28.284276 28.284271 28.284276 13.347339-13.347339-28.284276-28.284271 28.284276-28.284271z" style="opacity:.921348;fill:none;stroke-width:2.32357;stroke-linecap:round;stroke-linejoin:round;stroke-dashoffset:1.0878;stroke:url(#C);filter:url(#D)" transform="matrix(.9743255 0 0 .9743255 5.540478 5.540485)"/><path d="m36.427153 23.374602-.730744.730744-12.272136 12.272136 12.759296-11.784977 27.817754 26.405744 27.29253-26.405743 10.932447 10.932441c-.0956.494517-.22471.974139-.36538 1.461486l-11.845002 13.79366c-10.682815 5.325801-25.578562 10.57913-41.593244 10.59579l.274024.274023c.459478.0054.908174.03045 1.370152.03046 16.062749-.000001 27.107879-3.307858 37.817731-8.64714l15.742309-15.742316c.0648-.224563.12493-.446354.18269-.669851.0676-.261529.13113-.52498.18269-.791634l-12.454832-12.454823-.730744.730745-26.805371 26.892902z" fill="url(#E)"/><path d="m36.444861 23.441989-13.002879 13.00288 25.272433 25.272433c.459468.0054.908166.03045 1.370144.03045 16.062751-.000003 27.107878-3.307858 37.817731-8.64714l15.74232-15.742304c.14067-.487351.26975-.966977.36537-1.461494l-12.454833-12.454825-27.555142 27.555142z" fill="url(#F)"/><path d="m36.427153 23.374602-.730744.730744-12.272136 12.272136 12.759296-11.784977 27.824156 28.24391-.0064-1.838166.0097 1.824011 27.282847-28.229754 10.932448 10.932441c-.0956.494517-.22471.974139-.36538 1.461486l-11.845003 13.79366c-10.682815 5.325801-25.578562 10.57913-41.593244 10.59579l.274024.274023c.459478.0054.908174.03045 1.370152.03046 16.062749-.000001 27.107879-3.307858 37.817731-8.64714l15.74229-15.742316c.0648-.224563.12493-.446354.18269-.669851.0676-.261529.13113-.52498.18269-.791634l-12.454832-12.454823-.730744.730745-26.805371 26.892902z" fill="url(#G)"/></g></svg>