<svg enable-background="new 0 0 128 128" height="16" viewBox="0 0 16 16" width="16" xmlns="http://www.w3.org/2000/svg" xmlns:xlink="http://www.w3.org/1999/xlink"><filter id="a"><feGaussianBlur stdDeviation="1.0394514"/></filter><filter id="b"><feGaussianBlur stdDeviation=".50063244"/></filter><radialGradient id="c" cx="167.92258" cy="161.94925" gradientUnits="userSpaceOnUse" r="162.19046"><stop offset="0" stop-color="#00537d"/><stop offset=".0151" stop-color="#186389"/><stop offset=".0558" stop-color="#558ca8"/><stop offset=".0964" stop-color="#89afc3"/><stop offset=".1357" stop-color="#b3ccd8"/><stop offset=".1737" stop-color="#d4e2e9"/><stop offset=".2099" stop-color="#ecf2f5"/><stop offset=".2435" stop-color="#fafcfd"/><stop offset=".2722" stop-color="#fff"/></radialGradient><radialGradient id="d" cx="125.30434" cy="133.25926" gradientTransform="matrix(1.1374413 0 0 1.141038 -8.687827 -18.215344)" gradientUnits="userSpaceOnUse" r="139.55859"><stop offset="0" stop-color="#e3e4e4"/><stop offset=".11366145" stop-color="#ececed"/><stop offset=".20296688" stop-color="#ececec"/><stop offset=".2363" stop-color="#fafafa"/><stop offset=".2722" stop-color="#fff"/><stop offset=".5313" stop-color="#fafafa"/><stop offset=".8449" stop-color="#ebecec"/><stop offset="1" stop-color="#e1e2e3"/></radialGradient><g transform="matrix(.125 0 0 .125 -.013553 -.013539)"><path d="m23 24.448276.04082 96.551724h61.131184l34.241996-.10366c.375-.375.586-.884.586-1.414v-95.034064z" filter="url(#a)" opacity=".715069" transform="matrix(1.210592 0 0 1.2036743 -21.843614 -23.427866)"/><path d="m24.919999 26.379412v92.689658l91.574001.0893c.375-.375.586-.884.586-1.414v-91.364998h-92.160001z" filter="url(#b)" opacity=".89589" transform="matrix(1.210592 0 0 1.2036743 -21.843614 -23.427866)"/><path d="m23 25.413793.040816 95.586207h61.131184l34.242-.10366c.375-.375.586-.884.586-1.414v-94.068547z" filter="url(#a)" opacity=".835616" transform="matrix(1.210592 0 0 1.2036743 -21.843614 -23.427866)"/><path d="m8.3243386 8.3243533v111.5681567h71.0921574l39.794954.0999c.43581-.43581.68103-1.02735.68103-1.6433l.00001-110.0247967z" fill="url(#c)" stroke-width="1.162168"/><path d="m18.410475 17.6217c-.626729 0-1.137441.512325-1.137441 1.141037l.348651 90.691383c0 .62986.510711 1.14104 1.137441 1.14104l91.502744-.13807c.21271-.21337.33327-.50662.33327-.8067v-90.887653c0-.628712-.50957-1.141037-1.13743-1.141037z" fill="url(#d)" stroke-width="1.162168"/><g fill="#258aff" fill-rule="evenodd"><path d="m128 111.98372h-128v16.01628h128z"/><path d="m128 0h-128v16.01628h128z"/></g></g></svg>