<svg height="16" width="16" xmlns="http://www.w3.org/2000/svg" xmlns:xlink="http://www.w3.org/1999/xlink"><linearGradient id="a"><stop offset="0" stop-color="#606060"/><stop offset=".5" stop-color="#8a8a8a"/><stop offset="1" stop-color="#606060"/></linearGradient><filter id="b"><feGaussianBlur stdDeviation=".80626257"/></filter><linearGradient id="c" gradientTransform="matrix(.95835738 0 0 .95456922 .666662 .724221)" gradientUnits="userSpaceOnUse" x1="61.331799" x2="74.664803" y1="21.336" y2="101.334"><stop offset="0" stop-color="#96ccff"/><stop offset="1" stop-color="#5b88c1"/></linearGradient><linearGradient id="d" gradientUnits="userSpaceOnUse" x1="21.5" x2="22.5" xlink:href="#a" y1="102.5" y2="101.5"/><linearGradient id="e" gradientUnits="userSpaceOnUse" x1="11" x2="12" xlink:href="#a" y1="100.5" y2="101.5"/><g transform="matrix(.5 0 0 .5 0 -48)"><path d="m17 97-9.5 8.5-1-1 9.5-8.5z" fill="url(#e)"/><path d="m15 97 9.5 8.5 1-1-9.5-8.5z" fill="url(#d)"/><circle cx="16" cy="97" fill="#3f3f3f" r="1"/></g><g transform="matrix(.25 0 0 .25 -1 -10)"><path d="m13.855469 58.859041v43.350709h51.496244v-43.350709z" filter="url(#b)" transform="matrix(1.0658161 0 0 1.0738523 -6.210526 -6.321113)"/><path d="m8 56h56v48h-56z" fill="#786a51"/><path d="m12 60h48v40h-48z" fill="#debc85"/><path d="m16 64h40v30h-40z" fill="url(#c)"/><path d="m4 21v7.5h.5v-6.5h9v6.5h.5v-7.5z" opacity=".48" transform="matrix(4 0 0 4 0 -20)"/><path d="m16 94h40v2h-40z" fill="#fff" opacity=".5"/></g></svg>