<svg height="32" width="32" xmlns="http://www.w3.org/2000/svg" xmlns:xlink="http://www.w3.org/1999/xlink"><filter id="a"><feGaussianBlur stdDeviation="1.0394514"/></filter><filter id="b"><feGaussianBlur stdDeviation=".50063244"/></filter><radialGradient id="c" cx="22.999999" cy="32" gradientUnits="userSpaceOnUse" r="17.422876"><stop offset="0" stop-color="#00537d"/><stop offset=".0151" stop-color="#186389"/><stop offset=".0558" stop-color="#558ca8"/><stop offset=".0964" stop-color="#89afc3"/><stop offset=".1357" stop-color="#b3ccd8"/><stop offset=".1737" stop-color="#d4e2e9"/><stop offset=".2099" stop-color="#ecf2f5"/><stop offset=".2435" stop-color="#fafcfd"/><stop offset=".2722" stop-color="#fff"/></radialGradient><radialGradient id="d" cx="104.46897" cy="236.43996" gradientTransform="matrix(.19346713 0 0 .17913623 -4.211311 -12.354963)" gradientUnits="userSpaceOnUse" r="139.55859"><stop offset="0" stop-color="#e3e4e4"/><stop offset=".11366145" stop-color="#ececed"/><stop offset=".20296688" stop-color="#ececec"/><stop offset=".2363" stop-color="#fafafa"/><stop offset=".2722" stop-color="#fff"/><stop offset=".5313" stop-color="#fafafa"/><stop offset=".8449" stop-color="#ebecec"/><stop offset="1" stop-color="#e1e2e3"/></radialGradient><path d="m10 0h22v22h-22z" fill="#ababab" stroke-width="2"/><path d="m23 25.413793.04082 192.661467h61.13118l131.02281.15809c.375-.375.586-.884.586-1.414v-191.143803z" fill="#c1c1c1" fill-opacity=".856618" filter="url(#a)" opacity=".835616" transform="matrix(.11396538 0 0 .11331414 2.378796 2.229665)"/><path d="m23 24.448276.04082 193.626984h61.131184l131.022806.15809c.375-.375.586-.884.586-1.414v-192.10932z" fill="#c7c7c7" filter="url(#a)" opacity=".715069" transform="matrix(.11396538 0 0 .11331414 2.378796 2.229665)"/><path d="m24.919999 26.379412v189.764918l188.354811.35105c.375-.375.586-.884.586-1.414v-188.440254l-188.940811-.261754z" fill="#c7c7c7" filter="url(#b)" opacity=".89589" transform="matrix(.11396538 0 0 .11331414 2.378796 2.229665)"/><path d="m5.9703383 5.9703386v20.0000004l20.0296617.029661v-20z" fill="url(#c)" stroke-width=".124843"/><path d="m6.9703383 6.8942706c-.061695-.0001017-.1119678.05043-.1119678.112322l.034321 17.9275174c0 .062.050274.112323.111968.112323l18.0370465.01607c.02094-.021.03281-.04987.03281-.07941v-17.946839c0-.06189-.05016-.1122201-.111966-.112322z" fill="url(#d)" stroke-width=".114402"/></svg>