<svg viewBox="0 0 16 16" xmlns="http://www.w3.org/2000/svg">
  <path
     style="fill:#808080"
     d="M 0.5 2 C 0.223 2 0 2.223 0 2.5 C 0 2.777 0.223 3 0.5 3 L 9.5 3 C 9.777 3 10 2.777 10 2.5 C 10 2.223 9.777 2 9.5 2 L 0.5 2 z M 4.5 5 C 4.223 5 4 5.223 4 5.5 C 4 5.777 4.223 6 4.5 6 L 9.5 6 C 9.777 6 10 5.777 10 5.5 C 10 5.223 9.777 5 9.5 5 L 4.5 5 z M 0.5 10 C 0.223 10 0 10.223 0 10.5 C 0 10.777 0.223 11 0.5 11 L 9.5 11 C 9.777 11 10 10.777 10 10.5 C 10 10.223 9.777 10 9.5 10 L 0.5 10 z M 4.5 13 C 4.223 13 4 13.223 4 13.5 C 4 13.777 4.223 14 4.5 14 L 9.5 14 C 9.777 14 10 13.777 10 13.5 C 10 13.223 9.777 13 9.5 13 L 4.5 13 z "
     id="rect2" />
  <path
     style="fill:#4d82b8"
     d="M 12.9375 1 L 11 2.5605469 L 11.369141 3.0292969 C 11.388551 3.0533579 11.415572 3.0775025 11.451172 3.1015625 C 11.49001 3.1226155 11.533491 3.1374644 11.582031 3.1464844 C 11.630575 3.1555044 11.683261 3.1555044 11.738281 3.1464844 C 11.793297 3.1374614 11.847324 3.1124175 11.902344 3.0703125 L 12.742188 2.3984375 C 12.732527 2.5488135 12.728516 2.6936853 12.728516 2.8320312 L 12.728516 6 L 11.480469 6 L 11.480469 7 L 15 7 L 15 6 L 14 6 L 14 1 L 12.9375 1 z M 13.089844 9 C 12.831492 9 12.588968 9.0368681 12.363281 9.1113281 C 12.137595 9.1828101 11.936923 9.291558 11.761719 9.4375 C 11.589484 9.580464 11.445891 9.761093 11.330078 9.9785156 C 11.214265 10.192962 11.134384 10.445473 11.089844 10.734375 L 11.660156 10.832031 C 11.802695 10.855858 11.913963 10.846381 11.994141 10.804688 C 12.077288 10.76299 12.14194 10.674115 12.189453 10.537109 C 12.216182 10.447757 12.254207 10.364548 12.304688 10.287109 C 12.35517 10.209667 12.417012 10.142524 12.488281 10.085938 C 12.559551 10.029352 12.639428 9.9839385 12.728516 9.9511719 C 12.817602 9.9184052 12.91458 9.9023438 13.021484 9.9023438 C 13.270928 9.9023438 13.464962 9.9732959 13.601562 10.113281 C 13.738163 10.253266 13.806641 10.460361 13.806641 10.734375 C 13.806641 10.886274 13.786654 11.03189 13.748047 11.171875 C 13.709442 11.308882 13.651427 11.445025 13.574219 11.582031 C 13.49998 11.716059 13.407765 11.851275 13.294922 11.988281 C 13.185048 12.125288 13.055665 12.269976 12.910156 12.421875 L 11.191406 14.195312 C 11.120134 14.263816 11.070709 14.339505 11.041016 14.419922 C 11.014289 14.497361 11 14.570169 11 14.638672 L 11 15 L 15 15 L 15 14.357422 C 15 14.2502 14.963847 14.163178 14.892578 14.097656 C 14.824278 14.03213 14.733937 14 14.621094 14 L 13.28125 14 C 13.165437 14 13.03988 14.01133 12.90625 14.035156 C 12.772619 14.05601 12.639489 14.087213 12.505859 14.128906 L 13.761719 12.810547 C 13.916136 12.649713 14.063556 12.489887 14.203125 12.332031 C 14.342695 12.171197 14.464425 12.008588 14.568359 11.841797 C 14.672295 11.672028 14.754046 11.495208 14.816406 11.310547 C 14.878766 11.122908 14.910156 10.920549 14.910156 10.703125 C 14.910156 10.44996 14.866431 10.218254 14.777344 10.009766 C 14.691227 9.798299 14.56856 9.6176707 14.408203 9.46875 C 14.250816 9.3198293 14.057718 9.2054167 13.832031 9.125 C 13.609314 9.0416047 13.363043 9 13.089844 9 z "
     id="path6" />
</svg>
