<svg viewBox="0 0 16 16" xmlns="http://www.w3.org/2000/svg" xmlns:xlink="http://www.w3.org/1999/xlink"><filter id="a" color-interpolation-filters="sRGB" height="1.094553" width="1.097492" x="-.048746" y="-.047277"><feGaussianBlur stdDeviation=".36559322"/></filter><linearGradient id="b" gradientUnits="userSpaceOnUse" x1="10" x2="10" y1="0" y2="4"><stop offset="0" stop-color="#c7c7cc"/><stop offset="1" stop-color="#8e8e93"/></linearGradient><linearGradient id="c" gradientTransform="matrix(0 1.000071 -.99880824 0 20.991099 5.992715)" gradientUnits="userSpaceOnUse" x1="10.006575" x2="2.007143" y1="9.502423" y2="9.494602"><stop offset="0" stop-color="#0040dd"/><stop offset="1" stop-color="#007aff"/></linearGradient><path d="m3 6.940678h10v2.559322h-10z" filter="url(#a)" opacity=".15" stroke-width="1.015418"/><path d="m3 2c-.554 0-1 .446-1 1h1 10 1c0-.554-.446-1-1-1zm-1 6c0 .554.446 1 1 1h10c.554 0 .847804-.467316 1-1h-1-10z" fill="#8e8e93"/><path d="m2 1h10v3h-10z" fill="url(#b)" transform="translate(1 2)"/><path d="m3 5v3h6.8808594l.5019526-.5039062-.097656.1132812c.277368-.3764145.716-.602325 1.183594-.609375.473735-.0076897.924458.2101832 1.212891.5859375l-.085938-.0976563.404297.4042969v-2.8925781z" fill="#f2f2f7"/><path d="m3 5h10v3h-10z" fill="#f2f2f7"/><g fill="#8e8e93"><path d="m3 5h10v1h-10z"/><g stroke-width=".707107"><path d="m3 3v5h-1v-5z"/><path d="m14 3v5h-1v-5z"/></g></g><path d="m11.484375 7c-.389296.0062042-.761876.1640841-1.037109.4394531l-1.5605472 1.5605469h4.1132812c.323824 0 .550995-.1691466.720703-.4082031l-1.152344-1.1523438c-.286711-.2868793-.678529-.4456628-1.083984-.4394531z" fill="#f2f2f7" fill-opacity=".784314"/><path d="m11.5 8c-.129887.00207-.253871.054606-.345704.1464844l-2.9999996 2.9999996c-.3147787.314997-.0918033.853342.3535156.853516h1.5l-.007812 3.5c.000028.276131.223869.499972.5.5h2c.276131-.000028.499972-.223869.5-.5l.0078-3.5h1.5c.445319-.000174.668295-.538519.353516-.853516l-3-2.9999996c-.09565-.0957059-.226015-.1485566-.361316-.1464844z" fill="url(#c)"/></svg>