<svg height="32" viewBox="0 0 8.4666665 8.466667" width="32" xmlns="http://www.w3.org/2000/svg" xmlns:xlink="http://www.w3.org/1999/xlink"><linearGradient id="a" gradientUnits="userSpaceOnUse" x1="1.23492958787" x2="1.42281051936" y1="-64.66582771013" y2="-66.41380443269"><stop offset="0" stop-color="#555"/><stop offset="1"/></linearGradient><linearGradient id="b" gradientUnits="userSpaceOnUse" x1="1.10072796" x2="1.10072796" y1=".02058908" y2="1.19485168"><stop offset="0" stop-color="#3b3e22"/><stop offset="1" stop-color="#454545" stop-opacity="0"/></linearGradient><path d="m7.6555634 7.1783721v.2299393h-2.980013v-.2299393q.193149-.027593.2943223-.027593.4414834-.027593.4414834-.3035199 0-.2759271-.4230883-1.2508696h-2.0694534l-.1379635.3587056q-.2667296.6898178-.2667296.8461765 0 .1747538.1747538.2667295.1747539.082778.579447.1103709v.2299393h-1.8671069v-.2299393q.3311126-.064383.4782737-.2483344.1563587-.1839514.4230883-.8277814l2.0418607-5.0402688h.257532l2.0510583 4.8379223q.3403101.8093862.5150639 1.048523.1839514.2299393.450681.2299393zm-4.5987854-1.9406874h1.7935263l-.9289547-2.2350097z" fill="url(#a)"/><path d="m16.742188 4.5039062-5.66211 13.9863278a16.499999 9.0000005 0 0 0 .425781.083985l2.867188-7.40625a.48430042.48430042 0 0 1 .449219-.308594.48430042.48430042 0 0 1 .451172.302734l3.21875 7.759766a16.499999 9.0000005 0 0 0 4.425781-.640625l-5.84375-13.7773438z" fill="url(#b)" opacity=".5" transform="scale(.26458334)"/></svg>