<svg viewBox="0 0 28 16" xmlns="http://www.w3.org/2000/svg">
  <path
     d="M 16,1 V 15 H 27 V 4.73 L 23,1 Z"
     fill="#fafafa" />
  <path
     d="m 16,0 c -0.554,0 -1,0.446 -1,1 v 14 c 0,0.554 0.446,1 1,1 h 11 c 0.554,0 1,-0.446 1,-1 V 8.9 5.35 5.04 C 28,4.6 28.1,4.615 27.4,4 L 24.1,0.7368575 C 23.38,0 23.38,0 23,0 H 22.66 22 Z m 0,1 h 6 v 4 c 0,0.554 0.446,1 1,1 h 4 v 9 H 16 Z"
     fill="#3a3a38" />
  <path
     d="m 23,5 h 4 L 23,1 Z"
     fill="#fafafa" />
  <path
     d="M 1,1 V 15 H 12 V 4.73 L 8,1 Z"
     fill="#fafafa" />
  <path
     d="M 1,0 C 0.446,0 0,0.446 0,1 v 14 c 0,0.554 0.446,1 1,1 h 11 c 0.554,0 1,-0.446 1,-1 V 8.9 5.25 5.04 C 13,4.6 13.1,4.6148851 12.4,4 L 9.1,0.7368575 C 8.38,0 8.38,0 8,0 H 7.66 7 Z m 0,1 h 6 v 4 c 0,0.554 0.446,1 1,1 h 4 v 9 H 1 Z"
     fill="#3a3a38" />
  <path
     d="m 8,5 h 4 L 8,1 Z"
     fill="#fafafa" />
</svg>
