<svg viewBox="0 0 24 24" fill="none" xmlns="http://www.w3.org/2000/svg">
<path fill-rule="evenodd" clip-rule="evenodd" d="M5 8C4.44772 8 4 8.44772 4 9V15C4 15.5523 4.44772 16 5 16H15.457C15.457 15.7441 15.3594 15.4882 15.1642 15.293L14.8713 15L12.2929 12.421C11.9024 12.0304 11.9025 11.3973 12.293 11.0068L13.0068 10.293C13.3973 9.90247 14.0304 9.90243 14.421 10.2929L17.293 13.1642C17.6835 13.5546 18.3165 13.5546 18.707 13.1642L20 11.8715L21 10.8718V9C21 8.44772 20.5523 8 20 8H5Z" fill="#18AB50"/>
<path fill-rule="evenodd" clip-rule="evenodd" d="M5 9H20V11.8715L18.707 13.1642C18.3165 13.5546 17.6835 13.5546 17.293 13.1642L14.421 10.2929C14.0304 9.90243 13.3973 9.90247 13.0068 10.293L12.293 11.0068C11.9025 11.3973 11.9024 12.0304 12.2929 12.421L14.8713 15H5V9Z" fill="#A1DDAA"/>
<path fill-rule="evenodd" clip-rule="evenodd" d="M13.7143 11L14.0708 11.3569L17.2929 14.579L17.3105 14.5962L17.7143 15L18 15.2857L18.2857 15L18.6895 14.5962L18.7071 14.579L20 13.2857L21 12.2857L21.9292 11.3569L22.2857 11L22.6305 11.3448L22.6431 11.3569L22.6552 11.3695L23 11.7143L22.6431 12.0708L21 13.7143L20 14.7143L19.7143 15L19.421 15.2929L19.4038 15.3105L18.7143 16L19.4038 16.6895L19.421 16.7071L22.6431 19.9292L23 20.2857L22.6552 20.6305L22.6431 20.6431L22.6305 20.6552L22.2857 21L21.9292 20.6431L18.7071 17.421L18.6895 17.4038L18 16.7143L17.3105 17.4038L17.2929 17.421L14.0708 20.6431L13.7143 21L13.3695 20.6552L13.3569 20.6431L13.3448 20.6305L13 20.2857L13.3569 19.9292L16.579 16.7071L16.5962 16.6895L17.2857 16L16.5962 15.3105L16.579 15.2929L16.2857 15L13.3569 12.0708L13 11.7143L13.3448 11.3695L13.3569 11.3569L13.3695 11.3448L13.7143 11Z" fill="#ED3D3B"/>
</svg>
