<svg height="32" viewBox="0 0 32 32" width="32" xmlns="http://www.w3.org/2000/svg"><g fill="#2e3436"><path d="m3 27v2h26v-2z"/><path d="m11.434461 16.000001h9.5v2h-9.5z" stroke-width=".96241"/><path d="m15.503906 4.0078125c-.999998-.0007683-1.48726.5424264-1.732422 1.2773437l-5.7597652 18.0859378-.00977.02734c-.0026.0065-.00531.01303-.00781.01953-.003.0089-.00501.01834-.00781.02734-.00893.02899-.016737.05831-.023437.08789-.00691.03028-.012978.06069-.017578.0918-.0026.01757-.00601.03491-.00781.05273-.0019.02144-.00318.04293-.00391.06445-.001.01943-.00196.03892-.00195.05859.0003.04945.00367.09859.00977.146485.0022.01698.00481.03391.00781.05078.00566.03306.013184.06557.021484.09766.00417.01702.00877.03395.013672.05078.152214.505025.6170672.850888 1.1445312.851563.557669-.0015 1.0404418-.387844 1.1640628-.931641l5.6406202-17.566391c.122244-.4029535.189107-.4863275.570312-.4921875v-2z"/><path d="m16.5 4v2c.381205.00586.448072.089234.570316.4921875l5.640826 17.5657585c.123621.543797.606394.930177 1.164063.931641.527464-.000675.992317-.346538 1.144531-.851563.0049-.01683.0095-.03376.01367-.05078.0083-.03209.01582-.0646.02148-.09766.003-.01687.0056-.0338.0078-.05078.0061-.04789.0095-.09703.0098-.146484.000005-.01967-.001-.03916-.002-.05859-.000722-.02152-.002-.04301-.0039-.06445-.0018-.01782-.0052-.03516-.0078-.05273-.0046-.03111-.01067-.06152-.01758-.0918-.0067-.02958-.01451-.0589-.02344-.08789-.0028-.009-.0048-.01841-.0078-.02734-.0025-.0065-.0052-.01304-.0078-.01953l-5.769744-18.1126462c-.245162-.7349173-.732424-1.2781121-1.732422-1.2773438zm8.461138 19.290368c.01101.02379.02179.04766.03125.07227-.0096-.02442-.02004-.04853-.03125-.07227z"/></g></svg>