<svg viewBox="0 0 32 32" xmlns="http://www.w3.org/2000/svg" xmlns:xlink="http://www.w3.org/1999/xlink"><linearGradient id="a" gradientUnits="userSpaceOnUse" x1="22.40678" x2="22.271187" y1="19.5" y2="2.686441"><stop offset="0" stop-color="#0040dd"/><stop offset="1" stop-color="#0a84ff"/></linearGradient><g fill="#69696e"><path d="m7.5117188 3.9960938c-.2770001 0-.5.2229999-.5.5v19.5039062h-2.4414063c-.4121845-.05181-.7994293.477978-.40625.855469l2.9941406 2.99414.0058594.00586c.044098.04294.0957448.077369.1523437.101562.1881725.08357.4083336.043261.5546876-.101562l3.0000002-3c.09665-.09455.150924-.22417.15039-.359375-.001325-.311872-.267167-.499533-.533203-.484375l.011719-.011719h-2.4882812v-19.5039062c0-.2770001-.223-.5-.5-.5z"/><path d="m16.511719 19.996094c-.277 0-.5.223-.5.5v3.503906h-2.441407c-.412184-.05181-.799429.477978-.40625.855469l2.994141 2.99414.0059.0059c.0441.04294.09574.07737.152344.101562.188172.08357.408334.04326.554688-.101562l3-3c.09665-.09455.150924-.22417.15039-.359375-.0013-.311872-.267167-.499533-.533203-.484375l.011678-.011759h-2.488281v-3.503906c0-.277-.223-.5-.5-.5z"/><path d="m25.511719 21.996094c-.277 0-.5.223-.5.5v1.503906h-2.441407c-.412184-.05181-.799429.477978-.40625.855469l2.994141 2.99414.005859.00586c.044101.04294.09574.077369.152344.101562.188172.08357.408334.043261.554688-.101562l3-3c.09665-.09455.150924-.22417.15039-.359375-.001325-.311872-.267167-.499533-.533203-.484375l.011719-.011719h-2.488281v-1.503906c0-.277-.223-.5-.5-.5z"/></g><path d="m25 3v17h2v-6h3v-2h-3v-9zm-11 2v2h6c-.247361 4.456932-2.461785 8.97045-6 9v2c6.400071-.06001 8.124987-7.789744 8-11.542969v-1.457031z" fill="url(#a)" fill-rule="evenodd"/></svg>