<svg viewBox="0 0 32 32" xmlns="http://www.w3.org/2000/svg"><g transform="matrix(-1 0 0 1 32 0)"><g fill="#3daee9" transform="matrix(-1 0 0 1 13 2)"><path d="m4 2v2 1 2 1h3c1.108 0 2-.892 2-2 0-.8109-.49689-1.498-1.1875-1.8125.10595-.2058.1875-.4392.1875-.6875 0-.831-.669-1.5-1.5-1.5h-1.5zm1 1h1.5c.277 0 .5.223.5.5s-.223.5-.5.5h-1.5zm0 2h1.5.5c.554 0 1 .446 1 1s-.446 1-1 1h-2z"/><path d="m7 12c-1.65685 0-3 1.3432-3 3 0 1.6569 1.3496453 2.853435 3 3h1v-1h-1c-1.104569 0-2-.8954-2-2s.8997612-2.09771 2-2h1v-1z"/></g><path d="m11 4v1h17v-1zm0 3v1h13v-1zm0 7v1h17v-1zm0 3v1h4v-1zm8 0v1h9v-1zm-8 7v1h17v-1zm0 3v1h11v-1zm13 1v1h4v-1z" fill="#232629"/></g></svg>