<svg viewBox="0 0 32 32" xmlns="http://www.w3.org/2000/svg"><path d="m16 3a13 13 0 0 0 -13 13 13 13 0 0 0 13 13 13 13 0 0 0 13-13 13 13 0 0 0 -13-13zm0 3c1.566401 0 3.077865.4395069 4.207031 1.4589844s1.792969 2.5930226 1.792969 4.5410156c0 1.339845-.640905 2.425972-1.46875 3.220703l-1.074219 1.052735c-.686676.790183-1.004989 1.251288-1.193359 1.835937-.068179.21161-.11776.479661-.154297.796875s-.060032.683592-.076172 1.09375h-4.033203v-1c0-2.139295 1.232462-3.652593 2.273438-4.755859.520486-.551633 1.005222-1.027794 1.316406-1.421875.311186-.394082.410156-.655599.410156-.822266 0-.521206-.180384-1.036356-.498047-1.394531s-.75364-.605469-1.501953-.605469c-.72 0-1.15754.265044-1.490234.654297-.249522.29194-.411167.673029-.476563 1.017578-.021799.11485-.033203.226256-.033203.328125v1h-4v-1c0-3.2144686 2.670863-6 6-6zm-2 16h4v4h-4v-3z" fill="#555753"/></svg>