<svg viewBox="0 0 32 32" xmlns="http://www.w3.org/2000/svg"><g fill="#2e3436"><path d="m15.886719 3.0039062c-.916484-.049879-1.809523.493577-2.50586 1.6894532l-10.9003902 20.2187496c-.9303837 1.680175.0847753 4.087891 1.9082031 4.087891h22.9433591c1.712143 0 3.320492-2.02234 2.126953-4.087891l-11.009765-20.1113278c-.695377-1.1269349-1.646016-1.7469436-2.5625-1.796875zm-.166016 2.03125c.026421-.0035696.043818.0013616.054688.0019532.078156.004258.501925.1352784.933593.8261718l10.964844 20.0273438a2.0359907 2.0359907 0 0 0 .023438.039063c.254585.440588.166151.549557.050781.738281-.115371.188723-.361483.296875-.416016.296875h-22.9433591c-.0156753 0-.015725.040981-.1308594-.214844s-.1096372-.646516.0039063-.851562a2.0359907 2.0359907 0 0 0 .0097656-.019532l10.8691406-20.1621091.001953-.0019531c.335455-.5746268.498862-.6689785.578125-.6796876z" stroke-width="1.74402"/><path d="m16 8c-1.104584 0-2 .9004345-2 2 0 .261729.009897.522299.029297.796875.135907 1.921981.716182 4.541215 1.294922 9.199219v.013672h.675781.675781v-.013672c.57874-4.658002 1.159015-7.277238 1.294922-9.199219.0194-.274576.029297-.535146.029297-.796875 0-1.0995655-.895416-2-2-2zm0 13.976562c-.41422.000001-.799939.126798-1.119141.34375-.106817.0726-.204152.154644-.294921.246094-.361927.364019-.585938.866234-.585938 1.433594 0 1.099998.895416 2 2 2s2-.900002 2-2c0-.56736-.224011-1.069575-.585938-1.433594-.090766-.091455-.188104-.173494-.294921-.246094-.319202-.216952-.704921-.343749-1.119141-.34375z"/></g></svg>