<svg height="11" viewBox="0 0 11 11" width="11" xmlns="http://www.w3.org/2000/svg"><path d="m4 0v3.0527344l1.3398438.9472656h.6601562v.4667969l.3320312.234375c.8709862.615885.8709862 1.9817712 0 2.5976562l-.3320312.234375v3.4667969h2v-1h1v-2h-1v-1h2v-2h-2v-1h3v-4zm-3.40625 2c-.3266227-.00429-.5937092.2592866-.59375.5859375v6.828125c.0003413.474883.53574692.7522075.92382812.4785156l4.82812498-3.4140625c.3302624-.2335326.3302624-.7234986 0-.9570312l-4.82812498-3.4140625c-.096654-.068317-.21172892-.1057674-.33007812-.1074219z" fill="#efefef"/></svg>