<svg height="32" width="32" xmlns="http://www.w3.org/2000/svg" xmlns:xlink="http://www.w3.org/1999/xlink"><defs><linearGradient id="a" gradientTransform="translate(309.57 152.44)" gradientUnits="userSpaceOnUse" x2="0" y1="392.36" y2="365.36"><stop offset="0" stop-color="#fff" stop-opacity="0"/><stop offset="1" stop-color="#fff" stop-opacity=".2"/></linearGradient><linearGradient id="b" gradientUnits="userSpaceOnUse" x1="404.57" x2="411.57" y1="524.8" y2="531.8"><stop offset="0" stop-color="#060606"/><stop offset="1" stop-opacity="0"/></linearGradient><path id="c" d="m389.57 545.8v-28h15l7 7v21h-14z"/></defs><g transform="translate(-384.57 -515.8)"><use fill="#662d0e" xlink:href="#c"/><g fill="#fff"><path d="m391.57 517.8v1.998h-1.998v1h1.998v2h-1.998v1h1.998v2h-1.998v1h1.998v2h-1.998v1h1.998v2h-1.998v1h1.998v2h-1.998v1h1.998v2h-1.998v1h1.998v2h-1.998v1h1.998v2h-1.998v1h1.998v1h1v-1h2v1h1v-1h2v1h1v-1h2v1h1v-1h2v1h1v-1h2v1h1v-1h2v1h1v-1h1v-1h-1v-2h1v-1h-1v-2h1v-1h-1v-2h1v-1h-1v-2h1v-1h-1v-2h1v-1h-1v-2h1v-1h-1v-2l-1-1h-2v-2l-1-1h-2v-1.998h-1v1.998h-2v-1.998h-1v1.998h-2v-1.998h-1v1.998h-2v-1.998h-1v1.998h-2v-1.998zm1 2.998h2v2h-2zm3 0h2v2h-2zm3 0h2v2h-2zm3 0h2v2h-2zm3 0h2v2h-2zm-12 3h2v2h-2zm3 0h2v2h-2zm3 0h2v2h-2zm3 0h2v2h-2zm3 0h2v2h-2zm3 0h2v2h-2zm-15 3h2v2h-2zm3 0h2v2h-2zm3 0h2v2h-2zm3 0h2v2h-2zm3 0h2v2h-2zm3 0h2v2h-2zm-15 3h2v2h-2zm3 0h2v2h-2zm3 0h2v2h-2zm3 0h2v2h-2zm3 0h2v2h-2zm3 0h2v2h-2zm-15 3h2v2h-2zm3 0h2v2h-2zm3 0h2v2h-2zm3 0h2v2h-2zm3 0h2v2h-2zm3 0h2v2h-2zm-15 3h2v2h-2zm3 0h2v2h-2zm3 0h2v2h-2zm3 0h2v2h-2zm3 0h2v2h-2zm3 0h2v2h-2zm-15 3h2v2h-2v-1zm3 0h2v2h-2v-1zm3 0h2v2h-2v-1zm3 0h2v2h-2v-1zm3 0h2v2h-2v-1zm3 0h2v2h-2v-1zm-15 3h2v2h-2v-1zm3 0h2v2h-2v-1zm3 0h2v2h-2v-1zm3 0h2v2h-2v-1zm3 0h2v2h-2v-1zm3 0h2v2h-2v-1z" opacity=".1"/><path d="m389.57-518.8h15v1h-15z" opacity=".5" transform="scale(1 -1)"/></g><path d="m389.57-545.8h22v1h-22z" opacity=".25" transform="scale(1 -1)"/><path d="m404.57 524.8 7 7v-7z" fill="url(#b)" fill-rule="evenodd" opacity=".2"/><g fill="#ee9463"><path d="m411.57 524.8-7-7v7z"/><path d="m10.998 10.998c-.554 0-1 .446-1 1v10c0 .554.446 1 1 1h10c.554 0 1-.446 1-1v-10c0-.554-.446-1-1-1zm0 1h10v10h-10zm6 1v3h3a3 3 0 0 0 -3-3m-1 1a3 3 0 0 0 -3 3 3 3 0 0 0 3 3 3 3 0 0 0 3-3h-3z" transform="translate(384.57 515.8)"/></g><use fill="url(#a)" xlink:href="#c"/></g></svg>