<svg height="24" viewBox="0 0 24 24" width="24" xmlns="http://www.w3.org/2000/svg"><path d="m4.5 7c-.831 0-1.5.669-1.5 1.5v8c0 .831.669 1.5 1.5 1.5h5c.831 0 1.5-.669 1.5-1.5v-1.5h2v1.5c0 .831.669 1.5 1.5 1.5h5c.831 0 1.5-.669 1.5-1.5v-8c0-.831-.669-1.5-1.5-1.5h-5c-.831 0-1.509081.6690496-1.5 1.5v1.5h-2v-1.5c0-.831-.669-1.5-1.5-1.5zm0 1h5c.277 0 .4969729.2230165.5.5v1.5h-1.5c-.831 0-1.5.669-1.5 1.5v2c0 .831.669 1.5 1.5 1.5h1.5v1.5c0 .277-.223.5-.5.5h-5c-.277 0-.5-.223-.5-.5v-8c0-.277.223-.5.5-.5zm10 0h5c.277 0 .5.223.5.5v8c0 .277-.223.5-.5.5h-5c-.277 0-.5-.223-.5-.5v-1.5h1.5c.831 0 1.5-.669 1.5-1.5v-2c0-.831-.669488-1.5284747-1.5-1.5h-1.5v-1.5c0-.277.223-.5.5-.5zm-6 3h7c.277 0 .5.223.5.5v2c0 .277-.223.5-.5.5h-7c-.277 0-.5-.223-.5-.5v-2c0-.277.223-.5.5-.5z" fill="#eff0f1"/></svg>