<svg height="32" width="32" xmlns="http://www.w3.org/2000/svg" xmlns:xlink="http://www.w3.org/1999/xlink"><linearGradient id="a" gradientUnits="userSpaceOnUse" x1="404.57" x2="411.57" y1="524.8" y2="531.8"><stop offset="0" stop-color="#383e51"/><stop offset="1" stop-color="#655c6f" stop-opacity="0"/></linearGradient><linearGradient id="b" gradientTransform="translate(309.57 152.44)" gradientUnits="userSpaceOnUse" x2="0" y1="392.36" y2="365.36"><stop offset="0" stop-color="#fff" stop-opacity="0"/><stop offset="1" stop-color="#fff" stop-opacity=".2"/></linearGradient><g transform="translate(-384.57 -515.8)"><path d="m389.57 545.8v-28h15l7 7v21h-7z" fill="#fa752a"/><g transform="scale(1 -1)"><path d="m389.57-518.8h15v1h-15z" fill="#fff" opacity=".5"/><path d="m389.57-545.8h22v1h-22z" opacity=".25"/></g><g fill-rule="evenodd"><path d="m411.57 524.8-7-7v7z" fill="#fff" opacity=".5"/><path d="m411.57 531.8-7-7h7z" fill="url(#a)" opacity=".2"/></g><path d="m395.57 526.8c-.554 0-1 .446-1 1v10c0 .554.446 1 1 1h10c.554 0 1-.446 1-1v-10c0-.554-.446-1-1-1zm0 1h10v10h-10zm6 1v3h3a3 3 0 0 0 -3-3m-1 1a3 3 0 0 0 -3 3 3 3 0 0 0 3 3 3 3 0 0 0 3-3h-3z" fill="#fff" opacity=".75"/><path d="m389.57 545.8v-28h15l7 7v21h-14z" fill="url(#b)"/></g></svg>