<svg height="128" width="128" xmlns="http://www.w3.org/2000/svg" xmlns:xlink="http://www.w3.org/1999/xlink"><linearGradient id="a" gradientTransform="matrix(2.0363633 0 0 1.9310359 -1227.1042 -1385.3856)" gradientUnits="userSpaceOnUse" x1="560.78583" x2="560.78583" y1="785.70648" y2="727.70654"><stop offset="0" stop-color="#2a2c2f"/><stop offset="1" stop-color="#424649"/></linearGradient><linearGradient id="b" gradientUnits="userSpaceOnUse" x1="408.19208" x2="406.63834" xlink:href="#a" y1="543.3587" y2="504.6178"/><linearGradient id="c" gradientUnits="userSpaceOnUse" x1="408.39273" x2="408.39273" y1="531.976619" y2="515.976619"><stop offset="0" stop-color="#a5a9af"/><stop offset="1" stop-color="#dadcde"/></linearGradient><linearGradient id="d" gradientUnits="userSpaceOnUse" x1="400.571445" x2="416.571445" y1="515.79801" y2="531.798003"><stop offset="0" stop-color="#383e51"/><stop offset="1" stop-color="#655c6f" stop-opacity="0"/></linearGradient><g transform="matrix(2.8 0 0 2.8 -1080 -1402.6344)"><path d="m392.50201 503.79158v40l32.14085.006.01-27.99958-12.07725-12z" fill="url(#b)"/><path d="m392.48249 542.72015 32.16037.006.01 1.07139-32.16038-.006z" fill="#2e3132" fill-opacity=".294118"/><path d="m424.64286 503.798h-10l10 10z" fill="#212323"/><path d="m401.42857 515.94086v16.07143l11.28573 11.78571h11.92856v-18.92857l-9.24991-8.89295z" fill="url(#d)" fill-rule="evenodd" opacity=".2" stroke-width=".357143"/><path d="m401.42857 515.94086v16.07143l9.96419-.0356v-.01l.008.01 3.95638-4.02781v-.008-12zm1.07143 1.07143h11.78571v10h-3.92857l.0356 3.96438-7.89276-.0358z" fill="url(#c)"/></g><g stroke-width="2.8"><path d="m-129.91309 19.841886c-.0168 0-.028 9.990372-.028 22.4v67.200004c0 12.4096.0112 22.4.028 22.4h61.04764 28.497644c.0168 0 .028-9.9904.028-22.4v-4.6375-51.362504l-33.6-33.6z" fill="url(#a)"/><path d="m-40.367806 47.81453c.0168-.0252.028-6.231792.028-13.972644 0-7.756-.0112-14-.028-14h-27.945288c-.000056 0 .000028.028 0 .028l27.945288 27.945316z" fill="#212323"/></g></svg>