<svg height="128" width="128" xmlns="http://www.w3.org/2000/svg" xmlns:xlink="http://www.w3.org/1999/xlink"><linearGradient id="a" gradientUnits="userSpaceOnUse" x1="16" x2="32" y1="15.999974" y2="31.999973"><stop offset="0" stop-color="#383e51"/><stop offset="1" stop-color="#655c6f" stop-opacity="0"/></linearGradient><linearGradient id="b" gradientUnits="userSpaceOnUse" x1="24.999998" x2="24.999998" y1="32" y2="19"><stop offset="0" stop-color="#a0aab4"/><stop offset="1" stop-color="#d8dce0"/></linearGradient><linearGradient id="c" gradientTransform="matrix(.7272726 0 0 .68965569 .72726 1.93103)" gradientUnits="userSpaceOnUse" x1="560.78583" x2="560.78583" y1="785.70648" y2="727.70654"><stop offset="0" stop-color="#6c7a89"/><stop offset="1" stop-color="#768492"/></linearGradient><g transform="matrix(2.8 0 0 2.8 -1080 -1402.6344)"><path d="m392.5812 503.798c-.006 0-.01 3.56799-.01 8v24c0 4.432.004 8 .01 8h21.80273 10.17773c.006 0 .01-3.568.01-8v-1.65625-18.34375l-12-12z" fill="url(#c)"/><path d="m392.57144 542.79797h31.999989v.999993h-31.999989z" fill="#2e3132" fill-opacity=".294118"/><path d="m424.56166 513.78823c.006-.009.01-2.22564.01-4.99023 0-2.77-.004-5-.01-5h-9.98046c-.00002 0 .00001.01 0 .01l9.98046 9.98047z" fill="#59646f"/><path d="m32 19-1 2v-1h-7l-4 7h-1l-1-2h-2l5 5h-5l14 14h9.990234c.006 0 .009766-3.568.009766-8v-1.65625-7.34375z" fill="url(#a)" fill-rule="evenodd" opacity=".2" transform="translate(384.57143 499.798)"/><path d="m32 19.005859-8 .0039-4.441406 7.691406-1.554688-2.695313h-.0039-2v1h1.427734l2.132813 3.69336.576172-.998047 4.443359-7.695313h6.419922v1h1v-2zm-5 3.003907c-1.662 0-3 1.338-3 3s1.338 3 3 3c.7733 0 1.46913-.298191 2-.775391v.775391h1v-3-3h-1v.77539c-.53087-.4772-1.2267-.77539-2-.77539zm0 1c1.108 0 2 .892 2 2s-.892 2-2 2-2-.892-2-2 .892-2 2-2zm-10.990234 5.990234c-.005711 0-.009766.223-.009766.5s.0041.5.0098.5h15.980468c.005677 0 .009732-.223.009732-.5s-.004055-.5-.009766-.5zm7 2c-.005711 0-.009766.223007-.009766.5s.0041.5.0098.5h1.980468c.005677 0 .009732-.223007.009732-.5s-.004055-.5-.009766-.5z" fill="url(#b)" transform="translate(384.57143 499.798)"/></g></svg>