<svg height="32" width="32" xmlns="http://www.w3.org/2000/svg" xmlns:xlink="http://www.w3.org/1999/xlink"><linearGradient id="a" gradientTransform="matrix(1 0 0 -1 0 1063.596)" gradientUnits="userSpaceOnUse" x1="407.57144" x2="407.57144" y1="524.79797" y2="517.79797"><stop offset="0" stop-color="#7be57b"/><stop offset="1" stop-color="#9dec9d"/></linearGradient><linearGradient id="b" gradientTransform="matrix(.49999977 0 0 -.48275841 384.57144 547.24626)" gradientUnits="userSpaceOnUse" x1="400.57144" x2="400.57144" y1="545.79797" y2="517.79797"><stop offset="0" stop-color="#26c226"/><stop offset="1" stop-color="#3fc33f"/></linearGradient><linearGradient id="c" gradientTransform="matrix(0 -.48275841 -.48275841 0 419.53694 550.86696)" gradientUnits="userSpaceOnUse" x1="54" x2="39.500008" y1="31" y2="16.500048"><stop offset="0" stop-color="#383e51"/><stop offset="1" stop-color="#655c6f" stop-opacity="0"/></linearGradient><g transform="translate(-384.57143 -515.798)"><path d="m389.57144 545.79799v-27.99999h14.99999l7.00003 7-.00003 20.99999z" fill="url(#b)"/><path d="m389.57145 545.79797h21.99998v-.99997h-21.99998z" fill="#2e3132" fill-opacity=".294118" stroke-width="1.21106"/><path d="m389.57144 518.798h14.99999v-1.00003h-14.99999z" fill="#fff" fill-opacity=".409836" stroke-width=".825723"/><path d="m411.5714 531.798-6.99997-7h7z" fill="url(#c)" fill-rule="evenodd" opacity=".2"/><path d="m411.57144 524.798-7.00001-7v7z" fill="url(#a)" fill-rule="evenodd" opacity=".5"/><path d="m394.57143 526.798v1 10 1h1 11v-1-11h-11zm1 1h10v2h-10zm0 3h2v3h-2zm3 0h4v3h-4zm5 0h2v3h-2zm-8 4h2v3h-2zm3 0h4v3h-4zm5 0h2v3h-2z" fill="#e8faf3"/></g></svg>