<svg height="32" width="32" xmlns="http://www.w3.org/2000/svg" xmlns:xlink="http://www.w3.org/1999/xlink"><linearGradient id="a" gradientTransform="matrix(1 0 0 -1 357.57142 555.79793)" gradientUnits="userSpaceOnUse" x1="47" x2="54" y1="17" y2="24"><stop offset="0" stop-color="#060606"/><stop offset="1" stop-opacity="0"/></linearGradient><linearGradient id="b" gradientTransform="matrix(0 .48275841 -.48275841 0 419.53694 512.72901)" gradientUnits="userSpaceOnUse" x1="54" x2="39.500008" y1="31" y2="16.500048"><stop offset="0" stop-color="#383e51"/><stop offset="1" stop-color="#655c6f" stop-opacity="0"/></linearGradient><g transform="matrix(1 0 0 -1 -384.57143 547.79797)"><path d="m389.57144 517.79801v27.99999h14.99999l7.00003-7-.00003-14.24137v-6.75862h-7z" fill="#662d0e"/><g transform="matrix(1 0 0 -1 .001423 1063.598)"><use fill="#662d0e" height="100%" width="100%" xlink:href="#b"/><g fill="#fff"><path d="m391.57 517.8v1.998h-1.998v1h1.998v2h-1.998v1h1.998v2h-1.998v1h1.998v2h-1.998v1h1.998v2h-1.998v1h1.998v2h-1.998v1h1.998v2h-1.998v1h1.998v2h-1.998v1h1.998v2h-1.998v1h1.998v1h1v-1h2v1h1v-1h2v1h1v-1h2v1h1v-1h2v1h1v-1h2v1h1v-1h2v1h1v-1h1v-1h-1v-2h1v-1h-1v-2h1v-1h-1v-2h1v-1h-1v-2h1v-1h-1v-2h1v-1h-1v-2h1v-1h-1v-2l-1-1h-2v-2l-1-1h-2v-1.998h-1v1.998h-2v-1.998h-1v1.998h-2v-1.998h-1v1.998h-2v-1.998h-1v1.998h-2v-1.998zm1 2.998h2v2h-2zm3 0h2v2h-2zm3 0h2v2h-2zm3 0h2v2h-2zm3 0h2v2h-2zm-12 3h2v2h-2zm3 0h2v2h-2zm3 0h2v2h-2zm3 0h2v2h-2zm3 0h2v2h-2zm3 0h2v2h-2zm-15 3h2v2h-2zm3 0h2v2h-2zm3 0h2v2h-2zm3 0h2v2h-2zm3 0h2v2h-2zm3 0h2v2h-2zm-15 3h2v2h-2zm3 0h2v2h-2zm3 0h2v2h-2zm3 0h2v2h-2zm3 0h2v2h-2zm3 0h2v2h-2zm-15 3h2v2h-2zm3 0h2v2h-2zm3 0h2v2h-2zm3 0h2v2h-2zm3 0h2v2h-2zm3 0h2v2h-2zm-15 3h2v2h-2zm3 0h2v2h-2zm3 0h2v2h-2zm3 0h2v2h-2zm3 0h2v2h-2zm3 0h2v2h-2zm-15 3h2v2h-2v-1zm3 0h2v2h-2v-1zm3 0h2v2h-2v-1zm3 0h2v2h-2v-1zm3 0h2v2h-2v-1zm3 0h2v2h-2v-1zm-15 3h2v2h-2v-1zm3 0h2v2h-2v-1zm3 0h2v2h-2v-1zm3 0h2v2h-2v-1zm3 0h2v2h-2v-1zm3 0h2v2h-2v-1z" opacity=".1"/><path d="m389.57001-518.79999h15v1h-15z" opacity=".5" transform="scale(1 -1)"/></g><path d="m389.57001-545.79999h22v1h-22z" opacity=".25" transform="scale(1 -1)"/></g><g fill-rule="evenodd"><path d="m411.57144 538.798-7.00001 7v-7z" fill="#ee9463"/><path d="m411.5714 531.79797-6.99997 7h7z" fill="url(#b)" opacity=".2"/><path d="m404.57142 538.79793 7-7v7z" fill="url(#a)" opacity=".2"/></g><path d="m394.57143 537.79797v-2h-1v-11h14v11h-1v2zm1-1h10v-1h-10zm-1-2h12v-9h-12zm7-1v-3h3c0 1.65685-1.34315 3-3 3zm-1-1c-1.65685 0-3-1.34315-3-3s1.34315-3 3-3 3 1.34315 3 3h-3z" fill="#ee9463" opacity=".9"/></g></svg>