<svg height="96" width="96" xmlns="http://www.w3.org/2000/svg" xmlns:xlink="http://www.w3.org/1999/xlink"><linearGradient id="a" gradientUnits="userSpaceOnUse" x1="47" x2="47" y1="61" y2="47"><stop offset="0" stop-color="#bdc3c7"/><stop offset="1" stop-color="#dadfe1"/></linearGradient><linearGradient id="b" gradientTransform="matrix(1 0 0 -1 -14 78)" gradientUnits="userSpaceOnUse" x1="54" x2="40" y1="31" y2="17"><stop offset="0" stop-color="#383e51"/><stop offset="1" stop-color="#655c6f" stop-opacity="0"/></linearGradient><linearGradient id="c" gradientUnits="userSpaceOnUse" x1="32" x2="32" y1="61" y2="3"><stop offset="0" stop-color="#6c7a89"/><stop offset="1" stop-color="#768492"/></linearGradient><g transform="matrix(1.3636364 0 0 1.3793103 4.363636 3.86207)"><path d="m10 3v58h30l14-14v-30-14h-14z" fill="url(#c)"/><path d="m10 60h30v1h-30z" fill="#2e3132" fill-opacity=".294118"/><path d="m10 3h44v1h-44z" fill="#fff" fill-opacity=".409836"/><path d="m54 47-14 14v-14z" fill="url(#a)" fill-rule="evenodd"/><path d="m26 61 14-14v14z" fill="url(#b)" fill-rule="evenodd" opacity=".2"/><path d="m21 21v22h22v-22zm1 1h20v4h-20zm0 5h5v3h-5zm6 0h8v3h-8zm9 0h5v3h-5zm-15 4h5v3h-5zm6 0h8v3h-8zm9 0h5v3h-5zm-15 4h5v3h-5zm6 0h8v3h-8zm9 0h5v3h-5zm-15 4h5v3h-5zm6 0h8v3h-8zm9 0h5v3h-5z" fill="#d5dadc"/></g></svg>