<?xml version="1.0" encoding="UTF-8" standalone="no"?>
<!-- Created with Inkscape (http://www.inkscape.org/) -->

<svg
   xmlns:dc="http://purl.org/dc/elements/1.1/"
   xmlns:cc="http://creativecommons.org/ns#"
   xmlns:rdf="http://www.w3.org/1999/02/22-rdf-syntax-ns#"
   xmlns:svg="http://www.w3.org/2000/svg"
   xmlns="http://www.w3.org/2000/svg"
   xmlns:sodipodi="http://sodipodi.sourceforge.net/DTD/sodipodi-0.dtd"
   xmlns:inkscape="http://www.inkscape.org/namespaces/inkscape"
   width="48"
   height="48"
   id="svg3013"
   version="1.1"
   inkscape:version="0.48.4 r9939"
   sodipodi:docname="odb_32_8.svg">
  <defs
     id="defs3015" />
  <sodipodi:namedview
     id="base"
     pagecolor="#ffffff"
     bordercolor="#666666"
     borderopacity="1.0"
     inkscape:pageopacity="0.0"
     inkscape:pageshadow="2"
     inkscape:zoom="22.4"
     inkscape:cx="24.345636"
     inkscape:cy="22.864413"
     inkscape:document-units="px"
     inkscape:current-layer="layer1"
     showgrid="true"
     inkscape:window-width="1868"
     inkscape:window-height="1060"
     inkscape:window-x="50"
     inkscape:window-y="-3"
     inkscape:window-maximized="1"
     inkscape:snap-bbox="true">
    <inkscape:grid
       type="xygrid"
       id="grid3030"
       empspacing="5"
       visible="true"
       enabled="true"
       snapvisiblegridlinesonly="true" />
  </sodipodi:namedview>
  <metadata
     id="metadata3018">
    <rdf:RDF>
      <cc:Work
         rdf:about="">
        <dc:format>image/svg+xml</dc:format>
        <dc:type
           rdf:resource="http://purl.org/dc/dcmitype/StillImage" />
        <dc:title></dc:title>
      </cc:Work>
    </rdf:RDF>
  </metadata>
  <g
     inkscape:label="Layer 1"
     inkscape:groupmode="layer"
     id="layer1"
     transform="translate(0,-1004.3622)">
    <rect
       style="fill:#8e44ad;fill-opacity:1;stroke:none"
       id="rect4035"
       width="0"
       height="14.666643"
       x="5.333333"
       y="1033.6956" />
    <path
       style="color:#000000;fill:#8e44ad;fill-opacity:1;fill-rule:nonzero;stroke:none;stroke-width:2;marker:none;visibility:visible;display:inline;overflow:visible;enable-background:accumulate"
       d="M 24 6 C 14.058875 6 6 8.6863 6 12 L 6 20 L 6 28 L 6 36 C 6 39.3137 14.058875 42 24 42 C 33.941125 42 42 39.3137 42 36 L 42 28 L 42 20 L 42 12 C 42 8.6863 33.941125 6 24 6 z M 24 9 C 32.284271 9 39 10.3431 39 12 C 39 13.6569 32.284271 15 24 15 C 15.715729 15 9 13.6569 9 12 C 9 10.3431 15.715729 9 24 9 z M 9 15.3125 C 12.225625 16.927464 17.743077 18 24 18 C 30.256923 18 35.774375 16.927464 39 15.3125 L 39 20 C 39 21.6569 32.284271 23 24 23 C 15.715729 23 9 21.6569 9 20 L 9 15.3125 z M 9 23.3125 C 12.225625 24.927464 17.743077 26 24 26 C 30.256923 26 35.774375 24.927464 39 23.3125 L 39 28 C 39 29.6569 32.284271 31 24 31 C 15.715729 31 9 29.6569 9 28 L 9 23.3125 z M 9 31.3125 C 12.225625 32.927464 17.743077 34 24 34 C 30.256923 34 35.774375 32.927464 39 31.3125 L 39 36 C 39 37.6569 32.284271 39 24 39 C 15.715729 39 9 37.6569 9 36 L 9 31.3125 z "
       transform="translate(0,1004.3622)"
       id="path2985" />
  </g>
</svg>
