<svg xmlns="http://www.w3.org/2000/svg" viewBox="0 0 48 48">
 <path 
     style="fill:#04896a" 
     d="M 12 6 C 8.6862915 6 6 8.6864 6 12 C 6 15.3137 8.6862915 18 12 18 C 13.205705 18 14.340849 17.627625 15.28125 17.015625 C 16.799721 19.523925 17.520148 21.74395 17.53125 23.90625 C 17.54239 26.08105 16.793571 28.3542 15.234375 30.9375 C 14.304846 30.3462 13.183279 30 12 30 C 8.6862915 30 6 32.6864 6 36 C 6 39.3136 8.6862915 42 12 42 C 14.218812 42 16.118123 40.7907 17.15625 39 L 33 39 L 33 42 L 42 42 L 42 33 L 33 33 L 33 36 L 18 36 C 18 35.0384 17.745908 34.133825 17.34375 33.328125 C 19.448583 30.078525 20.547231 27.01865 20.53125 23.90625 C 20.51547 20.83365 19.387298 17.85285 17.34375 14.71875 C 17.757354 13.90405 18 12.9762 18 12 L 30 12 L 30 18 L 42 18 L 42 6 L 30 6 L 30 9 L 17.15625 9 C 16.118123 7.2093 14.218812 6 12 6 z M 12 9 C 13.465586 9 14.690951 10.0481 14.953125 11.4375 C 14.987335 11.6188 15 11.8087 15 12 C 15 12.2681 14.97197 12.5039 14.90625 12.75 C 14.84053 12.9961 14.747885 13.236825 14.625 13.453125 C 14.61487 13.471125 14.588625 13.482 14.578125 13.5 C 14.334262 13.9082 13.998826 14.27745 13.59375 14.53125 C 13.132587 14.82025 12.584385 15 12 15 C 10.343146 15 9 13.6569 9 12 C 9 10.3431 10.343146 9 12 9 z M 33 9 L 39 9 L 39 15 L 33 15 L 33 9 z M 12 33 C 13.656855 33 15 34.3431 15 36 C 15 37.6569 13.656855 39 12 39 C 10.343146 39 9 37.6569 9 36 C 9 34.3431 10.343146 33 12 33 z M 36 36 L 39 36 L 39 39 L 36 39 L 36 36 z "
     />
 </svg>
