<svg height="96" width="96" xmlns="http://www.w3.org/2000/svg" xmlns:xlink="http://www.w3.org/1999/xlink"><linearGradient id="a" gradientTransform="matrix(1.3636364 0 0 1.3793103 4.363636 960.22427)" gradientUnits="userSpaceOnUse" x1="47" x2="47" y1="61" y2="47"><stop offset="0" stop-color="#f7ab89"/><stop offset="1" stop-color="#fbd2bf"/></linearGradient><linearGradient id="b" gradientTransform="matrix(1.3636364 0 0 -1.3793103 -14.727273 1067.8105)" gradientUnits="userSpaceOnUse" x1="54" x2="40" y1="31" y2="17"><stop offset="0" stop-color="#383e51"/><stop offset="1" stop-color="#655c6f" stop-opacity="0"/></linearGradient><linearGradient id="c" gradientTransform="matrix(1.3636364 0 0 1.3793103 4.363636 960.22427)" gradientUnits="userSpaceOnUse" x1="32" x2="32" y1="61" y2="3"><stop offset="0" stop-color="#f27935"/><stop offset="1" stop-color="#f2784b"/></linearGradient><g transform="translate(0 -956.3622)"><path d="m18 964.3622v80h40.909092l19.09091-19.3103v-41.37935-19.31035h-19.09091z" fill="url(#c)"/><path d="m18 1042.9829h40.909092v1.37931h-40.909092z" fill="#2e3132" fill-opacity=".294118"/><path d="m18 964.36218h60v1.37931h-60z" fill="#fff" fill-opacity=".409836"/><path d="m78.000002 1025.0519-19.09091 19.3103v-19.3103z" fill="url(#a)" fill-rule="evenodd"/><path d="m39.818183 1044.3622 19.090909-19.3103v19.3103z" fill="url(#b)" fill-rule="evenodd" opacity=".2"/><path d="m30.272728 989.18979v1.37931 24.8276h1.363636 13.636364v2.7586h-4.090909v1.3793h4.090909 5.454546 4.090909v-1.3793h-4.090909v-2.7586h15v-2.7586-23.44831zm1.363636 1.37931h32.727274v22.069h-32.727274zm13.636364 5.51724v11.03446l6.818182-5.5172z" fill="#f7ab89"/></g></svg>