<svg xmlns="http://www.w3.org/2000/svg" viewBox="0 0 16 16">
 <path 
     style="fill:#f62459" 
     d="M 2 2 L 2 10.992188 L 1 11.992188 L 1 12 L 2 12 L 2 14 L 14 14 L 14 11.001953 L 15 11.001953 L 15 10.992188 L 14 9.9921875 L 14 2 L 2 2 z M 3 3 L 13 3 L 13 8.9921875 L 9.0058594 5 L 9 5 L 9 5.0019531 L 8.9941406 5.0019531 L 6.4980469 7.4941406 L 6.0039062 7 L 6 7 L 5.9960938 7 L 3 9.9941406 L 3 3 z M 5 4 C 4.446 4 4 4.446 4 5 C 4 5.554 4.446 6 5 6 C 5.554 6 6 5.554 6 5 C 6 4.446 5.554 4 5 4 z M 9 6.4101562 L 13 10.408203 L 13 11 L 10.007812 11 L 7.2070312 8.203125 L 9 6.4101562 z M 6 8.4101562 L 6.5 8.9101562 L 8.5898438 11 L 3.4082031 11 L 6 8.4101562 z M 3 12 L 9.5898438 12 L 9.5917969 12.001953 L 11 12.001953 L 11 12 L 13 12 L 13 13 L 3 13 L 3 12 z "
     />
 </svg>
