<svg viewBox="0 0 16 16" xmlns="http://www.w3.org/2000/svg" xmlns:xlink="http://www.w3.org/1999/xlink"><linearGradient id="a" gradientUnits="userSpaceOnUse" x1="13.989983" x2="13.989983" y1="11.025019" y2="18.025106"><stop offset="0" stop-color="#ffa154"/><stop offset="1" stop-color="#f37329"/></linearGradient><linearGradient id="b" gradientUnits="userSpaceOnUse" x1="12.989969" x2="12.989969" y1="13.025044" y2="16.025082"><stop offset="0" stop-color="#fff"/><stop offset="0" stop-color="#fff" stop-opacity=".23529"/><stop offset="1" stop-color="#fff" stop-opacity=".15686"/><stop offset="1" stop-color="#fff" stop-opacity=".39216"/></linearGradient><linearGradient id="c" gradientTransform="matrix(1.3832 0 0 1.4144 -11.892 21.511)" gradientUnits="userSpaceOnUse" x1="25.224882" x2="25.224882" y1="-6.703209" y2="-2.107563"><stop offset="0" stop-color="#9bdb4d"/><stop offset="1" stop-color="#68b723"/></linearGradient><linearGradient id="d" gradientUnits="userSpaceOnUse" x1="21.999044" x2="21.999044" y1="14.030005" y2="17.030043"><stop offset="0" stop-color="#fff"/><stop offset=".00000011" stop-color="#fff" stop-opacity=".23529"/><stop offset="1" stop-color="#fff" stop-opacity=".15686"/><stop offset="1" stop-color="#fff" stop-opacity=".39216"/></linearGradient><linearGradient id="e" gradientUnits="userSpaceOnUse" x1="14" x2="6" y1="8" y2="16"><stop offset="0" stop-color="#fff"/><stop offset=".125" stop-color="#fff" stop-opacity="0"/><stop offset="1" stop-color="#fff" stop-opacity="0"/></linearGradient><clipPath id="f"><path d="m8 2.6855469v14.0000001l3.132812-3.820313 2.066407 4.986328a1.0001 1.0001 0 1 0 1.847656-.765624l-2.111328-5.095704 4.378906.009766z"/></clipPath><linearGradient id="g" gradientUnits="userSpaceOnUse" x1="9.978495" x2="9.978495" y1="13.912886" y2="-5.872059"><stop offset="0"/><stop offset="1" stop-color="#333"/></linearGradient><g transform="matrix(.9999874 0 0 .9999874 -10.998767 -12.029829)"><rect fill="url(#c)" height="6.000075" rx="1" width="9.000114" x="17.498987" y="12.529987"/><g fill="none" stroke-linecap="round" stroke-linejoin="round"><path d="m18.499 13.529999h7.000088l-.002 3.936029h-7.000088z" opacity=".5" stroke="url(#d)"/><rect height="6.000077" opacity=".5" rx=".86555" ry=".59664" stroke="#0f5a00" width="9.000113" x="17.498987" y="12.529987"/></g></g><g transform="matrix(.9999874 0 0 .9999874 -10.989806 -6.02488)"><rect fill="url(#a)" height="6.000075" rx="1" width="8.000101" x="12.489964" y="11.525025"/><g fill="none" stroke-linecap="round" stroke-linejoin="round"><path d="m13.489976 12.525038 6.000076-.03201-.000002 4.00005-6.000074.03201z" opacity=".5" stroke="url(#b)"/><rect height="6.000075" opacity=".5" rx=".78992" ry=".51261" stroke="#cc3b02" width="8.000101" x="12.489964" y="11.525025"/></g></g><g transform="matrix(.69327406 0 0 .69327406 4.147082 6)"><path d="m8.1884834 1.6672989v10.9999991l2.5652276-2.9424834 2.044188 3.7280744c.494727 1.242916 2.142881-.74317 1.613492-1.971723l-1.874329-2.6219434 3.117524-.2046366z" fill-rule="evenodd" opacity=".05" stroke="#000" stroke-linejoin="round" stroke-width="4.327293"/><path d="m8.1884834 1.6672989v10.9999991l2.5652276-2.9424834 2.044188 3.7280744c.494727 1.242916 2.142881-.74317 1.613492-1.971723l-1.874329-2.6219434 3.117524-.2046366z" fill-rule="evenodd" opacity=".2" stroke="#000" stroke-linejoin="round" stroke-width="2"/><path d="m7 0v11l2.5652277-2.9424843 2.0441883 3.7280743c.494704 1.24297 2.357232.471184 1.827788-.757391l-2.088625-3.8362743 3.117523-.2046366z" fill="none" stroke="#fff" stroke-width="2.884862"/><path clip-path="url(#f)" d="m6.9891304 6.9358866v11.1195654l2.59311-2.974467 2.0664066 3.768597c.500102 1.256433 2.382807.476286 1.847656-.765624l-2.111328-3.877973 3.151411-.206867z" fill="none" opacity=".4" stroke="url(#e)" stroke-width="2.916219" transform="matrix(.98924729 0 0 .98924729 .086022 -6.861307)"/><path d="m7 0v11l2.5652277-2.9424843 2.0441883 3.7280743c.494704 1.24297 2.357232.471184 1.827788-.757391l-2.088625-3.8362743 3.651421-.1919247z" fill="url(#g)" fill-rule="evenodd"/></g></svg>