<svg height="54" width="68" xmlns="http://www.w3.org/2000/svg" xmlns:xlink="http://www.w3.org/1999/xlink"><linearGradient id="a" gradientUnits="userSpaceOnUse" x1="35" x2="35" y1="3.000027" y2="49.999927"><stop offset="0" stop-color="#fff"/><stop offset="1" stop-color="#ededed"/></linearGradient><radialGradient id="b" cx="605.71429" cy="486.64789" gradientTransform="matrix(.01204859 0 0 .00823529 56.738793 45.980566)" gradientUnits="userSpaceOnUse" r="117.14286" xlink:href="#c"/><linearGradient id="c"><stop offset="0"/><stop offset="1" stop-opacity="0"/></linearGradient><radialGradient id="d" cx="605.71429" cy="486.64789" gradientTransform="matrix(-.01204859 0 0 .00823529 10.761206 45.980566)" gradientUnits="userSpaceOnUse" r="117.14286" xlink:href="#c"/><linearGradient id="e" gradientTransform="matrix(.12516646 0 0 .00823529 -11.519975 45.980566)" gradientUnits="userSpaceOnUse" x1="302.85715" x2="302.85715" y1="366.64789" y2="609.50507"><stop offset="0" stop-opacity="0"/><stop offset=".5"/><stop offset="1" stop-opacity="0"/></linearGradient><path d="m3.5 48.999984h60.5v1.999964h-60.5z" fill="url(#e)" opacity=".15"/><path d="m3.5 49.000093v1.999855c-.6204724 0-1.4999999-.448036-1.4999999-1.000037 0-.552.6924-.999818 1.4999999-.999818z" fill="url(#d)" opacity=".15"/><path d="m64 49.000093v1.999855c.620472 0 1.5-.448036 1.5-1.000037 0-.552-.692403-.999818-1.5-.999818z" fill="url(#b)" opacity=".15"/><path d="m3 2.9999h61v47h-61z" fill="url(#a)"/><path d="m54.5 46h-4.5v-19.5-19.5h4.5 4.5v19.5 19.5zm0-1h3.5v-18.5-18.5h-3.5-3.5v18.5 18.5z" opacity=".15"/><path d="m4 2.9999c-.55403 0-1 .44597-1 1v45c0 .55403.44597 1 1 1h59c .55403 0 1-.44597 1-1v-45c0-.55403-.44597-1-1-1h-59zm0 1h59v45h-59v-45z" opacity=".4"/><path d="m4 3.9999v45h59v-45h-59zm1 1h57v43h-57z" fill="#fff"/><path d="m10-56h33v3h-33z" fill="#729fcf" transform="rotate(90)"/><path d="m45 25v-1h-18-18v1h18z" opacity=".15"/><path d="m9 28v1h18 18v-1h-18z" opacity=".15"/><path d="m46 28h-1v1 8 8h-18-18v-8-8-1h-1v9 9h19 19v-9z" opacity=".15"/><path d="m8 7v9 9h1v-1-8-8h18 18v8 8 1h1v-9-9h-19z" opacity=".15"/></svg>