<svg height="32" width="32" xmlns="http://www.w3.org/2000/svg" xmlns:xlink="http://www.w3.org/1999/xlink"><linearGradient id="a" gradientTransform="matrix(.93366733 0 0 .93268006 -573.98076 151.34913)" gradientUnits="userSpaceOnUse" x1="641" x2="641.4115" y1="-143.5" y2="-127.95408"><stop offset="0" stop-color="#64baff"/><stop offset="1" stop-color="#3689e6"/></linearGradient><linearGradient id="b" gradientTransform="matrix(.93366733 0 0 .93268006 -573.98076 151.34913)" gradientUnits="userSpaceOnUse" x1="640.81403" x2="640.81403" y1="-142.718" y2="-129.33"><stop offset="0" stop-color="#fff"/><stop offset=".508" stop-color="#fff" stop-opacity=".235"/><stop offset=".835" stop-color="#fff" stop-opacity=".157"/><stop offset="1" stop-color="#fff" stop-opacity=".392"/></linearGradient><linearGradient id="c"><stop offset="0"/><stop offset="1" stop-opacity="0"/></linearGradient><linearGradient id="d" xlink:href="#c"/><linearGradient id="e" gradientTransform="matrix(.56757 0 0 .72973 2.378 -2.514)" gradientUnits="userSpaceOnUse" x1="24" x2="24" y1="5.564" y2="43"><stop offset="0" stop-color="#fff"/><stop offset=".036" stop-color="#fff" stop-opacity=".235"/><stop offset=".951" stop-color="#fff" stop-opacity=".157"/><stop offset="1" stop-color="#fff" stop-opacity=".392"/></linearGradient><linearGradient id="f" gradientTransform="matrix(.62857 0 0 .6084 .914 -.535)" gradientUnits="userSpaceOnUse" x1="25.132" x2="25.132" y1=".985" y2="47.013"><stop offset="0" stop-color="#f4f4f4"/><stop offset="1" stop-color="#dbdbdb"/></linearGradient><radialGradient id="g" cx="605.714" cy="486.648" gradientTransform="matrix(.01566 0 0 .00824 17.61 25.98)" gradientUnits="userSpaceOnUse" r="117.143" xlink:href="#d"/><radialGradient id="h" cx="605.714" cy="486.648" gradientTransform="matrix(-.01566 0 0 .00824 14.39 25.98)" gradientUnits="userSpaceOnUse" r="117.143" xlink:href="#d"/><linearGradient id="i" gradientTransform="matrix(.04577 0 0 .00824 -.542 25.98)" gradientUnits="userSpaceOnUse" x1="302.857" x2="302.857" y1="366.648" y2="609.505"><stop offset="0" stop-opacity="0"/><stop offset=".5"/><stop offset="1" stop-opacity="0"/></linearGradient><linearGradient id="j" gradientTransform="matrix(.53064 0 0 .5897 39.27 -1.792)" gradientUnits="userSpaceOnUse" x1="-51.786" x2="-51.786" y1="50.786" y2="2.906"><stop offset="0" stop-opacity=".318"/><stop offset="1" stop-opacity=".24"/></linearGradient><radialGradient id="k" cx="24.837" cy="36.421" gradientTransform="matrix(.80967 0 0 .21306 -4.11 18.902)" gradientUnits="userSpaceOnUse" r="15.645" xlink:href="#c"/><path d="m4.95 29h22.1v2h-22.1z" fill="url(#i)" opacity=".15"/><path d="m4.95 29v2c-.807.004-1.95-.448-1.95-1s.9-1 1.95-1z" fill="url(#h)" opacity=".15"/><path d="m27.05 29v2c.807.004 1.95-.448 1.95-1s-.9-1-1.95-1z" fill="url(#g)" opacity=".15"/><path d="m5 1 22 .002v27.998h-22z" fill="url(#f)"/><path d="m26.5 28.5h-21v-27h21z" fill="none" stroke="url(#e)" stroke-linecap="round" stroke-linejoin="round"/><path d="m4.5.5 23 .002v28.998h-23z" fill="none" stroke="url(#j)" stroke-linejoin="round"/><path d="m7 4h3v1h-3zm4 0h3v1h-3zm4 0h3v1h-3zm4 0h2v1h-2zm-12 3h4v1h-4zm5 0h4v1h-4z" fill="#aaa"/><path d="m17 7h2v1h-2z" fill="#e20000"/><path d="m20 7h5v1h-5zm-13 3h2v1h-2z" fill="#aaa"/><path d="m10 10h8v1h-8z" fill="#e20000"/><path d="m7 14h5v1h-5z" fill="#aaa"/><path d="m13 14h8v1h-8z" fill="#e20000"/><path d="m25 14h-3v1h3zm-15 3h-3v1h3z" fill="#aaa"/><path d="m13 17h-2v1h2z" fill="#e20000"/><path d="m14 17h5v1h-5zm10 0h-4v1h4zm-17 4h5v1h-5zm6 0h8v1h-8zm12 0h-3v1h3zm-12 3h-6v1h6zm1 0h2v1h-2zm9 0h-6v1h6z" fill="#aaa"/><path d="m28.667 26.662a12.667 3.333 0 1 1 -25.334 0 12.667 3.333 0 1 1 25.334 0z" fill="url(#k)" fill-rule="evenodd" opacity=".205" transform="matrix(.786 0 0 .786 9.895 10.03)"/><g transform="translate(-.002505 .00026)"><path d="m24.5 17.509539c-3.863515 0-7.002505 3.13567-7.002505 6.995101 0 3.85943 3.13899 6.9951 7.002505 6.9951s7.002505-3.13567 7.002505-6.9951c0-3.859431-3.13899-6.995101-7.002505-6.995101z" fill="url(#a)" stroke="#002e99" stroke-linecap="round" stroke-linejoin="round" stroke-opacity=".737255"/><path d="m30.568838 24.50464c0 3.348321-2.716972 6.06242-6.068838 6.06242s-6.068838-2.714099-6.068838-6.06242c0-3.348322 2.716972-6.062421 6.068838-6.062421s6.068838 2.714099 6.068838 6.062421z" fill="none" opacity=".5" stroke="url(#b)" stroke-linecap="round" stroke-linejoin="round"/><path d="m28.436348 19.288324a1.9053397 1.9033041 0 0 0 -.08753.08753l-3.910426 4.254446-1.400506-1.39847a1.9053397 1.9033041 0 0 0 -2.683964 0l-1.867681 1.865645a1.9053397 1.9033041 0 0 0 -.496691.814248 1.9053397 1.9033041 0 0 0 0 .06107c.03868.541475.129262 1.074807.292111 1.572516a1.9053397 1.9033041 0 0 0 .350127.378625l4.667675 3.731291a1.9053397 1.9033041 0 0 0 .671754.349108c.02036.002.03868 0 .05802 0a1.9053397 1.9033041 0 0 0 .118066.03054c.116031.0051.232061 0 .350127 0 .166921 0 .331806-.0173.495673-.03054a1.9053397 1.9033041 0 0 0 .905851-.553688l5.104315-5.479887c.01018-.154707.03053-.309414.03053-.466157 0-2.125187-1.023917-4.025437-2.597451-5.217292z" fill="#002e99" opacity=".1" stroke-width="1.01781"/><path d="m29.194617 19.988577a.8854944.8854944 0 0 0 -.08753.057l-4.641212 5.071745-2.157757-2.157756a.8854944.8854944 0 0 0 -1.225442 0l-1.867681 1.865645a.8854944.8854944 0 0 0 .05903 1.310939l4.668693 3.732308a.8854944.8854944 0 0 0 1.195926-.08753l5.806604-6.23612c-.203562-1.374043-.829515-2.601521-1.750632-3.556227z" fill="#002e99" opacity=".25"/><path d="m29.752376 20.657278-5.251898 5.712966-2.801012-2.798977-1.866663 1.865645 4.668693 3.731291 6.214746-6.676832z" fill="#fff" stroke-width="1.01781"/></g><g transform="translate(-15.002505 .00026)"><path d="m24.5 17.509539c-3.863515 0-7.002505 3.13567-7.002505 6.995101 0 3.85943 3.13899 6.9951 7.002505 6.9951s7.002505-3.13567 7.002505-6.9951c0-3.859431-3.13899-6.995101-7.002505-6.995101z" fill="url(#a)" stroke="#002e99" stroke-linecap="round" stroke-linejoin="round" stroke-opacity=".737255"/><path d="m30.568838 24.50464c0 3.348321-2.716972 6.06242-6.068838 6.06242s-6.068838-2.714099-6.068838-6.06242c0-3.348322 2.716972-6.062421 6.068838-6.062421s6.068838 2.714099 6.068838 6.062421z" fill="none" opacity=".5" stroke="url(#b)" stroke-linecap="round" stroke-linejoin="round"/><path d="m28.436348 19.288324a1.9053397 1.9033041 0 0 0 -.08753.08753l-3.910426 4.254446-1.400506-1.39847a1.9053397 1.9033041 0 0 0 -2.683964 0l-1.867681 1.865645a1.9053397 1.9033041 0 0 0 -.496691.814248 1.9053397 1.9033041 0 0 0 0 .06107c.03868.541475.129262 1.074807.292111 1.572516a1.9053397 1.9033041 0 0 0 .350127.378625l4.667675 3.731291a1.9053397 1.9033041 0 0 0 .671754.349108c.02036.002.03868 0 .05802 0a1.9053397 1.9033041 0 0 0 .118066.03054c.116031.0051.232061 0 .350127 0 .166921 0 .331806-.0173.495673-.03054a1.9053397 1.9033041 0 0 0 .905851-.553688l5.104315-5.479887c.01018-.154707.03053-.309414.03053-.466157 0-2.125187-1.023917-4.025437-2.597451-5.217292z" fill="#002e99" opacity=".1" stroke-width="1.01781"/><path d="m29.194617 19.988577a.8854944.8854944 0 0 0 -.08753.057l-4.641212 5.071745-2.157757-2.157756a.8854944.8854944 0 0 0 -1.225442 0l-1.867681 1.865645a.8854944.8854944 0 0 0 .05903 1.310939l4.668693 3.732308a.8854944.8854944 0 0 0 1.195926-.08753l5.806604-6.23612c-.203562-1.374043-.829515-2.601521-1.750632-3.556227z" fill="#002e99" opacity=".25"/><path d="m29.752376 20.657278-5.251898 5.712966-2.801012-2.798977-1.866663 1.865645 4.668693 3.731291 6.214746-6.676832z" fill="#fff" stroke-width="1.01781"/></g></svg>