<svg height="32" width="32" xmlns="http://www.w3.org/2000/svg" xmlns:xlink="http://www.w3.org/1999/xlink"><linearGradient id="a" gradientTransform="matrix(.26458333 0 0 .28978174 2.38125 290.34761)" gradientUnits="userSpaceOnUse" spreadMethod="reflect" x1="3.5" x2="3.5" y1="8.347812" y2="-5.347841"><stop offset="0" stop-color="#ffa154"/><stop offset=".90909094" stop-color="#ffa154" stop-opacity=".926471"/><stop offset="1" stop-color="#ffa154" stop-opacity="0"/></linearGradient><linearGradient id="b" gradientUnits="userSpaceOnUse" spreadMethod="reflect" x1="3.307292" x2="3.307292" y1="292.76666" y2="288.79791"><stop offset="0" stop-color="#a62100"/><stop offset=".90147907" stop-color="#a62100"/><stop offset="1" stop-color="#a62100" stop-opacity="0"/></linearGradient><linearGradient id="c" gradientTransform="matrix(.56756757 0 0 .72972971 2.378382 -2.513506)" gradientUnits="userSpaceOnUse" x1="23.99999" x2="23.99999" y1="5.56415" y2="43"><stop offset="0" stop-color="#fff"/><stop offset=".00097557" stop-color="#fff" stop-opacity=".235294"/><stop offset="1" stop-color="#fff" stop-opacity=".156863"/><stop offset="1" stop-color="#fff" stop-opacity=".392157"/></linearGradient><linearGradient id="d" gradientTransform="matrix(.53064141 0 0 .58970049 39.269607 -1.791918)" gradientUnits="userSpaceOnUse" x1="-51.786404" x2="-51.786404" y1="50.786446" y2="2.906247"><stop offset="0" stop-opacity=".317829"/><stop offset="1" stop-opacity=".24031"/></linearGradient><linearGradient id="e" gradientTransform="matrix(.62856997 0 0 .60839392 -49.526358 .329616)" gradientUnits="userSpaceOnUse" x1="25.132275" x2="25.132275" y1=".985206" y2="47.013336"><stop offset="0" stop-color="#f4f4f4"/><stop offset="1" stop-color="#dbdbdb"/></linearGradient><linearGradient id="f" gradientUnits="userSpaceOnUse" x1="5.020521" x2="21.020521" xlink:href="#d" y1="6.993177" y2="6.993177"/><linearGradient id="g" gradientTransform="translate(.020521 -.000823)" gradientUnits="userSpaceOnUse" x1="5.020521" x2="29.020521" xlink:href="#d" y1="18.993177" y2="18.993177"/><linearGradient id="h" gradientUnits="userSpaceOnUse" x1="21.020521" x2="4.020521" xlink:href="#e" y1="15.493177" y2="15.493177"/><linearGradient id="i" gradientTransform="translate(.020521 -.000823)" gradientUnits="userSpaceOnUse" x1="29.020521" x2="5.020521" xlink:href="#e" y1="27.993177" y2="27.993177"/><linearGradient id="j" gradientUnits="userSpaceOnUse" x1="486.26559" x2="476.51559" xlink:href="#c" y1="173.25555" y2="173.25555"/><linearGradient id="k" gradientTransform="matrix(-1.33333 0 0 -1.33333 -623.97948 199.99918)" gradientUnits="userSpaceOnUse" x1="-488.2666" x2="-472.50119" xlink:href="#c" y1="133.50545" y2="133.50484"/><g stroke-width=".75" transform="matrix(0 -1 -1 0 31.993177 32.020521)"><g fill="#d3d7cf" stroke="#888a85" stroke-miterlimit="3"><path d="m4.520521 13.493177h16l.003-9h-16.003z" fill="url(#h)" stroke="url(#f)" stroke-linejoin="round" stroke-width=".999997"/><path d="m476.14058 170.63054h10.50003v5.25002h-10.50003z" fill="none" stroke="url(#j)" transform="matrix(1.33333 0 0 -1.33333 -629.332 240)"/></g><path d="m28.520521 26.493177h-24v-9h24z" style="fill-rule:evenodd;stroke-width:.999997;stroke-linejoin:round;stroke-miterlimit:0;fill:url(#i);stroke:url(#g)"/><path d="m27.520521 25.493177h-22v-7l22 .000021z" fill="none" stroke="url(#k)" stroke-linecap="round" stroke-miterlimit="2" stroke-width="1"/><g transform="matrix(3.7795275 0 0 -3.7795275 -7.979479 1122.5128)"><path d="m3.0427083 288.7979h.5291667v7.9375h-.5291667z" fill="url(#a)"/><path d="m3.571875 288.7979v7.9375m-.5291667 0v-7.9375" fill="none" opacity=".5" stroke="url(#b)" stroke-width=".264583"/></g></g></svg>