<svg height="32" width="32" xmlns="http://www.w3.org/2000/svg" xmlns:xlink="http://www.w3.org/1999/xlink"><linearGradient id="a" gradientTransform="matrix(.56756757 0 0 .72972971 2.378382 -2.513506)" gradientUnits="userSpaceOnUse" x1="23.99999" x2="23.99999" y1="5.56415" y2="43"><stop offset="0" stop-color="#fff"/><stop offset=".03626217" stop-color="#fff" stop-opacity=".235294"/><stop offset=".95056331" stop-color="#fff" stop-opacity=".156863"/><stop offset="1" stop-color="#fff" stop-opacity=".392157"/></linearGradient><linearGradient id="b" gradientTransform="matrix(.53064141 0 0 .58970049 39.269607 -1.791918)" gradientUnits="userSpaceOnUse" x1="-51.786404" x2="-51.786404" y1="50.786446" y2="2.906247"><stop offset="0" stop-opacity=".317829"/><stop offset="1" stop-opacity=".24031"/></linearGradient><linearGradient id="c" gradientTransform="matrix(.62856997 0 0 .60839392 -43.424663 -6.314452)" gradientUnits="userSpaceOnUse" x1="25.132275" x2="25.132275" y1=".985206" y2="47.013336"><stop offset="0" stop-color="#f4f4f4"/><stop offset="1" stop-color="#dbdbdb"/></linearGradient><linearGradient id="d" gradientUnits="userSpaceOnUse" x1="24.99934" x2="6.99934" xlink:href="#b" y1="16.00066" y2="16.00066"/><linearGradient id="e" gradientUnits="userSpaceOnUse" x1="28.99934" x2="2.99934" xlink:href="#b" y1="28.00066" y2="28.00066"/><linearGradient id="f" gradientUnits="userSpaceOnUse" x1="6.99934" x2="24.99934" xlink:href="#c" y1="3.00066" y2="3.00066"/><linearGradient id="g" gradientUnits="userSpaceOnUse" x1="2.99934" x2="28.99934" xlink:href="#c" y1="17.00066" y2="17.00066"/><linearGradient id="h" gradientUnits="userSpaceOnUse" x1="486.24622" x2="475.74619" xlink:href="#a" y1="173.24994" y2="173.24994"/><linearGradient id="i" gradientTransform="matrix(0 -1 1 0 0 -.004)" gradientUnits="userSpaceOnUse" x1="-488.24295" x2="-471.74292" xlink:href="#a" y1="133.49983" y2="133.49983"/><linearGradient id="j"><stop offset="0" stop-color="#ce5c00"/><stop offset="1" stop-color="#ce5c00" stop-opacity="0"/></linearGradient><linearGradient id="k" gradientTransform="matrix(-1 0 0 -1 396 981)" gradientUnits="userSpaceOnUse" x1="187.609" x2="186.937" xlink:href="#j" y1="489.359" y2="489.359"/><linearGradient id="l"><stop offset="0" stop-color="#fcaf3e"/><stop offset="1" stop-color="#fcaf3e" stop-opacity="0"/></linearGradient><linearGradient id="m" gradientTransform="matrix(-1 0 0 -1 396 981)" gradientUnits="userSpaceOnUse" x1="187.816" x2="187.172" xlink:href="#l" y1="489.547" y2="489.547"/><linearGradient id="n" gradientUnits="userSpaceOnUse" x1="187.609" x2="186.937" xlink:href="#j" y1="489.359" y2="489.359"/><linearGradient id="o" gradientUnits="userSpaceOnUse" x1="187.816" x2="187.172" xlink:href="#l" y1="489.547" y2="489.547"/><g stroke-width=".75" transform="matrix(0 1 -1 0 32.00066 .00066)"><g fill="#d3d7cf" stroke="#888a85" stroke-miterlimit="3"><path d="m24.502 13.498-17.01.008-.003-9h17.02z" fill="url(#f)" stroke="url(#d)" stroke-linejoin="round" stroke-width=".999997"/><path d="m475.354 170.612 11.27.002.007 5.264-11.276.022z" fill="none" stroke="url(#h)" transform="matrix(-1.33333 0 0 -1.33333 657.326 240)"/></g><path d="m3.492 26.494 25.016.02v-8.994l-25.016-.02z" style="fill-rule:evenodd;stroke-width:.999997;stroke-linejoin:round;stroke-miterlimit:0;fill:url(#g);stroke:url(#e)"/><path d="m130.92 488.613-.062-17.252h5.268l.006 17.276z" fill="none" stroke="url(#i)" stroke-linecap="round" stroke-miterlimit="2" transform="matrix(0 -1.33333 -1.33333 0 655.983 200)"/><g stroke-linejoin="round" stroke-miterlimit="0"><path d="m190.504 491.138h-4.004v-1.524h4.004" fill="url(#o)" stroke="url(#n)" transform="matrix(0 -1.33333 -1.33333 0 669.333 280)"/><path d="m206.234 489.59 3.266.024v1.524l-3.266-.024" fill="url(#m)" stroke="url(#k)" transform="matrix(0 -1.33333 -1.33333 0 669.333 280)"/><path d="m16.51 17.498.016-3.99h-2.03l-.017 3.99zm0-6 .032-4.973h-2.03l-.033 4.973zm0 13 .032-4.973h-2.03l-.033 4.973z" fill="#fcaf3e" stroke="#ce5c00" stroke-width=".999997"/></g></g></svg>