<svg height="32" viewBox="0 0 8.4666665 8.4666669" width="32" xmlns="http://www.w3.org/2000/svg" xmlns:xlink="http://www.w3.org/1999/xlink"><radialGradient id="a" cx="2.25" cy="16" gradientTransform="matrix(.11295751 0 0 .04104132 2.29255 294.89516)" gradientUnits="userSpaceOnUse" r="16.875"><stop offset="0"/><stop offset="1" stop-opacity="0"/></radialGradient><linearGradient id="b" gradientUnits="userSpaceOnUse" x1="6.879167" x2="6.649279" y1="289.062497" y2="294.800246"><stop offset="0" stop-color="#cd9ef7"/><stop offset="1" stop-color="#a56de2"/></linearGradient><linearGradient id="c" gradientTransform="matrix(.06435811 0 0 .0929617 -14.306977 286.47252)" gradientUnits="userSpaceOnUse" x1="271.63599" x2="263.41376" y1="44.937523" y2="84.783684"><stop offset="0" stop-color="#fff"/><stop offset=".43359196" stop-color="#fff" stop-opacity=".235294"/><stop offset="1" stop-color="#fff" stop-opacity=".156863"/><stop offset="1" stop-color="#fff" stop-opacity=".392157"/></linearGradient><g transform="translate(0 -288.53332)"><ellipse cx="2.546705" cy="295.55182" display="block" fill="url(#a)" fill-rule="evenodd" opacity=".245" rx="1.906158" ry=".692573" stroke-width=".352777"/><g stroke-width=".264583"><path d="m6.2193576 289.50643v.74706h-.373529c-1.4440625 0-2.6313501 1.13939-2.6313501 2.58345 0 .61888-.5017016 1.12058-1.1205869 1.12058h-.373529l-.00119 1.62136h.3735289c1.4440631 0 2.6147026-1.17065 2.6147026-2.61471 0-.61888.5183494-1.12296 1.1372344-1.12296h.373529v.74706l1.5075694-1.56811z" fill="url(#b)" stroke="#7239b3" stroke-linejoin="round" stroke-opacity=".501961"/><path d="m6.4859091 290.15235v.10129a.26692183.26692183 0 0 1 -.2666505.26665h-.3736205c-1.3036905 0-2.3647135 1.01888-2.3647135 2.31665 0 .76305-.6239392 1.387-1.3869955 1.387h-.1069703l-.00103 1.0883h.1069702c1.2998069 0 2.3476603-1.04831 2.3476603-2.34818 0-.76795.6402493-1.38958 1.4040488-1.38958h.3736205a.26692183.26692183 0 0 1 .2666505.26666v.0847l.8676471-.90278z" fill="none" opacity=".5" stroke="url(#c)" stroke-linecap="square"/></g></g></svg>