<svg height="32" viewBox="0 0 32 32" width="32" xmlns="http://www.w3.org/2000/svg" xmlns:xlink="http://www.w3.org/1999/xlink"><linearGradient id="a" gradientTransform="matrix(.24324324 0 0 .35135133 2.162164 7.567572)" gradientUnits="userSpaceOnUse" x1="62.537155" x2="10.120358" y1="35.740242" y2="35.740242"><stop offset="0" stop-color="#fff"/><stop offset=".11711974" stop-color="#fff" stop-opacity=".235294"/><stop offset="1" stop-color="#fff" stop-opacity=".156863"/><stop offset="1" stop-color="#fff" stop-opacity=".392157"/></linearGradient><linearGradient id="b" gradientTransform="matrix(.38494639 0 0 .38533611 2.970474 10.123405)" gradientUnits="userSpaceOnUse" x1="37.863766" x2=".728321" y1="24.784042" y2="24.037088"><stop offset="0" stop-color="#cd9ef7"/><stop offset="1" stop-color="#a56de2"/></linearGradient><radialGradient id="c" cx="2.25" cy="16" gradientTransform="matrix(.32321028 0 0 .11633788 19.39773 -5.92495)" gradientUnits="userSpaceOnUse" r="16.875"><stop offset="0"/><stop offset="1" stop-opacity="0"/></radialGradient><g transform="matrix(0 -1.33333 -1.33333 0 42.833204 31.165148)"><ellipse cx="20.124954" cy="-4.063543" display="block" fill="url(#c)" fill-rule="evenodd" opacity=".521" rx="5.454174" ry="1.963204" stroke-width=".745506" transform="rotate(90)"/><g stroke-width=".750002"><path d="m3.5025123 17.5 11.9963877-.003044v-2.265666l4.96245 4.894813-4.96245 4.708601v-2.084744l-12.0081065.003z" fill="url(#b)" stroke="#7239b3" stroke-linecap="round" stroke-linejoin="round" stroke-opacity=".501961"/><path d="m16.253906 17.027344v.472656a.75007661.75007661 0 0 1 -.75.75h-11.253906l-.00781 3.753906h11.261716a.75007661.75007661 0 0 1 .75.75v.335938l3.128906-2.972656z" fill="none" opacity=".5" stroke="url(#a)" stroke-linecap="square"/></g></g></svg>