<svg height="32" viewBox="0 0 8.4666665 8.4666668" width="32" xmlns="http://www.w3.org/2000/svg" xmlns:xlink="http://www.w3.org/1999/xlink"><linearGradient id="a" gradientUnits="userSpaceOnUse" x1="5.118264" x2=".442911" y1="2.027057" y2="4.052349"><stop offset="0" stop-color="#fff"/><stop offset="1" stop-color="#fff" stop-opacity="0"/></linearGradient><radialGradient id="b" cx="6.703" cy="73.615997" gradientTransform="matrix(.58564462 0 0 .12811125 .372269 -1.763448)" gradientUnits="userSpaceOnUse" r="7.228"><stop offset="0"/><stop offset="1" stop-opacity="0"/></radialGradient><linearGradient id="c" gradientUnits="userSpaceOnUse" x1=".263701" x2="5.227977" xlink:href="#d" y1="4.618203" y2=".914752"/><linearGradient id="d"><stop offset="0" stop-color="#fff3cb"/><stop offset=".262" stop-color="#fdde76"/><stop offset=".661" stop-color="#f9c440"/><stop offset="1" stop-color="#e48b20"/></linearGradient><radialGradient id="e" cx="32.5" cy="16.563" gradientTransform="matrix(.136 .32887 -.25782 .113 11.15 .462)" gradientUnits="userSpaceOnUse" r="14.438" xlink:href="#d"/><filter id="f" color-interpolation-filters="sRGB" height="1.324" width="1.387" x="-.193" y="-.162"><feGaussianBlur stdDeviation=".678"/></filter><linearGradient id="g" gradientTransform="matrix(.26726 0 0 1.15755 9.316 -10.704)" gradientUnits="userSpaceOnUse" x1="-32.957001" x2="-25.474001" y1="27.389" y2="27.389"><stop offset="0" stop-color="#2e3436"/><stop offset=".644" stop-color="#888a85"/><stop offset="1" stop-color="#555753"/></linearGradient><linearGradient id="h" gradientTransform="matrix(.77602 .23906 -.31605 .56748 -20.168 4.55)" gradientUnits="userSpaceOnUse" x1="27.528" x2="30.42" y1="4.167" y2="2.949"><stop offset="0" stop-color="#eeeeec"/><stop offset=".789" stop-color="#fff"/><stop offset="1" stop-color="#eeeeec"/></linearGradient><linearGradient id="i" gradientTransform="translate(0 -1.058332)" gradientUnits="userSpaceOnUse" x1="7.276042" x2="7.276042" xlink:href="#m" y1="1.719791" y2="8.017164"/><linearGradient id="j" gradientTransform="translate(0 -1.058334)" gradientUnits="userSpaceOnUse" x1="6.614584" x2="6.614584" xlink:href="#m" y1="1.190625" y2="7.429696"/><linearGradient id="k" gradientTransform="translate(-.000107 .132599)" gradientUnits="userSpaceOnUse" x1="7.276147" x2="7.276147" xlink:href="#m" y1=".795334" y2="7.672609"/><linearGradient id="l" gradientTransform="translate(0 -2.645833)" gradientUnits="userSpaceOnUse" x1="7.276042" x2="7.276042" xlink:href="#m" y1="1.719791" y2="8.017164"/><linearGradient id="m" gradientTransform="matrix(.15725294 0 0 .15873294 .458666 -.007635)" gradientUnits="userSpaceOnUse" x1="25.132" x2="25.132" y1="15.5" y2="48.396"><stop offset="0" stop-color="#fafafa"/><stop offset="1" stop-color="#e2e1de"/></linearGradient><g stroke="#000" stroke-linecap="square" stroke-linejoin="round" stroke-opacity=".316176" stroke-width=".264583"><path d="m5.9531255 4.1010415h1.852083v1.322917h-1.852083z" fill="url(#l)"/><path d="m5.9531255 2.5135415h1.852083v1.322917h-1.852083z" fill="url(#j)"/><path d="m5.9531251.92604146h1.852083v1.32291704h-1.852083z" fill="url(#k)"/><path d="m5.9531251 5.6885416h1.852083v1.322917h-1.852083z" fill="url(#i)"/></g><g transform="matrix(-1 0 0 1 8.466667 0)"><g stroke-width=".264583"><path d="m-.04312708 3.6068c4.59105008.2910417 1.69783128-2.3592895 5.24562918-2.4436916l.8916459 1.8732499c-1.61925-.7548561-2.7267959 3.1234063-6.15844175.8440209z" fill="url(#a)" fill-rule="evenodd" opacity=".444"/><path d="m8.5309604 7.667625c0 .511175-1.8954749.9260416-4.2333333.9260416-2.3381229 0-4.23333335-.4148666-4.23333335-.9260416 0-.5117042 1.89521045-.9260417 4.23333335-.9260417 2.3378584 0 4.2333333.4143375 4.2333333.9260417z" fill="url(#b)" opacity=".2"/><path d="m3.5507084.83767089-.0354542.87418341-.5630333.2950104-.1764771-.0992188-.0058208-.5212291-.369623.3413125-.4974166-.1561042.20955.4564063-.301625.4251854.498475-.058208.3116791.4185708.098425-.4926541.26035-.088371.5513917.2047873.1521354.8956144.5431896-.6860645.898525.1322916-.4852458-.7291915.4029604-.8130646-.8421688.2354792zm-1.9478625 1.54093341-.2868084.2645832-.3857625-.1217083.1627188.3545416-.23442089.3296709.38735009-.0449792.2407708.3246437.0767292-.3823229.3836458-.1288521-.3394604-.1905zm1.3096875.314854-.4175125.3836459-.5635625-.1756834.2373312.5159375-.3402541.4802188.5635625-.0653521.3518958.4725458.111125-.5566833.5590646-.1878542-.4953-.2786062zm-2.19445423.5590646-.104775.3947583-.40851667.1103313.34237083.2211917-.02116666.4233333.31617708-.2579688.39608125.1516063-.1476375-.381.2659063-.3294063-.40745835.0230188z" fill="url(#c)"/></g><path d="m13.263 17.77c-2.056.9-4.6-.495-5.686-3.117-1.084-2.622-.297-5.478 1.76-6.38 2.055-.9 4.6.495 5.685 3.118 1.084 2.623.297 5.48-1.76 6.38z" fill="url(#e)" filter="url(#f)" opacity=".483" transform="matrix(.3527769 0 0 .3527769 .032279 -2.374635)"/><g transform="matrix(.37336148 -.21556133 .18240375 .31593896 1.128977 -1.621102)"><path d="m.5 18v12.438c0 .58.297 1.062.667 1.062h.666c.37 0 .667-.48.667-1.063v-12.437z" fill="url(#g)" fill-rule="evenodd"/><rect fill="none" height="21" opacity=".3" rx=".749" ry=".929" stroke="#000" stroke-width=".667" width="2" x=".5" y="10.5"/><path d="m1.167 10.5c-.37 0-.667.48-.667 1.063v6.437h2v-6.438c0-.58-.297-1.062-.667-1.062z" fill="url(#h)" fill-rule="evenodd" opacity=".9"/></g></g></svg>