<svg height="32" viewBox="0 0 8.4666665 8.4666669" width="32" xmlns="http://www.w3.org/2000/svg" xmlns:xlink="http://www.w3.org/1999/xlink"><radialGradient id="a" cx="2.25" cy="16" gradientTransform="matrix(.479894 0 0 .11633788 10.929067 16.270932)" gradientUnits="userSpaceOnUse" r="16.875"><stop offset="0"/><stop offset="1" stop-opacity="0"/></radialGradient><linearGradient id="b" gradientUnits="userSpaceOnUse" x1="13.730629" x2="13.882517" y1=".657829" y2="18.759569"><stop offset="0" stop-color="#cd9ef7"/><stop offset="1" stop-color="#a56de2"/></linearGradient><linearGradient id="c" gradientUnits="userSpaceOnUse" x1="11.358886" x2="11.661358" y1="3.318263" y2="17.769794"><stop offset="0" stop-color="#fff"/><stop offset=".20592493" stop-color="#fff" stop-opacity=".235294"/><stop offset="1" stop-color="#fff" stop-opacity=".156863"/><stop offset="1" stop-color="#fff" stop-opacity=".392157"/></linearGradient><g fill-rule="evenodd" transform="matrix(.3527769 0 0 .3527769 .000011 .59305)"><ellipse cx="12.008829" cy="18.132339" display="block" fill="url(#a)" opacity=".433333" rx="8.098211" ry="1.963204"/><g stroke-linecap="square" stroke-linejoin="round" stroke-width=".750124"><path d="m20.623217 10.318915c0 3.488197-2.10149 6.632836-5.324346 7.967273s-6.9322288.59581-9.3980854-1.87139c-2.4658564-2.4672-3.2024639-6.176974-1.8662726-9.3991024 1.3361914-3.2221288 4.4819741-5.3219063 7.970171-5.320007l.374721.00586-.0015 8.2410454 8.248212-.00586z" fill="url(#b)" stroke="#7239b3" stroke-opacity=".501961"/><path d="m11.644531 2.4804688c-3.0439012.1403471-5.7556776 1.9806573-6.9316404 4.8164062-1.2234247 2.9502-.5505752 6.340774 1.7070313 8.599609 2.2577243 2.258955 5.6471631 2.934555 8.5976561 1.712891 2.838485-1.175286 4.681204-3.892142 4.820313-6.939453l-7.460938.0059a.73345193.73345193 0 0 1 -.732422-.7324626z" fill="none" opacity=".5" stroke="url(#c)"/></g></g></svg>