<svg height="32" width="32" xmlns="http://www.w3.org/2000/svg" xmlns:xlink="http://www.w3.org/1999/xlink"><radialGradient id="a" cx="4.992979" cy="43.5" gradientTransform="matrix(2.003784 0 0 1.4 22.854797 -17.399999)" gradientUnits="userSpaceOnUse" r="2.5" xlink:href="#b"/><linearGradient id="b"><stop offset="0" stop-color="#181818"/><stop offset="1" stop-color="#181818" stop-opacity="0"/></linearGradient><radialGradient id="c" cx="4.992979" cy="43.5" gradientTransform="matrix(2.003784 0 0 1.4 -20.01187 -104.4)" gradientUnits="userSpaceOnUse" r="2.5" xlink:href="#b"/><linearGradient id="d" gradientUnits="userSpaceOnUse" x1="25.058096" x2="25.058096" y1="47.027729" y2="39.999443"><stop offset="0" stop-color="#181818" stop-opacity="0"/><stop offset=".5" stop-color="#181818"/><stop offset="1" stop-color="#181818" stop-opacity="0"/></linearGradient><linearGradient id="e" gradientUnits="userSpaceOnUse" x1="11.338983" x2="10.932205" y1="19.152542" y2=".847458"><stop offset="0" stop-opacity=".339506"/><stop offset="1" stop-opacity=".246914"/></linearGradient><linearGradient id="f" gradientUnits="userSpaceOnUse" x1="17.338984" x2="17.135595" y1="2.474576" y2="18.745762"><stop offset="0" stop-color="#f4f4f4"/><stop offset="1" stop-color="#dbdbdb"/></linearGradient><linearGradient id="g" gradientUnits="userSpaceOnUse" x1="12.197366" x2="12.233525" y1="2.677062" y2="17.679863"><stop offset="0" stop-color="#fff"/><stop offset=".08988646" stop-color="#fff" stop-opacity=".235294"/><stop offset="1" stop-color="#fff" stop-opacity=".156863"/><stop offset="1" stop-color="#fff" stop-opacity=".392157"/></linearGradient><g transform="matrix(1.33333 0 0 1.33333 -.211194 2.461691)"><g opacity=".4" transform="matrix(.59210674 0 0 .32142932 -.552132 4.796603)"><path d="m32.866667 40.000001h5v7h-5z" fill="url(#a)"/><path d="m-10-47h5v7h-5z" fill="url(#c)" transform="scale(-1)"/><path d="m10 40h22.866667v7.000001h-22.866667z" fill="url(#d)"/></g><g stroke-width=".750002"><path d="m3.529856 1.529856h17.250141l.002 17.248634h-17.2500934z" fill="url(#f)" stroke="url(#e)" stroke-linecap="round" stroke-linejoin="round"/><path d="m4.2940387 2.2764596 15.7389223.00293.001 15.7572138h-15.753566z" fill="none" stroke="url(#g)"/></g></g></svg>