<svg height="32" width="32" xmlns="http://www.w3.org/2000/svg" xmlns:xlink="http://www.w3.org/1999/xlink"><linearGradient id="a" gradientUnits="userSpaceOnUse" x1="162.2023" x2="162.2023" xlink:href="#b" y1="414.66092" y2="409.06992"/><linearGradient id="b"><stop offset="0" stop-color="#babdb6"/><stop offset="1" stop-color="#babdb6" stop-opacity="0"/></linearGradient><linearGradient id="c" gradientUnits="userSpaceOnUse" x1="162.2023" x2="162.2023" xlink:href="#b" y1="413.94385" y2="409.06992"/><linearGradient id="d" gradientUnits="userSpaceOnUse" x1="162.09949" x2="162.09949" y1="414.01666" y2="409.02002"><stop offset="0" stop-color="#555753"/><stop offset="1" stop-color="#555753" stop-opacity="0"/></linearGradient><linearGradient id="e" gradientTransform="matrix(.97222 0 0 .9722 -21.625 34.187)" gradientUnits="userSpaceOnUse" x1="12.198" x2="15.699" y1="401.096" y2="404.598"><stop offset="0" stop-color="#d3d7cf"/><stop offset="1" stop-color="#fafbfa"/></linearGradient><linearGradient id="f" gradientTransform="matrix(.875 0 0 .87507 -20.313 73.283)" gradientUnits="userSpaceOnUse" x1="12.816" x2="12.816" y1="400.389" y2="406.511"><stop offset="0" stop-color="#fff"/><stop offset="1" stop-color="#fff" stop-opacity="0"/></linearGradient><g fill="none" transform="matrix(-1.33333 0 0 -1.33333 241.354704 573.331934)"><path d="m161.03293 410.03293c0 5.25074 2.60178 7.96707 7.96707 7.96707" stroke="url(#d)" stroke-width="3.000008"/><path d="m160.1824 408.71875c0 5.47203 2.80351 10.20866 8.91265 10.20866" stroke="url(#a)" stroke-width=".750002"/></g><g fill="none" transform="matrix(1.33333 0 0 1.33333 -209.354703 -541.331933)"><path d="m161.03293 410.03293c0 5.25074 2.60178 7.96707 7.96707 7.96707" stroke="url(#d)" stroke-width="3.000008"/><path d="m161.09505 408.71875c0 5.27607 1.89086 8.83969 8 8.83969" stroke="url(#c)" stroke-width=".750002"/></g><g stroke-linecap="round" stroke-width=".875" transform="translate(.000798 -8.990531)"><path d="m-11.386 422.57h6.113l.015 6.11h-6.112z" fill="url(#e)" stroke="#888a85" stroke-linejoin="round" transform="matrix(1.14285 0 0 1.14285 25.51 -461.435)"/><path d="m-10.517 423.444 4.393.01-.02 4.37-4.346-.034z" fill="none" stroke="url(#f)" transform="matrix(1.14285 0 0 1.14285 25.51 -461.435)"/></g></svg>