<svg height="32" width="32" xmlns="http://www.w3.org/2000/svg" xmlns:xlink="http://www.w3.org/1999/xlink"><linearGradient id="a"><stop offset="0"/><stop offset="1" stop-opacity="0"/></linearGradient><linearGradient id="b" gradientUnits="userSpaceOnUse" x1="17" x2="17" y1="46.5" y2="43.5"><stop offset="0" stop-opacity="0"/><stop offset=".5"/><stop offset="1" stop-opacity="0"/></linearGradient><radialGradient id="c" cx="13.325464" cy="8.331412" gradientTransform="matrix(-3.7117719 .11187051 -.21033005 -6.7825606 65.528784 64.934853)" gradientUnits="userSpaceOnUse" r="5.349211"><stop offset="0" stop-color="#737373"/><stop offset=".26238" stop-color="#636363"/><stop offset=".704952" stop-color="#4b4b4b"/><stop offset="1" stop-color="#3f3f3f"/></radialGradient><radialGradient id="d" cx="40" cy="43.5" gradientTransform="matrix(1 0 0 .75 -21 12.375)" gradientUnits="userSpaceOnUse" r="2" xlink:href="#a"/><radialGradient id="e" cx="9" cy="43.5" gradientTransform="matrix(1 0 0 .75 -4 12.375)" gradientUnits="userSpaceOnUse" r="2" xlink:href="#a"/><g transform="matrix(1.33333 0 0 1.313771 -1.472041 -10.913521)"><g transform="matrix(.73633307 0 0 1 4.020185 -16)"><path d="m19 43.5v3h.5c.831 0 1.5-.669 1.5-1.5s-.669-1.5-1.5-1.5z" fill="url(#d)" opacity=".2"/><path d="m4.40625 43.5c-.7790625 0-1.40625.627187-1.40625 1.40625v.1875c0 .779063.6271875 1.40625 1.40625 1.40625h.59375v-3z" fill="url(#e)" opacity=".2"/><path d="m5 43.5h14v3h-14z" fill="url(#b)" opacity=".2"/></g><path d="m7.4909183 12.492406h4.4834557q3.064514 0 4.444037.974351 1.389378.963403 1.389378 3.076322 0 1.434157-.610933 2.353771-.601076.919611-1.606159 1.105723v.109478q1.369672.339379 1.97075 1.26994.61093.93056.61093 2.474193 0 2.189553-1.428791 3.415703-1.41894 1.22615-3.862668 1.22615h-5.3899997zm3.0546597 6.338757h1.773676q1.241571 0 1.793382-.426965.561663-.426962.561663-1.412261 0-.919612-.610932-1.313731-.601078-.405068-1.911626-.405068h-1.606163zm0 2.69315v4.171098h1.990458q1.26128 0 1.862359-.536443.601077-.53644.601077-1.642164 0-1.992492-2.561973-1.992492z" fill="url(#c)"/><path d="m7.4902344 12.492188v16.005859h.064453l-.00674-14.852853h4.4824211c2.04301 0 3.523678.323088 4.44336.972656.690549.478831 1.123104 1.171394 1.298828 2.076172.01429-.167063.0293-.334572.0293-.513672 0-1.408612-.457631-2.071284-1.383883-2.713553-.919682-.649567-2.40035-.974609-4.44336-.974609zm7.0800776 5.207031c-.09064.296866-.236443.537392-.457031.705078-.367874.284643-.967208.427734-1.794922.427734h-1.708984l-.0067 1.151053h1.773437c.827715 0 1.425095-.143091 1.792969-.427734.374442-.284642.567289-.392625.567289-1.049491 0-.316904-.05719-.583342-.166016-.80664zm2.410157 3.068359c-.360166.399257-.799785.652529-1.326172.75l-.0067-.253244c.913115.226253 1.569984.649157 1.970703 1.269531.250897.382164.413426.851408.509766 1.388672.01026-.144579.03711-.27819.03711-.429687 0-1.029089-.197299-1.489664-.604586-2.110038-.15258-.236217-.35321-.436157-.580079-.615234zm-2.064453 3.441406c-.09097.394163-.256473.716192-.517578.949219-.40072.357629-1.022428.537109-1.863282.537109h-1.925781l-.0067 1.153007h1.990234c.840854 0 1.460609-.179481 1.861329-.53711.400718-.357627.608304-.54281.608304-1.279959 0-.312109-.05219-.583491-.146484-.822266z" fill="#fff" opacity=".2"/><path d="m7.4909183 12.492406h4.4834557q3.064514 0 4.444037.974351 1.389378.963403 1.389378 3.076322 0 1.434157-.610933 2.353771-.601076.919611-1.606159 1.105723v.109478q1.369672.339379 1.97075 1.26994.61093.93056.61093 2.474193 0 2.189553-1.428791 3.415703-1.41894 1.22615-3.862668 1.22615h-5.3899997zm3.0546597 6.338757h1.773676q1.241571 0 1.793382-.426965.561663-.426962.561663-1.412261 0-.919612-.610932-1.313731-.601078-.405068-1.911626-.405068h-1.606163zm0 2.69315v4.171098h1.990458q1.26128 0 1.862359-.536443.601077-.53644.601077-1.642164 0-1.992492-2.561973-1.992492z" fill="none" opacity=".61" stroke="#000" stroke-linejoin="round" stroke-width=".750002"/></g></svg>