<svg height="32" viewBox="0 0 8.4666665 8.4666669" width="32" xmlns="http://www.w3.org/2000/svg" xmlns:xlink="http://www.w3.org/1999/xlink"><linearGradient id="a" gradientUnits="userSpaceOnUse" x1="7.121347" x2="8.121347" y1="12.060674" y2="28.060675"><stop offset="0" stop-color="#cd9ef7"/><stop offset="1" stop-color="#a56de2"/></linearGradient><radialGradient id="b" cx="2.25" cy="16" gradientTransform="matrix(.21143312 0 0 .11633788 6.751827 27.074268)" gradientUnits="userSpaceOnUse" r="16.875"><stop offset="0"/><stop offset="1" stop-opacity="0"/></radialGradient><linearGradient id="c" gradientUnits="userSpaceOnUse" x1="9.264607" x2="9.264607" y1="12.658412" y2="22.408436"><stop offset="0" stop-color="#fff"/><stop offset="0" stop-color="#fff" stop-opacity=".235294"/><stop offset="1" stop-color="#fff" stop-opacity=".156863"/><stop offset="1" stop-color="#fff" stop-opacity=".392157"/></linearGradient><g transform="matrix(.3527769 0 0 .3527769 .171244 -2.8781)"><path d="m3.6359601 11.539333c.00002-.00002 0 12 0 12h3.7711859v4l4.228814-4h8.514832v-12z" fill="url(#a)" stroke="#7239b3" stroke-opacity=".501961" stroke-width=".750002"/><ellipse cx="7.227552" cy="28.935675" display="block" fill="url(#b)" fill-rule="evenodd" opacity=".2" rx="3.567934" ry="1.963204"/><path d="m4.3808594 12.283203v10.511719h3.0253906a.74372033.74372033 0 0 1 .7441406.74414v2.271485l2.9746094-2.8125a.74372033.74372033 0 0 1 .511719-.203125h7.769531v-10.511719z" fill="none" opacity=".5" stroke="url(#c)" stroke-width=".750002"/></g></svg>