<svg height="32" width="32" xmlns="http://www.w3.org/2000/svg" xmlns:xlink="http://www.w3.org/1999/xlink"><linearGradient id="a" gradientTransform="matrix(0 -.59172001 -.63517001 0 -18.426973 29.337846)" gradientUnits="userSpaceOnUse" x1="46.985001" x2="46.985001" y1="11.47" y2="20"><stop offset="0" stop-color="#fff"/><stop offset=".125" stop-color="#fff" stop-opacity=".235"/><stop offset=".939" stop-color="#fff" stop-opacity=".157"/><stop offset="1" stop-color="#fff" stop-opacity=".392"/></linearGradient><linearGradient id="b" gradientUnits="userSpaceOnUse" x1="18.744028" x2="18.744028" y1="8.615846" y2="21.615846"><stop offset="0" stop-color="#c6262e"/><stop offset="1" stop-color="#b5232a"/></linearGradient><linearGradient id="c" gradientTransform="matrix(.25378586 0 0 .30501865 -5.871021 -2.685477)" gradientUnits="userSpaceOnUse" x1="67.458038" x2="67.458038" y1="17.00333" y2="66.635368"><stop offset="0" stop-color="#fff"/><stop offset=".0641157" stop-color="#fff" stop-opacity=".235294"/><stop offset="1" stop-color="#fff" stop-opacity=".156863"/><stop offset="1" stop-color="#fff" stop-opacity=".392157"/></linearGradient><radialGradient id="d" cx="4.992979" cy="43.5" gradientTransform="matrix(2.003784 0 0 1.4 27.98813 -17.4)" gradientUnits="userSpaceOnUse" r="2.5" xlink:href="#e"/><linearGradient id="e"><stop offset="0" stop-color="#181818"/><stop offset="1" stop-color="#181818" stop-opacity="0"/></linearGradient><radialGradient id="f" cx="4.992979" cy="43.5" gradientTransform="matrix(2.003784 0 0 1.4 -20.01187 -104.4)" gradientUnits="userSpaceOnUse" r="2.5" xlink:href="#e"/><linearGradient id="g" gradientUnits="userSpaceOnUse" x1="25.058096" x2="25.058096" y1="47.027729" y2="39.999443"><stop offset="0" stop-color="#181818" stop-opacity="0"/><stop offset=".5" stop-color="#181818"/><stop offset="1" stop-color="#181818" stop-opacity="0"/></linearGradient><linearGradient id="h" gradientTransform="matrix(.25378586 0 0 .30501865 -5.871021 -2.685477)" gradientUnits="userSpaceOnUse" x1="12.700075" x2="11" y1="71.337242" y2="1"><stop offset="0" stop-opacity=".339506"/><stop offset="1" stop-opacity=".246914"/></linearGradient><linearGradient id="i" gradientUnits="userSpaceOnUse" x1="7.203894" x2="15.133052" y1="4.482563" y2="12.930884"><stop offset="0" stop-color="#eeeeec"/><stop offset="1" stop-color="#e0e0de"/></linearGradient><g transform="matrix(1.33333 0 0 1.33333 .001536 2.505534)"><g opacity=".4" transform="matrix(.52631579 0 0 .42857134 -.631579 -.142854)"><path d="m38 40h5l-.01281 7.573769h-5z" fill="url(#d)"/><path d="m-9.9871911-47.573769h5l-.0128089 7.573769h-5z" fill="url(#f)" transform="scale(-1)"/><path d="m10 40h28l-.01281 7.57377h-27.9999989z" fill="url(#g)"/></g><path d="m3.3738562 1.4958534h17.2500428v17.2500436h-17.2500428z" fill="url(#i)" stroke="url(#h)" stroke-linecap="round" stroke-linejoin="round" stroke-width=".750002"/><path d="m4.1230469 2.2460938v15.7500002h15.7500001v-15.7500002z" fill="none" stroke="url(#c)" stroke-linecap="round" stroke-linejoin="round" stroke-width=".750002"/><g transform="matrix(.14732179 0 0 .14732179 1.552424 17.513018)"><g fill="#cc3b02" fill-rule="evenodd"><path d="m31.191406-96 16.808594 16 16.822266-16h-12.816407l-.005859.003906-8-.003906z"/><path d="m48-56-16.650391 16h33.333985z"/><path d="m76-84.59375-16 16.59375 16 16.689453z"/><path d="m20-84.683594v33.333985l16-16.650391z"/></g><rect fill="#ffc27d" height="15.272728" rx=".000002" transform="rotate(-90)" width="15.272726" x="60.358669" y="40.363636"/></g><path d="m18.149027 9.0998464c.606-.002 1.125.05 1.554.148 2.437001.5600001 3.51 2.6569996 3.54 4.9199996-.18 2.407-.828 3.926-2.86 4.76-.443.110001-1.494.177001-2.244.180001l-4.892.015v-4.037001l4.537-.016c2-.052 1.988-1.91.01-1.967999l-4.536999.016v-4.0020005z" fill="url(#b)" stroke="#2a0303" stroke-opacity=".49"/><path d="m13.257381 9.1158727v4.0020103l2.502006-.0075v-3.9945103zm2.502006 5.9625153-2.502006.0075v3.530258h2.502006z" fill="#eee" fill-opacity=".761" stroke-width=".750002"/><path d="m18.147393 9.1008726-4.890012.015v.9997524l4.890012-.015c.607502-.0023 1.127253.0495 1.557004.14775 2.220006.510002 3.297758 2.299506 3.495009 4.327511.015-.1365.03375-.267.045-.407251-.0315-2.265005-1.104003-4.3597606-3.540009-4.9200121-.429751-.099-.949502-.1500004-1.557004-.1485004zm.907503 5.4877634c-.232501.262501-.639752.465002-1.270504.482252l-4.537511.015.0023 1.000502 4.535261-.015c1.370254-.036 1.771505-.911252 1.269754-1.482754z" fill="#206b00" opacity=".1" stroke="#fff" stroke-width=".750002"/><path d="m18.152027 10.085846-3.91.012v2.032l3.546-.012h.03c.65.018 1.22.183 1.67.516.453.332.776001.872.777 1.453 0 .58-.32 1.126-.776 1.46-.453.332-1.027.493-1.68.51h-.022l-3.555.012.02 2.060001 3.905-.012c.663-.002 1.66-.094 1.92-.143.788-.337001 1.23-.566 1.56-1.197.334-.636.523-1.525.61-2.63-.02-.963-.252-1.86-.695-2.534-.45-.684001-1.083-1.175001-2.07-1.402001-.334-.077-.783-.125-1.332-.123z" fill="none" opacity=".53" stroke="url(#a)" stroke-opacity=".915" stroke-width=".75"/></g></svg>