<svg height="32" width="32" xmlns="http://www.w3.org/2000/svg" xmlns:xlink="http://www.w3.org/1999/xlink"><linearGradient id="a" gradientTransform="matrix(.4581255 0 0 .4388939 -31.619713 14.933095)" gradientUnits="userSpaceOnUse" spreadMethod="reflect" x1="102.30806" x2="102.30806" y1="-2.392547" y2="-24.582239"><stop offset="0" stop-color="#a5a6a8"/><stop offset="1" stop-color="#e8e8e8"/></linearGradient><linearGradient id="b" gradientTransform="matrix(.4581255 0 0 .4388939 -31.619713 14.933095)" gradientUnits="userSpaceOnUse" x1="109.95628" x2="109.95628" y1="-24.91135" y2="-2.375786"><stop offset="0" stop-color="#b3b3b3"/><stop offset="1" stop-color="#dadada"/></linearGradient><linearGradient id="c" gradientTransform="matrix(.4578345 0 0 .432286 -31.591968 18.911518)" gradientUnits="userSpaceOnUse" spreadMethod="reflect" x1="103.95014" x2="89.423676" xlink:href="#d" y1="-7.665694" y2="-7.665694"/><linearGradient id="d"><stop offset="0" stop-color="#868688"/><stop offset="1" stop-color="#d9d9da"/></linearGradient><linearGradient id="e" gradientUnits="userSpaceOnUse" x1="10.860975" x2="10.860975" xlink:href="#f" y1="12.990752" y2="17.999999"/><linearGradient id="f"><stop offset="0" stop-color="#a0a0a0"/><stop offset="1" stop-color="#4a4a4a"/></linearGradient><linearGradient id="g" gradientTransform="matrix(.4578345 0 0 .432286 -31.591968 24.911518)" gradientUnits="userSpaceOnUse" spreadMethod="reflect" x1="103.95014" x2="89.423676" xlink:href="#d" y1="-7.665694" y2="-7.665694"/><linearGradient id="h" gradientUnits="userSpaceOnUse" x1="10.860975" x2="10.860975" xlink:href="#f" y1="18.990752" y2="23.999999"/><linearGradient id="i" gradientTransform="matrix(.4578345 0 0 .432286 -31.591968 30.911518)" gradientUnits="userSpaceOnUse" spreadMethod="reflect" x1="103.95014" x2="89.423676" xlink:href="#d" y1="-7.665694" y2="-7.665694"/><linearGradient id="j" gradientUnits="userSpaceOnUse" x1="10.860975" x2="10.860975" xlink:href="#f" y1="24.990752" y2="29.999999"/><linearGradient id="k"><stop offset="0"/><stop offset="1" stop-opacity="0"/></linearGradient><linearGradient id="l" gradientTransform="matrix(.59999998 0 0 .60526317 1.6 2.171052)" gradientUnits="userSpaceOnUse" x1="21.381216" x2="21.381216" y1="5.052486" y2="44.137077"><stop offset="0" stop-color="#fff"/><stop offset=".08125819" stop-color="#fff" stop-opacity=".235294"/><stop offset=".92327863" stop-color="#fff" stop-opacity=".156863"/><stop offset="1" stop-color="#fff" stop-opacity=".392157"/></linearGradient><radialGradient id="m" cx="23.334524" cy="41.63604" gradientTransform="matrix(.5745243 0 0 .2209368 2.59375 17.801069)" gradientUnits="userSpaceOnUse" r="22.627417" xlink:href="#k"/><linearGradient id="n"><stop offset="0" stop-color="#fff"/><stop offset=".45" stop-color="#fff" stop-opacity=".235"/><stop offset=".65" stop-color="#fff" stop-opacity=".157"/><stop offset="1" stop-color="#fff" stop-opacity=".392"/></linearGradient><radialGradient id="o" cx="24.837" cy="36.421001" gradientTransform="matrix(.3679908 0 0 -.39439014 12.405002 31.934247)" gradientUnits="userSpaceOnUse" r="15.645" xlink:href="#k"/><linearGradient id="p" gradientTransform="matrix(-1.3333 0 0 1.3333 44.834858 -1.156926)" gradientUnits="userSpaceOnUse" x1="17.150999" x2="17.150999" y1="5.88" y2="17.211"><stop offset="0" stop-color="#90dbec"/><stop offset=".262" stop-color="#55c1ec"/><stop offset=".705" stop-color="#3689e6"/><stop offset="1" stop-color="#2b63a0"/></linearGradient><linearGradient id="q" gradientTransform="matrix(0 -.71624876 .76904744 0 -21.827476 35.995479)" gradientUnits="userSpaceOnUse" x1="40.958" x2="18.681" xlink:href="#n" y1="46.971001" y2="46.971001"/><radialGradient id="r" cx="24.837" cy="36.421001" gradientTransform="matrix(-.36797241 0 0 -.39443901 31.599919 31.935225)" gradientUnits="userSpaceOnUse" r="15.645" xlink:href="#k"/><linearGradient id="s" gradientUnits="userSpaceOnUse" x1="22.035942" x2="22.035942" y1="6.683288" y2="21.79125"><stop offset="0" stop-color="#cd9ef7"/><stop offset="1" stop-color="#a56de2"/></linearGradient><linearGradient id="t" gradientTransform="matrix(0 -.5372 -.57682 0 50.01 35.63)" gradientUnits="userSpaceOnUse" x1="40.958" x2="18.681" xlink:href="#n" y1="46.971001" y2="46.971001"/><path d="m29 27c.0011 2.761299-5.819514 5-13 5s-13.001109-2.238701-13-5c-.00111-2.761299 5.819514-5 13-5s13.00111 2.238701 13 5z" fill="url(#m)" fill-rule="evenodd" opacity=".3"/><path d="m27.490168 25.06775c0 2.446601-5.148729 4.43225-11.492687 4.43225-6.343968 0-11.492695-1.985649-11.492695-4.43225.11446-5.469422-1.40472-4.33998 11.492695-4.43225 13.192787-.0952 11.330827-1.126702 11.492687 4.43225z" fill="url(#i)" stroke="url(#j)"/><path d="m27.499999 21c0 2.485282-5.148726 4.5-11.499999 4.5-6.351275 0-11.500001-2.014718-11.500001-4.5 0-2.485281 5.148726-4.5 11.500001-4.5 6.351273 0 11.499999 2.014719 11.499999 4.5z" fill="#868688" stroke="#d8d8d8"/><path d="m27.490168 19.06775c0 2.446601-5.148729 4.43225-11.492687 4.43225-6.343968 0-11.492695-1.985649-11.492695-4.43225.11446-5.469422-1.40472-4.33998 11.492695-4.43225 13.192787-.0952 11.330827-1.126702 11.492687 4.43225z" fill="url(#g)" stroke="url(#h)"/><path d="m27.499999 15c0 2.485282-5.148726 4.5-11.499999 4.5-6.351275 0-11.500001-2.014718-11.500001-4.5 0-2.485281 5.148726-4.5 11.500001-4.5 6.351273 0 11.499999 2.014719 11.499999 4.5z" fill="#868688" stroke="#d8d8d8"/><path d="m27.490168 13.06775c0 2.446601-5.148729 4.43225-11.492687 4.43225-6.343968 0-11.492695-1.985649-11.492695-4.43225.11446-5.469422-1.40472-4.33998 11.492695-4.43225 13.192787-.095202 11.330827-1.126702 11.492687 4.43225z" fill="url(#c)" stroke="url(#e)"/><path d="m27.499999 9c0 2.485282-5.148726 4.5-11.499999 4.5-6.351275 0-11.500001-2.014718-11.500001-4.5 0-2.485281 5.148726-4.5 11.500001-4.5 6.351273 0 11.499999 2.014719 11.499999 4.5z" fill="url(#a)" stroke="url(#b)"/><rect fill="none" height="23" opacity=".5" rx="17.5" ry="4" stroke="url(#l)" width="21" x="5.5" y="5.499999"/><g transform="translate(-11.999795 9.999929)"><path d="m27.304629 17.233281c0-8.2304606-11.511712-8.2304606-11.514379 0 0 3.406582 2.573269 6.506504 5.751857 6.506504 3.177253 0 5.759855-3.099922 5.759855-6.506504z" fill="url(#o)" fill-rule="evenodd" opacity=".141" stroke-width="1.3333"/><path d="m21.504774 21.469175 9.19977-7.471813-9.202436-7.3491494v4.8638784h-7.999801l.004 4.997208h7.9998z" display="block" fill="url(#p)" stroke-width="1.3333"/><g fill="none" stroke-width=".999975"><path d="m22.838074 18.654579 5.777189-4.657217-5.779855-4.5865518v3.4345808h-7.9998l.004 2.330608h7.9998z" display="block" opacity=".401" stroke="url(#q)" stroke-miterlimit="7"/><path d="m21.504774 21.469175 9.19977-7.471813-9.202436-7.3491494v4.8638784h-7.999801l.004 4.997208h7.9998z" opacity=".5" stroke="#004372" stroke-linejoin="round"/></g></g><g transform="translate(.000204 .000071)"><path d="m16.698622 17.233928c0-8.2306461 11.511972-8.2306461 11.514638 0 0 3.406658-2.573326 6.50665-5.753319 6.50665-3.177325 0-5.759985-3.099992-5.759985-6.50665z" fill="url(#r)" fill-rule="evenodd" opacity=".141" stroke-width="1.33333"/><path d="m22.498608 21.469917-9.199977-7.471981 9.202643-7.3506483v4.8639883h7.999981l-.004 4.997321h-7.999981z" display="block" fill="url(#s)" stroke-width="1.33333"/><g fill="none" stroke-width=".75" transform="matrix(1.33333 0 0 1.33333 -.848 -11.51)"><path d="m16.51 22.624-4.333-3.493 4.335-3.44v2.575h6l-.003 1.748h-6z" display="block" opacity=".401" stroke="url(#t)" stroke-miterlimit="7"/><path d="m17.51 24.735-6.9-5.604 6.902-5.513v3.648h6l-.003 3.748h-6z" opacity=".5" stroke="#7239b3" stroke-linejoin="round"/></g></g></svg>