<svg height="32" width="32" xmlns="http://www.w3.org/2000/svg" xmlns:xlink="http://www.w3.org/1999/xlink"><linearGradient id="a" gradientTransform="matrix(.04846 0 0 .5238 -20.405 -108.176)" gradientUnits="userSpaceOnUse" x1="292.857" x2="292.857" y1="211.076" y2="233.827"><stop offset="0"/><stop offset="1" stop-opacity="0"/></linearGradient><linearGradient id="b" gradientTransform="matrix(.8048 0 0 .60166 -516.818 -396.08)" gradientUnits="userSpaceOnUse" x1="731.057" x2="731.057" y1="654.815" y2="619.307"><stop offset="0" stop-color="#64baff"/><stop offset="1" stop-color="#3689e6"/></linearGradient>

/&amp;amp;amp;gt;<g transform="matrix(2.1242 0 0 2.1242 -.99 -1.003)"><rect fill="url(#b)" height="11.298371" opacity=".99" rx="1.658" ry="1.716" transform="scale(-1)" width="11.298371" x="-13.647491" y="-13.653611"/><rect fill="none" height="11.769136" rx="2" stroke="#248adc" stroke-linecap="round" stroke-linejoin="round" stroke-width=".471" transform="scale(-1 1)" width="11.769136" x="-13.882874" y="2.119857"/><path d="m11.03 4.38 1.554 1.398-5.217 6.894-4.037-3.478 1.335-1.77 2.36 2.05z" fill="#2f78c7" fill-opacity=".992"/><path d="m11.03 3.61 1.554 1.396-5.217 6.894-4.037-3.477 1.335-1.77 2.36 2.05z" fill="#fff"/><rect height="10.827605" rx="1.604" ry="1.302" style="opacity:.05;fill:none;stroke-width:.471;stroke-linecap:round;stroke-linejoin:round;stroke:url(#a)" transform="scale(-1 1)" width="11.062988" x="-13.412108" y="2.590622"/></g></svg>