<svg height="32" width="32" xmlns="http://www.w3.org/2000/svg" xmlns:xlink="http://www.w3.org/1999/xlink"><linearGradient id="a" gradientUnits="userSpaceOnUse" x1="15.321168" x2="15.321168" y1="3" y2="29.045145"><stop offset="0" stop-color="#fff"/><stop offset="1" stop-color="#fff" stop-opacity="0"/></linearGradient><linearGradient id="b" gradientUnits="userSpaceOnUse" x1="17.036148" x2="17.036148" y1="2" y2="30.012184"><stop offset="0" stop-color="#f6f6f6"/><stop offset="1" stop-color="#d2d2d2"/></linearGradient><linearGradient id="c" gradientUnits="userSpaceOnUse" x1="10.922546" x2="10.922546" y1="2" y2="30.044857"><stop offset="0" stop-color="#aaa"/><stop offset="1" stop-color="#8c8c8c"/></linearGradient><radialGradient id="d" cx="6.702713" cy="73.615715" gradientTransform="matrix(2.2134617 0 0 .4842001 1.163803 -7.144736)" gradientUnits="userSpaceOnUse" r="7.228416"><stop offset="0"/><stop offset="1" stop-opacity="0"/></radialGradient><radialGradient id="e" cx="65.079536" cy="48.189987" gradientTransform="matrix(0 .20283583 -.22066071 0 12.851048 279.45817)" gradientUnits="userSpaceOnUse" r="31.000002"><stop offset="0" stop-color="#cdf87e"/><stop offset=".26238" stop-color="#a2e34f"/><stop offset=".66093999" stop-color="#68b723"/><stop offset="1" stop-color="#1d7e0d"/></radialGradient><linearGradient id="f" gradientTransform="matrix(.13464764 0 0 .13465998 -1.196683 291.27637)" gradientUnits="userSpaceOnUse" x1="24.377628" x2="17.064001" y1="22.098661" y2="35.86034"><stop offset="0" stop-color="#fff"/><stop offset=".00164232" stop-color="#fff" stop-opacity=".235294"/><stop offset=".39239356" stop-color="#fff" stop-opacity=".156863"/><stop offset="1" stop-color="#fff" stop-opacity=".392157"/></linearGradient><path d="m31.99982 28.5c0 1.932997-7.163364 3.5-15.99982 3.5-8.8364572 0-15.99982025-1.567003-15.99982025-3.5 0-1.932996 7.16336305-3.5 15.99982025-3.5 8.836456 0 15.99982 1.567004 15.99982 3.5z" fill="url(#d)" opacity=".2"/><path d="m13.875001 2.5c-.748739 0-1.375.595012-1.375 1.34375v1.7499996c-.473402.158876-.932751.343406-1.375.5625l-1.2187506-1.21875c-.529439-.529438-1.3768121-.529438-1.9062501 0l-3.0625 3.03125c-.529439.529438-.5294361 1.376813 0 1.90625l1.21875 1.2187504c-.224327.449932-.400632.923932-.5625 1.40625h-1.71875c-.748739 0-1.375002.595012-1.375 1.34375v4.3125c-.000001.748738.626264 1.343752 1.375 1.34375h1.71875c.161868.482318.338173.956318.5625 1.40625l-1.21875 1.21875c-.529439.529438-.52944 1.376812 0 1.90625l3.0625 3.03125c.529437.529438 1.3768131.529436 1.9062501 0l1.2187506-1.21875c.442249.219094.901598.403624 1.375.5625v1.75c-.000001.748738.626266 1.343752 1.375 1.34375h4.28125c.748739 0 1.34375-.595014 1.34375-1.34375v-1.75c.482318-.161868.956318-.338173 1.40625-.5625l1.218749 1.21875c.529439.529438 1.376811.529438 1.90625 0l3.0625-3.03125c.529439-.529438.529434-1.376814 0-1.90625l-1.25-1.25c.219094-.442249.403624-.901598.5625-1.375h1.75c.748739 0 1.34375-.595014 1.34375-1.34375v-4.3125c.000001-.748738-.595016-1.34375-1.34375-1.34375h-1.75c-.158876-.473402-.343406-.932751-.5625-1.375l1.25-1.2500004c.529439-.529438.529438-1.376812 0-1.90625l-3.0625-3.03125c-.529437-.529438-1.376814-.529438-1.90625 0l-1.218749 1.21875c-.449932-.224327-.923932-.400632-1.40625-.5625v-1.7499996c.000001-.748738-.595016-1.34375-1.34375-1.34375z" display="block" fill="url(#b)" stroke="url(#c)" stroke-linejoin="round"/><path d="m13.875 3.5c-.639758.1395957-.281426.9697545-.375 1.4468366.04636.5967705.0119 1.3871301-.6875 1.5844134-.765238.1606259-1.646003 1.0182132-2.375.3125-.5056039-.4262421-.8876726-1.0588672-1.4843755-1.3349605-.5407076.2751985-.9312289.8758937-1.4154761 1.2855789-.65407.6780039-1.3769104 1.3012472-1.9874402 2.0139211-.0380728.5386852.6156924.8085736.9067917 1.2112105.5007373.379751.9173046 1.057877.5037794 1.658859-.339832.659737-.3885068 1.81868-1.3670293 1.821641-.6582277.0529-1.36834-.113773-1.989806.09868-.2222261.620609-.049167 1.345745-.1039439 2.01001.017783.893676-.035837 1.794436.027261 2.683617.3771148.391003 1.0238323.133059 1.5243644.207694.6387783-.09371 1.4231566.122058 1.5377348.85939.1751984.712662.9292423 1.558244.2543895 2.23436-.4203558.500498-1.0498435.87899-1.3216908 1.467284.2852627.600214.9223984.985095 1.3573244 1.49305.644873.63134 1.2973181 1.296541 1.9347017 1.908072.5512981.04116.8274487-.620606 1.2366649-.919156.380101-.501806 1.060094-.917737 1.661198-.502471.649426.341936 1.787769.400533 1.788052 1.365721.05574.659036-.119745 1.379822.103948 1.995071.710824.211082 1.509181.0466 2.256608.09868.813909-.01488 1.632306.02982 2.443405-.02238.37768-.362795.119997-1.008529.196039-1.497998-.0551-.577962.02332-1.324829.6875-1.510874.777573-.148764 1.668777-1.021335 2.40625-.3125.505604.426242.887673 1.058866 1.484375 1.334961.540708-.275199.931229-.875894 1.415477-1.285579.654069-.678004 1.37691-1.301247 1.987439-2.013921.03807-.538686-.615692-.808574-.906791-1.211211-.506655-.389766-.962574-1.072006-.533721-1.692448.341936-.649426.400533-1.787769 1.365721-1.788052.664013-.04719 1.374293.101475 2.00543-.08832.191498-.733903.03991-1.547672.08832-2.314525-.01434-.799853.02907-1.604056-.02238-2.401113-.362794-.377684-1.008528-.12-1.497997-.196042-.642943.089849-1.445587-.10069-1.566443-.850505-.188353-.702416-.928196-1.541967-.25693-2.211995.435917-.4621925.929463-.876983 1.329618-1.3685903.025768-.5431202-.619513-.8080101-.915874-1.2091322-.783763-.7694808-1.576749-1.5721768-2.35283-2.3219333-.551298-.0411647-.827448.6206059-1.236664.9191558-.379751.5007372-1.057877.9173045-1.658859.5037794-.659737-.3398321-1.81868-.3885069-1.821641-1.3670294-.047192-.6640125.101477-1.3742927-.088322-2.0054283-.733901-.1915024-1.547671-.0399126-2.314523-.0883217-.740718 0-1.481437 0-2.222155 0z" display="block" fill="none" opacity=".8" stroke="url(#a)" stroke-linejoin="round"/><g transform="matrix(3.2045947 0 0 3.2045947 10.228095 -928.62239)"><path d="m.39690047 296.86769v-3.96875l3.70416663 1.98438z" fill="url(#e)"/><g fill="none"><path d="m.39690047 296.86769v-3.96875l3.70416663 1.98438z" opacity=".5" stroke="#0f5a00" stroke-linecap="round" stroke-linejoin="round" stroke-width=".264583"/><path d="m.66145832 293.34084v3.08095l2.87831118-1.53789z" opacity=".6" stroke="url(#f)" stroke-width=".262467"/></g></g></svg>