<svg height="32" width="32" xmlns="http://www.w3.org/2000/svg" xmlns:xlink="http://www.w3.org/1999/xlink"><linearGradient id="a" gradientTransform="matrix(.67568 0 0 .67568 -45.71622 .28379)" gradientUnits="userSpaceOnUse" x1="24" x2="24" y1="5" y2="43"><stop offset="0" stop-color="#fff"/><stop offset="1" stop-color="#fff" stop-opacity="0"/></linearGradient><linearGradient id="b" gradientTransform="matrix(.95341432 0 0 .95341432 .745372 .745372)" gradientUnits="userSpaceOnUse" x1="14.951138" x2="16.51833" xlink:href="#a" y1="1.315932" y2="32.781792"/><radialGradient id="c" cx="99.157013" cy="186.17059" gradientTransform="matrix(.11151981 0 0 .03548359 4.942029 23.166729)" gradientUnits="userSpaceOnUse" r="62.769119"><stop offset="0" stop-color="#3d3d3d"/><stop offset=".5" stop-color="#686868" stop-opacity=".498039"/><stop offset="1" stop-color="#686868" stop-opacity="0"/></radialGradient><linearGradient id="d" gradientTransform="matrix(.8047894 0 0 .60165743 -1570.3199 -1923.0801)" gradientUnits="userSpaceOnUse" x1="20" x2="20" y1="2" y2="32"><stop offset="0" stop-color="#ed5353"/><stop offset="1" stop-color="#c6262e"/></linearGradient><path d="m23 29.772727a7 2.2272727 0 0 1 -14 0 7 2.2272727 0 1 1 14 0z" fill="url(#c)"/><circle cx="16" cy="16" fill="url(#d)" r="13.48857" stroke="#7a0000" stroke-opacity=".488971"/><rect fill="none" height="25" opacity=".4" rx="1.3652" stroke="url(#a)" stroke-linecap="round" stroke-linejoin="round" width="25" x="-42" y="4"/><circle cx="16" cy="16" fill="none" opacity=".4" r="12.507971" stroke="url(#b)"/><path d="m10.981394 9.578109c-.72953 0-1.4604534.289698-2.0035309.832708-1.0921159 1.091982-1.0921159 2.91508 0 4.007062l3.0150769 3.012282-3.0150769 3.015076c-1.0921159 1.091981-1.092113 2.91508 0 4.007062 1.0919689 1.091833 2.9150919 1.091835 4.0070609 0l3.015077-3.017871 3.015077 3.017871c1.091967 1.091833 2.915093 1.091831 4.007061 0 1.092113-1.091982 1.092116-2.915081 0-4.007062l-3.015077-3.015076 3.015077-3.012282c1.092116-1.091982 1.092116-2.91508 0-4.007062-1.091968-1.0918304-2.915094-1.0918319-4.007061 0l-3.015077 3.015077-3.015077-3.015077c-.543077-.543009-1.274-.832709-2.00353-.832708z" fill="#7a0000" opacity=".05" stroke-width="1.430694"/><g stroke-width="1.425677"><path d="m10.999998 11.009093c-.361539 0-.722971.140087-.9999999.417076-.5540595.553991-.5540595 1.445764 0 1.999755l4.0000019 3.999508-4.0000019 3.999508c-.5540595.553991-.5540595 1.445762 0 1.999755.5540599.553991 1.4459409.553991 1.9999999 0l4.000002-3.99951 4.000002 3.99951c.55406.553991 1.445941.553991 2.000002 0 .554059-.553993.554059-1.445764 0-1.999755l-4.000003-3.999508 4.000003-3.999508c.554059-.553991.554059-1.445764 0-1.999755-.554061-.553991-1.445942-.553991-2.000002 0l-4.000002 3.999508-4.000002-3.999508c-.277029-.276995-.638461-.417076-1-.417076z" fill="#7a0000" opacity=".15"/><path d="m10.999998 9.583416c-.361539 0-.722971.140087-.9999999.417076-.5540595.553991-.5540595 1.445762 0 1.999754l4.0000019 3.999509-4.0000019 3.999508c-.5540595.553991-.5540595 1.445762 0 1.999755.5540599.553991 1.4459409.553991 1.9999999 0l4.000002-3.99951 4.000002 3.99951c.55406.553991 1.445941.553991 2.000002 0 .554059-.553993.554059-1.445764 0-1.999755l-4.000003-3.999508 4.000003-3.999509c.554059-.553992.554059-1.445763 0-1.999754-.554061-.553991-1.445942-.553991-2.000002 0l-4.000002 3.999508-4.000002-3.999508c-.277029-.276997-.638461-.417077-1-.417076z" fill="#fff"/></g></svg>