<svg height="32" width="32" xmlns="http://www.w3.org/2000/svg" xmlns:xlink="http://www.w3.org/1999/xlink"><radialGradient id="a" cx="65.08" cy="48.19" gradientTransform="matrix(0 .76662 -.834 0 48.57 -34.3)" gradientUnits="userSpaceOnUse" r="31"><stop offset="0" stop-color="#cdf87e"/><stop offset=".262" stop-color="#a2e34f"/><stop offset=".661" stop-color="#68b723"/><stop offset="1" stop-color="#1d7e0d"/></radialGradient><linearGradient id="b" gradientTransform="matrix(.5089 0 0 .50895 -4.523 10.367)" gradientUnits="userSpaceOnUse" x1="25.344" x2="17.064" y1="23.421" y2="35.86"><stop offset="0" stop-color="#fff"/><stop offset=".055" stop-color="#fff" stop-opacity=".235"/><stop offset=".392" stop-color="#fff" stop-opacity=".157"/><stop offset="1" stop-color="#fff" stop-opacity=".392"/></linearGradient><linearGradient id="c" gradientUnits="userSpaceOnUse" x1="10.377398" x2="10.377398" y1="22.057787" y2="30.911271"><stop offset="0" stop-color="#fff"/><stop offset=".508" stop-color="#fff" stop-opacity=".235"/><stop offset=".835" stop-color="#fff" stop-opacity=".157"/><stop offset="1" stop-color="#fff" stop-opacity=".392"/></linearGradient><linearGradient id="d" gradientUnits="userSpaceOnUse" x1="15.321" x2="15.321" y1="3" y2="29.045"><stop offset="0" stop-color="#fff"/><stop offset="1" stop-color="#fff" stop-opacity="0"/></linearGradient><linearGradient id="e" gradientUnits="userSpaceOnUse" x1="17.036" x2="17.036" y1="2" y2="30.012"><stop offset="0" stop-color="#f6f6f6"/><stop offset="1" stop-color="#d2d2d2"/></linearGradient><linearGradient id="f" gradientUnits="userSpaceOnUse" x1="10.923" x2="10.923" y1="2" y2="30.045"><stop offset="0" stop-color="#aaa"/><stop offset="1" stop-color="#8c8c8c"/></linearGradient><radialGradient id="g" cx="6.703" cy="73.616" gradientTransform="matrix(2.21346 0 0 .4842 1.164 -7.145)" gradientUnits="userSpaceOnUse" r="7.228"><stop offset="0"/><stop offset="1" stop-opacity="0"/></radialGradient><path d="m32 28.5c0 1.933-7.164 3.5-16 3.5s-16-1.567-16-3.5 7.164-3.5 16-3.5 16 1.567 16 3.5z" fill="url(#g)" opacity=".2"/><path d="m13.875 2.5c-.75 0-1.375.595-1.375 1.344v1.75c-.473.16-.933.343-1.375.562l-1.22-1.22c-.527-.526-1.375-.526-1.905 0l-3.062 3.034c-.53.528-.53 1.376 0 1.905l1.218 1.22c-.224.45-.4.923-.562 1.405h-1.72c-.748 0-1.374.595-1.374 1.344v4.312c0 .75.626 1.344 1.375 1.344h1.72c.16.482.337.956.56 1.406l-1.217 1.22c-.53.528-.53 1.376 0 1.905l3.062 3.033c.53.53 1.377.53 1.906 0l1.22-1.218c.44.22.9.403 1.374.562v1.75c0 .75.626 1.344 1.375 1.344h4.28c.75 0 1.345-.594 1.345-1.343v-1.75c.482-.162.956-.338 1.406-.562l1.22 1.218c.528.53 1.376.53 1.905 0l3.065-3.03c.53-.53.53-1.378 0-1.907l-1.25-1.25c.22-.442.403-.902.562-1.375h1.75c.75 0 1.344-.594 1.344-1.343v-4.312c0-.75-.594-1.344-1.343-1.344h-1.75c-.16-.472-.343-.932-.562-1.374l1.25-1.25c.53-.53.53-1.377 0-1.906l-3.067-3.038c-.528-.53-1.376-.53-1.905 0l-1.22 1.22c-.45-.225-.923-.4-1.405-.563v-1.75c0-.75-.595-1.344-1.344-1.344zm2.125 10c1.932 0 3.5 1.568 3.5 3.5s-1.568 3.5-3.5 3.5-3.5-1.568-3.5-3.5 1.568-3.5 3.5-3.5z" display="block" fill="url(#e)" stroke="url(#f)" stroke-linejoin="round"/><path d="m13.875 3.5c-.64.14-.28.97-.375 1.447.046.597.012 1.387-.688 1.584-.765.163-1.646 1.02-2.374.315-.506-.426-.888-1.06-1.485-1.335-.54.274-.93.875-1.415 1.284-.654.678-1.377 1.302-1.988 2.014-.038.54.616.81.907 1.212.5.38.917 1.057.504 1.658-.34.66-.387 1.82-1.365 1.822-.658.053-1.37-.114-1.99.1-.222.62-.05 1.344-.104 2.01.02.892-.035 1.793.028 2.682.377.39 1.024.133 1.525.208.638-.094 1.423.122 1.537.86.175.712.93 1.558.254 2.234-.42.5-1.05.88-1.322 1.467.285.6.922.987 1.357 1.495.643.63 1.296 1.297 1.933 1.908.55.04.828-.62 1.237-.92.38-.5 1.06-.917 1.662-.5.65.34 1.788.4 1.788 1.364.056.66-.12 1.38.104 1.995.71.212 1.51.048 2.257.1.815-.015 1.634.03 2.445-.022.378-.363.12-1.01.196-1.498-.054-.578.024-1.325.69-1.51.776-.15 1.667-1.023 2.405-.314.505.426.887 1.06 1.484 1.335.54-.274.93-.875 1.415-1.284.654-.68 1.377-1.303 1.987-2.015.04-.54-.615-.81-.906-1.21-.506-.39-.962-1.074-.533-1.694.342-.65.4-1.787 1.366-1.787.663-.047 1.374.1 2.005-.088.19-.734.04-1.548.088-2.315-.014-.8.03-1.604-.022-2.4-.362-.38-1.01-.12-1.497-.197-.643.09-1.446-.1-1.567-.85-.188-.703-.928-1.542-.257-2.212.435-.462.93-.876 1.33-1.37.025-.54-.62-.806-.917-1.207-.784-.77-1.577-1.572-2.353-2.322-.55-.04-.827.62-1.236.92-.38.5-1.057.917-1.658.504-.66-.34-1.82-.388-1.822-1.366-.047-.664.1-1.375-.088-2.006-.734-.19-1.548-.04-2.315-.088h-2.22z" display="block" fill="none" opacity=".8" stroke="url(#d)" stroke-linejoin="round"/><path d="m1.5 31.5v-15l12 7.5z" fill="url(#a)" transform="translate(10 -8)"/><path d="m11.5 23.5v-15l12 7.5z" fill="none" opacity=".5" stroke="#0f5a00" stroke-linecap="round" stroke-linejoin="round"/><path d="m2.5 18.17v11.645l8.88-5.813z" fill="none" opacity=".6" stroke="url(#b)" stroke-width=".992" transform="translate(10 -8)"/><g transform="matrix(1.5962 0 0 1.5962 6.756 -18.783)"><circle cx="10.5" cy="26.5" r="5" style="fill:#46a8ea;fill-opacity:.984;stroke:#2f78c8;stroke-width:.626;stroke-linecap:round;stroke-linejoin:round"/><path d="m10.176 23.044h1.253v3.76h1.88l-2.507 2.877-2.506-2.877h1.88z" fill="#fff"/><path d="m14.798 26.5c0 2.374-1.924 4.298-4.298 4.298s-4.298-1.924-4.298-4.298 1.924-4.298 4.298-4.298 4.298 1.924 4.298 4.298z" style="opacity:.5;fill:none;stroke-width:.666;stroke-linecap:round;stroke-linejoin:round;stroke:url(#c)"/></g></svg>