<svg height="32" width="32" xmlns="http://www.w3.org/2000/svg" xmlns:xlink="http://www.w3.org/1999/xlink"><linearGradient id="a"><stop offset="0" stop-color="#181818"/><stop offset="1" stop-color="#181818" stop-opacity="0"/></linearGradient><linearGradient id="b" gradientUnits="userSpaceOnUse" x1="15.999992" x2="15.999992" y1="5.189191" y2="28.810821"><stop offset="0" stop-color="#fff"/><stop offset=".06316455" stop-color="#fff" stop-opacity=".235294"/><stop offset=".95056331" stop-color="#fff" stop-opacity=".156863"/><stop offset="1" stop-color="#fff" stop-opacity=".392157"/></linearGradient><radialGradient id="c" cx="4.992979" cy="43.5" gradientTransform="matrix(2.003784 0 0 1.4 27.98813 -17.4)" gradientUnits="userSpaceOnUse" r="2.5" xlink:href="#a"/><radialGradient id="d" cx="4.992979" cy="43.5" gradientTransform="matrix(2.003784 0 0 1.4 -20.01187 -104.4)" gradientUnits="userSpaceOnUse" r="2.5" xlink:href="#a"/><linearGradient id="e" gradientUnits="userSpaceOnUse" x1="25.058096" x2="25.058096" y1="47.027729" y2="39.999443"><stop offset="0" stop-color="#181818" stop-opacity="0"/><stop offset=".5" stop-color="#181818"/><stop offset="1" stop-color="#181818" stop-opacity="0"/></linearGradient><linearGradient id="f" gradientTransform="matrix(.64999998 0 0 .25 .4 7.000001)" gradientUnits="userSpaceOnUse" x1="23.954144" x2="23.954144" y1="15.999304" y2="19.963179"><stop offset="0"/><stop offset="1" stop-opacity="0"/></linearGradient><linearGradient id="g" gradientTransform="matrix(.56307783 0 0 .53992403 2.486133 2.57077)" gradientUnits="userSpaceOnUse" x1="25.132275" x2="25.132275" y1="15.499894" y2="48.395687"><stop offset="0" stop-color="#fafafa"/><stop offset="1" stop-color="#e2e1de"/></linearGradient><linearGradient id="h" gradientUnits="userSpaceOnUse" x1="15.5" x2="15.5" y1="4.5" y2="10.5"><stop offset="0" stop-color="#ed5353"/><stop offset="1" stop-color="#c6262e"/></linearGradient><radialGradient id="i" cx="14" cy="6.741958" gradientTransform="matrix(1.4549755 -.00000003 .00000005 2.2746832 13.630343 -6.838988)" gradientUnits="userSpaceOnUse" r="2" spreadMethod="reflect"><stop offset="0" stop-color="#f2f2f2"/><stop offset="1" stop-color="#999"/></radialGradient><g opacity=".35" transform="matrix(.73684208 0 0 .42857134 -1.68421 10.857146)"><path d="m38 40h5v7h-5z" fill="url(#c)"/><path d="m-10-47h5v7h-5z" fill="url(#d)" transform="scale(-1)"/><path d="m10 40h28v7.000001h-28z" fill="url(#e)"/></g><rect fill="url(#g)" height="24" rx="1.5" width="24" x="4" y="5"/><rect fill="none" height="23" rx="1" stroke="url(#b)" stroke-linecap="round" stroke-linejoin="round" width="23" x="4.499999" y="5.5"/><path d="m3.5 11v16.5c0 1.108.892 2 2 2h21c1.108 0 2-.892 2-2v-16.5" fill="none" opacity=".3" stroke="#000"/><path d="m3 11h26v1h-26z" fill="url(#f)" opacity=".15"/><path d="m5.5 4.5c-1.108 0-2 .892-2 2v4h25v-4c0-1.108-.892-2-2-2z" fill="url(#h)"/><path d="m3.5 10.5v-3.9999991c0-1.108.892-2 2-2h21c1.108 0 2 .892 2 2v3.9999991z" fill="none" opacity=".4" stroke="#7a0000"/><path d="m5.5 5.5c-.554 0-1 .446-1 1v3h23v-3c0-.554-.446-1-1-1z" fill="none" opacity=".5" stroke="url(#b)" stroke-linecap="round"/><path d="m11.464567 11.472441a1.1023622 1.0472441 0 1 1 -2.2047246 0 1.1023622 1.0472441 0 1 1 2.2047246 0z" fill="#fff" opacity=".3" transform="matrix(.68035717 0 0 .71616543 -.54 .283835)"/><path d="m11.464567 11.472441a1.1023622 1.0472441 0 1 1 -2.2047246 0 1.1023622 1.0472441 0 1 1 2.2047246 0z" fill="#7a0000" opacity=".4" transform="matrix(.68035717 0 0 .71616543 -.54 -.716165)"/><path d="m11.464567 11.472441a1.1023622 1.0472441 0 1 1 -2.2047246 0 1.1023622 1.0472441 0 1 1 2.2047246 0z" fill="#fff" opacity=".3" transform="matrix(.68035717 0 0 .71616543 18.45 .283835)"/><path d="m11.464567 11.472441a1.1023622 1.0472441 0 1 1 -2.2047246 0 1.1023622 1.0472441 0 1 1 2.2047246 0z" fill="#7a0000" opacity=".4" transform="matrix(.68035717 0 0 .71616543 18.45 -.716165)"/><g stroke-linecap="square" stroke-opacity=".501961"><path d="m22.5 13.5h2.986008v3h-2.986008z" fill="#ed5353" stroke="#7a0000"/><path d="m22.5 18.5h2.986008v2.981255h-2.986008z" fill="#ed5353" stroke="#7a0000"/><path d="m17.513992 13.5h2.986008v3h-2.986008z" fill="#9bdb4d" stroke="#206b00"/><path d="m17.513992 18.5h2.986008v2.981255h-2.986008z" fill="#ed5353" stroke="#7a0000"/><path d="m12.527985 13.5h2.986008v3h-2.986008z" fill="#9bdb4d" stroke="#206b00"/><path d="m12.527985 18.5h2.986008v2.981255h-2.986008z" fill="#ed5353" stroke="#7a0000"/><path d="m7.527985 13.5h2.986008v3h-2.986008z" fill="#9bdb4d" stroke="#206b00"/><path d="m7.527985 18.5h2.986008v2.981255h-2.986008z" fill="#9bdb4d" stroke="#206b00"/><path d="m22.513992 23.5h2.986008v2.981255h-2.986008z" fill="#ed5353" stroke="#7a0000"/><path d="m17.527985 23.5h2.986008v2.981255h-2.986008z" fill="#64baff" stroke="#002e99"/><path d="m12.5 23.5h2.986008v2.981255h-2.986008z" fill="#9bdb4d" stroke="#206b00"/></g><g transform="matrix(.5 0 0 .41666667 5 2.583332)"><rect fill="#fff" height="11" opacity=".4" rx="2" width="4" x="32" y="2"/><rect fill="#7a0000" height="4.8" rx="3.173838" ry="3.808606" width="4" x="32" y="7.200002"/><rect fill="url(#i)" height="12.399998" rx="1.966102" ry="2" width="4" x="32" y="-1.399998"/></g><g transform="matrix(.5 0 0 .41666667 -7 2.583332)"><rect fill="#fff" height="11" opacity=".4" rx="2" width="4" x="32" y="2"/><rect fill="#7a0000" height="4.8" rx="3.173838" ry="3.808606" width="4" x="32" y="7.200002"/><rect fill="url(#i)" height="12.399998" rx="1.904121" ry="2" width="4" x="32" y="-1.399998"/></g></svg>