<svg height="32" width="32" xmlns="http://www.w3.org/2000/svg" xmlns:xlink="http://www.w3.org/1999/xlink"><linearGradient id="a" gradientTransform="matrix(.2502023 -.7175237 .7175237 .2502023 -440.92721 149.51809)" gradientUnits="userSpaceOnUse" x1="371.03683" x2="345.4321" y1="501.16919" y2="510.09763"><stop offset="0" stop-color="#cd9ef7"/><stop offset="1" stop-color="#a56de2"/></linearGradient><linearGradient id="b" gradientUnits="userSpaceOnUse" x1="13" x2="13" y1="2" y2="4.784064"><stop offset="0" stop-color="#fff"/><stop offset=".5" stop-color="#fff" stop-opacity=".235294"/><stop offset="1" stop-color="#fff" stop-opacity=".156863"/><stop offset="1" stop-color="#fff" stop-opacity=".392157"/></linearGradient><linearGradient id="c" gradientUnits="userSpaceOnUse" x1="9" x2="4.844184" y1="6.526636" y2="16.352354"><stop offset="0" stop-color="#fff"/><stop offset=".04552736" stop-color="#fff" stop-opacity=".235294"/><stop offset="1" stop-color="#fff" stop-opacity=".156863"/><stop offset="1" stop-color="#fff" stop-opacity=".392157"/></linearGradient><linearGradient id="d" gradientUnits="userSpaceOnUse" x1="17" x2="20.446054" y1="7" y2="15.74026"><stop offset="0" stop-color="#fff"/><stop offset=".04277762" stop-color="#fff" stop-opacity=".235294"/><stop offset="1" stop-color="#fff" stop-opacity=".156863"/><stop offset="1" stop-color="#fff" stop-opacity=".392157"/></linearGradient><g transform="matrix(1.3333 0 0 1.3333 .66675 -10.237561)"><path d="m11.217022 18.852618c-.102171.0058-.202897.02687-.298828.0625l-10.05000119 3.987828c-.40160024.149238-.66801784.532505-.66796875.960938v1.5c.00025827.387918.21948157.742455.56640625.916016l10.25803769 5.014975c.288888.144674.629079.144674.917968 0l10.191744-5.397096c.346925-.173561.566149-.528098.566407-.916016l.04972-1.185108c-.000401-.433374-.273307-.819666-.681641-.964844l-10.83329-4.061228c-.128857-.0462.118127.07451-.01855.08204z" opacity=".05"/><path d="m11.500225 30.511445 10.608681-5.438773v-1.135389l-10.832731-4.061227-10.40011877 3.687827v1.5z" opacity=".1"/><path d="m11.876056 29.428494 9.75195-4.957711v-12.0335l-9.976-4.008789-10.2759498 4v12.0335z" fill="url(#a)"/><path d="m11.500225 16.876056-10.1241688-4.447562.06945 11.9005 10.0547188 5.047062z" fill="#fff" opacity=".2"/><path d="m-.12394378 6.978594 23.23284978.0087893v23.9999997l-23.23284978-.0088z" fill="none"/><path d="m1.3760562 12.428494 9.3570188 4.456351 10.894931-4.359962-10.894931-4.1400375z" fill="#fff" fill-rule="evenodd" opacity=".4"/><g fill="none" stroke-width=".750019" transform="translate(-.123944 7.928494)"><path d="m2.9670882 4.717353 8.6570808 3.7654346 8.346057-3.7839785-8.573572-3.3799909z" opacity=".9" stroke="url(#b)" stroke-opacity=".659483"/><path d="m2.2438172 5.1483164v10.8922996l9.0045208 4.378608.0066-11.3661129" opacity=".6" stroke="url(#c)" stroke-opacity=".448276"/><path d="m21.002516 4.9014404v11.1099486l-9.378347 4.436173" opacity=".5" stroke="url(#d)" stroke-opacity=".448276"/><path d="m11.624169 21.447562 10.127781-4.905273v-12.0334997l-10.354531-3.99242705-9.897419 3.98363775v12.0335z" opacity=".55" stroke="#7239b3" stroke-linecap="round"/></g></g></svg>