<svg height="32" width="32" xmlns="http://www.w3.org/2000/svg" xmlns:xlink="http://www.w3.org/1999/xlink"><linearGradient id="a"><stop offset="0"/><stop offset="1" stop-opacity="0"/></linearGradient><linearGradient id="b" gradientTransform="matrix(.56756754 0 0 .40540542 -1.621623 3.270271)" gradientUnits="userSpaceOnUse" x1="40.290417" x2="40.290417" y1="6.093005" y2="41.843941"><stop offset="0" stop-color="#fff"/><stop offset=".04168307" stop-color="#fff" stop-opacity=".235294"/><stop offset=".96375686" stop-color="#fff" stop-opacity=".156863"/><stop offset="1" stop-color="#fff" stop-opacity=".392157"/></linearGradient><linearGradient id="c" gradientTransform="matrix(.52272194 0 0 .48571424 -.545325 .128572)" gradientUnits="userSpaceOnUse" x1="23.25" x2="23.25" y1="-28.809029" y2="70.294914"><stop offset="0" stop-color="#d1ff82"/><stop offset=".262" stop-color="#9bdb4d"/><stop offset=".661" stop-color="#68b723"/><stop offset="1" stop-color="#3a9104"/></linearGradient><linearGradient id="d" gradientTransform="matrix(.04224859 0 0 .00617648 -3.269828 22.735404)" gradientUnits="userSpaceOnUse" x1="302.85715" x2="302.85715" y1="366.64789" y2="609.50507"><stop offset="0" stop-opacity="0"/><stop offset=".5"/><stop offset="1" stop-opacity="0"/></linearGradient><radialGradient id="e" cx="605.71429" cy="486.64789" gradientTransform="matrix(-.01445832 0 0 .00617648 10.513465 22.735417)" gradientUnits="userSpaceOnUse" r="117.14286" xlink:href="#a"/><radialGradient id="f" cx="605.71429" cy="486.64789" gradientTransform="matrix(.01445833 0 0 .00617648 13.486574 22.735417)" gradientUnits="userSpaceOnUse" r="117.14286" xlink:href="#a"/><radialGradient id="g" cx="10.211102" cy="22.022497" gradientTransform="matrix(.98285057 0 0 .26219511 .316686 24.814592)" gradientUnits="userSpaceOnUse" r="5.896552" xlink:href="#a"/><linearGradient id="h" gradientUnits="userSpaceOnUse" x1="4.073832" x2="11.963182" y1="16.830508" y2="16.830508"><stop offset="0" stop-color="#86641c"/><stop offset=".25" stop-color="#fdeb69"/><stop offset=".375" stop-color="#be9843"/><stop offset=".5" stop-color="#dfc98b"/><stop offset=".60820836" stop-color="#fdeb69"/><stop offset="1" stop-color="#835c17" stop-opacity=".960784"/></linearGradient><linearGradient id="i" gradientTransform="matrix(0 -.39448 .42345 0 -.496 23.346)" gradientUnits="userSpaceOnUse" x1="7.604416" x2="7.857325" y1="11.003552" y2="12.489676"><stop offset="0" stop-color="#fff"/><stop offset=".512" stop-color="#fff" stop-opacity=".235"/><stop offset=".585" stop-color="#fff" stop-opacity=".157"/><stop offset="1" stop-color="#fff" stop-opacity=".392"/></linearGradient><g transform="matrix(1.33333 0 0 1.33333 3.835029 1.508541)"><path d="m.500118 4.5h18.735495v9.743442h-18.735495z" fill="url(#c)"/><path d="m.500118 4.5h18.743643v9.739822h-18.743643z" style="opacity:.5;fill:none;stroke:#206b00;stroke-width:.750002;stroke-linecap:round;stroke-linejoin:round"/><rect height="8.194338" rx=".5" style="opacity:.3;fill:none;stroke-width:.750002;stroke-linecap:round;stroke-linejoin:round;stroke:url(#b)" width="17.254045" x="1.23034" y="5.284272"/><circle cx="10.065617" cy="9.861602" fill="#619b26" r="3.271867"/><circle cx="10.029662" cy="9.466102" fill="#418d16" r="3.271867"/><circle cx="15.994367" cy="9.475232" fill="#619b26" r=".995971"/><circle cx="15.998765" cy="9.001696" fill="#418d16" r=".995971"/><circle cx="3.994367" cy="9.475232" fill="#619b26" r=".995971"/><circle cx="3.998765" cy="9.001696" fill="#418d16" r=".995971"/></g><g transform="matrix(1.33333 0 0 1.33333 -.164972 -13.158099)"><path d="m1.800003 24.999998h20.400034v1.500003h-20.400034z" fill="url(#d)" opacity=".15"/><path d="m1.8000031 25.000062v1.49992c-.7445682.002824-1.8000031-.336056-1.8000031-.750056s.83088183-.749863 1.8000031-.749864z" fill="url(#e)" opacity=".15"/><path d="m22.200038 25.000062v1.49992c.744568.0028 1.800003-.336056 1.800003-.750056s-.830882-.749863-1.800003-.749864z" fill="url(#f)" opacity=".15"/></g><g transform="matrix(1.33333 0 0 1.33333 -.164972 -1.491459)"><path d="m.500118 4.5h18.735495v9.743442h-18.735495z" fill="url(#c)"/><path d="m.500118 4.5h18.743643v9.739822h-18.743643z" style="opacity:.5;fill:none;stroke:#206b00;stroke-width:.750002;stroke-linecap:round;stroke-linejoin:round"/><rect height="8.194338" rx=".5" style="opacity:.3;fill:none;stroke-width:.750002;stroke-linecap:round;stroke-linejoin:round;stroke:url(#b)" width="17.254045" x="1.23034" y="5.284272"/><circle cx="10.065617" cy="9.861602" fill="#619b26" r="3.271867"/><circle cx="10.029662" cy="9.466102" fill="#418d16" r="3.271867"/><circle cx="15.994367" cy="9.475232" fill="#619b26" r=".995971"/><circle cx="15.998765" cy="9.001696" fill="#418d16" r=".995971"/><circle cx="3.994367" cy="9.475232" fill="#619b26" r=".995971"/><circle cx="3.998765" cy="9.001696" fill="#418d16" r=".995971"/></g><g transform="matrix(1.33333 0 0 1.33333 -.164972 -13.158099)"><g stroke-linecap="round" stroke-linejoin="round" transform="matrix(1.3104641 0 0 1.33333 -.260683 3.614086)"><ellipse cx="8.018507" cy="16.830509" fill="#fff394" rx="3.444675" ry="1.646508" stroke="url(#h)" stroke-opacity=".915441" stroke-width=".562503"/><ellipse cx="8.006522" cy="16.842493" fill="none" rx="2.8683" ry="1.123802" stroke="url(#i)" stroke-opacity=".610294" stroke-width=".567389"/></g><ellipse cx="10.352673" cy="30.588783" fill="url(#g)" opacity=".57" rx="5.795429" ry="1.546047"/><g stroke-linecap="round" stroke-linejoin="round"><g transform="matrix(1.3104641 0 0 1.33333 -.260683 6.614093)"><ellipse cx="8.018507" cy="16.830509" fill="#fff394" rx="3.444675" ry="1.646508" stroke="url(#h)" stroke-opacity=".915441" stroke-width=".562503"/><ellipse cx="8.006522" cy="16.842493" fill="none" rx="2.8683" ry="1.123802" stroke="url(#i)" stroke-opacity=".610294" stroke-width=".567389"/></g><g transform="matrix(1.3104641 0 0 1.33333 -.260683 5.864091)"><ellipse cx="8.018507" cy="16.830509" fill="#fff394" rx="3.444675" ry="1.646508" stroke="url(#h)" stroke-opacity=".915441" stroke-width=".562503"/><ellipse cx="8.006522" cy="16.842493" fill="none" rx="2.8683" ry="1.123802" stroke="url(#i)" stroke-opacity=".610294" stroke-width=".567389"/></g><g transform="matrix(1.3104641 0 0 1.33333 -.260683 5.114089)"><ellipse cx="8.018507" cy="16.830509" fill="#fff394" rx="3.444675" ry="1.646508" stroke="url(#h)" stroke-opacity=".915441" stroke-width=".562503"/><ellipse cx="8.006522" cy="16.842493" fill="none" rx="2.8683" ry="1.123802" stroke="url(#i)" stroke-opacity=".610294" stroke-width=".567389"/></g><g transform="matrix(1.3104641 0 0 1.33333 -.260683 4.364087)"><ellipse cx="8.018507" cy="16.830509" fill="#fff394" rx="3.444675" ry="1.646508" stroke="url(#h)" stroke-opacity=".915441" stroke-width=".562503"/><ellipse cx="8.006522" cy="16.842493" fill="none" rx="2.8683" ry="1.123802" stroke="url(#i)" stroke-opacity=".610294" stroke-width=".567389"/></g><g transform="matrix(1.3104641 0 0 1.33333 -.260683 3.614086)"><ellipse cx="8.018507" cy="16.830509" fill="#fff394" rx="3.444675" ry="1.646508" stroke="url(#h)" stroke-opacity=".915441" stroke-width=".562503"/><ellipse cx="8.006522" cy="16.842493" fill="none" rx="2.8683" ry="1.123802" stroke="url(#i)" stroke-opacity=".610294" stroke-width=".567389"/></g><g transform="matrix(1.3104641 0 0 1.33333 -.260683 2.864084)"><ellipse cx="8.018507" cy="16.830509" fill="#fff394" rx="3.444675" ry="1.646508" stroke="url(#h)" stroke-opacity=".915441" stroke-width=".562503"/><ellipse cx="8.006522" cy="16.842493" fill="none" rx="2.8683" ry="1.123802" stroke="url(#i)" stroke-opacity=".610294" stroke-width=".567389"/></g><g transform="matrix(1.3104641 0 0 1.33333 -.260683 2.114082)"><ellipse cx="8.018507" cy="16.830509" fill="#fff394" rx="3.444675" ry="1.646508" stroke="url(#h)" stroke-opacity=".915441" stroke-width=".562503"/><ellipse cx="8.006522" cy="16.842493" fill="none" rx="2.8683" ry="1.123802" stroke="url(#i)" stroke-opacity=".610294" stroke-width=".567389"/></g><g transform="matrix(1.3104641 0 0 1.33333 -.260683 1.36408)"><ellipse cx="8.018507" cy="16.830509" fill="#fff394" rx="3.444675" ry="1.646508" stroke="url(#h)" stroke-opacity=".915441" stroke-width=".562503"/><ellipse cx="8.006522" cy="16.842493" fill="none" rx="2.8683" ry="1.123802" stroke="url(#i)" stroke-opacity=".610294" stroke-width=".567389"/></g><g transform="matrix(1.3104641 0 0 1.33333 -.260683 .614078)"><ellipse cx="8.018507" cy="16.830509" fill="#fff394" rx="3.444675" ry="1.646508" stroke="url(#h)" stroke-opacity=".915441" stroke-width=".562503"/><ellipse cx="8.006522" cy="16.842493" fill="none" rx="2.8683" ry="1.123802" stroke="url(#i)" stroke-opacity=".610294" stroke-width=".567389"/></g><g transform="matrix(1.3104641 0 0 1.33333 -.260683 -.135924)"><ellipse cx="8.018507" cy="16.830509" fill="#fff394" rx="3.444675" ry="1.646508" stroke="url(#h)" stroke-opacity=".915441" stroke-width=".562503"/><ellipse cx="8.006522" cy="16.842493" fill="none" rx="2.8683" ry="1.123802" stroke="url(#i)" stroke-opacity=".610294" stroke-width=".567389"/></g><g transform="matrix(1.0038737 .84235009 -.857048 1.02139 22.381238 4.272075)"><ellipse cx="8.018507" cy="16.830509" fill="#fff394" rx="3.444675" ry="1.646508" stroke="url(#h)" stroke-opacity=".915441" stroke-width=".562503"/><ellipse cx="8.006522" cy="16.842493" fill="none" rx="2.8683" ry="1.123802" stroke="url(#i)" stroke-opacity=".610294" stroke-width=".567389"/></g><g transform="matrix(1.0038737 .84235009 -.857048 1.02139 22.86333 3.69754)"><ellipse cx="8.018507" cy="16.830509" fill="#fff394" rx="3.444675" ry="1.646508" stroke="url(#h)" stroke-opacity=".915441" stroke-width=".562503"/><ellipse cx="8.006522" cy="16.842493" fill="none" rx="2.8683" ry="1.123802" stroke="url(#i)" stroke-opacity=".610294" stroke-width=".567389"/></g></g></g><g fill="none" transform="matrix(1.33333 0 0 1.33333 -.164972 -11.158099)"><path d="m13.498047 13.654297a6.0188156 2.9271107 0 0 0 -6.0195314 2.927734 6.0188156 2.9271107 0 0 0 .09375.507813 6.0188156 2.9271107 0 0 0 -.09375.492187 6.0188156 2.9271107 0 0 0 .09375.507813 6.0188156 2.9271107 0 0 0 -.09375.492187 6.0188156 2.9271107 0 0 0 .09375.507813 6.0188156 2.9271107 0 0 0 -.09375.492187 6.0188156 2.9271107 0 0 0 .09375.507813 6.0188156 2.9271107 0 0 0 -.09375.492187 6.0188156 2.9271107 0 0 0 .09375.507813 6.0188156 2.9271107 0 0 0 -.09375.492187 6.0188156 2.9271107 0 0 0 .09375.507813 6.0188156 2.9271107 0 0 0 -.09375.492187 6.0188156 2.9271107 0 0 0 .09375.507813 6.0188156 2.9271107 0 0 0 -.09375.492187 6.0188156 2.9271107 0 0 0 .09375.507813 6.0188156 2.9271107 0 0 0 -.09375.492187 6.0188156 2.9271107 0 0 0 .09375.507813 6.0188156 2.9271107 0 0 0 -.09375.492187 6.0188156 2.9271107 0 0 0 6.0195314 2.925781 6.0188156 2.9271107 0 0 0 5.650391-1.929687 6.0188156 2.9271107 40.000001 0 0 .146484.128906 6.0188156 2.9271107 40.000001 0 0 6.492187 1.626953 6.0188156 2.9271107 40.000001 0 0 .25586-.449218 6.0188156 2.9271107 40.000001 0 0 .386719-.31836 6.0188156 2.9271107 40.000001 0 0 -2.728516-6.109375 6.0188156 2.9271107 40.000001 0 0 -4.220703-2.166015 6.0188156 2.9271107 0 0 0 -.05664-.21875 6.0188156 2.9271107 0 0 0 .09375-.490235 6.0188156 2.9271107 0 0 0 -.09375-.509765 6.0188156 2.9271107 0 0 0 .09375-.490235 6.0188156 2.9271107 0 0 0 -.09375-.509765 6.0188156 2.9271107 0 0 0 .09375-.490235 6.0188156 2.9271107 0 0 0 -6.019532-2.927734z" stroke="#86641c" stroke-linecap="round" stroke-linejoin="round" stroke-opacity=".738589" stroke-width=".991388" transform="matrix(.75000188 0 0 .75000188 .123729 8.368595)"/><path d="m14.217961 28.126004c-1.039114-1.083208-2.228628-2.146819-2.480873-3.523558l.323592-.683139" stroke="#8f6e21" stroke-opacity=".618257" stroke-width=".750002"/></g></svg>