<svg height="32" viewBox="0 0 32 32" width="32" xmlns="http://www.w3.org/2000/svg" xmlns:xlink="http://www.w3.org/1999/xlink"><linearGradient id="a" gradientTransform="matrix(.2502023 -.7175237 .7175237 .2502023 -474.2609 139.20483)" gradientUnits="userSpaceOnUse" x1="371.03683" x2="345.4321" y1="501.16919" y2="510.09763"><stop offset="0" stop-color="#cd9ef7"/><stop offset="1" stop-color="#a56de2"/></linearGradient><linearGradient id="b" gradientTransform="matrix(1.0588245 0 0 1.0588245 -.705894 7.294098)" gradientUnits="userSpaceOnUse" x1=".810737" x2="18.867233" xlink:href="#a" y1="12.425143" y2="13.385594"/><linearGradient id="c" gradientTransform="matrix(1.0588245 0 0 1.0588245 -.705894 7.294098)" gradientUnits="userSpaceOnUse" x1="12.52824" x2="21.076271" xlink:href="#a" y1="2.621487" y2="17.89266"/><linearGradient id="d" gradientUnits="userSpaceOnUse" x1="10.669111" x2="11.12962" y1="13.032969" y2="17.707065"><stop offset="0" stop-color="#fff"/><stop offset=".5" stop-color="#fff" stop-opacity=".235294"/><stop offset=".81289846" stop-color="#fff" stop-opacity=".156863"/><stop offset="1" stop-color="#fff" stop-opacity=".392157"/></linearGradient><linearGradient id="e" gradientUnits="userSpaceOnUse" x1="12.115686" x2="11.759895" y1="9.571678" y2="17.947737"><stop offset="0" stop-color="#fff"/><stop offset=".04277762" stop-color="#fff" stop-opacity=".235294"/><stop offset="1" stop-color="#fff" stop-opacity=".156863"/><stop offset="1" stop-color="#fff" stop-opacity=".392157"/></linearGradient><radialGradient id="f" cx="2.25" cy="16" gradientTransform="matrix(.479894 0 0 .21577304 10.772975 23.906455)" gradientUnits="userSpaceOnUse" r="16.875"><stop offset="0"/><stop offset="1" stop-opacity="0"/></radialGradient><g transform="matrix(1.33333 0 0 1.33333 -.216062 -12.050777)"><ellipse cx="11.852737" cy="27.358826" display="block" fill="url(#f)" fill-rule="evenodd" opacity=".245" rx="8.098211" ry="3.641174" stroke-width="1.361877"/><g stroke-opacity=".6639"><path d="m20.787447 15.757966c0 5.647062-17.258043 5.653804-17.258043.0067 0-5.647062 17.258043-5.653803 17.258043-.0067" fill="url(#c)" opacity=".986928" stroke="#7239b3" stroke-width=".750002"/><path d="m3.529404 15.764694v8.470596c0 2.339049 3.792415 4.235298 8.470596 4.235298s8.787447-1.902991 8.787447-4.24204v-8.470596c0 2.339049-4.109266 4.24204-8.787447 4.24204s-8.470596-1.896249-8.470596-4.235298" fill="url(#b)" opacity=".986928" stroke="#7239b3" stroke-width=".750002"/><g fill="none"><path d="m4.5566735 10.451073v5.503906c0 .715601.7906392 1.572189 2.107389 2.230568s3.2240361 1.095703 5.3359375 1.095703c2.111901 0 4.019188-.437324 5.335938-1.095703 1.316749-.658379 2.161789-1.48268 2.161789-2.198281v-5.503906c-.404832.346389-.995498.727438-1.519211.989296-1.578681.789346-3.672139 1.246094-5.978516 1.246094-2.3063766 0-4.3998349-.456748-5.9785156-1.246094-.5237139-.261858-1.0599785-.675194-1.4648109-1.021583z" opacity=".986928" stroke="url(#e)" stroke-width=".708334" transform="matrix(1.0588245 0 0 1.0588245 -.543817 7.294098)"/><ellipse cx="12.157776" cy="15.693607" opacity=".9" rx="7.841847" ry="3.363121" stroke="url(#d)" stroke-width=".750002"/></g></g></g></svg>