<svg height="32" viewBox="0 0 32 32" width="32" xmlns="http://www.w3.org/2000/svg" xmlns:xlink="http://www.w3.org/1999/xlink"><linearGradient id="a" gradientUnits="userSpaceOnUse" x1="15" x2="15" xlink:href="#f" y1="5" y2="10"/><linearGradient id="b" gradientUnits="userSpaceOnUse" x1="7.5" x2="7.5" xlink:href="#f" y1="5.5" y2="9.5"/><linearGradient id="c" gradientUnits="userSpaceOnUse" x1="-11.999999" x2="-27" xlink:href="#f" y1="8" y2="8"/><linearGradient id="d" gradientTransform="matrix(-.42884 0 0 -.3995 25.192 27.996)" gradientUnits="userSpaceOnUse" x1="33.093929" x2="14.438951" y1="47.549438" y2="10.002503"><stop offset="0" stop-color="#f0c1ff"/><stop offset=".262" stop-color="#c5a3f2"/><stop offset=".932" stop-color="#7a36b1"/><stop offset="1" stop-color="#4c2d81"/></linearGradient><linearGradient id="e" gradientTransform="matrix(0 .4682 -.50257 0 27.137 4.255)" gradientUnits="userSpaceOnUse" x1="17.5" x2="17.5" y1="10.5" y2="18"><stop offset="0" stop-color="#fff"/><stop offset=".512" stop-color="#fff" stop-opacity=".235"/><stop offset=".585" stop-color="#fff" stop-opacity=".157"/><stop offset="1" stop-color="#fff" stop-opacity=".392"/></linearGradient><linearGradient id="f" gradientUnits="userSpaceOnUse" x1="12.5" x2="12.5" y1="20.5" y2="24.5"><stop offset="0" stop-color="#9bdb4d"/><stop offset="1" stop-color="#68b723"/></linearGradient><linearGradient id="g" gradientTransform="matrix(.35135134 0 0 .24324327 1.567566 2.162163)" gradientUnits="userSpaceOnUse" x1="40.290417" x2="40.290417" xlink:href="#j" y1="7.555553" y2="40.444439"/><linearGradient id="h" gradientTransform="matrix(.35135134 0 0 .24324327 4.575712 5.159459)" gradientUnits="userSpaceOnUse" x1="40.290417" x2="40.290417" xlink:href="#j" y1="7.555553" y2="40.444439"/><linearGradient id="i" gradientTransform="matrix(.35135134 0 0 .24324327 4.567566 5.162164)" gradientUnits="userSpaceOnUse" x1="40.290417" x2="40.290417" xlink:href="#j" y1="7.555553" y2="40.444439"/><linearGradient id="j"><stop offset="0" stop-color="#fff"/><stop offset=".00000001" stop-color="#fff" stop-opacity=".235294"/><stop offset="1" stop-color="#fff" stop-opacity=".156863"/><stop offset="1" stop-color="#fff" stop-opacity=".392157"/></linearGradient><linearGradient id="k" gradientTransform="matrix(.35135134 0 0 .24324327 4.567566 11.162164)" gradientUnits="userSpaceOnUse" x1="8.346159" x2="8.346159" xlink:href="#j" y1="11.666657" y2="56.888874"/><linearGradient id="l" gradientTransform="matrix(.59435837 0 0 .59991402 54.401937 -.032678)" gradientUnits="userSpaceOnUse" x1="12" x2="12" y1="1.393398" y2="22.462784"><stop offset="0" stop-color="#fafafa"/><stop offset="1" stop-color="#e2e1de"/></linearGradient><rect height="27" rx=".703702" ry=".740739" style="opacity:.8;stroke:#000;stroke-linecap:round;stroke-linejoin:round;stroke-opacity:.298039;fill:url(#l)" width="27" x="2.5" y="2.5"/><path d="m12.5 5.5h14v4h-14z" fill="url(#a)" stroke="#206b00" stroke-opacity=".501961"/><path d="m5.5 5.5h4v4h-4z" fill="url(#b)" stroke="#206b00" stroke-opacity=".501961"/><path d="m6.5 6.500001 2-.000001v1.9518l-2 .000001z" fill="none" opacity=".3" stroke="url(#i)" stroke-linecap="round" stroke-linejoin="round"/><path d="m-26.489849 5.5h13.989849v4h-13.989849z" fill="url(#c)" stroke="#206b00" stroke-opacity=".501961" transform="rotate(-90)"/><g stroke-linecap="round" stroke-linejoin="round"><g fill="none"><path d="m6.5 13.5h2v12h-2z" opacity=".3" stroke="url(#k)"/><path d="m13.5 6.5 12.016621.020071v1.9518l-12.016621-.020071z" opacity=".3" stroke="url(#h)"/><path d="m3.5 3.5 25.008475.022775-.008475 24.977225h-25z" stroke="url(#g)"/></g><g stroke-opacity=".592" transform="translate(6 4)"><path d="m17.5 7.4999992-3 3.5000008.5.5h1.5v4c0 2-.70944 4-3.5 4h-3.5v-1.5l-.5-.5-3.5 3 3.5 3 .5-.5v-1.5h4c3-.288087 5-2.266914 5-6v-4h1.5l.5-.5z" display="block" fill="url(#d)" stroke="#5f2a8a"/><path d="m17.5 8.9999992-1.304688 1.5234388h.304688c.539404-.000153.976715.437158.976562.976562v4c0 .413445-.06413.838342-.130859 1.259766.0701-.407457.177735-.766828.177735-1.259766v-4c-.000153-.539404.437158-.976715.976562-.976562h.304688zm-.224609 8.2539068c-.121385.492882-.33002.966558-.617188 1.41211.261685-.395625.476154-.854362.617188-1.41211zm-.710938 1.583985c-.705801.981242-1.953883 1.638671-3.564453 1.638671h-3.5c-.5394038.000153-.9767152-.437158-.976562-.976562v-.304688l-1.523438 1.304688 1.523438 1.304688v-.304688c-.0001532-.539404.4371582-.976715.976562-.976562h3.921875c1.3-.128182 2.279935-.589867 2.96875-1.375.07241-.08253.107142-.219561.173828-.310547z" display="block" fill="none" opacity=".5" stroke="url(#e)"/></g></g></svg>