<svg height="32" viewBox="0 0 32 32" width="32" xmlns="http://www.w3.org/2000/svg" xmlns:xlink="http://www.w3.org/1999/xlink"><linearGradient id="a" gradientUnits="userSpaceOnUse" x1="12.5" x2="12.5" xlink:href="#c" y1="20.5" y2="24.5"/><linearGradient id="b" gradientUnits="userSpaceOnUse" x1="16" x2="16" xlink:href="#c" y1="6.5" y2="10.5"/><linearGradient id="c"><stop offset="0" stop-color="#64baff"/><stop offset="1" stop-color="#3689e6"/></linearGradient><linearGradient id="d" gradientUnits="userSpaceOnUse" x1="10" x2="10" xlink:href="#c" y1="13.5" y2="17.5"/><linearGradient id="e" gradientTransform="matrix(.35135134 0 0 .24324327 1.567566 2.162163)" gradientUnits="userSpaceOnUse" x1="40.290417" x2="40.290417" xlink:href="#h" y1="7.555553" y2="40.444439"/><linearGradient id="f" gradientTransform="matrix(.35135134 0 0 .24324327 4.567566 6.162164)" gradientUnits="userSpaceOnUse" x1="40.290417" x2="40.290417" xlink:href="#h" y1="7.555553" y2="40.444439"/><linearGradient id="g" gradientTransform="matrix(.35135134 0 0 .24324327 4.567566 13.162164)" gradientUnits="userSpaceOnUse" x1="40.290417" x2="40.290417" xlink:href="#h" y1="7.555553" y2="40.444439"/><linearGradient id="h"><stop offset="0" stop-color="#fff"/><stop offset="0" stop-color="#fff" stop-opacity=".235294"/><stop offset="1" stop-color="#fff" stop-opacity=".156863"/><stop offset="1" stop-color="#fff" stop-opacity=".392157"/></linearGradient><linearGradient id="i" gradientTransform="matrix(.35135134 0 0 .24324327 4.567566 20.162164)" gradientUnits="userSpaceOnUse" x1="41.076927" x2="41.076927" xlink:href="#h" y1="7.555547" y2="11.666657"/><linearGradient id="j" gradientTransform="matrix(.59435837 0 0 .59991402 54.401937 -.032678)" gradientUnits="userSpaceOnUse" x1="12" x2="12" y1="1.393398" y2="22.462784"><stop offset="0" stop-color="#fafafa"/><stop offset="1" stop-color="#e2e1de"/></linearGradient><rect height="27" rx=".703702" ry=".740739" style="opacity:.8;stroke:#000;stroke-linecap:round;stroke-linejoin:round;stroke-opacity:.298039;fill:url(#j)" width="27" x="2.5" y="2.5"/><rect fill="url(#b)" height="4.010074" rx=".415234" ry=".545961" width="20.990179" x="5.501677" y="6.502705"/><rect fill="none" height="4.010074" opacity=".5" rx=".336052" ry=".319329" stroke="#002e99" stroke-linecap="round" stroke-linejoin="round" width="20.990177" x="5.501677" y="6.502705"/><rect fill="url(#d)" height="4" rx=".578125" width="9" x="5.5" y="13.5"/><rect fill="none" height="4" opacity=".5" rx=".34375" ry=".296875" stroke="#002e99" stroke-linecap="round" stroke-linejoin="round" width="9" x="5.5" y="13.5"/><path d="m6.5 14.500001h7.002648v1.9518h-7.002648z" fill="none" opacity=".3" stroke="url(#g)" stroke-linecap="round" stroke-linejoin="round"/><rect fill="url(#a)" height="4.00577" rx=".476307" ry=".839922" width="14.989848" x="5.510152" y="20.49423"/><g fill="none" stroke-linecap="round" stroke-linejoin="round"><rect height="4.00577" opacity=".5" rx=".476307" ry=".50577" stroke="#002e99" width="14.989848" x="5.510152" y="20.49423"/><path d="m6.5 21.5h13.002648v1.985698h-13.002648z" opacity=".3" stroke="url(#i)"/><path d="m6.5 7.500001 19.008475.022775v1.9518l-19.008475-.022775z" opacity=".3" stroke="url(#f)"/><path d="m3.5 3.5 25.008475.022775-.008475 24.977225h-25z" stroke="url(#e)"/></g></svg>