<svg height="32" viewBox="0 0 8.4666665 8.4666668" width="32" xmlns="http://www.w3.org/2000/svg" xmlns:xlink="http://www.w3.org/1999/xlink"><linearGradient id="a" gradientTransform="matrix(.1253 0 0 .12505 7.4 2.462)" gradientUnits="userSpaceOnUse" x1="-2.85" x2="-2.85" y1="39.618" y2="22.673"><stop offset="0" stop-color="#fff"/><stop offset=".429" stop-color="#fff" stop-opacity=".235"/><stop offset=".75" stop-color="#fff" stop-opacity=".157"/><stop offset="1" stop-color="#fff" stop-opacity=".392"/></linearGradient><linearGradient id="b" gradientUnits="userSpaceOnUse" x1="6.68942" x2="6.68942" y1="4.690774" y2="8.020411"><stop offset="0" stop-color="#fff"/><stop offset=".5" stop-color="#fff" stop-opacity=".235"/><stop offset=".75" stop-color="#fff" stop-opacity=".157"/><stop offset="1" stop-color="#fff" stop-opacity=".392"/></linearGradient><linearGradient id="c" gradientTransform="matrix(.16127 0 0 .16182 2.563 .27)" gradientUnits="userSpaceOnUse" x1="30.194" x2="26.541" y1="27.546" y2="33.269"><stop offset="0" stop-color="#fff"/><stop offset="0" stop-color="#fff" stop-opacity=".235"/><stop offset=".539" stop-color="#fff" stop-opacity=".157"/><stop offset="1" stop-color="#fff" stop-opacity=".392"/></linearGradient><linearGradient id="d" gradientTransform="matrix(.17664 0 0 .13205 -364.15 -420.756)" gradientUnits="userSpaceOnUse" x1="2094.899" x2="2094.899" y1="3215.689" y2="3249.04"><stop offset="0" stop-color="#64baff"/><stop offset="1" stop-color="#3689e6"/></linearGradient><radialGradient id="e" cx="99.157" cy="186.171" gradientTransform="matrix(.02652 0 0 .00844 3.79 6.375)" gradientUnits="userSpaceOnUse" r="62.769"><stop offset="0" stop-color="#3d3d3d"/><stop offset=".5" stop-color="#686868" stop-opacity=".498"/><stop offset="1" stop-color="#686868" stop-opacity="0"/></radialGradient><radialGradient id="f" cx="605.714" cy="486.648" gradientTransform="matrix(.0032 0 0 .00218 5.62 6.61)" gradientUnits="userSpaceOnUse" r="117.143" xlink:href="#h"/><linearGradient id="g"><stop offset="0"/><stop offset="1" stop-opacity="0"/></linearGradient><linearGradient id="h" xlink:href="#g"/><radialGradient id="i" cx="605.714" cy="486.648" gradientTransform="matrix(.0032 0 0 .00218 3.503 5.286)" gradientUnits="userSpaceOnUse" r="117.143" xlink:href="#h"/><linearGradient id="j" gradientTransform="matrix(.27278 0 0 .3079 -.107 290.402)" gradientUnits="userSpaceOnUse" x1="11.001" x2="11.001" xlink:href="#k" y1="2.269" y2="19.728"/><linearGradient id="k"><stop offset="0" stop-color="#fff"/><stop offset=".063" stop-color="#fff" stop-opacity=".235"/><stop offset=".951" stop-color="#fff" stop-opacity=".157"/><stop offset="1" stop-color="#fff" stop-opacity=".392"/></linearGradient><linearGradient id="l" gradientTransform="matrix(.27447 0 0 .28068 -.113 290.553)" gradientUnits="userSpaceOnUse" x1="8.295" x2="8.295" y1="-4.284" y2="16.85"><stop offset="0" stop-color="#cdf87e"/><stop offset=".262" stop-color="#a2e34f"/><stop offset=".661" stop-color="#68b723"/><stop offset="1" stop-color="#1d7e0d"/></linearGradient><linearGradient id="m" gradientTransform="matrix(.1323 0 0 .06615 -.265 291.444)" gradientUnits="userSpaceOnUse" x1="23.954" x2="23.954" xlink:href="#g" y1="15.999" y2="19.963"/><linearGradient id="n" gradientTransform="matrix(.1347 0 0 .14642 -.198 290.374)" gradientUnits="userSpaceOnUse" x1="24" x2="24" xlink:href="#k" y1="5" y2="43"/><linearGradient id="o" gradientTransform="matrix(.11794 0 0 .11905 .212 290.644)" gradientUnits="userSpaceOnUse" x1="25.132" x2="25.132" y1="15.5" y2="48.396"><stop offset="0" stop-color="#fafafa"/><stop offset="1" stop-color="#e2e1de"/></linearGradient><g transform="matrix(1.33333 0 0 1.33333 .176 -387.532)"><rect fill="url(#o)" height="5.556" rx=".198" width="1.191" x=".463" y="291.047"/><path d="m.543 291.18.896-.132.016 5.555-.896.132z" fill="none" stroke="url(#n)" stroke-linecap="round" stroke-linejoin="round" stroke-width=".201"/><path d="m.265 292.436h5.555v.198h-5.554z" fill="url(#m)" opacity=".15"/><path d="m.364 292.24-.005 4.143c0 .152.154.317.306.317h.87" fill="none" opacity=".3" stroke="#000" stroke-width=".201"/><path d="m1.455 292.436h.2v4.167h-.2zm-.992.794h.992v.198h-.992zm1.191 0v.198zm-1.19 1.19h.99v.2h-.99zm1.19 0v.2zm-1.19 1.19h.99v.2h-.99zm1.19 0v.2z" opacity=".321"/><path d="m.592 290.944c-.158 0-.226.17-.226.33v.964h5.354v-.963c0-.162-.118-.322-.276-.322z" fill="url(#l)"/><path d="m.68 290.948c-.152 0-.316.184-.316.336v1.048l5.357.004v-1.055c0-.15-.143-.33-.295-.33z" fill="none" opacity=".4" stroke="#126400" stroke-linecap="round" stroke-width=".201"/><path d="m.56 291.14.002 1.002 4.975.01v-1.002z" style="opacity:.5;fill:none;stroke-width:.201;stroke-linecap:round;stroke-linejoin:round;stroke:url(#j)"/><path d="m1.455 291.047h.2v1.19h-.2zm1.39 0h.2v1.19h-.2zm1.388 0h.2v1.19h-.2z" fill="#126400" opacity=".4"/></g><path d="m5.424 6.085v.53c.164 0 .397-.12.397-.265 0-.146-.182-.265-.396-.265z" fill="url(#i)" opacity=".15" transform="translate(-.53 -.265)"/><path d="m7.54 7.408v.53c.165 0 .397-.12.397-.265 0-.146-.183-.265-.396-.265z" fill="url(#f)" opacity=".15" transform="translate(-.53 -.265)"/><path d="m8.086 7.946a1.665.53 0 1 1 -3.33 0 1.665.53 0 1 1 3.33 0z" fill="url(#e)" transform="translate(-.53 -.265)"/><path d="m6.497 3.86v.608a1.892 1.892 0 0 0 -.076-.003 1.892 1.892 0 0 0 -1.89 1.89 1.892 1.892 0 0 0 1.889 1.895 1.892 1.892 0 0 0 1.89-1.82h-.91a.984.984 0 0 1 -.98.91.984.984 0 0 1 -.983-.985.984.984 0 0 1 .984-.984.984.984 0 0 1 .077.004v.602l1.665-1.06z" fill="url(#d)" opacity=".99" transform="translate(-.53 -.265)"/><g fill="none" stroke-width=".265"><path d="m6.648 4.705v-.575l1.23.79-1.23.78v-.537" opacity=".5" stroke="url(#c)" transform="translate(-.53 -.265)"/><path d="m8.134 6.668a1.74 1.74 0 0 1 -1.97 1.41 1.74 1.74 0 0 1 -1.472-1.92 1.74 1.74 0 0 1 1.872-1.538" opacity=".5" stroke="url(#b)" transform="translate(-.53 -.265)"/><path d="m8.22 6.584h-.693c-.086.592-.732 1-1.316.89-.614-.118-1.02-.707-.906-1.322.11-.596.67-1 1.266-.92" opacity=".5" stroke="url(#a)" transform="translate(-.53 -.265)"/><path d="m5.967 3.594v.61a1.892 1.892 0 0 0 -.077-.004 1.892 1.892 0 0 0 -1.89 1.89 1.892 1.892 0 0 0 1.89 1.894 1.892 1.892 0 0 0 1.89-1.817h-.91a.984.984 0 0 1 -.98.91.984.984 0 0 1 -.983-.985.984.984 0 0 1 .984-.984.984.984 0 0 1 .077.004v.602l1.665-1.06z" opacity=".5" stroke="#002e99" stroke-linecap="round" stroke-linejoin="round"/></g></svg>