<svg height="32" viewBox="0 0 8.4666665 8.4666669" width="32" xmlns="http://www.w3.org/2000/svg" xmlns:xlink="http://www.w3.org/1999/xlink"><linearGradient id="a" gradientTransform="matrix(.34011127 .09113254 -.09058277 .3380595 17.977012 10.391815)" gradientUnits="userSpaceOnUse" x1="24.139" x2="24.139" y1="10.631" y2="35.623001"><stop offset="0" stop-color="#fff"/><stop offset="0" stop-color="#fff" stop-opacity=".235"/><stop offset="1" stop-color="#fff" stop-opacity=".157"/><stop offset="1" stop-color="#fff" stop-opacity=".392"/></linearGradient><linearGradient id="b" gradientUnits="userSpaceOnUse" x1="13.170449" x2="16.062" y1="1039.4801" y2="1051.126"><stop offset="0" stop-color="#ff8c82"/><stop offset="1" stop-color="#c6262e"/></linearGradient><linearGradient id="c" gradientTransform="matrix(-.22263 -.3738 .38562 -.21582 26.913 54.14)" gradientUnits="userSpaceOnUse" spreadMethod="reflect" x1="82.924004" x2="107.101" y1="27.59" y2="27.913"><stop offset="0" stop-color="#c2c3c4"/><stop offset=".095" stop-color="#c4c5c8"/><stop offset="1" stop-color="#fcfcfc"/></linearGradient><linearGradient id="d" gradientUnits="userSpaceOnUse" x1="7.36684" x2="22.257999" y1="19.642704" y2="11.067"><stop offset="0" stop-opacity=".34"/><stop offset="1" stop-opacity=".247"/></linearGradient><linearGradient id="e" gradientTransform="matrix(.93366733 0 0 .93268006 -573.98076 151.34913)" gradientUnits="userSpaceOnUse" x1="6.402414" x2="21.341391" y1="11.972253" y2="3.347231"><stop offset="0" stop-color="#fff"/><stop offset="0" stop-color="#fff" stop-opacity=".235"/><stop offset=".99999994" stop-color="#fff" stop-opacity=".157"/><stop offset="1" stop-color="#fff" stop-opacity=".392"/></linearGradient><g stroke-width=".75"><path d="m10.115644 20.653763 2.347093-1.355094 2.671428-10.2026259 7.670417-4.4285179c-.301411-1.5580355-.676412-2.2075562-1.875005-3.2476035l-7.670417 4.4285179-10.1714471-2.7877881-2.34709215 1.3550941 4.63137925 7.9882544z" fill="url(#c)" fill-rule="evenodd" stroke="url(#d)" stroke-linejoin="round" transform="matrix(-.17638845 .30551374 -.30551374 -.17638845 9.020333 1.478658)"/><path d="m10.384 19.6 1.441993-.799735 2.680688-10.2079716 7.39721-4.2707816c-.237741-1.1617815-.237741-1.1617815-1.125003-1.9485621l-7.39721 4.2707816-10.180707-2.7824418-1.4358286.8289758z" fill="none" stroke="url(#e)" transform="matrix(-.17638845 .30551374 -.30551374 -.17638845 9.020333 1.478658)"/></g><g transform="matrix(.26458333 0 0 .26458333 0 .529167)"><path d="m11.17 1044.173 3.85 1.973 4.744754-8.3852 2.097246 1.1492.597384.3257-6.397384 11.8903-7.48-4.568 1.903-2.89z" fill="url(#b)" transform="matrix(1.2069243 .3233944 -.3233944 1.2069243 340.26629 -1244.3831)"/><g fill="none"><path d="m19.564331 24.893847 8.960863-8.892801 1.743625 1.57901m-10.011425 10.419101-6.523214-6.228842 1.514962-1.502094" opacity=".5" stroke="url(#a)" stroke-width="1.2495"/><path d="m28.74 14.694c-.235-.09-.508-.034-.695.164l-7.946 8.44-4.35-4.264c-.26-.25-.667-.244-.916.02l-2.303 2.13c-.247.263-.24.678.02.928l6.75 6.95c.06.06.233.168.306.197.24.097.42-.022.61-.224l10.717-11.38c.25-.264.24-.68-.018-.93l-1.953-1.894c-.065-.062-.143-.108-.22-.138z" opacity=".5" stroke="#7a0000" stroke-linecap="round" stroke-linejoin="round" stroke-width=".9996"/></g></g></svg>