<svg viewBox="0 0 32 32" xmlns="http://www.w3.org/2000/svg" xmlns:xlink="http://www.w3.org/1999/xlink"><linearGradient id="a" gradientTransform="matrix(1.0540373 0 0 1.2200853 -.878036 -4.41284)" gradientUnits="userSpaceOnUse" x1="16" x2="16" y1="18.5" y2="25"><stop offset="0" stop-color="#fafafa"/><stop offset="1" stop-color="#e1e1e1"/></linearGradient><linearGradient id="b" gradientTransform="matrix(.85580995 0 0 .96310694 21.324798 .238673)" gradientUnits="userSpaceOnUse" x1="16.5" x2="16.5" y1="20" y2="23"><stop offset="0" stop-color="#fff"/><stop offset="0" stop-color="#fff" stop-opacity=".235294"/><stop offset="1" stop-color="#fff" stop-opacity=".156863"/><stop offset="1" stop-color="#fff" stop-opacity=".392157"/></linearGradient><radialGradient id="c" cx="65.324997" cy="48.709" gradientTransform="matrix(0 .68598 -.74626 0 60.288 -27.737)" gradientUnits="userSpaceOnUse" r="31"><stop offset="0" stop-color="#d1ff82"/><stop offset=".262" stop-color="#9bdb4d"/><stop offset=".661" stop-color="#68b723"/><stop offset="1" stop-color="#3a9104"/></radialGradient><linearGradient id="d" gradientTransform="matrix(.4227 0 0 .38513 14.545 15.083)" gradientUnits="userSpaceOnUse" x1="24.139" x2="24.139" xlink:href="#e" y1="10.171" y2="36.136002"/><linearGradient id="e"><stop offset="0" stop-color="#fff"/><stop offset="0" stop-color="#fff" stop-opacity=".235"/><stop offset="1" stop-color="#fff" stop-opacity=".157"/><stop offset="1" stop-color="#fff" stop-opacity=".392"/></linearGradient><linearGradient id="f" gradientTransform="matrix(.38833 0 0 .41842 15.3 14.318)" gradientUnits="userSpaceOnUse" x1="24.139" x2="24.139" xlink:href="#e" y1="20.749001" y2="25.528"/><radialGradient id="g" cx="4.992979" cy="43.5" gradientTransform="matrix(2.003784 0 0 1.4 27.98813 -17.4)" gradientUnits="userSpaceOnUse" r="2.5" xlink:href="#h"/><linearGradient id="h"><stop offset="0" stop-color="#181818"/><stop offset="1" stop-color="#181818" stop-opacity="0"/></linearGradient><radialGradient id="i" cx="4.992979" cy="43.5" gradientTransform="matrix(2.003784 0 0 1.4 -20.01187 -104.4)" gradientUnits="userSpaceOnUse" r="2.5" xlink:href="#h"/><linearGradient id="j" gradientUnits="userSpaceOnUse" x1="25.058096" x2="25.058096" y1="47.027729" y2="39.999443"><stop offset="0" stop-color="#181818" stop-opacity="0"/><stop offset=".5" stop-color="#181818"/><stop offset="1" stop-color="#181818" stop-opacity="0"/></linearGradient><linearGradient id="k" gradientUnits="userSpaceOnUse" x1="14.26548" x2="14.26548" y1=".638623" y2="-32.688384"><stop offset="0" stop-color="#fafafa"/><stop offset="1" stop-color="#d4d4d4"/></linearGradient><linearGradient id="l" gradientTransform="matrix(.67567568 0 0 .67567567 -.216213 -.216209)" gradientUnits="userSpaceOnUse" x1="23.999996" x2="23.999996" y1="6.239989" y2="41.759991"><stop offset="0" stop-color="#fff"/><stop offset=".04026115" stop-color="#fff" stop-opacity=".235294"/><stop offset=".95833331" stop-color="#fff" stop-opacity=".156863"/><stop offset="1" stop-color="#fff" stop-opacity=".392157"/></linearGradient><g opacity=".4" transform="matrix(.73684208 0 0 .57142853 -1.68421 4.142858)"><path d="m38 40h5v7h-5z" fill="url(#g)"/><path d="m-10-47h5v7h-5z" fill="url(#i)" transform="scale(-1)"/><path d="m10 40h28v7.000001h-28z" fill="url(#j)"/></g><rect fill="url(#k)" height="27" rx="1.677537" stroke-width="1.038462" transform="scale(1 -1)" width="27" x="2.5" y="-29.5"/><rect fill="none" height="27" opacity=".5" rx="2.16" stroke="#555761" stroke-linecap="round" stroke-linejoin="round" width="27" x="2.5" y="2.5"/><rect fill="none" height="25" rx="1.086957" ry="1.190476" stroke="url(#l)" stroke-linecap="round" stroke-linejoin="round" width="25" x="3.5" y="3.5"/><g fill-rule="evenodd"><path d="m5.2218912 5.221965a.44444569.44444569 0 0 1 -.888891 0 .44444569.44444569 0 1 1 .888891 0z" fill="#fff"/><path d="m5.2218912 4.77752a.44444569.44444569 0 0 1 -.888891 0 .44444569.44444569 0 1 1 .888891 0z" opacity=".3"/><path d="m27.666891 5.221965a.44444561.44444561 0 0 1 -.88889 0 .44444561.44444561 0 1 1 .88889 0z" fill="#fff"/><path d="m27.666891 4.77752a.44444561.44444561 0 0 1 -.88889 0 .44444561.44444561 0 1 1 .88889 0z" opacity=".3"/><path d="m5.2218912 27.66669a.44444569.44444569 0 0 1 -.888891 0 .44444569.44444569 0 1 1 .888891 0z" fill="#fff"/><path d="m5.2218912 27.222244a.44444569.44444569 0 0 1 -.888891 0 .44444569.44444569 0 1 1 .888891 0z" opacity=".3"/><path d="m27.666891 27.66669a.44444561.44444561 0 0 1 -.88889 0 .44444561.44444561 0 1 1 .88889 0z" fill="#fff"/><path d="m27.666891 27.222244a.44444561.44444561 0 0 1 -.88889 0 .44444561.44444561 0 1 1 .88889 0z" opacity=".3"/></g><rect fill="#b5b5b5" height="5" rx="1" width="20" x="6" y="9"/><rect fill="#cacaca" height="4" rx="1" width="20" x="6" y="10"/><rect fill="url(#a)" height="6" rx="1" stroke="#656565" stroke-linecap="round" stroke-linejoin="round" stroke-opacity=".529825" width="17" x="7.5" y="18.5"/><rect fill="none" height="6" opacity=".5" rx="1.060805" ry="1.007075" width="16.999998" x="7.5" y="18.5"/><rect fill="none" height="4" rx=".491849" ry=".5" stroke="url(#b)" stroke-linecap="round" stroke-linejoin="round" stroke-opacity=".529825" width="15" x="8.5" y="19.5"/><g fill="#4d4d4d"><path d="m12 21h1v1h-1z"/><path d="m13 20h1v1h-1z"/><path d="m14 21h1v1h-1z"/><path d="m12 22h1v1h-1z"/><path d="m14 22h1v1h-1z"/><path d="m13 23h1v1h-1z"/><path d="m16 20h1v1h-1z"/><path d="m16 21h1v1h-1z"/><path d="m16 22h1v1h-1z"/><path d="m16 23h1v1h-1z"/><path d="m18 20h1v1h-1z"/><path d="m17 21h1v1h-1z"/><path d="m18 22h1v1h-1z"/><path d="m18 23h1v1h-1z"/></g><g transform="translate(-.007 -.007)"><path d="m21.5 21.5v-4h5v4h4l.007 5h-4.007v4.007h-5v-4.007h-4v-5z" fill="url(#c)" stroke="#206b00" stroke-linecap="round" stroke-linejoin="round" stroke-opacity=".501961"/><g fill="none"><path d="m22.5 23.003v-4.503h3v4.497m0 2.003v4.5h-3v-4.5" opacity=".5" stroke="url(#d)"/><path d="m26 22.512 3.5-.01v2.987l-3.5.01m-4 0-3.5-.01v-2.989l3.5.012" opacity=".5" stroke="url(#f)"/></g></g></svg>