<svg height="32" width="32" xmlns="http://www.w3.org/2000/svg" xmlns:xlink="http://www.w3.org/1999/xlink"><linearGradient id="a"><stop offset="0"/><stop offset="1" stop-opacity="0"/></linearGradient><radialGradient id="b" cx="605.714" cy="486.648" gradientTransform="matrix(.01566 0 0 .00824 17.56 25.98)" gradientUnits="userSpaceOnUse" r="117.143" xlink:href="#a"/><radialGradient id="c" cx="605.714" cy="486.648" gradientTransform="matrix(-.01566 0 0 .00824 13.39 25.98)" gradientUnits="userSpaceOnUse" r="117.143" xlink:href="#a"/><linearGradient id="d" gradientTransform="matrix(.04763 0 0 .00824 -1.716 25.98)" gradientUnits="userSpaceOnUse" x1="302.857" x2="302.857" y1="366.648" y2="609.505"><stop offset="0" stop-opacity="0"/><stop offset=".5"/><stop offset="1" stop-opacity="0"/></linearGradient><linearGradient id="e" gradientTransform="matrix(1.21622 0 0 1.43243 -17.095 -17.36)" gradientUnits="userSpaceOnUse" x1="24" x2="24" y1="14.078" y2="32.463"><stop offset="0" stop-color="#fff"/><stop offset=".134" stop-color="#fff" stop-opacity=".235"/><stop offset=".947" stop-color="#fff" stop-opacity=".157"/><stop offset="1" stop-color="#fff" stop-opacity=".392"/></linearGradient><radialGradient id="f" cx="13.003" cy="8.45" gradientTransform="matrix(0 1.9151 -1.62407 0 29.183 -22.96)" gradientUnits="userSpaceOnUse" r="20"><stop offset="0" stop-color="#5f5f5f"/><stop offset=".262" stop-color="#4f4f4f"/><stop offset=".705" stop-color="#3b3b3b"/><stop offset="1" stop-color="#2b2b2b"/></radialGradient><linearGradient id="g" gradientTransform="matrix(1.7092 0 0 1.81216 -25.56 -27.052)" gradientUnits="userSpaceOnUse" x1="24" x2="24" y1="31.26" y2="10.166"><stop offset="0" stop-color="#272727"/><stop offset="1" stop-color="#454545"/></linearGradient><path d="m4 29h23v2h-23z" fill="url(#d)" opacity=".15"/><path d="m3.95 29v2c-.807.004-1.95-.448-1.95-1s.9-1 1.95-1z" fill="url(#c)" opacity=".15"/><path d="m27 29v2c.807.004 1.95-.448 1.95-1s-.9-1-1.95-1z" fill="url(#b)" opacity=".15"/><g stroke-linecap="round" stroke-linejoin="round"><path d="m14.938 2.49c-1.118.09-2.16 1.143-3.024.598-.214.98-1.273.218-1.226 1.037-1.28.996-2.114 2.633-2.018 4.29-.21 1.304.445 2.938-.373 4.01-.256 1.26-.05 2.638.38 3.846.886 1.35 2.257 2.46 2.565 4.148.145 1.567-1.546 2.443-2.586 3.297-1.628 1.124-3.36 1.984-5.156 2.802v3h25v-3c-2.843-.35-5.738-2.716-7.508-4.538-.372-.357-.52-.76-.545-1.18.105-.128.197-.247.31-.382l-.308.05c.1-.95.8-1.942 1.33-2.663 1.095-.922 1.664-2.273 1.677-3.705.364-1.412-.732-2.474-.477-3.907-.034-1.817.232-4.003-1.29-5.326-1.714-1.492-4.028-2.266-6.27-2.35-.163-.033-.323-.04-.483-.027z" fill="url(#f)" stroke="url(#g)"/><path d="m15.313 3.393c-.277-.058-.702.113-1.313.375-.305.13-.643.275-1.063.344-.163.027-.374-.078-.562-.094-.08.083-.096.225-.188.28-.254.157-.427.166-.593.19-.055.132-.14.25-.25.343-1.047.816-1.764 2.216-1.688 3.532.01.072.01.146 0 .22-.07.438.016 1.107.063 1.874.038.654-.053 1.437-.44 2.156-.204 1.01-.05 2.186.314 3.25.793 1.158 2.285 2.368 2.656 4.406v.063c.104 1.123-.49 2.045-1.125 2.657-.634.612-1.364 1.038-1.813 1.406l-.03.063c-1.528 1.052-3.151 1.832-4.781 2.592v1.562l23.07-.034v-1.563c-2.57-.51-5.324-2.523-7.1-4.372l-.032-.03c-.883-.88-.94-2.14-.625-3.064.318-.936.923-1.71 1.343-2.282.036-.057.078-.11.125-.156.888-.746 1.366-1.807 1.376-3 .002-.074.012-.148.032-.22.11-.434.01-.826-.188-1.436-.185-.568-.448-1.33-.344-2.22.008-.066-.012-.118 0-.187-.01-.898.04-1.828-.062-2.594-.11-.822-.354-1.427-.907-1.907-1.523-1.327-3.66-2.05-5.718-2.126-.054-.006-.106-.016-.158-.03z" fill="none" opacity=".5" stroke="url(#e)"/></g></svg>