<svg height="32" viewBox="0 0 8.4666665 8.4666668" width="32" xmlns="http://www.w3.org/2000/svg" xmlns:xlink="http://www.w3.org/1999/xlink"><linearGradient id="a"><stop offset="0"/><stop offset="1" stop-opacity="0"/></linearGradient><linearGradient id="b" gradientUnits="userSpaceOnUse" x1="10.824" x2="10.824" xlink:href="#a" y1="39" y2="21.232"/><linearGradient id="c" gradientTransform="matrix(.501 0 .12918 .4821 -1.37 6.372)" gradientUnits="userSpaceOnUse" spreadMethod="reflect" x1=".365" x2="28.06" y1="19.599" y2="19.599"><stop offset="0" stop-color="#ffcd7d"/><stop offset=".262" stop-color="#fc8f36"/><stop offset="1" stop-color="#e23a0e"/></linearGradient><linearGradient id="d" gradientTransform="matrix(.37774 0 .09673 .36102 1.566 7.157)" gradientUnits="userSpaceOnUse" spreadMethod="reflect" x1="30" x2="-11" y1="30" y2="30"><stop offset="0" stop-color="#ba3d12"/><stop offset="1" stop-color="#db6737"/></linearGradient><linearGradient id="e" gradientTransform="matrix(.46662 0 0 .4721 .802 1.436)" gradientUnits="userSpaceOnUse" x1="24.002" x2="22.876" y1="9.295" y2="37.168"><stop offset="0" stop-color="#fff"/><stop offset=".131" stop-color="#fff" stop-opacity=".235"/><stop offset=".902" stop-color="#fff" stop-opacity=".157"/><stop offset="1" stop-color="#fff" stop-opacity=".392"/></linearGradient><linearGradient id="f" gradientTransform="matrix(.27278 0 0 .3079 -.107 290.402)" gradientUnits="userSpaceOnUse" x1="11.001" x2="11.001" xlink:href="#g" y1="2.269" y2="19.728"/><linearGradient id="g"><stop offset="0" stop-color="#fff"/><stop offset=".063" stop-color="#fff" stop-opacity=".235"/><stop offset=".951" stop-color="#fff" stop-opacity=".157"/><stop offset="1" stop-color="#fff" stop-opacity=".392"/></linearGradient><linearGradient id="h" gradientTransform="matrix(.27447 0 0 .28068 -.113 290.553)" gradientUnits="userSpaceOnUse" x1="8.295" x2="8.295" y1="-4.284" y2="16.85"><stop offset="0" stop-color="#cdf87e"/><stop offset=".262" stop-color="#a2e34f"/><stop offset=".661" stop-color="#68b723"/><stop offset="1" stop-color="#1d7e0d"/></linearGradient><linearGradient id="i" gradientTransform="matrix(.1323 0 0 .06615 -.265 291.444)" gradientUnits="userSpaceOnUse" x1="23.954" x2="23.954" xlink:href="#a" y1="15.999" y2="19.963"/><linearGradient id="j" gradientTransform="matrix(.1347 0 0 .14642 -.198 290.374)" gradientUnits="userSpaceOnUse" x1="24" x2="24" xlink:href="#g" y1="5" y2="43"/><linearGradient id="k" gradientTransform="matrix(.11794 0 0 .11905 .212 290.644)" gradientUnits="userSpaceOnUse" x1="25.132" x2="25.132" y1="15.5" y2="48.396"><stop offset="0" stop-color="#fafafa"/><stop offset="1" stop-color="#e2e1de"/></linearGradient><g transform="matrix(1.33333 0 0 1.33333 .176 -387.532)"><rect fill="url(#k)" height="5.556" rx=".198" width="1.191" x=".463" y="291.047"/><path d="m.543 291.18.896-.132.016 5.555-.896.132z" fill="none" stroke="url(#j)" stroke-linecap="round" stroke-linejoin="round" stroke-width=".201"/><path d="m.265 292.436h5.555v.198h-5.554z" fill="url(#i)" opacity=".15"/><path d="m.364 292.24-.005 4.143c0 .152.154.317.306.317h.87" fill="none" opacity=".3" stroke="#000" stroke-width=".201"/><path d="m1.455 292.436h.2v4.167h-.2zm-.992.794h.992v.198h-.992zm1.191 0v.198zm-1.19 1.19h.99v.2h-.99zm1.19 0v.2zm-1.19 1.19h.99v.2h-.99zm1.19 0v.2z" opacity=".321"/><path d="m.592 290.944c-.158 0-.226.17-.226.33v.964h5.354v-.963c0-.162-.118-.322-.276-.322z" fill="url(#h)"/><path d="m.68 290.948c-.152 0-.316.184-.316.336v1.048l5.357.004v-1.055c0-.15-.143-.33-.295-.33z" fill="none" opacity=".4" stroke="#126400" stroke-linecap="round" stroke-width=".201"/><path d="m.56 291.14.002 1.002 4.975.01v-1.002z" style="opacity:.5;fill:none;stroke-width:.201;stroke-linecap:round;stroke-linejoin:round;stroke:url(#f)"/><path d="m1.455 291.047h.2v1.19h-.2zm1.39 0h.2v1.19h-.2zm1.388 0h.2v1.19h-.2z" fill="#126400" opacity=".4"/></g><path d="m6.938 23.353c-1.817.023-3.338.167-3.75.312l-.22-.27h-2l5.626 7.23h2l-2.28-2.427c.676.087 2.47-.26 4.78-.247 2.803.018 3.63.375 6.594.378 2.964.002 5.447-.178 5.218-.442l-3-4.36c-.138-.2-2.664.24-5.437.203-2.995-.042-3.926-.346-6.564-.377-.33-.004-.652-.004-.968 0z" fill="url(#b)" opacity=".25" transform="matrix(.22322 0 0 .22322 2.693 1.267)"/><path d="m3.052 3.53h.223l1.195 4.464h-.22z" fill="#fff"/><path d="m-1.608 9.976h2v21.74h-2z" fill="none" opacity=".366" stroke="#000" stroke-linejoin="round" stroke-width="1.206" transform="matrix(.22322 0 .05777 .2156 2.693 1.267)"/><path d="m3.078 10.685c-.17-.568 2.195-1.267 4.833-1.177 2.64.09 3.57.96 6.563 1.08 2.773.11 5.284-1.157 5.422-.578l3 11.202c.23.765-2.236 1.296-5.2 1.288-2.965-.008-3.79-1.034-6.593-1.083-2.802-.048-4.84 1.422-5.054.353z" fill="url(#c)" fill-rule="evenodd" stroke="url(#d)" stroke-linejoin="round" stroke-width="1.185" transform="matrix(.22322 0 0 .22322 2.693 1.267)"/><path d="m8.063 5.5c-1.486-.066-2.995.13-4.094.375-.55.123-.974.25-1.25.375-.11.05-.177.096-.22.125v13.625c.218-.02.624-.13 1.156-.28 1.118-.317 2.693-.758 4.438-.72 1.718.037 2.81.418 3.812.78 1 .364 1.926.714 3.594.72 1.704.006 3.313-.178 4.47-.406.576-.114 1.05-.264 1.343-.375.1-.04.136-.068.187-.095v-13.469c-.312.063-.744.16-1.313.282-1.22.266-2.915.565-4.75.5-1.8-.063-2.94-.39-3.968-.718-1.03-.33-1.94-.655-3.408-.72z" fill="none" opacity=".5" stroke="url(#e)" stroke-width="1.548" transform="matrix(.17622 0 .0444 .16567 2.903 2.686)"/></svg>