<svg height="32" width="32" xmlns="http://www.w3.org/2000/svg" xmlns:xlink="http://www.w3.org/1999/xlink"><linearGradient id="a"><stop offset="0"/><stop offset="1" stop-opacity="0"/></linearGradient><linearGradient id="b" gradientTransform="matrix(.56757 0 0 .72973 2.3784 -2.5135)" gradientUnits="userSpaceOnUse" x1="4.619" x2="43.381" y1="32.222" y2="32.222"><stop offset="0" stop-color="#fff"/><stop offset=".036262" stop-color="#fff" stop-opacity=".23529"/><stop offset=".95056" stop-color="#fff" stop-opacity=".15686"/><stop offset="1" stop-color="#fff" stop-opacity=".39216"/></linearGradient><linearGradient id="c"><stop offset="0" stop-color="#f4f4f4"/><stop offset="1" stop-color="#dbdbdb"/></linearGradient><linearGradient id="d" gradientTransform="matrix(.62857 0 0 .60839 .91432 -.53479)" gradientUnits="userSpaceOnUse" x1="11.273" x2="44.682" xlink:href="#c" y1="27.178" y2="25.534"/><radialGradient id="e" cx="605.71" cy="486.65" gradientTransform="matrix(.015663 0 0 .0082353 17.61 25.981)" gradientUnits="userSpaceOnUse" r="117.14" xlink:href="#a"/><radialGradient id="f" cx="605.71" cy="486.65" gradientTransform="matrix(-.015663 0 0 .0082353 14.39 25.981)" gradientUnits="userSpaceOnUse" r="117.14" xlink:href="#a"/><linearGradient id="g" gradientTransform="matrix(.045769 0 0 .0082353 -.54232 25.981)" gradientUnits="userSpaceOnUse" x1="302.86" x2="302.86" y1="366.65" y2="609.51"><stop offset="0" stop-opacity="0"/><stop offset=".5"/><stop offset="1" stop-opacity="0"/></linearGradient><linearGradient id="h" gradientTransform="matrix(.53064 0 0 .5897 39.27 -1.7919)" gradientUnits="userSpaceOnUse" x1="-21.238" x2="-68.351" y1="31.867" y2="35.258"><stop offset="0" stop-opacity=".31783"/><stop offset="1" stop-opacity=".24031"/></linearGradient><linearGradient id="i" gradientTransform="translate(0 -5)" gradientUnits="userSpaceOnUse" x1="10" x2="10" y2="22"><stop offset="0" stop-color="#fff"/><stop offset="1" stop-color="#fff" stop-opacity="0"/></linearGradient><linearGradient id="j" gradientUnits="userSpaceOnUse" x1="12" x2="12" y1="18" y2="7"><stop offset="0" stop-color="#232323"/><stop offset=".8" stop-color="#535353"/><stop offset=".8" stop-color="#676767"/><stop offset="1" stop-color="#676767"/></linearGradient><linearGradient id="k" gradientTransform="matrix(.48572 0 0 -.25857 -.65717 10.219)" gradientUnits="userSpaceOnUse" x1="30.176" x2="30.176" xlink:href="#l" y1="47.256" y2="-26.225"/><linearGradient id="l" gradientTransform="matrix(.48572 0 0 .4563 -34.657 -3.3139)" gradientUnits="userSpaceOnUse" x1="25.132" x2="25.132" xlink:href="#c" y1=".98521" y2="47.013"/><linearGradient id="m" gradientTransform="matrix(.48572 0 0 -.25857 -.65713 24.719)" gradientUnits="userSpaceOnUse" x1="28.118" x2="28.118" xlink:href="#l" y1="91.732" y2="22.118"/><linearGradient id="n" gradientTransform="matrix(.40541 0 0 .51351 2.2697 -2.3243)" gradientUnits="userSpaceOnUse" x1="24" x2="24" y1="6.4737" y2="41.526"><stop offset="0" stop-color="#fff"/><stop offset=".055929" stop-color="#fff" stop-opacity=".23529"/><stop offset="1" stop-color="#fff" stop-opacity=".15686"/><stop offset="1" stop-color="#fff" stop-opacity=".39216"/></linearGradient><g transform="translate(-2.4407 -2.4407)"><path d="m4.95 29h22.1v2h-22.1z" fill="url(#g)" opacity=".15"/><path d="m4.95 29v1.9999c-.80662.0038-1.95-.44807-1.95-1.0001 0-.552.90012-.99982 1.95-.99982z" fill="url(#f)" opacity=".15"/><path d="m27.05 29v1.9999c.80661.0038 1.95-.44807 1.95-1.0001 0-.552-.90012-.99982-1.95-.99982z" fill="url(#e)" opacity=".15"/></g><g transform="matrix(0 1 -1 0 31 -1)"><path d="m5 1c5.0413 0 22 .00179 22 .00179v27.998h-22v-28z" fill="url(#d)"/><g fill="none" stroke-linejoin="round"><path d="m26.5 28.5h-21v-27h21z" stroke="url(#b)" stroke-linecap="round"/><path d="m4.5.49994c5.2705 0 23 .002 23 .002l.000024 28.998h-23v-29z" stroke="url(#h)" stroke-width=".99992"/></g></g><g fill="#2c465d" fill-opacity=".32549"><path d="m4 4h1v22h-1z" opacity=".7"/><path d="m10 4h1v22h-1z" opacity=".7"/><path d="m16 4h1v22h-1z" opacity=".7"/><path d="m22 4h1v22h-1z" opacity=".7"/><path d="m28 4h1v22h-1z" opacity=".7"/></g><g fill="#2c465d" fill-opacity=".32549" transform="matrix(0 1 -1.2727 0 35.091 3)"><path d="m4 4h1v22h-1z" opacity=".7"/><path d="m10 4h1v22h-1z" opacity=".7"/><path d="m16 4h1v22h-1z" opacity=".7"/><path d="m22 4h1v22h-1z" opacity=".7"/></g><path d="m4.4994 7.494h24.01v17.975h-24.01z" fill="none" stroke="#e25757" stroke-dasharray="1 1" stroke-dashoffset=".5"/><g transform="translate(10 11)"><path d="m6 1v1c4.158.0000752 11.293-.0000752 12 0v-1c-.70734-.0000752-7.842.0000752-12 0z" fill="#fff" opacity=".4"/><path d="m6 1v14h12v-14zm1 1h10v12h-10z" fill="url(#i)" opacity=".4"/><path d="m4.7812 5.5-.125.15625-2 2-.1562.125v9.7188h19v-9.7188l-.15625-.125-2-2-.125-.1562h-14.219z" fill="url(#j)"/><path d="m4.7812 5.5-.125.15625-2 2-.1562.125v9.7188h19v-9.7188l-.15625-.125-2-2-.125-.1562h-14.219z" fill="none" opacity=".71" stroke="#000"/><path d="m5.5 7c3.8955 0 13-.0008 13-.0008l.000021-6.4992h-13v6.5z" fill="url(#k)"/><path d="m3 8h18v1h-18z" fill="#fff" opacity=".2"/><path d="m5.3438 0c-.2142.070153-.355.27491-.3438.5v6.5h1v-6c3.9461.0000956 11.373-.0000956 12 0v6h1v-6.5c0-.27614-.224-.49999-.5-.5h-13c-.0312-.0029361-.0626-.0029361-.0938 0-.0208-.0013033-.0416-.0013033-.0624 0z" opacity=".3"/><path d="m5.5 7h13v1h-13z" opacity=".4"/><path d="m5-16h14v1h-14z" fill="#505050" transform="scale(1 -1)"/><path d="m6 14h12v1h-12z" opacity=".2"/><path d="m5 16h14v1h-14z" opacity=".4"/><path d="m19 20-.5-5h-13l-.5 5z" fill="url(#m)"/><path d="m5 14.875-.5 5.5c-.0774.299.1909.635.5.625h14c.30915.0098.57744-.32555.5-.625l-.5-5.5v.125h-.90625v.5l.25 4.5h-.25v.03125h-11.094v-.031h-1.3438l.25-4.5v-.5h-.9062z" opacity=".3"/><path d="m7 16h9v1h-9z" opacity=".2"/><path d="m18 10h2v2h-2z" fill="#0cceff"/><path d="m17.502 6.5054-11.008-.00519.00978-4.9989 10.997.00328z" fill="none" stroke="url(#n)" stroke-linecap="round"/><path d="m10 18h6v1h-6z" opacity=".2"/></g></svg>