<svg height="32" viewBox="0 0 8.4666665 8.4666669" width="32" xmlns="http://www.w3.org/2000/svg" xmlns:xlink="http://www.w3.org/1999/xlink"><radialGradient id="a" cx="10.90426" cy="8.449767" gradientTransform="matrix(0 1.4781634 -1.2641963 0 22.68791 -7.539267)" gradientUnits="userSpaceOnUse" r="19.99999"><stop offset="0" stop-color="#5f5f5f"/><stop offset=".26238" stop-color="#4f4f4f"/><stop offset=".704952" stop-color="#3b3b3b"/><stop offset="1" stop-color="#2b2b2b"/></radialGradient><linearGradient id="b" gradientTransform="matrix(1 0 0 1.0512821 -11.99436 -5.138484)" gradientUnits="userSpaceOnUse" x1="24" x2="24" y1="44" y2="3.899002"><stop offset="0" stop-color="#272727"/><stop offset="1" stop-color="#454545"/></linearGradient><linearGradient id="c" gradientTransform="matrix(.89189189 0 0 1.0540541 -11.404723 -5.205)" gradientUnits="userSpaceOnUse" x1="23.99999" x2="23.99999" y1="14.915504" y2="32.595779"><stop offset="0" stop-color="#fff"/><stop offset=".12291458" stop-color="#fff" stop-opacity=".235294"/><stop offset=".93706012" stop-color="#fff" stop-opacity=".156863"/><stop offset="1" stop-color="#fff" stop-opacity=".392157"/></linearGradient><linearGradient id="d" gradientTransform="matrix(-.00271019 .50014348 -.5122065 -.00277662 -10.621166 -10.412536)" gradientUnits="userSpaceOnUse" x1="25.392431" x2="57.252823" y1="-47.435898" y2="-47.821854"><stop offset="0" stop-color="#fff394"/><stop offset=".262" stop-color="#ffe16b"/><stop offset=".661" stop-color="#f9c440"/><stop offset="1" stop-color="#d48e15"/></linearGradient><linearGradient id="e" gradientUnits="userSpaceOnUse" x1="12.481989" x2="12.481988" y1="3.919039" y2="12.91907"><stop offset="0" stop-color="#fff"/><stop offset=".09999992" stop-color="#fff" stop-opacity=".235294"/><stop offset="1" stop-color="#fff" stop-opacity=".156863"/><stop offset="1" stop-color="#fff" stop-opacity=".392157"/></linearGradient><linearGradient id="f" gradientTransform="matrix(.36682503 0 0 .35447295 46.948399 24.314667)" gradientUnits="userSpaceOnUse" x1="5.515625" x2="2.93" y1="-26.405602" y2="28.474001"><stop offset="0" stop-color="#ff8c82"/><stop offset=".312" stop-color="#ed5353"/><stop offset=".571" stop-color="#c6262e"/><stop offset="1" stop-color="#a10705"/></linearGradient><linearGradient id="g" gradientTransform="matrix(.63360687 0 0 .63805131 25.357512 17.616261)" gradientUnits="userSpaceOnUse" x1="1.004" x2=".228" y1="20.709" y2="-4.382"><stop offset="0" stop-color="#7a0000"/><stop offset="1" stop-color="#a10705"/></linearGradient><linearGradient id="h" gradientTransform="matrix(.38349889 -.38309486 .38349889 .38309486 5.442669 23.791579)" gradientUnits="userSpaceOnUse" x1="36.011002" x2="16.330999" xlink:href="#i" y1="13.023" y2="32.702"/><linearGradient id="i"><stop offset="0" stop-color="#fff"/><stop offset="1" stop-color="#fff" stop-opacity="0"/></linearGradient><linearGradient id="j" gradientTransform="matrix(.38349889 -.38309486 .38349889 .38309486 5.055945 23.985663)" gradientUnits="userSpaceOnUse" x1="28.448999" x2="16.330999" xlink:href="#i" y1="20.584" y2="32.702"/><radialGradient id="k" cx="1.248938" cy="16.655602" gradientTransform="matrix(.66756411 0 0 .11633788 10.020482 20.415424)" gradientUnits="userSpaceOnUse" r="16.875"><stop offset="0"/><stop offset="1" stop-opacity="0"/></radialGradient><g transform="matrix(.3527769 0 0 .3527769 .226851 -.65673)"><ellipse cx="11.522501" cy="22.276831" display="block" fill="url(#k)" fill-rule="evenodd" opacity=".25" rx="11.265144" ry="1.963204" stroke-width="1.118786"/><g stroke-width=".750002" transform="translate(-3.000007 .750002)"><path d="m6.7167988 2.7910212c-1.3759393 0-2.4820625.9132803-2.4824219 2.046875l-.00227 7.1593018c-.00162 1.133594 1.106483 2.047885 2.4824219 2.046875h1.3613262l-.9962826 4.449665 4.7091736-3.935993.692035-.513672h4.265876c1.375939 0 2.482148-.913279 2.482422-2.046875l.0023-7.1593018c.0016-1.1335936-1.106513-2.046875-2.482452-2.046875z" fill="url(#d)" stroke="#ad5f00" stroke-linecap="round" stroke-linejoin="round" stroke-opacity=".501961" transform="translate(0 3.942578)"/><path d="m6.7304707 3.5440472c-.9180944 0-1.7473083.5320901-1.7485015 1.3417004l.000001 2.4082992-.000001 4.6469572c-.00119.810427.8039094 1.333449 1.7206508 1.33789.00065.000003.0013.000003.00195 0h1.8925794c.1962572.06059.3546414-.0971.3652349.01518l-.6683274 3.2132 3.7279071-3.085797c.112988-.0619.133392-.116038.333009-.127403h4.443772c.599687.01517.890618-.256297 1.212394-.427521.311344-.244695.470267-.567833.470864-.972714l.000001-4.5997922-.000001-2.3813401c.0012-.8104271-.739759-1.3686595-1.657854-1.3686595z" fill="none" opacity=".5" stroke="url(#e)" transform="translate(0 3.942578)"/></g><path d="m6.9980469 7v9c0 2.340369 2.2652536 4.001953 4.7890621 4.001953h5.78125l3.083985 2.773438c1.379275-.447402 2.347656-1.518 2.347656-2.775391v-10c0-1.6620001-1.688989-3-3.787109-3z" fill="#a62100" opacity=".1" transform="matrix(.75000187 0 0 .75000187 -.643044 1.861602)"/><path d="m8 7v9c0 1.662 1.6889917 3 3.787109 3h6.166212l3.644137 3.279661c1.402542-.932203 1.402542-2.144004 1.402542-3.279661v-9c0-1.6620001-1.688992-3-3.787109-3z" fill="#a62100" opacity=".2" transform="matrix(.75000187 0 0 .75000187 -.643044 1.861602)"/><g stroke-width=".750002" transform="matrix(-1 0 0 1 25.713492 -3.000007)"><path d="m6.7167988 2.7910212c-1.3759393 0-2.4820625.9132803-2.4824219 2.046875l-.00227 7.1593018c-.00162 1.133594 1.106483 2.047885 2.4824219 2.046875h1.3613262l-.9962826 4.449665 4.7091736-3.935993.692035-.513672h4.265876c1.375939 0 2.482148-.913279 2.482422-2.046875l.0023-7.1593018c.0016-1.1335936-1.106513-2.046875-2.482452-2.046875z" fill="url(#d)" stroke="#ad5f00" stroke-linecap="round" stroke-linejoin="round" stroke-opacity=".501961" transform="translate(0 3.942578)"/><path d="m6.7304707 3.5440472c-.9180944 0-1.7473083.5320901-1.7485015 1.3417004l.000001 2.4082992-.000001 4.6469572c-.00119.810427.8039094 1.333449 1.7206508 1.33789.00065.000003.0013.000003.00195 0h1.8925794c.1962572.06059.3546414-.0971.3652349.01518l-.6683274 3.2132 3.7279071-3.085797c.112988-.0619.133392-.116038.333009-.127403h4.443772c.599687.01517.890618-.256297 1.212394-.427521.311344-.244695.470267-.567833.470864-.972714l.000001-4.5997922-.000001-2.3813401c.0012-.8104271-.739759-1.3686595-1.657854-1.3686595z" fill="none" opacity=".5" stroke="url(#e)" transform="translate(0 3.942578)"/></g></g><g transform="scale(.26458333)"><path d="m31.086222 28.001532-3.96825-3.826115 3.816735-4.009375-2.751801-2.48196-3.930732 3.819621-4.010097-3.819621-2.864355 2.574312 4.010097 3.900429-4.010097 3.83838 2.864355 2.673879 4.005768-4.01154 4.015147 4.01154z" fill="url(#f)" stroke="url(#g)" stroke-width=".999999"/><g fill="none" stroke-linecap="round" stroke-width="1.264068"><path d="m29.223309 20.256951-.987012-.862914-4.033185 3.691915-3.95382-3.769116-1.006493 1.015151" opacity=".4" stroke="url(#h)"/><path d="m29.313496 28.126351-3.04473-3.095234m-4.043286-.207793-3.149347 3.077198" opacity=".4" stroke="url(#j)"/></g></g><g stroke-linecap="round" stroke-linejoin="round" stroke-width="1.242781" transform="matrix(.21289616 0 0 .21289616 -.237918 2.053285)"><path d="m11.91189 9.7530698c-.95311-.222982-2.0948897.4628402-2.0948897.4628402l-1.02534.512955s-1.11109.971116-1.12298 1.301022c-.6254 1.108477-.34035 2.451743-.40376 3.664356.0609 1.0411-.6621 1.812948-.29942 2.868623-.0529 1.019155.78561 1.616867 1.3247 2.354008.6067.932573 1.43064 2.149386.78177 3.265449-1.19948 1.741178-3.19365 2.663944-5.01427 3.612558-.61848.0634-.38564.658043-.42706 1.081985-.00099.337148-.11175.784071.38229.626202h16.3677097v-1.75c-1.76251-.893922-3.60202-1.851487-4.83746-3.441087-.74221-1.0647.002-2.344044.58745-3.290663.45606-.788526 1.4093-1.292368 1.42292-2.297801.35052-1.020069-.17842-1.864469-.27715-2.837385-.12907-1.289869.22023-2.700355-.39486-3.900461-.83398-1.228037-2.36158-1.765816-3.74784-2.0951672-.40211-.08122-.81116-.134272-1.22181-.137434z" fill="url(#a)" stroke="url(#b)" stroke-width="1.242781"/><path d="m11.779299 10.951172v.01367c-.06094-.0058-.331758.04149-.734375.220703-.304105.135353-.712546.228497-1.1210939.310547-.0006473.000669-.0013.0013-.00195.002-.022768.02163-.048398.04003-.076172.05469-.006.0031-.3169874.176914-.5039062.296875-.027765.01781-.044145.01681-.074219.02734-.128892.140579-.3685696.417496-.5351562.701172l-.1894531.429687-.039063.152344-.00781.0059-.1015626.296875.1347657.0039c-.080113.855315.2242597 2.220315-.265625 3.759765-.02983.09322-.098052.169256-.1875.208985l.09375.04883c.00857-.01454-.021193.06399-.027344.181641-.00615.117647-.0004279.275432.021484.449218.042034.333375.1417557.725633.2675781 1.056641.9608473 1.015774 2.1635522 2.422047 2.1308592 4.363281l-.04493.308522c-.5520917 1.892297-2.2361377 2.784295-3.193359 3.464844-.015504.01043-.031835.01957-.048828.02734l.00781.0098c-.5162998.34191-1.0432617.61699-1.5703114.871055h13.0918004c-1.419076-.745878-2.808903-1.600087-3.962891-2.861328h-.002c.007.0077-.0076-.0065-.02539-.02539l-.0059-.0078c-.75583-.791508-.904056-1.857264-.738282-2.703125.158178-.807172.525255-1.468174.859376-1.992188-.000002-.000667-.000002-.0013 0-.002-.02661.04169-.0059.0014.02539-.05078.351792-.629179.780281-1.060267 1.03125-1.359375.271694-.323818.321028-.404295.326172-.570313.284979.11377.04924-.213761.08008-.347655.07414-.223801.0485-.368577-.03906-.753906-.08019-.35282-.266185-.901264-.320313-1.580078-.003-.03734-.000924-.02567 0-.02344v-.01172c-.08561-.860453.01225-1.61617-.002-2.203125-.01427-.590401-.116187-.963346-.341797-1.277343l.03906.04687c-.000156-.000152-.02423-.03895-.04687-.07227-.889559-.893408-2.392109-1.394475-3.822266-1.457031-.02714-.0014-.05402-.006-.08008-.01367z" fill="none" opacity=".5" stroke="url(#c)"/></g></svg>