<svg height="32" viewBox="0 0 8.4666665 8.4666669" width="32" xmlns="http://www.w3.org/2000/svg" xmlns:xlink="http://www.w3.org/1999/xlink"><linearGradient id="a" gradientTransform="matrix(-.00271019 .50014348 -.5122065 -.00277662 -10.621166 -10.412536)" gradientUnits="userSpaceOnUse" x1="25.392431" x2="57.252823" y1="-47.435898" y2="-47.821854"><stop offset="0" stop-color="#fff394"/><stop offset=".262" stop-color="#ffe16b"/><stop offset=".661" stop-color="#f9c440"/><stop offset="1" stop-color="#d48e15"/></linearGradient><linearGradient id="b" gradientUnits="userSpaceOnUse" x1="12.481989" x2="12.481988" y1="3.919039" y2="12.91907"><stop offset="0" stop-color="#fff"/><stop offset=".09999992" stop-color="#fff" stop-opacity=".235294"/><stop offset="1" stop-color="#fff" stop-opacity=".156863"/><stop offset="1" stop-color="#fff" stop-opacity=".392157"/></linearGradient><linearGradient id="c" gradientTransform="matrix(.36682503 0 0 .35447295 46.948399 24.314667)" gradientUnits="userSpaceOnUse" x1="5.515625" x2="2.93" y1="-26.405602" y2="28.474001"><stop offset="0" stop-color="#f8b17e"/><stop offset=".312" stop-color="#e35d4f"/><stop offset=".571" stop-color="#c6262e"/><stop offset="1" stop-color="#690b54"/></linearGradient><linearGradient id="d" gradientTransform="matrix(.63360687 0 0 .63805131 25.357512 17.616261)" gradientUnits="userSpaceOnUse" x1="1.004" x2=".228" y1="20.709" y2="-4.382"><stop offset="0" stop-color="#791235"/><stop offset="1" stop-color="#dd3b27"/></linearGradient><linearGradient id="e" gradientTransform="matrix(.38349889 -.38309486 .38349889 .38309486 5.442669 23.791579)" gradientUnits="userSpaceOnUse" x1="36.011002" x2="16.330999" xlink:href="#f" y1="13.023" y2="32.702"/><linearGradient id="f"><stop offset="0" stop-color="#fff"/><stop offset="1" stop-color="#fff" stop-opacity="0"/></linearGradient><linearGradient id="g" gradientTransform="matrix(.38349889 -.38309486 .38349889 .38309486 5.055945 23.985663)" gradientUnits="userSpaceOnUse" x1="28.448999" x2="16.330999" xlink:href="#f" y1="20.584" y2="32.702"/><radialGradient id="h" cx="1.248938" cy="16.655602" gradientTransform="matrix(.66756411 0 0 .11633788 10.020482 20.415424)" gradientUnits="userSpaceOnUse" r="16.875"><stop offset="0"/><stop offset="1" stop-opacity="0"/></radialGradient><g transform="matrix(.3527769 0 0 .3527769 .226851 -.65673)"><ellipse cx="11.522501" cy="22.276831" display="block" fill="url(#h)" fill-rule="evenodd" opacity=".25" rx="11.265144" ry="1.963204" stroke-width="1.118786"/><g stroke-width=".750002" transform="translate(-3.000007 .750002)"><path d="m6.7167988 2.7910212c-1.3759393 0-2.4820625.9132803-2.4824219 2.046875l-.00227 7.1593018c-.00162 1.133594 1.106483 2.047885 2.4824219 2.046875h1.3613262l-.9962826 4.449665 4.7091736-3.935993.692035-.513672h4.265876c1.375939 0 2.482148-.913279 2.482422-2.046875l.0023-7.1593018c.0016-1.1335936-1.106513-2.046875-2.482452-2.046875z" fill="url(#a)" stroke="#ad5f00" stroke-linecap="round" stroke-linejoin="round" stroke-opacity=".501961" transform="translate(0 3.942578)"/><path d="m6.7304707 3.5440472c-.9180944 0-1.7473083.5320901-1.7485015 1.3417004l.000001 2.4082992-.000001 4.6469572c-.00119.810427.8039094 1.333449 1.7206508 1.33789.00065.000003.0013.000003.00195 0h1.8925794c.1962572.06059.3546414-.0971.3652349.01518l-.6683274 3.2132 3.7279071-3.085797c.112988-.0619.133392-.116038.333009-.127403h4.443772c.599687.01517.890618-.256297 1.212394-.427521.311344-.244695.470267-.567833.470864-.972714l.000001-4.5997922-.000001-2.3813401c.0012-.8104271-.739759-1.3686595-1.657854-1.3686595z" fill="none" opacity=".5" stroke="url(#b)" transform="translate(0 3.942578)"/></g><path d="m6.9980469 7v9c0 2.340369 2.2652536 4.001953 4.7890621 4.001953h5.78125l3.083985 2.773438c1.379275-.447402 2.347656-1.518 2.347656-2.775391v-10c0-1.6620001-1.688989-3-3.787109-3z" fill="#a62100" opacity=".1" transform="matrix(.75000187 0 0 .75000187 -.643044 1.861602)"/><path d="m8 7v9c0 1.662 1.6889917 3 3.787109 3h6.166212l3.644137 3.279661c1.402542-.932203 1.402542-2.144004 1.402542-3.279661v-9c0-1.6620001-1.688992-3-3.787109-3z" fill="#a62100" opacity=".2" transform="matrix(.75000187 0 0 .75000187 -.643044 1.861602)"/><g stroke-width=".750002" transform="matrix(-1 0 0 1 25.713492 -3.000007)"><path d="m6.7167988 2.7910212c-1.3759393 0-2.4820625.9132803-2.4824219 2.046875l-.00227 7.1593018c-.00162 1.133594 1.106483 2.047885 2.4824219 2.046875h1.3613262l-.9962826 4.449665 4.7091736-3.935993.692035-.513672h4.265876c1.375939 0 2.482148-.913279 2.482422-2.046875l.0023-7.1593018c.0016-1.1335936-1.106513-2.046875-2.482452-2.046875z" fill="url(#a)" stroke="#ad5f00" stroke-linecap="round" stroke-linejoin="round" stroke-opacity=".501961" transform="translate(0 3.942578)"/><path d="m6.7304707 3.5440472c-.9180944 0-1.7473083.5320901-1.7485015 1.3417004l.000001 2.4082992-.000001 4.6469572c-.00119.810427.8039094 1.333449 1.7206508 1.33789.00065.000003.0013.000003.00195 0h1.8925794c.1962572.06059.3546414-.0971.3652349.01518l-.6683274 3.2132 3.7279071-3.085797c.112988-.0619.133392-.116038.333009-.127403h4.443772c.599687.01517.890618-.256297 1.212394-.427521.311344-.244695.470267-.567833.470864-.972714l.000001-4.5997922-.000001-2.3813401c.0012-.8104271-.739759-1.3686595-1.657854-1.3686595z" fill="none" opacity=".5" stroke="url(#b)" transform="translate(0 3.942578)"/></g></g><g transform="scale(.26458333)"><path d="m31.086222 28.001532-3.96825-3.826115 3.816735-4.009375-2.751801-2.48196-3.930732 3.819621-4.010097-3.819621-2.864355 2.574312 4.010097 3.900429-4.010097 3.83838 2.864355 2.673879 4.005768-4.01154 4.015147 4.01154z" fill="url(#c)" stroke="url(#d)" stroke-width=".999999"/><g fill="none" stroke-linecap="round" stroke-width="1.264068"><path d="m29.223309 20.256951-.987012-.862914-4.033185 3.691915-3.95382-3.769116-1.006493 1.015151" opacity=".4" stroke="url(#e)"/><path d="m29.313496 28.126351-3.04473-3.095234m-4.043286-.207793-3.149347 3.077198" opacity=".4" stroke="url(#g)"/></g></g></svg>