<svg height="32" viewBox="0 0 8.4666665 8.4666668" width="32" xmlns="http://www.w3.org/2000/svg" xmlns:xlink="http://www.w3.org/1999/xlink"><linearGradient id="a" gradientUnits="userSpaceOnUse" x1="2.155269" x2="2.155269" xlink:href="#b" y1="6.099627" y2="3.706501"/><linearGradient id="b"><stop offset="0" stop-color="#fff"/><stop offset="1" stop-color="#fff" stop-opacity="0"/></linearGradient><linearGradient id="c" gradientUnits="userSpaceOnUse" x1="3.925309" x2="3.925309" xlink:href="#b" y1="1.501492" y2="6.886753"/><linearGradient id="d" gradientTransform="matrix(1.38317 0 0 1.41442 -11.892 21.51)" gradientUnits="userSpaceOnUse" x1="13.697" x2="13.3" y1="12.091" y2="29.436"><stop offset="0" stop-color="#aff05f"/><stop offset="1" stop-color="#68b723"/></linearGradient><linearGradient id="e" gradientUnits="userSpaceOnUse" x1="12.674" x2="12.001" xlink:href="#f" y1="1.33" y2="20"/><linearGradient id="f"><stop offset="0" stop-color="#fff"/><stop offset=".654" stop-color="#fff" stop-opacity=".235"/><stop offset="1" stop-color="#fff" stop-opacity=".157"/><stop offset="1" stop-color="#fff" stop-opacity=".392"/></linearGradient><linearGradient id="g" gradientUnits="userSpaceOnUse" x1="13.561" x2="13.608" y1="-5.013" y2="21.532"><stop offset="0" stop-color="#f7b19e"/><stop offset="1" stop-color="#e2866d"/></linearGradient><linearGradient id="h" gradientUnits="userSpaceOnUse" x1="11.673" x2="12.001" xlink:href="#f" y1="-7.108" y2="20"/><linearGradient id="i" gradientUnits="userSpaceOnUse" x1="15.608" x2="15.608" y1="2.546" y2="21.532"><stop offset="0" stop-color="#cd9ef7"/><stop offset="1" stop-color="#a56de2"/></linearGradient><linearGradient id="j" gradientUnits="userSpaceOnUse" x1="12.993" x2="14.001" xlink:href="#f" y1="-12.336" y2="20"/><radialGradient id="k" cx="4.993" cy="43.5" gradientTransform="matrix(2.00378 0 0 1.4 27.988 -17.4)" gradientUnits="userSpaceOnUse" r="2.5" xlink:href="#l"/><linearGradient id="l"><stop offset="0" stop-color="#181818"/><stop offset="1" stop-color="#181818" stop-opacity="0"/></linearGradient><radialGradient id="m" cx="4.993" cy="43.5" gradientTransform="matrix(2.00378 0 0 1.4 -20.012 -104.4)" gradientUnits="userSpaceOnUse" r="2.5" xlink:href="#l"/><linearGradient id="n" gradientUnits="userSpaceOnUse" x1="25.058" x2="25.058" y1="47.028" y2="39.999"><stop offset="0" stop-color="#181818" stop-opacity="0"/><stop offset=".5" stop-color="#181818"/><stop offset="1" stop-color="#181818" stop-opacity="0"/></linearGradient><g opacity=".4"><path d="m38 40h5v7h-5z" fill="url(#k)" transform="matrix(.22042 0 0 .1134 -1.053 2.873)"/><path d="m-10-47h5v7h-5z" fill="url(#m)" transform="matrix(-.22042 0 0 -.1134 -1.053 2.873)"/><path d="m10 40h28v7h-28z" fill="url(#n)" transform="matrix(.22042 0 0 .1134 -1.053 2.873)"/></g><g transform="matrix(.26458 0 0 .26458 -1.326 2.117)"><rect fill="url(#i)" height="27.013" rx="1" width="6.02" x="17.48" y="-5.513"/><g fill="none" stroke-linecap="round" stroke-linejoin="round"><path d="m18.48-4.508h4.02v25.008h-4.02z" opacity=".5" stroke="url(#j)"/><rect height="26.992" opacity=".5" rx="1" stroke="#7239b3" width="5.992" x="17.508" y="-5.492"/></g></g><g transform="matrix(.26458 0 0 .26458 1.59 2.117)"><rect fill="url(#g)" height="21.983" rx="1" width="6.054" x="15.446" y="-.483"/><g fill="none" stroke-linecap="round" stroke-linejoin="round"><path d="m16.49.485h4.01v20.015h-4.01z" opacity=".5" stroke="url(#h)"/><rect height="21.989" opacity=".5" rx="1" stroke="#b35039" width="6.012" x="15.488" y="-.489"/></g></g><g transform="matrix(.26458 0 0 .26458 -3.175 2.117)"><rect fill="url(#d)" height="17.913" rx="1" width="6.029" x="15.471" y="3.587"/><g fill="none" stroke-linecap="round" stroke-linejoin="round"><path d="m16.502 4.506h4v15.994h-4z" opacity=".5" stroke="url(#e)"/><rect height="17.997" opacity=".5" rx="1" stroke="#7bb339" width="6.002" x="15.498" y="3.503"/></g></g><g stroke-width=".265"><path d="m.397 2.25 5.82 5.82h-5.819zm1.323 3.18v1.317h1.317z" fill="#81d72c" fill-opacity=".588" fill-rule="evenodd" stroke="#4e9a06" stroke-linejoin="round"/><g fill="none"><path d="m.66 1.818v4.93h4.93z" opacity=".5" stroke="url(#c)" transform="translate(0 1.058)"/><path d="m1.455 3.842v2.116h1.935" opacity=".5" stroke="url(#a)" transform="translate(0 1.058)"/></g></g><path d="m.53 2.91h.264v.18h-.264zm0 .54h.264v.18h-.264zm0 .54h.264v.18h-.264zm0 .54h.264v.18h-.264zm0 .54h.264v.18h-.264zm0 .54h.264v.18h-.264zm0 .54h.264v.178h-.264zm0 .538h.264v.18h-.264zm0 .54h.264v.18h-.264z" opacity=".15"/><path d="m.53 3.175h.264v.18h-.264zm0 .54h.264v.18h-.264zm0 .54h.264v.18h-.264zm0 .54h.264v.18h-.264zm0 .54h.264v.18h-.264zm0 .538h.264v.18h-.264zm0 .54h.264v.18h-.264zm0 .54h.264v.18h-.264zm0 .54h.264v.18h-.264z" fill="#fff" opacity=".15"/><path d="m5.292 7.673v.264h-.172v-.264zm-.52 0v.264h-.172v-.264zm-.518 0v.264h-.174v-.264zm-.52 0v.264h-.172v-.264zm-.518 0v.264h-.173v-.264zm-.52 0v.264h-.172v-.264zm-.518 0v.264h-.173v-.264zm-.52 0v.264h-.173v-.264zm-.518 0v.264h-.173v-.264z" opacity=".15"/><path d="m5.12 7.673v.264h-.174v-.264zm-.52 0v.264h-.173v-.264zm-.52 0v.264h-.17v-.264zm-.518 0v.264h-.172v-.264zm-.52 0v.264h-.172v-.264zm-.518 0v.264h-.174v-.264zm-.52 0v.264h-.172v-.264zm-.518 0v.264h-.174v-.264zm-.52 0v.264h-.171v-.264z" fill="#fff" opacity=".15"/><path d="m1.19 8.334h5.03" fill="none" opacity=".3" stroke="#85f619" stroke-linecap="square" stroke-width=".265"/></svg>