<svg height="32" viewBox="0 0 8.4666665 8.4666668" width="32" xmlns="http://www.w3.org/2000/svg" xmlns:xlink="http://www.w3.org/1999/xlink"><linearGradient id="a" gradientTransform="matrix(.1796 0 0 .1952 1.765084 -.367667)" gradientUnits="userSpaceOnUse" x1="9.323497" x2="9.323497" xlink:href="#n" y1="22.21525" y2="26.281591"/><linearGradient id="b" gradientTransform="matrix(.1796 0 0 .1952 3.617167 -.367667)" gradientUnits="userSpaceOnUse" x1="9.323497" x2="9.323497" xlink:href="#n" y1="22.21525" y2="26.281591"/><linearGradient id="c" gradientTransform="matrix(.1796 0 0 .1952 5.46925 -.367667)" gradientUnits="userSpaceOnUse" x1="9.323497" x2="9.323497" xlink:href="#n" y1="22.21525" y2="26.281591"/><linearGradient id="d" gradientTransform="translate(0 1.058333)" gradientUnits="userSpaceOnUse" x1="4.233333" x2="4.23" xlink:href="#o" y1="2.38125" y2="4.234"/><linearGradient id="e" gradientTransform="matrix(.1796 0 0 .1952 -.087 -.367667)" gradientUnits="userSpaceOnUse" x1="9.323497" x2="9.323497" xlink:href="#n" y1="22.21525" y2="26.281591"/><linearGradient id="f" gradientTransform="matrix(3.7795276 0 0 3.7795276 0 -3)" gradientUnits="userSpaceOnUse" x1="4.233333" x2="4.23" xlink:href="#o" y1="2.38125" y2="4.234"/><linearGradient id="g" gradientTransform="matrix(.1796 0 0 .1952 -.087 -2.21975)" gradientUnits="userSpaceOnUse" x1="9.323497" x2="9.323497" xlink:href="#n" y1="22.21525" y2="26.281591"/><linearGradient id="h" gradientTransform="matrix(.1796 0 0 .1952 1.765083 -2.21975)" gradientUnits="userSpaceOnUse" x1="9.323497" x2="9.323497" xlink:href="#n" y1="22.21525" y2="26.281591"/><linearGradient id="i" gradientTransform="matrix(.1796 0 0 .1952 3.617167 -2.21975)" gradientUnits="userSpaceOnUse" x1="9.323497" x2="9.323497" xlink:href="#n" y1="22.21525" y2="26.281591"/><linearGradient id="j" gradientTransform="matrix(.1796 0 0 .1952 5.46925 -2.21975)" gradientUnits="userSpaceOnUse" x1="9.323497" x2="9.323497" xlink:href="#n" y1="22.21525" y2="26.281591"/><radialGradient id="k" cx="24.837" cy="36.421001" gradientTransform="matrix(.0974 0 0 -.1043 .106583 8.71475)" gradientUnits="userSpaceOnUse" r="15.645"><stop offset="0"/><stop offset="1" stop-opacity="0"/></radialGradient><linearGradient id="l" gradientUnits="userSpaceOnUse" x1="3.440007" x2="8.202507" y1="3.704" y2="3.704"><stop offset="0" stop-color="#ffa154"/><stop offset="1" stop-color="#f37329"/></linearGradient><linearGradient id="m" gradientTransform="matrix(0 -.1895 .20348 0 -5.775 9.524)" gradientUnits="userSpaceOnUse" x1="30.7124" x2="30.7124" y1="47.887623" y2="63.491123"><stop offset="0" stop-color="#fff"/><stop offset="0" stop-color="#fff" stop-opacity=".235"/><stop offset=".99999994" stop-color="#fff" stop-opacity=".157"/><stop offset="1" stop-color="#fff" stop-opacity=".392"/></linearGradient><linearGradient id="n" gradientTransform="matrix(.1796 0 0 .1952 -.087 -.368)" gradientUnits="userSpaceOnUse" x1="9.323497" x2="9.323497" y1="22.21525" y2="26.281591"><stop offset="0" stop-color="#fff"/><stop offset="0" stop-color="#fff" stop-opacity=".235"/><stop offset="1" stop-color="#fff" stop-opacity=".157"/><stop offset="1" stop-color="#fff" stop-opacity=".392"/></linearGradient><linearGradient id="o" gradientTransform="matrix(.15733116 0 0 .15868062 .327533 -.934196)" gradientUnits="userSpaceOnUse" x1="25.132" x2="25.132" y1="15.5" y2="48.396"><stop offset="0" stop-color="#fafafa"/><stop offset="1" stop-color="#e2e1de"/></linearGradient><path d="m.79375 3.571875h6.8791666c.073289 0 .1322915.059002.1322915.1322916v1.3229167c0 .07329-.059002.1322917-.1322915.1322917h-6.8791666c-.0732895 0-.13229156-.059002-.13229156-.1322917v-1.3229167c0-.07329.059002-.1322916.13229156-.1322916z" fill="url(#d)"/><path d="m.5302003 3.4401-.001034 1.8515666 1.8526001.00259v-.00206h5.5552169l.0005167-1.8526133zm.26354982.2640666c.52882218-.0002805 1.05867788.0003704 1.58749998 0l.0005159 1.3229166v.00103c-.5275067-.0000227-1.0602225 0-1.58594964 0-.004459-.3837675-.002066-.9017952-.002066-1.3239485zm1.85208328 0h1.5875v1.3229166h-1.5875zm1.8520833 0h1.5875l.0005292 1.3239501-1.5880292-.00103zm1.8520833 0h1.3229167v1.3239501l-1.3229167-.0010335z" opacity=".321"/><g fill="none" stroke-linecap="round" stroke-linejoin="round" stroke-width=".264583"><path d="m.92604179 3.8364583h1.32291661v1.0583333l-1.32395827.0005417z" stroke="url(#e)"/><path d="m2.7781251 3.8364583h1.3229167v1.0583333l-1.3239583.0005417z" stroke="url(#a)"/><path d="m4.6302084 3.8364583h1.3229167v1.0583333l-1.3239583.0005417z" stroke="url(#b)"/><path d="m6.4822917 3.8364583h1.0583334v1.0583333l-1.059375.0005417z" stroke="url(#c)"/></g><path d="m3 6.5c-.2769999 0-.5.2229984-.5.5v4h27v-4c0-.2770001-.223002-.5-.5-.5z" fill="url(#f)" transform="scale(.26458333)"/><path d="m30 6-27.9960938.0019531-.0019531 4.9980469h1.0039063c-.0062895-1.2942368-.0058594-2.7245646-.0058594-4 1.9986981-.0010602 4.0013023.0013999 6 0l.0019531 4h.9980469v-4h6v4h1v-4h6l.001953 4h.998047v-4h5v4h.998047z" opacity=".321" stroke-width="3.779528" transform="scale(.26458333)"/><g fill="none" stroke-linecap="round" stroke-linejoin="round" stroke-width=".264583"><path d="m.92604166 1.984375h1.32291664v.79375l-1.32395831.0005417z" stroke="url(#g)"/><path d="m2.778125 1.984375h1.3229167v.79375l-1.3239583.0005417z" stroke="url(#h)"/><path d="m4.6302083 1.984375h1.3229167v.79375l-1.3239583.0005417z" stroke="url(#i)"/><path d="m6.4822916 1.984375h1.0583334v.79375l-1.059375.0005417z" stroke="url(#j)"/></g><g transform="matrix(-1 0 0 -1 8.466667 12.170826)"><path d="m4.0485834 4.8247499c0-2.178-3.0450001-2.178-3.0460001 0 0 .9.6800001 1.72 1.5220001 1.72.84 0 1.524-.82 1.524-1.72z" fill="url(#k)" fill-rule="evenodd" opacity=".141"/><path d="m5.6889583 5.688375 2.38125-1.984375-2.38125-1.984375v1.3229167h-2.1166666v1.3229166h2.1166666z" style="display:block;stroke:#a62100;stroke-width:.264583;stroke-linecap:round;stroke-linejoin:round;stroke-opacity:.501961;fill:url(#l)" transform="matrix(0 -1 1 0 -1.587333 11.906667)"/><path d="m5.9535417 5.1169797 1.6965173-1.4129797-1.6965173-1.4169862.0013333 1.0201112h-2.118l-.00133.79375h2.118z" style="display:block;opacity:.5;fill:none;stroke-width:.265;stroke-miterlimit:7;stroke:url(#m)" transform="matrix(0 -1 1 0 -1.587333 11.906667)"/></g></svg>