<svg height="32" width="32" xmlns="http://www.w3.org/2000/svg" xmlns:xlink="http://www.w3.org/1999/xlink"><linearGradient id="a"><stop offset="0"/><stop offset="1" stop-opacity="0"/></linearGradient><radialGradient id="b" cx="24.837126" cy="36.421127" gradientTransform="matrix(-.38351555 0 0 -.25567694 22.275669 31.384178)" gradientUnits="userSpaceOnUse" r="15.644737" xlink:href="#a"/><linearGradient id="c" gradientTransform="matrix(.39222363 0 0 -.36562471 4.827819 25.163568)" gradientUnits="userSpaceOnUse" x1="27.974298" x2="27.974298" y1="36.127529" y2="-1.183923"><stop offset="0" stop-color="#8cd5ff"/><stop offset=".25" stop-color="#64baff"/><stop offset=".62520313" stop-color="#3689e6"/><stop offset="1" stop-color="#0d52bf"/></linearGradient><linearGradient id="d" gradientTransform="matrix(0 -.39571558 .42801014 0 6.403311 30.903618)" gradientUnits="userSpaceOnUse" x1="38.940514" x2="20.576487" y1="15.991243" y2="15.991243"><stop offset="0" stop-color="#fff"/><stop offset=".51153916" stop-color="#fff" stop-opacity=".235294"/><stop offset=".58522105" stop-color="#fff" stop-opacity=".156863"/><stop offset="1" stop-color="#fff" stop-opacity=".392157"/></linearGradient><linearGradient id="e" gradientUnits="userSpaceOnUse" x1="11.179706" x2="11.332248" y1="24.178568" y2="8.517552"><stop offset="0" stop-color="#002e99" stop-opacity=".709804"/><stop offset="1" stop-color="#3689e6" stop-opacity=".709804"/></linearGradient><linearGradient id="f" gradientUnits="userSpaceOnUse" x1=".978" x2=".978" xlink:href="#g" y1="4.91" y2="27.858"/><linearGradient id="g"><stop offset="0" stop-color="#ffa154"/><stop offset="1" stop-color="#f37329"/></linearGradient><linearGradient id="h" gradientTransform="matrix(1.33942 0 0 -1.98263 -11.354 93.863)" gradientUnits="userSpaceOnUse" x1="22.004" x2="22.004" y1="63.218" y2="25.647"><stop offset="0" stop-color="#aaa"/><stop offset="1" stop-color="#c8c8c8"/></linearGradient><linearGradient id="i" gradientTransform="matrix(.66892 0 0 .56757 -1.18 2.378)" gradientUnits="userSpaceOnUse" x1="9.61" x2="9.61" y1="6.395" y2="41.619"><stop offset="0" stop-color="#fff"/><stop offset="0" stop-color="#fff" stop-opacity=".235"/><stop offset="1" stop-color="#fff" stop-opacity=".157"/><stop offset="1" stop-color="#fff" stop-opacity=".392"/></linearGradient><linearGradient id="j" gradientUnits="userSpaceOnUse" x1="4.334" x2="4.334" xlink:href="#g" y1="4.526" y2="27.474"/><linearGradient id="k" gradientTransform="matrix(.62857 0 0 .6084 .914 -.533)" gradientUnits="userSpaceOnUse" x1="9.682" x2="38.318" xlink:href="#o" y1="30.468" y2="28.824"/><linearGradient id="l" gradientTransform="matrix(.53064 0 0 .5897 39.27 -1.792)" gradientUnits="userSpaceOnUse" x1="-25.007" x2="-60.813" xlink:href="#p" y1="30.174" y2="30.174"/><linearGradient id="m" gradientTransform="matrix(.56757 0 0 .72973 2.378 -2.514)" gradientUnits="userSpaceOnUse" x1="8.143" x2="45.143" xlink:href="#n" y1="25.373" y2="25.373"/><linearGradient id="n" gradientTransform="matrix(.56757 0 0 .72973 2.378 -2.514)" gradientUnits="userSpaceOnUse" x1="8.143" x2="45.143" y1="25.373" y2="25.373"><stop offset="0" stop-color="#fff"/><stop offset=".503" stop-color="#fff" stop-opacity=".235"/><stop offset=".951" stop-color="#fff" stop-opacity=".157"/><stop offset="1" stop-color="#fff" stop-opacity=".392"/></linearGradient><linearGradient id="o" gradientTransform="matrix(.62857 0 0 .6084 .914 -.533)" gradientUnits="userSpaceOnUse" x1="9.682" x2="38.318" y1="30.468" y2="28.824"><stop offset="0" stop-color="#f4f4f4"/><stop offset="1" stop-color="#dbdbdb"/></linearGradient><linearGradient id="p" gradientTransform="matrix(.53064 0 0 .5897 39.27 -1.792)" gradientUnits="userSpaceOnUse" x1="-25.007" x2="-60.813" y1="30.174" y2="30.174"><stop offset="0" stop-opacity=".318"/><stop offset="1" stop-opacity=".24"/></linearGradient><radialGradient id="q" cx="24.837" cy="36.421" gradientTransform="matrix(-.38352 0 0 -.25568 22.276 31.384)" gradientUnits="userSpaceOnUse" r="15.645" xlink:href="#a"/><path d="m8 4.002 19 .002v24.998h-19z" fill="url(#k)" transform="matrix(0 1 -1 0 30.001 -4.987)"/><g fill="none" stroke-linejoin="round"><path d="m7.5 3.5 20 .002v25.998h-20z" stroke="url(#l)" transform="matrix(0 1 -1 0 30.001 -4.987)"/><path d="m26.5 28.5h-18v-24h18z" stroke="url(#m)" stroke-linecap="round" transform="matrix(0 1 -1 0 30.001 -4.987)"/></g><path d="m6 27.5h-4.5l-.007-20.025h4.5" fill="url(#j)" transform="translate(-1 -4.988)"/><path d="m5.5 26.5-2.983.05-.024-18.075h3" fill="none" opacity=".5" stroke="url(#i)" stroke-linecap="square" transform="translate(-1 -4.988)"/><path d="m10 2.512h4m1 0h2m1 0h1m1 0h2" fill="none" stroke="#aaa"/><path d="m7 24v-1h2v1zm3 0v-1h6v1zm-3-4v-1h3v1zm4 0v-1h2v1zm-4-4v-1h3v1zm4 0v-1h1v1zm-4-4v-1h3v1zm4 0v-1h3v1z" fill="url(#h)" transform="translate(-1 -4.988)"/><path d="m25.644 17.384c0 6.087-8.015 8.303-11.145 3.085-3.13-5.22 2.6-11.247 7.97-8.38l-2.826 5.294z" fill="url(#f)" opacity=".5" transform="translate(-1 -4.988)"/><path d="m25.644 17.4c0 2.602-1.892 5.09-4.4 5.783-2.506.694-5.407-.466-6.745-2.697-.01.01 5.144-3.085 5.144-3.085z" fill="url(#f)" opacity=".5" transform="translate(-1 -4.988)"/><path d="m5 22.512h-4.5c0-7.092.012-12.375.012-19.892l.05-.094.117-.04h4.313" fill="none" opacity=".4" stroke="#cc3b02" stroke-linejoin="round"/><path d="m25.644 17.387c0 2.6-1.892 5.088-4.4 5.782-.057-.01-1.6-5.783-1.6-5.783z" fill="url(#f)" transform="translate(-1 -4.988)"/><path d="m8 4.002 19 .002v24.998h-19z" fill="url(#o)" transform="matrix(0 1 -1 0 35 2)"/><g fill="none" stroke-linejoin="round"><path d="m7.5 3.5 20 .002v25.998h-20z" stroke="url(#p)" transform="matrix(0 1 -1 0 35 2)"/><path d="m26.5 28.5h-18v-24h18z" stroke="url(#n)" stroke-linecap="round" transform="matrix(0 1 -1 0 35 2)"/></g><path d="m6 27.5h-4.5l-.007-20.025h4.5" fill="url(#j)" transform="translate(4 2)"/><path d="m5.5 26.5-2.983.05-.024-18.075h3" fill="none" opacity=".5" stroke="url(#i)" stroke-linecap="square" transform="translate(4 2)"/><path d="m15 9.5h4m1 0h2m1 0h1m1 0h2" fill="none" stroke="#aaa"/><path d="m7 24v-1h2v1zm3 0v-1h6v1zm-3-4v-1h3v1zm4 0v-1h2v1zm-4-4v-1h3v1zm4 0v-1h1v1zm-4-4v-1h3v1zm4 0v-1h3v1z" fill="url(#h)" transform="translate(4 2)"/><path d="m25.644 17.384c0 6.087-8.015 8.303-11.145 3.085-3.13-5.22 2.6-11.247 7.97-8.38l-2.826 5.294z" fill="url(#f)" opacity=".5" transform="translate(4 2)"/><path d="m25.644 17.4c0 2.602-1.892 5.09-4.4 5.783-2.506.694-5.407-.466-6.745-2.697-.01.01 5.144-3.085 5.144-3.085z" fill="url(#f)" opacity=".5" transform="translate(4 2)"/><path d="m10 29.5h-4.5c0-7.093.012-12.375.012-19.893l.05-.093.117-.04h4.313" fill="none" opacity=".4" stroke="#cc3b02" stroke-linejoin="round"/><path d="m25.644 17.387c0 2.6-1.892 5.088-4.4 5.782-.057-.01-1.6-5.783-1.6-5.783z" fill="url(#f)" transform="translate(4 2)"/><path d="m6.75 22.072a6 4 0 1 1 12 0 6 4 0 0 1 -12 0z" fill="url(#q)" fill-rule="evenodd" opacity=".141" transform="translate(-6.332 3.546)"/><g transform="translate(-5.832248 5.005612)"><path d="m6.750245 22.072131a6 4.0000002 0 1 1 12 0 6 4.0000002 0 0 1 -12 0z" fill="url(#b)" fill-rule="evenodd" opacity=".141176"/><path d="m10.832248 11.017552c-4.9802216 3.367056-2.0511186 9.550728 3.5 9.5v3.000485l7-5-7-5v2.976351c-3.580248.139062-5.5595156-3.12742-3-5.476836z" display="block" fill="url(#c)"/><g fill="none"><path d="m9.8755864 12.759279c-1.756852 2.058862-.225017 7.434574 5.3950626 6.699241l.0616 2.197396 4.369328-3.137879-4.369328-3.064428v2.059765c-6.1674416.329165-5.9814876-3.921804-5.4566616-4.754095z" display="block" opacity=".8" stroke="url(#d)" stroke-miterlimit="7" stroke-width=".964"/><path d="m10.832248 11.017552c-4.9802216 3.367056-2.0511186 9.550728 3.5 9.5v3.000485l6.999999-5-6.999999-5v2.976351c-3.580248.139062-5.5595156-3.12742-3-5.476836z" opacity=".858" stroke="url(#e)" stroke-linecap="round" stroke-linejoin="round"/></g></g></svg>