<svg height="32" width="32" xmlns="http://www.w3.org/2000/svg" xmlns:xlink="http://www.w3.org/1999/xlink"><linearGradient id="a"><stop offset="0" stop-color="#fff"/><stop offset="0" stop-color="#fff" stop-opacity=".235"/><stop offset="1" stop-color="#fff" stop-opacity=".157"/><stop offset="1" stop-color="#fff" stop-opacity=".392"/></linearGradient><linearGradient id="b" gradientTransform="matrix(.4054 0 0 .5135 -1.734 .676)" gradientUnits="userSpaceOnUse" x1="24.000986" x2="24.000986" xlink:href="#a" y1="8.420643" y2="16.210321"/><linearGradient id="c" gradientUnits="userSpaceOnUse" x1="11.233976" x2="15.108646" y1="9.817785" y2="13.871716"><stop offset="0" stop-color="#ad5f00"/><stop offset=".13482948" stop-color="#ffe16b"/><stop offset=".20224422" stop-color="#f9c440"/><stop offset=".26965895" stop-color="#fff394"/><stop offset=".44650277" stop-color="#f9c440"/><stop offset=".57114136" stop-color="#f9c440"/><stop offset=".72038066" stop-color="#ffe16b"/><stop offset="1" stop-color="#ad5f00"/></linearGradient><linearGradient id="d" gradientTransform="matrix(.6380091 -.6411367 .8596262 .8553492 -24.35737 1.938176)" gradientUnits="userSpaceOnUse" x1="30.037716" x2="30.037716" xlink:href="#e" y1="24.989594" y2="30.000141"/><linearGradient id="e"><stop offset="0" stop-color="#565656"/><stop offset=".5" stop-color="#9a9a9a"/><stop offset="1" stop-color="#545454"/></linearGradient><linearGradient id="f" gradientTransform="matrix(.6380091 -.6411367 .8596262 .8553492 -24.540087 2.121789)" gradientUnits="userSpaceOnUse" x1="30.037716" x2="30.037716" xlink:href="#g" y1="24.989594" y2="30.000141"/><linearGradient id="g"><stop offset="0" stop-color="#b1b1b1"/><stop offset=".5" stop-color="#fff"/><stop offset="1" stop-color="#8f8f8f"/></linearGradient><linearGradient id="h" gradientTransform="matrix(.6380091 -.6411367 .8596262 .8553492 -23.72243 1.300123)" gradientUnits="userSpaceOnUse" x1="30.037716" x2="30.037716" xlink:href="#e" y1="24.989594" y2="30.000141"/><linearGradient id="i" gradientTransform="matrix(.6380091 -.6411367 .8596262 .8553492 -23.905148 1.483735)" gradientUnits="userSpaceOnUse" x1="30.037716" x2="30.037716" xlink:href="#g" y1="24.989594" y2="30.000141"/><linearGradient id="j" gradientTransform="matrix(.6380091 -.6411367 .8596262 .8553492 -23.084421 .658986)" gradientUnits="userSpaceOnUse" x1="30.037716" x2="30.037716" xlink:href="#e" y1="24.989594" y2="30.000141"/><linearGradient id="k" gradientTransform="matrix(.6380091 -.6411367 .8596262 .8553492 -23.267138 .8426)" gradientUnits="userSpaceOnUse" x1="30.037716" x2="30.037716" xlink:href="#g" y1="24.989594" y2="30.000141"/><linearGradient id="l" gradientTransform="matrix(.6380091 -.6411367 .8596263 .8553493 -24.599696 2.181687)" gradientUnits="userSpaceOnUse" x1="9" x2="9" y1="29.056757" y2="26.02973"><stop offset="0" stop-color="#ece5a5"/><stop offset="1" stop-color="#fcfbf2"/></linearGradient><linearGradient id="m" gradientUnits="userSpaceOnUse" x1="-.194932" x2="8.965093" y1="20.329414" y2="20.329414"><stop offset="0" stop-color="#d48e15"/><stop offset="1" stop-color="#ad5f00"/></linearGradient><linearGradient id="n"><stop offset="0"/><stop offset="1" stop-opacity="0"/></linearGradient><linearGradient id="o" gradientTransform="matrix(.56757 0 0 .72973 2.378 -2.514)" gradientUnits="userSpaceOnUse" x1="4.619" x2="43.381" y1="32.222" y2="32.222"><stop offset="0" stop-color="#fff"/><stop offset=".036" stop-color="#fff" stop-opacity=".235"/><stop offset=".951" stop-color="#fff" stop-opacity=".157"/><stop offset="1" stop-color="#fff" stop-opacity=".392"/></linearGradient><linearGradient id="p"><stop offset="0" stop-color="#f4f4f4"/><stop offset="1" stop-color="#dbdbdb"/></linearGradient><linearGradient id="q" gradientTransform="matrix(.62857 0 0 .6084 .914 -.535)" gradientUnits="userSpaceOnUse" x1="11.273" x2="44.682" xlink:href="#p" y1="27.178" y2="25.534"/><radialGradient id="r" cx="605.71" cy="486.65" gradientTransform="matrix(.01566 0 0 .00824 17.61 25.98)" gradientUnits="userSpaceOnUse" r="117.14" xlink:href="#n"/><radialGradient id="s" cx="605.71" cy="486.65" gradientTransform="matrix(-.01566 0 0 .00824 14.39 25.98)" gradientUnits="userSpaceOnUse" r="117.14" xlink:href="#n"/><linearGradient id="t" gradientTransform="matrix(.04577 0 0 .00824 -.542 25.98)" gradientUnits="userSpaceOnUse" x1="302.86" x2="302.86" y1="366.65" y2="609.51"><stop offset="0" stop-opacity="0"/><stop offset=".5"/><stop offset="1" stop-opacity="0"/></linearGradient><linearGradient id="u" gradientTransform="matrix(.53064 0 0 .5897 39.27 -1.792)" gradientUnits="userSpaceOnUse" x1="-21.238" x2="-68.351" y1="31.867" y2="35.258"><stop offset="0" stop-opacity=".318"/><stop offset="1" stop-opacity=".24"/></linearGradient><linearGradient id="v" gradientTransform="translate(0 -5)" gradientUnits="userSpaceOnUse" x1="10" x2="10" y2="22"><stop offset="0" stop-color="#fff"/><stop offset="1" stop-color="#fff" stop-opacity="0"/></linearGradient><linearGradient id="w" gradientUnits="userSpaceOnUse" x1="12" x2="12" y1="18" y2="7"><stop offset="0" stop-color="#232323"/><stop offset=".8" stop-color="#535353"/><stop offset=".8" stop-color="#676767"/><stop offset="1" stop-color="#676767"/></linearGradient><linearGradient id="x" gradientTransform="matrix(.48572 0 0 -.25857 -.657 10.22)" gradientUnits="userSpaceOnUse" x1="30.176" x2="30.176" xlink:href="#p" y1="47.256" y2="-26.225"/><linearGradient id="y" gradientTransform="matrix(.48572 0 0 -.25857 -.657 24.72)" gradientUnits="userSpaceOnUse" x1="28.118" x2="28.118" xlink:href="#p" y1="91.732" y2="22.118"/><linearGradient id="z" gradientTransform="matrix(.4054 0 0 .5135 2.27 -2.324)" gradientUnits="userSpaceOnUse" x1="24.000986" x2="24.000986" xlink:href="#a" y1="8.420643" y2="16.210321"/><path d="m4.95 29h22.1v2h-22.1z" fill="url(#t)" opacity=".15" transform="translate(-2.44 -2.44)"/><path d="m4.95 29v2c-.807.004-1.95-.448-1.95-1s.9-1 1.95-1z" fill="url(#s)" opacity=".15" transform="translate(-2.44 -2.44)"/><path d="m27.05 29v2c.807.004 1.95-.448 1.95-1s-.9-1-1.95-1z" fill="url(#r)" opacity=".15" transform="translate(-2.44 -2.44)"/><path d="m5 1 22 .002v27.998h-22z" fill="url(#q)" transform="matrix(0 1 -1 0 31 -1)"/><g fill="none" stroke-linejoin="round"><path d="m26.5 28.5h-21v-27h21z" stroke="url(#o)" stroke-linecap="round" transform="matrix(0 1 -1 0 31 -1)"/><path d="m4.5.5 23 .002v28.998h-23z" stroke="url(#u)" transform="matrix(0 1 -1 0 31 -1)"/></g><path d="m4 4h1v22h-1zm6 0h1v22h-1zm6 0h1v22h-1zm6 0h1v22h-1zm6 0h1v22h-1z" fill="#2c465d" fill-opacity=".325" opacity=".7"/><path d="m30 7v1h-28v-1zm0 6v1h-28v-1zm0 6v1h-28v-1zm0 6v1h-28v-1z" fill="#2c465d" fill-opacity=".325" opacity=".7"/><path d="m4.5 7.494h24.01v17.976h-24.01z" fill="none" stroke="#e25757" stroke-dasharray="1 1" stroke-dashoffset=".5"/><path d="m4 12v1h12v-1z" fill="#fff" opacity=".4"/><path d="m29.5 24.5h-27.011l.011-20h27z" fill="none" stroke="url(#b)" stroke-linecap="round"/><path d="m6 1v14h12v-14zm1 1h10v12h-10z" fill="url(#v)" opacity=".4" transform="translate(-2 11)"/><path d="m4.78 5.5-.124.156-2 2-.156.125v9.72h19v-9.721l-.156-.124-2-2-.125-.156h-14.219z" fill="url(#w)" transform="translate(-2 11)"/><path d="m2.78 16.5-.124.156-2 2-.156.125v9.72h19v-9.72l-.156-.124-2-2-.125-.156h-14.219z" fill="none" opacity=".71" stroke="#000"/><path d="m5.5 7h13v-6.5h-13z" fill="url(#x)" transform="translate(-2 11)"/><path d="m1 19h18v1h-18z" fill="#fff" opacity=".2"/><path d="m3.344 11c-.214.07-.355.275-.344.5v6.5h1v-6h12v6h1v-6.5c0-.276-.224-.5-.5-.5h-13c-.03-.003-.063-.003-.094 0z" opacity=".3"/><path d="m3.5 18h13v1h-13z" opacity=".4"/><path d="m3 27h14v-1h-14z" fill="#505050"/><path d="m4 25h12v1h-12z" opacity=".2"/><path d="m3 27h14v1h-14z" opacity=".4"/><path d="m19 20-.5-5h-13l-.5 5z" fill="url(#y)" transform="translate(-2 11)"/><path d="m3 25.875-.5 5.5c-.077.3.19.635.5.625h14c.31.01.577-.326.5-.625l-.5-5.5v.125h-.906v.5l.25 4.5h-.25v.03h-11.094v-.03h-1.344l.25-4.5v-.5h-.906z" opacity=".3"/><path d="m5 27h9v1h-9z" opacity=".2"/><path d="m16 21h2v2h-2z" fill="#0cceff"/><path d="m17.502 6.505-11.008-.005.01-5 10.997.005z" fill="none" stroke="url(#z)" stroke-linecap="round" transform="translate(-2 11)"/><path d="m8 29h6v1h-6z" opacity=".2"/><g transform="matrix(.82851861 0 0 .82851861 11.262089 11.39386)"><path d="m3.9957406 16.479538c.4459215-.334616 1.6971047.293067 2.8468883 1.43713 1.1470341 1.141326 1.7514206 2.362602 1.4243802 2.812888-.00124.0017.028135.02504.026864.02673l16.0100409-16.0885263c.406482-.408475-.225083-1.6993061-1.411369-2.8796879-1.186282-1.18038195-2.480279-1.80553552-2.886764-1.39705864z" fill="url(#c)" stroke="#ad5f00" stroke-linejoin="round" stroke-width="1.206973"/><path d="m3.9957406 16.479536c.4459215-.334616 1.697105.293068 2.8468878 1.43713 1.1470339 1.141326 1.7514205 2.362602 1.4243801 2.812888-.00124.0017.028135.02504.026864.02673l11.0255925-11.0796428.03988-.040071c.0013-.00169-.02811-.025017-.02686-.026729.327034-.4502889-.277353-1.6715643-1.424386-2.8128899-1.149783-1.1440621-2.400968-1.771746-2.846889-1.437129l-.03988.04007z" fill="#f9c440" opacity=".6"/><path d="m18.05188 2.3544945c.445921-.3346166 1.697105.2930675 2.846888 1.4371298 1.147033 1.141325 1.75142 2.3626014 1.424379 2.8128865-.0012.00171.02814.025041.02686.02673l1.953903-1.9634813.03988-.040071c.0013-.00169-.02811-.025017-.02686-.02673.327036-.450285-.277352-1.6715616-1.424385-2.8128867-1.149782-1.14406166-2.400965-1.77174678-2.846887-1.43713005l-.03988.0400714-1.953901 1.96348135z" fill="#fe9ab8" opacity=".8" stroke="#de3e80" stroke-linejoin="round" stroke-width="1.206973"/><path d="m15.861791 4.5553174c.44592-.3346171 1.697106.2930672 2.846888 1.4371295 1.147033 1.141325 1.751421 2.3626016 1.424379 2.8128878-.0012.00171.02814.025039.02686.026729l.199378-.2003563c.0013-.00169-.02811-.025017-.02686-.026729.327042-.4502861-.277346-1.671563-1.42438-2.8128866-1.149782-1.1440632-2.400967-1.7717473-2.846887-1.4371304z" fill="url(#d)"/><path d="m15.679073 4.7389302c.445922-.334617 1.697107.2930672 2.846888 1.4371291 1.147035 1.1413256 1.751422 2.3626005 1.42438 2.8128864-.0012.00171.02813.025041.02686.026731l.199377-.2003563c.0013-.00169-.02811-.025018-.02686-.02673.327044-.4502851-.277344-1.6715616-1.424379-2.8128865-1.149782-1.1440622-2.400966-1.771747-2.846889-1.4371299z" fill="url(#f)"/><path d="m16.496731 3.9172644c.445921-.3346173 1.697105.2930665 2.846888 1.4371297 1.147033 1.1413248 1.751421 2.3626003 1.42438 2.8128865-.0012.00171.02813.02504.02686.026729l.199378-.200355c.0013-.00169-.02811-.025017-.02686-.026729.327041-.4502858-.277346-1.6715623-1.424381-2.8128867-1.149782-1.1440629-2.400964-1.7717471-2.846888-1.4371299z" fill="url(#h)"/><path d="m16.314013 4.1008772c.445923-.3346174 1.697107.2930668 2.846888 1.4371289 1.147035 1.1413262 1.751422 2.3626013 1.424381 2.8128873-.0012.00171.02814.02504.02686.02673l.199377-.2003568c.0013-.00169-.02811-.025016-.02686-.026729.327042-.4502853-.277345-1.6715626-1.424379-2.8128856-1.149781-1.1440628-2.400966-1.7717477-2.846889-1.4371302z" fill="url(#i)"/><path d="m17.134741 3.2761275c.44592-.3346167 1.697104.2930671 2.846887 1.4371299 1.147033 1.1413247 1.751421 2.362601 1.42438 2.8128865-.0012.00171.02813.025041.02686.026731l.199376-.200356c.0013-.00169-.02811-.025018-.02686-.02673.327042-.450285-.277346-1.6715621-1.42438-2.8128872-1.14978-1.144062-2.400965-1.7717462-2.846887-1.4371291l-.199377.200355z" fill="url(#j)"/><path d="m16.952024 3.4597401c.445919-.3346173 1.697105.2930673 2.846887 1.4371305 1.147033 1.141324 1.751422 2.3626007 1.424379 2.8128853-.0012.00171.02814.025041.02686.02673l.199378-.2003543c.0013-.00169-.02811-.025019-.02686-.02673.327042-.4502865-.277346-1.6715623-1.424379-2.812887-1.149782-1.1440623-2.400967-1.7717471-2.846888-1.4371292z" fill="url(#k)"/><g fill-rule="evenodd"><g stroke-width="1.206973"><path d="m.92763987 23.761444 7.28373453-2.970838.062055-.06205c.327041-.450289-.2852284-1.67166-1.4322624-2.812988-1.1497829-1.144062-2.3994875-1.768277-2.8454094-1.43366z" fill="url(#l)" stroke="url(#m)"/><path d="m1.7587091 21.789843-.83151613 1.96381 1.98663883-.814434c-.1592262-.190724-.3062182-.384443-.4973904-.574664-.2200911-.218997-.436571-.396687-.6577323-.574712z" fill="#0c0c0c" stroke="#0c0c0c"/></g><path d="m19.705089 18.725266c-.206498-.03213-.367109-.02294-.470359.0068l-13.95021 3.090657-2.5651858.573609-.0757164.013688-2.97818693 2.202665 7.59460443-.114725.0688329-.018439 2.5812476-.569021 13.9433252-3.120442c.417588-.09178-.275333-.626383-1.551043-1.202287-.959077-.429061-1.968631-.766344-2.59272-.860416z" fill="#0c0c0c" opacity=".15" stroke-width="2.294442"/></g></g></svg>