<svg height="32" width="32" xmlns="http://www.w3.org/2000/svg" xmlns:xlink="http://www.w3.org/1999/xlink"><linearGradient id="a" gradientTransform="matrix(.65657 -.6598 .73452 .73087 -21.95 5.314)" gradientUnits="userSpaceOnUse" x1="23.576" x2="23.576" y1="25.357" y2="31.211"><stop offset="0" stop-color="#181818"/><stop offset=".135" stop-color="#dbdbdb"/><stop offset=".202" stop-color="#a4a4a4"/><stop offset=".27" stop-color="#fff"/><stop offset=".447" stop-color="#8d8d8d"/><stop offset=".571" stop-color="#959595"/><stop offset=".72" stop-color="#cecece"/><stop offset="1" stop-color="#181818"/></linearGradient><linearGradient id="b" gradientTransform="matrix(.638 -.64114 .85963 .85535 -24.357 1.938)" gradientUnits="userSpaceOnUse" x1="30.038" x2="30.038" xlink:href="#c" y1="24.99" y2="30"/><linearGradient id="c"><stop offset="0" stop-color="#565656"/><stop offset=".5" stop-color="#9a9a9a"/><stop offset="1" stop-color="#545454"/></linearGradient><linearGradient id="d" gradientTransform="matrix(.638 -.64114 .85963 .85535 -24.54 2.122)" gradientUnits="userSpaceOnUse" x1="30.038" x2="30.038" xlink:href="#e" y1="24.99" y2="30"/><linearGradient id="e"><stop offset="0" stop-color="#b1b1b1"/><stop offset=".5" stop-color="#fff"/><stop offset="1" stop-color="#8f8f8f"/></linearGradient><linearGradient id="f" gradientTransform="matrix(.638 -.64114 .85963 .85535 -23.722 1.3)" gradientUnits="userSpaceOnUse" x1="30.038" x2="30.038" xlink:href="#c" y1="24.99" y2="30"/><linearGradient id="g" gradientTransform="matrix(.638 -.64114 .85963 .85535 -23.905 1.484)" gradientUnits="userSpaceOnUse" x1="30.038" x2="30.038" xlink:href="#e" y1="24.99" y2="30"/><linearGradient id="h" gradientTransform="matrix(.638 -.64114 .85963 .85535 -23.084 .66)" gradientUnits="userSpaceOnUse" x1="30.038" x2="30.038" xlink:href="#c" y1="24.99" y2="30"/><linearGradient id="i" gradientTransform="matrix(.638 -.64114 .85963 .85535 -23.267 .843)" gradientUnits="userSpaceOnUse" x1="30.038" x2="30.038" xlink:href="#e" y1="24.99" y2="30"/><linearGradient id="j" gradientTransform="matrix(.638 -.64114 .85963 .85535 -24.6 2.182)" gradientUnits="userSpaceOnUse" x1="9" x2="9" y1="29.056999" y2="26.030001"><stop offset="0" stop-color="#ece5a5"/><stop offset="1" stop-color="#fcfbf2"/></linearGradient><linearGradient id="k" gradientTransform="matrix(.56036 .0242 .02416 .55967 -1.392 -1.445)" gradientUnits="userSpaceOnUse" x1="5.518" x2="9.522" y1="37.372002" y2="41.391998"><stop offset="0" stop-color="#dbce48"/><stop offset="1" stop-color="#c5b625"/></linearGradient><linearGradient id="l"><stop offset="0"/><stop offset="1" stop-opacity="0"/></linearGradient><linearGradient id="m" gradientTransform="matrix(.56757 0 0 .72973 2.378 -2.514)" gradientUnits="userSpaceOnUse" x1="4.619" x2="43.381" y1="32.222" y2="32.222"><stop offset="0" stop-color="#fff"/><stop offset=".036" stop-color="#fff" stop-opacity=".235"/><stop offset=".951" stop-color="#fff" stop-opacity=".157"/><stop offset="1" stop-color="#fff" stop-opacity=".392"/></linearGradient><linearGradient id="n"><stop offset="0" stop-color="#f4f4f4"/><stop offset="1" stop-color="#dbdbdb"/></linearGradient><linearGradient id="o" gradientTransform="matrix(.62857 0 0 .6084 .914 -.535)" gradientUnits="userSpaceOnUse" x1="11.273" x2="44.682" xlink:href="#n" y1="27.178" y2="25.534"/><radialGradient id="p" cx="605.71" cy="486.65" gradientTransform="matrix(.01566 0 0 .00824 17.61 25.98)" gradientUnits="userSpaceOnUse" r="117.14" xlink:href="#l"/><radialGradient id="q" cx="605.71" cy="486.65" gradientTransform="matrix(-.01566 0 0 .00824 14.39 25.98)" gradientUnits="userSpaceOnUse" r="117.14" xlink:href="#l"/><linearGradient id="r" gradientTransform="matrix(.04577 0 0 .00824 -.542 25.98)" gradientUnits="userSpaceOnUse" x1="302.86" x2="302.86" y1="366.65" y2="609.51"><stop offset="0" stop-opacity="0"/><stop offset=".5"/><stop offset="1" stop-opacity="0"/></linearGradient><linearGradient id="s" gradientTransform="matrix(.53064 0 0 .5897 39.27 -1.792)" gradientUnits="userSpaceOnUse" x1="-21.238" x2="-68.351" y1="31.867" y2="35.258"><stop offset="0" stop-opacity=".318"/><stop offset="1" stop-opacity=".24"/></linearGradient><linearGradient id="t" gradientTransform="translate(0 -5)" gradientUnits="userSpaceOnUse" x1="10" x2="10" y2="22"><stop offset="0" stop-color="#fff"/><stop offset="1" stop-color="#fff" stop-opacity="0"/></linearGradient><linearGradient id="u" gradientUnits="userSpaceOnUse" x1="12" x2="12" y1="18" y2="7"><stop offset="0" stop-color="#232323"/><stop offset=".8" stop-color="#535353"/><stop offset=".8" stop-color="#676767"/><stop offset="1" stop-color="#676767"/></linearGradient><linearGradient id="v" gradientTransform="matrix(.48572 0 0 -.25857 -.657 10.22)" gradientUnits="userSpaceOnUse" x1="30.176" x2="30.176" xlink:href="#n" y1="47.256" y2="-26.225"/><linearGradient id="w" gradientTransform="matrix(.48572 0 0 -.25857 -.657 24.72)" gradientUnits="userSpaceOnUse" x1="28.118" x2="28.118" xlink:href="#n" y1="91.732" y2="22.118"/><linearGradient id="x" gradientTransform="matrix(.4054 0 0 .5135 2.27 -2.324)" gradientUnits="userSpaceOnUse" x1="24" x2="24" y1="6.474" y2="41.526"><stop offset="0" stop-color="#fff"/><stop offset=".056" stop-color="#fff" stop-opacity=".235"/><stop offset="1" stop-color="#fff" stop-opacity=".157"/><stop offset="1" stop-color="#fff" stop-opacity=".392"/></linearGradient><path d="m4.95 29h22.1v2h-22.1z" fill="url(#r)" opacity=".15" transform="translate(-2.44 -2.44)"/><path d="m4.95 29v2c-.807.004-1.95-.448-1.95-1s.9-1 1.95-1z" fill="url(#q)" opacity=".15" transform="translate(-2.44 -2.44)"/><path d="m27.05 29v2c.807.004 1.95-.448 1.95-1s-.9-1-1.95-1z" fill="url(#p)" opacity=".15" transform="translate(-2.44 -2.44)"/><path d="m5 1 22 .002v27.998h-22z" fill="url(#o)" transform="matrix(0 1 -1 0 31 -1)"/><g fill="none" stroke-linejoin="round"><path d="m26.5 28.5h-21v-27h21z" stroke="url(#m)" stroke-linecap="round" transform="matrix(0 1 -1 0 31 -1)"/><path d="m4.5.5 23 .002v28.998h-23z" stroke="url(#s)" transform="matrix(0 1 -1 0 31 -1)"/></g><path d="m4 4h1v22h-1zm6 0h1v22h-1zm6 0h1v22h-1zm6 0h1v22h-1zm6 0h1v22h-1z" fill="#2c465d" fill-opacity=".325" opacity=".7"/><path d="m30 7v1h-28v-1zm0 6v1h-28v-1zm0 6v1h-28v-1zm0 6v1h-28v-1z" fill="#2c465d" fill-opacity=".325" opacity=".7"/><path d="m4.5 7.494h24.01v17.976h-24.01z" fill="none" stroke="#e25757" stroke-dasharray="1 1" stroke-dashoffset=".5"/><path d="m4 12v1h12v-1z" fill="#fff" opacity=".4"/><path d="m6 1v14h12v-14zm1 1h10v12h-10z" fill="url(#t)" opacity=".4" transform="translate(-2 11)"/><path d="m4.78 5.5-.124.156-2 2-.156.125v9.72h19v-9.721l-.156-.124-2-2-.125-.156h-14.219z" fill="url(#u)" transform="translate(-2 11)"/><path d="m2.78 16.5-.124.156-2 2-.156.125v9.72h19v-9.72l-.156-.124-2-2-.125-.156h-14.219z" fill="none" opacity=".71" stroke="#000"/><path d="m5.5 7h13v-6.5h-13z" fill="url(#v)" transform="translate(-2 11)"/><path d="m1 19h18v1h-18z" fill="#fff" opacity=".2"/><path d="m3.344 11c-.214.07-.355.275-.344.5v6.5h1v-6h12v6h1v-6.5c0-.276-.224-.5-.5-.5h-13c-.03-.003-.063-.003-.094 0z" opacity=".3"/><path d="m3.5 18h13v1h-13z" opacity=".4"/><path d="m3 27h14v-1h-14z" fill="#505050"/><path d="m4 25h12v1h-12z" opacity=".2"/><path d="m3 27h14v1h-14z" opacity=".4"/><path d="m19 20-.5-5h-13l-.5 5z" fill="url(#w)" transform="translate(-2 11)"/><path d="m3 25.875-.5 5.5c-.077.3.19.635.5.625h14c.31.01.577-.326.5-.625l-.5-5.5v.125h-.906v.5l.25 4.5h-.25v.03h-11.094v-.03h-1.344l.25-4.5v-.5h-.906z" opacity=".3"/><path d="m5 27h9v1h-9z" opacity=".2"/><path d="m16 21h2v2h-2z" fill="#0cceff"/><path d="m17.502 6.505-11.008-.005.01-5 10.997.005z" fill="none" stroke="url(#x)" stroke-linecap="round" transform="translate(-2 11)"/><path d="m8 29h6v1h-6z" opacity=".2"/><g transform="translate(-.000738 7.790284)"><path d="m28.036 18.017c-.2-.03-.355-.015-.46.01l-13.85 3.186-2.548.588-.078.014-3.1 2.185 7.396-.196.062-.014 2.565-.586 13.848-3.21c.417-.097-.204-.614-1.393-1.162-.89-.41-1.843-.727-2.44-.815z" fill="#0c0c0c" fill-rule="evenodd" opacity=".15"/><path d="m3.996 16.48c.446-.335 1.697.293 2.847 1.437 1.147 1.14 1.75 2.362 1.424 2.813 0 0 .028.025.027.026l16.01-16.088c.406-.41-.225-1.7-1.41-2.88-1.189-1.18-2.484-1.805-2.889-1.398z" fill="url(#a)" stroke="#0c0c0c" stroke-linejoin="round" stroke-width=".5" transform="translate(7.23 -.01)"/><path d="m25.282 2.344c.446-.334 1.697.294 2.847 1.438 1.146 1.14 1.75 2.362 1.423 2.813 0 0 .028.025.027.026l1.954-1.962.04-.04c0-.002-.028-.025-.027-.027.327-.45-.277-1.67-1.424-2.812-1.149-1.146-2.399-1.774-2.846-1.44l-.04.04z" fill="#ffb6ed" opacity=".8" stroke="#e28ccd" stroke-linejoin="round" stroke-width=".5"/><path d="m11.226 16.47c.446-.335 1.697.293 2.847 1.437 1.147 1.14 1.75 2.362 1.424 2.813 0 0 .028.025.027.026l11.026-11.08.04-.04s-.03-.024-.028-.026c.328-.45-.277-1.672-1.424-2.813-1.15-1.144-2.4-1.772-2.847-1.437l-.04.04z" fill="#0c0c0c" opacity=".6"/><path d="m15.862 4.555c.446-.334 1.697.293 2.847 1.437 1.146 1.142 1.75 2.363 1.423 2.813 0 .002.028.025.027.027l.2-.2c0-.002-.03-.025-.028-.027.327-.45-.277-1.672-1.424-2.813-1.15-1.144-2.4-1.772-2.847-1.437z" fill="url(#b)" transform="translate(7.23 -.01)"/><path d="m15.68 4.74c.445-.336 1.696.292 2.846 1.436 1.147 1.14 1.75 2.363 1.424 2.813 0 0 .028.024.027.026l.2-.2c0-.002-.03-.026-.027-.027.327-.452-.278-1.673-1.425-2.814-1.15-1.144-2.4-1.772-2.847-1.437z" fill="url(#d)" transform="translate(7.23 -.01)"/><path d="m16.497 3.917c.446-.334 1.697.293 2.847 1.437 1.147 1.142 1.75 2.363 1.424 2.813 0 .002.028.025.027.027l.2-.2c0-.002-.03-.025-.028-.027.327-.45-.277-1.672-1.424-2.813-1.15-1.144-2.4-1.772-2.847-1.437z" fill="url(#f)" transform="translate(7.23 -.01)"/><path d="m16.314 4.1c.446-.334 1.697.294 2.847 1.438 1.148 1.14 1.752 2.363 1.425 2.813 0 .003.028.026.027.028l.2-.2c0-.002-.03-.026-.027-.027.327-.45-.278-1.67-1.425-2.812-1.15-1.144-2.4-1.772-2.847-1.437z" fill="url(#g)" transform="translate(7.23 -.01)"/><path d="m17.135 3.276c.446-.334 1.697.293 2.847 1.437 1.147 1.142 1.75 2.363 1.424 2.813 0 .002.028.025.027.027l.2-.2c0-.002-.03-.025-.028-.027.327-.45-.277-1.672-1.424-2.813-1.15-1.144-2.4-1.772-2.846-1.437z" fill="url(#h)" transform="translate(7.23 -.01)"/><path d="m16.952 3.46c.446-.335 1.697.293 2.847 1.437 1.146 1.14 1.75 2.362 1.423 2.813 0 0 .028.025.027.026l.2-.2c0-.002-.03-.025-.027-.027.327-.45-.278-1.672-1.425-2.813-1.15-1.145-2.4-1.772-2.847-1.438z" fill="url(#i)" transform="translate(7.23 -.01)"/><g fill-rule="evenodd" stroke-width=".5"><path d="m.928 23.76 7.283-2.97.063-.06c.327-.452-.285-1.673-1.432-2.814-1.15-1.144-2.398-1.77-2.844-1.434z" fill="url(#j)" stroke="url(#k)" transform="translate(7.23 -.01)"/><path d="m8.99 21.78-.833 1.964 1.987-.815c-.16-.192-.306-.385-.498-.575-.22-.22-.436-.397-.657-.575z" fill="#0c0c0c" stroke="#0c0c0c"/></g></g></svg>