<svg height="32" viewBox="0 0 8.4666664 8.4666669" width="32" xmlns="http://www.w3.org/2000/svg" xmlns:xlink="http://www.w3.org/1999/xlink"><radialGradient id="a" cx="2.25" cy="16" gradientTransform="matrix(.479894 0 0 .11633788 10.772975 15.813237)" gradientUnits="userSpaceOnUse" r="16.875"><stop offset="0"/><stop offset="1" stop-opacity="0"/></radialGradient><linearGradient id="b" gradientTransform="matrix(1.0579469 0 0 .93327787 .895667 1.294817)" gradientUnits="userSpaceOnUse" x1="8.677185" x2="9.024967" y1="2.673867" y2="17.514729"><stop offset="0" stop-color="#cd9ef7"/><stop offset="1" stop-color="#a56de2"/></linearGradient><linearGradient id="c" gradientUnits="userSpaceOnUse" x1="10.424609" x2="10.303111" y1="5.617542" y2="16.937096"><stop offset="0" stop-color="#fff"/><stop offset=".39733317" stop-color="#fff" stop-opacity=".235294"/><stop offset="1" stop-color="#fff" stop-opacity=".156863"/><stop offset="1" stop-color="#fff" stop-opacity=".392157"/></linearGradient><g fill-rule="evenodd" transform="matrix(.3527769 0 0 .3527769 .000011 .24028)"><ellipse cx="11.852736" cy="17.674644" display="block" fill="url(#a)" opacity=".433333" rx="8.098211" ry="1.963204"/><g stroke-linejoin="round" stroke-width=".750002"><path d="m20.486049 11c0 4.134431-3.799334 7.486049-8.486049 7.486049-4.6867152 0-8.4860486-3.351618-8.4860487-7.486049 0-4.1344308 3.7993334-7.4860491 8.4860487-7.4860492.04519 0 .101449-.028735.13532.0009325l8.348515 7.3123937c.04321.03784.0022.114994.0022.172723z" fill="url(#b)" stroke="#7239b3" stroke-opacity=".501961"/><path d="m11.876953 4.2773438c-4.269804.0611689-7.6210936 3.080777-7.6210936 6.7226562.0000001 3.67913 3.4117469 6.744141 7.7441406 6.744141 4.274817 0 7.623872-2.991792 7.712891-6.605469z" fill="none" opacity=".5" stroke="url(#c)"/></g></g></svg>