<svg xmlns="http://www.w3.org/2000/svg" xmlns:xlink="http://www.w3.org/1999/xlink" height="32" viewBox="0 0 8.4666665 8.4666668" width="32"><linearGradient id="f" gradientTransform="matrix(.3637 0 0 .41053 .033 -.33)" gradientUnits="userSpaceOnUse" x1="11.001" x2="11.001" xlink:href="#a" y1="2.269" y2="19.728"/><linearGradient id="a"><stop offset="0" stop-color="#fff"/><stop offset=".063" stop-color="#fff" stop-opacity=".235"/><stop offset=".951" stop-color="#fff" stop-opacity=".157"/><stop offset="1" stop-color="#fff" stop-opacity=".392"/></linearGradient><linearGradient id="e" gradientTransform="matrix(.36596 0 0 .37424 .025 -.13)" gradientUnits="userSpaceOnUse" x1="8.295" x2="8.295" y1="-4.284" y2="16.85"><stop offset="0" stop-color="#cdf87e"/><stop offset=".262" stop-color="#a2e34f"/><stop offset=".661" stop-color="#68b723"/><stop offset="1" stop-color="#1d7e0d"/></linearGradient><linearGradient id="d" gradientTransform="matrix(.1764 0 0 .0882 -.177 1.06)" gradientUnits="userSpaceOnUse" x1="23.954" x2="23.954" y1="15.999" y2="19.963"><stop offset="0"/><stop offset="1" stop-opacity="0"/></linearGradient><linearGradient id="c" gradientTransform="matrix(.1796 0 0 .1952 -.088 -.368)" gradientUnits="userSpaceOnUse" x1="24" x2="24" xlink:href="#a" y1="5" y2="43"/><linearGradient id="b" gradientTransform="matrix(.1573 0 0 .1587 .46 -.008)" gradientUnits="userSpaceOnUse" x1="25.132" x2="25.132" y1="15.5" y2="48.396"><stop offset="0" stop-color="#fafafa"/><stop offset="1" stop-color="#e2e1de"/></linearGradient><rect y=".53" x=".793" width="6.879" rx=".264" height="7.408" fill="url(#b)"/><path d="M.9.707h6.644l.023 7.407H.923z" fill="none" stroke="url(#c)" stroke-width=".268" stroke-linecap="round" stroke-linejoin="round"/><path d="M.53 2.382h7.406v.264H.53z" opacity=".15" fill="url(#d)"/><path d="M.66 2.12L.656 7.644c0 .203.206.423.41.423H7.39c.202 0 .41-.22.41-.424l.005-5.527" opacity=".3" fill="none" stroke="#000" stroke-width=".268"/><path d="M.965.392c-.21 0-.3.227-.3.44v1.286h7.138V.834c0-.216-.158-.43-.368-.43z" fill="url(#e)"/><path d="M.923.654L.925 1.99l6.634.013V.667z" opacity=".5" fill="none" stroke="url(#f)" stroke-width=".268" stroke-linecap="round" stroke-linejoin="round"/><path d="M2.116.53h.267v1.586h-.267zm1.852 0h.267v1.586h-.267zm1.852 0h.267v1.586H5.82z" opacity=".4" fill="#126400"/><path d="M2.115 7.938L2.117.53h2.116L4.23 7.937z" fill="#f37329"/><path d="M1.083.398C.88.398.66.643.66.846v1.397l7.144.005V.842c0-.2-.192-.443-.395-.443z" opacity=".4" fill="none" stroke="#126400" stroke-width=".268" stroke-linecap="round"/><path d="M2.116 2.382h.267v5.556h-.267zm1.852 0h.267v5.556h-.267zm1.852 0h.267v5.556H5.82zM.793 3.44h1.323v.264H.793z" opacity=".321"/><path d="M2.115 7.938c0 .146.118.265.264.265h1.59c.144 0 .262-.12.262-.265L4.234.53c0-.147-.118-.265-.264-.265H2.38c-.145 0-.263.118-.263.264zm.264 0V.53h1.59v7.407z" fill="#cc3b02"/><path d="M2.38 3.44h1.59v.264H2.38zm1.853 0H5.82v.264H4.233zm1.852 0h1.587v.264H6.085zM.793 5.027h1.323v.267H.793zm1.588 0h1.59v.267H2.38zm1.854 0H5.82v.267H4.233zm1.852 0h1.587v.267H6.085zM.793 6.614h1.323v.266H.793zm1.588 0h1.59v.266H2.38zm1.854 0H5.82v.266H4.233zm1.852 0h1.587v.266H6.085z" opacity=".321"/></svg>