<svg height="32" width="32" xmlns="http://www.w3.org/2000/svg" xmlns:xlink="http://www.w3.org/1999/xlink"><linearGradient id="a" gradientUnits="userSpaceOnUse" x1="16.833294" x2="16.833294" y1="18.666553" y2="12.666554"><stop offset="0" stop-color="#fad4a1"/><stop offset="1" stop-color="#e6b481"/></linearGradient><linearGradient id="b" gradientTransform="matrix(0 .33333336 -.86363639 0 29.704545 -113.66668)" gradientUnits="userSpaceOnUse" x1="390.99966" x2="386.99966" y1="16.447412" y2="16.447412"><stop offset="0" stop-color="#fff"/><stop offset="1" stop-color="#fff" stop-opacity="0"/></linearGradient><linearGradient id="c" gradientTransform="matrix(0 .33333336 -.86363639 0 29.704545 -113.66668)" gradientUnits="userSpaceOnUse" x1="390.99966" x2="386.99966" xlink:href="#b" y1="16.447412" y2="16.447412"/><linearGradient id="d" gradientTransform="matrix(.04576928 0 0 .00823529 -.542324 25.980548)" gradientUnits="userSpaceOnUse" x1="302.85715" x2="302.85715" xlink:href="#m" y1="366.64789" y2="609.50507"/><radialGradient id="e" cx="605.71429" cy="486.64789" gradientTransform="matrix(-.01566318 0 0 .00823529 13.939538 25.813978)" gradientUnits="userSpaceOnUse" r="117.14286" xlink:href="#j"/><radialGradient id="f" cx="605.71429" cy="486.64789" gradientTransform="matrix(.01566318 0 0 .00823529 18.393716 25.813978)" gradientUnits="userSpaceOnUse" r="117.14286" xlink:href="#j"/><linearGradient id="g" gradientTransform="matrix(.62856997 0 0 .60839392 .91432 -.534791)" gradientUnits="userSpaceOnUse" x1="25.132275" x2="25.132275" xlink:href="#l" y1=".985206" y2="47.013336"/><linearGradient id="h" gradientTransform="matrix(.56756757 0 0 .72972971 2.378382 -2.513506)" gradientUnits="userSpaceOnUse" x1="23.99999" x2="23.99999" xlink:href="#k" y1="5.56415" y2="43"/><linearGradient id="i" gradientTransform="matrix(.53064141 0 0 .58970049 39.269607 -1.791918)" gradientUnits="userSpaceOnUse" x1="-51.786404" x2="-51.786404" xlink:href="#n" y1="50.786446" y2="2.906247"/><linearGradient id="j"><stop offset="0"/><stop offset="1" stop-opacity="0"/></linearGradient><linearGradient id="k" gradientTransform="matrix(.56756757 0 0 .72972971 2.378382 -2.513506)" gradientUnits="userSpaceOnUse" x1="23.99999" x2="23.99999" y1="5.56415" y2="43"><stop offset="0" stop-color="#fff"/><stop offset=".03626217" stop-color="#fff" stop-opacity=".235294"/><stop offset=".95056331" stop-color="#fff" stop-opacity=".156863"/><stop offset="1" stop-color="#fff" stop-opacity=".392157"/></linearGradient><linearGradient id="l" gradientTransform="matrix(.62856997 0 0 .60839392 .91432 -.534791)" gradientUnits="userSpaceOnUse" x1="25.132275" x2="25.132275" y1=".985206" y2="47.013336"><stop offset="0" stop-color="#f4f4f4"/><stop offset="1" stop-color="#dbdbdb"/></linearGradient><linearGradient id="m" gradientTransform="matrix(.04576928 0 0 .00823529 -.542324 25.980548)" gradientUnits="userSpaceOnUse" x1="302.85715" x2="302.85715" y1="366.64789" y2="609.50507"><stop offset="0" stop-opacity="0"/><stop offset=".5"/><stop offset="1" stop-opacity="0"/></linearGradient><linearGradient id="n" gradientTransform="matrix(.53064141 0 0 .58970049 39.269607 -1.791918)" gradientUnits="userSpaceOnUse" x1="-51.786404" x2="-51.786404" y1="50.786446" y2="2.906247"><stop offset="0" stop-opacity=".317829"/><stop offset="1" stop-opacity=".24031"/></linearGradient><g transform="matrix(.75 0 0 .75 9.125029 1.374958)"><path d="m4.499961 28.833389h23.333333v2h-23.333333z" fill="url(#d)" opacity=".15"/><path d="m4.499961 28.833499v1.99989c-.806615.0038-1.950002-.448074-1.950002-1.000074s.900121-.999816 1.950002-.999816z" fill="url(#e)" opacity=".15"/><path d="m27.833294 28.833499v1.99989c.806614.0038 1.950002-.448074 1.950002-1.000074s-.900122-.999816-1.950002-.999816z" fill="url(#f)" opacity=".15"/><path d="m5.1666277.83338523c5.0413163 0 21.3333333.0000041 21.3333333.0000041v27.99999967l-21.3333603.0018.000027-28.00178567z" fill="url(#g)"/><g fill="none" stroke-linejoin="round" stroke-width="1.333333"><path d="m25.855893 28.166723h-19.9999998l-.0225989-26.666667h19.9999997z" stroke="url(#h)" stroke-linecap="round"/><path d="m4.499961.16656667c5.27048 0 22.666643.002 22.666643.002l.000024 29.33148933h-22.666667v-29.33333333z" stroke="url(#i)"/></g><g transform="matrix(1 0 0 -1 .999999 38.833277)"><path d="m28.833294 13.333221v5.333333h-27.99999967v-5.333333z" fill="url(#a)" stroke="#783f07" stroke-opacity=".490196" stroke-width="1.333333"/><path d="m27.499961 14.666554v2.666667h-25.3333333v-2.666667z" fill="none" opacity=".4" stroke="url(#c)" stroke-width="1.333333"/><path d="m17 10v1h1.5v-1zm0 3v1h1.5v-1zm0 3v1h1.5v-1zm0 3v1h1.5v-1zm0 3v1h1.5v-1zm0 3v1h1.5v-1zm0 3v1h1.5v-1z" fill="#a1550a" fill-opacity=".25098" transform="matrix(0 -1.3333333 -1.3333333 0 41.499961 40.666554)"/></g></g><g transform="matrix(.75 0 0 .75 -.874971 7.374958)"><path d="m4.499961 28.833389h23.333333v2h-23.333333z" fill="url(#m)" opacity=".15"/><path d="m4.499961 28.833499v1.99989c-.806615.0038-1.950002-.448074-1.950002-1.000074s.900121-.999816 1.950002-.999816z" fill="url(#e)" opacity=".15"/><path d="m27.833294 28.833499v1.99989c.806614.0038 1.950002-.448074 1.950002-1.000074s-.900122-.999816-1.950002-.999816z" fill="url(#f)" opacity=".15"/><path d="m5.1666277.83338523c5.0413163 0 21.3333333.0000041 21.3333333.0000041v27.99999967l-21.3333603.0018.000027-28.00178567z" fill="url(#l)"/><g fill="none" stroke-linejoin="round" stroke-width="1.333333"><path d="m25.855893 28.166723h-19.9999998l-.0225989-26.666667h19.9999997z" stroke="url(#k)" stroke-linecap="round"/><path d="m4.499961.16656667c5.27048 0 22.666643.002 22.666643.002l.000024 29.33148933h-22.666667v-29.33333333z" stroke="url(#n)"/></g><g transform="matrix(1 0 0 -1 1 38.833277)"><path d="m28.833294 13.333221v5.333333h-27.99999967v-5.333333z" fill="url(#a)" stroke="#783f07" stroke-opacity=".490196" stroke-width="1.333333"/><path d="m27.499961 14.666554v2.666667h-25.3333333v-2.666667z" fill="none" opacity=".4" stroke="url(#b)" stroke-width="1.333333"/><path d="m17 10v1h1.5v-1zm0 3v1h1.5v-1zm0 3v1h1.5v-1zm0 3v1h1.5v-1zm0 3v1h1.5v-1zm0 3v1h1.5v-1zm0 3v1h1.5v-1z" fill="#a1550a" fill-opacity=".25098" transform="matrix(0 -1.3333333 -1.3333333 0 41.499961 40.666554)"/></g></g></svg>