<svg height="32" width="32" xmlns="http://www.w3.org/2000/svg" xmlns:xlink="http://www.w3.org/1999/xlink"><linearGradient id="a"><stop offset="0" stop-opacity=".339506"/><stop offset="1" stop-opacity=".246914"/></linearGradient><linearGradient id="b" gradientUnits="userSpaceOnUse" x1="12.610265" x2="12.983146" y1="4.655892" y2="17.977927"><stop offset="0" stop-color="#fff"/><stop offset=".0679896" stop-color="#fff" stop-opacity=".235294"/><stop offset="1" stop-color="#fff" stop-opacity=".156863"/><stop offset="1" stop-color="#fff" stop-opacity=".392157"/></linearGradient><linearGradient id="c" gradientUnits="userSpaceOnUse" x1="10.084841" x2="10.017044" xlink:href="#a" y1="18.588097" y2="3.537249"/><linearGradient id="d" gradientUnits="userSpaceOnUse" x1="15.067891" x2="15.30518" y1="4.452504" y2="17.977927"><stop offset="0" stop-color="#f4f4f4"/><stop offset="1" stop-color="#dbdbdb"/></linearGradient><linearGradient id="e" gradientUnits="userSpaceOnUse" x1="3" x2="21.5" xlink:href="#a" y1="1.944428" y2="1.944428"/><linearGradient id="f" gradientUnits="userSpaceOnUse" x1="18" x2="22.111143" xlink:href="#a" y1="9.542822" y2="9.542822"/><radialGradient id="g" cx="2.25" cy="16" gradientTransform="matrix(.53333333 0 0 .11633788 10.461112 15.774215)" gradientUnits="userSpaceOnUse" r="16.875"><stop offset="0"/><stop offset="1" stop-opacity="0"/></radialGradient><g transform="matrix(1.33333 0 0 1.33333 -2.615778 5.840337)"><ellipse cx="11.661112" cy="17.635622" display="block" fill="url(#g)" fill-rule="evenodd" opacity=".711111" rx="9" ry="1.963204"/><g stroke-width=".750002"><path d="m3.1320954 3.4319613h15.0580336v15.0580337h-15.0580336z" fill="url(#d)" stroke="url(#c)" stroke-linecap="round" stroke-linejoin="round"/><path d="m3.8465638 4.2236573 13.5383852-.040449.040052 13.5035217-13.5849803-.057203z" fill="none" stroke="url(#b)"/><g fill-rule="evenodd" stroke-linejoin="round" transform="translate(-.338888 -.039022)"><path d="m18.513893 3.8900003 5.111705-5.5316166.04212 9.2622102-5.153829 10.6584081z" fill="#dbdbdb" stroke="url(#f)"/><path d="m17.902822 3.4861071 5.762304-5.9571769-7.503683-.0179774-12.6476227 5.9751543z" fill="#fafafa" stroke="url(#e)"/></g></g></g></svg>