<svg height="32" width="32" xmlns="http://www.w3.org/2000/svg" xmlns:xlink="http://www.w3.org/1999/xlink"><linearGradient id="a" gradientTransform="matrix(.92928007 0 0 1.3114842 3.136747 11.431452)" gradientUnits="userSpaceOnUse" x1="3.5" x2="28.5" y1="6" y2="6"><stop offset="0" stop-color="#ff1d1d"/><stop offset=".16829631" stop-color="#ff8a18"/><stop offset=".31939223" stop-color="#ffe92a"/><stop offset=".50751495" stop-color="#91ea3a"/><stop offset=".6893779" stop-color="#1d72e0"/><stop offset=".87265676" stop-color="#a91ec0"/><stop offset="1" stop-color="#ff0b88"/></linearGradient><linearGradient id="b" gradientTransform="matrix(.19760229 0 0 .21057703 7.891559 288.03873)" gradientUnits="userSpaceOnUse" x1="-17.84359" x2="-17.84359" y1="35.01693" y2="40.042805"><stop offset="0" stop-color="#fff"/><stop offset=".0257705" stop-color="#fff" stop-opacity=".235"/><stop offset=".63202661" stop-color="#fff" stop-opacity=".157"/><stop offset="1" stop-color="#fff" stop-opacity=".392"/></linearGradient><linearGradient id="c"><stop offset="0" stop-opacity=".339506"/><stop offset="1" stop-opacity=".246914"/></linearGradient><linearGradient id="d" gradientTransform="matrix(.5369158 0 0 .60920055 -8.189368 294.14544)" gradientUnits="userSpaceOnUse" x1="23.314552" x2="23.915749" xlink:href="#c" y1="1.428383" y2="4.251413"/><linearGradient id="e" xlink:href="#c"/><linearGradient id="f" gradientUnits="userSpaceOnUse" x1="12.5" x2="12.5" y1="4.568911" y2="14.318935"><stop offset="0" stop-color="#fff"/><stop offset="0" stop-color="#fff" stop-opacity=".235294"/><stop offset="1" stop-color="#fff" stop-opacity=".156863"/><stop offset="1" stop-color="#fff" stop-opacity=".392157"/></linearGradient><linearGradient id="g" gradientUnits="userSpaceOnUse" x1="10.249994" x2="10.017044" xlink:href="#e" y1="15.068937" y2="3.537249"/><linearGradient id="h" gradientUnits="userSpaceOnUse" x1="14.750006" x2="14.750006" y1="4.568911" y2="15.068937"><stop offset="0" stop-color="#f4f4f4"/><stop offset="1" stop-color="#dbdbdb"/></linearGradient><linearGradient id="i" gradientUnits="userSpaceOnUse" x1="6.838873" x2="21.838911" xlink:href="#e" y1="2.357927" y2="2.357927"/><linearGradient id="j" gradientUnits="userSpaceOnUse" x1="18" x2="22.111143" xlink:href="#e" y1="9.542822" y2="9.542822"/><linearGradient id="k" gradientUnits="userSpaceOnUse" x1="15.009303" x2="15.04547" xlink:href="#e" y1="15.151894" y2="1.812745"/><g stroke-width=".750002" transform="matrix(1.33333 0 0 1.33333 -2.666625 2.908134)"><path d="m9.4999925.44390061 11.6901365-.01193929-.048618 11.72465268-11.6901365.011939z" fill="none" stroke="url(#k)" stroke-linecap="round" stroke-linejoin="round"/><path d="m6.1249841 3.4439081 12.0000299.0000002v12.0000297h-12.0000299z" fill="url(#h)" stroke="url(#g)" stroke-linecap="round" stroke-linejoin="round"/><path d="m6.8465713 4.2236573 10.5383777-.040449.040052 10.5035137-10.5849728-.057203z" fill="none" stroke="url(#f)"/><g fill-rule="evenodd" stroke-linejoin="round" transform="translate(-.338888 -.039022)"><path d="m18.463902 3.4829301 3.000008-3.00000749.016489 11.71271339-3.016497 3.287324z" fill="#dbdbdb" stroke="url(#j)"/><path d="m18.463902 3.4829301 3.000008-3.00000749h-11.6250295l-3.3750084 3.00000749z" fill="#fafafa" stroke="url(#i)"/></g></g><g transform="matrix(1.33436626 0 0 1.33436626 -8.025569 1.371238)"><path d="m6.3892276 17.333139v5.245955h23.2320014v-5.245955z" fill="url(#a)"/><g fill="none" stroke-linecap="square" stroke-width=".264583" transform="matrix(2.8324513 0 0 2.8324513 6.014518 -818.28421)"><path d="m.396875 295.28019h7.672917v1.32292h-7.672917z" opacity=".6" stroke="url(#b)"/><path d="m.13229167 295.01561h8.20208333v1.85209h-8.20208333z" stroke="url(#d)"/></g></g></svg>