<svg height="32" width="32" xmlns="http://www.w3.org/2000/svg" xmlns:xlink="http://www.w3.org/1999/xlink"><linearGradient id="a" gradientTransform="matrix(.53720001 0 0 -.57682 -5.482283 47.941954)" gradientUnits="userSpaceOnUse" x1="24.225559" x2="24.399239" y1="63.894291" y2="47.888428"><stop offset="0" stop-color="#fff"/><stop offset=".45" stop-color="#fff" stop-opacity=".235"/><stop offset=".99999994" stop-color="#fff" stop-opacity=".157"/><stop offset="1" stop-color="#fff" stop-opacity=".392"/></linearGradient><linearGradient id="b" gradientUnits="userSpaceOnUse" x1="11.750938" x2="23.000967" y1="8.334094" y2="8.334094"><stop offset="0" stop-color="#cd9ef7"/><stop offset="1" stop-color="#a56de2"/></linearGradient><radialGradient id="c" cx="24.837" cy="36.421001" gradientTransform="matrix(-.27598 0 0 -.29583 24.199968 21.770373)" gradientUnits="userSpaceOnUse" r="15.645"><stop offset="0"/><stop offset="1" stop-opacity="0"/></radialGradient><linearGradient id="d"><stop offset="0" stop-opacity=".339506"/><stop offset="1" stop-opacity=".246914"/></linearGradient><linearGradient id="e" gradientUnits="userSpaceOnUse" x1="12.5" x2="12.5" y1="4.568911" y2="17.318943"><stop offset="0" stop-color="#fff"/><stop offset="0" stop-color="#fff" stop-opacity=".235294"/><stop offset="1" stop-color="#fff" stop-opacity=".156863"/><stop offset="1" stop-color="#fff" stop-opacity=".392157"/></linearGradient><linearGradient id="f" gradientUnits="userSpaceOnUse" x1="10.084841" x2="10.017044" xlink:href="#d" y1="18.588097" y2="3.537249"/><linearGradient id="g" gradientUnits="userSpaceOnUse" x1="15.067891" x2="15.30518" y1="4.452504" y2="17.977927"><stop offset="0" stop-color="#f4f4f4"/><stop offset="1" stop-color="#dbdbdb"/></linearGradient><linearGradient id="h" gradientUnits="userSpaceOnUse" x1="3" x2="21.5" xlink:href="#d" y1="1.944428" y2="1.944428"/><linearGradient id="i" gradientUnits="userSpaceOnUse" x1="18" x2="22.111143" xlink:href="#d" y1="9.542822" y2="9.542822"/><linearGradient id="j" gradientUnits="userSpaceOnUse" x1="15.009303" x2="15.04547" xlink:href="#d" y1="15.151894" y2="1.812745"/><g transform="matrix(1.33333 0 0 1.33333 -.666625 2.908134)"><path d="m6.1249841.44390061h15.0000379v15.00003739h-15.0000379z" fill="none" stroke="url(#j)" stroke-linecap="round" stroke-linejoin="round" stroke-width=".750002"/><g stroke-width=".750002"><path d="m3.1249766 3.4439081h15.0000374l.000005 15.0000379h-15.0000424z" fill="url(#g)" stroke="url(#f)" stroke-linecap="round" stroke-linejoin="round"/><path d="m3.8749784 4.19391h13.5000336v13.500034h-13.5000336z" fill="none" stroke="url(#e)"/><g fill-rule="evenodd" stroke-linejoin="round" transform="translate(-.338888 -.039022)"><path d="m18.463902 3.4829301 3.000008-3.00000749v15.00003739l-3.000008 3.000008z" fill="#dbdbdb" stroke="url(#i)"/><path d="m18.463902 3.4829301 3.000008-3.00000749h-15.0000379l-3.0000075 3.00000749z" fill="#fafafa" stroke="url(#h)" stroke-width=".750002"/></g></g><g transform="matrix(0 1 -1 0 19.33409 -1.932014)"><path d="m13.023968 10.744372c0-6.1729995 8.634-6.1729995 8.635999 0 0 2.555-1.929999 4.880001-4.314999 4.880001-2.383 0-4.32-2.325001-4.32-4.880001z" fill="url(#c)" fill-rule="evenodd" opacity=".141"/><path d="m17.375952 13.959108-6.750017-5.6250142 6.750017-5.6250141.000016 3.7432928h6l-.000001 3.7567255-6.002999-.0087z" display="block" fill="url(#b)"/><path d="m17.511984 24.772735-6.750017-5.625014 6.750017-5.625014.000016 3.743293h6l-.000001 3.756725-6.002999-.008725z" fill="none" opacity=".5" stroke="#7239b3" stroke-linejoin="round" stroke-width=".75" transform="translate(-.136032 -10.813627)"/></g><path d="m7.0279529 14.693936 3.9720431-4.8750119 3.939773 4.8750119h-2.81477v6.000015h-2.2500062v-6.000015z" style="display:block;opacity:.7;stroke-width:.750002;stroke-miterlimit:7;fill:none;stroke:url(#a)"/></g></svg>