<svg height="32" width="32" xmlns="http://www.w3.org/2000/svg" xmlns:xlink="http://www.w3.org/1999/xlink"><linearGradient id="a" gradientTransform="matrix(-1.33314 0 0 1.3435 33.138 -.034)" gradientUnits="userSpaceOnUse" x1="21.288" x2="21.288" xlink:href="#g" y1="7.387" y2="19.965"/><linearGradient id="b" gradientUnits="userSpaceOnUse" x1="16.723" x2="16.626" xlink:href="#j" y1="5.759" y2="1.648"/><linearGradient id="c" gradientUnits="userSpaceOnUse" x1="15.707" x2="15.565" xlink:href="#i" y1="5.847" y2="1.914"/><linearGradient id="d" gradientTransform="matrix(1 0 0 -1 0 31.01)" gradientUnits="userSpaceOnUse" x1="15.707" x2="15.565" xlink:href="#i" y1="5.847" y2="1.914"/><linearGradient id="e" gradientTransform="matrix(1 0 0 -1 0 31.01)" gradientUnits="userSpaceOnUse" x1="16.723" x2="16.626" xlink:href="#j" y1="5.759" y2="1.648"/><linearGradient id="f" gradientTransform="matrix(1.33314 0 0 1.3435 -.166 -.034)" gradientUnits="userSpaceOnUse" x1="21.288" x2="21.288" xlink:href="#g" y1="7.387" y2="19.965"/><linearGradient id="g"><stop offset="0" stop-color="#fff"/><stop offset=".859" stop-color="#fff" stop-opacity=".235"/><stop offset=".916" stop-color="#fff" stop-opacity=".157"/><stop offset="1" stop-color="#fff" stop-opacity=".392"/></linearGradient><linearGradient id="h" gradientTransform="matrix(.45946 -.46303 .45075 .45425 7.28 18.416)" gradientUnits="userSpaceOnUse" x1="33.836" x2="-21.24" y1="2.924" y2="59.064"><stop offset="0" stop-color="#f0c1ff"/><stop offset=".262" stop-color="#c5a3f2"/><stop offset=".705" stop-color="#7a36b1"/><stop offset="1" stop-color="#4c2d81"/></linearGradient><linearGradient id="i"><stop offset="0" stop-color="#fcaf3e"/><stop offset="1" stop-color="#fcaf3e" stop-opacity="0"/></linearGradient><linearGradient id="j"><stop offset="0" stop-color="#ce5c00"/><stop offset="1" stop-color="#ce5c00" stop-opacity="0"/></linearGradient><g stroke-linejoin="round"><path d="m15.5 25.5.003 3.996 1.993.012v-3.994z" fill="url(#d)" stroke="url(#e)" stroke-miterlimit="0"/><path d="m12.5 27.508h-9.334l8-22.84h1.332z" fill="#d3d7cf" fill-rule="evenodd" stroke="#888a85" stroke-miterlimit="3"/><path d="m15.5 11.508.003-3.995 1.993-.012v3.996z" fill="#fcaf3e" stroke="#ce5c00" stroke-miterlimit="0"/></g><path d="m20.5 27.508h9.333l-8-22.84h-1.332z" fill="url(#h)"/><path d="m28.574 26.636-7.076.036-.023-20.292z" fill="none" opacity=".5" stroke="url(#f)" stroke-linecap="round" stroke-miterlimit="3"/><path d="m20.5 27.508h9.333l-8-22.84h-1.332z" fill="none" opacity=".5" stroke="#6326b9" stroke-linejoin="round" stroke-miterlimit="3"/><path d="m4.4 26.636 7.074.036.024-20.292z" fill="none" opacity=".5" stroke="url(#a)" stroke-linecap="round" stroke-miterlimit="3"/><path d="m15.5 17.508.003-3.995 1.993-.012v3.996zm0 6 .003-3.995 1.993-.012v3.996z" fill="#fcaf3e" stroke="#ce5c00" stroke-linejoin="round" stroke-miterlimit="0"/><path d="m15.5 5.508.003-3.995 1.993-.012v3.996z" fill="url(#c)" stroke="url(#b)" stroke-linejoin="round" stroke-miterlimit="0"/></svg>