<svg height="32" viewBox="0 0 32 32" width="32" xmlns="http://www.w3.org/2000/svg" xmlns:xlink="http://www.w3.org/1999/xlink"><radialGradient id="a" cx="4.992979" cy="43.5" gradientTransform="matrix(2.003784 0 0 1.4 22.854797 -17.399999)" gradientUnits="userSpaceOnUse" r="2.5" xlink:href="#b"/><linearGradient id="b"><stop offset="0" stop-color="#181818"/><stop offset="1" stop-color="#181818" stop-opacity="0"/></linearGradient><radialGradient id="c" cx="4.992979" cy="43.5" gradientTransform="matrix(2.003784 0 0 1.4 -20.01187 -104.4)" gradientUnits="userSpaceOnUse" r="2.5" xlink:href="#b"/><linearGradient id="d" gradientUnits="userSpaceOnUse" x1="25.058096" x2="25.058096" y1="47.027729" y2="39.999443"><stop offset="0" stop-color="#181818" stop-opacity="0"/><stop offset=".5" stop-color="#181818"/><stop offset="1" stop-color="#181818" stop-opacity="0"/></linearGradient><linearGradient id="e" gradientUnits="userSpaceOnUse" x1="12" x2="12" y1="5.943804" y2="10.818816"><stop offset="0" stop-color="#fff"/><stop offset="0" stop-color="#fff" stop-opacity=".235294"/><stop offset="1" stop-color="#fff" stop-opacity=".156863"/><stop offset="1" stop-color="#fff" stop-opacity=".392157"/></linearGradient><linearGradient id="f" gradientTransform="matrix(1 0 0 -1 -.154879 25.500006)" gradientUnits="userSpaceOnUse" x1="11.796815" x2="12.133298" xlink:href="#i" y1="11.652502" y2="-5.360256"/><linearGradient id="g" gradientTransform="matrix(1 0 0 -1 -.154879 25.500006)" gradientUnits="userSpaceOnUse" x1="12.054257" x2="12.154879" y1="9.281381" y2="4.556165"><stop offset="0" stop-color="#fff"/><stop offset=".23442967" stop-color="#fff" stop-opacity=".235294"/><stop offset="1" stop-color="#fff" stop-opacity=".156863"/><stop offset="1" stop-color="#fff" stop-opacity=".392157"/></linearGradient><linearGradient id="h" gradientUnits="userSpaceOnUse" x1="11.796813" x2="11.664545" xlink:href="#i" y1="6.663092" y2="19.556659"/><linearGradient id="i" gradientUnits="userSpaceOnUse" x1="11.796815" x2="11.664547" y1="5.277486" y2="18.171053"><stop offset="0" stop-color="#cd9ef7"/><stop offset="1" stop-color="#a56de2"/></linearGradient><radialGradient id="j" cx="2.25" cy="16" gradientTransform="matrix(.53333333 0 0 .11633788 10.8 19.175389)" gradientUnits="userSpaceOnUse" r="16.875"><stop offset="0"/><stop offset="1" stop-opacity="0"/></radialGradient><g transform="matrix(1.33333 0 0 1.33333 .00004 -1.925052)"><g opacity=".4" transform="matrix(.59210674 0 0 .32142932 -.710559 8.086669)"><path d="m32.866667 40.000001h5v7h-5z" fill="url(#a)"/><path d="m-10-47h5v7h-5z" fill="url(#c)" transform="scale(-1)"/><path d="m10 40h22.866667v7.000001h-22.866667z" fill="url(#d)"/></g><ellipse cx="12" cy="21.036797" display="block" fill="url(#j)" fill-rule="evenodd" opacity=".256" rx="9" ry="1.963204"/><g stroke-width=".750002"><path d="m3.5298542 4.818801h16.9402888l-8.25 8.236296-.09707.01271z" fill="url(#h)" stroke="#7239b3" stroke-linecap="round" stroke-linejoin="round" stroke-opacity=".501961"/><path d="m5.417967 5.5721481 6.738281 6.4872859 6.476562-6.4872859z" fill="none" opacity=".5" stroke="url(#e)" stroke-linecap="square" stroke-width=".750002"/><path d="m3.529854 22.068844h16.940289l-8.25-8.139635-.09707-.01271z" fill="url(#f)" stroke="#7239b3" stroke-linecap="round" stroke-linejoin="round" stroke-opacity=".501961"/><path d="m5.4179668 21.315497 6.7382812-6.390625 6.476562 6.390625z" fill="none" opacity=".5" stroke="url(#g)" stroke-linecap="square"/></g></g></svg>