<svg height="32" viewBox="0 0 8.4666665 8.4666669" width="32" xmlns="http://www.w3.org/2000/svg" xmlns:xlink="http://www.w3.org/1999/xlink"><radialGradient id="a" cx="4.992979" cy="43.5" gradientTransform="matrix(2.003784 0 0 1.4 27.98813 -17.4)" gradientUnits="userSpaceOnUse" r="2.5" xlink:href="#b"/><linearGradient id="b"><stop offset="0" stop-color="#181818"/><stop offset="1" stop-color="#181818" stop-opacity="0"/></linearGradient><radialGradient id="c" cx="4.992979" cy="43.5" gradientTransform="matrix(2.003784 0 0 1.4 -20.01187 -104.4)" gradientUnits="userSpaceOnUse" r="2.5" xlink:href="#b"/><linearGradient id="d" gradientUnits="userSpaceOnUse" x1="25.058096" x2="25.058096" y1="47.027729" y2="39.999443"><stop offset="0" stop-color="#181818" stop-opacity="0"/><stop offset=".5" stop-color="#181818"/><stop offset="1" stop-color="#181818" stop-opacity="0"/></linearGradient><linearGradient id="e" gradientUnits="userSpaceOnUse" x1="8.999992" x2="9.513557" y1="5.499982" y2="18.115067"><stop offset="0" stop-color="#cd9ef7"/><stop offset="1" stop-color="#a56de2"/></linearGradient><linearGradient id="f" gradientUnits="userSpaceOnUse" x1="14.250005" x2="14.250005" y1="4.74998" y2="19.750017"><stop offset="0" stop-color="#fff"/><stop offset="0" stop-color="#fff" stop-opacity=".235294"/><stop offset=".39999998" stop-color="#fff" stop-opacity=".801471"/><stop offset=".41228536" stop-color="#fff" stop-opacity=".898039"/><stop offset=".44999996" stop-color="#fff"/><stop offset=".44999996" stop-color="#fff" stop-opacity=".576471"/><stop offset="1" stop-color="#fff" stop-opacity=".156863"/><stop offset="1" stop-color="#fff" stop-opacity=".392157"/></linearGradient><g transform="matrix(.3527769 0 0 .3527769 .000011 -.35277)"><g opacity=".4" transform="matrix(.55263295 0 0 .32142932 -1.263191 6.892844)"><path d="m38 40h5v7h-5z" fill="url(#a)"/><path d="m-10-47h5v7h-5z" fill="url(#c)" transform="scale(-1)"/><path d="m10 40h28v7.000001h-28z" fill="url(#d)"/></g><path d="m3.3749784 3.6249766h17.2500436v17.2500434l-17.2406266.000503z" fill="url(#e)"/><path d="m3.7499794 3.9999775v16.5000415h16.5000416v-16.5000422zm.7500018.7500019 3.7500094.0000003.000004 4.5000112-3.7500134-.0000003zm6.0000148.0000003h9.000023v4.5000112h-9.000023zm-6.0000148 6.7500163 3.7500094.000001.0000048 8.25002h-3.7500092zm6.0000148.000001h9.000022l.000001 8.25002h-9.000018z" fill="url(#f)" opacity=".5"/><path d="m3.5295942 3.2499759c-.2921828.0003373-.5289596.2371141-.5292969.5292969v16.9414062c.0003372.292183.2371141.52896.5292969.529297h16.9414058c.292183-.000337.52896-.237114.529297-.529297l-.000305-9.970673v-.7500122l.000305-6.220721c-.000337-.2921828-.237114-.5289597-.529297-.5292969zm.2203852.7500019 5.2500131-.0000009v6.0000159l-5.2500131.0000112zm6.000015-.0000009 10.5000266.0000009v6.000016l-10.5000266-.000001zm-6.0000154 6.7500281 5.2500131-.000011.0000004 9.750025h-5.2500131zm6.000015-.000011 10.500027.000001v9.750024h-10.5000266z" fill="#7239b3" fill-opacity=".501961"/></g></svg>