<svg height="32" viewBox="0 0 8.4666665 8.4666669" width="32" xmlns="http://www.w3.org/2000/svg" xmlns:xlink="http://www.w3.org/1999/xlink"><radialGradient id="a" cx="2.25" cy="16" gradientTransform="matrix(.479894 0 0 .11633788 11.001789 26.005897)" gradientUnits="userSpaceOnUse" r="16.875"><stop offset="0"/><stop offset="1" stop-opacity="0"/></radialGradient><linearGradient id="b"><stop offset="0" stop-color="#64baff"/><stop offset="1" stop-color="#3689e6"/></linearGradient><linearGradient id="c" gradientUnits="userSpaceOnUse" x1="19" x2="19" xlink:href="#b" y1="24" y2="28"/><linearGradient id="d" gradientUnits="userSpaceOnUse" x1="12.375001" x2="12.375001" y1="25.698753" y2="26.448755"><stop offset="0" stop-color="#fff"/><stop offset="0" stop-color="#fff" stop-opacity=".235294"/><stop offset="1" stop-color="#fff" stop-opacity=".156863"/><stop offset="1" stop-color="#fff" stop-opacity=".392157"/></linearGradient><linearGradient id="e" gradientTransform="matrix(.28571361 0 0 .30419701 29.661378 2.732579)" gradientUnits="userSpaceOnUse" x1="-22.722923" x2="-18.476206" xlink:href="#b" y1="7.228482" y2="43.744774"/><linearGradient id="f" gradientUnits="userSpaceOnUse" x1="12.018543" x2="12.045645" y1="7.5" y2="8.932032"><stop offset="0" stop-color="#fff"/><stop offset=".38166982" stop-color="#fff" stop-opacity=".235294"/><stop offset="1" stop-color="#fff" stop-opacity=".156863"/><stop offset="1" stop-color="#fff" stop-opacity=".392157"/></linearGradient><g transform="matrix(.3527769 0 0 .3527769 .000011 -2.98051)"><ellipse cx="12.08155" cy="27.867306" display="block" fill="url(#a)" fill-rule="evenodd" opacity=".245" rx="8.098211" ry="1.963204"/><g stroke-width=".750002"><path d="m7.500011 24.573751-.0000225 3.000008h8.9999995l.000023-3.000008z" fill="url(#c)" stroke="#002e99" stroke-linejoin="round" stroke-opacity=".501961"/><g stroke-linecap="square"><path d="m8.2499904 25.323753v1.500004h7.5000186v-1.500004z" fill="none" opacity=".5" stroke="url(#d)"/><g transform="translate(-.004883 7.377523)"><path d="m12 5.7606752c-5.031142.0054937-9.2470542 3.8068089-9.7714843 8.8105468h4.8691406c.4849935-2.321099 2.5311162-3.984083 4.9023437-3.984375 2.369761.0021 4.413745 1.66471 4.898438 3.984375h4.882812c-.524822-5.0074499-4.746372-8.8100483-9.78125-8.8105468z" fill="url(#e)" stroke="#002e99" stroke-opacity=".501961"/><path d="m12 6.4980469c-2.2240315.0029347-4.4320165.8503318-6.0839844 2.3398437-1.3571911 1.2237234-2.3675869 2.8928314-2.7988281 4.6699214a.25870317.25870317 0 0 0 .2519531.31836l3.0078125.0059a.25870317.25870317 0 0 0 .2421875-.16801c.9503149-2.570069 3.1477726-3.8445039 5.3535154-3.851562 2.205743-.00706 4.407171 1.251554 5.369141 3.845703a.25870317.25870317 0 0 0 .242187.167969h3a.25870317.25870317 0 0 0 .251954-.31836c-.43035-1.773463-1.384501-3.445407-2.746094-4.6718745-1.653723-1.4896049-3.862269-2.3371635-6.087891-2.3378906z" fill="none" opacity=".5" stroke="url(#f)"/></g></g></g></g></svg>