<svg height="32" viewBox="0 0 32 32" width="32" xmlns="http://www.w3.org/2000/svg" xmlns:xlink="http://www.w3.org/1999/xlink"><linearGradient id="a" gradientTransform="matrix(.24324324 0 0 .35135133 2.162164 -.432428)" gradientUnits="userSpaceOnUse" x1="32.615974" x2="34.237648" y1="33.571121" y2="56.249374"><stop offset="0" stop-color="#fff"/><stop offset=".06666665" stop-color="#fff" stop-opacity=".235294"/><stop offset="1" stop-color="#fff" stop-opacity=".156863"/><stop offset="1" stop-color="#fff" stop-opacity=".392157"/></linearGradient><linearGradient id="b" gradientTransform="matrix(.25378586 0 0 .30501865 19.128979 -.685477)" gradientUnits="userSpaceOnUse" x1="11.350412" x2="10.933683" y1="63.60656" y2="12.015614"><stop offset="0" stop-opacity=".339506"/><stop offset="1" stop-opacity=".246914"/></linearGradient><radialGradient id="c" cx="2.25" cy="16" gradientTransform="matrix(.53333333 0 0 .11633788 10.8 25.813237)" gradientUnits="userSpaceOnUse" r="16.875"><stop offset="0"/><stop offset="1" stop-opacity="0"/></radialGradient><linearGradient id="d" gradientTransform="matrix(.38494639 0 0 .38533611 2.970474 2.123405)" gradientUnits="userSpaceOnUse" x1="30.883396" x2="25.604357" y1="5.330893" y2="45.271339"><stop offset="0" stop-color="#eeeeec"/><stop offset="1" stop-color="#e0e0de"/></linearGradient><g transform="matrix(1.33333 0 0 1.33333 .00004 -10.091896)"><ellipse cx="12" cy="27.674644" display="block" fill="url(#c)" fill-rule="evenodd" opacity=".711111" rx="9" ry="1.963204"/><g stroke-linecap="round" stroke-width=".750002" transform="translate(0 8)"><path d="m3.3749784 10.068967c12.8821066-.617064 15.0544636-3.8901011 17.2500436-6.7500167v14.3377957c-5.524908 3.168225-11.4545122 4.10237-17.2500436.234387z" fill="url(#d)" stroke="url(#b)" stroke-linejoin="round"/><path d="m19.875 5.3847656c-.856958.9806136-1.875332 1.9658899-3.523438 2.8164063-2.452436 1.2655972-6.240226 2.1789441-12.226562 2.5332031v6.689453c5.3113473 3.370271 10.597074 2.607889 15.75-.24414z" fill="none" stroke="url(#a)" stroke-linecap="square"/></g></g></svg>