<svg height="32" viewBox="0 0 8.4666665 8.4666669" width="32" xmlns="http://www.w3.org/2000/svg" xmlns:xlink="http://www.w3.org/1999/xlink"><radialGradient id="a" cx="2.25" cy="16" gradientTransform="matrix(.53333333 0 0 .11633788 10.8 25.813237)" gradientUnits="userSpaceOnUse" r="16.875"><stop offset="0"/><stop offset="1" stop-opacity="0"/></radialGradient><linearGradient id="b" gradientTransform="matrix(.38494639 0 0 .38533611 2.970474 2.123405)" gradientUnits="userSpaceOnUse" x1="30.883396" x2="25.604357" y1="5.330893" y2="45.271339"><stop offset="0" stop-color="#64baff"/><stop offset="1" stop-color="#3689e6"/></linearGradient><linearGradient id="c" gradientTransform="matrix(.24324324 0 0 .35135133 2.162164 -.432428)" gradientUnits="userSpaceOnUse" x1="32.615974" x2="34.237648" y1="33.571121" y2="56.249374"><stop offset="0" stop-color="#fff"/><stop offset=".06666665" stop-color="#fff" stop-opacity=".235294"/><stop offset="1" stop-color="#fff" stop-opacity=".156863"/><stop offset="1" stop-color="#fff" stop-opacity=".392157"/></linearGradient><g transform="matrix(.3527769 0 0 .3527769 .000011 -2.67015)"><ellipse cx="12" cy="27.674644" display="block" fill="url(#a)" fill-rule="evenodd" opacity=".711111" rx="9" ry="1.963204"/><g stroke-linecap="round" stroke-width=".750002" transform="matrix(-1 0 0 1 24 8)"><path d="m3.3749784 10.068967c12.8821066-.617064 15.0544636-3.8901011 17.2500436-6.7500167v14.3377957c-5.524908 3.168225-11.4545122 4.10237-17.2500436.234387z" fill="url(#b)" stroke="#002e99" stroke-linejoin="round" stroke-opacity=".501961"/><path d="m19.875 5.3847656c-.856958.9806136-1.875332 1.9658899-3.523438 2.8164063-2.452436 1.2655972-6.240226 2.1789441-12.226562 2.5332031v6.689453c5.3113473 3.370271 10.597074 2.607889 15.75-.24414z" fill="none" opacity=".5" stroke="url(#c)" stroke-linecap="square"/></g></g></svg>