<svg height="32" viewBox="0 0 8.4666665 8.4666669" width="32" xmlns="http://www.w3.org/2000/svg" xmlns:xlink="http://www.w3.org/1999/xlink"><radialGradient id="a" cx="2.25" cy="16" gradientTransform="matrix(.31939736 0 0 .11633788 11.281356 25.813237)" gradientUnits="userSpaceOnUse" r="16.875"><stop offset="0"/><stop offset="1" stop-opacity="0"/></radialGradient><linearGradient id="b" gradientTransform="matrix(.38494639 0 0 .38533611 2.970474 10.123405)" gradientUnits="userSpaceOnUse" x1="22.482418" x2="23.852848" y1="3.102494" y2="47.868717"><stop offset="0" stop-color="#64baff"/><stop offset="1" stop-color="#3689e6"/></linearGradient><linearGradient id="c" gradientTransform="matrix(.24324324 0 0 .35135133 2.162164 7.567572)" gradientUnits="userSpaceOnUse" x1="31.422152" x2="34.084743" y1="21.401894" y2="50.124996"><stop offset="0" stop-color="#fff"/><stop offset=".26735342" stop-color="#fff" stop-opacity=".235294"/><stop offset="1" stop-color="#fff" stop-opacity=".156863"/><stop offset="1" stop-color="#fff" stop-opacity=".392157"/></linearGradient><g transform="matrix(.3527769 0 0 .3527769 .00001 -2.67013)"><ellipse cx="12" cy="27.674644" display="block" fill="url(#a)" fill-rule="evenodd" opacity=".464" rx="5.389831" ry="1.963204"/><g stroke-width=".750002"><path d="m3.3749789 17.519888 8.2500211-6.20098 9.000022 6.211092v4.94l-8.47248 6.098951-8.7775631-6.109063z" fill="url(#b)" stroke="#002e99" stroke-linecap="round" stroke-linejoin="round" stroke-opacity=".501961"/><path d="m11.642578 12.367188a.41734222.41734222 0 0 0 -.246094.08398l-7.1132809 5.289062a.41734222.41734222 0 0 0 -.1699219.333985v3.648437a.41734222.41734222 0 0 0 .1738282.337891l7.5703126 5.441406a.41734222.41734222 0 0 0 .492187-.001949l7.367188-5.441406a.41734222.41734222 0 0 0 .169922-.335938v-3.648437a.41734222.41734222 0 0 0 -.183594-.345703l-7.824219-5.289063a.41734222.41734222 0 0 0 -.236328-.07226z" fill="none" opacity=".5" stroke="url(#c)" stroke-linecap="square"/></g></g></svg>