<svg xmlns="http://www.w3.org/2000/svg" xmlns:xlink="http://www.w3.org/1999/xlink" height="32" viewBox="0 0 8.4666665 8.4666669" width="32"><defs><linearGradient gradientTransform="scale(.26458)" id="c" gradientUnits="userSpaceOnUse" x1="19.345" x2="1.674" y1="7.661" y2="15.316"><stop offset="0" stop-color="#fff"/><stop offset="1" stop-color="#fff" stop-opacity="0"/></linearGradient><radialGradient id="d" cx="6.703" cy="73.616" gradientTransform="matrix(.58564 0 0 .1281 .372 -1.763)" gradientUnits="userSpaceOnUse" r="7.228"><stop offset="0"/><stop offset="1" stop-opacity="0"/></radialGradient><linearGradient gradientTransform="scale(.26458)" id="e" gradientUnits="userSpaceOnUse" x1=".997" x2="19.759" xlink:href="#a" y1="17.455" y2="3.457"/><linearGradient id="a"><stop offset="0" stop-color="#fff3cb"/><stop offset=".262" stop-color="#fdde76"/><stop offset=".661" stop-color="#f9c440"/><stop offset="1" stop-color="#e48b20"/></linearGradient><radialGradient id="f" cx="32.5" cy="16.563" gradientTransform="matrix(.136 .32887 -.25782 .113 11.15 .462)" gradientUnits="userSpaceOnUse" r="14.438" xlink:href="#a"/><filter id="g" height="1.324" width="1.387" x="-.193" y="-.162" color-interpolation-filters="sRGB"><feGaussianBlur stdDeviation=".678"/></filter></defs><radialGradient id="b" cx="4.333" cy="288.644" gradientTransform="matrix(-2.36637 .0798 -.0789 -2.33915 37.355 676.03)" gradientUnits="userSpaceOnUse" r="2.799"><stop offset="0" stop-color="#737373"/><stop offset=".262" stop-color="#636363"/><stop offset=".705" stop-color="#4b4b4b"/><stop offset="1" stop-color="#3f3f3f"/></radialGradient><path d="M5.384 6.005H3.046l-.403 1.01H1.566l2.206-5.292h1L6.9 7.013H5.775zm-2.06-.8H5.08L4.296 2.81z" fill="url(#b)" stroke="#000" stroke-width=".265" stroke-linecap="round" stroke-linejoin="round" stroke-opacity=".537"/><path d="M3.772 1.722L1.566 7.014h.11l2.096-5.027h1l2.022 5.027H6.9L4.773 1.722zm-.34 3.482l-.11.264H5.08l-.087-.264z" opacity=".1" fill="#fff"/><path d="M-.043 3.607c4.59.29 1.698-2.36 5.246-2.444l.89 1.873C4.476 2.282 3.368 6.16-.063 3.88z" opacity=".444" fill="url(#c)" fill-rule="evenodd"/><path d="M8.53 7.668c0 .51-1.895.926-4.232.926-2.338 0-4.234-.415-4.234-.926 0-.512 1.896-.926 4.234-.926 2.337 0 4.233.414 4.233.926z" opacity=".2" fill="url(#d)"/><path d="M3.55.838l-.035.874-.563.295-.176-.1-.006-.52-.37.34-.497-.155.21.456-.302.425.5-.058.31.42.1-.494.26-.086.55.204.154.896.543-.686.9.132-.486-.73.404-.813-.842.235zm-1.947 1.54l-.287.265L.93 2.52l.163.356-.234.33.385-.045.24.326.077-.382.384-.13-.34-.19zm1.31.315l-.418.384L1.93 2.9l.24.517-.34.48.562-.065.352.473.11-.557.56-.188-.495-.278zm-2.195.56l-.105.394-.408.11.342.222-.02.42.315-.257.396.152-.147-.38.268-.33-.408.022z" fill="url(#e)"/><path d="M13.263 17.77c-2.056.9-4.6-.495-5.686-3.117-1.084-2.622-.297-5.478 1.76-6.38 2.055-.9 4.6.495 5.685 3.118 1.084 2.625.297 5.48-1.76 6.38z" transform="translate(.032 -2.375) scale(.35278)" opacity=".483" fill="url(#f)" filter="url(#g)"/></svg>