<?xml version="1.0" encoding="UTF-8" standalone="no"?>
<svg
   xmlns:dc="http://purl.org/dc/elements/1.1/"
   xmlns:cc="http://creativecommons.org/ns#"
   xmlns:rdf="http://www.w3.org/1999/02/22-rdf-syntax-ns#"
   xmlns:svg="http://www.w3.org/2000/svg"
   xmlns="http://www.w3.org/2000/svg"
   xmlns:xlink="http://www.w3.org/1999/xlink"
   xmlns:sodipodi="http://sodipodi.sourceforge.net/DTD/sodipodi-0.dtd"
   xmlns:inkscape="http://www.inkscape.org/namespaces/inkscape"
   id="svg2437"
   height="32"
   width="32"
   version="1.1"
   sodipodi:docname="formatpaintbrush.svg"
   inkscape:version="0.92.3 (unknown)"
   inkscape:export-filename="/home/rizmut/Dokumen/Rizmut/Github/libreoffice-style-elementary/images_elementary/cmd/32/formatpaintbrush.png"
   inkscape:export-xdpi="96"
   inkscape:export-ydpi="96">
  <sodipodi:namedview
     pagecolor="#ffffff"
     bordercolor="#666666"
     borderopacity="1"
     objecttolerance="10"
     gridtolerance="10"
     guidetolerance="10"
     inkscape:pageopacity="0"
     inkscape:pageshadow="2"
     inkscape:window-width="1366"
     inkscape:window-height="706"
     id="namedview53"
     showgrid="false"
     inkscape:zoom="7.375"
     inkscape:cx="12.254175"
     inkscape:cy="10.740627"
     inkscape:window-x="0"
     inkscape:window-y="0"
     inkscape:window-maximized="1"
     inkscape:current-layer="svg2437" />
  <defs
     id="defs2439">
    <linearGradient
       id="linearGradient6019">
      <stop
         offset="0"
         style="stop-color:#000000;stop-opacity:1"
         id="stop6021" />
      <stop
         offset="1"
         style="stop-color:#000000;stop-opacity:0"
         id="stop6023" />
    </linearGradient>
    <radialGradient
       gradientTransform="matrix(0.66666667,0,0,0.20000004,-9.7401124,14.211297)"
       gradientUnits="userSpaceOnUse"
       xlink:href="#linearGradient6019"
       id="radialGradient6025"
       fy="69"
       fx="28.603323"
       r="20"
       cy="69"
       cx="38" />
    <linearGradient
       id="linearGradient5996">
      <stop
         offset="0"
         style="stop-color:#8f5902;stop-opacity:1"
         id="stop5998" />
      <stop
         offset="1"
         style="stop-color:#73521e;stop-opacity:1"
         id="stop6000" />
    </linearGradient>
    <linearGradient
       gradientTransform="matrix(0.66666667,0,0,0.66666667,-1.3333333,0)"
       gradientUnits="userSpaceOnUse"
       xlink:href="#linearGradient5996"
       id="linearGradient6002"
       y2="24.101694"
       x2="36.542374"
       y1="9.2407961"
       x1="30.324829" />
    <linearGradient
       id="linearGradient5958">
      <stop
         offset="0"
         style="stop-color:#c17d11;stop-opacity:1"
         id="stop5960" />
      <stop
         offset="1"
         style="stop-color:#e9b96e;stop-opacity:1"
         id="stop5962" />
    </linearGradient>
    <linearGradient
       gradientTransform="matrix(0.66666667,0,0,0.66666667,-1.3333333,-0.40677966)"
       gradientUnits="userSpaceOnUse"
       xlink:href="#linearGradient5958"
       id="linearGradient5964"
       y2="8"
       x2="26"
       y1="27.472578"
       x1="30.279045" />
    <linearGradient
       id="linearGradient5984">
      <stop
         offset="0"
         style="stop-color:#ffffff;stop-opacity:1"
         id="stop5986" />
      <stop
         offset="1"
         style="stop-color:#ffffff;stop-opacity:0.13438736"
         id="stop5988" />
    </linearGradient>
    <linearGradient
       gradientTransform="matrix(0.66666667,0,0,0.66666667,-1.3333333,-0.40677966)"
       gradientUnits="userSpaceOnUse"
       xlink:href="#linearGradient5984"
       id="linearGradient5994"
       y2="22.089296"
       x2="29.147892"
       y1="8"
       x1="28" />
    <linearGradient
       id="linearGradient5966">
      <stop
         offset="0"
         style="stop-color:#fdef72;stop-opacity:1"
         id="stop5968" />
      <stop
         offset="1"
         style="stop-color:#e2cb0b;stop-opacity:1"
         id="stop5970" />
    </linearGradient>
    <linearGradient
       gradientTransform="matrix(0.66666667,0,0,0.66666667,-1.3333333,-0.40677966)"
       gradientUnits="userSpaceOnUse"
       xlink:href="#linearGradient5966"
       id="linearGradient5972"
       y2="30.742676"
       x2="30.208115"
       y1="25.060659"
       x1="20.933708" />
    <linearGradient
       id="linearGradient5981">
      <stop
         offset="0"
         style="stop-color:#ffffff;stop-opacity:1"
         id="stop5983" />
      <stop
         offset="1"
         style="stop-color:#ffffff;stop-opacity:0.69411767"
         id="stop5985" />
    </linearGradient>
    <linearGradient
       gradientTransform="matrix(0.66666667,0,0,0.66666667,-1.3333333,-0.40677966)"
       gradientUnits="userSpaceOnUse"
       xlink:href="#linearGradient5981"
       id="linearGradient5973"
       y2="37.029255"
       x2="18.985712"
       y1="41.955986"
       x1="22.319767" />
    <linearGradient
       id="linearGradient5999">
      <stop
         offset="0"
         style="stop-color:#c4a000;stop-opacity:1"
         id="stop6001" />
      <stop
         offset="1"
         style="stop-color:#c4a000;stop-opacity:0"
         id="stop6003" />
    </linearGradient>
    <linearGradient
       gradientTransform="matrix(0.66666667,0,0,0.66666667,-1.3333333,-0.40677966)"
       gradientUnits="userSpaceOnUse"
       xlink:href="#linearGradient5999"
       id="linearGradient6005"
       y2="34.728424"
       x2="23.489431"
       y1="36.218422"
       x1="27.354809" />
    <linearGradient
       id="linearGradient5974-892">
      <stop
         offset="0"
         style="stop-color:#919191;stop-opacity:1"
         id="stop2473" />
      <stop
         offset="1"
         style="stop-color:#cecece;stop-opacity:1"
         id="stop2475" />
    </linearGradient>
    <linearGradient
       gradientTransform="matrix(0.65121287,0,0,0.66666667,-0.9164422,0)"
       gradientUnits="userSpaceOnUse"
       xlink:href="#linearGradient5974-892"
       id="linearGradient5980-761"
       y2="20.618719"
       x2="21.59099"
       y1="23.145937"
       x1="27.651777" />
    <linearGradient
       inkscape:collect="always"
       xlink:href="#linearGradient5996"
       id="linearGradient873"
       x1="7.5870748"
       y1="11.345062"
       x2="25.538982"
       y2="11.345062"
       gradientUnits="userSpaceOnUse" />
  </defs>
  <metadata
     id="metadata2442">
    <rdf:RDF>
      <cc:Work
         rdf:about="">
        <dc:format>image/svg+xml</dc:format>
        <dc:type
           rdf:resource="http://purl.org/dc/dcmitype/StillImage" />
        <dc:title />
      </cc:Work>
    </rdf:RDF>
  </metadata>
  <path
     d="m 28.926554,28.011299 c 0,5.333332 -26.6666664,5.333332 -26.6666664,0 -3e-7,-5.333332 26.6666664,-5.333332 26.6666664,0 z"
     id="path6017"
     style="opacity:0.25;fill:url(#radialGradient6025);fill-opacity:1;stroke:none;stroke-width:0.81649667"
     inkscape:connector-curvature="0"
     sodipodi:nodetypes="sss" />
  <path
     d="m 10.079337,11.935519 -9.17476249,11.74052 1.61917309,1.444917 1.6132339,-1.937148 -0.7316016,2.407795 1.7268064,0.584616 1.5038597,-1.37294 -0.6371739,1.458935 3.3346276,2.663675 1.4330393,-1.197701 -0.9077823,1.384806 5.3330013,1.827016 1.335927,-1.693058 -0.342113,1.734725 3.15449,0.798167 3.684361,-12.839834 z"
     id="path5367"
     style="fill:url(#linearGradient5972);fill-opacity:1;fill-rule:evenodd;stroke:none;stroke-width:0.99999994;stroke-linecap:butt;stroke-linejoin:miter;stroke-miterlimit:20;stroke-dasharray:none;stroke-opacity:1"
     inkscape:connector-curvature="0"
     sodipodi:nodetypes="ccccccccccccccccc" />
  <path
     sodipodi:nodetypes="ccccccccccccccccc"
     inkscape:connector-curvature="0"
     style="opacity:0.5;fill:none;fill-opacity:1;fill-rule:evenodd;stroke:#ad5f00;stroke-width:0.99999994;stroke-linecap:butt;stroke-linejoin:miter;stroke-miterlimit:20;stroke-dasharray:none;stroke-opacity:1"
     id="path860"
     d="m 10.079337,11.935519 -9.17476249,11.74052 1.61917309,1.444917 1.6132339,-1.937148 -0.7316016,2.407795 1.7268064,0.584616 1.5038597,-1.37294 -0.6371739,1.458935 3.3346276,2.663675 1.4330393,-1.197701 -0.9077823,1.384806 5.3330013,1.827016 1.335927,-1.693058 -0.342113,1.734725 3.15449,0.798167 3.684361,-12.839834 z" />
  <path
     d="M 6.2372881,26.785311 C 9.4482848,23.444714 6.7393939,25.273651 10.50679,22.391117 8.5184949,25.610071 10.738604,23.179971 8.3050847,27.305084 7.1179644,26.600413 6.9039548,27.229755 6.2372881,26.785311 Z"
     id="path5975"
     style="opacity:0.26666667;fill:#c4a000;fill-rule:evenodd;stroke:none;stroke-width:1"
     inkscape:connector-curvature="0"
     sodipodi:nodetypes="cccc" />
  <path
     d="m 10.766539,27.728188 0.835955,-0.711486 c 1.109675,-1.989151 0.07594,-1.335967 1.188807,-2.920834 -1.067969,3.612025 0.631444,-0.411485 -1.128929,3.923987 z"
     id="path5979"
     style="opacity:0.41568627;fill:#c4a000;fill-rule:evenodd;stroke:none;stroke-width:1"
     inkscape:connector-curvature="0"
     sodipodi:nodetypes="ccccc" />
  <path
     d="m 12.854653,12.336718 -1.322034,0.305084 C 10.0095,13.265932 -0.42296272,24.471998 1.3952439,24.472313 l 1.1822775,2.05e-4 c 1.3522506,2.34e-4 1.4193523,-1.261477 2.0138677,-1.505301 1.381583,-0.566616 0.4396596,1.000868 -0.7114329,2.217607 l 0.967588,0.547889 c 0.319382,-0.265216 3.7468065,-2.618812 3.5177075,-2.272607 l -1.9997333,2.834582 c 0.682761,0.517878 2.0122669,1.570727 2.7926737,1.908701 l 1.9634649,-2.678433 c 0.253205,-0.343888 0.856172,-0.0063 0.690843,0.387415 l -1.215452,2.934461 c 0.536208,0.274245 2.987981,1.430891 4.46451,1.533866 l 1.354355,-1.679018 c 0.206367,-0.341006 1.138289,-2.867704 1.070561,-2.474913 l -0.688326,4.272648 2.232133,0.587514 c 1.438463,-3.021095 2.46043,-8.215369 2.776655,-11.540319 0.115055,-1.683897 -0.34919,-3.154165 -0.64625,-3.74828 -0.0021,-0.0045 -0.004,-0.0091 -0.0059,-0.01367 -0.02502,-0.05545 -0.04803,-0.119652 -0.06445,-0.191407 -3.52e-4,-0.0015 -0.0016,-0.0024 -0.002,-0.0039 4.711909,3.617187 -7.703728,-2.682928 -10.19544,-3.789427 z"
     id="path6014"
     style="opacity:0.47843137;fill:none;stroke:url(#linearGradient5973);stroke-width:0.99999994px;stroke-linecap:butt;stroke-linejoin:miter;stroke-opacity:1"
     inkscape:connector-curvature="0"
     sodipodi:nodetypes="ccssscccccccccccccccccccc" />
  <path
     d="m 12.645833,28.259887 c 1.451711,-3.834581 4.842624,-4.390509 5.923289,-8.301488 0.03436,2.441382 -0.4122,4.480364 -1.839955,8.822321 -0.213178,0.0012 -0.115952,-0.07387 -0.313254,-0.07904 l 0.872845,0.183655 -2.526641,-0.297077 c -1.460538,-0.104216 -0.863074,0.02173 -2.116284,-0.328376 z"
     id="path5977"
     style="opacity:0.24705882;fill:url(#linearGradient6005);fill-opacity:1;fill-rule:evenodd;stroke:none;stroke-width:1"
     inkscape:connector-curvature="0"
     sodipodi:nodetypes="cccccccc" />
  <path
     d="m 14.241742,12.988971 c -0.834664,0.41092 -1.374806,1.018186 -1.988738,1.576259 0.817658,-0.472429 1.585991,-0.965996 2.666382,-1.325825 z"
     id="path5995"
     style="opacity:0.48235294;fill:#c4a000;fill-rule:evenodd;stroke:none;stroke-width:1"
     inkscape:connector-curvature="0"
     sodipodi:nodetypes="cccc" />
  <path
     d="m 15.578829,13.289373 -0.677643,1.325825 1.987142,-1.058833 z"
     id="path5997"
     style="opacity:0.48235294;fill:#c4a000;fill-rule:evenodd;stroke:none;stroke-width:1"
     inkscape:connector-curvature="0"
     sodipodi:nodetypes="cccc" />
  <path
     d="M 7.2298184,14.955231 8.6811474,13.336165 22.663,19.907891 21.902588,21.589896 Z"
     id="path6013"
     style="opacity:0.2;fill:#000000;fill-opacity:1;fill-rule:evenodd;stroke:none;stroke-width:1"
     inkscape:connector-curvature="0"
     sodipodi:nodetypes="ccccc" />
  <path
     d="m 21.697637,0.5364122 c -3.553804,3.0310443 -4.127779,6.8420101 -5.482779,10.0228998 -2.006734,0.09373 -3.398014,-0.172613 -5.521249,0.527681 l -2.438452,2.793782 c 0.1669986,-0.277448 9.418915,4.548266 12.83783,5.879049 0.65751,0.25593 1.386924,0.808127 1.443258,0.730243 0.107593,-0.148751 1.272514,-2.328972 0.792288,-4.246044 -0.444682,-1.775179 -3.786134,-3.966338 -3.13399,-5.38014 C 22.280284,6.3421422 24.65848,5.3876953 25.027896,2.141243 24.468947,0.74986514 21.834768,0.41945338 21.697637,0.5364122 Z M 22.375,2.6140536 c 0.129042,-0.012493 0.245324,0.00381 0.354167,0.0625 0.43537,0.2347484 0.482436,0.9965848 0.104166,1.6875001 C 22.455063,5.0549689 21.789536,5.4321353 21.354167,5.197387 20.918798,4.9626385 20.87173,4.2008023 21.25,3.509887 21.533703,2.9917005 21.987875,2.6515309 22.375,2.6140536 Z"
     id="path5371"
     style="fill:url(#linearGradient5964);fill-opacity:1;fill-rule:evenodd;stroke:none;stroke-width:1px;stroke-linecap:butt;stroke-linejoin:miter;stroke-opacity:1"
     inkscape:connector-curvature="0"
     sodipodi:nodetypes="scccsssscsccsssc" />
  <path
     d="M 21.688105,1.465647 C 19.57691,2.591226 19.263571,5.125685 18.50043,7.2187831 17.981515,8.633901 17.833244,8.0620898 17.447854,9.3606855 c -0.222828,0.7508315 -0.446308,1.3276455 -0.689453,1.8906255 -2.856615,0.05691 -4.92423,0.108633 -5.865505,0.548615 l -1.7986855,2.106759 13.2637045,5.797816 0.541701,-1.659715 -0.833982,-2.700234 -3.017119,-3.377955 C 20.198321,10.249985 20.745803,9.4219362 22.322266,6.8705641 23.192761,5.4617425 24.063261,4.0481397 24.189784,3.2383143 24.254174,2.826166 24.333078,2.1939182 24.288264,2.116062 24.234104,2.021846 22.639009,1.17535 22.281742,1.0838188 22.181684,1.0361508 21.798778,1.4715064 21.688101,1.465647 Z"
     id="path5992"
     style="opacity:0.26666667;fill:none;stroke:url(#linearGradient5994);stroke-width:1px;stroke-linecap:butt;stroke-linejoin:miter;stroke-opacity:1"
     inkscape:connector-curvature="0"
     sodipodi:nodetypes="ccscccccccsccccc" />
  <path
     sodipodi:nodetypes="scccsssscsccsssc"
     inkscape:connector-curvature="0"
     style="opacity:0.5;fill:none;fill-opacity:1;fill-rule:evenodd;stroke:url(#linearGradient873);stroke-width:1px;stroke-linecap:butt;stroke-linejoin:miter;stroke-opacity:1"
     id="path864"
     d="m 21.697637,0.5364122 c -3.553804,3.0310443 -4.127779,6.8420101 -5.482779,10.0228998 -2.006734,0.09373 -3.398014,-0.172613 -5.521249,0.527681 l -2.438452,2.793782 c 0.1669986,-0.277448 9.418915,4.548266 12.83783,5.879049 0.65751,0.25593 1.386924,0.808127 1.443258,0.730243 0.107593,-0.148751 1.272514,-2.328972 0.792288,-4.246044 -0.444682,-1.775179 -3.786134,-3.966338 -3.13399,-5.38014 C 22.280284,6.3421422 24.65848,5.3876953 25.027896,2.141243 24.468947,0.74986514 21.834768,0.41945338 21.697637,0.5364122 Z M 22.375,2.6140536 c 0.129042,-0.012493 0.245324,0.00381 0.354167,0.0625 0.43537,0.2347484 0.482436,0.9965848 0.104166,1.6875001 C 22.455063,5.0549689 21.789536,5.4321353 21.354167,5.197387 20.918798,4.9626385 20.87173,4.2008023 21.25,3.509887 21.533703,2.9917005 21.987875,2.6515309 22.375,2.6140536 Z" />
</svg>
