<svg height="32" width="32" xmlns="http://www.w3.org/2000/svg" xmlns:xlink="http://www.w3.org/1999/xlink"><linearGradient id="a"><stop offset="0" stop-color="#fff"/><stop offset=".37630579" stop-color="#fff" stop-opacity=".235294"/><stop offset=".68115288" stop-color="#fff" stop-opacity=".156863"/><stop offset="1" stop-color="#fff" stop-opacity=".392157"/></linearGradient><linearGradient id="b"><stop offset="0" stop-color="#185f9a"/><stop offset="1" stop-color="#599ec9"/></linearGradient><linearGradient id="c" gradientUnits="userSpaceOnUse" x1="-14.781551" x2="-14.781551" xlink:href="#a" y1="33.644644" y2="53.502578"/><linearGradient id="d" gradientUnits="userSpaceOnUse" x1="11.330105" x2="11.330105" y1="15.147189" y2="56.474517"><stop offset="0" stop-color="#90dbec"/><stop offset=".49688375" stop-color="#55c1ec"/><stop offset=".72044992" stop-color="#3689e6"/><stop offset="1" stop-color="#2b63a0"/></linearGradient><linearGradient id="e" gradientUnits="userSpaceOnUse" x1="2.493554" x2="2.493554" xlink:href="#b" y1="55.608677" y2="20.674956"/><linearGradient id="f" gradientUnits="userSpaceOnUse" x1="18.804871" x2="18.804871" y1="49.108626" y2="27.874851"><stop offset="0" stop-color="#90dbec"/><stop offset=".33124015" stop-color="#55c1ec"/><stop offset=".72044992" stop-color="#3689e6"/><stop offset="1" stop-color="#2b63a0"/></linearGradient><linearGradient id="g" gradientUnits="userSpaceOnUse" x1="-3.850666" x2="-3.850666" xlink:href="#b" y1="28.953494" y2="49.264458"/><linearGradient id="h" gradientUnits="userSpaceOnUse" x1="-6.656806" x2="-6.656806" xlink:href="#a" y1="48.927376" y2="34.45313"/><g transform="translate(0 -16)"><path d="m13.3 39-4.0351855 3.970537 3.5294615 3.529463h-11.294276v-11.294277l3.5294612 3.529461 3.9705388-4.035184z" fill="url(#d)" stroke="url(#e)"/><path d="m11.9 39-4.0593763 3.959376 2.5193763 2.540624h-7.86v-7.86l2.5406237 2.530312 3.9593763-4.070312z" fill="none" stroke="url(#c)"/><g transform="matrix(-1 0 0 -1 32 64)"><path d="m13.3 39-4.0351855 3.970537 3.5294615 3.529463h-11.294276v-11.294277l3.5294612 3.529461 3.9705388-4.035184z" fill="url(#f)" stroke="url(#g)"/><path d="m11.9 39-4.0593763 3.959376 2.5193763 2.540624h-7.86v-7.86l2.5406237 2.530312 3.9593763-4.070312z" fill="none" stroke="url(#h)"/></g></g></svg>