<svg height="32" width="32" xmlns="http://www.w3.org/2000/svg" xmlns:xlink="http://www.w3.org/1999/xlink"><linearGradient id="a" gradientTransform="matrix(1.48637 0 0 3.97618 -31.76 -10.396)" gradientUnits="userSpaceOnUse" x1="36" x2="36" y1="-7" y2="11"><stop offset="0" stop-color="#cdf87e"/><stop offset=".262" stop-color="#a2e34f"/><stop offset=".661" stop-color="#68b723"/><stop offset="1" stop-color="#1d7e0d"/></linearGradient><linearGradient id="b" gradientTransform="matrix(1.48637 0 0 3.97618 -31.76 -10.396)" gradientUnits="userSpaceOnUse" x1="36" x2="36" y1="-7" y2="11"><stop offset="0" stop-color="#791235"/><stop offset="1" stop-color="#dd3b27"/></linearGradient><linearGradient id="c" gradientTransform="matrix(1.48637 0 0 3.97618 -31.76 -10.396)" gradientUnits="userSpaceOnUse" x1="36" x2="36" y1="-7" y2="11"><stop offset="0" stop-color="#fdef72"/><stop offset="1" stop-color="#e2cb0b"/></linearGradient><linearGradient id="d" gradientTransform="matrix(1.48637 0 0 3.97618 -31.76 -10.396)" gradientUnits="userSpaceOnUse" x1="36" x2="36" y1="-7" y2="11"><stop offset="0" stop-color="#90dbec"/><stop offset=".262" stop-color="#55c1ec"/><stop offset=".705" stop-color="#3689e6"/><stop offset="1" stop-color="#2b63a0"/></linearGradient><g transform="matrix(.83536 0 0 .83504 3.697 1.577)"><rect fill="url(#a)" height="11.929" rx="1.188" ry="1.181" width="11.891" x="16.548" y="3.521"/><rect height="11.978" rx="1.184" ry="1.25" style="opacity:.5;fill:none;stroke:#4c9606;stroke-width:1.197;stroke-linecap:round;stroke-linejoin:round" width="11.981" x="16.523" y="3.497"/></g><g transform="matrix(.83536 0 0 .83504 -9.303 1.577)"><rect fill="url(#b)" height="11.929" rx="1.188" ry="1.181" width="11.891" x="16.548" y="3.521"/><rect height="11.978" rx="1.184" ry="1.25" style="opacity:.5;fill:none;stroke:#961e31;stroke-width:1.197;stroke-linecap:round;stroke-linejoin:round" width="11.981" x="16.523" y="3.497"/></g><g transform="matrix(.83536 0 0 .83504 3.697 14.577)"><rect fill="url(#c)" height="11.929" rx="1.188" ry="1.181" width="11.891" x="16.548" y="3.521"/><rect height="11.978" rx="1.184" ry="1.25" style="opacity:.5;fill:none;stroke:#967e0a;stroke-width:1.197;stroke-linecap:round;stroke-linejoin:round" width="11.981" x="16.523" y="3.497"/></g><g transform="matrix(.83536 0 0 .83504 -9.303 14.577)"><rect fill="url(#d)" height="11.929" rx="1.188" ry="1.181" width="11.891" x="16.548" y="3.521"/><rect height="11.978" rx="1.184" ry="1.25" style="opacity:.5;fill:none;stroke:#004372;stroke-width:1.197;stroke-linecap:round;stroke-linejoin:round" width="11.981" x="16.523" y="3.497"/></g></svg>