<svg height="32" width="32" xmlns="http://www.w3.org/2000/svg" xmlns:xlink="http://www.w3.org/1999/xlink"><linearGradient id="a" gradientTransform="matrix(.78855 0 0 .74617 2.53 10.574)" gradientUnits="userSpaceOnUse" x1="13" x2="13" y1="4" y2="21"><stop offset="0" stop-color="#fff"/><stop offset=".063" stop-color="#fff" stop-opacity=".235"/><stop offset=".951" stop-color="#fff" stop-opacity=".157"/><stop offset="1" stop-color="#fff" stop-opacity=".392"/></linearGradient><linearGradient id="b" gradientUnits="userSpaceOnUse" x1="8.3946" x2="5.3426" y1="4.4498" y2=".7874"><stop offset="0" stop-color="#1f1f1f"/><stop offset="1" stop-color="#5c5c5c"/></linearGradient><linearGradient id="c" gradientTransform="matrix(1.0054 0 0 .89598 -.07 8.604)" gradientUnits="userSpaceOnUse" x1="15.922" x2="17.49" y1="7.121" y2="23.385"><stop offset="0" stop-color="#f9f9f9"/><stop offset="1" stop-color="#dbdbdb"/></linearGradient><g transform="matrix(1.66667 0 0 1.66667 -3.99 -16.627)"><rect fill="url(#c)" height="14.336" rx="2.475" ry="2.205" width="16.086" x="3.951" y="12.188"/><g stroke-width=".6"><path d="m4.594 12.738c-.246.31-.648.29-.69 1.035l-.043 11.09c.23 1.007.628 1.235 1.468 1.725l13.116-.13c.96-.14 1.472-.586 1.553-1.337 0 0 .12-10.422.086-11-.133-.382-.013-.7-1.013-1.296" fill="none" stroke="#9c9c9c" stroke-opacity=".875"/><rect fill="none" height="12.944" rx="2.184" ry="1.993" stroke="url(#a)" stroke-opacity=".502" width="14.969" x="4.485" y="12.82"/><g fill="url(#b)" opacity=".66" stroke="#000" stroke-linecap="round" stroke-linejoin="round" transform="matrix(.75888 0 0 .7631 3.013 10.46)"><path d="m11.916 8.547h-1.953l-1.876-3.05-1.876 3.05h-1.831l2.675-4.16-2.505-3.907h1.89l1.737 2.903 1.703-2.903h1.843l-2.533 4z"/><path d="m15.452 3.802 1.683-3.32h1.842l-2.675 4.926v3.14h-1.7v-3.086l-2.675-4.982h1.853z"/></g></g></g></svg>