<svg height="32" viewBox="0 0 8.4666665 8.466667" width="32" xmlns="http://www.w3.org/2000/svg" xmlns:xlink="http://www.w3.org/1999/xlink"><linearGradient id="a" gradientUnits="userSpaceOnUse" x1="46.985" x2="46.985" y1="10" y2="23"><stop offset="0" stop-color="#c6262e"/><stop offset="1" stop-color="#b5232a"/></linearGradient><linearGradient id="b" gradientTransform="matrix(0 -.59172 -.63517 0 9.814 30.722)" gradientUnits="userSpaceOnUse" x1="46.985" x2="46.985" y1="11.47" y2="20"><stop offset="0" stop-color="#fff"/><stop offset=".125" stop-color="#fff" stop-opacity=".235"/><stop offset=".939" stop-color="#fff" stop-opacity=".157"/><stop offset="1" stop-color="#fff" stop-opacity=".392"/></linearGradient><linearGradient id="c" gradientUnits="userSpaceOnUse" x1=".794" x2=".761" xlink:href="#d" y1="289.327" y2="289.625"/><linearGradient id="d"><stop offset="0" stop-color="#737373"/><stop offset=".262" stop-color="#636363"/><stop offset=".705" stop-color="#4b4b4b"/><stop offset="1" stop-color="#3f3f3f"/></linearGradient><linearGradient id="e" gradientUnits="userSpaceOnUse" x1=".794" x2=".761" xlink:href="#d" y1="290.65" y2="290.948"/><linearGradient id="f" gradientUnits="userSpaceOnUse" x1=".794" x2=".761" xlink:href="#d" y1="291.973" y2="292.271"/><linearGradient id="g" gradientUnits="userSpaceOnUse" x1=".794" x2=".761" xlink:href="#d" y1="293.296" y2="293.593"/><linearGradient id="h" gradientUnits="userSpaceOnUse" x1=".794" x2=".761" xlink:href="#d" y1="294.619" y2="294.916"/><linearGradient id="i" gradientUnits="userSpaceOnUse" x1=".794" x2=".761" xlink:href="#d" y1="295.942" y2="296.239"/><linearGradient id="j" gradientUnits="userSpaceOnUse" x1="2.117" x2="2.084" xlink:href="#d" y1="295.942" y2="296.239"/><linearGradient id="k" gradientUnits="userSpaceOnUse" x1="3.44" x2="3.407" xlink:href="#d" y1="295.942" y2="296.239"/><linearGradient id="l" gradientUnits="userSpaceOnUse" x1="4.763" x2="4.729" xlink:href="#d" y1="295.942" y2="296.239"/><linearGradient id="m" gradientUnits="userSpaceOnUse" x1="6.085" x2="6.052" xlink:href="#d" y1="295.942" y2="296.239"/><linearGradient id="n" gradientUnits="userSpaceOnUse" x1="7.408" x2="7.375" xlink:href="#d" y1="295.942" y2="296.239"/><g stroke-width=".066" transform="translate(0 -288.533)"><rect fill="url(#c)" height=".265" ry=".033" width=".265" x=".794" y="289.327"/><rect fill="url(#e)" height=".265" ry=".033" width=".265" x=".794" y="290.65"/><rect fill="url(#f)" height=".265" ry=".033" width=".265" x=".794" y="291.973"/><rect fill="url(#g)" height=".265" ry=".033" width=".265" x=".794" y="293.296"/><rect fill="url(#h)" height=".265" ry=".033" width=".265" x=".794" y="294.619"/><rect fill="url(#i)" height=".265" ry=".033" width=".265" x=".794" y="295.942"/><rect fill="url(#j)" height=".265" ry=".033" width=".265" x="2.117" y="295.942"/><rect fill="url(#k)" height=".265" ry=".033" width=".265" x="3.44" y="295.942"/><rect fill="url(#l)" height=".265" ry=".033" width=".265" x="4.763" y="295.942"/><rect fill="url(#m)" height=".265" ry=".033" width=".265" x="6.085" y="295.942"/><rect fill="url(#n)" height=".265" ry=".033" width=".265" x="7.408" y="295.942"/></g><path d="m46.39 10.484c.606-.002 1.125.05 1.554.148 2.437.56 3.51 2.657 3.54 4.92-.18 2.407-.828 3.926-2.86 4.76-.443.11-1.494.177-2.244.18l-4.892.015v-4.037l4.537-.016c2-.052 1.988-1.91.01-1.968l-4.537.016v-4.002z" fill="url(#a)" stroke="#2a0303" stroke-opacity=".49" transform="matrix(.35278 0 0 .35278 -9.962 -2.728)"/><path d="m4.677.976v1.412l.883-.003v-1.41zm.883 2.104-.883.002v1.246h.883z" fill="#eee" fill-opacity=".761"/><path d="m6.402.97-1.725.007v.353l1.725-.007c.215 0 .398.018.55.053.783.18 1.163.81 1.233 1.526.005-.048.012-.094.015-.143-.01-.8-.39-1.54-1.248-1.737-.152-.034-.335-.052-.55-.052zm.32 1.937c-.08.092-.225.164-.448.17l-1.6.005v.353l1.6-.005c.484-.013.625-.322.448-.523z" fill="#206b00" opacity=".1" stroke="#fff" stroke-width=".26458"/><path d="m46.393 11.47-3.91.012v2.032l3.546-.012h.03c.65.018 1.22.183 1.67.516.453.332.776.872.777 1.453 0 .58-.32 1.126-.776 1.46-.453.332-1.027.493-1.68.51h-.022l-3.555.012.02 2.06 3.905-.012c.663-.002 1.66-.094 1.92-.143.788-.337 1.23-.566 1.56-1.197.334-.636.523-1.525.61-2.63-.02-.963-.252-1.86-.695-2.534-.45-.684-1.083-1.175-2.07-1.402-.334-.077-.783-.125-1.332-.123z" fill="none" opacity=".53" stroke="url(#b)" stroke-opacity=".915" stroke-width=".75" transform="matrix(.35278 0 0 .35278 -9.962 -2.728)"/></svg>