<svg height="32" viewBox="0 0 8.4666665 8.466667" width="32" xmlns="http://www.w3.org/2000/svg" xmlns:xlink="http://www.w3.org/1999/xlink"><linearGradient id="a"><stop offset="0" stop-color="#737373"/><stop offset=".262" stop-color="#636363"/><stop offset=".705" stop-color="#4b4b4b"/><stop offset="1" stop-color="#3f3f3f"/></linearGradient><linearGradient id="b" gradientUnits="userSpaceOnUse" x1="3.44" x2="3.407" xlink:href="#a" y1="289.327" y2="289.625"/><linearGradient id="c" gradientUnits="userSpaceOnUse" x1="4.763" x2="4.729" xlink:href="#a" y1="289.327" y2="289.625"/><linearGradient id="d" gradientUnits="userSpaceOnUse" x1="3.44" x2="3.407" xlink:href="#a" y1="290.65" y2="290.948"/><linearGradient id="e" gradientUnits="userSpaceOnUse" x1="4.763" x2="4.729" xlink:href="#a" y1="290.65" y2="290.948"/><linearGradient id="f" gradientUnits="userSpaceOnUse" x1=".794" x2=".761" xlink:href="#a" y1="291.973" y2="292.271"/><linearGradient id="g" gradientUnits="userSpaceOnUse" x1="2.117" x2="2.084" xlink:href="#a" y1="291.973" y2="292.271"/><linearGradient id="h" gradientUnits="userSpaceOnUse" x1="3.44" x2="3.407" xlink:href="#a" y1="291.973" y2="292.271"/><linearGradient id="i" gradientUnits="userSpaceOnUse" x1="4.763" x2="4.729" xlink:href="#a" y1="291.973" y2="292.271"/><linearGradient id="j" gradientUnits="userSpaceOnUse" x1="6.085" x2="6.052" xlink:href="#a" y1="291.973" y2="292.271"/><linearGradient id="k" gradientUnits="userSpaceOnUse" x1="7.408" x2="7.375" xlink:href="#a" y1="291.973" y2="292.271"/><linearGradient id="l" gradientUnits="userSpaceOnUse" x1=".794" x2=".761" xlink:href="#a" y1="293.296" y2="293.593"/><linearGradient id="m" gradientUnits="userSpaceOnUse" x1="2.117" x2="2.084" xlink:href="#a" y1="293.296" y2="293.594"/><linearGradient id="n" gradientUnits="userSpaceOnUse" x1="3.44" x2="3.407" xlink:href="#a" y1="293.296" y2="293.594"/><linearGradient id="o" gradientUnits="userSpaceOnUse" x1="4.763" x2="4.729" xlink:href="#a" y1="293.296" y2="293.594"/><linearGradient id="p" gradientUnits="userSpaceOnUse" x1="6.085" x2="6.052" xlink:href="#a" y1="293.296" y2="293.594"/><linearGradient id="q" gradientUnits="userSpaceOnUse" x1="7.408" x2="7.375" xlink:href="#a" y1="293.296" y2="293.594"/><linearGradient id="r" gradientUnits="userSpaceOnUse" x1="3.44" x2="3.407" xlink:href="#a" y1="294.619" y2="294.916"/><linearGradient id="s" gradientUnits="userSpaceOnUse" x1="4.763" x2="4.729" xlink:href="#a" y1="294.619" y2="294.916"/><linearGradient id="t" gradientUnits="userSpaceOnUse" x1="3.44" x2="3.407" xlink:href="#a" y1="295.942" y2="296.239"/><linearGradient id="u" gradientUnits="userSpaceOnUse" x1="4.763" x2="4.729" xlink:href="#a" y1="295.942" y2="296.239"/><g stroke-width=".066" transform="translate(0 -288.533)"><rect fill="url(#b)" height=".265" ry=".033" width=".265" x="3.44" y="289.327"/><rect fill="url(#c)" height=".265" ry=".033" width=".265" x="4.763" y="289.327"/><rect fill="url(#d)" height=".265" ry=".033" width=".265" x="3.44" y="290.65"/><rect fill="url(#e)" height=".265" ry=".033" width=".265" x="4.763" y="290.65"/><rect fill="url(#f)" height=".265" ry=".033" width=".265" x=".794" y="291.973"/><rect fill="url(#g)" height=".265" ry=".033" width=".265" x="2.117" y="291.973"/><rect fill="url(#h)" height=".265" ry=".033" width=".265" x="3.44" y="291.973"/><rect fill="url(#i)" height=".265" ry=".033" width=".265" x="4.763" y="291.973"/><rect fill="url(#j)" height=".265" ry=".033" width=".265" x="6.085" y="291.973"/><rect fill="url(#k)" height=".265" ry=".033" width=".265" x="7.408" y="291.973"/><rect fill="url(#l)" height=".265" ry=".033" width=".265" x=".794" y="293.296"/><rect fill="url(#m)" height=".265" ry=".033" width=".265" x="2.117" y="293.296"/><rect fill="url(#n)" height=".265" ry=".033" width=".265" x="3.44" y="293.296"/><rect fill="url(#o)" height=".265" ry=".033" width=".265" x="4.763" y="293.296"/><rect fill="url(#p)" height=".265" ry=".033" width=".265" x="6.085" y="293.296"/><rect fill="url(#q)" height=".265" ry=".033" width=".265" x="7.408" y="293.296"/><rect fill="url(#r)" height=".265" ry=".033" width=".265" x="3.44" y="294.619"/><rect fill="url(#s)" height=".265" ry=".033" width=".265" x="4.763" y="294.619"/><rect fill="url(#t)" height=".265" ry=".033" width=".265" x="3.44" y="295.942"/><rect fill="url(#u)" height=".265" ry=".033" width=".265" x="4.763" y="295.942"/><path d="m3.307 291.84h1.853v1.854h-1.85z" style="stroke-miterlimit:0;fill:#fcaf3e;stroke:#ce5c00;stroke-width:.265;stroke-linejoin:round;stroke-linecap:round"/></g></svg>