<svg height="32" width="32" xmlns="http://www.w3.org/2000/svg" xmlns:xlink="http://www.w3.org/1999/xlink"><linearGradient id="a" gradientTransform="matrix(1.2306833 0 0 1.6666734 17.807007 -31.786348)" gradientUnits="userSpaceOnUse" x1="5.03216" x2="5.03216" y1="27.471699" y2="29.871689"><stop offset="0" stop-color="#fff"/><stop offset="0" stop-color="#fff" stop-opacity=".235294"/><stop offset="1" stop-color="#fff" stop-opacity=".392157"/></linearGradient><radialGradient id="b" cx="24.837126" cy="36.421127" gradientTransform="matrix(-.52995454 0 0 -.35307735 22.512547 21.835677)" gradientUnits="userSpaceOnUse" r="15.644737"><stop offset="0"/><stop offset="1" stop-opacity="0"/></radialGradient><linearGradient id="c" gradientTransform="matrix(-1.3333333 0 0 1.3333333 32.00048 1.333335)" gradientUnits="userSpaceOnUse" x1="12" x2="12" y1="4" y2="19.275499"><stop offset="0" stop-color="#64baff"/><stop offset="1" stop-color="#3689e6"/></linearGradient><linearGradient id="d" gradientTransform="matrix(1.4687933 0 0 1.4416821 17.900635 -24.641344)" gradientUnits="userSpaceOnUse" x1="-2.521394" x2="-2.521394" y1="22.402153" y2="35.268829"><stop offset="0" stop-color="#fff"/><stop offset=".51999998" stop-color="#fff" stop-opacity=".235294"/><stop offset=".51999998" stop-color="#fff" stop-opacity=".156863"/><stop offset="1" stop-color="#fff" stop-opacity=".392157"/></linearGradient><path d="m1.059 8.976195a8.2909995 5.5238047 0 1 1 16.581999 0 8.2909995 5.5238047 0 0 1 -16.581999 0z" fill="url(#b)" fill-rule="evenodd" opacity=".141176" transform="matrix(1.3333333 0 0 1.3333333 5.252441 11.396813)"/><path d="m15.793375 6.0182288v.00521c-.216514 0-.396454.08588-.526042.2239584-.0089.00987-.01921.019352-.02865.028645l-10.540628 9.2656258c-.1212.121306-.192708.285474-.192708.466145 0 .179381.07151.334491.192708.463543l10.540628 9.265623c.0095.0093.01977.01883.02865.02864.129587.138086.309527.223959.526042.223959.402289 0 .706625-.287324.706625-.67448v-5.132869c-.000252-.361344.313496-.682229.702229-.682229h10.635069c.381132 0 .662702-.267369.662702-.648501v-5.68344c0-.381132-.28157-.668059-.662702-.668059h-10.700174c-.356849-.03335-.637361-.320035-.637124-.660066v-5.1550383c0-.3871547-.304336-.6666667-.706625-.6666669z" fill="url(#c)" stroke="#002e99" stroke-linecap="round" stroke-linejoin="round" stroke-opacity=".501961"/><g fill="none"><path d="m17 18.500003h10.500004v-5.000008h-10.500004" opacity=".6" stroke="url(#a)" stroke-width=".999992"/><path d="m17 18.5c-.889641 0-1.5.802498-1.5 1.666313v4.474605l-9.854457-8.640918 9.854457-8.5875319v4.2930289c.000366 1.116292.780097 1.794273 1.5 1.794503" opacity=".5" stroke="url(#d)"/></g></svg>