<svg height="32" width="32" xmlns="http://www.w3.org/2000/svg" xmlns:xlink="http://www.w3.org/1999/xlink"><linearGradient id="a"><stop offset="0"/><stop offset="1" stop-opacity="0"/></linearGradient><linearGradient id="b" gradientTransform="matrix(.08449704 0 0 .01235294 -6.539646 38.470822)" gradientUnits="userSpaceOnUse" x1="302.85715" x2="302.85715" y1="366.64789" y2="609.50507"><stop offset="0" stop-opacity="0"/><stop offset=".5"/><stop offset="1" stop-opacity="0"/></linearGradient><radialGradient id="c" cx="605.71429" cy="486.64789" gradientTransform="matrix(-.0289166 0 0 .01235294 21.026894 38.470848)" gradientUnits="userSpaceOnUse" r="117.14286" xlink:href="#a"/><radialGradient id="d" cx="605.71429" cy="486.64789" gradientTransform="matrix(.02891661 0 0 .01235294 26.973101 38.470848)" gradientUnits="userSpaceOnUse" r="117.14286" xlink:href="#a"/><linearGradient id="e" gradientTransform="matrix(.71521168 0 0 .50836186 47.363354 2.524216)" gradientUnits="userSpaceOnUse" x1="-51.786404" x2="-51.786404" y1="50.786446" y2="2.906247"><stop offset="0" stop-opacity=".317829"/><stop offset="1" stop-opacity=".24031"/></linearGradient><linearGradient id="f" gradientTransform="matrix(-.7700459 .00111029 .00366806 -.78014046 -2.43265 -4.10784)" gradientUnits="userSpaceOnUse" x1="-24.032034" x2="-24.097931" y1="-13.090545" y2="-40.163883"><stop offset="0" stop-color="#1d1d1d"/><stop offset="1"/></linearGradient><linearGradient id="g" gradientTransform="matrix(.7837838 0 0 .6216216 -2.810809 2.081085)" gradientUnits="userSpaceOnUse" x1="23.99999" x2="23.99999" y1="5.56415" y2="43"><stop offset="0" stop-color="#fff"/><stop offset=".03626217" stop-color="#fff" stop-opacity=".235294"/><stop offset=".95056331" stop-color="#fff" stop-opacity=".156863"/><stop offset="1" stop-color="#fff" stop-opacity=".392157"/></linearGradient><linearGradient id="h" gradientTransform="matrix(.85714084 0 0 .52148059 -4.571385 3.684463)" gradientUnits="userSpaceOnUse" x1="25.132275" x2="25.132275" y1=".985206" y2="47.013336"><stop offset="0" stop-color="#f4f4f4"/><stop offset="1" stop-color="#dbdbdb"/></linearGradient><radialGradient id="i" cx="65.325226" cy="48.709068" gradientTransform="matrix(0 .68597915 -.7462606 0 60.288383 -27.737493)" gradientUnits="userSpaceOnUse" r="31.000002"><stop offset="0" stop-color="#cdf87e"/><stop offset=".26238" stop-color="#a2e34f"/><stop offset=".66093999" stop-color="#68b723"/><stop offset="1" stop-color="#1d7e0d"/></radialGradient><linearGradient id="j" gradientTransform="matrix(.42269325 0 0 .38513145 14.544843 15.082967)" gradientUnits="userSpaceOnUse" x1="24.138529" x2="24.138529" y1="10.170639" y2="36.135799"><stop offset="0" stop-color="#fff"/><stop offset="0" stop-color="#fff" stop-opacity=".235294"/><stop offset="1" stop-color="#fff" stop-opacity=".156863"/><stop offset="1" stop-color="#fff" stop-opacity=".392157"/></linearGradient><linearGradient id="k" gradientTransform="matrix(.38833389 0 0 .41842122 15.301011 14.318351)" gradientUnits="userSpaceOnUse" x1="24.138529" x2="24.138529" y1="20.748587" y2="25.52846"><stop offset="0" stop-color="#fff"/><stop offset=".00000003" stop-color="#fff" stop-opacity=".235294"/><stop offset="1" stop-color="#fff" stop-opacity=".156863"/><stop offset="1" stop-color="#fff" stop-opacity=".392157"/></linearGradient><linearGradient id="l" gradientTransform="matrix(.1232702 0 0 .12419035 31.35918 11.605105)" gradientUnits="userSpaceOnUse" x1="-184.92441" x2="-175.25337" y1="113.97943" y2="88.801025"><stop offset="0" stop-color="#7a0f01"/><stop offset="1" stop-color="#d31807"/></linearGradient><linearGradient id="m" gradientTransform="matrix(.12340306 .00964049 -.01017635 .11747859 36.510036 14.379667)" gradientUnits="userSpaceOnUse" x1="-211.28862" x2="-208.49672" y1="88.750069" y2="75.190559"><stop offset="0" stop-color="#ec4502"/><stop offset="1" stop-color="#fe7617"/></linearGradient><linearGradient id="n" gradientTransform="matrix(.18414428 0 0 .19698687 40.1485 10.313323)" gradientUnits="userSpaceOnUse" x1="-107.45584" x2="-107.45584" y1="-37.385227" y2="38.561256"><stop offset="0" stop-color="#0b85e9"/><stop offset="1" stop-color="#69d1ef"/></linearGradient><linearGradient id="o" gradientTransform="matrix(.18418231 0 0 .18764324 39.964581 10.130104)" gradientUnits="userSpaceOnUse" x1="-96.557358" x2="-96.557358" y1="110.92493" y2="39.991924"><stop offset="0" stop-color="#e89c42"/><stop offset="1" stop-color="#faca67"/></linearGradient><path d="m.99999685 4.9999981c6.87452305 0 29.99996415.00153 29.99996415.00153l.000036 23.9984699s-19.999999 0-30.00000015 0c0-8 0-16 0-24.0000001z" fill="url(#h)"/><path d="m1.9999989 6.0144682v21.9855288h27.9979551v-21.9855288z" fill="url(#o)" stroke-width="1.66892"/><path d="m2.1917567 5.9927514v11.7783206c.4156443.205007.9419762.391288 1.5109402.391288 1.2993423 0 2.570024-1.122825 4.7395804-1.122825 2.1695647 0 3.8013537 1.412038 6.5368117 1.412038s3.351106-2.0415 6.839-2.0415c3.487886 0 3.159911 1.29295 5.343955 1.29295 1.504416 0 2.146897-.562038 3.021887-.918675v-10.7915966z" fill="url(#n)" stroke-width="1.647595"/><path d="m1.9999989 5.9996704v12.7554206c.6238521.177224 1.4328419.322133 2.3962791.322133 2.4564605 0 2.1059826-.881624 4.2212757-.881624 2.1152783 0 3.3612143 1.441115 6.2208163 1.441115 3.541951 0 4.354758-2.322739 7.15711-2.322739 2.188229 0 2.352521 1.271573 4.760825 1.271573 1.626919 0 2.16722-.668007 3.173887-1.10203v-11.4838486z" opacity=".07" stroke-width="1.642953"/><g fill="#fff" transform="matrix(1.64683 0 0 1.6429525 -4.58732 -4.591107)"><path d="m15.919319 11.806635c-1.112768 0-1.812739.336631-2.385799.650123-.573056.313491-1.00538.588206-1.767613.588206-.783322 0-1.40242-.199955-2.0187501-.412776-.616326-.212822-1.23268-.443735-1.951137-.443735-.706237 0-1.274028.177476-1.738633.35086-.46461.173384-.824429.330221-1.139774.330221-.28552 0-.563838-.104285-.792044-.216707a.29415704.31426635 0 0 0 -.125569-.03096v1.351843c.391132.104566.881785.185749 1.45852.185749.780512 0 1.177609-.152178 1.477843-.288944.300234-.136765.485983-.247665 1.09148-.247665.581221 0 1.048758.20154 1.622726.423095.5739621.221556 1.2471241.454055 2.1636371.454055 1.138098 0 1.878958-.385644 2.492044-.742998s1.087424-.670762 1.864206-.670762c.612614 0 .897189.166095 1.275.36118.377801.195085.841349.412776 1.622725.412776.995062 0 1.431212-.394433 1.931819-.639803v-1.186733a.29415704.31426635 0 0 0 -.10625.02064c-.582708.237219-.883811.53661-1.72898.53661-.60894 0-.798986-.155864-1.197726-.36118-.398744-.205315-.95463-.423096-2.047725-.423095z" opacity=".1"/><path d="m15.919319 12.425798c-2.118243 0-2.492134 1.238329-4.153412 1.238329s-2.6522831-.856511-3.9698871-.856511c-1.317599 0-2.0893.681081-2.878407.681081-.345539 0-.665187-.112993-.917613-.237346v.712039c.379714.107869.872114.196069 1.45852.196069 1.49515 0 1.281828-.536609 2.569323-.536609 1.287486 0 2.0458371.87715 3.7863631.87715 2.155845 0 2.650569-1.41376 4.35625-1.41376 1.331888 0 1.431886.773956 2.897725.773956.990241 0 1.319101-.406588 1.931819-.670761v-.53661c-.531392.216329-.921579.557248-1.83523.557248-1.326397 0-1.127214-.784275-3.245451-.784275z" opacity=".3"/><path d="m15.919319 12.925799c-2.118243 0-2.492134 1.238329-4.153412 1.238329s-2.6522831-.856511-3.9698871-.856511c-1.317599 0-2.0893.681081-2.878407.681081-.345539 0-.665187-.112993-.917613-.237346v.712039c.379714.107868.872114.196069 1.45852.196069 1.49515 0 1.281828-.536609 2.569323-.536609 1.287486 0 2.0458371.877149 3.7863631.877149 2.155845 0 2.650569-1.413758 4.35625-1.413758 1.331888 0 1.431886.773955 2.897725.773955.990241 0 1.319101-.406588 1.931819-.670761v-.53661c-.531392.216329-.921579.557248-1.83523.557248-1.326397 0-1.127214-.784275-3.245451-.784275z"/></g><g fill="none"><path d="m.4999577 4.499957c7.103685 0 31.0000463.00174 31.0000463.00174l.000032 24.998342s-20.666718 0-31.0000783 0c0-8.33337 0-16.666657 0-24.9999301z" stroke="url(#e)" stroke-linejoin="round" stroke-width=".999922"/><path d="m30.499996 28.499998h-28.9999985v-23h28.9999985z" stroke="url(#g)" stroke-linecap="round" stroke-linejoin="round"/><path d="m29.499997 27.499997h-27.0000001l.000002-20.9999986 26.9999951.000002z" opacity=".29" stroke="url(#f)" stroke-linecap="round" stroke-width="1.000001"/></g><g opacity=".4" transform="matrix(.6666592 0 0 1.3333333 .000179 -30.333332)"><path d="m3.6 43h40.799999v3h-40.799999z" fill="url(#b)"/><path d="m3.6 43.00013v2.999835c-1.4891338.005647-3.6-.672111-3.6-1.500111 0-.827998 1.6617608-1.499723 3.6-1.499724z" fill="url(#c)"/><path d="m44.4 43.00013v2.999835c1.489133.0056 3.6-.672111 3.6-1.500111 0-.827998-1.661761-1.499723-3.6-1.499724z" fill="url(#d)"/></g><path d="m21.5 21.5v-4.021022h5v4.021022h4.007287v5h-4.007287v4.007286h-5v-4.007286h-4.007286v-5z" fill="url(#i)"/><path d="m22.5 23.003028v-4.503028h3v4.496972m0 2.003028v4.5h-3v-4.5" fill="none" opacity=".5" stroke="url(#j)"/><path d="m26 22.512298 3.499869-.01086v2.987703l-3.499869.01086m-4 0-3.500131-.01086v-2.987703l3.500131.01086" fill="none" opacity=".5" stroke="url(#k)"/><path d="m21.5 21.5v-4.021022h5v4.021022h4.007287v5h-4.007287v4.007286h-5v-4.007286h-4.007286v-5z" fill="none" opacity=".5" stroke="#0f5a00" stroke-linecap="round" stroke-linejoin="round"/><g stroke-width="1.642953"><path d="m8.7498782 19.006704c-.1195084-.009-.2538592.000158-.3893256.04585-.5287711.178396-.5894091.529827-.6366227.698496-.047219.168667-.056978.299761-.06465.438076-.015279.276623-.00345.567382.00969.857946.01068.238667.020209.450499.02489.637577-.1823481.04227-.3833026.08769-.6147206.137219-.290042.06209-.5832563.12424-.8536979.209354-.1352149.04257-.2622432.08552-.4236254.177572-.080686.04602-.1736256.100759-.2824285.221292-.1087963.120527-.2406219.347186-.2331185.621053.014622.534643.3458185.696311.4999751.790919.1541582.0946.2785001.142756.4144873.192197.271976.0989.5719907.179067.8667512.256585.2429335.06389.4557582.124092.6446814.177491-.014129.17793-.033713.374579-.055663.598594-.027635.282041-.054678.563612-.053248.834874.0007164.135626.00378.264969.045872.439446.021013.08724.049404.187315.1360858.323.086683.135691.2686046.327975.544785.405777.5380768.15158.8026677-.09568.9449622-.205855.1422961-.11016.2299278-.212238.3214962-.319942.1831366-.215406.3538098-.461187.5226218-.703768.138846-.199515.262272-.37594.374041-.530137.173622.06756.364681.145303.582523.234382.272928.111606.54906.225416.820378.307446.135658.04101.262461.07771.449765.09325.09364.0078.206007.01462.368187-.02208.162176-.03677.407096-.143922.569976-.36954.317679-.44005.153796-.760123.08759-.922998-.06621-.162866-.138879-.271548-.218243-.387531-.158726-.231969-.352935-.461752-.543147-.688961-.156212-.186585-.291258-.352336-.410662-.500631.121349-.136316.256806-.284816.413271-.454427.196239-.21273.393492-.426067.559619-.646397.08307-.11016.161617-.216418.235231-.381163.0368-.08238.07676-.179753.09033-.338002.01364-.158249-.01802-.415246-.193205-.632564-.341562-.423711-.709039-.369719-.892108-.360267-.183069.0095-.316289.04106-.456875.07691-.281168.0717-.572923.172582-.85932.274292-.236079.08384-.443596.157395-.629481.219605-.09843-.151729-.204614-.321947-.325422-.515773-.1514795-.243024-.3045386-.486994-.4730563-.705272-.084267-.10914-.1615844-.211282-.3034533-.32881-.0709427-.058769-.1578713-.126738-.3118505-.187811-.0769889-.030539-.1837166-.058229-.3032167-.06728zm1.3813858 1.891319c.0041-.000588.02833.0064.0338.0062-.0097.0025-.03736.01005-.04293.01117-.01364.0028-.02395-.01265.0092-.01745zm.504774.162932c.04206.03344.03932.0484.03098.03874-.0037-.0045-.02348-.02911-.03098-.03874zm-2.6170782.525617c.033943-.01527.036836.0053.025909.0093-.00575.0022-.038281.01015-.050833.01412.00493-.003.020882-.02165.024924-.02348zm-.3245833.399605c-.000626.01004.0006637.038.0000345.04359-.00165.01495-.015115.0036-.0000345-.04359zm4.2925745.789366c-.0078-.01281.01051-.01051.0275.03485-.0058-.0086-.02456-.03-.0275-.03485zm.01314.509529c-.02029.04739-.03736.05179-.03028.04123.0033-.005.02282-.03123.03028-.04123zm-4.2727873.832131c.0003517.0058-.0007015.03826-.0005931.0508-.013143-.05029-.0001988-.06337.0005931-.0508zm.2861859.440058c.0092.0034.035619.01199.040746.01413.014458.0061.00197.01412-.040746-.01413zm2.6944074.475642c.01068-.01134.01232.0074-.02997.03761.0076-.0087.02569-.03311.02997-.03761zm-.555328.156392c.0062.0016.03836.01462.0518.01858-.05387-.0036-.06455-.02172-.0518-.01858z" opacity=".05"/><path d="m8.5229158 19.799088c-.2959056.09983.049502 2.247045-.1377945 2.486918-.1808398.231609-2.405846.466416-2.3979434.754841.00821.298714 2.2639951.645776 2.4456909.889378.1754378.23521-.2778134 2.324448.012815 2.406311.3009642.08478 1.3468892-1.847447 1.6464782-1.936766.289267-.08624 2.233695.965187 2.405392.727356.177821-.246318-1.429685-1.785639-1.426227-2.084442.0033-.288508 1.657802-1.725136 1.47332-1.953986-.191063-.237015-2.230691.740264-2.528141.644909-.2872032-.09207-1.2078365-2.030911-1.4935493-1.934519z" opacity=".15"/><path d="m8.607674 19.239573c.2858097-.09642 1.2094037 1.845095 1.496705 1.937195.297551.09539 2.335973-.884405 2.527101-.647307.184545.228928-1.470078 1.665821-1.47342 1.954429-.0034.298905 1.604531 1.84128 1.426648 2.087678-.171753.237911-2.117961-.81556-2.407326-.72929-.2996892.08934-1.3443179 2.022377-1.645384 1.937565-.2906958-.08188.1611079-2.169867-.014458-2.405158-.181755-.243682-2.4353634-.591381-2.4435485-.890197-.00789-.288523 2.2175307-.52549 2.398433-.757178.1873557-.239953-.1608122-2.387872.1351821-2.487737z" fill="url(#m)"/><path d="m8.6363994 19.183396-.079207.07616c-.0005652.0018-.00312.0023-.00312.0034-.1590214.384807.095718 2.068747-.064831 2.274339-.0069.0086-.016446.02042-.028817.02902l.064831.04353c1.2984714.388911.1619459-2.345716.1296126-2.423056-.00608-.0011-.012158-.0041-.017974-.0034z" fill="#9d0f06" opacity=".5"/><path d="m6.5240833 22.398011c-.2732953.0025-.4314426.01544-.4314426.01544v.0036.0621c.1602865.294622 2.2843102.631711 2.4615504.869332.1775259.23801-.2786448 2.350514.015444 2.433349.3045409.0858 1.360994-1.869494 1.6641449-1.959876.29088-.08672 2.235918.964286 2.430737.741262l-.0033-.0036c-1.640135-2.010592-4.9524712-2.171652-6.1367328-2.161606z" fill="url(#l)" opacity=".75"/></g></svg>