<svg height="32" width="32" xmlns="http://www.w3.org/2000/svg" xmlns:xlink="http://www.w3.org/1999/xlink"><linearGradient id="a" gradientTransform="matrix(.184637 0 0 .22360095 5.500679 1.359007)" gradientUnits="userSpaceOnUse" x1="24.138529" x2="24.138529" y1="21.34207" y2="24.912279"><stop offset="0" stop-color="#fff"/><stop offset=".00000019" stop-color="#fff" stop-opacity=".235294"/><stop offset="1" stop-color="#fff" stop-opacity=".156863"/><stop offset="1" stop-color="#fff" stop-opacity=".392157"/></linearGradient><linearGradient id="b" gradientTransform="matrix(.02408157 .42623769 -.75693126 .04258799 44.659488 -28.211168)" gradientUnits="userSpaceOnUse" x1="67.96917" x2="86.3489" y1="40.757565" y2="40.820831"><stop offset="0" stop-color="#cdf87e"/><stop offset=".26238" stop-color="#a2e34f"/><stop offset=".66093999" stop-color="#68b723"/><stop offset="1" stop-color="#1d7e0d"/></linearGradient><linearGradient id="c"><stop offset="0"/><stop offset="1" stop-opacity="0"/></linearGradient><linearGradient id="d" gradientTransform="matrix(.56756757 0 0 .72972971 2.378382 -2.513506)" gradientUnits="userSpaceOnUse" x1="23.99999" x2="23.99999" y1="5.56415" y2="43"><stop offset="0" stop-color="#fff"/><stop offset=".03626217" stop-color="#fff" stop-opacity=".235294"/><stop offset=".95056331" stop-color="#fff" stop-opacity=".156863"/><stop offset="1" stop-color="#fff" stop-opacity=".392157"/></linearGradient><linearGradient id="e" gradientTransform="matrix(.62856997 0 0 .60839392 .91432 -.534791)" gradientUnits="userSpaceOnUse" x1="25.132275" x2="25.132275" y1=".985206" y2="47.013336"><stop offset="0" stop-color="#f4f4f4"/><stop offset="1" stop-color="#dbdbdb"/></linearGradient><radialGradient id="f" cx="605.71429" cy="486.64789" gradientTransform="matrix(.01566318 0 0 .00823529 17.610433 25.980565)" gradientUnits="userSpaceOnUse" r="117.14286" xlink:href="#c"/><radialGradient id="g" cx="605.71429" cy="486.64789" gradientTransform="matrix(-.01566318 0 0 .00823529 14.389566 25.980565)" gradientUnits="userSpaceOnUse" r="117.14286" xlink:href="#c"/><linearGradient id="h" gradientTransform="matrix(.04576928 0 0 .00823529 -.542324 25.980548)" gradientUnits="userSpaceOnUse" x1="302.85715" x2="302.85715" y1="366.64789" y2="609.50507"><stop offset="0" stop-opacity="0"/><stop offset=".5"/><stop offset="1" stop-opacity="0"/></linearGradient><linearGradient id="i" gradientTransform="matrix(.53064141 0 0 .58970049 39.269607 -1.791918)" gradientUnits="userSpaceOnUse" x1="-51.786404" x2="-51.786404" y1="50.786446" y2="2.906247"><stop offset="0" stop-opacity=".317829"/><stop offset="1" stop-opacity=".24031"/></linearGradient><path d="m4.949989 29h22.100021v2h-22.100021z" fill="url(#h)" opacity=".15"/><path d="m4.9499887 29.000086v1.99989c-.806615.0038-1.950002-.448074-1.950002-1.000074s.900121-.999816 1.950002-.999816z" fill="url(#g)" opacity=".15"/><path d="m27.050011 29.000086v1.99989c.806614.0038 1.950002-.448074 1.950002-1.000074s-.900122-.999816-1.950002-.999816z" fill="url(#f)" opacity=".15"/><path d="m5 1c5.041316 0 21.999973.00179 21.999973.00179l.000027 27.99821s-14.666666 0-22 0c0-9.333333 0-18.666664 0-27.9999959z" fill="url(#e)"/><g fill="none" stroke-linejoin="round"><path d="m26.5 28.5h-21v-27h21z" stroke="url(#d)" stroke-linecap="round"/><path d="m4.499961.499944c5.27048 0 23.000054.002 23.000054.002l.000024 28.998112s-15.333385 0-23.000078 0c0-9.666722 0-19.333346 0-28.999956z" stroke="url(#i)" stroke-width=".999922"/></g><g transform="translate(1.990615 .000329)"><path d="m21.501602 4.575247-.016949 3.9045815-14.9951768-.0312397.0169492-3.9045815z" fill="url(#b)" stroke-width="1.008585"/><g fill="none" stroke-width=".991488" transform="matrix(.9994932 0 0 1.01776 .011663 -.654813)"><path d="m6.9852218 6.0698376 13.4534002-.0323817.008482 2.0462465-13.4279637-.1424783" opacity=".5" stroke="url(#a)"/><path d="m21.513147 5.0992848-.016958 3.8887878-15.0286801-.0306947.0169577-3.8887878z" opacity=".5" stroke="#0f5a00" stroke-linecap="round" stroke-linejoin="round"/></g></g></svg>