<svg height="32" width="32" xmlns="http://www.w3.org/2000/svg" xmlns:xlink="http://www.w3.org/1999/xlink"><linearGradient id="a" gradientTransform="matrix(1 0 0 .8 0 3)" gradientUnits="userSpaceOnUse" x1="16" x2="16" y1="27" y2="4"><stop offset="0" stop-color="#002e99"/><stop offset="1" stop-color="#3689e6"/></linearGradient><radialGradient id="b" cx="65.324997" cy="48.709" gradientTransform="matrix(0 .68598 -.74626 0 60.288 -27.737)" gradientUnits="userSpaceOnUse" r="31"><stop offset="0" stop-color="#d1ff82"/><stop offset=".262" stop-color="#9bdb4d"/><stop offset=".661" stop-color="#68b723"/><stop offset="1" stop-color="#3a9104"/></radialGradient><linearGradient id="c" gradientTransform="matrix(.4227 0 0 .38513 14.545 15.083)" gradientUnits="userSpaceOnUse" x1="24.139" x2="24.139" xlink:href="#d" y1="10.171" y2="36.136002"/><linearGradient id="d"><stop offset="0" stop-color="#fff"/><stop offset="0" stop-color="#fff" stop-opacity=".235"/><stop offset="1" stop-color="#fff" stop-opacity=".157"/><stop offset="1" stop-color="#fff" stop-opacity=".392"/></linearGradient><linearGradient id="e" gradientTransform="matrix(.38833 0 0 .41842 15.3 14.318)" gradientUnits="userSpaceOnUse" x1="24.139" x2="24.139" xlink:href="#d" y1="20.749001" y2="25.528"/><radialGradient id="f" cx="-1" cy="14.999253" gradientTransform="matrix(0 1 -1.27273 0 35.09 -1)" gradientUnits="userSpaceOnUse" r="11"><stop offset="0" stop-color="#fff"/><stop offset="1" stop-color="#fff" stop-opacity="0"/></radialGradient><radialGradient id="g" cx="6.690214" cy="15.119161" gradientTransform="matrix(.00000007 3.1304348 -2.2608696 .00000005 50.18245 -22.94328)" gradientUnits="userSpaceOnUse" r="11.5"><stop offset="0" stop-color="#8cd5ff"/><stop offset=".262" stop-color="#64baff"/><stop offset=".788" stop-color="#3689e6"/><stop offset="1" stop-color="#0d52bf"/></radialGradient><linearGradient id="h"><stop offset="0"/><stop offset="1" stop-opacity="0"/></linearGradient><linearGradient id="i" gradientTransform="matrix(0 .56757 -.72973 0 33.514 1.378)" gradientUnits="userSpaceOnUse" x1="6.381592" x2="41.619537" y1="24.000658" y2="24.000658"><stop offset="0" stop-color="#fff"/><stop offset="0" stop-color="#fff" stop-opacity=".235"/><stop offset=".99999994" stop-color="#fff" stop-opacity=".157"/><stop offset="1" stop-color="#fff" stop-opacity=".392"/></linearGradient><radialGradient id="j" cx="605.714" cy="486.648" gradientTransform="matrix(.019 0 0 .02024 18.043 18.08)" gradientUnits="userSpaceOnUse" r="117.143" xlink:href="#h"/><radialGradient id="k" cx="605.714" cy="486.648" gradientTransform="matrix(-.019 0 0 .02024 14.134 18.08)" gradientUnits="userSpaceOnUse" r="117.143" xlink:href="#h"/><linearGradient id="l" gradientTransform="matrix(.05555 0 0 .02024 -3.988 18.08)" gradientUnits="userSpaceOnUse" x1="302.857" x2="302.857" y1="366.648" y2="609.505"><stop offset="0" stop-opacity="0"/><stop offset=".5"/><stop offset="1" stop-opacity="0"/></linearGradient><g transform="translate(0 -1)"><path d="m2.678 25.5h26.822v4.915h-26.822z" fill="url(#l)" opacity=".15"/><path d="m2.678 25.5v4.915c-.98.01-2.367-1.1-2.367-2.458s1.093-2.457 2.369-2.457z" fill="url(#k)" opacity=".15"/><path d="m29.5 25.5v4.915c.98.01 2.367-1.1 2.367-2.458s-1.093-2.457-2.367-2.457z" fill="url(#j)" opacity=".15"/></g><path d="m30 4-.002 22h-27.998v-22z" fill="url(#g)" stroke="url(#f)"/><path d="m2.5 25.5v-21h27v21z" fill="none" opacity=".5" stroke="url(#i)" stroke-linecap="round" stroke-linejoin="round"/><path d="m30.5 3.5-.002 23h-28.998v-23z" fill="none" stroke="url(#a)" stroke-linejoin="round"/><g fill="#fff" fill-opacity=".691"><path d="m4 5h1v14h-1z"/><path d="m17 6v1h-14v-1z"/><path d="m28 25h-1v-14h1z" opacity=".7"/><path d="m15 24v-1h14v1z" opacity=".7"/><path d="m8 12h4v1h-4zm5 0h2v1h-2zm4 0h3v1h-3zm4 0h3v1h-3zm-13 2h2v1h-2zm3 0h4v1h-4zm5 0h3v1h-3zm4 0h2v1h-2zm-12 2h4v1h-4zm5 0h2v1h-2zm3 0h4v1h-4zm5 0h2v1h-2zm-13 2h3v1h-3zm4 0h3v1h-3zm4 0h2v1h-2zm3 0h4v1h-4z"/></g><path d="m21.5 21.5v-4h5v4h4l.007 5h-4.007v4.007h-5v-4.007h-4v-5z" fill="url(#b)"/><g fill="none"><path d="m22.5 23.003v-4.503h3v4.497m0 2.003v4.5h-3v-4.5" opacity=".5" stroke="url(#c)"/><path d="m26 22.512 3.5-.01v2.987l-3.5.01m-4 0-3.5-.01v-2.989l3.5.012" opacity=".5" stroke="url(#e)"/><path d="m21.5 21.5v-4h5v4h4l.007 5h-4.007v4.007h-5v-4.007h-4v-5z" opacity=".5" stroke="#206b00" stroke-linecap="round" stroke-linejoin="round"/></g></svg>