<svg height="32" viewBox="0 0 32 32" width="32" xmlns="http://www.w3.org/2000/svg" xmlns:xlink="http://www.w3.org/1999/xlink"><linearGradient id="a" gradientUnits="userSpaceOnUse" x1="18.635593" x2="9" xlink:href="#g" y1="18.682203" y2="6.580508"/><linearGradient id="b" gradientTransform="matrix(.75000188 0 0 .75000188 11.975183 8.976485)" gradientUnits="userSpaceOnUse" x1="12.031344" x2="12.031344" xlink:href="#c" y1="3.031343" y2="12.031343"/><linearGradient id="c" gradientTransform="translate(15.968656 11.968657)" gradientUnits="userSpaceOnUse" x1="12.031344" x2="12.031344" y1="3.031343" y2="12.031343"><stop offset="0" stop-color="#fff"/><stop offset="0" stop-color="#fff" stop-opacity=".235294"/><stop offset="1" stop-color="#fff" stop-opacity=".156863"/><stop offset="1" stop-color="#fff" stop-opacity=".392157"/></linearGradient><linearGradient id="d" gradientTransform="matrix(.74999244 0 0 .74999244 -5.290008 1.487529)" gradientUnits="userSpaceOnUse" x1="14.551723" x2="14.551723" xlink:href="#c" y1="9.016707" y2="22.01687"/><linearGradient id="e" gradientUnits="userSpaceOnUse" x1="25.635593" x2="16" xlink:href="#g" y1="18.682203" y2="6.580508"/><linearGradient id="f"><stop offset="0" stop-color="#737373"/><stop offset=".26238" stop-color="#636363"/><stop offset=".704952" stop-color="#4b4b4b"/><stop offset="1" stop-color="#3f3f3f"/></linearGradient><linearGradient id="g"><stop offset="0" stop-opacity=".658824"/><stop offset="1" stop-color="#5c5c5c"/></linearGradient><radialGradient id="h" cx="-1.473815" cy="-42.064499" gradientTransform="matrix(-2.8642857 .00000019 -.00000015 -2.1857141 8.778565 -80.012447)" gradientUnits="userSpaceOnUse" r="10" xlink:href="#f"/><radialGradient id="i" cx="-1.473815" cy="-42.064499" gradientTransform="matrix(-.00000019 -2.8642857 2.1857141 -.00000015 104.01244 8.778566)" gradientUnits="userSpaceOnUse" r="10" xlink:href="#f"/><g stroke-linejoin="round" stroke-width=".750002" transform="matrix(1.33333 0 0 1.33333 .00004 .00004)"><g stroke-linecap="round"><path d="m14.625006 10.124995h3.75001v9.000024h-3.75001z" fill="url(#e)" stroke="#000" stroke-opacity=".6" stroke-width=".750002"/><path d="m7.8749897 7.1249879 3.7500093-.0000001v12.0000312h-3.7500093z" fill="url(#a)" stroke="#000" stroke-opacity=".6" stroke-width=".750002"/><g fill="none"><path d="m8.5871019 7.8749897h2.2865861v10.5000263h-2.2500055z" opacity=".7" stroke="url(#d)" stroke-width=".749992"/><path d="m15.373699 10.874997h2.250007v7.500019h-2.250007z" opacity=".7" stroke="url(#b)" stroke-width=".750002"/><path d="m2.6249766 19.124967v.750053c6.333334-.01 12.4167144.01 18.7500464 0v-.750002h-18.7500464z" stroke="url(#h)"/><path d="m4.8750332 2.6249766h-.7480528-.002c.01 6.3333345-.00999 12.4167144 0 18.7500464h.7500018v-18.7500464z" stroke="url(#i)"/></g></g><g fill="#fcaf3e" stroke="#a62100" stroke-miterlimit="0" stroke-opacity=".501961"><path d="m7.1249879 2.624977 12.7500321-.0000004v1.5000037l-12.7500321.0000004z" stroke-width=".750002"/><path d="m7.1249878 21.375023h12.7500322v1.500004h-12.7500322z"/><path d="m2.2499756 4.4999812v12.7500318h-1.50000398v-12.7500318z"/></g></g></svg>