<svg height="32" viewBox="0 0 8.4666665 8.4666669" width="32" xmlns="http://www.w3.org/2000/svg" xmlns:xlink="http://www.w3.org/1999/xlink"><linearGradient id="a" gradientTransform="matrix(.01210979 0 0 .00217892 .385677 295.40734)" gradientUnits="userSpaceOnUse" x1="302.85715" x2="302.85715" y1="366.64789" y2="609.50507"><stop offset="0" stop-opacity="0"/><stop offset=".5"/><stop offset="1" stop-opacity="0"/></linearGradient><radialGradient id="b" cx="605.71429" cy="486.64789" gradientTransform="matrix(-.00414422 0 0 .00217892 4.336406 295.40735)" gradientUnits="userSpaceOnUse" r="117.14286" xlink:href="#c"/><linearGradient id="c"><stop offset="0"/><stop offset="1" stop-opacity="0"/></linearGradient><radialGradient id="d" cx="605.71429" cy="486.64789" gradientTransform="matrix(.00414422 0 0 .00217892 5.188594 295.40735)" gradientUnits="userSpaceOnUse" r="117.14286" xlink:href="#c"/><linearGradient id="e" gradientTransform="matrix(.17386895 0 0 .16672029 .589651 288.24504)" gradientUnits="userSpaceOnUse" x1="25.132275" x2="25.132275" y1=".985206" y2="47.013336"><stop offset="0" stop-color="#f4f4f4"/><stop offset="1" stop-color="#dbdbdb"/></linearGradient><linearGradient id="f" gradientTransform="matrix(.56756757 0 0 .72972971 2.378382 -2.513506)" gradientUnits="userSpaceOnUse" x1="23.999992" x2="23.999992" y1="6.185175" y2="41.814808"><stop offset="0" stop-color="#fff"/><stop offset="0" stop-color="#fff" stop-opacity=".235294"/><stop offset=".99999994" stop-color="#fff" stop-opacity=".156863"/><stop offset="1" stop-color="#fff" stop-opacity=".392157"/></linearGradient><linearGradient id="g" gradientTransform="matrix(.53064141 0 0 .58970049 39.269607 -1.791918)" gradientUnits="userSpaceOnUse" x1="-51.786404" x2="-51.786404" y1="50.786446" y2="2.906247"><stop offset="0" stop-opacity=".317829"/><stop offset="1" stop-opacity=".24031"/></linearGradient><linearGradient id="h"><stop offset="0" stop-color="#737373"/><stop offset=".26238" stop-color="#636363"/><stop offset=".704952" stop-color="#4b4b4b"/><stop offset="1" stop-color="#3f3f3f"/></linearGradient><radialGradient id="i" cx="13.121623" cy="2.297964" gradientTransform="matrix(-3.1264132 .00000016 -.00000008 -4.0196743 44.506426 298.72691)" gradientUnits="userSpaceOnUse" r="1.803589" xlink:href="#h"/><radialGradient id="j" cx="13.279094" cy="1.771632" gradientTransform="matrix(-4.7258213 -.00000132 .00000148 -5.7998719 66.237434 298.50077)" gradientUnits="userSpaceOnUse" r="1.25" xlink:href="#h"/><g transform="translate(0 -288.53332)"><g stroke-width=".268513"><path d="m1.0740582 291.41664h-.2724458v-.74434l.00295-.13668.00492-.14946c-.050477.0505-.0753224.0836-.0949888.0994l-.16519899.13271-.14651505-.18289.4027689-.36875h.26851074z" fill="#fff" opacity=".35"/><path d="m1.3425708 294.82908h-.93586067v-.21142c.19870533-.15655.38244687-.33385.57032697-.50032.032778-.0426.056377-.082.070799-.11801.014422-.036.021632-.0734.021632-.11209 0-.0576-.016061-.10067-.048183-.12882-.031466-.0282-.073749-.0423-.1268486-.0423-.055722 0-.1098043.0128-.16224813.0384-.0524439.0256-.10718217.062-.16421486.10914l-.1651983-.19565c.0707993-.0603.12947077-.10292.17601473-.12783.0465439-.0249.0973489-.044.15241498-.057.0550661-.0138.11668758-.0206.18486458-.0206.08981 0 .1691313.0163.2379641.0491.068831.0328.1222597.0786.1602814.13766.038021.059.057033.12652.057033.20256 0 .0662-.011799.1285-.035401.18684-.022945.0575-.059.11701-.1081655.17799-.048511.061-.1343873.14781-.2576305.26057l-.084054.0764v.0138h.4564737z" fill="#fff" opacity=".35"/><path d="m1.0661958 291.17915h-.2724458v-.74434l.00295-.13668.00492-.14946c-.050477.0505-.0753224.0836-.0949888.0994l-.16519899.13271-.14651505-.18289.40276893-.36875h.26851071z" fill="url(#j)"/><path d="m1.3347084 294.59159h-.93586071v-.21142c.19870533-.15655.38244691-.33385.57032701-.50032.032778-.0426.056377-.082.070799-.11801.014422-.036.021632-.0734.021632-.11209 0-.0576-.016061-.10067-.048183-.12882-.031466-.0282-.073749-.0423-.1268486-.0423-.055722 0-.1098043.0128-.16224817.0384-.0524439.0256-.10718217.062-.16421486.10914l-.1651983-.19565c.0707993-.0603.12947077-.10292.17601473-.12783.0465439-.0249.0973489-.044.15241498-.057.0550661-.0138.11668762-.0206.18486462-.0206.08981 0 .1691313.0163.2379641.0491.068831.0328.1222597.0786.1602814.13766.038021.059.057033.12652.057033.20256 0 .0662-.011799.1285-.035401.18684-.022945.0575-.059.11701-.1081655.17799-.048511.061-.1343873.14781-.2576305.26057l-.084054.0764v.0138h.4564737z" fill="url(#i)"/></g><g stroke-width=".264583"><path d="m1.8388513 296.20624h5.8472972v.52917h-5.8472972z" fill="url(#a)" opacity=".15"/><path d="m1.8388512 296.20626v.52914c-.2134169.001-.5159381-.11855-.5159381-.2646s.2381571-.26454.5159381-.26454z" fill="url(#b)" opacity=".15"/><path d="m7.6861487 296.20626v.52914c.2134167.001.5159381-.11855.5159381-.2646s-.2381573-.26454-.5159381-.26454z" fill="url(#d)" opacity=".15"/><path d="m1.7197917 288.66561c1.3944801 0 6.0854197.00049 6.0854197.00049l.0000075 7.67244s-4.0569513 0-6.0854272 0c0-2.55764 0-5.11529 0-7.67293z" fill="url(#e)" stroke-width=".275319"/></g><g fill="none" stroke-linejoin="round" transform="matrix(.26458333 0 0 .26458333 .529167 288.53332)"><path d="m26.5 28.5h-21v-27h21z" stroke="url(#f)" stroke-linecap="round"/><path d="m4.499961.499944c5.27048 0 23.000054.002 23.000054.002l.000024 28.998112s-15.333385 0-23.000078 0c0-9.666722 0-19.333346 0-28.999956z" stroke="url(#g)" stroke-width=".999922"/></g><g fill="#545454"><path d="m2.3812499 290.38541h4.7624998v.26458h-4.7624998z"/><path d="m2.38125 293.82499h4.7624998v.26458h-4.7624998z"/></g></g></svg>