<?xml version="1.0" encoding="UTF-8" standalone="no"?>
<svg
   xmlns:dc="http://purl.org/dc/elements/1.1/"
   xmlns:cc="http://creativecommons.org/ns#"
   xmlns:rdf="http://www.w3.org/1999/02/22-rdf-syntax-ns#"
   xmlns:svg="http://www.w3.org/2000/svg"
   xmlns="http://www.w3.org/2000/svg"
   xmlns:xlink="http://www.w3.org/1999/xlink"
   xmlns:sodipodi="http://sodipodi.sourceforge.net/DTD/sodipodi-0.dtd"
   xmlns:inkscape="http://www.inkscape.org/namespaces/inkscape"
   height="32"
   width="32"
   version="1.1"
   id="svg1342"
   sodipodi:docname="managebreakpoints.svg"
   inkscape:version="0.92.3 (unknown)">
  <metadata
     id="metadata1348">
    <rdf:RDF>
      <cc:Work
         rdf:about="">
        <dc:format>image/svg+xml</dc:format>
        <dc:type
           rdf:resource="http://purl.org/dc/dcmitype/StillImage" />
      </cc:Work>
    </rdf:RDF>
  </metadata>
  <defs
     id="defs1346" />
  <sodipodi:namedview
     pagecolor="#ffffff"
     bordercolor="#666666"
     borderopacity="1"
     objecttolerance="10"
     gridtolerance="10"
     guidetolerance="10"
     inkscape:pageopacity="0"
     inkscape:pageshadow="2"
     inkscape:window-width="1366"
     inkscape:window-height="706"
     id="namedview1344"
     showgrid="false"
     inkscape:zoom="7.375"
     inkscape:cx="-1.4237288"
     inkscape:cy="14.915254"
     inkscape:window-x="0"
     inkscape:window-y="0"
     inkscape:window-maximized="1"
     inkscape:current-layer="svg1342" />
  <linearGradient
     id="a">
    <stop
       offset="0"
       stop-color="#fff"
       id="stop1241" />
    <stop
       offset=".50775999"
       stop-color="#fff"
       stop-opacity=".235294"
       id="stop1243" />
    <stop
       offset=".83456999"
       stop-color="#fff"
       stop-opacity=".156863"
       id="stop1245" />
    <stop
       offset="1"
       stop-color="#fff"
       stop-opacity=".392157"
       id="stop1247" />
  </linearGradient>
  <linearGradient
     id="b"
     gradientTransform="matrix(.67567564 0 0 .67567563 -32.468591 -1.133268)"
     gradientUnits="userSpaceOnUse"
     x1="71.204002"
     x2="71.204002"
     xlink:href="#a"
     y1="6.2376"
     y2="44.341" />
  <linearGradient
     id="c"
     gradientTransform="matrix(.35135134 0 0 -.35135134 -9.203668 24.909301)"
     gradientUnits="userSpaceOnUse"
     x1="71.204002"
     x2="71.204002"
     xlink:href="#a"
     y1="6.2376"
     y2="44.341" />
  <radialGradient
     id="d"
     cx="23.896"
     cy="3.99"
     gradientTransform="matrix(0 .64502634 -.85142336 0 19.397182 -5.326475)"
     gradientUnits="userSpaceOnUse"
     r="20.396999">
    <stop
       offset="0"
       stop-color="#f8b17e"
       id="stop1252" />
    <stop
       offset=".26238"
       stop-color="#e35d4f"
       id="stop1254" />
    <stop
       offset=".66093999"
       stop-color="#c6262e"
       id="stop1256" />
    <stop
       offset="1"
       stop-color="#690b54"
       id="stop1258" />
  </radialGradient>
  <linearGradient
     id="e"
     gradientTransform="matrix(.27026349 0 0 .27026353 9.513676 9.513676)"
     gradientUnits="userSpaceOnUse"
     x1="7.0776"
     x2="7.0776"
     y1="3.0816"
     y2="45.368999">
    <stop
       offset="0"
       stop-color="#791235"
       id="stop1261" />
    <stop
       offset="1"
       stop-color="#c7321f"
       id="stop1263" />
  </linearGradient>
  <linearGradient
     id="f"
     gradientTransform="matrix(.67567564 0 0 .67567563 -32.468591 -1.133268)"
     gradientUnits="userSpaceOnUse"
     x1="71.204002"
     x2="71.204002"
     xlink:href="#b"
     y1="6.2376"
     y2="44.341" />
  <radialGradient
     id="g"
     cx="23.896"
     cy="3.99"
     gradientTransform="matrix(0 1.5835582 -2.0902688 0 24.340178 -36.357109)"
     gradientUnits="userSpaceOnUse"
     r="20.396999">
    <stop
       offset="0"
       stop-color="#fff"
       id="stop1267" />
    <stop
       offset=".26238"
       stop-color="#ddd"
       id="stop1269" />
    <stop
       offset=".66093999"
       stop-color="#abacae"
       id="stop1271" />
    <stop
       offset="1"
       stop-color="#89898b"
       id="stop1273" />
  </radialGradient>
  <linearGradient
     id="h"
     gradientTransform="matrix(.66350462 0 0 .66350472 .075887 .075888)"
     gradientUnits="userSpaceOnUse"
     x1="18.379"
     x2="18.379"
     y1="44.98"
     y2="3.0816">
    <stop
       offset="0"
       stop-color="#505050"
       id="stop1276" />
    <stop
       offset="1"
       stop-color="#aaa"
       id="stop1278" />
  </linearGradient>
  <linearGradient
     id="i">
    <stop
       offset="0"
       id="stop1281" />
    <stop
       offset="1"
       stop-opacity="0"
       id="stop1283" />
  </linearGradient>
  <radialGradient
     id="j"
     cx="62.625"
     cy="4.625"
     gradientTransform="matrix(1.5058824 0 0 .37647 -78.305888 26.258824)"
     gradientUnits="userSpaceOnUse"
     r="10.625"
     xlink:href="#i" />
  <linearGradient
     id="k"
     gradientTransform="matrix(.24324324 0 0 .24324324 -1.448693 9.832024)"
     gradientUnits="userSpaceOnUse"
     x1="71.204002"
     x2="71.204002"
     xlink:href="#b"
     y1="6.2376"
     y2="44.341" />
  <linearGradient
     id="l">
    <stop
       offset="0"
       stop-color="#fff"
       id="stop1288" />
    <stop
       offset="1"
       stop-color="#fff"
       stop-opacity="0"
       id="stop1290" />
  </linearGradient>
  <linearGradient
     id="m"
     gradientUnits="userSpaceOnUse"
     x1="68.313301"
     x2="68.313301"
     xlink:href="#l"
     y1="52.925316"
     y2="65.922028" />
  <linearGradient
     id="n"
     gradientUnits="userSpaceOnUse"
     x1="37.788918"
     x2="40.779759"
     xlink:href="#l"
     y1="27.894802"
     y2="32.102356" />
  <linearGradient
     id="o"
     gradientTransform="matrix(1.1811195,0,0,1.1804503,-332.45814,-53.518446)"
     gradientUnits="userSpaceOnUse"
     x1="302.29202"
     x2="308.64914"
     y1="58.442768"
     y2="60.767513">
    <stop
       offset="0"
       stop-color="#abacae"
       id="stop1295" />
    <stop
       offset="1"
       stop-color="#fafafa"
       id="stop1297" />
  </linearGradient>
  <linearGradient
     id="p"
     gradientUnits="userSpaceOnUse"
     x1="39.706413"
     x2="41.641293"
     y1="28.004978"
     y2="31.442352">
    <stop
       offset="0"
       stop-color="#d4d4d4"
       id="stop1300" />
    <stop
       offset="1"
       stop-color="#d4d4d4"
       stop-opacity="0"
       id="stop1302" />
  </linearGradient>
  <linearGradient
     id="q"
     gradientUnits="userSpaceOnUse"
     x1="38.832764"
     x2="40.777378"
     y1="28.151825"
     y2="31.460476">
    <stop
       offset="0"
       stop-color="#555761"
       id="stop1305" />
    <stop
       offset="1"
       stop-color="#555761"
       stop-opacity="0"
       id="stop1307" />
  </linearGradient>
  <radialGradient
     id="r"
     cx="605.71429"
     cy="486.64789"
     gradientTransform="matrix(0.02303995,0,0,0.01470022,26.360882,21.040176)"
     gradientUnits="userSpaceOnUse"
     r="117.14286"
     xlink:href="#i" />
  <clipPath
     id="s">
    <path
       d="m27.728118 6.9581596c-.203924.05238-.393807.168814-.535156.335938-.282223.333582-.330464.814213-.107422 1.199218.000337.000581-.000338.0014 0 .002l2.648438 4.7480464c.09352.167248.07541.458328-.242188.921876-.3199.466906-.90081.987788-1.658203 1.40039-.761111.414611-1.51377.629239-2.082031.648438-.569006.01928-.846458-.130557-.939453-.296875l-2.667969-4.78125c-.164708-.29364-.468451-.491106-.796875-.529297-.328559-.03816-.665886.07794-.898438.333984-.116266.125838-.206651.282651-.25.462891a.57980845.57980845 0 0 0 0 .0039c-.545206 2.348225-.308221 4.997126.763672 6.914063 1.421915 2.542922 4.33284 3.746753 7.195313 3.330078 1.008326.348456 2.378214 1.105136 4.044922 2.759765l1.277343 1.267578a.57980845.57980845 0 0 0 .408204.167969h4.945312a.57980845.57980845 0 0 0 .580078-.580118v-3.236328a.57980845.57980845 0 0 0 -.171875-.41211l-2.119141-2.103515c-1.492289-1.481461-2.251316-2.718752-2.648437-3.681641.315556-1.513087.169512-3.117028-.628906-4.544922-1.071273-1.9158004-3.207494-3.5016154-5.498047-4.2968754-.19838-.07131-.414221-.08581-.619141-.0332z"
       id="path1311" />
  </clipPath>
  <path
     d="m32 28c0 2.2091-7.1634 4-16 4s-16-1.791-16-4c0-2.2091 7.1634-4 16-4s16 1.7909 16 4z"
     fill="url(#j)"
     fill-rule="evenodd"
     opacity=".3"
     id="path1314" />
  <g
     stroke-linecap="round"
     stroke-linejoin="round"
     id="g1328">
    <path
       d="m16 2.5018c-7.4478 0-13.498 6.0503-13.498 13.498 0 7.4478 6.0503 13.498 13.498 13.498 7.4478 0 13.498-6.0503 13.498-13.498 0-7.4478-6.0503-13.498-13.498-13.498z"
       fill="url(#g)"
       stroke="url(#h)"
       stroke-width="1.003654"
       id="path1316" />
    <path
       d="m28.5 16c0 6.903-5.597 12.5-12.5 12.5-6.9035 0-12.5-5.597-12.5-12.5 0-6.9039 5.5965-12.5 12.5-12.5 6.903 0 12.5 5.5961 12.5 12.5z"
       fill="none"
       opacity=".8"
       stroke="url(#f)"
       id="path1318" />
    <path
       d="m16 10.502c-3.0337 0-5.4982 2.4645-5.4982 5.4982s2.4645 5.4982 5.4982 5.4982 5.4982-2.4645 5.4982-5.4982-2.4645-5.4982-5.4982-5.4982z"
       fill="url(#d)"
       stroke="url(#e)"
       stroke-width="1.003654"
       id="path1320" />
    <g
       fill="none"
       id="g1326">
      <path
         d="m22.5 16c0-3.59-2.9104-6.5002-6.4999-6.5002-3.5899 0-6.5001 2.9103-6.5001 6.5002 0 3.5898 2.9102 6.4998 6.5001 6.4998 3.5896 0 6.4999-2.91 6.4999-6.4998z"
         opacity=".5"
         stroke="url(#c)"
         id="path1322" />
      <path
         d="m20.500001 16c0 2.485081-2.01492 4.500001-4.5 4.500001-2.48526 0-4.500001-2.01492-4.500001-4.500001 0-2.485403 2.014741-4.5 4.500001-4.5 2.48508 0 4.5 2.014597 4.5 4.5z"
         opacity=".5"
         stroke="url(#k)"
         id="path1324" />
    </g>
  </g>
  <path
     d="m78.338799 64.349724a11.424408 11.424408 0 1 1 -22.848816 0 11.424408 11.424408 0 1 1 22.848816 0z"
     fill="url(#m)"
     opacity=".4"
     transform="matrix(.26259566 0 0 .26259566 -1.571429 -1.897958)"
     id="path1330" />
  <g
     clip-path="url(#s)"
     transform="translate(-7.4136651,6.1531279)"
     id="g1340">
    <path
       clip-path="none"
       d="m 40.246148,26.430102 v 3.569856 c 1.1865,0.0067 2.86838,-0.799823 2.86838,-1.785158 0,-0.985333 -1.324045,-1.784697 -2.86838,-1.784698 z"
       id="path1332"
       inkscape:connector-curvature="0"
       style="opacity:0.3;fill:url(#r)" />
    <path
       d="m 20.876076,11.330901 c -0.05457,0.05832 -0.09378,0.129 -0.112443,0.206591 -0.513929,2.213521 -0.270961,4.756837 0.703841,6.500138 1.331263,2.380803 4.103906,3.516797 6.81891,3.036248 1.109425,0.373022 2.581053,1.194238 4.325283,2.925828 l 21.774977,21.617245 4.1023,-4.072767 L 36.713979,19.92694 c -1.572378,-1.560968 -2.397496,-2.899079 -2.820136,-3.955724 0.366691,-1.460725 0.217303,-3.020265 -0.554323,-4.400246 -0.9744,-1.7425584 -3.019036,-3.2833524 -5.185918,-4.0347214 -0.185943,-0.06799 -0.390726,-0.01605 -0.5172,0.133486 -0.126486,0.149504 -0.148467,0.363933 -0.04925,0.534437 l 2.653019,4.7549724 c 0.238303,0.426154 0.113978,0.974273 -0.270098,1.534845 -0.387715,0.565884 -1.032795,1.131308 -1.858185,1.580953 -0.825555,0.449716 -1.650969,0.696454 -2.341049,0.719768 -0.686006,0.02325 -1.225081,-0.167034 -1.463986,-0.594309 l -2.668964,-4.781367 c -0.07441,-0.132659 -0.205007,-0.219611 -0.356462,-0.237223 -0.151443,-0.01759 -0.304292,0.03683 -0.405325,0.14909 z"
       style="fill:url(#p);fill-rule:evenodd;stroke:url(#q);stroke-width:0.99999899;stroke-linecap:round;stroke-linejoin:round;stroke-dashoffset:0.3612;stroke-opacity:0.5"
       clip-path="none"
       id="path1334"
       inkscape:connector-curvature="0" />
    <path
       clip-path="none"
       d="m 28.00477,7.9387476 c 0.02209,0.0083 0.0083,0.03683 0,0.03695 l 2.657518,4.7586904 c 0.358506,0.641079 0.09992,1.398184 -0.332189,2.028899 -0.436412,0.636959 -1.112615,1.25411 -1.99314,1.733786 -0.882414,0.480703 -1.807963,0.711564 -2.583699,0.737782 -0.774034,0.02621 -1.500576,-0.194668 -1.845499,-0.81156 l -2.657519,-4.795579 c -0.01524,-0.0024 -0.03945,0.0024 -0.03697,0 0.02433,-0.02597 0.0047,0.01889 0,0.03695 -0.49007,2.110799 -0.235893,4.550459 0.66438,6.160475 1.231459,2.202319 3.802508,3.254206 6.348517,2.803569 2.534057,-0.453316 4.700809,-2.659755 5.241218,-4.75869 0.341237,-1.359383 0.195865,-2.820261 -0.51674,-4.094687 C 32.052819,10.16972 30.077728,8.6576926 28.004709,7.9388696 Z"
       id="path1336"
       inkscape:connector-curvature="0"
       style="fill:url(#o);fill-rule:evenodd" />
    <path
       d="m 29.333527,9.2667536 1.771679,3.2093504 c 0.503818,0.900923 0.158034,1.866726 -0.33219,2.582235 -0.49529,0.722899 -1.230514,1.365362 -2.177689,1.881342 -0.951155,0.518149 -1.925874,0.818732 -2.805159,0.848449 -0.880453,0.02977 -1.852243,-0.260566 -2.325329,-1.106672 L 21.61934,13.361441 c -0.07866,1.555962 0.09862,3.127549 0.70129,4.205355 1.110807,1.986545 3.453156,2.959822 5.794867,2.545345 0.171428,-0.03384 0.351856,-0.02096 0.51674,0.03689 1.269219,0.426735 2.856703,1.317985 4.687568,3.135571 L 55.096696,44.901598 57.791125,42.245585 36.014234,20.628588 c -1.650697,-1.638708 -2.548691,-3.084275 -3.026619,-4.279132 -0.07205,-0.186842 -0.08504,-0.395886 -0.03685,-0.590225 0.310481,-1.236868 0.198334,-2.578973 -0.442919,-3.725796 -0.586084,-1.048119 -1.82659,-2.008378 -3.174259,-2.7666814 z"
       style="fill:none;stroke:url(#n);stroke-linecap:round;stroke-linejoin:round;stroke-dashoffset:0.3612"
       clip-path="none"
       id="path1338"
       inkscape:connector-curvature="0" />
  </g>
</svg>
