<svg height="32" width="32" xmlns="http://www.w3.org/2000/svg" xmlns:xlink="http://www.w3.org/1999/xlink"><radialGradient id="a" cx="62.625" cy="4.625" gradientTransform="matrix(-2.07 0 0 .847 153.658 17.084)" gradientUnits="userSpaceOnUse" r="10.625"><stop offset="0"/><stop offset="1" stop-opacity="0"/></radialGradient><linearGradient id="b" gradientTransform="matrix(0 -.898 .964 0 -63.34 46.436)" gradientUnits="userSpaceOnUse" x1="61.748" x2="28.332" y1="87.465" y2="87.465"><stop offset="0" stop-color="#fff"/><stop offset=".233" stop-color="#fff" stop-opacity=".235"/><stop offset=".733" stop-color="#fff" stop-opacity=".157"/><stop offset="1" stop-color="#fff" stop-opacity=".392"/></linearGradient><linearGradient id="c" gradientTransform="matrix(0 .898 -.964 0 111.36 -30.416)" gradientUnits="userSpaceOnUse" x1="28.31" x2="61.726" y1="78.153" y2="78.153"><stop offset="0" stop-color="#fff"/><stop offset=".567" stop-color="#fff" stop-opacity=".235"/><stop offset=".867" stop-color="#fff" stop-opacity=".157"/><stop offset="1" stop-color="#fff" stop-opacity=".392"/></linearGradient><linearGradient id="d" gradientUnits="userSpaceOnUse" x1="19.628" x2="19.628" y1="-10.819" y2="26.928"><stop offset="0" stop-color="#64baff"/><stop offset="1" stop-color="#3689e6"/></linearGradient><path d="m2.002 21a21.998 9 0 0 0 43.996 0 21.998 9 0 1 0 -43.996 0z" fill="url(#a)" fill-rule="evenodd" opacity=".1" transform="matrix(.667 0 0 .667 0 9.823)"/><path d="m18.5-10.97v5.5h-2.5c-7.48 0-13.5 6.023-13.5 13.5 0 7.31 5.758 13.205 13 13.47v-5.125c-3.988-.705-7-4.147-7-8.344 0-4.708 3.79-8.5 8.5-8.5h1.5v5.5l11.5-8zm14 5.5v5.126c3.988.706 7 4.147 7 8.344 0 4.71-3.79 8.5-8.5 8.5h-1.5v-5.5l-11.5 8 11.5 8v-5.5h2.5c7.48 0 13.5-6.02 13.5-13.5 0-7.31-5.758-13.203-13-13.47z" display="block" fill="url(#d)" transform="matrix(.667 0 0 .667 0 9.823)"/><g fill="none"><path d="m12.34 2.507v3.668h-1.668c-4.99 0-9.005 4.016-9.005 9.005 0 4.875 3.84 8.807 8.672 8.984v-3.42c-2.66-.47-4.67-2.765-4.67-5.564 0-3.14 2.528-5.67 5.67-5.67h1v3.67l7.67-5.337z" opacity=".5" stroke="#002e99" stroke-linecap="round" stroke-linejoin="round" stroke-width="1.0005"/><path d="m19.5-9.063v3.594a.988.988 0 0 1 -1 1h-2.5c-6.95 0-12.5 5.552-12.5 12.5 0 6.42 4.798 11.46 11 12.22v-3.188c-4.016-1.1-7-4.666-7-9.03 0-5.24 4.26-9.5 9.5-9.5h1.5a.988.988 0 0 1 1 1v3.593l8.78-6.094z" display="block" opacity=".401" stroke="url(#b)" stroke-miterlimit="7" stroke-width="1.5" transform="matrix(.667 0 0 .667 0 9.823)"/><path d="m21.678 6.175v3.42c2.66.47 4.67 2.765 4.67 5.564 0 3.14-2.53 5.67-5.67 5.67h-1v-3.67l-7.672 5.336 7.67 5.336v-3.67l1.668.002c4.99 0 9.005-4.016 9.005-9.005 0-4.876-3.842-8.808-8.672-8.985z" opacity=".5" stroke="#002e99" stroke-linecap="round" stroke-linejoin="round" stroke-width="1.0005"/><path d="m28.52 25.082v-3.592a.988.988 0 0 1 1-1h2.5c6.95 0 12.5-5.552 12.5-12.5 0-6.42-4.797-11.46-11-12.22v3.187c4.017 1.102 7 4.667 7 9.032 0 5.238-4.26 9.5-9.5 9.5h-1.5a.988.988 0 0 1 -1-1v-3.595l-8.78 6.094z" display="block" opacity=".401" stroke="url(#c)" stroke-miterlimit="7" stroke-width="1.5" transform="matrix(.667 0 0 .667 0 9.823)"/></g></svg>