<svg height="32" width="32" xmlns="http://www.w3.org/2000/svg" xmlns:xlink="http://www.w3.org/1999/xlink"><radialGradient id="a" cx="24.837" cy="36.421" gradientTransform="matrix(-.26533 0 0 -.2844 24.134 24.31)" gradientUnits="userSpaceOnUse" r="15.645" xlink:href="#b"/><linearGradient id="b"><stop offset="0"/><stop offset="1" stop-opacity="0"/></linearGradient><linearGradient id="c" gradientTransform="matrix(-.4583 0 0 .4267 28.575 3.756)" gradientUnits="userSpaceOnUse" x1="7.493" x2="53.984" y1="17.983" y2="18.374"><stop offset="0" stop-color="#f0c1ff"/><stop offset=".262" stop-color="#c5a3f2"/><stop offset=".701" stop-color="#7a36b1"/><stop offset="1" stop-color="#4c2d81"/></linearGradient><linearGradient id="d" gradientTransform="matrix(0 -.5165 -.5545 0 48.816 27.238)" gradientUnits="userSpaceOnUse" x1="30.182" x2="30.546" y1="46.971" y2="66.11"><stop offset="0" stop-color="#fff"/><stop offset=".45" stop-color="#fff" stop-opacity=".235"/><stop offset=".65" stop-color="#fff" stop-opacity=".157"/><stop offset="1" stop-color="#fff" stop-opacity=".392"/></linearGradient><linearGradient id="e" gradientTransform="matrix(.0437 0 0 .022 .02 16.122)" gradientUnits="userSpaceOnUse" x1="302.857" x2="302.857" y1="366.648" y2="609.505"><stop offset="0" stop-opacity="0"/><stop offset=".5"/><stop offset="1" stop-opacity="0"/></linearGradient><radialGradient id="f" cx="605.714" cy="486.648" gradientTransform="matrix(.0437 0 0 .022 .026 16.122)" gradientUnits="userSpaceOnUse" r="117.143" xlink:href="#b"/><radialGradient id="g" cx="605.714" cy="486.648" gradientTransform="matrix(-.0437 0 0 .022 31.614 16.122)" gradientUnits="userSpaceOnUse" r="117.143" xlink:href="#b"/><linearGradient id="h" gradientTransform="matrix(.7677 0 0 .8306 -3.372 -5.304)" gradientUnits="userSpaceOnUse" x1="25" x2="25" y1="17.829" y2="8.197"><stop offset="0" stop-color="#cdcdcd"/><stop offset="1" stop-color="#fff"/></linearGradient><path d="m5.62 24.185 20.937.15-.18 5.17h-21.114z" fill="url(#e)" opacity=".236"/><path d="m26.557 24.334-.18 5.172c2.253.01 5.443-1.195 5.443-2.667 0-1.473-6.593-5.117-5.262-2.506z" fill="url(#f)" opacity=".236"/><path d="m5.62 24.185-.357 5.32c-2.253.011-5.443-1.193-5.443-2.665 0-1.473 2.867-2.655 5.798-2.655z" fill="url(#g)" opacity=".236"/><path d="m6.212 2.526c-1.477.002-2.664 1.19-2.666 2.667l-.036 22.325 24.977-.013v-22.328c0-1.478-1.22-2.677-2.697-2.675z" fill="url(#h)" stroke="#8c8c8c"/><path d="m27.37 8.008.13-2.828c.035-.738-.813-1.553-1.552-1.552l-19.642.012c-.74 0-1.708.94-1.708 2.334v2.666" fill="none" opacity=".8" stroke="#fff"/><path d="m4.036 10.008h24l-.036 16.992h-24z" fill="#fff"/><path d="m4 9.498h24" fill="none" stroke="#a0a0a0"/><path d="m21 5h1v1h-1zm2 0h1v1h-1zm2 0h1v1h-1z" fill="#808080" opacity=".6"/><path d="m4 10.513h24" fill="none" opacity=".05" stroke="#000"/><path d="m18.55 16.985-6.55-5.473 6.553-5.46v3.508l4.793.02v3.847l-4.792-.02z" display="block" fill="url(#c)" transform="matrix(0 -1.0476 1.0476 0 9.463 37.953)"/><path d="m14.548 13.913c0-5.933 7.147-5.895 7.147.037 0 2.458-.882 4.43-3.174 4.43-2.29 0-3.972-2.01-3.972-4.467z" fill="url(#a)" fill-rule="evenodd" opacity=".141" transform="matrix(0 -1.0476 1.0476 0 9.463 37.953)"/><path d="m27.255 18.518-5.73 6.864-5.72-6.864h3.673l.022-5.018h4.027l-.02 5.018z" style="stroke-miterlimit:5.5;opacity:.5;fill:none;stroke:#6326b9;stroke-width:.999997;stroke-linejoin:round"/><path d="m17.606 15.133-4.102-3.62 4.102-3.288.074 2.426 4.66-.01.058 1.832c-1.6.01.96-.117-4.84-.11z" style="display:block;stroke-miterlimit:5.5;opacity:.401;fill:none;stroke-width:.955;stroke:url(#d)" transform="matrix(0 -1.0476 1.0476 0 9.463 37.953)"/><path d="m1 7v4h-1v-4zm30-1v5h-1v-5z" fill="#68b723"/><path d="m0 6h31v1h-31zm0 5h31v1h-31z" fill="#68b723"/><path d="m1 7h29v4h-29z" fill="#d1ff82" opacity=".52"/><path d="m1 7h29v1h-29z" fill="#fff" fill-opacity=".57" opacity=".52"/></svg>