<svg height="32" width="32" xmlns="http://www.w3.org/2000/svg" xmlns:xlink="http://www.w3.org/1999/xlink"><radialGradient id="a" cx="11.25" cy="19.031" gradientTransform="matrix(-1.4569812 0 0 .24804124 32.390864 21.778386)" gradientUnits="userSpaceOnUse" r="8.063"><stop offset="0"/><stop offset="1" stop-opacity="0"/></radialGradient><linearGradient id="b" gradientTransform="matrix(-1.00464 0 0 1 53.044 -17.992)" gradientUnits="userSpaceOnUse" x1="24.430784" x2="43.094093" y1="27.494453" y2="27.494453"><stop offset="0" stop-color="#fff"/><stop offset="0" stop-color="#fff" stop-opacity=".235"/><stop offset="1" stop-color="#fff" stop-opacity=".157"/><stop offset="1" stop-color="#fff" stop-opacity=".392"/></linearGradient><linearGradient id="c" gradientTransform="matrix(0 1 1 0 2 -16)" gradientUnits="userSpaceOnUse" x1="33.002415" x2="33.002415" y1="42.249779" y2=".999985"><stop offset="0" stop-color="#d1ff82"/><stop offset="1" stop-color="#68b723"/></linearGradient><linearGradient id="d" gradientTransform="matrix(-1.00464 0 0 1 53.044 -17.992)" gradientUnits="userSpaceOnUse" x1="16.218927" x2="42.347561" y1="26.11858" y2="26.07073"><stop offset="0" stop-color="#fff"/><stop offset=".2857143" stop-color="#fff" stop-opacity=".235"/><stop offset=".71428567" stop-color="#fff" stop-opacity=".157"/><stop offset="1" stop-color="#fff" stop-opacity=".392"/></linearGradient><path d="m4.253084 26.49841c0 2.66668 23.493832 2.66668 23.493832 0s-23.493832-2.66668-23.493832 0z" fill="url(#a)" opacity=".163" stroke-width=".610672"/><g transform="matrix(0 1 1 0 1 -1.01)"><path d="m24.077-6.427 17.428 14.472-17.428 14.457v-9.87l-16.572-.032v-9.055l16.572.034z" fill="url(#c)" transform="matrix(-.66667 0 0 .66667 32.51 10.165)"/><g fill="none"><path d="m8.988 5.035-.006 5.98 15.02.06v-6.005z" opacity=".6" stroke="url(#b)" stroke-width="1.5" transform="matrix(-.66667 0 0 .66667 32.51 10.165)"/><path d="m27.51 12.498-10.992.023v-6.666l-11.678 9.673 11.678 9.66v-6.668l10.992-.02z" opacity=".5" stroke="#206b00" stroke-width="1.000005"/><path d="m25.433-3.322v22.668l13.965-11.282z" opacity=".6" stroke="url(#d)" stroke-width="1.5" transform="matrix(-.66667 0 0 .66667 32.51 10.165)"/></g></g></svg>