<svg height="32" width="32" xmlns="http://www.w3.org/2000/svg" xmlns:xlink="http://www.w3.org/1999/xlink"><linearGradient id="a"><stop offset="0"/><stop offset="1" stop-opacity="0"/></linearGradient><radialGradient id="b" cx="24.837126" cy="36.421127" gradientTransform="matrix(-.52995454 0 0 -.35307735 37.022538 38.383286)" gradientUnits="userSpaceOnUse" r="15.644737" xlink:href="#a"/><linearGradient id="c" gradientTransform="matrix(0 -1 1 0 12.357245 32.000361)" gradientUnits="userSpaceOnUse" x1="21.110256" x2="1.935627" y1="6.002927" y2="6.002927"><stop offset="0" stop-color="#9bdb4d"/><stop offset="1" stop-color="#68b723"/></linearGradient><linearGradient id="d" gradientTransform="matrix(0 1.004639 -1 0 76.89723 -7.538205)" gradientUnits="userSpaceOnUse" x1="20.443369" x2="35.374104" y1="54.037033" y2="54.037033"><stop offset="0" stop-color="#fff"/><stop offset=".46875" stop-color="#fff" stop-opacity=".235294"/><stop offset="1" stop-color="#fff" stop-opacity=".156863"/><stop offset="1" stop-color="#fff" stop-opacity=".392157"/></linearGradient><linearGradient id="e" gradientTransform="matrix(0 -1.3333333 1.3333333 0 -3.306494 30.00048)" gradientUnits="userSpaceOnUse" x1="20.953228" x2="2.208504" y1="12.816877" y2="12.816877"><stop offset="0" stop-color="#64baff"/><stop offset="1" stop-color="#3689e6"/></linearGradient><radialGradient id="f" cx="24.837126" cy="36.421127" gradientTransform="matrix(-.71276299 0 0 -.47404571 28.563267 38.958534)" gradientUnits="userSpaceOnUse" r="15.644737" xlink:href="#a"/><linearGradient id="g" gradientTransform="matrix(0 1.2302448 1.6281652 0 -35.450701 -43.596158)" gradientUnits="userSpaceOnUse" x1="39.545444" x2="55.758137" y1="28.136501" y2="28.136501"><stop offset="0" stop-color="#fff"/><stop offset=".43483558" stop-color="#fff" stop-opacity=".235294"/><stop offset="1" stop-color="#fff" stop-opacity=".156863"/><stop offset="1" stop-color="#fff" stop-opacity=".392157"/></linearGradient><path d="m16.210779 25.523804c0-3.050715 3.712007-5.523802 8.290999-5.523802 4.578993 0 8.291 2.473087 8.291 5.523802s-3.712007 5.523802-8.291 5.523802c-4.578992 0-8.290999-2.473087-8.290999-5.523802z" fill="url(#b)" fill-rule="evenodd" opacity=".141176"/><path d="m16.513671 19.966085h.0039c0-.162386.06441-.29734.167969-.394532.0074-.0067.01451-.01441.02148-.02149l6.94923-7.891859c.09098-.0909.214106-.144532.349609-.144532.134536 0 .250868.05363.347657.144532l6.949218 7.891864c.007.0071.01412.01484.02148.02149.103564.09719.167969.232145.167969.394532 0 .301717-.215491.527343-.505858.527343h-3.988275c-.271008-.000189-.49805.237748-.49805.529297v7.97727c0 .285849-.214151.5-.5.5h-4.000001c-.285849 0-.5-.214151-.5-.5v-8.026103c-.02501-.267637-.241068-.480647-.496091-.480469h-3.990234c-.290366 0-.500003-.225626-.500003-.527343z" fill="url(#c)" stroke="#206b00" stroke-linecap="round" stroke-linejoin="round" stroke-opacity=".5"/><path d="m24.001985 12.705078 5.880629 6.796875h-2.882566c-.827239.000268-1.49778.670809-1.498048 1.498047h-.002v7.5h-2.987202v-7.5h-.002c-.000221-.827238-.670762-1.497779-1.498-1.498047h-2.883743z" fill="none" opacity=".6" stroke="url(#d)"/><path d="m-.6508784 21.693246c-.00058324-4.0962 4.992056-7.417023 11.1509904-7.417023 6.158934 0 11.151573 3.320823 11.15099 7.417023-.000583 4.095651-4.992881 7.415618-11.15099 7.415618-6.1581097 0-11.15040724-3.319967-11.1509904-7.415618z" fill="url(#f)" fill-rule="evenodd" opacity=".141176" stroke-width="1.343781"/><path d="m1.0182291 13.793375h.0052c0-.216514.08588-.396454.223958-.526042.0099-.0089.01935-.01921.02865-.02865l8.7578179-10.545975c.121306-.1212.285474-.192708.466145-.192708.179381 0 .334491.07151.463543.192708l8.765852 10.550622c.0093.0095.01883.01977.02864.02865.138086.129587.223959.309527.223959.526042 0 .402289-.287324.706625-.67448.706625h-5.132869c-.361344-.000252-.682229.313496-.682229.702229v10.635069c0 .381132-.267369.663081-.648501.662702l-4.6758559-.004647c-.381132-.000379-.668059-.28157-.668059-.662702v-10.700174c-.03335-.356849-.320035-.637361-.660066-.637124h-5.155038c-.387155 0-.666667-.304336-.666667-.706625z" fill="url(#e)" stroke="#002e99" stroke-linecap="round" stroke-linejoin="round" stroke-opacity=".501961"/><path d="m18.58789 13.5h-4.292968c-1.116292.000366-1.794692.780097-1.794922 1.5v10.5l-3.9924159-.0046v-10.5c0-.889641-.802201-1.5-1.666016-1.5h-4.474609l8.1328169-9.8589105z" fill="none" opacity=".5" stroke="url(#g)" stroke-width=".992"/></svg>