<svg height="32" width="32" xmlns="http://www.w3.org/2000/svg" xmlns:xlink="http://www.w3.org/1999/xlink"><radialGradient id="a" cx="11.25" cy="19.031" gradientTransform="matrix(-1.1179706 0 0 .24804124 24.120741 19.778386)" gradientUnits="userSpaceOnUse" r="8.063" xlink:href="#i"/><linearGradient id="b" gradientTransform="matrix(0 .66667 -.66667 0 31.23291 -.448012)" gradientUnits="userSpaceOnUse" x1="25.452497" x2="25.452497" y1="33.276909" y2="3.277061"><stop offset="0" stop-color="#55c1ec"/><stop offset="1" stop-color="#3689e6"/></linearGradient><linearGradient id="c" gradientTransform="matrix(.66976335 0 0 .66667 -2.796594 -1.776019)" gradientUnits="userSpaceOnUse" x1="24.512358" x2="44.560196" xlink:href="#j" y1="27.444498" y2="27.444498"/><linearGradient id="d" gradientTransform="matrix(.66976335 0 0 .66667 -2.796594 -1.776019)" gradientUnits="userSpaceOnUse" x1="23.942968" x2="43.813663" xlink:href="#k" y1="25.793644" y2="25.386868"/><radialGradient id="e" cx="11.25" cy="19.031" gradientTransform="matrix(-1.4569812 0 0 .24804124 27.91316 17.778386)" gradientUnits="userSpaceOnUse" r="8.063" xlink:href="#i"/><linearGradient id="f" gradientTransform="matrix(0 1 1 0 2 -16)" gradientUnits="userSpaceOnUse" x1="26.252451" x2="26.252451" y1="45.249763" y2=".249989"><stop offset="0" stop-color="#d1ff82"/><stop offset="1" stop-color="#68b723"/></linearGradient><linearGradient id="g" gradientTransform="matrix(-1.00464 0 0 1 53.044 -17.992)" gradientUnits="userSpaceOnUse" x1="18.824131" x2="43.094093" xlink:href="#j" y1="24.494469" y2="24.494469"/><linearGradient id="h" gradientTransform="matrix(-1.00464 0 0 1 53.044 -17.992)" gradientUnits="userSpaceOnUse" x1="16.96546" x2="43.094093" xlink:href="#k" y1="24.494469" y2="24.494469"/><radialGradient id="i" cx="11.25" cy="19.031" gradientTransform="matrix(-1.4569812 0 0 .24804124 27.91316 19.778386)" gradientUnits="userSpaceOnUse" r="8.063"><stop offset="0"/><stop offset="1" stop-opacity="0"/></radialGradient><linearGradient id="j" gradientTransform="matrix(-1.00464 0 0 1 53.044 -17.992)" gradientUnits="userSpaceOnUse" x1="24.430784" x2="43.094093" y1="27.494453" y2="27.494453"><stop offset="0" stop-color="#fff"/><stop offset=".15306343" stop-color="#fff" stop-opacity=".235"/><stop offset="1" stop-color="#fff" stop-opacity=".157"/><stop offset="1" stop-color="#fff" stop-opacity=".392"/></linearGradient><linearGradient id="k" gradientTransform="matrix(-1.00464 0 0 1 53.044 -17.992)" gradientUnits="userSpaceOnUse" x1="16.218927" x2="42.347561" y1="26.11858" y2="26.07073"><stop offset="0" stop-color="#fff"/><stop offset=".14285715" stop-color="#fff" stop-opacity=".235"/><stop offset=".71428567" stop-color="#fff" stop-opacity=".157"/><stop offset="1" stop-color="#fff" stop-opacity=".392"/></linearGradient><g transform="matrix(-1 0 0 1 23.001253 -.998118)"><path d="m-.22461986 22.49841c0 2.66668 23.49383186 2.66668 23.49383186 0s-23.49383186-2.66668-23.49383186 0z" fill="url(#e)" opacity=".163" stroke-width=".610672"/><g transform="matrix(0 1 1 0 -3.998748 -3.011882)"><path d="m24.077-6.427 17.428 14.472-17.428 14.457v-9.87l-16.572-.032v-9.055l16.572.034z" fill="url(#f)" transform="matrix(-.66667 0 0 .66667 32.51 10.165)"/><g fill="none"><path d="m8.988 5.035-.006 5.98 15.02.06v-6.005z" opacity=".6" stroke="url(#g)" stroke-width="1.5" transform="matrix(-.66667 0 0 .66667 32.51 10.165)"/><path d="m27.51 12.498-10.992.023v-6.666l-11.678 9.673 11.678 9.66v-6.668l10.992-.02z" opacity=".5" stroke="#206b00" stroke-width="1.000005"/><path d="m25.433-3.322v22.668l13.965-11.282z" opacity=".6" stroke="url(#h)" stroke-width="1.5" transform="matrix(-.66667 0 0 .66667 32.51 10.165)"/></g></g></g><g transform="matrix(-1 0 0 1 35.030063 5.45172)"><path d="m2.530063 24.49841c0 2.66668 18.027285 2.66668 18.027285 0s-18.027285-2.66668-18.027285 0z" fill="url(#a)" opacity=".163" stroke-width=".534929"/><g transform="matrix(0 1 1 0 -3.990342 -2.499912)"><path d="m20.498192 7.9596766-9.846704 7.5717444 9.846704 7.602276.042-5.549339 8.000645.0164.004-4.05001-8.000645-.01507z" fill="url(#b)" stroke-width=".66667"/><g fill="none" stroke-width="1.000005"><path d="m27.556162 14.544088v2l-7.504.01666.004-2.016664z" opacity=".6" stroke="url(#c)"/><path d="m28.548192 13.520405-7.94459-.01474-.046-5.5713053-9.905979 7.5966963 9.905979 7.624228.042-5.637306 7.94459.0177z" opacity=".5" stroke="#005485"/><path d="m19.594188 10.029687v11l-7.538026-5.485599z" opacity=".6" stroke="url(#d)"/></g></g></g></svg>