<svg height="32" viewBox="0 0 8.4666665 8.4666668" width="32" xmlns="http://www.w3.org/2000/svg" xmlns:xlink="http://www.w3.org/1999/xlink"><linearGradient id="a" gradientTransform="matrix(.11794 0 0 .11905 .807314 290.04869)" gradientUnits="userSpaceOnUse" x1="25.686329" x2="25.686329" y1="3.381795" y2="50.053478"><stop offset="0" stop-color="#fafafa"/><stop offset="1" stop-color="#e2e1de"/></linearGradient><linearGradient id="b" gradientTransform="matrix(.1347 0 0 .14642 .397314 289.77869)" gradientUnits="userSpaceOnUse" x1="24.060932" x2="24.060932" y1="14.080485" y2="41.185825"><stop offset="0" stop-color="#fff"/><stop offset="0" stop-color="#fff" stop-opacity=".235"/><stop offset=".74999923" stop-color="#fff" stop-opacity=".176471"/><stop offset=".74999923" stop-color="#fff"/><stop offset=".79999918" stop-color="#fff"/><stop offset=".79999918" stop-color="#fff" stop-opacity=".168627"/><stop offset="1" stop-color="#fff" stop-opacity=".157"/><stop offset="1" stop-color="#fff" stop-opacity=".392"/></linearGradient><path d="m1.118081.66145802h4.6430041c.2529692 0 .456623.23600848.456623.52916698v3.7041659c0 .2931585-.2036538.5291668-.456623.529167l-2.7183768.0000004-.9260416 1.5875-.9985857-.0000004c-.25296913-.0000001-.45662298-.2360085-.45662298-.529167v-5.2916659c0-.2931585.20365385-.52916698.45662298-.52916698z" style="fill:none;stroke:#a6a6a5;stroke-width:.265112;stroke-linecap:round;stroke-linejoin:round;stroke-dasharray:.530225 .530225"/><g transform="matrix(1.33333 0 0 1.33333 .96975 -387.00284)"><path d="m1.2144324 291.5427c-.1412217.00002-.25502376.11527-.25502376.25852v4.04705c0 .14324.11380206.25851.25502376.25851h.7371662l.396876-.99219 2.4808623-.0004h.042633c.1412216 0 .2550238-.11527.2550238-.25851l.0000002-3.05486c0-.14324-.1138022-.25853-.2550238-.25851z" fill="url(#a)"/><path d="m1.2570656 291.44349c-.2198692.00002-.39687592.17701-.39687592.39687v3.96876c0 .21987.17700672.39688.39687592.39688h.793752l.3980386-.99219 2.5789189-.0004c.1182292-.0686.198438-.19517.198438-.34222v-3.03122c0-.21986-.1770069-.39691-.396876-.39688zm.099219.19843 3.3738335-.00039c.164902 0 .297657.13275.297657.29766v.69453h-1.1902404l.0007739-.9918h-.199987l-.0007751.9918h-1.1890778l.0007759-.9918h-.1999891l-.0007751.9918-1.1898528.00039v-.69453c0-.1649.132755-.29766.297657-.29766zm3.6714905 1.19024v.99219h-1.1898529l-.0003969-.99219zm-3.9691475.00039 1.1898528-.00039.0003869.99219-1.1902397.00039zm1.3898411-.00039h1.1890778l.0003968.99219h-1.1890871zm2.5785313 1.19218v-.002h.0007751v.99219h-1.190628v-.99219zm-3.9683724.00039 1.1902404-.00039v.98986l-1.1902404.00039zm1.3902286-.00039h1.1890778v.98986h-1.1890778zm-.2375825 1.18947-.3119972.79375h-.5429919c-.164902 0-.297657-.13275-.297657-.29766v-.49532z" opacity=".286"/><path d="m1.1578466 291.74114 3.7707092-.0004v3.17502l-2.7112521.00038-.4036028.9922h-.6338016z" style="opacity:.5;fill:none;stroke-width:.201;stroke-linecap:round;stroke-linejoin:round;stroke:url(#b)"/></g></svg>