<svg height="32" width="32" xmlns="http://www.w3.org/2000/svg" xmlns:xlink="http://www.w3.org/1999/xlink"><linearGradient id="a" gradientTransform="matrix(0 1.2302448 -1.6281652 0 62.810872 -14.596158)" gradientUnits="userSpaceOnUse" x1="35.436977" x2="36.249825" y1="28.136501" y2="28.136501"><stop offset="0" stop-color="#fff"/><stop offset=".00000084" stop-color="#fff" stop-opacity=".235294"/><stop offset="1" stop-color="#fff" stop-opacity=".156863"/><stop offset="1" stop-color="#fff" stop-opacity=".392157"/></linearGradient><linearGradient id="b" gradientTransform="matrix(0 1.3333333 -1.3333333 0 30.666665 -.00048)" gradientUnits="userSpaceOnUse" x1="3.00036" x2="21.069368" y1="9.499999" y2="9.499999"><stop offset="0" stop-color="#64baff"/><stop offset="1" stop-color="#3689e6"/></linearGradient><linearGradient id="c"><stop offset="0" stop-color="#fff"/><stop offset="0" stop-color="#fff" stop-opacity=".235294"/><stop offset="1" stop-color="#fff" stop-opacity=".156863"/><stop offset="1" stop-color="#fff" stop-opacity=".392157"/></linearGradient><linearGradient id="d" gradientTransform="matrix(0 -1.004639 1 0 -37.964668 44.040337)" gradientUnits="userSpaceOnUse" x1="26.915476" x2="16.961653" xlink:href="#c" y1="57.037033" y2="57.037033"/><linearGradient id="e" gradientTransform="matrix(0 -1.004639 1 0 -59.964668 45.040337)" gradientUnits="userSpaceOnUse" x1="39.855446" x2="18.600533" xlink:href="#c" y1="75.964668" y2="75.964668"/><radialGradient id="f" cx="24.837126" cy="36.421127" gradientTransform="matrix(-.52995454 0 0 -.35307735 22.512547 21.835677)" gradientUnits="userSpaceOnUse" r="15.644737"><stop offset="0"/><stop offset="1" stop-opacity="0"/></radialGradient><path d="m1.059 8.976195a8.2909995 5.5238047 0 1 1 16.581999 0 8.2909995 5.5238047 0 0 1 -16.581999 0z" fill="url(#f)" fill-rule="evenodd" opacity=".141176" transform="matrix(-1.3449512 0 0 1.3426115 28.575293 11.641703)"/><path d="m13.148438 3.5c-.381133 0-.648438.2809774-.648438.6621094v10.6347656c0 .388733-.320297.703377-.681641.703125h-5.1328121c-.387156 0-.6757813.304742-.6757813.707031 0 .216515.0865234.395804.2246094.525391.00981.00888.0199969.019797.0292969.029297l9.2656251 10.541015c.129052.121198.28351.191407.462891.191407.18067 0 .34549-.070207.466796-.191407l9.265625-10.541015c.0093-.00944.017444-.020397.027344-.029297.138078-.129588.224609-.308877.224609-.525391h.00586c0-.402289-.280814-.707031-.667969-.707031h-5.154297c-.340031.000237-.626806-.27987-.660156-.636719v-10.7011716c0-.381132-.286837-.6621094-.667969-.6621094zm-6.898438 24c-.454566 0-.75.310354-.75.679688v2.666015c0 .369333.295434.654297.75.654297h19.5c.454564 0 .75-.284964.75-.654297v-2.666015c0-.369333-.295436-.679688-.75-.679688z" fill="url(#b)" stroke="#002e99" stroke-linecap="round" stroke-linejoin="round" stroke-opacity=".501961"/><g fill="none"><path d="m12 16.5-4.640625-.000002 8.640625 9.853518 8.587891-9.853516h-4.587891" opacity=".6" stroke="url(#d)"/><path d="m20 16.474609c-.875611 0-1.499791-.883384-1.5-1.536691v-10.437918h-5v10.231146c0 1.148768-.870013 1.755182-1.5 1.755182" opacity=".6" stroke="url(#e)"/><path d="m25.504002 28.495998v2.008004h-19.008001v-2.008004z" opacity=".5" stroke="url(#a)" stroke-width=".992"/></g></svg>