<svg height="32" width="32" xmlns="http://www.w3.org/2000/svg" xmlns:xlink="http://www.w3.org/1999/xlink"><linearGradient id="a" gradientTransform="matrix(-1.3333 0 0 1.3333 44.834858 -1.156926)" gradientUnits="userSpaceOnUse" x1="17.150999" x2="17.150999" y1="5.88" y2="17.211"><stop offset="0" stop-color="#90dbec"/><stop offset=".262" stop-color="#55c1ec"/><stop offset=".705" stop-color="#3689e6"/><stop offset="1" stop-color="#2b63a0"/></linearGradient><linearGradient id="b" gradientTransform="matrix(0 -.71624876 .76904744 0 -21.827476 35.995479)" gradientUnits="userSpaceOnUse" x1="40.958" x2="18.681" y1="46.971001" y2="46.971001"><stop offset="0" stop-color="#fff"/><stop offset=".45" stop-color="#fff" stop-opacity=".235"/><stop offset=".65" stop-color="#fff" stop-opacity=".157"/><stop offset="1" stop-color="#fff" stop-opacity=".392"/></linearGradient><radialGradient id="c" cx="6.703" cy="73.616" gradientTransform="matrix(1.96254 0 0 .3559 -.24 3.227)" gradientUnits="userSpaceOnUse" r="7.228"><stop offset="0" stop-opacity=".326"/><stop offset=".5" stop-opacity=".192"/><stop offset="1" stop-opacity="0"/></radialGradient><radialGradient id="d" cx="21.96" cy="-6.637" gradientTransform="matrix(-.00816 1.50586 -1.54218 -.00836 -1.94 -18.638)" gradientUnits="userSpaceOnUse" r="11.509"><stop offset="0" stop-color="#fff3cb"/><stop offset=".262" stop-color="#fdde76"/><stop offset=".661" stop-color="#f9c440"/><stop offset="1" stop-color="#e48b20"/></radialGradient><linearGradient id="e" gradientTransform="matrix(.52016 -.04737 .05115 .56654 -1.57 7.52)" gradientUnits="userSpaceOnUse" x1="27.261" x2="25.011" y1="11.249" y2="31.265"><stop offset="0" stop-color="#fff"/><stop offset=".334" stop-color="#fff" stop-opacity=".235"/><stop offset=".679" stop-color="#fff" stop-opacity=".157"/><stop offset="1" stop-color="#fff" stop-opacity=".392"/></linearGradient><path d="m10.44 10.395c-5.636.83-9.806 4.708-9.427 8.906.245 2.72 2.335 4.957 5.323 6.138l-1.246 4.851 5.517-3.984.038-.003c.68.032 1.365.043 2.075-.022 6.06-.55 10.665-4.576 10.267-8.98-.397-4.406-5.65-7.533-11.707-6.98-.284.025-.562.035-.84.075z" fill="url(#d)" fill-rule="evenodd" transform="matrix(1.2553 0 0 1.2553 .894 -9.342)"/><path d="m10.628 11.237c-4.83.702-9.086 3.826-8.75 8.057.225 2.84 2.873 4.77 5.627 5.665l-1.01 3.198 3.767-2.675c.583.025 1.694.07 2.302.015 4.598-.42 10.19-3.886 9.657-8.11-.537-4.273-5.637-6.716-10.873-6.216-.243.023-.482.03-.72.065z" fill="none" opacity=".8" stroke="url(#e)" stroke-width=".797" transform="matrix(1.2553 0 0 1.2553 .894 -9.342)"/><path d="m27.1 29.427c0 1.42-6.35 2.573-14.185 2.573s-14.185-1.152-14.185-2.573c0-1.42 6.35-2.572 14.185-2.572s14.186 1.152 14.186 2.572z" fill="url(#c)" opacity=".4" transform="matrix(1.2553 0 0 1.2553 .894 -9.342)"/><path d="m14 3.707c-7.075 1.043-12.31 5.91-11.835 11.18.308 3.412 2.932 6.22 6.683 7.703l-1.566 6.092 6.927-5.002.047-.004c.855.04 1.714.054 2.605-.027 7.605-.694 13.387-5.747 12.888-11.276-.5-5.53-7.092-9.455-14.697-8.763-.356.034-.705.046-1.053.097z" fill="none" opacity=".5" stroke="#956500" stroke-linejoin="round" stroke-width="1.000474"/><g transform="translate(0 10)"><path d="m21.504774 21.469175 9.19977-7.471813-9.202436-7.3491494v4.8638784h-7.999801l.004 4.997208h7.9998z" display="block" fill="url(#a)" stroke-width="1.3333"/><g fill="none" stroke-width=".999975"><path d="m22.838074 18.654579 5.777189-4.657217-5.779855-4.5865518v3.4345808h-7.9998l.004 2.330608h7.9998z" display="block" opacity=".401" stroke="url(#b)" stroke-miterlimit="7"/><path d="m21.504774 21.469175 9.19977-7.471813-9.202436-7.3491494v4.8638784h-7.999801l.004 4.997208h7.9998z" opacity=".5" stroke="#004372" stroke-linejoin="round"/></g></g></svg>