<svg height="32" width="32" xmlns="http://www.w3.org/2000/svg" xmlns:xlink="http://www.w3.org/1999/xlink"><radialGradient id="a" cx="8.716241" cy="10.334833" gradientTransform="matrix(-2.9089278 -.00000006 .00000005 -2.4646313 34.071156 29.368874)" gradientUnits="userSpaceOnUse" r="4.125231" xlink:href="#c"/><radialGradient id="b" cx="16" cy="23.462206" gradientTransform="matrix(-2.8700085 -.00000048 .00000048 -2.8700069 61.920125 89.336703)" gradientUnits="userSpaceOnUse" r="2.090587" xlink:href="#c"/><linearGradient id="c"><stop offset="0" stop-color="#737373"/><stop offset=".262" stop-color="#636363"/><stop offset=".705" stop-color="#4b4b4b"/><stop offset="1" stop-color="#3f3f3f"/></linearGradient><radialGradient id="d" cx="18.974" cy="3.907" gradientTransform="matrix(-3.6272 .1063 -.0955 -3.2996 87.195 11.86)" gradientUnits="userSpaceOnUse" r="5.235" xlink:href="#c"/><g stroke="#000" stroke-opacity=".49" stroke-width=".753"><path d="m18 5.066q-1.36 0-2.046 1.5-.68 1.488-.68 4.486 0 2.988.68 4.487.687 1.488 2.045 1.488 1.366 0 2.045-1.49.688-1.498.688-4.486 0-2.998-.688-4.487-.68-1.5-2.046-1.5zm0-1.557q2.184 0 3.333 1.936 1.158 1.927 1.158 5.606 0 3.67-1.157 5.606-1.15 1.928-3.334 1.928-2.186 0-3.343-1.928-1.15-1.936-1.15-5.606 0-3.68 1.15-5.606 1.157-1.935 3.343-1.935z" fill="url(#d)" transform="matrix(1.3335 0 0 1.3224 -.002 -.103)"/><path d="m17.286042 22.562123.199737.306264q-.186421.719056-.452738 1.531322-.253001.812266-.572581 1.637848-.306265.825582-.652476 1.637848-.332896.825582-.665792 1.571269h-1.837586q.199737-.812266.386159-1.691111.199738-.878846.372844-1.757691.186421-.86553.332896-1.691112.146474-.838898.253-1.544637z" fill="url(#b)" stroke="#000" stroke-opacity=".65098" transform="translate(-.157547 -.1235)"/><path d="m10.216241 24.39732h-2.3275279v-12.07405q0-.568657 0-1.216662.013225-.648005.026449-1.282785.0264494-.6480048.039674-1.2298867.0264491-.5951065.0396737-1.0447425-.224818.2380426-.3967376.4099622-.1719197.1719197-.3570639.3306147-.1719197.1586951-.3702885.3438394-.1983688.1719196-.4760852.4099622l-1.9572391 1.6001757-1.2695605-1.6266249 5.0650174-3.954152h1.9836886z" fill="url(#a)" stroke="#000" stroke-opacity=".65098" stroke-width="1" transform="translate(.283759 .10268)"/><g fill="#fff" stroke="none"><path d="m24.001953 4.537109v.00195c-1.943354 0-3.430411.8526978-4.458984 2.5585937-1.02235 1.6979616-1.533203 4.1697753-1.533203 7.4140633 0 .171697.0069.332612.0098.499999.05126-2.994887.555252-5.3060583 1.523438-6.9140623 1.028573-1.7058959 2.51563-2.5585937 4.458984-2.5585937v-.00195c1.941576 0 3.4219.8537724 4.443359 2.5605468.974922 1.608839 1.483436 3.9199212 1.535157 6.9140632.0029-.167387.0098-.328302.0098-.5 0-3.243407-.51546-5.7152198-1.544922-7.4140632-1.02153-1.7067776-2.501853-2.5605468-4.443429-2.5605468zm-15.486328.6289062-5.0644531 3.953125.484375.6210938 4.5800781-3.5742188h1.984375v-1zm-.2382812 3.4863282c-.014881.015756-.024534.02569-.039063.041016-.0000656.00148.0000659.00243 0 .00391-.00882.3879213-.02143.7965125-.039062 1.2285156-.00882.423187-.018527.8512-.027344 1.283203v1c.00882-.432003.018524-.860016.027344-1.283203.017633-.432003.030242-.840594.039062-1.2285156.017633-.3967418.030243-.7451688.039063-1.044926zm12.1035152 6.3593756c-.0028.171839-.01563.322126-.01563.5 0 2.634221.303683 4.612075.908204 5.933593.610742 1.311821 1.5193 1.96875 2.726562 1.96875 1.214374 0 2.122933-.657119 2.726562-1.970703.611633-1.320636.917969-3.297419.917969-5.93164 0-.177874-.01285-.328152-.01563-.5-.03857 2.373608-.332004 4.200163-.902344 5.43164-.60363 1.313584-1.512188 1.970703-2.726562 1.970703-1.207262 0-2.11582-.656929-2.726562-1.96875-.563751-1.232393-.854392-3.059587-.892579-5.433593z" opacity=".1"/><path d="m14.492188 22.439453c-.071018.470493-.156257.983704-.253907 1.542969-.09765.550388-.20775 1.114386-.332031 1.691406-.115404.585897-.239888 1.171915-.373047 1.757813-.124281.585896-.253561 1.149895-.386719 1.691406h.228516c.052289-.232092.107398-.451897.158203-.691406.133159-.585898.257643-1.171916.373047-1.757813.124281-.57702.234381-1.141018.332031-1.691406.09765-.559265.182889-1.072476.253907-1.542969h2.630859c.067395-.230421.148659-.477697.205078-.695312l-.199219-.304688z" opacity=".1"/></g></g></svg>