<svg height="32" viewBox="0 0 8.4666665 8.4666669" width="32" xmlns="http://www.w3.org/2000/svg" xmlns:xlink="http://www.w3.org/1999/xlink"><linearGradient id="a" gradientTransform="matrix(.17372 -.17457 .19434 .19338 -3.895 3.52)" gradientUnits="userSpaceOnUse" x1="23.576" x2="23.576" y1="25.357" y2="31.211"><stop offset="0" stop-color="#181818"/><stop offset=".135" stop-color="#dbdbdb"/><stop offset=".202" stop-color="#a4a4a4"/><stop offset=".27" stop-color="#fff"/><stop offset=".447" stop-color="#8d8d8d"/><stop offset=".571" stop-color="#959595"/><stop offset=".72" stop-color="#cecece"/><stop offset="1" stop-color="#181818"/></linearGradient><linearGradient id="b" gradientTransform="matrix(.1688 -.16963 .22744 .2263 -4.532 2.627)" gradientUnits="userSpaceOnUse" x1="30.038" x2="30.038" xlink:href="#c" y1="24.99" y2="30"/><linearGradient id="c"><stop offset="0" stop-color="#565656"/><stop offset=".5" stop-color="#9a9a9a"/><stop offset="1" stop-color="#545454"/></linearGradient><linearGradient id="d" gradientTransform="matrix(.1688 -.16963 .22744 .2263 -4.58 2.675)" gradientUnits="userSpaceOnUse" x1="30.038" x2="30.038" xlink:href="#e" y1="24.99" y2="30"/><linearGradient id="e"><stop offset="0" stop-color="#b1b1b1"/><stop offset=".5" stop-color="#fff"/><stop offset="1" stop-color="#8f8f8f"/></linearGradient><linearGradient id="f" gradientTransform="matrix(.1688 -.16963 .22744 .2263 -4.364 2.458)" gradientUnits="userSpaceOnUse" x1="30.038" x2="30.038" xlink:href="#c" y1="24.99" y2="30"/><linearGradient id="g" gradientTransform="matrix(.1688 -.16963 .22744 .2263 -4.412 2.507)" gradientUnits="userSpaceOnUse" x1="30.038" x2="30.038" xlink:href="#e" y1="24.99" y2="30"/><linearGradient id="h" gradientTransform="matrix(.1688 -.16963 .22744 .2263 -4.195 2.29)" gradientUnits="userSpaceOnUse" x1="30.038" x2="30.038" xlink:href="#c" y1="24.99" y2="30"/><linearGradient id="i" gradientTransform="matrix(.1688 -.16963 .22744 .2263 -4.243 2.337)" gradientUnits="userSpaceOnUse" x1="30.038" x2="30.038" xlink:href="#e" y1="24.99" y2="30"/><linearGradient id="j" gradientTransform="matrix(.1688 -.16963 .22744 .2263 -4.596 2.69)" gradientUnits="userSpaceOnUse" x1="9" x2="9" y1="29.057" y2="26.03"><stop offset="0" stop-color="#ece5a5"/><stop offset="1" stop-color="#fcfbf2"/></linearGradient><linearGradient id="k" gradientTransform="matrix(.14826 .0064 .0064 .14808 1.545 1.732)" gradientUnits="userSpaceOnUse" x1="5.518" x2="9.522" y1="37.372" y2="41.392"><stop offset="0" stop-color="#dbce48"/><stop offset="1" stop-color="#c5b625"/></linearGradient><radialGradient id="l" cx="4.333" cy="288.644" gradientTransform="matrix(-2.36637 .0798 -.0789 -2.33915 37.355 964.564)" gradientUnits="userSpaceOnUse" r="2.799"><stop offset="0" stop-color="#737373"/><stop offset=".262" stop-color="#636363"/><stop offset=".705" stop-color="#4b4b4b"/><stop offset="1" stop-color="#3f3f3f"/></radialGradient><path d="m5.384 294.538h-2.338l-.403 1.01h-1.077l2.206-5.292h1l2.128 5.292h-1.125zm-2.06-.8h1.756l-.784-2.395z" style="stroke:#000;stroke-width:.265;stroke-linecap:round;stroke-linejoin:round;stroke-opacity:.537;fill:url(#l)" transform="translate(-1.058 -289.59)"/><path d="m2.714.665-2.206 5.29h.11l2.096-5.025h1l2.022 5.026h.106l-2.127-5.29zm-.34 3.48-.11.266h1.758l-.087-.265z" fill="#fff" opacity=".1"/><path d="m7.535 7.066c-.047-.007-.084-.003-.108.003l-3.256.748-.598.138-.018.003-.73.513 1.74-.046.014-.004.603-.138 3.256-.754c.098-.022-.048-.143-.327-.272-.21-.097-.434-.172-.575-.192z" fill="#0c0c0c" fill-rule="evenodd" opacity=".15"/><path d="m2.97 6.474c.118-.088.45.078.753.38.304.302.464.626.377.745 0 0 .008.005.007.006l4.236-4.255c.108-.11-.06-.45-.373-.763-.314-.312-.657-.477-.764-.37z" fill="url(#a)" stroke="#0c0c0c" stroke-linejoin="round" stroke-width=".132" transform="matrix(.88845 0 0 .88845 .944 .95)"/><path d="m6.887 3.382c.105-.08.4.07.67.338s.41.555.334.66l.007.007.46-.46.01-.01-.008-.007c.076-.106-.066-.393-.335-.66-.27-.27-.564-.418-.67-.34l-.01.01z" fill="#ffb6ed" opacity=".8" stroke="#e28ccd" stroke-linejoin="round" stroke-width=".117275"/><path d="m3.583 6.702c.105-.08.4.07.67.338s.41.555.334.66l.006.007 2.592-2.604.01-.01s-.008-.005-.007-.006c.077-.106-.065-.393-.335-.66-.27-.27-.564-.418-.67-.34l-.01.01z" fill="#0c0c0c" opacity=".6"/><path d="m6.11 3.32c.118-.09.45.077.753.38.303.302.463.625.377.744l.007.007.053-.051-.008-.007c.087-.118-.073-.442-.377-.744s-.635-.468-.753-.38z" fill="url(#b)" transform="matrix(.88845 0 0 .88845 .944 .95)"/><path d="m6.062 3.368c.117-.09.448.077.753.38.303.302.463.625.376.744l.01.007.05-.054-.006-.007c.087-.12-.073-.443-.377-.745-.304-.303-.635-.47-.753-.38z" fill="url(#d)" transform="matrix(.88845 0 0 .88845 .944 .95)"/><path d="m6.278 3.15c.118-.088.45.078.753.38.305.303.464.626.378.745l.007.007.053-.053-.008-.008c.087-.12-.073-.442-.376-.744-.305-.303-.635-.47-.754-.38z" fill="url(#f)" transform="matrix(.88845 0 0 .88845 .944 .95)"/><path d="m6.23 3.2c.117-.09.448.077.753.38.303.3.463.624.377.744l.007.007.053-.052-.007-.007c.086-.118-.074-.44-.377-.743-.305-.303-.635-.47-.754-.38z" fill="url(#g)" transform="matrix(.88845 0 0 .88845 .944 .95)"/><path d="m6.447 2.98c.118-.088.45.078.753.38.303.303.463.626.377.745l.007.007.053-.053-.008-.008c.086-.12-.074-.442-.378-.744-.304-.303-.635-.47-.753-.38z" fill="url(#h)" transform="matrix(.88845 0 0 .88845 .944 .95)"/><path d="m6.398 3.03c.118-.09.45.077.753.38.305.3.464.625.378.744l.007.007.053-.052-.009-.009c.087-.118-.073-.442-.376-.743-.304-.303-.635-.47-.753-.38z" fill="url(#i)" transform="matrix(.88845 0 0 .88845 .944 .95)"/><g fill-rule="evenodd"><path d="m2.158 8.4 1.927-.785.017-.016c.087-.12-.075-.444-.38-.746-.303-.302-.633-.468-.75-.38z" fill="url(#j)" stroke="url(#k)" stroke-width=".132" transform="matrix(.88845 0 0 .88845 .944 .95)"/><path d="m3.057 7.95-.196.462.47-.192c-.04-.045-.073-.09-.12-.135-.05-.05-.1-.093-.153-.135z" fill="#0c0c0c" stroke="#0c0c0c" stroke-width=".117275"/></g></svg>