<svg height="32" width="32" xmlns="http://www.w3.org/2000/svg" xmlns:xlink="http://www.w3.org/1999/xlink"><linearGradient id="a" gradientTransform="matrix(.40683 0 0 .37867 -3.452 -3.542)" gradientUnits="userSpaceOnUse" x1="20.914036" x2="43.222931" xlink:href="#b" y1="17.47904" y2="17.713369"/><linearGradient id="b" gradientTransform="matrix(.40683 0 0 .37867 -3.452 -3.542)" gradientUnits="userSpaceOnUse" x1="23.732" x2="23.732" y1="5.394" y2="39.735001"><stop offset="0" stop-color="#90dbec"/><stop offset=".262" stop-color="#55c1ec"/><stop offset=".705" stop-color="#3689e6"/><stop offset="1" stop-color="#2b63a0"/></linearGradient><linearGradient id="c" gradientTransform="matrix(0 -.44324 .4587 0 -19.385 16.993)" gradientUnits="userSpaceOnUse" x1="30.743999" x2="30.629282" xlink:href="#d" y1="67.723999" y2="60.486618"/><linearGradient id="d" gradientTransform="matrix(0 -.44324 .4587 0 -19.385 16.993)" gradientUnits="userSpaceOnUse" x1="30.743999" x2="30.743999" y1="67.723999" y2="58.507999"><stop offset="0" stop-color="#fff"/><stop offset=".333" stop-color="#fff" stop-opacity=".235"/><stop offset=".857" stop-color="#fff" stop-opacity=".157"/><stop offset="1" stop-color="#fff" stop-opacity=".392"/></linearGradient><linearGradient id="e" gradientTransform="matrix(.40683 0 0 .37867 -3.452 -3.542)" gradientUnits="userSpaceOnUse" x1="42.329624" x2="13.768988" xlink:href="#b" y1="12.800026" y2="12.95937"/><linearGradient id="f" gradientTransform="matrix(0 -.44324 .4587 0 -19.385 16.993)" gradientUnits="userSpaceOnUse" x1="31.495352" x2="30.743999" xlink:href="#d" y1="65.866577" y2="58.507999"/><linearGradient id="g"><stop offset="0" stop-color="#555"/><stop offset="1" stop-color="#666"/></linearGradient><linearGradient id="h" gradientUnits="userSpaceOnUse" x1="13" x2="13" xlink:href="#g" y1="47.5" y2="25.5"/><linearGradient id="i" gradientUnits="userSpaceOnUse" x1="13" x2="13" xlink:href="#g" y1="54" y2="32"/><linearGradient id="j" gradientUnits="userSpaceOnUse" x1="13" x2="13" xlink:href="#g" y1="60" y2="38"/><linearGradient id="k" gradientUnits="userSpaceOnUse" x1="13" x2="13" xlink:href="#g" y1="41.5" y2="19.5"/><g transform="translate(-1 -23)"><path d="m15.5 31.5v3h16v-3z" fill="url(#h)"/><path d="m15.5 31.5v3h16v-3z" fill="none" opacity=".61" stroke="#000" stroke-linejoin="round"/><path d="m16 32v2h1v-1h14v-1z" fill="#fff" opacity=".2"/><path d="m15.5 40.5v3h16v-3z" fill="url(#i)"/><path d="m15.5 40.5v3h16v-3z" fill="none" opacity=".61" stroke="#000" stroke-linejoin="round"/><path d="m16 41v2h1v-1h14v-1z" fill="#fff" opacity=".2"/><path d="m15.5 46.5v3h16v-3z" fill="url(#j)"/><path d="m15.5 46.5v3h16v-3z" fill="none" opacity=".61" stroke="#000" stroke-linejoin="round"/><path d="m16 47v2h1v-1h14v-1z" fill="#fff" opacity=".2"/><path d="m15.5 25.5v3h16v-3z" fill="url(#k)"/><path d="m15.5 25.5v3h16v-3z" fill="none" opacity=".61" stroke="#000" stroke-linejoin="round"/><path d="m16 26v2h1v-1h14v-1z" fill="#fff" opacity=".2"/></g><g transform="matrix(0 -1.4192882 1.3333417 0 2.513386 21.581103)"><path d="m7.124 7.488 4.895-4.47-4.896-4.527z" display="block" fill="url(#e)"/><g fill="none" stroke-miterlimit="7" stroke-width=".75"><path d="m7.125 7.488 4.894-4.47-4.896-4.527z" display="block" opacity=".5" stroke="#004372" stroke-linejoin="round"/><path d="m7.848 5.856 2.98-2.823-2.955-2.903z" display="block" opacity=".401" stroke="url(#f)"/></g></g><g transform="matrix(0 1.4192882 1.3333417 0 2.513386 7.409449)"><path d="m7.124 7.488 4.895-4.47-4.896-4.527z" display="block" fill="url(#a)"/><g fill="none" stroke-miterlimit="7" stroke-width=".75"><path d="m7.125 7.488 4.894-4.47-4.896-4.527z" display="block" opacity=".5" stroke="#004372" stroke-linejoin="round"/><path d="m7.848 5.856 2.98-2.823-2.955-2.903z" display="block" opacity=".401" stroke="url(#c)"/></g></g></svg>