<svg height="32" viewBox="0 0 8.4666665 8.4666669" width="32" xmlns="http://www.w3.org/2000/svg" xmlns:xlink="http://www.w3.org/1999/xlink"><radialGradient id="a" cx="5.027085" cy="290.26834" gradientTransform="matrix(-3.9938394 .00002848 -.00003323 -4.6594924 25.114101 1641.4993)" gradientUnits="userSpaceOnUse" r="1.490581"><stop offset="0" stop-color="#737373"/><stop offset=".26238" stop-color="#636363"/><stop offset=".704952" stop-color="#4b4b4b"/><stop offset="1" stop-color="#3f3f3f"/></radialGradient><linearGradient id="b"><stop offset="0"/><stop offset="1" stop-opacity="0"/></linearGradient><radialGradient id="c" cx="24.837126" cy="36.421127" gradientTransform="matrix(.49863106 0 0 -.2131036 -.011013 10.290278)" gradientUnits="userSpaceOnUse" r="15.644737" xlink:href="#b"/><linearGradient id="d" gradientUnits="userSpaceOnUse" x1="10" x2="10" y1="-8" y2="5"><stop offset="0" stop-color="#ffa154"/><stop offset="1" stop-color="#f37329"/></linearGradient><linearGradient id="e" gradientTransform="matrix(0 -.59098524 .65103773 0 -25.921644 17.536343)" gradientUnits="userSpaceOnUse" x1="38.910011" x2="24.596796" y1="60.471832" y2="60.55201"><stop offset="0" stop-color="#fff"/><stop offset=".46985772" stop-color="#fff" stop-opacity=".235294"/><stop offset=".68658012" stop-color="#fff" stop-opacity=".156863"/><stop offset="1" stop-color="#fff" stop-opacity=".392157"/></linearGradient><radialGradient id="f" cx="22.571428" cy="30.857143" gradientTransform="matrix(.18682863 0 0 .03584998 -.037017 294.0182)" gradientUnits="userSpaceOnUse" r="15.571428" xlink:href="#b"/><g transform="matrix(1.33333 0 0 1.33333 -2.46943 -386.12123)"><g stroke-width=".264583"><path d="m3.3125 290.2832c-.5022633 0-.9707031.4478-.9707031 1.01758-.0000001.29357.1592146.54031.3710937.70899.2118791.16867.4787004.26757.7265625.26757h.6875v2.67188a.10485976.10485976 0 0 0 .1054688.10547h.1992187a.10485976.10485976 0 0 0 .1054688-.10547v-4.25977h.5820312v4.25977a.10485976.10485976 0 0 0 .1054688.10547h.1992187a.10485976.10485976 0 0 0 .1054688-.10547l.00586-4.29492v-.26563a.10485976.10485976 0 0 0 -.1054694-.10547z" fill="url(#a)"/><ellipse cx="4.179972" cy="295.12442" fill="url(#f)" opacity=".2" rx="2.909189" ry=".558236"/><path d="m3.3125885 290.38877h2.1166666v.26458l-.00529 4.29612h-.198438l-.0000004-4.36562-.793752.00001.0000004 4.36561h-.198438l-.0000004-2.77812h-.79375c-.4383761 0-.991493-.35923-.9914929-.87067 0-.51144.426122-.91189.864498-.91189z" fill="url(#a)"/><path d="m3.2411431 290.17996v.007c-.5845014 0-.9892461.45407-.9892461 1.11163 0 .65757.670103 1.04114 1.2538315 1.07119h.5291666v.0238.57151l.0000004 2.18282h.595314l-.0000044-4.36563h.396876l.0000004 4.36563h.595314l.0000036-4.96095zm.071445.20881h2.1166666v.26458l-.00529 4.29612h-.198438l-.0000004-4.36563h-.793752l-.0000036 4.36563h-.198438l-.0000004-2.77813h-.79375c-.438376 0-.9914926-.35924-.9914926-.87068s.426122-.91189.8644984-.91189z" fill-opacity=".431373"/></g><path d="m11.359375 4.0175781c-2.2091334 0-4.3554688 2.0183742-4.3554688 4.5957031 0 .187399.018696.3679875.046875.546875.2366752-2.3530804 2.2329473-4.1425781 4.3085938-4.1425781h5.640625v-.0175781h4v.017578h1.027344v-1z" fill="#fff" opacity=".1" stroke-width="1.33333" transform="matrix(.198438 0 0 .198438 1.058325 289.59165)"/></g><g transform="matrix(-.26458333 0 0 .26458333 8.730221 6.085417)"><path d="m20.173197 1.1906819c.0028-4.446464-14.8963005-3.463144-14.8991065.983321.00281 4.4440652 14.9019115 3.4607456 14.8991065-.983321z" fill="url(#c)" fill-rule="evenodd" opacity=".2" stroke-width="1.37564"/><path d="m11.755859-7.5a.24916896.24916896 0 0 0 -.255859.25v3.75h-7.75a.24916896.24916896 0 0 0 -.25.25v3.5a.24916896.24916896 0 0 0 .25.25h7.75v3.75a.24916896.24916896 0 0 0 .416016.1875l6.5-5.75a.24916896.24916896 0 0 0 0-.375l-6.5-5.75a.24916896.24916896 0 0 0 -.160157-.0625z" fill="url(#d)" stroke="#a62100" stroke-linecap="round" stroke-linejoin="round" stroke-opacity=".501961"/><path d="m12.5 2.5789456 4.599437-4.0789456-4.599437-4.0859375-.005451 3.0853825-7.994549.000555-.017345 2.01669126 8.017345-.01669126z" display="block" fill="none" opacity=".5" stroke="url(#e)"/></g></svg>