<svg height="32" viewBox="0 0 32 32" width="32" xmlns="http://www.w3.org/2000/svg" xmlns:xlink="http://www.w3.org/1999/xlink"><linearGradient id="a" gradientUnits="userSpaceOnUse" x1="22.881355" x2="22.644068" y1="14.457627" y2="31.338984"><stop offset="0" stop-color="#f6f6f6"/><stop offset="1" stop-color="#d2d2d2"/></linearGradient><linearGradient id="b" gradientUnits="userSpaceOnUse" x1="23.031893" x2="23.040016" y1="26.715307" y2="18.997057"><stop offset="0" stop-color="#fff"/><stop offset="1" stop-color="#959595"/></linearGradient><linearGradient id="c" gradientUnits="userSpaceOnUse" x1="23.131727" x2="23.398602" y1="16.459263" y2="30.159456"><stop offset="0" stop-color="#fff"/><stop offset="1" stop-color="#fff" stop-opacity="0"/></linearGradient><linearGradient id="d"><stop offset="0" stop-color="#dfdfdf"/><stop offset="1" stop-color="#cdcdcd"/></linearGradient><linearGradient id="e" gradientTransform="matrix(.39455591 0 0 .42945352 1.149709 3.941092)" gradientUnits="userSpaceOnUse" x1="27.50001" x2="27.50001" y1="-.575591" y2="32.10878"><stop offset="0" stop-color="#f4f4f4"/><stop offset="1" stop-color="#dbdbdb"/></linearGradient><linearGradient id="f" gradientTransform="matrix(.24324324 0 0 .35135133 2.162164 -.432428)" gradientUnits="userSpaceOnUse" x1="23.48608" x2="23.48608" y1="2.995414" y2="27.009958"><stop offset="0" stop-color="#fff"/><stop offset="0" stop-color="#fff" stop-opacity=".235294"/><stop offset="1" stop-color="#fff" stop-opacity=".156863"/><stop offset="1" stop-color="#fff" stop-opacity=".392157"/></linearGradient><linearGradient id="g" gradientTransform="matrix(.25378586 0 0 .30501865 19.128979 -.685477)" gradientUnits="userSpaceOnUse" x1="-51.732536" x2="-51.786404" y1="34.231792" y2="2.906247"><stop offset="0" stop-opacity=".339506"/><stop offset="1" stop-opacity=".246914"/></linearGradient><linearGradient id="h" gradientUnits="userSpaceOnUse" x1="12.666665" x2="12.750002" y1="3.992221" y2="1.068896"><stop offset="0" stop-color="#d5d5d5"/><stop offset="1" stop-color="#e5e5e5"/></linearGradient><linearGradient id="i" gradientUnits="userSpaceOnUse" x1="13.590492" x2="13.590492" y1="8.16212" y2="12.6622"><stop offset="0" stop-color="#ffa154"/><stop offset="1" stop-color="#f37329"/></linearGradient><linearGradient id="j" gradientUnits="userSpaceOnUse" x1="14.996767" x2="14.996767" xlink:href="#k" y1="9.005885" y2="11.818435"/><linearGradient id="k"><stop offset="0" stop-color="#fff"/><stop offset="0" stop-color="#fff" stop-opacity=".23529"/><stop offset="1" stop-color="#fff" stop-opacity=".15686"/><stop offset="1" stop-color="#fff" stop-opacity=".39216"/></linearGradient><linearGradient id="l" gradientUnits="userSpaceOnUse" x1="18.171249" x2="18.452503" y1="6.989314" y2="12.333158"><stop offset="0" stop-color="#cd9ef7"/><stop offset="1" stop-color="#a56de2"/></linearGradient><linearGradient id="m" gradientUnits="userSpaceOnUse" x1="18.171249" x2="18.171249" xlink:href="#k" y1="7.833078" y2="11.770648"/><linearGradient id="n" gradientTransform="matrix(1.3831825 0 0 1.4143822 -21.393099 18.45683)" gradientUnits="userSpaceOnUse" x1="14.924327" x2="14.924327" y1="-5.930442" y2="-2.748833"><stop offset="0" stop-color="#9bdb4d"/><stop offset="1" stop-color="#68b723"/></linearGradient><linearGradient id="o" gradientUnits="userSpaceOnUse" x1="2.999978" x2="2.999978" xlink:href="#k" y1="11.568922" y2="13.068926"/><radialGradient id="p" cx="2.25" cy="16" gradientTransform="matrix(.40697348 0 0 .09866019 11.084309 21.073391)" gradientUnits="userSpaceOnUse" r="16.875"><stop offset="0"/><stop offset="1" stop-opacity="0"/></radialGradient><linearGradient id="q" gradientUnits="userSpaceOnUse" x1="15.000008" x2="15.000008" xlink:href="#k" y1="1.818898" y2="2.5689"/><radialGradient id="r" cx="16.500012" cy="22.068947" gradientUnits="userSpaceOnUse" r="1.312503" xlink:href="#d"/><radialGradient id="s" cx="10.124996" cy="22.068947" gradientUnits="userSpaceOnUse" r="1.312503" xlink:href="#d"/><g transform="matrix(1.33333 0 0 1.33333 .00004 -.425191)"><g stroke="#959595" stroke-linecap="square" stroke-linejoin="round" stroke-opacity=".745098" stroke-width=".750002" transform="translate(-.750002)"><path d="m12.375001 16.443934v3.000009l-3.0000078 2.250005 1.1250028 1.125002 2.625007-2.250005 2.625006 2.250005 1.125003-1.125002-3.000007-2.250005v-3.000009z" fill="#e5e5e5"/><circle cx="16.312511" cy="22.256449" fill="url(#r)" r=".937502"/><circle cx="9.937493" cy="22.256449" fill="url(#s)" r=".937502"/><path d="m12 18.693939h2.250006v1.500004h-2.250006z" fill="#e5e5e5"/></g><ellipse cx="12" cy="22.651955" display="block" fill="url(#p)" opacity=".193" rx="6.867678" ry="1.664893"/><path d="m1.1249728 3.6939025h21.7500542v13.5000335h-21.7500542z" fill="url(#e)" stroke-width="1.39627"/><g fill="none" stroke-width=".562503" transform="matrix(1.33333 0 0 1.33333 .00003 3.992221)"><path d="m16.593788 9.3388084h-15.1875761v-9.00004504h15.1875761z" stroke="url(#f)" stroke-linecap="round"/><path d="m.84370909-.22373946c2.52067561 0 16.31256891.00095396 16.31256891.00095396l.000013 10.1240967h-16.31258191z" stroke="url(#g)" stroke-linejoin="round"/></g><rect height="3.000007" rx=".499999" ry=".5" style="stroke:#747474;stroke-width:.750002;stroke-linecap:square;stroke-linejoin:round;stroke-opacity:.745098;fill:url(#h)" width="23.250059" x=".374971" y=".693895"/><g transform="translate(-2.250006)"><g transform="matrix(-1.3333132 0 0 1.3333132 41.85298 -2.625034)"><rect fill="url(#l)" height="5.625099" rx=".281255" width="2.25004" x="17.046228" y="6.989314"/><g fill="none" stroke-linecap="round" stroke-linejoin="round" stroke-width=".56251"><path d="m17.608739 7.5518234h1.12502v4.5000796h-1.12502z" opacity=".5" stroke="url(#m)"/><rect height="5.625099" opacity=".5" rx=".281255" ry=".63025" stroke="#7239b3" width="2.25004" x="17.046228" y="6.989314"/></g></g><g transform="matrix(-1.3333132 0 0 1.3333132 33.870392 -2.688749)"><rect fill="url(#i)" height="4.500079" rx=".562509" width="2.250039" x="13.871747" y="8.16212"/><g fill="none" stroke-linecap="round" stroke-linejoin="round" stroke-width=".56251"><path d="m14.434257 8.72463h1.12502v3.375059h-1.125019z" opacity=".5" stroke="url(#j)"/><rect height="4.50008" opacity=".5" rx=".562509" ry=".51261" stroke="#cc3b02" width="2.25004" x="13.871747" y="8.16212"/></g></g><rect fill="url(#n)" height="3.75001" rx=".74798" stroke-width=".999987" width="3.000009" x="8.624991" y="10.443919"/><g fill="none" stroke-linecap="round" stroke-linejoin="round" stroke-width=".750002"><path d="m9.3749933 11.193921 1.4980037-.000004v2.250006l-1.4980037.000004z" opacity=".5" stroke="url(#o)"/><rect height="3.75001" opacity=".5" rx=".865539" ry=".596632" stroke="#0f5a00" width="3.000007" x="8.624991" y="10.443919"/></g></g><g fill="none"><rect height="2.056103" rx="0" ry=".5" width="20.000025" x="1.499974" y="1.443897"/><path d="m1.1249731 1.443897h21.7500549v1.5000041h-21.7500549z" style="stroke-width:.750002;stroke-linecap:square;stroke-linejoin:round;stroke-opacity:.745098;fill:none;opacity:.8;stroke:url(#q)"/></g></g><path d="m22 14.5c-.554 0-1 .446-1 1v1.886719a5.9661016 5.9661016 0 0 0 -.556641.228515l-1.332031-1.332031c-.391737-.391737-1.022325-.391737-1.414062 0l-1.414063 1.414063c-.391737.391737-.391737 1.022325 0 1.414062l1.333985 1.333984a5.9661016 5.9661016 0 0 0 -.230469.554688h-1.886719c-.554 0-1 .446-1 1v2c0 .554.446 1 1 1h1.886719a5.9661016 5.9661016 0 0 0 .228515.556641l-1.332031 1.332031c-.391737.391737-.391737 1.022325 0 1.414062l1.414063 1.414063c.391737.391737 1.022325.391737 1.414062 0l1.333984-1.333985a5.9661016 5.9661016 0 0 0 .554688.230469v1.886719c0 .554.446 1 1 1h2c.554 0 1-.446 1-1v-1.886719a5.9661016 5.9661016 0 0 0 .556641-.228515l1.332031 1.332031c.391737.391737 1.022325.391737 1.414062 0l1.414063-1.414063c.391737-.391737.391737-1.022325 0-1.414062l-1.333985-1.333984a5.9661016 5.9661016 0 0 0 .230469-.554688h1.886719c.554 0 1-.446 1-1v-2c0-.554-.446-1-1-1h-1.886719a5.9661016 5.9661016 0 0 0 -.228515-.556641l1.332031-1.332031c.391737-.391737.391737-1.022325 0-1.414062l-1.414063-1.414063c-.391737-.391737-1.022325-.391737-1.414062 0l-1.333984 1.333985a5.9661016 5.9661016 0 0 0 -.554688-.230469v-1.886719c0-.554-.446-1-1-1zm1 6.503906a1.9954157 1.9954157 0 0 1 1.996094 1.996094 1.9954157 1.9954157 0 0 1 -1.996094 1.996094 1.9954157 1.9954157 0 0 1 -1.996094-1.996094 1.9954157 1.9954157 0 0 1 1.996094-1.996094z" fill="url(#a)"/><g fill="none" stroke-linecap="square" stroke-linejoin="round"><path d="m22 14.5c-.554 0-1 .446-1 1v1.886719a5.9661016 5.9661016 0 0 0 -.556641.228515l-1.332031-1.332031c-.391737-.391737-1.022325-.391737-1.414062 0l-1.414063 1.414063c-.391737.391737-.391737 1.022325 0 1.414062l1.333985 1.333984a5.9661016 5.9661016 0 0 0 -.230469.554688h-1.886719c-.554 0-1 .446-1 1v2c0 .554.446 1 1 1h1.886719a5.9661016 5.9661016 0 0 0 .228515.556641l-1.332031 1.332031c-.391737.391737-.391737 1.022325 0 1.414062l1.414063 1.414063c.391737.391737 1.022325.391737 1.414062 0l1.333984-1.333985a5.9661016 5.9661016 0 0 0 .554688.230469v1.886719c0 .554.446 1 1 1h2c.554 0 1-.446 1-1v-1.886719a5.9661016 5.9661016 0 0 0 .556641-.228515l1.332031 1.332031c.391737.391737 1.022325.391737 1.414062 0l1.414063-1.414063c.391737-.391737.391737-1.022325 0-1.414062l-1.333985-1.333984a5.9661016 5.9661016 0 0 0 .230469-.554688h1.886719c.554 0 1-.446 1-1v-2c0-.554-.446-1-1-1h-1.886719a5.9661016 5.9661016 0 0 0 -.228515-.556641l1.332031-1.332031c.391737-.391737.391737-1.022325 0-1.414062l-1.414063-1.414063c-.391737-.391737-1.022325-.391737-1.414062 0l-1.333984 1.333985a5.9661016 5.9661016 0 0 0 -.554688-.230469v-1.886719c0-.554-.446-1-1-1zm1 6.503906a1.9954157 1.9954157 0 0 1 1.996094 1.996094 1.9954157 1.9954157 0 0 1 -1.996094 1.996094 1.9954157 1.9954157 0 0 1 -1.996094-1.996094 1.9954157 1.9954157 0 0 1 1.996094-1.996094z" opacity=".3" stroke="#000"/><circle cx="23" cy="23" r="3.998385" stroke="url(#b)"/><path d="m22 15.5v1.886719a.99989607.99989607 0 0 1 -.667969.943359c-.157521.05556-.311767.118308-.46289.189453a.99989607.99989607 0 0 1 -1.132813-.197265l-1.332031-1.332032-1.414063 1.414063 1.333985 1.333984a.99989607.99989607 0 0 1 .195312 1.136719c-.07165.150561-.135262.303936-.191406.460938a.99989607.99989607 0 0 1 -.941406.664062h-1.886719v2h1.886719a.99989607.99989607 0 0 1 .943359.667969c.05556.157521.118308.311767.189453.46289a.99989607.99989607 0 0 1 -.197265 1.132813l-1.332032 1.332031 1.414063 1.414063 1.333984-1.333985a.99989607.99989607 0 0 1 1.136719-.195312c.150561.07165.303936.135262.460938.191406a.99989607.99989607 0 0 1 .664062.941406v1.886719h2v-1.886719a.99989607.99989607 0 0 1 .667969-.943359c.157521-.05556.311767-.118308.46289-.189453a.99989607.99989607 0 0 1 1.132813.197265l1.332031 1.332032 1.414063-1.414063-1.333985-1.333984a.99989607.99989607 0 0 1 -.195312-1.136719c.07165-.150561.135262-.303936.191406-.460938a.99989607.99989607 0 0 1 .941406-.664062h1.886719v-2h-1.886719a.99989607.99989607 0 0 1 -.943359-.667969c-.05556-.157521-.118308-.311767-.189453-.46289a.99989607.99989607 0 0 1 .197265-1.132813l1.332032-1.332031-1.414063-1.414063-1.333984 1.333985a.99989607.99989607 0 0 1 -1.136719.195312c-.150561-.07165-.303936-.135262-.460938-.191406a.99989607.99989607 0 0 1 -.664062-.941406v-1.886719zm1 6.503906c-.588024.0002.772067.134102.195312.01953-.576754-.114571.728849.281575.185547.05664-.543301-.224934.66278.418444.173829.0918-.488952-.326647.566186.538842.15039.123047-.415795-.415796.449694.639342.123047.15039-.326647-.488951.316731.71713.0918.173829-.224935-.543302.171211.762301.05664.185547-.11457-.576755.01933.783336.01953.195312-.0002-.588024-.134102.772067-.01953.195312.114571-.576754-.281575.728849-.05664.185547.224934-.543301-.418444.66278-.0918.173829.326647-.488952-.538842.566186-.123047.15039.415796-.415795-.639342.449694-.15039.123047.488951-.326647-.71713.316731-.173829.0918.543302-.224935-.762301.171211-.185547.05664.576755-.11457-.783336.01933-.195312.01953.588024-.0002-.772067-.134102-.195312-.01953.576754.114571-.728849-.281575-.185547-.05664.543301.224934-.66278-.418444-.173829-.0918.488952.326647-.566186-.538842-.15039-.123047.415795.415796-.449694-.639342-.123047-.15039.326647.488951-.316731-.71713-.0918-.173829.224935.543302-.171211-.762301-.05664-.185547.11457.576755-.01933-.783336-.01953-.195312.0002.588024.134102-.772067.01953-.195312-.114571.576754.281575-.728849.05664-.185547-.224934.543301.418444-.66278.0918-.173829-.326647.488952.538842-.566186.123047-.15039-.415796.415795.639342-.449694.15039-.123047-.488951.326647.71713-.316731.173829-.0918-.543302.224935.762301-.171211.185547-.05664-.576755.11457.783336-.01933.195312-.01953z" stroke="url(#c)"/></g></svg>