<svg height="32" width="32" xmlns="http://www.w3.org/2000/svg" xmlns:xlink="http://www.w3.org/1999/xlink"><linearGradient id="a" gradientUnits="userSpaceOnUse" x1="17.8427780723" x2="17.8427780723" y1="12.31202392256" y2="23.64787868384"><stop offset="0" stop-color="#fff"/><stop offset=".507761" stop-color="#fff" stop-opacity=".235294"/><stop offset=".83456558" stop-color="#fff" stop-opacity=".156863"/><stop offset="1" stop-color="#fff" stop-opacity=".392157"/></linearGradient><linearGradient id="b" gradientUnits="userSpaceOnUse" x1="27.68134665377" x2="27.68134665377" y1="24.15983276375" y2="30.37247161233"><stop offset="0" stop-color="#f3f3f3"/><stop offset="1" stop-color="#f3f3f3" stop-opacity="0"/></linearGradient><linearGradient id="c"><stop offset="0" stop-color="#fff"/><stop offset="1" stop-color="#fff" stop-opacity=".526471"/></linearGradient><radialGradient id="d" cx="8.072266" cy="5.962701" fx="6" fy="3.371369" gradientTransform="matrix(1.1227507 0 0 .85038266 5.15497 5.865355)" gradientUnits="userSpaceOnUse" r="4.572266" xlink:href="#c"/><linearGradient id="e" gradientTransform="matrix(.67411329 0 0 .71376702 32.551978 2.528648)" gradientUnits="userSpaceOnUse" x1="34.855602" x2="34.842903" y1="3.174535" y2="1.690859"><stop offset="0" stop-color="#a3907c"/><stop offset="1" stop-color="#f9c440"/></linearGradient><linearGradient id="f"><stop offset="0"/><stop offset="1" stop-opacity="0"/></linearGradient><radialGradient id="g" cx="6.702713" cy="73.615715" fx="11.969189" fy="75.92881" gradientTransform="matrix(2.2134562 0 0 .4841989 4.785007 -4.311383)" gradientUnits="userSpaceOnUse" r="7.228416" xlink:href="#f"/><linearGradient id="h"><stop offset="0" stop-color="#fff"/><stop offset=".06316455" stop-color="#fff" stop-opacity=".235294"/><stop offset=".95056331" stop-color="#fff" stop-opacity=".156863"/><stop offset="1" stop-color="#fff" stop-opacity=".392157"/></linearGradient><radialGradient id="i" cx="4.992979" cy="43.5" gradientTransform="matrix(2.003784 0 0 1.4 27.98813 -17.4)" gradientUnits="userSpaceOnUse" r="2.5" xlink:href="#j"/><linearGradient id="j"><stop offset="0" stop-color="#181818"/><stop offset="1" stop-color="#181818" stop-opacity="0"/></linearGradient><radialGradient id="k" cx="4.992979" cy="43.5" gradientTransform="matrix(2.003784 0 0 1.4 -20.01187 -104.4)" gradientUnits="userSpaceOnUse" r="2.5" xlink:href="#j"/><linearGradient id="l" gradientUnits="userSpaceOnUse" x1="25.058096" x2="25.058096" y1="47.027729" y2="39.999443"><stop offset="0" stop-color="#181818" stop-opacity="0"/><stop offset=".5" stop-color="#181818"/><stop offset="1" stop-color="#181818" stop-opacity="0"/></linearGradient><linearGradient id="m" gradientTransform="matrix(.72972973 0 0 .29729729 -1.513515 13.864869)" gradientUnits="userSpaceOnUse" x1="23.99999" x2="23.99999" xlink:href="#h" y1="4.999989" y2="43"/><linearGradient id="n"><stop offset="0" stop-color="#f4f4f4"/><stop offset="1" stop-color="#dbdbdb"/></linearGradient><linearGradient id="o"><stop offset="0" stop-color="#fff"/><stop offset=".03626217" stop-color="#fff" stop-opacity=".235294"/><stop offset=".95056331" stop-color="#fff" stop-opacity=".156863"/><stop offset="1" stop-color="#fff" stop-opacity=".392157"/></linearGradient><linearGradient id="p" gradientTransform="matrix(.45945946 0 0 .72972971 4.972976 -.513506)" gradientUnits="userSpaceOnUse" x1="23.99999" x2="23.99999" xlink:href="#o" y1="5.56415" y2="43"/><linearGradient id="q" gradientTransform="matrix(.54285587 0 0 .22814772 2.971419 20.424493)" gradientUnits="userSpaceOnUse" x1="33.210621" x2="33.210621" xlink:href="#n" y1="46.353771" y2="11.28877"/><linearGradient id="r" gradientTransform="matrix(.45945946 0 0 .72972971 4.972976 .486533)" gradientUnits="userSpaceOnUse" x1="23.99999" x2="23.99999" xlink:href="#o" y1="5.56415" y2="43"/><linearGradient id="s" gradientTransform="matrix(.54285587 0 0 .14123431 2.971419 3.143749)" gradientUnits="userSpaceOnUse" x1="25.132275" x2="25.132275" xlink:href="#n" y1=".985206" y2="62.706093"/><linearGradient id="t" gradientTransform="matrix(.72972973 0 0 .08108108 -1.513515 10.054054)" gradientUnits="userSpaceOnUse" x1="23.99999" x2="23.99999" xlink:href="#h" y1="11.666668" y2="36.333336"/><linearGradient id="u" gradientTransform="matrix(1 0 0 1.3333333 0 -4.333333)" gradientUnits="userSpaceOnUse" x1="17" x2="17" xlink:href="#f" y1="14" y2="10"/><radialGradient id="v" cx="7.118353" cy="9.957108" gradientTransform="matrix(0 5.8591313 -8.3440444 0 99.355433 -44.574628)" gradientUnits="userSpaceOnUse" r="12.671875"><stop offset="0" stop-color="#505050"/><stop offset=".26238" stop-color="#2b2b2b"/><stop offset=".704952" stop-color="#0a0a0a"/><stop offset="1"/></radialGradient><radialGradient id="w" cx="22.099527" cy="24.537743" gradientTransform="matrix(.48086521 -.0168127 .01677143 .48085942 10.389289 10.030526)" gradientUnits="userSpaceOnUse" r="8.308505"><stop offset="0" stop-color="#fff" stop-opacity=".58"/><stop offset="1" stop-color="#fff" stop-opacity=".46"/></radialGradient><radialGradient id="x" cx="8.072266" cy="5.962701" fx="6" fy="3.371369" gradientTransform="matrix(.763971 -.03048104 .01729798 .57782578 12.122431 14.146504)" gradientUnits="userSpaceOnUse" r="4.572266" xlink:href="#c"/><g opacity=".4" transform="matrix(.84210526 0 0 .42857134 -4.210526 8.857146)"><path d="m38 40h5v7h-5z" fill="url(#i)"/><path d="m-10-47h5v7h-5z" fill="url(#k)" transform="scale(-1)"/><path d="m10 40h28v7.000001h-28z" fill="url(#l)"/></g><path d="m3.5 9.5h25c1.297092 0 2 3.324604 2 5v12.000368c.01033.964169-1.033653 1.068845-1.762738 1-8.745754 0-17.491508 0-26.2372625 0-.9641691.01033-1.0688452-1.033653-1-1.762737v-11.237631s.474654-5 2.0000005-5z" fill="url(#v)" opacity=".9"/><path d="m2.499999 15.5h27v11h-27z" fill="none" opacity=".25" stroke="url(#m)" stroke-linecap="round" stroke-linejoin="round"/><path d="m3.5 9.5h25c1.449291 0 1.999999 5 1.999999 5v11.99961c.0082.980409-1.057344 1.065948-1.793221 1-8.735593 0-17.471186 0-26.2067787 0-.9804089.0082-1.0659481-1.057345-1-1.793221v-11.206389s.5269137-5 2.0000007-5z" fill="none" opacity=".7" stroke="#000" stroke-linecap="round" stroke-linejoin="round"/><path d="m2-15h28v1h-28z" opacity=".4" transform="scale(1 -1)"/><path d="m26.5 17h2v2h-2z" fill="#0cceff"/><path d="m6.4999609 23.000039c4.3538641 0 18.9999761.00067 18.9999761.00067l.000024 8.49933s-12.666667 0-19.0000001 0c0-3.5 0-4.999999 0-8.5z" fill="url(#q)"/><path d="m24.5 30.5h-17.0000001v-7h17.0000001z" fill="none" stroke="url(#p)" stroke-linecap="round" stroke-linejoin="round"/><path d="m6.4999609 22.499961c4.3538821 0 19.0000551.000573 19.0000551.000573l.000023 8.999505s-12.666718 0-19.0000781 0c0-3.000026 0-6.000052 0-9.000077z" fill="none" opacity=".3" stroke="#000" stroke-linejoin="round" stroke-width=".999922"/><path d="m10 24v1h6.65625v-1zm9.34375 0v1h2.65625v-1zm-9.34375 2v1h4v-1zm6.65625 0v1h5.34375v-1zm-6.65625 2v1h12v-1z" opacity=".15"/><path d="m6 23h20v1h-20z" opacity=".15"/><path d="m4 10.499998h24c.835818 0 1.499999 3 1.499999 3-9 0-27 0-27 0s.579915-3 1.500001-3z" fill="none" opacity=".1" stroke="url(#t)" stroke-linecap="round" stroke-linejoin="round"/><path d="m6.4999609 3.5000391c4.3538641 0 18.9999761.0004146 18.9999761.0004146l.000024 8.4995853s-12.666667 0-19.0000001 0c0-2.1666665 0-6.3333327 0-8.4999999z" fill="url(#s)"/><path d="m24.5 11.500039h-17.0000001v-6.9999999h17.0000001z" fill="none" stroke="url(#r)" stroke-linecap="round" stroke-linejoin="round"/><path d="m6.4999609 3.5 19.0000551.00185.000023 8.998189h-19.0000781z" fill="none" opacity=".3" stroke="#000" stroke-linejoin="round" stroke-width=".999922"/><path d="m6 9h20v4h-20z" fill="url(#u)" opacity=".3"/><g fill-rule="evenodd" transform="matrix(.9520026 0 0 .9520026 -.228632 .268903)"><path d="m23.152538 18.480569a3.9975098 3.9978559 48 1 1 -7.990539.279377 3.9975098 3.9978559 48 1 1 7.990539-.279377z" fill="url(#w)" opacity=".8"/><path d="m19.144631 14.672501a4.1796688 4.2222849 48.622047 0 0 -4.19863 4.366972 4.1796688 4.2222849 48.622047 0 0 .180284 1.081829 9.1192772 9.2122579 48.622127 0 0 6.711843-4.501555 4.1796688 4.2222849 48.622047 0 0 -2.693497-.947246z" fill="url(#x)" opacity=".15"/></g><path d="m17.987424 11.497873c-3.583203 0-6.487962 2.90476-6.487962 6.487962s2.904759 6.487963 6.487962 6.487963c1.151178-.0023 2.281008-.310904 3.273549-.894067l3.67623 3.67623 1.358698-1.358698-3.531208-3.531209c1.09791-1.194782 1.708267-2.757596 1.710693-4.380219 0-3.583202-2.90476-6.487962-6.487962-6.487962zm0 2.162653a4.3253083 4.3253083 0 0 1 4.325307 4.325309 4.3253083 4.3253083 0 0 1 -4.325307 4.325308 4.3253083 4.3253083 0 0 1 -4.325309-4.325308 4.3253083 4.3253083 0 0 1 4.325309-4.325309z" fill="#8cd5ff" stroke="#002e99" stroke-opacity=".501961"/><path d="m35.620947 31.333264c0 1.932992-7.163346 3.499991-15.99978 3.499991-8.836435 0-15.99978-1.566999-15.99978-3.499991 0-1.932991 7.163345-3.499992 15.99978-3.499992 8.836434 0 15.99978 1.567001 15.99978 3.499992z" fill="url(#g)" opacity=".15" stroke-width="1.33333"/><rect fill="url(#e)" height="2.878719" rx=".666665" stroke-width=".713767" transform="matrix(.70710678 .70710678 -.70710678 .70710678 0 0)" width="8.241854" x="34.035732" y="-.859162"/><path d="m15.439542 7.0503755a6.175129 6.1737479 0 0 0 -6.3549449 6.1729365 6.175129 6.1737479 0 0 0 .2170944 1.600797 13.473009 13.469996 0 0 0 10.0499345-6.2233724 6.175129 6.1737479 0 0 0 -3.912084-1.5503611z" fill="url(#d)" fill-rule="evenodd" opacity=".15" stroke-width="1.33333"/><g fill="none"><path d="m23.504011 18.000001c0 3.039777-2.464325 5.504018-5.503749 5.504018-3.039703 0-5.503884-2.464269-5.503884-5.504018 0-3.039632 2.464181-5.503623 5.503884-5.503623 3.039424 0 5.503749 2.463991 5.503749 5.503623z" opacity=".5" stroke="url(#a)" stroke-linecap="round" stroke-linejoin="round"/><path d="m23.694736 26 1.072363-1 4.732901 4.769257" opacity=".5" stroke="url(#b)"/><rect height="2.847175" rx=".666665" stroke="#3d211b" stroke-opacity=".419608" transform="matrix(.70710678 .70710678 -.70710678 .70710678 0 0)" width="8.257626" x="34.168781" y="-.716481"/></g></svg>