<svg height="32" width="32" xmlns="http://www.w3.org/2000/svg" xmlns:xlink="http://www.w3.org/1999/xlink"><linearGradient id="a"><stop offset="0"/><stop offset="1" stop-opacity="0"/></linearGradient><linearGradient id="b" gradientTransform="matrix(.56756757 0 0 .72972971 2.378382 -2.513506)" gradientUnits="userSpaceOnUse" x1="23.99999" x2="23.99999" y1="5.56415" y2="43"><stop offset="0" stop-color="#fff"/><stop offset=".03626217" stop-color="#fff" stop-opacity=".235294"/><stop offset=".95056331" stop-color="#fff" stop-opacity=".156863"/><stop offset="1" stop-color="#fff" stop-opacity=".392157"/></linearGradient><linearGradient id="c"><stop offset="0" stop-color="#f4f4f4"/><stop offset="1" stop-color="#dbdbdb"/></linearGradient><linearGradient id="d" gradientTransform="matrix(.62856997 0 0 .60839392 .91432 -.534791)" gradientUnits="userSpaceOnUse" x1="25.132275" x2="25.132275" xlink:href="#c" y1=".985206" y2="47.013336"/><radialGradient id="e" cx="605.71429" cy="486.64789" gradientTransform="matrix(.01566318 0 0 .00823529 17.610433 25.980565)" gradientUnits="userSpaceOnUse" r="117.14286" xlink:href="#a"/><radialGradient id="f" cx="605.71429" cy="486.64789" gradientTransform="matrix(-.01566318 0 0 .00823529 14.389566 25.980565)" gradientUnits="userSpaceOnUse" r="117.14286" xlink:href="#a"/><linearGradient id="g" gradientTransform="matrix(.04576928 0 0 .00823529 -.542324 25.980548)" gradientUnits="userSpaceOnUse" x1="302.85715" x2="302.85715" y1="366.64789" y2="609.50507"><stop offset="0" stop-opacity="0"/><stop offset=".5"/><stop offset="1" stop-opacity="0"/></linearGradient><linearGradient id="h" gradientTransform="matrix(.53064141 0 0 .58970049 39.269607 -1.791918)" gradientUnits="userSpaceOnUse" x1="-51.786404" x2="-51.786404" y1="50.786446" y2="2.906247"><stop offset="0" stop-opacity=".317829"/><stop offset="1" stop-opacity=".24031"/></linearGradient><linearGradient id="i" gradientUnits="userSpaceOnUse" x1="10" x2="10" y1="-5" y2="17"><stop offset="0" stop-color="#fff"/><stop offset="1" stop-color="#fff" stop-opacity="0"/></linearGradient><linearGradient id="j" gradientUnits="userSpaceOnUse" x1="12" x2="12" y1="18" y2="7"><stop offset="0" stop-color="#232323"/><stop offset=".80000001" stop-color="#535353"/><stop offset=".80000001" stop-color="#676767"/><stop offset="1" stop-color="#676767"/></linearGradient><linearGradient id="k" gradientTransform="matrix(.48571543 0 0 -.25856743 -.65717 10.218952)" gradientUnits="userSpaceOnUse" x1="30.176456" x2="30.176456" xlink:href="#l" y1="47.256348" y2="-26.225452"/><linearGradient id="l" gradientTransform="matrix(.48571543 0 0 .45629666 -34.657171 -3.313874)" gradientUnits="userSpaceOnUse" x1="25.132275" x2="25.132275" xlink:href="#c" y1=".985206" y2="47.013336"/><linearGradient id="m" gradientTransform="matrix(.48571543 0 0 -.25856743 -.657131 24.718969)" gradientUnits="userSpaceOnUse" x1="28.117558" x2="28.117558" xlink:href="#l" y1="91.732239" y2="22.117901"/><linearGradient id="n" gradientTransform="matrix(.40540511 0 0 .51351351 2.269687 -2.324319)" gradientUnits="userSpaceOnUse" x1="23.99999" x2="23.99999" y1="6.473675" y2="41.526306"><stop offset="0" stop-color="#fff"/><stop offset=".05592935" stop-color="#fff" stop-opacity=".235294"/><stop offset="1" stop-color="#fff" stop-opacity=".156863"/><stop offset="1" stop-color="#fff" stop-opacity=".392157"/></linearGradient><path d="m4.949989 29h22.100021v2h-22.100021z" fill="url(#g)" opacity=".15"/><path d="m4.9499887 29.000086v1.99989c-.806615.0038-1.950002-.448074-1.950002-1.000074s.900121-.999816 1.950002-.999816z" fill="url(#f)" opacity=".15"/><path d="m27.050011 29.000086v1.99989c.806614.0038 1.950002-.448074 1.950002-1.000074s-.900122-.999816-1.950002-.999816z" fill="url(#e)" opacity=".15"/><path d="m5 1c5.041316 0 21.999973.00179 21.999973.00179l.000027 27.99821s-14.666666 0-22 0c0-9.333333 0-18.666664 0-27.9999959z" fill="url(#d)"/><path d="m26.5 28.5h-21v-27h21z" fill="none" stroke="url(#b)" stroke-linecap="round" stroke-linejoin="round"/><path d="m4.499961.499944c5.27048 0 23.000054.002 23.000054.002l.000024 28.998112s-15.333385 0-23.000078 0c0-9.666722 0-19.333346 0-28.999956z" fill="none" stroke="url(#h)" stroke-linejoin="round" stroke-width=".999922"/><g transform="translate(10 10.999789)"><path d="m6 1v1c4.157995.0000752 11.292656-.0000752 12 0v-1c-.707344-.0000752-7.842005.0000752-12 0z" fill="#fff" opacity=".4"/><path d="m6 1v14h12v-14zm1 1h10v12h-10z" fill="url(#i)" opacity=".4"/><path d="m4.78125 5.5-.125.15625-2 2-.15625.125v.21875 9 .5h.5 18 .5v-.5-9-.21875l-.15625-.125-2-2-.125-.15625h-.21875-14z" fill="url(#j)"/><path d="m4.78125 5.5-.125.15625-2 2-.15625.125v.21875 9 .5h.5 18 .5v-.5-9-.21875l-.15625-.125-2-2-.125-.15625h-.21875-14z" fill="none" opacity=".71" stroke="#000"/><path d="m5.4999609 7c3.8955809 0 13.0000591-.0007936 13.0000591-.0007936l.000021-6.4992434h-13.0000801v6.5000021z" fill="url(#k)"/><path d="m3 8h18v1h-18z" fill="#fff" opacity=".2"/><path d="m5.34375 0c-.2141708.07015267-.3549418.27491056-.34375.5v6.5h1v-6c3.9461392.0000956 11.37307-.0000956 12 0v6h1v-6.5c-.000006-.27613987-.22386-.49999396-.5-.5h-13c-.031181-.00293609-.062569-.00293609-.09375 0-.0208129-.00130333-.0416871-.00130333-.0625 0z" opacity=".3"/><path d="m5.499961 7h13v1h-13z" opacity=".4"/><path d="m5-16h14v1h-14z" fill="#505050" transform="scale(1 -1)"/><path d="m6 14h12v1h-12z" opacity=".2"/><path d="m5 16h14v1h-14z" opacity=".4"/><path d="m19 20-.49992-5.00002h-13.00008l-.5 5.00002z" fill="url(#m)"/><path d="m5 14.875-.5 5.5c-.0774428.29945.1908541.634821.5.625h14c.309146.0098.577443-.32555.5-.625l-.5-5.5v.125h-.90625v.5l.25 4.5h-.25v.03125h-11.09375v-.03125h-1.34375l.25-4.5v-.5h-.90625z" opacity=".3"/><path d="m7 16h9v1h-9z" opacity=".2"/><path d="m18 10h2v2h-2z" fill="#0cceff"/><path d="m17.501924 6.5053902-11.0076183-.00519.00978-4.9989306 10.9973463.00328z" fill="none" stroke="url(#n)" stroke-linecap="round"/><path d="m10 18h6v1h-6z" opacity=".2"/></g></svg>