<svg height="32" viewBox="0 0 8.4666665 8.4666669" width="32" xmlns="http://www.w3.org/2000/svg" xmlns:xlink="http://www.w3.org/1999/xlink"><linearGradient id="a" gradientTransform="matrix(.64265169 0 0 .18108724 -142.99996 -5.507326)" gradientUnits="userSpaceOnUse" x1="229.10278" x2="229.10278" y1="42.101215" y2="65.478531"><stop offset="0" stop-color="#f7f7f7"/><stop offset=".5" stop-color="#ececec"/><stop offset="1" stop-color="#dfdfdf"/></linearGradient><linearGradient id="b" gradientTransform="matrix(.26458484 0 0 .26458333 -20.905474 -72.442418)" gradientUnits="userSpaceOnUse" x1="94.012276" x2="94.012276" y1="283.79813" y2="295.79813"><stop offset="0" stop-color="#fff"/><stop offset=".05117575" stop-color="#fff" stop-opacity=".235294"/><stop offset=".99999964" stop-color="#fff" stop-opacity=".156863"/><stop offset="1" stop-color="#fff" stop-opacity=".392157"/></linearGradient><g stroke-width=".264583"><path d="m.92604168 2.2489583c-.29315798.0000798-.5292042.2360067-.52916666.5291667l.00037306 2.9138846c.00003752.2931599.23600868.5292463.52916666.5291666l6.61148206-.0018c.2931581-.0000788.529204-.2360059.5291666-.5291658l-.0003704-2.9138845c-.0000375-.29316-.2360086-.5292464-.5291666-.5291667z" fill="url(#a)"/><g fill="none" stroke-linecap="round" stroke-linejoin="round"><path d="m7.5395914 2.5122604-6.61096593.00207c-.14657999.00006-.26460206.1180033-.26458333.2645833l.00037306 2.9138853c.00001815.1419992.1114796.2549906.25166423.2619994h6.62181737c.1465799 0 .2646021-.1180034.2645833-.2645833l-.0003704-2.9138881c-.0000185-.1458365-.1169704-.2628777-.2625161-.2640666z" stroke="url(#b)"/><path d="m.92604165 2.2502609c-.2931579 0-.52920412.2360067-.52916665.5291667l.00037306 2.9138845c.00003611.2826647.22018095.5099936.49867756.526066h6.64197118c.2931581 0 .529204-.2360067.5291666-.5291666l-.0003725-2.9138845c-.000036-.2821841-.2193054-.5092966-.4971272-.5260661z" opacity=".2" stroke="#000"/></g></g><g stroke-width=".529167"><g fill="#fbfbfb"><path d="m2.3812499 3.9687499h.5291667v.5291666h-.5291667z"/><path d="m2.9104166 3.4395832h.5291666v.5291667h-.5291666z"/><path d="m3.4395832 3.9687499h.5291667v.5291666h-.5291667z"/><path d="m2.3812499 4.4979165h.5291667v.5291667h-.5291667z"/><path d="m3.4395832 4.4979165h.5291667v.5291667h-.5291667z"/><path d="m2.9104166 5.0270832h.5291666v.5291666h-.5291666z"/><path d="m4.4979166 3.4395832h.5291666v.5291667h-.5291666z"/><path d="m4.4979166 3.9687499h.5291666v.5291666h-.5291666z"/><path d="m4.4979166 4.4979165h.5291666v.5291667h-.5291666z"/><path d="m4.4979166 5.0270832h.5291666v.5291666h-.5291666z"/><path d="m5.5562499 3.4395832h.5291666v.5291667h-.5291666z"/><path d="m5.0270832 3.9687499h.5291667v.5291666h-.5291667z"/><path d="m5.5562499 4.4979165h.5291666v.5291667h-.5291666z"/><path d="m5.5562499 5.0270832h.5291666v.5291666h-.5291666z"/></g><g fill="#666"><path d="m2.3812499 3.7041699h.5291667v.5291666h-.5291667z"/><path d="m2.9104166 3.1750032h.5291666v.5291667h-.5291666z"/><path d="m3.4395832 3.7041699h.5291667v.5291666h-.5291667z"/><path d="m2.3812499 4.2333365h.5291667v.5291667h-.5291667z"/><path d="m3.4395832 4.2333365h.5291667v.5291667h-.5291667z"/><path d="m2.9104166 4.7625032h.5291666v.5291666h-.5291666z"/><path d="m4.4979166 3.1750032h.5291666v.5291667h-.5291666z"/><path d="m4.4979166 3.7041699h.5291666v.5291666h-.5291666z"/><path d="m4.4979166 4.2333365h.5291666v.5291667h-.5291666z"/><path d="m4.4979166 4.7625032h.5291666v.5291666h-.5291666z"/><path d="m5.5562499 3.1750032h.5291666v.5291667h-.5291666z"/><path d="m5.0270832 3.7041699h.5291667v.5291666h-.5291667z"/><path d="m5.5562499 4.2333365h.5291666v.5291667h-.5291666z"/><path d="m5.5562499 4.7625032h.5291666v.5291666h-.5291666z"/></g></g></svg>