<svg height="32" viewBox="0 0 32 32" width="32" xmlns="http://www.w3.org/2000/svg" xmlns:xlink="http://www.w3.org/1999/xlink"><linearGradient id="a" gradientUnits="userSpaceOnUse" x1="11.271191" x2="11.271191" y1="3.232" y2="19.709082"><stop offset="0" stop-color="#fff"/><stop offset=".507761" stop-color="#fff" stop-opacity=".235294"/><stop offset=".83456558" stop-color="#fff" stop-opacity=".156863"/><stop offset="1" stop-color="#fff" stop-opacity=".392157"/></linearGradient><linearGradient id="b" gradientUnits="userSpaceOnUse" x1="25.200207" x2="25.200207" y1="20.163998" y2="28.868013"><stop offset="0" stop-color="#f3f3f3"/><stop offset="1" stop-color="#f3f3f3" stop-opacity="0"/></linearGradient><radialGradient id="c" cx="8.072266" cy="5.962701" fx="6" fy="3.371369" gradientTransform="matrix(1.1227507 0 0 .85038266 1.15497 3.865355)" gradientUnits="userSpaceOnUse" r="4.572266"><stop offset="0" stop-color="#fff"/><stop offset="1" stop-color="#fff" stop-opacity=".526471"/></radialGradient><radialGradient id="d" cx="22.099527" cy="24.537743" gradientTransform="matrix(.78294667 0 0 .78277156 -2.27147 -2.964306)" gradientUnits="userSpaceOnUse" r="8.308505"><stop offset="0" stop-color="#fff" stop-opacity=".426901"/><stop offset="1" stop-color="#fff" stop-opacity=".362573"/></radialGradient><linearGradient id="e" gradientTransform="matrix(.94444444 0 0 1 26.512182 3.670096)" gradientUnits="userSpaceOnUse" x1="34.855602" x2="34.842903" y1="3.174535" y2="1.690859"><stop offset="0" stop-color="#a3907c"/><stop offset="1" stop-color="#f9c440"/></linearGradient><radialGradient id="f" cx="6.702713" cy="73.615715" fx="11.969189" fy="75.92881" gradientTransform="matrix(2.2134562 0 0 .4841989 .785007 -6.311383)" gradientUnits="userSpaceOnUse" r="7.228416"><stop offset="0"/><stop offset="1" stop-opacity="0"/></radialGradient><path d="m11.5 2.5c-4.9705628-.0000001-9.0000001 4.0294372-9 9-.0000001 4.970563 4.0294372 9 9 9 1.596896-.0032 3.164179-.43128 4.541016-1.240234l5.099609 5.099609 1.884766-1.884766-4.898438-4.898437c1.523003-1.657383 2.369681-3.825295 2.373047-6.076172 0-4.9705628-4.029437-9.0000001-9-9zm0 3a6.0000003 6.0000003 0 0 1 6 6 6.0000003 6.0000003 0 0 1 -6 6 6.0000003 6.0000003 0 0 1 -6-6 6.0000003 6.0000003 0 0 1 6-6z" fill="#8cd5ff" stroke="#002e99" stroke-opacity=".501961"/><path d="m31.620947 29.333264c0 1.932992-7.163346 3.499991-15.99978 3.499991-8.8364352 0-15.99977997-1.566999-15.99977997-3.499991 0-1.932991 7.16334477-3.499992 15.99977997-3.499992 8.836434 0 15.99978 1.567001 15.99978 3.499992z" fill="url(#f)" opacity=".15" stroke-width="1.33333"/><rect fill="url(#e)" height="4.033135" rx=".666665" transform="matrix(.70710678 .70710678 -.70710678 .70710678 0 0)" width="11.54698" x="28.59095" y="-1.076285"/><path d="m18.005117 11.499975a6.5051167 6.5036619 0 1 1 -13.0102333 0 6.5051167 6.5036619 0 1 1 13.0102333 0z" fill="url(#d)" fill-rule="evenodd" opacity=".2" stroke-width="1.33333"/><path d="m11.439542 5.0503755a6.175129 6.1737479 0 0 0 -6.3549449 6.1729365 6.175129 6.1737479 0 0 0 .2170944 1.600797 13.473009 13.469996 0 0 0 10.0499345-6.2233724 6.175129 6.1737479 0 0 0 -3.912084-1.5503611z" fill="url(#c)" fill-rule="evenodd" opacity=".15" stroke-width="1.33333"/><g fill="none"><path d="m19.5 11.499684c0 4.418427-3.581988 8.000291-7.999903 8.000291-4.4183185 0-8.0000971-3.581906-8.0000971-8.000291 0-4.418217 3.5817786-7.9997178 8.0000971-7.9997178 4.417915 0 7.999903 3.5815008 7.999903 7.9997178z" opacity=".5" stroke="url(#a)" stroke-linecap="round" stroke-linejoin="round" stroke-width=".923079"/><path d="m19.22547 22.62807 1.74579-1.746613 7.099677 7.068425" opacity=".5" stroke="url(#b)"/><rect height="3.988942" rx=".666665" stroke="#3d211b" stroke-opacity=".419608" transform="matrix(.70710678 .70710678 -.70710678 .70710678 0 0)" width="11.569077" x="28.59095" y="-1.076285"/></g></svg>