<svg height="32" width="32" xmlns="http://www.w3.org/2000/svg" xmlns:xlink="http://www.w3.org/1999/xlink"><linearGradient id="a" gradientTransform="matrix(.50842 0 0 .4913 43.485 12.69)" gradientUnits="userSpaceOnUse" x1="8.948" x2="13.736" y1="2.634" y2="22.179"><stop offset="0" stop-color="#f8b17e"/><stop offset=".312" stop-color="#e35d4f"/><stop offset=".571" stop-color="#c6262e"/><stop offset="1" stop-color="#690b54"/></linearGradient><linearGradient id="b" gradientTransform="matrix(.87818 0 0 .88434 13.56 3.406)" gradientUnits="userSpaceOnUse" x1="-2.206" x2=".228" y1="18.796" y2="-4.382"><stop offset="0" stop-color="#791235"/><stop offset="1" stop-color="#dd3b27"/></linearGradient><linearGradient id="c" gradientTransform="matrix(.53153 -.53097 .53153 .53097 -14.042 11.965)" gradientUnits="userSpaceOnUse" x1="36.011" x2="16.331" xlink:href="#d" y1="13.023" y2="32.702"/><linearGradient id="d"><stop offset="0" stop-color="#fff"/><stop offset="1" stop-color="#fff" stop-opacity="0"/></linearGradient><linearGradient id="e" gradientTransform="matrix(.53153 -.53097 .53153 .53097 -14.578 12.234)" gradientUnits="userSpaceOnUse" x1="28.449" x2="16.331" xlink:href="#d" y1="20.584" y2="32.702"/><linearGradient id="f"><stop offset="0"/><stop offset="1" stop-opacity="0"/></linearGradient><linearGradient id="g" xlink:href="#f"/><linearGradient id="h" gradientTransform="matrix(.56757 0 0 .72973 2.378 -2.514)" gradientUnits="userSpaceOnUse" x1="24" x2="24" y1="5.564" y2="43"><stop offset="0" stop-color="#fff"/><stop offset=".036" stop-color="#fff" stop-opacity=".235"/><stop offset=".951" stop-color="#fff" stop-opacity=".157"/><stop offset="1" stop-color="#fff" stop-opacity=".392"/></linearGradient><linearGradient id="i" gradientTransform="matrix(.62857 0 0 .6084 .914 -.535)" gradientUnits="userSpaceOnUse" x1="25.132" x2="25.132" y1=".985" y2="47.013"><stop offset="0" stop-color="#f4f4f4"/><stop offset="1" stop-color="#dbdbdb"/></linearGradient><radialGradient id="j" cx="605.714" cy="486.648" gradientTransform="matrix(.01566 0 0 .00824 17.61 25.98)" gradientUnits="userSpaceOnUse" r="117.143" xlink:href="#g"/><radialGradient id="k" cx="605.714" cy="486.648" gradientTransform="matrix(-.01566 0 0 .00824 14.39 25.98)" gradientUnits="userSpaceOnUse" r="117.143" xlink:href="#g"/><linearGradient id="l" gradientTransform="matrix(.04577 0 0 .00824 -.542 25.98)" gradientUnits="userSpaceOnUse" x1="302.857" x2="302.857" y1="366.648" y2="609.505"><stop offset="0" stop-opacity="0"/><stop offset=".5"/><stop offset="1" stop-opacity="0"/></linearGradient><linearGradient id="m" gradientTransform="matrix(.53064 0 0 .5897 39.27 -1.792)" gradientUnits="userSpaceOnUse" x1="-51.786" x2="-51.786" y1="50.786" y2="2.906"><stop offset="0" stop-opacity=".318"/><stop offset="1" stop-opacity=".24"/></linearGradient><radialGradient id="n" cx="24.837" cy="36.421" gradientTransform="matrix(.80967 0 0 .21306 -4.11 18.902)" gradientUnits="userSpaceOnUse" r="15.645" xlink:href="#f"/><path d="m4.95 29h22.1v2h-22.1z" fill="url(#l)" opacity=".15"/><path d="m4.95 29v2c-.807.004-1.95-.448-1.95-1s.9-1 1.95-1z" fill="url(#k)" opacity=".15"/><path d="m27.05 29v2c.807.004 1.95-.448 1.95-1s-.9-1-1.95-1z" fill="url(#j)" opacity=".15"/><path d="m5 1 22 .002v27.998h-22z" fill="url(#i)"/><path d="m26.5 28.5h-21v-27h21z" fill="none" stroke="url(#h)" stroke-linecap="round" stroke-linejoin="round"/><path d="m4.5.5 23 .002v28.998h-23z" fill="none" stroke="url(#m)" stroke-linejoin="round"/><path d="m7 4h3v1h-3zm4 0h3v1h-3zm4 0h3v1h-3zm4 0h2v1h-2zm-12 3h4v1h-4zm5 0h4v1h-4z" fill="#aaa"/><path d="m17 7h2v1h-2z" fill="#e20000"/><path d="m20 7h5v1h-5zm-13 3h2v1h-2z" fill="#aaa"/><path d="m10 10h8v1h-8z" fill="#e20000"/><path d="m7 14h5v1h-5z" fill="#aaa"/><path d="m13 14h8v1h-8z" fill="#e20000"/><path d="m25 14h-3v1h3zm-15 3h-3v1h3z" fill="#aaa"/><path d="m13 17h-2v1h2z" fill="#e20000"/><path d="m14 17h5v1h-5zm10 0h-4v1h4zm-17 4h5v1h-5zm6 0h8v1h-8zm12 0h-3v1h3zm-12 3h-6v1h6zm1 0h2v1h-2zm9 0h-6v1h6z" fill="#aaa"/><path d="m28.667 26.662a12.667 3.333 0 1 1 -25.334 0 12.667 3.333 0 1 1 25.334 0z" fill="url(#n)" fill-rule="evenodd" opacity=".205" transform="matrix(.786 0 0 .786 9.895 10.03)"/><path d="m21.5 17.8-5.5-5.303 5.29-5.557-3.814-3.44-5.448 5.294-5.558-5.294-3.97 3.568 5.558 5.406-5.558 5.32 3.97 3.706 5.552-5.56 5.565 5.56z" fill="url(#a)" stroke="url(#b)" stroke-width="1.386" transform="matrix(.722 0 0 .722 15.574 15.16)"/><g fill="none" stroke-linecap="round" stroke-width="1.752"><path d="m18.918 7.066-1.368-1.196-5.59 5.117-5.48-5.224-1.395 1.407" opacity=".4" stroke="url(#c)" transform="matrix(.722 0 0 .722 15.574 15.16)"/><path d="m19.043 17.973-4.22-4.29m-5.604-.288-4.364 4.265" opacity=".4" stroke="url(#e)" transform="matrix(.722 0 0 .722 15.574 15.16)"/></g></svg>