<svg height="32" width="32" xmlns="http://www.w3.org/2000/svg" xmlns:xlink="http://www.w3.org/1999/xlink"><linearGradient id="a"><stop offset="0"/><stop offset="1" stop-opacity="0"/></linearGradient><radialGradient id="b" cx="1162.1" cy="1294.5" gradientTransform="matrix(.87946 -.11013 .063119 .75018 -1091.8 -829.59)" gradientUnits="userSpaceOnUse" r="11.902" xlink:href="#a"/><linearGradient id="c" gradientUnits="userSpaceOnUse" x1="13.51474" x2="13.51474" y1="7.3535" y2="20.3151"><stop offset="0" stop-color="#fe9ab8"/><stop offset="1" stop-color="#f4679d"/></linearGradient><linearGradient id="d" gradientUnits="userSpaceOnUse" x1="12.8103" x2="12.8103" y1="8.67958" y2="15.25216"><stop offset="0" stop-color="#fff"/><stop offset="0" stop-color="#fff" stop-opacity=".23529"/><stop offset="1" stop-color="#fff" stop-opacity=".15686"/><stop offset="1" stop-color="#fff" stop-opacity=".39216"/></linearGradient><radialGradient id="e" cx="13.93" cy="-.31844" gradientTransform="matrix(-2.2942 -.022669 .025292 -2.5597 45.896 -1.2834)" gradientUnits="userSpaceOnUse" r="9.0362"><stop offset="0" stop-color="#737373"/><stop offset=".26238" stop-color="#636363"/><stop offset=".70495" stop-color="#4b4b4b"/><stop offset="1" stop-color="#3f3f3f"/></radialGradient><radialGradient id="f" cx="22.571" cy="30.857" gradientTransform="matrix(.81697 0 0 .1567 -6.1433 14.385)" gradientUnits="userSpaceOnUse" r="15.571" xlink:href="#a"/><g transform="matrix(1.1422 0 0 1.1422 -.20775 2.0124)"><ellipse cx="12.297" cy="19.22" fill="url(#f)" opacity=".2" rx="12.721" ry="2.44"/><path d="m15.274 14.851h-5.188l-2.1519 3.993h-4.682l9.6909-18.025h4.804l2.702 17.976h-4.4252zm-3.9924-1.9958h4.5205l-.688-7.9675-4.186 7.9685" style="stroke-linejoin:round;stroke-opacity:.51867;stroke:#000;stroke-linecap:round;stroke-width:.8755;fill:url(#e)"/><path d="m14.576 2.9473-1.724 3.2089 1.244-2.0605h6.138l-.172-1.1484zm-1.601 12.416-1.467 2.483h.455 5.801l-.112-1.151h-4.974-.405zm-2.547 4.762-2.0667 3.412h.4942l1.8375-3.412z" fill="#fff" opacity=".2" transform="matrix(.8755 0 0 .8755 .18189 -1.7618)"/></g><g transform="matrix(.77463 0 0 .77463 13.01 13.344)"><g fill-rule="evenodd"><path d="m12.586-.22063-7.8898 15.276-1.9613 5.8257 2.7287.62419 12.196.20806 1.9613-1.7685 3.8372-8.9465 1.4092-9.2424z" fill="url(#b)"/><g stroke-linejoin="round" stroke-width="1.2909"><path d="m3.2079 20.856h12.409l4.3835-7.7148 1.751-10.733-1.148-1.1666-9.508.0622-1.5259 1.1185-6.3245 13.735z" fill="url(#c)" stroke="#e41b79" stroke-opacity=".5"/><path d="m5.2377 15.714 9.8823.04168 5.4451-12.081-.36788-.73243h-8.8883l-6.0206 12.827z" fill="#fff" fill-opacity=".5" opacity=".5" stroke="url(#d)"/></g></g><path d="m4.5101 16.611v2.9906h10.599" style="opacity:.2;stroke-linejoin:round;stroke:#fff;stroke-linecap:round;stroke-width:1.2909;fill:none"/></g></svg>