<svg height="32" width="32" xmlns="http://www.w3.org/2000/svg" xmlns:xlink="http://www.w3.org/1999/xlink"><linearGradient id="a" gradientUnits="userSpaceOnUse" x1="18" x2="18" y1="13" y2="17"><stop offset="0" stop-color="#fad4a1"/><stop offset="1" stop-color="#e6b481"/></linearGradient><linearGradient id="b" gradientTransform="matrix(0 .33333336 -.86363639 0 29.704545 -113.66668)" gradientUnits="userSpaceOnUse" x1="382.92136" x2="386" y1="21.697643" y2="21.657894"><stop offset="0" stop-color="#fff"/><stop offset="1" stop-color="#fff" stop-opacity="0"/></linearGradient><linearGradient id="c"><stop offset="0"/><stop offset="1" stop-opacity="0"/></linearGradient><linearGradient id="d" gradientTransform="matrix(.56756757 0 0 .72972971 2.378382 -2.513506)" gradientUnits="userSpaceOnUse" x1="23.99999" x2="23.99999" y1="5.56415" y2="43"><stop offset="0" stop-color="#fff"/><stop offset=".03626217" stop-color="#fff" stop-opacity=".235294"/><stop offset=".95056331" stop-color="#fff" stop-opacity=".156863"/><stop offset="1" stop-color="#fff" stop-opacity=".392157"/></linearGradient><linearGradient id="e" gradientTransform="matrix(.62856997 0 0 .60839392 .91432 -.534791)" gradientUnits="userSpaceOnUse" x1="25.132275" x2="25.132275" y1=".985206" y2="47.013336"><stop offset="0" stop-color="#f4f4f4"/><stop offset="1" stop-color="#dbdbdb"/></linearGradient><radialGradient id="f" cx="605.71429" cy="486.64789" gradientTransform="matrix(.01566318 0 0 .00823529 17.610433 25.980565)" gradientUnits="userSpaceOnUse" r="117.14286" xlink:href="#c"/><radialGradient id="g" cx="605.71429" cy="486.64789" gradientTransform="matrix(-.01566318 0 0 .00823529 14.389566 25.980565)" gradientUnits="userSpaceOnUse" r="117.14286" xlink:href="#c"/><linearGradient id="h" gradientTransform="matrix(.04576928 0 0 .00823529 -.542324 25.980548)" gradientUnits="userSpaceOnUse" x1="302.85715" x2="302.85715" y1="366.64789" y2="609.50507"><stop offset="0" stop-opacity="0"/><stop offset=".5"/><stop offset="1" stop-opacity="0"/></linearGradient><linearGradient id="i" gradientTransform="matrix(.53064141 0 0 .58970049 39.269607 -1.791918)" gradientUnits="userSpaceOnUse" x1="-51.786404" x2="-51.786404" y1="50.786446" y2="2.906247"><stop offset="0" stop-opacity=".317829"/><stop offset="1" stop-opacity=".24031"/></linearGradient><path d="m4.949989 29h22.100021v2h-22.100021z" fill="url(#h)" opacity=".15"/><path d="m4.9499887 29.000086v1.99989c-.806615.0038-1.950002-.448074-1.950002-1.000074s.900121-.999816 1.950002-.999816z" fill="url(#g)" opacity=".15"/><path d="m27.050011 29.000086v1.99989c.806614.0038 1.950002-.448074 1.950002-1.000074s-.900122-.999816-1.950002-.999816z" fill="url(#f)" opacity=".15"/><path d="m5 1c5.041316 0 21.999973.00179 21.999973.00179l.000027 27.99821s-14.666666 0-22 0c0-9.333333 0-18.666664 0-27.9999959z" fill="url(#e)"/><g fill="none" stroke-linejoin="round"><path d="m26.5 28.5h-21v-27h21z" stroke="url(#d)" stroke-linecap="round"/><path d="m4.499961.499944c5.27048 0 23.000054.002 23.000054.002l.000024 28.998112s-15.333385 0-23.000078 0c0-9.666722 0-19.333346 0-28.999956z" stroke="url(#i)" stroke-width=".999922"/></g><g transform="translate(1 -8)"><path d="m28.5 12.5v4h-27v-4z" fill="url(#a)" stroke="#783f07" stroke-opacity=".490196"/><path d="m27.5 13.5v2h-25v-2z" fill="none" opacity=".4" stroke="url(#b)"/><path d="m5 5v2h1v-2zm3 0v2h1v-2zm3 0v2h1v-2zm3 0v2h1v-2zm3 0v2h1v-2zm3 0v2h1v-2zm3 0v2h1v-2zm3 0v2h1v-2z" fill="#a1550a" fill-opacity=".25098" transform="translate(-1 8)"/></g></svg>