<svg height="32" width="32" xmlns="http://www.w3.org/2000/svg" xmlns:xlink="http://www.w3.org/1999/xlink"><linearGradient id="a"><stop offset="0" stop-opacity="0"/><stop offset=".5"/><stop offset="1" stop-opacity="0"/></linearGradient><linearGradient id="b" gradientTransform="matrix(.00931333 0 0 .00218017 2.718594 295.93636)" gradientUnits="userSpaceOnUse" x1="302.85699" x2="302.85699" xlink:href="#a" y1="366.64801" y2="609.505"/><radialGradient id="c" cx="605.71399" cy="486.64801" gradientTransform="matrix(-.00318823 0 0 .00218017 5.757333 295.93636)" gradientUnits="userSpaceOnUse" r="117.143" xlink:href="#d"/><linearGradient id="d"><stop offset="0"/><stop offset="1" stop-opacity="0"/></linearGradient><radialGradient id="e" cx="605.71399" cy="486.64801" gradientTransform="matrix(.00318823 0 0 .00218017 6.4135 295.93636)" gradientUnits="userSpaceOnUse" r="117.143" xlink:href="#d"/><linearGradient id="f"><stop offset="0" stop-color="#f4f4f4"/><stop offset="1" stop-color="#dbdbdb"/></linearGradient><linearGradient id="g" gradientTransform="matrix(.12851109 0 0 .12072887 3.001533 291.00697)" gradientUnits="userSpaceOnUse" x1="25.132" x2="25.132" xlink:href="#f" y1=".985" y2="47.013"/><linearGradient id="h"><stop offset="0" stop-color="#fff"/><stop offset="0" stop-color="#fff" stop-opacity=".235"/><stop offset="1" stop-color="#fff" stop-opacity=".157"/><stop offset="1" stop-color="#fff" stop-opacity=".392"/></linearGradient><linearGradient id="i" gradientTransform="matrix(.10726208 0 0 .13586354 3.511021 290.82884)" gradientUnits="userSpaceOnUse" x1="24" x2="24" xlink:href="#h" y1="6.583" y2="41.507"/><linearGradient id="j" gradientUnits="userSpaceOnUse" x1="7.294563" x2="7.294563" y1="291.33975" y2="296.87881"><stop offset="0" stop-opacity=".239"/><stop offset="1" stop-opacity=".318"/></linearGradient><linearGradient id="k" gradientUnits="userSpaceOnUse" x1="11.704" x2="11.704" y1="27.198999" y2="20.500999"><stop offset="0" stop-color="#fff"/><stop offset="1" stop-color="#fff" stop-opacity="0"/></linearGradient><linearGradient id="l" gradientTransform="matrix(0 -.78378 .62162 0 .08 33.81)" gradientUnits="userSpaceOnUse" x1="39.344807" x2="6.136926" xlink:href="#h" y1="25.614" y2="25.610502"/><linearGradient id="m" gradientTransform="matrix(.11022 .00852 -.0091 .10377 32.66 16.157)" gradientUnits="userSpaceOnUse" x1="-211.289" x2="-208.497" y1="88.75" y2="75.191"><stop offset="0" stop-color="#ec4502"/><stop offset="1" stop-color="#fe7617"/></linearGradient><linearGradient id="n" gradientTransform="matrix(.10884 0 0 .10845 27.793 13.848)" gradientUnits="userSpaceOnUse" x1="-184.924" x2="-175.253" y1="113.979" y2="88.801"><stop offset="0" stop-color="#7a0f01"/><stop offset="1" stop-color="#d31807"/></linearGradient><linearGradient id="o" gradientTransform="matrix(.0845 0 0 .01235 -6.54 38.47)" gradientUnits="userSpaceOnUse" x1="302.857" x2="302.857" xlink:href="#a" y1="366.648" y2="609.505"/><radialGradient id="p" cx="605.714" cy="486.648" gradientTransform="matrix(-.01928 0 0 .01647 16.018 20.96)" gradientUnits="userSpaceOnUse" r="117.143" xlink:href="#d"/><radialGradient id="q" cx="605.714" cy="486.648" gradientTransform="matrix(.01928 0 0 .01647 13.982 20.96)" gradientUnits="userSpaceOnUse" r="117.143" xlink:href="#d"/><linearGradient id="r" gradientTransform="matrix(.7152 0 0 .50836 47.363 .524)" gradientUnits="userSpaceOnUse" x1="-67.622" x2="-18.684" y1="28.48" y2="28.48"><stop offset="0" stop-opacity=".318"/><stop offset="1" stop-opacity=".24"/></linearGradient><linearGradient id="s" gradientTransform="matrix(0 -.88775216 .54523107 0 1.030971 36.268929)" gradientUnits="userSpaceOnUse" x1="38.60191" x2="5.935135" xlink:href="#f" y1="29.288551" y2="29.288551"/><linearGradient id="t" gradientTransform="matrix(.17104 0 0 .1707 41.255 6.744)" gradientUnits="userSpaceOnUse" x1="-107.456" x2="-107.456" y1="-37.385" y2="38.561"><stop offset="0" stop-color="#0b85e9"/><stop offset="1" stop-color="#69d1ef"/></linearGradient><linearGradient id="u" gradientTransform="matrix(.17104 0 0 .1707 37.255 9.744)" gradientUnits="userSpaceOnUse" x1="-96.557" x2="-96.557" y1="110.925" y2="39.992"><stop offset="0" stop-color="#e89c42"/><stop offset="1" stop-color="#faca67"/></linearGradient><g opacity=".4"><path d="m6.6 43h31.8v3h-31.8z" fill="url(#o)" transform="matrix(.66666 0 0 1.33333 1 -29.333)"/><path d="m4.4 27v4c-.993.008-2.4-.896-2.4-2s1.108-2 2.4-2z" fill="url(#p)" transform="translate(1 1)"/><path d="m25.6 27v4c.993.008 2.4-.896 2.4-2s-1.108-2-2.4-2z" fill="url(#q)" transform="translate(1 1)"/></g><path d="m4.498 30.5.00209-29h22.99991v29z" fill="url(#s)" stroke-width="1.040618"/><path d="m26.5 2.5v27h-21v-27z" fill="none" stroke="url(#l)" stroke-linejoin="round"/><g fill="none"><path d="m.5 4.5 29 .002v22.998h-29z" stroke="url(#r)" stroke-linejoin="round" transform="matrix(0 -1 1 0 0 31)"/><path d="m25.498 3.5v25h-19v-25z" opacity=".2" stroke="#000" stroke-linecap="round"/></g><path d="m2 6v20l26 .002v-20z" fill="url(#u)" transform="matrix(0 -1 1 0 0 31)"/><path d="m6 3v16.205c.386.178.874.342 1.402.342 1.207 0 2.39-.975 4.405-.975s3.53 1.225 6.07 1.225c2.542 0 3.113-1.772 6.353-1.772.766 0 1.323.067 1.77.163v-15.188z" fill="url(#t)"/><path d="m6 3v17.092c.58.154 1.334.28 2.23.28 2.287 0 1.96-.767 3.93-.767s3.13 1.254 5.79 1.254c3.297 0 4.054-2.02 6.663-2.02.59 0 1.016.096 1.387.228v-16.065z" opacity=".07"/><g fill="#fff"><path d="m24.23 15.652c-1.702 0-2.773.48-3.65.928-.876.45-1.537.844-2.703.844-1.198 0-2.146-.288-3.088-.592-.944-.304-1.885-.633-2.983-.633-1.08 0-1.95.253-2.66.5-.71.25-1.262.472-1.745.472-.436 0-.86-.15-1.21-.31-.06-.03-.125-.044-.192-.044v1.93c.598.15 1.35.268 2.23.268 1.194 0 1.802-.22 2.26-.414.46-.194.744-.354 1.67-.354.89 0 1.605.29 2.483.606s1.905.648 3.308.648c1.74 0 2.875-.55 3.812-1.06.938-.513 1.663-.96 2.85-.96.624 0 1.02.12 1.388.274v-1.94c-.47-.093-1.03-.162-1.77-.162z" opacity=".1"/><path d="m24.23 16.457c-3.24 0-3.812 1.77-6.353 1.77-2.54 0-4.056-1.223-6.07-1.223-2.016 0-3.198.973-4.405.973-.528 0-1.016-.162-1.402-.34v1.017c.58.154 1.334.28 2.23.28 2.287 0 1.96-.766 3.93-.766s3.13 1.252 5.79 1.252c3.297 0 4.054-2.02 6.663-2.02.59 0 1.016.097 1.387.23v-1.01c-.447-.097-1.003-.163-1.77-.163z" opacity=".3"/><path d="m24.23 17.156c-3.24 0-3.812 1.772-6.353 1.772-2.54 0-4.056-1.227-6.07-1.227-2.016 0-3.198.976-4.405.976-.528 0-1.016-.16-1.402-.34v1.02c.58.152 1.334.28 2.23.28 2.287 0 1.96-.77 3.93-.77s3.13 1.253 5.79 1.253c3.297 0 4.054-2.02 6.663-2.02.59 0 1.016.098 1.387.23v-1.012c-.447-.095-1.003-.16-1.77-.16z"/></g><path d="m9.958 21.283c-.11-.008-.23 0-.354.04-.48.16-.535.477-.578.63-.043.15-.052.268-.06.393-.013.248-.002.51.01.77.01.215.018.406.022.574-.165.04-.348.08-.558.124-.265.056-.532.112-.777.188-.123.04-.24.077-.385.16-.074.04-.158.09-.257.2-.097.107-.217.31-.21.557.013.48.314.624.455.71.14.084.253.127.376.172.248.09.52.16.79.23.22.058.413.112.585.16-.013.16-.03.337-.05.538-.026.255-.05.508-.05.75.002.123.004.24.043.396.02.08.044.17.123.29.08.123.245.296.496.366.49.136.73-.086.86-.185.13-.1.208-.19.29-.288.168-.196.323-.417.476-.635.128-.18.24-.338.34-.476.16.06.333.13.53.21.25.1.5.202.746.276.124.037.24.07.41.084.084.008.186.014.334-.02.147-.032.37-.13.518-.33.29-.397.14-.685.08-.83-.06-.147-.127-.245-.2-.35-.143-.208-.32-.414-.493-.62-.142-.166-.264-.315-.373-.45.11-.12.234-.255.376-.407.178-.19.357-.383.508-.58.076-.1.147-.196.214-.344.034-.076.07-.163.082-.306.013-.142-.016-.373-.175-.568-.31-.38-.646-.332-.81-.324-.17.01-.29.037-.417.07-.255.064-.52.154-.78.246-.215.074-.404.14-.572.196-.09-.136-.185-.29-.295-.463-.138-.22-.277-.437-.43-.633-.077-.1-.147-.19-.276-.297-.065-.053-.144-.114-.284-.17-.07-.026-.167-.05-.276-.06zm1.256 1.7c.003 0 .025.006.03.005-.01 0-.034.008-.04.01-.01.002-.02-.012.01-.016zm.458.146c.04.03.037.043.03.034zm-2.377.472c.03-.014.033.004.023.008-.005.003-.034.01-.046.014.005-.003.02-.02.023-.02zm-.295.36v.039c-.002.015-.014.004 0-.038zm3.9.708c-.006-.01.01-.008.026.033l-.025-.032zm.013.46c-.017.042-.033.046-.027.036l.028-.037zm-3.882.747v.046c-.012-.045 0-.057 0-.046zm.26.396c.01.003.033.01.038.013.013.005.002.012-.037-.013zm2.45.427c.01-.01.01.007-.03.034.01-.008.026-.03.03-.034zm-.505.14.047.018c-.05-.004-.06-.02-.048-.017z" opacity=".05"/><path d="m9.87 22.034c-.263.088.046 1.985-.122 2.197-.16.206-2.15.413-2.142.668.007.263 2.023.57 2.185.785.158.208-.247 2.054.01 2.126.27.075 1.206-1.63 1.473-1.71.26-.077 1.996.852 2.15.642.158-.218-1.278-1.578-1.275-1.842.003-.254 1.48-1.524 1.317-1.726-.17-.21-1.993.654-2.26.57-.256-.08-1.078-1.795-1.334-1.71z" opacity=".15"/><path d="m7.74 20.45c.255-.085 1.08 1.63 1.336 1.71.266.085 2.086-.78 2.257-.57.165.2-1.313 1.47-1.316 1.726-.003.264 1.433 1.626 1.274 1.844-.15.21-1.89-.72-2.15-.645-.265.08-1.2 1.787-1.467 1.712-.26-.072.144-1.917-.013-2.125-.163-.215-2.176-.522-2.184-.786-.007-.255 1.98-.464 2.143-.67.165-.21-.146-2.108.12-2.196z" fill="url(#m)" transform="translate(2.13 .87)"/><path d="m9.887 21.317-.075.07c0 .002-.003.003-.003.004-.15.36.09 1.935-.063 2.127-.007.008-.016.02-.028.027l.06.04c1.227.364.154-2.19.123-2.263-.006 0-.01-.003-.017-.002z" fill="#9d0f06" opacity=".5"/><path d="m5.866 23.273c-.242.002-.38.013-.38.013v.058c.14.257 2.015.552 2.172.76.157.207-.246 2.052.014 2.124.268.075 1.2-1.633 1.47-1.71.256-.077 1.973.84 2.145.646l-.003-.003c-1.448-1.754-4.373-1.895-5.418-1.886z" fill="url(#n)" opacity=".75" transform="translate(2.13 .87)"/><g transform="matrix(3.7795275 0 0 3.7795275 0 -1090.5196)"><path d="m3.4395833 290.91457h3.96875v5.82083h-3.96875z" opacity=".05" stroke-width=".574474"/><g stroke-width=".264583"><path d="m3.8364583 296.7354h4.4979167v.52917h-4.4979167z" fill="url(#b)" opacity=".15"/><path d="m3.8364583 296.7354v.52917c-.1640416.001-.396875-.11854-.396875-.26459s.1830917-.26458.396875-.26458z" fill="url(#c)" opacity=".15"/><path d="m8.334375 296.7354v.52917c.1640417.001.396875-.11854.396875-.26459s-.1830917-.26458-.396875-.26458z" fill="url(#e)" opacity=".15"/></g><path d="m3.8364583 291.31145h4.4979167v5.55625h-4.4979167z" fill="url(#g)" stroke-width=".279461"/><g fill="none" stroke-width=".264583"><path d="m8.0697917 296.60311h-3.96875v-5.02709h3.96875z" stroke="url(#i)" stroke-linecap="round"/><path d="m3.8364583 291.31144h4.4979167v5.55625h-4.4979167z" stroke="url(#j)" stroke-linejoin="round"/></g><g stroke-linecap="round" transform="matrix(.26458333 0 0 .26458333 2.910417 288.7979)"><path d="m16.5 20.522-4.5 5-4.5-5h3v-5.022h3v5.022z" fill="#7e8087" stroke="#7c7c7c" stroke-linejoin="round"/><path d="m10.28 14.468c-.596.112-.915.737-.843 1.304v3.697c-.58.034-2.26-.15-2.71.327-.465.452-.353 1.232.12 1.63 1.474 1.633 2.94 3.272 4.415 4.9.474.476 1.303.332 1.665-.206 1.482-1.653 2.98-3.294 4.452-4.956.512-.66-.044-1.735-.88-1.696h-1.939c-.005-1.016.01-3.032-.007-4.047-.052-.633-.698-1.034-1.297-.954h-2.98z" fill="none" opacity=".6" stroke="url(#k)"/></g></g></svg>