<svg height="16" width="16" xmlns="http://www.w3.org/2000/svg" xmlns:xlink="http://www.w3.org/1999/xlink"><linearGradient id="a"><stop offset="0" stop-color="#fff"/><stop offset="1" stop-color="#fff" stop-opacity="0"/></linearGradient><linearGradient id="b" gradientTransform="matrix(.4499622 -.1120672 .1227883 .4259461 -4.74083 -1.070173)" gradientUnits="userSpaceOnUse" x1="16.790216" x2="29.694229" xlink:href="#a" y1="21.270329" y2="46.259285"/><linearGradient id="c" gradientTransform="matrix(.3705567 -.09229061 .1095138 .3798979 -2.159865 -.334148)" gradientUnits="userSpaceOnUse" x1="23.238182" x2="29.892563" y1="12.158657" y2="26.354361"><stop offset="0"/><stop offset="1" stop-opacity="0"/></linearGradient><radialGradient id="d" cx="30.685316" cy="42.261425" gradientTransform="matrix(1.6484137 -.3627337 -.2781234 -.964796 -32.143264 54.779715)" gradientUnits="userSpaceOnUse" r="8.22791"><stop offset="0" stop-color="#e8e8e8"/><stop offset="1" stop-color="#a5a6a8"/></radialGradient><radialGradient id="e" cx="20.8839" cy="20.434256" gradientTransform="matrix(.5371911 -.1337924 .1715429 .5950737 -6.129997 -1.778193)" gradientUnits="userSpaceOnUse" r="3.999984"><stop offset="0" stop-color="#878a85"/><stop offset="1" stop-color="#3e3f3d"/></radialGradient><radialGradient id="f" cx="23.164974" cy="30.23279" gradientTransform="matrix(.8701111 -.1745419 .3300608 1.4200319 -20.893461 -28.858813)" gradientUnits="userSpaceOnUse" r="8.189013"><stop offset="0" stop-color="#767973"/><stop offset="1" stop-color="#202120"/></radialGradient><linearGradient id="g" gradientTransform="matrix(.5028984 -.1252515 .1294254 .4489702 -6.262896 -1.380506)" gradientUnits="userSpaceOnUse" x1="33.430557" x2="33.430557" y1="45.052155" y2=".310371"><stop offset="0" stop-color="#4c4c4c"/><stop offset="1" stop-color="#d3d7cf"/></linearGradient><linearGradient id="h" gradientTransform="matrix(.3314901 -.08273655 .08563292 .297689 1.046038 3.194268)" gradientUnits="userSpaceOnUse" x1="19.240318" x2="11.323519" xlink:href="#a" y1="4.81117" y2="35.457581"/><linearGradient id="i" gradientTransform="matrix(.2735062 -.06811922 .1099287 .3813368 -.902295 .510156)" gradientUnits="userSpaceOnUse" x1="20.226221" x2="11.4375" y1="20.33363" y2="21.75"><stop offset="0" stop-color="#fff" stop-opacity="0"/><stop offset=".5" stop-color="#fff"/><stop offset="1" stop-color="#fff" stop-opacity="0"/></linearGradient><radialGradient id="j" cx="23.986883" cy="27.053167" gradientTransform="matrix(-.1320116 .03287874 -.1415271 -.4909505 13.556651 21.362264)" gradientUnits="userSpaceOnUse" r="7.75" xlink:href="#a"/><radialGradient id="k" cx="9.320398" cy="18.817093" gradientTransform="matrix(.3500156 .1262354 -.2512029 .5442315 6.88755 -3.763048)" gradientUnits="userSpaceOnUse" r="12.5"><stop offset="0" stop-color="#eeeeec"/><stop offset="1" stop-color="#61635f"/></radialGradient><linearGradient id="l" gradientTransform="matrix(.3739344 -.09313176 .09660397 .3351143 .008028 2.599482)" gradientUnits="userSpaceOnUse" x1="7.75" x2="4.643187" y1="33.046577" y2="12.063652"><stop offset="0" stop-color="#4b4b4b"/><stop offset="1" stop-color="#babdb6"/></linearGradient><linearGradient id="m" gradientTransform="matrix(.4102593 -.1021789 .1099287 .3813368 -30.111184 9.011045)" gradientUnits="userSpaceOnUse" x1="80.693359" x2="77.125" y1="31.561478" y2="14"><stop offset="0" stop-color="#383937"/><stop offset="1" stop-color="#595b57"/></linearGradient><linearGradient id="n" gradientTransform="matrix(.05032913 .1745891 -.1773494 .04417049 -9.142051 -6.372378)" gradientUnits="userSpaceOnUse" spreadMethod="reflect" x1="102.35701" x2="82.681335" y1="-41.092239" y2="-41.092239"><stop offset="0" stop-color="#babdb6"/><stop offset=".43738842" stop-color="#eeeeec"/><stop offset="1" stop-color="#555753"/></linearGradient><linearGradient id="o" gradientTransform="matrix(.1099287 .3813368 -.4102593 .1021789 -2.585923 -27.037288)" gradientUnits="userSpaceOnUse" x1="84.425995" x2="102.42599" y1="8.293367" y2="8.293367"><stop offset="0" stop-color="#a0a0a0"/><stop offset="1" stop-color="#4a4a4a"/></linearGradient><linearGradient id="p" gradientTransform="matrix(.3522734 -.08790629 .1056126 .3670722 -.670871 2.017405)" gradientUnits="userSpaceOnUse" x1="9.883214" x2="5.101239" xlink:href="#a" y1="14.05074" y2="30.00112"/><linearGradient id="q" gradientTransform="matrix(.3705263 0 0 .38647344 7.53368 7.335749)" gradientUnits="userSpaceOnUse" x1="11.192374" x2="11.192374" y1="4.064163" y2="30.298229"><stop offset="0" stop-color="#ff8c82"/><stop offset=".31209752" stop-color="#ed5353"/><stop offset=".57054454" stop-color="#c6262e"/><stop offset="1" stop-color="#a10705"/></linearGradient><linearGradient id="r" gradientTransform="matrix(.64000001 0 0 .69565218 -14.27409 .033675)" gradientUnits="userSpaceOnUse" x1="41.225124" x2="41.225124" y1="23.238064" y2="7.916672"><stop offset="0" stop-color="#7a0000"/><stop offset="1" stop-color="#a10705"/></linearGradient><linearGradient id="s" gradientTransform="matrix(.19694688 -.20520309 .19694688 .20520309 2.33061 11.959949)" gradientUnits="userSpaceOnUse" x1="36.010902" x2="16.331276" xlink:href="#a" y1="13.022708" y2="32.702335"/><linearGradient id="t" gradientTransform="matrix(.19694688 -.20520309 .19694688 .20520309 2.13207 12.063489)" gradientUnits="userSpaceOnUse" x1="28.449389" x2="16.331276" xlink:href="#a" y1="20.584223" y2="32.702335"/><path d="m4.10235 9.4815989c.3339157 1.1583351.0535696 2.2345941-.6261705 2.4038901-.67974.169295-1.5014702-.632481-1.8353858-1.790817-.3339155-1.1583358-.0535695-2.2345939.6261705-2.4038893.6797401-.1692955 1.5014704.6324802 1.8353858 1.7908162z" fill="#2e3436" stroke="#555753" stroke-linecap="round"/><path d="m1.9582328 8.9554983c.045534.1579552-.0553131.320313-.2252481.3626369-.1699351.0423239-.344607-.0514135-.3901411-.2093686-.045534-.157955.0553131-.3203128.2252481-.3626367.1699352-.0423239.3446072.0514134.3901411.2093684z" fill="#babdb6"/><path d="m2.6038495 6.3807317c-.8209279.2044597-1.0685792 1.8225376-.5527969 3.6117623.5157827 1.789223 1.6006561 3.075425 2.4215837 2.870965l1.4871901-.370399c.8209275-.204459 1.0685799-1.822538.5527973-3.6117612-.5157827-1.7892241-1.6006565-3.0754247-2.421584-2.8709655z" fill="url(#n)" stroke="url(#o)"/><path d="m4.34375 7.0625c-.46875.1145833-.9375.2291667-1.40625.34375.2083628-.05307-.1287502.3012871-.068111.4478077-.06611.7721724.1053981 1.5468372.3567813 2.2733363.2138278.560785.4677829 1.135612.914576 1.551411.1350985.07558.1838335.156273.149358.122758.4449649-.121355.8899303-.242709 1.3348957-.364063.085825.0011-.1477317.05904-.02248-.0492.1733972-.487133.1193505-1.020477.053252-1.523392-.1375026-.8340849-.4297701-1.6554655-.9156505-2.3514631-.0722121-.1693867-.42786-.3990564-.4318285-.443304z" fill="none" opacity=".4" stroke="url(#p)" stroke-linecap="round"/><path d="m4.1242278 6.2064195c-.8372157.2085165-1.1234807 1.7417976-.6389865 3.4224848.4844943 1.6806867 1.5571938 2.8755067 2.3944099 2.6669887l.261499-.06513c.837216-.208515 1.1234813-1.741796.6389867-3.4224827-.4844945-1.6806867-1.5571938-2.8755055-2.3944096-2.6669895l-.2614995.065129z" fill="url(#m)"/><path d="m4.5638899 9.3666427c1.0143413 3.5187003 5.3630086 4.5906703 7.6965741 4.0094743 1.615397-.40233 2.157719-3.192418 1.277851-6.2446368-.879868-3.0522193-2.850385-5.2164622-4.4657813-4.8141328-2.3335667.5811961-5.5229853 3.5305962-4.5086438 7.0492953z" fill="url(#k)" stroke="url(#l)" stroke-linecap="round"/><path d="m13.948572 7.0292991c1.032101 3.5803109-.013929 6.9516339-2.336373 7.5300609-2.3224449.578426-5.0418426-1.855082-6.0739446-5.4353934-1.0321024-3.580311.0139269-6.9516338 2.3363718-7.5300604 2.3224448-.5784264 5.0418428 1.8550819 6.0739458 5.4353929z" fill="url(#j)"/><path d="m6.3134393 4.1480951c-.9065217.7958041-1.6699586 2.5710602-2.2807831 4.3290675.9837306-.7052564 2.0373417-1.3086946 3.0896998-1.4847708z" fill="url(#i)" fill-rule="evenodd" opacity=".733591"/><g stroke-linecap="round"><path d="m6.3434703 5.3219425c-.7922209 1.0317102-1.2370976 2.3381387-.8237414 3.775105.4133564 1.4369665 1.4998945 2.3611695 2.7397781 2.8856875 6.730668 1.789397 5.745242-8.1896472-1.9160367-6.6607925z" fill="none" opacity=".4" stroke="url(#h)"/><path d="m13.948572 7.0293008c1.183882 4.1068282.398655 7.8706662-1.753856 8.4067692-2.152507.536102-4.857187-2.358544-6.0410688-6.4653713-1.1838818-4.1068277-.3986544-7.8706661 1.7538548-8.4067684 2.152509-.53610223 4.857188 2.3585428 6.04107 6.4653705z" fill="url(#f)" stroke="url(#g)"/><path d="m9.8936185 8.0392286c.2730625.9472397-.4829431 1.9594945-1.1735952 2.1315074-.6906519.172013-1.472797-.4571564-1.7458596-1.4043961-.2730626-.9472396.0658506-1.8556186.7565031-2.0276321.6906516-.172013 1.88989.3532806 2.1629517 1.3005208z" fill="url(#e)" stroke="#3e3f3d"/></g><path d="m7.9624647.75459967c-1.0799862.26898053-1.7457314 1.35432953-2.0158255 2.82663003-.2700943 1.4723001-.1433611 3.3637238.424956 5.3351873.5683172 1.971465 1.4760018 3.668384 2.5018944 4.817907 1.025892 1.149524 2.1862764 1.780058 3.2662634 1.511078s1.745731-1.35433 2.015825-2.82663c.16881-.920188.183777-2.012192.03267-3.1756846-.0048-.036689-.013-.073595-.0181-.110444-.03098-.2240052-.0687-.4453486-.112017-.6745812-.0392-.213566-.0801-.4267919-.130785-.6443618-.0028-.011955-.0075-.023786-.01031-.03575-.05422-.2300259-.119165-.461082-.186412-.6943666-.070835-.2457187-.141001-.4878825-.222373-.7237299-.071795-.2096196-.154237-.4171885-.233353-.6188171-.0858-.2186536-.172194-.427873-.265861-.6362642-.016-.034919-.02752-.06947-.04374-.1040579-.495012-1.0778386-1.095386-2.0165859-1.736568-2.7350378-1.025893-1.1495234-2.1862774-1.78005789-3.2662643-1.51107723zm.4249868.71158433c.788631-.1964156 1.7450275.2870337 2.6606885 1.3170478.572287.6437586 1.123509 1.4921117 1.580633 2.4801104.09142.1976001.175204.4039931.258993.6124304.07723.1955082.15645.3915773.22648.5949833.08129.2333607.16153.4650061.231758.7086206.06549.2271797.114383.4497514.166733.6737256.0038.015813.01005.031872.01374.047668.04769.2075084.08722.4169512.123916.620528.03956.2194524.07803.4371315.105146.6507474.135585 1.0680805.11456 2.0589565-.03476 2.8824385-.238918 1.317574-.807122 2.180739-1.595754 2.377154-.788631.196415-1.745027-.287034-2.6606863-1.317047-.9156617-1.030014-1.7739499-2.578708-2.2978662-4.3961453-.5239157-1.8174378-.6136924-3.5575361-.3747745-4.8751082.2389173-1.3175723.8071235-2.1807378 1.5957535-2.3771535z" fill="url(#d)"/><path d="m13.128052 7.2336606c1.001746 3.4750084.528066 6.6122894-1.057994 7.0073114-1.586059.395024-3.6838903-2.101798-4.6856369-5.576807-1.0017465-3.4750086-.528067-6.6122891 1.0579927-7.0073119 1.5860602-.395023 3.6838922 2.1017989 4.6856382 5.5768075z" fill="none" opacity=".3" stroke="url(#c)" stroke-linecap="round"/><path d="m2.7115741 7.7077659c.0607121.2106065-.0737505.4270838-.3003306.4835156-.2265802.056432-.4594761-.0685513-.5201881-.2791579-.0607119-.2106066.0737507-.4270838.3003309-.4835157.2265799-.056432.459476.068551.5201878.279158z" fill="#fff"/><path d="m8.0481294 1.0517549c-.8949419.2228935-1.5238319 1.1861222-1.7828948 2.5982858-.2590626 1.4121636-.1461 3.2573538.4111609 5.1904638.5572608 1.9331095 1.4520014 3.5835905 2.4359907 4.6861615.9839888 1.10257 2.0467658 1.644474 2.9417088 1.42158.894942-.222892 1.523833-1.186121 1.782895-2.598285s.146099-3.2573541-.411161-5.1904641c-.557261-1.93311-1.452001-3.5835912-2.435992-4.6861615-.983988-1.1025702-2.0467655-1.64447393-2.9417076-1.4215805z" fill="none" opacity=".4" stroke="url(#b)" stroke-linecap="round"/><path d="m6.4343156 3.8429396c.0607118.2106065-.0737507.4270838-.3003307.4835156-.2265803.056432-.4594762-.0685513-.5201881-.2791579-.0607118-.2106066.0737506-.4270838.3003307-.4835157.2265801-.056432.4594762.068551.5201881.279158z" fill="#fff" opacity=".6"/><path d="m15.5 14.214902-2.0384-2.049501 1.96142-2.147073-1.41391-1.329922-2.01857 2.046035-2.05948-2.046035-1.47106 1.378839 2.05948 2.089411-2.05948 2.056046 1.47106 1.432225 2.05709-2.148338 2.06188 2.148338z" fill="url(#q)" stroke="url(#r)" stroke-linejoin="round"/><g fill="none"><path d="m14.01392 10.098118-2.00624 2.049356-2.09215-2.047403" opacity=".5" stroke="url(#s)" stroke-linecap="square"/><path d="m14.3566 14.622087-1.66668-1.887606m-1.42902.08076-1.73943 1.713246" opacity=".4" stroke="url(#t)"/></g></svg>