<svg height="32" width="32" xmlns="http://www.w3.org/2000/svg" xmlns:xlink="http://www.w3.org/1999/xlink"><linearGradient id="a" gradientTransform="matrix(.89186139 0 0 1.0539115 3.120829 5.412539)" gradientUnits="userSpaceOnUse" x1="27.557428" x2="27.557428" y1="7.162672" y2="21.386522"><stop offset="0" stop-color="#fff"/><stop offset=".0097359" stop-color="#fff" stop-opacity=".235294"/><stop offset=".99001008" stop-color="#fff" stop-opacity=".156863"/><stop offset="1" stop-color="#fff" stop-opacity=".392157"/></linearGradient><linearGradient id="b" gradientTransform="matrix(.05114282 0 0 .01591575 -2.489778 21.299269)" gradientUnits="userSpaceOnUse" x1="302.85715" x2="302.85715" y1="366.64789" y2="609.50507"><stop offset="0" stop-opacity="0"/><stop offset=".5"/><stop offset="1" stop-opacity="0"/></linearGradient><radialGradient id="c" cx="605.71429" cy="486.64789" gradientTransform="matrix(.01983573 0 0 .01591575 16.387829 21.299269)" gradientUnits="userSpaceOnUse" r="117.14286" xlink:href="#d"/><linearGradient id="d"><stop offset="0"/><stop offset="1" stop-opacity="0"/></linearGradient><radialGradient id="e" cx="605.71429" cy="486.64789" gradientTransform="matrix(-.01983573 0 0 .01591575 15.601569 21.299269)" gradientUnits="userSpaceOnUse" r="117.14286" xlink:href="#d"/><linearGradient id="f" gradientTransform="matrix(.54383556 0 0 .61466406 3.268879 5.091139)" gradientUnits="userSpaceOnUse" x1="21.571081" x2="21.571081" y1="7.98625" y2="34.016731"><stop offset="0" stop-color="#fff"/><stop offset="0" stop-color="#fff" stop-opacity=".235294"/><stop offset=".99001008" stop-color="#fff" stop-opacity=".156863"/><stop offset="1" stop-color="#fff" stop-opacity=".392157"/></linearGradient><linearGradient id="g" gradientUnits="userSpaceOnUse" x1="8.601301" x2="8.601301" y1="9.476188" y2="11.333331"><stop offset="0" stop-color="#fafafa"/><stop offset="1" stop-color="#d4d4d4"/></linearGradient><linearGradient id="h" gradientTransform="matrix(.50413225 0 0 .49333391 4.108882 -20.937122)" gradientUnits="userSpaceOnUse" x1="23.587299" x2="23.587299" y1="64.737335" y2="103.2508"><stop offset="0" stop-color="#efdfc4"/><stop offset="1" stop-color="#e7c591"/></linearGradient><radialGradient id="i" cx="4.992979" cy="43.5" gradientTransform="matrix(2.003784 0 0 1.4 27.98813 -17.4)" gradientUnits="userSpaceOnUse" r="2.5" xlink:href="#j"/><linearGradient id="j"><stop offset="0" stop-color="#181818"/><stop offset="1" stop-color="#181818" stop-opacity="0"/></linearGradient><radialGradient id="k" cx="4.992979" cy="43.5" gradientTransform="matrix(2.003784 0 0 1.4 -20.01187 -104.4)" gradientUnits="userSpaceOnUse" r="2.5" xlink:href="#j"/><linearGradient id="l" gradientUnits="userSpaceOnUse" x1="25.058096" x2="25.058096" y1="47.027729" y2="39.999443"><stop offset="0" stop-color="#181818" stop-opacity="0"/><stop offset=".5" stop-color="#181818"/><stop offset="1" stop-color="#181818" stop-opacity="0"/></linearGradient><radialGradient id="m" cx="6.730414" cy="9.957108" fx="6.200184" gradientTransform="matrix(0 4.6270127 -5.6804933 0 68.966159 -30.745063)" gradientUnits="userSpaceOnUse" r="12.671875"><stop offset="0" stop-color="#919caf"/><stop offset=".26238" stop-color="#68758e"/><stop offset=".704952" stop-color="#485a6c"/><stop offset="1" stop-color="#444c5c"/></radialGradient><linearGradient id="n" gradientUnits="userSpaceOnUse" x1="12.001243" x2="12.001243" y1="11.98089" y2="27.914931"><stop offset="0" stop-color="#fff"/><stop offset=".01652508" stop-color="#fff" stop-opacity=".235294"/><stop offset=".98001981" stop-color="#fff" stop-opacity=".156863"/><stop offset="1" stop-color="#fff" stop-opacity=".392157"/></linearGradient><linearGradient id="o" gradientTransform="matrix(1.0181566 0 0 -1.0195328 -.215304 40.481143)" gradientUnits="userSpaceOnUse" x1="12.913282" x2="12.913282" xlink:href="#d" y1="17.533852" y2="20.187275"/><g transform="translate(0 -4)"><path d="m4.0001794 6.500079c-.43342.005-.5.21723-.5.6349v1.36502c-1.24568 0-1-.002-1 .54389.0216 6.53313 0 6.90143 0 7.45611.90135 0 26.9999996-2.34895 26.9999996-3.36005v-4.09606c0-.41767-.34799-.54876-.78141-.54389h-14.21859v-1.36502c0-.41767-.26424-.63977-.69767-.6349z" fill="none" opacity=".5" stroke="#7e8087" stroke-linecap="square" stroke-width=".992"/><path d="m4.0001794 6.999999v2h-1v4h25.9999996v-4h-15v-2z" fill="url(#g)"/><path d="m4.5001794 7.499999v2h-1v4h24.9999996v-4h-15v-2z" fill="none" stroke="url(#f)" stroke-linecap="round"/><path d="m3.647361 27.134745h24.694677v3.865254h-24.694677z" fill="url(#b)" opacity=".3"/><path d="m28.342038 27.134879v3.865041c1.021491.0073 2.469468-.86596 2.469468-1.932769 0-1.06681-1.139908-1.932272-2.469468-1.932272z" fill="url(#c)" opacity=".3"/><path d="m3.647361 27.134879v3.865041c-1.0214912.0073-2.4694678-.86596-2.4694678-1.932769 0-1.06681 1.1399068-1.932272 2.4694678-1.932272z" fill="url(#e)" opacity=".3"/><path d="m1.9270194 11.499999c-.69105.0796-.32196.90258-.37705 1.36535.0802.29906.59771 15.71799.59771 16.24744 0 .46018.22667.38222.80101.38222h26.3974796c.61872.0143.48796.007.48796-.38947.0452-.20269.63993-16.97848.66282-17.24344 0-.279.0581-.3621-.30493-.3621-9.0765 0-19.18849 0-28.2649996 0z" fill="url(#h)" stroke="#987124" stroke-opacity=".498039"/><path d="m2.5001794 12.499999.62498 16h25.7491696l.62498-16z" fill="none" opacity=".5" stroke="url(#a)" stroke-linecap="round"/></g><g transform="translate(9 1)"><g opacity=".4" transform="matrix(.5789476 0 0 .42857134 -1.894738 10.857146)"><path d="m38 40h5v7h-5z" fill="url(#i)"/><path d="m-10-47h5v7h-5z" fill="url(#k)" transform="scale(-1)"/><path d="m10 40h28v7.000001h-28z" fill="url(#l)"/></g><rect fill="url(#m)" height="19.000002" rx="1" width="19.000002" x="2.499998" y="10.500026"/><rect fill="none" height="19.000002" opacity=".5" rx="1" stroke="#1c2c38" stroke-linecap="round" stroke-linejoin="round" width="19.000002" x="2.499998" y="10.500026"/><path d="m3.501246 11.498756h17v17h-17z" fill="none" opacity=".3" stroke="url(#n)" stroke-linecap="round" stroke-linejoin="round"/><path d="m11.142857 15.000001c-.154257 0-.282804.595793-.35826 1.447265a4.7142854 4.7142854 0 0 0 -1.1392302.478795c-.658092-.551548-1.172157-.884484-1.281529-.775112l-1.212891 1.21289c-.109371.109373.223564.623438.775113 1.28153a4.7142854 4.7142854 0 0 0 -.47461 1.139229c-.853858.07538-1.451451.203745-1.451451.358259v1.714286c0 .154256.595793.282803 1.447265.358259a4.7142854 4.7142854 0 0 0 .477121 1.141741c-.550295.656913-.882677 1.169777-.773438 1.279018l1.212891 1.21289c.109137.109137.621357-.222452 1.277344-.771763a4.7142854 4.7142854 0 0 0 1.1434152.471261c.07538.853858.203745 1.451451.35826 1.451451h1.714285c.154256 0 .282803-.595793.358259-1.447266a4.7142854 4.7142854 0 0 0 1.13923-.478795c.658092.551549 1.172157.884484 1.281529.775112l1.212891-1.21289c.109371-.109372-.223564-.623438-.775113-1.281529a4.7142854 4.7142854 0 0 0 .47461-1.13923c.853858-.07538 1.451451-.203745 1.451451-.358259v-1.714286c0-.154256-.595793-.282803-1.447265-.358259a4.7142854 4.7142854 0 0 0 -.477121-1.14174c.550295-.656913.882677-1.169778.773438-1.279019l-1.212891-1.21289c-.109137-.109137-.621357.222452-1.277344.771764a4.7142854 4.7142854 0 0 0 -1.143415-.471262c-.07538-.853857-.203744-1.45145-.358259-1.45145zm.857142 3.857142a2.142857 2.142857 0 0 1 2.142857 2.142857 2.142857 2.142857 0 0 1 -2.142857 2.142857 2.142857 2.142857 0 0 1 -2.1428572-2.142857 2.142857 2.142857 0 0 1 2.1428572-2.142857z" fill="#fff" opacity=".1"/><path d="m11.142857 14.000027c-.154257 0-.282804.595793-.35826 1.447265a4.7142854 4.7142854 0 0 0 -1.1392302.478795c-.658092-.551548-1.172157-.884484-1.281529-.775112l-1.212891 1.21289c-.109371.109373.223564.623438.775113 1.28153a4.7142854 4.7142854 0 0 0 -.47461 1.139229c-.853858.07538-1.451451.203745-1.451451.358259v1.714286c0 .154256.595793.282803 1.447265.358259a4.7142854 4.7142854 0 0 0 .477121 1.141741c-.550295.656913-.882677 1.169777-.773438 1.279018l1.212891 1.21289c.109137.109137.621357-.222452 1.277344-.771763a4.7142854 4.7142854 0 0 0 1.1434152.471261c.07538.853858.203745 1.451451.35826 1.451451h1.714285c.154256 0 .282803-.595793.358259-1.447266a4.7142854 4.7142854 0 0 0 1.13923-.478795c.658092.551549 1.172157.884484 1.281529.775112l1.212891-1.21289c.109371-.109372-.223564-.623438-.775113-1.281529a4.7142854 4.7142854 0 0 0 .47461-1.13923c.853858-.07538 1.451451-.203745 1.451451-.358259v-1.714286c0-.154256-.595793-.282803-1.447265-.358259a4.7142854 4.7142854 0 0 0 -.477121-1.14174c.550295-.656913.882677-1.169778.773438-1.279019l-1.212891-1.21289c-.109137-.109137-.621357.222452-1.277344.771764a4.7142854 4.7142854 0 0 0 -1.143415-.471262c-.07538-.853857-.203744-1.45145-.358259-1.45145zm.857142 3.857142a2.142857 2.142857 0 0 1 2.142857 2.142857 2.142857 2.142857 0 0 1 -2.142857 2.142857 2.142857 2.142857 0 0 1 -2.1428572-2.142857 2.142857 2.142857 0 0 1 2.1428572-2.142857z" fill="#455365"/><g fill="none"><path d="m12.002575 22.671181c1.469034.0381 2.754293-1.381505 2.563778-2.842678-.114039-1.464029-1.647021-2.604939-3.079912-2.265809-1.441327.261108-2.4259723 1.896655-1.9442349 3.290986.3196809 1.053899 1.3566149 1.831057 2.4603689 1.817501z" opacity=".05" stroke="url(#o)" stroke-linejoin="round"/><path d="m11.431641 14.5c-.0016.0065-.0023.0049-.0039.01172-.05052.212775-.100234.560944-.136718.972656-.01967.212214-.169229.389817-.375.445313-.356557.09701-.700496.243273-1.0195386.429687-.1850422.107439-.4174762.08794-.5820313-.04883-.318307-.266772-.6018457-.480079-.7890625-.595703-.00749-.0046-.00645-.0035-.013672-.0078l-.8046874.804685c.0043.0072.00318.0062.00781.01367.1156264.187216.3289318.470757.5957057.789062.1367684.164555.1562679.39699.048828.582032-.185205.319222-.3279174.663153-.4238281 1.019531-.055746.206394-.2343113.356109-.4472657.375-.4129715.03646-.7611044.08617-.9746093.136718-.00775.0018-.00627.002-.013672.0039v1.136718c.00651.0016.00495.0023.011719.0039.212776.05052.5609425.100234.9726562.136718.2129543.01889.3915199.168606.4472656.375.096316.357064.2398319.701807.4257813 1.021485.1074396.185042.08794.417476-.048828.582031-.2661194.317678-.4784769.600262-.59375.787109-.00461.0075-.00352.0065-.00781.01367l.8027345.802728c.00684-.0041.00658-.0015.013672-.0059.1864151-.114875.4699312-.326199.7871094-.591797.1637402-.136504.3951104-.156759.5800781-.05078.3204951.184275.6660291.327354 1.0234371.421875.207163.05505.357788.233772.376954.447266.03646.412971.08617.761106.136718.974609.0018.0077.002.0063.0039.01367h1.136718c.0016-.0065.0023-.0049.0039-.01172.05052-.212776.100234-.560942.136718-.972656.01967-.212213.169229-.389817.375-.445313.35655-.09701.700488-.243274 1.019532-.429687.185042-.107438.417476-.08794.582031.04883.318306.266773.601846.480079.789062.595703.0075.0046.0065.0035.01367.0078l.804688-.804688c-.0043-.0072-.0032-.0062-.0078-.01367-.115624-.187215-.328929-.470758-.595703-.789062-.136768-.164555-.156268-.396989-.04883-.582031.185205-.319223.327917-.663154.423828-1.019532.05575-.206394.234312-.356109.447266-.375.412971-.03646.761105-.08617.974609-.136718.0077-.0018.0063-.002.01367-.0039v-1.136718c-.0065-.0016-.0049-.0023-.01172-.0039-.212777-.05052-.560942-.100234-.972656-.136718-.212954-.01889-.39152-.168606-.447266-.375-.09632-.357064-.239832-.701807-.425781-1.021485-.10744-.185042-.08794-.417476.04883-.582031.26612-.317678.478477-.600262.59375-.787109.0046-.0075.0035-.0065.0078-.01367l-.802719-.802681c-.0068.0041-.0066.0015-.01367.0059-.186415.114875-.469931.326198-.787109.591796-.16374.136505-.39511.15676-.580078.05078-.320497-.184275-.666031-.327354-1.023439-.421875-.207163-.05505-.357788-.233772-.376954-.447266-.03646-.412969-.08617-.761105-.136718-.974609-.0018-.0077-.002-.0063-.0039-.01367z" opacity=".05" stroke="#000"/></g></g></svg>