<svg xmlns="http://www.w3.org/2000/svg" height="32" width="32"><linearGradient id="a" gradientTransform="matrix(1.4 0 0 1.4402 .25 -37.287)" gradientUnits="userSpaceOnUse" x1="12" x2="12" y1="48" y2="28"><stop offset="0" stop-color="#e2e2e2"/><stop offset="1" stop-color="#fff"/></linearGradient><linearGradient id="b" gradientTransform="matrix(1.4 0 0 1.4402 .25 -37.287)" gradientUnits="userSpaceOnUse" x1="17" x2="2" y1="33" y2="42"><stop offset="0"/><stop offset="1" stop-opacity="0"/></linearGradient><path d="M28.594 7.67l-25.056 5.4L8 16.584v6.77l3.136-4.106.377-.228.427.11L18.496 24z" fill="url(#a)"/><path d="M28.59 7.678L12.007 18.56l-.792.63L8 23.355v-6.642z" opacity=".61" fill="url(#b)"/><path d="M30 6.69L2 12.71l5.333 4.218v8.383l4.292-5.57 7.055 5.233z" opacity=".4" fill="none" stroke="#000" stroke-linejoin="round"/><path d="M7.713 25.833l4.037-5.19 2.335 1.73z" fill="#9e9e9e"/><g fill="#fff" fill-rule="evenodd"><path d="M28.594 7.67L3.54 13.07l1.34 1.057 17.714-3.818 5.992-2.628V7.68h.003z"/><path d="M26.97 10.294l-1.694 1.24-7.19 11.042L13.4 19.09l-.684.602 4.742 3.52-.008.01 1.047.78z" opacity=".5"/><path d="M28.594 7.67l-.1.02-.137.09.23-.098V7.68h.002zm-.008.012L12.32 18.352l-.312.207-.008.004-.784.625-.015.02.313-.187.427.11.763.567 14.27-9.41z" opacity=".8"/></g></svg>