<svg height="32" width="32" xmlns="http://www.w3.org/2000/svg" xmlns:xlink="http://www.w3.org/1999/xlink"><linearGradient id="a" gradientTransform="matrix(0 .75000188 -.75000188 0 26.408854 5.499973)" gradientUnits="userSpaceOnUse" x1="17.000002" x2="4.000003" y1="12.072035" y2="12.072035"><stop offset="0" stop-color="#ffa154"/><stop offset="1" stop-color="#f37329"/></linearGradient><linearGradient id="b" gradientTransform="matrix(.40290243 0 0 -.43261396 5.519842 42.959872)" gradientUnits="userSpaceOnUse" x1="30.305008" x2="30.305014" y1="53.650288" y2="72.720451"><stop offset="0" stop-color="#fff"/><stop offset="0" stop-color="#fff" stop-opacity=".235294"/><stop offset="1" stop-color="#fff" stop-opacity=".156863"/><stop offset="1" stop-color="#fff" stop-opacity=".392157"/></linearGradient><linearGradient id="c"><stop offset="0" stop-color="#fff"/><stop offset=".06316455" stop-color="#fff" stop-opacity=".235294"/><stop offset=".95056331" stop-color="#fff" stop-opacity=".156863"/><stop offset="1" stop-color="#fff" stop-opacity=".392157"/></linearGradient><radialGradient id="d" cx="4.992979" cy="43.5" gradientTransform="matrix(2.003784 0 0 1.4 27.98813 -17.4)" gradientUnits="userSpaceOnUse" r="2.5" xlink:href="#e"/><linearGradient id="e"><stop offset="0" stop-color="#181818"/><stop offset="1" stop-color="#181818" stop-opacity="0"/></linearGradient><radialGradient id="f" cx="4.992979" cy="43.5" gradientTransform="matrix(2.003784 0 0 1.4 -20.01187 -104.4)" gradientUnits="userSpaceOnUse" r="2.5" xlink:href="#e"/><linearGradient id="g" gradientUnits="userSpaceOnUse" x1="25.058096" x2="25.058096" y1="47.027729" y2="39.999443"><stop offset="0" stop-color="#181818" stop-opacity="0"/><stop offset=".5" stop-color="#181818"/><stop offset="1" stop-color="#181818" stop-opacity="0"/></linearGradient><linearGradient id="h" gradientTransform="matrix(.72972973 0 0 .29729729 -1.513515 13.864869)" gradientUnits="userSpaceOnUse" x1="23.99999" x2="23.99999" xlink:href="#c" y1="4.999989" y2="43"/><linearGradient id="i" gradientTransform="matrix(.45945946 0 0 .72972971 4.972976 -.513506)" gradientUnits="userSpaceOnUse" x1="23.99999" x2="23.99999" y1="5.56415" y2="43"><stop offset="0" stop-color="#fff"/><stop offset=".03626217" stop-color="#fff" stop-opacity=".235294"/><stop offset=".95056331" stop-color="#fff" stop-opacity=".156863"/><stop offset="1" stop-color="#fff" stop-opacity=".392157"/></linearGradient><linearGradient id="j" gradientTransform="matrix(.54285587 0 0 .22814772 2.971419 20.424493)" gradientUnits="userSpaceOnUse" x1="33.210621" x2="33.210621" y1="46.353771" y2="11.28877"><stop offset="0" stop-color="#f4f4f4"/><stop offset="1" stop-color="#dbdbdb"/></linearGradient><linearGradient id="k" gradientTransform="matrix(.72972973 0 0 .08108108 -1.513515 10.054054)" gradientUnits="userSpaceOnUse" x1="23.99999" x2="23.99999" xlink:href="#c" y1="11.666668" y2="36.333336"/><radialGradient id="l" cx="7.118353" cy="9.957108" gradientTransform="matrix(0 5.8591313 -8.3440444 0 99.355433 -44.574628)" gradientUnits="userSpaceOnUse" r="12.671875"><stop offset="0" stop-color="#505050"/><stop offset=".26238" stop-color="#2b2b2b"/><stop offset=".704952" stop-color="#0a0a0a"/><stop offset="1"/></radialGradient><g opacity=".4" transform="matrix(.84210526 0 0 .42857134 -4.210526 8.857146)"><path d="m38 40h5v7h-5z" fill="url(#d)"/><path d="m-10-47h5v7h-5z" fill="url(#f)" transform="scale(-1)"/><path d="m10 40h28v7.000001h-28z" fill="url(#g)"/></g><path d="m3.5 9.5h25c1.297092 0 2 3.324604 2 5v12.000368c.01033.964169-1.033653 1.068845-1.762738 1-8.745754 0-17.491508 0-26.2372625 0-.9641691.01033-1.0688452-1.033653-1-1.762737v-11.237631s.474654-5 2.0000005-5z" fill="url(#l)" opacity=".9"/><path d="m2.499999 15.5h27v11h-27z" fill="none" opacity=".25" stroke="url(#h)" stroke-linecap="round" stroke-linejoin="round"/><path d="m3.5 9.5h25c1.449291 0 1.999999 5 1.999999 5v11.99961c.0082.980409-1.057344 1.065948-1.793221 1-8.735593 0-17.471186 0-26.2067787 0-.9804089.0082-1.0659481-1.057345-1-1.793221v-11.206389s.5269137-5 2.0000007-5z" fill="none" opacity=".7" stroke="#000" stroke-linecap="round" stroke-linejoin="round"/><path d="m2-15h28v1h-28z" opacity=".4" transform="scale(1 -1)"/><path d="m26.5 17h2v2h-2z" fill="#0cceff"/><path d="m6.4999609 23.000039c4.3538641 0 18.9999761.00067 18.9999761.00067l.000024 8.49933s-12.666667 0-19.0000001 0c0-3.5 0-4.999999 0-8.5z" fill="url(#j)"/><path d="m24.5 30.5h-17.0000001v-7h17.0000001z" fill="none" stroke="url(#i)" stroke-linecap="round" stroke-linejoin="round"/><path d="m6.4999609 22.499961c4.3538821 0 19.0000551.000573 19.0000551.000573l.000023 8.999505s-12.666718 0-19.0000781 0c0-3.000026 0-6.000052 0-9.000077z" fill="none" opacity=".3" stroke="#000" stroke-linejoin="round" stroke-width=".999922"/><path d="m10 24v1h6.65625v-1zm9.34375 0v1h2.65625v-1zm-9.34375 2v1h4v-1zm6.65625 0v1h5.34375v-1zm-6.65625 2v1h12v-1z" opacity=".15"/><path d="m6 23h20v1h-20z" opacity=".15"/><path d="m4 10.499998h24c.835818 0 1.499999 3 1.499999 3-9 0-27 0-27 0s.579915-3 1.500001-3z" fill="none" opacity=".1" stroke="url(#k)" stroke-linecap="round" stroke-linejoin="round"/><g stroke-width=".750002" transform="matrix(-1.33333 0 0 -1.33333 38.639679 33.33328)"><path d="m17.354805 7.3749791-3.750009 4.5000109h2.276375l-.02637 9.000023h3.000008v-9.000023h2.250005z" style="display:block;stroke:#a62100;stroke-linecap:round;stroke-linejoin:round;stroke-opacity:.501961;fill:url(#a)"/><path d="m17.354805 8.5512512-2.121072 2.5737368h1.37107v9.000024h1.500004v-9.000024h1.398559z" display="block" fill="none" opacity=".401" stroke="url(#b)" stroke-miterlimit="7"/></g></svg>