<svg height="32" width="32" xmlns="http://www.w3.org/2000/svg" xmlns:xlink="http://www.w3.org/1999/xlink"><linearGradient id="a" gradientUnits="userSpaceOnUse" x1="15" x2="16" y1="1" y2="29"><stop offset="0" stop-color="#ed5353"/><stop offset="1" stop-color="#c6262e"/></linearGradient><linearGradient id="b"><stop offset="0" stop-opacity="0"/><stop offset=".5"/><stop offset="1" stop-opacity="0"/></linearGradient><linearGradient id="c" gradientTransform="matrix(2.774389 0 0 1.969706 -1892.179 -872.8854)" gradientUnits="userSpaceOnUse" x1="302.85715" x2="302.85715" xlink:href="#b" y1="366.64789" y2="609.50507"/><radialGradient id="d" cx="605.71429" cy="486.64789" gradientTransform="matrix(2.774389 0 0 1.969706 -1891.633 -872.8854)" gradientUnits="userSpaceOnUse" r="117.14286" xlink:href="#e"/><linearGradient id="e"><stop offset="0"/><stop offset="1" stop-opacity="0"/></linearGradient><radialGradient id="f" cx="605.71429" cy="486.64789" gradientTransform="matrix(-2.774389 0 0 1.969706 112.7623 -872.8854)" gradientUnits="userSpaceOnUse" r="117.14286" xlink:href="#e"/><linearGradient id="g" gradientTransform="matrix(.40000003 0 0 .36363633 4.4 13.81818)" gradientUnits="userSpaceOnUse" x1="20.052792" x2="20.052792" y1="10.636821" y2="45.243549"><stop offset="0" stop-color="#f4f4f4"/><stop offset="1" stop-color="#dbdbdb"/></linearGradient><linearGradient id="h" gradientTransform="matrix(.42307923 0 0 .39244743 3.84619 12.352884)" gradientUnits="userSpaceOnUse" spreadMethod="reflect" x1="25.705484" x2="25.525208" y1="32.32658" y2="15.737678"><stop offset="0" stop-color="#a0a0a0"/><stop offset=".5" stop-color="#8f8f8f" stop-opacity=".634783"/><stop offset="1" stop-color="#9d9d9d" stop-opacity="0"/></linearGradient><linearGradient id="i" gradientTransform="matrix(.42307923 0 0 .39244743 3.84619 13.747128)" gradientUnits="userSpaceOnUse" spreadMethod="reflect" x1="25.525208" x2="25.525208" xlink:href="#j" y1="30.188753" y2="15.737678"/><linearGradient id="j"><stop offset="0" stop-color="#fff"/><stop offset="1" stop-color="#fff" stop-opacity="0"/></linearGradient><linearGradient id="k" gradientTransform="matrix(.42223777 0 0 .41882295 3.90701 12.452607)" gradientUnits="userSpaceOnUse" x1="23.903786" x2="23.903786" y1="35.75" y2="20.443331"><stop offset="0"/><stop offset=".5" stop-opacity=".498039"/><stop offset="1" stop-opacity="0"/></linearGradient><linearGradient id="l" gradientTransform="matrix(.42307923 0 0 .39244743 3.84619 11.014342)" gradientUnits="userSpaceOnUse" spreadMethod="reflect" x1="25.525208" x2="25.525208" xlink:href="#j" y1="30.188753" y2="15.737678"/><linearGradient id="m" gradientTransform="matrix(.39078075 0 0 .4337445 4.602995 15.522359)" gradientUnits="userSpaceOnUse" x1="16.626165" x2="20.054544" xlink:href="#j" y1="15.298182" y2="24.627615"/><linearGradient id="n" gradientTransform="matrix(.45945946 0 0 .29729728 2.972974 16.864867)" gradientUnits="userSpaceOnUse" x1="23.99999" x2="23.99999" y1="6.675988" y2="41.184601"><stop offset="0" stop-color="#fff"/><stop offset=".01864429" stop-color="#fff" stop-opacity=".235294"/><stop offset=".98085731" stop-color="#fff" stop-opacity=".156863"/><stop offset="1" stop-color="#fff" stop-opacity=".392157"/></linearGradient><linearGradient id="o" gradientTransform="matrix(.42307923 0 0 .39244743 3.84619 12.352884)" gradientUnits="userSpaceOnUse" spreadMethod="reflect" x1="25.795622" x2="25.795622" y1="35.817699" y2="11.656369"><stop offset="0" stop-color="#969696"/><stop offset=".5511902" stop-color="#858585" stop-opacity=".634783"/><stop offset="1" stop-color="#939393" stop-opacity="0"/></linearGradient><linearGradient id="p" gradientTransform="matrix(.56756757 0 0 .72972971 2.378382 -2.513506)" gradientUnits="userSpaceOnUse" x1="23.999994" x2="23.99999" y1="6.185175" y2="43"><stop offset="0" stop-color="#fff"/><stop offset="0" stop-color="#fff" stop-opacity=".235294"/><stop offset=".95056331" stop-color="#fff" stop-opacity=".156863"/><stop offset="1" stop-color="#fff" stop-opacity=".392157"/></linearGradient><radialGradient id="q" cx="605.71429" cy="486.64789" gradientTransform="matrix(.01566318 0 0 .00823529 17.610433 25.980565)" gradientUnits="userSpaceOnUse" r="117.14286" xlink:href="#e"/><radialGradient id="r" cx="605.71429" cy="486.64789" gradientTransform="matrix(-.01566318 0 0 .00823529 14.389566 25.980565)" gradientUnits="userSpaceOnUse" r="117.14286" xlink:href="#e"/><linearGradient id="s" gradientTransform="matrix(.04576928 0 0 .00823529 -.542324 25.980548)" gradientUnits="userSpaceOnUse" x1="302.85715" x2="302.85715" xlink:href="#b" y1="366.64789" y2="609.50507"/><linearGradient id="t" gradientTransform="matrix(.92105264 0 0 1.1298612 39.5778 -14.15036)" gradientUnits="userSpaceOnUse" x1="23.969797" x2="23.969797" y1="3.981044" y2="44.024017"><stop offset="0" stop-color="#fafafa"/><stop offset="1" stop-color="#d4d4d4"/></linearGradient><g transform="translate(-2)"><path d="m4.949989 29h22.100021v2h-22.100021z" fill="url(#s)" opacity=".15"/><path d="m4.9499887 29.000086v1.99989c-.806615.0038-1.950002-.448074-1.950002-1.000074s.900121-.999816 1.950002-.999816z" fill="url(#r)" opacity=".15"/><path d="m27.050011 29.000086v1.99989c.806614.0038 1.950002-.448074 1.950002-1.000074s-.900122-.999816-1.950002-.999816z" fill="url(#q)" opacity=".15"/><path d="m4.4999935.499998c5.270467 0 22.9999725.00185 22.9999725.00185l.000028 28.998154s-15.333333 0-23.0000005 0c0-9.666667 0-19.333334 0-29z" fill="url(#a)" stroke="#7a0000" stroke-linejoin="round" stroke-opacity=".501961"/><path d="m26.5 28.5h-21v-26.9999998h21z" fill="none" opacity=".5" stroke="url(#p)" stroke-linecap="round" stroke-linejoin="round"/><g fill-rule="evenodd" transform="matrix(.65116278 0 0 .65116278 -23.768842 6.535569)"><g fill="#7a0000"><path d="m65.194576-5.046198c-11.929691 12.576057-18.744693 14.351221-21.011513 14.546966v4.519444c1.710995-.293505 6.011783-1.312664 10.592105-4.837219 5.873233-4.519444 12.894737-13.09933 12.894737-13.09933-1.819698 4.385318-2.412075 18.973218-2.504112 38.415285h12.175165c.465395 0 .885286-.218174 1.208882-.564931-1.916296-5.637596-3.251885-13.050945-4.259869-19.772572-.955597-8.909001.455462-16.698066.978619-19.207643zm-21.011513 21.926372v4.978451c4.292119 0 10.593867 5.504798 14.592928 12.640323h3.453947c-3.949938-7.783719-14.770224-17.618774-18.046875-17.618774z" opacity=".1"/><path d="m65.194576-6.176059c-11.929691 12.576057-18.744693 14.351221-21.011513 14.546965v4.519446c1.710995-.293507 6.011783-1.312666 10.592105-4.83722 5.873233-4.519444 12.894737-13.09933 12.894737-13.09933-1.855028 4.470462-2.430159 19.533192-2.504112 39.545146h12.175165c.607917 0 1.132813-.364206 1.467928-.918012-2.065578-5.718188-3.463936-13.514339-4.518915-20.549352-.955597-8.909002.455462-16.698067.978619-19.207643zm-21.011513 21.926372v4.978451c4.517936 0 11.25425 6.087461 15.197369 13.770184h3.367598c-3.390495-7.923902-15.1256-18.748635-18.564967-18.748635z" opacity=".3"/><path d="m65.180722-7.3135532c-11.929691 12.5760572-18.73318 14.3667562-21 14.5625002v4.500001c1.710995-.293507 6.013428-1.287946 10.59375-4.812501 5.873233-4.519445 12.90625-13.125 12.90625-13.125-1.89037 4.55563-2.475588 20.102267-2.53125 40.687501h12.1875c.303907 0 .591496-.0917.84375-.25v-3.625c-1.731206-5.489072-2.959735-12.407019-3.90625-18.71875-.955597-8.909002.476843-16.709176 1-19.2187512zm-21 21.9375012v4.96875c4.737576 0 11.911988 6.697282 15.75 14.90625h3.28125c-2.669685-7.976224-15.426789-19.875-19.03125-19.875z" opacity=".5"/></g><path d="m65.180722-8.501053c-11.929691 12.576056-18.73318 14.366756-21 14.5625v4.500001c1.710995-.293506 6.013428-1.319197 10.59375-4.843751 5.873233-4.519445 12.90625-13.0937502 12.90625-13.0937502-1.925701 4.6407752-2.494043 20.6511492-2.53125 41.8125012h12.3125c.262781 0 .4972-.0623.71875-.1875v-4.84375c-1.72447-5.485979-2.961964-12.390636-3.90625-18.6875-.955597-8.909002.476843-16.709176 1-19.218751zm-21 21.906251v5c4.952659 0 12.566711 7.315678 16.25 16.03125h3.09375c-1.730686-7.923306-15.56527-21.03125-19.34375-21.03125z" fill="url(#t)"/><path d="m25.455078 1.0000001c-3.053299 2.2852818-12.907459 9.2860789-20.455078 8.4042968v6.3085941s15.518746 2.830017 22-2.46289v-12.0878915c-.164209-.1032627-.350935-.1621094-.548828-.1621094zm1.544922 15.1386729c-2.809051 3.586493-5.610085 8.128203-7.527344 12.820312h2.400391c1.486043-3.084251 3.377295-6.432525 5.126953-8.791016z" fill="#7a0000" opacity=".05" transform="matrix(1.5357143 0 0 1.5357143 36.502151 -10.036767)"/></g></g><g transform="matrix(1.33333 0 0 1.33333 -.66662 -11.666584)"><g opacity=".7" transform="matrix(.01071131 0 0 .00543807 23.525282 30.21816)"><path d="m-1559.2523-150.69685h1339.6335v478.35718h-1339.6335z" fill="url(#c)" opacity=".39196"/><path d="m-219.61876-150.68038v478.33079c142.874166.90045 345.40022-107.16966 345.40014-239.196175 0-132.026537-159.436816-239.134595-345.40014-239.134615z" fill="url(#d)" opacity=".402062"/><path d="m-1559.2523-150.68038v478.33079c-142.8742.90045-345.4002-107.16966-345.4002-239.196175 0-132.026537 159.4368-239.134595 345.4002-239.134615z" fill="url(#f)" opacity=".402062"/></g><rect fill="url(#g)" fill-rule="evenodd" height="12.375031" rx=".5" width="19.500048" x="4.249976" y="17.749983"/><g fill="none" stroke-width=".750002"><path d="m11.543757 24.499999-5.4187768 5.250013zm4.959902-.07416 5.196082 5.32417z" stroke="url(#h)"/><path d="m12.124995 24.875-4.875012 4.875012zm3.75001 0 4.322646 4.424639z" opacity=".7" stroke="url(#i)"/><path d="m7.4264159 21.420414 6.6143001 5.494264 6.533049-5.494264" opacity=".06" stroke="url(#k)"/><path d="m6.1249802 18.499984 7.8750198 6.592707 7.87502-6.592707" opacity=".7" stroke="url(#l)"/></g><path d="m4.8448715 17.756888c-.3217186-.0017-.6151563.194425-.6151563.49027l.02026 7.752845c.5178167-.008052 19.0985508-2.854592 19.4915898-2.996053l-.0143-4.56683c-.000708-.226134-.271012-.58442-.549585-.585854z" fill="url(#m)" fill-rule="evenodd" opacity=".2"/><g fill="none" stroke-width=".750002"><path d="m4.624977 18.124983h18.750046v11.625028h-18.750046z" stroke="url(#n)" stroke-linecap="round" stroke-linejoin="round"/><rect height="13.125033" opacity=".3" rx=".750001" ry=".750002" stroke="#000" width="20.250051" x="3.874975" y="17.374981"/><path d="m4.6249765 18.124983 9.3751145 7.963561 8.999931-7.58856" stroke="url(#o)"/></g></g></svg>