<svg height="32" width="32" xmlns="http://www.w3.org/2000/svg" xmlns:xlink="http://www.w3.org/1999/xlink"><radialGradient id="a" cx="6.702713" cy="73.615715" gradientTransform="matrix(1.962544 0 0 .3559079 -.239114 3.226934)" gradientUnits="userSpaceOnUse" r="7.228416"><stop offset="0" stop-opacity=".325581"/><stop offset=".5" stop-opacity=".192157"/><stop offset="1" stop-opacity="0"/></radialGradient><radialGradient id="b" cx="21.959826" cy="-6.637001" gradientTransform="matrix(-.00816381 1.5058602 -1.5421789 -.00836067 -1.939273 -18.637832)" gradientUnits="userSpaceOnUse" r="11.508719"><stop offset="0" stop-color="#fff3cb"/><stop offset=".26238" stop-color="#fdde76"/><stop offset=".66093999" stop-color="#f9c440"/><stop offset="1" stop-color="#e48b20"/></radialGradient><linearGradient id="c" gradientTransform="matrix(.52015924 -.04736747 .0511541 .56654328 -1.569401 7.520321)" gradientUnits="userSpaceOnUse" x1="27.260933" x2="25.010578" y1="11.249186" y2="31.264799"><stop offset="0" stop-color="#fff"/><stop offset=".33380178" stop-color="#fff" stop-opacity=".235294"/><stop offset=".67927718" stop-color="#fff" stop-opacity=".156863"/><stop offset="1" stop-color="#fff" stop-opacity=".392157"/></linearGradient><g transform="matrix(1.2553115 0 0 1.2553115 .89411 -9.341999)"><path d="m10.440348 10.395488c-5.636097.829707-9.806467 4.707207-9.427543 8.905512.245369 2.718574 2.33505 4.956193 5.323376 6.136791l-1.247369 4.853248 5.518268-3.985027.03815-.0035c.680994.0325 1.365148.04327 2.075104-.0214 6.05829-.551901 10.664405-4.577194 10.266843-8.981971-.39756-4.404778-5.649239-7.5320378-11.707529-6.980136-.283982.02587-.562113.03565-.839299.07646z" fill="url(#b)" fill-rule="evenodd"/><path d="m10.627833 11.237452c-4.8285467.701926-9.0860716 3.826011-8.7502536 8.056163.2255573 2.841259 2.873475 4.769288 5.6273634 5.665593l-1.0107838 3.198549 3.767576-2.674977c.583099.02527 1.693807.07039 2.301942.015 4.59818-.418725 10.189139-3.886097 9.657349-8.108347-.538412-4.274811-5.637831-6.717561-10.874267-6.217449-.243151.02322-.481457.03095-.718926.06547z" fill="none" opacity=".8" stroke="url(#c)" stroke-width=".796615"/><path d="m27.101338 29.42735c0 1.420835-6.351327 2.57265-14.186083 2.57265-7.834758 0-14.1860838-1.151815-14.1860838-2.57265 0-1.420836 6.3513258-2.572651 14.1860838-2.572651 7.834756 0 14.186083 1.151815 14.186083 2.572651z" fill="url(#a)" opacity=".4"/><path d="m10.440348 10.395488c-5.636097.829707-9.806467 4.707207-9.427543 8.905512.245369 2.718574 2.33505 4.956193 5.323376 6.136791l-1.247369 4.853248 5.518268-3.985027.03815-.0035c.680994.0325 1.365148.04327 2.075104-.0214 6.05829-.551901 10.664405-4.577194 10.266843-8.981971-.39756-4.404778-5.649239-7.5320381-11.707529-6.980136-.283982.02587-.562113.03565-.839299.07646z" fill="none" opacity=".5" stroke="#956500" stroke-linejoin="round" stroke-width=".796615"/></g></svg>