<svg height="32" viewBox="0 0 32 32" width="32" xmlns="http://www.w3.org/2000/svg" xmlns:xlink="http://www.w3.org/1999/xlink"><linearGradient id="a" gradientTransform="matrix(.20515598 0 0 .20369724 7.420038 5.278451)" gradientUnits="userSpaceOnUse" x1="24.28183" x2="24.138529" y1="11.981194" y2="35.62291"><stop offset="0" stop-color="#fff"/><stop offset=".06737649" stop-color="#fff" stop-opacity=".235294"/><stop offset="1" stop-color="#fff" stop-opacity=".156863"/><stop offset="1" stop-color="#fff" stop-opacity=".392157"/></linearGradient><linearGradient id="b" gradientTransform="matrix(.20515598 0 0 .20369724 7.407064 5.283756)" gradientUnits="userSpaceOnUse" x1="24.34507" x2="24.34507" y1="23.000984" y2="26.682928"><stop offset="0" stop-color="#fff"/><stop offset=".31060818" stop-color="#fff" stop-opacity=".235294"/><stop offset="1" stop-color="#fff" stop-opacity=".156863"/><stop offset="1" stop-color="#fff" stop-opacity=".392157"/></linearGradient><radialGradient id="c" cx="10.947465" cy="10.319761" gradientTransform="matrix(-.00000004 2.3489569 -3.9836033 -.00000003 53.513448 -18.750637)" gradientUnits="userSpaceOnUse" r="3.765445"><stop offset="0" stop-color="#d1ff82"/><stop offset=".26238" stop-color="#9bdb4d"/><stop offset=".66093999" stop-color="#68b723"/><stop offset="1" stop-color="#3a9104"/></radialGradient><g transform="matrix(1.33333 0 0 1.33333 0 -9.333302)"><rect fill="#fff" fill-opacity=".977941" height="1.500005" opacity=".35" ry=".375001" width="12.000031" x="10.500026" y="23.500034"/><rect fill-opacity=".658824" height="1.500003" ry=".375001" transform="scale(-1 1)" width="12.000031" x="-22.500055" y="22.750034"/><rect fill="#fff" fill-opacity=".977941" height="1.500005" opacity=".35" ry=".375001" width="12.000031" x="10.500026" y="17.500021"/><rect fill-opacity=".658824" height="1.500003" ry=".375001" transform="scale(-1 1)" width="12.000031" x="-22.500055" y="16.750019"/><rect fill="#fff" fill-opacity=".977941" height="1.500004" opacity=".35" ry=".375001" width="12.000031" x="10.500026" y="11.500006"/><rect fill="#fff" fill-opacity=".977941" height="1.500004" opacity=".35" ry=".375001" width="9.750024" x="12.750032" y="14.500013"/><rect fill="#272727" fill-opacity=".776471" height="1.500004" ry=".375001" width="12.000031" x="10.500026" y="10.750004"/><rect fill="#fff" fill-opacity=".977941" height="1.500004" opacity=".35" ry=".375001" width="9.750024" x="12.750032" y="26.500044"/><rect fill-opacity=".658824" height="1.500004" ry=".375001" transform="scale(-1 1)" width="9.750024" x="-22.500055" y="25.750042"/><rect fill="#fff" fill-opacity=".977941" height="1.500003" opacity=".35" ry=".375001" width="9.750024" x="12.750032" y="20.500029"/><rect fill-opacity=".658824" height="1.500003" ry=".375001" transform="scale(-1 1)" width="9.750024" x="-22.500055" y="19.750027"/><rect fill-opacity=".658824" height="1.500004" ry=".375001" transform="scale(-1 1)" width="9.750024" x="-22.500055" y="13.750011"/><g transform="translate(-6.778598 9.035531)"><path d="m10.902113 8.8376127-.000516-2.2436682 3.000002.00004v2.2499659l2.250011.0000396-.00001 3.000008-2.220141-.0093-.02985 2.259304h-3.000002l.02985-2.259304-2.2798658.0093-.03087-3.0092369z" fill="url(#c)"/><g fill="none" stroke-width=".750002"><path d="m10.901608 8.8439805.002-2.254496 2.997996.0045.00001 2.2500059 2.249996-.0000003-.00001 3.0000079h-2.249996l-.000005 2.250004h-3.000002l.002-2.254504-2.2520058.0045.00001-3.0000079z" opacity=".5" stroke="#206b00" stroke-linecap="round" stroke-linejoin="round"/><path d="m11.651599 9.593992v-2.2500056h1.500004v2.2500056m-.00001 1.500004.00001 2.250005h-1.500004l-.00001-2.250005" opacity=".5" stroke="url(#a)"/><path d="m12.776602 9.593992h2.625006v1.500004h-2.625006m-.747991-.0045-2.627018.0045.0000002-1.500004 2.6270178-.0045" opacity=".5" stroke="url(#b)"/></g></g></g></svg>