<svg height="32" viewBox="0 0 8.4666665 8.4666669" width="32" xmlns="http://www.w3.org/2000/svg" xmlns:xlink="http://www.w3.org/1999/xlink"><linearGradient id="a" gradientTransform="matrix(.15017 0 0 .19307 .63 287.868)" gradientUnits="userSpaceOnUse" x1="24" x2="23.761099" xlink:href="#e" y1="5.564" y2="41.885098"/><linearGradient id="b" gradientTransform="matrix(.0121 0 0 .00218 -.143 295.407)" gradientUnits="userSpaceOnUse" x1="302.857" x2="302.857" y1="366.648" y2="609.505"><stop offset="0" stop-opacity="0"/><stop offset=".5"/><stop offset="1" stop-opacity="0"/></linearGradient><radialGradient id="c" cx="605.714" cy="486.648" gradientTransform="matrix(-.00414 0 0 .00218 3.807 295.407)" gradientUnits="userSpaceOnUse" r="117.143"><stop offset="0"/><stop offset="1" stop-opacity="0"/></radialGradient><linearGradient id="d" gradientTransform="matrix(.1663 0 0 .16097 .242 288.392)" gradientUnits="userSpaceOnUse" x1="25.132" x2="25.132" y1=".985" y2="47.013"><stop offset="0" stop-color="#f4f4f4"/><stop offset="1" stop-color="#dbdbdb"/></linearGradient><linearGradient id="e" gradientTransform="matrix(.15017 0 0 .19307 .63 287.868)" gradientUnits="userSpaceOnUse" x1="24" x2="24" y1="5.564" y2="43"><stop offset="0" stop-color="#fff"/><stop offset=".036" stop-color="#fff" stop-opacity=".235"/><stop offset=".951" stop-color="#fff" stop-opacity=".157"/><stop offset="1" stop-color="#fff" stop-opacity=".392"/></linearGradient><linearGradient id="f" gradientTransform="matrix(.1404 0 0 .15602 10.39 288.06)" gradientUnits="userSpaceOnUse" x1="-51.786" x2="-51.786" y1="50.786" y2="2.906"><stop offset="0" stop-opacity=".318"/><stop offset="1" stop-opacity=".24"/></linearGradient><clipPath id="g"><path d="m1.0577084 288.53371h6.3499999v3.96875h-6.3499999z"/></clipPath><clipPath id="h"><path d="m1.0577084 292.50229h6.3499999l.0000003 4.23333h-6.3500001z"/></clipPath><g clip-path="url(#h)" transform="translate(.000625 -292.50229)"><path d="m1.31 296.206h5.847v.53h-5.847z" fill="url(#b)" opacity=".15"/><path d="m1.31 296.206v.53c-.214 0-.516-.12-.516-.265s.238-.264.516-.264z" fill="url(#c)" opacity=".15"/><path d="m1.323 288.798h5.82v7.408h-5.82z" fill="url(#d)"/><g fill="none" stroke-linejoin="round" stroke-width=".265"><path d="m7.01 296.074h-5.554v-7.144h5.554z" stroke="url(#a)" stroke-linecap="round"/><path d="m1.19 288.666h6.086v7.673h-6.086v-7.674z" stroke="url(#f)"/></g></g><g clip-path="url(#g)" transform="translate(.000625 -284.03579)"><path d="m1.31 296.206h5.847v.53h-5.847z" fill="url(#b)" opacity=".15"/><path d="m1.31 296.206v.53c-.214 0-.516-.12-.516-.265s.238-.264.516-.264z" fill="url(#c)" opacity=".15"/><path d="m1.323 288.798h5.82v7.408h-5.82z" fill="url(#d)"/><g fill="none" stroke-linejoin="round" stroke-width=".265"><path d="m7.01 296.074h-5.554v-7.144h5.554z" stroke="url(#e)" stroke-linecap="round"/><path d="m1.19 288.666h6.086v7.673h-6.086v-7.674z" stroke="url(#f)"/></g></g><g fill="#fcaf3e" stroke="#ce5c00" stroke-linecap="round" stroke-linejoin="round" stroke-width=".264583"><path d="m4.3656249 7.0114638-1.0583333-1.0583333h2.1166667z"/><path d="m4.3656225 1.4552026 1.0583307 1.0583307h-2.1166614z"/></g></svg>