<svg height="32" viewBox="0 0 8.4666665 8.4666668" width="32" xmlns="http://www.w3.org/2000/svg" xmlns:xlink="http://www.w3.org/1999/xlink"><linearGradient id="a" gradientTransform="matrix(.1347 0 0 .14642 -.198 290.374)" gradientUnits="userSpaceOnUse" x1="24" x2="24" y1="5" y2="43"><stop offset="0" stop-color="#fff"/><stop offset=".063" stop-color="#fff" stop-opacity=".235"/><stop offset=".951" stop-color="#fff" stop-opacity=".157"/><stop offset="1" stop-color="#fff" stop-opacity=".392"/></linearGradient><linearGradient id="b" gradientTransform="matrix(.11794 0 0 .11905 .212 290.644)" gradientUnits="userSpaceOnUse" x1="25.132" x2="25.132" y1="15.5" y2="48.396"><stop offset="0" stop-color="#fafafa"/><stop offset="1" stop-color="#e2e1de"/></linearGradient><g transform="matrix(1.33333 0 0 1.33333 .176 -387.532)"><rect fill="url(#b)" height="5.556" rx=".197736" ry=".198043" width="5.159" x=".463" y="291.047"/><path d="m.543 291.18h4.983l-.00252 5.32365h-4.96094733z" fill="none" stroke="url(#a)" stroke-linecap="round" stroke-linejoin="round" stroke-width=".201"/><path d="m.26613967 292.03879h5.55500003v.198h-5.55400003z" opacity=".286"/><path d="m4.0214844 1.5019531c-.7659824 0-1.5214844.8433927-1.5214844 1.609375v4.8886719 15.998047 4.888672c0 .765982.755502 1.611328 1.5214844 1.611328h23.8906246c.765983 0 1.56332-.845346 1.56836-1.611328l.003906-4.886719h.015625l-.007812-8 .007812-8.0019531h-.015625l-.003906-4.8867188c-.00504-.7659823-.802377-1.609375-1.56836-1.609375z" fill="none" opacity=".3" stroke="#000" transform="matrix(.198438 0 0 .198438 -.132 290.64973)"/><path d="m1.4540737 292.23723h.2l.0009263 4.36577h-.2zm1.389 0h.2l.0009263 4.36577h-.2zm1.389 0h.2v4.36564h-.198438zm-3.7690737.99277h.992v.198h-.992z" opacity=".321"/><path d="m1.654 293.23h1.19v.198h-1.19zm1.389 0h1.19v.198h-1.19zm1.389 0h1.19v.198h-1.19zm-3.969 1.19h.992v.2h-.992zm1.191 0h1.19v.2h-1.19zm1.389 0h1.19v.2h-1.19zm1.389 0h1.19v.2h-1.19zm-3.969 1.19h.992v.2h-.992zm1.191 0h1.19v.2h-1.19zm1.389 0h1.19v.2h-1.19zm1.389 0h1.19v.2h-1.19z" opacity=".321"/><path d="m1.455 291.047h.2l-.0009263.99123h-.2zm1.389 0h.2l-.0009263.99123h-.2zm1.389 0h.2l-.0009263.99123h-.2z" fill="#323232" opacity=".4"/></g><g transform="matrix(0 -1 1 0 -1.321339 8.203697)"><path d="m.26601861 3.7039999h7.40798149l-.004 1.5880001h-7.40598148z" fill="#f37329"/><g fill="#cc3b02"><path d="m.26601861 3.44c-.147-.0000001-.26536838.1180004-.265.2639999l.00399999 1.5853294c.0003709.1469995.117.265.263.265h7.4079816c.146 0 .2643708-.1180004.2639999-.265l-.004-1.5853293c-.0003684-.1459995-.1179999-.264-.2639999-.264zm0 .2639999 7.40798149.0000001v1.5853293h-7.4059815z"/><path d="m2.911345 3.702667h.265333v1.586663h-.265333z"/><path d="m4.498008 3.702667h.265333v1.586663h-.265333z"/><path d="m6.087031 3.702765h.265333v1.585329h-.265333z"/><path d="m1.323349 3.702667h.266666v1.586663h-.266666z"/></g></g></svg>