<svg height="32" width="32" xmlns="http://www.w3.org/2000/svg" xmlns:xlink="http://www.w3.org/1999/xlink"><linearGradient id="a"><stop offset="0" stop-color="#fff"/><stop offset=".063" stop-color="#fff" stop-opacity=".235"/><stop offset=".951" stop-color="#fff" stop-opacity=".157"/><stop offset="1" stop-color="#fff" stop-opacity=".392"/></linearGradient><linearGradient id="b"><stop offset="0" stop-color="#fafafa"/><stop offset="1" stop-color="#e1e1e1"/></linearGradient><linearGradient id="c" gradientTransform="matrix(.8075 0 0 .83374 106.877 -.07)" gradientUnits="userSpaceOnUse" x1="-95.838" x2="-95.838" y1="54.2" y2="5.176"><stop offset="0" stop-opacity=".322"/><stop offset="1" stop-opacity=".278"/></linearGradient><linearGradient id="d" gradientUnits="userSpaceOnUse" x1="24" x2="24" xlink:href="#a" y1="6" y2="44"/><radialGradient id="e" cx="32" cy="4.342" gradientTransform="matrix(0 1.6258 -1.6258 0 31.059 -46.135)" gradientUnits="userSpaceOnUse" r="27.5" xlink:href="#b"/><radialGradient id="f" cx="13.631" cy="1024.837" gradientTransform="matrix(0 3.03215 -2.74933 0 2831.745 -29.358)" gradientUnits="userSpaceOnUse" r="2" xlink:href="#g"/><linearGradient id="g"><stop offset="0" stop-color="#b3b3b3"/><stop offset="1" stop-color="#8e8e8e"/></linearGradient><linearGradient id="h" gradientUnits="userSpaceOnUse" x1="11.5" x2="11.5" xlink:href="#i" y1="12.031" y2="16.836"/><linearGradient id="i"><stop offset="0" stop-color="#7d7d7d"/><stop offset="1" stop-color="#a0a0a0"/></linearGradient><linearGradient id="j" gradientUnits="userSpaceOnUse" x1="11.258" x2="11.258" xlink:href="#k" y1="17.404" y2="10.562"/><linearGradient id="k"><stop offset="0" stop-color="#fff"/><stop offset="1" stop-color="#fff" stop-opacity="0"/></linearGradient><linearGradient id="l" gradientUnits="userSpaceOnUse" x1="23.414" x2="23.414" xlink:href="#m" y1="13.207" y2="15.007"/><linearGradient id="m"><stop offset="0" stop-color="#696969"/><stop offset="1" stop-color="#949494"/></linearGradient><radialGradient id="n" cx="13.631" cy="1024.837" gradientTransform="matrix(0 3.03215 -2.74933 0 2831.745 -19.358)" gradientUnits="userSpaceOnUse" r="2" xlink:href="#g"/><linearGradient id="o" gradientUnits="userSpaceOnUse" x1="11.5" x2="11.5" xlink:href="#i" y1="22.031" y2="26.836"/><linearGradient id="p" gradientUnits="userSpaceOnUse" x1="11.258" x2="11.258" xlink:href="#k" y1="27.404" y2="20.562"/><linearGradient id="q" gradientUnits="userSpaceOnUse" x1="23.414" x2="23.414" xlink:href="#m" y1="23.207" y2="25.007"/><linearGradient id="r" gradientUnits="userSpaceOnUse" x1="32.205" x2="32.205" xlink:href="#k" y1="27.026" y2="21.596"/><linearGradient id="s" gradientUnits="userSpaceOnUse" x1="29.054" x2="29.054" y1="34.841" y2="33.471"><stop offset="0" stop-color="#34b2f4"/><stop offset="1" stop-color="#136ebc"/></linearGradient><linearGradient id="t" gradientUnits="userSpaceOnUse" x1="32.205" x2="32.205" xlink:href="#k" y1="37.026" y2="31.596"/><radialGradient id="u" cx=".753" cy="8.45" gradientTransform="matrix(0 .47014 -.32038 0 16.207 29.7)" gradientUnits="userSpaceOnUse" r="20" xlink:href="#v"/><linearGradient id="v"><stop offset="0" stop-color="#90dbec"/><stop offset=".262" stop-color="#55c1ec"/><stop offset=".705" stop-color="#3689e6"/><stop offset="1" stop-color="#2b63a0"/></linearGradient><linearGradient id="w" gradientUnits="userSpaceOnUse" x1="10.184" x2="10.184" xlink:href="#x" y1="31.659" y2="38.356"/><linearGradient id="x"><stop offset="0" stop-color="#0e73c8"/><stop offset="1" stop-color="#40a5e4"/></linearGradient><linearGradient id="y" gradientUnits="userSpaceOnUse" x1="12.404" x2="12.404" xlink:href="#k" y1="37.81" y2="30.323"/><linearGradient id="z" gradientUnits="userSpaceOnUse" x1="32.205" x2="32.205" xlink:href="#k" y1="17.026" y2="11.596"/><linearGradient id="A" gradientUnits="userSpaceOnUse" x1="278.737" x2="278.904" xlink:href="#a" y1="275.478" y2="293.593"/><linearGradient id="B" gradientUnits="userSpaceOnUse" x1="282.654" x2="283.404" xlink:href="#b" y1="275.593" y2="295.843"/><linearGradient id="C" gradientUnits="userSpaceOnUse" x1="276.654" x2="276.654" xlink:href="#v" y1="271.843" y2="277.843"/><linearGradient id="D" gradientUnits="userSpaceOnUse" x1="281.154" x2="281.154" xlink:href="#x" y1="272.593" y2="275.593"/><linearGradient id="E" gradientUnits="userSpaceOnUse" x1="3.372" x2="5.612" xlink:href="#i" y1="6.995" y2="6.995"/><linearGradient id="F" gradientUnits="userSpaceOnUse" x1="3.372" x2="5.612" xlink:href="#i" y1="11.495" y2="11.495"/><linearGradient id="G" gradientUnits="userSpaceOnUse" x1="3.372" x2="5.612" xlink:href="#i" y1="15.995" y2="15.995"/><linearGradient id="H" gradientUnits="userSpaceOnUse" x1="3.372" x2="5.612" xlink:href="#i" y1="20.495" y2="20.495"/><linearGradient id="I" gradientUnits="userSpaceOnUse" x1="10.868" x2="10.868" xlink:href="#m" y1="6.624" y2="7.374"/><linearGradient id="J" gradientUnits="userSpaceOnUse" x1="10.868" x2="10.868" xlink:href="#m" y1="11.124" y2="11.874"/><linearGradient id="K" gradientUnits="userSpaceOnUse" x1="10.868" x2="10.868" xlink:href="#m" y1="15.624" y2="16.374"/><linearGradient id="L" gradientUnits="userSpaceOnUse" x1="10.868" x2="10.868" xlink:href="#m" y1="20.124" y2="20.874"/><linearGradient id="M" gradientUnits="userSpaceOnUse" x1="277.054" x2="277.054" y1="294.668" y2="274.769"><stop offset="0" stop-color="#9c9c9c"/><stop offset="1" stop-color="#afafaf"/></linearGradient><g transform="matrix(1.33333 0 0 1.33333 3.51 -.832)"><g stroke-width=".75"><path d="m285.458 274.482c.743 0 1.4.164 1.32 1.343v17.902c.018.866-.9 1.053-1.577.976h-12.426c-.863.018-1.05-.903-.972-1.584v-18.935c.325-.69 5.868-.285 10.113.27 1.008 0 2.57-.018 3.543.027z" fill="url(#B)" stroke="url(#M)" transform="translate(-270.286 -271.22)"/><path d="m271.786 275.22.007-2.016c.002-.545.424-.986.952-.984l8.01.03c.528.002.783.43.782.974l-.007 2.016" fill="url(#C)" stroke="url(#D)" transform="translate(-270.286 -271.22)"/><path d="m273.014 272.93 7.342.03c.608.062.413.6.445 1.025 0 .355-.008 1.022.003 1.215 1.015 0 2.432-.017 4.144-.017s1.073.19 1.074.754l.02 17.593c-.06.616-.75.418-1.17.45h-11.842c-.608-.06-.413-.76-.445-1.185l-.014-19.414c-.007-.24.205-.456.444-.45z" fill="none" opacity=".6" stroke="url(#A)" transform="translate(-270.286 -271.22)"/></g><rect fill="url(#J)" height=".75" rx=".286" ry=".375" width="7.5" x="7.118" y="11.124"/><rect fill="url(#K)" height=".75" rx=".286" ry=".375" width="7.5" x="7.118" y="15.624"/><rect fill="url(#L)" height=".75" rx=".286" ry=".375" width="7.5" x="7.118" y="20.124"/><rect fill="url(#I)" height=".75" rx=".286" ry=".375" width="7.5" x="7.118" y="6.624"/><g fill="#a2a2a2" stroke="#2e3436" stroke-linecap="round" stroke-width=".75"><rect height="1.486" rx=".417" ry=".421" stroke="url(#E)" width="1.49" x="3.747" y="6.252"/><rect height="1.486" rx=".417" ry=".421" stroke="url(#F)" width="1.49" x="3.747" y="10.752"/><rect height="1.486" rx=".417" ry=".421" stroke="url(#G)" width="1.49" x="3.747" y="15.252"/><rect height="1.486" rx=".417" ry=".421" stroke="url(#H)" width="1.49" x="3.747" y="19.752"/></g></g><g transform="translate(29.492 -10.237)"><text opacity=".8" x="930.44" y="10.722"/><text opacity=".8" x="954.401" y="-30.019"/><text opacity=".8" x="-516.158" y="-60.098"/><text opacity=".8" x="-2339.844" y="685.456"/><text opacity=".8" x="-401.667" y="-445.419"/><text opacity=".8" x="405.936" y="-858.889"/><text opacity=".8" x="429.897" y="-899.63"/><text opacity=".8" x="-1061.567" y="-906.84"/><text opacity=".8" x="398.976" y="-1180.074"/><text opacity=".8" x="1885.1" y="-553.383"/><text opacity=".8" x="1909.06" y="-594.125"/><text opacity=".8" x="417.597" y="-601.335"/><text opacity=".8" x="1878.14" y="-874.569"/><text opacity=".8" x="-520.219" y="-649.426"/><text opacity=".8" x="-2343.905" y="96.128"/><text opacity=".8" x="-629.149" y="189"/><text opacity=".8" x="479.875" y="9.817"/><text opacity=".8" x="503.836" y="-30.924"/><text opacity=".8" x="-987.627" y="-38.134"/><text opacity=".8" x="472.916" y="-311.368"/><text opacity=".8" x="-554.819" y="-40.848"/><text opacity=".8" x="-2378.505" y="704.705"/><text opacity=".8" x="-403.726" y="-902.379"/><text opacity=".8" x="403.876" y="-1315.849"/><text opacity=".8" x="427.837" y="-1356.591"/><text opacity=".8" x="-1063.626" y="-1363.801"/><text opacity=".8" x="396.917" y="-1637.035"/><text opacity=".8" x="1883.04" y="-1010.344"/><text opacity=".8" x="1907.001" y="-1051.085"/><text opacity=".8" x="415.538" y="-1058.295"/><text opacity=".8" x="1876.081" y="-1331.529"/><text opacity=".8" x="-522.279" y="-1106.387"/><text opacity=".8" x="-2345.964" y="-360.833"/><text opacity=".8" x="-631.209" y="-267.961"/><text opacity=".8" x="208.806" y="-27.047"/><text opacity=".8" x="232.767" y="-67.788"/><text opacity=".8" x="-1037.05" y="-261.817"/><text opacity=".8" x="-229.448" y="-675.287"/><text opacity=".8" x="-205.487" y="-716.029"/><text opacity=".8" x="-1696.95" y="-723.239"/><text opacity=".8" x="-236.407" y="-996.473"/><text opacity=".8" x="1249.716" y="-369.781"/><text opacity=".8" x="1273.677" y="-410.523"/><text opacity=".8" x="-217.786" y="-417.733"/><text opacity=".8" x="1242.757" y="-690.967"/><text opacity=".8" x="-1155.602" y="-465.824"/><text opacity=".8" x="-2979.288" y="279.729"/></g><text opacity=".8" transform="matrix(.90475 0 0 .90475 -634.04 -686.616)" x="-664.274" y="1159.415"/><g transform="translate(29.492 -10.237)"><text opacity=".8" x="930.44" y="17.96"/><text opacity=".8" x="954.401" y="-22.781"/><text opacity=".8" x="-516.158" y="-52.86"/><text opacity=".8" x="-2339.844" y="692.694"/><text opacity=".8" x="-401.667" y="-438.181"/><text opacity=".8" x="405.936" y="-851.651"/><text opacity=".8" x="429.897" y="-892.392"/><text opacity=".8" x="-1061.567" y="-899.602"/><text opacity=".8" x="398.976" y="-1172.836"/><text opacity=".8" x="1885.1" y="-546.145"/><text opacity=".8" x="1909.06" y="-586.887"/><text opacity=".8" x="417.597" y="-594.097"/><text opacity=".8" x="1878.14" y="-867.331"/><text opacity=".8" x="-520.219" y="-642.188"/><text opacity=".8" x="-2343.905" y="103.365"/><text opacity=".8" x="-629.149" y="196.238"/><text opacity=".8" x="479.875" y="17.055"/><text opacity=".8" x="503.836" y="-23.686"/><text opacity=".8" x="-987.627" y="-30.896"/><text opacity=".8" x="472.916" y="-304.13"/><text opacity=".8" x="-554.819" y="-33.61"/><text opacity=".8" x="-2378.505" y="711.943"/><text opacity=".8" x="-403.726" y="-895.141"/><text opacity=".8" x="403.876" y="-1308.611"/><text opacity=".8" x="427.837" y="-1349.353"/><text opacity=".8" x="-1063.626" y="-1356.563"/><text opacity=".8" x="396.917" y="-1629.797"/><text opacity=".8" x="1883.04" y="-1003.106"/><text opacity=".8" x="1907.001" y="-1043.847"/><text opacity=".8" x="415.538" y="-1051.057"/><text opacity=".8" x="1876.081" y="-1324.291"/><text opacity=".8" x="-522.279" y="-1099.148"/><text opacity=".8" x="-2345.964" y="-353.595"/><text opacity=".8" x="-631.209" y="-260.723"/><text opacity=".8" x="208.806" y="-19.809"/><text opacity=".8" x="232.767" y="-60.55"/><text opacity=".8" x="-1037.05" y="-254.579"/><text opacity=".8" x="-229.448" y="-668.049"/><text opacity=".8" x="-205.487" y="-708.791"/><text opacity=".8" x="-1696.95" y="-716.001"/><text opacity=".8" x="-236.407" y="-989.235"/><text opacity=".8" x="1249.716" y="-362.544"/><text opacity=".8" x="1273.677" y="-403.285"/><text opacity=".8" x="-217.786" y="-410.495"/><text opacity=".8" x="1242.757" y="-683.729"/><text opacity=".8" x="-1155.602" y="-458.586"/><text opacity=".8" x="-2979.288" y="286.967"/></g><text opacity=".8" transform="matrix(.90475 0 0 .90475 -634.04 -679.378)" x="-664.274" y="1159.415"/><g transform="translate(29.492 -10.237)"><text x="489.118" y="-361.316"/><text opacity=".8" x="954.302" y="-843.36"/><text opacity=".8" x="-869.384" y="-97.807"/><text opacity=".8" x="1681.381" y="-1128.356"/><text opacity=".8" x="1705.342" y="-1169.098"/><text opacity=".8" x="213.879" y="-1176.308"/><text opacity=".8" x="1674.422" y="-1449.542"/></g><g transform="translate(29.492 -11.237)"><rect fill="url(#e)" height="38" rx="1.5" width="38" x="5" y="6"/><rect fill="none" height="37" rx="1" stroke="url(#d)" stroke-linecap="round" stroke-linejoin="round" width="37" x="5.5" y="6.5"/><rect fill="none" height="39" opacity=".8" rx="2" stroke="url(#c)" width="39" x="4.5" y="5.5"/><g transform="translate(-.5 .5)"><rect fill="none" height="2" opacity=".6" rx="1" stroke="url(#z)" stroke-width="2" width="18" x="19.5" y="13.5"/><rect height="5" rx=".385" style="opacity:.7;fill:none;stroke-width:3;stroke-linecap:round;stroke-linejoin:round;stroke:url(#y)" width="5" x="11" y="32"/><rect fill="url(#u)" height="5" rx=".385" stroke="url(#w)" stroke-linecap="round" stroke-linejoin="round" width="5" x="11" y="32"/><rect fill="none" height="2" opacity=".6" rx="1" stroke="url(#t)" stroke-width="2" width="18" x="19.5" y="33.5"/><rect fill="url(#s)" height="2" rx="1" width="18" x="19.5" y="33.5"/><rect fill="none" height="2" opacity=".6" rx="1" stroke="url(#r)" stroke-width="2" width="18" x="19.5" y="23.5"/><rect fill="url(#q)" height="2" rx="1" width="18" x="19.5" y="23.5"/><rect height="3" rx=".231" style="opacity:.6;fill:none;stroke-width:3;stroke-linecap:round;stroke-linejoin:round;stroke:url(#p)" width="3" x="12" y="23"/><rect fill="url(#n)" height="3" rx=".231" stroke="url(#o)" stroke-linecap="round" stroke-linejoin="round" width="3" x="12" y="23"/><rect fill="url(#l)" height="2" rx="1" width="18" x="19.5" y="13.5"/><g stroke-linecap="round" stroke-linejoin="round"><rect fill="none" height="3" opacity=".6" rx=".231" stroke="url(#j)" stroke-width="3" width="3" x="12" y="13"/><rect fill="url(#f)" height="3" rx=".231" stroke="url(#h)" width="3" x="12" y="13"/></g></g></g></svg>