<svg height="32" viewBox="0 0 8.4666665 8.4666668" width="32" xmlns="http://www.w3.org/2000/svg" xmlns:xlink="http://www.w3.org/1999/xlink"><linearGradient id="a" gradientTransform="matrix(.1347 0 0 .14642 -.198 289.18338)" gradientUnits="userSpaceOnUse" x1="9.329084" x2="9.329084" xlink:href="#q" y1="38.475292" y2="42.541035"/><linearGradient id="b" gradientTransform="matrix(.1347 0 0 .14642 .992628 289.18338)" gradientUnits="userSpaceOnUse" x1="9.329084" x2="9.329084" xlink:href="#q" y1="38.475292" y2="42.541035"/><linearGradient id="c" gradientTransform="matrix(.1347 0 0 .14642 2.381694 289.18338)" gradientUnits="userSpaceOnUse" x1="9.329084" x2="9.329084" xlink:href="#q" y1="38.475292" y2="42.541035"/><linearGradient id="d" gradientTransform="matrix(.1347 0 0 .14642 3.77076 289.18338)" gradientUnits="userSpaceOnUse" x1="9.329084" x2="9.329084" xlink:href="#q" y1="38.475292" y2="42.541035"/><linearGradient id="e" gradientTransform="matrix(.1347 0 0 .14642 -.198 287.99275)" gradientUnits="userSpaceOnUse" x1="9.329084" x2="9.329084" xlink:href="#q" y1="38.475292" y2="42.541035"/><linearGradient id="f" gradientTransform="matrix(.1347 0 0 .14642 .992628 287.99275)" gradientUnits="userSpaceOnUse" x1="9.329084" x2="9.329084" xlink:href="#q" y1="38.475292" y2="42.541035"/><linearGradient id="g" gradientTransform="matrix(.1347 0 0 .14642 2.381694 287.99275)" gradientUnits="userSpaceOnUse" x1="9.329084" x2="9.329084" xlink:href="#q" y1="38.475292" y2="42.541035"/><linearGradient id="h" gradientTransform="matrix(.1347 0 0 .14642 3.77076 287.99275)" gradientUnits="userSpaceOnUse" x1="9.329084" x2="9.329084" xlink:href="#q" y1="38.475292" y2="42.541035"/><linearGradient id="i" gradientTransform="matrix(.1347 0 0 .14642 -.198 286.80212)" gradientUnits="userSpaceOnUse" x1="9.329084" x2="9.329084" xlink:href="#q" y1="38.475292" y2="42.541035"/><linearGradient id="j" gradientTransform="matrix(.1347 0 0 .14642 .992628 286.80212)" gradientUnits="userSpaceOnUse" x1="9.329084" x2="9.329084" xlink:href="#q" y1="38.475292" y2="42.541035"/><linearGradient id="k" gradientTransform="matrix(.1347 0 0 .14642 2.381694 286.80212)" gradientUnits="userSpaceOnUse" x1="9.329084" x2="9.329084" xlink:href="#q" y1="38.475292" y2="42.541035"/><linearGradient id="l" gradientTransform="matrix(.1347 0 0 .14642 3.77076 286.80212)" gradientUnits="userSpaceOnUse" x1="9.329084" x2="9.329084" xlink:href="#q" y1="38.475292" y2="42.541035"/><linearGradient id="m" gradientTransform="matrix(.1347 0 0 .14642 -.198 285.61149)" gradientUnits="userSpaceOnUse" x1="9.329084" x2="9.329084" xlink:href="#q" y1="38.475292" y2="42.541035"/><linearGradient id="n" gradientTransform="matrix(.1347 0 0 .14642 .992628 285.61149)" gradientUnits="userSpaceOnUse" x1="9.329084" x2="9.329084" xlink:href="#q" y1="38.475292" y2="42.541035"/><linearGradient id="o" gradientTransform="matrix(.1347 0 0 .14642 2.381694 285.61149)" gradientUnits="userSpaceOnUse" x1="9.329084" x2="9.329084" xlink:href="#q" y1="38.475292" y2="42.541035"/><linearGradient id="p" gradientTransform="matrix(.1347 0 0 .14642 3.77076 285.61149)" gradientUnits="userSpaceOnUse" x1="9.329084" x2="9.329084" xlink:href="#q" y1="38.475292" y2="42.541035"/><linearGradient id="q" gradientTransform="matrix(.1347 0 0 .14642 -.198 290.374)" gradientUnits="userSpaceOnUse" x1="9.329084" x2="9.329084" y1="38.475292" y2="41.185825"><stop offset="0" stop-color="#fff"/><stop offset=".00000056" stop-color="#fff" stop-opacity=".235"/><stop offset="1" stop-color="#fff" stop-opacity=".157"/><stop offset="1" stop-color="#fff" stop-opacity=".392"/></linearGradient><linearGradient id="r" gradientTransform="matrix(.59434182 0 0 .59993551 1.733541 -.028859)" gradientUnits="userSpaceOnUse" x1="25.686329" x2="25.686329" y1="3.381795" y2="50.053478"><stop offset="0" stop-color="#fafafa"/><stop offset="1" stop-color="#e2e1de"/></linearGradient><g transform="matrix(1.33333 0 0 1.33333 .176 -387.532)"><path d="m3.9999983 1.499983c-.7116666 0-1.5.778126-1.5 1.4999999v25.9999991c0 .721874.7883334 1.5 1.5 1.5h3.5000015l2-5 18.4999992-.000017h.214844c.711666 0 1.285156-.58086 1.285156-1.302734l-.000001-21.1972481c0-.7218739-.788334-1.4999999-1.5-1.4999999z" fill="url(#r)" stroke-width="5.039358" transform="matrix(.198438 0 0 .198438 -.132 290.64973)"/><path d="m4 1c-1.1079995 0-2 .8920291-2 2v26c0 1.107971.8920005 2 2 2l3.9999998-.000018 2.0058592-5c6.675855.003067 12.327748.000018 18.994141.000018.595799-.345567 1-.983558 1-1.724609v-16.2773441-.9980469-4c0-1.1079709-.892001-2-2-2zm.5 1h23c.831 0 1.5.6689936 1.5 1.5v3.5h-6v-.00195l.0039-4.9960938h-1.007812l-.0039 4.9960938h.007812v.00195h-6v-.00195l.0059-4.9960938h-1.007812l-.0059 4.9960938h.007812v.00195h-6v-.00195l.00586-4.9960938h-1.0078131l-.00586 4.9960938h.0078131v.00195h-5v-3.5c0-.8310064.6689997-1.5 1.5-1.5zm-1.5 6h4.9921875l.00195 5h-4.9941375zm6 0h5.992188l.002 5h-5.9922349zm7 0h5.992188l.002 5h-5.992188zm7 0h6v5h-6zm-20 6h4.9941406l.00195 5h-4.9960906zm6.0019531 0h5.9921879l.002 5h-5.9922348zm6.9999999 0h5.992188l.002 5h-5.992235zm6.998047 0h6v5h-6zm5.996094 6h.003906v5h-6v-.0039-4.988282h5.996094zm-25.996094.007812h4.9960938v4.988282h-4.9960938zm6.0039062 0h5.9921878v4.988282h-5.9921878zm6.9999998 0h5.992188l.001953 4.992188h-.002v-.0039h-5.992141zm-13.003906 5.996094 5.808242-.0039-1.5719091 4-2.7363329-.000006c-.8310003.000005-1.5-.668994-1.5-1.5z" opacity=".286" stroke-width="5.039358" transform="matrix(.198438 0 0 .198438 -.132 290.64973)"/><g fill="none" stroke-linecap="square" stroke-width=".198438"><path d="m.56253265 295.90833h.90978775l-.2396391.59532h-.47171065c-.12025587-.00001-.198438-.0992-.198438-.19844z" opacity=".8" stroke="url(#q)"/><path d="m.56253265 294.71771h.79375195v.79375h-.79375195z" opacity=".8" stroke="url(#a)"/><path d="m1.7531606 294.71771h.99219v.79375h-.99219z" opacity=".8" stroke="url(#b)"/><path d="m3.1422266 294.71771h.99219v.79375h-.99219z" opacity=".8" stroke="url(#c)"/><path d="m4.5312925 294.71771h.99219v.79375h-.99219z" opacity=".8" stroke="url(#d)"/><path d="m.56253269 293.52708h.79375191v.79375h-.79375191z" opacity=".8" stroke="url(#e)"/><path d="m1.7531606 293.52708h.99219v.79375h-.99219z" opacity=".8" stroke="url(#f)"/><path d="m3.1422266 293.52708h.99219v.79375h-.99219z" opacity=".8" stroke="url(#g)"/><path d="m4.5312925 293.52708h.99219v.79375h-.99219z" opacity=".8" stroke="url(#h)"/><path d="m.56253265 292.33645h.79375195v.79375h-.79375195z" opacity=".8" stroke="url(#i)"/><path d="m1.7531606 292.33645h.99219v.79375h-.99219z" opacity=".8" stroke="url(#j)"/><path d="m3.1422266 292.33645h.99219v.79375h-.99219z" opacity=".8" stroke="url(#k)"/><path d="m4.5312925 292.33645h.99219v.79375h-.99219z" opacity=".8" stroke="url(#l)"/><path d="m.56253265 291.34426c0-.0992.0510949-.19411.198438-.19844h.59531395v.79375h-.79375191z" opacity=".8" stroke="url(#m)"/><path d="m1.7531606 291.14582h.99219v.79375h-.99219z" opacity=".8" stroke="url(#n)"/><path d="m3.1422266 291.14582h.99219v.79375h-.99219z" opacity=".8" stroke="url(#o)"/><path d="m4.5312925 291.14582h.7937521c.099219 0 .1984379.0793.1984379.2032v.59055h-.99219z" opacity=".8" stroke="url(#p)"/></g></g></svg>