<svg height="32" width="32" xmlns="http://www.w3.org/2000/svg" xmlns:xlink="http://www.w3.org/1999/xlink"><linearGradient id="a" gradientTransform="matrix(.62857 0 0 .6084 .914 -.535)" gradientUnits="userSpaceOnUse" x1="25.132" x2="25.132" xlink:href="#g" y1=".985" y2="47.013"/><linearGradient id="b" gradientTransform="matrix(.56757 0 0 .72973 2.378 -2.514)" gradientUnits="userSpaceOnUse" x1="24" x2="24" y1="5.564" y2="43"><stop offset="0" stop-color="#fff"/><stop offset=".036" stop-color="#fff" stop-opacity=".235"/><stop offset=".951" stop-color="#fff" stop-opacity=".157"/><stop offset="1" stop-color="#fff" stop-opacity=".392"/></linearGradient><linearGradient id="c" gradientTransform="matrix(.53064 0 0 .5897 39.27 -1.792)" gradientUnits="userSpaceOnUse" x1="-51.786" x2="-51.786" y1="50.786" y2="2.906"><stop offset="0" stop-opacity=".318"/><stop offset="1" stop-opacity=".24"/></linearGradient><linearGradient id="d" gradientTransform="matrix(.62857 0 0 .6084 .914 16.465)" gradientUnits="userSpaceOnUse" x1="25.132" x2="25.132" xlink:href="#g" y1=".985" y2="47.013"/><linearGradient id="e" gradientTransform="matrix(.62857 0 0 .6084 -18.086 -.535)" gradientUnits="userSpaceOnUse" x1="25.132" x2="25.132" xlink:href="#g" y1=".985" y2="47.013"/><linearGradient id="f" gradientTransform="matrix(.62857 0 0 .6084 -18.086 16.465)" gradientUnits="userSpaceOnUse" x1="25.132" x2="25.132" xlink:href="#g" y1=".985" y2="47.013"/><linearGradient id="g" gradientTransform="matrix(.62857 0 0 .6084 .914 -.535)" gradientUnits="userSpaceOnUse" x1="25.132" x2="25.132" y1=".985" y2="47.013"><stop offset="0" stop-color="#f4f4f4"/><stop offset="1" stop-color="#dbdbdb"/></linearGradient><path d="m8 1h11v12.998l-11 .002z" fill="url(#a)" transform="translate(10)"/><g fill="none" stroke-linejoin="round"><path d="m18.5 13.498-10 .002v-12l10-.002z" stroke="url(#b)" stroke-linecap="round" transform="translate(10)"/><path d="m7.5.5h12v13.998l-12 .002z" stroke="url(#c)" transform="translate(10)"/></g><path d="m8 18h11v12.998l-11 .002z" fill="url(#d)" transform="translate(10)"/><g fill="none" stroke-linejoin="round"><path d="m18.5 13.498-10 .002v-12l10-.002z" stroke="url(#b)" stroke-linecap="round" transform="translate(10 17)"/><path d="m7.5.5h12v13.998l-12 .002z" stroke="url(#c)" transform="translate(10 17)"/></g><path d="m-11 1h11v12.998l-11 .002z" fill="url(#e)" transform="translate(14)"/><g fill="none" stroke-linejoin="round"><path d="m18.5 13.498-10 .002v-12l10-.002z" stroke="url(#b)" stroke-linecap="round" transform="translate(-5)"/><path d="m7.5.5h12v13.998l-12 .002z" stroke="url(#c)" transform="translate(-5)"/></g><path d="m-11 18h11v12.998l-11 .002z" fill="url(#f)" transform="translate(14)"/><g fill="none" stroke-linejoin="round"><path d="m18.5 13.498-10 .002v-12l10-.002z" stroke="url(#b)" stroke-linecap="round" transform="translate(-5 17)"/><path d="m7.5.5h12v13.998l-12 .002z" stroke="url(#c)" transform="translate(-5 17)"/></g></svg>