<svg height="32" width="32" xmlns="http://www.w3.org/2000/svg" xmlns:xlink="http://www.w3.org/1999/xlink"><linearGradient id="a" gradientTransform="matrix(.82398 -.85484 .74718 .73096 -102.22 22.54)" gradientUnits="userSpaceOnUse" x1="23.576" x2="23.576" y1="25.357" y2="31.211"><stop offset="0" stop-color="#181818"/><stop offset=".135" stop-color="#dbdbdb"/><stop offset=".202" stop-color="#a4a4a4"/><stop offset=".27" stop-color="#fff"/><stop offset=".447" stop-color="#8d8d8d"/><stop offset=".571" stop-color="#959595"/><stop offset=".72" stop-color="#cecece"/><stop offset="1" stop-color="#181818"/></linearGradient><linearGradient id="b" gradientTransform="matrix(.80068 -.83068 .87443 .85546 -104.856 19.332)" gradientUnits="userSpaceOnUse" x1="10.869" x2="11.083" y1="25.077" y2="30.466999"><stop offset="0" stop-color="#1b1b1b"/><stop offset=".135" stop-color="#f3f3f3"/><stop offset=".202" stop-color="#b6b6b6"/><stop offset=".27" stop-color="#fff"/><stop offset=".447" stop-color="#9d9d9d"/><stop offset=".571" stop-color="#a6a6a6"/><stop offset=".72" stop-color="#e5e5e5"/><stop offset="1" stop-color="#1b1b1b"/></linearGradient><linearGradient id="c" gradientTransform="matrix(.63343 -.055 -.0391 .63928 -78.072 11.738)" gradientUnits="userSpaceOnUse" x1="5.712" x2="9.522" y1="37.817001" y2="41.391998"><stop offset="0" stop-color="#a1a1a1"/><stop offset="1" stop-color="#828282"/></linearGradient><linearGradient id="d" gradientUnits="userSpaceOnUse" x1="15" x2="16" y1="1" y2="29"><stop offset="0" stop-color="#ed5353"/><stop offset="1" stop-color="#c6262e"/></linearGradient><linearGradient id="e" gradientTransform="matrix(.56756757 0 0 .72972971 2.378382 -2.513506)" gradientUnits="userSpaceOnUse" x1="23.999994" x2="23.99999" y1="6.185175" y2="43"><stop offset="0" stop-color="#fff"/><stop offset="0" stop-color="#fff" stop-opacity=".235294"/><stop offset=".95056331" stop-color="#fff" stop-opacity=".156863"/><stop offset="1" stop-color="#fff" stop-opacity=".392157"/></linearGradient><linearGradient id="f" gradientTransform="matrix(.65714134 0 0 .65900698 .228601 .172037)" gradientUnits="userSpaceOnUse" x1="25" x2="25" y1="47.935162" y2=".91791"><stop offset="0" stop-color="#791235"/><stop offset="1" stop-color="#dd3b27"/></linearGradient><radialGradient id="g" cx="605.71429" cy="486.64789" gradientTransform="matrix(.01566318 0 0 .00823529 17.610433 25.980565)" gradientUnits="userSpaceOnUse" r="117.14286" xlink:href="#h"/><linearGradient id="h"><stop offset="0"/><stop offset="1" stop-opacity="0"/></linearGradient><radialGradient id="i" cx="605.71429" cy="486.64789" gradientTransform="matrix(-.01566318 0 0 .00823529 14.389566 25.980565)" gradientUnits="userSpaceOnUse" r="117.14286" xlink:href="#h"/><linearGradient id="j" gradientTransform="matrix(.04576928 0 0 .00823529 -.542324 25.980548)" gradientUnits="userSpaceOnUse" x1="302.85715" x2="302.85715" y1="366.64789" y2="609.50507"><stop offset="0" stop-opacity="0"/><stop offset=".5"/><stop offset="1" stop-opacity="0"/></linearGradient><linearGradient id="k" gradientTransform="matrix(.92105264 0 0 1.1298612 39.5778 -14.15036)" gradientUnits="userSpaceOnUse" x1="23.969797" x2="23.969797" y1="3.981044" y2="44.024017"><stop offset="0" stop-color="#fafafa"/><stop offset="1" stop-color="#d4d4d4"/></linearGradient><path d="m4.949989 29h22.100021v2h-22.100021z" fill="url(#j)" opacity=".15"/><path d="m4.9499887 29.000086v1.99989c-.806615.0038-1.950002-.448074-1.950002-1.000074s.900121-.999816 1.950002-.999816z" fill="url(#i)" opacity=".15"/><path d="m27.050011 29.000086v1.99989c.806614.0038 1.950002-.448074 1.950002-1.000074s-.900122-.999816-1.950002-.999816z" fill="url(#g)" opacity=".15"/><path d="m4.4999935.499998c5.270467 0 22.9999725.00185 22.9999725.00185l.000028 28.998154s-15.333333 0-23.0000005 0c0-9.666667 0-19.333334 0-29z" fill="url(#d)" stroke="url(#f)" stroke-linejoin="round" stroke-opacity=".501961"/><path d="m26.5 28.5h-21v-26.9999998h21z" fill="none" opacity=".5" stroke="url(#e)" stroke-linecap="round" stroke-linejoin="round"/><g fill-rule="evenodd" transform="matrix(.65116278 0 0 .65116278 -23.768842 6.535569)"><g fill="#7a0000"><path d="m65.194576-5.046198c-11.929691 12.576057-18.744693 14.351221-21.011513 14.546966v4.519444c1.710995-.293505 6.011783-1.312664 10.592105-4.837219 5.873233-4.519444 12.894737-13.09933 12.894737-13.09933-1.819698 4.385318-2.412075 18.973218-2.504112 38.415285h12.175165c.465395 0 .885286-.218174 1.208882-.564931-1.916296-5.637596-3.251885-13.050945-4.259869-19.772572-.955597-8.909001.455462-16.698066.978619-19.207643zm-21.011513 21.926372v4.978451c4.292119 0 10.593867 5.504798 14.592928 12.640323h3.453947c-3.949938-7.783719-14.770224-17.618774-18.046875-17.618774z" opacity=".1"/><path d="m65.194576-6.176059c-11.929691 12.576057-18.744693 14.351221-21.011513 14.546965v4.519446c1.710995-.293507 6.011783-1.312666 10.592105-4.83722 5.873233-4.519444 12.894737-13.09933 12.894737-13.09933-1.855028 4.470462-2.430159 19.533192-2.504112 39.545146h12.175165c.607917 0 1.132813-.364206 1.467928-.918012-2.065578-5.718188-3.463936-13.514339-4.518915-20.549352-.955597-8.909002.455462-16.698067.978619-19.207643zm-21.011513 21.926372v4.978451c4.517936 0 11.25425 6.087461 15.197369 13.770184h3.367598c-3.390495-7.923902-15.1256-18.748635-18.564967-18.748635z" opacity=".3"/><path d="m65.180722-7.3135532c-11.929691 12.5760572-18.73318 14.3667562-21 14.5625002v4.500001c1.710995-.293507 6.013428-1.287946 10.59375-4.812501 5.873233-4.519445 12.90625-13.125 12.90625-13.125-1.89037 4.55563-2.475588 20.102267-2.53125 40.687501h12.1875c.303907 0 .591496-.0917.84375-.25v-3.625c-1.731206-5.489072-2.959735-12.407019-3.90625-18.71875-.955597-8.909002.476843-16.709176 1-19.2187512zm-21 21.9375012v4.96875c4.737576 0 11.911988 6.697282 15.75 14.90625h3.28125c-2.669685-7.976224-15.426789-19.875-19.03125-19.875z" opacity=".5"/></g><path d="m65.180722-8.501053c-11.929691 12.576056-18.73318 14.366756-21 14.5625v4.500001c1.710995-.293506 6.013428-1.319197 10.59375-4.843751 5.873233-4.519445 12.90625-13.0937502 12.90625-13.0937502-1.925701 4.6407752-2.494043 20.6511492-2.53125 41.8125012h12.3125c.262781 0 .4972-.0623.71875-.1875v-4.84375c-1.72447-5.485979-2.961964-12.390636-3.90625-18.6875-.955597-8.909002.476843-16.709176 1-19.218751zm-21 21.906251v5c4.952659 0 12.566711 7.315678 16.25 16.03125h3.09375c-1.730686-7.923306-15.56527-21.03125-19.34375-21.03125z" fill="url(#k)"/><path d="m25.455078 1.0000001c-3.053299 2.2852818-12.907459 9.2860789-20.455078 8.4042968v6.3085941s15.518746 2.830017 22-2.46289v-12.0878915c-.164209-.1032627-.350935-.1621094-.548828-.1621094zm1.544922 15.1386729c-2.809051 3.586493-5.610085 8.128203-7.527344 12.820312h2.400391c1.486043-3.084251 3.377295-6.432525 5.126953-8.791016z" fill="#7a0000" opacity=".05" transform="matrix(1.5357143 0 0 1.5357143 36.502151 -10.036767)"/></g><path d="m26.562 22.448c-.107-.05-.216-.027-.298.01l-10.847 4.877-1.998.9-.058.02-3.382 3.42 4.818-.223.05-.023 2.005-.897 10.86-4.914c.327-.148.268-.973-.13-1.854-.3-.66-.7-1.172-1.02-1.318z" fill="#0c0c0c" fill-rule="evenodd" opacity=".15"/><path d="m-73.34 31.365c.545-.45 1.147.25 2.317 1.395.54.775 1.127 1.562 1.393 2.47l13.922-13.952 7.252-8.75c.51-.528 3.79-4.808 2.584-5.99-1.207-1.18-5.8 2.73-6.31 3.26l-7.764 7.064z" fill="url(#a)" stroke="#0c0c0c" stroke-linejoin="round" stroke-width=".5" transform="matrix(.66667 0 0 .66667 62.238 5.33)"/><path d="m13.4 26.185c.363-.3.71.222 1.49.985.777.76 1.193 1.086.91 1.463l9.187-9.002.033-.033c.002-.002-.02-.017-.018-.018.284-.378-.077-1.254-.855-2.015-.78-.762-1.677-1.12-2.04-.82l-.035.035z" fill="#0c0c0c" opacity=".6"/><path d="m-69.876 35.508c.425-.566.193-1.878-.974-3.02-1.17-1.144-2.068-1.326-2.614-.876-1.45 2.87-2.095 2.633-4.34 7.56.083.172.244.338.487.58z" style="fill-rule:evenodd;stroke-width:.5;stroke-linecap:round;stroke-linejoin:round;fill:url(#b);stroke:url(#c)" transform="matrix(.66667 0 0 .66667 62.238 5.33)"/><path d="m22.726 15.97c.365-.3 1.262.058 2.042.82.778.762 1.138 1.638.855 2.015 0 0 .02.016.018.018 1-1.507 3.643-3.755 4.418-5.228.283-.377 2.248-2.968 1.47-3.73-.78-.762-3.47 1.323-3.833 1.623z" fill="#0c0c0c" opacity=".6"/></svg>