<svg xmlns="http://www.w3.org/2000/svg" xmlns:xlink="http://www.w3.org/1999/xlink" width="32" height="32" viewBox="0 0 8.4666665 8.4666669"><defs><linearGradient id="a"><stop offset="0" stop-color="#737373"/><stop offset=".262" stop-color="#636363"/><stop offset=".705" stop-color="#4b4b4b"/><stop offset="1" stop-color="#3f3f3f"/></linearGradient><linearGradient xlink:href="#a" id="d" x1="3.969" y1="290.121" x2="7.938" y2="290.121" gradientUnits="userSpaceOnUse" gradientTransform="matrix(1.8667 0 0 1 -6.88 -288.27)"/><linearGradient id="b"><stop offset="0" stop-color="#90dbec"/><stop offset=".262" stop-color="#55c1ec"/><stop offset=".705" stop-color="#3689e6"/><stop offset="1" stop-color="#2b63a0"/></linearGradient><linearGradient id="c"><stop offset="0" stop-color="#fff"/><stop offset=".333" stop-color="#fff" stop-opacity=".235"/><stop offset=".857" stop-color="#fff" stop-opacity=".157"/><stop offset="1" stop-color="#fff" stop-opacity=".392"/></linearGradient><linearGradient xlink:href="#a" id="e" gradientUnits="userSpaceOnUse" gradientTransform="matrix(1.8667 0 0 1 -6.88 -286.682)" x1="3.969" y1="290.121" x2="7.938" y2="290.121"/><linearGradient xlink:href="#a" id="f" gradientUnits="userSpaceOnUse" gradientTransform="matrix(1.8667 0 0 1 -6.88 -285.094)" x1="3.969" y1="290.121" x2="7.938" y2="290.121"/><linearGradient xlink:href="#a" id="g" gradientUnits="userSpaceOnUse" gradientTransform="matrix(1.8667 0 0 1 -6.88 -283.507)" x1="3.969" y1="290.121" x2="7.938" y2="290.121"/></defs><path d="M7.94 1.984c0-.07-.39-.132-.84-.132H1.52c-.452 0-.99.06-.99.132v.265c0 .07.538.13.99.13h5.58c.453 0 .84-.06.84-.13z" opacity=".35" fill="#fff"/><path d="M.532 1.587h7.405v.53H.532z" fill="url(#d)"/><path d="M7.94 3.57c0-.07-.39-.13-.84-.13H1.52c-.452 0-.99.06-.99.13v.265c0 .072.538.132.99.132h5.58c.453 0 .84-.06.84-.132z" opacity=".35" fill="#fff"/><path d="M.532 3.174h7.405v.53H.532z" fill="url(#e)"/><path d="M7.94 5.16c0-.07-.39-.133-.84-.133H1.52c-.452 0-.99.06-.99.132v.263c0 .072.538.132.99.132h5.58c.453 0 .84-.06.84-.132z" opacity=".35" fill="#fff"/><path d="M.532 4.762h7.405v.53H.532z" fill="url(#f)"/><path d="M7.94 6.746c0-.07-.39-.132-.84-.132H1.52c-.452 0-.99.06-.99.132v.264c0 .072.538.132.99.132h5.58c.453 0 .84-.06.84-.132z" opacity=".35" fill="#fff"/><path d="M.532 6.35h7.405v.53H.532z" fill="url(#g)"/></svg>