<svg height="32" viewBox="0 0 32 32" width="32" xmlns="http://www.w3.org/2000/svg" xmlns:xlink="http://www.w3.org/1999/xlink"><radialGradient id="a" cx="9.686441" cy="16.593214" gradientUnits="userSpaceOnUse" r="9.5"><stop offset="0" stop-color="#e4c6fa"/><stop offset="1" stop-color="#a56de2"/></radialGradient><linearGradient id="b" gradientUnits="userSpaceOnUse" x1="12.957627" x2="12.364393" y1="12.576263" y2="26.610161"><stop offset="0" stop-color="#fff"/><stop offset=".28888068" stop-color="#fff" stop-opacity=".235294"/><stop offset="1" stop-color="#fff" stop-opacity=".156863"/><stop offset="1" stop-color="#fff" stop-opacity=".392157"/></linearGradient><radialGradient id="c" cx="2.25" cy="16" gradientTransform="matrix(.42236667 0 0 .11633788 10.902411 27.175389)" gradientUnits="userSpaceOnUse" r="16.875"><stop offset="0"/><stop offset="1" stop-opacity="0"/></radialGradient><g transform="matrix(1.33333 0 0 1.33333 .466631 -12.124215)"><ellipse cx="11.852736" cy="29.036797" display="block" fill="url(#c)" fill-rule="evenodd" opacity=".245" rx="7.127438" ry="1.963204"/><g stroke-width=".750002"><path d="m21 20a9 9.0000113 0 0 1 -18 0 9 9.0000113 0 1 1 18 0" fill="url(#a)" fill-rule="evenodd" stroke="#7239b3" stroke-opacity=".560784"/><path d="m12.240234 11.728516c-2.205651-.064254-4.4229752.798566-6.005859 2.335937s-2.509658 3.728958-2.5097656 5.935547c0 2.166518.8918707 4.319603 2.4238281 5.851562 1.5319574 1.53196 3.6850475 2.423829 5.8515625 2.423829s4.319605-.891869 5.851562-2.423829c1.531958-1.531959 2.423829-3.685044 2.423829-5.851562-.000106-2.126291-.858325-4.240434-2.339844-5.765625s-3.569924-2.444001-5.695313-2.505859z" fill="none" opacity=".6" stroke="url(#b)"/></g></g></svg>