<svg height="32" width="32" xmlns="http://www.w3.org/2000/svg" xmlns:xlink="http://www.w3.org/1999/xlink"><radialGradient id="a" cx="4.992979" cy="43.5" gradientTransform="matrix(2.003784 0 0 1.4 25.454798 -17.400001)" gradientUnits="userSpaceOnUse" r="2.5" xlink:href="#b"/><linearGradient id="b"><stop offset="0" stop-color="#181818"/><stop offset="1" stop-color="#181818" stop-opacity="0"/></linearGradient><radialGradient id="c" cx="4.992979" cy="43.5" gradientTransform="matrix(-2.003784 0 0 -1.4 22.611871 104.4)" gradientUnits="userSpaceOnUse" r="2.5" xlink:href="#b"/><linearGradient id="d" gradientUnits="userSpaceOnUse" x1="25.058096" x2="25.058096" y1="47.027729" y2="39.999443"><stop offset="0" stop-color="#181818" stop-opacity="0"/><stop offset=".5" stop-color="#181818"/><stop offset="1" stop-color="#181818" stop-opacity="0"/></linearGradient><g opacity=".4" transform="matrix(.78947368 0 0 .42857136 -3.447369 8.857146)"><path d="m35.400001 39.999999h5v7h-5z" fill="url(#a)"/><path d="m12.600001 46.999999h-5.0000002v-7h5.0000002z" fill="url(#c)"/><path d="m12.600001 39.999998h22.8v7.000001h-22.8z" fill="url(#d)"/></g><g fill="none" stroke="#7239b3" stroke-linecap="round"><path d="m6.000001 1.529856h12.296624c1.36846 0 2.470145 1.1016846 2.470145 2.470145v12.315691c0 1.368461-1.101685 2.470145-2.470145 2.470145h-12.296624c-1.3684604 0-2.470145-1.101684-2.470145-2.470145v-12.315691c0-1.3684604 1.1016846-2.470145 2.470145-2.470145z" stroke-linejoin="round" stroke-width=".750002" transform="matrix(1.33333 0 0 1.33333 -.192819 2.463739)"/><path d="m8.00002 23.99998 15.99996-15.9999599" stroke-linejoin="bevel"/></g></svg>