<svg height="32" viewBox="0 0 32 32" width="32" xmlns="http://www.w3.org/2000/svg" xmlns:xlink="http://www.w3.org/1999/xlink"><linearGradient id="a" gradientUnits="userSpaceOnUse" x1="11.842911" x2="11.801158" y1="15.575222" y2="23.304036"><stop offset="0" stop-color="#fff"/><stop offset=".43189588" stop-color="#fff" stop-opacity=".235294"/><stop offset="1" stop-color="#fff" stop-opacity=".156863"/><stop offset="1" stop-color="#fff" stop-opacity=".392157"/></linearGradient><linearGradient id="b" gradientUnits="userSpaceOnUse" x1="5.178037" x2="3.771116" y1="27.830509" y2="10.237288"><stop offset="0" stop-opacity=".339506"/><stop offset="1" stop-opacity=".246914"/></linearGradient><radialGradient id="c" cx="2.25" cy="16" gradientTransform="matrix(.4338983 0 0 .11633788 11.023729 27.175389)" gradientUnits="userSpaceOnUse" r="16.875"><stop offset="0"/><stop offset="1" stop-opacity="0"/></radialGradient><linearGradient id="d" gradientUnits="userSpaceOnUse" x1="11.881355" x2="13.338984" y1="12.932197" y2="24.983043"><stop offset="0" stop-color="#eeeeec"/><stop offset="1" stop-color="#e0e0de"/></linearGradient><g transform="matrix(1.33333 0 0 1.33333 .00004 -11.86642)"><path d="m12 11.542366-3.0000001 6h-5l4 4-1 6 5.0000001-3 5 3-1-6 4-4h-5z" fill="url(#d)" stroke="url(#b)" stroke-linejoin="round" stroke-width=".750002"/><ellipse cx="12" cy="29.036797" display="block" fill="url(#c)" fill-rule="evenodd" opacity=".166" rx="7.322034" ry="1.963204"/><path d="m11.970703 13.611328a.04823869.04823869 0 0 0 -.03906.02734l-2.2500024 4.498051h-3.7421875a.04823869.04823869 0 0 0 -.0332031.082031l3 2.998047-.75 4.5a.04823869.04823869 0 0 0 .013672.04297.04823869.04823869 0 0 0 .058594.0059l3.746093-2.246094 3.746094 2.246094a.04823869.04823869 0 0 0 .07227-.04883l-.75-4.5 3-2.998047a.04823869.04823869 0 0 0 -.0332-.08203h-3.742188l-2.25-4.498047a.04823869.04823869 0 0 0 -.04687-.02734z" fill="none" stroke="url(#a)" stroke-width=".750002"/></g></svg>