<svg height="32" viewBox="0 0 32 32" width="32" xmlns="http://www.w3.org/2000/svg" xmlns:xlink="http://www.w3.org/1999/xlink"><linearGradient id="a" gradientTransform="matrix(.25378586 0 0 .30501865 19.128979 -.685477)" gradientUnits="userSpaceOnUse" x1="4.442305" x2="7.191368" y1="82.845085" y2="4.258176"><stop offset="0" stop-opacity=".339506"/><stop offset="1" stop-opacity=".246914"/></linearGradient><linearGradient id="b" gradientTransform="matrix(.28571361 0 0 .30419701 -18.094415 5.097012)" gradientUnits="userSpaceOnUse" x1="86.029114" x2="83.411842" y1="-8.019195" y2="67.579842"><stop offset="0" stop-color="#f4f4f4"/><stop offset="1" stop-color="#dbdbdb"/></linearGradient><linearGradient id="c" gradientTransform="matrix(.24324324 0 0 .35135133 2.162164 -.432428)" gradientUnits="userSpaceOnUse" x1="56.161396" x2="55.961395" y1="26.844128" y2="61.458252"><stop offset="0" stop-color="#fff"/><stop offset=".10838047" stop-color="#fff" stop-opacity=".235294"/><stop offset="1" stop-color="#fff" stop-opacity=".156863"/><stop offset="1" stop-color="#fff" stop-opacity=".392157"/></linearGradient><radialGradient id="d" cx="2.25" cy="16" gradientTransform="matrix(.36158102 0 0 .15511679 15.186443 23.534741)" gradientUnits="userSpaceOnUse" r="16.875"><stop offset="0"/><stop offset="1" stop-opacity="0"/></radialGradient><path d="m16 4.4511719-2.886719 5h-5.8046872l2.9023442 5.0273441-2.9023442 5.027343h5.8046872l2.886719 5 2.886719-5h5.804687l-2.902344-5.027343 2.902344-5.0273441h-5.804687z" fill="url(#b)" stroke="url(#a)" stroke-linecap="round" stroke-linejoin="round"/><path d="m16 6.5097656-1.996094 3.4570313a1.029559 1.029559 0 0 1 -.890625.5136721h-4.0214841l2.0097651 3.482422a1.029559 1.029559 0 0 1 0 1.03125l-2.0097651 3.482421h4.0214841a1.029559 1.029559 0 0 1 .890625.513672l1.996094 3.457032 1.996094-3.457032a1.029559 1.029559 0 0 1 .890625-.513672h4.021484l-2.009765-3.482421a1.029559 1.029559 0 0 1 0-1.03125l2.009765-3.482422h-4.021484a1.029559 1.029559 0 0 1 -.890625-.5136721z" fill="none" stroke="url(#c)" stroke-linecap="square"/><ellipse cx="16" cy="26.016611" display="block" fill="url(#d)" fill-rule="evenodd" opacity=".336" rx="6.101679" ry="2.617599" stroke-width="1.33333"/></svg>