<svg height="32" viewBox="0 0 32 32" width="32" xmlns="http://www.w3.org/2000/svg" xmlns:xlink="http://www.w3.org/1999/xlink"><linearGradient id="a" gradientTransform="matrix(.26069254 0 0 .3133196 19.247816 -1.10935)" gradientUnits="userSpaceOnUse" x1="-28.144695" x2="-28.32048" y1="23.070766" y2="59.737514"><stop offset="0" stop-color="#fff"/><stop offset=".20345086" stop-color="#fff" stop-opacity=".235294"/><stop offset="1" stop-color="#fff" stop-opacity=".156863"/><stop offset="1" stop-color="#fff" stop-opacity=".392157"/></linearGradient><linearGradient id="b" gradientTransform="matrix(.26069254 0 0 .3133196 19.247816 -1.10935)" gradientUnits="userSpaceOnUse" x1="9.674674" x2="9.498889" y1="68.324852" y2="14.483431"><stop offset="0" stop-opacity=".339506"/><stop offset="1" stop-opacity=".246914"/></linearGradient><linearGradient id="c" gradientTransform="matrix(.29348918 0 0 .3124756 -20.157271 -6.843177)" gradientUnits="userSpaceOnUse" x1="75.311066" x2="76.065659" y1="32.542973" y2="87.762894"><stop offset="0" stop-color="#f4f4f4"/><stop offset="1" stop-color="#dbdbdb"/></linearGradient><radialGradient id="d" cx="2.25" cy="16" gradientTransform="matrix(.28830951 0 0 .11633788 11.351304 27.175389)" gradientUnits="userSpaceOnUse" r="16.875"><stop offset="0"/><stop offset="1" stop-opacity="0"/></radialGradient><g transform="matrix(1.4149565 0 0 1.4149565 -.349545 -12.669037)"><ellipse cx="12" cy="29.036797" display="block" fill="url(#d)" fill-rule="evenodd" opacity=".196" rx="4.865223" ry="1.963204"/><g stroke-linecap="square" stroke-width=".706735" transform="translate(0 8)"><path d="m11.928837 3.9263371-2.3433336 2.3433332h-3.3123653v3.3123653l-2.3413269 2.3413264 2.3413269 2.341327v3.314371h3.3143717l2.3413272 2.341326 2.341327-2.341326h3.312364v-3.312365l2.343333-2.343333-2.343333-2.3433327v-3.310359h-3.310358z" fill="url(#c)" stroke="url(#b)"/><path d="m11.927734 4.9316406-1.839843 1.8398438a.71106344.71106344 0 0 1 -.5019535.2089844h-2.6015625v2.6015624a.71106344.71106344 0 0 1 -.2089844.5019528l-1.8398437 1.839844 1.8398437 1.839844a.71106344.71106344 0 0 1 .2089844.501953v2.601563h2.6035156a.71106344.71106344 0 0 1 .5019534.208984l1.83789 1.83789 1.837891-1.83789a.71106344.71106344 0 0 1 .503906-.208984h2.601563v-2.59961a.71106344.71106344 0 0 1 .208984-.501953l1.841797-1.841797-1.841797-1.841797a.71106344.71106344 0 0 1 -.208984-.5019529v-2.5996093h-2.59961a.71106344.71106344 0 0 1 -.503906-.2089844z" fill="none" stroke="url(#a)"/></g></g></svg>