<svg height="32" viewBox="0 0 8.4666665 8.4666669" width="32" xmlns="http://www.w3.org/2000/svg" xmlns:xlink="http://www.w3.org/1999/xlink"><radialGradient id="a" cx="23.335" cy="41.636" gradientTransform="matrix(.25725 0 0 .076 .347 291.587)" gradientUnits="userSpaceOnUse" r="22.627"><stop offset="0"/><stop offset="1" stop-opacity="0"/></radialGradient><linearGradient id="b" gradientTransform="matrix(.26458 0 0 .26474 .46 283.77)" gradientUnits="userSpaceOnUse" x1="28.059" x2="33.437" y1="18.868" y2="23.743"><stop offset="0" stop-color="#6e3d09"/><stop offset=".242" stop-color="#ea8113"/><stop offset=".621" stop-color="#5c3307"/><stop offset="1" stop-color="#e07c12"/></linearGradient><linearGradient id="c" gradientTransform="matrix(.26458 0 0 .26474 .46 283.77)" gradientUnits="userSpaceOnUse" x1="19.395" x2="23.109" y1="30.001" y2="33.439"><stop offset="0" stop-color="#bdbdbd"/><stop offset=".333" stop-color="#e2e2e2"/><stop offset=".667" stop-color="#a3a3a3"/><stop offset="1" stop-color="#ddd"/></linearGradient><filter id="d" height="1.306" width="1.198" x="-.099" y="-.153"><feGaussianBlur stdDeviation=".52"/></filter><radialGradient id="e" cx="15.415" cy="35.357" gradientTransform="matrix(.26317 0 0 .2566 .28 284.292)" gradientUnits="userSpaceOnUse" r="7.579"><stop offset="0" stop-color="#561300"/><stop offset=".5" stop-color="#922d12"/><stop offset="1" stop-color="#fd68ff"/></radialGradient><linearGradient id="f" gradientTransform="matrix(.2255 0 0 .22563 1.05 285.242)" gradientUnits="userSpaceOnUse" x1="13.236" x2="7.752" y1="37.752" y2="42.282"><stop offset="0" stop-color="#fff"/><stop offset="1" stop-color="#fff" stop-opacity="0"/></linearGradient><radialGradient id="g" cx="4.333" cy="288.644" gradientTransform="matrix(-2.36637 .0798 -.0789 -2.33915 37.355 964.564)" gradientUnits="userSpaceOnUse" r="2.799"><stop offset="0" stop-color="#737373"/><stop offset=".262" stop-color="#636363"/><stop offset=".705" stop-color="#4b4b4b"/><stop offset="1" stop-color="#3f3f3f"/></radialGradient><radialGradient id="h" cx="65.325" cy="48.709" gradientTransform="matrix(0 .68598 -.74626 0 60.288 -27.737)" gradientUnits="userSpaceOnUse" r="31"><stop offset="0" stop-color="#d1ff82"/><stop offset=".262" stop-color="#9bdb4d"/><stop offset=".661" stop-color="#68b723"/><stop offset="1" stop-color="#3a9104"/></radialGradient><linearGradient id="i"><stop offset="0" stop-color="#fff"/><stop offset="0" stop-color="#fff" stop-opacity=".235"/><stop offset="1" stop-color="#fff" stop-opacity=".157"/><stop offset="1" stop-color="#fff" stop-opacity=".392"/></linearGradient><linearGradient id="j" gradientTransform="matrix(.4227 0 0 .38513 14.545 15.083)" gradientUnits="userSpaceOnUse" x1="22.372551" x2="22.372551" xlink:href="#i" y1="4.982185" y2="41.334007"/><linearGradient id="k" gradientTransform="matrix(.38833 0 0 .41842 15.3 14.318)" gradientUnits="userSpaceOnUse" x1="24.139" x2="24.139" xlink:href="#i" y1="20.749" y2="25.528"/><path d="m5.384 294.538h-2.338l-.403 1.01h-1.077l2.206-5.292h1l2.128 5.292h-1.125zm-2.06-.8h1.756l-.784-2.395z" style="stroke:#000;stroke-width:.265;stroke-linecap:round;stroke-linejoin:round;stroke-opacity:.537;fill:url(#g)" transform="translate(-.794 -289.327)"/><path d="m2.978.93-2.206 5.29h.11l2.096-5.027h1l2.022 5.027h.106l-2.126-5.29zm-.34 3.48-.11.265h1.758l-.086-.265z" fill="#fff" opacity=".1"/><path d="m12.17 294.75c0 .95-2.605 1.72-5.82 1.72s-5.82-.77-5.82-1.72 2.605-1.72 5.82-1.72 5.82.77 5.82 1.72z" fill="url(#a)" fill-rule="evenodd" opacity=".3" transform="matrix(.72162 0 0 .72162 .97 -204.683)"/><path d="m6.692 290.228 1.076 1.006c.857-.842 1.896-2.213 2.78-3.466l.122-1.826c-1.206 1.262-2.957 3.113-3.978 4.286z" fill="url(#b)" stroke="#673907" stroke-linecap="round" stroke-width=".367" transform="matrix(.72162 0 0 .72162 .97 -204.683)"/><path d="m4.68 292.935.596.512 2.247-1.95.072-.187.29-.005c-.116-.413-.778-1.16-1.274-1.16l.023.288-.177.1-1.774 2.402z" fill="url(#c)" stroke="#787a75" stroke-linecap="round" stroke-width=".367" transform="matrix(.72162 0 0 .72162 .97 -204.683)"/><path d="m5.8 40.945c6.605 0 11.618.787 12.567-4.02.765-3.876-4.56-5.733-7.2-2.274-2.54 3.335-5.367 6.296-5.367 6.296z" filter="url(#d)" opacity=".5" transform="matrix(.19093 0 0 .19093 1.353 .512)"/><path d="m1.958 295.03c1.748 0 3.074.208 3.325-1.065.202-1.025-1.207-1.516-1.905-.6-.672.88-1.42 1.665-1.42 1.665z" fill="url(#e)" transform="matrix(.72162 0 0 .72162 .97 -204.683)"/><path d="m4.204 7.075c0 .112-.09.203-.203.203-.11 0-.202-.09-.2-.203 0-.113.09-.204.202-.204s.204.093.204.206z" fill="#fff" opacity=".528"/><path d="m6.106 5.216c0 .104-.084.188-.188.188s-.188-.084-.188-.188.084-.188.188-.188.188.084.188.188z" fill="#fff" opacity=".6"/><path d="m5.664 5.48-1.014 1.172" style="opacity:.6;fill:none;stroke:#fff;stroke-width:.191;stroke-linecap:round;stroke-linejoin:round"/><path d="m2.305 294.856s.884-.435 1.26-1.082c.134-.23.436-.033.25.195-.4.49-1.51.885-1.51.885z" fill="url(#f)" opacity=".428" transform="matrix(.72162 0 0 .72162 .97 -204.683)"/><path d="m9.788.795c0 .032-.025.057-.056.057-.032 0-.057-.025-.057-.057 0-.03.025-.057.057-.057.03 0 .056.026.056.057z" fill="#fff" opacity=".533"/><g fill="none"><path d="m21.5 21.5.0018-5.99823h5.000063l-.001863 5.99823 6.001984.0018v5.000063l-6.001984-.001863.0019 6.001984h-5.000054v-6.000075h-6.000076v-5.000063z" style="stroke:#206b00;stroke-opacity:.501961;stroke-width:1.000013;stroke-linecap:round;stroke-linejoin:round;fill:url(#h)" transform="matrix(.26458 0 0 .26458 -.265 -.265)"/><path d="m22.5 23.003.0019-6.501217h3.000038l-.0019 6.49622m0 2.002.0019 6.501969h-3.00008l-.001816-6.501972" opacity=".5" stroke="url(#j)" transform="matrix(.26458 0 0 .26458 -.265 -.265)"/><path d="m26 22.512 5.501972-.01014v3.000038l-5.501972-.001898m-4 0-5.498217.0019v-3.000042l5.498217.011142" opacity=".5" stroke="url(#k)" transform="matrix(.26458 0 0 .26458 -.265 -.265)"/></g></svg>