<svg height="32" width="32" xmlns="http://www.w3.org/2000/svg" xmlns:xlink="http://www.w3.org/1999/xlink"><linearGradient id="a" gradientTransform="matrix(.02485212 0 0 .0082353 -37.838182 20.176327)" gradientUnits="userSpaceOnUse" x1="302.85715" x2="302.85715" y1="366.64789" y2="609.50507"><stop offset="0" stop-opacity="0"/><stop offset=".5"/><stop offset="1" stop-opacity="0"/></linearGradient><linearGradient id="b"><stop offset="0"/><stop offset="1" stop-opacity="0"/></linearGradient><radialGradient id="c" cx="605.71429" cy="486.64789" gradientTransform="matrix(-.01204859 0 0 .0082353 -27.594726 20.176344)" gradientUnits="userSpaceOnUse" r="117.14286" xlink:href="#b"/><radialGradient id="d" cx="605.71429" cy="486.64789" gradientTransform="matrix(.01204859 0 0 .0082353 -22.117139 20.176454)" gradientUnits="userSpaceOnUse" r="117.14286" xlink:href="#b"/><linearGradient id="e" gradientUnits="userSpaceOnUse" x1="10" x2="10" y1="11" y2="30"><stop offset="0" stop-color="#43d6b5"/><stop offset="1" stop-color="#22cc93"/></linearGradient><linearGradient id="f" gradientUnits="userSpaceOnUse" x1="3.75" x2="3.75" y1="22.25" y2="30.75"><stop offset="0" stop-color="#fff"/><stop offset=".02631579" stop-color="#fff" stop-opacity=".235294"/><stop offset="1" stop-color="#fff" stop-opacity=".156863"/><stop offset="1" stop-color="#fff" stop-opacity=".392157"/></linearGradient><linearGradient id="g" gradientUnits="userSpaceOnUse" x1="10.75" x2="10.75" y1="17.25" y2="27.25"><stop offset="0" stop-color="#fff"/><stop offset=".04388864" stop-color="#fff" stop-opacity=".235294"/><stop offset="1" stop-color="#fff" stop-opacity=".156863"/><stop offset="1" stop-color="#fff" stop-opacity=".392157"/></linearGradient><linearGradient id="h" gradientTransform="matrix(.48571543 0 0 .45629666 -34.78968 -5.734851)" gradientUnits="userSpaceOnUse" x1="92.215706" x2="93.151207" y1="49.825703" y2="71.610825"><stop offset="0" stop-color="#fafafa"/><stop offset="1" stop-color="#d4d4d4"/></linearGradient><g stroke-linejoin="round" stroke-miterlimit="0" stroke-width=".5" transform="matrix(2 0 0 2 .5 -32.5)"><path d="m4 10.5c-1.5 0-2.5 1-2.5 2.5v15c0 2 .5 2.5 2.5 2.5h15c1.5 0 2.5-1 2.5-2.5v-15c0-2-.5-2.5-2.5-2.5z" fill="url(#e)" transform="matrix(.5 0 0 .5 -.25 16.25)"/><path d="m4 10.5c-1.5 0-2.5 1-2.5 2.5v15c0 2 .5 2.5 2.5 2.5h15c1.5 0 2.5-1 2.5-2.5v-15c0-2-.5-2.5-2.5-2.5z" fill="none" opacity=".5" stroke="#105845" stroke-miterlimit="0" stroke-width="1" transform="matrix(.5 0 0 .5 -.25 16.25)"/><g transform="matrix(.5 0 0 .5 17.927966 19.652067)"><path d="m-34.855934 23.19578h20.000002v2.000086h-20.000002z" fill="url(#a)" opacity=".15"/><path d="m-34.855932 23.195865v1.999891c-.620473.0038-1.5-.448075-1.5-1.000075 0-.551999.6924-.999816 1.5-.999816z" fill="url(#c)" opacity=".15"/><path d="m-14.855932 23.195975v1.999891c.620472.0038 1.5-.448075 1.5-1.000075 0-.551999-.692402-.999816-1.5-.999816z" fill="url(#d)" opacity=".15"/></g><rect fill="none" height="9" opacity=".5" rx=".75" ry=".5" stroke="url(#f)" stroke-miterlimit="0" stroke-width=".5" width="9" x="1" y="22"/><circle cx="10.062587" cy="22.062586" fill="url(#h)" r="5.563097"/><g fill="none" stroke-miterlimit="0"><circle cx="10.062587" cy="22.062586" opacity=".5" r="5.563097" stroke="#555761" stroke-width=".5"/><path d="m10.000915 17.000448c-2.1630117 0-3.9970195 1.378577-4.69111 3.303124l-.0071-.0035c-.026164.07369-.044923.148556-.067444.222751-.015131.049-.030717.09769-.044373.147318-.022107.08176-.040778.163683-.058572.245827-.017642.07968-.03501.159442-.04881.240501-.00969.05855-.016398.117113-.023961.175717-.0095.07087-.02278.140334-.029286.212103h.0071c-.1746537 2.038437.9151224 4.057838 2.8798051 4.962672.8231546.379103 1.6955739.510815 2.5381339.433967v.0284c1.986428-.180068 3.633604-1.520779 4.264242-3.337734.0058-.01627.01128-.03252.01686-.04881.03757-.112006.0715-.225381.10117-.340785.01597-.06033.03077-.120509.04438-.181041.01539-.07081.02937-.141981.04171-.213878.01974-.110316.03491-.220517.04703-.331022.0022-.02103.0052-.0419.0071-.06301.185133-1.912525-.750341-3.817315-2.47779-4.810967l-.01154.02574c-.733205-.422343-1.581193-.66737-2.487548-.66737z" opacity=".5" stroke="url(#g)" stroke-width=".454379"/></g></g></svg>