<svg xmlns="http://www.w3.org/2000/svg" xmlns:xlink="http://www.w3.org/1999/xlink" height="32" width="32"><defs><linearGradient x1="23.576" y1="25.357" x2="23.576" y2="31.211" id="k" xlink:href="#a" gradientUnits="userSpaceOnUse" gradientTransform="matrix(.65657 -.6598 .73452 .73087 -21.95 5.314)"/><linearGradient id="a"><stop offset="0" stop-color="#181818"/><stop offset=".135" stop-color="#dbdbdb"/><stop offset=".202" stop-color="#a4a4a4"/><stop offset=".27" stop-color="#fff"/><stop offset=".447" stop-color="#8d8d8d"/><stop offset=".571" stop-color="#959595"/><stop offset=".72" stop-color="#cecece"/><stop offset="1" stop-color="#181818"/></linearGradient><linearGradient x1="30.038" y1="24.99" x2="30.038" y2="30" id="l" xlink:href="#b" gradientUnits="userSpaceOnUse" gradientTransform="matrix(.638 -.64114 .85963 .85535 -24.357 1.938)"/><linearGradient id="b"><stop offset="0" stop-color="#565656"/><stop offset=".5" stop-color="#9a9a9a"/><stop offset="1" stop-color="#545454"/></linearGradient><linearGradient x1="30.038" y1="24.99" x2="30.038" y2="30" id="m" xlink:href="#c" gradientUnits="userSpaceOnUse" gradientTransform="matrix(.638 -.64114 .85963 .85535 -24.54 2.122)"/><linearGradient id="c"><stop offset="0" stop-color="#b1b1b1"/><stop offset=".5" stop-color="#fff"/><stop offset="1" stop-color="#8f8f8f"/></linearGradient><linearGradient x1="30.038" y1="24.99" x2="30.038" y2="30" id="n" xlink:href="#b" gradientUnits="userSpaceOnUse" gradientTransform="matrix(.638 -.64114 .85963 .85535 -23.722 1.3)"/><linearGradient x1="30.038" y1="24.99" x2="30.038" y2="30" id="o" xlink:href="#c" gradientUnits="userSpaceOnUse" gradientTransform="matrix(.638 -.64114 .85963 .85535 -23.905 1.484)"/><linearGradient x1="30.038" y1="24.99" x2="30.038" y2="30" id="p" xlink:href="#b" gradientUnits="userSpaceOnUse" gradientTransform="matrix(.638 -.64114 .85963 .85535 -23.084 .66)"/><linearGradient x1="30.038" y1="24.99" x2="30.038" y2="30" id="q" xlink:href="#c" gradientUnits="userSpaceOnUse" gradientTransform="matrix(.638 -.64114 .85963 .85535 -23.267 .843)"/><linearGradient x1="9" y1="29.057" x2="9" y2="26.03" id="r" xlink:href="#d" gradientUnits="userSpaceOnUse" gradientTransform="matrix(.638 -.64114 .85963 .85535 -24.6 2.182)"/><linearGradient id="d"><stop offset="0" stop-color="#ece5a5"/><stop offset="1" stop-color="#fcfbf2"/></linearGradient><linearGradient x1="5.518" y1="37.372" x2="9.522" y2="41.392" id="s" xlink:href="#e" gradientUnits="userSpaceOnUse" gradientTransform="matrix(.56036 .0242 .02416 .55967 -1.392 -1.445)"/><linearGradient id="e"><stop offset="0" stop-color="#dbce48"/><stop offset="1" stop-color="#c5b625"/></linearGradient><linearGradient id="t" gradientTransform="matrix(.5 0 0 .875 -172.75 -5.938)" gradientUnits="userSpaceOnUse" x1="385" x2="385" y1="8" y2="33"><stop offset="0" stop-color="#e7d198"/><stop offset="1" stop-color="#ba964a"/></linearGradient><linearGradient id="u" gradientTransform="matrix(.333 0 0 .864 -108.667 -5.705)" gradientUnits="userSpaceOnUse" x1="391.774" x2="379.774" xlink:href="#f" y1="20.421" y2="20.421"/><linearGradient id="f"><stop offset="0" stop-color="#fff"/><stop offset="1" stop-color="#fff" stop-opacity="0"/></linearGradient></defs><linearGradient id="j" gradientTransform="matrix(1.067 0 0 1.067 -185.988 -12.146)" gradientUnits="userSpaceOnUse" x1="182" x2="182" xlink:href="#g" y1="33" y2="24.52"/><linearGradient id="g"><stop offset="0" stop-color="#fff"/><stop offset="1" stop-color="#fff" stop-opacity="0"/></linearGradient><linearGradient id="i" gradientTransform="matrix(1.07 0 0 1.07 -186.29 -12.512)" gradientUnits="userSpaceOnUse" x1="188" x2="188" xlink:href="#g" y1="17" y2="36.026"/><linearGradient id="h"><stop offset="0"/><stop offset="1" stop-opacity="0"/></linearGradient><path d="M1.5 4.5l22 22h-22zm5 12.02v4.98h4.98z" fill="#81d72c" fill-opacity=".588" fill-rule="evenodd" stroke="#4e9a06" stroke-linejoin="round"/><path d="M2.5 6.873V25.5h18.627L2.5 6.873z" fill="none" opacity=".5" stroke="url(#i)"/><path d="M5.5 14.52v8h7.312" fill="none" opacity=".5" stroke="url(#j)"/><path d="M2 7h1v.68H2zm0 2.04h1v.68H2zm0 2.04h1v.68H2zm0 2.04h1v.68H2zm0 2.04h1v.68H2zm0 2.04h1v.68H2zm0 2.04h1v.68H2zm0 2.04h1v.68H2zm0 2.04h1V24H2z" opacity=".15"/><path d="M2 8h1v.68H2zm0 2.04h1v.68H2zm0 2.04h1v.68H2zm0 2.04h1v.68H2zm0 2.04h1v.68H2zm0 2.04h1v.68H2zm0 2.04h1v.68H2zm0 2.04h1v.68H2zm0 2.04h1V25H2z" fill="#fff" opacity=".15"/><path d="M20 25v1h-.654v-1zm-1.962 0v1h-.653v-1zm-1.96 0v1h-.655v-1zm-1.963 0v1h-.653v-1zm-1.96 0v1H11.5v-1zm-1.963 0v1H9.54v-1zm-1.96 0v1h-.655v-1zm-1.963 0v1h-.655v-1zm-1.962 0v1h-.654v-1z" opacity=".15"/><path d="M19.346 25v1h-.654v-1zm-1.962 0v1h-.653v-1zm-1.96 0v1h-.655v-1zm-1.963 0v1h-.652v-1zm-1.96 0v1h-.654v-1zm-1.962 0v1h-.653v-1zm-1.96 0v1h-.655v-1zm-1.963 0v1H4.96v-1zm-1.96 0v1H3v-1z" fill="#fff" opacity=".15"/><path d="M4.5 27.5h19" fill="none" opacity=".3" stroke="#85f619" stroke-linecap="square"/><path d="M28.036 18.017c-.2-.03-.355-.015-.46.01l-13.85 3.186-2.548.588-.078.014L8 24l7.396-.196.062-.014 2.565-.586 13.848-3.21c.417-.097-.204-.614-1.393-1.162-.89-.41-1.843-.727-2.44-.815z" opacity=".15" fill="#0c0c0c" fill-rule="evenodd"/><path d="M3.996 16.48c.446-.335 1.697.293 2.847 1.437 1.147 1.14 1.75 2.362 1.424 2.813 0 0 .028.025.027.026l16.01-16.088c.406-.41-.225-1.7-1.41-2.88C21.705.608 20.41-.017 20.005.39z" fill="url(#k)" stroke="#0c0c0c" stroke-width=".5" stroke-linejoin="round" transform="translate(7.23 -.01)"/><path d="M25.282 2.344c.446-.334 1.697.294 2.847 1.438 1.146 1.14 1.75 2.362 1.423 2.813 0 0 .028.025.027.026l1.954-1.962.04-.04c0-.002-.028-.025-.027-.027.327-.45-.277-1.67-1.424-2.812C28.973.634 27.723.006 27.276.34l-.04.04-1.954 1.964z" opacity=".8" fill="#ffb6ed" stroke="#e28ccd" stroke-width=".5" stroke-linejoin="round"/><path d="M11.226 16.47c.446-.335 1.697.293 2.847 1.437 1.147 1.14 1.75 2.362 1.424 2.813 0 0 .028.025.027.026L26.55 9.666l.04-.04s-.03-.024-.028-.026c.328-.45-.277-1.672-1.424-2.813-1.15-1.144-2.4-1.772-2.847-1.437l-.04.04z" opacity=".6" fill="#0c0c0c"/><path d="M15.862 4.555c.446-.334 1.697.293 2.847 1.437 1.146 1.142 1.75 2.363 1.423 2.813 0 .002.028.025.027.027l.2-.2c0-.002-.03-.025-.028-.027.327-.45-.277-1.672-1.424-2.813-1.15-1.144-2.4-1.772-2.847-1.437z" fill="url(#l)" transform="translate(7.23 -.01)"/><path d="M15.68 4.74c.445-.336 1.696.292 2.846 1.436 1.147 1.14 1.75 2.363 1.424 2.813 0 0 .028.024.027.026l.2-.2c0-.002-.03-.026-.027-.027.327-.452-.278-1.673-1.425-2.814-1.15-1.144-2.4-1.772-2.847-1.437z" fill="url(#m)" transform="translate(7.23 -.01)"/><path d="M16.497 3.917c.446-.334 1.697.293 2.847 1.437 1.147 1.142 1.75 2.363 1.424 2.813 0 .002.028.025.027.027l.2-.2c0-.002-.03-.025-.028-.027.327-.45-.277-1.672-1.424-2.813-1.15-1.144-2.4-1.772-2.847-1.437z" fill="url(#n)" transform="translate(7.23 -.01)"/><path d="M16.314 4.1c.446-.334 1.697.294 2.847 1.438 1.148 1.14 1.752 2.363 1.425 2.813 0 .003.028.026.027.028l.2-.2c0-.002-.03-.026-.027-.027.327-.45-.278-1.67-1.425-2.812-1.15-1.144-2.4-1.772-2.847-1.437z" fill="url(#o)" transform="translate(7.23 -.01)"/><path d="M17.135 3.276c.446-.334 1.697.293 2.847 1.437 1.147 1.142 1.75 2.363 1.424 2.813 0 .002.028.025.027.027l.2-.2c0-.002-.03-.025-.028-.027.327-.45-.277-1.672-1.424-2.813-1.15-1.144-2.4-1.772-2.846-1.437l-.2.2z" fill="url(#p)" transform="translate(7.23 -.01)"/><path d="M16.952 3.46c.446-.335 1.697.293 2.847 1.437 1.146 1.14 1.75 2.362 1.423 2.813 0 0 .028.025.027.026l.2-.2c0-.002-.03-.025-.027-.027.327-.45-.278-1.672-1.425-2.813-1.15-1.145-2.4-1.772-2.847-1.438z" fill="url(#q)" transform="translate(7.23 -.01)"/><path d="M.928 23.76l7.283-2.97.063-.06c.327-.452-.285-1.673-1.432-2.814-1.15-1.144-2.398-1.77-2.844-1.434z" fill="url(#r)" fill-rule="evenodd" stroke="url(#s)" stroke-width=".5" transform="translate(7.23 -.01)"/><path d="M8.99 21.78l-.833 1.964 1.987-.815c-.16-.192-.306-.385-.498-.575-.22-.22-.436-.397-.657-.575z" fill="#0c0c0c" fill-rule="evenodd" stroke="#0c0c0c" stroke-width=".5"/><g><path d="M16.434 1.433l4.986-.006.016 29.01H16.43z" transform="rotate(-90 22.997 22.928)" fill="url(#t)" stroke="#956e37"/><path d="M17.434 2.433l2.986-.006.016 27.01H17.43z" transform="rotate(-90 22.997 22.928)" opacity=".4" fill="none" stroke="url(#u)"/></g></svg>