<svg height="32" viewBox="0 0 32 32" width="32" xmlns="http://www.w3.org/2000/svg" xmlns:xlink="http://www.w3.org/1999/xlink"><linearGradient id="a" gradientUnits="userSpaceOnUse" x1="16" x2="16" xlink:href="#e" y1="6" y2="22.5"/><linearGradient id="b" gradientUnits="userSpaceOnUse" x1="12" x2="12" xlink:href="#e" y1="13" y2="9.5"/><linearGradient id="c" gradientTransform="translate(8)" gradientUnits="userSpaceOnUse" x1="12" x2="12" xlink:href="#e" y1="13" y2="9.5"/><linearGradient id="d" gradientUnits="userSpaceOnUse" x1="16" x2="16" xlink:href="#e" y1="21.5" y2="17"/><linearGradient id="e" gradientTransform="matrix(1.0820305 0 0 1.0820305 -.984366 -1.640611)" gradientUnits="userSpaceOnUse" x1="12" x2="11.872883" y1="12.941176" y2="26.40678"><stop offset="0" stop-color="#fff"/><stop offset=".43823975" stop-color="#fff" stop-opacity=".235294"/><stop offset="1" stop-color="#fff" stop-opacity=".156863"/><stop offset="1" stop-color="#fff" stop-opacity=".392157"/></linearGradient><linearGradient id="f" gradientUnits="userSpaceOnUse" x1="8.852915" x2="9.664626" y1="7.355726" y2="24.079201"><stop offset="0" stop-color="#cd9ef7"/><stop offset="1" stop-color="#a56de2"/></linearGradient><radialGradient id="g" cx="2.25" cy="16" gradientTransform="matrix(.39697225 0 0 .11633788 11.22886 25.899702)" gradientUnits="userSpaceOnUse" r="16.875"><stop offset="0"/><stop offset="1" stop-opacity="0"/></radialGradient><g transform="matrix(1.33333 0 0 1.33333 .00004 -11.482808)"><ellipse cx="12.122048" cy="27.76111" display="block" fill="url(#g)" fill-rule="evenodd" opacity=".711111" rx="6.698907" ry="1.963204"/><path d="m15.992188 4.5097656c-5.797139 0-10.4980474 4.6989558-10.4980474 10.4960934 0 5.79714 4.7009084 10.496094 10.4980474 10.496094s10.496093-4.698954 10.496093-10.496094c0-5.7971376-4.698954-10.4960934-10.496093-10.4960934zm-3.992188 4.9902344a1.5 1.5 0 0 1 1.5 1.5 1.5 1.5 0 0 1 -1.5 1.5 1.5 1.5 0 0 1 -1.5-1.5 1.5 1.5 0 0 1 1.5-1.5zm8 0a1.5 1.5 0 0 1 1.5 1.5 1.5 1.5 0 0 1 -1.5 1.5 1.5 1.5 0 0 1 -1.5-1.5 1.5 1.5 0 0 1 1.5-1.5zm-9.5 8h11c-.581632 2.265819-3.055588 4.066406-5.507812 4.066406-2.452225 0-4.910557-1.800587-5.492188-4.066406z" fill="url(#f)" stroke="#7239b3" stroke-opacity=".501961" transform="matrix(.75000188 0 0 .75000188 -.000029 8.612128)"/></g><g fill="none" stroke-linecap="round" stroke-linejoin="round" stroke-opacity=".501961"><path d="m25.5 15a9.5 9.5 0 0 1 -9.5 9.5 9.5 9.5 0 0 1 -9.5-9.5 9.5 9.5 0 0 1 9.5-9.5 9.5 9.5 0 0 1 9.5 9.5z" opacity=".5" stroke="url(#a)"/><path d="m14.5 11a2.5 2.5 0 0 1 -2.5 2.5 2.5 2.5 0 0 1 -2.5-2.5 2.5 2.5 0 0 1 2.5-2.5 2.5 2.5 0 0 1 2.5 2.5z" opacity=".5" stroke="url(#b)"/><path d="m22.5 11a2.5 2.5 0 0 1 -2.5 2.5 2.5 2.5 0 0 1 -2.5-2.5 2.5 2.5 0 0 1 2.5-2.5 2.5 2.5 0 0 1 2.5 2.5z" opacity=".5" stroke="url(#c)"/><path d="m9.5214844 16.5c.2611585 3.385003 3.0834536 5.998838 6.4785156 6 3.39356-.0032 6.213567-2.616493 6.474609-6z" opacity=".5" stroke="url(#d)"/></g></svg>