<svg height="32" viewBox="0 0 8.4666665 8.4666669" width="32" xmlns="http://www.w3.org/2000/svg" xmlns:xlink="http://www.w3.org/1999/xlink"><linearGradient id="a" gradientTransform="matrix(.28571361 0 0 .30419701 -27.907974 6.944469)" gradientUnits="userSpaceOnUse" x1="121.89803" x2="120.26409" y1="19.949394" y2="77.869469"><stop offset="0" stop-color="#cd9ef7"/><stop offset="1" stop-color="#a56de2"/></linearGradient><radialGradient id="b" cx="2.25" cy="16" gradientTransform="matrix(.22979984 0 0 .11633788 11.335687 27.175389)" gradientUnits="userSpaceOnUse" r="16.875"><stop offset="0"/><stop offset="1" stop-opacity="0"/></radialGradient><linearGradient id="c" gradientUnits="userSpaceOnUse" x1="12.078756" x2="12.429721" xlink:href="#a" y1="12.42371" y2="26.96612"/><linearGradient id="d" gradientUnits="userSpaceOnUse" x1="11.915018" x2="11.941163" xlink:href="#e" y1="13.455273" y2="26.255136"/><linearGradient id="e"><stop offset="0" stop-color="#fff"/><stop offset=".14285715" stop-color="#fff" stop-opacity=".235294"/><stop offset="1" stop-color="#fff" stop-opacity=".156863"/><stop offset="1" stop-color="#fff" stop-opacity=".392157"/></linearGradient><linearGradient id="f" gradientUnits="userSpaceOnUse" x1="11.90468" x2="11.822575" xlink:href="#e" y1="18.70158" y2="20.94068"/><linearGradient id="g" gradientTransform="matrix(.28571361 0 0 .30419701 -27.907974 6.944469)" gradientUnits="userSpaceOnUse" x1="121.89803" x2="120.26409" xlink:href="#a" y1="19.949394" y2="77.869469"/><g transform="matrix(.3527769 0 0 .3527769 .000011 -2.9104)"><path d="m12 11.529391-8.4706088 8.470609 8.4706088 8.470609 8.470609-8.470609z" fill="#7239b3"/><path d="m11.460938 11.982422a.07627888.07627888 0 0 0 -.04492.02148l-7.4121098 7.41211a.07627888.07627888 0 0 0 .054688.130859h4.2363281a.07627888.07627888 0 0 0 .054687-.02148l3.1757817-3.175782a.07627888.07627888 0 0 0 .02148-.05469v-4.236328a.07627888.07627888 0 0 0 -.08594-.07617zm1.060546 0a.07627888.07627888 0 0 0 -.06836.07617v4.236328a.07627888.07627888 0 0 0 .02148.05469l3.175782 3.175782a.07627888.07627888 0 0 0 .05469.02148h4.236328a.07627888.07627888 0 0 0 .05469-.130859l-7.41211-7.41211a.07627888.07627888 0 0 0 -.0625-.02148zm-8.4707028 8.470703a.07627888.07627888 0 0 0 -.046875.130859l7.4121098 7.41211a.07627888.07627888 0 0 0 .130859-.05469v-4.236328a.07627888.07627888 0 0 0 -.02148-.05469l-3.1757856-3.175777a.07627888.07627888 0 0 0 -.054687-.02148h-4.2363286a.07627888.07627888 0 0 0 -.00781 0zm11.6464848 0a.07627888.07627888 0 0 0 -.04687.02148l-3.175782 3.175782a.07627888.07627888 0 0 0 -.02148.05469v4.236328a.07627888.07627888 0 0 0 .130859.05469l7.41211-7.41211a.07627888.07627888 0 0 0 -.05469-.130859h-4.236328a.07627888.07627888 0 0 0 -.0078 0z" fill="url(#g)"/><path d="m12 11.529391-8.4706088 8.470609 8.4706088 8.470609 8.470609-8.470609z" fill="none" stroke="#7239b3" stroke-linejoin="round" stroke-opacity=".501961" stroke-width=".750002"/><ellipse cx="11.852737" cy="29.036797" display="block" fill="url(#b)" fill-rule="evenodd" opacity=".245" rx="3.877872" ry="1.963204"/><path d="m12 17.282138-2.7178616 2.717862 2.7178616 2.717862 2.717862-2.717862z" fill="url(#c)"/><g fill="none" stroke-linejoin="round" stroke-width=".750002"><path d="m12 12.595703-7.4042969 7.404297 7.4042969 7.402344 7.404297-7.402344z" opacity=".5" stroke="url(#d)"/><path d="m12 17.806641-2.1933594 2.193359 2.1933594 2.193359 2.193359-2.193359z" opacity=".5" stroke="url(#f)"/></g></g></svg>