<svg height="32" viewBox="0 0 32 32" width="32" xmlns="http://www.w3.org/2000/svg" xmlns:xlink="http://www.w3.org/1999/xlink"><linearGradient id="a" gradientUnits="userSpaceOnUse" x1="12" x2="11.872883" y1="12.941176" y2="26.40678"><stop offset="0" stop-color="#fff"/><stop offset=".43823975" stop-color="#fff" stop-opacity=".235294"/><stop offset="1" stop-color="#fff" stop-opacity=".156863"/><stop offset="1" stop-color="#fff" stop-opacity=".392157"/></linearGradient><linearGradient id="b" gradientUnits="userSpaceOnUse" x1="13.31356" x2="13.177966" y1="28.084745" y2="11.762712"><stop offset="0" stop-opacity=".339506"/><stop offset="1" stop-opacity=".246914"/></linearGradient><linearGradient id="c" gradientUnits="userSpaceOnUse" x1="6.559322" x2="7.177966" y1="14.169491" y2="26.915255"><stop offset="0" stop-color="#f4f4f4"/><stop offset="1" stop-color="#dbdbdb"/></linearGradient><radialGradient id="d" cx="2.25" cy="16" gradientTransform="matrix(.39697225 0 0 .11633788 11.22886 25.899702)" gradientUnits="userSpaceOnUse" r="16.875"><stop offset="0"/><stop offset="1" stop-opacity="0"/></radialGradient><g transform="matrix(1.33333 0 0 1.33333 .00004 -11.482808)"><ellipse cx="12.122048" cy="27.76111" display="block" fill="url(#d)" fill-rule="evenodd" opacity=".711111" rx="6.698907" ry="1.963204"/><g stroke-width=".750002"><path d="m12 12c-4.418278 0-8 3.581722-8 8s3.581722 8 8 8 8-3.581722 8-8-3.581722-8-8-8zm-3 4c.554 0 1 .446 1 1s-.446 1-1 1-1-.446-1-1 .446-1 1-1zm6 0c.554 0 1 .446 1 1s-.446 1-1 1-1-.446-1-1 .446-1 1-1zm-6.84375 6h7.6875c-.443289 1.72689-1.974792 3-3.84375 3s-3.400461-1.27311-3.84375-3z" fill="url(#c)" stroke="url(#b)"/><path d="m12 12.941176c-3.8984809 0-7.0588238 3.160343-7.0588238 7.058824s3.1603429 7.058824 7.0588238 7.058824c3.898481 0 7.058824-3.160343 7.058824-7.058824s-3.160343-7.058824-7.058824-7.058824z" fill="none" stroke="url(#a)"/></g></g></svg>