<svg height="32" viewBox="0 0 8.4666665 8.4666669" width="32" xmlns="http://www.w3.org/2000/svg" xmlns:xlink="http://www.w3.org/1999/xlink"><radialGradient id="a" cx="2.25" cy="16" gradientTransform="matrix(.37336191 0 0 .11633788 14.159945 24.175381)" gradientUnits="userSpaceOnUse" r="16.875"><stop offset="0"/><stop offset="1" stop-opacity="0"/></radialGradient><linearGradient id="b" gradientUnits="userSpaceOnUse" x1="15.181138" x2="14.992312" y1="9.46054" y2="25.608389"><stop offset="0" stop-color="#cd9ef7"/><stop offset="1" stop-color="#a56de2"/></linearGradient><linearGradient id="c" gradientTransform="matrix(0 .32432351 .46846727 0 -39.044046 -8.452496)" gradientUnits="userSpaceOnUse" x1="15" x2="15" y1="7" y2="24"><stop offset="0" stop-color="#fff"/><stop offset=".35294119" stop-color="#fff" stop-opacity=".235294"/><stop offset="1" stop-color="#fff" stop-opacity=".156863"/><stop offset="1" stop-color="#fff" stop-opacity=".392157"/></linearGradient><linearGradient id="d" gradientTransform="matrix(0 .32432351 .46846727 0 -39.044046 -8.452496)" gradientUnits="userSpaceOnUse" x1="17" x2="17" y1="24.5" y2="8"><stop offset="0" stop-color="#fff"/><stop offset=".42424244" stop-color="#fff" stop-opacity=".235294"/><stop offset="1" stop-color="#fff" stop-opacity=".156863"/><stop offset="1" stop-color="#fff" stop-opacity=".392157"/></linearGradient><g transform="scale(.26458333)"><g transform="matrix(1.33333 0 0 1.33333 -3.99996 -6.99993)"><ellipse cx="15.000008" cy="26.036789" display="block" fill="url(#a)" fill-rule="evenodd" opacity=".245" rx="6.300482" ry="1.963204"/><path d="m15.000008 8.7794027c-4.678179 0-8.4705885 3.7924093-8.4705885 8.4705883s3.7924095 8.470588 8.4705885 8.470588 8.470588-3.792409 8.470588-8.470588-3.792409-8.4705883-8.470588-8.4705883zm0 2.1176473c3.508634 0 6.352941 2.844307 6.352941 6.352941 0 1.365173-.458384 2.60409-1.191176 3.639706l-8.801471-8.801471c1.035616-.732792 2.274533-1.191176 3.639706-1.191176zm-5.1617655 2.713235 8.8014715 8.801471c-1.035616.732792-2.274533 1.191176-3.639706 1.191176-3.508634 0-6.3529415-2.844307-6.3529415-6.352941 0-1.365173.458384-2.604089 1.191176-3.639706z" fill="url(#b)" stroke="#7239b3" stroke-opacity=".501961" stroke-width=".750002"/></g><g fill="none" stroke-linecap="square"><path d="m26.5 16a10.5 10.5 0 0 1 -10.5 10.5 10.5 10.5 0 0 1 -10.5-10.5 10.5 10.5 0 0 1 10.5-10.5 10.5 10.5 0 0 1 10.5 10.5z" opacity=".5" stroke="url(#c)"/><path d="m25.5 16a9.5 9.5 0 0 1 -9.5 9.5 9.5 9.5 0 0 1 -9.5-9.5 9.5 9.5 0 0 1 9.5-9.5 9.5 9.5 0 0 1 9.5 9.5z" opacity=".5" stroke="url(#d)"/></g></g></svg>