<svg height="32" viewBox="0 0 8.4666665 8.4666669" width="32" xmlns="http://www.w3.org/2000/svg" xmlns:xlink="http://www.w3.org/1999/xlink"><radialGradient id="a" cx="2.25" cy="16" gradientTransform="matrix(.479894 0 0 .11633788 10.772975 27.175389)" gradientUnits="userSpaceOnUse" r="16.875"><stop offset="0"/><stop offset="1" stop-opacity="0"/></radialGradient><linearGradient id="b" gradientUnits="userSpaceOnUse" x1="16.642473" x2="16.354338" xlink:href="#c" y1="6.102069" y2="25.627493"/><linearGradient id="c" gradientUnits="userSpaceOnUse" x1="-13.798205" x2="7.201795" y1="16.068171" y2="16.068171"><stop offset="0" stop-color="#cd9ef7"/><stop offset="1" stop-color="#a56de2"/></linearGradient><linearGradient id="d" gradientUnits="userSpaceOnUse" x1="11.439099" x2="11.560832" xlink:href="#c" y1="12.745361" y2="27.404734"/><linearGradient id="e" gradientUnits="userSpaceOnUse" x1="11.978032" x2="11.978032" y1="12.980719" y2="27.002184"><stop offset="0" stop-color="#fff"/><stop offset=".00000003" stop-color="#fff" stop-opacity=".235294"/><stop offset="1" stop-color="#fff" stop-opacity=".156863"/><stop offset="1" stop-color="#fff" stop-opacity=".392157"/></linearGradient><linearGradient id="f" gradientUnits="userSpaceOnUse" x1="11.978032" x2="11.978032" y1="17.777536" y2="22.205366"><stop offset="0" stop-color="#fff"/><stop offset="0" stop-color="#fff" stop-opacity=".235294"/><stop offset="1" stop-color="#fff" stop-opacity=".156863"/><stop offset="1" stop-color="#fff" stop-opacity=".392157"/></linearGradient><g transform="matrix(.3587328 0 0 .35852769 -.06358 -2.93416)"><ellipse cx="11.852736" cy="29.036797" display="block" fill="url(#a)" fill-rule="evenodd" opacity=".245" rx="8.098211" ry="1.963204"/><path d="m8.8235295 11.529412-5.2941175 5.294117v6.352941l5.2941175 5.294118h6.3529405l5.294118-5.294118v-6.352941l-5.294118-5.294117z" fill="#7239b3"/><path d="m12.976562 5.5 2.019532 5.544922h2.486328l2.564453-5.498047-.046875-.046875zm-1.43164.4550781-4.8691408 4.8691409 5.2578128 2.451172 1.669922-1.667969zm9.630859.7207031-2.433593 5.2167968 1.695312 1.69336 5.607422-2.041016zm-15.628906 5.2773438-.046875.046875v7.023438l5.558594-2.023438v-2.476562zm20.953125 1.023437-5.5 2.001954v2.52539l5.453125 2.542969.046875-.046875zm-14.912109 5.427735-5.6328129 2.050781 4.8691409 4.869141 2.445312-5.242188zm8.535156.345703-1.703125 1.703125 2.035156 5.591797 4.869141-4.869141zm-5.617188 2.228516-2.552734 5.474609.046875.046875h7.023438l-2.009766-5.521484z" fill="url(#b)" transform="matrix(.73754988 0 0 .73797182 .177234 8.183902)"/><path d="m8.8235295 11.529412-5.2941175 5.294117v6.352941l5.2941175 5.294118h6.3529405l5.294118-5.294118v-6.352941l-5.294118-5.294117z" fill="none" stroke="#7239b3" stroke-linejoin="round" stroke-opacity=".501961" stroke-width=".737761"/><path d="m10.889602 17.038938-1.8506645 1.850664v2.220796l1.8506645 1.850664h2.220796l1.850664-1.850664v-2.220796l-1.850664-1.850664z" fill="url(#d)"/><g fill="none" stroke-linejoin="round" stroke-opacity=".929825" stroke-width=".737761"><path d="m9.2734375 12.611328-4.6621094 4.66211v5.453124l4.6621094 4.66211h5.4531245l4.66211-4.66211v-5.453124l-4.66211-4.66211z" opacity=".5" stroke="url(#e)"/><path d="m11.255859 17.394531-1.8613278 1.859375v1.492188l1.8593748 1.859375h1.492188l1.859375-1.859375v-1.492188l-1.859375-1.859375z" opacity=".5" stroke="url(#f)"/></g></g></svg>