<svg height="32" width="32" xmlns="http://www.w3.org/2000/svg" xmlns:xlink="http://www.w3.org/1999/xlink"><radialGradient id="a" cx="6.702713" cy="73.615715" gradientTransform="matrix(1.3166457 0 0 .28801944 14.174902 8.61329)" gradientUnits="userSpaceOnUse" r="7.228416"><stop offset="0"/><stop offset="1" stop-opacity="0"/></radialGradient><linearGradient id="b" gradientUnits="userSpaceOnUse" x1="22.881355" x2="22.644068" y1="14.457627" y2="31.338984"><stop offset="0" stop-color="#f6f6f6"/><stop offset="1" stop-color="#d2d2d2"/></linearGradient><linearGradient id="c" gradientUnits="userSpaceOnUse" x1="23.031893" x2="23.040016" y1="26.715307" y2="18.997057"><stop offset="0" stop-color="#fff"/><stop offset="1" stop-color="#959595"/></linearGradient><linearGradient id="d" gradientUnits="userSpaceOnUse" x1="23.131727" x2="23.398602" y1="16.459263" y2="30.159456"><stop offset="0" stop-color="#fff"/><stop offset="1" stop-color="#fff" stop-opacity="0"/></linearGradient><linearGradient id="e" gradientTransform="matrix(1.63825 0 0 1.6956 -3.163 -2.316)" gradientUnits="userSpaceOnUse" x1="12.251" x2="11.562" y1=".907" y2="21.099"><stop offset="0" stop-color="#737373"/><stop offset=".262" stop-color="#636363"/><stop offset=".705" stop-color="#4b4b4b"/><stop offset="1" stop-color="#3f3f3f"/></linearGradient><path d="m27.698 14.698q0 2.133-.66 3.913-.66 1.782-1.86 2.772-1.205.993-2.796.993-1.06 0-1.89-.518-.817-.535-1.16-1.394h-.23q-.7.89-1.704 1.407-1.002.505-2.234.505-2.535 0-3.998-1.57-1.458-1.587-1.458-4.315 0-3.096 1.89-5.022 1.906-1.928 5.045-1.928 1.158 0 2.675.237 1.52.224 2.48.58l-.33 7.25q0 2.074 1.087 2.074.918 0 1.46-1.376.544-1.393.544-3.632 0-2.385-.96-4.21-.946-1.838-2.693-2.8-1.733-.978-3.98-.978-2.88 0-5.03 1.245-2.146 1.243-3.276 3.559-1.135 2.302-1.135 5.326 0 4.103 2.105 6.3 2.12 2.176 6.13 2.176 1.603 0 3.436-.37 1.835-.373 3.48-1.01v2.867q-3.036 1.33-6.802 1.33-5.444 0-8.495-2.964-3.039-2.965-3.039-8.239 0-3.663 1.563-6.657 1.577-2.994 4.457-4.669 2.878-1.69 6.574-1.69 3.15 0 5.63 1.335 2.476 1.335 3.821 3.795 1.347 2.46 1.347 5.68zm-14.667 1.85q0 3.13 2.465 3.13 1.273 0 1.946-.933.69-.95.83-3.082l.19-3.278q-.66-.15-1.648-.15-1.79 0-2.792 1.157-.99 1.157-.99 3.157z" fill="url(#e)" stroke="#000" stroke-opacity=".49"/><path d="m32.517262 29.816046c0 1.149816-4.261024 2.081925-9.517262 2.081925-5.256239 0-9.517262-.932109-9.517262-2.081925 0-1.149815 4.261023-2.081924 9.517262-2.081924 5.256238 0 9.517262.932109 9.517262 2.081924z" fill="url(#a)" opacity=".2"/><path d="m22 14.5c-.554 0-1 .446-1 1v1.886719a5.9661016 5.9661016 0 0 0 -.556641.228515l-1.332031-1.332031c-.391737-.391737-1.022325-.391737-1.414062 0l-1.414063 1.414063c-.391737.391737-.391737 1.022325 0 1.414062l1.333985 1.333984a5.9661016 5.9661016 0 0 0 -.230469.554688h-1.886719c-.554 0-1 .446-1 1v2c0 .554.446 1 1 1h1.886719a5.9661016 5.9661016 0 0 0 .228515.556641l-1.332031 1.332031c-.391737.391737-.391737 1.022325 0 1.414062l1.414063 1.414063c.391737.391737 1.022325.391737 1.414062 0l1.333984-1.333985a5.9661016 5.9661016 0 0 0 .554688.230469v1.886719c0 .554.446 1 1 1h2c.554 0 1-.446 1-1v-1.886719a5.9661016 5.9661016 0 0 0 .556641-.228515l1.332031 1.332031c.391737.391737 1.022325.391737 1.414062 0l1.414063-1.414063c.391737-.391737.391737-1.022325 0-1.414062l-1.333985-1.333984a5.9661016 5.9661016 0 0 0 .230469-.554688h1.886719c.554 0 1-.446 1-1v-2c0-.554-.446-1-1-1h-1.886719a5.9661016 5.9661016 0 0 0 -.228515-.556641l1.332031-1.332031c.391737-.391737.391737-1.022325 0-1.414062l-1.414063-1.414063c-.391737-.391737-1.022325-.391737-1.414062 0l-1.333984 1.333985a5.9661016 5.9661016 0 0 0 -.554688-.230469v-1.886719c0-.554-.446-1-1-1zm1 6.503906a1.9954157 1.9954157 0 0 1 1.996094 1.996094 1.9954157 1.9954157 0 0 1 -1.996094 1.996094 1.9954157 1.9954157 0 0 1 -1.996094-1.996094 1.9954157 1.9954157 0 0 1 1.996094-1.996094z" fill="url(#b)"/><g fill="none" stroke-linecap="square" stroke-linejoin="round"><path d="m22 14.5c-.554 0-1 .446-1 1v1.886719a5.9661016 5.9661016 0 0 0 -.556641.228515l-1.332031-1.332031c-.391737-.391737-1.022325-.391737-1.414062 0l-1.414063 1.414063c-.391737.391737-.391737 1.022325 0 1.414062l1.333985 1.333984a5.9661016 5.9661016 0 0 0 -.230469.554688h-1.886719c-.554 0-1 .446-1 1v2c0 .554.446 1 1 1h1.886719a5.9661016 5.9661016 0 0 0 .228515.556641l-1.332031 1.332031c-.391737.391737-.391737 1.022325 0 1.414062l1.414063 1.414063c.391737.391737 1.022325.391737 1.414062 0l1.333984-1.333985a5.9661016 5.9661016 0 0 0 .554688.230469v1.886719c0 .554.446 1 1 1h2c.554 0 1-.446 1-1v-1.886719a5.9661016 5.9661016 0 0 0 .556641-.228515l1.332031 1.332031c.391737.391737 1.022325.391737 1.414062 0l1.414063-1.414063c.391737-.391737.391737-1.022325 0-1.414062l-1.333985-1.333984a5.9661016 5.9661016 0 0 0 .230469-.554688h1.886719c.554 0 1-.446 1-1v-2c0-.554-.446-1-1-1h-1.886719a5.9661016 5.9661016 0 0 0 -.228515-.556641l1.332031-1.332031c.391737-.391737.391737-1.022325 0-1.414062l-1.414063-1.414063c-.391737-.391737-1.022325-.391737-1.414062 0l-1.333984 1.333985a5.9661016 5.9661016 0 0 0 -.554688-.230469v-1.886719c0-.554-.446-1-1-1zm1 6.503906a1.9954157 1.9954157 0 0 1 1.996094 1.996094 1.9954157 1.9954157 0 0 1 -1.996094 1.996094 1.9954157 1.9954157 0 0 1 -1.996094-1.996094 1.9954157 1.9954157 0 0 1 1.996094-1.996094z" opacity=".3" stroke="#000"/><circle cx="23" cy="23" r="3.998385" stroke="url(#c)"/><path d="m22 15.5v1.886719a.99989607.99989607 0 0 1 -.667969.943359c-.157521.05556-.311767.118308-.46289.189453a.99989607.99989607 0 0 1 -1.132813-.197265l-1.332031-1.332032-1.414063 1.414063 1.333985 1.333984a.99989607.99989607 0 0 1 .195312 1.136719c-.07165.150561-.135262.303936-.191406.460938a.99989607.99989607 0 0 1 -.941406.664062h-1.886719v2h1.886719a.99989607.99989607 0 0 1 .943359.667969c.05556.157521.118308.311767.189453.46289a.99989607.99989607 0 0 1 -.197265 1.132813l-1.332032 1.332031 1.414063 1.414063 1.333984-1.333985a.99989607.99989607 0 0 1 1.136719-.195312c.150561.07165.303936.135262.460938.191406a.99989607.99989607 0 0 1 .664062.941406v1.886719h2v-1.886719a.99989607.99989607 0 0 1 .667969-.943359c.157521-.05556.311767-.118308.46289-.189453a.99989607.99989607 0 0 1 1.132813.197265l1.332031 1.332032 1.414063-1.414063-1.333985-1.333984a.99989607.99989607 0 0 1 -.195312-1.136719c.07165-.150561.135262-.303936.191406-.460938a.99989607.99989607 0 0 1 .941406-.664062h1.886719v-2h-1.886719a.99989607.99989607 0 0 1 -.943359-.667969c-.05556-.157521-.118308-.311767-.189453-.46289a.99989607.99989607 0 0 1 .197265-1.132813l1.332032-1.332031-1.414063-1.414063-1.333984 1.333985a.99989607.99989607 0 0 1 -1.136719.195312c-.150561-.07165-.303936-.135262-.460938-.191406a.99989607.99989607 0 0 1 -.664062-.941406v-1.886719zm1 6.503906c-.588024.0002.772067.134102.195312.01953-.576754-.114571.728849.281575.185547.05664-.543301-.224934.66278.418444.173829.0918-.488952-.326647.566186.538842.15039.123047-.415795-.415796.449694.639342.123047.15039-.326647-.488951.316731.71713.0918.173829-.224935-.543302.171211.762301.05664.185547-.11457-.576755.01933.783336.01953.195312-.0002-.588024-.134102.772067-.01953.195312.114571-.576754-.281575.728849-.05664.185547.224934-.543301-.418444.66278-.0918.173829.326647-.488952-.538842.566186-.123047.15039.415796-.415795-.639342.449694-.15039.123047.488951-.326647-.71713.316731-.173829.0918.543302-.224935-.762301.171211-.185547.05664.576755-.11457-.783336.01933-.195312.01953.588024-.0002-.772067-.134102-.195312-.01953.576754.114571-.728849-.281575-.185547-.05664.543301.224934-.66278-.418444-.173829-.0918.488952.326647-.566186-.538842-.15039-.123047.415795.415796-.449694-.639342-.123047-.15039.326647.488951-.316731-.71713-.0918-.173829.224935.543302-.171211-.762301-.05664-.185547.11457.576755-.01933-.783336-.01953-.195312.0002.588024.134102-.772067.01953-.195312-.114571.576754.281575-.728849.05664-.185547-.224934.543301.418444-.66278.0918-.173829-.326647.488952.538842-.566186.123047-.15039-.415796.415795.639342-.449694.15039-.123047-.488951.326647.71713-.316731.173829-.0918-.543302.224935.762301-.171211.185547-.05664-.576755.11457.783336-.01933.195312-.01953z" stroke="url(#d)"/></g></svg>