<svg height="32" viewBox="0 0 8.4666665 8.4666668" width="32" xmlns="http://www.w3.org/2000/svg" xmlns:xlink="http://www.w3.org/1999/xlink"><linearGradient id="a" gradientTransform="matrix(.1347 0 0 .14642 -.198 290.374)" gradientUnits="userSpaceOnUse" x1="9.329084" x2="9.329084" y1="38.475292" y2="41.185825"><stop offset="0" stop-color="#fff"/><stop offset=".00000056" stop-color="#fff" stop-opacity=".235"/><stop offset="1" stop-color="#fff" stop-opacity=".157"/><stop offset="1" stop-color="#fff" stop-opacity=".392"/></linearGradient><linearGradient id="b" gradientTransform="matrix(.1347 0 0 .14642 -.198 289.18338)" gradientUnits="userSpaceOnUse" x1="9.329084" x2="9.329084" xlink:href="#a" y1="38.475292" y2="42.541035"/><linearGradient id="c" gradientTransform="matrix(.1347 0 0 .14642 .992628 289.18338)" gradientUnits="userSpaceOnUse" x1="9.329084" x2="9.329084" xlink:href="#a" y1="38.475292" y2="42.541035"/><linearGradient id="d" gradientTransform="matrix(.1347 0 0 .14642 2.381694 289.18338)" gradientUnits="userSpaceOnUse" x1="9.329084" x2="9.329084" xlink:href="#a" y1="38.475292" y2="42.541035"/><linearGradient id="e" gradientTransform="matrix(.1347 0 0 .14642 3.77076 289.18338)" gradientUnits="userSpaceOnUse" x1="9.329084" x2="9.329084" xlink:href="#a" y1="38.475292" y2="42.541035"/><linearGradient id="f" gradientTransform="matrix(.1347 0 0 .14642 -.198 287.99275)" gradientUnits="userSpaceOnUse" x1="9.329084" x2="9.329084" xlink:href="#a" y1="38.475292" y2="42.541035"/><linearGradient id="g" gradientTransform="matrix(.1347 0 0 .14642 .992628 287.99275)" gradientUnits="userSpaceOnUse" x1="9.329084" x2="9.329084" xlink:href="#a" y1="38.475292" y2="42.541035"/><linearGradient id="h" gradientTransform="matrix(.1347 0 0 .14642 2.381694 287.99275)" gradientUnits="userSpaceOnUse" x1="9.329084" x2="9.329084" xlink:href="#a" y1="38.475292" y2="42.541035"/><linearGradient id="i" gradientTransform="matrix(.1347 0 0 .14642 3.77076 287.99275)" gradientUnits="userSpaceOnUse" x1="9.329084" x2="9.329084" xlink:href="#a" y1="38.475292" y2="42.541035"/><linearGradient id="j" gradientTransform="matrix(.1347 0 0 .14642 .000438 286.80212)" gradientUnits="userSpaceOnUse" x1="9.329084" x2="9.329084" xlink:href="#a" y1="38.475292" y2="42.541035"/><linearGradient id="k" gradientTransform="matrix(.1347 0 0 .14642 1.191066 286.80212)" gradientUnits="userSpaceOnUse" x1="9.329084" x2="9.329084" xlink:href="#a" y1="38.475292" y2="42.541035"/><linearGradient id="l" gradientTransform="matrix(.1347 0 0 .14642 2.580132 286.80212)" gradientUnits="userSpaceOnUse" x1="9.329084" x2="9.329084" xlink:href="#a" y1="38.475292" y2="42.541035"/><linearGradient id="m" gradientTransform="matrix(.1347 0 0 .14642 3.969198 286.80212)" gradientUnits="userSpaceOnUse" x1="9.329084" x2="9.329084" xlink:href="#a" y1="38.475292" y2="42.541035"/><linearGradient id="n" gradientTransform="matrix(.1347 0 0 .14642 -.198 290.374)" gradientUnits="userSpaceOnUse" x1="9.329084" x2="9.329084" xlink:href="#a" y1="38.475292" y2="41.185825"/><linearGradient id="o" gradientTransform="matrix(.1347 0 0 .14642 1.372687 290.374)" gradientUnits="userSpaceOnUse" x1="9.329084" x2="9.329084" xlink:href="#a" y1="38.475292" y2="41.185825"/><linearGradient id="p" gradientTransform="matrix(.11794 0 0 .11905 .013562 290.04869)" gradientUnits="userSpaceOnUse" x1="2.84457" x2="2.745351" y1="291.64191" y2="296.10678"><stop offset="0" stop-color="#fafafa"/><stop offset="1" stop-color="#e2e1de"/></linearGradient><g transform="matrix(1.33333 0 0 1.33333 .440583 -387.532)"><path d="m.4206805 291.5427c-.1412217 0-.25502383.11526-.25502383.25851v4.04705c0 .14324.11380213.25851.25502383.25851h.7371662l.396876-.99219h.198438v.73368c0 .14324.1138022.25851.2550238.25851h.7371662l.396876-.99219h2.282037.042633c.1412216 0 .2550238-.11527.2550238-.25851v-3.05486c0-.14324-.1138022-.25851-.2550238-.25851z" fill="url(#p)"/><g fill="none" stroke-linecap="square" stroke-width=".198438" transform="translate(-.198438 -.59531)"><path d="m.56253265 295.90833h.90978775l-.2396391.59532h-.47171065c-.12025587-.00001-.198438-.0992-.198438-.19844z" opacity=".5" stroke="url(#n)"/><path d="m.56253265 294.71771.99218995-.00001v.79375l-.99218995.00001z" opacity=".5" stroke="url(#b)"/><path d="m1.9515986 294.7177h.99219v.79375h-.99219z" opacity=".5" stroke="url(#c)"/><path d="m3.3406646 294.7177h.9921901v.79375h-.9921901z" opacity=".5" stroke="url(#d)"/><path d="m4.7297306 294.7177h.9921899v.79375h-.9921899z" opacity=".5" stroke="url(#e)"/><path d="m.56253269 293.52708.99218991-.00001v.79375l-.99218991.00001z" opacity=".5" stroke="url(#f)"/><path d="m1.9515986 293.52707h.99219v.79375h-.99219z" opacity=".5" stroke="url(#g)"/><path d="m3.3406646 293.52707h.9921901v.79375h-.9921901z" opacity=".5" stroke="url(#h)"/><path d="m4.7297306 293.52707h.9921899v.79375h-.9921899z" opacity=".5" stroke="url(#i)"/><path d="m.56253261 292.53489c-.00000001-.0992.0510949-.19411.198438-.19844h.79375209v.79375h-.99219005z" opacity=".5" stroke="url(#j)"/><path d="m1.9515987 292.33645h.99219v.79375h-.99219z" opacity=".5" stroke="url(#k)"/><path d="m3.3406647 292.33645h.99219v.79375h-.99219z" opacity=".5" stroke="url(#l)"/><path d="m4.7297306 292.33645h.7937521c.099219 0 .1984379.0793.1984379.2032v.59055h-.99219z" opacity=".5" stroke="url(#m)"/><path d="m2.1332198 295.90833h.9097878l-.2396391.59532h-.4717107c-.1202558-.00001-.198438-.0992-.198438-.19844z" opacity=".5" stroke="url(#o)"/></g><path d="m4 4c-1.1079994.0001008-2 .8920469-2 2v20c0 1.108004.8920006 2 2 2h4l2-4.986328v2.986328c0 1.108004.892001 2 2 2h4l2.005859-5h-1.197265l-1.572266 4h-2.736328c-.831 0-1.5-.66896-1.5-1.5v-2.496094l5.808594-.003906h-6.802735l12.994141-.001953v.001953h1v-.001953l6 .001953c.595799-.3457 1-.983572 1-1.724609v-15.275391c0-1.1079531-.892001-2.0001008-2-2zm6.007812.9980469v.0019531h5.992188v-.0019531h1.007812v.0019531l5.992188-.0019531h1l4.5.0019531c.831.0003528 1.5.4998891 1.5 1.5v3.4980469.0019531.998047l-6-.001953v.001953l6 .001953v4.998047.001953.996094h-.003906v.001953h.003906v5 .001953h-27v-.001953-4.988281-1.009766-5-1-3.5c0-.8309901.6689998-1.5 1.5-1.5h4.5zm-.001953 12.0078121v.001953h5.992188v-.001953zm-1.1972652 5.996094-1.5722657 4h-2.7363281c-.8310002.000051-1.5-.668959-1.5-1.5v-2.496094z" fill="#7a0000" fill-opacity=".501961" transform="matrix(.198438 0 0 .198438 -.330438 290.64973)"/><path d="m1.4555039 291.64192-.0007751.9918-1.18985289.00039v.19843l1.18985289-.00038.0003869.99219-1.19023979.00038v.20038l1.19024049-.0004v.98987l-1.19024049.00039v.00039h5.35782609v-.00039l-1.1906282-.00038v-.99103l1.1898531.00099v-.002h.0007739v-.19804l-1.190627-.00038v-.99219l1.1906282.00038v-.19843l-1.1906282-.00039v-.9918h-.198438v.9918h-1.1898528l.0007751-.9918h-.1999882l-.0007739.9918h-1.189079l.0007751-.9918zm.1992131 1.19024h1.1890778l.0003968.99219h-1.189087zm1.389066 0h1.1898528v.99219h-1.1894653zm-.0003969 1.19024 1.1902497.00077v.99142h-1.1902404zm-1.3882908.002h1.1890777v.98987h-1.1890684z" opacity=".3"/></g></svg>