<svg height="32" width="32" xmlns="http://www.w3.org/2000/svg" xmlns:xlink="http://www.w3.org/1999/xlink"><linearGradient id="a" gradientUnits="userSpaceOnUse" x1="16.07219" x2="16.111279" y1="10.744574" y2="16"><stop offset="0" stop-color="#ffa154"/><stop offset="1" stop-color="#f37329"/></linearGradient><linearGradient id="b" gradientTransform="translate(-.888721)" gradientUnits="userSpaceOnUse" x1="17" x2="17" xlink:href="#k" y1="12" y2="13.5"/><linearGradient id="c" gradientTransform="matrix(.44576989 0 0 .44993664 .801525 7.975461)" gradientUnits="userSpaceOnUse" x1="25.132275" x2="25.132275" y1="15.499894" y2="48.395687"><stop offset="0" stop-color="#fafafa"/><stop offset="1" stop-color="#e2e1de"/></linearGradient><linearGradient id="d" gradientTransform="matrix(.48483606 0 0 .5270602 -.165352 7.599765)" gradientUnits="userSpaceOnUse" x1="23.99999" x2="23.99999" xlink:href="#e" y1="4.999989" y2="43"/><linearGradient id="e"><stop offset="0" stop-color="#fff"/><stop offset=".06316455" stop-color="#fff" stop-opacity=".235294"/><stop offset=".95056331" stop-color="#fff" stop-opacity=".156863"/><stop offset="1" stop-color="#fff" stop-opacity=".392157"/></linearGradient><linearGradient id="f"><stop offset="0"/><stop offset="1" stop-opacity="0"/></linearGradient><linearGradient id="g" gradientTransform="matrix(.49999998 0 0 .25 -.999998 10.999819)" gradientUnits="userSpaceOnUse" x1="23.954144" x2="23.954144" xlink:href="#f" y1="15.999304" y2="19.963179"/><linearGradient id="h" gradientUnits="userSpaceOnUse" x1="8.295028" x2="8.295028" y1="3.716094" y2="24.849756"><stop offset="0" stop-color="#cdf87e"/><stop offset=".26238" stop-color="#a2e34f"/><stop offset=".66093999" stop-color="#68b723"/><stop offset="1" stop-color="#1d7e0d"/></linearGradient><linearGradient id="i" gradientUnits="userSpaceOnUse" x1="11.001243" x2="11.001243" xlink:href="#e" y1="2.268861" y2="19.728327"/><linearGradient id="j" xlink:href="#f"/><linearGradient id="k" gradientTransform="matrix(.56756757 0 0 .72972971 2.378382 -2.513506)" gradientUnits="userSpaceOnUse" x1="23.99999" x2="23.999994" y1="5.56415" y2="18.518509"><stop offset="0" stop-color="#fff"/><stop offset="0" stop-color="#fff" stop-opacity=".235294"/><stop offset=".95056331" stop-color="#fff" stop-opacity=".156863"/><stop offset="1" stop-color="#fff" stop-opacity=".392157"/></linearGradient><linearGradient id="l" gradientTransform="matrix(.62856997 0 0 .60839392 .91432 -.534791)" gradientUnits="userSpaceOnUse" x1="25.132275" x2="24.592981" y1=".985206" y2="28.821444"><stop offset="0" stop-color="#f4f4f4"/><stop offset="1" stop-color="#dbdbdb"/></linearGradient><radialGradient id="m" cx="605.71429" cy="486.64789" gradientTransform="matrix(.01566318 0 0 .00823529 17.610433 25.980565)" gradientUnits="userSpaceOnUse" r="117.14286" xlink:href="#j"/><radialGradient id="n" cx="605.71429" cy="486.64789" gradientTransform="matrix(-.01566318 0 0 .00823529 14.389566 25.980565)" gradientUnits="userSpaceOnUse" r="117.14286" xlink:href="#j"/><linearGradient id="o" gradientTransform="matrix(.04576928 0 0 .00823529 -.542324 25.980548)" gradientUnits="userSpaceOnUse" x1="302.85715" x2="302.85715" y1="366.64789" y2="609.50507"><stop offset="0" stop-opacity="0"/><stop offset=".5"/><stop offset="1" stop-opacity="0"/></linearGradient><linearGradient id="p" gradientTransform="matrix(.53064141 0 0 .58970049 39.269607 -1.791918)" gradientUnits="userSpaceOnUse" x1="-50.447639" x2="-51.786404" y1="31.866886" y2="2.906247"><stop offset="0" stop-opacity=".317829"/><stop offset="1" stop-opacity=".24031"/></linearGradient><g transform="translate(0 -16.999983)"><path d="m4.949989 29h22.100021v2h-22.100021z" fill="url(#o)" opacity=".15"/><path d="m4.9499887 29.000086v1.99989c-.806615.0038-1.950002-.448074-1.950002-1.000074s.900121-.999816 1.950002-.999816z" fill="url(#n)" opacity=".15"/><path d="m27.050011 29.000086v1.99989c.806614.0038 1.950002-.448074 1.950002-1.000074s-.900122-.999816-1.950002-.999816z" fill="url(#m)" opacity=".15"/></g><path d="m5 1c5.041316 0 21.999973.00179 21.999973.00179l.000027 10.99821h-22v-10.9999959z" fill="url(#l)"/><g fill="none" stroke-linejoin="round"><path d="m26.5 11.5h-21v-10h21z" stroke="url(#k)" stroke-linecap="round"/><path d="m4.499961.499944c5.27048 0 23.000054.002 23.000054.002l.000024 11.998112h-23.000078v-11.999956z" stroke="url(#p)" stroke-width=".999922"/></g><g transform="translate(2.000512 3.999918)"><rect fill="url(#c)" height="16" rx=".527778" ry=".555556" width="14" x="7.000183" y="10"/><path d="m7.440184 10.498592h13l.059999 15.001408h-12.9999998z" fill="none" stroke="url(#d)" stroke-linecap="round" stroke-linejoin="round" stroke-width="1.100222"/><path d="m6.0001831 15 15.9998179-.000182v1l-15.9998179.000182z" fill="url(#g)" opacity=".15"/><path d="m6.5001831 14 .0000001 11.300155c0 .574146.4622639 1.029104 1.036364 1.036364l12.9272718.163481c.574101.0073 1.036364-.462218 1.036364-1.036364v-11.300155" fill="none" opacity=".3" stroke="#000"/><path d="m7.5365471 9.500027c-.574145.0000081-1.036364.462218-1.036364 1.036364v3.963609l14.9999989-.000182v-3.963609c0-.574146-.462218-1.0363721-1.036363-1.036364z" fill="url(#h)"/><g fill="none" stroke-linecap="round" transform="translate(0 8)"><path d="m7.5365471 1.500027c-.574146.0000081-1.0670846.4630405-1.036364 1.036364l.000001 3.963609 14.9999989-.000182-.000001-3.963609c0-.574146-.462218-1.0363721-1.036364-1.036364z" opacity=".4" stroke="#126400"/><path d="m7.5001841 2.5v3l12.9998169-.000182v-3z" opacity=".5" stroke="url(#i)" stroke-linejoin="round"/></g><path d="m11.000001 15h1l.000181 11h-1z" opacity=".321"/><path d="m16.000002 15h1l.000181 11h-1z" opacity=".321"/><path d="m7.000001 17.999818h4v1h-4z" opacity=".321"/><path d="m12.000001 17.999818h4v1h-4z" opacity=".321"/><path d="m17.000002 17.999818h4v1h-4z" opacity=".321"/><path d="m7.000001 21.999818h4v1h-4z" opacity=".321"/><path d="m12.000001 21.999818h4v1h-4z" opacity=".321"/><path d="m17.000002 21.999818h4v1h-4z" opacity=".321"/><g fill="#126400" transform="translate(0 8)"><path d="m11.000001 1.999818h1v4.000182h-1z" opacity=".4"/><path d="m16.000002 1.999818h1v4.000182h-1z" opacity=".4"/></g></g><path d="m16.111279 16-4.5-5.5h9z" fill="url(#a)" stroke="#a62100" stroke-linecap="round" stroke-linejoin="round" stroke-opacity=".501961"/><g fill="none"><path d="m8 4.5h4" fill="none" stroke="#c6262e"/><path d="m13 4.5h2.5" stroke="#f9c440"/><g fill="none" stroke="#c6262e"><path d="m16.5 4.5h7.5"/><path d="m8 6.5h5"/><path d="m14 6.5h2.5"/></g><path d="m18.5 6.5h5.5" stroke="#f9c440"/><path d="m8 8.5h5" fill="none" stroke="#c6262e"/><path d="m15 8.5h2.5" stroke="#f9c440"/><path d="m18.5 8.5h5.5" fill="none" stroke="#c6262e"/><path d="m15 20.5h2" stroke="#f9c440"/><path d="m10 20.5h2" fill="none" stroke="#c6262e"/><path d="m20 20.5h2" fill="none" stroke="#c6262e"/><path d="m20 24.5h2" stroke="#f9c440"/><path d="m15 24.5h2" fill="none" stroke="#c6262e"/><path d="m10 24.5h2" fill="none" stroke="#c6262e"/><path d="m15 28.5h2" stroke="#f9c440"/><g fill="none" stroke="#c6262e"><path d="m10 28.5h2"/><path d="m20 28.5h2"/></g><path d="m13.702847 11.5 2.408432 2.916106 2.388721-2.916106z" opacity=".5" stroke="url(#b)"/></g></svg>