<svg height="32" width="32" xmlns="http://www.w3.org/2000/svg" xmlns:xlink="http://www.w3.org/1999/xlink"><linearGradient id="a" gradientUnits="userSpaceOnUse" x1="14" x2="14" y1="14" y2="18"><stop offset="0" stop-color="#d4d4d4"/><stop offset="1" stop-color="#abacae"/></linearGradient><linearGradient id="b" gradientTransform="matrix(.56756757 0 0 .72972971 2.378382 -2.513506)" gradientUnits="userSpaceOnUse" x1="23.999994" x2="23.999994" y1="6.185175" y2="18.518509"><stop offset="0" stop-color="#fff"/><stop offset=".00000001" stop-color="#fff" stop-opacity=".235294"/><stop offset="1" stop-color="#fff" stop-opacity=".156863"/><stop offset="1" stop-color="#fff" stop-opacity=".392157"/></linearGradient><linearGradient id="c" gradientUnits="userSpaceOnUse" x1="16.07219" x2="16.111279" y1="10.744574" y2="16"><stop offset="0" stop-color="#ffa154"/><stop offset="1" stop-color="#f37329"/></linearGradient><linearGradient id="d" gradientUnits="userSpaceOnUse" x1="16.111279" x2="16.111279" y1="12" y2="13.5"><stop offset="0" stop-color="#fff"/><stop offset="0" stop-color="#fff" stop-opacity=".235294"/><stop offset=".95056331" stop-color="#fff" stop-opacity=".156863"/><stop offset="1" stop-color="#fff" stop-opacity=".392157"/></linearGradient><linearGradient id="e" gradientTransform="matrix(.44576989 0 0 .44993664 2.802037 11.975379)" gradientUnits="userSpaceOnUse" x1="25.132275" x2="25.132275" y1="15.499894" y2="48.395687"><stop offset="0" stop-color="#fafafa"/><stop offset="1" stop-color="#e2e1de"/></linearGradient><linearGradient id="f" gradientTransform="matrix(.48483606 0 0 .5270602 1.83516 11.599683)" gradientUnits="userSpaceOnUse" x1="23.99999" x2="23.99999" y1="4.999989" y2="43"><stop offset="0" stop-color="#fff"/><stop offset=".06316455" stop-color="#fff" stop-opacity=".235294"/><stop offset=".95056331" stop-color="#fff" stop-opacity=".156863"/><stop offset="1" stop-color="#fff" stop-opacity=".392157"/></linearGradient><linearGradient id="g"><stop offset="0"/><stop offset="1" stop-opacity="0"/></linearGradient><linearGradient id="h" gradientTransform="matrix(.49999998 0 0 .25 1.000514 14.999737)" gradientUnits="userSpaceOnUse" x1="23.954144" x2="23.954144" xlink:href="#g" y1="15.999304" y2="19.963179"/><linearGradient id="i" xlink:href="#g"/><linearGradient id="j" gradientTransform="matrix(.6571413 0 0 .66370246 .228607 -1.174318)" gradientUnits="userSpaceOnUse" x1="25.132275" x2="24.592981" y1=".985206" y2="28.821444"><stop offset="0" stop-color="#f4f4f4"/><stop offset="1" stop-color="#dbdbdb"/></linearGradient><radialGradient id="k" cx="605.71429" cy="486.64789" gradientTransform="matrix(.01566318 0 0 .00823529 17.610433 25.980565)" gradientUnits="userSpaceOnUse" r="117.14286" xlink:href="#i"/><radialGradient id="l" cx="605.71429" cy="486.64789" gradientTransform="matrix(-.01566318 0 0 .00823529 14.389566 25.980565)" gradientUnits="userSpaceOnUse" r="117.14286" xlink:href="#i"/><linearGradient id="m" gradientTransform="matrix(.04576928 0 0 .00823529 -.542324 25.980548)" gradientUnits="userSpaceOnUse" x1="302.85715" x2="302.85715" y1="366.64789" y2="609.50507"><stop offset="0" stop-opacity="0"/><stop offset=".5"/><stop offset="1" stop-opacity="0"/></linearGradient><linearGradient id="n" gradientTransform="matrix(.53064141 0 0 .58970049 39.269607 -1.791918)" gradientUnits="userSpaceOnUse" x1="-50.447639" x2="-51.786404" y1="31.866886" y2="2.906247"><stop offset="0" stop-opacity=".317829"/><stop offset="1" stop-opacity=".24031"/></linearGradient><rect fill="url(#e)" height="17" rx="1" width="15" x="8.5" y="13.5"/><path d="m9.440696 14.49851h13l.06 15.001408h-13.0000008z" fill="none" stroke="url(#f)" stroke-linecap="round" stroke-linejoin="round" stroke-width="1.100222"/><path d="m8.0006951 18.999918 15.9998179-.000182v1l-15.9998179.000182z" fill="url(#h)" opacity=".15"/><path d="m8.5006951 17.999918.0000001 11.300155c0 .574146.4622639 1.029104 1.036364 1.036364l12.9272718.163481c.574101.0073 1.036364-.462218 1.036364-1.036364v-11.300155" fill="none" opacity=".3" stroke="#000"/><path d="m9.5370591 13.499945c-.574145.000008-1.036364.462218-1.036364 1.036364v3.963609l14.9999989-.000182v-3.963609c0-.574146-.462218-1.036372-1.036363-1.036364z" fill="url(#a)"/><path d="m13 19v3h-4v1h4v3h-4v1h4v3h1v-3h4v3h1v-3h4v-1h-4v-3h4v-1h-4v-3h-1v3h-4v-3zm1 4h4v3h-4z" opacity=".321"/><g fill="none"><path d="m15 20.5h2" stroke="#f9c440"/><path d="m10 20.5h2" stroke="#c6262e"/><path d="m20 20.5h2" stroke="#c6262e"/><path d="m20 24.5h2" stroke="#f9c440"/><path d="m15 24.5h2" stroke="#c6262e"/><path d="m10 24.5h2" stroke="#c6262e"/><path d="m15 28.5h2" stroke="#f9c440"/><g stroke="#c6262e"><path d="m10 28.5h2"/><path d="m20 28.5h2"/></g></g><path d="m15.99414 13.005812-6.966797.0059c-.576734.000437-1.041262.257858-1.039062.980429l.023439 5.007859h.986328l-.01172-5.002h.011719 3.990234.011719v.002l.01172 4.000047h-.011719-3.988281v1h13.988281v-1h-3.988281-.01172l-.01172-4.000047v-.002h.01172 3.990234.01172l.01172 5.002h.986326v-5.007859c.0022-.722571-.462328-.979992-1.039062-.980469zm-2.005859.992188h.011719 3.988281.01172v.002l.01172 4.000047h-.01172-3.988281-.01172l-.011719-4.000047zm-4.98828 4.002v1h.0098v-1zm14.001953 0v1h.0098v-1z" fill="#555761" fill-opacity=".501961"/><g transform="translate(0 -16.999983)"><path d="m4.949989 29h22.100021v2h-22.100021z" fill="url(#m)" opacity=".15"/><path d="m4.9499887 29.000086v1.99989c-.806615.0038-1.950002-.448074-1.950002-1.000074s.900121-.999816 1.950002-.999816z" fill="url(#l)" opacity=".15"/><path d="m27.050011 29.000086v1.99989c.806614.0038 1.950002-.448074 1.950002-1.000074s-.900122-.999816-1.950002-.999816z" fill="url(#k)" opacity=".15"/></g><path d="m4.5.5c5.2704667 0 22.999972.001953 22.999972.001953l.000028 11.998047h-23v-11.99999553z" fill="url(#j)" stroke-width="1.06794"/><g fill="none" stroke-linejoin="round"><path d="m26.5 11.5h-21v-10h21z" stroke="url(#b)" stroke-linecap="round"/><path d="m4.499961.499944c5.27048 0 23.000054.002 23.000054.002l.000024 11.998112h-23.000078v-11.999956z" stroke="url(#n)" stroke-width=".999922"/></g><path d="m16.111279 16-4.5-5.5h9z" fill="url(#c)" stroke="#a62100" stroke-linecap="round" stroke-linejoin="round" stroke-opacity=".501961"/><g fill="none"><path d="m8 4.5h4" stroke="#c6262e"/><path d="m13 4.5h2.5" stroke="#f9c440"/><g stroke="#c6262e"><path d="m16.5 4.5h7.5"/><path d="m8 6.5h5"/><path d="m14 6.5h2.5"/></g><path d="m18.5 6.5h5.5" stroke="#f9c440"/><path d="m8 8.5h5" stroke="#c6262e"/><path d="m15 8.5h2.5" stroke="#f9c440"/><path d="m18.5 8.5h5.5" stroke="#c6262e"/><path d="m13.702847 11.5 2.408432 2.916106 2.388721-2.916106z" opacity=".5" stroke="url(#d)"/></g></svg>