<svg height="32" viewBox="0 0 8.4666665 8.4666669" width="32" xmlns="http://www.w3.org/2000/svg" xmlns:xlink="http://www.w3.org/1999/xlink"><linearGradient id="a" gradientTransform="matrix(.1551 0 0 .1428 .69 289.2)" gradientUnits="userSpaceOnUse" x1="23.306" x2="14.389" xlink:href="#b" y1="24.844" y2="9.59"/><linearGradient id="b"><stop offset="0" stop-color="#1f1f1f"/><stop offset="1" stop-color="#5c5c5c"/></linearGradient><linearGradient id="c" gradientUnits="userSpaceOnUse" x1="2" x2="30" xlink:href="#b" y1="16" y2="16"/><g transform="translate(0 -288.533)"><path d="m5.384 294.273h-2.338l-.403 1.01h-1.077l2.206-5.292h1l2.128 5.293h-1.125zm-2.06-.8h1.756l-.784-2.394z" style="stroke:#000;stroke-width:.265;stroke-linecap:round;stroke-linejoin:round;stroke-opacity:.56;fill:url(#a)"/><path d="m5 2c-1.662 0-3 1.338-3 3h1c0-1.108.892-2 2-2zm1 0v1h3v-1zm4 0v1h3v-1zm4 0v1h3v-1zm4 0v1h3v-1zm4 0v1h3v-1zm4 0v1h1c1.108 0 2 .892 2 2h1c0-1.662-1.338-3-3-3zm-24 4v3h1v-3zm27 0v3h1v-3zm-27 4v3h1v-3zm27 0v3h1v-3zm-27 4v3h1v-3zm27 0v3h1v-3zm-27 4v3h1v-3zm27 0v3h1v-3zm-27 4v3h1v-3zm27 0v3h1v-3zm-27 4v1c0 1.662 1.338 3 3 3v-1c-1.108 0-2-.892-2-2v-1zm27 0v1c0 1.108-.892 2-2 2h-1v1h1c1.662 0 3-1.338 3-3v-1zm-23 3v1h3v-1zm4 0v1h3v-1zm4 0v1h3v-1zm4 0v1h3v-1zm4 0v1h3v-1z" fill="url(#c)" opacity=".867" transform="matrix(.26458 0 0 .26458 0 288.533)"/><path id="d" d="m7.022 288.666h1.312v1.313h-1.312z" fill="#ffc27d" stroke="#a62100" stroke-opacity=".43" stroke-width=".265"/><use id="e" height="100%" transform="translate(0 6.89)" width="100%" xlink:href="#d"/><use id="f" height="100%" transform="translate(-6.89)" width="100%" xlink:href="#e"/><use height="100%" transform="translate(0 -6.89)" width="100%" xlink:href="#f"/><path d="m3.772 289.99-2.206 5.293h.11l2.096-5.027h1l2.022 5.027h.106l-2.127-5.292h-1zm-.34 3.483-.11.264h1.758l-.087-.264h-1.563z" fill="#fff" opacity=".1"/></g></svg>