<svg height="32" viewBox="0 0 8.4666665 8.4666669" width="32" xmlns="http://www.w3.org/2000/svg" xmlns:xlink="http://www.w3.org/1999/xlink"><linearGradient id="a" gradientUnits="userSpaceOnUse" x1="3.96875" x2="3.96875" y1="3.439583" y2="6.614584"><stop offset="0" stop-color="#9bdb4d"/><stop offset="1" stop-color="#68b723"/></linearGradient><linearGradient id="b" gradientTransform="matrix(-.26458332 0 0 .26458332 3.439584 3.43958)" gradientUnits="userSpaceOnUse" x1="3" x2="3.000003" xlink:href="#g" y1="2" y2="11.000013"/><linearGradient id="c"><stop offset="0" stop-color="#fff"/><stop offset=".00000001" stop-color="#fff" stop-opacity=".235294"/><stop offset=".5" stop-color="#fff" stop-opacity=".156863"/><stop offset="1" stop-color="#fff" stop-opacity=".392157"/></linearGradient><linearGradient id="d" gradientTransform="matrix(-.26458333 0 0 .26458333 6.614583 1.323332)" gradientUnits="userSpaceOnUse" x1="13.605469" x2="13" xlink:href="#c" y1="14.704696" y2="15.304965"/><linearGradient id="e" gradientUnits="userSpaceOnUse" x1="4.101042" x2="4.101042" y1="3.96875" y2="6.35"><stop offset="0" stop-color="#ffa154"/><stop offset="1" stop-color="#f37329"/></linearGradient><linearGradient id="f" gradientUnits="userSpaceOnUse" x1="5.18728" x2="5.027083" xlink:href="#c" y1="5.213949" y2="5.372771"/><linearGradient id="g" gradientTransform="matrix(-.26458333 0 0 .26458333 3.704167 3.439583)" gradientUnits="userSpaceOnUse" x1="3" x2="3" y1="2" y2="5.000003"><stop offset="0" stop-color="#fff"/><stop offset="0" stop-color="#fff" stop-opacity=".235"/><stop offset="1" stop-color="#fff" stop-opacity=".157"/><stop offset="1" stop-color="#fff" stop-opacity=".392"/></linearGradient><linearGradient id="h" gradientTransform="matrix(-.26458333 0 0 .26458333 3.704167 1.85208)" gradientUnits="userSpaceOnUse" x1="3" x2="3" xlink:href="#g" y1="2" y2="5.000003"/><linearGradient id="i" gradientTransform="matrix(-.26458333 0 0 .26458333 3.704167 .26458)" gradientUnits="userSpaceOnUse" x1="3" x2="3" xlink:href="#g" y1="2" y2="5.000003"/><linearGradient id="j" gradientTransform="matrix(-.26458333 0 0 .26458333 3.704167 5.02708)" gradientUnits="userSpaceOnUse" x1="3" x2="3" xlink:href="#g" y1="2" y2="5.000003"/><linearGradient id="k" gradientTransform="matrix(-.26458333 0 0 .26458333 3.704167 6.61458)" gradientUnits="userSpaceOnUse" x1="3" x2="3.000001" xlink:href="#g" y1="2" y2="4.000013"/><linearGradient id="l" gradientTransform="matrix(-.26458333 0 0 .26458333 5.55625 3.439583)" gradientUnits="userSpaceOnUse" x1="3" x2="3" xlink:href="#g" y1="2" y2="5.000003"/><linearGradient id="m" gradientTransform="matrix(-.26458333 0 0 .26458333 5.55625 1.85208)" gradientUnits="userSpaceOnUse" x1="3" x2="3" xlink:href="#g" y1="2" y2="5.000003"/><linearGradient id="n" gradientTransform="matrix(-.26458333 0 0 .26458333 5.55625 .26458)" gradientUnits="userSpaceOnUse" x1="3" x2="3" xlink:href="#g" y1="2" y2="5.000003"/><linearGradient id="o" gradientTransform="matrix(-.26458333 0 0 .26458333 5.55625 5.02708)" gradientUnits="userSpaceOnUse" x1="3" x2="3" xlink:href="#g" y1="2" y2="5.000003"/><linearGradient id="p" gradientTransform="matrix(-.26458333 0 0 .26458333 5.55625 6.61458)" gradientUnits="userSpaceOnUse" x1="3" x2="3.000001" xlink:href="#g" y1="2" y2="4.000013"/><linearGradient id="q" gradientTransform="matrix(-.26458333 0 0 .26458333 7.408334 3.439583)" gradientUnits="userSpaceOnUse" x1="3" x2="3" xlink:href="#g" y1="2" y2="5.000003"/><linearGradient id="r" gradientTransform="matrix(-.26458333 0 0 .26458333 7.408334 1.85208)" gradientUnits="userSpaceOnUse" x1="3" x2="3" xlink:href="#g" y1="2" y2="5.000003"/><linearGradient id="s" gradientTransform="matrix(-.26458333 0 0 .26458333 7.408334 .26458)" gradientUnits="userSpaceOnUse" x1="3" x2="3" xlink:href="#g" y1="2" y2="5.000003"/><linearGradient id="t" gradientTransform="matrix(-.26458333 0 0 .26458333 7.408334 5.02708)" gradientUnits="userSpaceOnUse" x1="3" x2="3" xlink:href="#g" y1="2" y2="5.000003"/><linearGradient id="u" gradientTransform="matrix(-.26458333 0 0 .26458333 7.408334 6.61458)" gradientUnits="userSpaceOnUse" x1="3" x2="3.000001" xlink:href="#g" y1="2" y2="4.000013"/><linearGradient id="v" gradientTransform="matrix(-.26458333 0 0 .26458333 1.852084 3.439583)" gradientUnits="userSpaceOnUse" x1="3" x2="3" xlink:href="#g" y1="2" y2="5.000003"/><linearGradient id="w" gradientTransform="matrix(-.26458333 0 0 .26458333 1.852084 1.85208)" gradientUnits="userSpaceOnUse" x1="3" x2="3" xlink:href="#g" y1="2" y2="5.000003"/><linearGradient id="x" gradientTransform="matrix(-.26458333 0 0 .26458333 1.852084 .26458)" gradientUnits="userSpaceOnUse" x1="3" x2="3" xlink:href="#g" y1="2" y2="5.000003"/><linearGradient id="y" gradientTransform="matrix(-.26458333 0 0 .26458333 1.852084 5.02708)" gradientUnits="userSpaceOnUse" x1="3" x2="3" xlink:href="#g" y1="2" y2="5.000003"/><linearGradient id="z" gradientTransform="matrix(-.26458333 0 0 .26458333 1.852084 6.61458)" gradientUnits="userSpaceOnUse" x1="3" x2="3.000001" xlink:href="#g" y1="2" y2="4.000013"/><linearGradient id="A" gradientTransform="matrix(.1573294 0 0 .1586627 -8.008007 -.016355)" gradientUnits="userSpaceOnUse" x1="24.833029" x2="24.833029" y1="2.604455" y2="51.798176"><stop offset="0" stop-color="#fafafa"/><stop offset="1" stop-color="#e2e1de"/></linearGradient><rect fill="url(#A)" height="7.672933" rx=".396875" ry=".396891" stroke-width="1.3333" transform="scale(-1 1)" width="7.14375" x="-7.805209" y=".396859"/><path d="m3.9980469 1c-1.1064402 0-1.9980469.8919999-1.9980469 2v26c0 1.108.8916067 2 1.9980469 2h24.0039061c1.10644 0 1.998047-.892 1.998047-2v-26c0-1.1080001-.891607-2-1.998047-2zm.5019531 1h3.4882812v5h-4.9882812v-3.5c0-.8310001.6690009-1.5 1.5-1.5zm4.4960938 0h5.9960942v5h-5.992188v.9707031h-.0039062zm7.0039062 0h5.998047v5h-5.998047zm7.005859 0h4.494141c.830999 0 1.5.6689999 1.5 1.5v3.5h-5.994141zm-14.005859 6h5.998047l.001953 5.001953h-5.9980469zm7.005859 0h5.996094l-.001953 5h-6zm7.003907 0h5.990234v5h-6zm-20.009766.0019531h4.9921875l.0019531 4.9999999h-4.9882812zm0 5.9980469 4.9941406.033203-.0019531 4.933594h-4.9882813v.033203h-.0039062zm6.0019531 0h5.9980469v5h-6zm6.9980469 0h6v5h-6zm7 0h6v5h-5.994141zm-14 6h6v5l-6-.007812zm7 0h6v5h-6zm13 0v4.996094h-5.996094v1.007812h5.996094v2.496094c0 .207749-.04148.404407-.117188.583984v.001954c-.227485.537838-.760176.914062-1.382812.914062h-4.5l.003906-9.992188zm-26 .001953h4.9921875v4.990235l-4.9921875.009765zm0 5.998047h5v4h-3.5c-.8309991 0-1.5-.669-1.5-1.5zm6 0h6v4h-6zm7 0 6 .007812-.007812 3.992188h-5.992188z" opacity=".3" transform="scale(.26458333)"/><g fill="none" stroke-width=".264583"><path d="m3.8364584 3.8364616h-1.3229165l-.0000002 1.0583307h1.3229167z" stroke="url(#g)"/><path d="m3.8364583 2.2489583h-1.3229165l-.0000002 1.0583307h1.3229167z" stroke="url(#h)"/><path d="m3.8364583.66145834h-1.3229165l-.0000002 1.05833066h1.3229167z" stroke="url(#i)"/><path d="m3.8364583 5.4239584h-1.3229165l-.0000002 1.0583307h1.3229167z" stroke="url(#j)"/><path d="m3.8364583 7.0114584h-1.3229165l-.0000002.79375h1.3229167z" stroke="url(#k)"/><path d="m5.6885416 3.8364616h-1.3229165l-.0000002 1.0583307h1.3229167z" stroke="url(#l)"/><path d="m5.6885415 2.2489583h-1.3229165l-.0000002 1.0583307h1.3229167z" stroke="url(#m)"/><path d="m5.6885415.66145834h-1.3229165l-.0000002 1.05833066h1.3229167z" stroke="url(#n)"/><path d="m5.6885415 5.4239584h-1.3229165l-.0000002 1.0583307h1.3229167z" stroke="url(#o)"/><path d="m5.6885415 7.0114584h-1.3229165l-.0000002.79375h1.3229167z" stroke="url(#p)"/><path d="m7.540625 3.8364616h-1.3229165l-.0000002 1.0583307h1.3229167z" stroke="url(#q)"/><path d="m7.5406249 2.2489583h-1.3229165l-.0000002 1.0583307h1.3229167z" stroke="url(#r)"/><path d="m7.5406249.66145834h-1.3229165l-.0000002 1.05833066h1.3229167z" stroke="url(#s)"/><path d="m7.5406249 5.4239584h-1.3229165l-.0000002 1.0583307h1.3229167z" stroke="url(#t)"/><path d="m7.5406249 7.0114584h-1.3229165l-.0000002.79375h1.3229167z" stroke="url(#u)"/><path d="m1.9843751 3.8364616h-1.05833333l-.0000002 1.0583307h1.05833353z" stroke="url(#v)"/><path d="m1.984375 2.2489583h-1.05833333l-.0000002 1.0583307h1.05833353z" stroke="url(#w)"/><path d="m1.984375.66145834h-1.05833333l-.0000002 1.05833066h1.05833353z" stroke="url(#x)"/><path d="m1.984375 5.4239584h-1.05833333l-.0000002 1.0583307h1.05833353z" stroke="url(#y)"/><path d="m1.984375 7.0114584h-1.05833333l-.0000002.79375h1.05833353z" stroke="url(#z)"/></g><path d="m2.2477082 3.5727083 3.7036231-.0008333.00179 3.175-3.7036232.0008308z" fill="url(#a)" stroke-width="2.074483"/><path d="m2.38 3.4399999c-.145 0-.263.118-.263.264v2.91c0 .1470001.118.2650001.264.2650001h3.44c.1470001 0 .265-.12.265-.2650001v-2.91c0-.147-.1179999-.265-.2639999-.265zm0 .264h3.4400001v2.91h-3.4400001z" fill="#206b00" fill-opacity=".501961"/><g stroke-width=".264583"><path d="m5.6885417 3.8364583h-3.175l-.0000002 2.6458306h3.1750002z" fill="none" opacity=".5" stroke="url(#b)"/><path d="m2.5135443 5.1593724 1.0583307-1.0583307v2.1166614zm3.174995-.0000001-1.0583308-1.0583307v2.1166614z" fill="url(#e)" stroke="#a62100" stroke-linecap="round" stroke-linejoin="round" stroke-opacity=".501961"/><g fill="none"><path d="m3.3072917 4.7414081-.4185791.4183823.4185791.4175277z" opacity=".5" stroke="url(#d)"/><path d="m4.8947917 4.7414081.4185791.4183823-.4185791.4175277z" opacity=".5" stroke="url(#f)"/></g></g></svg>