<svg height="32" width="32" xmlns="http://www.w3.org/2000/svg" xmlns:xlink="http://www.w3.org/1999/xlink"><linearGradient id="a" gradientTransform="matrix(.40540511 0 0 .51351351 2.269687 -.324319)" gradientUnits="userSpaceOnUse" x1="11" x2="11" y1="8" y2="22"><stop offset="0" stop-color="#fff"/><stop offset="0" stop-color="#fff" stop-opacity=".235294"/><stop offset=".78571427" stop-color="#fff" stop-opacity=".184314"/><stop offset=".78571427" stop-color="#fff" stop-opacity=".894737"/><stop offset=".85714287" stop-color="#fff" stop-opacity=".894737"/><stop offset=".85714287" stop-color="#fff" stop-opacity=".168627"/><stop offset="1" stop-color="#fff" stop-opacity=".156863"/><stop offset="1" stop-color="#fff" stop-opacity=".392157"/></linearGradient><linearGradient id="b" gradientTransform="matrix(.25378586 0 0 .30501865 -43.521986 -5.539135)" gradientUnits="userSpaceOnUse" x1="0" x2="0" y1="24" y2="6"><stop offset="0" stop-opacity=".339506"/><stop offset="1" stop-opacity=".246914"/></linearGradient><radialGradient id="c" cx="65.325" cy="48.709" gradientTransform="matrix(0 .68598 -.74626 0 60.288 -27.737)" gradientUnits="userSpaceOnUse" r="31"><stop offset="0" stop-color="#cdf87e"/><stop offset=".262" stop-color="#a2e34f"/><stop offset=".661" stop-color="#68b723"/><stop offset="1" stop-color="#1d7e0d"/></radialGradient><linearGradient id="d"><stop offset="0" stop-color="#fff"/><stop offset="0" stop-color="#fff" stop-opacity=".235"/><stop offset="1" stop-color="#fff" stop-opacity=".157"/><stop offset="1" stop-color="#fff" stop-opacity=".392"/></linearGradient><linearGradient id="e" gradientTransform="matrix(.4227 0 0 .38513 14.545 15.083)" gradientUnits="userSpaceOnUse" x1="24.139" x2="24.139" xlink:href="#d" y1="10.171" y2="36.136"/><linearGradient id="f" gradientTransform="matrix(.38833 0 0 .41842 15.3 14.318)" gradientUnits="userSpaceOnUse" x1="24.139" x2="24.139" xlink:href="#d" y1="20.749" y2="25.528"/><radialGradient id="g" cx="605.714" cy="486.648" gradientTransform="matrix(.01446 0 0 .00922 14.122 14.197)" gradientUnits="userSpaceOnUse" r="117.143" xlink:href="#h"/><linearGradient id="h"><stop offset="0"/><stop offset="1" stop-opacity="0"/></linearGradient><radialGradient id="i" cx="605.714" cy="486.648" gradientTransform="matrix(-.01446 0 0 .00922 11.15 14.197)" gradientUnits="userSpaceOnUse" r="117.143" xlink:href="#h"/><linearGradient id="j" gradientTransform="matrix(.04225 0 0 .00922 -2.635 14.197)" gradientUnits="userSpaceOnUse" x1="302.857" x2="302.857" y1="366.648" y2="609.505"><stop offset="0" stop-opacity="0"/><stop offset=".5"/><stop offset="1" stop-opacity="0"/></linearGradient><linearGradient id="k" gradientTransform="matrix(.68195 0 0 .68986 -.378 -4.963)" gradientUnits="userSpaceOnUse" x1="18.15089" x2="18.15089" y1="15.89163" y2="41.983879"><stop offset="0" stop-color="#fafafa"/><stop offset="1" stop-color="#d0d0d0"/></linearGradient><g opacity=".5" transform="translate(.000375 -.333619)"><path d="m2.435 17.58h20.4v2.24h-20.4z" fill="url(#j)" opacity=".402" transform="matrix(1.33333 0 0 1.78545 -.847 -9.054)"/><path d="m2.435 17.58v2.24c-.744.004-1.8-.502-1.8-1.12 0-.62.83-1.12 1.8-1.12z" fill="url(#i)" opacity=".402" transform="matrix(1.33333 0 0 1.78545 -.847 -9.054)"/><path d="m22.835 17.58v2.24c.745.004 1.8-.502 1.8-1.12 0-.62-.83-1.12-1.8-1.12z" fill="url(#g)" opacity=".402" transform="matrix(1.33333 0 0 1.78545 -.847 -9.054)"/></g><path d="m6 6.5c-1.31 0-2.5 1.161-2.5 2.5v9.5h-2.5c-.206 0-.5.293-.5.5v4c0 .21.295.5.5.5h30c.206 0 .5-.292.5-.5v-4c0-.207-.293-.500331-.5-.5l-2.498.004-.002-9.504c0-1.945-.651-2.5-2.5-2.5z" fill="url(#k)" fill-rule="evenodd" stroke="url(#b)" stroke-linejoin="round"/><path d="m6 7.5c-.754 0-1.5.662-1.5 1.5v10.5h-3v3h29v-3h-3l.009-10.51c-.026-.966-.305-1.502-1.49-1.502z" fill="none" opacity=".4" stroke="url(#a)" stroke-linecap="round"/><path d="m21.5 21.5v-4.02h5v4.02h4.007v5h-4.007v4.007h-5v-4.007h-4.007v-5z" fill="url(#c)"/><g fill="none"><path d="m22.5 23.003v-4.503h3v4.497m0 2.003v4.5h-3v-4.5" opacity=".5" stroke="url(#e)"/><path d="m26 22.512 3.5-.01v2.987l-3.5.01m-4 0-3.5-.01v-2.989l3.5.012" opacity=".5" stroke="url(#f)"/><path d="m21.5 21.5v-4.02h5v4.02h4.007v5h-4.007v4.007h-5v-4.007h-4.007v-5z" opacity=".5" stroke="#0f5a00" stroke-linecap="round" stroke-linejoin="round"/></g></svg>