<svg height="32" width="32" xmlns="http://www.w3.org/2000/svg" xmlns:xlink="http://www.w3.org/1999/xlink"><radialGradient id="a" cx="65.325" cy="48.709" gradientTransform="matrix(0 .68598 -.74626 0 60.288 -27.737)" gradientUnits="userSpaceOnUse" r="31"><stop offset="0" stop-color="#cdf87e"/><stop offset=".262" stop-color="#a2e34f"/><stop offset=".661" stop-color="#68b723"/><stop offset="1" stop-color="#1d7e0d"/></radialGradient><linearGradient id="b"><stop offset="0" stop-color="#fff"/><stop offset="0" stop-color="#fff" stop-opacity=".235"/><stop offset="1" stop-color="#fff" stop-opacity=".157"/><stop offset="1" stop-color="#fff" stop-opacity=".392"/></linearGradient><linearGradient id="c" gradientTransform="matrix(.4227 0 0 .38513 14.545 15.083)" gradientUnits="userSpaceOnUse" x1="24.139" x2="24.139" xlink:href="#b" y1="10.171" y2="36.136"/><linearGradient id="d" gradientTransform="matrix(.38833 0 0 .41842 15.3 14.318)" gradientUnits="userSpaceOnUse" x1="24.139" x2="24.139" xlink:href="#b" y1="20.749" y2="25.528"/><radialGradient id="e" cx="605.714" cy="486.648" gradientTransform="matrix(.01446 0 0 .00922 14.122 14.197)" gradientUnits="userSpaceOnUse" r="117.143" xlink:href="#f"/><linearGradient id="f"><stop offset="0"/><stop offset="1" stop-opacity="0"/></linearGradient><radialGradient id="g" cx="605.714" cy="486.648" gradientTransform="matrix(-.01446 0 0 .00922 11.15 14.197)" gradientUnits="userSpaceOnUse" r="117.143" xlink:href="#f"/><linearGradient id="h" gradientTransform="matrix(.04225 0 0 .00922 -2.635 14.197)" gradientUnits="userSpaceOnUse" x1="302.857" x2="302.857" y1="366.648" y2="609.505"><stop offset="0" stop-opacity="0"/><stop offset=".5"/><stop offset="1" stop-opacity="0"/></linearGradient><linearGradient id="i" gradientTransform="matrix(.68195 0 0 .68986 -.378 -4.963)" gradientUnits="userSpaceOnUse" x1="20.909" x2="20.909" y1="42.125" y2="17.249"><stop offset="0" stop-color="#fafafa"/><stop offset="1" stop-color="#d0d0d0"/></linearGradient><linearGradient id="j" gradientTransform="matrix(.65147 0 0 .53256 .347 .714)" gradientUnits="userSpaceOnUse" x1="28.98" x2="29.268" y1="22.101" y2="45.015"><stop offset="0" stop-color="#fff"/><stop offset="1" stop-color="#fff" stop-opacity="0"/></linearGradient><g opacity=".5"><path d="m2.435 17.58h20.4v2.24h-20.4z" fill="url(#h)" opacity=".402" transform="matrix(1.33333 0 0 1.78545 -.847 -9.054)"/><path d="m2.435 17.58v2.24c-.744.004-1.8-.502-1.8-1.12 0-.62.83-1.12 1.8-1.12z" fill="url(#g)" opacity=".402" transform="matrix(1.33333 0 0 1.78545 -.847 -9.054)"/><path d="m22.835 17.58v2.24c.745.004 1.8-.502 1.8-1.12 0-.62-.83-1.12-1.8-1.12z" fill="url(#e)" opacity=".402" transform="matrix(1.33333 0 0 1.78545 -.847 -9.054)"/></g><path d="m5.882 6.62c-1.31 0-2.382 1.103-2.382 2.442l-.014 9.43-2.62.007c-.206 0-.362.18-.362.387v4.216c0 .21.155.388.36.388l30.25.005c.206 0 .383-.18.383-.388l.002-4.216c0-.207-.178-.387-.385-.387h-2.612l.02-9.323c0-1.945-.818-2.667-2.667-2.667z" fill="url(#i)" fill-rule="evenodd" stroke="#a9aba7" stroke-linejoin="round"/><path d="m5.974 7.45c-.754 0-1.462.785-1.462 1.623v10.582l-2.98-.062.216 2.866 28.716.083-.075-2.888h-2.88v-10.664c-.026-.966-.305-1.502-1.49-1.502z" fill="none" opacity=".4" stroke="url(#j)" stroke-linecap="round"/><path d="m21.5 21.5v-4.02h5v4.02h4.007v5h-4.007v4.007h-5v-4.007h-4.007v-5z" fill="url(#a)"/><g fill="none"><path d="m22.5 23.003v-4.503h3v4.497m0 2.003v4.5h-3v-4.5" opacity=".5" stroke="url(#c)"/><path d="m26 22.512 3.5-.01v2.987l-3.5.01m-4 0-3.5-.01v-2.989l3.5.012" opacity=".5" stroke="url(#d)"/><path d="m21.5 21.5v-4.02h5v4.02h4.007v5h-4.007v4.007h-5v-4.007h-4.007v-5z" opacity=".5" stroke="#0f5a00" stroke-linecap="round" stroke-linejoin="round"/></g></svg>