<svg height="32" width="32" xmlns="http://www.w3.org/2000/svg" xmlns:xlink="http://www.w3.org/1999/xlink"><linearGradient id="a" gradientUnits="userSpaceOnUse" x1="2.640143" x2="2.640143" y1="7.914451" y2="2.679685"><stop offset="0"/><stop offset="1" stop-color="#333"/></linearGradient><linearGradient id="b" gradientUnits="userSpaceOnUse" x1="14" x2="6" y1="8" y2="16"><stop offset="0" stop-color="#fff"/><stop offset=".125" stop-color="#fff" stop-opacity="0"/><stop offset="1" stop-color="#fff" stop-opacity="0"/></linearGradient><clipPath id="c"><path d="m8 2.6855469v14.0000001l3.132812-3.820313 2.066407 4.986328a1.0001 1.0001 0 1 0 1.847656-.765624l-2.111328-5.095704 4.378906.009766z"/></clipPath><linearGradient id="d"><stop offset="0" stop-color="#fff"/><stop offset=".508" stop-color="#fff" stop-opacity=".235"/><stop offset=".835" stop-color="#fff" stop-opacity=".157"/><stop offset="1" stop-color="#fff" stop-opacity=".392"/></linearGradient><linearGradient id="e" gradientTransform="matrix(.6757 0 0 .6757 -32.47 -1.133)" gradientUnits="userSpaceOnUse" x1="71.204" x2="71.204" xlink:href="#d" y1="6.238" y2="44.341"/><linearGradient id="f" gradientTransform="matrix(.3514 0 0 -.3514 -9.204 24.91)" gradientUnits="userSpaceOnUse" x1="71.204" x2="71.204" xlink:href="#d" y1="6.238" y2="44.341"/><radialGradient id="g" cx="23.896" cy="3.99" gradientTransform="matrix(0 .645 -.8514 0 19.397 -5.326)" gradientUnits="userSpaceOnUse" r="20.397"><stop offset="0" stop-color="#ff8c82"/><stop offset=".262" stop-color="#ed5353"/><stop offset=".661" stop-color="#c6262e"/><stop offset="1" stop-color="#a10705"/></radialGradient><linearGradient id="h" gradientUnits="userSpaceOnUse" x1="11.427183" x2="11.427183" y1="10.347065" y2="21.777241"><stop offset="0" stop-color="#7a0000"/><stop offset="1" stop-color="#a10705"/></linearGradient><linearGradient id="i" gradientTransform="matrix(.6757 0 0 .6757 -32.47 -1.133)" gradientUnits="userSpaceOnUse" x1="71.204" x2="71.204" xlink:href="#e" y1="6.238" y2="44.341"/><radialGradient id="j" cx="23.896" cy="3.99" gradientTransform="matrix(0 1.5836 -2.0903 0 24.34 -36.357)" gradientUnits="userSpaceOnUse" r="20.397"><stop offset="0" stop-color="#fff"/><stop offset=".262" stop-color="#ddd"/><stop offset=".661" stop-color="#abacae"/><stop offset="1" stop-color="#89898b"/></radialGradient><linearGradient id="k" gradientUnits="userSpaceOnUse" x1="12.270467" x2="12.270467" y1="29.92023" y2="2.120907"><stop offset="0" stop-color="#505050"/><stop offset="1" stop-color="#aaa"/></linearGradient><radialGradient id="l" cx="62.625" cy="4.625" gradientTransform="matrix(1.506 0 0 .3765 -78.306 26.26)" gradientUnits="userSpaceOnUse" r="10.625"><stop offset="0"/><stop offset="1" stop-opacity="0"/></radialGradient><linearGradient id="m" gradientTransform="matrix(.2432 0 0 .2432 -1.45 9.832)" gradientUnits="userSpaceOnUse" x1="71.204" x2="71.204" xlink:href="#e" y1="6.238" y2="44.341"/><linearGradient id="n" gradientUnits="userSpaceOnUse" x1="68.313" x2="68.313" y1="52.925" y2="65.922"><stop offset="0" stop-color="#fff"/><stop offset="1" stop-color="#fff" stop-opacity="0"/></linearGradient><path d="m32 28c0 2.21-7.163 4-16 4s-16-1.79-16-4 7.163-4 16-4 16 1.79 16 4z" fill="url(#l)" fill-rule="evenodd" opacity=".3"/><g stroke-linecap="round" stroke-linejoin="round"><path d="m16 2.502c-7.448 0-13.498 6.05-13.498 13.498s6.05 13.498 13.498 13.498 13.498-6.05 13.498-13.498-6.05-13.498-13.498-13.498z" fill="url(#j)" stroke="url(#k)" stroke-width="1.004"/><path d="m28.5 16c0 6.903-5.597 12.5-12.5 12.5-6.904 0-12.5-5.597-12.5-12.5 0-6.904 5.596-12.5 12.5-12.5 6.903 0 12.5 5.596 12.5 12.5z" fill="none" opacity=".8" stroke="url(#i)"/><path d="m16 10.502c-3.034 0-5.498 2.465-5.498 5.498s2.464 5.498 5.498 5.498 5.498-2.464 5.498-5.498-2.464-5.498-5.498-5.498z" fill="url(#g)" stroke="url(#h)" stroke-width="1.004"/><g fill="none"><path d="m22.5 16c0-3.59-2.91-6.5-6.5-6.5s-6.5 2.91-6.5 6.5 2.91 6.5 6.5 6.5 6.5-2.91 6.5-6.5z" opacity=".5" stroke="url(#f)"/><path d="m20.5 16c0 2.485-2.015 4.5-4.5 4.5s-4.5-2.015-4.5-4.5 2.015-4.5 4.5-4.5 4.5 2.015 4.5 4.5z" opacity=".5" stroke="url(#m)"/></g></g><path d="m78.34 64.35a11.424 11.424 0 1 1 -22.85 0 11.424 11.424 0 1 1 22.85 0z" fill="url(#n)" opacity=".4" transform="matrix(.2626 0 0 .2626 -1.57 -1.898)"/><g transform="matrix(3.7795276 0 0 3.7795276 11.000001 2)"><g fill-rule="evenodd" stroke="#000" stroke-linejoin="round" transform="matrix(.26458333 0 0 .26458333 0 2.116667)"><path d="m8.9892474 4.784611v13.849462l3.0991256-3.779234 2.044188 4.932711a.98934621.98934621 0 1 0 1.827789-.757391l-2.088626-5.040912 4.331821.0097z" opacity=".02" stroke-width="6"/><path d="m8.9892474 4.784611v13.849462l3.0991256-3.779234 2.044188 4.932711a.98934621.98934621 0 1 0 1.827789-.757391l-2.088626-5.040912 4.331821.0097z" opacity=".2" stroke-width="2"/><path d="m8.9892474 4.784611v13.849462l3.0991256-3.779234 2.044188 4.932711a.98934621.98934621 0 1 0 1.827789-.757391l-2.088626-5.040912 4.331821.0097z" opacity=".05" stroke-width="4"/></g><path d="m2.1166666 3.1208571v3.664337l.8199771-.9999226.5408581 1.3051131a.26176451.26176451 0 1 0 .4836022-.200393l-.5526153-1.333741 1.1461274.00257z" fill="none" stroke="#fff" stroke-width=".529167"/><path d="m2.1166666 3.1208571v3.664337l.8199771-.9999226.5408581 1.3051131a.26176451.26176451 0 1 0 .4836022-.200393l-.5526153-1.333741 1.1461274.00257z" fill="url(#a)" fill-rule="evenodd" stroke-width=".264583"/><path clip-path="url(#c)" d="m8 2.6855469v14.0000001l3.132812-3.820313 2.066407 4.986328a1.0001 1.0001 0 1 0 1.847656-.765624l-2.111328-5.095704 4.378906.009766z" fill="none" opacity=".4" stroke="url(#b)" stroke-width="2.695652" transform="matrix(.26173834 0 0 .26173834 .02276 2.417947)"/></g></svg>