<svg height="32" width="32" xmlns="http://www.w3.org/2000/svg" xmlns:xlink="http://www.w3.org/1999/xlink"><linearGradient id="a" gradientTransform="matrix(.27962 0 0 -.26116 5.022 18.693)" gradientUnits="userSpaceOnUse" x1="11.847877" x2="42.312206" xlink:href="#g" y1="16.298841" y2="24.346369"/><linearGradient id="b" gradientTransform="matrix(0 .30606 .3277 0 5.52 4.564)" gradientUnits="userSpaceOnUse" x1="28.454912" x2="25.171413" xlink:href="#h" y1="8.895973" y2="24.657894"/><linearGradient id="c" gradientTransform="matrix(.27962 0 0 -.26116 5.022 18.693)" gradientUnits="userSpaceOnUse" x1="39.639721" x2="9.625615" xlink:href="#g" y1="21.165831" y2="16.972157"/><linearGradient id="d" gradientTransform="matrix(0 .30606 .3277 0 5.52 4.564)" gradientUnits="userSpaceOnUse" x1="31.718447" x2="35.233509" xlink:href="#h" y1="29.832645" y2="10.093064"/><linearGradient id="e" gradientTransform="matrix(.56756757 0 0 .72972971 2.378382 -2.513506)" gradientUnits="userSpaceOnUse" x1="15.055304" x2="15.582322" y1="7.83605" y2="24.327217"><stop offset="0" stop-color="#fff"/><stop offset=".55661798" stop-color="#fff" stop-opacity=".235294"/><stop offset=".95056331" stop-color="#fff" stop-opacity=".156863"/><stop offset="1" stop-color="#fff" stop-opacity=".392157"/></linearGradient><linearGradient id="f" gradientTransform="matrix(.53064141 0 0 .58970049 39.269607 -1.791918)" gradientUnits="userSpaceOnUse" x1="8.295454" x2="16.891001" y1="4.550825" y2="13.5"><stop offset="0" stop-opacity=".317829"/><stop offset="1" stop-opacity=".24031"/></linearGradient><linearGradient id="g" gradientTransform="matrix(.27962 0 0 -.26116 5.022 18.693)" gradientUnits="userSpaceOnUse" x1="25.469" x2="25.469" y1="32.841" y2="2.724"><stop offset="0" stop-color="#cdf87e"/><stop offset=".262" stop-color="#a2e34f"/><stop offset=".661" stop-color="#68b723"/><stop offset="1" stop-color="#1d7e0d"/></linearGradient><linearGradient id="h" gradientTransform="matrix(0 .30606 .3277 0 5.52 4.564)" gradientUnits="userSpaceOnUse" x1="20.797" x2="37.474" y1="20.649" y2="20.649"><stop offset="0" stop-color="#fff"/><stop offset=".51516932" stop-color="#fff" stop-opacity=".235"/><stop offset=".585" stop-color="#fff" stop-opacity=".157"/><stop offset="1" stop-color="#fff" stop-opacity=".392"/></linearGradient><linearGradient id="i" gradientTransform="matrix(-.27368568 .27368568 -.22570848 -.22570848 21.144824 11.609527)" gradientUnits="userSpaceOnUse" x1="22.483271" x2="21.955" y1="1.46401" y2="44.667439"><stop offset="0" stop-color="#eeeeec"/><stop offset="1" stop-color="#e0e0de"/></linearGradient><g stroke-width=".75"><path d="m3.484 8.484h13.032v10.032h-13.032z" fill="url(#i)" stroke="url(#f)" stroke-linecap="round" stroke-linejoin="round" transform="matrix(-.94280668 -.94280668 .94280668 -.94280668 13.026168 38.525615)"/><path d="m17.453 25.654a.407.407 0 0 0 .574 0l7.583-7.583a.407.407 0 0 0 0-.573l-10.41-10.413a.407.407 0 0 0 -.575 0l-7.583 7.583a.407.407 0 0 0 0 .575l10.41 10.41z" fill="none" stroke="url(#e)" stroke-width=".999997"/></g><g transform="matrix(.93969262 -.34202014 -.34202014 -.93969262 -7.343136 39.056346)"><path d="m9.303 8.59c-3.55 2.404-1.418 7.017 2.2 7.017v1.91l5-3.57-5-3.34v2c-2.553.1-3.67-2.34-1.844-4.018z" display="block" fill="url(#a)" transform="matrix(-.19156354 -1.3179509 1.3179509 -.19156354 27.032456 37.33136)"/><g fill="none"><path d="m8.62 9.833c-1.252 1.47-.124 5.31 3.883 4.785v.99l2.33-1.66-2.33-1.51v.79c-4.397.236-4.256-2.8-3.882-3.395z" display="block" opacity=".8" stroke="url(#b)" stroke-miterlimit="7" stroke-width=".751" transform="matrix(-.19156354 -1.3179509 1.3179509 -.19156354 27.032456 37.33136)"/><path d="m36.57 23.425c3.85 4.22 9.52.525 8.828-4.243l2.52-.366-5.666-5.906-3.443 7.23 2.635-.384c.62 3.345-2.382 5.283-4.943 3.2z" opacity=".5" stroke="#0f5a00" stroke-linecap="round" stroke-linejoin="round" stroke-width="1.000182"/></g></g><g transform="matrix(.93969262 -.34202014 -.34202014 -.93969262 20.441582 35.382777)"><path d="m9.303 8.59c-3.55 2.404-1.418 7.017 2.2 7.017v1.91l5-3.57-5-3.34v2c-2.553.1-3.67-2.34-1.844-4.018z" display="block" fill="url(#c)" transform="matrix(.25281213 1.3091428 -1.3091428 .25281213 4.418655 -4.507591)"/><g fill="none"><path d="m8.5996094 9.6289062c-.052318.00515-.1006136.030346-.1347656.070313-1.3761262 1.6157388-.1074147 5.4723748 3.8359372 5.1191398v.789063l-.03436.416744.354668-.250726 2.328125-1.660157c.116791-.08286.113728-.257231-.0059-.335937l-2.328085-1.509766-.343609-.232543.02916.402465v.582031c-2.000877.060622-2.93991-.571626-3.3515612-1.279299-.2131065-.366352-.2922011-.761198-.2949219-1.095703s.0836307-.617512.1386719-.7050779c.0836162-.1351167-.0129807-.3096498-.171875-.3105469h-.00195c-.00651-.0003126-.013024-.0003126-.019531 0z" style="display:block;opacity:.8;stroke-width:.750002;stroke-linecap:square;stroke-miterlimit:7;stroke:url(#d)" transform="matrix(.25281213 1.3091428 -1.3091428 .25281213 4.418655 -4.507591)"/><path d="m-4.474 9.842c-4.046-4.04-9.546-.08-8.63 4.655l-2.503.483 5.94 5.643 3.107-7.39-2.618.505c-.775-3.316 2.136-5.393 4.794-3.43z" opacity=".5" stroke="#0f5a00" stroke-linecap="round" stroke-linejoin="round" stroke-width=".999998"/></g></g></svg>