<svg height="32" width="32" xmlns="http://www.w3.org/2000/svg"><path d="m15.747 8.072 4.292-4.46c.75-.707 2.573-1.505 4.49-.255l3.592 3.632m-24.449 13.598 4.292-4.458c.75-.71 2.574-1.508 4.49-.258m-7.504 8.546 2.124 2.25c1.647 1.53 3.008 1.355 4.453.234.287-.222 3-3.4 3.37-3.643m5.35-8.298c1.397.405 2.05.69 3.495-.432.287-.223 3-3.402 3.37-3.644" fill="none" opacity=".4" stroke="#fff" stroke-linecap="round" stroke-width=".999997"/><path d="m22.537 2c-1.383 0-2.55.485-3.5 1.457l-3.533 3.553c-.95.95-1.426 2.11-1.426 3.482 0 1.407.504 2.602 1.512 3.586l2.332 2.332c.984 1.008 2.174 1.512 3.568 1.512 1.373 0 2.538-.482 3.5-1.443l3.57-3.568c.958-.96 1.44-2.127 1.44-3.5 0-1.372-.486-2.535-1.46-3.484l-2.52-2.504c-.95-.949-2.11-1.423-3.482-1.423zm0 3.293c.446 0 .835.156 1.166.465l2.522 2.504c.32.32.48.704.48 1.15 0 .458-.16.846-.48 1.166l-3.57 3.568c-.306.31-.695.463-1.165.463-.48 0-.892-.178-1.234-.532l-2.334-2.334c-.378-.354-.567-.77-.567-1.252 0-.457.16-.846.48-1.166l3.536-3.553c.32-.32.708-.48 1.167-.48zm-12.027 8.785c-1.373 0-2.54.48-3.5 1.442l-3.57 3.568c-.96.96-1.44 2.127-1.44 3.5 0 1.372.487 2.533 1.46 3.484l2.52 2.504c.95.95 2.11 1.424 3.483 1.424 1.384 0 2.55-.486 3.5-1.457l3.535-3.555c.95-.948 1.424-2.108 1.424-3.48 0-1.408-.504-2.602-1.51-3.586l-2.334-2.334c-.984-1.006-2.172-1.51-3.568-1.51zm0 3.295c1.74.516 3.636 2.448 4.135 4.135 0 .457-.16.845-.48 1.166l-3.534 3.55c-.308.31-.698.465-1.167.465-.458 0-.846-.15-1.166-.448l-2.522-2.506c-.32-.32-.48-.702-.48-1.148 0-.46.16-.847.48-1.168l3.57-3.568c.32-.32.707-.48 1.165-.48z" fill="#d3d7cf" stroke="#000" stroke-opacity=".427"/></svg>