<svg height="32" width="32.000004" xmlns="http://www.w3.org/2000/svg" xmlns:xlink="http://www.w3.org/1999/xlink"><radialGradient id="a" cx="99.156998" cy="186.17101" gradientTransform="matrix(.10025 0 0 .0319 14.328001 24.094)" gradientUnits="userSpaceOnUse" r="62.769001"><stop offset="0" stop-color="#3d3d3d"/><stop offset=".5" stop-color="#686868" stop-opacity=".498"/><stop offset="1" stop-color="#686868" stop-opacity="0"/></radialGradient><linearGradient id="b" gradientTransform="matrix(.66762 0 0 .49907 -1376.31 -1590.258)" gradientUnits="userSpaceOnUse" x1="2094.8989" x2="2094.8989" y1="3215.689" y2="3249.04"><stop offset="0" stop-color="#64baff"/><stop offset="1" stop-color="#3689e6"/></linearGradient><linearGradient id="c" gradientTransform="matrix(.60953 0 0 .6116 9.688 1.02)" gradientUnits="userSpaceOnUse" x1="30.194" x2="26.541" y1="27.546" y2="33.269001"><stop offset="0" stop-color="#fff"/><stop offset="0" stop-color="#fff" stop-opacity=".235"/><stop offset=".539" stop-color="#fff" stop-opacity=".157"/><stop offset="1" stop-color="#fff" stop-opacity=".392"/></linearGradient><linearGradient id="d" gradientTransform="matrix(.72448 0 0 .72458 29.91 1.457)" gradientUnits="userSpaceOnUse" x1="-6.388" x2="-6.388" y1="22.461" y2="39.830002"><stop offset="0" stop-color="#fff"/><stop offset=".5" stop-color="#fff" stop-opacity=".235"/><stop offset=".75" stop-color="#fff" stop-opacity=".157"/><stop offset="1" stop-color="#fff" stop-opacity=".392"/></linearGradient><linearGradient id="e" gradientTransform="matrix(.47357 0 0 .47262 27.965 9.305)" gradientUnits="userSpaceOnUse" x1="-2.85" x2="-2.85" y1="39.618" y2="22.673"><stop offset="0" stop-color="#fff"/><stop offset=".429" stop-color="#fff" stop-opacity=".235"/><stop offset=".75" stop-color="#fff" stop-opacity=".157"/><stop offset="1" stop-color="#fff" stop-opacity=".392"/></linearGradient><filter id="f" color-interpolation-filters="sRGB" height="1.090767" width="1.013828" x="-.006914" y="-.045383"><feGaussianBlur stdDeviation=".029150602"/></filter><linearGradient id="g"><stop offset="0" stop-color="#737373"/><stop offset=".26238" stop-color="#636363"/><stop offset=".704952" stop-color="#4b4b4b"/><stop offset="1" stop-color="#3f3f3f"/></linearGradient><radialGradient id="h" cx="9.72272" cy="-91.022446" gradientTransform="matrix(-3.7910092 -.00000022 .0000002 -3.3609145 50.296794 -313.85665)" gradientUnits="userSpaceOnUse" r="7" xlink:href="#g"/><radialGradient id="i" cx="-1.473815" cy="-42.064499" gradientTransform="matrix(-1.3567669 .00000019 -.00000007 -2.1857141 10.474057 -91.012398)" gradientUnits="userSpaceOnUse" r="10" xlink:href="#g"/><radialGradient id="j" cx="11.284193" cy="-2.343429" gradientTransform="matrix(-8.6734192 -.00000046 .0000005 -9.529287 109.91325 -25.099575)" gradientUnits="userSpaceOnUse" r="2" xlink:href="#g"/><g transform="matrix(1.33333 0 0 1.33333 1.000039 2.000036)"><path d="m16.624988 8.124544c-.0021-.2690776-.288334-.499541-.625-.499541h-8.7499998c-.336666 0-.6271077.2304633-.625.499541l.00392.5004411c.00211.2690779.288334.499541.625.499541.0014.0041 8.7499998 0 8.7499998 0 .336666 0 .627107-.2304632.625-.499541z" fill="#fff" filter="url(#f)" opacity=".35"/><path d="m7.1249883 7.124991v.7734428.00195c3.0000007-.00999 6.0000007-.015401 8.9999997-.025391v-.7500018z" fill="none" stroke="url(#i)" stroke-linecap="round" stroke-linejoin="round" stroke-width=".750002"/><path d="m20.611395 4.1249835c0-.2691161-.403658-.4995969-.87498-.4995969h-12.1114471c-.4713219 0-.8749806.2304808-.8749806.4995969v.7500019c0 .2691161.4036587.4995969.8749806.4995969.00196.0041 12.1114481 0 12.1114481 0 .471322 0 .87498-.2304808.87498-.4995969z" fill="#fff" opacity=".35"/><g fill="none" stroke-linecap="round" stroke-linejoin="round" stroke-width=".750002"><path d="m7.1249882 3.3749337-.0000001.7734398v.002c4.3333339-.01 9.1667009-.01539 13.5000339-.02539v-.7500018h-13.5000338z" stroke="url(#h)"/><g stroke="#000"><path d="m7.1249883 7.124991.0000117.7734332v.00195c3.000001-.00999 6.000001-.015401 9-.025391l-.000012-.7499922z" opacity=".1"/><path d="m7.1249883 3.3749817.0000109.7460652v.00195c4.3333338-.00999 9.1667018-.015401 13.5000338-.025391l-.000011-.7226242z" opacity=".1"/></g></g><path d="m21.000023 12.125812c0-.269116-.403658-.499597-.87498-.499597h-12.5000751c-.4713219 0-.8749806.230481-.8749806.499597v.624193c0 .269116.4036587.499597.8749806.499597.00196.0041 12.5000751 0 12.5000751 0 .471322 0 .87498-.230481.87498-.499597z" fill="#fff" opacity=".35"/><path d="m7.1249883 11.124951v.735356.514697c4.3333337-.01 9.1667007-.01539 13.5000337-.02539v-1.474615h-13.5000337z" style="fill:#f37329;stroke:#cc3b02;stroke-width:.750002;stroke-linecap:round;stroke-linejoin:round;stroke-opacity:.666667"/><circle cx="3.5" cy="5.5" fill="#fff" opacity=".35" r="1.5"/><circle cx="3.5" cy="4.499981" fill="url(#j)" r="1.5"/><circle cx="3.5" cy="13.5" fill="#fff" opacity=".35" r="1.5"/><circle cx="3.5" cy="12.374999" fill="#f37329" r="1.5" stroke="#cc3b02" stroke-opacity=".668605" stroke-width=".750002"/><path d="m17 16.499555c0-.269086-.288334-.499541-.625-.499541h-8.7499999c-.336666 0-.625.230455-.625.499541v.999082c0 .269086.288334.499541.625.499541.0014.0041 8.7499999 0 8.7499999 0 .336666 0 .625-.230455.625-.499541z" fill="#fff" opacity=".35"/><path d="m7.1249883 15.625014.0000227.760744v.514647c3.000001-.01 6.000001-.0154 9-.02539l-.000023-1.500003h-8.9999997z" style="fill:#f37329;stroke:#cc3b02;stroke-width:.750002;stroke-linecap:round;stroke-linejoin:round;stroke-opacity:.666667"/></g><path d="m30.56 30.032a6.293 2.002 0 1 1 -12.583999 0 6.293 2.002 0 1 1 12.584999 0z" fill="url(#a)"/><path d="m24.554001 14.586v2.3a7.15 7.15 0 0 0 -.286-.012 7.15 7.15 0 0 0 -7.15 7.15 7.15 7.15 0 0 0 7.15 7.152 7.15 7.15 0 0 0 7.139999-6.865h-3.436a3.718 3.718 0 0 1 -3.703999 3.433 3.718 3.718 0 0 1 -3.718-3.718 3.718 3.718 0 0 1 3.718-3.718 3.718 3.718 0 0 1 .286.014v2.275l6.292999-4.005z" fill="url(#b)" opacity=".99"/><g fill="none"><path d="m25.125 17.782v-2.17l4.65 2.986-4.65 2.94v-2.023" opacity=".5" stroke="url(#c)"/><path d="m30.744 25.203a6.582 6.58 0 0 1 -7.442 5.33 6.582 6.58 0 0 1 -5.57-7.262 6.582 6.58 0 0 1 7.078-5.803" opacity=".5" stroke="url(#d)"/><path d="m31.063 24.885-2.613-.004c-.325 2.24-2.77 3.78-4.975 3.362-2.323-.44-3.854-2.668-3.428-4.99.413-2.255 2.527-3.777 4.785-3.483" opacity=".5" stroke="url(#e)"/><path d="m24.554 14.586v2.3a7.15 7.15 0 0 0 -.286-.012 7.15 7.15 0 0 0 -7.15 7.15 7.15 7.15 0 0 0 7.15 7.152 7.15 7.15 0 0 0 7.14-6.865h-3.436a3.718 3.718 0 0 1 -3.704 3.433 3.718 3.718 0 0 1 -3.718-3.718 3.718 3.718 0 0 1 3.718-3.718 3.718 3.718 0 0 1 .286.014v2.275l6.293-4.005z" opacity=".5" stroke="#002e99" stroke-linecap="round" stroke-linejoin="round"/></g></svg>