<svg height="32" viewBox="0 0 8.4666665 8.4666669" width="32" xmlns="http://www.w3.org/2000/svg" xmlns:xlink="http://www.w3.org/1999/xlink"><radialGradient id="a" cx="1.851743" cy="292.77209" gradientTransform="matrix(-.00000228 1.5121835 -1.6066932 -.00000242 472.24668 289.97165)" gradientUnits="userSpaceOnUse" r="2.799494"><stop offset="0" stop-color="#737373"/><stop offset=".26238" stop-color="#636363"/><stop offset=".70495" stop-color="#4b4b4b"/><stop offset="1" stop-color="#3f3f3f"/></radialGradient><linearGradient id="b" gradientUnits="userSpaceOnUse" x1="2" x2="30" y1="16" y2="16"><stop offset="0" stop-color="#1f1f1f"/><stop offset="1" stop-color="#5c5c5c"/></linearGradient><g transform="translate(0 -288.533)"><path d="m5 2c-1.662 0-3 1.338-3 3h1c0-1.108.892-2 2-2zm1 0v1h3v-1zm4 0v1h3v-1zm4 0v1h3v-1zm4 0v1h3v-1zm4 0v1h3v-1zm4 0v1h1c1.108 0 2 .892 2 2h1c0-1.662-1.338-3-3-3zm-24 4v3h1v-3zm27 0v3h1v-3zm-27 4v3h1v-3zm27 0v3h1v-3zm-27 4v3h1v-3zm27 0v3h1v-3zm-27 4v3h1v-3zm27 0v3h1v-3zm-27 4v3h1v-3zm27 0v3h1v-3zm-27 4v1c0 1.662 1.338 3 3 3v-1c-1.108 0-2-.892-2-2v-1zm27 0v1c0 1.108-.892 2-2 2h-1v1h1c1.662 0 3-1.338 3-3v-1zm-23 3v1h3v-1zm4 0v1h3v-1zm4 0v1h3v-1zm4 0v1h3v-1zm4 0v1h3v-1z" fill="url(#b)" opacity=".867" transform="matrix(.26458 0 0 .26458 0 288.533)"/><path id="c" d="m7.0114584 288.66529 1.3225416.00071.000375 1.32221h-1.3229166z" fill="#ffc27d" stroke="#a62100" stroke-opacity=".43" stroke-width=".265"/><use id="d" height="100%" transform="translate(0 6.89)" width="100%" xlink:href="#c"/><use id="e" height="100%" transform="translate(-6.879167 -.010832)" width="100%" xlink:href="#d"/><use height="100%" transform="translate(.000208 -6.878887)" width="100%" xlink:href="#e"/><g transform="matrix(0 1 -1 0 297.004459 288.533341)"><path d="m5.384 294.273h-2.338l-.403 1.01h-1.077l2.206-5.292h1l2.128 5.293h-1.125zm-2.06-.8h1.756l-.784-2.394z" style="stroke:#000;stroke-width:.265;stroke-linecap:round;stroke-linejoin:round;stroke-opacity:.56;fill:url(#a)"/><path d="m6.5058594 5.9199219v1.5l20.0019526 8.3378901v-1.5zm13.8437496 10.9882811-7.001953 2.292969v1.5l9.046875-2.962891zm-10.02539 3.441406-3.8222659 1.478516v1.5l3.8222659-1.478516z" fill="#fff" opacity=".1" transform="matrix(0 -.26458333 .26458333 0 -.000341 297.00446)"/></g></g></svg>