<svg height="32" viewBox="0 0 32 32" width="32" xmlns="http://www.w3.org/2000/svg" xmlns:xlink="http://www.w3.org/1999/xlink"><linearGradient id="a" gradientUnits="userSpaceOnUse" x1="17.423726" x2="17.694912" y1="-6.644011" y2="28.338953"><stop offset="0" stop-color="#737373"/><stop offset=".262" stop-color="#636363"/><stop offset=".705" stop-color="#4b4b4b"/><stop offset="1" stop-color="#3f3f3f"/></linearGradient><path d="m27.226153 14.747732q0 2.049163-.632459 3.756799-.63246 1.707637-1.787385 2.661067-1.154925.953428-2.681078.953428-1.017434 0-1.814883-.49806-.783699-.512292-1.113679-1.337647h-.219986q-.673706.853817-1.636144 1.351878-.962439.483829-2.144861.483829-2.433595 0-3.836004-1.508411-1.4024104-1.522643-1.4024104-4.141016 0-2.974131 1.8148834-4.824071 1.828631-1.8499379 4.839689-1.8499379 1.113678 0 2.571084.2276849 1.457406.213454 2.378597.554981l-.316229 6.958615q0 1.992243 1.044931 1.992243.879943 0 1.402411-1.32342.522465-1.337647.522465-3.48642 0-2.291078-.921189-4.041406-.907442-1.7645559-2.584835-2.6895249-1.663641-.939199-3.822253-.939199-2.763573 0-4.82594 1.195343-2.0623669 1.195345-3.1485471 3.4152719-1.0861801 2.219926-1.0861801 5.122906 0 3.941791 2.0211199 6.047875 2.0348693 2.091856 5.8846223 2.091856 1.5399 0 3.299786-.355759 1.759886-.355756 3.341036-.96766v2.746446q-2.914813 1.280729-6.530829 1.280729-5.224665 0-8.1532266-2.846059-2.9148126-2.846059-2.9148126-7.912046 0-3.514883 1.4986537-6.389403 1.5124029-2.8745189 4.2759755-4.4825429 2.763572-1.6222533 6.310842-1.6222533 3.024808 0 5.403404 1.2807262 2.378596 1.2807271 3.671015 3.6429562 1.292416 2.3622288 1.292416 5.4502018zm-14.079095 1.778788q0 3.002594 2.364847 3.002594 1.223673 0 1.869882-.89651.659957-.91074.797448-2.959902l.178739-3.144895q-.63246-.142303-1.581148-.142303-1.718641 0-2.681079 1.109962-.948689 1.109963-.948689 3.031054z" fill="url(#a)" stroke="#000" stroke-opacity=".490196"/></svg>