<svg height="32" viewBox="0 0 8.4666665 8.4666668" width="32" xmlns="http://www.w3.org/2000/svg" xmlns:xlink="http://www.w3.org/1999/xlink"><linearGradient id="a" gradientUnits="userSpaceOnUse" x1=".416094" x2="5.924111" y1="289.364563" y2="297.462797"><stop offset="0" stop-color="#cdf87e"/><stop offset=".26238" stop-color="#a2e34f"/><stop offset=".66093999" stop-color="#68b723"/><stop offset="1" stop-color="#1d7e0d"/></linearGradient><linearGradient id="b" gradientTransform="matrix(0 -.27278 .3079 0 -.187 297.176)" gradientUnits="userSpaceOnUse" x1="11.001" x2="11.001" xlink:href="#d" y1="2.269" y2="19.728"/><linearGradient id="c" gradientTransform="matrix(.27278 0 0 .3079 -.107 290.402)" gradientUnits="userSpaceOnUse" x1="11.001" x2="11.001" xlink:href="#d" y1="2.269" y2="19.728"/><linearGradient id="d"><stop offset="0" stop-color="#fff"/><stop offset=".063" stop-color="#fff" stop-opacity=".235"/><stop offset=".951" stop-color="#fff" stop-opacity=".157"/><stop offset="1" stop-color="#fff" stop-opacity=".392"/></linearGradient><linearGradient id="e" gradientTransform="matrix(.1323 0 0 .06615 -.265 291.444)" gradientUnits="userSpaceOnUse" x1="23.954" x2="23.954" y1="15.999" y2="19.963"><stop offset="0"/><stop offset="1" stop-opacity="0"/></linearGradient><linearGradient id="f" gradientTransform="matrix(.1347 0 0 .14642 -.198 290.374)" gradientUnits="userSpaceOnUse" x1="24" x2="24" xlink:href="#d" y1="5" y2="43"/><linearGradient id="g" gradientTransform="matrix(.11794 0 0 .11905 .212 290.644)" gradientUnits="userSpaceOnUse" x1="25.132" x2="25.132" y1="15.5" y2="48.396"><stop offset="0" stop-color="#fafafa"/><stop offset="1" stop-color="#e2e1de"/></linearGradient><g transform="matrix(1.33333 0 0 1.33333 .176 -387.532)"><rect fill="url(#g)" height="5.556" rx=".198" width="5.159" x=".463" y="291.047"/><path d="m.74556704 290.967c-.15190921 0-.27440186.12254-.27440186.2744v.85008s-.0224223 3.0918-.0224223 4.23699c-.00000003.1519.10231507.2753.25422172.2744h.950977v-4.36564h3.9687599v-.98237c0-.15191-.122493-.2744-.2744017-.2744z" fill="url(#a)" stroke-width=".264583"/><g fill="none" stroke-linecap="round" stroke-width=".201"><path d="m.56 291.14.002 1.002 4.975.01v-1.002z" opacity=".5" stroke="url(#c)" stroke-linejoin="round"/><path d="m.55 296.51 1.003-.003.03-5.358h-1z" opacity=".5" stroke="url(#b)" stroke-linejoin="round"/><path d="m.36 296.384c0 .152.183.316.335.316h.846l.013-5.74h-.854c-.15 0-.333.144-.333.296z" opacity=".4" stroke="#126400"/><path d="m.543 291.18h4.983l.017 5.555h-4.983z" stroke="url(#f)" stroke-linejoin="round"/></g><path d="m.265 292.436h5.555v.198h-5.554z" fill="url(#e)" opacity=".15"/><path d="m.364 292.24-.005 4.143c0 .152.153.317.305.317h4.746c.152 0 .307-.166.308-.318l.004-4.145" fill="none" stroke="#37393b" stroke-opacity=".49" stroke-width=".201"/><path d="m1.456 292.435h.2v4.167h-.2zm1.39 0h.2v4.167h-.2zm1.388 0h.2v4.167h-.2zm-3.77.794h.992v.196h-.992z" opacity=".321"/><path d="m1.654 293.23h1.19v.198h-1.19zm1.39 0h1.19v.198h-1.19zm1.388 0h1.19v.198h-1.19zm-2.778 1.19h1.19v.2h-1.19zm1.39 0h1.19v.2h-1.19zm1.388 0h1.19v.2h-1.19zm-2.778 1.19h1.19v.2h-1.19zm1.39 0h1.19v.2h-1.19zm1.388 0h1.19v.2h-1.19z" opacity=".321"/><path d="m3 12.996094v1.007812h5.9960938v-1.007812zm.0039062 6.003906v1.007812h5.9960938v-1.007812zm0 5.996094v1.007812h5.9960938v-1.007812z" fill="#126400" opacity=".4" stroke-width="5.039358" transform="matrix(.198438 0 0 .198438 -.132 290.64973)"/><path d="m1.455 291.047h.2v1.19h-.2zm1.39 0h.2v1.19h-.2zm1.388 0h.2v1.19h-.2z" fill="#126400" opacity=".5"/><path d="m.68 290.948c-.152 0-.316.184-.316.336v1.048l5.357.004v-1.055c0-.15-.142-.33-.294-.33z" fill="none" stroke="#077200" stroke-linecap="round" stroke-opacity=".49" stroke-width=".201"/></g></svg>