<svg height="32" viewBox="0 0 8.4666665 8.4666669" width="32" xmlns="http://www.w3.org/2000/svg" xmlns:xlink="http://www.w3.org/1999/xlink"><linearGradient id="a" gradientUnits="userSpaceOnUse" x1="13" x2="13" xlink:href="#b" y1="60" y2="38"/><linearGradient id="b"><stop offset="0" stop-color="#555"/><stop offset="1" stop-color="#666"/></linearGradient><linearGradient id="c" gradientUnits="userSpaceOnUse" x1="13" x2="13" xlink:href="#b" y1="54" y2="32"/><linearGradient id="d" gradientUnits="userSpaceOnUse" x1="13" x2="13" xlink:href="#b" y1="48" y2="26"/><linearGradient id="e" gradientUnits="userSpaceOnUse" x1="13" x2="13" xlink:href="#b" y1="42" y2="20"/><linearGradient id="f" gradientTransform="matrix(0 -.1047 .11324 0 1.694 8.177)" gradientUnits="userSpaceOnUse" x1="38.941" x2="20.576" y1="15.991" y2="15.991"><stop offset="0" stop-color="#fff"/><stop offset=".512" stop-color="#fff" stop-opacity=".235"/><stop offset=".585" stop-color="#fff" stop-opacity=".157"/><stop offset="1" stop-color="#fff" stop-opacity=".392"/></linearGradient><linearGradient id="g" gradientTransform="matrix(-.10378 0 0 -.09674 8.709 7.716333)" gradientUnits="userSpaceOnUse" x1="27.974" x2="27.974" y1="36.128" y2="-1.184"><stop offset="0" stop-color="#d1ff82"/><stop offset=".262" stop-color="#9bdb4d"/><stop offset=".661" stop-color="#68b723"/><stop offset="1" stop-color="#3a9104"/></linearGradient><radialGradient id="h" cx="24.837" cy="36.421" gradientTransform="matrix(.10147 0 0 -.06765 4.092 9.362333)" gradientUnits="userSpaceOnUse" r="15.645"><stop offset="0"/><stop offset="1" stop-opacity="0"/></radialGradient><g transform="matrix(.26458333 0 0 .26458333 -.264583 -6.085417)"><path d="m2.5 46.5v3h9v-3z" fill="url(#a)"/><path d="m2.5 46.5v3h9v-3z" fill="none" opacity=".61" stroke="#000" stroke-linejoin="round"/><path d="m3 47v2h1v-1h7v-1z" fill="#fff" opacity=".2"/><path d="m2.5 40.5v3h13v-3z" fill="url(#c)"/><path d="m2.5 40.5v3h13v-3z" fill="none" opacity=".61" stroke="#000" stroke-linejoin="round"/><path d="m3 41v2h1v-1h11v-1z" fill="#fff" opacity=".2"/><path d="m2.5 34.5v3h22v-3z" fill="url(#d)"/><path d="m2.5 34.5v3h22v-3z" fill="none" opacity=".61" stroke="#000" stroke-linejoin="round"/><path d="m3 35v2h1v-1h20v-1z" fill="#fff" opacity=".2"/><path d="m2.5 28.5v3h29v-3z" fill="url(#e)"/><path d="m2.5 28.5v3h29v-3z" fill="none" opacity=".61" stroke="#000" stroke-linejoin="round"/><path d="m3 29v2h1v-1h27v-1z" fill="#fff" opacity=".2"/></g><path d="m8.2 6.8983334a1.5875 1.0583333 0 1 0 -3.175 0 1.587 1.058 0 0 0 3.174 0z" fill="url(#h)" fill-rule="evenodd" opacity=".141"/><path d="m7.12 3.9733334c1.318.89.543 2.527-.926 2.514v.792l-1.852-1.321 1.852-1.323v.787c.947.037 1.47-.827.794-1.45z" display="block" fill="url(#g)"/><g fill="none" transform="translate(0 1.058333)"><path d="m2.613 3.376c-.465.545-.06 1.967 1.427 1.772l.017.582 1.156-.83-1.156-.81v.544c-1.632.087-1.583-1.038-1.444-1.258z" display="block" opacity=".5" stroke="url(#f)" stroke-miterlimit="7" stroke-width=".255" transform="matrix(-1 0 0 1 9.986 0)"/><path d="m7.12 2.915c1.318.89.543 2.527-.926 2.514v.792l-1.852-1.321 1.852-1.323v.787c.947.037 1.47-.827.794-1.45z" opacity=".5" stroke="#206b00" stroke-linecap="round" stroke-linejoin="round" stroke-width=".265"/></g></svg>