<?xml version="1.0" encoding="UTF-8" standalone="no"?>
<svg
   xmlns:dc="http://purl.org/dc/elements/1.1/"
   xmlns:cc="http://creativecommons.org/ns#"
   xmlns:rdf="http://www.w3.org/1999/02/22-rdf-syntax-ns#"
   xmlns:svg="http://www.w3.org/2000/svg"
   xmlns="http://www.w3.org/2000/svg"
   xmlns:sodipodi="http://sodipodi.sourceforge.net/DTD/sodipodi-0.dtd"
   xmlns:inkscape="http://www.inkscape.org/namespaces/inkscape"
   height="32"
   viewBox="0 0 8.4666665 8.4666669"
   width="32"
   version="1.1"
   id="svg1191"
   sodipodi:docname="wrapcontour.svg"
   inkscape:version="0.92.3 (unknown)"
   inkscape:export-filename="/home/rizmut/Documents/Rizmut/Github/libreoffice-style-elementary/images_elementary/cmd/32/wrapthrough.png"
   inkscape:export-xdpi="96"
   inkscape:export-ydpi="96">
  <metadata
     id="metadata1197">
    <rdf:RDF>
      <cc:Work
         rdf:about="">
        <dc:format>image/svg+xml</dc:format>
        <dc:type
           rdf:resource="http://purl.org/dc/dcmitype/StillImage" />
        <dc:title></dc:title>
      </cc:Work>
    </rdf:RDF>
  </metadata>
  <defs
     id="defs1195">
    <linearGradient
       id="d"
       gradientTransform="matrix(0.39850607,0,0,0.4269723,0.99195645,2.844603)"
       gradientUnits="userSpaceOnUse"
       x1="6.7329144"
       x2="11.780465"
       y1="0.96986985"
       y2="6.0204782">
      <stop
         offset="0"
         stop-color="#cd9ef7"
         id="stop2066" />
      <stop
         offset="1"
         stop-color="#a56de2"
         id="stop2068" />
    </linearGradient>
  </defs>
  <sodipodi:namedview
     pagecolor="#ffffff"
     bordercolor="#666666"
     borderopacity="1"
     objecttolerance="10"
     gridtolerance="10"
     guidetolerance="10"
     inkscape:pageopacity="0"
     inkscape:pageshadow="2"
     inkscape:window-width="1366"
     inkscape:window-height="706"
     id="namedview1193"
     showgrid="true"
     inkscape:zoom="8"
     inkscape:cx="21.188176"
     inkscape:cy="20.768141"
     inkscape:window-x="0"
     inkscape:window-y="0"
     inkscape:window-maximized="1"
     inkscape:current-layer="svg1191"
     inkscape:snap-global="true">
    <inkscape:grid
       type="xygrid"
       id="grid1742" />
  </sodipodi:namedview>
  <linearGradient
     id="a"
     gradientUnits="userSpaceOnUse"
     x1="3.96875"
     x2="7.9375"
     y1="290.12082"
     y2="290.12082">
    <stop
       offset="0"
       stop-color="#737373"
       id="stop1152" />
    <stop
       offset=".26238"
       stop-color="#636363"
       id="stop1154" />
    <stop
       offset=".704952"
       stop-color="#4b4b4b"
       id="stop1156" />
    <stop
       offset="1"
       stop-color="#3f3f3f"
       id="stop1158" />
  </linearGradient>
  <g
     id="g3308"
     transform="matrix(0.71523068,0.71523068,-0.71523068,0.71523068,5.8935468,-2.0110627)">
    <path
       sodipodi:nodetypes="ccccc"
       id="path2071"
       d="m 3.1132279,2.8436384 2.7734714,-9.762e-4 0.00224,2.7759096 -2.7734725,9.763e-4 z"
       style="fill:url(#d);stroke:#7239b3;stroke-width:0.26164195;stroke-linecap:round;stroke-linejoin:round;stroke-miterlimit:4;stroke-dasharray:none;stroke-opacity:0.75"
       inkscape:connector-curvature="0" />
    <path
       sodipodi:nodetypes="ccc"
       id="path2073"
       d="M 3.3800009,5.4880377 3.3729547,3.0971645 5.735158,3.1260279"
       style="opacity:0.3;fill:none;stroke:#ffffff;stroke-width:0.26617086"
       inkscape:connector-curvature="0" />
  </g>
  <g
     transform="matrix(1.8666667,0,0,1,-6.879167,-285.88748)"
     id="g1165">
    <path
       d="m 5.3861608,290.12081 -1.4174107,0 -10e-8,0.52917 1.4174108,0 z"
       id="path1161"
       inkscape:connector-curvature="0"
       style="opacity:0.35;fill:#ffffff;stroke-width:0.30818799"
       sodipodi:nodetypes="ccccc" />
    <path
       d="m 3.96875,289.85623 1.4174108,0 v 0.52917 l -1.4174108,0 z"
       id="path1163"
       inkscape:connector-curvature="0"
       style="fill:url(#a)"
       sodipodi:nodetypes="ccccc" />
  </g>
  <g
     transform="matrix(1.8666667,0,0,1,-6.879167,-284.56456)"
     id="g1171">
    <path
       d="m 5.811384,290.1213 -1.8426339,0 v 0.52868 l 1.8426339,0 z"
       id="path1167"
       inkscape:connector-curvature="0"
       style="opacity:0.35;fill:#ffffff;stroke-width:0.30818799"
       sodipodi:nodetypes="ccccc" />
    <path
       d="m 3.96875,289.85623 1.8426339,0 v 0.52917 l -1.8426339,0 z"
       id="path1169"
       inkscape:connector-curvature="0"
       style="fill:url(#a)"
       sodipodi:nodetypes="ccccc" />
  </g>
  <g
     transform="matrix(1.8666667,0,0,1,-6.879167,-288.53332)"
     id="g1177">
    <path
       d="m 7.9375,290.25329 c 0,-0.0712 -0.2070112,-0.13217 -0.4487234,-0.13217 H 4.4979167 c -0.2417118,0 -0.5291667,0.061 -0.5291667,0.13217 v 0.26434 c 0,0.0712 0.2874549,0.13217 0.5291667,0.13217 0.00101,10e-4 2.9908599,0 2.9908599,0 0.2417122,0 0.4487234,-0.061 0.4487234,-0.13217 z"
       id="path1173"
       inkscape:connector-curvature="0"
       style="opacity:0.35;fill:#ffffff;stroke-width:0.30818799" />
    <path
       d="M 3.96875,289.85623 H 7.9375 v 0.52917 H 3.96875 Z"
       id="path1175"
       inkscape:connector-curvature="0"
       style="fill:url(#a)" />
  </g>
  <g
     transform="matrix(1.8666667,0,0,1,-6.879167,-287.2104)"
     id="g1183">
    <path
       d="m 5.811384,290.25329 -1.842634,0 v 0.39669 l 1.842634,0 z"
       id="path1179"
       inkscape:connector-curvature="0"
       style="opacity:0.35;fill:#ffffff;stroke-width:0.30818799"
       sodipodi:nodetypes="ccccc" />
    <path
       d="m 3.96875,289.85623 1.842634,0 v 0.52917 l -1.842634,0 z"
       id="path1181"
       inkscape:connector-curvature="0"
       style="fill:url(#a)"
       sodipodi:nodetypes="ccccc" />
  </g>
  <g
     transform="matrix(1.8666667 0 0 1 -6.879167 -283.241647)"
     id="g1189">
    <path
       d="m7.9375 290.25329c0-.0712-.2070112-.13217-.4487234-.13217h-2.9908599c-.2417118 0-.5291667.061-.5291667.13217v.26434c0 .0712.2874549.13217.5291667.13217.00101.001 2.9908599 0 2.9908599 0 .2417122 0 .4487234-.061.4487234-.13217z"
       id="path1185"
       stroke-width=".308188"
       fill="#fff"
       opacity=".35" />
    <path
       d="m3.96875 289.85623h3.96875v.52917h-3.96875z"
       id="path1187"
       fill="url(#a)" />
  </g>
</svg>
