<svg xmlns="http://www.w3.org/2000/svg" width="32" height="32"><linearGradient id="a" gradientTransform="matrix(.4772 -.47953 .53385 .5312 -13.703 4.758)" gradientUnits="userSpaceOnUse" x1="23.576" x2="23.576" y1="25.357" y2="31.211"><stop offset="0" stop-color="#1f1f1f"/><stop offset="1" stop-color="#5c5c5c"/></linearGradient><g stroke-width=".397"><path d="M5.156 12.872c.324-.243 1.233.213 2.07 1.045.832.83 1.272 1.717 1.034 2.044 0 .002.02.02.02.02L19.914 4.29c.296-.297-.163-1.235-1.025-2.093-.862-.858-1.803-1.313-2.098-1.016z" opacity=".8" fill="url(#a)" stroke="#0c0c0c" stroke-linejoin="round" transform="translate(.828 3.056) scale(1.33333)"/><path d="M21.323 6.53c.432-.323 1.645.285 2.76 1.394 1.11 1.106 1.696 2.29 1.38 2.726-.002 0 .027.024.025.026l1.894-1.903.04-.04s-.03-.023-.027-.025c.316-.436-.27-1.62-1.38-2.726-1.115-1.108-2.327-1.717-2.76-1.392l-.038.038-1.894 1.903z" opacity=".8" fill="#b186e1" stroke="#a570db" stroke-linejoin="round" stroke-width=".52933201"/><path d="M4.73 27.276l7.057-2.88.06-.06c.317-.436-.276-1.62-1.388-2.725-1.115-1.108-2.326-1.713-2.758-1.39z" fill="#fcaf3e" fill-rule="evenodd" stroke="#ce5c00" stroke-width=".52933201"/><path d="M5.534 25.365l-.806 1.903 1.926-.79c-.155-.184-.297-.372-.482-.556-.214-.212-.423-.384-.638-.557z" fill="#535353" fill-rule="evenodd" stroke="#535353" stroke-width=".52933201"/></g></svg>