<svg height="32" width="32" xmlns="http://www.w3.org/2000/svg" xmlns:xlink="http://www.w3.org/1999/xlink"><linearGradient id="a" gradientTransform="matrix(.92294504 0 0 .92334344 4.803484 13.249181)" gradientUnits="userSpaceOnUse" x1="7.704372" x2="7.704372" y1="-1.026171" y2="15.219138"><stop offset="0" stop-color="#6c6c6c" stop-opacity=".7"/><stop offset="1" stop-color="#c1c1c1"/></linearGradient><linearGradient id="b" gradientTransform="matrix(.92294504 0 0 .92334344 4.88843 13.946376)" gradientUnits="userSpaceOnUse" x1="9.872277" x2="9.872277" xlink:href="#c" y1="15.22011" y2="-2.10822"/><linearGradient id="c" gradientUnits="userSpaceOnUse" x1="9.872277" x2="9.872277" y1="15.22011" y2="-2.10822"><stop offset="0" stop-color="#fff"/><stop offset="1" stop-color="#fff" stop-opacity="0"/></linearGradient><linearGradient id="d" gradientTransform="matrix(.92294504 0 0 .92334344 4.802625 14.248284)" gradientUnits="userSpaceOnUse" x1="9.872277" x2="9.872277" xlink:href="#c" y1="15.22011" y2="-2.10822"/><linearGradient id="e"><stop offset="0"/><stop offset="1" stop-opacity="0"/></linearGradient><radialGradient id="f" cx="605.714" cy="486.648" gradientTransform="matrix(.01687 0 0 .01153 17.734 23.973)" gradientUnits="userSpaceOnUse" r="117.143" xlink:href="#e"/><radialGradient id="g" cx="605.714" cy="486.648" gradientTransform="matrix(-.01687 0 0 .01153 14.266 23.973)" gradientUnits="userSpaceOnUse" r="117.143" xlink:href="#e"/><linearGradient id="h" gradientTransform="matrix(.0493 0 0 .01153 -1.815 23.973)" gradientUnits="userSpaceOnUse" x1="302.857" x2="302.857" y1="366.648" y2="609.505"><stop offset="0" stop-opacity="0"/><stop offset=".5"/><stop offset="1" stop-opacity="0"/></linearGradient><linearGradient id="i" gradientUnits="userSpaceOnUse" x1="22.353438" x2="22.353438" y1="1.705188" y2="27.11725"><stop offset="0" stop-color="#f4f4f4"/><stop offset="1" stop-color="#dbdbdb"/></linearGradient><linearGradient id="j" gradientUnits="userSpaceOnUse" x1="16.0002" x2="16.0002" y1="34.33417" y2="2.66627"><stop offset="0" stop-color="#fff" stop-opacity=".502"/><stop offset="1" stop-color="#fff" stop-opacity="0"/></linearGradient><linearGradient id="k" gradientUnits="userSpaceOnUse" x1="15.885593" x2="15.885593" xlink:href="#e" y1="23.402542" y2="12.902542"/><path d="m4.1 28.2h23.8v2.8h-23.8z" fill="url(#h)" opacity=".15"/><path d="m4.1 28.2v2.8c-.87.005-2.1-.627-2.1-1.4s.97-1.4 2.1-1.4z" fill="url(#g)" opacity=".15"/><path d="m27.9 28.2v2.8c.87.005 2.1-.627 2.1-1.4s-.97-1.4-2.1-1.4z" fill="url(#f)" opacity=".15"/><rect fill="url(#i)" height="27" rx="4.154" width="27" x="2.5" y="2.5"/><g fill="none"><rect height="27" opacity=".3" rx="4.154" stroke="#000" width="27" x="2.5" y="2.5"/><rect height="25" rx="3.846" stroke="url(#j)" width="25" x="3.5" y="3.5"/><g stroke-miterlimit="0" transform="matrix(1.33333 0 0 1.33333 .000612 -11.331242)"><path d="m6.3756673 20.376599 7.4979687-.01271.01907 6.488827-7.4979689.01271z" stroke="url(#d)" stroke-width=".750002"/><path d="m17.536811 18.689675a3.2303085 3.2317035 0 1 1 -6.460617 0 3.2303085 3.2317035 0 1 1 6.460617 0z" stroke="url(#b)" stroke-linejoin="round" stroke-width=".923144"/><g stroke="url(#a)" stroke-width=".750002"><path d="m6.3765263 19.377496 7.4979687-.01271.0064 6.768489-7.4979688.01271z"/><path d="m17.451865 17.992481c0 4.308936-6.460617 4.308936-6.460617 0s6.460617-4.308936 6.460617 0z" stroke-linejoin="round"/></g></g></g><path d="m22.885593 14.402543v4h-13.9999998v-4z" fill="url(#k)" opacity=".05" stroke-miterlimit="0"/></svg>