<svg viewBox="0 0 24 24" xmlns="http://www.w3.org/2000/svg" xmlns:xlink="http://www.w3.org/1999/xlink"><linearGradient id="a" gradientUnits="userSpaceOnUse" x1="11" x2="11" y1="7" y2="21"><stop offset="0" stop-color="#68caf8"/><stop offset=".5" stop-color="#70cef9"/><stop offset=".71428573" stop-color="#79d3fb"/><stop offset=".9285714" stop-color="#67c1ed"/><stop offset="1" stop-color="#67bfea"/></linearGradient><g fill-rule="evenodd" transform="translate(1.021484)"><path d="m6.9785156 4.5c.265199.0000511.519519.1054326.707031.2929688l3.7070314 1.7070312h8.085938c.552261.0000552 1.021429.4477381 1.021484 1l-.02148 13h-1-17.0000004-.978516l-.021484-11v-4c.000055-.5522619.447738-.9999448 1-1z" fill="#94ddff" stroke="#2bbcff"/><path d="m1.4785156 20.5h1 17.0644534.935547l.021484-11c-.021484-.5.298232-.9921291-.744141-.992188l-16.7666402-.0009478c-1.0211864-.0000577-1.2541689.0003958-1.5126567.9911818z" fill="url(#a)" stroke="#15b0f5"/><g fill="#3bc1f1"><path d="m1.4368875 19.000786-.4583719-.000786v.5l.460325.000834h19.0039064c.132308-.0017 1.023959.01237.535769-.000834v-.5l-.537722.000786z"/><path d="m.9785156 20 .0136715.5059h.4550781 19.1640628l.367188-.0059-.0293-.500041-.503906.002h-19.16406z"/></g></g><circle cx="5.504662" cy="6.496187" fill="#2a9240" r="4.496188"/><circle cx="5.500514" cy="6.500514" fill="#32d74b" r="3.499808"/><g fill="#fff"><rect height="5" rx=".42437" ry=".5" width="1" x="5" y="4"/><rect height="1" rx=".5" ry=".407563" width="5" x="3" y="6"/></g></svg>