<svg viewBox="0 0 24 24" xmlns="http://www.w3.org/2000/svg" xmlns:xlink="http://www.w3.org/1999/xlink"><linearGradient id="a" gradientUnits="userSpaceOnUse" x1="-20.694916" x2="-20.694916" y1="10.220339" y2="3.220339"><stop offset="0" stop-color="#0040dd"/><stop offset="1" stop-color="#0a84ff"/></linearGradient><linearGradient id="b"><stop offset="0" stop-opacity="0"/><stop offset=".19762035" stop-opacity=".886275"/><stop offset=".32936725" stop-opacity=".987151"/><stop offset=".50611204"/><stop offset=".67075688"/><stop offset=".80245411" stop-opacity=".839216"/><stop offset="1" stop-opacity="0"/></linearGradient><linearGradient id="c"><stop offset="0" stop-color="#fff" stop-opacity="0"/><stop offset=".25042552" stop-color="#fff" stop-opacity=".997055"/><stop offset=".48660195" stop-color="#fff"/><stop offset=".72244954" stop-color="#fff" stop-opacity=".990049"/><stop offset="1" stop-color="#fff" stop-opacity=".024082"/></linearGradient><linearGradient id="d" gradientUnits="userSpaceOnUse" x1="12" x2="12" y1="20" y2="9"><stop offset="0" stop-color="#60c0f0"/><stop offset="1" stop-color="#83d4fb"/></linearGradient><filter id="e" color-interpolation-filters="sRGB" height="1.273927" width="1.15066" x="-.07533" y="-.136964"><feGaussianBlur stdDeviation=".62775"/></filter><linearGradient id="f" gradientTransform="matrix(.52570404 0 0 .58385838 -249.16059 -99.373981)" gradientUnits="userSpaceOnUse" x1="501.53809" x2="501.53809" xlink:href="#b" y1="201.88797" y2="201.0316"/><linearGradient id="g" gradientUnits="userSpaceOnUse" x1="9.288336" x2="9.288336" xlink:href="#c" y1="17.965574" y2="17.593726"/><clipPath id="h"><path d="m2.5 4c-.8224467.0000822-1.4999181.6775532-1.5 1.5v2.2265625 10.8417965.705079c0 .956242.7703197 1.726562 1.7265625 1.726562h16.5468755c.956242 0 1.726562-.77032 1.726562-1.726562v-11.5468755c0-.9562428-.77032-1.7265625-1.726562-1.7265625h-8.652344c-.6964875 0-1.189639-.5359546-1.689639-1.0359546-.7135427-.9089088-1.003572-.8847452-1.931455-.9640454z"/></clipPath><linearGradient id="i" gradientTransform="matrix(.52570404 0 0 .58385838 -249.16223 -97.856973)" gradientUnits="userSpaceOnUse" x1="501.53809" x2="501.53809" xlink:href="#b" y1="201.88797" y2="201.0316"/><linearGradient id="j" gradientUnits="userSpaceOnUse" x1="8.286696" x2="8.286696" xlink:href="#c" y1="19.482582" y2="19.110734"/><filter id="k" color-interpolation-filters="sRGB" height="1.094553" width="1.097492" x="-.048746" y="-.047277"><feGaussianBlur stdDeviation=".36559322"/></filter><g fill-rule="evenodd"><path d="m3.5 3c-.8224467.0000822-1.4999181.6775532-1.5 1.5v2.5 11.568359.705079c0 .956242.7703197 1.726562 1.7265625 1.726562h16.5468755c.956242 0 1.726562-.77032 1.726562-1.726562v-12.5468755c0-.9562428-.77032-1.7265625-1.726562-1.7265625h-8.652344c-.696488 0-1.189639-.5359546-1.689639-1.0359546-.7135427-.9089088-1.003572-.8847452-1.931455-.9640454z" fill="#46a2d7"/><rect clip-path="url(#h)" fill="#3f4e60" filter="url(#e)" height="12" rx="1.72607" transform="translate(1)" width="20" x="1" y="7"/><path d="m3 18.940678h18v2.559322h-18z" filter="url(#k)" opacity=".15" stroke-width="1.015418"/><path d="m6.0195312 3v.0195312h-2.7070312c-.7345436.0944384-1.3124245.7221105-1.3125 1.4804688v2.5.9804688h4.0195312v.3945312l.0390626-.2753906c-.1865997.6388963.1228097 1.3884914.7050781 1.7109375.5822683.3224461 1.3797391.1866233 1.8222656-.3105469l2.9179685-2.9199219-.097656.0839844c.492794-.377516.638462-1.0802889.455078-1.6640625h-.240234c-.696488 0-1.189453-.5351562-1.6894534-1.0351562-.7135427-.9089088-1.0037576-.8855436-1.9316406-.9648438z" fill="#fff" fill-opacity=".784314"/><path d="m7.494141 1.9902336a.50005.50005 0 0 0 -.494141.574219v1.435547h-6.5c-.277 0-.5.223-.5.5v.998047 1.001953c0 .277.223.5.5.5h6.5v1.3750004a.50005.50005 0 0 0 .853516.472656l2.957031-2.9609374a.50005.50005 0 0 0 -.0039-.796875l-2.953125-2.949219a.50005.50005 0 0 0 -.359375-.150391z" fill="url(#a)"/><rect fill="#459fd2" height="13" rx="1.72607" width="20" x="2" y="8"/><rect fill="url(#d)" height="11" rx=".996867" ry="1" width="18" x="3" y="9"/><path d="m2.0068137 17.982992-.001642.517008h19.9948283l.0016-.517008z" fill="url(#f)" opacity=".091389"/><path d="m2.0051717 17.5.00164.482992h19.9948283l-.00164-.482992z" fill="url(#g)" opacity=".091389"/><path d="m1.0035317 19.017008.00164.482992h19.9948283l-.0016-.482992z" fill="url(#j)" opacity=".091389" transform="translate(1)"/><path d="m2.0234375 19.5c.0240744.183595.073644.357111.1503906.517578h19.6523439c.076746-.160467.126316-.333983.15039-.517578z" fill="url(#i)" opacity=".09"/></g></svg>