<svg fill-rule="evenodd" height="74.083336mm" preserveAspectRatio="xMidYMid" stroke-linejoin="round" stroke-width="28.222" viewBox="0 0 7408.3337 7408.3338" width="74.083336mm" xmlns="http://www.w3.org/2000/svg" xmlns:xlink="http://www.w3.org/1999/xlink"><linearGradient id="a" gradientUnits="userSpaceOnUse" x1="685.9306" x2="600.84174" y1="108.53233" y2="-114.27325"><stop offset="0" stop-color="#385529"/><stop offset="1" stop-color="#20465d"/></linearGradient><linearGradient id="b" gradientTransform="matrix(4.0104752 0 0 4.0125226 1469.2316 -554.29429)" gradientUnits="userSpaceOnUse" x1="-203.79489" x2="-178.08011" y1="166.93982" y2="153.62662"><stop offset="0" stop-color="#6b9651"/><stop offset=".34644496" stop-color="#a4ca8d"/><stop offset="1" stop-color="#8db576"/></linearGradient><linearGradient id="c" gradientUnits="userSpaceOnUse" x1="592.76099" x2="632.36884" y1="68.763504" y2="20.97646"><stop offset="0" stop-color="#648737"/><stop offset="1" stop-color="#829d19"/></linearGradient><linearGradient id="d" gradientTransform="matrix(4.0104752 0 0 4.0125226 1469.2316 -554.29429)" gradientUnits="userSpaceOnUse" x1="-238.79185" x2="-210.35672" y1="149.8284" y2="139.60396"><stop offset="0" stop-color="#88ae72"/><stop offset="1" stop-color="#345653"/></linearGradient><radialGradient id="e" cx="438.71869" cy="102.63671" gradientTransform="matrix(1.5458792 -.00000002 .00000002 1.5458792 -519.75584 531.00773)" gradientUnits="userSpaceOnUse" r="23.177462" xlink:href="#f"/><linearGradient id="f"><stop offset="0" stop-color="#fcf395" stop-opacity=".724299"/><stop offset="1" stop-color="#fcf395" stop-opacity="0"/></linearGradient><radialGradient id="g" cx="36678.5320765186" cy="-9617.7766827663" gradientUnits="userSpaceOnUse" r="11519.3171519316"><stop offset="0" stop-color="#ffe680" stop-opacity=".787879"/><stop offset="1" stop-color="#fbff8b" stop-opacity="0"/></radialGradient><radialGradient id="h" cx="438.71869" cy="102.63671" gradientTransform="matrix(192.00906 -.00000305 .00000305 192.00906 -49361.235 -35661.716)" gradientUnits="userSpaceOnUse" r="23.177462" xlink:href="#f"/><filter id="i" color-interpolation-filters="sRGB" height="1.300202" width="1.299798" x="-.149899" y="-.150101"><feGaussianBlur stdDeviation=".71515553"/></filter><linearGradient id="j" gradientTransform="matrix(1 0 0 .65132752 0 37.584167)" gradientUnits="userSpaceOnUse" x1="10.760489" x2="10.268553" y1="125.70395" y2="108.99121"><stop offset="0" stop-color="#294c4a"/><stop offset="1" stop-color="#19333d"/></linearGradient><linearGradient id="k" gradientUnits="userSpaceOnUse" x1="400.32681" x2="428.45718" y1="176.45792" y2="201.35971"><stop offset="0" stop-color="#7bafdc"/><stop offset="1" stop-color="#5d7b93"/></linearGradient><radialGradient id="l" cx="438.71869" cy="102.63671" gradientTransform="matrix(1.3041262 -.00000002 .00000002 1.3041262 -138.5714 42.751161)" gradientUnits="userSpaceOnUse" r="23.177462" xlink:href="#f"/><linearGradient id="m" gradientUnits="userSpaceOnUse" x1="400.32681" x2="428.45718" y1="176.45792" y2="201.35971"><stop offset="0" stop-color="#3b80ab"/><stop offset="1" stop-color="#20465d"/></linearGradient><linearGradient id="n" gradientUnits="userSpaceOnUse" x1="411.80502" x2="409.72617" xlink:href="#o" y1="232.31361" y2="246.48772"/><linearGradient id="o"><stop offset="0" stop-color="#7c91ac"/><stop offset="1" stop-color="#8da1b8"/></linearGradient><linearGradient id="p" gradientUnits="userSpaceOnUse" x1="328.80438" x2="350.603" y1="265.42493" y2="268.0976"><stop offset="0" stop-color="#677f9f"/><stop offset="1" stop-color="#375571"/></linearGradient><linearGradient id="q" gradientUnits="userSpaceOnUse" x1="342.06845" x2="395.93005" xlink:href="#o" y1="258.91367" y2="213.74554"/><linearGradient id="r" gradientUnits="userSpaceOnUse" x1="227.1787" x2="236.66985" y1="237.34032" y2="205.76627"><stop offset="0" stop-color="#90b7e7"/><stop offset="1" stop-color="#f8f4c9"/></linearGradient><linearGradient id="s" gradientUnits="userSpaceOnUse" x1="287.04327" x2="291.76212" y1="104.47689" y2="56.368378"><stop offset="0" stop-color="#e0c8c8"/><stop offset="1" stop-color="#e0c8c8"/></linearGradient><linearGradient id="t" gradientUnits="userSpaceOnUse" x1="290.83029" x2="326.66876" y1="57.52739" y2="39.543564"><stop offset="0" stop-color="#fff"/><stop offset="1" stop-color="#f1fbc7"/></linearGradient><linearGradient id="u" gradientUnits="userSpaceOnUse" x1="308.08258" x2="306.59653" y1="111.93678" y2="86.813446"><stop offset="0" stop-color="#e0c8c8"/><stop offset="1" stop-color="#ab9696"/></linearGradient><linearGradient id="v" gradientUnits="userSpaceOnUse" x1="35596.2242797083" x2="35995.16231960211" y1="-1467.5550772888" y2="-7775.117708045"><stop offset="0" stop-color="#a99c5e"/><stop offset="1" stop-color="#e2dcc5"/></linearGradient><linearGradient id="w" gradientUnits="userSpaceOnUse" x1="35343.3822544241" x2="32374.1409575" xlink:href="#x" y1="-3193.3042498637" y2="-7796.2317101564"/><linearGradient id="x"><stop offset="0" stop-color="#edeadd"/><stop offset="1" stop-color="#fff"/></linearGradient><linearGradient id="y" gradientUnits="userSpaceOnUse" x1="445.27103" x2="452.62091" y1="109.86376" y2="76.722343"><stop offset="0" stop-color="#1c99e0"/><stop offset="1" stop-color="#0a364e"/></linearGradient><linearGradient id="z" gradientUnits="userSpaceOnUse" x1="457.46933" x2="483.91174" y1="81.171448" y2="89.724075"><stop offset="0" stop-color="#036da5"/><stop offset="1" stop-color="#0299c1"/></linearGradient><linearGradient id="A" gradientUnits="userSpaceOnUse" x1="433.758964" x2="441.089834" xlink:href="#B" y1="66.48637" y2="69.88815"/><linearGradient id="B"><stop offset="0" stop-color="#fff"/><stop offset="1" stop-color="#fff" stop-opacity="0"/></linearGradient><linearGradient id="C" gradientUnits="userSpaceOnUse" x1="468.06784" x2="440.04474" y1="82.457657" y2="32.745522"><stop offset="0" stop-color="#7f92a2"/><stop offset="1" stop-color="#768895"/></linearGradient><linearGradient id="D" gradientUnits="userSpaceOnUse" x1="372.6326" x2="375.8623" y1="33.580486" y2="107.39139"><stop offset="0" stop-color="#4c95b6"/><stop offset="1" stop-color="#365472"/></linearGradient><linearGradient id="E" gradientUnits="userSpaceOnUse" x1="436.56924" x2="361.50916" y1="112.82684" y2="10.017335"><stop offset="0" stop-color="#677f9f"/><stop offset="1" stop-color="#91c0d8"/></linearGradient><linearGradient id="F" gradientUnits="userSpaceOnUse" x1="453.32828" x2="486.30771" y1="49.26218" y2="65.56562"><stop offset="0" stop-color="#87b0ca"/><stop offset="1" stop-color="#6983a2"/></linearGradient><linearGradient id="G" gradientUnits="userSpaceOnUse" x1="379.43793" x2="439.3432" y1="4.452206" y2="24.449261"><stop offset="0" stop-color="#a9cee1"/><stop offset="1" stop-color="#677f9f"/></linearGradient><linearGradient id="H" gradientUnits="userSpaceOnUse" x1="450.43402" x2="484.74203" y1="36.08139" y2="51.583023"><stop offset="0" stop-color="#7691ae"/><stop offset="1" stop-color="#677f9f"/></linearGradient><linearGradient id="I" gradientUnits="userSpaceOnUse" x1="431.58981" x2="468.88843" xlink:href="#B" y1="41.682819" y2="85.078575"/><linearGradient id="J" gradientUnits="userSpaceOnUse" x1="440.38681" x2="455.64435" xlink:href="#B" y1="39.354145" y2="44.191936"/><linearGradient id="K" gradientUnits="userSpaceOnUse" x1="354.80151" x2="355.8096" xlink:href="#B" y1="1.931534" y2="34.282871"/><linearGradient id="L" gradientUnits="userSpaceOnUse" x1="356.59018" x2="364.70126" xlink:href="#B" y1="-1.549683" y2="-6.318365"/><linearGradient id="M" gradientUnits="userSpaceOnUse" x1="387.42456" x2="381.74661" y1="67.128197" y2="45.060703"><stop offset="0" stop-color="#dc85e9"/><stop offset="1" stop-color="#f8f1cb"/></linearGradient><linearGradient id="N" gradientUnits="userSpaceOnUse" x1="359.54462" x2="386.5986" xlink:href="#O" y1="56.260239" y2="52.38483"/><linearGradient id="O"><stop offset="0" stop-color="#fff"/><stop offset="1" stop-color="#c254d2"/></linearGradient><linearGradient id="P" gradientUnits="userSpaceOnUse" x1="364.554223" x2="393.181913" xlink:href="#O" y1="76.634907" y2="78.171703"/><linearGradient id="Q" gradientUnits="userSpaceOnUse" x1="364.506446" x2="393.134136" xlink:href="#O" y1="88.010775" y2="89.547571"/><linearGradient id="R" gradientUnits="userSpaceOnUse" x1="347.26794" x2="383.90924" y1="-40.876339" y2="-42.38269"><stop offset="0" stop-color="#ff7f2a"/><stop offset="1" stop-color="#f6cdb4"/></linearGradient><linearGradient id="S" gradientUnits="userSpaceOnUse" x1="324.37396" x2="302.13605" xlink:href="#T" y1="83.309219" y2="106.74373"/><linearGradient id="T"><stop offset="0" stop-color="#fff" stop-opacity=".368687"/><stop offset="1" stop-color="#fff" stop-opacity="0"/></linearGradient><linearGradient id="U" gradientUnits="userSpaceOnUse" x1="384.52396" x2="394.60715" y1="212.76161" y2="232.79434"><stop offset="0" stop-color="#1dbe03"/><stop offset="1" stop-color="#18a303"/></linearGradient><linearGradient id="V" gradientUnits="userSpaceOnUse" x1="380.99274" x2="376.85001" y1="229.32477" y2="208.47774"><stop offset="0" stop-color="#43c330"/><stop offset="1" stop-color="#7cd270"/></linearGradient><linearGradient id="W" gradientUnits="userSpaceOnUse" x1="384.92093" x2="393.47321" y1="207.12851" y2="219.52737"><stop offset="0" stop-color="#f0c56e"/><stop offset="1" stop-color="#edb450"/></linearGradient><linearGradient id="X" gradientUnits="userSpaceOnUse" x1="401.80969" x2="411.70392" y1="190.89001" y2="216.78139"><stop offset="0" stop-color="#b94603"/><stop offset="1" stop-color="#a33e03"/></linearGradient><linearGradient id="Y" gradientUnits="userSpaceOnUse" x1="392.28784" x2="398.96954" y1="183.35027" y2="211.01266"><stop offset="0" stop-color="#e97e3b"/><stop offset="1" stop-color="#d36118"/></linearGradient><linearGradient id="Z" gradientUnits="userSpaceOnUse" x1="391.8725" x2="391.11652" y1="232.54283" y2="208.16339"><stop offset="0" stop-color="#0369a3"/><stop offset="1" stop-color="#048edc"/></linearGradient><linearGradient id="aa" gradientUnits="userSpaceOnUse" x1="374.3988" x2="383.27792" y1="205.31416" y2="232.90642"><stop offset="0" stop-color="#68c1f4"/><stop offset="1" stop-color="#1c99e0"/></linearGradient><linearGradient id="ab" gradientUnits="userSpaceOnUse" x1="373.796071" x2="381.126941" xlink:href="#B" y1="203.568426" y2="206.970206"/><linearGradient id="ac" gradientUnits="userSpaceOnUse" x1="390.681447" x2="398.012317" xlink:href="#B" y1="180.785972" y2="184.187752"/><linearGradient id="ad" gradientUnits="userSpaceOnUse" x1="423.581952" x2="430.912822" xlink:href="#B" y1="171.457301" y2="174.859081"/><linearGradient id="ae" gradientTransform="matrix(100.00001 -.00000168 0 100.00001 4191.8854 -22466.236)" gradientUnits="userSpaceOnUse" x1="448.35672" x2="471.48801" y1="-85.295616" y2="-66.726021"><stop offset="0" stop-color="#f9cfb5"/><stop offset="1" stop-color="#f09e6f"/></linearGradient><radialGradient id="af" cx="46019.5676585183" cy="-10596.2917650403" gradientUnits="userSpaceOnUse" r="4450.28292358034" xlink:href="#f"/><linearGradient id="ag" gradientTransform="matrix(100.00001 -.00000168 0 100.00001 4588.0834 -22614.778)" gradientUnits="userSpaceOnUse" x1="426.82047" x2="446.8736" y1="-70.350746" y2="-54.818855"><stop offset="0" stop-color="#ef7e36"/><stop offset="1" stop-color="#c55b16"/></linearGradient><linearGradient id="ah" gradientUnits="userSpaceOnUse" x1="44767.5561968414" x2="43728.3690929227" y1="-5710.2905015623" y2="-8062.2627367595"><stop offset="0" stop-color="#eeb755"/><stop offset="1" stop-color="#f9db6f"/></linearGradient><linearGradient id="ai" gradientUnits="userSpaceOnUse" x1="443.84253" x2="449.08444" y1="138.09639" y2="171.03415"><stop offset="0" stop-color="#ce9f2d"/><stop offset="1" stop-color="#b08826"/></linearGradient><linearGradient id="aj" gradientUnits="userSpaceOnUse" x1="439.317792" x2="443.618792" xlink:href="#B" y1="134.546817" y2="137.753137"/><linearGradient id="ak" gradientUnits="userSpaceOnUse" x1="442.966871" x2="448.342971" xlink:href="#B" y1="136.499761" y2="150.261801"/><linearGradient id="al" gradientTransform="matrix(.11253923 .06497456 0 .11332301 426.75936 116.35004)" gradientUnits="userSpaceOnUse" x1="389.85834" x2="401.54822" xlink:href="#B" y1="166.01152" y2="165.56099"/><linearGradient id="am" gradientTransform="matrix(.11253922 .06497456 0 .11332301 430.70335 116.34967)" gradientUnits="userSpaceOnUse" x1="389.85834" x2="393.79596" xlink:href="#B" y1="166.01152" y2="169.07349"/><linearGradient id="an" gradientUnits="userSpaceOnUse" x1="246.1382" x2="248.96156" y1="180.50006" y2="144.1514"><stop offset="0" stop-color="#e7d4d4"/><stop offset="1" stop-color="#dbb2b2"/></linearGradient><linearGradient id="ao" gradientUnits="userSpaceOnUse" x1="44229.5771430435" x2="45683.6542884512" xlink:href="#B" y1="-6867.2596172592" y2="-6867.2596172592"/><linearGradient id="ap" gradientUnits="userSpaceOnUse" x1="427.86572" x2="445.00394" y1="253.81558" y2="265.91083"><stop offset="0" stop-color="#b2c5b3"/><stop offset="1" stop-color="#68826a"/></linearGradient><linearGradient id="aq" gradientUnits="userSpaceOnUse" x1="463.15866" x2="478.57916" y1="225.54387" y2="179.03897"><stop offset="0" stop-color="#a5b7a7"/><stop offset="1" stop-color="#d4e95f"/></linearGradient><linearGradient id="ar" gradientUnits="userSpaceOnUse" x1="343.90793" x2="373.10526" xlink:href="#B" y1="136.39871" y2="161.91211"/><linearGradient id="as" gradientUnits="userSpaceOnUse" x1="377.59891" x2="377.5571" y1="193.34622" y2="150.02148"><stop offset="0" stop-color="#fff" stop-opacity="0"/><stop offset=".65953171" stop-color="#fff" stop-opacity=".823232"/><stop offset="1" stop-color="#fff" stop-opacity="0"/></linearGradient><linearGradient id="at" gradientUnits="userSpaceOnUse" x1="34908.9702544241" x2="31568.3239203595" y1="-1956.1422498637" y2="-4252.4484794943"><stop offset="0" stop-color="#dcd6bd"/><stop offset="1" stop-color="#f3f1e8"/></linearGradient><linearGradient id="au" gradientUnits="userSpaceOnUse" x1="287.55502" x2="249.19374" y1="142.32111" y2="99.290703"><stop offset="0" stop-color="#edeadd"/><stop offset="1" stop-color="#d0c8a6"/></linearGradient><linearGradient id="av" gradientTransform="matrix(.99999997 .46630764 0 .99999997 -28.621988 -102.50388)" gradientUnits="userSpaceOnUse" x1="301.74957" x2="324.07974" xlink:href="#x" y1="94.247169" y2="108.24984"/><clipPath id="aw"><path d="m285.65829 82.083641h30.049107v21.544643h-30.049107z"/></clipPath><linearGradient id="ax" gradientUnits="userSpaceOnUse" x1="35215.55624164151" x2="34473.9731674832" y1="-6215.1035520436" y2="-7974.3907279723"><stop offset="0" stop-color="#e47a35"/><stop offset="1" stop-color="#f3bc5d"/></linearGradient><linearGradient id="ay" gradientUnits="userSpaceOnUse" x1="339.18344" x2="344.32153" xlink:href="#B" y1="37.618519" y2="60.399506"/><linearGradient id="az" gradientUnits="userSpaceOnUse" x1="40945.7183437396" x2="37439.031993071" xlink:href="#T" y1="-17605.73926690781" y2="-15369.1959432535"/><linearGradient id="aA" gradientUnits="userSpaceOnUse" x1="427.18884" x2="446.81647" y1="-8.385137" y2="12.624707"><stop offset="0" stop-color="#fafe92"/><stop offset="1" stop-color="#f9db6f"/></linearGradient><linearGradient id="aB" gradientUnits="userSpaceOnUse" x1="342.52185" x2="349.30112" y1="80.828423" y2="64.181023"><stop offset="0" stop-color="#81a539"/><stop offset="1" stop-color="#8fb347"/></linearGradient><linearGradient id="aC" gradientUnits="userSpaceOnUse" x1="45464.8312665689" x2="49492.9016693759" y1="8205.7488900415" y2="5565.6946260361"><stop offset="0" stop-color="#828071"/><stop offset="1" stop-color="#cecbbc"/></linearGradient><linearGradient id="aD" gradientUnits="userSpaceOnUse" x1="35581.4592782318" x2="35289.1222489981" xlink:href="#B" y1="-7694.9107000243" y2="-7439.1986744531"/><filter id="aE" color-interpolation-filters="sRGB" height="1.065571" width="1.092669" x="-.046335" y="-.032786"><feGaussianBlur stdDeviation="2.0226957"/></filter><filter id="aF" color-interpolation-filters="sRGB"><feColorMatrix values="0.21 0.72 0.072 0 0 0.21 0.72 0.072 0 0 0.21 0.72 0.072 0 0 0 0 0 1 0"/></filter><g filter="url(#aF)" transform="matrix(.1964362 0 0 .1964362 -4321.5565 5110.7341)"><g transform="matrix(42.915565 116.55747 -116.55747 42.915565 13761.484 -83279.109)"><ellipse cx="648.48102" cy="-2.615995" fill="url(#a)" rx="137.59901" ry="137.59898"/><path d="m724.60162-2.6159415a76.120605 76.120575 0 0 1 -58.3004 74.0052885 76.120605 76.120575 0 0 1 -85.59722-39.355302l67.77702-34.6499865z" fill="#6c8422"/><path d="m697.15201-86.004465a96.553169 96.553146 0 0 1 46.36128 66.318625 96.553169 96.553146 0 0 1 -20.38323 78.307417l-74.64904-61.2375185z" fill="#436557"/><path d="m669.19283 8.7755396 105.39644 41.3284834s-1.5072 9.0758-11.50465 21.904599c-9.99744 12.828826-18.62624 14.467127-18.62624 14.467127z" fill-opacity=".247475"/><path d="m779.55972 69.556591c-26.24044 47.663469-76.31317 77.345309-130.75372 77.461629-.7976.0131-1.10047-.77418-1.08074-1.20245l.75576-148.4317115 130.79986 70.1103135c.69445.371639.93169.875772.27884 2.062219z" fill="url(#b)"/><path d="m612.29387 92.063286a101.35911 101.35909 0 0 1 -57.41099-55.781201l93.59814-38.8980265z" fill="url(#c)"/><path d="m542.23222 74.617789 13.74475 19.965401 75.61582-82.682781z" fill-opacity=".267677"/><path d="m547.00187 87.28628c-23.74583-30.957087-33.47729-56.031798-34.93594-93.1264308l136.41509 3.2242093z" fill="url(#d)"/><ellipse cx="656.40649" cy="-16.279472" rx="32.210663" ry="30.880575" transform="matrix(.99984526 .01759109 .01834877 .99983165 0 0)"/><g fill="none" stroke-linejoin="miter"><path d="m595.18828 45.044513-48.28068 42.071457" stroke="#bcc7b7" stroke-width=".639054"/><path d="m560.90598 73.696542c-.48841.566451-31.62885-39.333933-24.50059-79.1875876" stroke="#fff" stroke-opacity=".277778" stroke-width=".426036"/><path d="m742.18515 47.723641 37.17946 19.726682" stroke="#3a4f2e" stroke-width=".615907"/><path d="m647.999 105.61994-.003 40.37479" stroke="#a5c096" stroke-linecap="round" stroke-width=".615907"/></g><circle cx="158.45024" cy="689.67151" fill="url(#e)" r="35.470139" transform="matrix(.34551637 -.93841272 .93841272 .34551637 0 0)"/></g><path d="m35011.323-24355.609 1229.439 2512.335c64.103-64.103-338.927 56.731-1000.397 375.063-596.745 303.674-1067.165 560.195-1557.514 872.857-49.413 31.528 79.629 74.86 28.016 115.028-333.374 259.441-886.75 668.257-1228.891 931.176-70.268 53.996-92.356-129.345-162.943-73.152-1106.477 880.837-2242.755 2032.08-3107.46 3471.869l-2501.817-1651.143c-3.21 12.4 3292.727-5321.484 8301.567-6554.033z" fill-opacity=".14486"/><path d="m31257.07-21233.097 442.313 456.135 1485.891-1112.692-483.776-511.424z" fill="#67865c"/><path d="m31478.59-20790.58c458.519-368.104 843.806-679.369 1285.259-952.947l918.739 1026.251c-504.783 334.719-918.745 625.874-1309.692 948.06z" fill="#8eb43f"/><g fill="none" stroke="#efa" transform="matrix(100.00001 0 0 100.00001 3799.1383 -20694.665)"><path d="m360.41601 180.38405-20.39956 12.67007 7.76751 3.3235-57.87622 36.26672" stroke-linejoin="miter" stroke-width="1.322917"/><path d="m293.80469 249.17107 12.545-8.40024-29.10417-14.55208-9.07141 5.85863" stroke-linejoin="miter" stroke-width="1.322917"/><g stroke-linecap="round" stroke-width="1.461673"><rect height="8.767051" ry=".448629" transform="matrix(.90630779 .42261826 -.86602541 .5 0 0)" width="13.607142" x="401.02924" y="118.40646"/><rect height="8.767051" ry=".448629" transform="matrix(.90630779 .42261826 -.8660254 .5 0 0)" width="13.607142" x="436.8222" y="124.10258"/><rect height="8.767051" ry=".448629" transform="matrix(.90630779 .42261826 -.8660254 .5 0 0)" width="13.607142" x="451.78647" y="151.61221"/></g><path d="m286.60462 253.84565-6.23889 4.02894 11.75985 5.3454-8.72997 5.84189" stroke-linejoin="miter" stroke-width="1.322917"/></g><path d="m31951.639-20217.16 435.401 459.59 338.645-286.812-929.546-988.292-228.069 207.334z" fill="#668000" fill-opacity=".425234"/><path d="m34936.05000000001-24654.323c-5008.84 1232.548-8304.77 6566.471-8301.56 6554.071l2501.811 1651.114c929.752-1548.097 2173.431-2762.409 3356.489-3665.875l-1076.783-1145.718s974.495-725.673 1333.873-953.74l1023.71 1216.05c1264.795-785.62 2256.583-1160.286 2383.935-1159.826zm1221.475 2496.076 7.96 16.278c10.991-10.99 7.46-16.223-7.96-16.278z" fill="#85a93b"/><circle cx="36678.527" cy="-9617.7764" fill="url(#g)" r="11519.317"/><path d="m28623.915-5121.1808c-86.665 33.46-1162.078-6160.4782 1951.926-10108.9472" fill="none" stroke="#fff" stroke-linejoin="miter" stroke-opacity=".277778" stroke-width="52.916668"/><path d="m39521.53500000001 8366.9032c-75.806 316.482-10100.05-1958.411-12902.188-10652.713" fill="none" stroke="#fff" stroke-linejoin="miter" stroke-opacity=".277778" stroke-width="137.538467"/><path d="m56439.162-12916.569c1524.473 286.306 2758.784 13921.2252-8812.355 19717.9962" fill="none" stroke="#fff" stroke-linejoin="miter" stroke-opacity=".277778" stroke-width="111.005272"/><circle cx="39677.316" cy="-15151.187" fill="#142a37" r="6225.1963"/><path d="m45928.874 6970.3902-1962.334 1496.954s-9797.268-4109.733-12266.142-6695.064c-4144.098-4339.575-3303.549-10477.534-3303.549-10477.534l2365.262-1329.2402s-1168.874 6600.2542 3302.974 10848.53124c2374.387 2255.67996 11863.789 6156.35296 11863.789 6156.35296z" fill-opacity=".112245"/><path d="m45884.863 6097.6062-1962.335 1496.952s-9797.267-4109.731-12266.142-6695.06596c-4144.097-4339.57404-3303.548-10477.53204-3303.548-10477.53204l2365.262-1329.2392s-1168.875 6600.2532 3302.975 10848.53324c2374.386 2255.67696 11863.788 6156.35196 11863.788 6156.35196z" fill="#cecbbc"/><path d="m46667.103-7820.7248c471.225 294.515-1698.577 7258.35204-5922.933 8170.91304l4280.934 1446.52596c0 636.926 4926.005-3370.097 5180.124-8757.342z" fill-opacity=".280612"/><path d="m42072.99500000001 4441.7642-2045.699 1409.87-1354.582-677.291 2266.852-1368.404z" fill-opacity=".191589"/><path d="m30638.043-8446.2478-2345.715 1016.476c-89.09 334.082 878.398 5272.758 1407.428 5531.984l2169.789-1016.479s-1251.05-3264.453-1231.502-5531.981z" fill-opacity=".093458"/><path d="m28352.838-9578.0398s-840.549 6137.958 3303.548 10477.53204c2468.875 2585.33296 12266.142 6695.06596 12266.142 6695.06596" fill="none" stroke="#828071" stroke-linejoin="miter" stroke-width="86.500008"/><path d="m30657.592-18444.864-1231.503-928.512c-83.857-41.93 3074.625-3486.43 6118.409-3997.492" fill="none" stroke="#abc837" stroke-linejoin="miter" stroke-width="46.5"/><path d="m30710.508-18444.863-1231.501-928.512c-83.858-41.929 3074.624-3486.43 6118.408-3997.492" fill="none" stroke="#69895d" stroke-linejoin="miter" stroke-width="46.5"/><path d="m32787.887-22190.289 988.29 1185.26" fill="none" stroke="#abc837" stroke-linejoin="miter" stroke-width="26.458334"/><path d="m32387.04-19774.848c411.9-341.368 838.018-662.83 1295.837-939.914" fill="none" stroke="#abc837" stroke-linejoin="miter" stroke-width="26.458334"/><circle cx="34876.75" cy="-15954.557" fill="url(#h)" r="4405.6411"/><g stroke-width=".095445" transform="matrix(1047.7203 0 0 1047.7203 41118.72 -126817.06)"><path d="m6.2256932 102.21309a2.0280671 2.0280671 0 0 1 -2.0111685 2.028 2.0280671 2.0280671 0 0 1 -2.0446841-1.99421 2.0280671 2.0280671 0 0 1 1.9770945-2.06122 2.0280671 2.0280671 0 0 1 2.0776318 1.95985" fill="#1d373b" transform="matrix(3.410565 0 0 3.410565 -6.251164 -244.32954)"/><path d="m1.1279786 111.30935v.36964c0 .80767.3300876 1.45617.7401455 1.45811l10.3542039.0489c.389857.002.266411-.71851.312844-1.52426l.0025-.26893z" fill="#073e5d" fill-opacity=".182243"/><path d="m2.7988703 99.789107c-2.00631496 2.326013-2.23825796 5.696533-.569476 8.275453 1.668951 2.5788 4.838681 3.74799 7.7824657 2.87063.941502-.28058 1.787749-.749 2.502872-1.35689.09406-3.16398.14107-3.41996-.493175-4.03003l-9.1761777-5.718823z" fill="#132528" filter="url(#i)"/><path d="m4.2250876 107.79218h7.5005634c.460583 0 .831378.24151.831378.5415v12.193c0 .29998-.370795.5415-.831378.5415h-7.5005634c-.4605832 0-1.0641431-.28265-.8313777-.5415 3.9431283-4.38518 4.1863489-8.46931 0-12.193-.2721092-.24204.3707945-.5415.8313777-.5415z" fill="url(#j)"/></g><path d="m43922.527 7594.5579s1744.256 662.148 2490.658 772.726c746.404 110.577 3372.633-1769.251 3372.633-1769.251l-4298.725-511.423z" fill="#cecbbc"/><g transform="matrix(147.23197 0 0 147.23197 -26923.012 -27293.311)"><path d="m424.29743 205.05325 30.10447-17.38472c.69754-.81836.64818-1.63673.0996-2.45509l-30.17063 11.85514z" fill="#464f58"/><path d="m403.3739 178.64953-23.37634 13.51885 39.8055 20.27827 19.52722-12.39227z" fill-opacity=".209184"/><path d="m384.40521 183.70626 29.74584-17.17377 40.35042 18.68095-30.08318 17.01893z" fill="url(#k)"/><path d="m384.40521 183.70626c-.83437.94085-.50202 1.71891 0 2.47329l39.89222 18.8737c.67589-.75131 1.0661-1.59283.0668-2.87314z" fill="#677f9f"/><path d="m454.36748 185.20138-40.29723-18.78047" fill="none" stroke="#a3cdfc" stroke-linejoin="miter" stroke-width=".264583"/><path d="m397.99157 187.35644 24.29647 11.28524 5.3107-3.05365-13.23119-5.3871-1.63878.34193-4.94463-1.89764-.17441-1.34378-5.20462-1.95792z" fill-opacity=".182243"/><circle cx="433.5733" cy="176.60226" fill="url(#l)" r="29.923128"/><path d="m420.41328 180.94962 1.87762 8.1207 2.15926 1.07963-.18777 5.25733" fill="none" stroke="#fcf395" stroke-linejoin="miter" stroke-width=".179705"/></g><g transform="matrix(117.42927 0 0 117.42927 -13184.272 -26118.366)"><path d="m424.29743 205.05325 30.10447-17.38472c.69754-.81836.64818-1.63673.0996-2.45509l-30.17063 11.85514z" fill="#10232e"/><path d="m384.40521 183.70626 29.74584-17.17377 40.35042 18.68095-30.08318 17.01893z" fill="url(#m)"/><path d="m384.40521 183.70626c-.83437.94085-.50202 1.71891 0 2.47329l39.89222 18.8737c.67589-.75131 1.0661-1.59283.0668-2.87314z" fill="#295a77"/><path d="m454.36748 185.20138-40.29723-18.78047" fill="none" stroke="#a3cdfc" stroke-linejoin="miter" stroke-width=".264583"/></g><g transform="matrix(100.00001 0 0 100.00001 850.92415 -34301.81)"><circle cx="252.37251" cy="303.46469" fill="#fff" r="3.474504"/><path d="m252.77342 303.33106 69.49008-39.68952" fill="none" stroke="#fff" stroke-linejoin="miter" stroke-width="1.365"/></g><g transform="matrix(100.00001 0 0 100.00001 15667.592 -22508.954)"><circle cx="252.37251" cy="303.46469" fill="#fff" r="3.474504"/><path d="m252.77342 303.33106 69.49008-39.68952" fill="none" stroke="#fff" stroke-linejoin="miter" stroke-width="1.365"/></g><g transform="matrix(100.00001 0 0 100.00001 18306.748 -34830.326)"><circle cx="252.37251" cy="303.46469" fill="#fff" r="3.474504"/><path d="m252.77342 303.33106 69.49008-39.68952" fill="none" stroke="#fff" stroke-linejoin="miter" stroke-width="1.365"/></g><g transform="matrix(100.00001 0 0 100.00001 9542.9961 -26331.621)"><circle cx="252.37251" cy="303.46469" fill="#fff" r="3.474504"/><path d="m252.77342 303.33106 69.49008-39.68952" fill="none" stroke="#fff" stroke-linejoin="miter" stroke-width="1.365"/></g><g transform="matrix(100.00001 0 0 100.00001 3799.1381 -20694.668)"><path d="m392.33927 238.21949 12.37874-14.2686 13.22917.94494 3.87424 5.66964-1.51191 9.6384-12.00073 8.78794z" fill="url(#n)"/><path d="m409.06472 247.00744-16.72545-8.78795-.18897 3.49628 16.44195 8.88244z" fill="#677f9f"/><path d="m419.61315 237.42848s-.80182-4.14268-4.40994-5.47903c-3.60815-1.33635-12.96257-.26727-12.96257-.26727l14.56618-7.61718s4.00905 1.20271 4.14269 2.6727c.13362 1.46998.80179 9.08716.80179 9.08716z" fill="#677f9f"/><path d="m401.85469 246.56461.18899-3.26143c.8241-6.24847 4.00847-11.68712 10.53353-14.72879 0 0 3.48008-1.5052 5.36997-.46576 1.88986 1.03943 3.59076 3.40178 3.59076 3.40178s-.28347-4.7247-1.7009-5.57515c-1.41739-.85044-8.12649-1.70089-8.12649-1.70089l-19.19849 15.11331.0391 2.16764z" fill-opacity=".131313"/><path d="m415.74612 225.97915s4.61401-.56499 4.803 6.04959-3.97941 9.63364-11.76788 14.8842l-.18898 3.3073s15.15819-6.40267 14.91385-17.40509c-.21626-9.73782-4.79823-11.35746-8.01103-11.92442z" fill="#375571"/><path d="m321.91918 254.99554-.19745 4.6705.29665 3.09601c3.75864 4.19921 9.55295 6.83266 15.0867 8.43904 1.38641.40246 3.11915.48374 4.32437.23824l.35365-5.668-4.05813-.24889-14.20861-8.90471z" fill="url(#p)"/><path d="m322.66703 256.99474c-.71098-.54669-1.48942-2.3993.72932-4.04929l69.47643-41.8106 22.86497 9.85655-71.67513 43.60802c-1.93695 1.45627-3.79241 2.53319-6.5614 1.35376-5.31445-2.26364-10.55553-4.80719-14.83419-8.95844z" fill="url(#q)"/><path d="m341.66136 266.10541-.30167 5.39166 74.5117-45.56118-.13364-5.21176z" fill="#35536f"/><path d="m322.166 254.48393s-.17933 1.68932 1.14202 2.94553c2.12316 2.01849 10.75819 7.08075 13.69115 8.17472 1.25152.46681 2.0927 1.10526 3.9826.4438 0 0-.50825.87814-3.29583.31118-5.92122-1.39214-16.06907-9.34148-15.33669-9.06907 0 0-.75797 3.50995-.0448 5.02597 1.32973 2.8267 7.15995 6.00454 7.27246 5.91078.05.34986-6.56574-3.42237-7.78644-5.72515-.53118-.61659-.52208-3.81278.37561-8.01776z" fill="#b1bfce"/></g><path d="m37899.312 4111.2249-521.177 334.087 1122.532 527.857 1062.398-587.992-935.445-407.585z" fill="#35536f" fill-opacity=".358586"/><g transform="matrix(100.00001 0 0 100.00001 3237.3371 -20949.026)"><path d="m203.79301 216.58145s-2.40542 14.56619 6.94901 30.736l4.40995.80181-5.34539-23.38608-.26727-9.2208z" fill="#eaefff"/><path d="m236.53353 202.1489s.80181 18.8425 8.41899 28.73147l-29.93419 17.10526s-7.61718-10.28988-7.48354-30.3351z" fill="url(#r)"/><path d="m211.67746 219.52142s-.4009 14.03165 5.07812 22.71791l23.11882-12.6953s-6.1472-9.08717-5.47902-21.11429z" fill="none" stroke="#009cfa" stroke-linejoin="miter" stroke-width=".765"/><path d="m218.89374 237.16121 4.27631-10.42351 6.28084.13363 3.34087-12.02713" fill="none" stroke="#009cfa" stroke-linejoin="miter" stroke-width=".765"/><g fill="#009cfa"><circle cx="218.7601" cy="237.02757" r="1.069078"/><circle cx="223.17006" cy="226.60406" r="1.069078"/><circle cx="229.25044" cy="226.80452" r="1.069078"/><circle cx="232.65813" cy="215.2451" r="1.069078"/></g><path d="m236.53353 202.01526-4.00905-.93544-28.99874 15.50163 3.87541 1.06908z" fill="#fafaff"/></g><g transform="matrix(100.00001 0 0 100.00001 4975.1241 -21659.525)"><path d="m311.76989 41.653549s-10.43132 11.779053-2.54687 38.773275c7.88445 26.994226 15.10854 30.482936 15.10854 30.482936l-40.75858 21.21452s-12.20663-17.63978-14.21114-29.53328c-7.27804-26.259917-4.19993-36.708692-3.654-36.57221l13.32155-11.135399z" fill="url(#s)"/><path d="m306.37792 57.369947c-17.91448 13.847181-24.55248 34.558309-34.65249 53.162123 0 0-8.93876-34.396392-7.96136-38.30592.97737-3.909529 6.35296-18.863469 23.45717-18.863469 17.10417 0 21.89335-5.27786 21.89335-5.27786s-1.95477 2.052501-2.73667 9.285126z" fill="#916f6f" fill-opacity=".172897"/><path d="m306.56787 56.392565c-15.60196 8.598855-29.89494 18.132693-40.36586 30.396574 0 0-3.22539-11.630842-2.24799-15.540371.97737-3.909529 6.35296-18.863469 23.45717-18.863469 17.10417 0 21.89335-5.27786 21.89335-5.27786s-1.95477 2.052501-2.73667 9.285126z" fill="#baa4a4"/><path d="m306.56788 56.392552c-16.25844 8.270615-28.44846 26.674985-38.02014 39.388486 0 0-5.57111-20.622754-4.59371-24.532283.97737-3.909529 6.35296-18.863469 23.45717-18.863469 17.10417 0 21.89335-5.27786 21.89335-5.27786s-1.95477 2.052501-2.73667 9.285126z" fill="#916f6f" fill-opacity=".331633"/><path d="m334.48781 38.579948-44.90128 25.925145s-22.48263-8.131816-24.3535 5.632563c-3.0926 13.560765 11.1448 50.724544 11.33336 50.755974l-5.36354-10.7711c.16636.22181-10.84947-30.428348-6.87329-42.94474 3.81701-12.015364 43.90613-30.382718 43.90613-30.382718s12.70526-6.364711 26.25212 1.784876z" fill="url(#t)"/></g><g fill="#baa4a4" stroke="#baa4a4" stroke-linecap="round" stroke-linejoin="miter" stroke-width=".965" transform="matrix(100.00001 0 0 100.00001 3799.1381 -20694.668)"><path d="m281.80969 75.041379 23.70868-13.505334"/><path d="m282.69814 80.086173 23.70868-13.505334"/><path d="m283.80393 84.64752 23.70868-13.505334"/><path d="m285.4626 89.485314 23.70868-13.505334"/><path d="m287.25949 94.323107 23.70868-13.505335"/><path d="m289.05639 98.608009 23.70868-13.505334"/></g><g transform="matrix(100.00001 0 0 100.00001 4018.3261 -21026.136)"><path d="m294.93191 84.416674c0 .000002-6.08378 15.167433 2.86597 33.173826 2.09878 3.51462 5.77405 5.67797 9.08718 8.15172l1.27671-.29967s-10.55715-21.24793-10.15625-29.533286c.40091-8.285355.26727-10.289877.26727-10.289877z" fill="#fff"/><path d="m318.18437 71.320466-21.11428 14.432555s-8.19744 10.498692 1.5302 32.017289c1.46683 3.24479 9.56148 8.20678 9.56148 8.20678l17.37252-14.16529s-18.97615-3.47451-7.34992-40.491334z" fill="url(#u)"/><path d="m318.18437 71.320466-2.00451-1.336347-21.24795 14.566188 2.00454 1.069078z" fill="#fff"/></g><path d="m35341.254-8297.0491 661.456 255.134c84.677 113.311 91.13 232.777 103.944 944.94l75.596 3297.843-510.267 1540.254-56.698 1077.229c-170.846 311.43401-372.382 223.94401-566.965 226.78801l160.642-2702.53001z" fill="url(#v)"/><path d="m35955.46300000001-7603.7701 66.146 3778.212-5545.947-2404.181-15.838-3626.903c8.37-224.9219 36.303-569.7789 394.298-549.9619l4732.446 2208.4189c326.302 128.907 381.754 294.997 368.895 594.415z" fill="url(#w)"/><g transform="matrix(100.00001 0 0 100.00001 3486.1131 -18263.658)"><path d="m454.28564 123.05912-18.10177-8.44099 11.80556-42.538513 22.80581 3.784437z" fill="url(#y)"/><path d="m465.07036 83.855525-3.93933 14.51338s-4.21581-1.520444-11.6107-.06911c-7.39492 1.45134-10.43581 5.598015-10.43581 5.598015l4.76866-16.655826z" fill="#0a334a" fill-opacity=".27551"/><path d="m454.28564 123.05912 13.00853-7.61171 16.61758-59.058371-32.32237 18.277045.0611 16.99361 13.43232-7.755158z" fill="url(#z)"/><path d="m451.65049 91.659694-18.10177-8.44099.0457-16.88064 17.99496 8.32802z" fill="#46ade8"/><path d="m451.58937 74.666082-17.99494-8.328019 31.96103-18.508702 18.35629 8.559678z" fill="#63bbee"/><path d="m445.41397 71.752925 6.16446 3.04001.18111 5.13599.10596-5.16713 3.96954-2.69226-4.10927 2.48895z" fill="#fff"/><path d="m443.76594 60.638079-9.54389 5.38616-.51972.85045.0472 17.19791" fill="none" stroke="url(#A)" stroke-linejoin="miter" stroke-width=".264583"/></g><g transform="matrix(100.00001 0 0 100.00001 3682.8221 -20521.783)"><path d="m425.83927 32.104786 10.5686-6.13611 60.29799 70.320328-10.08661 6.308966z" fill="url(#C)"/><path d="m367.98802 117.57911-.055-98.636613 10.21685-6.331105.20045 99.117188z" fill="url(#D)"/><path d="m378.26013 111.5668 103.25214 48.37578-10.56858 6.13611-103.25214-48.37578z" fill="#7ea2be"/><path d="m354.54841-1.2001082.26717 125.5923782 131.6147 61.64011.18899-83.43441-61.07173-70.700323zm13.36352 20.1298882 52.55789 24.498465 51.1824 59.407085-.45617 62.99685-103.28412-48.16218z" fill="url(#E)"/><path d="m443.52614 34.745744-8.01452 4.886907 49.45552 56.492669 7.81905-4.691433z" fill="#365472" fill-opacity=".364486"/><path d="m440.67136 41.249576 43.03101 49.147416c2.2951 2.70131 2.6325 1.295595 2.55803-.974178l.0473-23.628182-4.675-7.614627-40.0364-18.792245c-1.39468-.58861-1.75124.921087-.92494 1.861816z" fill="url(#F)"/><path d="m364.98602-7.0770982 71.42185 33.0457742-10.56858 6.13611-71.42185-33.04577401z" fill="url(#G)"/><path d="m451.38089 33.080153 40.84471 19.109772-10.56858 6.136111-40.84471-19.109773z" fill="url(#H)"/><path d="m486.35501 185.66602.13399-83.04592 10.21685-6.331096.0115 83.526486z" fill="#365472"/><path d="m486.35501 91.854414-.055-25.95179 10.21685-6.331105.20045 26.432365z" fill="#3c5c82"/><path d="m481.65702 58.326035 10.56857-6.136111 4.29128 7.381595-10.21686 6.331103z" fill="#6d8091"/><path d="m481.98103 97.120375-56.39388-64.946492-70.90238-33.352186" fill="none" stroke="url(#I)" stroke-linejoin="miter" stroke-width=".529167"/><path d="m450.57686 33.7775-10.0226 5.612659 34.74504 16.036173" fill="none" stroke="url(#J)" stroke-linejoin="miter" stroke-width=".529167"/><path d="m484.02774 102.62697c1.5119-1.76388 3.02381-1.76391 4.53571 0v81.83185c-1.6379 1.42567-3.27579.93027-4.91369.18898z" fill="#426390"/><path d="m354.66538-1.2563805-.28347 44.8846715" fill="none" stroke="url(#K)" stroke-linejoin="miter" stroke-width=".529167"/><path d="m364.89608-6.7675879-9.74471 5.80535146" fill="none" stroke="url(#L)" stroke-linejoin="miter" stroke-width=".865"/><path d="m475.48476 55.299622 6.16446 3.04001 3.74034 5.965326-3.45327-5.996466 3.96954-2.69226-4.10927 2.48895z" fill="#fff"/></g><g transform="matrix(100.00001 0 0 100.00001 -16212.723 -31970.509)"><path d="m1359.2852 206.21484v42.81045c.8256 3.63634 4.3802 8.86466 0 9.46428v34.64286c2.2685 6.66962 2.014 9.69489 0 10.17857v28.11673l.1132.0117c-1.8311 15.26731 11.3902 31.05808 35.3653 42.23828 40.2841 18.78424 98.5018 19.25381 130.0332 1.04883 10.9969-6.34912 17.7024-14.45514 19.3105-23.34375l.416.0449v-32.82115c-3.6611-4.00749-.603-7.53504 0-11.23795v-17.04632-17.42513c-1.9795-2.62487-.5323-6.53475 0-10.10153v-44.58077z" fill="#c254d2" transform="matrix(.26458333 0 0 .26458333 213.51147 117.44184)"/><path d="m1511.0723 201.13281v175.38672c27.991 1.75465 54.3026-3.00958 71.58-12.96094 10.9969-6.34912 17.7024-14.45514 19.3106-23.34375l.416.0449v-35.79548c-2.4672-1.03533-.6291-5.14589 0-8.39286v-35c-3.0588-2.00769-.3365-6.18332 0-9.46428v-44.56027z" fill="#800080" fill-opacity=".378788" transform="matrix(.26458333 0 0 .26458333 198.20392 120.39674)"/><path d="m399.26932 47.538762a24.587889 12.374217 5.3523284 0 1 4.1928 17.720651 24.587889 12.374217 5.3523284 0 1 -34.40484-.277721 24.587889 12.374217 5.3523284 0 1 -4.1928-17.720652 24.587889 12.374217 5.3523284 0 1 34.40484.277722z" fill="url(#M)" transform="translate(213.51147 117.44184)"/><path d="m360.07765 67.469107c-.32689.05948-.37588.184314-.21345.973642.6909 3.357295 3.99089 6.656698 9.26618 9.116625 10.65824 4.970095 26.06162 5.094568 34.40462.278019 2.60414-1.503428 4.28318-3.369479 4.92039-5.407723.29727-.950893.13394-.73655-.0341-1.743061-.0838.490627.008-.230326-.19153.24023-.7648 1.807329-2.36592 3.449392-4.69472 4.793887-8.343 4.816549-23.74638 4.692076-34.40462-.278019-4.35202-2.029381-7.39461-4.648682-8.69508-7.422681-.30086-.641752-.14225-.590115-.35765-.550919z" fill="#dc85e9" transform="translate(213.51147 117.44184)"/><path d="m359.86611 80.093665c.69505 3.354105 3.99383 6.649708 9.26427 9.107376 10.65824 4.970095 26.06162 5.094568 34.40462.278019 2.31538-1.33672 3.89944-2.960101 4.67014-4.736298.63117-2.049842.0811-2.665602-.17666-1.740394-.82648 1.636319-2.35244 3.123932-4.49348 4.360025-8.343 4.816549-23.74638 4.692076-34.40462-.278019-4.22045-1.968032-7.20945-4.490856-8.57238-7.17154-1.00303-2.679736-.83622-.01819-.69189.180831z" fill="#dc85e9" transform="translate(213.51147 117.44184)"/><path d="m362.33756 62.407434s3.07361 3.207234 7.61719 4.677217v30.86963s-5.48831-2.568003-7.88445-6.414468z" fill="#f2cbf8" fill-opacity=".328283" transform="translate(213.51147 117.44184)"/><path d="m399.26932 47.538774a24.587889 12.374217 5.3523284 0 1 4.1928 17.720651 24.587889 12.374217 5.3523284 0 1 -34.40483-.277721 24.587889 12.374217 5.3523284 0 1 -4.1928-17.720652 24.587889 12.374217 5.3523284 0 1 34.40483.277722z" fill="none" stroke="url(#N)" stroke-width=".661458" transform="translate(213.51147 117.44184)"/><path d="m408.37403 72.765468c-.0838.490627.008-.230326-.19153.24023-.7648 1.807329-2.36592 3.449392-4.69472 4.793887-8.343 4.816549-23.74638 4.692076-34.40462-.278019-4.35202-2.029381-7.39461-4.648682-8.69508-7.422681-.39139-.754243-.48415-1.350113-.61755-2.251812" fill="none" stroke="url(#P)" stroke-width=".661458" transform="translate(213.51147 117.44184)"/><path d="m408.32623 84.141333c-.0838.490627.008-.230326-.19152.24023-.76481 1.807329-2.36592 3.449392-4.69473 4.793887-8.34299 4.816549-23.74638 4.692076-34.40461-.278019-4.35202-2.029381-7.39461-4.648682-8.69508-7.422681-.39139-.754243-.48415-1.350113-.61755-2.251812" fill="none" stroke="url(#Q)" stroke-width=".661458" transform="translate(213.51147 117.44184)"/><path d="m407.16374 63.860652s-3.07361 3.20723-7.61719 4.67722v30.869614s5.48831-2.56799 7.88445-6.414455z" fill="#fae09b" fill-opacity=".233645" transform="translate(213.51147 117.44184)"/><g fill="#c254d2"><ellipse cx="620.89801" cy="321.11084" rx="2.52235" ry="2.46636" transform="matrix(.97780241 -.20952909 0 1 0 0)"/><ellipse cx="621.05994" cy="333.25952" rx="2.52235" ry="2.46636" transform="matrix(.97780241 -.20952909 0 1 0 0)"/><ellipse cx="621.05988" cy="344.66287" rx="2.52235" ry="2.46636" transform="matrix(.97780241 -.20952909 0 1 0 0)"/></g></g><path d="m40415.065-8831.9511 26.726-9808.7919 5318.666 2458.879 5131.574 6013.564-80.182 6334.2889z" fill="none" stroke="#c8f99b" stroke-linejoin="miter" stroke-width="136.500015"/><g transform="matrix(100.00001 0 0 100.00001 2740.8051 -21594.252)"><g transform="translate(18.465201 -5.271322)"><path d="m329.26837-66.508049h64.88588v51.906273h-64.88588z" fill="url(#R)" transform="matrix(.90630779 .42261826 0 1 0 0)"/><path d="m301.18245 122.62422v-44.77158l52.50896 24.25668-.25106 43.01974z" fill="#fff"/><g fill="#d36118" stroke-width="1.208751" transform="matrix(.8273003 0 0 .8273003 56.855429 18.221759)"><rect height="3.705949" rx=".667341" ry=".879644" transform="matrix(.90630779 .42261826 0 1 0 0)" width="51.241714" x="335.6734" y="-58.036438"/><rect height="3.705949" ry=".898447" transform="matrix(.90630779 .42261826 0 1 0 0)" width="27.207424" x="347.58627" y="-49.572815"/><rect height="3.705949" ry=".863892" transform="matrix(.90630779 .42261826 0 1 0 0)" width="27.782621" x="333.92886" y="-39.668106"/><rect height="3.705949" ry=".656558" transform="matrix(.90630779 .42261826 0 1 0 0)" width="27.782621" x="333.92886" y="-31.690172"/><rect height="3.705949" ry=".898447" transform="matrix(.90630779 .42261826 0 1 0 0)" width="27.782621" x="333.92886" y="-23.712236"/></g><path d="m357.1135 100.12771c.59594-1.393427.95287-2.786854-1.25509-4.180281l-49.64529-22.784733c-4.7767-1.944705-5.83732-.829098-7.76529-.427786z" fill="#fce8db"/><path d="m359.93427 100.95873-.73499 49.42508-2.08578 1.64727-.0195-51.77645c.6163-1.206863.32175-2.48826-.67548-4.075804 1.28875.957599 3.06079 2.655103 3.51582 4.779904z" fill="#f09e6f"/><path d="m353.69141 102.10932-52.50897-24.256681.1202 44.969281" fill="none" stroke="#c87137" stroke-linejoin="miter" stroke-width=".665"/></g><path d="m319.57885 72.949408.189 44.601192-46.30208-13.79613z" fill="url(#S)"/><g fill="#f60" fill-opacity=".122449"><path d="m319.60383 118.46014c12.01899-13.41728 28.8104-20.977497 52.28995-20.329547l-52.19221-24.434544z"/><path d="m319.75044 117.89049c5.61283-30.115397 25.91054-31.228138 52.28995-20.329537l-52.19221-24.434545z"/></g></g><g fill="#63bbee" transform="matrix(50.40576 23.275465 0 49.914397 12395.20061508352 -19689.47597254184)"><path d="m412.26767 34.729843h8.098758v3.468551h-8.098758z"/><path d="m412.26767 44.971111h8.098758v3.468551h-8.098758z"/><path d="m412.26767 55.212368h8.098758v3.468551h-8.098758z"/><path d="m432.87268 76.756599h29.396147v3.441448h-29.396147z" transform="matrix(.99982093 .0189238 0 1 0 0)"/><path d="m433.2327 67.697182h29.396147v3.441448h-29.396147z" transform="matrix(.99982093 .01892381 0 1 0 0)"/><path d="m433.1001 59.194202h29.396147v3.441449h-29.396147z" transform="matrix(.99982093 .01892382 0 1 0 0)"/></g><path d="m39562.60700000001 3098.2939-521.176 334.087 1122.531 527.857 1062.398-587.994-935.445-407.585z" fill="#35536f" fill-opacity=".358586"/><path d="m41286.629 2155.9989-521.176 334.087 1122.532 527.857 1062.394-587.992-935.442-407.585z" fill="#35536f" fill-opacity=".358586"/><path d="m42836.659 1187.3169-521.176 334.084 1122.532 527.86 1062.397-587.995-935.445-407.585z" fill="#35536f" fill-opacity=".358586"/><g transform="matrix(100.00001 0 0 100.00001 -115.37285 -19168.832)"><g transform="translate(49.787095 -32.071537)"><path d="m384.57895 241.81972-.055-33.01994 9.88276-6.19747.20045 33.50051z" fill="url(#U)"/><path d="m384.59899 241.82712-10.95618-5.05855v-33.04237l10.95803 4.94448z" fill="url(#V)"/><path d="m373.70961 203.7262 10.28987-5.94675 10.35672 4.87766-9.73865 6.0971z" fill="#faa"/><path d="m374.21144 203.02807-.55837.78314 10.95395 4.94186.0354-1.04062z" fill="#a0e695"/><path d="m384.59626 207.68418.0134 1.08035 9.88013-6.14082-.60136-.71829z" fill="#48cd34"/><path d="m374.21142 203.02807 9.80477-5.61612 9.87224 4.49347-9.29217 5.77876z" fill="#92e285"/><path d="m378.25526 204.84616 6.16446 3.04001.18111 5.13599.10596-5.16713 3.96954-2.69226-4.10927 2.48895z" fill="#fff"/></g><path d="m425.72026 197.63674 2.16469-1.5273 3.15662 12.05527-5.22682-2.307z" fill-opacity=".141414"/><g transform="translate(33.767038 -7.835296)"><path d="m384.57895 227.00305-.055-18.20327 9.88276-6.19747.20045 18.68384z" fill="url(#W)"/><path d="m384.59899 227.01045-10.95618-5.05855v-18.2257l10.95803 4.94448z" fill="#f2d25e"/><path d="m373.70961 203.7262 10.28987-5.94675 10.35672 4.87766-9.73865 6.0971z" fill="#faa"/><path d="m374.21144 203.02807-.55837.78314 10.95395 4.94186.0354-1.04062z" fill="#fbe8a1"/><path d="m384.59626 207.68418.0134 1.08035 9.88013-6.14082-.60136-.71829z" fill="#f4da7a"/><path d="m374.21142 203.02807 9.80477-5.61612 9.87224 4.49347-9.29217 5.77876z" fill="#f9db6f"/><path d="m378.25526 204.84616 6.16446 3.04001.18111 5.13599.10596-5.16713 3.96954-2.69226-4.10927 2.48895z" fill="#fff"/></g><path d="m409.13655 194.80192 3.12781 2.44538 3.34086 20.67995-6.56317-2.84154z" fill-opacity=".141414"/><path d="m401.4867 228.82136-.055-42.82891 9.88276-6.19747.20045 43.30948z" fill="url(#X)"/><path d="m401.50674 228.81206-10.95618-5.05855v-42.83464l10.95803 4.94448z" fill="url(#Y)"/><path d="m390.61736 180.91887 10.28987-5.94675 10.35672 4.87766-9.73865 6.0971z" fill="#faa"/><path d="m391.11919 180.22074-.55837.78314 10.95395 4.94186.0354-1.04062z" fill="#df884e"/><path d="m401.50401 184.87685.0134 1.08035 9.88013-6.14082-.60136-.71829z" fill="#d36118"/><path d="m391.11917 180.22074 9.80477-5.61612 9.87224 4.49347-9.29217 5.77876z" fill="#f09e6f"/><path d="m395.16301 182.03883 6.16446 3.04001.18111 5.13599.10596-5.16713 3.96954-2.69226-4.10927 2.48895z" fill="#fff"/><path d="m394.20649 205.47974.68046 3.40572 4.04818 18.44058-7.56346-2.94749z" fill-opacity=".141414"/><path d="m384.57895 238.64472-.055-29.84494 9.88276-6.19747.20045 30.32551z" fill="url(#Z)"/><path d="m384.59899 238.65212-10.95618-5.05855v-29.86737l10.95803 4.94448z" fill="url(#aa)"/><path d="m373.70961 203.7262 10.28987-5.94675 10.35672 4.87766-9.73865 6.0971z" fill="#faa"/><path d="m374.21144 203.02807-.55837.78314 10.95395 4.94186.0354-1.04062z" fill="#94d0f3"/><path d="m384.59626 207.68418.0134 1.08035 9.88013-6.14082-.60136-.71829z" fill="#259fe4"/><path d="m374.21142 203.02807 9.80477-5.61612 9.87224 4.49347-9.29217 5.77876z" fill="#63bbee"/><path d="m378.25526 204.84616 6.16446 3.04001.18111 5.13599.10596-5.16713 3.96954-2.69226-4.10927 2.48895z" fill="#fff"/><g fill="none" stroke-linejoin="miter" stroke-width=".264583"><path d="m383.80305 197.72015-9.54389 5.38616-.51972.85045.0472 17.19791" stroke="url(#ab)"/><path d="m400.68841 174.93769-9.54389 5.38616-.51972.85045.0472 17.19791" stroke="url(#ac)"/><path d="m433.58889 165.60902-9.54389 5.38616-.51972.85045.0472 17.19791" stroke="url(#ad)"/></g></g><path d="m48490.602-31764.625h3793.7617v3438.3159h-3793.7617z" fill="url(#ae)" transform="matrix(.90630779 .42261826 0 1 0 0)"/><circle cx="46019.566" cy="-10596.291" fill="url(#af)" r="4405.6411"/><path d="m43947.38900000001-10254.479v2421.1959l2029.588 946.403a2087.8673 1315.1624 51.562129 0 0 262.881-769.773 2087.8673 1315.1624 51.562129 0 0 -1657.11-2429.7739 2087.8673 1315.1624 51.562129 0 0 -635.359-168.052z" fill-opacity=".146465" stroke-width="20.00004"/><ellipse cx="48213.809" cy="-29035.418" fill="url(#ag)" rx="1828.3756" ry="1657.071" stroke-width="21.008402" transform="matrix(.90630779 .42261826 0 1 0 0)"/><circle cx="252.37251" cy="303.46469" fill="#fff" r="3.474504" transform="matrix(100.00001 0 0 100.00001 31341.995 -46112.302)"/><path d="m42219.367-28426.754h2655.2837v2000.7061h-2655.2837z" fill-opacity=".19697" transform="matrix(.90332647 .42895372 0 1 0 0)"/><path d="m43579.62000000001-7224.2321 815.514-1520.449 898.449 1299.293s-200.424 539.069-684.202 656.558c-483.781 117.489-1029.761-435.402-1029.761-435.402z" fill-opacity=".149533"/><path d="m44122.69-8733.4591 1984.375 4228.902-3825.121-1783.683z" fill="url(#ah)"/><g transform="matrix(100.00001 0 0 100.00001 299.21615 -24955.315)"><g transform="translate(27.796031 70.559155)"><path d="m444.8875 172.59959-6.52537-4.05781-8.65954-8.24688 1.87088-1.13589z" fill="#9e7b21"/><path d="m438.83034 134.18154-2.17336 27.97024 5.00819 4.63021 1.43039-30.18598z" fill="#e3b641"/><path d="m431.33291 153.15918-4.0844-1.79293c-.59469-.14771-1.10185.20905-1.36722.95836l-3.96539 10.9611 5.00819 1.41741 3.56677-10.81236z" fill="#fce365"/><path d="m444.16724 172.1413c.75508.78134 2.18083.86667 2.21551-.88473l1.51902-29.13753 21.92263-12.00074.56695-7.74851-27.59226 14.07961-1.7009 27.11979-9.69042-10.35619c-.31017-.19385-.67098-.21253-.80865.25824l-3.9585 11.23188 4.63021 3.40179 1.88986-6.4256z" fill="url(#ai)"/><path d="m470.76934 122.1808-5.0082-1.79538-26.9308 13.89062 4.06326 2.26786z" fill="#fce365"/><g fill="none" stroke-linejoin="miter"><path d="m437.59398 151.9505 1.11169-16.8373c.0696-.80585.474-1.00896.85962-1.24592l14.06251-7.21153" stroke="url(#aj)" stroke-width=".265"/><path d="m441.68288 154.24552 1.11169-16.8373c.0696-.80585.474-1.00896.85962-1.24592l26.23091-13.46677" stroke="url(#ak)" stroke-width=".465"/></g></g><g fill="#c87137" stroke-width=".264583" transform="matrix(3.1686717 -1.8294334 0 3.1686717 -1012.833522 569.87205)"><path d="m472.40459 163.29092-1.72479-2.62072-.0102-.1317.0738-.0743h1.58885l1.12137 1.83968 1.13171-1.83968h1.788l-1.88101 2.82669 1.96886 2.95072h-1.79316l-1.2144-1.9792-1.21956 1.9792h-1.788z" fill="#c87137" stroke-width=".264583"/><path d="m476.37331 160.46423 1.52488 1.60998-1.78799.00001-1.52488-1.60999z" fill="#fce365"/><path d="m474.58531 160.46425-1.39067 2.32543 1.78381 1.12419 1.13172-1.83968z" fill="#e3b641"/><path d="m473.85712 162.07421-1.52489-1.60998h-1.56956l-.0604.0893.0356.11509 1.33125 1.40556z" fill="#fce365"/><path d="m471.97093 167.85163-1.52488-1.60999 1.95854-2.95072 1.52488 1.60999z" fill="#fce365"/><path d="m470.67148 160.5936 1.73311 2.69732 1.52488 1.60999-1.86035-2.82669z" fill="#9e7b21"/><path d="m476.19289 167.85163-1.52488-1.60999-.535-1.66609.84548 1.29688z" fill="#9e7b21"/><g fill="none" stroke-linejoin="miter" stroke-width=".083631"><path d="m471.99031 162.61018-1.27162-1.94463c-.0819-.12376-.002-.17426.0857-.17407l1.39886.0171" stroke="url(#al)"/><path d="m473.72595 161.91281.7677-1.3016c.0653-.12055.16703-.12029.25473-.1201l1.40431-.002" stroke="url(#am)"/></g></g><path d="m472.40459 163.29092-1.86035-2.82669h1.788l1.12137 1.83968 1.13171-1.83968h1.788l-1.88101 2.82669 1.96886 2.95072h-1.79316l-1.2144-1.9792-1.21956 1.9792h-1.788z" fill="#ce9f2d" transform="matrix(3.1686718 -1.8294334 0 3.1686718 -1008.001722 572.18388)"/></g><g fill="#d86115" transform="matrix(100.00001 0 0 100.00001 2841.3041 -21747.275)"><path d="m387.18848-47.661526h41.496532v30.805059h-41.496532z" fill="#d86115" transform="matrix(.90630779 .42261826 0 1 0 0)"/><path d="m355.23222 148.80308 10.09025-8.56981h12.16359l7.87871-4.97601" fill="#d86115" stroke="#ac9d93" stroke-linejoin="miter" stroke-width="1.265"/><path d="m352.53802 119.43857 33.82458 15.63093v24.02294l-33.82458-15.63093z" fill="#ffece0"/></g><path d="m355.23222 148.80308 14.87588 1.00144 7.37796-9.57125 13.55056-1.78559" fill="none" stroke="#ac9d93" stroke-linejoin="miter" stroke-width="1.622133" transform="matrix(77.983767 0 0 77.983767 10717.774 -18876.11)"/><path d="m41525.902-24805.143h4106.0044v1986.3566h-4106.0044z" fill-opacity=".19697" transform="matrix(.91367516 .4064452 0 1 0 0)"/><path d="m27425.765-6159.2551s-654.811 2619.241 347.449 5171.66501l-253.904 106.908s-1162.622-2204.97401-253.905-5452.29901z" fill="#fcf9f9"/><g transform="matrix(100.00001 0 0 100.00001 3799.1381 -20694.668)"><path d="m259.1178 134.52971s-7.21628 15.368.53454 51.18211l-20.98066 11.8935s-6.81537-20.71339-6.41447-29.26601c.40091-8.55263 3.34087-24.85607 3.34087-24.85607z" fill="url(#an)"/><path d="m258.18236 132.92609 1.33635 1.46998-23.38609 10.95806-1.60361-1.87089z" fill="#fff"/><path d="m257.95703 136.93513-18.61717 33.94324 16.97161 11.75985-13.36347-13.49711z" fill="#280b0b" fill-opacity=".121212"/><path d="m236.13544 146.51795 15.83358 20.91597-12.11953 30.88526c-6.65965-15.45987-9.52007-32.18614-3.71405-51.80123z" fill-opacity=".065657"/><path d="m234.97852 145.07106 15.20449 20.7334 8.98447-31.1001z" fill-opacity=".126263"/><path d="m259.25827 134.37066-16.98749 34.91308 17.27783 16.03383c-6.34867-26.11911-2.09817-37.59449-.29034-50.94691z" fill="#e3dbdb"/></g><path d="m44125.6-8730.8591 2011.142 4277.992" fill="#eeb755" stroke="#c58614" stroke-linejoin="miter" stroke-width="56.500008"/><path d="m44243.92700000001-8375.9481 1425.373 3017.375" fill="none" stroke="url(#ao)" stroke-linejoin="miter" stroke-width="31.750004"/><rect fill="#fff" height="446.25189" ry="27.890751" stroke="#fff" stroke-linecap="round" stroke-width="108.818497" transform="matrix(.90630779 .42261826 0 1 0 0)" width="492.38452" x="48376.695" y="-29426.691"/><rect fill="#fff" height="446.25189" ry="27.890751" stroke="#fff" stroke-linecap="round" stroke-width="108.818497" transform="matrix(.90630779 .42261826 0 1 0 0)" width="492.38452" x="50598.766" y="-26240.045"/><g transform="matrix(100.00001 0 0 100.00001 3467.4041 -21911.027)"><path d="m243.48143 85.138641 69.49008-39.689525" fill="none" stroke="#fff" stroke-linejoin="miter" stroke-width="1.365"/><circle cx="241.94662" cy="86.028236" fill="#fff" r="3.474504"/></g><ellipse cx="36790.832" cy="-7530.4448" fill="none" rx="373.25143" ry="141.74107" stroke="#000" stroke-linecap="round" stroke-width="132.291672" transform="matrix(.94319134 .33225004 -.33225004 .94319134 0 0)"/><path d="m43233.867 3219.4129 805.561 415.774" fill="none" stroke="#8599b2" stroke-linejoin="miter" stroke-width="26.458334"/><g transform="matrix(100.00001 0 0 100.00001 4462.6071 -19892.977)"><path d="m471.94604 241.67504-39.15498 31.67146s-13.66416 7.85103-34.37754-3.37427c-.89044-1.48455-.40032-2.10625.10168-2.72051l33.74132-23.97306s1.00136-.52067 2.68649.27331c4.08336 1.92394 13.60124 5.74379 22.83775 2.80029 12.16076-3.87541 14.16528-4.67722 14.16528-4.67722z" fill="url(#ap)"/><path d="m440.85214 208.30331c.3956.73156 11.91575 17.2085 1.56062 49.14062l-2.80633 8.28538s13.63075-14.9671 12.82894-35.68049c-.53716-13.87671-5.63965-22.81325-9.30227-25.41435-.84265-.59843-1.83553.23542-2.18571 1.2162-.3997 1.1195-.49085 1.72109-.0952 2.45264z" fill="#e1e1e1"/><path d="m478.01103 186.60411c-1.28822-1.54137-2.86428-1.09435-3.36196-.83233l-30.35417 17.98095c-2.42442.89076-2.38036 4.26077-1.66796 5.50007 0 0 17.19401 28.14186-9.8313 64.04958l43.27828-32.69493s14.97726-16.5837 1.93711-54.00334z" fill="url(#aq)"/><path d="m478.59102 188.30221c.0322-.95385-1.93634-5.53172-6.77861-2.65358l-27.68695 16.5726c-2.47511 1.23244-3.2941 3.06435-3.11931 3.5676l2.40887-1.49814 29.91811-17.76738c.7739-.35723 2.31258-1.22405 3.18655-.62657s2.07134 2.40547 2.07134 2.40547z" fill="#e1e1e1"/><path d="m482.31268 206.39566c-.19312.7314-.38695 1.6556-.5819 2.8143-2.8998 17.23773-32.41473 44.9127-41.27275 52.78598-1.88568 3.63572-3.43032 6.47869-6.25906 10.23715l41.87481-31.62556s8.59544-11.46479 6.2389-34.21187z" fill-opacity=".10101"/><g fill="none" stroke-linejoin="miter"><path d="m398.36523 269.90173c-.23564.18138 27.84198 13.86786 37.41772-.46772" stroke="#fff" stroke-width=".264583"/><path d="m459.51619 205.68389 16.91445-10.77232" stroke="#436557" stroke-opacity=".39899" stroke-width="1.137708"/><path d="m461.57076 212.79109 16.91445-10.77232" stroke="#436557" stroke-opacity=".39899" stroke-width="1.137708"/><path d="m450.87834 225.93526 29.76564-18.70982" stroke="#436557" stroke-opacity=".39899" stroke-width="1.137708"/><path d="m451.72879 232.83333 29.76564-18.70982" stroke="#436557" stroke-opacity=".39899" stroke-width="1.137708"/><path d="m450.50036 240.95982 29.76564-18.70982" stroke="#436557" stroke-opacity=".39899" stroke-width="1.137708"/><path d="m446.48437 209.39881s2.45684 5.48065 3.59077 11.0558l8.59897-5.57515s-1.03944-6.61458-3.40179-10.48884z" stroke="#88a275" stroke-width=".79375"/></g><path d="m478.92859 191.48495-11.53311 7.03715s4.59369 10.7512 4.88691 16.81097c.29321 6.05977.39094 5.18012.39094 5.18012l10.84895-5.18012s-.19547-10.26251-2.24798-13.68335c-2.0525-3.42083-2.34571-10.16477-2.34571-10.16477z" fill-opacity=".088785"/><path d="m469.90756 196.98552s4.35401 12.1636 4.35401 17.83073 3.31734 2.76445 3.31734 2.76445l9.26092-5.80535s.91378-1.32191.82934-5.25246c-.0857-3.99132-3.10321-14.50265-3.49012-15.61916 0 0-.50105-2.33251-2.79901-2.4189-3.04188-.11435-10.29758 4.63046-10.29758 4.63046s-2.3498 1.58956-1.1749 3.87023z" fill="#e3e2db"/><path d="m423.12008 254.81929 12.55934.73304c2.90251.31621 3.57991 1.15161 2.57463 2.37964l-9.46516 9.78877c-2.04546 1.8522-5.89755 1.40297-8.21.87964l-17.39739-4.49596 13.87883-10.45798z" fill-opacity=".172897"/><path d="m422.17912 266.12916s-16.81098-3.42085-23.65263-6.15752c-6.84167-2.73666-.1955-5.27785-.1955-5.27785l12.90145-8.50324s2.05251-1.07512 5.3756.29322c3.32311 1.36833 10.65347 4.39822 15.44264 4.39822s5.27786-1.07512 5.27786-1.07512 3.22535.39095.48868 3.90952c-2.73666 3.51859-8.28906 9.4858-8.28906 9.4858s-2.75534 3.31791-7.34904 2.92697z" fill="#f4e3d7"/></g><g transform="matrix(100.00001 0 0 100.00001 4723.8731 -20164.675)"><g fill="#43c330" transform="translate(-7.847699 -2.607845)"><path d="m368.38699-26.489141h48.21604v44.495002h-48.21604z" fill="#43c330" transform="matrix(.90630779 .42261826 0 1 0 0)"/><g fill="#92e285" transform="matrix(1 .46630766 0 1 0 -165.8756)"><path d="m335.87482 175.07083h8.856065v6.366026h-8.856065z"/><path d="m346.12946 175.07083h8.856064v6.366026h-8.856064z"/><path d="m356.38406 175.07083h8.856063v6.366026h-8.856063z"/><path d="m366.63867 175.07083h8.856063v6.366026h-8.856063z"/></g><g fill="#43c330" transform="matrix(1 .46630766 0 1 0 -165.61101)"><path d="m335.87482 166.60413h8.856065v6.366026h-8.856065z" fill="#53a41a"/><g fill="#92e285"><path d="m346.12946 166.60413h8.856064v6.366026h-8.856064z"/><path d="m356.38406 166.60413h8.856063v6.366026h-8.856063z"/><path d="m366.63867 166.60413h8.856063v6.366026h-8.856063z"/></g></g><g fill="#43c330" transform="matrix(1 .46630766 0 1 0 -165.87558)"><path d="m335.87482 158.66658h8.856065v6.366026h-8.856065z" fill="#92e285"/><path d="m346.12946 158.66658h8.856064v6.366026h-8.856064z" fill="#92e285"/><path d="m356.38406 158.66658h8.856063v6.366026h-8.856063z" fill="#53a41a"/><path d="m366.63867 158.66658h8.856063v6.366026h-8.856063z" fill="#92e285"/></g><g fill="#92e285" transform="matrix(1 .46630766 0 1 0 -165.61099)"><path d="m335.87482 150.19987h8.856065v6.366026h-8.856065z"/><path d="m346.12946 150.19987h8.856064v6.366026h-8.856064z"/><path d="m356.38406 150.19987h8.856063v6.366026h-8.856063z"/><path d="m366.63867 150.19987h8.856063v6.366026h-8.856063z"/></g><g fill="#18a303" transform="matrix(1 .46630766 0 1 0 -165.87556)"><path d="m335.87482 142.26233h8.856065v6.366026h-8.856065z"/><path d="m346.12946 142.26233h8.856064v6.366026h-8.856064z"/><path d="m356.38406 142.26233h8.856063v6.366026h-8.856063z"/><path d="m366.63867 142.26233h8.856063v6.366026h-8.856063z"/></g><path d="m377.57057 149.5749 3.55576-2.10894-43.23082-19.9784-4.02352 1.71037z" fill="#92e285"/><path d="m381.12633 147.46596v44.55578l-3.55576 2.04817v-44.49501z" fill="#18a303"/><path d="m333.94665 129.41885 43.75076 20.03275-.0945 31.27752" fill="none" stroke="url(#ar)" stroke-linejoin="miter" stroke-width=".264583"/><path d="m377.51692 194.11272.14174-44.50669" fill="none" stroke="url(#as)" stroke-linejoin="miter" stroke-width=".264583"/><path d="m371.35972 146.6189 6.16447 3.04001.18106 5.13599.10589-5.16712 2.89832-1.89748-3.03806 1.69417z" fill="#fff"/></g><g fill="none" stroke-linejoin="miter" stroke-width=".529167"><g transform="matrix(-1 0 0 -1 716.08884 311.7414)"><path d="m358.84276 152.9379-.0334 6.58151" stroke="#18a303"/><path d="m367.66264 163.42823-8.92011-4.14268" stroke="#fff" stroke-opacity=".843434"/></g><g transform="matrix(-1 0 0 -1 726.31886 316.60476)"><path d="m358.84276 152.9379-.0334 6.58151" stroke="#18a303"/><path d="m367.66264 163.42823-8.92011-4.14268" stroke="#fff" stroke-opacity=".843434"/></g><g transform="matrix(-1 0 0 -1 705.86578 307.0642)"><path d="m358.84276 152.9379-.0334 6.58151" stroke="#18a303"/><path d="m367.66264 163.42823-8.92011-4.14268" stroke="#fff" stroke-opacity=".843434"/></g><g transform="matrix(-1 0 0 -1 695.5759 302.25334)"><path d="m358.84276 152.9379-.0334 6.58151" stroke="#18a303"/><path d="m367.66264 163.42823-8.92011-4.14268" stroke="#fff" stroke-opacity=".843434"/></g><g transform="matrix(-1 0 0 -1 695.57242 310.44564)"><path d="m358.84276 152.9379-.0334 6.58151" stroke="#18a303"/><path d="m367.66264 163.42823-8.92011-4.14268" stroke="#fff" stroke-opacity=".843434"/></g><g transform="matrix(-1 0 0 -1 705.80244 315.30898)"><path d="m358.84276 152.9379-.0334 6.58151" stroke="#18a303"/><path d="m367.66264 163.42823-8.92011-4.14268" stroke="#fff" stroke-opacity=".843434"/></g><g transform="matrix(-1 0 0 -1 726.3154 324.79704)"><path d="m358.84276 152.9379-.0334 6.58151" stroke="#18a303"/><path d="m367.66264 163.42823-8.92011-4.14268" stroke="#fff" stroke-opacity=".843434"/></g><g transform="matrix(-1 0 0 -1 705.80244 323.59434)"><path d="m358.84276 152.9379-.0334 6.58151" stroke="#18a303"/><path d="m367.66264 163.42823-8.92011-4.14268" stroke="#fff" stroke-opacity=".843434"/></g><g transform="matrix(-1 0 0 -1 716.0255 328.27154)"><path d="m358.84276 152.9379-.0334 6.58151" stroke="#18a303"/><path d="m367.66264 163.42823-8.92011-4.14268" stroke="#fff" stroke-opacity=".843434"/></g><g transform="matrix(-1 0 0 -1 726.3154 333.0824)"><path d="m358.84276 152.9379-.0334 6.58151" stroke="#18a303"/><path d="m367.66264 163.42823-8.92011-4.14268" stroke="#fff" stroke-opacity=".843434"/></g><g transform="matrix(-1 0 0 -1 695.43878 326.74908)"><path d="m358.84276 152.9379-.0334 6.58151" stroke="#18a303"/><path d="m367.66264 163.42823-8.92011-4.14268" stroke="#fff" stroke-opacity=".843434"/></g><g transform="matrix(-1 0 0 -1 705.6688 331.61242)"><path d="m358.84276 152.9379-.0334 6.58151" stroke="#18a303"/><path d="m367.66264 163.42823-8.92011-4.14268" stroke="#fff" stroke-opacity=".843434"/></g><g transform="matrix(-1 0 0 -1 715.89186 336.28964)"><path d="m358.84276 152.9379-.0334 6.58151" stroke="#18a303"/><path d="m367.66264 163.42823-8.92011-4.14268" stroke="#fff" stroke-opacity=".843434"/></g><g transform="matrix(-1 0 0 -1 726.18176 341.10048)"><path d="m358.84276 152.9379-.0334 6.58151" stroke="#18a303"/><path d="m367.66264 163.42823-8.92011-4.14268" stroke="#fff" stroke-opacity=".843434"/></g></g><path d="m358.78302 5.465524h9.486268v6.464963h-9.486268z" fill="#c8fabc" transform="matrix(.90741355 .42023881 0 1 0 0)"/><g fill="none" stroke-linejoin="miter" stroke-width=".529167" transform="matrix(-1 0 0 -1 693.29174 319.56032)"><path d="m358.84276 152.9379-.0334 6.58151" stroke="#18a303"/><path d="m367.66264 163.42823-8.92011-4.14268" stroke="#fff" stroke-opacity=".843434"/></g><path d="m381.86035-2.58793h9.486268v6.464963h-9.486268z" fill="#c8fabc" transform="matrix(.90741354 .42023882 0 1 0 0)"/><g fill="none" stroke-linejoin="miter" stroke-width=".529167" transform="matrix(-1 0 0 -1 714.1595 321.43754)"><path d="m358.84276 152.9379-.0334 6.58151" stroke="#18a303"/><path d="m367.66264 163.42823-8.92011-4.14268" stroke="#fff" stroke-opacity=".843434"/></g></g><g transform="matrix(100.00001 0 0 100.00001 11237.671 -50058.506)"><circle cx="252.37251" cy="303.46469" fill="#fff" r="3.474504"/><path d="m252.77342 303.33106 90.797-50.83167" fill="none" stroke="#fff" stroke-linejoin="miter" stroke-width="1.365"/></g><path d="m35587.197-2634.0931-75.594 1066.232c20.254 671.47601-251.367 613.27001-507.812 592.99801l-4766.659-2268.41501c-493.221-234.598-331.113-516.005-362.924-783.561l59.754-943.272c1046.887-981.215 5759.712 978.534 5653.235 2336.018z" fill="url(#at)"/><path d="m32971.608-1923.0321 801.81-1002.262 1256.165 601.354 240.543 1349.71201-307.359-40.09001z" fill-opacity=".156566"/><path d="m30481.017-6462.1941 5556.25 2636.384-468.882 1556.301-5640.625-2697.943z" fill="#fff"/><g fill="#63bbee" transform="matrix(50.40576 23.275465 0 49.914397 10246.845 -20565.873)"><path d="m396.50705 131.96461h47.200222v3.441449h-47.200222z"/><path d="m396.50705 142.12587h47.200222v3.441449h-47.200222z"/><path d="m396.50705 152.28711h47.200222v3.441449h-47.200222z"/></g><g transform="matrix(100.00001 0 0 100.00001 1250.5801 -21637.248)"><path d="m315.1881 205.10908 3.71744-1.8356 3.67851-8.40954-2.60713-.73937z" fill="#b38a27"/><g fill="#f9db6f"><path d="m329.22499 211.8288 3.25597-2.69496-13.57542-5.86036-3.71744 1.8356z"/><path d="m330.20861 195.38608 3.71336-1.51425-12.28073-5.83661-3.71744 1.8356z"/><path d="m339.17 225.35768 3.85-1.99578-11.61131-5.26365-4.25198 2.13628z"/><path d="m314.70524 214.96722 3.71744-1.8356-10.63-4.84176-3.71744 1.8356z"/></g><path d="m311.65052 213.5349 3.60812-1.90429 1.93773-4.87767-3.4745 1.20271z" fill="#b38a27"/><path d="m314.75924 221.27427 3.77346-2.0933-.11002-6.04935-3.96179 1.88447z" fill="#b38b27"/><path d="m339.171 233.03025 3.77346-2.0933.0574-7.57361-4.02192 2.01162z" fill="#ce9f2d"/><path d="m336.33891 223.9974 3.63983-2.00978-6.05677-28.11579-4.19714 1.51425z" fill="#ce9f2d"/><path d="m317.9238 189.87082-10.86937 21.66454-2.97919-1.4099.0169 6.02849 10.66712 5.12032-.054-6.30705-3.10302-1.44973 2.15653-5.64968 16.0453 7.76188 1.2267 6.26571-3.87406-1.66087-.0332 6.85529 12.04749 5.94043-.001-7.67257-2.83105-1.36028-6.13024-28.61132zm1.74659 5.05197 6.85276 3.18909 2.70184 13.71692-14.03689-6.71972z" fill="#e3b641"/><path d="m323.72767 192.50024 6.18889 2.94227 1.40284 5.08712-1.0121-5.03187 3.27944-1.45918-3.52284 1.04854z" fill="#fff"/></g><g fill="#63bbee" transform="matrix(-32.810431 -15.833556 -14.570352 37.839044 50512.34 -2401.3701)"><path d="m396.50705 131.96461h47.200222v3.441449h-47.200222z"/><path d="m396.50705 142.12587h47.200222v3.441449h-47.200222z"/><path d="m396.50705 152.28711h47.200222v3.441449h-47.200222z"/></g><g transform="matrix(100.00001 0 0 100.00001 4353.9191 -21089.183)"><path d="m261.06532 118.79846c1.90067-1.47895 5.12799-4.14388 7.06897-5.69264l24.09676 10.34567c2.40995.93458 4.0969 2.39276 3.74983 5.32397l.18899 20.12373c-.0296 2.82535-1.39985 2.44664-2.64583 2.36496l-30.00187-13.83492c-2.88828-.87437-2.81732-2.57664-2.72778-4.68651z" fill-opacity=".328283"/><path d="m260.32683 117.62113c1.90067-1.48523 5.12799-4.16146 7.06897-5.71679l24.09676 10.38955c2.40995.93855 4.0969 2.40291 3.74983 5.34655l.18899 20.20909c-.0296 2.83735-1.39985 2.45703-2.64583 2.375l-30.00187-13.8936c-2.88828-.87808-2.81732-2.58757-2.72778-4.7064z" fill="url(#au)"/><path d="m257.09447 120.75067c1.90067-1.47895 5.12799-4.14388 7.06897-5.69264l24.09676 10.34567c2.40995.93458 4.0969 2.39276 3.74983 5.32397l.18899 20.12373c-.0296 2.82535-1.39985 2.44664-2.64583 2.36496l-30.00187-13.83492c-2.88828-.87437-2.81732-2.57664-2.72778-4.68651z" fill-opacity=".328283"/><path d="m256.35598 119.57334c1.90067-1.48523 5.12799-4.16146 7.06897-5.71679l24.09676 10.38955c2.40995.93855 4.0969 2.40291 3.74983 5.34655l.18899 20.20909c-.0296 2.83735-1.39985 2.45703-2.64583 2.375l-30.00187-13.8936c-2.88828-.87808-2.81732-2.58757-2.72778-4.7064z" fill="url(#av)"/><g clip-path="url(#aw)" transform="matrix(.99999999 .46630765 0 .99999999 -27.034488 -101.76361)"><path d="m288.11514 84.812251 2.06081-2.72861h25.53145v21.544639h-30.04911v-15.250602z" fill="#9ebfc8"/><circle cx="315.23215" cy="81.973587" fill="#fea" r="4.110491"/><path d="m286.78021 97.406955 8.61942-10.645756 1.67043.971102 2.47226-1.541303 3.20723 8.422413 6.41448-7.483546 2.20496.935442 1.60361-.534537 5.41222 7.951268-2.07135 2.873148-27.06103-.08753z" fill="#808080"/><path d="m295.46645 86.663222-3.94221 7.670492 3.00677-3.59571-1.33635 4.209494.66818.801809 9.15397.868627-.20045-2.004523 6.21403-7.483546-3.8754 8.15172 1.20271.734991 2.87314-3.541321 1.60361 4.476766 1.73726 1.403165-28.19693-1.385516 4.00904-2.55113z"/><path d="m298.44047 90.555092.68043 6.537542 4.48847.661458.6142-1.842635-4.68636-9.772092z" fill="#a4a4a4"/><path d="m313.05878 87.690475 2.88205 6.898065-.66146.992188-3.1183-3.212798 3.3073 6.283854 2.55135.0945.89768-2.74033z" fill="#9c9c9c"/><path d="m310.64917 89.060638-1.08667 3.023809 1.93712 1.039437z" fill="#b3b3b3"/><path d="m285.32477 97.943077h29.151413v6.18936h-29.151413z" fill="#c2d7dd"/><path d="m317.68899 97.187127-14.50483-.708705-9.59115.897692-5.43343-.425223-2.9293-.850445-1.03945 2.551338 13.22917.330729 13.13468 1.275667.99219.8977-5.62239 1.84263-4.15775 2.55134 14.12687-.28348 1.70088-2.55134z" fill="#8eb244"/></g><path d="m270.4315 117.23167c-3.19668 4.88056-5.14939 6.90589-11.52744 4.23209l-2.70791-1.36681 7.06123-5.98542z" fill-opacity=".171717"/><path d="m263.39297 113.57243-6.99257 6.3311 5.48066 1.88985c1.42701.23008 1.78485-.89248 1.7009-2.17336z" fill="#edeadd"/></g><path d="m35646.829-5791.9691-1400.873-675.331-7.78-1891.129 1368.608 652.125z" fill="url(#ax)"/><g fill="#63bbee" transform="matrix(-32.810431 -15.833556 -14.570352 37.839044 47120.005 -4026.6661)"><path d="m396.50705 131.96461h47.200222v3.441449h-47.200222z"/><path d="m396.50705 142.12587h47.200222v3.441449h-47.200222z"/><path d="m396.50705 152.28711h47.200222v3.441449h-47.200222z"/></g><g fill="#63bbee" transform="matrix(-32.810431 -15.833556 -14.570352 37.839044 48802 -3214.0191)"><path d="m396.50705 131.96461h47.200222v3.441449h-47.200222z"/><path d="m396.50705 142.12587h47.200222v3.441449h-47.200222z"/><path d="m396.50705 152.28711h47.200222v3.441449h-47.200222z"/></g><g transform="matrix(100.00001 0 0 100.00001 17581.43 -11134.095)"><path d="m336.73624 65.401303-.0945-23.660067c.41125-2.449971-.6758-4.521967 2.67269-7.349914l25.75124-15.073865c1.89058-.594195 5.5758.739417 5.54262 3.839512l-1.09632 25.132367c.009 5.078643-.853 5.664121-2.25559 7.213497l-25.31116 13.962867c-4.29745 2.312958-5.26147-1.483875-5.20898-4.064397z" fill="#fff"/><path d="m1798.5 496.22852c-6.634 8.31459-5.1416 15.18469-5.248 22.8789l.3574 89.42383c-.7305 8.35275 3.0319 21.55963 15.4006 21.47975l-4.9589-127.5967z" fill="#c3b1b1" transform="matrix(.26458333 0 0 .26458333 -137.82292 -95.605724)"/><path d="m338.17422 66.336845-.0945-23.660068c.0692-2.352233-.6758-4.521967 2.67269-7.349914l25.75124-15.073865c1.89058-.594195 4.57398.641679 4.5408 3.741774l-.0945 25.230106c.009 5.078642-.853 5.66412-2.25559 7.213497l-25.31116 13.962865c-4.29745 2.312961-5.23703-1.435006-5.20898-4.064395z" fill="#e3dbdb"/><g fill="#fff"><path d="m342.07672 57.134569-.0417-7.781732 7.49141-4.69785.15194 8.146017z"/><path d="m342.32956 67.757024-.0417-7.781732 7.49141-4.69785.15194 8.146017z"/><path d="m351.30362 52.081349-.0417-7.781732 7.4914-4.69785.15195 8.146017z"/><path d="m351.55645 62.703804-.0417-7.781732 7.49141-4.69785.15194 8.146017z"/></g><path d="m360.71549 57.815308-.0417-18.365065 7.49141-4.69785.15194 18.72935z" fill="#e95e19"/><path d="m341.87925 46.588753-.0417-7.781732 25.82326-14.147255.0574 7.390065z" fill="#916f6f"/><path d="m344.40131 52.471649q-.18791.108488-.31317.05554-.12528-.05294-.12528-.240847 0-.187907.12528-.377676.12526-.189765.31317-.298253l3.18658-1.839774q.18791-.108488.31318-.05554.12527.04512.12527.233024 0 .187906-.12527.385498-.12527.189766-.31318.298254zm1.58154.613636q-.21922.126567-.36797.07152-.14093-.05956-.14093-.278785v-3.053479q0-.219221.14875-.446036.14876-.226814.36799-.353387.22705-.131086.36015-.067.14093.05957.14093.278786v3.053479q0 .219221-.14093.441517-.14093.222295-.36799.353385z" fill="#916f6f"/><path d="m345.26078 59.831944q.22706-.131091.38364-.02576l2.61504 1.739428q.10178.06651.10178.223097 0 .195733-.14876.422547-.14877.22682-.32884.330784-.22705.131091-.38364.01793l-2.61503-1.739425q-.10178-.06651-.10178-.223097 0-.203567.14093-.418029.14875-.218987.33666-.327475zm.008 4.192051q-.15658.0904-.31317.06337-.14876-.03939-.14876-.211636 0-.156591.11744-.365326l1.19791-2.155711.46976.511722-.94736 1.744865q-.14876.281625-.37582.412716zm2.6072-5.701847q.18791-.108488.31319-.04771.13309.04843.13309.212843 0 .07829-.0235.170132-.0234.09183-.0861.198477l-1.18225 2.123185-.49325-.39638.96302-1.832195q.15659-.301802.37581-.42837z" fill="#916f6f"/><path d="m355.81902 55.541428q-.27112.156531-.4207.102657-.14024-.06861-.14024-.339746v-.158934q0-.27112.14024-.492325.14958-.235959.4207-.39249l.12155-.07018q.27112-.15653.41136-.08791.14958.05387.14958.324991v.158939q0 .271129-.14958.50708-.14024.221204-.41136.377735zm0 3.655521q-.27112.156532-.4207.102658-.14024-.06863-.14024-.339747v-.158931q0-.271129.14024-.492332.14958-.235951.4207-.392482l.12155-.07018q.27112-.156531.41136-.08791.14958.05387.14958.324999v.158929q0 .271129-.14958.507081-.14024.221203-.41136.377735z" fill="#916f6f"/><path d="m363.26538 48.100731q-.19573.113007-.32883.06458-.13311-.05625-.13311-.236328 0-.180079.13311-.374367.1331-.202116.32883-.315122l3.1396-1.812652q.20357-.117526.32884-.06458.1331.0406.1331.220678 0 .180072-.1331.390017-.12527.197596-.32884.315122zm0 1.518912q-.19573.113006-.32883.06458-.13311-.05625-.13311-.236336 0-.180072.13311-.37436.1331-.202122.32883-.315129l3.1396-1.812652q.20357-.117526.32884-.06458.1331.0406.1331.220671 0 .180079-.1331.390025-.12527.197596-.32884.315122z" fill="#fff"/><path d="m353.80036 47.808447c-.13049.07534-.2401.09686-.32883.06458-.0887-.0375-.13311-.116276-.13311-.236327 0-.120053.0444-.244842.13311-.374367.0887-.134744.19834-.239785.32883-.315122l3.1396-1.812652c.13571-.07835.24533-.09988.32884-.06458.0887.02707.1331.100626.1331.220678 0 .120048-.0444.250054-.1331.390017-.0835.131731-.19313.236771-.32884.315122z" fill="#916f6f"/><path d="m354.50003 58.025367c-.13049.07534-.2401.09686-.32883.06458-.0887-.0375-.13311-.116275-.13311-.236326 0-.120053.0444-.244842.13311-.374367.0887-.134744.19834-.239785.32883-.315122l3.1396-1.812652c.13571-.07835.24533-.09988.32884-.06458.0887.02707.1331.100626.1331.220678 0 .120048-.0444.250054-.1331.390017-.0835.131731-.19313.236771-.32884.315122z" fill="#916f6f"/><path d="m338.17422 66.336841-.0945-23.660067c.0692-2.352233-.6758-4.521967 2.67269-7.349914l25.75124-15.073864" fill="none" stroke="url(#ay)" stroke-linejoin="miter" stroke-width=".365"/></g><path d="m40466.204-18641.721 18.902 7827.716-6233.827-4105.762z" fill="url(#az)"/><g transform="matrix(100.00001 0 0 100.00001 -14110.745 4228.2319)"><path d="m409.69366 4.5432536c.37631 12.0189184 0-2.4309 0 9.3167354l.03.0031c-.48448 4.039475 3.01366 8.217449 9.35707 11.175544 10.6585 4.969997 26.06193 5.094237 34.40462.277503 2.90959-1.679872 4.68376-3.824589 5.10923-6.176367l.11007.01188c-.24072-11.8278757 0 .573981 0-11.4333957-14.1241-6.066478-29.94614-8.29023531-49.01099-3.1749997z" fill="#eeba5a"/><path d="m418.44251 14.498069-.55288 10.021144 2.28066.829337 15.61917-3.593791 14.78981 4.976016-.34554-10.021141-17.76161-12.163594z" fill="#b48b27"/><path d="m450.233 34.213518-17.73533-12.16877-14.00279 10.0707a24.587889 12.374217 5.3523284 0 0 .61185.31109 24.587889 12.374217 5.3523284 0 0 31.12627 1.78698z" fill="#b24403"/><path d="m418.65907 21.560097v10.360248l18.08154 2.73667 13.29241-.586431.0977-10.457984-12.90142-5.3756-10.16479.195476-3.02988 2.443454z" fill="#b64503"/><path d="m450.23301 23.630169-17.73533-12.168767-14.00279 10.070703a24.587889 12.374217 5.3523284 0 0 .61185.311092 24.587889 12.374217 5.3523284 0 0 31.12627 1.786972z" fill="#e1742f"/><path d="m431.60367-6.2837683a24.587889 12.374217 5.3523284 0 0 -16.68994 3.5269167 24.587889 12.374217 5.3523284 0 0 3.58116 17.4097896l14.00279-10.0707031 17.73533 12.1687671a24.587889 12.374217 5.3523284 0 0 3.27835-1.509469 24.587889 12.374217 5.3523284 0 0 -4.19251-17.7203657 24.587889 12.374217 5.3523284 0 0 -17.71518-3.8049356z" fill="url(#aA)"/></g><g transform="matrix(100 46.630767 0 100 -1617.4129 -16474.947)"><path d="m293.87684-81.15475-.27645 5.988426c-8.77897 10.095855-43.18451 31.794199-43.87901 25.995174v-43.06967c0-2.80713 2.25989-5.06702 5.06702-5.06702h22.89987" fill="#fcf395"/><path d="m293.85179-80.244588 1.52045 30.583491c.13623 2.740294-2.25989 5.067019-5.06702 5.067019h-34.02143c-2.80713-.000001-5.61926-2.057234-5.06702-5.06702l3.45557-18.833386c.55223-3.009787 4.21987-15.062322 6.72569-14.410276l26.49366 6.893993" fill="#45546f"/><path d="m293.83476-79.917764v31.9836c0 2.80713-2.25989 5.06702-5.06702 5.06702h-34.02143c-2.80713 0-5.06702-2.25989-5.06702-5.06702v-43.06967c0-2.80713 2.25989-5.06702 5.06702-5.06702h22.89987" fill="#8999b5"/><path d="m279.35757-81.503164 14.29623 12.3961.0905-11.12935-8.23391-6.06232-3.89075.0905z" fill-opacity=".141414"/><path d="m293.90154-79.913314-16.17731-16.1773v11.11043c0 2.80713 2.25975 5.06687 5.06687 5.06687z" fill="#e3dbdb"/><g fill-opacity=".363636"><rect fill="#e3dbdb" height="2.714475" ry="1.357238" width="25.452942" x="261.44205" y="-71.821533"/><rect fill="#e3dbdb" height="2.714475" ry="1.357238" width="25.452938" x="261.74506" y="-63.949551"/><rect fill="#e3dbdb" height="2.714475" ry="1.357238" width="25.452938" x="262.0481" y="-56.529995"/><rect fill="#e3dbdb" height="2.714475" ry="1.357238" width="13.180984" x="261.89655" y="-80.598358"/><circle cx="256.05829" cy="-87.837036" fill="#483737" r="2.081098"/><circle cx="256.05829" cy="-75.863144" fill="#483737" r="2.081098"/><circle cx="256.05832" cy="-63.889263" fill="#483737" r="2.081098"/><circle cx="256.05829" cy="-51.915379" fill="#483737" r="2.081098"/></g></g><g transform="matrix(100.00001 0 0 100.00001 2436.2121 -39597.399)"><circle cx="252.37251" cy="303.46469" fill="#fff" r="3.474504"/><path d="m252.77342 303.33106 66.86385-38.03085" fill="none" stroke="#fff" stroke-linejoin="miter" stroke-width="1.365"/></g><g transform="matrix(-195.73528 14.677415 0 195.28444 91519.775 -27770.093)"><path d="m337.74285 81.40875-.68386.494918-.7241-.348778.56319-18.629893 13.11407-6.872377s1.85046-.945481 2.97682.260106c1.12636 1.205586 1.0459 1.735795 1.0459 1.735795l-10.78089 22.381535z" fill="#18a303"/><path d="m338.02444 63.445142 12.83248-6.568972s.76431.02319 1.44817.495957c.68388.472762.40228 2.026092.40228 2.026092l-11.14293 6.038785z" fill="#fff"/><path d="m340.07978 83.666075s-.45514-2.702811-2.27561-2.28088l.22755-17.864745s1.53603-.514596 2.73072.935186c1.19469 1.449781.79646 1.650776.79646 1.650776z" fill="#ccc"/><path d="m340.19672 65.499481 1.17295-.650156 12.6652-6.720162v19.031084l-13.25487 7.397306-.70397-.501757z" fill="url(#aB)"/><path d="m353.98935 59.013855-12.99935 7.04978-.81098-.584333 13.86721-7.353551z" fill="#92e285"/><path d="m350.78588 58.333541 1.94741 1.355108-3.34557 1.915584-2.14715-1.452707z" fill="#f95"/><path d="m352.16838 60.049048-.0543 16.345971-1.55756-.549704-1.62609 2.285431.0171-16.375693z" fill="#68802e"/><g stroke-width=".406165" transform="matrix(-1.2578502 .71559821 0 1.2607541 550.70715 -192.59091)"><g transform="matrix(.01 0 0 .01 108.38347 102.51776)"><path d="m5459 988h273v272h-273z" fill="none"/><path d="m5485 988c-10 0-20 6-24 16-4 9-2 20 5 27l220 220c7 8 18 10 28 6 9-4 16-13 16-23v-221c0-13-12-25-26-25z" fill="#769932"/></g><g transform="matrix(.01 0 0 .01 108.38347 102.51776)"><path d="m4859 988h871v1055h-871z" fill="none"/><path d="m4885 988c-14 0-26 12-26 26v1001c0 13 12 25 26 26h819c13 0 25-13 25-26v-645c0-7-2-13-7-18l-354-356c-5-5-12-8-19-8zm25 52h428l340 341v608h-768z" fill="#769932"/></g></g><path d="m352.72081 59.698175-.16662 16.391952-1.55756-.549705-1.62609 2.285431-.0455-16.258391z" fill="#e95e19"/><path d="m340.96274 66.06445-.10593 18.516976-.8121-.505205.15568-18.574874z" fill="#18a303"/><path d="m344.10666 64.377179-3.03704 1.666103-.12995 3.979231-.0166-3.984154-.70477-.524879.77616.415404z" fill="#fff"/></g><path d="m46634.344 8367.2839s1447.001-624.375 1737.267-1011.397c730.09-768.204 1061.534-1987.222 1061.534-1987.222l1848.135-1001.334c198.118-148.587-818.909 2020.465-1509.281 2617.727-373.205 359.378-1962.765 1147.247-1962.765 1147.247-476.361 170.116-854.673 234.018-1174.89 234.979z" fill="#f4e3d7"/><path d="m51428.934-7612.0281s-178.372 153.938-190.59 432.492l139.279 95.295s26.879-273.667 117.285-361.632c90.408-87.964-65.974-166.155-65.974-166.155z" fill="#fff" fill-opacity=".387755"/><g fill="none" stroke-linejoin="miter"><path d="m43901.116 7592.5859s1955.415 834.383 2609.54 755.973c1422.89-170.561 2739.68-1856.724 2913.85-2957.944" stroke="url(#aC)" stroke-width="96.5"/><path d="m35631.81700000001-5838.5491-34.555-1848.729" stroke="#aa5117" stroke-linecap="round" stroke-width="66.5"/><path d="m34256.502-8316.1911 1340.76 628.913" stroke="#f9dcab" stroke-linecap="round" stroke-width="56.500008"/><path d="m34999.449-7922.2561 559.803 252.256 17.277 919.181" stroke="url(#aD)" stroke-width="26.458334"/><path d="m365.19167-379.22861.26726-98.08792 53.18664 24.5888 51.31575 60.13565-.80182 63.34286z" filter="url(#aE)" stroke="#f9f79b" stroke-width="2.065" transform="matrix(100.00001 0 0 100.00001 3799.1381 28980.335)"/><path d="m43979.304-11241.561 3411.065 1583.3579" stroke="#fcf395" stroke-width="56.500008"/><path d="m47380.596-6227.5921-19.551-3450.158" stroke="#d36721" stroke-width="26.458334"/><path d="m37939.08600000001-10156.667 3743.37 1749.5129" stroke="#fcf395" stroke-width="46.5"/></g><g transform="matrix(100.00001 0 0 100.00001 22033.473 -29992.882)"><circle cx="252.37251" cy="303.46469" fill="#fff" r="3.474504"/><path d="m252.77342 303.33106 121.48679-68.03359" fill="none" stroke="#fff" stroke-linejoin="miter" stroke-width="1.365"/></g></g></svg>