<svg enable-background="new 0 0 100 100" height="100" viewBox="0 0 100 100" width="100" xmlns="http://www.w3.org/2000/svg" xmlns:xlink="http://www.w3.org/1999/xlink"><linearGradient id="a" gradientUnits="userSpaceOnUse" x1="78.936" x2="25.5192" y1="92.5195" y2="21.6147"><stop offset="0" stop-color="#a26325"/><stop offset="1" stop-color="#c9974f"/></linearGradient><linearGradient id="b" gradientUnits="userSpaceOnUse" x1="14.1821" x2="23.2017" y1="51.1128" y2="51.1128"><stop offset="0" stop-color="#2f1600"/><stop offset=".0419" stop-color="#46290c"/><stop offset=".1048" stop-color="#6f4c21"/><stop offset="1" stop-color="#2f1600"/></linearGradient><linearGradient id="c" gradientUnits="userSpaceOnUse" x1="35.5566" x2="35.5566" y1="8.4692" y2="69.2704"><stop offset="0" stop-color="#a7ec75"/><stop offset=".4462" stop-color="#9be566"/><stop offset="1" stop-color="#88da4e"/></linearGradient><linearGradient id="d" gradientUnits="userSpaceOnUse" x1="35.5566" x2="35.5566" y1="9.5015" y2="66.2019"><stop offset="0" stop-color="#cefbad"/><stop offset=".0333" stop-color="#c0f69e"/><stop offset=".0968" stop-color="#9ae878"/><stop offset=".1095" stop-color="#92e56f"/><stop offset="1" stop-color="#25be4c"/></linearGradient><path d="m19.575 11.94c-1.435 0-2.602 1.167-2.602 2.602v73.164c0 1.435 1.167 2.603 2.602 2.603h64.351c1.435 0 2.603-1.168 2.603-2.603v-73.164c0-1.435-1.168-2.602-2.603-2.602z" fill="#e3bb95"/><path d="m83.925 11.231h-64.351c-1.826 0-3.311 1.485-3.311 3.311v73.164c0 1.826 1.485 3.313 3.311 3.313h64.351c1.826 0 3.311-1.486 3.311-3.313v-73.164c0-1.826-1.485-3.311-3.311-3.311zm-66.243 3.311c0-1.045.847-1.892 1.892-1.892h64.351c1.045 0 1.892.847 1.892 1.892v73.164c0 1.045-.847 1.894-1.892 1.894h-64.351c-1.045 0-1.892-.849-1.892-1.894z" fill="#270f00"/><path d="m16.075 11.94c-1.435 0-2.602 1.167-2.602 2.602v73.164c0 1.435 1.167 2.603 2.602 2.603h63.351c1.435 0 2.603-1.168 2.603-2.603v-73.164c0-1.435-1.168-2.602-2.603-2.602z" fill="url(#a)"/><path d="m79.425 11.231h-63.351c-1.826 0-3.311 1.485-3.311 3.311v73.164c0 1.826 1.485 3.313 3.311 3.313h63.351c1.826 0 3.311-1.486 3.311-3.313v-73.164c0-1.826-1.485-3.311-3.311-3.311zm-65.243 3.311c0-1.045.847-1.892 1.892-1.892h63.351c1.045 0 1.892.847 1.892 1.892v73.164c0 1.045-.847 1.894-1.892 1.894h-63.351c-1.045 0-1.892-.849-1.892-1.894z" fill="#270f00"/><path d="m23.202 12.627h-7.127c-1.045 0-1.893.848-1.893 1.893v73.187c0 1.045.848 1.893 1.893 1.893h7.127z" fill="url(#b)"/><path d="m23.149 12.627h1.632v76.972h-1.632z" fill="#e3bb95"/><path d="m79.425 12.649h-63.35c-1.045 0-1.893.848-1.893 1.893v2c0-1.045.848-1.893 1.893-1.893h63.351c1.045 0 1.893.848 1.893 1.893v-2c-.001-1.045-.849-1.893-1.894-1.893z" fill="#fff" opacity=".2"/><path d="m16.075 89.32h63.35c1.045 0 1.893-.848 1.893-1.893v-2c0 1.045-.848 1.893-1.893 1.893h-63.35c-1.045 0-1.893-.848-1.893-1.893v2c .001 1.046.848 1.893 1.893 1.893z" fill="#fff" opacity=".2"/><g opacity=".2"><path d="m27.987 12.249v52.826s6.613-7.975 7.533-9.084c.927 1.105 7.606 9.067 7.606 9.067v-52.869z"/><path d="m43.835 11.477-1.425.006-13.72.054-1.413.005v1.414 36.873 13.279 3.935l2.512-3.028 5.734-6.916 5.806 6.921 2.506 2.987v-3.899-50.206zm-15.139 1.479 13.72-.054v50.206l-6.9-8.225-6.82 8.225v-13.279z"/></g><path d="m27.987 9.749v52.826s6.613-7.974 7.533-9.084c.927 1.105 7.606 9.067 7.606 9.067v-52.869z" fill="url(#c)"/><path d="m43.835 8.977-1.425.006-13.72.054-1.413.005v1.414 36.873 13.279 3.935l2.512-3.029 5.734-6.915 5.806 6.921 2.506 2.988v-3.899-50.207zm-15.139 1.479 13.72-.054v50.206l-6.9-8.225-6.82 8.225v-13.279z" fill="#3c8009"/><path d="m28.933 10.692v49.26c.738-.89 6.583-7.938 6.583-7.938s5.926 7.064 6.664 7.944c0-1.261 0-48.854 0-49.319-.451.002-12.8.051-13.247.053z" fill="url(#d)"/><path d="m42.416 10.402-13.72.054v36.873 12.538.268.473l.302-.364.171-.207 6.347-7.654 6.427 7.661.169.201.304.363zm-13.247.525 12.774-.05v48.432l-6.065-7.229-.364-.435-.362.437-5.983 7.216v-11.969z" fill="#cefbad"/></svg>