<svg enable-background="new 0 0 100.001 100.001" height="100.001" viewBox="0 0 100.001 100.001" width="100.001" xmlns="http://www.w3.org/2000/svg" xmlns:xlink="http://www.w3.org/1999/xlink"><linearGradient id="a" gradientUnits="userSpaceOnUse" x1="50.3799" x2="50.3799" y1="-1.6919" y2="90.8452"><stop offset=".5" stop-color="#fff"/><stop offset=".6879" stop-color="#fdfdfd"/><stop offset=".7943" stop-color="#f4f4f4"/><stop offset=".8803" stop-color="#e7e7e7"/><stop offset=".9549" stop-color="#d3d3d3"/><stop offset="1" stop-color="#c3c3c3"/></linearGradient><linearGradient id="b" gradientUnits="userSpaceOnUse" x1="50.3799" x2="50.3799" y1="11.9199" y2="36.5519"><stop offset="0" stop-color="#cefbad"/><stop offset=".1446" stop-color="#c0f69e"/><stop offset=".4208" stop-color="#9ae878"/><stop offset=".4762" stop-color="#92e56f"/><stop offset="1" stop-color="#44c956"/></linearGradient><linearGradient id="c"><stop offset="0" stop-color="#ecebea"/><stop offset=".281" stop-color="#fff"/><stop offset=".4445" stop-color="#f0efee"/><stop offset="1" stop-color="#bebab6"/></linearGradient><linearGradient id="d" gradientUnits="userSpaceOnUse" x1="29.9277" x2="29.9277" xlink:href="#c" y1="10.5728" y2="24.0728"/><linearGradient id="e" gradientUnits="userSpaceOnUse" x1="72.4277" x2="72.4277" xlink:href="#c" y1="10.5728" y2="24.0728"/><linearGradient id="f" gradientUnits="userSpaceOnUse" x1="44.8965" x2="62.1104" y1="50.7715" y2="67.9851"><stop offset="0" stop-color="#fdf58d"/><stop offset=".324" stop-color="#f9ce6b"/><stop offset="1" stop-color="#f08026"/></linearGradient><path d="m19.748 16.727c-2.953 0-5.355 2.403-5.355 5.356v62.507c0 2.954 2.402 5.357 5.355 5.357h61.263c1.431 0 2.776-.558 3.788-1.569s1.569-2.357 1.569-3.788v-62.507c0-2.954-2.403-5.356-5.356-5.356z" fill="url(#a)"/><g fill="#7f7f7f"><path d="m81.011 15.882h-61.263c-3.419 0-6.201 2.782-6.201 6.202v62.506c0 3.421 2.782 6.202 6.201 6.202h61.263c1.657 0 3.214-.645 4.385-1.816s1.816-2.729 1.816-4.386v-62.506c0-1.657-.645-3.215-1.816-4.386s-2.729-1.816-4.385-1.816zm-65.774 6.202c0-2.492 2.019-4.511 4.51-4.511h61.263c2.491 0 4.51 2.019 4.51 4.511v62.506c0 2.491-2.019 4.512-4.51 4.512h-61.262c-2.491 0-4.51-2.021-4.51-4.512v-62.506z"/><path d="m78.428 22.823c0 1.105-.896 2-2 2h-5c-1.104 0-2-.895-2-2v-10c0-1.104.896-2 2-2h5c1.104 0 2 .896 2 2z" stroke="#7f7f7f" stroke-width="1.5"/><path d="m35.928 22.823c0 1.105-.896 2-2 2h-5c-1.104 0-2-.895-2-2v-10c0-1.104.896-2 2-2h5c1.104 0 2 .896 2 2z" stroke="#7f7f7f" stroke-width="1.5"/></g><path d="m19.748 16.823c-2.9 0-5.26 2.36-5.26 5.261v14.229h71.783v-14.23c0-2.901-2.36-5.261-5.261-5.261h-61.262z" fill="url(#b)"/><path d="m81.011 16.073h-61.263c-3.314 0-6.01 2.697-6.01 6.011v13.479 1.5h1.5 70.283 1.5v-1.5-13.479c0-1.606-.625-3.115-1.76-4.251-1.136-1.135-2.644-1.76-4.25-1.76zm-65.774 6.011c0-2.492 2.019-4.511 4.51-4.511h61.263c2.491 0 4.51 2.019 4.51 4.511v13.479h-70.283z" fill="#4da004"/><path d="m81.011 17.573h-61.263c-2.491 0-4.51 2.02-4.51 4.511v2c0-2.491 2.019-4.511 4.51-4.511h61.263c2.491 0 4.511 2.02 4.511 4.511v-2c-.001-2.492-2.02-4.511-4.511-4.511z" fill="#fff" opacity=".3"/><path d="m34.428 22.823c0 1.105-.896 2-2 2h-5c-1.104 0-2-.895-2-2v-10c0-1.104.896-2 2-2h5c1.104 0 2 .896 2 2z" fill="url(#d)" stroke="#7f7f7f" stroke-width="1.5"/><path d="m76.928 22.823c0 1.105-.896 2-2 2h-5c-1.104 0-2-.895-2-2v-10c0-1.104.896-2 2-2h5c1.104 0 2 .896 2 2z" fill="url(#e)" stroke="#7f7f7f" stroke-width="1.5"/><g fill="#89a6c6"><path d="m51.252 55.58h-1.5-10.138-1.5v1.5 10.14 1.5h1.5 10.139 1.5v-1.5-10.14-1.5zm-11.638 1.5h10.139v10.14h-10.139z"/><path d="m39.711 55.58h-1.5-10.14-1.5v1.5 10.14 1.5h1.5 10.14 1.5v-1.5-10.14zm-11.639 1.5h10.14v10.14h-10.14z"/><path d="m62.794 55.58h-1.5-10.14-1.5v1.5 10.14 1.5h1.5 10.14 1.5v-1.5-10.14zm-11.639 1.5h10.14v10.14h-10.14z"/><path d="m74.335 55.58h-1.5-10.14-1.5v1.5 10.14 1.5h1.5 10.14 1.5v-1.5-10.14zm-11.64 1.5h10.14v10.14h-10.14z"/><path d="m62.794 43.972h-1.5-10.14-1.5v1.5 10.138 1.5h1.5 10.14 1.5v-1.5-10.138zm-11.639 1.5h10.14v10.138h-10.14z"/><path d="m74.335 43.972h-1.5-10.14-1.5v1.5 10.138 1.5h1.5 10.14 1.5v-1.5-10.138zm-11.64 1.5h10.14v10.138h-10.14z"/><path d="m51.252 67.168h-1.5-10.138-1.5v1.5 10.141 1.5h1.5 10.139 1.5v-1.5-10.141-1.5zm-11.638 1.5h10.139v10.141h-10.139z"/><path d="m39.711 67.168h-1.5-10.14-1.5v1.5 10.141 1.5h1.5 10.14 1.5v-1.5-10.141zm-11.639 1.5h10.14v10.141h-10.14z"/><path d="m62.794 67.168h-1.5-10.14-1.5v1.5 10.141 1.5h1.5 10.14 1.5v-1.5-10.141zm-11.639 1.5h10.14v10.141h-10.14z"/></g><path d="m49.926 55.801h12.52v12.52h-12.52z" fill="url(#f)"/><path d="m63.194 55.052h-1.5-11.018-1.5v1.5 11.018 1.5h1.5 11.019 1.5v-1.5-11.018-1.5zm-12.518 1.5h11.019v11.018h-11.019z" fill="#c15e27"/></svg>