<svg enable-background="new 0 0 100 100" height="100" viewBox="0 0 100 100" width="100" xmlns="http://www.w3.org/2000/svg" xmlns:xlink="http://www.w3.org/1999/xlink"><linearGradient id="a" gradientUnits="userSpaceOnUse" x1="50" x2="50" y1="14.1362" y2="93.2161"><stop offset="0" stop-color="#fdf58d"/><stop offset=".0662" stop-color="#f9de75"/><stop offset=".1482" stop-color="#f5c85f"/><stop offset=".2451" stop-color="#f2b84e"/><stop offset=".365" stop-color="#f0ac43"/><stop offset=".5331" stop-color="#eea63c"/><stop offset="1" stop-color="#eea43a"/></linearGradient><linearGradient id="b" gradientUnits="userSpaceOnUse" x1="88.3516" x2="26.8348" y1="102.9043" y2="26.4303"><stop offset="0" stop-color="#add7f3"/><stop offset="1" stop-color="#fff"/></linearGradient><linearGradient id="c" gradientUnits="userSpaceOnUse" x1="69.7881" x2="64.2052" y1="79.8711" y2="74.7052"><stop offset="0" stop-color="#8cb6cd"/><stop offset=".3524" stop-color="#b7dcf4"/><stop offset="1" stop-color="#e5f2fb"/></linearGradient><linearGradient id="d" gradientUnits="userSpaceOnUse" x1="42.248" x2="54.025" y1="8.313" y2="25.3589"><stop offset="0" stop-color="#e6e6e6"/><stop offset="1" stop-color="#979797"/></linearGradient><path d="m21.546 15.589c-3.066 0-5.56 2.494-5.56 5.56v68.581c0 3.066 2.494 5.562 5.56 5.562h56.907c3.066 0 5.56-2.495 5.56-5.562v-68.581c0-3.066-2.494-5.56-5.56-5.56z" fill="url(#a)"/><path d="m78.453 14.872h-56.907c-3.462 0-6.278 2.816-6.278 6.278v68.58c0 3.463 2.816 6.279 6.278 6.279h56.907c3.462 0 6.278-2.816 6.278-6.279v-68.58c0-3.462-2.816-6.278-6.278-6.278zm-61.75 6.278c0-2.675 2.168-4.843 4.843-4.843h56.907c2.675 0 4.843 2.168 4.843 4.843v68.58c0 2.676-2.168 4.845-4.843 4.845h-56.907c-2.675 0-4.843-2.169-4.843-4.845z" fill="#c07b5d"/><path d="m79.883 18.569c1.187 0 2.276.372 3.142.991-.658-1.893-2.454-3.254-4.571-3.254h-56.908c-2.117 0-3.912 1.361-4.57 3.254.865-.619 1.954-.991 3.141-.991z" fill="#fff" opacity=".31"/><path d="m20.117 92.066c-1.187 0-2.275-.372-3.141-.991.658 1.893 2.453 3.254 4.57 3.254h56.907c2.117 0 3.913-1.361 4.571-3.254-.865.619-1.955.991-3.142.991z" fill="#5a3d1c" opacity=".1"/><path d="m22.561 22.079h54.878v66.299h-54.878z" fill="#73a2d7"/><path d="m24.061 23.579v63.299h51.878c0-2.796 0-60.503 0-63.299-2.758 0-49.119 0-51.878 0z" fill="url(#b)"/><path d="m75.939 75.488-11.053 11.39 11.041.027z" fill="#c3d9f1"/><path d="m64.058 74.132 11.67-.527-.842 1.999-10.776 10.776-.157-2.628z" fill="url(#c)"/><path d="m77.439 73.942v-3.125h-1.5c-.174 1.986-2.305 2.421-2.564 2.466-.135 0-10.292 0-10.292 0v10.805c-.001.265-.079 2.402-2.334 2.726v1.564h2.683zm-12.856 10.147v-9.306h8.915l.055-.008c.401-.06.91-.203 1.426-.449l-10.555 10.875c.152-.585.159-1.037.159-1.112z" fill="#73a2d7"/><path d="m39.861 11.803c-.782 0-6.611 0-6.611 0-2.146 0-3.893 1.747-3.893 3.894v8.885h41.287v-8.885c0-2.147-1.746-3.894-3.892-3.894 0 0-5.696 0-6.476 0-1.331-4.148-5.435-7.017-10.208-7.017-4.774.001-8.878 2.869-10.207 7.017zm8.252.755c0-1.031.839-1.87 1.871-1.87 1.031 0 1.87.839 1.87 1.87 0 1.032-.839 1.871-1.87 1.871-1.032-.001-1.871-.84-1.871-1.871z" fill="url(#d)"/><path d="m50.067 4.149c-2.576 0-5.002.776-7.017 2.245-1.695 1.236-2.975 2.905-3.676 4.772h-6.125c-2.499 0-4.531 2.033-4.531 4.532v8.247 1.276h1.276 40.011 1.276v-1.276-8.247c0-2.499-2.032-4.532-4.53-4.532h-5.989c-.702-1.867-1.982-3.537-3.678-4.772-2.014-1.469-4.441-2.245-7.017-2.245zm-20.073 11.549c0-1.798 1.457-3.256 3.255-3.256h7.057c1.049-4.023 5.02-7.017 9.761-7.017 4.742 0 8.712 2.994 9.763 7.017h6.921c1.797 0 3.254 1.458 3.254 3.256v8.247h-40.011zm19.989-5.648c-1.385 0-2.508 1.123-2.508 2.508 0 1.386 1.123 2.509 2.508 2.509s2.508-1.123 2.508-2.509c0-1.385-1.123-2.508-2.508-2.508zm0 3.741c-.679 0-1.232-.553-1.232-1.233 0-.679.553-1.232 1.232-1.232s1.232.553 1.232 1.232c0 .68-.553 1.233-1.232 1.233z" fill="#868686"/><path d="m66.751 12.441h-6.921c-1.051-4.023-5.021-7.017-9.763-7.017s-8.712 2.993-9.762 7.017h-7.055c-1.798 0-3.255 1.458-3.255 3.256v.321c.414-1.332 1.67-2.301 3.156-2.301h7.157c1.065-4.023 5.092-7.017 9.902-7.017 4.808 0 8.834 2.993 9.9 7.017h7.02c1.221 0 2.285.656 2.855 1.629-.173-1.632-1.556-2.905-3.234-2.905z" fill="#fff" opacity=".5"/></svg>