<svg enable-background="new 0 0 106 106" height="106" viewBox="0 0 106 106" width="106" xmlns="http://www.w3.org/2000/svg" xmlns:xlink="http://www.w3.org/1999/xlink"><linearGradient id="a"><stop offset=".0052" stop-color="#1a1a1a"/><stop offset=".5464" stop-color="#515151"/><stop offset=".9381"/></linearGradient><linearGradient id="b" gradientUnits="userSpaceOnUse" x1="53.2603" x2="53.2603" xlink:href="#a" y1="139.3457" y2="12.0597"/><linearGradient id="c" gradientUnits="userSpaceOnUse" x1="52.1978" x2="52.1978" xlink:href="#a" y1="73.3604" y2="24.1914"/><linearGradient id="d" gradientUnits="userSpaceOnUse" x1="52.1978" x2="52.1978" xlink:href="#a" y1="69.9277" y2="26.5052"/><linearGradient id="e" gradientUnits="userSpaceOnUse" x1="53.1753" x2="53.1753" xlink:href="#a" y1="5.5889" y2="98.4574"/><linearGradient id="f" gradientUnits="userSpaceOnUse" x1="53.1753" x2="53.1753" xlink:href="#a" y1="13.5566" y2="96.7297"/><linearGradient id="g"><stop offset="0" stop-color="#fff"/><stop offset="1" stop-color="#a1c1ea"/></linearGradient><linearGradient id="h" gradientUnits="userSpaceOnUse" x1="53.0688" x2="53.0688" xlink:href="#g" y1="41.4873" y2="80.7441"/><linearGradient id="i" gradientUnits="userSpaceOnUse" x1="53.0659" x2="53.0659" xlink:href="#g" y1="45.9619" y2="79.6283"/><linearGradient id="j" gradientUnits="userSpaceOnUse" x1="34.0513" x2="59.7528" xlink:href="#g" y1="21.0415" y2="62.0927"/><linearGradient id="k" gradientUnits="userSpaceOnUse" x1="34.624" x2="59.2814" xlink:href="#g" y1="22.0444" y2="61.4279"/><linearGradient id="l"><stop offset="0" stop-color="#fff"/><stop offset="1"/></linearGradient><linearGradient id="m" gradientUnits="userSpaceOnUse" x1="53.2612" x2="53.2612" xlink:href="#l" y1="28.6157" y2="76.7216"/><linearGradient id="n" gradientUnits="userSpaceOnUse" x1="53.2612" x2="53.2612" xlink:href="#l" y1="18.7349" y2="77.5632"/><mask id="o" height="40.057" maskUnits="userSpaceOnUse" width="82.054" x="12.233" y="42.306"><path d="m1.125 60.171s42.885 17.955 100.227-27.856c-18.533-11.98-43.274-14.644-43.274-14.644l-23.342.994-22.458 15.334z" fill="url(#p)"/></mask><linearGradient id="p" gradientTransform="matrix(.9976 .0697 -.0697 .9976 74.1153 140.0455)" gradientUnits="userSpaceOnUse" x1="-46.5562" x2="-24.4725" xlink:href="#l" y1="-116.8696" y2="-84.9064"/><linearGradient id="q" gradientUnits="userSpaceOnUse" x1="81.2622" x2="88.2295" y1="62.1709" y2="71.2711"><stop offset="0" stop-color="#2fd452"/><stop offset="1" stop-color="#0a823a"/></linearGradient><mask id="r" height="7.742" maskUnits="userSpaceOnUse" width="7.74" x="80.26" y="62.048"><path d="m78.933 67.163s4.523 1.822 10.073-4.248c-1.985-1.303-4.54-1.416-4.54-1.416l-2.385.32-2.192 2.059z" fill="url(#s)"/></mask><linearGradient id="s" gradientUnits="userSpaceOnUse" x1="81.9741" x2="84.447" xlink:href="#l" y1="62.1504" y2="65.7296"/><path d="m21.86 31.826c-1.699 0-3.082 1.382-3.082 3.081v6.745c-4.045.296-7.255 3.646-7.255 7.765v25.835c0 4.313 3.509 7.822 7.821 7.822h3.262v-1.539c0-1.698.674-3.277 1.835-4.459v10.313c0 1.984.773 3.851 2.176 5.254s3.269 2.176 5.254 2.176h42.608c4.097 0 7.43-3.333 7.43-7.43 0 0 0-9.563 0-10.465 1.252 1.195 2.007 2.852 2.007 4.611v1.539h3.262c4.313 0 7.821-3.509 7.821-7.822v-25.836c0-4.313-3.509-7.822-7.821-7.822 0 0-.889 0-1.56 0 0-1.162 0-6.688 0-6.688 0-.823-.32-1.596-.902-2.178s-1.355-.902-2.178-.902z" fill="url(#b)"/><path d="m82.537 31.116h-60.678c-2.091 0-3.792 1.701-3.792 3.792v6.071c-4.102.618-7.256 4.167-7.256 8.438v25.835c0 4.704 3.828 8.532 8.533 8.532h2.551 1.422v-1.422-.828c0-.743.144-1.464.412-2.129v7.983c0 4.488 3.652 8.14 8.142 8.14h42.607c4.489 0 8.141-3.651 8.141-8.14v-8.353c.379.768.585 1.621.585 2.498v.828 1.422h1.423 2.551c4.705 0 8.532-3.828 8.532-8.532v-25.834c0-4.706-3.827-8.534-8.532-8.534h-.85v-5.976c0-1.013-.394-1.965-1.109-2.681-.717-.716-1.669-1.11-2.682-1.11zm-63.048 3.792c0-1.309 1.061-2.37 2.37-2.37h60.678c1.309 0 2.369 1.061 2.369 2.37v5.976 1.422h1.422.85c3.926 0 7.109 3.184 7.109 7.111v25.835c0 3.928-3.184 7.11-7.109 7.11h-2.551v-.828c0-2.614-1.413-4.892-3.515-6.127.051.334.085.672.085 1.022v.397.381 10.181c0 3.711-3.008 6.718-6.719 6.718h-42.607c-3.711 0-6.72-3.007-6.72-6.718v-10.958c0-.31.028-.61.068-.907-1.994 1.258-3.324 3.478-3.324 6.012v.828h-2.551c-3.927 0-7.111-3.183-7.111-7.11v-25.836c0-3.927 3.184-7.111 7.111-7.111h.145zm58.703 20.54h-49.863c.409.234.844.43 1.298.58.699.231 1.445.358 2.222.358h42.822c.777 0 1.523-.127 2.223-.358.454-.15.889-.345 1.298-.58z" fill="#3f3f3f"/><path d="m21.86 31.826c-.823 0-1.597.32-2.179.902s-.902 1.355-.902 2.178v18.171c0 .823.32 1.597.902 2.179s1.356.902 2.179.902h60.678c1.698 0 3.08-1.383 3.08-3.081v-18.17c0-.823-.32-1.596-.902-2.178s-1.355-.902-2.178-.902h-60.678z" fill="url(#c)"/><path d="m82.537 31.116h-60.678c-1.013 0-1.965.394-2.681 1.11-.717.716-1.111 1.668-1.111 2.681v18.172c0 1.013.394 1.965 1.111 2.68.716.717 1.668 1.111 2.681 1.111h60.678c2.09 0 3.791-1.701 3.791-3.791v-18.172c0-2.09-1.702-3.791-3.791-3.791zm-63.048 3.791c0-1.308 1.061-2.369 2.37-2.369h60.678c1.309 0 2.369 1.061 2.369 2.369v18.172c0 1.309-1.061 2.369-2.369 2.369h-60.678c-1.309 0-2.37-1.061-2.37-2.369z" fill="#3f3f3f"/><path d="m21.86 33.248c-.443 0-.86.173-1.174.486-.313.313-.486.73-.486 1.173v18.171c0 .443.173.86.486 1.173s.73.486 1.174.486h60.678c.914 0 1.658-.744 1.658-1.659v-18.171c0-.443-.173-.859-.486-1.173-.313-.313-.729-.486-1.172-.486z" fill="url(#d)"/><path d="m82.537 32.538h-60.678c-1.309 0-2.37 1.061-2.37 2.369v18.172c0 1.309 1.061 2.369 2.37 2.369h60.678c1.309 0 2.369-1.061 2.369-2.369v-18.172c0-1.308-1.061-2.369-2.369-2.369zm-60.678 21.488c-.253 0-.491-.099-.67-.277-.179-.18-.278-.417-.278-.67v-18.172c0-.253.099-.49.278-.669s.417-.278.67-.278h60.678c.522 0 .947.425.947.947v18.172c0 .522-.425.947-.947.947z" fill="#8c8c8c"/><path d="m31.871 69.036c-4.076 0-7.391 3.316-7.391 7.393v10.959c0 1.975.769 3.83 2.165 5.227 1.396 1.395 3.252 2.164 5.226 2.164h42.608c1.975 0 3.83-.77 5.227-2.164 1.396-1.396 2.164-3.252 2.164-5.227v-10.959c0-4.076-3.315-7.393-7.391-7.393z" fill="url(#e)"/><path d="m74.479 68.366h-42.608c-4.446 0-8.064 3.615-8.064 8.063v10.959c0 4.445 3.618 8.063 8.064 8.063h42.608c4.445 0 8.062-3.617 8.062-8.063v-10.959c0-4.448-3.617-8.063-8.062-8.063zm-49.328 8.063c0-3.711 3.009-6.719 6.72-6.719h42.608c3.711 0 6.718 3.008 6.718 6.719v10.959c0 3.711-3.007 6.719-6.718 6.719h-42.608c-3.711 0-6.72-3.008-6.72-6.719z" fill="#3f3f3f"/><path d="m31.871 70.38c-3.334 0-6.047 2.713-6.047 6.049v10.959c0 1.615.629 3.133 1.771 4.275 1.143 1.143 2.661 1.771 4.276 1.771h42.608c1.615 0 3.134-.629 4.275-1.771 1.143-1.143 1.771-2.66 1.771-4.275v-10.959c0-3.336-2.713-6.049-6.047-6.049z" fill="url(#f)"/><path d="m74.479 69.71h-42.608c-3.711 0-6.72 3.008-6.72 6.719v10.959c0 3.711 3.009 6.719 6.72 6.719h42.608c3.711 0 6.718-3.008 6.718-6.719v-10.959c0-3.711-3.007-6.719-6.718-6.719zm-42.608 23.053c-2.964 0-5.376-2.412-5.376-5.375v-10.959c0-2.965 2.412-5.375 5.376-5.375h42.608c2.963 0 5.374 2.41 5.374 5.375v10.959c0 2.963-2.411 5.375-5.374 5.375z" fill="#8c8c8c"/><path d="m30.24 60.181c-1.715 0-3.111 1.395-3.111 3.111l-1.419 19.164c-.003 1.785 1.393 3.18 3.108 3.18h48.499c1.716 0 3.111-1.395 3.111-3.109v-.059l-2.377-19.293.007.117c0-1.717-1.396-3.111-3.111-3.111z" fill="url(#h)"/><path d="m74.946 59.233h-44.706c-2.209 0-4.012 1.775-4.058 3.973l-1.419 19.18-.005.07v.07c0 2.238 1.821 4.059 4.059 4.059h48.5c2.238 0 4.059-1.82 4.059-4.059v-.115l-.014-.117-2.359-19.139c-.074-2.176-1.865-3.922-4.057-3.922zm-48.292 23.293 1.423-19.234c0-1.195.968-2.162 2.163-2.162h44.706c1.195 0 2.163.967 2.163 2.162l2.371 19.234c0 1.195-.968 2.162-2.163 2.162h-48.5c-1.194 0-2.163-.966-2.163-2.162z" fill="#0d69c8"/><path d="m30.24 61.993c-.716 0-1.298.582-1.298 1.299l-1.425 19.297c.002.652.584 1.234 1.3 1.234h48.499c.716 0 1.298-.582 1.298-1.297l-2.363-19.129c-.007-.822-.589-1.404-1.305-1.404z" fill="url(#i)"/><path d="m74.946 61.13h-44.706c-1.195 0-2.163.967-2.163 2.162l-1.423 19.234c0 1.195.969 2.162 2.163 2.162h48.5c1.195 0 2.163-.967 2.163-2.162l-2.371-19.234c0-1.195-.968-2.162-2.163-2.162zm-46.56 21.439 1.417-19.148.004-.064v-.064c0-.238.194-.434.433-.434h44.706c.239 0 .433.195.433.434v.105l.014.107 2.353 19.088c-.031.207-.211.365-.428.365h-48.5c-.225 0-.41-.17-.432-.389z" fill="#d4ebff"/><path d="m32.589 12.141c-2.478 0-4.494 1.997-4.494 4.451l-.949 50.97c0 2.469 2.016 4.465 4.495 4.465h43.795c1.198 0 2.325-.461 3.174-1.301.852-.84 1.32-1.959 1.32-3.15l-2.87-36.666-18.993-18.77h-25.478z" fill="url(#j)"/><path d="m58.388 11.358h-.644-25.156c-2.909 0-5.276 2.348-5.276 5.234 0-.01 0-.019 0-.029l-.949 50.985v.014.016c0 2.885 2.368 5.232 5.278 5.232h43.795c2.91 0 5.277-2.348 5.277-5.232v-.063l-.006-.061-2.845-36.313-.046-.582-.414-.41-18.556-18.339zm-30.459 56.219.949-50.985c0-2.026 1.661-3.668 3.71-3.668h25.157l18.558 18.339 2.845 36.314c0 2.023-1.663 3.668-3.711 3.668h-43.796c-2.05 0-3.712-1.644-3.712-3.668z" fill="#0d69c8"/><path d="m32.589 13.661c-1.639 0-2.973 1.314-2.973 2.93l-.949 50.998c0 1.602 1.334 2.916 2.974 2.916h43.795c.796 0 1.543-.305 2.105-.861.56-.553.867-1.287.867-2.068 0 0-2.778-35.441-2.82-35.981-.379-.375-17.728-17.522-18.146-17.934-.592 0-24.853 0-24.853 0z" fill="url(#k)"/><path d="m57.745 12.924h-25.157c-2.049 0-3.71 1.642-3.71 3.668l-.949 50.985c0 2.023 1.662 3.668 3.712 3.668h43.795c2.048 0 3.711-1.645 3.711-3.668l-2.845-36.314zm-28.34 54.673.949-50.978v-.013-.014c0-1.209 1.002-2.192 2.234-2.192h24.551l17.734 17.526 2.797 35.694c-.024 1.189-1.018 2.148-2.234 2.148h-43.795c-1.226.001-2.225-.972-2.236-2.171z" fill="#d4ebff"/><path d="m57.665 12.923s.34 2.675 0 13.523c0 2.866 2.396 5.135 5.567 5.135 11.805-.564 13.563.237 13.563.237v-.318l-19.049-18.577z" fill="#0d69c8" stroke="#0d69c8" stroke-width="1.4758"/><g fill="#6aa3ce" opacity=".47"><path d="m35.053 23.924h18.928v2.829h-18.928z"/><path d="m35.053 30.189h18.928v2.829h-18.928z"/><path d="m35.053 36.455h36.928v2.83h-36.928z"/><path d="m35.053 42.72h36.928v2.83h-36.928z"/><path d="m35.053 48.985h36.928v2.829h-36.928z"/></g><path d="m81.072 41.594v7.682c0 3.528-2.871 6.398-6.4 6.398h-42.822c-3.529 0-6.4-2.87-6.4-6.398v-7.682h-6.105c-4.313 0-7.821 3.508-7.821 7.822v25.835c0 4.313 3.509 7.822 7.821 7.822h3.262v-1.539c0-3.529 2.871-6.4 6.399-6.4h48.511c3.528 0 6.399 2.871 6.399 6.4v1.539h3.262c4.313 0 7.821-3.51 7.821-7.822v-25.835c0-4.313-3.509-7.822-7.821-7.822z" fill="url(#m)"/><path d="m87.177 40.884h-5.396-1.421v1.422 6.971c0 3.137-2.552 5.688-5.689 5.688h-42.822c-3.137 0-5.689-2.551-5.689-5.688v-6.971-1.422h-1.422-5.394c-4.705 0-8.533 3.828-8.533 8.533v25.834c0 4.705 3.828 8.533 8.533 8.533h2.551 1.422v-1.422-.828c0-3.137 2.552-5.689 5.688-5.689h48.511c3.136 0 5.688 2.553 5.688 5.689v.828 1.422h1.422 2.552c4.705 0 8.531-3.828 8.531-8.533v-25.834c-.001-4.705-3.827-8.533-8.532-8.533zm-5.395 1.422h5.396c3.927 0 7.109 3.185 7.109 7.111v25.834c0 3.928-3.183 7.111-7.109 7.111h-2.552v-.828c0-3.928-3.183-7.111-7.109-7.111h-48.512c-3.926 0-7.11 3.184-7.11 7.111v.828h-2.551c-3.927 0-7.111-3.184-7.111-7.111v-25.834c0-3.927 3.184-7.111 7.111-7.111h5.394v6.971c0 3.928 3.184 7.109 7.111 7.109h42.821c3.929 0 7.111-3.182 7.111-7.109v-6.971z" fill="#3f3f3f"/><path d="m82.494 43.017v6.26c0 4.313-3.509 7.82-7.822 7.82h-42.822c-4.313 0-7.822-3.508-7.822-7.82 0 0 0-5.113 0-6.26-1.072 0-4.684 0-4.684 0-3.529 0-6.399 2.87-6.399 6.399v25.835c0 3.529 2.871 6.4 6.399 6.4h1.84c0-.029 0-.117 0-.117 0-2.09.813-4.055 2.291-5.531 1.477-1.479 3.441-2.291 5.53-2.291h48.511c4.313 0 7.821 3.508 7.821 7.822v.117h1.84c3.528 0 6.399-2.871 6.399-6.4v-25.835c0-3.529-2.871-6.399-6.399-6.399 0 0-3.611 0-4.683 0z" fill="url(#n)"/><path d="m87.177 42.306h-5.396v6.971c0 3.928-3.183 7.109-7.111 7.109h-42.821c-3.927 0-7.111-3.182-7.111-7.109v-6.971h-5.394c-3.927 0-7.111 3.185-7.111 7.111v25.834c0 3.928 3.184 7.111 7.111 7.111h2.551v-.828c0-3.928 3.184-7.111 7.11-7.111h48.511c3.927 0 7.109 3.184 7.109 7.111v.828h2.552c3.927 0 7.109-3.184 7.109-7.111v-25.834c.001-3.927-3.182-7.111-7.109-7.111zm-3.973 1.422h3.974c3.136 0 5.688 2.553 5.688 5.689v25.834c0 3.137-2.552 5.689-5.688 5.689h-1.149c-.307-4.43-4.007-7.939-8.512-7.939h-48.512c-4.505 0-8.206 3.51-8.512 7.939h-1.149c-3.137 0-5.689-2.553-5.689-5.689v-25.834c0-3.137 2.552-5.689 5.689-5.689h3.972v5.549c0 4.705 3.828 8.531 8.533 8.531h42.821c4.705 0 8.533-3.826 8.533-8.531v-5.549z" fill="#8c8c8c"/><g mask="url(#o)" opacity=".64"><path d="m82.494 43.017v6.26c0 4.313-3.509 7.82-7.822 7.82h-42.822c-4.313 0-7.822-3.508-7.822-7.82 0 0 0-5.113 0-6.26-1.072 0-4.684 0-4.684 0-3.529 0-6.399 2.87-6.399 6.399v25.835c0 3.529 2.871 6.4 6.399 6.4h1.84c0-.029 0-.117 0-.117 0-2.09.813-4.055 2.291-5.531 1.477-1.479 3.441-2.291 5.53-2.291h48.511c4.313 0 7.821 3.508 7.821 7.822v.117h1.84c3.528 0 6.399-2.871 6.399-6.4v-25.835c0-3.529-2.871-6.399-6.399-6.399 0 0-3.611 0-4.683 0z" fill="#fff"/><path d="m87.177 42.306h-5.396v6.971c0 3.928-3.183 7.109-7.111 7.109h-42.821c-3.927 0-7.111-3.182-7.111-7.109v-6.971h-5.394c-3.927 0-7.111 3.185-7.111 7.111v25.834c0 3.928 3.184 7.111 7.111 7.111h2.551v-.828c0-3.928 3.184-7.111 7.11-7.111h48.511c3.927 0 7.109 3.184 7.109 7.111v.828h2.552c3.927 0 7.109-3.184 7.109-7.111v-25.834c.001-3.927-3.182-7.111-7.109-7.111zm-3.973 1.422h3.974c3.136 0 5.688 2.553 5.688 5.689v25.834c0 3.137-2.552 5.689-5.688 5.689h-1.149c-.307-4.43-4.007-7.939-8.512-7.939h-48.512c-4.505 0-8.206 3.51-8.512 7.939h-1.149c-3.137 0-5.689-2.553-5.689-5.689v-25.834c0-3.137 2.552-5.689 5.689-5.689h3.972v5.549c0 4.705 3.828 8.531 8.533 8.531h42.821c4.705 0 8.533-3.826 8.533-8.531v-5.549z" fill="#8c8c8c"/></g><path d="m82.1 62.521c-.753 0-1.366.613-1.366 1.365v4.064c0 .752.613 1.365 1.366 1.365h4.063c.753 0 1.365-.613 1.365-1.365v-4.064c0-.365-.143-.707-.4-.965s-.601-.4-.965-.4z" fill="url(#q)"/><path d="m86.162 62.048h-4.062c-1.018 0-1.84.822-1.84 1.838v4.064c0 1.016.822 1.84 1.84 1.84h4.062c1.017 0 1.839-.824 1.839-1.84v-4.064c-.001-1.016-.823-1.838-1.839-1.838zm-4.062 6.793c-.492 0-.893-.4-.893-.891v-4.064c0-.49.4-.889.893-.889h4.062c.491 0 .892.398.892.889v4.064c0 .49-.4.891-.892.891z" fill="#cffcae"/><g mask="url(#r)"><path d="m82.1 62.521c-.753 0-1.366.613-1.366 1.365v4.064c0 .752.613 1.365 1.366 1.365h4.063c.753 0 1.365-.613 1.365-1.365v-4.064c0-.365-.143-.707-.4-.965s-.601-.4-.965-.4z" fill="#fff"/><path d="m86.162 62.048h-4.062c-1.018 0-1.84.822-1.84 1.838v4.064c0 1.016.822 1.84 1.84 1.84h4.062c1.017 0 1.839-.824 1.839-1.84v-4.064c-.001-1.016-.823-1.838-1.839-1.838zm-4.062 6.793c-.492 0-.893-.4-.893-.891v-4.064c0-.49.4-.889.893-.889h4.062c.491 0 .892.398.892.889v4.064c0 .49-.4.891-.892.891z" fill="#cffcae"/></g></svg>