<svg enable-background="new 0 0 106 106" height="106" viewBox="0 0 106 106" width="106" xmlns="http://www.w3.org/2000/svg" xmlns:xlink="http://www.w3.org/1999/xlink"><linearGradient id="a" gradientUnits="userSpaceOnUse" x1="32.9512" x2="54.0643" y1="38.457" y2="64.9378"><stop offset="0" stop-color="#5a3d1c"/><stop offset=".4948" stop-color="#8b5c29"/><stop offset="1" stop-color="#5a3d1c"/></linearGradient><linearGradient id="b" gradientUnits="userSpaceOnUse" x1="83.0581" x2="69.2471" y1="38.1045" y2="23.307"><stop offset="0" stop-color="#972b28"/><stop offset="1" stop-color="#e25656"/></linearGradient><linearGradient id="c" gradientUnits="userSpaceOnUse" x1="36.0088" x2="89.6958" y1="85.7178" y2="85.7178"><stop offset=".0052" stop-color="#a37b16"/><stop offset="1" stop-color="#5a3d1c"/></linearGradient><path d="m64.765 18.792s-48.414 49.369-48.896 49.86c-.435.146-.516.8-.863 3.812l-1.856 16.117c-.004.038-.006.076-.006.113 0 .264.105.518.295.704.218.214.521.314.823.273l19.055-2.571c.217-.029.42-.132.574-.288l49.138-50.108c2.977-3.035 2.93-7.926-.106-10.903l-7.254-7.114c-3.036-2.978-7.927-2.93-10.904.105z" fill="url(#a)"/><path d="m70.27 15.502c-2.361 0-4.566.923-6.21 2.6l-5.021 5.118s-.001.001-.002.002l-44.116 44.99c-.307.313-.502.719-.552 1.154l-2.2 19.103c-.07.604.144 1.208.579 1.635.37.363.867.563 1.379.563.088 0 .177-.006.266-.018l19.056-2.572c.435-.058.837-.26 1.145-.573l44.118-44.989 5.021-5.121c1.621-1.652 2.502-3.845 2.479-6.174-.023-2.328-.946-4.502-2.601-6.124l-7.252-7.114c-.001 0-.001 0-.002-.001-1.631-1.599-3.793-2.479-6.087-2.479zm-8.441 7.693 3.641-3.711c1.311-1.337 3.056-2.008 4.801-2.008 1.701 0 3.404.638 4.708 1.915l7.253 7.114c1.341 1.315 2.012 3.065 2.008 4.816-.003 1.696-.64 3.393-1.915 4.692l-5.021 5.121-44.119 44.988-19.056 2.572 2.2-19.102 42.736-43.58.356-.363 1.025-1.045 1.024-1.044zm-1.382 1.409c.154.153.318.313.488.48zm.488.479.456.447c-.156-.153-.309-.302-.456-.447z" fill="#895c29"/><path d="m15.311 43.559h63.011v23.607h-63.011z" fill="#f9b406" transform="matrix(.7002 -.714 .714 .7002 -25.4907 50.0263)"/><path d="m8.862 46.267h63.011v5.542h-63.011z" fill="#ffc943" transform="matrix(.7002 -.714 .714 .7002 -22.9084 43.5251)"/><path d="m21.768 58.935h63.011v5.52h-63.011z" fill="#ce800d" transform="matrix(.7002 -.714 .714 .7002 -28.0757 56.535)"/><path d="m82.232 26.504c2.64 2.589 2.683 6.868.093 9.508l-5.021 5.121c-3.254-3.19-12.695-12.448-16.855-16.529l5.021-5.121c2.59-2.641 6.868-2.682 9.509-.093z" fill="url(#b)"/><path d="m89.696 90.462h-53.687l9.696-9.488h43.991z" fill="url(#c)"/></svg>