<svg enable-background="new 0 0 106 106" height="106" viewBox="0 0 106 106" width="106" xmlns="http://www.w3.org/2000/svg" xmlns:xlink="http://www.w3.org/1999/xlink"><linearGradient id="a" gradientUnits="userSpaceOnUse" x1="12.8081" x2="93.6978" y1="53.3516" y2="53.3516"><stop offset="0" stop-color="#27447d"/><stop offset="1" stop-color="#1c2958"/></linearGradient><linearGradient id="b" gradientUnits="userSpaceOnUse" x1="26.7402" x2="81.1455" y1="20.3276" y2="88.0956"><stop offset="0" stop-color="#fff"/><stop offset="1"/></linearGradient><linearGradient id="c"><stop offset="0" stop-color="#fff"/><stop offset="1" stop-color="#6295d6"/></linearGradient><linearGradient id="d" gradientUnits="userSpaceOnUse" x1="28.8813" x2="70.3133" xlink:href="#c" y1="14.7632" y2="80.3636"/><linearGradient id="e" gradientUnits="userSpaceOnUse" x1="28.8096" x2="52.0711" y1="20.5903" y2="51.768"><stop offset=".0095" stop-color="#fff"/><stop offset="1" stop-color="#5786c3"/></linearGradient><linearGradient id="f" gradientUnits="userSpaceOnUse" x1="80.8823" x2="33.7417" xlink:href="#c" y1="75.4951" y2="37.724"/><path d="m47.974 12.907c-.736 0-1.361.542-1.465 1.271 0 0-1.255 8.814-1.473 10.345-2.22.631-4.348 1.513-6.359 2.633-1.237-.929-8.356-6.273-8.356-6.273-.589-.442-1.414-.384-1.935.137l-7.466 7.466c-.287.287-.433.666-.433 1.047 0 .311.098.623.296.888 0 0 5.344 7.118 6.273 8.355-1.121 2.011-2.002 4.139-2.634 6.359-1.531.218-10.344 1.472-10.344 1.472-.729.104-1.271.728-1.271 1.465v10.558c0 .736.542 1.361 1.271 1.465 0 0 8.813 1.254 10.344 1.472.632 2.221 1.513 4.349 2.634 6.36-.929 1.237-6.273 8.355-6.273 8.355-.199.265-.296.577-.296.889 0 .381.146.76.433 1.046l7.466 7.466c.521.521 1.346.58 1.935.138 0 0 7.118-5.345 8.354-6.273 2.014 1.122 4.142 2.003 6.36 2.634.218 1.531 1.473 10.345 1.473 10.345.104.729.729 1.271 1.465 1.271h10.558c.736 0 1.361-.542 1.465-1.271 0 0 1.255-8.813 1.473-10.345 2.218-.631 4.346-1.512 6.36-2.634 1.237.929 8.354 6.273 8.354 6.273.589.442 1.414.384 1.935-.138l7.466-7.466c.287-.286.434-.665.434-1.046 0-.312-.098-.624-.296-.889 0 0-5.345-7.118-6.273-8.355 1.122-2.012 2.003-4.14 2.634-6.36 1.531-.218 10.344-1.472 10.344-1.472.729-.104 1.271-.729 1.271-1.465v-10.557c0-.737-.542-1.361-1.271-1.465 0 0-8.813-1.254-10.344-1.472-.631-2.221-1.513-4.348-2.634-6.36.929-1.237 6.273-8.355 6.273-8.355.198-.265.296-.577.296-.888 0-.381-.146-.76-.434-1.047l-7.466-7.466c-.521-.521-1.345-.579-1.935-.137 0 0-7.118 5.344-8.355 6.273-2.012-1.121-4.14-2.002-6.359-2.633-.218-1.531-1.473-10.345-1.473-10.345-.104-.729-.729-1.271-1.465-1.271zm-5.557 40.446c0-5.976 4.861-10.838 10.837-10.838s10.836 4.861 10.836 10.838c0 5.976-4.861 10.837-10.837 10.837s-10.836-4.862-10.836-10.837z" fill="url(#a)"/><path d="m58.531 11.428h-10.557c-1.473 0-2.722 1.083-2.93 2.542l-1.331 9.344c-1.709.542-3.366 1.228-4.957 2.052l-7.546-5.666c-.529-.397-1.154-.592-1.776-.592-.762 0-1.52.293-2.094.866l-7.466 7.466c-1.041 1.042-1.158 2.692-.274 3.87l5.666 7.547c-.825 1.59-1.511 3.248-2.053 4.958l-9.343 1.33c-1.459.208-2.542 1.457-2.542 2.93v10.558c0 1.473 1.084 2.722 2.542 2.93l9.343 1.329c.542 1.709 1.229 3.367 2.053 4.958l-5.666 7.546c-.884 1.178-.767 2.828.274 3.87l7.466 7.466c.574.573 1.332.866 2.094.866.622 0 1.247-.195 1.776-.593l7.545-5.666c1.591.824 3.248 1.512 4.958 2.053l1.331 9.343c.208 1.459 1.457 2.542 2.93 2.542h10.557c1.474 0 2.723-1.083 2.931-2.542l1.33-9.343c1.71-.541 3.367-1.228 4.958-2.053l7.546 5.666c.529.397 1.154.593 1.776.593.762 0 1.52-.293 2.093-.866l7.467-7.466c1.041-1.042 1.157-2.692.273-3.87l-5.666-7.547c.825-1.59 1.512-3.248 2.054-4.958l9.343-1.329c1.458-.208 2.542-1.457 2.542-2.93v-10.558c0-1.473-1.083-2.722-2.542-2.93l-9.343-1.33c-.542-1.71-1.229-3.368-2.053-4.958l5.665-7.547c.884-1.178.768-2.828-.273-3.87l-7.467-7.466c-.573-.573-1.331-.866-2.094-.866-.622 0-1.246.195-1.775.592l-7.547 5.667c-1.591-.825-3.248-1.511-4.957-2.053l-1.33-9.344c-.209-1.458-1.458-2.541-2.931-2.541zm-20.011 17.462c2.408-1.453 5.049-2.558 7.852-3.252l1.603-11.251h10.557l1.603 11.251c2.804.694 5.443 1.799 7.852 3.252l9.087-6.823 7.466 7.466-6.821 9.087c1.454 2.408 2.558 5.049 3.252 7.853l11.25 1.601v10.558l-11.25 1.6c-.694 2.805-1.798 5.446-3.252 7.854l6.821 9.087-7.466 7.466-9.086-6.823c-2.409 1.454-5.049 2.56-7.853 3.252l-1.603 11.25h-10.558l-1.603-11.25c-2.803-.692-5.443-1.798-7.853-3.252l-9.086 6.823-7.466-7.466 6.822-9.087c-1.453-2.408-2.558-5.05-3.252-7.854l-11.25-1.6v-10.558l11.25-1.601c.694-2.804 1.799-5.445 3.252-7.853l-6.822-9.087 7.466-7.466zm14.733 12.146c-6.804 0-12.316 5.515-12.316 12.318 0 6.802 5.513 12.316 12.316 12.316 6.802 0 12.315-5.515 12.315-12.316.001-6.804-5.513-12.318-12.315-12.318zm0 21.675c-5.159 0-9.357-4.198-9.357-9.357 0-5.16 4.198-9.359 9.357-9.359 5.158 0 9.356 4.199 9.356 9.359.001 5.159-4.197 9.357-9.356 9.357z" fill="#3d6295"/><path d="m48.991 15.558c-.238 1.668-1.57 11.027-1.57 11.027l-.767.189c-2.658.658-5.191 1.707-7.529 3.118l-.676.408s-7.559-5.675-8.906-6.687c-1.049 1.049-4.979 4.979-6.028 6.028 1.012 1.348 6.687 8.906 6.687 8.906l-.408.676c-1.411 2.337-2.459 4.87-3.118 7.529l-.19.767s-9.357 1.332-11.025 1.569v8.525c1.668.237 11.026 1.569 11.026 1.569l.189.767c.658 2.658 1.708 5.191 3.118 7.529l.408.677s-5.675 7.559-6.687 8.906c1.049 1.049 4.979 4.979 6.028 6.028 1.348-1.012 8.905-6.687 8.905-6.687l.676.408c2.341 1.412 4.875 2.461 7.53 3.118l.767.189s1.332 9.357 1.57 11.026h8.524c.238-1.669 1.57-11.026 1.57-11.026l.767-.189c2.655-.657 5.188-1.706 7.53-3.118l.676-.408s7.558 5.675 8.905 6.687c1.049-1.049 4.979-4.979 6.028-6.028-1.012-1.348-6.687-8.906-6.687-8.906l.408-.677c1.412-2.338 2.461-4.871 3.118-7.529l.189-.767s9.357-1.332 11.026-1.569c0-1.483 0-7.042 0-8.525-1.669-.237-11.026-1.569-11.026-1.569l-.189-.767c-.658-2.659-1.707-5.192-3.118-7.528l-.408-.677s5.675-7.559 6.687-8.906c-1.049-1.049-4.979-4.979-6.028-6.028-1.348 1.012-8.906 6.687-8.906 6.687l-.677-.408c-2.338-1.411-4.871-2.46-7.528-3.118l-.767-.189s-1.332-9.358-1.57-11.027c-1.483 0-7.041 0-8.524 0zm-9.225 37.795c0-7.438 6.05-13.489 13.488-13.489s13.487 6.051 13.487 13.489-6.05 13.487-13.488 13.487-13.487-6.05-13.487-13.487z" fill="url(#b)"/><path d="m58.531 14.387h-10.557l-1.603 11.251c-2.803.694-5.443 1.799-7.852 3.252l-9.087-6.823-7.466 7.466 6.822 9.087c-1.453 2.408-2.558 5.049-3.252 7.853l-11.25 1.601v10.558l11.25 1.6c.694 2.805 1.799 5.446 3.252 7.854l-6.822 9.087 7.466 7.466 9.086-6.823c2.409 1.454 5.05 2.56 7.853 3.252l1.603 11.25h10.557l1.603-11.25c2.804-.692 5.443-1.798 7.853-3.252l9.086 6.823 7.466-7.466-6.821-9.087c1.454-2.408 2.558-5.05 3.252-7.854l11.25-1.6v-10.558l-11.25-1.601c-.694-2.804-1.798-5.445-3.252-7.853l6.821-9.087-7.466-7.466-9.087 6.823c-2.408-1.453-5.048-2.558-7.852-3.252zm-8.525 2.342h6.492l1.315 9.239.223 1.564 1.533.38c2.542.629 4.966 1.633 7.205 2.984l1.354.816 1.263-.949 7.462-5.603 4.592 4.592-5.602 7.462-.949 1.264.817 1.353c1.349 2.235 2.353 4.659 2.982 7.205l.38 1.533 1.564.223 9.238 1.315v6.492l-9.238 1.313-1.564.223-.38 1.534c-.63 2.547-1.634 4.971-2.982 7.206l-.817 1.353.949 1.264 5.602 7.462-4.591 4.592-7.461-5.603-1.264-.949-1.354.817c-2.24 1.351-4.664 2.354-7.205 2.983l-1.534.379-.223 1.564-1.315 9.238h-6.492l-1.315-9.238-.223-1.564-1.534-.379c-2.542-.629-4.966-1.633-7.205-2.983l-1.353-.817-1.264.949-7.46 5.603-4.591-4.592 5.602-7.462.949-1.263-.816-1.353c-1.351-2.238-2.355-4.663-2.984-7.207l-.38-1.534-1.564-.223-9.238-1.313v-6.492l9.238-1.315 1.564-.223.38-1.533c.629-2.544 1.633-4.968 2.984-7.206l.816-1.353-.949-1.263-5.602-7.462 4.592-4.592 7.462 5.603 1.263.949 1.353-.816c2.238-1.351 4.662-2.355 7.205-2.984l1.533-.38.223-1.564zm3.247 21.964c-8.083 0-14.658 6.576-14.658 14.66 0 8.083 6.575 14.658 14.658 14.658s14.657-6.575 14.657-14.658c.001-8.083-6.574-14.66-14.657-14.66zm-12.316 14.661c0-6.803 5.513-12.318 12.316-12.318 6.802 0 12.315 5.515 12.315 12.318 0 6.802-5.514 12.316-12.315 12.316-6.803 0-12.316-5.515-12.316-12.316z" fill="#b2b2b2"/><path d="m92.218 58.631v-10.558l-11.25-1.601c-.693-2.804-1.798-5.445-3.252-7.853l6.822-9.087-7.466-7.466-9.087 6.822c-2.408-1.453-5.049-2.558-7.853-3.251l-1.602-11.251h-10.556l-1.602 11.251c-2.803.694-5.444 1.798-7.853 3.251l-9.087-6.822-7.466 7.466 6.822 9.087c-1.453 2.408-2.558 5.049-3.252 7.853l-11.25 1.601v10.558l11.25 1.601c.694 2.805 1.799 5.445 3.252 7.854l-6.822 9.087 7.466 7.466 9.086-6.822c2.409 1.453 5.051 2.559 7.854 3.252l1.602 11.25h10.558l1.602-11.25c2.804-.693 5.444-1.799 7.854-3.252l9.086 6.822 7.466-7.466-6.822-9.087c1.454-2.408 2.559-5.049 3.252-7.854zm-38.965 7.038c-6.803 0-12.316-5.514-12.316-12.316s5.514-12.317 12.316-12.317 12.316 5.515 12.316 12.317-5.514 12.316-12.316 12.316z" fill="url(#d)"/><path d="m47.118 13.4s-1.472 10.341-1.632 11.467c-2.412.656-4.72 1.611-6.884 2.85-.909-.683-9.262-6.954-9.262-6.954l-8.676 8.676s6.271 8.353 6.953 9.261c-1.239 2.165-2.195 4.473-2.851 6.884-1.126.16-11.466 1.632-11.466 1.632v12.271s10.34 1.471 11.466 1.632c.655 2.411 1.611 4.72 2.851 6.884-.683.909-6.953 9.262-6.953 9.262l8.676 8.676s8.353-6.271 9.261-6.953c2.164 1.238 4.473 2.195 6.885 2.851.16 1.126 1.632 11.466 1.632 11.466h12.271s1.472-10.34 1.632-11.466c2.412-.655 4.721-1.612 6.885-2.851.909.683 9.261 6.953 9.261 6.953l8.676-8.676s-6.271-8.353-6.953-9.262c1.239-2.164 2.195-4.473 2.851-6.884 1.126-.161 11.466-1.632 11.466-1.632v-12.27s-10.34-1.472-11.466-1.632c-.655-2.412-1.611-4.72-2.851-6.884.683-.909 6.953-9.261 6.953-9.261l-8.676-8.676s-8.353 6.271-9.262 6.954c-2.164-1.239-4.472-2.194-6.884-2.85-.161-1.127-1.633-11.468-1.633-11.468zm10.558 1.973c.206 1.449 1.574 11.062 1.574 11.062l.646.16c2.677.663 5.227 1.718 7.58 3.138l.57.344s7.764-5.83 8.934-6.708c.933.932 5.324 5.323 6.256 6.255-.879 1.17-6.708 8.934-6.708 8.934l.344.57c1.421 2.354 2.477 4.904 3.14 7.58l.16.646s9.611 1.368 11.061 1.574v8.847c-1.449.206-11.061 1.573-11.061 1.573l-.16.646c-.663 2.676-1.719 5.227-3.14 7.58l-.344.57s5.829 7.764 6.708 8.934c-.932.932-5.323 5.324-6.256 6.256-1.17-.879-8.934-6.708-8.934-6.708l-.57.344c-2.353 1.421-4.902 2.477-7.58 3.139l-.646.16s-1.368 9.612-1.574 11.062c-1.318 0-7.528 0-8.847 0-.206-1.449-1.574-11.062-1.574-11.062l-.646-.16c-2.678-.662-5.228-1.718-7.58-3.139l-.57-.344s-7.764 5.829-8.934 6.708c-.933-.932-5.323-5.324-6.256-6.256.879-1.17 6.708-8.934 6.708-8.934l-.344-.57c-1.421-2.354-2.477-4.904-3.14-7.58l-.159-.646s-9.612-1.367-11.062-1.573c0-1.318 0-7.528 0-8.847 1.449-.206 11.062-1.574 11.062-1.574l.159-.646c.663-2.676 1.719-5.227 3.14-7.58l.344-.57s-5.829-7.764-6.708-8.934c.933-.933 5.323-5.323 6.256-6.255 1.17.878 8.934 6.708 8.934 6.708l.57-.344c2.354-1.42 4.903-2.476 7.58-3.138l.646-.16s1.368-9.613 1.574-11.062z" fill="url(#e)"/><path d="m39.765 53.353c0 3.603 1.402 6.99 3.949 9.537 2.549 2.547 5.936 3.95 9.539 3.95 7.437 0 13.487-6.05 13.487-13.487s-6.051-13.488-13.487-13.488c-7.437-.001-13.488 6.051-13.488 13.488zm5.607 7.879c-2.104-2.104-3.264-4.903-3.264-7.88 0-6.146 4.999-11.146 11.146-11.146 6.146 0 11.145 5 11.145 11.146s-4.999 11.145-11.145 11.145c-2.978 0-5.777-1.159-7.882-3.265z" fill="url(#f)"/></svg>