<svg enable-background="new 0 0 106 106" height="106" viewBox="0 0 106 106" width="106" xmlns="http://www.w3.org/2000/svg" xmlns:xlink="http://www.w3.org/1999/xlink"><linearGradient id="a"><stop offset="0" stop-color="#fff"/><stop offset="1" stop-color="#8c8c8c"/></linearGradient><linearGradient id="b" gradientUnits="userSpaceOnUse" x1="26.7646" x2="104.7741" xlink:href="#a" y1="26.4287" y2="138.8264"/><linearGradient id="c" gradientUnits="userSpaceOnUse" x1="26.3789" x2="105.8881" xlink:href="#a" y1="25.8262" y2="140.3848"/><linearGradient id="d" gradientUnits="userSpaceOnUse" x1="26.9556" x2="104.2203" y1="26.7305" y2="138.0552"><stop offset="0" stop-color="#fff"/><stop offset="1" stop-color="#a4a4a4"/></linearGradient><linearGradient id="e" gradientTransform="matrix(.9999 -.0127 .0127 .9999 -2.7688 -24.7198)" gradientUnits="userSpaceOnUse" x1="68.6616" x2="81.2102" xlink:href="#a" y1="59.9512" y2="46.1891"/><path d="m63.464 13.065h-41.441c-1.576 0-2.866 1.26-2.866 2.799v75.18c0 1.54 1.29 2.801 2.866 2.801h62.102c1.576 0 2.865-1.261 2.865-2.801v-54.27z" fill="url(#b)" stroke="#8c8c8c" stroke-width="1.9729"/><path d="m22.023 12.079c-2.124 0-3.852 1.698-3.852 3.786v75.18c0 2.088 1.728 3.787 3.852 3.787h62.102c2.124 0 3.852-1.699 3.852-3.787v-54.677l-24.103-24.29h-41.851z" fill="url(#c)"/><path d="m64.285 11.093h-.822-41.44c-2.668 0-4.839 2.141-4.839 4.772v75.18c0 2.632 2.171 4.773 4.839 4.773h62.103c2.668 0 4.838-2.142 4.838-4.773v-54.271-.813l-.573-.577-23.528-23.709zm-45.128 4.772c0-1.539 1.29-2.799 2.866-2.799h41.439l23.528 23.708v54.271c0 1.54-1.289 2.801-2.864 2.801h-62.103c-1.576 0-2.866-1.261-2.866-2.801z" fill="#8c8c8c"/><path d="m22.023 13.558c-1.308 0-2.373 1.035-2.373 2.306v75.18c0 1.272 1.064 2.308 2.373 2.308h62.102c1.308 0 2.372-1.035 2.372-2.308 0 0 0-53.663 0-54.066-.281-.283-22.955-23.133-23.239-23.419-.407-.001-41.235-.001-41.235-.001z" fill="url(#d)"/><path d="m63.462 13.065h-41.439c-1.576 0-2.866 1.26-2.866 2.799v75.18c0 1.54 1.29 2.801 2.866 2.801h62.103c1.575 0 2.864-1.261 2.864-2.801v-54.27zm-41.439 79.794c-1.036 0-1.88-.813-1.88-1.814v-75.18c0-.999.844-1.813 1.88-1.813h41.029l22.952 23.129v53.864c0 1.001-.844 1.814-1.879 1.814z" fill="#f7f7f7"/><g fill="#a5a5a5"><path d="m54.771 34.882c0 .792-.709 1.433-1.582 1.433h-23.188c-.873 0-1.581-.642-1.581-1.433v-2.388c0-.792.708-1.433 1.581-1.433h23.188c.873 0 1.582.641 1.582 1.433z"/><path d="m54.771 45.507c0 .792-.709 1.434-1.582 1.434h-23.188c-.873 0-1.581-.642-1.581-1.434v-2.388c0-.791.708-1.433 1.581-1.433h23.188c.873 0 1.582.642 1.582 1.433z"/><path d="m67.156 66.759c0 .791-.709 1.433-1.581 1.433h-35.574c-.873 0-1.581-.642-1.581-1.433v-2.389c0-.791.708-1.433 1.581-1.433h35.574c.872 0 1.581.642 1.581 1.433z"/><path d="m67.156 56.134c0 .791-.709 1.432-1.581 1.432h-35.574c-.873 0-1.581-.641-1.581-1.432v-2.389c0-.791.708-1.434 1.581-1.434h35.574c.872 0 1.581.643 1.581 1.434z"/><path d="m67.156 77.384c0 .791-.709 1.434-1.581 1.434h-35.574c-.873 0-1.581-.643-1.581-1.434v-2.389c0-.79.708-1.432 1.581-1.432h35.574c.872 0 1.581.642 1.581 1.432z"/></g><path d="m64.697 13.561c0 .009.251 19.838.251 19.838.007.537.225 1.042.613 1.42s.898.583 1.435.577c0 0 17.323-.219 19.553-.247-2.532-2.536-20.081-20.112-21.806-21.839-.011.085-.046.165-.046.251z" fill="url(#e)"/><path d="m64.437 11.609c-.459.537-.736 1.233-.727 1.991v.074l.25 19.738c.021 1.642 1.369 2.971 3.006 2.971.015 0 .027 0 .041-.001l19.137-.242 1.498-.019.181-.002c.324-.005.636-.062.928-.161zm2.525 22.802c-.563-.004-1.021-.461-1.028-1.022l-.225-17.712 18.488 18.516-17.214.217z" fill="#8c8c8c"/></svg>