<svg enable-background="new 0 0 100 100" height="100" viewBox="0 0 100 100" width="100" xmlns="http://www.w3.org/2000/svg" xmlns:xlink="http://www.w3.org/1999/xlink"><linearGradient id="a" gradientUnits="userSpaceOnUse" x1="54.3022" x2="54.3022" y1="97.1567" y2="10.2515"><stop offset="0" stop-color="#a9a49e"/><stop offset="1" stop-color="#e6e5e4"/></linearGradient><linearGradient id="b" gradientUnits="userSpaceOnUse" x1="77.4429" x2="90.2173" y1="28.0698" y2="28.0698"><stop offset="0" stop-color="#fdf58d"/><stop offset=".0159" stop-color="#fdf088"/><stop offset=".1082" stop-color="#fbdb72"/><stop offset=".2163" stop-color="#faca61"/><stop offset=".3485" stop-color="#f9be55"/><stop offset=".5306" stop-color="#f8b74e"/><stop offset="1" stop-color="#f8b54c"/></linearGradient><linearGradient id="c" gradientUnits="userSpaceOnUse" x1="72.7217" x2="32.339" y1="90.7329" y2="21.5525"><stop offset="0" stop-color="#bebab6"/><stop offset="1" stop-color="#f2f1f0"/></linearGradient><linearGradient id="d"><stop offset="0" stop-color="#ecebea"/><stop offset=".281" stop-color="#fff"/><stop offset=".4445" stop-color="#f0efee"/><stop offset="1" stop-color="#bebab6"/></linearGradient><linearGradient id="e" gradientUnits="userSpaceOnUse" x1="10.5332" x2="23.9223" xlink:href="#d" y1="24.5142" y2="24.5142"/><linearGradient id="f" gradientUnits="userSpaceOnUse" x1="10.4502" x2="24.0743" xlink:href="#d" y1="34.981" y2="34.981"/><linearGradient id="g" gradientUnits="userSpaceOnUse" x1="10.0767" x2="24.2264" xlink:href="#d" y1="66.2866" y2="66.2866"/><linearGradient id="h" gradientUnits="userSpaceOnUse" x1="9.6201" x2="23.7698" xlink:href="#d" y1="76.7534" y2="76.7534"/><path d="m25.476 10.75c-1.476 0-2.676 1.205-2.676 2.685v73.045c0 1.48 1.2 2.685 2.676 2.685h57.653c1.476 0 2.676-1.204 2.676-2.685v-73.044c0-1.48-1.2-2.685-2.676-2.685h-57.653z" fill="url(#a)"/><path d="m83.127 10.026h-57.652c-1.875 0-3.4 1.53-3.4 3.41v73.045c0 1.88 1.525 3.409 3.4 3.409h57.653c1.875 0 3.4-1.529 3.4-3.409v-73.045c0-1.88-1.526-3.41-3.401-3.41zm-59.603 3.41c0-1.083.873-1.961 1.951-1.961h57.653c1.076 0 1.951.878 1.951 1.961v73.045c0 1.082-.875 1.96-1.951 1.96h-57.653c-1.078 0-1.951-.878-1.951-1.96z" fill="#606060"/><path d="m79.89 20.137c-1.349 0-2.447 1.098-2.447 2.447v10.973c0 1.349 1.098 2.447 2.447 2.447h7.881c1.349 0 2.446-1.098 2.446-2.447v-10.973c0-1.349-1.098-2.447-2.446-2.447z" fill="url(#b)"/><path d="m87.771 19.469h-7.881c-1.717 0-3.115 1.398-3.115 3.115v10.973c0 1.717 1.398 3.114 3.115 3.114h7.881c1.717 0 3.113-1.397 3.113-3.114v-10.973c0-1.717-1.396-3.115-3.113-3.115zm-9.661 3.115c0-.983.798-1.78 1.78-1.78h7.881c.981 0 1.778.797 1.778 1.78v10.973c0 .982-.797 1.779-1.778 1.779h-7.881c-.982 0-1.78-.797-1.78-1.779z" fill="#8b5c29"/><path d="m79.89 39.757c-1.349 0-2.447 1.098-2.447 2.447v10.973c0 1.35 1.098 2.448 2.447 2.448h7.881c1.349 0 2.446-1.098 2.446-2.448v-10.973c0-1.349-1.098-2.447-2.446-2.447z" fill="#88da4e"/><path d="m87.771 39.09h-7.881c-1.717 0-3.115 1.397-3.115 3.114v10.973c0 1.717 1.398 3.115 3.115 3.115h7.881c1.717 0 3.113-1.398 3.113-3.115v-10.973c0-1.717-1.396-3.114-3.113-3.114zm-9.661 3.114c0-.982.798-1.779 1.78-1.779h7.881c.981 0 1.778.797 1.778 1.779v10.973c0 .983-.797 1.78-1.778 1.78h-7.881c-.982 0-1.78-.797-1.78-1.78z" fill="#47841a"/><path d="m79.89 59.378c-1.349 0-2.447 1.098-2.447 2.447v10.974c0 1.349 1.098 2.445 2.447 2.445h7.881c1.349 0 2.446-1.097 2.446-2.445v-10.973c0-1.349-1.098-2.447-2.446-2.447h-7.881z" fill="#a0c0e9"/><path d="m87.771 58.711h-7.881c-1.717 0-3.115 1.398-3.115 3.115v10.974c0 1.716 1.398 3.113 3.115 3.113h7.881c1.717 0 3.113-1.397 3.113-3.113v-10.973c0-1.718-1.396-3.116-3.113-3.116zm-9.661 3.116c0-.983.798-1.78 1.78-1.78h7.881c.981 0 1.778.797 1.778 1.78v10.973c0 .981-.797 1.778-1.778 1.778h-7.881c-.982 0-1.78-.797-1.78-1.778z" fill="#4d81bb"/><path d="m19.241 10.255c-1.495 0-2.71 1.22-2.71 2.72v73.967c0 1.499 1.216 2.719 2.71 2.719h59.357c1.496 0 2.711-1.22 2.711-2.719v-73.967c0-1.5-1.216-2.72-2.711-2.72z" fill="url(#c)"/><path d="m78.598 9.521h-59.357c-1.899 0-3.445 1.55-3.445 3.454v73.967c0 1.904 1.546 3.453 3.445 3.453h59.357c.922 0 1.788-.359 2.438-1.013.65-.652 1.008-1.518 1.008-2.44v-73.967c0-.921-.357-1.788-1.007-2.44-.652-.654-1.517-1.014-2.439-1.014zm-61.334 3.454c0-1.097.885-1.986 1.977-1.986h59.357c1.093 0 1.978.889 1.978 1.986v73.967c0 1.098-.885 1.985-1.978 1.985h-59.357c-1.092 0-1.977-.888-1.977-1.985z" fill="#606060"/><path d="m78.599 10.989h-59.358c-1.092 0-1.977.889-1.977 1.986v1.956c0-1.096.885-1.985 1.977-1.985h59.357c1.092 0 1.978.889 1.978 1.985v-1.956c.001-1.097-.885-1.986-1.977-1.986z" fill="#fff" opacity=".5"/><path d="m78.599 89.011h-59.358c-1.092 0-1.977-.89-1.977-1.985v-1.956c0 1.096.885 1.985 1.977 1.985h59.357c1.092 0 1.978-.89 1.978-1.985v1.956c.001 1.096-.885 1.985-1.977 1.985z" opacity=".1"/><g stroke="#7f7f7f" stroke-width=".9783"><path d="m23.187 63.652h-5.922v7.228h5.922c1.233 0 2.232-1.116 2.232-2.492v-2.244c0-1.376-.999-2.492-2.232-2.492zm0 10.467h-5.922v7.228h5.922c1.233 0 2.232-1.116 2.232-2.492v-2.243c0-1.378-.999-2.493-2.232-2.493zm0-41.773h-5.922v7.228h5.922c1.233 0 2.232-1.116 2.232-2.492v-2.243c0-1.378-.999-2.493-2.232-2.493zm0-10.467h-5.922v7.228h5.922c1.233 0 2.232-1.116 2.232-2.492v-2.244c0-1.377-.999-2.492-2.232-2.492z" fill="#7f7f7f" opacity=".3"/><path d="m24.44 25.636c0 1.376-.998 2.492-2.232 2.492h-9.525c-1.233 0-2.232-1.116-2.232-2.492v-2.244c0-1.376.999-2.492 2.232-2.492h9.525c1.234 0 2.232 1.115 2.232 2.492z" fill="url(#e)"/><path d="m24.44 36.103c0 1.376-.998 2.492-2.232 2.492h-9.525c-1.233 0-2.232-1.116-2.232-2.492v-2.243c0-1.376.999-2.492 2.232-2.492h9.525c1.234 0 2.232 1.116 2.232 2.492z" fill="url(#f)"/><path d="m24.44 67.409c0 1.377-.998 2.492-2.232 2.492h-9.525c-1.233 0-2.232-1.115-2.232-2.492v-2.243c0-1.376.999-2.492 2.232-2.492h9.525c1.234 0 2.232 1.116 2.232 2.492z" fill="url(#g)"/><path d="m24.44 77.876c0 1.375-.998 2.491-2.232 2.491h-9.525c-1.233 0-2.232-1.116-2.232-2.491v-2.244c0-1.376.999-2.492 2.232-2.492h9.525c1.234 0 2.232 1.116 2.232 2.492z" fill="url(#h)"/></g><path d="m33.534 24.3c-1.484 0-2.691 1.207-2.691 2.69v20.224c0 1.484 1.207 2.691 2.691 2.691h32.035c1.484 0 2.691-1.207 2.691-2.691v-20.224c0-1.483-1.207-2.69-2.691-2.69z" fill="#8b8b8b"/><path d="m65.569 23.566h-32.035c-1.888 0-3.425 1.536-3.425 3.424v20.224c0 1.888 1.537 3.425 3.425 3.425h32.035c1.888 0 3.425-1.537 3.425-3.425v-20.224c0-1.888-1.537-3.424-3.425-3.424zm-33.992 3.424c0-1.08.877-1.956 1.957-1.956h32.035c1.08 0 1.957.876 1.957 1.956v20.224c0 1.081-.877 1.957-1.957 1.957h-32.035c-1.08 0-1.957-.876-1.957-1.957z" fill="#8b8b8b"/><path d="m67.526 47.214c0 1.081-.877 1.957-1.957 1.957h-32.035c-1.08 0-1.957-.876-1.957-1.957v-20.224c0-1.08.877-1.956 1.957-1.956h32.035c1.08 0 1.957.876 1.957 1.956z" fill="#eee"/><path d="m65.569 49.171c1.08 0 1.957-.876 1.957-1.957v-.94c-12.383-9.486-29.049-13.39-35.949-14.67v15.61c0 1.081.877 1.957 1.957 1.957z" fill="#fff" opacity=".29"/></svg>