<svg enable-background="new 0 0 100.001 100" height="100" viewBox="0 0 100.001 100" width="100.001" xmlns="http://www.w3.org/2000/svg" xmlns:xlink="http://www.w3.org/1999/xlink"><linearGradient id="a" gradientUnits="userSpaceOnUse" x1="27.1631" x2="71.2572" y1="31.1099" y2="73.1996"><stop offset="0" stop-color="#fdf58d"/><stop offset=".3504" stop-color="#f8dc73"/><stop offset="1" stop-color="#eea43a"/></linearGradient><path d="m41.999 5.876-.019.005c-3.807 1.143-6.41 3.033-7.739 5.62-.752 1.465-.967 2.915-.967 4.093 0 1.513.354 2.579.381 2.656 1.013 3.376 3.562 5.355 5.611 6.945.858.666 1.598 1.241 2.094 1.813v.001c0 .009.047.108.104.226-1.327.398-24.666 7.406-24.666 7.406s6.892 22.953 7.293 24.291c-.401-.01-.864-.1-1.406-.299-6.397-3.449-10.785-1.912-11.599-1.568-.148.061-7.97 3.031-5.435 12.57 1.148 3.826 3.04 6.432 5.627 7.76 3.349 1.719 6.612.633 6.75.586 3.374-1.014 5.352-3.561 6.941-5.607.669-.861 1.247-1.605 1.821-2.102.185-.113.411-.182.624-.273.379 1.262 7.42 24.713 7.42 24.713l26.077-7.83-.282-.578-.659-1.379c-.631-.742-1.458-1.383-2.333-2.063-1.908-1.482-4.282-3.324-5.188-6.342-.017-.051-.967-2.939.515-5.813 1.17-2.27 3.52-3.947 6.985-4.988 8.403-2.232 10.929 4.316 11.033 4.598.045.1 1.979 4.268-1.5 10.732-.408 1.096-.512 1.941-.354 2.668l.143.656 25.636-7.697-7.791-25.947-.576.146c-.566.143-1.135.395-1.689.746-.742.631-1.385 1.459-2.064 2.336-1.48 1.906-3.324 4.281-6.339 5.188-.051.016-2.94.967-5.814-.516-2.269-1.172-3.947-3.521-4.987-6.986-2.233-8.402 4.317-10.93 4.597-11.033.1-.045 4.268-1.979 10.733 1.5 1.264.471 2.225.541 3.016.256l.553-.199-7.674-25.562s-22.394 6.725-24.062 7.226c.049-.295.065-.568.195-.921 1.734-3.217 2.21-5.921 2.21-7.919 0-2.335-.65-3.708-.701-3.81-.007-.019-2.974-7.842-12.515-5.305z" fill="url(#a)"/><path d="m45.627 4.749c-1.196 0-2.471.177-3.788.527l-.019.005-.019.006c-3.978 1.194-6.708 3.191-8.116 5.937-1.803 3.516-.711 6.949-.622 7.218 1.085 3.567 3.71 5.605 5.822 7.244.57.443 1.088.845 1.503 1.223l-23.174 6.959-1.19.356.357 1.191 6.827 22.74c-.075-.023-.152-.051-.23-.078-2.822-1.504-5.591-2.266-8.23-2.266-2.281 0-3.688.58-4.01.729-.384.15-2.262.961-3.848 2.818-1.605 1.879-3.226 5.213-1.839 10.438l.005.018.006.02c2.389 7.961 7.485 9.148 10.31 9.148 1.494 0 2.57-.32 2.817-.4 3.583-1.08 5.627-3.713 7.271-5.826.583-.752 1.094-1.41 1.574-1.865l7.027 23.404.357 1.189 1.19-.357 24.787-7.441 1.218-.367-.394-1.209c-.165-.508-.41-1.018-.725-1.518l-.05-.078-.06-.07c-.617-.713-1.467-1.373-2.368-2.072-1.933-1.502-4.125-3.201-4.973-6.029l-.005-.018-.008-.023c-.009-.027-.872-2.695.493-5.324 1.09-2.102 3.302-3.666 6.577-4.654 1.104-.293 2.16-.441 3.136-.441 5.356 0 7.091 4.463 7.163 4.652l.019.051.032.068-.005-.01c.075.158 1.795 3.969-1.511 10.113l-.042.078-.03.082c-.414 1.129-.527 2.088-.343 2.934l.285 1.311 1.286-.385 24.398-7.326 1.189-.355-.355-1.191-7.441-24.783-.342-1.139-1.154.293c-.629.16-1.258.438-1.869.824l-.076.049-.07.059c-.715.617-1.375 1.469-2.074 2.371-1.502 1.934-3.203 4.123-6.029 4.973l-.017.006-.023.008c-.009.002-.856.281-2.056.281-2.604 0-6.09-1.277-7.923-7.354-.888-3.352-.44-6.102 1.33-8.172 1.298-1.521 2.861-2.119 2.876-2.125l.057-.02.067-.033-.01.004c.011-.004 1.093-.502 2.976-.502 2.252 0 4.653.678 7.135 2.014l.078.041.082.029c.783.291 1.477.43 2.121.43.443 0 .861-.068 1.242-.207l1.105-.398-.338-1.127-7.327-24.403-.356-1.19-1.19.357-22.387 6.723c3.507-6.804 1.652-11.367 1.386-11.95-.128-.324-.728-1.717-2.025-3.091-1.346-1.427-3.728-3.124-7.443-3.124zm-11.731 10.842c.001-2.722 1.226-7.002 8.263-9.114 1.279-.34 2.432-.486 3.469-.486 6.335.001 8.325 5.463 8.325 5.463s.627 1.271.627 3.518c0 1.921-.459 4.557-2.163 7.722-.247.67-.352 1.227-.351 1.693 0 .107.006.21.018.308l1.189-.357.036-.011 23.142-6.949 7.327 24.403c-.238.086-.51.135-.82.135-.467 0-1.023-.107-1.691-.354-3.167-1.705-5.803-2.162-7.725-2.162-2.245 0-3.515.625-3.515.625s-5.463 1.99-5.464 8.326c0 1.037.146 2.191.486 3.471 2.114 7.041 6.4 8.264 9.121 8.264 1.448 0 2.454-.348 2.454-.348 4.606-1.383 6.512-5.828 8.557-7.592.531-.338 1.033-.549 1.51-.67l7.439 24.783-24.397 7.326c-.036-.168-.056-.35-.056-.545-.001-.467.104-1.025.351-1.697 1.704-3.164 2.163-5.801 2.164-7.723 0-2.248-.627-3.52-.627-3.52s-1.988-5.463-8.328-5.463c-1.036 0-2.189.146-3.467.486-7.037 2.113-8.262 6.395-8.263 9.115 0 1.451.347 2.459.347 2.459 1.383 4.607 5.826 6.514 7.591 8.557.274.434.466.846.594 1.238l-24.789 7.446-7.442-24.785c-.449.123-.923.332-1.424.65-2.043 1.762-3.951 6.207-8.558 7.59 0 0-1.006.348-2.455.348-2.722 0-7.007-1.223-9.12-8.264-.34-1.279-.486-2.434-.486-3.469.002-6.338 5.465-8.326 5.465-8.326s1.27-.627 3.517-.627c1.922 0 4.557.459 7.723 2.162.428.156.809.258 1.15.309.013.002.025.004.038.006.178.025.345.037.502.037.276 0 .521-.037.739-.105l-7.327-24.404 23.579-7.081.004-.001 1.19-.357c-.124-.325-.289-.661-.511-1.013-1.765-2.041-6.208-3.95-7.591-8.557-.001-.002-.348-1.009-.347-2.46zm21.186-4.655c-.006-.012-.01-.021-.014-.028.005.009.009.019.014.028zm.037.093c-.002-.006-.009-.023-.02-.052.007.017.014.034.02.052zm11.123 40.45c-.001-.006-.002-.01-.004-.014.001.004.003.008.004.014zm-55.482 5.052.045-.018c-.006.003-.021.008-.045.018zm7.432 22.049c.018-.006.031-.01.039-.014-.013.006-.026.01-.039.014z" fill="#c07b5d"/></svg>