<svg enable-background="new 0 0 106 106" height="106" viewBox="0 0 106 106" width="106" xmlns="http://www.w3.org/2000/svg" xmlns:xlink="http://www.w3.org/1999/xlink"><linearGradient id="a"><stop offset="0" stop-color="#ffc10e"/><stop offset="1" stop-color="#f16422"/></linearGradient><linearGradient id="b" gradientUnits="userSpaceOnUse" x1="23.0322" x2="64.0493" xlink:href="#a" y1="30.5708" y2="95.4095"/><linearGradient id="c" gradientUnits="userSpaceOnUse" x1="58.3149" x2="43.3528" xlink:href="#a" y1="34.8149" y2="62.7066"/><linearGradient id="d" gradientUnits="userSpaceOnUse" x1="55.8853" x2="47.7054" xlink:href="#a" y1="69.2188" y2="78.9561"/><mask id="e" height="66.804" maskUnits="userSpaceOnUse" width="78.362" x="13.954" y="17.375"><path d="m16.45 58.473s34.28 13.811 76.328-32.184c-15.044-9.864-34.403-13.494-34.403-13.494l-18.073 1.232-12.334 19.564z" fill="url(#f)"/></mask><linearGradient id="f" gradientUnits="userSpaceOnUse" x1="37.71" x2="57.9678" y1="17.915" y2="47.2356"><stop offset="0" stop-color="#fff"/><stop offset="1"/></linearGradient><path d="m48.708 18.761-34.482 57.83c-1.104 1.852-1.284 3.624-.508 4.99.776 1.367 2.391 2.12 4.547 2.12h69.326c2.155 0 3.771-.753 4.547-2.119.776-1.367.596-3.14-.508-4.991l-34.483-57.829c-1.102-1.848-2.6-2.865-4.219-2.865-1.618-.001-3.117 1.017-4.22 2.864z" fill="#82abe0"/><path d="m52.927 15.396c-1.801 0-3.452 1.104-4.648 3.109l-34.483 57.83c-1.2 2.012-1.382 3.963-.513 5.493.869 1.529 2.638 2.372 4.982 2.372h69.326c2.343 0 4.111-.843 4.98-2.371.869-1.53.688-3.481-.513-5.494l-34.483-57.83c-1.195-2.005-2.846-3.109-4.648-3.109zm-39.181 64.338c-.002-.867.29-1.85.909-2.887l34.483-57.83c1.042-1.747 2.416-2.621 3.789-2.621 1.374 0 2.748.874 3.79 2.621l34.483 57.831c.619 1.037.911 2.02.909 2.887-.005 2.054-1.657 3.467-4.518 3.467h-69.326c-2.862-.001-4.514-1.414-4.519-3.468z" fill="#d85700"/><path d="m49.568 19.274-34.483 57.829c-.912 1.529-1.088 2.944-.498 3.985.591 1.04 1.897 1.613 3.677 1.613h69.326c1.78 0 3.086-.573 3.678-1.613.591-1.041.414-2.456-.498-3.985l-34.482-57.83c-.914-1.533-2.106-2.377-3.359-2.377-1.254 0-2.447.844-3.361 2.378z" fill="url(#b)"/><path d="m52.927 16.396c-1.373 0-2.747.874-3.789 2.621l-34.483 57.83c-.619 1.037-.911 2.02-.909 2.887.005 2.054 1.657 3.467 4.519 3.467h69.326c2.86 0 4.513-1.413 4.518-3.467.002-.867-.29-1.85-.909-2.887l-34.482-57.83c-1.043-1.746-2.417-2.621-3.791-2.621zm-34.662 65.805c-1.593 0-2.745-.482-3.243-1.359-.499-.878-.324-2.114.492-3.482l34.483-57.83c.819-1.375 1.86-2.133 2.93-2.133s2.11.758 2.931 2.133l34.483 57.83c.815 1.368.99 2.605.491 3.482-.497.877-1.648 1.359-3.241 1.359z" fill="#fff38e"/><path d="m44.608 36.544c-.172-1.346.798-2.447 2.154-2.447h11.591c1.356 0 2.289 1.097 2.072 2.436l-4.352 26.882c-.217 1.339-1.504 2.435-2.86 2.435h-2.404c-1.356 0-2.606-1.101-2.778-2.446z" fill="url(#c)"/><circle cx="51.798" cy="74.086" fill="url(#d)" r="5.693"/><path d="m45.604 36.542c-.177-1.345.788-2.445 2.145-2.445h10.604c1.356 0 2.285 1.096 2.063 2.434l-4.285 25.892c-.222 1.338-1.513 2.433-2.869 2.433h-1.467c-1.356 0-2.611-1.1-2.788-2.444z" fill="#fff"/><circle cx="52.558" cy="73.573" fill="#fff" r="5.446"/><g mask="url(#e)" opacity=".6"><path d="m53.136 17.874c-1.252 0-2.446.844-3.361 2.377l-34.483 57.827c-.558.936-.84 1.828-.84 2.619 0 .502.114.963.344 1.367.591 1.04 1.897 1.613 3.677 1.613h69.326c1.78 0 3.086-.573 3.677-1.613.592-1.041.414-2.456-.498-3.986l-34.482-57.828c-.914-1.532-2.107-2.376-3.36-2.376z" fill="#fff"/><path d="m53.135 17.375c-1.374 0-2.747.873-3.789 2.62l-34.484 57.827c-.618 1.038-.91 2.02-.908 2.888.005 2.055 1.657 3.469 4.519 3.469h69.326c2.86 0 4.513-1.414 4.517-3.469.002-.868-.29-1.85-.909-2.888l-34.482-57.827c-1.042-1.747-2.416-2.62-3.79-2.62zm-34.662 65.804c-1.593 0-2.745-.483-3.243-1.361-.499-.878-.324-2.114.491-3.482l34.483-57.828c.82-1.375 1.861-2.132 2.931-2.132s2.11.757 2.931 2.132l34.482 57.828c.815 1.369.99 2.604.492 3.482s-1.649 1.361-3.241 1.361z" fill="#ffcdcc"/></g></svg>