<svg viewBox="0 0 24 24" xmlns="http://www.w3.org/2000/svg" xmlns:xlink="http://www.w3.org/1999/xlink"><linearGradient id="a" gradientUnits="userSpaceOnUse" x1="-12.830508" x2="-12.830508" y1="11.4065" y2="20.4065"><stop offset="0" stop-color="#0040dd"/><stop offset="1" stop-color="#0a84ff"/></linearGradient><g fill="#4b4b4f" transform="scale(-1 1)"><rect height="1" ry=".436441" width="18" x="-21" y="18"/><rect height="1" ry=".5" width="11" x="-14" y="21"/><rect height="1" ry=".5" width="11" x="-14" y="13"/></g><path d="m11.492188 15a.50033005.50033005 0 0 0 -.345704.146484l-3.9999996 4a.50033005.50033005 0 0 0 .3535156.853516h2.5v3.5a.50033005.50033005 0 0 0 .5.5h2a.50033005.50033005 0 0 0 .5-.5v-3.5h2.5a.50033005.50033005 0 0 0 .353516-.853516l-4-4a.50033005.50033005 0 0 0 -.361328-.146484z" fill="url(#a)" transform="matrix(1 0 0 -1 0 25.99972)"/><g fill="#e9e9e9" fill-opacity=".992157" transform="matrix(-1 0 0 1 0 1)"><rect height="1" ry=".436441" width="18" x="-21" y="18"/><rect height="1" ry=".5" width="11" x="-14" y="21"/><rect height="1" ry=".5" width="11" x="-14" y="13"/></g></svg>