<svg viewBox="0 0 24 24" xmlns="http://www.w3.org/2000/svg" xmlns:xlink="http://www.w3.org/1999/xlink"><linearGradient id="a" gradientTransform="translate(-4)" gradientUnits="userSpaceOnUse" x1="11.237288" x2="11.457627" xlink:href="#c" y1="7.042373" y2="2.567797"/><linearGradient id="b" gradientUnits="userSpaceOnUse" x1="-19.897808" x2="-19.579052" y1="17.182213" y2="1.995771"><stop offset="0" stop-color="#0040dd"/><stop offset="1" stop-color="#0a84ff"/></linearGradient><linearGradient id="c" gradientTransform="matrix(.26458333 0 0 .26458333 101.6 307.58333)" gradientUnits="userSpaceOnUse" x1="18.5" x2="18.5" y1="23" y2="14.5"><stop offset="0" stop-color="#d70015"/><stop offset="1" stop-color="#ff453a"/></linearGradient><linearGradient id="d" gradientTransform="translate(-5)" gradientUnits="userSpaceOnUse" x1="16.423729" x2="16.576271" xlink:href="#c" y1="21.923729" y2="19.076271"/><linearGradient id="e" gradientTransform="translate(5)" gradientUnits="userSpaceOnUse" x1="11.237288" x2="11.457627" xlink:href="#c" y1="7.042373" y2="2.567797"/><linearGradient id="f" gradientUnits="userSpaceOnUse" x1="13" x2="13" xlink:href="#b" y1="21" y2="20"/><linearGradient id="g" gradientUnits="userSpaceOnUse" x1="6" x2="6" xlink:href="#b" y1="21" y2="20"/><linearGradient id="h" gradientUnits="userSpaceOnUse" x1="18" x2="18" xlink:href="#b" y1="21" y2="20"/><linearGradient id="i" gradientUnits="userSpaceOnUse" x1="11.51736" x2="11.527326" xlink:href="#b" y1="16.887394" y2="9.029556"/><g fill="#808080" transform="translate(0 -16)"><path d="m18 20h4v1h-4z" fill="url(#h)"/><path d="m2 20h4v1h-4z" fill="url(#g)"/></g><path d="m2 20v1h8v-1zm11 0v1h9v-1z" fill="url(#f)"/><path d="m15 2c-.554 0-1 .446-1 1v3c0 .554.446 1 1 1h3c.554 0 1-.446 1-1v-3c0-.554-.446-1-1-1zm0 1h3v3h-3z" fill="url(#e)"/><path d="m11.5 9c-.277 0-.5.223-.5.5v3.501953h-2.5a.49857654.49858476 0 0 0 -.3515625.849609l3.0000005 3a.49857654.49858476 0 0 0 .703124 0l3-3a.49857654.49858476 0 0 0 -.351562-.849609h-2.5v-3.501953c0-.277-.223-.5-.5-.5z" fill="url(#i)" transform="scale(1.00000001 1)"/><path d="m10 19h3v3h-3z" fill="url(#d)"/><path d="m6 2c-.554 0-1 .446-1 1v3c0 .554.446 1 1 1h3c.554 0 1-.446 1-1v-3c0-.554-.446-1-1-1zm0 1h3v3h-3z" fill="url(#a)"/></svg>