<svg viewBox="0 0 32 32" xmlns="http://www.w3.org/2000/svg"><g transform="matrix(0 1 -1 0 32 0)"><path d="m2.998047 28.5c.0005296.277001.2249517.501424.5019531.501953h25.9999999c.277001-.00053.501423-.224952.501953-.501953v-5c-.00053-.277001-.224952-.501423-.501953-.501953h-25.9999999c-.2770014.000529-.5014235.224952-.5019531.501953zm1.0019531-.5v-4h24.9999999v4z" fill="#3a3a38"/><path d="m4.0000001 24h24.9999999v4h-24.9999999z" fill="#fafafa"/><path d="m11.5 7.9980469a.50291536.50291536 0 0 0 -.501953.5019531v16a.50291536.50291536 0 0 0 .501953.501953h5a.50291536.50291536 0 0 0 .501953-.501953v-16a.50291536.50291536 0 0 0 -.501953-.5019531zm.5 1.0019531h4v15h-4z" fill="#3a3a38" transform="matrix(0 -1 1 0 0 32)"/><path d="m9 16h15v4h-15z" fill="#fafafa"/><g fill="#1e8bcd"><rect height="1" ry=".5" transform="matrix(0 -1 -1 0 0 0)" width="28" x="-30" y="-17"/><path d="m23.490926 2c-.12781 0-.255582.04855-.353516.146484l-4.998047 5c-.04702.047013-.08408.103236-.109375.166016-.02334.057904-.03711.12105-.03711.1875s.01377.129596.03711.1875c.0253.06278.06236.119003.109375.166016l4.998047 5c.097934.097934.225706.146484.353516.146484.127809 0 .255582-.04855.353516-.146484.195869-.195868.195869-.511163 0-.707032l-4.144532-4.146484h9.80009c.277 0 .5-.223.5-.5s-.223-.5-.5-.5h-9.80009l4.144532-4.146484c.195869-.195869.195869-.511164 0-.707032-.097934-.097934-.225707-.146484-.353516-.146484z"/><path d="m9.501952 2c.12781 0 .255582.04855.353516.146484l4.998047 5c.04702.047013.08408.103236.109375.166016.02334.057904.03711.12105.03711.1875s-.01377.129596-.03711.1875c-.0253.06278-.06236.119003-.109375.166016l-4.998047 5c-.097934.097934-.225706.146484-.353516.146484-.127809 0-.255582-.04855-.353516-.146484-.195869-.195868-.195869-.511163 0-.707032l4.144532-4.146484h-9.80009c-.277 0-.5-.223-.5-.5s.223-.5.5-.5h9.80009l-4.144532-4.146484c-.195869-.195869-.195869-.511164 0-.707032.097934-.097934.225707-.146484.353516-.146484z"/></g></g></svg>