<svg viewBox="0 0 32 32" xmlns="http://www.w3.org/2000/svg"><path d="m5 5v2h2v-2zm4 0v.5c0-.1748905.0358913-.3424298.09375-.5zm0 .5v1.5c0 1.0907028-.9092972 2-2 2h-1.5c.8137028 0 1.5.6862972 1.5 1.5v11c0 .813703-.6862972 1.5-1.5 1.5h1.5c1.0907028 0 2 .909297 2 2v1.5c0-.813703.6862972-1.5 1.5-1.5h11c.813703 0 1.5.686297 1.5 1.5v-1.5c0-1.090703.909297-2 2-2h1.5c-.813703 0-1.5-.686297-1.5-1.5v-11c0-.8137028.686297-1.5 1.5-1.5h-1.5c-1.090703 0-2-.9092972-2-2v-1.5c0 .8137028-.686297 1.5-1.5 1.5h-11c-.8137028 0-1.5-.6862972-1.5-1.5zm14 0v-.5h-.09375c.057859.1575702.09375.3251095.09375.5zm3.5 3.5c.174891 0 .34243.0358913.5.09375v-.09375zm0 14h.5v-.09375c-.15757.057859-.325109.09375-.5.09375zm-3.5 3.5c0 .174891-.035891.34243-.09375.5h.09375zm-14 0v.5h.09375c-.0578587-.15757-.09375-.325109-.09375-.5zm-3.5-3.5c-.1748905 0-.3424298-.035891-.5-.09375v.09375zm0-14h-.5v.09375c.1575702-.0578587.3251095-.09375.5-.09375zm19.5-4v2h2v-2zm-20 20v2h2v-2zm20 0v2h2v-2z" fill="#fff"/><g fill="#808080"><rect height="5" ry="1" width="5" x="3" y="24"/><rect height="1" ry=".5" width="12" x="10" y="26"/><rect height="12" ry=".5" width="1" x="26" y="10"/></g><path d="m16 9-2.625 5h-4.375l4 3.5-1 5.5 4-3 4 3-1-5.5 4-3.5h-4.375z" fill="#eac282"/><g fill="#808080"><rect height="5" ry="1" width="5" x="24" y="24"/><rect height="5" ry="1" width="5" x="3" y="3"/><rect height="5" ry="1" width="5" x="24" y="3"/><rect height="12" ry=".5" width="1" x="5" y="10"/><rect height="1" ry=".5" width="12" x="10" y="5"/></g></svg>