<svg viewBox="0 0 32 32" xmlns="http://www.w3.org/2000/svg"><path d="m17.140873 29h-2.311049q-.400429 0-.640687-.192771-.240258-.20482-.354666-.506024l-.961031-3.144579h-5.5945677l-.9495893 3.132531q-.0915267.26506-.3546661.493974-.2516981.216869-.6292457.216869h-2.3453712l5.5373641-16h3.0661439zm-9.1869915-6.060241h4.2331095l-1.544513-5.06024q-.13729-.373496-.286021-.867471-.148731-.506023-.297462-1.096385-.1372898.590362-.2860208 1.096385-.1487308.506025-.27458.879519z" fill="#696969"/><path d="m18.123047 13v16h5.572265c.851815 0 1.605898-.116678 2.261719-.349609.66336-.240964 1.217357-.570613 1.66211-.988282.452291-.425705.797567-.927546 1.03125-1.505859s.349609-1.209845.349609-1.892578c0-1.85542-.968939-3.029352-2.90625-3.527344.444752-.168676.824022-.374269 1.140625-.615234.324143-.248996.589439-.521172.792969-.81836.203532-.297188.353177-.619461.451172-.964843.098-.34538.148437-.70474.148437-1.074219 0-.650602-.103109-1.235724-.306641-1.757813-.195992-.53012-.512003-.980131-.949218-1.349609-.393617-.33847-.908878-.59605-1.517578-.792969v4.414063c.0065.448179-.199309.925758-.527344 1.214844-.0035.003-.006246.004812-.009766.007812-.09304.137036-.201076.261326-.332031.361328-.452292.337349-1.096857.50586-1.933594.50586h-1.957031v-4.433594h.90625v-2.433594zm2.970703 9.048828h2.535156c.45229 0 .831559.051841 1.140625.15625.316605.09638.571311.237134.759766.421875.195993.184738.33505.41072.417969.675781.09046.26506.132812.561307.132812.890625 0 .30522-.035948.601467-.111328.890625-.07538.281124-.208028.53118-.396484.748047-.180916.216869-.427537.389065-.744141.517578-.316603.128515-.712594.191407-1.1875.191407h-2.546875z" fill="#696969"/><g fill="none" stroke="#4d82b8" stroke-linecap="round" stroke-width="2" transform="matrix(0 -1 1 0 1.014242 33.004142)"><path d="m17.014242 23h12"/><path d="m24 18 5 5-5 5" stroke-linejoin="round"/></g></svg>