<svg viewBox="0 0 32 32" xmlns="http://www.w3.org/2000/svg"><path d="m4 4v24h24v-14.757812l-2.439453 2.435546c-.143098.143104-.315178.255598-.5.330078-.165238.066605-.355951.109376-.560547.109376s-.395309-.042771-.560547-.109376c-.184859-.074483-.35686-.186908-.5-.330078l-5-4.990234c-.288608-.288607-.439453-.679485-.439453-1.0605469 0-.381064.15084-.7719348.439453-1.0605469.575303-.575306 1.545791-.575303 2.121094 0l2.439453 2.4335938v-7zm22 0v7l2-1.9960938v-5.0039062z" fill="#fafafa"/><path d="m3 3v16.191406 9.808594h6.9902344 19.0097656v-16.191406-.564453l-1 .998047v.566406 14.191406h-18.0097656-5.9902344v-9.808594-14.191406h18.009766.990234v-1h-.990234zm23 0v1h2v5.0039062l.439453-.4375c.161069-.161069.35487-.2728705.560547-.34375v-5.2226562z" fill="#3a3a38"/><circle cx="9" cy="9" fill="#fb983b" r="3"/><path d="m19 16-5 6.59375-2-1.59375s-4.5842802 4.877824-6.8125 7h22.8125v-7z" fill="#83beef" fill-rule="evenodd"/><path d="m19 15-5 6.59375-2-1.59375s-7.5124055 8-8 8h1.1875c2.2282198-2.122176 6.8125-7 6.8125-7l2 1.59375 5-6.59375 9 5v-1z" fill="#0063b1"/><path d="m30 9.626954c0-.127809-.04855-.255582-.146484-.353516-.195868-.195869-.511163-.195869-.707032 0l-4.146484 4.136719v-11.792969c0-.277-.223-.5-.5-.5s-.5.223-.5.5v11.792969l-4.146484-4.136719c-.195869-.195869-.511164-.195869-.707032 0-.097934.097934-.146484.225707-.146484.353516 0 .12781.04855.255581.146484.353515l5 4.990235c.04701.04702.103236.08408.166016.109375.0579.02334.12105.03711.1875.03711s.129596-.01377.1875-.03711c.06278-.0253.119003-.06236.166016-.109375l5-4.990235c.097935-.097935.146484-.225705.146484-.353515z" fill="#1e8bcd"/></svg>