<svg viewBox="0 0 32 32" xmlns="http://www.w3.org/2000/svg"><path d="m14.080469 3c-.815181 0-1.487891.6726795-1.487891 1.4878903v.975c0-.047983.0023-.01274-.01777.015236-.02011.027963-.05333.038155-.0077.022854-.0077.00234-.01529.00494-.02285.00767-.013.00481-1.485351.6119139-1.485351.6119139-.01378.00624-.02733.013065-.04063.020319.05499-.027339-.126463-.068029-.0584 0l-.690594-.690625c-.2778445-.2777905-.6585745-.4341805-1.051119-.4341805-.39293 0-.7760568.1566331-1.0537109.4341805l-2.7142578 2.714257c-.5763542.5764629-.5765836 1.5285465 0 2.1048838l.690625.690625c-.034095-.03411-.010543-.01079-.00508.02285.00546.03367-.011167.06302.010153.02032l-.00762.01777c-.00608.01314-.6169922 1.490429-.6169922 1.490429-.00553.01336-.010608.02691-.015235.04062.020068-.0595-.1387979.04063-.043164.04063h-.7210937c-.4076847-.000242-.7707764.136818-1.0943274.36556-.323551.228741-.647461.597285-.647461 1.122266v3.839062c0 .815161.6727093 1.487891 1.4878906 1.487891h.975c-.047819 0-.01261-.0022.015235.01777.027849.02003.038104.05322.022851.0077.00239.0077.00494.01529.00762.02285.00486.013.611914 1.485352.611914 1.485352.00629.01378.013069.02733.020313.04063-.027407-.05512-.067722.12623 0 .0584l-.690625.690625c-.5766769.576429-.5766755 1.528452 0 2.104883l2.7142578 2.714257c.2778802.278128.6611689.43418 1.0537109.43418.3926095 0 .7733006-.156074 1.0511721-.43418l.690625-.690625c-.03395.03393-.01071.01053.02285.0051.03357-.0055.06342.01144.02031-.01014.0084.0044.01684.0087.02539.01274.01316.0058 1.482813.611914 1.482813.611914.01336.0056.02691.01066.04063.01524-.05936-.02005.04063.138653.04063.04316v.975c-.0000094.815044.6727026 1.487722 1.4878816 1.487722h3.839062c.81513 0 1.487891-.67268 1.487891-1.48789v-.975c0 .04775-.0023.01274.01777-.01524.0201-.02792.0553-.038.01014-.02285l.01274-.0051c.013-.0047 1.492968-.614454 1.492968-.614454.01464-.0062.02903-.01301.04316-.02032-.05535.02752.126945.06851.0584 0l.688086.690625c.277881.278127.65863.43418 1.051173.43418.392557 0 .775837-.156075 1.053711-.43418l2.714257-2.714257c.277882-.277766.43418-.660888.43418-1.053712 0-.392839-.15632-.773414-.43418-1.051172l-.690625-.690625c.03425.03424.01053.01079.0051-.02285-.0055-.03362.01144-.06348-.01014-.02032l.0077-.02032c.0061-.01333.616991-1.48789.616991-1.48789.0056-.01336.01066-.02691.01524-.04063-.01996.0592.138807-.04062.04316-.04062h.975c.815039.000047 1.487747-.672683 1.487747-1.487844v-3.836523-.0026c-.000226-.814567-.673547-1.48783-1.48789-1.48783h-.975c.04798 0 .01274.0023-.01524-.01777-.02798-.02014-.0381-.05561-.02285-.01014l-.0026-.0077c-.0046-.01287-.616993-1.498046-.616993-1.498046-.0062-.01378-.01308-.02733-.02032-.04063.02721.05473.07026-.126152.0026-.0584l.688085-.690625c.277536-.2777828.43418-.6583422.43418-1.0511723 0-.3927872-.156655-.7759336-.43418-1.0537111l-2.714245-2.7142216c-.277881-.2781272-.658628-.4341805-1.051172-.4341805-.392539 0-.775828.1560455-1.053711.4341805l-.688086.690625c.03403-.034021.01079-.01053-.02285-.00507-.03363.00546-.06578-.01131-.02285.01014l-.01777-.00767c-.013165-.00611-1.490438-.616993-1.490438-.616993-.01248-.00546-.02523-.01053-.03809-.015236.0594.020046-.04316-.1391403-.04316-.04316v-.975c-.001064-.8146574-.672758-1.487798-1.487889-1.487798zm0 1.2949219h3.839062c.113191 0 .195358.081462.195508.1955073v.9724611c0 .6220383.337364 1.072383.92168 1.2695319.07506.030966 1.388772.5755425 1.401562.5814445l-.01777-.01014c.278046.1389154.548567.1507337.804882.109174.256314-.041548.51131-.1381926.73125-.358007l.688086-.6880861h.0026c.03884-.038883.07886-.055861.137109-.055861.05825 0 .09825.016978.13711.055861l2.714257 2.7117181c.03919.039234.05586.081991.05586.1396486 0 .058019-.01667.097877-.05586.1371097l-.690625.688086c-.439579.439759-.518008.999691-.24375 1.551367.03306.07985.559455 1.350814.571289 1.38125.09889.294738.281798.495795.492579.647461s.460827.264062.771875.264062h.975c.113542 0 .193129.07994.192968.19297v3.839061c0 .11323-.07942.192969-.192968.192969h-.975c-.621764 0-1.072574.337229-1.269532.92168-.02899.07023-.549398 1.332132-.571289 1.38379-.139032.278092-.150715.551071-.109174.807421.04153.256351.137843.511213.358007.73125l.688086.688086c.03887.03886.0584.07909.0584.137109 0 .05803-.01954.100802-.0584.139649l-2.711718 2.711718c-.03886.0389-.08142.05586-.139648.05586-.05825 0-.09825-.01698-.13711-.05586l-.688086-.688086c-.439955-.439683-.996497-.518322-1.548828-.24375l.04063-.02032s-1.426648.589462-1.439648.594142l.01524-.0026c-.294647.09884-.495728.281736-.647462.492579-.151733.210843-.264062.460891-.264062.771875v.975c0 .113594-.07978.192968-.192969.192968h-3.839062c-.113542 0-.192969-.07938-.192969-.192968v-.975c0-.621963-.337815-1.072348-.921679-1.269532-.07359-.0303-1.319387-.544223-1.383859-.571225-.278221-.139241-.55104-.150789-.807422-.109174-.256381.04161-.511394.138276-.73125.358007l-.6880855.688078c-.03886.0389-.07852.0584-.1371095.0584-.05825 0-.098259-.01951-.1371093-.0584h-.00253l-2.7117228-2.711718c-.079871-.07983-.079869-.196924 0-.276758l.6880859-.688087c.4391319-.439835.5182186-.99929.24375-1.551366l.020313.04316s-.5943568-1.434265-.5992188-1.447266l.00762.02285c-.0987059-.295087-.2817327-.495747-.4925964-.64746-.2108637-.151712-.4609917-.264062-.771875-.264062h-.975c-.113542 0-.1929687-.07974-.1929687-.192969v-3.839062c0 .06058-.00867.01014.099024-.06601.1076998-.07614.2913855-.126984.3478517-.126958h.7210936c.6217613 0 1.072466-.337322 1.2695314-.921679.030961-.07502.5755303-1.388785.5814453-1.401562l-.010153.01777c.138772-.278047.1507471-.551128.1091762-.807423-.0415714-.256296-.1382085-.511338-.3580078-.73125l-.6880864-.6880834c-.079962-.079924-.08019-.1965522 0-.2767583l2.7117187-2.7117181c.039077-.039065.081786-.055861.1396484-.055861.05825 0 .097872.01664.1371095.055861l.6880855.6880861c.439878.4396275.999411.5181475 1.551368.24375l-.04316.020319s1.434304-.5943574 1.447265-.5992194l-.02285.00767c.294993-.098813.495788-.2817672.647455-.4925791.151668-.2108119.264063-.4608552.264063-.771875v-.975c0-.113581.07943-.1929684.192969-.1929684z" fill="#808080"/><path d="m14.032204 4.0001734c-.116402 0-.19783.081381-.19783.197829v.999559c0 .318854-.115229.5751956-.270713.7913176-.155488.216122-.361341.4036886-.663771.5049866l.02343-.00786c-.01333.00493-1.48372.6143116-1.48372.6143116l.04425-.020771c-.565861.2813075-1.139488.2008097-1.5904453-.2498914l-.7054176-.7054182c-.040226-.040209-.080845-.057268-.1405631-.057268-.059321 0-.1031052.017219-.1431659.057268l-2.7800235 2.7800229c-.08221.08223-.081976.2017883 0 .2837295l.7054179.7054185c.2253358.2254515.3244071.4869165.3670256.7496695.042618.26275.030338.542712-.1119293.82776l.010409-.01822c-.0060592.013063-.5643508 1.359951-.5960915 1.436867-.2020263.599073-.6640835.944893-1.3015063.944893h-.7392572c-.057889-.000027-.2462009.0521-.3566135.130155-.1104073.07807-.1015183.129783-.1015183.06767v3.935762c0 .116082.081427.197831.1978292.197831h.9995591c.3187141 0 .5751425.115176.7913175.270713.2161753.155535.4038113.36125.5049857.66377l-.00781-.02342c.00498.01333.6143123 1.483719.6143123 1.483719l-.020825-.04425c.2813823.565983.2003035 1.13953-.2498897 1.590444l-.7054166.705419c-.081881.08184-.081883.201887 0 .28373l2.7800234 2.780023h.00259c.039829.03986.080845.05987.1405629.05987.060066 0 .1007248-.01999.1405631-.05987l.7054177-.705418c.2253936-.225267.4868296-.324363.7496686-.367025.26284-.04266.542531-.03082.82776.111924.06609.02768 1.343195.554616 1.418646.585678.59857.202151.944895.663881.944895 1.30151v.999559c0 .116456.08143.197829.19783.197829h3.935762c.116042 0 .19783-.08138.19783-.197829v-.999559c0-.318816.115163-.575163.270714-.791317.155556-.216154.361702-.403658.66377-.504987l-.01562.0027c.01333-.0048 1.475912-.609107 1.475912-.609107l-.04164.02083c.566243-.281488 1.136804-.200869 1.587841.24989l.705418.705418c.03984.03986.08085.05727.140563.05727.0597 0 .103328-.0174.143166-.05727l2.780023-2.780023c.03984-.03982.05987-.08367.05987-.143167 0-.05948-.02002-.100724-.05987-.140563l-.705414-.705419c-.22571-.225579-.324444-.486861-.367025-.74967-.04258-.262806-.0306-.542662.111924-.827758.02244-.05296.555959-1.346652.585679-1.418646.201931-.599239.664097-.944962 1.301522-.944962h.999559c.1164118-.000032.1978258-.081781.1978258-.197862v-3.935763c.000165-.11588-.08143-.197829-.197829-.197829h-.999559c-.318884 0-.575228-.11523-.791317-.270715-.216091-.155485-.403604-.361608-.504987-.66377-.01213-.0312-.551787-1.334177-.585679-1.416042-.281167-.565571-.200763-1.139608.24989-1.5904425l.708021-.7054185c.04018-.040222.05727-.081084.05727-.1405633 0-.059121-.01709-.1029413-.05727-.1431662l-2.782626-2.7800229c-.03984-.039862-.08085-.057268-.140564-.057268-.05972 0-.100745.017406-.140563.057268h-.0027l-.705418.7054182c-.225479.2253512-.486898.3244248-.749669.3670247-.26277.042595-.540105.03048-.825156-.1119239l.01822.010395c-.01306-.006-1.359848-.5643404-1.4368-.5960877-.599004-.2021158-.944864-.6638028-.944864-1.3015095v-.9969561c-.000154-.1169218-.084394-.2004319-.200433-.2004319zm1.967881 7.3379086c2.556138 0 4.648991 2.087324 4.648991 4.641181 0 2.553685-2.092853 4.641182-4.648991 4.641182-2.556311 0-4.646388-2.087497-4.646388-4.641182 0-2.553858 2.090076-4.641181 4.646388-4.641181z" fill="#fff"/><path d="m16 10.8a5.2 5.2 0 0 0 -5.2 5.2 5.2 5.2 0 0 0 5.2 5.2 5.2 5.2 0 0 0 5.2-5.2 5.2 5.2 0 0 0 -5.2-5.2zm0 1.3a3.9 3.9 0 0 1 3.9 3.9 3.9 3.9 0 0 1 -3.9 3.9 3.9 3.9 0 0 1 -3.9-3.9 3.9 3.9 0 0 1 3.9-3.9z" fill="#fff"/><path d="m16 11a5 5 0 0 0 -5 5 5 5 0 0 0 5 5 5 5 0 0 0 5-5 5 5 0 0 0 -5-5zm0 1a4 4 0 0 1 4 4 4 4 0 0 1 -4 4 4 4 0 0 1 -4-4 4 4 0 0 1 4-4z" fill="#808080"/></svg>