<svg viewBox="0 0 32 32" xmlns="http://www.w3.org/2000/svg"><g fill-rule="evenodd"><path d="m6.5 3.5-2 2v2l8 10.5v6.5l4.886719 3.490234 1.996093-3.990234h-1.382812c-.890637-.00035-1.336587-1.077036-.707031-1.707031l2.207031-2.207031v-2.085938l8-10.5v-2l-2-2z" fill="#fff"/><path d="m24 17h7l-5 5h3l-12 9 4-8h-3z" fill="#eac282"/><path d="m6.5 3c-.1325995.0000255-.2597597.052716-.3535156.1464844l-2 2c-.0937681.0937559-.1464589.2209161-.1464844.3535156v2c-.000141.1092992.035533.2156344.1015625.3027344l7.8984375 10.3652346v6.332031c.000116.161184.07792.312429.208984.40625l4.951172 3.537109.453125-.904297-4.613281-3.296874v-6.242188c.000141-.109299-.03553-.215634-.101562-.302734l-7.898438-10.3652348v-1.625l1.7070312-1.7070312h18.5859378l1.707031 1.7070312v1.625l-7.898438 10.3652348c-.066029.0871-.101703.193435-.101562.302734v2.585938l1-1v-1.417969l7.898438-10.3652346c.06603-.0871001.101703-.1934353.101562-.3027344v-2c-.000025-.1325994-.05272-.2597597-.146484-.3535156l-2-2c-.093756-.0937682-.220916-.146459-.353516-.1464844z" fill="#808080"/></g></svg>