<svg viewBox="0 0 32 32" xmlns="http://www.w3.org/2000/svg"><path d="m10.810547 3-7.810547 21h2.234375c.2429596 0 .4501253-.06852.6191406-.207031.1795787-.138508.2999007-.299341.3632813-.480469l1.7597656-5.033203h8.5859375l.626953 1.783203h2.595703l.214844-.212891-6.255859-16.849609zm1.458984 2.7480469c.09507.394216.195149.7606187.300781 1.1015625.105635.3409437.210772.6427297.316407.8984375l2.947265 8.4531251h-7.1289059l2.9453129-8.4375001c.09507-.2557077.195147-.5535876.300781-.8945313s.212725-.7162232.318359-1.1210937z" fill="#808080"/><g fill="#4d82b8"><text font-family="sans-serif" font-size="32.382496" letter-spacing="0" transform="scale(.9999059 1.0000941)" word-spacing="0" x="9.091765" y="26.997458"><tspan fill="#4d82b8" font-family="Carlito" font-style="italic" font-weight="bold" x="9.091765" y="26.997458">A</tspan></text><rect height="1" ry=".5" width="22" x="7" y="28"/></g></svg>