<svg viewBox="0 0 32 32" xmlns="http://www.w3.org/2000/svg"><path d="m19.414062 3-1 1h4.166016 2.419922v2.4648438 19.0703122 2.464844h-2.419922-7.117187-8.462891v-12.585938l-1 1v11.585938c0 .554.446 1 1 1h8.216797 6.425781 3.357422c.1385 0 .270906-.027655.390625-.078125.359156-.151401.609375-.506375.609375-.921875v-3.447266-17.1054684-3.4472656c0-.554-.446-1-1-1h-3.357422z" fill="#4d82b8"/><path d="m18.414062 4-11.414062 11.414062v12.585938h18v-24z" fill="#fff"/><path d="m14.806641 7.6074219-4.199219 4.1992191a3 3 0 0 0 2.392578 1.193359 3 3 0 0 0 3-3 3 3 0 0 0 -1.193359-2.3925781z" fill="#eac282"/><g fill="#4d82b8"><path d="m6 28c.4875945 0 8-8 8-8l2 1.593356 4-5.593356 5 4v8z" fill-rule="evenodd"/><path d="m5 2v14l14-14zm1 1h10l-10 10z"/></g></svg>