<svg viewBox="0 0 32 32" xmlns="http://www.w3.org/2000/svg"><g transform="matrix(1 0 0 -1 0 32)"><path d="m28 3c.554 0 1 .446 1 1v24c0 .554-.446 1-1 1h-24c-.554 0-1-.446-1-1v-24c0-.554.446-1 1-1zm0 1h-24v20 4h19 5v-4z" fill="#3a3a38"/><path d="m28 8h-24v20h24z" fill="#fafafa" stroke-width=".912871"/><path d="m28 4h-24v4h24z" fill="#797774" stroke-width=".784465"/><g fill="none" stroke="#1e8bcd" stroke-linecap="round" stroke-width="1.997997" transform="matrix(0 1 -1 0 31.998796 0)"><path d="m12.013227 15.998795h11.973547"/><path d="m18.983585 10.997783 4.988978 5.001012-4.988978 5.001013" stroke-linejoin="round"/></g></g></svg>