<svg viewBox="0 0 32 32" xmlns="http://www.w3.org/2000/svg"><path d="m4 7v21h12.585938l11.414062-11.414062v-9.585938z" fill="#fff"/><g fill="#808080"><path d="m4 3c-.554 0-1 .446-1 1v24c0 .554.446 1 1 1h9.642578 1.574219.369141l1-1h-1.123047-.882813-10.580078v-21h24v9.585938l1-1v-11.585938c0-.554-.446-1-1-1z"/><path d="m7 9v4h4v-4zm1 1h2v2h-2z"/><path d="m7 15v4h4v-4zm1 1h2v2h-2z"/><path d="m13 10h12v1h-12z"/><path d="m7 21v4h4v-4zm1 1h2v2h-2z"/><path d="m13 16h12v1h-12z"/><path d="m13 22v1h8.585938l1-1z"/></g><g fill="#4d82b8"><path d="m30 16-14 14h14zm-2 5.5v6.5h-6.5z" fill="#eac282" fill-rule="evenodd"/><path d="m3 3h26v4h-26z"/></g></svg>