<svg viewBox="0 0 32 32" xmlns="http://www.w3.org/2000/svg"><path d="m4 28.008679v-24h24v24h-10v-9c0-.554-.446-1-1-1h-2c-.554 0-1 .446-1 1v9z" fill="#fff"/><path d="m4 29.008679c-.554 0-1-.446-1-1v-24c0-.554.446-1 1-1h24c.554 0 1 .446 1 1v24c0 .554-.446 1-1 1h-10v-1h10v-24h-24v24h10v1z" fill="#808080"/><path d="m4 28.00868v-24.000001h24v24.000001h-8.171875l2.572266-2.572266c.426327-.410021.658209-.996144.630859-1.529297s-.266283-.988939-.603516-1.326172-.793017-.576165-1.326172-.603515c-.533152-.02735-1.119275.204531-1.529296.630859l-1.574219 1.574219v-5.13086c.02507-.599916-.220048-1.192256-.619141-1.558594-.399092-.366338-.896983-.523437-1.378906-.523437s-.979814.157099-1.378906.523437c-.399093.366338-.644211.958678-.619141 1.558594v5.13086l-1.574219-1.574219c-.410021-.426328-.996144-.658209-1.529296-.630859-.533155.027352-.9889395.266282-1.3261724.603515s-.5761636.793019-.6035156 1.326172c-.0273522.533153.2045316 1.119276.6308594 1.529297l2.5722656 2.572266z" fill="#fff"/><g fill="none" stroke="#4d82b8" stroke-linecap="round"><path d="m11 10.01824 10 9" stroke-linejoin="round" stroke-width="2"/><path d="m21 10.01824-10 9" stroke-linejoin="round" stroke-width="2"/><path d="m16 20.010684v9.976272" stroke-width="1.997637"/></g></svg>