<svg viewBox="0 0 32 32" xmlns="http://www.w3.org/2000/svg"><path d="m4 4v24h24v-24h-10v9c0 .554-.446 1-1 1h-2c-.554 0-1-.446-1-1v-9z" fill="#fff"/><path d="m4 3c-.554 0-1 .446-1 1v24c0 .554.446 1 1 1h24c.554 0 1-.446 1-1v-24c0-.554-.446-1-1-1h-10v1h10v24h-24v-24h10v-1z" fill="#808080"/><path d="m4 3.9999992v24.0000008h24v-24.0000008h-8.171875l2.572266 2.5722656c.426327.4100213.658209.9961439.630859 1.5292969s-.266283.9889389-.603516 1.3261719c-.337233.3372329-.793017.5761654-1.326172.6035154-.533152.02735-1.119275-.2045315-1.529296-.6308592l-1.574219-1.5742187v5.1308599c.02507.599916-.220048 1.192256-.619141 1.558594-.399092.366338-.896983.523437-1.378906.523437s-.979814-.157099-1.378906-.523437c-.399093-.366338-.644211-.958678-.619141-1.558594v-5.1308599l-1.574219 1.5742187c-.410021.4263277-.996144.6582092-1.529296.6308592-.533155-.027352-.9889395-.2662825-1.3261724-.6035154-.3372329-.337233-.5761636-.7930189-.6035156-1.3261719-.0273522-.533153.2045316-1.1192756.6308594-1.5292969l2.5722656-2.5722656z" fill="#fff"/><g fill="none" stroke="#4d82b8" stroke-linecap="round"><path d="m11 21.990439 10-9" stroke-linejoin="round" stroke-width="2"/><path d="m21 21.990439-10-9" stroke-linejoin="round" stroke-width="2"/><path d="m16 11.997995v-9.9762718" stroke-width="1.997637"/></g></svg>