<svg viewBox="0 0 32 32" xmlns="http://www.w3.org/2000/svg"><path d="m28.000001 4h-24.000001v8.171875l2.576172-2.5761719c.595463-.6118781 1.495668-.7391737 2.185547-.4589843.689878.2801892 1.247858.9997182 1.248047 1.8535152-.000028.539564-.218716 1.057362-.605469 1.433594l-1.578125 1.578125h3.15625c1.090891-.01626 2.011397.875931 2.029297 1.966797.01658 1.114168-.915136 2.045878-2.029297 2.029297h-3.15625l1.574219 1.574219c.426333.41002.658209.996141.630859 1.529296-.02735.533156-.266281.988938-.603516 1.326172-.337234.337235-.793015.576166-1.326172.603516-.533154.02735-1.119276-.204526-1.529296-.630859l-2.572266-2.572266v8.171875h24.000001v-8.171875l-2.572266 2.572266c-.410021.426327-.996144.658209-1.529297.630859s-.988939-.266283-1.326172-.603516-.576165-.793017-.603515-1.326172c-.02735-.533152.204531-1.119275.630859-1.529296l1.574219-1.574219h-3.130859c-.599916.02507-1.192257-.220048-1.558595-.619141-.366338-.399092-.523437-.896983-.523437-1.378906s.157099-.979814.523437-1.378906c.366338-.399093.958679-.644211 1.558595-.619141h3.130859l-1.574219-1.574219c-.426328-.410021-.658209-.996144-.630859-1.529296.02735-.533155.266282-.9889395.603515-1.3261724s.793019-.5761636 1.326172-.6035156 1.119276.2045316 1.529297.6308594l2.572266 2.5722656z" fill="#fff"/><path d="m29.000001 4c0-.554-.446-1-1-1h-24.000001c-.554 0-1 .446-1 1v9.171875l1-1v-8.171875h24.000001v8.171875l1 1zm0 14.828125-1 1v8.171875h-24.000001v-8.171875l-1-1v9.171875c0 .554.446 1 1 1h24.000001c.554 0 1-.446 1-1z" fill="#808080"/><g fill="none" stroke="#4d82b8" stroke-linecap="round"><path d="m11.009561 11 9.000001 10" stroke-linejoin="round" stroke-width="2"/><path d="m11.009561 21 9.000001-10" stroke-linejoin="round" stroke-width="2"/><path d="m21.002005 16h7.976272" stroke-width="1.997637"/><path d="m24.000245 10.999983 4.999813 5.000017-4.999813 5.000017" stroke-linejoin="round" stroke-width="1.999966"/><path d="m10.997995 16h-7.976272" stroke-width="1.997637"/><path d="m7.999755 10.999983-4.999813 5.000017 4.999813 5.000017" stroke-linejoin="round" stroke-width="1.999966"/></g></svg>