<svg viewBox="0 0 32 32" xmlns="http://www.w3.org/2000/svg"><path d="m4 4v24h8.171875l-2.5761719-2.576172c-.6118781-.595463-.7391737-1.495668-.4589843-2.185547.2801892-.689878.9997182-1.247858 1.8535152-1.248047.539564.000028 1.057362.218716 1.433594.605469l1.578125 1.578125v-3.15625c-.01626-1.090891.875931-2.011397 1.966797-2.029297 1.114168-.016581 2.045878.915136 2.029297 2.029297v3.15625l1.574219-1.574219c.41002-.426333.996141-.658209 1.529296-.630859.533156.027351.988938.266281 1.326172.603516.337235.337234.576166.793015.603516 1.326172.027351.533154-.204526 1.119276-.630859 1.529296l-2.572266 2.572266h8.171875v-24h-8.171875l2.572266 2.5722656c.426327.4100213.658209.9961439.630859 1.5292969-.027352.533153-.266283.9889389-.603516 1.3261719-.337233.3372329-.793017.5761656-1.326172.6035156-.533152.027352-1.119275-.2045317-1.529296-.6308594l-1.574219-1.5742187v3.1308591c.025074.599916-.220048 1.192256-.619141 1.558594-.399092.366338-.896983.523437-1.378906.523437s-.979814-.157099-1.378906-.523437c-.399093-.366338-.644211-.958678-.619141-1.558594v-3.1308591l-1.574219 1.5742187c-.410021.4263277-.996144.6582094-1.529296.6308594-.533155-.027352-.9889395-.2662827-1.3261724-.6035156-.3372329-.337233-.5761636-.7930189-.6035156-1.3261719-.0273522-.533153.2045316-1.1192756.6308594-1.5292969l2.5722656-2.5722656z" fill="#fff"/><path d="m4 3c-.554 0-1 .446-1 1v24c0 .554.446 1 1 1h9.171875l-1-1h-8.171875v-24h8.171875l1-1zm14.828125 0 1 1h8.171875v24h-8.171875l-1 1h9.171875c.554 0 1-.446 1-1v-24c0-.554-.446-1-1-1z" fill="#808080"/><g fill="none" stroke="#4d82b8" stroke-linecap="round"><path d="m11 20.990439 10-9" stroke-linejoin="round" stroke-width="2"/><path d="m21 20.990439-10-9" stroke-linejoin="round" stroke-width="2"/><g transform="translate(-.0101 -15.990162)"><path d="m16.0101 26.988157v-7.976272" stroke-width="1.997637"/><path d="m11.010083 23.989917 5.000017-4.999813 5.000017 4.999813" stroke-linejoin="round" stroke-width="1.999966"/></g><g transform="matrix(1 0 0 -1 -.0101 47.990162)"><path d="m16.0101 26.988157v-7.976272" stroke-width="1.997637"/><path d="m11.010083 23.989917 5.000017-4.999813 5.000017 4.999813" stroke-linejoin="round" stroke-width="1.999966"/></g></g></svg>