<svg viewBox="0 0 32 32" xmlns="http://www.w3.org/2000/svg"><path d="m11 3.5v6.5c0 .554-.446 1-1 1h-2.8339844l5.3339844 7v6.5l7 5v-11.5l8-10.5v-2l-2-2z" fill="#fff" fill-rule="evenodd"/><g fill="#eac282" transform="translate(-1 -1.000012)"><path d="m4 10 6-6v6z" fill-rule="evenodd" stroke="#eac282" stroke-linecap="round" stroke-linejoin="round" stroke-width="2.000024"/><rect height="6" ry="1" width="2" x="2" y="2"/><rect height="2" ry=".932203" width="6" x="2" y="2"/></g><path d="m11 3v1h14.292969l1.707031 1.7070312v1.625l-7.898438 10.3652348a.50005.50005 0 0 0 -.101562.302734v10.529297l-6-4.287109v-6.242188a.50005.50005 0 0 0 -.101562-.302734l-5.1035161-6.697266h-1.2578125l5.4628906 7.167969v6.332031a.50005.50005 0 0 0 .208984.40625l7 5a.50005.50005 0 0 0 .791016-.40625v-11.332031l7.898438-10.3652346a.50005.50005 0 0 0 .101562-.3027344v-2a.50005.50005 0 0 0 -.146484-.3535156l-2-2a.50005.50005 0 0 0 -.353516-.1464844z" fill="#808080" fill-rule="evenodd"/></svg>