<svg viewBox="0 0 32 32" xmlns="http://www.w3.org/2000/svg"><path d="m6 3v18h5.171875l-1.5761719-1.576172c-.6118349-.59547-.7391675-1.495684-.4589843-2.185547.2801829-.689863.9997432-1.247822 1.8535152-1.248047.539559.000032 1.057363.218723 1.433594.605469l4.869141 4.869141-.148438-.121094c1.151392.776706 1.145123 2.553697-.011719 3.322266l.154297-.125-4.458984 4.458984h13.169922l.001953-19-7-7zm0 22v4h3.25c-.1564163-.264354-.2641484-.564885-.28125-.900391-.0271929-.53348.2039154-1.117436.6308594-1.527343l1.5722656-1.572266z" fill="#fff"/><path d="m5.9980469 2c-.554 0-1 .446-1 1v18h1v-18h13.0000001v6c0 .6726441.491378 1 1 1h6v19h-13.169922l-.400391.400391c-.303968.316602-.70359.52386-1.107422.599609h14.677735c.554 0 .892483-.456533 1-1v-10.109375-10.5058594l-6.507813-6.3847656zm-1 23v4c0 .554.446 1 1 1h4.6972651c-.444116-.070737-.8306213-.27984-1.1230464-.572266-.1252026-.125202-.2299674-.271744-.3222656-.427734h-3.2519531v-4z" fill="#808080"/><path d="m20 9h6l-6-6z" fill="#fff" fill-rule="evenodd"/><g fill="none" stroke="#4d82b8" stroke-linecap="round" stroke-width="2"><path d="m4.0142425 23h11.9999995"/><path d="m11 18 5 5-5 5" stroke-linejoin="round"/></g></svg>