<svg viewBox="0 0 32 32" xmlns="http://www.w3.org/2000/svg"><g fill="#696969"><path d="m13 14.999999h-1.634305c-.188781 0-.339806-.04819-.453074-.144577-.113268-.102406-.19687-.228917-.250808-.379518l-.6796123-2.142571h-3.9563107l-.671521 2.133535c-.04315.132533-.1267531.256024-.2508091.370481-.1186625.108433-.2669904.162651-.4449837.162651h-1.6585762l3.9158576-12h2.1682852zm-6.4967638-4h2.9935285c-.4819395-1.7358995-1.0685623-4.1502912-1.5048552-5.8132529-.4414869 1.753961-.9687933 4.0111279-1.4886733 5.8132529z"/><path d="m15.992814 15v-12h4.219336c.798338 0 1.481289.075301 2.048856.2259045.567569.1506021 1.029107.3644575 1.384616.6415662.361746.2771085.6237.6144576.785862 1.0120473.168399.3915663.252599.8313254.252599 1.3192771 0 .2771087-.04054.545181-.121616.8042174-.08109.2590363-.205828.5-.374227.722891-.1684.2228918-.386696.4277112-.654886.6144578-.261954.180723-.576922.3343374-.944907.4608429 1.602912.373494 2.404367 1.2560238 2.404367 2.6475908 0 .512049-.09667.984941-.290023 1.418675-.193346.433735-.477129.81024-.851349 1.129516-.367984.313255-.826405.560243-1.375262.740964-.54262.1747-1.16632.26205-1.871102.26205zm2.571428-5.2138552v3.3704832h1.994062c.39293 0 .720373-.04819.982328-.144577.261954-.09638.467775-.225905.617465-.388557.155924-.16265.26507-.349396.327442-.56024.06238-.216867.09357-.439759.09357-.668674 0-.246988-.03743-.46988-.112281-.668675-.06861-.198795-.183992-.367469-.346153-.506024-.155928-.138555-.364869-.2439759-.626824-.3162651-.255718-.0783141-.570685-.1174715-.944905-.1174715zm0-1.6355419h1.507574c.692308 0 1.225572-.1265053 1.599793-.3795178.374221-.2590365.56133-.6837354.56133-1.2740969 0-.6144573-.162162-1.0451803-.486484-1.2921689-.324324-.2530119-.835759-.3795178-1.534305-.3795178h-1.647908z"/><path d="m11.619002 26.02874q.20568 0 .352596.141487l1.028402.999262q-.70519.893149-1.772771 1.36183-1.057786.468681-2.5171402.468681-1.3222333 0-2.3800198-.442152-1.0577868-.450993-1.8021549-1.246867-.7345743-.804716-1.1361414-1.901253-.3917727-1.10538-.3917727-2.414149 0-1.317612.4211556-2.414149.4309502-1.10538 1.2047015-1.901254.7737513-.795873 1.8511265-1.238026 1.0773753-.44215 2.3702255-.44215 1.3124389 0 2.3212539.424464 1.008815.415625 1.684623 1.105382l-.8619 1.087694q-.08816.09726-.20568.176859-.107741.0796-.31342.0796-.20568 0-.401566-.141486-.186093-.141495-.470127-.309515-.274242-.168017-.6953974-.309505-.4211555-.141488-1.0773748-.141488-.7149856 0-1.3026448.274136-.5876593.26529-1.0088149.787029-.4211557.512896-.6562196 1.264554-.2252694.742815-.2252694 1.697864 0 .963891.2546523 1.715548.2546523.751659.6856024 1.273399.4407446.512896 1.0284038.787029.5876592.265291 1.2634674.265291.4015671 0 .7247797-.03536.3232127-.04421.5974533-.141486.284035-.106121.528894-.265293.244857-.159175.489716-.397936.09794-.07075.195886-.11496.107736-.05306.215475-.05306z"/></g><g transform="matrix(1 0 0 -1 0 33.9798)"><g fill="none" stroke="#4d82b8" stroke-linecap="round" stroke-width="2" transform="matrix(-1 0 0 -1 44.028484 33.9899)"><path d="m21.014242 23h8"/><path d="m24 18 5 5-5 5" stroke-linejoin="round"/></g><g fill="#4d82b8"><rect height="3.9798" rx=".864407" ry="1" width="2" x="26" y="14"/><path d="m23 10v2a3 3 0 0 1 3 3h2a5 5 0 0 0 -5-5z"/></g></g></svg>