<svg viewBox="0 0 32 32" xmlns="http://www.w3.org/2000/svg"><path d="m27 4v17h-3v-4c0-1.090703-.909297-2-2-2s-2 .909297-2 2v4h-4c-.363969 0-.703481.107739-1 .283203v-17.283203zm-17 0v24h-7v-24zm5 20.716797c.296519.175464.636031.283203 1 .283203h4v3h-5zm12 .283203v3h-3v-3z" fill="#fff"/><path d="m28 3v1 5 12h-1v-2h-3v-1h3v-4h-5v1c-.363969 0-.703481.107739-1 .283203v-1.283203h-5v4h4v1h-4v2c-.363969 0-.703481.107739-1 .283203v-2.283203-1-4-1-4-6h12zm-1 6h-5v4h5zm-6 0h-5v4h5zm-6 15.716797c.296519.175464.636031.283203 1 .283203v3h4v1h-5v-1zm13 .283203v3c0 .554-.446 1-1 1h-3v-1h3v-3z" fill="#808080"/><g fill="#4d82b8"><path d="m22 16c.554 0 1 .446 1 1v5h5c.554 0 1 .446 1 1s-.446 1-1 1h-5v5c0 .554-.446 1-1 1s-1-.446-1-1v-5h-5c-.554 0-1-.446-1-1s.446-1 1-1h5v-5c0-.554.446-1 1-1z"/><path d="m10 3v6 4 1 4 1 4 1 4 1h-7c-.554 0-1-.446-1-1v-19-5-1h1zm-1 6h-6v4h6zm0 5h-6v4h6zm0 5h-6v4h6zm0 5h-6v4h6z"/></g></svg>