<svg viewBox="0 0 32 32" xmlns="http://www.w3.org/2000/svg"><path d="m6.8443123 27.007154c4.5877157 2.973537 14.6040487-1.004628 6.2767637-11.650632-8.2519034-10.5496301 8.198703-17.4689287 13.080363-5.268598" fill="none" stroke="#4d82b8" stroke-width="2"/><path d="m4.0000005 24.80309h3.9999999v4h-3.9999999z" fill="#4d82b8"/><path d="m24 6.4030903h3.999999v3.9999997h-3.999999z" fill="#4d82b8"/><g fill="#eac282" transform="matrix(1.1667513 0 0 1.1666667 3.165736 3.166667)"><path d="m17.480469 13.611328-5.529297 5.523438-.951172 3.865234 3.806641-1.011719 5.509765-5.544922z"/><path d="m20.419922 11c-.189562 0-.378184.07172-.523438.216797l-1.673828 1.669922 2.847656 2.849609 1.710938-1.638672c.290506-.290127.290506-.756747 0-1.046875l-1.835938-1.833984c-.145254-.145064-.335828-.216797-.52539-.216797z"/></g></svg>