<svg viewBox="0 0 32 32" xmlns="http://www.w3.org/2000/svg"><path d="m11 2v8c0 .554-.446 1-1 1h11v-8c0-.554-.446-1-1-1zm-8 9v14c0 .554.4567584.891352 1 1h3c.7643635.878143.9252051.0098 1 0v-14c0-.554.446-1 1-1zm6 16c-6 3.333333-3 1.666667 0 0z" fill="#808080"/><path d="m11 3v7c0 .554-.446 1-1 1h10v-8zm-7 8v14h3l1 1v-14c0-.554.446-1 1-1z" fill="#fff"/><path d="m11 6v1h12v4h1v-4c0-.554-.446-1-1-1zm-5 5v18c0 .554.446 1 1 1h16c.554 0 1-.446 1-1v-2h-1v2h-16v-18z" fill="#808080"/><path d="m11 7v3c0 .554-.446 1-1 1h13v-4zm-4 4v18h16v-2h-14c-.554 0-1-.446-1-1v-14c0-.554.4474079-.960529 1-1z" fill="#fff"/><path d="m10 13h20v12h-20z" fill="#fff"/><g fill="#4d82b8"><path d="m25 14h3v3h-3z"/><path d="m12 20h9v1h-9z"/><path d="m13 22h7v1h-7z"/><path d="m10 12c-.554 0-1 .446-1 1v12c0 .554.446 1 1 1h20c.554 0 1-.446 1-1v-12c0-.554-.446-1-1-1zm0 1h20v12h-20z"/></g><g fill="#eac282"><path d="m3 8.999988 6-6v6z" fill-rule="evenodd" stroke="#eac282" stroke-linecap="round" stroke-linejoin="round" stroke-width="2.000024"/><rect height="6" ry="1" width="2" x="1" y=".999988"/><rect height="2" ry=".932203" width="6" x="1" y=".999988"/></g></svg>