<svg viewBox="0 0 32 32" xmlns="http://www.w3.org/2000/svg"><path d="m28.5 4c.277 0 .5.223.5.5s-.223.5-.5.5h-25c-.277 0-.5-.223-.5-.5s.223-.5.5-.5zm-4 4c.277 0 .5.223.5.5s-.223.5-.5.5h-21c-.277 0-.5-.223-.5-.5s.223-.5.5-.5zm-10 6c.277 0 .5.223.5.5s-.223.5-.5.5h-11c-.277 0-.5-.223-.5-.5s.223-.5.5-.5zm-2 4c.277 0 .5.223.5.5s-.223.5-.5.5h-9c-.277 0-.5-.223-.5-.5s.223-.5.5-.5zm16 6c.277 0 .5.223.5.5s-.223.5-.5.5h-25c-.277 0-.5-.223-.5-.5s.223-.5.5-.5zm-4 4c.277 0 .5.223.5.5s-.223.5-.5.5h-21c-.277 0-.5-.223-.5-.5s.223-.5.5-.5z" fill="#808080"/><path d="m28.5 5.000002c.277 0 .5.223.5.5s-.223.5-.5.5h-24.999998c-.277 0-.5-.223-.5-.5s.223-.5.5-.5zm-4 4c.277 0 .5.223.5.5s-.223.5-.5.5h-20.999998c-.277 0-.5-.223-.5-.5s.223-.5.5-.5zm-10 5.999998c.277 0 .5.223.5.5s-.223.5-.5.5h-10.999998c-.277 0-.5-.223-.5-.5s.223-.5.5-.5zm-2 4c.277 0 .5.223.5.5s-.223.5-.5.5h-8.999998c-.277 0-.5-.223-.5-.5s.223-.5.5-.5zm16 6c.277 0 .5.223.5.5s-.223.5-.5.5h-24.999998c-.277 0-.5-.223-.5-.5s.223-.5.5-.5zm-4 4c.277 0 .5.223.5.5s-.223.5-.5.5h-20.999998c-.277 0-.5-.223-.5-.5s.223-.5.5-.5z" fill="#e9e9e9" fill-opacity=".992157"/><g fill="none" stroke="#4d82b8" stroke-linecap="round" stroke-width="2" transform="matrix(1 0 0 -1 0 33.971516)"><path d="m22.9899 11.985758v10"/><path d="m17.9899 16.971516 5 5 5-5" stroke-linejoin="round"/></g></svg>