<svg viewBox="0 0 32 32" xmlns="http://www.w3.org/2000/svg"><path d="m14 3v1 2 7c0 .554.446 1 1 1h13c.554 0 1-.446 1-1v-7-2-1h-1-13zm1 3h13v7h-13z" fill="#808080"/><path d="m15 6h13v7h-13z" fill="#fff"/><path d="m3 9v1 2 7c0 .554.446 1 1 1h13c.554 0 1-.446 1-1v-7-2-1h-1-13zm1 3h13v7h-13z" fill="#808080"/><path d="m4 12h13v7h-13z" fill="#fff"/><path d="m14 18v1 1 8c0 .554.446 1 1 1h13c.554 0 1-.446 1-1v-8-1-1h-1-13zm1 2h13v8h-13z" fill="#808080"/><path d="m15 21h13v7h-13z" fill="#fff"/><path d="m14 18h15v3h-15z" fill="#4d82b8"/></svg>