<svg viewBox="0 0 32 32" xmlns="http://www.w3.org/2000/svg"><path d="m3 5v1.2636719 2.5253906 18.9472655c0 .69979.5805813 1.263672 1.3007812 1.263672h23.3984378c.7202 0 1.300781-.563882 1.300781-1.263672v-18.9472655-2.5253906-1.2636719h-1.300781-23.3984378zm2 3h22v19h-22zm7 3v1.462891c0 .13253.04987.251106.150391.353515.100517.09639.213722.144531.33789.144532h5.337891c-.135994.150601-.256851.30984-.363281.478515-.106431.168675-.21003.351986-.310547.550781l-4.328125 9.009766h1.5625c.301552 0 .537513-.07222.708984-.216797.177384-.144578.315498-.318618.416016-.523437l4.230469-9.216797c.053209-.114458.110794-.258895.169921-.433594.059128-.174699.087891-.400626.087891-.677734v-.931641z" style="fill:none;stroke:#e6e6e6;stroke-opacity:.992157;stroke-width:2;stroke-linejoin:round;stroke-linecap:round"/><g fill="#696969"><path d="m12 11v1.462891c0 .13253.04987.251106.150391.353515.100517.09639.213722.144532.33789.144532h5.337891c-.135994.150602-.256851.30984-.363281.478515-.106431.168675-.21003.351986-.310547.550781l-4.328125 9.009766h1.5625c.301552 0 .537513-.07222.708984-.216797.177384-.144578.315498-.318618.416016-.523437l4.230469-9.216797c.05321-.114458.110794-.258895.169921-.433594.059128-.174699.087891-.400626.087891-.677734v-.931641z"/><path d="m3 5v1.2631579 2.5263158 18.9473683c0 .69979.5798 1.263158 1.3 1.263158h23.4c.7202 0 1.3-.563368 1.3-1.263158v-18.9473683-2.5263158-1.2631579h-1.3-23.4zm2 3h22v19h-22z"/></g></svg>