<svg viewBox="0 0 32 32" xmlns="http://www.w3.org/2000/svg"><path d="m17.5 8c-.277 0-.5.223-.5.5s.223.5.5.5h11c.277 0 .5-.223.5-.5s-.223-.5-.5-.5zm0 6c-.277 0-.5.223-.5.5s.223.5.5.5h11c.277 0 .5-.223.5-.5s-.223-.5-.5-.5zm0 4c-.277 0-.5.223-.5.5s.223.5.5.5h11c.277 0 .5-.223.5-.5s-.223-.5-.5-.5zm-6 6c-.277 0-.5.223-.5.5s.223.5.5.5h17c.277 0 .5-.223.5-.5s-.223-.5-.5-.5zm0 4c-.277 0-.5.223-.5.5s.223.5.5.5h17c.277 0 .5-.223.5-.5s-.223-.5-.5-.5z" fill="#808080"/><path d="m17.5 5.000001c-.277 0-.5.223-.5.5s.223.5.5.5h10.999998c.277 0 .5-.223.5-.5s-.223-.5-.5-.5zm0 4c-.277 0-.5.223-.5.5s.223.5.5.5h10.999998c.277 0 .5-.223.5-.5s-.223-.5-.5-.5zm0 5.999999c-.277 0-.5.223-.5.5s.223.5.5.5h10.999998c.277 0 .5-.223.5-.5s-.223-.5-.5-.5zm0 4c-.277 0-.5.223-.5.5s.223.5.5.5h10.999998c.277 0 .5-.223.5-.5s-.223-.5-.5-.5zm-6 6c-.277 0-.5.223-.5.5s.223.5.5.5h16.999998c.277 0 .5-.223.5-.5s-.223-.5-.5-.5zm0 4c-.277 0-.5.223-.5.5s.223.5.5.5h16.999998c.277 0 .5-.223.5-.5s-.223-.5-.5-.5z" fill="#e9e9e9" fill-opacity=".992157"/><g fill="none" stroke="#4d82b8" stroke-linecap="round" stroke-width="2" transform="matrix(0 1 -1 0 25 -12.999999)"><path d="m34.985757 15.9899h-18"/><path d="m21.999999 10.9899-5 5 5 5" stroke-linejoin="round"/></g><path d="m17.5 4.000001c-.277 0-.5.223-.5.5s.223.5.5.5h10.999998c.277 0 .5-.223.5-.5s-.223-.5-.5-.5z" fill="#4d82b8"/></svg>