<svg viewBox="0 0 32 32" xmlns="http://www.w3.org/2000/svg"><path d="m22.253012 13.92q0 2.8275-.888554 5.07-.888555 2.22625-2.48494 3.688749l5.120482 6.321251h-2.274097q-.496987 0-.888554-.1625-.391566-.1625-.722892-.53625l-3.373494-4.225q-1.641566.747499-3.599398.747499-2.033131 0-3.719878-.796249-1.6867471-.8125-2.8915664-2.258751-1.2048194-1.446249-1.86747-3.445-.6626506-1.998749-.6626506-4.403749 0-2.38875.6626506-4.3875.6626506-2.015 1.86747-3.46125 1.2048193-1.4625 2.8915664-2.2587499 1.686747-.8125001 3.719878-.8125001 2.048193 0 3.71988.8125001 1.686747.7962499 2.876507 2.2587499 1.204819 1.44625 1.85241 3.46125.66265 1.99875.66265 4.3875zm-2.801206 0q0-1.95-.451806-3.49375-.436748-1.56-1.26506-2.6325-.813254-1.08875-1.987952-1.6575-1.159639-.585-2.605423-.585-1.445782 0-2.620481.585-1.159638.56875-1.9879512 1.6575-.8283137 1.0725-1.2801206 2.6325-.4367472 1.54375-.4367472 3.49375 0 1.95.4367472 3.51.4518069 1.543749 1.2801206 2.6325.8283132 1.0725 1.9879512 1.641249 1.174699.568751 2.620481.568751 1.445784 0 2.605423-.568751 1.174698-.568749 1.987952-1.641249.828312-1.088751 1.26506-2.6325.451806-1.56.451806-3.51z" style="fill:#696969;stroke:#e9e9e9;stroke-width:2;stroke-linecap:round;stroke-linejoin:round;stroke-opacity:.992157"/><path d="m21 19v3h2v3.666667c0 .920475-1.116352 1.666666-2 1.666666v1.666667c1.767312 0 2.962774-1.492761 3-3.333333v-3.666667-1.333333-1.666667zm5 0v3h1.400001v3.666667c0 .920475-.516352 1.666666-1.400001 1.666666v1.666667c1.767312 0 3-1.492385 3-3.333333v-3.666667-1.333333-1.666667z" style="fill:#4d82b8;stroke:#e9e9e9;stroke-opacity:.992157;stroke-width:2;stroke-linejoin:round;stroke-linecap:round"/><path d="m13.140625 3c-1.355421 0-2.594252.2708333-3.71875.8125-1.1244981.5308333-2.0893653 1.2828125-2.8925781 2.2578125-.803213.9641667-1.4254205 2.1195573-1.8671875 3.4628906-.4417671 1.3324999-.6621094 2.7942189-.6621094 4.3867189 0 1.603333.2203423 3.071797.6621094 4.404297.441767 1.3325 1.0639745 2.481146 1.8671875 3.445312.8032128.964168 1.76808 1.716146 2.8925781 2.257813 1.124498.530832 2.363329.796875 3.71875.796875 1.305221 0 2.505232-.249714 3.599609-.748047l3.259766 4.080078v-.822266a1.0001 1.0001 0 0 1 1-1c.144765 0 .427748-.097688.644531-.240234l-2.765625-3.414062c.411069-.376594.782396-.796917 1.121094-1.251954v-2.427734a1.0001 1.0001 0 0 1 1-1h.697266c.36625-1.241101.55664-2.597951.55664-4.080078 0-1.5925-.222296-3.054219-.664062-4.3867189-.431728-1.3433333-1.04835-2.4987239-1.851563-3.4628906-.793173-.975-1.752455-1.7269792-2.876953-2.2578125-1.114458-.5416667-2.355241-.8125-3.720703-.8125zm0 2.5507812c.963856 0 1.832376.1959376 2.605469.5859376.783132.3791666 1.446112.9304166 1.988281 1.65625.552208.7149999.97446 1.5928128 1.265625 2.6328122.301204 1.029167.451172 2.194141.451172 3.494141s-.149968 2.469764-.451172 3.509766c-.291165 1.029166-.713417 1.906978-1.265625 2.632812-.542169.715-1.205149 1.261459-1.988281 1.640625-.773093.379167-1.641613.570313-2.605469.570313-.963855-.000001-1.836008-.191146-2.619141-.570313-.7730912-.379166-1.4360721-.925625-1.9882809-1.640625-.5522091-.725834-.9780922-1.603646-1.2792969-2.632812-.2911648-1.040002-.4375-2.209766-.4375-3.509766.0000001-1.3.1463352-2.464974.4375-3.494141.3012046-1.0399995.7270878-1.9178124 1.2792969-2.6328122.5522088-.7258334 1.2151897-1.2770834 1.9882809-1.65625.783133-.39 1.655286-.5859376 2.619141-.5859376zm10.65625 23.1972658c-.083473.090747-.178584.169377-.269531.251953h.472656z" fill="#696969"/><path d="m21 19v3h2v3.666667c0 .920475-1.116352 1.666666-2 1.666666v1.666667c1.767312 0 2.962774-1.492761 3-3.333333v-3.666667-1.333333-1.666667zm5 0v3h1.400001v3.666667c0 .920475-.516352 1.666666-1.400001 1.666666v1.666667c1.767312 0 3-1.492385 3-3.333333v-3.666667-1.333333-1.666667z" fill="#4d82b8"/></svg>