<svg viewBox="0 0 32 32" xmlns="http://www.w3.org/2000/svg"><path d="m6 3v26h9 .216797 2.441406l-1.363281-1.34375a1.0041282 1.0041282 0 0 1 -.007813-1.421875l4.226563-4.251953-4.228516-4.294922a1.0041282 1.0041282 0 0 1 .023438-1.433594l2.089844-1.982422a1.0041282 1.0041282 0 0 1 .677734-.27539 1.0041282 1.0041282 0 0 1 .724609.294922l4.210938 4.224609 1.988281-2.019531v-.996094h-.265625c.084196-.076292.170933-.149484.265625-.208984v-5.291016l-7-7zm18.011719 22.355469-3.527344 3.644531h1.158203 4.355469.001953v-1.591797z" fill="#fff"/><path d="m5.9980469 2c-.554 0-1 .446-1 1v26c0 .554.446 1 1 1h9.0058591 4.007813a1.0041282 1.0041282 0 0 1 -.626953-.285156l-.726563-.714844h-2.441406-9.2187501v-26h13.0000001v6c0 .6726441.491378 1 1 1h6v5.292969h.001953v1.203125l1-1.015625v-.980469c0-.003462-.001884-.00632-.001953-.009766v-6.1054684l-6.507813-6.3847656zm20.0000001 25.40625v1.59375h-3.998047-1.515625l-.673828.697266a1.0041282 1.0041282 0 0 1 -.666016.302734h2.855469 3.998047c.554 0 .892483-.456533 1-1v-.560547z" fill="#808080"/><path d="m20 9h6l-6-6z" fill="#fff" fill-rule="evenodd"/><rect fill="#808080" height="1" ry=".5" width="5" x="8" y="10"/><rect fill="#808080" height="1" ry=".5" width="9" x="8" y="14"/><g fill="#d65532"><path d="m19.5 14c-.054734 0-.105083.01514-.154297.03125a1.0041282 1.0041282 0 0 1 .455078.259766l.707031.708984h2.992188c.277 0 .5-.223.5-.5s-.223-.5-.5-.5z"/><rect height="1" ry=".5" width="7" x="8" y="18"/><rect height="1" ry=".5" width="7" x="8" y="26"/></g><g fill="#808080"><rect height="1" ry=".474576" width="4" x="8" y="22"/><rect height="1" ry=".474576" width="4" x="14" y="22"/><path d="m17.009766 18.423828c-.001925.017433-.009766.032819-.009766.050781v.050782c0 .262915.211694.474609.474609.474609h.103516z"/><rect height="1" ry=".5" width="2" x="15" y="10"/></g><path d="m31 26.944338-4.895447-4.946153 4.7861-5.086414-2.008392-1.911762-4.867282 4.941173-4.925406-4.941173-2.089573 1.98208 4.925403 5.003525-4.925403 4.955562 2.089573 2.058824 4.922011-5.088233 4.928799 5.088233z" fill="#e68497"/></svg>