<svg viewBox="0 0 32 32" xmlns="http://www.w3.org/2000/svg"><path d="m3.5 3.5v19h5v6l6.5-5.572266v-5.529296c0-1.312304 1.088088-2.400391 2.400391-2.400391h11.099609v-11.498047z" fill="#fff" fill-rule="evenodd"/><g fill="#eac282"><path d="m17.4 15.998802c-.7756 0-1.4.6244-1.4 1.400001v7c0 .7756.6244 1.4 1.4 1.4h1.4v3.5c.000244.623446.753927.935613 1.194922.494922l3.994921-3.994922h4.610157c.7756 0 1.4-.6244 1.4-1.4v-7c0-.775601-.6244-1.400001-1.4-1.400001z"/><path d="m3.5 3a.50005.50005 0 0 0 -.5.5v19a.50005.50005 0 0 0 .5.5h4.5v5.5a.50005.50005 0 0 0 .8261719.378906l6.1738281-5.291015v-1.31836l-6 5.142578v-4.912109a.50005.50005 0 0 0 -.5-.5h-4.5v-18h24v10.998047h.599609c.13671 0 .269525.018375.400391.041015v-11.539062a.50005.50005 0 0 0 -.5-.5z" fill-rule="evenodd"/></g></svg>