<svg viewBox="0 0 32 32" xmlns="http://www.w3.org/2000/svg"><path d="m4 3a1.0001 1.0001 0 0 0 -1 1v21a1.0001 1.0001 0 0 0 .2929688.707031l3 3a1.0001 1.0001 0 0 0 .7070312.292969h8.216797l.921875-3.748047c.043113-.178092.134322-.340918.263672-.470703l8.513672-8.490234.71289-.699219.044922-.044922c.355925-.355462.840066-.546875 1.316406-.546875.476386 0 .958975.186038 1.320313.546875l.689453.6875v-12.234375a1.0001 1.0001 0 0 0 -1-1zm25 18.712891-.550781.527343-6.771485 6.759766h6.322266a1.0001 1.0001 0 0 0 1-1z" fill="#922e9b"/><path d="m4 4v21l3 3h1v-10h15.203125l1.712891-1.708984.71289-.699219.044922-.044922c.355925-.355462.840066-.546875 1.316406-.546875.35022 0 .703482.102202 1.009766.298828v-11.298828h-3v10h-18v-10zm24 18.689453-4 3.992188v1.318359h4z" fill="#d492d8"/><path d="m8 4v9h16v-9zm1 15v9h2v-7h3v7h1.462891l.675781-2.748047c.043113-.178092.134322-.340918.263672-.470703l5.796875-5.78125zm14 8.679688-.322266.320312h.322266z" fill="#fafafa"/><g fill="#fb983b" transform="matrix(1.1667513 0 0 1.1666667 3.165736 3.166667)"><path d="m25.623047 17-8.513672 8.490234-1.109375 4.509766 4.441406-1.179688 7.308594-7.294921-3.322266-3.324219 1.199219-1.197266zm-1.197266 2.519531 2.003907 2.00586-5.751954 5.738281-2.009765-2.009766zm-6.464843 6.441407 2.009765 2.009765-.01172.01172-2.675781.710937.669922-2.726562z" fill="#0063b1" transform="matrix(.85708068 0 0 .85714283 -2.713291 -2.714286)"/><path d="m26.990234 16c-.221171 0-.439899.08465-.609375.253906l-1.953125 1.947266 3.322266 3.324219 1.996094-1.91211c.338948-.338481.338948-.88222 0-1.220703l-2.142578-2.138672c-.169476-.169241-.39211-.253906-.613282-.253906zm0 .998047 2.00586 2.003906-1.232422 1.179688-1.978516-1.980469z" fill="#0063b1" transform="matrix(.85708068 0 0 .85714283 -2.713291 -2.714286)"/><g fill="#83beec"><path d="m20.419922 11.855469-1.033203 1.03125 1.695312 1.697265 1.056641-1.011718z"/><path d="m24.425781 19.519531-5.757812 5.734375 2.009765 2.009766 5.751954-5.738281zm-6.464843 6.441407-.0078.0059-.669922 2.726562 2.675781-.710937.01172-.01172z" stroke-width="1.166709" transform="matrix(.85708068 0 0 .85714283 -2.713291 -2.714286)"/></g></g></svg>