<svg viewBox="0 0 32 32" xmlns="http://www.w3.org/2000/svg"><path d="m4 3c-.554 0-1 .446-1 1v24c0 .554.446 1 1 1h11.585938l1-1h-12.585938v-24h24v12.585938l1-1v-11.585938c0-.554-.446-1-1-1z" fill="#808080"/><path d="m4 4v24h12.585938l11.414062-11.414062v-12.585938z" fill="#fff"/><path d="m23 7c-2.307636 1.8393172-5.391701 4.67645-7.838962 7.553637-.222137.261171-.438004.51236-.647866.773919-.13267.152765-.270343.278642-.402969.437007-.08371.108624-.163778.230972-.244898.339353-1.521731 1.85749-3.00321 4.007249-4.2946189 6.047304-.4295594-.212453-.9437479-.222712-1.4961037.202634-1.0779775.830107-.8544069 3.811985-3.0745824 3.810998.2102061 1.00351 2.4831568.991895 4.0185526.544429 1.4492194-.422354 1.8921014-1.906737 1.6163264-3.144501-.04408-.197833-.131015-.400097-.240446-.595697 2.261983-2.107276 3.904907-3.87852 5.049351-5.219677.308258-.348177.67836-.803362 1.090909-1.30858 1.543349-1.889965 3.74944-4.867423 6.465307-9.440826z" fill="#808080"/><g fill="#4d82b8"><path d="m9.5706861 22.15122c-.4295594-.212453-.9437479-.222712-1.4961037.202634-1.0779775.830107-.8544069 3.811985-3.0745824 3.810998.2102061 1.00351 2.4831568.991895 4.0185526.544429 1.4492194-.422354 1.8921014-1.906737 1.6163264-3.144501-.04408-.197833-.131015-.400097-.240446-.595697z"/><path d="m30 16-14 14h14zm-2 5.5v6.5h-6.5z" fill-rule="evenodd"/></g></svg>