<svg viewBox="0 0 32 32" xmlns="http://www.w3.org/2000/svg"><path d="m15.423899 6.007812-8.4276884 21.992188h2.4101912c.2621599-.000001.484022-.07174.6663942-.216797.19377-.145054.324663-.31227.393053-.501953l1.899421-5.273438h9.275645l1.905408 5.289062c.09118.200843.215521.368059.375096.501954.170975.133895.392837.201172.666395.201172h2.412186l-8.411727-21.992188zm1.574206 2.8789062c.102585.4128434.209239.7972433.323221 1.1542968.113983.357054.229191.66971.343173.9375l3.254158 9.029297h-7.833122l3.244181-9.011719c.102585-.26779.211234-.580446.325217-.9375.113982-.3570533.22919-.7478735.343172-1.1718748z" fill="#c8c6c4"/><path d="m13.421829 4-8.4276884 21.992188h2.4101912c.2621599-.000001.484022-.07174.6663941-.216797.19377-.145054.3246631-.31227.3930526-.501953l1.8994215-5.273438h9.275645l1.905408 5.289062c.09118.200843.215521.368059.375096.501954.170975.133895.392837.201172.666395.201172h2.412186l-8.411727-21.992188zm1.574206 2.8789062c.102585.4128434.209239.7972433.323221 1.1542969.113983.3570537.229191.6697098.343173.9375l3.254158 9.0292969h-7.833122l3.244181-9.0117188c.102585-.2677901.211234-.5804463.325217-.9375.113982-.3570535.22919-.7478737.343172-1.171875z" fill="#3a3a38"/></svg>