<svg viewBox="0 0 32 32" xmlns="http://www.w3.org/2000/svg"><path d="m8.5371094 6-5.5371094 20h2.3457031c.2516984 0 .4611075-.090761.6289063-.271484.175426-.190762.2944507-.396303.3554687-.617188l.9492188-3.916016h5.5937501l.960937 3.931641c.076273.251003.195298.462129.355469.632813.160172.160642.373672.240234.640625.240234h2.310547l-5.537109-20zm1.5214846 3.6445312c.099154.4919678.199674.9494068.298828 1.3710938.099154.411646.193629.772738.285156 1.083984l1.544922 6.324219h-4.234375l1.5449219-6.308594c.0838994-.311246.1762367-.677922.2753906-1.099609s.1936298-.879126.2851565-1.3710938zm8.064453 1.9101568v14.445312h5.572265c.851815 0 1.605898-.106123 2.261719-.316406.66336-.217537 1.217358-.513562 1.66211-.890625.452292-.384317.797566-.837286 1.03125-1.359375.233683-.522086.349609-1.092629.349609-1.708985 0-1.675031-.968939-2.73597-2.90625-3.185547.444752-.152276.824022-.33715 1.140625-.554687.324143-.224788.589438-.47194.792969-.740234.203532-.268296.353177-.557337.451172-.869141.098-.311802.148437-.635193.148437-.96875 0-.587349-.103109-1.11656-.306641-1.587891-.195992-.47858-.512003-.885193-.949218-1.21875-.393618-.305563-.908878-.539022-1.517578-.716797v3.986329c.0064.404607-.199308.834722-.527344 1.095703-.0035.0028-.006206.005112-.009766.007812-.09304.123713-.201077.23394-.332031.324219-.452292.304551-1.096856.457031-1.933594.457031h-1.957031v-4.001953h1.496094v-2.197265zm2.970703 8.169921h2.535156c.45229 0 .831559.046356 1.140625.140625.316605.08702.57131.21408.759766.38086.195992.166777.33505.370083.417969.609375.09046.239289.132812.507386.132812.804687 0 .275546-.035938.543642-.111328.804688-.07538.253792-.208028.478045-.396484.673828-.180916.195785-.427538.352731-.744141.46875-.316603.116021-.712594.173828-1.1875.173828h-2.546875z" style="fill:none;stroke:#e8e8e8;stroke-opacity:.992157;stroke-width:2;stroke-linejoin:round;stroke-linecap:round"/><path d="m17.140873 26h-2.311049q-.400429 0-.640687-.240963-.240257-.256025-.354666-.63253l-.961031-3.930725h-5.5945675l-.9495893 3.915663q-.091527.331327-.354666.61747-.2516982.271085-.6292458.271085h-2.3453711l5.537364-19.9999999h3.0661437zm-9.1869913-7.575301h4.2331093l-1.544513-6.3253q-.13729-.46687-.286021-1.084339-.148731-.63253-.297462-1.3704814-.1372897.7379514-.2860206 1.3704814-.1487308.63253-.27458 1.099399z" fill="#696969"/><path d="m18.123047 11.554688v14.445312h5.572265c.851815 0 1.605898-.106123 2.261719-.316406.66336-.217537 1.217358-.513562 1.66211-.890625.452292-.384317.797566-.837286 1.03125-1.359375.233683-.522086.349609-1.092629.349609-1.708985 0-1.675031-.968939-2.73597-2.90625-3.185547.444752-.152276.824022-.33715 1.140625-.554687.324143-.224788.589438-.47194.792969-.740234.203532-.268296.353177-.557337.451172-.869141.098-.311802.148437-.635193.148437-.96875 0-.587349-.103109-1.11656-.306641-1.587891-.195992-.47858-.512003-.885193-.949218-1.21875-.393618-.305563-.908878-.539022-1.517578-.716797v3.986329c.0064.404607-.199308.834722-.527344 1.095703-.0035.0028-.006206.005112-.009766.007812-.09304.123713-.201077.23394-.332031.324219-.452292.304551-1.096856.457031-1.933594.457031h-1.957031v-4.001953h.90625v-2.197265zm2.970703 8.169921h2.535156c.45229 0 .831559.046356 1.140625.140625.316605.08702.57131.21408.759766.38086.195992.166777.33505.370083.417969.609375.09046.239289.132812.507386.132812.804687 0 .275546-.035938.543642-.111328.804688-.07538.253792-.208028.478045-.396484.673828-.180916.195785-.427538.352731-.744141.46875-.316603.116021-.712594.173828-1.1875.173828h-2.546875z" fill="#696969"/><g fill="none" stroke="#4d82b8" stroke-linecap="round" stroke-width="2" transform="matrix(0 -1 1 0 1.014242 33.004142)"><path d="m17.014242 23h12"/><path d="m24 18 5 5-5 5" stroke-linejoin="round"/></g></svg>