<svg viewBox="0 0 32 32" xmlns="http://www.w3.org/2000/svg"><path d="m14.048828 3.0000024-7.0488282 19.9869366 2.24904.01303c.3203832.0018.5871891-.0907.8007812-.271306.223301-.190639.373502-.396045.451172-.616785l1.749006-4.506037h7.5l1.74017 4.521651c.09709.25084.247289.461827.451172.6324.203882.160536.476605.242052.816405.240077l2.242254-.013031-7.048827-19.9869365zm1.937499 3.6421504c.126215.4916464.25074.9487863.376954 1.3701981.126215.411378.24873.772235.365236 1.083276l2.271483 6.2040291h-6l2.271484-6.1884141c.106797-.311042.223396-.677479.34961-1.098891.126213-.4214118.248729-.8785517.365233-1.3701981z" fill="#696969"/><g fill="none" stroke="#4d82b8" stroke-linecap="round" stroke-width="2"><g transform="matrix(-1 0 0 1 32.028484 -.0101)"><path d="m19.014242 23h10"/><path d="m24 18 5 5-5 5" stroke-linejoin="round"/></g><g transform="translate(0 -.0101)"><path d="m19.014242 23h10"/><path d="m24 18 5 5-5 5" stroke-linejoin="round"/></g></g></svg>