<svg viewBox="0 0 32 32" xmlns="http://www.w3.org/2000/svg"><path d="m12.398438 3-9.398438 26 2.9980469.017578c.4271776.0024.7835697-.118575 1.0683593-.353516.2977345-.247991.4980027-.515584.6015626-.802734l2.3320312-5.861328h7.455078c-.282376-.608949-.455078-1.278709-.455078-2 0-.34237.03516-.676489.101562-1h-6.101562l3.029297-8.050781c.142396-.404618.296559-.881494.464844-1.4296878.168284-.5481931.332942-1.1416916.488281-1.78125.168286.6395585.333668 1.233057.501953 1.78125.168287.5351418.330987 1.0055368.486328 1.4101568l2.210938 5.888671c.906938-1.085569 2.245634-1.796067 3.757812-1.814453l-4.337891-12.003906z" fill="#696969"/><path d="m22 16c-2.209139 0-4 1.790861-4 4s1.790861 4 4 4v6h2v-12h1v12h2v-12l3-1v-1h-6z" fill="#4d82b8" opacity=".99"/></svg>