<svg viewBox="0 0 32 32" xmlns="http://www.w3.org/2000/svg"><path d="m29 3c-4.48634.4203966-9.213069.1392709-13 2.5996094-1.486756-.8255974-3.187757-1.3459218-5-1.7089844v6.109375c0 .554-.446 1-1 1h-7v18h26z" fill="#808080"/><path d="m28 4.5c-6.5 0-10.7 1.1003906-12 2.4003906-.76282-.76282-2.446736-1.5193625-5-2.0195312v5.1191406c0 .554-.446 1-1 1h-6v16.699219c4.1946464-.08739 8.289141-.619241 12 1.300781 3.500067-2.183217 8.028274-1.101562 12-1.101562z" fill="#fff" fill-rule="evenodd"/><path d="m13.190662 24.851487q-.26978 0-.415046-.07921-.145266-.07921-.197146-.326733l-.228275-.900985q-.394293.346535-.77821.623763-.373542.267326-.788587.455445-.415045.188119-.8923474.277228-.4773023.099005-1.0479897.099005-.5914397 0-1.1102463-.148515-.5084307-.158415-.9027238-.475246-.3839171-.326734-.612192-.80198-.2178988-.485149-.2178988-1.138614 0-.574258.3216601-1.09901.3320363-.534654 1.068742-.950496.7367055-.415841 1.9195849-.673268 1.18288-.267327 2.905318-.30693v-.742575q0-1.128712-.508431-1.693068-.498055-.574258-1.463035-.574258-.6433202 0-1.0894941.158416-.4357975.158415-.7574578.346534-.3216601.188119-.5603112.346535-.2282751.158417-.4669262.158417-.1867703 0-.3216601-.08911-.1348897-.089107-.2178988-.227722l-.3320364-.554456q.8404669-.772277 1.8054474-1.148515.9753568-.386139 2.1582362-.386139.850844 0 1.514915.267327.664073.257426 1.110248.742574.446173.485148.674448 1.158416.238651.673267.238651 1.495049v6.188121zm-3.797666-1.069308q.4565501 0 .840467-.08911.383916-.08911.72633-.247525.342412-.168317.64332-.40594.311284-.247525.612192-.544555v-2q-1.214008.0495-2.064851.198019-.8508432.138615-1.3904021.376238-.529183.237623-.7678341.564357-.238651.316832-.238651.712871 0 .376238.1245133.653466.1348897.267326.3527885.445544.2178989.168317.5188069.257426.3009079.07921.6433202.07921z" fill="#4d82b8"/><path d="m18 24.873259v-12.873259h1.641026v5.277855q.55944-.642757 1.277388-1.013928.717949-.380222 1.65035-.380222.792542 0 1.426573.298746.634033.298747 1.081586.860029.447552.56128.680651 1.366991.242426.796657.242426 1.810584 0 1.077299-.270397 1.955432-.270397.878133-.773892 1.511839-.503498.624651-1.221445.968662-.71795.344012-1.613054.344012-.895105 0-1.501166-.325906-.596736-.334958-1.062936-.923398l-.09324.787605q-.03729.334958-.400934.334958zm4.018648-7.731197q-.755245 0-1.333333.34401-.568765.344011-1.044289.977716v4.27298q.428903.570335.941725.805711.512819.226323 1.128204.226323 1.258741 0 1.930071-.878135.671327-.878132.671327-2.616294 0-1.611421-.596736-2.371866-.596737-.760445-1.696969-.760445z" fill="#4d82b8"/><g fill="#eac282" transform="translate(-1 -1.000012)"><path d="m4 10 6-6v6z" fill-rule="evenodd" stroke="#eac282" stroke-linecap="round" stroke-linejoin="round" stroke-width="2.000024"/><rect height="6" ry="1" width="2" x="2" y="2"/><rect height="2" ry=".932203" width="6" x="2" y="2"/></g></svg>