<svg viewBox="0 0 32 32" xmlns="http://www.w3.org/2000/svg"><g fill="#808080"><path d="m10 15c-.554 0-1 .446-1 1v9c0 .554.446 1 1 1h3c.554 0 1-.446 1-1v-9c0-.554-.446-1-1-1zm0 1h3v9h-3z"/><path d="m24 12c-.554 0-1 .446-1 1v12c0 .554.446 1 1 1h3c.554 0 1-.446 1-1v-12c0-.554-.446-1-1-1zm0 1h3v12h-3z"/><rect height="19" ry="1" width="5" x="16" y="7"/><rect height="26" ry=".5" transform="matrix(0 -1 -1 0 0 0)" width="1" x="-26" y="-29"/></g><path d="m24 13h3v12h-3z" fill="#fff"/><path d="m10 16h3v9h-3z" fill="#fff"/><g transform="matrix(0 -1 -1 0 0 0)"><rect fill="#4d82b8" height="20" ry=".5" width="1" x="-5" y="-28"/><rect fill="#808080" height="1" ry=".406855" width="26" x="-29" y="-7"/></g></svg>