<svg viewBox="0 0 32 32" xmlns="http://www.w3.org/2000/svg"><path d="m4 19h24v9h-24z" fill="#fff"/><path d="m8.5606797 25.833333h1.4555023v-3.696491c0-.161404.0057-.329825.01699-.505263l-.9797738.784211c-.064185.04912-.1283709.07895-.1925567.08947-.064185.0105-.1245952.0105-.1812296 0-.056634-.0105-.1076052-.02806-.1529126-.05263-.041532-.02807-.073625-.05614-.096278-.08421l-.4304213-.547367 2.259709-1.821053h1.240291v5.833333h1.166667v1.166667h-4.1059873z" fill="#4d82b8"/><path d="m21.437269 20q.478098 0 .867853.145942.394952.140729.670379.40134.280624.260611.431328.630678.155903.364854.155903.807892 0 .380492-.10913.708861-.10913.323158-.291017.620254-.181885.291884-.426132.573343-.244247.276248-.514477.557707l-1.465479 1.537602q.233853-.07297.467707-.109457.233852-.0417.436525-.0417h1.564217q.197476 0 .317.114672.124721.114666.124721.302305v.750559h-4.666667v-.422189q0-.119881.04677-.255399.05196-.140729.176689-.26061l2.005939-2.069248q.25464-.265823.44692-.505585.197475-.239761.327394-.474311.135114-.239761.202673-.479524.06756-.244973.06756-.510796 0-.479524-.23905-.724498-.23905-.244974-.675576-.244974-.187082 0-.342984.05734-.155902.05734-.280623.156366-.124722.09903-.213066.234551-.08834.135518-.135116.291884-.08315.23976-.228656.312732-.140311.07296-.389754.03127l-.665187-.11466q.07795-.505585.280623-.880865.202673-.380491.504084-.630677.306607-.255398.701558-.380492.394955-.130313.847071-.130313z" fill="#4d82b8"/><g fill="#808080"><path d="m16 14.999999h-1.325641q-.22564 0-.366667-.109596-.131624-.109584-.206837-.273972l-1.052991-2.885844h-5.0957274l-1.0435895 2.876712q-.0564112.155256-.2162394.273978-.1504266.118723-.3666667.118723h-1.325641l4.6350429-12h1.7393161l4.625641 12zm-7.6153847-4.45662h4.2307687l-1.748717-4.8310513q-.094017-.2191782-.188035-.5114155-.094017-.2922374-.178632-.6301369-.09402.3470318-.188034.6392694-.09402.2922373-.178633.5114155z"/><path d="m17.222222 15v-11.9999999h4.445449c.857309 0 1.592675.073058 2.206096.219178.620811.1400311 1.127067.3470321 1.518768.6210048.399093.2678842.691021.5966514.875787.9863012.184764.3835616.277148.8188738.277148 1.3059359 0 .2922375-.05541.5753423-.166281.8493156-.103461.2739732-.262369.5266356-.476693.7579896-.214328.2313563-.484086.4414008-.809273.6301378-.325188.188736-.709497.340945-1.152935.456621 1.012514.164384 1.773746.477931 2.283697.94064.517343.456621.776015 1.05936.776015 1.808219 0 .511416-.107164.977168-.321492 1.397259-.214329.420093-.52843.782344-.942303 1.086759-.413874.298326-.923825.529679-1.529854.694064-.59864.164385-1.285966.246575-2.061978.246575zm1.629631-5.461187v4.146119h3.259254c.509953 0 .945998-.05174 1.308135-.155251.369533-.109596.668853-.258751.897959-.44749.236502-.188736.406486-.414002.509954-.675798.110856-.267884.166281-.557078.166281-.867579 0-.614917-.236501-1.101981-.7095-1.461189-.465602-.359208-1.18988-.538812-2.172829-.538812zm0-1.16895h2.738217c.49517 0 .927522-.04871 1.297051-.146114.36953-.1035.676242-.2435318.920129-.4200914.243891-.1765608.424961-.3896509.543209-.63927.125639-.2496204.188457-.5266368.188457-.8310501 0-.7001525-.232804-1.2115681-.698409-1.5342469-.458219-.3287701-1.182498-.4931535-2.172838-.4931535h-2.815819z"/><path d="m4.0058594 18.000071c-.5577284 0-1.0058594.448131-1.0058594 1.005858v8.988212c0 .557728.448131 1.005859 1.0058594 1.005859h23.9882816c.557728 0 1.005859-.448131 1.005859-1.005859v-8.988212c0-.557727-.448131-1.005858-1.005859-1.005858zm-.00586 1h23.9999996l.000001 8.999929h-24z"/></g></svg>