<svg height="32" viewBox="0 0 8.4666665 8.4666669" width="32" xmlns="http://www.w3.org/2000/svg"><rect fill="#1e8bcd" height="3.439583" ry=".264583" stroke-width=".264583" transform="matrix(-1 0 0 1 0 -288.53332)" width="3.704167" x="-4.497917" y="290.91458"/><g fill="#3a3a38" transform="matrix(-.26458333 0 0 .26458333 8.466667 0)"><rect height="1" ry=".446068" width="26" x="3" y="3"/><rect height="1" ry=".446068" width="26" x="3" y="6"/><rect height="1" ry=".446068" width="26" x="3" y="24"/><rect height="1" ry=".446068" width="26" x="3" y="27"/><rect height="1" ry=".410114" width="10" x="3" y="15"/><rect height="1" ry=".415254" width="10" x="3" y="12"/><rect height="1" ry=".381356" width="10" x="3" y="9"/><rect height="1" ry=".410114" width="10" x="3" y="21"/><rect height="1" ry=".364407" width="10" x="3" y="18"/></g></svg>