<svg viewBox="0 0 32 32" xmlns="http://www.w3.org/2000/svg"><path d="m5 2c-.554 0-1 .446-1 1v26c0 .554.446 1 1 1h22c.554 0 1-.446 1-1v-26c0-.554-.446-1-1-1zm0 1h22v26h-22z" fill="#808080"/><path d="m5 3v26h22v-26z" fill="#fff"/><g transform="matrix(-1 0 0 1 4 4)"><rect fill="#808080" height="1" ry=".446068" width="20" x="-22" y="3"/><rect fill="#4d82b8" height="9" ry="1" width="10" x="-22" y="8"/><g fill="#808080"><rect height="1" ry=".446068" width="20" x="-22" y="6"/><rect height="1" ry=".446068" width="20" x="-22" y="21"/><rect height="1" ry=".410114" width="8" x="-10" y="15"/><rect height="1" ry=".446068" width="8" x="-10" y="12"/><rect height="1" ry=".419102" width="8" x="-10" y="9"/><rect height="1" ry=".410114" width="20" x="-22" y="18"/></g></g></svg>