<svg viewBox="0 0 16 16" xmlns="http://www.w3.org/2000/svg"><g fill="#2e3436"><path d="m3 1c-1.6619983 0-3 1.3380017-3 3v8c0 1.661998 1.3380017 3 3 3h9c1.661998 0 3-1.338002 3-3v-8c0-1.6619983-1.338002-3-3-3zm.5 2h8c.830999 0 1.5.6690008 1.5 1.5v7c0 .830999-.669001 1.5-1.5 1.5h-8c-.8309992 0-1.5-.669001-1.5-1.5v-7c0-.8309992.6690008-1.5 1.5-1.5z"/><path d="m6.999974 6.00098c.0004825-.2658785-.104937-.5210034-.29296-.70899-.3905079-.3904286-1.0235621-.3904286-1.41407 0l-1.9999998 2c-.3916747.390753-.3916747 1.025267 0 1.41602l1.9999998 2c.3905079.390429 1.0235621.390429 1.41407 0 .3917301-.39073.3917301-1.02529 0-1.41602l-1.2929698-1.29101 1.2929698-1.29297c.1875421-.1875066.2929219-.4418305.29296-.70703z"/><path d="m8.000026 6.00098c-.0004826-.2658785.104937-.5210034.29296-.70899.390508-.3904286 1.023562-.3904286 1.41407 0l2 2c.391674.390753.391674 1.025267 0 1.41602l-2 2c-.390508.390429-1.023562.390429-1.41407 0-.3917302-.39073-.3917302-1.02529 0-1.41602l1.29297-1.29101-1.29297-1.29297c-.187542-.1875066-.292922-.4418305-.29296-.70703z"/></g></svg>