<svg viewBox="0 0 16 16" xmlns="http://www.w3.org/2000/svg"><g fill="#2e3436"><path d="m3 1c-1.6619983 0-3 1.3380017-3 3v8c0 1.661998 1.3380017 3 3 3h9c1.661998 0 3-1.338002 3-3v-8c0-1.6619983-1.338002-3-3-3zm.5 2h8c.830999 0 1.5.6690008 1.5 1.5v7c0 .830999-.669001 1.5-1.5 1.5h-8c-.8309992 0-1.5-.669001-1.5-1.5v-7c0-.8309992.6690008-1.5 1.5-1.5z"/><path d="m4.5 5c-.2769997 0-.5.2230003-.5.5v1c0 .2769997.2230003.5.5.5h6c.277 0 .5-.2230003.5-.5v-1c0-.2769997-.223-.5-.5-.5zm0 4c-.2769997 0-.5.2230003-.5.5v1c0 .277.2230003.5.5.5h6c.277 0 .5-.223.5-.5v-1c0-.2769997-.223-.5-.5-.5z"/></g></svg>