<svg viewBox="0 0 16 16" xmlns="http://www.w3.org/2000/svg"><g fill="#555753"><path d="m3 0c-1.6450068 0-3 1.3549932-3 3v8c0 1.645006 1.3549932 3 3 3a1 1 0 0 0 1-1 1 1 0 0 0 -1-1c-.5641288 0-1-.435872-1-1v-7h7 4 2.822266c-.416154-1.1595431-1.527517-2-2.822266-2h-3.5859375l-1.7070313-1.70703125c-.1875108-.18753603-.4418331-.29291704-.7070312-.29296875zm0 2h3.5859375l1 1h-5.5859375c0-.5641288.4358712-1 1-1z"/><path d="m9.9991445 4.0006112c-.577437 0-1.154703.21867-1.59082.6547875l-3.7543949 3.7543955c-.8722342.8722265-.8722342 2.3094068 0 3.1816348l3.7543949 3.754395c.872234.872235 2.3094055.872235 3.1816405 0l3.755859-3.754395c.872234-.872228.872234-2.3094082 0-3.1816348l-3.755859-3.7543955c-.436118-.4361175-1.013384-.6547875-1.5908205-.6547875zm.07617 1.49121c.15789.0168.310806.088133.439454.2109375l-.253418.083498c-.05643-.1019025-.119161-.1998-.186036-.2944355zm-1.176269.79395c.225.3153225.348604.69633.348633 1.0898399 0 1.035533-.839466 1.8749997-1.875 1.8749997-.3923984-.003-.7708364-.128205-1.0839846-.354495zm2.579589.3793875 2.805176 2.8051801c.302978.302977.302978.7575672 0 1.0605452l-.188964.188962c-.0286-.03607-.05682-.07297-.08789-.106927l.4643545-.6401403-.606445-.440918-.464356.6386703c-.12606-.05775-.26098-.103185-.399902-.131835v-.7880853h-.75v.7880853h-.0015c-.13893.02865-.272378.0741-.398438.131835l-.464355-.6386703-.606445.440918.464355.6401403c-.09439.10311-.177809.216292-.247559.338377l-.751464-.243165-.231446.713378.75.243165c-.0079.06945-.01319.139462-.01319.210937 0 .07147.0053.141488.01319.210938l-.75.243165.231446.713377.751464-.243165c.06975.122085.153171.235268.247559.338378l-.464355.64014.147949.108397-.398438.398438c-.302972.30297-.7575685.302977-1.0605455 0l-3.6782234-3.678225.021975-.03075.156738-.216795c.2464125.116737.5103938.203617.7851563.256342v.266595.618165h1.2363291v-.618165-.266602c.274755-.05273.538751-.139605.785156-.256343l.156738.216795.363281.500978 1.0004885-.728033-.3618165-.5009702-.159668-.218265c.188145-.20034.3523035-.423.4863285-.66504l.254883.0835.588867.190432.38086-1.1762696-.587403-.191895-.253418-.08203c.01703-.135157.02783-.273495.02783-.413085s-.01088-.277927-.02783-.4130849l.253418-.082035.587403-.191895zm1.146973 4.0854523c.394057 0 .736801.198195.9375.500978l-1.561523 1.561522c-.302783-.2007-.500977-.543442-.500977-.9375 0-.625762.499237-1.125 1.125-1.125z" stroke-width=".75"/></g></svg>