<?xml version="1.0" encoding="UTF-8"?>
<svg version="1.1" viewBox="0 0 32 32" xmlns="http://www.w3.org/2000/svg"><path d="m20 2h-12c-2.216 0-4 1.784-4 4v20c0 2.216 1.784 4 4 4h15c2.216 0 4-1.784 4-4v-17c0-1-0.26236-1.2638-1-2l-4-4c-0.68903-0.72564-1-1-2-1zm-12 2h11v4c0 1.108 0.892 2 2 2h4v16c0 1.108-0.892 2-2 2h-15c-1.108 0-2-0.892-2-2v-20c0-1.108 0.892-2 2-2z" fill="#2e3436"/><path d="m18 16c-0.554 0-1 0.446-1 1v3c0 0.554 0.446 1 1 1h3c0.554 0 1-0.446 1-1v-3c0-0.554-0.446-1-1-1zm0 1h3v3h-3z" fill="#2e3436"/><path d="m11 14a3 3 0 0 0-3 3 3 3 0 0 0 3 3 3 3 0 0 0 3-3 3 3 0 0 0-3-3zm0 1a2 2 0 0 1 2 2 2 2 0 0 1-2 2 2 2 0 0 1-2-2 2 2 0 0 1 2-2z" fill="#2e3436"/><path transform="translate(-.49987 -.5)" d="m15 17 4.3301 7.5h-8.6603z" fill="#2e3436"/></svg>
