<svg xmlns="http://www.w3.org/2000/svg" viewBox="0 0 32 32">
 <path
     style="fill:#555753"
     d="M 28 -0.001953125 L 20 0 C 19.45299 0 19.566839 0 20.537109 1 L 28 8.4707031 C 29.17188 9.6158831 29 9.53907 29 8 L 29 0.99804688 C 28.99994 0.44578688 28.55226 -0.001893125 28 -0.001953125 z M 4 0 A 1.0001 1.0001 0 0 0 3 1 L 3 31 A 1.0001 1.0001 0 0 0 4 32 L 28 32 A 1.0001 1.0001 0 0 0 29 31 L 29 12 A 1.0001 1.0001 0 0 0 28.707031 11.292969 L 17.707031 0.29296875 A 1.0001 1.0001 0 0 0 17 0 L 4 0 z M 5 2 L 16.585938 2 L 27 12.414062 L 27 30 L 5 30 L 5 2 z M 12 5 A 5 5 0 0 0 7 10 A 5 5 0 0 0 12 15 A 5 5 0 0 0 17 10 A 5 5 0 0 0 12 5 z M 12 6 A 4 4 0 0 1 16 10 A 4 4 0 0 1 12 14 A 4 4 0 0 1 8 10 A 4 4 0 0 1 12 6 z M 18 14 C 17.50282 14 17 14.48061 17 15 L 17 21 C 17 21.50823 17.49177 22 18 22 L 24 22 C 24.53585 22 25 21.52481 25 21 L 25 15 C 25 14.47656 24.51496 14 24 14 L 18 14 z M 18 15 L 24 15 L 24 21 L 18 21 L 18 15 z M 12.505859 18 A 0.50005 0.50005 0 0 0 12.076172 18.234375 L 7.0761719 26.234375 A 0.50005 0.50005 0 0 0 7.5 27 L 17.5 27 A 0.50005 0.50005 0 0 0 17.923828 26.234375 L 12.923828 18.234375 A 0.50005 0.50005 0 0 0 12.505859 18 z M 12.5 19.443359 L 16.597656 26 L 8.4023438 26 L 12.5 19.443359 z "
     />
 <path
     style="fill:#555753;opacity:0.35"
     d="M 12 6 A 4 4 0 0 0 8 10 A 4 4 0 0 0 12 14 A 4 4 0 0 0 16 10 A 4 4 0 0 0 12 6 z M 17.375 14.46875 L 17.375 21.53125 L 24.625 21.53125 L 24.625 14.46875 L 17.375 14.46875 z M 12 19 L 8 26 L 17 26 L 13 19 L 12 19 z "
     />
 </svg>
