<?xml version="1.0" encoding="UTF-8"?>
<svg version="1.1" viewBox="0 0 32 32" xmlns="http://www.w3.org/2000/svg"><path d="m20 2h-12c-2.216 0-4 1.784-4 4v20c0 2.216 1.784 4 4 4h15c2.216 0 4-1.784 4-4v-17c0-1-0.26236-1.2638-1-2l-4-4c-0.68903-0.72564-1-1-2-1zm-12 2h11v4c0 1.108 0.892 2 2 2h4v16c0 1.108-0.892 2-2 2h-15c-1.108 0-2-0.892-2-2v-20c0-1.108 0.892-2 2-2z" fill="#2e3436"/><path d="m17 18c-0.554 0-1 0.446-1 1v4c0 0.554 0.446 1 1 1h5c0.554 0 1-0.446 1-1v-4c0-0.554-0.446-1-1-1h-5zm2 1h1v4h-1v-4zm-2 1h1v3h-1v-3zm4 1h1v2h-1v-2z" fill="#2e3436"/><path d="m9 14c-0.554 0-1 0.446-1 1v5c0 0.554 0.446 1 1 1h7v-1h-3v-1h3c0-0.554 0.446-1 1-1v-1h3v1h1v-3c0-0.554-0.446-1-1-1h-11zm0 1h3v1h-3v-1zm4 0h3v1h-3v-1zm4 0h3v1h-3v-1zm-8 2h3v1h-3v-1zm4 0h3v1h-3v-1zm-4 2h3v1h-3v-1z" fill="#2e3436"/></svg>
