<?xml version="1.0" encoding="UTF-8"?>
<svg version="1.1" viewBox="0 0 32 32" xmlns="http://www.w3.org/2000/svg"><path d="m21 2h-12c-2.216 0-4 1.784-4 4v20c0 2.216 1.784 4 4 4h15c2.216 0 4-1.784 4-4v-17c0-1-0.26236-1.2638-1-2l-4-4c-0.68903-0.72564-1-1-2-1zm-12 2h11v4c0 1.108 0.892 2 2 2h4v16c0 1.108-0.892 2-2 2h-15c-1.108 0-2-0.892-2-2v-20c0-1.108 0.892-2 2-2z" fill="#2e3436"/><path d="m13.115 14-1.6309 6.123-0.60742-2.123h-1.377a0.5 0.5 0 0 0-0.5 0.5 0.5 0.5 0 0 0 0.5 0.5h0.62305l1.3945 4.8789 2.3672-8.8789h9.6152a0.5 0.5 0 0 0 0.5-0.5 0.5 0.5 0 0 0-0.5-0.5z" color="#000000" fill="#2e3436" stroke-linecap="round" style="-inkscape-stroke:none"/><rect x="9" y="24" width="3" height="1" ry=".5" fill="#2e3436"/><rect x="15" y="24" width="3" height="1" ry=".5" fill="#2e3436"/><rect x="21" y="24" width="3" height="1" ry=".5" fill="#2e3436"/><g transform="translate(1)" fill="#2e3436" stroke-linecap="round"><path d="m20.5 17.5-4 4" color="#000000" style="-inkscape-stroke:none"/><path d="m20.146 17.146-4 4a0.5 0.5 0 0 0 0 0.70703 0.5 0.5 0 0 0 0.70703 0l4-4a0.5 0.5 0 0 0 0-0.70703 0.5 0.5 0 0 0-0.70703 0z" color="#000000" style="-inkscape-stroke:none"/></g><g transform="translate(1)" fill="#2e3436" stroke-linecap="round"><path d="m16.5 17.5 4 4" color="#000000" style="-inkscape-stroke:none"/><path d="m16.146 17.146a0.5 0.5 0 0 0 0 0.70703l4 4a0.5 0.5 0 0 0 0.70703 0 0.5 0.5 0 0 0 0-0.70703l-4-4a0.5 0.5 0 0 0-0.70703 0z" color="#000000" style="-inkscape-stroke:none"/></g><rect x="3" y="13" width="5" height="2" ry="1" fill="#2e3436" stroke-linecap="round"/><rect x="3" y="17" width="5" height="2" ry="1" fill="#2e3436" stroke-linecap="round"/><rect x="3" y="21" width="5" height="2" ry="1" fill="#2e3436" stroke-linecap="round"/><rect x="3" y="25" width="5" height="2" ry="1" fill="#2e3436" stroke-linecap="round"/><rect x="3" y="9" width="5" height="2" ry="1" fill="#2e3436" stroke-linecap="round"/><rect x="3" y="5" width="5" height="2" ry="1" fill="#2e3436" stroke-linecap="round"/></svg>
