<svg viewBox="0 0 32 32" xmlns="http://www.w3.org/2000/svg"><g fill="#2e3436"><path d="m25 2h-3.5c-.5 0-.691747-.02055-.78657.092191-.332913.1607742-.206788.7090896.03586 1.0713426.23013.2646829.387998.421002.495044.529634.107045.108632.230844.2313979.391516.3969926.005.00506.01.010078.01505.015058l5.23072 5.2361955c.0036.00367.0073.00732.01095.01095.198832.1943.336802.33733.513353.491449.08827.07706.171472.1620293.398361.2792643.113445.05862.271662.133013.531149.160166.574184.02926.66642-.210245.664171-.6481942.0021-.2059143-.0059-.3896909-.0054-.6338193l.005796-3.0012295c0-2.5-1.5-4-4-4z" stroke-width=".700897"/><path d="m8 2c-2.2159868 0-4 1.7840132-4 4h-1c-.5539988 0-1 .4460012-1 1s.4460012 1 1 1h1v1h-1c-.5539988 0-1 .4460012-1 1 0 .553998.4460012 1 1 1h1v1h-1c-.5539988 0-1 .446002-1 1s.4460012 1 1 1h1v1h-1c-.5539988 0-1 .446002-1 1s.4460012 1 1 1h1v1h-1c-.5539988 0-1 .446002-1 1s.4460012 1 1 1h1v1h-1c-.5539988 0-1 .446002-1 1s.4460012 1 1 1h1v1h-1c-.5539988 0-1 .446002-1 1s.4460012 1 1 1h1c0 2.215988 1.7840132 4 4 4h17c2.215988 0 4-1.784012 4-4v-11c0-.999997-.262368-1.263844-1-2l-10-10c-.689026-.7256415-1.000003-1-2-1zm0 2h8l11 11v11c0 1.107994-.892006 2-2 2h-17c-.3652221 0-.7059251-.097952-1-.267578v-1.732422c-.5539988 0-1-.446002-1-1s.4460012-1 1-1v-1c-.5539988 0-1-.446002-1-1s.4460012-1 1-1v-1c-.5539988 0-1-.446002-1-1s.4460012-1 1-1v-1c-.5539988 0-1-.446002-1-1s.4460012-1 1-1v-1c-.5539988 0-1-.446002-1-1s.4460012-1 1-1v-1c-.5539988 0-1-.446002-1-1 0-.5539988.4460012-1 1-1v-1c-.5539988 0-1-.4460012-1-1s.4460012-1 1-1v-1.7324219c.2940749-.1696253.6347779-.2675781 1-.2675781z"/><path d="m17 14c-.511412 0-1 .500001-1 1v5c0 .550079.482438 1 1 1h6c.523442 0 1-.457251 1-1v-5c0-.530299-.480678-1-1-1zm-7 1c-1.3526155-.01942-1.3526155 2.019424 0 2h3c1.352616.01942 1.352616-2.019424 0-2zm7 0h6v4l-1.484375-1-.515625 1h-1l-1-1v-.515625l-1 .515625-1 1zm-7 4c-1.3526155-.01942-1.3526155 2.019424 0 2h3c1.352616.01942 1.352616-2.019424 0-2zm0 4c-1.3526155-.01942-1.3526155 2.019424 0 2h13c1.352616.01942 1.352616-2.019424 0-2z"/><path d="m17 15v5h6v-5z" opacity=".35"/></g></svg>