<svg xmlns="http://www.w3.org/2000/svg" viewBox="0 0 16 16">
  <path
     style="fill:#555753"
     d="M 12 0 L 12 2.6835938 L 11.71875 2.3125 C 11.528462 2.12983 11.256892 2 11 2 L 10 2 L 10 2.4121094 L 10 3 C 10 3.30945 10.0903 3.55232 10.28125 3.75 L 12.164062 6 L 13.779297 6 C 14.397651 5.274849 14.949156 4.766078 15.71875 3.75 C 15.9097 3.55232 16 3.30945 16 3 L 16 2.4121094 L 16 2 L 15 2 C 14.775978 2 14.471551 2.12983 14.28125 2.3125 L 14 2.6835938 L 14 0 L 12 0 z M 2 1 C 1.446 1 1 1.446 1 2 L 1 14 C 1 14.554 1.446 15 2 15 L 3 15 L 3 9 L 13 9 L 13 15 L 14 15 C 14.554 15 15 14.554 15 14 L 15 7 L 3 7 L 3 3 L 9 3 L 9 1 L 2 1 z M 4 10 L 4 15 L 12 15 L 12 10 L 4 10 z M 6 11 L 8 11 L 8 14 L 6 14 L 6 11 z "
     />
</svg>
