<svg height="54" width="68" xmlns="http://www.w3.org/2000/svg" xmlns:xlink="http://www.w3.org/1999/xlink"><linearGradient id="a" gradientUnits="userSpaceOnUse" x1="35" x2="35" y1="3.000053" y2="50.000053"><stop offset="0" stop-color="#fff"/><stop offset="1" stop-color="#ededed"/></linearGradient><g transform="matrix(1.0909091 0 0 1.0909091 5.047789 -1111.36588)"><g transform="matrix(.91666666 0 0 .91666666 -4.62714 1018.752)"><path d="m3 3h61v47h-61z" fill="url(#a)"/><path d="m4 3c-.5540291 0-1 .4459709-1 1v45c0 .554029.4459709 1 1 1h59c.554029 0 1-.445971 1-1v-45c0-.5540291-.445971-1-1-1zm0 1h59v45h-59z" opacity=".4"/><path d="m4 4v45h59v-45zm1 1h57v43h-57z" fill="#fff"/><path d="m8 7v9h51v-9zm1 1h49v7h-49z" opacity=".15"/></g><path d="m7.28952658 1027.9186666h37.58333306v2.74999998h-37.58333306z" fill="#729fcf"/><path d="m2.7061931 1037.0854.0000003 11h46.7499996v-11zm.916667.9166 44.9166659.0001v9.1666h-44.9166656z" opacity=".15"/><path d="m2.7061928 1049.9187.0000003 11h46.7499999v-11zm.916667.9166 44.9166662.0001v9.1666h-44.9166659z" opacity=".15"/></g></svg>