<svg height="54" width="68" xmlns="http://www.w3.org/2000/svg" xmlns:xlink="http://www.w3.org/1999/xlink"><linearGradient id="a" gradientUnits="userSpaceOnUse" x1="35" x2="35" y1="3.000053" y2="50.000053"><stop offset="0" stop-color="#fff"/><stop offset="1" stop-color="#ededed"/></linearGradient><g transform="translate(0 -.000053)"><path d="m3 3h61v47h-61z" fill="url(#a)"/><path d="m4 3c-.5540291 0-1 .4459709-1 1v45c0 .554029.4459709 1 1 1h59c.554029 0 1-.445971 1-1v-45c0-.5540291-.445971-1-1-1zm0 1h59v45h-59z" opacity=".4"/><path d="m4 4v45h59v-45zm1 1h57v43h-57z" fill="#fff"/><path d="m8 7v9h51v-9zm1 1h49v7h-49z" opacity=".15"/></g><path d="m12.99999988 9.99994745h41.00000004v3h-41.00000004z" fill="#729fcf"/><path d="m8 20v26h51v-26zm1 1h49v24h-49z" opacity=".15" transform="translate(0 -.000053)"/></svg>