<?xml version="1.0" encoding="UTF-8" standalone="no"?>
<svg
   xmlns:dc="http://purl.org/dc/elements/1.1/"
   xmlns:cc="http://creativecommons.org/ns#"
   xmlns:rdf="http://www.w3.org/1999/02/22-rdf-syntax-ns#"
   xmlns:svg="http://www.w3.org/2000/svg"
   xmlns="http://www.w3.org/2000/svg"
   xmlns:sodipodi="http://sodipodi.sourceforge.net/DTD/sodipodi-0.dtd"
   xmlns:inkscape="http://www.inkscape.org/namespaces/inkscape"
   version="1.2"
   width="345.611"
   height="71.5"
   viewBox="0 0 9144.293 1891.771"
   preserveAspectRatio="xMidYMid"
   fill-rule="evenodd"
   stroke-width="28.222"
   stroke-linejoin="round"
   id="svg14"
   sodipodi:docname="logo_inverted_CE.svg"
   inkscape:version="1.0.2 (e86c870879, 2021-01-15, custom)"
   inkscape:export-filename="C:\Users\sinkagab\Downloads\Libo7-Branding\logo_inverted_CE.png"
   inkscape:export-xdpi="95"
   inkscape:export-ydpi="95">
  <metadata
     id="metadata20">
    <rdf:RDF>
      <cc:Work
         rdf:about="">
        <dc:format>image/svg+xml</dc:format>
        <dc:type
           rdf:resource="http://purl.org/dc/dcmitype/StillImage" />
      </cc:Work>
    </rdf:RDF>
  </metadata>
  <defs
     id="defs18" />
  <sodipodi:namedview
     pagecolor="#ffffff"
     bordercolor="#666666"
     borderopacity="1"
     objecttolerance="10"
     gridtolerance="10"
     guidetolerance="10"
     inkscape:pageopacity="0"
     inkscape:pageshadow="2"
     inkscape:window-width="1920"
     inkscape:window-height="1017"
     id="namedview16"
     showgrid="false"
     inkscape:zoom="3.7527742"
     inkscape:cx="152.58228"
     inkscape:cy="35.75"
     inkscape:window-x="-8"
     inkscape:window-y="-8"
     inkscape:window-maximized="1"
     inkscape:current-layer="g12"
     inkscape:document-rotation="0" />
  <g
     class="SlideGroup"
     id="g12">
    <path
       d="M 2121.35,380.77505 V 1413.1551 h 666.052 v -156.522 H 2324.496 V 380.77505 Z m 795.163,1034.04505 h 204.811 V 670.50905 h -204.81 z m 103.238,-807.58705 c 63.275,0 116.56,-51.619 116.56,-118.224 0,-63.275 -53.285,-116.559 -116.56,-116.559 -66.605,0 -118.224,53.284 -118.224,116.559 0,66.605 51.62,118.224 118.224,118.224 z m 454.58,149.861 h -3.33 v -439.594 H 3267.855 V 1413.1551 h 199.816 l 3.33,-86.587 h 3.33 c 63.274,71.601 128.214,101.573 231.452,101.573 198.151,0 328.031,-178.169 328.031,-399.63 0,-214.80205 -116.559,-372.99005 -318.04,-372.99005 -108.233,0 -171.508,31.638 -241.443,101.573 z m -3.33,268.08605 c 0,-128.21505 58.28,-213.13705 166.513,-213.13705 121.554,0 183.164,86.587 183.164,228.12305 0,139.871 -59.944,231.453 -179.833,231.453 -104.903,0 -169.843,-81.59 -169.843,-213.137 z M 4578.312,653.85605 c -96.577,6.66 -189.824,64.94 -233.118,148.197 h -1.66 l -4.99,-133.211 h -199.815 v 744.31305 h 204.81 v -281.406 c 0,-148.19605 26.643,-201.48005 73.266,-234.78305 41.628,-29.972 89.917,-41.628 156.522,-44.958 z m 745.978,343.017 c 0,-184.83 -113.23,-343.017 -306.384,-343.017 -234.783,0 -384.645,161.518 -384.645,406.29205 0,239.778 154.857,367.993 384.645,367.993 108.232,0 183.164,-16.65 254.765,-49.954 l -21.647,-151.527 c -66.605,28.308 -134.875,44.96 -208.141,44.96 -123.22,0 -201.481,-56.615 -209.807,-173.174 H 5314.3 c 6.66,-26.643 9.99,-69.936 9.99,-101.57305 z m -328.032,-186.494 c 88.253,0 129.88,71.601 131.545,148.197 h -286.401 c 14.987,-84.922 74.93,-148.197 154.856,-148.197 z"
       fill="#18a303"
       id="path2" />
    <path
       d="m 5937.056,382.44005 c -271.416,0 -496.207,199.815 -496.207,531.176 0,331.36105 224.791,531.17605 496.207,531.17605 274.746,0 497.874,-199.815 497.874,-531.17605 0,-331.361 -223.128,-531.176 -497.874,-531.176 z m 0,103.238 c 204.811,0 358.004,153.192 358.004,427.938 0,276.41105 -153.193,427.93805 -358.004,427.93805 -201.48,0 -356.338,-151.527 -356.338,-427.93805 0,-274.746 154.857,-427.938 356.338,-427.938 z m 691.03,159.852 v 46.624 h -119.89 v 96.577 h 119.89 V 1428.1411 H 6756.3 V 788.73105 h 188.159 v -96.577 h -188.16 v -66.605 c 0,-133.21 54.95,-211.471 158.188,-211.471 46.625,0 76.597,8.32 104.904,18.316 l 13.32,-93.247 c -28.306,-11.656 -79.926,-21.647 -119.891,-21.647 -181.497,0 -284.735,116.559 -284.735,328.03 z"
       fill="#ffffff"
       id="path4"
       style="display:inline" />
    <path
       d="m 1042.371,0.001 c -16.652,0 -33.303,9.99 -39.964,26.642 -6.66,14.986 -3.33,33.302 8.33,44.958 l 366.329,366.328 c 11.656,13.322 29.972,16.652 46.623,9.99 14.986,-6.66 26.642,-21.646 26.642,-38.298 V 41.628 C 1450.331,19.981 1430.349,0 1407.038,0 Z m -999.077,0 C 19.982,0.001 0,19.982 0,43.294 v 1666.794 c 0,21.646 19.982,41.628 43.294,43.293 h 1363.74 c 21.646,0 41.628,-21.647 41.628,-43.293 V 636.08 c 0,-11.656 -3.33,-21.647 -11.656,-29.973 L 847.551,13.322 C 839.221,4.992 827.569,0.001 815.913,0.001 Z M 84.922,86.587 H 797.597 L 1363.74,654.396 V 1666.794 H 84.922 Z"
       fill="#ffffff"
       id="path6"
       style="display:inline"
       sodipodi:nodetypes="cccccssccssscsssccsscccccc" />
    <text
       style="line-height:1.25"
       x="5741.9048"
       y="2293.9751"
       font-weight="400"
       font-size="1058.33px"
       font-family="sans-serif"
       letter-spacing="0"
       word-spacing="0"
       fill="#ffffff"
       stroke-width="746.707"
       transform="translate(-3622.366,-544.219)"
       id="text10"><tspan
         x="5741.9048"
         y="2293.9751"
         style="-inkscape-font-specification:'Vegur, Normal';font-variant-ligatures:normal;font-variant-caps:normal;font-variant-numeric:normal;font-variant-east-asian:normal"
         font-size="652.639px"
         font-family="Vegur"
         id="tspan8" /></text>
    <path
       d="m 7049.363,645.53005 v 46.624 h -119.89 v 96.577 h 119.89 v 639.41005 h 128.214 V 788.73105 h 188.16 v -96.577 h -188.16 v -66.605 c 0,-133.21 54.95,-211.471 158.189,-211.471 46.623,0 76.595,8.32 104.903,18.316 l 13.32,-93.247 c -26.64,-11.656 -78.26,-21.647 -119.889,-21.647 -181.498,0 -284.736,116.559 -284.736,328.03 z M 7563.52,1429.8061 H 7693.4 V 692.15405 h -129.88 z m 64.94,-845.88505 c 44.959,0 79.927,-34.968 79.927,-78.261 0,-44.959 -34.968,-79.927 -79.927,-79.927 -44.958,0 -79.925,34.968 -79.925,79.927 0,43.293 34.967,78.261 79.925,78.261 z m 326.366,474.56105 c 0,-186.49405 111.563,-283.07205 256.429,-283.07205 74.932,0 141.536,16.652 196.486,43.294 l 13.32,-98.243 c -46.622,-21.647 -119.888,-43.293 -199.815,-43.293 -228.123,0 -399.631,138.205 -399.631,397.96505 0,243.11 154.857,369.66 359.668,369.66 91.583,0 156.522,-9.99 231.453,-43.294 l -11.655,-96.578 c -64.941,29.973 -133.212,43.294 -196.485,43.294 -148.197,0 -249.77,-93.248 -249.77,-289.733 z m 1182.241,31.638 c 3.33,-26.642 4.99,-49.954 4.99,-73.266 0,-188.16005 -99.908,-339.68605 -289.732,-339.68605 -204.811,0 -354.672,171.508 -354.672,397.96505 0,249.77 149.86,369.66 354.672,369.66 91.582,0 159.852,-13.322 231.452,-43.294 l -11.655,-96.578 c -56.615,26.642 -138.206,43.294 -201.481,43.294 -146.531,0 -243.11,-89.917 -244.774,-258.095 z M 8842.339,775.41005 c 111.563,0 173.173,91.582 173.173,214.802 h -384.645 c 18.317,-129.88 89.917,-214.802 211.472,-214.802 z"
       fill="#ffffff"
       id="path2949"
       style="display:inline"
       sodipodi:nodetypes="cccccccccccssccssccccccsssssssccsssccsscssssccsccsccs" />
  </g>
</svg>
