<svg viewBox="0 0 32 32" xmlns="http://www.w3.org/2000/svg" xmlns:xlink="http://www.w3.org/1999/xlink"><linearGradient id="a" gradientUnits="userSpaceOnUse" x1="-14.398304" x2="-13.835573" y1="14.584745" y2="8.73646"><stop offset="0" stop-color="#0040dd"/><stop offset="1" stop-color="#0a84ff"/></linearGradient><path d="m16 10c-5.09288.0068-9.8780756 2.286295-12.8867188 6.138672.1863766.292443.3779215.581189.5859376.859375 2.8031343-3.755955 7.3964932-5.995746 12.3007812-5.998047-3.313708 0-6 2.686292-6 6s2.686292 6 6 6 6-2.686292 6-6c-.0018-3.122333-2.397872-5.72145-5.509766-5.976562 4.724819.147433 9.098693 2.365131 11.802735 5.984374.210766-.281341.405139-.573191.59375-.86914-3.008643-3.852378-7.793839-6.131836-12.886719-6.138672zm0 2c2.761424 0 5 2.238576 5 5s-2.238576 5-5 5-5-2.238576-5-5 2.238576-5 5-5z" fill="#98989d"/><path d="m16 14c-1.656854 0-3 1.343146-3 3s1.343146 3 3 3 3-1.343146 3-3c-.000626-.299346-.04605-.596913-.134766-.882812-.242317.536761-.776312.882062-1.365234.882812-.828427 0-1.5-.671573-1.5-1.5.0011-.589379.347242-1.123497.884766-1.365234-.286525-.088908-.584765-.134335-.884766-.134766z" fill="url(#a)"/></svg>