<svg viewBox="0 0 32 32" xmlns="http://www.w3.org/2000/svg" xmlns:xlink="http://www.w3.org/1999/xlink"><linearGradient id="a" gradientUnits="userSpaceOnUse" x1="6.003272" x2="26" y1="8.000089" y2="8.000089"><stop offset="0" stop-color="#0040dd"/><stop offset="1" stop-color="#0a84ff"/></linearGradient><g transform="matrix(0 -1 -1 0 32 32)"><path d="m28.5 15.5h-22v5h22z" fill="#fff" stroke="#98989d" stroke-linecap="round" stroke-linejoin="round"/><path d="m20.5 23.5h-14v5h14z" fill="#fc0" stroke="#e4b500" stroke-linecap="round" stroke-linejoin="round"/><rect fill="#69696e" height="2" ry="1" transform="rotate(-90)" width="28" x="-30" y="3"/><path d="m11.970703 2.0019531c-.254373.00793-.496109.1127287-.675781.2929688l-5.0000001 5c-.388867.3896261-.388867 1.0205301 0 1.4101562l5.0000001 4.9999999c.628586.62726 1.70185.182939 1.703125-.705078v-3h12.501953c.277 0 .5-.223.5-.5v-3c0-.277-.223-.5-.5-.5h-12.501953v-3c.000209-.5628388-.464747-1.0145351-1.027344-.9980469z" fill="url(#a)"/></g></svg>