<svg viewBox="0 0 32 32" xmlns="http://www.w3.org/2000/svg" xmlns:xlink="http://www.w3.org/1999/xlink"><linearGradient id="a" gradientTransform="matrix(.26458333 0 0 .26458333 101.6 307.58333)" gradientUnits="userSpaceOnUse" x1="18.5" x2="18.5" y1="23" y2="14.5"><stop offset="0" stop-color="#d70015"/><stop offset="1" stop-color="#ff453a"/></linearGradient><linearGradient id="b" gradientUnits="userSpaceOnUse" x1="-41.949153" x2="-41.983051" y1="7.754237" y2="-11.5"><stop offset="0" stop-color="#0040dd"/><stop offset="1" stop-color="#0a84ff"/></linearGradient><linearGradient id="c" gradientUnits="userSpaceOnUse" x1="5" x2="5" xlink:href="#a" y1="8" y2="2"/><linearGradient id="d" gradientUnits="userSpaceOnUse" x1="27" x2="27" xlink:href="#a" y1="8" y2="2"/><linearGradient id="e" gradientUnits="userSpaceOnUse" x1="16" x2="16" xlink:href="#a" y1="6" y2="4"/><linearGradient id="f" gradientUnits="userSpaceOnUse" x1="16" x2="16" xlink:href="#a" y1="8" y2="2"/><path d="m16 4a13 24.5 0 0 0 -13 24.5 13 24.5 0 0 0 .0136719.5h.9863281a11.998318 23.996635 0 0 1 0-.003906 11.998318 23.996635 0 0 1 11.998047-23.996094 11.998318 23.996635 0 0 1 11.998047 23.996094 11.998318 23.996635 0 0 1 0 .003906h.99414a13 24.5 0 0 0 .009766-.5 13 24.5 0 0 0 -13-24.5z" fill="url(#b)"/><rect fill="url(#e)" height="2" ry=".5" width="26" x="3" y="4"/><path d="m14 2c-.554 0-1 .446-1 1v3c0 .554.446 1 1 1h3c.554 0 1-.446 1-1v-3c0-.554-.446-1-1-1zm0 1h3v3h-3z" fill="url(#f)"/><path d="m14 3h3v3h-3z" fill="#fff"/><path d="m30 5a3 3 0 0 1 -3 3 3 3 0 0 1 -3-3 3 3 0 0 1 3-3 3 3 0 0 1 3 3z" fill="url(#d)"/><path d="m29 5a2 2 0 0 1 -2 2 2 2 0 0 1 -2-2 2 2 0 0 1 2-2 2 2 0 0 1 2 2z" fill="#fff"/><path d="m8 5a3 3 0 0 1 -3 3 3 3 0 0 1 -3-3 3 3 0 0 1 3-3 3 3 0 0 1 3 3z" fill="url(#c)"/><path d="m7 5a2 2 0 0 1 -2 2 2 2 0 0 1 -2-2 2 2 0 0 1 2-2 2 2 0 0 1 2 2z" fill="#fff"/></svg>