<svg height="32" viewBox="0 0 32 32" width="32" xmlns="http://www.w3.org/2000/svg"><g fill="#ebebeb" fill-opacity=".992157"><rect height="3" rx="1" width="26" x="3" y="4"/><rect height="2" rx=".5" width="26" x="3" y="10"/><rect height="1" rx=".5" width="7" x="3" y="19"/><rect height="1" rx=".5" width="7" x="11" y="19"/><rect height="1" rx=".5" ry=".428091" width="2" x="3" y="23"/><rect height="1" rx=".5" ry=".428091" width="2" x="7" y="23"/><rect height="1" rx=".5" ry=".428091" width="2" x="11" y="23"/><rect height="1" rx=".5" ry=".428091" width="2" x="15" y="23"/><rect height="1" rx=".5" ry=".428091" width="2" x="19" y="23"/><rect height="2" rx=".5" width="26" x="3" y="28"/><rect height="1" rx=".5" width="26" x="3" y="15"/><rect height="1" rx=".5" width="7" x="20" y="19"/><rect height="1" rx=".5" ry=".428091" width="2" x="23" y="23"/><rect height="1" rx=".5" ry=".428091" width="2" x="27" y="23"/></g><g fill="#4b4b4f"><rect height="3" rx="1" width="26" x="3" y="3"/><rect height="2" rx=".5" width="26" x="3" y="9"/><rect height="1" rx=".5" width="7" x="3" y="18"/><rect height="1" rx=".5" width="7" x="11" y="18"/><rect height="1" rx=".5" ry=".428091" width="2" x="3" y="22"/><rect height="1" rx=".5" ry=".428091" width="2" x="7" y="22"/><rect height="1" rx=".5" ry=".428091" width="2" x="11" y="22"/><rect height="1" rx=".5" ry=".428091" width="2" x="15" y="22"/><rect height="1" rx=".5" ry=".428091" width="2" x="19" y="22"/><rect height="2" rx=".5" width="26" x="3" y="27"/><rect height="1" rx=".5" width="26" x="3" y="14"/><rect height="1" rx=".5" width="7" x="20" y="18"/><rect height="1" rx=".5" ry=".428091" width="2" x="23" y="22"/><rect height="1" rx=".5" ry=".428091" width="2" x="27" y="22"/></g></svg>