<svg height="32" viewBox="0 0 32 32" width="32" xmlns="http://www.w3.org/2000/svg" xmlns:xlink="http://www.w3.org/1999/xlink"><linearGradient id="a" gradientTransform="translate(-28 15)" gradientUnits="userSpaceOnUse" x1="14" x2="13.79661" y1="22" y2="2.135593"><stop offset="0" stop-color="#0040dd"/><stop offset="1" stop-color="#0a84ff"/></linearGradient><linearGradient id="b" gradientUnits="userSpaceOnUse" x1="25" x2="25" xlink:href="#a" y1="31" y2="19.5"/><linearGradient id="c" gradientUnits="userSpaceOnUse" x1="27" x2="27" xlink:href="#a" y1="31" y2="19.5"/><filter id="d" color-interpolation-filters="sRGB" height="1.048" width="1.048" x="-.024" y="-.024"><feGaussianBlur stdDeviation=".26"/></filter><path d="m3.1224769 3.6168524v25.9999996h26.0000001v-25.9999996zm1 1h9.0000001 1 7 1 6v5 .9999996 5 1 5 1 6h-6-1-7-1-9.0000001v-6-1-5-1-5-.9999996z" fill-opacity=".227092" filter="url(#d)"/><path d="m4 4h24v24h-24z" fill="#fff"/><path d="m13 4v5h-9v1h9v5h-9v1h9v5h-9v1h9v6h1v-6h7v6h1v-6h6v-1h-6v-5h6v-1h-6v-5h6v-1h-6v-5h-1v5h-7v-5zm1 6h7v5h-7zm0 6h7v5h-7z" fill="#bababa"/><path d="m20 20h10v10h-10z" fill="#fff"/><path d="m4 4h7v5h-7z" fill="#f58b00"/><path d="m4 10h5v5h-5z" fill="#0040dd"/><path d="m4 16h8v5h-8z" fill="#f58b00"/><path d="m4 22h4v6h-4z" fill="#0040dd"/><path d="m3 3v26h26v-26zm1 1h9 1 7 1 6v5 1 5 1 5 1 6h-6-1-7-1-9v-6-1-5-1-5-1z" fill="#69696e"/><path d="m20 20h10v10h-10z" fill="#fff"/><path d="m26.498047 20.994141a.50005.50005 0 0 0 -.457031.308593l-.728516 1.697266h-3.8125c-.277 0-.5.223-.5.5s.223.5.5.5h3.384766l-.857422 2h-2.527344c-.277 0-.5.223-.5.5s.223.5.5.5h2.099609l-.558593 1.302734a.50005.50005 0 1 0 .917968.394532l.726563-1.697266h3.814453c.277 0 .5-.223.5-.5s-.223-.5-.5-.5h-3.384766l.857422-2h2.527344c.277 0 .5-.223.5-.5s-.223-.5-.5-.5h-2.099609l.558593-1.302734a.50005.50005 0 0 0 -.460937-.703125z" fill="url(#b)"/><path d="m20 19c-.554 0-1 .446-1 1v10c0 .554.446 1 1 1h10c.554 0 1-.446 1-1v-10c0-.554-.446-1-1-1zm0 1h10v10h-10z" fill="url(#c)"/></svg>