<svg viewBox="0 0 32 32" xmlns="http://www.w3.org/2000/svg" xmlns:xlink="http://www.w3.org/1999/xlink"><linearGradient id="a" gradientUnits="userSpaceOnUse" x1="6.847457" x2="7.084746" xlink:href="#b" y1="9.915255" y2="3.949153"/><linearGradient id="b" gradientTransform="matrix(-1 0 0 1 55.036694 4.991194)" gradientUnits="userSpaceOnUse" x1="13" x2="13" y1="7" y2="1"><stop offset="0" stop-color="#0040dd"/><stop offset="1" stop-color="#0a84ff"/></linearGradient><linearGradient id="c" gradientUnits="userSpaceOnUse" x1="16.264341" x2="15.917546" xlink:href="#b" y1="25.107988" y2="8.701208"/><linearGradient id="d" gradientUnits="userSpaceOnUse" x1="26.014467" x2="25.474577" xlink:href="#b" y1="28.863165" y2="21.541132"/><path d="m8.5355275 9.3324025 15.5342995 15.5344875.796872-.796873-15.534297-15.534489z" fill="url(#c)"/><path d="m23.773438 24.570312-2.369141 2.369141 7.595703 2.060547-2.060547-7.595703-2.369141 2.369141z" fill="url(#d)"/><path d="m10 7a3 3 0 0 1 -3 3 3 3 0 0 1 -3-3 3 3 0 0 1 3-3 3 3 0 0 1 3 3z" fill="url(#a)"/></svg>