<svg viewBox="0 0 32 32" xmlns="http://www.w3.org/2000/svg" xmlns:xlink="http://www.w3.org/1999/xlink"><linearGradient id="a" gradientTransform="translate(-29.694915 1.220339)" gradientUnits="userSpaceOnUse" x1="14" x2="13.79661" y1="22" y2="2.135593"><stop offset="0" stop-color="#0040dd"/><stop offset="1" stop-color="#0a84ff"/></linearGradient><linearGradient id="b" gradientUnits="userSpaceOnUse" x1="24.135593" x2="24" xlink:href="#a" y1="29" y2="21"/><linearGradient id="c" gradientUnits="userSpaceOnUse" x1="7.864407" x2="8" xlink:href="#a" y1="29.067797" y2="21"/><path d="m9.3359375 3c-.9649995 1.625-1.4689053 1.625-.5039063 3.25l5.9179688 9.978516-3.169922 5.28125a5 5 0 0 1 1.25 2.205078l1.6875-2.841797c1.304414-.01625 1.467702-1.260195 2.228516-1.277344l2.43164 4.099609a5 5 0 0 1 1.257813-2.195312l-3.166016-5.271484 5.917969-9.978516c.965-1.625.463047-1.625-.501953-3.25l-6.675781 11.126953zm6.6640625 13a1 1 0 0 1 1 1 1 1 0 0 1 -1 1 1 1 0 0 1 -1-1 1 1 0 0 1 1-1z" fill="#4b4b4f"/><g fill="#0a84ff"><path d="m8 21c-2.209139 0-4 1.790861-4 4s1.790861 4 4 4 4-1.790861 4-4-1.790861-4-4-4zm0 2a2 2 0 0 1 2 2 2 2 0 0 1 -2 2 2 2 0 0 1 -2-2 2 2 0 0 1 2-2z" fill="url(#c)" opacity=".99"/><path d="m24 21c-2.209139 0-4 1.790861-4 4s1.790861 4 4 4 4-1.790861 4-4-1.790861-4-4-4zm0 2a2 2 0 0 1 2 2 2 2 0 0 1 -2 2 2 2 0 0 1 -2-2 2 2 0 0 1 2-2z" fill="url(#b)" opacity=".99"/></g></svg>