<svg viewBox="0 0 32 32" xmlns="http://www.w3.org/2000/svg" xmlns:xlink="http://www.w3.org/1999/xlink"><linearGradient id="a" gradientUnits="userSpaceOnUse" x1="25" x2="25" y1="32" y2="10"><stop offset="0" stop-color="#0040dd"/><stop offset="1" stop-color="#0a84ff"/></linearGradient><linearGradient id="b" gradientUnits="userSpaceOnUse" x1="16" x2="16" xlink:href="#a" y1="20" y2="19"/><linearGradient id="c" gradientUnits="userSpaceOnUse" x1="16" x2="16" xlink:href="#a" y1="17" y2="16"/><linearGradient id="d" gradientTransform="matrix(1.3333333 0 0 1.9152542 8 -1.745763)" gradientUnits="userSpaceOnUse" x1="12" x2="12" xlink:href="#e" y1="3" y2="5"/><linearGradient id="e" gradientTransform="translate(0 3)" gradientUnits="userSpaceOnUse" x1="12" x2="12" y1="3" y2="5"><stop offset="0" stop-color="#c8c8cb"/><stop offset="1" stop-color="#98989d"/></linearGradient><linearGradient id="f" gradientTransform="translate(1 7)" gradientUnits="userSpaceOnUse" x1="12" x2="12" xlink:href="#e" y1="3" y2="7"/><linearGradient id="g" gradientUnits="userSpaceOnUse" x1="23.611652" x2="23.692648" y1="31.033819" y2="18.238295"><stop offset="0" stop-color="#d70015"/><stop offset="1" stop-color="#ff453a"/></linearGradient><linearGradient id="h" gradientUnits="userSpaceOnUse" x1="78" x2="78" xlink:href="#k" y1="36" y2="18"/><linearGradient id="i" gradientUnits="userSpaceOnUse" x1="16" x2="16" y1="3" y2="29"><stop offset="0" stop-color="#848489"/><stop offset="1" stop-color="#616165"/></linearGradient><filter id="j" color-interpolation-filters="sRGB" height="1.094553" width="1.097492" x="-.048746" y="-.047277"><feGaussianBlur stdDeviation=".36559322"/></filter><linearGradient id="k" gradientUnits="userSpaceOnUse" x1="70" x2="70" y1="42" y2="24"><stop offset="0" stop-color="#e9e9e9"/><stop offset=".2857143" stop-color="#f2f2f2"/><stop offset="1" stop-color="#fbfbfb"/></linearGradient><path d="m12 8.5h16v15h-16z" filter="url(#j)" opacity=".15" stroke-width="1.015418"/><path d="m4 14.5h16v15h-16z" filter="url(#j)" opacity=".15" stroke-width="1.015418"/><path d="m12 9h16v13h-16z" fill="url(#h)"/><path d="m4 15h16v13h-16z" fill="url(#k)"/><path d="m12 3c-.554 0-1 .446-1 1v5h-7c-.554 0-1 .446-1 1v18c0 .554.446 1 1 1h16c.554 0 1-.446 1-1v-5h7c.554 0 1-.446 1-1v-18c0-.554-.446-1-1-1zm8 6h8v13h-7v-12c0-.554-.446-1-1-1zm-16 6h7v7c0 .554.446 1 1 1h8v5h-16zm8 0h8v7h-8z" fill="url(#i)"/><g fill="#bababa"><path d="m6 16h4v1h-4z" fill="#bababa"/><path d="m14 16h4v1h-4z" fill="url(#c)"/><path d="m6 19h4v1h-4z" fill="#bababa"/><path d="m14 19h4v1h-4z" fill="url(#b)"/><g fill="#bababa"><path d="m6 22h4v1h-4z"/><path d="m6 25h4v1h-4z"/><path d="m14 25h4v1h-4z"/><path d="m22 10h4v1h-4z"/><path d="m22 13h4v1h-4z"/><path d="m22 16h4v1h-4z"/><path d="m22 19h4v1h-4z"/></g></g><path d="m4 10v4h7v-4zm8 0v4h8v-4z" fill="url(#f)"/><path d="m12 4h16v4h-16z" fill="url(#d)" stroke-width="1.598021"/><g stroke-width=".636052"><path d="m18.90625 16.021484a.98335675.98335675 0 0 0 -.660156.28711l-1.589844 1.589844a.98335675.98335675 0 0 0 -.257812.451171c.04697-.183378-.04001-.06328-.179688.357422-.06984.210349-.106207.546998-.0059.84961.100388.302611.290609.5295.492187.705078a.98335675.98335675 0 0 0 .462891.224609c.161334.0305.890498.491011 1.740234 1.263672.566391.515017 1.341658 1.183979 2.091797 1.828125v-.578125h6.841797c.354727-.272629.728045-.54119 1.121094-.814453.012053-.062176.03715-.11976.03715-.185547v-2.939453c-1.559036.735869-2.781251 1.4755-4.046875 2.238281-.236364-.227652-.480346-.480861-1.136719-1.191406-.853499-.923941-2.140197-2.208795-4.267578-3.876953a.98335675.98335675 0 0 0 -.642578-.208985zm2.09375 7.69336c-1.914585 1.386886-3.623281 2.565968-4.839844 4.921875a.98335675.98335675 0 0 0 -.105468.363281h3.945312c.554 0 1-.446 1-1z" fill="#fff" fill-opacity=".784314"/><path d="m18.940786 17.003432-1.59013 1.59013c-.07515.29336-.459586.52486 0 .925167 1.238728.234175 2.912176 2.375946 5.291378 4.192161-2.44531 1.861747-4.288584 2.819724-5.609405 5.377531-.05216.717109 1.66818 1.163142 1.850333.925166 1.758752-1.922076 2.260329-2.954213 5.272268-5.087436 1.865061 1.240636 2.865565 3.019361 4.644363 4.798323l.954078 1.272103c-.729192-3.016179-2.153809-5.550261-4.077404-7.473857 1.398474-1.585208 3.435655-2.541906 5.292266-3.97508l-.180408-.204925c-2.519258 1.034536-4.156295 2.034059-6.005664 3.152913-.886935-.541917-1.668428-2.219799-5.841675-5.492196z" fill="url(#g)"/></g></svg>