<svg viewBox="0 0 32 32" xmlns="http://www.w3.org/2000/svg" xmlns:xlink="http://www.w3.org/1999/xlink"><linearGradient id="a" gradientTransform="translate(1.394078)" gradientUnits="userSpaceOnUse" x1="14" x2="13" xlink:href="#c" y1="29" y2="4"/><linearGradient id="b" gradientTransform="matrix(.94146417 0 0 .75688487 2.135967 5.870017)" gradientUnits="userSpaceOnUse" x1="14" x2="13" xlink:href="#c" y1="29" y2="4"/><linearGradient id="c" gradientTransform="translate(-11 -1)" gradientUnits="userSpaceOnUse" x1="14" x2="13.79661" y1="22" y2="2.135593"><stop offset="0" stop-color="#0040dd"/><stop offset="1" stop-color="#0a84ff"/></linearGradient><g fill="url(#a)" stroke-width=".686793"><path d="m3.6190541 30.738223c-.2747172 0-.5585916-.02747-.8516233-.08242-.3113462-.036627-.5585917-.082413-.7417365-.137359l.2472455-1.263694c.1465159.03663.3479751.07326.6043778.109887.2380883.05495.457862.08242.6593213.08242.8974095 0 1.602517-.384604 2.1153224-1.153812.494491-.769209.9431958-2.069537 1.3461143-3.900985l2.8702216-13.39226h-2.4999265l.3626413-1.4230939 2.637285-.5769061.118687-1.0907764c.293032-1.5567308.860781-2.7654865 1.703247-3.626267s2.014593-1.2911708 3.51638-1.2911708c1.172127 0 2.051222.192302 2.637285.5769061.604378.3662896.906567.8516233.906567 1.4560012 0 .6043778-.201459 1.0530825-.604378 1.3461142-.384604.2930317-.943196.4395475-1.675775.4395475 0-.6959502-.09157-1.2911708-.274717-1.7856617-.183145-.5128055-.558592-.7692082-1.126341-.7692082-.677635 0-1.199598.2838744-1.565888.8516233-.366289.5494344-.659321 1.4010577-.879095 2.5548699l-.17363 1.3380219h3.049361l-.5 2h-3.076833l-2.8427497 13.364784c-.3479751 1.629989-.7966799 2.902845-1.3461143 3.818569-.5494344.934039-1.2087557 1.59336-1.9779638 1.977964-.7692082.384604-1.6483032.576906-2.6372851.576906z" fill="url(#a)" stroke-width=".686793"/><path d="m14.06818 24.14501.2845-.873303h.336227q.49141 0 .8535-.103965.387955-.103964.801773-.415858.413819-.311894 1.034546-.914889l3.310546-3.222904-1.681137-3.243697q-.465546-.894096-.801773-1.185197-.310364-.311894-1.060409-.311894h-.336227l.206909-.873303h3.439864l1.965636 4.200172 3.439865-4.200172h3.181228l-.2845.873303h-.336228q-.491409 0-.879364.124758-.387954.124757-.801772.457444-.413819.311894-1.008683.914889l-2.715682 2.807045 1.784592 3.597177q.413818.914889.750045 1.20599.362091.291101 1.112136.291101h.336228l-.206909.873303h-3.465728l-2.094955-4.574444-3.879546 4.574444z" fill="url(#b)" stroke-width=".579753"/></g></svg>