<svg viewBox="0 0 32 32" xmlns="http://www.w3.org/2000/svg"><path d="m7 8v9.685547 8.314453h9.701172 2.597656 9.701172v-8.314453-9.685547z" fill="#fff"/><path d="m6 7v11.257812 8.742188h10.316406 3.367188 10.316406v-8.742188-11.257812zm1 1h22v9.685547 8.314453h-9.701172-2.597656-9.701172v-8.314453z" fill="#98989d"/><path d="m5 5h26v2h-26z" fill="#69696e"/><path d="m8.984375 10a1.50015 1.50015 0 0 0 -1.421875 1.068359l-1.1777344 3.931641h-.3847656v3.257812 7.65625a1.50015 1.50015 0 0 0 .4765625-.27539l2.6367187-2.259766 3.5546878 2.369141a1.50015 1.50015 0 0 0 2.269531-1.679688l-1.220703-4.064453 2.759765-2.365234a1.50015 1.50015 0 0 0 -.976562-2.638672h-3.484375l-1.623047-4.056641a1.50015 1.50015 0 0 0 -1.408203-.943359z" fill="#fff" fill-opacity=".784314"/><path d="m9 11.5-1.5 5h-5l4 3-1 5 3.5-3 4.5 3-1.5-5 3.5-3h-4.5z" fill="#ffe014" stroke="#e4b500" stroke-linecap="round" stroke-linejoin="round"/><g fill="#e4b500" transform="translate(-4 1)"><path d="m14 9 .5 1h15.5v-1z"/><path d="m15 11 .5 1h15.5v-1z"/><path d="m16 13 .5 1h13.5v-1z"/><path d="m20 17 1.5-1h9.5v1z"/><path d="m18 19 1-1h11v1z"/><path d="m18.5 20 .5 1h11v-1z"/><path d="m19.5 22 .5 1h11v-1z"/></g></svg>