<svg viewBox="0 0 32 32" xmlns="http://www.w3.org/2000/svg" xmlns:xlink="http://www.w3.org/1999/xlink"><linearGradient id="a" gradientUnits="userSpaceOnUse" x1="24" x2="24" y1="28" y2="16"><stop offset="0" stop-color="#2a9240"/><stop offset="1" stop-color="#32d74b"/></linearGradient><path d="m5 7v9.685547 8.314453h9.701172 2.597656 9.701172v-8.314453-9.685547z" fill="#fff"/><path d="m4 6v11.257812 8.742188h10.316406 3.367188 10.316406v-8.742188-11.257812zm1 1h22v9.685547 8.314453h-9.701172-2.597656-9.701172v-8.314453z" fill="#98989d"/><path d="m7 10h18v2h-18z" fill="#ff9500"/><path d="m24 16a7 7 0 0 0 -7 7 7 7 0 0 0 .683594 3h10.316406v-8.742188a7 7 0 0 0 -4-1.257812z" fill="#fff" fill-opacity=".784314"/><path d="m24 17a6 6 0 0 0 -6 6 6 6 0 0 0 6 6 6 6 0 0 0 6-6 6 6 0 0 0 -6-6z" fill="url(#a)"/><path d="m25 20 4 3-4 3z" fill="#fff"/><path d="m3 4h26v2h-26z" fill="#69696e"/><path d="m21 20 4 3-4 3z" fill="#fff"/></svg>