<svg viewBox="0 0 32 32" xmlns="http://www.w3.org/2000/svg" xmlns:xlink="http://www.w3.org/1999/xlink"><filter id="a" color-interpolation-filters="sRGB" height="1.094553" width="1.097492" x="-.048746" y="-.047277"><feGaussianBlur stdDeviation=".36559322"/></filter><filter id="b" color-interpolation-filters="sRGB" height="1.152877" width="1.159254" x="-.079627" y="-.076438"><feGaussianBlur stdDeviation=".39813443"/></filter><path d="m5 23.940678h22v2.559322h-22z" filter="url(#a)" opacity=".15" stroke-width="1.015418"/><path d="m24 17a6 6.2502904 0 0 0 -6 6.25029 6 6.2502904 0 0 0 6 6.25029 6 6.2502904 0 0 0 6-6.25029 6 6.2502904 0 0 0 -6-6.25029z" filter="url(#b)" opacity=".15" stroke-width="1.020644"/><path d="m5 7v9.685547 8.314453h9.701172 2.597656 9.701172v-8.314453-9.685547z" fill="#fff"/><path d="m4 6v11.257812 8.742188h10.316406 3.367188 10.316406v-8.742188-11.257812zm1 1h22v9.685547 8.314453h-9.701172-2.597656-9.701172v-8.314453z" fill="#98989d"/><path d="m3 4h26v2h-26z" fill="#69696e"/><path d="m7 10h18v2h-18z" fill="#ff9500"/><path d="m24 16a7 7 0 0 0 -7 7 7 7 0 0 0 .683594 3h10.316406v-8.742188a7 7 0 0 0 -4-1.257812z" fill="#fff" fill-opacity=".784314"/><g fill="#98989d" transform="translate(0 -1)"><path d="m7 15h1v1h-1z"/><path d="m7 18h1v1h-1z"/><path d="m7 21h1v1h-1z"/><path d="m9 15h12v1h-12z"/><path d="m9 21h5v1h-5z"/><path d="m9 18h6v1h-6z"/></g><path d="m24 17a6 6 0 0 0 -6 6 6 6 0 0 0 6 6 6 6 0 0 0 6-6 6 6 0 0 0 -6-6zm0 1a5 5 0 0 1 5 5 5 5 0 0 1 -5 5 5 5 0 0 1 -5-5 5 5 0 0 1 5-5z" fill="#98989d"/><circle cx="24" cy="23" fill="#fff" r="5"/><path d="m23 19v5h1 3v-1h-3v-4z" fill="#98989d"/></svg>