<svg viewBox="0 0 32 32" xmlns="http://www.w3.org/2000/svg" xmlns:xlink="http://www.w3.org/1999/xlink"><linearGradient id="a" gradientUnits="userSpaceOnUse" x1="15" x2="15" y1="4" y2="28"><stop offset="0" stop-color="#efefef"/><stop offset=".08333334" stop-color="#fff"/><stop offset=".8888889" stop-color="#fff"/><stop offset="1" stop-color="#f5f5f5"/></linearGradient><filter id="b" color-interpolation-filters="sRGB" height="1.116265" width="1.123983" x="-.061992" y="-.058132"><feGaussianBlur stdDeviation=".61991525"/></filter><path d="m4 27.09322 23-.09322v2.5l-23 .09322z" filter="url(#b)" opacity=".15" stroke-width="1.032659"/><path d="m4 4c-.554 0-1 .446-1 1v4 19c0 .554.446 1 1 1h23c.554 0 1-.446 1-1v-19-4c0-.554-.446-1-1-1zm0 1h23v4 4 1 4 1 4 1 4h-5-1-5-1-5-1-5v-4-1-4-1-4-1-4-1z" fill="#69696e"/><path d="m4 5h23v23h-23z" fill="url(#a)"/><path d="m9 5v5h-5v1h5v5h-5v1h5v5h-5v1h5v5h1v-5h5v5h1v-5h5v5h1v-5h5v-1h-5v-5h5v-1h-5v-5h5v-1h-5v-5h-1v5h-5v-5h-1v5h-5v-5zm1 6h5v5h-5zm6 0h5v5h-5zm-6 6h5v5h-5zm6 0h5v5h-5z" fill="#bababa"/><path d="m10 28v-23h5v23z" fill="#409cff" stroke-width=".408248"/><path d="m9 28c0 .554.446 1 1 1h5c.554 0 1-.446 1-1v-23c0-.554-.446-1-1-1h-5c-.554 0-1 .446-1 1zm1 0v-5h5v5zm0-6v-5h5v5zm0-6v-5h5v5zm0-6v-5h5v5z" fill="#0070f5"/></svg>