<svg height="32" viewBox="0 0 8.4666664 8.4666669" width="32" xmlns="http://www.w3.org/2000/svg"><path d="m.79375.79375h.79375v.793757h-.79375z" fill="#ff3b30"/><path d="m1.5875 1.58751h1.322917v1.322917h-1.322917z" fill="#fc0"/><path d="m2.910417 1.58751h1.322917v1.322917h-1.322917z" fill="#0070f5"/><path d="m4.233334 1.58751h1.322917v1.322917h-1.322917z" fill="#007aff"/><path d="m5.556251 1.58751h1.322917v1.322917h-1.322917z" fill="#fc0"/><path d="m.79375 1.58751h.79375v1.322917h-.79375z" fill="#007aff"/><path d="m6.879167 1.58751h.79375v1.322917h-.79375z" fill="#28cd41"/><path d="m1.5875 2.91042h1.322917v1.322917h-1.322917z" fill="#007aff"/><path d="m2.910417 2.91042h1.322917v1.322917h-1.322917z" fill="#ff3b30"/><path d="m4.233334 2.91042h1.322917v1.322917h-1.322917z" fill="#fff"/><path d="m5.556251 2.91042h1.322917v1.322917h-1.322917z" fill="#ff3b30"/><path d="m.79375 2.91042h.79375v1.322917h-.79375z" fill="#fff"/><path d="m6.879167 2.91042h.79375v1.322917h-.79375z" fill="#007aff"/><path d="m1.5875 4.23332h1.322917v1.322917h-1.322917z" fill="#fff"/><path d="m2.910417 4.23332h1.322917v1.322917h-1.322917z" fill="#28cd41"/><path d="m4.233334 4.23332h1.322917v1.322917h-1.322917z" fill="#fc0"/><path d="m5.556251 4.23332h1.322917v1.322917h-1.322917z" fill="#fff"/><path d="m.79375 4.23332h.79375v1.322917h-.79375z" fill="#28cd41"/><path d="m6.879167 4.23332h.79375v1.322917h-.79375z" fill="#28cd41"/><path d="m1.5875 5.55626h1.322917v1.322917h-1.322917z" fill="#fc0"/><path d="m2.910417 5.55626h1.322917v1.322917h-1.322917z" fill="#007aff"/><path d="m4.233334 5.55626h1.322917v1.322917h-1.322917z" fill="#ff3b30"/><path d="m5.556251 5.55626h1.322917v1.322917h-1.322917z" fill="#007aff"/><path d="m.79375 5.55626h.79375v1.322917h-.79375z" fill="#007aff"/><path d="m6.879167 5.55626h.79375v1.322917h-.79375z" fill="#28cd41"/><path d="m1.5875 6.87917h1.322917v.793757h-1.322917z" fill="#ff3b30"/><path d="m2.910418 6.87917h1.322917v.793757h-1.322917z" fill="#fff"/><path d="m4.233334 6.87917h1.322917v.793757h-1.322917z" fill="#007aff"/><path d="m5.556251 6.87917h1.322917v.793757h-1.322917z" fill="#fc0"/><path d="m.79375 6.87917h.79375v.793757h-.79375z" fill="#fff"/><path d="m6.879167 6.87917h.79375v.793757h-.79375z" fill="#28cd41"/><path d="m1.5875.79375h1.322917v.793757h-1.322917z" fill="#28cd41"/><path d="m2.910417.79375h1.322917v.793757h-1.322917z" fill="#0070f5"/><path d="m4.233333.79375h1.322917v.793757h-1.322917z" fill="#28cd41"/><path d="m5.55625.79375h1.322917v.793757h-1.322917z" fill="#fff"/><path d="m6.879166.79375h.79375v.793757h-.79375z" fill="#007aff"/></svg>