<svg viewBox="0 0 32 32" xmlns="http://www.w3.org/2000/svg" xmlns:xlink="http://www.w3.org/1999/xlink"><filter id="a" color-interpolation-filters="sRGB" height="1.094553" width="1.097492" x="-.048746" y="-.047277"><feGaussianBlur stdDeviation=".36559322"/></filter><path d="m5 27.940678h22v2.559322h-22z" filter="url(#a)" opacity=".15" stroke-width="1.015418"/><path d="m5 2c-.554 0-1 .446-1 1v26c0 .554.446 1 1 1h22c.554 0 1-.446 1-1v-26c0-.554-.446-1-1-1zm0 1h22v26h-22z" fill="#98989d"/><path d="m5 3v26h22v-26z" fill="#fff"/><g fill="#69696e"><rect height="1" ry=".5" width="7" x="7" y="10"/><rect height="1" ry=".5" width="8" x="17" y="10"/><rect height="1" ry=".5" width="7" x="7" y="14"/><rect height="1" ry=".5" width="8" x="17" y="14"/><rect height="1" ry=".5" width="7" x="7" y="18"/><rect height="1" ry=".5" width="8" x="17" y="18"/><rect height="1" ry=".5" width="7" x="7" y="22"/><rect height="1" ry=".5" width="8" x="17" y="22"/><rect height="1" ry=".5" width="8" x="17" y="26"/><rect fill="#69696e" height="1" ry=".452061" width="7" x="7" y="6"/></g><path d="m15.5 6c-.277 0-.5.223-.5.5v19.5h-3.601562c-.220661 0-.398438.177776-.398438.398438v.203124c0 .220662.177777.398438.398438.398438h4.101562.101562c.220662 0 .398438-.177776.398438-.398438v-.101562-.101562-19.398438h3.5c.277 0 .5-.223.5-.5s-.223-.5-.5-.5z" fill="#d70015"/></svg>