<svg viewBox="0 0 32 32" xmlns="http://www.w3.org/2000/svg" xmlns:xlink="http://www.w3.org/1999/xlink"><linearGradient id="a" gradientUnits="userSpaceOnUse" x1="-32.40678" x2="-32.281464" y1="20.747716" y2="-4.224351"><stop offset="0" stop-color="#0040dd"/><stop offset="1" stop-color="#0a84ff"/></linearGradient><linearGradient id="b" gradientUnits="userSpaceOnUse" x1="16" x2="15.908203" y1="28" y2="4"><stop offset="0" stop-color="#e5eefc"/><stop offset="1" stop-color="#fcfdff"/></linearGradient><path d="m16 4a12 12 0 0 0 -1.048828.0527344c-.196872.0170848-.38995.0457887-.583984.0722656a12 12 0 0 0 -.580079.0878906c-.230485.0430327-.455995.0982899-.68164.1542969a12 12 0 0 0 -.445313.1132813c-.257723.0746194-.509501.1627864-.759765.2539062a12 12 0 0 0 -.351563.1289062c-.23772.0950972-.469286.2009639-.699219.3105469a12 12 0 0 0 -.410156.1972657c-.209078.1095887-.409738.2302322-.611328.3515624a12 12 0 0 0 -.40625.2460938c-.1931047.1269001-.3773762.2648133-.5625.4023438a12 12 0 0 0 -.3984375.2988281c-.1644779.1330764-.3194283.2765414-.4765625.4179687a12 12 0 0 0 -.4121094.3769532c-.1515018.149605-.2921397.3093585-.4355468.4667968a12 12 0 0 0 -.3496094.3847656c-.1823966.2184501-.3508336.448477-.5175782.6796876a12 12 0 0 0 -.1875.25c-.2011204.2947323-.3858122.5993253-.5605468.9121092a12 12 0 0 0 -.0546875.09375c-.5660661 1.035296-.9853042 2.163509-1.2265625 3.355469a12 12 0 0 0 -.0449219.292969c-.0525257.297027-.1045216.594296-.1347656.898437a12 12 0 0 0 0 .003906c-.0390557.394037-.0605469.792954-.0605469 1.197266a12 12 0 0 0 .0351562.890625c.0258813.345189.0681555.687311.1230469 1.025391a12 12 0 0 0 .0722657.375c.0457252.234044.0969827.465645.15625.695312a12 12 0 0 0 .1054687.386719c.0817028.27783.1723258.552297.2734375.822265a12 12 0 0 0 .0625.179688c.0012775.003253.002626.006514.0039062.009766.1198082.304303.2546872.600005.3984376.892578a12 12 0 0 0 .2363281.447265c.0872089.160096.1771544.318758.2714843.47461a12 12 0 0 0 .28125.449219c.0958721.143712.1987914.282408.3007813.421874a12 12 0 0 0 .6210937.777344c.0907113.104626.1790628.210971.2734376.3125a12 12 0 0 0 .4316406.4375c.104363.101341.2121297.199224.3203125.296875a12 12 0 0 0 .4433593.390625c.1017597.083124.2097618.158367.3144532.238282a12 12 0 0 0 .9726562.669921c.0950106.058668.1882421.119626.2851563.175782a12 12 0 0 0 .5976561.324218c.097747.049466.197434.095633.296875.142579a12 12 0 0 0 .654297.291015 12 12 0 0 0 4.46875.873047 12 12 0 0 0 10.890625-6.992188 12 12 0 0 0 .478516-1.201171 12 12 0 0 0 .335937-1.201172 12 12 0 0 0 .011719-.041016c.000856-.003863.001101-.007854.001953-.011719a12 12 0 0 0 .185547-1.117187c.007012-.056868.019192-.112939.025391-.169922a12 12 0 0 0 .070312-1.265625 12 12 0 0 0 -.052734-1.048828c-.017085-.196872-.045789-.38995-.072266-.583984a12 12 0 0 0 -.087891-.580079c-.043032-.230485-.09829-.455995-.154297-.68164a12 12 0 0 0 -.113281-.445313c-.074619-.257723-.162786-.509501-.253906-.759765a12 12 0 0 0 -.128906-.351563c-.095097-.23772-.200964-.469286-.310547-.699219a12 12 0 0 0 -.197266-.410156c-.109588-.209078-.230232-.409738-.351562-.611328a12 12 0 0 0 -.246094-.40625c-.1269-.1931047-.264813-.3773762-.402344-.5625a12 12 0 0 0 -.298828-.3984375c-.133076-.1644779-.276541-.3194283-.417969-.4765625a12 12 0 0 0 -.376953-.4121094c-.149605-.1515018-.309358-.2921397-.466797-.4355468a12 12 0 0 0 -.384765-.3496094c-.21845-.1823966-.448477-.3508336-.679688-.5175782a12 12 0 0 0 -.25-.1875c-.294732-.2011204-.599325-.3858122-.912109-.5605468-.029937-.0167239-.057797-.0362603-.087891-.0527344a12 12 0 0 0 -.005859-.0019531c-1.035296-.5660661-2.163509-.9853042-3.355469-1.2265625-.0026-.0005264-.005211-.0014285-.007812-.0019532a12 12 0 0 0 -.285157-.0429687c-.297027-.0525257-.594296-.1045216-.898437-.1347656-.001282-.0001275-.002624.0001271-.003906 0a12 12 0 0 0 -1.197266-.0605469z" fill="url(#b)"/><path d="m16 3a13 13 0 0 0 -13 13 13 13 0 0 0 .0507812 1h-.0078124a13 13 0 0 0 12.9570312 12 13 13 0 0 0 12.951172-12h-.003906a13 13 0 0 0 .052734-1 13 13 0 0 0 -13-13zm-.091797 1a12 12 0 0 1 .091797 0 12 12 0 0 1 1.501953.1074219l.037109.0859375c.784242 1.8626893 1.378543 3.7304812 1.791016 5.6035156-2.172553.219457-4.38956.221895-6.654297-.0078125.41242-1.8704072 1.005916-3.7356099 1.789063-5.5957031l.037109-.0878906a12 12 0 0 1 1.40625-.1054688zm-2.5625.3105469c-.719534 1.7842001-1.27983 3.5773151-1.667969 5.3789062-1.6809039-.2212684-3.3877689-.5684104-5.1269528-1.0625a12 12 0 0 1 6.7949218-4.3164062zm5.314453 0a12 12 0 0 1 6.800782 4.3144531c-1.686524.4829706-3.398748.8305421-5.134766 1.0585938-.387884-1.7994272-.947384-3.5909708-1.666016-5.3730469zm7.421875 5.1835937a12 12 0 0 1 1.917969 6.5058594h-6.998047c.002733-1.784183-.16513-3.559982-.486328-5.330078 1.885648-.25052 3.743151-.635469 5.566406-1.1757814zm-20.1542966.0039063c1.8846825.5543031 3.7368029.9354501 5.5605466 1.1777341-.320669 1.768173-.488842 3.541991-.486328 5.324219h-7.001953a12 12 0 0 1 1.9277344-6.5019531zm6.5527346 1.2812501c2.39842.248781 4.745799.246098 7.044922.007812.319998 1.732211.48893 3.468593.486328 5.212891h-8.017578c-.002606-1.746953.165354-3.485872.486328-5.220703zm-8.4277346 6.220703h6.9707036c.049365 1.446235.204182 2.886929.464843 4.324219-1.8237438.242284-3.6758641.623431-5.5605466 1.177734a12 12 0 0 1 -1.875-5.501953zm7.9628906 0h.001953 7.970703.001953c-.050369 1.408229-.206069 2.812097-.464843 4.212891-2.299123-.238298-4.646502-.240969-7.044922.007812-.259655-1.403407-.414749-2.809856-.464844-4.220703zm8.964844 0h6.96875.003906a12 12 0 0 1 -1.871094 5.505859c-1.823255-.540312-3.680758-.925261-5.566406-1.175781.261091-1.438853.415647-2.882248.464844-4.330078zm-4.94336 5.039062c1.108913-.000669 2.206693.054335 3.292969.164063-.412473 1.873034-1.006774 3.740826-1.791016 5.603516l-.037109.085937a12 12 0 0 1 -1.501953.107422 12 12 0 0 1 -.091797 0 12 12 0 0 1 -1.40625-.105469l-.037109-.08789c-.783147-1.860094-1.376643-3.725296-1.789063-5.595703 1.132369-.114848 2.252415-.171204 3.361328-.171876zm-4.359375.271485c.388139 1.801591.948435 3.594706 1.667969 5.378906a12 12 0 0 1 -6.7949218-4.316406c1.739184-.49409 3.4460489-.841232 5.1269528-1.0625zm8.648438.005859c1.736018.228052 3.448242.575623 5.134766 1.058594a12 12 0 0 1 -6.800782 4.314453c.718632-1.782076 1.278132-3.57362 1.666016-5.373047z" fill="url(#a)"/><path d="m16 3a13 13 0 0 0 -1.095703.0546875 13 13 0 0 1 1.095703-.0546875zm1.095703.0546875a13 13 0 0 1 .669922.0820313 13 13 0 0 0 -.669922-.0820313zm-2.861328.0820313a13 13 0 0 0 -.630859.09375 13 13 0 0 1 .630859-.09375zm4.162109.09375a13 13 0 0 1 .650391.1464843 13 13 0 0 0 -.650391-.1464843zm-5.443359.1464843a13 13 0 0 0 -.59375.1523438 13 13 0 0 1 .59375-.1523438zm6.6875.1523438a13 13 0 0 1 .650391.2148437 13 13 0 0 0 -.650391-.2148437zm-7.931641.2148437a13 13 0 0 0 -.591796.2148438 13 13 0 0 1 .591796-.2148438zm9.173828.2148438a13 13 0 0 1 .595704.2675781 13 13 0 0 0 -.595704-.2675781zm-4.974609.0410156a12 12 0 0 0 -.505859.03125c.199399-.0098505.395812-.03125.597656-.03125a12 12 0 0 0 -.091797 0zm-5.386719.2265625a13 13 0 0 0 -.5859371.2851563 13 13 0 0 1 .5859371-.2851563zm11.542969.2851563a13 13 0 0 1 .541016.3085937 13 13 0 0 0 -.541016-.3085937zm-12.6699218.3085937a13 13 0 0 0 -.5820312.3574219 13 13 0 0 1 .5820312-.3574219zm13.7929688.3574219a13 13 0 0 1 .509766.3652344 13 13 0 0 0 -.509766-.3652344zm-14.8847656.3652344a13 13 0 0 0 -.5214844.3945312 13 13 0 0 1 .5214844-.3945312zm15.9160156.3945312a13 13 0 0 1 .501953.4414062 13 13 0 0 0 -.501953-.4414062zm-16.9394531.4414062a13 13 0 0 0 -.4667969.4335938 13 13 0 0 1 .4667969-.4335938zm17.9082031.4335938a13 13 0 0 1 .433594.4667969 13 13 0 0 0 -.433594-.4667969zm-18.8085938.4667969a13 13 0 0 0 -.4414062.5019531 13 13 0 0 1 .4414062-.5019531zm19.6835938.5019531a13 13 0 0 1 .394531.5214844 13 13 0 0 0 -.394531-.5214844zm-20.5195312.5214844a13 13 0 0 0 -.3652344.5097656 13 13 0 0 1 .3652344-.5097656zm19.8496092.2421875c.02113.0265847.039638.0552638.060547.0820312.002584-.0007394.005228-.0012131.007813-.0019531a12 12 0 0 0 -.06836-.0800781zm1.429688.2675781a13 13 0 0 1 .357422.5820312 13 13 0 0 0 -.357422-.5820312zm-22.0019535.5820312a13 13 0 0 0 -.3085937.5410157 13 13 0 0 1 .3085937-.5410157zm21.2617185.0996094c-.001974.0005851-.003885.0013683-.005859.0019532.054122.0836679.102218.1707757.154297.2558593a12 12 0 0 0 -.148438-.2578125zm1.40625.4414063a13 13 0 0 1 .285157.5859371 13 13 0 0 0 -.285157-.5859371zm-23.2617185.5859371a13 13 0 0 0 -.2675781.595704 13 13 0 0 1 .2675781-.595704zm23.8144535.595704a13 13 0 0 1 .214843.591796 13 13 0 0 0 -.214843-.591796zm-24.2968754.591796a13 13 0 0 0 -.2148437.650391 13 13 0 0 1 .2148437-.650391zm24.7265624.650391a13 13 0 0 1 .152344.59375 13 13 0 0 0 -.152344-.59375zm-25.0937499.59375a13 13 0 0 0 -.1464843.650391 13 13 0 0 1 .1464843-.650391zm25.3925779.650391a13 13 0 0 1 .09375.630859 13 13 0 0 0 -.09375-.630859zm-25.6328122.630859a13 13 0 0 0 -.0820313.669922 13 13 0 0 1 .0820313-.669922zm25.8085932.669922a13 13 0 0 1 .054688 1.095703 13 13 0 0 0 -.054688-1.095703zm.054688 1.095703a13 13 0 0 1 -1.029297 5.039062c-.134132-.015534-.268703-.031248-.40625-.03125h-.673828-.019531-2.435547c-.02982.000001-.20442-.036621-.523438.011719-.778576.118002-1.470811.495393-1.992187 1.041016-.004148.00434-.007594.00931-.011719.013672-.119669.126539-.228381.262691-.328125.40625-.006899.009916-.014684.019304-.021484.029297-.101137.148854-.191638.30608-.269532.470703 0 0-.001953.001953-.001953.001953-.014715.031162-.033051.060122-.046875.091797-.205107.678849-.215199 1.274452-.392578.220703v-.001953c-.051723-.144366-.117985-.280122-.1875-.414063-.062666-.120745-.135029-.234616-.210937-.345703-.012194-.01789-.022638-.037051-.035157-.054687-.073816-.103682-.153754-.202553-.238281-.296875-.021125-.023681-.042696-.04724-.064453-.070313-.091534-.096595-.189021-.188004-.291016-.273437-.002812-.002365-.004992-.005457-.007812-.007813-.003607-.003002-.0081-.004825-.011719-.007812-.112131-.092565-.228443-.179467-.351562-.257813-.549843-.349887-1.196622-.55664-1.884766-.556641h-3.128906c-.02982.000001-.20442-.036621-.523438.011719-.495327.075073-.952815.258785-1.357421.519531-.128054.082524-.249536.173371-.365235.271485-.114297.096925-.223299.201648-.324219.3125-.002815.003092-.005008.006663-.007812.009765-.100189.110849-.193735.226234-.279297.34961-.086903.125311-.165866.257615-.236328.394531-.033846.065768-.071805.129082-.101563.197266-.11599.265669-.175923.511862-.220703.730469-.127363.620552.346981 1.201671.980469 1.201171.156439 0 .27163.007138.412109.009766-.001018-.003305-.00289-.006461-.003906-.009766h1.041016c.006717.021316.014717.043133.021484.064453 1.742421.172944 1.264292.685026.402344 1.142579.094087.263097.17388.525807.275391.789062h-1.046876c-.045904-.122427-.081903-.244783-.126953-.367187-.526059.214709-.974609.366644-.974609.367187-.17277.000131-.328753.0494-.46875.125-.313214.168917-.52514.492989-.529297.861328a13 13 0 0 1 -.8125-.375 13 13 0 0 0 5.810547 1.386719 13 13 0 0 0 13-13zm-26 0a13 13 0 0 0 .0566406 1.119141 13 13 0 0 1 -.0566406-1.119141zm24.943359 1c-.001793.020752-.000052.041761-.001953.0625a12 12 0 0 0 .007813-.0625zm-24.8144528.703125a13 13 0 0 0 .109375.71875 13 13 0 0 1 -.109375-.71875zm.2285157 1.255859a13 13 0 0 0 .1875.730469 13 13 0 0 1 -.1875-.730469zm.3417969 1.197266a13 13 0 0 0 .2949218.802734 13 13 0 0 1 -.2949218-.802734zm.4433593 1.132812a13 13 0 0 0 .4121094.851563 13 13 0 0 1 -.4121094-.851563zm.578125 1.140626a13 13 0 0 0 .5078125.828124 13 13 0 0 1 -.5078125-.828124zm.6894531 1.083984a13 13 0 0 0 .6054688.792969 13 13 0 0 1 -.6054688-.792969zm.7832032.99414a13 13 0 0 0 .7070312.759766 13 13 0 0 1 -.7070312-.759766zm.8789062.921876a13 13 0 0 0 .8300782.722656 13 13 0 0 1 -.8300782-.722656zm.9335938.802734a13 13 0 0 0 .9316406.666016 13 13 0 0 1 -.9316406-.666016zm1.09375.765625a13 13 0 0 0 .9980466.570312 13 13 0 0 1 -.9980466-.570312z" fill="#fff" fill-opacity=".784314"/><path d="m14.0625 22.007812c-.853771.129398-1.568743.693462-1.90625 1.466797-.070974.162553-.118224.345601-.15625.53125h8c-.02609-.124991-.05356-.262605-.09375-.375-.346295-.966556-1.267855-1.623047-2.341797-1.623047h-3.128906c-.126904 0-.251091-.01848-.373047 0zm10 0c-.853771.129398-1.568743.693462-1.90625 1.466797-.070974.162553-.118224.345601-.15625.53125h8c-.02609-.124991-.05356-.262605-.09375-.375-.346295-.966556-1.267855-1.623047-2.341797-1.623047h-3.128906c-.126904 0-.251091-.01848-.373047 0zm-6.074219 2.992188c-.547689 0-.988281.440592-.988281.988281v.023438c0 .547689.440592.988281.988281.988281h6.023438c.547689 0 .988281-.440592.988281-.988281v-.023438c0-.547689-.440592-.988281-.988281-.988281zm-5.988281 3.001953c.235196 1.130787 1.238489 1.998047 2.435547 1.998047h3.128906c1.197048 0 2.200361-.86726 2.435547-1.998047zm10 0c.235196 1.130787 1.238489 1.998047 2.435547 1.998047h3.128906c1.197048 0 2.200361-.86726 2.435547-1.998047z" fill="#69696e"/></svg>