<svg viewBox="0 0 32 32" xmlns="http://www.w3.org/2000/svg" xmlns:xlink="http://www.w3.org/1999/xlink"><filter id="a" color-interpolation-filters="sRGB" height="1.094553" width="1.097492" x="-.048746" y="-.047277"><feGaussianBlur stdDeviation=".36559322"/></filter><linearGradient id="b" gradientUnits="userSpaceOnUse" x1="14.056603" x2="13" y1="19" y2="11"><stop offset="0" stop-color="#0040dd"/><stop offset="1" stop-color="#0a84ff"/></linearGradient><radialGradient id="c" cx="22" cy="9.076923" gradientTransform="matrix(1.3 .00000001 -.00000002 1.5 -6.6 -6.615385)" gradientUnits="userSpaceOnUse" r="10"><stop offset="0" stop-color="#d7d7d7"/><stop offset=".29999998" stop-color="#f7f7f7"/><stop offset="1" stop-color="#fff"/></radialGradient><linearGradient id="d" gradientUnits="userSpaceOnUse" x1="20" x2="23" y1="9" y2="6"><stop offset="0" stop-color="#fff"/><stop offset=".77967989" stop-color="#f1f1f1"/><stop offset="1" stop-color="#d5d5d5"/></linearGradient><path d="m6 27.940678h20v2.559322h-20z" filter="url(#a)" opacity=".15" stroke-width="1.015418"/><path d="m6 3v26h19.99762l.00238-19-7-7z" fill="url(#c)"/><path d="m5.9976202 2c-.554 0-1 .446-1 1v26c0 .554.446 1 1 1h19.9999998c.554 0 .892483-.456533 1-1v-10.109375-10.5052752l-6.508082-6.3853498zm0 1h12.9999998v6c0 .6726441.491378 1 1 1h6v19h-19.9999998z" fill="#98989d"/><path d="m20 9h6l-6-6z" fill="url(#d)" fill-rule="evenodd"/><path d="m15.005859 16c-.613327 0-1.218472.165576-1.740234.480469-.506471.301556-.935302.727333-1.269531 1.236328-.33499.505476-.576692 1.083854-.744141 1.722656-.169854.643462-.251953 1.333748-.251953 2.064453 0 .735345.081661 1.427877.251953 2.072266.168133.636242.411325 1.212644.746094 1.716797.334369.503551.760366.929035 1.265625 1.234375a1.0001172 1.0001172 0 0 0 .007812.005859c.522747.30959 1.125415.466797 1.734375.466797.611061 0 1.215414-.157466 1.736329-.46875a1.0001172 1.0001172 0 0 0 .003906-.003906c.501723-.303204.922784-.727003 1.253906-1.228516v.701172a1.0001172 1.0001172 0 0 0 1 1h4a1.0001172 1.0001172 0 0 0 .5-.134766 1.0001172 1.0001172 0 0 0 .5.134766h3v-3h-.810547v-1h.810547v-3h-.810547v-1h.810547v-3h-3a1.0001172 1.0001172 0 0 0 -1 1v7h-1.943359v-7a1.0001172 1.0001172 0 0 0 -1-1h-1.056641a1.0001172 1.0001172 0 0 0 -1 1v.707031c-.330535-.504714-.754492-.92804-1.255859-1.226562-.519087-.315129-1.124353-.480469-1.738282-.480469zm0 3.052734c.149759 0 .22552.025944.320313.085938a1.0001172 1.0001172 0 0 0 .015625.009766c.103688.062982.206027.157734.314453.339843a1.0001172 1.0001172 0 0 0 .007812.011719c.109169.177334.214.436127.291016.78125a1.0001172 1.0001172 0 0 0 .001953.007812c.077773.333387.123047.740195.123047 1.214844 0 .474645-.044586.882773-.123047 1.222656a1.0001172 1.0001172 0 0 0 0 .003907c-.07693.341144-.183622.602306-.296875.789062-.107178.177327-.209263.271623-.318359.337891a1.0001172 1.0001172 0 0 0 -.003906.003906c-.096827.059579-.179346.085938-.332032.085938-.152681 0-.240176-.028119-.341797-.089844-.105361-.0656-.209079-.162446-.318359-.337891l-.001953-.001953c-.113943-.18839-.219526-.448923-.298828-.785156v-.003906c-.075667-.340458-.119141-.748284-.119141-1.22461 0-.476314.042171-.882739.117188-1.216797.079844-.345868.187461-.606201.298828-.787109a1.0001172 1.0001172 0 0 0 .003906-.005859c.113586-.187307.219447-.286344.322266-.34961a1.0001172 1.0001172 0 0 0 .005859-.003906c.099526-.062182.182277-.087891.332031-.087891z" fill="#fff" fill-opacity=".784314"/><g fill="url(#b)" transform="translate(6 6)"><path d="m12 15.503351q0 .991808-.217823 1.816083-.21287.824274-.60891 1.420699-.391089.596427-.945544.931497-.5495054.32837-1.2227726.32837-.6683169 0-1.2227723-.32837-.5544553-.33507-.9504949-.931497-.3960396-.596425-.6138614-1.420699-.2178218-.824275-.2178218-1.816083 0-.985109.2178218-1.809383.2178218-.830975.6138614-1.427401.3960396-.603127.9504949-.931497.5544554-.33507 1.2227723-.33507.6732672 0 1.2227726.33507.554455.32837.945544.931497.39604.596426.60891 1.427401.217823.824274.217823 1.809383zm-.920792 0q0-.804171-.148516-1.440805-.143563-.643335-.415841-1.085629-.267327-.448995-.6534651-.683545-.3811881-.24125-.8564355-.24125-.4752477 0-.8613862.24125-.3811882.23455-.6534653.683545-.2722772.442294-.4207921 1.085629-.1435643.636634-.1435643 1.440805 0 .804169.1435643 1.447505.1485149.636635.4207921 1.085629.2722771.442294.6534653.676843.3861385.23455.8613862.23455.4752474 0 .8564355-.23455.3861381-.234549.6534651-.676843.272278-.448994.415841-1.085629.148516-.643336.148516-1.447505z"/><path d="m14.056603 19h2.943397v1h-4v-9h1.056603z"/><path d="m22.999979 11v1h-3.810153v3h2.810174v1h-2.810174l.000472 3h3.813405l-.0069 1h-4.996803v-9h5.00002z"/></g></svg>