<svg viewBox="0 0 32 32" xmlns="http://www.w3.org/2000/svg" xmlns:xlink="http://www.w3.org/1999/xlink"><radialGradient id="a" cx="22" cy="9.076923" gradientTransform="matrix(1.3 .00000001 -.00000002 1.5 -6.6 -6.615385)" gradientUnits="userSpaceOnUse" r="10"><stop offset="0" stop-color="#d7d7d7"/><stop offset=".29999998" stop-color="#f7f7f7"/><stop offset="1" stop-color="#fff"/></radialGradient><linearGradient id="b" gradientUnits="userSpaceOnUse" x1="20" x2="23" y1="9" y2="6"><stop offset="0" stop-color="#fff"/><stop offset=".77967989" stop-color="#f1f1f1"/><stop offset="1" stop-color="#d5d5d5"/></linearGradient><path d="m6 3v26h19.99762l.0024-19-7-7z" fill="url(#a)"/><path d="m5.9976202 2c-.554 0-1 .446-1 1v26c0 .554.446 1 1 1h19.9999998c.554 0 .892483-.456533 1-1v-10.109375-10.5052752l-6.508082-6.3853498zm0 1h12.9999998v6c0 .6726441.491378 1 1 1h6v19h-19.9999998z" fill="#98989d"/><path d="m20 9h6l-6-6z" fill="url(#b)" fill-rule="evenodd"/><rect fill="#98989d" height="1" ry=".410114" width="10" x="8" y="18"/><g fill="#ffd60a"><rect height="1" ry=".416106" width="9" x="8" y="10"/><rect height="1" ry=".410114" width="6" x="8" y="14"/><rect height="1" ry=".5" width="16" x="8" y="22"/><rect height="1" ry=".410114" width="4" x="20" y="18"/><rect height="1" ry=".410114" width="9" x="15" y="26"/><rect height="1" ry=".410114" width="5" x="8" y="26"/></g><rect fill="#98989d" height="1" ry=".410114" width="8" x="16" y="14"/></svg>