<svg height="32" viewBox="0 0 32 32" width="32" xmlns="http://www.w3.org/2000/svg" xmlns:xlink="http://www.w3.org/1999/xlink"><linearGradient id="a" gradientUnits="userSpaceOnUse" x1="18" x2="18" y1="23" y2="3"><stop offset="0" stop-color="#0040dd"/><stop offset="1" stop-color="#0a84ff"/></linearGradient><path d="m13 3c-.554 0-1 .446-1 1v5h-8c-.554 0-1 .446-1 1v18c0 .554.446 1 1 1h15c.554 0 1-.446 1-1v-5h8c.554 0 1-.446 1-1v-18c0-.554-.446-1-1-1zm0 1h9 6v18h-6-2-1v1 5h-15v-18h8 1v-1z" fill="url(#a)"/><path d="m13 4v5 1h-1-8v18h15v-5-1h1 2 6v-18h-6z" fill="#fff"/><path d="m13 9v1h2v-1zm0 1h-1v2h1zm3-1v1h2v-1zm3 0v1h1c0-.554-.446-1-1-1zm0 2v2h1v-2zm-7 2v2h1v-2zm7 1v2h1v-2zm-7 2v2h1v-2zm7 1v2h1v-2zm-7 2v2h1v-2zm7 1v2h1v-2zm0 2h-2v1h2zm-7 0c0 .554.446 1 1 1v-1zm2 0v1h2v-1z" fill="#98989d"/></svg>