<svg viewBox="0 0 32 32" xmlns="http://www.w3.org/2000/svg" xmlns:xlink="http://www.w3.org/1999/xlink"><linearGradient id="a" gradientTransform="matrix(1.144165 0 -.33161489 1.2857364 -5.634875 9.189442)" gradientUnits="userSpaceOnUse" x1="23.664351" x2="23.453386" xlink:href="#b" y1="11.509012" y2="6.655582"/><linearGradient id="b" gradientTransform="translate(-11 -1)" gradientUnits="userSpaceOnUse" x1="14" x2="13.79661" y1="22" y2="2.135593"><stop offset="0" stop-color="#0040dd"/><stop offset="1" stop-color="#0a84ff"/></linearGradient><linearGradient id="c" gradientTransform="matrix(1.2751211 0 -.36957006 1.9086664 -8.144111 2.061002)" gradientUnits="userSpaceOnUse" x1="19.43474" x2="19.986498" xlink:href="#b" y1="11.4876" y2="4.948761"/><linearGradient id="d" gradientUnits="userSpaceOnUse" x1="13" x2="13" y1="6" y2="28"><stop offset="0" stop-color="#fff"/><stop offset="0" stop-color="#fff" stop-opacity=".055147"/><stop offset="1" stop-color="#fff" stop-opacity=".247059"/><stop offset="1" stop-color="#fff" stop-opacity=".481618"/></linearGradient><path d="m6.5 4.5c-.277 0-.5398594.0553125-.7792969.15625-.7183125.3028125-1.2207031 1.01275-1.2207031 1.84375v8.5 13c0 1.108.892 1.5 2 1.5h8.5 2 8.5c1.108 0 2-.392 2-1.5v-13-8.5c0-.831-.502391-1.5409375-1.220703-1.84375-.00057-.0002402-.0014.0002397-.002 0-.118434-.050235-.243749-.088683-.373047-.1152344-.000624-.000127-.0013.0001264-.002 0-.129869-.0265585-.26375-.0410156-.40225-.0410156h-4v3h-11v-3z" fill="#e2b96c" opacity=".99" stroke="#bc974c"/><rect fill="none" height="23" rx=".5" ry="1" stroke="url(#d)" stroke-opacity=".658088" width="21" x="5.5" y="5.5"/><path d="m16 1.5c-2 0-3 1.89543-3 3h-2.5v3h11v-3h-2.5c0-.13807-.005-.27605-.03125-.40625-.18649-.91137-.96875-2.59375-2.96875-2.59375zm0 1c1 0 1.75444 1.26608 1.90625 1.625.0506.11964.09375.23693.09375.375 0 .55228 0 1.5-2 1.5-1.56978 0-2.033613-.9338589-2-1.5.03273-.5513092 1-2 2-2z" fill="#797979" stroke="#757575"/><path d="m8.857422 7c-.474857 0-.857422.382565-.857422.857422v20.285156c0 .474857.382565.857422.857422.857422h14.285156c.474857 0 .857422-.382565.857422-.857422v-20.285156c0-.474857-.382565-.857422-.857422-.857422zm.142578 1h14v20h-14z" fill="#a1a1a1"/><path d="m9 8h14v20h-14z" fill="#fff"/><path d="m11.112651 15.999995.185595-1.002356 2.260422.000003.214464-1.532895c.139376-.996201.510391-1.749639.957517-2.286232.452046-.542302.986974-.813455 1.604784-.813455.129672 0 .256009.01713.379043.05138.127956.02855.266484.07136.415603.12844l-.385983 1.284402c-.06423-.02284-.144259-.04281-.240097-.05993-.09202-.01713-.189518-.0257-.292487-.0257-.331787 0-.606505.148423-.824154.445257-.216543.291132-.378976.716411-.487298 1.275838l-.214464 1.532897 2.399317-.01129-.185595 1.002356-2.399318.01129-1.224985 6.668354.886011.239754-.208903 1.078897h-2.991798l.208903-1.078897.978857-.239754 1.224987-6.668354z" fill="url(#c)"/><path d="m15.367131 23.260219.629637-.132667 2.09605-2.380048-.904347-2.135525-.561205-.132667.188938-.732544h2.176375l-.188937.732547-.520883.06922.541078 1.414514 1.539259-1.420282-.481532-.06345.188938-.73255h2.191775l-.188935.732548-.629643.132667-2.267825 2.135524 1.173646 2.380049.566339.132667-.187439.726778h-2.176376l.18744-.726778.50913-.06345-.817002-1.65327-1.359375 1.65327.481532.06345-.187441.726778h-2.18664z" fill="url(#a)"/></svg>