<svg viewBox="0 0 32 32" xmlns="http://www.w3.org/2000/svg" xmlns:xlink="http://www.w3.org/1999/xlink"><linearGradient id="a" gradientUnits="userSpaceOnUse" x1="-9.393152" x2="-9.225656" y1="29.351353" y2="2.994095"><stop offset="0" stop-color="#e5eefc"/><stop offset="1" stop-color="#fcfdff"/></linearGradient><path d="m24.552734 2.9980469a.50177084.50177084 0 0 0 -.125.019531l-21.0624996 5.875a.50177084.50177084 0 0 0 -.2929688.746094l11.4960934 18.6054691a.50177084.50177084 0 0 0 .0098.01367l.345703.519532a.50177084.50177084 0 0 0 .417969.224609h13.158169a.50177084.50177084 0 0 0 .425781-.765625l-3.40039-5.5-2.88086-6.537109a.50177084.50177084 0 0 0 -.0098-.02148l-.205078-.408203.126953-.511719a.50177084.50177084 0 0 0 .0039-.01562l2.492228-11.6367272a.50177084.50177084 0 0 0 -.5-.6074219z" fill="#0a84ff"/><path d="m23.902343 4.3144531-19.5175774 5.4453125 11.1152344 17.9882814.18164.273438h11.904297l-2.912109-4.708985c-.01325-.02129-.025-.04348-.03516-.06641l-2.888672-6.556641-.28125-.5625c-.05706-.114276-.0716-.245126-.04102-.36914l.169922-.683594z" fill="url(#a)"/></svg>