<svg viewBox="0 0 32 32" xmlns="http://www.w3.org/2000/svg" xmlns:xlink="http://www.w3.org/1999/xlink"><filter id="a" color-interpolation-filters="sRGB" height="1.094553" width="1.097492" x="-.048746" y="-.047277"><feGaussianBlur stdDeviation=".36559322"/></filter><linearGradient id="b" gradientUnits="userSpaceOnUse" x1="13.5403" x2="18.475107" y1="7.30736" y2="7.30736"><stop offset="0" stop-color="#eee"/><stop offset=".12832868" stop-color="#eee"/><stop offset=".2677961" stop-color="#fff"/><stop offset=".6242128" stop-color="#fff"/><stop offset=".875" stop-color="#eee"/><stop offset="1" stop-color="#eee"/></linearGradient><filter id="c" color-interpolation-filters="sRGB" height="1.076353" width="2.263014" x="-.631507" y="-.038176"><feGaussianBlur stdDeviation=".13498718"/></filter><path d="m4 21.940678h24v2.559322h-24z" filter="url(#a)" opacity=".15" stroke-width="1.015418"/><g transform="translate(0 -3)"><path d="m4 8v9.685547 8.314453h10.701172 2.597656 10.701172v-8.314453-9.685547z" fill="#fff"/><path d="m3 7v11.257812 8.742188h11.316406 3.367188 11.316406v-8.742188-11.257812zm1 1h24v9.685547 8.314453h-10.701172-2.597656-10.701172v-8.314453z" fill="#98989d"/><path d="m7 11h18v2h-18z" fill="#ff9500"/><path d="m2 5h28v2h-28z" fill="#69696e"/><g fill="#98989d" transform="translate(0 1)"><path d="m7 15h1v1h-1z"/><path d="m7 21h1v1h-1z"/><path d="m7 18h1v1h-1z"/><path d="m10 15h14v1h-14z"/><path d="m10 21h9v1h-9z"/><path d="m10 18h11v1h-11z"/></g></g><path d="m23.923828 2c-.200012.0071932-.395592.0475842-.583984.1269531a1.003181 1.003181 0 0 0 -.001953 0c-.203472.0861207-.377164.2071894-.525391.3554688l-7.556641 7.5566401-12.255859 12.25586v1.705078h11.316406.386719l7.222656-7.224609 7.074219-7.072266v-.2226562h-.191406a1.003181 1.003181 0 0 0 .191406-.0175782v-3.1347656l-3.845703-3.8457031a1.003181 1.003181 0 0 0 -.001953 0 1.003181 1.003181 0 0 0 -.330078-.2207031c-.075054-.0462422-.131265-.1098546-.216797-.1445313-.191452-.0777478-.394329-.1140441-.595703-.1171875z" fill="#fff" fill-opacity=".784314"/><g transform="matrix(.70710678 .70710678 -.70710678 .70710678 15.999383 -6.627359)"><path d="m12.446483 1.1688483c-.11854.1214816-.184933.2844641-.184904.4541989l.000593 28.7529928c-.000915.360296.2914.652611.651696.651696l6.172127.000128c.360295.000929.652597-.291374.651668-.651669l-.000592-28.7529936c.000913-.3602951-.291401-.65260938-.651696-.65169587l-6.172127-.00012728c-.1759-.00004285-.344307.0712022-.466765.19747005z" fill="#0e0f0f"/><path d="m12.914062.97070312c-.1759-.00004285-.344338.0709978-.466796.19726568-.11854.1214816-.185576.2853433-.185547.4550781v10.6875001l7.474609.04687v-10.7343701c.000913-.3602951-.290095-.65325729-.65039-.65234378z" fill="#98989d" stroke-width="1.566195"/><path d="m13.5403 2.250099.000207 10.064842 4.934601.04968-.01673-10.0813664z" fill="url(#b)"/><path d="m13 13h.513011v16.883883h-.513011z" fill="#808080" filter="url(#c)"/></g></svg>