<svg viewBox="0 0 32 32" xmlns="http://www.w3.org/2000/svg" xmlns:xlink="http://www.w3.org/1999/xlink"><linearGradient id="a" gradientUnits="userSpaceOnUse" x1="4" x2="4" y1="18.5" y2="3.5"><stop offset="0" stop-color="#4f4f4f"/><stop offset=".80000001" stop-color="#4f4f4f" stop-opacity=".498039"/><stop offset="1" stop-color="#b7b7b7"/></linearGradient><filter id="b" color-interpolation-filters="sRGB" height="1.082452" width="2.278" x="-.639" y="-.041226"><feGaussianBlur stdDeviation=".26625"/></filter><linearGradient id="c" gradientUnits="userSpaceOnUse" x1="28" x2="28" y1="21" y2="4"><stop offset="0" stop-color="#4f4f4f"/><stop offset=".88235295" stop-color="#4f4f4f" stop-opacity=".498039"/><stop offset="1" stop-color="#b7b7b7"/></linearGradient><filter id="d" color-interpolation-filters="sRGB" height="1.071" width="2.278" x="-.639" y="-.0355"><feGaussianBlur stdDeviation=".26625"/></filter><filter id="e" color-interpolation-filters="sRGB" height="1.168" width="1.126" x="-.063" y="-.084"><feGaussianBlur stdDeviation=".1575"/></filter><linearGradient id="f" gradientUnits="userSpaceOnUse" x1="17" x2="17" y1="27" y2="17"><stop offset="0" stop-color="#dadada"/><stop offset=".30000001" stop-color="#fff"/><stop offset="1" stop-color="#fff"/></linearGradient><path d="m4 3c-.554 0-1 .446-1 1v19.5l4.5 5.5h20.5c.554 0 1-.446 1-1v-24c0-.554-.446-1-1-1z" fill="#3e3e3e"/><path d="m9 18c-.554 0-1 .446-1 1v7c0 .554.446 1 1 1h4v-7h3v7h8c.554 0 1-.446 1-1v-7c0-.554-.446-1-1-1z" fill="url(#f)"/><rect fill="#fff" height="11" rx=".5" width="18" x="7" y="4"/><path d="m13 20h3v1h-3z" fill="#2a2a2a"/><path d="m8 6h16v1h-16z" fill="#bababa"/><path d="m8 8h16v1h-16z" fill="#bababa"/><rect fill="url(#a)" filter="url(#b)" height="20.5" rx=".351695" width="1.5" x="4" y="3.5"/><path d="m26.5 3.5h1.5v23.5h-1.5z" fill="url(#c)" filter="url(#d)"/><path d="m6 15h20.5v4c-.332428-1.585337-1.430373-1.690577-3-2.5h-17.5z" fill="#3b3b3b" filter="url(#e)"/><path d="m8 10h16v1h-16z" fill="#bababa"/><path d="m9 4h14v1h-14z" fill="#0a84ff"/><path d="m8 12h16v1h-16z" fill="#bababa"/><g fill="#eac282" stroke-width=".857112" transform="matrix(1.1667513 0 0 1.1666667 3.664099 2.670651)"><path d="m11.437572 19.627857-1.09644 4.02504 3.951909-1.171525c1.653046-.339535-2.065034-3.99245-2.855469-2.853515z" fill="#a2a2a7" stroke="#848489"/><path d="m20.419922 11c-.189562 0-.378184.07172-.523438.216797l-1.673828 1.669922 2.847656 2.849609 1.710938-1.638672c.290506-.290127.290506-.756747 0-1.046875l-1.835938-1.833984c-.145254-.145064-.335828-.216797-.52539-.216797z" fill="#e68497" stroke="#b6496c"/><path d="m19.288937 13.155429 1.143664-1.12071 1.850278 1.787531" fill="none" stroke="#f398b3"/><path d="m17.603733 13.488055-5.652561 5.646711 2.855469 2.853515 5.633029-5.668195z" fill="#fc0" stroke="#c89e00"/><path d="m19.761836 15.247137-1.100691-1.177408-6.1837 6.223955 1.082595 1.146887z" fill="#ffe014"/></g></svg>