<svg viewBox="0 0 32 32" xmlns="http://www.w3.org/2000/svg" xmlns:xlink="http://www.w3.org/1999/xlink"><linearGradient id="a" gradientUnits="userSpaceOnUse" x1="-5.18636" x2="-4.237208" y1="36.338999" y2="21.288153"><stop offset="0" stop-color="#2a9240"/><stop offset="1" stop-color="#32d74b"/></linearGradient><linearGradient id="b" gradientUnits="userSpaceOnUse" x1="25" x2="25" y1="32" y2="10"><stop offset="0" stop-color="#0040dd"/><stop offset="1" stop-color="#0a84ff"/></linearGradient><linearGradient id="c" gradientUnits="userSpaceOnUse" x1="16" x2="16" xlink:href="#b" y1="20" y2="19"/><linearGradient id="d" gradientUnits="userSpaceOnUse" x1="16" x2="16" xlink:href="#b" y1="17" y2="16"/><linearGradient id="e" gradientTransform="matrix(1.3333333 0 0 1.9152542 8 -1.745763)" gradientUnits="userSpaceOnUse" x1="12" x2="12" xlink:href="#f" y1="3" y2="5"/><linearGradient id="f" gradientTransform="translate(0 3)" gradientUnits="userSpaceOnUse" x1="12" x2="12" y1="3" y2="5"><stop offset="0" stop-color="#c8c8cb"/><stop offset="1" stop-color="#98989d"/></linearGradient><linearGradient id="g" gradientTransform="translate(1 7)" gradientUnits="userSpaceOnUse" x1="12" x2="12" xlink:href="#f" y1="3" y2="7"/><linearGradient id="h" gradientUnits="userSpaceOnUse" x1="78" x2="78" xlink:href="#k" y1="36" y2="18"/><linearGradient id="i" gradientUnits="userSpaceOnUse" x1="16" x2="16" y1="3" y2="29"><stop offset="0" stop-color="#848489"/><stop offset="1" stop-color="#616165"/></linearGradient><filter id="j" color-interpolation-filters="sRGB" height="1.094553" width="1.097492" x="-.048746" y="-.047277"><feGaussianBlur stdDeviation=".36559322"/></filter><linearGradient id="k" gradientUnits="userSpaceOnUse" x1="70" x2="70" y1="42" y2="24"><stop offset="0" stop-color="#e9e9e9"/><stop offset=".2857143" stop-color="#f2f2f2"/><stop offset="1" stop-color="#fbfbfb"/></linearGradient><path d="m12 8.5h16v15h-16z" filter="url(#j)" opacity=".15" stroke-width="1.015418"/><path d="m4 14.5h16v15h-16z" filter="url(#j)" opacity=".15" stroke-width="1.015418"/><path d="m12 9h16v13h-16z" fill="url(#h)"/><path d="m4 15h16v13h-16z" fill="url(#k)"/><path d="m12 3c-.554 0-1 .446-1 1v5h-7c-.554 0-1 .446-1 1v18c0 .554.446 1 1 1h16c.554 0 1-.446 1-1v-5h7c.554 0 1-.446 1-1v-18c0-.554-.446-1-1-1zm8 6h8v13h-7v-12c0-.554-.446-1-1-1zm-16 6h7v7c0 .554.446 1 1 1h8v5h-16zm8 0h8v7h-8z" fill="url(#i)"/><g fill="#bababa"><path d="m6 16h4v1h-4z" fill="#bababa"/><path d="m14 16h4v1h-4z" fill="url(#d)"/><path d="m6 19h4v1h-4z" fill="#bababa"/><path d="m14 19h4v1h-4z" fill="url(#c)"/><g fill="#bababa"><path d="m6 22h4v1h-4z"/><path d="m6 25h4v1h-4z"/><path d="m14 25h4v1h-4z"/><path d="m22 10h4v1h-4z"/><path d="m22 13h4v1h-4z"/><path d="m22 16h4v1h-4z"/><path d="m22 19h4v1h-4z"/></g></g><path d="m4 10v4h7v-4zm8 0v4h8v-4z" fill="url(#g)"/><path d="m12 4h16v4h-16z" fill="url(#e)" stroke-width="1.598021"/><path d="m28.66219 14.001955c-.131895.0011-.264899.01407-.396484.04102a.99934622.99934622 0 0 0 -.0098.002c-.519012.111945-.976104.390945-1.3125.800781l-7.68164 8.771485-2.253907-2.251954a.99934622.99934622 0 0 0 -.002 0c-.93274-.931095-2.401209-.930881-3.333984 0-.932576.930835-.932602 2.403098 0 3.333985l4.013672 4.005859a.99934622.99934622 0 0 0 .01367.01367l.293052.281201h2.007812c.554 0 1-.446 1-1v-5h4.994141l3.005859-3.429688v-5.539062c-.110519-.01779-.223216-.03027-.337891-.0293z" fill="#fff" fill-opacity=".784314"/><path d="m28.866799 15.018312c-.12872-.02414-.262379-.02554-.399788.0026-.292829.06316-.562687.227713-.752543.459017l-8.403404 9.597607-3.010174-3.004469c-.503475-.502587-1.419598-.502548-1.923168 0-.503501.502561-.503542 1.416908 0 1.919523l4.013567 4.005956 1.0452 1.001486.919775-1.084946 9.364988-10.682554c.664234-.72176.04656-2.045264-.854453-2.21423z" fill="url(#a)"/></svg>