<svg viewBox="0 0 32 32" xmlns="http://www.w3.org/2000/svg" xmlns:xlink="http://www.w3.org/1999/xlink"><linearGradient id="a" gradientTransform="translate(-25.830508 -3.59322)" gradientUnits="userSpaceOnUse" x1="14" x2="13.79661" y1="22" y2="2.135593"><stop offset="0" stop-color="#0040dd"/><stop offset="1" stop-color="#0a84ff"/></linearGradient><linearGradient id="b" gradientUnits="userSpaceOnUse" x1="7" x2="7" xlink:href="#a" y1="11" y2="3"/><linearGradient id="c" gradientTransform="translate(5 10)" gradientUnits="userSpaceOnUse" x1="6.711865" x2="6.423729" xlink:href="#a" y1="18.940678" y2="14.059322"/><linearGradient id="d" gradientTransform="translate(-1.000188 10)" gradientUnits="userSpaceOnUse" x1="7" x2="7" xlink:href="#a" y1="11" y2="3"/><g fill="#69696e" transform="scale(-1 1)"><rect height="1" ry=".5" width="14.999998" x="-28" y="4"/><rect height="1" ry=".392136" width="13" x="-28" y="14"/><rect height="1" ry=".436441" width="11" x="-28" y="24"/><rect height="1" ry=".466854" width="5" x="-22" y="27"/><rect height="1" ry=".488951" width="7" x="-22" y="17"/><rect height="1" ry=".5" width="9.000002" x="-22" y="7"/></g><g fill="#eaeaea" fill-opacity=".992157" transform="matrix(-1 0 0 1 0 1)"><rect height="1" ry=".5" width="14.999998" x="-28" y="4"/><rect height="1" ry=".392136" width="13" x="-28" y="14"/><rect height="1" ry=".436441" width="11" x="-28" y="24"/><rect height="1" ry=".433709" width="5" x="-22" y="27"/><rect height="1" ry=".5" width="7" x="-22" y="17"/><rect height="1" ry=".5" width="9.000002" x="-22" y="7"/></g><path d="m8 11h-1.0232503l.0232503-6.5-2.6665881 1.76759-.0224203-1.117444 3.5587609-2.135453h.1310775z" fill="url(#b)"/><path d="m14 26.5a2.5 2.5 0 0 1 -2.5 2.5 2.5 2.5 0 0 1 -2.5-2.5 2.5 2.5 0 0 1 2.5-2.5 2.5 2.5 0 0 1 2.5 2.5z" fill="url(#c)"/><path d="m6.8691401 13.015625-3.5585937 2.134766.0234375 1.117187 2.6660156-1.767578-.0234375 6.5h1.0234375v-7.984375zm5.9999999 0-3.5585936 2.134766.023437 1.117187 2.6660166-1.767578-.023438 6.5h1.023438v-7.984375zm-3.892578 5.984375a1 1 0 0 0 -1 1 1 1 0 0 0 1 1 1 1 0 0 0 1-1 1 1 0 0 0 -1-1z" fill="url(#d)"/></svg>