<svg viewBox="0 0 32 32" xmlns="http://www.w3.org/2000/svg" xmlns:xlink="http://www.w3.org/1999/xlink"><linearGradient id="a" gradientUnits="userSpaceOnUse" x1="9.130447" x2="9.130447" y1="15.223649" y2="2.763204"><stop offset="0" stop-color="#0040dd"/><stop offset="1" stop-color="#0a84ff"/></linearGradient><path d="m10.72186 28.820011q-.142586-.285172-.231703-1.015927-1.1496012 1.19416-2.7447846 1.19416-1.4258624 0-2.3437612-.802048-.9089872-.810959-.9089872-2.049677 0-1.506067 1.1406898-2.334849 1.1496015-.837694 3.2260135-.837694h1.6040947v-.75749q0-.864429-.5168747-1.372392-.5168751-.516875-1.5238903-.516875-.8822524 0-1.4793322.445582-.5970798.445582-.5970798 1.078308h-1.657565q0-.721843.5079635-1.390216.5168751-.677284 1.3902157-1.069396.8822523-.392113 1.9338258-.392113 1.666477 0 2.61111.837695.944634.828782.980281 2.290291v4.437996q0 1.327835.338642 2.112059v.142586zm-2.7358734-1.256541q.7753127 0 1.4704205-.401024.6951079-.401024 1.0070149-1.042662v-1.978384h-1.2921873q-3.0299574 0-3.0299574 1.773417 0 .775312.516875 1.211983.5168751.43667 1.3278343.43667z" fill="#4b4b4f"/><path d="m21 5c-.554 0-1 .446-1 1v14h-3a1.0001 1.0001 0 0 0 -.707031 1.707031l5 5a1.0001 1.0001 0 0 0 1.414062 0l5-5a1.0001 1.0001 0 0 0 -.707031-1.707031h-3v-14c0-.554-.446-1-1-1z" fill="#4b4b4f"/><path d="m6.0152522 13.326311h7.0234728v1.675426h-9.5310633v-1.508993l6.6240333-8.7987577h-6.5241735v-1.6976165h9.0983375v1.4535148z" fill="url(#a)"/></svg>