<svg viewBox="0 0 32 32" xmlns="http://www.w3.org/2000/svg" xmlns:xlink="http://www.w3.org/1999/xlink"><linearGradient id="a" gradientUnits="userSpaceOnUse" x1="7.864407" x2="9.220339" y1="15.322034" y2="2.508475"><stop offset="0" stop-color="#0040dd"/><stop offset="1" stop-color="#0a84ff"/></linearGradient><path d="m6.0895631 27.604702h5.8526309v1.396126h-7.942196v-1.257438l5.5197803-7.331969h-5.4365675v-1.414617h7.5816082v1.211208z" fill="#4b4b4f"/><path d="m21 5c-.554 0-1 .446-1 1v14h-3a1.0001 1.0001 0 0 0 -.707031 1.707031l5 5a1.0001 1.0001 0 0 0 1.414062 0l5-5a1.0001 1.0001 0 0 0 -.707031-1.707031h-3v-14c0-.554-.446-1-1-1z" fill="#4b4b4f"/><path d="m11.278571 14.78629q-.170969-.341937-.277824-1.21815-1.3784328 1.431861-3.2911421 1.431861-1.7096843 0-2.8102935-.961698-1.0899237-.972383-1.0899237-2.457671 0-1.8058539 1.3677474-2.7996079 1.3784329-1.0044395 3.8681607-1.0044395h1.9233952v-.9082698q0-1.0364961-.619761-1.6455711-.6197605-.6197605-1.827225-.6197605-1.0578672 0-1.7737975.5342763-.7159303.5342763-.7159303 1.2929487h-1.987508q0-.8655276.6090751-1.6669421.6197605-.8121001 1.6669421-1.2822632 1.0578672-.4701632 2.3187594-.4701632 1.9981932 0 3.1308592 1.0044395 1.132666.993754 1.175408 2.7461804v5.3213924q0 1.592143.40605 2.53247v.170968zm-3.2804568-1.506659q.9296408 0 1.7631119-.480849.8334709-.480849 1.2074649-1.250206v-2.3721874h-1.5494018q-3.6330791 0-3.6330791 2.1264194 0 .929641.6197606 1.453232.6197605.523591 1.5921435.523591z" fill="url(#a)"/></svg>