<svg height="32" viewBox="0 0 32 32" width="32" xmlns="http://www.w3.org/2000/svg" xmlns:xlink="http://www.w3.org/1999/xlink"><filter id="a" color-interpolation-filters="sRGB" height="1.094553" width="1.097492" x="-.048746" y="-.047277"><feGaussianBlur stdDeviation=".36559322"/></filter><linearGradient id="b" gradientUnits="userSpaceOnUse" x1="14.006337" x2="3.506337" xlink:href="#e" y1="13.999521" y2="13.999521"/><linearGradient id="c" gradientUnits="userSpaceOnUse" x1="16" x2="16" xlink:href="#e" y1="22" y2="13"/><linearGradient id="d" gradientUnits="userSpaceOnUse" x1="3.499522" x2="12.999522" xlink:href="#e" y1="21.499521" y2="21.499521"/><linearGradient id="e"><stop offset="0" stop-color="#c20618"/><stop offset="1" stop-color="#ff6961" stop-opacity=".966805"/></linearGradient><path d="m4 5v9.5h24v-9.5zm0 14v10.5h24v-10.5z" filter="url(#a)" opacity=".15" stroke-width="1.347151"/><path d="m4 4v10h24v-10zm0 12.9375v11.0625h24v-11.0625z" fill="#fafafa"/><path d="m9 4v4h-5v1h5v2.251953 1.748047h-3.8105469-1.1894531v1h.1757812 23.8242188v-1h-1.138672-4.824219-.037109v-4h6v-1h-6v-4h-1v4h-5v-4h-1v4h-5v-4zm1 5h5v4h-4.986328c-.000513.036707-.011487.07267-.013672.109375v-.109375-.337891zm6 0h5v4h-5zm-12 8v6h.2089844 1 3.7910156v2 3h1v-4.636719-.363281h.037109 4.962891v5h1v-5h5v5h1v-5h.013672 4.828125 1.158203v-1h-.158203-5.550781-.291016v-4h-1v4h-11v-4h-1v4h-4.7910156-.0332032v-5z" fill="#bababa"/><path d="m3 3v1 5 5h1v-1-4-1-4h5 1 5 1 5 1 6v4 1 4 1h1v-5-5-1h-1-24zm0 13.9375v5.095703 5.966797c0 .554.446 1 1 1h24c.554 0 1-.446 1-1v-6-1.160156-3.902344h-1v4.902344.160156 1 5h-6-1-5-1-5-1-5v-5-6.0625z" fill="#69696e"/><path d="m4 13v1h24v-1zm0 4v1h24v-1z" fill="url(#c)"/><g transform="matrix(0 1 -1 0 33.999521 -.006337)"><path d="m7.4511719 12.996094c-.3776891.01229-.7484723.17219-1.015625.439453l-3.4355469 3.435547v2.257812l3.4355469 3.435547a1.0047099 1.0047099 0 0 0 .00391.002c.4182456.415027 1.0923483.547738 1.6367188.322266s.9254329-.795553.9277343-1.384766a1.0047099 1.0047099 0 0 0 0-.0039v-1.496094h3.498047c.816177 0 1.503906-.687729 1.503906-1.503906v-1c0-.816177-.687729-1.503906-1.503906-1.503906h-3.4980508v-1.496147a1.0047099 1.0047099 0 0 0 0-.002c-.0009018-.802438-.7466483-1.525692-1.5488281-1.501906a1.0047099 1.0047099 0 0 0 -.00391 0z" fill="#fafafa" fill-opacity=".784314"/><path d="m7.484375 14a.50078285.50078285 0 0 0 -.3378906.146484l-3.5 3.5a.50078285.50078285 0 0 0 0 .707032l3.5 3.5a.50078285.50078285 0 0 0 .8535156-.353516v-2.5h4.501953c.277 0 .5-.223.5-.5v-1c0-.277-.223-.5-.5-.5h-4.501953v-2.5a.50078285.50078285 0 0 0 -.515625-.5z" fill="url(#b)"/><g transform="matrix(-1 0 0 1 32.005859 0)"><path d="m7.4511719 12.996094c-.3776891.01229-.7484723.17219-1.015625.439453l-3.4355469 3.435547v2.257812l3.4355469 3.435547a1.0047099 1.0047099 0 0 0 .00391.002c.4182456.415027 1.0923483.547738 1.6367188.322266s.9254329-.795553.9277343-1.384766a1.0047099 1.0047099 0 0 0 0-.0039v-1.496094h3.498047c.816177 0 1.503906-.687729 1.503906-1.503906v-1c0-.816177-.687729-1.503906-1.503906-1.503906h-3.4980508v-1.496147a1.0047099 1.0047099 0 0 0 0-.002c-.0009018-.802438-.7466483-1.525692-1.5488281-1.501906a1.0047099 1.0047099 0 0 0 -.00391 0z" fill="#fafafa" fill-opacity=".784314"/><path d="m7.484375 14a.50078285.50078285 0 0 0 -.3378906.146484l-3.5 3.5a.50078285.50078285 0 0 0 0 .707032l3.5 3.5a.50078285.50078285 0 0 0 .8535156-.353516v-2.5h4.501953c.277 0 .5-.223.5-.5v-1c0-.277-.223-.5-.5-.5h-4.501953v-2.5a.50078285.50078285 0 0 0 -.515625-.5z" fill="url(#d)"/></g></g></svg>