<svg viewBox="0 0 32 32" xmlns="http://www.w3.org/2000/svg" xmlns:xlink="http://www.w3.org/1999/xlink"><linearGradient id="a" gradientUnits="userSpaceOnUse" x1="30" x2="30" y1="14" y2="0"><stop offset="0" stop-color="#0040dd"/><stop offset="1" stop-color="#0a84ff"/></linearGradient><path d="m10.462535 13.57196 3.873644-6.5690122h3.486279l-5.713624 8.8972702 5.891166 9.096834h-3.453999l-4.035045-6.735316-4.0350449 6.735316h-3.4701385l5.8911655-9.096834-5.7136235-8.8972702h3.4539984z" fill="#4b4b4f"/><path d="m29.304877 13.999988h-9.292179v-1.585081l4.603378-5.0210037q.996607-1.1105056 1.414233-1.8508426.427118-.7498285.427118-1.4996571 0-.987116-.559999-1.594572-.550507-.6074561-1.490165-.6074561-1.119997 0-1.736945.6833881-.616947.683388-.616947 1.8698256h-2.306435q0-1.2623696.56949-2.2684687.578982-1.0155905 1.64203-1.575589 1.072539-.5599986 2.46779-.5599986 2.012198 0 3.170161 1.0155906 1.167455 1.006099 1.167455 2.7905011 0 1.0345736-.588473 2.1735536-.578982 1.1294886-1.907792 2.5721968l-3.378974 3.616262h6.416254z" fill="url(#a)"/></svg>