<svg viewBox="0 0 32 32" xmlns="http://www.w3.org/2000/svg" xmlns:xlink="http://www.w3.org/1999/xlink"><filter id="a" color-interpolation-filters="sRGB" height="1.06092" width="1.088006" x="-.044003" y="-.03046"><feGaussianBlur stdDeviation=".32993606"/></filter><linearGradient id="b" gradientTransform="matrix(.26458333 0 0 .26458333 101.6 307.58333)" gradientUnits="userSpaceOnUse" x1="18.5" x2="18.5" y1="23" y2="14.5"><stop offset="0" stop-color="#d70015"/><stop offset="1" stop-color="#ff453a"/></linearGradient><linearGradient id="c" gradientTransform="translate(-3 1)" gradientUnits="userSpaceOnUse" x1="5" x2="9" xlink:href="#b" y1="27" y2="27"/><linearGradient id="d" gradientTransform="matrix(1.25 0 0 1.25 -2 -3.5)" gradientUnits="userSpaceOnUse" x1="12" x2="16" xlink:href="#b" y1="16" y2="16"/><linearGradient id="e" gradientTransform="translate(1.000002 -5)" gradientUnits="userSpaceOnUse" x1="25" x2="28.999998" xlink:href="#b" y1="9" y2="9"/><path d="m4.0101002 27.9899 23.9768668-23.9768817" fill="none" stroke="#0a84ff" stroke-linecap="round" stroke-linejoin="round"/><path d="m26.000002 2h3.999998v3.9999996h-3.999998z" fill="url(#e)"/><path d="m2.0000001 26h3.9999999v4h-3.9999999z" fill="url(#c)"/><path d="m13 14h5v5h-5z" fill="url(#d)" stroke-width="1.25"/><path d="m14 15h3v3h-3z" fill="#fff" stroke-width=".75"/><g fill-rule="evenodd" transform="translate(8.007813 12.431641)"><path d="m7.5 3.1375463c-.2746695-.000892-.4978597.2214229-.4980469.4960938v15.8376069l.8613281.335938 11.6316158-4.963986.322266-.873047-11.9968505-10.713465c-.0893054-.0763714-.2028062-.1185882-.3203125-.1191407z" fill="#141414" filter="url(#a)" transform="matrix(1.0317475 0 0 1.0395556 -.821826 -.095883)"/><path d="m7.5 3.0019531c-.2746695-.000892-.4978597.2214229-.4980469.4960938v15.5332031l.8613281.335938 11.4726548-4.808588.322265-.873047-11.8378885-10.5644592c-.0893054-.0763714-.2028062-.1185882-.3203125-.1191407z" fill="#fff"/><path d="m7.9921875 4.5683594v13.1972656l9.9999995-4.197266z" fill="#050505"/></g></svg>