<svg viewBox="0 0 32 32" xmlns="http://www.w3.org/2000/svg"><g transform="translate(7)"><path d="m16.507812 3.0253906a6 6 0 0 1 .355469.042969c-.117796-.0170237-.235561-.0328939-.355469-.042969zm.576172.076172a6 6 0 0 1 .390625.087891c-.128829-.032613-.258626-.0637653-.390625-.087891zm-2.27539.017578c-.197341.039778-.392221.089811-.582032.1484375a6 6 0 0 1 .582032-.1484375zm-.582032.1484375c-.37981.1173121-.742491.2704601-1.085937.4570313a6 6 0 0 1 1.085937-.4570313zm3.4375-.029297a6 6 0 0 1 .40625.1347657c-.133612-.0491814-.268364-.0950148-.40625-.1347657zm.550782.1875a6 6 0 0 1 .376953.1679689c-.123936-.0595399-.248474-.116872-.376953-.1679689zm.5625.2597657a6 6 0 0 1 .298828.1699219c-.098145-.0588136-.197146-.1166645-.298828-.1699219zm-5.763672.1152343c-.133263.076717-.266018.15578-.392578.2421876a6 6 0 0 1 .392578-.2421876zm6.279297.1875a6 6 0 0 1 .294922.2089844c-.096699-.0723559-.193837-.1424515-.294922-.2089844zm-3.292969.0117189a5 5 0 0 0 -5 5v7h1.001953v-7.0019531c0-2.2085674 1.78948-3.998047 3.998047-3.9980469 2.208567-.0000001 3.997685 1.7894796 3.998047 3.9980469l.001953 7.0019531h1v-7a5 5 0 0 0 -5-5zm-3.496094.1289062c-.118154.084943-.234194.1705678-.345703.2636719a6 6 0 0 1 .345703-.2636719zm7.259766.1992188a6 6 0 0 1 .257812.2285156c-.085114-.0770927-.16836-.1563481-.257812-.2285156zm-7.802734.2441406c-.07684.070144-.155418.1388847-.228516.2128906a6 6 0 0 1 .228516-.2128906zm8.253906.1601563a6 6 0 0 1 .21289.2285156c-.070143-.0768386-.138884-.1554177-.21289-.2285156zm-8.658203.2460937c-.07709.085114-.156349.1683609-.228516.2578125a6 6 0 0 1 .228516-.2578125zm9.050781.1796875a6 6 0 0 1 .263672.3457031c-.084943-.1181543-.170568-.234194-.263672-.3457031zm-9.410156.2539063c-.07236.096699-.142452.1938361-.208985.2949218a6 6 0 0 1 .208985-.2949218zm9.759765.2089844a6 6 0 0 1 .242188.3925781c-.076717-.1332624-.15578-.2660184-.242188-.3925781zm-10.101562.3027343c-.05881.098145-.116665.1971462-.169922.2988281a6 6 0 0 1 .169922-.2988281zm10.419922.2167969a6 6 0 0 1 .457031 1.0859375c-.117312-.3798106-.27046-.7424914-.457031-1.0859375zm.457031 1.0859375a6 6 0 0 1 .148437.5820313c-.039777-.1973413-.08981-.3922205-.148437-.5820313zm-11.138672-.8183594c-.05954.1239357-.116872.2484738-.167969.3769531a6 6 0 0 1 .167969-.3769531zm-.220703.5214844c-.04918.1336123-.09502.268365-.134766.40625a6 6 0 0 1 .134766-.40625zm-.183594.5957031c-.03261.1288298-.06377.2586263-.08789.390625a6 6 0 0 1 .08789-.390625zm-.121094.6113282c-.01702.1177966-.03289.2355615-.04297.3554687a6 6 0 0 1 .04297-.3554687z" fill="#ebebeb"/><g fill="#69696e"><path d="m16 3a6 6 0 0 0 -6 6v7h1v-7a5 5 0 0 1 5-5 5 5 0 0 1 5 5v7h1v-7a6 6 0 0 0 -6-6z"/><path d="m16 5c-2.208567-.0000001-3.998047 1.7894795-3.998047 3.9980469v7.0019531h1l-.001953-7c0-1.6563541 1.343647-3.0000001 3-3 1.656354-.0000001 2.999792 1.343646 3 3v7h.333984.666016l-.002-7.0019531c-.000315-2.2085673-1.789433-3.998047-3.998-3.9980469z" stroke-width=".666494"/><path d="m19 16h3v1h-3z"/></g></g><g transform="translate(-2)"><path d="m6 16c-.554 0-1 .446-1 1v11c0 .554.446 1 1 1h20c.554 0 1-.446 1-1v-11c0-.554-.446-1-1-1h-4-1-10-1zm0 1h1 18 1v1 9 1h-1-18-1v-1-9z" fill="#a48200"/><path d="m6 17h20v11h-20z" fill="#fc0"/><g fill="#a05a00"><path d="m6 24h20v1h-20z"/><path d="m6 26h20v1h-20z"/><path d="m6 22h20v1h-20z"/></g></g></svg>