<svg viewBox="0 0 24 24" xmlns="http://www.w3.org/2000/svg"><path d="m10.919922 1c-2.8800005 0-4.3203126 1.0176504-4.3203126 3.0546875 0 1.2222222.4011719 1.8339844 1.2011718 1.8339844h6.7441408v2.8105469c0 .4074074-.449703.6113281-1.345703.6113281h-3.7441409v-1.5878907h-3.4550781v3.8867188h9.119141c1.92 0 2.880859-.970897 2.880859-2.9101562v-2.8105469h-.599609v-1.8339844c-.88-.8148148-1.88-1.5275607-3-2.1386719-1.128-.6111111-2.28847-.9160156-3.480469-.9160156zm0 2.1992188c1.487999-.0000001 2.680171.3682291 3.576172 1.1015624h-4.8964846c0-.7333333.4403116-1.1015624 1.3203126-1.1015624zm-4.919922 9.7421872v10.058594h3.2285156l2.7832034-2.566406 2.771484 2.566406h3.216797v-10.058594h-3.455078v6.84375l-2.533203-2.345703-2.5566409 2.371094v-6.869141z" fill="#555753"/></svg>