<svg xmlns="http://www.w3.org/2000/svg" viewBox="0 0 24 24">
  <path
     style="fill:#555753"
     d="M 4.8867188 2 L 3.8066406 3.4707031 L 3.2734375 4.2050781 C 3.0910191 4.4450782 3 4.6857815 3 4.9257812 C 3 5.1757813 3.1011143 5.4257812 3.3027344 5.6757812 L 3.8789062 6.4257812 L 5 8 L 5 15 C 5 15.747276 5.1228512 16.412856 5.3632812 17 L 12 17 C 9.9645973 17 9 16.35 9 15 L 9 8 L 6 5 L 10 5 L 10 2 L 4.8867188 2 z M 12 17 L 18.636719 17 C 18.877149 16.412856 19 15.747276 19 15 L 19 8 L 15 5 L 19 5 L 19 2 L 13.988281 2 L 12.908203 3.4707031 L 12.375 4.2050781 C 12.221387 4.4050782 12.144531 4.6103126 12.144531 4.8203125 C 12.144531 5.1003126 12.294167 5.3857813 12.591797 5.6757812 L 13.339844 6.4257812 L 15 8 L 15 15 C 15 16.35 14.035403 17 12 17 z M 2 18 L 2 20 L 22 20 L 22 18 L 2 18 z M 2 21 L 2 23 L 22 23 L 22 21 L 2 21 z "
     />
</svg>
