<svg xmlns="http://www.w3.org/2000/svg" viewBox="0 0 16 16">
  <path
     style="fill:#555753"
     d="M 7.0996094 0 C 4.6996093 2.9605947e-16 3.5 0.74117483 3.5 2.2226562 C 3.5 3.1115451 3.8333333 3.5546875 4.5 3.5546875 L 10.119141 3.5546875 L 10.119141 5.5996094 C 10.119141 5.8959057 9.7466666 6.0449219 9 6.0449219 L 5.8808594 6.0449219 L 5.8808594 4.8886719 L 3 4.8886719 L 3 7.7148438 L 10.599609 7.7148438 C 12.199609 7.7148438 13 7.0099797 13 5.5996094 L 13 3.5546875 L 12.5 3.5546875 L 12.5 2.2226562 C 11.766667 1.6300637 10.933333 1.1104601 10 0.66601562 C 9.06 0.22157119 8.0929427 0 7.0996094 0 z M 7.0996094 1.5996094 C 8.3396094 1.5996094 9.3334114 1.8670572 10.080078 2.4003906 L 6 2.4003906 C 6 1.8670572 6.366276 1.5996094 7.0996094 1.5996094 z M 3 8.6835938 L 3 16 L 5.6894531 16 L 8.0097656 14.132812 L 10.320312 16 L 13 16 L 13 8.6835938 L 10.119141 8.6835938 L 10.119141 13.662109 L 8.0097656 11.955078 L 5.8808594 13.679688 L 5.8808594 8.6835938 L 3 8.6835938 z "
     />
</svg>
