<svg viewBox="0 0 24 24" xmlns="http://www.w3.org/2000/svg">
  <path
     style="fill:#fafafa"
     d="M 3,2 C 2.445988,2 2,2.4459842 2,3 V 17 l 5,5 H 21 c 0.554015,0 1,-0.445984 1,-1 V 3 C 22,2.4459842 21.554017,2 21,2 Z m 0,1 H 21 V 21 H 7 v -2 -1 c 0,-0.412577 -0.3349732,-1 -1,-1 H 3 Z" />
  <path
     d="M 17,16.000013 V 17 H 9 l 1,-1 z"
     style="fill:#27ae60" />
  <path
     d="m 14.5,6 -1.5,1.5 2.5,2.5 1.5,-1.5 z"
     style="fill:#83beec" />
  <path
     style="fill:#0063b1"
     d="m 14.384766,5.1152344 c -0.128391,0.00189 -0.250975,0.053822 -0.341797,0.1445312 L 9.148438,10.166016 c -0.096649,0.08259 -0.1829983,0.183175 -0.232422,0.291013 l -1.867188,4.878907 c -0.157039,0.394771 0.234142,0.785946 0.628906,0.628906 l 4.867188,-1.878906 c 0.117651,-0.04934 0.201523,-0.146921 0.302734,-0.220709 l 4.894532,-4.9062496 c 0.193209,-0.1931338 0.193209,-0.5061983 0,-0.7 l -3,-3 C 14.647508,5.1652776 14.518565,5.1129667 14.384766,5.1152344 Z" />
  <path
     style="fill:#83beec"
     d="M 14.392578 6.0429688 L 9.9316406 10.515625 L 12.498047 13.082031 L 16.958984 8.609375 L 14.392578 6.0429688 z M 9.4492188 11.041016 L 7.90625 15.107422 L 11.960938 13.552734 L 9.4492188 11.041016 z " />
</svg>
