<svg height="24" viewBox="0 0 6.3499999 6.3500002" width="24" xmlns="http://www.w3.org/2000/svg" xmlns:xlink="http://www.w3.org/1999/xlink"><linearGradient id="a" gradientUnits="userSpaceOnUse" x1="8.619256" x2="26.38303" y1="13.055605" y2="13.055605"><stop offset="0" stop-color="#3b3e22"/><stop offset="1" stop-color="#454545" stop-opacity="0"/></linearGradient><linearGradient id="b" gradientUnits="userSpaceOnUse" x1="17.936612" x2="18.944935" y1="29.068492" y2="5.877063"><stop offset="0" stop-color="#555"/><stop offset="1"/></linearGradient><g transform="matrix(.171875 0 0 .171875 .264583 .264583)"><path d="m26.091425 12.098425q-.211748-.952865-.317621-1.341069-.105874-.423496-.388205-1.1999043-.28233-.8116999-.599952-1.1646129-.317621-.352913-.917574-.8469911-.599952-.5293695-1.37636-.7411173-.776409-.2470391-1.90573-.4234956-1.129322-.1764564-2.576265-.1764564-1.341069 0-1.799856.3529129-.458787.3176217-.458787 1.3057781v8.1875806q2.646847 0 3.776169-1.09403 1.129321-1.129321 1.6234-4.164373h.882282v11.928459h-.882282q-.352913-3.070343-1.517526-4.234956-1.164613-1.164613-3.882043-1.235195v8.222872q0 1.446943.705826 1.941021.741117.458787 3.176217.564661v.882283h-12.7048675v-.882283q1.9763126-.211748 2.5409734-.670534.5646611-.458787.5646611-1.835148v-17.0809882q0-1.3763606-.6352437-1.8704388-.6352433-.5293694-2.4703908-.6352433v-.8822825h20.0101655v7.0935508z" fill="url(#b)" stroke-width=".838408"/><path d="m8.6192556 5.5596792c.4495633.1163442.823029.2842205 1.122929.5312336.6165744.4834536.8459434 1.3030807.8459434 2.3027022v11.919686a22.529944 14.350284 0 0 0 3.978568.238228 22.529944 14.350284 0 0 0 .628903-.01447v-3.285587a.5543425.5543425 0 0 1 .56844-.555004c1.888497.04905 3.336618.471158 4.261756 1.396297.44938.449379.778212 1.079901 1.031978 1.837614a22.529944 14.350284 0 0 0 .420646-.08888v-8.096147c-.341789 1.58334-.803959 2.848796-1.558561 3.603398a.5543425.5543425 0 0 1 -.0078.0062c-.908217.879835-2.320736 1.251604-4.16202 1.251604a.5543425.5543425 0 0 1 -.554439-.554491v-8.1896819c0-.7395842.171535-1.3840646.689363-1.749764.511486-.3866994 1.189134-.4630208 2.124935-.4630208.987651-.0000003 1.874426.062402 2.66237.1855184.767417.1199089 1.421776.2641576 1.976107.4397664.58935.1625346 1.122024.4503467 1.578198.8511109.408148.3366174.731327.6302825.971.8965861.298385.3315378.509362.774986.710551 1.3534057.189663.5220526.323485.9301352.40256 1.2464362.01685.06199.05247.221984.07235.300756v-5.3634968z" fill="url(#a)"/></g></svg>