<svg height="24" viewBox="0 0 6.3499999 6.3500002" width="24" xmlns="http://www.w3.org/2000/svg" xmlns:xlink="http://www.w3.org/1999/xlink"><linearGradient id="a" gradientUnits="userSpaceOnUse" x1="10.125842" x2="26.631201" y1="14.327564" y2="14.327564"><stop offset="0" stop-color="#3b3e22"/><stop offset="1" stop-color="#454545" stop-opacity="0"/></linearGradient><linearGradient id="b" gradientUnits="userSpaceOnUse" x1="16.030882" x2="17.039205" y1="28.662642" y2="5.471213"><stop offset="0" stop-color="#555"/><stop offset="1"/></linearGradient><g transform="matrix(.171875 0 0 .171875 .264624 .128139)"><path d="m29.549972 5.4107246v.5646608q-1.235195.2117478-2.646847 1.2704867l-10.587389 7.9758329 6.140685 10.693264q.741118 1.235195 1.235196 1.517526.529369.28233 2.18806.458786v.564661h-9.705107v-.564661q.705826-.105874 1.023448-.105874 1.6234-.141165 1.6234-.917573 0-1.058739-1.34107-3.352674l-4.270247-7.34059-2.399808 8.787534q-.28233.952865-.28233 1.37636 0 .8117.423495 1.094031.458787.28233 2.117478.458786v.564661h-8.7522417v-.564661q1.5528171-.247039 1.9763126-.635243.4587869-.388204.9175738-1.976313l4.3408293-15.5987533q.388205-1.3763607.388205-2.1880605 0-.7764086-.52937-1.0587389-.529369-.2823304-2.1880603-.4587869v-.5646608h9.6345243v.5646608q-1.552817.1058739-2.399808.7058259-.8117.5999521-1.164613 1.9057301l-1.870439 6.8465116 5.364277-3.740877q2.329226-1.6234 3.705587-2.9644694 1.37636-1.3410693 1.37636-1.9763127 0-.5646607-1.199904-.6705346-.07058 0-.423495-.035291-.317622-.035291-.52937-.070583v-.5646607z" fill="url(#b)" stroke-width=".838408"/><path d="m40.822266 21.976562c1.184008.275157 2.246074.572645 3.02539.988282 1.848012.985603 2.806641 3.047312 2.806641 5.351562 0 2.290277-.521996 5.145824-1.521485 8.689453l-12.509765 44.960938a137.29858 35.666948 0 0 0 10.064453-.126953l5.767578-21.117188a1.5317436 1.5317436 0 0 1 1.416016-1.121094 1.5317436 1.5317436 0 0 1 -.619141-1.675781l7.072266-25.867187v-.0059c.951054-3.5145 2.580471-6.267444 4.966797-8.03125a1.5317436 1.5317436 0 0 1 .02344-.01563c1.239311-.877843 2.700241-1.543331 4.361328-2.029297zm47.007812 0c.659017.161853 1.458571.20977 1.992188.507813 1.075124.600495 1.912109 1.782264 1.912109 3.035156 0 1.351739-.610716 2.569645-1.564453 3.941407-.953737 1.371761-2.312241 2.896879-4.089844 4.628906-3.556475 3.46528-8.288232 7.238827-14.203125 11.361328l-20.269531 14.134766a1.5317436 1.5317436 0 0 1 -.820313.273437 1.5317436 1.5317436 0 0 1 .464844.501953l11.982422 20.605469a137.29858 35.666948 0 0 0 9.724609-.701172l-12.61914-21.970703a1.5317436 1.5317436 0 0 1 .40625-1.986328l40.009766-30.146485a1.5317436 1.5317436 0 0 1 .008 0c2.728-2.046001 5.35116-3.31444 7.93555-4.185547z" fill="url(#a)" transform="scale(.26458334)"/></g></svg>