<svg viewBox="0 0 32 32" xmlns="http://www.w3.org/2000/svg" xmlns:xlink="http://www.w3.org/1999/xlink"><linearGradient id="a" gradientUnits="userSpaceOnUse" x1="7.193083" x2="7.189815" y1="21.443764" y2="8.02072"><stop offset="0" stop-color="#2a9240"/><stop offset="1" stop-color="#32d74b"/></linearGradient><linearGradient id="b" gradientUnits="userSpaceOnUse" x1="4" x2="4" y1="18.5" y2="3.5"><stop offset="0" stop-color="#4f4f4f"/><stop offset=".80000001" stop-color="#4f4f4f" stop-opacity=".498039"/><stop offset="1" stop-color="#b7b7b7"/></linearGradient><filter id="c" color-interpolation-filters="sRGB" height="1.082452" width="2.278" x="-.639" y="-.041226"><feGaussianBlur stdDeviation=".26625"/></filter><linearGradient id="d" gradientUnits="userSpaceOnUse" x1="28" x2="28" y1="21" y2="4"><stop offset="0" stop-color="#4f4f4f"/><stop offset=".88235295" stop-color="#4f4f4f" stop-opacity=".498039"/><stop offset="1" stop-color="#b7b7b7"/></linearGradient><filter id="e" color-interpolation-filters="sRGB" height="1.071" width="2.278" x="-.639" y="-.0355"><feGaussianBlur stdDeviation=".26625"/></filter><filter id="f" color-interpolation-filters="sRGB" height="1.168" width="1.126" x="-.063" y="-.084"><feGaussianBlur stdDeviation=".1575"/></filter><linearGradient id="g" gradientUnits="userSpaceOnUse" x1="17" x2="17" y1="27" y2="17"><stop offset="0" stop-color="#dadada"/><stop offset=".30000001" stop-color="#fff"/><stop offset="1" stop-color="#fff"/></linearGradient><path d="m4 3c-.554 0-1 .446-1 1v19.5l4.5 5.5h20.5c.554 0 1-.446 1-1v-24c0-.554-.446-1-1-1z" fill="#3e3e3e"/><path d="m9 18c-.554 0-1 .446-1 1v7c0 .554.446 1 1 1h4v-7h3v7h8c.554 0 1-.446 1-1v-7c0-.554-.446-1-1-1z" fill="url(#g)"/><rect fill="#fff" height="11" rx=".5" width="18" x="7" y="4"/><path d="m13 20h3v1h-3z" fill="#2a2a2a"/><path d="m8 6h16v1h-16z" fill="#bababa"/><path d="m8 8h16v1h-16z" fill="#bababa"/><rect fill="url(#b)" filter="url(#c)" height="20.5" rx=".351695" width="1.5" x="4" y="3.5"/><path d="m26.5 3.5h1.5v23.5h-1.5z" fill="url(#d)" filter="url(#e)"/><path d="m6 15h20.5v4c-.332428-1.585337-1.430373-1.690577-3-2.5h-17.5z" fill="#3b3b3b" filter="url(#f)"/><path d="m8 10h16v1h-16z" fill="#bababa"/><path d="m9 4h14v1h-14z" fill="#0a84ff"/><path d="m8 12h16v1h-16z" fill="#bababa"/><g transform="matrix(-1 0 0 1 32.002012 0)"><path d="m3 4.0019531v17.9394529c.4220115.01388.8488593-.08935 1.2167969-.376953l9.0156251-6.90625a1.0001 1.0001 0 0 0 .0098-.0059c.98902-.77634.992896-2.329987.0078-3.111328a1.0001 1.0001 0 0 0 0-.002l-8.9902564-7.1131938a1.0001 1.0001 0 0 0 -.00195 0c-.3577839-.2827126-.8025025-.4305534-1.2578156-.4238281z" fill="#fff" fill-opacity=".784314"/><path d="m3 4.9999998c-.52828.0163208-.9487708.4480364-.9511718.976563l-.033203 14.0253902c-.00176.818822.9408158 1.279662 1.5859376.77539l9.0239702-6.912741c.49901-.391702.500921-1.146793.0039-1.541016l-8.9907611-7.1126482c-.1814016-.1433407-.4075818-.2180426-.6386719-.210938z" fill="url(#a)"/></g></svg>