<svg viewBox="0 0 32 32" xmlns="http://www.w3.org/2000/svg"><g fill-rule="evenodd" transform="translate(0 2)"><path d="m3 7c-.676037.0000649-.999932.3502801-1 1l-.0332031 19.5.1757812-.009766.8496094-2.464843.0078125-17.025391h6l2 1.6054688v-1.3046876l-1.2382812-.9570312c-.229538-.2206308-.5405984-.3436899-.8652344-.34375z" fill="#f8db8f" transform="translate(0 -2)"/><g fill="#fafafa" transform="translate(2 -2)"><path d="m6 10c-.554 0-1 .446-1 1v6.314453l.2988281-1.148437c.2060481-.79211.2871507-1.03958.7011719-1.121094v-4.044922h5v-1z" transform="translate(-2)"/><path d="m5 12h4v1h-4z"/></g><g transform="translate(2 -2)"><path d="m12 3c-.554 0-1 .446-1 1v18c0 .554.446 1 1 1h14c.554 0 1-.446 1-1v-10.109375-3.640625-.2089844c0-.45068.098038-.4254122-.605469-1.0664062l-3.30664-3.2382813c-.709525-.736857-.710169-.7363281-1.09375-.7363281h-.332032-.662109zm0 1h9v4c0 .554.446 1 1 1h4v13h-14zm10 0 4 4h-4z" fill="#fafafa" transform="translate(-2)"/><path d="m11 7h4v5h-4z" fill="#a1ddaa"/><path d="m12 8h2v3h-2z" fill="#309048"/><path d="m17 10h5v5h-5z" fill="#83beec"/><path d="m18 11h3v4h-3z" fill="#0063b1"/><path d="m11 13h4v1h-4z" fill="#fafafa"/></g><path d="m1.9667969 26h1.2226562 22.0351559.775391l3.732422-11.832031c.36461-1.168055.363884-1.167969-.91211-1.167969h-2.820312-19.1347656c-1.2500514.0041-1.2623375-.002914-1.5664063 1.166016l-2.2988281 8.833984z" fill="#f8db8f"/><path d="m6.3964844 13.958984c-.031929.09815-.067721.223771-.1289063.458985a1.0001 1.0001 0 0 1 -.00195 0l-2.2988281 8.833984a1.0001 1.0001 0 0 1 -.021484.07422l-.5761754 1.673827h21.8554684.04297l3.470702-11h-2.738281-19.1308594-.0039062c-.5277722.003-.5639167.03521-.46875-.04102z" fill="#ed8733"/></g></svg>