<svg height="52" viewBox="0 0 60 52" width="60" xmlns="http://www.w3.org/2000/svg"><path d="m0 0h60v52h-60z" fill="#fafafa"/><path d="m4 25.001953c-.5511418.000155-.9978917.446905-.9980469.998047 0 7.719177 6.2788703 13.998047 13.9980469 13.998047.0013.000003.0026.000003.0039 0 1.857479-.0079 3.696132-.384296 5.40625-1.109375.506357-.215271.74308-.799654.529297-1.306641l-5.019525-11.96875c-.155721-.370296-.518215-.611189-.919922-.611328z" fill="#ed8733"/><path d="m4 26c0 7.179702 5.8202983 13 13 13 1.725026-.0073 3.431347-.35787 5.019531-1.03125l-5.019531-11.96875z" fill="#f8db8f"/><path d="m24.947266 14.476563c-.455179-.314011-1.078746-.199443-1.392579.255859l-7.378906 10.699219c-.193706.280614-.231243.640533-.09961.955078l5.019531 11.96875c.213362.510435.800332.750996 1.310547.537109 2.524046-1.056507 4.724222-2.871861 6.242187-5.148437 1.517967-2.276577 2.346701-5.005951 2.351564-7.742188v-.001953c-.0013-4.512559-2.337549-8.962072-6.052734-11.523437z" fill="#0063b1"/><path d="m24.378906 15.300781-7.378906 10.699219 5.019531 11.96875c4.826273-2.020166 7.971171-6.736744 7.980469-11.96875-.001205-4.273536-2.102696-8.273525-5.621094-10.699219z" fill="#83beec"/><path d="m17 12.001953c-3.664689 0-7.3071109 1.508283-9.8984375 4.099609-2.5913266 2.591327-4.0996094 6.233749-4.0996094 9.898438.000082.551172.4468748.997965.9980469.998047h13c.328405.000142.63587-.161258.822266-.431641l7.378906-10.699218c.312976-.454091.198401-1.075943-.25586-1.388672-2.318284-1.599999-5.128499-2.475411-7.945312-2.476563z" fill="#3a3a38"/><path d="m17 13c-7.1797017 0-13 5.820298-13 13h13l7.378906-10.699219c-2.169485-1.497302-4.742891-2.299703-7.378906-2.300781z" fill="#797774"/><path d="m21.597656 12.794922c1.158054.403082 2.265804.948158 3.279297 1.638672l20.736328 3.939453a8 8 0 0 1 2.386719-.373047 8 8 0 0 1 .992188.064453l.007812-.064453z" fill="#3a3a38"/><path d="m45.308594 33.513672-20.429688 4.02539c-.77748.531378-1.603808.989837-2.472656 1.353516-.008386.003515-.016966.004542-.025391.007813-.264107.111274-.532946.210072-.802734.304687l26.421875-5.205078a8 8 0 0 1 -2.691406-.486328z" fill="#3a3a38"/><path d="m48 18.001953a.9987674.9987674 0 0 0 -.998047.998047v7a.9987674.9987674 0 0 0 .363281.771484l5.396485 4.44336a.9987674.9987674 0 0 0 1.404297-.134766c1.168937-1.414859 1.828064-3.242852 1.832031-5.078125a.9987674.9987674 0 0 0 0-.002c0-2.094044-.861084-4.175537-2.341797-5.65625-1.480713-1.480666-3.562206-2.34175-5.65625-2.34175z" fill="#309048"/><path d="m48 19v7l5.396484 4.443359a7 7 0 0 0 1.603516-4.443359 7 7 0 0 0 -7-7z" fill="#a1ddaa"/><g stroke-width=".875"><path d="m48 18.005859c-4.403527 0-7.994141 3.590614-7.994141 7.994141s3.590614 7.994141 7.994141 7.994141a.99472944.99472944 0 0 0 .002 0c2.386678-.0042 4.649094-1.075732 6.164063-2.919922a.99472944.99472944 0 0 0 -.136766-1.398438l-5.035156-4.144531v-6.53125a.99472944.99472944 0 0 0 -.994141-.994141z" fill="#922e9b"/><path d="m48 19c-3.865993 0-7 3.134007-7 7s3.134007 7 7 7c2.09033-.0037 4.069616-.941428 5.396484-2.556641l-5.396484-4.443359z" fill="#d492d8"/></g></svg>