<svg viewBox="0 0 16 16" xmlns="http://www.w3.org/2000/svg"><g fill="#efefef"><path d="m5.75 6c-.4142132 0-.75.3357868-.75.75.0009252.1751365.063114.3444273.1757812.4785156l-.00195.00195.00977.00977 2.3632738 2.4902334c.1808954.179832.2456908.271683.453125.269531.2074342.002152.2722296-.089698.453125-.269531l2.363281-2.4902346.0098-.00977-.002-.00195c.112684-.1340871.174869-.3033779.175794-.4785144 0-.4142132-.335786-.75-.75-.75-.19083-.0001068-.374525.072533-.5136719.203125-.014898.013737-.029233.028072-.042969.042969l-.011719.013672c-.00396.00451-.00787.00907-.011719.013672l-1.6699211 1.726562-1.6699219-1.7265625c-.00385-.0046-.00776-.00916-.011719-.013672l-.0117185-.0136717c-.0137365-.0148975-.0280712-.0292322-.0429687-.0429688-.1391469-.130592-.3228419-.2032318-.5136719-.203125z"/><path d="m5 0c-1.644701 0-3 1.3553-3 3v9c0 1.6447 1.355299 3 3 3h6c1.644701 0 3-1.3553 3-3v-7.5a1.0001 1.0001 0 0 0 -.292969-.70703l-3.5-3.5a1.0001 1.0001 0 0 0 -.707031-.29297zm0 2h4v1.5c0 1 .5 1.5 1.5 1.5h1.5v7c0 .5713-.428703 1-1 1h-6c-.571297 0-1-.4287-1-1v-9c0-.5713.428703-1 1-1z"/></g></svg>