<svg height="24" width="24" xmlns="http://www.w3.org/2000/svg" xmlns:xlink="http://www.w3.org/1999/xlink"><linearGradient id="a" gradientTransform="matrix(.33333327 0 0 .32971018 -10.44063 6.352157)" gradientUnits="userSpaceOnUse" x1="62.988873" x2="62.988873" y1="11.645091" y2="15.385052"><stop offset="0" stop-color="#fff"/><stop offset="1" stop-color="#d8d8d8"/></linearGradient><linearGradient id="b" gradientTransform="matrix(.89189031 0 0 .94046961 10.14398 12.346537)" gradientUnits="userSpaceOnUse" x1="11.350123" x2="11.350123" y1=".666966" y2="8.172179"><stop offset="0" stop-color="#fff"/><stop offset=".0097359" stop-color="#fff" stop-opacity=".235294"/><stop offset=".99001008" stop-color="#fff" stop-opacity=".156863"/><stop offset="1" stop-color="#fff" stop-opacity=".392157"/></linearGradient><linearGradient id="c" gradientTransform="matrix(.50413225 0 0 .49333391 100.64025 -17.864023)" gradientUnits="userSpaceOnUse" x1="-162.6788" x2="-162.6788" y1="58.56691" y2="80.030975"><stop offset="0" stop-color="#efdfc4"/><stop offset="1" stop-color="#e7c591"/></linearGradient><path d="m2.1246235 4.1370482c-.1805394.2172796-.1246235.5314927-.1246235.8629518v2c0 .554.223 1 .5 1s.5-.446.5-1v-2h1.25c.4155 0 .75-.223.75-.5s-.3345-.5-.75-.5h-1.5c-.197693.0172294-.444837-.0802314-.6253765.1370482zm5.6253765-.1370482c-.4155 0-.75.223-.75.5s.3345.5.75.5h1.5c.4155 0 .75-.223.75-.5s-.3345-.5-.75-.5zm5 0c-.4155 0-.75.223-.75.5s.3345.5.75.5h1.5c.4155 0 .75-.223.75-.5s-.3345-.5-.75-.5zm4.75 0c-.277 0-.5.223-.5.5s.223.5.5.5h.5v1.25c0 .4155.223.75.5.75s.5-.3345.5-.75c-.003314-.5741535 0-1.2026168 0-1.75 0-.277-.223-.5-.5-.5zm1 5c-.277 0-.5 1-.5 1h1s-.223-1-.5-1zm-16 1c-.277 0-.5.3345-.5.75v1.5c0 .4155.223.75.5.75s.5-.3345.5-.75v-1.5c0-.4155-.223-.75-.5-.75zm16 4c-.277 0-.5.446-.5 1v2h-1.25c-.4155 0-.75.223-.75.5s.3345.5.75.5h1.5c.08107 0 .145728-.01553.21875-.03125.013559.002188.0174.03125.03125.03125.06925 0 .127641-.04328.1875-.09375.186084-.090816.3125-.24005.3125-.40625 0-.045012-.014672-.083565-.03125-.125.025234-.119719.03125-.2365.03125-.375v-2c0-.554-.223-1-.5-1zm-16 1c-.277 0-.5.3345-.5.75.00331.574154 0 1.202617 0 1.75 0 .277.223.5.5.5h1c.277 0 .5-.223.5-.5s-.223-.5-.5-.5h-.5v-1.25c0-.4155-.223-.75-.5-.75zm5.25 2c-.4155 0-.75.223-.75.5s.3345.5.75.5h.5c.4155 0 .75-.223.75-.5s-.3345-.5-.75-.5zm4 0c-.4155 0-.75.223-.75.5s.3345.5.75.5h1.5c.4155 0 .75-.223.75-.5s-.3345-.5-.75-.5z" fill="#fff" opacity=".3"/><path d="m2.1246235 3.1370482c-.1805394.2172796-.1246235.5314927-.1246235.8629518v2c0 .554.223 1 .5 1s.5-.446.5-1v-2h1.25c.4155 0 .75-.223.75-.5s-.3345-.5-.75-.5h-1.5c-.197693.0172294-.444837-.0802314-.6253765.1370482zm5.6253765-.1370482c-.4155 0-.75.223-.75.5s.3345.5.75.5h1.5c.4155 0 .75-.223.75-.5s-.3345-.5-.75-.5zm5 0c-.4155 0-.75.223-.75.5s.3345.5.75.5h1.5c.4155 0 .75-.223.75-.5s-.3345-.5-.75-.5zm4.75 0c-.277 0-.5.223-.5.5s.223.5.5.5h.5v1.25c0 .4155.223.75.5.75s.5-.3345.5-.75c-.003314-.5741535 0-1.2026168 0-1.75 0-.277-.223-.5-.5-.5zm1 5c-.277 0-.5 1-.5 1h1s-.223-1-.5-1zm-16 1c-.277 0-.5.3345-.5.75v1.5c0 .4155.223.75.5.75s.5-.3345.5-.75v-1.5c0-.4155-.223-.75-.5-.75zm0 5c-.277 0-.5.3345-.5.75.00331.574154 0 1.202617 0 1.75 0 .277.223.5.5.5h1c.277 0 .5-.223.5-.5s-.223-.5-.5-.5h-.5v-1.25c0-.4155-.223-.75-.5-.75zm5.25 2c-.4155 0-.75.223-.75.5s.3345.5.75.5h.5c.4155 0 .75-.223.75-.5s-.3345-.5-.75-.5z" opacity=".5"/><path d="m22.5 10.999667v-1.273334c0-.138499-.08818-.226333-.22668-.226333h-6.77332v-.742083c0-.1385-.08818-.257917-.22668-.257917h-6.5c-.1385 0-.27332.119417-.27332.257917v.742083h-.727c-.1385 0-.273.088167-.273.226667v1.273333" fill="none" opacity=".5" stroke="#7e8087" stroke-linecap="square"/><path d="m9 9v1h-1v4h14v-4h-7v-1z" fill="url(#a)"/><path d="m7.5 11.5h15v10h-15z" fill="url(#c)" stroke="#987124" stroke-linejoin="round" stroke-opacity=".498039"/><path d="m8.5 12.5h13v8h-13z" fill="none" opacity=".5" stroke="url(#b)" stroke-linecap="round"/></svg>