<svg height="24" width="24" xmlns="http://www.w3.org/2000/svg" xmlns:xlink="http://www.w3.org/1999/xlink"><linearGradient id="a"><stop offset="0"/><stop offset="1" stop-opacity="0"/></linearGradient><linearGradient id="b" gradientTransform="matrix(.62762637 0 0 .7245642 2.973068 4.627368)" gradientUnits="userSpaceOnUse" x1="27.557428" x2="27.557428" y1="6.034844" y2="21.386522"><stop offset="0" stop-color="#fff"/><stop offset=".0097359" stop-color="#fff" stop-opacity=".235294"/><stop offset=".99001008" stop-color="#fff" stop-opacity=".156863"/><stop offset="1" stop-color="#fff" stop-opacity=".392157"/></linearGradient><linearGradient id="c" gradientTransform="matrix(.43131243 0 0 .48638011 1.989858 3.185408)" gradientUnits="userSpaceOnUse" x1="21.37039" x2="21.37039" y1="4.73244" y2="34.143417"><stop offset="0" stop-color="#fff"/><stop offset=".1106325" stop-color="#fff" stop-opacity=".235294"/><stop offset=".99001008" stop-color="#fff" stop-opacity=".156863"/><stop offset="1" stop-color="#fff" stop-opacity=".392157"/></linearGradient><linearGradient id="d" gradientTransform="matrix(.49096263 0 0 .48984879 -24.706222 .287238)" gradientUnits="userSpaceOnUse" x1="62.988873" x2="62.988873" y1="13" y2="16"><stop offset="0" stop-color="#f9f9f9"/><stop offset="1" stop-color="#d8d8d8"/></linearGradient><linearGradient id="e" gradientTransform="matrix(2.774389 0 0 1.969706 -1892.179 -872.8854)" gradientUnits="userSpaceOnUse" x1="302.85715" x2="302.85715" y1="366.64789" y2="609.50507"><stop offset="0" stop-opacity="0"/><stop offset=".5"/><stop offset="1" stop-opacity="0"/></linearGradient><radialGradient id="f" cx="605.71429" cy="486.64789" gradientTransform="matrix(2.774389 0 0 1.969706 -1891.633 -872.8854)" gradientUnits="userSpaceOnUse" r="117.14286" xlink:href="#a"/><radialGradient id="g" cx="605.71429" cy="486.64789" gradientTransform="matrix(-2.774389 0 0 1.969706 112.7623 -872.8854)" gradientUnits="userSpaceOnUse" r="117.14286" xlink:href="#a"/><linearGradient id="h" gradientUnits="userSpaceOnUse" x1="13" x2="13" y1="9" y2="21"><stop offset="0" stop-color="#b4cee1"/><stop offset="1" stop-color="#5d9fcd"/></linearGradient><linearGradient id="i" gradientUnits="userSpaceOnUse" x1="12" x2="12" xlink:href="#a" y1="24" y2="19"/><g stroke-width="104.962379" transform="matrix(.01182013 0 0 .0076791 22.513248 20.483864)"><path d="m-1559.2523-150.69685h1339.6335v478.35718h-1339.6335z" fill="url(#e)" opacity=".402062"/><path d="m-219.61876-150.68038v478.33079c142.874166.90045 345.40022-107.16966 345.40014-239.196175 0-132.026537-159.436816-239.134595-345.40014-239.134615z" fill="url(#f)" opacity=".402062"/><path d="m-1559.2523-150.68038v478.33079c-142.8742.90045-345.4002-107.16966-345.4002-239.196175 0-132.026537 159.4368-239.134595 345.4002-239.134615z" fill="url(#g)" opacity=".402062"/></g><path d="m3.0362982 3.5043839c-.277 0-.5.223-.5.5v1.495614h-.5c-.277 0-.5.223-.5.5v1.76465h20.9999998v-1.76465c0-.277-.223-.5-.5-.5h-11.5v-1.495614c0-.277-.223-.5-.5-.5z" fill="none" opacity=".3" stroke="#000"/><path d="m3.0362982 3.9999979v2h-1v3h19.9999998v-3h-12v-2z" fill="url(#d)"/><path d="m3.5362982 4.4999979v2h-1v2.33929h18.9999998v-2.33929h-11.9999998v-2z" fill="none" stroke="url(#c)" stroke-linecap="round"/><path d="m1.5 7.5v.5 10.000264l.25 3.499736h20.5l.25-3.499736v-10.500264z" fill="url(#h)" stroke="#000" stroke-linejoin="round" stroke-opacity=".301961"/><path d="m1.5 7c-.276131.0000276-.499972.2238691-.5.5v.5l.25 13.5c.000028.276131.223869.499972.5.5h20.5c.276131-.000028.499972-.223869.5-.5l.25-14c-.000028-.2761309-.223869-.4999724-.5-.5z" fill="url(#i)" opacity=".3"/><path d="m2.5 8.4999979-.0537632 9.5049191.3037632 2.495081h18.5l.258854-2.444262-.008854-9.5557381z" fill="none" opacity=".5" stroke="url(#b)" stroke-linecap="round"/></svg>