<svg height="24" width="24" xmlns="http://www.w3.org/2000/svg" xmlns:xlink="http://www.w3.org/1999/xlink"><linearGradient id="a"><stop offset="0" stop-color="#181818"/><stop offset="1" stop-color="#181818" stop-opacity="0"/></linearGradient><linearGradient id="b" gradientTransform="matrix(.80749686 0 0 .89471714 -41.857158 -26.833462)" gradientUnits="userSpaceOnUse" x1="70.385941" x2="70.411758" y1="51.425007" y2="31.108715"><stop offset="0" stop-opacity=".317829"/><stop offset="1" stop-opacity=".24031"/></linearGradient><linearGradient id="c" gradientTransform="matrix(.45975024 0 0 .44257234 -22.023102 -2.129396)" gradientUnits="userSpaceOnUse" x1="74.838791" x2="74.838791" y1="4.535933" y2="49.779099"><stop offset="0" stop-color="#f4f4f4"/><stop offset="1" stop-color="#dbdbdb"/></linearGradient><linearGradient id="d" gradientTransform="matrix(.45945947 0 0 .45945945 .973087 -2.027051)" gradientUnits="userSpaceOnUse" x1="35.481865" x2="35.481865" y1="11.025123" y2="43.522266"><stop offset="0" stop-color="#fff"/><stop offset=".03162756" stop-color="#fff" stop-opacity=".235294"/><stop offset=".96216732" stop-color="#fff" stop-opacity=".156863"/><stop offset="1" stop-color="#fff" stop-opacity=".392157"/></linearGradient><radialGradient id="e" cx="4.992979" cy="43.5" gradientTransform="matrix(2.003784 0 0 1.4 27.98813 -17.4)" gradientUnits="userSpaceOnUse" r="2.5" xlink:href="#a"/><radialGradient id="f" cx="4.992979" cy="43.5" gradientTransform="matrix(2.003784 0 0 1.4 -20.01187 -104.4)" gradientUnits="userSpaceOnUse" r="2.5" xlink:href="#a"/><linearGradient id="g" gradientUnits="userSpaceOnUse" x1="25.058096" x2="25.058096" y1="47.027729" y2="39.999443"><stop offset="0" stop-color="#181818" stop-opacity="0"/><stop offset=".5" stop-color="#181818"/><stop offset="1" stop-color="#181818" stop-opacity="0"/></linearGradient><linearGradient id="h" gradientTransform="matrix(.55719872 0 0 .39466737 6.236914 -24.686544)" gradientUnits="userSpaceOnUse" x1="4.95909" x2="5.456163" y1="82.820587" y2="109.42528"><stop offset="0" stop-color="#efdfc4"/><stop offset="1" stop-color="#e7c591"/></linearGradient><linearGradient id="i" gradientTransform="matrix(.51351359 0 0 .27027038 -.324205 6.013549)" gradientUnits="userSpaceOnUse" x1="23.999983" x2="23.999983" y1="14.750007" y2="36.949997"><stop offset="0" stop-color="#fff"/><stop offset=".11101896" stop-color="#fff" stop-opacity=".235294"/><stop offset=".88898611" stop-color="#fff" stop-opacity=".156863"/><stop offset="1" stop-color="#fff" stop-opacity=".392157"/></linearGradient><linearGradient id="j" gradientTransform="matrix(.45945947 0 0 .45945945 .9732 -2.026985)" gradientUnits="userSpaceOnUse" x1="9.289279" x2="9.289279" y1="6.578903" y2="43.588367"><stop offset="0" stop-color="#fff"/><stop offset=".02963983" stop-color="#fff" stop-opacity=".235294"/><stop offset=".96216732" stop-color="#fff" stop-opacity=".156863"/><stop offset="1" stop-color="#fff" stop-opacity=".392157"/></linearGradient><linearGradient id="k" gradientUnits="userSpaceOnUse" x1="1201" x2="1223.0884" xlink:href="#l" y1="-628.23541" y2="-628.23541"/><linearGradient id="l"><stop offset="0" stop-color="#474747" stop-opacity="0"/><stop offset=".1" stop-color="#474747"/><stop offset=".9" stop-color="#474747"/><stop offset="1" stop-color="#474747" stop-opacity="0"/></linearGradient><linearGradient id="m" gradientUnits="userSpaceOnUse" x1="1201" x2="1223" xlink:href="#l" y1="-630.23529" y2="-630.23529"/><linearGradient id="n" gradientTransform="matrix(1.6496818 0 0 .09123999 1197.9894 -639.98526)" gradientUnits="userSpaceOnUse" x1="1.642" x2="15.343" y1="117.827" y2="117.827"><stop offset="0" stop-color="#fff" stop-opacity="0"/><stop offset=".108" stop-color="#d9d9d9"/><stop offset=".921" stop-color="#d9d9d9"/><stop offset="1" stop-color="#fff" stop-opacity="0"/></linearGradient><linearGradient id="o" gradientUnits="userSpaceOnUse" x1="1212" x2="1212" y1="-630.73529" y2="-625.23529"><stop offset="0" stop-color="#7a7a7a"/><stop offset=".198" stop-color="#ebebeb"/><stop offset=".599" stop-color="#b9b9b9"/><stop offset="1" stop-color="#878787"/></linearGradient><g enable-background="new" transform="translate(-1199.9999 649.73533)"><path d="m1201-628.73529h22v1.00978h-22z" display="block" fill="url(#k)" opacity=".65"/><path d="m1201-630.73529h22v1h-22z" display="block" fill="url(#m)" opacity=".65"/><g fill="#d9d9d9" stroke="#828282"><path d="m1211.2241-635.23426c-.4034 0-.7241.28069-.7241.6338v4.36517h3v-4.36517c0-.35311-.3207-.6338-.7241-.6338z" display="block"/><path d="m1211-633.44946h2v2.71421h-2z" opacity=".174"/></g><path d="m1201-629.73528h22v.99999h-22z" display="block" fill="url(#n)" stroke-width="3.38034"/><rect fill="url(#o)" height="4" rx="1" ry=".999999" stroke="#5a5c58" stroke-linecap="round" stroke-linejoin="round" width="7.000001" x="1208.5" y="-631.23529"/><path d="m1210.537-630.23529h3.963c.277 0 .5.15987.5.36019v.99999c0 .19993-.223.35981-.5.35981h-3.963c-.277 0-.5-.15988-.5-.35981v-.99999c0-.19994.223-.36019.5-.36019z" display="block" fill="#fff" fill-opacity=".72" stroke-width="3.77953"/><circle cx="1210.0933" cy="-629.64209" fill="#f8f8f8" r=".59322"/></g><g transform="matrix(.5789476 0 0 .42857134 -1.894634 -1.142814)"><path d="m38 40h5v7h-5z" fill="url(#e)" opacity=".3"/><path d="m-10-47h5v7h-5z" fill="url(#f)" opacity=".3" transform="scale(-1)"/><path d="m10 40h28v7.000001h-28z" fill="url(#g)" opacity=".3"/></g><path d="m3.5 1.9999732c-.8914832 0-1.5.6553051-1.5 1.5000658v8.499976h20.000448v-6.4844168c0-.8447607-.687223-1.5214844-1.578708-1.5214844h-7.921627c-1.045113 0-1.650385-.1916435-3.0290546-1.5703125-.2826973-.2618091-.6636457-.4238281-1.0947528-.4238281z" fill="url(#c)"/><path d="m12.000113 4.4941138c-.897291.0163433-1.778427-.6633329-2.5985711-1.4357464-.4713726-.4455314-.7264471-.5583942-1.0283822-.5583942h-4.8008941c-.6268442 0-1.0722656.4500002-1.0722656 1.0136719v8.9864189" fill="none" stroke="url(#j)" stroke-linecap="round" stroke-linejoin="round"/><rect fill-opacity=".05" height="8" rx="2.5" width="20" x="2.000113" y="4.500039"/><rect fill-opacity=".03" height="8" rx="2.5" width="20" x="2.000113" y="6.000039"/><path d="m21.500113 10.500064v-5.000025c0-.5636715-.373154-1-1-1h-9" fill="none" stroke="url(#d)" stroke-linecap="round" stroke-linejoin="round"/><path d="m22.500113 10.000048v-4.500009c0-1.115922-.851742-2-2.000038-2h-7.999962c-1.361541 0-1.916897-.7026353-2.696683-1.445852-.3714688-.343723-.8748155-.554187-1.4306058-.554187h-4.8728242c-1.1482956 0-2.0000399.884117-2.0000399 2.000039v6.499976" fill="none" stroke="url(#b)" stroke-linejoin="round"/><rect fill="url(#h)" height="9" rx="2.5" stroke="#987124" stroke-opacity=".498039" stroke-width=".999994" width="21" x="1.500113" y="8.500039"/><rect height="7" rx="1.5" style="opacity:.5;fill:none;stroke-width:.999998;stroke-linecap:round;stroke-linejoin:round;stroke:url(#i)" width="19" x="2.500113" y="9.500039"/></svg>