<svg height="24" viewBox="0 0 24 24" width="24" xmlns="http://www.w3.org/2000/svg"><path d="m7 8v7h3.5c.828427 0 1.5-.671573 1.5-1.5v-1c-.00077-.369335-.137772-.725403-.384766-1 .246994-.274597.383996-.630665.384766-1v-1c0-.8284271-.671573-1.5-1.5-1.5h-2.5zm9 0-3 4v1h3v2h1v-2h1v-1h-1v-4zm-8 1h2.5c.276142 0 .5.2238576.5.5v1c0 .276142-.223858.5-.5.5h-2.5zm8 .5v2.5h-2zm-8 2.5h2.5c.276142 0 .5.223858.5.5v1c0 .276142-.223858.5-.5.5h-2.5zm15-5c0-1.6619983-1.338002-3-3-3h-16c-1.661998 0-3 1.3380017-3 3v10c0 1.661998 1.338002 3 3 3h16c1.661998 0 3-1.338002 3-3zm-2 .5v9c0 .830999-.669001 1.5-1.5 1.5h-15c-.830999 0-1.5-.669001-1.5-1.5v-9c0-.8309992.669001-1.5 1.5-1.5h15c.830999 0 1.5.6690008 1.5 1.5z" fill="#efefef"/></svg>