<svg height="24" viewBox="0 0 24 24" width="24" xmlns="http://www.w3.org/2000/svg"><path d="m6 8v7h1 2.5c.828427 0 1.5-.671573 1.5-1.5v-1c-.00077-.369335-.137772-.725403-.384766-1 .246994-.274597.383996-.630665.384766-1v-1c0-.8284271-.671573-1.5-1.5-1.5h-2.5zm6 0v1 3h1 2.5c.276142 0 .5.223858.5.5v1c0 .276142-.223858.5-.5.5h-3.5v1h3.5c.828427 0 1.5-.671573 1.5-1.5v-1c0-.171207-.03507-.333063-.08789-.486328-.0015-.0043-.000311-.0093-.002-.01367h-.002c-.206313-.581351-.755895-1.000002-1.40811-1.000002h-2.5v-2h3v-1zm-5 1h2.5c.276142 0 .5.2238576.5.5v1c0 .276142-.223858.5-.5.5h-2.5zm0 3h2.5c.276142 0 .5.223858.5.5v1c0 .276142-.223858.5-.5.5h-2.5zm10 11c1.661998 0 3-1.338002 3-3v-16c0-1.661998-1.338002-3-3-3h-11c-1.661998 0-3 1.338002-3 3v16c0 1.661998 1.338002 3 3 3zm-.5-2h-10c-.830999 0-1.5-.669001-1.5-1.5v-15c0-.830999.669001-1.5 1.5-1.5h10c.830999 0 1.5.669001 1.5 1.5v15c0 .830999-.669001 1.5-1.5 1.5z" fill="#efefef"/></svg>