<svg viewBox="0 0 24 24" xmlns="http://www.w3.org/2000/svg"><g fill="#2e3436"><path d="m4 21h16v2h-16z" stroke-width="1.14354"/><path d="m7 2a1 1 0 0 0 -1 1v4.9453125c0 2.7597625.9901572 4.3092495 2.6152344 4.8769535.9765994.306747 1.6140976.410659 2.9121096.3125 1.310373-.09816 2.976851-.343692 4.472656-.736328v6.601562a1 1 0 0 0 1 1 1 1 0 0 0 1-1v-16a1 1 0 0 0 -1-1 1 1 0 0 0 -1 1v7.134766c-1.22384.294477-2.5683.484422-3.507812.570312-.927153.07362-1.9711.01803-2.601563-.166016-.6181013-.196317-1.0867908-.538499-1.4082031-1.0292964-.3214126-.5030671-.4824219-1.1840739-.4824219-2.0429687v-4.4667969a1 1 0 0 0 -1-1z"/></g></svg>