<svg viewBox="0 0 16 16" xmlns="http://www.w3.org/2000/svg"><path d="m1.9082031 2c-.7292272-.0000947-1.32040747.5910856-1.32031248 1.3203125.000779.1652576.03249907.3288996.09375.4824219l-.00195312.0019531-.00976562-.0078125 1.31445312 2.6269531c.1648748.314198.3318634.5664127.5039062.7597657.1720429.1933524.3812733.3461953.625.4589843-.3369136.1208455-.6104745.2995692-.8183593.5332031-.2150538.2255781-.4034796.5146986-.5683594.8691407l-1.29882812 2.8906251-.00390626.009765c-.0962239.194303-.14634937.408177-.14648437.625.000087.778772.63138503 1.410069 1.41015625 1.410157.2784207-.001206.5502562-.084795.78125-.240235l.0195312.017578c.2508958-.169179.4555795-.430674.6132813-.785156l1.2578125-3.2499998c.1075269-.2819722.2602207-.3708543.4609375-.5078124.1935438-.136959.4151609-.2007782.6660156-.2050782l.5136719-.0097656.0019531 3.666016c-.000561.727012.7710586 1.328084 1.4980469 1.333984.7269882-.0059 1.4986075-.606972 1.4980469-1.333984l.0019531-3.666016.5136719.0097656c.2508547.0043.4724718.0681192.6660161.2050782.200716.1369581.35341.2258402.460937.5078124l1.257813 3.2499998c.157701.354482.362385.615977.613281.785156l.019531-.017578c.230994.15544.502829.239029.78125.240235.778771-.000088 1.410069-.631385 1.410156-1.410157-.000135-.216823-.05026-.430697-.146484-.625l-.003906-.009765-1.298828-2.8906251c-.16488-.3544421-.353306-.6435626-.56836-.8691407-.207885-.2336339-.481446-.4123576-.818359-.5332031.243727-.112789.452957-.2656319.625-.4589843.172043-.193353.339031-.4455677.503906-.7597657l1.314453-2.6269531-.009766.0078125-.001953-.0019531c.061251-.1535223.092971-.3171643.09375-.4824219.000095-.7292269-.591085-1.3204072-1.320312-1.3203125-.619014.00221-1.153363.4342383-1.285156 1.0390625l-1.404297 3.1308594c-.107527.2497467-.24138.5490765-.4062502.6699219-.1648739.1127889-.3839405.1769762-.65625.1699218l-.3398438-.0097656-.0019531-3.6855469c.0005605-.7270117-.7710588-1.3085514-1.4980469-1.3144531-.7269883.0059017-1.4986079.5874414-1.4980469 1.3144531l-.0019531 3.6855469-.3398438.0097656c-.2723097.0070544-.4913761-.0571329-.65625-.1699218-.1648698-.1208454-.2987231-.4201752-.40625-.6699219l-1.4042968-3.1308594c-.1317939-.6048242-.6661429-1.0368525-1.2851563-1.0390625z" fill="#2e3436"/></svg>