<svg viewBox="0 0 24 24" xmlns="http://www.w3.org/2000/svg"><path d="m4 4v1 3 1.28125 2.71875 4 1.28125 1.71875 1h1 .28125 1.4375 2.28125 1v-1-3-4-4-3-1h-1-4zm1 1h3.28125l-3.28125 3.28125v-.28125zm4 .71875v2.28125.28125l-3.71875 3.71875-.28125.28125v-.28125-2.28125zm0 4v2.28125.28125l-3.71875 3.71875-.28125.28125v-.28125-2.28125l1.71875-1.71875zm0 4v2.28125.28125l-2.71875 2.71875h-1.28125v-1.28125l1.71875-1.71875zm0 4v1.28125h-1.28125z" fill="#3daee9"/><path d="m10 4v1h9v14h-9v1h9 1v-1-15z" fill="#eff0f1"/><path d="m13 9v6l4-3z" fill="#3daee9"/></svg>