<svg height="24" width="24" xmlns="http://www.w3.org/2000/svg"><path d="m12 3a9 9 0 0 0 -9 9 9 9 0 0 0 9 9 9 9 0 0 0 9-9 9 9 0 0 0 -9-9zm-.013672 1h.001953.001953l.001954.0019531c-.203415 0-.407779.0121539-.611329.0234375a8 8 0 0 1 .605469-.0253906zm.013672 0a8 8 0 0 1 3.6875.90625c-.194969-.0991047-.390337-.1789754-.595703-.2636719-.18963-.08113-.373843-.1497437-.570313-.2148437-.10739-.03539-.212595-.0765219-.322265-.1074219-.18505-.05241-.380673-.1025781-.570313-.1425781h-.035156c-.20104-.0412-.401792-.0811219-.607422-.1074219-.326773-.0406395-.649819-.0694896-.986328-.0703125zm-.900391.0605469c.000778.0047333.001667.0117187 0 .0117187-.02627.0137-.171443.0837656-.214843.0722656-.0114-.0010999-.029157-.0156562-.035157-.0351562-.07311.0102-.142843.0225562-.214843.0351562.0366.03549.106422.0548219.107422.1074219.003439.10282-.054579.1139344-.142579.1777344-.06396-.0263-.132543-.0607656-.214843-.0722656-.0492.05831.077356.0683781.035156.1425781-.12223.025-.210306-.0379656-.322266-.0722656-.03541-.0115-.078722.0161-.1074216 0-.04349-.02513-.0718219-.1048782-.1074219-.1425782a8 8 0 0 1 1.2167965-.2246093zm-1.2187496.2265625c-.0240578.0071359-.0440961.0220864-.0683594.0332031-.0551307.0154439-.110454.0288943-.1660156.0410156a8 8 0 0 1 .234375-.0742187zm-.2480469.1757812c.07425.01028.1217344.1023313.1777344.1445313.0492.0389.0948218.0200125.1074219.0703125-.0148.0843-.0792657.0997875-.0722657.1796875.00571.07072.0708219.0959219.1074219.1074219.05598.0103.158844-.0107094.214844-.0371094.10282-.04798.1643-.1960344.25-.1777344.0675.01486.132178.2457656.142578.3222656.0115.08329-.005.1375907 0 .2128906.01029.1278201.1701.1122875.25.1796876.0239.0204899.015656.0811218.035156.1074218.03879.0513.100422.0526219.107422.1074219.01371.13137-.120022.1378963-.107422.2851563-.02749.05712-.113422.0660781-.107422.1425781.00915.12349.205053.0137218.251953.1074219.0251.0513999-.018709.0705781-.037109.1425781.0593.07188.068804.2148437-.035156.2148437-.0628 0-.078578-.0913218-.142578-.1074218-.03541-.0137-.096979.0114999-.142579 0-.038799-.0068-.070921-.0351563-.107421-.0351563-.09481-.0103-.1939.0196438-.25-.0351563.09025-.12098.203782-.2534518.320312-.3574218.0353-.03209.090566-.0458219.072266-.1074219-.06509-.0571-.116135.0009562-.177735.0351563-.06511.0366099-.142843.0959218-.214843.1074218-.12563.0171-.3249048-.0322437-.4277348.0351563-.0136999.05819.1258219.0205218.1074219.1074219-.0503.0114999-.1057312.0353999-.1445312 0-.0354-.0320901-.0122563-.0879219-.0351563-.1074219-.03884-.0239-.1849-.0466563-.25-.0351563-.08011.01257-.1321781.0739782-.1425781.1425782.09596.0444999.2509563-.0431244.2851563.0722656-.05255.09472-.1949344.12319-.1777344.25.00681.04901.0652219.1310781.1074218.1425781.0423001.0079.0663219-.0351563.1074219-.0351563.0434.0047.0571219.0466563.1074219.0351563.07309-.03209.0931344-.1074219.1777344-.1074219.1016696.12326-.0703444.1760438-.1777344.2148438-.12224.04461-.3000781.0685218-.3925781.1074218-.04912.0206-.2237.1734063-.25.0351563-.01825-.0993.0845219-.0602781.1074219-.1425781-.1176501-.02285-.2148557.0663218-.3222657.1074218-.15308.05815-.4262906.0774801-.4628906.25-.007.0341501.0229.1196782 0 .1425782-.01828.0182-.1296344.0190562-.1777344.0351562-.07309.0263-.1339875.0596656-.1796875.0722656-.03429.0159-.0857218.0236563-.1074218.0351563-.0604901.02399-.0728782.0877781-.1425782.1425781-.0286.0227-.0845219.0493656-.1074218.0722656-.03997.03875-.0728782.1276782-.1425782.1425782-.04469 0-.0652219-.0252-.1074218 0-.005.09711.0421999.2220125 0 .3203125-.09025.07301-.2049226.1145875-.3203126.1796875-.0639499.03549-.1012343.0686218-.1777343.1074218-.05481.0286-.1168875.0697219-.1796875.1074219-.14507.08568-.3213125.2107744-.3203125.4277344 0 .04689.0281562.0878781.0351562.1425781.005.0321-.002.0720219 0 .1074219.0103.07985.0674.1601437 0 .2148437-.10282-.0434999-.2484125-.0343218-.3203125-.1074218-.0194-.07529.0431563-.1462438.0351563-.2148438-.00686-.05483-.0968781-.1662344-.1425781-.1777344-.0468901-.0067999-.0593219.0722657-.1074219.0722657-.05711-.00457-.1417438-.0959219-.2148438-.1074219-.10737-.0115-.1663462.0172-.2851562 0-.11537.06054-.1466094.1892344-.2871094.1777344-.04911-.0046-.0854781-.0607657-.1425781-.0722656-.06283-.0125-.1848-.0351563-.25-.0351563-.10738.00685-.1971563.0820781-.2851563.1425781-.0007611.0005056-.001232.001414-.0019531.0019532a8 8 0 0 1 3.0253906-3.7421876c-.0088877-.0038038-.0192957-.005949-.0273437-.0097656.11539-.0765.2340519-.1440137.3574219-.2148437.10739-.064.2125956-.1194644.3222656-.1777344.039752-.0200217.0825979-.0351234.1230468-.0546875a8 8 0 0 1 .0078126-.0039062 8 8 0 0 1 .9589843-.4042969c.0502394.0159314.0990032.0332031.1601563.0332031.03655-.0024.1048781-.0371094.1425781-.0371094zm6.0996095.4648438a8 8 0 0 1 .103516.0507812c-.011635.0169619-.027667.0409056-.029297.0585938.00914.072.128878.0070656.142578.0722656-.0125.07082-.071266.0911781-.072266.1425781 0 .04454.099931.1182344.144531.1777344.0343.04351.077622.0968781.107422.1425781.0263.03999.048613.0868219.070313.1074219.03997.03769.137531.0526219.144531.1074219.008.07302-.121122.0965344-.107422.1777344-.10507.0823-.259477.0154093-.429687.0371093-.07768.0103-.1677.0991563-.25.0351563-.0183-.05139.064265-.0582219.072265-.1074219-.0069-.0444-.058565-.0345656-.072265-.0722656.0228-.05815.079265-.0885344.072265-.1777344.04221-.0469.129978-.0095656.142578-.0722656.008-.04341-.028865-.1185781-.072265-.1425781-.0251-.0115-.043666.0161-.072266 0-.07419-.0410201-.099178-.1230782-.142578-.1425782.006-.0834-.0229-.1601437 0-.2148437.01371-.03301.088878-.1230782.142578-.1425781.034815-.0112149.070514-.0257648.105469-.0371094zm.691406.4101562a8 8 0 0 1 3.576172 6.6621094 8 8 0 0 1 -2.376953 5.685547c-.010383-.055872-.099609-.433594-.099609-.433594-.09025.0217-.204057.0354-.285157 0 .02856-.10053.091178-.134456.142578-.285156.0354-.12682.11995-.331978 0-.392578.0275-.19068-.0276-.216056 0-.572266.01257-.26496-.148578-.43882-.142578-.712891-.00227-.114149.098935-.193756.177735-.285156.16793-.28313.252056-.459053.285156-.714844-.0183-.0548.0195-.100378 0-.142578-.0731-.15882-.1505-.303184-.25-.427734-.06053-.06841-.127435-.113734-.177734-.177734-.04109-.05254-.107422-.174844-.107422-.214844-.0011-.04451.022556-.099178.035156-.142578.0159-.057.014556-.1608.035156-.25.0104-.03987.080266-.111535.072266-.177735-.008-.06396-.097835-.195343-.177735-.214843-.10738-.0262-.222642.046656-.357421.035156-.11539-.0731-.118387-.298266-.285157-.322266-.21934-.03199-.456642.079431-.607422.144532-.08682.037689-.1734.107421-.25.107421-.07311.0033-.145143-.060765-.214843-.072265-.09139-.0092-.194857.019056-.285157.035156-.08796.0149-.1723.060766-.25.072266-.14851.01029-.264922-.141744-.357421-.214844-.05598-.04469-.125988-.066322-.179688-.107422-.05713-.04581-.133234-.065222-.177734-.107422-.06051-.05826-.076622-.1735-.107422-.25-.0377-.0914-.129144-.1643-.214844-.25-.06511-.06501-.2339-.1666-.25-.25-.0077-.04229.037156-.061722.035156-.107422-.0046-.0673-.071312-.131587-.070312-.179687.00116-.06626.087168-.120635.105468-.177735.009001-.0297-.0104-.070722 0-.107422.021601-.077689.083766-.101723.072266-.214843-.0047-.04439-.034156-.084378-.035156-.142578-.0021-.04.040156-.070822.035156-.107422-.00571-.065-.099422-.067278-.107422-.142578-.00798-.07769.059422-.162.107422-.2500004.0228-.04.052766-.0776218.072266-.1074218.04221-.0638901.109378-.1138344.142578-.1777344.024-.04681.013456-.1070782.035156-.1425782.02854-.04571.090831-.0832781.144531-.1425781.04341-.0492.076622-.0857218.107422-.1074219.03769-.0275.100378-.0527656.142578-.0722656.14167-.06398.216557-.1504562.285157-.2851562-.0206-.1234.022065-.1654.072265-.25.04689-.07882.062678-.1703438.142578-.2148438.09483-.05469.218957-.0408981.285157-.1425781.0343-.05027.071265-.1270875.072265-.1796875.00114-.07655-.075178-.2013906-.142578-.2128906-.06969-.0115-.175944.0753-.214844 0-.0126-.02399.006-.0811219 0-.1074219-.0091-.04899-.070265-.1059781-.072265-.1425781-.00344-.07199.086822-.1325438.107422-.2148438.0285-.11185.008-.1932756 0-.3222656.10623-.169.333842-.0883656.570312-.0722656.03538 0 .068522-.001.107422 0 .13935.00342.275366.0136781.322266-.1074219.0172-.04559.0115-.2066 0-.25-.01256-.05129-.094578-.1850437-.142578-.2148437-.075391-.0491-.2066-.0185688-.25-.1054688.03541-.1507.219722-.0368656.320312-.0722656.0525-.01939.026566-.0925219.072266-.1074219.03084-.0101.099178.0361562.142578.0351563.03655 0 .142334-.0834219.177734-.1074219.04919-.03312.065222-.1138782.107422-.1425781.02971-.0183.075422.0136999.107422 0 .0651-.02741.134434-.0899782.177734-.1425782.06283-.07538.103188-.1640344.179688-.1777344-.12109-.09128-.234052-.1946093-.357422-.2871093-.009496-.0065121-.018087-.0132578-.027344-.0195313zm-1.152344.0546875v.0019531c.09365-.00913.207844.0503219.214844.1074219.0068.05821-.050565.0434219-.072266.1074219-.020499.05827-.008856.1377344-.035156.1777344-.02398.0354-.064022.0225562-.107422.0351562-.09596.0239-.279722.1608463-.357422.0351563.011501-.0674.047513-.0864781.070313-.1425781.0023-.0446901-.042156-.0605219-.035156-.1074219.00914-.0605.080978-.0482656.142578-.0722657.0458-.01709.049222-.0720218.107422-.1074218.0263-.0148.041465-.0351563.072265-.0351563zm-8.3554684.8925781c-.12336-.03199-.3201006.1037782-.4628906.1425782-.08001.0228-.1593344.0048656-.1777344.0722656.07196.11539.2152025-.0184.3203125 0 .0536.0091.0899782.0959219.1425781.1074219.0365501.0055.2351-.0236563.25-.0351563.15191-.06511-.0025656-.2688094-.0722656-.2871094zm.2871094.3574219c-.06048-.0034-.1196781.0435657-.1425781.0722657-.0023.0457999.0371562.0617218.0351562.1074218-.07417.05369-.0379437.2033438.0351563.2148438.07768.0057.1108837-.1965438.2148437-.2148438.0377-.0068.0571219.0351563.1074219.0351563.0603-.04685.0288438-.1605344-.0351562-.1777344-.0251101-.0057-.0663219.0351563-.1074219.0351563-.0434-.0045001-.0718219-.0722657-.1074219-.0722657zm-.3574219.0351563c-.06397-.0023-.1782437.0100562-.2148437.0351562-.0343.02285-.0380657.1003782-.0722656.1425782-.0366.0434-.0764219.0697218-.1074219.1074218-.0286.03427-.1914025.2600563-.0703125.2851563.05141.01027.1673343-.1014781.1777344-.1425781.0354199-.1393901.1063137-.2200563.2148437-.2851563.0628-.03883.0970219-.0613781.1074219-.1425781-.0079 0-.0134563.001-.0351563 0zm10.8535159.0351562c-.028045-.0019656-.052755.044181-.070313.0683594-.03771.16669.080878.1769.142578.25.0423.05129.064022.1094781.107422.1425781.0457.0354.120188.0482656.179688.0722657.0412.0172.068522.0482656.107422.0722656.07311.04429.206843.0568781.214843.1425781-.0457.024-.179343-.0401437-.214843.0351563-.009.0503099.036156.0605218.035156.1074218-.00228.07529-.067278.1551782-.142578.1425782-.008-.0457901.037156-.0593219.035156-.1074219-.00343-.09712-.185656-.2406563-.285156-.2851563-.0469-.0205-.100378-.0482656-.142578-.0722656-.07537-.04228-.206253-.1172344-.251954-.1777344-.05482-.07311-.130049-.2263437-.25-.2148437-.04909.0046-.067421.0516656-.107421.0722656-.0366.0206-.069722.0471656-.107422.0722656-.04459.0239-.101478.0351563-.142578.0351563-.09596.0046-.1677-.0535563-.25-.0351563-.0285.0058-.039166.0413657-.072266.0722657-.001.04468.006.0582218 0 .1074218-.02397.0445-.124134.0416125-.177734.0703125-.07891.04113-.113835.1168875-.177735.1796875-.04231.0412-.101422.0753219-.107422.1074219-.0044.02509.042157.0731219.035157.1074219-.00684.03644-.096878.1104781-.142579.1425781-.0274.0182-.043565.0179562-.072265.0351563-.05938.0353999-.092278.0959218-.142578.1074218-.13365.0251-.393578-.0329881-.392578.1074219.00115.09129.137143.1074219.214843.1074219.10854 0 .1906.0149.25 0 .04111-.0115.099279-.0527657.142578-.0722656.027601-.0116001.051666-.0236563.072266-.0351563.0457-.0227.071822-.0561656.107422-.0722656.06969-.0332.209856-.0722657.285156-.0722657.10281-.0114999.189766.0115.322266 0 .04699-.0033999.092278-.0351562.142578-.0351562.08341-.0068.217756.0361562.285156.0351562.04699-.0011999.087778-.0351562.142578-.0351562.0616.0012.131078.0334656.142578.0722656.007001.0228-.005999.0743219 0 .1074219.009201.05599.037157.0720219.035157.1074219-.00457.04788-.123522.1217343-.107422.1777344.01027.03659.101478.0823218.142578.1074218.04342.024.128287.0236563.179687.0351563h.107422c.06624.0079.173744.0436656.214844.0722656.07199.05027.059178.1490344.142578.1777344.0354.0161.096878-.0115.142578 0 .1108.02398.203957.1189218.285157.1074219.1278-.0148501.057365-.1291438.072265-.2148438.03315-.19419.4247-.1676762.5-.0351562.0228.0114999.048266 0 .072266 0-.032-.0674-.039066-.1486438-.072266-.2148438-.07996-.14498-.1666-.2860444-.25-.4277344-.0663-.02615-.108422-.0829344-.107422-.1777344-.06512-.0993899-.155443-.1688-.214843-.25-.0218-.02958-.028157-.0988312-.035157-.1445312-.0594-.08455-.115034-.1688-.177734-.25-.0218-.0091-.053966-.0236563-.072266-.0351562-.09025-.0422301-.186-.0888782-.25-.1425782-.0458-.03879-.067421-.0823219-.107422-.1074218-.034299-.0217001-.076421-.0145563-.107421-.0351563-.04119-.02859-.052622-.0925219-.107422-.1074219zm-10.0644534.2460938c-.05019.0045-.1024219-.0025438-.1074218.0351562.0788099.0365.2971656.0653238.3222656-.0351562-.01599-.0206-.0686219.001-.1074219 0zm-.3574218.1777344c-.0785928.0025735-.1822537.0256972-.2480469.0371093-.05368.0081-.1200219-.0084875-.1074219.0703125.01027.0641.0843781.0554094.1425781.0371094.12109-.03759.2143563-.0851313.2851563-.1445312-.0266595-.0111892-.0451319-.0005804-.0703125 0zm9.9257812 0c.0159 0 .015656-.0206.035156 0 .0092.0649899.000244.1219781-.035156.1425781-.0753-.01372-.0492-.1264781 0-.1425781zm-.037109.2148437h.001953c.072384-.0176171.135008.0575412.105469.2148437-.02513.0653-.128535.1288563-.177735.0351563.0172-.07427.001-.1291438 0-.2148437.025725-.0233777.046932-.0243828.070313-.0351563zm.501953.4296875c.03884-.0321.112287 0 .179687 0 .06739 0 .124135.001.177735 0-.0217.05826-.026566.1435344-.072266.1777344-.12452-.0216-.229156-.0863344-.285156-.1777344zm-12.2812502 2.326172c.0411.03428.0782656.091178.0722656.142578-.0045.03874-.0527657.086578-.0722656.142578-.0171.04911-.0179563.103778-.0351563.142578-.0228.05131-.0891219.094478-.1074219.142578-.0104.0332.0104.043566 0 .072266-.0183.05011-.1030656.091178-.0722656.142578.16336.0697.35722-.0263.5 0 .06054.01028.2158437.085235.2148438.177734-.0012.06959-.0652657.139544-.0722657.214844-.0104.09586-.0653125.208656-.0703125.285156-.00686.125581.1855025.322266.3203125.322266.14506-.0012.2529444-.110456.4277344-.035156.0571.0252.1156875.107422.1796875.107422.05249-.00344.1071781-.115688.1425781-.179688.04351-.07775.0672781-.138834.1425781-.177734.0822501-.0433.14489-.033366.25-.072266.0470001-.0183.1003782-.043665.1425782-.072265.03769-.0239.0617218-.081957.1074218-.035157.0617001.06172-.0865562.077478-.0351562.142578.10624.05586.1735-.107421.25-.107421.024-.00115.0991781.078722.1425781.107421.0594.039981.0774782.094822.1425781.107422.0411101.0056.1183344-.046656.1777344-.035156.07763.0115.1202875.072266.1796875.072266.07196-.0034.1161344-.060766.1777344-.072266.13479-.024.1905.022922.25.107422.0674.0103.0468219-.103066.1074219-.072266-.0342.06627.0088562.124988.0351562.179688.0159.0364.0190563.054212.0351563.070312.03656.0366.1240344.037966.1777343.072266.05591.03543.0805313.103534.1445313.177734.06627.0766.1608.133032.25.144532.08453 0 .1803-.0115.25 0 .15879.01943.2465919.093134.3574215.177734.0616.04691.123079.085378.142579.142578.0149.03987-.0161.097978 0 .142578.033099.09482.192878.120756.142578.285156.0228.0481.052621.074322.107422.107422.0446.0263.094478.060766.142578.072266.03089 0 .081122-.001.107422 0 .08681.008.139543.043566.214843.072266.04699.0182.111778.014556.142578.035156.0389.02628.024166.119678.072266.142578.03085.0149.125134-.0115.177734 0 .08225.0114.1758.072266.25.072266.0447 0 .067422-.035157.107422-.035157.18734.01371.321453.252913.501953.320313.05596.0228.138935.017956.177735.035156.0674.02856.101422.228913.107422.320313.016.27752-.198876.353269-.322266.537109-.0262.03883-.033712.088878-.070313.142578-.073089.10841-.152978.159772-.142578.357422.0023.0535.035157.081978.035157.142578 0 .07427-.019057.1837-.035157.25-.0127.04999-.030109.096878-.037109.142578-.008.0468.006.067422 0 .107422-.0068.04342-.039166.116135-.072266.177734-.07081.13026-.10721.267713-.25.320313-.08454.0309-.193756.040166-.285156.072266-.03769.0149-.096878.050565-.142578.072265-.13364.06158-.320822.11291-.357422.25-.033.12214.058056.218152.035156.357422-.0239.04112-.036765.095678-.072265.142578-.03319.04339-.073222.099278-.107422.142578-.04569.05711-.115078.066832-.142578.144532-.009.02621.0115.064368 0 .105468-.0045.0159-.058566.042566-.072266.072266-.0115.0264.0115.050566 0 .072266-.03541.07072-.139544.263456-.214844.285156-.15878.04443-.318054-.092013-.427734-.070313.01599.0765.0720219.088878.1074219.142579.0205.0321.0064562.074321.0351562.107421.0343.04.0672659.062922.0722659.107422.00799.09482-.0571221.181744-.1074221.214844-.04569.0239-.1337438.021456-.2148438.035156-.05713.0093-.2237.036866-.25.072266-.0388.05369.0287.160291 0 .212891-.0571.110799-.2052562.003909-.2851562.037109-.0058.05832.0253656.114978.0722656.142578.048.0286.1105781.017566.1425781.072266-.016.0764-.0902218.068378-.1074218.142578.002.07189.0104.096878 0 .142578-.0041556.021628-.0181507.020812-.0332032.033203a8 8 0 0 1 -3.7949218-2.921875c.0865552.115035.1762877.229012.2636718.339844.20564.26038.4412544.51703.6777344.75l.0351562.035156c.2341901.22725.48841.444918.75.642578.27531.20782.5569819.400986.8574219.572266-.0092-.0286-.0341562-.041266-.0351562-.072266-.001-.03319.006-.073222 0-.107422-.016-.10271-.1004219-.182336-.1074219-.285156-.0033-.05011.0281562-.088878.0351562-.142578.006-.03659-.0049999-.069722 0-.107422.0069-.0479.0291563-.098078.0351563-.142578.009-.0834-.0202562-.252566-.0351563-.322266-.0193899-.08798-.0970218-.1541-.1074218-.25-.0044-.03428.0371562-.098078.0351562-.142578-.0035-.0423-.0301562-.060522-.0351562-.107422-.003-.04351-.005-.089978 0-.142578.008-.09586-.002-.190356 0-.285156.001-.0274 0-.079922 0-.107422-.0013-.07883-.0301563-.136044-.0351563-.214844-.006-.14509.024-.258908 0-.392578-.0183-.10042-.0356656-.258266-.0722656-.322265-.04112-.07084-.2039562-.205501-.2851563-.25-.0525399-.0355-.1213875-.006457-.1796874-.035157-.1245-.06056-.3730344-.197032-.4277344-.320312-.0161-.03541.0172-.102578 0-.142578-.03314-.07873-.1285344-.139544-.1777344-.214844-.09482-.14384-.153-.314481-.25-.462891-.04912-.07654-.0888781-.154243-.1425781-.214844-.03196-.03542-.1319313-.088878-.1445313-.142578-.0172-.07072-.0783125-.161143-.0703125-.214843.01144-.07185.1425781-.113488.1425781-.179688-.0011999-.05593-.0561656-.094478-.0722656-.142578-.03768-.11641.0265656-.188156.0722656-.285156.0149001-.03209.0190563-.083422.0351563-.107422.02858-.0422.0709219-.061722.1074219-.107422.0216-.0262.0447656-.071922.0722656-.107422.0571-.07655.1537344-.108034.1777344-.177734.0195-.05702.024-.332935 0-.427735-.0136-.05484-.0527657-.127087-.0722656-.179687-.0342601-.09241-.0477782-.177735-.1425782-.177735-.05818.00113-.1048781.066322-.1425781.107422-.0092.05337-.0151656.126478-.0722656.142578-.08681.025161-.1142638-.111778-.2148438-.142578-.04011-.0115-.0823218.0115-.1074219 0-.0730899-.03314-.1000343-.135534-.1777343-.177734-.0651-.03429-.1377344-.053722-.1777344-.107422-.0149-.03645.005-.093378 0-.142578-.08339-.04914-.1548531-.241856-.2519531-.285156-.06511-.0239-.1688-.007656-.25-.035156-.03769-.0125-.0674219-.023657-.1074219-.035157-.0491-.0103-.1047781-.017609-.1425781-.037109-.1496332-.07369-.2047047-.327715-.3886719-.320313h-.0019531c-.0778754.003531-.1711622.100958-.2421875.105469a8 8 0 0 1 .0957031-.591797c.0000576.009214.0015556.0184 0 .027344.0079.0309.0267094.060766.0371094.072266.04.04229.1485437.106422.2148437.107421.05598.001201.1240344-.023656.1777344-.035156.06282-.0114.1577438-.016756.2148437-.035156.16452-.05369.1206563-.282122.2851563-.357422.07197-.0354.1583662-.023656.2851563-.035156zm-1.3164063.892578c-.0411614.324421-.0673401.638569-.0683594.974609a8 8 0 0 1 .0683594-.974609zm3.3222656.707031c-.056.02627-.0220437.154078.0351563.142578.0605-.00914.0379437-.175678-.0351563-.142578zm-3.3925781.292969c.0001154.211296.0126197.421188.0273438.628906a8 8 0 0 1 -.0273438-.628906zm.1054688 1.261719c.0244.112673.0491585.225193.0722656.33789.0416498.205217.0780176.403693.1328125.601563a8 8 0 0 1 -.2050781-.939453zm.2539062 1.08789c.0816606.256205.1763088.500257.28125.748047.0218853.052215.0430917.103948.0625.15625a8 8 0 0 1 -.34375-.904297zm.4902344 1.230469c.0293674.058034.0609687.11488.0917968.171875a8 8 0 0 1 -.0917968-.171875zm.3613281.642578c.031724.052555.0629579.104924.0957031.15625a8 8 0 0 1 -.0957031-.15625zm9.7363285 3.212891a8 8 0 0 1 -.179688.064453c.059761-.021864.120571-.041263.179688-.064453zm-5.650391.083984c.1704146.059717.3401077.110716.515625.160157.17023.042109.386046.079878.572266.142578.0594.0125.117234.023656.177734.035156.078867.014276.158178.025165.236328.041016a8 8 0 0 1 -1.501953-.378907zm4.867187.181641a8 8 0 0 1 -2.164062.298828c.394316-.000723.789539-.045235 1.167969-.107422.263037-.05654.505933-.080358.996093-.191406z" fill="#04896a" stroke-width="1.142503"/></svg>