<svg height="24" viewBox="0 0 24 24" width="24" xmlns="http://www.w3.org/2000/svg"><path d="m4 4v16h7v-1h-6v-8h3v-.009766l.0078125.009766 1.9999995-2h8.992188v2h1v-5h-6.992188l-2-2-.007812.0097656v-.0097656zm11 7v1.138672c-.364889.093784-.707116.237825-1.023438.423828l-.804687-.804688-1.414063 1.414063.804688.804687c-.186003.316322-.330044.658549-.423828 1.023438h-1.138672v2h1.138672c.093784.364889.237825.707116.423828 1.023438l-.804688.804687 1.414063 1.414063.804687-.804688c.316322.186003.658549.330044 1.023438.423828v1.138672h2v-1.138672c.364889-.093784.707116-.237825 1.023438-.423828l.804687.804688 1.414063-1.414063-.804688-.804687c.186003-.316322.330044-.658549.423828-1.023438h1.138672v-2h-1.138672c-.093784-.364889-.237825-.707116-.423828-1.023438l.804688-.804687-1.414063-1.414063-.804687.804688c-.316322-.186003-.658549-.330044-1.023438-.423828v-1.138672zm1 2c1.661995 0 3 1.338005 3 3s-1.338005 3-3 3-3-1.338005-3-3 1.338005-3 3-3zm-1 1v4l3-2z" fill="#eff0f1"/></svg>