<svg viewBox="0 0 16 16" xmlns="http://www.w3.org/2000/svg"><path d="m2 2v3 9h1 4 1v-1h-1-4v-8h10v3h1v-1-5h-11zm6.6875.5 1.65625 1.09375 1.65625-1.09375.6875.4375-2 1.3125-.34375.25-.34375-.25-2-1.3125zm-3.1875 3.5c-.8284271 0-1.5.6715729-1.5 1.5s.6715729 1.5 1.5 1.5 1.5-.6715729 1.5-1.5-.6715729-1.5-1.5-1.5zm0 3h-1.5v3h2 1v-3h-1zm0-2c.2761424 0 .5.2238576.5.5s-.2238576.5-.5.5-.5-.2238576-.5-.5.2238576-.5.5-.5zm2.5 0v1h4v-1zm-3 3h1v1h-1z" fill="#eff0f1"/><path d="m9.7128906 9-.7128906.7011719 1.794922 1.7988281-1.794922 1.798828.7128906.701172 1.7871094-1.792969 1.789062 1.792969.710938-.701172-1.794922-1.798828 1.794922-1.7988281-.710938-.7011719-1.789062 1.792969z" fill="#da4453"/></svg>