<svg viewBox="0 0 32 32" xmlns="http://www.w3.org/2000/svg"><g fill="#fafafa"><path d="m26.5 10c-.277 0-.5.223-.5.5v7.5h.5a1.0001 1.0001 0 0 1 .5.134766v-7.634766c0-.277-.223-.5-.5-.5z"/><rect height="12" ry=".5" width="1" x="5" y="10"/><rect height="1" ry=".5" width="12" x="10" y="5"/><path d="m10.5 26c-.277 0-.5.223-.5.5s.223.5.5.5h7.636719a1.0001 1.0001 0 0 1 -.136719-.5v-.5z"/></g><path d="m15.996094 9.0214844a.47936789.47936789 0 0 0 -.455078.3398437l-1.398438 4.6601559h-4.642578a.47936789.47936789 0 0 0 -.2871094.861328l3.7578124 2.820313-.941406 4.703125a.47936789.47936789 0 0 0 .783203.457031l3.224609-2.763672 3.533203 2.355469-.1875-.261719a1.0001 1.0001 0 0 1 .105469-1.287109l.552735-.554688a1.0001 1.0001 0 0 0 .001953-.001953l.240234-.240234-.734375-2.449219 3.263672-2.796875a.47936789.47936789 0 0 0 -.3125-.841797h-4.175781l-1.878907-4.6992184a.47936789.47936789 0 0 0 -.449218-.3007812z" fill="#f8db8f"/><path d="m16.070312 11.09375-1.066406 3.556641a.52527828.52527828 0 0 1 -.503906.375h-3.425781l2.740234 2.054687a.52527828.52527828 0 0 1 .201172.523438l-.701172 3.507812 2.34375-2.009766a.52527828.52527828 0 0 1 .632813-.039062l3.048828 2.033203a1.0001 1.0001 0 0 1 .136718-.175781l-.980468-3.269531a.52527828.52527828 0 0 1 .162109-.548829l2.421875-2.076171h-3.080078a.52527828.52527828 0 0 1 -.488281-.330079z" fill="#ed8733"/><path d="m24.5 19-.371094 2.228516a4.5 4.5 0 0 0 -.683594.279296l-1.833984-1.310546-.861328.859375-.552734.554687 1.3125 1.835938a4.5 4.5 0 0 0 -.289063.68164l-2.220703.371094v1.216797.783203l2.228516.371094a4.5 4.5 0 0 0 .279296.683594l-1.310546 1.833984.552734.554687.861328.859375 1.835938-1.3125a4.5 4.5 0 0 0 .68164.289063l.371094 2.220703h1.216797.783203l.371094-2.228516a4.5 4.5 0 0 0 .683594-.279296l1.833984 1.310546.554687-.552734.859375-.861328-1.3125-1.835938a4.5 4.5 0 0 0 .289063-.68164l2.220703-.371094v-.783203-1.216797l-2.228516-.371094a4.5 4.5 0 0 0 -.279296-.683594l1.310546-1.833984-.859375-.861328-.554687-.552734-1.835938 1.3125a4.5 4.5 0 0 0 -.68164-.289063l-.371094-2.220703h-.783203zm.605469 1h.789062l.353516 2v.08984a3.5 3.5 0 0 1 1.136719.466797l.06055-.06055 1.664063-1.164063.558594.558594-1.164063 1.664063-.0625.0625a3.5 3.5 0 0 1 .470703 1.134765h.087887l2 .353516v.789062l-2 .353516h-.08984a3.5 3.5 0 0 1 -.466797 1.136719l.06055.06055 1.164063 1.664063-.558594.558594-1.664063-1.164063-.0625-.0625a3.5 3.5 0 0 1 -1.134765.470703v.087894l-.353516 2h-.789062l-.353516-2v-.08984a3.5 3.5 0 0 1 -1.136719-.466797l-.06055.06055-1.664063 1.164063-.558594-.558594 1.164063-1.664063.0625-.0625a3.5 3.5 0 0 1 -.470706-1.134772h-.087891l-2-.353516v-.789062l2-.353516h.08984a3.5 3.5 0 0 1 .466797-1.136719l-.06055-.06055-1.164063-1.664063.558594-.558594 1.664063 1.164063.0625.0625a3.5 3.5 0 0 1 1.134765-.470703v-.087887zm.394531 3a2.5 2.5 0 0 0 -2.5 2.5 2.5 2.5 0 0 0 2.5 2.5 2.5 2.5 0 0 0 2.5-2.5 2.5 2.5 0 0 0 -2.5-2.5zm0 1a1.5 1.5 0 0 1 1.5 1.5 1.5 1.5 0 0 1 -1.5 1.5 1.5 1.5 0 0 1 -1.5-1.5 1.5 1.5 0 0 1 1.5-1.5z" fill="#1e8bcd"/><g fill="#83beec"><rect height="4" ry="1" width="4" x="4" y="24"/><rect height="4" ry="1" width="4" x="4" y="4"/><rect height="4" ry="1" width="4" x="24" y="4"/></g><path d="m5 5v2h2v-2zm20 0v2h2v-2zm-20 20v2h2v-2z" fill="#0063b1"/></svg>