<svg viewBox="0 0 32 32" xmlns="http://www.w3.org/2000/svg"><path d="m3 3v26h26v-26zm1 1h9 1 7 1 6v5 1 5 1 5 1 6h-6-1-7-1-9v-6-1-5-1-5-1z" fill="#fafafa"/><path d="m7 4v5h-3v1h3v5h-3v1h3v5h-3v1h3v6h1v-6h16v6h1v-6h3v-1h-3v-5h3v-1h-3v-5h3v-1h-3v-5h-1v5h-16v-5zm1 6h16v5h-16zm0 6h16v5h-16z" fill="#c8c6c4"/><path d="m7 21h18v8h-18z" fill="#a1ddaa"/><path d="m7 15h18v7h-18z" fill="#ff9198"/><path d="m7 9h18v7h-18z" fill="#f8db8f"/><path d="m7 3h18v7h-18z" fill="#83beec"/><path d="m8 22h16v6h-16z" fill="#309048"/><path d="m8 16h16v5h-16z" fill="#d42314"/><path d="m8 10h16v5h-16z" fill="#ed8733"/><path d="m8 4h16v5h-16z" fill="#0063b1"/></svg>