<svg viewBox="0 0 32 32" xmlns="http://www.w3.org/2000/svg"><path d="m4 3c-.554 0-1 .446-1 1v12 12c0 .554.446 1 1 1h11v-1h-11v-12-9h24v9 2c.364211.000036.703716.10831 1 .283203v-2.283203-12c0-.554-.446-1-1-1z" fill="#fafafa"/><path d="m7 10v4h4v-4zm1 1h2v2h-2zm5 0v1h12v-1zm-6 5v4h4v-4zm1 1h2v2h-2zm5 0v1h2c.000036-.364211.10831-.703716.283203-1zm8.458984 0 2.173828 1h1.367188v-1zm-14.458984 5v4h4v-4zm1 1h2v2h-2zm5 0v1h2v-1z" fill="#c8c6c4"/><path d="m3 3h26v6h-26z" fill="#fafafa"/><path d="m4 4h24v4h-24z" fill="#797774" stroke-width=".784465"/><g fill-rule="evenodd" transform="translate(16 16)"><path d="m17 17c-.552262.000055-.999945.447738-1 1v12h1v-2-10h2l4 2h5v1 5.666016.333984h1v-7c-.000055-.552262-.447738-.999945-1-1h-4.585938l-3.707031-1.707031c-.187512-.187537-.441832-.292918-.707031-.292969z" fill="#f8db8f" transform="translate(-16 -16)"/><path d="m0 14h1 12l2.744141-7.0078125c.297854-.992847.298232-.9921875-.744141-.9921875h-1-1-8.9785156c-1.0211864 0-1.0208091-.0005516-1.2792969.9902344l-1.7421875 4.6757816z" fill="#f8db8f"/><path d="m4.0214844 7c-.1271747 0-.1609225.00219-.2441406.00391-.022899.080791-.035762.1133336-.068359.2382813a1.0001 1.0001 0 0 1 -.029297.097656l-1.7421878 4.6757777a1.0001 1.0001 0 0 1 -.017578.04492l-.4023439.939455h10.8007809l2.347657-6h-.666016-1z" fill="#ed8733"/></g></svg>