<svg viewBox="0 0 32 32" xmlns="http://www.w3.org/2000/svg"><path d="m28.499929 16.5-12 12h12zm-2 5v1.476392 3.523608h-4.499999-.500001z" fill="#ed8733" fill-rule="evenodd" stroke="#f8db8f" stroke-linecap="round" stroke-linejoin="round"/><g fill="#fafafa"><path d="m9 3c-.554 0-1 .446-1 1v8c0 .554.446 1 1 1h11c.554 0 1-.446 1-1v-8c0-.554-.446-1-1-1zm2.5 2a1.5 1.5 0 0 1 1.5 1.5 1.5 1.5 0 0 1 -1.5 1.5 1.5 1.5 0 0 1 -1.5-1.5 1.5 1.5 0 0 1 1.5-1.5z"/><path d="m13 12c-.554 0-1 .446-1 1v15c0 .554.446 1 1 1h2c.554 0 1-.446 1-1v-15c0-.554-.446-1-1-1h-1.5c.277 0 .5.223.5.5v15c0 .277-.223.5-.5.5s-.5-.223-.5-.5v-15c0-.277.223-.5.5-.5z"/><rect height="1" ry=".5" width="3" x="15" y="15"/><g><rect height="2" ry="1" width="3" x="15" y="18"/><rect height="2" ry="1" width="4" x="15" y="21"/><rect height="2" ry="1" width="3" x="15" y="25"/></g></g></svg>