<svg viewBox="0 0 32 32" xmlns="http://www.w3.org/2000/svg"><path d="m2.9980469 5c-.5539999 0-1 .446-1 1v20c0 .554.456533.892483 1 1h18.8652341l1-1h-.863281-.002v.002c-6.335703.000573-12.6650072-.002-18.999997-.002 0-6.666016 0-13.332031 0-19.9980469v-.0019531h26.000044v.0019531 12.9980469.865234l1-1v-12.865234c0-.554-.446-1-1-1z" fill="#fafafa"/><g fill="#797774" transform="translate(0 3)"><path d="m7 12h1v1h-1z"/><path d="m7 15h1v1h-1z"/><path d="m7 18h1v1h-1z"/><path d="m9 12h16v1h-16z"/><g transform="translate(0 -3)"><path d="m9 21v1h10.863281l-1-1zm14.136719 0 .863281.863281v-.863281z" stroke-width="1.167748"/><path d="m9 18v1h9.308594l.707031-.707031a1.0013091 1.0013091 0 0 1 .666016-.292969zm10.757812 0a1.0013091 1.0013091 0 0 1 .671876.292969l.570312.570312v-.863281z"/></g></g><path d="m7 10h18v2h-18z" fill="#c8c6c4"/><path d="m31.277778 19-5.777778 5.777778-5.777778-5.777778-.722222.722222 5.777778 5.777778-5.777778 5.777778.722222.722222 5.777778-5.777778 5.777778 5.777778.722222-.722222-5.777778-5.777778 5.777778-5.777778z" fill="#ed3d3b"/></svg>