<svg viewBox="0 0 32 32" xmlns="http://www.w3.org/2000/svg"><path d="m3 4v1 2 6.091797c.1577747-.057935.324884-.09375.5-.09375h.5v-5.998047h24v6.990234 4 1.007813h.5c.175116 0 .342225.035815.5.09375v-1.101563-.001953-3.996093-6.992188-2-1h-1-24zm0 11.908203v2.080078.001953 4 5.009766c0 .554.446 1 1 1h24c.554 0 1-.446 1-1v-5.009766-.082031c-.157775.057935-.324884.09375-.5.09375h-.5v4.998047h-5.730469-.09375-.365234-1.197266-9.226562-1.197266-.3652342-.09375-5.7304688v-5.009766-4-1.988281h-.5c-.175116 0-.3422253-.035815-.5-.09375z" fill="#fafafa"/><path d="m4 5h24v1h-24z" fill="#c8c6c4" stroke-width=".5547"/><g fill="#1e8bcd"><path d="m12.498047 10.001953c-.127809 0-.255582.04855-.353516.146485-.195869.195867-.195869.511162 0 .707031l3.148438 3.144531h-11.792969c-.277 0-.5.223-.5.5s.223.5.5.5h11.792969l-3.148438 3.144531c-.195869.195869-.195869.511163 0 .707031.09793.09793.225707.146485.353516.146485.12781 0 .255586-.04855.353515-.146485l4.001954-3.998046c.04702-.04701.08408-.103236.109375-.166016.02334-.057904.037109-.12105.037109-.1875s-.01377-.129596-.03711-.1875c-.0253-.06278-.06236-.119003-.109375-.166016l-4.001954-3.998046c-.09793-.09793-.225705-.146485-.353514-.146485z"/><path d="m19.501953 24.998047c.127809 0 .255582-.04855.353516-.146485.195869-.195867.195869-.511162 0-.707031l-3.148438-3.144531h11.792969c.277 0 .5-.223.5-.5s-.223-.5-.5-.5h-11.792969l3.148438-3.144531c.195869-.195869.195869-.511163 0-.707031-.09793-.09793-.225707-.146485-.353516-.146485-.12781 0-.255586.04855-.353515.146485l-4.001954 3.998046c-.04702.04701-.08408.103236-.109375.166016-.02334.0579-.037109.12105-.037109.1875s.01377.129596.03711.1875c.0253.06278.06236.119003.109375.166016l4.001954 3.998046c.09793.09793.225705.146485.353514.146485z"/></g></svg>