<svg viewBox="0 0 32 32" xmlns="http://www.w3.org/2000/svg"><path d="m15.998047 7c-5.679417 0-10.5644402 3.695063-12.9570314 9.304688a.50005.50005 0 0 0 .1582032.595703l4 3a.50005.50005 0 0 0 .6855468-.082032c1.2607937-1.524922 2.3767964-3.021258 3.6289064-4.099609s2.60731-1.750478 4.480469-1.71875c1.881318.031867 3.244507.695735 4.496093 1.75 1.251587 1.054265 2.36492 2.512643 3.621094 4.064453a.50005.50005 0 0 0 .689453.085938l4-3a.50005.50005 0 0 0 .158203-.595703c-2.39259-5.609625-7.277614-9.304688-12.957031-9.304688zm0 .9941406h.003906c5.131495 0 9.559224 3.2545334 11.871094 8.3574214l-3.289063 2.46875c-1.127564-1.40377-2.19356-2.769092-3.453125-3.830078-1.372465-1.156086-3.006967-1.948565-5.121093-1.984375-2.127802-.036041-3.772046.778916-5.144532 1.960938-1.2600371 1.085179-2.3231881 2.473937-3.4472652 3.853515l-3.2910157-2.46875c2.3118699-5.102888 6.7395989-8.3574214 11.8710939-8.3574214zm-7.498047 13.0058594a.50005.50005 0 0 0 -.5.5v5a.50005.50005 0 0 0 .5.5h15a.50005.50005 0 0 0 .5-.5v-5a.50005.50005 0 0 0 -.5-.5zm.5 1h14v4h-14z" fill="#fafafa"/></svg>