<svg height="32" viewBox="0 0 8.4666665 8.4666669" width="32" xmlns="http://www.w3.org/2000/svg"><g transform="matrix(.26458333 0 0 .26458333 0 .00001)"><path d="m4 6v18.457031l1-1v-16.457031h22v18h-16.457031l-1.0000002 1h18.4570312v-20z" fill="#fafafa"/><path d="m3 5h26v1h-26z" fill="#1e8bcd"/><path d="m20.296875 13 .414063.414062a1.0017878 1.0017878 0 0 1 .285156.585938h4.003906v-1zm-.296875 3v1h5v-1zm-1 .542969-.457031.457031h.457031zm-1 2.457031v1h1v-1zm2 0v1h4v-1z" fill="#c8c6c4"/><path d="m12.017578 11a5 5 0 0 0 -4.9414061 4.132812 5 5 0 0 0 1.6269531 4.621094l3.589844-3.589844-.292969-.164062.02148-5a5 5 0 0 0 -.0039 0z" fill="#83beec"/><path d="m13 11.101562v3.898438l.304688.152344 2.449218-2.449219a5 5 0 0 0 -2.753906-1.601563z" fill="#f8db8f"/><path d="m11 12.132812c-1.7639865.455458-2.99736 2.045353-3 3.867188 0 1.221398.558986 2.301452 1.421875 3.035156l2.333984-2.333984-.755859-.445313z" fill="#0063b1"/><path d="m14 12.835938v1.546874l.04883.02539.8125-.8125c-.249372-.281409-.528294-.541986-.86133-.759764z" fill="#ed8733"/></g><path d="m17.876953 11.998047-14.876953 14.876953 2.125 2.125 14.876953-14.876953zm0 1.416015.708985.708985-3.542969 3.541015-.707031-.707031z" fill="#fafafa" stroke-width="1.001889" transform="matrix(.26458333416 0 0 .26458333416 -.00000003629 -.00000011251)"/></svg>