<svg viewBox="0 0 32 32" xmlns="http://www.w3.org/2000/svg"><path d="m5 5v16h11.298828a7 7 0 0 1 -.220703-1h-10.078125v-14h19v6.294922a7 7 0 0 1 1 .390625v-7.685547z" fill="#fafafa"/><path d="m7 8h17v2h-17z" fill="#c8c6c4"/><g fill="#18ab50" transform="translate(-1)"><path d="m24 13a6 6 0 0 0 -6 6 6 6 0 0 0 6 6 6 6 0 0 0 6-6 6 6 0 0 0 -6-6zm0 1a5 5 0 0 1 5 5 5 5 0 0 1 -5 5 5 5 0 0 1 -5-5 5 5 0 0 1 5-5z"/><g><path d="m22 16h1v6h-1z"/><path d="m25 16h1v6h-1z"/></g></g><path d="m3 4h25v1h-25z" fill="#1e8bcd"/><g fill="#fafafa"><path d="m15 21h1v7h-1z"/><path d="m19 28v1h-7v-1z"/></g></svg>