<svg viewBox="0 0 32 32" xmlns="http://www.w3.org/2000/svg"><path d="m5.9980469 2c-.554 0-1 .446-1 1v26c0 .554.446 1 1 1h20.0000001c.554 0 .892483-.456533 1-1v-4.339844c-.220251-.057874-.44904-.109387-.662109-.171875-.112574-.009119-.225483.001161-.337891-.003906v4.515625h-20.0000001v-26h13.0000001v6c0 .6726441.491378 1 1 1h6v11.115234c.255908.115737.525327.225906.822265.324219.060284.006026.117666.020651.177735.027344v-2.576172-10.5058594l-6.507813-6.3847656zm14.0019531 1 6 6h-6z" fill="#fafafa"/><path d="m21.970606 14.000067a.55341071.55350442 0 0 0 -.558315.476357c-.0056.04045.0076.06467.0023.10484h-.0069c.01351.267793.01132.524274.02506.788612-.06005.81227-.03097 1.546982.05241 2.235919-.02622.924023-.121785 1.847361-.401075 2.798887-.581312 1.980503-1.899528 4.119882-4.890387 6.621147l.0023.0023c-.01427.01442-.02674.01968-.04102.0342a.55341071.55350442 0 0 0 .747459.813684c.01608-.01344.02046-.02531.03646-.03875l.0023.0023c2.430633-2.467394 4.597768-3.677013 6.599516-4.145909.98838-.231521 1.943738-.279482 2.882731-.202851.887886.268814 1.818284.490368 2.853105.585761.04382.0041.07673.02129.120779.02506a.55341071.55350442 0 0 0 .211932-1.080352c-1.001874-.31596-2.03417-.544601-3.09922-.631346-1.070418-.353795-1.99032-.828648-2.65029-1.520241-.694141-.727403-1.092354-1.770793-1.296659-3.026811.04673-1.138003.004-2.24657-.05014-3.318551a.55341071.55350442 0 0 0 -.542467-.524328zm.268903 6.076412c.267185.524669.428775 1.146339.820383 1.55671.383972.402371.942639.604376 1.421995.898014-.401329.04357-.783292-.0119-1.194112.08433-.852792.199762-1.740284.647702-2.629779 1.107703.670429-1.029571 1.203954-2.03829 1.48808-3.006297.06512-.221854.04416-.422142.09343-.640461z" fill="#ed3d3b"/><path d="m8.5 5c-.277 0-.5.223-.5.5s.223.5.5.5h8c.277 0 .5-.223.5-.5s-.223-.5-.5-.5zm0 3c-.277 0-.5.223-.5.5s.223.5.5.5h8c.277 0 .5-.223.5-.5s-.223-.5-.5-.5zm0 3c-.277 0-.5.223-.5.5s.223.5.5.5h15c.277 0 .5-.223.5-.5s-.223-.5-.5-.5zm0 3c-.277 0-.5.223-.5.5s.223.5.5.5h11.919922c-.002678-.121189-.006296-.261681-.011719-.369141a1.0001 1.0001 0 0 1 .013672-.214843c.000067-.0018-.000075-.002107 0-.003907.0014-.03282-.005-.036485 0-.072265a1.0001 1.0001 0 0 0 0-.001953c.00361-.02567.030256-.039214.035156-.064453a1.0001 1.0001 0 0 1 .136719-.273438zm14.878906 0c.070676.143762.123586.297241.132813.472656a1.0001 1.0001 0 0 0 0 .001953c.008498.168337.012216.347949.019531.519532.261551-.016829.46875-.228194.46875-.494141 0-.277-.223-.5-.5-.5zm-14.878906 3c-.277 0-.5.223-.5.5s.223.5.5.5h11.955078c.007294-.130238.025291-.256598.029297-.388672-.022023-.196224-.028155-.406627-.041016-.611328zm15.064453.013672c-.002007.230771.003826.45526-.003906.689453.016161.097375.040064.180397.058594.273437.217506-.054285.380859-.241778.380859-.476562 0-.254094-.190705-.453557-.435547-.486328zm-15.064453 2.986328c-.277 0-.5.223-.5.5s.223.5.5.5h11.308594c.122374-.29704.2322-.590066.316406-.876953.012067-.041111.01993-.081997.03125-.123047zm0 3c-.277 0-.5.223-.5.5s.223.5.5.5h9.384766c.297585-.341435.572405-.676231.804687-1zm0 3c-.277 0-.5.223-.5.5s.223.5.5.5h6.695312a1.0001 1.0001 0 0 1 .236329-.619141c.00302-.00322.000806-.008518.003906-.011718a1.0001 1.0001 0 0 1 .005859-.007813c.08132-.0827.032291-.032737.025391-.023437a1.0001 1.0001 0 0 1 .085937-.080079c.105228-.088001.192266-.171041.292969-.257812zm12.222656 0c-.448554.285476-.907825.611975-1.384765 1h4.162109c.277 0 .5-.223.5-.5s-.223-.5-.5-.5z" fill="#ed3d3b"/><path d="m10 5v1h3v-1zm1 3v1h4v-1zm-1 3v1h7v-1zm1 3v1h3v-1zm-2 3v1h7v-1zm4 3v1h6v-1zm1 3v1h3.884766c.297585-.341435.572405-.676231.804687-1zm-5 3v1h6.195312a1.0001 1.0001 0 0 1 .236329-.619141c.00302-.00322.000806-.008518.003906-.011718a1.0001 1.0001 0 0 1 .005859-.007813c.08132-.0827.032291-.032737.025391-.023437a1.0001 1.0001 0 0 1 .085937-.080079c.105228-.088001.192266-.171041.292969-.257812z" fill="#fafafa"/></svg>