<svg viewBox="0 0 24 24" xmlns="http://www.w3.org/2000/svg"><g fill="#efefef"><path d="m2 2v2h20v-2z"/><path d="m16 5c-.553999 0-1 .4460006-1 1v.5 13.5 1c0 .553999.446001 1 1 1s1-.446001 1-1v-1-6h2 1c.553999 0 1-.446001 1-1s-.446001-1-1-1h-1-2v-5.5-.5c0-.5539994-.446001-1-1-1zm-13 2c-.5539994 0-1 .4460006-1 1s.4460006 1 1 1h1 6v2c0 3.540274-3.4665146 6.304775-7.0195312 6.914062v.0039c-.5429224.08669-.9765626.586765-.9765626 1.132812v.0293c0 .554.4460006.938936 1 .863281l.025391-.0039v.0078c.2702277-.02761.5354059-.06654.7988281-.115235l.1816406-.02539c.0830555-.011332.1631721-.033056.2402341-.062489 4.4387226-1.02119 7.75-3.995404 7.75-8.744141v-1-3h-8z"/></g></svg>