<svg viewBox="0 0 16 16" xmlns="http://www.w3.org/2000/svg"><path d="m1 2c-.554 0-1 .446-1 1v11c0 .554.446 1 1 1h14c.554 0 1-.446 1-1v-11c0-.554-.446-1-1-1zm9 1h2v4h3v2h-3v5h-2zm-8 2h3.5761719 2.1289062.2949219v2c-.00411 3.476553-2.5591026 6.423274-6 6.919922v-2.025391c2.3263191-.474857 3.99789-2.5202426 4-4.894531h-4z" opacity=".35"/><path d="m10 3v11h2v-5h3v-2h-3v-4zm-8 2v2h4c-.00211 2.3742884-1.6736809 4.419674-4 4.894531v2.025391c3.4408974-.496648 5.9958868-3.443369 6-6.919922v-2h-.2949219-2.1289062z" fill="#aaa8ac"/></svg>