<svg viewBox="0 0 16 16" xmlns="http://www.w3.org/2000/svg"><g fill="#efefef"><path d="m9 0c-.5507974 0-.994886.44535445-1 1-.0000297.00322 0 .0065256 0 .0097656v.9804688 4.3808594l1.3066406-1.3066407c.2112361-.2112364.4458616-.3875635.6933594-.5371093v-2.5371094-.9804688c0-.0032313.00003-.0065416 0-.0097656-.005114-.55464555-.4492026-1-1-1zm-8 3c-.55464555.00511-1 .4492028-1 1s.44535445.9948861 1 1c.00322.0000297.0065256 0 .0097656 0h.9804688 2.0097656c-.00179 2.0183116-1.2107029 3.7998159-3.00195312 4.5800781v.015625c-.55775285.2499998-.99804688.8735359-.99804688 1.4355469 0 .585611.47731237.87531 1.0683594.648438l.015625-.00586c.2911438-.09057.5731091-.198607.8457031-.324219l.1757813-.068359c.142348-.05464.2783999-.133192.4023437-.230469 2.1034969-1.2189775 3.4891596-3.491553 3.4921875-6.050781v-1c0-.5507972-.4453545-.9948861-1-1h-.9902344-.4335937-1.5859375z"/><path d="m13.295207 6.2241392c-.783473-.7834727-2.044955-.7834727-2.828427 0l-4.2426409 4.2426408c-.7834729.783473-.7834727 2.044954 0 2.828427l2.1213204 2.12132c.7834729.783473 2.0449535.783473 2.8284265 0l4.242641-4.242641c.783473-.783472.783473-2.0449535 0-2.8284264zm-1.06066 1.767767 1.414213 1.4142135c.195869.1958686.195868.5112387 0 .7071073l-2.474874 2.474873-2.1213198-2.12132 2.4748738-2.4748738c.195868-.1958682.511238-.1958682.707107 0zm-3.8890875 3.1819798 2.1213205 2.121321-.353554.353553c-.1958682.195869-.5112378.195869-.7071064 0l-1.4142135-1.414213c-.1958682-.195869-.1958686-.511239 0-.707107z"/></g></svg>