<svg viewBox="0 0 16 16" xmlns="http://www.w3.org/2000/svg"><g fill="#efefef"><path d="m9 2v1h4v3h1v-3c0-.5522847-.447715-1-1-1zm1 5v1h2v-1zm-2 2v1h6v-1zm2 2c-.552285 0-1 .447715-1 1v.5.5c0 .552285.447715 1 1 1h.5 1 .5c.552285 0 1-.447715 1-1v-.5-.5c0-.552285-.447715-1-1-1h-.5-1zm0 1h.5 1 .5v.5.5h-.5-1-.5v-.5z"/><circle opacity=".35" r="0"/><circle opacity=".35" r="0"/><path d="m3 15.999904c-.55228 0-1-.44772-1-1v-11.0000002h-1-1v-1h.006c-.002-.26436.10186-.51856.28711-.70703l2-2.00000005c.39053-.39037 1.02353-.39037 1.41406 0l2 2.00000005c.18539.18847.28911.44267.28711.70703h.00572v1h-1-1v10.9999992c0 .552281-.44772 1.000001-1 1.000001z"/></g></svg>