<svg height="150" viewBox="0 0 39.6875 39.687501" width="150" xmlns="http://www.w3.org/2000/svg" xmlns:xlink="http://www.w3.org/1999/xlink"><linearGradient id="a" gradientUnits="userSpaceOnUse" x1="6.349975" x2="5.291642" y1="12.435439" y2=".264606"><stop offset="0" stop-color="#d0120d"/><stop offset="1" stop-color="#fe9c45"/></linearGradient><g stroke-width=".264583"><path d="m19.844765 8.185547c3.669718-.0000002 6.628455 2.957786 6.630604 6.626986-.0019.393638-.04277.836681-.114205 1.219563.000668.0033.0014.0066.0021.0098-.000489.002.00052.002 0 .0041-.0029.01217-.0055.0244-.0078.03669-.0551.287566-.130831.573866-.224276.853695-.0035.01164-.0068.02335-.0098.03514-.674038 2.387197-1.255361 2.83109-1.966805 4.490165-.02459.05694-.04229.116622-.05271.177767-.100861.604989-.225483 1.260232-.355533 1.804541-.12852.537895-.308978 1.007958-.330213 1.046448.0045-.005.0048-.0044-.0041.01034.000682-.0019.0014-.0038.0021-.0057.000207-.000334.0018-.0042.0021-.0047-.01987.02213-.155063.208643-.279569.336413-.141561.145271-.325342.243482-.306958.247014-.0064.0017-.04785.0116-.430982.03256-.417164.02282-1.156217.03101-2.402437.03101-.0019-.000007-.0038-.000007-.0057 0-.0252.000193-.07154-.0021-.146761-.0021-.0012-.000003-.0024-.000003-.0036 0-.07209.00028-.114843.0023-.14056.0021-.0028-.000015-.0055-.000015-.0083 0-1.246219 0-1.986289-.0082-2.403988-.03101-.401521-.02194-.434301-.03218-.437699-.03307.04957.0099-.14976-.09154-.300757-.246497-.125265-.128549-.261015-.316722-.27957-.33693.000283.000516.0018.0048.0021.0052.000696.0019.0014.0038.0021.0057-.0087-.01436-.0082-.01527-.0041-.01085-.02157-.03943-.201322-.508651-.329695-1.045931-.130052-.544309-.254671-1.19955-.355534-1.804541-.01042-.06114-.02812-.120824-.05271-.177767-.716789-1.671541-1.299319-2.111221-1.980241-4.54856-.003-.01058-.0063-.02108-.0098-.03152-.0814-.249984-.147748-.507455-.199471-.769462-.0023-.01108-.0049-.02211-.0078-.03307-.0071-.02925-.006-.02528-.0098-.03927v-.000517-.000517-.000517-.000517-.000516-.000517-.000517-.000517-.000516-.000517-.000517c-.06957-.377786-.111667-.820692-.112655-1.219563.0011-3.669878 2.962804-6.6290528 6.633186-6.629053z" fill="#f8db8f"/><path d="m19.843765 7.4083334c-4.091505.0000003-7.408334 3.3168276-7.408334 7.4083336.0011.443749.04211.921642.122474 1.358056h-.0026c.0075.03124.01476.05813.02222.08888.05735.290502.132075.577305.223759.858863.70568 2.525961 1.343204 3.076485 2.015898 4.645194.205786 1.234343.506383 2.675038.793233 3.13831.06716.110448.592201.820747 1.074353.928626 0 0 .493821.09663 3.006018.09663.05225.000477.101411-.0019.152962-.0021.05155 0 .100713.0025.152963.0021 2.512198 0 3.006018-.09663 3.006018-.09663.482151-.107881 1.007193-.818176 1.074353-.928626.286849-.463279.587446-1.903971.793233-3.13831.6675-1.556601 1.30017-2.109489 1.999361-4.585766.104051-.311592.187262-.62976.249081-.952397.0046-.01904.0088-.03554.01344-.05478h-.0057c.0814-.43632.123429-.914214.125573-1.358056 0-4.091506-3.316827-7.4083338-7.408333-7.4083336zm.001.7772136c3.669718-.0000002 6.628455 2.957786 6.630604 6.626986-.0019.393638-.04277.836681-.114205 1.219563.000668.0033.0014.0066.0021.0098-.000489.002.00052.002 0 .0041-.0029.01217-.0055.0244-.0078.03669-.0551.287566-.130831.573866-.224276.853695-.0035.01164-.0068.02335-.0098.03514-.674038 2.387197-1.255361 2.83109-1.966805 4.490165-.02459.05694-.04229.116622-.05271.177767-.100861.604989-.225483 1.260232-.355533 1.804541-.12852.537895-.308978 1.007958-.330213 1.046448.0045-.005.0048-.0044-.0041.01034.000682-.0019.0014-.0038.0021-.0057.000207-.000334.0018-.0042.0021-.0047-.01987.02213-.155063.208643-.279569.336413-.141561.145271-.325342.243482-.306958.247014-.0064.0017-.04785.0116-.430982.03256-.417164.02282-1.156217.03101-2.402437.03101-.0019-.000007-.0038-.000007-.0057 0-.0252.000193-.07154-.0021-.146761-.0021-.0012-.000003-.0024-.000003-.0036 0-.07209.00028-.114843.0023-.14056.0021-.0028-.000015-.0055-.000015-.0083 0-1.246219 0-1.986289-.0082-2.403988-.03101-.401521-.02194-.434301-.03218-.437699-.03307.04957.0099-.14976-.09154-.300757-.246497-.125265-.128549-.261015-.316722-.27957-.33693.000283.000516.0018.0048.0021.0052.000696.0019.0014.0038.0021.0057-.0087-.01436-.0082-.01527-.0041-.01085-.02157-.03943-.201322-.508651-.329695-1.045931-.130052-.544309-.254671-1.19955-.355534-1.804541-.01042-.06114-.02812-.120824-.05271-.177767-.716789-1.671541-1.299319-2.111221-1.980241-4.54856-.003-.01058-.0063-.02108-.0098-.03152-.0814-.249984-.147748-.507455-.199471-.769462-.0023-.01108-.0049-.02211-.0078-.03307-.0071-.02925-.006-.02528-.0098-.03927v-.000517-.000517-.000517-.000517-.000516-.000517-.000517-.000517-.000516-.000517-.000517c-.06957-.377786-.111667-.820692-.112655-1.219563.0011-3.669878 2.962804-6.6290528 6.633186-6.629053z" fill="#ed8733"/><g stroke-opacity=".501961"><path d="m16.668729 25.135417c-.439737 0-.79375.354013-.79375.79375v1.5875c0 .346849.220325.640267.529167.748792v.883667c0 .414898.333891.748791.748791.748791h.05478c-.0061.04316-.0098.08739-.0098.132292v.529166c0 .513027.413016.926042.926041.926042h.396875c-.146579 0-.264583.118005-.264583.264583v.264584c0 .146578.118004.264583.264583.264583h2.645834c.146578 0 .264583-.118005.264583-.264583v-.264584c0-.146578-.118005-.264583-.264583-.264583h.396875c.513025 0 .926041-.413015.926041-.926042v-.529166c0-.0449-.0037-.08913-.0098-.132292h.05478c.414899 0 .748791-.333893.748791-.748791v-.883667c.308842-.108525.529167-.401943.529167-.748792v-1.5875c0-.439737-.354013-.79375-.79375-.79375zm.396875.79375h5.55625c.219868 0 .396875.177006.396875.396875v.79375c0 .219869-.177007.396875-.396875.396875h-5.55625c-.219869 0-.396875-.177006-.396875-.396875v-.79375c0-.219869.177006-.396875.396875-.396875zm.396875 2.38125h4.7625c.146578 0 .264583.118006.264583.264583v.264584c0 .146578-.118005.264583-.264583.264583h-4.7625c-.146579 0-.264583-.118005-.264583-.264583v-.264584c0-.146577.118004-.264583.264583-.264583zm.79375 1.5875h3.175c.146579 0 .264583.118006.264583.264583v.264584c0 .146578-.118004.264583-.264583.264583h-3.175c-.146579 0-.264583-.118005-.264583-.264583v-.264584c0-.146577.118004-.264583.264583-.264583z" fill="#3a3a38"/><path d="m17.330209 15.610417c-1.09594 0-1.984375.888435-1.984375 1.984375s.888435 1.984375 1.984375 1.984375h1.190625v5.55625h.79375v-5.55625h1.058333v5.55625h.79375v-5.55625h1.190625c1.09594 0 1.984375-.888435 1.984375-1.984375s-.888435-1.984375-1.984375-1.984375c-1.044298.000397-1.909587.810108-1.979207 1.852083h-.0052v1.322917h-1.058301v-1.190625-.132292h-.0047c-.069584-1.042173-.935178-1.851958-1.979675-1.852083zm0 .79375c.657564 0 1.190625.533061 1.190625 1.190625v1.190625h-1.190625c-.657564 0-1.190625-.533061-1.190625-1.190625s.533061-1.190625 1.190625-1.190625zm5.027083 0c.657564 0 1.190625.533061 1.190625 1.190625s-.533061 1.190625-1.190625 1.190625h-1.190625v-1.190625c0-.657564.533061-1.190625 1.190625-1.190625z" fill="#ed8733"/><path d="m19.579167 2.1166667c-.146579 0-.264583.1180044-.264583.2645833v2.6458334c0 .146579.118004.2645833.264583.2645833h.529167c.146579 0 .264583-.1180043.264583-.2645833v-2.6458334c0-.1465789-.118004-.2645833-.264583-.2645833zm-3.450952 3.065446c-.030195.0012956-.060299.0078883-.089917.0201538l-.488859.2025716c-.135423.056093-.199238.2102936-.143144.3457154l.404626.9777181c.05609.1354245.210316.1992149.345716.1431437l.488859-.2025716c.135421-.05609.199235-.2102942.143144-.3457154l-.404627-.9777181c-.043819-.1058005-.147961-.1679246-.255798-.1632975zm7.405233 0c-.098276.0054293-.189644.0659629-.229961.1632975l-.404626.9777181c-.0561.1354193.007753.2896213.143144.3457154l.488859.2025716c.135419.0560949.289621-.0077233.345715-.1431437l.404627-.9777181c.056099-.1354193-.007754-.2896219-.143144-.3457154l-.488859-.2025716c-.038088-.0157764-.0773-.0222783-.115755-.0201538zm-11.921754 1.028361c-.067632-.0000002-.135245.025692-.187068.0775147l-.374138.3741373c-.103646.1036469-.103646.2704905 0 .3741374l1.871204 1.8712036c.103647.1036469.270491.1036469.374137 0l.374138-.3741373c.103646-.1036454.103647-.2704904 0-.3741374l-1.871204-1.8712036c-.051823-.0518235-.119436-.0775145-.187069-.0775147zm16.464112 0c-.067633.0000002-.135245.0256912-.187069.0775147l-1.871203 1.8712036c-.103647.1036469-.103647.2704905 0 .3741374l.374137.3741373c.103646.1036462.270491.103647.374137 0l1.871204-1.8712036c.103647-.1036469.103646-.2704912 0-.3741374l-.374137-.3741373c-.051824-.0518235-.119436-.0775149-.187069-.0775147zm-17.666105 4.4126503c-.103124.000651-.200294.062273-.242363.163815l-.2025714.488859c-.056094.135422.0077217.289622.1431434.345715l.977718.404626c.135421.0561.289622-.007752.345716-.143143l.202571-.488859c.0561-.135419-.007753-.289621-.143143-.345716l-.977718-.404626c-.033855-.014025-.068979-.020888-.103353-.020671zm18.868099 0c-.034375-.000215-.069498.006648-.103353.020671l-.977718.404626c-.135422.05609-.199237.210294-.143144.345716l.202572.488859c.05609.135421.210294.199236.345715.143143l.977718-.404626c.135422-.05609.199237-.210294.143144-.345715l-.202572-.488859c-.042069-.101567-.139239-.16317-.242362-.163815zm-21.3402999 3.92896c-.1465789 0-.2645833.118004-.2645833.264583v.529167c0 .146577.1180044.264583.2645833.264583h2.6458329c.146579 0 .264584-.118006.264584-.264583v-.529167c0-.146579-.118005-.264583-.264584-.264583zm21.1666669 0c-.146579 0-.264583.118004-.264583.264583v.529167c0 .146577.118004.264583.264583.264583h2.645833c.146579 0 .264584-.118006.264584-.264583v-.529167c0-.146579-.118005-.264583-.264584-.264583zm-17.915186 3.563606c-.034374-.000215-.069497.006647-.103353.020671l-.977718.404626c-.135421.05609-.1992368.210294-.1431434.345716l.2025714.488859c.05609.135421.210295.199237.345716.143143l.977718-.404626c.13542-.05609.199236-.210294.143143-.345715l-.202571-.488859c-.042068-.101567-.139239-.16317-.242363-.163815zm17.309538 0c-.103123.000651-.200292.062271-.242362.163815l-.202572.488859c-.0561.135421.007752.289623.143144.345715l.977718.404626c.135421.0561.289621-.00775.345715-.143143l.202572-.488859c.0561-.135421-.007755-.289621-.143144-.345716l-.977718-.404626c-.033855-.014025-.068978-.020888-.103353-.020671zm-15.389758 3.061829c-.067633 0-.135245.025691-.187069.077515l-1.871204 1.871203c-.103646.103647-.103646.270491 0 .374138l.374138.374137c.103647.103647.27049.103647.374137 0l1.871204-1.871204c.103647-.103647.103647-.270491 0-.374137l-.374138-.374137c-.051823-.051824-.119436-.077515-.187068-.077515zm13.469979 0c-.067633 0-.135246.025691-.187069.077515l-.374137.374137c-.103647.103647-.103647.27049 0 .374137l1.871203 1.871204c.103647.103647.270491.103647.374138 0l.374137-.374137c.103647-.103647.103647-.270491 0-.374138l-1.871204-1.871203c-.051823-.051824-.119435-.077515-.187068-.077515z" fill="#ed8733"/></g></g><g fill-rule="evenodd" stroke-linecap="square" transform="translate(21.695859 23.018728)"><path d="m2.9104167 0c-.879475 0-1.5875.70802502-1.5875 1.5875v9.525c0 .879475.708025 1.5875 1.5875 1.5875h6.8791669c.8794754 0 1.5875004-.708025 1.5875004-1.5875v-6.3499999l-4.7625005-4.7625001zm5.0270835 0 3.4395838 3.4395834v-3.4395834z" fill="url(#a)" stroke-width=".264583"/><g transform="scale(.26458334)"><path d="m5 41v1c0 3.324 2.676 6 6 6h26c3.324 0 6-2.676 6-6v-1c0 3.324-2.676 6-6 6h-26c-3.324 0-6-2.676-6-6z" fill-opacity=".19933"/><path d="m30 0 13 13v-1.4l-11.6-11.6z" fill-opacity=".1982"/><path d="m12.499904 19.000084c-.277 0-.5.223-.5.5s.223.5.5.5h23c.276999 0 .5-.223.5-.5s-.223001-.5-.5-.5zm3 3c-.277 0-.5.223-.5.5s.223.5.5.5h17c.276999 0 .5-.223.5-.5s-.223001-.5-.5-.5zm-3 7a.50000002.50000002 0 0 0 -.5.5.50000002.50000002 0 0 0 .5.5.50000002.50000002 0 0 0 .5-.5.50000002.50000002 0 0 0 -.5-.5zm1.974609 0c-.264914.013342-.474609.231656-.474609.5 0 .277.223.5.5.5h6c.276999 0 .5-.223.5-.5s-.223001-.5-.5-.5h-6c-.008656 0-.016845-.000431-.025391 0zm-1.974609 3a.50000002.50000002 0 0 0 -.5.5.50000002.50000002 0 0 0 .5.5.50000002.50000002 0 0 0 .5-.5.50000002.50000002 0 0 0 -.5-.5zm1.974609 0c-.264914.013342-.474609.231656-.474609.5 0 .277.223.5.5.5h6c.276999 0 .5-.223.5-.5s-.223001-.5-.5-.5h-6c-.008656 0-.016845-.000431-.025391 0zm-1.974609 3a.50000002.50000002 0 0 0 -.5.5.50000002.50000002 0 0 0 .5.5.50000002.50000002 0 0 0 .5-.5.50000002.50000002 0 0 0 -.5-.5zm1.974609 0c-.264914.013342-.474609.231656-.474609.5 0 .277.223.5.5.5h6c.276999 0 .5-.223.5-.5s-.223001-.5-.5-.5h-6c-.008656 0-.016845-.000431-.025391 0z" fill="#fff"/><path d="m24 28c-.554 0-1 .446-1 1v7c0 .554.446 1 1 1h11c.554 0 1-.446 1-1v-7c0-.554-.446-1-1-1zm9.8438 1.0117a1 1 0 0 1 .86328.28125 1 1 0 0 1 0 1.4141l-4.207 4.207-2-2-2.793 2.793a1 1 0 0 1 -1.4141 0 1 1 0 0 1 0-1.4141l4.207-4.207 2 2 2.793-2.793a1 1 0 0 1 .55078-.28125z" fill="#fecfb5"/></g></g></svg>