<svg viewBox="0 0 22 22" xmlns="http://www.w3.org/2000/svg" xmlns:xlink="http://www.w3.org/1999/xlink"><linearGradient id="a" gradientTransform="matrix(1.3333333 0 0 1.375 79.33333 275)" gradientUnits="userSpaceOnUse" x1="-46" x2="-56.5" y1="-185.45454" y2="-198.54546"><stop offset="0" stop-color="#0369a3"/><stop offset="1" stop-color="#1c99e0"/></linearGradient><path d="m5 3v16h12v-12l-4-4z" fill="#fff"/><path d="m5 2c-.738666-.00001-1 .61325-1 1.375v15.25c0 .76175.594667 1.375 1.333333 1.375h11.333334c.738666 0 1.333333-.61325 1.333333-1.375v-11.77221c0-.26624-.04573-.36713-.187493-.53167l-4.015627-4.16261c-.1064-.10876-.23116-.15895-.393226-.15844zm0 1h8v3c0 .65091.40985 1 1 1h3v12h-12zm1 7v1h7v-1zm0 2v1h10v-1zm0 2v1h10v-1zm0 2v1h7v-1z" fill="url(#a)"/></svg>