<svg height="16" viewBox="0 0 16 16" width="16" xmlns="http://www.w3.org/2000/svg"><path d="m8 2a1 1 0 0 0 -1 1 1 1 0 0 0 1 1 1 1 0 0 0 1-1 1 1 0 0 0 -1-1zm-2 2a4 4 0 0 0 -4 4 4 4 0 0 0 4 4 4 4 0 0 0 1.0898438-.158203v-1.058594a3 3 0 0 1 -1.0898438.216797 3 3 0 0 1 -3-3 3 3 0 0 1 2.7441406-2.9804688zm1.1191406.5-1.2792968 4.5h1.25v-2h.8574218l.3828125-1.3300781 1.9804689.7910156.378906-.921875-2.5898436-1.0390625z" fill="#232629"/><path d="m8.65625 8-.65625.65625 3.34375 3.34375-3.34375 3.3125.65625.6875 3.375-3.34375 3.3125 3.3125.65625-.625-3.34375-3.34375 3.34375-3.3125-.65625-.6875-3.34375 3.34375z" fill="#da4453"/></svg>