<svg height="32" viewBox="0 0 32 32" width="32" xmlns="http://www.w3.org/2000/svg" xmlns:xlink="http://www.w3.org/1999/xlink"><radialGradient id="a" cx="100.88867" cy="155.99673" gradientTransform="matrix(4.3885832 0 0 3.8888885 -340.15832 -521.43169)" gradientUnits="userSpaceOnUse" r="40"><stop offset="0" stop-color="#fff"/><stop offset=".11366145" stop-color="#bdbebf"/><stop offset=".20296688" stop-color="#ececec"/><stop offset=".2363" stop-color="#fafafa"/><stop offset=".38818121" stop-color="#fff"/><stop offset=".5313" stop-color="#fafafa"/><stop offset=".8449" stop-color="#ebecec"/><stop offset="1" stop-color="#e1e2e3"/></radialGradient><filter id="b" color-interpolation-filters="sRGB" height="1.065877" width="1.055085" x="-.027543" y="-.032939"><feGaussianBlur stdDeviation="1.3760599"/></filter><linearGradient id="c" gradientUnits="userSpaceOnUse" x1="67.903954" x2="67.903954" y1="31.783545" y2="-32.216457"><stop offset="0" stop-color="#e9eaea"/><stop offset=".5" stop-color="#fff"/><stop offset="1" stop-color="#fefefe"/></linearGradient><radialGradient id="d" cx="15.803572" cy="27.911764" gradientTransform="matrix(1.2444444 .00000003 -.00000002 .75555556 -3.666666 3.911111)" gradientUnits="userSpaceOnUse" r="11.25"><stop offset="0" stop-color="#ffea00"/><stop offset="1" stop-color="#ffa000"/></radialGradient><linearGradient id="e" gradientUnits="userSpaceOnUse" x1="8.00000025" x2="7.9531235" y1="3.99999975" y2="16.9861085"><stop offset="0" stop-color="#fff"/><stop offset="1" stop-color="#fff" stop-opacity="0"/></linearGradient><filter id="f" height="1.294962" width="1.106002" x="-.053001" y="-.147481"><feGaussianBlur stdDeviation="1.4133574"/></filter><filter id="g" color-interpolation-filters="sRGB" height="1.157082" width="1.097082" x="-.048541" y="-.078541"><feGaussianBlur stdDeviation="1.5708204"/></filter><radialGradient id="h" cx="67.903953" cy="-.216458" gradientTransform="matrix(1 0 0 .65183454 0 -.075363)" gradientUnits="userSpaceOnUse" r="42.602785"><stop offset="0" stop-color="#fff"/><stop offset=".75112468" stop-color="#e7e7e7" stop-opacity=".498039"/><stop offset="1" stop-color="#fff" stop-opacity="0"/></radialGradient><g transform="matrix(.25 0 0 .25 -.975989 16.054114)"><ellipse cx="67.903954" cy="-.216456" fill="url(#h)" filter="url(#g)" rx="38.832817" ry="24"/><path d="m91.808594-48.839841h-.002l-76.810547.240235c-4.577647.0022-8.2824795 3.747105-8.2832034 8.318359l-.0129652 81.874107c-.0007241 4.572585 3.7145276 8.287109 8.2871096 8.287109.0013.000002.0026.000002.0039 0l105.902392-.263671c4.57258 0 8.28711-3.714526 8.28711-8.28711l-.002-13.640625.013-47.90536.002-20.328125c0-4.572582-3.70762-8.318359-8.28711-8.318359z" fill="#141414" filter="url(#b)"/><path d="m14.625-48c-3.66801.012514-6.625 2.956969-6.625 6.625l-.096045 33.158544.08308 49.496816c.00616 3.668025 2.95698 6.634065 6.625 6.625l49.29192-.121816 57.364325-.141515c3.66802-.009 6.62443-2.95697 6.625-6.625l.013-82.65536c.00058-3.668031-2.95697-6.625-6.625-6.625h-9.375-8-12.096075z" fill="#fff"/><path d="m115.69727-44.224609-15.58008.0078-85.857424.255859c-1.278069.0038-2.220507.943724-2.220704 2.210938l-.01296 83.40536c-.000197 1.267223.944877 2.214022 2.203126 2.210938l107.406242-.26366c1.27618-.0031 2.21856-.943712 2.21875-2.210938l.013-83.40536c.0002-1.267225-.94371-2.210937-2.21094-2.210937z" fill="url(#a)"/><rect fill="#8c8c8c" height="72" rx="3.999999" ry="4.000001" width="104" x="15.903955" y="-36.216457"/><rect fill="url(#c)" height="68" rx="3.999999" ry="4.000001" width="100" x="17.903955" y="-34.216457"/><path d="m4.5 7.5c-.3111337 0-.576633.1496212-.7597656.3710938l.2597656.1289062.9980469-.5zm2.5019531 0 .9980469.5.9980469-.5zm3.9999999 0 .998047.5.998047-.5zm4 0 .998047.5.998047-.5zm-9.001953 1-1.5527344.7773438v1.4453122l1.5527344.777344 1.5527344-.777344v-1.4453122zm4 0-1.5527344.7773438v1.4453122l1.5527344.777344 1.552734-.777344v-1.4453122zm4 0-1.552734.7773438v1.4453122l1.552734.777344 1.552734-.777344v-1.4453122zm-10.5.75v1.5l.0527344-.027344v-1.4453122zm.5 2.25-.5.25v2.5l.5.25 1.5527344-.777344v-1.445312zm4 0-1.5527344.777344v1.445312l1.5527344.777344 1.5527344-.777344v-1.445312zm4 0-1.552734.777344v1.445312l1.552734.777344 1.552734-.777344v-1.445312zm4 0-1.552734.777344v1.445312l1.552734.777344 1.552734-.777344v-1.445312zm4 0-1.552734.777344v1.445312l1.552734.777344 1.552734-.777344v-1.445312zm4 0-1.552734.777344v1.445312l1.552734.777344 1.552734-.777344v-1.445312zm-18 3-1.5527344.777344v1.445312l1.5527344.777344 1.5527344-.777344v-1.445312zm4 0-1.5527344.777344v1.445312l1.5527344.777344 1.552734-.777344v-1.445312zm4 0-1.552734.777344v1.445312l1.552734.777344 1.552734-.777344v-1.445312zm4 0-1.552734.777344v1.445312l1.552734.777344 1.552734-.777344v-1.445312zm-14.5.75v1.5l.0527344-.027344v-1.445312zm.5 2.25-.5.25v2.5l.5.25 1.5527344-.777344v-1.445312zm4 0-1.5527344.777344v1.445312l1.5527344.777344 1.5527344-.777344v-1.445312zm4 0-1.552734.777344v1.445312l1.552734.777344 1.552734-.777344v-1.445312zm8 0-1.552734.777344v1.445312l1.552734.777344 1.552734-.777344v-1.445312zm-14 3-1.5527344.777344v1.445312l1.5527344.777344 1.5527344-.777344v-1.445312zm4 0-1.5527344.777344v1.445312l1.5527344.777344 1.552734-.777344v-1.445312zm4 0-1.552734.777344v1.445312l1.552734.777344 1.552734-.777344v-1.445312zm4 0-1.552734.777344v1.445312l1.552734.777344 1.552734-.777344v-1.445312zm8 0-1.552734.777344v1.445312l1.552734.777344 1.552734-.777344v-1.445312zm-22.5.75v1.5l.0527344-.027344v-1.445312zm.5 2.25-.4550781.226562c.1044829.440854.4813816.773438.9550781.773438h1.0527344v-.222656zm4 0-1.5527344.777344v.222656h3.1054688v-.222656zm4 0-1.552734.777344v.019531l-.052735.027344v.175781h3.158203v-.222656zm4 0-1.552734.777344v.019531l-.052735.027344v.175781h3.158203v-.222656zm3.947266.046875-1.552735.777344v.175781h3.105469v-.175781zm4 0-1.552735.777344v.175781h3.105469v-.175781z" fill="url(#d)" transform="matrix(4 0 0 4 3.903955 -64.216456)"/><g fill="url(#e)"><path d="m4.4316406 7.5136719c-.4542112.0320493-.8084261.3602286-.8945312.796875l.4628906 9.6894531c10.711947 1.181828 8.275225 2.686842 24.5-1v-8.5c0-.1343717-.028519-.2620647-.076172-.3789062-.036841-.0883855-.094542-.1634223-.154297-.2363282-.015611-.0195409-.024004-.0442039-.041015-.0625-.000995-.0010415-.002907-.0009159-.003907-.0019531-.167666-.1740056-.397737-.2883999-.65625-.3066406z" filter="url(#f)" transform="matrix(4 0 0 4 3.903955 -64.216456)"/><path d="m4.4316406 7.5136719c-.2811365.0198371-.5150333.1610455-.6796875.3632812l.2480469.1230469.9707031-.4863281zm2.5976563 0 .9707031.4863281.9707031-.4863281zm4.0000001 0 .970703.4863281.970703-.4863281zm4 0 .970703.4863281.970703-.4863281zm-9.029297.9863281-1.5527344.7773438v1.4453122l1.5527344.777344 1.5527344-.777344v-1.4453122zm4 0-1.5527344.7773438v1.4453122l1.5527344.777344 1.552734-.777344v-1.4453122zm4 0-1.552734.7773438v1.4453122l1.552734.777344 1.552734-.777344v-1.4453122zm-10 3-.3027344.152344.1308594 2.761718.171875.085938 1.5527344-.777344v-1.445312zm4 0-1.5527344.777344v1.445312l1.5527344.777344 1.5527344-.777344v-1.445312zm4 0-1.552734.777344v1.445312l1.552734.777344 1.552734-.777344v-1.445312zm4 0-1.552734.777344v1.445312l1.552734.777344 1.552734-.777344v-1.445312zm4 0-1.552734.777344v1.445312l1.552734.777344 1.552734-.777344v-1.445312zm4 0-1.552734.777344v1.445312l1.552734.777344 1.552734-.777344v-1.445312zm-18 3-1.5527344.777344v1.445312l1.5527344.777344 1.5527344-.777344v-1.445312zm4 0-1.5527344.777344v1.445312l1.5527344.777344 1.552734-.777344v-1.445312zm4 0-1.552734.777344v1.445312l1.552734.777344 1.552734-.777344v-1.445312zm4 0-1.552734.777344v1.445312l1.552734.777344 1.552734-.777344v-1.445312zm-14 3-.0234375.011719.0234375.488281c.5184804.057203.885147.115809 1.3457031.173828zm4 0-1.5527344.777344v.037109c1.1826605.163249 2.2283913.320056 3.1054688.462891v-.5zm4 0-1.552734.777344v.636718c1.110943.177401 2.100106.307258 3.105468.365235v-1.001953zm8 0-1.552734.777344v.724609c.898438-.131826 1.947022-.316892 3.105468-.539062v-.185547z" filter="url(#f)" transform="matrix(4 0 0 4 3.903955 -64.216456)"/></g></g></svg>