<svg height="32" viewBox="0 0 32 32" width="32" xmlns="http://www.w3.org/2000/svg" xmlns:xlink="http://www.w3.org/1999/xlink"><radialGradient id="a" cx="100.88867" cy="155.99673" gradientTransform="matrix(4.3885832 0 0 3.8888885 -340.15832 -521.43169)" gradientUnits="userSpaceOnUse" r="40"><stop offset="0" stop-color="#fff"/><stop offset=".11366145" stop-color="#bdbebf"/><stop offset=".20296688" stop-color="#ececec"/><stop offset=".2363" stop-color="#fafafa"/><stop offset=".38818121" stop-color="#fff"/><stop offset=".5313" stop-color="#fafafa"/><stop offset=".8449" stop-color="#ebecec"/><stop offset="1" stop-color="#e1e2e3"/></radialGradient><filter id="b" color-interpolation-filters="sRGB" height="1.065877" width="1.055085" x="-.027543" y="-.032939"><feGaussianBlur stdDeviation="1.3760599"/></filter><linearGradient id="c" gradientUnits="userSpaceOnUse" x1="67.903954" x2="67.903954" y1="31.783545" y2="-32.216457"><stop offset="0" stop-color="#e9eaea"/><stop offset=".5" stop-color="#fff"/><stop offset="1" stop-color="#fefefe"/></linearGradient><radialGradient id="d" cx="15.803572" cy="27.911764" gradientTransform="matrix(1.2444444 .00000003 -.00000002 .75555556 -3.666666 3.911111)" gradientUnits="userSpaceOnUse" r="11.25"><stop offset="0" stop-color="#ffea00"/><stop offset="1" stop-color="#ffa000"/></radialGradient><linearGradient id="e" gradientUnits="userSpaceOnUse" x1="8.00000025" x2="7.9531235" y1="3.99999975" y2="16.9861085"><stop offset="0" stop-color="#fff"/><stop offset="1" stop-color="#fff" stop-opacity="0"/></linearGradient><filter id="f" height="1.294962" width="1.106002" x="-.053001" y="-.147481"><feGaussianBlur stdDeviation="1.4133574"/></filter><filter id="g" color-interpolation-filters="sRGB" height="1.157082" width="1.097082" x="-.048541" y="-.078541"><feGaussianBlur stdDeviation="1.5708204"/></filter><radialGradient id="h" cx="67.903953" cy="-.216458" gradientTransform="matrix(1 0 0 .65183454 0 -.075363)" gradientUnits="userSpaceOnUse" r="42.602785"><stop offset="0" stop-color="#fff"/><stop offset=".75112468" stop-color="#e7e7e7" stop-opacity=".498039"/><stop offset="1" stop-color="#fff" stop-opacity="0"/></radialGradient><g transform="matrix(.25 0 0 .25 -.975989 16.054114)"><ellipse cx="67.903954" cy="-.216456" fill="url(#h)" filter="url(#g)" rx="38.832817" ry="24"/><path d="m91.808594-48.839841h-.002l-76.810547.240235c-4.577647.0022-8.2824795 3.747105-8.2832034 8.318359l-.0129652 81.874107c-.0007241 4.572585 3.7145276 8.287109 8.2871096 8.287109.0013.000002.0026.000002.0039 0l105.902392-.263671c4.57258 0 8.28711-3.714526 8.28711-8.28711l-.002-13.640625.013-47.90536.002-20.328125c0-4.572582-3.70762-8.318359-8.28711-8.318359z" fill="#141414" filter="url(#b)"/><path d="m14.625-48c-3.66801.012514-6.625 2.956969-6.625 6.625l-.096045 33.158544.08308 49.496816c.00616 3.668025 2.95698 6.634065 6.625 6.625l49.29192-.121816 57.364325-.141515c3.66802-.009 6.62443-2.95697 6.625-6.625l.013-82.65536c.00058-3.668031-2.95697-6.625-6.625-6.625h-9.375-8-12.096075z" fill="#fff"/><path d="m115.69727-44.224609-15.58008.0078-85.857424.255859c-1.278069.0038-2.220507.943724-2.220704 2.210938l-.01296 83.40536c-.000197 1.267223.944877 2.214022 2.203126 2.210938l107.406242-.26366c1.27618-.0031 2.21856-.943712 2.21875-2.210938l.013-83.40536c.0002-1.267225-.94371-2.210937-2.21094-2.210937z" fill="url(#a)"/><rect fill="#8c8c8c" height="72" rx="3.999999" ry="4.000001" width="104" x="15.903955" y="-36.216457"/><rect fill="url(#c)" height="68" rx="3.999999" ry="4.000001" width="100" x="17.903955" y="-34.216457"/><path d="m4.5 7.5c-.2923005 0-.5479436.1294541-.7304688.328125h2.1445313l.0078125-.328125zm1.6875 0 .0117188.4140625 3.8867192-.0566406.005859-.3574219zm4.158203 0-.001953.3574219 3.65625.1425781.015625-.5zm3.882813 0-.029297.4707031 3.185547-.1132812.05664-.3574219zm3.49414 0-.080078.3574219 3.128906-.3007813.013672-.0566406zm5.06836 0-1.820313.3574219-.828125 2.9277341 2.857422-.785156.814453-2.5zm1.308593 0-.71289 2.3789062 2.486328-1.1582031.535156-1.2207031zm-3.384765.328125-3.115235.34375-.484375 3.271484 2.769532-.558593zm-14.4863284.2011719.0292969 3.6562501 3.7128906.056641.0585939-3.5996099zm-2.6230468.0390625c-.0634492.1315487-.1054688.2752898-.1054688.4316406v3.25l2.4433594-.035156.0566406-3.6289065zm6.8964842.0742187-.130859 3.5996099h3.15625l.330078-3.5996099zm6.798828.0292969-3.072265.0996094-.357422 3.4140626 2.929687-.185547zm8.429688 1.0058594-2.486328 1.0566406-1.056641 2.443359 2.484375-1.298828zm-2.902344 1.1933596-2.685547.771484-.798828 2.671875 2.484375-1.099609zm-3.027344.828125-2.714843.542969-.828126 3.185546 2.742188-.927734zm-3.058593.542969-2.914063.314453-.884766 3.5 3.056641-.556641zm7.759765.121093-2.457031 1.201172-.886719 2.357422 2.314453-1.214844zm-21.001953.136719v3.845703l2.3847656-.017578.1152344-3.828125zm6.5 0-3.6699219.056641-.1582031 3.857421 3.2988281-.05664zm3.5.085938-3.15625.013671-.5292969 3.728516 2.9570309-.185547zm8.185547 1.085937-2.486328 1-.884766 2.357422 2.427735-1.015625zm-2.884766 1.142578-2.601562.857422-.855469 2.642578 2.599609-1.158203zm4.355469.435547-2.314453 1.142578-.972656 2.101563 2.601562-1.300782zm-7.298828.535156-2.94336.572266-.771484 2.986328 2.857422-.84375zm-3.201172.59961-2.8847656.287109-.65625 3.185547 2.8281246-.5zm7.830078.115234-2.486328 1-.884766 2.357422 2.3125-1.214844zm-16.986328.107422v3.810547l1.9414062-.033203.5019532-3.742188zm5.9707031.064453-3.2128906.070313-.5585937 3.671874 3.1015624-.414062zm12.7714849.978516-2.457032 1.228515-.828125 2.013672 2.59961-1.298828zm-4.556641.021484-2.486328 1-.884766 2.357422 2.427735-1.101563zm-2.857422 1.199219-2.628906.800781-.855469 2.642578 2.484375-1.158203zm4.511719.171875-2.314453 1.144531-.798829 2.041016 2.427735-1.242188zm-7.482422.685547-2.857422.486328-.7421875 3.013672 2.7421875-.728516zm4.761719.550781-2.371094 1.085937-.886719 2.384766 2.429688-1.298828zm-7.962891.021484-2.9140625.398438-.5996094 3.330078 2.8574219-.757813zm-3.2128906.457031-1.9433594.025391v3.216797c0 .067918.0262787.127357.0390625.191406l1.2617187-.191406zm8.3183596.832032-2.400391 1-.78125 2.410156h.361328l1.992188-1.066406zm-2.828125 1.203125-2.7714846.828125-.4160156 1.378906h2.5097652zm-2.9902346.849609-2.8867188.714844-.1699218.642578h2.609375zm-3.2304688.685547-1.0527344.183594c.1753183.287262.4773109.488281.8398438.488281h.0625z" fill="url(#d)" transform="matrix(4 0 0 4 3.903955 -64.216456)"/><path d="m4.4316406 7.5136719c-.2586236.0182485-.4778738.138833-.640625.3144531h2.1230469l.0078125-.3144531zm1.7558594 0 .0117188.4003906 3.8867192-.0566406.005859-.34375zm4.158203 0-.001953.34375 3.65625.1425781.013672-.4863281zm3.882813 0-.029297.4570312 3.185547-.1132812.054687-.34375zm3.492187 0-.078125.34375 3.128906-.3007813.009766-.0429687zm5 0-1.75.34375-.828125 2.9277341 2.857422-.785156.810547-2.4863281zm1.375 0-.708984 2.3652343 2.486328-1.1582031.527344-1.2070312zm-3.380859.3144531-3.115235.34375-.484375 3.271484 2.769532-.558593zm-14.4863284.2011719.0292969 3.6562501 3.7128906.056641.0585939-3.5996099zm-2.6035156.0390625c-.0369217.0766782-.0707937.1554874-.0878906.2421875l.1640625 3.4375001 2.2421875-.033203.0566406-3.6289065zm6.876953.0742187-.130859 3.5996099h3.15625l.330078-3.5996099zm6.798828.0292969-3.072265.0996094-.357422 3.4140626 2.929687-.185547zm8.429688 1.0058594-2.486328 1.0566406-1.056641 2.443359 2.484375-1.298828zm-2.902344 1.1933596-2.685547.771484-.798828 2.671875 2.484375-1.099609zm-3.027344.828125-2.714843.542969-.828126 3.185546 2.742188-.927734zm-3.058593.542969-2.914063.314453-.884766 3.5 3.056641-.556641zm7.759765.121093-2.457031 1.201172-.886719 2.357422 2.314453-1.214844zm-20.7890624.136719.1835938 3.84375 1.9882812-.015625.1152344-3.828125zm6.2871094 0-3.6699219.056641-.1582031 3.857421 3.2988281-.05664zm3.5.085938-3.15625.013671-.5292969 3.728516 2.9570309-.185547zm8.185547 1.085937-2.486328 1-.884766 2.357422 2.427735-1.015625zm-2.884766 1.142578-2.601562.857422-.855469 2.642578 2.599609-1.158203zm4.355469.435547-2.314453 1.142578-.972656 2.101563 2.601562-1.300782zm-7.298828.535156-2.94336.572266-.771484 2.986328 2.857422-.84375zm-3.201172.59961-2.8847656.287109-.5273438 2.558594c.6522446.106318 1.2735064.196726 1.8300784.28125l.86914-.154297zm7.830078.115234-2.486328 1-.814453 2.167969c.122572-.013457.237972-.02366.365234-.039063l1.876953-.986328zm-16.5761718.113281.0898438 1.886719c.6441804.071071 1.1100192.142634 1.6660156.214844l.2773438-2.072266zm5.5605469.058594-3.2128906.070313-.3066406 2.009765c1.1423139.152011 2.1567816.294888 3.0136719.433594zm12.7714849.978516-2.457032 1.228515-.183594.449219c.638448-.105709 1.434941-.264252 2.19336-.410156zm-4.556641.021484-2.486328 1-.431641 1.150391c.627435-.004978 1.307672-.042352 2.06836-.117188zm-2.857422 1.199219-2.628906.800781-.001953.005859c.730068.088521 1.445417.1381 2.21289.146485zm4.511719.171875-.957032.472656c.27279-.038731.538498-.073998.833985-.121094z" fill="url(#e)" filter="url(#f)" transform="matrix(4 0 0 4 3.903955 -64.216456)"/></g></svg>