<svg height="42" viewBox="0 0 42 42" width="42" xmlns="http://www.w3.org/2000/svg" xmlns:xlink="http://www.w3.org/1999/xlink"><filter id="a" color-interpolation-filters="sRGB" height="1.095524" width="1.096481" x="-.04824" y="-.047762"><feGaussianBlur stdDeviation=".80400424"/></filter><clipPath id="b"><path d="m0 0h42v42h-42z"/></clipPath><path clip-path="url(#b)" d="m2 0v32.320339c0 4.476367 3.568 8.080085 8 8.080085h32v-2.020021-6.060064-26.2602754-6.0600636h-32-6z" filter="url(#a)" opacity=".3" transform="matrix(-1 0 0 1 42.07039 0)"/><path d="m40.07039 0v32c0 4.432-3.568 8-8 8h-32.00000022v-2h7.00000002 25.0000002c3.324 0 6-2.676 6-6v-26-6z" fill="#fff" fill-opacity=".784314"/><path d="m.07038978 38v-6-26-6h32.00000022 6v6 26c0 3.324-2.676 6-6 6h-25.0000002z" fill-opacity=".784314"/><path d="m6 5c-.554 0-1 .446-1 1v24c0 .554.446 1 1 1h24c.554 0 1-.446 1-1v-24c0-.554-.446-1-1-1zm0 2h2v2h-2zm3 0h18v10h-18zm19 0h2v2h-2zm-22 4h2v2h-2zm22 0h2v2h-2zm-22 4h2v2h-2zm22 0h2v2h-2zm-22 4h2v2h-2zm3 0h18v10h-18zm19 0h2v2h-2zm-22 4h2v2h-2zm22 0h2v2h-2zm-22 4h2v2h-2zm22 0h2v2h-2z" fill="#fff"/></svg>