<svg height="32" viewBox="0 0 8.4666664 8.4666669" width="32" xmlns="http://www.w3.org/2000/svg"><path d="m17 3c-6.403984.0045791-11.8507106 4.672255-12.8359375 11h2.0273437c.9637704-5.2123931 5.5078498-8.9961157 10.8085938-9 6.075132 0 11 4.9248681 11 11 0 6.075132-4.924868 11-11 11-3.585682-.0023-6.911252-1.748796-8.9550781-4.621094l-.00781.0039c-.00571-.0092-.01157-.01833-.017578-.02734-.188281-.238426-.4754952-.377354-.7792995-.37695-.547412.000584-.9907288.444775-.9902344.992187.000634.261447.1045285.512058.2890625.697266.00195.002.0039.0039.00586.0059 2.4403116 3.336403 6.3211235 5.31442 10.4550775 5.326131 7.179702 0 13-5.820298 13-13 0-7.1797014-5.820298-13-13-13zm0 6.0000001c-.554 0-1 .4459998-1 .9999999v6c0 .04501.01968.08355.02539.126953.0079.06133.01567.119971.03516.179688.02392.07364.05826.138179.09766.203125.018.02989.02344.06329.04492.0918l3.611328 4.792969c.333406.442444.957947.528718 1.400391.195313.442444-.333406.530671-.957947.197265-1.400391l-3.412114-4.527348v-5.662109c0-.5540001-.446-.9999999-1-.9999999zm-15.5527344 5.0039059c-.3774614.03991-.57336223.470458-.3554687.78125l3.5 5.00586c.19853.279873.61397.279873.8125 0l3.4980469-5.00586c.2274224-.329068-.00625-.778441-.40625-.78125h-6.9980469c-.016916-.000863-.033865-.000863-.050781 0z" fill="#a2a2a7" transform="scale(.26458333)"/></svg>