<svg height="28" viewBox="0 0 31 28" width="31" xmlns="http://www.w3.org/2000/svg"><path d="m16 0a14 14 0 0 1 14 14 14 14 0 0 1 -14 14 14 14 0 0 1 -14-14 14 14 0 0 1 14-14zm3.242188 5.0664062c-.05898-.012419-.120814-.010788-.183594.00195-.125568.025479-.25248.097424-.359375.2050781l-8.765625 8.7265657 8.765625 8.726562c.106895.107655.233807.179601.359375.205079.06278.01274.124617.01442.183594.002.05898-.01242.115095-.03813.164062-.07813l.707031-.578125c.195869-.159974.213793-.491722 0-.707032l-7.613281-7.570354 7.613281-7.5703125c.213793-.2153087.195869-.5470574 0-.7070313l-.707031-.578125c-.04897-.039992-.105082-.065709-.164062-.078125z" fill="#fff"/><circle cx="15" cy="14" fill="#6d6e6c" r="0"/></svg>