<svg height="33" viewBox="0 0 8.7312499 8.7312502" width="33" xmlns="http://www.w3.org/2000/svg"><path d="m4 4c-1.1079998 0-2 .8919998-2 2v7c0 1.108.8920002 2 2 2h9c1.108 0 2-.892 2-2v-7c0-1.1080002-.892-2-2-2zm16 0c-1.108 0-2 .8919998-2 2v7c0 1.108.892 2 2 2h9c1.108 0 2-.892 2-2v-7c0-1.1080002-.892-2-2-2zm-14.5 2h6c.830999 0 1.5.6689998 1.5 1.5v4c0 .831-.669001 1.5-1.5 1.5h-6c-.8309991 0-1.5-.669-1.5-1.5v-4c0-.8310002.6690009-1.5 1.5-1.5zm16 0h6c.830999 0 1.5.669 1.5 1.5v4c0 .831-.669001 1.5-1.5 1.5h-6c-.830999 0-1.5-.669-1.5-1.5v-4c0-.831.669001-1.5 1.5-1.5zm-17.5 12c-1.1079998 0-2 .892-2 2v7c0 1.108.8920002 2 2 2h9c1.108 0 2-.892 2-2v-7c0-1.108-.892-2-2-2zm16 0c-1.108 0-2 .892-2 2v7c0 1.108.892 2 2 2h9c1.108 0 2-.892 2-2v-7c0-1.108-.892-2-2-2zm-14.5 2h6c.830999 0 1.5.669 1.5 1.5v4c0 .831-.669001 1.5-1.5 1.5h-6c-.8309991 0-1.5-.669-1.5-1.5v-4c0-.831.6690009-1.5 1.5-1.5zm16 0h6c.830999 0 1.5.669 1.5 1.5v4c0 .831-.669001 1.5-1.5 1.5h-6c-.830999 0-1.5-.669-1.5-1.5v-4c0-.831.669001-1.5 1.5-1.5z" fill="#a2a2a7" transform="scale(.26458333)"/></svg>