<svg height="32" viewBox="0 0 8.4666664 8.4666669" width="32" xmlns="http://www.w3.org/2000/svg"><path d="m2 1c-.554 0-1 .3661998-1 .8222656v.3554688c0 .4560658.446.8222656 1 .8222656v13c0 .554.4181249 1 .9375 1h.125 5.0292969c-.0492262-.331075-.0839844-.664974-.0839844-1v-.212891c-.5999089-.117635-1.1468585-.396847-1.5800781-.787109h-2.4277344v-12h16v9h2v-9c.554 0 1-.3661998 1-.8222656v-.3554688c0-.4560658-.446-.8222656-1-.8222656zm8.996094 7.9921875c-.286633 0-.572289.1207029-.773438.3632813l-2.4960935 2.9980472c-.1499565.182604-.2308578.412163-.2285156.648437.0043842.55167.4522199.996905 1.0039062.998047h1.4980469v2a4.9999996 4.9999996 0 0 0 5 5h.996094v1.5c.000355.850572.990549 1.316891 1.646484.775391l2.998047-2.503907c.485157-.402297.485157-1.14653 0-1.548828l-2.998047-2.496094c-.182602-.149957-.412163-.230857-.648437-.228515-.55167.004371-.996905.45222-.998047 1.003906v1.498047h-.996094a3 3 0 0 1 -3-3v-2h1.5c.850572-.000356 1.316891-.990549.775391-1.646484l-2.503907-2.9980472c-.201149-.2425784-.488758-.3632813-.77539-.3632813zm5.164062 5.0078125c-.193089.459039-.479445.883218-.851562 1.216797.491471-.363809 1.022344-.705338 1.667968-.710938.703074-.006523 1.386295.235391 1.929688.681641a1.9923905 1.9923905 0 0 1 .011719.007812l.966797.804688h8.615234c.831 0 1.5.669 1.5 1.5v7c0 .831-.669 1.5-1.5 1.5h-12c-.824964 0-1.488425-.659821-1.498047-1.482422-.466222-.448608-.812365-1.024496-.898437-1.707031-.372552-.050718-.741812-.125928-1.103516-.224609v2.914062c0 1.385 1.115001 2.5 2.5 2.5h3.5l-.5 2h-1.5c-.554 0-1 .446-1 1s.446 1 1 1h2 3.5 3.5 2c.554 0 1-.446 1-1s-.446-1-1-1h-1.5l-.5-2h3.5c1.384999 0 2.5-1.115 2.5-2.5v-9c0-1.385-1.115001-2.5-2.5-2.5zm-1.347656 1.572266c-.247316.139739-.53159.203698-.820312.261718v.166016a1.9923905 1.9923905 0 0 1 -.144532.697266l.152344.302734h.060547c.113121-.539234.394473-1.020922.751953-1.427734zm-6.1464844 3.351562-6.3632812 6.363281c-.3917372.391738-.4009798 1.01113-.0214844 1.390625l.0449219.044922c.3794954.379496.9988878.370253 1.390625-.021484l6.0644531-6.064453c-.4535155-.512687-.8286517-1.091058-1.1152344-1.712891z" fill="#a2a2a7" transform="scale(.26458333)"/></svg>