<svg height="32" viewBox="0 0 8.4666664 8.4666669" width="32" xmlns="http://www.w3.org/2000/svg"><path d="m9.4179688 6c-.8742844 0-1.4179688.6615423-1.4179688 1.6894531v16.6113279c0 1.027898.5436844 1.701172 1.4179688 1.701172.4726149 0 .8750412-.189196 1.3476562-.460937l13.775391-7.962891c.980654-.578936 1.322265-.955838 1.322265-1.582031s-.341611-1.005162-1.322265-1.572266l-13.775391-7.9746092c-.472615-.2717319-.8750413-.4492188-1.3476562-.4492188zm.6660152 2.390625a.08210566.08210566 0 0 1 .007813 0 .08210566.08210566 0 0 1 .039062.0117188l13.003907 7.5273442a.08210566.08210566 0 0 1 0 .142578l-13.003907 7.515625a.08210566.08210566 0 0 1 -.123047-.070313v-15.0449218a.08210566.08210566 0 0 1 .076172-.0820312z" fill="#a2a2a7" stroke-width=".24197" transform="scale(.26458333)"/></svg>