<svg viewBox="0 0 16 16" xmlns="http://www.w3.org/2000/svg" xmlns:xlink="http://www.w3.org/1999/xlink"><filter id="a" color-interpolation-filters="sRGB" height="1.135959" width="1.153052" x="-.076526" y="-.067979"><feGaussianBlur stdDeviation=".44180839"/></filter><radialGradient id="b" cx="55.498295" cy="20.746534" gradientTransform="matrix(1 0 0 .72181261 0 7.10169)" gradientUnits="userSpaceOnUse" r="10.03901"><stop offset="0" stop-color="#ff9500"/><stop offset="1" stop-color="#ff9500"/></radialGradient><radialGradient id="c" cx="55.441967" cy="22.525862" gradientTransform="matrix(1.2258064 0 0 1.0478667 -12.519154 -1.07824)" gradientUnits="userSpaceOnUse" r="2.229184"><stop offset="0" stop-color="#f2f2f7"/><stop offset="1" stop-color="#f2f2f7" stop-opacity="0"/></radialGradient><filter id="d" color-interpolation-filters="sRGB" height="1.094553" width="1.097492" x="-.048746" y="-.047277"><feGaussianBlur stdDeviation=".36559322"/></filter>

/&amp;amp;amp;amp;amp;amp;gt;<path d="m2 11.940678h12v2.559322h-12z" filter="url(#d)" opacity=".15" stroke-width="1.015418"/><path d="m2 3v10h6 2.767578 3.232422v-1.847656-1.304688-6.847656z" fill="#f2f2f7"/><path d="m1 2v12h1 6 3.017578 2.982422 1v-2.984375-.03125-4.3984375-3.5859375-1zm1 1h12v4.5859375 2.2617185 1.304688 1.847656h-3.232422-2.767578-6z" fill="#8e8e93"/><path d="m0 0h16v2h-16z" fill="#8e8e93"/><path d="m3 4h10v2h-10z" fill="#ffcc00"/><path d="m15 3.0058594c-.64556.0047454-1.286545.2350809-1.630859.4980468a1.2610056 1.2610056 0 0 0 -.082032.0703126l-.455078.4140624a1.2610056 1.2610056 0 0 0 -.037109.0332032l-4.9726564 4.8886718a1.2610056 1.2610056 0 0 0 -.1035156.1191407c-.2128987.065171-.4271482.030121-.640625.125a1.2610056 1.2610056 0 0 0 -.03125.0136719c-1.2796294.6102161-1.8229702 1.6955962-2.25 2.5781252a1.2610056 1.2610056 0 0 0 -.03125.066406c-.1843281.445981-.3688542.671902-.6621094.927734a1.2610056 1.2610056 0 0 0 -.0019531 0c.03661-.03201.0069496-.010277-.0839844.064454-.120135.09848-.2493936.195964-.3886719.291015a1.2610056 1.2610056 0 0 0 -.0019531 0c-.245247.168016-.5152445.340869-.828125.544922a1.2610056 1.2610056 0 0 0 -.3613281.359375h9.103516c.06814-.09827.136654-.179565.203125-.287109.249347-.403425.431494-.941875.488281-1.53711l2.767578-3.972656v-1.6171875-1.5859375zm-12.5644531 10.9960936a1.2610056 1.2610056 0 0 0 -.1914063.498047h8.9179684c.129688-.167477.240638-.298745.378907-.498047z" fill="#f2f2f7" fill-opacity=".784314"/><g transform="matrix(.40739216 0 0 .40739216 -14.782967 2.351418)"><path d="m57.661017 18.305085 12.20339-12.0000003 1.118644-1.0169491c.535947-.4093238 1.138074-.6755092 2.338983-.6101695l.813559.6101695c.306849.6596707.152068 1.3286734.101695 2.0338983l-11.694915 16.7796611z" fill="#d1d1d6" stroke="#8e8e93" stroke-width="2.454637"/><path d="m59.389831 19.322034 12.813559-13.1186442.686441-.5338983.355932.3305085-12.122973 15.267452z" fill="#f2f2f7" filter="url(#a)"/><path d="m54.915254 19.525424c-2.355192 1.12312-2.986044 2.645733-4.067796 4.881356-1.280902 3.099136-3.365034 4.179849-6 5.898305 4.002224 2.208107 12.344829 3.382311 15.355932-1.016949 1.803572-2.317145 5.097789-5.637418 1.932203-8.237289-2.997587-2.267403-4.004437-2.954713-7.220339-1.525423z" fill="url(#b)" stroke="#c93400" stroke-width="2.454637"/><path d="m49.395592 26.820763c-1.20494 1.428749-2.746668 2.309185-4.547936 3.483925 4.002224 2.208106 12.344366 3.383635 15.355469-1.015626-2.950168-3.198325-8.750083-1.802762-10.807533-2.468299z" fill="#007aff" stroke="#0040dd" stroke-width="2.454637"/><ellipse cx="55.441967" cy="22.525862" fill="url(#c)" rx="2.732548" ry="2.335888"/></g></svg>