<svg height="16" viewBox="0 0 16 16" width="16" xmlns="http://www.w3.org/2000/svg"><path d="m3.5917969 1c-.9502089.0002614-1.5934887.8349473-1.59375 1.7851561l.0039062 10.6855469-.0019531.029297c-.0004468.863446.572101 1.499368 1.4355469 1.5.020206-.00091.040392-.0022.060547-.0039l.0039061.0039c.051434-.000012.1036451-.0067.15625-.01563.0006222-.000106.00133.000107.00195 0 .034083-.006.067955-.0132.1015625-.02148.0005897-.00016.00136.000161.00195 0 .6019323-.129031 1.0721408-.59924 1.2011718-1.201172v-.002c.00922-.03399.015669-.06778.021484-.101563v-.002c.0089613-.05251.0156201-.104721.0156317-.156155v-.064453-6.935547l5.740234 7.785156c.428796.633504.759766.714844 1.259766.714844l.408203.01563c.950209-.000261 1.720442-.770494 1.720703-1.720703v-11.0507864c.000526-.6865755-.942331-1.2435909-1.628906-1.2441406-.687338-.00053004-1.482952.6153957-1.482422 1.3027344.000564.00847.0012.016934.002.025391l-.019578 6.6718746-5.8945312-7.6210938c-.1352714-.2123507-.4096522-.38364199-.6054688-.3789062z" fill="#efefef" stroke-width=".504871"/></svg>