<svg height="16" viewBox="0 0 4.2333332 4.2333335" width="16" xmlns="http://www.w3.org/2000/svg"><path d="m3.5175781 0-2.5175781.0078125c-.55226199.0000552-.999945.44773811-1 1v3 9.9999995h2v-7.007812h.0019531v-3.4980469c-.00037-.2659227.2087659-.4785334.4707031-.4941406h-1.4726562v-2h3l2.9921875 1.9941406h8.5097655c.272847-.0003732.492911.2187195.498047.4902344v-.484375c-.000055-.5522621-.447738-.9999448-1-1h-7.5859375l-2.7070313-1.70703125c-.2849699-.1494008-.7063711-.29230665-1.1894531-.30078125zm11.4824219 4v2 1 2 1 2 1 1.007812h.001953v-7.007812h.001953v-3zm-12.0019531 3v7.007812h.0019531v-1.007812-1-2-1-2z" fill="#f8db8f" fill-rule="evenodd" transform="scale(.26458333)"/><path d="m1 4.0078125v8.9999995h1v-6.007812h.0019531v-2.9921875zm1.9980469 2.9921875v6.007812h.0019531v-.007812-1-2-1-2z" fill="#ed8733" stroke-width=".999999" transform="scale(.26458333)"/><g transform="translate(0 -292.76665)"><path d="m.79375 293.825h3.1749998v.52917h-3.1749998z" fill="#797774" stroke-width=".166389"/><g stroke-width=".264583"><path d="m.66197508 293.56093c-.0731047-.0001-.13239336.0592-.13229166.1323v.92552h-.00051675v2.24896c-.00010171.0731.0591869.13239.13229166.13229h3.43958317c.073105.0001.1323933-.0592.1322917-.13229v-2.24896h.0005291v-.92552c.0001016-.0731-.059187-.1324-.1322916-.1323zm.13177492.26407h.79375v.52917h-.79375zm1.0583333 0h.79375v.52917h-.79375zm1.0583333 0h1.0593667v.79375h-.0005292v2.11718h-3.17602086v-2.11718h.00051676 3.1749998v-.26458h-1.0583332z" fill="#fafafa"/><path d="m1.5875 294.61875v.52917h-.79375v.26458h.79375v.52917h-.79375v.26458h.79375v.52917h.2645833v-.52917h.79375v.52917h.2645833v-.52917h1.0583332v-.26458h-1.0583332v-.52917h1.0583332v-.26458h-1.0583332v-.52917h-.2645833v.52917h-.79375v-.52917zm.2645833.79375h.79375v.52917h-.79375z" fill="#c8c6c4"/></g></g></svg>