<svg height="1024" width="1024" xmlns="http://www.w3.org/2000/svg" xmlns:xlink="http://www.w3.org/1999/xlink"><linearGradient id="a" gradientTransform="matrix(4.0217311 0 0 4.0377691 2610.1082 4796.3585)" gradientUnits="userSpaceOnUse" x1="151.89412" x2="-24.890966" xlink:href="#b" y1="-1168.5558" y2="-1398.881"/><linearGradient id="b"><stop offset="0" stop-color="#535353"/><stop offset="1" stop-color="#7e7e7e"/></linearGradient><linearGradient id="c" gradientUnits="userSpaceOnUse" x1="3226.00004" x2="2506.00004" y1="68.0003" y2="-851.9997"><stop offset="0" stop-color="#e6e6e6"/><stop offset="1" stop-color="#fff"/></linearGradient><linearGradient id="d" gradientUnits="userSpaceOnUse" x1="3277.8457" x2="2472.1543" xlink:href="#b" y1="122.46191" y2="-893.53809"/><linearGradient id="e" gradientUnits="userSpaceOnUse" x1="3268.3086" x2="2469" xlink:href="#b" y1="123.07144" y2="-893.92859"/><g transform="translate(-2357.5 895.99995)"><path d="m2507.7763-896.00005c-16.5556 0-31.7763 14.72919-31.7763 32.48242v959.802736c0 15.469544 14.5086 31.714844 31.0722 31.714844h722.8645c18.5345 0 33.0477-15.47705 33.0477-30.974609v-596.767581c0-16.89736-2.0504-24.7277-14.0194-36.67383l-341.7826-341.14648c-11.9691-11.94213-21.1265-18.10119-38.0546-18.11719zm509.9865.15625c-27.391 0-28.5919 28.45464-14.1073 42.98437v.004l213.0638 213.73438c17.3848 17.42928 46.2807 13.29444 46.2807-14.19727v-209.73828c0-16.90935-15.3294-32.78711-32.1733-32.78711h-213.0639z" fill="url(#a)" stroke-width="15.997"/><path d="m2526-846.00005v926h688v-574l-352-352z" fill="url(#c)"/><path d="m2623.8457-475.07617v315.38476 7.69141 100h492.3086v-100-7.69141-315.38476z" fill="url(#d)"/><rect fill="#fcede4" height="300" rx="3.846154" width="469.23077" x="2635.3845" y="-463.53818"/><path d="m2635.3846-148.15384h469.2308v84.61538h-469.2308z" fill="#fff" opacity=".99"/><path d="m3068.0769-453.91922v280.76923m-396.1538-280.76923v280.76923m196.1538-280.76923v280.76923m-219.2461-15.38462h442.3384m-442.3384-173.07692h442.3384m-442.3384-76.92308h442.3384" fill="none" stroke="#f09e6f" stroke-dasharray="3.846154 11.538461" stroke-linecap="square" stroke-width="3.846154"/><path d="m2839.0918-440.46474-81.7813 190.65234-48.4375-94.53711-46.5644 17.72266 8.2793 28.82617 22.4394-11.75781 57.6153 122.94336h13.6543l94.0761-223.07618h188.5391v15.38282h23.0879v-46.15235h-230.8926l-.016-.004zm44.0664 76.92187 64.8926 86.26953v1.09571l-67.2774 89.55859h38.1426l50.0645-66.64648h1.1933l50.0606 66.64648h41.3242l-68.8672-91.01953v-1.09571l63.2988-84.80468h-38.1406l-46.8848 61.52734h-1.1914l-45.2929-61.53125zm172.832.004v-.004zm-129.4902 224.84756c-5.4769 0-9.1384.81456-11 2.44532-1.8461 1.6-2.7695 4.83157-2.7695 9.67773v7.89844c0 3.2923-.5847 5.57025-1.7539 6.8164-1.1539 1.25385-3.2848 1.88477-6.3848 1.88477h-2.0391v4.69141h2.0391c3.0769 0 5.1921.6469 6.3613 1.92382 1.1846 1.26923 1.7696 3.56169 1.7696 6.88477v7.86914c0 4.84615.9233 8.09165 2.7695 9.70703 1.8692 1.63077 5.5384 2.43164 11 2.43164h2.1074v-4.73047h-2.3066c-3.0693 0-5.0851-.46997-6.0235-1.42382-.9231-.94615-1.3847-2.98459-1.3847-6.12305v-8.17774c0-3.41538-.4844-5.90708-1.4844-7.46093-.9769-1.56153-2.7001-2.63817-5.1309-3.23047 2.4077-.55385 4.115-1.60068 5.0996-3.16992 1.0077-1.55384 1.5157-4.05385 1.5157-7.5v-8.16797c0-3.11538.4616-5.1476 1.3847-6.09375.9461-.96154 2.9465-1.44532 6.0235-1.44532h2.3066v-4.70703zm53.5762.0137v4.70898h2.2304c3.1 0 5.1163.48377 6.0625 1.44531.9538.96923 1.4161 2.99949 1.4161 6.0918v8.16992c0 3.44615.4919 5.95373 1.4765 7.49219 1.0154 1.55384 2.7234 2.61607 5.1387 3.16992-2.4461.58461-4.1387 1.66124-5.1387 3.23047-.9846 1.53846-1.4765 4.03786-1.4765 7.46094v8.16992c0 3.0923-.47 5.12257-1.4161 6.0918-.9462.96154-2.9625 1.44726-6.0625 1.44726h-2.2304v4.73047h2.0468c5.4616 0 9.1148-.80869 10.961-2.43945 1.8461-1.63077 2.7695-4.86087 2.7695-9.70703v-7.86133c0-3.31538.5922-5.60785 1.7461-6.88477 1.1846-1.26923 3.3237-1.9082 6.416-1.9082h2.1074v-4.70703h-2.1152c-3.1 0-5.2392-.62311-6.4238-1.87696-1.1616-1.24615-1.7383-3.5241-1.7383-6.8164v-7.89844c0-4.84616-.9234-8.07762-2.7695-9.66992-1.8462-1.62308-5.4994-2.43945-10.961-2.43945zm-107.5371 6.76171v.008h.01zm0 .008h-6.0703v10.46289h-9.8458v4.70703h9.8458v20.01562c0 4.46154.9392 7.5988 2.8007 9.42188 1.8692 1.80769 5.0768 2.73242 9.6153 2.73242h7.4082v-4.84766h-6.8164c-2.5692 0-4.3697-.53831-5.4004-1.61523-1.0308-1.07692-1.5528-2.96833-1.5528-5.69141v-20.01562h13.7696v-4.71484h-13.7539zm-123.5782 8.59961c-4.4231 0-7.8458.9695-10.2304 2.89257-2.3923 1.9077-3.5918 4.63927-3.5918 8.17774 0 2.76923.8062 4.98446 2.4062 6.61523 1.6 1.6 4.1464 2.73152 7.6387 3.42383l2.2695.46094.2617.0762c5.3693 1.07692 8.0625 3.01664 8.0625 5.83203 0 1.96154-.7396 3.47617-2.2011 4.57617-1.477 1.06154-3.5536 1.59961-6.2305 1.59961-1.8461 0-3.7998-.27647-5.8613-.8457-2.0616-.59231-4.2229-1.47702-6.4844-2.63086v6.25391c2.3307.76924 4.4844 1.32241 6.4844 1.70703 2 .3923 3.9074.60156 5.7304.60156 4.6077 0 8.2085-1.02427 10.8008-3.07812 2.577-2.05384 3.8848-4.9083 3.8848-8.53907 0-2.75384-.7861-4.9837-2.3399-6.6914-1.5385-1.71538-3.8144-2.85472-6.8144-3.43164l-2.4395-.46094c-4.0154-.76923-6.5371-1.56145-7.5371-2.36914-1.0077-.81539-1.5156-2.04526-1.5156-3.69141 0-1.81539.6694-3.16994 2.0156-4.04687 1.3538-.89999 3.4063-1.36133 6.1524-1.36133 1.8308 0 3.6018.26184 5.3711.76953 1.7538.5 3.492 1.26953 5.2304 2.26953v-5.92383h.016c-1.7692-.73077-3.554-1.26139-5.3848-1.61523-1.8077-.37693-3.7088-.57031-5.6934-.57031zm38.6153.13086c-4.4231 0-7.9225 1.72376-10.461 5.16992-2.5461 3.44615-3.8086 8.21457-3.8086 14.32226 0 5.98463 1.2705 10.69997 3.8243 14.12305 2.5616 3.40769 6.0532 5.10156 10.4609 5.10156 2.2154 0 4.1609-.48561 5.8301-1.43945 1.6884-.99769 3.0238-2.3942 4.0078-4.21875v18.72656h6.0937v-50.90039h-6.0937v4.7168c-1.0077-1.82308-2.3526-3.20815-4.0449-4.1543-1.6693-.96154-3.6009-1.44726-5.8086-1.44726zm51.4004.60156c-2.8693 0-5.3533.69973-7.461 2.10742-2.0923 1.38461-3.6465 3.38461-4.6465 6v-7.20898h-6.0918v36.86914h6.0918v-18.34571c0-4.47692 1-7.9003 3-10.26953 1.9923-2.36923 4.8776-3.55273 8.6621-3.55273 1.6002 0 3.0756.22986 4.4141.6914 1.3281.46061 2.6497 1.19841 3.9395 2.19532v-6.1875c-1.177-.79231-2.4245-1.36906-3.7168-1.73828-1.3-.37692-2.6914-.56055-4.1914-.56055zm7.9082 8.48633v.006h.01c0-.002-.01-.004-.01-.006zm89.8613-8.31836 13.207 17.64648-14.4843 19.23047h7l10.7695-14.7832 10.8066 14.7832h7l-14.4844-19.23047 13.209-17.64648h-6.8164l-9.7148 13.33984-9.7695-13.33984zm-148.2012 4.36914c2.9231 0 5.1326 1.19985 6.6172 3.61523 1.5154 2.39231 2.2676 5.93233 2.2676 10.60156 0 4.67693-.7523 8.22147-2.2754 10.64454-1.4846 2.39231-3.6921 3.58593-6.6152 3.58593s-5.1249-1.19351-6.6172-3.57812c-1.4615-2.39231-2.1992-5.94638-2.1992-10.63867l.01-.0137c0-4.69231.7377-8.24624 2.1992-10.63085 1.4923-2.39232 3.6921-3.58594 6.6152-3.58594z" fill="url(#e)"/></g></svg>