<svg height="1024" width="1024" xmlns="http://www.w3.org/2000/svg" xmlns:xlink="http://www.w3.org/1999/xlink"><linearGradient id="a" gradientTransform="matrix(5.714289 0 0 -10.666642 -2293.4308 -10700.114)" gradientUnits="userSpaceOnUse" x1="525.63947" x2="525.63947" y1="-1078.6444" y2="-1068.7872"><stop offset="0" stop-color="#8ee780"/><stop offset="1" stop-color="#ccf4c6"/></linearGradient><linearGradient id="b" gradientTransform="matrix(5.714289 0 0 -7.1110732 -2357.4308 -6866.7537)" gradientUnits="userSpaceOnUse" x1="525.63947" x2="525.63947" y1="-1078.6444" y2="-1068.7872"><stop offset="0" stop-color="#f5ce53"/><stop offset="1" stop-color="#fde9a9"/></linearGradient><linearGradient id="c" gradientTransform="matrix(5.714289 0 0 -16.888883 -2421.4308 -17408.516)" gradientUnits="userSpaceOnUse" x1="525.63947" x2="525.63947" y1="-1078.6444" y2="-1068.7872"><stop offset="0" stop-color="#f09e6f"/><stop offset="1" stop-color="#f9cfb5"/></linearGradient><linearGradient id="d" gradientUnits="userSpaceOnUse" x1="615.2517" x2="615.2517" y1="712.23491" y2="639.98526"><stop offset="0" stop-color="#a33e03"/><stop offset="1" stop-color="#c15414"/></linearGradient><linearGradient id="e" gradientTransform="matrix(5.714289 0 0 -12.444402 -2485.4308 -12616.835)" gradientUnits="userSpaceOnUse" x1="525.63947" x2="525.63947" y1="-1078.6444" y2="-1068.7872"><stop offset="0" stop-color="#63bbee"/><stop offset="1" stop-color="#aadcf7"/></linearGradient><linearGradient id="f" gradientTransform="matrix(7.5897453 0 0 10.400002 -5793.0794 11885.818)" gradientUnits="userSpaceOnUse" x1="829.36053" x2="829.36053" y1="-1064.7994" y2="-1082.3413"><stop offset="0" stop-color="#e4e4e4"/><stop offset="1" stop-color="#f9f9f9"/></linearGradient><linearGradient id="g" gradientUnits="userSpaceOnUse" x1="578.502" x2="578.502" y1="831.984123" y2="623.98444"><stop offset="0" stop-color="#727272"/><stop offset="1" stop-color="#9a9a9a"/></linearGradient><linearGradient id="h" gradientUnits="userSpaceOnUse" x1="868" x2="148" y1="984" y2="44"><stop offset="0" stop-color="#18a303"/><stop offset="1" stop-color="#43c330"/></linearGradient><linearGradient id="i" gradientUnits="userSpaceOnUse" x1="864" x2="160" y1="976" y2="48"><stop offset="0" stop-color="#6e6e6e"/><stop offset="1" stop-color="#b0b0b0"/></linearGradient><linearGradient id="j" gradientUnits="userSpaceOnUse" x1="868.00004" x2="148.00004" y1="964.0004" y2="44.0004"><stop offset="0" stop-color="#e6e6e6"/><stop offset="1" stop-color="#fff"/></linearGradient><path d="m208 96v832h608v-640l-24-24h-40c-8.864 0-16-7.136-16-16v-40l-32-32h-40c-8.864 0-16-7.136-16-16v-40l-24-24z" fill="url(#j)"/><path d="m224 48c-35.456 0-64 28.544-64 64v800c0 35.456 28.544 64 64 64h576c31.024 0 56.7547-21.85407 62.7031-51.07031.8496-4.17376 1.2969-8.49769 1.2969-12.92969v-638.125c0-12.3928-2.1952-17.0908-9-24.75l-39-39.20312v38.07812c0 8.864-7.136 16-16 16h-48c-8.864 0-16-7.136-16-16v-72h-72c-8.864 0-16-7.136-16-16v-48c0-8.864 7.136-16 16-16h38.6641l-40.4141-40.625c-2.5536-2.5312-5.3295-4.37979-8.4375-5.59375-1.554-.60696-3.1867-1.05676-4.9219-1.35156s-3.5716-.43569-5.5156-.42969zm-16 48h416v159.375c0 16.9088 15.3038 32.24808 32.125 32.25h159.5l.375.375v640h-608zm58.002 287.98438v16 64 16 64 16 64 16 64 16 64 15.99999h480v-15.99999-400h-464z" fill="url(#i)"/><path d="m768 24c-8.864 0-16 7.136-16 16v72h-72c-8.864 0-16 7.136-16 16v16c0 8.864 7.136 16 16 16h72v72c0 8.864 7.136 16 16 16h16c8.864 0 16-7.136 16-16v-72h72c8.864 0 16-7.136 16-16v-16c0-8.864-7.136-16-16-16h-72v-72c0-8.864-7.136-16-16-16z" fill="url(#h)"/><g fill="#b3b3b3"><path d="m282.0017 399.98521h136v64.00002h-136z"/><path d="m433.9876 399.98521h143.9996v64.00002h-143.9996z"/><path d="m594.0017 399.98521h136.0001v64.00002h-136.0001z"/></g><g fill="#e0e0e0"><path d="m282.0017 479.98523h136v64.00001h-136z"/><path d="m594.0017 479.98523h136.0001v64.00001h-136.0001z"/><path d="m433.9876 559.98524h143.9996v64.00001h-143.9996z"/><path d="m594.0017 559.98524h136.0001v64.00001h-136.0001z"/><path d="m282.0017 559.98524h136v64.00001h-136z"/><path d="m433.9876 639.98526h143.9996v64.00001h-143.9996z"/><path d="m282.0017 639.98526h136v64.00001h-136z"/><path d="m433.9876 719.98527h143.9996v64.00001h-143.9996z"/><path d="m282.0017 719.98527h136v64.00001h-136z"/></g><path d="m466.0017 607.98525h312.0001v224.00004h-312.0001z" fill="url(#g)"/><path d="m482.0017 623.98525h280.0001v192.00004h-280.0001z" fill="url(#f)"/><path d="m498.0017 679.98526h56v127.99923h-56z" fill="#0369a3"/><path d="m506.0017 799.98528h40v-112.00002h-40z" fill="url(#e)"/><path d="m562.0017 639.98526h56v167.99923h-56z" fill="url(#d)"/><path d="m570.0017 799.98528h40v-152.00002h-40z" fill="url(#c)"/><path d="m626.0018 727.98527h56v79.99922h-56z" fill="#c99c00"/><path d="m634.0018 799.98528h40v-64.00001h-40z" fill="url(#b)"/><path d="m690.0018 695.98527h56v112.00002h-56z" fill="#43c330"/><path d="m698.0018 799.98528h40v-96.00001h-40z" fill="url(#a)"/><path d="m433.9876 479.98523h143.9996v64.00001h-143.9996z" fill="#e0e0e0"/></svg>