<svg height="1024" width="1024" xmlns="http://www.w3.org/2000/svg" xmlns:xlink="http://www.w3.org/1999/xlink"><linearGradient id="a" gradientTransform="matrix(5.714289 0 0 -10.666642 -2292.6706 -10660.114)" gradientUnits="userSpaceOnUse" x1="525.63947" x2="525.63947" y1="-1078.6444" y2="-1068.7872"><stop offset="0" stop-color="#8ee780"/><stop offset="1" stop-color="#ccf4c6"/></linearGradient><linearGradient id="b" gradientTransform="matrix(5.714289 0 0 -7.1110732 -2356.6706 -6826.7537)" gradientUnits="userSpaceOnUse" x1="525.63947" x2="525.63947" y1="-1078.6444" y2="-1068.7872"><stop offset="0" stop-color="#f5ce53"/><stop offset="1" stop-color="#fde9a9"/></linearGradient><linearGradient id="c" gradientTransform="matrix(5.714289 0 0 -16.888883 -2420.6706 -17368.516)" gradientUnits="userSpaceOnUse" x1="525.63947" x2="525.63947" y1="-1078.6444" y2="-1068.7872"><stop offset="0" stop-color="#f09e6f"/><stop offset="1" stop-color="#f9cfb5"/></linearGradient><linearGradient id="d" gradientUnits="userSpaceOnUse" x1="616.0119" x2="616.0119" y1="752.23486" y2="679.98521"><stop offset="0" stop-color="#a33e03"/><stop offset="1" stop-color="#c15414"/></linearGradient><linearGradient id="e" gradientTransform="matrix(5.714289 0 0 -12.444402 -2484.6706 -12576.835)" gradientUnits="userSpaceOnUse" x1="525.63947" x2="525.63947" y1="-1078.6444" y2="-1068.7872"><stop offset="0" stop-color="#63bbee"/><stop offset="1" stop-color="#aadcf7"/></linearGradient><linearGradient id="f" gradientTransform="matrix(7.5897453 0 0 10.400002 -5792.3192 11925.818)" gradientUnits="userSpaceOnUse" x1="829.36053" x2="829.36053" y1="-1064.7994" y2="-1082.3413"><stop offset="0" stop-color="#e4e4e4"/><stop offset="1" stop-color="#f9f9f9"/></linearGradient><linearGradient id="g" gradientUnits="userSpaceOnUse" x1="579.2622" x2="579.2622" y1="871.984074" y2="663.98439"><stop offset="0" stop-color="#727272"/><stop offset="1" stop-color="#9a9a9a"/></linearGradient><linearGradient id="h" gradientTransform="matrix(8 0 0 8 -3503.2398 39.99995)" gradientUnits="userSpaceOnUse" x1="546" x2="458" xlink:href="#i" y1="122" y2="6"/><linearGradient id="i" gradientTransform="translate(0 20)" gradientUnits="userSpaceOnUse" x1="129" x2="103" y1="56" y2="24"><stop offset="0" stop-color="#535353"/><stop offset="1" stop-color="#7e7e7e"/></linearGradient><linearGradient id="j" gradientTransform="matrix(4.0303798 0 0 4.0464523 252.8105 5703.5011)" gradientUnits="userSpaceOnUse" x1="151.89412" x2="-24.890966" y1="-1168.5558" y2="-1398.881"><stop offset="0" stop-color="#18a303"/><stop offset="1" stop-color="#43c330"/></linearGradient><linearGradient id="k" gradientUnits="userSpaceOnUse" x1="870.026822" x2="148.478462" y1="964.975395" y2="42.996935"><stop offset="0" stop-color="#e6e6e6"/><stop offset="1" stop-color="#fff"/></linearGradient><linearGradient id="l" gradientTransform="matrix(4.0303798 0 0 4.0464523 252.8105 5703.5011)" gradientUnits="userSpaceOnUse" x1="151.89412" x2="-24.890966" xlink:href="#i" y1="-1168.5558" y2="-1398.881"/><path d="m150.3446-.0003c-16.5912 0-31.8446 14.76087-31.8446 32.55228v959.66454c0 15.50278 14.5398 31.78308 31.139 31.78308h724.247c18.5743 0 33.1187-15.5104 33.1187-31.04126v-595.84868c0-16.93369-2.0548-24.78087-14.0495-36.75269l-342.5176-341.88012c-11.9949-11.96781-21.172-18.14011-38.1365-18.15615zm510.9112.15659c-27.4499 0-28.6534 28.51583-14.1377 43.07681v.004l213.522 214.19402c17.4222 17.46676 46.3803 13.32303 46.3803-14.2278v-210.18932c0-16.94572-15.3624-32.85762-32.2425-32.85762h-213.5221z" fill="url(#l)" stroke-width="15.997"/><path d="m168.6075 50.10723v925.78911h689.3075v-573.03214l-352.757-352.75697z" fill="url(#k)"/><path d="m661.2558.15629c-27.4499 0-28.6534 28.51583-14.1377 43.07681v.004l213.522 214.19402c17.4222 17.46676 46.3803 13.32303 46.3803-14.2278v-210.18932c0-16.94572-15.3624-32.85762-32.2425-32.85762h-213.5221z" fill="url(#j)" stroke-width="15.997"/><path d="m266.7622 423.98433v16 64 16 64 16 64 16 64 16 64 16h480v-16-400h-464z" fill="url(#h)"/><g fill="#b3b3b3"><path d="m282.7619 439.98516h136v64.00002h-136z"/><path d="m434.7478 439.98516h143.9996v64.00002h-143.9996z"/><path d="m594.7619 439.98516h136.0001v64.00002h-136.0001z"/></g><g fill="#e0e0e0"><path d="m282.7619 519.98518h136v64.00001h-136z"/><path d="m594.7619 519.98518h136.0001v64.00001h-136.0001z"/><path d="m434.7478 599.98519h143.9996v64.00001h-143.9996z"/><path d="m594.7619 599.98519h136.0001v64.00001h-136.0001z"/><path d="m282.7619 599.98519h136v64.00001h-136z"/><path d="m434.7478 679.98521h143.9996v64.00001h-143.9996z"/><path d="m282.7619 679.98521h136v64.00001h-136z"/><path d="m434.7478 759.98522h143.9996v64.00001h-143.9996z"/><path d="m282.7619 759.98522h136v64.00001h-136z"/></g><path d="m466.7619 647.9852h312.0001v224.00004h-312.0001z" fill="url(#g)"/><path d="m482.7619 663.9852h280.0001v192.00004h-280.0001z" fill="url(#f)"/><path d="m498.7619 719.98521h56v127.99923h-56z" fill="#18a303"/><path d="m506.7619 839.98523h40v-112.00002h-40z" fill="url(#e)"/><path d="m562.7619 679.98521h56v167.99923h-56z" fill="url(#d)"/><path d="m570.7619 839.98523h40v-152.00002h-40z" fill="url(#c)"/><path d="m626.762 767.98522h56v79.99922h-56z" fill="#c99c00"/><path d="m634.762 839.98523h40v-64.00001h-40z" fill="url(#b)"/><path d="m690.762 735.98522h56v112.00002h-56z" fill="#43c330"/><path d="m698.762 839.98523h40v-96.00001h-40z" fill="url(#a)"/><path d="m434.7478 519.98518h143.9996v64.00001h-143.9996z" fill="#e0e0e0"/></svg>