<svg viewBox="0 0 24 24" xmlns="http://www.w3.org/2000/svg"><path d="m16 2c-1.104567 0-2 .8954327-2 2v16c0 1.104567.895433 2 2 2s2-.895433 2-2v-6h3c1.104567 0 2-.895433 2-2s-.895433-2-2-2h-3v-6c0-1.1045673-.895433-2-2-2zm-12 4c-1.1045673 0-2 .8954327-2 2s.8954327 2 2 2h3.8652344c-.4747001 2.974282-2.3291939 5.522213-4.9609375 6.90625l.0097656.015625a2 2 0 0 0 -.9140625 1.677734 2 2 0 0 0 2 2 2 2 0 0 0 1.1796875-.390625c3.9811097-2.272076 6.6194945-6.470661 6.7968745-11.208984l.023438-3z" fill="#2e3436"/></svg>