<svg viewBox="0 0 16 16" xmlns="http://www.w3.org/2000/svg"><path d="m12.5625 1-.28125.28125-2 2c-.18814.18817-.28122.45344-.28125.71875v1h1c.2653 0 .53058-.0931.71875-.28125l.28125-.28125v7.125l-.28125-.28125c-.18818-.18811-.45344-.28129-.71875-.28125h-1v1c0 .26529.09304.53057.28125.71875l2 2 .28125.28125h.875l.28125-.28125 2-2c.18814-.18817.28122-.45344.28125-.71875v-1h-1c-.2653 0-.53058.0931-.71875.28125l-.28125.28125v-7.125l.28125.28125c.18818.18811.45344.28129.71875.28125h1v-1s-.09304-.53057-.28125-.71875l-2-2-.28125-.28125zm-5.5625 1v12h2v-5h2v-2h-2v-5zm-7 3v2h4c-.00211 2.3742884-1.6736809 4.419674-4 4.894531v2.025391c3.4408974-.496648 5.9958868-3.443369 6-6.919922v-2h-.2949219-2.1289062z" fill="#555753"/></svg>