<?xml version="1.0" encoding="UTF-8" standalone="no"?>
<!-- Created with Inkscape (http://www.inkscape.org/) -->

<svg
   xmlns:dc="http://purl.org/dc/elements/1.1/"
   xmlns:cc="http://creativecommons.org/ns#"
   xmlns:rdf="http://www.w3.org/1999/02/22-rdf-syntax-ns#"
   xmlns:svg="http://www.w3.org/2000/svg"
   xmlns="http://www.w3.org/2000/svg"
   xmlns:xlink="http://www.w3.org/1999/xlink"
   xmlns:sodipodi="http://sodipodi.sourceforge.net/DTD/sodipodi-0.dtd"
   xmlns:inkscape="http://www.inkscape.org/namespaces/inkscape"
   width="32"
   height="32"
   id="svg5453"
   version="1.1"
   inkscape:version="0.91 r13725"
   sodipodi:docname="extension.svg">
  <defs
     id="defs5455">
    <linearGradient
       inkscape:collect="always"
       id="linearGradient4143">
      <stop
         style="stop-color:#197cf1;stop-opacity:1"
         offset="0"
         id="stop4145" />
      <stop
         style="stop-color:#20bcfa;stop-opacity:1"
         offset="1"
         id="stop4147" />
    </linearGradient>
    <linearGradient
       inkscape:collect="always"
       id="linearGradient4290">
      <stop
         style="stop-color:#7cbaf8;stop-opacity:1"
         offset="0"
         id="stop4292" />
      <stop
         style="stop-color:#f4fcff;stop-opacity:1"
         offset="1"
         id="stop4294" />
    </linearGradient>
    <linearGradient
       id="linearGradient4227"
       inkscape:collect="always">
      <stop
         id="stop4229"
         offset="0"
         style="stop-color:#292c2f;stop-opacity:1" />
      <stop
         id="stop4231"
         offset="1"
         style="stop-color:#000000;stop-opacity:0;" />
    </linearGradient>
    <linearGradient
       gradientTransform="matrix(0.87500125,0,0,0.8,43.070981,110.7596)"
       gradientUnits="userSpaceOnUse"
       y2="517.54797"
       x2="409.90469"
       y1="543.79797"
       x1="409.90469"
       id="linearGradient4158"
       xlink:href="#linearGradient4143"
       inkscape:collect="always" />
    <linearGradient
       gradientUnits="userSpaceOnUse"
       y2="11"
       x2="24"
       y1="43.999973"
       x1="24"
       id="linearGradient4205"
       xlink:href="#linearGradient4143"
       inkscape:collect="always"
       gradientTransform="matrix(0.76923038,0,0,0.8,381.95605,513.598)" />
    <linearGradient
       id="linearGradient4159-7"
       inkscape:collect="always">
      <stop
         id="stop4161-4"
         offset="0"
         style="stop-color:#1d1e1e;stop-opacity:1" />
      <stop
         id="stop4163-9"
         offset="1"
         style="stop-color:#44484c;stop-opacity:1" />
    </linearGradient>
    <linearGradient
       gradientUnits="userSpaceOnUse"
       y2="13.999968"
       x2="24.200006"
       y1="10.25"
       x1="24.200022"
       id="linearGradient4302"
       xlink:href="#linearGradient4159-7"
       inkscape:collect="always"
       gradientTransform="matrix(0.76923038,0,0,0.8,381.95605,513.598)" />
    <linearGradient
       y2="10.25"
       x2="24.200022"
       y1="14"
       x1="24"
       gradientUnits="userSpaceOnUse"
       id="linearGradient4174"
       xlink:href="#linearGradient4143"
       inkscape:collect="always"
       gradientTransform="matrix(0.76923038,0,0,0.8,381.95605,513.598)" />
    <linearGradient
       gradientUnits="userSpaceOnUse"
       y2="503.798"
       x2="408.77145"
       y1="516.29797"
       x1="408.77145"
       id="linearGradient4187"
       xlink:href="#linearGradient4143"
       inkscape:collect="always"
       gradientTransform="matrix(0.76923038,0,0,0.8,86.132065,113.7596)" />
    <linearGradient
       id="linearGradient4303"
       inkscape:collect="always">
      <stop
         id="stop4305"
         offset="0"
         style="stop-color:#c6cdd1;stop-opacity:1" />
      <stop
         id="stop4307"
         offset="1"
         style="stop-color:#e0e5e7;stop-opacity:1" />
    </linearGradient>
    <linearGradient
       gradientTransform="matrix(0.60096123,0,0,0.625,393.96086,527.17294)"
       gradientUnits="userSpaceOnUse"
       y2="3.0000401"
       x2="10.99999"
       y1="19.00004"
       x1="10.99999"
       id="linearGradient4452"
       xlink:href="#linearGradient4290"
       inkscape:collect="always" />
    <linearGradient
       gradientUnits="userSpaceOnUse"
       y2="38.999729"
       x2="32"
       y1="23"
       x1="16.000011"
       id="linearGradient4507"
       xlink:href="#linearGradient4227"
       inkscape:collect="always"
       gradientTransform="matrix(0.78126807,0,0,0.8,381.75817,510.398)" />
    <linearGradient
       inkscape:collect="always"
       xlink:href="#linearGradient4303"
       id="linearGradient4291"
       x1="10"
       y1="13"
       x2="10"
       y2="10"
       gradientUnits="userSpaceOnUse" />
    <linearGradient
       gradientTransform="translate(395.57143,515.798)"
       inkscape:collect="always"
       xlink:href="#linearGradient4303"
       id="linearGradient4291-7"
       x1="10"
       y1="13"
       x2="10"
       y2="10"
       gradientUnits="userSpaceOnUse" />
  </defs>
  <sodipodi:namedview
     id="base"
     pagecolor="#ffffff"
     bordercolor="#666666"
     borderopacity="1.0"
     inkscape:pageopacity="0"
     inkscape:pageshadow="2"
     inkscape:zoom="23.979306"
     inkscape:cx="18.996586"
     inkscape:cy="15.539021"
     inkscape:document-units="px"
     inkscape:current-layer="layer1"
     showgrid="true"
     fit-margin-top="0"
     fit-margin-left="0"
     fit-margin-right="0"
     fit-margin-bottom="0"
     inkscape:window-width="1920"
     inkscape:window-height="1016"
     inkscape:window-x="-4"
     inkscape:window-y="0"
     inkscape:window-maximized="1"
     inkscape:showpageshadow="false"
     borderlayer="true"
     showguides="true"
     inkscape:snap-bbox="true"
     inkscape:object-nodes="true"
     inkscape:snap-global="false">
    <inkscape:grid
       type="xygrid"
       id="grid4063" />
    <sodipodi:guide
       position="1.1650391e-05,2.6367188e-05"
       orientation="0,32"
       id="guide4159" />
    <sodipodi:guide
       position="32.000012,2.6367188e-05"
       orientation="-32,0"
       id="guide4161" />
    <sodipodi:guide
       position="32.000012,32.000026"
       orientation="0,-32"
       id="guide4163" />
    <sodipodi:guide
       position="2.0000117,30.000026"
       orientation="28,0"
       id="guide4167" />
    <sodipodi:guide
       position="2.0000117,2.0000264"
       orientation="0,28"
       id="guide4169" />
    <sodipodi:guide
       position="30.000012,2.0000264"
       orientation="-1,-8.0000141e-07"
       id="guide4171" />
    <sodipodi:guide
       position="30.000012,30.000026"
       orientation="0,-28"
       id="guide4173" />
    <sodipodi:guide
       position="2.0000117,30.000026"
       orientation="28,0"
       id="guide4181" />
    <sodipodi:guide
       position="2.0000117,2.0000264"
       orientation="0,14"
       id="guide4183" />
    <sodipodi:guide
       position="16.000012,2.0000264"
       orientation="-28,0"
       id="guide4185" />
    <sodipodi:guide
       position="16.000012,30.000026"
       orientation="0,-14"
       id="guide4187" />
    <sodipodi:guide
       position="9.0000117,23.000026"
       orientation="14,0"
       id="guide4193" />
    <sodipodi:guide
       position="9.0000117,9.0000264"
       orientation="0,14.000031"
       id="guide4195" />
    <sodipodi:guide
       position="23.000042,9.0000264"
       orientation="-14,0"
       id="guide4197" />
    <sodipodi:guide
       position="23.000042,23.000026"
       orientation="0,-14.000031"
       id="guide4199" />
  </sodipodi:namedview>
  <metadata
     id="metadata5458">
    <rdf:RDF>
      <cc:Work
         rdf:about="">
        <dc:format>image/svg+xml</dc:format>
        <dc:type
           rdf:resource="http://purl.org/dc/dcmitype/StillImage" />
        <dc:title></dc:title>
      </cc:Work>
    </rdf:RDF>
  </metadata>
  <g
     inkscape:label="Capa 1"
     inkscape:groupmode="layer"
     id="layer1"
     transform="translate(-384.57143,-515.798)">
    <path
       inkscape:connector-curvature="0"
       style="fill:url(#linearGradient4205);fill-opacity:1;fill-rule:evenodd;stroke:none;stroke-width:1px;stroke-linecap:butt;stroke-linejoin:miter;stroke-opacity:1"
       d="m 388.57143,522.798 1,1 0,-1 z m 24,0 -1,0 0,1 z"
       id="path4194"
       sodipodi:nodetypes="cccccccc" />
    <rect
       style="opacity:1;fill:url(#linearGradient4158);fill-opacity:1;stroke:none"
       id="rect4139"
       width="28"
       height="20.999973"
       x="386.57144"
       y="524.79797"
       ry="0" />
    <path
       inkscape:connector-curvature="0"
       style="opacity:0.2;fill:url(#linearGradient4507);fill-opacity:1;stroke:none;stroke-opacity:1"
       d="m 398.54042,530.44781 -0.76565,0.93957 4.39239,4.20313 0.11022,0.79466 8.77088,9.34553 0.45778,0 2.20952,0 0.85587,-0.1327 0,-3.91535 -3.93584,-3.38075 -5.23331,-4.85516 -2.26306,1.41062 z m -1.26415,3.85561 -1.21481,1.31353 3.35334,3.81024 -0.88053,0.49304 4.57054,5.9874 4.19222,-0.42758 z"
       id="rect4480"
       sodipodi:nodetypes="cccccccccccccccccccc" />
    <rect
       style="opacity:1;fill:#1c5593;fill-opacity:1;stroke:none"
       id="rect4171"
       width="27.999985"
       height="0.99996471"
       x="386.57144"
       y="544.79797" />
    <path
       inkscape:connector-curvature="0"
       id="path4172"
       d="m 389.57143,521.798 -0.99999,1 0.99999,0 -3,2 13.84615,0 14.15385,-3e-5 -3,-1.99997 1,0 -1,-1 -10.99999,0 z"
       style="fill:url(#linearGradient4174);fill-opacity:1;fill-rule:evenodd;stroke:none;stroke-width:1px;stroke-linecap:butt;stroke-linejoin:miter;stroke-opacity:1"
       sodipodi:nodetypes="ccccccccccc" />
    <path
       inkscape:connector-curvature="0"
       style="opacity:0.6;fill:url(#linearGradient4302);fill-opacity:1;fill-rule:evenodd;stroke:none;stroke-width:1px;stroke-linecap:butt;stroke-linejoin:miter;stroke-opacity:1"
       d="m 389.57143,521.798 -1,1 1,0 -3,2 14,-3e-5 14,0 -3,-1.99997 1,0 -1,-1 -11,0 z"
       id="path4183"
       sodipodi:nodetypes="ccccccccccc" />
    <path
       inkscape:connector-curvature="0"
       style="opacity:0.2;fill:#000000;fill-opacity:1;stroke:none;stroke-opacity:1"
       d="m 389.57143,521.798 -1,1 24,0 -1,-1 -10.99999,0 z"
       id="rect4176"
       sodipodi:nodetypes="cccccc" />
    <path
       style="opacity:1;fill:url(#linearGradient4187);fill-opacity:1;stroke:none;stroke-opacity:1"
       d="m 394.57143,527.798 4e-5,-5 c 3e-5,-3.5456 2.59077,-6 6,-6 3.40923,0 5.97914,2.46274 5.98846,6.00833 l 0.0115,4.99167 -1,0 0,-5 c 0,-3.1024 -2.01692,-5 -5,-5 -2.98307,0 -4.99996,2 -4.99996,5 l -4e-5,5 z"
       id="rect4304"
       inkscape:connector-curvature="0"
       sodipodi:nodetypes="csssccssscc" />
    <path
       inkscape:connector-curvature="0"
       style="opacity:1;fill:url(#linearGradient4452);fill-opacity:1;stroke:none"
       d="m 398.16758,530.29796 c -0.33293,0 -0.60096,0.27875 -0.60096,0.625 0,0.34625 0.26803,0.625 0.60096,0.625 0.33294,0 0.60096,-0.27875 0.60096,-0.625 0,-0.34625 -0.26802,-0.625 -0.60096,-0.625 z m 4.20674,0 -1.20193,1.25 1.80289,1.875 -1.80289,1.875 1.20193,1.25 1.80288,-1.875 1.20192,-1.25 -3.0048,-3.125 z m -5.70913,3.75 c -0.4994,0 -0.90145,0.41812 -0.90145,0.9375 0,0.51938 0.40205,0.9375 0.90145,0.9375 0.49939,0 0.90143,-0.41812 0.90143,-0.9375 0,-0.51938 -0.40204,-0.9375 -0.90143,-0.9375 z m 2.70432,3.75 c -0.66586,0 -1.20193,0.5575 -1.20193,1.25 0,0.6925 0.53607,1.25 1.20193,1.25 0.66586,0 1.20192,-0.5575 1.20192,-1.25 0,-0.6925 -0.53606,-1.25 -1.20192,-1.25 z"
       id="rect4231" />
    <path
       style="fill:url(#linearGradient4291);fill-opacity:1;stroke:none"
       d="M 10.5 10 A 1.4999942 1.4999942 0 0 0 9 11.5 A 1.4999942 1.4999942 0 0 0 10.5 13 A 1.4999942 1.4999942 0 0 0 12 11.5 A 1.4999942 1.4999942 0 0 0 10.5 10 z M 10.5 11 A 0.5 0.5 0 0 1 11 11.5 A 0.5 0.5 0 0 1 10.5 12 A 0.5 0.5 0 0 1 10 11.5 A 0.5 0.5 0 0 1 10.5 11 z "
       transform="translate(384.57143,515.798)"
       id="path4278" />
    <path
       inkscape:connector-curvature="0"
       style="fill:url(#linearGradient4291-7);fill-opacity:1;stroke:none"
       d="m 406.07143,525.798 a 1.4999942,1.4999942 0 0 0 -1.5,1.5 1.4999942,1.4999942 0 0 0 1.5,1.5 1.4999942,1.4999942 0 0 0 1.5,-1.5 1.4999942,1.4999942 0 0 0 -1.5,-1.5 z m 0,1 a 0.5,0.5 0 0 1 0.5,0.5 0.5,0.5 0 0 1 -0.5,0.5 0.5,0.5 0 0 1 -0.5,-0.5 0.5,0.5 0 0 1 0.5,-0.5 z"
       id="path4278-4" />
  </g>
</svg>
