<svg height="32" viewBox="0 0 32 32" width="32" xmlns="http://www.w3.org/2000/svg" xmlns:xlink="http://www.w3.org/1999/xlink"><linearGradient id="a" gradientTransform="matrix(.43103448 0 0 .42293923 -165.05664 -202.14763)" gradientUnits="userSpaceOnUse" x1="414.57144" x2="414.57144" y1="541.79797" y2="499.798"><stop offset="0" stop-color="#6298d5"/><stop offset="1" stop-color="#8ab7e1"/></linearGradient><linearGradient id="b" gradientTransform="matrix(.42087412 0 0 .42288419 223.46281 306.90942)" gradientUnits="userSpaceOnUse" x1="414.57144" x2="414.57144" y1="523.79797" y2="505.798"><stop offset="0" stop-color="#3d6584"/><stop offset="1" stop-color="#4a7ba3"/></linearGradient><linearGradient id="c" gradientTransform="matrix(.42087413 0 0 .42307692 223.46281 313.57577)" gradientUnits="userSpaceOnUse" x1="384.57144" x2="404.57144" y1="477.798" y2="497.798"><stop offset="0" stop-color="#345671"/><stop offset="1" stop-color="#345671" stop-opacity="0"/></linearGradient><g transform="translate(-383.07052 -515.798)"><path d="m387.57143 520.798v2l.005 9.04061c.00012.23427-.2107.80555.0225.80555h22.5519c.23316 0 .42127-.18881.42088-.42308l-.0159-9.47886.0159.0558-12-.00002-1.0471-1.99983-9.9529-.00017z" fill="url(#b)"/><path d="m387.57143 520.798 11 11-.20535.42308 12.20535-7.08365v-2.33943h-12l-1-2z" fill="url(#c)" fill-rule="evenodd"/><path d="m10 9-1 2h-6-.9999883-.0000117.0000117c.0000117-1-.00417-.0088 0 0l-.0000117 15.576172v.423828h.4316406 24.1367184.431641v-.423828-15.22461-.0059-2.345662z" fill="url(#a)" transform="translate(384.57143 515.798)"/><path d="m386.57144 541.798v1h.43104 24.13793.43103v-1h-.43103-24.13793z" fill="#2f6db0"/><g fill-rule="evenodd"><path d="m410.57143 522.798v1h-12l-1-3 2 2z" fill="#8fb1cc"/><path d="m386.57144 526.798v1h6.99999l1-3-1 2z" fill="#fff" fill-opacity=".235294"/><path d="m387.57143 525.798v1h6l1-2-2 1z" fill="#345671"/></g></g></svg>