<svg viewBox="0 0 24 24" xmlns="http://www.w3.org/2000/svg"><path d="m6 4-1 1v1 .3046875l4.03125 5.6953125h1.224609l-4.255859-6.0117188v-.9882812h12v.9882812l-4.255859 6.0117188h1.224609l4.03125-5.6953125v-1.3046875l-1-1zm1 2 2 3v-2l2-1zm13 3-2 2 2 2zm-16 3v1h2v-1zm3 0v1h2v-1zm4 0v1h2v-1zm2 1v.048828.951172 4.019531l-2-1.484375v-2.535156-.951172-.048828h-.035156-1.2246096l.2597656.367188v3.632812.039062l3.990234 2.960938h.009766v-6.632812l.259766-.367188h-1.22461zm2-1v1h2v-1z" fill="#232629"/></svg>