<svg viewBox="0 0 24 24" xmlns="http://www.w3.org/2000/svg"><path d="m13 3c-.2294.00021-.455446.0113031-.679688.0332031-.063269.00825-.12643.0173658-.189453.0273438-.946436.091188-1.792205.4593819-2.615234.875-.0855.0493-.1687631.1015668-.2519531.1542969-.1093596.0679857-.2168223.1389764-.3222657.2128906-.0548995.0392-.1064262.0822969-.1601562.1230468-.1228751.0911001-.2427311.1862032-.359375.2851563-.3089682.2675469-.593911.5616393-.8515625.8789063-.1022437.128041-.1999601.2596325-.2929687.3945312-.5293336.7049868-.8122127 1.5169761-1.0644532 2.3339844-.0105.0427-.0194969.085896-.0292968.1289062-.0416908.1802017-.0762233.361985-.1035157.5449219-.00039.003-.0019531.0048125-.0019531.0078125h.921875.0898438v-.0019531c.1030764-.7292243.4083814-1.3538737.7109374-1.9824219.0077601-.01305.0155756-.0260705.0234376-.0390625.3409698-.58388.7774462-1.1012161 1.2851562-1.5351563.012324-.0111189.0246944-.0221871.0371094-.0332031.5232111-.4678938 1.1363606-.7422624 1.7402346-1.0195312.02663-.0093.053318-.0184168.080078-.0273438.29449-.10654.599379-.19031.912109-.25.02145-.00533.042943-.010535.064453-.015625.343811-.0615994.696941-.0953031 1.056641-.0957031v5 1h6c.006.439333-.07377.826317-.130859 1.224609-.376552 1.751213-1.437766 2.974711-2.869141 3.962891v1.126953c.349091-.168585.683575-.365878 1-.589844v.017579c.0521-.036301.0975-.0796.148438-.117188.06603-.05092.131144-.103008.195312-.15625 1.503971-1.192819 2.26794-2.782021 2.601562-4.607422.004001-.0304.003813-.061297.007813-.091797.07406-.509895.034506-1.0058191.009766-1.4804685v-.0039063c-.023221-.2286542-.056903-.4541612-.101563-.6757812-.088914-.4797994-.276501-.9415103-.412109-1.3339844l-.001953-.0019531c-.963068-2.2316227-2.86381-3.5899992-5.15625-4.1484375-.115426-.0204865-.231348-.0380702-.347657-.0527344-.10971-.0148-.218818-.0313156-.330078-.0410156-.203871-.0193827-.408495-.0298094-.613281-.03125zm-3.5 7c-3.0383279-.0000006-5.5010781.821207-5.5 1.833984v7.332032c-.0010781 1.012777 2.4616721 1.833985 5.5 1.833984 3.038328.000001 5.501078-.821207 5.5-1.833984v-7.332032c.001078-1.012777-2.461672-1.8339846-5.5-1.833984zm0 .916016c2.534102-.000073 4.587581.411148 4.583984.917968-.001796.506058-2.053695.916088-4.583984.916016-2.5302889.000072-4.5821883-.409958-4.5839844-.916016-.0035974-.50682 2.0498822-.918041 4.5839844-.917968zm-4.5839844 1.927734c1.0175169.51303 2.738956.821818 4.5839844.822266 1.843913-.000014 3.565118-.308027 4.583984-.820313v2.654297c-.001796.506058-2.053695.916088-4.583984.916016-2.5302889.000072-4.5821883-.409958-4.5839844-.916016zm0 3.666016c1.0161663.513773 2.7378397.823337 4.5839844.824218 1.845028-.000448 3.566466-.309236 4.583984-.822265v2.654297c.0036.50682-2.049882.918041-4.583984.917968-2.5341022.000073-4.5875818-.411148-4.5839844-.917968z" fill="#232629"/></svg>