<svg height="24" viewBox="0 0 24 24" width="24" xmlns="http://www.w3.org/2000/svg"><path d="m11 3v2.0136719l-.400391.0351562c-1.0406818.1340301-2.0012643.4258835-2.755859.9570313-2.4823337 2.0015382-1.4802257 4.0752096.7148438 5.2714846.6532894.347364 1.357442.601078 2.0410152.820312l.400391.121094v5.605469l-.400391-.03711c-1.1425453-.142969-2.4139562-.443594-3.7792965-.947265l-.4414063 1.052734c1.5079277.556273 2.9270614.89855 4.2207028 1.046875l.400391.03125v2.029297h1v-2.003906l.708984.003906.291016-.025391v2.025391h1v-2.166016l.138672-.023437c3.749399-.952441 4.081517-3.396279 2.855469-5.078125-.38355-.462921-.900105-.817637-1.457032-1.115234-.506089-.270427-1.025798-.471655-1.537109-.650391v-5.6777345c1.102494.1888144 2.183304.508028 3.070312.9492187l.564454-1.0019531c-1.079452-.5369101-2.345765-.9077321-3.634766-1.1074219v-2.1289062h-1v2.0058594l-.291016-.0234375-.708984.0019531v-1.984375zm1 3.1054688.708984.0195312.291016.0273438v5.4843752l-.291016-.087891-.425781-.132812-.283203-.085938zm-1 .0488281v4.8710941l-.400391-.126953c-.509105-.176848-1.0115993-.375768-1.4472652-.607422-1.5401034-.8541098-1.959375-2.3859525-.5859376-3.3789066.495473-.3487549 1.2084129-.58908 2.0332028-.7148438zm1 6.3671871.708984.21875.291016.089844v5.001953l-.291016.03125-.708984-.005859zm2 .658204c.326527.128711.647256.265737.939453.421874.471191.251778.862793.539954 1.101563.828126.741639 1.768725-.530406 2.841742-2.041016 3.240234z" fill="#232629" stroke-width=".70344"/></svg>