<svg height="24" viewBox="0 0 24 24" width="24" xmlns="http://www.w3.org/2000/svg" xmlns:xlink="http://www.w3.org/1999/xlink"><linearGradient id="a" gradientUnits="userSpaceOnUse" x1="6" x2="18" y1="17.99999" y2="5.99999"><stop offset="0" stop-color="#3daee9"/><stop offset=".41666669" stop-color="#48acf5" stop-opacity=".761194"/><stop offset=".66666329" stop-color="#73c0f7" stop-opacity="0"/><stop offset="1" stop-color="#cae7fc" stop-opacity="0"/></linearGradient><g transform="translate(1 -1029.3622)"><path d="m5 1035.3622h12v11.999987h-12z" fill="#b3b3b3"/><g fill="#777"><path d="m13 1043.3622h4v4h-4z"/><path d="m9 1039.3622h4v4h-4z"/><path d="m13 1035.3622h4v4h-4z"/></g><g transform="translate(-1 1029.3622)"><path d="m17 5v1h-11v11h-1v2h2v-1h11v-11h1v-2z" fill="url(#a)"/><path d="m16 4v3.2929688l-2 2-3.181641 3.1816402-3.5253902 3.525391h-3.2929688v4h4v-3.292969l3.525391-3.52539 3.18164-3.181641 2-2h3.292969v-4zm1 1h2v2h-2zm-12 12h2v2h-2z" fill="#232629"/><path d="m17 5v1h1v1h1v-1-1h-1z" fill="#999" fill-opacity=".761194"/></g></g></svg>