<svg viewBox="0 0 16 16" xmlns="http://www.w3.org/2000/svg"><path d="m7.09375 2 2 2h-2.28125-.8125v1h.8125 2.28125l-2 2h1.40625l2.3125-2.28125.1875-.21875-.1875-.21875-2.3125-2.28125zm-3.59375 3c-.27614 0-.5.22386-.5.5s.22386.5.5.5.5-.22386.5-.5-.22386-.5-.5-.5zm6.96875 1.5625-3.90625 3.90625 3.53125 3.53125 3.90625-3.90625zm-7.96875 1.4375c-.2761424 0-.5.2238576-.5.5s.2238576.5.5.5.5-.2238576.5-.5-.2238576-.5-.5-.5zm1 3c-.2761424 0-.5.223858-.5.5s.2238576.5.5.5.5-.223858.5-.5-.2238576-.5-.5-.5zm3 1c-.2761424 0-.5.223858-.5.5s.2238576.5.5.5.5-.223858.5-.5-.2238576-.5-.5-.5z" fill="#232629"/></svg>