<svg viewBox="0 0 16 16" xmlns="http://www.w3.org/2000/svg">/&amp;gt;<path d="m14 4c-5.5228475 0-10 4.4771525-10 10h10z" fill="#b3b3b3"/><path d="m2 2v3h3v-.9570312h9v-1.0429688h-9v-1zm1 1h1v1h-1z" fill="#3daee9"/><path d="m14 3c-2.465286 0-4.7351499.8149996-6.5664062 2.1855469-.1741358.1303265-.3438242.266038-.5097657.40625-.0375399.0315477-.0761719.0617137-.1132812.09375-.1169441.1015066-.2292527.2081615-.3417969.3144531-.0805677.0756732-.1619793.1504758-.2402344.2285156-.0780398.0782551-.1528424.1596667-.2285156.2402344-.1062916.1125442-.2129465.2248528-.3144531.3417969-.0320363.0371093-.0622023.0757413-.09375.1132812-.140212.1659415-.2759235.3356299-.40625.5097657-1.3705473 1.8312563-2.1855469 4.1011202-2.1855469 6.5664062h1c0-.345178.0166412-.685314.0507812-1.021484.5121-5.0425607 4.7715491-8.978516 9.9492188-8.978516z" fill="#232629"/></svg>