<svg viewBox="0 0 16 16" xmlns="http://www.w3.org/2000/svg"><path d="m2 2v5h4.8886719l.1113281-.1113281v-.8886719-3-1zm11.3125 0-11.3144531 11.294922.7148437.705078 11.2851564-11.3027344zm-10.3125 1h3v3h-3zm9.115234 3-1 1h1.884766v2h-2v1h3v-4zm-10.115234 3v2.878906l1-.998047v-.880859h.8828125l1.0019531-1zm5 2.123047-1 1v.876953h-.875l-.9980469 1h2.8730469v-1z" fill="#232629"/><path d="m8 3.28125-.6875.71875 1.2890625 1.2890625.6875-.6875-.6015625-.6015625zm1.1191406 5.71875-.5585937.5605469.5957031.5957031-1.84375 1.84375.6875.683594.6875-.683594 1.15625-1.15625 1.15625 1.15625v-3z" fill="#3daee9"/></svg>