<svg height="16" width="16" xmlns="http://www.w3.org/2000/svg" xmlns:xlink="http://www.w3.org/1999/xlink"><linearGradient id="a" gradientTransform="matrix(.75000025 0 0 .75000054 -.25 -773.02221)" gradientUnits="userSpaceOnUse" x1="3" x2="11" y1="1043.3622" y2="1043.3622"><stop offset="0" stop-color="#b3b3b3"/><stop offset="1" stop-color="#232629"/></linearGradient><g transform="matrix(1.00000001 0 0 1.00000002 0 -.000028)"><path d="m8 2a6.000002 3.0000022 0 0 0 -6 3 6.000002 3.0000022 0 0 0 6 3 6.000002 3.0000022 0 0 0 6-3 6.000002 3.0000022 0 0 0 -6-3z" fill="#232629" opacity=".986928"/><path d="m2 5v6c0 1.656826 2.6862904 3 6 3 3.31371 0 6-1.343174 6-3v-6c0 1.6568262-2.68629 3-6 3-3.3137096 0-6-1.3431738-6-3z" fill="url(#a)" opacity=".986928"/></g></svg>