<svg viewBox="0 0 16 16" xmlns="http://www.w3.org/2000/svg">/&gt;<path d="m3.5 2c-.8284354 0-1.5.6715826-1.5 1.5 0 .8285007.6715646 1.5 1.5 1.5.6558447 0 1.2024122-.4135828 1.40625-1h.09375 6.5c.828427 0 1.5.6715826 1.5 1.5 0 .8285007-.671573 1.5-1.5 1.5h-7c-1.380712 0-2.5 1.1193322-2.5 2.5 0 1.380751 1.119288 2.5 2.5 2.5h6.5.5.5v.25.75l2-1.5-2-1.5v.75.25h-.5-.5-6.5c-.828427 0-1.5-.671499-1.5-1.5 0-.8284174.671573-1.5 1.5-1.5h7c1.380712 0 2.5-1.1192488 2.5-2.5 0-1.3806678-1.119288-2.5-2.5-2.5h-6.5-.09375c-.2038378-.5864172-.7504053-1-1.40625-1zm0 1c.2761424 0 .5.2239164.5.5 0 .2761669-.2238576.5-.5.5-.2761423 0-.5-.2238331-.5-.5 0-.2760836.2238577-.5.5-.5z" fill="#232629"/></svg>