<svg viewBox="0 0 16 16" xmlns="http://www.w3.org/2000/svg"><path d="m2 2 1 1h10v6l-2-2-2 2 5 5v-1-1-1-1-8zm4 2c-.5522848 0-1.0443212.2318212-1.40625.59375l2.8125 2.8125c.3619288-.3619288.59375-.8539652.59375-1.40625 0-1.1045695-.8954305-2-2-2z" fill="#b3b3b3"/><path d="m2 2v11.28125.71875h12l-5-5-1.34375 1.34375-1.34375-1.34375h-.03125l-3.28125 3.28125v-9.28125zm2.59375 2.59375c-.3619287.3619288-.59375.853965-.59375 1.40625 0 1.10457.89543 2 2 2 .552285 0 1.0443213-.2318212 1.40625-.59375z" fill="#232629"/></svg>