<svg viewBox="0 0 16 16" xmlns="http://www.w3.org/2000/svg"><path d="m6 2v12h4v-12zm1 1h2v10h-2z" fill="#3daee9"/><path d="m2 2v9 3h4v-1h-3v-2-1h3v-1h-3v-3h3v-1h-3v-2h3v-1zm8 0v1h3v2h1v-3zm0 3v1h1v-1zm0 4v1h1v-1zm0 4v1h1v-1z" fill="#232629"/><path d="m14 7c0-.5522847-.447715-1-1-1s-1 .4477153-1 1c0 .552285.447715 1 1 1s1-.447715 1-1zm0 3c0-.552285-.447715-1-1-1s-1 .447715-1 1 .447715 1 1 1 1-.447715 1-1zm0 3c0-.552285-.447715-1-1-1s-1 .447715-1 1 .447715 1 1 1 1-.447715 1-1z" fill="#f47750"/></svg>