<svg viewBox="0 0 24 24" xmlns="http://www.w3.org/2000/svg" xmlns:xlink="http://www.w3.org/1999/xlink"><radialGradient id="a" cx="9" cy="3.783174" gradientTransform="matrix(-2.183201 -.15594313 .2735958 -3.8303361 -.952272 15.567571)" gradientUnits="userSpaceOnUse" r="3.655032"><stop offset="0" stop-color="#737373"/><stop offset=".262" stop-color="#636363"/><stop offset=".705" stop-color="#4b4b4b"/><stop offset="1" stop-color="#3f3f3f"/></radialGradient><radialGradient id="b" cx="12.010505" cy="8.726317" fx="12.010505" fy="8.726317" gradientTransform="matrix(-.89835279 .02785611 -.06534115 -2.1072362 23.370363 24.603666)" gradientUnits="userSpaceOnUse" r="2.999495" xlink:href="#a"/><radialGradient id="c" cx="12.548345" cy="4.591843" fx="12.548345" fy="4.591843" gradientTransform="matrix(-.89877124 -.00489482 .00658011 -1.2082204 22.98811 20.166021)" gradientUnits="userSpaceOnUse" r="2.999495" xlink:href="#a"/><linearGradient id="d" gradientTransform="matrix(.0435 0 0 .00824 -3.72 16.98)" gradientUnits="userSpaceOnUse" x1="302.857" x2="302.857" y1="366.648" y2="609.505"><stop offset="0" stop-opacity="0"/><stop offset=".5"/><stop offset="1" stop-opacity="0"/></linearGradient><radialGradient id="e" cx="605.714" cy="486.648" gradientTransform="matrix(-.01205 0 0 .00824 8.76 16.98)" gradientUnits="userSpaceOnUse" r="117.143" xlink:href="#f"/><linearGradient id="f"><stop offset="0"/><stop offset="1" stop-opacity="0"/></linearGradient><radialGradient id="g" cx="605.714" cy="486.648" gradientTransform="matrix(.01205 0 0 .00824 15.24 16.98)" gradientUnits="userSpaceOnUse" r="117.143" xlink:href="#f"/><linearGradient id="h" gradientTransform="matrix(.48572 0 0 .4563 .343 .35)" gradientUnits="userSpaceOnUse" x1="5.471" x2="40.471" y1="25.534" y2="25.534"><stop offset="0" stop-color="#f4f4f4"/><stop offset="1" stop-color="#dbdbdb"/></linearGradient><linearGradient id="i" gradientTransform="matrix(.4054 0 0 .5135 2.27 -.324)" gradientUnits="userSpaceOnUse" x1="6.735" x2="41.268" y1="24" y2="24"><stop offset="0" stop-color="#fff"/><stop offset=".027" stop-color="#fff" stop-opacity=".235"/><stop offset="1" stop-color="#fff" stop-opacity=".157"/><stop offset="1" stop-color="#fff" stop-opacity=".392"/></linearGradient><path d="m1.5 20h21v2h-21z" fill="url(#d)" opacity=".15"/><path d="m1.5 20v2c-.62.004-1.5-.448-1.5-1s.692-1 1.5-1z" fill="url(#e)" opacity=".15"/><path d="m22.5 20v2c.62.004 1.5-.448 1.5-1s-.692-1-1.5-1z" fill="url(#g)" opacity=".15"/><path d="m3.5 1.5h17v21h-17z" fill="url(#h)" transform="matrix(0 1 -1 0 24 0)"/><path d="m19.5 21.5h-15v-19h15z" fill="none" stroke="url(#i)" stroke-linecap="round" transform="matrix(0 1 -1 0 24 0)"/><g stroke="#000" stroke-linejoin="round"><path d="m22.5 3.5v17h-21v-17z" fill="none" opacity=".3"/><g stroke-opacity=".6"><path d="m11.740234 14.556641c-.333333 0-.586432.087005-.759765.263671-.173334.177334-.259766.440443-.259766.78711 0 .334667.088292.593963.265625.779297.177333.181333.428573.271484.753906.271484.315334 0 .562235-.09201.740235-.277344.177333-.19.265625-.448104.265625-.773437 0-.338-.088292-.597297-.265625-.779297-.173334-.181333-.420235-.271484-.740235-.271484z" fill="url(#c)"/><path d="m10.905 13.492v-.458c0-.396.079-.740333.237-1.033.158667-.292.448667-.603.87-.933.404667-.308667.670667-.56.798-.754.131333-.193333.197-.41.197-.65 0-.2666667-.09267-.4706667-.278-.612-.186667-.14-.445667-.21-.777-.21-.58 0-1.24.2023333-1.98.607l-.63-1.354c.86-.5153333 1.772333-.773 2.737-.773.795333 0 1.426333.204 1.893.612.471333.408.707.9523333.707 1.633 0 .453333-.09667.845-.29 1.175-.193333.329333-.56.700333-1.1 1.113-.370667.293333-.606.516-.706.668-.09667.153333-.145.353333-.145.6v.372z" fill="url(#b)" stroke-width=".662"/></g></g></svg>