<svg viewBox="0 0 24 24" xmlns="http://www.w3.org/2000/svg" xmlns:xlink="http://www.w3.org/1999/xlink"><linearGradient id="a" gradientTransform="matrix(.0352071 0 0 .0082353 -.724852 18.980547)" gradientUnits="userSpaceOnUse" x1="302.85715" x2="302.85715" y1="366.64789" y2="609.50507"><stop offset="0" stop-opacity="0"/><stop offset=".5"/><stop offset="1" stop-opacity="0"/></linearGradient><radialGradient id="b" cx="605.71429" cy="486.64789" gradientTransform="matrix(-.01204859 0 0 .0082353 10.761206 18.980564)" gradientUnits="userSpaceOnUse" r="117.14286"><stop offset="0"/><stop offset="1" stop-opacity="0"/></radialGradient><linearGradient id="c" gradientTransform="matrix(.48571543 0 0 .45629666 .342829 .348862)" gradientUnits="userSpaceOnUse" x1="25.132275" x2="25.132275" y1=".985206" y2="47.013336"><stop offset="0" stop-color="#f4f4f4"/><stop offset="1" stop-color="#dbdbdb"/></linearGradient><linearGradient id="d" gradientTransform="matrix(.40540511 0 0 .51351351 2.269687 -.32432)" gradientUnits="userSpaceOnUse" x1="23.99999" x2="23.99999" y1="6.473675" y2="41.526306"><stop offset="0" stop-color="#fff"/><stop offset="0" stop-color="#fff" stop-opacity=".235294"/><stop offset="1" stop-color="#fff" stop-opacity=".156863"/><stop offset="1" stop-color="#fff" stop-opacity=".392157"/></linearGradient><path d="m3.500001 22h16.999998v2h-16.999998z" fill="url(#a)" opacity=".15"/><path d="m3.4999999 22.000085v1.999891c-.6204724.0038-1.4999999-.448075-1.4999999-1.000075 0-.551999.6924-.999816 1.4999999-.999816z" fill="url(#b)" opacity=".15"/><path d="m3.4999601 1.499957c3.8955809 0 17.0000589.00136 17.0000589.00136l.000021 20.998716s-11.3333862 0-17.0000799 0c0-7.000018 0-14.0000349 0-21.0000537z" fill="url(#c)"/><path d="m19.5 21.5h-15.0000004v-18.9999999h15.0000004z" fill="none" stroke="url(#d)" stroke-linecap="round"/><path d="m3.4999601 1.499957c3.8955809 0 17.0000589.00136 17.0000589.00136l.000021 20.998716s-11.3333862 0-17.0000799 0c0-7.000018 0-14.0000349 0-21.0000537z" fill="none" opacity=".3" stroke="#000" stroke-linejoin="round" stroke-width=".999922"/><g fill="#8c8c8c" stroke="#565656" stroke-linejoin="round" stroke-width=".718275" transform="scale(1.0369998 .9643203)"><path d="m4.2036049 7.6314257h2.955089q2.0198519 0 2.9291101.5780284.915753.5715337.915753 1.8250109 0 .850806-.402672 1.396361-.396176.545555-1.0586359.655965v.06495q.9027639.201335 1.2989399.753385.402672.552049.402672 1.467802 0 1.29894-.941732 2.026347-.9352368.727406-2.5459227.727406h-3.5526014v-9.4952523zm2.0133573 3.7604323h1.1690462q.8183323 0 1.1820355-.253294.370198-.253293.370198-.837816 0-.5455551-.4026715-.7793643-.3961767-.2403039-1.2599719-.2403039h-1.0586363zm0 1.597696v2.474481h1.3119296q.8313217 0 1.2274985-.31824.3961767-.318241.3961767-.974205 0-1.182036-1.6886222-1.182036z" fill="#8c8c8c" stroke="#565656" stroke-linejoin="round" stroke-width=".718275"/><path d="m15.933035 11.060628q1.376876 0 2.188714.772869.818332.77287.818332 2.117273 0 1.591201-.9807 2.448502-.980699.8573-2.80571.8573-1.584707 0-2.558912-.513081v-1.734085q.513081.272777 1.195024.448134.681944.168863 1.292446.168863 1.838 0 1.838-1.506771 0-1.435329-1.902947-1.435329-.344219 0-.75988.07144-.415661.06495-.675449.142883l-.798848-.42865.357208-4.8385523h5.150298v1.7016117h-3.390234l-.175357 1.8639796.227315-.04546q.396177-.09093.9807-.09093z" fill="#8c8c8c" stroke="#565656" stroke-linejoin="round" stroke-width=".718275"/></g></svg>