<svg viewBox="0 0 24 24" xmlns="http://www.w3.org/2000/svg" xmlns:xlink="http://www.w3.org/1999/xlink"><radialGradient id="a" cx="17.965765" cy="4.464714" fx="17.965765" fy="4.464714" gradientTransform="matrix(-.73524631 .01521489 -.02797912 -1.3520671 22.364308 12.164997)" gradientUnits="userSpaceOnUse" r="8.192993" xlink:href="#b"/><radialGradient id="b" cx="9" cy="3.783174" gradientTransform="matrix(-2.183201 -.15594313 .2735958 -3.8303361 -.952272 15.567571)" gradientUnits="userSpaceOnUse" r="3.655032"><stop offset="0" stop-color="#737373"/><stop offset=".262" stop-color="#636363"/><stop offset=".705" stop-color="#4b4b4b"/><stop offset="1" stop-color="#3f3f3f"/></radialGradient><radialGradient id="c" cx="16.031645" cy="8.322377" fx="16.031645" fy="8.322377" gradientTransform="matrix(-1.1398606 .01390265 -.03813982 -3.1270345 34.62504 32.320339)" gradientUnits="userSpaceOnUse" r="3.330537" xlink:href="#b"/><linearGradient id="d" gradientTransform="matrix(.0352071 0 0 .0082353 -.724852 18.980547)" gradientUnits="userSpaceOnUse" x1="302.85715" x2="302.85715" y1="366.64789" y2="609.50507"><stop offset="0" stop-opacity="0"/><stop offset=".5"/><stop offset="1" stop-opacity="0"/></linearGradient><radialGradient id="e" cx="605.71429" cy="486.64789" gradientTransform="matrix(-.01204859 0 0 .0082353 10.761206 18.980564)" gradientUnits="userSpaceOnUse" r="117.14286"><stop offset="0"/><stop offset="1" stop-opacity="0"/></radialGradient><linearGradient id="f" gradientTransform="matrix(.48571543 0 0 .45629666 .342829 .348862)" gradientUnits="userSpaceOnUse" x1="25.132275" x2="25.132275" y1=".985206" y2="47.013336"><stop offset="0" stop-color="#f4f4f4"/><stop offset="1" stop-color="#dbdbdb"/></linearGradient><linearGradient id="g" gradientTransform="matrix(.40540511 0 0 .51351351 2.269687 -.32432)" gradientUnits="userSpaceOnUse" x1="23.99999" x2="23.99999" y1="6.473675" y2="41.526306"><stop offset="0" stop-color="#fff"/><stop offset="0" stop-color="#fff" stop-opacity=".235294"/><stop offset="1" stop-color="#fff" stop-opacity=".156863"/><stop offset="1" stop-color="#fff" stop-opacity=".392157"/></linearGradient><path d="m3.500001 22h16.999998v2h-16.999998z" fill="url(#d)" opacity=".15"/><path d="m3.4999999 22.000085v1.999891c-.6204724.0038-1.4999999-.448075-1.4999999-1.000075 0-.551999.6924-.999816 1.4999999-.999816z" fill="url(#e)" opacity=".15"/><path d="m3.4999601 1.499957c3.8955809 0 17.0000589.00136 17.0000589.00136l.000021 20.998716s-11.3333862 0-17.0000799 0c0-7.000018 0-14.0000349 0-21.0000537z" fill="url(#f)"/><path d="m19.5 21.5h-15.0000004v-18.9999999h15.0000004z" fill="none" stroke="url(#g)" stroke-linecap="round"/><g stroke="#000" stroke-linejoin="round"><path d="m3.4999601 1.499957c3.8955809 0 17.0000589.00136 17.0000589.00136l.000021 20.998716s-11.3333862 0-17.0000799 0c0-7.000018 0-14.0000349 0-21.0000537z" fill="none" opacity=".3" stroke-width=".999922"/><g stroke-opacity=".6" stroke-width=".680986"><path d="m10.948738 16.53337-.648886-2.157508h-3.2623175l-.6498798 2.157508h-2.0450346l3.159966-9.1019838h2.3173084l3.1718905 9.1019838zm-1.1030073-3.7696c-.5988699-1.956247-.9370591-3.0618356-1.0145677-3.3167649-.0728713-.2569419-.1258687-.4595437-.158992-.6078052-.1344807.5286429-.5200363 1.8368321-1.1566668 3.9245701z" fill="url(#a)"/><path d="m16.748123 10.739961c.865843 0 1.553816.245872 2.063915.737618.514073.492415.771111 1.166636.771111 2.022663 0 1.011666-.308047 1.790542-.924141 2.336628-.616094.545415-1.497837.818122-2.64523.818122-.995024 0-1.798597-.163356-2.410717-.490068v-1.655363c.32196.174425.697248.316984 1.125863.427677.428616.107339.834708.161008 1.218276.161008 1.155343 0 1.733013-.47967 1.733013-1.439009 0-.912379-.597876-1.368568-1.793628-1.368568-.216627 0-.455115.02247-.715464.06742-.261674.04159-.474326.08722-.637956.136857l-.753225-.408556.337859-4.6189167h4.854224v1.6241682h-3.197726l-.163961 1.7811505.213646-.04528c.249087-.05769.557134-.08654.924141-.08654z" fill="url(#c)"/></g></g></svg>