<svg viewBox="0 0 24 24" xmlns="http://www.w3.org/2000/svg" xmlns:xlink="http://www.w3.org/1999/xlink"><radialGradient id="a" cx="9" cy="3.783174" gradientTransform="matrix(-2.183201 -.15594313 .2735958 -3.8303361 -.952272 15.567571)" gradientUnits="userSpaceOnUse" r="3.655032"><stop offset="0" stop-color="#737373"/><stop offset=".262" stop-color="#636363"/><stop offset=".705" stop-color="#4b4b4b"/><stop offset="1" stop-color="#3f3f3f"/></radialGradient><radialGradient id="b" cx="17.965765" cy="4.464714" fx="17.965765" fy="4.464714" gradientTransform="matrix(-.73990773 .01511964 -.02815651 -1.3436024 22.503944 12.090976)" gradientUnits="userSpaceOnUse" r="8.192993" xlink:href="#a"/><radialGradient id="c" cx="16.055662" cy="8.255987" fx="16.055662" fy="8.255987" gradientTransform="matrix(-1.0879642 -.00367625 .01009985 -2.9889938 33.440263 31.292913)" gradientUnits="userSpaceOnUse" r="3.437856" xlink:href="#a"/><linearGradient id="d" gradientTransform="matrix(.0435 0 0 .00824 -3.72 16.98)" gradientUnits="userSpaceOnUse" x1="302.857" x2="302.857" y1="366.648" y2="609.505"><stop offset="0" stop-opacity="0"/><stop offset=".5"/><stop offset="1" stop-opacity="0"/></linearGradient><radialGradient id="e" cx="605.714" cy="486.648" gradientTransform="matrix(-.01205 0 0 .00824 8.76 16.98)" gradientUnits="userSpaceOnUse" r="117.143" xlink:href="#f"/><linearGradient id="f"><stop offset="0"/><stop offset="1" stop-opacity="0"/></linearGradient><radialGradient id="g" cx="605.714" cy="486.648" gradientTransform="matrix(.01205 0 0 .00824 15.24 16.98)" gradientUnits="userSpaceOnUse" r="117.143" xlink:href="#f"/><linearGradient id="h" gradientTransform="matrix(.48572 0 0 .4563 .343 .35)" gradientUnits="userSpaceOnUse" x1="5.471" x2="40.471" y1="25.534" y2="25.534"><stop offset="0" stop-color="#f4f4f4"/><stop offset="1" stop-color="#dbdbdb"/></linearGradient><linearGradient id="i" gradientTransform="matrix(.4054 0 0 .5135 2.27 -.324)" gradientUnits="userSpaceOnUse" x1="6.735" x2="41.268" y1="24" y2="24"><stop offset="0" stop-color="#fff"/><stop offset=".027" stop-color="#fff" stop-opacity=".235"/><stop offset="1" stop-color="#fff" stop-opacity=".157"/><stop offset="1" stop-color="#fff" stop-opacity=".392"/></linearGradient><path d="m1.5 20h21v2h-21z" fill="url(#d)" opacity=".15"/><path d="m1.5 20v2c-.62.004-1.5-.448-1.5-1s.692-1 1.5-1z" fill="url(#e)" opacity=".15"/><path d="m22.5 20v2c.62.004 1.5-.448 1.5-1s-.692-1-1.5-1z" fill="url(#g)" opacity=".15"/><path d="m3.5 1.5h17v21h-17z" fill="url(#h)" transform="matrix(0 1 -1 0 24 0)"/><path d="m19.5 21.5h-15v-19h15z" fill="none" stroke="url(#i)" stroke-linecap="round" transform="matrix(0 1 -1 0 24 0)"/><g stroke="#000" stroke-linejoin="round"><path d="m22.5 3.5v17h-21v-17z" fill="none" opacity=".3"/><g stroke-opacity=".6"><path d="m11.016 16.432-.653-2.144h-3.283l-.654 2.144h-2.058l3.18-9.045h2.332l3.192 9.045zm-1.11-3.746c-.6026667-1.944-.943-3.0426667-1.021-3.296-.0733333-.2553333-.1266667-.4566667-.16-.604-.1353333.5253333-.5233333 1.825333-1.164 3.9z" fill="url(#b)" stroke-width=".681" transform="scale(.9937 1.0063)"/><path d="m19.397175 9.4973197c0 .5655403-.168929 1.0465523-.506787 1.4430343-.339183.397153-.815165.670196-1.427947.819128v.03723c.723414.09057 1.270942.313631 1.642586.66919.370981.351533.556472.826843.556472 1.425927 0 .872127-.312022 1.552049-.936065 2.03977-.624044.483024-1.515724.724536-2.675041.724536-.971176 0-1.832383-.163021-2.58362-.489062v-1.630203c.347132.17778.728713.322016 1.144743.432709.417354.112034.829739.168052 1.237156.168052.624707 0 1.085783-.107339 1.383231-.322016.29811-.214677.447165-.560174.447165-1.036489 0-.424658-.171248-.725877-.513743-.903657-.343158-.17778-.890356-.26667-1.641593-.26667h-.679691v-1.469198h.692609c.694266 0 1.201053-.09124 1.520361-.273713.321296-.185831.481945-.501809.481945-.9479349 0-.6862966-.423979-1.0294449-1.271936-1.0294449-.294798 0-.595226.049644-.901286.1489324-.302085.099289-.638618.2703593-1.009599.513213l-.874456-1.318253c.814834-.5957296 1.787666-.8935944 2.918497-.8935944.926128 0 1.656498.1901907 2.191108.5705721.538586.3797105.807878.9086889.807878 1.5869351z" fill="url(#c)" stroke-width=".680986"/></g></g></svg>