<svg height="11" viewBox="0 0 14 11" width="14" xmlns="http://www.w3.org/2000/svg"><path d="m3.96875 0s-2.96875.000009-2.96875 2.96875v5.03125s.000001.5.3125.71875l1.6875 1.6875v-7.40625c0-.999997 1-1 1-1v2c0 .553998.446002 1 1 1h3c.553997 0 1-.446002 1-1v-2s1 .000003 1 1v5 2.826172c.872701-.272286 2-.97425 2-2.794922v-5.0625s-.000009-2.96875-2.96875-2.96875zm1.03125 2h3v2h-3zm0 5c-.554686 0-1 .445314-1 1v2c0 .554685.445314 1 1 1h3c.554686 0 1-.445315 1-1v-2c0-.554686-.445314-1-1-1zm0 1h1v2h-1z" fill="#efefef"/></svg>