<svg height="16" viewBox="0 0 4.4979166 4.2333333" width="17" xmlns="http://www.w3.org/2000/svg"><g fill="#efefef"><path d="m.26458333.79375v.5291667h1.05833337c.1465786 0 .2645833.1180044.2645833.2645833v1.3229167c0 .1465787-.1180047.2645833-.2645833.2645833h-1.05833337v.5291667h1.32291667c.2931574 0 .5291667-.2360093.5291667-.5291667v-1.8520833c0-.2931573-.2360093-.5291667-.5291667-.5291667z" stroke-width=".264583"/><path d="m2.1166667 1.8520833v1.3229167c0 .1569383-.067867.2975499-.1756999.3942911-.0000365.0001196.0000347.0004001 0 .0005168l1.2262817-.9239746c.3375782-.2723066.3644709-.79375.071314-.79375z" stroke-width=".264583"/><path d="m3.4395833 1.5875v.5291667h.2645834v1.0583333h-.2645834v.5291667h.2645834.5291666.2645834v-.5291667h-.2645834v-1.0583333h.2645834v-.5291667z"/></g></svg>