<svg height="22" viewBox="0 0 22 22" width="22" xmlns="http://www.w3.org/2000/svg"><g fill="#efefef" transform="matrix(.70710678 .70710678 -.70710678 .70710678 11 -4.556349)"><path d="m10.99609 5.0000005c-2.8350596.001-5.2928096 2.00179-5.8710896 4.77734-.52818 2.5334995.68938 5.0354795 2.87305 6.3261795l.002.89843a1.0001 1.0001 0 0 0 1 .99805h3.9999996a1.0001 1.0001 0 0 0 1-.99805l.002-.90039c2.18295-1.292149 3.39908-3.796839 2.86914-6.3300795-.58057-2.77544-3.03958-4.7728399-5.875-4.77148zm0 2c1.90014-.00091 3.52887 1.32153 3.91797 3.1816405.38903 1.85966-.57198 3.72312-2.3125 4.48438a1.0001 1.0001 0 0 0 -.59961.914059v.41992h-2.0038996v-.41797a1.0001 1.0001 0 0 0 -.59961-.914059c-1.74108-.76005-2.70417-2.62443-2.31641-4.484381.38757-1.8601695 2.01416-3.1826795 3.9140596-3.1835895zm-1.9960896 11.9999995v1c0 .554.446 1 .9999996 1h2c.554 0 1-.446 1-1v-1z"/><path d="m9.6454634 10.146451a.5.5 0 0 0 0 .707039l.9999996 1a.50005.50005 0 0 0 .70704 0l1-.999999a.5.5 0 0 0 0-.70704.5.5 0 0 0 -.70704 0l-.64648.64649-.64648-.64649a.5.5 0 0 0 -.7070396 0z" fill-opacity=".35"/><path d="m3.9289322 3.9289322c-.3917366.3917369-.3917362 1.0224769 0 1.4142136l.7071068.7071067c.391736.3917355 1.0224771.3917357 1.4142135 0 .3917358-.3917363.3917358-1.0224776 0-1.4142135l-.7071067-.7071068c-.3917359-.3917359-1.0224774-.3917359-1.4142136 0zm-2.6364587 6.3625798c-.1807499.18075-.2914053.431489-.2914053.708488 0 .553998.4458943.999893.9998932.999893h.9998931c.5539989 0 .9998932-.445895.9998932-.999893s-.4458943-.999893-.9998932-.999893h-.9998931c-.2769995 0-.527738.110655-.7084879.291405zm8.9990385-8.9990385c-.18075.1807498-.291405.4314881-.291405.7084879v.9998931c0 .5539995.445894.9998932.999893.9998932s.999893-.4458937.999893-.9998932v-.9998931c0-.5539995-.445894-.9998932-.999893-.9998932-.277 0-.527738.1106555-.708488.2914053zm-6.3625798 15.3643805c-.3917363.391737-.3917363 1.022477 0 1.414214.391736.391735 1.0224771.391736 1.4142136 0l.7071067-.707107c.3917364-.391737.3917361-1.022477 0-1.414214-.3917363-.391735-1.0224772-.391735-1.4142135 0zm12.0208148-12.020815c-.391735.391736-.391735 1.0224772 0 1.4142135.391737.3917361 1.022478.3917361 1.414214 0l.707107-.7071067c.391735-.3917362.391735-1.0224776 0-1.4142136-.391737-.3917363-1.022477-.3917361-1.414214 0zm2.342292 5.656854c-.18075.18075-.292787.430108-.292787.707107 0 .553998.445895.999893.999893.999893h.999894c.553998 0 .999893-.445895.999893-.999893s-.445895-.999893-.999893-.999893h-.999894c-.276999 0-.526356.112036-.707106.292786zm-2.342292 5.656854c-.391735.391737-.391735 1.022477 0 1.414214l.707107.707107c.391737.391735 1.022477.391736 1.414214 0 .391735-.391737.391736-1.022477 0-1.414214l-.707107-.707107c-.391737-.391736-1.022477-.391735-1.414214 0z"/></g></svg>