<svg height="32" width="32" xmlns="http://www.w3.org/2000/svg" xmlns:xlink="http://www.w3.org/1999/xlink"><linearGradient id="a" gradientTransform="matrix(-.61157583 0 0 -.6008607 33.04917 12.619041)" gradientUnits="userSpaceOnUse" x1="12" x2="12" y1="4" y2="19.998161"><stop offset="0" stop-color="#9bdb4d"/><stop offset="1" stop-color="#68b723"/></linearGradient><linearGradient id="b" gradientTransform="matrix(.52743574 0 0 .33333554 26.365868 -2.553393)" gradientUnits="userSpaceOnUse" x1="5.03216" x2="5.03216" y1="28.671694" y2="29.671688"><stop offset="0" stop-color="#fff"/><stop offset=".00000019" stop-color="#fff" stop-opacity=".235294"/><stop offset="1" stop-color="#fff" stop-opacity=".392157"/></linearGradient><linearGradient id="c" gradientTransform="matrix(.61441293 0 0 .61115825 26.409046 -10.186917)" gradientUnits="userSpaceOnUse" x1="-2.521394" x2="-2.521394" y1="22.402153" y2="35.268829"><stop offset="0" stop-color="#fff"/><stop offset=".51999998" stop-color="#fff" stop-opacity=".235294"/><stop offset=".51999998" stop-color="#fff" stop-opacity=".156863"/><stop offset="1" stop-color="#fff" stop-opacity=".392157"/></linearGradient><linearGradient id="d" gradientTransform="matrix(-1 0 -0 -1 32.020008 24.003904)" gradientUnits="userSpaceOnUse" x1="4.5" x2="4.5" y1="17.007809" y2="5.003904"><stop offset="0" stop-color="#fff"/><stop offset=".00000006" stop-color="#fff" stop-opacity=".235294"/><stop offset=".99989998" stop-color="#fff" stop-opacity=".156863"/><stop offset="1" stop-color="#fff" stop-opacity=".392157"/></linearGradient><linearGradient id="e" gradientTransform="translate(-12 6)" gradientUnits="userSpaceOnUse" x1="4" x2="4" y1="3.5" y2="19.240234"><stop offset="0" stop-color="#ffa154"/><stop offset="1" stop-color="#f37329"/></linearGradient><linearGradient id="f"><stop offset="0" stop-color="#555"/><stop offset="1" stop-color="#666"/></linearGradient><linearGradient id="g" gradientTransform="translate(8)" gradientUnits="userSpaceOnUse" x1="13" x2="13" xlink:href="#e" y1="60" y2="38"/><linearGradient id="h" gradientUnits="userSpaceOnUse" x1="13" x2="13" xlink:href="#e" y1="54" y2="32"/><linearGradient id="i" gradientUnits="userSpaceOnUse" x1="21" x2="21" xlink:href="#f" y1="48" y2="26"/><linearGradient id="j" gradientUnits="userSpaceOnUse" x1="13" x2="13" xlink:href="#f" y1="42" y2="20"/><g transform="translate(-10 -23)"><path d="m10.5 40.5v3h21v-3z" fill="url(#h)"/><path d="m10.5 40.5v3h21v-3z" fill="none" opacity=".61" stroke="#a62100" stroke-linejoin="round"/><path d="m11 41v2h1v-1h19v-1z" fill="#fff" opacity=".2"/><path d="m18.5 34.5v3h9v-3z" fill="url(#i)"/><path d="m18.5 34.5v3h9v-3z" fill="none" opacity=".61" stroke="#000" stroke-linejoin="round"/><path d="m19 35v2h1v-1h7v-1z" fill="#fff" opacity=".2"/><g transform="translate(0 -18)"><path d="m10.5 46.5v3h21v-3z" fill="url(#g)"/><path d="m10.5 46.5v3h21v-3z" fill="none" opacity=".61" stroke="#a62100" stroke-linejoin="round"/><path d="m11 47v2h1v-1h19v-1z" fill="#fff" opacity=".2"/></g><g transform="translate(4 18)"><path d="m14.5 28.5v3h9v-3z" fill="url(#j)"/><path d="m14.5 28.5v3h9v-3z" fill="none" opacity=".61" stroke="#000" stroke-linejoin="round"/><path d="m15 29v2h1v-1h7v-1z" fill="#fff" opacity=".2"/></g></g><path d="m31.499198 20.5.01838-14.992192-5.675781-.0078c-.178305-.000271-.324335-.136003-.324219-.298841v-2.396484c0-.174471-.137743-.304687-.322266-.304687-.09931 0-.182748.03934-.242187.101562l-4.347656 4.195312c-.05558.058157-.08789.128145-.08789.208985 0 .08142.0323.156267.08789.210937l4.347656 4.179688c.06363.02724.05761.103515.242187.103515.184523 0 .322266-.126312.322266-.300781v-2.396484c-.000109-.153233.129288-.283813.292969-.298828 1.447063.0023 1.998004-.004402 2.709461-.003902v9h-6.020008l.000367 3z" fill="url(#a)" stroke="#206b00" stroke-linecap="round" stroke-linejoin="round" stroke-opacity=".5"/><path d="m25.520008 7.5039039 3.000001-.00781v-1.000004l-3 .00781" fill="none" opacity=".6" stroke="url(#b)"/><path d="m25.520008 7.640968c-.505918.000163-.999836.545123-1 1.050697v.980702l-2.673407-2.553808 2.673407-2.60619v.975262c.000164.505574.494082 1.106671 1 1.106834" fill="none" opacity=".5" stroke="url(#c)" stroke-width=".999996"/><path d="m24.520008 15.507812h6" stroke-linecap="round" stroke-linejoin="round"/><path d="m30.520008 6.007812v9.5" stroke-linecap="round" stroke-linejoin="round"/><path d="m30.520008 6.503904v12.996096h-7v-1h6v-12.003904z" fill="none" stroke="url(#d)" stroke-linecap="square" stroke-opacity=".5"/></svg>