<svg viewBox="0 0 16 16" xmlns="http://www.w3.org/2000/svg">/&amp;amp;amp;amp;gt;<g fill="#48484a"><rect height="1" ry=".5" width="14" x="1" y="15"/><path d="m5.0526698 8.9318545v4.9621425h-2.0096423v-13.89399865h5.1243664c1.5204514 0 2.7100931.38806498 3.5689251 1.16419495.865194.77613 1.35492 2.0230272 1.35492 3.3017331 0 1.3486849-.480183 2.646476-1.326292 3.3780739-.839747.7252362-2.0454979 1.1128882-3.6166383 1.0878543zm0-1.9753142 3.1147241.0000001c.979705 0 1.730388-.229022 2.2520491-.6870659.521661-.4644057.839621-.9129072.839621-1.784463 0-.8270237-.31796-1.2309927-.839621-1.7272069-.5216611-.4962143-1.2373546-.753864-2.1470807-.7729492l-3.2196925-.0000001z" fill="#48484a" transform="matrix(.995202 0 0 1.0076293 -.028427 .000002)"/></g></svg>