<svg height="54" viewBox="0 0 17.991666 14.2875" width="68" xmlns="http://www.w3.org/2000/svg" xmlns:xlink="http://www.w3.org/1999/xlink"><filter id="a" color-interpolation-filters="sRGB" height="1.027913" width="1.021049" x="-.010525" y="-.013957"><feGaussianBlur stdDeviation=".070776043"/></filter><filter id="b" color-interpolation-filters="sRGB" height="1.055826" width="1.042098" x="-.021049" y="-.027913"><feGaussianBlur stdDeviation=".14155209"/></filter><linearGradient id="c" gradientUnits="userSpaceOnUse" x1="11.1125" x2="11.1125" y1="295.941646" y2="287.474976"><stop offset="0" stop-color="#e8e8e8"/><stop offset="1" stop-color="#fafafa"/></linearGradient><g transform="translate(0 -282.71248)"><path d="m0 282.71249h17.991667v14.2875h-17.991667z" fill="#8f8f8f"/><path d="m3.8679566 283.77081h9.9911704v12.17084h-9.9911704z" fill="#050505" filter="url(#b)" opacity=".41" transform="matrix(1.0327868 0 0 1.0386589 -.290608 -11.17619)"/><path d="m3.96875 283.77081h9.789583v12.17084h-9.789583z" filter="url(#b)" opacity=".49"/><path d="m3.96875 283.77081h9.789583v12.17084h-9.789583z" filter="url(#a)" opacity=".77"/><path d="m3.96875 283.77081h9.789583v12.17084h-9.789583z" fill="#fff"/><path d="m4.2333333 284.0354h9.2604167v11.64166h-9.2604167z" fill="url(#c)"/><path d="m5.291667 284.82913h7.408333v4.233348h-7.408333z" fill="#fff"/><path d="m6.085417 285.35831h5.820833v.529168h-5.820833z" fill="#f7890e" opacity=".97"/><path d="m5.820833 291.44373h6.35v3.193899h-6.35z" fill="#fff"/><g fill="#06f"><path d="m6.35 291.70831h.529167v.529167h-.529167z"/><path d="m6.35 292.76663h.529167v.529167h-.529167z"/><path d="m6.35 293.82498h.529167v.529167h-.529167z"/></g><g fill="#8f8f8f"><path d="m5.027083 289.06247h.529167v.264583h-.529167z"/><path d="m5.820834 289.06247h.529167v.264583h-.529167z"/><path d="m6.614584 289.06247h.529167v.264583h-.529167z"/><path d="m7.408333 289.06247h.529167v.264583h-.529167z"/><path d="m8.202084 289.06247h.529167v.264583h-.529167z"/><path d="m8.995833 289.06244h.529167v.264583h-.529167z"/><path d="m9.789583 289.06244h.529167v.264583h-.529167z"/><path d="m10.583333 289.06244h.529167v.264583h-.529167z"/><path d="m11.377083 289.06244h.529167v.264583h-.529167z"/><path d="m12.170833 289.06244h.793751v.264583h-.793751z"/><path d="m5.027083 284.56454h.529167v.264583h-.529167z"/><path d="m5.820833 284.56454h.529167v.264583h-.529167z"/><path d="m6.614583 284.56454h.529167v.264583h-.529167z"/><path d="m7.408333 284.56454h.529167v.264583h-.529167z"/><path d="m8.202084 284.56454h.529167v.264583h-.529167z"/><path d="m8.995833 284.56451h.529167v.264583h-.529167z"/><path d="m9.789583 284.56451h.529167v.264583h-.529167z"/><path d="m10.583333 284.56451h.529167v.264583h-.529167z"/><path d="m11.377083 284.56451h.529167v.264583h-.529167z"/><path d="m12.170833 284.56451h.793751v.264583h-.793751z"/><path d="m5.027083 285.09369h.264583v.529169h-.264583z"/><path d="m5.027083 285.88745h.264583v.529172h-.264583z"/><path d="m5.027083 286.68124h.264583v.529169h-.264583z"/><path d="m5.027083 287.47501h.264583v.529172h-.264583z"/><path d="m5.027083 288.26871h.264583v.529172h-.264583z"/><path d="m12.7 285.09372h.264583v.529169h-.264583z"/><path d="m12.7 285.88748h.264583v.529172h-.264583z"/><path d="m12.700001 286.68127h.264583v.529169h-.264583z"/><path d="m12.700001 287.47504h.264583v.529172h-.264583z"/><path d="m12.700001 288.26874h.264583v.529172h-.264583z"/><path d="m5.55625 294.61871h.529167v.264583h-.529167z"/><path d="m6.35 294.61871h.529167v.264583h-.529167z"/><path d="m7.14375 294.61871h.529167v.264583h-.529167z"/><path d="m7.9375 294.61871h.529167v.264583h-.529167z"/><path d="m8.73125 294.61871h.529167v.264583h-.529167z"/><path d="m9.525 294.61868h.529167v.264583h-.529167z"/><path d="m10.318749 294.61868h.529167v.264583h-.529167z"/><path d="m11.112499 294.61868h.529167v.264583h-.529167z"/><path d="m11.906249 294.61868h.529167v.264583h-.529167z"/><path d="m5.55625 291.17914h.529167v.264583h-.529167z"/><path d="m6.35 291.17914h.529167v.264583h-.529167z"/><path d="m7.14375 291.17914h.529167v.264583h-.529167z"/><path d="m7.9375 291.17914h.529167v.264583h-.529167z"/><path d="m8.73125 291.17914h.529167v.264583h-.529167z"/><path d="m9.525 291.17911h.529167v.264583h-.529167z"/><path d="m10.318749 291.17911h.529167v.264583h-.529167z"/><path d="m11.112499 291.17911h.529167v.264583h-.529167z"/><path d="m11.906249 291.17911h.529167v.264583h-.529167z"/><path d="m12.170833 291.70831h.264583v.529169h-.264583z"/><path d="m12.170833 292.50208h.264583v.529172h-.264583z"/><path d="m12.170834 293.29587h.264583v.529169h-.264583z"/><path d="m12.170834 294.08963h.264583v.529172h-.264583z"/><path d="m5.55625 291.70831h.264583v.529169h-.264583z"/><path d="m5.55625 292.50208h.264583v.529172h-.264583z"/><path d="m5.556251 293.29587h.264583v.529169h-.264583z"/><path d="m5.556251 294.08963h.264583v.529172h-.264583z"/></g></g></svg>