<svg height="54" viewBox="0 0 17.991666 14.2875" width="68" xmlns="http://www.w3.org/2000/svg" xmlns:xlink="http://www.w3.org/1999/xlink"><filter id="a" color-interpolation-filters="sRGB" height="1.027913" width="1.021049" x="-.010525" y="-.013957"><feGaussianBlur stdDeviation=".070776043"/></filter><filter id="b" color-interpolation-filters="sRGB" height="1.055826" width="1.042098" x="-.021049" y="-.027913"><feGaussianBlur stdDeviation=".14155209"/></filter><linearGradient id="c" gradientUnits="userSpaceOnUse" x1="11.1125" x2="11.1125" y1="295.941646" y2="287.474976"><stop offset="0" stop-color="#e8e8e8"/><stop offset="1" stop-color="#fafafa"/></linearGradient><g transform="translate(0 -282.71248)"><path d="m3.8679566 283.77081h9.9911704v12.17084h-9.9911704z" fill="#050505" filter="url(#b)" opacity=".41" transform="matrix(1.0327868 0 0 1.0386589 -.290608 -11.17619)"/><path d="m3.96875 283.77081h9.789583v12.17084h-9.789583z" filter="url(#b)" opacity=".49"/><path d="m3.96875 283.77081h9.789583v12.17084h-9.789583z" filter="url(#a)" opacity=".77"/><path d="m3.96875 283.77081h9.789583v12.17084h-9.789583z" fill="#fff"/><path d="m4.2333333 284.0354h9.2604167v11.64166h-9.2604167z" fill="url(#c)"/><path d="m5.027083 284.56458h7.937501v4.762488h-7.937501z" fill="#8f8f8f"/><path d="m5.291667 284.82913h7.408333v4.233348h-7.408333z" fill="#fff"/><path d="m6.085417 285.35831h5.820833v.529168h-5.820833z" fill="#f7890e" opacity=".97"/><path d="m5.55625 291.19803h6.879167v3.685271h-6.879167z" fill="#8f8f8f"/><path d="m5.820833 291.44373h6.35v3.193899h-6.35z" fill="#fff"/><g fill="#06f"><path d="m6.35 291.70831h.529167v.529167h-.529167z"/><path d="m6.35 292.76663h.529167v.529167h-.529167z"/><path d="m6.35 293.82498h.529167v.529167h-.529167z"/><path d="m7.408333 291.70831h4.233334v.529167h-4.233334z"/><path d="m7.408333 292.76663h4.233334v.529167h-4.233334z"/><path d="m7.408333 293.82498h4.233334v.529167h-4.233334z"/></g></g></svg>