<svg height="16" width="16" xmlns="http://www.w3.org/2000/svg" xmlns:xlink="http://www.w3.org/1999/xlink"><linearGradient id="a"><stop offset="0" stop-color="#6c006c"/><stop offset="1" stop-color="#6c006c" stop-opacity="0"/></linearGradient><linearGradient id="b"><stop offset="0" stop-color="#fff"/><stop offset="1" stop-color="#fff" stop-opacity="0"/></linearGradient><linearGradient id="c"><stop offset="0" stop-color="#feffbf"/><stop offset="1" stop-color="#edffbf" stop-opacity="0"/></linearGradient><linearGradient id="d" gradientUnits="userSpaceOnUse" x1="76.57626" x2="36.57626" y1="45.366025" y2="114.648058"><stop offset="0" stop-color="#c942cd"/><stop offset=".62652415" stop-color="#802182"/><stop offset="1" stop-color="#250025"/></linearGradient><radialGradient id="e" cx="61" cy="30.999996" gradientTransform="matrix(-3.9999996 3.9999996 -1.3333339 -1.3333335 345.33332 -174.66664)" gradientUnits="userSpaceOnUse" r="6" xlink:href="#b"/><filter id="f" height="1.256311" width="1.256311" x="-.128155" y="-.128155"><feGaussianBlur stdDeviation=".6407767"/></filter><radialGradient id="g" cx="60" cy="28" gradientTransform="matrix(-3.9999996 3.9999996 -1.3333339 -1.3333335 337.33332 -174.66664)" gradientUnits="userSpaceOnUse" r="6" xlink:href="#b"/><radialGradient id="h" cx="62.125" cy="27.624998" gradientTransform="matrix(-3.9999996 3.9999996 -1.3333339 -1.3333335 337.33332 -174.66664)" gradientUnits="userSpaceOnUse" r="6" xlink:href="#c"/><radialGradient id="i" cx="61.125" cy="24.624998" gradientTransform="matrix(-3.9999996 3.9999996 -1.3333339 -1.3333335 337.33332 -174.66664)" gradientUnits="userSpaceOnUse" r="6" xlink:href="#c"/><clipPath id="j"><rect height="56" rx="11.999989" width="64.000015" x="-.000012" y="24"/></clipPath><linearGradient id="k" gradientUnits="userSpaceOnUse" x1="94.841534" x2="94.841534" xlink:href="#c" y1="32.182046" y2="72.236402"/><linearGradient id="l" gradientUnits="userSpaceOnUse" x1="102.158362" x2="73.184794" xlink:href="#b" y1="58.081307" y2="36.383922"/><linearGradient id="m" gradientUnits="userSpaceOnUse" x1="94.841534" x2="94.841534" xlink:href="#b" y1="32.026434" y2="72.08079"/><linearGradient id="n" gradientTransform="matrix(.8660254 -.5 .5 .8660254 29.211736 31.266677)" gradientUnits="userSpaceOnUse" x1="20.095404" x2="20.095404" y1="12.910217" y2="104.00005"><stop offset="0" stop-color="#fff710"/><stop offset="1" stop-color="#df9500"/></linearGradient><filter id="o"><feGaussianBlur stdDeviation=".99773779"/></filter><linearGradient id="p" gradientUnits="userSpaceOnUse" x1="30.021308" x2="30.021308" y1="54.53569" y2="145.253469"><stop offset="0" stop-color="#f810ff"/><stop offset="1" stop-color="#400040"/></linearGradient><linearGradient id="q" gradientUnits="userSpaceOnUse" x1="52.133186" x2="-8" xlink:href="#a" y1="84" y2="84"/><linearGradient id="r" gradientTransform="matrix(1 0 0 -1 4 108)" gradientUnits="userSpaceOnUse" x1="52.133186" x2="-8" xlink:href="#a" y1="84" y2="84"/><g transform="scale(.125)"><rect fill="url(#d)" height="55.999989" rx="11.999989" transform="matrix(.8660254 -.5 .5 .8660254 0 0)" width="64" x="9.880107" y="65.461525"/><g clip-path="url(#j)" transform="matrix(.8660254 -.5 .5 .8660254 29.287186 30.966677)"><path d="m52 24v12h12c0-6.647994-5.352006-12-12-12z" fill="url(#e)" filter="url(#f)" opacity=".935644"/><path d="m52 24v12h12c0-6.647994-5.352006-12-12-12z" fill="url(#g)" filter="url(#f)" opacity=".59901" transform="matrix(-1 0 0 1 64 0)"/><path d="m44 33v12h12c0-6.647994-5.352006-12-12-12z" fill="url(#h)" filter="url(#f)" opacity=".351485" transform="matrix(1 0 0 -1 8 113)"/><path d="m52 33v12h12c0-6.647994-5.352006-12-12-12z" fill="url(#i)" filter="url(#f)" opacity=".549604" transform="matrix(-1 0 0 -1 64 113)"/></g><rect fill="url(#p)" height="39.836617" rx="3.983662" transform="matrix(.8660254 -.5 .5 .8660254 0 0)" width="47.803944" x="17.975309" y="73.547531"/><path d="m91.776202 32.275109c-.513548.06435-1.016055.253212-1.493873.52908l-34.483575 19.918311c-1.911273 1.103474-2.566225 3.535139-1.462751 5.446413l4.48162 7.749467c20.625151-.701262 38.04469-7.230484 45.780987-16.308116l-8.869868-15.343324c-.827606-1.433455-2.411892-2.184865-3.95254-1.991831z" fill="url(#k)" opacity=".772277"/><path d="m92.367527 32.088375c-.192382-.0049-.398743.007-.591325.03112-.513548.06435-1.016055.253212-1.493873.529081l-34.483575 19.91831c-1.433455.827606-2.15244 2.41059-1.960709 3.95254.151952-1.193035.835576-2.307029 1.960709-2.956625l34.483575-19.91831c.477818-.275869.980325-.464734 1.493873-.52908 1.540648-.193034 3.124934.558376 3.95254 1.991831l8.527528 14.751999c.11811-.132571.22841-.270904.34234-.404591l-8.869868-15.343322c-.724155-1.254273-2.014544-1.988848-3.361215-2.022953z" fill="url(#m)" opacity=".772277"/><path d="m95.386666 33.621302 8.807624 15.249957c-7.728461 9.068437-24.707094 16.164868-45.304856 16.877211l-.07154.02223c20.625154-.701263 38.044693-7.230485 45.780996-16.308118l-8.869874-15.343323c-.103451-.179182-.216812-.340602-.342346-.497958z" fill="url(#l)" opacity=".772277"/><path d="m53.744235 55.425c-.254743.979943-.142348 2.08105.40625 3.03125l16 27.6875c1.108 1.919112 3.549638 2.57675 5.46875 1.46875l34.625005-20c1.58326-.9141 2.29311-2.720108 1.875-4.40625-.26464.987636-.91545 1.85225-1.875 2.40625l-34.625005 20c-1.919112 1.108-4.36075.450362-5.46875-1.46875l-16-27.6875c-.188159-.325901-.317236-.684525-.40625-1.03125z" fill="url(#n)" filter="url(#o)" opacity=".787129" transform="matrix(.99591552 0 0 .99591552 .338708 .250201)"/><path d="m12 60v4h4v-4zm12 0v4h16v-4zm-8 16v4h8v-4zm16 0v4h16v-4zm-23.8125 16v4h15.8125v-4zm23.8125 0v4h24v-4z" fill="url(#q)" opacity=".826733"/><path d="m16 48v-4h4v4zm12 0v-4h16v4zm4-16v-4h8v4zm16 0v-4h16v4zm-15.8125-16v-4h15.8125v4zm23.8125 0v-4h24v4z" fill="url(#r)" opacity=".826733"/></g></svg>