<svg height="42" viewBox="0 0 42 42" width="42" xmlns="http://www.w3.org/2000/svg" xmlns:xlink="http://www.w3.org/1999/xlink"><linearGradient id="a" gradientTransform="matrix(.83333334 0 0 .78571428 8.666667 9.714286)" gradientUnits="userSpaceOnUse" x1="4" x2="184" y1="64" y2="-32"><stop offset="0" stop-color="#fcfcfc"/><stop offset=".52275378" stop-color="#f8f8f8"/><stop offset=".77457333" stop-color="#f0efef"/><stop offset=".90122044" stop-color="#e3e1e1"/><stop offset="1" stop-color="#cecbcb"/></linearGradient><linearGradient id="b" gradientUnits="userSpaceOnUse" x1="12" x2="32" y1="66" y2="66"><stop offset="0" stop-color="#e0e0e0"/><stop offset="1" stop-color="#d4d4d4"/></linearGradient><linearGradient id="c" gradientUnits="userSpaceOnUse" x1="12" x2="12" xlink:href="#d" y1="104" y2="116"/><linearGradient id="d"><stop offset="0" stop-color="#c8c8c8"/><stop offset="1" stop-color="#c8c8c8" stop-opacity="0"/></linearGradient><linearGradient id="e" gradientUnits="userSpaceOnUse" x1="88" x2="88" xlink:href="#d" y1="104" y2="116"/><linearGradient id="f" gradientUnits="userSpaceOnUse" x1="32" x2="32" xlink:href="#d" y1="104" y2="116"/><linearGradient id="g" gradientUnits="userSpaceOnUse" x1="60" x2="60" xlink:href="#d" y1="104" y2="116"/><linearGradient id="h" gradientUnits="userSpaceOnUse" x1="116" x2="116" xlink:href="#d" y1="104" y2="116"/><g transform="matrix(1 0 0 -1 0 42)"><g fill-opacity=".581395"><g fill="#e1e1e1"><path d="m3 0v7.8027344 19.1972656 4.197266c0 4.322388 3.122 7.802734 7 7.802734h7 17 8v-1h-7-17-7c-3.878 0-7-3.480346-7-7.802734v-4.197266-18.1972656-7.8027344z"/><path d="m3 0v7.8027344 19.1972656 4.197266c0 4.322388 3.122 7.802734 7 7.802734h7 17 8v-1h-7-17-7c-3.878 0-7-3.480346-7-7.802734v-4.197266-18.1972656-7.8027344z"/><path d="m3 0v7.8027344 19.1972656 4.197266c0 4.322388 3.122 7.802734 7 7.802734h7 17 8v-1h-7-17-7c-3.878 0-7-3.480346-7-7.802734v-4.197266-18.1972656-7.8027344z"/></g><path d="m4 0v7.8027344 18.1972656 4.197266c0 4.322388 3.122 7.802734 7 7.802734h7 17 7v-7.802734-22.3945316-7.8027344h-7-24z" fill="#4073bf"/></g><g transform="matrix(.25 0 0 -.25 8 33)"><path d="m12 16h100v88h-100z" fill="url(#a)"/><path d="m8 72h108v4h-108z" fill="#c8c8c8"/><path d="m84-84h4v72h-4z" fill="#b8b8b8" transform="scale(1 -1)"/><path d="m24 96h47.9375v4h-47.9375z" fill="#c8c8c8" transform="matrix(2.1694915 0 0 1 -40.067797 -8)"/><path d="m12 28h20v76h-20z" fill="url(#b)" opacity=".539906"/><path d="m8.0625 12h3.9375v108h-3.9375z" fill="url(#c)"/><g fill="#b8b8b8"><path d="m8.08125 12h103.91875v4h-103.91875z"/><path d="m8.08125 24h103.91875v4h-103.91875z"/><path d="m8.08125 40h103.91875v4h-103.91875z"/></g><path d="m84 12h3.9375v108h-3.9375z" fill="url(#e)"/><path d="m8 56h103.91875v4h-103.91875z" fill="#c8c8c8"/><path d="m24 96h47.9375v4h-47.9375z" fill="#c8c8c8" transform="matrix(2.1694915 0 0 1 -40.067796 8)"/><path d="m28 12h3.9375v108h-3.9375z" fill="url(#f)"/><path d="m32 16h24v8h-24z" fill="#d2fcba"/><path d="m12 28h16v12h-16z" fill="#d2fcba"/><path d="m28 12h4v32h-4z" fill="#55a811"/><path d="m8 24h4v20h-4z" fill="#55a811"/><path d="m56 12h3.9375v108h-3.9375z" fill="url(#g)"/><path d="m56 12h4v12h-4z" fill="#55a811"/><path d="m12-60h4v28h-4z" fill="#55a811" transform="rotate(90)"/><path d="m56 28h4v16h-4z" fill-opacity=".451429"/><path d="m24-60h4v48h-4z" fill="#55a811" transform="rotate(90)"/><path d="m32 40h28v4h-28z" fill-opacity=".451429"/><path d="m40-31.698925h4v19.698925h-4z" fill="#55a811" transform="rotate(90)"/><path d="m56 40h8v8h-8z" fill="#555"/><path d="m112 12h3.9375v108h-3.9375z" fill="url(#h)"/></g></g></svg>