<svg height="16" width="16" xmlns="http://www.w3.org/2000/svg" xmlns:xlink="http://www.w3.org/1999/xlink"><radialGradient id="a" cx="63.912209" cy="115.70919" fy="115.7093" gradientTransform="matrix(1 0 0 .197802 0 92.82166)" gradientUnits="userSpaceOnUse" r="63.912209"><stop offset="0"/><stop offset="1" stop-opacity="0"/></radialGradient><linearGradient id="b" gradientTransform="matrix(-1 0 0 -1 157.63063 -36.922634)" gradientUnits="userSpaceOnUse" x1="32.0005" x2="32.0005" y1="-93.999496" y2="-97.999496"><stop offset="0" stop-color="#fff"/><stop offset=".33673468" stop-color="#ecf5ff"/><stop offset=".67346936" stop-color="#3795ff"/><stop offset="1" stop-color="#fff"/></linearGradient><linearGradient id="c" gradientTransform="matrix(-1 0 0 -1 157.63063 -36.922634)" gradientUnits="userSpaceOnUse" x1="32.0005" x2="32.0005" y1="10" y2="6"><stop offset="0" stop-opacity="0"/><stop offset="1"/></linearGradient><linearGradient id="d" gradientTransform="translate(93.62963 -50.922635)" gradientUnits="userSpaceOnUse" x1=".000488" x2="64.000504" y1="4" y2="4"><stop offset="0" stop-color="#946620"/><stop offset=".45" stop-color="#fada9b"/><stop offset=".57704997" stop-color="#9b7530"/><stop offset=".70410001" stop-color="#c5ab82"/><stop offset=".87620509" stop-color="#84550d"/><stop offset="1" stop-color="#9c6c22"/></linearGradient><linearGradient id="e" gradientTransform="matrix(.8498948 0 0 1 37.303816 8)" gradientUnits="userSpaceOnUse" spreadMethod="reflect" x1="54.943485" x2="54.943485" y1="48" y2="25.220411"><stop offset="0" stop-color="#fff" stop-opacity="0"/><stop offset="1" stop-color="#fff"/></linearGradient><linearGradient id="f" gradientUnits="userSpaceOnUse" x1="64.000499" x2="64.000499" y1="12.003899" y2="8.003899"><stop offset="0" stop-color="#6c5025" stop-opacity="0"/><stop offset="1" stop-color="#60451a"/></linearGradient><linearGradient id="g" gradientTransform="matrix(1 0 0 .9995005 31.999999 6.05684)" gradientUnits="userSpaceOnUse" x1="32" x2="32" y1="114.00011" y2="106.00011"><stop offset="0" stop-color="#5d4b3b" stop-opacity="0"/><stop offset="1" stop-color="#2d2a26"/></linearGradient><linearGradient id="h" gradientTransform="matrix(-1 0 0 -.9995005 96.000999 22.044951)" gradientUnits="userSpaceOnUse" x1="32.0005" x2="32.0005" xlink:href="#c" y1="-93.999496" y2="-97.999496"/><linearGradient id="i" gradientTransform="matrix(-1 0 0 -1 96.000998 22)" gradientUnits="userSpaceOnUse" x1="32.0005" x2="32.0005" xlink:href="#c" y1="10" y2="6"/><radialGradient id="j" cx="31.628401" cy="50.0928" fx="31.923901" fy="59.550201" gradientTransform="matrix(1 0 0 1.3543396 31.999999 -11.843017)" gradientUnits="userSpaceOnUse" r="9.462"><stop offset="0" stop-color="#babdb6"/><stop offset="1" stop-color="#555753"/></radialGradient><linearGradient id="k" gradientTransform="matrix(.9999821 0 0 1 32.00007 8)" gradientUnits="userSpaceOnUse" x1="8.0005" x2="36.2085" y1="85.496101" y2="85.496101"><stop offset="0" stop-color="#555753"/><stop offset="1" stop-color="#888a85"/></linearGradient><radialGradient id="l" cx="33.564655" cy="84.700607" fx="36.814655" fy="71.200607" gradientTransform="matrix(.8011906 .00000013 -.00000008 .6213065 38.672975 40.071567)" gradientUnits="userSpaceOnUse" r="20.396099"><stop offset="0" stop-color="#babdb6"/><stop offset=".5207" stop-color="#555753"/><stop offset="1" stop-color="#676965"/></radialGradient><linearGradient id="m" gradientUnits="userSpaceOnUse" x1="32.500999" x2="32.500999" y1="12.25" y2="4.5"><stop offset="0" stop-color="#00316e" stop-opacity="0"/><stop offset="1" stop-color="#003754"/></linearGradient><linearGradient id="n" gradientUnits="userSpaceOnUse" x1="32.5" x2="32.5" xlink:href="#c" y1="99.75" y2="107.5"/><filter id="o"><feGaussianBlur stdDeviation="1.68"/></filter><clipPath id="p"><path d="m91.999999 30.001c0-15.465-12.536-18.001-28-18.001s-28 2.536-28 18.001c0 15.464 28 33.999 28 33.999s28-18.535 28-33.999z"/></clipPath><filter id="q"><feGaussianBlur stdDeviation=".7"/></filter><linearGradient id="r" gradientUnits="userSpaceOnUse" x1="11" x2="25" y1="24.000999" y2="24.000999"><stop offset="0" stop-color="#fff"/><stop offset=".5" stop-color="#fff" stop-opacity=".498039"/><stop offset="1" stop-color="#fff" stop-opacity="0"/></linearGradient><radialGradient id="s" cx="64" cy="53.346153" gradientTransform="matrix(0 -1.5573975 1.6518823 0 -24.121564 151.92344)" gradientUnits="userSpaceOnUse" r="28" xlink:href="#b"/><radialGradient id="t" cx="64" cy="53.346153" gradientTransform="matrix(.393884 1.3958121 1.2023315 -.3392857 -25.348329 4.517612)" gradientUnits="userSpaceOnUse" r="28" xlink:href="#b"/><radialGradient id="u" cx="58.25" cy="24" gradientTransform="matrix(1.0391298 0 0 .1720525 -2.279313 9.370741)" gradientUnits="userSpaceOnUse" r="32" xlink:href="#d"/><radialGradient id="v" cx="64" cy="148.01398" gradientTransform="matrix(1 0 0 .3280626 0 71.440151)" gradientUnits="userSpaceOnUse" r="32" xlink:href="#d"/><filter id="w"><feGaussianBlur stdDeviation=".82630708"/></filter><filter id="x"><feGaussianBlur stdDeviation=".81609417"/></filter><filter id="y"><feGaussianBlur stdDeviation=".999"/></filter><g transform="scale(.125)"><ellipse cx="63.912209" cy="115.70919" fill="url(#a)" opacity=".381395" rx="63.912209" ry="12.641975" transform="matrix(1.001374 0 0 .410379 -.000024 75.327377)"/><path d="m91.999999 97.999c0 15.465-12.536 18.001-28 18.001s-28-2.536-28-18.001c0-15.464 28-33.999 28-33.999s28 18.535 28 33.999z" fill="url(#t)" opacity=".3"/><path d="m92 30.001c0-15.465-12.536-18.001-28-18.001-15.464001 0-28.000001 2.536-28.000001 18.001 0 15.464 28.000001 33.999 28.000001 33.999s28-18.535 28-33.999z" fill="url(#s)" opacity=".3"/><path d="m39.999999 97.995c0 15.465 10.746 18.001 24.001 18.001s24-2.536 24-18.001c-.001-2.999-14.251-13.999-21.001-13.999-5.886 3.375-27 11.5-27 13.999z" fill="url(#l)"/><path d="m43.166871 97.999c0-2.474 19.318655-10.459 25.041553-13.894-.422993-.066-.829985-.105-1.208979-.105-5.885894 3.375-26.999517 11.5-26.999517 13.999 0 8.001 3.166943 5.168 3.166943 0z" fill="url(#k)"/><ellipse cx="32.5" cy="103.625" fill="url(#n)" rx="18.5" ry="3.875" transform="matrix(1 0 0 1.4833548 31.999999 -43.964645)"/><path d="m73.094999 52.951298c6.792-9.237951-1.345-1.817524-9.095-.801769-8.464 1.109204-16.557-9.579244-9.961-.39005 5.249 7.312079 9.961 12.240521 9.961 12.240521s4.206-4.398895 9.095-11.048702z" fill="url(#j)"/><path clip-path="url(#p)" d="m91.999999 30.001c0-15.465-12.536-18.001-28-18.001s-28 2.536-28 18.001c0 15.464 28 33.999 28 33.999s28-18.535 28-33.999z" fill="none" filter="url(#y)" stroke="#00438a" stroke-width="8" transform="matrix(1 0 0 -1 0 128)"/><ellipse cx="32.5" cy="8.375" fill="url(#m)" rx="18" ry="3.875" transform="matrix(1.0833333 0 0 1.3225806 28.791668 7.798387)"/><path d="m65.666469 68s17.332691 17.999 17.332691 27.333-13.332762-16.999-17.332691-27.333z" fill="#fff" filter="url(#x)" opacity=".632959"/><path d="m67.333999 56s20.11446-18 16.148001-32.667-3.966459 3.333-3.966459 3.333.283865 13.334-12.181542 29.334z" fill="url(#e)" filter="url(#w)" opacity=".7"/><path clip-path="url(#p)" d="m91.999999 30.001c0-15.465-12.536-18.001-28-18.001s-28 2.536-28 18.001c0 15.464 28 33.999 28 33.999s28-18.535 28-33.999z" fill="none" filter="url(#o)" stroke="#00438a" stroke-width="8"/><path d="m32 8h64v8h-64z" fill="url(#u)"/><path d="m95.999999 11.999999s-1 2-4 2-53.167 0-56.333 0-3.667-2-3.667-2v4h64z" fill="url(#i)" opacity=".6"/><path d="m31.999999 12.003999s11-2 14-2h36.333c3.167 0 13.667 2 13.667 2v-4h-64z" fill="url(#f)"/><g fill="url(#r)" filter="url(#q)" transform="matrix(1.3768355 0 -.132388 .7403846 29.398798 10.856029)"><path d="m20.334 22.001c0-7.732 5.667-4.668.666-11-7.732 0-10 1.268-10 9s14 17 14 17-4.666-7.268-4.666-15z" fill="url(#r)"/></g><path d="m32 112h64v7.996004h-64z" fill="url(#v)"/><path d="m95.999999 115.998s-1 1.999-4 1.999-53.167 0-56.333 0-3.667-1.999-3.667-1.999v3.998h64z" fill="url(#h)" opacity=".5"/><path d="m31.999999 120s6-5.997 9-5.997h41.333c10.833 0 13.667 5.997 13.667 5.997v-7.996h-64z" fill="url(#g)" opacity=".8"/><g fill="#323232" fill-rule="evenodd"><g transform="matrix(.5493589 -.3696488 .139565 .2074165 -3.497779 96.291974)"><ellipse cx="22.25" cy="54.5" rx="1.25" ry="1" transform="matrix(-.3772757 .5409319 -.8645903 -.2074596 163.53524 61.869073)"/><ellipse cx="22.25" cy="54.5" rx="1.25" ry="1" transform="matrix(-.3027291 .4536475 -.6937543 -.1739842 152.76062 63.927276)"/><ellipse cx="22.25" cy="54.5" rx="1.25" ry="1" transform="matrix(-.3027291 .4536475 -.6937543 -.1739842 151.24266 64.840473)"/><ellipse cx="22.25" cy="54.5" rx="1.25" ry="1" transform="matrix(-.4220038 .5758456 -.9670921 -.2208498 170.23355 66.159693)"/><ellipse cx="22.25" cy="54.5" rx="1.25" ry="1" transform="matrix(-.1536358 .1830663 -.3520821 -.07021008 127.59161 67.590942)"/><ellipse cx="22.25" cy="54.5" rx="1.25" ry="1" transform="matrix(-.1536358 .1830663 -.3520821 -.07021008 127.7473 68.161689)"/><ellipse cx="22.25" cy="54.5" rx="1.25" ry="1" transform="matrix(-.5196344 .4704015 -1.1908284 -.1804096 179.65757 73.828622)"/></g><g transform="matrix(.3656143 -.5520522 .2084334 .1380417 11.178047 114.29375)"><ellipse cx="22.25" cy="54.5" rx="1.25" ry="1" transform="matrix(-.3772757 .5409319 -.8645903 -.2074596 163.53524 61.869073)"/><ellipse cx="22.25" cy="54.5" rx="1.25" ry="1" transform="matrix(-.3027291 .4536475 -.6937543 -.1739842 152.76062 63.927276)"/><ellipse cx="22.25" cy="54.5" rx="1.25" ry="1" transform="matrix(-.3027291 .4536475 -.6937543 -.1739842 151.24266 64.840473)"/><ellipse cx="22.25" cy="54.5" rx="1.25" ry="1" transform="matrix(-.4220038 .5758456 -.9670921 -.2208498 170.23355 66.159693)"/><ellipse cx="22.25" cy="54.5" rx="1.25" ry="1" transform="matrix(-.1536358 .1830663 -.3520821 -.07021008 127.59161 67.590942)"/><ellipse cx="22.25" cy="54.5" rx="1.25" ry="1" transform="matrix(-.1536358 .1830663 -.3520821 -.07021008 127.7473 68.161689)"/><ellipse cx="22.25" cy="54.5" rx="1.25" ry="1" transform="matrix(-.5196344 .4704015 -1.1908284 -.1804096 179.65757 73.828622)"/></g><g transform="matrix(.5493589 .3696488 .139565 -.2074165 -3.497779 48.767556)"><ellipse cx="22.25" cy="54.5" rx="1.25" ry="1" transform="matrix(-.3772757 .5409319 -.8645903 -.2074596 163.53524 61.869073)"/><ellipse cx="22.25" cy="54.5" rx="1.25" ry="1" transform="matrix(-.3027291 .4536475 -.6937543 -.1739842 152.76062 63.927276)"/><ellipse cx="22.25" cy="54.5" rx="1.25" ry="1" transform="matrix(-.3027291 .4536475 -.6937543 -.1739842 151.24266 64.840473)"/><ellipse cx="22.25" cy="54.5" rx="1.25" ry="1" transform="matrix(-.4220038 .5758456 -.9670921 -.2208498 170.23355 66.159693)"/><ellipse cx="22.25" cy="54.5" rx="1.25" ry="1" transform="matrix(-.1536358 .1830663 -.3520821 -.07021008 127.59161 67.590942)"/><ellipse cx="22.25" cy="54.5" rx="1.25" ry="1" transform="matrix(-.1536358 .1830663 -.3520821 -.07021008 127.7473 68.161689)"/><ellipse cx="22.25" cy="54.5" rx="1.25" ry="1" transform="matrix(-.5196344 .4704015 -1.1908284 -.1804096 179.65757 73.828622)"/></g><g transform="matrix(.5493589 -.3696488 .139565 .2074165 -3.497779 104.29197)"><ellipse cx="22.25" cy="54.5" rx="1.25" ry="1" transform="matrix(-.3772757 .5409319 -.8645903 -.2074596 163.53524 61.869073)"/><ellipse cx="22.25" cy="54.5" rx="1.25" ry="1" transform="matrix(-.3027291 .4536475 -.6937543 -.1739842 152.76062 63.927276)"/><ellipse cx="22.25" cy="54.5" rx="1.25" ry="1" transform="matrix(-.3027291 .4536475 -.6937543 -.1739842 151.24266 64.840473)"/><ellipse cx="22.25" cy="54.5" rx="1.25" ry="1" transform="matrix(-.4220038 .5758456 -.9670921 -.2208498 170.23355 66.159693)"/><ellipse cx="22.25" cy="54.5" rx="1.25" ry="1" transform="matrix(-.1536358 .1830663 -.3520821 -.07021008 127.59161 67.590942)"/><ellipse cx="22.25" cy="54.5" rx="1.25" ry="1" transform="matrix(-.1536358 .1830663 -.3520821 -.07021008 127.7473 68.161689)"/><ellipse cx="22.25" cy="54.5" rx="1.25" ry="1" transform="matrix(-.5196344 .4704015 -1.1908284 -.1804096 179.65757 73.828622)"/></g></g></g></svg>