<svg xmlns="http://www.w3.org/2000/svg" viewBox="0 0 24 24">
  <path
     style="fill:#4d4d4d"
     d="M 13,3 V 4 H 4 V 3 Z m 0,2 V 6 H 7 V 5 Z m 0,4 v 1 H 4 V 9 Z m 0,2 v 1 h -2 v -1 z m 0,4 v 1 H 4 v -1 z m 0,2 v 1 H 7 v -1 z m -7,1 v 1 H 4 v -1 z"
     />
  <path
     style="fill:#1d99f3"
     d="M 15 2 L 15 4 L 15 5 L 15 7 L 15 8 L 18 8 C 19.108 8 20 7.108 20 6 C 20 5.1891 19.50311 4.502 18.8125 4.1875 C 18.91845 3.9817 19 3.7483 19 3.5 C 19 2.669 18.331 2 17.5 2 L 16 2 L 15 2 z M 16 3 L 17.5 3 C 17.777 3 18 3.223 18 3.5 C 18 3.777 17.777 4 17.5 4 L 16 4 L 16 3 z M 16 5 L 17.5 5 L 18 5 C 18.554 5 19 5.446 19 6 C 19 6.554 18.554 7 18 7 L 16 7 L 16 5 z M 18 14 C 16.34315 14 15 15.3432 15 17 C 15 18.6569 16.34315 20 18 20 L 19 20 L 19 19 L 18 19 C 16.895431 19 16 18.1046 16 17 C 16 15.8954 16.895431 15 18 15 L 19 15 L 19 14 L 18 14 z "
     />
</svg>
