<svg height="32" width="32" xmlns="http://www.w3.org/2000/svg" xmlns:xlink="http://www.w3.org/1999/xlink"><radialGradient id="a" cx="4.992979" cy="43.5" gradientTransform="matrix(2.003784 0 0 1.4 27.98813 -17.4)" gradientUnits="userSpaceOnUse" r="2.5" xlink:href="#b"/><linearGradient id="b"><stop offset="0" stop-color="#181818"/><stop offset="1" stop-color="#181818" stop-opacity="0"/></linearGradient><radialGradient id="c" cx="4.992979" cy="43.5" gradientTransform="matrix(2.003784 0 0 1.4 -20.01187 -104.4)" gradientUnits="userSpaceOnUse" r="2.5" xlink:href="#b"/><linearGradient id="d" gradientUnits="userSpaceOnUse" x1="25.058096" x2="25.058096" y1="47.027729" y2="39.999443"><stop offset="0" stop-color="#181818" stop-opacity="0"/><stop offset=".5" stop-color="#181818"/><stop offset="1" stop-color="#181818" stop-opacity="0"/></linearGradient><linearGradient id="e" gradientTransform="matrix(.67567568 0 0 .67567572 -.216213 -.216209)" gradientUnits="userSpaceOnUse" x1="23.999996" x2="23.999996" y1="6.239989" y2="41.759991"><stop offset="0" stop-color="#fff"/><stop offset=".08071423" stop-color="#fff" stop-opacity=".235294"/><stop offset=".90786326" stop-color="#fff" stop-opacity=".156863"/><stop offset="1" stop-color="#fff" stop-opacity=".392157"/></linearGradient><linearGradient id="f" gradientTransform="matrix(.66466012 0 0 .63927116 -33.187302 -.08704)" gradientUnits="userSpaceOnUse" x1="74.838791" x2="74.838791" y1="4.535933" y2="49.779099"><stop offset="0" stop-color="#f4f4f4"/><stop offset="1" stop-color="#dbdbdb"/></linearGradient><linearGradient id="g" gradientTransform="matrix(.80749686 0 0 .89471714 -45.635114 -9.241927)" gradientUnits="userSpaceOnUse" x1="72.893349" x2="72.893349" y1="43.73991" y2="12.523938"><stop offset="0" stop-opacity=".317829"/><stop offset="1" stop-opacity=".24031"/></linearGradient><linearGradient id="h"><stop offset="0"/><stop offset="1" stop-opacity="0"/></linearGradient><radialGradient id="i" cx="24.837126" cy="36.421127" gradientTransform="matrix(-.52995454 0 0 -.35307735 22.512547 21.835677)" gradientUnits="userSpaceOnUse" r="15.644737" xlink:href="#h"/><linearGradient id="j" gradientTransform="matrix(0 1.333717 -1.3358905 0 32.698682 -5.002351)" gradientUnits="userSpaceOnUse" x1="6.000037" x2="20.866917" y1="10.380685" y2="10.380685"><stop offset="0" stop-color="#9bdb4d"/><stop offset="1" stop-color="#68b723"/></linearGradient><linearGradient id="k" gradientTransform="matrix(0 -1.004639 1 0 -35.960764 39.040337)" gradientUnits="userSpaceOnUse" x1="26.914818" x2="19.873171" y1="56.75816" y2="56.75816"><stop offset="0" stop-color="#fff"/><stop offset=".0001" stop-color="#fff" stop-opacity=".235294"/><stop offset="1" stop-color="#fff" stop-opacity=".156863"/><stop offset="1" stop-color="#fff" stop-opacity=".392157"/></linearGradient><linearGradient id="l" gradientTransform="matrix(0 -1.004639 1 0 -57.960764 40.040337)" gradientUnits="userSpaceOnUse" x1="37.863892" x2="21.624302" y1="75.964668" y2="75.964668"><stop offset="0" stop-color="#fff"/><stop offset=".0000001" stop-color="#fff" stop-opacity=".235294"/><stop offset="1" stop-color="#fff" stop-opacity=".156863"/><stop offset="1" stop-color="#fff" stop-opacity=".392157"/></linearGradient><radialGradient id="m" cx="11.25" cy="19.031" gradientTransform="matrix(1.0726472 0 0 .24804124 12.645351 25.793386)" gradientUnits="userSpaceOnUse" r="8.063" xlink:href="#h"/><linearGradient id="n" gradientTransform="matrix(0 1 1 0 2 -16)" gradientUnits="userSpaceOnUse" x1="4.715" x2="43.601002" y1="22.594999" y2="22.594999"><stop offset="0" stop-color="#d1ff82"/><stop offset="1" stop-color="#68b723"/></linearGradient><linearGradient id="o" gradientTransform="matrix(-1.00464 0 0 1 53.044 -17.992)" gradientUnits="userSpaceOnUse" x1="34.882999" x2="34.882999" y1="12.992" y2="37.992001"><stop offset="0" stop-color="#fff"/><stop offset=".52" stop-color="#fff" stop-opacity=".235"/><stop offset=".52" stop-color="#fff" stop-opacity=".157"/><stop offset="1" stop-color="#fff" stop-opacity=".392"/></linearGradient><g transform="matrix(-1 0 0 1 31.999999 0)"><g opacity=".4" transform="matrix(.73684208 0 0 .57142853 -1.684211 4.142858)"><path d="m38 40h5v7h-5z" fill="url(#a)"/><path d="m-10-47h5v7h-5z" fill="url(#c)" transform="scale(-1)"/><path d="m10 40h28v7.000001h-28z" fill="url(#d)"/></g><rect fill="url(#f)" height="26" rx="2.5" width="26" x="3" y="3"/><rect fill="none" height="27" rx="3" stroke="url(#g)" stroke-linejoin="round" stroke-width=".999922" width="27" x="2.5" y="2.5"/><rect fill="none" height="25.000002" rx="2" stroke="url(#e)" stroke-linecap="round" stroke-linejoin="round" stroke-width=".999998" width="25" x="3.5" y="3.5"/><path d="m1.059 8.976195a8.2909995 5.5238047 0 1 1 16.581999 0 8.2909995 5.5238047 0 0 1 -16.581999 0z" fill="url(#i)" fill-rule="evenodd" opacity=".141" transform="matrix(.84428904 0 0 1.4482771 10.105898 -1.000018)"/><path d="m25.749973 11.207439h-.0052c0 .216576-.08604.396568-.224388.526193-.0099.0089-.01939.01922-.02871.02866l-7.028567 7.795328c-.121538.121233-.286021.192762-.467039.192762-.179725 0-.335132-.07153-.464432-.192764l-7.02844-7.795329c-.0093-.0095-.01887-.01977-.0287-.02866-.138351-.129624-.224389-.309616-.224389-.526193 0-.402405.287875-.706829.675774-.706829h3.890472c.362037.000252.683538-.313586.683538-.702431v-8.6352837c.000005-.38124166.267887-.6628923.64975-.6628923h3.681021c.381863 0 .669341.28165064.669341.6628923v8.7004094c.03341.3569513.320648.6375443.661332.6373073h3.920691c.387898 0 .667946.304424.667946.70683z" fill="url(#j)" stroke="#206b00" stroke-linecap="round" stroke-linejoin="round" stroke-opacity=".5"/><path d="m15 11.500156-3.385-.000002 6.385 7.074846 6.375-7.074844h-3.375" fill="none" opacity=".6" stroke="url(#k)" stroke-linejoin="round"/><path d="m21 11.500661c-.875611 0-1.499791-.908775-1.5-1.5620825v-8.4385785h-3v8.2318065c0 1.1487685-.870013 1.7688545-1.5 1.7688545" fill="none" opacity=".6" stroke="url(#l)"/><g transform="translate(-16.997973 -8.8368)"><path d="m33.154815 30.450743c0 2.66668-17.090534 2.729347-17.090534.06267 0-2.66668 17.090534-2.729347 17.090534-.06267z" fill="url(#m)" opacity=".163" stroke-width=".523973"/><path d="m24.107-6.478 16.9 14.43-16.917 14.421z" fill="url(#n)" transform="matrix(.66667 0 0 .66667 3.488 15.18)"/><g fill="none"><path d="m19.498 10.835 11.328 9.645-11.337 9.637z" opacity=".5" stroke="#206b00" stroke-width="1.00001"/><path d="m25.517872 8.7299564v-11.9999401l13.123855 11.2499438-13.123855 11.2499439z" opacity=".6" stroke="url(#o)" stroke-width="1.5" transform="matrix(.66667 0 0 .66667 3.488 15.18)"/></g></g></g></svg>