<svg viewBox="0 0 32 32" xmlns="http://www.w3.org/2000/svg" xmlns:xlink="http://www.w3.org/1999/xlink"><linearGradient id="a" gradientTransform="translate(-25.830508 -3.59322)" gradientUnits="userSpaceOnUse" x1="14" x2="13.79661" y1="22" y2="2.135593"><stop offset="0" stop-color="#0040dd"/><stop offset="1" stop-color="#0a84ff"/></linearGradient><linearGradient id="b" gradientUnits="userSpaceOnUse" x1="4.220518" x2="4.728189" xlink:href="#a" y1="16.583836" y2="7.918586"/><linearGradient id="c" gradientTransform="matrix(1.2992282 -.73035674 .75010978 1.265015 -5.67333 9.456668)" gradientUnits="userSpaceOnUse" x1="11.373043" x2="13.375103" xlink:href="#a" y1="9.467584" y2="6.949374"/><g transform="matrix(1.3331382 0 0 1.3691939 .002855 .254072)"><path d="m11.307716 20.638247 9.438078-5.638247-5.708126-10.3752563-9.9336041 5.8220523z" fill="#fff" fill-rule="evenodd"/><path d="m9 8h-5c-1 0-1 .217546-1 2.276478v5.723522c0 1 2 1 2 0v-6z" fill="url(#b)" fill-rule="evenodd"/><g fill="none" stroke="#808080"><path d="m6.9588754 12.922616 9.2746616-5.366267 1.417329 2.39024-9.2746627 5.366266z" fill="url(#c)" fill-rule="evenodd" stroke="none"/><ellipse cx="4.962672" cy="16.187546" fill="#fff" rx="1.752345" ry="1.741017" stroke="#69696e" stroke-linecap="round" stroke-width=".740182" transform="matrix(.86821741 -.49618397 .50382625 .86380502 0 0)"/><path d="m5.1040639 10.446796 5.3390121 9.387521c.410089.65506 1.069393.906864 1.704955.572463l7.748423-4.541322c.589382-.407352.86271-1.172428.486324-1.842477l-5.34511-9.3982373z" stroke="#98989d" stroke-width=".896453"/><path d="m12.37467 9.6742529v-5.2263907c0-2.8972803 5.250768-2.6079462 5.250768.320694v3.5718288" stroke="#69696e" stroke-linecap="round" stroke-width=".740167"/></g></g></svg>