<svg viewBox="0 0 32 32" xmlns="http://www.w3.org/2000/svg" xmlns:xlink="http://www.w3.org/1999/xlink"><linearGradient id="a" gradientUnits="userSpaceOnUse" x1="-6" x2="-6" y1="10" y2="4"><stop offset="0" stop-color="#0040dd"/><stop offset="1" stop-color="#0a84ff"/></linearGradient><path d="m13.292347 28.737891c-.088591-.434093-.159463-.815031-.212617-1.142816-.044293-.336643-.07087-.673287-.07973-1.00993-.487247.691005-1.848662 1.254322-2.637116 1.723851-.7795952.46067-1.6212035.691005-2.5248249.691005-1.4971767 0-2.8557195-.380938-3.6441735-1.142815-.7795949-.770736-1.1693924-1.829391-1.1693924-3.175964 0-1.37315.5536896-2.445093 1.6610688-3.215829 1.1162382-.779595 2.8424309-1.169392 4.7471231-1.169392l3.5673149.016949v-1.421875c0-.841608-.256912-1.506036-.770736-1.993283-.513824-.496105-1.96383-.761107-2.9028873-.761107-1.5698293.032164-2.3500037.861742-2.8263767 1.863315h-2.4982485l-.026577-.07973c.4586072-2.679095 3.218167-3.820232 5.4973753-3.84331 1.6300622 0 3.0610482.440344 4.0532602 1.273094.992211.82389 1.488317 2.01543 1.488317 3.57462v6.923335c0 .513824.02658 1.009929.07973 1.488317s.150603.947917.292349 1.408587zm-5.068921-1.930501c.9479166 0 1.802813-.243623 2.56469-.73087s1.981548-1.028417 2.211883-1.657408v-2.338785l-3.6603348-.01695c-1.0542136-.0049-2.6672937.241801-3.3051441.773343-.6289914.531542-.9434871 1.156104-.9434871 1.873686 0 .63785.1993283 1.142815.5979848 1.514894.3986565.37208 1.7548133.582089 2.5344082.582089z" fill="#4b4b4f"/><path d="m29.000001 22.076667c0 2.073013-.500535 3.74737-1.501606 5.023071-.992212 1.266842-2.360933 1.900263-4.106162 1.900263-.947917 0-1.771807-.18161-2.47167-.54483-.699864-.37208-1.619356-.907714-2.080025-1.625295l-.318926 1.900263h-1.521612v-20.730139h2v8.052862c.451811-.637851 1.349155-1.134295 2.013583-1.470938.673286-.336643 1.45731-.504965 2.352073-.504965 1.771807 0 3.153816.708723 4.146028 2.126168.992211 1.417445 1.488317 3.282272 1.488317 5.59448zm-1.973776-.27906c0-1.64778-.305637-2.989924-.91691-4.026431-.602415-1.045366-2.167822-1.568049-3.408087-1.568049-.806172 0-1.488317.199328-2.046436.597985-.54926.389797-1.327007.926107-1.654792 1.590535v6.23233c.336643.708722 1.114391 1.253215 1.654792 1.651871.54926.398657 1.240265.597985 2.073014.597985 1.231405 0 2.792383-.438522 3.394797-1.315566.602415-.877045.903622-2.037578.903622-3.4816z" fill="#4b4b4f"/><path d="m19 2.9921875a1.0081374 1.0081374 0 0 0 -.712891 1.7207031l5 5.0000004a1.0081374 1.0081374 0 0 0 1.425782 0l5-5.0000004a1.0081374 1.0081374 0 0 0 -.712891-1.7207031z" fill="url(#a)"/></svg>