<svg viewBox="0 0 32 32" xmlns="http://www.w3.org/2000/svg" xmlns:xlink="http://www.w3.org/1999/xlink"><linearGradient id="a" gradientUnits="userSpaceOnUse" x1="11" x2="11" y1="18" y2="4"><stop offset="0" stop-color="#e9e9e9"/><stop offset=".2857143" stop-color="#f2f2f2"/><stop offset="1" stop-color="#fbfbfb"/></linearGradient><linearGradient id="b" gradientUnits="userSpaceOnUse" x1="15" x2="15" y1="5" y2="27"><stop offset="0" stop-color="#fff"/><stop offset="1" stop-color="#fff" stop-opacity="0"/></linearGradient><rect fill="#98989d" height="26" rx="2.5" ry="2.499143" width="26" x="3" y="3"/><rect fill="url(#a)" height="24" rx="1.5" ry="1.414397" width="24" x="4" y="4"/><path d="m23.071408 9.0009023a.9696394.9696394 0 0 0 -.81836.384766l-8.736328 11.2460927-3.9082025-3.353515a.9696394.9696394 0 1 0 -1.2617187 1.472656l4.6796872 4.015625a.9696394.9696394 0 0 0 1.396484-.140625l9.361328-12.050781a.9696394.9696394 0 0 0 -.71289-1.5742187z" fill="#69696e" fill-rule="evenodd"/><rect fill="none" height="23" rx="1" stroke="url(#b)" width="23" x="4.5" y="4.5"/></svg>