<svg viewBox="0 0 32 32" xmlns="http://www.w3.org/2000/svg" xmlns:xlink="http://www.w3.org/1999/xlink"><linearGradient id="a" gradientTransform="matrix(-1 0 0 1 -10.454832 13.804753)" gradientUnits="userSpaceOnUse" x1="13" x2="13" y1="7" y2="1"><stop offset="0" stop-color="#0040dd"/><stop offset="1" stop-color="#0a84ff"/></linearGradient><linearGradient id="b" gradientUnits="userSpaceOnUse" x1="12.355932" x2="12.677966" xlink:href="#a" y1="26.940678" y2="6.601695"/><linearGradient id="c" gradientUnits="userSpaceOnUse" x1="26.79661" x2="26.61017" xlink:href="#a" y1="29.618645" y2="22.70339"/><path d="m3 6v1h13v19.5c.000028.276131.223869.499972.5.5h11.5v-1h-11v-19.5c-.000028-.2761309-.223869-.4999724-.5-.5z" fill="url(#b)"/><path d="m30 26.5a3.5 3.5 0 0 1 -3.5 3.5 3.5 3.5 0 0 1 -3.5-3.5 3.5 3.5 0 0 1 3.5-3.5 3.5 3.5 0 0 1 3.5 3.5z" fill="url(#c)"/></svg>