<svg viewBox="0 0 32 32" xmlns="http://www.w3.org/2000/svg" xmlns:xlink="http://www.w3.org/1999/xlink"><filter id="a" color-interpolation-filters="sRGB" height="1.0744" width="1.0744" x="-.0372" y="-.0372"><feGaussianBlur stdDeviation=".403"/></filter><clipPath id="b"><path d="m16 3a13 5.8499298 0 0 0 -.949219.017578c-.05132.00185-.101184.00567-.152343.00781a13 5.8499298 0 0 0 -11.898438 5.8242214 13 5.8499298 0 0 0 .0292969.3671875c-.0081676.0946727-.0293043.187501-.0292969.2832031v13c0 3.589744 5.8202982 6.5 13 6.5 7.179701 0 13-2.910256 13-6.5v-13c.000009-.1154539-.0213-.2277928-.0332-.3417969a13 5.8499298 0 0 0 .0332-.3085937 13 5.8499298 0 0 0 -11.275391-5.7910156 13 5.8499298 0 0 0 -.04297-.00391c-.01091-.000705-.02229-.00126-.0332-.00195a13 5.8499298 0 0 0 -.896485-.035156c-.124392-.00359-.245764-.013788-.371094-.015625-.06588-.0009654-.129641.00243-.195312.00195a13 5.8499298 0 0 0 -.185548-.0039028z"/></clipPath><radialGradient id="c" cx="24.803049" cy="16.542116" gradientTransform="matrix(1.5599999 -.00000013 .00000016 1.7113709 -9.692757 -7.109599)" gradientUnits="userSpaceOnUse" r="10"><stop offset="0" stop-color="#51cdfb"/><stop offset="1" stop-color="#0078f6"/></radialGradient><path d="m16.38086 3.0028493c-7.3259651-.1073591-13.3811431 2.8328716-13.38086 6.4973835v12.9998452c0 3.589744 5.8202982 6.499922 13 6.499922 7.179701 0 13-2.910178 13-6.499922v-12.9998452c.000272-3.5157521-5.590571-6.3943831-12.61914-6.4973835z" fill="url(#c)" opacity=".986928"/><ellipse cx="16" cy="9.002088" fill="#0078f6" rx="13" ry="6.001777" stroke-width="1.012895"/><path clip-path="url(#b)" d="m16 3a13 5.8499298 0 0 0 -.949219.0175781c-.051322.0018456-.101184.0056686-.152343.0078125a13 5.8499298 0 0 0 -11.898438 5.8242188 13 5.8499298 0 0 0 .0292969.3671875c-.0081676.0946727-.0293043.187501-.0292969.2832031v13c0 3.589744 5.8202982 6.5 13 6.5 7.179701 0 13-2.910256 13-6.5v-13c.000009-.1154539-.0213-.2277928-.033203-.3417969a13 5.8499298 0 0 0 .033203-.3085937 13 5.8499298 0 0 0 -11.275391-5.7910156 13 5.8499298 0 0 0 -.042968-.0039063c-.010909-.000705-.022286-.0012616-.033203-.0019531a13 5.8499298 0 0 0 -.896485-.0351563c-.124392-.0035896-.245764-.0137883-.371094-.015625-.065879-.0009654-.129641.0024274-.195312.0019531a13 5.8499298 0 0 0 -.185547-.0039062z" fill="none" filter="url(#a)" stroke="#004792"/><path d="m28.990234 9.0976562a13 6.0017772 0 0 1 -12.990234 5.9062498 13 6.0017772 0 0 1 -12.9902344-5.8691404 13 6.2361522 0 0 0 -.0097656.1015625 13 6.2361522 0 0 0 13 6.2363279 13 6.2361522 0 0 0 13-6.2363279 13 6.2361522 0 0 0 -.009766-.1386719z" fill="#ffc5ff" stroke-width="1.032483"/></svg>