<svg viewBox="0 0 32 32" xmlns="http://www.w3.org/2000/svg" xmlns:xlink="http://www.w3.org/1999/xlink"><linearGradient id="a" gradientUnits="userSpaceOnUse" x1="15" x2="15" y1="3" y2="9"><stop offset="0" stop-color="#c8c8cb"/><stop offset="1" stop-color="#98989d"/></linearGradient><linearGradient id="b" gradientUnits="userSpaceOnUse" x1="32" x2="32" y1="-9" y2="16"><stop offset="0" stop-color="#848489"/><stop offset="1" stop-color="#616165"/></linearGradient><linearGradient id="c" gradientUnits="userSpaceOnUse" x1="15" x2="15" y1="4" y2="28"><stop offset="0" stop-color="#efefef"/><stop offset=".33333334" stop-color="#fff"/><stop offset=".8888889" stop-color="#fff"/><stop offset="1" stop-color="#f5f5f5"/></linearGradient><filter id="d" color-interpolation-filters="sRGB" height="1.116265" width="1.123983" x="-.061992" y="-.058132"><feGaussianBlur stdDeviation=".61991525"/></filter><path d="m4 4h24v25.59322h-24z" filter="url(#d)" opacity=".15" stroke-width="1.032659"/><path d="m4 4h24v24h-24z" fill="url(#c)"/><path d="m3 4 1-1h24l1 1v5h-26z" fill="url(#a)"/><path d="m9 9v4h-5v1h5v4h-5v1h5v4h-5v1h5v4h1v-4h5v4h1v-4h5v4h1v-4h6v-1h-6v-4h6v-1h-6v-4h6v-1h-6v-4h-1v4h-5v-4h-1v4h-5v-4zm1 5h5v4h-5zm6 0h5v4h-5zm-6 5h5v4h-5zm6 0h5v4h-5z" fill="#bababa"/><path d="m4 3c-.554 0-1 .446-1 1v5 19c0 .554.446 1 1 1h24c.554 0 1-.446 1-1v-19-5c0-.554-.446-1-1-1zm0 1h5v4h-5zm6 0h5v4h-5zm6 0h5v4h-5zm6 0h6v4h-6zm-18 5h5 1 5 1 5 1 6v4 1 4 1 4 1 4h-6-1-5-1-5-1-5v-4-1-4-1-4-1z" fill="url(#b)"/><circle cx="6.500172" cy="6.500172" fill="#2a9240" r="5.500173"/><circle cx="6.500172" cy="6.500172" fill="#32d74b" r="4.502967"/><g fill="#fff"><rect height="7" rx=".500001" ry=".611648" width="1" x="6" y="3"/><rect height="1" rx=".611648" ry=".431872" width="7" x="3" y="6"/></g></svg>