<svg viewBox="0 0 32 32" xmlns="http://www.w3.org/2000/svg" xmlns:xlink="http://www.w3.org/1999/xlink"><linearGradient id="a" gradientTransform="matrix(.70710679 .70710677 -.70710677 .70710679 -36 6)" gradientUnits="userSpaceOnUse" x1="25.382681" x2="17.496641" y1="2.44407" y2="-5.874086"><stop offset="0" stop-color="#0040dd"/><stop offset="1" stop-color="#0a84ff"/></linearGradient><linearGradient id="b" gradientUnits="userSpaceOnUse" x1="24" x2="24" xlink:href="#a" y1="24" y2="16"/><linearGradient id="c" gradientUnits="userSpaceOnUse" x1="12" x2="12" xlink:href="#a" y1="11" y2="2"/><path d="m4 11v17h7v-17z" fill="#fff"/><path d="m3 11v17c0 .554.446 1 1 1h8v-1-5-1-5-1-5h-1v5h-7v-5zm1 6h7v5h-7zm0 6h7v5h-7z" fill="#98989d"/><path d="m4 4v6h24v-6z" fill="#0a84ff"/><path d="m4 3c-.554 0-1 .446-1 1v7h1 7 1 17v-7c0-.554-.446-1-1-1zm0 1h7v6h-7zm8 0h8v6h-8zm9 0h7v6h-7z" fill="url(#c)"/><path d="m20.513641 15.000039c-.282697-.0039-.513491.281395-.513641.634749v8.73025c.000364.434941.342414.740751.671834.600571l8.985781-3.810939c.436842-.188435.46197-.948776.03905-1.181612l-8.983823-4.919309c-.06283-.03454-.130575-.05281-.199206-.05371z" fill="url(#b)"/><rect fill="#98989d" height="16" ry="1" width="2" x="17" y="14.999999"/></svg>