<svg viewBox="0 0 32 32" xmlns="http://www.w3.org/2000/svg" xmlns:xlink="http://www.w3.org/1999/xlink"><filter id="a" color-interpolation-filters="sRGB" height="1.094553" width="1.097492" x="-.048746" y="-.047277"><feGaussianBlur stdDeviation=".36559322"/></filter><linearGradient id="b" gradientUnits="userSpaceOnUse" x1="23.611652" x2="23.692648" y1="31.033819" y2="18.238295"><stop offset="0" stop-color="#d70015"/><stop offset="1" stop-color="#ff453a"/></linearGradient><linearGradient id="c" gradientTransform="translate(5 2)" gradientUnits="userSpaceOnUse" x1="10" x2="11" xlink:href="#d" y1="26" y2="2"/><linearGradient id="d" gradientTransform="translate(-25.830508 -3.59322)" gradientUnits="userSpaceOnUse" x1="14" x2="13.79661" y1="22" y2="2.135593"><stop offset="0" stop-color="#0040dd"/><stop offset="1" stop-color="#0a84ff"/></linearGradient><linearGradient id="e" gradientUnits="userSpaceOnUse" x1="11.5" x2="11.5" y1="19" y2="25"><stop offset="0" stop-color="#fff"/><stop offset=".08333334" stop-color="#fff" stop-opacity=".055147"/><stop offset="1" stop-color="#fff" stop-opacity=".247059"/><stop offset="1" stop-color="#fff" stop-opacity=".481618"/></linearGradient><linearGradient id="f" gradientTransform="translate(0 8)" gradientUnits="userSpaceOnUse" x1="11.033642" x2="11.240539" xlink:href="#d" y1="12.089852" y2="7.919121"/><radialGradient id="g" cx="22" cy="9.076923" gradientTransform="matrix(1.3 .00000001 -.00000002 1.5 -6.6 -6.615385)" gradientUnits="userSpaceOnUse" r="10"><stop offset="0" stop-color="#d7d7d7"/><stop offset=".29999998" stop-color="#f7f7f7"/><stop offset="1" stop-color="#fff"/></radialGradient><linearGradient id="h" gradientUnits="userSpaceOnUse" x1="20" x2="23" y1="9" y2="6"><stop offset="0" stop-color="#fff"/><stop offset=".77967989" stop-color="#f1f1f1"/><stop offset="1" stop-color="#d5d5d5"/></linearGradient><path d="m8 27.940678h20v2.559322h-20z" filter="url(#a)" opacity=".15" stroke-width="1.015418"/><g transform="translate(2.00238)"><path d="m6 3v26h19.99762l.00238-19-7-7z" fill="url(#g)"/><path d="m7 4v24h18v-20l-4-4zm1 1h13l3 3v19h-16z" fill="url(#c)"/><path d="m5.9976202 2c-.554 0-1 .446-1 1v26c0 .554.446 1 1 1h19.9999998c.554 0 .892483-.456533 1-1v-10.109375-10.5052752l-6.508082-6.3853498zm0 1h12.9999998v6c0 .6726441.491378 1 1 1h6v19h-19.9999998z" fill="#98989d"/><path d="m20 9h6l-6-6z" fill="url(#h)" fill-rule="evenodd"/></g><g transform="translate(1 1)"><path d="m8 24v5h8v-5z" fill="#fff" fill-rule="evenodd"/><path d="m7 24v5.142578c0 .474857.3825649.857422.8574219.857422h8.2851561c.474857 0 .857422-.382565.857422-.857422v-5.142578h-1v5h-8v-5z" fill="#98989d"/><path d="m3.5 17.5c-.554 0-1 .446-1 1v7c0 .554.446 1 1 1h17c.554 0 1-.446 1-1v-7c0-.554-.446-1-1-1h-1.5v2.5c0 .554-.446 1-1 1h-12c-.554 0-1-.446-1-1v-2.5z" fill="#8e8e93" stroke="#616165"/><rect fill="none" height="7" rx=".5" ry="1" stroke="url(#e)" stroke-opacity=".658088" width="17" x="3.5" y="18.5"/><rect fill="url(#f)" height="4.29661" ry="1" width="12" x="6" y="16"/><path d="m7.8574219 12c-.474857 0-.8574219.382565-.8574219.857422v5.142578h1v-5h8v5h1v-5.142578c0-.474857-.382565-.857422-.857422-.857422z" fill="#98989d"/><g fill="#fff" transform="translate(0 8)"><path d="m8 5v5h8v-5z" fill-rule="evenodd"/><path d="m18 16h2v1h-2z"/></g></g><path d="m18.90625 15.998047a1.0057153 1.0057153 0 0 0 -.675781.294922l-1.589844 1.589843a1.0057153 1.0057153 0 0 0 -.263672.460938c.048899-.190883-.037927-.071503-.179687.355469-.07088.213486-.105954.557621-.003907.865234.102048.307613.294498.535596.498047.712891a1.0057153 1.0057153 0 0 0 .472656.230468c.150922.028531.879253.485582 1.728516 1.257813.583474.53055 1.388321 1.22262 2.158203 1.884766-1.941425 1.407937-3.677076 2.588667-4.910156 4.976562a1.0057153 1.0057153 0 0 0 -.111328.388672c-.042591.58555.285749 1.045381.578125 1.304687.292376.259307.599449.410876.902344.527344.021639.008321.042904.011637.064453.019532.250065-.149496.425781-.411033.425781-.72461v-.142578h2.25c1.181213-1.330604 2.017558-2.329148 3.875-3.738281 1.19243.981398 2.162517 2.270916 3.5625 3.738281h.3125c.554 0 .892483-.456533 1-1v-2.556641c-.57143-.993261-1.227851-1.913078-1.957031-2.753906.571128-.520929 1.239088-1.002601 1.957031-1.501953v-3.150391c-1.558107.734901-2.779225 1.472898-4.042969 2.234375-.234971-.227962-.471713-.474597-1.123047-1.179687-.85408-.924571-2.143176-2.210022-4.271484-3.878906a1.0057153 1.0057153 0 0 0 -.65625-.214844z" fill="#fff" fill-opacity=".784314"/><path d="m18.940785 17.003432-1.59013 1.59013c-.07515.29336-.459586.52486 0 .925167 1.238728.234175 2.912176 2.375946 5.291378 4.192161-2.44531 1.861747-4.288584 2.819724-5.609405 5.377531-.05216.717109 1.66818 1.163142 1.850333.925166 1.758752-1.922076 2.260329-2.954213 5.272268-5.087436 1.865061 1.240636 2.865565 3.019361 4.644363 4.798323l.954078 1.272103c-.729192-3.016179-2.153809-5.550261-4.077404-7.473857 1.398474-1.585208 3.435655-2.541906 5.292266-3.97508l-.180408-.204925c-2.519258 1.034536-4.156295 2.034059-6.005664 3.152913-.886935-.541917-1.668428-2.219799-5.841675-5.492196z" fill="url(#b)"/></svg>