<svg viewBox="0 0 32 32" xmlns="http://www.w3.org/2000/svg" xmlns:xlink="http://www.w3.org/1999/xlink"><linearGradient id="a" gradientTransform="matrix(1.3331382 0 0 1.3691939 1.002855 1.031611)" gradientUnits="userSpaceOnUse" x1="4.220518" x2="4.728189" xlink:href="#b" y1="16.583836" y2="7.918586"/><linearGradient id="b"><stop offset="0" stop-color="#0040dd"/><stop offset="1" stop-color="#0a84ff"/></linearGradient><linearGradient id="c" gradientTransform="matrix(1.7320507 -.99999999 1 1.7320508 -6.560478 14.195351)" gradientUnits="userSpaceOnUse" x1="11.373043" x2="13.375103" xlink:href="#b" y1="9.467584" y2="6.949374"/><g fill="#69696e" transform="matrix(0 -1 -1 0 0 0)"><path d="m-29.593145-5h25.18629c.2253977 0 .406855.1814573.406855.406855v.18629c0 .2253977-.1814573.406855-.406855.406855h-25.18629c-.225398 0-.406855-.1814573-.406855-.406855v-.18629c0-.2253977.181457-.406855.406855-.406855z"/><path d="m-27.5-29c.277 0 .5.223.5.5v26c0 .277-.223.5-.5.5s-.5-.223-.5-.5v-26c0-.277.223-.5.5-.5z"/></g><path d="m6.830508 5h19.338984c.460101 0 .830508.3704066.830508.830508v19.338984c0 .460101-.370407.830508-.830508.830508h-19.338984c-.4601014 0-.830508-.370407-.830508-.830508v-19.338984c0-.4601014.3704066-.830508.830508-.830508z" fill="#409cff"/><path d="m18.998047 5v1.2070312l-3.142578 1.7910157-2.791016.0078125c-.303537.0007976-.601499-.0030898-.974609.140625-.373111.1437148-.746989.5356648-.888672.8984375-.283367.7255454-.201172 1.3274621-.201172 2.4550781v4.697266c0 .578302.344536 1.158277.777344 1.43164.432808.273364.890297.329523 1.320312.28711.430015-.042414.855782-.189099 1.228516-.498047.372734-.308949.673828-.839666.673828-1.417969v-.955078l.697266 1.207031a1.0005882 1.0005882 0 0 0 .001953.003906c.078199.134416.261034.142637.376953.246094l1.96289 3.587891c.169588.310679.452495.5594.783204.685547a1.0005882 1.0005882 0 0 0 .001953 0l.6875.261718a1.0005882 1.0005882 0 0 0 .142578.039063 1.0005882 1.0005882 0 0 0 .001953 0 1.0005882 1.0005882 0 0 0 .003906.003906 1.0005882 1.0005882 0 0 0 .144532.06836l.642578.246093c.418535.160317.909944.12074 1.296875-.105469a1.0005882 1.0005882 0 0 0 .001953 0l5.253906-3.089843v-12.3691409c0-.4601014-.369977-.8300781-.830078-.8300781z" fill="#fff" fill-opacity=".784314" fill-rule="evenodd" stroke-width="1.080837"/><g transform="matrix(.8 0 0 .8 7.6 -.594613)"><g fill-rule="evenodd" stroke-width="1.351046"><path d="m16.729823 25.733745 9.109804-5.355.625-1.875-6.670369-10.9996446-11.1692579 6.3641656 6.0721329 11.089882z" fill="#fff"/><path d="m13.001099 11.985162-6.1679607.01616c-1.3331336.0035-1.3331382.297863-1.3331382 3.11694v5.87145c.0000001 1.369194 2.5 1.122746 2.5-.24645v-6.25z" fill="url(#a)"/><path d="m9.8605061 16.845566 11.8894939-7.0498491 1.855596 3.3998201-11.855596 6.922729z" fill="url(#c)"/></g><g stroke-width="1.25"><path d="m8.6250001 13.868266 6.1962189 10.715212c.497851.816754 1.29825 1.130713 2.069826.713769l8.516435-4.7673c.715513-.507903 1.047335-1.46183.590401-2.297274l-6.203623-10.7285726z" fill="none" stroke="#98989d"/><g stroke="#69696e" stroke-linecap="round"><path d="m16.125 13.868266v-7.1559425c0-4.0453416 6.25-3.6646504 6.25.3904162v4.8905263" fill="none"/><circle cx="17.0625" cy="14.805766" fill="#fff" r="2.1875" stroke-linejoin="round"/></g></g></g></svg>