<svg viewBox="0 0 32 32" xmlns="http://www.w3.org/2000/svg" xmlns:xlink="http://www.w3.org/1999/xlink"><filter id="a" color-interpolation-filters="sRGB" height="1.116308" width="1.189" x="-.0945" y="-.058154"><feGaussianBlur stdDeviation=".63"/></filter><path d="m8.5 3c-.277 0-.5.223-.5.5v4 6 4 11c0 .277.223.5.5.5h5c.277 0 .5-.223.5-.5v-10.5h6.5c.277 0 .5-.223.5-.5v-4c0-.277-.223-.5-.5-.5h-6.5v-5h9.5c.277 0 .5-.223.5-.5v-4c0-.277-.223-.5-.5-.5h-10z" fill="#0040dd" filter="url(#a)"/><path d="m9 4v24h4v-11h7v-3h-7v-7h10v-3h-10z" fill="#fff"/></svg>