<svg height="32" viewBox="0 0 32 32" width="32" xmlns="http://www.w3.org/2000/svg" xmlns:xlink="http://www.w3.org/1999/xlink"><linearGradient id="a" gradientUnits="userSpaceOnUse" x1="54" x2="54" y1="35" y2="21"><stop offset="0" stop-color="#0040dd"/><stop offset="1" stop-color="#0a84ff"/></linearGradient><path d="m6.2929688 5.5-1.7929688.5v1.5l8 10.5v2.085938 7.171874l.572266.408203 2.927734 1.333985 2.927734-.947266.572266-.794922v-7.171874-2.085938l8-10.5v-1.5l-1.792969-.5h-.414062-18.5859378z" fill="#848489" fill-rule="evenodd"/><path d="m6.2929688 5c-.1326.0000254-.2597597.052716-.3535157.1464844l-1.7929687.5c-.0937681.0937559-.1464589.2209161-.1464844.3535156v1.5c-.000141.1092992.035533.2156344.1015625.3027344l7.8984375 10.3652346v1.417969 7.671874c.000116.161184.07792.699148.208984.792969l2.931641.949219h1.71875l2.931641-.949219c.131064-.093821.208868-.631785.208984-.792969v-7.671874-1.417969l7.898438-10.3652346c.06603-.0871001.101703-.1934353.101562-.3027344v-1.5c-.000025-.1325995-.05272-.2597597-.146484-.3535156l-1.792969-.5c-.093756-.0937682-.220916-.146459-.353516-.1464844h-.414062-18.5859378zm.6210937 1h18.1718755l1.914062.2070312v1.125l-7.898438 10.3652348c-.066031.0871-.101703.193435-.101562.302734v2.585938 6.414062l-3 1-3-1v-6.414062-2.585938c.000141-.109299-.03553-.215634-.101562-.302734l-7.898438-10.3652348v-1.125z" fill="#69696e" fill-rule="evenodd"/><ellipse cx="16" cy="5.815033" fill="#cdcdd0" rx="11.5" ry="2.315033" stroke="#69696e" stroke-linecap="round" stroke-linejoin="round" stroke-width="1.002306"/><path d="m20.398438 17.646484c-1.851815.917078-3.184623 2.753956-3.355469 4.896485l-1.939453 5.826172a1.0001305 1.0001305 0 0 0 0 .001953c-.065271.197644-.091907.394168-.091797.58789l.128906.041016h1.71875l2.931641-.949219c.131064-.093821.208868-.631783.208984-.792969v-1.933593c-.119601-.171276-.325177-.464751-.173828-.234375.048837.074337-.031829-.050646-.046875-.082032-.04818-.110673-.11864-.261702-.210938-.455078-.094498-.229667-.173233-.413735-.230468-.539062.24224.87972-.242888-1.076276-.044922-.185547.191554.861879-.150629-.875617-.035157-.179687a1.0001305 1.0001305 0 0 1 -.001953-.00586c.121543.668827-.140361-1.028969-.023437-.154297.121489.908821-.100253-1.073326-.017578-.160156.082674.91317-.055429-1.077972-.011719-.162109.04371.915862-.008572-1.07705-.003906-.160157v-.005859c-.000173.418693.052414-.749105.015625-.332031-.036789.417073.116092-.742337.042968-.330078-.073123.412258.181164-.728503.072266-.324219-.108897.404284.243446-.711571.09961-.31836-.143837.393212.30658-.685765.128906-.30664s.364446-.657056.154297-.294922c-.191289.329632.253548-.368452.164062-.253906.031313-.033218.077758-.084945.123047-.134766v-1.11914-1.417969zm-.951172 6.701172c.004328.010307.006568.015265.011718.027344h-.001953c.05019.129895-.020087-.048803-.009765-.027344z" fill="#f9f9f9" fill-opacity=".784314"/><path d="m28.991232 15.99978c-.10416.0013-.207496.01879-.306251.05195l-5.919936 1.971489c-2.516616.126924-4.614496 2.224797-4.741417 4.741417l-1.971489 5.919937c-.257633.780132.483152 1.520917 1.263284 1.263284l5.919937-1.971489c2.516616-.126924 4.614496-2.224797 4.741417-4.741417l1.971489-5.919936c.216004-.650535-.271595-1.320635-.957034-1.315235zm-5.99103 4.20001a2.8000065 2.8000065 0 0 1 2.007037.850392 2.8000065 2.8000065 0 0 1 .185937.207813 2.8000065 2.8000065 0 0 1 .607033 1.741801 2.8000065 2.8000065 0 0 1 -2.800007 2.800007 2.8000065 2.8000065 0 0 1 -.555078-.05468 2.8000065 2.8000065 0 0 1 -.0028 0 2.8000065 2.8000065 0 0 1 -1.938612-1.47657 2.8000065 2.8000065 0 0 1 -.112112-.254298 2.8000065 2.8000065 0 0 1 -.150388-.538672 2.8000065 2.8000065 0 0 1 -.04102-.475783 2.8000065 2.8000065 0 0 1 .658986-1.804691 2.8000065 2.8000065 0 0 1 .191407-.205079 2.8000065 2.8000065 0 0 1 1.949613-.790236z" fill="url(#a)"/></svg>