<svg height="32" viewBox="0 0 32 32" width="32" xmlns="http://www.w3.org/2000/svg" xmlns:xlink="http://www.w3.org/1999/xlink"><filter id="a" color-interpolation-filters="sRGB" height="1.048" width="1.048" x="-.024" y="-.024"><feGaussianBlur stdDeviation=".24"/></filter><path d="m4.5 4.5v25h25v-25z" fill-opacity=".079681" filter="url(#a)"/><path d="m4 4h24v24h-24z" fill="#fff"/><path d="m11 4v4 1h-1-6v1h6 1v5h-1-6v1h6 1v1 4h-7v1h7v6h1v-6h8v6h1v-6h7v-1h-7v-4-1h1 6v-1h-6-1v-5h1 6v-1h-6-1v-1-4h-1v4 1h-8v-1-4zm1 6h8v5h-8zm0 6h8v1 4h-8v-4z" fill="#bababa"/><path d="m3 3v26h26v-26zm1 1h7 1 8 1 7v5 1 5 1 5 1 6h-7-1-8-1-7v-6-1-5-1-5-1z" fill="#69696e"/><path d="m3 3v6 1 6 6 7h9v-8-4-5-2-1.6132812-4.3867188-1h-1zm1 1h6.140625l-6.140625 4.3867188zm7 .6132812v3.3867188 1h-1-5.140625zm-7 5.3867188h6l-6 4.386719zm7 .5v4.5h-1-5.140625zm-7 5.5h6l-6 4.386719zm7 .5v.5 4h-6.140625zm-7 5.5h6.232422l-6.232422 5.341797zm7 .658203v5.341797h-6.2324219z" fill="#ff9500"/></svg>