<svg height="32" viewBox="0 0 32 32" width="32" xmlns="http://www.w3.org/2000/svg" xmlns:xlink="http://www.w3.org/1999/xlink"><filter id="a" color-interpolation-filters="sRGB" height="1.094553" width="1.097492" x="-.048746" y="-.047277"><feGaussianBlur stdDeviation=".36559322"/></filter><clipPath id="b"><path d="m3.7499794 14.000011c.4875945 0 6-4 6-4l1.9999996 1.593356 2.500027-1.593349h2l4 2v2z"/></clipPath><radialGradient id="c" cx="12" cy="17.5" gradientTransform="matrix(1.6296381 -.00000002 .00000003 1.2222285 -7.555615 3.236065)" gradientUnits="userSpaceOnUse" r="9"><stop offset="0" stop-color="#fff9ea"/><stop offset=".29417419" stop-color="#fdd6ba"/><stop offset=".75" stop-color="#f6ac8b"/><stop offset="1" stop-color="#c79fc7"/></radialGradient><filter id="d" color-interpolation-filters="sRGB" height="1.264" width="1.058667" x="-.029333" y="-.132"><feGaussianBlur stdDeviation=".22"/></filter><radialGradient id="e" cx="15.000001" cy="13.642857" gradientTransform="matrix(1.5942051 .00000041 -.00000015 .77777777 -9.402194 14.388883)" gradientUnits="userSpaceOnUse" r="9"><stop offset="0" stop-color="#f7f2f6"/><stop offset=".40000007" stop-color="#c2a2ba"/><stop offset=".75000006" stop-color="#be9bb4"/><stop offset="1" stop-color="#ac80a1"/></radialGradient><path d="m4 27h24v2.5h-24z" filter="url(#a)" opacity=".15" stroke-width="1.015418"/><g transform="matrix(1.33333 0 0 1.33333 .00004 -11.333265)"><path d="m2.2499756 10.749976v19.500048h19.5000484v-19.500048z" fill="#98989d" stroke-width="1.014014"/><path d="m3.000022 11.499978h18l-.000022 17.500022h-18z" fill="#fff"/><path d="m2.9999325 11.499978.000023 18.125066h18.0000895l-.000023-18.125066zm.7500469.750001h16.5000416v16.125041h-16.5000411z" fill="#fff"/><path d="m3.7499794 12.249979h16.5000856l.000021 12.375085h-16.500086z" fill="url(#c)" stroke-width=".916671"/><path d="m3.7499944 24.250002c.4875945 0 6-4 6-4l1.9999996 1.593356 2.500027-1.593349h2l4 2v2z" fill="#1f1c1f" fill-rule="evenodd"/><path clip-path="url(#b)" d="m9.7499794 10.000011s-5.5124055 4-6 4h1.6992188c1.7852844-1.183321 4.3007812-3 4.3007812-3l1.9999996 1.59375 2.500027-1.593743h2l4 2v-1l-4-2h-2l-2.500027 1.593743z" fill="#808080" fill-rule="evenodd" filter="url(#d)" transform="translate(.000015 10.249991)"/><path d="m3.7499569 24.249998h16.5000641l.000022 4.500023h-16.5000646z" fill="url(#e)" stroke-width=".97802"/></g></svg>