<svg viewBox="0 0 32 32" xmlns="http://www.w3.org/2000/svg" xmlns:xlink="http://www.w3.org/1999/xlink"><filter id="a" color-interpolation-filters="sRGB" height="1.094553" width="1.097492" x="-.048746" y="-.047277"><feGaussianBlur stdDeviation=".36559322"/></filter><path d="m4 27h24v2.5h-24z" filter="url(#a)" opacity=".15" stroke-width="1.015418"/><rect fill="#f7f7f7" height="25" rx=".997793" stroke="#929292" stroke-linecap="square" stroke-linejoin="round" width="25" x="3.5" y="3.5"/><path d="m5 5h22v22h-22z" fill="#fff" stroke-width=".916667"/><circle cx="9.5" cy="9.5" fill="#ffe014" r="3.494369"/><circle cx="9.5" cy="9.5" fill="#fc0" r="2.5"/><circle cx="9.5" cy="9.5" fill="#f5c200" r="1.499714"/><g fill-rule="evenodd"><path d="m5 27c.4875945 0 7-8 7-8l2 1.593356 5-6.593356 8 4.5v8.5z" fill="#3ce155"/><path d="m5 27c.4875945 0 7-5.5 7-5.5l2 1.593356 5-6.593356 8 4.5v6z" fill="#1ec337"/><path d="m5 27c.4875945 0 7-3.5 7-3.5l2 1.593356 5-6.593356 8 4.5v4z" fill="#2a9240"/></g></svg>