<svg viewBox="0 0 32 32" xmlns="http://www.w3.org/2000/svg" xmlns:xlink="http://www.w3.org/1999/xlink"><filter id="a" color-interpolation-filters="sRGB" height="1.094553" width="1.097492" x="-.048746" y="-.047277"><feGaussianBlur stdDeviation=".36559322"/></filter><linearGradient id="b" gradientUnits="userSpaceOnUse" x1="15" x2="15" y1="-4" y2="24"><stop offset="0" stop-color="#d7d7d7"/><stop offset=".29999998" stop-color="#f7f7f7"/><stop offset="1" stop-color="#fff"/></linearGradient><path d="m5 27.940678h20v2.559322h-20z" filter="url(#a)" opacity=".15" stroke-width="1.015418"/><path d="m4.9980469 2c-.554 0-1 .446-1 1v26c0 .554.446 1 1 1h20.0000001c.554 0 .892483-.456533 1-1v-26c-.107517-.543467-.446-1-1-1zm0 1h.0019531 19.998047v26h-19.998047-.00195z" fill="#98989d"/><path d="m5 3v26h19.998047v-26z" fill="url(#b)"/><g transform="translate(12 3)"><path d="m14 10v6h1.5c.277 0 .5-.223.5-.5v-5c0-.277-.223-.5-.5-.5z" fill="#2a9240"/><path d="m14 3v6h1.5c.237967 0 .5-.223.5-.5v-5c0-.277-.223-.5-.5-.5z" fill="#0040dd"/><path d="m14 17v6h1.5c.277 0 .5-.223.5-.5v-5c0-.277-.223-.5-.5-.5z" fill="#d70015"/><path d="m14 4v4h1v-4z" fill="#148eff"/><path d="m14 11v4h1v-4z" fill="#3ce155"/><path d="m14 18v4h1v-4z" fill="#ff4f44"/></g><g fill="#0a84ff"><rect fill="#a2a2a7" height="4" ry=".961864" width="8" x="14" y="20"/><path d="m14 18c-1.104522 0-2 .895478-2 2v4c0 1.104597.895431 2 2 2h1v-1h-1c-.552284 0-1-.447701-1-1v-.28125-3.71875c0-.552299.426767-1 1-1h1v-1z" fill="#2f2f31"/><path d="m22 18c1.104522 0 2 .895478 2 2v4c0 1.104597-.895431 2-2 2h-1v-1h1c.552284 0 1-.447701 1-1v-.28125-3.71875c0-.552299-.426767-1-1-1h-1v-1z" fill="#2f2f31"/><rect fill="#fff" height="2" ry=".313498" width="6" x="15" y="21"/></g></svg>