<svg viewBox="0 0 32 32" xmlns="http://www.w3.org/2000/svg" xmlns:xlink="http://www.w3.org/1999/xlink"><linearGradient id="a" gradientUnits="userSpaceOnUse" x1="6" x2="6" y1="30" y2="24"><stop offset="0" stop-color="#007018"/><stop offset="1" stop-color="#32d74b"/></linearGradient><path d="m4 10v4h18v-4zm0 4v1 14h11 4 3v-3-4-7-1z" fill="#fff"/><path d="m3 9v1 4h1v-4h5v4h1v-4h5v4h1v-4h6v4h1v-4-1h-19zm0 5v15c0 .554.446 1 1 1h18c.554 0 1.033514-.447015 1-1v-3-1-1-2-8h-1-6-1-5-1-5zm1 1h5v4h-5zm6 0h5v4h-5zm6 0h6v4h-6zm-12 5h5v4h-5zm6 0h5v2 2h-5zm6 0h6v2 2h-6v-1.716797-.283203zm-12 5h5v4h-5zm6 0h5v.716797 3.283203h-5zm6 0h6v1 3h-6z" fill="#bababa"/><path d="m3 9v1 4h1v-4h5 1 5 1 6v4h1v-4-1h-19zm0 5v15c0 .554.446 1 1 1h18c.554 0 1.033514-.447015 1-1v-3-1-1-2-8h-1v1 4 1 2 2 1 1 3h-3-3-1-5-1-5v-4-1-4-1-4-1z" fill="#69696e"/><g transform="translate(0 -21)"><path d="m10 25h18v4h-18z" fill="#32d74b"/><path d="m9 24v1 5h1 5 1 5 1 6 1v-1-4-1h-19zm1 1h5v4h-5zm6 0h5v4h-5zm6 0h6v4h-6z" fill="#007018"/><path d="m4.453125 30.999432c-.3310186-.01029-.6573936-.134039-.9121094-.345703-.0006509-.000666-.0013-.0013-.00195-.002l-.5390656-.449172v-.203125h2.8964844c-.2271029.576726-.8142654 1.018633-1.4414063 1z" fill="#fff" fill-opacity=".784314"/><path d="m4.484375 24c-.1115776.0033-.2188339.04389-.3046875.115234l-3 2.5c-.24089011.199955-.24089011.569577 0 .769532l3 2.5c.3259264.271805.8209343.039622.8203125-.384766v-1.5h2.5c.2761309-.000028.4999724-.223869.5-.5v-1c-.0000276-.276131-.2238691-.499972-.5-.5h-2.5v-1.5c.0001088-.282349-.2334131-.508794-.515625-.5z" fill="url(#a)"/></g></svg>