<svg viewBox="0 0 32 32" xmlns="http://www.w3.org/2000/svg" xmlns:xlink="http://www.w3.org/1999/xlink"><linearGradient id="a" gradientUnits="userSpaceOnUse" x1="15" x2="15" xlink:href="#c" y1="9" y2="33"/><linearGradient id="b" gradientUnits="userSpaceOnUse" x1="15" x2="15" xlink:href="#c" y1="4" y2="28"/><linearGradient id="c" gradientUnits="userSpaceOnUse" x1="15" x2="15" y1="4" y2="28"><stop offset="0" stop-color="#efefef"/><stop offset=".33333334" stop-color="#fff"/><stop offset=".8888889" stop-color="#fff"/><stop offset="1" stop-color="#f5f5f5"/></linearGradient><filter id="d" color-interpolation-filters="sRGB" height="1.116265" width="1.123983" x="-.061992" y="-.058132"><feGaussianBlur stdDeviation=".61991525"/></filter><g transform="translate(0 -5)"><path d="m4 10h7v17l-2 2.5-5 .09322z" filter="url(#d)" opacity=".15" stroke-width="1.032659"/><path d="m4 8c-.554 0-1 .446-1 1v14c0 .554.446 1 1 1h11c.554 0 1-.446 1-1v-14c0-.554-.446-1-1-1zm0 1h11v14h-11z" fill="#69696e"/><path d="m4 9h11v14h-11z" fill="url(#b)"/><path d="m9 9v4h-5v1h5v4h-5v1h5v4h1v-4h5v-1h-5v-4h5v-1h-5v-4z" fill="#bababa"/><path d="m3 23v5c0 .554.446 1 1 1h5.5c.554 0 2.5-2.5 2.5-2.5v-2.5h-1v2l-2 2h-5v-5z" fill="#69696e"/><path d="m4 24v4h5l2-2v-2z" fill="url(#a)"/></g><g transform="translate(13 -1)"><path d="m4 10h7v17l-2 2.5-5 .09322z" filter="url(#d)" opacity=".15" stroke-width="1.032659"/><path d="m4 8c-.554 0-1 .446-1 1v14c0 .554.446 1 1 1h11c.554 0 1-.446 1-1v-14c0-.554-.446-1-1-1zm0 1h11v14h-11z" fill="#0070f5"/><path d="m4 9h11v14h-11z" fill="#409cff"/><path d="m9 9v4h-5v1h5v4h-5v1h5v4h1v-4h5v-1h-5v-4h5v-1h-5v-4z" fill="#0070f5"/><path d="m3 23v5c0 .554.446 1 1 1h5.5c.554 0 2.5-2.5 2.5-2.5v-2.5h-1v2l-2 2h-5v-5z" fill="#0070f5"/><path d="m4 24v4h5l2-2v-2z" fill="#409cff"/></g></svg>