<svg viewBox="0 0 32 32" xmlns="http://www.w3.org/2000/svg"><g fill="#4b4b4f" stroke-width=".694489" transform="translate(.368409 -.010406)"><path d="m9.6315908 26.010406h-2v-16.7247031l-5.0594602 1.8583001v-2.2787914l6.6660973-2.699283h.3933629z"/><path d="m26.631591 26.010406h-12.621056v-1.804043l6.836376-7.595972c1.012796-1.148439 1.709093-2.07985 2.088892-2.794233.388841-.723426.583262-1.469459.583262-2.238099 0-1.030882-.311977-1.8763861-.935932-2.5365123s-1.455895-.9901893-2.49582-.9901893c-1.247909 0-2.220013.3571916-2.91631 1.0715747-.687255.7053406-1.030882 1.6910089-1.030882 2.9570039h-2.509384c0-1.817608.583262-3.287067 1.749786-4.4083772 1.175567-1.1213102 2.744497-1.6819653 4.70679-1.6819653 1.835693 0 3.287067.4837911 4.35412 1.4513733 1.067053.9585393 1.60058 2.2380991 1.60058 3.8386792 0 1.944207-1.238867 4.25917-3.716601 6.944889l-5.290052 5.737672h9.596231z"/></g></svg>