<svg viewBox="0 0 32 32" xmlns="http://www.w3.org/2000/svg" xmlns:xlink="http://www.w3.org/1999/xlink"><filter id="a" color-interpolation-filters="sRGB" height="1.094553" width="1.097492" x="-.048746" y="-.047277"><feGaussianBlur stdDeviation=".36559322"/></filter><linearGradient id="b" gradientTransform="matrix(0 1 -1 0 46.436754 -3.437714)" gradientUnits="userSpaceOnUse" x1="16.449644" x2="16.372883" y1="28.20339" y2="3.389831"><stop offset="0" stop-color="#0040dd"/><stop offset="1" stop-color="#0a84ff"/></linearGradient><path d="m6 27.940678h20v2.559322h-20z" filter="url(#a)" opacity=".15" stroke-width="1.015418"/><path d="m6 3v26h20v-26z" fill="#fff"/><g fill="url(#b)"><path d="m9 3h1v26h-1z"/><path d="m22 3h1v26h-1z"/><path d="m6 6h20v1h-20z"/><path d="m5.602187 25h20.397814v1h-20.397814z"/></g><path d="m6 2c-.554 0-1 .446-1 1v26c0 .554.446 1 1 1h20c.554 0 1-.446 1-1v-26c0-.554-.446-1-1-1zm0 1h20v26h-20z" fill="#98989d"/></svg>