<svg viewBox="0 0 32 32" xmlns="http://www.w3.org/2000/svg" xmlns:xlink="http://www.w3.org/1999/xlink"><filter id="a" color-interpolation-filters="sRGB" height="1.094553" width="1.097492" x="-.048746" y="-.047277"><feGaussianBlur stdDeviation=".36559322"/></filter><linearGradient id="b" gradientUnits="userSpaceOnUse" x1="172" x2="172" y1="16" y2="-8"><stop offset="0" stop-color="#0040dd"/><stop offset="1" stop-color="#0a84ff"/></linearGradient><radialGradient id="c" cx="22" cy="9.076923" gradientTransform="matrix(1.3 .00000001 -.00000002 1.5 -6.6 -6.615385)" gradientUnits="userSpaceOnUse" r="10"><stop offset="0" stop-color="#d7d7d7"/><stop offset=".29999998" stop-color="#f7f7f7"/><stop offset="1" stop-color="#fff"/></radialGradient><linearGradient id="d" gradientUnits="userSpaceOnUse" x1="20" x2="23" y1="9" y2="6"><stop offset="0" stop-color="#fff"/><stop offset=".77967989" stop-color="#f1f1f1"/><stop offset="1" stop-color="#d5d5d5"/></linearGradient><path d="m6 27.940678h20v2.559322h-20z" filter="url(#a)" opacity=".15" stroke-width="1.015418"/><path d="m6 3v26h19.99762l.00238-19-7-7z" fill="url(#c)"/><path d="m5.9976202 2c-.554 0-1 .446-1 1v26c0 .554.446 1 1 1h19.9999998c.554 0 .892483-.456533 1-1v-10.109375-10.5052752l-6.508082-6.3853498zm0 1h12.9999998v6c0 .6726441.491378 1 1 1h6v19h-19.9999998z" fill="#98989d"/><path d="m20 9h6l-6-6z" fill="url(#d)" fill-rule="evenodd"/><g stroke-width="2"><path d="m20 7a1.0001 1.0001 0 0 0 -1 1v1a1.0001 1.0001 0 0 0 1 1h1v18h-1a1.0001 1.0001 0 0 0 -1 1v1h6.998047c.00069 0 .001264.000001.001953 0v-1a1.0001 1.0001 0 0 0 -1-1h-1v-18h1a1.0001 1.0001 0 0 0 1-1v-1a1.0001 1.0001 0 0 0 -1-1h-2a1.0001 1.0001 0 0 0 -.5.1347656 1.0001 1.0001 0 0 0 -.5-.1347656z" fill="#fff" fill-opacity=".784314"/><path d="m20 8v1h2v-1zm2 1v20h1v-20zm1 0h2v-1h-2zm0 20v1h2v-1zm-1 0h-2v1h2z" fill="url(#b)"/></g></svg>