<svg viewBox="0 0 32 32" xmlns="http://www.w3.org/2000/svg" xmlns:xlink="http://www.w3.org/1999/xlink"><filter id="a" color-interpolation-filters="sRGB" height="1.094553" width="1.097492" x="-.048746" y="-.047277"><feGaussianBlur stdDeviation=".36559322"/></filter><linearGradient id="b" gradientUnits="userSpaceOnUse" x1="-17" x2="-17" y1="18" y2="8"><stop offset="0" stop-color="#d70015"/><stop offset="1" stop-color="#ff453a"/></linearGradient><linearGradient id="c" gradientUnits="userSpaceOnUse" x1="-23" x2="-23" xlink:href="#d" y1="23" y2="21"/><linearGradient id="d" gradientTransform="translate(-50.237288 -.305085)" gradientUnits="userSpaceOnUse" x1="14" x2="13.79661" y1="22" y2="2.135593"><stop offset="0" stop-color="#0040dd"/><stop offset="1" stop-color="#0a84ff"/></linearGradient><linearGradient id="e" gradientUnits="userSpaceOnUse" x1="3" x2="13" xlink:href="#d" y1="10.5" y2="10.5"/><linearGradient id="f" gradientUnits="userSpaceOnUse" x1="11" x2="11" xlink:href="#d" y1="5" y2="3"/><linearGradient id="g" gradientUnits="userSpaceOnUse" x1="11" x2="11" xlink:href="#d" y1="9" y2="7"/><linearGradient id="h" gradientUnits="userSpaceOnUse" x1="7" x2="7" xlink:href="#d" y1="18" y2="14"/><linearGradient id="i" gradientUnits="userSpaceOnUse" x1="3" x2="3" xlink:href="#d" y1="18" y2="14"/><path d="m6 26.940678h22v2.559322h-22z" filter="url(#a)" opacity=".15" stroke-width="1.015418"/><path d="m6 6h22v22h-22z" fill="#fff"/><path d="m6 5c-.554 0-1 .446-1 1v8.884766.115234 2 2 .115234 8.884766c0 .554.446 1 1 1h4 2 5 5 2 4c.554 0 1-.446 1-1v-8.884766-.115234-2-2-.115234-8.884766c0-.554-.446-1-1-1h-4-2-5-5-2zm0 1h4.585938.828124 5.585938 5.585938.828124 4.585938v9.585938.146484 1.853516.68164.146484 9.585938h-4.585938-.828124-5.585938-5.585938-.828124-4.585938v-9.585938-.146484-.68164-1.171876-.68164-.146484z" fill="#98989d"/><path d="m10 5c.000051.265199.105433.5195197.292969.7070312l.292969.2929688h.398437.429687l.292969-.2929688c.187536-.1875117.292918-.4418322.292969-.7070312zm.984375 1c-.259774.0041422-.50774.1092126-.691406.2929688l-2.0000002 2c-.6295563.6299944-.1836056 1.7066817.7070312 1.7070312h4c.890637-.0003496 1.336587-1.0770368.707031-1.7070312l-2-2c-.191323-.1914119-.452053-.2971088-.722656-.2929688zm-2.0136719 7c-.25501.007637-.4974605.112443-.6777343.292969l-2 2c-.1914119.191323-.2971088.452053-.2929688.722656.0041422.259774.1092126.50774.2929688.691406l2 2c.6299944.629556 1.7066816.183606 1.7070312-.707031v-4c.000184-.563907-.4656305-1.016463-1.0292969-1zm-2.9707031 3.015625v-.429687l-.2929688-.292969c-.1875117-.187536-.4418322-.292918-.7070312-.292969v2c.265199-.000051.5195197-.105433.7070312-.292969l.2929688-.292969zm18 .984375c-3.854148 0-7 3.145852-7 7v4 1h11c.554 0 1-.446 1-1v-8.884766c-.152843-.156402-.313716-.305602-.480469-.447265-.164701-.139921-.336473-.270062-.513672-.394531-.002242-.001577-.003615-.004287-.005859-.00586-1.135833-.795872-2.513708-1.267578-4-1.267578z" fill="#fff" fill-opacity=".784314"/><g transform="translate(41 7)"><path d="m-17 11c3.313708 0 6 2.686292 6 6v4 2h-4v-2-4c0-1.10457-.89543-2-2-2s-2 .89543-2 2v4h-4v-4c0-3.313708 2.686292-6 6-6z" fill="url(#b)"/><path d="m-19 21h-4v2h4z" fill="url(#c)"/></g><g fill="url(#e)" fill-rule="evenodd"><path d="m11 7 2 2h-4z" fill="url(#g)"/><path d="m11 5 2-2h-4z" fill="url(#f)"/><path d="m7 16 2-2v4z" fill="url(#h)"/><path d="m5 16-2-2v4z" fill="url(#i)"/></g></svg>