<svg viewBox="0 0 32 32" xmlns="http://www.w3.org/2000/svg"><path d="m3.5 6.1667738 23.110995 21.3332262h-23.110995zm3.9999896 9.3351322v1.735799 6.264161h7.9999594.888885z" fill="#fc0" fill-rule="evenodd" stroke="#c89e00" stroke-linecap="round" stroke-linejoin="round"/><g fill="#eac282" stroke-width=".857112" transform="matrix(1.1667513 0 0 1.1666667 -1.335901 -6.329349)"><path d="m11.437572 19.627857-1.09644 4.02504 3.951909-1.171525c1.653046-.339535-2.065034-3.99245-2.855469-2.853515z" fill="#a2a2a7" stroke="#848489"/><path d="m20.419922 11c-.189562 0-.378184.07172-.523438.216797l-1.673828 1.669922 2.847656 2.849609 1.710938-1.638672c.290506-.290127.290506-.756747 0-1.046875l-1.835938-1.833984c-.145254-.145064-.335828-.216797-.52539-.216797z" fill="#e68497" stroke="#b6496c"/><path d="m19.288937 13.155429 1.143664-1.12071 1.850278 1.787531" fill="none" stroke="#f398b3"/><path d="m17.603733 13.488055-5.652561 5.646711 2.855469 2.853515 5.633029-5.668195z" fill="#fc0" stroke="#c89e00"/><path d="m19.761836 15.247137-1.100691-1.177408-6.1837 6.223955 1.082595 1.146887z" fill="#ffe014"/></g></svg>