<svg viewBox="0 0 32 32" xmlns="http://www.w3.org/2000/svg"><path d="m13 3a10 10 0 0 0 -10 10 10 10 0 0 0 10 10 10 10 0 0 0 6.296875-2.242188l7.322266 7.320313c.391737.391737 1.022325.391737 1.414062 0l.707031-.707031c.391738-.391737.391738-1.022326 0-1.414063l-7.421875-7.419922a10 10 0 0 0 1.681641-5.537109 10 10 0 0 0 -10-10zm.003906 2.0039062a8 8 0 0 1 8 7.9999998 8 8 0 0 1 -8 8 8 8 0 0 1 -7.9999998-8 8 8 0 0 1 7.9999998-7.9999998zm7.470703 14.6210938c-.039771.04485-.078569.090639-.11914.134766a10 10 0 0 0 .11914-.134766zm-.544921.568359c-.057149.055035-.115359.108426-.173829.16211a10 10 0 0 0 .173829-.16211z" fill="#69696e"/><path d="m13 3c.262078.00143.523999.013153.785156.035156-.261157-.0220028-.523078-.0337306-.785156-.035156zm.794922.035156-1.740234 2.03125c-.06391.00834-.127717.017459-.191407.027344.377577-.057133.75876-.087158 1.140625-.089844 2.942591.00286 5.646075 1.6208971 7.039063 4.2128907l.55664-.4160157c.631661-.4743886.489835-1.4594101-.25-1.7363281l.388672-.3886717c-1.722443-2.1080309-4.22985-3.4227447-6.943359-3.640625zm6.980469 3.6914063c-13.8502607 16.8489585-6.92513 8.4244795 0 0zm.05664 4.6738285c.0073.03121.01451.06246.02148.09375-.007-.03129-.01414-.06254-.02148-.09375z" fill="#fff" fill-opacity=".784314"/><g fill-rule="evenodd"><path d="m16 2h8l-6 6h2l-12 9 5-8h-3z" fill="#e4b500"/><path d="m16.460938 3-4.28711 5h.826172a1.0001 1.0001 0 0 1 .847656 1.5292969l-2.158203 3.4531251 5.646485-4.2343751a1.0001 1.0001 0 0 1 -.042969-1.4550781l4.292969-4.2929688z" fill="#ffd60a"/></g></svg>