<svg viewBox="0 0 16 16" xmlns="http://www.w3.org/2000/svg"><path d="m7.9355105.0937505c-.5255-.0286-1.03823.28305-1.4375.9687499l-6.25000004 11.5937496c-.53347.96339.04822 2.34375 1.09375004 2.34375h13.1562495c.98172 0 1.90311-1.15939 1.21875-2.34375l-6.3124995-11.5312496c-.39872-.6461699-.94325-1.0026199-1.46875-1.0312499zm1.09365 3.9062499.0001 5c.007.52831-.47163.9999996-1 .9999996-.52836 0-1.00747-.4716896-1-.9999996l-.0001-5zm-.9999 6.9999996c.55228 0 1 .44772 1 1s-.44772 1-1 1c-.55229 0-1-.44772-1-1s.44771-1 1-1z" fill="#2e3436"/></svg>