<svg xmlns="http://www.w3.org/2000/svg" viewBox="0 0 140 120">
  <defs
     id="defs2990">
    <linearGradient
       inkscape:collect="always"
       id="linearGradient4300-7-0-1">
      <stop
         style="stop-color:#6c7a89;stop-opacity:1"
         offset="0"
         id="stop4302-2-0-7" />
      <stop
         style="stop-color:#768492;stop-opacity:1"
         offset="1"
         id="stop4304-4-3-8" />
    </linearGradient>
    <linearGradient
       id="linearGradient4227"
       inkscape:collect="always">
      <stop
         id="stop4229"
         offset="0"
         style="stop-color:#292c2f;stop-opacity:1" />
      <stop
         id="stop4231"
         offset="1"
         style="stop-color:#000000;stop-opacity:0;" />
    </linearGradient>
    <linearGradient
       gradientTransform="matrix(5.7533482,0,0,3.7272727,-38.35379,4.45455)"
       y2="24.292683"
       x2="22.309408"
       y1="9.5365839"
       x1="11.880697"
       gradientUnits="userSpaceOnUse"
       id="linearGradient3028"
       xlink:href="#linearGradient4227"
       inkscape:collect="always" />
    <linearGradient
       inkscape:collect="always"
       xlink:href="#linearGradient4300-7-0-1"
       id="linearGradient3029"
       gradientUnits="userSpaceOnUse"
       gradientTransform="matrix(3.1818175,0,0,2.0689652,-31.81818,-6.20689)"
       x1="32"
       y1="61"
       x2="32"
       y2="3" />
  </defs>
    <path
       style="fill:url(#linearGradient3029)"
       d="M 0 0 L 0 120 L 110 120 L 140 120 L 140 28.964844 L 140 0 L 95.455078 0 L 0 0 z " />
    <path
       style="fill:#2e3132;fill-opacity:0.3"
       d="M 0 118 L 0 120 L 140 120 L 140 118 L 0 118 z " />
    <path
       style="fill:#ffffff;fill-opacity:0.4"
       d="M 0 0 L 0 2 L 140 2 L 140 0 L 0 0 z " />
    <path
       style="fill:#ececec"
       d="M 48 38 L 48 82 L 50 82 L 50 78 L 54 78 L 54 82 L 56 82 L 84 82 L 86 82 L 86 78 L 90 78 L 90 82 L 92 82 L 92 38 L 90 38 L 90 42 L 86 42 L 86 38 L 54 38 L 54 42 L 50 42 L 50 38 L 48 38 z M 56 40 L 84 40 L 84 58 L 84 62 L 84 64 L 84 80 L 56 80 L 56 64 L 56 62 L 56 58 L 56 40 z M 50 46 L 54 46 L 54 50 L 50 50 L 50 46 z M 70 46 C 65.02944 46 61 50.02944 61 55 L 65 55 C 65 52.36853 67.36853 50 70 50 C 72.63147 50 75 52.36853 75 55 C 75 57.63147 72.63147 60 70 60 L 67 60 L 67 68 L 71 68 L 71 63.9375 C 75.492015 63.432578 79 59.626897 79 55 C 79 50.02944 74.97056 46 70 46 z M 86 46 L 90 46 L 90 50 L 86 50 L 86 46 z M 50 54 L 54 54 L 54 58 L 50 58 L 50 54 z M 86 54 L 90 54 L 90 58 L 86 58 L 86 54 z M 50 62 L 54 62 L 54 66 L 50 66 L 50 62 z M 86 62 L 90 62 L 90 66 L 86 66 L 86 62 z M 50 70 L 54 70 L 54 74 L 50 74 L 50 70 z M 67 70 L 67 74 L 71 74 L 71 70 L 67 70 z M 86 70 L 90 70 L 90 74 L 86 74 L 86 70 z " />
    <path
       style="opacity:0.2;fill:url(#linearGradient3028)"
       d="M 92 38 L 92 82 L 48 82 L 85 120 L 103 120 L 110 120 L 126 104 L 140 90 L 140 85 L 92 38 z " />
</svg>
