<?xml version="1.0" encoding="UTF-8" standalone="no"?><svg height="32" width="32" xmlns="http://www.w3.org/2000/svg" xmlns:xlink="http://www.w3.org/1999/xlink">
  <linearGradient
     id="a"
     gradientTransform="matrix(-0.70270265,0,0,0.70270265,33.91892,-1.91891)"
     gradientUnits="userSpaceOnUse"
     x2="0"
     y1="44"
     y2="7">
    <stop
       offset="0"
       stop-color="#42a603"
       id="stop2" />
    <stop
       offset="1"
       stop-color="#78da06"
       id="stop4" />
  </linearGradient>
  <linearGradient
     id="b"
     gradientUnits="userSpaceOnUse"
     x1="753.85724"
     x2="781.8573"
     y1="171.93361"
     y2="199.93361"
     gradientTransform="matrix(0.5,0,0,0.5,-368.42859,-78.966805)">
    <stop
       offset="0"
       stop-color="#292c2f"
       id="stop7" />
    <stop
       offset="1"
       stop-opacity="0"
       id="stop9" />
  </linearGradient>
  <linearGradient
     id="c"
     gradientTransform="matrix(0.5,0,0,0.5,-368.42859,-81.466805)"
     gradientUnits="userSpaceOnUse"
     x2="0"
     y1="199.93361"
     y2="175.93361">
    <stop
       offset="0"
       stop-color="#bcfd93"
       id="stop12" />
    <stop
       offset="1"
       stop-color="#fafff5"
       id="stop14" />
  </linearGradient>
  <path
     style="fill:url(#a);fill-rule:evenodd;stroke-width:0.5"
     d="M 29,3 V 21.97297 H 16.351365 L 9.324305,29 V 21.97297 H 3 V 3 Z" />
  <path
     style="fill:#368902;fill-rule:evenodd;stroke-width:0.5"
     d="m 3,21.472656 v 0.5 h 6.324219 v -0.5 z m 13.351562,0 L 9.324219,28.5 V 29 l 7.027343,-7.027344 H 29 v -0.5 z" />
  <path
     style="opacity:0.2;fill:url(#b);fill-rule:evenodd;stroke-width:0.5"
     d="m 21.5,6.5 -4,7 -3.5,4 -3.5,-1.5 4,4 6,6.5 H 29 V 13 Z" />
  <path
     style="fill:url(#c);fill-rule:evenodd;stroke-width:1"
     d="M 21.081175,6.226555 13.86633,17.29003 10.79016,15.092765 10.209105,15.90722 14.13391,18.709955 21.919065,6.77343 Z" />
</svg>
