<?xml version="1.0" encoding="UTF-8" standalone="no"?>
<!-- Created with Inkscape (http://www.inkscape.org/) -->

<svg
   xmlns:dc="http://purl.org/dc/elements/1.1/"
   xmlns:cc="http://creativecommons.org/ns#"
   xmlns:rdf="http://www.w3.org/1999/02/22-rdf-syntax-ns#"
   xmlns:svg="http://www.w3.org/2000/svg"
   xmlns="http://www.w3.org/2000/svg"
   xmlns:sodipodi="http://sodipodi.sourceforge.net/DTD/sodipodi-0.dtd"
   xmlns:inkscape="http://www.inkscape.org/namespaces/inkscape"
   width="24"
   height="24"
   id="svg2"
   version="1.1"
   inkscape:version="0.48.4 r9939"
   viewBox="0 0 24 24"
   sodipodi:docname="paste_transpose.svg">
  <defs
     id="defs4">
    <inkscape:perspective
       sodipodi:type="inkscape:persp3d"
       inkscape:vp_x="0 : 12 : 1"
       inkscape:vp_y="0 : 1000 : 0"
       inkscape:vp_z="24 : 12 : 1"
       inkscape:persp3d-origin="12 : 8 : 1"
       id="perspective4146" />
  </defs>
  <sodipodi:namedview
     id="base"
     pagecolor="#ffffff"
     bordercolor="#666666"
     borderopacity="1.0"
     inkscape:pageopacity="0.0"
     inkscape:pageshadow="2"
     inkscape:zoom="25.15656"
     inkscape:cx="7.1531447"
     inkscape:cy="10.159561"
     inkscape:document-units="px"
     inkscape:current-layer="layer1"
     showgrid="true"
     inkscape:showpageshadow="false"
     units="px"
     inkscape:window-width="1868"
     inkscape:window-height="1060"
     inkscape:window-x="50"
     inkscape:window-y="-3"
     inkscape:window-maximized="1"
     showguides="true"
     fit-margin-top="0"
     fit-margin-left="0"
     fit-margin-right="0"
     fit-margin-bottom="0"
     inkscape:snap-bbox="true">
    <inkscape:grid
       type="xygrid"
       id="grid4120"
       originx="1px"
       originy="0.99998262px" />
    <sodipodi:guide
       position="3,21"
       orientation="18,0"
       id="guide4126" />
    <sodipodi:guide
       position="3,3"
       orientation="0,18"
       id="guide4128" />
    <sodipodi:guide
       position="21,3"
       orientation="-18,0"
       id="guide4130" />
    <sodipodi:guide
       position="21,21"
       orientation="0,-18"
       id="guide4132" />
    <sodipodi:guide
       position="4,20"
       orientation="16,0"
       id="guide4134" />
    <sodipodi:guide
       position="4,4"
       orientation="0,16"
       id="guide4136" />
    <sodipodi:guide
       position="20,4"
       orientation="-16,0"
       id="guide4138" />
    <sodipodi:guide
       position="20,20"
       orientation="0,-16"
       id="guide4140" />
    <sodipodi:guide
       position="20,14"
       orientation="-6,0"
       id="guide4199" />
    <sodipodi:guide
       position="20,20"
       orientation="0,-6.0000172"
       id="guide4201" />
  </sodipodi:namedview>
  <metadata
     id="metadata7">
    <rdf:RDF>
      <cc:Work
         rdf:about="">
        <dc:format>image/svg+xml</dc:format>
        <dc:type
           rdf:resource="http://purl.org/dc/dcmitype/StillImage" />
        <dc:title />
      </cc:Work>
    </rdf:RDF>
  </metadata>
  <g
     inkscape:label="Capa 1"
     inkscape:groupmode="layer"
     id="layer1"
     transform="translate(1,-1029.3622)">
    <path
       style="fill:#4d4d4d;fill-opacity:1;stroke:none"
       d="M 17 10 L 17 14 L 17 14.5 C 17 15.885 15.885 17 14.5 17 C 13.6813 17 12.9551 16.6045 12.5 16 L 14 16 L 14 15 L 12.0625 15 L 12 15 L 11.0625 15 L 11 15 L 11 16 L 11 18 L 12 18 L 12 16.9375 C 12.6319 17.5955 13.5097 18 14.5 18 C 16.439 18 18 16.439 18 14.5 L 18 14 L 18 10 L 17 10 z "
       transform="translate(-1,1029.3622)"
       id="rect4145-2" />
    <path
       style="fill:#4d4d4d;fill-opacity:1;stroke:none"
       d="m 3,1033.3622 0,1 0,3 1,0 4,0 1,0 1,0 3,0 1,0 4,0 1,0 0,-3 0,-1 -16,0 z m 1,1 4,0 0,1 0,1 -1,0 -3,0 0,-2 z m 5,0 4,0 0,1 0,1 -4,0 0,-1 0,-1 z m 5,0 4,0 0,2 -3,0 -1,0 0,-1 0,-1 z m -11,5 0,10 1,0 5,0 0,-1 0,-2 0,-1 0,-2 0,-1 0,-2 0,-1 -1,0 -4,0 -1,0 z m 1,1 4,0 0,2 -4,0 0,-2 z m 0,3 4,0 0,2 -1,0 -3,0 0,-2 z m 0,3 3,0 1,0 0,1.0938 0,0.9062 -4,0 0,-2 z"
       id="rect4108-9"
       inkscape:connector-curvature="0" />
  </g>
</svg>
