<svg viewBox="0 0 16 16" xmlns="http://www.w3.org/2000/svg"><path d="m5 1c-1.1 0-2 .9-2 2v5c0 1.1.9 2 2 2h2c1.1 0 2-.9 2-2v-5c0-1.1-.9-2-2-2zm7 0c-1.1 0-2 .9-2 2v5c0 1.1.9 2 2 2h2c1.1 0 2-.9 2-2v-5c0-1.1-.9-2-2-2zm-7 2h2v5h-2zm7 0h2v5h-2zm-12 5v2h1c0 .366595-.1581924.872288-.34375 1.244141-.1855575.371853-.65625.755859-.65625.755859h1c.6036951-.571623 1.0009104-1 1.0039062-2h-.0039062v-2zm9 2v1c0 .2653.0931.53058.28125.71875l.28125.28125h-5.5625v2h5.5625l-.28125.28125c-.18811.18818-.28125.45344-.28125.71875v1h1c.26529 0 .53057-.1.71875-.28125l2-2 .28125-.28125v-.875l-.28125-.28125-2-2c-.18817-.18814-.45344-.28125-.71875-.28125z" fill="#555753"/></svg>