<svg viewBox="0 0 32 32" xmlns="http://www.w3.org/2000/svg" xmlns:xlink="http://www.w3.org/1999/xlink"><filter id="a" color-interpolation-filters="sRGB" height="1.094553" width="1.097492" x="-.048746" y="-.047277"><feGaussianBlur stdDeviation=".36559322"/></filter><g transform="translate(0 1)"><path d="m2 18h28v2.5h-28z" filter="url(#a)" opacity=".15" stroke-width="1.015418"/><path d="m2 5h28v14h-28z" fill="#fff"/><path d="m1 4v16h1 28 1v-16h-1-28zm1 1h28v14h-28z" fill="#98989d" stroke-width=".942809"/><g fill="#4b4b4f" stroke-width=".397814" transform="translate(0 -1)"><path d="m8.4113702 18.842628q-.124317-.240865-.2175548-.784752-.9012983.940148-2.2066269.940148-1.2664796 0-2.0667704-.722593-.8002907-.722592-.8002907-1.787057 0-1.344178.9945361-2.059 1.0023059-.722593 2.8592913-.722593h1.1577021v-.551657q0-.652664-.3651812-1.041155-.3651812-.39626-1.1110833-.39626-.6448945 0-1.0566946.326332-.4118001.318562-.4118001.81583h-1.8880646q0-.691513.458419-1.289789.4584189-.606045 1.2431701-.947917.7925209-.341872 1.7637476-.341872 1.4762645 0 2.3542534.745902.8779889.738133.9012988 2.08231v3.791669q0 1.134393.318562 1.810367v.132087zm-2.0745401-1.359718q.5594265 0 1.0489248-.271943.497268-.271944.745902-.730363v-1.585042h-1.0178455q-1.0489248 0-1.5772721.365182-.5283473.365181-.5283473 1.033385 0 .543887.3574114.870219.3651812.318562.9712267.318562z"/><path d="m15.955859 10.901878q1.585042 0 2.540729 1.064465.955687 1.056694.955687 2.874831v.09324q0 1.818136-1.041155 2.944759-1.033385 1.126623-2.812672 1.126623-1.732669 0-2.797133-1.149933-1.064464-1.149934-1.064464-3.139006v-.543887q0-2.719435.963457-4.304477.963456-1.585042 2.87483-1.981302 1.072235-.217555 1.383027-.458419.318563-.248634.318563-.668204h1.522883q0 .784751-.256404 1.274249-.256404.489499-.784751.800291-.528347.303023-1.818136.574966-1.181012.248634-1.802597.885759-.613815.637125-.8236 1.763748 1.126623-1.157703 2.641736-1.157703zm-.372951 1.515114q-.916838 0-1.437415.621585-.520578.613815-.520578 1.895835 0 1.21209.512808 1.888064.512808.675974 1.460725.675974.940147 0 1.452955-.675974.520577-.683743.520577-2.051231 0-1.087773-.520577-1.717128-.512808-.637125-1.468495-.637125z"/><path d="m21.060625 18.842628v-8.406938h3.410948q1.724899 0 2.626197.606045.901299.598276.901299 1.724899 0 .582736-.365182 1.048924-.357411.458419-1.064464.707053.8236.170936 1.305329.691514.481728.520577.481728 1.22763 0 1.173242-.870219 1.787057-.862449.613816-2.48634.613816zm1.888065-3.581884v2.090079h2.06677q1.452955 0 1.452955-1.041155 0-1.048924-1.476264-1.048924zm0-1.351948h1.553963q1.608351 0 1.608351-.947917 0-.994536-1.522883-1.025615h-1.639431z"/></g></g><g transform="translate(16 15)"><path d="m2.4746094-.97656222c-.7663717.02540224-1.4475748.72724665-1.4472656 1.49414062l-.0273438 13.0671676c-.00034705.588965.3830009 1.158881.9277343 1.382812.5447335.223932 1.2188306.08689 1.6328126-.332031l1.5625-2.080078 1.46875 1.919922c.067891.132974.1646517.249087.2832031.339844.3634954.505162.8402393.881318 1.3574219 1.027343.6426921.181463 1.2970469.146339 1.8906251-.0332.595992-.180268 1.225565-.539792 1.652344-1.171875.460989-.682748.563264-1.578603.248046-2.412109-.0025-.0059-.0051-.01175-.0078-.01758-.01362-.03414-.02883-.06656-.04492-.09961l-.0078-.01758-1.375001-2.088652 1.783203-.5292969c.617147.000835 1.211552-.4228356 1.414063-1.0058592.202416-.5827508-.002-1.2820289-.486328-1.6640625l-.002-.00195-9.8457031-7.45703102c-.0006491-.0006519-.0013-.001303-.00195-.001953-.2739345-.215473-.624292-.3297153-.9726384-.3183616z" fill="#98989d"/><path d="m2.5078125.0234378c-.2667743.0084656-.4786232.227232-.4785156.4941406l-.0273469 13.0671676c-.0002603.441832.5351401.661928.8457031.347656l2.5449219-3.068359 2.09375 3.160156-.021484-.04883c.1815644.4801.6051357.781779 1.0390625.904297s.8981329.101352 1.3300781-.0293c.4319454-.130649.8429824-.376002 1.1113284-.773438.268347-.397435.34616-.954566.140625-1.498046-.0053-.01327-.01116-.0263-.01758-.03906l-2.068355-3.539822 3.371093-.5292969c.470032.0013.676269-.5924563.306641-.8828125l-9.8476559-7.4589841c-.0916215-.0720627-.2057669-.1094194-.3222656-.1054687z" fill="#fff"/><path d="m3 1.5000003-.0273438 10.9284957 2.2148438-2.7363282c.2290156-.2313241.6174517-.169731.7636719.121093l2.4023437 3.7734382c.00734.01527.013859.03091.019531.04687.058539.15479.1754025.25063.3945312.3125s.5222897.05666.7871094-.02344.4816088-.231262.5878908-.388672c.105608-.156411.145735-.313576.03516-.609375l-2.3906287-4.2136445c-.1513185-.3161093.0792275-.6818388.4296876-.6816406l2.7832031-.5292969z"/></g></svg>