<svg viewBox="0 0 32 32" xmlns="http://www.w3.org/2000/svg"><g fill="#4b4b4f" transform="translate(0 6.011521)"><path d="m4.5292969 3.984375-4.5292969 11.994141h2.1660156l1.0390625-2.978516h4.5175781l1.0410157 2.978516h2.1738281l-4.5371094-11.994141zm.9316406 2.546875 1.5625 4.46875h-3.1210937z"/><path d="m20.008475 6.0148125-6.008475-.0148125v3h2.546563c.878578 0 1.644588.1510055 2.29803.4530165s1.150387.7303175 1.490836 1.2849195.622022 1.009769.622022 1.740086c0 1.120187-.501481 1.781032-1.264745 2.461929-.757773.680897-1.792848 1.026837-3.105223 1.03782h-4.587797v-11.9925835l8.000314.0148125zm-6.008475 4.9851875v3h2.538327c.702862 0 1.249227-.189443 1.639096-.56833.39536-.384378.58454-.250383.58454-.88186 0-.604022-.183689-.654759-.568067-1.00619-.384377-.351431-.917015-.532637-1.597913-.54362z"/><path d="m23 15.992584v-11.992584h4.110095c1.356304 0 2.388633.2718099 3.096986.8154298s1.06253 1.3535585 1.06253 2.429816c0 .5491109-.14826 1.0433108-.44478 1.4825996-.29652.4392887-.730318.7797375-1.301393 1.0213463.647951.1757155 1.147642.5079283 1.499073.9966373.356922.483217.535383 1.065275.535383 1.746172 0 1.125678-.362413 1.990528-1.08724 2.59455-.719335.604022-1.751664.906033-3.096986.906033zm2-5.740267v3.747683h2.314502c.653443 0 1.164116-.161988 1.53202-.485964.367905-.323975.635733-.445468.635733-1.022035 0-1.246481-.720845-2.212228-1.994783-2.239684zm0-1.252317h2.042693c.647951 0 1.237009-.096439 1.599422-.3874679.367904-.2965199.551856-.7138443.551856-1.251973 0-.5930399-.2541-.7016259-.594549-.9651992-.334957-.2635733-.859358-.3953599-1.573203-.3953599h-2.026219z"/></g></svg>