<svg viewBox="0 0 32 32" xmlns="http://www.w3.org/2000/svg"><path d="m3.5 4.5h25v23h-25z" style="fill:#fff;fill-rule:evenodd;stroke-linecap:round;stroke-linejoin:round;stroke-dasharray:2 2;stroke:#98989d"/><g fill="#4b4b4f"><path d="m23 11.993317-6 .006683v3h2.527081c.878075 0 1.643647.150919 2.296716.452757.653069.301839 1.14973.729901 1.489984 1.284186.340255.554285.510382.788261.510382 1.518161 0 1.119546-.381414 2.019573-1.144243 2.700082-.75734.680509-1.791823 1.026251-3.103448 1.037227h-4.5852v-11.98573l8.008728-.006683zm-6 5.006683v3h2.518849c.70246 0 1.248513-.189335 1.638159-.568005.395134-.384158.592701-.233325.592701-.864442 0-.603677-.192079-.673013-.576237-1.024244-.384158-.35123-.916491-.532333-1.597-.543309z"/><path d="m8.3535156 10-4.4082031 11.998047h2.0273437l1.0292969-2.998047h4.5546879l1.015625 2.998047h2.035156l-4.359375-11.998047zm.9140625 2.398438h.0507813l1.5605466 4.601562h-3.191406z"/><path d="m25 7h2v16h-2z"/></g></svg>