<svg viewBox="0 0 32 32" xmlns="http://www.w3.org/2000/svg" xmlns:xlink="http://www.w3.org/1999/xlink"><linearGradient id="a" gradientUnits="userSpaceOnUse" x1="-23.983051" x2="-24.01695" y1="13.161017" y2="4.754238"><stop offset="0" stop-color="#0040dd"/><stop offset="1" stop-color="#0a84ff"/></linearGradient><path d="m5.5 18c-.277 0-.5.223-.5.5v1c0 .277.223.5.5.5h5c.277 0 .5-.223.5-.5v-1c0-.277-.223-.5-.5-.5zm-2 3c-.277 0-.5.223-.5.5v1c0 .277.223.5.5.5h9c.277 0 .5-.223.5-.5v-1c0-.277-.223-.5-.5-.5zm2 3c-.831 0-1.5.669-1.5 1.5v2c0 .831.669 1.5 1.5 1.5h5c.831 0 1.5-.669 1.5-1.5v-2c0-.831-.669-1.5-1.5-1.5zm.71875 2h3.5625c.1209691 0 .21875.075511.21875.169922v.660156c0 .094411-.0977809.169922-.21875.169922h-3.5625c-.1209691 0-.21875-.075511-.21875-.169922v-.660156c0-.094411.0977809-.169922.21875-.169922z" fill="#4b4b4f"/><path d="m3.5 5c-.277 0-.5.223-.5.5v1c0 .277.223.5.5.5h7.5v6.5c0 .277.223.5.5.5h1c.277 0 .5-.223.5-.5v-7-1c0-.277-.223-.5-.5-.5h-1z" fill="url(#a)"/><path d="m21 5.0000003c-.554 0-1 .446-1 1v13.9999997h-3a1.0001 1.0001 0 0 0 -.707031 1.707031l5 5a1.0001 1.0001 0 0 0 1.414062 0l5-5a1.0001 1.0001 0 0 0 -.707031-1.707031h-3v-13.9999997c0-.554-.446-1-1-1z" fill="#4b4b4f"/></svg>