<svg height="32" viewBox="0 0 32 32" width="32" xmlns="http://www.w3.org/2000/svg" xmlns:xlink="http://www.w3.org/1999/xlink"><linearGradient id="a" gradientUnits="userSpaceOnUse" x1="15" x2="15" xlink:href="#b" y1="29" y2="17"/><linearGradient id="b" gradientTransform="translate(-26.983051 -6.983051)" gradientUnits="userSpaceOnUse" x1="14" x2="13.79661" y1="22" y2="2.135593"><stop offset="0" stop-color="#0040dd"/><stop offset="1" stop-color="#0a84ff"/></linearGradient><linearGradient id="c" gradientTransform="translate(.971966 -.0101)" gradientUnits="userSpaceOnUse" x1="25.028484" x2="25.028484" xlink:href="#b" y1="29.010099" y2="17.010099"/><linearGradient id="d" gradientTransform="matrix(-1 0 0 1 31.028484 -.0101)" gradientUnits="userSpaceOnUse" x1="25.028484" x2="25.028484" xlink:href="#b" y1="29.010099" y2="17.010099"/><path d="m22 3v23h3v-13h4v-3h-4v-7zm-17 2v3h12.333984c-.06247 2.67591-.976984 5.582294-1.727802 6.306611-1.696224 1.636354-3.273163 2.110639-5.6276664 3.414092.013679.092483-4.9791419 1.18581-4.9785156 1.279297v4c3.726554-1.285352 11.054472-4.519093 12.924541-7.419951 1.932277-2.997354 2.164339-5.558044 2.075459-8.6366896v-1.9433594z" fill="#4b4b4f" fill-rule="evenodd" stroke-width="1.33333"/><g stroke-linecap="round" stroke-width="2"><path d="m25 16.005859c-1.043272.006188-1.999567.947432-2 1.994141v3h-1v4h1v1h2zm-16 1.992188c-1.4445857.357228-4.0004508.934666-4 1.001953v4c1.3167703-.454177 3.0878984-1.159935 4.9042969-2h-.9042969v-3c-.0000003-.000655.000001-.001299 0-.001953z" fill="#fff" fill-opacity=".784314"/><path d="m7 22h18v2h-18z" fill="url(#a)"/><path d="m25.029746 17a1.0008187 1.0008187 0 0 1 .677735.292969l5 5a1.0008187 1.0008187 0 0 1 0 1.414062l-5 5a1.0008187 1.0008187 0 0 1 -1.707032-.707031v-10a1.0008187 1.0008187 0 0 1 1.029297-1z" fill="url(#c)"/><path d="m6.9707031 17a1.0008187 1.0008187 0 0 0 -.6777343.292969l-5 5a1.0008187 1.0008187 0 0 0 0 1.414062l5 5a1.0008187 1.0008187 0 0 0 1.7070312-.707031v-10a1.0008187 1.0008187 0 0 0 -1.0292969-1z" fill="url(#d)"/></g></svg>