<?xml version="1.0" encoding="UTF-8"?>
<svg xmlns="http://www.w3.org/2000/svg" xmlns:xlink="http://www.w3.org/1999/xlink" width="1024px" height="1024px" viewBox="0 0 1024 1024" version="1.1">
<g id="surface1">
<path style=" stroke:none;fill-rule:nonzero;fill:rgb(88.235295%,11.764706%,9.803922%);fill-opacity:1;" d="M 858.238281 455.679688 C 846.71875 444.160156 828.160156 444.160156 816.640625 455.679688 L 511.039062 761.28125 L 382.71875 633.601562 L 312.960938 703.359375 L 511.039062 901.441406 L 907.199219 505.28125 L 858.238281 456 Z M 858.238281 455.679688 "/>
<path style=" stroke:none;fill-rule:nonzero;fill:rgb(88.235295%,11.764706%,9.803922%);fill-opacity:1;" d="M 643.519531 830.71875 L 558.71875 902.398438 L 611.199219 902.398438 C 708.160156 902.398438 787.199219 823.359375 787.199219 726.398438 L 787.199219 710.398438 L 706.558594 779.519531 C 693.121094 803.839844 670.398438 822.398438 643.519531 830.71875 Z M 643.519531 830.71875 "/>
<path style=" stroke:none;fill-rule:nonzero;fill:rgb(88.235295%,11.764706%,9.803922%);fill-opacity:1;" d="M 250.558594 835.519531 L 250.558594 175.679688 L 720.320312 175.679688 L 720.320312 462.078125 L 787.199219 404.800781 L 787.199219 108.800781 L 184 108.800781 L 184 902.398438 L 421.441406 902.398438 L 365.121094 835.519531 Z M 250.558594 835.519531 "/>
<path style=" stroke:none;fill-rule:nonzero;fill:rgb(88.235295%,11.764706%,9.803922%);fill-opacity:1;" d="M 373.441406 232.960938 L 583.679688 232.960938 C 604.710938 232.960938 621.761719 250.007812 621.761719 271.039062 L 621.761719 276.160156 C 621.761719 297.191406 604.710938 314.238281 583.679688 314.238281 L 373.441406 314.238281 C 352.410156 314.238281 335.359375 297.191406 335.359375 276.160156 L 335.359375 271.039062 C 335.359375 250.007812 352.410156 232.960938 373.441406 232.960938 Z M 373.441406 232.960938 "/>
<path style=" stroke:none;fill-rule:nonzero;fill:rgb(88.235295%,11.764706%,9.803922%);fill-opacity:1;" d="M 376.320312 425.28125 L 589.761719 425.28125 C 609.90625 425.28125 626.238281 441.613281 626.238281 461.761719 L 626.238281 466.238281 C 626.238281 486.386719 609.90625 502.71875 589.761719 502.71875 L 376.320312 502.71875 C 356.171875 502.71875 339.839844 486.386719 339.839844 466.238281 L 339.839844 461.761719 C 339.839844 441.613281 356.171875 425.28125 376.320312 425.28125 Z M 376.320312 425.28125 "/>
</g>
</svg>
