<svg viewBox="0 0 16 16" xmlns="http://www.w3.org/2000/svg"><g fill="#efefef"><path d="m12.851562 10.6875v.002c-.543979.00002-1.10596.139912-1.625.419922l-.140625.07227.363282 1.193359.199218-.08594c.59583-.387229 1.489965-.493185 1.453125-.03516-.0369.45932-.53391.431641-1.130859.431641v.96875c.48448 0 1.528292.01421 1.382813.472656-.18125.5711-1.169996.131117-1.734375-.0078l-.199219-.08203-.367188 1.238282.152344.07031c.49771.23541.948614.341797 1.501953.341797.63196 0 1.168117-.134288 1.560547-.392578.39242-.2583.636719-.657271.636719-1.119141 0-.537199-.370273-.901007-.851563-1.117187.53115-.35391.48997-.62996.59961-.97461 0-.425899-.180077-.794326-.498047-1.035156-.31796-.240887-.758745-.361395-1.302735-.361385z"/><path d="m12.935547 1.5859375c-.740269.005-1.305928.3520931-1.935547.9140625l.5 1c.899229-.5894394 1.837924-1.0511468 1.865234-.3046875.0196.5361795-1.553106.8048785-2.072265 1.8359375v.96875h3.707031v-1h-2c1.499998-.4999995 1.777701-1.2983361 1.832031-1.7910156.0889-.8061592-.895195-1.6300569-1.896484-1.6230469z" opacity=".35"/><path d="m8.5 12.005859c.2769997 0 .5.223001.5.5v.988282c0 .276999-.2230003.5-.5.5h-7c-.277 0-.5-.223001-.5-.5v-.988282c0-.276999.223-.5.5-.5z"/><path d="m8.5 2.00586c.277 0 .5.223.5.5v.98828c0 .277-.223.5-.5.5h-7c-.277 0-.5-.223-.5-.5v-.98828c0-.277.223-.5.5-.5zm6 5c.277 0 .5.223.5.5v.98828c0 .277-.223.5-.5.5h-13c-.277 0-.5-.223-.5-.5v-.98828c0-.277.223-.5.5-.5z" opacity=".35"/></g></svg>