<svg enable-background="new 0 0 254 230" height="230" viewBox="0 0 254 230" width="254" xmlns="http://www.w3.org/2000/svg" xmlns:xlink="http://www.w3.org/1999/xlink"><linearGradient id="a"><stop offset="0" stop-color="#3a7c06"/><stop offset=".168" stop-color="#41850c"/><stop offset=".438" stop-color="#549c1d"/><stop offset=".7744" stop-color="#74c239"/><stop offset="1" stop-color="#8ce04e"/></linearGradient><linearGradient id="b" gradientUnits="userSpaceOnUse" x1="41.5952" x2="205.9955" xlink:href="#a" y1="151.3574" y2="300.9854"/><linearGradient id="c"><stop offset=".0109" stop-color="#3a7c06"/><stop offset="1" stop-color="#233c17"/></linearGradient><linearGradient id="d" gradientTransform="matrix(1 0 0 -1 0 2294.2676)" gradientUnits="userSpaceOnUse" x1="175.8262" x2="224.4692" xlink:href="#c" y1="2120.8652" y2="2094.5918"/><linearGradient id="e" gradientTransform="matrix(1 0 0 -1 0 2294.2676)" gradientUnits="userSpaceOnUse" x1="220.2344" x2="130.9715" xlink:href="#a" y1="2182.6348" y2="2086.3513"/><linearGradient id="f" gradientUnits="userSpaceOnUse" x1="210.2529" x2="56.3355" xlink:href="#a" y1="95.834" y2="-124.7966"/><linearGradient id="g" gradientTransform="matrix(-1 0 0 1 -5170.1484 -5806.0049)" gradientUnits="userSpaceOnUse" x1="-5255.5791" x2="-5206.936" xlink:href="#c" y1="5863.3926" y2="5837.1191"/><linearGradient id="h" gradientTransform="matrix(-1 0 0 1 -5170.1484 -5806.0049)" gradientUnits="userSpaceOnUse" x1="-5211.168" x2="-5300.4331" xlink:href="#a" y1="5925.1631" y2="5828.8774"/><path d="m31.804 146.805 33.205-.588s17.062 66.126 79.005 71.562c-90.367 13.582-112.129-67.437-112.21-70.974z" fill="url(#b)"/><path d="m249.258 144.184-19.755.604-2.188-.007c-22.7 85.313-115.765 87.29-154.632 60.169 67.602 35.182 113.15-17.449 120.23-60.218l-23.576.505-1.543-2.46 48.087-35.48 31.422 34.782-8.114-.391 8.479.782z" fill="url(#d)"/><path d="m73.828 205.697c39.239 27.379 134.127 26.866 155.675-60.91l19.755-.604-31.429-34.781-48.491 35.834s9.269-.449 25.499-.546c-5.68 43.248-52.088 96.878-121.009 61.007z" fill="url(#e)"/><path d="m72.684 204.949s23.955 15.033 52.932 11.96c23.317-1.923 59.57-20.688 69.222-72.219l-25.499.546 48.491-35.834 1.713 1.894-45.143 32.569h22.333s-10.357 66.563-69.77 73.52c0 0-27.964 4.359-54.279-12.436z" fill="#fff" opacity=".3"/><path d="m229.45 83.984-33.201.588s-17.06-66.127-79.006-71.562c90.361-13.583 112.124 67.437 112.207 70.974z" fill="url(#f)"/><path d="m11.999 86.604 19.753-.604 2.19.006c22.7-85.311 115.757-87.287 154.631-60.166-67.603-35.184-113.149 17.448-120.235 60.218l23.575-.507 1.548 2.461-48.086 35.48-31.426-34.782 8.12.39-8.482-.781z" fill="url(#g)"/><path d="m187.428 25.09c-39.24-27.379-134.13-26.865-155.676 60.911l-19.753.604 31.424 34.782 48.49-35.836s-9.26.45-25.492.548c5.676-43.249 52.086-96.88 121.007-61.009z" fill="url(#h)"/><path d="m188.573 25.84s-23.959-15.033-52.936-11.96c-23.321 1.922-59.565 20.687-69.217 72.219l25.492-.548-48.49 35.836-1.709-1.895 45.143-32.57h-22.332s10.357-66.561 69.764-73.52c0 0 27.969-4.357 54.285 12.438z" fill="#fff" opacity=".3"/></svg>