<svg enable-background="new 0 0 385 275" height="275" viewBox="0 0 385 275" width="385" xmlns="http://www.w3.org/2000/svg" xmlns:xlink="http://www.w3.org/1999/xlink"><mask id="a" height="37.483" maskUnits="userSpaceOnUse" width="49.007" x="7.118" y="71.804"><path d="m3.266 73.139 5.783-2.893 48.971 37.403-4.242 6.364z" fill="url(#F)"/></mask><mask id="b" height="71.843" maskUnits="userSpaceOnUse" width="183.517" x="100.372" y="145.167"><path d="m98.51 143.704h186.248v74.616h-186.248z" fill="url(#G)"/></mask><linearGradient id="c"><stop offset="0" stop-color="#0c6dcf"/><stop offset="1" stop-color="#0683f4"/></linearGradient><linearGradient id="d" gradientUnits="userSpaceOnUse" x1="231.7827" x2="376.7251" xlink:href="#c" y1="95.839798" y2="95.839798"/><linearGradient id="e"><stop offset="0" stop-color="#0d69c8"/><stop offset="1" stop-color="#0683f4"/></linearGradient><linearGradient id="f" gradientUnits="userSpaceOnUse" x1="289.09521" x2="301.18411" xlink:href="#e" y1="68.075699" y2="68.075699"/><linearGradient id="g" gradientUnits="userSpaceOnUse" x1="358.2739" x2="271.51071" xlink:href="#e" y1="62.401402" y2="90.165703"/><linearGradient id="h" gradientUnits="userSpaceOnUse" x1="231.7827" x2="237.13229" xlink:href="#c" y1="89.991203" y2="89.991203"/><linearGradient id="i"><stop offset="0" stop-color="#0d69c8"/><stop offset="1" stop-color="#2ca5ff"/></linearGradient><linearGradient id="j" gradientUnits="userSpaceOnUse" x1="266.54251" x2="306.64569" xlink:href="#i" y1="113.666" y2="52.355099"/><linearGradient id="k" gradientUnits="userSpaceOnUse" x1="312.30319" x2="344.30701" xlink:href="#i" y1="131.8828" y2="69.417198"/><linearGradient id="l" gradientUnits="userSpaceOnUse" x1="348.6138" x2="350.34891" xlink:href="#i" y1="150.45799" y2="38.8255"/><linearGradient id="m" gradientUnits="userSpaceOnUse" x1="138.2271" x2="245.8091" xlink:href="#e" y1="48.8447" y2="48.8447"/><linearGradient id="n" gradientUnits="userSpaceOnUse" x1="178.3721" x2="201.8932" xlink:href="#e" y1="68.680199" y2="1.586"/><linearGradient id="o" gradientUnits="userSpaceOnUse" x1="152.18851" x2="153.34531" xlink:href="#e" y1="58.314499" y2="24.7651"/><linearGradient id="p" gradientUnits="userSpaceOnUse" x1="179.8618" x2="153.5442" xlink:href="#e" y1="67.6978" y2="34.728401"/><linearGradient id="q" gradientUnits="userSpaceOnUse" x1="191.5029" x2="191.79221" xlink:href="#e" y1="88.188499" y2="44.806499"/><linearGradient id="r" gradientUnits="userSpaceOnUse" x1="206.479" x2="217.2778" xlink:href="#e" y1="57.713902" y2="57.713902"/><linearGradient id="s" gradientUnits="userSpaceOnUse" x1="216.12061" x2="245.8091" xlink:href="#e" y1="43.9282" y2="43.9282"/><linearGradient id="t"><stop offset="0" stop-color="#0683f4"/><stop offset="1" stop-color="#2ca5ff"/></linearGradient><linearGradient id="u" gradientUnits="userSpaceOnUse" x1="7.1177" x2="152.33839" xlink:href="#t" y1="95.837898" y2="95.837898"/><linearGradient id="v" gradientUnits="userSpaceOnUse" x1="83.060997" x2="95.056198" xlink:href="#e" y1="68.057098" y2="68.057098"/><linearGradient id="w" gradientUnits="userSpaceOnUse" x1="174.8315" x2="-20.672199" xlink:href="#i" y1="43.084999" y2="110.1809"/><linearGradient id="x" gradientUnits="userSpaceOnUse" x1="15.9141" x2="61.413799" xlink:href="#i" y1="129.6084" y2="81.024101"/><linearGradient id="y" gradientUnits="userSpaceOnUse" x1="70.1978" x2="58.629398" xlink:href="#c" y1="151.5313" y2="87.905098"/><linearGradient id="z" gradientUnits="userSpaceOnUse" x1="119.229" x2="47.505699" xlink:href="#i" y1="111.7969" y2="34.289398"/><linearGradient id="A" gradientUnits="userSpaceOnUse" x1="147.17329" x2="152.33839" xlink:href="#i" y1="90.137703" y2="90.137703"/><linearGradient id="B" gradientUnits="userSpaceOnUse" x1="245.57761" x2="91.032204" xlink:href="#t" y1="191.9922" y2="141.1301"/><linearGradient id="C" gradientUnits="userSpaceOnUse" x1="221.7153" x2="158.0918" xlink:href="#i" y1="95.695297" y2="202.1201"/><linearGradient id="D" gradientUnits="userSpaceOnUse" x1="271.08151" x2="120.6995" xlink:href="#t" y1="196.4756" y2="224.2384"/><linearGradient id="E" gradientUnits="userSpaceOnUse" x1="100.3716" x2="192.1167" xlink:href="#t" y1="202.56641" y2="202.56641"/><linearGradient id="F" gradientUnits="userSpaceOnUse" x1="32.8496" x2="29.9569" y1="87.8062" y2="91.6627"><stop offset="0" stop-color="#fff"/><stop offset=".0105" stop-color="#f8f8f8"/><stop offset=".0872" stop-color="#ccc"/><stop offset=".1646" stop-color="#a7a7a7"/><stop offset=".2415" stop-color="#8a8a8a"/><stop offset=".3179" stop-color="#757575"/><stop offset=".3934" stop-color="#696969"/><stop offset=".467" stop-color="#656565"/><stop offset=".5548" stop-color="#6d6d6d"/><stop offset=".6905" stop-color="#838383"/><stop offset=".8562" stop-color="#a6a6a6"/><stop offset="1" stop-color="#cacaca"/></linearGradient><linearGradient id="G" gradientUnits="userSpaceOnUse" x1="152.9058" x2="239.0892" y1="229.6172" y2="121.4539"><stop offset="0" stop-color="#fff"/><stop offset="1"/></linearGradient><path d="m66 39h253v197h-253z" fill="none"/><path d="m234.713 145.397 49.175-.198-6.07 39.572-85.701 75.195-86.09-75.195-5.655-39.604 48.257.057 24.721-50.641 36.759.168z" fill="url(#B)"/><path d="m283.888 145.199-49.175.198-24.604-50.646-36.759-.168-24.721 50.641-48.257-.057 91.745 71.843z" fill="url(#C)"/><path d="m192.117 217.01v42.956l85.701-75.195 6.07-39.572z" fill="url(#D)"/><path d="m100.372 145.167 5.655 39.604 86.09 75.195v-42.956z" fill="url(#E)"/><path d="m73.061 123.459 76.473-8.62 2.804-16.905-1.951-32.498-57.571-5.696-2.116-14.368-83.582 27.187 9.257 33.257 46.127 40.489z" fill="url(#u)"/><path d="m90.778 45.369-7.717 13.304 4.988 32.073 7.007-15.204z" fill="url(#v)"/><path d="m147.193 80.656 3.082-15.326-67.15-6.532 7.575-13.426-83.582 27.187 47.431 36.728 11.858-20.535z" fill="url(#w)"/><path d="m7.118 72.559 9.257 33.257 46.127 40.489-7.953-37.018z" fill="url(#x)"/><path d="m66.407 88.752 6.654 34.707-10.559 22.846-7.953-37.018z" fill="url(#y)"/><path d="m149.534 114.839-76.473 8.62-6.672-34.921 80.784-8.097z" fill="url(#z)"/><path d="m150.387 65.436-3.214 15.005 2.361 34.398 2.804-16.905z" fill="url(#A)"/><path d="m177.367 85.67h29.112l9.642-27.571h27.764l1.924-28.342-53.791-17.738-53.791 17.738 1.736 28.342 27.184-.193z" fill="url(#m)"/><path d="m217.278 29.757h28.531l-53.791-17.738-53.791 17.738 28.344.192 10.024 24.295h30.269z" fill="url(#n)"/><path d="m139.963 58.099 27.184-.193-.576-27.957-28.344-.192z" fill="url(#o)"/><path d="m166.571 29.949 10.024 24.295.772 31.426-10.22-27.764z" fill="url(#p)"/><path d="m206.864 54.244h-30.269l.772 31.426h29.112z" fill="url(#q)"/><path d="m217.278 29.757-10.414 24.487-.385 31.426 9.642-27.571z" fill="url(#r)"/><path d="m243.885 58.099h-27.764l1.157-28.342h28.531z" fill="url(#s)"/><path d="m321.776 146.305 45.982-40.489 8.967-33.257-83.29-27.184-2.078 14.472-57.627 5.682-1.947 32.293 2.828 16.97 76.424 8.822z" fill="url(#d)"/><path d="m293.435 45.519-4.34 29.932 6.94 15.181 5.149-31.244z" fill="url(#f)"/><path d="m329.489 109.387-11.954-20.631-80.403-8.1-3.469-15.422 67.323-6.285-7.551-13.574 83.29 27.184z" fill="url(#g)"/><path d="m231.783 97.822 2.828 16.631 2.521-33.797-3.402-15.127z" fill="url(#h)"/><path d="m311.035 123.614 6.5-34.858-80.403-8.1-2.521 34.136z" fill="url(#j)"/><path d="m329.489 109.387-7.713 36.918-10.741-22.691 6.5-34.858z" fill="url(#k)"/><path d="m376.725 72.559-8.967 33.257-45.982 40.489 7.713-36.918z" fill="url(#l)"/><g fill="#fff"><path d="m56.125 106.561-1.576 2.726-47.431-36.728 2.317-.755z" mask="url(#a)" opacity=".38"/><path d="m275.116 145.233 8.772-.034-91.771 71.811-91.745-71.843 6.621.009 85.219 65.238z" mask="url(#b)" opacity=".15"/><path d="m329.489 109.387-2.16-3.727 44.787-34.604 4.609 1.503z" opacity=".2"/></g></svg>