<svg enable-background="new 0 0 60.667 59.5" height="59.5" viewBox="0 0 60.667 59.5" width="60.667" xmlns="http://www.w3.org/2000/svg" xmlns:xlink="http://www.w3.org/1999/xlink"><linearGradient id="a" gradientUnits="userSpaceOnUse" x1="2.7007" x2="57.498" y1="29.7476" y2="29.7476"><stop offset="0" stop-color="#d25a00"/><stop offset="1" stop-color="#f97700"/></linearGradient><path d="m2.701 29.824 29.03 25.606s-.019-7.653-.021-9.098h25.788v-31.932s-24.162 0-25.871 0c-.005-1.489-.029-10.335-.029-10.335z" fill="url(#a)"/><path d="m32.514 2.016-3.058 2.724-26.594 23.705-1.551 1.382 1.558 1.375 26.717 23.565 3.071 2.708-.01-4.095-.016-6.128h23.944 1.842v-1.842-30.09-1.842h-1.842-24.031l-.02-7.369zm-28.426 27.804 26.595-23.705.024 9.206h25.869v30.09h-25.791l.005 1.842.016 6.133z" fill="#7c4400"/><path d="m30.683 6.135-1.428 1.254-25.166 22.431 1.049.926 25.55-22.428zm10.56 39.276 15.334-13.46v-2.188l-17.828 15.648zm-10.547-34.141-23.877 20.959 1.244 1.097 22.64-19.872zm22.272 34.141 3.609-3.169v-2.188l-6.104 5.357zm-5.864 0 9.473-8.315v-2.188l-11.965 10.503zm-15.162-30.09-22.2 19.485 1.244 1.097 23.449-20.582zm24.635 30.09v-.3l-.34.3zm-31.021 3.344 31.021-27.229v-2.188l-32.264 28.32zm4.68 4.128.569.502-.002-.999zm7.57-37.562-25.139 22.066 1.244 1.096 26.388-23.161h-2.493zm-7.016 31.931-3.478 3.052 1.244 1.098 2.24-1.966zm4.59-1.841 21.197-18.606v-2.188l-23.689 20.794zm8.185-30.09-28.025 24.6 1.244 1.097 29.276-25.697zm5.864 0-30.965 27.179 1.244 1.098 32.215-28.276h-2.494zm5.861 0-33.902 29.758 1.243 1.097 33.946-29.797v-1.058z" fill="#fff" opacity=".2"/></svg>