<svg enable-background="new 0 0 60.667 59.5" height="59.5" viewBox="0 0 60.667 59.5" width="60.667" xmlns="http://www.w3.org/2000/svg"><path d="m29.041 14.399c-1.709 0-25.873 0-25.873 0v31.932h25.79c-.003 1.444-.022 9.099-.022 9.099l29.032-25.607-28.899-25.758s-.025 8.846-.028 10.334z" fill="#011f69"/><path d="m28.152 2.015-.01 4.095-.02 7.369h-24.034-1.841v1.842 30.09 1.842h1.842 23.945l-.015 6.128-.01 4.095 3.071-2.708 26.718-23.565 1.558-1.375-1.551-1.382-26.595-23.706zm-24.064 13.306h25.871l.024-9.206 26.594 23.705-26.717 23.566.016-6.133.005-1.842h-25.793z" fill="#001428"/><path d="m29.979 8.318 25.55 22.428 1.05-.926-25.167-22.432-1.428-1.254zm-8.062 37.093-17.828-15.649v2.189l15.335 13.46zm8.048-31.958 22.639 19.872 1.244-1.097-23.877-20.959zm-19.773 31.958-6.104-5.357v2.188l3.61 3.169zm5.863 0-11.966-10.503v2.188l9.474 8.315zm10.177-30.091 23.448 20.583 1.243-1.098-22.198-19.485zm-21.802 30.091-.341-.3v.3zm31.924 2.247-32.265-28.321v2.188l31.021 27.23zm-6.491 4.727-.002 1 .568-.503zm-9.494-37.065 26.387 23.163 1.244-1.097-25.139-22.066zm9.502 34.115 2.239 1.966 1.244-1.097-3.478-3.053zm-2.092-4.024-23.69-20.795v2.188l21.197 18.607zm-13.172-30.091 29.275 25.697 1.243-1.097-28.025-24.6zm-5.863 0 32.215 28.277 1.244-1.098-30.965-27.179zm-4.655 0v1.058l33.946 29.797 1.243-1.097-33.901-29.758z" fill="#fff" opacity=".2"/></svg>