<svg enable-background="new 0 0 60.667 59.499" height="59.499" viewBox="0 0 60.667 59.499" width="60.667" xmlns="http://www.w3.org/2000/svg" xmlns:xlink="http://www.w3.org/1999/xlink"><linearGradient id="a" gradientTransform="matrix(-1 0 0 1 176.5781 0)" gradientUnits="userSpaceOnUse" x1="120.2275" x2="172.6006" y1="29.75" y2="29.75"><stop offset="0" stop-color="#327a29"/><stop offset="1" stop-color="#233c17"/></linearGradient><path d="m27.788 16.94c-.974 0-15.816 0-15.816 0-5.052 0-9.162 4.109-9.162 9.16v7.295c0 5.053 4.11 9.164 9.162 9.164h15.816v13.628l30.341-26.435-30.341-26.439z" fill="#233c17"/><path d="m27.269 2.171v2.283 11.967h-15.297c-5.338 0-9.682 4.342-9.682 9.679v7.296c0 5.339 4.344 9.683 9.682 9.683h15.297v11.967 2.282l1.721-1.499 29.031-25.293.898-.783-.898-.783-29.032-25.299zm1.039 2.283 29.031 25.299-29.031 25.293v-13.006h-16.336c-4.771 0-8.643-3.867-8.643-8.644v-7.296c0-4.771 3.872-8.64 8.643-8.64h15.297 1.039z" fill="#233c17"/><path d="m28.957 18.108h-16.985c-4.408 0-7.994 3.585-7.994 7.992v7.295c0 4.408 3.586 7.995 7.994 7.995h16.985v12.229c1.955-1.702 26.355-22.961 27.394-23.867-1.039-.905-25.44-22.169-27.394-23.872z" fill="url(#a)"/><path d="m28.308 4.454v1.298.424 11.284h-16.336c-4.771 0-8.643 3.869-8.643 8.64v7.296c0 4.776 3.872 8.644 8.643 8.644h16.336v11.284.424 1.298l.979-.853.319-.278 26.745-23.301.009-.008.979-.853zm-16.336 36.288c-4.05 0-7.345-3.296-7.345-7.346v-7.296c0-4.048 3.295-7.342 7.345-7.342h16.336 1.298v-1.298-10.152l25.757 22.445-25.757 22.44v-10.153-1.298h-1.298z" fill="#77bc4b"/></svg>