<svg viewBox="0 0 24 24" xmlns="http://www.w3.org/2000/svg"><path d="m12 2a10 3 0 0 0 -10 3v10.003906h2.2304688a9 2 0 0 1 -1.2304688-1.003906v-3.701172a10 3 0 0 0 4.28125 1.341797c.0492265-.071331.1030081-.140117.1660156-.203125.287858-.287855.6785272-.4375 1.0585938-.4375.3800883 0 .7679971.14495 1.0605468.4375a.99621059.99621059 0 0 0 0 .001953l.4980468.5a10 3 0 0 0 1.035156.044922c.005274-.014324.00805-.030974.013672-.044922.074043-.183695.185843-.353519.328125-.496094l.44336-.445312a9 2 0 0 1 -8.884766-1.998047v-2.7011719a10 3 0 0 0 9 1.7011719 10 3 0 0 0 3.015625-.140625l.417969-.4199219a.99621059.99621059 0 0 0 0-.0019531c.292561-.2925738.680479-.4375 1.060547-.4375.380091-.0000006.770731.1496377 1.058593.4375.014643.0146427.025166.0317412.039063.046875a10 3 0 0 0 3.408203-1.1816406v2.6972656a9 2 0 0 1 -4.638672 1.748047l-.255859.255859 3.30664.001953a10 3 0 0 0 1.587891-.703125v.703125l1 .001953v-2.007812-4a10 3 0 0 0 -10-3zm0 1a9 2 0 0 1 9 2 9 2 0 0 1 -9 2 9 2 0 0 1 -9-2 9 2 0 0 1 9-2zm9 10.998047v.001953a9 2 0 0 1 -3.355469 1.556641c.199231.244352.309185.538862.330078.841797a10 3 0 0 0 3.025391-1.095704v3.697266a9 2 0 0 1 -9 2 9 2 0 0 1 -1.832031-.041016l-.6015628.601563a.99621059.99621059 0 0 0 0 .001953c-.1348111.134817-.2918225.234258-.4570312.306641a10 3 0 0 0 2.890625.130859 10 3 0 0 0 10-3v-5zm-7.095703 2.027344c.049727.146055.091797.301896.091797.474609 0 .158371-.031578.304716-.074219.441406a10 3 0 0 0 .833984-.060547zm-11.904297 1.970703v1.003906a10 3 0 0 0 5.6074219 2.693359c-.055167-.041356-.1105218-.081227-.1601563-.130859-.24721-.247211-.3812357-.567265-.4160156-.896484a9 2 0 0 1 -4.03125-1.666016v-1.003906z" fill="#fafafa"/><g fill="#1e8bcd" transform="matrix(1 0 0 -1 0 27)"><path d="m8.5058594 5.9960938c-.127809 0-.2555807.048549-.3535156.1464843-.1958681.195869-.1958681.5131154 0 .7089844l3.1406252 3.1484375-9.792969-.0039062c-.277-.0001105-.5.2230002-.5.5000002s.223.499889.5.5l9.792969.003906-3.1406252 3.148438c-.1958681.195869-.195868.513115 0 .708984.097935.09793.2257066.146484.3535156.146484.127808 0 .2575387-.04855.3554687-.146484l3.9921879-4.003906c.04702-.04701.08407-.103236.109375-.166016.02334-.057904.037109-.12105.037109-.1875s-.01377-.129596-.03711-.1875c-.0253-.06278-.06236-.119003-.109375-.166016l-3.9921869-4.0039059c-.09793-.09793-.2276607-.1464844-.3554687-.1464843z" transform="matrix(-1 0 0 1 25 4)"/><path d="m8.5058594 5.9960938c-.127809 0-.2555807.048549-.3535156.1464843-.1958681.195869-.1958681.5131154 0 .7089844l3.1406252 3.1484375h-10.792969c-.277 0-.5.223-.5.5s.223.5.5.5h10.792969l-3.1406252 3.148438c-.1958681.195869-.195868.513115 0 .708984.097935.09793.2257066.146484.3535156.146484.127808 0 .2575387-.04855.3554687-.146484l3.9921879-4.003906c.04702-.04701.08407-.103236.109375-.166016.02334-.057904.037109-.12105.037109-.1875s-.01377-.129596-.03711-.1875c-.0253-.06278-.06236-.119003-.109375-.166016l-3.9921869-4.0039059c-.09793-.09793-.2276607-.1464844-.3554687-.1464843z"/></g></svg>