<svg height="24" viewBox="0 0 6.3499999 6.3500002" width="24" xmlns="http://www.w3.org/2000/svg"><g stroke-width=".264583" transform="translate(0 -290.64998)"><path d="m9 2c-.5539997 0-1 .4459969-1 1v2h-5c-.554 0-1 .4459969-1 1v15c0 .554003.446 1 1 1h7.972656l-.921875-1h-7.050781v-12h5v9c0 .554003.4460003 1 1 1h.2949219c.073486-.294245.2173296-.573091.4433593-.798828.00451-.0046.00907-.0092.013672-.01367l.1953124-.187502h-.9472656v-9h6v4.070312l1-.996093v-6.074219h5v4.138672l1 1.066406v-8.205078c0-.5540031-.446-1-1-1z" fill="#fafafa" stroke-width=".999999" transform="matrix(.26458334 0 0 .26458334 0 290.64998)"/><g fill="#98989d"><g fill="#c8c6c4"><path d="m16.5 10c-.277001 0-.5.223-.5.5s.222999.5.5.5h.578125l1.003906-1z" stroke-width=".999999" transform="matrix(.26458334 0 0 .26458334 0 290.64998)"/><rect height=".264583" rx=".132292" width="1.058333" x="4.233333" y="292.50208"/><rect fill="#c8c6c4" height=".264583" rx=".132292" width="1.058333" x="1.058333" y="293.29584"/><rect height=".264583" rx=".132292" width="1.058333" x="1.058333" y="294.08957"/><rect height=".264583" rx=".132292" width="1.058333" x="1.058333" y="294.88333"/></g><g fill="#1e8bcd"><path d="m10.5 16c-.277001 0-.5.223-.5.5s.222999.5.5.5h.484375l1.039063-1z" stroke-width=".999999" transform="matrix(.26458334 0 0 .26458334 0 290.64998)"/><rect height=".264583" rx=".132292" width="1.058333" x="2.645833" y="293.29584"/><rect height=".264583" rx=".132292" width="1.058333" x="2.645833" y="294.08957"/></g><rect fill="#c8c6c4" height=".264583" rx=".132292" width="1.058333" x="1.058333" y="295.67709"/></g><path d="m.79375 291.97292c-.14657916 0-.26458333.118-.26458333.26458v.52917.26458h.26458333 3.175.2645834v-.26458-.52917c0-.14658-.1180042-.26458-.2645834-.26458z" fill="#fafafa"/><path d="m.79375 292.2375v.52917h1.3229167v-.52917zm1.5875 0v.52917h1.5875v-.52917z" fill="#797774"/><path d="m2.38125 291.17917c-.1465791 0-.2645833.118-.2645833.26458v.52917.26458h.2645833 3.175.2645834v-.26458-.52917c0-.14658-.1180042-.26458-.2645834-.26458z" fill="#fafafa"/><path d="m2.38125 291.44375h3.175v.52917h-3.175z" fill="#797774"/></g><g fill="#ed3d3b" transform="scale(.26458333)"><path d="m16.518661 20.388672 6.495399-6.642082-3.51406-3.74659-6.590273 6.561871z" fill="#ff9198"/><path d="m13.579208 23c.189562 0 .378184-.07172.523438-.216797l2.416015-2.394531-3.620653-3.844379-2.453125 2.363281c-.290506.290127-.290506.756747 0 1.046875l2.608935 2.828754c.145254.145064.335828.216797.52539.216797z" fill="#ff9198"/><path d="m19.482422 11.048828-5.552734 5.529297 2.599609 2.755859 5.472656-5.597656z" fill="#d42314"/></g></svg>