<svg viewBox="0 0 24 24" xmlns="http://www.w3.org/2000/svg"><path d="m5 2c-.554 0-1 .446-1 1v18c0 .554.446 1 1 1h14c.554 0 1-.446 1-1v-1.5l-.003906.5h-.996094v1h-14v-5.5-12.5h9v4c0 .554.446 1 1 1h4v3h1v-.109375-3.640625-.2089844c0-.4506799.098038-.4254121-.605469-1.0664062l-3.30664-3.2382813c-.709525-.7368575-.710169-.7363281-1.09375-.7363281h-.332032-.662109zm10 1 4 4h-4zm4 9v3 1 3h1v-7z" fill="#fafafa"/><path d="m4 10v11h17v-11zm4.0058594.996094c.448845 0 .8563192.112557 1.2226562.335937.369637.218913.6845866.529556.9453124.931641.264027.397617.465509.873751.607422 1.427734.145215.549516.21875 1.151855.21875 1.808594 0 .661205-.073537 1.266889-.21875 1.816406-.141913.549516-.343395 1.022305-.607422 1.419922-.2607258.397618-.5756754.708261-.9453124.931641-.366337.218913-.7738112.328125-1.2226562.328125-.4455442 0-.8549725-.109212-1.2246094-.328125-.3696369-.22338-.6851924-.534023-.9492188-.931641-.2640263-.397617-.4680667-.870406-.6132812-1.419922-.1452145-.549517-.21875-1.155201-.21875-1.816406 0-.656739.0735352-1.259078.21875-1.808594.1452145-.553983.3492548-1.030117.6132812-1.427734.2640264-.402085.5795819-.712728.9492188-.931641.3696369-.22338.7790652-.335937 1.2246094-.335937zm3.9941406.003906h1.056641v8h1.943359v1h-3zm4 0h4v1h-2.810547v3h1.810547v1h-1.810547v3h2.814453l-.007812 1h-3.996094zm-7.9941406 1.048828c-.3168314 0-.6039025.079405-.8613282.240234-.2541253.156368-.4727787.384264-.6542968.683594-.1815181.294863-.3228651.657048-.421875 1.085938-.0957095.424423-.1425782.905292-.1425782 1.441406 0 .536113.0468689 1.018375.1425782 1.447266.09901.424423.2403569.786608.421875 1.085937.1815181.294863.4001713.521368.6542968.677735.2574257.156366.5444968.234374.8613282.234374.316832 0 .6013427-.078005.8554687-.234374.257425-.156366.4760789-.382872.6542969-.677735.181519-.299329.3203066-.661514.4160156-1.085937.0990104-.428891.1484374-.911153.1484374-1.447266 0-.536114-.049421-1.016983-.1484374-1.441406-.09571-.42889-.2344966-.791075-.4160156-1.085938-.178218-.29933-.3968719-.527225-.6542969-.683594-.254126-.160833-.5386367-.240234-.8554687-.240234z" fill="#1e8bcd"/></svg>