<svg viewBox="0 0 24 24" xmlns="http://www.w3.org/2000/svg"><path d="m5 2c-.554 0-1 .446-1 1v18c0 .554.446 1 1 1h6.365234l-.666015-1h-5.699219v-18h9v4c0 .554.446 1 1 1h4v4h1v-1.109375-3.640625-.2089844c0-.4506799.098038-.4254121-.605469-1.0664062l-3.30664-3.2382813c-.709525-.7368575-.710169-.7363281-1.09375-.7363281h-.332032-.662109zm10 1 4 4h-4z" fill="#fafafa"/><g fill="none" stroke="#1e8bcd" stroke-linecap="round"><path d="m17.502922 13.493488-2 9"/><g stroke-linejoin="round"><path d="m18.50505 22.49495 4-4.49495-3.00505-4.50505"/><path d="m13.5 22.49495-3.000017-4.49495 4-4.50505"/></g></g></svg>