<svg height="24" viewBox="0 0 24 24" width="24" xmlns="http://www.w3.org/2000/svg"><path d="m1 6c-.554 0-1 .446-1 1v10c0 .554.446 1 1 1h22c.554 0 1-.446 1-1v-10c0-.554-.446-1-1-1zm0 1h3v1h-3zm4 0h2v1h-2zm3 0h2v1h-2zm3 0h2v1h-2zm3 0h2v1h-2zm3 0h2v1h-2zm3 0h3v1h-3zm-19 2h3v2h-3zm4 0h2v2h-2zm3 0h2v2h-2zm3 0h2v2h-2zm3 0h2v2h-2zm3 0h2v2h-2zm3 0h3v2h-3zm-18 3h2v2h-2zm3 0h2v2h-2zm3 0h2v2h-2zm3 0h2v2h-2zm3 0h2v2h-2zm3 0h2v2h-2zm3 0h2v2h-2zm-18 3h2v2h-2zm3 0h14v2h-14zm15 0h2v2h-2z" fill="#fafafa"/></svg>