<svg viewBox="0 0 16 16" xmlns="http://www.w3.org/2000/svg">/&amp;amp;amp;amp;amp;amp;amp;amp;gt;<path d="m15 4v4 6h-9.390625l-1 1h10.390625c.554 0 1-.446 1-1v-6-4zm-15 1.90625v.9726562l.87890625-.8789062h-.37890625c-.17489052 0-.34242982-.0358913-.5-.09375zm0 3.9960938v2.4843752l1-1v-1.4843752c-.32340432.1109912-.67684444.1118142-1 0z" fill="#fafafa"/><path d="m11.212891 6 .49414.4941406a.99570177.99570177 0 0 1 .269531.5058594h.523438c.277 0 .5-.223.5-.5s-.223-.5-.5-.5zm.396484 2-1 1h1.890625c.277 0 .5-.223.5-.5s-.223-.5-.5-.5zm-2 2-1 1h3.890625c.277 0 .5-.223.5-.5s-.223-.5-.5-.5zm-1.109375 2c-.277 0-.5.223-.5.5s.223.5.5.5h4c.277 0 .5-.223.5-.5s-.223-.5-.5-.5z" fill="#c8c6c4"/><path d="m9.9003906 1c-.0707617.2070303-.1817515.4024546-.34375.5644531l-1.4355468 1.4355469h.3789062c.8137028 0 1.5.6862972 1.5 1.5 0 .0846817-.0296732.16125-.0449219.2421875l.2578129.2578125h5.787109v-4zm-9.9003906 1.1230469v.9707031c.15757018-.0578587.32510948-.09375.5-.09375h.37695312z" fill="#fafafa"/><path d="m9.1210938 2-1 1h.3789062c.6388123 0 1.194913.4244527 1.40625 1h5.09375v-2z" fill="#797774"/><path d="m4.5 0c-.277 0-.5.223-.5.5v1.5507812a2.5 2.5 0 0 0 -.8789062.3652344l-2.26562505-2.26562498c-.19586858-.19586857-.51116267-.19586857-.70703125 0-.1958686.19586858-.1958686.51116268 0 .70703126l2.265625 2.26562502a2.5 2.5 0 0 0 -.359375.8769531h-1.5546875c-.277 0-.5.223-.5.5s.223.5.5.5h1.5507812a2.5 2.5 0 0 0 .3652344.8769531l-2.2675781 2.2675781c-.1958685.1958688-.1958685.5111627 0 .7070313.19586857.1958685.51116267.1958685.70703125 0l2.26757815-2.2675781a2.5 2.5 0 0 0 .8769531.3613281v1.5546875c0 .277.223.5.5.5s.5-.223.5-.5v-1.5507812a2.5 2.5 0 0 0 .875-.3652344l1.4042969 1.4042968.7070312-.7070312-1.4023437-1.4023438a2.5 2.5 0 0 0 .3613281-.8789062h1.5546875c.277 0 .5-.223.5-.5s-.223-.5-.5-.5h-1.5507812a2.5 2.5 0 0 0 -.3652344-.8769531l2.265625-2.26562502c.1958686-.19586858.1958686-.51116267 0-.70703126-.1958686-.19586857-.5111627-.19586857-.7070313 0l-2.265625 2.26562498a2.5 2.5 0 0 0 -.8769531-.3613281v-1.5546875c0-.277-.223-.5-.5-.5zm0 3a1.5 1.5 0 0 1 1.5 1.5 1.5 1.5 0 0 1 -1.5 1.5 1.5 1.5 0 0 1 -1.5-1.5 1.5 1.5 0 0 1 .4394531-1.0585938 1.5 1.5 0 0 1 .0019531-.0019531 1.5 1.5 0 0 1 1.0585938-.4394531zm4.21875 5.0136719-.7070312.7070312.1308593.1308594c.1958686.1958686.5111627.1958686.7070313 0s.1958686-.5111625 0-.7070313z" fill="#fb983b"/><path d="m8.8007812 5-8.8007812 8.800781 2.1992188 2.199219 8.8007812-8.8007812zm0 1.4667969.7324219.7324219-2.9335937 2.9335932-.7324219-.7324214z" fill="#fafafa" stroke-width="3.919708" transform="matrix(.99999999 0 0 .99999999 .000009 -.000008)"/></svg>