<svg viewBox="0 0 16 16" xmlns="http://www.w3.org/2000/svg">

/&amp;amp;gt;<path d="m5.5039062 0c-1.5833772 0-2.9812388.96502129-3.9511718 2.4199219-.96993304 1.4549005-1.54882815 3.418941-1.54882815 5.5800781 0 2.161137.57889512 4.125178 1.54882815 5.580078.969933 1.454901 2.3677946 2.419922 3.9511718 2.419922h9.9999998a.50005.50005 0 0 0 0-1c-1.178048 0-2.27943-.715045-3.11914-1.974609-.839711-1.259565-1.38086-3.044389-1.38086-5.025391 0-1.9810023.541149-3.7658263 1.38086-5.0253906.83971-1.2595643 1.941092-1.9746094 3.11914-1.9746094a.50005.50005 0 0 0 0-1zm0 1h7.3808598c-.494406.3901795-.95359.8522603-1.332032 1.4199219-.969933 1.454898-1.548828 3.4189298-1.548828 5.5800781 0 2.161148.578895 4.12518 1.548828 5.580078.378442.567662.837626 1.029743 1.332032 1.419922h-7.3808598c-1.1780461 0-2.2794294-.715042-3.1191406-1.974609-.8397111-1.259568-1.3808594-3.0444011-1.3808594-5.025391.0000002-1.9809901.5411483-3.765823 1.3808594-5.0253906.8397112-1.2595677 1.9410945-1.9746094 3.1191406-1.9746094z" fill="#fafafa"/></svg>