<svg viewBox="0 0 16 16" xmlns="http://www.w3.org/2000/svg"><path d="m3 0c-.554 0-1 .446-1 1v7.9902344h1v-7.9902344h6v3.5c0 .277.223.5.5.5h3.5v7 2 .091797.908203h-2-.740234-4.0585941-.4902344c-.0921034.0163-.1850477.028632-.2753906.025391-.0648431-.002328-.1242495-.015424-.1855469-.025391h-.25-2v-3.009766h-1v3.009766c0 .554.446 1 1 1h2 1.0292969 2.9433593 2.0273438 2c.554 0 1-.446 1-1v-.800781-.199219-2-7.5-.8632812l-3.636719-3.6367188h-.863281zm7 1 3 3h-3z" fill="#fafafa"/><g fill="none" stroke="#1e8bcd" stroke-linecap="round" stroke-linejoin="round" transform="matrix(-1 0 0 1 14.007121 6)"><path d="m8.507121 1.494946-2.9999998 2.9949499 2.9999998 3.0050501"/><path d="m5.5071212 4.4898959h7.9928788"/></g></svg>