<svg viewBox="0 0 16 16" xmlns="http://www.w3.org/2000/svg">
/&amp;amp;amp;gt;<path d="m8 0a8 8 0 0 0 -8 8 8 8 0 0 0 8 8 8 8 0 0 0 8-8 8 8 0 0 0 -8-8zm0 1a7 7 0 0 1 7 7 7 7 0 0 1 -7 7 7 7 0 0 1 -7-7 7 7 0 0 1 7-7z" fill="#83beec"/><path d="m8 1a7 7 0 0 0 -7 7 7 7 0 0 0 7 7 7 7 0 0 0 7-7 7 7 0 0 0 -7-7zm0 1c2.21 0 4 1.6697552 4 3.7324219 0 .8213334-.359687 1.5695625-.929688 2.1015625l-.90039.8574218c-.72.6813334-1.169922.9085938-1.169922 2.3085938h-2v-.132812c0-1.026668.4499219-1.9612452 1.1699219-2.6425786l1.2402343-1.1757813c.3699998-.336.5898438-.8030728.5898438-1.3164062 0-1.0266666-.9000001-1.8652344-2-1.8652344s-2 1.1061459-2 2.1328125h-2c0-2.0626667 1.7899993-4 4-4zm-1 10h2v2h-2z" fill="#0063b1"/></svg>