<svg viewBox="0 0 16 16" xmlns="http://www.w3.org/2000/svg">

/&amp;amp;amp;amp;amp;amp;amp;gt;<path d="m1 0c-.554 0-1 .446-1 1v14c0 .554.446 1 1 1h2c-.554 0-1-.446-1-1h-1v-14h10v1h1v-1c0-.554-.446-1-1-1z" fill="#fafafa"/><path d="m3 2c-.554 0-1 .446-1 1v12c0 .554.446 1 1 1h4.5l-.0859375-.171875-.828125-.828125h-3.5859375v-12h10v3h1v-3c0-.554-.446-1-1-1z" fill="#fafafa"/><circle cx="11.5" cy="16.5" fill="#3a3a38" r="0"/><circle cx="11.5" cy="16.5" fill="#500" r="0"/><path d="m7.4999999 7c-.2770004 0-.4971966.2230135-.5.5v6.5l2 2h6.5000001c.277002 0 .5-.223.5-.5v-8c0-.2770007-.222999-.5-.5-.5zm2.5000001 1h3v2h-3zm.207031 5h2.585938c.115026 0 .207031.10994.207031.246094v1.507812c0 .13615-.092005.246094-.207031.246094h-.792969v-1h-1v1h-.792969c-.115026 0-.2070311-.10994-.2070311-.246094v-1.507812c0-.13615.0920051-.246094.2070311-.246094z" fill="#d492d8" stroke-width=".999999"/><path d="m7.9999999 8v5l1 1v-2h5.0000001v3h1v-7h-1v3h-5.0000001v-3z" fill="#922e9b"/></svg>