<svg height="16" viewBox="0 0 4.2333333 4.2333334" width="16" xmlns="http://www.w3.org/2000/svg"><g transform="scale(.26458333)"><path d="m0 0v3h3v-3zm13 0v3h3v-3zm-12 1h1v1h-1zm13 0h1v1h-1zm-14 12v3h3v-3zm13 0v3h3v-3zm-12 1h1v1h-1zm13 0h1v1h-1z" fill="#83beec" stroke-width=".999999"/><g><g fill="#fafafa"><g stroke-width=".119133"><path d="m14 3h1v2h-1z"/><path d="m14 6h1v2h-1z"/><path d="m14 9h1v2h-1z"/></g><path d="m14 12h1v1h-1z" stroke-width=".08424"/><g stroke-width=".119133"><path d="m1 3h1v2h-1z"/><path d="m1 6h1v2h-1z"/><path d="m1 9h1v2h-1z"/></g><path d="m1 12h1v1h-1z" stroke-width=".08424"/><g stroke-width=".119133"><path d="m13 1v1h-2v-1z"/><path d="m10 1v1h-2v-1z"/><path d="m7 1v1h-2v-1z"/></g><path d="m4 1v1h-1v-1z" stroke-width=".08424"/><g stroke-width=".119133"><path d="m13 14v1h-2v-1z"/><path d="m10 14v1h-2v-1z"/><path d="m7 14v1h-2v-1z"/></g><path d="m4 14v1h-1v-1z" stroke-width=".08424"/></g><path d="m8.0253906 3a1.0004224 1.0004224 0 0 0 -1 1v2.6640625c-.0798003-.130918-.1207157-.2822728-.2226562-.3984375-.2616606-.2981712-.597539-.5273948-.9589844-.6757812-.377065-.1584194-.7825376-.2265626-1.1914062-.2265626-.532421 0-1.0523858.091834-1.5332032.2910157-.4720583.1933006-.8980816.4842494-1.2734375.8457031a1.0004224 1.0004224 0 0 0 -.1757812 1.2148438l.1757812.3085937a1.0004224 1.0004224 0 0 0 0 .0019531c.1051716.184052.2551042.3417223.4160157.453125.0586329.040593.13894.0339692.2070312.0644532-.3499291.2136201-.6693336.4827823-.8867188.8496093a1.0004224 1.0004224 0 0 0 -.0019531.0039063c-.1975132.3376751-.3066406.7338906-.3066406 1.1210936 0 .34693.052384.697748.1953125 1.03125a1.0004224 1.0004224 0 0 0 .0097656.021484c.1336634.29163.3288506.561989.5703125.777344a1.0004224 1.0004224 0 0 0 .0214844.019532c.2411946.20311.5220847.355064.8164063.451171a1.0004224 1.0004224 0 0 0 .0234374.007813c.2875234.08626.5839722.123047.8789063.123047.2594336 0 .5147619-.024085.765625-.078125.00182-.000366.0040394.000368.0058594 0 .2373091-.04815.4715003-.122108.6914062-.226563.025618-.01217.0487578-.032082.0742188-.044922.036182.02694.021117.068147.0625.091797.2842711.162461.5156879.175779.71875.175782h.4296875a1.0004224 1.0004224 0 0 0 .7441406-.333985 1.0004224 1.0004224 0 0 0 .7441406.333985h.6308594c.1661002-.000001.3839466-.107034.5898438-.210938.3855769.180922.7977852.289064 1.2246092.289062.487389.000002.970023-.101096 1.402344-.314453.416067-.205333.781902-.505065 1.068359-.871093a1.0004224 1.0004224 0 0 0 .00586-.00586c.282897-.36672.488236-.790594.625-1.248047.139301-.465941.201169-.9626933.201172-1.4824215-.000003-.4895634-.05831-.951893-.185547-1.3847656-.121463-.4293291-.307969-.8285399-.572266-1.1699219-.263319-.3401215-.604432-.6233774-.994141-.8125-.39723-.1927738-.84002-.2832031-1.285156-.2832031-.257146 0-.488571.1180567-.736328.1777343v-1.5507812a1.0004224 1.0004224 0 0 0 -1-1zm0 1h.9746094v3.2246094c.2212969-.261868.4738149-.4679212.7578125-.6191406.2839975-.1549078.6096875-.2324219.9785155-.2324219.313504 0 .596853.0618805.847656.1835937.250803.1217133.463588.2967173.640625.5253906.177038.2286735.31209.5057274.404297.8339844.095895.3245688.144532.6943344.144532 1.1074219-.000001.4389054-.053197.8375492-.160157 1.1953125-.10696.357763-.259817.665648-.458984.923828-.199167.254492-.440613.451642-.724609.591797-.283998.140155-.60491.210937-.958985.210937-.354075.000001-.6508867-.06644-.8906249-.199218-.23605-.136467-.4444923-.324715-.6289062-.564453l-.0566407.480468c-.014753.136467-.0944384.205079-.2382812.205079h-.6308594zm-3.3730468 2.3632812c.3024389.0000001.5705906.0488539.8066406.1484376.23605.0958952.4332009.2333368.5917968.4140624.1585961.1807258.278233.3976344.359375.6484376.0848305.250803.1269532.5298102.1269532.8359374v3.4570318h-.4296875c-.0958953 0-.1710203-.015416-.2226563-.044922-.0516359-.029507-.0870273-.089434-.1054687-.181641l-.1210938-.503906c-.1401547.12909-.2775961.244384-.4140625.347656-.1327781.099584-.2743437.185782-.421875.255859-.1475312.070078-.3049484.121103-.4746094.154297-.1696608.036883-.3557382.054688-.5585937.054688-.210232 0-.4073828-.026708-.5917969-.082031-.1807257-.059013-.3422673-.147601-.4824218-.265626-.1364664-.121712-.2450297-.270228-.3261719-.447265-.0774539-.180726-.1152344-.393292-.1152344-.636719 0-.21392.0555852-.419755.1699219-.6152342.118025-.1991672.3084445-.3763424.5703125-.53125.2618679-.1549079.6029734-.2791049 1.0234375-.375.420464-.0995836.9365735-.157122 1.5488281-.171875v-.4140626c0-.4204639-.0907586-.7370335-.2714844-.9472656-.1770375-.2139203-.4362867-.3203125-.7792969-.3203125-.2286733 0-.421482.0288782-.5800781.0878907-.1549078.0590123-.2899601.123282-.4042969.1933593-.1143366.0700774-.2139976.1363-.2988281.1953125-.0811422.0590125-.1651695.0878907-.25.0878906-.066389.0000002-.1219742-.0175867-.1699219-.0507812-.0479475-.0331945-.0876813-.0753172-.1171874-.1269531l-.1757813-.3085938c.2987508-.2876859.6179274-.5024234.9609375-.6425781.3466984-.143843.7318797-.2148437 1.1523438-.2148438zm5.7578122.7792969c-.298751 0-.562342.0707828-.7910154.2109375-.2249851.1401547-.4310382.3375235-.6191406.5957032v2.6113282c.1696608.232362.3557382.398245.5585938.494141.2028554.092206.426495.136718.6699222.136718.497918 0 .878975-.177393 1.144531-.535156s.398437-.8914594.398437-1.5996094c0-.656514-.117465-1.1394031-.353515-1.4492187s-.572596-.4648438-1.007813-.4648438zm0 1c.197668 0 .157128-.0028795.212891.0703125.02933.038499.148437.306556.148437.84375 0 .5830129-.1242.9002079-.201172 1.0039064-.086919.117096-.08147.130859-.341796.130859-.108432 0-.171242-.017965-.228516-.041015v-1.8007816c.0474-.043358.101952-.1157611.144531-.1425782.06414-.0391069.125849-.064453.265625-.0644531zm-4.8242185 1.2910157c-.4315289.0184413-.7971703.0540507-1.0996094.109375-.302439.0516358-.5503969.1224188-.7421875.2109374-.1881023.0885188-.3253258.1927403-.4101562.3144528-.0848305.118025-.1269532.250907-.1269532.398438.0000001.140155.0221469.261962.0664063.365234.0479477.099584.1119992.183611.1894531.25.0774539.062701.1684306.109384.2753906.142578.1069602.029507.2220369.044922.34375.044922.1622844 0 .3107993-.015633.4472657-.048828.1364664-.033194.2669586-.079659.3886719-.138672.1217131-.062701.2348367-.138044.3417968-.226562.1106485-.092207.2192118-.194039.3261719-.304688z" fill="#1e8bcd"/></g></g></svg>