<svg viewBox="0 0 16 16" xmlns="http://www.w3.org/2000/svg"><path d="m8 0a4 4 0 0 0 -4 4v4h-2c-.554 0-1 .446-1 1v6c0 .554.446 1 1 1h12c.554 0 1-.446 1-1v-6c0-.554-.446-1-1-1h-2v-4a4 4 0 0 0 -4-4zm0 1a3 3 0 0 1 3 3v4h-6v-4a3 3 0 0 1 3-3zm-6 8h6 6v6h-5.5c.277 0 .5-.223.5-.5v-1.5-.5l1-.5v-1c0-1.1045695-.8954305-2-2-2s-2 .8954305-2 2v.5 1.5 1.5c0 .277.223.5.5.5h-4.5zm6 1c.5522847 0 1 .447715 1 1v1l-1 .5v1.5h-1v-3c0-.552285.4477153-1 1-1z" fill="#f8db8f"/><path d="m2 9v6h4.5c-.277 0-.5-.223-.5-.5v-1.5-1.5-.5c0-1.1045695.8954305-2 2-2zm6 0c1.1045695 0 2 .8954305 2 2v1l-1 .5v.5 1.5c0 .277-.223.5-.5.5h5.5v-6z" fill="#ed8733"/></svg>