<svg height="16" viewBox="0 0 4.2333332 4.2333335" width="16" xmlns="http://www.w3.org/2000/svg"><g fill="#fafafa" stroke-width=".264583" transform="translate(0 -292.76665)"><path d="m0 295.1479v1.32292h1.0278442l-.11782223-.11783c-.003737-.004-.007356-.008-.0108521-.0119-.0342253-.0387-.0601494-.0855-.0775145-.13488h-.55707204v-.79375h1.32291667l.0005159-.26458zm2.3817668 0-.000516.26458h1.5875v.79375h-.8175212c-.022392.0582-.056911.11264-.1012857.154l-.1105884.11059h1.2939778v-1.32292z"/><path d="m0 293.29582v1.32291h1.8526001l-.0005159-.26458c-.5291667 0-1.05833338 0-1.58750005 0v-.79375h.81442055c.023618-.0598.059865-.11559.1064535-.1571l.1069702-.10748zm3.2039388 0 .1105876.11058c.044374.0414.078894.0958.1012857.154h.5529379v.79375c-.4409723 0-.8819444 0-1.3229167 0l.0005292.26458h1.5869708v-1.32291z"/></g><g transform="scale(.26458333)"><g fill="#ed3d3b" fill-rule="evenodd"><path d="m8.484149.00006103a.4994882.49960146 0 0 0 -.394088.2029428l-2.9439546 2.94852387a.50007542.50018882 0 1 0 .7081878.7063978l2.1401718-2.1445596.0078 5.7799678a.4994882.49960146 0 1 0 .998876 0l-.0078-5.7799678 2.147974 2.1445596a.4994882.49960146 0 1 0 .704285-.7083491l-2.957609-2.95437856a.4994882.49960146 0 0 0 -.403843-.19513681z"/><path d="m7.484149 15.999957a.4994882.49960146 0 0 1 -.394088-.202943l-2.9439546-2.948523a.50007546.50018886 0 0 1 .7081878-.706398l2.1401718 2.144559.0078-5.7799675a.4994882.49960146 0 1 1 .998876 0l-.0078 5.7799675 2.147974-2.144559a.4994882.49960146 0 1 1 .704285.708349l-2.957609 2.954378a.4994882.49960146 0 0 1 -.403843.195137z"/></g><g fill="#c8c6c4"><path d="m10 4.1308594v1.6796875.1894531h1v-1.0761719c-.222579-.0836245-.431336-.2135404-.589844-.3828125zm-4 .796875c-.1841634.0725753-.3779546.1158495-.5644531.109375-.1570095-.0054508-.3003324-.0403134-.4355469-.0878906v1.0507812h1z"/><path d="m5 10v1.095703c.1907927.06623.3710522.168482.5195312.300781a1.0001 1.0001 0 0 1 .041016.03906l.4375.4375.0019528-1.677732v-.195312zm5 0v1.076172c.185295-.06962.379784-.108385.566406-.09961.156415.0074.298764.04477.433594.09375v-1.070312z"/></g></g></svg>