<svg viewBox="0 0 16 16" xmlns="http://www.w3.org/2000/svg">
/&amp;amp;amp;gt;<path d="m1 0c-.554 0-1 .446-1 1v14c0 .554.446 1 1 1h1.25c-.0227639-.0399-.056506-.074031-.0761719-.115234-.1286891-.269623-.1792118-.575679-.1777343-.884766h-.9960938v-14h6v3.5c0 .277.223.5.5.5h3.087891c.411224-.3827058.887295-.7695284 1.412109-1.1660156v-.1972656l-3.6367188-3.6367188h-.8632812zm7 1 3 3h-3zm4 11.867188c-.148666.129475-.209659.184026-.375.328124l-.001953.001954c-.165121.143979-.394257.154969-.59375.238281.000998.029424.01348.048203.013672.078125.001071.165735-.016828.323709-.042969.478516v.007812.091797.908203h-.330078a1.02588 1.02588 0 0 1 -.00586.013672c-.095553.179596-.217221.342863-.361328.486328a1.02588 1.02588 0 0 1 -.013672.013672c-.196232.188253-.3927469.337593-.5898432.486328h1.3007812c.554 0 1-.446 1-1v-.800781-.199219z" fill="#fafafa"/><path d="m7.2304688 11.009766c-.2611936.00974-.5143343.028897-.7304688.046875-2.056692.4941-1.7371332 1.337014-3.28125 3.322265-.5164462.665161-.0608622 1.627607.78125 1.628906 2.7115807-.173351 3.7401211.528889 5.578125-1.234374.07164-.07132.1322065-.152947.1796875-.242188.1631052-.351692.2618925-.682612.2597655-1.011719-.0037-.568259-.23225-1.098535-.4023436-1.486328-.4416095-.580756-.8799889-.870494-1.6035156-1.021484-.2501619-.0123-.5200567-.01169-.78125-.002zm.013672.978515c.2108343.0016.4312475.02151.6660156.05274.6457798.226088 1.0391393.662816 1.0839844 1.507812.0004787.07407-.016144.177417-.048828.296875l-3.09375-1.423828c.4524271-.326142.8961695-.4373 1.3925781-.433594zm-2.0585937 1.226563 3.0214843 1.390625c-.4027608.269951-.7300308.357145-1.1699218.392578-.9042073-.0092-2.4189477-.0088-3.0351563-.0098.6037334-.776211.9275974-1.337725 1.1835938-1.773437z" fill="#83beec"/><path d="m5.1855469 13.214844c-.2559964.435712-.5798604.997226-1.1835938 1.773437.6162086.000977 2.130949.000587 3.0351563.0098.439891-.03543.7671611-.122627 1.1699218-.392578z" fill="#0063b1"/><path d="m15.271484 2.9999998c-.177888.00524-.37069.0968934-.521484.1914062-4.136759 2.5854743-4.75 3.8085938-7.25 7.308594-.1225618.147438-.192493.325021-.2167969.509766.2445374-.0079.4952395-.0095.7285157.002.1065286.02223.1959295.05525.2910156.08398a1.0001 1.0001 0 0 0 .011719-.01367c2.4323936-3.4053958 3.0075726-4.4780412 6.6855466-6.8262168v2.2597656.00195c-1.983507 2.9424767-1.124742 2.0302807-4.707031 5.1523442a1.0001 1.0001 0 0 1 -.002.002c-.5013468.02453-.7723478.02628-.9882816.0059.1058637.105418.2099037.220546.3125.355469.081134.184976.1749652.406059.2519531.644531.1516365-.0015.2853345.0014.4726565-.0078.225038-.01109.439748-.0978.609375-.246094 3.57462-3.115435 2.91294-2.4304714 4.880906-5.3497064.11091-.1651661.17007-.3596438.169922-.5585938v-2.5c-.000147-.563767-.16498-1.0317531-.728516-1.015625z" fill="#fafafa"/></svg>