<svg height="16" width="16" xmlns="http://www.w3.org/2000/svg" xmlns:xlink="http://www.w3.org/1999/xlink"><filter id="a"><feGaussianBlur stdDeviation="1.4657703"/></filter><filter id="b"><feGaussianBlur stdDeviation=".6412745"/></filter><clipPath id="c"><path d="m104.17619 99.240114-6.332594.0585-3.472871 5.295686-5.358942-3.37444-5.784629 2.57744-2.683867-5.736029-6.259809-.959126.843317-6.27646-4.747544-4.191177 4.102754-4.824162-1.727967-6.092558 6.059596-1.840228 1.840227-6.059595 6.092558 1.727967 4.824163-4.102754 4.191176 4.747544 6.276462-.843317.95912 6.259809 5.73603 2.683866-2.57744 5.78463 3.37444 5.358942-5.29568 3.472871z" transform="translate(80 -.938564)"/></clipPath><filter id="d" height="1.384" width="1.384" x="-.192" y="-.192"><feGaussianBlur stdDeviation=".53740116"/></filter><filter id="e"><feGaussianBlur stdDeviation=".45833333"/></filter><filter id="f"><feGaussianBlur stdDeviation="1.3050374"/></filter><clipPath id="g"><path d="m612.44032 160.09003a1.0143645 1.0143645 0 0 0 -.28125.125c-.0274.0139-.0328.0115-.0625.0313-.0256.0139-.0377.0149-.0625.0313-.11828.0777-.24834.15209-.40625.25-.30586.18965-.76518.44417-1.21875.71875-.45406.27488-.8712.5524-1.1875.75-.0995.0622-.23498.12508-.46875.28125-.1126.0753-.19049.13381-.25.1875-.0298.0268-.0433.0748-.0625.0937h-.0313c-.005.005-.0127.0107-.0313.0313-.00017.00018-.0625.0937-.0625.0937-6.73849 6.57119-9.95785 14.7464-10.84375 23.59375-.89117 8.89994.57128 18.45681 3.1875 27.84375 5.21447 18.70947 15.00053 36.70704 20.15625 47.125a1.0143645 1.0143645 0 0 0 .78125.5625l40.0625 5a1.0143645 1.0143645 0 0 0 1-1.53125c-17.39229-29.438-32.51429-59.83765-41.375-92.90625-.30238-1.12853-1.11502-1.71711-1.78125-2.375-.34165-.33736-.63716-.61494-.78125-.84375-.14173-.22506-.14741-.39593-.125-.5-.018.0837.0581-.16178.15625-.46875.0891-.27895.18524-.60405.28125-.90625.10548-.33201.18169-.63051.25-.875.00034-.001.0587-.0431.125-.34375a1.0143645 1.0143645 0 0 0 -.34375-1l-5.75-4.75a1.0143645 1.0143645 0 0 0 -.875-.21875z"/></clipPath><filter id="h" height="1.182427" width="1.407642" x="-.203821" y="-.091213"><feGaussianBlur stdDeviation=".7822854"/></filter><filter id="i" height="1.159632" width="1.299326" x="-.149663" y="-.079816"><feGaussianBlur stdDeviation="1.4597026"/></filter><filter id="j" height="1.070463" width="1.416831" x="-.208415" y="-.035231"><feGaussianBlur stdDeviation=".88226542"/></filter><filter id="k" height="1.031451" width="1.21255" x="-.106275" y="-.015726"><feGaussianBlur stdDeviation=".39380074"/></filter><filter id="l"><feGaussianBlur stdDeviation=".59705172"/></filter><filter id="m" height="1.42439" width="1.254015" x="-.127007" y="-.212195"><feGaussianBlur stdDeviation="2.0798578"/></filter><radialGradient id="n" cx="602.01117" cy="169.382" gradientTransform="matrix(.96275605 0 0 .85313525 22.421273 24.876244)" gradientUnits="userSpaceOnUse" r="43.461857" xlink:href="#s"/><clipPath id="o"><path d="m582.02539 131.65039a.6623239.6623239 0 0 0 -.35742.0898l-21.84375 12.6875a.6623239.6623239 0 0 0 -.0547 1.10938c30.62181 22.01648 51.72598 40.13034 75.22266 61.42187a.6623239.6623239 0 0 0 1.0957-.36523c2.26921-11.83252 5.69443-23.01609 8.39258-32.41016a.6623239.6623239 0 0 0 -.0742-.53125c-.53017-.85768-1.65572-2.0449-3.31055-3.62109s-3.82088-3.49642-6.34765-5.625c-5.05356-4.25717-11.54236-9.34449-18.20313-14.125-6.66076-4.78051-13.48968-9.2533-19.24219-12.28516-2.87625-1.51592-5.48028-2.67356-7.68945-3.32812-1.95496-.57924-3.55796-.70123-4.87305-.29492l-2.24804-2.50391a.6623239.6623239 0 0 0 -.4668-.21875z" transform="translate(.01793)"/></clipPath><filter id="p" height="1.506618" width="1.680494" x="-.340247" y="-.253309"><feGaussianBlur stdDeviation="2.7000861"/></filter><filter id="q" height="1.404169" width="1.261856" x="-.130928" y="-.202085"><feGaussianBlur stdDeviation="1.571413"/></filter><filter id="r"><feGaussianBlur stdDeviation=".37087425"/></filter><linearGradient id="s"><stop offset="0" stop-color="#f11a22"/><stop offset="1" stop-color="#990509"/></linearGradient><linearGradient id="t"><stop offset="0" stop-color="#640101"/><stop offset="1" stop-color="#640101" stop-opacity="0"/></linearGradient><linearGradient id="u"><stop offset="0" stop-color="#da141b"/><stop offset="1" stop-color="#da141b" stop-opacity="0"/></linearGradient><filter id="v" height="1.201146" width="1.395496" x="-.197748" y="-.100573"><feGaussianBlur stdDeviation="1.0778468"/></filter><radialGradient id="w" cx="608.32251" cy="143.49136" gradientTransform="matrix(1.2389907 0 0 .74158575 -145.38345 37.08021)" gradientUnits="userSpaceOnUse" r="19.65107"><stop offset="0" stop-color="#eb181f"/><stop offset="1" stop-color="#eb181f" stop-opacity="0"/></radialGradient><radialGradient id="x" cx="573.46429" cy="135.30269" gradientTransform="matrix(1 0 0 .72095656 0 37.755329)" gradientUnits="userSpaceOnUse" r="18.173925"><stop offset="0" stop-color="#4e0202"/><stop offset="1" stop-color="#7e0404" stop-opacity=".888889"/></radialGradient><linearGradient id="y" gradientUnits="userSpaceOnUse" x1="633.93695" x2="613.62915" xlink:href="#t" y1="197.16135" y2="166.93631"/><radialGradient id="z" cx="500.9935" cy="210.25783" gradientTransform="matrix(.96769715 -.2521155 .56901032 2.1840373 -103.45536 -115.60652)" gradientUnits="userSpaceOnUse" r="32.798069" xlink:href="#s"/><linearGradient id="A" gradientUnits="userSpaceOnUse" x1="629.838222" x2="607.273222" xlink:href="#u" y1="184.084434" y2="145.000664"/><radialGradient id="B" cx="504.05121" cy="178.18993" gradientTransform="matrix(2.4838716 -.29032342 1.160764 9.9309545 -846.24134 -1441.3972)" gradientUnits="userSpaceOnUse" r="4.44659" xlink:href="#t"/><radialGradient id="C" cx="505.33368" cy="176.75418" gradientTransform="matrix(2.4838716 -.29032342 1.160764 9.9309545 -847.44134 -1441.3972)" gradientUnits="userSpaceOnUse" r="4.44659"><stop offset="0" stop-color="#de1822"/><stop offset="1" stop-color="#de1822" stop-opacity="0"/></radialGradient><linearGradient id="D" gradientUnits="userSpaceOnUse" x1="636.57983" x2="599.09723" xlink:href="#u" y1="237.15666" y2="185.30687"/><linearGradient id="E" gradientUnits="userSpaceOnUse" x1="615.52582" x2="607.38214" y1="158.33723" y2="188.72986"><stop offset="0" stop-color="#680000"/><stop offset="1" stop-color="#680000" stop-opacity="0"/></linearGradient><linearGradient id="F" gradientUnits="userSpaceOnUse" x1="89.954811" x2="89.954811" y1="100.94856" y2="61.268738"><stop offset="0" stop-color="#ffee93"/><stop offset=".3773585" stop-color="#c57c00"/><stop offset=".49483803" stop-color="#ffff7d"/><stop offset="1" stop-color="#ffe171"/></linearGradient><radialGradient id="G" cx="89.954806" cy="72.518731" gradientUnits="userSpaceOnUse" r="34.575562"><stop offset="0" stop-color="#ffee93"/><stop offset=".49229774" stop-color="#c57c00"/><stop offset=".59700626" stop-color="#ffff7d"/><stop offset="1" stop-color="#ffe171"/></radialGradient><linearGradient id="H" gradientUnits="userSpaceOnUse" x1="95.453125" x2="95.453125" y1="73.790741" y2="108.35688"><stop offset="0" stop-color="#fff201"/><stop offset="1" stop-color="#fff201" stop-opacity="0"/></linearGradient><radialGradient id="I" cx="89.095451" cy="77.441864" gradientUnits="userSpaceOnUse" r="6.547338"><stop offset="0" stop-color="#fffbba"/><stop offset="1" stop-color="#fffbba" stop-opacity="0"/></radialGradient><filter id="J"><feGaussianBlur stdDeviation="1.0394514"/></filter><filter id="K"><feGaussianBlur stdDeviation=".50063244"/></filter><radialGradient id="L" cx="102" cy="112.3047" gradientUnits="userSpaceOnUse" r="139.5585"><stop offset="0" stop-color="#00537d"/><stop offset=".0151" stop-color="#186389"/><stop offset=".0558" stop-color="#558ca8"/><stop offset=".0964" stop-color="#89afc3"/><stop offset=".1357" stop-color="#b3ccd8"/><stop offset=".1737" stop-color="#d4e2e9"/><stop offset=".2099" stop-color="#ecf2f5"/><stop offset=".2435" stop-color="#fafcfd"/><stop offset=".2722" stop-color="#fff"/></radialGradient><radialGradient id="M" cx="102" cy="112.3047" gradientTransform="matrix(.9787234 0 0 .9818182 1.361705 1.163636)" gradientUnits="userSpaceOnUse" r="139.55859"><stop offset="0" stop-color="#535557"/><stop offset=".11366145" stop-color="#898a8c"/><stop offset=".20296688" stop-color="#ececec"/><stop offset=".2363" stop-color="#fafafa"/><stop offset=".2722" stop-color="#fff"/><stop offset=".5313" stop-color="#fafafa"/><stop offset=".8449" stop-color="#ebecec"/><stop offset="1" stop-color="#e1e2e3"/></radialGradient><filter id="N" height="1.247155" width="1.247155" x="-.123577" y="-.123577"><feGaussianBlur stdDeviation="1.7720846"/></filter><filter id="O"><feGaussianBlur stdDeviation=".90565481"/></filter><linearGradient id="P" gradientUnits="userSpaceOnUse" x1="85.219681" x2="61.336319" y1="93.219681" y2="69.336319"><stop offset="0"/><stop offset="1" stop-color="#393b38"/></linearGradient><filter id="Q"><feGaussianBlur stdDeviation=".4901192"/></filter><linearGradient id="R" gradientUnits="userSpaceOnUse" x1="96" x2="88.000198" y1="104" y2="96.000198"><stop offset="0" stop-color="#888a85"/><stop offset=".0072" stop-color="#8c8e89"/><stop offset=".0673" stop-color="#abaca9"/><stop offset=".1347" stop-color="#c5c6c4"/><stop offset=".2115" stop-color="#dbdbda"/><stop offset=".3012" stop-color="#ebebeb"/><stop offset=".4122" stop-color="#f7f7f6"/><stop offset=".5679" stop-color="#fdfdfd"/><stop offset="1" stop-color="#fff"/></linearGradient><g transform="scale(.125)"><path d="m23 9 .04082 112h61.13118c.53 0 1.039-.211 1.414-.586l32.828-32.828c.375-.375.586-.884.586-1.414v-77.172z" filter="url(#J)" opacity=".715069" transform="matrix(1.0416667 0 0 1.0357143 -9.958333 -3.321534)"/><path d="m24.919999 10.931136v108.137934l58.676001-.0001c.53 0 1.039-.211 1.414-.586l31.484-31.765936c.375-.375.586-.884.586-1.414v-74.371898z" filter="url(#K)" opacity=".89589" transform="matrix(1.0416667 0 0 1.0357143 -9.958333 -3.321534)"/><path d="m23 9.9655172.040816 111.0344828h61.131184c.53 0 1.039-.211 1.414-.586 13.296921-8.21061 24.14086-19.26784 32.828-32.828.375-.375.586-.884.586-1.414v-76.2064828z" filter="url(#J)" opacity=".835616" transform="matrix(1.0416667 0 0 1.0357143 -9.958333 -3.321534)"/><path d="m16.000002 8v112h61.172c.53 0 1.039-.211 1.414-.586l32.827998-32.828c.375-.375.586-.884.586-1.414v-77.172z" fill="url(#L)"/><path d="m24.678725 16c-.539276 0-.978723.440836-.978723.981818l.3 94.036362c0 .54197.439447.98182.978723.98182h51.913022c.257404 0 .509915-.10407.691957-.28767l26.129526-26.23113c.18303-.1836.28677-.435927.28677-.694145v-67.805237c0-.540982-.43847-.981818-.97872-.981818z" fill="url(#M)"/><g transform="translate(.000002)"><path d="m111.414 86.586c.25-.25-26.379-1.586-31.414-1.586-1.654 0-3 1.346-3 3 0 5.035 1.336 31.664 1.586 31.414z" filter="url(#N)" opacity=".906849"/><path d="m111.414 86.586c.375-.375-21.97-.586-31.414-.586-1.103 0-2 .897-2 2 0 9.444.211 31.789.586 31.414z" filter="url(#O)" opacity=".2"/><path d="m111.414 86.586c.239-.239-21.607.414-31.414.414-.553 0-1 .447-1 1 0 9.807-.653 31.653-.414 31.414z" fill="url(#P)" filter="url(#Q)" opacity=".1"/><path d="m78.586 119.414s11.914-9.914 17.414-15.414 15.414-17.414 15.414-17.414-21.164 1.414-31.414 1.414c0 10.25-1.414 31.414-1.414 31.414z" fill="url(#R)"/></g></g><path d="m107.33639 97.506016c1.84408 1.66327 4.93025 8.987074 6.34038 14.314414l-.3071.39065-8.28303 6.25009-5.119417-16.44734z" fill="#280000" fill-opacity=".610169" filter="url(#v)" transform="matrix(.16097363 0 0 .16097363 -9.553287 -5.356832)"/><path d="m95.371027 101.57188c-1.161128 7.4969-1.18917 16.50459-1.723573 24.83713l-1.325825.26517-9.032077-7.86657 2.358757-17.85444z" fill="#280000" fill-opacity=".610169" filter="url(#v)" transform="matrix(.16097363 0 0 .16097363 -9.553287 -5.356832)"/><path d="m582.02539 131.65039a.6623239.6623239 0 0 0 -.35742.0898l-21.84375 12.6875a.6623239.6623239 0 0 0 -.0547 1.10938c30.62181 22.01648 51.72598 40.13034 75.22266 61.42187a.6623239.6623239 0 0 0 1.0957-.36523c2.26921-11.83252 5.69443-23.01609 8.39258-32.41016a.6623239.6623239 0 0 0 -.0742-.53125c-.53017-.85768-1.65572-2.0449-3.31055-3.62109s-3.82088-3.49642-6.34765-5.625c-5.05356-4.25717-11.54236-9.34449-18.20313-14.125-6.66076-4.78051-13.48968-9.2533-19.24219-12.28516-2.87625-1.51592-5.48028-2.67356-7.68945-3.32812-1.95496-.57924-3.55796-.70123-4.87305-.29492l-2.24804-2.50391a.6623239.6623239 0 0 0 -.4668-.21875z" fill="url(#n)" transform="matrix(.05140539 .02967892 -.02967892 .05140539 -19.077929 -15.194118)"/><g clip-path="url(#o)" transform="matrix(.05140539 .02967892 -.02967892 .05140539 -19.077929 -15.194118)"><path d="m588.67141 133.16378 1.43439 6.88505 4.87691 4.01628 7.74567 4.8769 10.32757 4.59003 14.9176 1.72127-5.16378-12.04883-34.13836-11.47508z" fill="url(#w)" filter="url(#m)"/><path clip-path="none" d="m581.84375 90.993483c-.14688.02305-.31002.08031-.4375.15625-.008.0049-.0232-.005-.0313 0l-21.8125 12.687497-.0313.0313c-.69094.44303-.69572 1.42443-.0313 1.90625 30.60457 22.00409 51.66529 40.1199 75.15625 61.40625.33608.30122.79787.31037 1.15625.1875s.7007-.39968.78125-.84375c2.2606-11.78764 5.64505-22.94905 8.34375-32.34375.003-.009-.003-.0224 0-.0313.0851-.30568.0681-.63175-.0937-.90625-.58801-.95127-1.74246-2.16527-3.40625-3.75-1.66547-1.58633-3.84239-3.49151-6.375-5.625-5.06513-4.26692-11.578-9.36767-18.25-14.15625-6.67186-4.78846-13.49336-9.262-19.28125-12.312497-2.89215-1.52431-5.48733-2.70459-7.75-3.375-1.84883-.54779-3.44125-.6388-4.8125-.3125l-2.09375-2.34375c-.26257-.29951-.63712-.43256-1.03125-.375zm.125 1c.0411-.006.1289.0313.15625.0625l2.25 2.5.21875.21875.3125-.09375c1.1808-.36217 2.66731-.28028 4.5625.28125 2.15567.63871 4.76465 1.80495 7.625 3.3125 5.71711 3.013197 12.50669 7.477537 19.15625 12.249997 6.64952 4.77244 13.14551 9.84633 18.1875 14.09375 2.52095 2.12367 4.66831 4.05895 6.3125 5.625 1.64587 1.56765 2.74642 2.73589 3.21875 3.5.0191.0323.0423.0891.0313.125v.0313c-2.69637 9.38787-6.13057 20.57126-8.40625 32.4375-.003.0169-.0446.0662-.125.0937s-.11219.0115-.125 0c-23.5024-21.29671-44.6422-39.43988-75.28125-61.46875-.0304-.0221-.00042-.26095.0313-.28125l21.8125-12.656247h.0313c.0178-.01121.0105-.02799.0313-.03125z" fill="#791113" filter="url(#r)" transform="translate(.01793 40.162767)"/><path d="m559.06178 144.22821 9.12837.4057 5.47702-1.41996 4.05705-2.83994 3.8542-.81141 3.04279.20285-.81141-1.41997s-3.04279-.20285-2.23138-1.21711c.81141-1.01427 3.04279-3.4485 3.04279-3.4485l3.24564-5.47702-10.75118-2.23138s-4.66561 2.02853-6.49129 2.83994c-1.82567.81141-10.34548 11.35975-10.34548 11.35975z" fill="url(#x)" filter="url(#q)"/><path d="m635.33436 192.91283s-3.24564-6.89698-3.65134-7.70839c-.40571-.81142-3.8542-5.88273-4.66561-6.28844-.81141-.4057-6.28843-3.44849-7.09984-3.65134-.81141-.20286-3.4485 1.01426-3.4485 1.01426s-.4057 3.44849 0 4.46276c.40571 1.01426 4.05705 6.08558 4.86847 7.09984.81141 1.01426 5.47702 5.07131 6.49128 5.88272 1.01426.81142 3.24564 2.63709 3.8542 3.8542.60856 1.21712 2.23138 3.24565 2.23138 3.24565l1.41996-2.43424z" fill="url(#y)" filter="url(#p)" opacity=".8"/></g><path d="m475.11523 145.67383a1.0143645 1.0143645 0 0 0 -.39648.0859 1.0143645 1.0143645 0 0 0 -.14258.0762c-.006.004-.006.002-.0117.006-.0259.014-.0354.0147-.0605.0312-.11786.0774-.25702.16824-.41407.26562-.30586.18965-.75541.43831-1.20898.71289-.45406.27489-.88292.56022-1.19922.75782-.0995.0622-.22912.10945-.46289.26562a1.0143645 1.0143645 0 0 0 -.002 0c-.1126.0753-.19244.14357-.25196.19727-.0297.0268-.0531.0514-.0723.0703-.001.001-.003.003-.004.004-.008.008-.0152.0148-.0234.0234-.005.005-.005.005-.0234.0254-.00017.00019-.0684.084-.0684.084s.002.002.002.002c-6.7287 6.56882-9.96238 14.74488-10.84766 23.58594-.89117 8.89994.57324 18.45486 3.18946 27.84179 5.21447 18.70947 15.00638 36.72853 20.16211 47.14649a1.0143645 1.0143645 0 0 0 .7832.55664l40.0625 5a1.0143645 1.0143645 0 0 0 .99805-1.52149c-17.3923-29.43799-32.50062-59.86499-41.36133-92.93359-.30239-1.12853-1.1326-1.70929-1.79883-2.36719-.34165-.33736-.61763-.6208-.76172-.84961-.14173-.22506-.16889-.39202-.14648-.49609-.018.0837.064-.15983.16211-.4668.0891-.27894.18523-.606.28125-.9082.10548-.33201.19146-.63246.25976-.87695.00034-.001.0411-.0353.10742-.33594a1.0143645 1.0143645 0 0 0 -.34375-1l-5.75-4.75a1.0143645 1.0143645 0 0 0 -.65625-.23242z" fill="url(#z)" transform="matrix(.04577914 .0264306 -.0264306 .04577914 -11.94707 -10.41857)"/><g clip-path="url(#g)" transform="matrix(.04577914 .0264306 -.0264306 .04577914 -17.862741 -14.712919)"><path d="m629.83826 183.22381c-14.76503-13.11386-19.86848-25.56599-18.647-43.03154 0 0-3.89856 5.22361-4.30315 8.31943-1.09141 8.3511.73716 17.69181 5.45066 24.67142l14.9176 22.08952c12.27362-.0465 7.495-6.0243 2.58189-12.04883z" fill="url(#A)" filter="url(#i)"/><path d="m618.12879 160.99084c-3.57452 5.43908-2.45887 11.68909-1.72126 17.78637 0 0 2.74934 12.86643 3.87284 17.49949s2.72533 10.32757 2.72533 10.32757 1.81468 9.87466-.43032 11.61852c-.36179-4.62136-2.10174-15.05434-4.59003-19.3642 0 0-1.88746-6.73722-2.43845-10.18412-.5528-3.4582-.86063-10.47101-.86063-10.47101s-1.13222-5.49244-1.1475-7.81739c-.009-3.3683.7491-6.13518 2.00813-9.25179.65606-1.07796 3.01221-3.0122 3.01221-3.0122z" fill="url(#B)" filter="url(#j)" opacity=".534884"/><path d="m616.92879 160.99084c-3.57452 5.43908-2.45887 11.68909-1.72126 17.78637 0 0 2.74934 12.86643 3.87284 17.49949s2.72533 10.32757 2.72533 10.32757 1.81468 9.87466-.43032 11.61852-5.30722-1.14751-5.30722-1.14751-.38803-4.06335-.71719-7.02848-1.29095-10.75789-1.29095-10.75789.38367-7.095.28688-10.61444c-.0968-3.51944-.86063-10.47101-.86063-10.47101s-.55847-4.99041-.57375-7.31536c-.009-3.3683.17535-6.63721 1.43438-9.75382.65606-1.07796 3.01221-3.0122 3.01221-3.0122z" fill="url(#C)" filter="url(#k)"/><path d="m621.66226 223.53001c-14.76503-13.11386-19.86848-25.56599-18.647-43.03154 0 0-3.89856 5.22361-4.30315 8.31943-1.09141 8.3511 2.13089 16.93119 5.45066 24.67142 5.19631 12.11548 14.98796 22.16305 27.82706 30.83927 12.27362-.0465-5.41446-14.77405-10.32757-20.79858z" fill="url(#D)" filter="url(#i)"/><path d="m612.05188 158.33723c-.60628 1.39223-4.01175 1.33804-1.29625 4.65028-.17622 5.49736-2.96086 10.62209-4.44129 15.93314 0 0 3.7208-6.17473 5.16379-9.46694 1.19574-2.72808 2.86877-8.46287 2.86877-8.46287s1.72126-2.00813 1.00407-2.15157-3.15565 0-3.29909-.50204z" fill="url(#E)" filter="url(#h)"/><path d="m612.3125 159.59375c-.0346.009-.06.0507-.0937.0625-.11132.039-.24421.0611-.34375.125v.0313c-.008.004-.023-.005-.0313 0-.0123.007-.021.0244-.0313.0313-.0145.006-.0136-.001-.0625.0313-.1001.0658-.20899.11582-.375.21875-.2856.17709-.75435.43761-1.21875.71875-.46555.28183-.88208.5592-1.1875.75-.0549.0343-.24358.1412-.5.3125-.10943.0732-.20233.11954-.28125.1875l-.0313.0313c-.0187.0168-.0172.0159-.0313.0313l-.0313.0625-.0313.0313c.0421-.0421-.0286-.006-.0625.0313 0 0-.0294.0597-.0313.0625-.002.003-.0283-.004-.0313 0s.004.0257 0 .0313c-.004.006.004.0254 0 .0313-.0156.0234-.0313.0313-.0313.0313-6.77377 6.64667-10.04629 14.91208-10.9375 23.8125-.90011 8.98921.5919 18.60618 3.21875 28.03125 5.23564 18.78543 15.0418 36.82104 20.1875 47.21875.22348.45989.64922.77767 1.15625.84375l40.0625 5c.60625.0798 1.118-.27736 1.40625-.71875s.41057-1.0395.0937-1.5625c-17.38017-29.41749-32.46877-59.77603-41.3125-92.78125-.34909-1.30287-1.30982-2.00518-1.9375-2.625-.34665-.3423-.61051-.62774-.6875-.75-.0841-.13359-.0575-.14803-.0625-.125l-.5-.0937-.5-.0937c-.002.0106.003.009 0 .0313-.002.0113.001.0297 0 .0625-.00067.0164-.00003.0623 0 .0625.00001.00012.0312.0937.0313.0937.00002.00008.0625.15621.0625.15625.0274.155.021.27232.125.4375.21119.33536.5071.60508.84375.9375.70478.69596 1.40058 1.20206 1.65625 2.15625 8.87769 33.13198 24.00184 63.57274 41.40625 93.03125.0767.12664.0594.34464-.0625.53125-.12187.18661-.29071.26933-.4375.25l-40.0625-5c-.15607-.0203-.33746-.13969-.40625-.28125-5.16534-10.43881-14.9313-28.39834-20.1246-47.03185-2.60559-9.34881-4.03848-18.87683-3.15625-27.6875.87555-8.74394 4.03136-16.77344 10.65625-23.25.0108-.0106.0204-.0207.0313-.0313l.0313-.0313.0313-.0313s.0234-.0195.0313-.0313l.0313-.0313c.004-.005-.003-.0269 0-.0313.0286-.0313.0513-.0129.0625-.0313.0325-.0294.0858-.0882.1875-.15625.21112-.14104.3247-.1912.46875-.28125.32718-.2044.71368-.45082 1.15625-.71875.44274-.26802.92388-.54779 1.25-.75.14981-.0929.26979-.16036.40625-.25-.0298.0197-.0436.0406.0313 0 .0114-.005.01-.0203.0313-.0313h.0313l.0313-.0313c.0436-.028.075-.0489.125-.0625v.0313c.14458-.0317.32484-.002.4375.0937l5.75 4.75c.13236.10956.19328.33221.15625.5-.0231.10472-.0255.14174-.0313.15625-.001.003-.00003.0313 0 .0313-.0109.0146-.0313.0313-.0313.0313l-.0313.0937v.0313c-.0708.25325-.14966.52793-.25.84375-.0982.30902-.19469.63525-.28125.90625-.0445.13915-.0661.25796-.0937.34375-.00008.0001.0626-.0626.0625-.0625-.00007.00006.12506-.0938.125-.0937 0 0 .21875.4375.21875.4375-.00003-.00004.46877-.12492.46875-.125s.0313.0939.0313.0937c-.00003-.00023.00064.0469 0 .0625.0299-.0925.0799-.20281.125-.34375.0916-.2869.18741-.61087.28125-.90625.0909-.28625.12914-.53592.1875-.75.008-.0113.0235-.0195.0313-.0313.0198-.0303.0459-.0589.0625-.0937.046-.0969.0863-.23059.125-.40625.12277-.55635-.0924-1.10548-.53125-1.46875l-5.75-4.75c-.36162-.30812-.81718-.44544-1.28125-.34375l.0313.1875-.0625-.1875z" fill="#681315" filter="url(#l)"/></g><path d="m475.11523 145.67383a1.0143645 1.0143645 0 0 0 -.39648.0859 1.0143645 1.0143645 0 0 0 -.14258.0762c-.006.004-.006.002-.0117.006-.0259.014-.0354.0147-.0605.0312-.11786.0774-.25702.16824-.41407.26562-.30586.18965-.75541.43831-1.20898.71289-.45406.27489-.88292.56022-1.19922.75782-.0995.0622-.22912.10945-.46289.26562a1.0143645 1.0143645 0 0 0 -.002 0c-.1126.0753-.19244.14357-.25196.19727-.0297.0268-.0531.0514-.0723.0703-.001.001-.003.003-.004.004-.008.008-.0152.0148-.0234.0234-.005.005-.005.005-.0234.0254-.00017.00019-.0684.084-.0684.084s.002.002.002.002c-6.7287 6.56882-9.96238 14.74488-10.84766 23.58594-.89117 8.89994.57324 18.45486 3.18946 27.84179 5.21447 18.70947 15.00638 36.72853 20.16211 47.14649a1.0143645 1.0143645 0 0 0 .7832.55664l40.0625 5a1.0143645 1.0143645 0 0 0 .99805-1.52149c-17.3923-29.43799-32.50062-59.86499-41.36133-92.93359-.30239-1.12853-1.1326-1.70929-1.79883-2.36719-.34165-.33736-.61763-.6208-.76172-.84961-.14173-.22506-.16889-.39202-.14648-.49609-.018.0837.064-.15983.16211-.4668.0891-.27894.18523-.606.28125-.9082.10548-.33201.19146-.63246.25976-.87695.00034-.001.0411-.0353.10742-.33594a1.0143645 1.0143645 0 0 0 -.34375-1l-5.75-4.75a1.0143645 1.0143645 0 0 0 -.65625-.23242z" fill="url(#z)" transform="matrix(.04577914 .0264306 -.0264306 .04577914 -11.94707 -10.41857)"/><path d="m91.421875 62.728516a2.712762 2.712762 0 0 0 -1.617187.642578l-3.710938 3.15625-4.701172-1.326172a2.712762 2.712762 0 0 0 -3.332031 1.822266l-1.421875 4.677734-4.677734 1.421875a2.712762 2.712762 0 0 0 -1.822266 3.332031l1.326172 4.701172-3.15625 3.710938a2.712762 2.712762 0 0 0 .273437 3.792968l3.66211 3.228516-.650391 4.84375a2.712762 2.712762 0 0 0 2.271484 3.041016l4.820313.748042 2.076172 4.43946a2.712762 2.712762 0 0 0 3.566406 1.32617l4.458984-2 4.144532 2.60351a2.712762 2.712762 0 0 0 3.710937-.80859l2.673828-4.07226 4.898434-.0469a2.712762 2.712762 0 0 0 2.68555-2.685546l.0469-4.898438 4.07226-2.673828a2.712762 2.712762 0 0 0 .80859-3.710937l-2.60742-4.152344 1.97852-4.460938a2.712762 2.712762 0 0 0 -1.32617-3.554687l-4.41407-2.074219-.74804-4.824219a2.712762 2.712762 0 0 0 -3.04102-2.271484l-4.843748.650391-3.228516-3.66211a2.712762 2.712762 0 0 0 -2.175781-.916015z" fill="#593000" filter="url(#f)" transform="matrix(.1281324 0 0 .1281324 -5.712991 -2.724676)"/><path d="m104.17619 99.240114-6.332594.0585-3.472871 5.295686-5.358942-3.37444-5.784629 2.57744-2.683867-5.736029-6.259809-.959126.843317-6.27646-4.747544-4.191177 4.102754-4.824162-1.727967-6.092558 6.059596-1.840228 1.840227-6.059595 6.092558 1.727967 4.824163-4.102754 4.191176 4.747544 6.276462-.843317.95912 6.259809 5.73603 2.683866-2.57744 5.78463 3.37444 5.358942-5.29568 3.472871z" fill="url(#F)" transform="matrix(.1281324 0 0 .1281324 -5.712991 -2.885649)"/><path d="m104.17619 99.240114-6.332594.0585-3.472871 5.295686-5.358942-3.37444-5.784629 2.57744-2.683867-5.736029-6.259809-.959126.843317-6.27646-4.747544-4.191177 4.102754-4.824162-1.727967-6.092558 6.059596-1.840228 1.840227-6.059595 6.092558 1.727967 4.824163-4.102754 4.191176 4.747544 6.276462-.843317.95912 6.259809 5.73603 2.683866-2.57744 5.78463 3.37444 5.358942-5.29568 3.472871z" fill="url(#G)" opacity=".394367" transform="matrix(.1281324 0 0 .1281324 -5.712991 -2.885649)"/><g clip-path="url(#c)" transform="matrix(.1281324 0 0 .1281324 -15.963684 -2.765063)"><path d="m171.40625 62.20625c-.19593.03092-.38254.118735-.53125.25l-4.375 3.71875-5.5625-1.5625c-.51564-.143949-1.1161.178251-1.28125.6875l-1.6875 5.53125-5.53125 1.6875c-.50925.165145-.83145.765608-.6875 1.28125l1.5625 5.5625-3.71875 4.40625c-.33713.407847-.29352 1.076868.0937 1.4375l4.3438 3.84375-.78125 5.71875c-.0608.530018.3484 1.070768.875 1.15625l5.71875.875 2.4375 5.25c.23533.48552.88277.72096 1.375.5l5.28125-2.34375 4.875 3.0625c.45972.28948 1.13945.14171 1.4375-.3125l3.15625-4.8125 5.78125-.0625c.53729-.0096 1.02169-.493961 1.03125-1.03125l.0625-5.78125 4.8125-3.15625c.45421-.298049.60198-.97778.3125-1.4375l-3.0625-4.84375 2.34375-5.3125c.22096-.492227-.0145-1.139674-.5-1.375l-5.25-2.4375-.875-5.71875c-.0855-.526603-.62623-.935819-1.15625-.875l-5.71875.78125-3.84375-4.34375c-.22973-.259884-.59423-.393534-.9375-.34375zm.0625 2.5 3.5 3.96875c.22973.259884.59423.393534.9375.34375l5.25-.71875.8125 5.28125c.0555.335787.28508.637897.59375.78125l4.78125 2.25-2.15625 4.84375c-.12682.31258-.0907.68627.0937.96875l2.8125 4.5-4.4375 2.90625c-.287.190796-.46891.530365-.46875.875l-.0625 5.28125-5.28125.0625c-.34464-.000165-.6842.181747-.875.46875l-2.90625 4.4375-4.5-2.8125c-.28247-.184358-.65613-.220501-.9687-.0937l-4.84375 2.1562-2.25-4.78125c-.14901-.316496-.4657-.54792-.8125-.59375l-5.25-.8125.71875-5.25c.0498-.343272-.0839-.707773-.34375-.9375l-3.96875-3.5 3.4375-4.03125c.22598-.260455.31088-.636464.21875-.96875l-1.46875-5.09375 5.09375-1.5625c.32149-.100891.58661-.366009.6875-.6875l1.5625-5.09375 5.09375 1.46875c.33229.09213.7083.0072.96875-.21875z" fill="#b16e13" filter="url(#a)"/><path d="m171.59375 64.8125c-.0304.01283-.0617.02329-.0937.03125-.0393.0062.007-.009-.0313 0-.0387.009.007-.01168-.0313 0-.038.01168.006.0169-.0313.03125-.036.01693.003.01181-.0313.03125-.0347.01944.002-.02184-.0313 0-.0332.02184.00035.0071-.0313.03125-.0316.02414-.001-.02632-.0313 0l-4.375 3.71875c-.14808.137711-.36461.197858-.5625.15625l-5.56255-1.5625c-.0258-.0072-.005-.02528-.0313-.03125-.0262-.006-.005.0047-.0313 0-.0266-.0034-.005.0022-.0313 0-.0267-.0022-.004.000892-.0313 0-.0268.00039-.004-.0017-.0313 0-.0267.0029-.005-.0042-.0313 0-.0265.0042-.005-.0055-.0313 0-.026.0067-.006.02329-.0313.03125-.0256.008-.006-.0092-.0313 0-.0248.01037-.007-.01154-.0313 0-.0242.01154.0237.01856 0 .03125s-.008-.0138-.0313 0c-.0223.01489-.01.01531-.0313.03125-.0208.01695-.0113-.01793-.0313 0s.0191.01239 0 .03125-.0131-.01975-.0313 0 .0172.01066 0 .03125-.0151-.02139-.0313 0 .0152.0091 0 .03125c-.0141.02284-.0183.0078-.0313.03125-.0118.02408.0107.0066 0 .03125-.0107.02462.009.0061 0 .03125-.009.0251-.023-.02553-.0313 0l-1.6875 5.53125c-.0617.188938-.21731.344594-.40625.40625l-5.53005 1.6875c-.0255.0083.0251.02176 0 .03125-.0251.0095-.007-.01068-.0313 0-.0246.01068-.007-.01184-.0313 0-.0235.01298-.008.01717-.0313.03125-.0221.01516-.01-.0162-.0313 0-.0214.0162.0206.01405 0 .03125s-.0115-.01817-.0313 0c-.0197.01817.0189.01216 0 .03125s-.0133-.01997-.0313 0c-.0179.01997.017.01045 0 .03125-.0159.02159-.0164.0089-.0313.03125-.0138.02301.0127.0076 0 .03125s-.0197-.02423-.0313 0c-.0115.02423.0104.0065 0 .03125-.009.02522.008.0056 0 .03125-.008.02563-.0245.0053-.0313.03125-.005.02627.004.0047 0 .03125-.004.0265.003.0046 0 .03125-.002.02678.00039.0044 0 .03125.00089.02682-.002.0045 0 .03125s-.003.0046 0 .03125c.005.02642-.006.0051 0 .03125.006.02616.024.0054.0313.03125l1.5625 5.5625c.0499.193042.002.408747-.125.5625l-3.71875 4.40625h-.0313c-.0159.02122.0149.0093 0 .03125-.0138.02263-.0185.008-.0313.03125s.0116.0074 0 .03125c-.0105.02435-.0219.0064-.0313.03125-.008.02524.007.0057 0 .03125-.007.02559.006.0054 0 .03125-.005.02614.003.0049 0 .03125-.002.02645.00078.0047 0 .03125-.00078.02651-.00047.0047 0 .03125.002.02647-.003.0049 0 .03125.003.02636-.004.0051 0 .03125.005.02596-.007.0056 0 .03125.008.02533-.009.0063 0 .03125.009.02493.021.0068.0313.03125.0114.02396-.0125.0079 0 .03125.0136.02278.0166.0091.0313.03125.0157.0214.0146.01061.0313.03125.0176.01983-.0185.01228 0 .03125h.0313l4.3125 3.84375c.1598.135728.24487.354469.21875.5625l-.78125 5.6875c-.003.02657.002.0046 0 .03125-.002.02668.00051.0045 0 .03125.00077.02673-.002.0046 0 .03125.003.02654-.005.0049 0 .03125s-.006.0051 0 .03125c.006.0261.0242-.0258.0313 0 .007.0258-.008.0058 0 .03125.008.02543-.009.0062 0 .03125.0106.02453-.0118.0073 0 .03125.0118.02399.0183-.0234.0313 0 .0129.0234-.014.0085 0 .03125.0151.02207.0151.0099.0313.03125.0171.02053.0132.01156.0313.03125.019.01881-.0199.01337 0 .03125s.0105-.01691.0313 0c.0207.01691-.0215.01534 0 .03125s.009-.01487.0313 0c.0222.01487.008-.01379.0313 0 .0229.01379-.0235.01856 0 .03125s.007-.01155.0313 0c.0246.01039.006-.0092.0313 0 .0251.0092-.0255.02325 0 .03125s.005-.0068.0313 0c.0259.0068.005-.0055.0313 0l5.71875.875c.19881.03143.37902.163585.46875.34375l2.4375 5.25c.0118.0243.0183.008.0313.0313.0141.0231-.0152.009 0 .0313.0152.0224.015-.0216.0313 0 .0162.0216-.0173.0104 0 .0313.0182.02.0121.0122.0313.0313.0201.0181.0103.0141.0313.0313.0217.0161.009-.015.0313 0 .0225.015-.0232.0173 0 .0313.0232.0139.007-.0128.0313 0 .0238.0128.007-.0116.0313 0 .0244.0116-.0249.0208 0 .0313s.006-.009.0313 0c.0258.008.005-.007.0313 0 .0262.007.005-.005.0313 0 .0267.004.004.0283.0313.0313.027.002.004-.00031.0313 0 .027.00031.004.00099.0313 0 .0269-.002.004.004.0313 0 .0268-.004.005-.0264.0313-.0313.0263-.006.005.007.0313 0 .0256-.009.006.01.0313 0 .0252-.01.007-.0202.0313-.0313l5.28125-2.34375c.19203-.0778.42214-.0536.59375.0625l4.875 3.0625c.0237.0134.007-.0122.0313 0s.006.0202.0313.0313c.0254.01.005-.009.0313 0 .0262.007.005.0252.0313.0313.0266.006.004-.005.0313 0 .027.003.004-.002.0313 0 .0272.002.004-.00077.0313 0 .0272-.00055.004.002.0313 0 .027-.003.004.004.0313 0 .0269-.004.005.006.0313 0 .0266-.006-.0263-.0242 0-.0313.0263-.007.005.008.0313 0 .0259-.008.006.01.0313 0 .025-.0108.007.012.0313 0 .0244-.012-.0238-.0181 0-.0313s.008.0143.0313 0c.0224-.0154.01-.0148.0313-.0313.0208-.0175.0113-.0127.0313-.0313.019-.0195.0132-.0109.0313-.0313.0171-.0212.0152-.009.0313-.0313l3.15625-4.8125c.11619-.17342.32251-.282651.53125-.28125l5.78125-.0625c.0269-.0018.004.0031.0313 0 .0268-.0031.005.0043.0313 0 .0266-.0043-.0264-.02564 0-.03125.0264-.0056.005.0069.0313 0 .0257-.0081.006.0093.0313 0s.006.01053.0313 0c.0248-.01053-.0243-.01954 0-.03125s.008.01286.0313 0c.023-.01398.009-.01619.0313-.03125.0216-.01612.0105.01713.0313 0s-.0199-.01314 0-.03125.0122.01905.0313 0c.019-.01905-.0181-.01131 0-.03125s.0141.02078.0313 0c.0171-.02078-.0161-.0097 0-.03125.0151-.02233.0173-.0082.0313-.03125.0129-.02367-.0117-.007 0-.03125.0117-.02426.0207.02479.0313 0 .0105-.02479-.009-.006 0-.03125.009-.02527-.008-.0056 0-.03125.007-.02605-.006-.0049 0-.03125s.0269.02658.0313 0c.004-.02658-.003-.0045 0-.03125.003-.02676-.002-.0044 0-.03125l.0625-5.78125c-.002-.208299.10612-.41454.2786-.53135l4.8125-3.15625c.022-.01603.01-.01417.0313-.03125.0204-.01808.0118-.0122.0313-.03125.0185-.01997.0137-.01041.0313-.03125.0165-.02167.0158-.0088.0313-.03125.0143-.02316-.0132-.0074 0-.03125.0132-.02383.0192.02444.0313 0 .012-.02444-.0108-.0063 0-.03125.01-.02549-.008-.0053 0-.03125.008-.02592-.007-.005 0-.03125.007-.0263.0255.02661.0313 0 .006-.02661-.004-.0044 0-.03125.004-.02686-.003-.0042 0-.03125.002-.02717-.00055-.004 0-.03125-.00077-.02722.002-.0041 0-.03125s.003-.0042 0-.03125c-.005-.02682.006-.0047 0-.03125-.006-.02656-.024-.005-.0313-.03125-.009-.02585.01-.0058 0-.03125-.011-.0249-.019-.0069-.0313-.03125-.0122-.02434.0134-.0075 0-.03125l-3.0627-4.84375c-.11611-.171612-.14033-.401723-.0625-.59375l2.34375-5.3125c.0111-.02467.0214-.0061.0313-.03125.01-.02518-.009-.0056 0-.03125.007-.02601-.006-.0049 0-.03125.005-.0266.0277-.0044.0313-.03125.004-.02681-.002-.0043 0-.03125.00099-.02703.00031-.0042 0-.03125-.00031-.02704.002-.0043 0-.03125-.003-.02689-.0271-.0045-.0313-.03125-.005-.02648.007-.0051 0-.03125-.007-.02619.008-.0054 0-.03125-.009-.02542.0105-.0063 0-.03125-.0105-.02494-.0196.02441-.0313 0-.0116-.02441.0128-.0074 0-.03125-.0128-.02382.0139-.0081 0-.03125-.0139-.02318-.0162.02248-.0313 0-.015-.02248.0161-.0095 0-.03125-.0171-.02093-.0131-.01117-.0313-.03125-.0191-.01918-.0113-.01301-.0313-.03125-.0208-.01726-.01.01624-.0313 0-.0216-.01624.0224-.01607 0-.03125s-.008.01408-.0313 0c-.0237-.01295-.007-.01945-.0313-.03125l-5.25-2.4375c-.18005-.08981-.31208-.270002-.34345-.46875l-.875-5.71875c-.006-.02616.007-.0054 0-.03125-.007-.02587.008-.0057 0-.03125-.008-.02552-.022.02511-.0313 0-.009-.02511.0104-.0066 0-.03125-.0115-.02412.0127-.0077 0-.03125-.0127-.02354-.0175.02291-.0313 0s.0149-.009 0-.03125c-.0149-.02223.0159-.0098 0-.03125-.0159-.02149-.0143.02071-.0313 0-.0169-.02071.0179-.01137 0-.03125s-.0124.01901-.0313 0c-.0197-.01809-.0107-.01412-.0313-.03125-.0213-.01614-.009-.01615-.0313-.03125-.0228-.01404-.008.01294-.0313 0-.0234-.01294.024-.01944 0-.03125s-.007.01065-.0313 0c-.025-.0095-.006.0083-.0313 0-.0254-.0083-.005.0071-.0313 0-.0258-.0071.0261-.02544 0-.03125-.0261-.0058-.005.0046-.0313 0-.0264-.0046-.005.0033-.0313 0-.0267-.002-.005.000766-.0313 0-.0267.000508-.005-.0018-.0313 0-.0267.0018-.005-.003-.0313 0l-5.6875.78125c-.20803.02612-.42677-.05895-.5625-.21875l-3.843-4.34375c-.0104.000257-.0209.000257-.0313 0-.0205-.02449.0219-.008 0-.03125-.0219-.02328-.008.022-.0313 0-.0232-.022.0244-.0106 0-.03125s-.006.01923-.0313 0c-.0266-.01775-.004-.01504-.0313-.03125-.0275-.01621-.003.01461-.0313 0-.0284-.01461.0292-.01828 0-.03125s-.001.01129-.0313 0c-.0299-.01129-.00077.0096-.0313 0-.031-.0078.00012.0061-.0313 0-.0157-.003-.002-.03158 0-.03125.002.000334-.0154.0021-.0313 0zm-.25 1.28125c.21767-.03718.45223.04924.59375.21875l3.5 3.96875c.023.02605.007-.02458.0313 0 .0246.02458-.0261.0082 0 .03125.0261.02301.004-.02135.0313 0 .0274.02135.003.01164.0313.03125.0299.0178.00033.01534.0313.03125.0309.01591-.00059-.01397.0313 0 .0318.01397-.001-.01197.0313 0 .0333.0099-.003.0234.0313.03125.0339.0078-.003-.0057.0313 0s-.003-.0036.0313 0c.0346.0036-.003-.0015.0313 0 .0348-.000701-.003.0029.0313 0 .0347-.0029-.003.005.0313 0l5.25-.71875c.3271-.04783.66851.204512.71875.53125l.8125 5.28125c.008.03326-.01-.0015 0 .03125.01.03274.0197-.000847.0313.03125.0116.0321-.0135-.000085 0 .03125.0135.03133-.0154.000793 0 .03125.0154.03046.014-.02947.0313 0 .0172.02947-.019.0029 0 .03125.019.02837.0106.0041.0313.03125.0223.02586.007.0068.0313.03125.0252.02297.005.0099.0313.03125.0278.01974.002.01323.0313.03125.029.01802.001-.01622.0313 0 .03.01622.00031.01688.0313.03125l4.78125 2.25c.28832.138353.4338.516603.3125.8125l-2.15625 4.84375c-.0108.03204-.0224-.0014-.0313.03125-.009.03264.007-.0019 0 .03125-.007.03311.005-.0022 0 .03125-.005.03347.003-.0024 0 .03125-.00081.03381-.001-.0025 0 .03125.001.03379-.003-.0024 0 .03125.003.03366-.005-.0022 0 .03125.007.03302-.009-.0013 0 .03125.009.03253.0201-.000661.0313.03125.0112.03191-.0131.000071 0 .03125.0131.03118-.0149.000916 0 .03125.0149.03033.0145-.02938.0313 0s-.0185.0029 0 .03125l2.8125 4.5c.17918.278418.09.694448-.1875.875l-4.43855 2.90625c-.0275.02086-.005.0087-.0313.03125-.0262.02251-.006-.02408-.0313 0-.0248.02408.0232.0057 0 .03125-.0232.02556-.01.0043-.0313.03125-.0199.02822-.0131.0019-.0313.03125-.0182.02939.0163.000795 0 .03125-.0144.0314-.0188-.000977-.0313.03125-.0125.03223.0104-.0017 0 .03125-.0104.03293.008-.0023 0 .03125-.008.03351.006-.0027 0 .03125-.006.03397-.027-.03429-.0313 0-.004.03429.002-.0032 0 .03125-.002.03449-.00002-.0033 0 .03125l-.0622 5.28125c-.005.325924-.29908.620239-.625.625l-5.28125.0625c-.0345-.000017.003-.0021-.0313 0-.0345.0021.003-.0042-.0313 0s.034.02492 0 .03125c-.034.0063.002-.0084-.0313 0-.0335.0084.002-.01045-.0313 0-.0329.01045.00098-.01245-.0313 0-.0322.01245.00015.01684-.0313.03125-.0305.01632-.002-.01816-.0313 0-.0294.01816-.003.01132-.0313.03125-.0269.02163-.006.008-.0313.03125-.0256.02324-.007-.02477-.0313 0-.0241.02477.0225.005 0 .03125-.0225.02621-.0104.0037-.0313.03125l-2.90625 4.4375c-.18055.27753-.59658.36668-.875.1875l-4.5-2.8125c-.0283-.0185-.002.0168-.0313 0-.0294-.0168.0303-.0163 0-.0313-.0303-.0149-.00007.0131-.0313 0-.0312-.0131.00066.0112-.0313 0-.0319-.0112.001-.022-.0313-.0313-.0325-.009.002.007-.0313 0-.0334-.005.002.003-.0313 0-.0337-.003.003.001-.0313 0-.0338-.001.003-.00081-.0313 0-.0337.003.002-.005-.0313 0-.0335.005.002-.007-.0313 0-.0331.007.001-.009-.0313 0-.0326.009.0008.0204-.0313.0313l-4.8426 2.1563c-.2959.1213-.67415-.0242-.8125-.3125l-2.25-4.78125c-.0149-.03173-.0144-.000515-.0313-.03125-.0169-.03074.0188-.0016 0-.03125-.0188-.02962-.0107.02839-.0313 0s.0223-.0042 0-.03125-.007-.0056-.0313-.03125c-.0255-.02406-.004-.0088-.0313-.03125-.027-.02242-.003.02069-.0313 0s.0296-.01237 0-.03125-.00058.017-.0313 0c-.0307-.017.00042-.01619-.0313-.03125-.0325-.01305.002.01099-.0313 0s.003-.02236-.0313-.03125c-.0339-.0089.003.0068-.0313 0-.0344-.0068.004.0046-.0313 0l-5.25-.8125c-.32654-.0505-.57855-.391809-.5307-.71875l.71875-5.25c.005-.03441-.003.0034 0-.03125.003-.03466-.0007.0035 0-.03125-.001-.03474.004.0033 0-.03125-.004-.03459.006.003 0-.03125-.006-.0343.008.0026 0-.03125-.008-.03388-.0213.0021-.0313-.03125-.012-.03265.014.000594 0-.03125-.014-.03184.0159-.000331 0-.03125-.0159-.03092-.0135-.0014-.0313-.03125-.0196-.02872-.01-.0038-.0313-.03125-.0214-.02745.023-.0052 0-.03125-.023-.02607-.007.0246-.0313 0-.0246-.0246.026-.0082 0-.03125l-3.96875-3.5c-.23931-.216753-.26857-.626434-.0625-.875l3.4375-4.03125c.12928-.15161.10298-.26708.0626-.40625l-1.46875-5.0625c-.0893-.319073.11876-.690708.4375-.78125l5.09375-1.5625c.0322-.01011-.00031-.01922.0313-.03125.0308-.01391.001.01574.0313 0 .0299-.01574.002-.01375.0313-.03125.0289-.0175.003.01921.0313 0 .0278-.01921-.0266-.0104 0-.03125s.006.02241.0313 0-.0239-.0074 0-.03125c.0239-.02389.009.02528.0313 0 .0224-.02528-.0208-.0047 0-.03125.0208-.02658.012.02778.0313 0 .0192-.02778-.0175-.0024 0-.03125.0175-.02889.0155-.0014.0313-.03125.0157-.02989-.0139-.000468 0-.03125.012-.03156.0211.00098.0313-.03125l1.5625-5.09375c.0905-.318738.46218-.526853.78125-.4375l5.06215 1.46875c.0333.0092-.003.02408.0313.03125.0338.0072-.003-.0051.0313 0 .0342.0051-.003-.003.0313 0 .0344.003-.003-.000836.0313 0 .0345-.0013-.003.0034.0313 0 .0344-.0034-.003.0055.0313 0 .0341-.0055-.002.0076.0313 0 .0337-.0076-.002-.02158.0313-.03125.0325-.0117-.0005.01368.0313 0 .0317-.01368.0004-.01565.0313-.03125.0308-.0156.001.01747.0313 0 .0287-.01928.004-.01024.0313-.03125.0275-.02101.005.02265.0313 0l4.0306-3.4375c.0783-.07497.17621-.129351.28125-.15625z" fill="#c46a00" filter="url(#b)" transform="translate(0 -.7)"/></g><path d="m96.875 67.25-3.3125 2.8125a2.0032301 2.0032301 0 0 1 -1.84375.40625l-4.21875-1.1875-1.28125 4.1875a2.0032301 2.0032301 0 0 1 -1.3125 1.3125l-4.1875 1.28125 1.1875 4.21875a2.0032301 2.0032301 0 0 1 -.40625 1.84375l-2.1875 2.5625c3.929307 1.140291 8.528716 1.84375 13.5 1.84375 6.484057 0 12.39199-1.151923 16.90625-3a2.0032301 2.0032301 0 0 1 .09375-1.28125l1.78125-4-3.9375-1.84375a2.0032301 2.0032301 0 0 1 -1.125-1.5l-.65625-4.3125-4.34375.59375a2.0032301 2.0032301 0 0 1 -1.78125-.6875z" fill="url(#H)" filter="url(#e)" opacity=".394367" transform="matrix(.1281324 0 0 .1281324 -6.41772 -2.757517)"/><circle cx="89.095451" cy="77.441864" fill="url(#I)" filter="url(#d)" r="3.358757" transform="matrix(.1281324 0 0 .1281324 -6.188659 -3.383968)"/></svg>