<svg height="16" viewBox="0 0 4.2333332 4.2333335" width="16" xmlns="http://www.w3.org/2000/svg"><g stroke-width=".999999" transform="scale(.26458333)"><path d="m.50195312.00195313c-.27630145-.00037796-.50038441.22375433-.49999999.49999999l-.00390626 14.99609388c-.00038441.276283.22369855.500378.50000001.5h1.75195312c-.0224605-.039446-.0567376-.072564-.0761719-.113281-.1286891-.269623-.1792118-.575679-.1777343-.884766h-1.00000005l.00390625-14h14 .003906v1.0039062c.076182-.0118557.150216-.0267027.238282-.0292968.252394-.0072234.516537.0669246.759765.1816406v-1.65429688c.000384-.27628346-.223699-.50037795-.5-.49999999zm15.49804688 8.65624997c-.370929.5524478-.708447 1.0182118-.998047 1.3710939l-.001953 4.970703h-4.330078a1.02588 1.02588 0 0 1 -.00586.013672c-.095553.179596-.217221.342863-.361328.486328a1.02588 1.02588 0 0 1 -.013672.013672c-.195526.187575-.3915038.336039-.5878901.484375h5.7968751c.276302.000378.500384-.223717.5-.5z" fill="#fafafa"/><path d="m5 1v4h-4v1h4v4h-4v1h3.359375c.4660692-.407452 1.0862033-.745806 1.9003906-.941406a1.02588 1.02588 0 0 1 .1542969-.023438c.0628313-.005224.1510213-.008378.2207031-.013672.0045909-.006901.0063272-.014294.0097656-.021484h-.6445312v-4h3.6132812c.4139848-.4625157.8723498-.9120304 1.3867188-1.359375v-3.640625h-1v4h-4v-4zm10 9.029297c-.241392.294057-.570225.638423-.919922.970703h.919922zm-4.001953 3.970703c-.059302.345408-.173176.666686-.310547.962891a1.02588 1.02588 0 0 1 -.015625.035156h.326172z" fill="#c8c6c4"/><g fill="#1e8bcd"><path d="m6 6v4h.6445312c.0241077-.0504133.0264813-.106437.0644532-.1523438.0010009-.00121.0009485-.0026978.0019531-.0039062 1.1431695-1.6023585 1.9457565-2.7750237 2.9023437-3.84375z" opacity=".5"/><path d="m5 5v5.556641c.3609172-.203531.7699088-.380364 1.2597656-.498047a1.02588 1.02588 0 0 1 .1542969-.023438c.0628313-.005224.1510213-.008378.2207031-.013672.0045909-.006901.0063272-.014294.0097656-.021484h-.6445312v-4h3.6132812c.3037261-.3393314.6227108-.6725056.9746098-1z"/></g></g><path d="m1.5875.52916h1.058333v3.175h-1.058333z" fill="#ff9f0a" opacity="0"/><g transform="scale(.26458333)"><path d="m7.2304688 11.009766c-.2611936.00974-.5143343.028897-.7304688.046875-2.056692.4941-1.7371332 1.337014-3.28125 3.322265-.5164462.665161-.0608622 1.627607.78125 1.628906 2.7115807-.173351 3.7401211.528889 5.578125-1.234374.07164-.07132.1322065-.152947.1796875-.242188.1631052-.351692.2618925-.682612.2597655-1.011719-.0037-.568259-.23225-1.098535-.4023436-1.486328-.4416095-.580756-.8799889-.870494-1.6035156-1.021484-.2501619-.0123-.5200567-.01169-.78125-.002zm.013672.978515c.2108343.0016.4312475.02151.6660156.05274.6457798.226088 1.0391393.662816 1.0839844 1.507812.0004787.07407-.016144.177417-.048828.296875l-3.09375-1.423828c.4524271-.326142.8961695-.4373 1.3925781-.433594zm-2.0585937 1.226563 3.0214843 1.390625c-.4027608.269951-.7300308.357145-1.1699218.392578-.9042073-.0092-2.4189477-.0088-3.0351563-.0098.6037334-.776211.9275974-1.337725 1.1835938-1.773437z" fill="#83beec"/><path d="m5.1855469 13.214844c-.2559964.435712-.5798604.997226-1.1835938 1.773437.6162086.000977 2.130949.000587 3.0351563.0098.439891-.03543.7671611-.122627 1.1699218-.392578z" fill="#0063b1"/></g><path d="m4.0405802.79374995c-.047066.001386-.098078.0256364-.137976.0506429-1.0945175.68407345-1.2567709 1.00769035-1.9182292 1.93373215-.032428.03901-.05093.085995-.057361.1348756.064701-.00209.1310321-.00251.1927531.0005291.028186.00588.05184.014618.076998.02222a.26460979.26460979 0 0 0 .0031-.00362c.6435715-.9010081.7957543-1.1848122 1.768885-1.8061003v.5978963.000516c-.5248029.7785302-.297588.5371784-1.245402 1.3632243a.26460979.26460979 0 0 1 -.0005292.0005292c-.132648.00649-.2043504.00695-.2614828.00156.02801.027892.055537.058353.082682.094051.021467.048942.046293.1074365.066663.1705322.040121-.0003969.075495.0003704.125057-.00206.059541-.00293.11635-.025876.1612305-.065112.9457849-.8242951.7707154-.6430652 1.2914064-1.4154461.029345-.0437.044998-.095156.044958-.1477946v-.6614583c-.0000385-.14916335-.0436506-.27298468-.1927528-.26871745z" fill="#fafafa" stroke-width=".264583"/></svg>