<svg viewBox="0 0 16 16" xmlns="http://www.w3.org/2000/svg">/&amp;gt;<rect fill="#696969" height="1" ry=".5" width="14" x="1" y="15"/><text x="20.271187" y="16.813559"><tspan x="20.271187" y="16.813559"/></text><path d="m2.3987401 4.1649991-.630063-.7233333-.5040504-.5833334q-.2646265-.2916667-.2646265-.5833333 0-.2800001.2394239-.5600001l.4662466-.5716667.9450945-1.1433334h4.1332132v2.1933334h-3.5031502l2.7470747 2.0066668v6.0316679q0 1.575 2.6714671 1.575 2.671467 0 2.671467-1.575v-5.6350012l-1.323132-1.155-.6552658-.5833334q-.3906391-.3383333-.3906391-.6650001 0-.245.2016202-.4783333l.4662466-.5716667.9450951-1.1433334h4.385238v2.1933334h-3.755175l3.755175 2.0066668v6.0316679q0 3.768332-6.30063 3.768332-6.3006299 0-6.3006299-3.768332z" fill="#696969"/></svg>