<svg viewBox="0 0 32 32" xmlns="http://www.w3.org/2000/svg"><path d="m6 4v17.035156l1-1v-15.035156h18v15h-7v7h-8.0351562l-1 1h9.0351562 1l7-7v-17zm3 7v1h6v-1zm7 0v.035156l.035156-.035156zm2.308594 0 1 1h3.691406v-1zm-9.308594 4v1h2.035156l1-1zm12.978516 0-.910157.896484-.068359.06836v.035156h2v-1zm-7.978516 8v1h2v-1zm-1 .964844-.035156.035156h.035156z" fill="#eff0f1"/><path d="m17.171875 12-13.171875 13.171875 2.828125 2.828125 13.171875-13.171875zm-.06836 1.482422 1.414062 1.414062-3.097656 3.09961-1.416016-1.416016z" fill="#3daee9"/></svg>