<svg viewBox="0 0 32 32" xmlns="http://www.w3.org/2000/svg"><path d="m4 4v1h1v4h-1v1h3v-1h-1v-4h1v-1h-1-1zm1.5 10c-.8284271 0-1.5.671573-1.5 1.5s.6715729 1.5 1.5 1.5 1.5-.671573 1.5-1.5-.6715729-1.5-1.5-1.5zm-1.5 10 1 2-1 2 4-2z" fill="#3daee9"/><path d="m11 4v1h17v-1zm0 3v1h13v-1zm0 7v1h17v-1zm0 3v1h4v-1zm0 7v1h7v-1zm0 3v1h7v-1z" fill="#eff0f1"/><path d="m20.707031 20-.707031.707031 3.292969 3.292969-3.292969 3.292969c.0126.0252.707031.707031.707031.707031l3.292969-3.292969 3.292969 3.292969.707031-.707031-3.292969-3.292969 3.292969-3.292969-.707031-.707031-3.292969 3.292969z" fill="#da4453"/></svg>