<svg viewBox="0 0 32 32" xmlns="http://www.w3.org/2000/svg"><path d="m16 4a12 12 0 0 0 -6.0839844 1.671875l5.3769534 5.378906.707031-.710937-4.404297-4.4042971a11 11 0 0 1 4.404297-.9355469 11 11 0 0 1 11 11 11 11 0 0 1 -.195312 2h1.007812a12 12 0 0 0 .1875-2 12 12 0 0 0 -12-12zm-10.328125 5.9160156a12 12 0 0 0 -1.671875 6.0839844 12 12 0 0 0 12 12 12 12 0 0 0 1-.052734v-1.00586a11 11 0 0 1 -1 .058594 11 11 0 0 1 -11-11 11 11 0 0 1 1.4042969-5.351562zm11.035156 11.0332034-.707031.707031 1 1v-1.414062z" fill="#eff0f1"/><path d="m19.25 19c-.6925 0-1.25.5575-1.25 1.25v7.5c0 .6925.5575 1.25 1.25 1.25h7.5c.6925 0 1.25-.5575 1.25-1.25v-7.5c0-.6925-.5575-1.25-1.25-1.25z" fill="#f67400"/><path d="m23 21a2 2 0 0 0 -2 2l.002 1h-1.002v3h6v-3h-1v-1a2 2 0 0 0 -2-2zm0 1a1 1 0 0 1 1 1v1h-2v-1a1 1 0 0 1 1-1z" fill="#fff"/></svg>