  0
SECTION
  2
HEADER
  9
$ACADVER
  1
AC2.18
  9
$INSBASE
 10
0.000000
 20
0.000000
  9
$EXTMIN
 10
0.000000
 20
0.000000
  9
$EXTMAX
 10
420.000000
 20
297.000000
  9
$LIMMIN
 10
0.000000
 20
0.000000
  9
$LIMMAX
 10
420.000000
 20
297.000000
  9
$VIEWCTR
 10
210.000000
 20
148.500000
  9
$VIEWSIZE
 40
297.000000
  9
$SNAPMODE
 70
     0
  9
$SNAPUNIT
 10
1.000000
 20
1.000000
  9
$SNAPBASE
 10
0.000000
 20
0.000000
  9
$SNAPANG
 50
0.000000
  9
$SNAPSTYLE
 70
     0
  9
$SNAPISOPAIR
 70
     0
  9
$GRIDMODE
 70
     0
  9
$GRIDUNIT
 10
0.000000
 20
0.000000
  9
$ORTHOMODE
 70
     0
  9
$REGENMODE
 70
     1
  9
$FILLMODE
 70
     1
  9
$QTEXTMODE
 70
     0
  9
$DRAGMODE
 70
     1
  9
$LTSCALE
 40
1.000000
  9
$OSMODE
 70
     0
  9
$ATTMODE
 70
     1
  9
$TEXTSIZE
 40
0.200000
  9
$TRACEWID
 40
0.050000
  9
$TEXTSTYLE
  8
STANDARD
  9
$CLAYER
  8
0
  9
$DIMSCALE
 40
1.000000
  9
$DIMASZ
 40
0.180000
  9
$DIMEXO
 40
0.062500
  9
$DIMDLI
 40
0.380000
  9
$DIMEXE
 40
0.180000
  9
$DIMTP
 40
0.000000
  9
$DIMTM
 40
0.000000
  9
$DIMTXT
 40
0.180000
  9
$DIMCEN
 40
0.090000
  9
$DIMTSZ
 40
0.000000
  9
$DIMTOL
 70
     0
  9
$DIMLIM
 70
     0
  9
$DIMTIH
 70
     1
  9
$DIMTOH
 70
     1
  9
$DIMSE1
 70
     0
  9
$DIMSE2
 70
     0
  9
$DIMTAD
 70
     0
  9
$LUNITS
 70
     2
  9
$LUPREC
 70
     4
  9
$AXISMODE
 70
     0
  9
$AXISUNIT
 10
0.000000
 20
0.000000
  9
$SKETCHINC
 40
0.100000
  9
$FILLETRAD
 40
0.000000
  9
$AUNITS
 70
     0
  9
$AUPREC
 70
     0
  9
$MENU
  1
ACAD
  9
$ELEVATION
 40
0.000000
  9
$THICKNESS
 40
0.000000
  9
$VIEWDIR
 10
0.000000
 20
0.000000
 30
1.000000
  9
$LIMCHECK
 70
     0
  9
$BLIPMODE
 70
     1
  9
$CHAMFERA
 40
0.000000
  9
$CHAMFERB
 40
0.000000
  0
ENDSEC
  0
SECTION
  2
TABLES
  0
TABLE
  2
LTYPE
 70
     1
  0
LTYPE
  2
CONTINUOUS
 70
    64
  3
Solid Line
 72
    65
 73
     0
 40
0.000000
  0
LTYPE
  2
DOT
 70
    64
  3
. . . . . . . . . . . . . . . . . . . . . . 
 72
    65
 73
     2
 40
0.250000
 49
0.000000
 49
-0.250000
  0
LTYPE
  2
HIDDEN
 70
     0
  3
_ _ _ _ _ _ _ _ _ _ _ _ _ _ _ _ _ _ _ _ _ _ _
 72
    65
 73
     2
 40
0.375000
 49
0.250000
 49
-0.125000
  0
LTYPE
  2
DASHDOT
 70
     0
  3
__ . __ . __ . __ . __ . __ . __ . __ . __ . __
 72
    65
 73
     4
 40
1.000000
 49
0.500000
 49
-0.250000
 49
0.000000
 49
-0.250000
  0
LTYPE
  2
DIVIDE
 70
     0
  3
__ . . __ . . __ . . __ . . __ . . __ . . __
 72
    65
 73
     6
 40
1.250000
 49
0.500000
 49
-0.250000
 49
0.000000
 49
-0.250000
 49
0.000000
 49
-0.250000
  0
LTYPE
  2
DASHED
 70
     0
  3
__ __ __ __ __ __ __ __ __ __ __ __ __ __ __
 72
    65
 73
     2
 40
0.750000
 49
0.500000
 49
-0.250000
  0
ENDTAB
  0
TABLE
  2
LAYER
 70
     4
  0
LAYER
  2
0
 70
    64
 62
     3
  6
CONTINUOUS
  0
LAYER
  2
12
 70
    64
 62
     3
  6
CONTINUOUS
  0
LAYER
  2
13
 70
    64
 62
     3
  6
CONTINUOUS
  0
LAYER
  2
127
 70
    64
 62
     3
  6
DOT
  0
ENDTAB
  0
TABLE
  2
STYLE
 70
     1
  0
STYLE
  2
STANDARD
 70
    64
 40
0.000000
 41
1.000000
 50
0.000000
 71
     0
 42
0.200000
  3
TXT
  0
ENDTAB
  0
TABLE
  2
VIEW
 70
     0
  0
ENDTAB
  0
ENDSEC
  0
SECTION
  2
BLOCKS
  0
ENDSEC
  0
SECTION
  2
ENTITIES
  0
CIRCLE
  8
0
 10
202.000000
 20
145.000000
 40
100.000000
  0
CIRCLE
  8
0
 10
202.000000
 20
145.000000
 40
130.000000
  0
CIRCLE
  8
127
 10
202.000000
 20
145.000000
 40
115.000000
  0
LINE
  8
127
 10
0.000000
 20
145.000000
 11
420.000000
 21
145.000000
  0
CIRCLE
  8
0
 10
317.000000
 20
145.000000
 40
6.000000
  0
CIRCLE
  8
0
 10
283.317280
 20
226.317280
 40
6.000000
  0
CIRCLE
  8
0
 10
202.000000
 20
260.000000
 40
6.000000
  0
CIRCLE
  8
0
 10
120.682720
 20
226.317280
 40
6.000000
  0
CIRCLE
  8
0
 10
87.000000
 20
145.000000
 40
6.000000
  0
CIRCLE
  8
0
 10
120.682720
 20
63.682720
 40
6.000000
  0
CIRCLE
  8
0
 10
202.000000
 20
30.000000
 40
6.000000
  0
CIRCLE
  8
0
 10
283.317280
 20
63.682720
 40
6.000000
  0
LINE
  8
127
 10
202.000000
 20
0.000000
 11
202.000000
 21
297.000000
  0
LINE
  8
0
 10
172.000000
 20
205.000000
 11
232.000000
 21
205.000000
  0
ARC
  8
0
 10
232.000000
 20
175.000000
 40
30.000000
 50
0.000000
 51
90.000000
  0
LINE
  8
0
 10
262.000000
 20
175.000000
 11
262.000000
 21
115.000000
  0
ARC
  8
0
 10
232.000000
 20
115.000000
 40
30.000000
 50
270.000000
 51
360.000000
  0
LINE
  8
0
 10
232.000000
 20
85.000000
 11
172.000000
 21
85.000000
  0
ARC
  8
0
 10
172.000000
 20
115.000000
 40
30.000000
 50
180.000000
 51
270.000000
  0
LINE
  8
0
 10
142.000000
 20
115.000000
 11
142.000000
 21
175.000000
  0
ARC
  8
0
 10
172.000000
 20
175.000000
 40
30.000000
 50
90.000000
 51
180.000000
  0
LINE
  8
0
 10
247.000000
 20
115.000000
 11
247.000000
 21
175.000000
  0
ARC
  8
0
 10
232.000000
 20
115.000000
 40
15.000000
 50
270.000000
 51
360.000000
  0
ARC
  8
0
 10
232.000000
 20
175.000000
 40
15.000000
 50
0.000000
 51
90.000000
  0
LINE
  8
0
 10
232.000000
 20
190.000000
 11
172.000000
 21
190.000000
  0
ARC
  8
0
 10
172.000000
 20
175.000000
 40
15.000000
 50
90.000000
 51
180.000000
  0
LINE
  8
0
 10
157.000000
 20
175.000000
 11
157.000000
 21
115.000000
  0
ARC
  8
0
 10
172.000000
 20
115.000000
 40
15.000000
 50
180.000000
 51
270.000000
  0
LINE
  8
0
 10
172.000000
 20
100.000000
 11
232.000000
 21
100.000000
  0
CIRCLE
  8
0
 10
232.000000
 20
197.500000
 40
3.000000
  0
CIRCLE
  8
0
 10
202.000000
 20
197.500000
 40
3.000000
  0
CIRCLE
  8
0
 10
172.000000
 20
197.500000
 40
3.000000
  0
CIRCLE
  8
0
 10
149.500000
 20
175.000000
 40
3.000000
  0
CIRCLE
  8
0
 10
149.500000
 20
145.000000
 40
3.000000
  0
CIRCLE
  8
0
 10
149.500000
 20
115.000000
 40
3.000000
  0
CIRCLE
  8
0
 10
172.000000
 20
92.500000
 40
3.000000
  0
CIRCLE
  8
0
 10
202.000000
 20
92.500000
 40
3.000000
  0
CIRCLE
  8
0
 10
232.000000
 20
92.500000
 40
3.000000
  0
CIRCLE
  8
0
 10
254.500000
 20
115.000000
 40
3.000000
  0
CIRCLE
  8
0
 10
254.500000
 20
145.000000
 40
3.000000
  0
CIRCLE
  8
0
 10
254.500000
 20
175.000000
 40
3.000000
  0
TEXT
  8
0
 10
145.000000
 20
253.000000
 40
3.125000
  1
0
 41
1.100000
 50
0.000000
  0
TEXT
  8
0
 10
172.000000
 20
220.000000
 40
3.125000
  1
-20
 41
1.100000
 50
0.000000
  0
TEXT
  8
0
 10
186.000000
 20
197.000000
 40
3.125000
  1
-10
 41
1.100000
 50
0.000000
  0
TEXT
  8
0
 10
174.000000
 20
163.000000
 40
3.125000
  1
-20
 41
1.100000
 50
0.000000
  0
LINE
  8
12
 10
304.059886
 20
170.086317
 11
311.000000
 21
171.000000
  0
LINE
  8
12
 10
311.000000
 20
171.000000
 11
304.059886
 21
171.913683
  0
LINE
  8
12
 10
311.000000
 20
171.000000
 11
323.000000
 21
171.000000
  0
LINE
  8
12
 10
329.940114
 20
171.913683
 11
323.000000
 21
171.000000
  0
LINE
  8
12
 10
323.000000
 20
171.000000
 11
329.940114
 21
170.086317
  0
LINE
  8
12
 10
323.000000
 20
176.000000
 11
323.000000
 21
146.000000
  0
LINE
  8
12
 10
311.000000
 20
176.000000
 11
311.000000
 21
146.000000
  0
TEXT
  8
13
 10
313.750000
 20
174.000000
 40
3.125000
  1
12.00
 50
0.000000
 72
     1
 11
313.750000
 21
174.000000
  0
LINE
  8
12
 10
244.559886
 20
156.086317
 11
251.500000
 21
157.000000
  0
LINE
  8
12
 10
251.500000
 20
157.000000
 11
244.559886
 21
157.913683
  0
LINE
  8
12
 10
251.500000
 20
157.000000
 11
257.500000
 21
157.000000
  0
LINE
  8
12
 10
264.440114
 20
157.913683
 11
257.500000
 21
157.000000
  0
LINE
  8
12
 10
257.500000
 20
157.000000
 11
264.440114
 21
156.086317
  0
LINE
  8
12
 10
257.500000
 20
162.000000
 11
257.500000
 21
146.000000
  0
LINE
  8
12
 10
251.500000
 20
162.000000
 11
251.500000
 21
146.000000
  0
TEXT
  8
13
 10
257.000000
 20
158.000000
 40
3.125000
  1
6.00
 50
0.000000
 72
     1
 11
257.000000
 21
158.000000
  0
ENDSEC
  0
EOF
