<svg viewBox="0 0 24 24" xmlns="http://www.w3.org/2000/svg" xmlns:xlink="http://www.w3.org/1999/xlink"><linearGradient id="a" gradientTransform="matrix(1.3333333 0 0 1.375 78.33528 278.00197)" gradientUnits="userSpaceOnUse" x1="-46" x2="-56.5" xlink:href="#c" y1="-185.45454" y2="-198.54546"/><linearGradient id="b" gradientTransform="matrix(1.1249688 0 0 1.1245683 -119.99628 -1094.9935)" gradientUnits="userSpaceOnUse" x1="124.00017" x2="111.99994" xlink:href="#c" y1="992.375" y2="976.36902"/><linearGradient id="c"><stop offset="0" stop-color="#18a303"/><stop offset="1" stop-color="#43c330"/></linearGradient><path d="m2.914555.00638c-.51568.0984-.9233.60028-.91405 1.125v21.74413c.00005.5888.53598 1.12492 1.12499 1.12498h17.749495c.58901-.00006 1.12493-.53619 1.12499-1.12498v-14.99639c.007-.29695-.10969-.59517-.3164-.80859l-5.62494-6.74775c-.213502-.20658-.511532-.32329-.808592-.31641h-12.124553c-.0701-.007-.14083-.007-.21094.00001zm14.972185 0c-.37292.11879-.49843.68372-.21093.94922l3.37496 3.37277c.31178.29553.93278.0425.94921-.38671v-3.37278c-.00003-.2944-.26799-.56246-.56249-.5625h-3.37498c-.0582-.009-.11765-.009-.17577 0z" fill="url(#b)"/><path d="m3.000485.99963v22.00086h17.999525v-15.00086l-5.999991-7z" fill="#fff"/><path d="m5 11v1 1 7h14.00195v-7h-.002v-1-1zm1 1h6.000023v1h-6.000023zm7.000023 0h4.999977v1h-4.999977zm-7.000023 2h6.001976v1h-6.001976zm7.001976 0h4.999974v1h-4.999974zm-7.001976 2h6.001976v1h-6.001976zm7.001976 0h4.999974v1h-4.999974zm-7.001976 2h6.001976v1h-6.001976zm7.001976 0h4.999974v1h-4.999974z" fill="url(#a)"/></svg>