<svg viewBox="0 0 24 24" xmlns="http://www.w3.org/2000/svg" xmlns:xlink="http://www.w3.org/1999/xlink"><linearGradient id="a" gradientTransform="matrix(1.1249688 0 0 1.1245683 -119.99628 -1094.9935)" gradientUnits="userSpaceOnUse" x1="124.00017" x2="111.99994" y1="992.375" y2="976.36902"><stop offset="0" stop-color="#535353"/><stop offset="1" stop-color="#7e7e7e"/></linearGradient><path d="m4.914204 3.00674c-.51568.0984-.9233.60028-.91405 1.125v15.74327c.00005.5888.53598 1.12493 1.12499 1.12499h13.749966c.58901-.00006 1.12493-.53619 1.12499-1.12499v-8.99553c.007-.29695-.10969-.59516-.3164-.80858l-5.624946-6.74775c-.2135-.20658-.51153-.32329-.80859-.31641h-8.12502c-.0701-.007-.14083-.007-.21094 0zm10.97265 0c-.37292.11879-.49843.68372-.21093.94922l3.374966 3.37277c.31178.29553.93278.0425.94921-.38671v-3.37278c-.00003-.2944-.26799-.56246-.56249-.5625h-3.37498c-.0582-.009-.117656-.009-.175776 0z" fill="url(#a)"/><path d="m5.000134 3.99999v16h13.999996v-9l-5.999996-7z" fill="#fff"/></svg>