<svg height="32" viewBox="0 0 32 32" width="32" xmlns="http://www.w3.org/2000/svg" xmlns:xlink="http://www.w3.org/1999/xlink"><filter id="a" color-interpolation-filters="sRGB" height="1.094553" width="1.097492" x="-.048746" y="-.047277"><feGaussianBlur stdDeviation=".36559322"/></filter><path d="m2 25.940678h28v2.559322h-28z" filter="url(#a)" opacity=".15" stroke-width="1.015418"/><path d="m2 4c-.554 0-1 .446-1 1v22c0 .554.446 1 1 1h28c.554 0 1-.446 1-1v-22c0-.554-.446-1-1-1zm0 1h28v22h-28z" fill="#8e8e93"/><path d="m2 5h28v22h-28z" fill="#f2f2f7"/><g fill="#007aff" fill-rule="evenodd"><path d="m4 9-2-1v-2l2-1 2 1v2z"/><path d="m8 9-2-1v-2l2-1 2 1v2z"/><path d="m12 9-2-1v-2l2-1 2 1v2z"/><path d="m6 12-2-1v-2l2-1 2 1v2z"/><path d="m10 12-2-1v-2l2-1 2 1v2z"/><path d="m14 12-2-1v-2l2-1 2 1v2z"/><path d="m4 15-2-1v-2l2-1 2 1v2z"/><path d="m8 15-2-1v-2l2-1 2 1v2z"/><path d="m12 15-2-1v-2l2-1 2 1v2z"/><path d="m6 18-2-1v-2l2-1 2 1v2z"/><path d="m10 18-2-1v-2l2-1 2 1v2z"/><path d="m14 18-2-1v-2l2-1 2 1v2z"/><path d="m8 21-2-1v-2l2-1 2 1v2z"/><path d="m12 21-2-1v-2l2-1 2 1v2z"/><path d="m10 24-2-1v-2l2-1 2 1v2z"/><path d="m14 24-2-1v-2l2-1 2 1v2z"/><path d="m8 27-2-1v-2l2-1 2 1v2z"/><path d="m12 27-2-1v-2l2-1 2 1v2z"/><path d="m16 27-2-1v-2l2-1 2 1v2z"/><path d="m2 20v4l2-1v-2z"/><path d="m6 24-2-1v-2l2-1 2 1v2z"/><path d="m4 21-2-1v-2l2-1 2 1v2z"/><path d="m2 14v4l2-1v-2z"/><path d="m4 27-2-1v-2l2-1 2 1v2z"/><path d="m2 8v4l2-1v-2z"/><path d="m20 27-2-1v-2l2-1 2 1v2z"/><path d="m16 9-2-1v-2l2-1 2 1v2z"/><path d="m16 15-2-1v-2l2-1 2 1v2z"/><path d="m20 15-2-1v-2l2-1 2 1v2z"/><path d="m18 18-2-1v-2l2-1 2 1v2z"/><path d="m24 27-2-1v-2l2-1 2 1v2z"/><path d="m26 24-2-1v-2l2-1 2 1v2z"/><path d="m24 15-2-1v-2l2-1 2 1v2z"/><path d="m20 21-2-1v-2l2-1 2 1v2z"/><path d="m18 24-2-1v-2l2-1 2 1v2z"/></g></svg>