<svg height="32" viewBox="0 0 32 32" width="32" xmlns="http://www.w3.org/2000/svg" xmlns:xlink="http://www.w3.org/1999/xlink"><filter id="a" color-interpolation-filters="sRGB" height="1.094553" width="1.097492" x="-.048746" y="-.047277"><feGaussianBlur stdDeviation=".36559322"/></filter><path d="m2 25.940678h28v2.559322h-28z" filter="url(#a)" opacity=".15" stroke-width="1.015418"/><path d="m2 5h28v22h-28z" fill="#f2f2f7"/><g fill="#007aff"><ellipse cx="16.000023" cy="15.999969" rx="9" ry="6"/><path d="m16 8a11 8 0 0 0 -11 8 11 8 0 0 0 11 8 11 8 0 0 0 11-8 11 8 0 0 0 -11-8zm0 1a10 7 0 0 1 10 7 10 7 0 0 1 -10 7 10 7 0 0 1 -10-7 10 7 0 0 1 10-7z" opacity=".6"/><path d="m16 6a13 10 0 0 0 -13 10 13 10 0 0 0 13 10 13 10 0 0 0 13-10 13 10 0 0 0 -13-10zm0 1a12 9 0 0 1 12 9 12 9 0 0 1 -12 9 12 9 0 0 1 -12-9 12 9 0 0 1 12-9z" opacity=".6"/><path d="m16 4.20117a15 11.899684 0 0 0 -15 11.89844 15 11.899684 0 0 0 15 11.90039 15 11.899684 0 0 0 15-11.90039 15 11.899684 0 0 0 -15-11.89844zm0 .79883a14 11 0 0 1 14 11 14 11 0 0 1 -14 11 14 11 0 0 1 -14-11 14 11 0 0 1 14-11z" opacity=".6"/></g><path d="m2 4c-.554 0-1 .446-1 1v22c0 .554.446 1 1 1h28c.554 0 1-.446 1-1v-22c0-.554-.446-1-1-1zm0 1h28v22h-28z" fill="#8e8e93"/></svg>