  0
SECTION*
  2
HEADER
  9
$ACADVER
  1
AC1015
  9
$ACADMAINTVER
 70
     6
  9
$DWGCODEPAGE
  3
ANSI_1252
  9
$INSBASE
 10
0.0
 20
0.0
 30
0.0
  9
$EXTMIN
 10
0.0
 20
0.0
 30
0.0
  9
$EXTMAX
 10
297.0
 20
420.0
 30
0.0
  9
$LIMMIN
 10
0.0
 20
0.0
  9
$LIMMAX
 10
297.0
 20
420.0
  9
$ORTHOMODE
 70
     0
  9
$REGENMODE
 70
     1
  9
$FILL«ODE
 70
     1
  9
$QTEXTMODE
 70
     0
  9
$MIRRTEXT
 70
 1
  0
DIMSTYLE
105
501
102
{ACAD_REACTORS
330
500
102
}
330
A
100
AcDbSymbolTableRecord
100
AcDbDimStyleTableRecord
  2
SLDDIMSTYLE0
 70
     0
 41
3.0
 44
0.0
 45
0.000000001
 73
     0
 74
     0
 77
     1
 78
    12
 79
     3
140
3.5
144
2.5
147
0.875
172
     1
173
     1
178
     0
271
     3
272
     3
276
     2
284
    12
289
     0
340
54
  0
DIMSTYLE
105
50E
102
{ACAD_REACTORS
330
50D
330
51A
330
526
330
56C
330
578
330
584
102
}
330
A
100
AcDbSymbolTableRecord
100
AcDbDimStyleTableRecord
  2
SLDDIMSTYLE1
 70
     0
 41
3.0
 44
0.0
 45
0.000000001
 73
     0
 74
     0
 77
     1
 78
    12
 79
     3
140
3.5
144
2.5
147
0.875
172
     1
173
     1
178
     0
271
     0
272
     0
276
     2
284
    12
289
     0
340
54
  0
DIMSTYLE
105
533
102
{ACAD_REACTORS
330
532
330
53C
330
545
330
54E
330
557
330
561
102
}
330
A
100
AcDbSymbolTableRecord
100
AcDbDimStyleTableRecord
  2
SLDDIMSTYLE2
 70
     0
 41
3.0
 44
0.0
 45
0.000000001
 73
     0
 74
     0
 77
     1
 78
    12
 79
     3
140
3.5
144
2.5
147
0.875
173
     1
178
     0
271
     3
272
     3
276
     2
284
    12
340
54
  0
ENDTAB
  0
TABLE
  2
BLOCK_RECORD
  5
1
330
0
100
AcDbSymbolTable
 70
    15
  0
BLOCK_RECORD
  5
1F
330
1
100
AcDbSymbolTableRecord
100
AcDbBlockTableRecord
  2
*Model_Space
340
22
  0
BLOCK_RECORD
  5
1B
330
1
100
AcDbSymbolTableRecord
100
AcDbBlockTableRecord
  2
*Paper_Space
340
1E
  0
BLOCK_RECORD
  5
23
330
1
100
AcDbSymbolTableRecord
100
AcDbBlockTableRecord
  2
*Paper_Space0
340
26
  0
BLOCK_RECORD
  5
56
330
1
100
AcDbSymbolTableRecord
100
AcDbBlockTableRecord
  2
SW_BROKEN_VIEW_0
340
0
102
{BLKREFS
331
59
102
}
  0
BLOCK_RECORD
  5
502
330
1
100
AcDbSymbolTableRecord
100
AcDbBlockTableRecord
  2
_D
340
0
  0
BLOCK_RECORD
  5
50F
330
1
100
AcDbSymbolTableRecord
100
AcDbBlockTableRecord
  2
_D_1
340
0
  0
BLOCK_RECORD
  5
51B
330
1
100
AcDbSymbolTableRecord
100
AcDbBlockTableRecord
  2
_D_2
340
0
  0
BLOCK_RECORD
  5
527
330
1
100
AcDbSymbolTableRecord
100
AcDbBlockTableRecord
  2
_D_3
340
0
  0
BLOCK_RECORD
  5
534
330
1
100
AcDbSymbolTableRecord
100
AcDbBlockTableRecord
  2
_D_4
340
0
  0
BLOCK_RECORD
  5
53D
330
1
100
AcDbSymbolTableRecord
100
AcDbBlockTableRecord
  2
_D_5
340
0
  0
BLOCK_RECORD
  5
546
330
1
100
AcDbSymbolTableRecord
100
AcDbBlockTableRecord
  2
_D_6
340
0
  0
BLOCK_RECORD
  5
54F
330
1
100
AcDbSymbolTableRecord
100
AcDbBlockTableRecord
  2
_D_7
340
0
  0
BLOCK_RECORD
  5
558
330
1
100
AcDbSymbolTableRecord
100
AcDbBlockTableRecord
  2
_D_8
340
0
  0
BLOCK_RECORD
  5
562
330
1
100
AcDbSymbolTableRecord
100
AcDbBlockTableRecord
  2
_D_9
340
0
  0
BLOCK_RECORD
  5
56D
330
1
100
AcDbSymbolTableRecord
100
AcDbBlockTableRecord
  2
_D_10
340
0
  0
BLOCK_RECORD
  5
579
330
1
100
AcDbSymbolTableRecord
100
AcDbBlockTableRecord
  2
_D_11
340
0
  0
BLOCK_RECORD
  5
585
330
1
100
AcDbSymbolTableRecord
100
AcDbBlockTableRecord
  2
_D_12
340
0
  0
ENDTAB
  0
ENDSEC
  0
SECTION
  2
BLOCKS
  0
BLOCK
  5
20
330
1F
100
AcDbEntity
  8
0
100
AcDbBlockBegin
  2
*Model_Space
 70
     0
 10
0.0
 20
0.0
 30
0.0
  3
*Model_Space
  1

  0
ENDBLK
  5
21
330
1F
100
AcDbEntity
  8
0
100
AcDbBlockEnd
  0
BLOCK
  5
1C
330
1B
100
AcDbEntity
 67
     1
  8
0
100
AcDbBlockBegin
  2
*Paper_Space
 70
     0
 10
0.0
 20
0.0
 30
0.0
  3
*Paper_Space
  1

  0
ENDBLK
  5
1D
330
1B
100
AcDbEntity
 67
     1
  8
0
100
AcDbBlockEnd
  0
BLOCK
  5
24
330
23
100
AcDbEntity
  8
0
100
AcDbBlockBegin
  2
*Paper_Space0
 70
     0
 10
0.0
 20
0.0
 30
0.0
  3
*Paper_Space0
  1

  0
ENDBLË
  5
25
330
23
100
AcDbEntity
  8
0
100
AcDbBlockEnd
  0
BLOCK
  5
57
330
56
100
AcDbEntity
  8
0
100
AcDbBlockBegin
  2
SW_BROKEN_VIEW_0
 70
     0
 10
0.0
 20
0.0
 30
0.0
  3
SW_BROKEN_VIEW_0
  1

  0
ENDBLK
  5
58
330
56
100
AcDbEntity
  8
0
100
AcDbBlockEnd
  0
BLOCK
  5
503
330
502
100
AcDbEntity
  8
0
100
AcDbBlockBegin
  2
_D
 70
     0
 10
0.0
 20
0.0
 30
0.0
  3
_D
  1

  0
SOLID
  5
505
330
502
100
AcDbEntity
  8
HARTLIJN
100
AcDbTrace
 10
195.4299255838
 20
28.7821787182
 30
0.0
 11
194.9299255838
 21
25.7821787182
 31
0.0
 12
195.9299255838
 22
25.7821787182
 32
0.0
 13
195.9299255838
 23
25.7821787182
 33
0.0
  0
SOLID
  5
506
330
502
100
AcDbEntity
  8
HARTLIJN
100
AcDbTrace
 10
195.4299255838
 20
41.9821787182
 30
0.0
 11
195.9299255838
 21
44.9821787182
 31
0.0
 12
194.9299255838
 22
44.9821787182
 32
0.0
 13
194.9299255838
 23
44.9821787182
 33
0.0
  0
LINE
  5
507
330
502
100
AcDbEntity
  8
HARTLIJN
100
AcDbLine
 10
143.0299255838
 20
28.7821787182
 30
0.0
 11
196.4299255838
 21
28.7821787182
 31
0.0
  0
LINE
  5
508
330
502
100
AcDbEntity
  8
HARTLIJN
100
AcDbLine
 10
149.0299255838
 20
41.9821787182
 30
0.0
 11
196.4299255838
 21
41.9821787182
 31
0.0
  0
LINE
  5
509
330
502
100
AcDbEntity
  8
HARTLIJN
100
AcDbLine
 10
195.4299255838
 20
28.7821787182
 30
0.0
 11
195.4299255838
 21
22.7821787182
 31
0.0
  0
LINE
  5
50A
330
502
100
AcDbEntity
  8
HARTLIJN
100
AcDbLine
 10
195.4299255838
 20
28.7821787182
 30
0.0
 11
195.4299255838
 21
41.9821787182
 31
0.0
  0
LINE
  5
50B
330
502
100
AcDbEntity
  8
HARTLIJN
100
AcDbLine
 10
195.4299255838
 20
41.9821787182
 30
0.0
 11
195.4299255838
 21
47.9821787182
 31
0.0
  0
MTEXT
  5
50C
330
502
100
AcDbEntity
  8
HARTLIJN
100
AcDbMText
 10
190.9181886692
 20
31.991019801
 30
0.04
 40
3.5
 41
0.0
 71
     1
 72
     1
  1
33
  7
SLDTEXTSTYLE0
 11
6.123233995736766E-17
 21
1.0
 31
0.0
 73
     1
 44
1.0
  0
ENDBLK
  5
504
330
502
100
AcDbEntity
  8
0
100
AcDbBlockEnd
  0
BLOCK
  5
510
330
50F
100
AcDbEntity
  8
0
100
AcDbBlockBegin
  2
_D_1
 70
     0
 10
0.0
 20
0.0
 30
0.0
  3
_D_1
  1

  0
SOLID
  5
512
330
50F
100
AcDbEntity
  8
HARTLIJN
100
AcDbTrace
 10
171.4299255838
 20
280.0124004364
 30
0.0
 11
170.9299255838
 21
277.0124004364
 31
0.0
 12
171.9299255838
 22
277.0124004364
 32
0.0
 13
171.9299255838
 23
277.0124004364
 33
0.0
  0
SOLID
  5
513
330
50F
100
AcDbEntity
  8
HARTLIJN
100
AcDbTrace
 10
171.4299255838
 20
287.499722104
 30
0.0
 11
171.9299255838
 21
290.499722104
 31
0.0
 12
170.9299255838
 22
290.499722104
 32
0.0
 13
170.9299255838
 23
290.499722104
 33
0.0
  0
LINE
  5
514
330
50F
100
AcDbEntity
  8
HARTLIJN
100
AcDbLine
 10
150.4168593775
 20
280.0124004364
 30
0.0
 11
172.4299255838
 21
280.0124004364
 31
0.0
  0
LINE
  5
515
330
50F
100
AcDbEntity
  8
HARTLIJN
100
AcDbLine
 10
148.8555696261
 20
287.499722104
 30
0.0
 11
172.4299255838
 21
287.499722104
 31
0.0
  0
LINE
  5
516
330
50F
100
AcDbEntity
  8
HARTLIJN
100
AcDbLine
 10
171.4299255838
 20
280.0124004364
 30
0.0
 11
171.4299255838
 21
267.6770872868
 31
0.0
  0
LINE
  5
517
330
50F
100
AcDbEntity
  8
HARTLIJN
100
AcDbLine
 10
171.4299255838
 20
280.0124004364
 30
0.0
 11
171.4299255838
 21
287.499722104
 31
0.0
  0
LINE
  5
518
330
50F
100
AcDbEntity
  8
HARTLIJN
100
AcDbLine
 10
171.4299255838
 20
287.499722104
 30
0.0
 11
171.4299255838
 21
293.499722104
 31
0.0
  0
MTEXT
  5
519
330
50F
100
AcDbEntity
  8
HARTLIJN
100
AcDbMText
 10
166.9181886692
 20
267.6770872868
 30
0.04
 40
3.5
 41
0.0
 71
     1
 72
     1
  1
19
  7
SLDTEXTSTYLE0
 11
6.123233995736766E-17
 21
1.0
 31
0.0
 73
     1
 44
1.0
  0
ENDBLK
  5
511
330
50F
100
AcDbEntity
  8
0
100
AcDbBlockEnd
  0
BLOCK
  5
51C
330
51B
100
AcDbEntity
  8
0
100
AcDbBlockBegin
  2
_D_2
 70
     0
 10
0.0
 20
0.0
 30
0.0
  3
_D_2
  1

  0
SOLID
  5
51E
330
51B
100
AcDbEntity
  8
HARTLIJN
100
AcDbTrace
 10
171.4299255838
 20
202.8200717467
 30
0.0
 11
170.9299255838
 21
199.8200717467
 31
0.0
 12
1715696261
 21
284.499722104
 31
0.0
 12
195.7555696261
 22
284.499722104
 32
0.0
 13
195.7555696261
 23
284.499722104
 33
0.0
  0
SOLID
  5
54A
330
546
100
AcDbEntity
  8
HARTLIJN
100
AcDbTrace
 10
195.2555696261
 20
210.3073934143
 30
0.0
 11
195.7555696261
 21
213.3073934143
 31
0.0
 12
194.7555696261
 22
213.3073934143
 32
0.0
 13
194.7555696261
 23
213.3073934143
 33
0.0
  0
LINE
  5
54B
330
546
100
AcDbEntity
  8
HARTLIJN
100
AcDbLine
 10
148.8555696261
 20
287.499722104
 30
0.0
 11
196.2555696261
 21
287.499722104
 31
0.0
  0
LINE
  5
54C
330
546
100
AcDbEntity
  8
HARTLIJN
100
AcDbLine
 10
148.8555696261
 20
210.3073934143
 30
0.0
 11
196.2555696261
 21
210.3073934143
 31
0.0
  0
LINE
  5
54D
330
546
100
AcDbEntity
  8
HARTLIJN
100
AcDbLine
 10
195.2555696261
 20
287.499722104
 30
0.0
 11
195.2555696261
 21
210.3073934143
 31
0.0
  0
ENDBLK
  5
548
330
546
100
AcDbEntity
  8
0
100
AcDbBlockEnd
  0
BLOCK
  5
550
330
54F
100
AcDbEntity
  8
0
100
AcDbBlockBegin
  2
_D_7
 70
     0
 10
0.0
 20
0.0
 30
0.0
  3
_D_7
  1

  0
SOLID
  5
552
330
54F
100
AcDbEntity
  8
HARTLIJN
100
AcDbTrace
 10
195.2555696261
 20
287.499722104
 30
0.0
 11
195.7555696261
 21
290.499722104
 31
0.0
 12
194.7555696261
 22
290.499722104
 32
0.0
 13
194.7555696261
 23
290.499722104
 33
0.0
  0
SOLID
  5
553
330
54F
100
AcDbEntity
  8
HARTLIJN
100
AcDbTrace
 10
195.2555696261
 20
397.2202084954
 30
0.0
 11
194.7555696261
 21
394.2202084954
 31
0.0
 12
195.7555696261
 22
394.2202084954
 32
0.0
 13
195.7555696261
 23
394.2202084954
 33
0.0
  0
LINE
  5
554
330
54F
100
AcDbEntity
  8
HARTLIJN
100
AcDbLine
 10
148.8555696261
 20
287.499722104
 30
0.0
 11
196.2555696261
 21
287.499722104
 31
0.0
  0
LINE
  5
555
330
54F
100
AcDbEntity
  8
HARTLIJN
100
AcDbLine
 10
146.8378589248
 20
397.2202084954
 30
0.0
 11
196.2555696261
 21
397.2202084954
 31
0.0
  0
LINE
  5
556
330
54F
100
AcDbEntity
  8
HARTLIJN
100
AcDbLine
 10
195.2555696261
 20
287.499722104
 30
0.0
 11
195.2555696261
 21
397.2202084954
 31
0.0
  0
ENDBLK
  5
551
330
54F
100
AcDbEntity
  8
0
100
AcDbBlockEnd
  0
BLOCK
  5
559
330
558
100
AcDbEntity
  8
0
100
AcDbBlockBegin
  2
_D_8
 70
     0
 10
0.0
 20
0.0
 30
0.0
  3
_D_8
  1

  0
SOLID
  5
55B
330
558
100
AcDbEntity
  8
HARTLIJN
100
AcDbTrace
 10
219.4299255838
 20
28.7821787182
 30
0.0
 11
219.9299255838
 21
31.7821787182
 31
0.0
 12
218.9299255838
 22
31.7821787182
 32
0.0
 13
218.9299255838
 23
31.7821787182
 33
0.0
  0
SOLID
  5
55C
330
558
100
AcDbEntity
  8
HARTLIJN
100
AcDbTrace
 10
219.4299255838
 20
397.2202084954
 30
0.0
 11
218.9299255838
 21
394.2202084954
 31
0.0
 12
219.9299255838
 22
394.2202084954
 32
0.0
 13
219.9299255838
 23
394.2202084954
 33
0.0
  0
LINE
  5
5527
 20
360.4202097011
 30
0.0
 11
142.6699255427
 21
361.9402235103
 31
0.0
  0
ARC
  5
7D
330
1F
100
AcDbEntity
  8
0
  6
Continuous
 62
     7
370
     0
100
AcDbCircle
 10
143.0699283112
 20
361.9401917488
 30
0.0
 40
0.4000027697974622
100
AcDbArc
 50
90.0003871694
 51
179.9954505335
  0
LINE
  5
7E
330
1F
100
AcDbEntity
  8
0
  6
Continuous
 62
     7
370
     0
100
AcDbLine
 10
143.0699256082
 20
362.3401945186
 30
0.0
 11
148.5899255445
 21
362.3401945186
 31
0.0
  0
ARC
  5
7F
330
1F
100
AcDbEntity
  8
0
  6
Continuous
 62
     7
370
     0
100
AcDbCircle
 10
148.5899336175
 20
362.4601862448
 30
0.0
 40
0.1199917263967713
100
AcDbArc
 50
269.9961451292
 51
0.0134590356
  0
LINE
  5
80
330
1F
100
AcDbEntity
  8
0
  6
Continuous
 62
     7
370
     0
100
AcDbLine
 10
148.7099253406
 20
362.4602144314
 30
0.0
 11
148.7099253406
 21
366.669732864
 31
0.0
  0
ARC
  5
81
330
1F
100
AcDbEntity
  8
0
  6
Continuous
 62
     7
370
     0
100
AcDbCircle
 10
148.5098175737
 20
366.669705415
 30
0.0
 40
0.2001077687858761
100
AcDbArc
 50
0.0078593224
 51
46.1736252111
  0
ARC
  5
82
330
1F
100
AcDbEntity
  8
0
  6
Continuous
 62
     7
370
     0
100
AcDbCircle
 10
149.229892261
 20
367.4202030254
 30
0.0
 40
0.8399663770856335
100
AcDbArc
 50
133.8120979057
 51
226.1879020943
  0
ARC
  5
83
330
1F
100
AcDbEntity
  8
0
  6
Continuous
 62
     7
370
     0
100
AcDbCircle
 10
148.5098175737
 20
368.1707006358
 30
0.0
 40
0.200107768785933
100
AcDbArc
 50
313.8263747889
 51
359.9921406775
  0
LINE
  5
84
330
1F
100
AcDbEntity
  8
0
  6
Continuous
 62
     7
370
     0
100
AcDbLine
 10
148.7099253406
 20
368.1706731868
 30
0.0
 11
148.7099253406
 21
370.3305070949
 31
0.0
  0
ARC
  5
85
330
1F
100
AcDbEntity
  8
0
  6
Continuous
 62
     7
370
     0
100
AcDbCircle
 10
148.5900202217
 20
370.3305234822
 30
0.0
 40
0.1199051200450481
100
AcDbArc
 50
359.9921694514
 51
45.0183972297
  0
LINE
  5
86
330
1F
100
AcDbEntity
  8
0
  6
Continuous
 62
     7
370
     0
100
AcDbLine
 10
148.6747787168
 20
370.4153364254
 30
0.0
 11
148.5050731172
 21
370.58504277
 31
0.0
  0
ARC
  5
87
330
1F
100
AcDbEntity
  8
0
  6
Continuous
 62
     7
370
     0
100
AcDbCircle
 10
148.5900489089
 20
370.6699467703
 30
0.0
 40
0.1201231635795685
100
AcDbArc
 50
180.0128717119
 51
224.9757867508
  0
LINE
  5
88
330
1F
100
AcDbEntity
  8
0
  6
Continuous
 62
     7
370
     0
100
AcDbLine
 10
148.4699257483
 20
370.669919ontinuous
 62
     7
370
     0
100
AcDbCircle
 10
149.0299484826
 20
72.3821479784
 30
0.0
 40
0.399977127854635
100
AcDbArc
 50
292.6176918057
 51
0.0067619015
  0
ARC
  5
4D2
330
1F
100
AcDbEntity
  8
0
  6
Continuous
 62
     7
370
     0
100
AcDbCircle
 10
149.2299252955
 20
71.9021632155
 30
0.0
 40
0.1199998892853113
100
AcDbArc
 50
112.6196870788
 51
247.3803129212
  0
ARC
  5
4D3
330
1F
100
AcDbEntity
  8
0
  6
Continuous
 62
     7
370
     0
100
AcDbCircle
 10
149.0299484881
 20
71.4221784593
 30
0.0
 40
0.3999771195634846
100
AcDbArc
 50
0.0000677203
 51
67.382308554
  0
LINE
  5
4D4
330
1F
100
AcDbEntity
  8
0
  6
Continuous
 62
     7
370
     0
100
AcDbLine
 10
149.4299256077
 20
71.4221789321
 30
0.0
 11
149.4299256077
 21
68.8558890304
 31
0.0
  0
ARC
  5
4D5
330
1F
100
AcDbEntity
  8
0
  6
Continuous
 62
     7
370
     0
100
AcDbCircle
 10
149.3098934248
 20
68.8558875882
 30
0.0
 40
0.1200321828299822
100
AcDbArc
 50
284.0483029705
 51
0.0006883757
  0
LINE
  5
4D6
330
1F
100
AcDbEntity
  8
0
  6
Continuous
 62
     7
370
     0
100
AcDbLine
 10
149.3390300145
 20
68.7394453963
 30
0.0
 11
149.2808216085
 21
68.724901863
 31
0.0
  0
ARC
  5
4D7
330
1F
100
AcDbEntity
  8
0
  6
Continuous
 62
     7
370
     0
100
AcDbCircle
 10
149.3099570381
 20
68.6084597995
 30
0.0
 40
0.1200317766406951
100
AcDbArc
 50
104.0477806555
 51
179.9779884139
  0
LINE
  5
4D8
330
1F
100
AcDbEntity
  8
0
  6
Continuous
 62
     7
370
     0
100
AcDbLine
 10
149.1899252703
 20
68.6085059127
 30
0.0
 11
149.1899252703
 21
67.5958945235
 31
0.0
  0
ARC
  5
4D9
330
1F
100
AcDbEntity
  8
0
  6
Continuous
 62
     7
370
     0
100
AcDbCircle
 10
149.309957026
 20
67.5958929344
 30
0.0
 40
0.1200317557485991
100
AcDbArc
 50
179.999241474
 51
255.952222776
  0
LINE
  5
4DA
330
1F
100
AcDbEntity
  8
0
  6
Continuous
 62
     7
370
     0
100
AcDbLine
 10
149.2808216085
 20
67.4794508895
 30
0.0
 11
149.3390300145
 21
67.4649073562
 31
0.0
  0
ARC
  5
4DB
330
1F
100
AcDbEntity
  8
0
  6
Continuous
 62
     7
370
     0
100
AcDbCircle
 10
149.3098934248
 20
67.3484651642
 30
0.0
 40
0.1200321828298969
100
AcDbArc
 50
359.9993116244
 51
75.9516970296
  0
LINE
  5
4DC
330
1F
100
AcDbEntity
  8
0
  6
Continuous
 62
     7
370
     0
100
AcDbLine
 10
149.4299256077
 20
67.3484637221
 30
0.0
 11
149.4299256077
 21
64.7821738204
 31
0.0
  0
ARC
  5
4DD
330
1F
100
AcDbEntity
  8
0
  6
Continuous
 62
     7
370
     0
100
AcDbCircle
 10
149.0299484881
 20
64.7821742931
 30
0.0
 40
0.3999771195634605
100
AcDbArc
 50
292.617691446
 51
359.9999322797
  0
ARC
  5
4DE
330
1F
100
AcDbEntity
  8
0
  6
Continuous
 62
     7
370
     0
100
AcDbCircle
 10
149.2299252955
 20
64.3021895369
 30
0.0
 40
0.1199998892853769
100
AcDbArc
 50
112.6196870788
 51
247.3803129212
  0
ARC
  5
4DF
330
1F
100
AcDbEntity
  8
0
  6
Continuous
 62
     7
370
     0
100
AcDbCircle
 10
149.0299484826
 20
63.8222047741
 30
0.0
 40
0.3999771278546918
100
AcDbArc
 50
359.9932380985
 51
67.3823081943
  0
LINE
  5
4E0
330
1F
100
AcDbEntity
  8
0
  6
Continuous
 62
     7
370
     0
100
AcDbLine
 10
149.4299256077
 20
63.8221575698
 30
0.0
 11
149.4299256077
 21
42.2443224868
 31
0.0
  0
ARC
  5
4E1
330
1F
100
AcDbEnt
 21
254.4750445598
 31
0.0
  0
LINE
  5
5AC
330
1F
100
AcDbEntity
  8
HARTLIJN
 62
     7
100
AcDbLine
 10
139.3699255838
 20
254.4750445598
 30
0.0
 11
140.3699255838
 21
256.4750445598
 31
0.0
  0
LINE
  5
5AD
330
1F
100
AcDbEntity
  8
HARTLIJN
 62
     7
100
AcDbLine
 10
140.3699255838
 20
256.4750445598
 30
0.0
 11
130.2549255838
 21
256.4750445598
 31
0.0
  0
LINE
  5
5AE
330
1F
100
AcDbEntity
  8
HARTLIJN
 62
     7
100
AcDbLine
 10
152.4849255838
 20
258.4750445598
 30
0.0
 11
142.3699255838
 21
258.4750445598
 31
0.0
  0
LINE
  5
5AF
330
1F
100
AcDbEntity
  8
HARTLIJN
 62
     7
100
AcDbLine
 10
142.3699255838
 20
258.4750445598
 30
0.0
 11
143.3699255838
 21
260.4750445598
 31
0.0
  0
LINE
  5
5B0
330
1F
100
AcDbEntity
  8
HARTLIJN
 62
     7
100
AcDbLine
 10
143.3699255838
 20
260.4750445598
 30
0.0
 11
141.3699255838
 21
258.4750.9299255838
 22
199.8200717467
 32
0.0
 13
171.9299255838
 23
199.8200717467
 33
0.0
  0
SOLID
  5
51F
330
51B
100
AcDbEntity
  8
HARTLIJN
100
AcDbTrace
 10
171.4299255838
 20
210.3073934143
 30
0.0
 11
171.9299255838
 21
213.3073934143
 31
0.0
 12
170.9299255838
 22
213.3073934143
 32
0.0
 13
170.9299255838
 23
213.3073934143
 33
0.0
  0
LINE
  5
520
330
51B
100
AcDbEntity
  8
HARTLIJN
100
AcDbLine
 10
150.4168593775
 20
202.8200717467
 30
0.0
 11
172.4299255838
 21
202.8200717467
 31
0.0
  0
LINE
  5
521
330
51B
100
AcDbEntity
  8
HARTLIJN
100
AcDbLine
 10
148.8555696261
 20
210.3073934143
 30
0.0
 11
172.4299255838
 21
210.3073934143
 31
0.0
  0
LINE
  5
522
330
51B
100
AcDbEntity
  8
HARTLIJN
100
AcDbLine
 10
171.4299255838
 20
202.8200717467
 30
0.0
 11
171.4299255838
 21
190.8599118622
 31
0.0
  0
LINE
  5
523
330
51B
100
AcDbEntity
  8
HARTLIJN
100
AcDbLine
 10
171.4299255838
 20
202.8200717467
 30
0.0
 11
171.4299255838
 21
210.3073934143
 31
0.0
  0
LINE
  5
524
330
51B
100
AcDbEntity
  8
HARTLIJN
100
AcDbLine
 10
171.4299255838
 20
210.3073934143
 30
0.0
 11
171.4299255838
 21
216.3073934143
 31
0.0
  0
MTEXT
  5
525
330
51B
100
AcDbEntity
  8
HARTLIJN
100
AcDbMText
 10
166.9181886692
 20
190.8599118622
 30
0.04
 40
3.5
 41
0.0
 71
     1
 72
     1
  1
19
  7
SLDTEXTSTYLE0
 11
6.123233995736766E-17
 21
1.0
 31
0.0
 73
     1
 44
1.0
  0
ENDBLK
  5
51D
330
51B
100
AcDbEntity
  8
0
100
AcDbBlockEnd
  0
BLOCK
  5
528
330
527
100
AcDbEntity
  8
0
100
AcDbBlockBegin
  2
_D_3
 70
     0
 10
0.0
 20
0.0
 30
0.0
  3
_D_3
  1

  0
SOLID
  5
52A
330
527
100
AcDbEntity
  8
HARTLIJN
100
AcDbTrace
 10
171.4299255838
 20
126.2783621669
 30
0.0
 11
170.9299255838
 21
123.2783621669
 31
0.0
 12
171.9299255838
 22
123.2783621669
 32
0.0
 13
171.9299255838
 23
123.2783621669
 33
0.0
  0
SOLID
  5
52B
330
527
100
AcDbEntity
  8
HARTLIJN
100
AcDbTrace
 10
171.4299255838
 20
133.7256838344
 30
0.0
 11
171.9299255838
 21
136.7256838344
 31
0.0
 12
170.9299255838
 22
136.7256838344
 32
0.0
 13
170.9299255838
 23
136.7256838344
 33
0.0
  0
LINE
  5
52C
330
527
100
AcDbEntity
  8
HARTLIJN
100
AcDbLine
 10
150.4168593775
 20
126.2783621669
 30
0.0
 11
172.4299255838
 21
126.2783621669
 31
0.0
  0
LINE
  5
52D
330
527
100
AcDbEntity
  8
HARTLIJN
100
AcDbLine
 10
149.0299255838
 20
133.7256838344
 30
0.0
 11
172.4299255838
 21
133.7256838344
 31
0.0
  0
LINE
  5
52E
330
527
100
AcDbEntity
  8
HARTLIJN
100
AcDbLine
 10
171.4299255838
 20
126.2783621669
 30
0.0
 11
171.4299255838
 21
109.1156238914
 31
0.0
  0
LINE
  5
52F
330
527
100
AcDbEntity
  8
HARTLIJN
100
AcDbLine
 10
171.4299255838
 20
126.2783621669
 30
0.0
 11
171.4299255838
 21
133.7256838344
 31
0.0
  0
LINE
  5
530
330
527
100
AcDbEntity
  8
HARTLIJN
100
AcDbLine
 10
171.4299255838
 20
133.7256838344
 30
0.0
 11
171.4299255838
 21
139.7256838344
 31
0.0
  0
MTEXT
  5
531
330
527
100
AcDbEntity
  8
HARTLIJN
100
AcDbMText
 10
166.9181886692
 20
109.1156238914
 30
0.04
 40
3.5
 41
0.0
 71
     1
 72
     1
  1
19
  7
SLDTEXTSTYLE0
 11
6.123233995736766E-17
 21
1.0
 31
0.0
 73
     1
 44
1.0
  0
ENDBLK
  5
529
330
527
100
AcDbEntity
  8
0
100
AcDbBlockEnd
  0
BLOCK
  5
535
330
534
100
AcDbEntity
  8
0
100
AcDbBlockBegin
  2
_D_4
 70
     0
 10
0.0
 20
0.0
 30
0.0
  3
_D_4
  1

  0
SOLID
  5
537
330
534
100
AcDbEntity
  8
HARTLIJN
100
AcDbTrace
 10
195.4299255838
 20
133.7256838344
 30
0.0
 11
194.9299255838
 21
130.7256838344
 31
0.0
 12
195.9299255838
 22
130.7256838344
 32
0.0
 13
195.9299255838
 23
130.7256838344
 33
0.0
  0
SOLID
  5
538
330
534
100
AcDbEntity
  8
HARTLIJN
100
AcDbTrace
 10
195.4299255838
 20
41.9821787182
 30
0.0
 11
195.9299255838
 21
44.9821787182
 31
0.0
 12
194.9299255838
 22
44.9821787182
 32
0.0
 13
194.9299255838
 23
44.9821787182
 33
0.0
  0
LINE
  5
539
330
534
100
AcDbEntity
  8
HARTLIJN
100
AcDbLine
 10
149.0299255838
 20
133.7256838344
 30
0.0
 11
196.4299255838
 21
133.7256838344
 31
0.0
  0
LINE
  5
53A
330
534
100
AcDbEntity
  8
HARTLIJN
100
AcDbLine
 10
149.0299255838
 20
41.9821787182
 30
0.0
 11
196.4299255838
 21
41.9821787182
 31
0.0
  0
LINE
  5
53B
330
534
100
AcDbEntity
  8
HARTLIJN
100
AcDbLine
 10
195.4299255838
 20
133.7256838344
 30
0.0
 11
195.4299255838
 21
41.9821787182
 31
0.0
  0
ENDBLK
  5
536
330
534
100
AcDbEntity
  8
0
100
AcDbBlockEnd
  0
BLOCK
  5
53E
330
53D
100
AcDbEntity
  8
0
100
AcDbBlockBegin
  2
_D_5
 70
     0
 10
0.0
 20
0.0
 30
0.0
  3
_D_5
  1

  0
SOLID
  5
540
330
53D
100
AcDbEntity
  8
HARTLIJN
100
AcDbTrace
 10
195.2555532575
 20
210.3467855475
 30
0.0
 11
194.7580466032
 21
207.3463710546
 31
0.0
 12
195.7580462578
 22
207.3472021123
 32
0.0
 13
195.7580462578
 23
207.3472021123
 33
0.0
  0
SOLID
  5
541
330
53D
100
AcDbEntity
  8
HARTLIJN
100
AcDbTrace
 10
195.3191971725
 20
133.7649839595
 30
0.0
 11
195.8167038268
 21
136.7653984523
 31
0.0
 12
194.8167041722
 22
136.7645673947
 32
0.0
 13
194.8167041722
 23
136.7645673947
 33
0.0
  0
LINE
  5
542
330
53D
100
AcDbEntity
  8
HARTLIJN
100
AcDbLine
 10
148.8555692807
 20
210.3082244719
 30
0.0
 11
196.2555529122
 21
210.3476166051
 31
0.0
  0
LINE
  5
543
330
53D
100
AcDbEntity
  8
HARTLIJN
100
AcDbLine
 10
149.029925238ity
  8
0
  6
Continuous
 62
     7
370
     0
100
AcDbCircle
 10
149.2877619365
 20
42.2443402896
 30
0.0
 40
0.1421636723032661
100
AcDbArc
 50
215.0074908018
 51
359.9928249763
  0
LINE
  5
4E2
330
1F
100
AcDbEntity
  8
0
  6
Continuous
 62
     7
370
     0
100
AcDbLine
 10
149.1713189354
 20
42.1627833327
 30
0.0
 11
148.4940879812
 21
43.1299998244
 31
0.0
  0
ARC
  5
4E3
330
1F
100
AcDbEntity
  8
0
  6
Continuous
 62
     7
370
     0
100
AcDbCircle
 10
148.5923363035
 20
43.1988138586
 30
0.0
 40
0.1199504236850504
100
AcDbArc
 50
136.8044484108
 51
215.0077544772
  0
ARC
  5
4E4
330
1F
100
AcDbEntity
  8
0
  6
Continuous
 62
     7
370
     0
100
AcDbCircle
 10
147.6299254989
 20
44.1021810107
 30
0.0
 40
1.200014262087228
100
AcDbArc
 50
316.8133643338
 51
223.1866356662
  0
ARC
  5
4E5
330
1F
100
AcDbEntity
  8
0
  6
Continuous
 62
     7
370
     0
100
AcDbCircle
 10
146.667516349
 20
43.1988139771
 30
0.0
 40
0.1199491362526016
100
AcDbArc
 50
324.9917457236
 51
43.1960513885
  0
LINE
  5
4E6
330
1F
100
AcDbEntity
  8
0
  6
Continuous
 62
     7
370
     0
100
AcDbLine
 10
146.7657630166
 20
43.1299998244
 30
0.0
 11
146.1655196567
 21
42.2727419814
 31
0.0
  0
ARC
  5
4E7
330
1F
100
AcDbEntity
  8
0
  6
Continuous
 62
     7
370
     0
100
AcDbCircle
 10
145.8378250788
 20
42.5022486061
 30
0.0
 40
0.4000712776530942
100
AcDbArc
 50
270.0048248044
 51
324.9938514507
  0
LINE
  5
4E8
330
1F
100
AcDbEntity
  8
0
  6
Continuous
 62
     7
370
     0
100
AcDbLine
 10
145.8378587683
 20
42.1021773299
 30
0.0
 11
143.9099256714
 21
42.1021773299
 31
0.0
  0
ARC
  5
4E9
330
1F
100
AcDbEntity
  8
0
  6
Continuous
 62
     7
370
     0
100
AcDbCircle
 10
143.9098934092
 20
42.1821451244
 30
0.0
 40
0.0799678010352872
100
AcDbArc
 50
179.9674137886
 51
270.0231154488
  0
LINE
  5
4EA
330
1F
100
AcDbEntity
  8
0
  6
Continuous
 62
     7
370
     0
100
AcDbLine
 10
143.8299256211
 20
42.1821906051
 30
0.0
 11
143.8299256211
 21
42.7421881637
 31
0.0
  0
ARC
  5
4EB
330
1F
100
AcDbEntity
  8
0
  6
Continuous
 62
     7
370
     0
100
AcDbCircle
 10
143.9099748178
 20
42.7421522491
 30
0.0
 40
0.080049204801129
100
AcDbArc
 50
90.0351768672
 51
179.9742938954
  0
LINE
  5
4EC
330
1F
100
AcDbEntity
  8
0
  6
Continuous
 62
     7
370
     0
100
AcDbLine
 10
143.9099256714
 20
42.8222014388
 30
0.0
 11
145.3970798125
 21
42.8222014388
 31
0.0
  0
ARC
  5
4ED
330
1F
100
AcDbEntity
  8
0
  6
Continuous
 62
     7
370
     0
100
AcDbCircle
 10
145.3970883777
 20
43.2221900281
 30
0.0
 40
0.3999885893651605
100
AcDbArc
 50
269.9987730963
 51
21.5094255355
  0
ARC
  5
4EE
330
1F
100
AcDbEntity
  8
0
  6
Continuous
 62
     7
370
     0
100
AcDbCircle
 10
147.6299070455
 20
44.102180655
 30
0.0
 40
1.999982807792672
100
AcDbArc
 50
166.3277484711
 51
201.510375133
  0
ARC
  5
4EF
330
1F
100
AcDbEntity
  8
0
  6
Continuous
 62
     7
370
     0
100
AcDbCircle
 10
145.4922360036
 20
44.6221751279
 30
0.0
 40
0.2000244053689678
100
AcDbArc
 50
346.3324477609
 51
89.9922055192
  0
LINE
  5
4F0
330
1F
100
AcDbEntity
  8
0
  6
Continuous
 62
     7
370
     0
100
AcDbLine
 10
145.4922632148
 20
44.8221995315
 30
0.0
 11
137.3675879856
 21
44.8221995315
 31
0.0
  0
ARC
  5
4F1
330
1F
100
AcDbEntity
  8
0
  6
Continuous
 62
     7
370
     0
100
AcDbCircle
 10
137.3676151968
 20
44.6221751279
 30
0.0
 40
0.2000244053689526
100
AcDbArc
 50
90.0077944808
 51
193.6675522391
  0
ARC
  5
4F2
330
1F
100
AcDbEntity
  8
0
  6
Continuous
 62
     7
370
     0
100
AcDbCircle
 10
135.2299441549
 20
44.102180655
 30
0.0
 40
1.999982807792147
100
AcDbArc
 50
338.489624867
 51
13.672251529
  0
ARC
  5
4F3
330
1F
100
AcDbEntity
  8
0
  6
Continuous
 62
     7
370
     0
100
AcDbCircle
 10
137.4627628227
 20
43.2221900281
 30
0.0
 40
0.399988589365143
100
AcDbArc
 50
158.4905744645
 51
270.0012269037
  0
LINE
  5
4F4
330
1F
100
AcDbEntity
  8
0
  6
Continuous
 62
     8
370
     0
100
AcDbLine
 10
148.8260940482
 20
80.1358534774
 30
0.0
 11
148.8260940482
 21
103.7777020415
 31
0.0
  0
LINE
  5
4F5
330
1F
100
AcDbEntity
  8
0
  6
Continuous
 62
     8
370
     0
100
AcDbLine
 10
133.4835157563
 20
80.1027132949
 30
0.0
 11
133.4835157563
 21
103.7777020415
 31
0.0
  0
LINE
  5
4F6
330
1F
100
AcDbEntity
  8
0
  6
Continuous
 62
     8
370
     0
100
AcDbLine
 10
148.5235550275
 20
81.2455489119
 30
0.0
 11
148.5235550275
 21
103.7777020415
 31
0.0
  0
LINE
  5
4F7
330
1F
100
AcDbEntity
  8
0
  6
Continuous
 62
     8
370
     0
100
AcDbLine
 10
148.1099256148
 20
82.7892615279
 30
0.0
 11
148.1099256148
 21
103.7777020415
 31
0.0
  0
POINT
  5
4F8
330
1F
100
AcDbEntity
  8
HARTLIJN
100
AcDbPoint
 10
142.0299255838
 20
-247.6988063932
 30
0.0
  0
POINT
  5
4F9
330
1F
100
AcDbEntity
  8
HARTLIJN
100
AcDbPoint
 10
149.4168593775
 20
447.9345399732
 30
0.0
  0
POINT
  5
4FA
330
1F
100
AcDbEntity
  8
HARTLIJN
100
AcDbPoint
 10
149.4168593775
 20
238.1745399732
 30
0.0
  0
POINT
  5
4FB
330
1F
100
AcDbEntity
  8
HARTLIJN
100
AcDbPoint
 10
147.8555696261
 20
245.6618616408
 30
0.0
  0
POINT
  5
4FC
330
1F
100
AcDbEntity
  8
HARTLIJN
100
AcDbPoint
 10
147.8555696261
 20
455.4218616408
 30
0.0
  0
POINT
  5
4FD
330
1F
100
AcDbEntity
  8
HARTLIJN
100
AcDbPoint
 10
148.0299255838
 20
35.8618616408
 30
0.0
  0
POINT
  5
4FE
330
1F
100
AcDbEntity
  8
HARTLIJN
100
AcDbPoint
 10
149.4168593775
 20
28.4145399732
 30
0.0
  0
POINT
  5
4FF
330
1F
100
AcDbEntity
  8
HARTLIJN
100
AcDbPoint
 10
133.4299255838
 20
660.3011936068
 30
0.0
  0
DIMENSION
  5
500
330
1F
100
AcDbEntity
  8
HARTLIJN
100
AcDbDimension
  2
_D
 10
195.4299255838
 20
41.9821787182
 30
0.0
 11
195.4299255838
 21
34.5771309945
 31
0.0
 70
   160
  1
33
 71
     2
 42
-1.0
  3
SLDDIMSTYLE0
100
AcDbAlignedDimension
 13
142.0299255838
 23
28.7821787182
 33
0.0
 14
148.0299255838
 24
41.9821787182
 34
0.0
 50
90.0
100
AcDbRotatedDimension
  0
DIMENSION
  5
50D
330
1F
100
AcDbEntity
  8
HARTLIJN
100
AcDbDimension
  2
_D_1
 10
171.4299255838
 20
287.499722104
 30
0.0
 11
171.4299255838
 21
271.6850735678
 31
0.0
 70
   160
  1
<>
 71
     2
 42
-1.0
  3
SLDDIMSTYLE1
100
AcDbAlignedDimension
 13
149.4168593775
 23
280.0124004364
 33
0.0
 14
147.8555696261
 24
287.499722104
 34
0.0
 50
90.0
100
AcDbRotatedDimension
  0
DIMENSION
  5
51A
330
1F
100
AcDbEntity
  8
HARTLIJN
100
AcDbDimension
  2
_D_2
 10
171.4299255838
 20
210.3073934143
 30
0.0
 11
171.4299255838
 21
194.8678981433
 31
0.0
 70
   160
  1
<>
 71
     2
 42
-1.0
  3
SLDDIMSTYLE1
100
AcDbAlignedDimension
 13
149.4168593775
 23
202.8200717467
 33
0.0
 14
147.8555696261
 24
210.3073934143
 34
0.0
 50
90.0
100
AcDbRotatedDimension
  0
DIMENSION
  5
526
330
1F
100
AcDbEntity
  8
HARTLIJN
100
AcDbDimension
  2
_D_3
 10
171.4299255838
 20
133.7256838344
 30
0.0
 11
171.4299255838
 21
113.1236101725
 31
0.0
 70
   160
  1
<>
 71
     2
 42
-1.0
  3
SLDDIMSTYLE1
100
AcDbAlignedDimension
 13
149.4168593775
 23
126.2783621669
 33
0.0
 14
148.0299255838
 24
133.7256838344
 34
0.0
 50
90.0
100
AcDbRotatedDimension
  0
DIMENSION
  5
532
330
1F
100
AcDbEntity
  8
HARTLIJN
100
AcDbDimension
  2
_D_4
 10
195.4299255838
 20
41.9821787182
 30
0.0
 11
195.4299255838
 21
84.1586135498
 31
0.0
 70
   160
  1
675,902
 71
     2
 42
-1.0
  3
SLDDIMSTYLE2
100
AcDbAlignedDimension
 13
148.0299255838
 23
133.7256838344
 33
0.0
 14
148.0299255838
 24
41.9821787182
 34
0.0
 50
90.0
100
AcDbRotatedDimension
  0
DIMENSION
  5
53C
330
1F
100
AcDbEntity
  8
HARTLIJN
100
AcDbDimension
  2
_D_5
 10
195.3191971725
 20
133.7649839595
 30
0.0
 11
195.2817915125
 21
178.7746730971
 31
0.0
 70
   160
  1
524,500
 71
     2
 42
-1.0
  3
SLDDIMSTYLE2
100
AcDbAlignedDimension
 13
147.8555696261
 23
210.3073934143
 33
0.0
 14
148.0299255838
 24
133.7256838344
 34
0.0
 50
-89.9523838979
100
AcDbRotatedDimension
  0
DIMENSION
  5
545
330
1F
100
AcDbEntity
  8
HARTLIJN
100
AcDbDimension
  2
_D_6
 10
195.2555696261
 20
210.3073934143
 30
0.0
 11
195.2555696261
 21
246.0726158741
 31
0.0
 70
   160
  1
524,400
 71
     2
 42
-1.0
  3
SLDDIMSTYLE2
100
AcDbAlignedDimension
 13
147.8555696261
 23
287.499722104
 33
0.0
 14
147.8555696261
 24
210.3073934143
 34
0.0
 50
90.0
100
AcDbRotatedDimension
  0
DIMENSION
  5
54E
330
1F
100
AcDbEntity
  8
HARTLIJN
100
AcDbDimension
  2
_D_7
 10
195.2555696261
 20
397.2202084954
 30
0.0
 11
195.2555696261
 21
357.7845521004
 31
0.0
 70
   160
  1
545,698
 71
     2
 42
-1.0
  3
SLDDIMSTYLE2
100
AcDbAlignedDimension
 13
147.8555696261
 23
287.499722104
 33
0.0
 14
145.8378589248
 24
397.2202084954
 34
0.0
 50
90.0
100
AcDbRotatedDimension
  0
DIMENSION
  5
557
330
1F
100
AcDbEntity
  8
HARTLIJN
100
AcDbDimension
  2
_D_8
 10
219.4299255838
 20
397.2202084954
 30
0.0
 11
219.4299255838
 21
226.31135989
 31
0.0
 70
   160
  1
Kozijnmaat =
 71
     2
 42
-1.0
  3
SLDDIMSTYLE2
100
AcDbAlignedDimension
 13
142.0299255838
 23
28.7821787182
 33
0.0
 14
145.8378589248
 24
397.2202084954
 34
0.0
 50
90.0
100
AcDbRotatedDimension
  0
DIMENSION
  5
561
330
1F
100
AcDbEntity
  8
HARTLIJN
100
AcDbDimension
  2
_D_9
 10
99.2299255838
 20
28.7821787182
 30
0.0
 11
99.2299255838
 21
214.5361780403
 31
0.0
 70
   160
  1
DMH =
 71
     2
 42
-1.0
  3
SLDDIMSTYLE2
100
AcDbAlignedDimension
 13
133.4299255838
 23
383.8202084954
 33
0.0
 14
142.0299255838
 24
28.7821787182
 34
0.0
 50
90.0
100
AcDbRotatedDimension
  0
DIMENSION
  5
56C
330
1F
100
AcDbEntity
  8
HARTLIJN
100
AcDbDimension
  2
_D_10
 10
117.2299255838
 20
148.4450158005
 30
0.0
 11
117.2299255838
 21
157.3719824392
 31
0.0
 70
   160
  1
<>
 71
     2
 42
-1.0
  3
SLDDIMSTYLE1
100
AcDbAlignedDimension
 13
133.5499255838
 23
147.8850158005
 33
0.0
 14
133.5499255838
 24
148.4450158005
 34
0.0
 50
90.0
100
AcDbRotatedDimension
  0
DIMENSION
  5
578
330
1F
100
AcDbEntity
  8
HARTLIJN
100
AcDbDimension
  2
_D_11
 10
117.2299255838
 20
224.9867253803
 30
0.0
 11
117.2299255838
 21
236.5334651005
 31
0.0
 70
   160
  1
<>
 71
     2
 42
-1.0
  3
SLDDIMSTYLE1
100
AcDbAlignedDimension
 13
133.5499255838
 23
224.4267253803
 33
0.0
 14
133.5499255838
 24
224.9867253803
 34
0.0
 50
90.0
100
AcDbRotatedDimension
  0
DIMENSION
  5
584
330
1F
100
AcDbEntity
  8
HARTLIJN
100
AcDbDimension
  2
_D_12
 10
117.2299255838
 20
302.17905407
 30
0.0
 11
117.2299255838
 21
311.8110919194
 31
0.0
 70
   160
  1
<>
 71
     2
 42
-1.0
  3
SLDDIMSTYLE1
100
AcDbAlignedDimension
 13
133.5499255838
 23
301.61905407
 33
0.0
 14
133.5499255838
 24
302.17905407
 34
0.0
 50
90.0
100
AcDbRotatedDimension
  0
LINE
  5
590
330
1F
100
AcDbEntity
  8
HARTLIJN
 62
     7
100
AcDbLine
 10
152.4849255838
 20
103.7777066237
 30
0.0
 11
142.3699255838
 21
103.7777066237
 31
0.0
  0
LINE
  5
591
330
1F
100
AcDbEntity
  8
HARTLIJN
 62
     7
100
AcDbLine
 10
142.3699255838
 20
103.7777066237
 30
0.0
 11
143.3699255838
 21
105.7777066237
 31
0.0
  0
LINE
  5
592
330
1F
100
AcDbEntity
  8
HARTLIJN
 62
     7
100
AcDbLine
 10
143.3699255838
 20
105.7777066237
 30
0.0
 11
141.3699255838
 21
103.7777066237
 31
0.0
  0
LINE
  5
593
330
1F
100
AcDbEntity
  8
HARTLIJN
 62
     7
100
AcDbLine
 10
141.3699255838
 20
103.7777066237
 30
0.0
 11
139.3699255838
 21
101.7777066237
 31
0.0
  0
LINE
  5
594
330
1F
100
AcDbEntity
  8
HARTLIJN
 62
     7
100
AcDbLine
 10
139.3699255838
 20
101.7777066237
 30
0.0
 11
140.3699255838
 21
103.7777066237
 31
0.0
  0
LINE
  5
595
330
1F
100
AcDbEntity
  8
HARTLIJN
 62
     7
100
AcDbLine
 10
140.3699255838
 20
103.7777066237
 30
0.0
 11
130.2549255838
 21
103.7777066237
 31
0.0
  0
LINE
  5
596
330
1F
100
AcDbEntity
  8
HARTLIJN
 62
     7
100
AcDbLine
 10
152.4849255838
 20
105.7777066237
 30
0.0
 11
142.3699255838
 21
105.7777066237
 31
0.0
  0
LINE
  5
597
330
1F
100
AcDbEntity
  8
HARTLIJN
 62
     7
100
AcDbLine
 10
142.3699255838
 20
105.7777066237
 30
0.0
 11
143.3699255838
 21
107.7777066237
 31
0.0
  0
LINE
  5
598
330
1F
100
AcDbEntity
  8
HARTLIJN
 62
     7
100
AcDbLine
 10
143.3699255838
 20
107.7777066237
 30
0.0
 11
141.3699255838
 21
105.7777066237
 31
0.0
  0
LINE
  5
599
330
1F
100
AcDbEntity
  8
HARTLIJN
 62
     7
100
AcDbLine
 10
141.3699255838
 20
105.7777066237
 30
0.0
 11
139.3699255838
 21
103.7777066237
 31
0.0
  0
LINE
  5
59A
330
1F
100
AcDbEntity
  8
HARTLIJN
 62
     7
100
AcDbLine
 10
139.3699255838
 20
103.7777066237
 30
0.0
 11
140.3699255838
 21
105.7777066237
 31
0.0
  0
LINE
  5
59B
330
1F
100
AcDbEntity
  8
HARTLIJN
 62
     7
100
AcDbLine
 10
140.3699255838
 20
105.7777066237
 30
0.0
 11
130.2549255838
 21
105.7777066237
 31
0.0
  0
LINE
  5
59C
330
1F
100
AcDbEntity
  8
HARTLIJN
 62
     7
100
AcDbLine
 10
152.4849255838
 20
179.2366515846
 30
0.0
 11
142.3699255838
 21
179.2366515846
 31
0.0
  0
LINE
  5
59D
330
1F
100
AcDbEntity
  8
HARTLIJN
 62
     7
100
AcDbLine
 10
142.3699255838
 20
179.2366515846
 30
0.0
 11
143.3699255838
 21
181.2366515846
 31
0.0
  0
LINE
  5
59E
330
1F
100
AcDbEntity
  8
HARTLIJN
 62
     7
100
AcDbLine
 10
143.3699255838
 20
181.2366515846
 30
0.0
 11
141.3699255838
 21
179.2366515846
 31
0.0
  0
LINE
  5
59F
330
1F
100
AcDbEntity
  8
HARTLIJN
 62
     7
100
AcDbLine
 10
141.3699255838
 20
179.2366515846
 30
0.0
 11
139.3699255838
 21
177.2366515846
 31
0.0
  0
LINE
  5
5A0
330
1F
100
AcDbEntity
  8
HARTLIJN
 62
     7
100
AcDbLine
 10
139.3699255838
 20
177.2366515846
 30
0.0
 11
140.3699255838
 21
179.2366515846
 31
0.0
  0
LINE
  5
5A1
330
1F
100
AcDbEntity
  8
HARTLIJN
 62
     7
100
AcDbLine
 10
140.3699255838
 20
179.2366515846
 30
0.0
 11
130.2549255838
 21
179.2366515846
 31
0.0
  0
LINE
  5
5A2
330
1F
100
AcDbEntity
  8
HARTLIJN
 62
     7
100
AcDbLine
 10
152.4849255838
 20
181.2366515846
 30
0.0
 11
142.3699255838
 21
181.2366515846
 31
0.0
  0
LINE
  5
5A3
330
1F
100
AcDbEntity
  8
HARTLIJN
 62
     7
100
AcDbLine
 10
142.3699255838
 20
181.2366515846
 30
0.0
 11
143.3699255838
 21
183.2366515846
 31
0.0
  0
LINE
  5
5A4
330
1F
100
AcDbEntity
  8
HARTLIJN
 62
     7
100
AcDbLine
 10
143.3699255838
 20
183.2366515846
 30
0.0
 11
141.3699255838
 21
181.2366515846
 31
0.0
  0
LINE
  5
5A5
330
1F
100
AcDbEntity
  8
HARTLIJN
 62
     7
100
AcDbLine
 10
141.3699255838
 20
181.2366515846
 30
0.0
 11
139.3699255838
 21
179.2366515846
 31
0.0
  0
LINE
  5
5A6
330
1F
100
AcDbEntity
  8
HARTLIJN
 62
     7
100
AcDbLine
 10
139.3699255838
 20
179.2366515846
 30
0.0
 11
140.3699255838
 21
181.2366515846
 31
0.0
  0
LINE
  5
5A7
330
1F
100
AcDbEntity
  8
HARTLIJN
 62
     7
100
AcDbLine
 10
140.3699255838
 20
181.2366515846
 30
0.0
 11
130.2549255838
 21
181.2366515846
 31
0.0
  0
LINE
  5
5A8
330
1F
100
AcDbEntity
  8
HARTLIJN
 62
     7
100
AcDbLine
 10
152.4849255838
 20
256.4750445598
 30
0.0
 11
142.3699255838
 21
256.4750445598
 31
0.0
  0
LINE
  5
5A9
330
1F
100
AcDbEntity
  8
HARTLIJN
 62
     7
100
AcDbLine
 10
142.3699255838
 20
256.4750445598
 30
0.0
 11
143.3699255838
 21
258.4750445598
 31
0.0
  0
LINE
  5
5AA
330
1F
100
AcDbEntity
  8
HARTLIJN
 62
     7
100
AcDbLine
 10
143.3699255838
 20
258.4750445598
 30
0.0
 11
141.3699255838
 21
256.4750445598
 31
0.0
  0
LINE
  5
5AB
330
1F
100
AcDbEntity
  8
HARTLIJN
 62
     7
100
AcDbLine
 10
141.3699255838
 20
256.4750445598
 30
0.0
 11
139.3699255838
 21
254.4750445598
 31
0.0
  0
LINE
  5
5AC
330
1F
100
AcDbEntity
  8
HARTLIJN
 62
     7
100
AcDbLine
 10
139.3699255838
 20
254.4750445598
 30
0.0
 11
140.3699255838
 21
256.4750445598
 31
0.0
  0
LINE
  5
5AD
330
1F
100
AcDbEntity
  8
HARTLIJN
 62
     7
100
AcDbLine
 10
140.3699255838
 20
256.4750445598
 30
0.0
 11
130.2549255838
 21
256.4750445598
 31
0.0
  0
LINE
  5
5AE
330
1F
100
AcDbEntity
  8
HARTLIJN
 62
     7
100
AcDbLine
 10
152.4849255838
 20
258.4750445598
 30
0.0
 11
142.3699255838
 21
258.4750445598
 31
0.0
  0
LINE
  5
5AF
330
1F
100
AcDbEntity
  8
HARTLIJN
 62
     7
100
AcDbLine
 10
142.3699255838
 20
258.4750445598
 30
0.0
 11
143.3699255838
 21
260.4750445598
 31
0.0
  0
LINE
  5
5B0
330
1F
100
AcDbEntity
  8
HARTLIJN
 62
     7
100
AcDbLine
 10
143.3699255838
 20
260.4750445598
 30
0.0
 11
141.3699255838
 21
258.4750.9299255838
 22
199.8200717467
 32
0.0
 13
171.9299255838
 23
199.8200717467
 33
0.0
  0
SOLID
  5
51F
330
51B
100
AcDbEntity
  8
HARTLIJN
100
AcDbTrace
 10
171.4299255838
 20
210.3073934143
 30
0.0
 11
171.9299255838
 21
213.3073934143
 31
0.0
 12
170.9299255838
 22
213.3073934143
 32
0.0
 13
170.9299255838
 23
213.3073934143
 33
0.0
  0
LINE
  5
520
330
51B
100
AcDbEntity
  8
HARTLIJN
100
AcDbLine
 10
150.4168593775
 20
202.8200717467
 30
0.0
 11
172.4299255838
 21
202.8200717467
 31
0.0
  0
LINE
  5
521
330
51B
100
AcDbEntity
  8
HARTLIJN
100
AcDbLine
 10
148.8555696261
 20
210.3073934143
 30
0.0
 11
172.4299255838
 21
210.3073934143
 31
0.0
  0
LINE
  5
522
330
51B
100
AcDbEntity
  8
HARTLIJN
100
AcDbLine
 10
171.4299255838
 20
202.8200717467
 30
0.0
 11
171.4299255838
 21
190.8599118622
 31
0.0
  0
LINE
  5
523
330
51B
100
AcDbEntity
  8
HARTLIJN
100
AcDbLine
 10
171.4299255838
 20
202.8200717467
 30
0.0
 11
171.4299255838
 21
210.3073934143
 31
0.0
  0
LINE
  5
524
330
51B
100
AcDbEntity
  8
HARTLIJN
100
AcDbLine
 10
171.4299255838
 20
210.3073934143
 30
0.0
 11
171.4299255838
 21
216.3073934143
 31
0.0
  0
MTEXT
  5
525
330
51B
100
AcDbEntity
  8
HARTLIJN
100
AcDbMText
 10
166.9181886692
 20
190.8599118622
 30
0.04
 40
3.5
 41
0.0
 71
     1
 72
     1
  1
19
  7
SLDTEXTSTYLE0
 11
6.123233995736766E-17
 21
1.0
 31
0.0
 73
     1
 44
1.0
  0
ENDBLK
  5
51D
330
51B
100
AcDbEntity
  8
0
100
AcDbBlockEnd
  0
BLOCK
  5
528
330
527
100
AcDbEntity
  8
0
100
AcDbBlockBegin
  2
_D_3
 70
     0
 10
0.0
 20
0.0
 30
0.0
  3
_D_3
  1

  0
SOLID
  5
52A
330
527
100
AcDbEntity
  8
HARTLIJN
100
AcDbTrace
 10
171.4299255838
 20
126.2783621669
 30
0.0
 11
170.9299255838
 21
123.2783621669
 31
0.0
 12
171.9299255838
 22
123.2783621669
 32
0.0
 13
171.9299255838
 23
123.2783621669
 33
0.0
  0
SOLID
  5
52B
330
527
100
AcDbEntity
  8
HARTLIJN
100
AcDbTrace
 10
171.4299255838
 20
133.7256838344
 30
0.0
 11
171.9299255838
 21
136.7256838344
 31
0.0
 12
170.9299255838
 22
136.7256838344
 32
0.0
 13
170.9299255838
 23
136.7256838344
 33
0.0
  0
LINE
  5
52C
330
527
100
AcDbEntity
  8
HARTLIJN
100
AcDbLine
 10
150.4168593775
 20
126.2783621669
 30
0.0
 11
172.4299255838
 21
126.2783621669
 31
0.0
  0
LINE
  5
52D
330
527
100
AcDbEntity
  8
HARTLIJN
100
AcDbLine
 10
149.0299255838
 20
133.7256838344
 30
0.0
 11
172.4299255838
 21
133.7256838344
 31
0.0
  0
LINE
  5
52E
330
527
100
AcDbEntity
  8
HARTLIJN
100
AcDbLine
 10
171.4299255838
 20
126.2783621669
 30
0.0
 11
171.4299255838
 21
109.1156238914
 31
0.0
  0
LINE
  5
52F
330
527
100
AcDbEntity
  8
HARTLIJN
100
AcDbLine
 10
171.4299255838
 20
126.2783621669
 30
0.0
 11
171.4299255838
 21
133.7256838344
 31
0.0
  0
LINE
  5
530
330
527
100
AcDbEntity
  8
HARTLIJN
100
AcDbLine
 10
171.4299255838
 20
133.7256838344
 30
0.0
 11
171.4299255838
 21
139.7256838344
 31
0.0
  0
MTEXT
  5
531
330
527
100
AcDbEntity
  8
HARTLIJN
100
AcDbMText
 10
166.9181886692
 20
109.1156238914
 30
0.04
 40
3.5
 41
0.0
 71
     1
 72
     1
  1
19
  7
SLDTEXTSTYLE0
 11
6.123233995736766E-17
 21
1.0
 31
0.0
 73
     1
 44
1.0
  0
ENDBLK
  5
529
330
527
100
AcDbEntity
  8
0
100
AcDbBlockEnd
  0
BLOCK
  5
535
330
534
100
AcDbEntity
  8
0
100
AcDbBlockBegin
  2
_D_4
 70
     0
 10
0.0
 20
0.0
 30
0.0
  3
_D_4
  1

  0
SOLID
  5
537
330
534
100
AcDbEntity
  8
HARTLIJN
100
AcDbTrace
 10
195.4299255838
 20
133.7256838344
 30
0.0
 11
194.9299255838
 21
130.7256838344
 31
0.0
 12
195.9299255838
 22
130.7256838344
 32
0.0
 13
195.9299255838
 23
130.7256838344
 33
0.0
  0
SOLID
  5
538
330
534
100
AcDbEntity
  8
HARTLIJN
100
AcDbTrace
 10
195.4299255838
 20
41.9821787182
 30
0.0
 11
195.9299255838
 21
44.9821787182
 31
0.0
 12
194.9299255838
 22
44.9821787182
 32
0.0
 13
194.9299255838
 23
44.9821787182
 33
0.0
  0
LINE
  5
539
330
534
100
AcDbEntity
  8
HARTLIJN
100
AcDbLine
 10
149.0299255838
 20
133.7256838344
 30
0.0
 11
196.4299255838
 21
133.7256838344
 31
0.0
  0
LINE
  5
53A
330
534
100
AcDbEntity
  8
HARTLIJN
100
AcDbLine
 10
149.0299255838
 20
41.9821787182
 30
0.0
 11
196.4299255838
 21
41.9821787182
 31
0.0
  0
LINE
  5
53B
330
534
100
AcDbEntity
  8
HARTLIJN
100
AcDbLine
 10
195.4299255838
 20
133.7256838344
 30
0.0
 11
195.4299255838
 21
41.9821787182
 31
0.0
  0
ENDBLK
  5
536
330
534
100
AcDbEntity
  8
0
100
AcDbBlockEnd
  0
BLOCK
  5
53E
330
53D
100
AcDbEntity
  8
0
100
AcDbBlockBegin
  2
_D_5
 70
     0
 10
0.0
 20
0.0
 30
0.0
  3
_D_5
  1

  0
SOLID
  5
540
330
53D
100
AcDbEntity
  8
HARTLIJN
100
AcDbTrace
 10
195.2555532575
 20
210.3467855475
 30
0.0
 11
194.7580466032
 21
207.3463710546
 31
0.0
 12
195.7580462578
 22
207.3472021123
 32
0.0
 13
195.7580462578
 23
207.3472021123
 33
0.0
  0
SOLID
  5
541
330
53D
100
AcDbEntity
  8
HARTLIJN
100
AcDbTrace
 10
195.3191971725
 20
133.7649839595
 30
0.0
 11
195.8167038268
 21
136.7653984523
 31
0.0
 12
194.8167041722
 22
136.7645673947
 32
0.0
 13
194.8167041722
 23
136.7645673947
 33
0.0
  0
LINE
  5
542
330
53D
100
AcDbEntity
  8
HARTLIJN
100
AcDbLine
 10
148.8555692807
 20
210.3082244719
 30
0.0
 11
196.2555529122
 21
210.3476166051
 31
0.0
  0
LINE
  5
543
330
53D
100
AcDbEntity
  8
HARTLIJN
100
AcDbLine
 10
149.0299252385
 20
133.7265148921
 30
0.0
 11
196.3191968272
 21
133.7658150172
 31
0.0
  0
LINE
  5
544
330
53D
100
AcDbEntity
  8
HARTLIJN
100
AcDbLine
 10
195.2555532575
 20
210.3467855475
 30
0.0
 11
195.3191971725
 21
133.7649839595
 31
0.0
  0
ENDBLK
  5
53F
330
53D
100
AcDbEntity
  8
0
100
AcDbBlockEnd
  0
BLOCK
  5
547
330
546
100
AcDbEntity
  8
0
100
AcDbBlockBegin
  2
_D_6
 70
     0
 10
0.0
 20
0.0
 30
0.0
  3
_D_6
  1

  0
SOLID
  5
549
330
546
100
AcDbEntity
  8
HARTLIJN
100
AcDbTrace
 10
195.2555696261
 20
287.499722104
 30
0.0
 11
194.7555696261
 21
284.499722104
 31
0.0
 12
195.7555696261
 22
284.499722104
 32
0.0
 13
195.7555696261
 23
284.499722104
 33
0.0
  0
SOLID
  5
54A
330
546
100
AcDbEntity
  8
HARTLIJN
100
AcDbTrace
 10
195.2555696261
 20
210.3073934143
 30
0.0
 11
195.7555696261
 21
213.3073934143
 31
0.0
 12
194.7555696261
 22
213.3073934143
 32
0.0
 13
194.7555696261
 23
213.3073934143
 33
0.0
  0
LINE
  5
54B
330
546
100
AcDbEntity
  8
HARTLIJN
100
AcDbLine
 10
148.8555696261
 20
287.499722104
 30
0.0
 11
196.2555696261
 21
287.499722104
 31
0.0
  0
LINE
  5
54C
330
546
100
AcDbEntity
  8
HARTLIJN
100
AcDbLine
 10
148.8555696261
 20
210.3073934143
 30
0.0
 11
196.2555696261
 21
210.3073934143
 31
0.0
  0
LINE
  5
54D
330
546
100
AcDbEntity
  8
HARTLIJN
100
AcDbLine
 10
195.2555696261
 20
287.499722104
 30
0.0
 11
195.2555696261
 21
210.3073934143
 31
0.0
  0
ENDBLK
  5
548
330
546
100
AcDbEntity
  8
0
100
AcDbBlockEnd
  0
BLOCK
  5
550
330
54F
100
AcDbEntity
  8
0
100
AcDbBlockBegin
  2
_D_7
 70
     0
 10
0.0
 20
0.0
 30
0.0
  3
_D_7
  1

  0
SOLID
  5
552
330
54F
100
AcDbEntity
  8
HARTLIJN
100
AcDbTrace
 10
195.2555696261
 20
287.499722104
 30
0.0
 11
195.7555696261
 21
290.499722104
 31
0.0
 12
194.7555696261
 22
290.499722104
 32
0.0
 13
194.7555696261
 23
290.499722104
 33
0.0
  0
SOLID
  5
553
330
54F
100
AcDbEntity
  8
HARTLIJN
100
AcDbTrace
 10
195.2555696261
 20
397.2202084954
 30
0.0
 11
194.7555696261
 21
394.2202084954
 31
0.0
 12
195.7555696261
 22
394.2202084954
 32
0.0
 13
195.7555696261
 23
394.2202084954
 33
0.0
  0
LINE
  5
554
330
54F
100
AcDbEntity
  8
HARTLIJN
100
AcDbLine
 10
148.8555696261
 20
287.499722104
 30
0.0
 11
196.2555696261
 21
287.499722104
 31
0.0
  0
LINE
  5
555
330
54F
100
AcDbEntity
  8
HARTLIJN
100
AcDbLine
 10
146.8378589248
 20
397.2202084954
 30
0.0
 11
196.2555696261
 21
397.2202084954
 31
0.0
  0
LINE
  5
556
330
54F
100
AcDbEntity
  8
HARTLIJN
100
AcDbLine
 10
195.2555696261
 20
287.499722104
 30
0.0
 11
195.2555696261
 21
397.2202084954
 31
0.0
  0
ENDBLK
  5
551
330
54F
100
AcDbEntity
  8
0
100
AcDbBlockEnd
  0
BLOCK
  5
559
330
558
100
AcDbEntity
  8
0
100
AcDbBlockBegin
  2
_D_8
 70
     0
 10
0.0
 20
0.0
 30
0.0
  3
_D_8
  1

  0
SOLID
  5
55B
330
558
100
AcDbEntity
  8
HARTLIJN
100
AcDbTrace
 10
219.4299255838
 20
28.7821787182
 30
0.0
 11
219.9299255838
 21
31.7821787182
 31
0.0
 12
218.9299255838
 22
31.7821787182
 32
0.0
 13
218.9299255838
 23
31.7821787182
 33
0.0
  0
SOLID
  5
55C
330
558
100
AcDbEntity
  8
HARTLIJN
100
AcDbTrace
 10
219.4299255838
 20
397.2202084954
 30
0.0
 11
218.9299255838
 21
394.2202084954
 31
0.0
 12
219.9299255838
 22
394.2202084954
 32
0.0
 13
219.9299255838
 23
394.2202084954
 33
0.0
  0
LINE
  5
55D
330
558
100
AcDbEntity
  8
HARTLIJN
100
AcDbLine
 10
143.0299255838
 20
28.7821787182
 30
0.0
 11
220.4299255838
 21
28.7821787182
 31
0.0
  0
LINE
  5
55E
330
558
100
AcDbEntity
  8
HARTLIJN
100
AcDbLine
 10
146.8378589248
 20
397.2202084954
 30
0.0
 11
220.4299255838
 21
397.2202084954
 31
0.0
  0
LINE
  5
55F
330
558
100
AcDbEntity
  8
HARTLIJN
100
AcDbLine
 10
219.4299255838
 20
28.7821787182
 30
0.0
 11
219.4299255838
 21
397.2202084954
 31
0.0
  0
MTEXT
  5
560
330
558
100
AcDbEntity
  8
HARTLIJN
100
AcDbMText
 10
214.9181886692
 20
211.8228183688
 30
0.04
 40
3.5
 41
0.0
 71
     1
 72
     1
  1
Kozijnmaat =
  7
SLDTEXTSTYLE0
 11
6.123233995736766E-17
 21
1.0
 31
0.0
 73
     1
 44
1.0
  0
ENDBLK
  5
55A
330
558
100
AcDbEntity
  8
0
100
AcDbBlockEnd
  0
BLOCK
  5
563
330
562
100
AcDbEntity
  8
0
100
AcDbBlockBegin
  2
_D_9
 70
     0
 10
0.0
 20
0.0
 30
0.0
  3
_D_9
  1

  0
SOLID
  5
565
330
562
100
AcDbEntity
  8
HARTLIJN
100
AcDbTrace
 10
99.2299255838
 20
383.8202084954
 30
0.0
 11
98.7299255838
 21
380.8202084954
 31
0.0
 12
99.7299255838
 22
380.8202084954
 32
0.0
 13
99.7299255838
 23
380.8202084954
 33
0.0
  0
SOLID
  5
566
330
562
100
AcDbEntity
  8
HARTLIJN
100
AcDbTrace
 10
99.2299255838
 20
28.7821787182
 30
0.0
 11
99.7299255838
 21
31.7821787182
 31
0.0
 12
98.7299255838
 22
31.7821787182
 32
0.0
 13
98.7299255838
 23
31.7821787182
 33
0.0
  0
LINE
  5
567
330
562
100
AcDbEntity
  8
HARTLIJN
100
AcDbLine
 10
132.4299255838
 20
383.8202084954
 30
0.0
 11
98.2299255838
 21
383.8202084954
 31
0.0
  0
LINE
  5
568
330
562
100
AcDbEntity
  8
HARTLIJN
100
AcDbLine
 10
141.0299255838
 20
28.7821787182
 30
0.0
 11
98.2299255838
 21
28.7821787182
 31
0.0
  0
LINE
  5
569
330
562
100
AcDbEntity
  8
HARTLIJN
100
AcDbLine
 10
99.2299255838
 20
383.8202084954
 30
0.0
 11
99.2299255838
 21
28.7821787182
 31
0.0
  0
MTEXT
  5
56B
330
562
100
AcDbEntity
  8
HARTLIJN
100
AcDbMText
 10
94.7181886692
 20
207.001456174
 30
0.04
 40
3.5
 41
0.0
 71
     1
 72
     1
  1
DMH =
  7
SLDTEXTSTYLE1
 11
-7.044195017643634E-15
 21
1.0
 31
0.0
 73
     1
 44
1.0
  0
ENDBLK
  5
564
330
562
100
AcDbEntity
  8
0
100
AcDbBlockEnd
  0
BLOCK
  5
56E
330
56D
100
AcDbEntity
  8
0
100
AcDbBlockBegin
  2
_D_10
 70
     0
 10
0.0
 20
0.0
 30
0.0
  3
_D_10
  1

  0
SOLID
  5
570
330
56D
100
AcDbEntity
  8
HARTLIJN
100
AcDbTrace
 10
117.2299255838
 20
147.8850158005
 30
0.0
 11
116.7299255838
 21
144.8850158005
 31
0.0
 12
117.7299255838
 22
144.8850158005
 32
0.0
 13
117.7299255838
 23
144.8850158005
 33
0.0
  0
SOLID
  5
571
330
56D
100
AcDbEntity
  8
HARTLIJN
100
AcDbTrace
 10
117.2299255838
 20
148.4450158005
 30
0.0
 11
117.7299255838
 21
151.4450158005
 31
0.0
 12
116.7299255838
 22
151.4450158005
 32
0.0
 13
116.7299255838
 23
151.4450158005
 33
0.0
  0
LINE
  5
572
330
56D
100
AcDbEntity
  8
HARTLIJN
100
AcDbLine
 10
132.5499255838
 20
147.8850158005
 30
0.0
 11
116.2299255838
 21
147.8850158005
 31
0.0
  0
LINE
  5
573
330
56D
100
AcDbEntity
  8
HARTLIJN
100
AcDbLine
 10
132.5499255838
 20
148.4450158005
 30
0.0
 11
116.2299255838
 21
148.4450158005
 31
0.0
  0
LINE
  5
574
330
56D
100
AcDbEntity
  8
HARTLIJN
100
AcDbLine
 10
117.2299255838
 20
147.8850158005
 30
0.0
 11
117.2299255838
 21
141.8850158005
 31
0.0
  0
LINE
  5
575
330
56D
100
AcDbEntity
  8
HARTLIJN
100
AcDbLine
 10
117.2299255838
 20
147.8850158005
 30
0.0
 11
117.2299255838
 21
148.4450158005
 31
0.0
  0
LINE
  5
576
330
56D
100
AcDbEntity
  8
HARTLIJN
100
AcDbLine
 10
117.2299255838
 20
148.4450158005
 30
0.0
 11
117.2299255838
 21
160.0869130071
 31
0.0
  0
MTEXT
  5
577
330
56D
100
AcDbEntity
  8
HARTLIJN
100
AcDbMText
 10
112.7181886692
 20
154.6570518713
 30
0.04
 40
3.5
 41
0.0
 71
     1
 72
     1
  1
1
  7
SLDTEXTSTYLE0
 11
-7.044195017643634E-15
 21
1.0
 31
0.0
 73
     1
 44
1.0
  0
ENDBLK
  5
56F
330
56D
100
AcDbEntity
  8
0
100
AcDbBlockEnd
  0
BLOCK
  5
57A
330
579
100
AcDbEntity
  8
0
100
AcDbBlockBegin
  2
_D_11
 70
     0
 10
0.0
 20
0.0
 30
0.0
  3
_D_11
  1

  0
SOLID
  5
57C
330
579
100
AcDbEntity
  8
HARTLIJN
100
AcDbTrace
 10
117.2299255838
 20
224.4267253803
 30
0.0
 11
116.7299255838
 21
221.4267253803
 31
0.0
 12
117.7299255838
 22
221.4267253803
 32
0.0
 13
117.7299255838
 23
221.4267253803
 33
0.0
  0
SOLID
  5
57D
330
579
100
AcDbEntity
  8
HARTLIJN
100
AcDbTrace
 10
117.2299255838
 20
224.9867253803
 30
0.0
 11
117.7299255838
 21
227.9867253803
 31
0.0
 12
116.7299255838
 22
227.9867253803
 32
0.0
 13
116.7299255838
 23
227.9867253803
 33
0.0
  0
LINE
  5
57E
330
579
100
AcDbEntity
  8
HARTLIJN
100
AcDbLine
 10
132.5499255838
 20
224.4267253803
 30
0.0
 11
116.2299255838
 21
224.4267253803
 31
0.0
  0
LINE
  5
57F
330
579
100
AcDbEntity
  8
HARTLIJN
100
AcDbLine
 10
132.5499255838
 20
224.9867253803
 30
0.0
 11
116.2299255838
 21
224.9867253803
 31
0.0
  0
LINE
  5
580
330
579
100
AcDbEntity
  8
HARTLIJN
100
AcDbLine
 10
117.2299255838
 20
224.4267253803
 30
0.0
 11
117.2299255838
 21
218.4267253803
 31
0.0
  0
LINE
  5
581
330
579
100
AcDbEntity
  8
HARTLIJN
100
AcDbLine
 10
117.2299255838
 20
224.4267253803
 30
0.0
 11
117.2299255838
 21
224.9867253803
 31
0.0
  0
LINE
  5
582
330
579
100
AcDbEntity
  8
HARTLIJN
100
AcDbLine
 10
117.2299255838
 20
224.9867253803
 30
0.0
 11
117.2299255838
 21
239.2483956684
 31
0.0
  0
MTEXT
  5
583
330
579
100
AcDbEntity
  8
HARTLIJN
100
AcDbMText
 10
112.7181886692
 20
233.8185345326
 30
0.04
 40
3.5
 41
0.0
 71
     1
 72
     1
  1
1
  7
SLDTEXTSTYLE0
 11
-7.044195017643634E-15
 21
1.0
 31
0.0
 73
     1
 44
1.0
  0
ENDBLK
  5
57B
330
579
100
AcDbEntity
  8
0
100
AcDbBlockEnd
  0
BLOCK
  5
586
330
585
100
AcDbEntity
  8
0
100
AcDbBlockBegin
  2
_D_12
 70
     0
 10
0.0
 20
0.0
 30
0.0
  3
_D_12
  1

  0
SOLID
  5
588
330
585
100
AcDbEntity
  8
HARTLIJN
100
AcDbTrace
 10
117.2299255838
 20
301.61905407
 30
0.0
 11
116.7299255838
 21
298.61905407
 31
0.0
 12
117.7299255838
 22
298.61905407
 32
0.0
 13
117.7299255838
 23
298.61905407
 33
0.0
  0
SOLID
  5
589
330
585
100
AcDbEntity
  8
HARTLIJN
100
AcDbTrace
 10
117.2299255838
 20
302.17905407
 30
0.0
 11
117.7299255838
 21
305.17905407
 31
0.0
 12
116.7299255838
 22
305.17905407
 32
0.0
 13
116.7299255838
 23
305.17905407
 33
0.0
  0
LINE
  5
58A
330
585
100
AcDbEntity
  8
HARTLIJN
100
AcDbLine
 10
132.5499255838
 20
301.61905407
 30
0.0
 11
116.2299255838
 21
301.61905407
 31
0.0
  0
LINE
  5
58B
330
585
100
AcDbEntity
  8
HARTLIJN
100
AcDbLine
 10
132.5499255838
 20
302.17905407
 30
0.0
 11
116.2299255838
 21
302.17905407
 31
0.0
  0
LINE
  5
58C
330
585
100
AcDbEntity
  8
HARTLIJN
100
AcDbLine
 10
117.2299255838
 20
301.61905407
 30
0.0
 11
117.2299255838
 21
295.61905407
 31
0.0
  0
LINE
  5
58D
330
585
100
AcDbEntity
  8
HARTLIJN
100
AcDbLine
 10
117.2299255838
 20
301.61905407
 30
0.0
 11
117.2299255838
 21
302.17905407
 31
0.0
  0
LINE
  5
58E
330
585
100
AcDbEntity
  8
HARTLIJN
100
AcDbLine
 10
117.2299255838
 20
302.17905407
 30
0.0
 11
117.2299255838
 21
314.5260224873
 31
0.0
  0
MTEXT
  5
58F
330
585
100
AcDbEntity
  8
HARTLIJN
100
AcDbMText
 10
112.7181886692
 20
309.0961613515
 30
0.04
 40
3.5
 41
0.0
 71
     1
 72
     1
  1
1
  7
SLDTEXTSTYLE0
 11
-7.044195017643634E-15
 21
1.0
 31
0.0
 73
     1
 44
1.0
  0
ENDBLK
  5
587
330
585
100
AcDbEntity
  8
0
100
AcDbBlockEnd
  0
ENDSEC
  0
SECTION
  2
ENTITIES
  0
LINE
  5
4B
330
1F
100
AcDbEntity
  8
HARTLIJN
100
AcDbLine
 10
123.9140543182
 20
383.8493547742
 30
0.0
 11
160.598524565
 21
383.8493547742
 31
0.0
  0
LINE
  5
4C
330
1F
100
AcDbEntity
  8
STUKLIJST
100
AcDbLine
 10
10.3087825773
 20
9.2198227322
 30
0.0
 11
10.3087825773
 21
409.2698227322
 31
0.0
  0
LINE
  5
4D
330
1F
100
AcDbEntity
  8
STUKLIJST
100
AcDbLine
 10
10.3087825773
 20
9.2198227322
 30
0.0
 11
287.198438446
 21
9.2198227322
 31
0.0
  0
LINE
  5
4E
330
1F
100
AcDbEntity
  8
STUKLIJST
100
AcDbLine
 10
287.198438446
 20
409.2698227322
 30
0.0
 11
287.198438446
 21
9.2198227322
 31
0.0
  0
LINE
  5
4F
330
1F
100
AcDbEntity
  8
STUKLIJST
100
AcDbLine
 10
287.198438446
 20
409.2698227322
 30
0.0
 11
10.3087825773
 21
409.2698227322
 31
0.0
  0
LINE
  5
50
330
1F
100
AcDbEntity
  8
MAATLIJN
100
AcDbLine
 10
4.3087825773
 20
3.2198227322
 30
0.0
 11
4.3087825773
 21
415.2698227322
 31
0.0
  0
LINE
  5
51
330
1F
100
AcDbEntity
  8
MAATLIJN
100
AcDbLine
 10
4.3087825773
 20
415.2698227322
 30
0.0
 11
293.4090035115
 21
415.2698227322
 31
0.0
  0
LINE
  5
52
330
1F
100
AcDbEntity
  8
MAATLIJN
100
AcDbLine
 10
293.4090035115
 20
415.2698227322
 30
0.0
 11
293.4090035115
 21
3.2198227322
 31
0.0
  0
LINE
  5
53
330
1F
100
AcDbEntity
  8
MAATLIJN
100
AcDbLine
 10
293.4090035115
 20
3.2198227322
 30
0.0
 11
4.3087825773
 21
3.2198227322
 31
0.0
  0
MTEXT
  5
55
330
1F
100
AcDbEntity
  8
HARTLIJN
100
AcDbMText
 10
211.9617900851
 20
18.9651870984
 30
0.0
 40
4.2333333333
 41
0.0
 71
     1
 72
     1
  1
Alum. deurblad - 4 secties
  7
SLDTEXTSTYLE0
 73
     1
 44
1.0
  0
INSERT
  5
59
330
1F
100
AcDbEntity
  8
0
  6
Continuous
 62
     7
100
AcDbBlockReference
  2
SW_BROKEN_VIEW_0
 10
0.0
 20
0.0
 30
0.0
  0
LINE
  5
5A
330
1F
100
AcDbEntity
  8
0
  6
Continuous
 62
     7
370
     0
100
AcDbLine
 10
148.9420049658
 20
336.7369001461
 30
0.0
 11
148.9420049658
 21
359.2202013088
 31
0.0
  0
LINE
  5
5B
330
1F
100
AcDbEntity
  8
0
  6
Continuous
 62
     7
370
     0
100
AcDbLine
 10
149.1445668807
 20
336.7369001461
 30
0.0
 11
149.1445668807
 21
359.2202013088
 31
0.0
  0
LINE
  5
5C
330
1F
100
AcDbEntity
  8
0
  6
Continuous
 62
     7
370
     0
100
AcDbLine
 10
149.0406432023
 20
336.7369001461
 30
0.0
 11
149.0406432023
 21
359.2202013088
 31
0.0
  0
LINE
  5
5D
330
1F
100
AcDbEntity
  8
0
  6
Continuous
 62
     7
370
     0
100
AcDbLine
 10
149.0406432023
 20
359.2202013088
 30
0.0
 11
148.9420049658
 21
359.2202013088
 31
0.0
  0
LINE
  5
5E
330
1F
100
AcDbEntity
  8
0
  6
Continuous
 62
     7
370
     0
100
AcDbLine
 10
133.9137577285
 20
336.7369001461
 30
0.0
 11
133.9137577285
 21
359.2202013088
 31
0.0
  0
LINE
  5
5F
330
1F
100
AcDbEntity
  8
0
  6
Continuous
 62
     7
370
     0
100
AcDbLine
 10
133.797846066
 20
336.7369001461
 30
0.0
 11
133.797846066
 21
359.2202013088
 31
0.0
  0
LINE
  5
60
330
1F
100
AcDbEntity
  8
0
  6
Continuous
 62
     7
370
     0
100
AcDbLine
 10
133.6992078294
 20
336.7369001461
 30
0.0
 11
133.6992078294
 21
359.2202013088
 31
0.0
  0
LINE
  5
61
330
1F
100
AcDbEntity
  8
0
  6
Continuous
 62
     7
370
     0
100
AcDbLine
 10
133.797846066
 20
359.2202013088
 30
0.0
 11
133.6992078294
 21
359.2202013088
 31
0.0
  0
LINE
  5
62
330
1F
100
AcDbEntity
  8
0
  6
Continuous
 62
     7
370
     0
100
AcDbLine
 10
133.5952848961
 20
336.7369001461
 30
0.0
 11
133.5952848961
 21
359.2202013088
 31
0.0
  0
ARC
  5
63
330
1F
100
AcDbEntity
  8
0
  6
Continuous
 62
     7
370
     0
100
AcDbCircle
 10
149.1879324767
 20
359.1402151319
 30
0.0
 40
0.0799861772139263
100
AcDbArc
 50
31.2190407028
 51
90.0049728915
  0
LINE
  5
64
330
1F
100
AcDbEntity
  8
0
  6
Continuous
 62
     7
370
     0
100
AcDbLine
 10
149.2563360204
 20
336.7369001461
 30
0.0
 11
149.2563360204
 21
359.1816728664
 31
0.0
  0
LINE
  5
65
330
1F
100
AcDbEntity
  8
0
  6
Continuous
 62
     7
370
     0
100
AcDbLine
 10
134.2162960043
 20
336.7369001461
 30
0.0
 11
134.2162960043
 21
359.2202013088
 31
0.0
  0
LINE
  5
66
330
1F
100
AcDbEntity
  8
0
  6
Continuous
 62
     7
370
     0
100
AcDbLine
 10
134.2162960043
 20
359.2202013088
 30
0.0
 11
134.1499254873
 21
359.2202013088
 31
0.0
  0
LINE
  5
67
330
1F
100
AcDbEntity
  8
0
  6
Continuous
 62
     7
370
     0
100
AcDbLine
 10
133.4299252202
 20
336.7369001461
 30
0.0
 11
133.4299252202
 21
359.1907804561
 31
0.0
  0
ARC
  5
68
330
1F
100
AcDbEntity
  8
0
  6
Continuous
 62
     7
370
     0
100
AcDbCircle
 10
127.793914781
 20
346.5773729462
 30
0.0
 40
24.8898367051569
100
AcDbArc
 50
30.3127339119
 51
30.4217624082
  0
LINE
  5
69
330
1F
100
AcDbEntity
  8
0
  6
Continuous
 62
     7
370
     0
100
AcDbLine
 10
149.3099258115
 20
336.7369001461
 30
0.0
 11
149.3099258115
 21
359.1109102321
 31
0.0
  0
LINE
  5
6A
330
1F
100
AcDbEntity
  8
0
  6
Continuous
 62
     7
370
     0
100
AcDbLine
 10
149.2563360204
 20
359.1816728664
 30
0.0
 11
149.2569536736
 21
359.1806238247
 31
0.0
  0
LINE
  5
6B
330
1F
100
AcDbEntity
  8
0
  6
Continuous
 62
     7
370
     0
100
AcDbLine
 10
134.2299253514
 20
336.7369001461
 30
0.0
 11
134.2299253514
 21
359.2202013088
 31
0.0
  0
LINE
  5
6C
330
1F
100
AcDbEntity
  8
0
  6
Continuous
 62
     7
370
     0
100
AcDbLine
 10
134.2299253514
 20
359.2202013088
 30
0.0
 11
134.2162960043
 21
359.2202013088
 31
0.0
  0
LINE
  5
6D
330
1F
100
AcDbEntity
  8
0
  6
Continuous
 62
     7
370
     0
100
AcDbLine
 10
148.5099256804
 20
336.7369001461
 30
0.0
 11
148.5099256804
 21
358.0259626461
 31
0.0
  0
LINE
  5
6E
330
1F
100
AcDbEntity
  8
0
  6
Continuous
 62
     7
370
     0
100
AcDbLine
 10
134.6299254169
 20
336.7369001461
 30
0.0
 11
134.6299254169
 21
359.2202013088
 31
0.0
  0
LINE
  5
6F
330
1F
100
AcDbEntity
  8
0
  6
Continuous
 62
     7
370
     0
100
AcDbLine
 10
134.6299254169
 20
359.2202013088
 30
0.0
 11
134.2299253514
 21
359.2202013088
 31
0.0
  0
LINE
  5
70
330
1F
100
AcDbEntity
  8
0
  6
Continuous
 62
     7
370
     0
100
AcDbLine
 10
143.0299256762
 20
359.2202013088
 30
0.0
 11
143.0299256762
 21
353.6202257229
 31
0.0
  0
LINE
  5
71
330
1F
100
AcDbEntity
  8
0
  6
Continuous
 62
     7
370
     0
100
AcDbLine
 10
143.0299256762
 20
353.6202257229
 30
0.0
 11
147.3280240615
 21
353.6202257229
 31
0.0
  0
LINE
  5
72
330
1F
100
AcDbEntity
  8
0
  6
Continuous
 62
     7
370
     0
100
AcDbLine
 10
147.3280240615
 20
353.6202257229
 30
0.0
 11
147.5545917471
 21
354.4657533718
 31
0.0
  0
LINE
  5
73
330
1F
100
AcDbEntity
  8
0
  6
Continuous
 62
     7
370
     0
100
AcDbLine
 10
141.5499255826
 20
359.2202013088
 30
0.0
 11
141.3099255843
 21
359.2202013088
 31
0.0
  0
LINE
  5
74
330
1F
100
AcDbEntity
  8
0
  6
Continuous
 62
     7
370
     0
100
AcDbLine
 10
138.9099255969
 20
359.2202013088
 30
0.0
 11
134.6299254169
 21
359.2202013088
 31
0.0
  0
ARC
  5
75
330
1F
100
AcDbEntity
  8
0
  6
Continuous
 62
     7
370
     0
100
AcDbCircle
 10
137.1595398236
 20
361.9409267861
 30
0.0
 40
0.3992677940247622
100
AcDbArc
 50
89.9681903289
 51
114.7477262168
  0
LINE
  5
76
330
1F
100
AcDbEntity
  8
0
  6
Continuous
 62
     7
370
     0
100
AcDbLine
 10
137.1597614904
 20
362.3401945186
 30
0.0
 11
139.7899255922
 21
362.3401945186
 31
0.0
  0
ARC
  5
77
330
1F
100
AcDbEntity
  8
0
  6
Continuous
 62
     7
370
     0
100
AcDbCircle
 10
139.7899227961
 20
361.9401917488
 30
0.0
 40
0.4000027697985571
100
AcDbArc
 50
0.0045494665
 51
89.9995994903
  0
LINE
  5
78
330
1F
100
AcDbEntity
  8
0
  6
Continuous
 62
     7
370
     0
100
AcDbLine
 10
140.1899255646
 20
361.9402235103
 30
0.0
 11
140.1899255646
 21
360.4202097011
 31
0.0
  0
ARC
  5
79
330
1F
100
AcDbEntity
  8
0
  6
Continuous
 62
     7
370
     0
100
AcDbCircle
 10
140.5899283325
 20
360.4201937773
 30
0.0
 40
0.4000027681863966
100
AcDbArc
 50
179.9977190938
 51
269.999606256
  0
LINE
  5
7A
330
1F
100
AcDbEntity
  8
0
  6
Continuous
 62
     7
370
     0
100
AcDbLine
 10
140.5899255836
 20
360.0201910091
 30
0.0
 11
142.2699255703
 21
360.0201910091
 31
0.0
  0
ARC
  5
7B
330
1F
100
AcDbEntity
  8
0
  6
Continuous
 62
     7
370
     0
100
AcDbCircle
 10
142.2699229338
 20
360.4201936183
 30
0.0
 40
0.4000026092087915
100
AcDbArc
 50
270.0003776416
 51
0.0023036787
  0
LINE
  5
7C
330
1F
100
AcDbEntity
  8
0
  6
Continuous
 62
     7
370
     0
100
AcDbLine
 10
142.6699255427
 20
360.4202097011
 30
0.0
 11
142.6699255427
 21
361.9402235103
 31
0.0
  0
ARC
  5
7D
330
1F
100
AcDbEntity
  8
0
  6
Continuous
 62
     7
370
     0
100
AcDbCircle
 10
143.0699283112
 20
361.9401917488
 30
0.0
 40
0.4000027697974622
100
AcDbArc
 50
90.0003871694
 51
179.9954505335
  0
LINE
  5
7E
330
1F
100
AcDbEntity
  8
0
  6
Continuous
 62
     7
370
     0
100
AcDbLine
 10
143.0699256082
 20
362.3401945186
 30
0.0
 11
148.5899255445
 21
362.3401945186
 31
0.0
  0
ARC
  5
7F
330
1F
100
AcDbEntity
  8
0
  6
Continuous
 62
     7
370
     0
100
AcDbCircle
 10
148.5899336175
 20
362.4601862448
 30
0.0
 40
0.1199917263967713
100
AcDbArc
 50
269.9961451292
 51
0.0134590356
  0
LINE
  5
80
330
1F
100
AcDbEntity
  8
0
  6
Continuous
 62
     7
370
     0
100
AcDbLine
 10
148.7099253406
 20
362.4602144314
 30
0.0
 11
148.7099253406
 21
366.669732864
 31
0.0
  0
ARC
  5
81
330
1F
100
AcDbEntity
  8
0
  6
Continuous
 62
     7
370
     0
100
AcDbCircle
 10
148.5098175737
 20
366.669705415
 30
0.0
 40
0.2001077687858761
100
AcDbArc
 50
0.0078593224
 51
46.1736252111
  0
ARC
  5
82
330
1F
100
AcDbEntity
  8
0
  6
Continuous
 62
     7
370
     0
100
AcDbCircle
 10
149.229892261
 20
367.4202030254
 30
0.0
 40
0.8399663770856335
100
AcDbArc
 50
133.8120979057
 51
226.1879020943
  0
ARC
  5
83
330
1F
100
AcDbEntity
  8
0
  6
Continuous
 62
     7
370
     0
100
AcDbCircle
 10
148.5098175737
 20
368.1707006358
 30
0.0
 40
0.200107768785933
100
AcDbArc
 50
313.8263747889
 51
359.9921406775
  0
LINE
  5
84
330
1F
100
AcDbEntity
  8
0
  6
Continuous
 62
     7
370
     0
100
AcDbLine
 10
148.7099253406
 20
368.1706731868
 30
0.0
 11
148.7099253406
 21
370.3305070949
 31
0.0
  0
ARC
  5
85
330
1F
100
AcDbEntity
  8
0
  6
Continuous
 62
     7
370
     0
100
AcDbCircle
 10
148.5900202217
 20
370.3305234822
 30
0.0
 40
0.1199051200450481
100
AcDbArc
 50
359.9921694514
 51
45.0183972297
  0
LINE
  5
86
330
1F
100
AcDbEntity
  8
0
  6
Continuous
 62
     7
370
     0
100
AcDbLine
 10
148.6747787168
 20
370.4153364254
 30
0.0
 11
148.5050731172
 21
370.58504277
 31
0.0
  0
ARC
  5
87
330
1F
100
AcDbEntity
  8
0
  6
Continuous
 62
     7
370
     0
100
AcDbCircle
 10
148.5900489089
 20
370.6699467703
 30
0.0
 40
0.1201231635795685
100
AcDbArc
 50
180.0128717119
 51
224.9757867508
  0
LINE
  5
88
330
1F
100
AcDbEntity
  8
0
  6
Continuous
 62
     7
370
     0
100
AcDbLine
 10
148.4699257483
 20
370.669919ontinuous
 62
     7
370
     0
100
AcDbCircle
 10
149.0299484826
 20
72.3821479784
 30
0.0
 40
0.399977127854635
100
AcDbArc
 50
292.6176918057
 51
0.0067619015
  0
ARC
  5
4D2
330
1F
100
AcDbEntity
  8
0
  6
Continuous
 62
     7
370
     0
100
AcDbCircle
 10
149.2299252955
 20
71.9021632155
 30
0.0
 40
0.1199998892853113
100
AcDbArc
 50
112.6196870788
 51
247.3803129212
  0
ARC
  5
4D3
330
1F
100
AcDbEntity
  8
0
  6
Continuous
 62
     7
370
     0
100
AcDbCircle
 10
149.0299484881
 20
71.4221784593
 30
0.0
 40
0.3999771195634846
100
AcDbArc
 50
0.0000677203
 51
67.382308554
  0
LINE
  5
4D4
330
1F
100
AcDbEntity
  8
0
  6
Continuous
 62
     7
370
     0
100
AcDbLine
 10
149.4299256077
 20
71.4221789321
 30
0.0
 11
149.4299256077
 21
68.8558890304
 31
0.0
  0
ARC
  5
4D5
330
1F
100
AcDbEntity
  8
0
  6
Continuous
 62
     7
370
     0
100
AcDbCircle
 10
149.3098934248
 20
68.8558875882
 30
0.0
 40
0.1200321828299822
100
AcDbArc
 50
284.0483029705
 51
0.0006883757
  0
LINE
  5
4D6
330
1F
100
AcDbEntity
  8
0
  6
Continuous
 62
     7
370
     0
100
AcDbLine
 10
149.3390300145
 20
68.7394453963
 30
0.0
 11
149.2808216085
 21
68.724901863
 31
0.0
  0
ARC
  5
4D7
330
1F
100
AcDbEntity
  8
0
  6
Continuous
 62
     7
370
     0
100
AcDbCircle
 10
149.3099570381
 20
68.6084597995
 30
0.0
 40
0.1200317766406951
100
AcDbArc
 50
104.0477806555
 51
179.9779884139
  0
LINE
  5
4D8
330
1F
100
AcDbEntity
  8
0
  6
Continuous
 62
     7
370
     0
100
AcDbLine
 10
149.1899252703
 20
68.6085059127
 30
0.0
 11
149.1899252703
 21
67.5958945235
 31
0.0
  0
ARC
  5
4D9
330
1F
100
AcDbEntity
  8
0
  6
Continuous
 62
     7
370
     0
100
AcDbCircle
 10
149.309957026
 20
67.5958929344
 30
0.0
 40
0.1200317557485991
100
AcDbArc
 50
179.999241474
 51
255.952222776
  0
LINE
  5
4DA
330
1F
100
AcDbEntity
  8
0
  6
Continuous
 62
     7
370
     0
100
AcDbLine
 10
149.2808216085
 20
67.4794508895
 30
0.0
 11
149.3390300145
 21
67.4649073562
 31
0.0
  0
ARC
  5
4DB
330
1F
100
AcDbEntity
  8
0
  6
Continuous
 62
     7
370
     0
100
AcDbCircle
 10
149.3098934248
 20
67.3484651642
 30
0.0
 40
0.1200321828298969
100
AcDbArc
 50
359.9993116244
 51
75.9516970296
  0
LINE
  5
4DC
330
1F
100
AcDbEntity
  8
0
  6
Continuous
 62
     7
370
     0
100
AcDbLine
 10
149.4299256077
 20
67.3484637221
 30
0.0
 11
149.4299256077
 21
64.7821738204
 31
0.0
  0
ARC
  5
4DD
330
1F
100
AcDbEntity
  8
0
  6
Continuous
 62
     7
370
     0
100
AcDbCircle
 10
149.0299484881
 20
64.7821742931
 30
0.0
 40
0.3999771195634605
100
AcDbArc
 50
292.617691446
 51
359.9999322797
  0
ARC
  5
4DE
330
1F
100
AcDbEntity
  8
0
  6
Continuous
 62
     7
370
     0
100
AcDbCircle
 10
149.2299252955
 20
64.3021895369
 30
0.0
 40
0.1199998892853769
100
AcDbArc
 50
112.6196870788
 51
247.3803129212
  0
ARC
  5
4DF
330
1F
100
AcDbEntity
  8
0
  6
Continuous
 62
     7
370
     0
100
AcDbCircle
 10
149.0299484826
 20
63.8222047741
 30
0.0
 40
0.3999771278546918
100
AcDbArc
 50
359.9932380985
 51
67.3823081943
  0
LINE
  5
4E0
330
1F
100
AcDbEntity
  8
0
  6
Continuous
 62
     7
370
     0
100
AcDbLine
 10
149.4299256077
 20
63.8221575698
 30
0.0
 11
149.4299256077
 21
42.2443224868
 31
0.0
  0
ARC
  5
4E1
330
1F
100
AcDbEntity
  8
0
  6
Continuous
 62
     7
370
     0
100
AcDbCircle
 10
149.2877619365
 20
42.2443402896
 30
0.0
 40
0.1421636723032661
100
AcDbArc
 50
215.0074908018
 51
359.9928249763
  0
LINE
  5
4E2
330
1F
100
AcDbEntity
  8
0
  6
Continuous
 62
     7
370
     0
100
AcDbLine
 10
149.1713189354
 20
42.1627833327
 30
0.0
 11
148.4940879812
 21
43.1299998244
 31
0.0
  0
ARC
  5
4E3
330
1F
100
AcDbEntity
  8
0
  6
Continuous
 62
     7
370
     0
100
AcDbCircle
 10
148.5923363035
 20
43.1988138586
 30
0.0
 40
0.1199504236850504
100
AcDbArc
 50
136.8044484108
 51
215.0077544772
  0
ARC
  5
4E4
330
1F
100
AcDbEntity
  8
0
  6
Continuous
 62
     7
370
     0
100
AcDbCircle
 10
147.6299254989
 20
44.1021810107
 30
0.0
 40
1.200014262087228
100
AcDbArc
 50
316.8133643338
 51
223.1866356662
  0
ARC
  5
4E5
330
1F
100
AcDbEntity
  8
0
  6
Continuous
 62
     7
370
     0
100
AcDbCircle
 10
146.667516349
 20
43.1988139771
 30
0.0
 40
0.1199491362526016
100
AcDbArc
 50
324.9917457236
 51
43.1960513885
  0
LINE
  5
4E6
330
1F
100
AcDbEntity
  8
0
  6
Continuous
 62
     7
370
     0
100
AcDbLine
 10
146.7657630166
 20
43.1299998244
 30
0.0
 11
146.1655196567
 21
42.2727419814
 31
0.0
  0
ARC
  5
4E7
330
1F
100
AcDbEntity
  8
0
  6
Continuous
 62
     7
370
     0
100
AcDbCircle
 10
145.8378250788
 20
42.5022486061
 30
0.0
 40
0.4000712776530942
100
AcDbArc
 50
270.0048248044
 51
324.9938514507
  0
LINE
  5
4E8
330
1F
100
AcDbEntity
  8
0
  6
Continuous
 62
     7
370
     0
100
AcDbLine
 10
145.8378587683
 20
42.1021773299
 30
0.0
 11
143.9099256714
 21
42.1021773299
 31
0.0
  0
ARC
  5
4E9
330
1F
100
AcDbEntity
  8
0
  6
Continuous
 62
     7
370
     0
100
AcDbCircle
 10
143.9098934092
 20
42.1821451244
 30
0.0
 40
0.0799678010352872
100
AcDbArc
 50
179.9674137886
 51
270.0231154488
  0
LINE
  5
4EA
330
1F
100
AcDbEntity
  8
0
  6
Continuous
 62
     7
370
     0
100
AcDbLine
 10
143.8299256211
 20
42.1821906051
 30
0.0
 11
143.8299256211
 21
42.7421881637
 31
0.0
  0
ARC
  5
4EB
330
1F
100
AcDbEntity
  8
0
  6
Continuous
 62
     7
370
     0
100
AcDbCircle
 10
143.9099748178
 20
42.7421522491
 30
0.0
 40
0.080049204801129
100
AcDbArc
 50
90.0351768672
 51
179.9742938954
  0
LINE
  5
4EC
330
1F
100
AcDbEntity
  8
0
  6
Continuous
 62
     7
370
     0
100
AcDbLine
 10
143.9099256714
 20
42.8222014388
 30
0.0
 11
145.3970798125
 21
42.8222014388
 31
0.0
  0
ARC
  5
4ED
330
1F
100
AcDbEntity
  8
0
  6
Continuous
 62
     7
370
     0
100
AcDbCircle
 10
145.3970883777
 20
43.2221900281
 30
0.0
 40
0.3999885893651605
100
AcDbArc
 50
269.9987730963
 51
21.5094255355
  0
ARC
  5
4EE
330
1F
100
AcDbEntity
  8
0
  6
Continuous
 62
     7
370
     0
100
AcDbCircle
 10
147.6299070455
 20
44.102180655
 30
0.0
 40
1.999982807792672
100
AcDbArc
 50
166.3277484711
 51
201.510375133
  0
ARC
  5
4EF
330
1F
100
AcDbEntity
  8
0
  6
Continuous
 62
     7
370
     0
100
AcDbCircle
 10
145.4922360036
 20
44.6221751279
 30
0.0
 40
0.2000244053689678
100
AcDbArc
 50
346.3324477609
 51
89.9922055192
  0
LINE
  5
4F0
330
1F
100
AcDbEntity
  8
0
  6
Continuous
 62
     7
370
     0
100
AcDbLine
 10
145.4922632148
 20
44.8221995315
 30
0.0
 11
137.3675879856
 21
44.8221995315
 31
0.0
  0
ARC
  5
4F1
330
1F
100
AcDbEntity
  8
0
  6
Continuous
 62
     7
370
     0
100
AcDbCircle
 10
137.3676151968
 20
44.6221751279
 30
0.0
 40
0.2000244053689526
100
AcDbArc
 50
90.0077944808
 51
193.6675522391
  0
ARC
  5
4F2
330
1F
100
AcDbEntity
  8
0
  6
Continuous
 62
     7
370
     0
100
AcDbCircle
 10
135.2299441549
 20
44.102180655
 30
0.0
 40
1.999982807792147
100
AcDbArc
 50
338.489624867
 51
13.672251529
  0
ARC
  5
4F3
330
1F
100
AcDbEntity
  8
0
  6
Continuous
 62
     7
370
     0
100
AcDbCircle
 10
137.4627628227
 20
43.2221900281
 30
0.0
 40
0.399988589365143
100
AcDbArc
 50
158.4905744645
 51
270.0012269037
  0
LINE
  5
4F4
330
1F
100
AcDbEntity
  8
0
  6
Continuous
 62
     8
370
     0
100
AcDbLine
 10
148.8260940482
 20
80.1358534774
 30
0.0
 11
148.8260940482
 21
103.7777020415
 31
0.0
  0
LINE
  5
4F5
330
1F
100
AcDbEntity
  8
0
  6
Continuous
 62
     8
370
     0
100
AcDbLine
 10
133.4835157563
 20
80.1027132949
 30
0.0
 11
133.4835157563
 21
103.7777020415
 31
0.0
  0
LINE
  5
4F6
330
1F
100
AcDbEntity
  8
0
  6
Continuous
 62
     8
370
     0
100
AcDbLine
 10
148.5235550275
 20
81.2455489119
 30
0.0
 11
148.5235550275
 21
103.7777020415
 31
0.0
  0
LINE
  5
4F7
330
1F
100
AcDbEntity
  8
0
  6
Continuous
 62
     8
370
     0
100
AcDbLine
 10
148.1099256148
 20
82.7892615279
 30
0.0
 11
148.1099256148
 21
103.7777020415
 31
0.0
  0
POINT
  5
4F8
330
1F
100
AcDbEntity
  8
HARTLIJN
100
AcDbPoint
 10
142.0299255838
 20
-247.6988063932
 30
0.0
  0
POINT
  5
4F9
330
1F
100
AcDbEntity
  8
HARTLIJN
100
AcDbPoint
 10
149.4168593775
 20
447.9345399732
 30
0.0
  0
POINT
  5
4FA
330
1F
100
AcDbEntity
  8
HARTLIJN
100
AcDbPoint
 10
149.4168593775
 20
238.1745399732
 30
0.0
  0
POINT
  5
4FB
330
1F
100
AcDbEntity
  8
HARTLIJN
100
AcDbPoint
 10
147.8555696261
 20
245.6618616408
 30
0.0
  0
POINT
  5
4FC
330
1F
100
AcDbEntity
  8
HARTLIJN
100
AcDbPoint
 10
147.8555696261
 20
455.4218616408
 30
0.0
  0
POINT
  5
4FD
330
1F
100
AcDbEntity
  8
HARTLIJN
100
AcDbPoint
 10
148.0299255838
 20
35.8618616408
 30
0.0
  0
POINT
  5
4FE
330
1F
100
AcDbEntity
  8
HARTLIJN
100
AcDbPoint
 10
149.4168593775
 20
28.4145399732
 30
0.0
  0
POINT
  5
4FF
330
1F
100
AcDbEntity
  8
HARTLIJN
100
AcDbPoint
 10
133.4299255838
 20
660.3011936068
 30
0.0
  0
DIMENSION
  5
500
330
1F
100
AcDbEntity
  8
HARTLIJN
100
AcDbDimension
  2
_D
 10
195.4299255838
 20
41.9821787182
 30
0.0
 11
195.4299255838
 21
34.5771309945
 31
0.0
 70
   160
  1
33
 71
     2
 42
-1.0
  3
SLDDIMSTYLE0
100
AcDbAlignedDimension
 13
142.0299255838
 23
28.7821787182
 33
0.0
 14
148.0299255838
 24
41.9821787182
 34
0.0
 50
90.0
100
AcDbRotatedDimension
  0
DIMENSION
  5
50D
330
1F
100
AcDbEntity
  8
HARTLIJN
100
AcDbDimension
  2
_D_1
 10
171.4299255838
 20
287.499722104
 30
0.0
 11
171.4299255838
 21
271.6850735678
 31
0.0
 70
   160
  1
<>
 71
     2
 42
-1.0
  3
SLDDIMSTYLE1
100
AcDbAlignedDimension
 13
149.4168593775
 23
280.0124004364
 33
0.0
 14
147.8555696261
 24
287.499722104
 34
0.0
 50
90.0
100
AcDbRotatedDimension
  0
DIMENSION
  5
51A
330
1F
100
AcDbEntity
  8
HARTLIJN
100
AcDbDimension
  2
_D_2
 10
171.4299255838
 20
210.3073934143
 30
0.0
 11
171.4299255838
 21
194.8678981433
 31
0.0
 70
   160
  1
<>
 71
     2
 42
-1.0
  3
SLDDIMSTYLE1
100
AcDbAlignedDimension
 13
149.4168593775
 23
202.8200717467
 33
0.0
 14
147.8555696261
 24
210.3073934143
 34
0.0
 50
90.0
100
AcDbRotatedDimension
  0
DIMENSION
  5
526
330
1F
100
AcDbEntity
  8
HARTLIJN
100
AcDbDimension
  2
_D_3
 10
171.4299255838
 20
133.7256838344
 30
0.0
 11
171.4299255838
 21
113.1236101725
 31
0.0
 70
   160
  1
<>
 71
     2
 42
-1.0
  3
SLDDIMSTYLE1
100
AcDbAlignedDimension
 13
149.4168593775
 23
126.2783621669
 33
0.0
 14
148.0299255838
 24
133.7256838344
 34
0.0
 50
90.0
100
AcDbRotatedDimension
  0
DIMENSION
  5
532
330
1F
100
AcDbEntity
  8
HARTLIJN
100
AcDbDimension
  2
_D_4
 10
195.4299255838
 20
41.9821787182
 30
0.0
 11
195.4299255838
 21
84.1586135498
 31
0.0
 70
   160
  1
675,902
 71
     2
 42
-1.0
  3
SLDDIMSTYLE2
100
AcDbAlignedDimension
 13
148.0299255838
 23
133.7256838344
 33
0.0
 14
148.0299255838
 24
41.9821787182
 34
0.0
 50
90.0
100
AcDbRotatedDimension
  0
DIMENSION
  5
53C
330
1F
100
AcDbEntity
  8
HARTLIJN
100
AcDbDimension
  2
_D_5
 10
195.3191971725
 20
133.7649839595
 30
0.0
 11
195.2817915125
 21
178.7746730971
 31
0.0
 70
   160
  1
524,500
 71
     2
 42
-1.0
  3
SLDDIMSTYLE2
100
AcDbAlignedDimension
 13
147.8555696261
 23
210.3073934143
 33
0.0
 14
148.0299255838
 24
133.7256838344
 34
0.0
 50
-89.9523838979
100
AcDbRotatedDimension
  0
DIMENSION
  5
545
330
1F
100
AcDbEntity
  8
HARTLIJN
100
AcDbDimension
  2
_D_6
 10
195.2555696261
 20
210.3073934143
 30
0.0
 11
195.2555696261
 21
246.0726158741
 31
0.0
 70
   160
  1
524,400
 71
     2
 42
-1.0
  3
SLDDIMSTYLE2
100
AcDbAlignedDimension
 13
147.8555696261
 23
287.499722104
 33
0.0
 14
147.8555696261
 24
210.3073934143
 34
0.0
 50
90.0
100
AcDbRotatedDimension
  0
DIMENSION
  5
54E
330
1F
100
AcDbEntity
  8
HARTLIJN
100
AcDbDimension
  2
_D_7
 10
195.2555696261
 20
397.2202084954
 30
0.0
 11
195.2555696261
 21
357.7845521004
 31
0.0
 70
   160
  1
545,698
 71
     2
 42
-1.0
  3
SLDDIMSTYLE2
100
AcDbAlignedDimension
 13
147.8555696261
 23
287.499722104
 33
0.0
 14
145.8378589248
 24
397.2202084954
 34
0.0
 50
90.0
100
AcDbRotatedDimension
  0
DIMENSION
  5
557
330
1F
100
AcDbEntity
  8
HARTLIJN
100
AcDbDimension
  2
_D_8
 10
219.4299255838
 20
397.2202084954
 30
0.0
 11
219.4299255838
 21
226.31135989
 31
0.0
 70
   160
  1
Kozijnmaat =
 71
     2
 42
-1.0
  3
SLDDIMSTYLE2
100
AcDbAlignedDimension
 13
142.0299255838
 23
28.7821787182
 33
0.0
 14
145.8378589248
 24
397.2202084954
 34
0.0
 50
90.0
100
AcDbRotatedDimension
  0
DIMENSION
  5
561
330
1F
100
AcDbEntity
  8
HARTLIJN
100
AcDbDimension
  2
_D_9
 10
99.2299255838
 20
28.7821787182
 30
0.0
 11
99.2299255838
 21
214.5361780403
 31
0.0
 70
   160
  1
DMH =
 71
     2
 42
-1.0
  3
SLDDIMSTYLE2
100
AcDbAlignedDimension
 13
133.4299255838
 23
383.8202084954
 33
0.0
 14
142.0299255838
 24
28.7821787182
 34
0.0
 50
90.0
100
AcDbRotatedDimension
  0
DIMENSION
  5
56C
330
1F
100
AcDbEntity
  8
HARTLIJN
100
AcDbDimension
  2
_D_10
 10
117.2299255838
 20
148.4450158005
 30
0.0
 11
117.2299255838
 21
157.3719824392
 31
0.0
 70
   160
  1
<>
 71
     2
 42
-1.0
  3
SLDDIMSTYLE1
100
AcDbAlignedDimension
 13
133.5499255838
 23
147.8850158005
 33
0.0
 14
133.5499255838
 24
148.4450158005
 34
0.0
 50
90.0
100
AcDbRotatedDimension
  0
DIMENSION
  5
578
330
1F
100
AcDbEntity
  8
HARTLIJN
100
AcDbDimension
  2
_D_11
 10
117.2299255838
 20
224.9867253803
 30
0.0
 11
117.2299255838
 21
236.5334651005
 31
0.0
 70
   160
  1
<>
 71
     2
 42
-1.0
  3
SLDDIMSTYLE1
100
AcDbAlignedDimension
 13
133.5499255838
 23
224.4267253803
 33
0.0
 14
133.5499255838
 24
224.9867253803
 34
0.0
 50
90.0
100
AcDbRotatedDimension
  0
DIMENSION
  5
584
330
1F
100
AcDbEntity
  8
HARTLIJN
100
AcDbDimension
  2
_D_12
 10
117.2299255838
 20
302.17905407
 30
0.0
 11
117.2299255838
 21
311.8110919194
 31
0.0
 70
   160
  1
<>
 71
     2
 42
-1.0
  3
SLDDIMSTYLE1
100
AcDbAlignedDimension
 13
133.5499255838
 23
301.61905407
 33
0.0
 14
133.5499255838
 24
302.17905407
 34
0.0
 50
90.0
100
AcDbRotatedDimension
  0
LINE
  5
590
330
1F
100
AcDbEntity
  8
HARTLIJN
 62
     7
100
AcDbLine
 10
152.4849255838
 20
103.7777066237
 30
0.0
 11
142.3699255838
 21
103.7777066237
 31
0.0
  0
LINE
  5
591
330
1F
100
AcDbEntity
  8
HARTLIJN
 62
     7
100
AcDbLine
 10
142.3699255838
 20
103.7777066237
 30
0.0
 11
143.3699255838
 21
105.7777066237
 31
0.0
  0
LINE
  5
592
330
1F
100
AcDbEntity
  8
HARTLIJN
 62
     7
100
AcDbLine
 10
143.3699255838
 20
105.7777066237
 30
0.0
 11
141.3699255838
 21
103.7777066237
 31
0.0
  0
LINE
  5
593
330
1F
100
AcDbEntity
  8
HARTLIJN
 62
     7
100
AcDbLine
 10
141.3699255838
 20
103.7777066237
 30
0.0
 11
139.3699255838
 21
101.7777066237
 31
0.0
  0
LINE
  5
594
330
1F
100
AcDbEntity
  8
HARTLIJN
 62
     7
100
AcDbLine
 10
139.3699255838
 20
101.7777066237
 30
0.0
 11
140.3699255838
 21
103.7777066237
 31
0.0
  0
LINE
  5
595
330
1F
100
AcDbEntity
  8
HARTLIJN
 62
     7
100
AcDbLine
 10
140.3699255838
 20
103.7777066237
 30
0.0
 11
130.2549255838
 21
103.7777066237
 31
0.0
  0
LINE
  5
596
330
1F
100
AcDbEntity
  8
HARTLIJN
 62
     7
100
AcDbLine
 10
152.4849255838
 20
105.7777066237
 30
0.0
 11
142.3699255838
 21
105.7777066237
 31
0.0
  0
LINE
  5
597
330
1F
100
AcDbEntity
  8
HARTLIJN
 62
     7
100
AcDbLine
 10
142.3699255838
 20
105.7777066237
 30
0.0
 11
143.3699255838
 21
107.7777066237
 31
0.0
  0
LINE
  5
598
330
1F
100
AcDbEntity
  8
HARTLIJN
 62
     7
100
AcDbLine
 10
143.3699255838
 20
107.7777066237
 30
0.0
 11
141.3699255838
 21
105.7777066237
 31
0.0
  0
LINE
  5
599
330
1F
100
AcDbEntity
  8
HARTLIJN
 62
     7
100
AcDbLine
 10
141.3699255838
 20
105.7777066237
 30
0.0
 11
139.3699255838
 21
103.7777066237
 31
0.0
  0
LINE
  5
59A
330
1F
100
AcDbEntity
  8
HARTLIJN
 62
     7
100
AcDbLine
 10
139.3699255838
 20
103.7777066237
 30
0.0
 11
140.3699255838
 21
105.7777066237
 31
0.0
  0
LINE
  5
59B
330
1F
100
AcDbEntity
  8
HARTLIJN
 62
     7
100
AcDbLine
 10
140.3699255838
 20
105.7777066237
 30
0.0
 11
130.2549255838
 21
105.7777066237
 31
0.0
  0
LINE
  5
59C
330
1F
100
AcDbEntity
  8
HARTLIJN
 62
     7
100
AcDbLine
 10
152.4849255838
 20
179.2366515846
 30
0.0
 11
142.3699255838
 21
179.2366515846
 31
0.0
  0
LINE
  5
59D
330
1F
100
AcDbEntity
  8
HARTLIJN
 62
     7
100
AcDbLine
 10
142.3699255838
 20
179.2366515846
 30
0.0
 11
143.3699255838
 21
181.2366515846
 31
0.0
  0
LINE
  5
59E
330
1F
100
AcDbEntity
  8
HARTLIJN
 62
     7
100
AcDbLine
 10
143.3699255838
 20
181.2366515846
 30
0.0
 11
141.3699255838
 21
179.2366515846
 31
0.0
  0
LINE
  5
59F
330
1F
100
AcDbEntity
  8
HARTLIJN
 62
     7
100
AcDbLine
 10
141.3699255838
 20
179.2366515846
 30
0.0
 11
139.3699255838
 21
177.2366515846
 31
0.0
  0
LINE
  5
5A0
330
1F
100
AcDbEntity
  8
HARTLIJN
 62
     7
100
AcDbLine
 10
139.3699255838
 20
177.2366515846
 30
0.0
 11
140.3699255838
 21
179.2366515846
 31
0.0
  0
LINE
  5
5A1
330
1F
100
AcDbEntity
  8
HARTLIJN
 62
     7
100
AcDbLine
 10
140.3699255838
 20
179.2366515846
 30
0.0
 11
130.2549255838
 21
179.2366515846
 31
0.0
  0
LINE
  5
5A2
330
1F
100
AcDbEntity
  8
HARTLIJN
 62
     7
100
AcDbLine
 10
152.4849255838
 20
181.2366515846
 30
0.0
 11
142.3699255838
 21
181.2366515846
 31
0.0
  0
LINE
  5
5A3
330
1F
100
AcDbEntity
  8
HARTLIJN
 62
     7
100
AcDbLine
 10
142.3699255838
 20
181.2366515846
 30
0.0
 11
143.3699255838
 21
183.2366515846
 31
0.0
  0
LINE
  5
5A4
330
1F
100
AcDbEntity
  8
HARTLIJN
 62
     7
100
AcDbLine
 10
143.3699255838
 20
183.2366515846
 30
0.0
 11
141.3699255838
 21
181.2366515846
 31
0.0
  0
LINE
  5
5A5
330
1F
100
AcDbEntity
  8
HARTLIJN
 62
     7
100
AcDbLine
 10
141.3699255838
 20
181.2366515846
 30
0.0
 11
139.3699255838
 21
179.2366515846
 31
0.0
  0
LINE
  5
5A6
330
1F
100
AcDbEntity
  8
HARTLIJN
 62
     7
100
AcDbLine
 10
139.3699255838
 20
179.2366515846
 30
0.0
 11
140.3699255838
 21
181.2366515846
 31
0.0
  0
LINE
  5
5A7
330
1F
100
AcDbEntity
  8
HARTLIJN
 62
     7
100
AcDbLine
 10
140.3699255838
 20
181.2366515846
 30
0.0
 11
130.2549255838
 21
181.2366515846
 31
0.0
  0
LINE
  5
5A8
330
1F
100
AcDbEntity
  8
HARTLIJN
 62
     7
100
AcDbLine
 10
152.4849255838
 20
256.4750445598
 30
0.0
 11
142.3699255838
 21
256.4750445598
 31
0.0
  0
LINE
  5
5A9
330
1F
100
AcDbEntity
  8
HARTLIJN
 62
     7
100
AcDbLine
 10
142.3699255838
 20
256.4750445598
 30
0.0
 11
143.3699255838
 21
258.4750445598
 31
0.0
  0
LINE
  5
5AA
330
1F
100
AcDbEntity
  8
HARTLIJN
 62
     7
100
AcDbLine
 10
143.3699255838
 20
258.4750445598
 30
0.0
 11
141.3699255838
 21
256.4750445598
 31
0.0
  0
LINE
  5
5AB
330
1F
100
AcDbEntity
  8
HARTLIJN
 62
     7
100
AcDbLine
 10
141.3699255838
 20
256.4750445598
 30
0.0
 11
139.3699255838
 21
254.4750445598
 31
0.0
  0
LINE
  5
5AC
330
1F
100
AcDbEntity
  8
HARTLIJN
 62
     7
100
AcDbLine
 10
139.3699255838
 20
254.4750445598
 30
0.0
 11
140.3699255838
 21
256.4750445598
 31
0.0
  0
LINE
  5
5AD
330
1F
100
AcDbEntity
  8
HARTLIJN
 62
     7
100
AcDbLine
 10
140.3699255838
 20
256.4750445598
 30
0.0
 11
130.2549255838
 21
256.4750445598
 31
0.0
  0
LINE
  5
5AE
330
1F
100
AcDbEntity
  8
HARTLIJN
 62
     7
100
AcDbLine
 10
152.4849255838
 20
258.4750445598
 30
0.0
 11
142.3699255838
 21
258.4750445598
 31
0.0
  0
LINE
  5
5AF
330
1F
100
AcDbEntity
  8
HARTLIJN
 62
     7
100
AcDbLine
 10
142.3699255838
 20
258.4750445598
 30
0.0
 11
143.3699255838
 21
260.4750445598
 31
0.0
  0
LINE
  5
5B0
330
1F
100
AcDbEntity
  8
HARTLIJN
 62
     7
100
AcDbLine
 10
143.3699255838
 20
260.4750445598
 30
0.0
 11
141.3699255838
 21
258.4750445598
 31
0.0
  0
LINE
  5
5B1
330
1F
100
AcDbEntity
  8
HARTLIJN
 62
     7
100
AcDbLine
 10
141.3699255838
 20
258.4750445598
 30
0.0
 11
139.3699255838
 21
256.4750445598
 31
0.0
  0
LINE
  5
5B2
330
1F
100
AcDbEntity
  8
HARTLIJN
 62
     7
100
AcDbLine
 10
139.3699255838
 20
256.4750445598
 30
0.0
 11
140.3699255838
 21
258.4750445598
 31
0.0
  0
LINE
  5
5B3
330
1F
100
AcDbEntity
  8
HARTLIJN
 62
     7
100
AcDbLine
 10
140.3699255838
 20
258.4750445598
 30
0.0
 11
130.2549255838
 21
258.4750445598
 31
0.0
  0
LINE
  5
5B4
330
1F
100
AcDbEntity
  8
HARTLIJN
 62
     7
100
AcDbLine
 10
152.4849255838
 20
334.7369117996
 30
0.0
 11
142.3699255838
 21
334.7369117996
 31
0.0
  0
LINE
  5
5B5
330
1F
100
AcDbEntity
  8
HARTLIJN
 62
     7
100
AcDbLine
 10
142.3699255838
 20
334.7369117996
 30
0.0
 11
143.3699255838
 21
336.7369117996
 31
0.0
  0
LINE
  5
5B6
330
1F
100
AcDbEntity
  8
HARTLIJN
 62
     7
100
AcDbLine
 10
143.3699255838
 20
336.7369117996
 30
0.0
 11
141.3699255838
 21
334.7369117996
 31
0.0
  0
LINE
  5
5B7
330
1F
100
AcDbEntity
  8
HARTLIJN
 62
     7
100
AcDbLine
 10
141.3699255838
 20
334.7369117996
 30
0.0
 11
139.3699255838
 21
332.7369117996
 31
0.0
  0
LINE
  5
5B8
330
1F
100
AcDbEntity
  8
HARTLIJN
 62
     7
100
AcDbLine
 10
139.3699255838
 20
332.7369117996
 30
0.0
 11
140.3699255838
 21
334.7369117996
 31
0.0
  0
LINE
  5
5B9
330
1F
100
AcDbEntity
  8
HARTLIJN
 62
     7
100
AcDbLine
 10
140.3699255838
 20
334.7369117996
 30
0.0
 11
130.2549255838
 21
334.7369117996
 31
0.0
  0
LINE
  5
5BA
330
1F
100
AcDbEntity
  8
HARTLIJN
 62
     7
100
AcDbLine
 10
152.4849255838
 20
336.7369117996
 30
0.0
 11
142.3699255838
 21
336.7369117996
 31
0.0
  0
LINE
  5
5BB
330
1F
100
AcDbEntity
  8
HARTLIJN
 62
     7
100
AcDbLine
 10
142.3699255838
 20
336.7369117996
 30
0.0
 11
143.3699255838
 21
338.7369117996
 31
0.0
  0
LINE
  5
5BC
330
1F
100
AcDbEntity
  8
HARTLIJN
 62
     7
100
AcDbLine
 10
143.3699255838
 20
338.7369117996
 30
0.0
 11
141.3699255838
 21
336.7369117996
 31
0.0
  0
LINE
  5
5BD
330
1F
100
AcDbEntity
  8
HARTLIJN
 62
     7
100
AcDbLine
 10
141.3699255838
 20
336.7369117996
 30
0.0
 11
139.3699255838
 21
334.7369117996
 31
0.0
  0
LINE
  5
5BE
330
1F
100
AcDbEntity
  8
HARTLIJN
 62
     7
100
AcDbLine
 10
139.3699255838
 20
334.7369117996
 30
0.0
 11
140.3699255838
 21
336.7369117996
 31
0.0
  0
LINE
  5
5BF
330
1F
100
AcDbEntity
  8
HARTLIJN
 62
     7
100
AcDbLine
 10
140.3699255838
 20
336.7369117996
 30
0.0
 11
130.2549255838
 21
336.7369117996
 31
0.0
  0
ENDSEC
  0
SECTION
  2
OBJECTS
  0
DICTIONARY
  5
C
330
0
100
AcDbDictionary
281
     1
  3
ACAD_GROUP
350
D
  3
ACAD_LAYOUT
350
1A
  3
ACAD_MLINESTYLE
350
17
  3
ACAD_PLOTSETTINGS
350
19
  3
ACAD_PLOTSTYLENAME
350
E
  0
DICTIONARY
  5
D
102
{ACAD_REACTORS
330
C
102
}
330
C
100
AcDbDictionary
281
     1
  0
DICTIONARY
  5
1A
102
{ACAD_REACTORS
330
C
102
}
330
C
100
AcDbDictionary
281
     1
  3
Layout1
350
1E
  3
Layout2
350
26
  3
Model
350
22
  0
DICTIONARY
  5
17
102
{ACAD_REACTORS
330
C
102
}
330
C
100
AcDbDictionary
281
     1
  3
Standard
350
18
  0
DICTIONARY
  5
19
102
{ACAD_REACTORS
330
C
102
}
330
C
100
AcDbDictionary
281
     1
  0
ACDBDICTIONARYWDFLT
  5
E
102
{ACAD_REACTORS
330
C
102
}
330
C
100
AcDbDictionary
281
     1
  3
Normal
350
F
100
AcDbDictionaryWithDefault
340
F
  0
LAYOUT
  5
1E
102
{ACAD_REACTORS
330
1A
102
}
330
1A
100
AcDbPlotSettings
  1

  2
none_device
  4

  6

 40
0.0
 41
0.0
 42
0.0
 43
0.0
 44
0.0
 45
0.0
 46
0.0
 47
0.0
 48
0.0
 49
0.0
140
0.0
141
0.0
142
1.0
143
1.0
 70
   688
 72
     0
 73
     0
 74
     5
  7

 75
    16
147
1.0
148
0.0
149
0.0
100
AcDbLayout
  1
Layout1
 70
     1
 71
     1
 10
0.0
 20
0.0
 11
420.0
 21
297.0
 12
0.0
 22
0.0
 32
0.0
 14
1.0000000000E+20
 24
1.0000000000E+20
 34
1.0000000000E+20
 15
-1.0000000000E+20
 25
-1.0000000000E+20
 35
-1.0000000000E+20
146
0.0
 13
0.0
 23
0.0
 33
0.0
 16
1.0
 26
0.0
 36
0.0
 17
0.0
 27
1.0
 37
0.0
 76
     0
330
1B
  0
LAYOUT
  5
26
102
{ACAD_REACTORS
330
1A
102
}
330
1A
100
AcDbPlotSettings
  1

  2
none_device
  4

  6

 40
0.0
 41
0.0
 42
0.0
 43
0.0
 44
0.0
 45
0.0
 46
0.0
 47
0.0
 48
0.0
 49
0.0
140
0.0
141
0.0
142
1.0
143
1.0
 70
   688
 72
     0
 73
     0
 74
     5
  7

 75
    16
147
1.0
148
0.0
149
0.0
100
AcDbLayout
  1
Layout2
 70
     1
 71
     2
 10
0.0
 20
0.0
 11
0.0
 21
0.0
 12
0.0
 22
0.0
 32
0.0
 14
0.0
 24
0.0
 34
0.0
 15
0.0
 25
0.0
 35
0.0
146
0.0
 13
0.0
 23
0.0
 33
0.0
 16
1.0
 26
0.0
 36
0.0
 17
0.0
 27
1.0
 37
0.0
 76
     0
330
23
  0
LAYOUT
  5
22
102
{ACAD_REACTORS
330
1A
102
}
330
1A
100
AcDbPlotSettings
  1

  2
none_device
  4

  6

 40
0.0
 41
0.0
 42
0.0
 43
0.0
 44
0.0
 45
0.0
 46
0.0
 47
0.0
 48
0.0
 49
0.0
140
0.0
141
0.0
142
1.0
143
1.0
 70
  1712
 72
     0
 73
     0
 74
     0
  7

 75
     0
147
1.0
148
0.0
149
0.0
100
AcDbLayout
  1
Model
 70
     1
 71
     0
 10
0.0
 20
0.0
 11
297.0
 21
420.0
 12
0.0
 22
0.0
 32
0.0
 14
0.0
 24
0.0
 34
0.0
 15
297.0
 25
420.0
 35
0.0
146
0.0
 13
0.0
 23
0.0
 33
0.0
 16
1.0
 26
0.0
 36
0.0
 17
0.0
 27
1.0
 37
0.0
 76
     0
330
1F
331
29
  0
MLINESTYLE
  5
18
102
{ACAD_REACTORS
330
17
102
}
330
17
100
AcDbMlineStyle
  2
Standard
 70
     0
  3

 62
   256
 51
90.0
 52
90.0
 71
     2
 49
0.5
 62
   256
  6
BYLAYER
 49
-0.5
 62
   256
  6
BYLAYER
  0
ACDBPLACEHOLDER
  5
F
102
{ACAD_REACTORS
330
E
102
}
330
E
  0
ENDSEC
  0
EOF
