<svg viewBox="0 0 32 32" xmlns="http://www.w3.org/2000/svg"><g fill="#3a3a38"><rect height="2" ry="1" transform="scale(1 -1)" width="26" x="3" y="-30"/><rect height="2" ry="1" transform="scale(1 -1)" width="26" x="3" y="-27"/><path d="m25.927236 13.009517q0 2.424474-.720789 4.439408-.704408 2.014935-2.014935 3.472895-1.294143 1.45796-3.12888 2.277039-1.818356.802697-4.046252.802697-2.211511 0-4.046248-.802697-1.834736-.819079-3.1452627-2.277039-1.3105262-1.45796-2.0313156-3.472895-.7207894-2.014934-.7207894-4.439408 0-2.408091.7207894-4.4230245.7207894-2.0313156 2.0313156-3.489276 1.3105267-1.474342 3.1452627-2.2770392 1.834737-.8190789 4.046248-.8190789 2.227896 0 4.046252.8190789 1.834737.8026972 3.12888 2.2770392 1.310527 1.4579604 2.014935 3.489276.720789 2.0149335.720789 4.4230245zm-3.046972 0q0-1.965789-.491449-3.5220382-.475067-1.572631-1.376051-2.6538152-.884606-1.0975656-2.162368-1.6709209-1.261382-.5897367-2.834015-.5897367-1.57263 0-2.850395.5897367-1.26138.5733553-2.162368 1.6709209-.900986 1.0811842-1.3924331 2.6538152-.4750662 1.5562492-.4750662 3.5220382 0 1.96579.4750662 3.538422.4914471 1.55625 1.3924331 2.653816.900988 1.081183 2.162368 1.654539 1.277765.573355 2.850395.573355 1.572633 0 2.834015-.573355 1.277762-.573356 2.162368-1.654539.900985-1.097566 1.376051-2.653816.491449-1.572632.491449-3.538422z"/></g></svg>