<svg height="16" viewBox="0 0 4.2333333 4.2333335" width="16" xmlns="http://www.w3.org/2000/svg" xmlns:xlink="http://www.w3.org/1999/xlink"><linearGradient id="a" gradientUnits="userSpaceOnUse" x1="18.278177" x2="19.438393" y1="29.901337" y2="3.21637"><stop offset="0" stop-color="#555"/><stop offset="1"/></linearGradient><linearGradient id="b" gradientUnits="userSpaceOnUse" x1="9.851783" x2="26.88537" y1="11.306804" y2="11.306804"><stop offset="0" stop-color="#3b3e22"/><stop offset="1" stop-color="#454545" stop-opacity="0"/></linearGradient><g transform="scale(.125)"><path d="m26.76806 10.131271q0 1.055797-.243645 2.030378-.243645.974582-.974581 2.070986-.690329 1.096404-1.867948 1.908555-1.177619.771544-3.207997 1.299442-2.030378.527898-4.710477.527898-1.218227 0-2.801922-.121822v7.390576q0 2.233415.690329 2.923744.730936.649721 3.126782.730936v.771543h-11.3701168v-.771543q2.3146308-.203038 2.8425291-.852759.5685058-.690328.5685058-3.248605v-17.5830728q0-2.1928082-.5685058-2.8019216-.5685058-.6091134-2.8425291-.8527587v-.7715436h10.7203958q1.82734 0 3.532857.365468 1.705518.3248605 3.370428 1.0964041 1.705517.7715436 2.720706 2.2740233 1.015189 1.5024797 1.015189 3.6140723zm-13.80657-4.466831v10.557965q1.421265.121823 2.314631.121823 7.065715 0 7.065715-5.969311 0-3.1267822-1.949162-4.5886544-1.949163-1.5024796-6.050527-1.5024796-.812151 0-1.096404.2842529-.284253.2842529-.284253 1.0964041z" fill="url(#a)" stroke-width=".964705" transform="scale(1.0525265 .95009483)"/><rect fill="#010101" height="2.116667" rx=".472075" ry=".607224" stroke-width=".264583" width="33.866669" x=".000002" y="31.75"/><path d="m9.8517829 3.8059694c.5978551.81753.7193361 1.7563193.7193361 3.041158v11.8447556a21.71497 14.206056 0 0 0 1.78232.115755v-1.850533a1.2899453 1.164408 0 0 1 .325045-.772046 1.2899453 1.164408 0 0 1 -.325045-.772046v-10.0314291c0-.5447486.104426-1.0772598.489376-1.5756145zm12.3858081.7606771c.002.00137.0021.00432.0041.00568.0028.00194.0075.00167.01034.00362zm.104903.122473c1.627534 1.1719124 2.462382 3.0061684 2.462382 5.1681601 0 2.1124224-.75246 3.9329894-2.304252 5.1252684.597421-.205052 1.329535-.395524 1.704288-.615983.693173-.43358 1.212748-.91561 1.595251-1.463993a1.2899453 1.164408 0 0 1 .0186-.02635c.451951-.611951.722077-1.152025.846977-1.603003.14447-.521631.21963-1.069334.21963-1.6479665 0-1.1506494-.293312-2.0393005-.849045-2.7817425-.581962-.7774813-1.328822-1.3421569-2.32699-1.749764a1.2899453 1.164408 0 0 1 -.010335-.0056843c-.450955-.1886413-.904568-.2568829-1.356506-.3989422z" fill="url(#b)"/></g></svg>