<svg height="256" width="256" xmlns="http://www.w3.org/2000/svg" xmlns:xlink="http://www.w3.org/1999/xlink"><linearGradient id="a"><stop offset="0" stop-color="#fff" stop-opacity="0"/><stop offset=".493" stop-color="#fff"/><stop offset="1" stop-color="#fff" stop-opacity="0"/></linearGradient><linearGradient id="b"><stop offset="0" stop-opacity="0"/><stop offset=".493"/><stop offset="1" stop-opacity="0"/></linearGradient><linearGradient id="c"><stop offset="0"/><stop offset=".455" stop-opacity=".361"/><stop offset="1" stop-opacity="0"/></linearGradient><linearGradient id="d"><stop offset="0" stop-color="#666"/><stop offset="1" stop-color="#333"/></linearGradient><linearGradient id="e"><stop offset="0" stop-opacity=".502"/><stop offset="1" stop-opacity="0"/></linearGradient><linearGradient id="f" gradientTransform="matrix(.7 0 0 2 -1586.7 -1667.4)" gradientUnits="userSpaceOnUse" x1="-17" x2="144" xlink:href="#b" y1="-1194.638" y2="-1194.638"/><linearGradient id="g" gradientTransform="matrix(.8 0 0 2 -4042.1 3877.1)" gradientUnits="userSpaceOnUse" x1="-17" x2="144" xlink:href="#b" y1="-1194.638" y2="-1194.638"/><linearGradient id="h" gradientTransform="matrix(.8 0 0 2 -4042.1 3985.1)" gradientUnits="userSpaceOnUse" x1="-17" x2="144" xlink:href="#b" y1="-1194.638" y2="-1194.638"/><linearGradient id="i" gradientTransform="matrix(1.3 0 0 2.7 3293.3 2679.2)" gradientUnits="userSpaceOnUse" x1="529.25" x2="535" y1="-1568.638" y2="-1574.638"><stop offset="0" stop-color="#f00"/><stop offset="1" stop-color="#d3d300" stop-opacity="0"/></linearGradient><linearGradient id="j" gradientTransform="matrix(1.3 0 0 4 3321.3 4770.8)" gradientUnits="userSpaceOnUse" x1="529.25" x2="535" y1="-1568.638" y2="-1574.638"><stop offset="0" stop-color="#003362"/><stop offset="1" stop-color="#00ff8c" stop-opacity="0"/></linearGradient><linearGradient id="k" gradientTransform="matrix(.7 0 0 2 3945.3 895.5)" gradientUnits="userSpaceOnUse" x1="-17" x2="144" xlink:href="#a" y1="-1194.638" y2="-1194.638"/><linearGradient id="l" gradientTransform="matrix(.6 0 0 2 -1584.8 -1541.4)" gradientUnits="userSpaceOnUse" x1="-17" x2="144" xlink:href="#b" y1="-1194.638" y2="-1194.638"/><linearGradient id="m" gradientTransform="matrix(.7 0 0 2 3945.3 889.5)" gradientUnits="userSpaceOnUse" x1="-17" x2="144" xlink:href="#b" y1="-1194.638" y2="-1194.638"/><linearGradient id="n" gradientTransform="matrix(.1 0 0 2 4026.8 835.5)" gradientUnits="userSpaceOnUse" x1="-17" x2="144" xlink:href="#a" y1="-1194.638" y2="-1194.638"/><linearGradient id="o" gradientTransform="matrix(.1 0 0 2 3998.8 851.5)" gradientUnits="userSpaceOnUse" x1="-17" x2="144" xlink:href="#a" y1="-1194.638" y2="-1194.638"/><linearGradient id="p" gradientTransform="matrix(.1 0 0 2 3942.8 827.5)" gradientUnits="userSpaceOnUse" x1="-17" x2="144" xlink:href="#a" y1="-1194.638" y2="-1194.638"/><linearGradient id="q" gradientTransform="matrix(.1 0 0 2 3970.8 807.5)" gradientUnits="userSpaceOnUse" x1="-17" x2="144" xlink:href="#a" y1="-1194.638" y2="-1194.638"/><linearGradient id="r" gradientTransform="matrix(1.3 0 0 6.3 3265.3 8430.9)" gradientUnits="userSpaceOnUse" x1="529.25" x2="535" y1="-1568.638" y2="-1574.638"><stop offset="0" stop-color="#800000"/><stop offset="1" stop-color="#ffc600" stop-opacity="0"/></linearGradient><linearGradient id="s" gradientTransform="matrix(1.3 0 0 4.7 3237.3 5816.5)" gradientUnits="userSpaceOnUse" x1="529.25" x2="535" y1="-1568.638" y2="-1574.638"><stop offset="0" stop-color="#4a00ff"/><stop offset="1" stop-color="#00a0c1" stop-opacity="0"/></linearGradient><linearGradient id="t" gradientTransform="matrix(2.9 0 0 5.8 2528.9 7731)" gradientUnits="userSpaceOnUse" x1="525.639" x2="525.639" y1="-1078.644" y2="-1068.787"><stop offset="0" stop-color="#8ee780"/><stop offset="1" stop-color="#ccf4c6"/></linearGradient><linearGradient id="u" gradientTransform="matrix(2.9 0 0 4 2500.9 5814.3)" gradientUnits="userSpaceOnUse" x1="525.639" x2="525.639" y1="-1078.644" y2="-1068.787"><stop offset="0" stop-color="#f5ce53"/><stop offset="1" stop-color="#fde9a9"/></linearGradient><linearGradient id="v" gradientTransform="matrix(2.9 0 0 8.9 2472.9 11085.2)" gradientUnits="userSpaceOnUse" x1="525.639" x2="525.639" y1="-1078.644" y2="-1068.787"><stop offset="0" stop-color="#f09e6f"/><stop offset="1" stop-color="#f9cfb5"/></linearGradient><linearGradient id="w" gradientTransform="matrix(2.9 0 0 6.7 2444.9 8689.4)" gradientUnits="userSpaceOnUse" x1="525.639" x2="525.639" y1="-1078.644" y2="-1068.787"><stop offset="0" stop-color="#63bbee"/><stop offset="1" stop-color="#aadcf7"/></linearGradient><radialGradient id="x" cx="152.333" cy="-754.638" gradientTransform="matrix(0 .8 -1.2 0 3047.3 -1617.2)" gradientUnits="userSpaceOnUse" r="15" xlink:href="#e"/><linearGradient id="y" gradientTransform="matrix(.6 0 0 2 3952.8 811.5)" gradientUnits="userSpaceOnUse" x1="-17" x2="144" xlink:href="#b" y1="-1194.638" y2="-1194.638"/><linearGradient id="z" gradientTransform="matrix(.6 0 0 2 3952.8 831.5)" gradientUnits="userSpaceOnUse" x1="-17" x2="144" xlink:href="#b" y1="-1194.638" y2="-1194.638"/><linearGradient id="A" gradientTransform="matrix(.6 0 0 2 3952.8 871.5)" gradientUnits="userSpaceOnUse" x1="-17" x2="144" xlink:href="#b" y1="-1194.638" y2="-1194.638"/><linearGradient id="B" gradientTransform="matrix(.6 0 0 2 3952.8 851.5)" gradientUnits="userSpaceOnUse" x1="-17" x2="144" xlink:href="#b" y1="-1194.638" y2="-1194.638"/><linearGradient id="C" gradientTransform="matrix(.9 0 0 1.2 3917.2 -39.4)" gradientUnits="userSpaceOnUse" x1="152" x2="113.882" xlink:href="#c" y1="-1192.638" y2="-1230.756"/><radialGradient id="D" cx="152.333" cy="-754.638" gradientTransform="matrix(0 .8 -1.2 0 3131.3 -1617.2)" gradientUnits="userSpaceOnUse" r="15" xlink:href="#e"/><radialGradient id="E" cx="152.333" cy="-754.638" gradientTransform="matrix(0 .8 -1.2 0 3103.3 -1617.2)" gradientUnits="userSpaceOnUse" r="15" xlink:href="#e"/><radialGradient id="F" cx="152.333" cy="-754.638" gradientTransform="matrix(0 .8 -1.2 0 3075.3 -1617.2)" gradientUnits="userSpaceOnUse" r="15" xlink:href="#e"/><linearGradient id="G" gradientTransform="matrix(3.1 0 0 5.1 1735.7 3932.8)" gradientUnits="userSpaceOnUse" x1="714" x2="714" y1="-1063.638" y2="-1083.638"><stop offset="0" stop-color="#f2f2f2"/><stop offset="1" stop-color="#fff"/></linearGradient><linearGradient id="H" gradientTransform="matrix(1.6 0 0 2 2985.1 1442.2)" gradientUnits="userSpaceOnUse" x1="652.25" x2="652.25" y1="-1491.638" y2="-1548.138"><stop offset="0" stop-color="#808080"/><stop offset="1" stop-color="#b3b3b3"/></linearGradient><linearGradient id="I" gradientUnits="userSpaceOnUse" x1="4081.6" x2="4051.1056" xlink:href="#c" y1="-1483.1104" y2="-1513.6048"/><linearGradient id="J" gradientTransform="matrix(.8 0 0 2 -1573.2 -1701.4)" gradientUnits="userSpaceOnUse" x1="-17" x2="144" xlink:href="#b" y1="-1194.638" y2="-1194.638"/><linearGradient id="K" gradientTransform="matrix(.8 0 0 2 -1573.2 -1693.4)" gradientUnits="userSpaceOnUse" x1="-17" x2="144" xlink:href="#b" y1="-1194.638" y2="-1194.638"/><linearGradient id="L" gradientTransform="matrix(1.4 0 0 2 -1652.8 -1523.4)" gradientUnits="userSpaceOnUse" x1="-17" x2="144" xlink:href="#b" y1="-1194.638" y2="-1194.638"/><linearGradient id="M" gradientTransform="matrix(1 0 0 2 3930.4 931.5)" gradientUnits="userSpaceOnUse" x1="-17" x2="144" xlink:href="#b" y1="-1194.638" y2="-1194.638"/><linearGradient id="N" gradientTransform="matrix(.7 .7 -1.4 1.4 2289.2 -5.5)" gradientUnits="userSpaceOnUse" x1="30.744" x2="144" xlink:href="#b" y1="-1194.638" y2="-1194.638"/><linearGradient id="O" gradientUnits="userSpaceOnUse" x1="-3911.7" x2="-3942.1944" xlink:href="#c" y1="-1483.1104" y2="-1513.6048"/><linearGradient id="P" gradientTransform="matrix(1.1 0 0 2 -4069.2 3837)" gradientUnits="userSpaceOnUse" x1="-17" x2="144" xlink:href="#b" y1="-1194.638" y2="-1194.638"/><linearGradient id="Q" gradientTransform="matrix(1.4 0 0 2 -1652.8 -1515.4)" gradientUnits="userSpaceOnUse" x1="-17" x2="144" xlink:href="#b" y1="-1194.638" y2="-1194.638"/><linearGradient id="R" gradientTransform="matrix(.7 .7 -1.4 1.4 2293.2 -15.5)" gradientUnits="userSpaceOnUse" x1="30.744" x2="144" xlink:href="#b" y1="-1194.638" y2="-1194.638"/><linearGradient id="S" gradientTransform="matrix(.7 .7 -1.4 1.4 2293.2 -49.5)" gradientUnits="userSpaceOnUse" x1="78.822" x2="144" xlink:href="#b" y1="-1194.638" y2="-1194.638"/><linearGradient id="T" gradientUnits="userSpaceOnUse" x1="3917.104" x2="3917.104" y1="-1459.804" y2="-1669.684"><stop offset="0" stop-color="#fff" stop-opacity=".65"/><stop offset="1" stop-color="#fff" stop-opacity=".949"/></linearGradient><linearGradient id="U" gradientUnits="userSpaceOnUse" x1="3936.888" x2="3938.088" y1="-1468.304" y2="-1683.376"><stop offset="0" stop-color="#b3b3b3"/><stop offset="1" stop-color="#e6e6e6"/></linearGradient><linearGradient id="V" gradientUnits="userSpaceOnUse" x1="3700.348" x2="3700.348" xlink:href="#d" y1="-1165.276" y2="-1036.908"/><linearGradient id="W" gradientTransform="matrix(8 0 0 8.1 2717.9 -9050.3)" gradientUnits="userSpaceOnUse" x1="110.969" x2="110.969" xlink:href="#d" y1="976.3" y2="992.375"/><g transform="translate(-3867.3 1693.8)"><text x="382.125" y="-1109.14"/><path d="m3618-1160.617v115.98c0 4.19 1.813 6 6.002 6h92.007c4.188 0 6-1.81 6-6v-71.826c.047-2.112-.78-4.23-2.25-5.75l-42.168-42.153c-1.518-1.47-3.637-2.298-5.75-2.25h-47.84c-4.152 0-6.02 3.486-6 6z" fill="url(#V)" transform="matrix(2 0 0 2 -3344.7 639.5)"/><path d="m3692.642-1166.59c-2.663.853-3.56 4.907-1.506 6.813l24.097 24.224c2.227 2.12 6.66.306 6.778-2.776v-24.223c0-2.113-1.912-4.036-4.015-4.037h-24.098c-.415-.064-.84-.064-1.255 0z" fill="url(#W)" transform="matrix(2 0 0 2 -3344.7 639.5)"/><path d="m3904.64-1681.795v232h184v-145.75l-1.25-1.25-83.5-84-1-1z" fill="url(#U)"/><path d="m3912.64-1673.674h84.47l83.53 84v132h-168z" fill="url(#T)"/><path d="m4042.054-1679.534 47.324 47.324-1.414 1.415-47.324-47.325z" fill="url(#S)" opacity=".25"/><path d="m4006.054-1681.534 83.324 83.324-1.414 1.415-83.324-83.325z" fill="url(#R)" opacity=".25"/><path d="m-1675.796-3904.64h218v2h-218z" fill="url(#Q)" opacity=".5" transform="rotate(90)"/><path d="m-4088.64 1447.795h184v2h-184z" fill="url(#P)" opacity=".5" transform="scale(-1)"/><path d="m-3978.64-1523.796h64v64h-64z" fill="url(#O)" opacity=".15" transform="scale(-1 1)"/><path d="m4002.054-1671.534 83.324 83.324-1.414 1.415-83.324-83.325z" fill="url(#N)" opacity=".1"/><path d="m3912.64-1457.796h167.994v2h-167.994z" fill="url(#M)" opacity=".2"/><path d="m-1675.796-3912.64h218v2h-218z" fill="url(#L)" opacity=".2" transform="rotate(90)"/><path d="m-1586.795-4082.64h129v2h-129z" fill="url(#K)" opacity=".2" transform="rotate(90)"/><path d="m-1586.795-4090.64h129v2h-129z" fill="url(#J)" opacity=".5" transform="rotate(90)"/><path d="m4014.64-1523.796h64v64h-64z" fill="url(#I)" opacity=".15"/><path d="m3928.64-1487.795h128v2h-128z" opacity=".15"/><path d="m3928.64-1597.795h128v110h-128z" fill="url(#H)"/><path d="m3932.64-1593.795h120v102h-120z" fill="url(#G)"/><path d="m3961.668-1511.795h33.943c.57 0 1.03 3.016 1.03 6.763v6.474c0 3.746-.46 6.763-1.03 6.763h-33.942c-.57 0-1.028-3.017-1.028-6.763v-6.474c0-3.747.458-6.763 1.028-6.763z" fill="url(#F)" opacity=".5"/><path d="m3989.668-1511.795h33.943c.57 0 1.03 3.016 1.03 6.763v6.474c0 3.746-.46 6.763-1.03 6.763h-33.942c-.57 0-1.028-3.017-1.028-6.763v-6.474c0-3.747.458-6.763 1.028-6.763z" fill="url(#E)" opacity=".5"/><path d="m4017.668-1511.795h33.943c.57 0 1.03 3.016 1.03 6.763v6.474c0 3.746-.46 6.763-1.03 6.763h-33.942c-.57 0-1.028-3.017-1.028-6.763v-6.474c0-3.747.458-6.763 1.028-6.763z" fill="url(#D)" opacity=".5"/><path d="m3978.64-1593.795h72v100h-72z" fill="url(#C)" opacity=".15"/><path d="m3942.37-1537.795h98.918v2h-98.92z" fill="url(#B)" opacity=".25"/><path d="m3942.37-1517.795h98.918v2h-98.92z" fill="url(#A)" opacity=".25"/><path d="m3994.64-1539.795h24v40h-24z" fill="#c99c00"/><path d="m3942.37-1557.795h98.918v2h-98.92z" fill="url(#z)" opacity=".25"/><path d="m3938.64-1563.795h24v64h-24z" fill="#0369a3"/><path d="m3942.37-1577.795h98.918v2h-98.92z" fill="url(#y)" opacity=".25"/><path d="m3966.64-1583.795h24v84h-24z" fill="#a33e03"/><path d="m4022.64-1555.795h24v56h-24z" fill="#43c330"/><path d="m3933.668-1511.795h33.943c.57 0 1.03 3.016 1.03 6.763v6.474c0 3.746-.46 6.763-1.03 6.763h-33.942c-.57 0-1.028-3.017-1.028-6.763v-6.474c0-3.747.458-6.763 1.028-6.763z" fill="url(#x)" opacity=".5"/><path d="m3940.64 1501.795h20v60h-20z" fill="url(#w)" transform="scale(1 -1)"/><path d="m3968.64 1501.795h20v80h-20z" fill="url(#v)" transform="scale(1 -1)"/><path d="m3996.64 1501.795h20v36h-20z" fill="url(#u)" transform="scale(1 -1)"/><path d="m4024.64 1501.795h20v52h-20z" fill="url(#t)" transform="scale(1 -1)"/><path d="m3942.64-1559.795h16v56h-16z" fill="url(#s)" opacity=".35"/><path d="m3970.64-1579.795h16v76h-16z" fill="url(#r)" opacity=".35"/><path d="m3968.64-1581.795h20v2h-20z" fill="url(#q)" opacity=".75"/><path d="m3940.64-1561.795h20v2h-20z" fill="url(#p)" opacity=".75"/><path d="m3996.64-1537.795h20v2h-20z" fill="url(#o)" opacity=".75"/><path d="m4024.64-1553.795h20v2h-20z" fill="url(#n)" opacity=".75"/><path d="m3932.64-1499.795h120v2h-120z" fill="url(#m)" opacity=".5"/><path d="m-1595.795-3930.64h104v2h-104z" fill="url(#l)" opacity=".25" transform="rotate(90)"/><path d="m3932.64-1493.795h120v2h-120z" fill="url(#k)" opacity=".75"/><path d="m4026.64-1551.795h16v48h-16z" fill="url(#j)" opacity=".35"/><path d="m3998.64-1535.795h16v32h-16z" fill="url(#i)" opacity=".35"/><path d="m-4054.994 1595.8h122.353v2h-122.354z" fill="url(#h)" opacity=".25" transform="scale(-1)"/><path d="m-4054.994 1487.8h122.353v2h-122.354z" fill="url(#g)" opacity=".25" transform="scale(-1)"/><path d="m-1597.84-4056.64h106.04v2h-106.04z" fill="url(#f)" opacity=".25" transform="rotate(90)"/></g></svg>