<svg height="256" width="256" xmlns="http://www.w3.org/2000/svg" xmlns:xlink="http://www.w3.org/1999/xlink"><linearGradient id="a" gradientTransform="matrix(0 1.078754 -1.777816 0 2077.04 -309.97513)" gradientUnits="userSpaceOnUse" x1="445.69522" x2="441.38797" xlink:href="#b" y1="1103.5776" y2="1099.8198"/><linearGradient id="b" gradientUnits="userSpaceOnUse" x1="445.69522" x2="441.38797" y1="1103.5776" y2="1099.8198"><stop offset="0" stop-color="#e9b913"/><stop offset="1" stop-color="#ff0"/></linearGradient><linearGradient id="c" gradientTransform="matrix(0 1.078754 -1.777816 0 2145.04 -309.97513)" gradientUnits="userSpaceOnUse" x1="445.69522" x2="441.38797" xlink:href="#b" y1="1103.5776" y2="1099.8198"/><linearGradient id="d" gradientTransform="matrix(0 1.078754 -1.777816 0 2145.04 -365.97513)" gradientUnits="userSpaceOnUse" x1="445.69522" x2="441.38797" xlink:href="#b" y1="1103.5776" y2="1099.8198"/><linearGradient id="e" gradientTransform="matrix(3.49998 0 0 3.3026 -1113.5 -3762.6151)" gradientUnits="userSpaceOnUse" x1="381.57361" x2="327.28757" xlink:href="#f" y1="1216.0323" y2="1139.5762"/><linearGradient id="f"><stop offset="0" stop-color="#535353"/><stop offset="1" stop-color="#7e7e7e"/></linearGradient><linearGradient id="g" gradientTransform="matrix(0 1.078754 -1.777816 0 2077.04 -365.97513)" gradientUnits="userSpaceOnUse" x1="445.69522" x2="441.38797" xlink:href="#b" y1="1103.5776" y2="1099.8198"/><linearGradient id="h" gradientUnits="userSpaceOnUse" x1="222" x2="32" y1="255.94927" y2=".94927"><stop offset="0" stop-color="#0369a3"/><stop offset="1" stop-color="#1c99e0"/></linearGradient><linearGradient id="i" gradientUnits="userSpaceOnUse" x1="217.00001" x2="37.00001" y1="240.9493" y2="10.9493"><stop offset="0" stop-color="#e6e6e6"/><stop offset="1" stop-color="#fff"/></linearGradient><linearGradient id="j" gradientTransform="matrix(1.004 0 0 1.0093981 64.49495 1423.0382)" gradientUnits="userSpaceOnUse" x1="151.8994" x2="-27.383467" xlink:href="#f" y1="-1166.1295" y2="-1398.9415"/><path d="m39.93554.01172c-4.133 0-7.93359 3.68103-7.93359 8.11914v239.93945c0 3.86723 3.62281 7.92969 7.75781 7.92969h175.98438c4.627 0 8.25-3.86992 8.25-7.74414v-149.185546c0-4.224155-.512-6.181567-3.5-9.167969l-85.32227-85.283205c-2.988-2.9854-5.274-4.5253-9.5-4.5293l-85.73633-.0781zm122.8418.0371c-6.838 0-7.13748 7.11382-3.52148 10.74609v.002l53.18945 53.431644c4.34 4.357128 11.55273 3.321844 11.55273-3.550781v-52.431643c0-4.22715-3.82625-8.19726-8.03125-8.19726h-53.18945z" fill="url(#j)" stroke-width="15.997"/><path d="m44.00002 11.94922v232h168v-148l-86-84z" fill="url(#i)"/><path d="m92.00002 109.94927h32v22h-32z" fill="#fff" opacity=".6"/><path d="m92 107.94927v22h32v-22zm68 0v22h32v-22zm-96 2v4h24v-4zm30 0h27.99805v18h-27.99805zm38 0v4h24v-4zm30 0h27.99805v18h-27.99805zm-98 8v4h24v-4zm68 0v4h24v-4zm-68 8v4h24v-4zm68 0v4h24v-4zm-68 8v4h60v-4zm68 0v4h60v-4zm-68 8v4h60v-4zm68 0v4h60v-4zm-68 8v4h48v-4zm68 0v4h48v-4zm-40 14v22h32v-22zm68 0v22h32v-22zm-96 2v4h24v-4zm30 0h27.99805v18h-27.99805zm38 0v4h24v-4zm30 0h27.99805v18h-27.99805zm-98 8v4h24v-4zm68 0v4h24v-4zm-68 8v4h24v-4zm68 0v4h24v-4zm-68 8v4h60v-4zm68 0v4h60v-4zm-68 8v4h60v-4zm68 0v4h60v-4zm-68 8v4h48v-4zm68 0v4h48v-4z" fill="url(#h)"/><path d="m121.99799 118.13949a8.3335125 8.1818466 0 0 1 -8.33352-8.18184h8.33352z" fill="url(#g)" opacity=".74"/><path d="m102.16602 113.94927-8.16602 11.8457v2.1543h28v-2.1543l-5.83203-6.46093-5.83399 4.30859zm68 0-8.16602 11.8457v2.1543h28v-2.1543l-5.83203-6.46093-5.83399 4.30859zm-68 56-8.16602 11.8457v2.1543h28v-2.1543l-5.83203-6.46093-5.83399 4.30859zm68 0-8.16602 11.8457v2.1543h28v-2.1543l-5.83203-6.46093-5.83399 4.30859z" fill="url(#e)"/><path d="m189.99799 118.13949a8.3335125 8.1818466 0 0 1 -8.33352-8.18184h8.33352z" fill="url(#d)" opacity=".74"/><path d="m189.99799 174.13949a8.3335125 8.1818466 0 0 1 -8.33352-8.18184h8.33352z" fill="url(#c)" opacity=".74"/><path d="m121.99799 174.13949a8.3335125 8.1818466 0 0 1 -8.33352-8.18184h8.33352z" fill="url(#a)" opacity=".74"/></svg>