<svg height="256" width="256" xmlns="http://www.w3.org/2000/svg" xmlns:xlink="http://www.w3.org/1999/xlink"><linearGradient id="a" gradientUnits="userSpaceOnUse" x1="940" x2="750" xlink:href="#b" y1="128" y2="-122"/><linearGradient id="b"><stop offset="0" stop-color="#0369a3"/><stop offset="1" stop-color="#1c99e0"/></linearGradient><clipPath id="c"><circle cx="3063.9983" cy="-1084.639" r="15.000002"/></clipPath><clipPath id="d"><circle cx="3063.9983" cy="-1084.639" r="15.000002"/></clipPath><clipPath id="e"><circle cx="3063.9983" cy="-1084.639" r="15.000002"/></clipPath><clipPath id="f"><circle cx="3063.9983" cy="-1084.639" r="15.000002"/></clipPath><clipPath id="g"><circle cx="3063.9983" cy="-1084.639" r="15.000002"/></clipPath><clipPath id="h"><circle cx="3063.9983" cy="-1084.639" r="15.000002"/></clipPath><clipPath id="i"><circle cx="3063.9983" cy="-1084.639" r="15.000002"/></clipPath><clipPath id="j"><circle cx="3063.9983" cy="-1084.639" r="15.000002"/></clipPath><linearGradient id="k" gradientUnits="userSpaceOnUse" x1="216.99806" x2="36.99806" y1="240.9493" y2="10.9493"><stop offset="0" stop-color="#e6e6e6"/><stop offset="1" stop-color="#fff"/></linearGradient><linearGradient id="l" gradientTransform="matrix(1.004 0 0 1.0093981 64.493 1423.0381)" gradientUnits="userSpaceOnUse" x1="151.8994" x2="-27.383467" xlink:href="#b" y1="-1166.1295" y2="-1398.9415"/><path d="m39.93359.01172c-4.133 0-7.93359 3.68103-7.93359 8.11914v239.93945c0 3.86723 3.62281 7.92969 7.75781 7.92969h175.98438c4.627 0 8.25-3.86992 8.25-7.74414v-149.185546c0-4.224155-.512-6.181567-3.5-9.167969l-85.32227-85.283205c-2.988-2.9854-5.274-4.5253-9.5-4.5293l-85.73633-.0781zm122.8418.0371c-6.838 0-7.13748 7.11382-3.52148 10.74609v.002l53.18945 53.431644c4.34 4.357128 11.55273 3.321844 11.55273-3.550781v-52.431643c0-4.22715-3.82625-8.19726-8.03125-8.19726h-53.18945z" fill="url(#l)" stroke-width="15.997"/><path d="m43.99807 11.94922v232h168v-148l-86-84z" fill="url(#k)"/><path d="m43.99807 11.94922v232h168v-148l-86-84z" fill="url(#k)"/><g transform="translate(-718.00195 127.94922)"><path d="m780-28.003906v8h128v-8zm0 16v7.9999998h128v-7.9999998zm0 15.9999998v8.0000002h74.625c5.262-2.5468003 11.137-4.0000003 17.375-4.0000002 6.238 0 12.113 1.4532 17.375 4.0000002h18.625v-8.0000002zm92.01172 9.2128902a34.80015 34.80015 0 0 0 -34.80078 34.800782 34.80015 34.80015 0 0 0 34.80078 34.798828 34.80015 34.80015 0 0 0 34.79883-34.798828 34.80015 34.80015 0 0 0 -34.79883-34.800782zm-92.01172 6.78711v8h57.375c1.6874-2.9132 3.7209-5.6118 6.0625-8zm120.5625 0c2.3416 2.3882 4.3751 5.0868 6.0625 8h1.375v-8zm-120.5625 16v8h52.1875c.2758-2.7592.8797-5.435 1.6875-8zm0 16v8h53.875c-.8078-2.565-1.4117-5.2408-1.6875-8zm0 16v8h63.4375c-2.3416-2.3882-4.3751-5.0868-6.0625-8z" fill="url(#a)"/><g fill="none" stroke="#aadcf7" stroke-linecap="round"><path clip-path="url(#c)" d="m3066.2254-1069.3064c-2.0507-12.7551-13.5915-15.1323-19.2204-13.1889" stroke-width=".877032" transform="matrix(2.28122 0 0 2.27962 -6117.66 2520.1123)"/><g stroke-width=".866611"><path clip-path="url(#d)" d="m3068.184-1099.5366c-15.8287 5.5755-16.1955 20.8148-12.4084 27.5262" transform="matrix(2.30784 0 0 2.30784 -6199.2 2551.1683)"/><path clip-path="url(#e)" d="m3078.4656-1088.3913c-15.558-9.6896-30.2603-1.1652-34.1742 5.8114" transform="matrix(2.30784 0 0 2.30784 -6198.6 2549.2463)"/><path clip-path="url(#f)" d="m3062.7593-1100.0911c15.4435 6.5674 14.8438 21.7994 10.639 28.2572" transform="matrix(2.30784 0 0 2.30784 -6199.2 2551.1683)"/><path clip-path="url(#g)" d="m3072.4132-1068.2406c1.6468-20.2395-13.394-26.7448-21.8167-25.1165" transform="matrix(2.30784 0 0 2.30784 -6199.2 2551.1683)"/><path clip-path="url(#h)" d="m3085.0144-1076.9486c-15.8776-5.4349-25.6105 6.297-26.7982 13.9111" transform="matrix(2.30784 0 0 2.30784 -6199.2 2551.1683)"/><path clip-path="url(#i)" d="m3086.2173-1079.8642c-14.1391-9.0401-26.3732.053-29.3302 7.1696" transform="matrix(2.30784 0 0 2.30784 -6199.2 2551.1683)"/><path clip-path="url(#j)" d="m3078.5198-1092.1932c-16.7706-.6199-22.7025 13.4218-21.6414 21.0549" transform="matrix(2.30784 0 0 2.30784 -6199.2 2551.1683)"/></g></g></g></svg>