<svg height="256" width="256" xmlns="http://www.w3.org/2000/svg" xmlns:xlink="http://www.w3.org/1999/xlink"><linearGradient id="a" gradientTransform="translate(-718 129.94927)" gradientUnits="userSpaceOnUse" x1="933.15143" x2="755.43445" xlink:href="#b" y1="113.87027" y2="-114.25355"/><linearGradient id="b" gradientTransform="translate(0 20)" gradientUnits="userSpaceOnUse" x1="129" x2="103" y1="56" y2="24"><stop offset="0" stop-color="#535353"/><stop offset="1" stop-color="#767676"/></linearGradient><linearGradient id="c" gradientTransform="translate(-718 129.94927)" gradientUnits="userSpaceOnUse" x1="940.35327" x2="757.40125" xlink:href="#b" y1="119.7317" y2="-114.90993"/><linearGradient id="d" gradientUnits="userSpaceOnUse" x1="216.99996" x2="36.99996" y1="240.9493" y2="10.9493"><stop offset="0" stop-color="#e6e6e6"/><stop offset="1" stop-color="#fff"/></linearGradient><linearGradient id="e" gradientTransform="matrix(1.004 0 0 1.0093981 64.493 1423.0382)" gradientUnits="userSpaceOnUse" x1="151.8994" x2="-27.383467" y1="-1166.1295" y2="-1398.9415"><stop offset="0" stop-color="#a33e03"/><stop offset="1" stop-color="#d36118"/></linearGradient><linearGradient id="f" gradientTransform="matrix(1.004 0 0 1.0093981 64.493 1423.0382)" gradientUnits="userSpaceOnUse" x1="151.8994" x2="-27.383467" y1="-1166.1295" y2="-1398.9415"><stop offset="0" stop-color="#535353"/><stop offset="1" stop-color="#7e7e7e"/></linearGradient><path d="m39.9335.01172c-4.133 0-7.9335 3.68103-7.9335 8.11914v239.93945c0 3.86723 3.6228 7.92969 7.7578 7.92969h175.9843c4.627 0 8.25-3.86992 8.25-7.74414v-149.185546c0-4.224155-.512-6.181567-3.5-9.167969l-85.3222-85.283205c-2.988-2.9854-5.274-4.5253-9.5-4.5293l-85.7364-.0781z" fill="url(#f)" stroke-width="15.997"/><path d="m162.7753.04882c-6.838 0-7.1374 7.11382-3.5214 10.74609v.002l53.1894 53.431644c4.34 4.357128 11.5527 3.321844 11.5527-3.550781v-52.431643c0-4.22715-3.8262-8.19726-8.0312-8.19726h-53.1895z" fill="url(#e)" stroke-width="15.997"/><path d="m44 11.94922v232h168v-148l-86-84z" fill="url(#d)"/><path id="g" d="m122.2422 194.94927v4l-24.2422 16h11.7578l20.2422-16h2.7578v-4z" fill="#646464"/><path d="m128 146.94927v36h52v-36zm3 3h46v30h-46zm3 5v2h40v-2zm0 6v2h40v-2zm0 6v2h40v-2zm0 5v2h40v-2z" fill="url(#c)"/><path d="m170.9707 154.4356a1.50015 1.50015 0 0 0 -1.0312.45312l-13.9395 13.93946-6.9394-6.93946a1.50015 1.50015 0 0 0 -2.1211 0l-11 11a1.50015 1.50015 0 1 0 2.1211 2.1211l9.9394-9.93946 6.9395 6.93946a1.50015 1.50015 0 0 0 2.121 0l15-15a1.50015 1.50015 0 0 0 -1.0898-2.57422z" fill="#4a4a4a"/><use fill="#646464" height="1085" transform="matrix(-1 0 0 1 255.001 0)" width="5033" xlink:href="#g"/><path d="m65 107.94927c-.554 0-1 .446-1 1v86c0 .554.446 1 1 1h126c .554 0 1-.446 1-1v-86c0-.554-.446-1-1-1zm4 3h118c1.108 0 2 .892 2 2v78c0 1.108-.892 2-2 2h-118c-1.108 0-2-.892-2-2v-78c0-1.108.892-2 2-2zm7 7v9h104v-9zm20 14v7h64v-7zm-17 15c-1.6568 0-3 1.34315-3 3s1.3432 3 3 3c1.6569 0 3-1.34315 3-3s-1.3431-3-3-3zm9 0v6h30v-6zm-9 10c-1.6568 0-3 1.34315-3 3s1.3432 3 3 3c1.6569 0 3-1.34315 3-3s-1.3431-3-3-3zm9 0v6h30v-6zm-9 10c-1.6568 0-3 1.34315-3 3s1.3432 3 3 3c1.6569 0 3-1.34315 3-3s-1.3431-3-3-3zm9 0v6h30v-6zm-9 10c-1.6568 0-3 1.34315-3 3s1.3432 3 3 3c1.6569 0 3-1.34315 3-3s-1.3431-3-3-3zm9 0v6h30v-6z" fill="url(#a)"/></svg>