<svg height="256" width="256" xmlns="http://www.w3.org/2000/svg" xmlns:xlink="http://www.w3.org/1999/xlink"><linearGradient id="a" gradientTransform="matrix(15.9995 0 0 15.9955 -1038.94 -17312.2)" gradientUnits="userSpaceOnUse" x1="74.178" x2="74.178" y1="992.75" y2="1008.755"><stop offset="0" stop-color="#a33e03"/><stop offset="1" stop-color="#622502"/></linearGradient><linearGradient id="b" gradientUnits="userSpaceOnUse" x1="772.504" x2="772.504" y1="-1449.21" y2="-1677.634"><stop offset="0" stop-color="#fff" stop-opacity=".85"/><stop offset="1" stop-color="#fff" stop-opacity=".9"/></linearGradient><radialGradient id="c" cx="152.333" cy="-754.638" gradientTransform="matrix(0 .1692 -.8354 0 197.03 -1517.95)" gradientUnits="userSpaceOnUse" r="15"><stop offset="0" stop-opacity=".502"/><stop offset="1" stop-opacity="0"/></radialGradient><linearGradient id="d" gradientUnits="userSpaceOnUse" x1="850.25" x2="850.25" y1="-1506.575" y2="-1510.583"><stop offset="0" stop-color="#808080"/><stop offset="1" stop-color="#333"/></linearGradient><linearGradient id="e" gradientTransform="matrix(1.6667 0 0 7 -91.667 9465.83)" gradientUnits="userSpaceOnUse" x1="529.25" x2="535" y1="-1568.638" y2="-1574.638"><stop offset="0" stop-color="#f00"/><stop offset="1" stop-color="#ffc600" stop-opacity="0"/></linearGradient><linearGradient id="f" gradientUnits="userSpaceOnUse" x1="825.25" x2="825.25" y1="-1559.638" y2="-1525.638"><stop offset="0" stop-color="#b84603"/><stop offset="1" stop-color="#622502"/></linearGradient><linearGradient id="g" gradientTransform="matrix(.286 0 0 1 857.864 -364)" gradientUnits="userSpaceOnUse" x1="-17" x2="144" xlink:href="#m" y1="-1194.638" y2="-1194.638"/><linearGradient id="h" gradientTransform="matrix(.1863 0 0 1 813.168 -365)" gradientUnits="userSpaceOnUse" x1="-17" x2="144" xlink:href="#m" y1="-1194.638" y2="-1194.638"/><linearGradient id="i" gradientTransform="matrix(.5093 0 0 1 -1588.98 403.638)" gradientUnits="userSpaceOnUse" x1="-17" x2="144" y1="-1194.638" y2="-1194.638"><stop offset="0" stop-color="#d40000" stop-opacity="0"/><stop offset=".493" stop-color="#d40000"/><stop offset="1" stop-color="#d40000" stop-opacity="0"/></linearGradient><linearGradient id="j"><stop offset="0" stop-color="#e67325"/><stop offset="1" stop-color="#c8400c"/></linearGradient><linearGradient id="k"><stop offset="0" stop-color="#fff" stop-opacity="0"/><stop offset=".493" stop-color="#fff"/><stop offset="1" stop-color="#fff" stop-opacity="0"/></linearGradient><linearGradient id="l"><stop offset="0"/><stop offset="1" stop-opacity="0"/></linearGradient><linearGradient id="m"><stop offset="0" stop-opacity="0"/><stop offset=".493"/><stop offset="1" stop-opacity="0"/></linearGradient><linearGradient id="n"><stop offset="0"/><stop offset=".455" stop-opacity=".361"/><stop offset="1" stop-opacity="0"/></linearGradient><radialGradient id="o" cx="152.333" cy="-754.638" gradientTransform="matrix(0 .2707 -4.0434 0 -2201.98 -1535.94)" gradientUnits="userSpaceOnUse" r="15"><stop offset="0" stop-color="#808080" stop-opacity=".502"/><stop offset="1" stop-opacity="0"/></radialGradient><linearGradient id="p" gradientTransform="matrix(2.0333 0 0 2.0476 -752.267 686.81)" gradientUnits="userSpaceOnUse" x1="809.625" x2="809.625" y1="-1074.763" y2="-1116.764"><stop offset="0" stop-color="#d36118"/><stop offset="1" stop-color="#f09e6f"/></linearGradient><linearGradient id="q" gradientTransform="matrix(2.0333 0 0 2.15 -752.267 798.982)" gradientUnits="userSpaceOnUse" x1="812" x2="812" y1="-1075.638" y2="-1115.638"><stop offset="0" stop-color="#edbfa1"/><stop offset="1" stop-color="#fdf1ea"/></linearGradient><radialGradient id="r" cx="-1535.455" cy="-853" gradientTransform="matrix(-3.3157 0 0 -3.2 -6604.01 -3579.6)" gradientUnits="userSpaceOnUse" r="10"><stop offset="0" stop-color="#fff"/><stop offset="1" stop-color="#ffd5d5" stop-opacity="0"/></radialGradient><linearGradient id="s" gradientUnits="userSpaceOnUse" x1="895.5" x2="895.5" xlink:href="#j" y1="647.812" y2="735.75"/><linearGradient id="t" gradientUnits="userSpaceOnUse" x1="798.245" x2="902" y1="-1589.138" y2="-1589.138"><stop offset="0" stop-color="#8e2103"/><stop offset=".169" stop-color="#e46f1f"/><stop offset=".838" stop-color="#e66d20"/><stop offset="1" stop-color="#922504"/></linearGradient><linearGradient id="u" gradientUnits="userSpaceOnUse" x1="902.25" x2="902.25" y1="-1534.416" y2="-1524.357"><stop offset="0" stop-color="#808080"/><stop offset="1" stop-color="#606060"/></linearGradient><linearGradient id="v" gradientTransform="matrix(1.1795 0 0 1.5 10.846 67.82)" gradientUnits="userSpaceOnUse" x1="714" x2="714" y1="-1063.638" y2="-1079.16"><stop offset="0" stop-color="#fff" stop-opacity="0"/><stop offset="1" stop-color="#fff" stop-opacity=".863"/></linearGradient><linearGradient id="w" gradientUnits="userSpaceOnUse" x1="880" x2="860" y1="-1552.638" y2="-1528.638"><stop offset="0" stop-color="#18a303"/><stop offset="1" stop-color="#106802"/></linearGradient><linearGradient id="x" gradientUnits="userSpaceOnUse" x1="818.035" x2="882.237" y1="-1575.703" y2="-1575.703"><stop offset="0" stop-color="#8e2103"/><stop offset=".169" stop-color="#e45c1f"/><stop offset=".838" stop-color="#e45c1f"/><stop offset="1" stop-color="#922504"/></linearGradient><linearGradient id="y" gradientTransform="matrix(.7267 0 0 1 802.354 -405)" gradientUnits="userSpaceOnUse" x1="-17" x2="144" xlink:href="#k" y1="-1194.638" y2="-1194.638"/><linearGradient id="z" gradientUnits="userSpaceOnUse" x1="895.5" x2="895.5" xlink:href="#j" y1="621.562" y2="709.5"/><linearGradient id="A" gradientUnits="userSpaceOnUse" x1="895.5" x2="895.5" xlink:href="#j" y1="595.312" y2="683.25"/><linearGradient id="B" gradientUnits="userSpaceOnUse" x1="895.5" x2="895.5" xlink:href="#j" y1="569.062" y2="657"/><linearGradient id="C" gradientTransform="matrix(.646 0 0 1 808.98 -396)" gradientUnits="userSpaceOnUse" x1="-17" x2="144" xlink:href="#m" y1="-1194.638" y2="-1194.638"/><linearGradient id="D" gradientTransform="matrix(.3975 0 0 1 824.758 -386)" gradientUnits="userSpaceOnUse" x1="-17" x2="144" xlink:href="#m" y1="-1194.638" y2="-1194.638"/><linearGradient id="E" gradientTransform="matrix(.7205 0 0 1 804.248 -319)" gradientUnits="userSpaceOnUse" x1="-17" x2="144" xlink:href="#m" y1="-1194.638" y2="-1194.638"/><linearGradient id="F" gradientTransform="matrix(.286 0 0 1 858.013 -333.937)" gradientUnits="userSpaceOnUse" x1="-17" x2="144" xlink:href="#k" y1="-1194.638" y2="-1194.638"/><linearGradient id="G" gradientUnits="userSpaceOnUse" x1="864" x2="876" y1="-1528.638" y2="-1540.638"><stop offset="0" stop-color="#78db67"/><stop offset="1" stop-color="#ccf4c6"/></linearGradient><linearGradient id="H" gradientTransform="matrix(15.958 0 0 16.0248 -3917.13 -5573.42)" gradientUnits="userSpaceOnUse" x1="294.343" x2="294.418" y1="256.581" y2="243.139"><stop offset="0" stop-color="#999"/><stop offset="1" stop-color="#e6e6e6"/></linearGradient><linearGradient id="I" gradientUnits="userSpaceOnUse" x1="-761.998" x2="-791.749099" xlink:href="#n" y1="-1451.653959" y2="-1481.405058"/><linearGradient id="J" gradientTransform="matrix(.621 0 0 1 811.56 -257)" gradientUnits="userSpaceOnUse" x1="-17" x2="144" xlink:href="#m" y1="-1194.638" y2="-1194.638"/><linearGradient id="K" gradientTransform="matrix(1.4162 0 0 1 -1655.56 432.64)" gradientUnits="userSpaceOnUse" x1="-17" x2="144" xlink:href="#m" y1="-1194.638" y2="-1194.638"/><linearGradient id="L" gradientTransform="matrix(.867 0 0 1 -1578 245.64)" gradientUnits="userSpaceOnUse" x1="-17" x2="144" xlink:href="#m" y1="-1194.638" y2="-1194.638"/><linearGradient id="M" gradientTransform="matrix(.621 0 0 1 811.56 -251)" gradientUnits="userSpaceOnUse" x1="-17" x2="144" xlink:href="#m" y1="-1194.638" y2="-1194.638"/><linearGradient id="N" gradientUnits="userSpaceOnUse" x1="762.867" x2="787.102" xlink:href="#l" y1="-1452.821" y2="-1477.056"/><linearGradient id="O" gradientTransform="matrix(1 0 0 -1 396 -1379.64)" gradientUnits="userSpaceOnUse" x1="364.867" x2="389.102" xlink:href="#l" y1="300.819" y2="276.584"/><linearGradient id="P" gradientTransform="matrix(.524 0 0 1 -553.45 -606.16)" gradientUnits="userSpaceOnUse" x1="-17" x2="144" xlink:href="#m" y1="-1194.638" y2="-1194.638"/><linearGradient id="Q" gradientTransform="matrix(.524 0 0 1 -554.16 -598.383)" gradientUnits="userSpaceOnUse" x1="-17" x2="144" xlink:href="#m" y1="-1194.638" y2="-1194.638"/><linearGradient id="R" gradientTransform="matrix(.524 0 0 1 -554.16 -626.667)" gradientUnits="userSpaceOnUse" x1="-17" x2="144" xlink:href="#m" y1="-1194.638" y2="-1194.638"/><linearGradient id="S" gradientTransform="matrix(1.4162 0 0 1 -1655.56 438.64)" gradientUnits="userSpaceOnUse" x1="-17" x2="144" xlink:href="#m" y1="-1194.638" y2="-1194.638"/><linearGradient id="T" gradientTransform="matrix(.899 0 0 1 -1580.99 2136.64)" gradientUnits="userSpaceOnUse" x1="-17" x2="144" xlink:href="#m" y1="-1194.638" y2="-1194.638"/><linearGradient id="U" gradientUnits="userSpaceOnUse" x1="942.002" x2="912.250901" xlink:href="#n" y1="-1451.653959" y2="-1481.405058"/><linearGradient id="V" gradientTransform="matrix(-1 0 0 1 1306 -1753.64)" gradientUnits="userSpaceOnUse" x1="364.867" x2="389.102" xlink:href="#l" y1="300.819" y2="276.584"/><g transform="translate(-724.9995 1693.638)"><text x="382.125" y="-1109.14"/><g fill="url(#a)" stroke-width="2" transform="matrix(1 0 0 .9998 788.994 -261.184)"><path d="m-39.993-1184.568c0 3.868 3.622 7.93 7.757 7.93h191.986c4.627 0 8.25-3.87 8.25-7.745v-149.215c0-4.225-.512-6.183-3.5-9.17l-85.324-85.3c-2.988-2.986-5.274-4.526-9.5-4.53l-101.736-.08c-4.133 0-7.933 3.683-7.933 8.122z" fill="url(#a)"/><path d="m103.26-1421.89 53.19 53.442c4.34 4.358 11.554 3.324 11.554-3.55v-52.443c0-4.228-3.827-8.198-8.032-8.198h-53.19c-6.838 0-7.138 7.115-3.522 10.748z" fill="url(#a)"/></g><g transform="translate(1)"><path d="m762-1677.53v226h180v-140.44c-28.986-29.2-58.078-58.297-87-87.56h-93z" fill="url(#b)"/><path d="m756-1683.638v238h192v-151.406c-29.383-29.502-58.745-59.027-88.063-88.594h-103.937z" fill="url(#H)"/><path d="m762-1677.53v226h180v-140.44c-28.986-29.2-58.078-58.297-87-87.56h-93z" fill="url(#b)"/></g><path d="m757-1685.638v240h192v-151.406c-29.383-29.502-58.745-59.027-88.063-88.594zm1 1h102.5c29.148 29.362 58.296 58.725 87.5 88.03v149.97h-190z" fill="#fff" opacity=".15"/><path d="m-826-1515.638h64v64h-64z" fill="url(#I)" opacity=".15" transform="matrix(-1 0 0 1 1 0)"/><path d="m801-1451.638h100v1h-100z" fill="url(#J)" opacity=".2" transform="translate(1)"/><path d="m-1679.638-762h228v1h-228z" fill="url(#K)" opacity=".2" transform="matrix(0 1 -1 0 1 0)"/><path d="m-1592.742-949h139.604v1h-139.604z" fill="url(#L)" opacity=".5" transform="matrix(0 1 -1 0 1 0)"/><g transform="translate(1)"><path d="m801-1445.638h100v1h-100z" fill="url(#M)" opacity=".5"/><path d="m763-1502.638v50h50v-1h-49v-49z" fill="url(#N)" opacity=".15"/><path d="m761-1630.638v-50h50v1h-49v49z" fill="url(#O)" opacity=".1"/></g><path d="m-562.362-1800.8h84.375v1h-84.375z" fill="url(#P)" opacity=".4" transform="matrix(.70710678 .70710678 -.70710678 .70710678 .999924 -.000031)"/><path d="m-563.07-1793.02h84.376v1h-84.375z" fill="url(#Q)" opacity=".1" transform="matrix(.70710678 .70710678 -.70710678 .70710678 .999924 -.000031)"/><path d="m-563.07-1821.306h84.376v1h-84.375z" fill="url(#R)" opacity=".4" transform="matrix(.70710678 .70710678 -.70710678 .70710678 .999924 -.000031)"/><path d="m-1679.638-756h228v1h-228z" fill="url(#S)" opacity=".5" transform="matrix(0 1 -1 0 1 0)"/><path d="m-1596.276 942h144.745v1h-144.746z" fill="url(#T)" opacity=".2" transform="matrix(0 1 1 0 1 0)"/><g transform="translate(1)"><path d="m878-1515.638h64v64h-64z" fill="url(#U)" opacity=".15"/><path d="m941-1502.638v50h-50v-1h49v-49z" fill="url(#V)" opacity=".15"/><path id="W" d="m815-1494.638h25v5h-25z" fill="url(#c)" opacity=".5"/><path d="m789-1498.638h121v8h-121z" fill="url(#o)" opacity=".4"/><path id="X" d="m846.242-1508.638-24.242 16h9.77l3.397-1.114 18.833-14.886z" fill="#4d4d4d"/><use height="1085" transform="matrix(-1 0 0 1 1699 0)" width="5033" xlink:href="#X"/><path d="m854-1508.638 24 16h-10.01l-3.087-.878-18.903-15.122z" fill="#4d4d4d"/><path id="Y" d="m844.242-1508.638-24.242 16h11.758l20.242-16z" fill="url(#d)"/><path d="m844-1512.638h12v6h-12z" fill="url(#d)"/><rect fill="#a33e03" height="92" rx="1" width="128" x="786" y="-1602.6379"/><rect fill="url(#p)" height="86" rx="2" width="122" x="789" y="-1599.6379"/><rect fill="url(#q)" height="86" rx="2" width="122" x="789" y="-1599.6379"/><rect id="Z" fill="url(#e)" height="84" opacity=".35" rx="2" stroke-width="15.997" width="20" x="790" y="-1598.6379"/><path d="m850-1559.638h52v36h-52z" fill="#fff" opacity=".5"/><path d="m-1545.638-882h32v64h-32z" fill="url(#r)" transform="rotate(90)"/><path d="m810-1558.638h30v4h-30zm0 10h30v4h-30zm0 10h30v4h-30zm0 10h30v4h-30z" fill="#fff" opacity=".5"/><path d="m810-1559.638h30v4h-30z" fill="url(#f)"/><g fill="#fff"><ellipse cx="895.5" cy="651.75" rx="5.5" ry="5.25" transform="matrix(.3636 0 0 .381 476.364 -1794.92)"/><ellipse cx="895.5" cy="651.75" rx="5.5" ry="5.25" transform="matrix(.3636 0 0 .381 476.364 -1784.92)"/><ellipse cx="895.5" cy="651.75" rx="5.5" ry="5.25" transform="matrix(.3636 0 0 .381 476.364 -1804.92)"/><ellipse cx="895.5" cy="651.75" rx="5.5" ry="5.25" transform="matrix(.3636 0 0 .381 476.364 -1774.92)"/></g><ellipse cx="895.5" cy="651.75" fill="url(#s)" rx="5.5" ry="5.25" transform="matrix(.3636 0 0 .381 476.364 -1805.92)"/><path d="m798-1589.638h104v5h-104z" fill="#fff"/><path d="m798-1590.638h104v5h-104z" fill="url(#t)"/><path d="m850-1560.638h52v36h-52z" fill="url(#u)"/><path d="m853-1557.638h46v30h-46z" fill="#dfdfdf"/><path d="m853-1557.638h46v30h-46z" fill="url(#v)"/><path id="aa" d="m856-1552.638h40v2h-40z" opacity=".05"/><path d="m859-1533.638 11-11 8 8 15-15" fill="none" stroke="url(#w)" stroke-linecap="round" stroke-linejoin="round" stroke-width="3"/><path d="m818-1579.638h64v5h-64z" fill="#fff"/><path d="m818-1580.638h64v5h-64z" fill="url(#x)"/><path d="m790-1599.638h117v1h-117z" fill="url(#y)"/><path d="m810-1549.638h30v4h-30z" fill="url(#f)"/><ellipse cx="895.5" cy="651.75" fill="url(#z)" rx="5.5" ry="5.25" transform="matrix(.3636 0 0 .381 476.364 -1795.92)"/><path d="m810-1539.638h30v4h-30z" fill="url(#f)"/><ellipse cx="895.5" cy="651.75" fill="url(#A)" rx="5.5" ry="5.25" transform="matrix(.3636 0 0 .381 476.364 -1785.92)"/><path d="m810-1529.638h30v4h-30z" fill="url(#f)"/><ellipse cx="895.5" cy="651.75" fill="url(#B)" rx="5.5" ry="5.25" transform="matrix(.3636 0 0 .381 476.364 -1775.92)"/><path d="m798-1590.638h104v1h-104z" fill="url(#C)" opacity=".25"/><path d="m818-1580.638h64v1h-64z" fill="url(#D)" opacity=".5"/><path d="m792-1513.638h116v1h-116z" fill="url(#E)" opacity=".5"/><path id="ab" d="m853-1558.638h46.063v1h-46.063z" fill="url(#g)" opacity=".25"/><path d="m853.15-1528.575h46.063v1h-46.063z" fill="url(#F)"/><path id="ac" d="m810-1559.638h30v1h-30z" fill="url(#h)" opacity=".25"/><path id="ad" d="m-1597.638-791h82v1h-82z" fill="url(#i)" opacity=".15" transform="rotate(90)"/><use height="1085" transform="translate(119)" width="5033" xlink:href="#ad"/><use height="1085" transform="matrix(-1 0 0 1 1700 0)" width="5033" xlink:href="#Z"/><use height="1085" transform="translate(0 10)" width="5033" xlink:href="#ac"/><use height="1085" transform="translate(0 20)" width="5033" xlink:href="#ac"/><use height="1085" transform="translate(0 30)" width="5033" xlink:href="#ac"/><use height="1085" transform="translate(0 31)" width="5033" xlink:href="#ab"/><use height="1085" transform="translate(0 6)" width="5033" xlink:href="#aa"/><use height="1085" transform="translate(0 12)" width="5033" xlink:href="#aa"/><use height="1085" transform="translate(0 17)" width="5033" xlink:href="#aa"/><path d="m859-1533.638 11-11 8 8 15-15" fill="none" stroke="url(#G)" stroke-linecap="round" stroke-linejoin="round" stroke-width="1.5"/><use height="1085" transform="matrix(-1 0 0 1 1699 0)" width="5033" xlink:href="#W"/><use height="1085" transform="matrix(-1 0 0 1 1699 0)" width="5033" xlink:href="#Y"/></g></g></svg>