<svg height="96" viewBox="0 0 96 96" width="96" xmlns="http://www.w3.org/2000/svg"><g fill="#2e3436"><path d="m20.31752 48.862308-1.085734 5.026545h8.625551l-.341805 1.648707h-10.515532l3.116458-14.657404h10.173726l-.341805 1.648706h-8.283745l-1.005309 4.68474h7.962047l-.361912 1.648706z" opacity=".5"/><path d="m40 46v2h-10v-2zm0 4v2h-10v-2z" opacity=".5"/><path d="m54.68369 44.700329q1.36722 0 1.9503.723823.603185.723822.603185 1.507963 0 .442336-.120637 1.10584l-1.588388 7.499605h-1.688919l1.447645-6.856207q.180955-.864566.180955-.985203 0-.723822-.42223-1.125946-.402123-.42223-1.105839-.42223-1.085734 0-1.990512.804247-.904778.784141-1.166158 1.970406l-1.407433 6.614933h-1.688919l1.548176-7.258331q.08042-.341805.08042-.743928 0-.623292-.462442-1.005309-.442336-.382018-1.186265-.382018-1.005309 0-1.910087.824354-.884672.804247-1.125946 1.950299l-1.407427 6.614933h-1.688919l2.231785-10.535638h1.52807l-.26138 1.306902q.965096-.904778 1.749237-1.246583.804247-.361912 1.829662-.361912 1.9503 0 2.432848 1.668813 1.729131-1.668813 3.639218-1.668813z" opacity=".5"/><path d="m64.181973 46.248505q-2.171467 0-2.754546 1.869875h-1.688919q.281486-1.668813 1.528069-2.533379 1.26669-.884672 3.357732-.884672 1.588388 0 2.533379.623292.965096.623291.965096 1.648707 0 .201061-.120637.743928l-1.286795 6.05196q-.02011.06032-.02011.201062 0 .583079.764035.583079.16085 0 .341805-.04021l-.26138 1.306902q-.160849.02011-.361911.06032-.201062.06032-.361911.08042-.140744.04021-.341805.04021-.663504 0-1.045522-.341805-.361911-.341805-.42223-.623292-.06032-.281486-.06032-.583079-.02011.02011-.180956.160849-.140743.120637-.221168.180956-.06032.04021-.241274.180956-.180955.140743-.301592.221167-.120637.06032-.361912.201062-.221168.120637-.422229.180956-.180956.08042-.462442.160849-.281487.100531-.562973.140744-.261381.06032-.603186.08042-.321699.04021-.68361.04021-1.347114 0-2.131255-.68361-.764035-.683611-.764035-1.889981 0-1.387327 1.085734-2.47306 1.10584-1.10584 3.699537-1.347114.241274-.02011.804247-.06032.562973-.04021.784141-.06032.241274-.04021.623291-.120637.402124-.08043.58308-.201062.201061-.120637.382017-.341805.180956-.221168.241274-.542867l.06032-.361911q.04021-.321699.04021-.442336 0-.542867-.603185-.884672-.603186-.341805-1.52807-.341805zm1.588388 4.101661q-.583079.201061-1.78945.402123-1.20637.180956-2.030724.341805-.824353.140743-1.507963.68361-.663504.542867-.663504 1.447645 0 .643398.462442.985203.462442.341805 1.327008.341805 1.327008 0 2.452954-.68361 1.146052-.703717 1.347114-1.628601z" opacity=".5"/><path d="m69.982509 35.212738c.06099-2.143319 1.08037-3.214978 3.05815-3.214978.87998 0 1.59442.252668 2.143319.758003s.823348 1.158786.823348 1.960352c0 1.150074-.507326 1.783885-2.007326 3.283885l-2.417327 2.843612c-.243955.287518-.396427.627312-.457416 1.019383h4.874743v1.137005h-6.168575c.05227-1.019383.257021-1.803524.614243-2.352423l3.054332-3.647577c1-1 1.331114-1.517169 1.331114-2.257747 0-.496623-.174254-.910475-.522761-1.241556-.348507-.331082-.78414-.496623-1.306901-.496623-1.158786 0-1.781743.736221-1.86887 2.208664z" opacity=".5"/><path d="m50.998048 90.015619c0-.255923-.0977-.511768-.292952-.70703-.390519-.390525-1.023541-.390525-1.414061 0l-.291023.277345v-.585939l-.000009-10.499994c0-.552285-.447712-1-.999999-1.000001-.552284-.000001-1.000004.447715-1.000003 1.000001l.000009 10.499994v.585938l-.291023-.277346c-.39052-.390524-1.023542-.390524-1.414061 0-.195251.195262-.292989.451109-.292989.707032 0 .255912.0977.511771.292989.707029l1.291015 1.277348.673829.671872.02343.02532c.188258.193549.446789.30274.716791.30274.27001-.000004.528533-.109191.716799-.30274l.02343-.02532.673829-.671872 1.291015-1.277344c.19525-.19525.292951-.451109.292951-.707033z"/><path d="m50.998054 66.984381c0 .255923-.0977.511769-.292952.707031-.390519.390524-1.023541.390524-1.414061 0l-.291023-.277346v.58594l-.000015 10.500007c-.000001.552284-.447712 1-.999999 1-.552284.000002-1.000004-.447714-1.000003-1l.000015-10.500007v-.585938l-.291023.277345c-.39052.390524-1.023542.390524-1.414061 0-.195251-.195262-.292989-.451109-.292989-.707031 0-.255923.0977-.511771.292989-.707031l1.291015-1.277346.673829-.671874.02343-.0254c.188261-.193537.446792-.302728.716794-.302731.27001.000004.528533.109198.716799.302732l.02343.0254.673829.671874 1.291015 1.277345c.19525.195261.292951.451109.292951.707031z"/><g stroke-linecap="square" stroke-opacity=".566502" stroke-width=".999999"><path d="m61.000004 62.5v1.000001c0 .277001-.222992.499999-.500001.499999h-23.999998c-.277002 0-.500001-.222999-.500001-.499999v-1.000001c0-.277001.222992-.499999.500001-.499999h23.999998c.277001 0 .500001.222999.500001.499999z"/><path d="m60.999998 93.5v1.000003c0 .277001-.222992.499997-.499998.499997h-24.000001c-.277002 0-.500001-.222992-.500001-.499997v-1.000003c0-.277002.222992-.500001.500001-.500001h24.000001c.277002 0 .499998.222992.499998.500001z"/></g></g></svg>