<svg height="12" viewBox="0 0 12 12" width="12" xmlns="http://www.w3.org/2000/svg" xmlns:xlink="http://www.w3.org/1999/xlink"><linearGradient id="a"><stop offset="0" stop-color="#fff"/><stop offset="1" stop-color="#fff" stop-opacity="0"/></linearGradient><radialGradient id="b" cx="99.58271" cy="28.735107" gradientTransform="matrix(1.9646726 .00000034 -.00000104 5.9752716 -189.64739 -168.17936)" gradientUnits="userSpaceOnUse" r="3.015625" xlink:href="#a"/><linearGradient id="c"><stop offset="0" stop-color="#001400"/><stop offset="1" stop-color="#001400" stop-opacity="0"/></linearGradient><linearGradient id="d" gradientUnits="userSpaceOnUse" x1="13.325795" x2="13.325795" y1="-6.268635" y2="10.749865"><stop offset="0" stop-color="#c2e2f4"/><stop offset="1" stop-color="#c0e0f2" stop-opacity="0"/></linearGradient><radialGradient id="e" cx="6" cy="7" gradientTransform="matrix(1.25 -.25 .19611614 .98058068 -2.872813 1.635935)" gradientUnits="userSpaceOnUse" r="4" xlink:href="#c"/><filter id="f" color-interpolation-filters="sRGB" height="1.048" width="1.048" x="-.024" y="-.024"><feGaussianBlur stdDeviation=".08"/></filter><radialGradient id="g" cx="6" cy="1" gradientTransform="matrix(1.8439089 -.92195443 .75000001 1.5 -5.813453 5.031727)" gradientUnits="userSpaceOnUse" r="4" xlink:href="#a"/><radialGradient id="h" cx="6" cy="8" gradientTransform="matrix(1.7950549 -.00000013 .00000008 1 -4.77033 .000001)" gradientUnits="userSpaceOnUse" r="3"><stop offset="0" stop-color="#9abcee"/><stop offset="1" stop-color="#092042"/></radialGradient><linearGradient id="i" gradientUnits="userSpaceOnUse" x1="7.5" x2="8" y1="10.5" y2="3"><stop offset="0" stop-color="#a8dde0"/><stop offset="1" stop-color="#a8dde0" stop-opacity=".205714"/></linearGradient><filter id="j" color-interpolation-filters="sRGB" height="1.024" width="1.024" x="-.012" y="-.012"><feGaussianBlur stdDeviation=".03"/></filter><radialGradient id="k" cx="6.5" cy="9.5" gradientUnits="userSpaceOnUse" r="4" xlink:href="#c"/><linearGradient id="l" gradientUnits="userSpaceOnUse" x1="10.5" x2="10.5" y1="9.5" y2="1.5"><stop offset="0" stop-color="#0c1f39"/><stop offset="1" stop-color="#204d90"/></linearGradient><filter id="m" color-interpolation-filters="sRGB" height="1.122998" width="1.082001" x="-.041001" y="-.061499"><feGaussianBlur stdDeviation=".15587794"/></filter><circle cx="6" cy="6" fill="url(#l)" r="4"/><path d="m5.9453224 2.4920981c-.149888-.0024 0 0-.4375.03125-2.3352389-1.2889017-8.5475684 2.7637578-8.4776095 3.9357702l5.9283076 1.6238408c.110915-.113676 3.3058394-.285679 3.3929724-.375l2.1246821.375 5.720354-2.5517498c-.457271-1.7509563-5.7323418-3.6761372-8.2512066-3.0391112z" fill="url(#b)" filter="url(#m)" opacity=".77619" transform="matrix(.32878735 0 0 .32878735 4.027276 1.342425)"/><circle cx="6" cy="6" fill="url(#g)" opacity=".19" r="4"/><circle cx="6" cy="6" fill="none" filter="url(#f)" r="4" stroke="url(#e)" stroke-linecap="round"/><circle cx="6" cy="6" fill="url(#k)" r="4"/><circle cx="6" cy="6" fill="url(#h)" r="3"/><circle cx="6" cy="6" fill="none" filter="url(#j)" r="3" stroke="url(#i)" stroke-linecap="round" stroke-width=".3"/><path d="m6 3a3 3 0 0 0 -3 3 3 3 0 0 0 .0351562.4375c2.0568833-.0988102 4.0414988-.3231477 5.9570313-.6347656a3 3 0 0 0 -2.9921875-2.8027344z" fill="url(#d)" stroke-width=".258122"/></svg>