<svg xmlns="http://www.w3.org/2000/svg" viewBox="0 0 24 24">
 <path
     style="fill:#4d4d4d"
     d="m 6.2927266,5 -3.6464844,3.6464844 0.7070312,0.7070312 3.6464844,-3.6464844 0,13.2929688 1,0 0,-14 -1,0 z M 16.499032,5 c -1.932997,0 -3.5,1.7909 -3.5,4 l 0,6 c 0,2.2091 1.567003,4 3.5,4 1.932997,0 3.5,-1.7909 3.5,-4 l 0,-6 c 0,-2.2091 -1.567003,-4 -3.5,-4 z m 0,1 c 1.380712,0 2.5,1.3431 2.5,3 l 0,6 c 0,1.6569 -1.119288,3 -2.5,3 -1.380712,0 -2.5,-1.3431 -2.5,-3 l 0,-6 c 0,-1.6569 1.119288,-3 2.5,-3 z M 9.999516,17 10,19 l 1.999516,0 -4.84e-4,-2 z"
     />
 </svg>
