<svg height="16" viewBox="0 0 4.2333333 4.2333335" width="16" xmlns="http://www.w3.org/2000/svg" xmlns:xlink="http://www.w3.org/1999/xlink"><linearGradient id="a" gradientUnits="userSpaceOnUse" x1="5.294767" x2="23.980448" y1="11.314813" y2="11.314813"><stop offset="0" stop-color="#3b3e22"/><stop offset="1" stop-color="#454545" stop-opacity="0"/></linearGradient><linearGradient id="b" gradientUnits="userSpaceOnUse" x1="14.472697" x2="15.693854" y1="31.629957" y2="3.543321"><stop offset="0" stop-color="#555"/><stop offset="1"/></linearGradient><g transform="scale(.125)"><path d="m22.596454 4.9659842q0-.8120701-.726589-1.0257727-.683849-.2564432-2.906357-.3846648v-1.0685133h12.352014v1.0685133q-3.120059.2564432-5.428047 1.8805834-2.265249 1.6241402-8.291664 7.8215169l13.035863 16.155921q.726589.854811 2.094286.897552v1.068513h-14.360819v-1.068513q.598367-.04274 1.367697-.04274 2.008805-.128221 2.008805-.854811 0-.598367-1.025773-1.880583l-7.778777-9.702101-1.153994 1.068514v8.377144q0 1.5814.726589 2.179767.726589.555627 3.034578.854811v1.068513h-14.4035594v-1.068514q2.3079888-.256444 2.9918373-.81207.726589-.598368.726589-2.222508v-20.6864176q0-1.6668807-.7693296-2.2652482-.726589-.6411079-2.9490967-.7693295v-1.0685133h14.4462994v1.0685133q-2.350729.1709621-3.077318.9402917-.726589.726589-.726589 2.9918372v9.1464734l9.274696-9.3174355q.983032-.9830323 1.239475-1.4104376.299184-.4274053.299184-.9402917z" fill="url(#b)" stroke-width="1.015378"/><path d="m84.751953 7.765625c.06628.019496.116923.1117911.183594.1328125.09371.033728.232126.00966.326172.044922zm-64.740234 2.716797c.06205.04826.06614.128761.126953.177734.07162.06122.157123.05419.228516.117188zm22.021484 1.261719-.148437.15625c.02856-.03024.06705-.03064.0957-.06055.02846-.02887.02393-.06691.05273-.0957zm-17.5625 5.072265c.93842 2.558353 1.314453 5.331713 1.314453 8.089844v51.941406a101.96611 46.64407 0 0 0 11.330078.916016v-6.335938a7.4224947 7.4224947 0 0 1 1.367188-4.28125 7.4224947 7.4224947 0 0 1 -1.367188-4.27539v-34.56836c0-4.318785.67568-8.034464 2.119141-11.486328zm66.164063 9.322266c-.05734.09556-.162843.166653-.220704.259766-.03601.05317-.02382.131135-.06055.183593zm-28.855469 29.927734-6.894531 6.929688 11.544922 14.398437a101.96611 46.64407 0 0 0 11.529296-1.277343z" fill="url(#a)" transform="scale(.26458334)"/></g></svg>