<svg enable-background="new 0 0 152.738 148.975" height="148.975" viewBox="0 0 152.738 148.975" width="152.738" xmlns="http://www.w3.org/2000/svg" xmlns:xlink="http://www.w3.org/1999/xlink"><filter id="a" color-interpolation-filters="sRGB" height="1.048" width="1.048" x="-.024" y="-.024"><feGaussianBlur stdDeviation="1.31391"/></filter><linearGradient id="b" gradientUnits="userSpaceOnUse" x1="130.9966" x2="10.6929" y1="119.2285" y2="18.9753"><stop offset="0" stop-color="#a11c15"/><stop offset="1" stop-color="#ba3704"/></linearGradient><path d="m138.483 71.078996c0 36.281004-29.412 65.697004-65.693 65.697004-36.283 0-65.698-29.416-65.698-65.697004 0-36.279 29.415-65.6939999 65.698-65.6939999 36.281-.001 65.693 29.4139999 65.693 65.6939999z" fill="#c8c8c8" filter="url(#a)" transform="matrix(1.0167194 0 0 1.0167194 2.364038 2.218583)"/><g transform="translate(3.535503 3.726003)"><path d="m138.529 70.76c0 36.283-29.412 65.697-65.697 65.697-36.278 0-65.694-29.414-65.694-65.697s29.415-65.694 65.694-65.694c36.285 0 65.697 29.411 65.697 65.694z" fill="#ededed"/><circle cx="72.834" cy="70.760002" fill="url(#b)" r="63.16"/></g></svg>