<svg enable-background="new 0 0 152.738 148.975" height="148.975" viewBox="0 0 152.738 148.975" width="152.738" xmlns="http://www.w3.org/2000/svg" xmlns:xlink="http://www.w3.org/1999/xlink"><filter id="a" color-interpolation-filters="sRGB" height="1.048" width="1.048" x="-.024" y="-.024"><feGaussianBlur stdDeviation="1.31391"/></filter><linearGradient id="b" gradientUnits="userSpaceOnUse" x1="127.167" x2="34.136002" y1="147.0132" y2="16.0798"><stop offset="0" stop-color="#4591d6"/><stop offset="1" stop-color="#5ac0ff"/></linearGradient><path d="m138.483 71.078996c0 36.281004-29.412 65.697004-65.693 65.697004-36.283 0-65.698-29.416-65.698-65.697004 0-36.279 29.415-65.6939999 65.698-65.6939999 36.281-.001 65.693 29.4139999 65.693 65.6939999z" fill="#c8c8c8" filter="url(#a)" transform="matrix(1.0167194 0 0 1.0167194 2.364038 2.218583)"/><g transform="translate(3.732503 4.222003)"><path d="m138.332 70.264c0 36.283-29.412 65.697-65.696 65.697-36.283 0-65.695-29.414-65.695-65.697 0-36.281 29.412-65.694 65.695-65.694 36.284 0 65.696 29.413 65.696 65.694z" fill="#ededed"/><path d="m135.794 70.264c0 34.885-28.276 63.162-63.158 63.162s-63.159-28.277-63.159-63.162c0-34.88 28.277-63.161 63.159-63.161 34.882.001 63.158 28.281 63.158 63.161z" fill="url(#b)"/></g></svg>