<svg enable-background="new 0 0 216.306 146.361" height="146.361" viewBox="0 0 216.306 146.361" width="216.306" xmlns="http://www.w3.org/2000/svg" xmlns:xlink="http://www.w3.org/1999/xlink"><linearGradient id="a" gradientUnits="userSpaceOnUse" x1="18.2573" x2="169.9324" y1="12.7065" y2="113.0079"><stop offset="0" stop-color="#ffc10e"/><stop offset="1" stop-color="#f16422"/></linearGradient><filter id="b" color-interpolation-filters="sRGB" height="1.062322" width="1.039031" x="-.019515" y="-.031161"><feGaussianBlur stdDeviation="1.53577"/></filter><path d="m199.61 121.694c0 4.213-3.415 7.631-7.631 7.631h-173.607c-4.216 0-7.632-3.418-7.632-7.631v-103.022998c0-4.217 3.416-7.63 7.632-7.63h173.607c4.216 0 7.631 3.413 7.631 7.63z" fill="#c8c8c8" filter="url(#b)" transform="matrix(1.0191514 0 0 1.0191514 .963749 1.653392)"/><path d="m199.61 121.694c0 4.213-3.415 7.631-7.631 7.631h-173.607c-4.216 0-7.632-3.418-7.632-7.631v-103.023c0-4.217 3.416-7.63 7.632-7.63h173.607c4.216 0 7.631 3.413 7.631 7.63z" fill="#ededed"/><path d="m195.794 117.878c0 4.216-3.415 7.632-7.629 7.632h-165.976c-4.22 0-7.636-3.416-7.636-7.632v-95.39c0-4.215 3.416-7.63 7.636-7.63h165.976c4.214 0 7.629 3.415 7.629 7.63z" fill="url(#a)"/></svg>