<svg enable-background="new 0 0 216.306 146.361" height="146.361" viewBox="0 0 216.306 146.361" width="216.306" xmlns="http://www.w3.org/2000/svg" xmlns:xlink="http://www.w3.org/1999/xlink"><filter id="a" color-interpolation-filters="sRGB" height="1.062322" width="1.039031" x="-.019515" y="-.031161"><feGaussianBlur stdDeviation="1.53577"/></filter><linearGradient id="b" gradientUnits="userSpaceOnUse" x1="170.4727" x2="20.4304" y1="118.4702" y2="5.9385"><stop offset="0" stop-color="#143777"/><stop offset=".8539" stop-color="#1d68aa"/></linearGradient><path d="m199.61 121.694c0 4.213-3.415 7.631-7.631 7.631h-173.607c-4.216 0-7.632-3.418-7.632-7.631v-103.022998c0-4.217 3.416-7.63 7.632-7.63h173.607c4.216 0 7.631 3.413 7.631 7.63z" fill="#c8c8c8" filter="url(#a)" transform="matrix(1.0191514 0 0 1.0191514 .963749 1.653387)"/><path d="m198.402 120.099c0 4.215-3.416 7.633-7.633 7.633h-173.605c-4.218 0-7.634-3.418-7.634-7.633v-103.018c0-4.218 3.416-7.633 7.634-7.633h173.606c4.217 0 7.633 3.415 7.633 7.633v103.018z" fill="#ededed"/><path d="m194.586 116.283c0 4.216-3.415 7.635-7.629 7.635h-165.977c-4.217 0-7.636-3.419-7.636-7.635v-95.388c0-4.215 3.419-7.629 7.636-7.629h165.977c4.214 0 7.629 3.414 7.629 7.629z" fill="url(#b)"/></svg>