<svg enable-background="new 0 0 123.339 123.339" height="123.339" viewBox="0 0 123.339 123.339" width="123.339" xmlns="http://www.w3.org/2000/svg" xmlns:xlink="http://www.w3.org/1999/xlink"><filter id="a" color-interpolation-filters="sRGB" height="1.048" width="1.048" x="-.024" y="-.024"><feGaussianBlur stdDeviation="1.02296"/></filter><linearGradient id="b" gradientUnits="userSpaceOnUse" x1="97.800797" x2="20.9839" y1="107.502" y2="9.0467"><stop offset="0" stop-color="#143777"/><stop offset=".8539" stop-color="#1d68aa"/></linearGradient><path d="m112.323 104.571c0 3.941-3.193 7.137-7.136 7.137h-88.022c-3.943 0-7.137-3.195-7.137-7.137v-88.021003c0-3.942 3.193-7.1390001 7.137-7.1390001h88.022c3.942 0 7.136 3.1960001 7.136 7.1390001z" fill="#c8c8c8" filter="url(#a)" transform="matrix(1.0260504 0 0 1.0260504 -1.099647 -.467598)"/><g transform="translate(.493998 1.109998)"><path d="m112.323 104.571c0 3.941-3.193 7.137-7.136 7.137h-88.022c-3.943 0-7.137-3.195-7.137-7.137v-88.021c0-3.942 3.193-7.139 7.137-7.139h88.022c3.942 0 7.136 3.196 7.136 7.139z" fill="#ededed"/><path d="m108.757 101.004c0 3.941-3.196 7.138-7.137 7.138h-80.886c-3.944 0-7.14-3.196-7.14-7.138v-80.885c0-3.944 3.195-7.139 7.14-7.139h80.886c3.94 0 7.137 3.194 7.137 7.139z" fill="url(#b)"/></g></svg>