<?xml version="1.0" encoding="UTF-8" standalone="no"?>
<svg
   xmlns:dc="http://purl.org/dc/elements/1.1/"
   xmlns:cc="http://creativecommons.org/ns#"
   xmlns:rdf="http://www.w3.org/1999/02/22-rdf-syntax-ns#"
   xmlns:svg="http://www.w3.org/2000/svg"
   xmlns="http://www.w3.org/2000/svg"
   xmlns:sodipodi="http://sodipodi.sourceforge.net/DTD/sodipodi-0.dtd"
   xmlns:inkscape="http://www.inkscape.org/namespaces/inkscape"
   viewBox="0 0 24 24"
   version="1.1"
   id="svg4"
   sodipodi:docname="lc_underline.svg"
   inkscape:export-filename="/home/jupiter007/Libreoffice yaru theme fullcolor/build/cmd/nl/lc_underline.png"
   inkscape:export-xdpi="96"
   inkscape:export-ydpi="96"
   inkscape:version="0.92.5 (2060ec1f9f, 2020-04-08)">
  <metadata
     id="metadata10">
    <rdf:RDF>
      <cc:Work
         rdf:about="">
        <dc:format>image/svg+xml</dc:format>
        <dc:type
           rdf:resource="http://purl.org/dc/dcmitype/StillImage" />
      </cc:Work>
    </rdf:RDF>
  </metadata>
  <defs
     id="defs8" />
  <sodipodi:namedview
     pagecolor="#ffffff"
     bordercolor="#666666"
     borderopacity="1"
     objecttolerance="10"
     gridtolerance="10"
     guidetolerance="10"
     inkscape:pageopacity="0"
     inkscape:pageshadow="2"
     inkscape:window-width="1920"
     inkscape:window-height="1011"
     id="namedview6"
     showgrid="false"
     inkscape:zoom="9.8333333"
     inkscape:cx="0.66101695"
     inkscape:cy="12"
     inkscape:window-x="0"
     inkscape:window-y="32"
     inkscape:window-maximized="1"
     inkscape:current-layer="svg4" />
  <path
     id="path846"
     d="m 12,2.0000986 c -3.3239998,0 -5.9999998,3.122 -5.9999998,6.9999998 v 2.9998026 c 0,3.878 2.676,7 5.9999998,7 3.324,0 6,-3.122 6,-7 V 9.0000984 C 18,5.1220986 15.324,2.0000986 12,2.0000986 Z m 0.5,2 h 1 c 1.385,0 2.5,2.23 2.5,4.9999998 v 2.9998026 c 0,2.77 -1.115,5 -2.5,5 h -1 c -1.385,0 -2.5,-2.23 -2.5,-5 V 9.0000984 c 0,-2.7699998 1.115,-4.9999998 2.5,-4.9999998 z"
     style="opacity:0.6;fill:#000000;fill-opacity:1;stroke:#000000;stroke-width:2;stroke-linejoin:round;stroke-miterlimit:4;stroke-dasharray:none;stroke-opacity:1"
     inkscape:connector-curvature="0"
     sodipodi:nodetypes="ssssssssssssssss" />
  <path
     style="opacity:0.6;fill:#000000;fill-opacity:1;stroke:#000000;stroke-width:2;stroke-linejoin:round;stroke-miterlimit:4;stroke-dasharray:none;stroke-opacity:1"
     d="m 4.0000002,20.999901 v 1 H 20 v -1 z"
     id="path825"
     inkscape:connector-curvature="0"
     sodipodi:nodetypes="ccccc" />
  <path
     style="opacity:1;fill:#ffffff;fill-opacity:1;stroke:none;stroke-width:2;stroke-linecap:round;stroke-linejoin:round;stroke-miterlimit:4;stroke-dasharray:none;stroke-opacity:1"
     d="M 4.0000002,20.999901 H 20 v 1 H 4.0000002 Z"
     id="rect828"
     inkscape:connector-curvature="0"
     sodipodi:nodetypes="ccccc" />
  <path
     style="opacity:1;fill:#ffffff;fill-opacity:1;stroke:none;stroke-width:4.38178015;stroke-linejoin:round;stroke-miterlimit:4;stroke-dasharray:none;stroke-opacity:1"
     d="m 12,2.0000986 c -3.3239998,0 -5.9999998,3.122 -5.9999998,6.9999998 v 2.9998026 c 0,3.878 2.676,7 5.9999998,7 3.324,0 6,-3.122 6,-7 V 9.0000984 C 18,5.1220986 15.324,2.0000986 12,2.0000986 Z m 0.5,2 h 1 c 1.385,0 2.5,2.23 2.5,4.9999998 v 2.9998026 c 0,2.77 -1.115,5 -2.5,5 h -1 c -1.385,0 -2.5,-2.23 -2.5,-5 V 9.0000984 c 0,-2.7699998 1.115,-4.9999998 2.5,-4.9999998 z"
     id="rect835"
     inkscape:connector-curvature="0"
     sodipodi:nodetypes="ssssssssssssssss" />
</svg>
