<svg height="16" viewBox="0 0 16 16" width="16" xmlns="http://www.w3.org/2000/svg" xmlns:xlink="http://www.w3.org/1999/xlink"><linearGradient id="a" gradientUnits="userSpaceOnUse" x1="48.413652" x2="48.413652" y1="109.034131" y2="-32.413655"><stop offset="0" stop-color="#1c1c1c"/><stop offset=".5" stop-color="#888"/><stop offset="1"/></linearGradient>



/&amp;amp;amp;amp;gt;<g transform="scale(.125)"><g transform="matrix(3.3012348 0 0 3.3012348 8.124737 -842.88649)"><path d="m18.890121 266.5729c.000002 1.0807-.876082 6.71929-1.956787 6.71929s-1.95679-5.63858-1.956788-6.71929c.000004-1.0807.876087-1.95678 1.956788-1.95678s1.956783.87608 1.956787 1.95678z" fill="#f60"/><path d="m11.885829 267.40472c.540352.93592 2.600936 6.25712 1.665018 6.79747-.935918.54036-4.5139198-3.90475-5.0542731-4.84068-.5403465-.93591-.2196764-2.13266.7162381-2.67301.935915-.54035 2.132664-.21969 2.673017.71622z" fill="#c00"/><path d="m6.2358445 271.62725c.9359185.54035 5.3810365 4.11835 4.8406825 5.05427-.540348.93592-5.8615439-1.12465-6.7974685-1.66501-.9359088-.54035-1.2565754-1.7371-.7162247-2.67302.5403512-.93591 1.7370962-1.25659 2.6730107-.71624z" fill="#730055"/><path d="m3.4540793 278.10906c1.0807042 0 6.7192897.87608 6.7192887 1.95678.000005 1.08071-5.6385706 1.9568-6.719285 1.9568-1.0806958-.00001-1.9567763-.87609-1.9567788-1.95679.0000028-1.0807.8760744-1.95679 1.9567751-1.95679z" fill="#2c0059"/><path d="m4.285905 285.11335c.9359173-.54035 6.257116-2.60093 6.797465-1.66502.540359.93592-3.9047457 4.51392-4.8406718 5.05428-.935915.54034-2.132663.21967-2.6730152-.71624-.5403475-.93591-.2196923-2.13267.716222-2.67302z" fill="#039"/><path d="m8.5084322 290.76333c.5403532-.93591 4.1183568-5.38103 5.0542678-4.84068.935924.54035-1.124649 5.86154-1.665005 6.79747-.540356.93591-1.737106 1.25657-2.6730193.71623-.9359096-.54035-1.2565941-1.7371-.7162435-2.67302z" fill="#36c"/><path d="m8.0097656 13c-.4459543 0-.8085917 2.325529-.8085937 2.771484.0000002.081023.0246697.15473.046875.228516h1.5214843c.0222053-.073786.0468745-.147493.046875-.228516-.0000012-.445959-.3606813-2.771488-.8066406-2.771484z" fill="#69f" stroke-width=".412654" transform="matrix(2.4233357 0 0 2.4233357 -2.461121 255.32461)"/><path d="m21.994532 292.71328c-.540346-.93592-2.600932-6.25712-1.665021-6.79747.935917-.54036 4.51392 3.90475 5.054278 4.84067.540344.93591.219671 2.13266-.716233 2.67302-.93591.54035-2.132672.21969-2.673024-.71622z" fill="#9c3"/><path d="m27.644518 288.49075c-.935913-.54036-5.381033-4.11836-4.840685-5.05427.540348-.93592 5.861544 1.12465 6.797468 1.66501.935906.54034 1.25657 1.7371.716234 2.67301-.540347.93592-1.737103 1.2566-2.673017.71625z" fill="#0c0"/><path d="m30.519829 282.10248c-1.080705-.00001-6.719292-.87609-6.719292-1.95678-.000005-1.08071 5.638571-1.9568 6.719285-1.9568 1.080689 0 1.956772.87609 1.956782 1.95678.000006 1.08071-.876075 1.9568-1.956775 1.9568z" fill="#690"/><path d="m29.59446 275.00465c-.935923.54034-6.257122 2.60093-6.797467 1.66502-.540359-.93592 3.904746-4.51392 4.840671-5.05428.935904-.54035 2.13266-.21967 2.673013.71623.54036.93592.219697 2.13268-.716217 2.67303z" fill="#fc0"/><path d="m25.371934 269.35466c-.540363.93591-4.118362 5.38104-5.054269 4.84069-.935925-.54035 1.124649-5.86154 1.665004-6.79747.540341-.93591 1.737103-1.25657 2.673012-.71624.935925.54035 1.256603 1.73711.716253 2.67302z" fill="#f90"/></g><path d="m10.013672 0v.21484375a.98585586.98585586 0 0 0 -.5937501-.20117187h-8.4199219a.98585586.98585586 0 0 0 -.98632812.98632812v2a.98585586.98585586 0 0 0 .98632812.9863281h5.6972656c-.3919795 3.9810007-3.1301524 6.1308599-5.6972656 6.1308599a.98585586.98585586 0 0 0 -.98632812.986328v1.683593a.98585586.98585586 0 0 0 .98632812.986329c2.7791247 0 5.2062566-1.110481 6.8613281-3.095704 1.0179765-1.2210406 1.7426263-2.7534119 2.1523439-4.5292965v7.3222655a.98585586.98585586 0 0 0 .15625.529297h3.662109a.98585586.98585586 0 0 0 .154297-.529297v-4.4843749h1.013672a.98585586.98585586 0 0 0 .986328-.9863281v-2a.98585586.98585586 0 0 0 -.986328-.9863281h-1.013672v-5.0136719z" fill="#fff" fill-opacity=".870588" fill-rule="evenodd" stroke-width=".841951" transform="scale(8)"/><path d="m88 0v107.76974h16v-43.76974h16v-16h-16v-48zm-80 8v16h53.88487c0 40.413653-26.942435 64.827305-53.88487 64.827305v13.471215c40.413653 0 67.356088-31.149258 67.356088-81.955753v-12.342767z" fill="url(#a)" fill-rule="evenodd" stroke-width="6.735609"/><path d="m0 104.00005h127.99821v24h-127.99821z" fill="#f00" opacity=".99"/></g></svg>