<svg height="16" width="16" xmlns="http://www.w3.org/2000/svg" xmlns:xlink="http://www.w3.org/1999/xlink"><linearGradient id="a"><stop offset="0" stop-color="#bbd6ff"/><stop offset="1" stop-color="#0057ae"/></linearGradient><linearGradient id="b"><stop offset="0" stop-color="#d4e2f3"/><stop offset="1" stop-color="#fff" stop-opacity="0"/></linearGradient><linearGradient id="c"><stop offset="0" stop-color="#fff"/><stop offset="1" stop-color="#fff" stop-opacity="0"/></linearGradient><linearGradient id="d" gradientUnits="userSpaceOnUse" x1="124.5" x2="135.74562" xlink:href="#c" y1="108.5" y2="-13.567197"/><radialGradient id="e" cx="56" cy="66" gradientTransform="matrix(.9738345 0 0 2.06756 1.465266 -68.958964)" gradientUnits="userSpaceOnUse" r="48"><stop offset="0" stop-color="#fff"/><stop offset="1" stop-color="#eee"/></radialGradient><linearGradient id="f" gradientTransform="matrix(1 0 0 -1 -3.5 130)" gradientUnits="userSpaceOnUse" x1="104" x2="104" xlink:href="#b" y1="120" y2="57.11084"/><filter id="g"><feGaussianBlur stdDeviation=".385"/></filter><linearGradient id="h" gradientTransform="matrix(1 0 0 -1 -3.5 130)" gradientUnits="userSpaceOnUse" x1="114.37838" x2="112.9539" xlink:href="#a" y1="37.786964" y2="127.69691"/><linearGradient id="i" gradientUnits="userSpaceOnUse" x1="100.5" x2="100.5" xlink:href="#b" y1="118" y2="55.11084"/><linearGradient id="j" gradientUnits="userSpaceOnUse" x1="121" x2="132.24562" xlink:href="#c" y1="118.5" y2="-3.567196"/><linearGradient id="k" gradientUnits="userSpaceOnUse" x1="110.87838" x2="109.4539" xlink:href="#a" y1="35.786964" y2="125.69691"/><linearGradient id="l" gradientUnits="userSpaceOnUse" x1="83.731171" x2="111.13911" y1="19.712189" y2="122"><stop offset="0" stop-color="#2c72c7"/><stop offset="1" stop-color="#00438a"/></linearGradient><g transform="matrix(.125 0 0 .125 -.031187 0)"><g transform="translate(0 -3.5)"><path d="m8 11.5h96v112h-96z" style="opacity:.5;fill:none;stroke:#000;stroke-width:8;stroke-linecap:round;stroke-linejoin:round"/><path d="m8 11.5h96v112h-96z" fill="#fff"/><path d="m16 19.5h80v96h-80z" fill="url(#e)"/></g><g fill="#4d82b8" transform="translate(0 40)"><rect height="8" rx="1.784217" ry="2.295015" width="24" x="32" y="16"/><rect height="8" rx="4.163174" ry="2.295015" width="56" x="16" y="32"/><rect height="8" rx="2.973695" ry="2.295015" width="40" x="24" y="48"/><rect height="8" rx="2.973695" ry="2.295015" width="40" x="24" y="64"/><g transform="rotate(90)"><rect height="8" rx="1.784217" ry="2.295015" width="24" x="48" y="-64"/><rect height="8" rx="1.784217" ry="2.295015" width="24" x="48" y="-32"/></g></g><path d="m92 10.000001-20 20h16v4 60 4h-16l20 19.999999 20-19.999999h-16v-4-60-4h16z" fill="none" stroke="#fff" stroke-linecap="round" stroke-linejoin="round" stroke-width="16"/><path d="m100.5 8.0000008-20 22.0000002h16v4 60 4h-16l20 21.999999 20-21.999999h-16v-4-60-4h16z" fill="none" stroke="url(#l)" stroke-linecap="round" stroke-linejoin="round" stroke-width="16"/><path d="m100.5 118-20-19.999999h16v-64h8v64h16z" fill="url(#k)" fill-rule="evenodd"/><path d="m100.5 118-20-19.999999h16v-64h8v64h16z" fill="none" filter="url(#g)" opacity=".898396" stroke="url(#j)"/><path d="m100.5 118-20-19.999999h16v-35.15625c2.72925.692534 5.40416 1.45519 8 2.28125v32.875h16z" fill="url(#i)" fill-rule="evenodd"/><path d="m100.5 10.000001-20 20h16v64h8v-64h16z" fill="url(#h)" fill-rule="evenodd"/><path d="m104 108-20-20h16v-64h8v64h16z" fill="none" filter="url(#g)" opacity=".898396" stroke="url(#d)" transform="matrix(1 0 0 -1 -3.5 118)"/><path d="m100.5 10.000001-20 20h16v35.15625c2.72925-.692534 5.40416-1.45519 8-2.28125v-32.875h16z" fill="url(#f)" fill-rule="evenodd"/><g fill="#696969" transform="translate(0 -72)"><rect height="8" rx="4.163174" ry="2.295015" width="56" x="16" y="88"/><rect height="8" rx="1.784217" ry="2.295015" transform="rotate(90)" width="24" x="88" y="-72"/></g></g></svg>