<svg height="16" width="16" xmlns="http://www.w3.org/2000/svg" xmlns:xlink="http://www.w3.org/1999/xlink"><filter id="a"><feGaussianBlur stdDeviation=".385"/></filter><radialGradient id="b" cx="56" cy="66" gradientTransform="matrix(.9738345 0 0 2.06756 1.465266 -68.958964)" gradientUnits="userSpaceOnUse" r="48"><stop offset="0" stop-color="#fff"/><stop offset="1" stop-color="#eee"/></radialGradient><linearGradient id="c" gradientUnits="userSpaceOnUse" x1="87.231171" x2="114.63911" y1="9.712187" y2="112"><stop offset="0" stop-color="#2c72c7"/><stop offset="1" stop-color="#00438a"/></linearGradient><linearGradient id="d" gradientUnits="userSpaceOnUse" x1="114.37838" x2="112.9539" y1="25.786964" y2="115.69691"><stop offset="0" stop-color="#bbd6ff"/><stop offset="1" stop-color="#0057ae"/></linearGradient><linearGradient id="e" gradientUnits="userSpaceOnUse" x1="124.5" x2="135.74562" y1="108.5" y2="-13.567197"><stop offset="0" stop-color="#fff"/><stop offset="1" stop-color="#fff" stop-opacity="0"/></linearGradient><linearGradient id="f" gradientTransform="matrix(1 0 0 -1 0 140)" gradientUnits="userSpaceOnUse" x1="104" x2="104" y1="120" y2="57.11084"><stop offset="0" stop-color="#d4e2f3"/><stop offset="1" stop-color="#fff" stop-opacity="0"/></linearGradient><g transform="matrix(.125 0 0 .125 -.031187 -.4375)"><path d="m8 11.5h96v112h-96z" style="opacity:.5;fill:none;stroke:#000;stroke-width:8;stroke-linecap:round;stroke-linejoin:round"/><path d="m8 11.5h96v112h-96z" fill="#fff"/><path d="m16 19.5h80v96h-80z" fill="url(#b)"/></g><g transform="matrix(.125 0 0 .125 -.468687 0)"><path d="m95.5 108-20-20h16v-64h8v64h16z" fill="none" stroke="#fff" stroke-linecap="round" stroke-linejoin="round" stroke-width="16"/><path d="m104 110-20-22h16v-64h8v64h16z" fill="none" stroke="url(#c)" stroke-linecap="round" stroke-linejoin="round" stroke-width="16"/><path d="m104 108-20-20h16v-64h8v64h16z" fill="url(#d)" fill-rule="evenodd"/><path d="m104 108-20-20h16v-64h8v64h16z" fill="none" filter="url(#a)" opacity=".898396" stroke="url(#e)"/><path d="m104 20-20 20h16v35.15625c2.72925-.692534 5.40416-1.45519 8-2.28125v-32.875h16z" fill="url(#f)" fill-rule="evenodd" transform="matrix(1 0 0 -1 0 128)"/></g><g fill="#4d82b8" transform="matrix(.125 0 0 .125 -.031187 5)"><rect height="8" rx="1.784217" ry="2.295015" width="24" x="32" y="16"/><rect height="8" rx="4.163174" ry="2.295015" width="56" x="16" y="32"/><rect height="8" rx="2.973695" ry="2.295015" width="40" x="24" y="48"/><rect height="8" rx="2.973695" ry="2.295015" width="40" x="24" y="64"/><g transform="rotate(90)"><rect height="8" rx="1.784217" ry="2.295015" width="24" x="48" y="-64"/><rect height="8" rx="1.784217" ry="2.295015" width="24" x="48" y="-32"/></g></g><g fill="#696969" transform="matrix(.125 0 0 .125 -.031187 -9)"><rect height="8" rx="4.163174" ry="2.295015" width="56" x="16" y="88"/><rect height="8" rx="1.784217" ry="2.295015" transform="rotate(90)" width="24" x="88" y="-72"/></g></svg>