<svg enable-background="new 0 0 122.666 70.666" height="70.666" viewBox="0 0 122.666 70.666" width="122.666" xmlns="http://www.w3.org/2000/svg" xmlns:xlink="http://www.w3.org/1999/xlink"><linearGradient id="a"><stop offset="0" stop-color="#ffc10e"/><stop offset="1" stop-color="#f16422"/></linearGradient><linearGradient id="b" gradientUnits="userSpaceOnUse" x1="11.4028" x2="111.2632" xlink:href="#a" y1="35.333" y2="35.333"/><linearGradient id="c" gradientUnits="userSpaceOnUse" x1="7.3735" x2="118.4394" xlink:href="#a" y1="52.0181" y2="34.2133"/><linearGradient id="d" gradientUnits="userSpaceOnUse" x1="59.5591" x2="135.0167" xlink:href="#a" y1="75.9048" y2="3.8387"/><linearGradient id="e" gradientUnits="userSpaceOnUse" x1="12.3525" x2="156.4848" xlink:href="#a" y1="23.1182" y2="6.1616"/><path d="m31.939 7.729-20.536 18.654.186 36.554h81.021l18.653-19.219v-35.612z" fill="url(#b)"/><path d="m11.589 26.76h81.021v36.177h-80.642" fill="url(#c)"/><path d="m111.075 8.106-18.465 18.654v36.177l18.465-19.597z" fill="url(#d)"/><path d="m31.94 7.729 79.135.377-18.465 18.654h-81.021z" fill="url(#e)"/><path d="m12.816 25.536 79.135-.189 16.957-17.524 2.167.283-17.993 18.56-81.493.094z" fill="#fff" opacity=".1"/><path d="m91.899 26.347.005 36.07 1.412.096v-36.177z" fill="#fff" opacity=".1"/></svg>