<svg enable-background="new 0 0 162.305 163.753" height="163.753" viewBox="0 0 162.305 163.753" width="162.305" xmlns="http://www.w3.org/2000/svg" xmlns:xlink="http://www.w3.org/1999/xlink"><filter id="a" color-interpolation-filters="sRGB" height="1.048629" width="1.047387" x="-.023693" y="-.024315"><feGaussianBlur stdDeviation="1.3821166"/></filter><linearGradient id="b" gradientUnits="userSpaceOnUse" x1="121.721496" x2="57.115896" y1="154.754703" y2="82.073303"><stop offset="0" stop-color="#fa7700"/><stop offset="1" stop-color="#fda904"/></linearGradient><path d="m144.92683 78.931111c0-5.508997-4.51996-9.976476-10.09482-9.976476h-32.08391c7.40338-5.73226 12.12091-14.371395 12.12091-24.038655 0-17.259294-15.023324-31.251142-33.555209-31.251142-18.534121 0-33.557444 13.991848-33.557444 31.251142 0 9.668375 4.717534 18.306395 12.120912 24.038655h-32.064934c-5.573744 0-10.095922 4.467479-10.095922 9.976476l-6.563913 71.157059h139.99999z" fill="#c8c8c8" filter="url(#a)"/><path d="m141.92409 79.069792c0-5.249613-4.30714-9.506746-9.61951-9.506746h-30.57328c7.0548-5.462363 11.55021-13.694735 11.55021-22.906823 0-16.446661-14.315971-29.77972-31.975308-29.77972-17.661464 0-31.977431 13.333059-31.977431 29.77972 0 9.213151 4.495414 17.44446 11.550213 22.906823h-30.555195c-5.31131 0-9.620567 4.257133-9.620567 9.506746l-6.254859 67.806708h133.408267z" fill="#fff"/><path d="m138.282 79.238003c0-4.935-4.049-8.937-9.043-8.937h-28.741c6.632-5.135 10.858-12.874 10.858-21.534 0-15.461-13.458004-27.995-30.059004-27.995-16.603 0-30.061 12.534-30.061 27.995 0 8.661 4.226 16.399 10.858 21.534h-28.724c-4.993 0-9.044 4.002-9.044 8.937l-5.88 63.742997h125.413004z" fill="url(#b)"/></svg>