<svg enable-background="new 0 0 440.897 262.487" height="262.487" viewBox="0 0 440.897 262.487" width="440.897" xmlns="http://www.w3.org/2000/svg" xmlns:xlink="http://www.w3.org/1999/xlink"><linearGradient id="a"><stop offset="0" stop-color="#1c2958"/><stop offset=".09" stop-color="#3a4a73"/><stop offset=".5" stop-color="#2d3d6a"/><stop offset=".91" stop-color="#3a4a73"/><stop offset="1" stop-color="#1e2d5e"/></linearGradient><linearGradient id="b" gradientUnits="userSpaceOnUse" x1="14.2451" x2="202.2148" xlink:href="#a" y1="63.8936" y2="63.8936"/><linearGradient id="c" gradientUnits="userSpaceOnUse" x1="14.2451" x2="202.2148" xlink:href="#a" y1="195.0742" y2="195.0742"/><linearGradient id="d" gradientUnits="userSpaceOnUse" x1="238.1055" x2="426.0762" xlink:href="#a" y1="63.8936" y2="63.8936"/><linearGradient id="e" gradientUnits="userSpaceOnUse" x1="238.1055" x2="426.0762" xlink:href="#a" y1="195.0742" y2="195.0742"/><linearGradient id="f"><stop offset="0" stop-color="#1c2958"/><stop offset=".1546" stop-color="#3a4a73"/><stop offset="1" stop-color="#1e2d5e"/></linearGradient><linearGradient id="g" gradientTransform="matrix(0 -1 1 0 -3337.4033 1863.8184)" gradientUnits="userSpaceOnUse" x1="1711.2275" x2="1767.5343" xlink:href="#f" y1="3444.5547" y2="3444.5547"/><linearGradient id="h" gradientUnits="userSpaceOnUse" x1="245.627" x2="198.4167" xlink:href="#f" y1="65.335" y2="64.6174"/><linearGradient id="i" gradientUnits="userSpaceOnUse" x1="195.2959" x2="241.6719" xlink:href="#f" y1="197.4033" y2="197.4033"/><linearGradient id="j" gradientTransform="matrix(0 1 1 0 -3337.4033 3380.5195)" gradientUnits="userSpaceOnUse" x1="-3272.9849" x2="-3222.8936" xlink:href="#f" y1="3667.5889" y2="3667.5889"/><path d="m189.448 13.624c7.05 0 12.767 5.717 12.767 12.769v75.003c0 7.051-5.717 12.768-12.767 12.768h-162.434c-7.053 0-12.769-5.717-12.769-12.768v-75.004c0-7.052 5.716-12.769 12.769-12.769h162.434z" fill="url(#b)"/><path d="m17.546 101.395c0 5.22 4.245 9.467 9.468 9.467h162.435c5.22 0 9.468-4.248 9.468-9.467v-75.003c0-5.221-4.248-9.468-9.468-9.468h-162.435c-5.223 0-9.468 4.247-9.468 9.468z" fill="#fff"/><path d="m17.546 42.263 64.464 68.599h3.106l-67.57-71.904zm0 6.94 57.94 61.66h3.105l-61.045-64.965zm0 13.887 44.893 47.772h3.106l-47.999-51.077zm0 6.941 38.37 40.832h3.105l-41.475-44.135zm15.532-53.107 88.277 93.938h3.106l-88.277-93.938zm-15.532 18.175 71.194 75.763h3.105l-74.3-79.068v3.305zm9.468-18.175c-.148 0-.291.016-.439.021l88.259 93.917h3.104l-88.275-93.938zm-5.389 1.693 86.682 92.246h3.109l-87.705-93.332c-.744.276-1.447.638-2.086 1.086zm-4.079 7.775v1.768l77.718 82.703h3.105l-80.707-85.884c-.07.463-.116.933-.116 1.413zm.966-4.142 83.273 88.613h3.107l-85.111-90.57c-.502.593-.924 1.253-1.269 1.957zm-.966 33.897 51.417 54.715h3.107l-54.524-58.021zm88.149-39.223 87.533 93.145c.461-.199.898-.439 1.318-.709l.594-.559-86.338-91.877zm-6.521 0 88.275 93.938h1.999c.354 0 .704-.021 1.05-.061l-88.219-93.877zm13.047 0 84.734 90.173.115-.107c.434-.592.81-1.225 1.098-1.909l-82.842-88.156h-3.105zm-94.675 60.048 31.845 33.89h3.107l-34.952-37.195zm100.886-60.048 80.414 85.574c.045-.363.07-.729.07-1.104v-2.131l-77.379-82.34h-3.105zm-99.272 89.754 2.049 2.182c1.393 1.086 3.092 1.793 4.947 1.959l-8.6-9.149c.057 1.85.632 3.573 1.604 5.008zm-1.614-15.602 18.595 19.787h3.105l-21.7-23.091zm0-6.943 25.116 26.729h3.107l-28.223-30.032zm0 13.887 12.071 12.842h3.105l-15.177-16.15v3.308zm179.241-77.602-.85-.902c-1.469-1.388-3.373-2.314-5.492-2.539l8.451 8.992c-.095-2.097-.864-4.023-2.109-5.551zm-45.738-3.494 47.867 50.938v-3.306l-44.76-47.633h-3.107zm-6.524 0 54.391 57.879v-3.305l-51.285-54.574zm-6.525 0 60.916 64.821v-3.303l-57.808-61.519h-3.108zm-6.521 0 67.438 71.765v-3.304l-64.334-68.461zm26.296 0 41.141 43.776v-3.306l-38.031-40.471h-3.11zm-117.519 0 88.276 93.938h3.106l-88.277-93.938zm124.045 0 34.615 36.837v-3.308l-31.51-33.529zm13.049 0 21.566 22.95v-3.304l-18.463-19.646zm-6.526 0 28.092 29.894v-3.306l-24.984-26.588zm16.153 0h-3.105l15.045 16.011v-3.308zm-120.627 0 88.275 93.938h3.107l-88.277-93.938zm58.603 0 73.963 78.706v-3.306l-70.855-75.4zm-71.652 0 88.275 93.938h3.109l-88.279-93.938zm-6.524 0 88.277 93.938h3.106l-88.275-93.938zm13.047 0 88.277 93.938h3.107l-88.276-93.938zm32.824 0 88.275 93.938h3.108l-88.277-93.938zm-6.523 0 88.277 93.938h3.107l-88.277-93.938zm-6.523 0 88.277 93.938h3.107l-88.277-93.938zm-6.729 0 88.277 93.938h3.104l-88.276-93.938z" fill="#ccc" opacity=".35"/><path d="m189.448 144.802c7.05 0 12.767 5.719 12.767 12.77v75.004c0 7.053-5.717 12.771-12.767 12.771h-162.434c-7.053 0-12.769-5.719-12.769-12.771v-75.004c0-7.051 5.716-12.77 12.769-12.77z" fill="url(#c)"/><path d="m17.546 232.575c0 5.221 4.245 9.471 9.468 9.471h162.435c5.22 0 9.468-4.25 9.468-9.471v-75.004c0-5.217-4.248-9.469-9.468-9.469h-162.435c-5.223 0-9.468 4.252-9.468 9.469z" fill="#fff"/><path d="m17.546 157.571v2.229l77.286 82.246h3.107l-80.338-85.492c-.036.336-.055.674-.055 1.017zm28.356-9.468 88.275 93.943h3.107l-88.277-93.943zm-28.356 32.519 57.716 61.424h3.107l-60.823-64.727zm.892-27.037 83.125 88.461h3.105l-84.992-90.447c-.494.603-.905 1.275-1.238 1.986zm8.576-5.482c-.221 0-.436.02-.65.035l88.244 93.908h3.108l-88.278-93.943zm12.365 0 88.277 93.943h3.105l-88.277-93.943zm-6.522 0 88.275 93.943h3.105l-88.275-93.943zm-11.365 1.794 86.595 92.148h3.104l-87.648-93.273c-.734.288-1.42.668-2.051 1.125zm-3.946 37.668 51.192 54.48h3.105l-54.298-57.783v3.303zm0-20.826 70.764 75.307h3.105l-73.869-78.611zm0 27.768 44.669 47.539h3.107l-47.776-50.842zm81.401-46.404 88.277 93.943h2.224c.284 0 .563-.018.845-.043l-88.238-93.9zm19.572 0 80.341 85.496c.037-.338.057-.678.057-1.023v-2.221l-77.291-82.252zm-92.609 93.871-8.34-8.873c.254 4.611 3.809 8.345 8.34 8.873zm-8.364-12.537 11.847 12.609h3.105l-14.952-15.914zm0-27.766 37.938 40.375h3.107l-41.046-43.684v3.309zm0 20.824 18.368 19.551h3.105l-21.473-22.856zm0-13.885 31.415 33.436h3.107l-34.522-36.74zm0 6.944 24.894 26.492h3.105l-27.999-29.799zm0-41.871 64.239 68.363h3.107l-67.347-71.668v3.305zm133.278-25.58 48.092 51.178v-3.307l-44.986-47.871zm13.047 0 35.045 37.297v-3.307l-31.936-33.99zm-6.521 0 41.566 44.238v-3.309l-38.463-40.93h-3.103zm-19.575 0 61.141 65.063v-3.305l-58.033-61.758zm6.526 0 54.615 58.121v-3.303l-51.509-54.818zm-13.047 0 67.662 72.004v-3.307l-64.555-68.697zm55.5 0h-3.105l15.268 16.25v-3.305zm10.716 4.464-2.528-2.693c-1.357-.971-2.977-1.592-4.734-1.73l8.701 9.258c-.034-1.776-.555-3.426-1.439-4.835zm-20.345-4.464 21.791 23.193v-3.307l-18.685-19.887h-3.106zm-6.523 0 28.314 30.135v-3.309l-25.209-26.826zm-91.43 0 88.275 93.943h3.107l-88.277-93.943zm-6.524 0 88.277 93.943h3.107l-88.277-93.943zm-6.524 0 88.276 93.943h3.107l-88.275-93.943zm-6.522 0 88.275 93.943h3.107l-88.277-93.943zm-6.524 0 88.277 93.943h3.106l-88.278-93.943zm71.965 0 73.873 78.615v-3.307l-70.767-75.309h-3.106zm-19.572 0 87.598 93.221c.725-.301 1.398-.695 2.019-1.16l-86.509-92.061zm6.524 0 84.882 90.328c.484-.617.893-1.289 1.217-2.012l-82.99-88.316zm-26.302 0 88.279 93.943h3.105l-88.277-93.943zm6.733 0 88.277 93.943h3.106l-88.276-93.943z" fill="#ccc" opacity=".35"/><path d="m413.311 13.624c7.049 0 12.766 5.717 12.766 12.769v75.003c0 7.051-5.717 12.768-12.766 12.768h-162.437c-7.054 0-12.769-5.717-12.769-12.768v-75.004c0-7.052 5.715-12.769 12.769-12.769h162.437z" fill="url(#d)"/><path d="m241.406 101.395c0 5.22 4.244 9.467 9.468 9.467h162.437c5.219 0 9.467-4.248 9.467-9.467v-75.003c0-5.221-4.248-9.468-9.467-9.468h-162.437c-5.224 0-9.468 4.247-9.468 9.468z" fill="#fff"/><path d="m245.855 18.375 86.91 92.487h3.109l-87.861-93.495c-.768.245-1.488.59-2.158 1.008zm-3.275 3.457 83.664 89.031h3.105l-85.414-90.894c-.522.567-.98 1.185-1.355 1.863zm-1.174 4.56v1.133l78.313 83.337h3.107l-81.217-86.426c-.13.632-.203 1.286-.203 1.956zm0 8.074 71.791 76.396h3.105l-74.896-79.7zm9.815-17.542 88.277 93.938h3.105l-88.277-93.938zm19.57 0 88.275 93.938h3.107l-88.275-93.938zm-29.385 24.484 65.268 69.455h3.105l-68.373-72.758zm22.86-24.484 88.279 93.938h3.107l-88.279-93.938zm-6.522 0 88.277 93.938h3.105l-88.276-93.938zm-16.338 31.426 58.742 62.512h3.108l-61.851-65.817v3.305zm0 41.871 19.396 20.641h3.107l-22.504-23.948v3.307zm0-6.94 25.92 27.582h3.107l-29.027-30.889zm0 13.551 13.188 14.031h3.104l-16.292-17.337zm82.225-79.908 88.275 93.938h1.404c.533 0 1.057-.055 1.568-.137l-88.143-93.801zm-82.225 45.53 45.492 48.409h3.105l-48.598-51.713v3.304zm0-6.941 52.014 55.349h3.107l-55.121-58.656zm0 20.826 32.443 34.523h3.105l-35.549-37.831v3.308zm35.908-59.415 88.274 93.938h3.106l-88.274-93.938zm-35.908 52.473 38.969 41.465h3.104l-42.072-44.774v3.309zm0 31.998c0 .991.152 1.945.438 2.846l5.617 5.977c1.059.41 2.209.645 3.413.645h.3l-9.768-10.393zm147.354-84.471 34.018 36.199v-3.308l-30.91-32.892h-3.108zm-13.049 0 47.066 50.084v-3.306l-43.957-46.778zm-19.26 0 66.326 70.577v-3.305l-63.219-67.272zm6.528 0 59.799 63.636v-3.305l-56.695-60.331zm6.209 0 53.59 57.023v-3.306l-50.482-53.718h-3.108zm13.047 0 40.542 43.141v-3.303l-37.437-39.838zm29.408 0h-3.107l14.242 15.155v-3.307zm-16.358 0 27.492 29.258v-3.306l-24.389-25.952zm19.965.202 7.416 7.893c-.576-3.931-3.564-7.089-7.416-7.893zm-13.443-.202 20.971 22.314v-3.305l-17.865-19.01h-3.106zm-117.971 0 88.277 93.938h3.105l-88.275-93.938zm13.7 0 88.275 93.938h3.108l-88.279-93.938zm6.523 0 88.275 93.938h3.109l-88.277-93.938zm-13.045 0 88.277 93.938h3.105l-88.277-93.938zm19.568 0 88.278 93.938h3.106l-88.279-93.938zm19.777 0 87.283 92.881c.686-.355 1.316-.789 1.889-1.293l-86.064-91.588zm-13.252 0 88.275 93.938h3.107l-88.277-93.938zm26.299 0 79.371 84.46v-3.306l-76.266-81.154zm-6.523 0 84.305 89.711c.445-.667.803-1.396 1.068-2.166l-82.266-87.545zm13.049 0 72.846 77.519v-3.304l-69.74-74.215z" fill="#ccc" opacity=".35"/><path d="m413.311 144.802c7.049 0 12.766 5.719 12.766 12.77v75.004c0 7.053-5.717 12.771-12.766 12.771h-162.437c-7.054 0-12.769-5.719-12.769-12.771v-75.004c0-7.051 5.715-12.77 12.769-12.77z" fill="url(#e)"/><path d="m241.406 232.575c0 5.221 4.244 9.471 9.468 9.471h162.437c5.219 0 9.467-4.25 9.467-9.471v-75.004c0-5.217-4.248-9.469-9.467-9.469h-162.437c-5.224 0-9.468 4.252-9.468 9.469z" fill="#fff"/><path d="m241.406 161.476 75.711 80.57h3.107l-78.818-83.877zm0 6.941 69.187 73.629h3.104l-72.291-76.932zm0 6.945 62.662 66.684h3.109l-65.771-69.992zm0 6.94 56.143 59.744h3.104l-59.246-63.049v3.305zm.38-27.364 81.853 87.107h3.107l-83.969-89.359c-.423.7-.757 1.452-.991 2.252zm13.355-6.835 88.275 93.943h3.109l-88.277-93.943zm-4.267 0c-.701 0-1.384.082-2.042.232l88.063 93.711h3.105l-88.277-93.943zm-9.468 41.14 49.615 52.803h3.107l-52.723-56.107v3.304zm3.057-38.619 85.908 91.422h3.105l-87.169-92.762c-.672.369-1.286.824-1.844 1.34zm-3.057 66.607 23.316 24.814h3.105l-26.422-28.121v3.307zm0 13.885 10.27 10.93h3.107l-13.377-14.236zm92.873-83.013 85.691 91.191c.545-.537 1.014-1.145 1.415-1.801l-83.999-89.391h-3.107zm-92.873 48.302 42.887 45.641h3.107l-45.994-48.947zm181.147-40.861-6.639-7.068c-.83-.234-1.699-.373-2.604-.373h-.855l10.322 10.984v-1.516c0-.693-.08-1.369-.224-2.027zm-81.748-7.441 81.648 86.891c.203-.773.324-1.582.324-2.418v-.541l-78.869-83.932zm-92.602 93.552-6.555-6.979c.762 3.346 3.293 6.018 6.555 6.979zm-6.797-31.365 29.84 31.756h3.107l-32.947-35.061zm0 13.883 16.793 17.873h3.105l-19.898-21.18zm0-20.826 36.365 38.699h3.105l-39.471-42.006v3.307zm20.258-55.244 88.274 93.943h3.107l-88.275-93.943zm33.268 0 88.273 93.943h3.111l-88.279-93.943zm71.652 0 56.193 59.797v-3.305l-53.086-56.492zm6.523 0 49.67 52.861v-3.309l-46.564-49.553h-3.106zm-13.044 0 62.715 66.74v-3.307l-59.607-63.434h-3.108zm19.57 0 43.145 45.914v-3.307l-40.037-42.607zm19.775 0 23.369 24.869v-3.305l-20.262-21.564zm-45.556 0 68.926 73.35v-3.303l-65.82-70.047zm52.081 0 16.845 17.93v-3.307l-13.74-14.623zm-137.747 0 88.275 93.943h3.108l-88.276-93.943zm117.971 0 36.62 38.973v-3.309l-33.515-35.664zm6.523 0 30.098 32.029v-3.305l-26.992-28.725h-3.106zm-104.272 0 88.278 93.943h3.104l-88.275-93.943zm-6.521 0 88.277 93.943h3.104l-88.276-93.943zm19.57 0 88.275 93.943h3.107l-88.277-93.943zm-26.746 0 88.277 93.943h3.104l-88.277-93.943zm53.045 0 87.971 93.617c.795-.213 1.549-.516 2.25-.916l-87.113-92.701zm-6.524 0 88.277 93.943h3.106l-88.278-93.943zm-13.252 0 88.275 93.943h3.107l-88.277-93.943zm39.346 0 75.451 80.293v-3.305l-72.346-76.988zm-32.824 0 88.277 93.943h3.107l-88.277-93.943z" fill="#ccc" opacity=".35"/><path d="m66.968 133.155h21.46v14.217h37.447s0-13.337 0-14.217h21.46l-40.183-32.161z" fill="url(#g)"/><path d="m107.151 100.393-.588.47-38.842 31.087-2.095 1.676h2.683 19.648v13.275.941h.941 36.505.941v-.941-13.275h19.648 2.683l-2.095-1.676-38.842-31.088zm-38.842 32.293 38.843-31.088 38.842 31.088h-20.59v.94 13.275h-36.506v-14.216h-20.589z" fill="#1e2d5e"/><path d="m213.477 46.124c-.88 0-14.219 0-14.219 0v37.444h14.219v21.464l32.158-40.185-32.158-40.186z" fill="url(#h)"/><path d="m213.006 23.32v2.682 19.651h-13.277-.941v.941 36.503.941h.941 13.277v19.653 2.682l1.676-2.094 31.085-38.844.47-.588-.47-.588-31.085-38.845zm.94 2.682 31.085 38.845-31.085 38.844v-20.593h-14.218v-36.504h13.277.94v-20.592z" fill="#1e2d5e"/><path d="m195.296 197.401 32.159 40.185s0-20.562 0-21.46h14.217v-37.445s-13.337 0-14.217 0c0-.898 0-21.46 0-21.46z" fill="url(#i)"/><path d="m227.926 155.881-1.677 2.094-31.086 38.839-.47.588.47.588 31.086 38.844 1.677 2.095v-2.683-19.648h13.274.941v-.941-36.504-.941h-.941-13.274v-19.647zm-32.028 41.52 31.086-38.839v19.647.941h.941 13.275v36.504h-14.216v.941 19.648z" fill="#1e2d5e"/><path d="m330.188 157.626-38.846-31.086h20.594v-14.215h36.503v14.215h20.59z" fill="url(#j)"/></svg>