<svg enable-background="new 0 0 354 355" height="355" viewBox="0 0 354 355" width="354" xmlns="http://www.w3.org/2000/svg" xmlns:xlink="http://www.w3.org/1999/xlink"><linearGradient id="a" gradientUnits="userSpaceOnUse" x1="310.20309" x2="231.6548" y1="298.58499" y2="273.54059"><stop offset="0" stop-color="#5cb41b"/><stop offset="1" stop-color="#448e0e"/></linearGradient><mask id="b" height="142.801" maskUnits="userSpaceOnUse" width="283.164" x="53.889" y="204.543"><path d="m212.621 235.004 25.899-25.9 38.419-1.991 42.122-13.093 6.261 30.168 20.491 46.108v22.766l-7.4 22.766-22.767-14.23-26.751 13.091-25.617 21.629-44.967 12.527-49.518 13.087-50.092-13.661-23.337-14.229h-18.213l-10.244-10.243-21.632-23.342-12.521-23.903 24.475-15.938 22.769-10.246 25.613-26.753 10.244-17.074 51.228 33.014z" fill="url(#f)"/></mask><linearGradient id="c" gradientUnits="userSpaceOnUse" x1="102.479" x2="3.4378" y1="181.66409" y2="221.5083"><stop offset="0" stop-color="#fa7700"/><stop offset="1" stop-color="#fda904"/></linearGradient><mask id="d" height="271.886" maskUnits="userSpaceOnUse" width="175.503" x="8.322" y="32.726"><path d="m3.725 281.676 88.796 71.719 40.981-111.563.568-96.191 67.736-6.263-20.49-62.611 2.276-66.031-114.979 45.539v5.691l-64.888 126.36z" fill="url(#g)"/></mask><linearGradient id="e" gradientUnits="userSpaceOnUse" x1="187.31149" x2="274.9686" y1="59.868698" y2="163.4633"><stop offset="0" stop-color="#0d69c8"/><stop offset="1" stop-color="#1b3962"/></linearGradient><linearGradient id="f" gradientUnits="userSpaceOnUse" x1="221.4453" x2="41.0089" y1="276.06049" y2="260.69229"><stop offset="0" stop-color="#fff"/><stop offset="1"/></linearGradient><linearGradient id="g" gradientUnits="userSpaceOnUse" x1="57.358898" x2="191.6898" y1="235.7139" y2="56.9851"><stop offset="0" stop-color="#fff"/><stop offset=".1309" stop-color="#fbfbfb"/><stop offset=".2572" stop-color="#f0f0f0"/><stop offset=".3816" stop-color="#dcdcdc"/><stop offset=".5049" stop-color="#c1c1c1"/><stop offset=".6274" stop-color="#9e9e9e"/><stop offset=".7494" stop-color="#727272"/><stop offset=".871" stop-color="#3f3f3f"/><stop offset=".9893" stop-color="#060606"/><stop offset="1"/></linearGradient><path d="m203.229 99.475s93.227 39.093 45.104 131.471l68.039-26.402 12.335 58.275c13.414-58.141 25.801-190.138-127.55-218.834l-1.053-38.165-74.276 66.769 77.847 62.569z" fill="url(#e)"/><path d="m183.825 119.202-57.998-46.614 44.343-39.862c-55.391 16.2-182.257 70.64-129.322 220.951l-32.526 19.992 94.961 30.942 15.263-98.699-30.679 18.224s-13.138-103.247 95.958-104.934z" fill="url(#c)" mask="url(#d)"/><path d="m316.371 204.543-93.11 36.13 31.124 17.46s-83.099 63.191-139.109-31.068l-11.992 77.547-49.395-16.094c45.815 41.318 150.817 110.805 249.587-4.438l33.577 18.171z" fill="url(#a)" mask="url(#b)"/></svg>