<svg enable-background="new 0 0 263.986 263.987" height="263.987" viewBox="0 0 263.986 263.987" width="263.986" xmlns="http://www.w3.org/2000/svg" xmlns:xlink="http://www.w3.org/1999/xlink"><linearGradient id="a"><stop offset="0" stop-color="#5c85c4"/><stop offset="1" stop-color="#22579f"/></linearGradient><linearGradient id="b" gradientTransform="matrix(.7071 .7071 -.7071 .7071 166.1357 -134.7245)" gradientUnits="userSpaceOnUse" x1="40.7456" x2="298.2887" xlink:href="#a" y1="153.6919" y2="152.9278"/><linearGradient id="c" gradientTransform="matrix(.7071 .7071 -.7071 .7071 166.1357 -134.7245)" gradientUnits="userSpaceOnUse" x1="41.835" x2="299.3824" xlink:href="#a" y1="153.8657" y2="153.1016"/><linearGradient id="d" gradientTransform="matrix(.7071 .7071 -.7071 .7071 166.1357 -134.7245)" gradientUnits="userSpaceOnUse" x1="42.1865" x2="299.7305" xlink:href="#a" y1="272.5239" y2="271.7598"/><linearGradient id="e" gradientTransform="matrix(.7071 .7071 -.7071 .7071 166.1357 -134.7245)" gradientUnits="userSpaceOnUse" x1="41.0962" x2="298.6375" xlink:href="#a" y1="272.3501" y2="271.586"/><circle cx="131.993" cy="131.994" fill="#fff" r="122.169" stroke="#7c86c1" stroke-width="1.637"/><path d="m131.992 13.692c-31.417 0-60.956 12.174-83.255 34.273.778.778 82.494 82.495 83.255 83.256.761-.761 82.477-82.476 83.256-83.256-22.299-22.099-51.839-34.273-83.256-34.273z" fill="url(#b)"/><path d="m131.992 13.148c-30.419 0-60.828 11.601-84.036 34.809l84.036 84.036 83.265-83.264.772-.772c-23.204-23.203-53.625-34.809-84.037-34.809zm-82.489 34.812c11.068-10.871 23.906-19.313 38.177-25.1 7.02-2.847 14.361-5.022 21.819-6.466 7.388-1.43 14.956-2.156 22.493-2.156 7.535 0 15.102.726 22.49 2.156 7.459 1.445 14.8 3.621 21.821 6.468 14.273 5.788 27.112 14.229 38.178 25.098l-82.489 82.488z" fill="#fff"/><path d="m132.764 131.993c.761.761 82.478 82.479 83.257 83.258 22.1-22.3 34.273-51.84 34.273-83.257v-.001c-.001-31.417-12.174-60.956-34.273-83.254-.776.775-82.496 82.492-83.257 83.254z" fill="url(#c)"/><path d="m216.03 47.957-83.266 83.264-.772.772 84.038 84.039v-.001c.258-.258.513-.516.768-.774v-.001c22.693-23.105 34.042-53.185 34.042-83.262-.001-30.416-11.604-60.831-34.81-84.037zm-82.494 84.036 82.49-82.489c10.87 11.066 19.312 23.905 25.099 38.178 2.847 7.02 5.023 14.361 6.467 21.82 1.43 7.388 2.155 14.955 2.155 22.492 0 7.536-.726 15.104-2.155 22.491-1.444 7.459-3.62 14.8-6.467 21.821-5.788 14.271-14.229 27.11-25.099 38.178z" fill="#fff"/><path d="m48.737 216.021c22.299 22.1 51.839 34.273 83.257 34.273 31.417 0 60.957-12.173 83.255-34.272-.779-.779-82.496-82.497-83.257-83.258-.761.761-82.475 82.478-83.255 83.257z" fill="url(#d)"/><path d="m131.992 131.993-84.036 84.038c.258.258.516.514.775.769 23.105 22.694 53.185 34.043 83.262 34.043 30.078 0 60.156-11.348 83.261-34.042.26-.255.518-.511.775-.769zm-82.489 84.035 82.489-82.491 82.49 82.492c-11.067 10.87-23.905 19.312-38.177 25.099-7.02 2.848-14.362 5.023-21.82 6.468-7.388 1.43-14.956 2.155-22.492 2.155s-15.103-.726-22.491-2.155c-7.459-1.444-14.801-3.62-21.821-6.468-14.273-5.789-27.112-14.23-38.178-25.1z" fill="#fff"/><path d="m13.748 131.993c0 30.124 11.413 60.242 34.218 83.257.78-.78 82.494-82.495 83.255-83.256-.761-.761-82.475-82.476-83.255-83.255-22.805 23.012-34.218 53.13-34.218 83.254z" fill="url(#e)"/><path d="m47.956 47.957c-23.206 23.206-34.809 53.621-34.809 84.036 0 30.078 11.347 60.156 34.041 83.262.255.26.511.518.769.775l.772-.771 83.264-83.266zm.003 166.526c-44.887-45.715-44.887-119.265 0-164.979l82.489 82.489z" fill="#fff"/><circle cx="131.993" cy="131.994" fill="#82abe0" r="34.314" stroke="#fff" stroke-width="3.2741"/></svg>