<svg enable-background="new 0 0 532.09 521.91" height="521.91" viewBox="0 0 532.09 521.91" width="532.09" xmlns="http://www.w3.org/2000/svg"><g fill="#314d89"><path d="m268.318 24.354 7.673 16.774 8.285.022-15.958-34.878-16.142 34.794 8.381.025z"/><path d="m268.318 492.471-7.761-16.733-8.381.019 16.142 34.795 15.958-34.877-8.285.019z"/><path d="m264.659 33.092h7.616v450.897h-7.616z"/><path d="m34.167 258.32 16.773-7.675.025-8.285-34.881 15.96 34.796 16.142.023-8.378z"/><path d="m502.282 258.32-16.731 7.764.018 8.378 34.795-16.142-34.877-15.96.022 8.285z"/><path d="m42.904 254.363h450.897v7.616h-450.897z"/></g><path d="m86.825 76.646h360.515v360.514h-360.515z" fill="none" stroke="#1d68aa" stroke-dasharray="5.0758" stroke-width="2.5379"/></svg>