<svg enable-background="new 0 0 414.649 383.351" height="383.351" viewBox="0 0 414.649 383.351" width="414.649" xmlns="http://www.w3.org/2000/svg" xmlns:xlink="http://www.w3.org/1999/xlink"><linearGradient id="a"><stop offset=".0053" stop-color="#70a4ef"/><stop offset="1" stop-color="#4e76b8"/></linearGradient><linearGradient id="b" gradientUnits="userSpaceOnUse" x1="40.2295" x2="100.4419" xlink:href="#a" y1="273.8037" y2="357.2182"/><linearGradient id="c" gradientUnits="userSpaceOnUse" x1="170.0322" x2="230.2447" xlink:href="#a" y1="273.8027" y2="357.2172"/><linearGradient id="d" gradientUnits="userSpaceOnUse" x1="299.8369" x2="360.0493" xlink:href="#a" y1="273.8027" y2="357.2172"/><linearGradient id="e" gradientUnits="userSpaceOnUse" x1="308.3311" x2="146.2504" y1="200.6133" y2="68.4561"><stop offset="0" stop-color="#143777"/><stop offset=".8539" stop-color="#1d68aa"/></linearGradient><path d="m206.782 174.292v19.864 32.628" fill="none" stroke="#8c8c8c" stroke-width="4.8454"/><path d="m75.904 226.784v-32.303h256.807v32.303" fill="none" stroke="#8c8c8c" stroke-width="4.8454"/><path d="m48.491 266.819c0 6.507 2.618 12.666 7.242 17.401-5.334 0-21.439 0-21.439 0-5.134 0-9.312 4.135-9.312 9.217l.006-.13-5.28 57.225h112.643l-5.007-57.218.005.123c0-5.082-4.176-9.217-9.31-9.217 0 0-16.119 0-21.454 0 4.624-4.736 7.242-10.895 7.242-17.401 0-14.262-12.412-25.865-27.668-25.865-15.255 0-27.668 11.604-27.668 25.865z" fill="#355787"/><path d="m76.161 239.544c-7.73 0-15.008 2.813-20.491 7.919-5.539 5.159-8.59 12.033-8.59 19.357 0 5.82 1.958 11.388 5.515 15.989h-18.302c-5.865 0-10.646 4.693-10.721 10.489l-5.127 55.564-.284 3.081h3.094 109.557 3.08l-.269-3.068-4.863-55.567c-.07-5.801-4.852-10.499-10.719-10.499h-18.317c3.558-4.602 5.515-10.169 5.515-15.989 0-7.324-3.05-14.198-8.589-19.357-5.483-5.106-12.759-7.919-20.489-7.919zm-26.259 27.276c0-13.506 11.756-24.454 26.259-24.454 14.501 0 26.256 10.948 26.256 24.454 0 7.565-3.691 14.327-9.484 18.812h2.822 1.461 20.825c4.361 0 7.898 3.494 7.898 7.807l4.873 55.684h-109.557l5.138-55.684c0-4.313 3.538-7.807 7.9-7.807h20.809 1.462 2.822c-5.794-4.485-9.484-11.246-9.484-18.812z" fill="#fff"/><path d="m125.939 293.438c0-4.312-3.537-7.806-7.898-7.806h-25.107c5.793-4.485 9.484-11.246 9.484-18.813 0-13.506-11.756-24.454-26.257-24.454-14.503 0-26.259 10.948-26.259 24.454 0 7.566 3.69 14.327 9.484 18.813h-25.092c-4.362 0-7.9 3.494-7.9 7.806l-5.138 55.684h109.557z" fill="url(#b)"/><path d="m178.293 266.819c0 6.506 2.619 12.665 7.244 17.401-5.334 0-21.439 0-21.439 0-5.135 0-9.313 4.135-9.313 9.217l.006-.13-5.279 57.225h112.642l-5.007-57.218.006.123c0-5.082-4.177-9.217-9.31-9.217 0 0-16.117 0-21.453 0 4.624-4.735 7.242-10.894 7.242-17.401 0-14.262-12.412-25.865-27.668-25.865-15.257 0-27.671 11.604-27.671 25.865z" fill="#355787"/><path d="m205.964 239.544c-7.731 0-15.008 2.813-20.492 7.919-5.539 5.158-8.59 12.033-8.59 19.357 0 5.819 1.958 11.387 5.517 15.989h-18.301c-5.867 0-10.647 4.693-10.722 10.49l-5.126 55.563-.284 3.081h3.094 109.555 3.079l-.269-3.068-4.861-55.567c-.07-5.801-4.854-10.499-10.721-10.499h-18.314c3.558-4.602 5.515-10.169 5.515-15.989 0-7.324-3.05-14.198-8.589-19.357-5.484-5.106-12.761-7.919-20.491-7.919zm-26.26 27.276c0-13.506 11.756-24.454 26.26-24.454 14.502 0 26.257 10.948 26.257 24.454 0 7.565-3.689 14.327-9.484 18.812h2.821 1.464 20.821c4.362 0 7.899 3.494 7.899 7.807l4.872 55.684h-109.555l5.137-55.684c0-4.313 3.538-7.807 7.901-7.807h20.809 1.462 2.822c-5.793-4.485-9.486-11.246-9.486-18.812z" fill="#fff"/><path d="m255.742 293.438c0-4.312-3.537-7.806-7.898-7.806h-25.107c5.795-4.485 9.485-11.246 9.485-18.813 0-13.506-11.755-24.454-26.257-24.454-14.504 0-26.261 10.948-26.261 24.454 0 7.566 3.693 14.327 9.486 18.813h-25.093c-4.363 0-7.901 3.494-7.901 7.806l-5.137 55.684h109.555z" fill="url(#c)"/><path d="m308.099 266.819c0 6.507 2.618 12.665 7.242 17.401-5.334 0-21.439 0-21.439 0-5.134 0-9.312 4.135-9.312 9.217l.006-.13-5.278 57.225h112.642l-5.008-57.218.006.123c0-2.465-.971-4.782-2.733-6.523-1.758-1.736-4.093-2.693-6.576-2.693 0 0-16.119 0-21.454 0 4.624-4.736 7.242-10.895 7.242-17.401 0-14.262-12.412-25.865-27.669-25.865s-27.669 11.603-27.669 25.864z" fill="#355787"/><path d="m335.767 239.544c-7.729 0-15.007 2.813-20.49 7.919-5.539 5.159-8.589 12.033-8.589 19.357 0 5.819 1.957 11.387 5.516 15.989h-18.302c-5.867 0-10.647 4.693-10.723 10.49l-5.125 55.563-.284 3.081h3.095 109.555 3.08l-.269-3.068-4.863-55.567c-.07-5.801-4.852-10.499-10.719-10.499h-18.316c3.557-4.603 5.515-10.17 5.515-15.989 0-7.324-3.05-14.198-8.589-19.357-5.485-5.106-12.762-7.919-20.492-7.919zm-26.258 27.276c0-13.506 11.755-24.454 26.258-24.454s26.259 10.948 26.259 24.454c0 7.565-3.692 14.327-9.484 18.812h2.822 1.462 20.823c4.36 0 7.897 3.494 7.897 7.807l4.873 55.684h-109.555l5.136-55.685c0-4.313 3.539-7.807 7.901-7.807h20.809 1.462 2.822c-5.793-4.484-9.485-11.245-9.485-18.811z" fill="#fff"/><path d="m385.547 293.438c0-4.312-3.537-7.806-7.898-7.806h-25.107c5.793-4.485 9.484-11.246 9.484-18.813 0-13.506-11.755-24.454-26.258-24.454s-26.258 10.948-26.258 24.454c0 7.566 3.691 14.327 9.484 18.813h-25.093c-4.362 0-7.9 3.494-7.9 7.806l-5.137 55.684h109.556z" fill="url(#d)"/><path d="m174.53 62.386c0 7.667 3.085 14.922 8.534 20.502-6.286 0-25.263 0-25.263 0-6.049 0-10.971 4.873-10.971 10.862l.007-.153-6.219 67.425h132.722l-5.898-67.417.006.145c0-5.989-4.92-10.862-10.969-10.862 0 0-18.992 0-25.278 0 5.448-5.58 8.533-12.836 8.533-20.502 0-16.805-14.625-30.478-32.602-30.478s-32.602 13.673-32.602 30.478z" fill="#355787"/><path d="m207.131 30.247c-9.108 0-17.683 3.314-24.144 9.332-3.164 2.947-5.651 6.384-7.391 10.217-1.811 3.987-2.729 8.224-2.729 12.591 0 6.857 2.307 13.416 6.499 18.839h-21.566c-6.91 0-12.542 5.529-12.632 12.359l-6.039 65.47-.335 3.63h3.646 129.085 3.628l-.316-3.615-5.728-65.472c-.083-6.836-5.718-12.372-12.632-12.372h-21.581c4.192-5.423 6.5-11.982 6.5-18.839 0-4.367-.919-8.604-2.729-12.591-1.741-3.833-4.228-7.27-7.392-10.217-6.461-6.018-15.036-9.332-24.144-9.332zm-30.939 32.14c0-15.914 13.851-28.815 30.939-28.815s30.94 12.901 30.94 28.815c0 8.914-4.351 16.879-11.178 22.164h3.325 1.724 24.535c5.141 0 9.308 4.119 9.308 9.199l5.74 65.61h-129.085l6.052-65.61c0-5.08 4.17-9.199 9.308-9.199h24.521 1.723 3.325c-6.828-5.285-11.177-13.25-11.177-22.164z" fill="#fff"/><path d="m265.785 93.75c0-5.08-4.167-9.199-9.307-9.199h-29.584c6.827-5.285 11.177-13.25 11.177-22.165 0-15.914-13.852-28.815-30.939-28.815s-30.939 12.901-30.939 28.815c0 8.915 4.349 16.879 11.177 22.165h-29.568c-5.139 0-9.309 4.119-9.309 9.199l-6.052 65.609h129.085z" fill="url(#e)"/></svg>