<svg enable-background="new 0 0 480.684 305.687" height="305.687" viewBox="0 0 480.684 305.687" width="480.684" xmlns="http://www.w3.org/2000/svg" xmlns:xlink="http://www.w3.org/1999/xlink"><linearGradient id="a" gradientUnits="userSpaceOnUse" x1="173.8086" x2="311.7548" y1="83.2627" y2="249.5531"><stop offset="0" stop-color="#ffc10e"/><stop offset=".4881" stop-color="#f66f19"/><stop offset="1" stop-color="#ec1c24"/></linearGradient><path d="m350.533 86.397c-139.968 216.092-332.73 197.674-332.73 197.674s265.201 44.203 401.486-165.752l50.337 30.697-36.833-142.423-137.51 55.252z" fill="url(#a)"/><g fill="#fff"><circle cx="350.533" cy="145.331" opacity=".48" r="22.1"/><circle cx="350.533" cy="145.331" r="11.459"/><circle cx="294.054" cy="199.354" opacity=".48" r="16.78"/><circle cx="294.056" cy="199.354" r="8.7"/><path d="m247.861 239.683c0 7.449-6.036 13.486-13.482 13.486-7.448 0-13.484-6.037-13.484-13.486 0-7.444 6.036-13.484 13.484-13.484 7.446-.001 13.482 6.039 13.482 13.484z" opacity=".48"/><circle cx="234.377" cy="239.683" r="6.991"/><circle cx="172.5" cy="265.658" opacity=".48" r="9.392"/><circle cx="172.501" cy="265.658" r="4.869"/></g></svg>