<svg enable-background="new 0 0 300 169.333" height="169.333" viewBox="0 0 300 169.333" width="300" xmlns="http://www.w3.org/2000/svg" xmlns:xlink="http://www.w3.org/1999/xlink"><linearGradient id="a"><stop offset="0" stop-color="#1b3962"/><stop offset="1" stop-color="#0d69c8"/></linearGradient><linearGradient id="b" gradientUnits="userSpaceOnUse" x1="86.6626" x2="10.9191" xlink:href="#a" y1="159.7173" y2="121.2803"/><linearGradient id="c" gradientUnits="userSpaceOnUse" x1="110.5273" x2="86.7868" xlink:href="#a" y1="137.4946" y2="125.0591"/><linearGradient id="d" gradientUnits="userSpaceOnUse" x1="141.5073" x2="29.5877" xlink:href="#a" y1="87.5918" y2="126.0288"/><linearGradient id="e" gradientUnits="userSpaceOnUse" x1="176.6621" x2="100.9194" xlink:href="#a" y1="158.7173" y2="120.2807"/><linearGradient id="f" gradientUnits="userSpaceOnUse" x1="200.5273" x2="176.7859" xlink:href="#a" y1="136.4946" y2="124.0586"/><linearGradient id="g" gradientUnits="userSpaceOnUse" x1="231.5073" x2="119.5877" xlink:href="#a" y1="86.5918" y2="125.0288"/><linearGradient id="h"><stop offset="0" stop-color="#0d69c8"/><stop offset="1" stop-color="#0683f4"/></linearGradient><linearGradient id="i" gradientUnits="userSpaceOnUse" x1="176.6621" x2="100.9194" xlink:href="#h" y1="112.3672" y2="73.9306"/><linearGradient id="j" gradientUnits="userSpaceOnUse" x1="200.5273" x2="176.7868" xlink:href="#h" y1="90.144" y2="77.7085"/><linearGradient id="k"><stop offset="0" stop-color="#0683f4"/><stop offset="1" stop-color="#2ca5ff"/></linearGradient><linearGradient id="l" gradientUnits="userSpaceOnUse" x1="198.7559" x2="138.2742" xlink:href="#k" y1="55.2773" y2="71.1044"/><linearGradient id="m" gradientUnits="userSpaceOnUse" x1="268.2349" x2="192.4913" xlink:href="#a" y1="158.1528" y2="119.7158"/><linearGradient id="n" gradientUnits="userSpaceOnUse" x1="292.0986" x2="268.36" xlink:href="#a" y1="135.9292" y2="123.4947"/><linearGradient id="o" gradientUnits="userSpaceOnUse" x1="323.0791" x2="211.16" xlink:href="#a" y1="86.0264" y2="124.4632"/><linearGradient id="p" gradientUnits="userSpaceOnUse" x1="268.2354" x2="192.4918" xlink:href="#h" y1="111.8018" y2="73.3647"/><linearGradient id="q" gradientUnits="userSpaceOnUse" x1="292.0986" x2="268.3591" xlink:href="#h" y1="89.5781" y2="77.1431"/><linearGradient id="r" gradientUnits="userSpaceOnUse" x1="290.3271" x2="229.8457" xlink:href="#k" y1="54.7114" y2="70.5384"/><linearGradient id="s"><stop offset="0" stop-color="#5ac0ff"/><stop offset="1" stop-color="#92dbff"/></linearGradient><linearGradient id="t" gradientUnits="userSpaceOnUse" x1="268.2349" x2="192.4913" xlink:href="#s" y1="66.0161" y2="27.5791"/><linearGradient id="u" gradientUnits="userSpaceOnUse" x1="292.0996" x2="268.3591" xlink:href="#s" y1="43.793" y2="31.3575"/><linearGradient id="v" gradientUnits="userSpaceOnUse" x1="290.3281" x2="229.8467" xlink:href="#s" y1="8.9272" y2="24.7542"/><path d="m32.094 105.235-20.536 18.652.188 36.554h81.019l18.653-19.218v-35.611z" fill="#0d69c8"/><path d="m11.746 124.264h81.019v36.177h-80.642" fill="url(#b)"/><path d="m111.23 105.612-18.465 18.652v36.177l18.465-19.595z" fill="url(#c)"/><path d="m32.095 105.235 79.135.377-18.465 18.652h-81.019z" fill="url(#d)"/><path d="m12.971 123.041 79.135-.189 16.958-17.524 2.166.284-17.993 18.558-81.491.094z" fill="#fff" opacity=".1"/><path d="m92.053 123.852.005 36.07 1.414.096v-36.178z" fill="#fff" opacity=".1"/><path d="m122.094 104.235-20.536 18.652.188 36.554h81.019l18.653-19.218v-35.611z" fill="#0d69c8"/><path d="m101.746 123.264h81.019v36.177h-80.642" fill="url(#e)"/><path d="m201.23 104.612-18.465 18.652v36.177l18.465-19.595z" fill="url(#f)"/><path d="m122.095 104.235 79.135.377-18.465 18.652h-81.019z" fill="url(#g)"/><path d="m102.971 122.041 79.135-.189 16.958-17.524 2.166.284-17.993 18.558-81.491.094z" fill="#fff" opacity=".1"/><path d="m182.053 122.852.005 36.07 1.414.096v-36.178z" fill="#fff" opacity=".1"/><path d="m122.094 57.883-20.536 18.654.188 36.553h81.019l18.653-19.217v-35.612z" fill="#0077e2"/><path d="m101.746 76.915h81.019v36.175h-80.642" fill="url(#i)"/><path d="m201.23 58.261-18.465 18.654v36.175l18.465-19.595z" fill="url(#j)"/><path d="m122.095 57.883 79.135.378-18.465 18.654h-81.019z" fill="url(#l)"/><path d="m102.971 75.69 79.135-.189 16.958-17.523 2.166.283-17.993 18.559-81.491.095z" fill="#fff" opacity=".1"/><path d="m182.053 76.501.005 36.07 1.414.096v-36.177z" fill="#fff" opacity=".1"/><path d="m213.667 103.668-20.537 18.655.188 36.552h81.019l18.654-19.218v-35.611z" fill="#0d69c8"/><path d="m193.318 122.7h81.019v36.175h-80.642" fill="url(#m)"/><path d="m292.802 104.046-18.465 18.654v36.175l18.465-19.595z" fill="url(#n)"/><path d="m213.667 103.668 79.135.378-18.465 18.654h-81.019z" fill="url(#o)"/><path d="m194.542 121.475 79.136-.189 16.958-17.523 2.166.283-17.994 18.559-81.49.095z" fill="#fff" opacity=".1"/><path d="m273.625 122.287.005 36.07 1.414.095v-36.177z" fill="#fff" opacity=".1"/><path d="m213.667 57.319-20.537 18.653.188 36.553h81.019l18.654-19.219v-35.61z" fill="#0077e2"/><path d="m193.318 76.348h81.019v36.177h-80.642" fill="url(#p)"/><path d="m292.802 57.696-18.465 18.652v36.177l18.465-19.596z" fill="url(#q)"/><path d="m213.667 57.319 79.135.377-18.465 18.652h-81.019z" fill="url(#r)"/><path d="m194.542 75.125 79.136-.189 16.958-17.523 2.166.283-17.994 18.558-81.49.094z" fill="#fff" opacity=".1"/><path d="m273.625 75.936.005 36.07 1.414.096v-36.177z" fill="#fff" opacity=".1"/><path d="m213.667 11.534-20.537 18.653.188 36.553h81.019l18.654-19.219v-35.61z" fill="#5ac0ff"/><path d="m193.318 30.563h81.019v36.177h-80.642" fill="url(#t)"/><path d="m292.802 11.911-18.465 18.652v36.177l18.465-19.595z" fill="url(#u)"/><path d="m213.667 11.534 79.135.377-18.465 18.652h-81.019z" fill="url(#v)"/><path d="m194.542 29.339 79.136-.188 16.958-17.524 2.166.284-17.994 18.558-81.49.094z" fill="#fff" opacity=".1"/><path d="m273.625 30.152.005 36.069 1.414.095v-36.177z" fill="#fff" opacity=".1"/></svg>