<svg enable-background="new 0 0 372 275.333" height="275.333" viewBox="0 0 372 275.333" width="372" xmlns="http://www.w3.org/2000/svg" xmlns:xlink="http://www.w3.org/1999/xlink"><filter id="a" color-interpolation-filters="sRGB" height="1.058401" width="1.040744" x="-.020372" y="-.0292"><feGaussianBlur stdDeviation="2.9939942"/></filter><linearGradient id="b"><stop offset="0" stop-color="#4591d6"/><stop offset="1" stop-color="#5ac0ff"/></linearGradient><linearGradient id="c" gradientUnits="userSpaceOnUse" x1="230.2944" x2="135.1287" xlink:href="#b" y1="256.4346" y2="143.5261"/><linearGradient id="d" gradientUnits="userSpaceOnUse" x1="214.8472" x2="127.7453" xlink:href="#b" y1="118.0723" y2="-7.7413"/><linearGradient id="e"><stop offset="0" stop-color="#4e76b8"/><stop offset="1" stop-color="#89b4e8"/></linearGradient><linearGradient id="f" gradientUnits="userSpaceOnUse" x1="118.6187" x2="14.5195" xlink:href="#e" y1="186.4961" y2="66.7961"/><linearGradient id="g" gradientUnits="userSpaceOnUse" x1="328.729" x2="198.0763" xlink:href="#e" y1="162.2852" y2="70.3444"/><path d="m148.71484 12.771488-33.99023 58.876954 33.99023 58.873048h67.98438l33.99023-58.873048-33.99023-58.876954zm-107.876949 64.496094-33.9921879 58.875008 33.9921879 58.875h67.980469l33.99219-58.875-33.99219-58.875008zm216.749999 0-33.98828 58.875008 33.98828 58.875h67.98242l33.9961-58.875-33.9961-58.875008zm-108.87305 63.832038-33.99023 58.875 33.99023 58.875h67.98438l33.99023-58.875-33.99023-58.875z" fill="#d5d5d5" filter="url(#a)" transform="matrix(1.0174725 0 0 1.0174725 -.407134 -.517002)"/><path d="m-19.333-49.813h321.494v311.146h-321.494z" fill="none"/><path d="m151.50878 14.627441-33.99023 58.876954 33.99023 58.873045h67.98438l33.99023-58.873045-33.99023-58.876954h-67.98438zm-107.876946 64.496094-33.9921874 58.875005 33.9921874 58.875h67.980466l33.99219-58.875-33.99219-58.875005zm216.749996 0-33.98828 58.875005 33.98828 58.875h67.98242l33.9961-58.875-33.9961-58.875005zm-108.87305 63.832035-33.99023 58.875 33.99023 58.875h67.98438l33.99023-58.875-33.99023-58.875z" fill="#fff"/><g transform="translate(2.795 1.855504)"><path d="m150.412 255.913-32.294-55.938 32.294-55.938h64.59l32.293 55.938-32.293 55.938z" fill="url(#c)"/><path d="m150.412 127.583-32.294-55.935 32.294-55.939 64.59.002 32.293 55.937-32.293 55.935z" fill="url(#d)"/><path d="m42.532 192.08-32.293-55.937 32.293-55.939h64.592l32.293 55.939-32.293 55.937z" fill="url(#f)"/><path d="m259.285 192.08-32.294-55.937 32.294-55.939h64.589l32.297 55.939-32.297 55.937z" fill="url(#g)"/></g></svg>