<svg enable-background="new 0 0 396.867 361.189" height="361.189" viewBox="0 0 396.867 361.189" width="396.867" xmlns="http://www.w3.org/2000/svg" xmlns:xlink="http://www.w3.org/1999/xlink"><radialGradient id="a" cx="178.1138" cy="191.2803" gradientUnits="userSpaceOnUse" r="224.5531"><stop offset="0" stop-color="#75b5d5"/><stop offset=".9953" stop-color="#b3e0f3"/></radialGradient><linearGradient id="b" gradientUnits="userSpaceOnUse" x1="232.5234" x2="122.2882" y1="115.6494" y2="23.7866"><stop offset="0" stop-color="#0d69c8"/><stop offset="1" stop-color="#219cf7"/></linearGradient><linearGradient id="c" gradientUnits="userSpaceOnUse" x1="249.9238" x2="348.4283" y1="204.9424" y2="343.859"><stop offset="0" stop-color="#1d68aa"/><stop offset="1" stop-color="#143777"/></linearGradient><linearGradient id="d" gradientUnits="userSpaceOnUse" x1="90.3281" x2="22.6339" y1="280.6152" y2="212.922"><stop offset="0" stop-color="#4591d6"/><stop offset="1" stop-color="#5ac0ff"/></linearGradient><path d="m292.535 191.278c0 63.196-51.228 114.426-114.422 114.426-63.193 0-114.422-51.229-114.422-114.426 0-63.192 51.229-114.422 114.422-114.422 63.195 0 114.422 51.23 114.422 114.422z" fill="#ededed"/><path d="m288.121 191.278c0 60.756-49.251 110.009-110.008 110.009-60.755 0-110.007-49.253-110.007-110.009 0-60.753 49.252-110.006 110.007-110.006 60.757 0 110.008 49.253 110.008 110.006z" fill="url(#a)"/><path d="m239.428 71.236c0 33.247-26.951 60.196-60.199 60.196-33.243 0-60.197-26.949-60.197-60.196 0-33.246 26.954-60.193 60.197-60.193 33.248 0 60.199 26.947 60.199 60.193z" fill="#ededed"/><path d="m237.102 71.236c0 31.963-25.907 57.875-57.873 57.875-31.962 0-57.874-25.912-57.874-57.875 0-31.962 25.912-57.872 57.874-57.872 31.965 0 57.873 25.91 57.873 57.872z" fill="url(#b)"/><path d="m370.137 268.714c0 41.418-33.577 74.996-74.992 74.996-41.418 0-74.994-33.578-74.994-74.996 0-41.415 33.576-74.991 74.994-74.991 41.415 0 74.992 33.576 74.992 74.991z" fill="#ededed"/><path d="m367.245 268.714c0 39.819-32.284 72.1-72.101 72.1-39.819 0-72.1-32.28-72.1-72.1 0-39.817 32.28-72.098 72.1-72.098 39.817 0 72.101 32.28 72.101 72.098z" fill="url(#c)"/><path d="m123.842 259.587c0 30.124-24.42 54.545-54.547 54.545-30.123 0-54.549-24.421-54.549-54.545 0-30.128 24.426-54.546 54.549-54.546 30.127 0 54.547 24.418 54.547 54.546z" fill="#ededed"/><path d="m121.739 259.587c0 28.959-23.481 52.438-52.444 52.438-28.961 0-52.44-23.479-52.44-52.438 0-28.967 23.479-52.444 52.44-52.444 28.963 0 52.444 23.477 52.444 52.444z" fill="url(#d)"/></svg>