<svg viewBox="0 0 24 24" xmlns="http://www.w3.org/2000/svg"><path d="m19.65625 1.9335938c-4.21875-.023233-12.65625.0619888-12.65625.0664062v2h-5v16h5v2h15v-20c0-.0388487-.9375-.058662-2.34375-.0664062zm-10.65625 2.0664062h11v16h-11v-3h-1-1v1h-3v-12h3v1h1 1zm1 3v1c0 .256892.12983.528462.3125.71875l2.371094 2.28125h-6.683594v2h6.683594l-2.371094 2.28125c-.18267.190301-.3125.46186-.3125.71875v1h1c.30945 0 .55232-.0903.75-.28125l4.25-3.882812v-1.671876l-4.25-3.882812c-.19768-.19095-.44055-.28125-.75-.28125z" fill="#555753"/></svg>