<svg xmlns="http://www.w3.org/2000/svg" viewBox="0 0 16 16">
  <path
     style="fill:#555753"
     d="M 7 1 C 5.3431458 1 4 2.3431458 4 4 L 4 6 L 2 7 L 2 8 L 4 8 L 4 12 C 4 12.552285 3.5522847 13 3 13 C 2.4477153 13 2 12.552285 2 12 L 1 12 L 1 14.220703 C 1.5316543 14.699788 2.2279835 15 3 15 C 4.6568542 15 6 13.656854 6 12 L 6 8 L 8 7 L 8 6 L 6 6 L 6 4 C 6 3.4477153 6.4477153 3 7 3 C 7.5522847 3 8 3.4477153 8 4 L 9 4 L 9 1.7792969 C 8.4683457 1.300212 7.7720165 1 7 1 z M 10 7 L 9 8 L 11.5 10.5 L 9 13 L 10 14 L 12.5 11.5 L 15 14 L 16 13 L 13.5 10.5 L 16 8 L 15 7 L 12.5 9.5 L 10 7 z "
     />
</svg>
