<svg height="24" viewBox="0 0 13.714286 13.714286" width="24" xmlns="http://www.w3.org/2000/svg">
/&amp;amp;gt;<path d="m6.8683027 1.1429592c-.2343467-.0043651-.4498196.1314852-.5521088.3480905l-5.1122937 10.1929593c-.193694.410203.097084.88722.5409492.88742h10.2245876c.443865-.0002.734643-.477217.540949-.88742l-5.1122936-10.1929593c-.098772-.2091661-.3034971-.3436779-.5297897-.3480905z" fill="#d42314" fill-rule="evenodd"/><path d="m6.859375 1.6191406c-.045009-.0008383-.087121.022957-.1113281.074219a.47760053.47760053 0 0 1 -.00391.011719l-5.1074181 10.1835934c-.050509.111957.00765.205033.1074218.205078h10.2246094c.09978-.000045.157931-.09312.107422-.205078l-5.1054689-10.1835939a.47760053.47760053 0 0 1 -.00391-.011719c-.0238798-.0505771-.0640506-.0733728-.1074181-.0742185z" fill="#ff9198" fill-rule="evenodd"/><g fill="#fafafa"><circle cx="6.857143" cy="10.857142" r=".571429"/><rect height="5.142857" ry=".617755" width="1.142857" x="6.285714" y="4.571429"/></g></svg>