<svg viewBox="0 0 16 16" xmlns="http://www.w3.org/2000/svg"><path d="m5.8789062 1.5859375a3.5 3.5 0 0 1 .1210938.9140625 3.5 3.5 0 0 1 -1.5058594 2.8710938v9.2519532l3.5292969-3.556641 1.9023437 3.773438c.4756138 1.257638 3.3294688.628026 2.6953128-1.048828l-2.203125-4.603516h5.08789z" fill="#fff" fill-rule="evenodd"/><path d="m5.4511719.61914062a3.5 3.5 0 0 1 .5429687 1.69140628l8.0859374 6.3828125h-3.662109a.49465095.49465095 0 0 0 -.4453128.7070312l2.1855468 4.5664064c.1115.29483.069977.442886-.033203.595703-.103181.152817-.316504.301728-.578125.380859-.261621.07913-.560373.084148-.775391.023438s-.326628-.15417-.382812-.302735a.49465095.49465095 0 0 0 -.021484-.046874l-1.9023442-3.773438a.49465095.49465095 0 0 0 -.7929688-.125l-2.6835938 2.705078v-8.4667968a3.5 3.5 0 0 1 -.9882812.7011719v8.9648439a.49465095.49465095 0 0 0 .8457031.347656l3.0449219-3.068359 1.59375 3.160156-.0214844-.046875c.1816227.480254.6050334.779797 1.0390624.902344s.898054.101379 1.330078-.029297c.432025-.130673.842905-.375888 1.111328-.773438.268424-.397549.346204-.956403.140625-1.5a.49465095.49465095 0 0 0 -.017578-.037109l-1.865234-3.8964844h4.304687a.49465095.49465095 0 0 0 .306641-.8828125z" fill="#808080" fill-rule="evenodd"/><circle cx="2.5" cy="2.5" fill="#4d82b8" r="2.5"/><circle cx="2.5" cy="2.5" fill="#fff" r="1.5"/></svg>