<svg viewBox="0 0 16 16" xmlns="http://www.w3.org/2000/svg"><path d="m1 6c-.554 0-1 .446-1 1v8c0 .554.446 1 1 1h6.4570312l-1.015625-1h-5.4414062v-8h4.3496094a6 6 0 0 1 -.2636719-1z" fill="#4d82b8"/><path d="m1 7v8h5.4414062l-.1425781-.140625c-.3943812-.388045-.3987548-1.022566-.0097656-1.416016l1.7109375-1.730468v-.46875l-1.7167969-1.7617191c-.2867177-.294647-.3512555-.7192362-.2050781-1.0761719a6 6 0 0 1 -.7285156-1.40625z" fill="#fff"/><path d="m11 0a5 5 0 0 0 -5 5 5 5 0 0 0 .7558594 2.6367188l1.4375-1.3632813c.1828347-.1729234.4241411-.2705619.6757812-.2734375.2702129-.0030983.5301792.1032836.7207032.2949219l1.9160152 1.9277343 1.873047-1.9199218c.381866-.3915887 1.007476-.4037702 1.404297-.0273438l.785156.7480469a5 5 0 0 0 .431641-2.0234375 5 5 0 0 0 -5-5z" fill="#eac282"/><path d="m16 14.149785-2.605902-2.651537 2.50749-2.7777729-1.807553-1.7205858-2.580554 2.6470557-2.6328653-2.6470557-1.8806157 1.783872 2.6328627 2.7031727-2.6328627 2.660005 1.8806157 1.852942 2.6298103-2.77941 2.635919 2.77941z" fill="#e68497"/></svg>