<svg viewBox="0 0 16 16" xmlns="http://www.w3.org/2000/svg"><path d="m8.0000001 1-2.6250001 5h-4.375l3.9999999 3.5-.9999998 5.5 4-3 3.9999989 3-1-5.5 4.000001-3.5h-4.375z" fill="#eac282"/><g fill="#4d82b8"><rect height="1" ry=".5" width="6" y="1"/><rect height="1" ry=".5" width="4" y="4"/><rect height="1" ry=".5" width="4" y="10"/><rect height="1" ry=".5" width="3" y="13"/><rect height="1" ry=".5" width="1" y="7"/><g transform="scale(-1 1)"><rect height="1" ry=".5" width="6" x="-16" y="1"/><rect height="1" ry=".5" width="4" x="-16" y="4"/><rect height="1" ry=".5" width="4" x="-16" y="10"/><rect height="1" ry=".5" width="3" x="-16" y="13"/><rect height="1" ry=".5" width="1" x="-16" y="7"/></g></g></svg>