<svg viewBox="0 0 16 16" xmlns="http://www.w3.org/2000/svg" xmlns:xlink="http://www.w3.org/1999/xlink"><linearGradient id="a" gradientTransform="matrix(1 0 0 -1 -3.999999 20.5)" gradientUnits="userSpaceOnUse" x1="10.999999" x2="10.999999" y1="7" y2="13"><stop offset="0" stop-color="#0040dd"/><stop offset="1" stop-color="#0a84ff"/></linearGradient>









     /&amp;amp;amp;amp;amp;gt;
 <path d="m1 1v5.5c0-.8137028.6862972-1.5 1.5-1.5h1c.8137028 0 1.5.6862972 1.5 1.5v.5c0 .8402718.6597282 1.5 1.5 1.5.0794019 0 .1843301-.0041263.3203125 0 .1010964.0030744.1115639.0007153.0800781.0039062a1.0001 1.0001 0 0 1 .0996094-.0039062v-.4980469c-.0009457-.646197.4456548-1.1437824 1-1.3554687v-5.6464844zm0 6v2h.3964844c-.2469356-.6220842-.3964844-1.2926486-.3964844-2z" fill="#fafafa"/><path d="m1 0c-.554 0-1 .446-1 1v8c0 .554.446 1 1 1h.9003906c-.2040156-.3112221-.3649779-.6500095-.5039062-1h-.3964844v-2-.5-5.5h7v5.6464844c.3194647-.1219932.6713038-.1455002 1-.0410156v-5.6054688c0-.554-.446-1-1-1z" fill="#3a3a38"/><path d="m7 6v2.0019531c-.0017599-1.2025214 1.5374115-1.9244656 2.4609375-1.1542969l2.9980465 2.4980469.001954.0019531c.704745.5872957.704226 1.7204618-.001954 2.3066408l-2.8144528 2.345703h4.3554688v-8zm0 7v1h.4453125c-.2644558-.256645-.4453276-.597374-.4453125-1z" fill="#fafafa"/><path d="m7 5c-.554 0-1 .446-1 1v2.4101562c.1566906.054219.3227422.0898438.5.0898438.0794019 0 .1843301-.0041263.3203125 0 .1010964.0030744.1115639.0007153.0800781.0039062a1.0001 1.0001 0 0 1 .0996094-.0039062v-.4980469-2.0019531h7v8h-4.3554688l-.1835937.152344c-.613662.511759-1.4910224.356765-2.015625-.152344h-.4453125v-1-.5-.003906c-.0984347.002062-.2168503.004107-.2285156.003906-.0719459-.00128-.1609543 0-.2714844 0-.1686683 0-.335092-.010346-.5-.025391v1.525391c0 .554.446 1 1 1h7c.554 0 1-.446 1-1v-8c0-.554-.446-1-1-1z" fill="#3a3a38"/><path d="m2.5 6c-.277 0-.5.223-.5.5v.5c0 2.4852814 2.0147186 4.5 4.5 4.5.099093 0 .1935348-.0017.2890625 0 .069709.0012.1407289.0079.2109375 0h1v1.5c-.0006206.424387.4943865.65657.8203125.384766l2.9999995-2.5c.240889-.199955.240891-.569577 0-.769532l-2.9999995-2.4999996c-.3259262-.2718041-.8209336-.0396222-.8203125.3847656v1.5h-1c-.068168.01384-.1408966.00213-.2109375 0-.095982-.0029125-.1900502 0-.2890625 0-1.3807119 0-2.5-1.1192881-2.5-2.5v-.5c0-.277-.223-.5-.5-.5z" fill="url(#a)"/></svg>