<svg viewBox="0 0 90 90" xmlns="http://www.w3.org/2000/svg"><g stroke-width="3.185185"><path d="m8.37037 17.925926v57.333333h39.174045a22.296296 22.296296 0 0 1 -.951823-6.37037 22.296296 22.296296 0 0 1 22.296297-22.296296 22.296296 22.296296 0 0 1 9.555555 2.183594v-30.850261z" fill="#fafafa"/><path d="m5.185185 14.740741v63.703704h43.584781a22.296296 22.296296 0 0 1 -1.225551-3.185186h-39.174045v-57.333333h70.074074v30.850261a22.296296 22.296296 0 0 1 3.185186 1.82277v-35.858216z" fill="#3a3a38"/><path d="m2 2h82.814815v6.3703702h-82.814815z" fill="#1e8bcd"/><path d="m14.74074 27.481481h57.333334v6.370371h-57.333334z" fill="#fb983b"/><g fill="#3a3a38"><path d="m14.74074 40.222222h3.185186v3.185185h-3.185186z"/><path d="m14.74074 49.777778h3.185186v3.185185h-3.185186z"/><path d="m14.74074 59.333333h3.185186v3.185186h-3.185186z"/><path d="m21.111111 40.222222h38.222222v3.185185h-38.222222z"/><path d="m21.111111 59.333333h15.925926v3.185186h-15.925926z"/><path d="m21.111111 49.777778h19.111111v3.185185h-19.111111z"/></g><circle cx="68.9" cy="68.9" fill="#fafafa" r="15.9"/></g><g transform="matrix(3.4948019 0 0 3.4948019 7.54725 7.502098)"><circle cx="17.5" cy="17.5" fill="#fafafa" r="4.5"/><path d="m17.5 12a5.5 5.5 0 0 0 -5.5 5.5 5.5 5.5 0 0 0 5.5 5.5 5.5 5.5 0 0 0 5.5-5.5 5.5 5.5 0 0 0 -5.5-5.5zm0 1a4.5 4.5 0 0 1 4.5 4.5 4.5 4.5 0 0 1 -4.5 4.5 4.5 4.5 0 0 1 -4.5-4.5 4.5 4.5 0 0 1 4.5-4.5z" fill="#1e8bcd"/><path d="m12.568545 17h9.844933v1h-9.844933z" fill="#1e8bcd"/><g fill="none" stroke="#1e8bcd"><path d="m17 22c-1.387224-2.634108-2.531504-5.332342 0-9" stroke-linecap="square"/><path d="m18.004067 22c1.387224-2.634108 2.531504-5.332342 0-9" stroke-linecap="square"/><g stroke-opacity=".992157"><path d="m13.478658 14.449432c2.336607 1.442656 5.670005 1.336285 8.006729 0"/><path d="m13.478658 20.56596c2.336607-1.442656 5.670005-1.336285 8.006729 0"/></g></g></g></svg>