<svg height="64" viewBox="0 0 16.933333 16.933334" width="64" xmlns="http://www.w3.org/2000/svg"><g fill-opacity=".501961" transform="translate(0 -280.06665)"><path d="m.30273438 0-.30273438.30273438v4.24218752l4.5449219-4.5449219zm8.48437502 0-8.7871094 8.7871094v4.2421876l13.029297-13.029297zm8.4863286 0-17.273438 17.271484v4.242188l21.515625-21.513672zm8.484374 0-25.757812 25.755859v4.246094l30-30.001953zm8.484376 0-34.242188 34.244141v4.242187l38.484375-38.486328zm8.484374 0-42.726562 42.728516v4.242187l46.96875-46.970703zm8.488282 0-51.214844 51.212891v4.242187l55.457031-55.455078zm8.484375 0-59.699219 59.697266v4.242187l63.941406-63.939453zm4.300781 4.1835938-59.8144531 59.8164062h4.2421875l55.5722656-55.5742188zm0 8.4843752-51.330078 51.332031h4.242187l47.087891-47.089844zm0 8.488281-42.845703 42.84375h4.242187l38.603516-38.601562zm0 8.484375-34.361328 34.359375h4.242187l30.119141-30.117188zm0 8.484375-25.876953 25.875h4.246094l21.630859-21.632812zm0 8.484375-17.388672 17.390625h4.242188l13.146484-13.146484zm0 8.486328-8.904297 8.904297h4.242188l4.662109-4.662109zm0 8.484375-.419922.419922h.419922z" fill="#808080" transform="matrix(.26458333 0 0 .26458333 0 280.06665)"/><path d="m0 280.06665h16.933332v16.93333h-16.933332z" fill="#cbcbcb"/></g></svg>