<svg height="128" viewBox="0 0 128 128" width="128" xmlns="http://www.w3.org/2000/svg"><g transform="translate(832.57143 85.923541)"><g fill="#a1ddaa"><path d="m18 .02539063c-4.15175 0-6.01832 3.48502087-6 5.99804687v115.9687525c.0004 4.1875 1.81145 5.99764 6 5.99804h75.253906c-.477462-.90005-.753906-1.91725-.753906-2.99023v-18c0-3.3641 2.696503-6.12193 6-6.39648v-2.566411c-.004812-.462167.014707-.91868.056641-1.36914-.043885.450935-.073185.905701-.06836 1.36914v2.556641c-3.304269.28055-6 3.03992-6 6.40625v14.99609h-72.488281-2v-2-111.9999962-2h2 46.25.875l.5.5 41.75 42.0000002.625.625v.875 34.658203c-.09169.013797-.18036.037093-.27148.052734.74095-.12711 1.49759-.207031 2.27148-.207031 1.38954 0 2.73316.215149 3.99805.611328v-34.9375c.048-2.111901-.78003-4.232189-2.25-5.75l-42.162112-42.1484374c-1.51821-1.46918994-3.637562-2.29894099-5.75-2.24999997zm81.068359 94.04687537c-.114249.375401-.208818.758515-.291015 1.146484.080473-.388033.177215-.771387.291015-1.146484zm-.333984 1.375c-.075467.389495-.133727.78491-.173828 1.185546.038429-.401082.100117-.795485.173828-1.185546z" transform="translate(-832.57143 -85.923541)"/><path d="m-745.9369-85.865323c-2.66247.852789-3.55852 4.906018-1.50595 6.812079l24.09514 24.220931c2.22593 2.121657 6.65945.306281 6.77673-2.775324v-24.220851c-.00024-2.113661-1.91322-4.036595-4.01586-4.036835h-24.09514c-.41519-.06397-.83997-.06397-1.25492 0z"/><path d="m30.998047 47.996094v2 8 2 8 2 8 2 8 2 8 2h25v-2h-4.001953v-8h4.001953v-2h-4.001953v-8h4.001953v-2h-4.001953v-8h18v6h2.001953v-6h17v6h2v-28h-58zm2 12h17v8h-17zm18.998047 0h18v8h-18zm20.001953 0h17v8h-17zm-39 10h17v8h-17zm0 10h17v8h-17zm0 10h17v8h-17z" transform="translate(-832.57143 -85.923541)"/></g><g fill="#3a3a38"><path d="m-799.57265-35.928356h17v8h-17z"/><path d="m-780.57441-35.928356h17.99994v8h-17.99994z"/><path d="m-760.57265-35.928356h17v8h-17z"/></g><path d="m55.998047 75.996094v27.999996h39v-27.999996zm2 2h35v23.999996h-35z" fill="#a1ddaa" transform="translate(-832.57143 -85.923541)"/><path d="m-772.57265-.92835556h7v15.99990056h-7z" fill="#83beec"/><path d="m-764.57265-5.9283556h7v20.9999006h-7z" fill="#ff9198"/><path d="m-756.57265 5.0716444h7v9.9999006h-7z" fill="#f8db8f"/><path d="m-748.57265 1.0716444h7v14.0000006h-7z" fill="#a1ddaa"/><path d="m-774.57265 15.071645h35v1h-35z" fill="none" opacity=".75"/><path d="m-763.57143-4.92354h5v19h-5z" fill="#d42314" stroke-width=".803904"/><path d="m-755.57143 6.07646h5v8h-5z" fill="#ed8733" stroke-width=".755933"/><path d="m-771.57143.07646h5v14h-5z" fill="#0063b1" stroke-width=".790572"/><g fill="#309048"><path d="m-747.57143 2.07646h5v12h-5z" stroke-width=".782461"/><g fill-opacity=".982993"><path d="m-799.57141-35.923538h17v8h-17z"/><path d="m-760.57143-35.92354h17v8h-17z"/><path d="m-780.57143-35.92354h18v8h-18z"/></g></g></g><path d="m112 88c-5.52285 0-10.0575 4.477452-10 10v6h-3c-1.662 0-3 1.338-3 3v18c0 1.662 1.338 3 3 3h26c1.662 0 3-1.338 3-3v-18c0-1.662-1.33853-2.95787-3-3h-3v-6c0-5.522847-4.47715-10-10-10zm0 4c3.31371 0 6 2.686291 6 6v6h-12v-6c0-3.313709 2.68629-6 6-6zm-14 14h28v20h-28zm14.5 3a4.5 4.5 0 0 0 -4.5 4.5 4.5 4.5 0 0 0 2 3.74023v4.75977c0 .554.446 1 1 1h3c.554 0 1-.446 1-1v-4.76172a4.5 4.5 0 0 0 2-3.73828 4.5 4.5 0 0 0 -4.5-4.5zm0 1a3.5 3.5 0 0 1 3.5 3.5 3.5 3.5 0 0 1 -2 3.1582v4.8418c0 .277-.223.5-.5.5h-2c-.277 0-.5-.223-.5-.5v-4.8418a3.5 3.5 0 0 1 -2-3.1582 3.5 3.5 0 0 1 3.5-3.5z" fill="#f8db8f"/><path d="m98 106v20h28v-20zm14.5 3a4.5 4.5 0 0 1 4.5 4.5 4.5 4.5 0 0 1 -2 3.73828v4.76172c0 .554-.446 1-1 1h-3c-.554 0-1-.446-1-1v-4.75977a4.5 4.5 0 0 1 -2-3.74023 4.5 4.5 0 0 1 4.5-4.5z" fill="#ed8733" fill-opacity=".978947"/></svg>