<svg viewBox="0 0 16 16" xmlns="http://www.w3.org/2000/svg"><path d="m15 1v12c-5-.5-5.3695493 1.147644-7.0234375 1.054688l-.9765625-.054688c-2-1.5-5.5-1-7-1l1 1c1.5 0 4-.5 6 1l1.9765625.054688c1.6558605.045984 2.0234375-1.054688 7.0234375-1.054688v-12z" fill="#83beec"/><path d="m0 1v12c1.5 0 5-.5 7 1l.9765625.054688c1.6538882.092956 2.0234375-1.554688 7.0234375-1.054688v-12l-1 .125v9.875c-3.120748.171144-4.6407769 1.141276-6.5 2l-.5-.5c-2.8132544-.991334-4.036275-.370117-6-.5v-1-9.9980469c-.3400929-.0003945-.60600864-.00508239-1-.0019531zm7.6777344.9160156-.2558594.03125c.0332327.0222365.0439982.0299832.078125.0527344.0599343-.0266375.1180416-.0567726.1777344-.0839844z" fill="#0063b1"/><path d="m13.119141-.03515625c-2.013319.0781745-3.7546007 1.20647165-5.619141 2.03515625-3-2-2.5-2-6.5-2v11 1c1.963725.129883 3.1867456-.491334 6 .5l.5.5c1.8592231-.858724 3.379252-1.828856 6.5-2v-11c-.299863-.03560789-.593242-.04632404-.880859-.03515625zm-11.119141 1.03515625c3.9387737 0 4.4654292.6227321 5 1.375v9.380859c-1.9763883-.95136-2.7929433-.837543-5-.755859zm11 0v9.5c-1.956056.05503-3.3369621.060771-5 1.576172v-9.576172c1.964672-1.1492968 3-1 5-1.5z" fill="#fafafa"/></svg>