<?xml version="1.0" encoding="UTF-8" standalone="no"?>
<!-- Generator: Adobe Illustrator 19.1.0, SVG Export Plug-In . SVG Version: 6.00 Build 0)  -->

<svg
   version="1.1"
   x="0px"
   y="0px"
   viewBox="0 0 773 394"
   xml:space="preserve"
   id="svg3336"
   inkscape:version="1.2.1 (9c6d41e410, 2022-07-14)"
   sodipodi:docname="intro-highres.svg"
   width="773"
   height="394"
   inkscape:export-filename="C:\cygwin\home\Marina\lode\dev\FLOSS-194\brand\cib\intro.png"
   inkscape:export-xdpi="96"
   inkscape:export-ydpi="96"
   xmlns:inkscape="http://www.inkscape.org/namespaces/inkscape"
   xmlns:sodipodi="http://sodipodi.sourceforge.net/DTD/sodipodi-0.dtd"
   xmlns:xlink="http://www.w3.org/1999/xlink"
   xmlns="http://www.w3.org/2000/svg"
   xmlns:svg="http://www.w3.org/2000/svg"
   xmlns:rdf="http://www.w3.org/1999/02/22-rdf-syntax-ns#"
   xmlns:cc="http://creativecommons.org/ns#"
   xmlns:dc="http://purl.org/dc/elements/1.1/"><metadata
   id="metadata3474"><rdf:RDF><cc:Work
       rdf:about=""><dc:format>image/svg+xml</dc:format><dc:type
         rdf:resource="http://purl.org/dc/dcmitype/StillImage" /></cc:Work></rdf:RDF></metadata><defs
   id="defs3472"><clipPath
     clipPathUnits="userSpaceOnUse"
     id="clipPath4978"><rect
       style="fill:#5fa243;fill-opacity:1"
       id="rect4980"
       width="113.625"
       height="79.875"
       x="72.875"
       y="50.125" /></clipPath><style
     id="style1078">
      .cls-1 {
        fill: #961e29;
      }

      .cls-2 {
        fill: #fff;
      }
    </style><style
     id="style943">
      .cls-1 {
        fill: #961e29;
      }

      .cls-2 {
        fill: #fff;
      }
    </style><clipPath
     id="b"><rect
       x="0.13"
       y="-0.15000001"
       width="174"
       height="38"
       style="fill:none"
       id="rect2" /></clipPath></defs><sodipodi:namedview
   pagecolor="#ffffff"
   bordercolor="#666666"
   borderopacity="1"
   objecttolerance="10"
   gridtolerance="10"
   guidetolerance="10"
   inkscape:pageopacity="1"
   inkscape:pageshadow="2"
   inkscape:window-width="1920"
   inkscape:window-height="1011"
   id="namedview3470"
   showgrid="false"
   inkscape:zoom="0.94451843"
   inkscape:cx="92.639801"
   inkscape:cy="265.74389"
   inkscape:window-x="0"
   inkscape:window-y="0"
   inkscape:window-maximized="1"
   inkscape:current-layer="svg3336"
   fit-margin-top="0"
   fit-margin-left="0"
   fit-margin-right="0"
   fit-margin-bottom="0"
   inkscape:showpageshadow="false"
   inkscape:pagecheckerboard="0"
   inkscape:deskcolor="#d1d1d1" />
<style
   type="text/css"
   id="style3338">
	.st0{display:none;}
	.st1{display:inline;}
	.st2{fill:#5FA243;}
	.st3{fill:#FFFFFF;}
	.st4{fill-rule:evenodd;clip-rule:evenodd;fill:#FFFFFF;}
	.st5{fill:#C12521;}
	.st6{clip-path:url(#SVGID_2_);fill:#FFFFFF;}
	.st7{display:inline;fill:#5FA243;}
	.st8{display:inline;fill:#C12521;}
	.st9{display:inline;fill:#FFFFFF;}
	.st10{clip-path:url(#SVGID_4_);fill:#FFFFFF;}
	.st11{font-family:'CIBUnit';}
	.st12{font-size:17px;}
</style>
<g
   id="alte_version"
   class="st0"
   style="display:none"
   transform="translate(-52.890201,77.058947)">
	<g
   class="st1"
   id="g3341"
   style="display:inline">
		<polygon
   class="st2"
   points="0,-64 0,-249.9 262,-250 262,-64 "
   id="polygon3343"
   style="fill:#5fa243" />
	</g>
	<g
   id="Libre_2_"
   class="st1"
   style="display:inline">
		<polyline
   class="st3"
   points="73.7,-207.5 73.7,-182.8 89.6,-182.8 89.6,-186.5 78.6,-186.5 78.6,-207.5 73.7,-207.5   "
   id="polyline3346"
   style="fill:#ffffff" />
		<path
   class="st3"
   d="m 92.6,-182.8 h 4.9 v -17.8 h -4.9 v 17.8 m 2.4,-19.3 c 1.5,0 2.8,-1.2 2.8,-2.8 0,-1.5 -1.3,-2.8 -2.8,-2.8 -1.6,0 -2.8,1.3 -2.8,2.8 0,1.6 1.3,2.8 2.8,2.8"
   id="path3348"
   inkscape:connector-curvature="0"
   style="fill:#ffffff" />
		<path
   class="st3"
   d="m 105.9,-198.5 v 0 L 105.8,-209 H 101 v 26.2 h 4.8 l 0.1,-2.1 h 0.1 c 1.5,1.7 3,2.4 5.6,2.4 4.7,0 7.8,-4.3 7.8,-9.6 0,-5.1 -2.8,-8.9 -7.6,-8.9 -2.7,0.1 -4.2,0.9 -5.9,2.5 m 0,6.4 c 0,-3.1 1.4,-5.1 4,-5.1 2.9,0 4.4,2.1 4.4,5.5 0,3.4 -1.4,5.5 -4.3,5.5 -2.5,0 -4.1,-2 -4.1,-5.1 v -0.8"
   id="path3350"
   inkscape:connector-curvature="0"
   style="fill:#ffffff" />
		<path
   class="st3"
   d="m 132.4,-200.9 c -2.3,0.1 -4.5,1.6 -5.6,3.5 h -0.1 l -0.1,-3.2 h -4.8 v 17.8 h 4.9 v -6.7 c 0,-3.6 0.7,-4.8 1.8,-5.7 1,-0.7 2.1,-1 3.7,-1.1 l 0.2,-4.6"
   id="path3352"
   inkscape:connector-curvature="0"
   style="fill:#ffffff" />
		<path
   class="st3"
   d="m 150.3,-192.7 c 0,-4.4 -2.7,-8.2 -7.3,-8.2 -5.6,0 -9.2,3.9 -9.2,9.7 0,5.7 3.7,8.8 9.2,8.8 2.6,0 4.4,-0.4 6.1,-1.2 l -0.5,-3.6 c -1.6,0.7 -3.2,1.1 -5,1.1 -2.9,0 -4.8,-1.3 -5,-4.1 h 11.5 c 0.1,-0.7 0.2,-1.7 0.2,-2.5 m -7.9,-4.5 c 2.1,0 3.1,1.7 3.2,3.5 h -6.9 c 0.4,-2 1.8,-3.5 3.7,-3.5"
   id="path3354"
   inkscape:connector-curvature="0"
   style="fill:#ffffff" />
		<path
   class="st3"
   d="m 165,-207.8 c -6.5,0 -11.9,4.8 -11.9,12.7 0,7.9 5.4,12.7 11.9,12.7 6.5,0 11.9,-4.8 11.9,-12.7 0.1,-8 -5.3,-12.7 -11.9,-12.7 m 0,2.4 c 4.9,0 8.6,3.6 8.6,10.2 0,6.6 -3.7,10.2 -8.6,10.2 -4.9,0 -8.6,-3.6 -8.6,-10.2 0.1,-6.5 3.8,-10.2 8.6,-10.2"
   id="path3356"
   inkscape:connector-curvature="0"
   style="fill:#ffffff" />
		<path
   class="st3"
   d="m 181.6,-201.5 v 1.1 h -2.9 v 2.3 h 2.9 v 15.3 h 3 v -15.3 h 4.5 v -2.3 h -4.5 v -1.6 c 0,-3.2 1.3,-5 3.8,-5 1.1,0 1.9,0.2 2.5,0.4 l 0.3,-2.3 c -0.7,-0.3 -1.9,-0.5 -2.9,-0.5 -4.2,0 -6.7,2.8 -6.7,7.9"
   id="path3358"
   inkscape:connector-curvature="0"
   style="fill:#ffffff" />
		<path
   class="st3"
   d="m 191.7,-201.5 v 1.1 h -2.9 v 2.3 h 2.9 v 15.3 h 3 v -15.3 h 4.5 v -2.3 h -4.5 v -1.6 c 0,-3.2 1.3,-5 3.8,-5 1.1,0 1.9,0.2 2.5,0.4 l 0.3,-2.3 c -0.7,-0.3 -1.9,-0.5 -2.9,-0.5 -4.2,0 -6.7,2.8 -6.7,7.9"
   id="path3360"
   inkscape:connector-curvature="0"
   style="fill:#ffffff" />
		<path
   class="st3"
   d="m 202.8,-182.8 h 3 v -17.6 h -3 v 17.6 m 1.5,-20.2 c 1.1,0 1.9,-0.8 1.9,-1.9 0,-1.1 -0.8,-1.9 -1.9,-1.9 -1.1,0 -1.9,0.8 -1.9,1.9 0.1,1.1 0.9,1.9 1.9,1.9"
   id="path3362"
   inkscape:connector-curvature="0"
   style="fill:#ffffff" />
		<path
   class="st3"
   d="m 212.2,-191.7 c 0,-4.4 2.7,-6.8 6.1,-6.8 1.8,0 3.4,0.4 4.7,1.1 l 0.3,-2.3 c -1.1,-0.5 -2.8,-1.1 -4.8,-1.1 -5.4,0 -9.5,3.3 -9.5,9.5 0,5.8 3.7,8.9 8.6,8.9 2.2,0 3.7,-0.3 5.5,-1 l -0.3,-2.3 c -1.5,0.7 -3.2,1 -4.7,1 -3.5,0 -5.9,-2.3 -5.9,-7"
   id="path3364"
   inkscape:connector-curvature="0"
   style="fill:#ffffff" />
		<path
   class="st3"
   d="m 240.5,-190.9 c 0.1,-0.7 0.1,-1.2 0.1,-1.8 0,-4.5 -2.4,-8.1 -6.9,-8.1 -4.9,0 -8.5,4.1 -8.5,9.5 0,6 3.6,8.9 8.5,8.9 2.2,0 3.8,-0.3 5.5,-1 l -0.3,-2.3 c -1.3,0.7 -3.3,1 -4.8,1 -3.5,0 -5.8,-2.2 -5.9,-6.2 h 12.3 m -7,-7.5 c 2.7,0 4.1,2.2 4.1,5.1 h -9.2 c 0.5,-3.1 2.2,-5.1 5.1,-5.1"
   id="path3366"
   inkscape:connector-curvature="0"
   style="fill:#ffffff" />
		<path
   class="st4"
   d="m 47.3,-224.2 c -0.4,0 -0.8,0.2 -1,0.6 -0.2,0.4 -0.1,0.8 0.2,1.1 l 8.7,8.8 c 0.3,0.3 0.7,0.4 1.1,0.2 0.4,-0.2 0.6,-0.5 0.6,-0.9 v -8.8 c 0,-0.5 -0.5,-1 -1,-1 z m 0,0"
   id="path3368"
   inkscape:connector-curvature="0"
   style="clip-rule:evenodd;fill:#ffffff;fill-rule:evenodd" />
		<path
   class="st4"
   d="m 23.4,-224.2 c -0.5,0 -1,0.5 -1,1 v 39.9 c 0,0.5 0.5,1 1,1 H 56 c 0.5,0 1,-0.5 1,-1 V -209 c 0,-0.3 -0.1,-0.5 -0.3,-0.7 l -14.1,-14.2 c -0.2,-0.2 -0.5,-0.3 -0.7,-0.3 z m 1,2.1 h 17.1 l 13.5,13.6 v 24.3 H 24.4 Z m 0,0"
   id="path3370"
   inkscape:connector-curvature="0"
   style="clip-rule:evenodd;fill:#ffffff;fill-rule:evenodd" />
	</g>
	<g
   class="st1"
   id="g3372"
   style="display:inline">
		<path
   class="st5"
   d="M 0,-103.5 0.1,-64 H 262 v -112 c -82,46.9 -180.2,-13.4 -262,72.5 z"
   id="path3374"
   inkscape:connector-curvature="0"
   style="fill:#c12521" />
	</g>
	<g
   class="st1"
   id="g3376"
   style="display:inline">
		<path
   class="st3"
   d="m 313.7,-253 c 0,0 -0.3,1.4 -1,4.1 -0.6,2.7 -1.7,6.6 -3.2,11.5 -1.6,4.9 -3.6,10.8 -6.6,17.4 -3,6.6 -6.9,13.8 -12.1,21 -0.7,0.9 -1.3,1.8 -2,2.7 -0.7,0.9 -1.5,1.8 -2.2,2.7 -0.4,0.4 -0.7,0.9 -1.1,1.4 -0.4,0.4 -0.8,0.9 -1.2,1.3 -0.8,0.9 -1.6,1.8 -2.4,2.6 -0.8,0.9 -1.7,1.7 -2.6,2.6 -0.4,0.4 -0.9,0.9 -1.3,1.3 -0.4,0.4 -0.9,0.8 -1.4,1.2 -0.9,0.8 -1.9,1.6 -2.9,2.5 -1,0.8 -2,1.5 -3,2.3 -4.1,3 -8.6,5.9 -13.4,8.3 -4.8,2.4 -9.9,4.6 -15.2,6.3 -10.6,3.5 -22,5.7 -33.5,7 -11.6,1.4 -23.3,1.8 -35.1,2.1 -11.7,0.2 -23.4,0.5 -35,0.7 -11.5,0.3 -22.8,0.9 -33.7,2.1 -10.9,1.1 -21.3,3 -31,5.4 -9.7,2.5 -18.6,5.6 -26.6,9.2 -8,3.6 -14.9,7.6 -20.8,11.6 -1.5,0.9 -2.9,2 -4.2,3 -0.7,0.5 -1.3,1 -2,1.4 -0.6,0.5 -1.2,1 -1.8,1.5 -1.2,0.9 -2.4,1.8 -3.5,2.7 -1.1,0.9 -2.1,1.8 -3.1,2.6 -2,1.6 -3.6,3.2 -5.1,4.6 -1.5,1.3 -2.7,2.5 -3.6,3.5 -2,1.9 -3,3 -3,3 0,0 1,-1.1 2.8,-3.2 0.9,-1 2,-2.3 3.4,-3.7 1.4,-1.4 3,-3.1 4.9,-4.8 3.7,-3.6 8.5,-7.6 14.4,-11.7 5.8,-4.2 12.8,-8.4 20.8,-12.1 8,-3.8 17,-7.1 26.8,-9.8 9.8,-2.6 20.3,-4.6 31.3,-6 11,-1.4 22.3,-2.1 33.9,-2.6 11.6,-0.5 23.3,-0.7 35,-1.1 11.7,-0.4 23.4,-1 34.7,-2.3 11.4,-1.3 22.4,-3.5 32.7,-6.8 10.2,-3.5 19.6,-8.2 27.6,-14 1,-0.7 2,-1.5 2.9,-2.2 0.9,-0.8 1.9,-1.6 2.8,-2.3 0.9,-0.8 1.8,-1.6 2.7,-2.4 0.9,-0.8 1.7,-1.6 2.6,-2.4 0.8,-0.8 1.6,-1.7 2.4,-2.5 0.4,-0.4 0.8,-0.8 1.2,-1.2 0.4,-0.4 0.7,-0.9 1.1,-1.3 0.7,-0.9 1.5,-1.7 2.2,-2.5 0.7,-0.8 1.4,-1.7 2,-2.6 5.3,-6.8 9.4,-13.8 12.6,-20 3.3,-6.3 5.6,-12 7.5,-16.8 0.9,-2.4 1.7,-4.5 2.4,-6.4 0.4,-0.9 0.6,-1.8 0.9,-2.6 0.3,-0.8 0.5,-1.5 0.7,-2.2 0.8,-2.7 1.3,-4.1 1.3,-4.1 z"
   id="path3378"
   inkscape:connector-curvature="0"
   style="fill:#ffffff" />
	</g>
	<g
   class="st1"
   id="g3380"
   style="display:inline">
		<path
   class="st3"
   d="m 185.1,-89.2 c 0,1.9 -2.3,4 -4.2,4 -1.2,0 -3.4,0 -3.4,0 v -33.6 h 7.6 z"
   id="path3382"
   inkscape:connector-curvature="0"
   style="fill:#ffffff" />
		<g
   id="g3384">
			<defs
   id="defs3386">
				<rect
   id="SVGID_1_"
   x="147.60001"
   y="-126.7"
   width="92.699997"
   height="42" />
			</defs>
			<clipPath
   id="SVGID_2_">
				<use
   xlink:href="#SVGID_1_"
   style="overflow:visible"
   id="use3390"
   x="0"
   y="0"
   width="100%"
   height="100%" />
			</clipPath>
			<path
   class="st6"
   d="m 207.1,-108.8 c 0,-1.3 -0.3,-2.3 -0.9,-2.8 -0.6,-0.5 -1.7,-0.8 -3.1,-0.8 H 197 v 7.3 h 6.3 c 1.3,0 2.3,-0.3 2.9,-0.9 0.6,-0.5 0.9,-1.5 0.9,-2.8 z m 0.8,13.3 c 0,-1.4 -0.3,-2.4 -1,-3.1 -0.7,-0.6 -1.8,-0.9 -3.5,-0.9 h -6.5 v 8.1 h 6.7 c 0,0 2.6,-0.3 3.3,-0.9 0.7,-0.5 1,-1.6 1,-3.2 z m -14.3,-23.3 c 0.8,0 9.7,0 9.7,0 3.7,0 6.4,0.8 8.2,2.3 1.8,1.5 2.7,3.6 2.7,6.3 0,1.9 -0.4,3.4 -1.2,4.6 -0.8,1.2 -1.9,2.1 -3.2,2.6 v 0.1 c 3.8,1 5.7,3.7 5.7,7.9 0,1.5 -0.2,2.9 -0.7,4.1 -0.5,1.2 -1.2,2.2 -2.1,3.1 -1,0.9 -2.2,1.5 -3.7,1.9 -1.5,0.4 -3.3,0.7 -5.4,0.7 h -13.8 c 0,0 0,-29.6 0,-29.6 -0.1,-1.5 2.2,-4 3.8,-4 z"
   id="path3392"
   clip-path="url(#SVGID_2_)"
   inkscape:connector-curvature="0"
   style="fill:#ffffff" />
			<path
   class="st6"
   d="m 167.1,-112.3 c -9.3,-1.4 -11.6,1.8 -11.6,10.3 0,8.2 2.3,11.3 12.4,10.3 3.2,-0.3 3.9,0.7 4.5,5.6 -1.1,0.6 -5.9,1.4 -9.3,1.3 -5.1,-0.2 -9.3,-1.4 -11.7,-4.3 -2.5,-2.8 -3.7,-7.2 -3.7,-13.2 0,-12 5.4,-17 15.9,-17 5.1,0 8.6,1.5 8.6,1.5 -1,5.6 -1.9,6 -5.1,5.5 z"
   id="path3394"
   clip-path="url(#SVGID_2_)"
   inkscape:connector-curvature="0"
   style="fill:#ffffff" />
		</g>
		<path
   class="st3"
   d="m 234.5,-99.5 c 2.5,0 6.2,-4 6.2,-6.1 0,0 0,-21 0,-21 h -19.3 v 27.2 h 13.1 z"
   id="path3396"
   inkscape:connector-curvature="0"
   style="fill:#ffffff" />
	</g>
	<text
   transform="translate(20.9652,-84.5756)"
   class="st9 st11 st12"
   id="text3398"
   style="font-size:17px;line-height:0%;font-family:CIBUnit;display:inline;fill:#ffffff">powered by</text>







</g>

<rect
   style="fill:#e11e19;fill-opacity:1;stroke:none;stroke-width:1.10605;stroke-opacity:1"
   id="rect880"
   width="773"
   height="67.931038"
   x="0"
   y="0" /><rect
   style="fill:#e11e19;fill-opacity:1;stroke:none;stroke-width:1.10605;stroke-opacity:1"
   id="rect880-0"
   width="773"
   height="67.931038"
   x="3.259629e-08"
   y="326.06897" /><g
   clip-path="url(#b)"
   id="g43"
   transform="matrix(3.8917487,0,0,3.8834687,68.064995,121.97128)"
   inkscape:export-filename="intro-highres.png"
   inkscape:export-xdpi="144.92"
   inkscape:export-ydpi="144.92"><g
     id="g41"><g
       id="g13"><path
         d="m 47.7,28.92 c -1.48,0.78 -3.33,1.18 -5.54,1.18 -2.86,0 -5.14,-0.92 -6.86,-2.76 -1.72,-1.84 -2.58,-4.25 -2.58,-7.24 0,-3.21 0.97,-5.8 2.9,-7.78 1.93,-1.98 4.38,-2.97 7.35,-2.97 1.9,0 3.48,0.28 4.73,0.83 v 2.51 c -1.44,-0.8 -3.02,-1.2 -4.76,-1.2 -2.3,0 -4.17,0.77 -5.61,2.31 -1.44,1.54 -2.15,3.6 -2.15,6.17 0,2.57 0.67,4.39 2.01,5.84 1.34,1.45 3.1,2.18 5.27,2.18 2.02,0 3.76,-0.45 5.24,-1.34 v 2.28 z"
         style="fill:#212934"
         id="path7" /><path
         d="M 54.86,29.76 H 52.51 V 9.69 h 2.35 z"
         style="fill:#212934"
         id="path9" /><path
         d="M 60.85,29.76 V 9.69 h 5.71 c 1.74,0 3.11,0.42 4.13,1.27 1.02,0.85 1.53,1.96 1.53,3.32 0,1.14 -0.31,2.13 -0.92,2.97 -0.62,0.84 -1.46,1.44 -2.55,1.79 v 0.06 c 1.35,0.16 2.44,0.67 3.25,1.53 0.81,0.86 1.22,1.99 1.22,3.37 0,1.72 -0.62,3.11 -1.85,4.17 -1.23,1.06 -2.79,1.6 -4.66,1.6 H 60.86 Z M 63.2,11.81 v 6.48 h 2.41 c 1.29,0 2.3,-0.31 3.04,-0.93 0.74,-0.62 1.11,-1.5 1.11,-2.62 0,-1.95 -1.28,-2.93 -3.85,-2.93 h -2.7 z m 0,8.6 v 7.22 h 3.19 c 1.38,0 2.45,-0.33 3.21,-0.98 0.76,-0.65 1.14,-1.55 1.14,-2.69 0,-2.37 -1.61,-3.56 -4.84,-3.56 h -2.7 z"
         style="fill:#212934"
         id="path11" /></g><g
       id="g25"><path
         d="m 21.65,17.96 c -0.31,-0.32 -0.83,-0.32 -1.14,0 L 12.1,26.37 8.57,22.85 6.65,24.77 12.1,30.22 23.01,19.31 21.66,17.95 Z"
         style="fill:#e11e19"
         id="path15" /><path
         d="m 15.74,28.28 -2.33,1.97 h 1.45 c 2.67,0 4.84,-2.17 4.84,-4.84 v -0.44 l -2.22,1.9 c -0.37,0.67 -0.99,1.18 -1.74,1.41 z"
         style="fill:#e11e19"
         id="path17" /><polygon
         points="19.69,8.41 3.08,8.41 3.08,30.26 9.62,30.26 8.07,28.42 4.92,28.42 4.92,10.25 17.86,10.25 17.86,18.13 19.69,16.56 "
         style="fill:#e11e19"
         id="polygon19" /><rect
         x="7.2600002"
         y="11.82"
         width="7.8899999"
         height="2.24"
         rx="1.05"
         ry="1.05"
         style="fill:#e11e19"
         id="rect21" /><rect
         x="7.3699999"
         y="17.120001"
         width="7.8899999"
         height="2.1300001"
         rx="1"
         ry="1"
         style="fill:#e11e19"
         id="rect23" /></g><g
       id="g39"><path
         d="m 92.64,30.16 c -2.85,0 -5.13,-0.94 -6.84,-2.81 -1.71,-1.87 -2.57,-4.32 -2.57,-7.32 0,-3.23 0.87,-5.81 2.62,-7.73 1.75,-1.92 4.12,-2.88 7.13,-2.88 2.77,0 5,0.93 6.7,2.8 1.69,1.87 2.54,4.31 2.54,7.32 0,3.28 -0.87,5.87 -2.6,7.77 -1.74,1.9 -4.06,2.86 -6.97,2.86 z m 0.17,-18.62 c -2.11,0 -3.82,0.76 -5.14,2.28 -1.32,1.52 -1.97,3.52 -1.97,5.99 0,2.47 0.64,4.46 1.92,5.97 1.28,1.51 2.96,2.26 5.02,2.26 2.2,0 3.94,-0.72 5.21,-2.16 1.27,-1.44 1.9,-3.45 1.9,-6.03 0,-2.58 -0.62,-4.7 -1.85,-6.15 -1.23,-1.45 -2.93,-2.17 -5.1,-2.17 z"
         style="fill:#212934"
         id="path27" /><path
         d="m 113.65,10.62 c -0.45,-0.25 -0.96,-0.38 -1.53,-0.38 -1.61,0 -2.41,1.01 -2.41,3.04 v 2.21 h 3.36 v 1.96 h -3.36 v 12.38 h -2.28 V 17.45 h -2.45 v -1.96 h 2.45 v -2.32 c 0,-1.5 0.43,-2.69 1.3,-3.56 0.87,-0.87 1.95,-1.31 3.25,-1.31 0.7,0 1.25,0.08 1.67,0.25 z"
         style="fill:#212934"
         id="path29" /><path
         d="m 123.35,10.62 c -0.45,-0.25 -0.96,-0.38 -1.53,-0.38 -1.61,0 -2.41,1.01 -2.41,3.04 v 2.21 h 3.36 v 1.96 h -3.36 v 12.38 h -2.28 V 17.45 h -2.45 v -1.96 h 2.45 v -2.32 c 0,-1.5 0.43,-2.69 1.3,-3.56 0.87,-0.87 1.95,-1.31 3.25,-1.31 0.7,0 1.25,0.08 1.67,0.25 z"
         style="fill:#212934"
         id="path31" /><path
         d="m 127.13,11.85 c -0.41,0 -0.76,-0.14 -1.05,-0.42 -0.29,-0.28 -0.43,-0.63 -0.43,-1.06 0,-0.43 0.14,-0.79 0.43,-1.07 0.29,-0.29 0.64,-0.43 1.05,-0.43 0.41,0 0.78,0.14 1.07,0.43 0.29,0.28 0.44,0.64 0.44,1.07 0,0.43 -0.15,0.76 -0.44,1.05 -0.29,0.29 -0.65,0.43 -1.07,0.43 z m 1.12,17.98 h -2.3 V 15.49 h 2.3 z"
         style="fill:#212934"
         id="path33" /><path
         d="m 143.38,29.17 c -1.1,0.66 -2.41,0.99 -3.92,0.99 -2.04,0 -3.69,-0.67 -4.95,-2 -1.25,-1.33 -1.88,-3.05 -1.88,-5.17 0,-2.36 0.68,-4.26 2.03,-5.69 1.35,-1.43 3.16,-2.15 5.42,-2.15 1.26,0 2.37,0.23 3.33,0.7 v 2.35 c -1.06,-0.75 -2.2,-1.12 -3.42,-1.12 -1.47,0 -2.67,0.53 -3.61,1.58 -0.94,1.05 -1.41,2.43 -1.41,4.14 0,1.71 0.44,3.01 1.32,3.98 0.88,0.97 2.07,1.46 3.55,1.46 1.25,0 2.43,-0.42 3.53,-1.25 v 2.18 z"
         style="fill:#212934"
         id="path35" /><path
         d="m 159.09,23.23 h -10.12 c 0.04,1.6 0.47,2.83 1.29,3.7 0.82,0.87 1.95,1.3 3.39,1.3 1.62,0 3.1,-0.53 4.45,-1.6 v 2.16 c -1.26,0.92 -2.93,1.37 -5,1.37 -2.07,0 -3.62,-0.65 -4.77,-1.95 -1.15,-1.3 -1.74,-3.13 -1.74,-5.5 0,-2.23 0.63,-4.05 1.9,-5.45 1.26,-1.41 2.83,-2.11 4.71,-2.11 1.88,0 3.33,0.61 4.35,1.82 1.03,1.21 1.54,2.9 1.54,5.05 v 1.2 z m -2.35,-1.95 c 0,-1.33 -0.33,-2.36 -0.96,-3.09 -0.63,-0.73 -1.5,-1.11 -2.62,-1.11 -1.12,0 -2,0.39 -2.76,1.16 -0.76,0.78 -1.22,1.79 -1.4,3.04 z"
         style="fill:#212934"
         id="path37" /></g></g></g></svg>
