<svg viewBox="0 0 24 24" xmlns="http://www.w3.org/2000/svg"><path d="m17 1c-.552262.0000552-.999945.4477381-1 1v11.720703c.335156-.331898.666479-.674045 1-1.007812v-10.712891h2v8.701172c.06289-.06509.126586-.126073.189453-.191406.228533-.228255.512912-.376302.810547-.451172v-8.058594c-.000055-.5522619-.447738-.9999448-1-1zm-14 2c-.5522619.0000552-.9999448.4477381-1 1v2c.0000552.5522619.4477381.9999448 1 1h7.921875c-.10644 2.0475243-.390936 4.91141-1.0292969 6.398438-.972156 2.264585-3.3663711 4.603365-6.8925781 4.601562-.5522619.000055-.9999448.447738-1 1v2c.0000552.552262.4477381.999945 1 1 3.4676347.0018 6.1461982-1.333954 8.033203-3.236328.05002-.123777.115926-.240779.210938-.335938.229371-.229128.448003-.440014.675781-.666015.640799-.819941 1.158028-1.708792 1.548828-2.619141 1.520917-3.542894 1.599577-7.348103 1.53125-9.7148436v-1.4277344c-.000055-.5522619-.447738-.9999448-1-1zm0 1h11v1.4570312c.06666 2.3089897-.027642 5.9795288-1.449219 9.2910158-1.421576 3.311486-4.517915 6.254553-9.550781 6.251953v-2c3.967134.002 6.702223-2.6207 7.8125-5.207031.882732-2.056276 1.14065-5.786032 1.1875-7.792969h-9zm17 14.130859c-.334115.320936-.667396.645334-1 .970703v2.898438h-2v-.880859c-.330175.34281-.657696.691751-.984375 1.044921.08013.481548.496207.834884.984375.835938h2c.552262-.000055.999945-.447738 1-1z" fill="#696969" fill-rule="evenodd"/><path d="m17 2v10.712891c.666392-.666884 1.337603-1.326107 2-2.011719v-8.701172zm-14 2v2h9c-.04685 2.006937-.304768 5.736693-1.1875 7.792969-1.110277 2.586331-3.845366 5.209059-7.8125 5.207031v2c5.032866.0026 8.129205-2.940467 9.550781-6.251953 1.421577-3.311487 1.515879-6.9820261 1.449219-9.2910158v-1.4570312zm16 15.101562c-.671852.65724-1.338249 1.330502-2 2.017579v.880859h2z" fill="#fff" fill-rule="evenodd"/><g fill="#eac282"><path d="m17.480469 13.611328-5.529297 5.523438-.951172 3.865234 3.806641-1.011719 5.509765-5.544922z"/><path d="m20.419922 11c-.189562 0-.378184.07172-.523438.216797l-1.673828 1.669922 2.847656 2.849609 1.710938-1.638672c.290506-.290127.290506-.756747 0-1.046875l-1.835938-1.833984c-.145254-.145064-.335828-.216797-.52539-.216797z"/></g></svg>