<svg viewBox="0 0 16 16" xmlns="http://www.w3.org/2000/svg"><path d="m0 3v2h6.5c-.5 5.5-3 8-6.5 8v2c4.7076447 0 7.980909-3.948888 8.7714844-10.1992188-.1195573-.0651586-.2341195-.1423228-.3339844-.2421874-.4137515-.4137529-.5252145-1.0300175-.34375-1.5585938zm10 5v8h2v-7h2v-1h-1.5z" fill="#3a3a38" fill-rule="evenodd" stroke-width=".935414"/><path d="m12.5 7c-.277 0-.5-.223-.5-.5v-4.7949219l-2.1484375 2.1464844c-.195975.1957618-.5111622.1958686-.7070313 0-.195868-.1958686-.195975-.5112694 0-.7070313l3.0019528-2.9980468c.097935-.0979343.22572-.1464977.353516-.1464844.0639.0000067.127325.012631.1875.037109.06016.024381.117048.060408.166016.109375l3.001953 2.9980468c.195975.1957619.195868.5111627 0 .7070313-.195869.1958686-.511057.1957618-.707031 0l-2.148438-2.146484v4.7949219c0 .277-.223.5-.5.5z" fill="#1e8bcd"/></svg>