<svg viewBox="0 0 16 16" xmlns="http://www.w3.org/2000/svg"><path d="m1 0c-.55226188.00005522-.99994478.44773812-1 1v2c.00005522.5522619.44773812.9999448 1 1h4.8457031c-.1170502 3.3197459-1.9719001 7.008506-4.8457031 7-.55226188.000055-.99994478.447738-1 1v2c.00005522.552262.44773812.999945 1 1 6 0 8.9496181-7.6169623 9-12.5429688v6.9765626c.335416-.3316343.666263-.6715247 1-1.0039063v-7.4296875h2v5.4277344c.218094-.2700199.977615-.4197979 1-.4277344v-5c-.000055-.55226188-.447738-.99994478-1-1h-2c-.552262.00005522-.999945.44773812-1 1-.0000552-.55226188-.4477381-.99994478-1-1zm0 1h8v1.4570312c0 4.5997019-3.4580584 11.3458988-8 11.5429688v-2c4 0 6-5 6-9h-6zm13 11.464844c-.33454.322546-.667622.648897-1 .976562v1.558594h-1.535156c-.289922.302358-.58123.600625-.867188.912109.123768.054874.258241.087877.402344.087891h2c.552262-.000055.999945-.447738 1-1z" fill="#696969" fill-rule="evenodd"/><path d="m1 1v2h6c0 4-2 9-6 9v2c4.5419416-.19707 8-6.9432669 8-11.5429688v-1.4570312zm10 0v7.4296875c.656508-.6538421 1.313385-1.3039741 1.966797-1.9746094.010316-.0103037.022635-.0173807.033203-.0273437v-5.4277344zm2 12.441406c-.516182.508863-1.02773 1.029402-1.535156 1.558594h1.535156z" fill="#fff" fill-rule="evenodd"/><g fill="#eac282"><path d="m11.861005 8.958496-4.1469731 4.142578-.713379 2.898926 2.8549808-.758789 4.1323233-4.158692z"/><path d="m14.065594 7c-.142171 0-.283638.05379-.392578.1625977l-1.255371 1.2524416 2.135742 2.1372067 1.283203-1.229004c.21788-.2175952.21788-.5675602 0-.7851562l-1.376953-1.3754881c-.108941-.108798-.251871-.1625977-.394043-.1625977z"/></g></svg>