<svg height="32" viewBox="0 0 32 32" width="32" xmlns="http://www.w3.org/2000/svg"><path d="m2 2v28h28v-28zm12.5 2h1.5 1.5c.83042 0 1.722082.6678495 2 1.4980469v.0019531l1.679688 5.041016 5.140624 15.496093.00586.015625c.02143.0529.039677.107029.054687.16211.000323.0012-.000311.002706 0 .003906.01524.05651.026987.113917.035157.171875.008.06031.011478.120681.011718.181641-.000033.0575-.005098.1142-.011718.169922-.0032.026148-.007099.052206-.011719.078124-.006.0338-.013185.06667-.021485.09961-.005798.02491-.012361.049649-.019531.074219-.0151.04872-.032704.096241-.052734.142578-.0093.02107-.019027.0419-.029297.0625-.0213.04336-.044884.086209-.070312.126953-.0052.0085-.010326.016982-.015626.02539-.029168.04466-.0599.087891-.09375.128907-.002398.0028-.005412.005012-.007812.007812-.01519.01796-.030825.035545-.046875.052735-.02507.02708-.051045.053055-.078125.078125-.01719.01606-.034774.031695-.052734.046875-.0028.0024-.005013.005512-.007813.007812-.04102.03385-.084239.06458-.128906.09375-.0084.0053-.016881.010495-.025391.015625-.04074.02543-.083591.049003-.126953.070313-.0206.01027-.04142.020038-.0625.029296-.04577.01977-.092531.037755-.140625.052735h-.001953c-.02455.0072-.049309.013691-.074219.019531-.03295.0083-.065799.015526-.099609.021484-.02592.0046-.051985.008499-.078125.011719-.05572.0066-.11242.011689-.169922.011719-.0726-.000342-.145098-.006298-.216797-.017578-.140328-.02198-.276591-.06477-.404297-.126953-.06306-.03065-.123765-.065911-.18164-.105469-.05782-.03954-.112659-.083279-.164063-.130859-.05192-.04779-.100231-.099361-.144531-.154297-.04477-.05612-.085249-.115532-.121094-.177735v-.001953c-.03606-.062-.06739-.126644-.09375-.193359-.02143-.0529-.039677-.107031-.054687-.162109-.000324-.0012.000312-.002707 0-.003907l-1.964844-5.925781h-11.308594l-1.9648436 5.925781c-.0003111.0012.0003241.002707 0 .003907-.015012.055078-.0332545.109209-.0546875.162109-.026359.066715-.0576912.131359-.09375.193359v.001953c-.035844.062203-.0763188.121615-.1210938.177735-.0443003.054936-.0926104.106507-.1445312.154297-.0514044.04758-.1062427.091319-.1640625.130859-.0578757.039558-.1185838.074819-.1816406.105469-.1277059.062183-.2639693.104973-.4042969.126953-.0716996.01128-.1441931.017236-.2167969.017578-.0575014-.00003-.1142059-.005119-.1699219-.011719-.0261408-.00322-.052205-.007119-.078125-.011719-.0338058-.005958-.0666605-.013184-.0996093-.021484-.024912-.00584-.0496718-.012331-.0742188-.019531h-.0019531c-.0480939-.01498-.0948552-.032965-.140625-.052735-.021084-.009258-.041902-.019026-.0625-.029296-.0433582-.02131-.0862113-.044883-.1269531-.070313-.008513-.00513-.0169907-.010325-.0253907-.015625-.0446682-.02917-.0878894-.0599-.1289062-.09375-.00286-.0023-.0050025-.005412-.0078125-.007812-.017967-.01518-.0355484-.030815-.0527344-.046875-.027079-.02507-.053053-.051045-.078125-.078125-.01605-.01719-.031681-.034775-.046875-.052735-.00241-.0028-.0054625-.005012-.0078125-.007812-.033848-.041016-.064578-.084247-.09375-.128907-.005298-.008408-.010475-.01689-.015625-.02539-.025428-.040744-.0490145-.083593-.0703125-.126953-.010265-.0206-.0200369-.04143-.0292969-.0625-.020026-.046337-.0376355-.093858-.0527343-.142578-.007173-.02457-.0136813-.049309-.0195313-.074219-.008291-.03294-.0155344-.06581-.0214844-.09961-.004629-.025918-.0085387-.051976-.0117187-.078124-.006639-.055722-.0116854-.112422-.0117188-.169922.00024-.06096.0037288-.121331.0117188-.181641.008169-.057958.0199182-.115365.0351562-.171875.0003111-.0012-.0003231-.002706 0-.003906.015011-.055081.0332545-.10921.0546875-.16211l.0058594-.015625 5.1406245-15.496093 1.679688-5.041016v-.0019531c.277918-.8301974 1.16958-1.4980469 2-1.4980469zm1.035156 3c-.275486 0-.569031.1964794-.685547.4492188l-1.517578 4.5507812-1.990234 6h9.316406l-1.990234-6-1.517578-4.5507812c-.116516-.2527394-.410061-.4492188-.685547-.4492188h-.439453c-.0088 0-.016811-.0003983-.025391 0-.00858-.0003983-.016591 0-.025391 0z" fill="#efefef" opacity=".5"/></svg>