<svg viewBox="0 0 32 32" xmlns="http://www.w3.org/2000/svg"><g fill="#aaa8ac"><path d="m8 7v3h3v-3zm10 10v3h5v-3zm-10 5v3h15v-3z" opacity=".35"/><path d="m6 2c-1.108 0-2 .892-2 2v24c0 1.108.892 2 2 2h15.578125l-2-2h-3.335937l-.121094.121094-.121094-.121094h-10v-24h13v7h5.757812.242188v8.242188.257812 2.705078l2-2.27539v-.429688-2.257812-7.742188c-.089943-.1947501-.195906-.4687762-.21875-.5234375-.879445-2.5093376-4.327944-6.9765625-7.78125-6.9765625zm6 5v3h6v-3zm-4 5v3h11v-3zm0 5v3h9v-3zm22.03125 1-7.03125 8-3.242188-3.115234-1.757812 2.115234 5 5 9-10.101562zm-3.03125 9.019531-2.654297 2.980469h.654297c1.108 0 2-.892 2-2z"/></g></svg>