<svg height="33" viewBox="0 0 33 33" width="33" xmlns="http://www.w3.org/2000/svg"><path d="m17.017578 3.0058594-3.826172 5.7929687-5.8457029-1.9667969 1.9667969 5.8437498-5.7910156 3.824219 5.7929687 3.824219-1.96875 5.84375 5.8457029-1.964844 3.826172 5.791016 3.824219-5.792969 5.845703 1.966797-1.966797-5.84375 5.791016-3.824219-5.791016-3.824219 1.966797-5.8437498-5.845703 1.9648438zm-1.017578 6.9941406h2v9.900391l2.300781-2.587891c.17154-.18267.442329-.3125.699219-.3125h1v.400391.599609c-.026213.298853-.100781.55232-.300781.75l-3.699219 4.25h-2c-.9-1-2.999219-3.225834-3.699219-4.25-.2-.19768-.300781-.45-.300781-.75v-.599609-.400391h1c.25662-.00971.527669.12983.699219.3125l2.300781 2.587891z" fill="#aaa8ac" fill-rule="evenodd" stroke-width="1.700097"/></svg>