<svg height="32" viewBox="0 0 32 32" width="32" xmlns="http://www.w3.org/2000/svg"><g fill="#efefef"><path d="m12 2.5-3.5 3.5h1.5v8 4 8h-1.585938l3.585938 3.5 3.585938-3.5h-1.585938v-8h12v1.585938l3.564453-3.585938-3.564453-3.5v1.5h-12v-8h1.5z" opacity=".35"/><path d="m9.585938 2-4.585938 4.5859375v1.4140625h3v16h-3v1.414062l.2929688.292969 4.2929692 4.292969h4.828124l4.585938-4.585938v-1.414062h-3v-4h8v3h1.414062l.292969-.292969 4.292969-4.292969v-4.828124l-4.585938-4.585938h-1.414062v3h-8v-4h3v-1.4140625l-.292969-.2929687-4.292969-4.2929688zm2.414062.5 3.5 3.5h-1.5v8h12v-1.585938l3.5 3.585938-3.5 3.585938v-1.585938h-12v8h1.585938l-3.585938 3.5-3.585938-3.5h1.585938v-20h-1.5z"/></g></svg>