<svg viewBox="0 0 32 32" xmlns="http://www.w3.org/2000/svg"><g fill="#efefef"><path d="m7 2c-2.209139 0-4 1.790861-4 4v19c0 2.215988 1.7840132 4 4 4h4.978516v-1.541016c.000031-.154254.012316-.307379.03125-.458984h-5.009766c-1.1079934 0-2-.892006-2-2v-19c0-1.1045695.8954305-2 2-2s2 .8954305 2 2v2c0 2.215988 1.784013 4 4 4h10v2.898438l1.689453-1.689454c.09924-.099242.202645-.193132.310547-.28125v-.927734h2c2.215988 0 4-1.784012 4-4v-2c0-2.2091346-1.790865-4-4-4zm3.464844 2h16.535156c1.104567 0 2 .8954327 2 2v2c0 1.1079938-.892006 2-2 2h-14c-1.107994 0-2-.8920062-2-2v-2c.000226-.7020792-.184342-1.3918513-.535156-2z"/><path d="m27.55179 13.99988c-.49097.006-.9906.19654-1.4326.63855l-11.6229 11.62291c-.31768.31764-.4962.74845-.49629 1.19769v2.54097h2.54097c.44924-.00008.88005-.1786 1.1977-.49629l11.62291-11.6229c1.51544-1.51544.07-3.71839-1.5997-3.87266-.0695-.007-.13995-.009-.21008-.008zm-1.50539 3.05545.89828.89827-.44831.44996-9.08193 9.08194-.44997.44831-.89828-.89827.44831-.44997 9.08194-9.08193z" stroke-width=".999998"/></g></svg>