<svg height="32" viewBox="0 0 32 32" width="32" xmlns="http://www.w3.org/2000/svg"><g fill="#efefef" stroke-width="1.33333" transform="translate(-1)"><path d="m8 3-5 5h21l5-5zm8 6-5 6h4v6h3v-6h4l-5-6zm-16 9v2h2 2v-2h-2zm5 0v2h2v-2zm3 0v2h2v-2zm3 0v2h2v-2zm9 0v2h2v-2zm3 0v2h2v-2zm3 0v2h2v-2zm3 0v2h2v-2zm-29 3v2h2v-2zm29 0v2h2v-2zm-29 3v2h2v-2zm29 0v2h2v-2zm-29 3v2h2v-2zm29 0v2h2v-2zm-29 3v2h2 2v-2h-2zm5 0v2h2v-2zm3 0v2h2v-2zm3 0v2h2v-2zm3 0v2h2v-2zm3 0v2h2v-2zm3 0v2h2v-2zm3 0v2h2v-2zm3 0v2h2v-2zm3 0v2h2v-2z" transform="matrix(-1 0 0 -1 32 32)"/><path d="m8.000001 4.0000009-5 5h21.333984l4.666016-5z" opacity=".35"/></g></svg>