<svg viewBox="0 0 32 32" xmlns="http://www.w3.org/2000/svg"><g fill="#efefef"><path d="m2 2v2h5v4c0 1.1079912.8920084 2 2 2h4v4.757812c.040119.035888.080687.070921.119141.109376l1.880859 1.880859v-7.748047c0-.999996-.262369-1.263844-1-2l-4-4c-.6890262-.7256408-1.000004-1-2-1zm19 0c-2.215985 0-4 1.7840154-4 4v3.7480469l2-2v-1.7480469c0-1.1079923.892007-2 2-2h9v-2zm-4 14.238281v2.509766l.128906.128906a1.9980961 1.9980961 0 0 1 .023438.033203l-.003906-.009765c.047525.04886.090536.100587.128906.154297.453702.530981.70955 1.2049.71875 1.90625.0003.005969.001929.011578.001953.017578a1.9980961 1.9980961 0 0 1 0 .001953 1.9980961 1.9980961 0 0 1 0 .001953 1.9980961 1.9980961 0 0 1 0 .001953c.000014.0026-.000007.005213 0 .007813-.000005.002599.000012.005212 0 .007812a1.9980961 1.9980961 0 0 0 0 .001953 1.9980961 1.9980961 0 0 0 0 .001953 1.9980961 1.9980961 0 0 0 0 .001953 1.9980961 1.9980961 0 0 0 0 .001953c-.0001.0059-.001876.011679-.001953.017579-.00923.701348-.265048 1.375267-.71875 1.90625-.038366.053708-.081377.105437-.128906.154297l.003906-.009766a1.9980961 1.9980961 0 0 1 -.023438.033203l-.128906.128906v2.761719c0 2.215986 1.784015 4 4 4h9v-2h-9c-1.107993 0-2-.892007-2-2v-7.761719zm-2 9-1.880859 1.88086c-.470318.470321-1.070175.747115-1.69336.833984-.137261.02957-.279424.046875-.425781.046875h-9v2h9c2.215986 0 4-1.784014 4-4z"/><path d="m11 16c-.255922 0-.511769.09771-.707031.292969-.3905248.39052-.3905238 1.02354 0 1.414062l2.292969 2.292969h-8.585938a1 1 0 0 0 -1 1 1 1 0 0 0 1 1h8.585938l-2.292969 2.292969c-.3905238.390522-.3905248 1.023542 0 1.414062.390521.390525 1.023542.390524 1.414062 0l3.292969-3.292969.716797-.716796v-.0039c.180655-.185719.282185-.434286.283203-.693366-.000004-.260432-.101608-.510589-.283203-.697266l-.0098-.0098c-.01145-.01135-.02317-.02242-.03516-.0332l-.671837-.673796-3.292969-3.292969c-.195261-.195262-.451109-.292969-.707031-.292969z"/><path d="m22.000056 8c.255922 0 .511769.09771.707032.292969.390524.39052.390523 1.02354 0 1.414062l-2.292969 2.292969h8.585938a1 1 0 0 1 1 1 1 1 0 0 1 -1 1h-8.585938l2.292969 2.292969c.390523.390522.390524 1.023542 0 1.414062-.390521.390525-1.023542.390524-1.414062 0l-3.29297-3.292969-.716797-.716796v-.0039c-.180654-.185719-.282184-.434286-.283203-.693366.000005-.260432.101609-.510589.283204-.697266l.0098-.0098c.01145-.01135.02317-.02242.03516-.0332l.671838-.673796 3.292969-3.292969c.195259-.195262.451107-.292969.707029-.292969z"/></g></svg>