<svg viewBox="0 0 32 32" xmlns="http://www.w3.org/2000/svg"><g fill="#efefef"><path d="m6 4c-1.1079978 0-2 .8920022-2 2v2h4v-4zm3 0v4h6v-4zm7 0v4h5v-4zm6 0v4h5v-2c0-1.1079912-.892008-2-2-2z" opacity=".35"/><path d="m6 2c-2.215967 0-4 1.7840318-4 4v19c0 2.21597 1.784033 4 4 4h19c2.21597 0 4-1.78403 4-4v-19c0-2.2159682-1.78403-4-4-4zm0 2h2v4h-4v-2c0-1.1079989.8920011-2 2-2zm3 0h6v4h-6zm7 0h5v4h-5zm6 0h3c1.107993 0 2 .8920077 2 2v2h-5zm-18 6h4v17h-2c-1.1079956 0-2-.892004-2-2zm5 0h6v17h-6zm7 0h5v17h-5zm6 0h5v15c0 1.107997-.892003 2-2 2h-3z"/></g></svg>