<svg viewBox="0 0 32 32" xmlns="http://www.w3.org/2000/svg"><g fill="#efefef"><path d="m7 3c-2.2159802 0-4 1.7840186-4 4v18c0 2.215982 1.7840198 4 4 4h14v-2h-1-1-7v-5h5.267578c.357362-.618887 1.017769-1.000091 1.732422-1h-7v-5h8v5h1v-2-3h6v3 2h2v-14c0-2.2159814-1.784018-4-4-4zm0 2h4v4h-6v-2c0-1.1079907.8920099-2 2-2zm5 0h8v4h-8zm9 0h4c1.107991 0 2 .8920093 2 2v2h-6zm-16 5h6v5h-6zm7 0h8v5h-8zm9 0h6v5h-6zm-16 6h6v5h-6zm0 6h6v5h-4c-1.1079901 0-2-.892009-2-2z"/><path d="m7 5c-1.1079901 0-2 .8920093-2 2v2h6v-4zm5 0v4h8v-4zm9 0v4h6v-2c0-1.1079907-.892009-2-2-2z" opacity=".35"/><path d="m23 19v4h-4v2h4v4h2v-4h4v-2h-4v-4z"/></g></svg>