<svg viewBox="0 0 32 32" xmlns="http://www.w3.org/2000/svg"><path d="m5.2167969 1.9882812c-.0690319-.0083162-.1412604-.0049904-.2167969.0117188h-.5878906-.4121094v1c0 .224022.12983.528449.3125.71875l.3710938.28125 2.3554687 2.1308594 1.4394531.4238281.8066406-1.0136719c-1.0323425-.9767972-2.6994506-2.6267894-3.5351562-3.2597656-.14826-.1432125-.3261076-.26802-.5332031-.2929688zm6.7832031.0117188v2 .9179688a1.0048731 1.0048731 0 0 1 .003906.0820312v2.5585938l1.996094.7578124v-4.3164062h5v5h-3.806641a1.0048731 1.0048731 0 0 1 -.53125 1.466797l-.4375.150391a1.0048731 1.0048731 0 0 1 .259766.201171l.167969.181641h4.347656v4h-.650391l2.650391 2.867188v-.867188h5v4h-2.103516l1.84961 2h.253906v.275391l2 2.162109v-23.4375zm9 2h5v5h-5zm-10 1-2.15625 2.7109375-3.2539062-.9609375 1.9609374 2.8710938-1.9179687 2.7968752 3.3359375-.978516 2.03125 2.560547-.03125-3.322266 3.365234-1.1601559-3.333984-1.265625zm-5.1367188 3.9316406-1.1796874 1.0683594-.3710938.28125c-.18267.190288-.289921.462852-.3125.71875v1h.4121094.3085937a1.0048731 1.0048731 0 0 1 .0839844-.150391l1.5292969-2.2304684zm15.1367188 2.0683594h5v4h-5zm-8.501953.214844-.498047.171875v.226562zm1.248047.285156-1.246094 1 14.5 17.5 2-2zm-1.746094 1.96875.003906.521484a1.0048731 1.0048731 0 0 1 -.003906.09961v.910156 2 4 2 5 2h13.695312l-1.65625-2h-3.039062v-3.667969l-2.759766-3.332031h-4.240234v-4h.925781zm2 9.53125h5v5h-5z" fill="#aaa8ac"/></svg>