<svg height="33" viewBox="0 0 33 33" width="33" xmlns="http://www.w3.org/2000/svg"><g fill="#efefef"><path d="m7 3c-2.2159772 0-4 1.7840236-4 4v12c0 2.215976 1.7840248 4 4 4v7h.3378906c.4483467 0 .8746556-.5905 1.2519532-.998047l5.5566402-6.001953h1.853516a1 1 0 0 0 1-1 1 1 0 0 0 -1-1h-2-.476562c-.524356 0-.94131.468642-1.410157.996094l-3.113281 3.503906v-3.5l-1-1h-1c-1.1079868 0-2-.892012-2-2v-12c0-1.1079967.8920033-2 2-2h19c1.107988 0 2 .8920118 2 2v9a1 1 0 0 0 1 1 1 1 0 0 0 1-1v-9c0-2.2159764-1.784023-4-4-4z"/><circle cx="8" cy="22" r="1"/><path d="m20.859375 19c-1.036152 0-1.859375.863537-1.859375 1.916016v7.183593c0 1.03646.824786 1.900391 1.960938 1.900391h7.466796c1.041398 0 1.572266-.863931 1.572266-1.900391v-7.183593c0-1.052479-.53088-1.916016-1.572266-1.916016zm1.166016 1.818359c.127808 0 .255581.04855.353515.146485l2.121094 2.121094 2.121094-2.121094c.195868-.195869.511163-.195869.707031 0l.707031.707031c.195869.195868.195869.511163 0 .707031l-2.121094 2.121094 2.121094 2.121094c.195869.195868.195869.511163 0 .707031l-.707031.707031c-.195868.195869-.511163.195869-.707031 0l-2.121094-2.121094-2.121094 2.121094c-.195868.195869-.511163.195869-.707031 0l-.707031-.707031c-.195869-.195868-.195869-.511163 0-.707031l2.121094-2.121094-2.121094-2.121094c-.195869-.195868-.195869-.511163 0-.707031l.707031-.707031c.09793-.09793.225706-.146485.353516-.146485z"/></g></svg>