<svg viewBox="0 0 32 32" xmlns="http://www.w3.org/2000/svg"><g fill="#efefef"><path d="m5 3c-1.108 0-2 .892-2 2v1c0 1.108.892 2 2 2h1c1.108 0 2-.892 2-2v-1c0-1.108-.892-2-2-2zm8 0c-1.108 0-2 .892-2 2v1c0 1.108.892 2 2 2h14c1.108 0 2-.892 2-2v-1c0-1.108-.892-2-2-2zm-8 8c-1.108 0-2 .892-2 2v14c0 1.108.892 2 2 2h1c1.108 0 2-.892 2-2v-14c0-1.108-.892-2-2-2z"/><path d="m24 10c-.270004.000004-.528532.109196-.716797.302734l-.023437.025391-.673828.671875-2.292969 2.292969c-.195262.195261-.292969.451111-.292969.707031 0 .255922.09771.511769.292969.707031.195261.195261.451146.292969.707031.292969s.51177-.09771.707031-.292969l1.292969-1.292969v3.585938h2v-3.585938l1.292969 1.292969c.195261.195261.451146.292969.707031.292969s.51177-.09771.707031-.292969c.195259-.195262.292969-.451109.292969-.707031 0-.255921-.09771-.51177-.292969-.707031l-2.292969-2.292969-.673828-.671875-.023437-.025391c-.188262-.193539-.446793-.30273-.716797-.302734zm-9 10c-.255921 0-.51177.09771-.707031.292969l-2.292969 2.292969-.671875.673828-.025391.023437c-.19354.188259-.30273.446793-.302734.716797.000004.270004.109196.528532.302734.716797l.025391.023437.671875.673828 2.292969 2.292969c.195261.195262.451111.292969.707031.292969.255922 0 .511769-.09771.707031-.292969.195261-.195261.292969-.451146.292969-.707031s-.097711-.51177-.292969-.707031l-1.292969-1.292969h2.585938v-2h-2.585938l1.292969-1.292969c.195261-.195261.292969-.451146.292969-.707031s-.097711-.51177-.292969-.707031c-.195262-.195259-.451109-.292969-.707031-.292969z"/><path d="m20.859375 19c-1.036152 0-1.859375.863537-1.859375 1.916016v7.183593c0 1.03646.824786 1.900391 1.960938 1.900391h7.466796c1.041398 0 1.572266-.863931 1.572266-1.900391v-7.183593c0-1.052479-.53088-1.916016-1.572266-1.916016zm1.166016 1.818359c.127808 0 .255581.04855.353515.146485l2.121094 2.121094 2.121094-2.121094c.195868-.195869.511163-.195869.707031 0l.707031.707031c.195869.195868.195869.511163 0 .707031l-2.121094 2.121094 2.121094 2.121094c.195869.195868.195869.511163 0 .707031l-.707031.707031c-.195868.195869-.511163.195869-.707031 0l-2.121094-2.121094-2.121094 2.121094c-.195868.195869-.511163.195869-.707031 0l-.707031-.707031c-.195869-.195868-.195869-.511163 0-.707031l2.121094-2.121094-2.121094-2.121094c-.195869-.195868-.195869-.511163 0-.707031l.707031-.707031c.09793-.09793.225706-.146485.353516-.146485z"/></g></svg>