<svg viewBox="0 0 32 32" xmlns="http://www.w3.org/2000/svg"><path d="m5 3c-1.108 0-2 .892-2 2v1c0 1.108.892 2 2 2h1c1.108 0 2-.892 2-2v-1c0-1.108-.892-2-2-2zm8 0c-1.108 0-2 .892-2 2v1c0 1.108.892 2 2 2h14c1.108 0 2-.892 2-2v-1c0-1.108-.892-2-2-2zm11 7-3.71875 4.25c-.19095.19768-.28125.44055-.28125.75v.585938.414062h1c.25689 0 .52846-.12983.71875-.3125l1.28125-1.509766v2.822266h2v-2.822266l1.28125 1.509766c.19029.18267.46186.3125.71875.3125h1v-.414062-.585938c0-.30945-.0903-.55232-.28125-.75-1.07301-1.41667-2.64575-2.83333-3.71875-4.25zm-19 1c-1.108 0-2 .892-2 2v14c0 1.108.892 2 2 2h1c1.108 0 2-.892 2-2v-14c0-1.108-.892-2-2-2zm15.859375 8c-1.036154 0-1.859375.863535-1.859375 1.916016v7.183593c0 1.036462.824784 1.900391 1.960938 1.900391h7.466796c1.0414 0 1.572266-.863929 1.572266-1.900391v-7.183593c0-1.052481-.530878-1.916016-1.572266-1.916016zm-4.859375 1c-.30945 0-.55232.0903-.75.28125l-4.25 3.71875c1.41667 1.073 2.83333 2.64574 4.25 3.71875.19768.19095.44055.28125.75.28125h.585938.414062v-1c0-.25689-.12983-.52846-.3125-.71875l-1.509766-1.28125h1.822266v-2h-1.822266l1.509766-1.28125c.18267-.19029.3125-.46186.3125-.71875v-1h-.414062zm5 1h2l1.5 1.800781 1.5-1.800781h2v1l-2.083984 2.5 2.083984 2.5v1h-2l-1.5-1.800781-1.5 1.800781h-2v-1l2.099609-2.5-2.099609-2.5z" fill="#aaa8ac"/></svg>