<svg height="32" viewBox="0 0 32 32" width="32" xmlns="http://www.w3.org/2000/svg"><path d="m18.5 2a1.5 1.5 0 0 0 -1.5 1.5 1.5 1.5 0 0 0 1.5 1.5 1.5 1.5 0 0 0 1.5-1.5 1.5 1.5 0 0 0 -1.5-1.5zm-12.5 1-1.3339844 2.6660156-2.6660156 1.3339844 2.6660156 1.3339844 1.3339844 2.6660156 1.3339844-2.6660156 2.6660156-1.3339844-2.6660156-1.3339844zm19.5 2a1.5 1.5 0 0 0 -1.5 1.5 1.5 1.5 0 0 0 1.5 1.5 1.5 1.5 0 0 0 1.5-1.5 1.5 1.5 0 0 0 -1.5-1.5zm-5 3a1.5 1.5 0 0 0 -1.5 1.5 1.5 1.5 0 0 0 1.5 1.5 1.5 1.5 0 0 0 1.5-1.5 1.5 1.5 0 0 0 -1.5-1.5zm-8.5 1.3339844c-1.107997 0-2 .8920026-2 1.9999996v7.207032c-.04849.02059-.0986214.039457-.1464844.060546-.291159-.74346-1.0044056-1.267578-1.8535156-1.267578-1.1079972 0-2 .892003-2 2v4c0 3.3137 4.477166 6 10 6s10-2.6863 10-6v-4c0-1.107997-.892003-2-2-2-.850442 0-1.563257.528108-1.853516 1.273438-.04784-.0224-.097961-.044546-.146484-.066406v-1.207032c0-1.107997-.892003-2-2-2s-2 .892003-2 2v-2c.000008-1.107997-.892003-2-2-2s-2 .892003-2 2v-4c0-1.107997-.892003-1.9999996-2-1.9999996z" fill="#efefef" stroke-width="1.33333"/></svg>