<svg height="32" viewBox="0 0 32 32" width="32" xmlns="http://www.w3.org/2000/svg"><g fill="#efefef"><path d="m7 4c-2.215989 0-4 1.784011-4 4v15c0 2.21599 1.784011 4 4 4h18c2.215987 0 4-1.784012 4-4v-15c0-2.215989-1.78401-4-4-4zm0 2h18c1.107995 0 2 .8920055 2 2v15c0 1.107994-.892006 2-2 2h-18c-1.1079945 0-2-.892005-2-2v-15c0-1.1079945.8920055-2 2-2z"/><path d="m11 6v3h-6v1h6v3h-6v1h6v3h-6v1h6v3h-6v1h6v3h1v-3h8v3h1v-3h6v-1h-6v-3h6v-1h-6v-3h6v-1h-6v-3h6v-1h-6v-3h-1v3h-8v-3zm1 4h8v3h-8zm0 4h8v3h-8zm0 4h8v3h-8z"/></g></svg>