<svg height="32" viewBox="0 0 32 32" width="32" xmlns="http://www.w3.org/2000/svg"><g fill="#efefef"><path d="m7 8-2 1.4824219v.5175781c0 .280529.1159478.531632.3007812.712891l3.6992188-2.712891zm4 0-4.0507812 3h1.9589843l4.0917969-3zm4 0-4.064453 3h1.972656l4.091797-3zm4 0-4.064453 3h1.972656l4.091797-3zm4 0-4.064453 3h1.972656l4.091797-3zm3.658203.2519531-3.722656 2.7480469h1.972656l2.091797-1.5332031v-.4667969c0-.3000827-.133799-.5650558-.341797-.7480469zm-21.0585936 3.7480469-.5996094.445312v1.421876l2.5449219-1.867188zm3.9804687 0-4.5800781 3.380859v1.419922l6.544922-4.800781zm3.9999999 0-8.580078 6.333984v1.398438l1-.732422 9-6.599609v-.400391zm4 0-1.580078 1.166016v1.433593l3.544922-2.599609zm4 0-5.580078 4.119141v1.414062l7.544922-5.533203zm4 0-9.580078 7.072266v1.394531l11-8.066406v-.400391zm-10.580078 1.904297-10 7.380859v1.38086l5-3.666016 5-3.666016zm12 0-11 8.119141v.976562h.544922l10.455078-7.666016zm-12 2.953125-8.3222656 6.142578h1.8671875l6.4550781-4.732422zm12 0-8.322266 6.142578h1.867188l6.455078-4.732422zm-12 2.951172-4.322266 3.191406h1.867188l2.455078-1.800781zm12 0-4.322266 3.191406h1.867188l2.455078-1.800781zm-12 2.953125-.322266.238281h.322266z"/><path d="m6 5c-2.2159912 0-4 1.7840088-4 4v13c0 2.215991 1.7840082 4 4 4h20c2.215991 0 4-1.784009 4-4v-13l-.02148-.4101562c-.02835-.5411766-.213242-1.0465084-.458985-1.5-.061439-.113373-.129433-.2237111-.201176-.3300782-.717422-1.0636711-1.933365-1.7597656-3.318359-1.7597656zm0 2h20c1.107996 0 2 .8920044 2 2v13c0 1.107996-.892004 2-2 2h-20c-.2077492 0-.4075971-.031581-.5957031-.089844-.062702-.019421-.1237345-.041172-.1835938-.066406-.7183113-.302813-1.2207031-1.012753-1.2207031-1.84375v-13c0-1.1079956.8920044-2 2-2z"/></g></svg>