<svg height="32" viewBox="0 0 32 32" width="32" xmlns="http://www.w3.org/2000/svg"><path d="m29.005859 9.9941406h-9.011718v-8h-17.0000004v10.0000004h15.0117194 1.988281 4.523437l-1.949219 2-1.281249 1.28125c-.18821.18818-.270431.453681-.28125.71875v1h.999999c.26531.00004.53057-.09314.71875-.28125l1.28125-1.28125v4.5625h-.01172v4.5625l-1.28125-1.28125c-.18818-.18811-.453441-.28129-.71875-.28125h-1v1c.01082.265069.09304.53057.28125.71875l1.28125 1.28125 1.949218 2h-6.511718v-8h-14.9999984v10h15.0000004 11v-2h-3.511719l1.949219-2 1.28125-1.28125c.18821-.18818.270431-.453681.28125-.71875v-1h-1c-.26531-.00004-.53057.09314-.71875.28125l-1.28125 1.28125v-4.5625h.01172v-4.5625l1.28125 1.28125c.18818.18811.45344.28129.71875.28125h1v-1c-.01082-.265069-.09304-.53057-.28125-.71875l-1.28125-1.28125-1.949218-2h3.511718zm-11.011718-6v6h-13.0000004v-6zm-2 18.0000004v6h-11.0000004v-6z" fill="#aaa8ac"/></svg>