<svg height="32" viewBox="0 0 32 32" width="32" xmlns="http://www.w3.org/2000/svg"><g fill="#efefef"><path d="m30 28.988281h-10v-14.988281h7.988281.011719v-11h2zm-2-2v-10.988281h-6v10.988281zm-16 2h-10v-16.988281h8v-9.011719h1.988281zm-2-2v-12.988281h-6v12.988281z"/><path d="m27.988281 6.988281c0 .265625-.105469.519531-.292969.707031l-2.984375 2.998047c-.195312.195309-.451173.292969-.707031.292969s-.511719-.09766-.707031-.292969c-.1875-.187499-.292969-.441407-.292969-.707031s.106521-.518487.292969-.707031l1.277343-1.291016h-9.171875l1.277344 1.291016c.186448.188544.292969.441407.292969.707031s-.105469.519532-.292969.707031c-.195312.195312-.451173.292969-.707031.292969s-.511719-.09766-.707031-.292969l-2.984375-2.998047c-.1875-.1875-.292969-.441406-.292969-.707031s.105469-.519531.292969-.707031l2.984375-2.998047c.195312-.195309.451173-.292969.707031-.292969s.511719.09766.707031.292969c.1875.187499.292969.441407.292969.707031s-.106521.518488-.292969.707031l-1.277344 1.291016h9.171875l-1.277343-1.291016c-.186448-.188543-.292969-.441407-.292969-.707031s.105469-.519532.292969-.707031c.195312-.195309.451173-.292969.707031-.292969s.511719.09766.707031.292969l2.984375 2.998047c.1875.1875.292969.441406.292969.707031z"/></g></svg>