<svg height="32" viewBox="0 0 32 32" width="32" xmlns="http://www.w3.org/2000/svg"><g fill="#efefef"><path d="m4 5v2h12v-2zm0 3v4h6v-4zm7 0v4h5v-4zm4 12v2h12v-2zm0 3v4h6v-4zm7 0v4h5v-4z" opacity=".35"/><path d="m21 9a1 1 0 0 0 -1 1 1 1 0 0 0 1 1c1.116409 0 2 .883591 2 2v.585938l-.292969-.292969c-.390506-.390422-1.023556-.390422-1.414062 0-.390422.390505-.390422 1.023556 0 1.414062l2 2c.390529.390367 1.023533.390367 1.414062 0l2-2c.187546-.187505.292928-.44183.292969-.707031-.000041-.265201-.105423-.519526-.292969-.707031-.390506-.390422-1.023556-.390422-1.414062 0l-.292969.292969v-.585938c0-2.164492-1.749805-3.9434212-3.902344-3.9960938a1 1 0 0 0 -.029297-.0019531h-.019531a1 1 0 0 0 -.048828-.0019531z"/><path d="m19 6c0-2.215998-1.784002-4-4-4h-10c-2.215998 0-4 1.784002-4 4v5c0 2.215998 1.784002 4 4 4h10c2.215998 0 4-1.784002 4-4zm-2 0v5c0 1.107999-.892001 2-2 2h-10c-1.107999 0-2-.892001-2-2v-5c0-1.107999.892001-2 2-2h10c1.107999 0 2 .892001 2 2z"/><path d="m30 21c0-2.215998-1.784002-4-4-4h-10c-2.215998 0-4 1.784002-4 4v5c0 2.215998 1.784002 4 4 4h10c2.215998 0 4-1.784002 4-4zm-2 0v5c0 1.107999-.892001 2-2 2h-10c-1.107999 0-2-.892001-2-2v-5c0-1.107999.892001-2 2-2h10c1.107999 0 2 .892001 2 2z"/></g></svg>