<svg height="32" viewBox="0 0 32 32" width="32" xmlns="http://www.w3.org/2000/svg"><g fill="#efefef"><path d="m9 3c-2.2159934 0-4 1.7840066-4 4v18c0 2.215994 1.7840066 4 4 4h2.554688l-1.527344-1.527344c-.1474253-.147048-.2753202-.306581-.3906252-.472656h-.6367188c-1.1079967 0-2-.669003-2-1.5v-19c0-.8309976.8920033-1.5 2-1.5h14c1.107997 0 2 .6690024 2 1.5v10.802734l1.867188-2.107422c.042106-.04816.088545-.091361.132812-.136718v-8.058594c0-2.2159934-1.784006-4-4-4zm-.5 4c-.2769994 0-.5.2230006-.5.5v1c0 .2769997.2230006.5.5.5h1c.2769994 0 .5-.2230003.5-.5v-1c0-.2769994-.2230006-.5-.5-.5zm2.5 0v2h10v-2zm11.5 0c-.277 0-.5.2230006-.5.5v1c0 .2769997.223.5.5.5h1c.277 0 .5-.2230003.5-.5v-1c0-.2769994-.223-.5-.5-.5zm-14 4c-.2769994 0-.5.223-.5.5v1c0 .277.2230006.5.5.5h1c.2769994 0 .5-.223.5-.5v-1c0-.277-.2230006-.5-.5-.5zm2.5 0v2h10v-2zm11.5 0c-.277 0-.5.223-.5.5v1c0 .277.223.5.5.5h1c.277 0 .5-.223.5-.5v-1c0-.277-.223-.5-.5-.5zm-14 4c-.2769994 0-.5.223-.5.5v1c0 .277.2230006.5.5.5h1c.2769994 0 .5-.223.5-.5v-1c0-.277-.2230006-.5-.5-.5zm2.5 0v2h10v-2zm11.5 0c-.277 0-.5.223-.5.5v1c0 .277.223.5.5.5h1c.277 0 .5-.223.5-.5v-1c0-.277-.223-.5-.5-.5zm-14 4c-.2769994 0-.5.223-.5.5v1c0 .277.2230006.5.5.5h1c.2769994 0 .5-.223.5-.5v-1c0-.277-.2230006-.5-.5-.5zm2.5 0v2h10v-2zm11.5 0c-.277 0-.5.223-.5.5v1c0 .05553.01078.108374.02734.158203l1.468754-1.658203zm-14 4c-.2769994 0-.5.223-.5.5v1c0 .277.2230006.5.5.5h.5117188c-.0003776-.696363.2045163-1.392056.609375-1.984375-.0387707-.009581-.079281-.015625-.1210938-.015625zm6.945312 0 2 2h.736329l1.771484-2z"/><path d="m30.62855 18.487297c.546705-.623523.483747-1.572343-.14055-2.118165-.623523-.546705-1.572344-.483747-2.118165.14055l-10.445305 11.79298-4.36621-4.366225c-.585762-.585643-1.535343-.585643-2.121105 0-.587595.586095-.587595 1.537935 0 2.12403l5.5 5.5c.613866.614739 1.619935.581133 2.19141-.0732z" stroke-width="1.5"/></g></svg>