<svg height="32" viewBox="0 0 32 32" width="32" xmlns="http://www.w3.org/2000/svg"><g fill="#efefef" transform="translate(1 7)"><path d="m2 4v9a1 1 0 0 1 1-1h8.585938l-2.2929692-2.2929688c-.3905235-.3905216-.3905245-1.0235428 0-1.4140624.1952618-.1952589.4511095-.2929688.7070312-.2929688.255922 0 .51177.0977069.707031.2929688l3.292969 3.2929692.671875.673828c.01199.01078.023706.021853.035156.033203l.009766.009765c.181595.186677.283199.436834.283203.697266-.001018.25908-.102548.507641-.283203.693359v.003907l-.716797.716796-3.292969 3.292969c-.390519.390524-1.0235416.390525-1.4140622 0-.3905245-.390519-.3905235-1.023541 0-1.414062l2.2929692-2.292969h-8.585938a1 1 0 0 1 -1-1v9h26v-18z"/><path d="m5-4-3 8h26l-3-8z" opacity=".35"/></g></svg>