<svg height="32" viewBox="0 0 32 32" width="32" xmlns="http://www.w3.org/2000/svg"><g fill="#efefef" stroke-width="1.33333"><path d="m4.33333 9.879908v9.229143c5.33332-3.313426 11.416638.552203 15.041629 2.755201 3.624991 2.205384 5.625051 1.842381 8.291711-.397614v-9.005991c-3.99999 2.564993-6.00005 1.502348-9.041709-.164315-3.009519-1.672833-8.104374-5.8890815-14.291631-2.416424z" opacity=".35"/><path d="m8.6796738 7.234411c1.5934102-.078339 3.0891772.2002818 4.4218632.6619323 2.665372.906249 4.803554 2.4680067 6.17186 3.2286827 1.43758.799188 2.659889 1.304639 3.913219 1.384639 1.245489.08 1.933394-.003 3.761306-1.176335l2.052078-1.33333v12.07997l-.479165.40104c-1.456231 1.217224-2.375273 1.850948-4.169326 2.039042-1.794053.188095-3.687127-.331864-5.669256-1.536454-1.8254-1.109342-4.166562-2.556838-6.585921-3.315096-2.4193607-.758258-4.7836668-.862058-7.0598784.552081l-2.0364536 1.279417v-12.4088228l.6796863-.3802075c1.7153397-.9627515 3.4065755-1.3982204 4.9999875-1.4765587zm.1992845 2.1217271c-.9845429.0456976-2.7755637.6289799-3.8789583 1.1438619v7.5c2.5-1.5 5.655664-1.563242 7.893205-.861964 2.861876.896949 5.307203 2.768307 7.106795 3.861964 1.642861.99841 3.11582 1.556139 4.22801 1.439533.955696-.100198 1.760426-.683022 2.77199-1.439533v-7c-1.384711.578428-2.621735.840157-3.869709.76511-1.857122-.111679-3.276742-.89571-4.848681-1.769592-1.641213-.912392-3.250632-2.346212-5.43188-3.0925066-1.090625-.373147-2.774686-.6023897-3.9707717-.5468733z"/></g></svg>