<svg height="32" viewBox="0 0 32 32" width="32" xmlns="http://www.w3.org/2000/svg"><g fill="#efefef"><path d="m16.003906 2.3046875c-5.19712.006325-10.0673886 2.5383324-13.0605466 6.7871094l-.0117188-.0058594c-.044917.06322-.0790568.1314525-.1230468.1953125-.2910461.415269-.5621861.84609-.8125 1.287109l1.75.966797 5.7558593 3.179688 1.2519529.691406.519532.289062c.168618-.494789.413784-.960076.726562-1.378906.942226-1.26271 2.424493-2.009418 4-2.011718 1.575507.002302 3.057774.749008 4 2.011718.313466.418702.559295.883996.728516 1.378906l.523437-.291015 1.248047-.689453 5.755859-3.175782 1.75-.96875c-2.815206-5.0981395-8.178172-8.2640245-14.001953-8.2656245zm-.001953 2c4.46945.007222 8.666836 2.1499629 11.296875 5.7636715l-5.65039 3.117188c-1.31502-1.806857-3.413713-2.87726-5.648438-2.880859-2.234375.003155-4.332999 1.072783-5.648438 2.878906l-5.6523432-3.123047c2.63251-3.6131671 6.8322682-5.7518595 11.3027342-5.7558595zm-4.728515 12.0000005-.519532.289062-1.2519529.691406-5.7558593 3.179688-1.75.966797c.2503139.441019.5214539.87184.8125 1.287109.04399.06386.0781298.132093.1230468.195312l.0117188-.005859c2.993158 4.248777 7.8634266 6.780784 13.0605466 6.787109 5.823781-.001599 11.186747-3.167485 14.001953-8.265624l-1.75-.96875-5.755859-3.175782-1.248047-.689453-.523437-.291015c-.169221.494911-.41505.960204-.728516 1.378906-.942226 1.26271-2.424493 2.009416-4 2.011718-1.575507-.002299-3.057774-.749008-4-2.011718-.312778-.41883-.557944-.884117-.726562-1.378906zm10.375 2.509765 5.65039 3.117188c-2.630039 3.613709-6.827425 5.75645-11.296875 5.763671-4.470466-.003999-8.6702242-2.142692-11.3027342-5.755859l5.6523432-3.123047c1.315439 1.806123 3.414063 2.87575 5.648438 2.878906 2.234725-.003599 4.333418-1.074002 5.648438-2.880859z"/><path d="m16.001953 4.3046875c-4.470466.004-8.6702242 2.1426924-11.3027342 5.7558595l5.6523432 3.123047c1.315439-1.806123 3.414063-2.875751 5.648438-2.878906 2.234725.003599 4.333418 1.074002 5.648438 2.880859l5.65039-3.117188c-2.630039-3.6137086-6.827425-5.7564495-11.296875-5.7636715zm5.646485 14.5097655c-1.31502 1.806857-3.413713 2.87726-5.648438 2.880859-2.234375-.003156-4.332999-1.072783-5.648438-2.878906l-5.6523432 3.123047c2.63251 3.613167 6.8322682 5.75186 11.3027342 5.755859 4.46945-.007221 8.666836-2.149962 11.296875-5.763671z" opacity=".35"/></g></svg>