<svg height="32" viewBox="0 0 32 32" width="32" xmlns="http://www.w3.org/2000/svg"><path d="m5 4c-1.108 0-2 .892-2 2v20c0 1.108.892 2 2 2h18.742188l-3.142579-3h-2.298828c-1.11674.048865-2.204979-.346716-3.226562-1h-8.074219v-5h7 1.529297 3.833984c.038858-.12581.064281-.247332.064453-.355469-.000085-.054677-.077842-.317022-.283203-.595703-.20536-.278681-.506866-.566185-.74414-.74414a1.0001 1.0001 0 0 1 -.400391-.800782v-.503906h-5v-2h6 1.857422 4.142578v2h-2.042969c.601528.930435.972112 1.927144 1.025391 3h1.017578v3.646484l3.869141 4.052735c.081382-.218295.130859-.451876.130859-.699219v-20c0-1.108-.892-2-2-2zm4 4c1.104569 0 2 .8954305 2 2 0 1.104569-.895431 2-2 2-1.1045695 0-2-.895431-2-2 0-1.1045695.8954305-2 2-2zm4 1h12v2h-12zm-4 4c1.104569 0 2 .895431 2 2s-.895431 2-2 2c-1.1045695 0-2-.895431-2-2s.8954305-2 2-2zm10 2v1.503906c.628416.471311 1.426506 1.353154 1.427734 2.138672 0 1.380712-1.404443 2.785156-2.785156 2.785156-.786206-.000614-1.668902-.798769-2.140625-1.427734h-1.501953v1.857422c1.371429 1.321851 2.948245 2.19988 4.257812 2.142578h2.742188l6.285156 6h1.714844v-1.714844l-6-6.285156v-2.742188c0-1.511963-.796341-2.886383-2.142578-4.257812z" fill="#aaa8ac"/></svg>