<svg viewBox="0 0 32 32" xmlns="http://www.w3.org/2000/svg"><g fill="#aaa8ac"><path d="m2 4v10h1v13h19.695312l-2.095703-2h-.599609-1.699219-5.300781v-3.142578-1.857422a1.0001 1.0001 0 0 1 1-1h-1v-5h1v-1h6v1h.857422a1.0001 1.0001 0 0 1 .142578.011719v-1.011719h7v6h-4.017578c.004286.086318.017578.170464.017578.257812v.742188h4v5h-.753906l1.910156 2h.84375v-22h-16v-1zm1 1h10v8h-10zm11 2h6v5h-6zm7 0h7v5h-7zm-16 7h7v5h-7zm14 1v1.503906c.628416.471311 1.426506 1.353154 1.427734 2.138672 0 1.380712-1.404443 2.785156-2.785156 2.785156-.786206-.000614-1.668902-.798769-2.140625-1.427734h-1.501953v1.857422c1.371429 1.321851 2.948245 2.19988 4.257812 2.142578h2.742188l6.285156 6h1.714844v-1.714844l-6-6.285156v-2.742188c0-1.511963-.796341-2.886383-2.142578-4.257812zm-3.470703 4a1.0001 1.0001 0 0 1 .773437.400391c.142356.189806.358206.409785.580078.599609h1.777344c.062576-.049994.127694-.096443.185547-.154297.254588-.254587.430244-.562938.517578-.845703zm-10.529297 1h7v5h-7z"/><path d="m3 5v8h10v-8z" opacity=".35"/></g></svg>