<svg viewBox="0 0 32 32" xmlns="http://www.w3.org/2000/svg"><g fill="#aaa8ac"><path d="m4 4v4h4v-4zm6 0v4h5v-4zm6 0v4h5v-4zm6 0v4h5v-4z" opacity=".35"/><path d="m6 2c-2.215978 0-4 1.7840208-4 4v19c0 2.21598 1.784022 4 4 4h19c2.21598 0 4-1.78402 4-4 0-6.423847 0-13.370676 0-19 0-2.2159792-1.78402-4-4-4zm0 2h2v4h-4v-2c0-.0692493.0029619-.1376812.0097656-.2050781.0816444-.8087679.6421069-1.4720279 1.3945313-1.7050781.0627018-.0194211.1261918-.0355507.1914062-.0488282.1304295-.0265545.2657971-.0410156.4042969-.0410156zm4 0h5v4h-5zm6 0h5v4h-5zm6 0h3c1.107998 0 2 .8920022 2 2v2h-5zm-18 6h4v5h-4zm6 0h5v5h-5zm6 0h5v5h-5zm6 0h5v5h-5zm-18 6h4v5h-4zm6 0h5v5h-5zm6 0h5v5h-5zm6 0h5v5h-5zm-18 6h4v5l-2.5957031-.089844c-.0627019-.019421-.1237346-.041171-.1835938-.066406-.7183111-.302812-1.2207031-1.012752-1.2207031-1.84375zm6 0h5v5h-5zm6 0h5v5h-5zm6 0h5v3c0 1.038748-.783962 1.888179-1.794922 1.990234-.067397.006804-.135829.009766-.205078.009766h-3z"/></g></svg>