<svg height="32" viewBox="0 0 32 32" width="32" xmlns="http://www.w3.org/2000/svg"><g fill="#aaa8ac"><path d="m5 2c-1.108 0-3 1.892-3 3 .365911 0 .70494.1057639 1 .2773438v3.4453124c-.29506.1715799-.634089.2773438-1 .2773438v2c.365911 0 .70494.105764 1 .277344v3.445312c-.29506.17158-.634089.277344-1 .277344v2c.365911 0 .70494.105764 1 .277344v3.445312c-.29506.17158-.634089.277344-1 .277344v2c.365911 0 .70494.105764 1 .277344v3.445312c-.29506.17158-.634089.277344-1 .277344 0 1.108 1.892 2 3 2 0-.828427.502873-.977633 1.2207031-1h.7792969c1.1045695 0 2 .895431 2 2h2c0-1.104569.895431-2 2-2s2 .895431 2 2h2c0-1.104569.895431-2 2-2s2 .895431 2 2h2c0-1.104569.895431-2 2-2s2 .895431 2 2c1.108 0 3-1.892 3-3-.365911 0-.70494-.105764-1-.277344v-3.445312c.29506-.17158.634089-.277344 1-.277344v-2c-.365911 0-.70494-.105764-1-.277344v-3.445312c.29506-.17158.634089-.277344 1-.277344v-2c-.365911 0-.70494-.105764-1-.277344v-3.445312c.29506-.17158.634089-.277344 1-.277344v-2c-.365911 0-.70494-.1057639-1-.2773438v-3.4453124c.29506-.1715799.634089-.2773438 1-.2773438 0-1.108-1.892-3-3-3 0 1.1045695-.895431 2-2 2s-2-.8954305-2-2h-2c0 1.1045695-.895431 2-2 2s-2-.8954305-2-2h-2c0 1.1045695-.895431 2-2 2s-2-.8954305-2-2h-2c0 1.1045695-.8954305 2-2 2s-2-.8954305-2-2zm2 5h18v14.224609l-2.5-3.224609-4.134766 4.025391-7.865234-11.025391-3.5 3.960938zm14 1c-1.656854 0-3 1.3431458-3 3 0 1.656854 1.343146 3 3 3s3-1.343146 3-3c0-1.6568542-1.343146-3-3-3zm0 1c1.104569 0 2 .8954305 2 2 0 1.104569-.895431 2-2 2s-2-.895431-2-2c0-1.1045695.895431-2 2-2zm-10.5625 3.947266 6.982422 10.023437-2.625 2.029297h-7.794922v-7.910156zm12.0625 6.9375 2.5 3.224609v1.890625h-7.9375z"/><path d="m16.920887 4.4124527c-1.472756 0-2.66666 1.1939043-2.66666 2.66666s1.193904 2.66666 2.66666 2.66666 2.66666-1.1939043 2.66666-2.66666-1.193904-2.66666-2.66666-2.66666zm-10.254207 4.2542273-6.66665 6.66665v6.99998h21.99994v-2.99999l-3.49997-3.83332-3.914074 4.315089z" opacity=".35" stroke-width="1.33333" transform="translate(4 4)"/></g></svg>