<svg height="32" viewBox="0 0 32 32" width="32" xmlns="http://www.w3.org/2000/svg"><g fill="#efefef"><path d="m7 3c-2.215978 0-4 1.7840208-4 4v18c0 2.21598 1.784022 4 4 4h14.150391c-.322113-.647746-.659265-1.336066-.91211-1.878906-.020561-.044143-.036279-.077438-.05664-.121094h-13.181641c-1.107989 0-2-.89201-2-2v-18c0-1.1079896.892011-2 2-2h18c1.10799 0 2 .8920104 2 2v16.078125l1.929688 2.669922c.045502-.242304.070312-.492139.070312-.748047v-18c0-2.2159792-1.78402-4-4-4z"/><path d="m106 813c-.55228 0-1 .44772-1 1s.44772 1 1 1 1-.44772 1-1-.44772-1-1-1zm3.5 3-2 2-1.5-1-2 2v.5c0 .5.5.5.5.5h7s.4729-.0342.5-.5v-1z"/><g><path d="m11.5 9c-1.38071 0-2.5 1.11929-2.5 2.5s1.11929 2.5 2.5 2.5 2.5-1.11929 2.5-2.5-1.11929-2.5-2.5-2.5zm0 9-4.5 4.5v1.5c0 .553998.4460012 1 1 1h9.693359c-.816732-.432494-1.499355-1.074276-1.945312-1.863281-.495592-.876819-.68407-1.912017-.5625-2.9375l-.3125.304687z"/><path d="m21.460424 17c-.203218.002-.406994.01795-.606024.0436l1.188291 2.103285c.244438.432051-.02951.928258-.548591 1.227909l-.936776.542618c-.523859.291205-1.106693.252054-1.350695-.18022l-1.188302-2.103286c-.251698.311718-.482092.658003-.625828 1.031839-.687967 1.789439.288558 3.51827 2.180523 3.861959.395283.07189.812011.05526 1.210082.0041.032043-.005111 3.139826 6.468196 3.139826 6.468196h5.57707l-5.851123-8.054518c.251648-.311717.452371-.661937.596128-1.035804.687916-1.789387-.288608-3.518259-2.180523-3.861959-.197651-.0359-.400829-.04908-.604058-.04756z" stroke-width="3.04204"/></g></g></svg>