<svg height="32" viewBox="0 0 32 32" width="32" xmlns="http://www.w3.org/2000/svg"><path d="m3 3v2h26v-2zm0 6v7 7h1.5c.2387838-.02933.3618468-.145109.5175781-.328125l6.6152339-5.896484.002-.002.002-.002c.093067-.076832.169437-.16916.228422-.271391.086746-.150345.134835-.322325.134766-.5-.000229-.03393-.0022-.06783-.0059-.101562-.0025-.02503-.0054-.04977-.0098-.07422-.000648-.0013-.0013-.0026-.002-.0039-.0043-.02382-.0096-.04711-.01563-.07031-.000987-.0038-.000923-.0079-.002-.01172-.0048-.01641-.01-.03269-.01563-.04883-.0065-.02041-.01368-.0406-.02149-.06055-.0055-.01446-.01139-.02878-.01758-.04297-.0018-.0039-.004-.0078-.0059-.01172-.01148-.02326-.02386-.04606-.03711-.06836-.0017-.003-.0021-.0067-.0039-.0098-.0128-.02266-.02648-.04481-.04101-.06641-.0018-.0026-.004-.0052-.0059-.0078-.01544-.02147-.03173-.04232-.04883-.0625-.0021-.0025-.0037-.0053-.0059-.0078-.01803-.02096-.03693-.04116-.05664-.06055-.0013-.0013-.0026-.0026-.0039-.0039-.02062-.02046-.04213-.04001-.06445-.05859-.000692-.000571-.0013-.0014-.002-.002-.00065-.000652-.0013-.0013-.002-.002l-6.6148519-5.896383c-.1557313-.1830162-.2787943-.2987998-.5175781-.328125zm11 0v2h15v-2zm0 6v2h15v-2zm0 6v2h15v-2zm0 6v2h9v-2z" fill="#efefef"/></svg>