<svg height="32" viewBox="0 0 32 32" width="32" xmlns="http://www.w3.org/2000/svg"><g fill="#aaa8ac" stroke-width="1.33333"><path d="m22.919922 7.4121094c-1.472756 0-2.666016 1.195213-2.666016 2.6679686 0 1.472756 1.19326 2.666016 2.666016 2.666016s2.667969-1.19326 2.667969-2.666016c0-1.4727556-1.195213-2.6679686-2.667969-2.6679686zm-18.5859376 10.5878906-.3339844.333984v8h24v-4l-3.5-3.833984-3.914062 4.314453-4.283204-4.814453z" opacity=".35"/><path d="m1 2v15h15v-15zm2 2h11v11h-11zm14 0v2h10v14.224609l-2.5-3.224609-4.134766 4.025391-3.365234-3.761719v.736328h-1.138672l3.558594 3.970703-3.919922 4.029297h-10.5v-7.5l.4140625-.5h-2.4140625v10h26v-24zm6 3a3 3 0 0 0 -3 3 3 3 0 0 0 3 3 3 3 0 0 0 3-3 3 3 0 0 0 -3-3zm0 1a2 2 0 0 1 2 2 2 2 0 0 1 -2 2 2 2 0 0 1 -2-2 2 2 0 0 1 2-2zm1.5 10.884766 2.5 3.224609v3.890625h-9z"/></g></svg>