<svg height="32" viewBox="0 0 32 32" width="32" xmlns="http://www.w3.org/2000/svg"><path d="m3 3v2h2v-2zm4 0v2h22v-2zm3.496094 6c-.238784.0293252-.361846.1451082-.5175784.328125l-6.8261718 5.789063-.1503907.148437v1.439453c0 .0097-.00187.01774-.00195.02734l.1523438.152344 6.8261718 5.878906c.0834413.105.1867323.236332.5175753.236332h.173828c.03-.0015.05757.0039.08789 0h1.238282v-1.5c0-.216281-.117726-.359212-.25-.503906l-5.9433596-4.996094 5.9433596-4.904297c.117837-.0957.25-.238628.25-.595703v-1.5zm3.503906 0v2h2v-2zm4 0v2h11v-2zm-4 6v2h2v-2zm4 0v2h11v-2zm-4 6v2h2v-2zm4 0v2h11v-2zm-4 6v2h2v-2zm4 0v2h11v-2z" fill="#aaa8ac" stroke-width="1.33333"/></svg>