<svg height="32" viewBox="0 0 32 32" width="32" xmlns="http://www.w3.org/2000/svg"><g fill="#efefef"><path d="m16 3-11 8.5v9.046875l11 8.453125 3.763672-2.892578c-.088306-.188001-.190818-.406653-.271484-.578125-.103147-.0121-.174194.015564-.28125-.003906-1.474157-.267792-2.761279-1.147352-3.462891-2.388672-.675673-1.195427-.778427-2.684422-.304688-4.042969l-8.5292965-6.224609 9.0859375-7.212891 9.085938 7.212891-2.931641 2.138671c.088867.010735.180879.024203.273437.041016 1.474819.267927 2.761619 1.147077 3.462891 2.388672.607246 1.075121.752671 2.389021.431641 3.630859l.677734-.521484v-9.046875z" stroke-width="1.73333"/><path d="m21.460424 17c-.203218.002-.406994.01795-.606024.0436l1.188291 2.103285c.244438.432051-.02951.928258-.548591 1.227909l-.936776.542618c-.523859.291205-1.106693.252054-1.350695-.18022l-1.188302-2.103286c-.251698.311718-.482092.658003-.625828 1.031839-.687967 1.789439.288558 3.51827 2.180523 3.861959.395283.07189.812011.05526 1.210082.0041.032043-.005111 3.139826 6.468196 3.139826 6.468196h5.57707l-5.851123-8.054518c.251648-.311717.452371-.661937.596128-1.035804.687916-1.789387-.288608-3.518259-2.180523-3.861959-.197651-.0359-.400829-.04908-.604058-.04756z" stroke-width="3.04204"/></g></svg>