<svg height="32" viewBox="0 0 32 32" width="32" xmlns="http://www.w3.org/2000/svg"><path d="m16.5 3a12.5 6 0 0 0 -12.5 6v15a12.5 6 0 0 0 12.5 6 12.5 6 0 0 0 12.5-6v-15a12.5 6 0 0 0 -12.5-6zm0 2a10.5 4 0 0 1 10.5 4 10.5 4 0 0 1 -10.5 4 10.5 4 0 0 1 -10.5-4 10.5 4 0 0 1 10.5-4zm-10.5 7.244141a12.5 6 0 0 0 10.5 2.755859 12.5 6 0 0 0 10.5-2.746094v1.746094a10.5 4 0 0 1 -10.5 4 10.5 4 0 0 1 -10.5-4zm0 5a12.5 6 0 0 0 10.5 2.755859 12.5 6 0 0 0 10.5-2.746094v1.746094a10.5 4 0 0 1 -10.5 4 10.5 4 0 0 1 -10.5-4zm0 5a12.5 6 0 0 0 10.5 2.755859 12.5 6 0 0 0 10.5-2.746094v1.746094a10.5 4 0 0 1 -10.5 4 10.5 4 0 0 1 -10.5-4z" fill="#efefef"/></svg>