<svg height="32" viewBox="0 0 32 32" width="32" xmlns="http://www.w3.org/2000/svg"><g fill="#aaa8ac"><g stroke-width="1.33333" transform="translate(4 4)"><path d="m18.920887 3.4124527c-1.472756 0-2.66666 1.1939043-2.66666 2.66666s1.193904 2.66666 2.66666 2.66666 2.66666-1.1939043 2.66666-2.66666-1.193904-2.66666-2.66666-2.66666zm-12.254207 1.2542273-6.66665 6.66665v6.99998h23.99994v-2.99999l-3.49997-3.83332-4.5 4z" opacity=".35"/><path d="m3 4v20h26v-20zm2 2h22v11.224609l-2.5-3.224609-4.134766 4.025391-9.865234-11.025391-5.5 6.224609zm18 1c-1.656854 0-3 1.3431458-3 3 0 1.656854 1.343146 3 3 3s3-1.343146 3-3c0-1.6568542-1.343146-3-3-3zm0 1c1.104569 0 2 .8954305 2 2 0 1.104569-.895431 2-2 2s-2-.895431-2-2c0-1.1045695.895431-2 2-2zm-12.5625.947266 8.982422 10.023437-3.919922 3.029297h-10.5v-6.5zm14.0625 6.9375 2.5 3.224609v2.890625h-9z" transform="translate(-4 -4)"/></g><path d="m3 26h26v2h-26z"/></g></svg>