<svg viewBox="0 0 32 32" xmlns="http://www.w3.org/2000/svg"><path d="m11 2c-1.108 0-2 .892-2 2v24c0 1.108.892 2 2 2h18c1.108 0 2-.892 2-2v-18c0-2-4-8-8-8zm-6 1c0 1.4-1.7 2-3 2v2h3v7h2v-11zm6 1h12v7h6v17h-18zm-6.5 14c-1.738647.0016-3.2125605 1.279185-3.4609375 3h2.0097656c.216145-.609303.7925581-1.016781 1.4394531-1.017578.6468952.000797 1.2233082.408275 1.4394532 1.017578l.0722656.5c.413826 1.896466-3 2.833333-5 4.5v3h7v-2h-5l.0859375-.189453c.2174885-.479128 4.2436719-2.183926 4.5136719-3.410156.4-.4.4003906-1.670391.4003906-1.900391l-.0410156-.5c-.248271-1.720082-1.7210794-2.997459-3.4589844-3z" fill="#aaa8ac"/></svg>