<svg height="32" viewBox="0 0 32 32" width="32" xmlns="http://www.w3.org/2000/svg"><path d="m5 2-4 5v2h4v2.5h2v-2.5h1v-2h-1v-5zm4 0v5h2 2v2h-4v2h4c1.104569 0 2-.895431 2-2v-2c0-1.1045695-.895431-2-2-2h-2v-1h4v-2h-4zm10.333984 0c-1.472755 0-2.667968 1.1932599-2.667968 2.6660156 0 1.4727563 1.195213 2.6679688 2.667968 2.6679688s2.666016-1.1952125 2.666016-2.6679688c0-1.4727557-1.193261-2.6660156-2.666016-2.6660156zm8.726563 1.0664062c-.0131.012449-.02837.022152-.04102.035156l-23.9999958 23.9999998c-.0076833.007684-.0120746.01571-.0195312.023438v1.894531c.015619.01632.030557.03126.046875.04687h1.8945312c.00769-.0074.01579-.01188.023438-.01953l24.0000002-24c.0148326-.0143879.0211556-.0321323.0351556-.046871v-1.8808594c-.01757-.018881-.03798-.034829-.05664-.052734zm-8.726563.2675782c.736378 0 1.332032.595653 1.332032 1.3320312s-.595654 1.3339844-1.332032 1.3339844-1.333984-.5976062-1.333984-1.3339844.597606-1.3320312 1.333984-1.3320312zm-14.333984 1.6660156v2h-2z" fill="#efefef"/></svg>