<svg height="32" viewBox="0 0 32 32" width="32" xmlns="http://www.w3.org/2000/svg"><g fill="#efefef"><path d="m14 3a11 11 0 0 0 -11 11 11 11 0 0 0 11 11 11 11 0 0 0 3.058594-.435547c-.524772-.390324-.966457-.879503-1.285156-1.443359-.052719-.093273-.10076-.188488-.146485-.285156a9 9 0 0 1 -1.626953.164062 9 9 0 0 1 -9-9 9 9 0 0 1 9-9 9 9 0 0 1 9 9 9 9 0 0 1 -.09375 1.191406c.688338.19361 1.320814.52291 1.855469.960938a11 11 0 0 0 .238281-2.152344 11 11 0 0 0 -11-11zm0 4a7 7 0 0 0 -7 7 7 7 0 0 0 7 7 7 7 0 0 0 1.181641-.103516c-.01216-.651885.100883-1.315557.34375-1.947265.253385-.65902.606677-1.160854.935547-1.56836.701448-.687718 1.797601-.765105 2.58789-.18164a.02997085.02997085 0 0 0 .046875-.025391c-.085738-.978411.551951-1.875044 1.503906-2.115234.101271-.013048.206235-.022327.310547-.03125a7 7 0 0 0 .089844-1.027344 7 7 0 0 0 -7-7z"/><path d="m21.460424 17c-.203218.002-.406994.01795-.606024.0436l1.188291 2.103285c.244438.432051-.02951.928258-.548591 1.227909l-.936776.542618c-.523859.291205-1.106693.252054-1.350695-.18022l-1.188302-2.103286c-.251698.311718-.482092.658003-.625828 1.031839-.687967 1.789439.288558 3.51827 2.180523 3.861959.395283.07189.812011.05526 1.210082.0041.032043-.005111 3.139826 6.468196 3.139826 6.468196h5.57707l-5.851123-8.054518c.251648-.311717.452371-.661937.596128-1.035804.687916-1.789387-.288608-3.518259-2.180523-3.861959-.197651-.0359-.400829-.04908-.604058-.04756z" stroke-width="3.04204"/></g></svg>