<svg height="32" viewBox="0 0 32 32" width="32" xmlns="http://www.w3.org/2000/svg"><path d="m7 3v16a5 5 0 0 0 -5 5 5 5 0 0 0 5 5h17.789062l-2.09375-2h-10.195312-3.5-2a3 3 0 0 1 -3-3 3 3 0 0 1 3-3h2v-16h10.5 3.5 2a3 3 0 0 1 3 3 3 3 0 0 1 -3 3h-2v5.068359c.62374.985847 1 2.042961 1 3.189453v2.341797l1 1.046875v-9.646484a5 5 0 0 0 5-5 5 5 0 0 0 -5-5zm12 12v1.503906c.628416.471311 1.426506 1.353154 1.427734 2.138672 0 1.380712-1.404443 2.785156-2.785156 2.785156-.786206-.000614-1.668902-.798769-2.140625-1.427734h-1.501953v1.857422c1.371429 1.321851 2.948245 2.19988 4.257812 2.142578h2.742188l6.285156 6h1.714844v-1.714844l-6-6.285156v-2.742188c0-1.511963-.796341-2.886383-2.142578-4.257812z" fill="#aaa8ac"/></svg>