<svg viewBox="0 0 32 32" xmlns="http://www.w3.org/2000/svg"><path d="m28-.00195313-8 .00195313c-.54701 0-.433161 0 .537109 1l7.462891 7.4707031c1.17188 1.14517 1 1.0683769 1-.4707031v-7.00195312c-.00006-.55226-.44774-.99994001-1-1.00000001zm-24 .00195313c-.5522619.00005522-.9999448.44773812-1 1v30c.0000552.552262.4477381.999945 1 1h24c.552262-.000055.999945-.447738 1-1v-19c-.000051-.265199-.105433-.519519-.292969-.707031l-11-11.00000025c-.187512-.1875362-.441832-.29291764-.707031-.29296875zm1 2h11.585938l10.414062 10.414062v17.585938h-22zm11 8c-4.970563 0-9 4.029437-9 9s4.029437 9 9 9 9-4.029437 9-9-4.029437-9-9-9zm0 2c.05081.002.101593.004613.152344.007812.297828.008101.594311.032165.888672.078126.03324.005.066449.010175.099609.015624l-1.324219 1.167969.792969.689453.263672-.421875.1875.53711.525391-.5-.335938-.189453.742188-.384766-.273438 1.164062-.271484.3125-1.22461.566407-.347656.517578-.830078.244141-.558594.675781.71875.367187.384766-.720703.632812.113281.431641-.402343.558594.402343.234375.681641-.320313.240234.828125-.201171-.113281-.351563.470703.238281-.59375-.769531-.074219-.476563 1.179688.048829.271484 1.474609h.470703l-.386718.960938c-.344009-.01918-.748668-.0933-1.214844-.220704-.785258-.225868-1.18487-.33789-1.191406-.33789-.276535-.03963-.547683-.08119-.824219-.126953-.318479-.05259-.585846-.147682-.794922-.294922-.884328.376755-1.563169.634951-2.039063.77539l-.285156 1.462891.425781 1.001953 1.634766.392578.738281 1.058594c.324548 1.253999.528061 2.494304.601563 3.728516l.621093.414062c-.043569.0056-.08719.010825-.130859.015625-.183853.02042-.367839.033263-.552734.039063-.055964.002624-.111958.004579-.167969.005859-1.891956-.000001-3.703344-.765842-5.021484-2.123047-.325565-.335304-.616731-.70237-.869141-1.095703-.125884-.195915-.2419142-.397989-.3476562-.605469-.105636-.208006-.2008063-.421163-.2851563-.638672-.08459-.217536-.1582521-.439167-.2207031-.664062-.06087-.218784-.1110617-.4404-.1503906-.664063-.0037001-.02135-.0061657-.043033-.0097657-.064453-.03381-.203882-.0585687-.409161-.0742187-.615234-.0042-.05624-.0049125-.113323-.0078125-.169922-.007627-.119656-.0122009-.239485-.0136719-.359375.000001-1.891956.7658419-3.703344 2.123047-5.021484.335304-.325565.70237-.616731 1.095703-.869141.195915-.125884.397989-.241914.605469-.347656.208006-.105636.421163-.200806.638672-.285157.217536-.08459.439167-.158252.664062-.220703.218784-.06087.4404-.111061.664063-.15039.02135-.0037.043033-.006166.064453-.009766.203882-.03381.409161-.058569.615234-.074219.05624-.0042.113323-.004912.169922-.007812.119656-.007627.239485-.012201.359375-.013672zm-2.142578.683594-.197266.683594.517578-.080079.308594-.238281-.111328-.365234zm1.667969.71875-.140625.367187.253906.470703.236328.082032-.359375.443359.396484.039063.421875-.44336zm-.480469.636718-.197266.322266.123047.355469.271485-.314453zm1.373047 2.769532.355469.392578.041015-.392578zm3.005859 1.564453.6875 1.580078 1.207031-.441406-.46875-.919922c.791339-.0824 1.203873-.125001 1.242188-.125.0024 0 .655543.069333.892578.095703.0098.145636.014975.291538.015625.4375-.000243.461068-.04604.920984-.136719 1.373047-.0036.01773-.007998.035054-.011719.052734-.04287.206021-.094999.410004-.15625.611328-.0072.02344-.014094.046973-.021484.070313-.06138.193038-.131104.383321-.208984.570312-.0111.0267-.021783.053538-.033203.080078-.08373.194858-.176274.385811-.277344.572266-.0039.0085-.007799.016931-.011719.025391-.0018.0033-.003959.006465-.005859.009765-.04417.07505-.089776.149304-.136719.222657-.157552.262773-.32951.516377-.519531.755859-.0327.04335-.06591.08632-.09961.128906-.214343.257599-.449736.495819-.699218.720703-.08472.07764-.171331.153186-.259766.226563-.04671.0381-.09289.07636-.140625.113281-.136865.105432-.277586.205761-.421875.300781-.0391.02586-.07752.053015-.117187.078125-.158281.10022-.320521.194046-.486329.28125-.03417.01794-.06705.037288-.101562.054688-.400765.201863-.820012.364721-1.251953.486328-.06148.01731-.125278.029222-.1875.044922-.11069.02811-.222052.053512-.333985.076172l.923829-.810547c.231511-.884054.344388-1.859489.33789-2.94336.402353-.504211.804678-.998833 1.207031-1.486328-.03586-.678039-.249701-1.380507-.638671-2.107422z" fill="#aaa8ac"/></svg>