<svg height="32" viewBox="0 0 32 32" width="32" xmlns="http://www.w3.org/2000/svg"><path d="m7 4c-2.77 0-5 2.453-5 5.5v13c0 3.047 2.23 5.5 5 5.5h1c2.77 0 5-2.453 5-5.5v-13c0-3.047-2.23-5.5-5-5.5zm17 0c-2.77 0-5 2.453-5 5.5v13c0 3.047 2.23 5.5 5 5.5h1c2.77 0 5-2.453 5-5.5v-13c0-3.047-2.23-5.5-5-5.5zm-17 2h1c1.662 0 3 1.338 3 3v14c0 1.662-1.338 3-3 3h-1c-1.662 0-3-1.338-3-3v-14c0-1.662 1.338-3 3-3zm17 0h1c1.662 0 3 1.338 3 3v14c0 1.662-1.338 3-3 3h-1c-1.662 0-3-1.338-3-3v-14c0-1.662 1.338-3 3-3zm-10 18v4h4v-4z" fill="#efefef"/></svg>