<svg viewBox="0 0 32 32" xmlns="http://www.w3.org/2000/svg"><g fill="#efefef"><path d="m15 2c-2.215991 0-4 1.7840088-4 4v6h2v-6c0-1.1079956.892004-2 2-2h7v4c0 1.1079945.892005 2 2 2h4v12c0 1.107996-.892004 2-2 2h-1v2h1c2.215992 0 4-1.784008 4-4v-13c0-.999999-.262366-1.2638419-1-2l-4-4c-.689028-.7256429-1.000001-1-2-1z"/><path d="m18 12h-12c-2.215993 0-4 1.784007-4 4v10c0 2.215994 1.784007 4 4 4h15c2.215994 0 4-1.784006 4-4v-7c0-1-.262365-1.263841-1-2l-4-4c-.689029-.725644-1-1-2-1zm-12 2h11v4c0 1.107996.892004 2 2 2h4v6c0 1.107997-.892003 2-2 2h-15c-1.107997 0-2-.892003-2-2v-10c0-1.107997.892003-2 2-2z"/></g></svg>