<svg viewBox="0 0 32 32" xmlns="http://www.w3.org/2000/svg"><g fill="#efefef"><path d="m6 5c-2.2159912 0-4 1.7840088-4 4v14.5c0 2.215992 1.7840088 4 4 4h14.419922c-.058694-.123187-.129645-.267275-.181641-.378906-.270377-.580483-.524063-1.11983-.746093-1.591797-.103147-.0121-.174194.015564-.28125-.003906-.041173-.00748-.082176-.016963-.123047-.025391h-13.087891c-1.1079959 0-2-.892004-2-2v-14.5c0-1.1079956.8920041-2 2-2h16v4c0 1.107995.892005 2 2 2h4v10.5c0 .26889-.053032.524026-.148438.757812l1.265626 1.75c.551173-.685302.882812-1.555945.882812-2.507812v-11.5c0-.999999-.262366-1.263842-1-2l-4-4c-.689028-.7256429-1.000001-1-2-1z"/><path d="m21.460424 17c-.203218.002-.406994.01795-.606024.0436l1.188291 2.103285c.244438.432051-.02951.928258-.548591 1.227909l-.936776.542618c-.523859.291205-1.106693.252054-1.350695-.18022l-1.188302-2.103286c-.251698.311718-.482092.658003-.625828 1.031839-.687967 1.789439.288558 3.51827 2.180523 3.861959.395283.07189.812011.05526 1.210082.0041.032043-.005111 3.139826 6.468196 3.139826 6.468196h5.57707l-5.851123-8.054518c.251648-.311717.452371-.661937.596128-1.035804.687916-1.789387-.288608-3.518259-2.180523-3.861959-.197651-.0359-.400829-.04908-.604058-.04756z" stroke-width="3.04204"/></g></svg>