<svg height="32" viewBox="0 0 32 32" width="32" xmlns="http://www.w3.org/2000/svg"><path d="m21.001953 6c.2652.0000401.519529.1054238.707031.2929688l6.998047 7.0000002c.195184.195264.292969.451149.292969.707031s-.09778.511766-.292969.707031l-6.998047 7c-.187502.187546-.441831.292929-.707031.292969-.2652-.00004-.519526-.105423-.707031-.292969-.390423-.390501-.390423-1.023561 0-1.414062l5.291015-5.292969h-16.085937c-2.492996 0-4.5 2.007004-4.5 4.5s2.007004 4.5 4.5 4.5c.17157 0 .33353-.03227.5-.05078v.05078c.552282 0 1 .447718 1 1s-.447718 1-1 1v-.02539c-.165651.012538-.33103.02539-.5.02539-3.600992 0-6.5-2.899008-6.5-6.5s2.899008-6.5 6.5-6.5h16.085937l-5.291015-5.2929688c-.390423-.3905046-.390423-1.0235578 0-1.4140624.187505-.187545.441831-.2929287.707031-.2929688z" fill="#efefef"/></svg>