<svg height="32" viewBox="0 0 32 32" width="32" xmlns="http://www.w3.org/2000/svg"><path d="m16 4a12 12 0 0 0 -12 12 12 12 0 0 0 12 12 12 12 0 0 0 10.132812-5.578125l-.0098-.0078a1.009324 1.009324 0 0 0 .138672-.505859 1.009324 1.009324 0 0 0 -1.009766-1.009765 1.009324 1.009324 0 0 0 -.802734.40039l-.0039-.002a10 10 0 0 1 -8.445284 4.703159 10 10 0 0 1 -10-10 10 10 0 0 1 10-10 10 10 0 0 1 7.953125 4h-3.953125c-.553997 0-1 .446002-1 1 0 .553997.446003 1 1 1h5.150391 1.849609v-.740234-6.259766c0-.5539982-.446003-1-1-1s-1 .4460018-1 1v3.1132812a12 12 0 0 0 -9-4.1132812z" fill="#efefef"/></svg>