<svg height="32" viewBox="0 0 32 32" width="32" xmlns="http://www.w3.org/2000/svg"><g fill="#efefef"><path d="m5.046875 3c-1.692121 0-3.046875 1.2629469-3.046875 3.2011719.00109 1.386103.5602494 1.936842 1.3691406 2.53125l4.2011719 3.2187501c.8647344.437788.3910184 2.048828-.6171875 2.048828h-4.953125v2h4.953125c1.6921209 0 3.046875-1.59498 3.046875-3.533203-.000892-1.426651-1.0828889-2.356373-2-2.966797l-3.5546875-2.7597656c-.5690963-.419011-.4595706-1.7402344.6015625-1.7402344h4.953125v-2zm8.953125 0c-1.662 0-3 1.561-3 3.5v6c0 1.939 1.338 3.5 3 3.5h4c.429691 0 .836224-.106684 1.205078-.294922l.294922.294922h1.5v-1.5l-.361328-.361328c.223554-.490365.361328-1.042423.361328-1.638672v-6c0-1.939-1.338-3.5-3-3.5zm9 0v13h7v-2h-5v-11zm-9 2h4c.554 0 1 .669 1 1.5v6l-1.5-1.5h-1.5v1.5l1.5 1.5h-3.5c-.554 0-1-.669-1-1.5v-6c0-.831.446-1.5 1-1.5z" stroke-width="1.33333"/><path d="m25 20c.255859 0 .511719.09766.707031.292969l4 4c.1875.1875.292969.441406.292969.707031s-.105469.519531-.292969.707031l-4 4c-.390624.390625-1.023438.390625-1.414062 0-.1875-.1875-.292969-.441406-.292969-.707031s.105469-.519531.292969-.707031l2.292969-2.292969h-12.585938c-.553999 0-1-.446001-1-1s.446001-1 1-1h12.585938l-2.292969-2.292969c-.1875-.187499-.292969-.441406-.292969-.707031 0-.265624.105469-.519531.292969-.707031.195312-.195312.451172-.292969.707031-.292969z"/></g></svg>