<svg height="32" viewBox="0 0 32 32" width="32" xmlns="http://www.w3.org/2000/svg"><path d="m6 3v.6848943l.000025 24.3198357h2.3723901l4.1380109-4.471344 2.082394 3.903871c.482436.936228 1.218047 1.510011 1.937493 1.726553.82118.248948 1.666451.202947 2.45312-.05208.786668-.255036 1.546228-.740082 2.044265-1.531247.498038-.791163.627616-1.892395.265625-2.919263l-2.202185-4.65647h6.908837v-2.302077l-17.4114401-14.702673zm2 3h.515624l14.484376 12h-7l3.227136 7.379884c.127373.369778.07653.467753-.0079.601562-.08569.136126-1.007529.855162-1.310487.95338-.302959.09821-.658364.0966-.856769.03645-.130693-.04452-.213784-.118613-.244791-.184895-1.261123-2.542336-2.532059-4.250285-3.807189-6.786381l-5 5z" fill="#efefef" stroke-width="1.33333"/></svg>