<svg height="32" viewBox="0 0 32 32" width="32" xmlns="http://www.w3.org/2000/svg"><path d="m5 4c-1.108 0-2 .892-2 2v20c0 1.108.892 2 2 2h11.021484a8.5 8.5 0 0 1 -2.636718-4h-6.384766v-5h6.375a8.5 8.5 0 0 1 1.644531-3h-2.019531v-2h4.511719a8.5 8.5 0 0 1 3.988281-1 8.5 8.5 0 0 1 7.5 4.511719v-11.511719c0-1.108-.892-2-2-2zm4 4c1.104569 0 2 .8954305 2 2 0 1.104569-.895431 2-2 2-1.1045695 0-2-.895431-2-2 0-1.1045695.8954305-2 2-2zm4 1h12v2h-12zm-4 4c1.104569 0 2 .895431 2 2s-.895431 2-2 2c-1.1045695 0-2-.895431-2-2s.8954305-2 2-2zm12.5 1a7.5 7.5 0 0 0 -7.5 7.5 7.5 7.5 0 0 0 7.5 7.5 7.5 7.5 0 0 0 7.5-7.5 7.5 7.5 0 0 0 -7.5-7.5zm0 2a5.5 5.5 0 0 1 5.5 5.5 5.5 5.5 0 0 1 -5.5 5.5 5.5 5.5 0 0 1 -5.5-5.5 5.5 5.5 0 0 1 5.5-5.5zm-3.5 2v1l2 2v1.5c0 .277.223.5.5.5h1.5l2 2h1v-1l-2-2v-1.5c0-.277-.223-.5-.5-.5h-1.5l-2-2zm11 7.490234a8.5 8.5 0 0 1 -2.037109 2.509766h.037109c1.108 0 2-.892 2-2z" fill="#aaa8ac"/></svg>