<svg height="32" viewBox="0 0 32 32" width="32" xmlns="http://www.w3.org/2000/svg"><path d="m24 2v8.5625l-2.28125-2.28125c-.18818-.18811-.45344-.28129-.71875-.28125h-1v1c0 .26529.09304.53057.28125.71875l4 4 .28125.28125h.875l.28125-.28125 4-4c.18814-.18817.28122-.45344.28125-.71875v-1h-1c-.2653 0-.53058.0931-.71875.28125l-2.28125 2.28125v-8.5625zm-22 6v21h9.333984c.225388 0 .446934-.010341.666016-.03125v.0059c3.383507-.261124 5.996799-3.08109 6-6.47465-.004586-2.590569-1.547022-4.931081-3.925781-5.957031.601554-.901008.923618-1.959605.925781-3.042969-.002361-2.842075-2.169693-5.2416306-5-5.5zm3 3h5c1.163878.237576 1.999871 1.312122 2 2.5-.002 1.18641-.837558 2.235375-2 2.472656l-5 .027344zm23.501953 1.984375c-.166749.006021-.334695.017225-.501953.015625-.05272 0-.103769.0068-.15625.0078l-1.417969 1.417969-.28125.28125c-.187512.187548-.441832.29293-.707031.292981h-.875c-.265199-.000051-.519519-.105433-.707031-.292969l-.28125-.28125-.05273-.05273c-2.124189 1.438245-3.521489 3.868475-3.521489 6.626949 0 4.418278 3.581722 8 8 8 .334475-.0025.668464.07948 1 .03516v-.03516h2v-3h-2c-.328942.06867-.663969-.0015-1 0-2.761424 0-5-2.238576-5-5s2.238576-5 5-5c.335899.000178.670924-.03806 1 .0293v-.0293h2v-3h-2c-.165748-.02248-.331298-.02165-.498047-.01563zm-23.501953 6.015625h6.333984c.227965 0 .448467-.002.666016.04102 1.720082.248271 2.997459 1.721079 3 3.458984-.0016 1.738647-1.279185 3.21256-3 3.460938-.217577.030259-.438019.039058-.666016.039058h-6.333984z" fill="#aaa8ac" stroke-width="2.66666"/></svg>