<svg height="32" viewBox="0 0 32 32" width="32" xmlns="http://www.w3.org/2000/svg"><g fill="#efefef"><path d="m19.999783 3v1.5000723h.009c-.003.3965591.152798.7778774.430687 1.060596l3.000143 3.0001444c.585824.5855833 1.535369.5855833 2.121192 0l3.000145-3.0001444c.278098-.2827186.433687-.6640369.430687-1.060596h.0086v-1.5000723z" stroke-width="1.50007"/><path d="m4 12c-.5539994 0-1 .446001-1 1v15c0 .553999.4460006 1 1 1h4.9277344c3.9193046 0 6.2226566-1.836318 6.2226566-4.947266 0-2.131121-1.201399-3.748773-3.185547-4.410156 1.175791-.661382 1.912109-2.0585 1.912109-3.552734 0-2.59654-2.083628-4.089844-5.7089842-4.089844zm1.0332031 1.738281h2.890625c2.5965389 0 3.8710939.955468 3.8710939 2.890625 0 1.200287-.539458 1.984044-1.886719 2.669922h-.171875-4.7031249zm0 7.251953h4.4824219c2.155618 0 3.552734 1.371889 3.552734 3.478516 0 1.959652-1.175514 2.792969-3.894531 2.792969h-4.1406249z" stroke-width=".612392"/><path d="m21.759766-21.220703c-4.436322 0-8.188842 1.517127-10.814454 4.189453-2.6256106 2.672326-4.1074214 6.478981-4.1074214 10.9707031 0 4.3116144 1.4204738 7.9691998 3.9355474 10.5371094 2.515073 2.5679096 6.108551 4.0253906 10.345703 4.0253906 2.769873 0 5.649622-.6181817 8.363281-1.8105469a.60244647.60244647 0 0 0 .332031-.7304687l-.759765-2.4414063a.60244647.60244647 0 0 0 -.798829-.3789062c-1.917938.7671751-4.346163 1.2382812-6.375 1.2382812-3.177242 0-5.757503-1.1151471-7.570312-3.0546874-1.812809-1.93954045-2.869141-4.7293482-2.869141-8.1445313 0-3.2599775.965628-5.8072555 2.683594-7.5527345s4.219358-2.724609 7.435547-2.724609c2.154071 0 4.619122.469775 6.666015 1.242187a.60244647.60244647 0 0 0 .775391-.347656l.960938-2.480469a.60244647.60244647 0 0 0 -.28125-.75c-2.160441-1.143762-5.107568-1.787109-7.921875-1.787109z" transform="matrix(.50841515 0 0 .50841515 12.538569 24.998948)"/></g></svg>