<svg height="32" viewBox="0 0 32 32" width="32" xmlns="http://www.w3.org/2000/svg"><path d="m16 3a13 13 0 0 0 -13 13 13 13 0 0 0 13 13 13 13 0 0 0 13-13 13 13 0 0 0 -13-13zm3.605469 2.6210938a11 11 0 0 1 .019531.0078124 11 11 0 0 0 -.019531-.0058593 11 11 0 0 0 0-.0019531zm1.394531 5.3789062 2 2-10 10-5-5 2-2 3 3zm-15.3710938 1.375a11 11 0 0 0 -.0058593.019531 11 11 0 0 0 -.0019531 0 11 11 0 0 1 .0078124-.019531zm20.7480468 7.230469a13 6 0 0 0 .001953 0 11 11 0 0 1 -.007812.019531 11 11 0 0 0 .005859-.019531zm-14.001953 6.765625a11 11 0 0 0 .019531.005859 6 13 0 0 0 0 .001953 11 11 0 0 1 -.019531-.007812z" fill="#aaa8ac"/></svg>