<svg viewBox="0 0 32 32" xmlns="http://www.w3.org/2000/svg"><path d="m5 2v3h7l-7 6v3h11v-3h-6.5l6.5-5.5v-3.5zm18 0v24.5625l-2.28125-2.28125c-.18818-.18811-.45344-.28129-.71875-.28125h-1v1c0 .26529.09304.53057.28125.71875l4 4 .28125.28125h.875l.28125-.28125 4-4c.18814-.18817.28122-.45344.28125-.71875v-1h-1c-.2653 0-.53058.0931-.71875.28125l-2.28125 2.28125v-24.5625zm-17 15v3h5.054688.945312 1v1 .949219.050781h-5c-2.209139 0-4 1.790861-4 4s1.790861 4 4 4h5 3v-10.5c0-1.380712-1.119288-2.5-2.5-2.5-.109771.0006-.219383.008398-.328125.023438-.056638-.006303-.118614-.023438-.171875-.023438zm2 8h5v2h-5c-.5522847 0-1-.447715-1-1s.4477153-1 1-1z" fill="#aaa8ac"/></svg>