<svg height="32" viewBox="0 0 32 32" width="32" xmlns="http://www.w3.org/2000/svg"><path d="m6 3c-.554 0-1 .446-1 1v6c0 .554.4464967.976546 1 1h2v-4c0-.554.446-1 1-1h5v11l4 2v-1-12h5c.554 0 1 .446 1 1v4h2c.554 0 1-.446 1-1v-6c0-.554-.446-1-1-1zm18.011719 9c-.920442 1.024162-1.954749 2.225834-2.730469 3.25-.19095.19768-.28125.44055-.28125.75v.585938.414062h1c.25689 0 .52845-.12983.71875-.3125l1.28125-1.6875v5h2v-5l1.28125 1.6875c.19029.18267.46186.3125.71875.3125h1v-.414062-.585938c0-.30945-.0903-.55232-.28125-.75l-2.6875-3.25zm-21.011719 1v16h26v-1l-5.636719-3.251953-1.560547 1.888672a1.0001687 1.0001687 0 0 1 -.771484.363281h-2.019531a1.0001687 1.0001687 0 0 1 -.765625-.357422l-.539063-.642578h-11.707031v-7.5l10.490234 6.050781-.974609-1.158203.046875.052734c-.382108-.395575-.543265-.949415-.5625-1.402343a1.0001687 1.0001687 0 0 1 0-.042969v-.585938-.414062a1.0001687 1.0001687 0 0 1 .435547-.826172zm16 5v5l-1.28125-1.6875c-.1903-.18267-.46186-.3125-.71875-.3125h-1v.414062.585938c.01313.309172.0903.55232.28125.75l2.730469 3.25h2.019531l2.6875-3.25c.19095-.19768.28125-.44055.28125-.75v-.585938-.414062h-1c-.256867.0034-.52846.12983-.71875.3125l-1.28125 1.6875v-5z" fill="#aaa8ac"/></svg>