<svg height="32" viewBox="0 0 32 32" width="32" xmlns="http://www.w3.org/2000/svg"><g fill="#efefef" stroke-width="1.31635"><path d="m15.980469 5.9101562c-1.450208 0-2.673735.8995277-3.310547 2.2929688a1.9381216 1.9381216 0 0 1 -2.265625 1.0664062c-.7750116-.2086058-1.0214012-.3085937-.9941408-.3085937-2.433587 0-4.4726562 2.0926565-4.4726562 4.7363285 0 1.150085.4903416 2.146203 1.3242188 3.103515a1.9381216 1.9381216 0 0 1 -.068359 2.621094c-.8039387.831648-1.2558598 1.659552-1.2558598 2.667969 0 2.220847 1.7125409 3.972656 3.7421875 3.972656.6096198 0 1.1946776-.223685 1.8632815-.658203a1.9381216 1.9381216 0 0 1 2.113281 0c.667478.433786 1.255616.658203 1.865234.658203 1.450203 0 2.673735-.899529 3.310547-2.292969a1.9381216 1.9381216 0 0 1 2.265625-1.066406c.775094.208457 1.022835.308594.994141.308594 2.433588 0 4.472656-2.092654 4.472656-4.736328 0-.386723-.200879-.865272-.560547-1.736329a1.9381216 1.9381216 0 0 1 .519532-2.203124c.939719-.816251 1.501953-1.768799 1.501953-2.927735 0-2.2208475-1.712541-3.9726561-3.742188-3.9726561-.624998 0-1.230508.2331161-1.927734.6933593a1.9381216 1.9381216 0 0 1 -2.644531-.4902343c-.79974-1.119801-1.646075-1.7285156-2.730469-1.7285157z" opacity=".35"/><path d="m15.980469 3.9726562c-2.264845 0-4.159309 1.4280934-5.072266 3.4257813-.500368-.1346815-.9543035-.3749998-1.4980468-.375-3.5353885 0-6.4101562 3.0150475-6.4101562 6.6738285 0 1.720578.7597622 3.181837 1.8007812 4.376953-1.0272822 1.06269-1.8007812 2.391796-1.8007812 4.015625 0 3.23749 2.5475966 5.910156 5.6796875 5.910156 1.0958748 0 2.0609345-.412457 2.9199215-.970703.858987.558246 1.826001.970703 2.921875.970703 2.264842 0 4.159308-1.428094 5.072266-3.425781.499995.134471.954758.375 1.498047.375 3.535389 0 6.410156-3.015045 6.410156-6.673828 0-.922282-.382318-1.690161-.707031-2.476563 1.248589-1.084538 2.167969-2.576824 2.167969-4.390625 0-3.2374908-2.547597-5.9101561-5.679688-5.9101561-1.118688 0-2.108069.4274812-2.996094 1.0136719-1.021238-1.429944-2.450325-2.5390625-4.30664-2.5390626zm0 1.9375c1.084394.0000002 1.930729.6087147 2.730469 1.7285157a1.9381216 1.9381216 0 0 0 2.644531.4902343c.697226-.4602431 1.302736-.6933593 1.927734-.6933593 2.029647 0 3.742188 1.7518087 3.742188 3.9726561 0 1.158936-.562234 2.111483-1.501953 2.927735a1.9381216 1.9381216 0 0 0 -.519532 2.203124c.359668.871058.560547 1.349606.560547 1.736329 0 2.643674-2.039068 4.736328-4.472656 4.736328.028694 0-.219047-.100137-.994141-.308594a1.9381216 1.9381216 0 0 0 -2.265625 1.066406c-.636812 1.39344-1.860344 2.292969-3.310547 2.292969-.609618 0-1.197756-.224417-1.865234-.658203a1.9381216 1.9381216 0 0 0 -2.113281 0c-.6686041.434518-1.2536617.658203-1.8632815.658203-2.0296466 0-3.7421875-1.751809-3.7421875-3.972656 0-1.008417.4519211-1.836321 1.2558594-2.667969a1.9381216 1.9381216 0 0 0 .0683594-2.621094c-.8338772-.957312-1.3242188-1.95343-1.3242188-3.103515 0-2.643672 2.0390693-4.7363285 4.4726562-4.7363285-.0272603 0 .2191291.099988.9941408.3085937a1.9381216 1.9381216 0 0 0 2.265625-1.0664062c.636812-1.3934411 1.860339-2.2929688 3.310547-2.2929688z"/></g></svg>