<svg viewBox="0 0 32 32" xmlns="http://www.w3.org/2000/svg"><g fill="#efefef"><path d="m11 5v4h-6-2-2v14h2 2 6v4h1v-4h8v4h1v-4h6 2 2v-14h-2-2-6v-4h-1v4h-8v-4zm-8 6h26v10h-8-1-17z"/><path d="m3 11v10h26v-10z" opacity=".35"/><path d="m7 3c-2.215978 0-4 1.7840208-4 4v2h2v-2c0-1.1079896.892011-2 2-2h18c1.10799 0 2 .8920104 2 2v2h2v-2c0-2.2159792-1.78402-4-4-4zm-4 20v2c0 2.21598 1.784022 4 4 4h18c2.21598 0 4-1.78402 4-4v-2h-2v2c0 1.10799-.89201 2-2 2h-18c-1.107989 0-2-.89201-2-2v-2z"/><path d="m10.984375 12.001953c-.255858 0-.511719.09766-.707031.292969l-2.9843752 2.998047c-.1874999.1875-.2929688.441406-.2929688.707031s.1054689.519531.2929688.707031l2.9843752 2.998047c.195312.195309.451173.292969.707031.292969s.511719-.09766.707031-.292969c.1875-.187499.292969-.441407.292969-.707031s-.106521-.518488-.292969-.707031l-1.277344-1.291016h11.171876l-1.277344 1.291016c-.186448.188543-.292969.441407-.292969.707031s.105469.519532.292969.707031c.195312.195309.451173.292969.707031.292969s.511719-.09766.707031-.292969l2.984375-2.998047c.1875-.1875.292969-.441406.292969-.707031s-.105469-.519531-.292969-.707031l-2.984375-2.998047c-.195312-.195309-.451173-.292969-.707031-.292969s-.511719.09766-.707031.292969c-.1875.187499-.292969.441407-.292969.707031s.106521.518487.292969.707031l1.277344 1.291016h-11.171876l1.277344-1.291016c.186448-.188544.292969-.441407.292969-.707031s-.105469-.519532-.292969-.707031c-.195312-.195312-.451173-.292969-.707031-.292969z"/></g></svg>