<svg height="32" viewBox="0 0 32 32" width="32" xmlns="http://www.w3.org/2000/svg"><g fill="#efefef"><path d="m9 3c-2.2159956 0-4 1.7840044-4 4v18c0 2.215996 1.7840044 4 4 4h14c2.215996 0 4-1.784004 4-4v-18c0-2.2159956-1.784004-4-4-4zm0 2h14c1.107998 0 2 .8920022 2 2v18c0 1.107998-.892002 2-2 2h-14c-1.1079978 0-2-.892002-2-2v-18c0-1.1079978.8920022-2 2-2zm1.5 3.5c-.8284271 0-1.5.6715729-1.5 1.5 0 .828427.6715729 1.5 1.5 1.5.828427 0 1.5-.671573 1.5-1.5 0-.8284271-.671573-1.5-1.5-1.5zm4 .5c-.277 0-.5.2230003-.5.5v1c0 .277.223.5.5.5h8c.277 0 .5-.223.5-.5v-1c0-.2769997-.223-.5-.5-.5zm0 6c-.277 0-.5.223-.5.5v1c0 .277.223.5.5.5h8c.277 0 .5-.223.5-.5v-1c0-.277-.223-.5-.5-.5zm0 6c-.277 0-.5.223-.5.5v1c0 .277.223.5.5.5h8c.277 0 .5-.223.5-.5v-1c0-.277-.223-.5-.5-.5z"/><path d="m12 16c0 .828427-.671573 1.5-1.5 1.5-.8284271 0-1.5-.671573-1.5-1.5s.6715729-1.5 1.5-1.5c.828427 0 1.5.671573 1.5 1.5z" opacity=".35"/><path d="m12 22c0 .828427-.671573 1.5-1.5 1.5-.8284271 0-1.5-.671573-1.5-1.5s.6715729-1.5 1.5-1.5c.828427 0 1.5.671573 1.5 1.5z" opacity=".5"/></g></svg>