<svg height="32" viewBox="0 0 32 32" width="32" xmlns="http://www.w3.org/2000/svg"><g fill="#efefef" transform="matrix(1.33333 0 0 1.33333 -.66659 .33334)"><path d="m1.9999475 2v1.5000038h21.0000525v-1.5000038zm0 4.5000113v1.5000037h3.7500094v-1.5000037zm5.2500131 0v10.5000267h10.5000194v-10.5000267zm12.0000304 0v1.5000037h3.750009v-1.5000037zm-10.5000266 1.5000037h7.5000116v7.500019h-7.5000116zm-6.7500169 2.999985v1.500026h3.7500094v-1.500026zm17.2500435 0v1.500026h3.750009v-1.500026zm-17.2500435 4.500034v1.500004h3.7500094v-1.500004zm17.2500435 0v1.500004h3.750009v-1.500004zm-17.2500435 4.500011v1.500004h21.0000525v-1.500004z"/><path d="m8.7500019 8-.0000375 7.500034 7.4999736.000015.000038-7.500034z" opacity=".35"/></g></svg>