<svg height="32" viewBox="0 0 32 32" width="32" xmlns="http://www.w3.org/2000/svg"><path d="m14.5 7c-1.367703 0-2.5 1.1322972-2.5 2.5v.25 2.25h-2.5c-1.3677028 0-2.5 1.132297-2.5 2.5v.25 1.75.25c0 .739002.3358033 1.403214.8554688 1.863281l-.0195313-.003906 2.03125 1.773437.0097656-.003906c.4394159.380715 1.0040369.621094 1.6230469.621094h.5v.5.25c0 .739002.335803 1.403214.855469 1.863281l-.019531-.003906 2.03125 1.773437.009765-.003906c.439385.380715 1.004037.621094 1.623047.621094h2c1.367703 0 2.5-1.132297 2.5-2.5v-.25-2.25h2.5c1.367703 0 2.5-1.132297 2.5-2.5v-.25-1.75-.25c0-.739537-.337107-1.403186-.857422-1.863281l-.001953-.015625-2.03125-1.773438.003906.013672c-.438086-.375689-.99888-.611328-1.613281-.611328h-.5v-.5-.25c0-.739537-.337107-1.4031864-.857422-1.8632812l-.001953-.015625-2.03125-1.7734376.003906.0136719c-.438086-.3756891-.99888-.6113281-1.613281-.6113281zm0 1h2c.831 0 1.5.669 1.5 1.5v.25 3.25h3.5c.831 0 1.5.669 1.5 1.5v.25 1.75c0 .831-.669 1.5-1.5 1.5h-3.5v3.5c0 .831-.669 1.5-1.5 1.5h-2c-.831 0-1.5-.669-1.5-1.5v-3.25-.25h-3.5c-.831 0-1.5-.669-1.5-1.5v-1.75-.25c0-.831.669-1.5 1.5-1.5h3.5v-3.25-.25c0-.831.669-1.5 1.5-1.5z" fill="#aaa8ac"/><path d="m14.5 8c-.831 0-1.5.669-1.5 1.5v3.5h-3.5c-.831 0-1.5.669-1.5 1.5v2c0 .831.669 1.5 1.5 1.5h3.5v3.5c0 .831.669 1.5 1.5 1.5h2c.831 0 1.5-.669 1.5-1.5v-3.5h3.5c.831 0 1.5-.669 1.5-1.5v-2c0-.831-.669-1.5-1.5-1.5h-3.5v-3.5c0-.831-.669-1.5-1.5-1.5z" fill="#fff"/></svg>