<svg height="32" width="32" xmlns="http://www.w3.org/2000/svg" xmlns:xlink="http://www.w3.org/1999/xlink"><linearGradient id="a"><stop offset="0"/><stop offset="1" stop-opacity="0"/></linearGradient><radialGradient id="b" cx="4.992979" cy="43.5" gradientTransform="matrix(2.003784 0 0 1.4 27.98813 -17.4)" gradientUnits="userSpaceOnUse" r="2.5" xlink:href="#a"/><radialGradient id="c" cx="4.992979" cy="43.5" gradientTransform="matrix(2.003784 0 0 1.4 -20.01187 -104.4)" gradientUnits="userSpaceOnUse" r="2.5" xlink:href="#a"/><linearGradient id="d" gradientUnits="userSpaceOnUse" x1="25.058096" x2="25.058096" y1="47.027729" y2="39.999443"><stop offset="0" stop-opacity="0"/><stop offset=".5"/><stop offset="1" stop-opacity="0"/></linearGradient><linearGradient id="e" gradientTransform="matrix(.7480349 0 0 .75387595 -4.768985 .907933)" gradientUnits="userSpaceOnUse" x1="26.95891" x2="26.95891" y1="12.060429" y2="37.263515"><stop offset="0" stop-color="#fff"/><stop offset="0" stop-color="#fff" stop-opacity=".235294"/><stop offset=".99999994" stop-color="#fff" stop-opacity=".156863"/><stop offset="1" stop-color="#fff" stop-opacity=".392157"/></linearGradient><linearGradient id="f" gradientTransform="matrix(.28394125 0 0 .29357995 -14.937357 9.989485)" gradientUnits="userSpaceOnUse" x1="107.05136" x2="107.05136" y1="-23.105574" y2="-5.777408"><stop offset="0" stop-color="#fff"/><stop offset=".40000001" stop-color="#fff" stop-opacity=".235294"/><stop offset=".80000001" stop-color="#fff" stop-opacity=".156863"/><stop offset="1" stop-color="#fff" stop-opacity=".392157"/></linearGradient><radialGradient id="g" cx="6.895029" cy="12.591532" gradientTransform="matrix(0 6.3641136 -7.8130983 0 113.00801 -56.880746)" gradientUnits="userSpaceOnUse" r="12.671875"><stop offset="0" stop-color="#d1ff82"/><stop offset=".26238" stop-color="#9bdb4d"/><stop offset=".66093999" stop-color="#68b723"/><stop offset="1" stop-color="#3a9104"/></radialGradient><g opacity=".3" transform="matrix(.26760532 0 0 .31190147 13.547987 17.340631)"><path d="m38 40h5v7h-5z" fill="url(#b)"/><path d="m-10-47h5v7h-5z" fill="url(#c)" transform="scale(-1)"/><path d="m10 40h28v7.000001h-28z" fill="url(#d)"/></g><g opacity=".3" transform="matrix(.28733436 0 0 .31190147 .563328 17.340631)"><path d="m38 40h5v7h-5z" fill="url(#b)"/><path d="m-10-47h5v7h-5z" fill="url(#c)" transform="scale(-1)"/><path d="m10 40h28v7.000001h-28z" fill="url(#d)"/></g><path d="m13.613961 1.5769264c-1.890593 0-3.424986 1.5525672-3.424986 3.443223 0 1.181659.611117 2.4877217 1.522215 3.1034361l.000391.3397869h-7.6110788c-.8433077 0-1.6005021.93378-1.6005021 1.7771166v7.397264c.6276864-.787682 1.6570664-1.308197 2.7417724-1.308197 1.8905924 0 3.4558215 1.534445 3.4558215 3.4251 0 1.890656-1.5652291 3.425101-3.4558215 3.425101-1.084706 0-2.114086-.520516-2.7417724-1.308197v7.397266c0 .843336.7568028 1.231174 1.6001106 1.231174h7.3970193c-.787658-.627708-1.308155-1.288132-1.308155-2.372874 0-1.890656 1.534393-3.425102 3.424986-3.425102 1.890592 0 3.424986 1.534446 3.424986 3.425102 0 1.084742-.520499 1.745166-1.308156 2.372874h7.397019c.843308 0 1.40808-.388105 1.40808-1.231442v-7.032427l.708751.000267c.615695.911129 1.64875 1.359033 2.830371 1.359033 1.890592 0 3.424987-1.534445 3.424987-3.4251 0-1.890656-1.534395-3.425101-3.424987-3.425101-1.181621 0-2.214676.44817-2.830371 1.3593l-.708751-.000267v-7.864043c0-.8433361-.564853-1.8050696-1.407689-1.7768476h-7.611079l-.000391-.3397869c.911098-.6157144 1.522216-1.9217771 1.522216-3.1034361 0-1.8906558-1.534394-3.443223-3.424986-3.443223z" fill="url(#g)"/><g fill="none"><path d="m12.068567 9.5h-7.503109c-.3859622 0-1.0654578.4262873-1.0654578.815263l-.0000001 5.20501c3.4246222-1.08325 6.2959744 1.465619 6.3124532 4.303866.016479 2.838247-2.6270925 4.924806-6.3124532 4.092495l.0000001 5.239947c0 .388976 1.1623959.343419 1.5483591.343419h4.1575411c-.626506-2.871644.9759216-5.837346 4.3150116-5.864624 3.339089-.02728 4.954526 2.289671 4.272305 5.864624h4.741073c.385964 0 .96571.04556.96571-.343419v-7.009928c.10512-1.057883 1.211146-.928453 1.211146-.928453.269691-.000904.981042-.207021 1.13614.01534.461212.687827 1.227902 1.347832 2.104721 1.347832 1.411662 0 2.596187-.993111 2.596187-2.415796 0-1.422684-1.184525-2.415797-2.596187-2.415797-.876819 0-1.6438.612274-2.105013 1.300098-.155097.222356-1.155314.06399-1.425005.06308 0 0-.785511.01008-.921989-.735688v-8.06201c0-.3889717-.579746-.815259-.96571-.815259h-7.105267" opacity=".4" stroke="url(#e)" stroke-linecap="round" stroke-linejoin="round"/><ellipse cx="13.625002" cy="5.113852" opacity=".6" rx="2.445251" ry="2.543601" stroke="url(#f)"/><path d="m13.613961 1.5769261c-1.890593 0-3.424986 1.5525672-3.424986 3.443223 0 1.181659.611117 2.4877217 1.522215 3.1034361l.000391.3397869h-7.6110788c-.8433077 0-1.6005021.93378-1.6005021 1.7771169v7.397264c.6276864-.787682 1.6570664-1.308197 2.7417724-1.308197 1.8905924 0 3.4558215 1.534445 3.4558215 3.4251 0 1.890656-1.5652291 3.425101-3.4558215 3.425101-1.084706 0-2.114086-.520516-2.7417724-1.308197v7.397266c0 .843336.7568028 1.231174 1.6001106 1.231174h7.3970193c-.787658-.627708-1.308155-1.288132-1.308155-2.372874 0-1.890656 1.534393-3.425102 3.424986-3.425102 1.890592 0 3.424986 1.534446 3.424986 3.425102 0 1.084742-.520499 1.745166-1.308156 2.372874h7.397019c.843308 0 1.40808-.388105 1.40808-1.231442v-7.032427l.708751.000267c.615695.911129 1.64875 1.359033 2.830371 1.359033 1.890592 0 3.424987-1.534445 3.424987-3.4251 0-1.890656-1.534395-3.425101-3.424987-3.425101-1.181621 0-2.214676.44817-2.830371 1.3593l-.708751-.000267v-7.864043c0-.8433364-.564853-1.8050699-1.407689-1.7768479h-7.611079l-.000391-.3397869c.911098-.6157144 1.522216-1.9217771 1.522216-3.1034361 0-1.8906558-1.534394-3.443223-3.424986-3.443223z" opacity=".4" stroke="#0a3600" stroke-linecap="round"/></g></svg>