<svg height="32" width="32" xmlns="http://www.w3.org/2000/svg" xmlns:xlink="http://www.w3.org/1999/xlink"><radialGradient id="a" cx="15.6875" cy="10.565164" gradientTransform="matrix(3.390737 0 0 4.314717 -32.15161 -24.08889)" gradientUnits="userSpaceOnUse" r="14.5625" xlink:href="#e"/><radialGradient id="b" cx="16" cy="27.875" gradientTransform="matrix(1 0 0 .28866 0 19.82861)" gradientUnits="userSpaceOnUse" r="12.125"><stop offset="0"/><stop offset="1" stop-opacity="0"/></radialGradient><linearGradient id="c" gradientUnits="userSpaceOnUse" x1="17.499428" x2="15.6875" xlink:href="#e" y1="14.067684" y2="36.616074"/><linearGradient id="d" gradientUnits="userSpaceOnUse" x1="16.573217" x2="17.905336" y1="12.237123" y2="41.063381"><stop offset="0" stop-color="#c00"/><stop offset="1" stop-color="#ad0000"/></linearGradient><linearGradient id="e"><stop offset="0" stop-color="#fff"/><stop offset="1" stop-color="#fff" stop-opacity="0"/></linearGradient><clipPath id="f"><path d="m304.11108 124.47462h32v39h-32z"/></clipPath><g clip-path="url(#f)" enable-background="new" transform="translate(-304.11109 -126.47462)"><g enable-background="new" transform="matrix(1.56033670965 0 0 1.56033670965 295.59463690124 102.88123821366)"><ellipse cx="16" cy="27.875" fill="url(#b)" rx="12.125" ry="3.5" transform="matrix(.717263 0 0 .866261 4.194372 8.532313)"/><circle cx="15.6875" cy="15.8125" fill="url(#d)" r="14.5625" stroke="#a40000" transform="matrix(.638298 0 0 .638298 5.697169 15.28572)"/><circle cx="15.6875" cy="15.8125" fill="none" opacity=".298969" r="14.5625" stroke="url(#c)" stroke-width="1.073733" transform="matrix(.594466 0 0 .594466 6.384777 15.97881)"/><path d="m10.165253 24.221891h10.898662v1.914894h-10.898662z" fill="#fff"/><path d="m15.710469 16.40612c-4.881818 0-8.84387 3.962051-8.8438701 8.84387 0 .603744.055362 1.195123.1708044 1.764978.00124.0061-.00125.01286 0 .01898 7.7232977.254088 11.9847507 2.561115 17.4030657-.341608.07693-.468915.11387-.951771.11387-1.442348 0-4.881818-3.962051-8.84387-8.84387-8.84387z" fill="url(#a)" opacity=".175258"/><ellipse cx="16" cy="27.875" fill="url(#b)" rx="12.125" ry="3.5" transform="matrix(.717263 0 0 .866261 25.020079 8.532313)"/></g></g></svg>