<svg height="128" width="128" xmlns="http://www.w3.org/2000/svg" xmlns:xlink="http://www.w3.org/1999/xlink"><linearGradient id="a" gradientUnits="userSpaceOnUse" x1="106.00134" x2="18.00134" y1="122" y2="6"><stop offset="0" stop-color="#e6e6e6"/><stop offset="1" stop-color="#fff"/></linearGradient><linearGradient id="b" gradientTransform="matrix(7.99974 0 0 7.9977797 -875.96742 -7808.7674)" gradientUnits="userSpaceOnUse" x1="122.75008" x2="111.74973" y1="991.62115" y2="977.11713"><stop offset="0" stop-color="#c99c00"/><stop offset="1" stop-color="#e9b913"/></linearGradient><g transform="translate(1.999311)"><path d="m19.253295 0c-.25037 0-.50072.0111562-.75.0351562-3.66708.6998-4.56576 2.2662469-4.5 5.9980468v115.968747c.0004 4.1875 1.81149 5.99765 6 5.99805h83.998055c4.18851-.0004 5.99765-1.81055 5.99805-5.99805v-71.818356c.048-2.1119-.78004-4.230247-2.25-5.748047l-42.160155-42.1503908c-1.51819-1.4691999-3.63759-2.2988999-5.75-2.25h-39.83595c-.24919-.024-.49962-.0351562-.75-.0351562zm62.00978.0136719c-.20997 0-.41948.0168281-.62695.0488281-2.66247.8528-3.55843 4.904547-1.50586 6.810547l24.095695 24.220703c2.22593 2.1217 6.65811.306209 6.77539-2.775391v-24.220703c-.00024-2.1136998-1.91298-4.034856-4.01562-4.035156h-24.093755c-.20758-.032-.41894-.0488281-.6289-.0488281z" fill="url(#b)"/><path d="m20.001355 6v116h84.000015v-72l-43.999995-44z" fill="url(#a)"/><circle cx="48.99691" cy="73.994064" fill="#f09e6f" opacity=".6" r="16.99995"/><circle cx="49.005981" cy="73.998161" fill="#f9cfb5" r="19.00008" stroke="#d36118" stroke-width="2.000006"/><path d="m60.000595 99.998598c-.5523-.0001-.9999-.4477-1-1v-32c .0001-.5523.4477-.9999 1-1h32c .5523.0001.9999.4477 1 1v32c-.0001.5523-.4477.9999-1 1zm1-2h30v-30h-30z" fill="#1c99e0"/><path d="m61.000595 97.998598h30v-30h-30z" fill="#aadcf7"/><path d="m53.600895 74.077698c-.2217.079-.4124.2313-.5295.424l-9.8301 16.0413-10.0585 15.715302c-.4092.5886-.1611 1.7898 1.0709 1.7394h19.7251 19.3839c1.1879 0 1.4314-1.2862.7975-2.39l-9.4439-15.064702-9.8301-16.0413c-.2412-.4057-.825-.5983-1.2853-.424zm.3779 2.8974 8.9984 14.4866 8.9983 14.557302h-17.9967-17.9966l8.9982-14.557302z" fill="#e9b913"/><path d="m71.992515 106.00275h-18.00004-18.00004l9.00013-14.500017 8.99991-14.499993 8.99991 14.499993z" fill="#fde9a9"/><g fill="#ccf4c6" stroke="#43c330" stroke-linecap="square"><path d="m71.501355 104.5h5v5h-5z"/><path d="m31.501355 104.5h5v5h-5z"/><path d="m51.501355 72.499999h5v5h-5z"/></g></g></svg>