<svg height="128" viewBox="0 0 698 128" width="698" xmlns="http://www.w3.org/2000/svg" xmlns:xlink="http://www.w3.org/1999/xlink"><linearGradient id="a"><stop offset="0" stop-color="#b7b7b7"/><stop offset="1" stop-color="#e1e1e1"/></linearGradient><radialGradient id="b" cx="518.854" cy="730.48401" gradientTransform="matrix(2.0112 0 0 .56548 -201.1689 -408.35286)" gradientUnits="userSpaceOnUse" r="22.889999" xlink:href="#d"/><linearGradient id="c"><stop offset="0" stop-color="#dc85e9"/><stop offset="1" stop-color="#f2cbf8"/></linearGradient><linearGradient id="d" xlink:href="#c"/><linearGradient id="e" gradientUnits="userSpaceOnUse" x1="948.63776" x2="741.39221" xlink:href="#f" y1="125.84722" y2="-126.30828"/><linearGradient id="f"><stop offset="0" stop-color="#8e03a3"/><stop offset="1" stop-color="#c254d2"/></linearGradient><linearGradient id="g"><stop offset="0" stop-color="#e196fb"/><stop offset=".13" stop-color="#f4c7fa"/><stop offset=".314" stop-color="#e091f3"/><stop offset=".441" stop-color="#d764e9"/><stop offset=".684" stop-color="#e7adf0"/><stop offset=".756" stop-color="#e6a9f8"/><stop offset=".88" stop-color="#e595f2"/><stop offset="1" stop-color="#f2cbf8"/></linearGradient><linearGradient id="h" gradientUnits="userSpaceOnUse" x1="891.00452" x2="793.00452" xlink:href="#g" y1="22.997999" y2="22.997999"/><linearGradient id="i" gradientUnits="userSpaceOnUse" x1="945.60846" x2="739.89972" xlink:href="#f" y1="126.64519" y2="-127.30928"/><radialGradient id="j" cx="518.854" cy="730.48401" gradientTransform="matrix(2.0112 0 0 .56548 82.8286 -408.35286)" gradientUnits="userSpaceOnUse" r="22.889999" xlink:href="#a"/><linearGradient id="k" gradientTransform="translate(283.9975)" gradientUnits="userSpaceOnUse" x1="945.60846" x2="739.89972" xlink:href="#aj" y1="126.64519" y2="-127.30928"/><linearGradient id="l" gradientUnits="userSpaceOnUse" x1="1175.00202" x2="1077.00202" y1="22.997999" y2="22.997999"><stop offset="0" stop-color="#c9c9c9"/><stop offset=".13" stop-color="#e1e1e1"/><stop offset=".314" stop-color="#c2c2c2"/><stop offset=".441" stop-color="#a6a6a6"/><stop offset=".684" stop-color="#cfcfcf"/><stop offset=".756" stop-color="#d1d1d1"/><stop offset=".88" stop-color="#c3c3c3"/><stop offset="1" stop-color="#e1e1e1"/></linearGradient><linearGradient id="m" gradientTransform="translate(283.9975)" gradientUnits="userSpaceOnUse" x1="948.63776" x2="741.39221" xlink:href="#aj" y1="125.84722" y2="-126.30828"/><linearGradient id="n"><stop offset="0" stop-color="#9207a7"/><stop offset=".27254906" stop-color="#cd6cc4"/><stop offset=".50966245" stop-color="#ad3cbe"/><stop offset=".83376038" stop-color="#bc2ad2"/><stop offset="1" stop-color="#950ba8"/></linearGradient><linearGradient id="o" gradientUnits="userSpaceOnUse" x1="608.99954" x2="658.99954" xlink:href="#n" y1="79.980797" y2="79.980797"/><linearGradient id="p" gradientTransform="matrix(1 0 0 1.00001 -586.00065 1168.6453)" gradientUnits="userSpaceOnUse" x1="1273.0009" x2="1169.0009" xlink:href="#aj" y1="-1040.6349" y2="-1168.6337"/><linearGradient id="q" gradientUnits="userSpaceOnUse" x1="555.00012" x2="450.00009" xlink:href="#f" y1="127.8783" y2=".0766"/><radialGradient id="r" cx="518.85358" cy="730.48431" gradientTransform="matrix(1.0052685 0 .00000015 .28297029 -20.5902 -140.20575)" gradientUnits="userSpaceOnUse" r="22.889727" xlink:href="#d"/><linearGradient id="s" gradientUnits="userSpaceOnUse" x1="475.99939" x2="525.99939" xlink:href="#n" y1="79.980797" y2="79.980797"/><linearGradient id="t" gradientTransform="matrix(1 0 0 1.00001 -719.0008 1168.6453)" gradientUnits="userSpaceOnUse" x1="1273.0009" x2="1169.0009" xlink:href="#f" y1="-1040.6349" y2="-1168.6337"/><linearGradient id="u" gradientTransform="matrix(-2 0 0 2 1297.9992 -2063.5036)" gradientUnits="userSpaceOnUse" x1="386.63177" x2="410.49988" y1="1068.9539" y2="1068.9539"><stop offset="0" stop-color="#e196fb"/><stop offset=".13010512" stop-color="#f4c7fa"/><stop offset=".31360075" stop-color="#e091f3"/><stop offset=".44078669" stop-color="#d764e9"/><stop offset=".68364757" stop-color="#e7adf0"/><stop offset=".75620717" stop-color="#e6a9f8"/><stop offset=".88021636" stop-color="#e595f2"/><stop offset="1" stop-color="#f2cbf8"/></linearGradient><radialGradient id="v" cx="518.85358" cy="730.48431" gradientTransform="matrix(1.0052685 0 .00000015 .28297029 112.40995 -140.20575)" gradientUnits="userSpaceOnUse" r="22.889727" xlink:href="#a"/><linearGradient id="w" gradientTransform="matrix(-2 0 0 2 1430.9994 -2063.5036)" gradientUnits="userSpaceOnUse" x1="386.63177" x2="410.49988" y1="1068.9539" y2="1068.9539"><stop offset="0" stop-color="#c9c9c9"/><stop offset=".13010512" stop-color="#e1e1e1"/><stop offset=".31360075" stop-color="#c2c2c2"/><stop offset=".44078669" stop-color="#a6a6a6"/><stop offset=".68364757" stop-color="#cfcfcf"/><stop offset=".75620717" stop-color="#d1d1d1"/><stop offset=".88021636" stop-color="#c3c3c3"/><stop offset="1" stop-color="#e1e1e1"/></linearGradient><linearGradient id="x" gradientTransform="translate(133.00015)" gradientUnits="userSpaceOnUse" x1="555.00012" x2="450.00009" xlink:href="#aj" y1="127.8783" y2=".0766"/><linearGradient id="y" gradientUnits="userSpaceOnUse" x1="165.00009" x2="139.00009" xlink:href="#f" y1="128" y2="96"/><linearGradient id="z" gradientUnits="userSpaceOnUse" x1="248.00009" x2="208.00009" xlink:href="#f" y1="128" y2="80"/><linearGradient id="A" gradientUnits="userSpaceOnUse" x1="15" x2="1" xlink:href="#f" y1="128" y2="112"/><linearGradient id="B" gradientTransform="translate(18)" gradientUnits="userSpaceOnUse" x1="15" x2="1" xlink:href="#aj" y1="128" y2="112"/><linearGradient id="C" gradientTransform="translate(34.00009)" gradientUnits="userSpaceOnUse" x1="165" x2="139" xlink:href="#aj" y1="128" y2="96"/><linearGradient id="D" gradientTransform="translate(50.00009)" gradientUnits="userSpaceOnUse" x1="248" x2="208" xlink:href="#aj" y1="128" y2="80"/><linearGradient id="E" gradientUnits="userSpaceOnUse" x1="843.88849" x2="843.88849" y1="32.749001" y2="18.500099"><stop offset="0" stop-color="#fff"/><stop offset="1" stop-color="#a00" stop-opacity="0"/></linearGradient><linearGradient id="F" gradientUnits="userSpaceOnUse" x1="55" x2="39" xlink:href="#f" y1="127" y2="105"/><linearGradient id="G" gradientTransform="translate(24 -1)" gradientUnits="userSpaceOnUse" x1="55" x2="39" xlink:href="#aj" y1="128" y2="106"/><linearGradient id="H" gradientUnits="userSpaceOnUse" x1="105" x2="87" xlink:href="#f" y1="128" y2="104"/><linearGradient id="I" gradientTransform="translate(26)" gradientUnits="userSpaceOnUse" x1="105" x2="87" xlink:href="#aj" y1="128" y2="104"/><linearGradient id="J" gradientUnits="userSpaceOnUse" x1="360" x2="310" xlink:href="#f" y1="130" y2="65"/><linearGradient id="K" gradientTransform="translate(66 2)" gradientUnits="userSpaceOnUse" x1="360" x2="310" xlink:href="#aj" y1="128" y2="63"/><linearGradient id="L" gradientUnits="userSpaceOnUse" x1="1422" x2="1324" xlink:href="#g" y1="-1554.64" y2="-1554.64"/><radialGradient id="M" cx="518.854" cy="730.48401" gradientTransform="matrix(2.0112 0 0 .56548 329.8266 -1985.9909)" gradientUnits="userSpaceOnUse" r="22.889999" xlink:href="#c"/><linearGradient id="N" gradientUnits="userSpaceOnUse" x1="1471.0153" x2="1273.4844" xlink:href="#f" y1="-1450.6317" y2="-1705.6716"/><linearGradient id="O" gradientUnits="userSpaceOnUse" x1="3061.969342" x2="2670.030582" xlink:href="#g" y1="-294.003005" y2="-294.003005"/><linearGradient id="P" gradientUnits="userSpaceOnUse" x1="2670.122168" x2="3058.061553" y1="-349.478337" y2="-349.478337"><stop offset="0" stop-color="#9207a7"/><stop offset=".273" stop-color="#c658bc"/><stop offset=".51" stop-color="#a42eb6"/><stop offset=".834" stop-color="#b415cd"/><stop offset="1" stop-color="#950ba8"/></linearGradient><radialGradient id="Q" cx="518.854" cy="730.48401" gradientTransform="matrix(8.0435432 0 0 2.2615666 -1306.0418 -2019.1369)" gradientUnits="userSpaceOnUse" r="22.889999" xlink:href="#c"/><linearGradient id="R" gradientUnits="userSpaceOnUse" x1="3270" x2="2470" xlink:href="#f" y1="128" y2="-902"/><linearGradient id="S" gradientTransform="matrix(1.99993 0 0 1.9994499 -47.9916 -1854.1967)" gradientUnits="userSpaceOnUse" x1="124.00028" x2="110.99982" xlink:href="#f" y1="992.37128" y2="976.36688"/><linearGradient id="T" gradientUnits="userSpaceOnUse" x1="198" x2="174" xlink:href="#aj" y1="128" y2="96"/><linearGradient id="U" gradientTransform="matrix(3.9998072 0 0 3.9988898 -132.97803 -3840.3837)" gradientUnits="userSpaceOnUse" x1="122.75008" x2="111.74973" xlink:href="#f" y1="991.62115" y2="977.11713"/><linearGradient id="V" gradientTransform="matrix(1.004 0 0 1.0093981 782.49495 1295.0889)" gradientUnits="userSpaceOnUse" x1="151.8994" x2="-27.383467" xlink:href="#f" y1="-1166.1295" y2="-1398.9415"/><linearGradient id="W" gradientTransform="matrix(.999981 0 0 .999625 -109.99781 -864.00286)" gradientUnits="userSpaceOnUse" x1="124.00017" x2="111.99994" xlink:href="#f" y1="992.375" y2="976.36902"/><linearGradient id="X" gradientTransform="matrix(1.99993 0 0 1.9994499 -81.991606 -1854.1967)" gradientUnits="userSpaceOnUse" x1="124.00028" x2="110.99982" xlink:href="#f" y1="992.37128" y2="976.36688"/><linearGradient id="Y" gradientTransform="matrix(2.9999 0 0 2.9991699 -124.98849 -2848.2903)" gradientUnits="userSpaceOnUse" x1="123.66695" x2="111.66655" xlink:href="#f" y1="991.70453" y2="977.03375"/><linearGradient id="Z" gradientTransform="matrix(2.9999 0 0 2.9991699 -74.988655 -2848.2903)" gradientUnits="userSpaceOnUse" x1="123.66695" x2="111.66655" xlink:href="#aj" y1="991.70453" y2="977.03375"/><linearGradient id="aa" gradientTransform="matrix(2.9999 0 0 2.9991699 -74.98849 -2848.2903)" gradientUnits="userSpaceOnUse" x1="123.66695" x2="111.66655" xlink:href="#f" y1="991.70453" y2="977.03375"/><linearGradient id="ab" gradientTransform="matrix(.999981 0 0 .999625 -91.99781 -864.00286)" gradientUnits="userSpaceOnUse" x1="124.00017" x2="111.99994" xlink:href="#f" y1="992.375" y2="976.36902"/><linearGradient id="ac" gradientTransform="matrix(.999981 0 0 .999625 -91.997807 -864.00286)" gradientUnits="userSpaceOnUse" x1="124.00017" x2="111.99994" xlink:href="#aj" y1="992.375" y2="976.36902"/><linearGradient id="ad" gradientTransform="matrix(7.99974 0 0 7.9977797 -435.96876 -7808.7674)" gradientUnits="userSpaceOnUse" x1="122.75008" x2="111.74973" xlink:href="#f" y1="991.62115" y2="977.11713"/><linearGradient id="ae" gradientTransform="matrix(7.99974 0 0 7.9977797 -303.96876 -7808.7674)" gradientUnits="userSpaceOnUse" x1="122.75008" x2="111.74973" xlink:href="#f" y1="991.62115" y2="977.11713"/><linearGradient id="af" gradientTransform="matrix(7.99974 0 0 7.9977797 -303.96876 -7808.7674)" gradientUnits="userSpaceOnUse" x1="122.75008" x2="111.74973" xlink:href="#aj" y1="991.62115" y2="977.11713"/><linearGradient id="ag" gradientTransform="matrix(3.9998072 0 0 3.9988898 -66.978028 -3840.3837)" gradientUnits="userSpaceOnUse" x1="122.75008" x2="111.74973" xlink:href="#f" y1="991.62115" y2="977.11713"/><linearGradient id="ah" gradientTransform="matrix(3.9998072 0 0 3.9988898 -66.97803 -3840.3837)" gradientUnits="userSpaceOnUse" x1="122.75008" x2="111.74973" xlink:href="#aj" y1="991.62115" y2="977.11713"/><linearGradient id="ai" gradientTransform="matrix(1.1249688 0 0 1.1245683 -86.996284 -989.99349)" gradientUnits="userSpaceOnUse" x1="124.00017" x2="111.99994" xlink:href="#f" y1="992.375" y2="976.36902"/><linearGradient id="aj" gradientTransform="translate(0 20)" gradientUnits="userSpaceOnUse" x1="129" x2="103" y1="56" y2="24"><stop offset="0" stop-color="#535353"/><stop offset="1" stop-color="#7e7e7e"/></linearGradient><linearGradient id="ak" gradientTransform="matrix(1.1249688 0 0 1.1245683 -62.99628 -989.9935)" gradientUnits="userSpaceOnUse" x1="124.00017" x2="111.99994" xlink:href="#aj" y1="992.375" y2="976.36902"/><linearGradient id="al" gradientTransform="matrix(1.1249688 0 0 1.1245683 -62.99628 -989.9935)" gradientUnits="userSpaceOnUse" x1="124.00017" x2="111.99994" xlink:href="#f" y1="992.375" y2="976.36902"/><linearGradient id="am" gradientTransform="matrix(1.1249688 0 0 1.1245683 -36.996283 -990.99351)" gradientUnits="userSpaceOnUse" x1="124.00017" x2="111.99994" xlink:href="#f" y1="992.375" y2="976.36902"/><linearGradient id="an" gradientTransform="matrix(1.1249688 0 0 1.1245683 -10.996283 -989.99351)" gradientUnits="userSpaceOnUse" x1="124.00017" x2="111.99994" xlink:href="#f" y1="992.375" y2="976.36902"/><linearGradient id="ao" gradientTransform="matrix(1.1249688 0 0 1.1245683 -10.996283 -989.99351)" gradientUnits="userSpaceOnUse" x1="124.00017" x2="111.99994" xlink:href="#aj" y1="992.375" y2="976.36902"/><linearGradient id="ap" gradientTransform="translate(242.0005 2460.013)" gradientUnits="userSpaceOnUse" x1="692.99951" x2="512.99951" xlink:href="#aq" y1="-2347.0129" y2="-2577.0129"/><linearGradient id="aq" gradientTransform="matrix(15.958 0 0 16.0248 -4438.13 -5573.42)" gradientUnits="userSpaceOnUse" x1="294.34299" x2="294.418" y1="256.58099" y2="243.13901"><stop offset="0" stop-color="#e6e6e6"/><stop offset="1" stop-color="#fff"/></linearGradient><linearGradient id="ar" gradientTransform="matrix(1.004 0 0 1.0093981 1062.495 1295.0889)" gradientUnits="userSpaceOnUse" x1="151.8994" x2="-27.383467" xlink:href="#f" y1="-1166.1295" y2="-1398.9415"/><linearGradient id="as" gradientTransform="translate(522.00245 2460.013)" gradientUnits="userSpaceOnUse" x1="692.99951" x2="512.99951" xlink:href="#aq" y1="-2347.0129" y2="-2577.0129"/><linearGradient id="at" gradientTransform="matrix(1.004 0 0 1.0093981 1062.495 1295.0889)" gradientUnits="userSpaceOnUse" x1="151.8994" x2="-27.383467" xlink:href="#aj" y1="-1166.1295" y2="-1398.9415"/><linearGradient id="au" gradientTransform="matrix(2.008088 0 0 2.0188846 1404.9833 2462.1793)" gradientUnits="userSpaceOnUse" x1="151.89409" x2="-24.890991" xlink:href="#f" y1="-1168.5558" y2="-1398.881"/><linearGradient id="av" gradientTransform="matrix(4.0217311 0 0 4.0377691 2610.1082 4796.3586)" gradientUnits="userSpaceOnUse" x1="151.89412" x2="-24.890966" xlink:href="#f" y1="-1168.5558" y2="-1398.881"/><linearGradient id="aw" gradientTransform="matrix(2 0 0 2 326.001 4792.026)" gradientUnits="userSpaceOnUse" x1="692.99951" x2="512.99951" xlink:href="#aq" y1="-2347.0129" y2="-2577.0129"/><linearGradient id="ax" gradientTransform="matrix(4 0 0 4 454.002 9456.052)" gradientUnits="userSpaceOnUse" x1="692.99951" x2="512.99951" xlink:href="#aq" y1="-2347.0129" y2="-2577.0129"/><linearGradient id="ay" gradientUnits="userSpaceOnUse" x1="678" x2="590" xlink:href="#aq" y1="122" y2="6"/><linearGradient id="az" gradientTransform="translate(-132)" gradientUnits="userSpaceOnUse" x1="678" x2="590" xlink:href="#aq" y1="122" y2="6"/><path d="m170 96h32v32h-32z" fill="#ffc8c8" fill-opacity=".748634"/><path d="m1278-384h512v512h-512z" fill="#ffc8c8" fill-opacity=".748634"/><path d="m998-128h256v256h-256z" fill="#ffc8c8" fill-opacity=".748634"/><path d="m718-128h256v256h-256z" fill="#ffc8c8" fill-opacity=".748634"/><path d="m110 104h24v24h-24z" fill="#ffc8c8" fill-opacity=".748634"/><path d="m84 104h24v24h-24z" fill="#ffc8c8" fill-opacity=".748634"/><path d="m60 106h22v22h-22z" fill="#ffc8c8" fill-opacity=".748634"/><path d="m36 106h22v22h-22z" fill="#ffc8c8" fill-opacity=".748634"/><path d="m370 64h64v64h-64z" fill="#ffc8c8" fill-opacity=".748634"/><path d="m254 80h48v48h-48z" fill="#ffc8c8" fill-opacity=".748634"/><path d="m304 64h64v64h-64z" fill="#ffc8c8" fill-opacity=".748634"/><path d="m570 0h128v128h-128z" fill="#ffc8c8" fill-opacity=".748634"/><path d="m438 0h128v128h-128z" fill="#ffc8c8" fill-opacity=".748634"/><path d="m18 112h16v16h-16z" fill="#ffc8c8" fill-opacity=".748634"/><path d="m204 80h48v48h-48z" fill="#ffc8c8" fill-opacity=".748634"/><path d="m136 96h32v32h-32z" fill="#ffc8c8" fill-opacity=".748634"/><path d="m0 112h16v16h-16z" fill="#ffc8c8" fill-opacity=".748634"/><path d="m175.62527 96.009766c-.91677.174932-1.64144 1.065106-1.625 1.998044v27.99219c.0001 1.04688.95288 1.9999 2 2h20c1.04712-.0001 1.9999-.95312 2-2v-17.45508c.012-.52797-.19501-1.05609-.5625-1.43554l-10.54102-10.537114c-.37954-.367299-.90939-.574736-1.4375-.5625h-9.45898c-.1246-.012-.25036-.012-.375 0z" fill="url(#T)"/><path d="m1353.8613-384c-8.2664 0-15.8672 7.36558-15.8672 16.24219v479.90039c0 7.73479 7.2433 15.85742 15.5137 15.85742h359.9902c9.2544 0 16.5-7.73949 16.5-15.48828v-298.38281c0-8.44868-1.0237-12.36482-7-18.33789l-170.6562-170.57227c-5.9762-5.97107-10.5476-9.0506-19-9.05859zm253.6953.0781c-13.6766 0-14.2772 14.22732-7.0449 21.49219v.002l106.3848 106.86718c8.6804 8.71464 23.1094 6.6482 23.1094-7.09765v-104.8711c0-8.45468-7.6541-16.39258-16.0645-16.39258z" fill="url(#au)" stroke-width="15.997"/><path d="m1037.9355-127.9375c-4.133 0-7.9335 3.68103-7.9335 8.11914v239.93945c0 3.86723 3.6228 7.92969 7.7578 7.92969h175.9843c4.627 0 8.25-3.86992 8.25-7.74414v-149.185546c0-4.224155-.512-6.181567-3.5-9.167969l-85.3222-85.283205c-2.988-2.9854-5.274-4.5253-9.5-4.5293l-85.7364-.0781z" fill="url(#at)" stroke-width="15.997"/><path d="m757.93554-127.9375c-4.133 0-7.93359 3.68103-7.93359 8.11914v239.93945c0 3.86723 3.62281 7.92969 7.75781 7.92969h175.98438c4.627 0 8.25-3.86992 8.25-7.74414v-149.185546c0-4.224155-.512-6.181567-3.5-9.167969l-85.32227-85.283205c-2.988-2.9854-5.274-4.5253-9.5-4.5293l-85.73633-.0781zm122.8418.0371c-6.838 0-7.13748 7.11382-3.52148 10.74609v.002l53.18945 53.431644c4.34 4.357128 11.55273 3.321844 11.55273-3.550781v-52.431643c0-4.22715-3.82625-8.19726-8.03125-8.19726h-53.18945z" fill="url(#V)" stroke-width="15.997"/><path d="m762.00002-116v232h168v-148l-86-84z" fill="url(#ap)"/><path d="m113.9142 104.00674c-.51568.0984-.9233.60028-.91405 1.125v21.74327c.00005.5888.53598 1.12493 1.12499 1.12499h15.74997c.58901-.00006 1.12493-.53619 1.12499-1.12499v-14.99553c.007-.29695-.10969-.59516-.3164-.80858l-5.62495-6.74775c-.2135-.20658-.51153-.32329-.80859-.31641h-10.12502c-.0701-.007-.14083-.007-.21094 0z" fill="url(#ao)"/><path d="m114.00013 104.99999v22h16v-15l-6-7z" fill="#fff"/><path d="m126.88685 104.00674c-.37292.11879-.49843.68372-.21093.94922l3.37497 3.37277c.31178.29553.93278.0425.94921-.38671v-3.37278c-.00003-.2944-.26799-.56246-.56249-.5625h-3.37498c-.0582-.009-.11766-.009-.17578 0z" fill="url(#an)"/><path d="m87.914204 104.00638c-.51568.0984-.9233.60028-.91405 1.125v21.74413c.00005.5888.53598 1.12492 1.12499 1.12498h15.749966c.58901-.00006 1.12493-.53619 1.12499-1.12498v-14.99639c.007-.29695-.10969-.59517-.3164-.80859l-5.624946-6.74775c-.2135-.20658-.51153-.32329-.80859-.31641h-10.12502c-.0701-.007-.14083-.007-.21094.00001zm12.972646 0c-.37292.11879-.49843.68372-.21093.94922l3.37497 3.37277c.31178.29553.93278.0425.94921-.38671v-3.37278c-.00003-.2944-.26799-.56246-.56249-.5625h-3.37498c-.0582-.009-.11766-.009-.17578 0z" fill="url(#am)"/><path d="m88.000134 104.99963v22.00086h15.999996v-15.00086l-5.999996-7z" fill="#fff"/><path d="m63.914209 106.00675c-.515687.0984-.923302.60028-.914055 1.125v19.74327c.000057.5888.535979 1.12493 1.124991 1.12499h13.749973c.589011-.00006 1.124934-.53619 1.12499-1.12499v-12.99553c.0068-.29695-.109687-.59516-.316404-.80858l-5.624951-6.74775c-.213496-.20658-.511528-.32329-.808586-.31641h-8.125022c-.07009-.007-.140829-.007-.210936 0z" fill="url(#ak)"/><path d="m64.000137 107v20h14v-13l-6-7z" fill="#fff"/><path d="m39.914209 106.00675c-.515687.0984-.923302.60028-.914055 1.125v19.74327c.000057.5888.535979 1.12493 1.124991 1.12499h13.749973c.589011-.00006 1.124934-.53619 1.12499-1.12499v-12.99553c.0068-.29695-.109687-.59516-.316404-.80858l-5.624951-6.74775c-.213496-.20658-.511528-.32329-.808586-.31641h-8.125022c-.07009-.007-.140829-.007-.210936 0zm10.972652 0c-.372926.11879-.498432.68372-.210935.94922l3.37497 3.37277c.311786.29553.932786.0425.949211-.38671v-3.37278c-.000034-.2944-.26799-.56246-.562495-.5625h-3.374971c-.05816-.009-.117664-.009-.17578 0z" fill="url(#ai)"/><path d="m40.000137 107v20h14v-13l-6-7z" fill="#fff"/><path d="m379.62498 64.000101c-.12518 0-.25036.0056-.375.01758-1.83351.349901-2.28284 1.133123-2.24996 2.999025v57.984265c.0002 2.09375.90573 2.99883 2.99995 2.99903h43.99841c2.09422-.0002 2.99877-.90528 2.99897-2.99903v-35.909071c.024-1.05595-.39001-2.115123-1.12498-2.874024l-21.07975-21.075198c-.75908-.7346-1.81876-1.14945-2.87495-1.125h-21.9177c-.12459-.012-.24979-.01758-.37499-.01758z" fill="url(#ah)"/><path d="m412.62941 64.0069c-.10498 0-.20973.0084-.31347.02441-1.33121.4264-1.77918 2.452274-.75291 3.405272l12.04766 12.110353c1.11294 1.06085 3.329.153104 3.38764-1.387697v-12.11035c-.00012-1.05685-.95648-2.017428-2.00778-2.017578h-12.04669c-.10379-.016-.20947-.02441-.31445-.02441z" fill="url(#ag)"/><path d="m379.999 67.000101v57.999899h43.99938v-35.999899l-21.99965-22z" fill="#fff"/><path d="m313.62498 64.000101c-.12518 0-.25035.0056-.37499.01758-1.83351.349901-2.28285 1.133123-2.24997 2.999025v57.984265c.0002 2.09375.90573 2.99883 2.99996 2.99903h43.9984c2.09422-.0002 2.99878-.90528 2.99898-2.99903v-35.90907c.024-1.05595-.39002-2.115124-1.12498-2.874025l-21.07975-21.075198c-.75909-.7346-1.81877-1.14945-2.87496-1.125h-21.91769c-.1246-.012-.24981-.01758-.375-.01758zm33.00444.0068c-.10498 0-.20974.0084-.31347.02441-1.33122.4264-1.77919 2.452275-.75292 3.405273l12.04766 12.110393c1.11295 1.060849 3.329.153103 3.38764-1.387697v-12.110351c-.00012-1.05685-.95647-2.017428-2.00778-2.017577h-12.04669c-.10378-.016-.20946-.02441-.31444-.02441z" fill="url(#U)"/><path d="m313.99901 67.000101v57.999899h43.99937v-35.999899l-21.99965-22z" fill="#fff"/><path d="m591.25195 0c-.25037 0-.50072.011156-.75.035156-3.66708.6998-4.56576 2.2662469-4.5 5.998047v115.968747c.0004 4.1875 1.81149 5.99765 6 5.99805h83.99807c4.18851-.0004 5.99765-1.81055 5.99805-5.99805v-71.818356c.048-2.1119-.78004-4.230247-2.25-5.748047l-42.16016-42.1503908c-1.51819-1.4691999-3.63759-2.2988999-5.75-2.25h-39.83596c-.24919-.024-.49962-.0351562-.75-.0351562z" fill="url(#af)"/><path d="m459.25195 0c-.25037 0-.50072.0111562-.75.0351562-3.66708.6998-4.56576 2.2662469-4.5 5.9980468v115.968747c.0004 4.1875 1.81149 5.99765 6 5.99805h83.99805c4.18851-.0004 5.99765-1.81055 5.99805-5.99805v-71.818356c.048-2.1119-.78004-4.230247-2.25-5.748047l-42.16016-42.1503908c-1.51819-1.4691999-3.63759-2.2988999-5.75-2.25h-39.83594c-.24919-.024-.49962-.0351562-.75-.0351562zm62.00977.0136719c-.20997 0-.41948.0168281-.62695.0488281-2.66247.8528-3.55843 4.904547-1.50586 6.810547l24.0957 24.220703c2.22593 2.1217 6.65811.306209 6.77539-2.775391v-24.220703c-.00024-2.1136998-1.91298-4.034856-4.01562-4.035156h-24.09376c-.20758-.032-.41894-.0488281-.6289-.0488281z" fill="url(#ad)"/><path d="m460.00001 6v116h84.00001v-72l-44-44z" fill="url(#az)"/><path d="m20.8125 112.00586c-.458392.0875-.82072.53358-.8125 1v13.99414c.00005.52339.47643.99995 1 1h10c .52357-.00005.99995-.47661 1-1v-7.99609c.006-.26396-.0975-.52904-.28125-.71875l-5-5.99805c-.189776-.18363-.454695-.28737-.71875-.28125h-5c-.0623-.006-.125182-.006-.1875 0z" fill="url(#ac)"/><path d="m212.4375 80.013638c-1.37515.262398-2.46216 1.598638-2.4375 2.998047v41.988285c.00015 1.57031 1.42931 2.99985 3 3h30c1.57069-.00015 2.99985-1.42969 3-3v-26.18165c.018-.79196-.29252-1.587065-.84375-2.156245l-15.8125-15.804687c-.56932-.550947-1.3641-.862103-2.15625-.84375h-14.1875c-.18689-.01799-.37555-.01799-.5625 0zm22.55078.0098c-.99843.319797-1.33417 1.839914-.56445 2.554688l9.03515 9.082031c.83473.795587 2.49704.114553 2.54102-1.04105v-9.082032c-.00009-.792623-.71736-1.513582-1.50586-1.513672h-9.03516c-.15569-.02399-.31509-.02399-.4707 0z" fill="url(#Y)"/><path d="m141.62527 96.009766c-.91677.174932-1.64144 1.065106-1.625 1.998044v27.99219c.0001 1.04688.95288 1.9999 2 2h20c1.04712-.0001 1.9999-.95312 2-2v-17.45508c.012-.52797-.19501-1.05609-.5625-1.43554l-10.54102-10.537114c-.37954-.367299-.90939-.574736-1.4375-.5625h-9.45898c-.1246-.012-.25036-.012-.375 0zm15.0332.0059c-.66561.213198-.89009 1.226608-.37695 1.703125l6.02539 6.054689c.55648.53041 1.66404.077 1.69336-.69336v-6.054688c-.00006-.528417-.47824-1.009706-1.00391-1.009766h-6.02343c-.1038-.01599-.21072-.01599-.31446 0z" fill="url(#X)"/><path d="m142.00027 98v28h20v-17.5l-10.5-10.5z" fill="#fff"/><path d="m213 83v42h30v-26l-16-16z" fill="#fff"/><path d="m2.8125 112.00586c-.458392.0875-.82072.53358-.8125 1v13.99414c.00005.52339.47643.99995 1 1h10c .52357-.00005.99995-.47661 1-1v-7.99609c.006-.26396-.097505-.52904-.28125-.71875l-5-5.99805c-.189776-.18363-.454695-.28737-.71875-.28125h-5c-.0623-.006-.125182-.006-.1875 0zm7.53125 0c-.331493.10559-.4430551.60775-.1875.84375l3 2.99805c.277145.26269.82915.03777.84375-.34375v-2.99805c-.00003-.26169-.238215-.49997-.5-.5h-3c-.0517-.008-.104591-.008-.15625 0z" fill="url(#W)"/><path d="m3 113v14h10v-8l-5-6z" fill="#fff"/><path d="m592.00001 6v116h84.00001v-72l-44-44z" fill="url(#ay)"/><path d="m1362-360v464h344v-288l-176-176z" fill="url(#aw)"/><path d="m262.43734 80.013638c-1.37516.262398-2.46216 1.598638-2.4375 2.998046v41.988286c.00015 1.57031 1.4293 2.99985 3 3h30c1.57069-.00015 2.99984-1.42969 3-3v-26.18165c.018-.79196-.29253-1.587065-.84375-2.156245l-15.8125-15.804687c-.56932-.550947-1.36411-.862104-2.15625-.84375h-14.1875c-.18689-.01799-.37555-.01799-.5625 0z" fill="url(#Z)"/><path d="m262.99984 83v42h30v-26l-16-16z" fill="#fff"/><path d="m284.98828 80.023438c-.99843.319798-1.33417 1.839915-.56445 2.554688l9.03515 9.082032c.83473.795587 2.49704.114553 2.54102-1.04105v-9.082032c-.00009-.792624-.71736-1.513582-1.50586-1.513672h-9.03516c-.15569-.02399-.31509-.02399-.4707 0z" fill="url(#aa)"/><path d="m28.34375 112.00586c-.331493.10559-.443055.60775-.1875.84375l3 2.99805c.277145.26269.82915.0378.84375-.34375v-2.99805c-.00003-.26169-.238215-.49997-.5-.5h-3c-.0517-.008-.104591-.008-.15625 0z" fill="url(#ab)"/><path d="m21 113v14h10v-8l-5-6z" fill="#fff"/><path d="m653.26173.013672c-.20997 0-.41948.016828-.62695.048828-2.66247.8528-3.55843 4.904547-1.50586 6.810547l24.0957 24.220703c2.22593 2.1217 6.65811.306209 6.77539-2.775391v-24.220703c-.00024-2.1136998-1.91298-4.034856-4.01562-4.035156h-24.09376c-.20758-.032-.41894-.048828-.6289-.048828z" fill="url(#ae)"/><path d="m74.886861 106.00675c-.372926.11879-.498432.68372-.210935.94922l3.37497 3.37277c.311786.29553.932786.0425.949211-.38671v-3.37278c-.000034-.2944-.26799-.56246-.562495-.5625h-3.374971c-.05816-.009-.117664-.009-.17578 0z" fill="url(#al)"/><path d="m1160.7773-127.9004c-6.838 0-7.1374 7.11382-3.5214 10.74609v.002l53.1894 53.431644c4.34 4.357128 11.5527 3.321844 11.5527-3.550781v-52.431643c0-4.22715-3.8262-8.19726-8.0312-8.19726h-53.1895z" fill="url(#ar)" stroke-width="15.997"/><path d="m1042.002-116v232h168v-148l-86-84z" fill="url(#as)"/><path d="m190.65847 96.015666c-.66561.213198-.89009 1.226608-.37695 1.703125l6.02539 6.054689c.55648.53041 1.66404.077 1.69336-.69336v-6.054688c-.00006-.528417-.47824-1.009706-1.00391-1.009766h-6.02343c-.1038-.01599-.21072-.01599-.31446 0z" fill="url(#S)"/><path d="m176.00027 98v28h20v-17.5l-10.5-10.5z" fill="#fff"/><path d="m762.00002-116v232h168v-148l-86-84z" fill="url(#ap)"/><text fill="#717171" font-family="sans-serif" letter-spacing="0" text-anchor="middle" word-spacing="0" x="16.694462" y="142.56812"><tspan x="10.73674" y="142.56812">16</tspan></text><text fill="#717171" font-family="sans-serif" letter-spacing="0" text-anchor="middle" word-spacing="0" x="56.694462" y="142.56812"><tspan x="56.694462" y="142.56812">22</tspan></text><text fill="#717171" font-family="sans-serif" letter-spacing="0" text-anchor="middle" word-spacing="0" x="172.69446" y="142.56812"><tspan x="172.69446" y="142.56812">32</tspan></text><text fill="#717171" font-family="sans-serif" letter-spacing="0" text-anchor="middle" word-spacing="0" x="264.69446" y="142.56812"><tspan x="264.69446" y="142.56812">48</tspan></text><text fill="#717171" font-family="sans-serif" letter-spacing="0" text-anchor="middle" word-spacing="0" x="556.69446" y="142.56812"><tspan x="556.69446" y="142.56812">128</tspan></text><path d="m152.00009 109c-2.1071 0-4.01323.22527-5.43164.60352-.70921.18912-1.29706.4122-1.74609.69531-.44904.2831-.82227.6717-.82227 1.20117h-.004v.5 4 .5 4c0 .52948.37518.91807.82422 1.20117.44904.28311 1.03493.50619 1.74414.69531 1.41842.37825 3.32456.60352 5.43164.60352s4.01518-.22527 5.4336-.60352c.70921-.18912 1.2951-.4122 1.74414-.69531.44904-.2831.82226-.67169.82226-1.20117v-4.5-4.47656c.00019-.008.004-.0151.004-.0234 0-.52947-.37323-.91807-.82227-1.20117-.44903-.28311-1.03688-.50619-1.74609-.69531-1.41841-.37829-3.32454-.60356-5.43164-.60356zm0 1c2.03504 0 3.87777.2247 5.17383.57031.64803.17281 1.1607.37877 1.4707.57422.31001.19545.35547.33266.35547.35547 0 .0228-.0455.16002-.35547.35547-.31.19545-.82267.40336-1.4707.57617-1.29606.34561-3.13879.56836-5.17383.56836s-3.87777-.22275-5.17383-.56836c-.64803-.17281-1.1607-.38072-1.4707-.57617-.31001-.19545-.35547-.33266-.35547-.35547 0-.0228.0455-.16002.35547-.35547.31-.19545.82267-.40141 1.4707-.57422 1.29606-.34561 3.13879-.57031 5.17383-.57031zm-7.00391 2.78906c.42613.23971.94258.44146 1.57227.60938 1.41841.37824 3.32454.60156 5.43164.60156s4.01323-.22332 5.43164-.60156c.6279-.16744 1.14283-.36865 1.56836-.60742v1.91406h-.004v1.29492c0 .0228-.0455.16002-.35547.35547-.31.19545-.82074.40336-1.46874.57617-1.29607.34562-3.14077.56836-5.17579.56836s-3.87777-.22274-5.17382-.56836c-.64803-.17281-1.15875-.38072-1.46875-.57617-.29956-.18886-.35019-.31822-.35352-.34766v-.008h-.004zm0 4.49805c.42555.23933.93939.44165 1.56836.60937 1.41842.37825 3.32456.60352 5.43164.60352s4.01518-.22527 5.4336-.60352c.62969-.16791 1.14452-.36966 1.57031-.60937v1.71289h-.004v1.5c0 .0228-.0455.16002-.35547.35547-.31.19545-.82074.40336-1.46874.57617-1.29607.34562-3.14077.56836-5.17579.56836s-3.87777-.22274-5.17382-.56836c-.64803-.17281-1.15875-.38072-1.46875-.57617-.31001-.19545-.35743-.33266-.35743-.35547z" fill="url(#y)"/><path d="m228.00009 98c-2.90882 0-5.81327.290959-8.03711.892578-1.11192.30081-2.05449.675403-2.75977 1.166012-.70466.49021-1.20228 1.1536-1.20312 1.94141v13.99805c0 .70521.4593 1.2984 1.11133 1.76757.65203.46919 1.5369.85855 2.61133 1.18555 2.14886.654 5.06057 1.04688 8.27734 1.04688s6.12848-.39288 8.27734-1.04688c1.07443-.327 1.95735-.71636 2.60938-1.18555.65203-.46917 1.11328-1.06236 1.11328-1.76757v-14c-.00084-.78782-.49846-1.44925-1.20312-1.93946-.70528-.490609-1.64785-.865202-2.75977-1.166012-2.22384-.601619-5.12829-.892578-8.03711-.892578zm0 1c2.84118 0 5.68673.292374 7.77539.857422 1.04433.282528 1.89862.637098 2.45117 1.021488.55162.38372.77269.74186.77344 1.11914v.002c0 .37798-.22089.73671-.77344 1.12109-.55255.38439-1.40684.73896-2.45117 1.02149-2.08866.565-4.93421.85737-7.77539.85737s-5.68673-.29237-7.77539-.85742c-1.04433-.28253-1.89862-.6371-2.45117-1.02149-.55255-.38438-.77344-.74311-.77344-1.12109v-.002c.00075-.37728.22182-.73542.77344-1.11914.55255-.38439 1.40684-.73896 2.45117-1.021488 2.08866-.564998 4.93421-.857372 7.77539-.857372zm-11 4.77539c.0687.0549.12955.11484.20312.16602.70528.49061 1.64785.8652 2.75977 1.16601 2.22384.60162 5.12829.89258 8.03711.89258s5.81327-.29096 8.03711-.89258c1.11192-.30081 2.05449-.6754 2.75977-1.16601.0736-.0512.13439-.11116.20312-.16602v2.22266.5.002c-.00084.26098-.18465.58762-.69531.95508-.51184.36829-1.3117.73269-2.31836 1.03906-2.01332.61275-4.85182 1.00391-7.98633 1.00391s-5.97301-.39116-7.98633-1.00391c-1.00666-.30637-1.80652-.67077-2.31836-1.03906-.51066-.36751-.69447-.69415-.69531-.95513v-.002-.498zm0 4.39649c.039.0301.0708.0646.11133.0937.65203.46919 1.53689.85855 2.61133 1.18555 2.14886.654 5.06058 1.04688 8.27734 1.04688s6.12848-.39288 8.27734-1.04688c1.07444-.327 1.9593-.71636 2.61133-1.18555.0405-.0292.0723-.0636.11133-.0937v1.82812.99805.5c0 .26128-.18543.58873-.69727.95703-.51183.36829-1.30974.73269-2.3164 1.03906-2.01332.61275-4.8518 1.00391-7.98633 1.00391s-5.97301-.39116-7.98633-1.00391c-1.00666-.30637-1.80653-.67077-2.31836-1.03906-.51183-.3683-.69531-.69575-.69531-.95703v-.5-.99805zm0 5c .039.0301.0708.0646.11133.0937.65203.46919 1.5369.85855 2.61133 1.18555 2.14886.654 5.06057 1.04688 8.27734 1.04688s6.12848-.39288 8.27734-1.04688c1.07443-.327 1.95735-.71636 2.60938-1.18555.041-.0295.0739-.0633.11328-.0937v2.82617.002c-.00085.26098-.1866.58762-.69727.95508-.51183.36829-1.30974.73269-2.3164 1.03906-2.01332.61275-4.8518 1.00391-7.98633 1.00391s-5.97301-.39116-7.98633-1.00391c-1.00666-.30637-1.80653-.67077-2.31836-1.03906-.51066-.36751-.69447-.69415-.69531-.95513z" fill="url(#z)"/><path d="m8.0019531 117.99609c-1.0244033 0-1.9538614.17275-2.671875.48047-.3590068.15386-.6671227.34166-.9082031.58594s-.4199219.56886-.4199219.93359c0 .001-.0000047.003 0 .004l-.0019531-.00009.00195 2.49805v.5c0 .36473.1768887.68931.4179688.93359.24108.24428.5511497.43208.9101562.58594.718013.30772 1.6474711.48047 2.671875.48047 1.024404 0 1.9538622-.17275 2.671875-.48047.359007-.15386.667123-.34166.908203-.58594s.419922-.56886.419922-.93359v-.5l-.00195-2.48633c.000077-.005.002-.0103.002-.0156 0-.36473-.178841-.68931-.419922-.93359-.24108-.24428-.549196-.43208-.908203-.58594-.7180134-.30772-1.6474716-.48047-2.6718749-.48047zm0 1c .908595 0 1.7286053.16522 2.2773439.40039.274369.11759.478658.25255.591797.36719s.130859.18295.130859.23242c0 .001-.0019.003-.002.004v.004c-.0016.049-.02058.11484-.128906.22461-.113139.11463-.317428.25155-.591797.36914-.5487386.23517-1.3687489.39843-2.2773439.39843s-1.7286053-.16326-2.2773437-.39843c-.2743692-.11759-.4786577-.25451-.5917969-.36914-.1131392-.11464-.1308594-.18295-.1308594-.23243 0-.0495.01772-.11778.1308594-.23242.1131392-.11464.3174277-.2496.5917969-.36719.5487384-.23517 1.3687487-.40039 2.2773437-.40039zm-3 2.34961c.1067262.0589.2097553.12115.328125.17188.7180136.30772 1.6474717.47851 2.671875.47851s1.9538615-.17079 2.6718749-.47851c.118081-.0506.221629-.11117.328125-.16992v1.15039.5c0 .0495-.01772.11778-.130859.23242s-.317429.2496-.591797.36719c-.5487373.23517-1.3687478.40039-2.2773439.40039-.908596 0-1.7305598-.16522-2.2792969-.40039-.2743684-.11759-.476705-.25255-.5898437-.36719s-.1308594-.18294-.1308594-.23242v-.5z" fill="url(#A)"/><path d="m26.001953 117.99609c-1.024403 0-1.953861.17275-2.671875.48047-.359007.15386-.667123.34166-.908203.58594s-.419922.56886-.419922.93359c0 .001-.000005.003 0 .004l-.001953-.00009.002 2.49805v.5c0 .36473.176889.68931.417969.93359s.551149.43208.910156.58594c.718013.30772 1.647471.48047 2.671875.48047s1.953862-.17275 2.671875-.48047c.359007-.15386.667123-.34166.908203-.58594s.419922-.56886.419922-.93359v-.5l-.002-2.48633c.000077-.005.002-.0103.002-.0156 0-.36473-.178841-.68931-.419922-.93359-.24108-.24428-.549196-.43208-.908203-.58594-.718013-.30772-1.647472-.48047-2.671875-.48047zm0 1c .908595 0 1.728605.16522 2.277344.40039.274369.11759.478658.25255.591797.36719s.130859.18295.130859.23242c0 .001-.0019.003-.002.004v.004c-.0016.049-.02058.11484-.128906.22461-.113139.11463-.317428.25155-.591797.36914-.548739.23517-1.368749.39843-2.277344.39843s-1.728605-.16326-2.277344-.39843c-.274369-.11759-.478657-.25451-.591797-.36914-.113139-.11464-.130859-.18295-.130859-.23243 0-.0495.01772-.11778.130859-.23242.11314-.11464.317428-.2496.591797-.36719.548739-.23517 1.368749-.40039 2.277344-.40039zm-3 2.34961c.106726.0589.209755.12115.328125.17188.718014.30772 1.647472.47851 2.671875.47851s1.953862-.17079 2.671875-.47851c.118081-.0506.221629-.11117.328125-.16992v1.15039.5c0 .0495-.01772.11778-.130859.23242s-.317429.2496-.591797.36719c-.548737.23517-1.368748.40039-2.277344.40039s-1.73056-.16522-2.279297-.40039c-.274368-.11759-.476705-.25255-.589844-.36719-.113138-.11464-.130859-.18294-.130859-.23242v-.5z" fill="url(#B)"/><path d="m186.00009 109c-2.1071 0-4.01323.22527-5.43164.60352-.70921.18912-1.29706.4122-1.74609.69531-.44904.2831-.82227.6717-.82227 1.20117h-.004v.5 4 .5 4c0 .52948.37518.91807.82422 1.20117.44904.28311 1.03493.50619 1.74414.69531 1.41842.37825 3.32456.60352 5.43164.60352s4.01518-.22527 5.4336-.60352c.70921-.18912 1.2951-.4122 1.74414-.69531.44904-.2831.82226-.67169.82226-1.20117v-4.5-4.47656c.00019-.008.004-.0151.004-.0234 0-.52947-.37323-.91807-.82227-1.20117-.44903-.28311-1.03688-.50619-1.74609-.69531-1.41841-.37829-3.32454-.60356-5.43164-.60356zm0 1c2.03504 0 3.87777.2247 5.17383.57031.64803.17281 1.1607.37877 1.4707.57422.31001.19545.35547.33266.35547.35547 0 .0228-.0455.16002-.35547.35547-.31.19545-.82267.40336-1.4707.57617-1.29606.34561-3.13879.56836-5.17383.56836s-3.87777-.22275-5.17383-.56836c-.64803-.17281-1.1607-.38072-1.4707-.57617-.31001-.19545-.35547-.33266-.35547-.35547 0-.0228.0455-.16002.35547-.35547.31-.19545.82267-.40141 1.4707-.57422 1.29606-.34561 3.13879-.57031 5.17383-.57031zm-7.00391 2.78906c.42613.23971.94258.44146 1.57227.60938 1.41841.37824 3.32454.60156 5.43164.60156s4.01323-.22332 5.43164-.60156c.6279-.16744 1.14283-.36865 1.56836-.60742v1.91406h-.004v1.29492c0 .0228-.0455.16002-.35547.35547-.31.19545-.82074.40336-1.46874.57617-1.29607.34562-3.14077.56836-5.17579.56836s-3.87777-.22274-5.17382-.56836c-.64803-.17281-1.15875-.38072-1.46875-.57617-.29956-.18886-.35019-.31822-.35352-.34766v-.008h-.004zm0 4.49805c.42555.23933.93939.44165 1.56836.60937 1.41842.37825 3.32456.60352 5.43164.60352s4.01518-.22527 5.4336-.60352c.62969-.16791 1.14452-.36966 1.57031-.60937v1.71289h-.004v1.5c0 .0228-.0455.16002-.35547.35547-.31.19545-.82074.40336-1.46874.57617-1.29607.34562-3.14077.56836-5.17579.56836s-3.87777-.22274-5.17382-.56836c-.64803-.17281-1.15875-.38072-1.46875-.57617-.31001-.19545-.35743-.33266-.35743-.35547z" fill="url(#C)"/><path d="m278.00009 98c-2.90882 0-5.81327.290959-8.03711.892578-1.11192.30081-2.05449.675403-2.75977 1.166012-.70466.49021-1.20228 1.1536-1.20312 1.94141v13.99805c0 .70521.4593 1.2984 1.11133 1.76757.65203.46919 1.5369.85855 2.61133 1.18555 2.14886.654 5.06057 1.04688 8.27734 1.04688s6.12848-.39288 8.27734-1.04688c1.07443-.327 1.95735-.71636 2.60938-1.18555.65203-.46917 1.11328-1.06236 1.11328-1.76757v-14c-.00084-.78782-.49846-1.44925-1.20312-1.93946-.70528-.490609-1.64785-.865202-2.75977-1.166012-2.22384-.601619-5.12829-.892578-8.03711-.892578zm0 1c2.84118 0 5.68673.292374 7.77539.857422 1.04433.282528 1.89862.637098 2.45117 1.021488.55162.38372.77269.74186.77344 1.11914v.002c0 .37798-.22089.73671-.77344 1.12109-.55255.38439-1.40684.73896-2.45117 1.02149-2.08866.565-4.93421.85737-7.77539.85737s-5.68673-.29237-7.77539-.85742c-1.04433-.28253-1.89862-.6371-2.45117-1.02149-.55255-.38438-.77344-.74311-.77344-1.12109v-.002c.00075-.37728.22182-.73542.77344-1.11914.55255-.38439 1.40684-.73896 2.45117-1.021488 2.08866-.564998 4.93421-.857372 7.77539-.857372zm-11 4.77539c.0687.0549.12955.11484.20312.16602.70528.49061 1.64785.8652 2.75977 1.16601 2.22384.60162 5.12829.89258 8.03711.89258s5.81327-.29096 8.03711-.89258c1.11192-.30081 2.05449-.6754 2.75977-1.16601.0736-.0512.13439-.11116.20312-.16602v2.22266.5.002c-.00084.26098-.18465.58762-.69531.95508-.51184.36829-1.3117.73269-2.31836 1.03906-2.01332.61275-4.85182 1.00391-7.98633 1.00391s-5.97301-.39116-7.98633-1.00391c-1.00666-.30637-1.80652-.67077-2.31836-1.03906-.51066-.36751-.69447-.69415-.69531-.95513v-.002-.498zm0 4.39649c.039.0301.0708.0646.11133.0937.65203.46919 1.53689.85855 2.61133 1.18555 2.14886.654 5.06058 1.04688 8.27734 1.04688s6.12848-.39288 8.27734-1.04688c1.07444-.327 1.9593-.71636 2.61133-1.18555.0405-.0292.0723-.0636.11133-.0937v1.82812.99805.5c0 .26128-.18543.58873-.69727.95703-.51183.36829-1.30974.73269-2.3164 1.03906-2.01332.61275-4.8518 1.00391-7.98633 1.00391s-5.97301-.39116-7.98633-1.00391c-1.00666-.30637-1.80653-.67077-2.31836-1.03906-.51183-.3683-.69531-.69575-.69531-.95703v-.5-.99805zm0 5c .039.0301.0708.0646.11133.0937.65203.46919 1.5369.85855 2.61133 1.18555 2.14886.654 5.06057 1.04688 8.27734 1.04688s6.12848-.39288 8.27734-1.04688c1.07443-.327 1.95735-.71636 2.60938-1.18555.041-.0295.0739-.0633.11328-.0937v2.82617.002c-.00085.26098-.1866.58762-.69727.95508-.51183.36829-1.30974.73269-2.3164 1.03906-2.01332.61275-4.8518 1.00391-7.98633 1.00391s-5.97301-.39116-7.98633-1.00391c-1.00666-.30637-1.80653-.67077-2.31836-1.03906-.51066-.36751-.69447-.69415-.69531-.95513z" fill="url(#D)"/><text fill="#717171" font-family="sans-serif" letter-spacing="0" text-anchor="middle" word-spacing="0" x="360.69446" y="142.56812"><tspan x="360.69446" y="142.56812">64</tspan> <tspan x="360.69446" y="142.56812"/></text><text fill="#717171" font-family="sans-serif" letter-spacing="0" text-anchor="middle" word-spacing="0" x="112.69446" y="142.56812"><tspan x="112.69446" y="142.56812">24</tspan></text><text x="624.12549" y="1350.8729"/><text fill="#717171" font-family="sans-serif" letter-spacing="0" text-anchor="middle" word-spacing="0" x="976.69452" y="142.56812"><tspan x="976.69452" y="142.56812">256</tspan></text><text fill="#717171" font-family="sans-serif" letter-spacing="0" text-anchor="middle" word-spacing="0" x="1796.6946" y="142.56812"><tspan x="1796.6946" y="142.56812">512</tspan></text><text fill="#717171" font-family="sans-serif" letter-spacing="0" text-anchor="middle" word-spacing="0" x="3416.6946" y="142.56812"><tspan x="3416.6946" y="142.56812">1024</tspan> <tspan x="3416.6946" y="142.56812"/></text><path d="m778.0045-25v6h28v-6zm32 0v6h30v-6zm34 0v6h30v-6zm34 0v6h28v-6zm-100 10v8h28v-8zm32 0v8h30v-8zm34 0v8h30v-8zm34 0v8h28v-8zm-100 12v8h28v-8zm32 0v8h30v-8zm34 0v8h30v-8zm34 0v8h28v-8zm-100 12v8h28v-8zm32 0v8h30v-8zm34 0v8h30v-8zm34 0v8h28v-8zm-100 12v8h28v-8zm32 0v8h30v-8zm34 0v8h30v-8zm34 0v8h28v-8zm-100 12v8h28v-8zm32 0v8h30v-8zm34 0v8h30v-8zm34 0v8h28v-8zm-100 12v8h28v-8zm32 0v8h30v-8zm34 0v8h30v-8zm34 0v8h28v-8zm-100 12v8h28v-8zm32 0v8h30v-8zm34 0v8h30v-8zm34 0v8h28v-8zm-100 12v8h28v-8zm32 0v8h30v-8zm34 0v8h30v-8zm34 0v8h28v-8zm-100 12v6h28v-6zm32 0v6h30v-6zm34 0v6h30v-6zm34 0v6h28v-6z" fill="url(#i)" opacity=".6"/><path d="m807.8715-5.219c-4.423 1.106-8 2.64-10.563 4.282-2.562 1.64-4.21 3.59-4.22 5.937-.077 19.65-.06 38.386-.06 54 0 2.294 1.65 4.262 4.218 5.906 2.568 1.645 6.19 3.057 10.594 4.25 8.81 2.386 20.86 3.844 34.187 3.844 13.328 0 25.378-1.458 34.188-3.844 4.406-1.193 8.026-2.605 10.595-4.25 2.568-1.644 4.196-3.623 4.196-5.917v-54c0-2.345-1.695-4.285-4.257-5.925-2.563-1.64-6.163-3.09-10.563-4.282-8.8-2.383-20.826-3.78-34.156-3.78-13.42 0-24.7 1.417-34.157 3.78zm34.156-1.78c13.188-.025 25.115 1.46 33.687 3.78 4.287 1.16 7.736 2.593 10.032 4.063 2.295 1.47 3.46 2.918 3.343 4.156-.21 2.205-2.578 3.735-4.25 4.688-2.71 1.545-5.95 2.71-8.874 3.468-9.98 2.59-19.947 3.535-29.53 3.78-13.262.214-26.41-.73-38.532-3.84-2.813-.735-5.25-1.64-7.656-2.845-2.16-1.083-5.063-2.882-5.28-5.25-.118-1.273 1.047-2.686 3.343-4.156s5.697-3.094 10.03-4.062c11.927-2.665 23.656-3.764 33.688-3.783zm-47 16.124c.633.635 1.392 1.273 2.28 1.813 3.29 1.996 7.31 3.487 10.564 4.28 13.105 3.04 26.117 4.087 38.625 3.72 10.112-.32 20.32-1.07 29.687-3.72 4.634-1.31 9.564-2.895 12.843-6.093v12.875c0 .582 0 1.22-.125 1.72-.273 1.104-1.37 2.436-3.344 3.593-3.264 1.91-6.84 3.083-10 3.937-11.23 2.74-22.915 3.735-33.53 3.75-11.457-.088-23.537-1.125-33.688-3.78-4.357-1.376-8.725-2.563-11.875-5.47-.724-.677-1.133-1.406-1.31-2.03-.163-.567-.125-1.123-.125-1.72v-12.875zm0 18.03c.388.385.835.766 1.312 1.126 3.833 2.65 8.6 4.188 12.75 5.22 11.482 2.606 21.65 3.477 32.938 3.5 11.353-.234 22.474-.815 32.937-3.5 3.705-.967 7.68-2.386 10.688-3.907 1.144-.58 2.937-2.034 3.375-2.438v12.844c0 .582 0 1.22-.125 1.72-.273 1.104-1.402 2.38-3.344 3.592-4.288 2.516-9.373 3.904-13.843 4.875-10.388 2.016-19.908 2.798-29.687 2.812-4.946 0-9.71-.172-14.187-.594-10.05-1.23-18.982-2.152-27.5-6.063-1.452-.672-2.796-1.603-3.875-2.593-.73-.67-1.116-1.41-1.31-2.03-.076-.24-.124-.504-.125-.72-.035-4.614 0-9.23 0-13.844zm0 18c1.566 1.542 3.638 2.706 5.53 3.502 8.676 3.596 18.944 5.06 27.126 5.748 4.934.406 9.77.595 14.343.594 11.368-.184 22.45-.886 32.937-3.5 4.22-1.145 8.17-2.41 11.657-4.47.934-.554 1.67-1.192 2.406-1.874v13.844c0 1.296-1.023 2.753-3.312 4.22-2.29 1.465-5.718 2.84-10 4-8.562 2.317-20.505 3.78-33.687 3.78s-25.125-1.462-33.687-3.78c-4.282-1.16-7.71-2.535-10-4-2.29-1.467-3.313-2.924-3.313-4.22z" fill="none" opacity=".5" stroke="#fff" stroke-width="2"/><path d="m794.0045 7v52c0 7.18 21.49 13 48 13s48-5.82 48-13v-52z" fill="url(#h)"/><path d="m807.8715-5.219c-4.423 1.106-8 2.64-10.563 4.282-2.562 1.64-4.21 3.59-4.22 5.937-.077 19.65-.06 38.386-.06 54 0 2.294 1.65 4.262 4.218 5.906 2.568 1.645 6.19 3.057 10.594 4.25 8.81 2.386 20.86 3.844 34.187 3.844 13.328 0 25.378-1.458 34.188-3.844 4.406-1.193 8.026-2.605 10.595-4.25 2.568-1.644 4.196-3.623 4.196-5.917v-54c0-2.345-1.695-4.285-4.257-5.925-2.563-1.64-6.163-3.09-10.563-4.282-8.8-2.383-20.826-3.78-34.156-3.78-13.42 0-24.7 1.417-34.157 3.78zm34.156-1.78c13.188-.025 25.115 1.46 33.687 3.78 4.287 1.16 7.736 2.593 10.032 4.063 2.295 1.47 3.46 2.918 3.343 4.156-.21 2.205-2.578 3.735-4.25 4.688-2.71 1.545-5.95 2.71-8.874 3.468-9.98 2.59-19.947 3.535-29.53 3.78-13.262.214-26.41-.73-38.532-3.84-2.813-.735-5.25-1.64-7.656-2.845-2.16-1.083-5.063-2.882-5.28-5.25-.118-1.273 1.047-2.686 3.343-4.156s5.697-3.094 10.03-4.062c11.927-2.665 23.656-3.764 33.688-3.783zm-47 16.124c.633.635 1.392 1.273 2.28 1.813 3.29 1.996 7.31 3.487 10.564 4.28 13.105 3.04 26.117 4.087 38.625 3.72 10.112-.32 20.32-1.07 29.687-3.72 4.634-1.31 9.564-2.895 12.843-6.093v12.875c0 .582 0 1.22-.125 1.72-.273 1.104-1.37 2.436-3.344 3.593-3.264 1.91-6.84 3.083-10 3.937-11.23 2.74-22.915 3.735-33.53 3.75-11.457-.088-23.537-1.125-33.688-3.78-4.357-1.376-8.725-2.563-11.875-5.47-.724-.677-1.133-1.406-1.31-2.03-.163-.567-.125-1.123-.125-1.72v-12.875zm0 18.03c.388.385.835.766 1.312 1.126 3.833 2.65 8.6 4.188 12.75 5.22 11.482 2.606 21.65 3.477 32.938 3.5 11.353-.234 22.474-.815 32.937-3.5 3.705-.967 7.68-2.386 10.688-3.907 1.144-.58 2.937-2.034 3.375-2.438v12.844c0 .582 0 1.22-.125 1.72-.273 1.104-1.402 2.38-3.344 3.592-4.288 2.516-9.373 3.904-13.843 4.875-10.388 2.016-19.908 2.798-29.687 2.812-4.946 0-9.71-.172-14.187-.594-10.05-1.23-18.982-2.152-27.5-6.063-1.452-.672-2.796-1.603-3.875-2.593-.73-.67-1.116-1.41-1.31-2.03-.076-.24-.124-.504-.125-.72-.035-4.614 0-9.23 0-13.844zm0 18c1.566 1.542 3.638 2.706 5.53 3.502 8.676 3.596 18.944 5.06 27.126 5.748 4.934.406 9.77.595 14.343.594 11.368-.184 22.45-.886 32.937-3.5 4.22-1.145 8.17-2.41 11.657-4.47.934-.554 1.67-1.192 2.406-1.874v13.844c0 1.296-1.023 2.753-3.312 4.22-2.29 1.465-5.718 2.84-10 4-8.562 2.317-20.505 3.78-33.687 3.78s-25.125-1.462-33.687-3.78c-4.282-1.16-7.71-2.535-10-4-2.29-1.467-3.313-2.924-3.313-4.22z" fill="url(#e)"/><ellipse cx="842.15784" cy="5.078407" fill="url(#b)" rx="47.00761" ry="12.00168"/><path id="aA" d="m795.4885 10.28v12.087c0 6.7 20.817 12.132 46.495 12.132 25.677 0 46.494-5.432 46.494-12.133v-12.027c-4.157 3.715-19.627 9.195-46.35 9.195-26.72 0-42.75-5.54-46.64-9.256z" fill="none" opacity=".5" stroke="#fff"/><ellipse cx="841.78503" cy="5.020859" fill="none" opacity=".5" rx="46.491535" ry="11.501137" stroke="#fff" stroke-width="1.000908"/><path id="aB" d="m795.4885 10.78v10.087c0 6.7 20.817 12.132 46.495 12.132 25.677 0 46.494-5.432 46.494-12.133v-10.027c-4.157 3.715-19.627 9.196-46.35 9.196-26.72 0-42.75-5.542-46.64-9.258z" fill="url(#E)" opacity=".25"/><use height="1085" transform="translate(0 18)" width="5033" xlink:href="#aA"/><use height="1085" transform="translate(0 18)" width="5033" xlink:href="#aB"/><use height="1085" transform="translate(0 36)" width="5033" xlink:href="#aA"/><use height="1085" transform="translate(0 36)" width="5033" xlink:href="#aB"/><path d="m1062.002-25v6h28v-6zm32 0v6h30v-6zm34 0v6h30v-6zm34 0v6h28v-6zm-100 10v8h28v-8zm32 0v8h30v-8zm34 0v8h30v-8zm34 0v8h28v-8zm-100 12v8h28v-8zm32 0v8h30v-8zm34 0v8h30v-8zm34 0v8h28v-8zm-100 12v8h28v-8zm32 0v8h30v-8zm34 0v8h30v-8zm34 0v8h28v-8zm-100 12v8h28v-8zm32 0v8h30v-8zm34 0v8h30v-8zm34 0v8h28v-8zm-100 12v8h28v-8zm32 0v8h30v-8zm34 0v8h30v-8zm34 0v8h28v-8zm-100 12v8h28v-8zm32 0v8h30v-8zm34 0v8h30v-8zm34 0v8h28v-8zm-100 12v8h28v-8zm32 0v8h30v-8zm34 0v8h30v-8zm34 0v8h28v-8zm-100 12v8h28v-8zm32 0v8h30v-8zm34 0v8h30v-8zm34 0v8h28v-8zm-100 12v6h28v-6zm32 0v6h30v-6zm34 0v6h30v-6zm34 0v6h28v-6z" fill="url(#k)" opacity=".6"/><path d="m1091.869-5.219c-4.423 1.106-8 2.64-10.563 4.282-2.562 1.64-4.21 3.59-4.22 5.937-.077 19.65-.06 38.386-.06 54 0 2.294 1.65 4.262 4.218 5.906 2.568 1.645 6.19 3.057 10.594 4.25 8.81 2.386 20.86 3.844 34.187 3.844 13.328 0 25.378-1.458 34.188-3.844 4.406-1.193 8.026-2.605 10.595-4.25 2.568-1.644 4.196-3.623 4.196-5.917v-54c0-2.345-1.695-4.285-4.257-5.925-2.563-1.64-6.163-3.09-10.563-4.282-8.8-2.383-20.826-3.78-34.156-3.78-13.42 0-24.7 1.417-34.157 3.78zm34.156-1.78c13.188-.025 25.115 1.46 33.687 3.78 4.287 1.16 7.736 2.593 10.032 4.063 2.295 1.47 3.46 2.918 3.343 4.156-.21 2.205-2.578 3.735-4.25 4.688-2.71 1.545-5.95 2.71-8.874 3.468-9.98 2.59-19.947 3.535-29.53 3.78-13.262.214-26.41-.73-38.532-3.84-2.813-.735-5.25-1.64-7.656-2.845-2.16-1.083-5.063-2.882-5.28-5.25-.118-1.273 1.047-2.686 3.343-4.156s5.697-3.094 10.03-4.062c11.927-2.665 23.656-3.764 33.688-3.783zm-47 16.124c.633.635 1.392 1.273 2.28 1.813 3.29 1.996 7.31 3.487 10.564 4.28 13.105 3.04 26.117 4.087 38.625 3.72 10.112-.32 20.32-1.07 29.687-3.72 4.634-1.31 9.564-2.895 12.843-6.093v12.875c0 .582 0 1.22-.125 1.72-.273 1.104-1.37 2.436-3.344 3.593-3.264 1.91-6.84 3.083-10 3.937-11.23 2.74-22.915 3.735-33.53 3.75-11.457-.088-23.537-1.125-33.688-3.78-4.357-1.376-8.725-2.563-11.875-5.47-.724-.677-1.133-1.406-1.31-2.03-.163-.567-.125-1.123-.125-1.72v-12.875zm0 18.03c.388.385.835.766 1.312 1.126 3.833 2.65 8.6 4.188 12.75 5.22 11.482 2.606 21.65 3.477 32.938 3.5 11.353-.234 22.474-.815 32.937-3.5 3.705-.967 7.68-2.386 10.688-3.907 1.144-.58 2.937-2.034 3.375-2.438v12.844c0 .582 0 1.22-.125 1.72-.273 1.104-1.402 2.38-3.344 3.592-4.288 2.516-9.373 3.904-13.843 4.875-10.388 2.016-19.908 2.798-29.687 2.812-4.946 0-9.71-.172-14.187-.594-10.05-1.23-18.982-2.152-27.5-6.063-1.452-.672-2.796-1.603-3.875-2.593-.73-.67-1.116-1.41-1.31-2.03-.076-.24-.124-.504-.125-.72-.035-4.614 0-9.23 0-13.844zm0 18c1.566 1.542 3.638 2.706 5.53 3.502 8.676 3.596 18.944 5.06 27.126 5.748 4.934.406 9.77.595 14.343.594 11.368-.184 22.45-.886 32.937-3.5 4.22-1.145 8.17-2.41 11.657-4.47.934-.554 1.67-1.192 2.406-1.874v13.844c0 1.296-1.023 2.753-3.312 4.22-2.29 1.465-5.718 2.84-10 4-8.562 2.317-20.505 3.78-33.687 3.78s-25.125-1.462-33.687-3.78c-4.282-1.16-7.71-2.535-10-4-2.29-1.467-3.313-2.924-3.313-4.22z" fill="none" opacity=".5" stroke="#fff" stroke-width="2"/><path d="m1078.002 7v52c0 7.18 21.49 13 48 13s48-5.82 48-13v-52z" fill="url(#l)"/><path d="m1091.869-5.219c-4.423 1.106-8 2.64-10.563 4.282-2.562 1.64-4.21 3.59-4.22 5.937-.077 19.65-.06 38.386-.06 54 0 2.294 1.65 4.262 4.218 5.906 2.568 1.645 6.19 3.057 10.594 4.25 8.81 2.386 20.86 3.844 34.187 3.844 13.328 0 25.378-1.458 34.188-3.844 4.406-1.193 8.026-2.605 10.595-4.25 2.568-1.644 4.196-3.623 4.196-5.917v-54c0-2.345-1.695-4.285-4.257-5.925-2.563-1.64-6.163-3.09-10.563-4.282-8.8-2.383-20.826-3.78-34.156-3.78-13.42 0-24.7 1.417-34.157 3.78zm34.156-1.78c13.188-.025 25.115 1.46 33.687 3.78 4.287 1.16 7.736 2.593 10.032 4.063 2.295 1.47 3.46 2.918 3.343 4.156-.21 2.205-2.578 3.735-4.25 4.688-2.71 1.545-5.95 2.71-8.874 3.468-9.98 2.59-19.947 3.535-29.53 3.78-13.262.214-26.41-.73-38.532-3.84-2.813-.735-5.25-1.64-7.656-2.845-2.16-1.083-5.063-2.882-5.28-5.25-.118-1.273 1.047-2.686 3.343-4.156s5.697-3.094 10.03-4.062c11.927-2.665 23.656-3.764 33.688-3.783zm-47 16.124c.633.635 1.392 1.273 2.28 1.813 3.29 1.996 7.31 3.487 10.564 4.28 13.105 3.04 26.117 4.087 38.625 3.72 10.112-.32 20.32-1.07 29.687-3.72 4.634-1.31 9.564-2.895 12.843-6.093v12.875c0 .582 0 1.22-.125 1.72-.273 1.104-1.37 2.436-3.344 3.593-3.264 1.91-6.84 3.083-10 3.937-11.23 2.74-22.915 3.735-33.53 3.75-11.457-.088-23.537-1.125-33.688-3.78-4.357-1.376-8.725-2.563-11.875-5.47-.724-.677-1.133-1.406-1.31-2.03-.163-.567-.125-1.123-.125-1.72v-12.875zm0 18.03c.388.385.835.766 1.312 1.126 3.833 2.65 8.6 4.188 12.75 5.22 11.482 2.606 21.65 3.477 32.938 3.5 11.353-.234 22.474-.815 32.937-3.5 3.705-.967 7.68-2.386 10.688-3.907 1.144-.58 2.937-2.034 3.375-2.438v12.844c0 .582 0 1.22-.125 1.72-.273 1.104-1.402 2.38-3.344 3.592-4.288 2.516-9.373 3.904-13.843 4.875-10.388 2.016-19.908 2.798-29.687 2.812-4.946 0-9.71-.172-14.187-.594-10.05-1.23-18.982-2.152-27.5-6.063-1.452-.672-2.796-1.603-3.875-2.593-.73-.67-1.116-1.41-1.31-2.03-.076-.24-.124-.504-.125-.72-.035-4.614 0-9.23 0-13.844zm0 18c1.566 1.542 3.638 2.706 5.53 3.502 8.676 3.596 18.944 5.06 27.126 5.748 4.934.406 9.77.595 14.343.594 11.368-.184 22.45-.886 32.937-3.5 4.22-1.145 8.17-2.41 11.657-4.47.934-.554 1.67-1.192 2.406-1.874v13.844c0 1.296-1.023 2.753-3.312 4.22-2.29 1.465-5.718 2.84-10 4-8.562 2.317-20.505 3.78-33.687 3.78s-25.125-1.462-33.687-3.78c-4.282-1.16-7.71-2.535-10-4-2.29-1.467-3.313-2.924-3.313-4.22z" fill="url(#m)"/><ellipse cx="1126.1554" cy="5.078407" fill="url(#j)" rx="47.00761" ry="12.00168"/><path id="aC" d="m1079.486 10.28v12.087c0 6.7 20.817 12.132 46.495 12.132 25.677 0 46.494-5.432 46.494-12.133v-12.027c-4.157 3.715-19.627 9.195-46.35 9.195-26.72 0-42.75-5.54-46.64-9.256z" fill="none" opacity=".5" stroke="#fff"/><ellipse cx="1125.7826" cy="5.020859" fill="none" opacity=".5" rx="46.491535" ry="11.501137" stroke="#fff" stroke-width="1.000908"/><use height="1085" transform="translate(0 18)" width="5033" xlink:href="#aC"/><use height="1085" transform="translate(0 36)" width="5033" xlink:href="#aC"/><path d="m468.9992 51.9986v3h14v-3zm16 0v3h15v-3zm17 0v3h15v-3zm17 0v3h14v-3zm-50 5v4h14v-4zm16 0v4h15v-4zm17 0v4h15v-4zm17 0v4h14v-4zm-50 6v4h14v-4zm16 0v4h15v-4zm17 0v4h15v-4zm17 0v4h14v-4zm-50 6v4h14v-4zm16 0v4h15v-4zm17 0v4h15v-4zm17 0v4h14v-4zm-50 6v4h14v-4zm16 0v4h15v-4zm17 0v4h15v-4zm17 0v4h14v-4zm-50 6v4h14v-4zm16 0v4h15v-4zm17 0v4h15v-4zm17 0v4h14v-4zm-50 6v4h14v-4zm16 0v4h15v-4zm17 0v4h15v-4zm17 0v4h14v-4zm-50 6v4h14v-4zm16 0v4h15v-4zm17 0v4h15v-4zm17 0v4h14v-4zm-50 6v4h14v-4zm16 0v4h15v-4zm17 0v4h15v-4zm17 0v4h14v-4zm-50 6v3h14v-3zm16 0v3h15v-3zm17 0v3h15v-3zm17 0v3h14v-3z" fill="url(#t)" opacity=".6"/><path d="m500.9992 58.9673c-6.6937 0-12.762.7304-17.2188 1.9375-2.2282.6036-4.0271 1.2932-5.375 2.1563-1.3477.863-2.375 1.9891-2.375 3.4375h-.031v26.5.5c0 1.3963.9899 2.5081 2.3438 3.375 1.3536.8669 3.2039 1.5826 5.4374 2.1875 4.4672 1.2098 10.5182 1.9375 17.2188 1.9375s12.7517-.7277 17.2188-1.9375c2.2335-.6049 4.0837-1.3206 5.4374-2.1875 1.3539-.8669 2.3438-1.9787 2.3438-3.375v-27h-.031c0-1.4484-1.0273-2.5745-2.375-3.4375-1.3478-.8631-3.1466-1.5527-5.375-2.1563-4.4568-1.2071-10.5251-1.9375-17.2188-1.9375zm0 2.0625c6.5612 0 12.5205.7295 16.75 1.875 2.1148.5728 3.7938 1.2452 4.875 1.9375 1.0811.6924 1.4062 1.3098 1.4062 1.6563s-.3251.9639-1.4062 1.6562c-1.0812.6924-2.7602 1.3648-4.875 1.9375-4.2295 1.1456-10.1888 1.875-16.75 1.875-6.5611 0-12.5205-.7294-16.75-1.875-2.1148-.5727-3.7939-1.2451-4.875-1.9375-1.0812-.6923-1.4063-1.3097-1.4062-1.6562 0-.3465.325-.9639 1.4062-1.6563 1.0811-.6923 2.7602-1.3647 4.875-1.9375 4.2295-1.1455 10.1889-1.875 16.75-1.875zm-23 8.5938c.1377.1.2601.2189.4062.3125 1.3479.863 3.1467 1.5527 5.375 2.1562 4.4568 1.207 10.5251 1.9375 17.2188 1.9375s12.762-.7305 17.2188-1.9375c2.2283-.6035 4.0272-1.2932 5.375-2.1562.1461-.094.2685-.2128.4062-.3125v5.375.5c0 .3986-.3624.9991-1.4375 1.6875s-2.7341 1.3661-4.8437 1.9375c-4.2193 1.1427-10.1646 1.875-16.7188 1.875s-12.4994-.7323-16.7188-1.875c-2.1096-.5714-3.7686-1.2491-4.8437-1.9375s-1.4375-1.2889-1.4375-1.6875v-.5zm0 9c .1172.083.22.1708.3438.25 1.3536.8669 3.2039 1.5826 5.4374 2.1875 4.4672 1.2098 10.5182 1.9375 17.2188 1.9375s12.7517-.7277 17.2188-1.9375c2.2335-.6049 4.0837-1.3206 5.4374-2.1875.1238-.079.2266-.1666.3438-.25v5.375.5c0 .3986-.3624.9991-1.4375 1.6875s-2.7341 1.3661-4.8437 1.9375c-4.2193 1.1427-10.1646 1.875-16.7188 1.875s-12.4994-.7323-16.7188-1.875c-2.1096-.5714-3.7686-1.2491-4.8437-1.9375s-1.4375-1.2889-1.4375-1.6875v-.5zm0 9c .1172.083.22.1708.3438.25 1.3536.8669 3.2039 1.5826 5.4374 2.1875 4.4672 1.2098 10.5182 1.9375 17.2188 1.9375s12.7517-.7277 17.2188-1.9375c2.2335-.6049 4.0837-1.3206 5.4374-2.1875.1238-.079.2266-.1666.3438-.25v5.375.5c0 .3986-.3624.9991-1.4375 1.6875s-2.7341 1.3661-4.8437 1.9375c-4.2193 1.1427-10.1646 1.875-16.7188 1.875s-12.4994-.7323-16.7188-1.875c-2.1096-.5714-3.7686-1.2491-4.8437-1.9375s-1.4375-1.2889-1.4375-1.6875v-.5z" fill="url(#s)"/><path d="m500.9992 58.9673c-6.6937 0-12.762.7304-17.2188 1.9375-2.2282.6036-4.0271 1.2932-5.375 2.1563-1.3477.863-2.4062 1.9891-2.4062 3.4375-.062 8.7636.0002 17.6812.0002 26.5v.5c0 1.3963.9899 2.5081 2.3438 3.375 1.3536.8669 3.2039 1.5826 5.4374 2.1875 4.4672 1.2098 10.5182 1.9375 17.2188 1.9375s12.7517-.7277 17.2188-1.9375c2.2335-.6049 4.0837-1.3206 5.4374-2.1875 1.3539-.8669 2.3438-1.9787 2.3438-3.375v-27c0-1.3529-1.3173-2.7252-2.406-3.4375-1.3478-.8631-3.1466-1.5527-5.375-2.1563-4.4568-1.2071-10.5251-1.9375-17.2188-1.9375zm0 2.0625c6.5612 0 12.5205.7295 16.75 1.875 2.1148.5728 3.7938 1.2452 4.875 1.9375 1.0811.6924 1.4062 1.3098 1.4062 1.6563s-.3251.9639-1.4062 1.6562c-1.0812.6924-2.7602 1.3648-4.875 1.9375-4.2295 1.1456-10.1888 1.875-16.75 1.875-6.5611 0-12.5205-.7294-16.75-1.875-2.1148-.5727-3.7939-1.2451-4.875-1.9375-1.0812-.6923-1.4063-1.3097-1.4062-1.6562 0-.3465.325-.9639 1.4062-1.6563 1.0811-.6923 2.7602-1.3647 4.875-1.9375 4.2295-1.1455 10.1889-1.875 16.75-1.875zm-23 8.5938c.1377.1.2601.2189.4062.3125 1.3479.863 3.1467 1.5527 5.375 2.1562 4.4568 1.207 10.5251 1.9375 17.2188 1.9375s12.762-.7305 17.2188-1.9375c2.2283-.6035 4.0272-1.2932 5.375-2.1562.1461-.094.2685-.2128.4062-.3125v5.375.5c0 .3986-.3624.9991-1.4375 1.6875s-2.7341 1.3661-4.8437 1.9375c-4.2193 1.1427-10.1646 1.875-16.7188 1.875s-12.4994-.7323-16.7188-1.875c-2.1096-.5714-3.7686-1.2491-4.8437-1.9375s-1.4375-1.2889-1.4375-1.6875v-.5zm0 9c .1172.083.22.1708.3438.25 1.3536.8669 3.2039 1.5826 5.4374 2.1875 4.4672 1.2098 10.5182 1.9375 17.2188 1.9375s12.7517-.7277 17.2188-1.9375c2.2335-.6049 4.0837-1.3206 5.4374-2.1875.1238-.079.2266-.1666.3438-.25v5.375.5c0 .3986-.3624.9991-1.4375 1.6875s-2.7341 1.3661-4.8437 1.9375c-4.2193 1.1427-10.1646 1.875-16.7188 1.875s-12.4994-.7323-16.7188-1.875c-2.1096-.5714-3.7686-1.2491-4.8437-1.9375s-1.4375-1.2889-1.4375-1.6875v-.5zm0 9c .1172.083.22.1708.3438.25 1.3536.8669 3.2039 1.5826 5.4374 2.1875 4.4672 1.2098 10.5182 1.9375 17.2188 1.9375s12.7517-.7277 17.2188-1.9375c2.2335-.6049 4.0837-1.3206 5.4374-2.1875.1238-.079.2266-.1666.3438-.25v5.375.5c0 .3986-.3624.9991-1.4375 1.6875s-2.7341 1.3661-4.8437 1.9375c-4.2193 1.1427-10.1646 1.875-16.7188 1.875s-12.4994-.7323-16.7188-1.875c-2.1096-.5714-3.7686-1.2491-4.8437-1.9375s-1.4375-1.2889-1.4375-1.6875v-.5z" fill="none" opacity=".5" stroke="#fff" stroke-width="2"/><path d="m476.9992 84.9986v8 .5c0 3.5898 10.7452 6.5 24 6.5s24-2.9102 24-6.5v-.5-8z" fill="url(#u)"/><path d="m476.9992 75.9986v8 .5c0 3.5898 10.7452 6.5 24 6.5s24-2.9102 24-6.5v-.5-8z" fill="url(#u)"/><path d="m524.9992 67.4986v7.5.5c0 3.5898-10.7452 6.5-24 6.5s-24-2.9102-24-6.5v-.5-7.5z" fill="url(#u)"/><path id="aD" d="m478.4992 70.4986v4.0657.4239c0 3.0433 9.8483 5.5104 21.9969 5.5104s23.0031-2.4671 23.0031-5.5104v-.4239-4.0381c-1.9668 1.6873-10.2916 4.1764-22.9341 4.1764-12.6424 0-20.226-2.5166-22.0659-4.204z" fill="none" opacity=".35" stroke="#fff"/><ellipse cx="500.99689" cy="66.499573" fill="url(#r)" rx="23.499916" ry="6.000028"/><path d="m500.9992 61.02765c-6.5611 0-12.5205.7295-16.75 1.875-2.1148.5728-3.7939 1.2452-4.875 1.9375-1.0812.6924-1.4062 1.30975-1.4062 1.65625-.0001.3465.325.96395 1.4062 1.65625 1.0811.6924 2.7602 1.3648 4.875 1.9375 4.2295 1.1456 10.1889 1.875 16.75 1.875 6.5612 0 12.5205-.7294 16.75-1.875 2.1148-.5727 3.7938-1.2451 4.875-1.9375 1.0811-.6923 1.4062-1.30975 1.4062-1.65625s-.3251-.96385-1.4062-1.65625c-1.0812-.6923-2.7602-1.3647-4.875-1.9375-4.2295-1.1455-10.1888-1.875-16.75-1.875zm0 .96875c6.1251 0 11.6766.58855 15.625 1.53125 1.9741.4712 3.5533 1.02435 4.5625 1.59375 1.0094.57 1.3125 1.0898 1.3125 1.375s-.3031.8051-1.3125 1.375c-1.0092.5695-2.5884 1.12265-4.5625 1.59375-3.9484.9427-9.4999 1.53125-15.625 1.53125-6.125 0-11.6766-.58855-15.625-1.53125-1.9742-.4711-3.5534-1.02425-4.5625-1.59375-1.0095-.5699-1.3126-1.0898-1.3125-1.375 0-.2852.303-.805 1.3125-1.375 1.0091-.5694 2.5883-1.12255 4.5625-1.59375 3.9484-.9427 9.5-1.53125 15.625-1.53125z" fill="#fff" opacity=".25"/><use height="1085" transform="translate(0 9)" width="5033" xlink:href="#aD"/><use height="1085" transform="translate(0 18)" width="5033" xlink:href="#aD"/><path d="m500.9992 58.9673c-6.6937 0-12.762.7304-17.2188 1.9375-2.2282.6036-4.0271 1.2932-5.375 2.1563-1.3477.863-2.4062 1.9891-2.4062 3.4375-.062 8.7636.0002 17.6812.0002 26.5v.5c0 1.3963.9899 2.5081 2.3438 3.375 1.3536.8669 3.2039 1.5826 5.4374 2.1875 4.4672 1.2098 10.5182 1.9375 17.2188 1.9375s12.7517-.7277 17.2188-1.9375c2.2335-.6049 4.0837-1.3206 5.4374-2.1875 1.3539-.8669 2.3438-1.9787 2.3438-3.375v-27c0-1.3529-1.3173-2.7252-2.406-3.4375-1.3478-.8631-3.1466-1.5527-5.375-2.1563-4.4568-1.2071-10.5251-1.9375-17.2188-1.9375zm0 2.0625c6.5612 0 12.5205.7295 16.75 1.875 2.1148.5728 3.7938 1.2452 4.875 1.9375 1.0811.6924 1.4062 1.3098 1.4062 1.6563s-.3251.9639-1.4062 1.6562c-1.0812.6924-2.7602 1.3648-4.875 1.9375-4.2295 1.1456-10.1888 1.875-16.75 1.875-6.5611 0-12.5205-.7294-16.75-1.875-2.1148-.5727-3.7939-1.2451-4.875-1.9375-1.0812-.6923-1.4063-1.3097-1.4062-1.6562 0-.3465.325-.9639 1.4062-1.6563 1.0811-.6923 2.7602-1.3647 4.875-1.9375 4.2295-1.1455 10.1889-1.875 16.75-1.875zm-23 8.5938c.1377.1.2601.2189.4062.3125 1.3479.863 3.1467 1.5527 5.375 2.1562 4.4568 1.207 10.5251 1.9375 17.2188 1.9375s12.762-.7305 17.2188-1.9375c2.2283-.6035 4.0272-1.2932 5.375-2.1562.1461-.094.2685-.2128.4062-.3125v5.375.5c0 .3986-.3624.9991-1.4375 1.6875s-2.7341 1.3661-4.8437 1.9375c-4.2193 1.1427-10.1646 1.875-16.7188 1.875s-12.4994-.7323-16.7188-1.875c-2.1096-.5714-3.7686-1.2491-4.8437-1.9375s-1.4375-1.2889-1.4375-1.6875v-.5zm0 9c .1172.083.22.1708.3438.25 1.3536.8669 3.2039 1.5826 5.4374 2.1875 4.4672 1.2098 10.5182 1.9375 17.2188 1.9375s12.7517-.7277 17.2188-1.9375c2.2335-.6049 4.0837-1.3206 5.4374-2.1875.1238-.079.2266-.1666.3438-.25v5.375.5c0 .3986-.3624.9991-1.4375 1.6875s-2.7341 1.3661-4.8437 1.9375c-4.2193 1.1427-10.1646 1.875-16.7188 1.875s-12.4994-.7323-16.7188-1.875c-2.1096-.5714-3.7686-1.2491-4.8437-1.9375s-1.4375-1.2889-1.4375-1.6875v-.5zm0 9c .1172.083.22.1708.3438.25 1.3536.8669 3.2039 1.5826 5.4374 2.1875 4.4672 1.2098 10.5182 1.9375 17.2188 1.9375s12.7517-.7277 17.2188-1.9375c2.2335-.6049 4.0837-1.3206 5.4374-2.1875.1238-.079.2266-.1666.3438-.25v5.375.5c0 .3986-.3624.9991-1.4375 1.6875s-2.7341 1.3661-4.8437 1.9375c-4.2193 1.1427-10.1646 1.875-16.7188 1.875s-12.4994-.7323-16.7188-1.875c-2.1096-.5714-3.7686-1.2491-4.8437-1.9375s-1.4375-1.2889-1.4375-1.6875v-.5z" fill="url(#q)"/><path d="m601.99935 51.9986v3h14v-3zm16 0v3h15v-3zm17 0v3h15v-3zm17 0v3h14v-3zm-50 5v4h14v-4zm16 0v4h15v-4zm17 0v4h15v-4zm17 0v4h14v-4zm-50 6v4h14v-4zm16 0v4h15v-4zm17 0v4h15v-4zm17 0v4h14v-4zm-50 6v4h14v-4zm16 0v4h15v-4zm17 0v4h15v-4zm17 0v4h14v-4zm-50 6v4h14v-4zm16 0v4h15v-4zm17 0v4h15v-4zm17 0v4h14v-4zm-50 6v4h14v-4zm16 0v4h15v-4zm17 0v4h15v-4zm17 0v4h14v-4zm-50 6v4h14v-4zm16 0v4h15v-4zm17 0v4h15v-4zm17 0v4h14v-4zm-50 6v4h14v-4zm16 0v4h15v-4zm17 0v4h15v-4zm17 0v4h14v-4zm-50 6v4h14v-4zm16 0v4h15v-4zm17 0v4h15v-4zm17 0v4h14v-4zm-50 6v3h14v-3zm16 0v3h15v-3zm17 0v3h15v-3zm17 0v3h14v-3z" fill="url(#p)" opacity=".6"/><path d="m633.99935 58.9673c-6.6937 0-12.762.7304-17.2188 1.9375-2.2282.6036-4.0271 1.2932-5.375 2.1563-1.3477.863-2.375 1.9891-2.375 3.4375h-.031v26.5.5c0 1.3963.9899 2.5081 2.3438 3.375 1.3536.8669 3.2039 1.5826 5.4374 2.1875 4.4672 1.2098 10.5182 1.9375 17.2188 1.9375s12.7517-.7277 17.2188-1.9375c2.2335-.6049 4.0837-1.3206 5.4374-2.1875 1.3539-.8669 2.3438-1.9787 2.3438-3.375v-27h-.031c0-1.4484-1.0273-2.5745-2.375-3.4375-1.3478-.8631-3.1466-1.5527-5.375-2.1563-4.4568-1.2071-10.5251-1.9375-17.2188-1.9375zm0 2.0625c6.5612 0 12.5205.7295 16.75 1.875 2.1148.5728 3.7938 1.2452 4.875 1.9375 1.0811.6924 1.4062 1.3098 1.4062 1.6563s-.3251.9639-1.4062 1.6562c-1.0812.6924-2.7602 1.3648-4.875 1.9375-4.2295 1.1456-10.1888 1.875-16.75 1.875-6.5611 0-12.5205-.7294-16.75-1.875-2.1148-.5727-3.7939-1.2451-4.875-1.9375-1.0812-.6923-1.4063-1.3097-1.4062-1.6562 0-.3465.325-.9639 1.4062-1.6563 1.0811-.6923 2.7602-1.3647 4.875-1.9375 4.2295-1.1455 10.1889-1.875 16.75-1.875zm-23 8.5938c.1377.1.2601.2189.4062.3125 1.3479.863 3.1467 1.5527 5.375 2.1562 4.4568 1.207 10.5251 1.9375 17.2188 1.9375s12.762-.7305 17.2188-1.9375c2.2283-.6035 4.0272-1.2932 5.375-2.1562.1461-.094.2685-.2128.4062-.3125v5.375.5c0 .3986-.3624.9991-1.4375 1.6875s-2.7341 1.3661-4.8437 1.9375c-4.2193 1.1427-10.1646 1.875-16.7188 1.875s-12.4994-.7323-16.7188-1.875c-2.1096-.5714-3.7686-1.2491-4.8437-1.9375s-1.4375-1.2889-1.4375-1.6875v-.5zm0 9c .1172.083.22.1708.3438.25 1.3536.8669 3.2039 1.5826 5.4374 2.1875 4.4672 1.2098 10.5182 1.9375 17.2188 1.9375s12.7517-.7277 17.2188-1.9375c2.2335-.6049 4.0837-1.3206 5.4374-2.1875.1238-.079.2266-.1666.3438-.25v5.375.5c0 .3986-.3624.9991-1.4375 1.6875s-2.7341 1.3661-4.8437 1.9375c-4.2193 1.1427-10.1646 1.875-16.7188 1.875s-12.4994-.7323-16.7188-1.875c-2.1096-.5714-3.7686-1.2491-4.8437-1.9375s-1.4375-1.2889-1.4375-1.6875v-.5zm0 9c .1172.083.22.1708.3438.25 1.3536.8669 3.2039 1.5826 5.4374 2.1875 4.4672 1.2098 10.5182 1.9375 17.2188 1.9375s12.7517-.7277 17.2188-1.9375c2.2335-.6049 4.0837-1.3206 5.4374-2.1875.1238-.079.2266-.1666.3438-.25v5.375.5c0 .3986-.3624.9991-1.4375 1.6875s-2.7341 1.3661-4.8437 1.9375c-4.2193 1.1427-10.1646 1.875-16.7188 1.875s-12.4994-.7323-16.7188-1.875c-2.1096-.5714-3.7686-1.2491-4.8437-1.9375s-1.4375-1.2889-1.4375-1.6875v-.5z" fill="url(#o)"/><path d="m633.99935 58.9673c-6.6937 0-12.762.7304-17.2188 1.9375-2.2282.6036-4.0271 1.2932-5.375 2.1563-1.3477.863-2.4062 1.9891-2.4062 3.4375-.062 8.7636.0002 17.6812.0002 26.5v.5c0 1.3963.9899 2.5081 2.3438 3.375 1.3536.8669 3.2039 1.5826 5.4374 2.1875 4.4672 1.2098 10.5182 1.9375 17.2188 1.9375s12.7517-.7277 17.2188-1.9375c2.2335-.6049 4.0837-1.3206 5.4374-2.1875 1.3539-.8669 2.3438-1.9787 2.3438-3.375v-27c0-1.3529-1.3173-2.7252-2.406-3.4375-1.3478-.8631-3.1466-1.5527-5.375-2.1563-4.4568-1.2071-10.5251-1.9375-17.2188-1.9375zm0 2.0625c6.5612 0 12.5205.7295 16.75 1.875 2.1148.5728 3.7938 1.2452 4.875 1.9375 1.0811.6924 1.4062 1.3098 1.4062 1.6563s-.3251.9639-1.4062 1.6562c-1.0812.6924-2.7602 1.3648-4.875 1.9375-4.2295 1.1456-10.1888 1.875-16.75 1.875-6.5611 0-12.5205-.7294-16.75-1.875-2.1148-.5727-3.7939-1.2451-4.875-1.9375-1.0812-.6923-1.4063-1.3097-1.4062-1.6562 0-.3465.325-.9639 1.4062-1.6563 1.0811-.6923 2.7602-1.3647 4.875-1.9375 4.2295-1.1455 10.1889-1.875 16.75-1.875zm-23 8.5938c.1377.1.2601.2189.4062.3125 1.3479.863 3.1467 1.5527 5.375 2.1562 4.4568 1.207 10.5251 1.9375 17.2188 1.9375s12.762-.7305 17.2188-1.9375c2.2283-.6035 4.0272-1.2932 5.375-2.1562.1461-.094.2685-.2128.4062-.3125v5.375.5c0 .3986-.3624.9991-1.4375 1.6875s-2.7341 1.3661-4.8437 1.9375c-4.2193 1.1427-10.1646 1.875-16.7188 1.875s-12.4994-.7323-16.7188-1.875c-2.1096-.5714-3.7686-1.2491-4.8437-1.9375s-1.4375-1.2889-1.4375-1.6875v-.5zm0 9c .1172.083.22.1708.3438.25 1.3536.8669 3.2039 1.5826 5.4374 2.1875 4.4672 1.2098 10.5182 1.9375 17.2188 1.9375s12.7517-.7277 17.2188-1.9375c2.2335-.6049 4.0837-1.3206 5.4374-2.1875.1238-.079.2266-.1666.3438-.25v5.375.5c0 .3986-.3624.9991-1.4375 1.6875s-2.7341 1.3661-4.8437 1.9375c-4.2193 1.1427-10.1646 1.875-16.7188 1.875s-12.4994-.7323-16.7188-1.875c-2.1096-.5714-3.7686-1.2491-4.8437-1.9375s-1.4375-1.2889-1.4375-1.6875v-.5zm0 9c .1172.083.22.1708.3438.25 1.3536.8669 3.2039 1.5826 5.4374 2.1875 4.4672 1.2098 10.5182 1.9375 17.2188 1.9375s12.7517-.7277 17.2188-1.9375c2.2335-.6049 4.0837-1.3206 5.4374-2.1875.1238-.079.2266-.1666.3438-.25v5.375.5c0 .3986-.3624.9991-1.4375 1.6875s-2.7341 1.3661-4.8437 1.9375c-4.2193 1.1427-10.1646 1.875-16.7188 1.875s-12.4994-.7323-16.7188-1.875c-2.1096-.5714-3.7686-1.2491-4.8437-1.9375s-1.4375-1.2889-1.4375-1.6875v-.5z" fill="none" opacity=".5" stroke="#fff" stroke-width="2"/><path d="m610 67.498047v7.5.5c0 .167878.03001.335322.07617.5h-.07617v8 .5c0 .167878.03001.335322.07617.5h-.07617v8 .5c0 3.5898 10.7452 6.5 24 6.5s24-2.9102 24-6.5v-.5-8h-.07812c.0462-.164761.07812-.332035.07812-.5v-.5-8h-.07812c.0462-.164761.07812-.332035.07812-.5v-.5-7.5z" fill="url(#w)"/><path id="aE" d="m611.49935 70.4986v4.0657.4239c0 3.0433 9.8483 5.5104 21.9969 5.5104s23.0031-2.4671 23.0031-5.5104v-.4239-4.0381c-1.9668 1.6873-10.2916 4.1764-22.9341 4.1764-12.6424 0-20.226-2.5166-22.0659-4.204z" fill="none" opacity=".35" stroke="#fff"/><ellipse cx="633.99701" cy="66.499573" fill="url(#v)" rx="23.499916" ry="6.000028"/><path d="m633.99935 61.02765c-6.5611 0-12.5205.7295-16.75 1.875-2.1148.5728-3.7939 1.2452-4.875 1.9375-1.0812.6924-1.4062 1.30975-1.4062 1.65625-.0001.3465.325.96395 1.4062 1.65625 1.0811.6924 2.7602 1.3648 4.875 1.9375 4.2295 1.1456 10.1889 1.875 16.75 1.875 6.5612 0 12.5205-.7294 16.75-1.875 2.1148-.5727 3.7938-1.2451 4.875-1.9375 1.0811-.6923 1.4062-1.30975 1.4062-1.65625s-.3251-.96385-1.4062-1.65625c-1.0812-.6923-2.7602-1.3647-4.875-1.9375-4.2295-1.1455-10.1888-1.875-16.75-1.875zm0 .96875c6.1251 0 11.6766.58855 15.625 1.53125 1.9741.4712 3.5533 1.02435 4.5625 1.59375 1.0094.57 1.3125 1.0898 1.3125 1.375s-.3031.8051-1.3125 1.375c-1.0092.5695-2.5884 1.12265-4.5625 1.59375-3.9484.9427-9.4999 1.53125-15.625 1.53125-6.125 0-11.6766-.58855-15.625-1.53125-1.9742-.4711-3.5534-1.02425-4.5625-1.59375-1.0095-.5699-1.3126-1.0898-1.3125-1.375 0-.2852.303-.805 1.3125-1.375 1.0091-.5694 2.5883-1.12255 4.5625-1.59375 3.9484-.9427 9.5-1.53125 15.625-1.53125z" fill="#fff" opacity=".25"/><use height="1085" transform="translate(0 9)" width="5033" xlink:href="#aE"/><use height="1085" transform="translate(0 18)" width="5033" xlink:href="#aE"/><path d="m633.99935 58.9673c-6.6937 0-12.762.7304-17.2188 1.9375-2.2282.6036-4.0271 1.2932-5.375 2.1563-1.3477.863-2.4062 1.9891-2.4062 3.4375-.062 8.7636.0002 17.6812.0002 26.5v.5c0 1.3963.9899 2.5081 2.3438 3.375 1.3536.8669 3.2039 1.5826 5.4374 2.1875 4.4672 1.2098 10.5182 1.9375 17.2188 1.9375s12.7517-.7277 17.2188-1.9375c2.2335-.6049 4.0837-1.3206 5.4374-2.1875 1.3539-.8669 2.3438-1.9787 2.3438-3.375v-27c0-1.3529-1.3173-2.7252-2.406-3.4375-1.3478-.8631-3.1466-1.5527-5.375-2.1563-4.4568-1.2071-10.5251-1.9375-17.2188-1.9375zm0 2.0625c6.5612 0 12.5205.7295 16.75 1.875 2.1148.5728 3.7938 1.2452 4.875 1.9375 1.0811.6924 1.4062 1.3098 1.4062 1.6563s-.3251.9639-1.4062 1.6562c-1.0812.6924-2.7602 1.3648-4.875 1.9375-4.2295 1.1456-10.1888 1.875-16.75 1.875-6.5611 0-12.5205-.7294-16.75-1.875-2.1148-.5727-3.7939-1.2451-4.875-1.9375-1.0812-.6923-1.4063-1.3097-1.4062-1.6562 0-.3465.325-.9639 1.4062-1.6563 1.0811-.6923 2.7602-1.3647 4.875-1.9375 4.2295-1.1455 10.1889-1.875 16.75-1.875zm-23 8.5938c.1377.1.2601.2189.4062.3125 1.3479.863 3.1467 1.5527 5.375 2.1562 4.4568 1.207 10.5251 1.9375 17.2188 1.9375s12.762-.7305 17.2188-1.9375c2.2283-.6035 4.0272-1.2932 5.375-2.1562.1461-.094.2685-.2128.4062-.3125v5.375.5c0 .3986-.3624.9991-1.4375 1.6875s-2.7341 1.3661-4.8437 1.9375c-4.2193 1.1427-10.1646 1.875-16.7188 1.875s-12.4994-.7323-16.7188-1.875c-2.1096-.5714-3.7686-1.2491-4.8437-1.9375s-1.4375-1.2889-1.4375-1.6875v-.5zm0 9c .1172.083.22.1708.3438.25 1.3536.8669 3.2039 1.5826 5.4374 2.1875 4.4672 1.2098 10.5182 1.9375 17.2188 1.9375s12.7517-.7277 17.2188-1.9375c2.2335-.6049 4.0837-1.3206 5.4374-2.1875.1238-.079.2266-.1666.3438-.25v5.375.5c0 .3986-.3624.9991-1.4375 1.6875s-2.7341 1.3661-4.8437 1.9375c-4.2193 1.1427-10.1646 1.875-16.7188 1.875s-12.4994-.7323-16.7188-1.875c-2.1096-.5714-3.7686-1.2491-4.8437-1.9375s-1.4375-1.2889-1.4375-1.6875v-.5zm0 9c .1172.083.22.1708.3438.25 1.3536.8669 3.2039 1.5826 5.4374 2.1875 4.4672 1.2098 10.5182 1.9375 17.2188 1.9375s12.7517-.7277 17.2188-1.9375c2.2335-.6049 4.0837-1.3206 5.4374-2.1875.1238-.079.2266-.1666.3438-.25v5.375.5c0 .3986-.3624.9991-1.4375 1.6875s-2.7341 1.3661-4.8437 1.9375c-4.2193 1.1427-10.1646 1.875-16.7188 1.875s-12.4994-.7323-16.7188-1.875c-2.1096-.5714-3.7686-1.2491-4.8437-1.9375s-1.4375-1.2889-1.4375-1.6875v-.5z" fill="url(#x)"/><path d="m47 116a5 2 0 0 0 -5 2v4a5 2 0 0 0 5 2 5 2 0 0 0 5-2v-4a5 2 0 0 0 -5-2zm0 1a4 1 0 0 1 4 1 4 1 0 0 1 -4 1 4 1 0 0 1 -4-1 4 1 0 0 1 4-1zm-4 2.19531a5 2 0 0 0 4 .80469 5 2 0 0 0 4-.80273v1.60742 1.19531a4 1 0 0 1 -4 1 4 1 0 0 1 -4-1v-1.19727z" fill="url(#F)"/><path d="m71 116a5 2 0 0 0 -5 2v4a5 2 0 0 0 5 2 5 2 0 0 0 5-2v-4a5 2 0 0 0 -5-2zm0 1a4 1 0 0 1 4 1 4 1 0 0 1 -4 1 4 1 0 0 1 -4-1 4 1 0 0 1 4-1zm-4 2.19531a5 2 0 0 0 4 .80469 5 2 0 0 0 4-.80273v1.60742 1.19531a4 1 0 0 1 -4 1 4 1 0 0 1 -4-1v-1.19727z" fill="url(#G)"/><path d="m96 114a6 3 0 0 0 -6 3v4a6 3 0 0 0 6 3 6 3 0 0 0 6-3v-4a6 3 0 0 0 -6-3zm0 1a5 2 0 0 1 5 2 5 2 0 0 1 -5 2 5 2 0 0 1 -5-2 5 2 0 0 1 5-2zm-5 3.6543a6 3 0 0 0 5 1.3457 6 3 0 0 0 5-1.3457v2.3457a5 2 0 0 1 -5 2 5 2 0 0 1 -5-2z" fill="url(#H)"/><path d="m122 114a6 3 0 0 0 -6 3v4a6 3 0 0 0 6 3 6 3 0 0 0 6-3v-4a6 3 0 0 0 -6-3zm0 1a5 2 0 0 1 5 2 5 2 0 0 1 -5 2 5 2 0 0 1 -5-2 5 2 0 0 1 5-2zm-5 3.6543a6 3 0 0 0 5 1.3457 6 3 0 0 0 5-1.3457v2.3457a5 2 0 0 1 -5 2 5 2 0 0 1 -5-2z" fill="url(#I)"/><path d="m336 90a16 6 0 0 0 -16 6v18a16 6 0 0 0 16 6 16 6 0 0 0 16-6v-18a16 6 0 0 0 -16-6zm0 1.091797a15 4.9090909 0 0 1 15 4.908203 15 4.9090909 0 0 1 -15 4.9082 15 4.9090909 0 0 1 -15-4.9082 15 4.9090909 0 0 1 15-4.908203zm-15 6.974609a16 6 0 0 0 15 3.933594 16 6 0 0 0 15-3.925781v3.925781a15 4.9090909 0 0 1 -15 4.9082 15 4.9090909 0 0 1 -15-4.9082zm0 6.000004a16 6 0 0 0 15 3.93359 16 6 0 0 0 15-3.92578v3.92578a15 4.9090909 0 0 1 -15 4.9082 15 4.9090909 0 0 1 -15-4.9082zm0 6a16 6 0 0 0 15 3.93359 16 6 0 0 0 15-3.92578v3.92578a15 4.9090909 0 0 1 -15 4.9082 15 4.9090909 0 0 1 -15-4.9082z" fill="url(#J)"/><path d="m402 90a16 6 0 0 0 -16 6v18a16 6 0 0 0 16 6 16 6 0 0 0 16-6v-18a16 6 0 0 0 -16-6zm0 1.091797a15 4.9090909 0 0 1 15 4.908203 15 4.9090909 0 0 1 -15 4.9082 15 4.9090909 0 0 1 -15-4.9082 15 4.9090909 0 0 1 15-4.908203zm-15 6.974609a16 6 0 0 0 15 3.933594 16 6 0 0 0 15-3.925781v3.925781a15 4.9090909 0 0 1 -15 4.9082 15 4.9090909 0 0 1 -15-4.9082zm0 6.000004a16 6 0 0 0 15 3.93359 16 6 0 0 0 15-3.92578v3.92578a15 4.9090909 0 0 1 -15 4.9082 15 4.9090909 0 0 1 -15-4.9082zm0 6a16 6 0 0 0 15 3.93359 16 6 0 0 0 15-3.92578v3.92578a15 4.9090909 0 0 1 -15 4.9082 15 4.9090909 0 0 1 -15-4.9082z" fill="url(#K)"/><g transform="matrix(1.9996875 0 0 1.9996875 -1211.5709 3028.8102)"><text x="382.125" y="-1109.14"/><path d="m1309-1602.638v6h28v-6zm32 0v6h30v-6zm34 0v6h30v-6zm34 0v6h28v-6zm-100 10v8h28v-8zm32 0v8h30v-8zm34 0v8h30v-8zm34 0v8h28v-8zm-100 12v8h28v-8zm32 0v8h30v-8zm34 0v8h30v-8zm34 0v8h28v-8zm-100 12v8h28v-8zm32 0v8h30v-8zm34 0v8h30v-8zm34 0v8h28v-8zm-100 12v8h28v-8zm32 0v8h30v-8zm34 0v8h30v-8zm34 0v8h28v-8zm-100 12v8h28v-8zm32 0v8h30v-8zm34 0v8h30v-8zm34 0v8h28v-8zm-100 12v8h28v-8zm32 0v8h30v-8zm34 0v8h30v-8zm34 0v8h28v-8zm-100 12v8h28v-8zm32 0v8h30v-8zm34 0v8h30v-8zm34 0v8h28v-8zm-100 12v8h28v-8zm32 0v8h30v-8zm34 0v8h30v-8zm34 0v8h28v-8zm-100 12v6h28v-6zm32 0v6h30v-6zm34 0v6h30v-6zm34 0v6h28v-6z" fill="url(#N)" opacity=".6"/><path d="m1338.867-1582.857c-4.423 1.106-8 2.64-10.563 4.282-2.562 1.64-4.21 3.59-4.22 5.937-.077 19.65-.06 38.386-.06 54 0 2.294 1.65 4.262 4.218 5.906 2.568 1.645 6.19 3.057 10.594 4.25 8.81 2.386 20.86 3.844 34.187 3.844 13.328 0 25.378-1.458 34.188-3.844 4.406-1.193 8.026-2.605 10.595-4.25 2.568-1.644 4.196-3.623 4.196-5.917v-54c0-2.345-1.695-4.285-4.257-5.925-2.563-1.64-6.163-3.09-10.563-4.282-8.8-2.383-20.826-3.78-34.156-3.78-13.42 0-24.7 1.417-34.157 3.78zm34.156-1.78c13.188-.025 25.115 1.46 33.687 3.78 4.287 1.16 7.736 2.593 10.032 4.063 2.295 1.47 3.46 2.918 3.343 4.156-.21 2.205-2.578 3.735-4.25 4.688-2.71 1.545-5.95 2.71-8.874 3.468-9.98 2.59-19.947 3.535-29.53 3.78-13.262.214-26.41-.73-38.532-3.84-2.813-.735-5.25-1.64-7.656-2.845-2.16-1.083-5.063-2.882-5.28-5.25-.118-1.273 1.047-2.686 3.343-4.156s5.697-3.094 10.03-4.062c11.927-2.665 23.656-3.764 33.688-3.783zm-47 16.124c.633.635 1.392 1.273 2.28 1.813 3.29 1.996 7.31 3.487 10.564 4.28 13.105 3.04 26.117 4.087 38.625 3.72 10.112-.32 20.32-1.07 29.687-3.72 4.634-1.31 9.564-2.895 12.843-6.093v12.875c0 .582 0 1.22-.125 1.72-.273 1.104-1.37 2.436-3.344 3.593-3.264 1.91-6.84 3.083-10 3.937-11.23 2.74-22.915 3.735-33.53 3.75-11.457-.088-23.537-1.125-33.688-3.78-4.357-1.376-8.725-2.563-11.875-5.47-.724-.677-1.133-1.406-1.31-2.03-.163-.567-.125-1.123-.125-1.72v-12.875zm0 18.03c.388.385.835.766 1.312 1.126 3.833 2.65 8.6 4.188 12.75 5.22 11.482 2.606 21.65 3.477 32.938 3.5 11.353-.234 22.474-.815 32.937-3.5 3.705-.967 7.68-2.386 10.688-3.907 1.144-.58 2.937-2.034 3.375-2.438v12.844c0 .582 0 1.22-.125 1.72-.273 1.104-1.402 2.38-3.344 3.592-4.288 2.516-9.373 3.904-13.843 4.875-10.388 2.016-19.908 2.798-29.687 2.812-4.946 0-9.71-.172-14.187-.594-10.05-1.23-18.982-2.152-27.5-6.063-1.452-.672-2.796-1.603-3.875-2.593-.73-.67-1.116-1.41-1.31-2.03-.076-.24-.124-.504-.125-.72-.035-4.614 0-9.23 0-13.844zm0 18c1.566 1.542 3.638 2.706 5.53 3.502 8.676 3.596 18.944 5.06 27.126 5.748 4.934.406 9.77.595 14.343.594 11.368-.184 22.45-.886 32.937-3.5 4.22-1.145 8.17-2.41 11.657-4.47.934-.554 1.67-1.192 2.406-1.874v13.844c0 1.296-1.023 2.753-3.312 4.22-2.29 1.465-5.718 2.84-10 4-8.562 2.317-20.505 3.78-33.687 3.78s-25.125-1.462-33.687-3.78c-4.282-1.16-7.71-2.535-10-4-2.29-1.467-3.313-2.924-3.313-4.22z" fill="none" opacity=".5" stroke="#fff" stroke-width="2"/><path d="m1325-1570.638v52c0 7.18 21.49 13 48 13s48-5.82 48-13v-52z" fill="url(#L)"/><path d="m1338.867-1582.857c-4.423 1.106-8 2.64-10.563 4.282-2.562 1.64-4.21 3.59-4.22 5.937-.077 19.65-.06 38.386-.06 54 0 2.294 1.65 4.262 4.218 5.906 2.568 1.645 6.19 3.057 10.594 4.25 8.81 2.386 20.86 3.844 34.187 3.844 13.328 0 25.378-1.458 34.188-3.844 4.406-1.193 8.026-2.605 10.595-4.25 2.568-1.644 4.196-3.623 4.196-5.917v-54c0-2.345-1.695-4.285-4.257-5.925-2.563-1.64-6.163-3.09-10.563-4.282-8.8-2.383-20.826-3.78-34.156-3.78-13.42 0-24.7 1.417-34.157 3.78zm34.156-1.78c13.188-.025 25.115 1.46 33.687 3.78 4.287 1.16 7.736 2.593 10.032 4.063 2.295 1.47 3.46 2.918 3.343 4.156-.21 2.205-2.578 3.735-4.25 4.688-2.71 1.545-5.95 2.71-8.874 3.468-9.98 2.59-19.947 3.535-29.53 3.78-13.262.214-26.41-.73-38.532-3.84-2.813-.735-5.25-1.64-7.656-2.845-2.16-1.083-5.063-2.882-5.28-5.25-.118-1.273 1.047-2.686 3.343-4.156s5.697-3.094 10.03-4.062c11.927-2.665 23.656-3.764 33.688-3.783zm-47 16.124c.633.635 1.392 1.273 2.28 1.813 3.29 1.996 7.31 3.487 10.564 4.28 13.105 3.04 26.117 4.087 38.625 3.72 10.112-.32 20.32-1.07 29.687-3.72 4.634-1.31 9.564-2.895 12.843-6.093v12.875c0 .582 0 1.22-.125 1.72-.273 1.104-1.37 2.436-3.344 3.593-3.264 1.91-6.84 3.083-10 3.937-11.23 2.74-22.915 3.735-33.53 3.75-11.457-.088-23.537-1.125-33.688-3.78-4.357-1.376-8.725-2.563-11.875-5.47-.724-.677-1.133-1.406-1.31-2.03-.163-.567-.125-1.123-.125-1.72v-12.875zm0 18.03c.388.385.835.766 1.312 1.126 3.833 2.65 8.6 4.188 12.75 5.22 11.482 2.606 21.65 3.477 32.938 3.5 11.353-.234 22.474-.815 32.937-3.5 3.705-.967 7.68-2.386 10.688-3.907 1.144-.58 2.937-2.034 3.375-2.438v12.844c0 .582 0 1.22-.125 1.72-.273 1.104-1.402 2.38-3.344 3.592-4.288 2.516-9.373 3.904-13.843 4.875-10.388 2.016-19.908 2.798-29.687 2.812-4.946 0-9.71-.172-14.187-.594-10.05-1.23-18.982-2.152-27.5-6.063-1.452-.672-2.796-1.603-3.875-2.593-.73-.67-1.116-1.41-1.31-2.03-.076-.24-.124-.504-.125-.72-.035-4.614 0-9.23 0-13.844zm0 18c1.566 1.542 3.638 2.706 5.53 3.502 8.676 3.596 18.944 5.06 27.126 5.748 4.934.406 9.77.595 14.343.594 11.368-.184 22.45-.886 32.937-3.5 4.22-1.145 8.17-2.41 11.657-4.47.934-.554 1.67-1.192 2.406-1.874v13.844c0 1.296-1.023 2.753-3.312 4.22-2.29 1.465-5.718 2.84-10 4-8.562 2.317-20.505 3.78-33.687 3.78s-25.125-1.462-33.687-3.78c-4.282-1.16-7.71-2.535-10-4-2.29-1.467-3.313-2.924-3.313-4.22z" fill="url(#N)"/><ellipse cx="1373.1533" cy="-1572.5596" fill="url(#M)" rx="47.00761" ry="12.00168"/><path id="aF" d="m1326.484-1567.358v12.087c0 6.7 20.817 12.132 46.495 12.132 25.677 0 46.494-5.432 46.494-12.133v-12.027c-4.157 3.715-19.627 9.195-46.35 9.195-26.72 0-42.75-5.54-46.64-9.256z" fill="none" opacity=".5" stroke="#fff"/><ellipse cx="1372.7805" cy="-1572.6172" fill="none" opacity=".5" rx="46.491535" ry="11.501137" stroke="#fff" stroke-width="1.000908"/><use height="1085" transform="translate(0 18)" width="5033" xlink:href="#aF"/><use height="1085" transform="translate(0 36)" width="5033" xlink:href="#aF"/></g><path d="m2358-896h1024v1024h-1024z" fill="#ffc8c8" fill-opacity=".748634"/><path d="m2507.7763-896c-16.5556 0-31.7763 14.72919-31.7763 32.48242v959.802736c0 15.469544 14.5086 31.714844 31.0722 31.714844h722.8645c18.5345 0 33.0477-15.47705 33.0477-30.974609v-596.767581c0-16.89736-2.0504-24.7277-14.0194-36.67383l-341.7826-341.14648c-11.9691-11.94213-21.1265-18.10119-38.0546-18.11719zm509.9865.15625c-27.391 0-28.5919 28.45464-14.1073 42.98437v.004l213.0638 213.73438c17.3848 17.42928 46.2807 13.29444 46.2807-14.19727v-209.73828c0-16.90935-15.3294-32.78711-32.1733-32.78711h-213.0639z" fill="url(#av)" stroke-width="15.997"/><path d="m2526-846v926h688v-574l-352-352z" fill="url(#ax)"/><path d="m2610.04-485.965v23.99625h111.9825v-23.99625zm127.98 0v23.99625h119.9812v-23.99625zm135.9787 0v23.99625h119.9813v-23.99625zm135.9788 0v23.99625h111.9825v-23.99625zm-399.9375 39.99375v31.995h111.9825v-31.995zm127.98 0v31.995h119.9812v-31.995zm135.9787 0v31.995h119.9813v-31.995zm135.9788 0v31.995h111.9825v-31.995zm-399.9375 47.9925v31.995h111.9825v-31.995zm127.98 0v31.995h119.9812v-31.995zm135.9787 0v31.995h119.9813v-31.995zm135.9788 0v31.995h111.9825v-31.995zm-399.9375 47.9925v31.995h111.9825v-31.995zm127.98 0v31.995h119.9812v-31.995zm135.9787 0v31.995h119.9813v-31.995zm135.9788 0v31.995h111.9825v-31.995zm-399.9375 47.9925v31.995h111.9825v-31.995zm127.98 0v31.995h119.9812v-31.995zm135.9787 0v31.995h119.9813v-31.995zm135.9788 0v31.995h111.9825v-31.995zm-399.9375 47.9925v31.99501h111.9825v-31.99501zm127.98 0v31.99501h119.9812v-31.99501zm135.9787 0v31.99501h119.9813v-31.99501zm135.9788 0v31.99501h111.9825v-31.99501zm-399.9375 47.99251v31.995h111.9825v-31.995zm127.98 0v31.995h119.9812v-31.995zm135.9787 0v31.995h119.9813v-31.995zm135.9788 0v31.995h111.9825v-31.995zm-399.9375 47.9925v31.995h111.9825v-31.995zm127.98 0v31.995h119.9812v-31.995zm135.9787 0v31.995h119.9813v-31.995zm135.9788 0v31.995h111.9825v-31.995zm-399.9375 47.9925v31.995h111.9825v-31.995zm127.98 0v31.995h119.9812v-31.995zm135.9787 0v31.995h119.9813v-31.995zm135.9788 0v31.995h111.9825v-31.995zm-399.9375 47.9925v23.99625h111.9825v-23.99625zm127.98 0v23.99625h119.9812v-23.99625zm135.9787 0v23.99625h119.9813v-23.99625zm135.9788 0v23.99625h111.9825v-23.99625z" fill="url(#R)" opacity=".6"/><path d="m2729.4893-406.85336c-17.6892 4.42331-31.995 10.55835-42.2454 17.12532-10.2464 6.55898-16.8374 14.35776-16.8774 23.74429-.3079 78.58772-.2399 153.52001-.2399 215.96626 0 9.17456 6.5989 17.04533 16.8693 23.62031 10.2704 6.57897 24.7562 12.22609 42.3694 16.99734 35.2345 9.54251 83.427 15.3736 136.7267 15.3736 53.3036 0 101.4961-5.83109 136.7306-15.3736 17.6212-4.77125 32.099-10.41837 42.3734-16.99734 10.2704-6.57498 16.7813-14.48974 16.7813-23.66431v-215.96625c0-9.37854-6.7789-17.13732-17.0253-23.6963-10.2504-6.55897-24.6481-12.35807-42.2454-17.12532-35.1945-9.53051-83.291-15.11764-136.6027-15.11764-53.6716 0-98.7845 5.66711-136.6066 15.11764zm136.6027-7.11889c52.7437-.1 100.4443 5.83909 134.7269 15.11764 17.1453 4.63927 30.9392 10.37038 40.1217 16.24946 9.1786 5.87908 13.8379 11.67018 13.3699 16.6214-.8398 8.81862-10.3104 14.93767-16.9973 18.74907-10.8383 6.17904-23.7963 10.83831-35.4905 13.86983-39.9137 10.35839-79.7755 14.1378-118.1015 15.11764-53.0397.85587-105.6235-2.91954-154.1039-15.3576-11.2503-2.93954-20.9967-6.55897-30.6192-11.37822-8.6387-4.33132-20.2489-11.5262-21.1167-20.99672-.472-5.0912 4.1873-10.74232 13.3699-16.6214 9.1825-5.87908 22.7844-12.37407 40.1137-16.24546 47.7006-10.65834 94.6092-15.05365 134.731-15.12964zm-187.9707 64.48592c2.5316 2.53961 5.5672 5.09121 9.1186 7.25087 13.1579 7.98275 29.2354 13.94582 42.2494 17.11733 52.4118 12.1581 104.4517 16.34544 154.4759 14.87767 40.4416-1.2798 81.2673-4.27933 118.7294-14.87767 18.5331-5.23919 38.25-11.57819 51.364-24.3682v51.49196c0 2.32763 0 4.87924-.4999 6.87892-1.0919 4.41531-5.4792 9.74248-13.374 14.36976-13.0539 7.6388-27.3557 12.33007-39.9937 15.74554-44.913 10.95829-91.6457 14.93766-134.099 14.99765-45.8209-.35194-94.1333-4.49929-134.731-15.11763-17.4253-5.50314-34.8946-10.2504-47.4926-21.87659-2.8955-2.70757-4.5313-5.62312-5.2392-8.11873-.6519-2.26764-.4999-4.49129-.4999-6.87892v-51.49196zm0 72.10874c1.5518 1.53976 3.3395 3.06352 5.2472 4.50329 15.3296 10.59835 34.3946 16.74939 50.992 20.87674 45.9209 10.42237 86.5865 13.90583 131.7315 13.99781 45.4049-.93585 89.8819-3.25949 131.7274-13.99781 14.8177-3.86739 30.7152-9.54251 42.7453-15.62556 4.5753-2.31963 11.7462-8.13473 13.4979-9.75047v51.36797c0 2.32764 0 4.87924-.4999 6.87893-1.0919 4.41531-5.6072 9.51851-13.3739 14.36575-17.1494 10.06243-37.4862 15.61356-55.3634 19.49695-41.5455 8.06274-79.6196 11.19026-118.7294 11.24625-19.781 0-38.834-.6879-56.7392-2.37563-40.1937-4.91923-75.9161-8.60666-109.9828-24.24821-5.8071-2.68758-11.1823-6.411-15.4976-10.37038-2.9195-2.67958-4.4633-5.63912-5.2392-8.11873-.3039-.95985-.4959-2.01569-.4999-2.87955-.14-18.45312 0-36.91424 0-55.36735zm0 71.98875c6.263 6.16704 14.5497 10.82231 22.1166 14.00581 34.6985 14.38175 75.7641 20.23684 108.487 22.98841 19.7329 1.62374 39.0739 2.37963 57.3631 2.37563 45.4648-.73589 89.7859-3.54345 131.7274-13.99782 16.8773-4.57928 32.6749-9.63849 46.6207-17.8772 3.7354-2.21566 6.6789-4.76726 9.6225-7.49483v55.36735c0 5.18319-4.0914 11.01028-13.246 16.87736-9.1585 5.85908-22.8684 11.35823-39.9937 15.9975-34.2426 9.26655-82.0072 15.11764-134.7269 15.11764-52.7198 0-100.4843-5.84709-134.727-15.11764-17.1253-4.63927-30.8352-10.13842-39.9937-15.9975-9.1586-5.86708-13.25-11.69417-13.25-16.87736z" fill="none" opacity=".5" stroke="#fff" stroke-width="7.99875"/><path d="m2674.03-357.985v207.96751c0 28.71551 85.9465 51.99187 191.97 51.99187 106.0234 0 191.97-23.27636 191.97-51.99187v-207.96751z" fill="url(#O)"/><path d="m2729.4893-406.85336c-17.6892 4.42331-31.995 10.55835-42.2454 17.12532-10.2464 6.55898-16.8374 14.35776-16.8774 23.74429-.3079 78.58772-.2399 153.52001-.2399 215.96626 0 9.17456 6.5989 17.04533 16.8693 23.62031 10.2704 6.57897 24.7562 12.22609 42.3694 16.99734 35.2345 9.54251 83.427 15.3736 136.7267 15.3736 53.3036 0 101.4961-5.83109 136.7306-15.3736 17.6212-4.77125 32.099-10.41837 42.3734-16.99734 10.2704-6.57498 16.7813-14.48974 16.7813-23.66431v-215.96625c0-9.37854-6.7789-17.13732-17.0253-23.6963-10.2504-6.55897-24.6481-12.35807-42.2454-17.12532-35.1945-9.53051-83.291-15.11764-136.6027-15.11764-53.6716 0-98.7845 5.66711-136.6066 15.11764zm136.6027-7.11889c52.7437-.1 100.4443 5.83909 134.7269 15.11764 17.1453 4.63927 30.9392 10.37038 40.1217 16.24946 9.1786 5.87908 13.8379 11.67018 13.3699 16.6214-.8398 8.81862-10.3104 14.93767-16.9973 18.74907-10.8383 6.17904-23.7963 10.83831-35.4905 13.86983-39.9137 10.35839-79.7755 14.1378-118.1015 15.11764-53.0397.85587-105.6235-2.91954-154.1039-15.3576-11.2503-2.93954-20.9967-6.55897-30.6192-11.37822-8.6387-4.33132-20.2489-11.5262-21.1167-20.99672-.472-5.0912 4.1873-10.74232 13.3699-16.6214 9.1825-5.87908 22.7844-12.37407 40.1137-16.24546 47.7006-10.65834 94.6092-15.05365 134.731-15.12964zm-187.9707 64.48592c2.5316 2.53961 5.5672 5.09121 9.1186 7.25087 13.1579 7.98275 29.2354 13.94582 42.2494 17.11733 52.4118 12.1581 104.4517 16.34544 154.4759 14.87767 40.4416-1.2798 81.2673-4.27933 118.7294-14.87767 18.5331-5.23919 38.25-11.57819 51.364-24.3682v51.49196c0 2.32763 0 4.87924-.4999 6.87892-1.0919 4.41531-5.4792 9.74248-13.374 14.36976-13.0539 7.6388-27.3557 12.33007-39.9937 15.74554-44.913 10.95829-91.6457 14.93766-134.099 14.99765-45.8209-.35194-94.1333-4.49929-134.731-15.11763-17.4253-5.50314-34.8946-10.2504-47.4926-21.87659-2.8955-2.70757-4.5313-5.62312-5.2392-8.11873-.6519-2.26764-.4999-4.49129-.4999-6.87892v-51.49196zm0 72.10874c1.5518 1.53976 3.3395 3.06352 5.2472 4.50329 15.3296 10.59835 34.3946 16.74939 50.992 20.87674 45.9209 10.42237 86.5865 13.90583 131.7315 13.99781 45.4049-.93585 89.8819-3.25949 131.7274-13.99781 14.8177-3.86739 30.7152-9.54251 42.7453-15.62556 4.5753-2.31963 11.7462-8.13473 13.4979-9.75047v51.36797c0 2.32764 0 4.87924-.4999 6.87893-1.0919 4.41531-5.6072 9.51851-13.3739 14.36575-17.1494 10.06243-37.4862 15.61356-55.3634 19.49695-41.5455 8.06274-79.6196 11.19026-118.7294 11.24625-19.781 0-38.834-.6879-56.7392-2.37563-40.1937-4.91923-75.9161-8.60666-109.9828-24.24821-5.8071-2.68758-11.1823-6.411-15.4976-10.37038-2.9195-2.67958-4.4633-5.63912-5.2392-8.11873-.3039-.95985-.4959-2.01569-.4999-2.87955-.14-18.45312 0-36.91424 0-55.36735zm0 71.98875c6.263 6.16704 14.5497 10.82231 22.1166 14.00581 34.6985 14.38175 75.7641 20.23684 108.487 22.98841 19.7329 1.62374 39.0739 2.37963 57.3631 2.37563 45.4648-.73589 89.7859-3.54345 131.7274-13.99782 16.8773-4.57928 32.6749-9.63849 46.6207-17.8772 3.7354-2.21566 6.6789-4.76726 9.6225-7.49483v55.36735c0 5.18319-4.0914 11.01028-13.246 16.87736-9.1585 5.85908-22.8684 11.35823-39.9937 15.9975-34.2426 9.26655-82.0072 15.11764-134.7269 15.11764-52.7198 0-100.4843-5.84709-134.727-15.11764-17.1253-4.63927-30.8352-10.13842-39.9937-15.9975-9.1586-5.86708-13.25-11.69417-13.25-16.87736z" fill="url(#P)"/><ellipse cx="2866.6133" cy="-365.6702" fill="url(#Q)" rx="188.00107" ry="47.999222"/><path id="aG" d="m2679.965-344.86705v48.34045c0 26.79581 83.255 48.52042 185.951 48.52042 102.6919 0 185.9469-21.72461 185.9469-48.52442v-48.10048c-16.6254 14.85767-78.4957 36.77425-185.371 36.77425-106.8633 0-170.9733-22.15654-186.5309-37.01822z" fill="none" opacity=".5" stroke="#fff" stroke-width="3.999375"/><ellipse cx="2865.1221" cy="-365.9003" fill="none" opacity=".5" rx="185.93709" ry="45.99736" stroke="#fff" stroke-width="4.003008"/><use height="1085" transform="translate(0 71.988752)" width="5033" xlink:href="#aG"/><use height="1085" transform="translate(0 143.9775)" width="5033" xlink:href="#aG"/></svg>