<svg viewBox="0 0 32 32" xmlns="http://www.w3.org/2000/svg"><g fill="#2e3436"><path d="m8 2c-2.215989 0-4 1.784011-4 4v20c0 2.21599 1.784011 4 4 4h11.037109l-2-2h-9.037109c-1.1079945 0-2-.892005-2-2v-20c0-1.1079945.8920055-2 2-2h11v4c0 1.1079934.892006 2 2 2h4v2.320312l1.859375-2.125a1.9998304 1.9998304 0 0 1 .0059-.0078c.0012-.0014.0027-.0025.0039-.0039.04179-.04722.08686-.09011.130859-.134766v-1.048846c-.000034-.999998-.262401-1.2638426-1.000034-2l-4-4c-.689027-.7256422-1.000002-1-2-1z"/><path d="m29.393674 19.000856c-.395073.02905-.76601.211374-1.029296.509765a.50486171.50486171 0 0 0 -.002.002l-5.941406 6.787109-1.859375-1.859375c-.583381-.583381-1.545525-.583381-2.128906 0-.281696.281696-.439453.665201-.439453 1.064453s.157757.782757.439453 1.064453l3 3c.291429.291431.691752.453682 1.111328.4375.418906-.01255.809905-.198743 1.083985-.507812a.50486171.50486171 0 0 0 .0039-.002l6.998047-7.998046.002-.002c.265727-.302226.392229-.69539.36914-1.08789a.50486171.50486171 0 0 0 0-.0078c-.02905-.395073-.211373-.76601-.509765-1.029297-.302484-.266899-.696497-.394231-1.089844-.371093a.50486171.50486171 0 0 0 -.0078 0z"/><path d="m29.393674 11.000856c-.395073.02905-.76601.211374-1.029296.509765a.50486171.50486171 0 0 0 -.002.002l-5.941406 6.787109-1.859375-1.859375c-.583381-.583381-1.545525-.583381-2.128906 0-.281696.281696-.439453.665201-.439453 1.064453s.157757.782757.439453 1.064453l3 3c.291429.291431.691752.453682 1.111328.4375.418906-.01255.809905-.198743 1.083985-.507812a.50486171.50486171 0 0 0 .0039-.002l6.998047-7.998046.002-.002c.265727-.302226.392229-.69539.36914-1.08789a.50486171.50486171 0 0 0 0-.0078c-.02905-.395073-.211373-.76601-.509765-1.029297-.302484-.266899-.696497-.394231-1.089844-.371093a.50486171.50486171 0 0 0 -.0078 0z"/><path d="m8 7v2h6v-2zm3 4v2h10v-2zm-3 4v2h8.048828c.105474-.722646.433178-1.400292.951172-1.931641v-.068359z"/></g></svg>