<svg height="32" viewBox="0 0 32 32" width="32" xmlns="http://www.w3.org/2000/svg"><g fill="#2e3436"><path d="m15 10v.513672 18.486328h1.779297l3.103516-3.353516 1.561799 2.92791c.361828.702173.913538 1.132511 1.453124 1.294918.615886.186712 1.249841.152211 1.839844-.03906.590003-.191277 1.159674-.555063 1.533203-1.148438.373529-.593374.470713-1.4193.199219-2.189453l-1.651643-3.492361h5.181641v-1.726562l-13.058594-11.273438zm2 3h.386719l9.15625 8h-4.806641l2.846955 6.166191c.09553.277334.0574.350815-.0059.451172-.06427.102095-.229812.236883-.457031.310547-.22722.07366-.493774.07245-.642578.02734-.09802-.03339-.160339-.08896-.183594-.138672-.945845-1.906757-1.908142-3.807079-2.864492-5.709156l-3.429688 3.708984z" stroke-width="1.33333"/><path d="m4 4c-2.2159934 0-4 1.7840066-4 4v11c0 2.215994 1.7840066 4 4 4h8a1 1 0 0 0 1-1 1 1 0 0 0 -1-1h-8c-1.1079967 0-2-.892003-2-2v-11c0-1.1079967.8920033-2 2-2h24c1.107997 0 2 .8920033 2 2v10.630859l1.306641 1.128907c.187769.170019.341537.374158.453125.601562.153164-.425112.240234-.882145.240234-1.361328v-11c0-2.2159934-1.784006-4-4-4z"/></g></svg>