<svg viewBox="0 0 32 32" xmlns="http://www.w3.org/2000/svg"><g fill="#555753"><path d="m4 9v6 2 4 2h4c2.759649-.099001 5-1.238576 5-4s-2.238576-4-5-4h-2v-1.650391l-.0859375.025391a.99772696.99772696 0 0 1 -1.1035156-1.521484l1.1894531-1.736328v-.9980474l-.0820312-.1191406zm13 3v1.548828l.416016.451172h5.583984v2h-3.734375l1.847656 2h1.886719v2.039062l2 2.164063v-8.203125c-.026633-1.104248-.895431-2-2-2zm-8.3964844 4.982422c1.3647582.028101 2.3964844.567831 2.3964844 2.017578 0 1.656854-1.343146 2-3 2h-2v-4h2c.2065083-.015734.4085502-.021593.6035156-.017578zm6.9042964.710937c-.313262.509766-.507812 1.109988-.507812 1.806641 0 2.209139 1.790861 3.5 4 3.5h.904297l-1.734375-2.09375c-.689399-.171952-1.169922-.598439-1.169922-1.40625 0-.0014-.000003-.002509 0-.003906z"/><path d="m11 5-2.15625 2.7109375-3.2539062-.9609375 1.9609374 2.8710938-1.9179687 2.7968752 3.3359375-.978516 2.03125 2.560547-.03125-3.322266 3.365234-1.1601559-3.333984-1.265625zm2.746094 6.5-1.246094 1 14.5 17.5 2-2z"/></g></svg>