<svg height="32" viewBox="0 0 32 32" width="32" xmlns="http://www.w3.org/2000/svg"><g fill="#2e3436"><path d="m5 3c-1.108 0-2 .892-2 2v6c0 1.108.892 2 2 2h6c1.108 0 2-.892 2-2v-6c0-1.108-.892-2-2-2zm0 2h2l1 1.5 1-1.5h2v1l-1.5 2 1.5 2v1h-2l-1-1.5-1 1.5h-2v-1l1.5-2-1.5-2zm12.207031 4-12.2949216 14h-1.9121094v6h6v-3.382812l15-3.617188v2h6v-6h-.382812-2.234376-.394531l-4.90039-9h-2.216797-.058594zm2.626953.0410156 4.878907 8.9589844h-.712891v.382812 1.382813l-15 3.617187v-.382812h-1.4257812zm6.166016 10.9589844h2v2h-2zm-21 5h2v2h-2z"/><path d="m17 3v6h6v-6zm2 2h2v2h-2z" opacity=".35"/></g></svg>