<svg viewBox="0 0 32 32" xmlns="http://www.w3.org/2000/svg"><path d="m6 2c-1.108 0-2 .892-2 2v24c0 1.108.892 2 2 2h11v-2h-11v-24h13v7h6v6h2v-7c0-2-4-8-8-8zm19 16v2c1.104569 0 2.313795.940941 2 2v.5 1 .5c0 1.104569-.895431 2-2 2h-3.822266l2.509766-2.28125c.18267-.19029.3125-.46186.3125-.71875v-1h-.414062-.585938-.259766c-.187436.036063-.353013.1487-.490234.28125-1.083468.820629-3.166535 2.930538-4.25 3.888672v1.705078l4.25 3.84375c.19768.19096.44055.28125.75.28125h.585938.414062v-1c0-.25689-.12983-.52846-.3125-.71875l-2.509766-2.28125h3.822266c2.209139 0 4-1.790861 4-4v-.5-1-.5c0-2.209139-1.790861-4-4-4z" fill="#555753"/></svg>