<svg height="32" viewBox="0 0 32 32" width="32" xmlns="http://www.w3.org/2000/svg"><path d="m10.210938 2.3945312c-3.0240615.0780159-6.1097136 2.2751067-6.210938 5.6054688v1.5625l-2.28125-2.28125c-.18818-.18125-.4557242-.3159893-.71875-.28125h-1v1c0 .26529 0 .53057.28125.71875l4 4 .28125.28125h.875l.28125-.28125c1.3016119-1.530596 3.6293879-3.0528803 4.28125-4.71875v-1h-1c-.2653 0-.53058.1-.71875.28125l-2.28125 2.28125v-1.5625c0-2.209139 1.790861-4 4-4s4 1.790861 4 4h2c-.386674-3.7422587-2.694792-5.4185671-5.185547-5.5917969-.20015-.0139202-.401911-.0188729-.603515-.0136719zm14.789062 1.6054688a3 3 0 0 0 -2.826172 2h-4.173828v2h4.175781a3 3 0 0 0 1.824219 1.8261719v12.3496091a3 3 0 0 0 -1.826172 1.824219h-8.349609a3 3 0 0 0 -2.455078-1.974609l-1.7031254-8.025391h-2.0527344l1.7890626 8.464844a3 3 0 0 0 -1.4023438 2.535156 3 3 0 0 0 3 3 3 3 0 0 0 2.826172-2h8.349609a3 3 0 0 0 2.824219 2 3 3 0 0 0 3-3 3 3 0 0 0 -2-2.826172v-12.3496092a3 3 0 0 0 2-2.8242188 3 3 0 0 0 -3-3zm0 2a1 1 0 0 1 1 1 1 1 0 0 1 -1 1 1 1 0 0 1 -1-1 1 1 0 0 1 1-1zm-14 18a1 1 0 0 1 1 1 1 1 0 0 1 -1 1 1 1 0 0 1 -1-1 1 1 0 0 1 1-1zm14 0a1 1 0 0 1 1 1 1 1 0 0 1 -1 1 1 1 0 0 1 -1-1 1 1 0 0 1 1-1z" fill="#555753"/></svg>