<svg height="32" viewBox="0 0 32 32" width="32" xmlns="http://www.w3.org/2000/svg"><g fill="#555753"><path d="m4 18v2 1h7v1h-5c-2.209139 0-4 1.290861-4 3.5s1.790861 3.5 4 3.5h8v-9c0-1.104569-.895431-2-2-2zm2 7h5v1h-5c-.5522847 0-1 .052285-1-.5s.4477153-.5 1-.5z" stroke-width="2.66666"/><path d="m19.999783 3v1.5000722h.009c-.003.3965591.152798.7778774.430687 1.060596l3.000143 3.0001444c.585824.5855834 1.535369.5855834 2.121192 0l3.000145-3.0001444c.278098-.2827186.433687-.6640369.430687-1.060596h.0086v-1.5000722z" stroke-width="1.50007"/><path d="m17 13v14c0 1.107999.892001 2 2 2h5c2.761421 0 5-2.738579 5-5.5s-2.238579-5.5-5-5.5h-4v-5zm3 8h4c1.104568 0 2 1.395432 2 2.5s-.895432 2.5-2 2.5h-4z"/></g></svg>