<svg height="32" viewBox="0 0 32 32" width="32" xmlns="http://www.w3.org/2000/svg"><path d="m2 5v21h15.160156a7.5 7.5 0 0 1 -.160156-1.5 7.5 7.5 0 0 1 .025391-.5h-13.025391v-17h24v10.871094a7.5 7.5 0 0 1 2 1.539062v-14.410156zm3 3v3h22v-3zm0 4v11h10v-11zm11 0v11h1.152344a7.5 7.5 0 0 1 7.347656-6 7.5 7.5 0 0 1 2.5.439453v-5.439453zm8.5 7a5.5 5.5 0 0 0 -5.5 5.5 5.5 5.5 0 0 0 5.5 5.5 5.5 5.5 0 0 0 5.5-5.5 5.5 5.5 0 0 0 -5.5-5.5zm-3.5 2h2l1.5 1.800781 1.5-1.800781h2v1l-2.083984 2.5 2.083984 2.5v1h-2l-1.5-1.800781-1.5 1.800781h-2v-1l2.099609-2.5-2.099609-2.5z" fill="#555753"/></svg>