<svg viewBox="0 0 32 32" xmlns="http://www.w3.org/2000/svg"><path d="m7 2c-.297277.08594-.55232.0903-.75.28125-1.083468.82063-3.166536 2.9305389-4.25 3.8886719v1.7050781l4.25 3.84375c.19768.19095.44055.28125.75.28125h.5859375.4140625v-1c-.003025-.404116-.12983-.52846-.3125-.71875l-2.5097656-2.28125h6.8222656 8.5a3.5 3.5 0 0 1 3.5 3.5 3.5 3.5 0 0 1 -3.5 3.5h-9a5.5 5.5 0 0 0 -5.5 5.5 5.5 5.5 0 0 0 5.5 5.5h8.5.5 6.322266l-2.509766 2.28125c-.18267.19029-.309475.314634-.3125.71875v1h.414062.585938c.30945 0 .55232-.0903.75-.28125l4.25-3.84375v-1.705078c-1.083464-.958133-3.166532-3.068042-4.25-3.888672-.19768-.19095-.452723-.19531-.75-.28125h-.585938-.414062v1c0 .25689.12983.52846.3125.71875l2.509766 2.28125h-6.322266-.5-8.5a3.5 3.5 0 0 1 -3.5-3.5 3.5 3.5 0 0 1 3.5-3.5h9a5.5 5.5 0 0 0 5.5-5.5 5.5 5.5 0 0 0 -5.5-5.5h-8.5-6.8222656l2.5097656-2.28125c.18267-.19029.3125-.46186.3125-.71875v-1h-.4140625z" fill="#2e3436"/></svg>