<svg height="32" viewBox="0 0 32 32" width="32" xmlns="http://www.w3.org/2000/svg"><g fill="#2e3436"><path d="m10.5 13a8.5 8.5 0 0 0 -8.5 8.5 8.5 8.5 0 0 0 8.5 8.5 8.5 8.5 0 0 0 7.650391-4.818359c-.642544-.265874-1.220105-.655714-1.689453-1.142579a6.5 6.5 0 0 1 -5.960938 3.960938 6.5 6.5 0 0 1 -6.5-6.5 6.5 6.5 0 0 1 6.5-6.5 6.5 6.5 0 0 1 5.494141 3.027344c.15259-.240028.31207-.454762.466797-.646485.319839-.313578.721122-.499684 1.138671-.554687a8.5 8.5 0 0 0 -7.099609-3.826172zm0 5c-1.9329931 0-3.5 1.567007-3.5 3.5s1.5670069 3.5 3.5 3.5c1.932993 0 3.5-1.567007 3.5-3.5s-1.567007-3.5-3.5-3.5z"/><path d="m16 3c-1.644696 0-3 1.3553032-3 3v5.310547c.688333.171404 1.358729.411081 2 .714844v-6.025391c0-.5712888.428712-1 1-1h10c.42194 0 .766859.2334983.917969.5859375l-.669922.7558594-6.296875 7.1953121-2.244141-2.24414c-.390508-.39042-1.023554-.39042-1.414062 0-.39172.390728-.39172 1.025287 0 1.416015l.134765.134766c.53511.363596 1.038289.774616 1.496094 1.232422.457806.457805.868826.960984 1.232422 1.496094l.136719.136718c.051155.051229.105813.095056.164062.132813.267714-.377583.665668-.662873 1.142578-.783203.234268-.030185.478546-.048099.728516-.054688l5.671875-6.4824216v7.4785156c0 .571288-.428712 1-1 1h-.427734c.106766.144868.204302.296143.292968.453125.264758.46875.441435.98357.529297 1.517578 1.461014-.19623 2.605469-1.459913 2.605469-2.970703v-10c0-1.6446968-1.355304-3-3-3z"/><path d="m21.460424 17c-.203218.002-.406994.01795-.606024.0436l1.188291 2.103285c.244438.432051-.02951.928258-.548591 1.227909l-.936776.542618c-.523859.291205-1.106693.252054-1.350695-.18022l-1.188302-2.103286c-.251698.311718-.482092.658003-.625828 1.031839-.687967 1.789439.288558 3.51827 2.180523 3.861959.395283.07189.812011.05526 1.210082.0041.032043-.005111 3.139826 6.468196 3.139826 6.468196h5.57707l-5.851123-8.054518c.251648-.311717.452371-.661937.596128-1.035804.687916-1.789387-.288608-3.518259-2.180523-3.861959-.197651-.0359-.400829-.04908-.604058-.04756z" stroke-width="3.04204"/></g></svg>