<svg height="32" viewBox="0 0 32 32" width="32" xmlns="http://www.w3.org/2000/svg"><path d="m15 2v4h2v-4zm-1 2c-3.682451 6.360596-7.8251113 12.438451-10.7441406 19h.0078125a13 5 0 0 0 -.1601563.402344 13 5 0 0 0 -.0371094.09375 13 5 0 0 0 -.0410156.304687 13 5 0 0 0 -.0253906.199219 13 5 0 0 0 .0546875.419922 13 5 0 0 0 .0839844.265625 13 5 0 0 0 .0917969.234375 13 5 0 0 0 .1503906.255859 13 5 0 0 0 .1484375.22461 13 5 0 0 0 .2148437.25 13 5 0 0 0 .2167969.228515 13 5 0 0 0 .2636719.226563 13 5 0 0 0 .2871094.228515 13 5 0 0 0 .2988281.199219 13 5 0 0 0 .375.234375 13 5 0 0 0 .34375.185547 13 5 0 0 0 .4140625.210937 13 5 0 0 0 .3886718.169922 13 5 0 0 0 .515625.212891 13 5 0 0 0 .3691407.130859 13 5 0 0 0 .5820312.197266 13 5 0 0 0 .4472657.130859 13 5 0 0 0 .5957031.164063 13 5 0 0 0 .4609375.109375 13 5 0 0 0 .6816406.150391 13 5 0 0 0 .457031.083984 13 5 0 0 0 .685547.11914 13 5 0 0 0 .572266.080079 13 5 0 0 0 .648437.083984 13 5 0 0 0 .644532.0625 13 5 0 0 0 .595703.050781 13 5 0 0 0 .412109.023438v-9.871094zm4 0v15.0625 9.871094a13 5 0 0 0 .412109-.023438 13 5 0 0 0 .595703-.050781 13 5 0 0 0 .644532-.0625 13 5 0 0 0 .648437-.083984 13 5 0 0 0 .572266-.080079 13 5 0 0 0 .685547-.11914 13 5 0 0 0 .457031-.083984 13 5 0 0 0 .681641-.150391 13 5 0 0 0 .460937-.109375 13 5 0 0 0 .595703-.164063 13 5 0 0 0 .447266-.130859 13 5 0 0 0 .582031-.197266 13 5 0 0 0 .369141-.130859 13 5 0 0 0 .515625-.212891 13 5 0 0 0 .388672-.169922 13 5 0 0 0 .414062-.210937 13 5 0 0 0 .34375-.185547 13 5 0 0 0 .375-.234375 13 5 0 0 0 .298828-.199219 13 5 0 0 0 .28711-.228515 13 5 0 0 0 .263671-.226563 13 5 0 0 0 .216797-.228515 13 5 0 0 0 .214844-.25 13 5 0 0 0 .148438-.22461 13 5 0 0 0 .15039-.255859 13 5 0 0 0 .091797-.234375 13 5 0 0 0 .083984-.265625 13 5 0 0 0 .054688-.419922 13 5 0 0 0 -.025391-.199219 13 5 0 0 0 -.041015-.304687 13 5 0 0 0 -.03711-.09375 13 5 0 0 0 -.160156-.402344h.007813c-2.91903-6.561549-7.06169-12.639404-10.744141-19zm-3 4v4h2v-4zm0 6v4h2v-4zm0 6v4h2v-4zm0 6v4h2v-4z" fill="#2e3436" stroke-width="1.33333"/></svg>