<svg height="32" viewBox="0 0 32 32" width="32" xmlns="http://www.w3.org/2000/svg"><g fill="#2e3436"><path d="m4 3v2h-2v2h4v-4zm22 0v2h-2v1h2v1h4v-2h-2v-2zm-18 2v1h2v-1zm4 0v1h2v-1zm4 0v1h2v-1zm4 0v1h2v-1zm-16 3v2h1v-2zm23 0v2h1v-2zm-23 4v2h1v-2zm23 0v2h1v-2zm-23 4v2h1v-2zm23 0v2h1v-2zm-23 4v2h1v-2zm23 0v2h1v-2zm-23 4v1h-2v2h2v2h2v-4h-1v-1zm23 0v1h-1v1h-2v1h2v2h2v-2h2v-2h-2v-1zm-19 2v1h2v-1zm4 0v1h2v-1zm4 0v1h2v-1zm4 0v1h2v-1z"/><path d="m23 8a3 3 0 0 0 -3 3 3 3 0 0 0 3 3 3 3 0 0 0 .085938-.003906c.017991.000334.034663.005859.052734.005859 1.498427 0 2.714447-1.157383 2.833984-2.625a3 3 0 0 0 .015625-.154297c.000699-.025991.007813-.050012.007813-.076172 0-.008006-.001888-.015446-.001953-.023437a3 3 0 0 0 .005859-.123047 3 3 0 0 0 -3-3zm-10 6-7 7.144531v2.855469h19.996094l.003906-7-6 4z" opacity=".35" stroke-width="1.428223"/></g></svg>