<svg viewBox="0 0 32 32" xmlns="http://www.w3.org/2000/svg"><g fill="#2e3436"><path d="m8 2c-2.215989 0-4 1.784011-4 4v20c0 2.21599 1.784011 4 4 4h4a1 1 0 0 0 1-1 1 1 0 0 0 -1-1h-4c-1.1079945 0-2-.892005-2-2v-20c0-1.1079945.8920055-2 2-2h11v4c0 1.1079934.892006 2 2 2h4v5a1 1 0 0 0 1 1 1 1 0 0 0 1-1v-6c0-.999998-.262367-1.2638426-1-2l-4-4c-.689027-.7256422-1.000002-1-2-1z"/><path d="m17 18c-1.107999 0-2 .892001-2 2v8c0 1.107999.892001 2 2 2h11c1.107999 0 2-.892001 2-2v-8c0-1.107999-.892001-2-2-2zm0 2h3v2h-3zm4 0h3v2h-3zm4 0h3v2h-3zm-8 3h3v2h-3zm4 0h3v2h-3zm4 0h3v2h-3zm-8 3h3v2h-3zm4 0h3v2h-3zm4 0h3v2h-3z"/></g></svg>