<svg viewBox="0 0 32 32" xmlns="http://www.w3.org/2000/svg"><g fill="#2e3436"><path d="m7 3c-2.2159758 0-4 1.784023-4 4v18c0 2.215978 1.7840242 4 4 4h10v-2h-10c-1.1079879 0-2-.892011-2-2v-14h22v6h2v-10c0-2.215977-1.784022-4-4-4zm0 2h18c1.107989 0 2 .8920115 2 2v2h-22v-2c0-1.1079885.8920121-2 2-2zm0 7v2h8v-2zm10 0v2h8v-2zm-10 4v2h8v-2zm10 0v2h.765625c.548523-.612779 1.343442-1 2.234375-1h5v-1zm-10 4v2h8v-2zm0 4v2h8v-2z"/><path d="m7 5c-1.107989 0-2 .8920104-2 2v2h22v-2c0-1.1079896-.89201-2-2-2z" opacity=".35"/><path d="m20.859375 19c-1.036152 0-1.859375.863537-1.859375 1.916016v7.183593c0 1.03646.824786 1.900391 1.960938 1.900391h7.466796c1.041398 0 1.572266-.863931 1.572266-1.900391v-7.183593c0-1.052479-.53088-1.916016-1.572266-1.916016zm1.166016 1.818359c.127808 0 .255581.04855.353515.146485l2.121094 2.121094 2.121094-2.121094c.195868-.195869.511163-.195869.707031 0l.707031.707031c.195869.195868.195869.511163 0 .707031l-2.121094 2.121094 2.121094 2.121094c.195869.195868.195869.511163 0 .707031l-.707031.707031c-.195868.195869-.511163.195869-.707031 0l-2.121094-2.121094-2.121094 2.121094c-.195868.195869-.511163.195869-.707031 0l-.707031-.707031c-.195869-.195868-.195869-.511163 0-.707031l2.121094-2.121094-2.121094-2.121094c-.195869-.195868-.195869-.511163 0-.707031l.707031-.707031c.09793-.09793.225706-.146485.353516-.146485z"/></g></svg>