<svg height="32" viewBox="0 0 32 32" width="32" xmlns="http://www.w3.org/2000/svg"><path d="m9 3c-2.2159956 0-4 1.7840044-4 4v18c0 2.215996 1.7840044 4 4 4h14c2.215996 0 4-1.784004 4-4v-18c0-2.2159956-1.784004-4-4-4zm0 2h14c1.107998 0 2 .6690016 2 1.5v19c0 .830998-.892002 1.5-2 1.5h-14c-1.1079978 0-2-.669002-2-1.5v-19c0-.8309984.8920022-1.5 2-1.5zm-.5 2c-.2769997 0-.5.2230003-.5.5v1c0 .277.2230003.5.5.5h1c.2769997 0 .5-.223.5-.5v-1c0-.2769997-.2230003-.5-.5-.5zm2.5 0v2h10v-2zm11.5 0c-.277 0-.5.2230003-.5.5v1c0 .277.223.5.5.5h1c.277 0 .5-.223.5-.5v-1c0-.2769997-.223-.5-.5-.5zm-14 4c-.2769997 0-.5.223-.5.5v1c0 .277.2230003.5.5.5h1c.2769997 0 .5-.223.5-.5v-1c0-.277-.2230003-.5-.5-.5zm2.5 0v2h10v-2zm11.5 0c-.277 0-.5.223-.5.5v1c0 .277.223.5.5.5h1c.277 0 .5-.223.5-.5v-1c0-.277-.223-.5-.5-.5zm-14 4c-.2769997 0-.5.223-.5.5v1c0 .277.2230003.5.5.5h1c.2769997 0 .5-.223.5-.5v-1c0-.277-.2230003-.5-.5-.5zm2.5 0v2h10v-2zm11.5 0c-.277 0-.5.223-.5.5v1c0 .277.223.5.5.5h1c.277 0 .5-.223.5-.5v-1c0-.277-.223-.5-.5-.5zm-14 4c-.2769997 0-.5.223-.5.5v1c0 .277.2230003.5.5.5h1c.2769997 0 .5-.223.5-.5v-1c0-.277-.2230003-.5-.5-.5zm2.5 0v2h10v-2zm11.5 0c-.277 0-.5.223-.5.5v1c0 .277.223.5.5.5h1c.277 0 .5-.223.5-.5v-1c0-.277-.223-.5-.5-.5zm-14 4c-.2769997 0-.5.223-.5.5v1c0 .277.2230003.5.5.5h1c.2769997 0 .5-.223.5-.5v-1c0-.277-.2230003-.5-.5-.5zm2.5 0v2h10v-2zm11.5 0c-.277 0-.5.223-.5.5v1c0 .277.223.5.5.5h1c.277 0 .5-.223.5-.5v-1c0-.277-.223-.5-.5-.5z" fill="#2e3436"/></svg>