<svg height="32" viewBox="0 0 32 32" width="32" xmlns="http://www.w3.org/2000/svg"><g fill="#2e3436"><path d="m6 8c-.5539988 0-1 .4460012-1 1v1c0 .553998.4460012 1 1 1h20c.553998 0 1-.446002 1-1v-1c0-.5539988-.446002-1-1-1zm-1 4v11h10v-11zm11 0v11h1v-2.083984c0-2.095375 1.712018-3.916016 3.859375-3.916016h6.140625v-5z"/><path d="m6 5c-2.2159896 0-4 1.784011-4 4v11 2c0 2.21599 1.784011 4 4 4h10 1v-2h-1-10c-1.1079945 0-2-.892005-2-2v-2-11c0-.06925.00296-.137681.00977-.2050781.0816402-.8087661.6421033-1.4720272 1.3945269-1.7050781.0627019-.019421.1261917-.0355508.1914062-.0488282.1304293-.0265546.2657975-.0410156.4042969-.0410156h20c1.107995 0 2 .8920055 2 2v8h.427734c.540516 0 1.086174.143592 1.572266.386719v-8.386719c0-2.215989-1.784011-4-4-4z"/><path d="m20.859375 19c-1.036154 0-1.859375.863535-1.859375 1.916016v7.183593c0 1.036462.824784 1.900391 1.960938 1.900391h7.466796c1.0414 0 1.572266-.863929 1.572266-1.900391v-7.183593c0-1.052481-.530878-1.916016-1.572266-1.916016zm.140625 2h2l1.5 1.800781 1.5-1.800781h2v1l-2.083984 2.5 2.083984 2.5v1h-2l-1.5-1.800781-1.5 1.800781h-2v-1l2.099609-2.5-2.099609-2.5z"/></g></svg>