<svg viewBox="0 0 32 32" xmlns="http://www.w3.org/2000/svg"><g fill="#2e3436"><path d="m8 2c-2.2159912 0-4 1.7840088-4 4v20c0 2.215992 1.7840088 4 4 4h8a1 1 0 0 0 1-1 1 1 0 0 0 -1-1h-8c-1.1079956 0-2-.892004-2-2v-20c0-1.1079956.8920044-2 2-2h15c1.107996 0 2 .8920044 2 2v10a1 1 0 0 0 1 1 1 1 0 0 0 1-1v-10c0-2.2159912-1.784008-4-4-4z"/><path d="m20.859375 19c-1.036152 0-1.859375.863537-1.859375 1.916016v7.183593c0 1.03646.824786 1.900391 1.960938 1.900391h7.466796c1.041398 0 1.572266-.863931 1.572266-1.900391v-7.183593c0-1.052479-.53088-1.916016-1.572266-1.916016zm1.166016 1.818359c.127808 0 .255581.04855.353515.146485l2.121094 2.121094 2.121094-2.121094c.195868-.195869.511163-.195869.707031 0l.707031.707031c.195869.195868.195869.511163 0 .707031l-2.121094 2.121094 2.121094 2.121094c.195869.195868.195869.511163 0 .707031l-.707031.707031c-.195868.195869-.511163.195869-.707031 0l-2.121094-2.121094-2.121094 2.121094c-.195868.195869-.511163.195869-.707031 0l-.707031-.707031c-.195869-.195868-.195869-.511163 0-.707031l2.121094-2.121094-2.121094-2.121094c-.195869-.195868-.195869-.511163 0-.707031l.707031-.707031c.09793-.09793.225706-.146485.353516-.146485z"/></g></svg>