<svg viewBox="0 0 32 32" xmlns="http://www.w3.org/2000/svg"><g fill="#2e3436"><path d="m7 3c-2.2159802 0-4 1.7840186-4 4v18c0 2.215982 1.7840198 4 4 4h10v-2h-5v-5h5v-1h-5v-5h8v1h1v-1h6v1h2v-10c0-2.2159814-1.784018-4-4-4zm0 2h4v4h-6v-2c0-1.1079907.8920099-2 2-2zm5 0h8v4h-8zm9 0h4c1.107991 0 2 .8920093 2 2v2h-6zm-16 5h6v5h-6zm7 0h8v5h-8zm9 0h6v5h-6zm-16 6h6v5h-6zm0 6h6v5h-4c-1.1079901 0-2-.892009-2-2z"/><path d="m20.859375 19c-1.036152 0-1.859375.863537-1.859375 1.916016v7.183593c0 1.03646.824786 1.900391 1.960938 1.900391h7.466796c1.041398 0 1.572266-.863931 1.572266-1.900391v-7.183593c0-1.052479-.53088-1.916016-1.572266-1.916016zm1.166016 1.818359c.127808 0 .255581.04855.353515.146485l2.121094 2.121094 2.121094-2.121094c.195868-.195869.511163-.195869.707031 0l.707031.707031c.195869.195868.195869.511163 0 .707031l-2.121094 2.121094 2.121094 2.121094c.195869.195868.195869.511163 0 .707031l-.707031.707031c-.195868.195869-.511163.195869-.707031 0l-2.121094-2.121094-2.121094 2.121094c-.195868.195869-.511163.195869-.707031 0l-.707031-.707031c-.195869-.195868-.195869-.511163 0-.707031l2.121094-2.121094-2.121094-2.121094c-.195869-.195868-.195869-.511163 0-.707031l.707031-.707031c.09793-.09793.225706-.146485.353516-.146485z"/></g></svg>