<svg height="32" viewBox="0 0 32 32" width="32" xmlns="http://www.w3.org/2000/svg"><path d="m15 2.9882812v1c-.00004.26531.09314.53057.28125.71875l1.28125 1.28125h-4.5625v.0117188h-4.5625l1.28125-1.28125c.18811-.18818.28129-.45344.28125-.71875v-1h-1c-.265069.010819-.53057.09304-.71875.28125l-1.28125 1.28125-2 1.9492188v-3.5117188h-2v8.988281 17h10v-17h-8v-4.4999998l2 1.9492188 1.28125 1.28125c.18818.18821.453681.270431.71875.28125h1v-1c.00004-.2653099-.09314-.53057-.28125-.71875l-1.28125-1.28125h4.5625v-.0117188h4.5625l-1.28125 1.28125c-.18811.18818-.28129.4534401-.28125.71875v.9999998h1c.265069-.010819.53057-.09304.71875-.28125l1.28125-1.2812498 2-1.9492187v6.5117185 15h10v-15h-8v-10.9999998h-2v3.5117188l-2-1.9492188-1.28125-1.28125c-.18818-.18821-.453681-.2704309-.71875-.28125zm-11 10.9999998h6v13h-6zm18 2h6v11h-6z" fill="#555753"/></svg>