<svg height="32" viewBox="0 0 8.4666659 8.4666659" width="32" xmlns="http://www.w3.org/2000/svg"><g fill="#555753" transform="matrix(0 -1 -1 0 297.00001 8.46667)"><path d="m3.7041667 288.53334h1.0583333v8.46667h-1.0583333z" opacity=".35"/><path d="m12 3.5644531c-5.3624688 1.5340281-8.9967941 5.9499541-9 10.9355469.0009667.775544.090616 1.549013.2675781 2.308594.019439.111999.051546.221426.095703.326172.2314767.560847.7780279.927013 1.3847657.927734.8284271 0 1.5-.671573 1.5-1.5l-.00391-.21875c-.1600719-.603619-.2419854-1.221496-.2441368-1.84375.0051792-3.375765 2.3600661-6.4289926 6-7.7792969zm8 .00781v3.1425807c3.642224 1.3511564 5.997558 4.4072632 6 7.7851562 0 4.694421-4.477152 8.5-10 8.5-.4854-.000454-.40297-.04046-.875-.105469l-.07617.06445c-.0026-.000211-.0052.000214-.0078 0l2.67772-2.740231c.188111-.18822.281292-.453427.28125-.71875v-1.5h-1c-.265289.0014-1.03057.09303-1.21875.28125l-5 5-.28125.28125v.4375.4375l.28125.28125 5 5c.188179.18822.953463.279738 1.21875.28125h1v-1.5c.00004-.265323-.09314-.530605-.28125-.71875l-1.740234-1.78125c.0072.000032.01432-.000022.02148 0 7.179702 0 13-5.148725 13-11.5-.006996-4.9827123-3.640621-9.3945948-8.999996-10.9277344z" transform="matrix(.26458333 0 0 .26458333 0 288.53334)"/></g></svg>