<svg viewBox="0 0 32 32" xmlns="http://www.w3.org/2000/svg"><g fill="#2e3436"><path d="m21.5 14a1.0001 1.0001 0 0 0 -.943359.667969l-1.53125 4.357422-4.357422 1.53125a1.0001 1.0001 0 0 0 0 1.886718l4.357422 1.53125 1.53125 4.357422a1.0001 1.0001 0 0 0 1.886718 0l1.53125-4.357422 4.357422-1.53125a1.0001 1.0001 0 0 0 0-1.886718l-4.357422-1.53125-1.53125-4.357422a1.0001 1.0001 0 0 0 -.943359-.667969zm0 6a1.5 1.5 0 0 1 1.5 1.5 1.5 1.5 0 0 1 -1.5 1.5 1.5 1.5 0 0 1 -1.5-1.5 1.5 1.5 0 0 1 1.5-1.5z"/><path d="m16.939453 15.904297a1.0001 1.0001 0 0 0 -.742187.292968 1.0001 1.0001 0 0 0 -.195313 1.138673l.695313 1.447266 1.542968-.54297.542969-1.542968-1.447266-.695313a1.0001 1.0001 0 0 0 -.396484-.09766zm9.203125 0a1.0001 1.0001 0 0 0 -.478515.09766l-1.447266.695313.542969 1.542968 1.542968.54297.695313-1.447266a1.0001 1.0001 0 0 0 -.855469-1.431641zm-9.445312 8.3125-.695313 1.447265a1.0001 1.0001 0 0 0 1.333985 1.333985l1.447265-.695312-.542969-1.542969zm9.605468 0-1.542968.542969-.542969 1.542969 1.447265.695312a1.0001 1.0001 0 0 0 1.333985-1.333985z" opacity=".35"/><g transform="translate(-2)"><path d="m10.939453 10 3.873047 5.597656c.12109.167969.1875.375001.1875.582032v5.320312a8.5 8.5 0 0 1 2.013672-5.482422c.025146-.150591.084584-.296128.173828-.419922l3.851562-5.597656zm4.060547 11.5v5l1.234375-.617188a8.5 8.5 0 0 1 -1.234375-4.382812z" fill="#2e3436" opacity=".35"/><path d="m5.5761719 3c-.8124992 0-1.2851566.9179699-.8125 1.5820312l8.2363281 11.9179688v11.617188c0 .742187.781251 1.226562 1.449219.894531l3.027343-1.560547a8.5 8.5 0 0 1 -1.24414-1.566406l-1.232422.615234v-5-5.320312c0-.207031-.06641-.414063-.1875-.582032l-7.3339844-10.597656h17.0000004l-7.291016 10.597656c-.087673.121611-.145983.264372-.171875.41211a8.5 8.5 0 0 1 4.15625-2.652344l6.064453-8.7753908c.476562-.6640613-.000001-1.5820312-.8125-1.5820312z"/></g></g></svg>