<svg height="32" viewBox="0 0 32 32" width="32" xmlns="http://www.w3.org/2000/svg"><g fill="#2e3436"><path d="m7 4c-2.2159934 0-4 1.7840066-4 4v16c0 2.215994 1.7840066 4 4 4h13.660156c-.149761-.308109-.301237-.619904-.421875-.878906-.19042-.40882-.356756-.762249-.52539-1.121094h-12.712891c-1.1079967 0-2-.892003-2-2v-16c0-1.1079967.8920033-2 2-2h18c1.107997 0 2 .8920033 2 2v15.078125l1.722656 2.384766c.177272-.45306.277344-.945535.277344-1.462891v-16c0-2.2159934-1.784006-4-4-4zm0 3c-.5539982 0-1 .4460018-1 1v16c0 .553997.4460018 1 1 1h10.693359c-.816732-.432494-1.499355-1.074276-1.945312-1.863281-.025365-.044876-.04851-.091037-.072266-.136719h-7.675781v-14h16v6.603516c.79251.431923 1.454883 1.062507 1.890625 1.833984.039086.069202.074108.139842.109375.210938v-9.648438c0-.5539982-.446003-1-1-1z"/><path d="m21.460424 17c-.203218.002-.406994.01795-.606024.0436l1.188291 2.103285c.244438.432051-.02951.928258-.548591 1.227909l-.936776.542618c-.523859.291205-1.106693.252054-1.350695-.18022l-1.188302-2.103286c-.251698.311718-.482092.658003-.625828 1.031839-.687967 1.789439.288558 3.51827 2.180523 3.861959.395283.07189.812011.05526 1.210082.0041.032043-.005111 3.139826 6.468196 3.139826 6.468196h5.57707l-5.851123-8.054518c.251648-.311717.452371-.661937.596128-1.035804.687916-1.789387-.288608-3.518259-2.180523-3.861959-.197651-.0359-.400829-.04908-.604058-.04756z" stroke-width="3.04204"/></g></svg>