<svg height="32" viewBox="0 0 32 32" width="32" xmlns="http://www.w3.org/2000/svg"><g fill="#2e3436" transform="matrix(-1 0 0 1 31 7)"><path d="m3 3v10 6 10h7 12 1v-1h-2a2.0002 2.0002 0 0 1 -1.730469-1h-8.835937-5.433594v-7.566406-6.867188-7.566406h5.433594 11.132812 5.433594v7.566406 5.433594a2.0002 2.0002 0 0 1 2 2v-1-6-10h-7-12z" transform="matrix(-1 0 0 1 31 -7)"/><path d="m13 17v-6h-6v-4h6v-6h4v6h6v4h-6v6z" opacity=".35"/><path d="m25 20v4h-4v2h4v4h2v-4h4v-2h-4v-4z" fill="#2e3436" transform="matrix(-1 0 0 1 31 -7)"/></g></svg>