<svg height="32" viewBox="0 0 32 32" width="32" xmlns="http://www.w3.org/2000/svg"><g fill="#2e3436" transform="translate(1 7)"><path d="m2-4h16c0 .7135735.16353 1.3793162.433594 2h-14.433594v22h22v-7.566406c1.185038-.699567 2-1.976737 2-3.433594v13h-26zm14 13c0-1.1.900449-1.9685842 2-2h4v-7.5410156c-1.236022-.713616-1.998173-2.0317504-2-3.4589844h8c-.0018 1.427234-.763978 2.7453684-2 3.4589844v9.5410156c0 1.1-.91 2-2 2h-6c-1.1 0-2-.9-2-2z"/><path d="m13 17v-6h-6v-4h6v-6h4v6h6v4h-6v6z" opacity=".35"/></g></svg>