<svg height="32" viewBox="0 0 32 32" width="32" xmlns="http://www.w3.org/2000/svg"><g fill="#555753"><path d="m4 3v2h-2v2h4v-4zm22 0v2h-2v1h2v1h4v-2h-2v-2zm-18 2v1h2v-1zm4 0v1h2v-1zm4 0v1h2v-1zm4 0v1h2v-1zm-16 3v2h1v-2zm23 0v2h1v-2zm-23 4v2h1v-2zm23 0v2h1v-2zm-8 3v1.503906c.628416.471311 1.426506 1.353154 1.427734 2.138672 0 1.380712-1.404443 2.785156-2.785156 2.785156-.786206-.000614-1.668902-.798769-2.140625-1.427734h-1.501953v1.857422c1.371429 1.321851 2.948245 2.19988 4.257812 2.142578h2.742188l6.285156 6h1.714844v-1.714844l-6-6.285156v-2.742188c0-1.511963-.796341-2.886383-2.142578-4.257812zm-15 1v2h1v-2zm23 0v2h1v-2zm-23 4v2h1v-2zm23 0v2h1v-2zm-23 4v1h-2v2h2v2h2v-4h-1v-1zm23 0v.742188l2.15625 2.257812h.84375v-2h-2v-1zm-19 2v1h2v-1zm4 0v1h2v-1zm4 0v1h2v-1zm4 0v1h2v-.662109l-.353516-.337891z"/><path d="m23 8a3 3 0 0 0 -3 3 3 3 0 0 0 3 3 3 3 0 0 0 .085938-.003906c.017991.000334.034663.005859.052734.005859 1.498427 0 2.714447-1.157383 2.833984-2.625a3 3 0 0 0 .015625-.154297c.000699-.025991.007813-.050012.007813-.076172 0-.008006-.001888-.015446-.001953-.023437a3 3 0 0 0 .005859-.123047 3 3 0 0 0 -3-3zm-10 6-7 7.144531v2.855469h9.074219c-.616158-.394022-1.207804-.882337-1.767578-1.421875a1.0001 1.0001 0 0 1 -.306641-.720703v-1.857422a1.0001 1.0001 0 0 1 1-1h1.501953a1.0001 1.0001 0 0 1 .800781.400391c.178049.237398.465245.538806.744141.74414.278896.205335.540707.28316.595703.283203.351294 0 .83478-.213686 1.203125-.582031zm13 3-2.082031 1.386719c.048071.285417.082031.573976.082031.871093v2.341797l1.996094 2.091797z" opacity=".35" stroke-width="1.428223"/></g></svg>