<svg height="32" viewBox="0 0 32 32" width="32" xmlns="http://www.w3.org/2000/svg"><path d="m16.025391 1.984375-2.699219 4.3808594a10 10 0 0 1 2.673828-.3652344 10 10 0 0 1 2.712891.3847656zm-9.9179691 4.0878906 1.1914062 5.0117184a10 10 0 0 1 3.8261719-3.8007809zm19.8203121.0351563-5.011718 1.1914062a10 10 0 0 1 3.800781 3.8261719zm-9.927734.8925781a9 9 0 0 0 -9 9 9 9 0 0 0 9 9 9 9 0 0 0 9-9 9 9 0 0 0 -9-9zm0 2a7 7 0 0 1 7 7 7 7 0 0 1 -7 7 7 7 0 0 1 -7-7 7 7 0 0 1 7-7zm-9.6152344 4.287109-4.4003906 2.6875 4.3808594 2.699219a10 10 0 0 1 -.3652344-2.673828 10 10 0 0 1 .3847656-2.712891zm19.2500004.039063a10 10 0 0 1 .365234 2.673828 10 10 0 0 1 -.384766 2.712891l4.400391-2.6875zm-18.3515629 7.548828-1.2109375 5.017578 5.0117184-1.191406a10 10 0 0 1 -3.8007809-3.826172zm17.4179689.041016a10 10 0 0 1 -3.826172 3.800781l5.017578 1.210937zm-11.414063 4.699218 2.6875 4.400391 2.699219-4.380859a10 10 0 0 1 -2.673828.365234 10 10 0 0 1 -2.712891-.384766z" fill="#2e3436"/></svg>