<svg height="32" viewBox="0 0 32 32" width="32" xmlns="http://www.w3.org/2000/svg"><g fill="#555753"><path d="m6 3c-1.662 0-3 1.338-3 3v20c0 1.662 1.338 3 3 3h20c1.662 0 3-1.338 3-3v-20c0-1.662-1.338-3-3-3zm4 3h11c3.313708 0 6 2.6862915 6 6v4 10h-4-12c-3.3137085 0-6-2.686292-6-6s2.6862915-6 6-6h12v-2c0-1.104569-.895431-2-2-2h-11zm1 12c-1.1045695 0-2 .895431-2 2s.8954305 2 2 2h12v-4z" opacity=".35"/><path d="m10 6v4h11c1.104569 0 2 .895431 2 2v2h-12c-3.3137085 0-6 2.686292-6 6s2.6862915 6 6 6h12 4v-10-4c0-3.3137085-2.686292-6-6-6zm1 12h12v4h-12c-1.1045695 0-2-.895431-2-2s.8954305-2 2-2z"/></g></svg>