<svg height="32" viewBox="0 0 32 32" width="32" xmlns="http://www.w3.org/2000/svg"><g fill="#555753"><path d="m2 5v21h15v-2h-13v-17h24v10c.733193 0 1.410359.183503 2 .482422v-12.482422zm18.859375 14c-1.036154 0-1.859375.863535-1.859375 1.916016v7.183593c0 1.036462.824784 1.900391 1.960938 1.900391h7.466796c1.0414 0 1.572266-.863929 1.572266-1.900391v-7.183593c0-1.052481-.530878-1.916016-1.572266-1.916016zm2.140625 1h3v3h3v3h-3v3h-3v-3h-3v-3h3z"/><path d="m5 8v3h22v-3zm0 4v11h10v-11zm11 0v11h1v-2.5c0-1.939 1.784-3.5 4-3.5h6v-5z" opacity=".35"/></g></svg>