<svg height="32" viewBox="0 0 32 32" width="32" xmlns="http://www.w3.org/2000/svg"><path d="m20 1v1c0 .347692.13.5808131.3125.7207031l1.367188 1.2792969h-6.679688v23h-10v2h12v-23h4.679688l-1.367188 1.28125c-.1825.190301-.32696.489205-.3125.71875v1h1c.3 0 .55232-.0896.75-.2792969 1.02-.77 2.524849-2.3214062 3.25-2.9414062v-1.6152344l-3.25-2.8828125c-.275658-.212349-.383627-.28125-.75-.28125h-.587891zm-15 2v2h8v-2zm0 4v2h8v-2zm0 4v2h8v-2zm14 0v2h8v-2zm-14 4v2h8v-2zm14 0v2h8v-2zm-14 4v2h8v-2zm14 0v2h8v-2zm-14 4v2h8v-2zm14 0v2h8v-2zm0 4v2h8v-2z" fill="#2e3436"/></svg>