<svg height="32" viewBox="0 0 32 32" width="32" xmlns="http://www.w3.org/2000/svg"><path d="m8 11c-.30945 0-.55232.0903-.75.28125l-4.1113281 3.71875h-.1386719v.125 1.705078.169922h.1816406c1.1154064 1.00708 3.0311086 2.933125 4.0683594 3.71875.19768.19095.452723.19531.75.28125h.5859375.4140625v-1c0-.25689-.12983-.52846-.3125-.71875l-2.5097656-2.28125h19.6445316l-2.509766 2.28125c-.18267.19029-.3125.46186-.3125.71875v1h.414062.585938c.297277-.08594.55232-.0903.75-.28125 1.037251-.785625 2.952953-2.71167 4.068359-3.71875h.181641v-.169922-1.705078-.125h-.138672l-4.111328-3.71875c-.19768-.19095-.44055-.28125-.75-.28125h-.585938-.414062v1c.003025.404116.12983.52846.3125.71875l2.509766 2.28125h-19.6445316l2.5097656-2.28125c.18267-.19029.309475-.314634.3125-.71875v-1h-.4140625z" fill="#2e3436"/></svg>