<svg viewBox="0 0 32 32" xmlns="http://www.w3.org/2000/svg"><g fill="#2e3436"><path d="m7 2a4 4 0 0 0 -4 4v19c0 2.215988 1.7840132 4 4 4h14c2.215988 0 4-1.784012 4-4v-2.527344c-.220205-.120986-.427446-.271195-.611328-.455078-.063801-.063796-.039444-.167517-.095703-.236328l-1.292969 1.291016v1.927734c0 1.107994-.892006 2-2 2h-1.9375c-.682046.637975-1.579067.999832-2.521484 1h-2.541016a2.0006573 2.0006573 0 0 1 -1.707031-1h-5.292969c-1.1079934 0-2-.892006-2-2v-19a2 2 0 0 1 2-2 2 2 0 0 1 2 2v2c0 2.215988 1.784013 4 4 4h8.929688l2-2h-10.929688c-1.107994 0-2-.8920062-2-2v-2a4 4 0 0 0 -.535156-2h16.535156c1.104567 0 2 .8954327 2 2v2c0 .0849055-.007406.1679354-.017578.25.590125.2111218 1.113816.5414562 1.554687.9492188.071484.0661151.139308.1366029.207032.2070312.163574-.4375343.255859-.9102789.255859-1.40625v-2c0-2.2091346-1.790865-4-4-4zm20.310547 8.773438-.005859.005859-.003907.003906-.005859.005859-.003906.003907-.029297.029297h-.00586l-.564453.566406a2.0006573 2.0006573 0 0 1 .00586-.001953l-.00586.005859-.003906.001953-.001953.003907-.003906.003906-.03125.03125-.509766.509765-.003906.003907-.00586.005859-.003906.003906-.005859.00586v.037109h.789062l1.189453-1.191406.00586-.00586a2.0006573 2.0006573 0 0 1 .011719-.009765 2.0006573 2.0006573 0 0 1 .003906-.003907 2.0006573 2.0006573 0 0 1 .005859-.005859 2.0006573 2.0006573 0 0 1 .003906-.003906 2.0006573 2.0006573 0 0 1 .00586-.005859h-.003907z"/><path d="m29.179318 10.668765c-.394464-.36484-.895195-.611941-1.416976-.66015-.06949-.007-.139795-.0093-.209922-.0083-.490967.006-.99155.196045-1.433548.638053l-11.621687 11.6217c-.31768.31764-.497095.749528-.497185 1.198767v2.541165h2.541165c.44924-.00008.881117-.179494 1.198768-.497184l8.626583-8.624548 1.006798 1.006799-1.571655 1.571655c-.317936.317937-.316555.829732.0014 1.147667.317936.317936.82835.317936 1.146286 0l2.643364-2.643364-2.180705-2.128226 1.949636-1.951671c1.041318-1.042405.68552-2.409716-.182302-3.212364zm-1.037759 1.20073c.248733.247856.249694.650781.0014.899076l-.0014.0014-.0014.0014-.0014.0014-.0014.0014-.0014.0014-.0014.0014-.0014.0014-.0014.0014-.0014.0014-.0014.0014-.0014.0014-.0014.0014-.0014.0014-.0014.0014-.0014.0014-.0014.0014-.0014.0014-.0014.0014-.0014.0014-.0014.0014-.0014.0014c-.0018.000942-.0037.0019-.0055.0028l-.0014.0014-.0014.0014-.0014.0014-.0014.0014-.0014.0014-.0014.0014-.0014.0014-.0014.0014c-.0018.000942-.0037.0019-.0055.0028l-.0014.0014-.0014.0014-.0014.0014-.0014.0014-.0014.0014-.0014.0014-.0014.0014c-.0018.000942-.0037.0019-.0055.0028l-.0014.0014-.0014.0014c-.728936.729476-1.103842 1.10311-1.833049 1.832317l-.900457-.900457c.75728-.760543 1.163939-1.154883 1.921457-1.9124l.0028.0028c.250276-.229005.636282-.221104.876978.01795zm-3.846646 2.937171.900457.900457-7.779989 7.777953-.450227.447466-.897695-.897695.447466-.450228z"/><path d="m11 23v1h1v1h3.166016 2.449218l.384766.552734v.447266h-3v1h-1v-1h-3v-1h-4v-1h3v-1z"/></g></svg>