<svg height="32" viewBox="0 0 32 32" width="32" xmlns="http://www.w3.org/2000/svg"><g fill="#2e3436"><path d="m12 7c-2.2159868 0-4 1.7840132-4 4v14c0 2.215988 1.7840132 4 4 4h2c.05301-.000357.105914-.0049.158203-.01367.04439-.0072.08869-.01639.130859-.0293.02133-.0065.04181-.01554.0625-.02344.03396-.01251.06721-.02685.09961-.04297.04414-.02222.08658-.04768.126953-.07617.000652-.00065.0013-.0013.002-.002.262834-.187156.419209-.489724.419875-.81245-.000462-.495355-.363504-.91572-.853516-.988281-.0039-.000674-.0078-.0013-.01172-.002-.044648-.006243-.089673-.009506-.134764-.009719h-2c-1.107993 0-2-.892006-2-2v-14c0-1.1079934.892007-2 2-2h12c1.107994 0 2 .8920066 2 2v4c0 .552283.447717 1 1 1s1-.447717 1-1v-4c0-2.2159868-1.784012-4-4-4z"/><path d="m8 3c-2.215989 0-4 1.784011-4 4v14c0 2.21599 1.784011 4 4 4v-2c-1.107994 0-2-.892005-2-2v-14c0-1.1079945.892006-2 2-2h12c1.107995 0 2 .8920055 2 2h2c0-2.215989-1.78401-4-4-4z"/><path d="m19 18c-1.644696 0-3 1.355304-3 3v6c0 1.644696 1.355304 3 3 3h2 6 .5 1.5c1.644696 0 3-1.355304 3-3v-6c0-1.644696-1.355304-3-3-3zm.802734 2h8.394532l-3.919922 2.613281c-.17031.11355-.384378.11354-.554688 0zm-1.802734 1.201172 4.613281 3.076172c.837378.558258 1.93606.558258 2.773438 0l4.613281-3.076172v5.798828c0 .571298-.428702 1-1 1h-1.5-.5-6-2c-.571298 0-1-.428702-1-1z"/></g></svg>