<svg height="33" viewBox="0 0 33 33" width="33" xmlns="http://www.w3.org/2000/svg"><g fill="#2e3436"><path d="m11 2c-4.9705627 0-9 4.0294373-9 9 0 4.970563 4.0294373 9 9 9 4.970563 0 9-4.029437 9-9 0-4.9705627-4.029437-9-9-9zm0 2c.05081.00205.101593.00466.152344.00781.297828.0081.594311.032165.888672.078125.03324.00497.06644.010179.09961.015625l-1.324219 1.1679687.792969.6894532.263672-.421875.1875.5371094.525391-.5-.335939-.1894507.742188-.3847656-.273438 1.1640625-.271484.3125-1.22461.5664063-.347656.5175781-.830078.2441406-.5585939.6757813.7187499.3671874.384766-.7207031.632812.1132813.431641-.4023438.558594.4023438.234375.6816406-.320313.2402344.828125-.2011719-.113281-.3515625.470703.2382812-.59375-.7695312-.074219-.4765625 1.179688.0488281.271484 1.4746094h.470703l-.386718.960938c-.344009-.01918-.748668-.0932996-1.214844-.2207036-.785258-.225868-1.18487-.3378906-1.191406-.3378906-.276535-.0396301-.547683-.0811902-.824219-.1269532-.318479-.05259-.585846-.1476818-.794922-.2949218-.8843281.3767549-1.5631686.6349516-2.0390626.7753906l-.2851563 1.4628906.4257813 1.001953 1.6347656.392578.738281 1.058594c.324548 1.253999.528061 2.494304.601563 3.728516l.621093.414062c-.04357.0056-.08719.01083-.130859.01563-.183853.02042-.367839.03326-.552734.03906-.055964.002622-.111958.004577-.167969.005857-1.8919564-.000001-3.703344-.765842-5.0214844-2.123047-.3255646-.335304-.6167307-.70237-.8691406-1.095703-.1258844-.195915-.2419143-.397989-.3476562-.605469-.1056357-.208006-.200806-.421163-.2851563-.638672-.0845928-.217536-.1582525-.439167-.2207031-.664062-.060872-.218784-.1110622-.4404-.1503906-.664063-.0037-.02135-.00617-.04303-.00977-.06445-.03381-.203882-.058573-.409161-.074219-.615234-.0042-.05624-.00491-.113323-.00781-.169922-.0076246-.119659-.0121987-.239488-.0136698-.359378.0000008-1.8919564.765842-3.703344 2.1230469-5.0214844.3353044-.3255646.7023704-.6167307 1.0957031-.8691406.1959145-.1258844.3979885-.2419143.6054688-.3476562.2080058-.1056357.4211624-.200806.6386718-.2851563.2175361-.0845928.4391674-.1582525.6640625-.2207031.2187838-.0608721.4403997-.1110622.6640625-.1503906.02135-.0037.043033-.00617.064453-.00977.2038822-.03381.4091612-.058573.6152342-.074219.05624-.0042.113323-.00491.169922-.00781.1196562-.0076246.2394852-.0121987.3593752-.0136698zm-2.1425781.6835938-.1972657.6835937.5175782-.0800781.3085937-.2382813-.1113281-.3652343zm1.6679691.71875-.140625.3671874.253906.4707032.236328.082031-.359375.4433594.396484.039063.421875-.4433594zm-.480469.6367187-.1972658.3222656.1230469.3554688.2714849-.3144531zm1.373047 2.7695313.355469.3925781.04101-.3925781zm3.005859 1.5644532.6875 1.580078 1.207031-.441406-.46875-.919922c.791339-.0824 1.203873-.125001 1.242188-.125.0024 0 .655543.06933.892578.0957.0098.145636.01497.291538.01563.4375-.000243.461068-.04604.920984-.136719 1.373047-.0036.01773-.008.03505-.01172.05273-.04287.206021-.095.410004-.15625.611328-.0072.02344-.01409.04697-.02148.07031-.06138.193038-.131104.383321-.208984.570312-.0111.0267-.02178.05354-.0332.08008-.08373.194858-.176274.385811-.277344.572266-.0039.0085-.0078.01693-.01172.02539-.0018.0033-.004.0065-.0059.0098-.04417.07505-.08978.149304-.136719.222657-.157552.262773-.32951.516377-.519531.755859-.0327.04335-.06591.08633-.09961.128906-.214343.257599-.449736.495819-.699218.720703-.08472.07764-.171331.153186-.259766.226563-.04671.0381-.09289.07636-.140625.113281-.136865.105432-.277586.205761-.421875.300781-.0391.02586-.07752.05301-.117187.07813-.158282.10022-.320521.194046-.486329.28125-.03417.01794-.06705.03729-.101562.05469-.400765.201863-.820012.364721-1.251953.486328-.06148.01731-.125278.02922-.1875.04492-.11069.02811-.222052.05351-.333985.07617l.923829-.810547c.23151-.884054.344388-1.859488.33789-2.94336.402353-.50421.804678-.998833 1.207031-1.486328-.03586-.678039-.249701-1.380507-.638671-2.107422z"/><path d="m21 3a1 1 0 0 0 -1 1 1 1 0 0 0 1 1h5c1.107987 0 2 .8920129 2 2v12c0 1.107987-.892014 2-2 2h-10.419922a11 11 0 0 1 -3.394531.916016c-.024448.027414-.047553.052276-.072266.080078l-3.113281 3.503906v-3.5l-.2636719-.263672a11 11 0 0 1 -5.7363281-3.220703v.484375c0 2.215974 1.784027 4 4 4v7h.3378906c.4483463 0 .8746559-.5905 1.2519532-.998047l5.5566402-6.001953h11.853516c2.215972 0 4-1.784026 4-4v-12c0-2.2159742-1.784025-4-4-4z"/><circle cx="8" cy="22" r="1"/></g></svg>