<svg height="32" viewBox="0 0 32 32" width="32" xmlns="http://www.w3.org/2000/svg"><path d="m20.5 3c-3.335909.00455-6.360767 1.9600144-7.734375 5h-2.765625c-1.662 0-3 1.338-3 3v1h-4v17h18v-4h1c1.662 0 3-1.338 3-3v-3.300781c2.48451-1.550424 3.995904-4.270638 4-7.199219 0-4.6944204-3.80558-8.5-8.5-8.5zm0 2c3.589851 0 6.5 2.9101491 6.5 6.5-.000794 1.769604-.723049 3.46239-2 4.6875v-4.529297-.658203c0-1.662-1.338-3-3-3h-6.96875c1.192691-1.8664714 3.253752-2.9971106 5.46875-3zm-10.5 5h12c.554 0 1 .446 1 1v11c0 .554-.446013.996273-1 1h-1v-11h-12v-1c0-.554.446-1 1-1zm-5 4h14v13h-14z" fill="#2e3436"/></svg>