<svg viewBox="0 0 32 32" xmlns="http://www.w3.org/2000/svg"><path d="m10.625 1c-.9168.175-1.64144 1.0668-1.625 2v14h3v-13h9v5h5v8h3v-8.875c.012-.5282-.1952-1.0579-.5625-1.4375l-5.125-5.125c-.37956-.3674-.90938-.57474-1.4375-.5625h-10.875c-.0624-.002-.1251-.002-.1875 0-.0624-.002-.1251-.002-.1875 0zm-3.625 8c-1.70901.0527-.1948169.0018375-1.9042969.0234375-1.60378-.00005-4.0957031 1.3734325-4.0957031 2.9765625v16c0 1.60314 1.3962246 3 3 3h21.134766 1.453125c1.60877 0 2.516023-1.341284 2.902343-2.902344l1.509766-6.097656c.400827-1.547789-.949824-3-2.558594-3h-9.441406-10l-2.6914062 8.189453c-.1372101.52701-.7383938.810547-1.3085938.810547-.65509 0-1-.565258-1-1.242188 0 0-.004-5.757812 0-8.757812 0-1.60313 1.2048037-2.964844 2.8085938-2.964844l.1914062-.035156z" fill="#555753"/></svg>