<svg height="32" viewBox="0 0 32 32" width="32" xmlns="http://www.w3.org/2000/svg"><g fill="#555753" transform="translate(7)"><path d="m.2207031 4c-.618354.725151-3.1698591 3.233922-3.9394531 4.25-.19095.19768-.28125.44055-.28125.75v.5878906.4121094h1c.224022 0 .528449-.12983.71875-.3125l.28125-.3710938 3-3.3164062 3 3.3164062.28125.3710938c.190288.18267.462126.32424.71875.3125h1v-.4121094-.5878906c0-.30945-.0903-.55232-.28125-.75l-3.8828125-4.25zm7.7792969 0v2h14v-2zm0 14v2h14v-2z"/><path d="m10 8v2h12v-2zm-2 4v2h14v-2zm0 10v2h14v-2zm0 4v2h14v-2z" opacity=".35"/></g></svg>