<svg viewBox="0 0 32 32" xmlns="http://www.w3.org/2000/svg"><g fill="#2e3436"><path d="m12 5v5h-7v1h7v5h-7v1h7v4h1v-4h6v-1h-6v-5h6v-1h-6v-5zm7 5h2v-5h-2zm2 0v1h6v-1zm0 1h-2v5h2zm0 5v1h6v-1zm0 1h-2v4h2zm0 4v2h6v-2zm0 2h-2v4h2zm-2 0v-2h-6v2zm-6 0h-1v4h1zm-1 0v-2h-7v2z"/><path d="m7 3c-2.215978 0-4 1.7840208-4 4v14h2v-14c0-1.1079896.892011-2 2-2h12v-2zm14 0v2h4c1.10799 0 2 .8920104 2 2v14h2v-14c0-2.2159792-1.78402-4-4-4zm-18 20v2c0 2.21598 1.784022 4 4 4h18c2.21598 0 4-1.78402 4-4v-2h-2v2c0 1.10799-.89201 2-2 2h-18c-1.107989 0-2-.89201-2-2v-2z"/></g></svg>