<svg viewBox="0 0 32 32" xmlns="http://www.w3.org/2000/svg"><path d="m16 3v6 2 6 2h7c2.761424 0 5-2.238576 5-5s-2.238576-5-5-5h-5v-6zm-12 3v2h6 2v2 1h-6c-2.209139 0-4 1.790861-4 4s1.790861 4 4 4h6 2v-11c0-1.104569-.895431-2-2-2zm14 5h5c1.656854 0 3 1.343146 3 3s-1.343146 3-3 3h-5zm-12 2h6v4h-6c-1.1045695 0-2-.895431-2-2s.8954305-2 2-2zm1 7c-.26531.00003-.53058.09311-.71875.28125l-4 4-.28125.28125v.875l.28125.28125 4 4c.18818.18821.45346.28125.71875.28125h1v-1c.00004-.26531-.09314-.53057-.28125-.71875l-2.28125-2.28125h24.5625v-2h-24.5625l2.28125-2.28125c.18815-.18817.28125-.45345.28125-.71875v-1z" fill="#555753"/></svg>