<svg viewBox="0 0 32 32" xmlns="http://www.w3.org/2000/svg"><path d="m16 3v6 2 6 2h7c2.761424 0 5-2.238576 5-5s-2.238576-5-5-5h-4v-6h-1zm-12 3v2 1h5.0546875.9453125 1v1 .949219.050781h-5c-2.209139 0-4 1.790861-4 4s1.790861 4 4 4h6 2v-10.5-.5c0-1.104569-.895431-2-2-2h-.5-.5zm15 6h4c1.104569 0 2 .895431 2 2s-.895431 2-2 2h-4zm-13 2h5v2h-5c-.5522847 0-1-.447715-1-1s.4477153-1 1-1zm18 6v1c0 .2653.0931.53058.28125.71875l2.28125 2.28125h-24.5625v2h24.5625l-2.28125 2.28125c-.18811.18818-.28129.45344-.28125.71875v1h1c.26529 0 .53057-.09304.71875-.28125l4-4 .28125-.28125v-.875l-.28125-.28125-4-4c-.18817-.18814-.45344-.28122-.71875-.28125z" fill="#555753"/></svg>