<svg viewBox="0 0 32 32" xmlns="http://www.w3.org/2000/svg"><g fill="#2e3436"><path d="m12 2c-.553997 0-1 .4460018-1 1h-3c-2.2159846 0-4 1.7840146-4 4v10 9c0 2.215986 1.7840154 4 4 4h13c.552285 0 1-.447715 1-1s-.447715-1-1-1h-13c-1.1079923 0-2-.892007-2-2v-10-9c0-1.1079927.8920077-2 2-2h2v1c0 .5539976.446004 1 1 1h10c.553996 0 1-.4460024 1-1v-1h2c1.107993 0 2 .8920073 2 2v5c0 .552285.447715 1 1 1s1-.447715 1-1v-5c0-2.2159854-1.784014-4-4-4h-3c0-.5539982-.446003-1-1-1z"/><path d="m24 14.023438c0 1.380708-1.619268 3-3 3v2c1.131287 0 2.162184-.389978 3-1.023438v12h2v-15.976562z"/></g></svg>