<svg viewBox="0 0 32 32" xmlns="http://www.w3.org/2000/svg"><g fill="#2e3436"><path d="m12 2c-.553997 0-1 .4460018-1 1h-3c-2.2159846 0-4 1.7840146-4 4v10 9c0 2.215986 1.7840154 4 4 4h3c.552285 0 1-.447715 1-1s-.447715-1-1-1h-3c-1.1079923 0-2-.892007-2-2v-10-9c0-1.1079927.8920077-2 2-2h2v1c0 .5539976.446004 1 1 1h10c.553996 0 1-.4460024 1-1v-1h2c1.107993 0 2 .8920073 2 2v11c0 .552285.447715 1 1 1s1-.447715 1-1v-11c0-2.2159854-1.784014-4-4-4h-3c0-.5539982-.446003-1-1-1z"/><path d="m17.931641 20c-1.855642 0-3.390846 1.276546-3.808594 3h2.152344c.345561-.595799.983539-1 1.724609-1h4c.74107 0 1.379048.404201 1.724609 1h2.152344c-.417748-1.723454-1.952952-3-3.808594-3zm-6.931641 4v2h7v-2zm11 0v2h7v-2zm-7.855469 3c.417 1.721358 1.933524 3 3.78711 3h4.136718c1.853586 0 3.37011-1.278642 3.78711-3h-2.136719c-.343924.595778-.97827 1-1.71875 1h-4c-.74048 0-1.374826-.404222-1.71875-1z"/></g></svg>