<svg viewBox="0 0 32 32" xmlns="http://www.w3.org/2000/svg"><g fill="#2e3436"><path d="m12 2c-.553997 0-1 .4460018-1 1h-3c-2.2159846 0-4 1.7840146-4 4v10 9c0 2.215986 1.7840154 4 4 4h11a1 1 0 0 0 1-1 1 1 0 0 0 -1-1h-11c-1.1079923 0-2-.892007-2-2v-10-9c0-1.1079927.8920077-2 2-2h2v1c0 .5539976.446004 1 1 1h10c.553996 0 1-.4460024 1-1v-1h2c1.107993 0 2 .8920073 2 2v5a1 1 0 0 0 1 1 1 1 0 0 0 1-1v-5c0-2.2159854-1.784014-4-4-4h-3c0-.5539982-.446003-1-1-1z"/><path d="m23.5 14c-2.485277 0-4.5 2.014723-4.5 4.5v.5h3v-.5c0-.828425.671575-1.5 1.5-1.5.828426 0 1.5.671575 1.5 1.5 0 .828426-.671574 1.5-1.5 1.5-.06184 0-.121765.0051-.181641.01172-.02024.0022-.04043.0048-.06055.0078-.05722.0085-.113114.01898-.167968.0332-.0052.0013-.01042.0026-.01563.0039-.0629.01699-.124443.03846-.183594.0625-.01113.0044-.0222.009-.0332.01367-.04855.02105-.09512.0448-.140625.07031-.01514.0082-.03011.01669-.04492.02539-.04774.02891-.09303.06018-.136719.09375-.01389.01084-.02757.02191-.04102.0332-.03931.0325-.07599.06742-.111329.103515-.0079.0077-.01572.01554-.02344.02344-.04208.04504-.0817.09278-.117187.142578-.0033.0045-.0065.0091-.0098.01367-.03119.04495-.05861.09038-.08398.138672-.0067.01293-.01325.02595-.01953.03906-.02255.04665-.04373.09532-.06055.144532-.000865.0025-.0011.0053-.002.0078-.0049.0162-.0094.03248-.01367.04883-.01287.04429-.02325.08884-.03125.134766-.0028.01169-.0054.02341-.0078.03516-.0085.05872-.01362.118859-.01367.179688.000002.000026.000047.000025.00007.000037v3.632812h3v-2.263672c1.795777-.634898 2.997303-2.331626 3.000003-4.236328 0-2.485277-2.014723-4.5-4.5-4.5zm-1.5 13v3h3v-3z"/></g></svg>