<svg viewBox="0 0 32 32" xmlns="http://www.w3.org/2000/svg"><g fill="#555753" transform="translate(1)"><path d="m8 7v3h3v-3zm10 10v3h5v-3zm-10 5v3h15v-3z" opacity=".35"/><path d="m7 2c-1.108 0-2 .892-2 2v3.9335938l1.59375-1.3867188-.0546875.0507812c.1330684-.134629.2927957-.2410315.4609375-.3320312v-2.265625h13v7h5.757812.242188v8.242188.257812 8.5h-8.757812l-.121094.121094-.121094-.121094h-10v-10.269531c-.1642831-.089781-.3200321-.193145-.4511719-.324219-.4446103-.316422-.9917582-.774809-1.5488281-1.257812v11.851562c0 1.108.892 2 2 2h19c1.108 0 2-.892 2-2v-8.5-2.257812-7.742188c-.089943-.1947501-.195906-.4687762-.21875-.5234375-.879445-2.5093376-4.327944-6.9765625-7.78125-6.9765625zm1 5c-.3 0-.55232.1007814-.75.3007812l-4.25 3.6992188v2c1 .9 3.225834 2.999219 4.25 3.699219.19768.2.45.300781.75.300781h.5996094.4003906v-1c0-.256804-.12983-.527669-.3125-.699219l-2.5878906-2.300781h10.9003906v-2h-10.9003906l2.5878906-2.3007812c.18267-.1715402.3125-.4423288.3125-.6992188v-1h-.4003906zm5 0v3h4 2v-3zm5 5v1c-.000055.552262-.447738.999945-1 1h-8v.240234l.3515625.3125c.0073.0064.0144144.012922.0214844.019532.1373537.128991.2465252.274031.3417969.427734h10.2851562v-3zm-8 5c-.000055.552262-.447738.999945-1 1v2h9v-3z" transform="translate(-1)"/></g></svg>