<svg height="32" viewBox="0 0 32 32" width="32" xmlns="http://www.w3.org/2000/svg"><path d="m16 3a12 12 0 0 0 -12 12 12 12 0 0 0 .0507812 1h2.0097657a10 10 0 0 1 -.0605469-1 10 10 0 0 1 10-10 10 10 0 0 1 10 10 10 10 0 0 1 -8 9.787109l-2 .212891h-7.6835938l3.3710938-3.28125c.18267-.190301.341223-.463471.3125-.71875v-1h-.412109-.587891c-.30945 0-.55232.0903-.75.28125-1.41667 1.073009-4.83333 4.71875-6.25 5.71875l6.25 5.71875c.116881.23365.434856.28125.75.28125h.587891.412109v-1c0-.256892-.12983-.528462-.3125-.71875l-3.3710938-3.28125h7.6835938l2-.181641a12 12 0 0 0 10-11.818359 12 12 0 0 0 -12-12z" fill="#555753"/></svg>