<svg height="32" viewBox="0 0 32 32" width="32" xmlns="http://www.w3.org/2000/svg"><path d="m1 8v2 1h10v2h1 2v-3c.000005-1.4666633-1.199353-2.021333-2.666016-2zm19.666016 0c-1.466663.0000167-2.692683.5333367-2.666016 2v3h2 1v-2h10v-1-2zm-11.666016 7v3h8.775391c.548394-.610104 1.335906-1 2.224609-1h3v-2zm11.859375 4c-1.036154 0-1.859375.863535-1.859375 1.916016v7.183593c0 1.036462.824784 1.900391 1.960938 1.900391h7.466796c1.0414 0 1.572266-.863929 1.572266-1.900391v-7.183593c0-1.052481-.530878-1.916016-1.572266-1.916016zm-9.859375 1v2h-10v1 2h10.333984c1.466663.000017 2.666021-.52267 2.666016-2v-3h-2zm10 1h2l1.5 1.800781 1.5-1.800781h2v1l-2.083984 2.5 2.083984 2.5v1h-2l-1.5-1.800781-1.5 1.800781h-2v-1l2.099609-2.5-2.099609-2.5z" fill="#555753"/></svg>