<svg xmlns="http://www.w3.org/2000/svg" viewBox="0 0 32 32">
  <path
     style="fill:#ffffff"
     d="M 8 7 C 7.446 7 7 7.446 7 8 L 7 13 C 7 13.554 7.446 14 8 14 L 24 14 C 24.554 14 25 13.554 25 13 L 25 8 C 25 7.446 24.554 7 24 7 L 8 7 z M 7 18 L 7 30 L 25 30 L 25 18 L 7 18 z "
     />
  <path
     style="fill:#555753"
     d="M 5 3 C 3.892 3 3 3.892 3 5 L 3 28 C 3 29.108 3.892 30 5 30 L 7 30 L 7 18 L 25 18 L 25 30 L 27 30 C 28.108 30 29 29.108 29 28 L 29 5 C 29 3.892 28.108 3 27 3 L 5 3 z M 8 7 L 24 7 C 24.554 7 25 7.446 25 8 L 25 13 C 25 13.554 24.554 14 24 14 L 8 14 C 7.446 14 7 13.554 7 13 L 7 8 C 7 7.446 7.446 7 8 7 z M 11 21 C 10.446 21 10 21.446 10 22 L 10 29 C 10 29.554 10.446 30 11 30 L 21 30 C 21.554 30 22 29.554 22 29 L 22 22 C 22 21.446 21.554 21 21 21 L 11 21 z M 12 23 L 15 23 L 15 28 L 12 28 L 12 23 z "
     />
</svg>
