<svg viewBox="0 0 32 32" xmlns="http://www.w3.org/2000/svg"><g fill="#2e3436"><path d="m20 2h-12c-2.2159934 0-4 1.7840066-4 4v20c0 2.215994 1.7840066 4 4 4h15c2.215994 0 4-1.784006 4-4v-17c0-1-.262365-1.2638412-1-2l-4-4c-.689029-.7256436-1-1-2-1zm-12 2h11v4c0 1.1079956.892004 2 2 2h4v16c0 1.107997-.892003 2-2 2h-15c-1.1079967 0-2-.892003-2-2v-20c0-1.1079967.8920033-2 2-2z"/><path d="m10.5 14c-1.3849986 0-2.5 1.115001-2.5 2.5s1.1150014 2.5 2.5 2.5h10c1.384999 0 2.5-1.115001 2.5-2.5s-1.115001-2.5-2.5-2.5zm10 1a1.5 1.5 0 0 1 1.5 1.5 1.5 1.5 0 0 1 -1.5 1.5 1.5 1.5 0 0 1 -1.5-1.5 1.5 1.5 0 0 1 1.5-1.5z"/><ellipse cx="21.75" cy="15.083333" opacity=".99" rx=".25" ry=".083333"/><path d="m20.5 21c1.384999 0 2.5 1.115001 2.5 2.5s-1.115001 2.5-2.5 2.5h-10c-1.384999 0-2.5-1.115001-2.5-2.5s1.115001-2.5 2.5-2.5zm-10 1a1.5 1.5 0 0 0 -1.5 1.5 1.5 1.5 0 0 0 1.5 1.5 1.5 1.5 0 0 0 1.5-1.5 1.5 1.5 0 0 0 -1.5-1.5z" opacity=".35"/></g></svg>