<svg height="32" viewBox="0 0 32 32" width="32" xmlns="http://www.w3.org/2000/svg"><g fill="#2e3436"><path d="m7 4c-2.2159912 0-4 1.7840088-4 4v16c0 2.215992 1.7840088 4 4 4h7.599609a9.5 9.5 0 0 1 -1.439453-2h-6.160156c-1.1079967 0-2-.892003-2-2v-16c0-1.1079967.8920033-2 2-2h18c1.107997 0 2 .8920033 2 2v5.757812a9.5 9.5 0 0 1 2 1.916016v-7.673828c0-2.2159912-1.784008-4-4-4zm2 5c-1.1045662 0-2 .8954338-2 2 0 1.104566.8954338 2 2 2 1.104566 0 2-.895434 2-2 0-1.1045662-.895434-2-2-2zm4 1v2h8.5 3.5v-2zm-4 4c-1.1045662 0-2 .895434-2 2s.8954338 2 2 2c1.104566 0 2-.895434 2-2s-.895434-2-2-2zm4 1v2h.160156a9.5 9.5 0 0 1 1.439453-2zm-6 5v3h5.128906a9.5 9.5 0 0 1 -.128906-1.5 9.5 9.5 0 0 1 .128906-1.5z"/><path d="m21.5 14c-4.142136 0-7.5 3.357864-7.5 7.5s3.357864 7.5 7.5 7.5 7.5-3.357864 7.5-7.5-3.357864-7.5-7.5-7.5zm0 2c3.037566 0 5.5 2.462434 5.5 5.5s-2.462434 5.5-5.5 5.5-5.5-2.462434-5.5-5.5 2.462434-5.5 5.5-5.5zm-3.5 2v1l2 2v1.5c0 .277.223.5.5.5h1.5l2 2h1v-1l-2-2v-1.5c0-.277-.223-.5-.5-.5h-1.5l-2-2z"/></g></svg>