<svg viewBox="0 0 32 32" xmlns="http://www.w3.org/2000/svg"><g fill="#2e3436"><path d="m4 0v11c0 2.21599 1.784011 4 4 4h15c2.21599 0 4-1.78401 4-4v-11h-2v11c0 1.107995-.892005 2-2 2h-15c-1.1079945 0-2-.892005-2-2v-11zm4 17c-2.215989 0-4 1.78401-4 4v11h2v-11c0-1.107995.8920055-2 2-2h15c1.107995 0 2 .892005 2 2v11h2v-11c0-2.21599-1.78401-4-4-4z"/><path d="m11 6c0 .255922.09771.511769.292969.707031.39052.390525 1.02354.390524 1.414062 0l2.292969-2.292969v5.585938c0 .552285.447715 1 1 1s1-.447715 1-1v-5.585938l2.292969 2.292969c.390522.390524 1.023542.390525 1.414062 0 .390525-.390521.390524-1.023542 0-1.414062l-3.292969-3.292969-.716796-.716797h-.0039c-.185719-.180655-.434286-.282185-.693366-.283203-.260432.000004-.510589.101608-.697266.283203l-.0098.0098c-.01135.01145-.02242.02317-.0332.03516l-.673796.671837-3.292969 3.292969c-.195262.195261-.292969.451109-.292969.707031z"/><path d="m11 26c0-.255922.09771-.511769.292969-.707031.39052-.390525 1.02354-.390524 1.414062 0l2.292969 2.292969v-5.585938c0-.552285.447715-1 1-1s1 .447715 1 1v5.585938l2.292969-2.292969c.390522-.390524 1.023542-.390525 1.414062 0 .390525.390521.390524 1.023542 0 1.414062l-3.292969 3.292969-.716796.716797h-.0039c-.185719.180655-.434286.282185-.693366.283203-.260432-.000004-.510589-.101608-.697266-.283203l-.0098-.0098c-.01135-.01145-.02242-.02317-.0332-.03516l-.673796-.671837-3.292969-3.292969c-.195262-.195261-.292969-.451109-.292969-.707031z"/></g></svg>