<svg viewBox="0 0 32 32" xmlns="http://www.w3.org/2000/svg"><g fill="#2e3436"><path d="m15.5 6c-3.589851 0-6.5 2.9101491-6.5 6.5.00153 2.234503 1.150706 4.311578 3.042969 5.5h-.042969v1h7v-1h-.04883c1.894506-1.187019 3.046035-3.264345 3.04883-5.5 0-3.5898509-2.910149-6.5-6.5-6.5zm0 1c3.037566 0 5.5 2.4624339 5.5 5.5-.000203 2.066786-1.159065 3.95899-3 4.898438v-2.398438h1v-3h-1v2h-2v-2h-1v2h-2v-2h-1v3h1v2.392578c-1.839059-.938489-2.997596-2.827901-3-4.892578 0-3.0375661 2.462434-5.5 5.5-5.5zm-1.5 10h3v.789062c-.487878.139158-.992664.210144-1.5.210938-.507518-.002064-1.012307-.074365-1.5-.214844zm-2 3v1h7v-1zm0 2v1h7v-1zm1 2v2.103516h5v-2.103516z"/><path d="m20 2h-12c-2.2159934 0-4 1.7840066-4 4v20c0 2.215994 1.7840066 4 4 4h15c2.215994 0 4-1.784006 4-4v-17c0-1-.262365-1.2638412-1-2l-4-4c-.689029-.7256436-1-1-2-1zm-12 2h12l5 5v17c0 1.107997-.892003 2-2 2h-15c-1.1079967 0-2-.892003-2-2v-20c0-1.1079967.8920033-2 2-2z"/></g></svg>