<svg viewBox="0 0 32 32" xmlns="http://www.w3.org/2000/svg"><path d="m3 1c-1.108 0-2 .892-2 2v10c0 1.108.892 2 2 2h10c1.108 0 2-.892 2-2v-6c0-2-2-6-6-6zm15 0c-1.108 0-2 .892-2 2v10c0 1.108.892 2 2 2h10c1.108 0 2-.892 2-2v-6c0-2-2-6-6-6zm-15 2h6v5h4v5h-10zm15 0h6v5h4v5h-10zm-15 14c-1.108 0-2 .892-2 2v10c0 1.108.892 2 2 2h10c1.108 0 2-.892 2-2v-6c0-2-2-6-6-6zm15 0c-1.108 0-2 .892-2 2v10c0 1.108.892 2 2 2h10c1.108 0 2-.892 2-2v-6c0-2-2-6-6-6zm-15 2h6v5h4v5h-10zm15 0h6v5h4v5h-10z" fill="#555753"/></svg>