<svg viewBox="0 0 32 32" xmlns="http://www.w3.org/2000/svg"><g fill="#2e3436"><path d="m14.5 6c-.277 0-.5.223-.5.5v1c0 .277.223.5.5.5h14c.277 0 .5-.223.5-.5v-1c0-.277-.223-.5-.5-.5zm0 4c-.277 0-.5.223-.5.5v1c0 .277.223.5.5.5h12c.277 0 .5-.223.5-.5v-1c0-.277-.223-.5-.5-.5zm0 4c-.277 0-.5.223-.5.5v1c0 .277.223.5.5.5h10c.277 0 .5-.223.5-.5v-1c0-.277-.223-.5-.5-.5zm0 4c-.277 0-.5.223-.5.5v1c0 .277.223.5.5.5h8c.277 0 .5-.223.5-.5v-1c0-.277-.223-.5-.5-.5z"/><path d="m8 3.0001925c-.55228 0-1 .44772-1 1v18.9999995h-3-1v1h.006c-.002.26436.10186.51856.28711.70703l4 4c.39053.39037 1.02353.39037 1.41406 0l4-4c.18539-.18847.28911-.44267.28711-.70703h.00572v-1h-1-3v-18.9999995c0-.55228-.44772-1-1-1z"/></g></svg>