<svg viewBox="0 0 32 32" xmlns="http://www.w3.org/2000/svg"><path d="m16 5v6 2 6 2h7c.356035 0 .702135-.04058 1.037109-.111328l-.46289-.462891c-.403563-.403713-.574294-.926229-.574219-1.425781v-1h-4v-4h4c1.104569 0 2 .895431 2 2 0 .365911-.105764.70494-.277344 1h.277344c.499097 0 1.021863.170236 1.425781.574219l.896485.896484c.419473-.731646.677734-1.566872.677734-2.470703 0-2.761424-2.238576-5-5-5h-4v-6h-1zm-12 3v2 1h5.0546875.9453125 1v1 .949219.050781h-5c-2.209139 0-4 1.790861-4 4 0 1.142554.4857205 2.165636 1.2539062 2.894531l.1152344-.115234 2.0117188-2.011719c-.227012-.183315-.3808594-.453069-.3808594-.767578 0-.552285.4477153-1 1-1h5v2h-2v1c.0000753.499552-.1706557 1.022068-.5742188 1.425781l-.5742187.574219h4.1484375 2v-10.5-.5c0-1.104569-.895431-2-2-2h-.5-.5zm3 10c-.26529 0-.53057.09304-.71875.28125l-2.2050781 2.205078-1.7949219 1.794922-.28125.28125v.875l.28125.28125 1.7949219 1.794922 2.2050781 2.205078c.18818.18821.45346.28125.71875.28125h1v-1c.00004-.26531-.09314-.53057-.28125-.71875l-1.28125-1.28125-1-1h.5625 20 .5625l-1.470703 1.470703-.810547.810547c-.18811.18818-.28129.45344-.28125.71875v1h1c.26529 0 .53057-.09304.71875-.28125l1.013672-1.013672 2.986328-2.986328.28125-.28125v-.875l-.28125-.28125-2.986328-2.986328-1.013672-1.013672c-.18818-.18821-.45346-.28125-.71875-.28125h-1v1c-.00004.26531.09314.53057.28125.71875l.810547.810547 1.470703 1.470703h-.5625-20-.5625l1-1 1.28125-1.28125c.18811-.18818.28129-.45344.28125-.71875v-1z" fill="#555753"/></svg>