<svg viewBox="0 0 32 32" xmlns="http://www.w3.org/2000/svg"><g fill="#2e3436" fill-opacity=".992157"><path d="m7 3c-2.2159802 0-4 1.7840186-4 4v5.5h2v-2.5h6v2.5h1v-2.5h8v2.5h1v-2.5h6v2.5h2v-5.5c0-2.2159814-1.784018-4-4-4zm0 2h4v4h-6v-2c0-1.1079907.8920099-2 2-2zm5 0h8v4h-8zm9 0h4c1.107991 0 2 .8920093 2 2v2h-6zm-18 14v6c0 2.215982 1.7840198 4 4 4h18c2.215982 0 4-1.784018 4-4v-6h-2v2h-6v-2h-1v2h-8v-2h-1v2h-6v-2zm2 3h6v5h-4c-1.1079901 0-2-.892009-2-2zm7 0h8v5h-8zm9 0h6v3c0 1.107991-.892009 2-2 2h-4z"/><path d="m30 15h-5v2h5zm-6 0h-4v2h4zm-6 0h-4v2h4zm-6 0h-4v2h4zm-6 0h-4v2h4z"/></g></svg>