<svg viewBox="0 0 32 32" xmlns="http://www.w3.org/2000/svg"><g fill="#2e3436"><path d="m27 30h2v-12h-2z"/><path d="m7 3c-2.2159802 0-4 1.7840186-4 4v9h26v-9c0-2.2159814-1.784018-4-4-4zm0 2h4v4h-6v-2c0-1.1079907.8920099-2 2-2zm5 0h8v4h-8zm9 0h4c1.107991 0 2 .8920093 2 2v2h-6zm-16 5h6v5h-6zm7 0h8v5h-8zm9 0h6v5h-6z"/><path d="m22.003906 18.003906c-.25592 0-.511769.09771-.707031.292969-.390525.39052-.390524 1.023541 0 1.414063l3.289063 3.289062h-5.585938c-.552283 0-1 .447717-1 1s.447717 1 1 1h5.585938l-3.289063 3.289062c-.390524.390522-.390525 1.023543 0 1.414063.195262.195259.451111.292969.707031.292969.255922 0 .511771-.09771.707032-.292969l4.289062-4.289063.671875-.673828c.01199-.01078.02371-.02185.03516-.0332l.0098-.0098c.181557-.186645.283161-.436802.283165-.697234-.000004-.260432-.101608-.510589-.283203-.697266l-.0098-.0098c-.01145-.01135-.02317-.02242-.03516-.0332l-.671837-.673796-4.289062-4.289063c-.195261-.195262-.45111-.292969-.707032-.292969z"/><path d="m5 30h-2v-12h2z"/><path d="m9.996094 18.003906c.25592 0 .511769.09771.707031.292969.390525.39052.390524 1.023541 0 1.414063l-3.289063 3.289062h5.585938c.552283 0 1 .447717 1 1s-.447717 1-1 1h-5.585938l3.289063 3.289062c.390524.390522.390525 1.023543 0 1.414063-.195262.195259-.451111.292969-.707031.292969-.255922 0-.511771-.09771-.707032-.292969l-4.289062-4.289063-.671875-.673828c-.01199-.01078-.02371-.02185-.03516-.0332l-.0098-.0098c-.181557-.186645-.283161-.436802-.283165-.697234.000004-.260432.101608-.510589.283203-.697266l.0098-.0098c.01145-.01135.02317-.02242.03516-.0332l.671837-.673796 4.289062-4.289063c.195261-.195262.45111-.292969.707032-.292969z"/></g></svg>