<svg viewBox="0 0 32 32" xmlns="http://www.w3.org/2000/svg"><g fill="#2e3436"><path d="m3 18v12h2v-5h6v-2h-6v-5zm10 0c-1.104569 0-2 .895431-2 2s.895431 2 2 2 2-.895431 2-2-.895431-2-2-2zm6.5 0-8.5 10.5v1.5h1.5l8.5-10.5v-1.5zm7.5 0v5h-6v2h6v5h2v-12zm-8 8c-1.104569 0-2 .895431-2 2s.895431 2 2 2 2-.895431 2-2-.895431-2-2-2z"/><path d="m7 3c-2.2159802 0-4 1.7840186-4 4v9h26v-9c0-2.2159814-1.784018-4-4-4zm0 2h4v4h-6v-2c0-1.1079907.8920099-2 2-2zm5 0h8v4h-8zm9 0h4c1.107991 0 2 .8920093 2 2v2h-6zm-16 5h6v5h-6zm7 0h8v5h-8zm9 0h6v5h-6z"/></g></svg>