<svg height="32" viewBox="0 0 32 32" width="32" xmlns="http://www.w3.org/2000/svg"><g fill="#2e3436"><path d="m6.5 5c-1.9389905 0-3.5 1.784011-3.5 4v4.023438c.6444671.039003 1.3199662.155541 2 .474609v-.998047c0-1.384995.8920055-2.5 2-2.5h18c1.107995 0 2 1.115005 2 2.5v10c0 1.384995-.892005 2.5-2 2.5h-3.314453l.568359.394531c.696259.47873 1.284263.992093 1.714844 1.605469h1.53125c1.93899 0 3.5-1.78401 3.5-4v-14c0-2.215989-1.56101-4-3.5-4z"/><path d="m4.4915163 15.49491 16.6275247 11.546152c1.407669.967362 1.512007 1.483128 1.880959 2.958938h-21v-15c1 0 1.8609908.07412 2.4915163.49491zm.5084837 4.50509v7h10.5z"/></g></svg>