<svg height="32" viewBox="0 0 32 32" width="32" xmlns="http://www.w3.org/2000/svg"><g fill="#2e3436" transform="translate(5)"><path d="m19 1v6h7v-6zm2 2h3v2h-3zm-2 6v6h7v-6zm2 2h3v2h-3zm-12.828125.757812-1.4140625 1.414063 2.828125 2.828125-2.828125 2.828125 1.4140625 1.414063 2.828125-2.828126 2.828125 2.828126 1.414063-1.414063-2.828126-2.828125 2.828126-2.828125-1.414063-1.414063-2.828125 2.828126zm10.828125 5.242188v6h7v-6zm2 2h3v2h-3zm-2 6v6h7v-6zm2 2h3v2.5h-3z" transform="translate(-5)"/><path d="m5 1v2 6h2v-6h5v-2zm0 22v8h2 5v-2h-5v-6z" opacity=".35"/></g></svg>