<svg height="32" viewBox="0 0 32 32" width="32" xmlns="http://www.w3.org/2000/svg"><path d="m9 4c-2.7699912 0-5 2.2300084-5 5v14c0 2.769991 2.2300088 5 5 5h14c2.769991 0 5-2.230009 5-5v-14c0-2.7699916-2.230009-5-5-5zm3 7c.255859 0 .511719.09766.707031.292969.1875.1875.292969.441406.292969.707031s-.105469.519531-.292969.707031l-2.292968 2.292969h11.171875l-2.292969-2.292969c-.1875-.1875-.292969-.441406-.292969-.707031s.105469-.519531.292969-.707031c.195312-.195313.451172-.292969.707031-.292969s.511719.09766.707031.292969l4 4c.1875.1875.292969.441406.292969.707031s-.105469.519531-.292969.707031l-4 4c-.390622.390625-1.02344.390625-1.414062 0-.1875-.1875-.292969-.441406-.292969-.707031s.105469-.519531.292969-.707031l2.292969-2.292969h-11.171875l2.292968 2.292969c.1875.1875.292969.441406.292969.707031s-.105469.519531-.292969.707031c-.390622.390625-1.02344.390625-1.414062 0l-4.0000002-4c-.1875-.1875-.2929688-.441406-.2929688-.707031s.1054688-.519531.2929688-.707031l4.0000002-4c.195312-.195309.451172-.292969.707031-.292969z" fill="#2e3436"/></svg>