<svg height="32" width="32" xmlns="http://www.w3.org/2000/svg" xmlns:xlink="http://www.w3.org/1999/xlink"><radialGradient id="a" cx="10.903473" cy="14.502974" gradientTransform="matrix(-1.7081367 .09984734 -.154886 -2.9333957 34.424112 45.462192)" gradientUnits="userSpaceOnUse" r="6.225339" xlink:href="#e"/><radialGradient id="b" cx="11.657007" cy="32.018349" fx="11.657007" fy="32.018349" gradientTransform="matrix(.48166464 0 0 .07007569 1.885232 23.256292)" gradientUnits="userSpaceOnUse" r="15.571" xlink:href="#c"/><radialGradient id="c" cx="22.570999" cy="30.857" gradientTransform="matrix(.2802822 0 0 .07232336 11.343085 14.277223)" gradientUnits="userSpaceOnUse" r="15.571"><stop offset="0"/><stop offset="1" stop-opacity="0"/></radialGradient><radialGradient id="d" cx="19.996731" cy="30.567135" fx="19.996731" fy="30.567135" gradientTransform="matrix(.22477681 0 0 .07007569 20.005199 25.357987)" gradientUnits="userSpaceOnUse" r="15.571" xlink:href="#c"/><radialGradient id="e" cx="10.903473" cy="14.502974" gradientTransform="matrix(-1.2063324 .07952741 -.10938469 -2.3364203 24.195885 45.251108)" gradientUnits="userSpaceOnUse" r="6.225339"><stop offset="0" stop-color="#555"/><stop offset="1" stop-color="#666"/></radialGradient><g stroke-width=".485071"><ellipse cx="11.007935" cy="25.418037" fill="url(#b)" opacity=".4" rx="5.004672" ry="1.494603"/><ellipse cx="23.990986" cy="27.519732" fill="url(#d)" opacity=".4" rx="5.004672" ry="1.494603"/></g><g fill="url(#e)" stroke="#000" stroke-opacity=".6" stroke-width=".750002" transform="matrix(1.41597513 0 0 1.25550857 .163341 -11.350962)"><path d="m23.5 4.5v23h2v-11h3v-2h-3v-10zm-17.9726562 2.0292969v2h10.5000002c-.537711 5.9736911-4.174047 12.6478151-11.7968752 15.8730471l1.3925781 1.878906c9.4257381-4.094643 12.9042971-12.488168 12.9042971-19.7519531z" fill="url(#a)" stroke="#000" stroke-opacity=".6" stroke-width="1" transform="matrix(.70622709 0 0 .79648998 -.115356 9.040928)"/><path d="m23.5 4.5v1.5h2v-1.5zm-17.9726562 2.0292969v1.5h12.9453122c.03442-.4958349.054688-.9952905.054688-1.5zm10.2851562 3.5000001c-.982564 5.258237-4.611497 11.423802-11.5820312 14.373047l.8339843 1.125c7.0473919-3.208613 10.4454519-9.749572 10.9628909-15.498047zm9.1875 4.470703v1.5h3.5v-1.5z" fill="#fff" opacity=".2" stroke="none" transform="matrix(.70622709 0 0 .79648998 -.115356 9.040928)"/></g></svg>