<svg height="32" viewBox="0 0 8.4666665 8.4666669" width="32" xmlns="http://www.w3.org/2000/svg" xmlns:xlink="http://www.w3.org/1999/xlink"><radialGradient id="a" cx="11.657007" cy="32.018349" fx="11.657007" fy="32.018349" gradientTransform="matrix(.48166464 0 0 .07007569 1.885232 23.256292)" gradientUnits="userSpaceOnUse" r="15.571" xlink:href="#b"/><radialGradient id="b" cx="22.570999" cy="30.857" gradientTransform="matrix(.2802822 0 0 .07232336 11.343085 14.277223)" gradientUnits="userSpaceOnUse" r="15.571"><stop offset="0"/><stop offset="1" stop-opacity="0"/></radialGradient><radialGradient id="c" cx="19.996731" cy="30.567135" fx="19.996731" fy="30.567135" gradientTransform="matrix(.22477681 0 0 .07007569 20.005199 25.357987)" gradientUnits="userSpaceOnUse" r="15.571" xlink:href="#b"/><radialGradient id="d" cx="10.903473" cy="14.502974" gradientTransform="matrix(-.4519445 .02641794 -.04098025 -.7761276 9.108046 12.028538)" gradientUnits="userSpaceOnUse" r="6.225339"><stop offset="0" stop-color="#555"/><stop offset="1" stop-color="#666"/></radialGradient><linearGradient id="e" gradientTransform="matrix(.17371747 -.17457208 .19434174 .19337602 -3.894667 3.520017)" gradientUnits="userSpaceOnUse" x1="23.576" x2="23.576" y1="25.357" y2="31.211"><stop offset="0" stop-color="#181818"/><stop offset=".135" stop-color="#dbdbdb"/><stop offset=".202" stop-color="#a4a4a4"/><stop offset=".27" stop-color="#fff"/><stop offset=".447" stop-color="#8d8d8d"/><stop offset=".571" stop-color="#959595"/><stop offset=".72" stop-color="#cecece"/><stop offset="1" stop-color="#181818"/></linearGradient><linearGradient id="f" gradientTransform="matrix(.16880416 -.16963496 .22744377 .22631135 -4.531519 2.626783)" gradientUnits="userSpaceOnUse" x1="30.038" x2="30.038" xlink:href="#g" y1="24.99" y2="30"/><linearGradient id="g"><stop offset="0" stop-color="#565656"/><stop offset=".5" stop-color="#9a9a9a"/><stop offset="1" stop-color="#545454"/></linearGradient><linearGradient id="h" gradientTransform="matrix(.16880416 -.16963496 .22744377 .22631135 -4.579938 2.675467)" gradientUnits="userSpaceOnUse" x1="30.038" x2="30.038" xlink:href="#i" y1="24.99" y2="30"/><linearGradient id="i"><stop offset="0" stop-color="#b1b1b1"/><stop offset=".5" stop-color="#fff"/><stop offset="1" stop-color="#8f8f8f"/></linearGradient><linearGradient id="j" gradientTransform="matrix(.16880416 -.16963496 .22744377 .22631135 -4.363508 2.457979)" gradientUnits="userSpaceOnUse" x1="30.038" x2="30.038" xlink:href="#g" y1="24.99" y2="30"/><linearGradient id="k" gradientTransform="matrix(.16880416 -.16963496 .22744377 .22631135 -4.411927 2.506663)" gradientUnits="userSpaceOnUse" x1="30.038" x2="30.038" xlink:href="#i" y1="24.99" y2="30"/><linearGradient id="l" gradientTransform="matrix(.16880416 -.16963496 .22744377 .22631135 -4.194704 2.288646)" gradientUnits="userSpaceOnUse" x1="30.038" x2="30.038" xlink:href="#g" y1="24.99" y2="30"/><linearGradient id="m" gradientTransform="matrix(.16880416 -.16963496 .22744377 .22631135 -4.243123 2.337065)" gradientUnits="userSpaceOnUse" x1="30.038" x2="30.038" xlink:href="#i" y1="24.99" y2="30"/><linearGradient id="n" gradientTransform="matrix(.638 -.64114 .85963 .85535 -24.6 2.182)" gradientUnits="userSpaceOnUse" x1="9" x2="9" y1="29.056999" y2="26.030001"><stop offset="0" stop-color="#ece5a5"/><stop offset="1" stop-color="#fcfbf2"/></linearGradient><linearGradient id="o" gradientTransform="matrix(.56036 .0242 .02416 .55967 -1.392 -1.445)" gradientUnits="userSpaceOnUse" x1="5.518" x2="9.522" y1="37.372002" y2="41.391998"><stop offset="0" stop-color="#dbce48"/><stop offset="1" stop-color="#c5b625"/></linearGradient><g transform="translate(-.79375 -.79375)"><g stroke-width=".485071" transform="scale(.26458333)"><ellipse cx="11.007935" cy="25.418037" fill="url(#a)" opacity=".4" rx="5.004672" ry="1.494603"/><ellipse cx="23.990986" cy="27.519732" fill="url(#c)" opacity=".4" rx="5.004672" ry="1.494603"/></g><path d="m5.6885416 1.190625v6.0854166h.5291667v-2.9104167h.7937499v-.5291666h-.7937499v-2.6458333zm-4.2260986.5369181v.5291667h2.778125c-.1422693 1.5805391-1.1043832 3.346401-3.1212565 4.1997436l.368453.4971272c2.4938931-1.0833742 3.4142619-3.304161 3.4142619-5.2260375z" fill="url(#d)" stroke="#000" stroke-opacity=".6" stroke-width=".264583"/><path d="m5.6885416 1.190625v.396875h.5291667v-.396875zm-4.2260986.5369181v.396875h3.4251138c.00911-.1311896.01447-.2633373.01447-.396875zm2.7212809.9260417c-.25997 1.3912419-1.2201252 3.0225476-3.0644124 3.8028686l.2206584.2976563c1.8646224-.8489455 2.7636924-2.5795742 2.9005981-4.1005249zm1.9016927 1.1828735v.396875h.9260416v-.396875z" fill="#fff" opacity=".2"/></g><path d="m7.4178583 6.8834c-.052917-.00794-.093927-.0037-.1217084.00265l-3.664479.8432271-.6741583.155575-.020637.0037-.8202084.5781143 1.9568584-.051858.016404-.00397.6786557-.1553082 3.6639501-.8493125c.1103312-.0254-.053975-.1621895-.3685646-.3069164-.2354792-.1092731-.4876271-.1931461-.6455834-.2161645z" fill="#0c0c0c" fill-rule="evenodd" opacity=".15" stroke-width=".264583"/><path d="m2.9702126 6.4743539c.1180041-.088635.4489979.077523.7532687.3802065.3034771.301625.4630208.6249456.3767667.744273 0 0 .00741.00661.00714.00688l4.2359828-4.2566176c.1074208-.1084791-.0595313-.4497917-.3730625-.762-.3145896-.3122083-.657225-.4775729-.7643813-.3698875z" fill="url(#e)" stroke="#0c0c0c" stroke-linejoin="round" stroke-width=".132292"/><path d="m6.6891958 2.73685c.1180041-.088371.4489979.077788.7532687.3804708.3032125.301625.4630209.6249459.3765021.7442729 0 0 .00741.00661.00714.00688l.5169995-.5191133.010583-.010583c0-.0005292-.00741-.00661-.00714-.00714.0865154-.1190666-.0732929-.4418583-.37677-.7440124-.3042708-.3026834-.635-.4688417-.7532688-.3802063l-.0105833.0105833-.5169958.5196417z" fill="#ffb6ed" opacity=".8" stroke="#e28ccd" stroke-linejoin="round" stroke-width=".132292"/><g stroke-width=".264583"><path d="m2.9702126 6.4743542c.1180041-.088635.4489979.077523.7532687.3802063.3034771.301625.4630208.6249458.3767667.7442729 0 0 .00741.00661.00714.00688l2.9170311-2.9315833.010583-.010583s-.00794-.00635-.00741-.00688c.0867891-.1190628-.0732838-.4423837-.3767609-.7442733-.3042709-.3026833-.635-.4688416-.7532688-.3802062l-.010583.010583z" fill="#0c0c0c" opacity=".6"/><path d="m6.1097583 3.319198c.1180041-.088371.4489979.077523.7532687.3802063.3032125.3021541.4630208.6252104.3765021.7442729 0 .0005291.00741.00661.00714.00714l.052917-.052917c0-.0005292-.00794-.00661-.00741-.00714.0865238-.1190622-.0732845-.442383-.3767616-.7442726-.3042708-.3026833-.635-.4688417-.7532687-.3802063z" fill="url(#f)"/><path d="m6.0616041 3.3681459c.1177396-.0889.4487333.077258.7530042.3799417.303477.301625.4630208.6252104.3767666.7442729 0 0 .00741.00635.00714.00688l.052917-.052917c0-.0005292-.00794-.00688-.00714-.00714.0865185-.1195959-.0735545-.4426522-.3770316-.7445417-.3042708-.3026834-.635-.4688417-.7532687-.3802063z" fill="url(#h)"/><path d="m6.2777687 3.1503938c.1180041-.088371.4489979.077523.7532687.3802063.3034771.3021542.4630209.6252104.3767667.7442729 0 .0005292.00741.00661.00714.00714l.052917-.052917c0-.0005292-.00794-.00661-.00741-.00714.0865238-.1190622-.0732845-.442383-.3767616-.7442726-.3042708-.3026833-.635-.4688417-.7532687-.3802062z" fill="url(#j)"/><path d="m6.2293499 3.1988126c.1180042-.088371.4489979.077788.7532688.3804708.3037416.301625.46355.6252104.3770312.7442729 0 .0007938.00741.00688.00714.00741l.052917-.052917c0-.0005292-.00794-.00688-.00714-.00714.0865185-.1190675-.0735545-.4418592-.3770316-.7440134-.3042708-.3026833-.635-.4688417-.7532687-.3802062z" fill="url(#k)"/><path d="m6.4465728 2.9807959c.1180042-.088371.448998.077523.7532688.3802063.3034771.3021541.4630208.6252104.3767667.7442729 0 .0005292.00741.00661.00714.00714l.052917-.052917c0-.0005292-.00794-.00661-.00741-.00714.0865238-.1190622-.0732845-.442383-.3767616-.7442726-.3042709-.3026833-.635-.4688417-.7530042-.3802063z" fill="url(#l)"/><path d="m6.3981541 3.0294792c.1180042-.088635.4489979.077523.7532687.3802063.3032126.301625.4630209.6249458.3765021.7442729 0 0 .00741.00661.00714.00688l.052917-.052917c0-.0005291-.00794-.00661-.00714-.00714.0865185-.1190667-.0735545-.4423876-.3770316-.7442771-.3042708-.302948-.635-.4688417-.7532687-.3804709z" fill="url(#m)"/></g><g fill-rule="evenodd" stroke-width=".5" transform="scale(.26458333)"><path d="m.928 23.76 7.283-2.97.063-.06c.327-.452-.285-1.673-1.432-2.814-1.15-1.144-2.398-1.77-2.844-1.434z" fill="url(#n)" stroke="url(#o)" transform="translate(7.23 7.99)"/><path d="m8.99 29.78-.833 1.964 1.987-.815c-.16-.192-.306-.385-.498-.575-.22-.22-.436-.397-.657-.575z" fill="#0c0c0c" stroke="#0c0c0c"/></g></svg>