<svg height="32" width="32" xmlns="http://www.w3.org/2000/svg" xmlns:xlink="http://www.w3.org/1999/xlink"><linearGradient id="a" gradientUnits="userSpaceOnUse" x1="19.527" x2="19.722" y1="8.459" y2="-.829"><stop offset="0" stop-color="#fff"/><stop offset="1" stop-color="#fff" stop-opacity="0"/></linearGradient><linearGradient id="b" gradientTransform="matrix(.77941417 0 0 -.77941417 9.471496 9.422362)" gradientUnits="userSpaceOnUse" x1="19.527" x2="19.722" xlink:href="#a" y1="8.459" y2="-.829"/><linearGradient id="c" gradientUnits="userSpaceOnUse" x1="24.691116" x2="24.843102" xlink:href="#a" y1="30.169757" y2="22.930559"/><radialGradient id="d" cx="10.903473" cy="14.502974" gradientTransform="matrix(-1.2063324 .07952741 -.10938469 -2.3364203 24.195885 45.251108)" gradientUnits="userSpaceOnUse" r="6.225339"><stop offset="0" stop-color="#555"/><stop offset="1" stop-color="#666"/></radialGradient><g fill="url(#d)" stroke="#000" stroke-opacity=".6" stroke-width=".750002" transform="matrix(1.4159751 0 0 1.2555086 -4.864003 -11.38026)"><path d="m5.2006587 15.037938.0000001 1.592979 7.4153842.000001c-.379746 4.757985-2.9477921 8.481438-8.3312402 11.050303l.9828702 1.496644c6.656711-3.261342 9.113938-8.354395 9.113938-14.139927zm11.2996333-1.59298v16.726289h2.118681v-16.726289z" fill="url(#d)" stroke="#000" stroke-opacity=".6" stroke-width=".750002"/><path d="m26.527345 5.5292982-3-.0000005v1.5l3 .0000005zm-19.0005023 2.0006084v1.5h12.9453123c.03442-.4958349.05469-.9952905.05469-1.5zm10.2851563 3.5000004c-.982564 5.258237-4.611497 9.423801-11.5820309 12.373046l.8339843 1.125c7.0473916-3.208613 10.4454516-7.749571 10.9628906-13.498046z" fill="#fff" opacity=".2" stroke="none" transform="matrix(.70622709 0 0 .79648998 -.115356 9.040928)"/></g><path d="m23.501102 3.4998424-6.00189 6.0018897h12z" fill="#fcaf3e" stroke="#ce5c00" stroke-linecap="round" stroke-linejoin="round" stroke-width="1.000006"/><path d="m23.500951 4.7458771-3.586864 3.7708058 7.206464-.011691z" fill="none" stroke="url(#b)" stroke-opacity=".827" stroke-width=".999988"/><path d="m23.501102 29.499212-6.00189-5.99811h12z" fill="#fcaf3e" stroke="#ce5c00" stroke-linecap="round" stroke-linejoin="round" stroke-width="1.000006"/><path d="m23.500951 28.253178-3.586864-3.770806 7.206464.01169z" fill="none" stroke="url(#c)" stroke-opacity=".827" stroke-width=".999988"/></svg>