<svg height="32" width="32" xmlns="http://www.w3.org/2000/svg" xmlns:xlink="http://www.w3.org/1999/xlink"><linearGradient id="a" gradientUnits="userSpaceOnUse" x1="12.761326" x2="12.761326" xlink:href="#d" y1="33.638302" y2="11.638302"/><radialGradient id="b" cx="10.903473" cy="14.502974" gradientTransform="matrix(-1.2063324 .07952741 -.10938469 -2.3364203 24.195885 45.251108)" gradientUnits="userSpaceOnUse" r="6.225339" xlink:href="#d"/><radialGradient id="c" cx="10.903473" cy="14.502974" gradientTransform="matrix(-1.2811057 .0748857 -.11616479 -2.2000523 25.695643 39.591942)" gradientUnits="userSpaceOnUse" r="6.225339" xlink:href="#d"/><linearGradient id="d"><stop offset="0" stop-color="#555"/><stop offset="1" stop-color="#666"/></linearGradient><g transform="matrix(1.33333 0 0 1.33333 .163341 -11.350962)"><path d="m4.0233884 10.391741.0000001 1.500003 7.8750195.000001c-.403284 4.48028-3.1305085 7.98641-8.8476442 10.40534l1.0437924 1.40929c7.0693208-3.07099 9.6788568-7.866781 9.6788568-13.314634zm14.2291516-1.5034973v15.0000373h2.250005v-15.0180597z" fill="url(#c)" stroke="#000" stroke-opacity=".6" stroke-width=".750002"/><path d="m20.502545 8.8702217-2.250005.018022v1.1250034h2.250005zm-16.4795329 1.5219763v1.125003h9.7090079c.02582-.371877.04101-.74647.04101-1.125003zm7.7138859 2.625007c-.736924 3.943687-3.4586309 7.067869-8.6865446 9.279808l.6254898.843752c5.2855571-2.406466 7.8341078-5.812193 8.2221888-10.12356z" fill="#fff" opacity=".2"/><g fill="url(#b)" stroke="#000" stroke-opacity=".6" stroke-width=".750002" transform="translate(.002272 -4.500011)"><path d="m1.752716 29.885566.017578 2.234376h19.504467l-.01758-2.234376z" fill="url(#a)"/><path d="m2.1302176 30.242557-.00272.769013h18.7500494l-.01548-.759479z" fill="#fff" opacity=".2" stroke="none"/></g><path d="m1.752716 29.885566.017578 2.234376h19.504467l-.01758-2.234376z" fill="url(#a)"/><path d="m1.752716 29.885566.00414 2.252736h19.50447l-.0041-2.252736z" fill="none" opacity=".61" stroke="#000" stroke-width=".750002"/><path d="m2.1302176 30.242557-.00272.769013h18.7500494l-.01548-.759479z" fill="#fff" opacity=".2"/></g></svg>