<svg height="32" width="32" xmlns="http://www.w3.org/2000/svg" xmlns:xlink="http://www.w3.org/1999/xlink"><radialGradient id="a" cx="10.903473" cy="14.502974" gradientTransform="matrix(-1.2063324 .07952741 -.10938469 -2.3364203 24.195885 45.251108)" gradientUnits="userSpaceOnUse" r="6.225339" xlink:href="#b"/><linearGradient id="b"><stop offset="0" stop-color="#555"/><stop offset="1" stop-color="#666"/></linearGradient><linearGradient id="c" gradientUnits="userSpaceOnUse" x1="12.761326" x2="12.761326" xlink:href="#b" y1="33.638302" y2="11.638302"/><g transform="matrix(1.33333 0 0 1.33333 .163341 -11.350962)"><g fill="url(#a)" stroke="#000" stroke-opacity=".6" stroke-width=".750002" transform="scale(1.061984 .94163378)"><path d="m3.7885584 14.240962.0000001 1.592979 7.4153845.000001c-.379746 4.757985-2.9477927 8.481439-8.3312408 11.050304l.9828702 1.496644c6.6567116-3.261342 9.1139386-8.354396 9.1139386-14.139928zm13.4183146-1.59298v16.72629l2.099016-.02285v-16.72629z" fill="url(#a)" stroke="#000" stroke-opacity=".6" stroke-width=".750002"/><path d="m27.5 4.5-2.972656.0292969v1.5l2.972656-.0292969zm-21.9726562 2.0292969v1.5h12.9453122c.034424-.4958349.054688-.9952905.054688-1.5zm10.2851562 3.5000001c-.982564 5.258237-4.611497 9.423802-11.5820312 12.373047l.8339843 1.125c7.0473919-3.208613 10.4454519-7.749572 10.9628909-13.498047z" fill="#fff" opacity=".2" stroke="none" transform="matrix(.70622709 0 0 .79648998 -.115356 9.040928)"/></g><path d="m1.752716 29.885566.017578 2.234376h19.504467l-.01758-2.234376z" fill="url(#c)"/><path d="m1.752716 29.885566.00414 2.252736h19.50447l-.0041-2.252736z" fill="none" opacity=".61" stroke="#000" stroke-width=".750002"/><path d="m2.1302176 30.242557-.00272.769013h18.7500494l-.01548-.759479z" fill="#fff" opacity=".2"/></g></svg>