<svg viewBox="0 0 16 16" xmlns="http://www.w3.org/2000/svg"><path d="m12 0v2.5625l-.28125-.28125c-.18818-.18811-.45344-.28129-.71875-.28125h-1v1c0 .26529.09304.53057.28125.71875l2.28125 2.28125h.875l2.28125-2.28125c.18814-.18817.28122-.45344.28125-.71875v-1h-1c-.2653 0-.53058.0931-.71875.28125l-.28125.28125v-2.5625zm-4 1a7 7 0 0 0 -7 7 7 7 0 0 0 7 7 7 7 0 0 0 7-7 7 7 0 0 0 -.265625-1.8828125l-.882813.8828125h-1.703124l-2.5742192-2.5742188c-.095934-.0959186-.1756723-.1992262-.2460938-.3066406l-.1015625.4296875-.1933594.2226563-.875.4042968-.2480469.3691407-.5917968.1738281-.3984375.484375.5136719.2597656.2734374-.5136718.4511719.0820312.3085938-.2871094.3984375.2871094.1679687.4863281-.2285156.171875.5898437-.1445312-.0800781-.2519531.3359375.1699218-.4238281-.546875-.0527344-.3417968.8417969.0351562.193359 1.0527344h.335938l-.275391.6855468c-.245493-.0136824-.5345124-.0672969-.8671872-.1582031-.5603801-.1611856-.8449456-.2402345-.8496094-.2402343-.1973428-.0282796-.3925008-.0571774-.5898438-.0898438-.2272747-.0375291-.4172043-.1058634-.5664062-.2109375-.6310791.2688639-1.115468.4525136-1.4550782.5527344l-.203125 1.0429687.3027344.7167969 1.1679688.2792969.5253906.7558594c.2316054.8948842.3772345 1.7793922.4296875 2.6601562l.4511719.300781a5 5 0 0 1 -.6152344.042969 5 5 0 0 1 -5-5 5 5 0 0 1 5-5 5 5 0 0 1 .8183594.0722656l-.9492188.8378906.5664063.4921876.1875-.3007813.1347656.3828125.375-.3554688-.2402344-.1367187.2890625-.1503906c-.1204936-.2717245-.1816406-.5594137-.1816406-.8417969v-1.921875a7 7 0 0 0 -1-.078125zm-1.5292969 2.4921875-.140625.4882813.3691407-.0566407.2207031-.1699219-.0800781-.2617187zm1.1914063.5136719-.1015625.2617187.1816406.3359375.1679687.0585938-.2558593.3164062.2832031.0273438.3007812-.3164063zm-.34375.453125-.140625.2304687.0878906.2539063.1933594-.2246094zm.9804687 1.9765625.2539063.28125.0292968-.28125zm2.1445309 1.1171875.490235 1.1269531.861328-.3144531-.333984-.65625c.564719-.0588.859375-.0898438.886718-.0898438.0017 0 .478297.0520085.642578.0703125a5 5 0 0 1 .009766.3105469 5 5 0 0 1 -4.0214844 4.898438l.6660156-.583985c.1652115-.630883.2448719-1.328086.2402344-2.101562.2871294-.3598188.5741994-.7126588.8613284-1.0605472-.02559-.4838653-.177498-.9851626-.455078-1.5039063z" fill="#555753"/></svg>