<svg height="16" viewBox="0 0 4.2333332 4.2333335" width="16" xmlns="http://www.w3.org/2000/svg"><g fill="#2e3436" transform="translate(0 -292.76665)"><path d="m0 0v8h4.9941406 3.0058594v-8zm2 2h4.0000001l-.0000001 4-4 .0000001z" transform="matrix(.26458333 0 0 .26458333 0 292.76665)"/><g stroke-width=".264583"><path d="m.52916666 293.29582v1.05833h1.05833334v-1.05833z" opacity=".35"/><path d="m2.6954427 295.1479c-.1753394 0-.3141927.14525-.3141927.32246v1.20716c0 .17721.1388533.32246.3141927.32246h1.2733073c.1753394 0 .2645833-.14525.2645833-.32246v-1.20716c0-.17721-.089241-.32246-.2645833-.32246zm-.049609.26458h.2645834l.396875.39688.396875-.39688h.2645829v.26459l-.396875.39687.396875.39688v.26458h-.2645833l-.396875-.39688-.396875.39688h-.2645834v-.26458l.396875-.39688-.396875-.39687z"/></g></g></svg>