<svg height="54" viewBox="0 0 68 54" width="68" xmlns="http://www.w3.org/2000/svg"><g fill="#2e3436"><path d="m21.5 8c-1.384997 0-2.5 1.1150042-2.5 2.5v16c0 1.384997 1.115003 2.5 2.5 2.5h25c1.384997 0 2.5-1.115003 2.5-2.5v-16c0-1.3849958-1.115003-2.5-2.5-2.5zm.5 2h24c.553998 0 1 .446002 1 1v15c0 .553998-.446002 1-1 1h-24c-.553998 0-1-.446002-1-1v-15c0-.553998.446002-1 1-1zm-3 22v2h30v-2zm0 4v2h30v-2zm0 4v2h30v-2z"/><path d="m19 2c-3.323997 0-6 2.6760033-6 6v38c0 3.323997 2.676003 6 6 6h30c3.323997 0 6-2.676003 6-6v-38c0-3.3239967-2.676003-6-6-6zm0 2h30c2.215998 0 4 1.7840022 4 4v38c0 2.215998-1.784002 4-4 4h-30c-2.215998 0-4-1.784002-4-4v-38c0-2.2159978 1.784002-4 4-4z"/></g></svg>