<svg height="54" viewBox="0 0 68 54" width="68" xmlns="http://www.w3.org/2000/svg"><g fill="#555753"><path d="m3 2c-.554 0-1 .446-1 1v48c0 .554.446 1 1 1h62c.554 0 1-.446 1-1v-48c0-.554-.446-1-1-1zm1 2h60v46h-60z"/><g><path d="m7 6c-.554 0-1 .446-1 1v8c0 .554.446 1 1 1h11c.554 0 1-.446 1-1v-8c0-.554-.446-1-1-1zm1 2h9v6h-9z"/><path d="m9 9v1h3 1 3v-1zm0 2v2h3v-2zm4 0v2h3v-2z" opacity=".35"/><rect height="3" rx=".5" width="35" x="21" y="6"/><rect height="2" rx=".5" width="34" x="21" y="11"/><rect height="2" rx=".5" width="34" x="21" y="14"/><g transform="translate(0 15)"><path d="m7 6c-.554 0-1 .446-1 1v8c0 .554.446 1 1 1h11c.554 0 1-.446 1-1v-8c0-.554-.446-1-1-1zm1 2h9v6h-9z"/><path d="m9 9v1h3 1 3v-1zm0 2v2h3v-2zm4 0v2h3v-2z" opacity=".35"/><rect height="3" rx=".5" width="35" x="21" y="6"/><rect height="2" rx=".5" width="34" x="21" y="11"/><rect height="2" rx=".5" width="34" x="21" y="14"/></g><g transform="translate(0 30)"><path d="m7 6c-.554 0-1 .446-1 1v8c0 .554.446 1 1 1h11c.554 0 1-.446 1-1v-8c0-.554-.446-1-1-1zm1 2h9v6h-9z"/><path d="m9 9v1h3 1 3v-1zm0 2v2h3v-2zm4 0v2h3v-2z" opacity=".35"/><rect height="3" rx=".5" width="35" x="21" y="6"/><rect height="2" rx=".5" width="34" x="21" y="11"/><rect height="2" rx=".5" width="34" x="21" y="14"/></g></g></g></svg>