<svg height="54" viewBox="0 0 68 54" width="68" xmlns="http://www.w3.org/2000/svg"><g fill="#555753"><path d="m3 2c-.554 0-1 .446-1 1v48c0 .554.446 1 1 1h62c.554 0 1-.446 1-1v-48c0-.554-.446-1-1-1zm1 2h60v46h-60z"/><g><path d="m7 6c-.554 0-1 .446-1 1v10c0 .554.446 1 1 1h15c.554 0 1-.446 1-1v-10c0-.554-.446-1-1-1zm1 2h13v8h-13z"/><path d="m27 6c-.554 0-1 .446-1 1v10c0 .554.446 1 1 1h15c.554 0 1-.446 1-1v-10c0-.554-.446-1-1-1zm1 2h13v8h-13z"/><path d="m46 6c-.554 0-1 .446-1 1v10c0 .554.446 1 1 1h15c.554 0 1-.446 1-1v-10c0-.554-.446-1-1-1zm1 2h13v8h-13z"/><path d="m7 20c-.554 0-1 .446-1 1v10c0 .554.446 1 1 1h15c.554 0 1-.446 1-1v-10c0-.554-.446-1-1-1zm1 2h13v8h-13z"/><path d="m27 20c-.554 0-1 .446-1 1v10c0 .554.446 1 1 1h15c.554 0 1-.446 1-1v-10c0-.554-.446-1-1-1zm1 2h13v8h-13z"/><path d="m46 20c-.554 0-1 .446-1 1v10c0 .554.446 1 1 1h15c.554 0 1-.446 1-1v-10c0-.554-.446-1-1-1zm1 2h13v8h-13z"/><path d="m7 34c-.554 0-1 .446-1 1v10c0 .554.446 1 1 1h15c.554 0 1-.446 1-1v-10c0-.554-.446-1-1-1zm1 2h13v8h-13z"/><path d="m27 34c-.554 0-1 .446-1 1v10c0 .554.446 1 1 1h15c.554 0 1-.446 1-1v-10c0-.554-.446-1-1-1zm1 2h13v8h-13z"/><path d="m46 34c-.554 0-1 .446-1 1v10c0 .554.446 1 1 1h15c.554 0 1-.446 1-1v-10c0-.554-.446-1-1-1zm1 2h13v8h-13z"/></g></g></svg>