<svg viewBox="0 0 16 16" xmlns="http://www.w3.org/2000/svg"><path d="m0 1v1h6v-1zm10 0v1h6v-1zm4 5c-9.3333333-4-4.6666667-2 0 0zm-14-3v1h4v-1zm12 0v1h4v-1zm-12 2v1h1v-1zm15 0v1h1v-1zm-15 2v1h1v-1zm15 0v1h1v-1zm-15 2v1h3v-1zm13 0v1h3v-1zm-13 2v1h2v-1zm14 0v1h2v-1zm-14 2v1h1v-1zm15 0v1h1v-1zm-7.0009577-11c-.036468.0001879-.072036.00481-.1074218.00977-.0058.0008129-.011812.00102-.017578.00195-.00125.0001914-.00265-.0001973-.00391 0-.2912039.045835-.536804.2494853-.6328089.535155l-1.1445313 3.4296875-3.6953125.015625c-.4413049.0027-.7327398.3244697-.7871093.6855469-.0054.035879-.00916.073023-.00977.109375-.0001203.00389.0000645.00783 0 .011719-.0000834.036353.0009558.073162.00586.109375.025013.2058158.13141.4054971.3359375.5488278l2.9003943 2.0449219-1.1992187 3.4296879c-.2540498.720229.5507869 1.352006 1.1914062.935547l3.1660157-2.048829 3.1640625 2.048829c.640619.416459 1.445456-.215318 1.191406-.935547l-1.199218-3.4296879 2.90039-2.0449219c.204521-.1433257.308967-.3430195.333985-.5488281.0051-.037507.0081-.075634.0078-.1132812-.0029-.4049083-.308602-.7997466-.796875-.8027344l-3.6953003-.015625-1.144531-3.4296875c-.096-.2856697-.3435586-.4893202-.6347661-.5351562-.00382-.0006009-.00789.0005464-.011719 0-.0378954-.0056912-.0760747-.0115171-.1152341-.0117188-.0006576-.0000034-.0013.0000018-.00195 0z" fill="#2e3436"/></svg>