<svg height="21" viewBox="0 0 21 21" width="21" xmlns="http://www.w3.org/2000/svg"><path d="m0 3v2.8421053 12.3157897 2.842105h15.157895 2.842105v-2.842105-12.3157897c0-1.5745264-1.267579-2.8421053-2.842105-2.8421053h-11.8421055z" fill="#2e3436" opacity=".35"/><path d="m8.5 5c-3.6 0-6.5 2.9-6.5 6.5s2.9 6.5 6.5 6.5c.17 0 .3336709-.0079.5 0v-6h5.980469c.02-.17.019531-.33.019531-.5 0-3.6-2.9-6.5-6.5-6.5zm1.5 8v6c.9 0 1.769062-.330234 2.539062-.740234 1.920001-1.02 3.260938-2.959766 3.460938-5.259766z" fill="#fafafa"/></svg>