<svg height="42" viewBox="0 0 42 42" width="42" xmlns="http://www.w3.org/2000/svg"><path d="m4 42h6 26 6v-32-6h-6-26c-3.324 0-6 2.676-6 6v25z" fill="#2e3436" opacity=".35"/><path d="m14 10c-2.21598 0-4 1.784019-4 4v18c0 2.215982 1.78402 4 4 4h18c2.215982 0 4-1.784018 4-4v-18c0-2.215981-1.784018-4-4-4zm0 2h4v4h-6v-2c0-1.107991.89201-2 2-2zm5 0h8v4h-8zm9 0h4c1.107991 0 2 .892009 2 2v2h-6zm-16 5h6v5h-6zm7 0h8v5h-8zm9 0h6v5h-6zm-16 6h6v5h-6zm7 0h8v5h-8zm9 0h6v5h-6zm-16 6h6v5h-4c-1.10799 0-2-.892009-2-2zm7 0h8v5h-8zm9 0h6v3c0 1.107991-.892009 2-2 2h-4z" fill="#fafafa"/></svg>