<svg viewBox="0 0 16 16" xmlns="http://www.w3.org/2000/svg">
/&amp;amp;amp;amp;amp;amp;amp;gt;<path d="m1 0c-.554 0-1 .446-1 1v8c0 .554.446 1 1 1h.9003906c-.1124784-.1715838-.209-.3534633-.2988281-.5390625-.0823542-.1484866-.1466987-.304398-.2128906-.4609375h-.3886719v-1.5-.5-.5-5.5h7v3h1v-3c0-.554-.446-1-1-1z" fill="#fafafa"/><path d="m2.5 6c-.2510313 0-.5.223-.5.5v1c.2288559 2 1.7687126 3.5 4.5 3.515625v-.015625h3.619141l-1.9609379 1.654297c-.2117373.178597-.1958686.511163 0 .707031.1958685.195869.495294.178597.7070313 0l2.9042966-2.449219c.02561-.01723.05312-.02773.07617-.05078l.0039-.0039c.092658-.090664.150399-.216964.150399-.357429 0-.141635-.06028-.268568-.154297-.359375-.02428-.02428-.05298-.03686-.08008-.05469l-2.9003886-2.44531c-.1058687-.0892985-.2335491-.138466-.359375-.140625-.125826-.00216-.249722.042691-.3476563.140625-.1958686.1958686-.2117372.5284342 0 .7070312l1.9589849 1.6523438h-3.617188c-2 0-3.4062505-1-3.476563-2.8847656l-.023437-.6152344c-.0000005-.277-.2489687-.5-.5-.5z" fill="#1e8bcd"/><path d="m7 5c-.554 0-1 .446-1 1v2.4101562.5585938c.1586127.0181386.3216395.03125.5.03125h.5v-.5-.4980469-2.0019531h7v2.5 3.996094 1.503906h-.445312-2.199219-1.6972659l-.1484375.125c-.5426094.457682-1.4816215.520333-2.0585937-.056641-.021168-.021168-.0370179-.046115-.0566407-.068359h-.3945312v-1-.5-.003906-.496094h-.3320312a1.0001 1.0001 0 0 1 -.1738282.015625c-.1714054-.000981-.3285988-.025679-.4941406-.037109v.496093 1.525391c0 .554.446 1 1 1h7c.554 0 1-.446 1-1v-1.525391-4.0644528-2.4101562c0-.554-.446-1-1-1z" fill="#fafafa"/></svg>