<?xml version="1.0" encoding="UTF-8" standalone="no"?>
<svg
   height="64"
   viewBox="0 0 40.96 40.96"
   width="64"
   version="1.1"
   id="svg6"
   sodipodi:docname="prevslide_large.svg"
   inkscape:version="1.2.2 (unknown)"
   xmlns:inkscape="http://www.inkscape.org/namespaces/inkscape"
   xmlns:sodipodi="http://sodipodi.sourceforge.net/DTD/sodipodi-0.dtd"
   xmlns="http://www.w3.org/2000/svg"
   xmlns:svg="http://www.w3.org/2000/svg">
  <defs
     id="defs10" />
  <sodipodi:namedview
     id="namedview8"
     pagecolor="#ffffff"
     bordercolor="#000000"
     borderopacity="0.25"
     inkscape:showpageshadow="2"
     inkscape:pageopacity="0.0"
     inkscape:pagecheckerboard="0"
     inkscape:deskcolor="#d1d1d1"
     showgrid="false"
     inkscape:zoom="7.375"
     inkscape:cx="16.067797"
     inkscape:cy="16.067797"
     inkscape:window-width="1440"
     inkscape:window-height="828"
     inkscape:window-x="0"
     inkscape:window-y="0"
     inkscape:window-maximized="1"
     inkscape:current-layer="svg6" />
  <path
     d="M 20.48,0 A 20.480001,20.480001 0 0 1 40.96,20.48 20.480001,20.480001 0 0 1 20.48,40.96 20.480001,20.480001 0 0 1 0,20.48 20.480001,20.480001 0 0 1 20.48,0 Z m 0,5.4613333 A 15.018667,15.018667 0 0 0 5.4613333,20.48 15.018667,15.018667 0 0 0 20.48,35.498667 15.018667,15.018667 0 0 0 35.498667,20.48 15.018667,15.018667 0 0 0 20.48,5.4613333 Z m 6.8,2.728 a 1.3636378,1.3636378 0 0 1 0.696,0.1733334 1.3636378,1.3636378 0 0 1 0.696,1.1920003 v 1.368 a 1.3636378,1.3636378 0 0 1 -0.08,0.458666 L 25.341333,20.48 28.592,29.581333 A 1.3636378,1.3636378 0 0 1 28.672,30.04 v 1.36 a 1.3636378,1.3636378 0 0 1 -2.074667,1.162667 l -17.7519997,-10.92 a 1.3636378,1.3636378 0 0 1 -0.00267,-2.325334 L 26.592,8.392 A 1.3636378,1.3636378 0 0 1 27.28,8.1893333 Z"
     fill="#3a3a38"
     stroke-linecap="square"
     stroke-opacity="0.566502"
     stroke-width="1.36533"
     id="path2" />
  <path
     d="m 20.48,1.28 c 10.603869,0 19.2,8.5961329 19.2,19.2 0,10.603866 -8.596131,19.2 -19.2,19.2 -10.6038664,0 -19.2,-8.596134 -19.2,-19.2 0,-10.6038671 8.5961336,-19.2 19.2,-19.2 z m 0,2.7428569 c -9.089027,0 -16.4571407,7.3681141 -16.4571407,16.4571431 0,9.089029 7.3681137,16.457143 16.4571407,16.457143 9.089029,0 16.457143,-7.368114 16.457143,-16.457143 0,-9.089029 -7.368114,-16.4571431 -16.457143,-16.4571431 z m 6.857143,5.4857141 v 1.371428 L 23.908571,20.48 l 3.428572,9.6 v 1.371429 L 9.5085714,20.48 Z"
     fill="#fafafa"
     stroke-width="1.37143"
     id="path4" />
</svg>
