<?xml version="1.0" encoding="UTF-8" standalone="no"?>
<!-- Created with Inkscape (http://www.inkscape.org/) -->

<svg
   xmlns:dc="http://purl.org/dc/elements/1.1/"
   xmlns:cc="http://creativecommons.org/ns#"
   xmlns:rdf="http://www.w3.org/1999/02/22-rdf-syntax-ns#"
   xmlns:svg="http://www.w3.org/2000/svg"
   xmlns="http://www.w3.org/2000/svg"
   version="1.2"
   width="44"
   height="11"
   id="svg2">
  <defs
     id="defs4" />
  <metadata
     id="metadata7">
    <rdf:RDF>
      <cc:Work
         rdf:about="">
        <dc:format>image/svg+xml</dc:format>
        <dc:type
           rdf:resource="http://purl.org/dc/dcmitype/StillImage" />
        <dc:title></dc:title>
      </cc:Work>
    </rdf:RDF>
  </metadata>
  <g
     transform="translate(0,-1042.2329)"
     id="layer1">
    <g
       id="g12289">
      <path
         d="m 2,1042.2318 0,11 9,0 0,-4.0629 -1,1 0,2.0629 -7,0 0,-9 7,0 0,2.6871 1,-1 0,-2.6871 z"
         id="rect12049"
         style="fill:#000000;fill-opacity:0.39215686;stroke:none" />
      <path
         d="m 12.25,1045.0923 -4.25,4.25 -1.75,-1.7813 -0.71875,0.7188 2.484375,2.4531 4.953125,-4.9219 z"
         id="rect12076"
         style="fill:#4e9a06;fill-opacity:1;stroke:none" />
    </g>
    <g
       id="g12278">
      <path
         d="m 17,1.15625 0,11 9,0 0,-2 -1,0 0,1 -7,0 0,-9 7,0 0,1 1,0 0,-2 -9,0 z"
         transform="translate(0,1041.0756)"
         id="rect12049-5"
         style="fill:#000000;fill-opacity:0.39215686;stroke:none" />
      <g
         transform="matrix(0.88835382,0,0,0.85685397,6.4153812,149.84411)"
         id="text12229"
         style="font-size:13.79506969px;font-style:normal;font-variant:normal;font-weight:normal;font-stretch:normal;line-height:125%;letter-spacing:0px;word-spacing:0px;fill:#a40000;fill-opacity:1;stroke:none;font-family:Cantarell;-inkscape-font-specification:Cantarell">
        <path
           d="m 20.903735,1044.9725 0.124156,2.1382 -1.79336,-1.1864 -0.565597,1.0071 1.917514,0.9656 -1.917514,0.9519 0.565597,1.007 1.79336,-1.1863 -0.124156,2.1382 1.144991,0 -0.110361,-2.1382 1.793359,1.1863 0.565598,-1.007 -1.917515,-0.9519 1.917515,-0.9656 -0.565598,-1.0071 -1.793359,1.1864 0.110361,-2.1382 -1.144991,0"
           id="path12234" />
      </g>
    </g>
    <g
       id="g12283">
      <g
         id="g12293">
        <path
           d="m 32,1042.2329 0,11 9,0 0,-4.063 -1,1 0,2.063 -7,0 0,-9 7,0 0,2.687 1,-1 0,-2.687 z"
           id="rect12049-8"
           style="fill:#000000;fill-opacity:0.39215686;stroke:none" />
        <path
           d="m 42.25,1045.0922 -4.25,4.25 -1.75,-1.7812 -0.71875,0.7187 2.484375,2.4532 4.953125,-4.9219 z"
           id="rect12076-0"
           style="fill:#000000;fill-opacity:0.39215686;stroke:none" />
      </g>
    </g>
    <rect
       width="1"
       height="14"
       x="14"
       y="1041.2329"
       id="rect12399"
       style="fill:#5c3566;fill-opacity:1;stroke:none" />
    <rect
       width="1"
       height="14"
       x="29"
       y="1041.2329"
       id="rect12399-2"
       style="fill:#5c3566;fill-opacity:1;stroke:none" />
  </g>
</svg>
