<svg height="32" viewBox="0 0 32 32" width="32" xmlns="http://www.w3.org/2000/svg"><path d="m17 5v23h3v-1.201172l-1.384766-1.384766a2.0002 2.0002 0 0 1 1.384766-3.412109v-4.001953h4v-3h-4v-5a2.0002 2.0002 0 0 1 -1.414062-3.4140625l1.414062-1.4140625v-.171875zm-15 2v3h10.333984c-.06247 2.67591-.407011 4.982914-1.583984 7.724609-1.480365 3.448432-3.4605011 6.278095-8.75 6.275391v2.666016c6.710471.0035 9.172929-3.252666 11.068359-7.667969 1.895431-4.415305 2.020521-6.976042 1.931641-10.0546876v-1.9433594z" fill="#696969" fill-rule="evenodd" stroke-width="1.33333"/><g fill="none" stroke="#4d82b8" stroke-linecap="round" stroke-width="2"><path d="m25.0101 12.985757v-10"/><path d="m30.0101 7.999999-5-5-5 5" stroke-linejoin="round"/><path d="m25.0101 18.985758v10"/><path d="m30.0101 23.971516-5 5-5-5" stroke-linejoin="round"/></g></svg>