<svg height="32" viewBox="0 0 32 32" width="32" xmlns="http://www.w3.org/2000/svg"><g stroke-width=".125"><path d="m25.000915 21c.177112-.00015.351007-.04733.503907-.136719l6-3.5c.660237-.386164.660237-1.340398 0-1.726562l-6-3.5c-.1529-.089388-.326795-.136569-.503907-.136719h-1c-.552262.000055-.999945.447738-1 1v.349609c.000107.205523.06353.406023.181641.574219.529888.754039.815586 1.652682.81836 2.574219v.002.002c-.0018.923131-.287522 1.824685-.81836 2.580078-.118101.168135-.181524.368618-.181641.574125v.34375c.000055.552262.447738.999945 1 1zm0-1h-1v-.34375c.649603-.924399.9988-2.026428 1-3.15625-.0024-1.127821-.351543-2.227628-1-3.150391v-.349609h1l6.000001 3.5zm-5.499999 0c1.921152 0 3.499999-1.578848 3.499999-3.5s-1.578847-3.5-3.499999-3.5-3.5 1.578848-3.5 3.5 1.578848 3.5 3.5 3.5zm0-1c-1.380712 0-2.5-1.119288-2.5-2.5s1.119288-2.5 2.5-2.5 2.499999 1.119288 2.499999 2.5-1.119287 2.5-2.499999 2.5z" fill="#3a3a38"/><path d="m25.000915 20 6.000001-3.5-6.000001-3.5h-1v.349609c.648457.922763.997559 2.02257 1 3.150391-.0012 1.129822-.350397 2.231851-1 3.15625v.34375zm-5.499999-1c1.380712 0 2.499999-1.119288 2.499999-2.5s-1.119287-2.5-2.499999-2.5-2.5 1.119288-2.5 2.5 1.119288 2.5 2.5 2.5z" fill="#fafafa"/></g></svg>