<svg height="32" viewBox="0 0 32 32" width="32" xmlns="http://www.w3.org/2000/svg"><g transform="matrix(.125 0 0 .125 -5.823188 -2.5)"><path d="m54.59165 28v136.11062h48.03687v37.98229l30.08559-29.5383 24.66611 55.19564c5.74395 9.16889 26.09607 1.89071 19.87463-10.88335l-24.49409-56.5717h37.93537l-80.06146-83.876891v-48.418309z" fill="#fafafa"/><path d="m0 0v19.013672h5.0039062v-1h-4.0039062v-17.013672h7.0058594v3.0019531h.8554687.1464844v-4.0019531zm2 2v1h1v-1zm1 1v1.0039062h-.9980469v1h.9960938v1h-.9980469v1h1v.9960938h1.0019531v-.9960938h.9980469v.9960938h1.0019531v-1.0039062h-1.0019531v-.9921876h1v-1.0039062h-.9980469v-.9960938h1v-1.0039062h-1.0019531v1.0039062h-.9980469v1h.9960938v1h-.9980469v.9921876h-1v-.9921876h1v-1.0039062h-.9980469v-.9960938h1v-1.0039062h.9980469v-1h-1v1zm3.0019531 0h1v-.9980469l-1-.00195zm.00195 2.0039062v20.1425778l4.5859409-4.503906 2.410156 5.857422c.352278.562329.945897.867816 1.494141.953125.548245.08531 1.082404-.0032 1.568359-.222656.485954-.219398.943408-.584204 1.210938-1.140625.26753-.556429.261888-1.293992-.04297-1.919922l-.02344-.04883-2.128906-5.583985h5.275391l-12.9199192-13.5332008zm.9980469 1 11.0097659 11.5312498h-4.742188l3.060547 7.072266c.777679 1.596757-1.766379 2.505486-2.484375 1.359375l-3.082031-6.898438-3.7617189 3.691407zm-5 2.0019532v1h.9960969v.9941406h1.0019531v-1.0039062h-.9980469v-.9902344zm2 0v1h.9960969v.9941406h1.0019531v-1.0039062h-.9980469v-.9902344zm-2 2.0019526v1h.99805v.992188h1.0019531v-.992188h.9980469v.992188h1.0019531v-1.003906h-1v-.988282h-1v.988282h-1v-.988282zm0 2.001954v1h.9960969v.990234h1.0019531v-1.003906h-.9980469v-.986328zm2 0v1h.9960969v.990234h1.0019531v-1.003906h-.9980469v-.986328zm-2 2.001953v1h.99805v.984375h1.0019531v-.984375h.9980469v.984375h1.0019531v-1.001953h-1v-.982422h-1v.982422h-1v-.982422zm0 2v.988281h-.00195v1.003906h1.0019531v-.0078h.9980469v.0078h1.0019531v-.0078h.9980469v-1.001965h-.9980469v-.982422h-1v.988281h-.0019531v-.0059h-.9980469v-.982422z" fill="#3a3a38" stroke-width=".125" transform="matrix(8 0 0 8 46.585505 20)"/></g></svg>