<svg height="32" viewBox="0 0 8.4666665 8.4666669" width="32" xmlns="http://www.w3.org/2000/svg"><g transform="translate(0 -288.53332)"><g stroke-width=".264583"><path d="m1.5875 289.32708v6.87917h5.291037l.000635-5.02708-1.8520833-1.85209z" fill="#fafafa"/><path d="m1.5868703 289.0625c-.1465791 0-.2645833.118-.2645833.26458v6.87917c0 .14658.1180042.26458.2645833.26458h5.2916667c.1465792 0 .2361361-.12079.2645833-.26458v-2.67477-2.77952l-1.72193-1.68946zm0 .26458h3.4395834v1.5875c0 .17797.1300104.26459.2645833.26459h1.5875v5.02708h-5.2916667z" fill="#3a3a38"/><path d="m5.2916667 290.91458h1.5875l-1.5875-1.5875z" fill="#fafafa" fill-rule="evenodd"/></g><path d="m1.8520833 291.17917h4.7625001v4.7625h-4.7625001z" fill="#797774" stroke-width=".242535"/><path d="m2.1166667 291.44375h4.2333333v4.23333h-4.2333333z" fill="#fafafa" stroke-width=".242535"/><path d="m3.96875 292.50208a.79375.79375 0 0 1 -.79375.79375.79375.79375 0 0 1 -.79375-.79375.79375.79375 0 0 1 .79375-.79375.79375.79375 0 0 1 .79375.79375z" fill="#fb983b"/><path d="m5.4239584 292.89896-1.3229167 1.48001-.5291667-.42168s-1.326199 1.71979-1.4552083 1.71979h.2780191c.4266792-.482 1.1771892-1.4552 1.1771892-1.4552l.5291667.42167 1.3229167-1.48001.9260416.92604v-.26458z" fill="#0063b1" fill-rule="evenodd"/><path d="m5.4239584 293.16354-1.3229167 1.48001-.5291667-.42167s-.75051.9732-1.1771892 1.4552h3.9553142v-1.5875z" fill="#83beec" fill-rule="evenodd"/></g></svg>