<svg viewBox="0 0 16 16" xmlns="http://www.w3.org/2000/svg"><path d="m8 1a7 2 0 0 0 -7 2v10a7 2 0 0 0 7 2 7 2 0 0 0 .8671875-.017578l-2.3378906-2.330078.2109375.162109c-.8894051-.505351-.9504561-1.810085-.2089844-2.447265l2.9042969-2.9042974c.2710054-.2806605.6412911-.4447671 1.0312501-.4570312a1.0001 1.0001 0 0 1 .005859 0c.635925-.0160891 1.202424.3998953 1.419922.9160156.217499.5161203.119698 1.2123413-.335937 1.65625l-.431641.433594h3.875v-7.011719a7 2 0 0 0 -7-2zm3.134766 12.009766.429687.427734c.295428.293802.471679.738018.449219 1.138672-.001222.021803-.007647.041086-.009766.0625a7 2 0 0 0 2.994141-1.628906z" fill="#fff"/><path d="m8 0a8 3 0 0 0 -8 3v5 5a8 3 0 0 0 8 3 8 3 0 0 0 1.9765625-.097656c-.1971101-.076726-.3806415-.191996-.5273437-.337891a1.0001 1.0001 0 0 0 0-.001953l-.5820313-.580078a7 2 0 0 1 -.3710937.011719 7 2 0 0 1 -.4960938.005859 7 2 0 0 1 -7-2 7 2 0 0 1 .0292969-.169922 7 2 0 0 1 .0429687-.097656 7 2 0 0 1 .0507813-.09961 7 2 0 0 1 .0839843-.105468 7 2 0 0 1 .0761719-.085938 7 2 0 0 1 .1328125-.113281 7 2 0 0 1 .09375-.074219 7 2 0 0 1 .1738282-.109375 7 2 0 0 1 .1191406-.072265 7 2 0 0 1 .1953125-.095704 7 2 0 0 1 .171875-.082031 7 2 0 0 1 .1894531-.076172 7 2 0 0 1 .2265625-.083984 7 2 0 0 1 .2929687-.095703 7 2 0 0 1 .1367188-.041016 7 2 0 0 1 .3476562-.09375 7 2 0 0 1 .1992188-.048828 7 2 0 0 1 .3085938-.066406 7 2 0 0 1 .2480468-.052734 7 2 0 0 1 .3398438-.058594 7 2 0 0 1 .265625-.044922 7 2 0 0 1 .3476562-.046875 7 2 0 0 1 .3066406-.039063 7 2 0 0 1 .3496094-.035156 7 2 0 0 1 .265625-.02539 7 2 0 0 1 .0839844-.00586c.0757503-.274116.2296538-.520852.453125-.71289l.3320312-.332032a8 3 0 0 0 -.3808593.021485 8 3 0 0 0 -.2558594.021484 8 3 0 0 0 -.5117187.048828 8 3 0 0 0 -.2324219.029297 8 3 0 0 0 -.5527344.076172 8 3 0 0 0 -.1445313.023437 8 3 0 0 0 -.5761718.105469 8 3 0 0 0 -.1660156.035156 8 3 0 0 0 -.484375.111328 8 3 0 0 0 -.2246094.060547 8 3 0 0 0 -.4453125.126953 8 3 0 0 0 -.1132813.03711 8 3 0 0 0 -.5.175781 8 3 0 0 0 -.0332031.013672 8 3 0 0 0 -.96875.460937 8 3 0 0 0 -.2734375.166016v-3.548828a7 2 0 0 1 7-2 7 2 0 0 1 7 2v2 .011719h.449219c.182706-.009368.371115.025244.550781.083984v-.095703-3.3242188-3.6757812a8 3 0 0 0 -8-3zm0 1a7 2 0 0 1 7 2v3.5488281a8 3 0 0 0 -7-1.5488281 8 3 0 0 0 -7 1.5546875v-3.5546875a7 2 0 0 1 7-2zm8 11.923828c-.179666.058741-.368075.093352-.550781.083984l.050781.001954h-.501953a7 2 0 0 1 -2.994141 1.626953c-.036403.372947-.201675.688673-.433594.921875-.065776.06614-.154302.109585-.232421.164062a8 3 0 0 0 4.662109-2.722656z" fill="#808080"/><path d="m10.498049 8.0049722c-.130048.00409-.253371.058745-.34375.1523439l-2.9160159 2.9160149c-.3405645.189481-.3427598.678563-.00391.871094l2.9199219 2.910156c.472656.470054 1.177738-.23893.705082-.708984l-2.1445313-2.136719h6.7851563c.700353.03591.700353-1.033956 0-.998047h-6.7890626l2.1484376-2.1484368c.325515-.3171359.09299-.8689164-.361328-.857422z" fill="#4d82b8" fill-rule="evenodd"/></svg>