<svg viewBox="0 0 16 16" xmlns="http://www.w3.org/2000/svg"><g fill-rule="evenodd"><path d="m11 2.0000002c-.265199.0000511-.519519.1054326-.707031.2929688l-3.707031 1.7070312-5.585938-.0000002c-.5522619.0000552-.9999448.4477381-1 1.0000002v8.9999998h1 12l2.744519-7.007153c.297854-.992847.297854-.992847-.744519-.992847h-1v-3c-.000055-.5522619-.447738-.9999448-1-1zm0 1 2-.0000002v3h-8.9788136c-1.0211864 0-1.0211864 0-1.2796742.990786l-1.7415122 4.67523v-6.6660158l6 .0000002z" fill="#eac282"/><path d="m11 3.0000002-4 2.0000002-6-.0000002v6.6660158l1.7421875-4.675782c.2584878-.990786.2581105-.990234 1.2792969-.990234h8.9785156v-3z" fill="#fff"/></g><path d="m5 8v7c0 .554.446 1 1 1h9c.554 0 1-.446 1-1v-7h-1-9z" fill="#4d82b8"/><path d="m6 10h9v5h-9z" fill="#fff"/><g fill="#4d82b8"><path d="m8 11c-.554 0-1 .446-1 1v1c0 .554.446 1 1 1h1c.554 0 1-.446 1-1v-1c0-.554-.446-1-1-1zm0 1h1v1h-1z"/><rect height="1" ry=".5" width="3" x="11" y="11"/><rect height="1" ry=".5" width="3" x="11" y="13"/></g></svg>