<?xml version="1.0" encoding="UTF-8"?>
<svg width="1200pt" height="1200pt" version="1.1" viewBox="0 0 1200 1200" xmlns="http://www.w3.org/2000/svg">
 <path d="m404.4 499.2-32.398-102c-15.602-45.602-13.199-92.398 9.6016-136.8 22.801-40.801 60-73.199 106.8-87.602 44.398-15.602 93.602-10.801 135.6 13.199 43.199 21.602 73.199 58.801 88.801 104.4 9.6016 26.398 34.801 40.801 63.602 32.398 27.602-8.3984 44.398-37.199 36-64.801-24-70.801-73.199-129.6-141.6-165.6-66-33.602-142.8-40.801-214.8-18-73.199 22.801-132 73.199-168 140.4-33.602 64.801-39.602 142.8-18 214.8l24 75.602c-58.801 20.398-102 74.398-102 139.2v349.2c0 81.602 64.801 145.2 145.2 145.2h519.6c78 0 145.2-63.602 145.2-145.2l-0.003906-350.39c0-79.199-67.199-145.2-145.2-145.2h-452.4zm223.2 477.6c0 15.602-12 28.801-26.398 28.801-15.602 0-30-12-30-28.801l-0.003906-150c-34.801-12-58.801-43.199-58.801-82.801 0-45.602 39.602-85.199 88.801-85.199 45.602 0 84 39.602 84 85.199 0 39.602-24 70.801-57.602 82.801z"/>
</svg>
