<svg viewBox="0 0 16 16" xmlns="http://www.w3.org/2000/svg" xmlns:xlink="http://www.w3.org/1999/xlink"><linearGradient id="a" gradientTransform="matrix(-1 0 0 1 15 -9.000001)" gradientUnits="userSpaceOnUse" x1="5" x2="5" xlink:href="#e" y1="15" y2="9"/><linearGradient id="b" gradientTransform="translate(0 1)" gradientUnits="userSpaceOnUse" x1="-8" x2="-8" xlink:href="#e" y1="14" y2="13"/><linearGradient id="c" gradientTransform="translate(0 1)" gradientUnits="userSpaceOnUse" x1="-10" x2="-10" xlink:href="#e" y1="11" y2="10"/><linearGradient id="d" gradientTransform="matrix(-1 0 0 1 16 .999999)" gradientUnits="userSpaceOnUse" x1="5" x2="5" xlink:href="#e" y1="15" y2="9"/><linearGradient id="e" gradientTransform="translate(-32.610169 -7.932203)" gradientUnits="userSpaceOnUse" x1="14" x2="13.79661" y1="22" y2="2.135593"><stop offset="0" stop-color="#0040dd"/><stop offset="1" stop-color="#0a84ff"/></linearGradient><path d="m15 0v.999999h-1v4h1v1h-1-1-3v-1h1v-4h-1v-.999999h3 1zm-2 .999999h-1v4h1z" fill="url(#a)"/><rect fill="#eaeaea" fill-opacity=".992157" height="1" ry=".5" width="15" x="1" y="7.999999"/><path d="m9 10v1h1v4h-1v1h2 1 2 1 1v-1h-1v-4h1v-1h-1-1-2-1zm2 1h1v4h-1zm2 0h1v4h-1z" fill="url(#d)"/><g transform="translate(16)"><rect fill="#69696e" height="1" ry=".494008" width="8" x="-15" y="1"/><rect fill="#69696e" height="1" ry=".449153" width="4" x="-11" y="4"/><rect fill="url(#c)" height="1" ry=".415254" width="7.999999" x="-14.999999" y="11"/><rect fill="url(#b)" height="1" ry=".5" width="4" x="-11" y="14"/><g fill="#eaeaea" fill-opacity=".992157"><rect height="1" ry=".5" width="8" x="-15" y="2"/><rect height="1" ry=".458053" width="4" x="-11" y="5"/><rect height="1" ry=".466102" width="7.999999" x="-14.999999" y="12"/><rect height="1" ry=".5" width="4" x="-11" y="15"/></g></g><rect fill="#69696e" height="1" ry=".483051" width="15" x="1" y="6.999999"/></svg>