<svg height="16" viewBox="0 0 16 16" width="16" xmlns="http://www.w3.org/2000/svg" xmlns:xlink="http://www.w3.org/1999/xlink"><linearGradient id="a" gradientTransform="matrix(0 1.0659265 1.0659265 0 38.972588 -1.527412)" gradientUnits="userSpaceOnUse" x1="11.505208" x2="1.432943" y1="-22.082624" y2="-22.521057"><stop offset="0" stop-color="#2a9240"/><stop offset="1" stop-color="#32d74b"/></linearGradient><path d="m14.966797 0c.267428-.00865083.536251.09516673.728516.28125.192264.18608327.304598.45118214.304687.71875v9c-.000636.3841-.24283.757894-.59375.914062-.35092.156169-.790391.08672-1.076172-.169921l-4.9999999-4.5000004c-.2073594-.1871421-.3300781-.4648198-.3300781-.7441406s.1227187-.5569985.3300781-.7441406l4.9999999-4.50000002c.173545-.1564913.403171-.24794756.636719-.25585938z" fill="url(#a)"/><g stroke-width="2" transform="matrix(-1 0 0 1 16 0)"><path d="m16 8.9779644a7.0220361 7.0220361 0 0 1 -7.0220356 7.0220356 7.0220361 7.0220361 0 0 1 -7.0220361-7.0220356 7.0220361 7.0220361 0 0 1 7.0220361-7.0220361 7.0220361 7.0220361 0 0 1 7.0220356 7.0220361z" fill="#2a9240"/><path d="m13.957984 8.9569559a5.0010281 5.0010281 0 0 1 -5.0010281 5.0010281 5.0010281 5.0010281 0 0 1 -5.0010281-5.0010281 5.0010281 5.0010281 0 0 1 5.0010281-5.0010281 5.0010281 5.0010281 0 0 1 5.0010281 5.0010281z" fill="#32d74b"/><g fill="#fff"><rect height="10" rx=".84874" ry="1" width="2" x="7.955928" y="3.955928"/><rect height="2" rx="1" ry=".815126" width="10" x="3.955928" y="7.955928"/></g></g></svg>