<svg height="128" viewBox="0 0 128 128" width="128" xmlns="http://www.w3.org/2000/svg"><g transform="translate(832.57143 85.923541)"><g transform="translate(-832.57143 -85.923541)"><path d="m87.261719.00976563c-.209963 0-.419478.01684312-.626953.04882812-2.66247.852789-3.55843 4.90643905-1.50586 6.81250005l24.095704 24.2207032c2.22593 2.121657 6.65811.306214 6.77539-2.775391v-24.2207029c-.00024-2.113661-1.91299-4.03686935-4.01562-4.03710935h-24.095708c-.207595-.031985-.416991-.04882812-.626953-.04882812zm-69.261719.015625c-4.15175 0-6.01832 3.48502087-6 5.99804687v115.9687525c.0004 4.1875 1.81145 5.99764 6 5.99804h75.253906c-.477462-.90005-.753906-1.91725-.753906-2.99023v-18c0-3.3641 2.696503-6.12193 6-6.39648v-2.566411c-.004812-.462167.014707-.91868.056641-1.36914-.043885.450935-.073185.905701-.06836 1.36914v2.556641c-3.304269.28055-6 3.03992-6 6.40625v14.99609h-72.488281-2v-2-111.9999962-2h2 46.25.875l.5.5 41.75 42.0000002.625.625v.875 34.658203c-.09169.013797-.18036.037093-.27148.052734.74095-.12711 1.49759-.207031 2.27148-.207031 1.38954 0 2.73316.215149 3.99805.611328v-34.9375c.048-2.111901-.78003-4.232189-2.25-5.75l-42.162112-42.1484374c-1.51821-1.46918992-3.637563-2.29894099-5.75-2.24999997zm81.068359 94.04687537c-.114249.375401-.208818.758515-.291015 1.146484.080473-.388033.177215-.771387.291015-1.146484zm-.333984 1.375c-.075467.389495-.133727.784911-.173828 1.185546.038429-.401082.100117-.795485.173828-1.185546z" fill="#309048"/><path d="m18 5.9960938v2 111.9999962 2h2 72.488281v-14.99609c0-3.36633 2.695731-6.1257 6-6.40625v-2.556641c-.014517-1.394299.200685-2.73571.589844-4.001953.005454-.017792.012051-.034973.017578-.052734.122152-.391529.259322-.775048.416016-1.150391.019194-.046093.040849-.090883.060547-.136719.150696-.349785.314966-.691551.494144-1.02539.02725-.050923.05413-.10181.08203-.152344.18039-.325901.37389-.642349.58008-.951172.03336-.050116.06559-.100743.0996-.15039.19842-.288737.40905-.56775.62891-.839844.05613-.069681.11049-.14044.16797-.208984.22771-.270725.46685-.531042.71484-.783204.04456-.045436.08568-.093859.13086-.138672.25106-.24825.51349-.482628.78321-.710937.06163-.05233.11907-.108911.18164-.160156.28191-.230193.57504-.446859.875-.654297.04326-.03001.08333-.064231.12695-.09375.15892-.107546.32863-.199877.49219-.300781.18195-.111906.35947-.230524.54687-.333985.21598-.119613.44123-.222109.66406-.330078.15054-.072725.29769-.151475.45118-.21875.24015-.105557.4874-.195348.73437-.287109.13926-.051624.27668-.107163.41797-.154297.24803-.082914.49999-.154005.75391-.222656.15901-.042926.31736-.085841.47851-.123047.24825-.057378.49898-.10504.75196-.148438.09112-.015641.17979-.038937.27148-.052734v-34.658203-.875l-.625-.625-41.75-42.0000002-.5-.5h-.875-46.25z" fill="#fafafa"/><path d="m30.998047 47.996094v2 8 2 8 2 8 2 8 2 8 2h25v-2h-4.001953v-8h4.001953v-2h-4.001953v-8h4.001953v-2h-4.001953v-8h18v6h2.001953v-6h17v6h2v-28h-58zm2.001953 2.003906h17v8h-17zm19 0h18v8h-18zm20 0h17v8h-17zm-39.001953 9.996094h17v8h-17zm18.998047 0h18v8h-18zm20.001953 0h17v8h-17zm-39 10h17v8h-17zm0 10h17v8h-17zm0 10h17v8h-17z" fill="#309048"/></g><g fill="#fafafa"><path d="m-799.57265-35.928356h17v8h-17z"/><path d="m-780.57441-35.928356h17.99994v8h-17.99994z"/><path d="m-760.57265-35.928356h17v8h-17z"/></g><path d="m55.998047 75.996094v27.999996h39v-27.999996zm2 2h35v23.999996h-35z" fill="#309048" transform="translate(-832.57143 -85.923541)"/><path d="m-772.57265-.92835556h7v15.99990056h-7z" fill="#0063b1"/><path d="m-764.57265-5.9283556h7v20.9999006h-7z" fill="#d42314"/><path d="m-756.57265 5.0716444h7v9.9999006h-7z" fill="#ed8733"/><path d="m-748.57265 1.0716444h7v14.0000006h-7z" fill="#309048"/><path d="m-774.57265 15.071645h35v1h-35z" fill="none" opacity=".75"/><path d="m-763.57143-4.92354h5v19h-5z" fill="#ff9198" stroke-width=".803904"/><path d="m-755.57143 6.07646h5v8h-5z" fill="#f8db8f" stroke-width=".755933"/><path d="m-771.57143.07646h5v14h-5z" fill="#83beec" stroke-width=".790572"/><g fill="#a1ddaa"><path d="m-747.57143 2.07646h5v12h-5z" stroke-width=".782461"/><path d="m33 50v8h17v-8zm19 0v8h18v-8zm20 0v8h17v-8z" fill-opacity=".982993" transform="translate(-832.57143 -85.923541)"/></g></g><path d="m112 88c-5.52285 0-10.0575 4.477452-10 10v6h-3c-1.662 0-3 1.338-3 3v18c0 1.662 1.338 3 3 3h26c1.662 0 3-1.338 3-3v-18c0-1.662-1.33853-2.95787-3-3h-3v-6c0-5.522847-4.47715-10-10-10zm0 4c3.31371 0 6 2.686291 6 6v6h-12v-6c0-3.313709 2.68629-6 6-6z" fill="#ed8733"/><g fill-opacity=".978947"><path d="m98 106h28v20h-28z" fill="#f8db8f"/><path d="m112.5 109a4.5 4.5 0 0 0 -4.5 4.5 4.5 4.5 0 0 0 2 3.74023v4.75977c0 .554.446 1 1 1h3c.554 0 1-.446 1-1v-4.76172a4.5 4.5 0 0 0 2-3.73828 4.5 4.5 0 0 0 -4.5-4.5z" fill="#ed8733"/><path d="m112.5 110a3.5 3.5 0 0 0 -3.5 3.5 3.5 3.5 0 0 0 2 3.1582v4.8418c0 .277.223.5.5.5h2c.277 0 .5-.223.5-.5v-4.8418a3.5 3.5 0 0 0 2-3.1582 3.5 3.5 0 0 0 -3.5-3.5z" fill="#fafafa"/></g></svg>