<svg viewBox="0 0 16 16" xmlns="http://www.w3.org/2000/svg"><path d="m1 1v15h14v-15h-3.38983l-3.61017 1.4237288-3.5423729-1.4237288z" fill="#fff"/><path d="m0 0v4 7.984375 3.015625 1h8c-2.3692029-1.231556-4.610524-1.088435-7-1v-.708984-4.384766-1.3164062-2.2226563-2.3671875-3c5 0 6 1 7 2 1-1 2-2 7-2v5 1.1289062 6.4687498.402344 1c-2.487034-.123422-5.0702448-.184239-7 1h8v-2-3.703125-4.296875-6c-3 0-4 0-8 2-3-2-4-2-8-2z" fill="#808080"/><g fill="none" stroke="#e68497" stroke-linecap="round" stroke-linejoin="round" stroke-width=".942437" transform="matrix(1.0623613 0 0 1.0684896 -.498891 -.583728)"><path d="m2.8276144 13.172385 10.3447716-9.3447714"/><path d="m13.172386 13.172385-10.3447716-9.3447714"/></g></svg>