<svg viewBox="0 0 16 16" xmlns="http://www.w3.org/2000/svg"><path d="m1 1v15h14v-15h-3.38983l-3.61017 1.4237288-3.5423729-1.4237288z" fill="#fff"/><path d="m0 0v4 7.984375 3.015625 1h8c-2.3692029-1.231556-4.610524-1.088435-7-1v-.708984-4.384766-1.3164062-2.2226563-2.3671875-3c5 0 6 1 7 2 1-1 2-2 7-2v5 1.1289062 6.4687498.402344 1c-2.487034-.123422-5.0702448-.184239-7 1h8v-2-3.703125-4.296875-6c-3 0-4 0-8 2-3-2-4-2-8-2z" fill="#808080"/><path d="m7.9999997 3.999999c-2.2100007 0-3.9999997 1.9373333-3.9999997 4h2c0-1.0266666.9-2.1328125 1.9999997-2.1328125 1.1000003 0 2.0000003.8385678 2.0000003 1.8652344 0 .5133334-.219844.9804062-.589844 1.3164062l-1.240234 1.1757809c-.7200003.681334-1.1699223 1.327776-1.1699223 1.64258v.132812h2.0000003c0-.4.449922-.627261 1.169922-1.308594l.90039-.8574226c.570001-.532.929688-1.2802291.929688-2.1015625 0-2.0626667-1.79-3.7324219-4.0000003-3.7324219zm-1 9.000001v2h2.0000003v-2z" fill="#4d82b8"/></svg>