<svg height="64" width="64" xmlns="http://www.w3.org/2000/svg" xmlns:xlink="http://www.w3.org/1999/xlink"><linearGradient id="a" gradientTransform="matrix(3.9998072 0 0 3.9988898 -436.9764 -3904.3838)" gradientUnits="userSpaceOnUse" x1="122.75008" x2="111.74973" xlink:href="#b" y1="991.62115" y2="977.11713"/><linearGradient id="b"><stop offset="0" stop-color="#535353"/><stop offset="1" stop-color="#7e7e7e"/></linearGradient><linearGradient id="c" gradientUnits="userSpaceOnUse" x1="450" x2="354" y1="128" y2="0"><stop offset="0" stop-color="#0369a3"/><stop offset="1" stop-color="#1c99e0"/></linearGradient><linearGradient id="d" gradientTransform="matrix(1.74999 0 0 1.6513 -218.74999 -1879.2822)" gradientUnits="userSpaceOnUse" x1="382.14505" x2="327.85901" xlink:href="#b" y1="1215.5769" y2="1138.0544"/><linearGradient id="e" gradientTransform="matrix(0 .539377 -.888908 0 1376.52 -152.96221)" gradientUnits="userSpaceOnUse" x1="445.69522" x2="441.38797" y1="1103.5776" y2="1099.8198"><stop offset="0" stop-color="#e9b913"/><stop offset="1" stop-color="#ff0"/></linearGradient><path d="m9.6266073.000051c-.12518 0-.25035.0056-.37499.01758-1.83351.349901-2.28285 1.133123-2.24997 2.999025v57.984264c.0002 2.09375.90573 2.99883 2.9999597 2.99903h43.9984c2.09422-.0002 2.99878-.90528 2.99898-2.99903v-35.909069c.024-1.05595-.39002-2.115124-1.12498-2.874025l-21.07975-21.075198c-.75909-.7346-1.81877-1.14945-2.87496-1.125h-21.91769c-.1245997-.012-.2498097-.01758-.3749997-.01758zm33.0044397.0068c-.10498 0-.20974.0084-.31347.02441-1.33122.4264-1.77919 2.452275-.75292 3.405273l12.04766 12.110393c1.11295 1.060849 3.329.153103 3.38764-1.387697v-12.110351c-.00012-1.05685-.95647-2.017428-2.00778-2.017577h-12.04669c-.10378-.016-.20946-.02441-.31444-.02441z" fill="url(#a)"/><path d="m10.000637 3.000051v57.999899h43.99937v-35.999899l-21.99965-22z" fill="#fff"/><g transform="translate(-349.99837 -54)"><path d="m384 84v11h16v-11zm1 1h14v9h-14z" fill="url(#c)"/><path d="m389.08398 87-4.08398 5.923828v1.076172h14v-1.076172l-2.91602-3.232422-2.91796 2.154297z" fill="url(#d)"/><path d="m398.99903 89.09507c-2.30123-.000003-4.16675-1.831569-4.16675-4.09092h4.16675z" fill="url(#e)" opacity=".74"/></g><g transform="translate(-367.99837 -54)"><path d="m384 84v11h16v-11zm1 1h14v9h-14z" fill="url(#c)"/><path d="m389.08398 87-4.08398 5.923828v1.076172h14v-1.076172l-2.91602-3.232422-2.91796 2.154297z" fill="url(#d)"/><path d="m398.99903 89.09507c-2.30123-.000003-4.16675-1.831569-4.16675-4.09092h4.16675z" fill="url(#e)" opacity=".74"/></g><g transform="translate(-349.99837 -40)"><path d="m384 84v11h16v-11zm1 1h14v9h-14z" fill="url(#c)"/><path d="m389.08398 87-4.08398 5.923828v1.076172h14v-1.076172l-2.91602-3.232422-2.91796 2.154297z" fill="url(#d)"/><path d="m398.99903 89.09507c-2.30123-.000003-4.16675-1.831569-4.16675-4.09092h4.16675z" fill="url(#e)" opacity=".74"/></g><g transform="translate(-367.99837 -40)"><path d="m384 84v11h16v-11zm1 1h14v9h-14z" fill="url(#c)"/><path d="m389.08398 87-4.08398 5.923828v1.076172h14v-1.076172l-2.91602-3.232422-2.91796 2.154297z" fill="url(#d)"/><path d="m398.99903 89.09507c-2.30123-.000003-4.16675-1.831569-4.16675-4.09092h4.16675z" fill="url(#e)" opacity=".74"/></g></svg>