<svg viewBox="0 0 64 64" xmlns="http://www.w3.org/2000/svg" xmlns:xlink="http://www.w3.org/1999/xlink"><linearGradient id="a" gradientTransform="matrix(.357143 0 0 -.666665 -144.46488 -665.7568)" gradientUnits="userSpaceOnUse" x1="525.63947" x2="525.63947" y1="-1078.6444" y2="-1068.7872"><stop offset="0" stop-color="#8ee780"/><stop offset="1" stop-color="#ccf4c6"/></linearGradient><linearGradient id="b" gradientTransform="matrix(.357143 0 0 -.444442 -148.46488 -426.1718)" gradientUnits="userSpaceOnUse" x1="525.63947" x2="525.63947" y1="-1078.6444" y2="-1068.7872"><stop offset="0" stop-color="#f5ce53"/><stop offset="1" stop-color="#fde9a9"/></linearGradient><linearGradient id="c" gradientTransform="matrix(.357143 0 0 -1.055555 -152.46488 -1085.0318)" gradientUnits="userSpaceOnUse" x1="525.63947" x2="525.63947" y1="-1078.6444" y2="-1068.7872"><stop offset="0" stop-color="#f09e6f"/><stop offset="1" stop-color="#f9cfb5"/></linearGradient><linearGradient id="d" gradientUnits="userSpaceOnUse" x1="37.327745" x2="37.327745" y1="47.5149" y2="42.9993"><stop offset="0" stop-color="#a33e03"/><stop offset="1" stop-color="#c15414"/></linearGradient><linearGradient id="e" gradientTransform="matrix(.357143 0 0 -.777775 -156.46488 -785.5518)" gradientUnits="userSpaceOnUse" x1="525.63947" x2="525.63947" y1="-1078.6444" y2="-1068.7872"><stop offset="0" stop-color="#63bbee"/><stop offset="1" stop-color="#aadcf7"/></linearGradient><linearGradient id="f" gradientTransform="matrix(.474359 0 0 .65 -363.19288 745.8637)" gradientUnits="userSpaceOnUse" x1="829.36053" x2="829.36053" y1="-1064.7994" y2="-1082.3413"><stop offset="0" stop-color="#e4e4e4"/><stop offset="1" stop-color="#f9f9f9"/></linearGradient><linearGradient id="g" gradientUnits="userSpaceOnUse" x1="35.03087" x2="35.03087" y1="54.99925" y2="41.99925"><stop offset="0" stop-color="#727272"/><stop offset="1" stop-color="#9a9a9a"/></linearGradient><linearGradient id="h" gradientUnits="userSpaceOnUse" x1="54" x2="10" y1="61" y2="3"><stop offset="0" stop-color="#18a303"/><stop offset="1" stop-color="#43c330"/></linearGradient><path d="m13 6v52h38v-40l-12-12z" fill="#fff"/><path d="m14 3c-2.216 0-4 1.784-4 4v50c0 2.216 1.784 4 4 4h36c2.216 0 4-1.784 4-4v-39.882813c0-.774519-.13721-1.068195-.5625-1.546875l-12.04688-12.109375c-.3192-.3164-.69348-.462417-1.17968-.460937zm-1 3h26v9.960937c.00012 1.0568.95645 2.015506 2.00781 2.015625h9.99219v40.023438h-38zm2.5 20.999023v1 4 1 3.999997 1 4 1 4 1 4.00001 1h30v-1-25.000006h-29-1z" fill="url(#h)"/><g fill="#92e285"><path d="m16.49962 27.9993h8.5v4h-8.5z"/><path d="m25.99874 27.9993h8.99997v4h-8.99997z"/><path d="m35.99962 27.9993h8.5v4h-8.5z"/></g><g fill="#ccf4c6"><path d="m16.49962 32.9993h8.5v4h-8.5z"/><path d="m35.99962 32.9993h8.5v4h-8.5z"/><path d="m25.99874 37.9993h8.99997v4h-8.99997z"/><path d="m35.99962 37.9993h8.5v4h-8.5z"/><path d="m16.49962 37.9993h8.5v4h-8.5z"/><path d="m25.99874 42.9993h8.99997v4h-8.99997z"/><path d="m16.49962 42.9993h8.5v4h-8.5z"/><path d="m25.99874 47.9993h8.99997v4h-8.99997z"/><path d="m16.49962 47.9993h8.5v4h-8.5z"/></g><path d="m27.99962 40.9993h19.5v14h-19.5z" fill="url(#g)"/><path d="m28.99962 41.9993h17.5v12h-17.5z" fill="url(#f)"/><path d="m29.99962 45.4993h3.5v7.99995h-3.5z" fill="#0369a3"/><path d="m30.49962 52.9993h2.5v-7h-2.5z" fill="url(#e)"/><path d="m33.99962 42.9993h3.5v10.49995h-3.5z" fill="url(#d)"/><path d="m34.49962 52.9993h2.5v-9.5h-2.5z" fill="url(#c)"/><path d="m37.99962 48.4993h3.5v4.99995h-3.5z" fill="#c99c00"/><path d="m38.49962 52.9993h2.5v-4h-2.5z" fill="url(#b)"/><path d="m41.99962 46.4993h3.5v7h-3.5z" fill="#43c330"/><path d="m42.49962 52.9993h2.5v-6h-2.5z" fill="url(#a)"/><path d="m25.99874 32.9993h8.99997v4h-8.99997z" fill="#ccf4c6"/></svg>