<svg height="64" width="64" xmlns="http://www.w3.org/2000/svg" xmlns:xlink="http://www.w3.org/1999/xlink"><linearGradient id="a" gradientTransform="matrix(0 .35958529 -.60444457 0 710.70173 -128.64269)" gradientUnits="userSpaceOnUse" x1="445.69522" x2="441.38797" y1="1103.5776" y2="1099.8198"><stop offset="0" stop-color="#e9b913"/><stop offset="1" stop-color="#ff0"/></linearGradient><linearGradient id="b" gradientTransform="matrix(1.9832535 0 0 1.7777809 -655.22021 -2053.6697)" gradientUnits="userSpaceOnUse" x2="0" y1="1173" y2="1178"><stop offset="0" stop-color="#0369a3"/><stop offset="1" stop-color="#023f62"/></linearGradient><linearGradient id="c" gradientTransform="matrix(.56665262 0 0 .55555709 -130.22806 389.79924)" gradientUnits="userSpaceOnUse" x2="0" y1="-629.66907" y2="-635.54944"><stop offset="0" stop-color="#18a303"/><stop offset="1" stop-color="#106802"/></linearGradient><linearGradient id="d" gradientTransform="matrix(1.9832535 0 0 1.7777809 -655.22021 -2055.8924)" gradientUnits="userSpaceOnUse" x2="0" xlink:href="#e" y1="1173" y2="1178"/><linearGradient id="e"><stop offset="0" stop-color="#666"/><stop offset="1" stop-color="#333"/></linearGradient><linearGradient id="f" gradientTransform="matrix(-1.9832535 0 0 1.7777809 730.22343 -2056.447)" gradientUnits="userSpaceOnUse" x2="0" xlink:href="#e" y1="1173" y2="1178"/><linearGradient id="g" gradientTransform="matrix(2.1249532 0 0 1.6666667 -442.73809 999.3943)" gradientUnits="userSpaceOnUse" x2="0" y1="-581.63782" y2="-578.63782"><stop offset="0" stop-color="#63bbee"/><stop offset="1" stop-color="#aadcf7"/></linearGradient><linearGradient id="h" gradientTransform="translate(-303.99837 -64)" gradientUnits="userSpaceOnUse" x1="358" x2="314" xlink:href="#i" y1="125" y2="67"/><linearGradient id="i" gradientTransform="translate(0 20)" gradientUnits="userSpaceOnUse" x1="129" x2="103" y1="56" y2="24"><stop offset="0" stop-color="#535353"/><stop offset="1" stop-color="#7e7e7e"/></linearGradient><linearGradient id="j" gradientTransform="matrix(3.9998072 0 0 3.9988898 -436.9764 -3904.3837)" gradientUnits="userSpaceOnUse" x1="122.75008" x2="111.74973" y1="991.62115" y2="977.11713"><stop offset="0" stop-color="#0369a3"/><stop offset="1" stop-color="#1c99e0"/></linearGradient><linearGradient id="k" gradientTransform="matrix(3.9998072 0 0 3.9988898 -436.9764 -3904.3837)" gradientUnits="userSpaceOnUse" x1="122.75008" x2="111.74973" xlink:href="#i" y1="991.62115" y2="977.11713"/><path d="m9.6266073.000101c-.12518 0-.25036.0056-.375.01758-1.83351.349901-2.28284 1.133123-2.24996 2.999025v57.984264c.0002 2.09375.90573 2.99883 2.9999497 2.99903h43.99841c2.09422-.0002 2.99877-.90528 2.99897-2.99903v-35.90907c.024-1.05595-.39001-2.115123-1.12498-2.874024l-21.07975-21.075198c-.75908-.7346-1.81876-1.14945-2.87495-1.125h-21.9177c-.1245897-.012-.2497897-.01758-.3749897-.01758z" fill="url(#k)"/><path d="m42.631037.0069c-.10498 0-.20973.0084-.31347.02441-1.33121.4264-1.77918 2.452274-.75291 3.405272l12.04766 12.110353c1.11294 1.06085 3.329.153104 3.38764-1.387697v-12.11035c-.00012-1.05685-.95648-2.017428-2.00778-2.017578h-12.04669c-.10379-.016-.20947-.02441-.31445-.02441z" fill="url(#j)"/><path d="m10.000627 3.000101v57.999899h43.99938v-35.999899l-21.99965-22z" fill="#fff"/><path d="m16.001627 27.998047v2h9v-2zm11 .002v14.000003h21v-14.000003zm2 2h17v10.000003h-17zm-13 1.998047v2h9v-2zm0 4v2.000006h9v-2.000006zm0 4.000006v2h9v-2zm0 4v2h32v-2zm0 4v2h32v-2zm0 4v2h21v-2z" fill="url(#h)"/><path d="m29.001957 30h16.99964v10h-16.99964z" fill="url(#g)"/><path d="m41.468357 32.77774c1.13331.555593 3.10288 2.490238 4.53261 3.88893v1.66664h-13.03275c2.26694-2.77774 5.66687-4.444429 8.50014-5.55557z" fill="url(#f)"/><path d="m37.306987 36.00694.099-.784507 1.48815-.624185.83694-.766685 1.47163-.585003-.38403.947777-.57372.985277-.34149 1.070776-.23617.61696-2.36034-.86041z" fill="#333"/><path d="m37.785097 35.277751c-1.6962-1.379688-2.54994-2.500011-3.68325-4.166655-.3314.09814-.31874.06082-.56665 0 0 0-1.51614 2.208283-2.26662 3.333333-.75049 1.125096-2.26695 2.777791-2.26695 2.777791v1.11109h13.03275s-3.11356-2.20496-4.24928-3.055514z" fill="url(#d)"/><path d="m46.001597 37.22222h-.73047l-3.23611.55554s-3.19787-.83332-3.67893-.83332c-.47266 0-1.98763.27778-2.27111.27778-.19868 0-1.41648-.55555-1.70446-.55555-.47514 0-1.02268.59027-2.43932.83332 0 0-.40701-.88537-.67262-.83332-1.69996.64236-2.26695.55555-2.26695.55555v2.77778h16.99934l.00047-2.77778h.00006z" fill="url(#c)"/><path d="m29.001957 37.77776-.00033 2.22224h14.73335l.56666-.55559-.56666-.55551-1.13331-.55559-2.83327-.5555-2.83328-.27782-2.54994.27782h-3.39993-1.98329z" fill="url(#b)"/><path d="m30.135267 36.66667.80734-1.270646.95692-1.110323.73069-1.304869.90498-1.314189-.61424 1.659645-.44976 1.367233-.21753.862413-.40591.918916c-.16341-.11687-.36999-.12118-.55629-.18046l-.532.20446z" fill="#333"/><path d="m38.068437 36.66667-.82506-1.225827-1.46313-1.564325-1.21053-1.560371-.46787-.649504.5071 1.686191.55614 1.011231.49333 1.544689.1434.757916.50934.16732.7786-.17682c.32686-.0318.65374.006.97868.01z" fill="#808080"/><path d="m32.214057 36.69126.60924-1.508509.29714-1.557189.42978-.961368.2683-.997551.37244 1.026415.10581.980231.45052.873232.44661 1.003231.0835.708688-.75019.20645-.7126-.27236-.78775.50105h-.81279v-.004z" fill="#666"/><path d="m39.517607 36.94544-.99254-.70141-.63394-.495777.61569.940637z" fill="#808080"/><path d="m40.349177 36.27653.35028-1.10587.42976-.961368.26831-.997459.37244 1.026413.47767.87605.34428.873232-.0492.933822.47307.46559-.97387-.0516-1.96551-.39877.27278-.66014z" fill="#666"/><path d="m45.771397 36.89235-.66569-.3925-.93189-1.251872-1.36989-1.16105-1.06994-.875095.20604.731276.94572 1.462597.10377 1.319054.56839.428 1.27497-.24305.93852-.0173z" fill="#808080"/><path d="m29.568617 38.33331-.56666 1.66669h14.16636v-.55559l-.56665-.55551-2.83327-.55559-2.83328-.27773-2.83327.27773-3.06651.0829z" fill="#0369a3"/><path d="m35.235157 39.44441.56666-.55551h2.26662l1.69996.55551.56666.55559h-1.13332z" fill="#1c99e0" opacity=".5"/><path d="m46.001627 32.729122c-1.56481.000003-2.83334-1.221048-2.83334-2.72729h2.83334z" fill="url(#a)" opacity=".74"/></svg>