<svg viewBox="0 0 64 64" xmlns="http://www.w3.org/2000/svg" xmlns:xlink="http://www.w3.org/1999/xlink"><linearGradient id="a" gradientTransform="matrix(0 .35958529 -.60444457 0 710.7001 -128.64269)" gradientUnits="userSpaceOnUse" x1="445.69522" x2="441.38797" y1="1103.5776" y2="1099.8198"><stop offset="0" stop-color="#e9b913"/><stop offset="1" stop-color="#ff0"/></linearGradient><linearGradient id="b" gradientTransform="matrix(1.9832535 0 0 1.7777809 -655.22183 -2053.6697)" gradientUnits="userSpaceOnUse" x2="0" y1="1173" y2="1178"><stop offset="0" stop-color="#0369a3"/><stop offset="1" stop-color="#023f62"/></linearGradient><linearGradient id="c" gradientTransform="matrix(.56665262 0 0 .55555709 -130.22968 389.79924)" gradientUnits="userSpaceOnUse" x2="0" y1="-629.66907" y2="-635.54944"><stop offset="0" stop-color="#18a303"/><stop offset="1" stop-color="#106802"/></linearGradient><linearGradient id="d" gradientTransform="matrix(1.9832535 0 0 1.7777809 -655.22183 -2055.8924)" gradientUnits="userSpaceOnUse" x2="0" xlink:href="#e" y1="1173" y2="1178"/><linearGradient id="e"><stop offset="0" stop-color="#666"/><stop offset="1" stop-color="#333"/></linearGradient><linearGradient id="f" gradientTransform="matrix(-1.9832535 0 0 1.7777809 730.2219 -2056.447)" gradientUnits="userSpaceOnUse" x2="0" xlink:href="#e" y1="1173" y2="1178"/><linearGradient id="g" gradientTransform="matrix(2.1249532 0 0 1.6666667 -442.73971 999.3943)" gradientUnits="userSpaceOnUse" x2="0" y1="-581.63782" y2="-578.63782"><stop offset="0" stop-color="#63bbee"/><stop offset="1" stop-color="#aadcf7"/></linearGradient><linearGradient id="h" gradientUnits="userSpaceOnUse" x1="54" x2="10" xlink:href="#i" y1="61" y2="3"/><linearGradient id="i"><stop offset="0" stop-color="#0369a3"/><stop offset="1" stop-color="#1c99e0"/></linearGradient><linearGradient id="j" gradientTransform="matrix(7.99974 0 0 7.9977797 -435.96876 -7808.7674)" gradientUnits="userSpaceOnUse" x1="122.75008" x2="111.74973" xlink:href="#i" y1="991.62115" y2="977.11713"/><g transform="matrix(.49999215 0 0 .5 -218.99708 0)"><path d="m463.25195 6c-.25037 0-.50072.011156-.75.035156-3.66708.6998-4.56576 2.2662469-4.5 5.998047v103.968747c.0004 4.1875 1.81149 5.99765 6 5.99805h75.99806c4.18851-.0004 5.99765-1.81055 5.99805-5.99805v-59.818356c.048-2.1119-.78004-4.230247-2.25-5.748047l-42.16016-42.1503908c-1.51819-1.4691999-3.63759-2.2988999-5.75-2.25h-31.83595c-.24919-.024-.49962-.0351562-.75-.0351562zm54.00978.013672c-.20997 0-.41948.016828-.62695.048828-2.66247.8528-3.55843 4.904547-1.50586 6.810547l24.0957 24.220703c2.22593 2.1217 6.65811.306209 6.77539-2.775391v-24.220703c-.00024-2.1136998-1.91298-4.034856-4.01562-4.035156h-24.09376c-.20758-.032-.41894-.048828-.6289-.048828z" fill="url(#j)"/><path d="m464.00001 12v104h76.00001v-60l-44-44z" fill="#fff"/></g><path d="m16 27.998047v2h9v-2zm11 .002v14.000003h21v-14.000003zm2 2h17v10.000003h-17zm-13 1.998047v2h9v-2zm0 4v2.000006h9v-2.000006zm0 4.000006v2h9v-2zm0 4v2h32v-2zm0 4v2h32v-2zm0 4v2h21v-2z" fill="url(#h)"/><path d="m29.00033 30h16.99964v10h-16.99964z" fill="url(#g)"/><path d="m41.46673 32.77774c1.13332.555593 3.10288 2.490238 4.53261 3.88893v1.66664h-13.03275c2.26694-2.77774 5.66688-4.444429 8.50014-5.55557z" fill="url(#f)"/><path d="m37.30536 36.00694s.099-.784507.099-.784507 1.48816-.624185 1.48816-.624185.83693-.766685.83693-.766685 1.47164-.585003 1.47164-.585003-.38404.947777-.38404.947777-.57371.985277-.57371.985277-.3415 1.070776-.3415 1.070776-.23616.61696-.23616.61696-2.36035-.86041-2.36035-.86041z" fill="#333"/><path d="m37.78347 35.277751c-1.6962-1.379688-2.54994-2.500011-3.68324-4.166655-.33141.09814-.31874.06082-.56666 0 0 0-1.51614 2.208283-2.26662 3.333333-.75048 1.125096-2.26695 2.777791-2.26695 2.777791v1.11109h13.03276s-3.11357-2.20496-4.24929-3.055514z" fill="url(#d)"/><path d="m45.99997 37.22222h-.73047s-3.23611.55554-3.23611.55554-3.19787-.83332-3.67893-.83332c-.47266 0-1.98762.27778-2.27111.27778-.19868 0-1.41648-.55555-1.70446-.55555-.47514 0-1.02268.59027-2.43932.83332 0 0-.407-.88537-.67262-.83332-1.69996.64236-2.26695.55555-2.26695.55555v2.77778h16.99934s.00047-2.77778.00047-2.77778h.00007z" fill="url(#c)"/><path d="m29.00033 37.77776-.00033 2.22224h14.73335s.56666-.55559.56666-.55559-.56666-.55551-.56666-.55551-1.1333-.55559-1.1333-.55559-2.83328-.5555-2.83328-.5555-2.83328-.27782-2.83328-.27782-2.54994.27782-2.54994.27782h-3.39992-1.9833z" fill="url(#b)"/><path d="m30.13364 36.66667s.80734-1.270646.80734-1.270646.95692-1.110323.95692-1.110323.73069-1.304869.73069-1.304869.90498-1.314189.90498-1.314189-.61424 1.659645-.61424 1.659645-.44976 1.367233-.44976 1.367233-.21753.862413-.21753.862413-.40591.918916-.40591.918916c-.16341-.11687-.36999-.12118-.55629-.18046 0 0-.53199.20446-.53199.20446s-.62421.16782-.62421.16782z" fill="#333"/><path d="m38.06681 36.66667s-.82506-1.225827-.82506-1.225827-1.46313-1.564325-1.46313-1.564325-1.21053-1.560371-1.21053-1.560371-.46786-.649504-.46786-.649504.50709 1.686191.50709 1.686191.55614 1.011231.55614 1.011231.49333 1.544689.49333 1.544689.1434.757916.1434.757916.50935.16732.50935.16732.7786-.17682.7786-.17682c.32685-.0318.65373.006.97867.01z" fill="#808080"/><path d="m32.21243 36.69126s.60925-1.508509.60925-1.508509.29714-1.557189.29714-1.557189.42978-.961368.42978-.961368.26829-.997551.26829-.997551.37244 1.026415.37244 1.026415.10581.980231.10581.980231.45052.873232.45052.873232.44661 1.003231.44661 1.003231.0835.708688.0835.708688-.75018.20645-.75018.20645-.71261-.27236-.71261-.27236-.78775.50105-.78775.50105h-.81279v-.004z" fill="#666"/><path d="m39.51598 36.94544s-.99254-.70141-.99254-.70141-.63394-.495777-.63394-.495777.61569.940637.61569.940637 1.01079.25655 1.01079.25655z" fill="#808080"/><path d="m40.34756 36.27653s.35027-1.10587.35027-1.10587.42976-.961368.42976-.961368.26831-.997459.26831-.997459.37244 1.026413.37244 1.026413.47767.87605.47767.87605.34428.873232.34428.873232-.0492.933822-.0492.933822.47306.46559.47306.46559-.97387-.0516-.97387-.0516-1.96551-.39877-1.96551-.39877.27279-.66014.27279-.66014z" fill="#666"/><path d="m45.76977 36.89235s-.66569-.3925-.66569-.3925-.93189-1.251872-.93189-1.251872-1.36989-1.16105-1.36989-1.16105-1.06994-.875095-1.06994-.875095.20605.731276.20605.731276.94572 1.462597.94572 1.462597.10376 1.319054.10376 1.319054.56839.428.56839.428 1.27497-.24305 1.27497-.24305l.93852-.0173z" fill="#808080"/><path d="m29.56699 38.33331-.56666 1.66669h14.16636v-.55559s-.56664-.55551-.56664-.55551-2.83328-.55559-2.83328-.55559-2.83328-.27773-2.83328-.27773-2.83326.27773-2.83326.27773-3.06652.0829-3.06652.0829-1.46672-.0829-1.46672-.0829z" fill="#0369a3"/><path d="m35.23353 39.44441s.56666-.55551.56666-.55551h2.26662s1.69996.55551 1.69996.55551.56666.55559.56666.55559h-1.13332s-3.96658-.55559-3.96658-.55559z" fill="#1c99e0" opacity=".5"/><path d="m46 32.729122a2.833334 2.727287 0 0 1 -2.83333-2.72729h2.83333z" fill="url(#a)" opacity=".74"/></svg>