<?xml version="1.0" encoding="UTF-8" standalone="no"?>
<svg
   xmlns:dc="http://purl.org/dc/elements/1.1/"
   xmlns:cc="http://creativecommons.org/ns#"
   xmlns:rdf="http://www.w3.org/1999/02/22-rdf-syntax-ns#"
   xmlns:svg="http://www.w3.org/2000/svg"
   xmlns="http://www.w3.org/2000/svg"
   xmlns:sodipodi="http://sodipodi.sourceforge.net/DTD/sodipodi-0.dtd"
   xmlns:inkscape="http://www.inkscape.org/namespaces/inkscape"
   viewBox="0 0 32 32"
   version="1.1"
   id="svg8"
   sodipodi:docname="bulletsandnumberingdialog.svg"
   inkscape:version="0.92.4 (unknown)">
  <metadata
     id="metadata14">
    <rdf:RDF>
      <cc:Work
         rdf:about="">
        <dc:format>image/svg+xml</dc:format>
        <dc:type
           rdf:resource="http://purl.org/dc/dcmitype/StillImage" />
        <dc:title></dc:title>
      </cc:Work>
    </rdf:RDF>
  </metadata>
  <defs
     id="defs12" />
  <sodipodi:namedview
     pagecolor="#ffffff"
     bordercolor="#666666"
     borderopacity="1"
     objecttolerance="10"
     gridtolerance="10"
     guidetolerance="10"
     inkscape:pageopacity="0"
     inkscape:pageshadow="2"
     inkscape:window-width="1360"
     inkscape:window-height="714"
     id="namedview10"
     showgrid="false"
     inkscape:zoom="7.375"
     inkscape:cx="-2.9152542"
     inkscape:cy="16"
     inkscape:window-x="0"
     inkscape:window-y="28"
     inkscape:window-maximized="1"
     inkscape:current-layer="g6" />
  <g
     transform="matrix(-1 0 0 1 32 0)"
     id="g6"
     style="stroke:none">
    <path
       d="M 11,4 V 5 H 28 V 4 Z m 0,3 V 8 H 24 V 7 Z m 0,7 v 1 h 17 v -1 z m 0,3 v 1 h 4 v -1 z m 8,0 v 1 h 9 v -1 z m -8,7 v 1 h 17 v -1 z"
       id="path2"
       style="fill:#232629;stroke:none"
       inkscape:connector-curvature="0"
       sodipodi:nodetypes="cccccccccccccccccccccccccccccc" />
    <path
       d="m9 4v1h-1v4h1v1h-3v-1h1v-4h-1v-1h1 1zm0 10v1h-1v4h1v1h-5v-1h1v-4h-1v-1h3 1zm-2 1h-1v4h1z"
       fill="#3daee9"
       id="path4"
       style="stroke:none" />
    <path
       style="fill:#f47750;stroke:none;fill-opacity:1"
       id="path821"
       d="m 18.90625,26 c -0.515378,0.04853 -0.908529,0.482347 -0.90625,1 0,0.552285 0.447715,1 1,1 0.552285,0 1,-0.447715 1,-1 0,-0.552285 -0.447715,-1 -1,-1 -0.03123,-0.0015 -0.06252,-0.0015 -0.09375,0 z m 4,0 c -0.515378,0.04853 -0.908529,0.482347 -0.90625,1 0,0.552285 0.447715,1 1,1 0.552285,0 1,-0.447715 1,-1 0,-0.552285 -0.447715,-1 -1,-1 -0.03123,-0.0015 -0.06252,-0.0015 -0.09375,0 z m 4,0 c -0.515378,0.04853 -0.908529,0.482347 -0.90625,1 0,0.552285 0.447715,1 1,1 0.552285,0 1,-0.447715 1,-1 0,-0.552285 -0.447715,-1 -1,-1 -0.03123,-0.0015 -0.06252,-0.0015 -0.09375,0 z"
       inkscape:connector-curvature="0"
       sodipodi:nodetypes="ccssccccssccccsscc" />
  </g>
</svg>
