<svg height="24" viewBox="0 0 6.3499999 6.3500002" width="24" xmlns="http://www.w3.org/2000/svg"><path d="m1.4614095 3.4716227-.52089842.2604493a.26357618.26357618 0 0 0 -.02170411.4588867l2.11666673 1.3229167a.26357618.26357618 0 0 0 .1395263.0392741.26357618.26357618 0 0 0 .1395264-.0392741l2.1166667-1.3229167a.26357618.26357618 0 0 0 -.0217041-.4588867l-.5208985-.2604493-.2614827.1638143.6645589.3322795-2.1166667 1.3229167-2.1166667-1.3229167.664559-.3322795z" fill="#3a3a38"/><path d="m1.7228923 3.635437-.664559.3322795 2.1166667 1.3229167 2.1166667-1.3229167-.6645589-.3322795-1.3125814.820105a.26357618.26357618 0 0 1 -.1395264.0397909.26357618.26357618 0 0 1 -.1395263-.0397909z" fill="#fafafa"/><g stroke-width=".264583"><path d="m1.4614095 2.4132894-.52089842.2604492a.26357617.26357617 0 0 0 -.02170411.4588868l2.11666673 1.3229166a.26357617.26357617 0 0 0 .1395263.0397909.26357617.26357617 0 0 0 .1395264-.0397909l2.1166667-1.3229166a.26357617.26357617 0 0 0 -.0217041-.4588868l-.5208985-.2604492-.2614827.1638143.6645589.3322795-2.1166667 1.3229166-2.1166667-1.3229166.664559-.3322795z" fill="#3a3a38"/><path d="m1.7228923 2.5771037-.664559.3322795 2.1166667 1.3229166 2.1166667-1.3229166-.6645589-.3322795-1.3125814.820105a.26357617.26357617 0 0 1 -.1395264.0397908.26357617.26357617 0 0 1 -.1395263-.0397908z" fill="#fafafa"/><path d="m3.1651814.5291685a.26357618.26357618 0 0 0 -.1080038.0279l-2.1166666 1.05834a.26357618.26357618 0 0 0 -.021704.45888l2.1166667 1.32292a.26357618.26357618 0 0 0 .2790526 0l2.1166667-1.32292a.26357618.26357618 0 0 0 -.021704-.45888l-2.1166665-1.05834a.26357618.26357618 0 0 0 -.1276411-.0279zm.00982.26355 2.1166666 1.05833-2.1166666 1.32292-2.1166665-1.32292z" fill="#3a3a38"/><path d="m3.1749998.7927185-2.1166666 1.05833 2.1166666 1.32292 2.1166665-1.32292z" fill="#fafafa"/></g></svg>