<svg height="52" viewBox="0 0 60 52" width="60" xmlns="http://www.w3.org/2000/svg" xmlns:xlink="http://www.w3.org/1999/xlink"><linearGradient id="a"><stop offset="0" stop-color="#007aff"/><stop offset=".33333334" stop-color="#69b1ff"/><stop offset="1" stop-color="#007aff"/></linearGradient><linearGradient id="b"><stop offset="0" stop-color="#28cd41"/><stop offset=".33333334" stop-color="#81e791"/><stop offset="1" stop-color="#28cd41"/></linearGradient><linearGradient id="c"><stop offset="0" stop-color="#ff9500"/><stop offset=".33333334" stop-color="#ffc068"/><stop offset="1" stop-color="#ff9500"/></linearGradient><linearGradient id="d" gradientUnits="userSpaceOnUse" x1="24.01272" x2="30.130362" xlink:href="#a" y1="24" y2="24.389507"/><linearGradient id="e" gradientUnits="userSpaceOnUse" x1="37.090622" x2="43.597771" xlink:href="#a" y1="26.922098" y2="27.155804"/><linearGradient id="f" gradientUnits="userSpaceOnUse" x1="25.635933" x2="30.585051" xlink:href="#b" y1="23.532591" y2="23.766294"/><linearGradient id="g" gradientUnits="userSpaceOnUse" x1="37.402229" x2="43.208263" xlink:href="#b" y1="23" y2="23.701115"/><linearGradient id="h" gradientUnits="userSpaceOnUse" x1="37.246426" x2="43.364067" xlink:href="#c" y1="20.922098" y2="21.155804"/><linearGradient id="i" gradientUnits="userSpaceOnUse" x1="37.168526" x2="43.441967" xlink:href="#c" y1="21" y2="21.233706"/><filter id="j" color-interpolation-filters="sRGB" height="1.051728" width="1.044773" x="-.022387" y="-.025864"><feGaussianBlur stdDeviation=".555"/></filter><path d="m.5.5h59v51h-59z" fill="#656565" filter="url(#j)"/><path d="m1 1h58v50h-58z" fill="#f2f2f7"/><path d="m25 6-19 14v.5 22.5.5.5h1 26.5 1.5l16-13v-.5-.5-24zm1 1h24v23h-24zm-1 .5v22.5l-18 12v-21.5zm.5 23.5h24l-14.5 11.5-.5.5h-27l17.5-11.5z" fill="#8e8e93"/><path d="m40.5 8-4.400391 22.984375a4.5 2.5 0 0 0 -.099609.515625 4.5 2.5 0 0 0 4.5 2.5 4.5 2.5 0 0 0 4.5-2.5 4.5 2.5 0 0 0 -.095703-.498047z" fill="url(#i)"/><path d="m40.5 9-3 23.5-1-.5z" fill="#f2f2f7" fill-opacity=".383212"/><g transform="translate(-11)"><path d="m40.5 8-4.400391 22.984375a4.5 2.5 0 0 0 -.099609.515625 4.5 2.5 0 0 0 4.5 2.5 4.5 2.5 0 0 0 4.5-2.5 4.5 2.5 0 0 0 -.0957-.498047z" fill="url(#h)"/><path d="m40.5 9-3 23.5-1-.5z" fill="#f2f2f7" fill-opacity=".383212"/></g><g transform="translate(-5 4)"><path d="m40.5 12-4.400391 18.984375c-.065287.169492-.09867.342296-.099609.515625 0 1.380712 2.014719 2.5 4.5 2.5s4.5-1.119288 4.5-2.5c-.0018-.167377-.03387-.33423-.0957-.498047z" fill="url(#g)"/><path d="m40.5 13-3 19.5-1-.5z" fill="#f2f2f7" fill-opacity=".383212"/><path d="m28.5 14-4.400391 16.984375c-.065287.169492-.09867.342296-.099609.515625 0 1.380712 2.014719 2.5 4.5 2.5s4.5-1.119288 4.5-2.5c-.0018-.167377-.03387-.33423-.0957-.498047z" fill="url(#f)"/><path d="m28.5 15-3 17.5-1-.5z" fill="#f2f2f7" fill-opacity=".383212"/></g><g transform="translate(-11 8)"><path d="m40.5 20-4.400391 10.984375c-.065287.169492-.09867.342296-.099609.515625 0 1.380712 2.014719 2.5 4.5 2.5s4.5-1.119288 4.5-2.5c-.0018-.167377-.03387-.33423-.0957-.498047z" fill="url(#e)"/><path d="m40.5 21-3 11.5-1-.5z" fill="#f2f2f7" fill-opacity=".383212"/><path d="m27.5 14-4.400391 16.984375c-.065287.169492-.09867.342296-.099609.515625 0 1.380712 2.014719 2.5 4.5 2.5s4.5-1.119288 4.5-2.5c-.0018-.167377-.03387-.33423-.0957-.498047z" fill="url(#d)"/><path d="m27.5 15-3 17.5-1-.5z" fill="#f2f2f7" fill-opacity=".383212"/></g></svg>