<svg viewBox="0 0 32 32" xmlns="http://www.w3.org/2000/svg"><g fill="#555753"><path d="m28-.00195313-8 .00195313c-.54701 0-.433161 0 .537109 1l7.462891 7.4707031c1.17187 1.14519 1 1.0683569 1-.4707031v-7.00195312c-.00006-.55226-.44774-.99994001-1-1.00000001zm-24 .00195313a1.0001 1.0001 0 0 0 -1 1v30a1.0001 1.0001 0 0 0 1 1h24a1.0001 1.0001 0 0 0 1-1v-19a1.0001 1.0001 0 0 0 -.292969-.707031l-11-11.00000025a1.0001 1.0001 0 0 0 -.707031-.29296875zm1 2h11.585938l10.414062 10.414062v17.585938h-22zm10.998047 7c-1.567731.0018-2.940446.922897-3.591797 2.263672-.445786-.167953-.92003-.26316-1.404297-.263672a1.0001 1.0001 0 0 0 -.001953 0c-2.1972944 0-4 1.802706-4 4 .000844.952705.4345019 1.78855 1.0332031 2.5-.5987012.71145-1.0323591 1.547295-1.0332031 2.5 0 2.197294 1.8027056 4 4 4a1.0001 1.0001 0 0 0 .001953 0c.483814-.000827.957015-.09573 1.402344-.263672.651814 1.341235 2.027234 2.26289 3.595703 2.263672a1.0001 1.0001 0 0 0 .001953 0c1.567731-.0018 2.940446-.922897 3.591797-2.263672.445786.167953.92003.26316 1.404297.263672a1.0001 1.0001 0 0 0 .001953 0c2.197294 0 4-1.802706 4-4-.000844-.952705-.434502-1.78855-1.033203-2.5.598701-.71145 1.032359-1.547295 1.033203-2.5 0-2.197294-1.802706-4-4-4a1.0001 1.0001 0 0 0 -.001953 0c-.483814.000827-.957015.09573-1.402344.263672-.651814-1.3412347-2.027234-2.26289-3.595703-2.263672a1.0001 1.0001 0 0 0 -.001953 0zm.001953 2h.001953c1.055021.0015 1.911912.799208 1.990235 1.851562a1.0001 1.0001 0 0 0 1.669921.666016c.366714-.332478.842909-.516267 1.337891-.517578 1.116414 0 2 .883586 2 2-.000595.672046-.33585 1.295427-.896484 1.666016a1.0001 1.0001 0 0 0 0 1.667968c.560634.370589.895889.99397.896484 1.666016 0 1.115756-.882565 1.998959-1.998047 2-.496108-.000525-.974237-.184376-1.341797-.517578a1.0001 1.0001 0 0 0 -1.669922.666016c-.078282 1.051837-.935733 1.84936-1.990234 1.851562-1.055923-.000526-1.913817-.798552-1.992188-1.851562a1.0001 1.0001 0 0 0 -1.669921-.666016c-.366761.332478-.842909.516267-1.337891.517578-1.1164141 0-2-.883586-2-2 .0005954-.672046.3358505-1.295427.8964844-1.666016a1.0001 1.0001 0 0 0 0-1.667968c-.5606339-.370589-.895889-.99397-.8964844-1.666016 0-1.115756.8825652-1.998959 1.998047-2 .496108.000525.974237.184376 1.341797.517578a1.0001 1.0001 0 0 0 1.669922-.666016c.078282-1.051836.935733-1.84936 1.990234-1.851562z"/><path d="m16 10a3 3 0 0 0 -2.98828 2.77734 3 3 0 0 0 -2.01172-.77734 3 3 0 0 0 -3 3 3 3 0 0 0 1.3457 2.5 3 3 0 0 0 -1.3457 2.5 3 3 0 0 0 3 3 3 3 0 0 0 2.00977-.77734 3 3 0 0 0 2.99023 2.77734 3 3 0 0 0 2.98828-2.77734 3 3 0 0 0 2.01172.77734 3 3 0 0 0 3-3 3 3 0 0 0 -1.3457-2.5 3 3 0 0 0 1.3457-2.5 3 3 0 0 0 -3-3 3 3 0 0 0 -2.00977.77734 3 3 0 0 0 -2.99023-2.77734z" opacity=".35"/></g></svg>