<svg xmlns="http://www.w3.org/2000/svg" viewBox="0 0 32 32">
 <path
     style="fill:#555753"
     d="M 28 -0.001953125 L 20 0 C 19.45299 0 19.566839 0 20.537109 1 L 28 8.4707031 C 29.17187 9.6158931 29 9.53906 29 8 L 29 0.99804688 C 28.99994 0.44578688 28.55226 -0.001893125 28 -0.001953125 z M 4 0 A 1.0001 1.0001 0 0 0 3 1 L 3 31 A 1.0001 1.0001 0 0 0 4 32 L 28 32 A 1.0001 1.0001 0 0 0 29 31 L 29 12 A 1.0001 1.0001 0 0 0 28.707031 11.292969 L 17.707031 0.29296875 A 1.0001 1.0001 0 0 0 17 0 L 4 0 z M 5 2 L 16.585938 2 L 27 12.414062 L 27 30 L 5 30 L 5 2 z M 15.998047 9 C 14.430316 9.0018 13.057601 9.922897 12.40625 11.263672 C 11.960464 11.095719 11.48622 11.000512 11.001953 11 A 1.0001 1.0001 0 0 0 11 11 C 8.8027056 11 7 12.802706 7 15 C 7.000844 15.952705 7.4345019 16.78855 8.0332031 17.5 C 7.4345019 18.21145 7.000844 19.047295 7 20 C 7 22.197294 8.8027056 24 11 24 A 1.0001 1.0001 0 0 0 11.001953 24 C 11.485767 23.999173 11.958968 23.90427 12.404297 23.736328 C 13.056111 25.077563 14.431531 25.999218 16 26 A 1.0001 1.0001 0 0 0 16.001953 26 C 17.569684 25.9982 18.942399 25.077103 19.59375 23.736328 C 20.039536 23.904281 20.51378 23.999488 20.998047 24 A 1.0001 1.0001 0 0 0 21 24 C 23.197294 24 25 22.197294 25 20 C 24.999156 19.047295 24.565498 18.21145 23.966797 17.5 C 24.565498 16.78855 24.999156 15.952705 25 15 C 25 12.802706 23.197294 11 21 11 A 1.0001 1.0001 0 0 0 20.998047 11 C 20.514233 11.000827 20.041032 11.09573 19.595703 11.263672 C 18.943889 9.9224373 17.568469 9.000782 16 9 A 1.0001 1.0001 0 0 0 15.998047 9 z M 16 11 L 16.001953 11 C 17.056974 11.0015 17.913865 11.799208 17.992188 12.851562 A 1.0001 1.0001 0 0 0 19.662109 13.517578 C 20.028823 13.1851 20.505018 13.001311 21 13 C 22.116414 13 23 13.883586 23 15 C 22.999405 15.672046 22.66415 16.295427 22.103516 16.666016 A 1.0001 1.0001 0 0 0 22.103516 18.333984 C 22.66415 18.704573 22.999405 19.327954 23 20 C 23 21.115756 22.117435 21.998959 21.001953 22 C 20.505845 21.999475 20.027716 21.815624 19.660156 21.482422 A 1.0001 1.0001 0 0 0 17.990234 22.148438 C 17.911952 23.200275 17.054501 23.997798 16 24 C 14.944077 23.999474 14.086183 23.201448 14.007812 22.148438 A 1.0001 1.0001 0 0 0 12.337891 21.482422 C 11.97113 21.8149 11.494982 21.998689 11 22 C 9.8835859 22 9 21.116414 9 20 C 9.0005954 19.327954 9.3358505 18.704573 9.8964844 18.333984 A 1.0001 1.0001 0 0 0 9.8964844 16.666016 C 9.3358505 16.295427 9.0005954 15.672046 9 15 C 9 13.884244 9.8825652 13.001041 10.998047 13 C 11.494155 13.000525 11.972284 13.184376 12.339844 13.517578 A 1.0001 1.0001 0 0 0 14.009766 12.851562 C 14.088048 11.799726 14.945499 11.002202 16 11 z "
     />
 <path
     style="fill:#555753;opacity:0.35"
     d="M 16,10 A 3,3 0 0 0 13.01172,12.77734 3,3 0 0 0 11,12 3,3 0 0 0 8,15 3,3 0 0 0 9.3457,17.5 3,3 0 0 0 8,20 3,3 0 0 0 11,23 3,3 0 0 0 13.00977,22.22266 3,3 0 0 0 16,25 3,3 0 0 0 18.98828,22.22266 3,3 0 0 0 21,23 3,3 0 0 0 24,20 3,3 0 0 0 22.6543,17.5 3,3 0 0 0 24,15 3,3 0 0 0 21,12 3,3 0 0 0 18.99023,12.77734 3,3 0 0 0 16,10 Z"
     />
 </svg>
