<svg height="24" viewBox="0 0 6.3499999 6.3500002" width="24" xmlns="http://www.w3.org/2000/svg" xmlns:xlink="http://www.w3.org/1999/xlink"><linearGradient id="a" gradientUnits="userSpaceOnUse" x1="1.286524" x2="1.220291" xlink:href="#d" y1="1.430544" y2="-.25113"/><linearGradient id="b" gradientUnits="userSpaceOnUse" x1="1.286524" x2="1.220291" xlink:href="#d" y1="4.605544" y2="2.92387"/><linearGradient id="c" gradientUnits="userSpaceOnUse" x1=".492774" x2=".426541" xlink:href="#d" y1="4.605544" y2="2.92387"/><linearGradient id="d"><stop offset="0" stop-color="#06f"/><stop offset="1" stop-color="#80b3ff"/></linearGradient><g transform="matrix(-1 0 0 1 6.35 -.000032)"><path d="m1.3229167.26406656a.26500919.26500919 0 0 0 -.2651001.26510011v.26458334a.26500919.26500919 0 0 0 .0356567.13229167.26500919.26500919 0 0 0 -.0356567.13229162v1.0583334a.26500919.26500919 0 0 0 .2651001.2651001h.2645833a.26500919.26500919 0 0 0 .2651001-.2651001v-1.0583334a.26500919.26500919 0 0 0 -.0356567-.13229162.26500919.26500919 0 0 0 .0356567-.13229167v-.26458334a.26500919.26500919 0 0 0 -.2651001-.26510011z" fill="url(#a)"/><g fill="#555"><path d="m2.3827483.79378203h3.4380848v.26455037h-3.4380849z"/><path d="m2.3767904 1.5875197h3.4440428v.2645639h-3.4440428z"/><path d="m2.3767902 2.3812608h2.6502929v.2645722h-2.6502929z"/><path d="m2.3827477 3.7041552h3.4380853v.2645948h-3.4380853z"/><path d="m2.3767899 4.4978911h3.4440431v.2646084h-3.4440431z"/><path d="m2.3767899 5.2916339h2.6502932v.2646167h-2.6502932z"/></g><path d="m1.3229167.52916667v.26458334h.2645833v-.26458334zm0 .52916663v1.0583334h.2645833v-1.0583334z" fill="#bfd9ff"/><path d="m1.3229166 3.4390665a.26500919.26500919 0 0 0 -.2651.2651001v.2645834a.26500919.26500919 0 0 0 .035657.1322917.26500919.26500919 0 0 0 -.035657.1322916v1.0583334a.26500919.26500919 0 0 0 .2651.2651001h.2645833a.26500919.26500919 0 0 0 .2651001-.2651001v-1.0583334a.26500919.26500919 0 0 0 -.0356567-.1322916.26500919.26500919 0 0 0 .0356567-.1322917v-.2645834a.26500919.26500919 0 0 0 -.2651001-.2651001z" fill="url(#b)"/><path d="m1.3229166 3.7041666v.2645834h.2645833v-.2645834zm0 .5291667v1.0583334h.2645833v-1.0583334z" fill="#bfd9ff"/><path d="m.52916665 3.4390666a.26500919.26500919 0 0 0 -.26510005.2651001v.2645834a.26500919.26500919 0 0 0 .0356567.1322917.26500919.26500919 0 0 0 -.0356567.1322916v1.0583334a.26500919.26500919 0 0 0 .26510005.2651001h.2645833a.26500919.26500919 0 0 0 .26510015-.2651001v-1.0583334a.26500919.26500919 0 0 0 -.0356567-.1322916.26500919.26500919 0 0 0 .0356567-.1322917v-.2645834a.26500919.26500919 0 0 0 -.26510015-.2651001z" fill="url(#c)"/><path d="m.52916665 3.7041667v.2645834h.2645833v-.2645834zm0 .5291667v1.0583334h.2645833v-1.0583334z" fill="#bfd9ff"/></g></svg>