<svg height="16" viewBox="0 0 4.2333333 4.2333335" width="16" xmlns="http://www.w3.org/2000/svg" xmlns:xlink="http://www.w3.org/1999/xlink"><linearGradient id="a" gradientUnits="userSpaceOnUse" x1="7.093015" x2="7.093015" y1="-274.818525" y2="-268.055367"><stop offset="0" stop-color="#06f"/><stop offset="1" stop-color="#80b3ff"/></linearGradient><g transform="matrix(.125 0 0 .125 0 -32.89167)"><path d="m-33.866665 263.13333h33.866665v33.866665h-33.866665z" fill="#fff" fill-opacity=".055147" transform="scale(-1 1)"/><g fill="#404040" fill-opacity=".839216"><path d="m2.009939 269.48331h17.04006v2.116696h-17.04006z"/><path d="m6.349999 273.71664h12.699999v2.116692h-12.699999z"/><path d="m2.009941 284.29999h17.04006v2.116696h-17.04006z"/><path d="m6.35 288.53333h12.699999v2.116692h-12.699999z"/></g><g transform="matrix(-.99999999 0 0 .99999999 33.649429 .206031)"><circle cx="6.63171" cy="-272.99435" fill="none" r="1.470957" stroke="url(#a)" stroke-linecap="round" stroke-linejoin="round" stroke-width="5.88383" transform="scale(1 -1)"/><circle cx="6.63171" cy="272.99435" fill="#bfd9ff" r="1.470957"/></g><g transform="matrix(-.99999999 0 0 .99999999 33.634268 14.661319)"><circle cx="6.63171" cy="-272.99435" fill="none" r="1.470957" stroke="url(#a)" stroke-linecap="round" stroke-linejoin="round" stroke-width="5.88383" transform="scale(1 -1)"/><circle cx="6.63171" cy="272.99435" fill="#bfd9ff" r="1.470957"/></g></g></svg>