<svg viewBox="0 0 16 16" xmlns="http://www.w3.org/2000/svg" xmlns:xlink="http://www.w3.org/1999/xlink"><linearGradient id="a" gradientUnits="userSpaceOnUse" x1="14" x2="14" xlink:href="#b" y1="16" y2="13"/><linearGradient id="b" gradientTransform="translate(-17 4)" gradientUnits="userSpaceOnUse" x1="7.639196" x2="8.022712" y1="12.711522" y2="3.286795"><stop offset="0" stop-color="#0071a4"/><stop offset="1" stop-color="#55bef0"/></linearGradient><linearGradient id="c" gradientUnits="userSpaceOnUse" x1="0" x2="0" xlink:href="#b" y1="16" y2="13"/><linearGradient id="d" gradientUnits="userSpaceOnUse" x1="0" x2="0" xlink:href="#b" y1="3" y2="0"/><linearGradient id="e" gradientUnits="userSpaceOnUse" x1="13" x2="13" xlink:href="#b" y1="3" y2="0"/><path d="m0 0h3v3h-3z" fill="url(#d)"/><path d="m13 0h3v3h-3z" fill="url(#e)"/><path d="m0 13h3v3h-3z" fill="url(#c)"/><path d="m13 13h3v3h-3z" fill="url(#a)"/><g fill="#f2f2f7"><path d="m14 1h1v1h-1z"/><path d="m14 14h1v1h-1z"/><path d="m1 14h1v1h-1z"/><path d="m1 1h1v1h-1z" fill="#f2f2f7"/></g><g fill="#8e8e93"><g stroke-width=".119133"><path d="m14 3h1v2h-1z"/><path d="m14 6h1v2h-1z"/><path d="m14 9h1v2h-1z"/></g><path d="m14 12h1v1h-1z" stroke-width=".08424"/><g stroke-width=".119133"><path d="m1 3h1v2h-1z"/><path d="m1 6h1v2h-1z"/><path d="m1 9h1v2h-1z"/></g><path d="m1 12h1v1h-1z" stroke-width=".08424"/><g stroke-width=".119133"><path d="m13 1v1h-2v-1z"/><path d="m10 1v1h-2v-1z"/><path d="m7 1v1h-2v-1z"/></g><path d="m4 1v1h-1v-1z" stroke-width=".08424"/><g stroke-width=".119133"><path d="m13 14v1h-2v-1z"/><path d="m10 14v1h-2v-1z"/><path d="m7 14v1h-2v-1z"/></g><path d="m4 14v1h-1v-1z" stroke-width=".08424"/></g><path d="m6.150885 11.913123q-.083247-.166494-.1352762-.593134-.6711781.697192-1.6025027.697192-.8324689 0-1.3683708-.468263-.530699-.473467-.530699-1.196674 0-.8792959.6659752-1.3631685.6711781-.4890755 1.883461-.4890755h.9365275v-.4422491q0-.5046843-.30177-.8012514-.30177-.30177-.8897012-.30177-.5150901 0-.8636865.2601466-.3485964.2601465-.3485964.6295546h-.9677451q0-.4214374.2965671-.8116572.3017699-.3954228.8116572-.6243517.5150901-.228929 1.129036-.228929.9729481 0 1.5244587.4890755.5515107.4838726.5723224 1.3371533v2.5910594q0 .775237.1977114 1.233095v.08325zm-1.5972998-.733613q.452655 0 .8584836-.234132.4058286-.234132.5879312-.608743v-1.1550511h-.754425q-1.7689965 0-1.7689965 1.0353831 0 .452655.30177.707599.30177.254944.7752367.254944z" fill="#48484a" stroke-width=".26639"/><path d="m11.835938 2.8652344a.91094054.91094054 0 0 0 -.888672.7167968c-.015626-.0045902-.149462.0674263-.515625.1328126-1.0702827.1906576-1.9968348.7899579-2.5664066 1.6914062a.91094054.91094054 0 0 0 -.00195.00195c-.1984666.3165996-.30878.6943744-.4296906 1.0644562-.1226949-.1918765-.2243805-.3992137-.3964844-.5507812-.5685918-.5042228-1.3315318-.7207031-2.1367188-.7207031-.5251654 0-1.0365508.1008797-1.5039062.3085937a.91094054.91094054 0 0 0 -.00391.00195c-.458009.2056415-.86619.5088706-1.167965.9043a.91094054.91094054 0 0 0 0 .00195c-.2957652.3891674-.4824219.8738286-.4824219 1.3671906a.91094054.91094054 0 0 0 .5703125.8457032c-.4029783.4720134-.6855469 1.0473104-.6855469 1.6757816 0 .707092.3100457 1.411891.8378907 1.882812a.91094054.91094054 0 0 0 .00586.0059c.5347618.467268 1.2459474.695313 1.9746094.695313.4282392 0 .8486038-.09221 1.2363281-.261719a.91094054.91094054 0 0 0 .5117188.15625h1.0136718a.91094054.91094054 0 0 0 .9082032-.845703c.6261454.622032 1.4799524.972656 2.3925776.972656.639522 0 1.261739-.151573 1.796876-.472656a.91094054.91094054 0 0 0 .002-.002c.531448-.320785.961735-.793005 1.238281-1.355469a.91094054.91094054 0 0 0 0-.0039c.27213-.558097.40039-1.1814346.40039-1.8320312v-.087891c0-.9434789-.283279-1.8270727-.875-2.484375-.284496-.319475-.639236-.5587446-1.027343-.7304687.36378-.1471597.749281-.2656137 1-.578125.365083-.4504403.498047-1.0187557.498047-1.5898438a.91094054.91094054 0 0 0 -.9102047-.9101559zm-1.337891 5.4023437c.281763.0000001.343591.042589.453125.1699219a.91094054.91094054 0 0 0 .0078.00781c.117262.1331858.197266.307025.197266.6796875 0 .5600168-.121694.8668291-.224609.998047-.121657.155112-.166565.185547-.423829.185547-.250321 0-.302321-.03418-.425781-.1875-.122451-.1578734-.2226441-.4104819-.222644-.8749977v-.083984c-.0000001-.4155351.089033-.6042541.191406-.7207032a.91094054.91094054 0 0 0 .0039-.00391c.111308-.127993.176003-.1699185.443366-.1699185zm-5.466797 1.8105469c-.01779.01184-.01301.02238-.035156.03516-.1462401.08437-.2637383.115235-.4082032.115235-.1509774 0-.1664089-.02185-.1914062-.04297-.0008662-.000732.00601-.0078.011719-.0098.048615-.02844.3488168-.06736.6230469-.09766z" fill="#fc0"/><g fill="#48484a"><path d="m6.1932188 11.875333q-.0836937-.167388-.1360022-.596318-.6747804.700935-1.6111034.700935-.8369369 0-1.375715-.470777-.5335472-.476008-.5335472-1.203097 0-.8840143.6695495-1.3704838.6747803-.4917004 1.8935696-.4917004h.9415539v-.4446227q0-.5073929-.3033896-.8055517-.3033896-.3033896-.8944762-.3033896-.5178547 0-.868322.2615428-.3504673.2615427-.3504673.6329335h-.9729391q0-.4236993.2981588-.8160134.3033896-.397545.8160134-.6277027.5178547-.2301576 1.1350956-.2301576.9781699 0 1.5326405.4917004.5544707.4864695.5753941 1.3443298v2.6049654q0 .779398.1987725 1.239713v.08369zm-1.6058725-.737551q.4550844 0 .8630911-.235388.4080067-.235389.5910866-.61201v-1.1612501h-.758474q-1.7784908 0-1.7784908 1.0409401 0 .455084.3033896.711396.3033896.256312.7793975.256312z"/><path d="m10.685722 6.5628152q1.067095 0 1.705259.7166272.643395.7113963.643395 1.877877v.088924q0 .8003206-.30862 1.4332556-.308621.627701-.889246.978168-.575394.345238-1.328637.345238-1.1403263 0-1.83603-.758474-.6957038-.763705-.6957038-2.0452647v-.470777q0-1.7837216.6590878-2.8351235.6643186-1.0514019 1.95634-1.2815596.73232-.1307713.988632-.3190821.256311-.1883108.256311-.5178547h.79509q0 .6538569-.298158 1.0200168-.292928.3661598-.941554.5178546l-.721858.1621566q-.8630911.2040033-1.2972524.6904728-.4289302.4812387-.5597016 1.2867904.7689358-.8892454 1.872646-.8892454zm-.18831.79509q-.7113971 0-1.1298653.4812387-.4184684.4760078-.4184684 1.3234064v.083694q0 .9101687.4184684 1.4437157.4236992.528317 1.1403263.528317.721858 0 1.140327-.533548.418468-.533547.418468-1.5587943 0-.8003209-.423699-1.2815595-.418469-.4864696-1.145557-.48647z"/></g></svg>