<svg viewBox="0 0 16 16" xmlns="http://www.w3.org/2000/svg"><g fill="#4b4b4f" stroke-width=".28089"><path d="m5.1843962 6.1280114h-3.0941793l-.6473638 1.8597992h-1.4428531l3.0173734-7.98781038h1.2453523l3.0228596 7.98781038h-1.4483392zm-2.7046639-1.1191713h2.3151484l-1.1575742-3.3136246z"/><path d="m13.243526 1.1191715h-3.6811953v1.9366051h1.6348673q.877782 0 1.530632.3017373.65285.3017374.99299.8558369.34014.5540994.34014 1.2837552 0 1.1191712-.762572 1.7994518-.757087.6802805-2.068273.6912528h-3.0557761v-7.98781038h5.0691871zm-3.6811953 3.0502902v2.7101499h1.6293813q.702225 0 1.091741-.3785432.395002-.3840293.395002-1.0149347 0-.6034747-.38403-.9545872-.384029-.3511125-1.06431-.3620848z"/></g><path d="m15.291698 7.0118053c-.08045-.015575-.163987-.01645-.249867.00164-.183019.0406-.35168.1463864-.470341.2950811l-5.252126 6.1698766-1.8813593-1.931437c-.3146717-.32309-.8872488-.323066-1.2019794 0-.3146887.323073-.3147137.910865 0 1.233975l2.5084787 2.575247.65325.643812.5748598-.697463 5.8531172-6.8673289c.415147-.4639881.0291-1.3148091-.534033-1.423429z" fill="#32d74b"/><path d="m5.3300781 10-.3984375.435547-1.9277344 1.927734-1.9277343-1.927734c-.51521276-.8346489-1.63543115.285569-.80078128.800781l2.32812498 2.328125.4003906.435547.4003907-.435547 1.5800781-1.582031c.041692-.405794.2142318-.803337.5351562-1.132813.1072623-.110102.2251619-.199251.3476563-.277343l-.1367187-.136719z" fill="#d70015"/></svg>