<svg viewBox="0 0 16 16" xmlns="http://www.w3.org/2000/svg" xmlns:xlink="http://www.w3.org/1999/xlink"><linearGradient id="a" gradientUnits="userSpaceOnUse" x1="83" x2="83" y1="9" y2="1"><stop offset="0" stop-color="#0040dd"/><stop offset="1" stop-color="#0a84ff"/></linearGradient>





     /&amp;amp;amp;amp;gt;
 <path d="m3.9003906 0-2.9394531 8h1.3515625l.6875-2h3.0371094l.6777344 2h1.3574218l-2.9082031-8zm.6113282 1.5996094h.0332031l1.1523437 3.4003906h-2.3535156z" fill="#4b4b4f" stroke-width=".281312"/><rect fill="url(#a)" height="8" ry="1" width="16" y="8"/><path d="m13.99619 1.0185692-3.99619-.0185692v2h2.032226c.835268.010991 1.487364.2253029 1.956286.6429367.468922.4176341.707194 1.231041.707194 1.9490785 0 .7217011-.236293 1.2968638-.708879 1.7254883s-1.117354.6502636-1.934305.6649174h-3.0663137v-8.00099006l5.0137917.01856916zm-3.99619 2.9814308v3h1.971779c.523874 0 .930518-.1392114 1.219931-.4176341.293076-.2784227.443425-.5324185.443425-1.001341 0-.4506053-.144853-.9197709-.426939-1.1798763-.278423-.2601055-.675908-.3938217-1.192455-.4011486z" fill="#4b4b4f"/><g fill="#fff"><path d="m3 14.265324 1-.09205v-4.139376h-1.0885284v-.7010907l2.0131149-.4453173v5.251889l1.0754135.125945v.734676h-3z"/><path d="m9.7897247 15.000007v-.776919l1.9950103-2.054156c.288027-.317275.492753-.584383.614176-.801324.121423-.219653.182134-.423035.182134-.610146 0-.249481-.07059-.452863-.211784-.610145-.138366-.159994-.336032-.239991-.592997-.239991-.285203 0-.502636.093556-.652297.280667-.146837.184399-.220255.431169-.220255.74031h-1.2029369l-.00847-.02441c-.01412-.534213.1680143-.9857186.5464029-1.3545179.381212-.3715107.893731-.5572661 1.537556-.5572661.635353 0 1.135165.1586378 1.499434.4759134.36427.3172757.546405.7403096.546405 1.2691026 0 .357952-.103069.688786-.309206.992503-.203313.303717-.542169.699634-1.016566 1.18775l-1.105923 1.062292.0085.02033h1.601092l.05971-.49689h.94029v1.49689z"/></g></svg>