<svg height="512" width="512" xmlns="http://www.w3.org/2000/svg" xmlns:xlink="http://www.w3.org/1999/xlink"><linearGradient id="a" gradientUnits="userSpaceOnUse" x1="1710" x2="1358" xlink:href="#b" y1="125.99995" y2="-338.00006"/><linearGradient id="b"><stop offset="0" stop-color="#18a303"/><stop offset="1" stop-color="#43c330"/></linearGradient><linearGradient id="c" gradientUnits="userSpaceOnUse" x1="1565.251" x2="1565.251" y1="51.992012" y2="-52.007824"><stop offset="0" stop-color="#727272"/><stop offset="1" stop-color="#9a9a9a"/></linearGradient><linearGradient id="d" gradientTransform="matrix(3.7948726 0 0 5.2000008 -1620.5396 5578.9086)" gradientUnits="userSpaceOnUse" x1="829.36053" x2="829.36053" y1="-1064.7994" y2="-1082.3413"><stop offset="0" stop-color="#e4e4e4"/><stop offset="1" stop-color="#f9f9f9"/></linearGradient><linearGradient id="e" gradientTransform="matrix(2.8571444 0 0 -6.2222009 33.2846 -6672.4172)" gradientUnits="userSpaceOnUse" x1="525.63947" x2="525.63947" y1="-1078.6444" y2="-1068.7872"><stop offset="0" stop-color="#63bbee"/><stop offset="1" stop-color="#aadcf7"/></linearGradient><linearGradient id="f" gradientUnits="userSpaceOnUse" x1="1583.6259" x2="1583.6259" y1="-7.882597" y2="-44.00742"><stop offset="0" stop-color="#a33e03"/><stop offset="1" stop-color="#c15414"/></linearGradient><linearGradient id="g" gradientTransform="matrix(2.8571444 0 0 -8.4444413 65.2846 -9068.2576)" gradientUnits="userSpaceOnUse" x1="525.63947" x2="525.63947" y1="-1078.6444" y2="-1068.7872"><stop offset="0" stop-color="#f09e6f"/><stop offset="1" stop-color="#f9cfb5"/></linearGradient><linearGradient id="h" gradientTransform="matrix(2.8571444 0 0 -3.5555365 97.2846 -3797.3768)" gradientUnits="userSpaceOnUse" x1="525.63947" x2="525.63947" y1="-1078.6444" y2="-1068.7872"><stop offset="0" stop-color="#f5ce53"/><stop offset="1" stop-color="#fde9a9"/></linearGradient><linearGradient id="i" gradientTransform="matrix(2.8571444 0 0 -5.3333208 129.2847 -5714.057)" gradientUnits="userSpaceOnUse" x1="525.63947" x2="525.63947" y1="-1078.6444" y2="-1068.7872"><stop offset="0" stop-color="#8ee780"/><stop offset="1" stop-color="#ccf4c6"/></linearGradient><linearGradient id="j" gradientUnits="userSpaceOnUse" x1="434.00592" x2="74.00592" y1="482.0002" y2="22.0002"><stop offset="0" stop-color="#e6e6e6"/><stop offset="1" stop-color="#fff"/></linearGradient><linearGradient id="k" gradientTransform="matrix(2.008088 0 0 2.0188846 126.9892 2846.1793)" gradientUnits="userSpaceOnUse" x1="151.89409" x2="-24.890991" xlink:href="#b" y1="-1168.5558" y2="-1398.881"/><path d="m63.8672 0c-8.2664 0-15.8672 7.36558-15.8672 16.24219v479.90039c0 7.73479 7.2433 15.85742 15.5137 15.85742h381.9902c9.2544 0 16.5-7.73949 16.5-15.48828v-298.38281c0-8.44868-1.0237-12.36482-7-18.33789l-170.6562-170.57227c-5.9762-5.97107-10.5476-9.0506-19-9.05859zm275.6953.0781c-13.6766-.00001-14.2772 14.22732-7.0449 21.49219v.002l106.3848 106.86718c8.6804 8.71464 23.1094 6.6482 23.1094-7.09765v-104.8711c0-8.45468-7.6541-16.39258-16.0645-16.39258z" fill="url(#k)" stroke-width="15.997"/><path d="m72.0059 24v464h366v-288l-176-176z" fill="url(#j)"/><g transform="translate(-1277.9941 388)"><path d="m1409-172.00786v8 32 8 32 8 32 8 32 8 32 8h240v-8-200h-232z" fill="url(#a)"/><g fill="#92e285"><path d="m1417.0009-164.00744h68v32h-68z"/><path d="m1492.9938-164.00744h71.9998v32h-71.9998z"/><path d="m1573.0009-164.00744h68v32h-68z"/></g><g fill="#d4f1cf"><path d="m1417.0009-124.00744h68v32.00001h-68z"/><path d="m1573.0009-124.00744h68v32.00001h-68z"/><path d="m1492.9938-84.00743h71.9998v32h-71.9998z"/><path d="m1573.0009-84.00743h68v32h-68z"/><path d="m1417.0009-84.00743h68v32h-68z"/><path d="m1492.9938-44.00742h71.9998v32h-71.9998z"/><path d="m1417.0009-44.00742h68v32h-68z"/><path d="m1492.9938-4.00742h71.9998v32.00001h-71.9998z"/><path d="m1417.0009-4.00742h68v32.00001h-68z"/></g><path d="m1509.0009-60.00743h156v112.00002h-156z" fill="url(#c)"/><path d="m1517.0009-52.00743h140v96.00002h-140z" fill="url(#d)"/><path d="m1525.0009-24.00742h28v63.99961h-28z" fill="#18a303"/><path d="m1529.0009 35.99259h20v-56.00001h-20z" fill="url(#e)"/><path d="m1557.0009-44.00742h28v83.99961h-28z" fill="url(#f)"/><path d="m1561.0009 35.99259h20v-76.00001h-20z" fill="url(#g)"/><path d="m1589.0009-.00742h28v39.99961h-28z" fill="#c99c00"/><path d="m1593.0009 35.99259h20v-32.00001h-20z" fill="url(#h)"/><path d="m1621.0009-16.00742h28v56.00001h-28z" fill="#43c330"/><path d="m1625.0009 35.99259h20v-48.00001h-20z" fill="url(#i)"/><path d="m1492.9938-124.00744h71.9998v32.00001h-71.9998z" fill="#d4f1cf"/></g></svg>