<?xml version="1.0" encoding="UTF-8"?>
<svg xmlns="http://www.w3.org/2000/svg" xmlns:xlink="http://www.w3.org/1999/xlink" width="512px" height="512px" viewBox="0 0 512 512" version="1.1">
<g id="surface1">
<path style=" stroke:none;fill-rule:nonzero;fill:rgb(88.235295%,11.764706%,9.803922%);fill-opacity:1;" d="M 429.121094 227.839844 C 423.359375 222.078125 414.078125 222.078125 408.320312 227.839844 L 255.519531 380.640625 L 191.359375 316.800781 L 156.480469 351.679688 L 255.519531 450.71875 L 453.601562 252.640625 L 429.121094 228 Z M 429.121094 227.839844 "/>
<path style=" stroke:none;fill-rule:nonzero;fill:rgb(88.235295%,11.764706%,9.803922%);fill-opacity:1;" d="M 321.761719 415.359375 L 279.359375 451.199219 L 305.601562 451.199219 C 354.078125 451.199219 393.601562 411.679688 393.601562 363.199219 L 393.601562 355.199219 L 353.28125 389.761719 C 346.558594 401.921875 335.199219 411.199219 321.761719 415.359375 Z M 321.761719 415.359375 "/>
<path style=" stroke:none;fill-rule:nonzero;fill:rgb(88.235295%,11.764706%,9.803922%);fill-opacity:1;" d="M 125.28125 417.761719 L 125.28125 87.839844 L 360.160156 87.839844 L 360.160156 231.039062 L 393.601562 202.398438 L 393.601562 54.398438 L 92 54.398438 L 92 451.199219 L 210.71875 451.199219 L 182.558594 417.761719 Z M 125.28125 417.761719 "/>
<path style=" stroke:none;fill-rule:nonzero;fill:rgb(88.235295%,11.764706%,9.803922%);fill-opacity:1;" d="M 186.71875 116.480469 L 291.839844 116.480469 C 302.355469 116.480469 310.878906 125.003906 310.878906 135.519531 L 310.878906 138.078125 C 310.878906 148.59375 302.355469 157.121094 291.839844 157.121094 L 186.71875 157.121094 C 176.203125 157.121094 167.679688 148.59375 167.679688 138.078125 L 167.679688 135.519531 C 167.679688 125.003906 176.203125 116.480469 186.71875 116.480469 Z M 186.71875 116.480469 "/>
<path style=" stroke:none;fill-rule:nonzero;fill:rgb(88.235295%,11.764706%,9.803922%);fill-opacity:1;" d="M 188.160156 212.640625 L 294.878906 212.640625 C 304.953125 212.640625 313.121094 220.804688 313.121094 230.878906 L 313.121094 233.121094 C 313.121094 243.195312 304.953125 251.359375 294.878906 251.359375 L 188.160156 251.359375 C 178.085938 251.359375 169.921875 243.195312 169.921875 233.121094 L 169.921875 230.878906 C 169.921875 220.804688 178.085938 212.640625 188.160156 212.640625 Z M 188.160156 212.640625 "/>
</g>
</svg>
