<svg height="32" viewBox="0 0 32 32" width="32" xmlns="http://www.w3.org/2000/svg"><g fill="#2e3436"><path d="m3 27v2h26v-2z"/><path d="m16.981576 1.2452966c-3.181711-.0000001-5.851553.788532-7.7465624 2.248205-1.8958819 1.4603444-2.9893715 3.607269-2.9893715 6.165407 0 2.5156674 1.0697934 4.2640524 2.6187882 5.4516914 1.5470217 1.186126 3.5392767 1.861117 5.4901217 2.456829 1.950832.595709 3.871126 1.114862 5.240322 1.877622 1.372748.764742 2.171343 1.659706 2.171343 3.252898 0 1.261074-.505926 2.230815-1.518019 2.95094-1.009925.71858-2.557739 1.158416-4.586997 1.158416-1.987164 0-4.40687-.451406-6.6787331-1.213317a1.9241953 1.9241953 0 0 0 -.4721504-.159214 1.9241953 1.9241953 0 0 0 -.0027451 0 1.9241953 1.9241953 0 0 0 -.3733283-.035685 1.9241953 1.9241953 0 0 0 -1.9215427 1.921542 1.9241953 1.9241953 0 0 0 1.1062596 1.743114l-.0027451.00549c2.7365051 1.092685 5.4945391 1.685468 8.1445961 1.685468 3.183773 0 5.855518-.809437 7.749307-2.294871 1.894579-1.486055 2.983882-3.662588 2.983882-6.239524 0-2.591605-1.069469-4.37818-2.624279-5.580709-1.55283-1.200998-3.555239-1.861567-5.512082-2.437614-1.956925-.576073-3.880393-1.069045-5.251302-1.814486-1.374735-.747519-2.171343-1.632497-2.171343-3.2474069 0-1.3296012.49149-2.2607778 1.493313-2.9454505.998928-.6826944 2.554139-1.081554 4.611702-1.081554 1.786666 0 3.704207.2899925 5.37483.7988127l-.008235-.0054901.002745-.002745a1.9090671 1.9090671 0 0 0 .727441.1482333 1.9090671 1.9090671 0 0 0 1.907817-1.9105625 1.9090671 1.9090671 0 0 0 -1.465862-1.8584063c-2.006862-.6752603-4.159731-1.0376331-6.29717-1.0376331z" transform="matrix(.71150513 0 0 .71150513 5.142131 3.115918)"/></g></svg>