<?xml version="1.0" encoding="UTF-8" standalone="no"?>
<svg
   viewBox="0 0 22 14"
   version="1.1"
   id="svg410"
   sodipodi:docname="doublepage_10x22.svg"
   width="22"
   height="14"
   inkscape:export-filename="doublepage_10x22.png"
   inkscape:export-xdpi="90"
   inkscape:export-ydpi="90"
   inkscape:version="1.2.2 (b0a8486541, 2022-12-01)"
   xmlns:inkscape="http://www.inkscape.org/namespaces/inkscape"
   xmlns:sodipodi="http://sodipodi.sourceforge.net/DTD/sodipodi-0.dtd"
   xmlns:xlink="http://www.w3.org/1999/xlink"
   xmlns="http://www.w3.org/2000/svg"
   xmlns:svg="http://www.w3.org/2000/svg">
  <defs
     id="defs414">
    <linearGradient
       inkscape:collect="always"
       xlink:href="#a"
       id="linearGradient1135"
       gradientUnits="userSpaceOnUse"
       x1="9.500001"
       y1="9.5000095"
       x2="9.500001"
       y2="0.500009"
       gradientTransform="translate(0,1.9999748)" />
    <linearGradient
       inkscape:collect="always"
       xlink:href="#b"
       id="linearGradient1137"
       gradientUnits="userSpaceOnUse"
       gradientTransform="matrix(0.24324324,0,0,0.35135133,2.162161,1.5675538)"
       x1="15.777787"
       y1="23.999994"
       x2="15.777782"
       y2="5.9459791" />
    <linearGradient
       inkscape:collect="always"
       xlink:href="#c"
       id="linearGradient1139"
       gradientUnits="userSpaceOnUse"
       gradientTransform="matrix(0.34972769,0,0,0.35610773,-1.348519,2.2938938)"
       x1="32.892288"
       y1="8.0590124"
       x2="36.358372"
       y2="5.4565358" />
  </defs>
  <sodipodi:namedview
     id="namedview412"
     pagecolor="#505050"
     bordercolor="#ffffff"
     borderopacity="1"
     inkscape:showpageshadow="0"
     inkscape:pageopacity="0"
     inkscape:pagecheckerboard="1"
     inkscape:deskcolor="#505050"
     showgrid="false"
     inkscape:zoom="23.6"
     inkscape:cx="11.080508"
     inkscape:cy="5.0635593"
     inkscape:window-width="1322"
     inkscape:window-height="671"
     inkscape:window-x="67"
     inkscape:window-y="275"
     inkscape:window-maximized="0"
     inkscape:current-layer="svg410" />
  <linearGradient
     id="a"
     gradientUnits="userSpaceOnUse"
     x1="9.500001"
     x2="9.500001"
     y1="9.5000095"
     y2="0.500009">
    <stop
       offset="0"
       stop-color="#fff"
       id="stop360" />
    <stop
       offset="1"
       stop-color="#fafafa"
       id="stop362" />
  </linearGradient>
  <linearGradient
     id="b"
     gradientTransform="matrix(0.24324324,0,0,0.35135133,2.162161,-0.432421)"
     gradientUnits="userSpaceOnUse"
     x1="15.777787"
     x2="15.777782"
     y1="23.999994"
     y2="5.9459791">
    <stop
       offset="0"
       stop-color="#fff"
       id="stop365" />
    <stop
       offset="0"
       stop-color="#fff"
       stop-opacity=".235294"
       id="stop367" />
    <stop
       offset=".97230476"
       stop-color="#fff"
       stop-opacity=".156863"
       id="stop369" />
    <stop
       offset="1"
       stop-color="#fff"
       stop-opacity=".392157"
       id="stop371" />
  </linearGradient>
  <linearGradient
     id="c"
     gradientTransform="matrix(0.34972769,0,0,0.35610773,-1.348519,0.293919)"
     gradientUnits="userSpaceOnUse"
     x1="32.892288"
     x2="36.358372"
     y1="8.0590124"
     y2="5.4565358">
    <stop
       offset="0"
       stop-color="#fefefe"
       id="stop374" />
    <stop
       offset="1"
       stop-color="#cbcbcb"
       id="stop376" />
  </linearGradient>
  <linearGradient
     id="d"
     gradientUnits="userSpaceOnUse"
     x1="9.500001"
     x2="9.500001"
     xlink:href="#a"
     y1="9.5000095"
     y2="0.500009"
     gradientTransform="translate(0,1.9999748)" />
  <linearGradient
     id="e"
     gradientTransform="matrix(0.24324324,0,0,0.35135133,2.162161,1.5675538)"
     gradientUnits="userSpaceOnUse"
     x1="15.777787"
     x2="15.777782"
     xlink:href="#b"
     y1="23.999994"
     y2="5.9459791" />
  <linearGradient
     id="f"
     gradientTransform="matrix(0.34972769,0,0,0.35610773,-1.348519,2.2938938)"
     gradientUnits="userSpaceOnUse"
     x1="32.892288"
     x2="36.358372"
     xlink:href="#c"
     y1="8.0590124"
     y2="5.4565358" />
  <g
     transform="matrix(0.99999998,0,0,-0.99999998,5,12)"
     id="g394">
    <path
       d="M 6.5000001,0.500018 H 9.5 c 1.646822,0.8015353 3.070656,2.3509331 4,3.5 V 9.5000178 H 6.5000001 Z"
       fill="url(#a)"
       id="path382"
       style="fill:url(#linearGradient1135)" />
    <path
       d="M 12.500001,8.5000088 H 7.5000011 V 1.500009 H 8.998941 l 3.50106,3.33947 z"
       fill="none"
       opacity="0.5"
       stroke="url(#b)"
       stroke-linecap="round"
       id="path384"
       style="stroke:url(#linearGradient1137)" />
    <path
       d="m 6.4999611,0.49997874 2.7676599,5.1e-4 c 0.61416,0 4.23241,2.73141026 4.23241,3.88354026 l 10e-6,5.1160098 H 6.4999611 Z"
       fill="none"
       stroke="#4d4d4d"
       stroke-linejoin="round"
       stroke-width="0.999922"
       id="path386" />
    <g
       fill-rule="evenodd"
       id="g392">
      <path
         d="m 7.000001,0.98754874 c 1.11697,0 1,4.01246026 1,4.01246026 0,0 5.01089,-0.58127 5.01089,1 0,-0.38528 0.0301,-1.8063 -0.0469,-1.92652 -0.55326,-0.86374 -2.94292,-2.80197 -3.80586,-3.0559903 -0.69408,-0.058 -2.15813,-0.0299 -2.15813,-0.0299 z"
         fill="#4d4d4d"
         id="path388" />
      <path
         d="m 8.000001,0.98754874 c 1.11697,0 1,3.01246026 1,3.01246026 0,0 4.01089,-0.58127 4.01089,1 0,-0.38528 0.0301,-0.8063 -0.0469,-0.92652 -0.55326,-0.86374 -2.94292,-2.80197 -3.80586,-3.0559903 -0.17779,-0.005 -0.98055,-0.02 -1.15813,-0.0299 z"
         fill="url(#c)"
         id="path390"
         style="fill:url(#linearGradient1139)" />
    </g>
  </g>
  <g
     transform="rotate(180,8.500001,5.9999999)"
     id="g408">
    <path
       d="M 6.5000001,0.500018 H 9.5 c 1.646822,0.8015353 3.070656,2.3509331 4,3.5 V 9.5000178 H 6.5000001 Z"
       fill="url(#d)"
       id="path396"
       style="fill:url(#d)" />
    <path
       d="M 12.500001,8.5000088 H 7.5000011 V 1.500009 H 8.998941 l 3.50106,3.33947 z"
       fill="none"
       opacity="0.5"
       stroke="url(#e)"
       stroke-linecap="round"
       id="path398"
       style="stroke:url(#e)" />
    <path
       d="m 6.4999611,0.49997874 2.7676599,5.1e-4 c 0.61416,0 4.23241,2.73141026 4.23241,3.88354026 l 10e-6,5.1160098 H 6.4999611 Z"
       fill="none"
       stroke="#4d4d4d"
       stroke-linejoin="round"
       stroke-width="0.999922"
       id="path400" />
    <g
       fill-rule="evenodd"
       id="g406">
      <path
         d="m 7.000001,0.98754874 c 1.11697,0 1,4.01246026 1,4.01246026 0,0 5.01089,-0.58127 5.01089,1 0,-0.38528 0.0301,-1.8063 -0.0469,-1.92652 -0.55326,-0.86374 -2.94292,-2.80197 -3.80586,-3.0559903 -0.69408,-0.058 -2.15813,-0.0299 -2.15813,-0.0299 z"
         fill="#4d4d4d"
         id="path402" />
      <path
         d="m 8.000001,0.98754874 c 1.11697,0 1,3.01246026 1,3.01246026 0,0 4.01089,-0.58127 4.01089,1 0,-0.38528 0.0301,-0.8063 -0.0469,-0.92652 -0.55326,-0.86374 -2.94292,-2.80197 -3.80586,-3.0559903 -0.17779,-0.005 -0.98055,-0.02 -1.15813,-0.0299 z"
         fill="url(#f)"
         id="path404"
         style="fill:url(#f)" />
    </g>
  </g>
</svg>
