<?xml version="1.0" encoding="UTF-8" standalone="no"?>
<svg
   viewBox="0 0 14 14"
   version="1.1"
   id="svg902"
   sodipodi:docname="emptypage_a_10x14.svg"
   width="14"
   height="14"
   inkscape:export-filename="emptypage_a_10x14.png"
   inkscape:export-xdpi="90"
   inkscape:export-ydpi="90"
   inkscape:version="1.2.2 (b0a8486541, 2022-12-01)"
   xmlns:inkscape="http://www.inkscape.org/namespaces/inkscape"
   xmlns:sodipodi="http://sodipodi.sourceforge.net/DTD/sodipodi-0.dtd"
   xmlns="http://www.w3.org/2000/svg"
   xmlns:svg="http://www.w3.org/2000/svg">
  <defs
     id="defs906" />
  <sodipodi:namedview
     id="namedview904"
     pagecolor="#505050"
     bordercolor="#ffffff"
     borderopacity="1"
     inkscape:showpageshadow="0"
     inkscape:pageopacity="0"
     inkscape:pagecheckerboard="1"
     inkscape:deskcolor="#505050"
     showgrid="false"
     inkscape:zoom="23.6"
     inkscape:cx="7.0338983"
     inkscape:cy="3.7288136"
     inkscape:window-width="1409"
     inkscape:window-height="784"
     inkscape:window-x="536"
     inkscape:window-y="257"
     inkscape:window-maximized="0"
     inkscape:current-layer="svg902" />
  <linearGradient
     id="a"
     gradientTransform="matrix(0.24324324,0,0,0.35135133,2.162161,1.5675695)"
     gradientUnits="userSpaceOnUse"
     x1="15.777787"
     x2="15.777782"
     y1="23.999994"
     y2="5.9459791">
    <stop
       offset="0"
       stop-color="#fff"
       id="stop864" />
    <stop
       offset="0"
       stop-color="#fff"
       stop-opacity=".235294"
       id="stop866" />
    <stop
       offset=".97230476"
       stop-color="#fff"
       stop-opacity=".156863"
       id="stop868" />
    <stop
       offset="1"
       stop-color="#fff"
       stop-opacity=".392157"
       id="stop870" />
  </linearGradient>
  <linearGradient
     id="b"
     gradientTransform="matrix(0.34972769,0,0,0.35610773,-1.348519,2.2939095)"
     gradientUnits="userSpaceOnUse"
     x1="32.892288"
     x2="36.358372"
     y1="8.0590124"
     y2="5.4565358">
    <stop
       offset="0"
       stop-color="#fefefe"
       id="stop873" />
    <stop
       offset="1"
       stop-color="#cbcbcb"
       id="stop875" />
  </linearGradient>
  <linearGradient
     id="c"
     gradientUnits="userSpaceOnUse"
     x1="9.500001"
     x2="9.500001"
     y1="9.5000095"
     y2="0.500009"
     gradientTransform="translate(0,1.9999905)">
    <stop
       offset="0"
       stop-color="#fff"
       id="stop878" />
    <stop
       offset="1"
       stop-color="#fafafa"
       id="stop880" />
  </linearGradient>
  <linearGradient
     id="d"
     gradientTransform="matrix(0.25378586,0,0,0.30501865,19.128979,1.3145135)"
     gradientUnits="userSpaceOnUse"
     x1="9.500001"
     x2="9.500001"
     y1="9.0000003e-06"
     y2="10.00001">
    <stop
       offset="0"
       stop-color="#a62100"
       stop-opacity=".556863"
       id="stop883" />
    <stop
       offset="1"
       stop-color="#a62100"
       id="stop885" />
  </linearGradient>
  <g
     transform="matrix(0.99999997,0,0,-0.99999997,-3.000001,11.999999)"
     id="g900">
    <path
       d="M 6.5000001,0.500018 H 9.5 c 1.646822,0.8015353 3.070656,2.3509331 4,3.5 V 9.5000178 H 6.5000001 Z"
       fill="url(#c)"
       id="path888"
       style="fill:url(#c)" />
    <path
       d="M 12.500001,8.5000088 H 7.5000011 V 1.500009 H 8.998941 l 3.50106,3.33947 z"
       fill="none"
       opacity="0.5"
       stroke="url(#a)"
       stroke-linecap="round"
       id="path890"
       style="stroke:url(#a)" />
    <path
       d="m 6.4999611,0.49997874 2.7676599,5.1e-4 c 0.61416,0 4.23241,2.73141026 4.23241,3.88354026 l 10e-6,5.1160098 H 6.4999611 Z"
       fill="none"
       stroke="url(#d)"
       stroke-linejoin="round"
       stroke-width="0.999922"
       id="path892"
       style="stroke:url(#d)" />
    <g
       fill-rule="evenodd"
       id="g898">
      <path
         d="m 7.000001,0.98754874 c 1.11697,0 1,4.01246026 1,4.01246026 0,0 5.01089,-0.58127 5.01089,1 0,-0.38528 0.0301,-1.8063 -0.0469,-1.92652 -0.55326,-0.86374 -2.94292,-2.80197 -3.80586,-3.0559903 -0.69408,-0.058 -2.15813,-0.0299 -2.15813,-0.0299 z"
         fill="#cc3b02"
         id="path894" />
      <path
         d="m 8.000001,0.98754874 c 1.11697,0 1,3.01246026 1,3.01246026 0,0 4.01089,-0.58127 4.01089,1 0,-0.38528 0.0301,-0.8063 -0.0469,-0.92652 -0.55326,-0.86374 -2.94292,-2.80197 -3.80586,-3.0559903 -0.17779,-0.005 -0.98055,-0.02 -1.15813,-0.0299 z"
         fill="url(#b)"
         id="path896"
         style="fill:url(#b)" />
    </g>
  </g>
  <rect
     style="fill:none;stroke:#4d4d4d;stroke-width:0.999996;stroke-linecap:round;stroke-linejoin:bevel;stroke-opacity:1;paint-order:markers stroke fill"
     id="rect1825"
     width="11"
     height="13"
     x="1.5"
     y="0.5" />
</svg>
