<svg viewBox="0 0 12 12" xmlns="http://www.w3.org/2000/svg" xmlns:xlink="http://www.w3.org/1999/xlink"><linearGradient id="a" gradientUnits="userSpaceOnUse" x1="6" x2="6" y1=".5" y2="4.5"><stop offset="0" stop-color="#d4d4d4"/><stop offset="1" stop-color="#abacae"/></linearGradient><linearGradient id="b" gradientTransform="translate(-1 6)" gradientUnits="userSpaceOnUse" x1="9" x2="9" xlink:href="#c" y1="3" y2="4"/><linearGradient id="c" gradientTransform="matrix(.48483606 0 0 .5270602 -.165352 -.400235)" gradientUnits="userSpaceOnUse" x1="24.060406" x2="24.060406" y1="6.451322" y2="10.245955"><stop offset="0" stop-color="#fff"/><stop offset="0" stop-color="#fff" stop-opacity=".235294"/><stop offset=".99999982" stop-color="#fff" stop-opacity=".156863"/><stop offset="1" stop-color="#fff" stop-opacity=".392157"/></linearGradient><linearGradient id="d" gradientTransform="translate(-6 6)" gradientUnits="userSpaceOnUse" x1="9" x2="9" xlink:href="#c" y1="3" y2="4"/><linearGradient id="e" gradientTransform="translate(-1 3)" gradientUnits="userSpaceOnUse" x1="9" x2="9" xlink:href="#c" y1="3" y2="4"/><linearGradient id="f" gradientTransform="translate(-6 3)" gradientUnits="userSpaceOnUse" x1="9" x2="9" xlink:href="#c" y1="3" y2="4"/><linearGradient id="g" gradientTransform="translate(-1 -1)" gradientUnits="userSpaceOnUse" x1="9" x2="9" xlink:href="#c" y1="3" y2="4"/><linearGradient id="h" gradientTransform="translate(-6 -1)" gradientUnits="userSpaceOnUse" x1="9" x2="9" xlink:href="#c" y1="3" y2="4"/><linearGradient id="i" gradientTransform="matrix(.59436 0 0 .5999 -19.765 1.467)" gradientUnits="userSpaceOnUse" x1="42.507908" x2="42.507908" y1="-1.611935" y2="16.724455"><stop offset="0" stop-color="#fafafa"/><stop offset="1" stop-color="#e2e1de"/></linearGradient><rect fill="url(#i)" height="11" rx=".424" ry=".491" width="10" x=".5" y=".5"/><path d="m.49804688.00195313c-.27600002 0-.50000001.22399999-.50000001.49999999l.00195313 10.99804688c0 .276.224.5.5.5h10c.276 0 .5-.224.5-.5l-.001953-6.5h.001953v-1h-.002v-3.49804688c0-.276-.224-.49999999-.5-.49999999zm.49804687.99804687h9.00390625v3h-4.0019531v-2.9980469h-1v2.9980469h-4.00195315zm.00390625 4h4v2h-4v1h4v3h1v-3h4l.002 3.001953-9.002-.001953zm5 0h4v2h-4z" fill="#030303" opacity=".32"/><path d="m.92382812.5c-.23489599 0-.42382812.21822038-.42382812.49023438v3.49023442h10v-3.49023442c0-.272014-.188932-.49023438-.423828-.49023438z" fill="url(#a)"/><path d="m.5 0c-.27614237 0-.5.2238576-.5.5v4.5h.99804688v-4.00195312h9.00390612v4.00195312h.998047v-4.5c0-.2761424-.223858-.5-.5-.5zm4.5 1v3h-4v1h9v-1h-4v-3z" fill="#555761" fill-opacity=".501961"/><g fill="none" stroke-linecap="square" stroke-opacity=".67451"><path d="m6.5 1.5h3v2h-3z" opacity=".8" stroke="url(#g)"/><path d="m1.5 1.5h3v2h-3z" opacity=".8" stroke="url(#h)"/><path d="m6.5 8.5h3v2h-3z" stroke="url(#b)"/><path d="m1.5 8.5h3v2h-3z" stroke="url(#d)"/><path d="m6.5 5.5h3v1h-3z" stroke="url(#e)"/><path d="m1.5 5.5h3v1h-3z" stroke="url(#f)"/></g></svg>