<svg viewBox="0 0 12 12" xmlns="http://www.w3.org/2000/svg" xmlns:xlink="http://www.w3.org/1999/xlink"><linearGradient id="a" gradientTransform="matrix(.40402 -.4057 .60738 .60227 -17.868 .693)" gradientUnits="userSpaceOnUse" x1="30.038" x2="30.038" xlink:href="#b" y1="24.99" y2="30"/><linearGradient id="b"><stop offset="0" stop-color="#565656"/><stop offset=".5" stop-color="#9a9a9a"/><stop offset="1" stop-color="#545454"/></linearGradient><linearGradient id="c" gradientTransform="matrix(.40402 -.4057 .60738 .60227 -17.983 .81)" gradientUnits="userSpaceOnUse" x1="30.038" x2="30.038" xlink:href="#d" y1="24.99" y2="30"/><linearGradient id="d"><stop offset="0" stop-color="#b1b1b1"/><stop offset=".5" stop-color="#fff"/><stop offset="1" stop-color="#8f8f8f"/></linearGradient><linearGradient id="e" gradientTransform="matrix(.40402 -.4057 .60738 .60227 -17.466 .29)" gradientUnits="userSpaceOnUse" x1="30.038" x2="30.038" xlink:href="#b" y1="24.99" y2="30"/><linearGradient id="f" gradientTransform="matrix(.40402 -.4057 .60738 .60227 -17.58 .405)" gradientUnits="userSpaceOnUse" x1="30.038" x2="30.038" xlink:href="#d" y1="24.99" y2="30"/><linearGradient id="g" gradientTransform="matrix(.40402 -.4057 .60738 .60227 -17.062 -.116)" gradientUnits="userSpaceOnUse" x1="30.038" x2="30.038" xlink:href="#b" y1="24.99" y2="30"/><linearGradient id="h" gradientTransform="matrix(.40402 -.4057 .60738 .60227 -17.177 0)" gradientUnits="userSpaceOnUse" x1="30.038" x2="30.038" xlink:href="#d" y1="24.99" y2="30"/><linearGradient id="i" gradientTransform="matrix(.40402 -.4057 .60738 .60227 -17.637 .462)" gradientUnits="userSpaceOnUse" x1="9" x2="9" y1="29.056999" y2="26.030001"><stop offset="0" stop-color="#ece5a5"/><stop offset="1" stop-color="#fcfbf2"/></linearGradient><linearGradient id="j" gradientTransform="matrix(.37638 .03615 .0367 .37487 -2.218 -1.133)" gradientUnits="userSpaceOnUse" x1="5.518" x2="9.522" y1="37.372002" y2="41.391998"><stop offset="0" stop-color="#dbce48"/><stop offset="1" stop-color="#c5b625"/></linearGradient><linearGradient id="k" gradientTransform="matrix(.30799735 -.31002298 .38444481 .38214137 -7.184905 -2.43242)" gradientUnits="userSpaceOnUse" x1="23.576" x2="23.576" y1="25.357" y2="31.211"><stop offset="0" stop-color="#181818"/><stop offset=".135" stop-color="#dbdbdb"/><stop offset=".202" stop-color="#a4a4a4"/><stop offset=".27" stop-color="#fff"/><stop offset=".447" stop-color="#8d8d8d"/><stop offset=".571" stop-color="#959595"/><stop offset=".72" stop-color="#cecece"/><stop offset="1" stop-color="#181818"/></linearGradient><g transform="translate(-4.366477 4.369998)"><path d="m14 4.6667695c-.097-.016-.172-.01-.22.002l-6.536 1.45-1.203.267-.036.006-1.395 1.03 3.56-.053.03-.007 1.21-.266 6.533-1.462c.196-.044-.128-.295-.727-.564-.45-.2-.923-.358-1.215-.403z" fill="#0c0c0c" fill-rule="evenodd" opacity=".15"/><path d="m5.9985785 3.7955146c.2111194-.153712.8496632.1908404 1.4519092.7886093.6000237.5962837.9333702 1.2178148.7829939 1.4331596 0 0 .014815.01337.014815.01485l7.8769794-7.9293803c.191118-.1915831-.157784-.8487576-.777809-1.4658332-.622247-.6178183-1.281532-.9616282-1.47191-.7700451z" fill="url(#k)" stroke="#0c0c0c" stroke-linejoin="round" stroke-width=".35971"/><path d="m12.674769-2.9242212c.212601-.1544545.850404.190098 1.451909.7886094.600024.5970263.93337 1.2178148.783735 1.4331601 0 .00149.01482.013366.01482.014851l1.148189-1.1569237c.303715-.3029685-.02074-.811629-.725955-1.5178131-.602246-.5985114-1.240049-.9430639-1.451909-.7886093l-.01926.018564z" fill="#ffb6ed" opacity=".8" stroke="#e28ccd" stroke-linejoin="round" stroke-width=".35971"/><path d="m5.998 3.7957695c.212-.154.85.19 1.452.79.6.595.933 1.217.783 1.432 0 0 .015.013.014.014l5.540534-5.5745345.018-.02s-.015-.012-.014-.013c.15-.214-.183-.837-.783-1.433-.6-.598-1.24-.943-1.452-.79l-.018.02z" fill="#0c0c0c" opacity=".6"/><g transform="matrix(.74077 0 0 .74257 4.48 -4.400231)"><path d="m9.6775019 3.3807041c.285-.208 1.1460001.256 1.9600001 1.062.81.802 1.26 1.64 1.056 1.93l.02.018.126-.127s-.02-.016-.02-.018c.203-.29-.246-1.127-1.057-1.93-.812-.806-1.674-1.27-1.9600001-1.062z" fill="url(#a)"/><path d="m9.5605019 3.4967041c.286-.208 1.1480001.256 1.9600001 1.062.81.803 1.26 1.64 1.058 1.93 0 .002.02.018.02.02l.126-.128-.02-.018c.204-.29-.246-1.128-1.057-1.932-.813-.806-1.6740001-1.27-1.9600001-1.062z" fill="url(#c)"/><path d="m10.077502 2.9767041c.287-.208 1.15.256 1.96 1.062.81.804 1.26 1.64 1.06 1.93-.002.002.018.018.017.02l.127-.127c0-.002-.02-.018-.02-.02.203-.29-.246-1.126-1.057-1.93-.812-.805-1.674-1.27-1.96-1.062z" fill="url(#e)"/><path d="m9.9625019 3.0937041c.2860001-.21 1.1480001.256 1.9600001 1.06.81.805 1.26 1.642 1.058 1.932l.02.018.125-.126s-.02-.018-.02-.02c.204-.288-.246-1.126-1.056-1.93-.813-.805-1.674-1.27-1.96-1.062z" fill="url(#f)"/><path d="m10.482502 2.5707041c.286-.207 1.148.257 1.96 1.062.81.803 1.26 1.64 1.058 1.93 0 0 .02.018.02.02l.125-.128s-.02-.018-.02-.02c.203-.288-.246-1.126-1.057-1.93-.81-.805-1.673-1.27-1.96-1.062z" fill="url(#g)"/><path d="m10.367502 2.6867041c.285-.207 1.147.257 1.96 1.062.81.804 1.26 1.642 1.057 1.93 0 .002.02.02.02.02l.125-.127s-.02-.018-.02-.02c.204-.288-.246-1.126-1.056-1.93-.813-.805-1.674-1.27-1.96-1.06z" fill="url(#h)"/><g fill-rule="evenodd" stroke-width=".485"><path d="m.26 15.794 4.772-1.725.04-.04c.202-.29-.253-1.128-1.064-1.93-.812-.807-1.673-1.27-1.96-1.06z" fill="url(#i)" stroke="url(#j)"/><path d="m.744 14.506-.484 1.284 1.3-.474c-.113-.134-.22-.268-.354-.402-.155-.154-.307-.28-.462-.408z" fill="#0c0c0c" stroke="#0c0c0c"/></g></g></g></svg>