<svg viewBox="0 0 16 16" xmlns="http://www.w3.org/2000/svg" xmlns:xlink="http://www.w3.org/1999/xlink"><linearGradient id="a"><stop offset="0" stop-color="#737373"/><stop offset=".262" stop-color="#636363"/><stop offset=".705" stop-color="#4b4b4b"/><stop offset="1" stop-color="#3f3f3f"/></linearGradient><radialGradient id="b" cx="10" cy="1.34" gradientTransform="matrix(-2.79608 0 0 -2.9958 37.96 4.016)" gradientUnits="userSpaceOnUse" r="5.007" xlink:href="#a"/><radialGradient id="c" cx="9" cy="1.239" gradientTransform="matrix(-2.5459 0 0 -2.9096 31.913 3.606)" gradientUnits="userSpaceOnUse" r="5.499" xlink:href="#a"/><clipPath id="d"><path d="m16 1.7929688c-1.036913 1.1926078-1.994844 2.305806-2.84375 3.2773437-.01719-.0007439-.01443-.00586-.0332-.00586a.53346598.53346598 0 0 0 -.429691.2167975l-4.427734 5.986328c-.5977315.129119-1.1855087.457135-1.6035156 1.091797-1.1329277 1.726413-2.4042969 3.275391-2.4042969 3.275391a.53346598.53346598 0 0 0 -.1191406.365234h5.4785156c.1737957-.102636.340494-.219138.4882815-.365234.412334-.407618.681596-.978348.802734-1.691407.05267-.307763-.0127-.578532-.05664-.855468l5.148437-4.4882816z"/></clipPath><linearGradient id="e" gradientTransform="matrix(.5656 0 0 .5621 -.077 -7.93)" gradientUnits="userSpaceOnUse" x1="28.059" x2="33.437" y1="18.868" y2="23.743"><stop offset="0" stop-color="#6e3d09"/><stop offset=".242" stop-color="#ea8113"/><stop offset=".621" stop-color="#5c3307"/><stop offset="1" stop-color="#e07c12"/></linearGradient><linearGradient id="f" gradientTransform="matrix(.55645 0 0 .56274 .185 -7.95)" gradientUnits="userSpaceOnUse" x1="20.250999" x2="22.011999" y1="29.811001" y2="31.724001"><stop offset="0" stop-color="#f2f2f2"/><stop offset="1" stop-color="#c3c3c3"/></linearGradient><radialGradient id="g" cx="15.415" cy="35.356998" gradientTransform="matrix(.45238 0 0 .5118 1.782 -5.44)" gradientUnits="userSpaceOnUse" r="7.579"><stop offset="0" stop-color="#650000"/><stop offset="1" stop-color="#fb66f5"/></radialGradient>
/&amp;gt;<g transform="translate(-2)"><path d="m7.34 1.494c-1.583 0-2.78.338-3.604 1.022a.493.493 0 0 0 -.002 0c-.82.67-1.24 1.694-1.24 3.035 0 1.395.446 2.48 1.32 3.216a.493.493 0 0 0 .002.002c.875.74 2.12 1.11 3.74 1.11h.186v4.138a.493.493 0 0 0 .492.492h.774a.493.493 0 0 0 .492-.492c0-3.137-.006-6.86-.008-10.524h2.016v10.507a.493.493 0 0 0 .492.492h1a.493.493 0 0 0 .492-.492v-12a.493.493 0 0 0 -.492-.492c-2.288 0-3.16-.008-5.658-.014a.493.493 0 0 0 -.002 0zm-3.604 1.022.09-.06a.493.493 0 0 0 -.09.06z" fill="url(#c)"/><path d="m7.34 1c-1.654 0-2.98.357-3.922 1.14-.95.776-1.418 1.963-1.418 3.41 0 1.503.498 2.75 1.494 3.59 1.156 1.08 2.873 1.223 3.74 1.23h.014v4.136c0 .273.22.494.495.494h1.757c.274 0 .496-.22.494-.494l.006-10.506h1v10.518c0 .266.216.482.483.482h2.035c.266 0 .483-.216.482-.482v-13.036c0-.266-.216-.482-.482-.482h-4.518zm5.66 1v12h-1v-11h-3c.002 3.832.008 7.733.008 11.016h-.773v-4.14c0-.27-.22-.49-.492-.49h-.188c-1.543 0-2.66-.35-3.42-.995h-.002c-.764-.645-1.147-1.542-1.147-2.84 0-1.246.358-2.08 1.06-2.654h.005c.702-.584 1.778-.91 3.29-.91 2.496.005 3.371.013 5.659.013z" fill-opacity=".431"/><path d="m13 2v12h-1v-11h-3c.002 3.832.008 7.733.008 11.016h-.773v-4.14c0-.27-.22-.49-.492-.49h-.188c-1.543 0-2.66-.35-3.42-.995h-.002c-.764-.645-1.147-1.542-1.147-2.84 0-1.246.358-2.08 1.06-2.654h.005c.702-.584 1.778-.91 3.29-.91 2.496.005 3.371.013 5.659.013z" fill="url(#b)"/></g><g clip-path="url(#d)"><path d="m13.247 5.778 2.3 2.136.91-.942-.01-4.88c-1.168 1.343-2.276 2.634-3.2 3.687z" fill="url(#e)" stroke="#673907" stroke-linecap="round"/><path d="m8.316 12.098 1.437 1.24 6.05-5.273c-.245-.88-1.64-2.467-2.68-2.467z" fill="url(#f)" stroke="#797b75" stroke-linecap="round"/><path d="m4.667 15.973c3.003 0 5.284.417 5.715-2.12.35-2.045-2.073-3.025-3.275-1.2-1.153 1.757-2.437 3.32-2.437 3.32z" fill="url(#g)"/></g></svg>