<svg viewBox="0 0 16 16" xmlns="http://www.w3.org/2000/svg" xmlns:xlink="http://www.w3.org/1999/xlink"><linearGradient id="a" gradientTransform="matrix(.94102962 0 0 1.0270126 .46127 -4.56038)" gradientUnits="userSpaceOnUse" x1="7" x2="7" y1="-4" y2="17"><stop offset="0" stop-color="#cdf87e"/><stop offset=".26238" stop-color="#a2e34f"/><stop offset=".66093999" stop-color="#68b723"/><stop offset="1" stop-color="#1d7e0d"/></linearGradient><linearGradient id="b" gradientTransform="matrix(.59435835 0 0 .59991399 -19.26472 -.032551)" gradientUnits="userSpaceOnUse" x1="25.132275" x2="25.132275" y1="15.499894" y2="48.395687"><stop offset="0" stop-color="#fafafa"/><stop offset="1" stop-color="#e2e1de"/></linearGradient><linearGradient id="c" gradientTransform="matrix(.98703551 0 0 .88413271 .093223 -3.350946)" gradientUnits="userSpaceOnUse" x1="7" x2="7" y1="2" y2="9"><stop offset="0" stop-color="#fff"/><stop offset=".5" stop-color="#fff" stop-opacity=".235294"/><stop offset=".95056331" stop-color="#fff" stop-opacity=".156863"/><stop offset="1" stop-color="#fff" stop-opacity=".392157"/></linearGradient><clipPath id="d"><path d="m16 1.7929688c-1.036913 1.1926078-1.994844 2.305806-2.84375 3.2773437-.01719-.0007439-.01443-.00586-.0332-.00586a.53346598.53346598 0 0 0 -.429691.2167975l-4.427734 5.986328c-.5977315.129119-1.1855087.457135-1.6035156 1.091797-1.1329277 1.726413-2.4042969 3.275391-2.4042969 3.275391a.53346598.53346598 0 0 0 -.1191406.365234h5.4785156c.1737957-.102636.340494-.219138.4882815-.365234.412334-.407618.681596-.978348.802734-1.691407.05267-.307763-.0127-.578532-.05664-.855468l5.148437-4.4882816z"/></clipPath><linearGradient id="e" gradientTransform="matrix(.5656 0 0 .5621 -.077 -7.93)" gradientUnits="userSpaceOnUse" x1="28.059" x2="33.437" y1="18.868" y2="23.743"><stop offset="0" stop-color="#6e3d09"/><stop offset=".242" stop-color="#ea8113"/><stop offset=".621" stop-color="#5c3307"/><stop offset="1" stop-color="#e07c12"/></linearGradient><linearGradient id="f" gradientTransform="matrix(.55645 0 0 .56274 .185 -7.95)" gradientUnits="userSpaceOnUse" x1="20.250999" x2="22.011999" y1="29.811001" y2="31.724001"><stop offset="0" stop-color="#f2f2f2"/><stop offset="1" stop-color="#c3c3c3"/></linearGradient><radialGradient id="g" cx="15.415" cy="35.356998" gradientTransform="matrix(.45238 0 0 .5118 1.782 -5.44)" gradientUnits="userSpaceOnUse" r="7.579"><stop offset="0" stop-color="#650000"/><stop offset="1" stop-color="#fb66f5"/></radialGradient><g transform="translate(0 2)"><rect fill="url(#b)" height="13.999999" rx=".423727" ry=".491478" stroke-width="1.33333" width="14" x="1" y="-1"/><path d="m.5 0c-.27630145-.0003844-.50038442.2236985-.5.5v2.5 1 11.5c-.00038442.276301.22369855.500384.5.5h15c.276301.000384.500384-.223699.5-.5v-11.5-1-2.5c.000384-.2763015-.223699-.5003844-.5-.5zm.49804688.99804688h14.00390612v2.00195312h-4.001953v-2h-1v2h-4v-2h-1v2h-4.00195312zm0 3.00195312h4.00195312v3h-4v1h4v3h-4v1h4v3h1v-3h4v3h1v-3h4v-1h-4v-3h4v-1h-4v-3h4.001953v11.001953h-14.00390612zm5.00195312 0h4v3h-4zm0 4h4v3h-4z" fill="#030303" opacity=".32" transform="translate(0 -2)"/><path d="m.5-1.999999a.49930579.49930579 0 0 0 -.5.5v3.5h.99804688v-3.0019531h14.00390612v3.0019531h.998047v-3.5a.49930579.49930579 0 0 0 -.5-.5zm4.5.99999998v2.00000002h-4v1h4 1 4 1 4v-1h-4v-2.00000002h-1v2.00000002h-4v-2.00000002z" fill="#126400" opacity=".4"/><path d="m.50129612-1.4793423h15.01644788v3.0810383h-15.01644788z" fill="url(#a)" stroke-width=".983082"/><path d="m.50129512-1.4793423.000001 3.0810383 1.00944998-.0078105-.0107461-2.156385h13.0625v2.1641971l.955238.0000005.000006-3.0810383z" fill="url(#c)"/><path d="m5-1.505821h1v3.074325h-1z" fill="#126400" opacity=".4"/><path d="m10-1.505821h1v3.102963h-1z" fill="#126400" opacity=".4"/><g clip-path="url(#d)" transform="translate(0 -1.999999)"><path d="m13.247 5.778 2.3 2.136.91-.942-.01-4.88c-1.168 1.343-2.276 2.634-3.2 3.687z" fill="url(#e)" stroke="#673907" stroke-linecap="round"/><path d="m8.316 12.098 1.437 1.24 6.05-5.273c-.245-.88-1.64-2.467-2.68-2.467z" fill="url(#f)" stroke="#797b75" stroke-linecap="round"/><path d="m4.667 15.973c3.003 0 5.284.417 5.715-2.12.35-2.045-2.073-3.025-3.275-1.2-1.153 1.757-2.437 3.32-2.437 3.32z" fill="url(#g)"/></g></g></svg>