<svg viewBox="0 0 24 24" xmlns="http://www.w3.org/2000/svg" xmlns:xlink="http://www.w3.org/1999/xlink"><linearGradient id="a" gradientTransform="matrix(1.3333333 0 0 1.375 80.33333 275.99997)" gradientUnits="userSpaceOnUse" x1="-46" x2="-56.5" xlink:href="#b" y1="-185.45454" y2="-198.54546"/><linearGradient id="b"><stop offset="0" stop-color="#18a303"/><stop offset="1" stop-color="#43c330"/></linearGradient><linearGradient id="c" gradientTransform="matrix(1.1249688 0 0 1.1245683 -120.99628 -1094.9935)" gradientUnits="userSpaceOnUse" x1="124.00017" x2="111.99994" xlink:href="#b" y1="992.375" y2="976.36902"/><path d="m3.9142044.00633c-.51568.0984-.9233.60028-.91405 1.125v21.74413c.00005.5888.53598 1.12492 1.12499 1.12498h15.7499656c.58901-.00006 1.12493-.53619 1.12499-1.12498v-14.99639c.007-.29695-.10969-.59517-.3164-.80859l-5.624946-6.74775c-.2135-.20658-.51153-.32329-.80859-.31641h-10.1250196c-.0701-.007-.14083-.007-.21094.00001zm12.9726456 0c-.37292.11879-.49843.68372-.21093.94922l3.37497 3.37277c.31178.29553.93278.0425.94921-.38671v-3.37278c-.00003-.2944-.26799-.56246-.56249-.5625h-3.37498c-.0582-.009-.11766-.009-.17578 0z" fill="url(#c)"/><path d="m4.0001344.99958v22.00086h15.9999956v-15.00086l-5.999996-7z" fill="#fff"/><path d="m5.9980474 10.99805v2 5 2h12.0019526v-2-5-.99805-1-.002zm1.001953 1.00195h4.9999996v.99805h-4.9999996zm5.9999996 0h4v .99805h-4zm-6.0019526 1.99805h5.0019526v1h-5.0019526zm6.0019526 0h4v1h-4zm-6.0019526 2h5.0019526v1h-5.0019526zm6.0019526 0h4v1h-4zm-6.0019526 2h5.0019526v1h-5.0019526zm6.0019526 0h4v1h-4z" fill="url(#a)"/></svg>