<svg height="24" viewBox="0 0 24 24" width="24" xmlns="http://www.w3.org/2000/svg"><path d="m23.558594 6.242188-5.796875-5.800782c-.582031-.582031-1.523438-.582031-2.109375-.003906-.078125.078125-.144532.164062-.207032.257812l-4.125 6.484376c-1.867187-.445313-3.835937-.15625-5.5.804687-.710937.414063-.949218 1.328125-.53125 2.039063.0625.109374.140626.210937.230469.300781l8.15625 8.152343c.328125.324219.785157.480469 1.242188.425782.460937-.058594.871093-.324219 1.105469-.726563.964843-1.660156 1.253906-3.632812.804687-5.5l6.480469-4.125c.695312-.441406.902344-1.359375.460937-2.054687-.058593-.09375-.128906-.175782-.203125-.253906zm-6.238282-2.867188-2.128906 3.355469c-.15625.230469-.460937.296875-.695312.152343-.234375-.148437-.304688-.457031-.15625-.691406l2.136718-3.355468c.136719-.238282.445313-.324219.683594-.183594.242188.136718.324219.445312.1875.6875zm0 0"/><path d="m6.417969 15.449219-5.976563 5.976562c-.589844.589844-.589844 1.542969 0 2.132813v.003906c.59375.578125 1.542969.578125 2.136719 0l5.976563-5.976562c.597656-.582032.613281-1.535157.035156-2.136719-.578125-.597657-1.535156-.613281-2.132813-.035157zm0 0"/></svg>