<?xml version="1.0" encoding="UTF-8" standalone="no"?>
<!-- Created with Inkscape (http://www.inkscape.org/) -->

<svg
   xmlns:dc="http://purl.org/dc/elements/1.1/"
   xmlns:cc="http://creativecommons.org/ns#"
   xmlns:rdf="http://www.w3.org/1999/02/22-rdf-syntax-ns#"
   xmlns:svg="http://www.w3.org/2000/svg"
   xmlns="http://www.w3.org/2000/svg"
   xmlns:sodipodi="http://sodipodi.sourceforge.net/DTD/sodipodi-0.dtd"
   xmlns:inkscape="http://www.inkscape.org/namespaces/inkscape"
   width="24"
   height="24"
   id="svg3979"
   version="1.1"
   inkscape:version="0.91 r13725"
   sodipodi:docname="lc_duplicatepage.svg">
  <defs
     id="defs3981" />
  <sodipodi:namedview
     id="base"
     pagecolor="#ffffff"
     bordercolor="#666666"
     borderopacity="1.0"
     inkscape:pageopacity="0.0"
     inkscape:pageshadow="2"
     inkscape:zoom="23.818182"
     inkscape:cx="4.6946425"
     inkscape:cy="12.00003"
     inkscape:document-units="px"
     inkscape:current-layer="layer1"
     showgrid="true"
     fit-margin-top="0"
     fit-margin-left="0"
     fit-margin-right="0"
     fit-margin-bottom="0"
     inkscape:window-width="1920"
     inkscape:window-height="1021"
     inkscape:window-x="-4"
     inkscape:window-y="0"
     inkscape:window-maximized="1"
     inkscape:showpageshadow="false"
     showguides="true">
    <inkscape:grid
       type="xygrid"
       id="grid4125"
       originx="0.99998557px"
       originy="1.0000304px" />
    <sodipodi:guide
       position="3,21"
       orientation="18,0"
       id="guide4131" />
    <sodipodi:guide
       position="3,3"
       orientation="0,18"
       id="guide4133" />
    <sodipodi:guide
       position="21,3"
       orientation="-18,0"
       id="guide4135" />
    <sodipodi:guide
       position="21,21"
       orientation="0,-18"
       id="guide4137" />
    <sodipodi:guide
       position="4,20"
       orientation="16,0"
       id="guide4139" />
    <sodipodi:guide
       position="4,4"
       orientation="0,16"
       id="guide4141" />
    <sodipodi:guide
       position="20,4"
       orientation="-16,0"
       id="guide4143" />
    <sodipodi:guide
       position="20,20"
       orientation="0,-16"
       id="guide4145" />
  </sodipodi:namedview>
  <metadata
     id="metadata3984">
    <rdf:RDF>
      <cc:Work
         rdf:about="">
        <dc:format>image/svg+xml</dc:format>
        <dc:type
           rdf:resource="http://purl.org/dc/dcmitype/StillImage" />
        <dc:title />
      </cc:Work>
    </rdf:RDF>
  </metadata>
  <g
     inkscape:label="Capa 1"
     inkscape:groupmode="layer"
     id="layer1"
     transform="translate(-600.71429,-516.21936)">
    <path
       style="opacity:1;fill:#4d4d4d;fill-opacity:1;stroke:none"
       d="m 604.71428,521.21933 1,0 13,0 0,1 0,2 0,1 1,0 1,0 0,6 -4,4 -1,0 -7,0 -1,0 0,-2 -3,0 0,-1 0,-10 0,-1 z m 1,1 0,10 2,0 0,-7 1,0 9,0 0,-1 0,-2 -12,0 z m 3,4 0,8 7,0 0,-3 0,-1 1,0 3,0 0,-4 -11,0 z"
       id="rect4147"
       inkscape:connector-curvature="0" />
  </g>
</svg>
