<svg viewBox="0 0 24 24" xmlns="http://www.w3.org/2000/svg"><path d="m2.5 2a.50005.50005 0 0 0 -.5.5v19a.50005.50005 0 0 0 .5.5h11a.50005.50005 0 0 0 .5-.5v-6.5h2v1.75a.50005.50005 0 0 0 .84375.363281l5-4.75a.50005.50005 0 0 0 0-.726562l-5-4.7500002a.50005.50005 0 0 0 -.84375.3632812v1.75h-2v-6.5a.50005.50005 0 0 0 -.5-.5zm.5 1h10v7h4v-1.5859375l3.777344 3.5859375-3.777344 3.585938v-1.585938h-4v7h-10v-9z" fill="#3a3a38"/><path d="m3 3v9 9h10v-7h4v1.585938l3.777344-3.585938-3.777344-3.5859375v1.5859375h-4v-7z" fill="#fafafa"/></svg>