<svg viewBox="0 0 24 24" xmlns="http://www.w3.org/2000/svg"><path d="m6 3v2c0 .554-.446 1-1 1h-2v12h2c .554 0 1 .446 1 1v2h12v-2c0-.554.446-1 1-1h2v-12h-2c-.554 0-1-.446-1-1v-2z" fill="#fff"/><g fill="#808080"><rect height="3" ry="1" width="3" x="19" y="2"/><rect height="3" ry="1" width="3" x="19" y="19"/><rect height="3" ry="1" width="3" x="2" y="19"/><rect height="1" ry=".5" width="12" x="6" y="20"/><rect height="1" ry=".374159" width="9" x="9" y="3"/><rect height="9" ry=".5" width="1" x="3" y="9"/><rect height="12" ry=".5" width="1" x="20" y="6"/></g><path d="m12 5-2.625 5h-4.375l4 3.5-1 5.5 4-3 4 3-1-5.5 4-3.5h-4.375z" fill="#eac282"/><g fill="#eac282"><rect height="1" ry=".5" width="6" x="1" y="1"/><rect height="6" ry=".5" width="1" x="1" y="1"/><path d="m2.4999352 7.4999941 5.0000589-5.0000589v5.0000589z" fill-rule="evenodd" stroke="#eac282" stroke-linecap="round" stroke-linejoin="round" stroke-width="1.000012"/></g></svg>