<svg viewBox="0 0 24 24" xmlns="http://www.w3.org/2000/svg">
  <path
     style="fill:#4d82b8"
     d="M 22,3 V 8 H 15 V 3 Z m -1,1 h -5 v 3 h 5 z m 1,6 v 5 h -7 v -5 z m -1,1 h -5 v 3 h 5 z m 1,6 v 5 h -7 v -5 z m -1,1 h -5 v 3 h 5 z" />
  <path
     style="fill:#ffffff"
     d="M 21,4 V 7 H 16 V 4 Z m 0,7 v 3 H 16 V 11 Z M 8,11 v 3 H 3 v -3 z m 13,7 v 3 h -5 v -3 z"
     />
  <path
     style="fill:#808080"
     d="M 18.134766,2 C 18.0042,2.00156 17.879425,2.054138 17.787109,2.1464844 L 2.1464844,17.787109 c -0.1964898,0.195487 -0.1964898,0.513498 0,0.708985 l 3.3574218,3.357422 c 0.1954865,0.196489 0.5134979,0.196489 0.7089844,0 L 21.853516,6.2128906 c 0.196489,-0.1954865 0.196489,-0.5134979 0,-0.7089844 L 18.496094,2.1464844 C 18.400432,2.0507785 18.270067,1.9979278 18.134766,2 Z" />
  <path
     style="fill:#ffffff"
     d="m 18.141602,3.1831374 -5.474923,5.4749224 2.657284,2.7112162 5.474923,-5.4929 z"
     />
  <path
     style="fill:#eac282"
     d="M 6.004237,1 H 12 L 8,5 h 2 L 1,12 4,6 H 2 Z"
     />
</svg>
