<svg viewBox="0 0 24 24" xmlns="http://www.w3.org/2000/svg"><path d="m9 3v5c0 .554-.446 1-1 1h-3v12h5.462891l.517578-2.103516c.04344-.177395.134629-.339507.263672-.46875l5.529297-5.523437.007812-.007813.738281-.720703 1.480469-1.476562v-3.9707034l-4-3.7285156zm10 16.1875-1.802734 1.8125h1.802734z" fill="#fff"/><path d="m9 2v1h5v4c0 .554.446 1 1 1h4v2.699219l.189453-.189453c.228533-.228255.512912-.376302.810547-.451172v-2.808594-.2089844c0-.4506799.098038-.4254121-.605469-1.0664062l-3.30664-3.2382813c-.709525-.7368575-.710169-.7363281-1.09375-.7363281h-.332032-.662109zm-5 7v12c0 .554.446 1 1 1h5.216797l.246094-1h-5.462891v-12zm16 9.179688-1 1.007812v1.8125h-1.802734l-.992188 1h2.794922c.554 0 1-.446 1-1z" fill="#808080"/><path d="m15 7h4l-4-4z" fill="#fff" fill-rule="evenodd"/><g fill="#eac282" transform="translate(-1 -1)"><path d="m18.480469 14.611328-5.529297 5.523438-.951172 3.865234 3.806641-1.011719 5.509765-5.544922z"/><path d="m21.419922 12c-.189562 0-.378184.07172-.523438.216797l-1.673828 1.669922 2.847656 2.849609 1.710938-1.638672c.290506-.290127.290506-.756747 0-1.046875l-1.835938-1.833984c-.145254-.145064-.335828-.216797-.52539-.216797z"/></g><path d="m9 5v1h2.5c.277 0 .5-.223.5-.5s-.223-.5-.5-.5z" fill="#808080"/><rect fill="#808080" height="1" ry=".5" width="3" x="7" y="9"/><rect fill="#d65532" height="1" ry=".5" width="5" x="12" y="9"/><rect fill="#d65532" height="1" ry=".5" width="7" x="7" y="12"/><rect fill="#808080" height="1" ry=".5" width="4" x="7" y="15"/><path d="m12.474609 15c-.262915 0-.474609.211694-.474609.474609v.050782c0 .262915.211694.474609.474609.474609h1.050782c.065728 0 .128731-.013158.185547-.037109.000848-.000358.001106-.001591.001953-.001953l.248047-.248047c.000362-.000847.001595-.001105.001953-.001953.023951-.056816.037109-.119819.037109-.185547v-.050782c0-.262915-.211694-.474609-.474609-.474609z" fill="#808080"/><rect fill="#d65532" height="1" ry=".474576" width="2" x="7" y="18"/><g fill="#eac282"><rect height="1" ry=".5" width="6" x="1" y="1"/><rect height="6" ry=".5" width="1" x="1" y="1"/><path d="m2.4999352 7.4999941 5.0000589-5.0000589v5.0000589z" fill-rule="evenodd" stroke="#eac282" stroke-linecap="round" stroke-linejoin="round" stroke-width="1.000012"/></g></svg>