<svg viewBox="0 0 24 24" xmlns="http://www.w3.org/2000/svg"><path d="m7 2.5c-1.3157614 0-2.5 1.0592386-2.5 2.375v2.375 9.5c-1.3116757 0-2 1.063287-2 2.375s.8133243 2.375 2.125 2.375h1.1875 1.1875 2.375.964844l.640625-2.603516c.043441-.177395.134629-.339507.263672-.46875 2.731746-2.728851 5.346187-5.216879 7.945312-7.917968.094628-.094513.199897-.173463.310547-.242188v-3.017578c1.311676 0 2.375-1.0632875 2.375-2.375s-1.063324-2.375-2.375-2.375h-1.1875-1.1875-8.9375zm12.5 16.107422c-.963581.933129-1.916107 1.899453-2.859375 2.892578h.484375c1.315762 0 2.375-1.094888 2.375-2.375z" fill="#fff"/><path d="m7 2c-1.5841076 0-3 1.2592251-3 2.875v2.375 9.111328c-.5602165.117159-1.0618957.359952-1.3867188.775391-.4226583.540567-.6132812 1.244966-.6132812 1.988281 0 .759198.2355668 1.470505.6914062 2.003906.4558396.533402 1.1426505.871094 1.9335938.871094h1.1875 1.1875 2.375.841797l.246094-1h-1.087891-2.375-1.1875-1.1875c-.5207324 0-.8950865-.193361-1.1738281-.519531s-.4511719-.802954-.4511719-1.355469c0-.568398.1529211-1.05209.4023438-1.371094.2494225-.319004.5769238-.503906 1.0976562-.503906a.50005.50005 0 0 0 .5-.5v-9.5-2.375c0-1.0157479.9525848-1.875 2-1.875h1.1875 8.9375 1.1875 1.1875c1.041465 0 1.875.8335002 1.875 1.875s-.833535 1.875-1.875 1.875a.50005.50005 0 0 0 -.5.5v3.451172c.062886-.06509.126586-.126073.189453-.191406.228533-.228255.512912-.376302.810547-.451172v-2.5156252c1.311646-.2656801 2.375-1.2806509 2.375-2.6679688 0-1.5819252-1.293113-2.875-2.875-2.875h-1.1875-1.1875-8.9375zm13 16.130859c-.334115.320936-.667396.645334-1 .970703v.023438c0 1.004293-.836615 1.875-1.875 1.875h-.013672c-.316218.326959-.628307.663801-.941406 1h.955078c1.593139 0 2.875-1.319069 2.875-2.875z" fill="#808080"/><g fill="#eac282"><path d="m17.480469 13.611328-5.529297 5.523438-.951172 3.865234 3.806641-1.011719 5.509765-5.544922z"/><path d="m20.419922 11c-.189562 0-.378184.07172-.523438.216797l-1.673828 1.669922 2.847656 2.849609 1.710938-1.638672c.290506-.290127.290506-.756747 0-1.046875l-1.835938-1.833984c-.145254-.145064-.335828-.216797-.52539-.216797z"/></g></svg>