<svg viewBox="0 0 24 24" xmlns="http://www.w3.org/2000/svg"><path d="m3 3v18h8.091797c.206261-.573712.756653-1 1.390625-1h1.517578v-5.873047-.089844-.953125-10.083984z" fill="#fafafa"/><path d="m2 2v20h9.091797c-.054894-.152689-.091797-.313695-.091797-.482422v-.035156c0-.168727.036902-.329733.091797-.482422h-8.091797v-18h11v10.083984c.144796-.050016.296017-.083984.455078-.083984h.544922v-11z" fill="#3a3a38"/><path d="m10 7.5a2.5 2.5 0 0 1 -2.5 2.5 2.5 2.5 0 0 1 -2.5-2.5 2.5 2.5 0 0 1 2.5-2.5 2.5 2.5 0 0 1 2.5 2.5z" fill="#fb983b"/><g fill="#3a3a38"><rect height="1" ry=".5" width="3" x="19" y="2"/><rect height="1" ry=".5" width="3" x="15" y="2"/><rect height="1" ry=".5" width="3" x="18" y="21"/></g><g fill="#0063b1"><rect height="1" ry=".483075" width="10" x="12" y="21"/><rect height="1" ry=".5" transform="rotate(90)" width="10" x="12" y="-22"/><path d="m15 15h9v1h-9z"/><rect height="1.000006" ry=".483075" transform="rotate(90)" width="9" x="15" y="-16"/></g><path d="m14 15.5-5 4.09375-2-1.59375-3 3h7.091797c.206261-.573712.756653-1 1.390625-1h1.517578z" fill="#83beec" fill-rule="evenodd"/><path d="m14 14.5-5 4.09375-2-1.59375-4 4h1l3-3 2 1.59375 5-4.09375z" fill="#0063b1" fill-rule="evenodd"/><rect fill="#3a3a38" height="3" ry=".5" width="1" x="21" y="7"/><rect fill="#3a3a38" height="3" ry=".5" width="1" x="21" y="2"/></svg>