<svg viewBox="0 0 24 24" xmlns="http://www.w3.org/2000/svg">
  <path
     style="fill:#808080"
     d="M 2,3 V 8 H 9 V 3 Z M 3,4 H 8 V 7 H 3 Z m -1,6 v 5 h 7 v -5 z m 13,0 v 2.015625 c 0.02676,-0.0025 0.05106,-0.01526 0.07813,-0.01563 0.270212,-0.0031 0.530175,0.103285 0.720703,0.294922 L 16,12.498047 V 11 h 5 v 1.023438 c 0.206784,0.0247 0.40992,0.09752 0.572266,0.251953 L 22,12.683594 V 10 Z M 3,11 h 5 v 3 H 3 Z m -1,6 v 5 h 7 v -5 z m 1,1 h 5 v 3 H 3 Z"
     />
  <path
     style="fill:#ffffff"
     d="M 3 4 L 3 7 L 8 7 L 8 4 L 3 4 z M 3 11 L 3 14 L 8 14 L 8 11 L 3 11 z M 16 11 L 16 12.498047 L 17.494141 14 L 18.509766 14 L 20.166016 12.302734 C 20.391881 12.070495 20.701028 11.987718 21 12.023438 L 21 11 L 16 11 z M 3 18 L 3 21 L 8 21 L 8 18 L 3 18 z "/>
  <path
     style="fill:#4d82b8"
     d="M 9.4941406 4.9941406 C 9.0447383 4.994232 8.8235537 5.5409805 9.1464844 5.8535156 L 12.646484 9.3535156 L 11 11 L 15 11 L 15 7 L 13.353516 8.6464844 L 9.8535156 5.1464844 C 9.7593083 5.0491156 9.6296238 4.9941406 9.4941406 4.9941406 z M 11 14 L 12.007812 15.007812 C 12.000494 14.733871 12.097502 14.459341 12.3125 14.255859 L 12.582031 14 L 11 14 z M 12.445312 15.847656 L 9.1464844 19.146484 C 8.8235537 19.459019 9.0447383 20.005768 9.4941406 20.005859 C 9.6296237 20.005859 9.7593082 19.950889 9.8535156 19.853516 L 13.144531 16.5625 L 12.445312 15.847656 z " />
  <path
     style="fill:#e68497"
     d="m 23,20.944338 -2.895447,-2.946153 2.7861,-3.086414 -2.008392,-1.911762 -2.867282,2.941173 L 15.089573,13.000009 13,14.982089 15.925403,17.985614 13,20.941176 15.089573,23 18.011584,19.911767 20.940383,23 Z" />
</svg>
