<svg viewBox="0 0 24 24" xmlns="http://www.w3.org/2000/svg"><path d="m12.292969 2.0019531a10 5 0 0 0 -10.292969 4.9980469 10 5 0 0 0 .1992188.9941406 10 5 0 0 0 1.0253906 1.4023438 10 5 0 0 0 .5136718.4179687c-.1844352-.1350082-.3559012-.2739003-.5136718-.4179687-.4741353-.4329571-.824119-.9035856-1.0253906-1.4023438-.1296742-.3213371-.1992188-.6536965-.1992188-.9941406v10c0 2.761375 4.4771525 5 10 5 5.522847 0 10-2.238625 10-5v-10a10 5 0 0 0 -9.707031-4.9980469zm9.671875 5.3554688c-.012449.0878575-.027417.1751735-.048828.2617187a10 5 0 0 0 .048828-.2617187zm-.113282.4746093c-.033339.0993493-.070359.1976513-.115234.2949219a10 5 0 0 0 .115234-.2949219zm-.203124.4648438c-.055646.1036769-.115182.2057399-.183594.3066406a10 5 0 0 0 .183594-.3066406zm-.3125.4824219c-.072075.0944054-.14748.1877364-.230469.2792969a10 5 0 0 0 .230469-.2792969zm-.402344.4589843c-.086291.0859133-.175756.1709118-.271485.2539063a10 5 0 0 0 .271485-.2539063zm-.492188.4335938c-.098103.0772877-.198489.154181-.304687.2285156a10 5 0 0 0 .304687-.2285156zm-16.566406.2363281a10 5 0 0 0 .4453125.2910159c-.1567911-.09395-.3024251-.191412-.4453125-.2910159zm15.992188.1718749c-.108858.069402-.221992.136744-.337891.203125a10 5 0 0 0 .337891-.203125zm-15.2714849.271484a10 5 0 0 0 .3925781.208985c-.136455-.067169-.263983-.138016-.3925781-.208985zm14.6289059.09961c-.119099.062318-.241839.122462-.367187.18164a10 5 0 0 0 .367187-.18164zm-13.9335934.248047a10 5 0 0 0 .4257813.1875c-.1473684-.059618-.2854995-.123866-.4257813-.1875zm13.2148434.091797c-.128473.055154-.260517.108269-.394531.160156a10 5 0 0 0 .394531-.160156zm-12.4882809.208984a10 5 0 0 0 .5214844.185547c-.1789882-.058499-.3507018-.12159-.5214844-.185547zm11.7324219.087891c-.153672.054145-.312777.104456-.472656.154297a10 5 0 0 0 .472656-.154297zm-10.9589844.173828a10 5 0 0 0 .6074219.173828c-.207576-.053956-.4086877-.112966-.6074219-.173828zm10.1269534.089843c-.165122.046776-.33506.088732-.50586.13086a10 5 0 0 0 .50586-.13086zm-9.2792971.142579a10 5 0 0 0 .65625.148437c-.223959-.044737-.4406173-.096007-.65625-.148437zm8.4140621.074218c-.185529.041218-.375133.077648-.566406.113282a10 5 0 0 0 .566406-.113282zm-7.4609371.126953a10 5 0 0 0 .6132812.103516c-.2082488-.030274-.4108829-.066772-.6132812-.103516zm6.5371091.052735c-.198495.03269-.401697.059404-.605468.085937a10 5 0 0 0 .605468-.085937zm-5.5214841.101562a10 5 0 0 0 .5507811.0625c-.186012-.017338-.368545-.040089-.5507811-.0625zm4.5683591.027344c-.18376.02041-.37118.037458-.558593.052735a10 5 0 0 0 .558593-.052735zm-3.550781.070313a10 5 0 0 0 .505859.03125c-.170417-.007359-.337994-.019672-.505859-.03125zm2.533203.017578c-.163181.009432-.328663.014076-.494141.019531a10 5 0 0 0 .494141-.019531zm-1.476562.027344a10 5 0 0 0 .457031.003906c-.046711.000321-.091808.003906-.138672.003906-.107579 0-.2116-.006126-.318359-.007812z" fill="#808080" opacity=".986928"/></svg>