<svg viewBox="0 0 24 24" xmlns="http://www.w3.org/2000/svg"><path d="m19 17.999998h-2.288026c-.264293 0-.475727-.06426-.634303-.19277-.158576-.136546-.27562-.305221-.351133-.506024l-.951457-3.301204h-5.5388345l-.9401293 3.289156c-.06041.176707-.1774542.341365-.3511327.493975-.1661273.144578-.3737864.216867-.6229774.216867h-2.3220064l5.4822003-15.9999979h3.035599zm-9.0954691-5.999998h4.1909391l-1.529127-5.1204822c-.090614-.248996-.185004-.5381526-.283171-.8674698-.098166-.3373494-.196332-.7028112-.294498-1.0963855-.090615.3935743-.185005.7590361-.283172 1.0963855-.098166.3373493-.188781.630522-.271845.8795179z" fill="#696969"/></svg>