<svg viewBox="0 0 24 24" xmlns="http://www.w3.org/2000/svg"><path d="m12 2.5a9.5 5.9375119 0 0 0 -9.5 5.9375 9.5 5.9375119 0 0 0 9.5 5.9375 9.5 5.9375119 0 0 0 9.5-5.9375 9.5 5.9375119 0 0 0 -9.5-5.9375zm-3.5625 11.875a3.5625021 1.7812501 0 0 0 -3.5625 1.78125 3.5625021 1.7812501 0 0 0 3.5625 1.78125 3.5625021 1.7812501 0 0 0 3.5625-1.78125 3.5625021 1.7812501 0 0 0 -3.5625-1.78125zm-2.375 3.5625a2.3749969 1.1875 0 0 0 -2.375 1.1875 2.3749969 1.1875 0 0 0 2.375 1.1875 2.3749969 1.1875 0 0 0 2.375-1.1875 2.3749969 1.1875 0 0 0 -2.375-1.1875zm-2.375 2.375a1.1875.59375 0 0 0 -1.1875.59375 1.1875.59375 0 0 0 1.1875.59375 1.1875.59375 0 0 0 1.1875-.59375 1.1875.59375 0 0 0 -1.1875-.59375z" fill="#fff" stroke="#808080" stroke-linecap="round" stroke-linejoin="round"/></svg>