<svg viewBox="0 0 24 24" xmlns="http://www.w3.org/2000/svg"><g fill="#808080"><path d="m8 12c-.554 0-1 .446-1 1v6c0 .554.446 1 1 1h3c.554 0 1-.446 1-1v-6c0-.554-.446-1-1-1zm0 1h3v6h-3z"/><path d="m12 6c-.554 0-1 .446-1 1v12c0 .554.446 1 1 1v-2.025391c.000731-.308934.144196-.60019.388672-.789062-.177175-.377944-.388672-.745485-.388672-1.185547v-2.025391c.000731-.308934.144196-.60019.388672-.789062-.177175-.377944-.388672-.745485-.388672-1.185547 0-1.278794.851972-2.3201674 1.949219-2.9785156.322525-.1935154.678696-.3533637 1.050781-.4941406v-1.5273438c0-.554-.446-1-1-1z"/><rect height="1" ry=".5" transform="matrix(0 -1 -1 0 0 0)" width="20" x="-22" y="-5"/><path d="m2.5 19c-.277 0-.5.223-.5.5s.223.5.5.5h9.5v-1z"/></g><path d="m8 13h3v6h-3z" fill="#fff"/><g fill="#eac282"><path d="m13 13.974609v2.025391c0 1.656854 2.238576 3 5 3s5-1.343146 5-3v-2.025391c-1.237023 1.483512-2.784273 2.025391-5 2.025391-2.447645 0-3.681267-.674935-5-2.025391z"/><ellipse cx="18" cy="12" rx="5" ry="3"/><path d="m13 17.974609v2.025391c0 1.656854 2.238576 3 5 3s5-1.343146 5-3v-2.025391c-1.237023 1.483512-3 2.025391-5 2.025391s-3.681267-.674935-5-2.025391z"/></g></svg>