<svg viewBox="0 0 24 24" xmlns="http://www.w3.org/2000/svg"><rect fill="#808080" height="1" ry=".5" width="15" x="7" y="16"/><rect fill="#808080" height="15" rx=".5" width="1" x="7" y="2"/><path d="m4.5019531 15.990234a.50005.50005 0 0 0 -.3515625.857422l1.1445313 1.150391-1.2929688 1.292969-1.1425781-1.148438a.50005.50005 0 0 0 -.3574219-.152344.50005.50005 0 0 0 -.3515625.857422l1.1445313 1.150391-1.1425781 1.142578a.50005.50005 0 1 0 .7070312.707031l1.4257812-1.425781a.50005.50005 0 0 0 .1386719-.140625l1.859375-1.857422.0019531-.001953a.50005.50005 0 0 0 .1367188-.136719.50005.50005 0 0 0 .0019531-.003906l1.4355469-1.433594a.50005.50005 0 0 0 -.3632812-.857422.50005.50005 0 0 0 -.34375.150391l-1.1503907 1.150391-1.1425781-1.148438a.50005.50005 0 0 0 -.3574219-.152344z" fill="#eac282" fill-rule="evenodd"/><g fill="#808080"><path d="m9 13c-.554 0-1 .446-1 1v6c0 .554.446 1 1 1h3c.554 0 1-.446 1-1v-6c0-.554-.446-1-1-1zm0 1h3v6h-3z"/><path d="m16 11c-.554 0-1 .446-1 1v8c0 .554.446 1 1 1h3c.554 0 1-.446 1-1v-8c0-.554-.446-1-1-1zm0 1h3v8h-3z"/><rect height="14" ry="1" width="4" x="12" y="7"/></g><g fill="#fff"><path d="m16 12h3v8h-3z"/><path d="m9 14h3v6h-3z"/></g></svg>