<svg viewBox="0 0 24 24" xmlns="http://www.w3.org/2000/svg"><path d="m3 3v18h9.003906a1.0001 1.0001 0 0 1 .285156-.761719l2.234376-2.257812-2.240235-2.300781a1.0001 1.0001 0 0 1 .029297-1.423829l2.089844-1.980468a1.0001 1.0001 0 0 1 .675781-.275391 1.0001 1.0001 0 0 1 .720703.294922l2.208984 2.220703 2.158204-2.212891a1.0001 1.0001 0 0 1 .833984-.294922v-9.007812z" fill="#fff"/><path d="m2 2v1 3 15c0 .554.446 1 1 1h9.650391l-.351563-.345703a1.0001 1.0001 0 0 1 -.205078-.292969c-.001508-.003283-.002434-.006467-.003906-.009766a1.0001 1.0001 0 0 1 -.001953-.001953 1.0001 1.0001 0 0 1 -.083985-.349609h-3.003906v-3h5.503906l.019532-.019531-.955079-.980469h-4.568359v-3h3.582031l.341797-.324219.714844-.675781h-4.638672v-3h6v2.003906c.02598-.0023.052035-.003606.078125-.003906a1.0001 1.0001 0 0 1 .390625.074219 1.0001 1.0001 0 0 1 .330078.220703l.201172.203125v-2.498047h5v2.007812a1.0001 1.0001 0 0 1 .003906.001954 1.0001 1.0001 0 0 1 .304688.085937 1.0001 1.0001 0 0 1 .263672.179688l.427734.408203v-6.683594-3-1h-1-18zm1 4h5v3h-5zm6 0h6v3h-6zm7 0h5v3h-5zm-13 4h5v3h-5zm13.5 3 .994141 1h1.015625l.976562-1zm-13.5 1h5v3h-5zm0 4h5v3h-5z" fill="#808080"/><path d="m23 20.944338-2.895447-2.946153 2.7861-3.086414-2.008392-1.911762-2.867282 2.941173-2.925406-2.941173-2.089573 1.98208 2.925403 3.003525-2.925403 2.955562 2.089573 2.058824 2.922011-3.088233 2.928799 3.088233z" fill="#e68497"/><path d="m2 2h20v4h-20z" fill="#808080"/></svg>