<svg viewBox="0 0 24 24" xmlns="http://www.w3.org/2000/svg"><path d="m2.5 2.5c.0000238-.0000237 0 14 0 14h4v5l5.5-5h1.082031l-.798828-.820312a1.0001 1.0001 0 0 1 .029297-1.423829l2.089844-1.980468a1.0001 1.0001 0 0 1 .675781-.275391 1.0001 1.0001 0 0 1 .720703.294922l2.208984 2.220703 2.158204-2.212891a1.0001 1.0001 0 0 1 1.333984-.08789v-9.714844zm12.568359 11.898438-.644531.611328 1.451172 1.490234h1.285156zm5.839844.007812-2.042969 2.09375h1.244141l1.386719-1.535156z" fill="#fff"/><path d="m2.5 2c-.277 0-.5.223-.5.5v7 7c.0000276.276131.2238691.499972.5.5h3.5v4.5c.00113.433187.5150257.660119.8359375.369141l5.3574215-4.869141h1.375l-.972656-1h-.595703c-.124355.000331-.244125.04698-.335938.130859l-4.664062 4.240235v-3.871094c-.0000276-.276131-.2238691-.499972-.5-.5h-3.5v-6.5-6.5h18v9.007812a1.0001 1.0001 0 0 1 .572266.267579l.427734.408203v-10.183594c-.000028-.2761309-.223869-.4999724-.5-.5z" fill="#eac282"/><path d="m23 20.944338-2.895447-2.946153 2.7861-3.086414-2.008392-1.911762-2.867282 2.941173-2.925406-2.941173-2.089573 1.98208 2.925403 3.003525-2.925403 2.955562 2.089573 2.058824 2.922011-3.088233 2.928799 3.088233z" fill="#e68497"/></svg>