<?xml-stylesheet type="text/css" href="icons.css" ?>
<svg viewBox="0 0 24 24" xmlns="http://www.w3.org/2000/svg">
  <g id="background"
     class="icn icn--line-color" 
     fill="none"
     stroke="#3a3a38"
     stroke-linecap="round"
     stroke-linejoin="round"
     >
      <path d="m 7.5,2.5 h 14 z m 0,3 h 8 z m 0,5 h 14 z m 0,3 h 8 z m 0,5 h 14 z m 0,3 h 8 z" />
  </g>
  <g id="symbol"
	 class="icn icn--highlight-color-line"  
     fill="none" 
     stroke="#1e8bcd" 
	 stroke-linecap="round" 
	 stroke-linejoin="round"
      >
      <path d="m 3,3.5 1.5,-1 v 5" />
      <path d="m 3.5,7.5 h 2" />
      <path d="M 2.5,11.5 C 3.5,9.6 5.5,10.3 5.4,11.6 5.4,12.9 4.2,13.9 2.8,15.0 2.6,15.1 2.3,15.4 2.3,15.5 H 5.5" />
      <path d="M 2.5,19.6 C 2.5,18.7 3.5,18.5 4,18.5 c 0.7,0 1.5,0.3 1.5,1.2 0,0.8 -0.7,1.0 -1.5,1.3 1.0,0.2 1.5,0.7 1.5,1.2 C 5.5,23.1 4.7,23.5 4,23.5 3.2,23.5 2.8,23 2.5,22.5" />
  </g>
</svg>
