<svg viewBox="0 0 24 24" xmlns="http://www.w3.org/2000/svg"><path d="m5 4v17h6.359375c-.216449-.280865-.359375-.609341-.359375-1v-1c0-.703481.438769-1.222827 1-1.580078v-.839844c-.561231-.357251-1-.876597-1-1.580078v-1c0-.703481.438769-1.222827 1-1.580078v-.419922c0-1.090703.909297-2 2-2h5v-2.2714844l-4-3.7285156z" fill="#fff"/><path d="m5 3c-.554 0-1 .446-1 1v17c0 .554.446 1 1 1h6v-1h-6v-17h9v4c0 .554.446 1 1 1h4v1h1v-1.75-.2089844c0-.4506799.098038-.4254121-.605469-1.0664062l-3.30664-3.2382813c-.709525-.7368575-.710169-.7363281-1.09375-.7363281h-.332032-.662109z" fill="#808080"/><path d="m15 8h4l-4-4z" fill="#fff"/><path d="m14 12v10h8v-10z" fill="#fff"/><g fill="#4d82b8"><path d="m14 11c-.554 0-1 .446-1 1v1c-.554 0-1 .446-1 1v1c0 .554.446 1 1 1v2c-.554 0-1 .446-1 1v1c0 .554.446 1 1 1v1c0 .554.446 1 1 1h8c.554 0 1-.446 1-1v-10c0-.554-.446-1-1-1zm0 1h8v10h-8z"/><path d="m17 12v4l-1-1-1 1v-4z"/></g></svg>