<svg viewBox="0 0 24 24" xmlns="http://www.w3.org/2000/svg">
  <path
     style="fill:#5f5f5f"
     d="m 14,11.252875 -1.154862,0.572089 q -0.19657,0.09738 -0.369245,0.05551 -0.164484,-0.04593 -0.304735,-0.167568 L 9.941957,9.462067 5.5027093,11.661161 5.9012784,14.808232 q 0.021432,0.169882 -0.063837,0.350149 -0.077079,0.176209 -0.2654601,0.26953 L 4.417121,16 3,2.7506139 4.5152413,2 13.999999,11.252874 Z M 5.3397802,10.361598 9.025503,8.53578 5.305942,4.7617033 Q 5.1244016,4.596814 4.9096497,4.3634369 4.6948975,4.1300601 4.4675786,3.8498209 q 0.075851,0.3658901 0.1267932,0.6804147 0.050942,0.3145242 0.076863,0.5565037 z"
     />
  <path
     style="fill:#4d82b8"
     d="M 21.015625,11 C 12.730138,10.868692 6.1060074,13.718345 2.1367188,20.494141 a 1.0005737,1.0005737 0 1 0 1.7265624,1.011718 C 7.4762982,15.338239 13.154338,12.87591 20.984375,13 a 1.0001221,1.0001221 0 1 0 0.03125,-2 z"
     />
</svg>
