<svg viewBox="0 0 24 24" xmlns="http://www.w3.org/2000/svg"><path d="m9 3v5c0 .554-.446 1-1 1h-5v10h18v-16z" fill="#fff"/><path d="m9 2v1h12v16h-18v-10h-1v10c0 .554.446 1 1 1h18c.554 0 1-.446 1-1v-16c0-.554-.446-1-1-1z" fill="#4d82b8"/><path d="m18.791016 2.9998446c-2.024439 1.4714687-4.730024 3.7411959-6.876954 6.0429688-.194876.2089383-.384252.4098921-.568359.6191406-.116389.1222132-.237166.2229163-.353515.349609-.07344.0869-.14368.18478-.214844.271485-1.3349826 1.486007-2.6346528 3.20583-3.7675784 4.83789-.3768434-.169964-.82793-.178171-1.3125.162109-.9456866.664092-.7495529 3.049617-2.6972656 3.048828.1844093.802815 2.1784206.793524 3.5253906.435547 1.2713696-.337886 1.6599002-1.525404 1.4179688-2.515625-.038668-.158268-.1149372-.320081-.2109375-.476562 1.9843886-1.685837 3.4256901-3.102846 4.4296871-4.175782.270428-.278544.595111-.642696.957032-1.046874 1.353947-1.5119865 3.289303-3.8939765 5.671875-7.5527344z" fill="#808080"/><path d="m7.0097656 15.120938c-.3768434-.169964-.82793-.178171-1.3125.162109-.9456866.664092-.7495529 3.049617-2.6972656 3.048828.1844093.802815 2.1784206.793524 3.5253906.435547 1.2713696-.337886 1.6599002-1.525404 1.4179688-2.515625-.0386682-.158268-.1149372-.320081-.2109375-.476562z" fill="#4d82b8"/><g fill="#eac282"><path d="m2.4999352 7.4999941 5.0000589-5.0000589v5.0000589z" fill-rule="evenodd" stroke="#eac282" stroke-linecap="round" stroke-linejoin="round" stroke-width="1.000012"/><rect height="6" ry=".5" width="1" x="1" y="1"/><rect height="1" ry=".5" width="6" x="1" y="1"/></g></svg>