<svg viewBox="0 0 24 24" xmlns="http://www.w3.org/2000/svg"><path d="m13.000001 20h-1.446155q-.246153 0-.399999-.127853-.14359-.127854-.225641-.319635l-1.1487185-3.366819h-5.5589747l-1.1384616 3.356165q-.061538.181126-.2358974.319634-.1641026.138508-.4.138508h-1.4461538l5.0564102-14h1.8974359l5.0461539 14zm-8.3076934-5.199391h4.6153849l-1.9076925-5.6362253q-.1025642-.2557078-.2051282-.5966515-.1025642-.3409436-.1948719-.7351598-.102564.4048706-.2051281.7458144-.1025642.3409436-.1948719.5966514z" fill="#5f5f5f"/><path d="m21.190662 19.851491q-.26978 0-.415046-.07921-.145266-.07921-.197146-.326734l-.228275-.900989q-.394294.346535-.77821.623762-.373541.267327-.788586.455445-.415046.188119-.892349.277228-.477301.099007-1.047989.099007-.591439 0-1.110247-.148515-.50843-.158415-.902723-.475247-.383917-.326732-.612192-.80198-.217899-.485149-.217899-1.138614 0-.574256.32166-1.099009.332036-.534653 1.068742-.950495.736706-.415841 1.919585-.673267 1.18288-.267326 2.905318-.30693v-.742574q0-1.128712-.508431-1.693069-.498054-.574257-1.463034-.574257-.643321 0-1.089495.158416-.435797.158415-.757457.346534-.321661.188119-.560312.346535-.228275.158416-.466926.158416-.18677 0-.32166-.08911-.13489-.08911-.217899-.227723l-.332036-.554458q.840466-.772277 1.805447-1.148515.975357-.386138 2.158237-.386138.850843 0 1.514915.267327.664072.257426 1.110246.742573.446174.485149.674449 1.158416.238651.673277.238651 1.495059v6.188116zm-3.797665-1.069306q.456549 0 .840466-.08911.383917-.08911.72633-.247525.342412-.168317.64332-.405941.311284-.247524.612192-.544554v-1.999999q-1.214007.04951-2.06485.19802-.850843.138614-1.390403.376238-.529183.237623-.767834.564355-.238651.316832-.238651.712872 0 .376237.124513.653465.13489.267327.352789.445544.217898.168317.518807.257426.300908.07921.643321.07921z" fill="#5f5f5f"/><rect fill="#4d82b8" height="2" ry="1" width="20" x="2" y="2"/></svg>