<svg viewBox="0 0 24 24" xmlns="http://www.w3.org/2000/svg"><path d="m3.9492188 2c-.5263 0-1.0800247-.6194412-1.0763374-.0931541l.1271186 18.1439351c.0036872.526287.4229188.949219.9492188.949219h8.0507812v-3c0-1.090703.909297-2 2-2v-1c0-2.197294 1.802706-4 4-4s4 1.802706 4 4l.025424-12.9660354c.001032-.526299-.448343-.0339646-.974643-.0339646zm14.0507812 12c-.564129 0-1 .435871-1 1v1h2v-1c0-.564129-.435871-1-1-1z" fill="#fff"/><g fill="#4d82b8"><rect height="2" ry="1" width="2" x="4" y="3"/><rect height="2" ry="1" width="2" x="9" y="3"/><rect height="2" ry="1" width="2" x="14" y="3"/><rect height="2" ry="1" width="2" x="19" y="3"/></g><path d="m3 1c-.554 0-1 .446-1 1v19c0 .554.446 1 1 1h9v-1h-9v-19h19v13 1c.363969 0 .703481.107739 1 .283203v-14.283203c0-.554-.446-1-1-1z" fill="#808080"/><g fill="#4d82b8"><rect height="2" ry="1" width="2" x="4" y="8"/><rect height="2" ry="1" width="2" x="9" y="8"/><rect height="2" ry="1" width="2" x="14" y="8"/><rect height="2" ry="1" width="2" x="19" y="8"/><rect height="2" ry="1" width="2" x="4" y="13"/><rect height="2" ry="1" width="2" x="9" y="13"/><rect height="2" ry="1" width="2" x="4" y="18"/><rect height="2" ry="1" width="2" x="9" y="18"/></g><path d="m18 12a3 3 0 0 0 -3 3v2h-1c-.554 0-1 .446-1 1v4c0 .554.446 1 1 1h8c.554 0 1-.446 1-1v-4c0-.554-.446-1-1-1h-1v-2a3 3 0 0 0 -3-3zm0 1a2 2 0 0 1 2 2v2h-4v-2a2 2 0 0 1 2-2z" fill="#eac282"/></svg>