<svg viewBox="0 0 24 24" xmlns="http://www.w3.org/2000/svg"><path d="m3 3v17h17v-7h-5c-.554 0-1-.446-1-1v-1c0-.554.446-1 1-1h5v-7z" fill="#fff"/><path d="m3 2c-.554 0-1 .446-1 1v17c0 .554.446 1 1 1h17c.554 0 1-.446 1-1v-4-.890625-2.109375h-1v2.886719.113281 4h-17v-17h17v4 .0839844 2.9160156h1v-2.1191406-.8808594-4c0-.554-.446-1-1-1z" fill="#808080"/><g fill="none" stroke="#4d82b8" stroke-linecap="round" stroke-linejoin="round"><path d="m22.492879 11.489896-6.992879.010104"/><path d="m6.5 16.49522 10-10.00022"/><path d="m16.5 16.49522-10-9.99522"/></g></svg>