<svg viewBox="0 0 24 24" xmlns="http://www.w3.org/2000/svg"><path d="m4 3v7h5c.554 0 1 .446 1 1v1c0 .554-.446 1-1 1h-5v7h17v-17z" fill="#fff"/><path d="m4 2c-.554 0-1 .446-1 1v4 .890625 2.109375h1v-2.8867188-.1132812-4h17v17h-17v-3.820312-.263672-2.916016h-1v2.119141 1.060547 3.820312c0 .554.446 1 1 1h17c.554 0 1-.446 1-1v-17c0-.554-.446-1-1-1z" fill="#808080"/><g fill="none" stroke="#4d82b8" stroke-linecap="round" stroke-linejoin="round"><path d="m1.5071212 11.510104 6.9928788-.010104"/><path d="m7.505306 15.5 10-8.9999996"/><path d="m17.505306 15.5-10-8.9999996"/></g></svg>