<svg viewBox="0 0 24 24" xmlns="http://www.w3.org/2000/svg"><path d="m9.7265625 2c-1.7518855 0-3.1816406 1.4297544-3.1816406 3.1816406 0 .5268399.3024867.9285627.53125 1.3632813h-3.7128907c-.7475922 0-1.3632812.6156892-1.3632812 1.3632812v4.4531249l.6074219-.216797c.252824-.09069.4957011-.144531.7558593-.144531 1.2605763 0 2.2734375 1.012861 2.2734376 2.273438 0 1.260576-1.0128613 2.271484-2.2734376 2.271484-.2601619 0-.503042-.05189-.7558593-.142578l-.6074219-.21875v4.453125c0 .747592.6156888 1.363281 1.3632812 1.363281h4.453125l-.21875-.607422c-.090691-.252824-.1425781-.495702-.1425781-.755859 0-1.260577 1.0109081-2.273438 2.2714844-2.273438 1.2605765 0 2.2734375 1.012861 2.2734375 2.273438 0 .26016-.05384.503041-.144531.755859l-.216797.607422h4.453125c.747592 0 1.363281-.615689 1.363281-1.363281v-3.712891c.434719.228764.836441.53125 1.363281.53125 1.751886 0 3.181641-1.429755 3.181641-3.18164 0-1.751886-1.429755-3.181641-3.181641-3.181641-.527004 0-.928464.302356-1.363281.53125v-3.7148439c0-.7475923-.615689-1.3632812-1.363281-1.3632812h-3.714844c.228894-.4348163.53125-.8362771.53125-1.3632813 0-1.7518864-1.429755-3.1816406-3.1816405-3.1816406z" fill="#4d82b8"/></svg>