<svg viewBox="0 0 24 24" xmlns="http://www.w3.org/2000/svg"><path d="m5 4v17h6.283203c-.175464-.296519-.283203-.636031-.283203-1 0-1.090703.909297-2 2-2v-1c-1.090703 0-2-.909297-2-2s.909297-2 2-2c0-1.090703.909297-2 2-2s2 .909297 2 2h1c0-.726734.407943-1.366449 1-1.716797v-3.5546874l-4-3.7285156zm12 13v1h1v-1z" fill="#fff"/><path d="m5 3c-.554 0-1 .446-1 1v17c0 .554.446 1 1 1h8c-.726734 0-1.366449-.407943-1.716797-1h-6.283203v-17h9v4c0 .554.446 1 1 1h4v2.283203c.296519-.175464.636031-.283203 1-.283203v-2.75-.2089844c0-.4506799.098038-.4254121-.605469-1.0664062l-3.30664-3.2382813c-.709525-.7368575-.710169-.7363281-1.09375-.7363281h-.332032-.662109z" fill="#808080"/><path d="m15 8h4l-4-4z" fill="#fff" fill-rule="evenodd"/><path d="m15 12c-.554 0-1 .446-1 1v1h-1c-.554 0-1 .446-1 1s.446 1 1 1h1v3h-1c-.554 0-1 .446-1 1s.446 1 1 1h1v1c0 .554.446 1 1 1s1-.446 1-1v-1h3v1c0 .554.446 1 1 1s1-.446 1-1v-1h1c.554 0 1-.446 1-1s-.446-1-1-1h-1v-3h1c.554 0 1-.446 1-1s-.446-1-1-1h-1v-1c0-.554-.446-1-1-1s-1 .446-1 1v1h-3v-1c0-.554-.446-1-1-1zm1 4h3v3h-3z" fill="#4d82b8"/></svg>