<svg viewBox="0 0 24 24" xmlns="http://www.w3.org/2000/svg"><path d="m5 3v18h7.1875c-.11725-.313967-.1875-.646725-.1875-1v-8c0-1.278794.851972-2.3201674 1.949219-2.9785156 1.097247-.6583483 2.507937-1.0214844 4.050781-1.0214844.341663 0 .673267.0237148 1 .0585938v-1.3300782l-4-3.7285156z" fill="#fff"/><path d="m5 2c-.554 0-1 .446-1 1v18c0 .554.446 1 1 1h7.783203c-.255809-.30186-.459996-.636609-.595703-1h-7.1875v-18h9v4c0 .554.446 1 1 1h3 1v.0585938c.344017.036724.677015.0962097 1 .1699218v-.9785156-.2089844c0-.4506799.098038-.4254121-.605469-1.0664062l-3.30664-3.2382813c-.709525-.7368575-.710169-.7363281-1.09375-.7363281h-.332032-.662109z" fill="#808080"/><path d="m15 7h4l-4-4z" fill="#fff" fill-rule="evenodd"/><g fill="#eac282"><path d="m13 13.974609v2.025391c0 1.656854 2.238576 3 5 3s5-1.343146 5-3v-2.025391c-1.237023 1.483512-2.784273 2.025391-5 2.025391-2.447645 0-3.681267-.674935-5-2.025391z"/><ellipse cx="18" cy="12" rx="5" ry="3"/><path d="m13 17.974609v2.025391c0 1.656854 2.238576 3 5 3s5-1.343146 5-3v-2.025391c-1.237023 1.483512-3 2.025391-5 2.025391s-3.681267-.674935-5-2.025391z"/></g></svg>