<svg viewBox="0 0 24 24" xmlns="http://www.w3.org/2000/svg"><path d="m11.5 3c-.277 0-.5.223-.5.5s.223.5.5.5h10c.277 0 .5-.223.5-.5s-.223-.5-.5-.5zm0 4c-.277 0-.5.223-.5.5s.223.5.5.5h10c.277 0 .5-.223.5-.5s-.223-.5-.5-.5zm0 8c-.277 0-.5.223-.5.5s.223.5.5.5h10c.277 0 .5-.223.5-.5s-.223-.5-.5-.5zm0 4c-.277 0-.5.223-.5.5s.223.5.5.5h10c.277 0 .5-.223.5-.5s-.223-.5-.5-.5z" fill="#808080"/><path d="m2.5 2c-.277 0-.5.223-.5.5s.223.5.5.5h1.5v6h-1.5c-.277 0-.5.223-.5.5s.223.5.5.5h4c.277 0 .5-.223.5-.5s-.223-.5-.5-.5h-1.5v-6h1.5c.277 0 .5-.223.5-.5s-.223-.5-.5-.5h-2z" fill="#4d82b8"/></svg>