<svg viewBox="0 0 24 24" xmlns="http://www.w3.org/2000/svg"><path d="m3 3v2 16h4v-4c0-.554.446-1 1-1h8c.554 0 1 .446 1 1v4h4v-12h-2v3c0 1.090703-.909297 2-2 2s-2-.909297-2-2v-3h-3c-1.090703 0-2-.909297-2-2s.909297-2 2-2h3v-2h-6-1zm16 0v2h2v-2z" fill="#fff"/><path d="m2 2v1 3 15c0 .554.446 1 1 1h4v-1h-4v-3h4v-1h-4v-3h5v2h1v-2h6v2h1v-2h1c-1.090703 0-2-.909297-2-2v1h-6v-3h6v-1h-3-3v-3h1.283203c.350348-.5920571.990063-1 1.716797-1h-3v-2h6v-1h-12zm15 12h4v3h-4v1h4v3h-4v1h4c.554 0 1-.446 1-1v-12h-1-2v1h2v3h-2.283203c-.350348.592057-.990063 1-1.716797 1zm2-12v1h2v2h1v-2-1h-1zm-16 1h5v2h-5zm0 3h5v3h-5zm0 4h5v3h-5z" fill="#808080"/><g fill="#4d82b8"><path d="m8 17v5h8v-5z"/><path d="m17 1c-.554 0-1 .446-1 1v4h-4c-.554 0-1 .446-1 1s.446 1 1 1h4v4c0 .554.446 1 1 1s1-.446 1-1v-4h4c.554 0 1-.446 1-1s-.446-1-1-1h-4v-4c0-.554-.446-1-1-1z"/></g></svg>