<svg viewBox="0 0 24 24" xmlns="http://www.w3.org/2000/svg"><g fill="#696969"><path d="m8 7v1.4628906c0 .1325301.0498732.251106.1503906.3535156.1005174.0963856.2137221.1445313.3378906.1445313h5.3378908c-.135994.1506024-.256851.3098409-.363281.4785156-.106431.1686747-.21003.3519861-.310547.5507813l-4.3281252 9.0097656h1.5625002c.301552 0 .537513-.072219.708984-.216797.177384-.144578.315498-.318618.416016-.523437l4.230469-9.2167972c.053215-.1144579.110794-.258895.169921-.4335938.059128-.1746988.087891-.400626.087891-.6777344v-.9316406z"/><path d="m2 3v1 2 15c0 .554.446 1 1 1h18c.554 0 1-.446 1-1v-15-2-1h-1-18zm2 3h16v14h-16z"/></g></svg>