<svg viewBox="0 0 24 24" xmlns="http://www.w3.org/2000/svg">
  <path
     style="fill:#ffffff"
     d="M 5 3 L 5 21 L 12.009766 21 C 11.993748 20.726759 12.081431 20.448302 12.289062 20.238281 L 14.523438 17.980469 L 12.283203 15.679688 C 11.894219 15.279945 11.9074 14.63926 12.3125 14.255859 L 14.402344 12.275391 C 14.584878 12.101755 14.826219 12.0034 15.078125 12 C 15.348337 11.996901 15.6083 12.103285 15.798828 12.294922 L 18.007812 14.515625 L 19 13.498047 L 19 6.7285156 L 15 3 L 5 3 z "
     />
  <path
     style="fill:#808080"
     d="M 5 2 C 4.446 2 4 2.446 4 3 L 4 21 C 4 21.554 4.446 22 5 22 L 12.650391 22 L 12.298828 21.654297 C 12.114957 21.473388 12.023756 21.238654 12.009766 21 L 5 21 L 5 3 L 14 3 L 14 7 C 14 7.554 14.446 8 15 8 L 19 8 L 19 13.498047 L 20 12.472656 L 20 10.890625 L 20 7.25 L 20 7.0410156 C 20 6.5903357 20.098038 6.6156035 19.394531 5.9746094 L 16.087891 2.7363281 C 15.378366 1.9994706 15.377722 2 14.994141 2 L 14.662109 2 L 14 2 L 5 2 z M 7.5 5 C 7.223 5 7 5.223 7 5.5 C 7 5.777 7.223 6 7.5 6 L 11.5 6 C 11.777 6 12 5.777 12 5.5 C 12 5.223 11.777 5 11.5 5 L 7.5 5 z M 7.5 9 C 7.223 9 7 9.223 7 9.5 C 7 9.777 7.223 10 7.5 10 L 9.5 10 C 9.777 10 10 9.777 10 9.5 C 10 9.223 9.777 9 9.5 9 L 7.5 9 z M 7.5 15 C 7.223 15 7 15.223 7 15.5 C 7 15.777 7.223 16 7.5 16 L 10.5 16 C 10.777 16 11 15.777 11 15.5 C 11 15.223 10.777 15 10.5 15 L 7.5 15 z M 12.056641 15.279297 C 12.023173 15.346486 12 15.419567 12 15.5 C 12 15.777 12.223 16 12.5 16 L 12.595703 16 L 12.283203 15.679688 C 12.170048 15.563403 12.101983 15.424096 12.056641 15.279297 z M 18.011719 21.367188 L 17.412109 22 L 18.613281 22 L 18.011719 21.367188 z "
     />
  <path
     d="m 15,7 h 4 L 15,3 Z"
     style="fill:#ffffff" />
  <path
     style="fill:#e68497"
     d="m 23,20.944338 -2.895447,-2.946153 2.7861,-3.086414 -2.008392,-1.911762 -2.867282,2.941173 L 15.089573,13.000009 13,14.982089 15.925403,17.985614 13,20.941176 15.089573,23 18.011584,19.911767 20.940383,23 Z"
     />
  <path
     style="fill:#d65532"
     d="M 12.5 9 C 12.223 9 12 9.223 12 9.5 C 12 9.777 12.223 10 12.5 10 L 16.5 10 C 16.777 10 17 9.777 17 9.5 C 17 9.223 16.777 9 16.5 9 L 12.5 9 z M 7.5 12 C 7.223 12 7 12.223 7 12.5 C 7 12.777 7.223 13 7.5 13 L 13.5 13 C 13.561659 13 13.619384 12.985079 13.673828 12.964844 L 13.960938 12.695312 L 13.960938 12.693359 C 13.985714 12.633961 14 12.568584 14 12.5 C 14 12.223 13.777 12 13.5 12 L 7.5 12 z M 7.4863281 18 C 7.2163681 18 7 18.21637 7 18.486328 L 7 18.513672 C 7 18.783634 7.2163701 19 7.4863281 19 L 11.513672 19 C 11.78363 19 12 18.78363 12 18.513672 L 12 18.486328 C 12 18.216366 11.78363 18 11.513672 18 L 7.4863281 18 z "
     />
</svg>
