<svg height="24" viewBox="0 0 6.3499999 6.3500002" width="24" xmlns="http://www.w3.org/2000/svg"><g stroke-width=".264583" transform="translate(0 -290.64998)"><path d="m1.317749 291.17913 1.6526122 1.31052c.1175962.0934.203771.23503.2046388.40772a.26460979.26460979 0 0 1 0 .003c-.0008731.17269-.087041.31434-.2046388.40773l-1.8432982 1.46193a.26460979.26460979 0 0 0 -.000516.00053c-.096854.0765-.21768951.11643-.34106523.11264-.0937036-.003-.18031695-.0305-.2563151-.0743v.86816a.26460979.26460979 0 0 0 .0775147.18707l.52916667.52916a.26460979.26460979 0 0 0 .1870687.0775h4.23333326c.036292 0 .070888-.008.1023194-.0207a.26460979.26460979 0 0 0 .00259-.001c.030753-.0132.058284-.0321.081649-.0553a.26460979.26460979 0 0 0 .00103-.001c.02263-.0228.040576-.0498.053743-.0796a.26460979.26460979 0 0 0 .0031-.007c.012482-.0308.020146-.0644.020146-.0997v-4.7625c0-.0363-.00756-.0709-.020672-.10232a.26460979.26460979 0 0 0 0-.001c-.0002458-.00058-.0007938-.00097-.00103-.002-.013227-.0308-.032055-.0583-.055294-.0816a.26460979.26460979 0 0 0 -.0005291-.00051c-.0001696-.00017-.000344-.00035-.0005292-.00052-.022754-.0226-.04979-.0406-.079582-.0537a.26460979.26460979 0 0 0 -.00723-.003c-.030767-.0125-.064336-.0202-.099712-.0202z" fill="#922e9b"/><path d="m.79375 291.17913c-.13977403.004-.26394799.12475-.26458333.26459v2.91041c.000635.13984.1248093.26027.26458333.26459.0611426.002.12098608-.0179.16898194-.0558l1.84329846-1.46193c.061674-.049.1039894-.1233.1043863-.20206-.0003958-.0788-.042712-.15307-.1043863-.20205l-1.84329846-1.46193c-.0479959-.0379-.10783937-.0577-.16898194-.0558z" fill="#309048"/><path d="m.79375 291.44372v2.91041l1.8401978-1.45521z" fill="#a1ddaa"/><path d="m5.0270834 291.44372v1.85208h-2.0438028c-.00453.004-.00829.009-.01292.0124l-1.3187822 1.04593h3.1109212v1.85209h.79375v-4.7625zm-3.4395834 2.96106-.460437.36535a.26460979.26460979 0 0 0 -.000516.00053c-.094664.0748-.21233334.1139-.332797.11212v.79427l.5291667.52917h.2645833z" fill="#d492d8"/><path d="m1.6515788 291.44372 1.3187824 1.04593c.1175962.0934.203771.23503.2046388.40772a.26460979.26460979 0 0 1 0 .003c-.0002317.046-.00729.0895-.018603.13075h1.6061034v-1.5875zm.2005046 3.175v1.5875h.5291666v-1.32292h.5291667v1.32292h1.5875v-1.5875z" fill="#fafafa"/></g></svg>