<svg viewBox="0 0 24 24" xmlns="http://www.w3.org/2000/svg"><path d="m5 3v10.501953l1.0078125 1.013672 2.1582031-2.212891c.3820854-.392867 1.009183-.405062 1.40625-.027343l2.0078124 1.912109c.392576.373746.415967.992204.052734 1.394531l-2.1542964 2.386719 2.2343754 2.275391c.192589.195359.287689.450695.287109.705078-.001774-.256317.094572-.514209.289062-.710938l2.234376-2.257812-2.240235-2.300781c-.387659-.399514-.374491-1.038672.029297-1.421876l2.089844-1.982421c.182534-.173636.423875-.271991.675781-.275391.270212-.003099.530175.103285.720703.294922l2.208984 2.220703.992188-1.017578v-6.7695314l-4-3.7285156zm7 17.951172c-.00007.016693-.008865.032155-.009766.048828h.019532c-.000977-.016653-.009619-.032151-.009766-.048828z" fill="#fff"/><path d="m5 2c-.554 0-1 .446-1 1v9.498047l1 1.003906v-10.501953h9v4c0 .554.446 1 1 1h4v5.498047l1-1.025391v-1.582031-3.640625-.2089844c0-.4506799.098038-.4254121-.605469-1.0664062l-3.30664-3.2382813c-.709525-.7368575-.710169-.7363281-1.09375-.7363281h-.332032-.662109zm2.5 3c-.277 0-.5.223-.5.5s.223.5.5.5h4c.277 0 .5-.223.5-.5s-.223-.5-.5-.5zm0 4c-.277 0-.5.223-.5.5s.223.5.5.5h2c.277 0 .5-.223.5-.5s-.223-.5-.5-.5zm4.490234 12c-.01286.238037-.101243.472784-.283203.654297l-.347656.345703h1.291016l-.351563-.345703c-.183871-.180909-.275072-.415643-.289062-.654297zm-5.9785152.367188-.5996094.632812h1.1992187zm12.0000002 0-.59961.632812h1.199219z" fill="#808080"/><path d="m15 7h4l-4-4z" fill="#fff"/><path d="m3.0898438 13-2.0898438 1.982422 2.9257812 3.003906-2.9257812 2.955078 2.0898438 2.058594 2.921875-3.087891 2.9277343 3.087891 2.0605469-2.054688-2.8945312-2.947265 2.7851562-3.085938-2.0078125-1.912109-2.8671875 2.941406zm12.0000002 0-2.089844 1.982422 2.925781 3.003906-2.925781 2.955078 2.089844 2.058594 2.921875-3.087891 2.927734 3.087891 2.060547-2.054688-2.894531-2.947265 2.785156-3.085938-2.007813-1.912109-2.867187 2.941406z" fill="#e68497"/><path d="m12.5 9c-.277 0-.5.223-.5.5s.223.5.5.5h4c.277 0 .5-.223.5-.5s-.223-.5-.5-.5zm-5 3c-.277 0-.5.223-.5.5 0 .272872.2170322.491536.4882812.498047l.6777344-.695313c.1910427-.196433.4430972-.297793.6972656-.302734zm1.3632812 0c.2541685-.004941.5104509.086531.7089844.275391l.7617184.724609h3.166016c.062325 0 .120849-.014503.175781-.035156l.285157-.269532c.000242-.000575-.000241-.001376 0-.001953.024776-.059398.039062-.124775.039062-.193359 0-.277-.223-.5-.5-.5zm.6464844 6 .9804684 1h1.023438c.269958 0 .486328-.21637.486328-.486328v-.027344c0-.269962-.21637-.486328-.486328-.486328z" fill="#d65532"/></svg>