<svg viewBox="0 0 24 24" xmlns="http://www.w3.org/2000/svg"><path d="m5 3v18h7.009766c-.016018-.273241.071665-.551698.279296-.761719l2.234376-2.257812-2.240235-2.300781c-.388984-.399743-.375803-1.040428.029297-1.423829l2.089844-1.980468c.182534-.173636.423875-.271991.675781-.275391.270212-.003099.530175.103285.720703.294922l2.208984 2.220703.992188-1.017578v-6.7695314l-4-3.7285156z" fill="#fff"/><path d="m5 2c-.554 0-1 .446-1 1v18c0 .554.446 1 1 1h7.650391l-.351563-.345703c-.183871-.180909-.275072-.415643-.289062-.654297h-7.009766v-18h9v4c0 .554.446 1 1 1h4v5.498047l1-1.025391v-1.582031-3.640625-.2089844c0-.4506799.098038-.4254121-.605469-1.0664062l-3.30664-3.2382813c-.709525-.7368575-.710169-.7363281-1.09375-.7363281h-.332032-.662109zm2.5 3c-.277 0-.5.223-.5.5s.223.5.5.5h4c.277 0 .5-.223.5-.5s-.223-.5-.5-.5zm0 4c-.277 0-.5.223-.5.5s.223.5.5.5h2c.277 0 .5-.223.5-.5s-.223-.5-.5-.5zm0 6c-.277 0-.5.223-.5.5s.223.5.5.5h3c.277 0 .5-.223.5-.5s-.223-.5-.5-.5zm4.556641.279297c-.033468.067189-.056641.14027-.056641.220703 0 .277.223.5.5.5h.095703l-.3125-.320312c-.113155-.116285-.18122-.255592-.226562-.400391zm5.955078 6.087891-.59961.632812h1.201172z" fill="#808080"/><path d="m15 7h4l-4-4z" fill="#fff"/><path d="m23 20.944338-2.895447-2.946153 2.7861-3.086414-2.008392-1.911762-2.867282 2.941173-2.925406-2.941173-2.089573 1.98208 2.925403 3.003525-2.925403 2.955562 2.089573 2.058824 2.922011-3.088233 2.928799 3.088233z" fill="#e68497"/><path d="m12.5 9c-.277 0-.5.223-.5.5s.223.5.5.5h4c.277 0 .5-.223.5-.5s-.223-.5-.5-.5zm-5 3c-.277 0-.5.223-.5.5s.223.5.5.5h6c.061659 0 .119384-.014921.173828-.035156l.28711-.269532v-.001953c.024776-.059398.039062-.124775.039062-.193359 0-.277-.223-.5-.5-.5zm-.0136719 6c-.26996 0-.4863281.21637-.4863281.486328v.027344c0 .269962.2163701.486328.4863281.486328h4.0273439c.269958 0 .486328-.21637.486328-.486328v-.027344c0-.269962-.21637-.486328-.486328-.486328z" fill="#d65532"/></svg>