<?xml-stylesheet type="text/css" href="icons.css" ?>
<svg viewBox="0 0 24 24" xmlns="http://www.w3.org/2000/svg">
  <path
     class="icn icn--area-color"
	 d="m 20.5,13.5 c 0,4.936261 -4.063739,9 -9,9 -4.9362614,0 -9,-4.063739 -9,-9 -10e-8,-4.9362615 4.0637385,-9 9,-9 4.936262,0 9,4.0637385 9,9 z"
     fill="#fafafa"
     stroke="#3a3a38" 
	 stroke-linecap="round" 
	 stroke-linejoin="round"
     />
  <path
     class="icn icn--area-color"
	 d="m 11.5,8.5 v 4 z m 0,6 v 2 z"
     fill="#fafafa"
     stroke="#3a3a38" 
	 stroke-linecap="round" 
	 stroke-linejoin="round"
     />
  <path
     class="icn icn--area-color"
	 d="m 21.5,8.5 -5,-5"
     fill="#fafafa"
     stroke="#3a3a38" 
	 stroke-linecap="round" 
	 stroke-linejoin="round"
     />
  <path
     class="icn icn--area-color"
	 d="M 18,7 19,6"
     fill="#fafafa"
     stroke="#3a3a38" 
	 stroke-linecap="round" 
	 stroke-linejoin="round"
     />
  <path
     class="icn icn--area-color"
	 d="m 9.5,4.5 v -2 h 4 v 2 z"
     fill="#fafafa"
     stroke="#3a3a38" 
	 stroke-linecap="round" 
	 stroke-linejoin="round"
     />
  <path
	 class="icn icn--area-color"
     d="m 12.5,13.5 a 1,1 0 0 1 -1,1 1,1 0 0 1 -1,-1 1,1 0 0 1 1,-1 1,1 0 0 1 1,1 z"
     fill="#fafafa"
     stroke="#3a3a38" 
	 stroke-linecap="round" 
	 stroke-linejoin="round"
     />
</svg>
