<svg viewBox="0 0 24 24" xmlns="http://www.w3.org/2000/svg"><path d="m12 3c-4.970563 0-9 .8954305-9 2v14c0 .974036 3.1504569 1.772222 7.300781 1.949219.088595-.140417.190423-.273419.3125-.390625l2.572266-2.572266-2.576172-2.576172c-.6118349-.59547-.7391678-1.495683-.458984-2.185547.280183-.689863.999743-1.247821 1.853515-1.248047.539558.000033 1.057363.218723 1.433594.605469l3.990234 3.990235c.772335.772654.772335 2.05547 0 2.828125l-.697265.697265c.087641-.01234.143745-.097656.234375-.097656h4.035156v-8.414062-6.585938c0-1.1045695-4.029437-2-9-2z" fill="#fff"/><path d="m12 2c-5.5228475 0-10 1.3431458-10 3v9 5c.003864 1.430468 3.3812919 2.64117 7.9941406 2.925781.0141574-.331215.1160024-.669715.3046874-.970703-4.1671813-.178386-7.2948391-.98529-7.298828-1.955078v-3.701172c.0011364.00071.0027683.001244.0039062.001953a10 3 0 0 0 1.5644532.701172 10 3 0 0 0 .984375.287109c.007902.002009.0155155.00386.0234375.00586a10 3 0 0 0 1.0917969.240234c.0229452.004356.0472498.007419.0703124.011719a10 3 0 0 0 1.1035157.177734c.0410442.005658.0817336.012086.1230469.017579a10 3 0 0 0 1.2421874.136718 10 3 0 0 0 1.3085938.085938c.067276.003056.135507.005164.203125.007812a10 3 0 0 0 1.28125.027344 10 3 0 0 0 .195312-.003906l-1.013671-1.013672c-.333317-.006883-.674454-.008811-.996094-.023438-.5330626-.02424-1.0429237-.061293-1.5371095-.105468a9 2 0 0 1 -.2792969-.025391c-.471085-.046302-.9231802-.101242-1.3476562-.164063-.0229809-.003401-.047481-.006319-.0703125-.009765-.4421096-.06674-.8513604-.141899-1.2324219-.224609a9 2 0 0 1 -.1152344-.025391c-.3557741-.079983-.6753917-.165471-.9667968-.257813a9 2 0 0 1 -.1484376-.046875c-.2665975-.08986-.4957484-.18596-.6953124-.285156a9 2 0 0 1 -.1523438-.074219c-.0295052-.016473-.0544552-.034095-.0820312-.050781a9 2 0 0 1 -.2011719-.134765c-.0312824-.024134-.0567236-.049722-.0839844-.074219a9 2 0 0 1 -.1132813-.111328c-.0251265-.02986-.0434164-.059533-.0625-.089844a9 2 0 0 1 -.0585937-.111328c-.0207392-.055402-.0390625-.111377-.0390625-.167969v-3.701172c1.6296264 1.017907 5.0251374 1.668283 8.775391 1.695313.075539-.009009.150502-.017558.228515-.017579.063486.000004.124812.013556.1875.019532 3.760617-.02264 7.170493-.673939 8.808594-1.69336v3.697266a9 2 0 0 1 -4.089844 1.675781c-.106853.015469-.234208.020775-.34375.035157l.8125.8125a10 3 0 0 0 3.621094-1.220704v4.697266h1v-6-9c0-1.6568542-4.477153-3-10-3zm0 1c4.970563 0 9 .8954305 9 2s-4.029437 2-9 2c-4.9705627 0-9-.8954305-9-2s4.0294373-2 9-2zm-9 3.2988281c1.6624561 1.0384131 5.1600962 1.6995339 9 1.7011719 3.836951-.0009152 7.333825-.6603734 9-1.6972656v2.6972656c0 1.104569-4.029437 2-9 2-4.9705627 0-9-.895431-9-2z" fill="#808080"/><path d="m17 11c-.554 0-1 .446-1 1v4h-4c-.554 0-1 .446-1 1s.446 1 1 1h4v4c0 .554.446 1 1 1s1-.446 1-1v-4h4c.554 0 1-.446 1-1s-.446-1-1-1h-4v-4c0-.554-.446-1-1-1z" fill="none"/><path d="m12.003906 12.976562a1.0001 1.0001 0 0 0 -.697265 1.716797l3.292968 3.292969-3.292968 3.292969a1.0001 1.0001 0 1 0 1.414062 1.414062l4-4a1.0001 1.0001 0 0 0 0-1.414062l-4-4a1.0001 1.0001 0 0 0 -.716797-.302735zm4.960938 8.023438c-.534081 0-.964844.430763-.964844.964844v.070312c0 .534081.430763.964844.964844.964844h5.070312c.534081 0 .964844-.430763.964844-.964844v-.070312c0-.534081-.430763-.964844-.964844-.964844z" fill="#4d82b8" fill-rule="evenodd"/></svg>