<svg viewBox="0 0 24 24" xmlns="http://www.w3.org/2000/svg"><path d="m9 3v5c0 .554-.446 1-1 1h-5v12h18v-18z" fill="#fff"/><path d="m9 2v4h6v3h-6-1-5-1v12c0 .554.446 1 1 1h18c.554 0 1-.446 1-1v-15-3-1h-1zm7 4h5v3h-5zm-13 4h5v3h-5zm6 0h6v3h-6zm7 0h5v3h-5zm-13 4h5v3h-5zm6 0h6v3h-6zm7 0h5v3h-5zm-13 4h5v3h-5zm6 0h6v3h-6zm7 0h5v3h-5z" fill="#808080"/><g fill="#eac282"><rect height="1" ry=".5" width="6" x="1" y="1"/><rect height="6" ry=".5" width="1" x="1" y="1"/><path d="m2.4999352 7.4999941 5.0000589-5.0000589v5.0000589z" fill-rule="evenodd" stroke="#eac282" stroke-linecap="round" stroke-linejoin="round" stroke-width="1.000012"/></g></svg>