<svg viewBox="0 0 16 16" xmlns="http://www.w3.org/2000/svg"><path d="m1 0c-.554 0-1 .446-1 1v14c0 .554.446 1 1 1h5v-.01172c.0006614-.02937.00262-.05869.00586-.08789.00233-.02485.00559-.04961.00977-.07422.00381-.02228.00837-.04443.013672-.06641l.6796824-2.75976h-5.7089844v-10h14v3.3203125c.057.042745.114736.08356.166016.1347656l.833984.8320313v-6.2871094c0-.554-.446-1-1-1zm15 10.550781-.755859.72461-.0078.0059-.236341.222615v1.496094h-1.507812l-2.927735 2.947266c-.01883.01834-.03838.03593-.05859.05273l4.494137.000004c.554 0 1-.446 1-1z" fill="#808080"/><g fill="#fff"><path d="m1 3v10h5.7089844l.035156-.138672c.04377-.176696.1349364-.338094.2636719-.466797l4.1464845-4.1425779.0078-.00977.552735-.5371094 1.251953-1.25c.2996812-.2993012.7075092-.4550737 1.0996212-.4550737.325044 0 .657556.1132933.933594.3203125v-3.3203125zm14 8.503906-.314453.294922-1.193359 1.201172h1.507812z"/><path d="m1 1v1h1v-1zm3 0v1h1v-1zm3 0v1h1v-1zm3 0v1h1v-1zm3 0v1h1v-1z"/><path d="m1 14v1h1v-1zm3 0v1h1v-1zm9 0v1h1v-1z"/></g><g fill="#eac282"><path d="m11.861005 8.958496-4.1469731 4.142578-.713379 2.898926 2.8549808-.758789 4.1323233-4.158692z"/><path d="m14.065594 7c-.142171 0-.283638.05379-.392578.1625977l-1.255371 1.2524416 2.135742 2.1372067 1.283203-1.229004c.21788-.2175952.21788-.5675602 0-.7851562l-1.376953-1.3754881c-.108941-.108798-.251871-.1625977-.394043-.1625977z"/></g></svg>