<svg viewBox="0 0 16 16" xmlns="http://www.w3.org/2000/svg"><g fill-rule="evenodd"><path d="m9.0117188.54882812c-3.4953389.16791467-6.4168874 3.09174448-3.0800782 6.76757808.7118634.7841898 1.2337305 1.5155867 1.6191406 2.2011719l7.1445308-5.8613281c-1.28233-2.3166195-3.58639-3.20817067-5.6835932-3.10742188zm-1.4609376 8.96874998-6.1464843 5.0449219c3.4337352 2.371781 9.0461751.113181 6.1464843-5.0449219z" fill="#eac282"/><path d="m9 .04882813c-.7571642.0347447-1.491064.19018978-2.1523438.44921875-1.3225594.51805792-2.4047058 1.47078842-2.7617187 2.76367192-.3570129 1.2928832.0673089 2.8381892 1.4765625 4.390625 1.4725638 1.6221782 2.1287138 2.9982502 2.2734375 4.0605472.1447237 1.062296-.1813872 1.820057-.7753906 2.375-.9117438.851788-2.5519225 1.140577-4.0605469.683593v-1.771484h-3v3h3v-.179688c1.7335264.447822 3.5680598.096791 4.7441406-1.001953.8102051-.756927 1.2649732-1.897409 1.0820313-3.240234s-.9621642-2.8777554-2.5234375-4.5976562c-1.2601938-1.3882312-1.5032621-2.5430364-1.2519532-3.453125.2513091-.9100888 1.0538869-1.663556 2.1621094-2.0976563 1.7296375-.6775138 4.0836394-.52746698 5.7871094.9257813v2.6445312h3v-3h-1.927734c-1.404931-1.4423158-3.299272-2.03253086-5.072266-1.95117187z" fill="#808080"/></g></svg>