<svg viewBox="0 0 16 16" xmlns="http://www.w3.org/2000/svg">

     /&gt;
 <path d="m8.033203.037109v6.962891h6.314453c.374705-.296885.737477-.57374 1.070313-.8125.131448-.0934909.283559-.1537997.443359-.175782-.30177-1.427022-1.049058-2.523282-2.175781-3.654297-1.379196-1.375395-3.70824-2.20049-5.652344-2.320312z" fill="#e68497"/><path d="m16 7c-1.153817.827693-2.69585 2.104402-3.919481 3.399137-.111068.117527-.219002.230562-.323933.348263-.06634.06874-.135171.12539-.201484.196653-.04186.04888-.08189.103938-.122449.152709-.760866.835871-1.501605 1.803262-2.147309 2.721287-.21478-.0956-.471875-.10022-.748053.09118-.538988.373553-.427203 1.715398-1.537291 1.714955.105103.451579 1.241579.446352 2.009277.244992.724609-.190059.94605-.858031.808163-1.415025-.02204-.08902-.06551-.180044-.120223-.268064 1.130991-.948274 1.952453-1.745333 2.524675-2.348854.154129-.15668.33918-.361513.545455-.588861.771675-.850484 1.87472-2.190341 3.232653-4.248372z" fill="#808080"/><path d="m7.033203.041009c-1.943731.119078-3.282491.942024-4.662109 2.316406-2.70600299 2.707315-3.08215499 6.898228-1.048828 10.017579l5.710937-5.375z" fill="#4d82b8"/><path d="m8.033203 7.999994-5.738281 5.599609c1.18222 1.00009 2.444379 1.669038 3.705078 2.041016-.00865-.556827.439204-1.013461.996094-1.015625.0023-.0046.02795-.02884.08008-.140625.121746-.261067.133783-.871946.890625-1.396484.205398-.14235.438124-.02675.679687-.07227.615171-.861518 1.291403-1.756776 2.017578-2.558594.01081-.013.05256-.07262.13086-.164062.0089-.0099.01803-.01972.02734-.0293.121353-.130418.197873-.193358.214843-.210938.109687-.121797.216272-.233875.316411-.339837.562754-.595455 1.181331-1.172338 1.798828-1.71289zm7.863281.917968c-.963829 1.352899-1.774864 2.325461-2.388672 3.001954-.201029.221568-.384894.426167-.560546.605469-.503813.531369-1.300501 1.265068-2.195313 2.042968.03326.352377.05495.712248-.08008 1.0625 1.14815-.375379 2.18357-1.035867 3.013672-1.958984 1.164907-1.168126 1.929721-3.029729 2.210939-4.753907z" fill="#76a797"/></svg>