<svg viewBox="0 0 16 16" xmlns="http://www.w3.org/2000/svg">
  <path
     style="fill:#808080"
     d="M 9 0 L 9 1 L 10 1 L 11 1 L 15 1 L 15 5 L 12 5 L 12 6 L 16 6 L 16 0 L 9 0 z M 0 5 L 0 7.40625 L 0.6640625 6.7773438 L 1 6.4589844 L 1 6 L 1.8691406 6 L 4.8789062 6 L 5.8789062 5 L 0 5 z M 12 10 L 12 11 L 15 11 L 15 15 L 11 15 L 10 15 L 9.5644531 15 L 9.3417969 15.220703 L 9 15.5625 L 9 16 L 16 16 L 16 10 L 12 10 z M 0 10.21875 L 0 11 L 0.76171875 11 L 0 10.21875 z " />
  <path
     style="fill:#ffffff"
     d="M 11 1 C 11.552262 1.0000552 11.999945 1.4477381 12 2 L 12 5 L 15 5 L 15 1 L 11 1 z M 1 6 L 1 10 L 4.8789062 10 L 4.4511719 9.5722656 C 4.0277194 9.1624437 3.9374807 8.5299651 4.0996094 8.03125 C 4.0977904 8.0265 4.0896606 8.0262444 4.0878906 8.0214844 C 4.0853406 8.0146024 4.09619 8.00694 4.09375 8 C 4.09619 7.99306 4.0853406 7.9853956 4.0878906 7.9785156 C 4.0896596 7.9737456 4.0977894 7.9735 4.0996094 7.96875 C 3.9374807 7.4700349 4.0277191 6.8375563 4.4511719 6.4277344 L 4.8789062 6 L 1 6 z M 12 11 L 12 14 C 11.999945 14.552262 11.552262 14.999945 11 15 L 15 15 L 15 11 L 12 11 z " />
  <path
     style="fill:#4d82b8"
     d="M 7 2 L 8.6464844 3.6464844 L 5.1464844 7.1464844 C 4.9868289 7.3010006 4.9624766 7.5100345 5.03125 7.6835938 L 6.3789062 6.3027344 C 6.6989174 5.9745756 7.1821398 5.9304718 7.5664062 6.140625 L 9.3535156 4.3535156 L 11 6 L 11 2 L 7 2 z M 11 10 L 9.3535156 11.646484 L 8.4355469 10.728516 L 7.7675781 11.46875 L 8.0917969 11.798828 L 8.6464844 12.353516 L 8.640625 12.359375 L 9.7128906 13.449219 C 9.8657001 13.604662 9.9399551 13.799686 9.9707031 14 L 11 14 L 11 10 z "
     id="path4-6-2" />
  <path
     style="fill:#e68497"
     d="M 9,14.149904 6.394098,11.498367 8.901588,8.7205939 7.094035,7.0000081 4.513481,9.6470638 1.880616,7.0000081 0,8.7838801 2.632863,11.487053 0,14.147058 1.880616,16 4.510426,13.22059 7.146345,16 Z" />
</svg>
