<svg viewBox="0 0 16 16" xmlns="http://www.w3.org/2000/svg">
  <path
     style="fill:#ffffff"
     d="M 3,1 V 15 H 13 V 3.7050781 L 10.304688,1 Z"
     />
  <path
     style="fill:#808080"
     d="M 3,0 C 2.446,0 2,0.446 2,1 v 14 c 0,0.554 0.446,1 1,1 H 5 6.0292969 8.9726562 11 13 c 0.554,0 1,-0.446 1,-1 V 14.199219 14 12 4.5 3.6367188 L 10.363281,0 H 9.5 Z M 3,1 H 9 V 4.5 C 9,4.777 9.223,5 9.5,5 H 13 v 7 2 0.0918 V 15 H 11 10.259766 6.2011719 5 3 Z m 7,0 3,3 h -3 z"
     />
  <path
     style="fill:#e68497"
     d="M 11.5,7 A 4.5,4.5 0 0 0 7,11.5 4.5,4.5 0 0 0 11.5,16 4.5,4.5 0 0 0 16,11.5 4.5,4.5 0 0 0 11.5,7 Z"
     />
  <path
     style="fill:#ffffff"
     d="M 9.5,8.9902344 A 0.50005,0.50005 0 0 0 9.1523438,9.8476562 l 1.6464842,1.6464848 -1.6464842,1.646484 a 0.50005,0.50005 0 1 0 0.7070312,0.707031 l 1.646484,-1.646484 1.646485,1.646484 a 0.50005,0.50005 0 1 0 0.707031,-0.707031 L 12.212891,11.494141 13.859375,9.8476562 A 0.50005,0.50005 0 0 0 13.496094,8.9902344 0.50005,0.50005 0 0 0 13.152344,9.140625 L 11.505859,10.787109 9.859375,9.140625 A 0.50005,0.50005 0 0 0 9.5,8.9902344 Z"
     />
</svg>
