<svg viewBox="0 0 16 16" xmlns="http://www.w3.org/2000/svg"><path d="m12.507812.5-12.007812 4.4648438 4.7363281 10.1406252.2636719.394531h2.625a1.0001 1.0001 0 0 1 .2734375-.898438 1.0001 1.0001 0 0 1 -1.5507813-.175781c-.551981-.875531-.8459762-1.888823-.8476562-2.923828a1.0001 1.0001 0 0 0 0-.001953c0-2.8497906 2.1952466-5.207775 4.978516-5.4726562zm-1.480468 8.546875c-1.1615851.2176632-2.0264217 1.221439-2.027344 2.451172.0008753.414763.1048925.822962.3027344 1.1875a1.0001 1.0001 0 0 1 -.171875 1.183594 1.0001 1.0001 0 0 1 1.1816406-.169922c.36508.197581.772384.300566 1.1875.300781.600342 0 1.139883-.214789 1.568359-.560547l-.167968-.142578zm4.347656 6.347656c-.037285.037101-.078864.069436-.117188.105469h.242188z" fill="#fff"/><path d="m12.476562 0c-.04946.00319783-.09817.01372958-.144531.03125l-12.00585912 4.4648438c-.27474906.1015816-.40377559.4164785-.27929688.6816406l4.7363281 10.1406246c.010753.02238.023157.04392.037109.06445l.2636719.394532c.0927476.139082.248848.222629.416016.222659h2.8847656c-.2543342-.265913-.3421063-.65001-.2285156-1h-2.3886719l-.09375-.140625-4.4921875-9.6152344 10.5839844-3.9335937-1.326172 4.7949219c.343515-.0677853.697875-.1054688 1.060547-.1054688h.0039l1.484375-5.3671875c.091619-.33061536-.169247-.65321199-.511713-.6328125zm-.976562 9c-.34011 0-.662916.069313-.957031.1894531l1.90039 4.3085939c.03072.06934.0768.130783.134766.179687l.05273.04492c.309434-.156043.577369-.371967.794922-.636718l-.113277-.095702-1.755859-3.9824215c-.019165-.0004489-.037439-.0078025-.056641-.0078125z" fill="#808080"/><path d="m11.5 7a4.5 4.5 0 0 0 -4.5 4.5 4.5 4.5 0 0 0 .6933594 2.392578l.7304687-.730469a3.5 3.5 0 0 1 -.4238281-1.662109 3.5 3.5 0 0 1 3.5-3.5 3.5 3.5 0 0 1 1.664062.421875l.730469-.7304688a4.5 4.5 0 0 0 -2.394531-.6914062zm3.806641 2.1074219-.730469.7304687a3.5 3.5 0 0 1 .423828 1.6621094 3.5 3.5 0 0 1 -3.5 3.5 3.5 3.5 0 0 1 -1.6640625-.421875l-.7304687.730469a4.5 4.5 0 0 0 2.3945312.691406 4.5 4.5 0 0 0 4.5-4.5 4.5 4.5 0 0 0 -.693359-2.3925781z" fill="#4d82b8"/></svg>