<svg viewBox="0 0 16 16" xmlns="http://www.w3.org/2000/svg"><path d="m.95117188 1.9550781.01171874 3.0449219h14.02148438l-.033203-3.0449219zm.015625 4.0449219.03320312 8h5.0117188c.0309419-.210306.1280883-.405284.2773437-.556641l1.9414063-1.96289-1.9472657-1.9980471c-.3889839-.3997414-.3758011-1.0404258.0292969-1.4238281l1.8808594-1.7832032c.182534-.1736362.4238752-.2719862.6757812-.2753906zm7.90234372 0c.2702129-.0030983.5301793.1032836.7207032.2949219l1.9160152 1.9277343 1.873047-1.9199218c.381866-.3915887 1.007476-.4037702 1.404297-.0273438l.216797.2070313-.005859-.4824219zm-.0097656 2.3984375-.4355469.4140625 1.9257809 1.976562c.380991.390758.378406 1.014806-.005859 1.402344l-1.7910156 1.808594h.84375l1.3867186-1.466797c.394566-.417139 1.058559-.417139 1.453125 0l1.390625 1.466797h.824219l-1.769531-1.800781c-.370922-.377324-.383761-.978269-.029297-1.371094l1.853515-2.0546875-.384765-.3671875-1.890625 1.939453c-.390184.399869-1.032302.402486-1.425781.005859zm6.140625 2.8125005-.232422.257812.232422.236328z" fill="#fff"/><path d="m0 1v4h.99804688 4.00195312 1 4 1 4.001953.998047v-4zm1 1h4v2h-4zm5 0h4v2h-4zm5 0h4v2h-4zm-11 4v8.5c-.00038442.276301.22369855.500384.5.5h5.9414062l-.1425781-.140625c-.2268183-.223757-.3334488-.542198-.2871093-.857422h-5.01367192v-8.001953zm5 0v3h-4v1h4v4h1v-4h.7871094l-.5039063-.5175781c-.1290978-.1337251-.2183748-.3007813-.2578125-.4824219h-.0253906v-.2285156-2.7714844zm5 0v.7070312l1 1.0058594v-1.7128906zm5.001953 0v.484375l.998047.9492188v-1.4335938zm.998047 4.103516-.998047 1.105468v.498047l.998047 1.015625z" fill="#808080"/><g fill="#e68497"><path d="m16 14.149904-2.605902-2.651537 2.50749-2.7777726-1.807553-1.7205859-2.580554 2.6470558-2.632865-2.6470558-1.880616 1.783872 2.632863 2.7031725-2.632863 2.660005 1.880616 1.852942 2.62981-2.77941 2.635919 2.77941z"/><path d="m0 1v4h16v-4zm1 1h4v2h-4zm5 0h4v2h-4zm5 0h4v2h-4z"/></g></svg>