<svg viewBox="0 0 16 16" xmlns="http://www.w3.org/2000/svg">/&gt;<path d="m13 2.000414h-12v8.999586h9.294922l2.705078-2.695312z" fill="#fff"/><path d="m14 2.000414c0-.554-.446-1-1-1h-12c-.554 0-1 .446-1 1v2 1.0292969 1.9429451 2.027344 2c0 .554.446 1 1 1h.800781.199219 2 5.5.863281l3.636719-3.636719v-.863281zm-1 0v4.999586h-3.5c-.277 0-.5.223-.5.5v3.5h-5-2-.0918-.9082v-2-.740234-3.0581801-1.2011719-2zm0 5.999586-3 3v-3z" fill="#808080"/><path d="m15 5.0004141h-12v8.9995859h9.294922l2.705078-2.695312z" fill="#fff"/><path d="m16 5.0004141c0-.554-.446-1-1-1h-12c-.554 0-1 .446-1 1v2 1.0292969 1.942945 2.027344 2c0 .554.446 1 1 1h.800781.199219 2 5.5.863281l3.636719-3.636719v-.863281zm-1 0v4.9995859h-3.5c-.277 0-.5.223-.5.5v3.5h-5-2-.0918-.9082v-2-.740234-3.05818-1.2011719-2zm0 5.9995859-3 3v-3z" fill="#808080"/></svg>