<svg viewBox="0 0 16 16" xmlns="http://www.w3.org/2000/svg">/&gt;<path d="m1 4v11h4v-7c-.000122-.5424976.432288-.9861728.9746094-1 .2358103-.0060672.4661757.071413.6503906.21875l3.375 2.6992188v-1.9179688c-.0003499-.838869.970049-1.3054069 1.625-.78125l3.375 2.6992188v-5.9179688zm9 10.082031-1.1484375.917969h1.1484375zm5 0-1.148438.917969h1.148438z" fill="#fff"/><path d="m0 3v13h1 4v-1h-4v-11h14v4.5859375 1.3320313l1 .8007812v-.71875-2.4140625-3.5859375-1zm16 10.28125-1 .800781v.917969h-1.148438l-1.25 1h2.398438 1v-2zm-7.1484375 1.71875-1.25 1h2.3984375v-1z" fill="#808080"/><path d="m0 0h16v2h-16z" fill="#4d82b8"/><path d="m2 5h12v2h-12z" fill="#eac282"/><g fill="#4d82b8"><path d="m11 8v8l5-4z"/><path d="m6 8v8l5-4z"/></g></svg>