<svg viewBox="0 0 16 16" xmlns="http://www.w3.org/2000/svg"><path d="m1 5v9h5.0117188a1.0001 1.0001 0 0 1 .2773437-.556641l1.9414063-1.96289-1.9472657-1.9980471a1.0001 1.0001 0 0 1 .0292969-1.4238281l1.8808594-1.7832032a1.0001 1.0001 0 0 1 .6757812-.2753906 1.0001 1.0001 0 0 1 .7207032.2949219l1.9160152 1.9277343 1.873047-1.9199218a1.0001 1.0001 0 0 1 1.404297-.0273438l.216797.2070313v-1.4824219zm7.859375 3.3984375-.4355469.4140625 1.9257809 1.976562a1.0001 1.0001 0 0 1 -.005859 1.402344l-1.7910156 1.808594h.84375l1.3867186-1.466797a1.0001 1.0001 0 0 1 1.453125 0l1.390625 1.466797h.824219l-1.769531-1.800781a1.0001 1.0001 0 0 1 -.029297-1.371094l1.853515-2.0546875-.384765-.3671875-1.890625 1.939453a1.0001 1.0001 0 0 1 -1.425781.005859zm6.140625 2.8125005-.232422.257812.232422.236328z" fill="#fff"/><path d="m0 1v4 9.5c-.00038442.276301.22369855.500384.5.5h5.9414062l-.1425781-.140625c-.2268183-.223757-.3334488-.542198-.2871093-.857422h-5.01367192v-9.001953h4.00195312v4h-4v1h4v4h1v-4h.7871094l-.5039063-.5175781c-.1290978-.1337251-.2183748-.3007813-.2578125-.4824219h-.0253906v-.2285156-3.7714844h4v1.7070312l1 1.0058594v-2.7128906h4.001953v1.484375l.998047.9492188v-2.4335938-4zm16 9.103516-.998047 1.105468v.498047l.998047 1.015625z" fill="#808080"/><path d="m16 14.149904-2.605902-2.651537 2.50749-2.7777726-1.807553-1.7205859-2.580554 2.6470558-2.632865-2.6470558-1.880616 1.783872 2.632863 2.7031725-2.632863 2.660005 1.880616 1.852942 2.62981-2.77941 2.635919 2.77941z" fill="#e68497"/></svg>