<svg xmlns="http://www.w3.org/2000/svg" viewBox="0 0 16 16">
 <path
   style="fill:#ffffff"
   d="M 6 1 L 6 5 L 2 5 L 2 15 L 10 15 L 10 11 L 14 11 L 14 1 L 6 1 z "
   />
<path
   d="M 6,0 C 5.446,0 5,0.446 5,1 V 4 H 2 C 1.446,4 1,4.446 1,5 v 10 c 0,0.554 0.446,1 1,1 h 8 c 0.554,0 1,-0.446 1,-1 v -3 h 3 c 0.554,0 1,-0.446 1,-1 V 1 C 15,0.446 14.554,0 14,0 Z m 0,1 h 8 V 11 H 11 V 5 C 11,4.446 10.554,4 10,4 H 6 Z M 2,5 c 2.6666667,0 5.3333333,0 8,0 0,3.3333333 0,6.666667 0,10 H 2 Z"
   style="fill:#4d82b8" />
</svg>
