<svg viewBox="0 0 16 16" xmlns="http://www.w3.org/2000/svg">
  <path
     style="fill:#76a797"
     d="m 2,10 v 2 H 0 v 2 h 2 v 2 H 4 V 14 H 6 V 12 H 4 v -2 z"
     />
  <path
     style="fill:#76a797"
     d="M 2,2 V 4 H 0 V 6 H 2 V 8 H 4 V 6 H 6 V 4 H 4 V 2 Z"
     />
  <path
     style="fill:#ffffff"
     d="M 8 2 L 8 5 L 11 5 L 11 2 L 8 2 z M 12 2 L 12 5 L 15 5 L 15 2 L 12 2 z M 8 7 L 8 10 L 11 10 L 11 7 L 8 7 z M 12 7 L 12 10 L 15 10 L 15 7 L 12 7 z M 8 12 L 8 15 L 11 15 L 11 12 L 8 12 z M 12 12 L 12 15 L 15 15 L 15 12 L 12 12 z "
     />
  <path
     style="fill:#e68497"
     d="M 9 8 L 9 9 L 10 9 L 10 8 L 9 8 z M 13 8 L 13 9 L 14 9 L 14 8 L 13 8 z M 13 13 L 13 14 L 14 14 L 14 13 L 13 13 z "
     />
  <path
     style="fill:#808080"
     d="M 7 0 L 7 16 L 16 16 L 16 0 L 7 0 z M 8 2 L 11 2 L 11 5 L 8 5 L 8 2 z M 12 2 L 15 2 L 15 5 L 12 5 L 12 2 z M 9 3 L 9 4 L 10 4 L 10 3 L 9 3 z M 8 7 L 11 7 L 11 10 L 8 10 L 8 7 z M 12 7 L 15 7 L 15 10 L 12 10 L 12 7 z M 8 12 L 11 12 L 11 15 L 8 15 L 8 12 z M 12 12 L 15 12 L 15 15 L 12 15 L 12 12 z M 9 13 L 9 14 L 10 14 L 10 13 L 9 13 z "
     />
</svg>
