<svg viewBox="0 0 16 16" xmlns="http://www.w3.org/2000/svg">/&gt;<g fill="#808080"><rect height="3" ry="1" width="3" x="13" y="1.999999"/><rect height="3" ry="1" width="3" y="1.999999"/><rect height="3" ry="1" width="3" x="13" y="13"/><rect height="3" ry="1" width="3" y="13"/></g><path d="m8.0000001 2-2.6250001 5h-4.37500002l3.99999992 3.5-.9999998 5.5 4-3 3.9999989 3-1-5.5 4.000001-3.5h-4.375z" fill="#eac282"/><path d="m0 0v1.2832031c.2965194-.1754644.63603072-.2832031 1-.2832031h1c.7267335 0 1.366449.4079429 1.7167969 1h8.5664061c.350348-.5920571.990063-1 1.716797-1h1c.363969 0 .703481.1077387 1 .2832031v-1.2832031z" fill="#4d82b8"/></svg>