<svg viewBox="0 0 16 16" xmlns="http://www.w3.org/2000/svg"><path d="m6 0v1h7v14h-10v-9h-1v9c0 .554.446 1 1 1h10c.554 0 1-.446 1-1v-14c0-.554-.446-1-1-1z" fill="#808080"/><path d="m6 1v4c0 .554-.446 1-1 1h-2v9h10v-14z" fill="#fff"/><g fill="#808080"><path d="m6 3v2c0 .554-.446 1-1 1h-1v1h4v-4z"/><path d="m9 3h3v1h-3z"/><path d="m9 6h3v1h-3z"/><path d="m4 9h8v1h-8z"/><path d="m4 12h8v1h-8z"/></g><g fill="#eac282"><rect height="1" ry=".5" width="3"/><rect height="3" rx=".5" width="1"/><path d="m.4999293 4.5 4-4v4z" fill-rule="evenodd" stroke="#eac282" stroke-linecap="round" stroke-linejoin="round"/></g></svg>