<svg viewBox="0 0 16 16" xmlns="http://www.w3.org/2000/svg">/&gt;<circle cx="11.5" cy="11.5" fill="#fff" r="3.5"/><path d="m1 4v11h6l.0976562-.210938a5.5 5.5 0 0 1 -1.0976562-3.289062 5.5 5.5 0 0 1 5.5-5.5 5.5 5.5 0 0 1 3.5 1.2597656v-3.2597656z" fill="#fff"/><path d="m0 3v13h1 7.34375a5.5 5.5 0 0 1 -1.0800781-1h-6.2636719v-11h14v3.2597656a5.5 5.5 0 0 1 1 1.0898438v-.7636719-3.5859375-1zm16 11.65625a5.5 5.5 0 0 1 -1.349609 1.34375h.349609 1z" fill="#808080"/><path d="m0 0h16v2h-16z" fill="#4d82b8"/><path d="m2 5v2h6.3496094a5.5 5.5 0 0 1 3.1503906-1 5.5 5.5 0 0 1 2.5.6074219v-1.6074219z" fill="#eac282"/><g fill="#808080"><path d="m11.5 7c-2.493 0-4.5 2.007-4.5 4.5s2.007 4.5 4.5 4.5 4.5-2.007 4.5-4.5-2.007-4.5-4.5-4.5zm0 1a3.5 3.5 0 0 1 3.5 3.5 3.5 3.5 0 0 1 -3.5 3.5 3.5 3.5 0 0 1 -3.5-3.5 3.5 3.5 0 0 1 3.5-3.5z"/><path d="m11 9v3h1 2v-1h-2v-2z"/></g></svg>