<svg viewBox="0 0 16 16" xmlns="http://www.w3.org/2000/svg">/&amp;gt;<path d="m3.9584922 0c-.55954 0-.9589844.44045999-.9589844 1v4c0 .55954.3899218.983507.9492188 1h1.0512734v9c0 .552285.4477153 1 1 1 .0000511-.265199.1054326-.519519.2929688-.707031l2.2929687-2.292969h-.5859375v-.980469h1.0097656c.55954 0 1.0097654-.450225 1.0097654-1.009765s-.4504612-1.0260099-1.0097654-1.009766h-1.0097656v-1h.5039062c.2797702 0 .5058594-.2260893.5058594-.5058594 0-.2797698-.2260893-.5039062-.5058594-.5039062h-.5039062v-1.9902344h2.029649c.55954 0 .970703-.44046.970703-1v-4c0-.55953951-.399444-1-.958984-1zm1.0708047.8203125c.5578076 0 1.0097656.451958 1.0097656 1.0097656s-.451958 1.0097657-1.0097656 1.0097657-1.0097657-.4519581-1.0097657-1.0097657.4519581-1.0097656 1.0097657-1.0097656z" fill="#808080"/><g fill="#fff" transform="matrix(1.01 0 0 1.01 -4.06 -3.22)"><path d="m8.9993039 4.0004641c-.5521036.000128-.9996399.4476643-.999768.9997679.0001281.5521035.4476644.99964.999768.999768.5521035-.0001281.9996398-.4476645.9997679-.999768-.0001281-.5521035-.4476645-.9996398-.9997679-.9997679z"/><rect height="8.910892" ry=".5" width=".990099" x="9.960396" y="8.138614"/></g><path d="m16 7-9 9h9zm-1 2.7736083v.9763917 4.25h-4.25-.952422z" fill="#eac282" fill-rule="evenodd"/></svg>