<svg viewBox="0 0 16 16" xmlns="http://www.w3.org/2000/svg">/&gt;<path d="m1 5v9h5v-9zm6 0v6.496094c0-.349448.1117963-.714055.3828125-1.015625s.7185032-.4903176 1.1386719-.4843752h3.3574216l-1.423828-1.4238282c-.457246-.4375563-.5622661-1.1273457-.353516-1.6445312.208752-.5171856.763616-.9419031 1.396485-.9394532.173381.0006529.341811.0358916.501953.09375v-1.0820312zm0 6.496094v2.503906h3.875l1.003906-1.003906h-3.3574216c-.4201687.005942-.8676557-.182805-1.1386719-.484375s-.3828125-.666178-.3828125-1.015625z" fill="#fff"/><path d="m0 1v4 9.5c-.00038442.276301.22369855.500384.5.5h5.5v-.998047h-5.00195312v-9.001953h4.00195312v4h-4v1h4v4h1v-4-1-4-4zm7 0v4h4v1.0820312c.157465-.0576209.322966-.0944277.498047-.09375.173381.0006529.341811.0358916.501953.09375v-1.0820312-4zm0 8v1h1.4824219c.0130158-.0001852.0260927-.0040897.0390625-.0039062h3.3574216l-.996094-.9960938zm4 3.996094v.878906l.878906-.878906zm-4 1.005859v.998047h3.105469c.072491-.208827.175513-.409697.341797-.572266l.425781-.425781z" fill="#808080"/><path d="m11.494141 6.9882812a.50005.50005 0 0 0 -.347657.8613282l3.146485 3.1464846h-5.7851565a.50005.50005 0 1 0 0 1h5.7851565l-3.146485 3.146484a.50005.50005 0 0 0 .363282.857422.50005.50005 0 0 0 .34375-.150391l3.960937-3.960937.007813-.00586a.50005.50005 0 0 0 -.011719-.783203l-3.957031-3.9570309a.50005.50005 0 0 0 -.359375-.1542969z" fill="#4d82b8"/></svg>