<svg viewBox="0 0 16 16" xmlns="http://www.w3.org/2000/svg"><path d="m6 1v4c0 .554-.446 1-1 1h-2v9h9.412109c-.394873-.025576-.725069-.199069-.96875-.441406-.246196-.24484-.424818-.579565-.449218-.980469-.024397-.400904.151002-.847637.445312-1.142578l.441406-.441406h-6.3437496c-.4239001.013319-.8795878-.173279-1.15625-.476563s-.390625-.669194-.390625-1.021484c0-.352291.1139628-.7201536.390625-1.0234378.2766622-.3032839.7323499-.4898825 1.15625-.4765624h6.3339846l-.416016-.4140626c-.461106-.441658-.562575-1.1415482-.345703-1.6601562s.784059-.938642 1.421875-.921875a1.0001 1.0001 0 0 1 .005859 0c.160085.0045328.314522.0404016.462891.09375v-2.3886719l-2.695312-2.7050781zm7 13.90625c-.178117.065637-.365024.099397-.544922.09375h.544922z" fill="#fff"/><path d="m6 0v1h3v3.5c0 .277.223.5.5.5h3.5v1.09375c.212037.075386.408075.1934218.568359.3574219l.431641.4296875v-2.3808594-.8632812l-3.636719-3.6367188h-.863281zm4 1 3 3h-3zm-8 5v9c0 .554.446 1 1 1h10c.554 0 1-.446 1-1v-.886719l-.410156.410157c-.157485.171471-.366767.304178-.589844.390624v.085938h-.326172c-.08124.012-.162667.022841-.242187.019531-.046872-.001951-.089741-.013511-.134766-.019531h-9.296875v-9z" fill="#808080"/><path d="m12.505859 7a.50008765.49927069 0 0 0 -.359375.859375l2.144532 2.1367188h-8.7851566a.50008765.49927069 0 1 0 0 .9980472h8.7890626l-2.148438 2.148437a.50035562.49953822 0 1 0 .708985.705078l2.957031-2.957031a.50008765.49927069 0 0 0 -.002-.791016l-2.956984-2.9492184a.50008765.49927069 0 0 0 -.34375-.1503906.50008765.49927069 0 0 0 -.0039 0z" fill="#4d82b8" fill-rule="evenodd"/><g fill="#eac282"><rect height="1" ry=".5" width="3"/><rect height="3" rx=".5" width="1"/><path d="m.4999293 4.5 4-4v4z" fill-rule="evenodd" stroke="#eac282" stroke-linecap="round" stroke-linejoin="round"/></g></svg>