<svg viewBox="0 0 16 16" xmlns="http://www.w3.org/2000/svg">/&amp;gt;<path d="m3 0c-.554 0-1 .446-1 1v14c0 .554.446 1 1 1h7.259766c-.162116-.269679-.2773602-.585714-.291016-.9375-.000858-.022089.007213-.040958.0078125-.0625h-6.9765625v-14h10v6.2792969c.15244.0886512.297739.1900333.423828.3183593l.576172.5722657v-7.1699219c0-.554-.446-1-1-1z" fill="#808080"/><path d="m3 1v14h6.9765625c.0110036-.395409.2518795-.704291.4648435-1.021484h-4.4121091c-.5922713.00834-1.1225666-.214989-1.515625-.650391-.3533488-.391408-.5136719-.889089-.5136719-1.345703 0-.456628.1581325-.953813.5136719-1.347656.3952056-.437783.9275483-.6568213 1.515625-.6484379h4.3300781c-.32818-.5444219-.4504697-1.1700151-.21875-1.7402343.294044-.723582.988643-1.2442979 1.849609-1.2460938a1.0001172 1.0001172 0 0 0 .001954 0h.001953c.357135-.0003487.701475.1022827 1.005859.2792969v-6.2792969z" fill="#fff"/><g fill="#808080"><path d="m4 3h4v4h-4z"/><path d="m9 3h3v1h-3z"/><path d="m9 6h3v1h-3z"/><path d="m4 9v1h1.8710938c.0531221-.0030752.104073-.0144435.1582031-.0136719h4.3300781c-.187221-.3105829-.296559-.6482622-.322266-.9863281z"/><path d="m4 12v1h.2773438c-.1841132-.316667-.2724449-.668456-.2753907-1z"/></g><path d="m11.992605 7.9999978c-.426662.00089-.786259.278767-.925831.622225-.139774.343958-.07474.792942.232434 1.088893l1.283271 1.2755612h-6.56664c-.294619-.0042-.582027.121959-.759806.318891-.177777.196931-.255872.439904-.255872.676669 0 .236766.07809.479739.255872.67667.177779.196931.465187.323039.759806.31889h6.574453l-1.277411 1.273617c-.226076.201592-.354344.499654-.343768.771948.01057.272293.132747.504013.304704.674725.171956.170711.406172.291616.679723.30139.27355.0098.571603-.118551.773477-.344168l2.937655-2.926402-.04883.04278c.51548-.393115.511508-1.198599-.0078-1.586673l.05273.04666-2.949373-2.9322342c-.188493-.191836-.447331-.299957-.71684-.299443h-.002z" fill="#4d82b8" fill-rule="evenodd"/></svg>