<svg viewBox="0 0 16 16" xmlns="http://www.w3.org/2000/svg">
/&amp;gt;<path d="m8.0898438-.00390625c-3.9140753 0-6.5048402 2.93902265-7.0878907 6.44726565a.4617531.46124297 0 0 0 .3105469.5136718l3.0722656 1.0234376a.4617531.46124297 0 0 0 .609375-.4335938c.0106711-1.0768871.3966847-1.79893.9648438-2.28125.5681589-.4823202 1.3428804-.7193044 2.1289062-.6992188.7860259.020086 1.5713847.298237 2.1445314.796875.573147.4986385.95025 1.2045462.955078 2.1816407a.4617531.46124297 0 0 0 .630859.4257812l3.115235-1.2148437a.4617531.46124297 0 0 0 .27539-.5527344c-.536399-1.9203348-1.312403-3.4702325-2.476562-4.5507812-1.16416-1.08054893-2.71051-1.65625005-4.6425782-1.65625005zm0 1.00390625c1.7381725 0 2.9826752.4842947 3.9570312 1.3886719.8811.8178176 1.523655 2.0648824 2.017578 3.6269531l-2.029297.7929688c-.170815-.8922166-.537827-1.675037-1.142578-2.2011719-.772817-.6723507-1.7743195-1.0192919-2.7773436-1.0449219-1.0030243-.0256305-2.0210051.268607-2.8066406.9355469-.6300076.5348245-1.011199 1.3693546-1.1757813 2.3398437l-2-.6679687c.6488339-2.9120059 2.7096545-5.1699219 5.9570313-5.1699219z" fill="#3a3a38"/><path d="m8.0905278 1.000702c-3.2473767 0-5.3091714 2.2581625-5.9580053 5.1701684l2.0004855.6666705c.1645823-.9704891.5449083-1.8037304 1.1749159-2.3385549.7856355-.6669399 1.8039123-.9613998 2.8069366-.9357693 1.0030241.02563 2.0045735.3710581 2.7773905 1.0434088.604751.5261349.972816 1.3091848 1.143631 2.2014014l2.028294-.7916712c-.493923-1.5620707-1.136767-2.8106753-2.017867-3.6284929-.974356-.9043772-2.2176087-1.3871608-3.9557812-1.3871608z" fill="#fafafa"/><path d="m8.0898438 16c-3.9140753 0-6.5048402-2.939022-7.0878907-6.4472654a.4617531.46124297 0 0 1 .3105469-.5136718l3.0722656-1.0234376a.4617531.46124297 0 0 1 .609375.4335938c.010671 1.0768871.3966847 1.79893.9648438 2.28125.5681589.48232 1.3428804.719304 2.1289062.699219.7860259-.02009 1.5713847-.298237 2.1445314-.796875.573147-.498639.95025-1.2045464.955078-2.1816409a.4617531.46124297 0 0 1 .630859-.4257812l3.115235 1.2148437a.4617531.46124297 0 0 1 .27539.5527344c-.536399 1.920335-1.312403 3.470232-2.476562 4.550781-1.16416 1.080549-2.71051 1.65625-4.6425782 1.65625zm0-1.003906c1.7381725 0 2.9826752-.484295 3.9570312-1.388672.8811-.817818 1.523655-2.064882 2.017578-3.626953l-2.029297-.7929688c-.170815.8922168-.537827 1.6750368-1.142578 2.2011718-.772817.672351-1.7743195 1.019292-2.7773436 1.044922-1.0030243.02563-2.0210051-.268607-2.8066406-.935547-.6300076-.534824-1.011199-1.369354-1.1757813-2.3398436l-2 .6679687c.6488339 2.9120059 2.7096545 5.1699219 5.9570313 5.1699219z" fill="#3a3a38"/><path d="m8.0905278 14.995392c-3.2473767 0-5.3091714-2.258162-5.9580053-5.1701684l2.0004855-.6666705c.1645823.9704889.5449083 1.8037299 1.1749159 2.3385549.7856355.66694 1.8039123.9614 2.8069366.935769 1.0030241-.02563 2.0045735-.371058 2.7773905-1.043408.604751-.526135.972816-1.309185 1.143631-2.2014019l2.028294.7916712c-.493923 1.5620707-1.136767 2.8106757-2.017867 3.6284927-.974356.904377-2.2176087 1.387161-3.9557812 1.387161z" fill="#fafafa"/></svg>