<svg viewBox="0 0 16 16" xmlns="http://www.w3.org/2000/svg">
<path
   style="fill:#ffffff"
   d="M 1,3 V 15 H 15 V 3 H 13 3 Z"
   />
<path
   style="fill:#808080"
   d="M 0 0 L 0 2 L 0 3 L 0 16 L 16 16 L 16 3 L 16 0 L 14 0 L 12 0 L 4 0 L 2 0 L 0 0 z M 1 3 L 3 3 L 15 3 L 15 15 L 1 15 L 1 3 z M 11.482422 3.9902344 A 0.50005 0.50005 0 0 0 11.109375 4.1875 L 4.109375 13.1875 A 0.50005 0.50005 0 1 0 4.8984375 13.800781 L 11.898438 4.8007812 A 0.50005 0.50005 0 0 0 11.482422 3.9902344 z M 5 4 A 2 2 0 0 0 3 6 A 2 2 0 0 0 5 8 A 2 2 0 0 0 7 6 A 2 2 0 0 0 5 4 z M 5 5 A 1 1 0 0 1 6 6 A 1 1 0 0 1 5 7 A 1 1 0 0 1 4 6 A 1 1 0 0 1 5 5 z M 11 10 A 2 2 0 0 0 9 12 A 2 2 0 0 0 11 14 A 2 2 0 0 0 13 12 A 2 2 0 0 0 11 10 z M 11 11 A 1 1 0 0 1 12 12 A 1 1 0 0 1 11 13 A 1 1 0 0 1 10 12 A 1 1 0 0 1 11 11 z "
   />
<path
   style="fill:#4d82b8"
   d="M 0,0 H 16 V 3 H 0 Z"
   />
</svg>
