<svg viewBox="0 0 16 16" xmlns="http://www.w3.org/2000/svg"><path d="m1 2v13h8v-2h-2c-1.0907028 0-2-.909297-2-2 0-1.0907028.9092972-2 2-2h2v-2c0-1.0907028.9092972-2 2-2 1.090703 0 2 .9092972 2 2v2h1v-7zm12 11v2h1v-2z" fill="#fff"/><path d="m1 1c-.554 0-1 .446-1 1v8.09375 2.533203 2.373047c0 .554.446 1 1 1h8.2832031c-.1754644-.296519-.2832031-.636031-.2832031-1h-8v-3.375-.533203-9.091797h13v7h1v-7c0-.554-.446-1-1-1zm13 12v2h-1c0 .363969-.107739.703481-.283203 1h1.283203c.554 0 1-.446 1-1v-2z" fill="#808080"/><g fill="#4d82b8"><path d="m3.4609375 3.9941406a.50005.50005 0 0 0 -.3652344.8066406l2.7753907 3.6992188-2.7753907 3.699219a.50078127.50078127 0 0 0 .8007813.601562l1.1328125-1.511719c-.0144087-.09537-.0292969-.190166-.0292969-.289062 0-1.0907028.9092972-2 2-2h.4960938l-.375-.5 2.7753906-3.6992188a.50005.50005 0 0 0 -.3828125-.8066406.50005.50005 0 0 0 -.4179688.2050782l-2.5996093 3.4667968-2.5996094-3.4667968a.50005.50005 0 0 0 -.3847656-.2050782.50005.50005 0 0 0 -.0507813 0z" fill-rule="evenodd"/><path d="m11 6c-.554 0-1 .446-1 1v3h-3c-.554 0-1 .446-1 1s.446 1 1 1h3v3c0 .554.446 1 1 1s1-.446 1-1v-3h3c.554 0 1-.446 1-1s-.446-1-1-1h-3v-3c0-.554-.446-1-1-1z"/></g></svg>