<svg viewBox="0 0 16 16" xmlns="http://www.w3.org/2000/svg"><g fill-rule="evenodd" transform="translate(0 -2)"><path d="m11 2.0000002c-.265199.0000511-.519519.1054326-.707031.2929688l-3.707031 1.7070312-5.585938-.0000002c-.5522619.0000552-.9999448.4477381-1 1.0000002v8.9999998h1 12l2.744519-7.007153c.297854-.992847.297854-.992847-.744519-.992847h-1v-3c-.000055-.5522619-.447738-.9999448-1-1zm0 1 2-.0000002v3h-8.9788136c-1.0211864 0-1.0211864 0-1.2796742.990786l-1.7415122 4.67523v-6.6660158l6 .0000002z" fill="#eac282"/><path d="m11 3.0000002-4 2.0000002-6-.0000002v6.6660158l1.7421875-4.675782c.2584878-.990786.2581105-.990234 1.2792969-.990234h8.9785156v-3z" fill="#fff"/></g><g transform="matrix(.84615385 0 0 .84615385 2.461539 2.461539)"><g stroke-width=".8125"><path d="m4.1818181 4.1818181h10.6363639v10.6363639h-10.6363642z" fill="#fff"/><path d="m3 3v13h13v-13zm1.1818181 1.1818181h10.6363639l-.000001 10.6363639h-10.6363632z" fill="#808080"/><path d="m4.1818178 14.818182c.3961705 0 2.9545458-3.545455 2.9545458-3.545455l1.7727272 1.181818 3.5454542-3.5454542 2.363637 3.5454542-.000001 2.363637z" fill="#4d82b8" fill-rule="evenodd"/></g><path d="m8.9090912 7.136364a1.7727273 1.7727273 0 0 1 -1.7727272 1.7727272 1.7727273 1.7727273 0 0 1 -1.7727273-1.7727272 1.7727273 1.7727273 0 0 1 1.7727273-1.7727273 1.7727273 1.7727273 0 0 1 1.7727272 1.7727273z" fill="#eac282"/></g></svg>