<svg viewBox="0 0 16 16" xmlns="http://www.w3.org/2000/svg">/&amp;amp;amp;gt;<g fill-rule="evenodd" transform="translate(0 -1)"><path d="m3 2.0000002 4 2.0000002 5-.0000002v7.9999998h-11v-10z" fill="#fafafa"/><path d="m0 14h1 12l2.744141-7.0078125c.297854-.992847.298232-.9921875-.744141-.9921875h-1-1-8.9785156c-1.0211864 0-1.0208091-.0005516-1.2792969.9902344l-1.7421875 4.6757816z" fill="#ed8733"/><path d="m3 1c.265199.0000511.519519.1054325.707031.2929688l3.7070315 1.7070312h4.5859375c.552262.0000552.999945.4477379 1 1v7h-1v-.333984-5.666016-1h-5l-4-2h-2v12h-1v-12c.000055-.5522619.447738-.9999448 1-1z" fill="#ed8733"/><path d="m4.0214844 7c-.1271747 0-.1609225.00219-.2441406.00391-.022899.080791-.035762.1133336-.068359.2382813a1.0001 1.0001 0 0 1 -.029297.097656l-1.7421878 4.6757777a1.0001 1.0001 0 0 1 -.017578.04492l-.4023439.939455h10.8007809l2.347657-6h-.666016-1z" fill="#f8db8f"/></g><g transform="matrix(.84615385 0 0 .84615385 2.461539 2.461539)"><path d="m4.1818181 4.1818181h10.6363639v10.6363639h-10.6363642z" fill="#fafafa" stroke-width=".8125"/><path d="m3 3v13h13v-13zm1.1818181 1.1818181h10.6363639l-.000001 10.6363639h-10.6363632z" fill="#3a3a38" stroke-width=".8125"/><path d="m8.9090912 7.136364a1.7727273 1.7727273 0 0 1 -1.7727272 1.7727272 1.7727273 1.7727273 0 0 1 -1.7727273-1.7727272 1.7727273 1.7727273 0 0 1 1.7727273-1.7727273 1.7727273 1.7727273 0 0 1 1.7727272 1.7727273z" fill="#fb983b"/><g fill-rule="evenodd" stroke-width=".6875" transform="matrix(1.1818182 0 0 1.1818182 -2.909092 -2.909092)"><path d="m13 10-3 3-1.5-1s-2.1647788 3-2.5 3h.9667969c.7131596-.877002 1.5332031-2 1.5332031-2l1.5 1 3-3 2 3v-1z" fill="#0063b1"/><path d="m13 11-3 3-1.5-1s-.8200435 1.122998-1.5332031 2h8.0332031v-1z" fill="#83beef"/></g></g></svg>