<svg viewBox="0 0 16 16" xmlns="http://www.w3.org/2000/svg"><g transform="matrix(1 0 0 -1 0 16)"><path d="m1 0c-.554 0-1 .446-1 1v13c0 .554.446 1 1 1h5.007813l-.002-1h-5.005859v-13h13v13h-4.994141l.002 1h4.992187c.554 0 1-.446 1-1v-13c0-.554-.446-1-1-1z" fill="#808080"/><path d="m1 1v13h5.005859l-.0059-2.478516c-.01601-.818658.657846-1.516578 1.476563-1.529296.83152-.01297 1.533203.686013 1.523437 1.517578l.0059 2.490234h4.994141v-13z" fill="#fff"/><g fill="none" stroke="#4d82b8" stroke-linecap="round" stroke-linejoin="round"><path d="m3.5 11.5 8-8"/><path d="m11.5 11.5-8-8"/><path d="m7.51016 15.492879-.0101-3.992879"/></g></g></svg>