<svg viewBox="0 0 16 16" xmlns="http://www.w3.org/2000/svg">/&amp;gt;<path d="m1 4h14v11h-14z" fill="#fff"/><path d="m0 3v13h1 8.585938 5.414062 1v-8.414062-3.585938-1zm1 1h14v4.585938 6.414062h-4.414062-9.585938z" fill="#808080"/><path d="m0 0h16v2h-16z" fill="#4d82b8"/><path d="m2 6h12v2h-12z" fill="#eac282"/><g fill="#808080"><path d="m2 11h5v1h-5z"/><path d="m2 9h5v1h-5z"/><path d="m2 13h5v1h-5z"/><path d="m9 11h5v1h-5z"/><path d="m9 9h5v1h-5z"/><path d="m9 13h5v1h-5z"/><path d="m0 3v13l16-13zm1 1h12.183594l-12.183594 9.900391z" fill-rule="evenodd"/></g><path d="m1 4h12.183594l-12.183594 9.900391z" fill="#fff" fill-rule="evenodd"/></svg>