<svg viewBox="0 0 16 16" xmlns="http://www.w3.org/2000/svg"><path d="m3 1v14h3.5976562c-.3659223-.487851-.5976562-1.059504-.5976562-1.699219 0-.608073 0-1.216146 0-1.824219 0-1.177365-.1476386-2.0419725.40625-2.976562.3457889-.6768091.8527417-1.265539 1.546875-1.6523438.9863444-.5496389 2.214914-.8474237 3.546875-.8476562.520942.0003623 1.018944.059605 1.5.1484375v-2.4433594l-2.695312-2.7050781z" fill="#fff"/><path d="m3 0c-.554 0-1 .446-1 1v14c0 .554.446 1 1 1h4.7128906c-.4301342-.271548-.8188391-.604843-1.1152344-1h-3.5976562v-14h6v3.5c0 .277.223.5.5.5h3.5v1.1484375c.34734.0641401.680986.1481523 1 .2558594v-1.9042969-.8632812l-3.636719-3.6367188h-.863281zm7 1 3 3h-3z" fill="#808080"/><path d="m11.5 7a4.5 2.7 0 0 0 -4.5 2.6992188 4.5 2.7 0 0 0 4.5 2.7011722 4.5 2.7 0 0 0 4.5-2.7011722 4.5 2.7 0 0 0 -4.5-2.6992188zm-4.5 4.476562v1.824219c0 1.491169 2.0147184 2.699219 4.5 2.699219 2.485282 0 4.5-1.20805 4.5-2.699219v-1.824219c-1.113321 1.335161-2.505846 1.824219-4.5 1.824219-2.2028805 0-3.3131403-.608807-4.5-1.824219z" fill="#eac282"/></svg>