<svg viewBox="0 0 16 16" xmlns="http://www.w3.org/2000/svg"><path d="m3 1v14h10v-.75-4.8007812l-.408203.3261718a1.0001 1.0001 0 0 1 -.013672.0117188c-.278757.2148506-.756791.3807226-1.193359.2753906a1.0001 1.0001 0 0 1 -.046875-.013672c-.232547-.0684379-.517727-.1941347-.744141-.4941405l-.380859-.4824219a1.0001 1.0001 0 0 1 .144531-1.3847656l2.642578-2.2128906v-1.7695313l-2.695312-2.7050781z" fill="#fff"/><path d="m3 0c-.554 0-1 .446-1 1v14c0 .554.446 1 1 1h2 1.0292969 2.9433593 2.0273438 2c.180284 0 .340567-.059764.486328-.142578a1.0001 1.0001 0 0 1 -.486328-.857422h-2-.740234-4.0585941-1.2011719-2v-14h6v3.5c0 .277.223.5.5.5h3.5v.4746094l.287109-.2402344a1.0001 1.0001 0 0 1 .642579-.234375h.070312v-.5-.8632812l-3.636719-3.6367188h-.863281zm7 1 3 3h-3z" fill="#808080"/><path d="m14 14.25v-6.8792876l-2.032827 1.6234428c-.118128.091047-.233794.1229138-.347001.0956-.108284-.0318679-.184574-.0773892-.228873-.1365709l-.391299-.4984823 2.929733-2.454702h1.070267v8.25.75h-1z" fill="#4d82b8"/></svg>