<svg viewBox="0 0 16 16" xmlns="http://www.w3.org/2000/svg"><g fill="#1e8bcd"><path d="m.49804758 4.9991328c-.275368.0011-.498022.22463-.498047.5v5.0000002c-.000621.424388.494386.65657.820312.384766l3.00000002-2.5000002c.24089-.199955.24089-.569577 0-.769532l-3.00000002-2.5c-.09052-.07512-.204633-.115924-.322265-.115234z"/><path d="m6.0019531 7c-.554 0-1 .446-1 1s.446 1 1 1h.5917969l.3925781-.6835938a1.0001 1.0001 0 0 0 .0019531-.0019531l.25-.4316406a1.0001 1.0001 0 0 1 1.1855469-.4453125l.4980469.1679688c-.1523648-.3569778-.5059949-.6054688-.9199219-.6054688z"/><path d="m13.519531 7 .150391.7441406.90625-.3066406a1.0001 1.0001 0 0 1 .201172-.0449219c-.182765-.2330664-.454914-.3925781-.775391-.3925781z"/></g><path d="m5 10c-.554 0-1 .446-1 1v5h1v-5h1.5957031l-.1523437-.134766a1.0001 1.0001 0 0 1 -.3320313-.865234zm11 1.355469-.164062.144531.164062.144531zm0 3.349609-.238281.41211a1.0001 1.0001 0 0 1 -.761719.492187v.390625h1z" fill="#3a3a38"/><path d="m5 11v5h4.4804688l-.1503907-.744141-.90625.306641a1.0001 1.0001 0 0 1 -1.1855469-.445312l-.25-.431641a1.0001 1.0001 0 0 0 -.0019531-.001953l-.4980469-.867188-.25-.429687a1.0001 1.0001 0 0 1 .2050782-1.251953l.7207031-.634766-.5683594-.5zm8.669922 4.255859-.150391.744141h1.480469v-.390625a1.0001 1.0001 0 0 1 -.423828-.046875z" fill="#fafafa"/><path d="m5.002 6c-.554 0-1.0783767-.4515722-1-1v-5h1v5h10.000214v-5h1v5c0 .554-.446 1-1 1z" fill="#3a3a38"/><path d="m5.0015725 0v5h10.0002135v-5z" fill="#fafafa"/><path d="m10.5 7-.412109 2.056641-1.9843754-.6718754-.25.4316406-.5.8671878-.25.43164 1.5742188 1.384766-1.5742188 1.384766.25.43164.5.867188.25.43164 1.9843754-.671875.412109 2.056641h.5 1 .5l.412109-2.056641 1.984375.671875.25-.43164.5-.867188.25-.43164-1.574218-1.384766 1.574218-1.384766-.25-.43164-.5-.8671878-.25-.4316406-1.984375.6718754-.412109-2.056641h-.5-1zm.875 1h.25l.375 1.5h.654297l.328125.566406 1.486328-.423828.125.214844-1.111328 1.076172.328125.566406-.328125.566406 1.111328 1.076172-.125.214844-1.486328-.423828-.328125.566406h-.654297l-.375 1.5h-.25l-.375-1.5h-.654297l-.328125-.566406-1.486328.423828-.125-.214844 1.1113281-1.076172-.328125-.566406.328125-.566406-1.1113281-1.076172.125-.214844 1.486328.423828.328125-.566406h.654297zm.125 2a1.5 1.5 0 0 0 -1.5 1.5 1.5 1.5 0 0 0 1.5 1.5 1.5 1.5 0 0 0 1.5-1.5 1.5 1.5 0 0 0 -1.5-1.5zm0 1a.5.5 0 0 1 .5.5.5.5 0 0 1 -.5.5.5.5 0 0 1 -.5-.5.5.5 0 0 1 .5-.5z" fill="#1e8bcd"/><path d="m11.375 8h.25l.375 1.5h.654297l.328125.566406 1.486328-.423828.125.214844-1.111328 1.076172.328125.566406-.328125.566406 1.111328 1.076172-.125.214844-1.486328-.423828-.328125.566406h-.654297l-.375 1.5h-.25l-.375-1.5h-.654297l-.328125-.566406-1.486328.423828-.125-.214844 1.1113281-1.076172-.328125-.566406.328125-.566406-1.1113281-1.076172.125-.214844 1.486328.423828.328125-.566406h.654297zm.125 2c-.828427 0-1.5.671573-1.5 1.5s.671573 1.5 1.5 1.5 1.5-.671573 1.5-1.5-.671573-1.5-1.5-1.5z" fill="#fafafa"/></svg>