<svg height="16" viewBox="0 0 4.2333332 4.2333335" width="16" xmlns="http://www.w3.org/2000/svg"><g stroke-width=".999999" transform="scale(.26458333)"><path d="m1 1v14h14v-14h-5.0078125c-.0000215.0086472.0020745.0167237.0019531.0253906l-.0058594 4.1425782.5605468-.5625c.403288-.4208327.938641-.6496853 1.535156-.6191407.536967.0274806 1.000896.2676927 1.322266.5898438.319452.3202269.562409.7839501.589844 1.3222656.030448.5974481-.201082 1.1325583-.619141 1.5351563l-3.8847655 3.8984372a.99990009.99990009 0 0 1 -.7070313.28711l.0175782-.007813c-.0081855.003573-.0172856.004021-.0253906.007813-.507275.237313-.9592223.253252-1.4765626.044921a.99990009.99990009 0 0 1 -.7675781-.289062l-3.9355469-3.9492188c-.3665378-.3590142-.5830786-.8480727-.5976562-1.3730468-.023993-.8771649.4994033-1.590955 1.21875-1.8964844.728914-.3095894 1.602871-.1841223 2.2148438.4433594l.5683593.5742187.0078125-4.1484375c-.0001213-.0086668.0019746-.0167435.0019532-.0253906z" fill="#fafafa"/><path d="m.50195312.00195313c-.27630145-.00037796-.50038441.22375433-.49999999.49999999l-.00390626 14.99609388c-.00038441.276283.22369855.500378.50000001.5h15.00000012c.276302.000378.500384-.223717.5-.5l.003906-14.99609388c.000384-.27628346-.223699-.50037795-.5-.49999999h-5.7695311c.168991.30005923.2606625.63777529.2597656.99804687h5.0078125.003906l-.003906 14h-14.00390625l.00390625-14h5.0117188c-.0008962-.36044549.0925631-.69788102.2617187-.99804687z" fill="#3a3a38"/><path d="m5 1v3.2636719c.1534968.0895887.3006351.1996093.4335938.3359375l.5683593.5742187v-.1738281h-.0019531v-4zm5 0v4h-.0117188v.1679688l.5605468-.5625c.13499-.1408627.289207-.2502478.451172-.3457032v-3.2597656zm-9 4v1h1.0019531c-.0007093-.3731246.1073421-.7079422.2773438-1zm12.720703 0c.151418.2608348.258269.5624847.275391.8984375.001775.0348276-.005863.0671707-.00586.1015625h1.009766v-1zm-2.720703 4.8183594-1.1777344 1.1816406h.1777344l-.0019531 3.998047h1.0000001l.001953-3.998047h4v-1h-4zm-6 .0175781v.1640625h-4v1h4l-.0019531 3.998047h1l.0019531-3.998047h.1601562z" fill="#797774"/><g fill="#1e8bcd"><path d="m6 11v4h4v-4h-.1777344l-.3300781.332031a.99990009.99990009 0 0 1 -.7070313.28711l.0175782-.007813c-.0081855.003573-.0172856.004021-.0253906.007813-.507275.237313-.9592223.253252-1.4765626.044921a.99990009.99990009 0 0 1 -.7675781-.289062l-.3730469-.375z" opacity=".5"/><path d="m5 10v6h6v-5-1h-.179688l-.9980464 1h.1777344v4h-4v-4h.1601562l-.9980468-1z"/></g></g><path d="m1.5875.52916h1.058333v3.175h-1.058333z" fill="#ff9f0a" opacity="0"/><path d="m.79391945 1.5937012c-.00312-.1140647.069765-.2117824.1612305-.2506307.0914659-.038848.21226175-.023336.29197175.058394l.6040975.6061646.00155-1.73942871c-.0010897-.07783791.0320027-.15345507.0842328-.20050426.0522303-.04704919.1169447-.06769613.1798341-.06769613.062889 0 .1276038.02064694.1798341.06769613.05223.04704919.085322.12266635.084232.20050456l-.0015606 1.73839521.6030638-.6040975c.054109-.056463.1315156-.087328.2020549-.083716.070539.00361.1311722.035462.1757.080098.044528.044636.075475.1047413.079065.1751831.00359.070442-.026867.1478063-.083199.2020549l.00206-.00155-1.0335287 1.035079-.010335.010851.00827-.00982c-.1045008.1328869-.314263.1326765-.4170266-.0020628l.011369.01292-1.04333395-1.045933c-.0489902-.0479846-.0776793-.1133953-.0795816-.1819014zm2.37866605-.00827v.000516c.00842-.00811.00293-.00183.0031.00155.0001524.00299-.0006615.0003387-.00259-.00207-.0002514-.0003148-.0001969.0003202-.0005292 0z" fill="#3a3a38" stroke-width=".264583"/></svg>