<svg viewBox="0 0 16 16" xmlns="http://www.w3.org/2000/svg">/&amp;gt;<path d="m6.5.5c-.980526 0-2 .7957894-2 1.7763157 0 .612829.527473 1.2043637 1 1.523684v.7524572h-4.2105262c-.43736839 0-.78947374.3521053-.78947374.7894737v3.3365233c.32553995-.4085057.81901304-.678454 1.38157894-.678454.9805263 0 1.7763158.7957895 1.7763158 1.7763158s-.7957895 1.7763163-1.7763158 1.7763163c-.5625659 0-1.05603899-.269948-1.38157894-.678454v3.836348c0 .437369.35210535.789474.78947374.789474h3.7105262c-.408505-.32554-.776316-.819013-.776316-1.381579 0-.980526.79579-1.776315 1.776316-1.776315.980527 0 1.776316.795789 1.776316 1.776315 0 .562566-.36781 1.056039-.776316 1.381579h3.705263c.437368 0 .794737-.352105.794737-.789474v-4.223684h.755757c.31932.472528.215751 1.054122 1.744243 1.054122.980527 0 1.5-.855619 1.5-2.0409644 0-1.1853455-.519473-1.9891565-1.5-1.9891565-1.528492 0-1.424923.5297868-1.744243 1.0023144h-.755757v-3.1712269c0-.4373684-.357369-.7894737-.794737-.7894737h-3.205263v-.7524572c.472528-.3193203 1-.910855 1-1.523684 0-.9805263-1.019473-1.7763157-2-1.7763157z" fill="#4d82b8" stroke="#4d82b8" stroke-linecap="round" stroke-linejoin="round"/></svg>