<svg viewBox="0 0 16 16" xmlns="http://www.w3.org/2000/svg"><path d="m2 0c-.554 0-1 .446-1 1v11c0 .554.446 1 1 1h8c.554 0 1-.446 1-1v-11c0-.554-.446-1-1-1zm0 1h8v11h-8z" fill="#808080"/><path d="m2 1h8v11h-8z" fill="#fff"/><path d="m6 3c-.554 0-1 .446-1 1v11c0 .554.446 1 1 1h7a1.0001 1.0001 0 0 1 -1-1h-6v-11h8v1c.363969 0 .703481.1077387 1 .2832031v-1.2832031c0-.554-.446-1-1-1z" fill="#808080"/><path d="m6 4v11h6v-6a1.0001 1.0001 0 0 1 .482422-.8535156c-.252344-.3348084-.482422-.7024035-.482422-1.1464844 0-1.0907028.909297-2 2-2v-1z" fill="#fff"/><g fill="#4d82b8"><path d="m13 9h2v6h-2z"/><rect height="2" ry="1" width="2" x="13" y="6"/></g></svg>