<svg viewBox="0 0 16 16" xmlns="http://www.w3.org/2000/svg"><g fill="#4d82b8"><path d="m0 3h15v1h-15z"/><g transform="scale(-1 1)"><path d="m-3 6h3v1h-3z"/><path d="m-7 6h3v1h-3z"/><path d="m-15 6h3v1h-3z"/><path d="m-11 6h3v1h-3z"/><path d="m-5 9h5v1h-5z"/><path d="m-9 9h2.000002v1h-2.000002z"/><path d="m-15 9h4v1h-4z"/><path d="m-2.000002 12h2.000002v1h-2.000002z"/><path d="m-6.000002 12h2.000002v1h-2.000002z"/><path d="m-10.000002 12h2.000002v1h-2.000002z"/><path d="m-14.000002 12h2.000002v1h-2.000002z"/></g></g></svg>