<svg viewBox="0 0 16 16" xmlns="http://www.w3.org/2000/svg"><path d="m1 1v14h5v-5c0-.554.446-1 1-1h1v-1h3v-7z" fill="#fff"/><path d="m1 0c-.554 0-1 .446-1 1v14c0 .554.446 1 1 1h6c-.554 0-1-.446-1-1h-5v-14h10v7h1v-7c0-.554-.446-1-1-1z" fill="#808080"/><path d="m8 11h7v3h-7z" fill="#fff"/><path d="m9 9v1h-1c-.554 0-1 .446-1 1v3c0 .554.446 1 1 1h1v1h1 3 1v-1h1c.554 0 1-.446 1-1v-3c0-.554-.446-1-1-1h-1v-1zm-1 2h1 5 1v3h-7zm4.476562 1c-.263719 0-.476562.212843-.476562.476562v.04688c0 .263715.212843.476558.476562.476558h1.046876c.263719 0 .476562-.212843.476562-.476562v-.04688c0-.263715-.212843-.476558-.476562-.476558z" fill="#4d82b8"/></svg>