<svg viewBox="0 0 16 16" xmlns="http://www.w3.org/2000/svg">/&gt;<path d="m6 0v1h5v14h-10v-9h-1v9c0 .554.446 1 1 1h10c.554 0 1-.446 1-1v-14c0-.554-.446-1-1-1z" fill="#808080"/><path d="m6 1v4c0 .554-.446 1-1 1h-4v9h10v-14z" fill="#fff"/><path d="m6 4v1h9v8h-12v-7h-1v7c0 .554.446 1 1 1h12c.554 0 1-.446 1-1v-8c0-.554-.446-1-1-1z" fill="#4d82b8"/><path d="m6 5c0 .554-.446 1-1 1h-2v7h12v-8z" fill="#fff"/><g fill="#4d82b8"><path d="m11 6h3v3h-3z"/><path d="m4 9h6v1h-6z"/><path d="m5 11h4v1h-4z"/></g><g fill="#eac282"><rect height="1" ry=".5" width="3"/><rect height="3" rx=".5" width="1"/><path d="m.4999293 4.5 4-4v4z" fill-rule="evenodd" stroke="#eac282" stroke-linecap="round" stroke-linejoin="round"/></g></svg>