<svg viewBox="0 0 16 16" xmlns="http://www.w3.org/2000/svg">
 <path
   style="fill:#ffffff"
   d="M 1 2 L 1 13 L 8.5859375 13 L 15 6.5859375 L 15 2 L 1 2 z "
   />
<path
   style="fill:#4d82b8"
   d="M 0 1 L 0 14 L 7.5859375 14 L 8.5859375 13 L 1 13 L 1 2 L 15 2 L 15 6.5859375 L 15.292969 6.2929688 L 16 5.5859375 L 16 1 L 0 1 z M 2 8 L 2 9 L 3 9 L 3 8 L 2 8 z M 4 8 L 4 9 L 12.585938 9 L 13.585938 8 L 4 8 z M 2 10 L 2 11 L 3 11 L 3 10 L 2 10 z M 4 10 L 4 11 L 10.585938 11 L 11.585938 10 L 4 10 z "
   />
<path
   style="fill:#eac282"
   d="M 2,4 V 6 H 14 V 4 Z"
   />
<path
   d="m16 7-9 9h9zm-1 2.7736083v.9763917 4.25h-4.25-.952422z"
   fill="#4d82b8"
   />
</svg>
