<svg viewBox="0 0 16 16" xmlns="http://www.w3.org/2000/svg">
  <path
     style="fill:#696969"
     d="M 4.7089844 2 C 4.3178988 2 3.9546666 2.0690264 3.6210938 2.2089844 C 3.2932719 2.343344 3.0091309 2.5393522 2.7675781 2.796875 C 2.5260253 3.0543977 2.337249 3.366578 2.1992188 3.7304688 C 2.0669398 4.0943596 2 4.5016142 2 4.9550781 C 2 5.3917471 2.0669399 5.790145 2.1992188 6.1484375 C 2.337249 6.50673 2.5260253 6.8125287 2.7675781 7.0644531 C 3.0091309 7.3163775 3.293272 7.5123857 3.6210938 7.6523438 C 3.9546667 7.7867033 4.3178988 7.8535156 4.7089844 7.8535156 C 5.0655624 7.8535156 5.4085065 7.7867033 5.7363281 7.6523438 C 6.0641499 7.5123856 6.3503523 7.3163775 6.5976562 7.0644531 C 6.8507118 6.8125287 7.0516392 6.50673 7.2011719 6.1484375 C 7.3507046 5.790145 7.4257813 5.3917471 7.4257812 4.9550781 C 7.4257814 4.5016142 7.3567802 4.0943596 7.21875 3.7304688 C 7.0864711 3.3665779 6.899756 3.0543977 6.6582031 2.796875 C 6.4166503 2.5393522 6.1284949 2.343344 5.7949219 2.2089844 C 5.4613489 2.0690264 5.1000699 2 4.7089844 2 z M 11.601562 2.1171875 C 11.342757 2.1171875 11.121541 2.1795714 10.9375 2.3027344 C 10.759211 2.4202991 10.598859 2.5905203 10.455078 2.8144531 L 3.1132812 13.857422 L 4.0449219 13.857422 C 4.2749721 13.857422 4.4758998 13.814443 4.6484375 13.730469 C 4.8267266 13.646494 4.9910923 13.487083 5.140625 13.251953 L 12.542969 2.1171875 L 11.601562 2.1171875 z M 4.7089844 3.3691406 C 4.8527658 3.3691406 4.9887068 3.3971418 5.1152344 3.453125 C 5.2417621 3.5035099 5.3493861 3.5897276 5.4414062 3.7128906 C 5.5334264 3.8360536 5.6064418 3.9976792 5.6582031 4.1992188 C 5.7099645 4.4007582 5.7363281 4.6527688 5.7363281 4.9550781 C 5.7363281 5.2461908 5.7099645 5.4896057 5.6582031 5.6855469 C 5.6064418 5.8814881 5.5334264 6.0386852 5.4414062 6.15625 C 5.3493861 6.2738147 5.2417621 6.3578181 5.1152344 6.4082031 C 4.9887068 6.4585885 4.8527658 6.484375 4.7089844 6.484375 C 4.5594516 6.484375 4.4235108 6.4585885 4.3027344 6.4082031 C 4.181958 6.3578182 4.0763951 6.2738147 3.984375 6.15625 C 3.8923549 6.0386852 3.8193395 5.8814881 3.7675781 5.6855469 C 3.7215681 5.4896057 3.6992187 5.2461908 3.6992188 4.9550781 C 3.6992187 4.6527688 3.7215681 4.4007582 3.7675781 4.1992188 C 3.8193395 3.9976792 3.8923549 3.8360536 3.984375 3.7128906 C 4.0763951 3.589728 4.181958 3.5035103 4.3027344 3.453125 C 4.4235108 3.3971417 4.5594516 3.3691406 4.7089844 3.3691406 z M 11.273438 8.1386719 C 10.882352 8.1386719 10.523136 8.2076983 10.195312 8.3476562 C 9.8674918 8.4820161 9.5833497 8.6780241 9.3417969 8.9355469 C 9.1002441 9.1930696 8.9095146 9.5052496 8.7714844 9.8691406 C 8.6392054 10.233031 8.5742187 10.640286 8.5742188 11.09375 C 8.5742188 11.530419 8.6392054 11.928817 8.7714844 12.287109 C 8.9095146 12.645402 9.1002441 12.953414 9.3417969 13.210938 C 9.5833497 13.462862 9.8674918 13.658871 10.195312 13.798828 C 10.523136 13.933188 10.882352 14 11.273438 14 C 11.635767 14 11.980772 13.933188 12.308594 13.798828 C 12.636415 13.658871 12.92457 13.462862 13.171875 13.210938 C 13.42493 12.953414 13.625858 12.645402 13.775391 12.287109 C 13.924923 11.928817 14 11.530419 14 11.09375 C 14 10.640286 13.930999 10.233031 13.792969 9.8691406 C 13.660689 9.5052496 13.473975 9.1930696 13.232422 8.9355469 C 12.990869 8.6780241 12.702714 8.4820161 12.369141 8.3476562 C 12.035568 8.2076983 11.670273 8.1386719 11.273438 8.1386719 z M 11.273438 9.515625 C 11.417219 9.515625 11.553159 9.543626 11.679688 9.5996094 C 11.806216 9.6499943 11.915793 9.736212 12.007812 9.859375 C 12.105586 9.9825375 12.180662 10.146116 12.232422 10.347656 C 12.284182 10.549196 12.308594 10.797039 12.308594 11.09375 C 12.308594 11.384863 12.284182 11.628277 12.232422 11.824219 C 12.180661 12.02016 12.105585 12.177357 12.007812 12.294922 C 11.915793 12.412485 11.806214 12.496488 11.679688 12.546875 C 11.553159 12.597262 11.417219 12.623047 11.273438 12.623047 C 11.129655 12.623047 10.997729 12.597262 10.876953 12.546875 C 10.756176 12.49649 10.650614 12.412486 10.558594 12.294922 C 10.472324 12.177357 10.403323 12.02016 10.351562 11.824219 C 10.299803 11.628277 10.273438 11.384863 10.273438 11.09375 C 10.273438 10.797039 10.299803 10.549196 10.351562 10.347656 C 10.403324 10.146116 10.472324 9.9825375 10.558594 9.859375 C 10.650614 9.7362124 10.756176 9.6499947 10.876953 9.5996094 C 10.997729 9.543626 11.129656 9.515625 11.273438 9.515625 z "
     />
</svg>
