<svg viewBox="0 0 16 16" xmlns="http://www.w3.org/2000/svg"><path d="m7.0566406 0a1.0001 1.0001 0 0 0 -.9414062.66015625l-5.0566406 13.99999975a1.0001 1.0001 0 0 0 .9414062 1.339844h1.4453125c.3497298 0 .7436596-.131292 1.0332031-.371094.2326689-.188889.4440795-.451569.5507813-.765625l.9082031-2.677734h1.2792969l1.0019531-1h-2.9980469l-1.1386719 3.355469c-.0410252.12075-.1200885.227972-.2363281.320312-.1094016.092342-.2431257.138672-.4003906.138672h-1.4453125l5.0566406-14h1.8964844l2.535156 7.0332031c.002713-.0010859.005089-.0028436.007813-.0039062.050153-.1196995.123123-.2284935.214844-.3203125l.533203-.53125-2.3496098-6.51757815a1.0001 1.0001 0 0 0 -.9414062-.66015625zm.9433594 2.8320312c-.068376.2699138-.1367021.5187979-.2050781.7460938-.0683762.2272957-.1337741.4271846-.1953125.5976562l-1.9082032 5.625h3.9121094l.5273434-.5253906-1.7304684-5.1113281c-.0683761-.1704719-.1367021-.3684073-.2050781-.5957031-.0683761-.2272958-.1337745-.4735172-.1953125-.7363282zm.0019531 3.2714844.9121094 2.6972656h-1.828125zm6.1152349 6.2675784-.78125.787109.664062 1.841797h-1.445312c-.164104 0-.297827-.04172-.400391-.126953-.091631-.08159-.162686-.185956-.216797-.306641l-.730469.734375c.081872.115959.176363.223228.283203.31836a1.0001 1.0001 0 0 0 .025391.023437c.307821.255804.70548.357422 1.039063.357422h1.445312a1.0001 1.0001 0 0 0 .941406-1.339844z" fill="#808080"/><path d="m7.0566406 1-5.0566406 14h1.4453125c.1572649 0 .290989-.04633.4003906-.138672.1162396-.09234.1953028-.199562.2363281-.320312l1.1386719-3.355469h2.9980469l1.3847656-1.3847658h-3.9121094l1.9082032-5.625c.0615384-.1704718.1269363-.3703605.1953125-.5976562.068376-.2272959.1367021-.47618.2050781-.7460938.061538.2628109.1269364.5090324.1953125.7363282.068376.2272958.136702.4252312.2050781.5957031l1.7304684 5.1113281 1.023438-1.0234375c.095352-.094851.209178-.1687903.333984-.21875l-2.535156-7.0332031zm6.2792974 12.158203-1.398438 1.408203c.054112.120685.125169.225055.216797.306641.102564.085235.236288.126953.400391.126953h1.445312z" fill="#fff"/><g fill="#eac282"><path d="m11.861005 8.958496-4.1469731 4.142578-.713379 2.898926 2.8549808-.758789 4.1323233-4.158692z"/><path d="m14.065594 7c-.142171 0-.283638.05379-.392578.1625977l-1.255371 1.2524416 2.135742 2.1372067 1.283203-1.229004c.21788-.2175952.21788-.5675602 0-.7851562l-1.376953-1.3754881c-.108941-.108798-.251871-.1625977-.394043-.1625977z"/></g></svg>