<svg viewBox="0 0 16 16" xmlns="http://www.w3.org/2000/svg">/&amp;amp;gt;<path d="m2 1v14h1v-8c.0000501-.503984.1680617-.8847927.4277344-1.2421875.2596726-.3573948.6769957-.7577447 1.3554687-.7578125h1.5c.4015486.0000773.7816154.1436504 1.0898438.390625l2.5195312 1.609375h2.1074219v-3.2949219l-2.6953125-2.7050781z" fill="#fafafa"/><path d="m2 0c-.554 0-1 .446-1 1v14c0 .554.446 1 1 1h1v-1h-1v-14h6v3.5c0 .277.223.5.5.5h3.5v2h1v-2.5-.8632812l-3.6367188-3.6367188h-.8632812zm7 1 3 3h-3z" fill="#3a3a38"/><g fill-rule="evenodd" transform="matrix(.75 0 0 .75 4 5.5)"><path d="m3.0451977.66666667c.265199.0000511.519519.1054325.707031.2929688l3.7138111 2.37369783h4.8672932c.552262.0000552.999945.4477379 1 1v8.3333337l-13.333333 1.333333v-12c.000055-.5522619.49293574-1.33327813 1.0451977-1.33333333z" fill="#ed8733"/><path d="m2.6666667 2 4 2.6666667h5.3333333v8.0000003h-10.6666667v-10.666667z" fill="#fafafa" stroke-width=".941243"/><path d="m0 14h1 12.151259l2.657335-7.0078125c.297854-.992847.298232-.9921875-.744141-.9921875h-1-1-9.0429686c-1.0211864 0-1.0208091-.0005516-1.2792969.9902344l-1.7421875 4.6757816z" fill="#ed8733"/><path d="m4.2567275 7.3368089-2.0086806 5.3298581h9.7519531l2-5.3333337z" fill="#f8db8f" stroke-width=".888889"/></g><g fill="#3a3a38"><path d="m0 2h1v1h-1z"/><path d="m3 2h1v1h-1z"/><path d="m0 5h1v1h-1z"/><path d="m3 5v1h.2949219c.0463931-.0795277.0772936-.1657754.1328125-.2421875.1386404-.1908147.3279956-.3892626.5722656-.5371094v-.2207031z"/><path d="m0 8h1v1h-1z"/><path d="m0 11h1v1h-1z"/><path d="m0 14h1v1h-1z"/></g></svg>