<svg viewBox="0 0 16 16" xmlns="http://www.w3.org/2000/svg"><path d="m.5.5c.00000407-.0000041-.00000164 1.3476292 0 1.8808594l1.8808594-1.8808594zm5.4882812 0c-.0056807.38176714-.1332614.7746051-.4277343 1.0625l-1.4335938 1.4335938 5.359375.0039062c.4201687-.0059422.8676559.1828049 1.1386719.484375s.382812.6661774.382812 1.015625c.000002.3494476-.111796.7140549-.382812 1.015625s-.7185032.4903172-1.1386719.484375l-5.3554687-.0039062 1.4238281 1.4238281c.3042275.2920961.4894856.7436353.46875 1.1503906s-.1994888.7444107-.4472656.9921875-.5854323.4265297-.9921875.447266c-.4067553.020735-.8582947-.1645229-1.1503906-.4687504l-2.9335938-2.9335937c-.00000313 2.4164819 0 4.8925781 0 4.8925781h3v4l4.5-4h7.5v-11z" fill="#fff"/><path d="m.5 0a.5.5 0 0 0 -.5.5.5.5 0 0 0 .0078125.08789062h-.0078125v2.29296878l1-1v-.8808594h.8808594l1-1zm5.4160156 0c.1061501.31197864.1003465.667643-.0175781 1h9.1015625v10h-7a.50005.50005 0 0 0 -.3320312.126953l-3.6679688 3.259766v-2.886719a.50005.50005 0 0 0 -.5-.5h-2.5v-3.8925781l-1-1v5.3925781a.50005.50005 0 0 0 .5.5h2.5v3.5a.50005.50005 0 0 0 .8320312.373047l4.3574219-3.873047h7.3105469a.50005.50005 0 0 0 .5-.5v-11a.50005.50005 0 0 0 -.5-.5z" fill="#eac282"/><path d="m4.4980468-.00976606a.50005.50005 0 0 0 -.34375.15039064l-3.95703124 3.95703122a.50005.50005 0 0 0 -.001953.7929688.50005.50005 0 0 0 .005859.00391l3.95312524 3.9531212a.50005.50005 0 1 0 .7070312-.7070312l-3.1464843-3.1464844 7.7851562.00586a.50005.50005 0 1 0 0-1l-7.7851562-.00586 3.1464843-3.14648437a.50005.50005 0 0 0 -.3632812-.85742189z" fill="#4d82b8" fill-rule="evenodd"/></svg>