<svg viewBox="0 0 16 16" xmlns="http://www.w3.org/2000/svg"><path d="m3 1v5.7070312l1.5058594 1.5136719 1.8710937-1.9179687c.3820843-.3928684 1.0091819-.4050618 1.40625-.0273438l.203125.1953125.2050781-.1953125c.3939618-.3746936 1.0150936-.3660185 1.3984376.0195313l1.9160152 1.9257812 1.494141-1.53125v-2.984375l-2.695312-2.7050781zm1.5117188 13.673828-.3085938.326172h.6171875zm7.0000002 0-.308594.326172h.617187z" fill="#fff"/><path d="m3 0c-.554 0-1 .446-1 1v5.0253906c.220675.0274052.4312562.1100161.5898438.2695313l.4101562.4121093v-5.7070312h6v3.5c0 .277.223.5.5.5h3.5v1.6894531l.376953-.3867187c.172054-.1769102.395004-.2654243.623047-.2871094v-1.515625-.8632812l-3.636719-3.6367188h-.863281zm7 1 3 3h-3zm-5.5 3c-.277 0-.5.223-.5.5s.223.5.5.5h3c.277 0 .5-.223.5-.5s-.223-.5-.5-.5zm-.296875 11-.9453125 1h1.7421875.7695312l-.9492187-1zm7 0-.945313 1h.742188 1.769531l-.949219-1z" fill="#808080"/><path d="m4.5 7c-.277 0-.5.223-.5.5s.223.5.5.5h.2207031l.9765625-1zm5.791016 0 .996093 1h.433594l.943359-.9667969c-.051862-.0181193-.105865-.0332031-.164062-.0332031z" fill="#d65532"/><path d="m1.8808594 7-1.8808594 1.7832031 2.6328125 2.7031249-2.6328125 2.660156 1.8808594 1.853516 2.6289062-2.779297 2.6367188 2.779297.8613281-.859375.8730469.859375 2.6289066-2.779297 2.636718 2.779297 1.853516-1.849609-2.605469-2.652344 2.507813-2.7773439-1.808594-1.7207031-2.580078 2.6464844-2.6328126-2.6464844-.8945313.8496094-.8925781-.8496094-2.5800781 2.6464844zm6.0761718 2.7675781 1.6757813 1.7187499-1.6308594 1.648438-1.6074219-1.636719z" fill="#e68497"/></svg>