<svg viewBox="0 0 16 16" xmlns="http://www.w3.org/2000/svg">/&gt;<path d="m7.9746094.63476562c-.6695323.00545837-5.9746756.75994108-6.9238282 1.39648438-.60979375.2578125-.2908594 1.4263771-.0507812 3.96875v7c-.12141545 1.574639 2.3886805 2.289949 5.3125 2.392578-.1718564-.224776-.3043681-.489142-.3203125-.8125-.0198408-.402383.1626645-.848333.4628906-1.136719l1.953125-1.93164-1.9609375-1.9628909c-.445463-.4352312-.5453114-1.1140313-.3378906-1.6230469.2074208-.5090153.7541662-.9258555 1.3769531-.9257812.402576.0000987.7886877.1635543 1.0683594.453125l3.0097655 3.011719c.573976.574176.571402 1.536507-.005859 2.107422l-.708985.703125c.21035-.114201.399391-.275391.650391-.275391h3.5v-10c.128583-1.6353383-3.45276-2.39436024-7.0253906-2.36523438zm2.3046876 13.20507838-1.5156251 1.5c.4823846-.035471.956681-.083065 1.4199221-.146485-.1131-.209551-.183594-.443664-.183594-.693359 0-.254737.161922-.44754.279297-.660156z" fill="#fff"/><path d="m8 0a8 3 0 0 0 -1.9492188.09570313 8 3 0 0 0 -.0507812.00390625 8 3 0 0 0 -6 2.90039062v3 7a8 3 0 0 0 7.2636719 2.984375c-.3349994-.052819-.6191332-.207763-.8320313-.421875-.1713696-.172346-.3052804-.390052-.3789062-.642578a7 2 0 0 1 -5.0527344-1.919922v-3.5488281a8 3 0 0 0 6.8964844 1.5468751l-1.0273438-1.0253908a7 2 0 0 1 -5.8691406-1.9726562v-2-1.5488281a8 3 0 0 0 4.5039062 1.3945312 8 3 0 0 0 .7695313.0800781 8 3 0 0 0 .6660156.0449219 8 3 0 0 0 .2832031.0117188 8 3 0 0 0 .4902344.0136719 8 3 0 0 0 .2871094.0039062 8 3 0 0 0 2.363281-.1347656 8 3 0 0 0 4.636719-1.4199219v3.5546875a7 2 0 0 1 -4.083984 1.8164062l.648437.6484378c.057749.057769.104313.122667.150391.1875a8 3 0 0 0 3.285156-1.2070315v3.5546875h.5c.172098 0 .336775.035685.492188.091797a8 3 0 0 0 .007812-.091797v-5-5a8 3 0 0 0 -8-3zm0 1a7 2 0 0 1 7 2 7 2 0 0 1 -7 2 7 2 0 0 1 -.6992188-.0097656 7 2 0 0 1 -1.1328124-.0625 7 2 0 0 1 -.1679688-.0117188 7 2 0 0 1 -5-1.9160156 7 2 0 0 1 5-1.9160156 7 2 0 0 1 .0214844-.0019532 7 2 0 0 1 .5898437-.0410156 7 2 0 0 1 .0683594-.0039062 7 2 0 0 1 .0195313 0 7 2 0 0 1 .3808593-.0175782 7 2 0 0 1 .4082031-.0136718 7 2 0 0 1 .015625 0 7 2 0 0 1 .4960938-.0058594zm2.066406 13.908203a7 2 0 0 1 -.9316404.064453l-.5839844.578125c-.2415762.248652-.5909935.407302-.9335937.44336a8 3 0 0 0 .3828125.005859 8 3 0 0 0 2.789062-.191406c-.346303-.192601-.609268-.516023-.722656-.900391z" fill="#808080"/><rect fill="#4d82b8" height="1" ry=".5" width="5" x="11" y="14"/><path d="m7.4910602 14.508916 3.0227978-2.992483-3.0227978-3.0251877" fill="none" stroke="#4d82b8" stroke-linecap="round" stroke-linejoin="round" stroke-width=".972324"/></svg>