<svg viewBox="0 0 16 16" xmlns="http://www.w3.org/2000/svg"><path d="m0 1v1 2 10c0 .554.446 1 1 1h8.8886719l-.9980469-1h-7.890625v-10h14v7.080078c.191234-.07263.393805-.112032.585938-.101562.148946.0081.285042.04355.414062.08984v-7.068356-2-1h-1-14z" fill="#3a3a38"/><path d="m1 4v10h7.890625l-.4394531-.439453c-.4492692-.439706-.5492539-1.125091-.3398438-1.638672.2089748-.512514.7577617-.931694 1.3847657-.933594h.0019531c.4044682-.001027.7933151.161987 1.0761721.451172l.425781.425781v-4.3613278c-.009562-.8144061.662201-1.5048289 1.476562-1.5175781.831522-.0129661 1.533238.6860137 1.523438 1.5175781v4.3730468l.433594-.433594c.154486-.159409.353408-.28239.566406-.363281v-7.080078z" fill="#fafafa"/><g fill="none" stroke="#1e8bcd" stroke-linecap="round" stroke-linejoin="round" transform="matrix(0 1 -1 0 25 -.014242)"><path d="m12.507121 15.494954 3-2.99495-3-3.00505"/><path d="m15.507121 12.500004h-8"/></g><path d="m12.492188 6.9863281a.50005.50005 0 0 0 -.492188.5058594v6.7910155l-2.140625-2.144531a.50005.50005 0 0 0 -.359375-.150391.50005.50005 0 0 0 -.3496094.857422l2.9531254 2.957031a.50005.50005 0 0 0 .792968.001954l2.960938-2.957032a.50005.50005 0 1 0 -.705078-.708984l-2.152344 2.148437v-6.7949215a.50005.50005 0 0 0 -.507812-.5058594z" fill="#1e8bcd"/><path d="m4 6c-.554 0-1 .446-1 1v1c0 .554.446 1 1 1h1c.554 0 1-.446 1-1v-1c0-.554-.446-1-1-1zm4.5 0c-.277 0-.5.223-.5.5s.223.5.5.5h2.611328c.213745-.5560976.762973-.9905713 1.365234-1zm3.976562 0c.015809-.0002465.031124.0035706.046876.0039062-.008157-.0003917-.015181-.0039062-.023438-.0039062zm-8.476562 1h1v1h-1zm4.5 1c-.277 0-.5.223-.5.5s.223.5.5.5h2.513672v-1zm-4.5 2c-.554 0-1 .446-1 1v1c0 .554.446 1 1 1h1c.554 0 1-.446 1-1v-1c0-.554-.446-1-1-1zm4.5 0c-.277 0-.5.223-.5.5s.223.5.5.5h2.513672v-1zm-4.5 1h1v1h-1zm4.0253906 1.375c-.0107378.040885-.0253906.080653-.0253906.125 0 .07435.018011.14373.046875.207031-.016995-.110266-.0285976-.220945-.0214844-.332031z" fill="#797774"/><path d="m0 1h16v4h-16z" fill="#3a3a38"/><path d="m1 2h14v2h-14z" fill="#797774" stroke-width=".661438"/></svg>