<svg viewBox="0 0 16 16" xmlns="http://www.w3.org/2000/svg"><path d="m13.396484.97851562c-.127521-.0046362-.259313.00150408-.396484.02148438h-.691406-.308594-8v.0175781c-.533997.1270199-.8266138.4947912-1 .9824219v10.263672c-1.125-.227372-2.03110921.66286-2.01953125 1.488281.00900508.641994.57353795 1.244503 2.01953125 1.248047h4.2636719a5.5 5.5 0 0 1 -1.2636719-3.5 5.5 5.5 0 0 1 5.5-5.5 5.5 5.5 0 0 1 1.392578.1855469c-.066595-.9159288-.074082-1.7666121.107422-2.4394531 3.050204-.034085 2.309305-2.698035.396484-2.76757818z" fill="#fff"/><path d="m4.25 0c-1.3070984 0-2.25 1.1080036-2.25 2.375v1.875 7.197266c-1.07146171.240703-2 1.02521-2 2.177734 0 1.346001 1.1942339 2.375 2.5 2.375h5.84375a5.5 5.5 0 0 1 -1.0800781-1h-4.7636719c-.7653589 0-1.5-.649877-1.5-1.375 0-.725124.7346407-1.375 1.5-1.375h.5v-8-1.875c0-.8105224.4795984-1.375 1.25-1.375h9.25c.76536 0 1.5.6498765 1.5 1.375s-.73464 1.375-1.5 1.375h-.5v2.4648438a5.5 5.5 0 0 1 1 .3925781v-2.0546875c1.071462-.2407031 2-1.0252107 2-2.1777344 0-1.3460015-1.194234-2.375-2.5-2.375z" fill="#808080"/><path d="m11.5 7a4.5 4.5 0 0 0 -4.5 4.5 4.5 4.5 0 0 0 4.5 4.5 4.5 4.5 0 0 0 4.5-4.5 4.5 4.5 0 0 0 -4.5-4.5zm0 1a3.5 3.5 0 0 1 3.5 3.5 3.5 3.5 0 0 1 -3.5 3.5 3.5 3.5 0 0 1 -3.5-3.5 3.5 3.5 0 0 1 3.5-3.5z" fill="#d65532"/><circle cx="11.5" cy="11.5" fill="#fff" r="3.5"/><circle cx="11.5" cy="11.5" fill="#d65532" r="2.5"/></svg>