<svg viewBox="0 0 16 16" xmlns="http://www.w3.org/2000/svg"><path d="m1 2v12h6.5859375l7.4140625-7.4140625v-4.5859375z" fill="#fff"/><path d="m0 5v9c0 .554.446 1 1 1h5.5859375l1-1h-6.5859375v-9zm15 0v1.5859375l.292969-.2929687c.180274-.1805262.422724-.2853288.677734-.2929688.010403-.0003038.018963.0058459.029297.0058594v-1.0058594z" fill="#808080"/><g fill="#4d82b8"><path d="m0 1v4h16v-4zm1 1h14v2h-14z"/><path d="m16 7-9 9h9zm-1 2.7736083v.9763917 4.25h-4.25-.952422z" fill-rule="evenodd"/></g></svg>