<svg viewBox="0 0 16 16" xmlns="http://www.w3.org/2000/svg">/&gt;<path d="m8 0a4 4 0 0 0 -4 4h1a3 3 0 0 1 3-3 3 3 0 0 1 3 3v4h-6-1-2c-.554 0-1 .446-1 1v6c0 .554.446 1 1 1h4.0039062c.0003004-.078705.0052092-.158659.0253907-.240234l.1875-.759766h-4.2167969v-6h8.40625l.748047-.7480469c.097425-.0969128.213778-.1727082.341797-.2226562.050153-.1196995.123123-.2284935.214844-.3203125l.289062-.2890625v-3.4199219a4 4 0 0 0 -4-4zm7 11.425781c-.03517.017842-.062417.048884-.099609.0625-.049003.111116-.117835.212378-.203125.298828l-.697266.701172v2.511719h-2.494141l-.941406.947266c-.020517.020642-.046233.034045-.068359.052734h3.503906c.554 0 1-.446 1-1z" fill="#808080"/><path d="m2 9v6h4.2167969l.5273437-2.138672c.04377-.176696.1349364-.338094.2636719-.466797l3.3984375-3.394531zm12 3.488281-2.494141 2.511719h2.494141z" fill="#fff"/><g fill="#eac282"><path d="m11.861005 8.958496-4.1469731 4.142578-.713379 2.898926 2.8549808-.758789 4.1323233-4.158692z"/><path d="m14.065594 7c-.142171 0-.283638.05379-.392578.1625977l-1.255371 1.2524416 2.135742 2.1372067 1.283203-1.229004c.21788-.2175952.21788-.5675602 0-.7851562l-1.376953-1.3754881c-.108941-.108798-.251871-.1625977-.394043-.1625977z"/></g></svg>