<svg viewBox="0 0 16 16" xmlns="http://www.w3.org/2000/svg">

     /&amp;gt;
 <g fill="#808080"><rect height="1" ry=".5" width="14" x="1" y="15"/><path d="m2 0v7.8378906c0 .8820118.1394388 1.6987354.4179688 2.4492184.2785299.750484.6769373 1.399896 1.1953124 1.949219.5183753.549323 1.1458498.981614 1.8808594 1.298828.7427466.309478 1.5774261.464844 2.5058594.464844s1.7631126-.155366 2.505859-.464844c.742747-.317214 1.370222-.749505 1.88086-1.298828.518375-.549323.916782-1.198735 1.195312-1.949219.27853-.750483.417969-1.5672066.417969-2.4492184v-7.8378906h-2v7.8378906c0 .6344291-.200957 1.2141217-.378906 1.7402344-.170214.526112-.421219.982293-.753906 1.369141-.332689.37911-.743042.677896-1.2304692.894531-.4796906.208897-1.0255003.3125-1.6367188.3125s-1.16101-.103603-1.6484375-.3125c-.4796905-.216635-.8860615-.515421-1.21875-.894531-.3326886-.386848-.5876753-.843029-.765625-1.369141-.1702128-.5338493-.3624828-1.1175412-.3671875-1.7519531v-7.8261719z"/></g></svg>