<svg height="10" viewBox="0 0 5.8208331 2.6458334" width="22" xmlns="http://www.w3.org/2000/svg"><g fill="#2e3436" stroke-width=".132291"><path d="m3.3072916 0c-.2175802 0-.396875.1792949-.396875.396875l.0000001 1.8520833c0 .2175801.1792948.396875.396875.396875h1.3229166c.2175803 0 .3968751-.1792949.396875-.396875v-1.6536458c-.0000068-.0350836-.013948-.068728-.038757-.0935342l-.4630211-.4630208c-.0248063-.02480956-.0584508-.03875072-.0935344-.0387575zm0 .2645833.9260417.00000005v.26458333c.0000001.1322917.1322919.26458333.2645834.26458333h.2645833v1.45520829c0 .075578-.056714.1322917-.1322917.1322917h-1.3229166c-.075578 0-.1322916-.056714-.1322916-.1322917l-.0000001-1.8520833c0-.075578.056714-.1322917.1322916-.1322917z"/><path d="m2.5135416.00000003c.2175802 0 .396875.1792949.396875.396875l-.0000001 1.85208327c0 .2175801-.1792948.396875-.396875.396875h-1.3229166c-.21758025 0-.39687505-.1792949-.39687495-.396875v-1.65364577c.0000068-.0350836.013948-.068728.038757-.0935342l.46302105-.4630208c.0248063-.02480956.0584508-.03875072.0935344-.0387575zm0 .2645833-.9260417.00000005v.26458333c-.0000001.1322917-.1322919.26458333-.2645834.26458333h-.2645833v1.45520826c0 .075578.056714.1322917.1322917.1322917h1.3229166c.075578 0 .1322916-.056714.1322916-.1322917l.0000001-1.85208327c0-.075578-.056714-.1322917-.1322916-.1322917z"/></g></svg>