<svg xmlns="http://www.w3.org/2000/svg" viewBox="0 0 16 16">
 <path
     style="fill:#555753"
     d="M 1 1 L 1 3 L 1 5 L 1 6 L 1 8 L 1 9 L 1 11 L 1 12 L 1 14 L 1 15 L 15 15 L 15 14 L 15 9 L 15 8 L 15 2 L 15 1 L 1 1 z M 2 3 L 5 3 L 5 5 L 2 5 L 2 3 z M 6 3 L 10 3 L 10 5 L 6 5 L 6 3 z M 11 3 L 14 3 L 14 5 L 11 5 L 11 3 z M 2 6 L 5 6 L 5 8 L 2 8 L 2 6 z M 6 6 L 10 6 L 10 8 L 6 8 L 6 6 z M 11 6 L 14 6 L 14 8 L 11 8 L 11 6 z M 2 9 L 5 9 L 5 11 L 2 11 L 2 9 z M 6 9 L 10 9 L 10 11 L 6 11 L 6 9 z M 11 9 L 14 9 L 14 11 L 11 11 L 11 9 z M 2 12 L 5 12 L 5 14 L 2 14 L 2 12 z M 6 12 L 10 12 L 10 14 L 6 14 L 6 12 z M 11 12 L 14 12 L 14 14 L 11 14 L 11 12 z "
     />
 <path
     style="fill:#555753;opacity:0.35"
     d="M 2 3 L 2 5 L 5 5 L 5 3 L 2 3 z M 6 3 L 6 5 L 10 5 L 10 3 L 6 3 z M 11 3 L 11 5 L 14 5 L 14 3 L 11 3 z M 2 9 L 2 11 L 5 11 L 5 9 L 2 9 z M 6 9 L 6 11 L 10 11 L 10 9 L 6 9 z M 11 9 L 11 11 L 14 11 L 14 9 L 11 9 z "
     />
 </svg>
