<svg height="16" viewBox="0 0 32 16" width="32" xmlns="http://www.w3.org/2000/svg"><g fill="#2e3436"><path d="m15.75 0v1.25h2.5v7.5h-2.5v1.25h6.25v-1.25h-2.5v-7.5h2.5v-1.25z" stroke-width=".625" transform="matrix(1.6 0 0 1.6 -4.2 0)"/><path d="m10 3c-1.661998 0-3 1.3380017-3 3v4c0 1.661998 1.338002 3 3 3h3c1.661998 0 3-1.338002 3-3v-4c0-1.6619983-1.338002-3-3-3zm0 2h3c.588593 0 1 .4114061 1 1v4c0 .588593-.411407 1-1 1h-3c-.588594 0-1-.411407-1-1v-4c0-.5885939.411406-1 1-1z"/><path d="m4.9980472 4.0039062c.255922 0 .511769.09771.707031.2929688.390524.3905218.390524 1.0235417 0 1.4140625l-1.291016 1.2890625h3.585938a1 1 0 0 1 1 1 1 1 0 0 1 -1 1h-3-.585938l1.291016 1.289062c.390524.390521.390524 1.023541 0 1.414063-.195262.195258-.451109.292969-.707031.292969s-.51177-.09771-.707031-.292969l-2.2910162-2.2890625-.671875-.6738281-.025391-.0234375c-.193539-.1882644-.30273-.4467938-.302734-.7167969.000004-.2700031.109195-.5285325.302734-.7167969l.025391-.0234375.671875-.6738281 2.2910162-2.2890625c.195261-.1952614.451109-.2929688.707031-.2929688z"/><path d="m18.001953 4.0039062c-.255922 0-.511769.09771-.707031.2929688-.390524.3905218-.390524 1.0235417 0 1.4140625l1.291016 1.2890625h-3.585938a1 1 0 0 0 -1 1 1 1 0 0 0 1 1h3 .585938l-1.291016 1.289062c-.390524.390521-.390524 1.023541 0 1.414063.195262.195258.451109.292969.707031.292969s.51177-.09771.707031-.292969l2.291016-2.2890625.671875-.6738281.025391-.0234375c.193539-.1882644.30273-.4467938.302734-.7167969-.000004-.2700031-.109195-.5285325-.302734-.7167969l-.025391-.0234375-.671875-.6738281-2.291016-2.2890625c-.195261-.1952614-.451109-.2929688-.707031-.2929688z"/></g></svg>