<svg viewBox="0 0 22 10" xmlns="http://www.w3.org/2000/svg"><path d="m16 0v2h2v6h-2v2h6v-2h-2v-6h2v-2zm-2.785156.99804688c-.068724-.01016784-.140949-.01087575-.214844.00195312h-.599609-.400391v1c0 .26.100781.4992188.300781.6992188l1.59961 1.3007812h-1.900391v2h1.900391l-1.59961 1.3007812c-.2.2000001-.300781.4392188-.300781.6992188v1h.400391.599609c.3 0 .55-.1007812.75-.3007812l3.25-2.6992188v-2c-1-.9-2.23-1.9992187-3.25-2.6992188-.14826-.1499999-.328984-.2722308-.535156-.30273432zm-9.214844.00195312c-.3 0-.55232.1007813-.75.3007812-1.02.7000001-2.25 1.7992188-3.25 2.6992188v2l3.25 2.6992188c.2.2.45.3007812.75.3007812h.5996094.4003906v-1c0-.26-.1007812-.4992187-.3007812-.6992188l-1.5996094-1.3007812h1.9003906v-2h-1.9003906l1.5996094-1.3007812c.1999999-.2.3007812-.4392188.3007812-.6992188v-1h-.4003906zm2 1v6h5v-6zm2 2h1v2h-1z" fill="#555753"/></svg>