<svg height="22" viewBox="0 0 22 22" width="22" xmlns="http://www.w3.org/2000/svg"><g fill="#2e3436"><path d="m15.239876 15.245405c-2.005397 2.003983-5.158061 2.327102-7.5295772.773398-2.1649344-1.417975-3.0731565-4.048087-2.4417313-6.5048378l-.6338717-.6367002a1.0001 1.0001 0 0 1 .00138-1.4128347l2.8284257-2.8284268a1.0001 1.0001 0 0 1 1.4128347-.00138l.638086.6352577c2.4572658-.6298915 5.0882828.2812581 6.5048308 2.4472538 1.552007 2.3730569 1.2256 5.5242149-.780307 7.5281979zm-1.414214-1.414214c1.344245-1.342958 1.560825-3.42975.520664-5.0201823-1.039893-1.590064-3.037095-2.2281925-4.8061204-1.5357511a1.0001 1.0001 0 0 1 -1.0703256-.222349l-.2969283-.2969283-1.416971 1.416971.2955495.2955494a1.0001 1.0001 0 0 1 .222349 1.0703256c-.693693 1.7685657-.056385 3.7678897 1.532987 4.8088857 1.5893918 1.041285 3.6747208.826268 5.0187958-.516521zm-9.8967295-7.0738321-.7071068-.7071068c-.3917372-.3917372-.3917372-1.0224764-.0000003-1.4142133l1.4142136-1.4142135c.3917371-.3917372 1.0224764-.3917372 1.4142135 0l.7071068.7071067z"/><path d="m10.645748 12.561352a.5.5 0 0 1 -.499952-.499952v-1.414213a.50005.50005 0 0 1 .499953-.499953l1.414213-.000001a.5.5 0 0 1 .499952.499953.5.5 0 0 1 -.499952.499953l-.914268-.000007.000007.914268a.5.5 0 0 1 -.499953.499952z" fill-opacity=".35"/></g></svg>