<svg xmlns="http://www.w3.org/2000/svg" viewBox="0 0 117 92">
  <circle
     style="opacity:0.35;fill:#555753"
     cx="7.5"
     cy="75.5"
     r="3.5" />
  <path
     style="opacity:0.35;fill:#555753"
     d="M 19.5 68 A 3.5 3.5 0 0 0 16 71.5 A 3.5 3.5 0 0 0 19.5 75 A 3.5 3.5 0 0 0 23 71.5 A 3.5 3.5 0 0 0 19.5 68 z M 19.5 77 A 3.5 3.5 0 0 0 16 80.5 A 3.5 3.5 0 0 0 19.5 84 A 3.5 3.5 0 0 0 23 80.5 A 3.5 3.5 0 0 0 19.5 77 z "
     />
  <path
     d="m25 68h22v22h-22z"
     style="opacity:0.35;fill:#555753"
     />
  <path
     style="fill:#555753"
     d="M 49 68 L 49 90 L 71 90 L 71 68 L 49 68 z M 60 70 A 3 3 0 0 1 63 73 A 3 3 0 0 1 61 75.824219 L 61 77 L 64 77 L 64 79 L 61 79 L 61 86 C 62.94 85.725871 64.84 84.64991 66 83.2 L 65 82.691406 L 66 80.691406 L 70 82.691406 L 69 84.691406 L 67.763672 84.046875 C 66.04 86.399378 63.137441 88.191406 60 88.191406 C 56.862559 88.191406 53.955391 86.399378 52.236328 84.046875 L 51 84.691406 L 50 82.691406 L 54 80.691406 L 55 82.691406 L 54 83.2 C 55.163334 84.64991 57.064161 85.725871 59 86 L 59 79 L 56 79 L 56 77 L 59 77 L 59 75.826172 A 3 3 0 0 1 57 73 A 3 3 0 0 1 60 70 z M 60 72 A 1 1 0 0 0 59 73 A 1 1 0 0 0 60 74 A 1 1 0 0 0 61 73 A 1 1 0 0 0 60 72 z "
     />
  <rect
     style="opacity:0.35;fill:#555753"
     width="7"
     height="7"
     x="90"
     y="55" />
  <rect
     style="opacity:0.35;fill:#555753"
     width="9"
     height="9"
     x="97"
     y="55" />
  <rect
     style="opacity:0.35;fill:#555753"
     width="11"
     height="11"
     x="106"
     y="55" />
  <path
     style="opacity:0.35;fill:#555753"
     d="m 0,55 h 7 v 7 H 0 Z" />
  <path
     style="opacity:0.35;fill:#555753"
     d="m 8,56 h 7 v 7 H 8 Z" />
  <path
     style="opacity:0.35;fill:#555753"
     d="m 17,56 h 9 v 9 h -9 z" />
  <path
     style="opacity:0.35;fill:#555753"
     d="m 34,58.5 a 3.5,3.5 0 0 1 -3.5,3.5 3.5,3.5 0 0 1 -3.5,-3.5 3.5,3.5 0 0 1 3.5,-3.5 3.5,3.5 0 0 1 3.5,3.5 z" />
  <path
     style="opacity:0.35;fill:#555753"
     d="m 42,59.5 a 3.5,3.5 0 0 1 -3.5,3.5 3.5,3.5 0 0 1 -3.5,-3.5 3.5,3.5 0 0 1 3.5,-3.5 3.5,3.5 0 0 1 3.5,3.5 z" />
  <path
     style="opacity:0.35;fill:#555753"
     d="m 53,60.5 a 4.5,4.5 0 0 1 -4.5,4.5 4.5,4.5 0 0 1 -4.5,-4.5 4.5,4.5 0 0 1 4.5,-4.5 4.5,4.5 0 0 1 4.5,4.5 z" />
  <path
     style="opacity:0.35;fill:#555753"
     d="m 61,60 a 3.5,5 0 0 1 -3.5,5 3.5,5 0 0 1 -3.5,-5 3.5,5 0 0 1 3.5,-5 3.5,5 0 0 1 3.5,5 z" />
  <path
     style="opacity:0.35;fill:#555753"
     d="M 69,60.5 A 3.5,4.5 0 0 1 65.5,65 3.5,4.5 0 0 1 62,60.5 3.5,4.5 0 0 1 65.5,56 3.5,4.5 0 0 1 69,60.5 Z" />
  <path
     style="opacity:0.35;fill:#555753"
     d="m 79,58.5 a 4.5,3.5 0 0 1 -4.5,3.5 4.5,3.5 0 0 1 -4.5,-3.5 4.5,3.5 0 0 1 4.5,-3.5 4.5,3.5 0 0 1 4.5,3.5 z" />
  <path
     style="opacity:0.35;fill:#555753"
     d="m 89,59.5 a 4.5,3.5 0 0 1 -4.5,3.5 4.5,3.5 0 0 1 -4.5,-3.5 4.5,3.5 0 0 1 4.5,-3.5 4.5,3.5 0 0 1 4.5,3.5 z" />
  <path
     style="fill:#555753"
     d="m 90,55 v 7 h 7 v -7 z m 3,1 h 1 v 2 h 2 v 1 h -2 v 2 h -1 v -2 h -2 v -1 h 2 z"
     />
  <path
     style="fill:#555753"
     d="m 97,55 v 9 h 9 v -9 z m 4,1 h 1 v 3 h 3 v 1 h -3 v 3 h -1 v -3 h -3 v -1 h 3 z"
     />
  <path
     style="fill:#555753"
     d="m 106,55 v 11 h 11 V 55 Z m 5,1 h 1 v 4 h 4 v 1 h -4 v 4 h -1 v -4 h -4 v -1 h 4 z"
     />
  <path
     style="fill:#555753"
     d="M 84.5,55 A 5.5,4.5 0 0 0 79,59.5 5.5,4.5 0 0 0 84.5,64 5.5,4.5 0 0 0 90,59.5 5.5,4.5 0 0 0 84.5,55 Z m 0,2 A 3.5,2.5 0 0 1 88,59.5 3.5,2.5 0 0 1 84.5,62 3.5,2.5 0 0 1 81,59.5 3.5,2.5 0 0 1 84.5,57 Z"
     />
  <path
     style="fill:#555753"
     d="M 65.5,55 A 4.5,5.5 0 0 0 61,60.5 4.5,5.5 0 0 0 65.5,66 4.5,5.5 0 0 0 70,60.5 4.5,5.5 0 0 0 65.5,55 Z m 0,2 A 2.5,3.5 0 0 1 68,60.5 2.5,3.5 0 0 1 65.5,64 2.5,3.5 0 0 1 63,60.5 2.5,3.5 0 0 1 65.5,57 Z"
     />
  <path
     style="fill:#555753"
     d="M 48.5,55 A 5.5,5.5 0 0 0 43,60.5 5.5,5.5 0 0 0 48.5,66 5.5,5.5 0 0 0 54,60.5 5.5,5.5 0 0 0 48.5,55 Z m 0,2 A 3.5,3.5 0 0 1 52,60.5 3.5,3.5 0 0 1 48.5,64 3.5,3.5 0 0 1 45,60.5 3.5,3.5 0 0 1 48.5,57 Z"
     />
  <path
     style="fill:#555753"
     d="M 38.5,55 A 4.5,4.5 0 0 0 34,59.5 4.5,4.5 0 0 0 38.5,64 4.5,4.5 0 0 0 43,59.5 4.5,4.5 0 0 0 38.5,55 Z m 0,2 A 2.5,2.5 0 0 1 41,59.5 2.5,2.5 0 0 1 38.5,62 2.5,2.5 0 0 1 36,59.5 2.5,2.5 0 0 1 38.5,57 Z"
     />
  <path
     style="fill:#555753"
     d="M 16,55 V 66 H 27 V 55 Z m 2,2 h 7 v 7 h -7 z"
     />
  <path
     style="fill:#555753"
     d="m 7,55 v 9 h 9 v -9 z m 2,2 h 5 v 5 H 9 Z"
     />
  <rect
     style="opacity:0.35;fill:#555753"
     width="7"
     height="7"
     x="90"
     y="22" />
  <rect
     style="opacity:0.35;fill:#555753"
     width="9"
     height="9"
     x="97"
     y="22" />
  <rect
     style="opacity:0.35;fill:#555753"
     width="11"
     height="11"
     x="106"
     y="22" />
  <path
     style="opacity:0.35;fill:#555753"
     d="m 0,22 h 7 v 7 H 0 Z" />
  <path
     style="opacity:0.35;fill:#555753"
     d="m 8,23 h 7 v 7 H 8 Z" />
  <path
     style="opacity:0.35;fill:#555753"
     d="m 17,23 h 9 v 9 h -9 z" />
  <path
     style="opacity:0.35;fill:#555753"
     d="m 34,25.5 a 3.5,3.5 0 0 1 -3.5,3.5 3.5,3.5 0 0 1 -3.5,-3.5 3.5,3.5 0 0 1 3.5,-3.5 3.5,3.5 0 0 1 3.5,3.5 z" />
  <path
     style="opacity:0.35;fill:#555753"
     d="m 42,26.5 a 3.5,3.5 0 0 1 -3.5,3.5 3.5,3.5 0 0 1 -3.5,-3.5 3.5,3.5 0 0 1 3.5,-3.5 3.5,3.5 0 0 1 3.5,3.5 z" />
  <path
     style="opacity:0.35;fill:#555753"
     d="m 53,27 a 4.5,4.5 0 0 1 -4.5,4.5 4.5,4.5 0 0 1 -4.5,-4.5 4.5,4.5 0 0 1 4.5,-4.5 4.5,4.5 0 0 1 4.5,4.5 z" />
  <path
     style="opacity:0.35;fill:#555753"
     d="m 61,27 a 3.5,5 0 0 1 -3.5,5 3.5,5 0 0 1 -3.5,-5 3.5,5 0 0 1 3.5,-5 3.5,5 0 0 1 3.5,5 z" />
  <path
     style="opacity:0.35;fill:#555753"
     d="M 69,27.5 A 3.5,4.5 0 0 1 65.5,32 3.5,4.5 0 0 1 62,27.5 3.5,4.5 0 0 1 65.5,23 3.5,4.5 0 0 1 69,27.5 Z" />
  <path
     style="opacity:0.35;fill:#555753"
     d="m 79,25.5 a 4.5,3.5 0 0 1 -4.5,3.5 4.5,3.5 0 0 1 -4.5,-3.5 4.5,3.5 0 0 1 4.5,-3.5 4.5,3.5 0 0 1 4.5,3.5 z" />
  <path
     style="opacity:0.35;fill:#555753"
     d="m 89,26.5 a 4.5,3.5 0 0 1 -4.5,3.5 4.5,3.5 0 0 1 -4.5,-3.5 4.5,3.5 0 0 1 4.5,-3.5 4.5,3.5 0 0 1 4.5,3.5 z" />
  <path
     style="fill:#555753"
     d="m 90,22 v 7 h 7 v -7 z m 3,1 h 1 v 2 h 2 v 1 h -2 v 2 h -1 v -2 h -2 v -1 h 2 z"
      />
  <path
     style="fill:#555753"
     d="m 97,22 v 9 h 9 v -9 z m 4,1 h 1 v 3 h 3 v 1 h -3 v 3 h -1 v -3 h -3 v -1 h 3 z"
      />
  <path
     style="fill:#555753"
     d="m 106,22 v 11 h 11 V 22 Z m 5,1 h 1 v 4 h 4 v 1 h -4 v 4 h -1 v -4 h -4 v -1 h 4 z"
      />
  <path
     style="fill:#555753"
     d="M 84.5,22 A 5.5,4.5 0 0 0 79,26.5 5.5,4.5 0 0 0 84.5,31 5.5,4.5 0 0 0 90,26.5 5.5,4.5 0 0 0 84.5,22 Z m 0,2 A 3.5,2.5 0 0 1 88,26.5 3.5,2.5 0 0 1 84.5,29 3.5,2.5 0 0 1 81,26.5 3.5,2.5 0 0 1 84.5,24 Z"
     />
  <path
     style="fill:#555753"
     d="M 65.5,22 A 4.5,5.5 0 0 0 61,27.5 4.5,5.5 0 0 0 65.5,33 4.5,5.5 0 0 0 70,27.5 4.5,5.5 0 0 0 65.5,22 Z m 0,2 A 2.5,3.5 0 0 1 68,27.5 2.5,3.5 0 0 1 65.5,31 2.5,3.5 0 0 1 63,27.5 2.5,3.5 0 0 1 65.5,24 Z"
     />
  <path

     style="fill:#555753"
     d="M 48.5,22 A 5.5,5.5 0 0 0 43,27.5 5.5,5.5 0 0 0 48.5,33 5.5,5.5 0 0 0 54,27.5 5.5,5.5 0 0 0 48.5,22 Z m 0,2 A 3.5,3.5 0 0 1 52,27.5 3.5,3.5 0 0 1 48.5,31 3.5,3.5 0 0 1 45,27.5 3.5,3.5 0 0 1 48.5,24 Z"
     />
  <path

     style="fill:#555753"
     d="M 38.5,22 A 4.5,4.5 0 0 0 34,26.5 4.5,4.5 0 0 0 38.5,31 4.5,4.5 0 0 0 43,26.5 4.5,4.5 0 0 0 38.5,22 Z m 0,2 A 2.5,2.5 0 0 1 41,26.5 2.5,2.5 0 0 1 38.5,29 2.5,2.5 0 0 1 36,26.5 2.5,2.5 0 0 1 38.5,24 Z"
     />
  <path
     style="fill:#555753"
     d="M 16,22 V 33 H 27 V 22 Z m 2,2 h 7 v 7 h -7 z"
     />
  <path
     style="fill:#555753"
     d="m 7,22 v 9 h 9 v -9 z m 2,2 h 5 v 5 H 9 Z"
      />
  <rect
     style="opacity:0.35;fill:#555753"
     width="7"
     height="7"
     x="90"
     y="44" />
  <rect
     style="opacity:0.35;fill:#555753"
     width="9"
     height="9"
     x="97"
     y="44" />
  <rect
     style="opacity:0.35;fill:#555753"
     width="11"
     height="11"
     x="106"
     y="44" />
  <path
     style="opacity:0.35;fill:#555753"
     d="m 0,44 h 7 v 7 H 0 Z" />
  <path
     style="opacity:0.35;fill:#555753"
     d="m 8,45 h 7 v 7 H 8 Z" />
  <path
     style="opacity:0.35;fill:#555753"
     d="m 17,45 h 9 v 9 h -9 z" />
  <path
     style="opacity:0.35;fill:#555753"
     d="m 34,47.5 a 3.5,3.5 0 0 1 -3.5,3.5 3.5,3.5 0 0 1 -3.5,-3.5 3.5,3.5 0 0 1 3.5,-3.5 3.5,3.5 0 0 1 3.5,3.5 z" />
  <path
     style="opacity:0.35;fill:#555753"
     d="m 42,48.5 a 3.5,3.5 0 0 1 -3.5,3.5 3.5,3.5 0 0 1 -3.5,-3.5 3.5,3.5 0 0 1 3.5,-3.5 3.5,3.5 0 0 1 3.5,3.5 z" />
  <path
     style="opacity:0.35;fill:#555753"
     d="m 53,49.5 a 4.5,4.5 0 0 1 -4.5,4.5 4.5,4.5 0 0 1 -4.5,-4.5 4.5,4.5 0 0 1 4.5,-4.5 4.5,4.5 0 0 1 4.5,4.5 z" />
  <path
     style="opacity:0.35;fill:#555753"
     d="m 61,49 a 3.5,5 0 0 1 -3.5,5 3.5,5 0 0 1 -3.5,-5 3.5,5 0 0 1 3.5,-5 3.5,5 0 0 1 3.5,5 z" />
  <path
     style="opacity:0.35;fill:#555753"
     d="M 69,49.5 A 3.5,4.5 0 0 1 65.5,54 3.5,4.5 0 0 1 62,49.5 3.5,4.5 0 0 1 65.5,45 3.5,4.5 0 0 1 69,49.5 Z" />
  <path
     style="opacity:0.35;fill:#555753"
     d="m 79,47.5 a 4.5,3.5 0 0 1 -4.5,3.5 4.5,3.5 0 0 1 -4.5,-3.5 4.5,3.5 0 0 1 4.5,-3.5 4.5,3.5 0 0 1 4.5,3.5 z" />
  <path
     style="opacity:0.35;fill:#555753"
     d="m 89,48.5 a 4.5,3.5 0 0 1 -4.5,3.5 4.5,3.5 0 0 1 -4.5,-3.5 4.5,3.5 0 0 1 4.5,-3.5 4.5,3.5 0 0 1 4.5,3.5 z" />
  <path
     style="fill:#555753"
     d="m 90,44 v 7 h 7 v -7 z m 3,1 h 1 v 2 h 2 v 1 h -2 v 2 h -1 v -2 h -2 v -1 h 2 z"
      />
  <path
     style="fill:#555753"
     d="m 97,44 v 9 h 9 v -9 z m 4,1 h 1 v 3 h 3 v 1 h -3 v 3 h -1 v -3 h -3 v -1 h 3 z"
      />
  <path
     style="fill:#555753"
     d="m 106,44 v 11 h 11 V 44 Z m 5,1 h 1 v 4 h 4 v 1 h -4 v 4 h -1 v -4 h -4 v -1 h 4 z"
      />
  <path
     style="fill:#555753"
     d="M 84.5,44 A 5.5,4.5 0 0 0 79,48.5 5.5,4.5 0 0 0 84.5,53 5.5,4.5 0 0 0 90,48.5 5.5,4.5 0 0 0 84.5,44 Z m 0,2 A 3.5,2.5 0 0 1 88,48.5 3.5,2.5 0 0 1 84.5,51 3.5,2.5 0 0 1 81,48.5 3.5,2.5 0 0 1 84.5,46 Z"
     />
  <path
     style="fill:#555753"
     d="M 65.5,44 A 4.5,5.5 0 0 0 61,49.5 4.5,5.5 0 0 0 65.5,55 4.5,5.5 0 0 0 70,49.5 4.5,5.5 0 0 0 65.5,44 Z m 0,2 A 2.5,3.5 0 0 1 68,49.5 2.5,3.5 0 0 1 65.5,53 2.5,3.5 0 0 1 63,49.5 2.5,3.5 0 0 1 65.5,46 Z"
     />
  <path
     style="fill:#555753"
     d="M 48.5,44 A 5.5,5.5 0 0 0 43,49.5 5.5,5.5 0 0 0 48.5,55 5.5,5.5 0 0 0 54,49.5 5.5,5.5 0 0 0 48.5,44 Z m 0,2 A 3.5,3.5 0 0 1 52,49.5 3.5,3.5 0 0 1 48.5,53 3.5,3.5 0 0 1 45,49.5 3.5,3.5 0 0 1 48.5,46 Z"
     />
  <path
     style="fill:#555753"
     d="M 38.5,44 A 4.5,4.5 0 0 0 34,48.5 4.5,4.5 0 0 0 38.5,53 4.5,4.5 0 0 0 43,48.5 4.5,4.5 0 0 0 38.5,44 Z m 0,2 A 2.5,2.5 0 0 1 41,48.5 2.5,2.5 0 0 1 38.5,51 2.5,2.5 0 0 1 36,48.5 2.5,2.5 0 0 1 38.5,46 Z"
     />
  <path
     style="fill:#555753"
     d="M 16,44 V 55 H 27 V 44 Z m 2,2 h 7 v 7 h -7 z"
     />
  <path
     style="fill:#555753"
     d="m 7,44 v 9 h 9 v -9 z m 2,2 h 5 v 5 H 9 Z"
      />
  <rect
     style="opacity:0.35;fill:#555753"
     width="7"
     height="7"
     x="90"
     y="0" />
  <rect
     style="opacity:0.35;fill:#555753"
     width="9"
     height="9"
     x="97"
     y="0" />
  <rect
     style="opacity:0.35;fill:#555753"
     width="11"
     height="11"
     x="106"
     y="0" />
  <path
     style="opacity:0.35;fill:#555753"
     d="m 0,2e-5 h 7 v 7 H 0 Z" />
  <path
     style="opacity:0.35;fill:#555753"
     d="m 8,1 h 7 v 7 H 8 Z" />
  <path
     style="opacity:0.35;fill:#555753"
     d="m 17,1 h 9 v 9 h -9 z" />
  <path
     style="opacity:0.35;fill:#555753"
     d="m 34,3.5 a 3.5,3.5 0 0 1 -3.5,3.5 3.5,3.5 0 0 1 -3.5,-3.5 3.5,3.5 0 0 1 3.5,-3.5 3.5,3.5 0 0 1 3.5,3.5 z" />
  <path
     style="opacity:0.35;fill:#555753"
     d="m 42,4.5 a 3.5,3.5 0 0 1 -3.5,3.5 3.5,3.5 0 0 1 -3.5,-3.5 3.5,3.5 0 0 1 3.5,-3.5 3.5,3.5 0 0 1 3.5,3.5 z" />
  <path
     style="opacity:0.35;fill:#555753"
     d="m 53,5.5 a 4.5,4.5 0 0 1 -4.5,4.5 4.5,4.5 0 0 1 -4.5,-4.5 4.5,4.5 0 0 1 4.5,-4.5 4.5,4.5 0 0 1 4.5,4.5 z" />
  <path
     style="opacity:0.35;fill:#555753"
     d="m 61,5 a 3.5,5 0 0 1 -3.5,5 3.5,5 0 0 1 -3.5,-5 3.5,5 0 0 1 3.5,-5 3.5,5 0 0 1 3.5,5 z" />
  <path
     style="opacity:0.35;fill:#555753"
     d="M 69,5.5 A 3.5,4.5 0 0 1 65.5,10 3.5,4.5 0 0 1 62,5.5 3.5,4.5 0 0 1 65.5,1 3.5,4.5 0 0 1 69,5.5 Z" />
  <path
     style="opacity:0.35;fill:#555753"
     d="m 79,3.5 a 4.5,3.5 0 0 1 -4.5,3.5 4.5,3.5 0 0 1 -4.5,-3.5 4.5,3.5 0 0 1 4.5,-3.5 4.5,3.5 0 0 1 4.5,3.5 z" />
  <path
     style="opacity:0.35;fill:#555753"
     d="m 89,4.5 a 4.5,3.5 0 0 1 -4.5,3.5 4.5,3.5 0 0 1 -4.5,-3.5 4.5,3.5 0 0 1 4.5,-3.5 4.5,3.5 0 0 1 4.5,3.5 z" />
  <path
     style="fill:#555753"
     d="m 90,0 v 7 h 7 V 0 Z m 3,1 h 1 v 2 h 2 V 4 H 94 V 6 H 93 V 4 H 91 V 3 h 2 z"
      />
  <path
     style="fill:#555753"
     d="m 97,0 v 9 h 9 V 0 Z m 4,1 h 1 v 3 h 3 v 1 h -3 v 3 h -1 V 5 H 98 V 4 h 3 z"
      />
  <path
     style="fill:#555753"
     d="m 106,0 v 11 h 11 V 0 Z m 5,1 h 1 v 4 h 4 v 1 h -4 v 4 h -1 V 6 h -4 V 5 h 4 z"
      />
  <path
     style="fill:#555753"
     d="M 84.5,0 A 5.5,4.5 0 0 0 79,4.5 5.5,4.5 0 0 0 84.5,9 5.5,4.5 0 0 0 90,4.5 5.5,4.5 0 0 0 84.5,0 Z m 0,2 A 3.5,2.5 0 0 1 88,4.5 3.5,2.5 0 0 1 84.5,7 3.5,2.5 0 0 1 81,4.5 3.5,2.5 0 0 1 84.5,2 Z"
     />
  <path
     style="fill:#555753"
     d="M 65.5,0 A 4.5,5.5 0 0 0 61,5.5 4.5,5.5 0 0 0 65.5,11 4.5,5.5 0 0 0 70,5.5 4.5,5.5 0 0 0 65.5,0 Z m 0,2 A 2.5,3.5 0 0 1 68,5.5 2.5,3.5 0 0 1 65.5,9 2.5,3.5 0 0 1 63,5.5 2.5,3.5 0 0 1 65.5,2 Z"
     />
  <path
     style="fill:#555753"
     d="M 48.5,0 A 5.5,5.5 0 0 0 43,5.5 5.5,5.5 0 0 0 48.5,11 5.5,5.5 0 0 0 54,5.5 5.5,5.5 0 0 0 48.5,0 Z m 0,2 A 3.5,3.5 0 0 1 52,5.5 3.5,3.5 0 0 1 48.5,9 3.5,3.5 0 0 1 45,5.5 3.5,3.5 0 0 1 48.5,2 Z"
     />
  <path
     style="fill:#555753"
     d="M 38.5,0 A 4.5,4.5 0 0 0 34,4.5 4.5,4.5 0 0 0 38.5,9 4.5,4.5 0 0 0 43,4.5 4.5,4.5 0 0 0 38.5,0 Z m 0,2 A 2.5,2.5 0 0 1 41,4.5 2.5,2.5 0 0 1 38.5,7 2.5,2.5 0 0 1 36,4.5 2.5,2.5 0 0 1 38.5,2 Z"
     />
  <path
     style="fill:#555753"
     d="M 16,0 V 11 H 27 V 0 Z m 2,2 h 7 v 7 h -7 z"
     />
  <path
     style="fill:#555753"
     d="m 7,0 v 9 h 9 V 0 Z m 2,2 h 5 V 7 H 9 Z"
      />
  <rect
     style="opacity:0.35;fill:#555753"
     width="7"
     height="7"
     x="90"
     y="11" />
  <rect
     style="opacity:0.35;fill:#555753"
     width="9"
     height="9"
     x="97"
     y="11" />
  <rect
     style="opacity:0.35;fill:#555753"
     width="11"
     height="11"
     x="106"
     y="11" />
  <path
     style="opacity:0.35;fill:#555753"
     d="m 0,11 h 7 v 7 H 0 Z" />
  <path
     style="opacity:0.35;fill:#555753"
     d="m 8,12 h 7 v 7 H 8 Z" />
  <path
     style="opacity:0.35;fill:#555753"
     d="m 17,12 h 9 v 9 h -9 z" />
  <path
     style="opacity:0.35;fill:#555753"
     d="m 34,14.5 a 3.5,3.5 0 0 1 -3.5,3.5 3.5,3.5 0 0 1 -3.5,-3.5 3.5,3.5 0 0 1 3.5,-3.5 3.5,3.5 0 0 1 3.5,3.5 z" />
  <path
     style="opacity:0.35;fill:#555753"
     d="m 42,15.5 a 3.5,3.5 0 0 1 -3.5,3.5 3.5,3.5 0 0 1 -3.5,-3.5 3.5,3.5 0 0 1 3.5,-3.5 3.5,3.5 0 0 1 3.5,3.5 z" />
  <path
     style="opacity:0.35;fill:#555753"
     d="m 53,16.5 a 4.5,4.5 0 0 1 -4.5,4.5 4.5,4.5 0 0 1 -4.5,-4.5 4.5,4.5 0 0 1 4.5,-4.5 4.5,4.5 0 0 1 4.5,4.5 z" />
  <path
     style="opacity:0.35;fill:#555753"
     d="m 61,16 a 3.5,5 0 0 1 -3.5,5 3.5,5 0 0 1 -3.5,-5 3.5,5 0 0 1 3.5,-5 3.5,5 0 0 1 3.5,5 z" />
  <path
     style="opacity:0.35;fill:#555753"
     d="M 69,16.5 A 3.5,4.5 0 0 1 65.5,21 3.5,4.5 0 0 1 62,16.5 3.5,4.5 0 0 1 65.5,12 3.5,4.5 0 0 1 69,16.5 Z" />
  <path
     style="opacity:0.35;fill:#555753"
     d="m 79,14.5 a 4.5,3.5 0 0 1 -4.5,3.5 4.5,3.5 0 0 1 -4.5,-3.5 4.5,3.5 0 0 1 4.5,-3.5 4.5,3.5 0 0 1 4.5,3.5 z" />
  <path
     style="opacity:0.35;fill:#555753"
     d="m 89,15.5 a 4.5,3.5 0 0 1 -4.5,3.5 4.5,3.5 0 0 1 -4.5,-3.5 4.5,3.5 0 0 1 4.5,-3.5 4.5,3.5 0 0 1 4.5,3.5 z" />
  <path
     style="fill:#555753"
     d="m 90,11 v 7 h 7 v -7 z m 3,1 h 1 v 2 h 2 v 1 h -2 v 2 h -1 v -2 h -2 v -1 h 2 z"
      />
  <path
     style="fill:#555753"
     d="m 97,11 v 9 h 9 v -9 z m 4,1 h 1 v 3 h 3 v 1 h -3 v 3 h -1 v -3 h -3 v -1 h 3 z"
      />
  <path
     style="fill:#555753"
     d="m 106,11 v 11 h 11 V 11 Z m 5,1 h 1 v 4 h 4 v 1 h -4 v 4 h -1 v -4 h -4 v -1 h 4 z"
      />
  <path
     style="fill:#555753"
     d="M 84.5,11 A 5.5,4.5 0 0 0 79,15.5 5.5,4.5 0 0 0 84.5,20 5.5,4.5 0 0 0 90,15.5 5.5,4.5 0 0 0 84.5,11 Z m 0,2 A 3.5,2.5 0 0 1 88,15.5 3.5,2.5 0 0 1 84.5,18 3.5,2.5 0 0 1 81,15.5 3.5,2.5 0 0 1 84.5,13 Z"
     />
  <path
     style="fill:#555753"
     d="M 65.5,11 A 4.5,5.5 0 0 0 61,16.5 4.5,5.5 0 0 0 65.5,22 4.5,5.5 0 0 0 70,16.5 4.5,5.5 0 0 0 65.5,11 Z m 0,2 A 2.5,3.5 0 0 1 68,16.5 2.5,3.5 0 0 1 65.5,20 2.5,3.5 0 0 1 63,16.5 2.5,3.5 0 0 1 65.5,13 Z"
     />
  <path
     style="fill:#555753"
     d="M 48.5,11 A 5.5,5.5 0 0 0 43,16.5 5.5,5.5 0 0 0 48.5,22 5.5,5.5 0 0 0 54,16.5 5.5,5.5 0 0 0 48.5,11 Z m 0,2 A 3.5,3.5 0 0 1 52,16.5 3.5,3.5 0 0 1 48.5,20 3.5,3.5 0 0 1 45,16.5 3.5,3.5 0 0 1 48.5,13 Z"
     />
  <path
     style="fill:#555753"
     d="M 38.5,11 A 4.5,4.5 0 0 0 34,15.5 4.5,4.5 0 0 0 38.5,20 4.5,4.5 0 0 0 43,15.5 4.5,4.5 0 0 0 38.5,11 Z m 0,2 A 2.5,2.5 0 0 1 41,15.5 2.5,2.5 0 0 1 38.5,18 2.5,2.5 0 0 1 36,15.5 2.5,2.5 0 0 1 38.5,13 Z"
     />
  <path
     style="fill:#555753"
     d="M 16,11 V 22 H 27 V 11 Z m 2,2 h 7 v 7 h -7 z"
     />
  <path
     style="fill:#555753"
     d="m 7,11 v 9 h 9 v -9 z m 2,2 h 5 v 5 H 9 Z"
      />
  <rect
     style="opacity:0.35;fill:#555753"
     width="7"
     height="7"
     x="90"
     y="33" />
  <rect
     style="opacity:0.35;fill:#555753"
     width="9"
     height="9"
     x="97"
     y="33" />
  <rect
     style="opacity:0.35;fill:#555753"
     width="11"
     height="11"
     x="106"
     y="33" />
  <path
     style="opacity:0.35;fill:#555753"
     d="m 0,33 h 7 v 7 H 0 Z" />
  <path
     style="opacity:0.35;fill:#555753"
     d="m 8,34 h 7 v 7 H 8 Z" />
  <path
     style="opacity:0.35;fill:#555753"
     d="m 17,34 h 9 v 9 h -9 z" />
  <path
     style="opacity:0.35;fill:#555753"
     d="m 34,36.5 a 3.5,3.5 0 0 1 -3.5,3.5 3.5,3.5 0 0 1 -3.5,-3.5 3.5,3.5 0 0 1 3.5,-3.5 3.5,3.5 0 0 1 3.5,3.5 z" />
  <path
     style="opacity:0.35;fill:#555753"
     d="m 42,37.5 a 3.5,3.5 0 0 1 -3.5,3.5 3.5,3.5 0 0 1 -3.5,-3.5 3.5,3.5 0 0 1 3.5,-3.5 3.5,3.5 0 0 1 3.5,3.5 z" />
  <path
     style="opacity:0.35;fill:#555753"
     d="m 53,38.5 a 4.5,4.5 0 0 1 -4.5,4.5 4.5,4.5 0 0 1 -4.5,-4.5 4.5,4.5 0 0 1 4.5,-4.5 4.5,4.5 0 0 1 4.5,4.5 z" />
  <path
     style="opacity:0.35;fill:#555753"
     d="m 61,38 a 3.5,5 0 0 1 -3.5,5 3.5,5 0 0 1 -3.5,-5 3.5,5 0 0 1 3.5,-5 3.5,5 0 0 1 3.5,5 z" />
  <path
     style="opacity:0.35;fill:#555753"
     d="M 69,38.5 A 3.5,4.5 0 0 1 65.5,43 3.5,4.5 0 0 1 62,38.5 3.5,4.5 0 0 1 65.5,34 3.5,4.5 0 0 1 69,38.5 Z" />
  <path
     style="opacity:0.35;fill:#555753"
     d="m 79,36.5 a 4.5,3.5 0 0 1 -4.5,3.5 4.5,3.5 0 0 1 -4.5,-3.5 4.5,3.5 0 0 1 4.5,-3.5 4.5,3.5 0 0 1 4.5,3.5 z" />
  <path
     style="opacity:0.35;fill:#555753"
     d="m 89,37.5 a 4.5,3.5 0 0 1 -4.5,3.5 4.5,3.5 0 0 1 -4.5,-3.5 4.5,3.5 0 0 1 4.5,-3.5 4.5,3.5 0 0 1 4.5,3.5 z" />
  <path
     style="fill:#555753"
     d="m 90,33 v 7 h 7 v -7 z m 3,1 h 1 v 2 h 2 v 1 h -2 v 2 h -1 v -2 h -2 v -1 h 2 z"
      />
  <path
     style="fill:#555753"
     d="m 97,33 v 9 h 9 v -9 z m 4,1 h 1 v 3 h 3 v 1 h -3 v 3 h -1 v -3 h -3 v -1 h 3 z"
      />
  <path
     style="fill:#555753"
     d="m 106,33 v 11 h 11 V 33 Z m 5,1 h 1 v 4 h 4 v 1 h -4 v 4 h -1 v -4 h -4 v -1 h 4 z"
      />
  <path
     style="fill:#555753"
     d="M 84.5,33 A 5.5,4.5 0 0 0 79,37.5 5.5,4.5 0 0 0 84.5,42 5.5,4.5 0 0 0 90,37.5 5.5,4.5 0 0 0 84.5,33 Z m 0,2 A 3.5,2.5 0 0 1 88,37.5 3.5,2.5 0 0 1 84.5,40 3.5,2.5 0 0 1 81,37.5 3.5,2.5 0 0 1 84.5,35 Z"
     />
  <path
     style="fill:#555753"
     d="M 65.5,33 A 4.5,5.5 0 0 0 61,38.5 4.5,5.5 0 0 0 65.5,44 4.5,5.5 0 0 0 70,38.5 4.5,5.5 0 0 0 65.5,33 Z m 0,2 A 2.5,3.5 0 0 1 68,38.5 2.5,3.5 0 0 1 65.5,42 2.5,3.5 0 0 1 63,38.5 2.5,3.5 0 0 1 65.5,35 Z"
     />
  <path
     style="fill:#555753"
     d="M 48.5,33 A 5.5,5.5 0 0 0 43,38.5 5.5,5.5 0 0 0 48.5,44 5.5,5.5 0 0 0 54,38.5 5.5,5.5 0 0 0 48.5,33 Z m 0,2 A 3.5,3.5 0 0 1 52,38.5 3.5,3.5 0 0 1 48.5,42 3.5,3.5 0 0 1 45,38.5 3.5,3.5 0 0 1 48.5,35 Z"
     />
  <path
     style="fill:#555753"
     d="M 38.5,33 A 4.5,4.5 0 0 0 34,37.5 4.5,4.5 0 0 0 38.5,42 4.5,4.5 0 0 0 43,37.5 4.5,4.5 0 0 0 38.5,33 Z m 0,2 A 2.5,2.5 0 0 1 41,37.5 2.5,2.5 0 0 1 38.5,40 2.5,2.5 0 0 1 36,37.5 2.5,2.5 0 0 1 38.5,35 Z"
     />
  <path
     style="fill:#555753"
     d="M 16,33 V 44 H 27 V 33 Z m 2,2 h 7 v 7 h -7 z"
     />
  <path
     style="fill:#555753"
     d="m 7,33 v 9 h 9 v -9 z m 2,2 h 5 v 5 H 9 Z"
     />
  <path
     style="opacity:0.35;fill:#555753"
     d="M 73,67 V 78 H 84 V 67 Z"
      />
  <path
     style="opacity:0.35;fill:#555753"
     d="m 99,67 v 11 h 11 V 67 Z"
      />
  <path
     style="opacity:0.35;fill:#555753"
     d="M 86,67 V 78 H 97 V 67 Z"
      />
  <path
     style="opacity:0.35;fill:#555753"
     d="M 73,80 V 91 H 84 V 80 Z"
      />
  <path
     style="opacity:0.35;fill:#555753"
     d="m 99,80 v 11 h 11 V 80 Z"
      />
  <path
     style="opacity:0.35;fill:#555753"
     d="M 86,80 V 91 H 97 V 80 Z"
      />
  <path
     style="fill:#555753"
     d="m 19,69 v 2 h -2 v 1 h 2 v 2 h 1 v -2 h 2 v -1 h -2 v -2 z m 0,9 v 2 h -2 v 1 h 2 v 2 h 1 v -2 h 2 v -1 h -2 v -2 z"
     />
  <rect
     style="fill:#555753"
     width="5"
     height="1"
     x="10"
     y="75" />
  <rect
     style="fill:#555753"
     width="5"
     height="1"
     x="0"
     y="75" />
  <rect
     style="fill:#555753"
     width="1"
     height="5"
     x="7"
     y="68" />
  <rect
     style="fill:#555753"
     width="1"
     height="5"
     x="7"
     y="78" />
  <path
     style="fill:#555753"
     d="M 7.5 70 A 5.5 5.5 0 0 0 2 75.5 A 5.5 5.5 0 0 0 7.5 81 A 5.5 5.5 0 0 0 13 75.5 A 5.5 5.5 0 0 0 7.5 70 z M 7.5 72 A 3.5 3.5 0 0 1 11 75.5 A 3.5 3.5 0 0 1 7.5 79 A 3.5 3.5 0 0 1 4 75.5 A 3.5 3.5 0 0 1 7.5 72 z "
     />
  <rect
     style="fill:#555753"
     width="1"
     height="1"
     x="7"
     y="75" />
  <path
     style="fill:#555753"
     d="M 36 70 A 3 3 0 0 0 33 73 A 3 3 0 0 0 35 75.826172 L 35 77 L 32 77 L 32 79 L 35 79 L 35 86 C 33.064161 85.725871 31.163334 84.64991 30 83.2 L 31 82.691406 L 30 80.691406 L 26 82.691406 L 27 84.691406 L 28.236328 84.046875 C 29.955391 86.399378 32.862559 88.191406 36 88.191406 C 39.137441 88.191406 42.04 86.399378 43.763672 84.046875 L 45 84.691406 L 46 82.691406 L 42 80.691406 L 41 82.691406 L 42 83.2 C 40.84 84.64991 38.94 85.725871 37 86 L 37 79 L 40 79 L 40 77 L 37 77 L 37 75.824219 A 3 3 0 0 0 39 73 A 3 3 0 0 0 36 70 z M 36 72 A 1 1 0 0 1 37 73 A 1 1 0 0 1 36 74 A 1 1 0 0 1 35 73 A 1 1 0 0 1 36 72 z "
     />
  <path
     style="opacity:0.35;fill:#555753"
     d="m 60,70 a 3,3 0 0 0 -3,3 3,3 0 0 0 2,2.826172 V 77 h -3 v 2 h 3 v 7 c -1.94,-0.274129 -3.84,-1.35009 -5,-2.810547 l 1,-0.498047 -1,-2 -4,2 1,2 1.236328,-0.644531 c 1.719063,2.352503 4.626231,4.144531 7.763672,4.144531 3.137441,0 6.04,-1.8 7.763672,-4.144531 L 69,84.691406 l 1,-2 -4,-2 -1,2 1,0.498047 C 64.84,84.64991 62.94,85.725871 61,86 v -7 h 3 V 77 H 61 V 75.824219 A 3,3 0 0 0 63,73 3,3 0 0 0 60,70 Z m 0,2 a 1,1 0 0 1 1,1 1,1 0 0 1 -1,1 1,1 0 0 1 -1,-1 1,1 0 0 1 1,-1 z"
     />
</svg>
