<svg height="24" viewBox="0 0 6.3499999 6.3500002" width="24" xmlns="http://www.w3.org/2000/svg" xmlns:xlink="http://www.w3.org/1999/xlink"><linearGradient id="a" gradientTransform="matrix(0 -.38494639 .38533611 0 2.192985 20.645284)" gradientUnits="userSpaceOnUse" x1="49.734936" x2="-6.144941" y1="25.450548" y2="25.665531"><stop offset="0" stop-color="#cd9ef7"/><stop offset="1" stop-color="#a56de2"/></linearGradient><linearGradient id="b" gradientUnits="userSpaceOnUse" x1="12" x2="12" y1="-19" y2="-2.5"><stop offset="0" stop-color="#fff"/><stop offset=".06682547" stop-color="#fff" stop-opacity=".235294"/><stop offset=".42424244" stop-color="#fff" stop-opacity=".444853"/><stop offset=".42424244" stop-color="#fff" stop-opacity=".52549"/><stop offset=".49263853" stop-color="#fff" stop-opacity=".974265"/><stop offset=".49263853" stop-color="#fff" stop-opacity=".560784"/><stop offset="1" stop-color="#fff" stop-opacity=".156863"/><stop offset="1" stop-color="#fff" stop-opacity=".392157"/></linearGradient><g stroke-linecap="round" stroke-linejoin="round" transform="matrix(0 .26458333 -.26458333 0 6.353733 -.26651)"><path d="m12 1-4.5 4.5 1.9980469.00977v.99023l-.0078125 2.9902344-2.9902344.0078125h-.9902344l-.0097656-1.9980469-4.5 4.5 4.5 4.5.00977-1.998047h.99023l2.9902344.0078.00781 2.990234v.990234l-1.9980444.009779 4.5 4.5 4.5-4.5-1.998047-.0098v-.9902l.0078-2.990234 2.990234-.0078h.990234l.009779 1.998034 4.5-4.5-4.5-4.5-.009766 1.9980469h-.990234l-2.990234-.0078125-.007813-2.9902344v-.9902344l1.998047-.0097656z" fill="url(#a)" stroke="#7239b3" stroke-opacity=".501961" transform="matrix(0 -1 1 0 1.007266 24.014108)"/><path d="m12 2.4101562-2.1640625 2.0898438h.6640625l-.0039 2v.00195l.0039 3.99805-3.9980469-.003919h-.00195l-2.0000031.003919v-.6621224l-2.0898438 2.1621224 2.0898438 2.164062v-.656237l2-.0039h.00195l3.998047.01952-.0039 3.974609v.002l-.0039 2h-.6543225l2.1621255 2.08979 2.164062-2.08979-.664062-.000054.0039-2v-.002l-.0039-3.974622 3.998-.01951h.002l1.99997.0039v.654297l2.089874-2.162065-2.089844-2.1640625v.6640625l-2-.0039h-.002l-3.998.0039.00392-3.9980469v-.00195l.003906-2.0000031h.654297z" fill="none" opacity=".5" stroke="url(#b)" stroke-linecap="square" stroke-linejoin="miter" transform="matrix(0 -1 1 0 1.007266 24.014108)"/></g></svg>