<svg viewBox="0 0 24 24" xmlns="http://www.w3.org/2000/svg" xmlns:xlink="http://www.w3.org/1999/xlink"><radialGradient id="a" cx="17.814" cy="24.149" gradientTransform="matrix(-1.8805 0 .00000002 1.8026 40.343 -39.354)" gradientUnits="userSpaceOnUse" r="9.125"><stop offset="0" stop-color="#fff"/><stop offset="1" stop-color="#b6b6b6"/></radialGradient><path d="m6.0437 2.5533 12.091 11.735-5.512.178 2.3115 4.8008c.71124 2.1337-2.4893 2.9338-3.0227 1.3335l-2.1342-4.8-3.9125 4.178.1782-17.426z" fill="url(#a)" fill-rule="evenodd"/><g fill="none"><path d="m6.0437 2.5533 12.091 11.735-5.512.178 2.3115 4.8008c.71124 2.1337-2.4893 2.9338-3.0227 1.3335l-2.1342-4.8-3.9125 4.178.1782-17.426z" opacity=".61" stroke="#2a2a2a" stroke-linejoin="round"/><path d="m7 5.0061 8.766 8.3129-4.833.137 3.067 5.948c.50816.89652-.88347 1.7097-1.1889.89742l-2.664-6.096-3.2675 3.287.1206-12.486z" opacity=".4" stroke="#fff" stroke-width="1.1005"/></g></svg>