<svg height="24" width="24" xmlns="http://www.w3.org/2000/svg" xmlns:xlink="http://www.w3.org/1999/xlink"><linearGradient id="a" gradientUnits="userSpaceOnUse" x1="7.500465" x2="7.500465" y1="13.5" y2="5.5"><stop offset="0" stop-color="#232323"/><stop offset=".8" stop-color="#535353"/><stop offset=".8035444" stop-color="#676767"/><stop offset="1" stop-color="#676767"/></linearGradient><linearGradient id="b" gradientTransform="matrix(.4054 0 0 .5135 .266465 -2.324)" gradientUnits="userSpaceOnUse" x1="24.010853" x2="24.010853" xlink:href="#c" y1="8.420643" y2="12.315482"/><linearGradient id="c"><stop offset="0" stop-color="#fff"/><stop offset="0" stop-color="#fff" stop-opacity=".235"/><stop offset="1" stop-color="#fff" stop-opacity=".157"/><stop offset="1" stop-color="#fff" stop-opacity=".392"/></linearGradient><radialGradient id="d" cx="65.296997" cy="48.216" gradientTransform="matrix(0 .52545 -.57163 0 46.193 -21.124)" gradientUnits="userSpaceOnUse" r="31"><stop offset="0" stop-color="#d1ff82"/><stop offset=".262" stop-color="#9bdb4d"/><stop offset=".661" stop-color="#68b723"/><stop offset="1" stop-color="#3a9104"/></radialGradient><linearGradient id="e" gradientTransform="matrix(.2818 0 0 .2801 12.197 12.015)" gradientUnits="userSpaceOnUse" x1="24.139" x2="24.139" xlink:href="#c" y1="10.631" y2="35.623001"/><linearGradient id="f" gradientTransform="matrix(.2818 0 0 .2801 12.18 12.022)" gradientUnits="userSpaceOnUse" x1="24.139" x2="24.139" xlink:href="#c" y1="21.341999" y2="24.912001"/><linearGradient id="g" gradientTransform="matrix(.4054 0 0 .5135 .266 .676)" gradientUnits="userSpaceOnUse" x1="24.010853" x2="24.010853" xlink:href="#c" y1="8.420643" y2="35.684517"/><linearGradient id="h"><stop offset="0"/><stop offset="1" stop-opacity="0"/></linearGradient><radialGradient id="i" cx="605.71" cy="486.65" gradientTransform="matrix(.012049 0 0 .0082353 13.239 16.981)" gradientUnits="userSpaceOnUse" r="117.14" xlink:href="#h"/><radialGradient id="j" cx="605.71" cy="486.65" gradientTransform="matrix(-.012049 0 0 .0082353 10.761 16.981)" gradientUnits="userSpaceOnUse" r="117.14" xlink:href="#h"/><linearGradient id="k" gradientTransform="matrix(.035207 0 0 .0082353 -.72485 16.981)" gradientUnits="userSpaceOnUse" x1="302.86" x2="302.86" y1="366.65" y2="609.51"><stop offset="0" stop-opacity="0"/><stop offset=".5"/><stop offset="1" stop-opacity="0"/></linearGradient><linearGradient id="l" gradientUnits="userSpaceOnUse" x1="16" x2="16" y1="4" y2="20"><stop offset="0" stop-color="#f4f4f4"/><stop offset="1" stop-color="#dbdbdb"/></linearGradient><linearGradient id="m" gradientUnits="userSpaceOnUse" x1="3" x2="21" y1="12" y2="12"><stop offset="0" stop-opacity=".31783"/><stop offset="1" stop-opacity=".24031"/></linearGradient><path d="m3.5 3.5h17v17h-17z" fill="url(#l)"/><path d="m3.5 3.5h17v17h-17z" fill="none" stroke="url(#m)"/><path d="m3.5 20h17v2h-17z" fill="url(#k)" opacity=".15"/><path d="m3.5 20v1.9999c-.6205.004-1.5-.448-1.5-1s.6924-1 1.5-1z" fill="url(#j)" opacity=".15"/><path d="m20.5 20v1.9999c.62047.0038 1.5-.44807 1.5-1.0001 0-.552-.6924-.99982-1.5-.99982z" fill="url(#i)" opacity=".15"/><g fill="none"><g opacity=".7" stroke="#2c465d" stroke-opacity=".32418"><path d="m5.5 4v16" opacity=".7"/><path d="m20 18.5h-16" opacity=".7"/><path d="m20 9.5h-16" opacity=".7"/><path d="m10.5 4v16" opacity=".7"/><path d="m15.5 4v16" opacity=".7"/><path d="m20 12.5h-16" opacity=".7"/><path d="m20 15.5h-16" opacity=".7"/><path d="m20 6.5h-16" opacity=".7"/></g><path d="m5.5 6.5h10v12h-10z" stroke="#e25757" stroke-dasharray="1 1" stroke-dashoffset=".5"/><path d="m19.511 19.5h-15.011v-15h15z" stroke="url(#g)" stroke-linecap="round"/></g><g transform="translate(-.000465 8)"><path d="m2.8684 14.499c.0073.35961.029665.91477.34211.99126 3.3006.01952 6.2781.0028 9.579.0084.34064.01588.35312-.62103.34211-.99966h-10.263z" fill="none" stroke="#000" stroke-linecap="square" stroke-opacity=".501961" stroke-width=".99971"/><path d="m1.2252 6.5169h13.55c.40178 0 .72523.34771.72523.77962v6.2035h-15v-6.2035c0-.43191.32345-.77962.72522-.77962z" style="opacity:.71;fill:none;stroke:#393939;stroke-width:.99993;stroke-linecap:round;stroke-linejoin:round"/><path d="m12 8h2v2h-2z" fill="#0cceff" stroke-linecap="round"/><path d="m1.394996 3.505859-.748047 3.050781h.34961c-.28894.102652-.496094.394308-.496094.740234v6.203126h15v-6.203126c0-.330984-.189513-.61293-.458984-.726562h.285156l-.714844-3.060547z" fill="url(#a)"/><path d="m.64718 6.5559.74742-3.0509 13.216.0036.715 3.0637z" fill="none" opacity=".7" stroke="#393939"/><path d="m1.000465 7h14v1h-14z" fill="#fff" opacity=".2"/><g fill="#e9e9e9"><path d="m13 11v3.506c0 .274-.07.494-.156.494h-9.6878c-.0865 0-.1562-.22-.1562-.494v-3.506z" stroke-width="1.9872"/><path d="m3.500465.5 9.009135-.000131-.009135 5.000131h-9z" stroke="#000" stroke-linejoin="round" stroke-opacity=".501961"/><path d="m11.511465 4.5h-7.011v-3h7z" fill="none" stroke="url(#b)" stroke-linecap="round"/></g></g><path d="m16.5 16.5v-3h4v3h3v4h-3v3h-4v-3h-3v-4z" fill="url(#d)" stroke="#206b00" stroke-linecap="round" stroke-linejoin="round" stroke-opacity=".501961"/><g fill="none"><path d="m17.5 18.004v-3.504h2v3.5m0 1v3.5h-2v-3.5" opacity=".5" stroke="url(#e)"/><path d="m20 17.507 2.5-.007v2l-2.5.007m-3 0-2.5-.007v-2l2.5.007" opacity=".5" stroke="url(#f)"/></g></svg>