<svg height="24" width="24" xmlns="http://www.w3.org/2000/svg" xmlns:xlink="http://www.w3.org/1999/xlink"><linearGradient id="a" gradientUnits="userSpaceOnUse" x1="2.744795" x2="2.744795" y1="3.237437" y2="21.237438"><stop offset="0" stop-color="#ffa154"/><stop offset="1" stop-color="#f37329"/></linearGradient><path d="m13.5.5-4.5957031 1.0605469 1.4160161 1.4160156-6.8027349 6.8027344c-.3080741-.1825137-.6594988-.2789701-1.0175781-.2792969-1.1045695 0-2 .895431-2 2s.8954305 2 2 2c.3580793-.000327.709504-.09678 1.0175781-.279297l6.7773439 6.777344-1.4160158 1.416015 4.5957028 1.060547-1.060547-4.595703-1.412109 1.41211-6.7792968-6.779297c.0936894-.159972.1646816-.332194.2109376-.511719h11.5664062v2l4-2.5-4-2.5v2h-11.5644531c-.0470412-.178952-.1186881-.35051-.2128907-.509766l6.8046878-6.8066402 1.412109 1.4121093z" fill="url(#a)" fill-rule="evenodd"/></svg>