<svg height="24" viewBox="0 0 6.3499999 6.3500002" width="24" xmlns="http://www.w3.org/2000/svg" xmlns:xlink="http://www.w3.org/1999/xlink"><linearGradient id="a" gradientTransform="matrix(0 -.38494639 -.38533611 0 16.876555 20.029486)" gradientUnits="userSpaceOnUse" x1="46.836357" x2="-6.417813" y1="12.655329" y2="12.655329"><stop offset="0" stop-color="#cd9ef7"/><stop offset="1" stop-color="#a56de2"/></linearGradient><linearGradient id="b" gradientTransform="matrix(0 -1 -1 0 18.99996 22.99996)" gradientUnits="userSpaceOnUse" x1="17.03125" x2="4.99996" y1="12" y2="11.99996"><stop offset="0" stop-color="#fff"/><stop offset=".15625" stop-color="#fff" stop-opacity=".235294"/><stop offset=".69799721" stop-color="#fff" stop-opacity=".196078"/><stop offset=".83376676" stop-color="#fff" stop-opacity=".963235"/><stop offset=".83376676" stop-color="#fff" stop-opacity=".164706"/><stop offset="1" stop-color="#fff" stop-opacity=".156863"/><stop offset="1" stop-color="#fff" stop-opacity=".392157"/></linearGradient><g transform="scale(.26458333)"><path d="m7 2.5-4.5 5 2 .00391-.00195 11.992184h.00195v.002h5v-.002l7 .0039v2l5-4.5-5-4.5v2l-7-.0039v-6.9921878l2-.0039062z" fill="url(#a)" stroke="#7239b3" stroke-linecap="round" stroke-linejoin="round" stroke-opacity=".501961"/><path d="m6.9746094 3.9375-2.2075865 2.5585938.7329771.0039062c.037787 3.9613-.044998 8.044766 0 12h12l.0098.625996 2.4902-2.125996-2.490234-2.226563-.009766.726563h-9v-9l.6484394-.00391z" fill="none" opacity=".5" stroke="url(#b)"/></g></svg>