<svg height="24" width="24" xmlns="http://www.w3.org/2000/svg" xmlns:xlink="http://www.w3.org/1999/xlink"><linearGradient id="a"><stop offset="0" stop-color="#ce5c00"/><stop offset="1" stop-color="#ce5c00" stop-opacity="0"/></linearGradient><linearGradient id="b" gradientUnits="userSpaceOnUse" x1="-208.391" x2="-209.063" xlink:href="#a" y1="-491.641" y2="-491.641"/><linearGradient id="c"><stop offset="0" stop-color="#fcaf3e"/><stop offset="1" stop-color="#fcaf3e" stop-opacity="0"/></linearGradient><linearGradient id="d" gradientUnits="userSpaceOnUse" x1="-208.184" x2="-208.828" xlink:href="#c" y1="-491.453" y2="-491.453"/><linearGradient id="e" gradientUnits="userSpaceOnUse" x1="187.609" x2="186.937" xlink:href="#a" y1="489.359" y2="489.359"/><linearGradient id="f" gradientUnits="userSpaceOnUse" x1="187.816" x2="187.172" xlink:href="#c" y1="489.547" y2="489.547"/><path d="m13.5 17.5v-12h7v12z" fill="#d3d7cf" stroke="#888a85" stroke-linejoin="round" stroke-miterlimit="3"/><path d="m3.496 20.5v-18h7.004v18z" fill="#d3d7cf" fill-rule="evenodd" stroke="#888a85" stroke-linejoin="round" stroke-miterlimit="0"/><path d="m4.5 19.5v-16h5v16z" fill="none" stroke="#fff" stroke-linecap="round" stroke-miterlimit="2"/><path d="m14.5 16.5v-10h5v10z" fill="none" stroke="#fff" stroke-miterlimit="3"/><g stroke-linejoin="round" stroke-miterlimit="0"><path d="m186.5 489.5h3v2h-3z" fill="url(#f)" stroke="url(#e)" transform="translate(-186 -479)"/><path d="m5.5 10.5h3v2h-3zm5 0h3v2h-3zm5 0h3v2h-3z" fill="#fcaf3e" stroke="#ce5c00"/><path d="m-209.5-491.5h3v2h-3z" fill="url(#d)" stroke="url(#b)" transform="matrix(-1 0 0 -1 -186 -479)"/></g></svg>