<svg viewBox="0 0 24 24" xmlns="http://www.w3.org/2000/svg" xmlns:xlink="http://www.w3.org/1999/xlink"><radialGradient id="a" cx="2.25" cy="16" gradientTransform="matrix(.24703348 0 0 .11633788 11.552099 18.431487)" gradientUnits="userSpaceOnUse" r="16.875"><stop offset="0"/><stop offset="1" stop-opacity="0"/></radialGradient><linearGradient id="b" gradientTransform="matrix(-1 0 0 -1 24.623024 23.944528)" gradientUnits="userSpaceOnUse" x1="20.406403" x2="4.673276" y1="18.700178" y2="18.535519"><stop offset="0" stop-opacity=".339506"/><stop offset="1" stop-opacity=".246914"/></linearGradient><linearGradient id="c" gradientTransform="matrix(-.38494639 0 0 -.38533611 21.65255 21.821123)" gradientUnits="userSpaceOnUse" x1="5.229343" x2="46.471813" y1="7.006358" y2="7.373119"><stop offset="0" stop-color="#f4f4f4"/><stop offset="1" stop-color="#dbdbdb"/></linearGradient><linearGradient id="d" gradientUnits="userSpaceOnUse" x1="6.901951" x2="18.463242" y1="12.143163" y2="11.970065"><stop offset="0" stop-color="#fff"/><stop offset=".06682547" stop-color="#fff" stop-opacity=".235294"/><stop offset="1" stop-color="#fff" stop-opacity=".156863"/><stop offset="1" stop-color="#fff" stop-opacity=".392157"/></linearGradient><ellipse cx="12.107924" cy="20.292894" display="block" fill="url(#a)" fill-rule="evenodd" opacity=".521" rx="4.16869" ry="1.963204"/><g stroke-linecap="round" stroke-linejoin="round" transform="matrix(0 1 -1 0 24.014108 -1.007266)"><path d="m8.5058886 7.4204339-4.5039062 4.5351561 4.5546874 4.837891v-2.28711l3.9487682-.0071h.0078 3.935546l.05078 2.28711 4.503906-4.837891-4.503906-4.5351561v2.0859375h-3.986328-.0078l-3.9995494.00712z" fill="url(#c)" stroke="url(#b)"/><path d="m17.455078 9.7890625a.99764154.99764154 0 0 1 -.955078.7089845h-3.986328-.0078l-3.9980465.0059a.99764154.99764154 0 0 1 -.9550911-.7090251l-2.1640625 2.1777341 2.1914062 2.328125a.99764154.99764154 0 0 1 .9746094-.792969l3.9492185-.0059a.99764154.99764154 0 0 1 .002 0h.0078 3.935547a.99764154.99764154 0 0 1 .980469.822266l2.191406-2.353516z" fill="none" stroke="url(#d)"/></g></svg>