<svg viewBox="0 0 24 24" xmlns="http://www.w3.org/2000/svg" xmlns:xlink="http://www.w3.org/1999/xlink"><radialGradient id="a" cx="2.25" cy="16" gradientTransform="matrix(.32019532 0 0 .11633788 5.284839 18.921152)" gradientUnits="userSpaceOnUse" r="16.875"><stop offset="0"/><stop offset="1" stop-opacity="0"/></radialGradient><linearGradient id="b" gradientUnits="userSpaceOnUse" x1="3.605552" x2="17.501177" y1="3.700791" y2="18.624076"><stop offset="0" stop-color="#eeeeec"/><stop offset="1" stop-color="#e0e0de"/></linearGradient><ellipse cx="6.005279" cy="20.782558" display="block" fill="url(#a)" fill-rule="evenodd" opacity=".245" rx="5.403296" ry="1.963204"/><path d="m16.235309 3.5293659v2.1176496h-1.058825c-4.093416 0-7.4117726 3.3183676-7.4117726 7.4117735 0 1.754314-1.42215 3.176474-3.176475 3.176474h-1.058825v4.2353h1.058825c4.093417 0 7.4117736-3.318368 7.4117736-7.411774 0-1.754314 1.42215-3.1764742 3.176474-3.1764742h1.058825v2.1176492l4.2353-4.2352988z" fill="url(#b)" stroke="#888a85" stroke-linejoin="round"/><path d="m4.4583682 19.433768v-2.12132c3.5339547.083944 4.3845914-2.978544 4.4583682-5.752733 1.5263346-4.7190274 5.7633916-5.1130397 7.9397946-4.9849754l.157794-.7789683 2.041603 1.9887121-1.959525 1.9775021-.049113-.9107494-.508183-.0420471c-2.622214.040215-5.247748.342218-5.608914 4.692073-.776959 5.412637-4.9074893 5.763182-6.4718248 5.932506z" fill="none" stroke="#fdfdfb"/></svg>