<svg viewBox="0 0 24 24" xmlns="http://www.w3.org/2000/svg" xmlns:xlink="http://www.w3.org/1999/xlink"><radialGradient id="a" cx="2.25" cy="16" gradientTransform="matrix(.51676082 0 0 .11633788 12.455932 16.099118)" gradientUnits="userSpaceOnUse" r="16.875"><stop offset="0"/><stop offset="1" stop-opacity="0"/></radialGradient><linearGradient id="b" gradientTransform="matrix(0 -1 -1 0 18.99996 22.99996)" gradientUnits="userSpaceOnUse" x1="17.03125" x2="5.03125" y1="12" y2="11.96875"><stop offset="0" stop-color="#fff"/><stop offset=".15625" stop-color="#fff" stop-opacity=".235294"/><stop offset=".69799721" stop-color="#fff" stop-opacity=".196078"/><stop offset=".7890625" stop-color="#fff" stop-opacity=".963235"/><stop offset=".86330861" stop-color="#fff" stop-opacity=".164706"/><stop offset="1" stop-color="#fff" stop-opacity=".156863"/><stop offset="1" stop-color="#fff" stop-opacity=".392157"/></linearGradient><linearGradient id="c" gradientTransform="matrix(0 -1 -1 0 18.99996 22.99996)" gradientUnits="userSpaceOnUse" x1="5" x2="20.114407" y1="17" y2="16.811106"><stop offset="0" stop-opacity=".339506"/><stop offset="1" stop-opacity=".246914"/></linearGradient><linearGradient id="d" gradientTransform="matrix(0 -.38494639 -.38533611 0 16.876555 20.029486)" gradientUnits="userSpaceOnUse" x1="44.722389" x2="5.37125" y1="13.211452" y2="13.566376"><stop offset="0" stop-color="#eeeeec"/><stop offset="1" stop-color="#e0e0de"/></linearGradient><ellipse cx="13.618645" cy="17.960526" display="block" fill="url(#a)" fill-rule="evenodd" opacity=".521" rx="8.720339" ry="1.963204"/><g transform="translate(3 -1)"><path d="m4.5 3.5039062v10.9921878h-.00195v5h.00195v.002h5v-.002l4.023981.05393v2.273437l4.97461-4.824219-5.001576-4.591817v2.097656l-3.997015-.008987v-10.9921878z" fill="url(#d)" stroke="url(#c)" stroke-linecap="round" stroke-linejoin="round"/><path d="m5.524434 4.5072574-.0166219 13.9771176h.00391v.01953l8.9536689.0071.01953.761719 2.605469-2.248047-2.65625-2.251953-.01953.6875-5.9185119.01834.0127119-10.9713066z" fill="none" stroke="url(#b)"/></g></svg>