<svg height="24" width="24" xmlns="http://www.w3.org/2000/svg" xmlns:xlink="http://www.w3.org/1999/xlink"><linearGradient id="a"><stop offset="0" stop-color="#555"/><stop offset="1" stop-color="#666"/></linearGradient><linearGradient id="b" gradientUnits="userSpaceOnUse" x1="17" x2="17" xlink:href="#a" y1="57" y2="35"/><linearGradient id="c" gradientUnits="userSpaceOnUse" x1="15" x2="15" xlink:href="#a" y1="52" y2="30"/><linearGradient id="d" gradientUnits="userSpaceOnUse" x1="13" x2="13" xlink:href="#a" y1="47" y2="25"/><linearGradient id="e" gradientUnits="userSpaceOnUse" x1="19" x2="19" xlink:href="#a" y1="42" y2="20"/><g transform="translate(0 -25)"><path d="m6.5 43.5v2h15v-2z" fill="url(#b)"/><path d="m6.5 43.5v2h15v-2z" fill="none" opacity=".61" stroke="#000" stroke-linejoin="round"/><path d="m4.5 38.5v2h17v-2z" fill="url(#c)"/><path d="m4.5 38.5v2h17v-2z" fill="none" opacity=".61" stroke="#000" stroke-linejoin="round"/><path d="m2.5 33.5v2h19v-2z" fill="url(#d)"/><path d="m2.5 33.5v2h19v-2z" fill="none" opacity=".61" stroke="#000" stroke-linejoin="round"/><path d="m8.5 28.5v2h13v-2z" fill="url(#e)"/><path d="m8.5 28.5v2h13v-2z" fill="none" opacity=".61" stroke="#000" stroke-linejoin="round"/><g fill="#fff"><path d="m21 29v.5h-11v.5h-1v-1z" opacity=".2"/><path d="m21 34v.5h-17v.5h-1v-1z" opacity=".2"/><path d="m21 39v.5h-15v.5h-1v-1z" opacity=".2"/><path d="m21 44v.5h-13v.5h-1v-1z" opacity=".2"/></g></g></svg>