<svg viewBox="0 0 24 24" xmlns="http://www.w3.org/2000/svg" xmlns:xlink="http://www.w3.org/1999/xlink"><linearGradient id="a" gradientTransform="matrix(-1 0 0 -1 24.623024 23.944528)" gradientUnits="userSpaceOnUse" x1="9.623024" x2="9.623024" y1="6.944528" y2="16.944529"><stop offset="0" stop-opacity=".339506"/><stop offset="1" stop-opacity=".246914"/></linearGradient><linearGradient id="b" gradientTransform="matrix(-.38494639 0 0 -.38533611 21.65255 21.821123)" gradientUnits="userSpaceOnUse" x1="38.063873" x2="37.746555" y1="12.511475" y2="39.486301"><stop offset="0" stop-color="#f4f4f4"/><stop offset="1" stop-color="#dbdbdb"/></linearGradient><linearGradient id="c" gradientUnits="userSpaceOnUse" x1="13.044941" x2="13.027359" y1="10.994114" y2="13.119114"><stop offset="0" stop-color="#fff"/><stop offset=".02590172" stop-color="#fff" stop-opacity=".235294"/><stop offset="1" stop-color="#fff" stop-opacity=".156863"/><stop offset="1" stop-color="#fff" stop-opacity=".392157"/></linearGradient><radialGradient id="d" cx="2.25" cy="16" gradientTransform="matrix(.45796702 0 0 .11633788 11.772446 12.539024)" gradientUnits="userSpaceOnUse" r="16.875"><stop offset="0"/><stop offset="1" stop-opacity="0"/></radialGradient><ellipse cx="12.802872" cy="14.400433" display="block" fill="url(#d)" fill-rule="evenodd" opacity=".521" rx="7.728194" ry="1.963204"/><g stroke-linecap="round" stroke-linejoin="round"><path d="m8.5058886 7.4204339-4.5039062 4.5351561 4.5546874 4.837891v-2.28711l3.9487682-.0071h.0078 3.935546l.05078 2.28711 4.503906-4.837891-4.503906-4.5351561v2.0859375h-3.986328-.0078l-3.9995494.00712z" fill="url(#b)" stroke="url(#a)"/><path d="m17.455078 9.7890625a.99764154.99764154 0 0 1 -.955078.7089845h-3.986328-.0078l-3.9980465.0059a.99764154.99764154 0 0 1 -.9550911-.7090251l-2.1640625 2.1777341 2.1914062 2.328125a.99764154.99764154 0 0 1 .9746094-.792969l3.9492185-.0059a.99764154.99764154 0 0 1 .002 0h.0078 3.935547a.99764154.99764154 0 0 1 .980469.822266l2.191406-2.353516z" fill="none" stroke="url(#c)"/></g></svg>