<?xml version="1.0" encoding="UTF-8" standalone="no"?>
<svg xmlns:rdf="http://www.w3.org/1999/02/22-rdf-syntax-ns#" xmlns="http://www.w3.org/2000/svg" height="24" width="24" version="1.1" xmlns:cc="http://creativecommons.org/ns#" xmlns:xlink="http://www.w3.org/1999/xlink" xmlns:dc="http://purl.org/dc/elements/1.1/">
 <metadata>
  <rdf:RDF>
   <cc:Work rdf:about="">
    <dc:format>image/svg+xml</dc:format>
    <dc:type rdf:resource="http://purl.org/dc/dcmitype/StillImage"/>
    <dc:title/>
   </cc:Work>
  </rdf:RDF>
 </metadata>
 <linearGradient id="a" y2="32.596" gradientUnits="userSpaceOnUse" y1="14.916" gradientTransform="matrix(.39097 0 0 .47004 2.6647 8.4424)" x2="24" x1="24">
  <stop stop-color="#fff" offset="0"/>
  <stop stop-color="#fff" stop-opacity=".23529" offset=".12291"/>
  <stop stop-color="#fff" stop-opacity=".15686" offset=".93706"/>
  <stop stop-color="#fff" stop-opacity=".39216" offset="1"/>
 </linearGradient>
 <radialGradient id="b" xlink:href="#c" gradientUnits="userSpaceOnUse" cy="8.4498" cx="10.904" gradientTransform="matrix(0 .74552 -.67881 0 18.739 5.8187)" r="20"/>
 <linearGradient id="c">
  <stop stop-color="#5f5f5f" offset="0"/>
  <stop stop-color="#4f4f4f" offset=".26238"/>
  <stop stop-color="#3b3b3b" offset=".70495"/>
  <stop stop-color="#2b2b2b" offset="1"/>
 </linearGradient>
 <linearGradient id="d" y2="3.899" xlink:href="#e" gradientUnits="userSpaceOnUse" y1="44" gradientTransform="matrix(.53695 0 0 .53022 .11618 7.0296)" x2="24" x1="24"/>
 <linearGradient id="e">
  <stop stop-color="#272727" offset="0"/>
  <stop stop-color="#454545" offset="1"/>
 </linearGradient>
 <linearGradient id="f" y2="41.412" gradientUnits="userSpaceOnUse" y1="6.5889" gradientTransform="matrix(.40541 0 0 .45946 2.2703 8.9727)" x2="24.107" x1="24.107">
  <stop stop-color="#fff" offset="0"/>
  <stop stop-color="#fff" stop-opacity=".23529" offset="0"/>
  <stop stop-color="#fff" stop-opacity=".15686" offset="1"/>
  <stop stop-color="#fff" stop-opacity=".39216" offset="1"/>
 </linearGradient>
 <radialGradient id="g" xlink:href="#c" gradientUnits="userSpaceOnUse" cy="8.4498" cx="7.4957" gradientTransform="matrix(0 1.1385 -.98890 -2e-8 19.656 2.2494)" r="20"/>
 <linearGradient id="h" y2="3.899" xlink:href="#e" gradientUnits="userSpaceOnUse" y1="44" gradientTransform="matrix(0.4 0 0 .48718 1.7 8.3074)" x2="24" x1="24"/>
 <radialGradient id="i" gradientUnits="userSpaceOnUse" cy="6.6476" cx="24.502" gradientTransform="matrix(0 1.2712 -1.4973 0 22.453 -20.791)" r="17.498">
  <stop stop-color="#ddcfbd" offset="0"/>
  <stop stop-color="#856f50" offset="1"/>
 </radialGradient>
 <linearGradient id="j" y2="61.482" gradientUnits="userSpaceOnUse" y1="4.6482" gradientTransform="matrix(.32957 0 0 .34141 1.9537 8.8264)" x2="32.901" x1="32.901">
  <stop stop-color="#a79071" offset="0"/>
  <stop stop-color="#6f5d45" offset="1"/>
 </linearGradient>
 <linearGradient id="k" y2="3" xlink:href="#l" gradientUnits="userSpaceOnUse" y1="1" gradientTransform="matrix(0.4 0 0 0.5 .90002 8.2497)" x2="10.654" x1="10.654"/>
 <linearGradient id="l">
  <stop stop-color="#eee" offset="0"/>
  <stop stop-color="#d9d9da" offset="1"/>
 </linearGradient>
 <linearGradient id="m" y2="3.899" xlink:href="#e" gradientUnits="userSpaceOnUse" y1="44" gradientTransform="matrix(0.4 0 0 .051282 1.7001 8.2689)" x2="24" x1="24"/>
 <linearGradient id="n" y2="4.497" xlink:href="#l" gradientUnits="userSpaceOnUse" y1="3.3805" gradientTransform="matrix(.52589 0 0 1.0165 -.25845 5.508)" x2="24.64" x1="24.64"/>
 <linearGradient id="o" y2=".065302" gradientUnits="userSpaceOnUse" y1=".065302" gradientTransform="matrix(.37517 0 0 .49377 .22912 8.1438)" x2="54.887" x1="10.199">
  <stop stop-color="#9b876c" offset="0"/>
  <stop stop-color="#9b876c" offset=".93373"/>
  <stop stop-color="#c2c2c2" offset=".94248"/>
  <stop stop-color="#c2c2c2" offset="1"/>
 </linearGradient>
 <radialGradient id="p" xlink:href="#q" gradientUnits="userSpaceOnUse" cy="43.5" cx="4.993" gradientTransform="matrix(2.0038 0 0 1.4 27.988 -17.4)" r="2.5"/>
 <linearGradient id="q">
  <stop stop-color="#181818" offset="0"/>
  <stop stop-color="#181818" stop-opacity="0" offset="1"/>
 </linearGradient>
 <radialGradient id="r" xlink:href="#q" gradientUnits="userSpaceOnUse" cy="43.5" cx="4.993" gradientTransform="matrix(2.0038 0 0 1.4 -20.012 -104.4)" r="2.5"/>
 <linearGradient id="s" y2="39.999" gradientUnits="userSpaceOnUse" y1="47.028" x2="25.058" x1="25.058">
  <stop stop-color="#181818" stop-opacity="0" offset="0"/>
  <stop stop-color="#181818" offset=".5"/>
  <stop stop-color="#181818" stop-opacity="0" offset="1"/>
 </linearGradient>
 <mask id="t">
  <path d="m303.54 125.91h23.375v22.5h-23.375z" fill="url(#u)"/>
 </mask>
 <linearGradient id="u" y2="141.2" gradientUnits="userSpaceOnUse" y1="138.9" x2="317.62" x1="316.47">
  <stop stop-color="#fff" offset="0"/>
  <stop offset="1"/>
 </linearGradient>
 <g transform="translate(0 -8)">
  <g opacity=".4" transform="matrix(.52632 0 0 .42857 -.63158 10.857)">
   <path d="m38 40h5v7h-5z" fill="url(#p)"/>
   <path transform="scale(-1)" d="m-10-47h5v7h-5z" fill="url(#r)"/>
   <path d="m10 40h28v7h-28z" fill="url(#s)"/>
  </g>
  <g stroke-linejoin="round">
   <path d="m20.491 10.304c-0.15472-0.65506-0.058276-1.1709-0.14375-1.7957h-15.839l0.093482 1.9826" stroke="url(#o)" stroke-miterlimit="0" stroke-width="1.0174" fill="url(#n)"/>
   <g stroke-linecap="round">
    <path stroke="url(#m)" d="m5.5001 10.5h-1.6c-0.22834 0-0.4-0.02116-0.4-0.04878v-1.3982c0-0.44396 0.22361-0.553 0.51636-0.553h1.4836" fill="url(#k)"/>
    <path d="m4.5095 10.51h15.981v18.981h-15.981z" stroke="url(#j)" stroke-miterlimit="0" stroke-width="1.019" fill="url(#i)"/>
    <path stroke="url(#h)" d="m5.5 10.5v19h-1.6c-0.22834 0-0.4-0.2011-0.4-0.46341v-18.537z" fill="url(#g)"/>
    <path opacity=".5" stroke="url(#f)" d="m4.5 11.5h15v17h-15z" fill="none"/>
   </g>
  </g>
  <path opacity=".4" fill-rule="evenodd" d="m12.952 15c-0.35994-0.002-0.67599 0.06301-0.89112 0.19779-0.27754 0.17387-0.3999 0.19594-0.47738 0.07607-0.07413-0.11468-0.14155-0.10186-0.20687 0.06086-0.05523 0.13762-0.1707 0.20044-0.30235 0.15214-0.12552-0.04605-0.17699-0.03121-0.1273 0.04565 0.04774 0.07388 0.0244 0.13693-0.04774 0.13693-0.07215 0-0.30319 0.23304-0.50921 0.51729-0.32842 0.45311-0.38199 0.6602-0.38191 1.6127 0.000044 0.59763 0.06262 1.1795-0.1273 1.2171-0.11139 0.02205-0.10079 0.43744-0.04774 0.86722 0.069373 0.56201 0.17301 0.83733 0.46147 1.0954 0.4493 0.402 0.85929 1.0979 0.85929 1.4758 0 0.51769-1.2635 1.4237-3.1536 2.2509l3e-7 1.294h9.9991l0.000943-1.4288c-1.5693-0.68244-2.8681-1.6267-2.8681-2.1161 0-0.377 0.39453-1.0742 0.84338-1.4758 0.28846-0.2581 0.40801-0.53342 0.47739-1.0954 0.05305-0.42978 0.06023-0.83292-0.04774-0.86722-0.14876-0.04727-0.14321-0.62441-0.14321-1.2171 0-0.84963-0.05656-1.1658-0.28643-1.5214-0.45741-0.70762-1.9436-1.2719-3.0234-1.278z" fill="#fff"/>
  <path stroke-linejoin="round" d="m12.953 14.522c-0.51177-0.11246-1.1249 0.23344-1.1249 0.23344l-0.55056 0.25871s-0.5966 0.48979-0.60298 0.65618c-0.33581 0.55906-0.18275 1.2365-0.2168 1.8481 0.03272 0.52508-0.35552 0.91437-0.16078 1.4468-0.02841 0.51402 0.42184 0.81548 0.7113 1.1873 0.32577 0.47035 0.76818 1.0841 0.41977 1.6469-0.64406 0.87817-1.7148 1.3436-2.6924 1.822-0.3321 0.03198-0.20707 0.33189-0.22931 0.5457-0.0005288 0.17004-0.060002 0.39545 0.20527 0.31583h8.7887v-0.88262c-0.94638-0.45085-1.9341-0.93381-2.5975-1.7355-0.39853-0.53699 0.000912-1.1822 0.31544-1.6597 0.24488-0.3977 0.75672-0.65181 0.76404-1.1589 0.18821-0.51448-0.0958-0.94036-0.14882-1.4311-0.06931-0.65055 0.11825-1.3619-0.21202-1.9672-0.44781-0.61937-1.2681-0.8906-2.0124-1.0567-0.21591-0.04096-0.43555-0.06771-0.65605-0.06932z" stroke="url(#d)" stroke-linecap="round" fill="url(#b)"/>
  <path opacity=".5" stroke-linejoin="round" d="m12.842 15.501c-0.08288-0.008-0.21153 0.02739-0.39726 0.11148-0.13748 0.06224-0.34052 0.11632-0.54795 0.15329l0.0137 0.01394c-0.0026 0.0013-0.14288 0.0806-0.23288 0.13935-0.01731 0.0113-0.02644 0.0041-0.04109 0.01393-0.0046 0.0061-0.01127 0.01125-0.0137 0.01393-0.05937 0.06531-0.17527 0.20114-0.26028 0.34838-0.08879 0.15382-0.12937 0.32029-0.12329 0.36232a0.40846 0.41552 0 0 1 0.0137 0.09755c-0.03919 0.42562 0.09158 1.0013-0.10959 1.6444a0.40846 0.41552 0 0 1 -0.0274 0.08362c-0.07646 0.13192-0.01893 0.57445 0.10959 0.9058 0.42089 0.45041 0.93133 1.0505 0.91781 1.8673a0.40846 0.41552 0 0 1 -0.0137 0.09755c-0.22238 0.77537-0.90785 1.1489-1.3425 1.4632a0.40846 0.41552 0 0 1 -0.0137 0.01394c-0.40829 0.27508-0.84396 0.45339-1.274 0.66889h7c-0.79876-0.38178-1.5897-0.83278-2.2192-1.5329-0.0045-0.005-0.0093-0.0089-0.0137-0.01393-0.29344-0.31038-0.35266-0.73568-0.28767-1.073 0.06384-0.33139 0.21383-0.60903 0.35616-0.83612 0.0048-0.0078 0.0088-0.02025 0.0137-0.02787 0.14336-0.26244 0.32001-0.4418 0.43836-0.58528 0.12328-0.14946 0.17452-0.23124 0.17808-0.34838a0.40846 0.41552 0 0 1 0.0274 -0.11148c0.04401-0.13515 0.02538-0.24321-0.0137-0.41806-0.03833-0.17148-0.11494-0.40153-0.13699-0.68283-0.000433-0.0055 0.000389-0.0084 0-0.01393-0.03645-0.36498 0.0068-0.69359 0-0.97547-0.0068-0.28036-0.05771-0.48456-0.17808-0.65496-0.0015-0.0017 0.0015-0.01221 0-0.01394-0.4271-0.45016-1.1296-0.68112-1.7945-0.71071a0.40846 0.41552 0 0 1 -0.0274 0z" stroke="url(#a)" stroke-linecap="round" fill="none"/>
 </g>
</svg>
