<svg viewBox="0 0 24 24" xmlns="http://www.w3.org/2000/svg" xmlns:xlink="http://www.w3.org/1999/xlink"><linearGradient id="a" gradientTransform="matrix(.83333414 0 0 .83331957 8.749979 -321.91099)" gradientUnits="userSpaceOnUse" x1="12.197592" x2="15.698984" xlink:href="#c" y1="401.09631" y2="404.59772"/><linearGradient id="b"><stop offset="0" stop-color="#d3d7cf"/><stop offset="1" stop-color="#fafbfa"/></linearGradient><linearGradient id="c" xlink:href="#b"/><linearGradient id="d" gradientTransform="matrix(.75000013 0 0 .7500627 9.874988 -288.40021)" gradientUnits="userSpaceOnUse" x1="12.816311" x2="12.816311" xlink:href="#e" y1="400.38895" y2="406.51099"/><linearGradient id="e"><stop offset="0" stop-color="#fff"/><stop offset="1" stop-color="#fff" stop-opacity="0"/></linearGradient><linearGradient id="f" gradientTransform="matrix(.85712858 0 0 .8571574 12.285705 -346.21427)" gradientUnits="userSpaceOnUse" x1="-10.833526" x2="-6.166779" xlink:href="#b" y1="423.15933" y2="423.15933"/><linearGradient id="g" gradientTransform="matrix(.83333414 0 0 .83331957 -4.250021 -329.91099)" gradientUnits="userSpaceOnUse" x1="12.197592" x2="15.698984" xlink:href="#c" y1="401.09631" y2="404.59772"/><linearGradient id="h" gradientTransform="matrix(.75000013 0 0 .7500627 -3.125012 -296.40021)" gradientUnits="userSpaceOnUse" x1="12.816311" x2="12.816311" xlink:href="#e" y1="400.38895" y2="406.51099"/><linearGradient id="i" gradientTransform="matrix(.83333414 0 0 .83331957 -6.250021 -316.91099)" gradientUnits="userSpaceOnUse" x1="12.197592" x2="15.698984" xlink:href="#c" y1="401.09631" y2="404.59772"/><g stroke-linecap="round"><path d="m5 19 2-14 13 8z" fill="none" stroke="#555753" stroke-linejoin="round" stroke-width="2"/><path d="m4.4999819 3.0000475h5.0000022v4.9999123h-5.0000022z" fill="url(#g)" stroke="#888a85" stroke-linejoin="round"/><path d="m5.4999798 3.9998877h3.0000031v3.0001376h-3.0000031z" fill="none" stroke="url(#h)"/><path d="m2.4999819 16.000048h5.0000022v4.999912h-5.0000022z" fill="url(#i)" stroke="#888a85" stroke-linejoin="round"/><path d="m3.4999798 16.999888h3.0000031v3.000137h-3.0000031z" fill="none" stroke="url(#f)"/><path d="m17.499982 11.000048h5.000002v4.999912h-5.000002z" fill="url(#a)" stroke="#888a85" stroke-linejoin="round"/><path d="m18.49998 11.999888h3.000003v3.000137h-3.000003z" fill="none" stroke="url(#d)"/></g></svg>