<svg height="24" viewBox="0 0 6.3499999 6.3500002" width="24" xmlns="http://www.w3.org/2000/svg" xmlns:xlink="http://www.w3.org/1999/xlink"><radialGradient id="a" cx="2.25" cy="16" gradientTransform="matrix(.479894 0 0 .11633788 10.772975 15.813237)" gradientUnits="userSpaceOnUse" r="16.875"><stop offset="0"/><stop offset="1" stop-opacity="0"/></radialGradient><linearGradient id="b" gradientTransform="matrix(.94967397 0 0 .57566701 2.032112 8.013621)" gradientUnits="userSpaceOnUse" x1="1.874201" x2="13.835211" xlink:href="#c" y1="1.235899" y2="19.171432"/><linearGradient id="c"><stop offset="0" stop-color="#cd9ef7"/><stop offset="1" stop-color="#a56de2"/></linearGradient><linearGradient id="d" gradientUnits="userSpaceOnUse" x1="11.82739" x2="13.674336" xlink:href="#c" y1="1.151902" y2="7.314151"/><linearGradient id="e" gradientUnits="userSpaceOnUse" x1="12.223952" x2="12.389831" y1="1.290192" y2="6.542373"><stop offset="0" stop-color="#fff"/><stop offset=".09079903" stop-color="#fff" stop-opacity=".235294"/><stop offset="1" stop-color="#fff" stop-opacity=".156863"/><stop offset="1" stop-color="#fff" stop-opacity=".392157"/></linearGradient><g fill-rule="evenodd" transform="matrix(.26458333 0 0 .26458333 0 .52917)"><ellipse cx="11.852736" cy="17.674644" display="block" fill="url(#a)" opacity=".433333" rx="8.098211" ry="1.963204"/><g stroke-linejoin="round"><path d="m19.5 14c0 2.550211-3.292935 4.617565-7.5 4.617565s-7.5-2.067354-7.5-4.617565v-10.5h15z" fill="url(#b)" stroke="#7239b3" stroke-opacity=".501961"/><path d="m19.5 4c0 2.4845527-3.328089 4.4986806-7.5 4.4986808-4.1719112 0-7.5-2.014128-7.5-4.4986808.0000001-2.4845528 3.3280888-4.49868072 7.5-4.49868072 4.171911.00000016 7.5 2.01412802 7.5 4.49868072z" fill="url(#d)" stroke="#7239b3" stroke-opacity=".501961"/><path d="m18.5 4c0 1.9402321-2.902914 3.5131011-6.5 3.5131011-3.5970864 0-6.5-1.5728689-6.5-3.5131011s2.9029136-3.5 6.5-3.5c3.597086.00000003 6.5 1.5597679 6.5 3.5z" fill="none" opacity=".4" stroke="url(#e)"/></g></g></svg>