<svg height="24" width="24" xmlns="http://www.w3.org/2000/svg" xmlns:xlink="http://www.w3.org/1999/xlink"><linearGradient id="a" gradientTransform="matrix(.92855424 0 0 .92855416 2.253786 .343938)" gradientUnits="userSpaceOnUse" x1="11.745763" x2="11.949151" y1="1.457627" y2="18.491526"><stop offset="0" stop-color="#cd9ef7"/><stop offset="1" stop-color="#a56de2"/></linearGradient><linearGradient id="b" gradientUnits="userSpaceOnUse" x1="12.38983" x2="12.339483" y1="3.898305" y2="15.193048"><stop offset="0" stop-color="#fff"/><stop offset=".22518992" stop-color="#fff" stop-opacity=".235294"/><stop offset="1" stop-color="#fff" stop-opacity=".156863"/><stop offset="1" stop-color="#fff" stop-opacity=".392157"/></linearGradient><radialGradient id="c" cx="2.25" cy="16" gradientTransform="matrix(.479894 0 0 .11633788 10.772975 15.813237)" gradientUnits="userSpaceOnUse" r="16.875"><stop offset="0"/><stop offset="1" stop-opacity="0"/></radialGradient><g fill-rule="evenodd" transform="translate(0 2)"><ellipse cx="11.852736" cy="17.674644" display="block" fill="url(#c)" opacity=".433333" rx="8.098211" ry="1.963204"/><g stroke-linejoin="round"><path d="m20.454811 10a8.4548111 8.4548111 0 0 1 -8.454811 8.454811 8.4548111 8.4548111 0 0 1 -8.4548111-8.454811 8.4548111 8.4548111 0 0 1 8.4548111-8.4548111 8.4548111 8.4548111 0 0 1 8.454811 8.4548111z" fill="url(#a)" stroke="#7239b3" stroke-opacity=".501961" stroke-width="1.090377"/><path d="m19.44816 10a7.4481602 7.4481592 0 0 1 -7.44816 7.448159 7.4481602 7.4481592 0 0 1 -7.4481602-7.448159 7.4481602 7.4481592 0 0 1 7.4481602-7.4481592 7.4481602 7.4481592 0 0 1 7.44816 7.4481592z" fill="none" opacity=".5" stroke="url(#b)" stroke-width="1.103681"/></g></g></svg>