<svg viewBox="0 0 24 24" xmlns="http://www.w3.org/2000/svg" xmlns:xlink="http://www.w3.org/1999/xlink"><radialGradient id="a" cx="12.053909" cy="1.848812" gradientTransform="matrix(.10527131 3.1624612 -2.7897643 .09286508 15.942727 -36.4429)" gradientUnits="userSpaceOnUse" r="5"><stop offset="0" stop-color="#cdf87e"/><stop offset=".262" stop-color="#a2e34f"/><stop offset=".661" stop-color="#68b723"/><stop offset="1" stop-color="#1d7e0d"/></radialGradient><linearGradient id="b" gradientTransform="matrix(1.29412 0 0 1 1.706 -13)" gradientUnits="userSpaceOnUse" x1="-16" x2="1" y1="423.455" y2="423.455"><stop offset="0" stop-color="#555753" stop-opacity="0"/><stop offset=".2" stop-color="#555753"/><stop offset=".8" stop-color="#555753"/><stop offset="1" stop-color="#555753" stop-opacity="0"/></linearGradient><linearGradient id="c" gradientTransform="matrix(1.29412 0 0 1.00524 1.706 -15.21)" gradientUnits="userSpaceOnUse" x1="-16" x2=".587" y1="423.586" y2="423.586"><stop offset="0" stop-color="#babdb6" stop-opacity="0"/><stop offset=".2" stop-color="#babdb6"/><stop offset=".844" stop-color="#babdb6"/><stop offset="1" stop-color="#babdb6" stop-opacity="0"/></linearGradient><linearGradient id="d" gradientUnits="userSpaceOnUse" x1="-9.76586" x2="-6.362118" y1="424.133553" y2="427.538268"><stop offset="0" stop-color="#d3d7cf"/><stop offset="1" stop-color="#fafbfa"/></linearGradient><linearGradient id="e" gradientUnits="userSpaceOnUse" x1="-9.098" x2="-9.098" y1="423.650375" y2="429.007125"><stop offset="0" stop-color="#fff"/><stop offset="1" stop-color="#fff" stop-opacity="0"/></linearGradient><path d="m-19 409h22v3h-22z" fill="url(#b)" transform="translate(19.982 -392.968)"/><path d="m-19 410.005h22v1.005h-22z" fill="url(#c)" transform="translate(19.982 -392.968)"/><g stroke-linecap="round" stroke-width="1.167"><path d="m-11.417 422.583h5.834v5.834h-5.834z" fill="url(#d)" stroke="#888a85" stroke-linejoin="round" transform="matrix(.85715 0 0 .85715 19.268 -347.683)"/><path d="m-10.25 423.75h3.5v3.5h-3.5z" fill="none" stroke="url(#e)" transform="matrix(.85715 0 0 .85715 19.268 -347.683)"/></g><path d="m10.482 3.533v3h-3v3h3v3h3v-3h3v-3h-3v-3z" style="stroke-linecap:round;stroke-linejoin:round;stroke-miterlimit:3;stroke:#0f5a00;stroke-opacity:.721569;fill:url(#a)"/><path d="m8.482 7.533h2c.5 0 1-.5 1-1v-2h1m1 3h2m-4 2v2" fill="none" opacity=".7" stroke="#fff" stroke-linecap="square"/></svg>