<svg height="24" width="24" xmlns="http://www.w3.org/2000/svg" xmlns:xlink="http://www.w3.org/1999/xlink"><linearGradient id="a" gradientTransform="matrix(.3673 0 0 .36733 15.431 .868)" gradientUnits="userSpaceOnUse" x1="-17.508848" x2="-17.508848" y1="35.74987" y2="41.194565"><stop offset="0" stop-color="#fff"/><stop offset=".00000007" stop-color="#fff" stop-opacity=".235"/><stop offset=".63202661" stop-color="#fff" stop-opacity=".157"/><stop offset="1" stop-color="#fff" stop-opacity=".392"/></linearGradient><linearGradient id="b" gradientTransform="matrix(.99801056 0 0 1.0626878 -14.968169 10.982075)" gradientUnits="userSpaceOnUse" x1="23.314552" x2="23.915749" y1="1.428383" y2="4.251413"><stop offset="0" stop-opacity=".339506"/><stop offset="1" stop-opacity=".246914"/></linearGradient><linearGradient id="c" gradientUnits="userSpaceOnUse" x1="16.049862" x2="19.998526" y1="11.108873" y2="14.771616"><stop offset="0" stop-color="#fce94f"/><stop offset="1" stop-color="#d7b031"/></linearGradient><radialGradient id="d" cx="16.3125" cy="20.9375" gradientTransform="matrix(1 0 0 .17346939 0 17.305485)" gradientUnits="userSpaceOnUse" r="6.125"><stop offset="0"/><stop offset="1" stop-opacity="0"/></radialGradient><g transform="translate(-4.135329 -5)"><path d="m12 15 4 4 7-7c.611853-.503879 0-1 0-1l-3-3s-.460129-.5398707-1 0z" fill="none" stroke="#bf830a" stroke-linejoin="round" stroke-width="2"/><path d="m12 15 4 4 7-7c.683836-.503879 0-1 0-1l-3-3s-.496121-.5758621-1 0z" fill="url(#c)" fill-rule="evenodd"/><path d="m12 15v2l2 2h2z" fill="none" stroke="#838383" stroke-linejoin="round" stroke-width="2"/><path d="m12 15v2l2 2h2z" fill="#cecece" fill-rule="evenodd"/><path d="m9 21h2l1-1-1-1z" fill="none" stroke="#bf830a" stroke-linejoin="round" stroke-width="2"/><path d="m11.75 18.09375-.75.90625 1 1 .84375-.65625z" fill="none" stroke="#838383" stroke-width="2"/><ellipse cx="16.3125" cy="20.9375" fill="url(#d)" opacity=".1" rx="6.125" ry="1.0625"/><path d="m11.75 18.09375-.75.90625 1 1 .84375-.65625z" fill="#cecece" fill-rule="evenodd"/><path d="m9 21h2l1-1-1-1z" fill="#fce94f" fill-rule="evenodd"/><g fill="none" stroke-linecap="round"><path d="m13.36056 14.418534 6.21875-6.2187496" opacity=".5" stroke="#fff"/><path d="m12.298707 16.85-.0056-1.129095" opacity=".5" stroke="#fff"/><g stroke="#000"><path d="m16.548276 17.678232 6.21875-6.21875" opacity=".1"/><path d="m14.309052 18.477801.871552.316164" opacity=".1"/></g></g></g><g transform="matrix(1.4375 0 0 1.6666667 .5 -3.166667)"><path d="m0 13h.64v3h-.64z" fill="#ff0909"/><path d="m.64 13h.64v3h-.64z" fill="#ff2c09"/><path d="m1.28 13h.64v3h-.64z" fill="#ffb509"/><path d="m1.92 13h.64v3h-.64z" fill="#ffc109"/><path d="m2.56 13h.64v3h-.64z" fill="#adff09"/><path d="m3.2 13h.64v3h-.64z" fill="#92ff09"/><path d="m3.84 13h.64v3h-.64z" fill="#84ff09"/><path d="m4.48 13h.64v3h-.64z" fill="#43ff09"/><path d="m5.12 13h.64v3h-.64z" fill="#09ff11"/><path d="m5.76 13h.64v3h-.64z" fill="#09ff59"/><path d="m6.4 13h.64v3h-.64z" fill="#09ff68"/><path d="m7.04 13h.64v3h-.64z" fill="#09ff68"/><path d="m7.68 13h.64v3h-.64z" fill="#09ffa9"/><path d="m8.32 13h.64v3h-.64z" fill="#09ffff"/><path d="m8.96 13h.64v3h-.64z" fill="#09d2ff"/><path d="m9.6 13h.64v3h-.64z" fill="#0985ff"/><path d="m10.24 13h.64v3h-.64z" fill="#0947ff"/><path d="m10.88 13h.64v3h-.64z" fill="#092fff"/><path d="m11.52 13h.64v3h-.64z" fill="#5c09ff"/><path d="m12.16 13h.64v3h-.64z" fill="#8d09ff"/><path d="m12.8 13h.64v3h-.64z" fill="#cb09ff"/><path d="m13.44 13h.64v3h-.64z" fill="#b709ff"/><path d="m14.08 13h.64v3h-.64z" fill="#f709ff"/><path d="m14.72 13h.64v3h-.64z" fill="#ff099d"/><path d="m15.36 13h.64v3h-.64z" fill="#ff0951"/></g><g fill="none" stroke-linecap="square" transform="translate(0 6)"><path d="m1.5 13.5h21v3h-21z" opacity=".6" stroke="url(#a)"/><path d="m.5 12.5h23v5h-23z" stroke="url(#b)"/></g></svg>