<svg viewBox="0 0 24 24" xmlns="http://www.w3.org/2000/svg" xmlns:xlink="http://www.w3.org/1999/xlink"><linearGradient id="a" gradientUnits="userSpaceOnUse" x1="162.09949" x2="162.09949" y1="414.01666" y2="409.02002"><stop offset="0" stop-color="#555753"/><stop offset="1" stop-color="#555753" stop-opacity="0"/></linearGradient><linearGradient id="b" gradientUnits="userSpaceOnUse" x1="162.2023" x2="162.2023" xlink:href="#c" y1="414.66092" y2="409.06992"/><linearGradient id="c"><stop offset="0" stop-color="#babdb6"/><stop offset="1" stop-color="#babdb6" stop-opacity="0"/></linearGradient><linearGradient id="d" gradientUnits="userSpaceOnUse" x1="162.2023" x2="162.2023" xlink:href="#c" y1="413.94385" y2="409.06992"/><linearGradient id="e" gradientTransform="matrix(1.166667 0 0 1.160582 -23.75 -54.04044)" gradientUnits="userSpaceOnUse" x1="12.197592" x2="15.698984" y1="401.09631" y2="404.59772"><stop offset="0" stop-color="#d3d7cf"/><stop offset="1" stop-color="#fafbfa"/></linearGradient><linearGradient id="f" gradientUnits="userSpaceOnUse" x1="-8.6875" x2="-8.6875" y1="410.10919" y2="417.38632"><stop offset="0" stop-color="#fff"/><stop offset="1" stop-color="#fff" stop-opacity="0"/></linearGradient><g transform="matrix(-1 0 0 -1 181.01645 430)"><path d="m161.03293 410.03293c0 5.25074 2.60178 7.96707 7.96707 7.96707" fill="none" stroke="url(#a)" stroke-linecap="round" stroke-width="4"/><path d="m160.1824 408.71875c0 5.47203 2.80351 10.20866 8.91265 10.20866" fill="none" stroke="url(#b)" stroke-linecap="round"/></g><g transform="translate(-157.01645 -406)"><path d="m161.03293 410.03293c0 5.25074 2.60178 7.96707 7.96707 7.96707" fill="none" stroke="url(#a)" stroke-linecap="round" stroke-width="4"/><path d="m161.09505 408.71875c0 5.27607 1.89086 8.83969 8 8.83969" fill="none" stroke="url(#d)" stroke-linecap="round"/></g><g transform="matrix(1 0 0 1.005236 19.98355 -403.25668)"><path d="m-11.500002 409.61195h7.0000013v6.96349h-7.0000013z" fill="url(#e)" stroke="#888a85" stroke-linecap="round" stroke-linejoin="round" stroke-width=".997392"/><path d="m-10.499999 410.60685h4.9999994v4.9739h-4.9999994z" fill="none" stroke="url(#f)" stroke-linecap="round" stroke-width=".997393"/></g></svg>