<svg height="24" viewBox="0 0 6.3499999 6.3500002" width="24" xmlns="http://www.w3.org/2000/svg" xmlns:xlink="http://www.w3.org/1999/xlink"><radialGradient id="a" cx="2.25" cy="16" gradientTransform="matrix(.53333333 0 0 .11633788 10.8 15.813237)" gradientUnits="userSpaceOnUse" r="16.875"><stop offset="0"/><stop offset="1" stop-opacity="0"/></radialGradient><linearGradient id="b" gradientUnits="userSpaceOnUse" x1="15.406779" x2="15.644068" y1="4.491526" y2="18.016949"><stop offset="0" stop-color="#cd9ef7"/><stop offset="1" stop-color="#a56de2"/></linearGradient><linearGradient id="c" gradientUnits="userSpaceOnUse" x1="13" x2="13" y1="5" y2="17"><stop offset="0" stop-color="#fff"/><stop offset="0" stop-color="#fff" stop-opacity=".235294"/><stop offset="1" stop-color="#fff" stop-opacity=".156863"/><stop offset="1" stop-color="#fff" stop-opacity=".392157"/></linearGradient><linearGradient id="d" gradientUnits="userSpaceOnUse" x1="3.000071" x2="21.999929" xlink:href="#b" y1="2" y2="2"/><linearGradient id="e" gradientUnits="userSpaceOnUse" x1="15.406779" x2="15.644068" xlink:href="#b" y1="4.491526" y2="18.016949"/><g transform="matrix(.26458333 0 0 .26458333 0 .52917)"><path d="m6.5.5h15v15h-15z" fill="none" stroke="#7239b3" stroke-linecap="round" stroke-linejoin="round" stroke-opacity=".501961"/><ellipse cx="12" cy="17.674644" display="block" fill="url(#a)" fill-rule="evenodd" opacity=".711111" rx="9" ry="1.963204"/><path d="m3.5 3.5h15v15h-15z" fill="url(#e)" stroke="#7239b3" stroke-linecap="round" stroke-linejoin="round" stroke-opacity=".501961"/><path d="m4.5 4.5h13v13h-13z" fill="none" opacity=".5" stroke="url(#c)"/><g fill-rule="evenodd" stroke="#7239b3" stroke-linejoin="round" stroke-opacity=".501961" stroke-width="1.027786"><path d="m18.5 3.5 3-3v15l-3 3z" fill="#a56de2"/><path d="m18.5 3.5 3-3h-15l-3 3z" fill="url(#d)" stroke-width="1"/></g></g></svg>