<svg height="24" width="24" xmlns="http://www.w3.org/2000/svg" xmlns:xlink="http://www.w3.org/1999/xlink"><radialGradient id="a" cx="27.125" cy="45.625" gradientTransform="matrix(.488889 0 0 .111111 -.261112 12.430563)" gradientUnits="userSpaceOnUse" r="22.5"><stop offset="0" stop-color="#50534b" stop-opacity=".463918"/><stop offset="1" stop-color="#50534b" stop-opacity="0"/></radialGradient><linearGradient id="b" gradientTransform="matrix(.373813 -.222635 .215821 .385616 -31.164741 22.900457)" gradientUnits="userSpaceOnUse" x1="99.879044" x2="110.0342" y1=".175914" y2="43.479088"><stop offset="0" stop-color="#f4f4f4"/><stop offset="1" stop-color="#dbdbdb"/></linearGradient><g transform="translate(0 2)"><g fill-rule="evenodd"><ellipse cx="13.000003" cy="17.500002" fill="url(#a)" rx="11.000003" ry="2.499998"/><path d="m9.6966829 4.4844685s-5.2446178.055146-5.2446178.055146c-2.0835573.084231-1.9473999 1.9200606-1.9382584 2.3360057v6.2906498c-.1546796 1.757732 3.0876304 1.839655 2.9639828.0248l.0193923-6.0163792z" fill="#fcaf3e" stroke="#ce5c00"/><path d="m5.4097343 7.1266479 5.9081087 10.5562291c.453801.736613 1.183381 1.019764 1.886689.643733l8.574343-5.106699c.652207-.458065.954668-1.318389.538163-2.071856l-5.914856-10.56828082z" fill="url(#b)" stroke="#80827d"/><ellipse cx="7.392499" cy="14.066022" fill="#fcaf3e" rx="1.927186" ry="1.913933" stroke="#80827d" stroke-linecap="round" stroke-width="1.045637" transform="matrix(.86839481 -.49587343 .50413844 .86362286 0 0)"/></g><path d="m6.6986011 7.4065048 4.9843879 9.2341342c.520358.928793.911435 1.116514 1.768689.606472l7.286146-4.371634c.853231-.507649 1.032048-.994643.501307-1.941976l-5.121411-9.065877z" fill="none" stroke="#fff" stroke-width=".935906"/><path d="m13.537071 6.5980208v-5.74425952c0-3.18436398 6.042447-3.08624868 6.042447.1325825v4.85830632" fill="none" stroke="#80827d" stroke-linecap="round"/></g></svg>