<svg height="24" viewBox="0 0 6.3499999 6.3500002" width="24" xmlns="http://www.w3.org/2000/svg" xmlns:xlink="http://www.w3.org/1999/xlink"><radialGradient id="a" cx="2.25" cy="16" gradientTransform="matrix(.479894 0 0 .11633788 10.772975 15.813237)" gradientUnits="userSpaceOnUse" r="16.875"><stop offset="0"/><stop offset="1" stop-opacity="0"/></radialGradient><linearGradient id="b" gradientUnits="userSpaceOnUse" x1="12" x2="12" y1="1.5" y2="18.5"><stop offset="0" stop-color="#cd9ef7"/><stop offset="1" stop-color="#a56de2"/></linearGradient><linearGradient id="c" gradientUnits="userSpaceOnUse" x1="-8.5" x2="-8.5" y1="7" y2="17"><stop offset="0" stop-color="#fff"/><stop offset=".30000001" stop-color="#fff" stop-opacity=".235294"/><stop offset="1" stop-color="#fff" stop-opacity=".156863"/><stop offset="1" stop-color="#fff" stop-opacity=".392157"/></linearGradient><g fill-rule="evenodd" transform="matrix(.26458333 0 0 .26458333 0 .52917)"><ellipse cx="11.852736" cy="17.674644" display="block" fill="url(#a)" opacity=".433333" rx="8.098211" ry="1.963204"/><g stroke-linecap="square"><path d="m12 1.5a8.5 8.5 0 0 0 -8.5 8.5 8.5 8.5 0 0 0 8.5 8.5 8.5 8.5 0 0 0 8.5-8.5 8.5 8.5 0 0 0 -.017578-.5h-7.982422v-7.9746094a8.5 8.5 0 0 0 -.5-.0253906z" fill="url(#b)" stroke="#7239b3" stroke-opacity=".501961"/><path d="m11.5 4.5175781a7.5 7.5 0 0 0 -7 7.4824219 7.5 7.5 0 0 0 7.5 7.5 7.5 7.5 0 0 0 7.474609-7h-7.974609z" fill="none" opacity=".48" stroke="url(#c)" transform="translate(0 -2)"/></g></g></svg>