<svg viewBox="0 0 24 24" xmlns="http://www.w3.org/2000/svg" xmlns:xlink="http://www.w3.org/1999/xlink"><radialGradient id="a" cx="2.25" cy="16" gradientTransform="matrix(.27629593 0 0 .07867314 -19.143345 19.95619)" gradientUnits="userSpaceOnUse" r="16.875"><stop offset="0"/><stop offset="1" stop-opacity="0"/></radialGradient><ellipse cx="-18.521679" cy="21.214962" display="block" fill="url(#a)" fill-rule="evenodd" opacity=".268" rx="4.662494" ry="1.327611" transform="scale(-1 1)"/><g fill="#ce5c00"><path d="m6 5h12v1h-12z"/><path d="m6 19h12v1h-12z"/><path d="m6 12h12v1h-12z"/><path d="m18 5v1a3 3 0 0 1 3 3 3 3 0 0 1 -3 3v1a4 4 0 0 0 4-4 4 4 0 0 0 -4-4z"/><path d="m6 12v1a3 3 0 0 0 -3 3 3 3 0 0 0 3 3v1a4 4 0 0 1 -4-4 4 4 0 0 1 4-4z"/><circle cx="5" cy="5" r="2"/><circle cx="19" cy="19" r="2"/></g></svg>