<svg height="24" width="24" xmlns="http://www.w3.org/2000/svg" xmlns:xlink="http://www.w3.org/1999/xlink"><linearGradient id="a" gradientTransform="matrix(.2502023 -.7175237 .7175237 .2502023 -440.80327 141.5896)" gradientUnits="userSpaceOnUse" x1="371.03683" x2="345.4321" y1="501.16919" y2="510.09763"><stop offset="0" stop-color="#cd9ef7"/><stop offset="1" stop-color="#a56de2"/></linearGradient><linearGradient id="b" gradientUnits="userSpaceOnUse" x1="13" x2="13" y1="2" y2="4.784064"><stop offset="0" stop-color="#fff"/><stop offset=".5" stop-color="#fff" stop-opacity=".235294"/><stop offset="1" stop-color="#fff" stop-opacity=".156863"/><stop offset="1" stop-color="#fff" stop-opacity=".392157"/></linearGradient><linearGradient id="c" gradientUnits="userSpaceOnUse" x1="9" x2="4.844184" y1="6.526636" y2="16.352354"><stop offset="0" stop-color="#fff"/><stop offset=".04552736" stop-color="#fff" stop-opacity=".235294"/><stop offset="1" stop-color="#fff" stop-opacity=".156863"/><stop offset="1" stop-color="#fff" stop-opacity=".392157"/></linearGradient><linearGradient id="d" gradientUnits="userSpaceOnUse" x1="17" x2="20.446054" y1="7" y2="15.74026"><stop offset="0" stop-color="#fff"/><stop offset=".04277762" stop-color="#fff" stop-opacity=".235294"/><stop offset="1" stop-color="#fff" stop-opacity=".156863"/><stop offset="1" stop-color="#fff" stop-opacity=".392157"/></linearGradient><path d="m11.716797 10.976562a1.0250168 1.0250168 0 0 0 -.298828.0625l-10.77539088 4a1.0250168 1.0250168 0 0 0 -.66796875.960938v1.5a1.0250168 1.0250168 0 0 0 .56640625.916016l11.00000038 5.5a1.0250168 1.0250168 0 0 0 .917968 0l11-5.5a1.0250168 1.0250168 0 0 0 .566407-.916016v-1.5a1.0250168 1.0250168 0 0 0 -.681641-.964844l-11.224609-4a1.0250168 1.0250168 0 0 0 -.402344-.05859z" opacity=".05"/><path d="m12 23 11-5.5v-1.5l-11.22405-4-10.77595 4v1.5z" opacity=".1"/><path d="m12 21.5 10.5191-4.9665v-12.0335l-10.74315-4-10.27595 4v12.0335z" fill="url(#a)"/><path d="m12 9-10.5-4.5.06945 11.9005 10.43055 5.0995z" fill="#fff" opacity=".2"/><path d="m0-.9499h24v24h-24z" fill="none"/><path d="m1.5 4.5 10.5 4.5 10.5191-4.4123999-10.5191-4.0876001z" fill="#fff" fill-rule="evenodd" opacity=".4"/><g fill="none"><path d="m3.2637209 4.8387027 8.7362791 3.6965227 8.668258-3.7239113-8.668258-3.1974141z" opacity=".9" stroke="url(#b)" stroke-opacity=".659483"/><path d="m2.5 5v10.8923l8.9967 4.323179.0066-11.3661129" opacity=".6" stroke="url(#c)" stroke-opacity=".448276"/><path d="m21.5 4.8117513v11.1099487l-9.5 4.5783" opacity=".5" stroke="url(#d)" stroke-opacity=".448276"/><path d="m12 21.5 10.5191-4.9665v-12.0335l-10.74585-3.9312-10.27325 3.9312v12.0335z" opacity=".55" stroke="#7239b3" stroke-linecap="round"/></g></svg>