<svg height="24" viewBox="0 0 6.3499999 6.3500002" width="24" xmlns="http://www.w3.org/2000/svg" xmlns:xlink="http://www.w3.org/1999/xlink"><linearGradient id="a" gradientUnits="userSpaceOnUse" x1="4.5" x2="4.5" y1="3.5" y2="7.5"><stop offset="0" stop-color="#cd9ef7"/><stop offset="1" stop-color="#a56de2"/></linearGradient><linearGradient id="b" gradientUnits="userSpaceOnUse" x1="-3.5" x2="-3.5" y1="2" y2="3"><stop offset="0" stop-color="#fff"/><stop offset=".49771357" stop-color="#fff" stop-opacity=".235294"/><stop offset=".74999994" stop-color="#fff" stop-opacity=".156863"/><stop offset="1" stop-color="#fff" stop-opacity=".392157"/></linearGradient><radialGradient id="c" cx="2.25" cy="16" gradientTransform="matrix(.27629593 0 0 .07867314 -19.143345 20.95619)" gradientUnits="userSpaceOnUse" r="16.875"><stop offset="0"/><stop offset="1" stop-opacity="0"/></radialGradient><g transform="scale(.26458333)"><path d="m19 19.5h-7.5v-14h-6.5" fill="none" stroke="#7239b3"/><path d="m6.5 5.5a2 2 0 0 1 -2 2 2 2 0 0 1 -2-2 2 2 0 0 1 2-2 2 2 0 0 1 2 2z" fill="url(#a)" stroke="#7239b3" stroke-linecap="square" stroke-opacity=".74902"/><path d="m5.5 5.5a1 1 0 0 1 -1 1 1 1 0 0 1 -1-1 1 1 0 0 1 1-1 1 1 0 0 1 1 1z" fill="none" opacity=".5" stroke="url(#b)" stroke-linecap="square" stroke-opacity=".74902"/><ellipse cx="-18.521679" cy="22.214962" display="block" fill="url(#c)" fill-rule="evenodd" opacity=".268" rx="4.662494" ry="1.327611" transform="scale(-1 1)"/><g stroke-linecap="square" stroke-opacity=".74902" transform="translate(14 14)"><path d="m6.5 5.5a2 2 0 0 1 -2 2 2 2 0 0 1 -2-2 2 2 0 0 1 2-2 2 2 0 0 1 2 2z" fill="url(#a)" stroke="#7239b3"/><path d="m5.5 5.5a1 1 0 0 1 -1 1 1 1 0 0 1 -1-1 1 1 0 0 1 1-1 1 1 0 0 1 1 1z" fill="none" opacity=".5" stroke="url(#b)"/></g></g></svg>