<svg height="24" width="24" xmlns="http://www.w3.org/2000/svg" xmlns:xlink="http://www.w3.org/1999/xlink"><linearGradient id="a" gradientUnits="userSpaceOnUse" x1="7.979" x2="8.182" y1="-.386" y2="15.208"><stop offset="0" stop-color="#64baff"/><stop offset="1" stop-color="#3689e6"/></linearGradient><g stroke-linejoin="round" stroke-miterlimit="0" stroke-width=".749996" transform="matrix(1.33334 0 0 1.33334 1.499995 1.166565)"><path d="m10.25.25c-2.867 0-5.1530798 2.452543-5.4070798 5.254543l5.6570308-.00449.009 5.612088c2.801989-.254004 5.241049-2.495141 5.241049-5.362141 0-3.036-2.464-5.5-5.5-5.5zm.25894 10.862137c-.165.014-.33.03-.5.03-3.0360001 0-5.1960198-2.101594-5.1960198-5.137594 0-.17.016-.335.03-.5l-4.0929202-.0044943v9.7499513h9.749951z" fill="url(#a)" stroke="#002e99"/><path d="m10.25.95507812c-2.6433054 0-4.7320017 2.40615948-4.7320017 5.04946488 0 .085277.015627.1333046.025391.2050781h-3.7304691c-.1629867-.0002558-.358098.1274409-.3578421.2904276v7.7499513c-.0002559.162987.1319351.295178.2949219.294922h7.7499513c.1629868.000256.2951779-.131935.294922-.294922l.00899-3.838332c.07163.0096.120546.02539.2050777.02539 2.643305 0 5.035982-2.0437536 5.035982-4.687059s-2.151617-4.79492188-4.794922-4.79492088z" fill="none" opacity=".3" stroke="#fff"/></g></svg>