<svg viewBox="0 0 24 24" xmlns="http://www.w3.org/2000/svg" xmlns:xlink="http://www.w3.org/1999/xlink"><radialGradient id="a" cx="2.25" cy="16" gradientTransform="matrix(.53241645 0 0 .07867314 10.732789 18.695534)" gradientUnits="userSpaceOnUse" r="16.875"><stop offset="0"/><stop offset="1" stop-opacity="0"/></radialGradient><linearGradient id="b" gradientUnits="userSpaceOnUse" x1="3.107676" x2="17.231304" y1="4.24726" y2="15.337987"><stop offset="0" stop-color="#eeeeec"/><stop offset="1" stop-color="#e0e0de"/></linearGradient><ellipse cx="11.930727" cy="19.954306" display="block" fill="url(#a)" fill-rule="evenodd" opacity=".358" rx="8.984529" ry="1.327611"/><path d="m6.705882 4.5882001-3.17647 3.1764706 3.17647 3.1764703v-2.1176468h10.058824c.877161 0 1.588235.7110742 1.588235 1.5882348 0 .877162-.711074 1.588236-1.588235 1.588236h-9.529412c-2.046703 0-3.705882 1.659179-3.705882 3.705882s1.659179 3.705882 3.705882 3.705882h10.058824v-2.117647h-10.058824c-.877158 0-1.588235-.711077-1.588235-1.588235s.711077-1.588235 1.588235-1.588235h9.529412c2.046706 0 3.705882-1.659177 3.705882-3.705883 0-2.6470403-2.117627-3.7058638-3.705882-3.7058818h-10.058824v-2.1176471z" fill="url(#b)" stroke="#888a85" stroke-linejoin="round"/></svg>