<svg height="24" width="24" xmlns="http://www.w3.org/2000/svg" xmlns:xlink="http://www.w3.org/1999/xlink"><linearGradient id="a" gradientTransform="matrix(0 -1 1 0 0 38)" gradientUnits="userSpaceOnUse" x1="21.853868" x2="17.074223" y1="13.294365" y2="13.222456"><stop offset="0" stop-color="#fad4a1"/><stop offset="1" stop-color="#e6b481"/></linearGradient><linearGradient id="b" gradientTransform="matrix(0 -.33333 .86364 0 -5.705 146.667)" gradientUnits="userSpaceOnUse" x1="384.50485" x2="384.50485" y1="10.079432" y2="30.92145"><stop offset="0" stop-color="#fff"/><stop offset="0" stop-color="#fff" stop-opacity="0"/><stop offset=".99999994" stop-color="#fff" stop-opacity="0"/><stop offset="1" stop-color="#fff" stop-opacity="0"/></linearGradient><linearGradient id="c"><stop offset="0" stop-color="#fff"/><stop offset="1" stop-color="#fff" stop-opacity="0"/></linearGradient><radialGradient id="d" cx="22.571428" cy="30.857143" gradientTransform="matrix(.706422 0 0 .13549598 -5.436479 16.48817)" gradientUnits="userSpaceOnUse" r="15.571428"><stop offset="0"/><stop offset="1" stop-opacity="0"/></radialGradient><linearGradient id="e" gradientTransform="matrix(.72378979 0 0 .72378991 -125.19431 -14.257582)" gradientUnits="userSpaceOnUse" x1="188" x2="188" xlink:href="#c" y1="17" y2="36.026299"/><linearGradient id="f" gradientTransform="matrix(.78298232 0 0 .78095643 -136.09264 -15.739386)" gradientUnits="userSpaceOnUse" x1="182" x2="182" xlink:href="#c" y1="33" y2="24.519934"/><g transform="matrix(0 1 -1 0 38 0)"><path d="m1.5 20.5v-4h21v4z" fill="url(#a)" stroke="#783f07" stroke-opacity=".490196"/><path d="m2.5 19.5v-2h19v2z" fill="none" opacity=".4" stroke="url(#b)"/><path d="m4 17v2h1v-2zm3 0v2h1v-2zm3 0v2h1v-2zm3 0v2h1v-2zm3 0v2h1v-2zm3 0v2h1v-2z" fill="#a1550a" fill-opacity=".25"/></g><ellipse cx="10.508473" cy="20.669189" fill="url(#d)" opacity=".2" rx="10.999999" ry="2.890133"/><g transform="matrix(1.058828 0 0 1.058828 1.939287 7.237614)"><path d="m1.532046-3.540421 16 15.999999h-16zm2.999941 8.499999v4.5h5z" fill="#81d72c" fill-opacity=".588235" fill-rule="evenodd" stroke="#4e9a06" stroke-linejoin="round"/><g fill="none"><path d="m2.531987-1.142631v12.602209h12.60221s-12.60221-12.602209-12.60221-12.602209z" opacity=".5" stroke="url(#e)"/><path d="m3.531987 3.784525v6.675053h7" opacity=".5" stroke="url(#f)"/></g></g></svg>