<svg height="24" width="24" xmlns="http://www.w3.org/2000/svg" xmlns:xlink="http://www.w3.org/1999/xlink"><radialGradient id="a" cx="15" cy="3.75" gradientTransform="matrix(-3.2699 .13625 -.18182 -4.36364 64.73 14.32)" gradientUnits="userSpaceOnUse" r="5.5"><stop offset="0" stop-color="#737373"/><stop offset=".262" stop-color="#636363"/><stop offset=".705" stop-color="#4b4b4b"/><stop offset="1" stop-color="#3f3f3f"/></radialGradient><radialGradient id="b" cx="22.571" cy="30.857" gradientTransform="matrix(.70612 0 0 .1355 -3.458 16.71)" gradientUnits="userSpaceOnUse" r="15.571"><stop offset="0"/><stop offset="1" stop-opacity="0"/></radialGradient><path d="m9 3.514c-1.963 0-3.486 1.828-3.486 3.986s1.523 3.986 3.486 3.986h2.514v8.514a.486.486 0 0 0 .486.486h1a.486.486 0 0 0 .486-.486v-14.514h2.028v14.446a.486.486 0 0 0 .486.486h1a.486.486 0 0 0 .486-.486v-15.932a.486.486 0 0 0 -.486-.486z" fill="url(#a)"/><ellipse cx="12.48" cy="20.89" fill="url(#b)" opacity=".2" rx="10.995" ry="2.11"/><path d="m9 2.975v.025c-2.21 0-4 2.015-4 4.5s1.79 4.5 4 4.5h2v8.932l3 .052v-14.984h1v15h3v-18zm0 1.025h8v15.932h-1v-14.932h-3v15h-1v-9h-3c-1.657 0-3-1.567-3-3.5s1.343-3.5 3-3.5z" fill-opacity=".431"/><path d="m9 4h8v15.932h-1v-14.932h-3v15h-1v-9h-3c-1.657 0-3-1.567-3-3.5s1.343-3.5 3-3.5z" fill="url(#a)"/><path d="m9 4c-1.657 0-3 1.567-3 3.5 0 .17.023.335.043.5.21-1.694 1.447-3 2.957-3h8v-1z" fill="#fff" opacity=".1"/></svg>