<svg viewBox="0 0 24 24" xmlns="http://www.w3.org/2000/svg" xmlns:xlink="http://www.w3.org/1999/xlink"><radialGradient id="a" cx="2.25" cy="16" gradientTransform="matrix(.36066504 0 0 .07867314 16.254823 19.102314)" gradientUnits="userSpaceOnUse" r="16.875"><stop offset="0"/><stop offset="1" stop-opacity="0"/></radialGradient><linearGradient id="b" gradientUnits="userSpaceOnUse" x1="3.770975" x2="15.266834" y1="4.039804" y2="13.033607"><stop offset="0" stop-color="#eeeeec"/><stop offset="1" stop-color="#e0e0de"/></linearGradient><path d="m6.8119812 3.5081084c-1.684255 0-3.049623 1.3653569-3.049623 3.049623s1.365368 3.049623 3.049623 3.049623c1.322846 0 2.436639-.8555718 2.859022-2.033082h1.2071418 5.590976c.842133 0 1.524811.6826784 1.524811 1.5248115 0 .8421332-.682678 1.5248111-1.524811 1.5248111h-9.1488688c-1.964971 0-3.557894 1.592923-3.557894 3.557894 0 1.96497 1.592923 3.557893 3.557894 3.557893h5.5909748 4.066164v2.033082l3.049623-3.049623-3.049623-3.049623v2.033082h-4.066164-5.5909748c-.84213 0-1.524812-.682681-1.524812-1.524811s.682682-1.524812 1.524812-1.524812h9.1488688c1.964974 0 3.557893-1.592919 3.557893-3.5578931 0-1.7944671-1.322516-3.2820647-3.049623-3.5261266v-.031767h-.50827-5.590976-1.2071418c-.422383-1.1775102-1.536176-2.0330819-2.859022-2.0330819zm0 2.033082c.561416 0 1.016541.4551257 1.016541 1.016541 0 .5614152-.455125 1.016541-1.016541 1.016541-.561415 0-1.016541-.4551258-1.016541-1.016541 0-.5614153.455126-1.016541 1.016541-1.016541z" fill="url(#b)" stroke="#888a85" stroke-width="1.017"/><ellipse cx="17.06632" cy="20.361086" display="block" fill="url(#a)" fill-rule="evenodd" opacity=".358" rx="6.086223" ry="1.327611"/></svg>