<svg height="24" width="24" xmlns="http://www.w3.org/2000/svg" xmlns:xlink="http://www.w3.org/1999/xlink"><radialGradient id="a" cx="2.25" cy="16" gradientTransform="matrix(.53333333 0 0 .11633788 10.8 17.175389)" gradientUnits="userSpaceOnUse" r="16.875"><stop offset="0"/><stop offset="1" stop-opacity="0"/></radialGradient><linearGradient id="b" gradientTransform="matrix(.15797213 -.15797208 .15497786 .15497786 9.974762 8.564422)" gradientUnits="userSpaceOnUse" x1="39.401215" x2="-33.29887" y1="-5.301917" y2="68.80278"><stop offset="0" stop-color="#90dbec"/><stop offset=".26238" stop-color="#55c1ec"/><stop offset=".704952" stop-color="#3689e6"/><stop offset="1" stop-color="#2b63a0"/></linearGradient><linearGradient id="c" gradientTransform="matrix(.15797213 -.15797208 .15497786 .15497786 9.974762 8.564422)" gradientUnits="userSpaceOnUse" x1="32.325527" x2="20.060635" y1="5.020115" y2="56.921478"><stop offset="0" stop-color="#fff"/><stop offset="1" stop-color="#fff" stop-opacity="0"/></linearGradient><g transform="translate(0 2)"><ellipse cx="12" cy="19.036797" display="block" fill="url(#a)" fill-rule="evenodd" opacity=".336" rx="9" ry="1.963204"/><rect fill="none" height="16.940289" rx="2.470145" stroke="#888a85" stroke-linecap="round" stroke-linejoin="round" stroke-width="1.059712" width="16.940289" x="3.529856" y="1.529856"/><rect fill="none" height="14.937314" rx="1.468657" stroke="#ededeb" stroke-width="1.062686" width="14.937313" x="4.531344" y="2.531343"/><path d="m6 16 12-12" fill="#ededeb" fill-rule="evenodd" stroke="#ededeb" stroke-linecap="round" stroke-linejoin="bevel"/><g transform="translate(.414834 8.000782)"><path d="m17.488281 2.2285156-.0059 1.2949219c-1.205547.022065-2.347989.4202871-3.263672 1.3164063-1.862791 1.8229904-1.914689 4.8211025-.08008 6.5859372 1.425568 1.371347 2.781329 1.319574 3.292969 1.333985.681156.019185 3.799561-.416508 4.611371-3.759766h-1.833985c-.05532 1.196913-3.449157 2.47137-4.607422.9882812-.697369-.8929418-.989146-2.6990723-.007812-3.6503906.39734-.3851869 1.341688-.8853237 1.888672-.9003906l.0059 1.375 1.511678-1.1914062v-.28125h.357422l.925781-.7304688z" fill="url(#b)"/><path d="m17.488281 2.2285156-.0059 1.2949219c-1.205547.022065-2.347989.4202866-3.263672 1.3164063-1.862791 1.8229899-1.859648 4.7656154-.08008 6.5859372.888481.908826 2.044929 1.328612 3.21289 1.34375.196862.0026.386405-.0049.56836-.02148 2.923041-.265777 4.000345-2.679098 4.205121-3.748051h-1.962891c-.239785 1.155214-3.285401 2.638539-4.560547.9882812-.692745-.896534-.989141-2.6990723-.007812-3.6503906.39734-.3851869 1.341688-.8853236 1.888672-.9003906l.0059 1.375 2.794922-2.203125-2.794922-2.3808594z" fill="none" stroke="#559ac6" stroke-linejoin="round" stroke-width=".458365"/><path d="m20.659046 8.7909478c.01271 1.3495162-3.211746 3.6434412-5.366054 1.5353672-1.182065-1.1708296-1.10432-3.3768345-.013678-4.3816931.460236-.4240389 1.173055-.9390744 2.662847-.9390744v.8828367l1.692551-1.2799787-1.692551-1.4321122v.8452517c-1.227876-.055284-2.510736.2525608-3.427859 1.1696841-1.685212 1.6852118-1.590548 4.3743008-.0354 5.9294529.911051.911051 2.039098 1.140678 2.7128 1.20728 2.924439.289114 4.882748-2.310124 4.629556-3.7176927" fill="none" opacity=".4" stroke="url(#c)" stroke-width=".460542"/></g></g></svg>