<svg viewBox="0 0 24 24" xmlns="http://www.w3.org/2000/svg" xmlns:xlink="http://www.w3.org/1999/xlink"><linearGradient id="a" gradientTransform="matrix(-1 0 0 1 24 -14.002734)" gradientUnits="userSpaceOnUse" x1="20" x2="20" y1="17" y2="22"><stop offset="0" stop-color="#cd9ef7"/><stop offset="1" stop-color="#a56de2"/></linearGradient><linearGradient id="b" gradientTransform="matrix(-1 0 0 1 24 -14)" gradientUnits="userSpaceOnUse" x1="19" x2="19" y1="19" y2="20.5"><stop offset="0" stop-color="#fff"/><stop offset=".33333334" stop-color="#fff" stop-opacity=".235294"/><stop offset=".74999994" stop-color="#fff" stop-opacity=".156863"/><stop offset="1" stop-color="#fff" stop-opacity=".392157"/></linearGradient><g fill="#7239b3"><path d="m6 5h12v1h-12z"/><path d="m6.5 3v2.5 2.5l-3.5625-2.5z" fill="url(#a)" fill-rule="evenodd" stroke="#7239b3" stroke-opacity=".74902"/><path d="m5.5 4.923828v.576172.576172l-.822266-.576172z" fill="none" opacity=".5" stroke="url(#b)" stroke-opacity=".970588"/><path d="m6 19h12v1h-12z"/><path d="m6 12h12v1h-12z"/><path d="m18 5v1a3 3 0 0 1 3 3 3 3 0 0 1 -3 3v1a4 4 0 0 0 4-4 4 4 0 0 0 -4-4z"/><path d="m6 12v1a3 3 0 0 0 -3 3 3 3 0 0 0 3 3v1a4 4 0 0 1 -4-4 4 4 0 0 1 4-4z"/></g></svg>