<?xml version="1.0" encoding="UTF-8" standalone="no"?>
<svg
   xmlns:dc="http://purl.org/dc/elements/1.1/"
   xmlns:cc="http://creativecommons.org/ns#"
   xmlns:rdf="http://www.w3.org/1999/02/22-rdf-syntax-ns#"
   xmlns:svg="http://www.w3.org/2000/svg"
   xmlns="http://www.w3.org/2000/svg"
   xmlns:xlink="http://www.w3.org/1999/xlink"
   xmlns:sodipodi="http://sodipodi.sourceforge.net/DTD/sodipodi-0.dtd"
   xmlns:inkscape="http://www.inkscape.org/namespaces/inkscape"
   height="24"
   width="24"
   version="1.1"
   id="svg43"
   sodipodi:docname="lc_contourdialog.svg"
   inkscape:version="0.92.3 (unknown)"
   inkscape:export-filename="/home/rizmut/Dokumen/Rizmut/Github/libreoffice-style-elementary/images_elementary/cmd/lc_wrapleft.png"
   inkscape:export-xdpi="96"
   inkscape:export-ydpi="96">
  <metadata
     id="metadata49">
    <rdf:RDF>
      <cc:Work
         rdf:about="">
        <dc:format>image/svg+xml</dc:format>
        <dc:type
           rdf:resource="http://purl.org/dc/dcmitype/StillImage" />
        <dc:title></dc:title>
      </cc:Work>
    </rdf:RDF>
  </metadata>
  <defs
     id="defs47">
    <linearGradient
       id="d-6"
       gradientTransform="matrix(1.4,0,0,-1.5,0.8,24.75)"
       gradientUnits="userSpaceOnUse"
       x1="6.6890001"
       x2="6.5714288"
       y1="5.48"
       y2="0.5">
      <stop
         offset="0"
         stop-color="#cd9ef7"
         id="stop5006" />
      <stop
         offset="1"
         stop-color="#a56de2"
         id="stop5008" />
    </linearGradient>
    <radialGradient
       inkscape:collect="always"
       xlink:href="#a"
       id="radialGradient5783"
       gradientUnits="userSpaceOnUse"
       gradientTransform="matrix(-2.8642857,1.9e-7,-1.5e-7,-2.1857141,8.778565,-83.012398)"
       cx="-1.598504"
       cy="-37.097179"
       r="10" />
    <mask
       id="g">
      <path
         style="fill:url(#h)"
         inkscape:connector-curvature="0"
         d="m 303.54129,125.90525 h 23.375 v 22.5 h -23.375 z"
         id="path1110" />
    </mask>
    <linearGradient
       id="h"
       gradientUnits="userSpaceOnUse"
       x1="316.47247"
       x2="317.62369"
       y1="138.89748"
       y2="141.19508">
      <stop
         offset="0"
         stop-color="#fff"
         id="stop1113" />
      <stop
         offset="1"
         id="stop1115" />
    </linearGradient>
    <linearGradient
       id="i"
       gradientTransform="matrix(0.7811541,-0.03481362,-0.03481362,0.7811541,70.230423,94.3198)"
       gradientUnits="userSpaceOnUse"
       x1="309.29663"
       x2="335.30014"
       y1="67.297691"
       y2="81.926315">
      <stop
         offset="0"
         stop-color="#d3d7cf"
         id="stop1118" />
      <stop
         offset=".18303643"
         stop-color="#babdb6"
         id="stop1120" />
      <stop
         offset=".31893486"
         stop-color="#fff"
         id="stop1122" />
      <stop
         offset=".87643671"
         stop-color="#babdb6"
         id="stop1124" />
      <stop
         offset="1"
         stop-color="#eeeeec"
         id="stop1126" />
    </linearGradient>
    <linearGradient
       id="j"
       gradientTransform="matrix(0.7811541,-0.03481362,-0.03481362,0.7811541,70.230423,94.3198)"
       gradientUnits="userSpaceOnUse"
       x1="324.49731"
       x2="330.06076"
       y1="70.282364"
       y2="99.273735">
      <stop
         offset="0"
         stop-color="#888a85"
         id="stop1129" />
      <stop
         offset="1"
         stop-color="#555753"
         id="stop1131" />
    </linearGradient>
    <linearGradient
       id="k"
       gradientTransform="matrix(0.801996,0,0,0.7960034,69.746815,998.18246)"
       gradientUnits="userSpaceOnUse"
       x1="302.29202"
       x2="308.64914"
       y1="58.442768"
       y2="60.767513">
      <stop
         offset="0"
         stop-color="#babdb6"
         id="stop1134" />
      <stop
         offset="1"
         stop-color="#fff"
         id="stop1136" />
    </linearGradient>
  </defs>
  <sodipodi:namedview
     pagecolor="#ffffff"
     bordercolor="#666666"
     borderopacity="1"
     objecttolerance="10"
     gridtolerance="10"
     guidetolerance="10"
     inkscape:pageopacity="0"
     inkscape:pageshadow="2"
     inkscape:window-width="1366"
     inkscape:window-height="706"
     id="namedview45"
     showgrid="true"
     inkscape:zoom="16"
     inkscape:cx="-1.3167565"
     inkscape:cy="7.5972044"
     inkscape:window-x="0"
     inkscape:window-y="0"
     inkscape:window-maximized="1"
     inkscape:current-layer="g5773"
     showguides="false">
    <inkscape:grid
       type="xygrid"
       id="grid4559" />
  </sodipodi:namedview>
  <linearGradient
     id="a">
    <stop
       offset="0"
       stop-color="#737373"
       id="stop2" />
    <stop
       offset=".26238"
       stop-color="#636363"
       id="stop4" />
    <stop
       offset=".704952"
       stop-color="#4b4b4b"
       id="stop6" />
    <stop
       offset="1"
       stop-color="#3f3f3f"
       id="stop8" />
  </linearGradient>
  <radialGradient
     id="b"
     cx="-1.473815"
     cy="-42.064499"
     gradientTransform="matrix(-2.8642857,1.9e-7,-1.5e-7,-2.1857141,8.778565,-95.012398)"
     gradientUnits="userSpaceOnUse"
     r="10"
     xlink:href="#a" />
  <radialGradient
     id="c"
     cx="-1.448878"
     cy="-38.927242"
     gradientTransform="matrix(-2.8642857,1.9e-7,-1.5e-7,-2.1857141,8.778565,-87.012398)"
     gradientUnits="userSpaceOnUse"
     r="10"
     xlink:href="#a" />
  <radialGradient
     id="d"
     cx="-1.548628"
     cy="-40.659271"
     gradientTransform="matrix(-2.8642857,1.9e-7,-1.5e-7,-2.1857141,8.778565,-91.012398)"
     gradientUnits="userSpaceOnUse"
     r="10"
     xlink:href="#a" />
  <radialGradient
     id="e"
     cx="-1.598504"
     cy="-37.097179"
     gradientTransform="matrix(-2.8642857,1.9e-7,-1.5e-7,-2.1857141,8.778565,-83.012398)"
     gradientUnits="userSpaceOnUse"
     r="10"
     xlink:href="#a" />
  <g
     id="g5773"
     transform="translate(0,-2)">
    <g
       transform="translate(1.9981043,-8)"
       id="g5735">
      <path
         sodipodi:nodetypes="ccccc"
         inkscape:connector-curvature="0"
         style="fill:url(#d-6);stroke:#7239b3;stroke-linecap:round;stroke-linejoin:round;stroke-opacity:0.75"
         d="m 0.5018957,27.488846 10.9925153,0.0011 0.006,-10.988846 L 0.5078125,16.5 Z"
         id="path5011" />
      <path
         sodipodi:nodetypes="cc"
         inkscape:connector-curvature="0"
         style="opacity:0.3;fill:none;stroke:#ffffff"
         d="m 1.0078125,17.5 9.9925165,0.0011"
         id="path5017" />
    </g>
    <g
       id="g41"
       transform="translate(0,2)">
      <path
         style="opacity:0.35;fill:#ffffff"
         inkscape:connector-curvature="0"
         id="path15"
         d="m 22,4.4995548 c 0,-0.269086 -0.576667,-0.499541 -1.25,-0.499541 H 3.25 c -0.673332,0 -1.25,0.230455 -1.25,0.499541 v 0.999082 c 0,0.269086 0.576668,0.499541 1.25,0.499541 0.0028,0.0041 17.5,0 17.5,0 0.673333,0 1.25,-0.230455 1.25,-0.499541 z"
         sodipodi:nodetypes="sssssccss" />
      <path
         style="fill:none;stroke:url(#b);stroke-linecap:round;stroke-linejoin:round"
         inkscape:connector-curvature="0"
         id="path17"
         d="m 2.5000001,3.5000018 v 0.9980469 0.00195 C 8.8333341,4.4900087 15.166668,4.4845977 21.5,4.4746077 V 3.5000018 Z"
         sodipodi:nodetypes="cccccc" />
      <g
         id="g1031"
         transform="translate(13)">
        <path
           sodipodi:nodetypes="ccccc"
           d="M 9,12.001836 H 2 V 14 h 7 z"
           id="path21"
           inkscape:connector-curvature="0"
           style="opacity:0.35;fill:#ffffff" />
        <path
           sodipodi:nodetypes="ccccccc"
           d="m 2.5000001,11.500002 v 0.998047 0.002 L 8.5,12.474659 V 11.500053 H 2.5000001 Z"
           id="path23"
           inkscape:connector-curvature="0"
           style="fill:none;stroke:url(#c);stroke-linecap:round;stroke-linejoin:round" />
        <path
           sodipodi:nodetypes="ccccc"
           d="M 9,8.001836 H 2 V 10 h 7 z"
           id="path27"
           inkscape:connector-curvature="0"
           style="opacity:0.35;fill:#ffffff" />
        <path
           sodipodi:nodetypes="cccccc"
           d="m 2.5000001,7.5000018 v 0.9980469 0.00195 L 8.5,8.4746077 V 7.5000018 Z"
           id="path29"
           inkscape:connector-curvature="0"
           style="fill:none;stroke:url(#d);stroke-linecap:round;stroke-linejoin:round" />
        <path
           sodipodi:nodetypes="ccccc"
           d="M 9,16.001836 H 2 V 18 h 7 z"
           id="path33"
           inkscape:connector-curvature="0"
           style="opacity:0.35;fill:#ffffff" />
        <path
           sodipodi:nodetypes="ccccccc"
           style="fill:none;stroke:url(#e);stroke-linecap:round;stroke-linejoin:round"
           inkscape:connector-curvature="0"
           id="path35"
           d="m 2.5000001,15.500002 v 0.998047 0.002 L 8.5,16.474659 V 15.500053 H 2.5000001 Z" />
      </g>
      <path
         sodipodi:nodetypes="ccccc"
         d="M 22,20.001836 H 2 V 22 h 20 z"
         id="path870"
         inkscape:connector-curvature="0"
         style="opacity:0.35;fill:#ffffff" />
      <g
         id="g5779"
         style="fill:none;stroke-linecap:round;stroke-linejoin:round"
         transform="translate(0,4)">
        <path
           d="m 2.5000001,15.500002 v 0.998047 0.002 c 6.333334,-0.01 12.6666679,-0.0154 18.9999999,-0.02539 V 15.500053 H 2.5000001 Z"
           id="path5775"
           inkscape:connector-curvature="0"
           style="stroke:url(#radialGradient5783)" />
        <path
           d="m 2.5,15.500002 v 0.998047 0.002 c 6.333334,-0.01 12.666668,-0.0154 19,-0.02539 v -0.974606 h -19 z"
           id="path5777"
           inkscape:connector-curvature="0"
           style="opacity:0.1;stroke:#000000" />
      </g>
    </g>
    <g
       transform="matrix(0.86159974,0,0,0.86159974,3.2856857,5.1105251)"
       id="g1163">
      <path
         d="m 14.999984,11.580757 c -0.05244,0.01567 -0.08675,0.04907 -0.125,0.09375 -0.07653,0.08936 -0.11515,0.216835 -0.0625,0.3125 l 1.40625,2.65625 c 0.125982,0.239363 0.04748,0.573495 -0.1875,0.90625 -0.237231,0.335907 -0.608047,0.688579 -1.09375,0.96875 -0.485808,0.28024 -0.977944,0.437605 -1.375,0.46875 -0.394711,0.03099 -0.717447,-0.07247 -0.84375,-0.3125 l -1.40625,-2.6875 c -0.03935,-0.07451 -0.100938,-0.118741 -0.1875,-0.125 -0.08652,-0.0061 -0.189081,0.02655 -0.25,0.09375 -0.03284,0.03499 -0.04982,0.0798 -0.0625,0.125 -0.351964,1.288231 -0.265359,2.739563 0.25,3.71875 0.703824,1.337255 2.271665,1.940224 3.84375,1.59375 0.627816,0.186403 -0.460557,-1.026545 0.497159,-0.07386 l 4.887516,0.28125 -0.540925,-1.082386 c -0.863354,-0.858809 -1.28426,-1.620936 -1.5,-2.21875 0.248089,-0.850827 0.189199,-1.756137 -0.21875,-2.53125 -0.51516,-0.97876 -1.649372,-1.810281 -2.875,-2.1875 -0.05255,-0.01719 -0.103808,-0.01567 -0.15625,0 z"
         style="opacity:0.4;fill:none;stroke:#000000;stroke-width:2;stroke-linecap:round;stroke-linejoin:round;stroke-dashoffset:0.3612"
         id="path1151"
         inkscape:connector-curvature="0" />
      <g
         mask="url(#g)"
         transform="matrix(0.8686611,0,0,0.8704732,-253.90735,-98.906489)"
         id="g1161"
         style="enable-background:new">
        <path
           d="m 319.39329,139.2285 -4.34206,-4.35975 c -0.99389,-0.9866 -1.50014,-1.84777 -1.7485,-2.53454 0.2856,-0.97743 0.2328,-2.00504 -0.23683,-2.89549 -0.59305,-1.1244 -1.89986,-2.08374 -3.3108,-2.51709 -0.12099,-0.0395 -0.25795,9.2e-4 -0.34601,0.10358 -0.0881,0.10266 -0.10892,0.24521 -0.0483,0.35511 l 1.61439,3.06837 c 0.14503,0.27498 0.0466,0.64136 -0.22391,1.02363 -0.2731,0.38589 -0.71642,0.77909 -1.27556,1.10095 -0.55926,0.32194 -1.11244,0.50954 -1.56953,0.54532 -0.45439,0.0356 -0.8053,-0.0744 -0.9507,-0.35014 l -1.62416,-3.08537 c -0.0453,-0.0856 -0.1291,-0.13927 -0.22875,-0.14646 -0.0996,-0.007 -0.20234,0.0334 -0.27247,0.1106 h -1e-5 c -0.0378,0.0402 -0.0658,0.0881 -0.0804,0.14003 -0.40518,1.47992 -0.31949,3.15578 0.27379,4.28067 0.81024,1.53624 2.61048,2.20625 4.42026,1.80822 0.72274,0.21414 1.6718,0.71421 2.77432,1.80865 l 3.29554,3.21095"
           style="fill:url(#i);fill-rule:evenodd;stroke:url(#j);stroke-width:1.14999795;stroke-linecap:round;stroke-linejoin:round;stroke-dashoffset:0.3612"
           id="path1153"
           inkscape:connector-curvature="0" />
        <path
           d="m 314.50598,1039.6243 c 0.015,0.01 0.006,0.025 0,0.025 l 1.80449,3.2089 c 0.24343,0.4323 0.0678,0.9428 -0.22556,1.3681 -0.29634,0.4296 -0.75548,0.8457 -1.35337,1.1692 -0.59917,0.3241 -1.22764,0.4798 -1.75437,0.4975 -0.52558,0.018 -1.01891,-0.1313 -1.25311,-0.5473 l -1.8045,-3.2337 c -0.0104,0 -0.0268,0 -0.0251,0 0.0165,-0.018 0.003,0.013 0,0.025 -0.33275,1.4234 -0.16017,3.0685 0.45113,4.1542 0.83618,1.485 2.58195,2.1944 4.31073,1.8905 1.72065,-0.3057 3.19191,-1.7936 3.55886,-3.2089 0.23171,-0.9167 0.13299,-1.9018 -0.35088,-2.7611 -0.60963,-1.0827 -1.95075,-2.1023 -3.35835,-2.5871 z"
           transform="translate(-5.083714,-912.59475)"
           id="path1155"
           inkscape:connector-curvature="0"
           style="fill:url(#k);fill-rule:evenodd" />
        <path
           d="m 310.21875,127.75 1.25,2.4375 c 0.28894,0.54782 0.085,1.12046 -0.25,1.59375 -0.33855,0.47839 -0.8542,0.92749 -1.46875,1.28125 -0.60688,0.34935 -1.22432,0.57896 -1.8125,0.625 -0.2801,0.0219 -0.5499,-0.002 -0.8125,-0.0937 -0.2626,-0.0921 -0.51362,-0.29205 -0.65625,-0.5625 l -1.25,-2.375 c -0.17286,1.16401 -0.0996,2.37485 0.3125,3.15625 0.68338,1.29573 2.17648,1.88419 3.78125,1.53125 0.0917,-0.0238 0.18952,-0.0238 0.28125,0 0.82317,0.2439 1.87487,0.7896 3.03125,1.9375 l 4.03032,3.84651 2.65917,-1.37343 -4.65824,-4.47313 c -1.04139,-1.03374 -1.59436,-1.97397 -1.875,-2.75 -0.0358,-0.11084 -0.0358,-0.23291 0,-0.34375 0.24916,-0.8527 0.1772,-1.74925 -0.21875,-2.5 -0.41054,-0.77836 -1.32353,-1.47359 -2.34375,-1.9375 z"
           style="fill:none;stroke:#ffffff;stroke-width:0.57499897;stroke-linecap:round;stroke-linejoin:round;stroke-dashoffset:0.3612"
           id="path1157"
           inkscape:connector-curvature="0" />
        <path
           d="m 318.61464,140.71739 -0.12501,0.12501 c -0.34845,0.34845 -1.18936,0.0686 -1.88545,-0.6275 l -4.17573,-3.67032 c -0.69609,-0.69609 -0.97595,-1.537 -0.6275,-1.88546 l 0.125,-0.125 c 0.34846,-0.34845 1.18937,-0.0686 1.88546,0.6275 l 4.17573,3.67032 c 0.69609,0.69609 0.97595,1.537 0.6275,1.88545 z"
           id="path1159"
           inkscape:connector-curvature="0"
           style="opacity:0.07999998;fill-rule:evenodd" />
      </g>
    </g>
  </g>
</svg>
