<svg viewBox="0 0 24 24" xmlns="http://www.w3.org/2000/svg" xmlns:xlink="http://www.w3.org/1999/xlink"><radialGradient id="a" cx="2.25" cy="16" gradientTransform="matrix(.36066504 0 0 .07867314 16.051433 19.204008)" gradientUnits="userSpaceOnUse" r="16.875"><stop offset="0"/><stop offset="1" stop-opacity="0"/></radialGradient><linearGradient id="b" gradientUnits="userSpaceOnUse" x1="5.523302" x2="16.940714" y1="5.119446" y2="16.834723"><stop offset="0" stop-color="#eeeeec"/><stop offset="1" stop-color="#e0e0de"/></linearGradient><ellipse cx="16.86293" cy="20.462782" display="block" fill="url(#a)" fill-rule="evenodd" opacity=".358" rx="6.086223" ry="1.327611"/><path d="m7.165211 3.1871401c-1.735176 0-3.141824 1.4066472-3.141824 3.1418246 0 1.7351773 1.406648 3.1418246 3.141824 3.1418246 1.362841 0 2.510308-.881439 2.945461-2.0945498h.523638l3.92728 9.8182015.26182.654547c.566036.000765.361421-.0037.72 0 .09779.000989-.07297-.0015.196365 0h1.898185v2.09455l3.141825-3.141825-3.141825-3.141825v2.09455h-1.374548l-3.92728-9.8182014-.26182-.6545468h-.720001-.229091-1.014548c-.435153-1.2131109-1.58262-2.0945497-2.945461-2.0945497zm0 2.0945497c.57839 0 1.047275.4688859 1.047275 1.0472749 0 .5783889-.468885 1.0472748-1.047275 1.0472748-.578388 0-1.047274-.4688859-1.047274-1.0472748 0-.578389.468886-1.0472749 1.047274-1.0472749z" fill="url(#b)" stroke="#888a85"/></svg>