<svg height="24" width="24" xmlns="http://www.w3.org/2000/svg" xmlns:xlink="http://www.w3.org/1999/xlink"><linearGradient id="a" gradientUnits="userSpaceOnUse" x1="17.461565" x2="17.461565" y1="12.132274" y2="23.876353"><stop offset="0" stop-color="#f6f6f6"/><stop offset="1" stop-color="#ccc"/></linearGradient><linearGradient id="b" gradientUnits="userSpaceOnUse" x1="14.525564" x2="14.525564" y1="12.132274" y2="23.879737"><stop offset="0" stop-color="#aaa"/><stop offset="1" stop-color="#8c8c8c"/></linearGradient><linearGradient id="c" gradientUnits="userSpaceOnUse" x1="10.127912" x2="9.984243" y1="12.048073" y2="3.95193"><stop offset="0" stop-color="#e5e5e5"/><stop offset="1" stop-color="#ababab"/></linearGradient><linearGradient id="d" gradientTransform="matrix(1.4 0 0 -1.5 .8 24.75)" gradientUnits="userSpaceOnUse" x1="6.689" x2="6.571429" y1="5.48" y2=".5"><stop offset="0" stop-color="#cd9ef7"/><stop offset="1" stop-color="#a56de2"/></linearGradient><radialGradient id="e" cx="-1.598504" cy="-37.097179" gradientTransform="matrix(-2.8642857 .00000019 -.00000015 -2.1857141 8.778565 -83.012398)" gradientUnits="userSpaceOnUse" r="10" xlink:href="#f"/><linearGradient id="f"><stop offset="0" stop-color="#737373"/><stop offset=".26238" stop-color="#636363"/><stop offset=".704952" stop-color="#4b4b4b"/><stop offset="1" stop-color="#3f3f3f"/></linearGradient><radialGradient id="g" cx="-1.473815" cy="-42.064499" gradientTransform="matrix(-2.8642857 .00000019 -.00000015 -2.1857141 8.778565 -95.012398)" gradientUnits="userSpaceOnUse" r="10" xlink:href="#f"/><radialGradient id="h" cx="-1.448878" cy="-38.927242" gradientTransform="matrix(-2.8642857 .00000019 -.00000015 -2.1857141 8.778565 -87.012398)" gradientUnits="userSpaceOnUse" r="10" xlink:href="#f"/><radialGradient id="i" cx="-1.548628" cy="-40.659271" gradientTransform="matrix(-2.8642857 .00000019 -.00000015 -2.1857141 8.778565 -91.012398)" gradientUnits="userSpaceOnUse" r="10" xlink:href="#f"/><g transform="translate(1.998104 -10)"><path d="m.5018957 27.488846 10.9925153.0011.006-10.988846-10.9925985-.0011z" fill="url(#d)" stroke="#7239b3" stroke-linecap="round" stroke-linejoin="round" stroke-opacity=".75"/><path d="m1.0078125 17.5 9.9925165.0011" fill="none" opacity=".3" stroke="#fff"/></g><path d="m22 4.4995548c0-.269086-.576667-.499541-1.25-.499541h-17.5c-.673332 0-1.25.230455-1.25.499541v.999082c0 .269086.576668.499541 1.25.499541.0028.0041 17.5 0 17.5 0 .673333 0 1.25-.230455 1.25-.499541z" fill="#fff" opacity=".35"/><path d="m2.5000001 3.5000018v.9980469.00195c6.333334-.00999 12.6666679-.015401 18.9999999-.025391v-.9746059z" fill="none" stroke="url(#g)" stroke-linecap="round" stroke-linejoin="round"/><g transform="translate(13)"><path d="m9 12.001836h-7v1.998164h7z" fill="#fff" opacity=".35"/><path d="m2.5000001 11.500002v.998047.002l5.9999999-.02539v-.974606h-5.9999999z" fill="none" stroke="url(#h)" stroke-linecap="round" stroke-linejoin="round"/><path d="m9 8.001836h-7v1.998164h7z" fill="#fff" opacity=".35"/><path d="m2.5000001 7.5000018v.9980469.00195l5.9999999-.025391v-.9746059z" fill="none" stroke="url(#i)" stroke-linecap="round" stroke-linejoin="round"/><path d="m9 16.001836h-7v1.998164h7z" fill="#fff" opacity=".35"/><path d="m2.5000001 15.500002v.998047.002l5.9999999-.02539v-.974606h-5.9999999z" fill="none" stroke="url(#e)" stroke-linecap="round" stroke-linejoin="round"/></g><path d="m22 20.001836h-20v1.998164h20z" fill="#fff" opacity=".35"/><g fill="none" stroke-linecap="round" stroke-linejoin="round" transform="translate(0 4)"><path d="m2.5000001 15.500002v.998047.002c6.333334-.01 12.6666679-.0154 18.9999999-.02539v-.974606h-18.9999999z" stroke="url(#e)"/><path d="m2.5 15.500002v.998047.002c6.333334-.01 12.666668-.0154 19-.02539v-.974606h-19z" opacity=".1" stroke="#000"/></g><g transform="matrix(.73400013 0 0 .73400013 11.632274 12.132274)"><path d="m16.798828 12.5c-.165264 0-.298828.211412-.298828.474609v.763672h-.09766l-1.123047.480469-.07227.07422-.552734-.552735c-.18611-.186109-.430016-.241858-.546875-.125l-.992188.992188c-.116858.116859-.06111.360765.125.546875l.552735.552734-.07422.07227-.480469 1.123047v.097651h-.763663c-.263197 0-.474609.133564-.474609.298828v1.402344c0 .165264.211412.298828.474609.298828h.763672v.105469l.480469 1.123047.07031.06836-.548828.548828c-.186109.186109-.241858.430016-.125.546875l.992188.992188c.116859.116859.360765.06111.546875-.125l.548828-.548828.07617.07812 1.123047.482422h.09766v.753907c0 .263201.133564.474612.298828.474612h1.402344c.165264 0 .298828-.211411.298828-.474609v-.753907h.105469l1.123047-.482422.07227-.07422.544922.544922c.18611.186108.430016.241859.546875.125l.992188-.992188c.116858-.116859.06111-.360766-.125-.546875l-.544922-.544922.07422-.07227.482422-1.123047v-.105462h.753907c.26319 0 .474602-.133564.474602-.298828v-1.402344c0-.165264-.211412-.298828-.474609-.298828h-.753907v-.09766l-.482422-1.123047-.07812-.07617.548828-.548828c.186109-.18611.241858-.430016.125-.546875l-.992188-.992188c-.116859-.116858-.360765-.06111-.546875.125l-.548828.548828-.06836-.07031-1.123047-.480469h-.105472v-.763672c0-.263197-.133564-.474609-.298828-.474609zm.705078 4c.829457 0 1.503906.674449 1.503906 1.503906.000001.829457-.674449 1.503906-1.503906 1.503906-.829457.000001-1.503906-.674449-1.503906-1.503906s.674449-1.503906 1.503906-1.503906z" display="block" fill="url(#a)" stroke="url(#b)" stroke-linejoin="round" transform="matrix(1.3623976 0 0 1.3623976 -15.847782 -16.528981)"/><path d="m8 3.465116c-2.5005771 0-4.5348837 2.034307-4.5348837 4.534884s2.0343066 4.534884 4.5348837 4.534884c2.500576-.000001 4.534884-2.034307 4.534884-4.534884s-2.034308-4.534884-4.534884-4.534884zm0 2.093024c1.347907 0 2.44186 1.093953 2.44186 2.44186s-1.093953 2.44186-2.44186 2.44186-2.4418605-1.093953-2.4418605-2.44186 1.0939535-2.44186 2.4418605-2.44186z" opacity=".05"/><path d="m8.0000001 4c-2.2056004 0-4.0000002 1.7944001-4.0000002 4.0000008 0 2.2055992 1.7943998 3.9999992 4.0000002 3.9999992 2.2055999 0 3.9999999-1.7944 3.9999999-3.9999992 0-2.2056007-1.7944-4.0000008-3.9999999-4.0000008z" fill="none" stroke="url(#c)" stroke-width="1.352275"/></g></svg>