<svg viewBox="0 0 24 24" xmlns="http://www.w3.org/2000/svg" xmlns:xlink="http://www.w3.org/1999/xlink"><radialGradient id="a" cx="2.25" cy="16" gradientTransform="matrix(.33957278 0 0 .07867314 16.353127 18.898924)" gradientUnits="userSpaceOnUse" r="16.875"><stop offset="0"/><stop offset="1" stop-opacity="0"/></radialGradient><linearGradient id="b" gradientTransform="matrix(-1.0588235 0 0 -1.0588235 67.058822 23.647059)" gradientUnits="userSpaceOnUse" x1="43.601696" x2="55.923729" y1="3.677966" y2="14.966102"><stop offset="0" stop-color="#eeeeec"/><stop offset="1" stop-color="#e0e0de"/></linearGradient><ellipse cx="17.117167" cy="20.157696" display="block" fill="url(#a)" fill-rule="evenodd" opacity=".358" rx="5.730291" ry="1.327611"/><path d="m17.294117 19.411765c1.754312 0 3.176471-1.422148 3.176471-3.176471 0-1.754322-1.422159-3.17647-3.176471-3.17647-1.377868 0-2.537989.891159-2.977941 2.117647h-1.257352-5.8235301c-.877161 0-1.588235-.711074-1.588235-1.588235s.711074-1.588236 1.588235-1.588236h9.5294121c2.046702 0 3.705882-1.659179 3.705882-3.7058822 0-2.046703-1.65918-3.705882-3.705882-3.705882h-5.82353-4.2352941v2.117647h4.2352941 5.82353c.877158 0 1.588235.711077 1.588235 1.588235s-.711077 1.588235-1.588235 1.588235h-9.5294121c-2.046706 0-3.705882 1.6591772-3.705882 3.7058832 0 1.869107 1.377526 3.41858 3.17647 3.672794v.03309h.529412 5.8235301 1.257352c.439952 1.226488 1.600073 2.117647 2.977941 2.117647zm0-2.117647c-.584767 0-1.058823-.474057-1.058823-1.058824s.474056-1.058823 1.058823-1.058823 1.058824.474056 1.058824 1.058823-.474057 1.058824-1.058824 1.058824z" fill="url(#b)" stroke="#888a85" stroke-width="1.058824"/></svg>