<svg height="24" width="24" xmlns="http://www.w3.org/2000/svg" xmlns:xlink="http://www.w3.org/1999/xlink"><linearGradient id="a" gradientTransform="matrix(.52954621 0 0 .41850626 10.149923 -4.674704)" gradientUnits="userSpaceOnUse" x1="24.288868" x2="24.288868" xlink:href="#b" y1="20.751673" y2="23.141123"/><linearGradient id="b"><stop offset="0" stop-color="#fff"/><stop offset="0" stop-color="#fff" stop-opacity=".235294"/><stop offset="1" stop-color="#fff" stop-opacity=".156863"/><stop offset="1" stop-color="#fff" stop-opacity=".392157"/></linearGradient><linearGradient id="c" gradientTransform="matrix(.52954621 0 0 .41850626 4.149923 -4.674704)" gradientUnits="userSpaceOnUse" x1="24.288868" x2="24.288868" xlink:href="#b" y1="20.751673" y2="23.141123"/><linearGradient id="d" gradientTransform="matrix(.52954621 0 0 .41850626 10.149924 .325314)" gradientUnits="userSpaceOnUse" x1="24.288868" x2="24.288868" xlink:href="#b" y1="20.751673" y2="23.141123"/><linearGradient id="e" gradientTransform="matrix(.52954621 0 0 .41850626 4.149924 .325314)" gradientUnits="userSpaceOnUse" x1="24.288868" x2="24.288868" xlink:href="#b" y1="20.751673" y2="23.141123"/><linearGradient id="f" gradientTransform="matrix(.52954621 0 0 .41850626 10.149924 5.325314)" gradientUnits="userSpaceOnUse" x1="24.288868" x2="24.288868" xlink:href="#b" y1="20.751673" y2="23.141123"/><linearGradient id="g" gradientTransform="matrix(.52954621 0 0 .41850626 4.149924 5.325314)" gradientUnits="userSpaceOnUse" x1="24.288868" x2="24.288868" xlink:href="#b" y1="20.751673" y2="23.141123"/><linearGradient id="h" gradientTransform="matrix(.52954621 0 0 .41850626 10.149924 10.325314)" gradientUnits="userSpaceOnUse" x1="24.288868" x2="24.288868" xlink:href="#b" y1="20.751673" y2="23.141123"/><linearGradient id="i" gradientTransform="matrix(.52954621 0 0 .41850626 4.149924 10.325314)" gradientUnits="userSpaceOnUse" x1="24.288868" x2="24.288868" xlink:href="#b" y1="20.751673" y2="23.141123"/><linearGradient id="j" gradientTransform="matrix(.44576989 0 0 .44993664 .801525 -.024539)" gradientUnits="userSpaceOnUse" x1="26.243305" x2="26.243305" xlink:href="#p" y1="4.354743" y2="57.840454"/><linearGradient id="k" gradientTransform="matrix(.44576989 0 0 .44993664 .801525 -.024539)" gradientUnits="userSpaceOnUse" x1="26.243305" x2="26.243305" xlink:href="#p" y1="17.83482" y2="73.398201"/><linearGradient id="l" gradientTransform="matrix(.44576989 0 0 .44993664 .801525 -.024539)" gradientUnits="userSpaceOnUse" x1="26.243305" x2="26.243305" xlink:href="#p" y1="33.392567" y2="88.955948"/><radialGradient id="m" cx="65.297462" cy="48.216358" gradientTransform="matrix(0 .38212918 -.4161614 0 32.170797 -18.821396)" gradientUnits="userSpaceOnUse" r="31.000002"><stop offset="0" stop-color="#d1ff82"/><stop offset=".26238" stop-color="#9bdb4d"/><stop offset=".66093999" stop-color="#68b723"/><stop offset="1" stop-color="#3a9104"/></radialGradient><linearGradient id="n" gradientTransform="matrix(.20515598 0 0 .20369724 7.420038 5.278451)" gradientUnits="userSpaceOnUse" x1="24.138529" x2="24.138529" y1="10.631441" y2="35.62291"><stop offset="0" stop-color="#fff"/><stop offset=".00000002" stop-color="#fff" stop-opacity=".235294"/><stop offset="1" stop-color="#fff" stop-opacity=".156863"/><stop offset="1" stop-color="#fff" stop-opacity=".392157"/></linearGradient><linearGradient id="o" gradientTransform="matrix(.20515598 0 0 .20369724 7.407064 5.283756)" gradientUnits="userSpaceOnUse" x1="24.138529" x2="24.138529" y1="21.34207" y2="24.912279"><stop offset="0" stop-color="#fff"/><stop offset=".00000019" stop-color="#fff" stop-opacity=".235294"/><stop offset="1" stop-color="#fff" stop-opacity=".156863"/><stop offset="1" stop-color="#fff" stop-opacity=".392157"/></linearGradient><linearGradient id="p" gradientTransform="matrix(.44576989 0 0 .44993664 .801525 -.024539)" gradientUnits="userSpaceOnUse" x1="25.132275" x2="25.132275" y1="15.499894" y2="48.395687"><stop offset="0" stop-color="#fafafa"/><stop offset="1" stop-color="#e2e1de"/></linearGradient><path d="m4.5 2.5v4h2v-2h2v-2h-2z" fill="#ffa154" stroke="#a62100" stroke-linecap="square" stroke-opacity=".501961"/><g transform="translate(0 -6)"><rect fill="url(#j)" height="4" rx=".527778" ry=".555556" width="5" x="16.5" y="18.5"/><path d="m16.5 18.5h5v4h-5z" fill="none" stroke="#575757" stroke-linecap="square" stroke-linejoin="round" stroke-opacity=".529412"/></g><g transform="translate(0 -11)"><rect fill="url(#k)" height="4" rx=".527778" ry=".555556" width="5" x="16.5" y="18.5"/><path d="m16.5 18.5h5v4h-5z" fill="none" stroke="#575757" stroke-linecap="square" stroke-linejoin="round" stroke-opacity=".529412"/></g><g transform="translate(0 -16)"><rect fill="url(#l)" height="4" rx=".527778" ry=".555556" width="5" x="16.5" y="18.5"/><path d="m16.5 18.5h5v4h-5z" fill="none" stroke="#575757" stroke-linecap="square" stroke-linejoin="round" stroke-opacity=".529412"/></g><g transform="translate(0 -1)"><rect fill="url(#j)" height="4" rx=".527778" ry=".555556" width="5" x="16.5" y="18.5"/><path d="m16.5 18.5h5v4h-5z" fill="none" stroke="#575757" stroke-linecap="square" stroke-linejoin="round" stroke-opacity=".529412"/></g><g transform="translate(-7.025424 1.146186)"><path d="m10.525424 8.3538136v-2h3l-.000516 2.0062978 2.02987-.00934-.02935 3.0030426h-2v2h-3v-2h-2.0000043l-.00153-3.0122719z" fill="url(#m)"/><g fill="none"><path d="m11.525424 9.8538136v-2.5h1v2.5m0 0v2.5000004h-1v-2.5000004" opacity=".5" stroke="url(#n)"/><path d="m13.025424 9.3538136h1.5v1.0000004h-1.5m-2 0h-1.5000003v-1.0000004h1.5000003" opacity=".5" stroke="url(#o)"/><path d="m10.522896 8.3646014.0037-2.0097959 3.002012-.00449-.0037 2.0097959h2.006128l.000516 2.9937026h-2.006128l.0073 1.995421-3.002013.0045-.0053-1.999921h-1.9999873l-.00153-3.0122723z" opacity=".5" stroke="#206b00" stroke-linecap="round" stroke-linejoin="round"/></g></g><g transform="translate(-6 -6)"><rect fill="url(#j)" height="4" rx=".527778" ry=".555556" width="5" x="16.5" y="18.5"/><path d="m16.5 18.5h5v4h-5z" fill="none" stroke="#575757" stroke-linecap="square" stroke-linejoin="round" stroke-opacity=".529412"/></g><g transform="translate(-6 -11)"><rect fill="url(#k)" height="4" rx=".527778" ry=".555556" width="5" x="16.5" y="18.5"/><path d="m16.5 18.5h5v4h-5z" fill="none" stroke="#575757" stroke-linecap="square" stroke-linejoin="round" stroke-opacity=".529412"/></g><g transform="translate(-6 -16)"><rect fill="url(#l)" height="4" rx=".527778" ry=".555556" width="5" x="16.5" y="18.5"/><path d="m16.5 18.5h5v4h-5z" fill="none" stroke="#575757" stroke-linecap="square" stroke-linejoin="round" stroke-opacity=".529412"/></g><g transform="translate(-6 -1)"><rect fill="url(#j)" height="4" rx=".527778" ry=".555556" width="5" x="16.5" y="18.5"/><path d="m16.5 18.5h5v4h-5z" fill="none" stroke="#575757" stroke-linecap="square" stroke-linejoin="round" stroke-opacity=".529412"/></g><g transform="translate(-7.032724 9.150765)"><path d="m10.525424 8.3538136v-2h3l-.000516 2.0062978 2.02987-.00934-.02935 3.0030426h-2v2h-3v-2h-2.0000043l-.00153-3.0122719z" fill="url(#m)"/><g fill="none"><path d="m11.525424 9.8538136v-2.5h1v2.5m0 0v2.5000004h-1v-2.5000004" opacity=".5" stroke="url(#n)"/><path d="m13.025424 9.3538136h1.5v1.0000004h-1.5m-2 0h-1.5000003v-1.0000004h1.5000003" opacity=".5" stroke="url(#o)"/><path d="m10.522896 8.3646014.0037-2.0097959 3.002012-.00449-.0037 2.0097959h2.006128l.000516 2.9937026h-2.006128l.0073 1.995421-3.002013.0045-.0053-1.999921h-1.9999873l-.00153-3.0122723z" opacity=".5" stroke="#206b00" stroke-linecap="round" stroke-linejoin="round"/></g></g><g fill="none"><g stroke-linecap="round" stroke-linejoin="round"><path d="m12.5 4.5h.999999" stroke="#abacae"/><path d="m12.5 9.5h1" stroke="#f37329"/><path d="m18.499999 9.5h1.000001" stroke="#f37329"/><path d="m12.5 14.5h.999999" stroke="#abacae"/><g stroke="#f37329"><path d="m12.5 19.5h1"/><path d="m18.499999 19.5h1.000001"/></g></g><path d="m17.5 5.5000004v-2l2.999999-.0000192.000001 2.0000019z" opacity=".4" stroke="url(#a)"/><path d="m11.5 5.5000004v-2l2.999999-.0000192.000001 2.0000019z" opacity=".4" stroke="url(#c)"/><path d="m17.500001 10.500019v-1.9999998l2.999999-.0000192.000001 2.000002z" opacity=".4" stroke="url(#d)"/><path d="m11.500001 10.500019v-1.9999998l2.999999-.0000192.000001 2.000002z" opacity=".4" stroke="url(#e)"/><path d="m17.500001 15.500019v-2l2.999999-.000019.000001 2.000002z" opacity=".4" stroke="url(#f)"/><path d="m11.500001 15.500019v-2l2.999999-.000019.000001 2.000002z" opacity=".4" stroke="url(#g)"/><path d="m17.500001 20.500019v-2l2.999999-.000019.000001 2.000002z" opacity=".4" stroke="url(#h)"/><path d="m11.500001 20.500019v-2l2.999999-.000019.000001 2.000002z" opacity=".4" stroke="url(#i)"/></g></svg>