<svg height="24" width="24" xmlns="http://www.w3.org/2000/svg" xmlns:xlink="http://www.w3.org/1999/xlink"><linearGradient id="a" gradientTransform="matrix(-.4766877 0 0 .44382351 28.94314 3.441469)" gradientUnits="userSpaceOnUse" x1="23.731871" x2="23.731871" y1="5.394345" y2="40.783871"><stop offset="0" stop-color="#f0c1ff"/><stop offset=".26238" stop-color="#c5a3f2"/><stop offset=".704952" stop-color="#7a36b1"/><stop offset="1" stop-color="#4c2d81"/></linearGradient><linearGradient id="b" gradientTransform="matrix(0 -.5372019 -.57681717 0 49.997188 27.865617)" gradientUnits="userSpaceOnUse" x1="40.957993" x2="18.680689" y1="46.97065" y2="46.97065"><stop offset="0" stop-color="#fff"/><stop offset=".45000002" stop-color="#fff" stop-opacity=".235294"/><stop offset=".65000004" stop-color="#fff" stop-opacity=".156863"/><stop offset="1" stop-color="#fff" stop-opacity=".392157"/></linearGradient><linearGradient id="c"><stop offset="0" stop-color="#737373"/><stop offset=".26238" stop-color="#636363"/><stop offset=".704952" stop-color="#4b4b4b"/><stop offset="1" stop-color="#3f3f3f"/></linearGradient><radialGradient id="d" cx="9.72272" cy="-91.022446" gradientTransform="matrix(-3.7910092 -.00000022 .0000002 -3.3609145 50.296794 -313.85665)" gradientUnits="userSpaceOnUse" r="7" xlink:href="#c"/><radialGradient id="e" cx="-1.473815" cy="-42.064499" gradientTransform="matrix(-1.3567669 .00000019 -.00000007 -2.1857141 10.474057 -91.012398)" gradientUnits="userSpaceOnUse" r="10" xlink:href="#c"/><radialGradient id="f" cx="9.647354" cy="-89.343475" gradientTransform="matrix(-3.7910092 -.00000022 .0000002 -3.3609145 50.296794 -305.85665)" gradientUnits="userSpaceOnUse" r="7" xlink:href="#c"/><radialGradient id="g" cx="-1.848931" cy="-36.912685" gradientTransform="matrix(-1.3567669 .00000019 -.00000007 -2.1857141 10.474057 -83.012398)" gradientUnits="userSpaceOnUse" r="10" xlink:href="#c"/><g transform="translate(0 2)"><g transform="matrix(-1 0 0 1 20 .647428)"><path d="m17.5 15.852572-6-5 5.999999-4.9999999z" display="block" fill="url(#a)"/><g fill="none"><path d="m16.500001 13.742383-3.434589-2.889811 3.434588-2.9268531z" display="block" opacity=".401" stroke="url(#b)" stroke-miterlimit="7" stroke-width=".963925"/><path d="m17.500001 15.852572-6-5 5.999999-5z" opacity=".5" stroke="#6326b9" stroke-linejoin="round"/></g></g><path d="m2.5 3.5000016v.9980469.00195c4.3333339-.00999 13.666668-.015401 18-.025391v-.9746059z" fill="none" opacity=".1" stroke="#000" stroke-linecap="round" stroke-linejoin="round"/><path d="m17 8.4995546c0-.269086-.288334-.4995409-.625-.499541l-5.75-.0000016c-.336666-.0000001-.6250001.230455-.6250001.499541v.999082c0 .269086.2883341.499541.6250001.499541.0014.0041 5.75.0000016 5.75.0000016.336666 0 .625-.230455.625-.499541z" fill="#fff" opacity=".35"/><path d="m10.5 7.4999486v.9980469.00195c3.000001-.00999 3.000001-.015348 6-.025338v-.9746059c-2.833333-.0000005 2.7646-.000053-6-.000053z" fill="none" stroke="url(#e)" stroke-linecap="round" stroke-linejoin="round"/><path d="m20.999689 4.4993871c0-.2691161-.403658-.4995969-.87498-.4995969h-17.2119338c-.4713219 0-.8749806.2304808-.8749806.4995969v.9991938c0 .2691161.4036587.4995969.8749806.4995969.00196.0041 17.2119338 0 17.2119338 0 .471322 0 .87498-.2304808.87498-.4995969z" fill="#fff" opacity=".35"/><path d="m2.5 3.4999508v.998047.002c4.3333339-.01 13.666667-.01539 18-.02539v-.974609h-18z" fill="none" stroke="url(#d)" stroke-linecap="round" stroke-linejoin="round"/><path d="m10.5 7.5v.9980469.00195c3.000001-.00999 3.000001-.015399 6-.025389v-.9746063z" fill="none" opacity=".1" stroke="#000" stroke-linecap="round" stroke-linejoin="round"/><path d="m20.999689 12.499387c0-.269116-.403658-.499597-.87498-.499597l-9.249728-.000002c-.471322 0-.8749811.230481-.8749811.499597v.999194c0 .269116.4036591.499597.8749811.499597.002.0041 9.249728.000002 9.249728.000002.471322 0 .87498-.230481.87498-.499597z" fill="#fff" opacity=".35"/><path d="m10.5 11.499898v.998047.002c4.333334-.01 5.666667-.01534 10-.02534v-.974609l-10-.000053z" fill="none" stroke="url(#f)" stroke-linecap="round" stroke-linejoin="round"/><path d="m10.5 11.5v.998047.002c4.333334-.01 5.666668-.0154 10-.02539v-.974657l-10 .000051z" fill="none" opacity=".1" stroke="#000" stroke-linecap="round" stroke-linejoin="round"/><path d="m17 16.499555c0-.269086-.288334-.499541-.625-.499541l-5.75-.000002c-.336666 0-.6250001.230455-.6250001.499541v.999082c0 .269086.2883341.499541.6250001.499541.0014.0041 5.75.000002 5.75.000002.336666 0 .625-.230455.625-.499541z" fill="#fff" opacity=".35"/><g fill="none" stroke-linecap="round" stroke-linejoin="round"><path d="m10.5 15.499949v.998046.002c3.000001-.01 3.000001-.01535 6-.02534v-.974602l-6-.000053z" stroke="url(#g)"/><path d="m10.5 15.5v.998046.002c3.000001-.01 3.000001-.0154 6-.02539v-.974605l-6-.000002z" opacity=".1" stroke="#000"/></g></g></svg>