<svg height="24" width="24" xmlns="http://www.w3.org/2000/svg" xmlns:xlink="http://www.w3.org/1999/xlink"><radialGradient id="a" cx="24.837" cy="36.421" gradientTransform="matrix(-.25568 0 0 -.19176 17.353 22.984)" gradientUnits="userSpaceOnUse" r="15.645"><stop offset="0"/><stop offset="1" stop-opacity="0"/></radialGradient><linearGradient id="b" gradientTransform="matrix(.27962 0 0 -.26116 5.022 18.693)" gradientUnits="userSpaceOnUse" x1="25.469" x2="25.469" y1="32.841" y2="2.724"><stop offset="0" stop-color="#8cd5ff"/><stop offset=".25" stop-color="#64baff"/><stop offset=".625" stop-color="#3689e6"/><stop offset="1" stop-color="#0d52bf"/></linearGradient><linearGradient id="c" gradientTransform="matrix(.27962 0 0 -.26116 5.022 18.693)" gradientUnits="userSpaceOnUse" x1="36.246" x2="36.246" y1="2.929" y2="42.788"><stop offset="0" stop-color="#002e99"/><stop offset="1" stop-color="#3689e6"/></linearGradient><linearGradient id="d" gradientTransform="matrix(0 .30606 .3277 0 5.52 4.564)" gradientUnits="userSpaceOnUse" x1="20.797" x2="37.474" y1="20.649" y2="20.649"><stop offset="0" stop-color="#fff"/><stop offset=".512" stop-color="#fff" stop-opacity=".235"/><stop offset=".585" stop-color="#fff" stop-opacity=".157"/><stop offset="1" stop-color="#fff" stop-opacity=".392"/></linearGradient><linearGradient id="e" gradientTransform="matrix(.3143 0 0 .32593 .457 -.322)" gradientUnits="userSpaceOnUse" x1="-1.454" x2="43.091" y1="10.193" y2="10.193"><stop offset="0" stop-color="#f4f4f4"/><stop offset="1" stop-color="#dbdbdb"/></linearGradient><linearGradient id="f" gradientTransform="matrix(.2538 0 0 .30502 19.13 -.685)" gradientUnits="userSpaceOnUse" x1="-20.21" x2="-75.375" y1="31.754" y2="31.754"><stop offset="0" stop-color="#a0a0a0"/><stop offset="1" stop-color="#bebebe"/></linearGradient><linearGradient id="g" gradientTransform="matrix(.24324 0 0 .35135 2.162 -.432)" gradientUnits="userSpaceOnUse" x1="3.444" x2="44.555" y1="26.846" y2="26.846"><stop offset="0" stop-color="#fff"/><stop offset=".1" stop-color="#fff" stop-opacity=".235"/><stop offset=".8" stop-color="#fff" stop-opacity=".157"/><stop offset="1" stop-color="#fff" stop-opacity=".392"/></linearGradient><linearGradient id="h" gradientUnits="userSpaceOnUse" x1="1.80304" x2="1.80304" xlink:href="#i" y1="7.968056" y2="22.378286"/><linearGradient id="i"><stop offset="0" stop-color="#ffa154"/><stop offset="1" stop-color="#f37329"/></linearGradient><linearGradient id="j" gradientUnits="userSpaceOnUse" x1="4" x2="4" xlink:href="#i" y1="4.559" y2="21.517"/><path d="m2.5.5h11v15h-11z" fill="url(#e)" stroke="url(#f)" stroke-linejoin="round" transform="matrix(0 1 -1 0 17 0)"/><path d="m12.5 14.5h-9v-13h9z" fill="none" stroke="url(#g)" stroke-linecap="round" transform="matrix(0 1 -1 0 17 0)"/><path d="m2 10.5c-.277 0-.5.223-.5.5v10c0 .277.223.5.5.5h3v-11z" fill="url(#j)" transform="translate(0 -8)"/><path d="m6 5h2m-2 2h1m-1 2h2m-2 2h2m0-4h1m0 4h1" fill="none" stroke="#aaa"/><path d="m5 13.5h-3.5v-11h3.5" fill="none" opacity=".4" stroke="#cc3b02" stroke-linejoin="round"/><g fill="url(#h)"><path d="m15.4 15.99a3.4 3.4 0 1 1 -1.8-2.998l-1.6 2.998z" opacity=".5" transform="translate(0 -8)"/><path d="m15.4 16c0 1.474-1.073 2.883-2.493 3.276s-3.064-.264-3.822-1.528c-.005.005 2.915-1.748 2.915-1.748z" opacity=".5" transform="translate(0 -8)"/><path d="m15.4 15.99c0 1.474-1.073 2.883-2.493 3.276-.033-.006-.907-3.276-.907-3.276z" transform="translate(0 -8)"/></g><path d="m2.5.5h11v15h-11z" fill="url(#e)" stroke="url(#f)" stroke-linejoin="round" transform="matrix(0 1 -1 0 23 7)"/><path d="m12.5 14.5h-9v-13h9z" fill="none" stroke="url(#g)" stroke-linecap="round" transform="matrix(0 1 -1 0 23 7)"/><path d="m2 10.5c-.277 0-.5.223-.5.5v10c0 .277.223.5.5.5h3v-11z" fill="url(#j)" transform="translate(6 -1)"/><path d="m12 12h2m-2 2h1m-1 2h2m-2 2h2m0-4h1m0 4h1" fill="none" stroke="#aaa"/><path d="m11 20.5h-3.5v-11h3.5" fill="none" opacity=".4" stroke="#cc3b02" stroke-linejoin="round"/><g fill="url(#h)"><path d="m15.4 15.99a3.4 3.4 0 1 1 -1.8-2.998l-1.6 2.998z" opacity=".5" transform="translate(6 -1)"/><path d="m15.4 16c0 1.474-1.073 2.883-2.493 3.276s-3.064-.264-3.822-1.528c-.005.005 2.915-1.748 2.915-1.748z" opacity=".5" transform="translate(6 -1)"/><path d="m15.4 15.99c0 1.474-1.073 2.883-2.493 3.276-.033-.006-.907-3.276-.907-3.276z" transform="translate(6 -1)"/></g><path d="m7.003 16a4 3 0 1 1 8 0 4 3 0 0 1 -8 0z" fill="url(#a)" fill-rule="evenodd" opacity=".141" transform="translate(-2.036 1.926)"/><g stroke-miterlimit="7" stroke-width=".964"><path d="m9.303 8.59c-3.55 2.404-1.418 7.017 2.2 7.017v1.91l5-3.57-5-3.34v2c-2.553.1-3.668-2.34-1.844-4.018z" display="block" fill="url(#b)" stroke="url(#c)" stroke-linejoin="round" transform="translate(-2.036 1.926)"/><path d="m8.62 9.833c-1.252 1.47-.124 5.31 3.883 4.785v.99l2.33-1.662-2.33-1.51v.793c-4.397.233-4.256-2.803-3.882-3.398z" display="block" fill="none" opacity=".8" stroke="url(#d)" transform="translate(-2.036 1.926)"/></g></svg>