<svg height="24" width="24" xmlns="http://www.w3.org/2000/svg" xmlns:xlink="http://www.w3.org/1999/xlink"><linearGradient id="a"><stop offset="0" stop-color="#fff"/><stop offset="0" stop-color="#fff" stop-opacity=".23529"/><stop offset="1" stop-color="#fff" stop-opacity=".15686"/><stop offset="1" stop-color="#fff" stop-opacity=".39216"/></linearGradient><linearGradient id="b" gradientUnits="userSpaceOnUse" x1="10.8484" x2="10.8484" xlink:href="#c" y1="8.0466" y2="21.817619"/><linearGradient id="c"><stop offset="0" stop-color="#fff"/><stop offset="1" stop-color="#fff" stop-opacity="0"/></linearGradient><linearGradient id="d" gradientTransform="matrix(.783 0 0 .781 -136.125 -5.74)" gradientUnits="userSpaceOnUse" x1="182" x2="182" xlink:href="#c" y1="33" y2="24.52"/><linearGradient id="e"><stop offset="0" stop-color="#181818"/><stop offset="1" stop-color="#181818" stop-opacity="0"/></linearGradient><radialGradient id="f" cx="4.993" cy="43.5" gradientTransform="matrix(1.9093 0 0 1.4 27.14 -17.4)" gradientUnits="userSpaceOnUse" r="2.5" xlink:href="#e"/><radialGradient id="g" cx="4.993" cy="43.5" gradientTransform="matrix(2.0038 0 0 1.4 -20.012 -104.4)" gradientUnits="userSpaceOnUse" r="2.5" xlink:href="#e"/><linearGradient id="h" gradientTransform="matrix(.95283 0 0 1 .47173 0)" gradientUnits="userSpaceOnUse" x1="25.058" x2="25.058" y1="47.028" y2="39.999"><stop offset="0" stop-color="#181818" stop-opacity="0"/><stop offset=".5" stop-color="#181818"/><stop offset="1" stop-color="#181818" stop-opacity="0"/></linearGradient><linearGradient id="i" gradientUnits="userSpaceOnUse" x1="13.988167" x2="13.608" y1="6" y2="21.532"><stop offset="0" stop-color="#ffa154"/><stop offset="1" stop-color="#f37329"/></linearGradient><linearGradient id="j" gradientUnits="userSpaceOnUse" x1="11.988167" x2="12.00126" xlink:href="#a" y1="8" y2="19.999826"/><linearGradient id="k" gradientTransform="matrix(1.3832 0 0 1.4144 -11.892 21.511)" gradientUnits="userSpaceOnUse" x1="21.610758" x2="21.610758" y1="-8.845447" y2=".34573"><stop offset="0" stop-color="#9bdb4d"/><stop offset="1" stop-color="#68b723"/></linearGradient><linearGradient id="l" gradientUnits="userSpaceOnUse" x1="12" x2="12.00126" xlink:href="#a" y1="11" y2="19.999826"/><linearGradient id="m" gradientUnits="userSpaceOnUse" x1="15.608" x2="15.608" y1="2.5455" y2="21.532"><stop offset="0" stop-color="#cd9ef7"/><stop offset="1" stop-color="#a56de2"/></linearGradient><linearGradient id="n" gradientUnits="userSpaceOnUse" x1="14.00124" x2="14.00124" xlink:href="#a" y1="4.000005" y2="19.999826"/><g opacity=".4" transform="matrix(.65293831 0 0 .42856238 -3.077376 2.857011)"><path d="m36.679 40h4.7641v7h-4.7641z" fill="url(#f)"/><path d="m-10-47h5v7h-5z" fill="url(#g)" transform="scale(-1)"/><path d="m10 40h26.679v7h-26.679z" fill="url(#h)"/></g><g transform="translate(-9.0118)"><rect fill="url(#m)" height="19" rx="1" width="4.999999" x="18.511801" y="2.5"/><g fill="none" stroke-linecap="round" stroke-linejoin="round"><path d="m19.521 3.4917h2.9801v17.007h-2.9801z" opacity=".5" stroke="url(#n)"/><rect height="19" opacity=".5" rx="1" stroke="#7239b3" width="4.999999" x="18.511801" y="2.5"/></g></g><g transform="translate(.011833)"><rect fill="url(#i)" height="15" rx="1" width="5" x="16.488167" y="6.5"/><g fill="none" stroke-linecap="round" stroke-linejoin="round"><path d="m17.488167 7.5h3v13h-3z" opacity=".5" stroke="url(#j)"/><rect height="15.0002" opacity=".5" rx="1" stroke="#cc3b02" width="5.012034" x="16.488167" y="6.5"/></g></g><g transform="translate(-14)"><rect fill="url(#k)" height="12.000099" rx="1" width="4.999701" x="16.5" y="9.5"/><g fill="none" stroke-linecap="round" stroke-linejoin="round"><path d="m17.505 10.507h2.9967v9.9918h-2.9967z" opacity=".5" stroke="url(#l)"/><rect height="12" opacity=".5" rx="1" stroke="#0f5a00" width="5" x="16.5" y="9.5"/></g></g><path d="m1.5 6.46 16 16h-16zm3 8.5v4.5h5z" fill="#81d72c" fill-opacity=".588" fill-rule="evenodd" stroke="#4e9a06" stroke-linejoin="round"/><g fill="none"><path d="m2.5 8.857v12.603h12.602z" opacity=".5" stroke="url(#b)"/><path d="m3.5 13.785v6.675h7" opacity=".5" stroke="url(#d)"/></g></svg>