<svg height="24" viewBox="0 0 6.3499999 6.3500002" width="24" xmlns="http://www.w3.org/2000/svg" xmlns:xlink="http://www.w3.org/1999/xlink"><linearGradient id="a"><stop offset="0"/><stop offset="1" stop-opacity="0"/></linearGradient><radialGradient id="b" cx="11.03125" cy="17.125" gradientTransform="matrix(.63623879 0 0 .14315373 8.98149 18.449012)" gradientUnits="userSpaceOnUse" r="9.84375" xlink:href="#a"/><linearGradient id="c" gradientTransform="matrix(.57894734 0 0 .55555556 34.074641 10.496731)" gradientUnits="userSpaceOnUse" x1="11.192374" x2="11.192374" y1="-.740988" y2="30.298229"><stop offset="0" stop-color="#ff8c82"/><stop offset=".31209752" stop-color="#ed5353"/><stop offset=".57054454" stop-color="#c6262e"/><stop offset="1" stop-color="#a10705"/></linearGradient><linearGradient id="d" gradientUnits="userSpaceOnUse" x1="41.225124" x2="41.225124" y1="23.238064" y2="7.39004"><stop offset="0" stop-color="#7a0000"/><stop offset="1" stop-color="#a10705"/></linearGradient><linearGradient id="e" gradientTransform="matrix(.3077295 -.29497944 .3077295 .29497944 25.944842 17.144019)" gradientUnits="userSpaceOnUse" x1="36.010902" x2="16.331276" xlink:href="#f" y1="13.022708" y2="32.702335"/><linearGradient id="f"><stop offset="0" stop-color="#fff" stop-opacity=".702"/><stop offset="1" stop-color="#fff" stop-opacity="0"/></linearGradient><linearGradient id="g" gradientTransform="matrix(.3077295 -.29497944 .3077295 .29497944 25.634631 17.292858)" gradientUnits="userSpaceOnUse" x1="28.449389" x2="16.331276" xlink:href="#f" y1="20.584223" y2="32.702335"/><linearGradient id="h" gradientTransform="matrix(-.00271019 .50014348 -.5122065 -.00277662 -10.621166 -10.412536)" gradientUnits="userSpaceOnUse" x1="18.573938" x2="62.560024" y1="-44.262432" y2="-44.495171"><stop offset="0" stop-color="#fff394"/><stop offset=".262" stop-color="#ffe16b"/><stop offset=".661" stop-color="#f9c440"/><stop offset="1" stop-color="#d48e15"/></linearGradient><radialGradient id="i" cx="1.196594" cy="17.424702" gradientTransform="matrix(.53333333 0 0 .11633788 9.361817 20.415424)" gradientUnits="userSpaceOnUse" r="16.875" xlink:href="#a"/><linearGradient id="j" gradientUnits="userSpaceOnUse" x1="13" x2="13" y1=".999998" y2="11.999999"><stop offset="0" stop-color="#fff"/><stop offset=".04494323" stop-color="#fff" stop-opacity=".235294"/><stop offset="1" stop-color="#fff" stop-opacity=".156863"/><stop offset="1" stop-color="#fff" stop-opacity=".392157"/></linearGradient><g transform="matrix(.26458333 0 0 .26458333 0 -.24939)"><ellipse cx="10.561817" cy="22.276831" display="block" fill="url(#i)" fill-rule="evenodd" opacity=".291" rx="9" ry="1.963204"/><path d="m4.9824219-.49609377c-1.3759392.00038298-2.4863159.91328684-2.4824219 2.04687507l.0000001 6.4492173-.0000001 3.4544704c0 1.133595 1.1064826 2.046875 2.4824219 2.046875h3.1113281l-1.0937499 4.998655 4.7753909-4.488889.692035-.513672h6.550152c1.375939 0 2.482422-.91328 2.482422-2.046875v-.950564-8.9531244c0-1.13359475-1.106483-2.04725794-2.482422-2.04687495z" fill="url(#h)" stroke="#ad5f00" stroke-linecap="round" stroke-linejoin="round" stroke-opacity=".501961" transform="translate(0 3.942578)"/><path d="m4.9785157.49609221c-.8193638-.00022833-1.4785156.34795195-1.4785156 1.00390629v10.0000005c0 .5.6806362 1 1.5 1h3.0000001c.5844537-.050415 1.1557789.268001 1.1507732.834195l-.4974342 2.261586 2.8521848-2.67312c.26576-.155803.494476-.344393.818134-.422661h6.676342c1 0 1.5-.5 1.5-1v-10.0000005c0-.50000003-.680636-.99977051-1.5-.99999885z" fill="none" opacity=".5" stroke="url(#j)" transform="translate(0 3.942578)"/></g><g transform="matrix(.23235095 0 0 .2339804 1.177177 1.12997)"><path d="m22.262975 20.900519a6.2629757 1.4091694 0 0 1 -12.5259514 0 6.2629757 1.4091694 0 1 1 12.5259514 0z" fill="url(#b)" opacity=".4"/><g transform="translate(-25.02201 -.941175)"><path d="m46.52201 20.385514-3.184991-2.946158 3.06471-3.086417-2.209232-1.911764-3.154011 2.941176-3.217945-2.941176-2.298531 1.982082 3.217944 3.003528-3.217944 2.955566 2.298531 2.058824 3.214211-3.088236 3.22168 3.088236z" fill="url(#c)" stroke="url(#d)" stroke-linejoin="round"/><g fill="none"><path d="m44.93385 14.418281-.647334-.627116-3.264508 2.866366-3.225731-2.863558-.824531.673766" opacity=".5" stroke="url(#e)" stroke-linecap="square"/><path d="m45.42749 20.732088-2.99345-2.713434m-2.968147.03651-2.804358 2.701545" opacity=".4" stroke="url(#g)"/></g></g></g></svg>