<svg height="24" width="24" xmlns="http://www.w3.org/2000/svg" xmlns:xlink="http://www.w3.org/1999/xlink"><linearGradient id="a"><stop offset="0" stop-color="#1f1f1f"/><stop offset="1" stop-color="#5c5c5c"/></linearGradient><linearGradient id="b" gradientUnits="userSpaceOnUse" x1="11.081266" x2="6.030824" xlink:href="#a" y1="11.824821" y2="5.76429"/><linearGradient id="c" gradientUnits="userSpaceOnUse" x1="16.08333" x2="13.280817" xlink:href="#a" y1="15.414468" y2="12.051452"/><radialGradient id="d" cx="11.25" cy="19.03125" gradientTransform="matrix(1.4883719 0 0 .40930306 -2.795031 13.096898)" gradientUnits="userSpaceOnUse" r="8.0625"><stop offset="0" stop-color="#0d0d0d"/><stop offset="1" stop-color="#0d0d0d" stop-opacity="0"/></radialGradient><ellipse cx="13.949153" cy="20.886438" fill="url(#d)" opacity=".162921" rx="11.999998" ry="3.300003"/><path d="m10.645452 9.8590969h-2.5288075v8.7458401h-1.6432684v-8.7458401h-1.7528196v-.7668586l1.7528196-.5660147v-.575144q0-1.8258538.7942464-2.7387807.8033757-.9129269 2.4649027-.9129269.9585728 0 1.9445338.337783l-.438204 1.2872269q-.849022-.2738781-1.4880713-.2738781-.8307635 0-1.2324513.5477562-.4016879.5477561-.4016879 1.7345611v.6481781h2.5288075z" style="stroke:#000;stroke-width:1.010088;stroke-linejoin:round;stroke-linecap:round;opacity:.66;fill:url(#b)" transform="scale(.95434614 1.0478378)"/><g style="opacity:.66;stroke:#000;stroke-width:.561;stroke-linecap:round;stroke-linejoin:round;fill:url(#c)" transform="scale(.95848835 1.0433095)"><path d="m12.812102 16.334828q0-1.342456.390073-2.512672.395138-1.170217 1.134755-2.051679h.861198q-.729485.977714-1.099294 2.14793-.364743 1.170217-.364743 2.406289 0 1.21581.374875 2.375895.374874 1.160084 1.079031 2.117534h-.851067q-.744683-.861198-1.134755-2.011151-.390073-1.149953-.390073-2.472146z"/><path d="m17.715867 16.334828-1.919966-2.720373h1.038504l1.433642 2.097271 1.418444-2.097271h1.028372l-1.919965 2.720373 2.026349 2.841955h-1.038504l-1.514696-2.218852-1.534959 2.218852h-1.028373z"/><path d="m23.703727 16.334828q0 1.332325-.395138 2.482278-.390072 1.149953-1.129689 2.001019h-.851067q.704156-.952384 1.079031-2.112469.374875-1.16515.374875-2.38096 0-1.236072-.369809-2.406289-.364743-1.170216-1.094229-2.14793h.861199q.744683.886528 1.134755 2.06181.390072 1.170217.390072 2.502541z"/></g></svg>