<svg height="24" width="24" xmlns="http://www.w3.org/2000/svg" xmlns:xlink="http://www.w3.org/1999/xlink"><linearGradient id="a" gradientUnits="userSpaceOnUse" x1="12" x2="12" xlink:href="#r" y1="13" y2="19"/><linearGradient id="b" gradientTransform="matrix(.65657 -.6598 .73452 .73087 -21.95 5.314)" gradientUnits="userSpaceOnUse" x1="23.576" x2="23.576" y1="25.357" y2="31.211"><stop offset="0" stop-color="#181818"/><stop offset=".135" stop-color="#dbdbdb"/><stop offset=".202" stop-color="#a4a4a4"/><stop offset=".27" stop-color="#fff"/><stop offset=".447" stop-color="#8d8d8d"/><stop offset=".571" stop-color="#959595"/><stop offset=".72" stop-color="#cecece"/><stop offset="1" stop-color="#181818"/></linearGradient><linearGradient id="c" gradientTransform="matrix(.638 -.64114 .85963 .85535 -24.357 1.938)" gradientUnits="userSpaceOnUse" x1="30.038" x2="30.038" xlink:href="#d" y1="24.99" y2="30"/><linearGradient id="d"><stop offset="0" stop-color="#565656"/><stop offset=".5" stop-color="#9a9a9a"/><stop offset="1" stop-color="#545454"/></linearGradient><linearGradient id="e" gradientTransform="matrix(.638 -.64114 .85963 .85535 -24.54 2.122)" gradientUnits="userSpaceOnUse" x1="30.038" x2="30.038" xlink:href="#f" y1="24.99" y2="30"/><linearGradient id="f"><stop offset="0" stop-color="#b1b1b1"/><stop offset=".5" stop-color="#fff"/><stop offset="1" stop-color="#8f8f8f"/></linearGradient><linearGradient id="g" gradientTransform="matrix(.638 -.64114 .85963 .85535 -23.722 1.3)" gradientUnits="userSpaceOnUse" x1="30.038" x2="30.038" xlink:href="#d" y1="24.99" y2="30"/><linearGradient id="h" gradientTransform="matrix(.638 -.64114 .85963 .85535 -23.905 1.484)" gradientUnits="userSpaceOnUse" x1="30.038" x2="30.038" xlink:href="#f" y1="24.99" y2="30"/><linearGradient id="i" gradientTransform="matrix(.638 -.64114 .85963 .85535 -23.084 .66)" gradientUnits="userSpaceOnUse" x1="30.038" x2="30.038" xlink:href="#d" y1="24.99" y2="30"/><linearGradient id="j" gradientTransform="matrix(.638 -.64114 .85963 .85535 -23.267 .843)" gradientUnits="userSpaceOnUse" x1="30.038" x2="30.038" xlink:href="#f" y1="24.99" y2="30"/><linearGradient id="k" gradientTransform="matrix(.638 -.64114 .85963 .85535 -24.6 2.182)" gradientUnits="userSpaceOnUse" x1="9" x2="9" y1="29.057" y2="26.03"><stop offset="0" stop-color="#ece5a5"/><stop offset="1" stop-color="#fcfbf2"/></linearGradient><linearGradient id="l" gradientTransform="matrix(.56036 .0242 .02416 .55967 -1.392 -1.445)" gradientUnits="userSpaceOnUse" x1="5.518" x2="9.522" y1="37.372" y2="41.392"><stop offset="0" stop-color="#dbce48"/><stop offset="1" stop-color="#c5b625"/></linearGradient><linearGradient id="m"><stop offset="0" stop-color="#181818"/><stop offset="1" stop-color="#181818" stop-opacity="0"/></linearGradient><radialGradient id="n" cx="4.993" cy="43.5" gradientTransform="matrix(2.0038 0 0 1.4 27.988 -17.4)" gradientUnits="userSpaceOnUse" r="2.5" xlink:href="#m"/><radialGradient id="o" cx="4.993" cy="43.5" gradientTransform="matrix(2.0038 0 0 1.4 -20.012 -104.4)" gradientUnits="userSpaceOnUse" r="2.5" xlink:href="#m"/><linearGradient id="p" gradientUnits="userSpaceOnUse" x1="25.058" x2="25.058" y1="47.028" y2="39.999"><stop offset="0" stop-color="#181818" stop-opacity="0"/><stop offset=".5" stop-color="#181818"/><stop offset="1" stop-color="#181818" stop-opacity="0"/></linearGradient><linearGradient id="q" gradientUnits="userSpaceOnUse" x1="12.001" x2="12.001" y1="3.269" y2="20.728"><stop offset="0" stop-color="#fff"/><stop offset=".063" stop-color="#fff" stop-opacity=".235"/><stop offset=".951" stop-color="#fff" stop-opacity=".157"/><stop offset="1" stop-color="#fff" stop-opacity=".392"/></linearGradient><radialGradient id="r" cx="7.496" cy="8.45" gradientTransform="matrix(0 1.1385 -1.2044 0 22.177 -5.75)" gradientUnits="userSpaceOnUse" r="20"><stop offset="0" stop-color="#fafafa"/><stop offset="1" stop-color="#e1e1e1"/></radialGradient><g opacity=".4"><path d="m38 40h5v7h-5z" fill="url(#n)" transform="matrix(.579 0 0 .4286 -1.895 2.857)"/><path d="m-10-47h5v7h-5z" fill="url(#o)" transform="matrix(-.579 0 0 -.4286 -1.895 2.857)"/><path d="m10 40h28v7h-28z" fill="url(#p)" transform="matrix(.579 0 0 .4286 -1.895 2.857)"/></g><path d="m3.5 3c-.286 0-.5.214-.5.5v17c0 .286.214.5.5.5h17c.286 0 .5-.214.5-.5v-17c0-.286-.214-.5-.5-.5z" fill="url(#r)"/><path d="m3.5 3.5h17v17h-17z" fill="none" opacity=".5" stroke="url(#q)" stroke-linecap="round" stroke-linejoin="round"/><g fill-rule="evenodd"><path d="m4.936 4.975a.444.444 0 0 1 -.89 0 .444.444 0 1 1 .89 0z" fill="#fff"/><path d="m4.936 4.53a.444.444 0 0 1 -.89 0 .444.444 0 1 1 .89 0z" opacity=".3"/><path d="m19.916 4.975a.444.444 0 0 1 -.89 0 .444.444 0 1 1 .89 0z" fill="#fff"/><path d="m19.916 4.53a.444.444 0 0 1 -.89 0 .444.444 0 1 1 .89 0z" opacity=".3"/><path d="m4.936 19.992a.444.444 0 0 1 -.89 0 .444.444 0 1 1 .89 0z" fill="#fff"/><path d="m4.936 19.548a.444.444 0 0 1 -.89 0 .444.444 0 1 1 .89 0z" opacity=".3"/><path d="m19.916 19.992a.444.444 0 0 1 -.89 0 .444.444 0 1 1 .89 0z" fill="#fff"/><path d="m19.916 19.548a.444.444 0 0 1 -.89 0 .444.444 0 1 1 .89 0z" opacity=".3"/></g><rect fill="#b5b5b5" height="5" rx="1" width="14" x="5" y="7"/><path d="m3.5 2c-.822 0-1.5.678-1.5 1.5v17c0 .822.678 1.5 1.5 1.5h17c.822 0 1.5-.678 1.5-1.5v-17c0-.822-.678-1.5-1.5-1.5zm0 1h17c.286 0 .5.214.5.5v17c0 .286-.214.5-.5.5h-17c-.286 0-.5-.214-.5-.5v-17c0-.286.214-.5.5-.5z" fill-opacity=".239"/><rect fill="#cacaca" height="4" rx="1" width="14" x="5" y="8"/><rect fill="#bababa" height="5" rx=".69" width="14" x="5" y="14"/><rect fill="url(#a)" height="3" rx=".384" width="12" x="6" y="15"/><g fill="#4d4d4d"><path d="m8 16h1v1h-1z"/><path d="m9 15h1v1h-1z"/><path d="m10 16h1v1h-1z"/><path d="m8 17h1v1h-1z"/><path d="m10 17h1v1h-1z"/><path d="m9 18h1v1h-1z"/><path d="m12 15h1v1h-1z"/><path d="m12 16h1v1h-1z"/><path d="m12 17h1v1h-1z"/><path d="m12 18h1v1h-1z"/><path d="m14 15h1v1h-1z"/><path d="m13 16h1v1h-1z"/><path d="m14 17h1v1h-1z"/><path d="m14 18h1v1h-1z"/></g><path d="m21.362 19.94c-.137-.02-.245-.008-.316.008l-9.546 2.197-1.756.405-.054.01-2.136 1.505 5.097-.135.044-.01 1.768-.404 9.543-2.212c.287-.067-.142-.423-.96-.8-.615-.284-1.27-.502-1.683-.563z" fill="#0c0c0c" fill-rule="evenodd" opacity=".15"/><path d="m3.996 16.48c.446-.335 1.697.293 2.847 1.437 1.147 1.14 1.75 2.362 1.424 2.813 0 0 .028.025.027.026l16.01-16.088c.406-.41-.225-1.7-1.41-2.88-1.189-1.18-2.484-1.805-2.889-1.398z" fill="url(#b)" stroke="#0c0c0c" stroke-linejoin="round" stroke-width=".5" transform="matrix(.6892 0 0 .6892 7.023 7.518)"/><path d="m19.464 9.14c.308-.23 1.17.203 1.962.99.79.788 1.208 1.63.982 1.94l.02.018 1.345-1.353.028-.028c.002 0-.02-.017-.018-.018.226-.31-.19-1.153-.98-1.94-.794-.788-1.656-1.22-1.964-.99l-.027.027-1.346 1.354z" fill="#ffb6ed" opacity=".8" stroke="#e28ccd" stroke-linejoin="round" stroke-width=".3446"/><path d="m9.777 18.876c.307-.23 1.17.202 1.962.99.79.787 1.206 1.628.98 1.94l.02.017 7.598-7.636.027-.027c0-.002-.02-.018-.018-.02.225-.31-.19-1.15-.982-1.938s-1.654-1.22-1.962-.99l-.027.028z" fill="#0c0c0c" opacity=".6"/><path d="m15.862 4.555c.446-.334 1.697.293 2.847 1.437 1.146 1.142 1.75 2.363 1.423 2.813 0 .002.028.025.027.027l.2-.2c0-.002-.03-.025-.028-.027.327-.45-.277-1.672-1.424-2.813-1.15-1.144-2.4-1.772-2.847-1.437z" fill="url(#c)" transform="matrix(.6892 0 0 .6892 7.023 7.518)"/><path d="m15.68 4.74c.445-.336 1.696.292 2.846 1.436 1.147 1.14 1.75 2.363 1.424 2.813 0 0 .028.024.027.026l.2-.2c0-.002-.03-.026-.027-.027.327-.452-.278-1.673-1.425-2.814-1.15-1.144-2.4-1.772-2.847-1.437z" fill="url(#e)" transform="matrix(.6892 0 0 .6892 7.023 7.518)"/><path d="m16.497 3.917c.446-.334 1.697.293 2.847 1.437 1.147 1.142 1.75 2.363 1.424 2.813 0 .002.028.025.027.027l.2-.2c0-.002-.03-.025-.028-.027.327-.45-.277-1.672-1.424-2.813-1.15-1.144-2.4-1.772-2.847-1.437z" fill="url(#g)" transform="matrix(.6892 0 0 .6892 7.023 7.518)"/><path d="m16.314 4.1c.446-.334 1.697.294 2.847 1.438 1.148 1.14 1.752 2.363 1.425 2.813 0 .003.028.026.027.028l.2-.2c0-.002-.03-.026-.027-.027.327-.45-.278-1.67-1.425-2.812-1.15-1.144-2.4-1.772-2.847-1.437z" fill="url(#h)" transform="matrix(.6892 0 0 .6892 7.023 7.518)"/><path d="m17.135 3.276c.446-.334 1.697.293 2.847 1.437 1.147 1.142 1.75 2.363 1.424 2.813 0 .002.028.025.027.027l.2-.2c0-.002-.03-.025-.028-.027.327-.45-.277-1.672-1.424-2.813-1.15-1.144-2.4-1.772-2.846-1.437z" fill="url(#i)" transform="matrix(.6892 0 0 .6892 7.023 7.518)"/><path d="m16.952 3.46c.446-.335 1.697.293 2.847 1.437 1.146 1.14 1.75 2.362 1.423 2.813 0 0 .028.025.027.026l.2-.2c0-.002-.03-.025-.027-.027.327-.45-.278-1.672-1.425-2.813-1.15-1.145-2.4-1.772-2.847-1.438z" fill="url(#j)" transform="matrix(.6892 0 0 .6892 7.023 7.518)"/><g fill-rule="evenodd"><path d="m.928 23.76 7.283-2.97.063-.06c.327-.452-.285-1.673-1.432-2.814-1.15-1.144-2.398-1.77-2.844-1.434z" fill="url(#k)" stroke="url(#l)" stroke-width=".5" transform="matrix(.6892 0 0 .6892 7.023 7.518)"/><path d="m8.235 22.536-.573 1.353 1.37-.562c-.11-.132-.212-.265-.344-.396-.15-.15-.3-.274-.453-.396z" fill="#0c0c0c" stroke="#0c0c0c" stroke-width=".3446"/></g></svg>