<svg height="24" width="24" xmlns="http://www.w3.org/2000/svg" xmlns:xlink="http://www.w3.org/1999/xlink"><linearGradient id="a" gradientTransform="matrix(.25508209 .06834904 -.06793671 .25354327 13.649428 8.26572)" gradientUnits="userSpaceOnUse" x1="24.139" x2="24.139" y1="10.631" y2="35.623001"><stop offset="0" stop-color="#fff"/><stop offset="0" stop-color="#fff" stop-opacity=".235"/><stop offset="1" stop-color="#fff" stop-opacity=".157"/><stop offset="1" stop-color="#fff" stop-opacity=".392"/></linearGradient><linearGradient id="b" gradientUnits="userSpaceOnUse" x1="12.484426" x2="16.062" y1="1040.1547" y2="1051.126"><stop offset="0" stop-color="#ff8c82"/><stop offset="1" stop-color="#c6262e"/></linearGradient><linearGradient id="c" gradientTransform="matrix(-.222635 -.37381299 .385616 -.215821 26.912532 54.139086)" gradientUnits="userSpaceOnUse" spreadMethod="reflect" x1="82.923607" x2="107.10129" y1="27.590219" y2="27.913111"><stop offset="0" stop-color="#c2c3c4"/><stop offset=".09508789" stop-color="#c4c5c8"/><stop offset="1" stop-color="#fcfcfc"/></linearGradient><linearGradient id="d" gradientUnits="userSpaceOnUse" x1="6.661862" x2="19.652243" y1="11.660338" y2="4.160338"><stop offset="0" stop-color="#fff"/><stop offset="0" stop-color="#fff" stop-opacity=".235294"/><stop offset=".74407381" stop-color="#fff" stop-opacity=".156863"/><stop offset="1" stop-color="#fff" stop-opacity=".392157"/></linearGradient><linearGradient id="e" gradientUnits="userSpaceOnUse" x1=".110175" x2="22.257858" y1="11.067201" y2="11.067201"><stop offset="0" stop-opacity=".339506"/><stop offset="1" stop-opacity=".246914"/></linearGradient><g transform="matrix(-.5 .8660254 -.8660254 -.5 25.42908 5.060827)"><path d="m10.112109 20.640247 2.344358-1.353516 2.816611-9.7113296 6.495191-3.75c-.197165-1.8980106-1.161447-3.2342531-2.5-4.330127l-6.495191 3.75-9.8185638-2.4164084-2.34435782 1.3535156 4.76281672 8.2220964z" fill="url(#c)" fill-rule="evenodd" stroke="url(#e)" stroke-linejoin="round"/><path d="m6.237307 11.905455 4.241543 7.366099 1.154003-.666264 2.82554-9.7142305 6.172328-3.5726163c-.323052-.9681865-.777781-1.8513276-1.496093-2.5913104l-6.176235 3.5658505-9.8154759-2.415936-1.1640675.6720747z" fill="none" stroke="url(#d)"/></g><g transform="translate(0 1.000002)"><path d="m11.17 1044.173 3.85 1.973 4.747295-8.3551 2.094705 1.1191.514.348-6.314 11.868-7.48-4.568 1.903-2.89z" fill="url(#b)" transform="matrix(.90518841 .2425445 -.2425445 .90518841 255.36509 -932.81046)"/><g fill="none"><path d="m14.83991 19.142186 6.784171-6.574226 1.180594 1.235097m-7.44497 7.6681-4.892384-4.671607 1.136215-1.126565" opacity=".5" stroke="url(#a)" stroke-width=".93712"/><path d="m21.722 11.492c-.176-.067-.38-.025-.52.124l-5.96 6.328-3.263-3.197c-.195-.188-.5-.183-.688.016l-1.726 1.597c-.186.197-.18.508.014.696l5.06 5.212c.047.045.177.126.23.148.18.074.316-.016.46-.167l8.036-8.536c.187-.198.18-.51-.013-.697l-1.465-1.42c-.048-.048-.107-.082-.166-.104z" opacity=".5" stroke="#7a0000" stroke-linecap="round" stroke-linejoin="round" stroke-width=".999907"/></g></g></svg>