<svg xmlns="http://www.w3.org/2000/svg" xmlns:xlink="http://www.w3.org/1999/xlink" height="24" width="24"><defs><linearGradient id="a"><stop offset="0" stop-color="#737373"/><stop offset=".262" stop-color="#636363"/><stop offset=".705" stop-color="#4b4b4b"/><stop offset="1" stop-color="#3f3f3f"/></linearGradient><linearGradient xlink:href="#a" id="g" gradientUnits="userSpaceOnUse" x1="19.823" y1="10.543" x2="16.693" y2="20.128"/><linearGradient xlink:href="#a" id="f" gradientUnits="userSpaceOnUse" x1="17.736" y1="11.502" x2="17.736" y2="18.211"/><linearGradient xlink:href="#a" id="e" gradientUnits="userSpaceOnUse" x1="14.606" y1="10.543" x2="14.606" y2="20.128"/></defs><linearGradient id="c" gradientUnits="userSpaceOnUse" x1="7.335" x2="6.473" xlink:href="#a" y1=".954" y2="18.605"/><linearGradient id="d" gradientUnits="userSpaceOnUse" x1="16.083" x2="13.281" xlink:href="#a" y1="15.414" y2="12.051"/><radialGradient id="b" cx="11.25" cy="19.031" gradientTransform="matrix(1.48837 0 0 .4093 -2.795 13.097)" gradientUnits="userSpaceOnUse" r="8.063"><stop offset="0" stop-color="#0d0d0d"/><stop offset="1" stop-color="#0d0d0d" stop-opacity="0"/></radialGradient><ellipse cx="13.949" cy="20.886" fill="url(#b)" opacity=".163" rx="12" ry="3.3"/><path d="M10.645 9.86H8.117v8.745H6.473V9.86H4.72V9.09l1.753-.566V7.95q0-1.825.795-2.738Q8.07 4.3 9.733 4.3q.958 0 1.944.337l-.438 1.287q-.85-.273-1.49-.273-.83 0-1.232.548-.4.548-.4 1.735v.648h2.527z" transform="scale(.95435 1.04784)" stroke="#000" stroke-width="1.01" stroke-linejoin="round" stroke-linecap="round" fill="url(#c)" stroke-opacity=".49"/><g transform="scale(.9585 1.0433)" stroke="#000" stroke-width=".561" stroke-linecap="round" stroke-linejoin="round" fill="url(#d)" stroke-opacity=".49"><path d="M12.812 16.335q0-1.343.39-2.513.395-1.17 1.135-2.052h.86q-.728.978-1.098 2.148-.366 1.17-.366 2.407 0 1.216.375 2.376.374 1.16 1.078 2.118h-.85q-.746-.86-1.136-2.01-.39-1.15-.39-2.473z" fill="url(#e)"/><path d="M17.716 16.335l-1.92-2.72h1.038l1.434 2.097 1.418-2.098h1.03l-1.92 2.72 2.025 2.843h-1.037l-1.515-2.22-1.535 2.22h-1.028z" fill="url(#f)"/><path d="M23.704 16.335q0 1.332-.395 2.482-.39 1.15-1.13 2h-.852q.704-.95 1.08-2.11.374-1.166.374-2.382 0-1.236-.37-2.407-.365-1.17-1.094-2.148h.86q.746.887 1.136 2.062.39 1.17.39 2.503z" fill="url(#g)"/></g></svg>