<svg height="24" width="24" xmlns="http://www.w3.org/2000/svg" xmlns:xlink="http://www.w3.org/1999/xlink"><linearGradient id="a" gradientTransform="matrix(.415777 -.4174938 .518983 .5146192 -15.747227 2.650367)" gradientUnits="userSpaceOnUse" spreadMethod="pad" x1="23.575972" x2="23.575972" y1="25.356892" y2="31.210939"><stop offset="0" stop-color="#ad5f00"/><stop offset=".13482948" stop-color="#ffe16b"/><stop offset=".20224422" stop-color="#f9c440"/><stop offset=".26965895" stop-color="#fff394"/><stop offset=".44650277" stop-color="#f9c440"/><stop offset=".57114136" stop-color="#f9c440"/><stop offset=".72038066" stop-color="#ffe16b"/><stop offset="1" stop-color="#ad5f00"/></linearGradient><linearGradient id="b" gradientTransform="matrix(.4282553 -.43106531 .53455872 .53134798 -8.236684 10.17891)" gradientUnits="userSpaceOnUse" spreadMethod="pad" x1="23.575972" x2="23.575972" y1="25.356892" y2="31.210939"><stop offset="0" stop-color="#7e8087"/><stop offset=".13482948" stop-color="#d4d4d4"/><stop offset=".20224422" stop-color="#abacae"/><stop offset=".26965895" stop-color="#fafafa"/><stop offset=".44650277" stop-color="#abacae"/><stop offset=".57114136" stop-color="#abacae"/><stop offset=".72038066" stop-color="#d4d4d4"/><stop offset="1" stop-color="#7e8087"/></linearGradient><linearGradient id="c" gradientTransform="matrix(.4040235 -.4056919 .6073752 .6022679 -17.867764 .693027)" gradientUnits="userSpaceOnUse" x1="30.037716" x2="30.037716" xlink:href="#d" y1="24.989594" y2="30.000141"/><linearGradient id="d"><stop offset="0" stop-color="#555761"/><stop offset=".5" stop-color="#abacae"/><stop offset="1" stop-color="#555761"/></linearGradient><linearGradient id="e" gradientTransform="matrix(.4040235 -.4056919 .6073752 .6022679 -17.983472 .809213)" gradientUnits="userSpaceOnUse" x1="30.037716" x2="30.037716" xlink:href="#f" y1="24.989594" y2="30.000141"/><linearGradient id="f"><stop offset="0" stop-color="#abacae"/><stop offset=".5" stop-color="#fafafa"/><stop offset="1" stop-color="#abacae"/></linearGradient><linearGradient id="g" gradientTransform="matrix(.4040235 -.4056919 .6073752 .6022679 -17.465684 .289287)" gradientUnits="userSpaceOnUse" x1="30.037716" x2="30.037716" xlink:href="#d" y1="24.989594" y2="30.000141"/><linearGradient id="h" gradientTransform="matrix(.4040235 -.4056919 .6073752 .6022679 -17.581392 .405471)" gradientUnits="userSpaceOnUse" x1="30.037716" x2="30.037716" xlink:href="#f" y1="24.989594" y2="30.000141"/><linearGradient id="i" gradientTransform="matrix(.4040235 -.4056919 .6073752 .6022679 -17.061661 -.116406)" gradientUnits="userSpaceOnUse" x1="30.037716" x2="30.037716" xlink:href="#d" y1="24.989594" y2="30.000141"/><linearGradient id="j" gradientTransform="matrix(.4040235 -.4056919 .6073752 .6022679 -17.177369 -.00022)" gradientUnits="userSpaceOnUse" x1="30.037716" x2="30.037716" xlink:href="#f" y1="24.989594" y2="30.000141"/><linearGradient id="k" gradientTransform="matrix(.4040235 -.4056919 .6073752 .602268 -17.636692 .462492)" gradientUnits="userSpaceOnUse" x1="9" x2="9" y1="29.056757" y2="26.02973"><stop offset="0" stop-color="#fff394"/><stop offset="1" stop-color="#fafafa"/></linearGradient><linearGradient id="l" gradientTransform="matrix(.3763801 .03615261 .03669995 .374874 -2.218281 -1.1331)" gradientUnits="userSpaceOnUse" x1="5.517898" x2="9.522056" y1="37.371799" y2="41.391716"><stop offset="0" stop-color="#d48e15"/><stop offset="1" stop-color="#ad5f00"/></linearGradient><linearGradient id="m" gradientTransform="matrix(.48571425 0 0 .5 .342857 7.750001)" gradientUnits="userSpaceOnUse" x1="21.381216" x2="21.381216" y1="5.052486" y2="44.137077"><stop offset="0" stop-color="#fff"/><stop offset=".08125819" stop-color="#fff" stop-opacity=".235294"/><stop offset=".92327863" stop-color="#fff" stop-opacity=".156863"/><stop offset="1" stop-color="#fff" stop-opacity=".392157"/></linearGradient><radialGradient id="n" cx="23.334524" cy="41.63604" gradientTransform="matrix(.48613594 0 0 .19884311 .65625 19.220963)" gradientUnits="userSpaceOnUse" r="22.627417"><stop offset="0"/><stop offset="1" stop-opacity="0"/></radialGradient><linearGradient id="o" gradientTransform="matrix(.37654594 0 0 .35839049 -27.150809 31.67023)" gradientUnits="userSpaceOnUse" spreadMethod="reflect" x1="103.95014" x2="89.423676" xlink:href="#p" y1="-7.665694" y2="-7.665694"/><linearGradient id="p"><stop offset="0" stop-color="#868688"/><stop offset="1" stop-color="#d9d9da"/></linearGradient><linearGradient id="q" gradientTransform="matrix(.8224499 0 0 .82905873 -65.448598 8.077184)" gradientUnits="userSpaceOnUse" x1="89.01844" x2="89.01844" xlink:href="#r" y1="22.536863" y2="27.54611"/><linearGradient id="r"><stop offset="0" stop-color="#a0a0a0"/><stop offset="1" stop-color="#4a4a4a"/></linearGradient><linearGradient id="s" gradientTransform="matrix(.37654594 0 0 .35839049 -27.150809 26.670231)" gradientUnits="userSpaceOnUse" spreadMethod="reflect" x1="103.95014" x2="89.423676" xlink:href="#p" y1="-7.665694" y2="-7.665694"/><linearGradient id="t" gradientTransform="matrix(.8224499 0 0 .82905873 -65.448598 3.077185)" gradientUnits="userSpaceOnUse" x1="89.01844" x2="89.01844" xlink:href="#r" y1="22.536863" y2="27.54611"/><linearGradient id="u" gradientTransform="matrix(.37654594 0 0 .352792 -27.150809 21.746031)" gradientUnits="userSpaceOnUse" spreadMethod="reflect" x1="103.95014" x2="89.423676" xlink:href="#p" y1="-7.665694" y2="-7.665694"/><linearGradient id="v" gradientTransform="matrix(.8224499 0 0 .81610786 -65.448598 -1.478464)" gradientUnits="userSpaceOnUse" x1="89.01844" x2="89.01844" xlink:href="#r" y1="22.536863" y2="27.54611"/><linearGradient id="w" gradientTransform="matrix(.37845152 0 0 .34136193 -27.338025 17.61463)" gradientUnits="userSpaceOnUse" spreadMethod="reflect" x1="102.30806" x2="102.30806" y1="-2.392547" y2="-24.582239"><stop offset="0" stop-color="#a5a6a8"/><stop offset="1" stop-color="#e8e8e8"/></linearGradient><linearGradient id="x" gradientTransform="matrix(.37845152 0 0 .34136193 -27.338025 17.61463)" gradientUnits="userSpaceOnUse" x1="109.95628" x2="109.95628" y1="-24.91135" y2="-2.375786"><stop offset="0" stop-color="#b3b3b3"/><stop offset="1" stop-color="#dadada"/></linearGradient><g transform="translate(0 -8)"><path d="m23 27.500001c.000931 2.485168-4.924204 4.499999-11 4.499999-6.0757958 0-11.00093826-2.014831-10.9999999-4.499999-.00093921-2.48517 4.9242041-4.500001 10.9999999-4.500001 6.075796 0 11.000939 2.014831 11 4.500001z" fill="url(#n)" fill-rule="evenodd" opacity=".3"/><path d="m21.441286 26.825403c0 2.028375-4.234572 3.674596-9.452159 3.674596-5.2175947 0-9.4521646-1.646221-9.4521646-3.674596 0-6.488122-1.1553118-3.598097 9.4521646-3.674595 10.850407-.07892 9.452159-2.849032 9.452159 3.674595z" fill="url(#o)" stroke="url(#q)"/><path d="m21.5 23.000001c0 1.932996-4.253296 3.499999-9.499999 3.499999-5.2467056 0-9.500001-1.567003-9.500001-3.499999 0-1.932998 4.2532954-3.500001 9.500001-3.500001 5.246703 0 9.499999 1.567003 9.499999 3.500001z" fill="none" stroke="#d8d8d8"/><path d="m21.441286 21.825404c0 2.028375-4.234572 3.674596-9.452159 3.674596-5.2175947 0-9.4521646-1.646221-9.4521646-3.674596 0-6.488122-1.1553118-3.598097 9.4521646-3.674595 10.850407-.07892 9.452159-2.849032 9.452159 3.674595z" fill="url(#s)" stroke="url(#t)"/><path d="m21.5 18.000002c0 1.932996-4.253296 3.499999-9.499999 3.499999-5.2467056 0-9.500001-1.567003-9.500001-3.499999 0-1.932998 4.2532954-3.500001 9.500001-3.500001 5.246703 0 9.499999 1.567003 9.499999 3.500001z" fill="none" stroke="#d8d8d8"/><path d="m21.441286 16.976886c0 1.99669-4.234572 3.523114-9.452159 3.523114-5.2175947 0-9.4521646-1.526424-9.4521646-3.523114 0-7.1907048-1.1553118-3.541892 9.4521646-3.617194 10.850407-.0777 9.452159-3.109574 9.452159 3.617194z" fill="url(#u)" stroke="url(#v)"/><path d="m21.5 13c0 1.932997-4.253296 3.5-9.499999 3.5-5.2467055 0-9.500001-1.567003-9.500001-3.5 0-1.932996 4.2532955-3.5 9.500001-3.5 5.246703 0 9.499999 1.567004 9.499999 3.5z" fill="url(#w)" stroke="url(#x)"/><rect fill="none" height="19" opacity=".5" rx="17.5" ry="3" stroke="url(#m)" width="17" x="3.5" y="10.5"/></g><g transform="translate(7.750827 7.373898)"><path d="m13.219868 12.085402c-.135595-.02111-.239457-.01225-.307686.003l-9.0874927 2.017202-1.6724992.372194-.051633.008-1.9387153 1.432663 4.9498341-.07402.040722-.0095 1.6834123-.370698 9.0845618-2.03263c.272911-.06092-.177299-.409927-1.009983-.78431-.624515-.280788-1.283742-.498541-1.690521-.561884z" fill="#0c0c0c" fill-rule="evenodd" opacity=".15"/><g transform="matrix(1.030012 0 0 1.0325071 -.016773 -.521525)"><path d="m2.0488085 11.037368c.2865424-.207707 1.1479509.256388 1.9603385 1.061945.8104458.803629 1.2601996 1.641331 1.0575577 1.930575-.0007708.0011.01977.01774.01898.01882l10.1384643-10.1803301c.257408-.2584708-.213108-1.1436222-1.051287-1.9747519-.838177-.8311298-1.728181-1.29506029-1.98559-1.03658863z" fill="url(#a)"/><path d="m2.0488079 11.037368c.286543-.207708 1.1479512.256388 1.960339 1.061943.8104449.80363 1.2601992 1.641332 1.0575579 1.930577-.0007714.0011.01977.01774.01898.01882l6.9820302-7.0108637.02525-.025356c.00079-.00108-.01975-.01772-.01898-.01882.202643-.2892462-.247112-1.1269457-1.057555-1.9305752-.812389-.8055563-1.6737981-1.2696506-1.9603403-1.0619438l-.025251.025355z" fill="#f9c440" opacity=".6"/><g stroke-linejoin="round"><path d="m2.0488085 11.037368c.2865424-.207707 1.1479509.256388 1.9603385 1.061945.8104458.803629 1.2601996 1.641331 1.0575577 1.930575-.0007708.0011.01977.01774.01898.01882l10.1384643-10.1803301c.257408-.2584708-.213108-1.1436222-1.051287-1.9747519-.838177-.8311298-1.728181-1.29506029-1.98559-1.03658863z" fill="none" stroke="#ad5f00" stroke-width=".969689"/><path d="m20.664062 8.2617188c-.05213.010767-.09381.033047-.126953.066406l-3.224609 3.2460942c.296545-.211927 1.182133.265278 2.017578 1.095703.834766.829753 1.298569 1.695492 1.089844 1.99414-.000714.001.01475.01397.01758.01758l3.226562-3.246094c.265132-.266874-.218698-1.178963-1.082033-2.0371105-.755416-.750879-1.553081-1.2120851-1.917969-1.1367187z" fill="url(#b)" stroke="#555761" stroke-width=".5" transform="matrix(.97086248 0 0 .96851634 -7.75054 -7.208073)"/><path d="m10.565423 2.4840909c.286542-.2077065 1.147951.2563879 1.960338 1.0619443.810445.8036291 1.260199 1.6413295 1.057557 1.9305744-.000769.0011.01977.017738.01898.018821l1.551936-1.5571217c.408481-.40858-.029278-1.092821-.981372-2.0446829-.812386-.8055561-1.673796-1.2696511-1.960337-1.06194452l-.02525.0253559-1.621849 1.62705352z" fill="#fe9ab8" opacity=".9" stroke="#de3e80" stroke-width=".969689"/></g><path d="m9.1785348 3.8767048c.2865413-.2077068 1.1479522.2563879 1.9603392 1.0619443.810445.8036291 1.2602 1.6413294 1.057556 1.9305753-.000771.0011.01977.017736.01898.01882l.126256-.1267795c.00079-.00108-.01975-.01772-.01898-.01882.202645-.2892457-.24711-1.1269463-1.057556-1.9305745-.812387-.8055569-1.6737965-1.2696514-1.9603382-1.0619448z" fill="url(#c)"/><path d="m9.0628273 3.9928895c.2865436-.2077068 1.1479527.2563878 1.9603397 1.061944.810444.8036294 1.2602 1.6413292 1.057556 1.9305742-.000771.0011.01977.017738.01898.018822l.126257-.1267799c.00079-.00108-.01975-.017721-.01898-.018821.202643-.2892448-.24711-1.1269452-1.057557-1.9305743-.812387-.8055563-1.6737957-1.2696512-1.9603386-1.0619444z" fill="url(#e)"/><path d="m9.5806143 3.4729643c.2865426-.2077069 1.1479517.2563872 1.9603387 1.0619442.810446.803629 1.2602 1.6413292 1.057558 1.9305747-.000773.0011.01977.017737.01898.01882l.126258-.1267784c.000791-.00108-.01975-.017721-.01898-.01882.202642-.2892454-.247113-1.126946-1.057559-1.930575-.812386-.8055567-1.6737949-1.2696512-1.9603383-1.0619444z" fill="url(#g)"/><path d="m9.4649071 3.5891488c.2865435-.207707 1.1479529.2563877 1.9603379 1.061944.810447.8036298 1.260201 1.6413294 1.057558 1.9305748-.000769.0011.01977.017737.01898.018821l.126257-.12678c.00079-.00108-.01975-.01772-.01898-.01882.202645-.2892448-.247111-1.1269461-1.057556-1.9305739-.812386-.8055567-1.673796-1.2696517-1.9603395-1.0619447z" fill="url(#h)"/><path d="m9.9846388 3.0672723c.2865412-.2077066 1.1479512.2563878 1.9603372 1.0619445.810446.8036288 1.260201 1.641329 1.057558 1.9305741-.00077.0011.01977.017738.01898.018821l.126256-.1267791c.000792-.00108-.01975-.017721-.01898-.018821.202644-.2892444-.247111-1.126945-1.057557-1.9305744-.812385-.8055559-1.673795-1.2696505-1.960338-1.0619437z" fill="url(#i)"/><path d="m9.8689318 3.1834569c.2865412-.2077072 1.1479512.2563879 1.9603392 1.0619447.810444.8036283 1.260198 1.6413291 1.057556 1.9305739-.000771.0011.01977.017737.01898.018821l.126258-.1267782c.000789-.00108-.01975-.017722-.01898-.018821.202642-.2892458-.247113-1.1269461-1.057558-1.9305749-.812386-.8055564-1.673796-1.2696514-1.9603386-1.0619441z" fill="url(#j)"/><g fill-rule="evenodd" stroke-width=".969689"><path d="m.25980529 15.79419 4.77185621-1.725488.039308-.03926c.2026429-.28924-.2523964-1.127286-1.0628421-1.930916-.8123879-.805556-1.6726784-1.26728-1.9592212-1.059573z" fill="url(#k)" stroke="url(#l)"/><path d="m.7444326 14.506276-.48521185 1.282691 1.30137225-.473393c-.113686-.133135-.2192836-.267835-.3543579-.401773-.1555069-.154199-.30708012-.280667-.4618025-.407525z" fill="#333" stroke="#1a1a1a"/></g></g></g></svg>