<svg viewBox="0 0 24 24" xmlns="http://www.w3.org/2000/svg" xmlns:xlink="http://www.w3.org/1999/xlink"><linearGradient id="a" gradientTransform="matrix(0 .4865 -.37838 0 21.58 .824)" gradientUnits="userSpaceOnUse" x1="6.528263" x2="41.471737" y1="22.675617" y2="22.675617"><stop offset="0" stop-color="#fff"/><stop offset="0" stop-color="#fff" stop-opacity=".235"/><stop offset="1" stop-color="#fff" stop-opacity=".157"/><stop offset="1" stop-color="#fff" stop-opacity=".392"/></linearGradient><linearGradient id="b" gradientTransform="matrix(1.0080891 0 0 1.0000217 -4.038 2.999761)" gradientUnits="userSpaceOnUse" x1="4.419417" x2="20.01996" y1="3.52262" y2="3.52262"><stop offset="0" stop-color="#888a85"/><stop offset="1" stop-color="#888a85" stop-opacity="0"/></linearGradient><radialGradient id="c" cx="1110.5" cy="1543" gradientTransform="matrix(1.3323351 0 0 .9601284 -1471.5547 -1471.5679)" gradientUnits="userSpaceOnUse" r="6.14121"><stop offset="0" stop-color="#fff"/><stop offset=".55299991" stop-color="#fff"/><stop offset="1" stop-color="#a2a2a2"/></radialGradient><linearGradient id="d" gradientUnits="userSpaceOnUse" x1="1.006025" x2="16.000223" xlink:href="#e" y1="9.534337" y2="9.534337"/><linearGradient id="e"><stop offset="0"/><stop offset="1" stop-opacity="0"/></linearGradient><radialGradient id="f" cx="62.625" cy="4.625" gradientTransform="matrix(.76091728 0 0 .19022902 -39.567475 19.101329)" gradientUnits="userSpaceOnUse" r="10.625" xlink:href="#e"/><linearGradient id="g" gradientTransform="matrix(.0328 0 0 .01513 .147 14.28)" gradientUnits="userSpaceOnUse" x1="302.86" x2="302.86" y1="366.65" y2="609.51"><stop offset="0" stop-opacity="0"/><stop offset=".5"/><stop offset="1" stop-opacity="0"/></linearGradient><radialGradient id="h" cx="605.71" cy="486.65" gradientTransform="matrix(.0328 0 0 .01513 .154 14.28)" gradientUnits="userSpaceOnUse" r="117.14" xlink:href="#e"/><radialGradient id="i" cx="605.71" cy="486.65" gradientTransform="matrix(-.0328 0 0 .01513 23.846 14.28)" gradientUnits="userSpaceOnUse" r="117.14" xlink:href="#e"/><linearGradient id="j" gradientTransform="matrix(.48626 .00027 .0001 .34755 59.86 1.242)" gradientUnits="userSpaceOnUse" x1="-116.939" x2="-75.809" y1="28.167" y2="28.135"><stop offset="0" stop-opacity=".271"/><stop offset="1" stop-opacity=".368"/></linearGradient><linearGradient id="k" gradientTransform="matrix(0 .57143159 -.34765868 0 21.376801 -1.21579)" gradientUnits="userSpaceOnUse" x1="7.377593" x2="40.627419" y1="26.971285" y2="26.971285"><stop offset="0" stop-color="#f4f4f4"/><stop offset="1" stop-color="#dbdbdb"/></linearGradient><linearGradient id="l" gradientTransform="matrix(.11183 0 0 .11095 27.052 7.434)" gradientUnits="userSpaceOnUse" x1="-96.557" x2="-96.557" y1="110.92" y2="39.992"><stop offset="0" stop-color="#e89c42"/><stop offset="1" stop-color="#faca67"/></linearGradient><linearGradient id="m" gradientTransform="matrix(0 -.11183 .1195 0 6.62 -5.052)" gradientUnits="userSpaceOnUse" x1="-107.46" x2="-107.46" y1="-37.385" y2="38.561"><stop offset="0" stop-color="#0b85e9"/><stop offset="1" stop-color="#69d1ef"/></linearGradient><linearGradient id="n" gradientTransform="matrix(.0751 .00587 -.0062 .0715 25.005 9.547)" gradientUnits="userSpaceOnUse" x1="-211.29" x2="-208.5" y1="88.75" y2="75.191"><stop offset="0" stop-color="#ec4502"/><stop offset="1" stop-color="#fe7617"/></linearGradient><linearGradient id="o" gradientTransform="matrix(.07503 0 0 .0756 21.87 7.858)" gradientUnits="userSpaceOnUse" x1="-184.92" x2="-175.25" y1="113.98" y2="88.801"><stop offset="0" stop-color="#7a0f01"/><stop offset="1" stop-color="#d31807"/></linearGradient><g opacity=".2"><path d="m4.083 19.827h15.835v3.673h-15.835z" fill="url(#g)" transform="translate(0 .5)"/><path d="m19.917 19.827v3.673c1.69.007 4.083-.823 4.083-1.837 0-1.013-1.885-1.836-4.083-1.836z" fill="url(#h)" transform="translate(0 .5)"/><path d="m4.083 19.827v3.673c-1.69.007-4.083-.823-4.083-1.837 0-1.013 1.885-1.836 4.083-1.836z" fill="url(#i)" transform="translate(0 .5)"/></g><path d="m20.5 2.5v20h-16v-20z" fill="url(#k)" stroke-width="1.059626"/><path d="m22.5 19.5h-20v-16h20z" fill="none" stroke="url(#j)" stroke-linejoin="round" transform="matrix(0 1 -1 0 24 0)"/><path d="m4 5v13h17v-13z" fill="url(#l)" transform="matrix(0 1 -1 0 24 0)"/><path d="m6 4v11.764c.38.108.872.196 1.46.196 1.494 0 1.28-.537 2.568-.537 1.287 0 2.046.877 3.786.877 2.156 0 2.65-1.413 4.356-1.413 1.332 0-2.568.773-1.102.773.99 0 1.32-.406 1.932-.67v-10.99z" opacity=".07"/><path d="m4 18h11.145c.124-.252.237-.572.237-.918 0-.79-.68-1.56-.68-2.878s.855-2.31.855-3.97-1.238-2.035-1.238-4.153.783 2.082.783.755c0-.914-.34-1.304-.557-1.835h-10.545z" fill="url(#m)" transform="matrix(0 1 -1 0 24 0)"/><g fill="#fff"><path d="m18.62 13.055c-1.177 0-1.92.337-2.526.65-.607.314-1.064.588-1.87.588-.83 0-1.485-.2-2.138-.412s-1.306-.443-2.066-.443c-.748 0-1.35.18-1.842.352s-.873.33-1.207.33c-.302 0-.596-.105-.837-.218a.31.314 0 0 0 -.133-.03v1.35c.414.105.934.186 1.545.186.826 0 1.247-.152 1.564-.29.317-.136.514-.247 1.156-.247.615 0 1.11.203 1.716.425.608.22 1.32.453 2.29.453 1.206 0 1.99-.385 2.64-.742.65-.358 1.152-.67 1.975-.67.043 0 .073.006.113.008v-1.272c-.126-.006-.236-.017-.38-.017z" opacity=".1"/><path d="m18.62 13.674c-2.242 0-2.638 1.238-4.397 1.238-1.76 0-2.808-.855-4.203-.855-1.396 0-2.214.68-3.05.68-.365 0-.703-.113-.97-.237v.713c.402.108.924.195 1.545.195 1.583 0 1.357-.537 2.72-.537 1.364 0 2.165.878 4.008.878 2.283 0 2.808-1.414 4.614-1.414.042 0 .073.006.113.008v-.65c-.125-.007-.234-.018-.38-.018z" opacity=".3"/><path d="m18.62 14.174c-2.242 0-2.638 1.238-4.397 1.238-1.76 0-2.808-.855-4.203-.855-1.396 0-2.214.68-3.05.68-.365 0-.703-.113-.97-.237v.713c.402.108.924.195 1.545.195 1.583 0 1.357-.537 2.72-.537 1.364 0 2.165.878 4.008.878 2.283 0 2.808-1.414 4.614-1.414.042 0 .073.006.113.008v-.65c-.125-.007-.234-.018-.38-.018z"/></g><path d="m18.5 4.5v16h-12v-16z" fill="none" opacity=".3" stroke="#000"/><path d="m8.9 15.537c-.072-.006-.154 0-.237.028-.32.108-.358.322-.387.425-.03.103-.035.182-.04.266-.01.17 0 .346.006.523.007.144.013.273.016.387-.11.025-.234.053-.375.083-.176.038-.355.076-.52.128-.08.026-.16.052-.257.108-.05.028-.106.06-.172.134s-.146.212-.142.378c.01.326.21.424.305.482.093.057.17.087.252.117.164.06.347.11.526.156l.393.108-.035.365c-.017.172-.033.343-.033.51 0 .08.003.16.028.266.013.054.03.115.083.198.053.082.164.2.332.247.327.092.488-.06.575-.126.087-.068.14-.13.196-.195.11-.132.215-.28.318-.43.084-.12.16-.228.227-.32.107.04.223.087.356.14.166.07.334.138.5.188.082.025.16.048.273.057.056.005.124.01.223-.013.1-.023.248-.088.347-.225.193-.268.094-.463.053-.562-.04-.1-.084-.165-.132-.236-.096-.14-.214-.28-.33-.42-.095-.113-.177-.214-.25-.304.074-.083.156-.173.252-.277.12-.13.24-.26.34-.393.05-.067.1-.132.143-.232.023-.05.047-.11.055-.206.01-.096-.01-.252-.117-.385-.208-.258-.432-.225-.543-.22-.112.007-.193.026-.278.048-.17.043-.35.105-.523.167-.145.05-.27.096-.385.133-.06-.092-.124-.196-.198-.314-.092-.146-.185-.295-.288-.428-.052-.066-.1-.128-.185-.2-.043-.036-.096-.077-.19-.114-.047-.02-.112-.036-.185-.04zm.84 1.15.022.005c-.006 0-.023.006-.026.007-.01 0-.015-.01.005-.012zm.308.1c.026.02.024.03.02.024l-.02-.023zm-1.592.32c.02-.01.022.003.015.006l-.03.008c.003 0 .013-.012.016-.013zm-.198.243v.027c0 .01-.01.002 0-.027zm2.613.48c-.004-.007.007-.006.017.022l-.016-.02zm.01.31c-.014.03-.024.032-.02.026.002-.003.014-.02.02-.025zm-2.602.507v.03c-.008-.03 0-.037 0-.03zm.174.268.025.01c.01.003 0 .007-.025-.01zm1.64.29c.007-.007.008.004-.018.023zm-.338.095c.004 0 .024.01.032.01-.033 0-.04-.012-.032-.01z" opacity=".05"/><path d="m8.762 16.02c-.18.06.03 1.366-.084 1.512-.11.14-1.464.284-1.46.46.006.182 1.38.393 1.49.54.106.144-.17 1.416.007 1.466.183.05.82-1.125 1.002-1.18.176-.05 1.36.59 1.464.444.11-.15-.87-1.087-.867-1.27.002-.175 1.01-1.05.897-1.188-.116-.144-1.358.45-1.54.392-.174-.056-.734-1.236-.908-1.177z" opacity=".15"/><path d="m8.022 12.505c.174-.06.736 1.123.91 1.18.182.057 1.423-.54 1.54-.395.11.14-.896 1.014-.898 1.19-.002.182.977 1.12.868 1.27-.104.145-1.29-.496-1.465-.443-.182.054-.818 1.23-1 1.18-.178-.05.097-1.322-.01-1.465-.11-.148-1.482-.36-1.487-.542-.005-.176 1.35-.32 1.46-.46.114-.147-.098-1.454.082-1.515z" fill="url(#n)" transform="translate(.792 3.174)"/><path d="m8.83 15.645-.047.046c0 .002-.002.003-.002.003-.096.235.06 1.26-.038 1.385-.004.005-.01.012-.018.017l.04.027c.79.237.098-1.428.08-1.475l-.012-.002z" fill="#9d0f06" opacity=".5"/><path d="m6.754 14.427c-.167.002-.263.01-.263.01v.04c.1.18 1.39.384 1.5.53.107.143-.17 1.43.01 1.48.184.052.827-1.138 1.01-1.193.18-.053 1.362.587 1.48.45-1-1.225-3.015-1.323-3.736-1.317z" fill="url(#o)" opacity=".75" transform="translate(.792 3.174)"/><path d="m5.5 21.5v-18h14v18z" fill="none" stroke="url(#a)" stroke-linecap="round"/><g transform="translate(7.999776 1.997674)"><g transform="translate(0 -1)"><g fill-rule="evenodd" transform="translate(0 8)"><path d="m1.6311977 10.044215-1.2140423-.5314124c.9355638-5.9221279 6.9649974-9.81131271 15.4743956-2.6074566l-.148677 3.105767v.024c-2.3001-1.9558412-4.28185-4.4661954-8.3626394-4.4661954-4.6845799.0620013-5.4152457 3.6123781-5.7451002 4.4751964z" fill="url(#b)"/><path d="m15.497906 10.035214c-2.197549 2.805361-4.840524 3.464775-7.4943994 3.464775-2.6539763 0-5.9811868-.45581-6.4951461-3.464775.5575631-2.7513595 1.9987083-4.4348957 5.7001846-4.4661968 4.0448559-.0340007 6.0093479 2.5103543 8.2893609 4.4661968z" style="stroke-width:1.004673;stroke-linejoin:round;stroke-dashoffset:.6;stroke-opacity:.658824;fill:url(#c);stroke:url(#d)"/><ellipse cx="7.320361" cy="9.525049" fill="#46aaed" fill-opacity=".984314" rx="3.161734" ry="3.136432" stroke="#2f78c8" stroke-width=".669784"/><ellipse cx="7.050984" cy="8.801107" fill="#2f78c8" rx="2.016211" ry="1.800021"/><ellipse cx="6.546961" cy="8.400906" fill="#d7e4f1" rx="1.008172" ry=".800054"/></g><path d="m.49911436 17.499903c.89458434-5.925929 7.65508724-10.9231368 15.03926664-2.609057" fill="none" stroke="#8c8c8c" stroke-width="1.004673"/></g><path d="m16.169716 19.98114c0 1.116301-3.619676 2.021186-8.0847463 2.021186-4.4650706 0-8.0847461-.904818-8.0847461-2.021186 0-1.116369 3.6196755-2.021187 8.0847461-2.021187 4.4650703 0 8.0847463.904885 8.0847463 2.021187z" fill="url(#f)" fill-rule="evenodd" opacity=".3" stroke-width=".673729"/></g></svg>