<svg viewBox="0 0 24 24" xmlns="http://www.w3.org/2000/svg" xmlns:xlink="http://www.w3.org/1999/xlink"><linearGradient id="a"><stop offset="0"/><stop offset="1" stop-opacity="0"/></linearGradient><linearGradient id="b" gradientTransform="matrix(.03006084 0 0 .01647058 2.135157 13.961096)" gradientUnits="userSpaceOnUse" x1="302.85715" x2="302.85715" y1="366.64789" y2="609.50507"><stop offset="0" stop-opacity="0"/><stop offset=".5"/><stop offset="1" stop-opacity="0"/></linearGradient><radialGradient id="c" cx="605.71429" cy="486.64789" gradientTransform="matrix(.03006084 0 0 .01647058 2.141072 13.961096)" gradientUnits="userSpaceOnUse" r="117.14286" xlink:href="#a"/><radialGradient id="d" cx="605.71429" cy="486.64789" gradientTransform="matrix(-.03006084 0 0 .01647058 23.858936 13.961096)" gradientUnits="userSpaceOnUse" r="117.14286" xlink:href="#a"/><linearGradient id="e" gradientUnits="userSpaceOnUse" x1="16.039839" x2="15.989593" y1=".376828" y2="23.888128"><stop offset="0" stop-color="#f4f4f4"/><stop offset="1" stop-color="#dbdbdb"/></linearGradient><linearGradient id="f" gradientUnits="userSpaceOnUse" x1="13.2998" x2="12.679471" xlink:href="#g" y1="23.048439" y2="-5.017778"/><linearGradient id="g"><stop offset="0" stop-color="#8d8d8d"/><stop offset="1" stop-color="#c3c3c3"/></linearGradient><linearGradient id="h" gradientUnits="userSpaceOnUse" x1="11.413359" x2="11.719223" y1="1.918229" y2="21.982384"><stop offset="0" stop-color="#fff"/><stop offset="1" stop-color="#fff" stop-opacity=".247619"/></linearGradient><linearGradient id="i" gradientUnits="userSpaceOnUse" x1="13.131728" x2="13.189891" xlink:href="#g" y1="23.033361" y2="13.664196"/><mask id="j"><path d="m303.54129 125.90525h23.375v22.5h-23.375z" fill="url(#k)"/></mask><linearGradient id="k" gradientUnits="userSpaceOnUse" x1="316.472471" x2="317.623691" y1="138.89748" y2="141.19508"><stop offset="0" stop-color="#fff"/><stop offset="1"/></linearGradient><linearGradient id="l" gradientTransform="matrix(.7811541 -.03481362 -.03481362 .7811541 70.230423 94.3198)" gradientUnits="userSpaceOnUse" x1="309.29663" x2="335.30014" y1="67.297691" y2="81.926315"><stop offset="0" stop-color="#d3d7cf"/><stop offset=".18303643" stop-color="#babdb6"/><stop offset=".31893486" stop-color="#fff"/><stop offset=".87643671" stop-color="#babdb6"/><stop offset="1" stop-color="#eeeeec"/></linearGradient><linearGradient id="m" gradientTransform="matrix(.7811541 -.03481362 -.03481362 .7811541 70.230423 94.3198)" gradientUnits="userSpaceOnUse" x1="324.49731" x2="330.06076" y1="70.282364" y2="99.273735"><stop offset="0" stop-color="#888a85"/><stop offset="1" stop-color="#555753"/></linearGradient><linearGradient id="n" gradientTransform="matrix(.801996 0 0 .7960034 69.746815 998.18246)" gradientUnits="userSpaceOnUse" x1="302.29202" x2="308.64914" y1="58.442768" y2="60.767513"><stop offset="0" stop-color="#babdb6"/><stop offset="1" stop-color="#fff"/></linearGradient><g enable-background="new"><path d="m5.742457 20h14.51509v3.999999h-14.51509z" fill="url(#b)" opacity=".5"/><path d="m20.257547 20.000138v3.999778c1.548059.0075 3.742453-.896147 3.742452-2.000146 0-1.103999-1.727517-1.999632-3.742452-1.999632z" fill="url(#c)" opacity=".5"/><path d="m5.7424572 20.000138v3.999778c-1.5480591.0075-3.7424526-.896147-3.7424526-2.000146s1.7275169-1.999632 3.7424526-1.999632z" fill="url(#d)" opacity=".5"/><path d="m2.5 1.5c-1.5659848-.020723-2.0931425 1.5102894-1.969 3h1.969v16c0 .942809 1.057191 2 2 2h17v-18.7c0-.942809-1.357191-2.3-2.3-2.3z" fill="url(#e)" stroke="url(#f)" stroke-linecap="round" stroke-linejoin="round"/><path d="m6 4v1h12v-1zm0 2v1h12v-1zm0 2v1h12v-1zm0 2v1h12v-1zm0 2v1h12v-1zm0 2v1h12v-1zm0 2v1h12v-1zm0 2v1h12v-1z" opacity=".1"/><path d="m4 4v1h1v-1zm0 2v1h1v-1zm0 2v1h1v-1zm0 2v1h1v-1zm0 2v1h1v-1zm0 2v1h1v-1zm0 2v1h1v-1zm0 2v1h1v-1zm0 2v1h1v-1z" fill="#aaa"/><path d="m19 4v1h1v-1zm0 2v1h1v-1zm0 2v1h1v-1zm0 2v1h1v-1zm0 2v1h1v-1zm0 2v1h1v-1zm0 2v1h1v-1zm0 2v1h1v-1z" fill="#aaa"/><path d="m3.289 2.5001882c-1.5429433-.1071376-1.6798345.5800694-1.789.9998118h2v16.69c0 .853009.7408853 1.31 1.59 1.31h15.41v-17.39c0-.8530092-.751885-1.6098118-1.601-1.6098118z" fill="none" opacity=".604167" stroke="url(#h)" stroke-linecap="round" stroke-linejoin="round"/><path d="m6.5 19.5h17c .125 1.5-.408708 3.042536-2 3h-17c1.5112979 0 2.0040752-1.375 2-3z" fill="#c8c8c8" stroke="url(#i)" stroke-linecap="round" stroke-linejoin="round"/><rect fill="#fff" height=".933281" opacity=".7" rx=".3" width="16" x="7" y="20.066719"/></g><g transform="matrix(.86159974 0 0 .86159974 3.285686 3.110525)"><path d="m14.999984 11.580757c-.05244.01567-.08675.04907-.125.09375-.07653.08936-.11515.216835-.0625.3125l1.40625 2.65625c.125982.239363.04748.573495-.1875.90625-.237231.335907-.608047.688579-1.09375.96875-.485808.28024-.977944.437605-1.375.46875-.394711.03099-.717447-.07247-.84375-.3125l-1.40625-2.6875c-.03935-.07451-.100938-.118741-.1875-.125-.08652-.0061-.189081.02655-.25.09375-.03284.03499-.04982.0798-.0625.125-.351964 1.288231-.265359 2.739563.25 3.71875.703824 1.337255 2.271665 1.940224 3.84375 1.59375.627816.186403-.460557-1.026545.497159-.07386l4.887516.28125-.540925-1.082386c-.863354-.858809-1.28426-1.620936-1.5-2.21875.248089-.850827.189199-1.756137-.21875-2.53125-.51516-.97876-1.649372-1.810281-2.875-2.1875-.05255-.01719-.103808-.01567-.15625 0z" style="opacity:.4;fill:none;stroke:#000;stroke-width:2;stroke-linecap:round;stroke-linejoin:round;stroke-dashoffset:.3612"/><g enable-background="new" mask="url(#j)" transform="matrix(.8686611 0 0 .8704732 -253.90735 -98.906489)"><path d="m319.39329 139.2285-4.34206-4.35975c-.99389-.9866-1.50014-1.84777-1.7485-2.53454.2856-.97743.2328-2.00504-.23683-2.89549-.59305-1.1244-1.89986-2.08374-3.3108-2.51709-.12099-.0395-.25795.00092-.34601.10358-.0881.10266-.10892.24521-.0483.35511l1.61439 3.06837c.14503.27498.0466.64136-.22391 1.02363-.2731.38589-.71642.77909-1.27556 1.10095-.55926.32194-1.11244.50954-1.56953.54532-.45439.0356-.8053-.0744-.9507-.35014l-1.62416-3.08537c-.0453-.0856-.1291-.13927-.22875-.14646-.0996-.007-.20234.0334-.27247.1106h-.00001c-.0378.0402-.0658.0881-.0804.14003-.40518 1.47992-.31949 3.15578.27379 4.28067.81024 1.53624 2.61048 2.20625 4.42026 1.80822.72274.21414 1.6718.71421 2.77432 1.80865l3.29554 3.21095" style="fill-rule:evenodd;stroke-width:1.149998;stroke-linecap:round;stroke-linejoin:round;stroke-dashoffset:.3612;fill:url(#l);stroke:url(#m)"/><path d="m314.50598 1039.6243c.015.01.006.025 0 .025l1.80449 3.2089c.24343.4323.0678.9428-.22556 1.3681-.29634.4296-.75548.8457-1.35337 1.1692-.59917.3241-1.22764.4798-1.75437.4975-.52558.018-1.01891-.1313-1.25311-.5473l-1.8045-3.2337c-.0104 0-.0268 0-.0251 0 .0165-.018.003.013 0 .025-.33275 1.4234-.16017 3.0685.45113 4.1542.83618 1.485 2.58195 2.1944 4.31073 1.8905 1.72065-.3057 3.19191-1.7936 3.55886-3.2089.23171-.9167.13299-1.9018-.35088-2.7611-.60963-1.0827-1.95075-2.1023-3.35835-2.5871z" fill="url(#n)" fill-rule="evenodd" transform="translate(-5.083714 -912.59475)"/><path d="m310.21875 127.75 1.25 2.4375c.28894.54782.085 1.12046-.25 1.59375-.33855.47839-.8542.92749-1.46875 1.28125-.60688.34935-1.22432.57896-1.8125.625-.2801.0219-.5499-.002-.8125-.0937-.2626-.0921-.51362-.29205-.65625-.5625l-1.25-2.375c-.17286 1.16401-.0996 2.37485.3125 3.15625.68338 1.29573 2.17648 1.88419 3.78125 1.53125.0917-.0238.18952-.0238.28125 0 .82317.2439 1.87487.7896 3.03125 1.9375l4.03032 3.84651 2.65917-1.37343-4.65824-4.47313c-1.04139-1.03374-1.59436-1.97397-1.875-2.75-.0358-.11084-.0358-.23291 0-.34375.24916-.8527.1772-1.74925-.21875-2.5-.41054-.77836-1.32353-1.47359-2.34375-1.9375z" style="fill:none;stroke:#fff;stroke-width:.574999;stroke-linecap:round;stroke-linejoin:round;stroke-dashoffset:.3612"/><path d="m318.61464 140.71739-.12501.12501c-.34845.34845-1.18936.0686-1.88545-.6275l-4.17573-3.67032c-.69609-.69609-.97595-1.537-.6275-1.88546l.125-.125c.34846-.34845 1.18937-.0686 1.88546.6275l4.17573 3.67032c.69609.69609.97595 1.537.6275 1.88545z" fill-rule="evenodd" opacity=".08"/></g></g></svg>