<svg height="24" width="24" xmlns="http://www.w3.org/2000/svg" xmlns:xlink="http://www.w3.org/1999/xlink"><linearGradient id="a" gradientUnits="userSpaceOnUse" x1="10.8484" x2="10.8484" xlink:href="#c" y1="8.0466" y2="21.817619"/><linearGradient id="b" gradientTransform="matrix(.783 0 0 .78 -136.125 -5.74)" gradientUnits="userSpaceOnUse" x1="182" x2="182" xlink:href="#c" y1="33" y2="24.52"/><linearGradient id="c"><stop offset="0" stop-color="#fff"/><stop offset="1" stop-color="#fff" stop-opacity="0"/></linearGradient><linearGradient id="d" gradientTransform="matrix(.48571425 0 0 .5 .342857 7.750001)" gradientUnits="userSpaceOnUse" x1="21.381216" x2="21.381216" y1="5.052486" y2="44.137077"><stop offset="0" stop-color="#fff"/><stop offset=".08125819" stop-color="#fff" stop-opacity=".235294"/><stop offset=".92327863" stop-color="#fff" stop-opacity=".156863"/><stop offset="1" stop-color="#fff" stop-opacity=".392157"/></linearGradient><radialGradient id="e" cx="23.334524" cy="41.63604" gradientTransform="matrix(.48613594 0 0 .19884311 .65625 19.220963)" gradientUnits="userSpaceOnUse" r="22.627417"><stop offset="0"/><stop offset="1" stop-opacity="0"/></radialGradient><linearGradient id="f" gradientTransform="matrix(.37654594 0 0 .35839049 -27.150809 31.67023)" gradientUnits="userSpaceOnUse" spreadMethod="reflect" x1="103.95014" x2="89.423676" xlink:href="#g" y1="-7.665694" y2="-7.665694"/><linearGradient id="g"><stop offset="0" stop-color="#868688"/><stop offset="1" stop-color="#d9d9da"/></linearGradient><linearGradient id="h" gradientTransform="matrix(.8224499 0 0 .82905873 -65.448598 8.077184)" gradientUnits="userSpaceOnUse" x1="89.01844" x2="89.01844" xlink:href="#i" y1="22.536863" y2="27.54611"/><linearGradient id="i"><stop offset="0" stop-color="#a0a0a0"/><stop offset="1" stop-color="#4a4a4a"/></linearGradient><linearGradient id="j" gradientTransform="matrix(.37654594 0 0 .35839049 -27.150809 26.670231)" gradientUnits="userSpaceOnUse" spreadMethod="reflect" x1="103.95014" x2="89.423676" xlink:href="#g" y1="-7.665694" y2="-7.665694"/><linearGradient id="k" gradientTransform="matrix(.8224499 0 0 .82905873 -65.448598 3.077185)" gradientUnits="userSpaceOnUse" x1="89.01844" x2="89.01844" xlink:href="#i" y1="22.536863" y2="27.54611"/><linearGradient id="l" gradientTransform="matrix(.37654594 0 0 .352792 -27.150809 21.746031)" gradientUnits="userSpaceOnUse" spreadMethod="reflect" x1="103.95014" x2="89.423676" xlink:href="#g" y1="-7.665694" y2="-7.665694"/><linearGradient id="m" gradientTransform="matrix(.8224499 0 0 .81610786 -65.448598 -1.478464)" gradientUnits="userSpaceOnUse" x1="89.01844" x2="89.01844" xlink:href="#i" y1="22.536863" y2="27.54611"/><linearGradient id="n" gradientTransform="matrix(.37845152 0 0 .34136193 -27.338025 17.61463)" gradientUnits="userSpaceOnUse" spreadMethod="reflect" x1="102.30806" x2="102.30806" y1="-2.392547" y2="-24.582239"><stop offset="0" stop-color="#a5a6a8"/><stop offset="1" stop-color="#e8e8e8"/></linearGradient><linearGradient id="o" gradientTransform="matrix(.37845152 0 0 .34136193 -27.338025 17.61463)" gradientUnits="userSpaceOnUse" x1="109.95628" x2="109.95628" y1="-24.91135" y2="-2.375786"><stop offset="0" stop-color="#b3b3b3"/><stop offset="1" stop-color="#dadada"/></linearGradient><g transform="translate(0 -8)"><path d="m23 27.500001c.000931 2.485168-4.924204 4.499999-11 4.499999-6.0757958 0-11.00093826-2.014831-10.9999999-4.499999-.00093921-2.48517 4.9242041-4.500001 10.9999999-4.500001 6.075796 0 11.000939 2.014831 11 4.500001z" fill="url(#e)" fill-rule="evenodd" opacity=".3"/><path d="m21.441286 26.825403c0 2.028375-4.234572 3.674596-9.452159 3.674596-5.2175947 0-9.4521646-1.646221-9.4521646-3.674596 0-6.488122-1.1553118-3.598097 9.4521646-3.674595 10.850407-.07892 9.452159-2.849032 9.452159 3.674595z" fill="url(#f)" stroke="url(#h)"/><path d="m21.5 23.000001c0 1.932996-4.253296 3.499999-9.499999 3.499999-5.2467056 0-9.500001-1.567003-9.500001-3.499999 0-1.932998 4.2532954-3.500001 9.500001-3.500001 5.246703 0 9.499999 1.567003 9.499999 3.500001z" fill="none" stroke="#d8d8d8"/><path d="m21.441286 21.825404c0 2.028375-4.234572 3.674596-9.452159 3.674596-5.2175947 0-9.4521646-1.646221-9.4521646-3.674596 0-6.488122-1.1553118-3.598097 9.4521646-3.674595 10.850407-.07892 9.452159-2.849032 9.452159 3.674595z" fill="url(#j)" stroke="url(#k)"/><path d="m21.5 18.000002c0 1.932996-4.253296 3.499999-9.499999 3.499999-5.2467056 0-9.500001-1.567003-9.500001-3.499999 0-1.932998 4.2532954-3.500001 9.500001-3.500001 5.246703 0 9.499999 1.567003 9.499999 3.500001z" fill="none" stroke="#d8d8d8"/><path d="m21.441286 16.976886c0 1.99669-4.234572 3.523114-9.452159 3.523114-5.2175947 0-9.4521646-1.526424-9.4521646-3.523114 0-7.1907048-1.1553118-3.541892 9.4521646-3.617194 10.850407-.0777 9.452159-3.109574 9.452159 3.617194z" fill="url(#l)" stroke="url(#m)"/><path d="m21.5 13c0 1.932997-4.253296 3.5-9.499999 3.5-5.2467055 0-9.500001-1.567003-9.500001-3.5 0-1.932996 4.2532955-3.5 9.500001-3.5 5.246703 0 9.499999 1.567004 9.499999 3.5z" fill="url(#n)" stroke="url(#o)"/><rect fill="none" height="19" opacity=".5" rx="17.5" ry="3" stroke="url(#d)" width="17" x="3.5" y="10.5"/></g><path d="m1.5 6.5 16 16h-16zm3 8.5v4.5h5z" style="fill:#9bdb4d;fill-opacity:.588;fill-rule:evenodd;stroke:#206b00;stroke-linejoin:round;stroke-opacity:.501961"/><g fill="none" transform="translate(.032)"><path d="m2.468 8.9116875v12.5883125h12.602z" fill="none" opacity=".5" stroke="url(#a)"/><path d="m3.468 14v6.5h7" opacity=".5" stroke="url(#b)"/><path d="m3.468 23.5h14" opacity=".3" stroke="#d1ff82" stroke-linecap="square"/></g></svg>