<svg height="24" width="24" xmlns="http://www.w3.org/2000/svg" xmlns:xlink="http://www.w3.org/1999/xlink"><radialGradient id="a" cx="4.992979" cy="43.5" gradientTransform="matrix(2.003784 0 0 1.4 20.388131 -17.4)" gradientUnits="userSpaceOnUse" r="2.5" xlink:href="#b"/><linearGradient id="b"><stop offset="0" stop-color="#181818"/><stop offset="1" stop-color="#181818" stop-opacity="0"/></linearGradient><radialGradient id="c" cx="4.992979" cy="43.5" gradientTransform="matrix(2.003784 0 0 1.4 -20.01187 -104.4)" gradientUnits="userSpaceOnUse" r="2.5" xlink:href="#b"/><linearGradient id="d" gradientUnits="userSpaceOnUse" x1="25.058096" x2="25.058096" y1="47.027729" y2="39.999443"><stop offset="0" stop-color="#181818" stop-opacity="0"/><stop offset=".5" stop-color="#181818"/><stop offset="1" stop-color="#181818" stop-opacity="0"/></linearGradient><linearGradient id="e" gradientUnits="userSpaceOnUse" x1="16.333328" x2="16.333328" y1="45.666664" y2="7.333332"><stop offset="0" stop-color="#a0a0a0"/><stop offset="1" stop-color="#bebebe"/></linearGradient><linearGradient id="f" gradientUnits="userSpaceOnUse" x1="22.083328" x2="22.083328" y1="7.333332" y2="45.666664"><stop offset="0" stop-color="#f4f4f4"/><stop offset="1" stop-color="#dbdbdb"/></linearGradient><linearGradient id="g" gradientTransform="matrix(1.1621622 0 0 .91891889 -3.891888 4.445954)" gradientUnits="userSpaceOnUse" x1="23.99999" x2="23.99999" y1="7.313715" y2="40.686264"><stop offset="0" stop-color="#fff"/><stop offset=".00000001" stop-color="#fff" stop-opacity=".235294"/><stop offset="1" stop-color="#fff" stop-opacity=".156863"/><stop offset="1" stop-color="#fff" stop-opacity=".392157"/></linearGradient><linearGradient id="h" gradientTransform="matrix(-.48995989 .00069868 .00181362 -.38149037 57.128707 48.266601)" gradientUnits="userSpaceOnUse" x1="45.414135" x2="45.567307" y1="15.270427" y2="96.25267"><stop offset="0" stop-color="#262626"/><stop offset="1" stop-color="#4d4d4d"/></linearGradient><radialGradient id="i" cx="7.495683" cy="8.449767" gradientTransform="matrix(.00000002 1.7677232 -2.4310525 -.00000003 44.541938 -1.059662)" gradientUnits="userSpaceOnUse" r="19.99999"><stop offset="0" stop-color="#e4c6fa"/><stop offset=".26238" stop-color="#cd9ef7"/><stop offset=".704952" stop-color="#a56de2"/><stop offset="1" stop-color="#7239b3"/></radialGradient><linearGradient id="j" gradientUnits="userSpaceOnUse" x1="27.825897" x2="10.842305" y1="20.378442" y2="27.73667"><stop offset="0" stop-color="#fff"/><stop offset="1" stop-color="#fff" stop-opacity="0"/></linearGradient><g opacity=".4" transform="matrix(.78947369 0 0 .42857136 -3.947368 2.857139)"><path d="m30.400001 40h5v7h-5z" fill="url(#a)"/><path d="m-10-47h5v7h-5z" fill="url(#c)" transform="scale(-1)"/><path d="m10 40h20.4v7.000001h-20.4z" fill="url(#d)"/></g><g transform="matrix(.52173912 0 0 .52173912 -.521736 -1.826086)"><g stroke-width="1.916667"><path d="m1.9583274 8.291452c10.3117926 0 44.0833346.000213 44.0833346.000213v36.416667l-44.0833816.0023.000047-36.418954z" fill="url(#f)" stroke="url(#e)" stroke-linejoin="round"/><g stroke-linecap="round"><path d="m44.124995 42.791666h-40.2500009v-32.583334h40.2500009z" fill="none" stroke="url(#g)" stroke-linejoin="round"/><path d="m42.208328 40.874999h-36.4166672v-28.750001h36.4166672z" fill="url(#h)" stroke="#7239b3"/></g></g><path d="m6.7499941 13.083332h34.5166649v26.833334h-34.5166649z" fill="url(#i)"/><g transform="matrix(1.5984524 0 0 1.5984524 -10.332189 -13.906267)"><path d="m10.763229 25.482579c16.677962 1.057649 8.618789-8.290983 21.506849-8.597748l-.01 7.027374c-5.881288-2.742344-9.107463 10.844369-21.573377 2.565238z" fill="url(#j)" fill-rule="evenodd" opacity=".444444"/><g fill="#fff"><path d="m27.986045 24.327006-2.938427-.43211-1.774472 2.24411-.497063-2.928138-2.682618-.994156 2.631225-1.377581.116523-2.858531 2.12325 2.076748 2.754633-.772514-1.318984 2.66108z"/><path d="m20.200249 29.319792-1.149915-1.546425-1.843753.215473 1.115394-1.571507-.774678-1.686928 1.839268.575181 1.364975-1.258053.02133 1.926988 1.618279.90941-1.826081.615763-.364824 1.820098z"/><path d="m15.27636 29.286702-1.293465-.493574-1.034251.841863.06971-1.38268-1.120261-.723481 1.33655-.36097.341892-1.289.756319 1.159589 1.331562-.07316-.869119 1.077635.481059 1.243782z"/></g></g></g></svg>