<svg height="24" width="24" xmlns="http://www.w3.org/2000/svg" xmlns:xlink="http://www.w3.org/1999/xlink"><radialGradient id="a" cx="65.296997" cy="48.216" gradientTransform="matrix(0 .52545 -.57163 0 46.193 -21.124)" gradientUnits="userSpaceOnUse" r="31"><stop offset="0" stop-color="#d1ff82"/><stop offset=".262" stop-color="#9bdb4d"/><stop offset=".661" stop-color="#68b723"/><stop offset="1" stop-color="#3a9104"/></radialGradient><linearGradient id="b" gradientTransform="matrix(.2818 0 0 .2801 12.197 12.015)" gradientUnits="userSpaceOnUse" x1="24.139" x2="24.139" xlink:href="#c" y1="10.631" y2="35.623001"/><linearGradient id="c"><stop offset="0" stop-color="#fff"/><stop offset="0" stop-color="#fff" stop-opacity=".235"/><stop offset="1" stop-color="#fff" stop-opacity=".157"/><stop offset="1" stop-color="#fff" stop-opacity=".392"/></linearGradient><linearGradient id="d" gradientTransform="matrix(.2818 0 0 .2801 12.18 12.022)" gradientUnits="userSpaceOnUse" x1="24.139" x2="24.139" xlink:href="#c" y1="21.341999" y2="24.912001"/><radialGradient id="e" cx="4.992979" cy="43.5" gradientTransform="matrix(2.003784 0 0 1.4 33.938131 -17.400027)" gradientUnits="userSpaceOnUse" r="2.5" xlink:href="#o"/><radialGradient id="f" cx="4.992979" cy="43.5" gradientTransform="matrix(-2.003784 0 0 -1.4 19.76187 104.39997)" gradientUnits="userSpaceOnUse" r="2.5" xlink:href="#o"/><linearGradient id="g" gradientTransform="matrix(1.0073638 0 0 1 -.323637 0)" gradientUnits="userSpaceOnUse" x1="25.058096" x2="25.058096" y1="47.027729" y2="39.999443"><stop offset="0" stop-color="#181818" stop-opacity="0"/><stop offset=".5" stop-color="#181818"/><stop offset="1" stop-color="#181818" stop-opacity="0"/></linearGradient><linearGradient id="h" gradientTransform="matrix(.48483606 0 0 .5270602 -.165352 -.400235)" gradientUnits="userSpaceOnUse" x1="24.060406" x2="24.060406" y1="6.451322" y2="10.245955"><stop offset="0" stop-color="#fff"/><stop offset="0" stop-color="#fff" stop-opacity=".235294"/><stop offset=".99999982" stop-color="#fff" stop-opacity=".156863"/><stop offset="1" stop-color="#fff" stop-opacity=".392157"/></linearGradient><linearGradient id="i" gradientUnits="userSpaceOnUse" x1="11.5" x2="11.5" y1="2" y2="6"><stop offset="0" stop-color="#cd9ef7"/><stop offset="1" stop-color="#a56de2"/></linearGradient><linearGradient id="j" gradientUnits="userSpaceOnUse" x1="10.5" x2="10.5" xlink:href="#h" y1="3" y2="5"/><linearGradient id="k" gradientTransform="translate(15)" gradientUnits="userSpaceOnUse" x1="10.5" x2="10.5" xlink:href="#h" y1="3" y2="5"/><linearGradient id="l" gradientUnits="userSpaceOnUse" x1="9" x2="9" xlink:href="#h" y1="3" y2="5"/><linearGradient id="m" gradientTransform="translate(5)" gradientUnits="userSpaceOnUse" x1="9" x2="9" xlink:href="#h" y1="3" y2="5"/><linearGradient id="n" gradientTransform="matrix(.49999998 0 0 .25 -4.998791 2.999737)" gradientUnits="userSpaceOnUse" x1="32.997581" x2="32.997581" y1="16.001053" y2="20.001053"><stop offset="0"/><stop offset="1" stop-opacity="0"/></linearGradient><linearGradient id="o"><stop offset="0" stop-color="#181818"/><stop offset="1" stop-color="#181818" stop-opacity="0"/></linearGradient><linearGradient id="p" gradientTransform="matrix(.48483606 0 0 .5270602 4.833398 -.398827)" gradientUnits="userSpaceOnUse" x1="24.060406" x2="24.060406" xlink:href="#h" y1="6.451322" y2="10.245955"/><linearGradient id="q" gradientTransform="matrix(.48483606 0 0 .5270602 9.834648 -.400235)" gradientUnits="userSpaceOnUse" x1="24.060406" x2="24.060406" xlink:href="#h" y1="6.451322" y2="10.245955"/><linearGradient id="r" gradientTransform="matrix(.48483606 0 0 .5270602 14.833398 -.398827)" gradientUnits="userSpaceOnUse" x1="24.060406" x2="24.060406" xlink:href="#h" y1="6.451322" y2="10.245955"/><linearGradient id="s" gradientTransform="matrix(.48483606 0 0 .5270602 -.165352 4.599765)" gradientUnits="userSpaceOnUse" x1="24.060406" x2="24.060406" xlink:href="#h" y1="6.451322" y2="8.348639"/><linearGradient id="t" gradientTransform="matrix(.48483606 0 0 .5270602 4.833398 4.601173)" gradientUnits="userSpaceOnUse" x1="24.060406" x2="24.062983" xlink:href="#h" y1="6.451322" y2="8.345967"/><linearGradient id="u" gradientTransform="matrix(.48483606 0 0 .5270602 9.834648 4.599765)" gradientUnits="userSpaceOnUse" x1="24.060406" x2="24.060406" xlink:href="#h" y1="6.451322" y2="8.348639"/><linearGradient id="v" gradientTransform="matrix(.48483606 0 0 .5270602 14.833398 4.601173)" gradientUnits="userSpaceOnUse" x1="24.060406" x2="24.062983" xlink:href="#h" y1="6.451322" y2="8.345967"/><linearGradient id="w" gradientTransform="matrix(.48483606 0 0 .5270602 -.166602 8.601173)" gradientUnits="userSpaceOnUse" x1="24.060406" x2="24.060406" xlink:href="#h" y1="6.451322" y2="8.348639"/><linearGradient id="x" gradientTransform="matrix(.48483606 0 0 .5270602 4.832148 8.602581)" gradientUnits="userSpaceOnUse" x1="24.060406" x2="24.062983" xlink:href="#h" y1="6.451322" y2="8.345967"/><linearGradient id="y" gradientTransform="matrix(.48483606 0 0 .5270602 9.833398 8.601173)" gradientUnits="userSpaceOnUse" x1="24.060406" x2="24.060406" xlink:href="#h" y1="6.451322" y2="8.348639"/><linearGradient id="z" gradientTransform="matrix(.48483606 0 0 .5270602 14.832148 8.602581)" gradientUnits="userSpaceOnUse" x1="24.060406" x2="24.062983" xlink:href="#h" y1="6.451322" y2="8.345967"/><linearGradient id="A" gradientTransform="matrix(.48483606 0 0 .5270602 -.166602 12.601173)" gradientUnits="userSpaceOnUse" x1="24.060406" x2="24.060406" xlink:href="#h" y1="6.451322" y2="8.348639"/><linearGradient id="B" gradientTransform="matrix(.48483606 0 0 .5270602 4.832148 12.602581)" gradientUnits="userSpaceOnUse" x1="24.060406" x2="24.062983" xlink:href="#h" y1="6.451322" y2="8.345967"/><linearGradient id="C" gradientTransform="matrix(.48483606 0 0 .5270602 9.833398 12.601173)" gradientUnits="userSpaceOnUse" x1="24.060406" x2="24.060406" xlink:href="#h" y1="6.451322" y2="8.348639"/><linearGradient id="D" gradientTransform="matrix(.48483606 0 0 .5270602 14.832148 12.602581)" gradientUnits="userSpaceOnUse" x1="24.060406" x2="24.062983" xlink:href="#h" y1="6.451322" y2="8.345967"/><linearGradient id="E" gradientTransform="matrix(.48483606 0 0 .5270602 -.165352 16.599773)" gradientUnits="userSpaceOnUse" x1="24.060406" x2="24.060406" xlink:href="#h" y1="6.451322" y2="8.348639"/><linearGradient id="F" gradientTransform="matrix(.48483606 0 0 .5270602 4.833398 16.601181)" gradientUnits="userSpaceOnUse" x1="24.060406" x2="24.062983" xlink:href="#h" y1="6.451322" y2="8.345967"/><linearGradient id="G" gradientTransform="matrix(.48483606 0 0 .5270602 9.834648 16.599773)" gradientUnits="userSpaceOnUse" x1="24.060406" x2="24.060406" xlink:href="#h" y1="6.451322" y2="8.348639"/><linearGradient id="H" gradientTransform="matrix(.48483606 0 0 .5270602 14.833398 16.601181)" gradientUnits="userSpaceOnUse" x1="24.060406" x2="24.062983" xlink:href="#h" y1="6.451322" y2="8.345967"/><linearGradient id="I" gradientTransform="matrix(.46923147 0 0 .47243347 .238446 -.625575)" gradientUnits="userSpaceOnUse" x1="25.132275" x2="25.132275" y1="15.499894" y2="48.395687"><stop offset="0" stop-color="#fafafa"/><stop offset="1" stop-color="#e2e1de"/></linearGradient><g opacity=".4" transform="matrix(.52631578 0 0 .42857133 -2.631579 3.857159)"><path d="m43.950001 39.999973h5v7h-5z" fill="url(#e)"/><path d="m9.7500003 46.999973h-5v-7h5z" fill="url(#f)"/><path d="m9.7500003 40 34.2000007-.000028v7.000001l-34.2000007.000028z" fill="url(#g)" stroke-width="1.003675"/></g><rect fill="url(#I)" height="21" rx="1" stroke-width="1.051315" width="20" x="1.5" y="1.5"/><path d="m6 2v4h-4v1h4v3h-4v1h4v3h-4v1h4v3h-4v1h4v3h1v-3h4v3h1v-3h4v3h1v-3h4v-1h-4v-3h4v-1h-4v-3h4v-1h-4v-3h4v-1h-4v-4h-1v4h-4v-4h-1v4h-4v-4zm1 5h4v3h-4zm5 0h4v3h-4zm-5 4h4v3h-4zm5 0h4v3h-4zm-5 4h4v3h-4zm5 0h4v3h-4z" fill-opacity=".27451"/><g fill="none" stroke-linecap="round" stroke-linejoin="round"><path d="m2.50125 2.498592 2.99875.001408.000004 3h-3.000004z" stroke="url(#h)"/><path d="m7.5 2.5 2.99875.00141.000004 3h-3.000004z" stroke="url(#p)"/><path d="m12.50125 2.498592 2.99875.001408.000004 3h-3.000004z" stroke="url(#q)"/><path d="m17.5 2.5 2.99875.00141.000004 3h-3.000004z" stroke="url(#r)"/><path d="m2.50125 7.498592 2.99875.001408.00125 1.99859h-3.000004z" stroke="url(#s)"/><path d="m7.5 7.5 2.99875.00141.00125 1.99859h-3.000004z" stroke="url(#t)"/><path d="m12.50125 7.498592 2.99875.001408.0013 1.99859h-3.000004z" stroke="url(#u)"/><path d="m17.5 7.5 2.99875.00141.00125 1.99859h-3.000004z" stroke="url(#v)"/><path d="m2.5 11.5 2.99875.0014.00125 1.998598h-3.000004z" stroke="url(#w)"/><path d="m7.49875 11.501408 2.99875.0014.0012 1.99859h-2.999954z" stroke="url(#x)"/><path d="m12.5 11.5 2.99875.0014.0013 1.99859h-3.000004z" stroke="url(#y)"/><path d="m17.49875 11.501408 2.99875.0014.0013 1.99859h-3.000004z" stroke="url(#z)"/><path d="m2.5 15.5 2.99875.0014.00125 1.998598h-3.000004z" stroke="url(#A)"/><path d="m7.49875 15.501408 2.99875.0014.0012 1.99859h-2.999954z" stroke="url(#B)"/><path d="m12.5 15.5 2.99875.0014.0013 1.99859h-3.000004z" stroke="url(#C)"/><path d="m17.49875 15.501408 2.99875.0014.0013 1.99859h-3.000004z" stroke="url(#D)"/><path d="m2.50125 19.4986 2.99875.0014.00125 1.998598h-3.000004z" stroke="url(#E)"/><path d="m7.5 19.500008 2.99875.0014.0012 1.99859h-2.999954z" stroke="url(#F)"/><path d="m12.50125 19.4986 2.99875.0014.0013 1.99859h-3.000004z" stroke="url(#G)"/><path d="m17.5 19.500008 2.99875.0014.0013 1.99859h-3.000004z" stroke="url(#H)"/></g><path d="m2.5 1.5c-.5453514 0-1 .4546486-1 1v4h20v-4c0-.5453514-.454649-1-1-1z" fill="url(#i)"/><path d="m2.5 1c-.831 0-1.5.669-1.5 1.5v3.5 1h21v-1-3.5c0-.831-.669-1.5-1.5-1.5zm0 1h3.5v4h-4v-3.5c0-.277.223-.5.5-.5zm4.5 0h4v4h-4zm5 0h4v4h-4zm5 0h3.5c.277 0 .5.223.5.5v3.5h-4z" fill="#452981" fill-opacity=".501961"/><path d="m2.7303406 2.5 2.5393184.0127119c.1276074.0006388.230341.0826873.230341.1853974v2.6292052c0 .1027101-.1027336.1860362-.230341.1853974l-2.5393184-.0127119c-.1276071-.0006388-.2303406-.0826873-.2303406-.1853974v-2.6292052c0-.1027101.1027335-.1860362.2303406-.1853974z" fill="none" opacity=".5" stroke="url(#j)" stroke-linecap="round" stroke-linejoin="round"/><path d="m1 7v14.5c0 .831.669 1.5 1.5 1.5h18c.831 0 1.5-.669 1.5-1.5v-14.5h-1v14.5c0 .277-.223.5-.5.5h-18c-.277 0-.5-.223-.5-.5v-14.5z" fill-opacity=".330882"/><g fill="none"><path d="m17.730341 2.5 2.539318.012712c.127607.0006387.230341.0826872.230341.1853973v2.6292052c0 .1027101-.102734.1860362-.230341.1853974l-2.539318-.0127119c-.127608-.0006388-.230341-.0826873-.230341-.1853974v-2.6292052c0-.1027101.102733-.1860362.230341-.1853974z" opacity=".5" stroke="url(#k)" stroke-linecap="round" stroke-linejoin="round"/><g stroke-linecap="square" stroke-opacity=".67451"><path d="m7.5 2.5h3v3h-3z" opacity=".5" stroke="url(#l)"/><path d="m12.5 2.5h3v3h-3z" opacity=".5" stroke="url(#m)"/></g></g><path d="m1 7h21v1h-21z" fill="url(#n)" opacity=".15"/><path d="m16.5 16.5v-3h4v3h3v4h-3v3h-4v-3h-3v-4z" fill="url(#a)" stroke="#206b00" stroke-linecap="round" stroke-linejoin="round" stroke-opacity=".501961"/><g fill="none"><path d="m17.5 18.004v-3.504h2v3.5m0 1v3.5h-2v-3.5" opacity=".5" stroke="url(#b)"/><path d="m20 17.507 2.5-.007v2l-2.5.007m-3 0-2.5-.007v-2l2.5.007" opacity=".5" stroke="url(#d)"/></g></svg>