<svg viewBox="0 0 24 24" xmlns="http://www.w3.org/2000/svg" xmlns:xlink="http://www.w3.org/1999/xlink"><linearGradient id="a" gradientTransform="matrix(.15797213 -.15797208 .15497786 .15497786 9.974762 8.564422)" gradientUnits="userSpaceOnUse" x1="39.401215" x2="-33.29887" y1="-5.301917" y2="68.80278"><stop offset="0" stop-color="#90dbec"/><stop offset=".26238" stop-color="#55c1ec"/><stop offset=".704952" stop-color="#3689e6"/><stop offset="1" stop-color="#2b63a0"/></linearGradient><linearGradient id="b" gradientTransform="matrix(.15797213 -.15797208 .15497786 .15497786 9.974762 8.564422)" gradientUnits="userSpaceOnUse" x1="32.325527" x2="20.060635" y1="5.020115" y2="56.921478"><stop offset="0" stop-color="#fff"/><stop offset="1" stop-color="#fff" stop-opacity="0"/></linearGradient><linearGradient id="c" gradientTransform="matrix(.44576989 0 0 .44993664 .801525 -.024539)" gradientUnits="userSpaceOnUse" x1="25.132275" x2="25.132275" y1="15.499894" y2="48.395687"><stop offset="0" stop-color="#fafafa"/><stop offset="1" stop-color="#e2e1de"/></linearGradient><linearGradient id="d" gradientUnits="userSpaceOnUse" x1="8.295028" x2="8.295028" y1="-4.283906" y2="16.849756"><stop offset="0" stop-color="#cdf87e"/><stop offset=".26238" stop-color="#a2e34f"/><stop offset=".66093999" stop-color="#68b723"/><stop offset="1" stop-color="#1d7e0d"/></linearGradient><linearGradient id="e" gradientUnits="userSpaceOnUse" x1="11.001243" x2="11.001243" y1="2.268861" y2="19.728327"><stop offset="0" stop-color="#fff"/><stop offset=".06316455" stop-color="#fff" stop-opacity=".235294"/><stop offset=".95056331" stop-color="#fff" stop-opacity=".156863"/><stop offset="1" stop-color="#fff" stop-opacity=".392157"/></linearGradient><path d="m2.527779 1.999818h17.944444c.292389 0 .524219.2477985.527778.555556l.05085 4.3973626c.0023.1995984-14.003321-.00358-14.003321-.00358s.052851 14.9466335-.04988 14.9489705l-4.469871.1016909c-.2923134.00665-.527778-.247778-.527778-.555556v-18.888888c0-.3077781.235389-.555556.527778-.555556z" fill="url(#c)"/><path d="m1 6.1640625v15.2988285c0 .842497.6946124 1.537109 1.5371094 1.537109h4.4628906v-1h-4.4628906c-.305795 0-.5371094-.231314-.5371094-.537109v-15.2988285z" opacity=".3"/><path d="m2.536364 1.499845c-.574145 0-1.036364.462218-1.036364 1.036364v3.963609h20.000182v-3.963609c0-.574146-.462218-1.036364-1.036363-1.036364z" fill="url(#d)"/><path d="m2.000001 9.999818h4v1h-4z" opacity=".321"/><path d="m2.000001 13.999818h4v1h-4z" opacity=".321"/><path d="m2.000001 17.999819h4v1h-4z" opacity=".321"/><g fill="#126400"><path d="m6.000001 1.999818h1v4.000182h-1z" opacity=".4"/><path d="m11.000001 1.999818h1v4.000182h-1z" opacity=".4"/><path d="m16.000002 1.999818h1v4.000182h-1z" opacity=".4"/></g><path d="m2.536364 1.499845c-.574146 0-1.036364.462218-1.036364 1.036364l.000001 3.963609h20.000182l-.000001-3.963609c0-.574146-.462218-1.036364-1.036364-1.036364z" fill="none" opacity=".4" stroke="#126400" stroke-linecap="round"/><path d="m2.500001 2.499818v3h18v-3z" fill="none" opacity=".5" stroke="url(#e)" stroke-linecap="round" stroke-linejoin="round"/><path d="m6 22h1v-15.146386h-1z" opacity=".321"/><g transform="translate(.414834 10.000782)"><path d="m17.488281 2.2285156-.0059 1.2949219c-1.205547.022065-2.347989.4202871-3.263672 1.3164063-1.862791 1.8229904-1.914689 4.8211025-.08008 6.5859372 1.425568 1.371347 2.781329 1.319574 3.292969 1.333985.681156.019185 3.799561-.416508 4.611371-3.759766h-1.833985c-.05532 1.196913-3.449157 2.47137-4.607422.9882812-.697369-.8929418-.989146-2.6990723-.007812-3.6503906.39734-.3851869 1.341688-.8853237 1.888672-.9003906l.0059 1.375 1.511678-1.1914062v-.28125h.357422l.925781-.7304688z" fill="url(#a)"/><path d="m17.488281 2.2285156-.0059 1.2949219c-1.205547.022065-2.347989.4202866-3.263672 1.3164063-1.862791 1.8229899-1.859648 4.7656154-.08008 6.5859372.888481.908826 2.044929 1.328612 3.21289 1.34375.196862.0026.386405-.0049.56836-.02148 2.923041-.265777 4.000345-2.679098 4.205121-3.748051h-1.962891c-.239785 1.155214-3.285401 2.638539-4.560547.9882812-.692745-.896534-.989141-2.6990723-.007812-3.6503906.39734-.3851869 1.341688-.8853236 1.888672-.9003906l.0059 1.375 2.794922-2.203125-2.794922-2.3808594z" fill="none" stroke="#559ac6" stroke-linejoin="round" stroke-width=".458365"/><path d="m20.659046 8.7909478c.01271 1.3495162-3.211746 3.6434412-5.366054 1.5353672-1.182065-1.1708296-1.10432-3.3768345-.013678-4.3816931.460236-.4240389 1.173055-.9390744 2.662847-.9390744v.8828367l1.692551-1.2799787-1.692551-1.4321122v.8452517c-1.227876-.055284-2.510736.2525608-3.427859 1.1696841-1.685212 1.6852118-1.590548 4.3743008-.0354 5.9294529.911051.911051 2.039098 1.140678 2.7128 1.20728 2.924439.289114 4.882748-2.310124 4.629556-3.7176927" fill="none" opacity=".4" stroke="url(#b)" stroke-width=".460542"/></g></svg>