<svg viewBox="0 0 24 24" xmlns="http://www.w3.org/2000/svg" xmlns:xlink="http://www.w3.org/1999/xlink"><linearGradient id="a" gradientUnits="userSpaceOnUse" x1="9.978495" x2="9.978495" y1="13.912886" y2="-5.872059"><stop offset="0"/><stop offset="1" stop-color="#333"/></linearGradient><linearGradient id="b" gradientUnits="userSpaceOnUse" x1="14" x2="6" y1="8" y2="16"><stop offset="0" stop-color="#fff"/><stop offset=".125" stop-color="#fff" stop-opacity="0"/><stop offset="1" stop-color="#fff" stop-opacity="0"/></linearGradient><clipPath id="c"><path d="m8 2.6855469v14.0000001l3.132812-3.820313 2.066407 4.986328a1.0001 1.0001 0 1 0 1.847656-.765624l-2.111328-5.095704 4.378906.009766z"/></clipPath><linearGradient id="d"><stop offset="0" stop-color="#737373"/><stop offset=".262" stop-color="#636363"/><stop offset=".705" stop-color="#4b4b4b"/><stop offset="1" stop-color="#3f3f3f"/></linearGradient><radialGradient id="e" cx="12" cy="6.311" gradientTransform="matrix(-3.96696 .24794 -.2832 -4.53097 61.39 26.62)" gradientUnits="userSpaceOnUse" r="3.531" xlink:href="#d"/><radialGradient id="f" cx="11" cy="7.571" gradientTransform="matrix(-5 0 0 -2.33333 66 20.667)" gradientUnits="userSpaceOnUse" r="3" xlink:href="#d"/><radialGradient id="g" cx="22.571" cy="30.857" gradientTransform="matrix(.39672 0 0 .1355 2.986 16.35)" gradientUnits="userSpaceOnUse" r="15.571"><stop offset="0"/><stop offset="1" stop-opacity="0"/></radialGradient><g transform="translate(-4)"><ellipse cx="11.941" cy="20.531" fill="url(#g)" opacity=".2" rx="6.177" ry="2.11"/><g fill="#3f3f3f"><path d="m9 3.47a.532.532 0 0 0 -.53.53v1a.532.532 0 0 0 .524.53l1.47.017v.004l.006 5.449-.005 5.45-.002.003-1.47.016a.532.532 0 0 0 -.524.53v1a.532.532 0 0 0 .53.53h6a.532.532 0 0 0 .53-.53v-1a.532.532 0 0 0 -.524-.53l-1.477-.017-.003-.002.004-5.45-.003-5.45.002-.003 1.476-.016a.532.532 0 0 0 .526-.531v-1a.532.532 0 0 0 -.53-.53z" fill="url(#e)"/><path d="m9 4v1l1.572.018c.236 0 .423.272.424.53v10.903c0 .26-.188.533-.424.532l-1.572.017v1h6v-1l-1.574-.018c-.235 0-.43-.273-.43-.53l.004-5.452-.004-5.45c0-.26.195-.532.43-.532l1.574-.018v-1z" fill="url(#f)"/><path d="m15.578 3c-2.618.007-4.537 0-7.152 0-.236 0-.422.263-.422.52l-.004 2c0 .26.19.47.426.47l1.574.01v10l-1.574.01c-.236 0-.426.21-.426.47l.004 2c0 .257.212.52.448.52 2.615 0 4.508-.007 7.126 0 .235 0 .426-.21.426-.47v-2.06c0-.26-.19-.47-.426-.47h-1.578v-10h1.578c.235 0 .426-.21.426-.47v-2.06c0-.26-.19-.47-.426-.47zm-6.578 1h6v1l-1.574.018c-.235 0-.43.273-.43.53l.004 5.452-.004 5.45c0 .26.195.532.43.532l1.574.018v1h-6v-1l1.572-.018c.236 0 .423-.272.424-.53l.004-5.452-.004-5.45c0-.26-.188-.533-.424-.532l-1.572-.018z" fill="#000" fill-opacity=".537"/></g></g><g transform="translate(6.010753 10.010752)"><g fill-rule="evenodd" stroke="#000" stroke-linejoin="round"><path d="m7.9892474.989248v10.999999l2.5652276-2.9424833 2.044188 3.7280743c.494727 1.242916 2.142881-.74317 1.613492-1.971723l-1.874329-2.6219433 3.651422-.1919247z" opacity=".02" stroke-width="6"/><path d="m7.9892474.989248v10.999999l2.5652276-2.9424833 2.044188 3.7280743c.494727 1.242916 2.142881-.74317 1.613492-1.971723l-1.874329-2.6219433 3.117524-.2046366z" opacity=".2" stroke-width="2"/><path d="m7.9892474.989248v10.999999l2.5652276-2.9424833 2.044188 3.7280743c.494727 1.242916 2.142881-.74317 1.613492-1.971723l-1.874329-2.6219433 3.117524-.2046366z" opacity=".05" stroke-width="4"/></g><path d="m7 0v11l2.5652277-2.9424843 2.0441883 3.7280743c.494704 1.24297 2.357232.471184 1.827788-.757391l-2.088625-3.8362743 3.651421-.1919247z" fill="none" stroke="#fff" stroke-width="2"/><path d="m7 0v11l2.5652277-2.9424843 2.0441883 3.7280743c.494704 1.24297 2.357232.471184 1.827788-.757391l-2.088625-3.8362743 3.651421-.1919247z" fill="url(#a)" fill-rule="evenodd"/><path clip-path="url(#c)" d="m6.9891304 6.9358866v11.1195654l2.59311-2.974467 2.0664066 3.768597c.500102 1.256433 2.382807.476286 1.847656-.765624l-2.111328-3.877973 3.691112-.194011z" fill="none" opacity=".4" stroke="url(#b)" stroke-width="2.695652" transform="matrix(.98924729 0 0 .98924729 .086022 -6.861307)"/></g></svg>