<svg height="24" width="24" xmlns="http://www.w3.org/2000/svg" xmlns:xlink="http://www.w3.org/1999/xlink"><linearGradient id="a" gradientTransform="matrix(0 -.5372019 -.57681717 0 49.997188 27.865617)" gradientUnits="userSpaceOnUse" x1="23.92556" x2="23.92556" y1="65.007065" y2="48.537373"><stop offset="0" stop-color="#fff"/><stop offset=".45000002" stop-color="#fff" stop-opacity=".235294"/><stop offset=".99999994" stop-color="#fff" stop-opacity=".156863"/><stop offset="1" stop-color="#fff" stop-opacity=".392157"/></linearGradient><linearGradient id="b" gradientTransform="matrix(-.4766877 0 0 .44382351 28.94314 3.441469)" gradientUnits="userSpaceOnUse" x1="39.739101" x2="-.119279" y1="21.565536" y2="21.565536"><stop offset="0" stop-color="#f0c1ff"/><stop offset=".26238" stop-color="#c5a3f2"/><stop offset=".704952" stop-color="#7a36b1"/><stop offset="1" stop-color="#4c2d81"/></linearGradient><radialGradient id="c" cx="24.837126" cy="36.421127" gradientTransform="matrix(-.27598143 0 0 -.29583148 24.323798 24.819207)" gradientUnits="userSpaceOnUse" r="15.644737"><stop offset="0"/><stop offset="1" stop-opacity="0"/></radialGradient><linearGradient id="d"><stop offset="0" stop-opacity=".339506"/><stop offset="1" stop-opacity=".246914"/></linearGradient><linearGradient id="e" gradientUnits="userSpaceOnUse" x1="13" x2="13" y1="5" y2="17"><stop offset="0" stop-color="#fff"/><stop offset="0" stop-color="#fff" stop-opacity=".235294"/><stop offset="1" stop-color="#fff" stop-opacity=".156863"/><stop offset="1" stop-color="#fff" stop-opacity=".392157"/></linearGradient><linearGradient id="f" gradientUnits="userSpaceOnUse" x1="10.423729" x2="10.355932" xlink:href="#d" y1="18.627119" y2="3.576271"/><linearGradient id="g" gradientUnits="userSpaceOnUse" x1="15.406779" x2="15.644068" y1="4.491526" y2="18.016949"><stop offset="0" stop-color="#f4f4f4"/><stop offset="1" stop-color="#dbdbdb"/></linearGradient><linearGradient id="h" gradientUnits="userSpaceOnUse" x1="3" x2="21.5" xlink:href="#d" y1="1.944428" y2="1.944428"/><linearGradient id="i" gradientUnits="userSpaceOnUse" x1="18" x2="22.111143" xlink:href="#d" y1="9.542822" y2="9.542822"/><linearGradient id="j" gradientUnits="userSpaceOnUse" x1="15.348191" x2="15.384358" xlink:href="#d" y1="15.190916" y2="1.851767"/><g transform="translate(0 2)"><path d="m6.470983.470983h15.058034v15.058034h-15.058034z" fill="none" stroke="url(#j)" stroke-linecap="round" stroke-linejoin="round" stroke-width=".941966"/><path d="m3.5 3.5h15v15h-15z" fill="url(#g)" stroke="url(#f)" stroke-linecap="round" stroke-linejoin="round"/><path d="m4.5 4.5h13v13h-13z" fill="none" stroke="url(#e)"/><g fill-rule="evenodd" stroke-linejoin="round"><path d="m18.5 3.5 3-3v15l-3 3z" fill="#dbdbdb" stroke="url(#i)"/><path d="m18.5 3.5 3-3h-15l-2.9861797 2.9861071z" fill="#fafafa" stroke="url(#h)"/></g></g><g transform="matrix(0 1 -1 0 22.012761 .000001)"><path d="m13.151555 14.044686c0-6.1709424 8.635315-6.1709424 8.635315 0 0 2.556091-1.933081 4.628207-4.317658 4.628207-2.384576 0-4.317657-2.072116-4.317657-4.628207z" fill="url(#c)" fill-rule="evenodd" opacity=".141176"/><path d="m17.499999 17.012761-7-5.5 7-5.5v3.4872389h6.000001v4.0000001h-6.000001z" display="block" fill="url(#b)"/><g fill="none"><path d="m16.499999 15.012761-4.5-3.5 4.5-3.5.000001 2.487239 5.999999.01276v2l-5.999999-.01276z" display="block" opacity=".5" stroke="url(#a)" stroke-miterlimit="7" stroke-width=".963925"/><path d="m17.499999 17.012761-7-5.5 7-5.5.000001 3.4872388h6v4.0000002h-6z" opacity=".5" stroke="#6326b9" stroke-linejoin="round"/></g></g></svg>