<svg height="24" width="24" xmlns="http://www.w3.org/2000/svg" xmlns:xlink="http://www.w3.org/1999/xlink"><radialGradient id="a" cx="62.625" cy="4.625" gradientTransform="matrix(-1.0352941 0 0 .23529379 77.028857 20.411496)" gradientUnits="userSpaceOnUse" r="10.625"><stop offset="0"/><stop offset="1" stop-opacity="0"/></radialGradient><linearGradient id="b" gradientTransform="matrix(-.5097808 .03067969 .03009813 .5001183 22.774393 .506203)" gradientUnits="userSpaceOnUse" x1="31.226292" x2="34.96563" y1="34.600941" y2="26.842505"><stop offset="0" stop-color="#a575d6"/><stop offset="1" stop-color="#b483d5" stop-opacity="0"/></linearGradient><linearGradient id="c" gradientTransform="matrix(-.3446423 -.3446422 -.3381098 .3381098 27.882197 14.32142)" gradientUnits="userSpaceOnUse" x1="32.325527" x2="22.245434" y1="5.020115" y2="43.366352"><stop offset="0" stop-color="#fff"/><stop offset="1" stop-color="#fff" stop-opacity="0"/></linearGradient><linearGradient id="d" gradientTransform="matrix(-.4865175 .02927958 .02872474 .4772959 22.715721 1.962637)" gradientUnits="userSpaceOnUse" x1="28.116938" x2="39.686337" y1="41.67448" y2="28.50532"><stop offset="0" stop-color="#fff" stop-opacity="0"/><stop offset=".63129705" stop-color="#fff" stop-opacity=".274725"/><stop offset="1" stop-color="#fff" stop-opacity="0"/></linearGradient><linearGradient id="e" gradientTransform="matrix(-.5097808 .03067969 .03009813 .5001183 22.774393 .506203)" gradientUnits="userSpaceOnUse" x1="33.686768" x2="37.039948" y1="35.773647" y2="29.856804"><stop offset="0" stop-color="#6326b9"/><stop offset="1" stop-color="#903fc4" stop-opacity="0"/></linearGradient><linearGradient id="f" gradientTransform="matrix(-.3446423 -.3446422 -.3381098 .3381098 27.882197 14.32142)" gradientUnits="userSpaceOnUse" x1="39.401215" x2="-33.29887" y1="-5.301917" y2="68.80278"><stop offset="0" stop-color="#f0c1ff"/><stop offset=".26238" stop-color="#c5a3f2"/><stop offset=".704952" stop-color="#7a36b1"/><stop offset="1" stop-color="#4c2d81"/></linearGradient><path d="m13.500005 24-.000005-23.5-2.009632-.0000007.000005 23.4999997" fill="#ffa154" stroke="#a62100" stroke-linejoin="round" stroke-miterlimit="0" stroke-opacity=".501961"/><path d="m1.1935642 21.49973a11 2.5 0 0 0 21.9999998 0 11 2.5 0 1 0 -21.9999998 0z" fill="url(#a)" fill-rule="evenodd" opacity=".4"/><path d="m11.698155 18.816592c1.128728.06587 2.859052-.343133 3.906116-1.390196 1.747833-1.747833 2.158823-5.887156.01788-7.9626149-.866864-.8403489-2.925507-1.9309102-4.118843-1.9637813l-.01294 3.0000002-6.097157-4.8092842s6.097157-5.1907165 6.097157-5.1907165l.01404 2.8225719c2.6301.048138 5.12131.9196431 7.119025 2.8746754 4.063985 3.9771554 4.05746 10.3968804.175027 14.3682154-1.985452 2.030915-4.586146 2.999155-7.197102 2.928568" fill="url(#f)"/><path d="m11.596673 23.484076c-4.6404615.101529-9.9338546-3.179938-10.287863-9.200086l4.368847.575921c.245199 2.531264 3.879206 4.316315 6.073699 4.006329" fill="url(#b)"/><path d="m-12.014621 19.441441h1.000053v3.278722h-1.000053z" fill="#a575d6" transform="scale(-1 1)"/><g fill="none"><path d="m11.698155 18.816592c1.128728.06587 2.859052-.343133 3.906116-1.390196 1.747833-1.747833 2.158823-5.887156.01788-7.9626144-.866864-.8403489-2.925507-1.9309102-4.118843-1.9637813l-.01294 2.9999997-6.097157-4.8092837s6.097157-5.19071651 6.097157-5.19071651l.01404 2.82257191c2.6301.048138 5.12131.9196431 7.119025 2.8746754 4.063985 3.9771549 4.05746 10.3968799.175027 14.3682149-1.985452 2.030915-4.586146 2.999155-7.197102 2.928568" opacity=".5" stroke="#6326b9" stroke-linejoin="round"/><g stroke-width="1.004748"><path d="m11.596673 23.484076c-4.6404615.101529-9.9338546-3.179938-10.287863-9.200086l4.368847.575921c.1104384 1.140089 2.322343 4.006329 6.073699 4.006329" opacity=".5" stroke="url(#e)"/><path d="m11.691577 19.966046c1.446471.0129 3.484597-.709353 4.588023-1.800765 2.57887-2.554359 2.409256-7.367123.02984-9.5593888-1.00408-.9251103-2.559213-2.0487461-5.80944-2.0487461v1.926054l-3.69258-2.7924843s3.69258-3.1243897 3.69258-3.1243897v1.8440569c2.678814-.120611 5.477585.5510024 7.478441 2.5518583 3.676568 3.6765687 3.47004 9.5432587.07722 12.9360817-2.147844 2.147843-4.400824 2.725534-6.445786 2.572342" opacity=".4" stroke="url(#c)"/><path d="m11.348056 22.568281c-2.6714741.166198-8.572949-2.28894-8.936808-8.334926l1.9533017-.06205c.172372 2.864146 3.6354503 5.671566 7.2966313 5.827299" stroke="url(#d)" stroke-linejoin="round"/></g></g><g transform="matrix(.66667 0 0 .66667 1.33328 2.66656)"><path d="m15.250004 23.750041v8.249959" fill="none" stroke="#a62100" stroke-opacity=".501961" stroke-width="1.499992"/><path d="m18.249989 23.000045v8.999955" fill="none" stroke="#a62100" stroke-opacity=".501961" stroke-width="1.499992"/><path d="m16 23.000046h1.499992v8.999955h-1.499992z" fill="#ffa154"/></g></svg>