<svg height="24" viewBox="0 0 6.3499998 6.3500002" width="24" xmlns="http://www.w3.org/2000/svg" xmlns:xlink="http://www.w3.org/1999/xlink"><radialGradient id="a" cx="2.25" cy="16" gradientTransform="matrix(.479894 0 0 .11633788 10.772975 17.175389)" gradientUnits="userSpaceOnUse" r="16.875"><stop offset="0"/><stop offset="1" stop-opacity="0"/></radialGradient><linearGradient id="b" gradientUnits="userSpaceOnUse" x1="15.033642" x2="15" y1="5.743903" y2="16"><stop offset="0" stop-color="#cd9ef7"/><stop offset="1" stop-color="#a56de2"/></linearGradient><linearGradient id="c" gradientTransform="matrix(.24324324 0 0 .35135133 2.162164 -.432428)" gradientUnits="userSpaceOnUse" x1="23.296314" x2="22.275005" y1="25.354868" y2="52.783108"><stop offset="0" stop-color="#fff"/><stop offset=".43659541" stop-color="#fff" stop-opacity=".235"/><stop offset="1" stop-color="#fff" stop-opacity=".156863"/><stop offset="1" stop-color="#fff" stop-opacity=".392157"/></linearGradient><g transform="matrix(.26458333 0 0 .26458333 0 .52917)"><ellipse cx="11.852736" cy="19.036797" display="block" fill="url(#a)" fill-rule="evenodd" opacity=".433333" rx="8.098211" ry="1.963204"/><g stroke-linejoin="round" transform="translate(0 -2)"><path d="m12 5.5136719c-4.6869481-.0001361-8.486503 3.3516922-8.4863281 7.4863281-.0001749 4.134636 3.7993801 7.486464 8.4863281 7.486328 4.686948.000136 8.486503-3.351692 8.486328-7.486328z" fill="url(#b)" fill-rule="evenodd" stroke="#7239b3" stroke-opacity=".501961" stroke-width="1.027902"/><path d="m11.640816 6.5599341c-3.8425584-.0087847-7.1206697 3.1967662-7.125191 6.4400659-.0003119 3.581308 3.3507274 6.484609 7.484375 6.484375 3.684153-.0041 6.905234-2.419038 7.451057-5.970511z" fill="none" opacity=".49" stroke="url(#c)" stroke-width="1.032229"/></g></g></svg>