<svg height="24" width="24" xmlns="http://www.w3.org/2000/svg" xmlns:xlink="http://www.w3.org/1999/xlink"><linearGradient id="a"><stop offset="0"/><stop offset="1" stop-opacity="0"/></linearGradient><linearGradient id="b" gradientTransform="matrix(.4545444 0 0 .4651153 1.090935 .337229)" gradientUnits="userSpaceOnUse" x1="24" x2="24" y1="2" y2="46.01725"><stop offset="0" stop-color="#fff"/><stop offset="1" stop-color="#fff" stop-opacity="0"/></linearGradient><linearGradient id="c" gradientTransform="matrix(.4210526 0 0 .5526316 1.894737 -1.763158)" gradientUnits="userSpaceOnUse" x1="23.969797" x2="23.969797" y1="3.981044" y2="44.024017"><stop offset="0" stop-color="#fff"/><stop offset="1" stop-color="#dcdcdc"/></linearGradient><radialGradient id="d" cx="8.1203" cy="6.62782" gradientTransform="matrix(.01444031 2.0653773 -3.052092 .02133905 28.231755 -11.638481)" gradientUnits="userSpaceOnUse" r="8.999999"><stop offset="0" stop-color="#f89b7e"/><stop offset=".25" stop-color="#e35d4f"/><stop offset=".75235957" stop-color="#c6262e"/><stop offset="1" stop-color="#690b2c"/></radialGradient><linearGradient id="e" gradientTransform="matrix(.3922135 0 0 .4473607 29.199293 -1.2387)" gradientUnits="userSpaceOnUse" x1="-53.412315" x2="-51.786404" y1="56.110264" y2="2.906247"><stop offset="0" stop-color="#791235"/><stop offset="1" stop-color="#dd3b27"/></linearGradient><radialGradient id="f" cx="605.71429" cy="486.64789" gradientTransform="matrix(.01204859 0 0 .00823529 13.238794 18.980568)" gradientUnits="userSpaceOnUse" r="117.14286" xlink:href="#a"/><radialGradient id="g" cx="605.71429" cy="486.64789" gradientTransform="matrix(-.01204859 0 0 .00823529 10.761206 18.980568)" gradientUnits="userSpaceOnUse" r="117.14286" xlink:href="#a"/><linearGradient id="h" gradientTransform="matrix(.0352071 0 0 .00823529 -.724852 18.980551)" gradientUnits="userSpaceOnUse" x1="302.85715" x2="302.85715" y1="366.64789" y2="609.50507"><stop offset="0" stop-opacity="0"/><stop offset=".5"/><stop offset="1" stop-opacity="0"/></linearGradient><g transform="matrix(.91666672 0 0 .91666672 .999999 1)"><path d="m3.500001 21.999998h17v1.999998h-17z" fill="url(#h)" opacity=".15"/><path d="m3.5 22.000086v1.999889c-.6204725.003765-1.5-.448074-1.5-1.000074 0-.551999.6924-.999815 1.5-.999815z" fill="url(#g)" opacity=".15"/><path d="m20.5 22.000086v1.999889c.620472.0038 1.5-.448074 1.5-1.000074 0-.551999-.692401-.999815-1.5-.999815l0 0z" fill="url(#f)" opacity=".15"/><path d="m3.4999617.49996097 17.0000383.00003903s.000039 16.270881.000039 22.000039c-5.666693 0-11.3333845 0-17.0000773 0 0-7.33336 0-22.00007803 0-22.00007803z" fill="url(#d)" opacity=".85" stroke="url(#e)" stroke-linejoin="round" stroke-width=".999922"/><path d="m13.602941 1c-5.4535729 6.1511328-8.5666803 7.0161777-9.602941 7.1119188v2.2129362c.7821694-.143558 2.7443732-.6416425 4.8382356-2.3655525 2.6849064-2.2105256 5.8970584-6.9593025 5.8970584-6.9593025-.880321 2.2698704-1.13005 10.649675-1.147059 21h6.411765c0-.575145 0-.459511 0-1.037791-1.043241-2.828321-1.723462-6.909242-2.235294-10.561046-.302448-3.0169216.045129-9.401163.045129-9.401163h-3.2135zm-9.602941 10.713663v2.457122c2.2640725-.000001 5.7426817 3.566302 7.426471 7.829215h1.411764c-.79117-3.875404-7.1109301-10.286337-8.838235-10.286337z" fill="url(#c)" fill-rule="evenodd" opacity=".9"/><path d="m19.500001 1v20.5c-5 0-9.9999998 0-15.000001 0 0-6.66667 0-13.3333343 0-20.0000001h15.5" fill="none" opacity=".4" stroke="url(#b)"/></g></svg>