<svg viewBox="0 0 24 24" xmlns="http://www.w3.org/2000/svg" xmlns:xlink="http://www.w3.org/1999/xlink"><linearGradient id="a" gradientTransform="matrix(.28571361 0 0 .30419701 -39.857127 -6.767395)" gradientUnits="userSpaceOnUse" x1="151.94229" x2="149.92883" y1="23.85677" y2="88.607574"><stop offset="0" stop-color="#f4f4f4"/><stop offset="1" stop-color="#dbdbdb"/></linearGradient><linearGradient id="b" gradientTransform="matrix(.25378586 0 0 .30501865 19.128979 -.685477)" gradientUnits="userSpaceOnUse" x1="5.266767" x2="3" y1="68.150665" y2="4"><stop offset="0" stop-opacity=".339506"/><stop offset="1" stop-opacity=".246914"/></linearGradient><linearGradient id="c" gradientTransform="matrix(.24324324 0 0 .35135133 2.162164 -.432428)" gradientUnits="userSpaceOnUse" x1="34.99435" x2="37.920906" y1="18.893091" y2="52.28553"><stop offset="0" stop-color="#fff"/><stop offset=".22741666" stop-color="#fff" stop-opacity=".235294"/><stop offset="1" stop-color="#fff" stop-opacity=".156863"/><stop offset="1" stop-color="#fff" stop-opacity=".392157"/></linearGradient><radialGradient id="d" cx="2.25" cy="16" gradientTransform="matrix(.479894 0 0 .11633788 11.685296 18.923707)" gradientUnits="userSpaceOnUse" r="16.875"><stop offset="0"/><stop offset="1" stop-opacity="0"/></radialGradient><ellipse cx="12.765058" cy="20.785114" display="block" fill="url(#d)" fill-rule="evenodd" opacity=".245" rx="8.098211" ry="1.963204"/><path d="m8.8511342 3.5298559 6.1488658-.029856s5.470145 1.5280142 5.470145 8.5624991c0 7.034485-5.470145 8.407646-5.470145 8.407646h-6.1488658s-5.3212782-1.333463-5.3212782-8.51493 5.3212782-8.4253591 5.3212782-8.4253591z" fill="url(#a)" stroke="url(#b)" stroke-linecap="round" stroke-linejoin="round"/><path d="m9.4836183 4.5798685 5.0163817-.079869s5.014069 1.1326877 5.014069 7.5937485c0 6.461061-5.014069 7.42032-5.014069 7.42032h-5.0163817s-5.095964-.96649-4.9976869-7.702671c.098277-6.7361813 4.9976869-7.2315285 4.9976869-7.2315285z" fill="none" stroke="url(#c)"/></svg>