<svg height="24" viewBox="0 0 6.3499999 6.3500002" width="24" xmlns="http://www.w3.org/2000/svg" xmlns:xlink="http://www.w3.org/1999/xlink"><radialGradient id="a" cx="2.25" cy="16" gradientTransform="matrix(.479894 0 0 .11633788 11.685296 18.923707)" gradientUnits="userSpaceOnUse" r="16.875"><stop offset="0"/><stop offset="1" stop-opacity="0"/></radialGradient><linearGradient id="b" gradientTransform="matrix(.28571361 0 0 .30419701 -39.857127 -6.767395)" gradientUnits="userSpaceOnUse" x1="151.94229" x2="149.92883" y1="23.85677" y2="88.607574"><stop offset="0" stop-color="#cd9ef7"/><stop offset="1" stop-color="#a56de2"/></linearGradient><linearGradient id="c" gradientTransform="matrix(.24324324 0 0 .35135133 2.162164 -.432428)" gradientUnits="userSpaceOnUse" x1="34.99435" x2="37.920906" y1="18.893091" y2="52.28553"><stop offset="0" stop-color="#fff"/><stop offset=".22741666" stop-color="#fff" stop-opacity=".235294"/><stop offset="1" stop-color="#fff" stop-opacity=".156863"/><stop offset="1" stop-color="#fff" stop-opacity=".392157"/></linearGradient><g transform="scale(.26458333)"><ellipse cx="12.765058" cy="20.785114" display="block" fill="url(#a)" fill-rule="evenodd" opacity=".245" rx="8.098211" ry="1.963204"/><path d="m9 3.5h6s5.5 1.4655151 5.5 8.5c0 7.034485-5.5 8.5-5.5 8.5h-6s-5.4637881-1.318826-5.4637881-8.500293c0-7.1814675 5.4637881-8.499707 5.4637881-8.499707z" fill="url(#b)" stroke="#7239b3" stroke-linecap="round" stroke-linejoin="round" stroke-opacity=".501961"/><path d="m9.5 4.5 5-.0000005s5 1.0389397 5 7.5000005c0 6.461061-5 7.5-5 7.5h-5s-5.0982771-.763819-5-7.5c.098277-6.7361798 5-7.5 5-7.5z" fill="none" opacity=".5" stroke="url(#c)"/></g></svg>