<svg viewBox="0 0 24 24" xmlns="http://www.w3.org/2000/svg" xmlns:xlink="http://www.w3.org/1999/xlink"><radialGradient id="a" cx="2.25" cy="16" gradientTransform="matrix(.18586543 0 0 .11633788 16.98382 18.615043)" gradientUnits="userSpaceOnUse" r="16.875" xlink:href="#b"/><linearGradient id="b"><stop offset="0"/><stop offset="1" stop-opacity="0"/></linearGradient><radialGradient id="c" cx="2.25" cy="16" gradientTransform="matrix(.43728116 0 0 .11633788 8.909224 18.63607)" gradientUnits="userSpaceOnUse" r="16.875" xlink:href="#b"/><linearGradient id="d" gradientTransform="matrix(.3849464 0 0 .38533612 -3.029526 2.123405)" gradientUnits="userSpaceOnUse" x1="23.598076" x2="37.746555" xlink:href="#e" y1="23.992306" y2="39.486301"/><linearGradient id="e"><stop offset="0" stop-color="#eeeeec"/><stop offset="1" stop-color="#e0e0de"/></linearGradient><linearGradient id="f" gradientUnits="userSpaceOnUse" x1="15.667366" x2="20.047095" xlink:href="#e" y1="12.746215" y2="6.418209"/><ellipse cx="17.402018" cy="20.476452" display="block" fill="url(#a)" fill-rule="evenodd" opacity=".245" rx="3.136479" ry="1.963204"/><ellipse cx="9.893107" cy="20.497478" display="block" fill="url(#c)" fill-rule="evenodd" opacity=".245" rx="7.37912" ry="1.963204"/><path d="m6.4106378 3.529856 8.0185042-.029856s-3.5185 1.204423-3.5185 8.238908 3.5185 8.731237 3.5185 8.731237h-8.0185042s-5.3212782-1.333463-5.3212782-8.51493c0-7.1814669 5.3212782-8.425359 5.3212782-8.425359z" fill="url(#d)" stroke="#888a85" stroke-linecap="round" stroke-linejoin="round"/><path d="m7.0431219 4.5798686 4.8366081-.1158236s-2.0330279 1.1326874-2.0330279 7.162293c0 6.029606 1.8532549 7.88773 1.8532549 7.88773l-4.6568351.000005s-5.095964-.96649-4.9976869-7.702671c.098277-6.7361862 4.9976869-7.2315334 4.9976869-7.2315334z" fill="none" stroke="#fdfdfb"/><ellipse cx="17.533642" cy="12.027123" fill="url(#f)" rx="5.033641" ry="8.485281" stroke="#888a85" stroke-miterlimit="0"/><ellipse cx="17.569597" cy="12.009146" fill="none" rx="4.136766" ry="7.498519" stroke="#fdfdfb" stroke-miterlimit="0" stroke-width=".852205"/></svg>