<svg height="24" width="24" xmlns="http://www.w3.org/2000/svg" xmlns:xlink="http://www.w3.org/1999/xlink"><radialGradient id="a" cx="22.571428" cy="30.857143" gradientTransform="matrix(.706422 0 0 .13549598 -4.944954 13.928848)" gradientUnits="userSpaceOnUse" r="15.571428"><stop offset="0"/><stop offset="1" stop-opacity="0"/></radialGradient><linearGradient id="b" gradientTransform="matrix(.44548312 0 0 .41020481 .815472 -.871437)" gradientUnits="userSpaceOnUse" x1="23.30562" x2="14.388516" y1="24.843527" y2="9.590224"><stop offset="0" stop-color="#1f1f1f"/><stop offset="1" stop-color="#5c5c5c"/></linearGradient><mask id="c"><path d="m303.54129 125.90525h23.375v22.5h-23.375z" fill="url(#d)"/></mask><linearGradient id="d" gradientUnits="userSpaceOnUse" x1="316.472471" x2="317.623691" y1="138.89748" y2="141.19508"><stop offset="0" stop-color="#fff"/><stop offset="1"/></linearGradient><linearGradient id="e" gradientTransform="matrix(.7811541 -.03481362 -.03481362 .7811541 70.230423 94.3198)" gradientUnits="userSpaceOnUse" x1="309.29663" x2="335.30014" y1="67.297691" y2="81.926315"><stop offset="0" stop-color="#d3d7cf"/><stop offset=".18303643" stop-color="#babdb6"/><stop offset=".31893486" stop-color="#fff"/><stop offset=".87643671" stop-color="#babdb6"/><stop offset="1" stop-color="#eeeeec"/></linearGradient><linearGradient id="f" gradientTransform="matrix(.7811541 -.03481362 -.03481362 .7811541 70.230423 94.3198)" gradientUnits="userSpaceOnUse" x1="324.49731" x2="330.06076" y1="70.282364" y2="99.273735"><stop offset="0" stop-color="#888a85"/><stop offset="1" stop-color="#555753"/></linearGradient><linearGradient id="g" gradientTransform="matrix(.801996 0 0 .7960034 69.746815 998.18246)" gradientUnits="userSpaceOnUse" x1="302.29202" x2="308.64914" y1="58.442768" y2="60.767513"><stop offset="0" stop-color="#babdb6"/><stop offset="1" stop-color="#fff"/></linearGradient><g transform="translate(0 2)"><ellipse cx="10.999999" cy="18.109867" fill="url(#a)" opacity=".2" rx="10.999999" ry="2.890133"/><path d="m14.299 13.7h-6.7170503l-1.1564 2.9h-3.0923782l6.3345005-15.1999997h2.877728l6.1092 15.1999997h-3.2337zm-5.919-2.3h5.0456l-2.25115-6.8762673z" style="opacity:.66;stroke:#000;stroke-width:.866387;stroke-linecap:round;stroke-linejoin:round;fill:url(#b)"/><g transform="matrix(.86159974 0 0 .86159974 3.285686 1.110525)"><path d="m14.999984 11.580757c-.05244.01567-.08675.04907-.125.09375-.07653.08936-.11515.216835-.0625.3125l1.40625 2.65625c.125982.239363.04748.573495-.1875.90625-.237231.335907-.608047.688579-1.09375.96875-.485808.28024-.977944.437605-1.375.46875-.394711.03099-.717447-.07247-.84375-.3125l-1.40625-2.6875c-.03935-.07451-.100938-.118741-.1875-.125-.08652-.0061-.189081.02655-.25.09375-.03284.03499-.04982.0798-.0625.125-.351964 1.288231-.265359 2.739563.25 3.71875.703824 1.337255 2.271665 1.940224 3.84375 1.59375.627816.186403-.460557-1.026545.497159-.07386l4.887516.28125-.540925-1.082386c-.863354-.858809-1.28426-1.620936-1.5-2.21875.248089-.850827.189199-1.756137-.21875-2.53125-.51516-.97876-1.649372-1.810281-2.875-2.1875-.05255-.01719-.103808-.01567-.15625 0z" style="opacity:.4;fill:none;stroke:#000;stroke-width:2;stroke-linecap:round;stroke-linejoin:round;stroke-dashoffset:.3612"/><g enable-background="new" mask="url(#c)" transform="matrix(.8686611 0 0 .8704732 -253.90735 -98.906489)"><path d="m319.39329 139.2285-4.34206-4.35975c-.99389-.9866-1.50014-1.84777-1.7485-2.53454.2856-.97743.2328-2.00504-.23683-2.89549-.59305-1.1244-1.89986-2.08374-3.3108-2.51709-.12099-.0395-.25795.00092-.34601.10358-.0881.10266-.10892.24521-.0483.35511l1.61439 3.06837c.14503.27498.0466.64136-.22391 1.02363-.2731.38589-.71642.77909-1.27556 1.10095-.55926.32194-1.11244.50954-1.56953.54532-.45439.0356-.8053-.0744-.9507-.35014l-1.62416-3.08537c-.0453-.0856-.1291-.13927-.22875-.14646-.0996-.007-.20234.0334-.27247.1106h-.00001c-.0378.0402-.0658.0881-.0804.14003-.40518 1.47992-.31949 3.15578.27379 4.28067.81024 1.53624 2.61048 2.20625 4.42026 1.80822.72274.21414 1.6718.71421 2.77432 1.80865l3.29554 3.21095" style="fill-rule:evenodd;stroke-width:1.149998;stroke-linecap:round;stroke-linejoin:round;stroke-dashoffset:.3612;fill:url(#e);stroke:url(#f)"/><path d="m314.50598 1039.6243c.015.01.006.025 0 .025l1.80449 3.2089c.24343.4323.0678.9428-.22556 1.3681-.29634.4296-.75548.8457-1.35337 1.1692-.59917.3241-1.22764.4798-1.75437.4975-.52558.018-1.01891-.1313-1.25311-.5473l-1.8045-3.2337c-.0104 0-.0268 0-.0251 0 .0165-.018.003.013 0 .025-.33275 1.4234-.16017 3.0685.45113 4.1542.83618 1.485 2.58195 2.1944 4.31073 1.8905 1.72065-.3057 3.19191-1.7936 3.55886-3.2089.23171-.9167.13299-1.9018-.35088-2.7611-.60963-1.0827-1.95075-2.1023-3.35835-2.5871z" fill="url(#g)" fill-rule="evenodd" transform="translate(-5.083714 -912.59475)"/><path d="m310.21875 127.75 1.25 2.4375c.28894.54782.085 1.12046-.25 1.59375-.33855.47839-.8542.92749-1.46875 1.28125-.60688.34935-1.22432.57896-1.8125.625-.2801.0219-.5499-.002-.8125-.0937-.2626-.0921-.51362-.29205-.65625-.5625l-1.25-2.375c-.17286 1.16401-.0996 2.37485.3125 3.15625.68338 1.29573 2.17648 1.88419 3.78125 1.53125.0917-.0238.18952-.0238.28125 0 .82317.2439 1.87487.7896 3.03125 1.9375l4.03032 3.84651 2.65917-1.37343-4.65824-4.47313c-1.04139-1.03374-1.59436-1.97397-1.875-2.75-.0358-.11084-.0358-.23291 0-.34375.24916-.8527.1772-1.74925-.21875-2.5-.41054-.77836-1.32353-1.47359-2.34375-1.9375z" style="fill:none;stroke:#fff;stroke-width:.574999;stroke-linecap:round;stroke-linejoin:round;stroke-dashoffset:.3612"/><path d="m318.61464 140.71739-.12501.12501c-.34845.34845-1.18936.0686-1.88545-.6275l-4.17573-3.67032c-.69609-.69609-.97595-1.537-.6275-1.88546l.125-.125c.34846-.34845 1.18937-.0686 1.88546.6275l4.17573 3.67032c.69609.69609.97595 1.537.6275 1.88545z" fill-rule="evenodd" opacity=".08"/></g></g></g></svg>