<svg height="24" width="24" xmlns="http://www.w3.org/2000/svg" xmlns:xlink="http://www.w3.org/1999/xlink"><mask id="a"><path d="m303.54129 125.90525h23.375v22.5h-23.375z" fill="url(#b)"/></mask><linearGradient id="b" gradientUnits="userSpaceOnUse" x1="316.47247" x2="317.62369" y1="138.89748" y2="141.19508"><stop offset="0" stop-color="#fff"/><stop offset="1"/></linearGradient><linearGradient id="c" gradientTransform="matrix(.7811541 -.03481362 -.03481362 .7811541 70.230423 94.3198)" gradientUnits="userSpaceOnUse" x1="309.29663" x2="335.30014" y1="67.297691" y2="81.926315"><stop offset="0" stop-color="#d3d7cf"/><stop offset=".18303643" stop-color="#babdb6"/><stop offset=".31893486" stop-color="#fff"/><stop offset=".87643671" stop-color="#babdb6"/><stop offset="1" stop-color="#eeeeec"/></linearGradient><linearGradient id="d" gradientTransform="matrix(.7811541 -.03481362 -.03481362 .7811541 70.230423 94.3198)" gradientUnits="userSpaceOnUse" x1="324.49731" x2="330.06076" y1="70.282364" y2="99.273735"><stop offset="0" stop-color="#888a85"/><stop offset="1" stop-color="#555753"/></linearGradient><linearGradient id="e" gradientTransform="matrix(.801996 0 0 .7960034 69.746815 998.18246)" gradientUnits="userSpaceOnUse" x1="302.29202" x2="308.64914" y1="58.442768" y2="60.767513"><stop offset="0" stop-color="#babdb6"/><stop offset="1" stop-color="#fff"/></linearGradient><linearGradient id="f"><stop offset="0"/><stop offset="1" stop-opacity="0"/></linearGradient><linearGradient id="g" gradientTransform="matrix(.0352071 0 0 .0082353 -.724852 18.980547)" gradientUnits="userSpaceOnUse" x1="302.85715" x2="302.85715" y1="366.64789" y2="609.50507"><stop offset="0" stop-opacity="0"/><stop offset=".5"/><stop offset="1" stop-opacity="0"/></linearGradient><radialGradient id="h" cx="605.71429" cy="486.64789" gradientTransform="matrix(-.01204859 0 0 .0082353 10.761206 18.980564)" gradientUnits="userSpaceOnUse" r="117.14286" xlink:href="#f"/><radialGradient id="i" cx="605.71429" cy="486.64789" gradientTransform="matrix(.01204859 0 0 .0082353 13.238793 18.980564)" gradientUnits="userSpaceOnUse" r="117.14286" xlink:href="#f"/><linearGradient id="j" gradientTransform="matrix(.48571543 0 0 .45629666 .342829 .348862)" gradientUnits="userSpaceOnUse" x1="25.132275" x2="25.132275" y1=".985206" y2="47.013336"><stop offset="0" stop-color="#f4f4f4"/><stop offset="1" stop-color="#dbdbdb"/></linearGradient><linearGradient id="k" gradientTransform="matrix(.40540511 0 0 .51351351 2.269687 -.324319)" gradientUnits="userSpaceOnUse" x1="23.99999" x2="23.99999" y1="6.473675" y2="41.526306"><stop offset="0" stop-color="#fff"/><stop offset="0" stop-color="#fff" stop-opacity=".235294"/><stop offset="1" stop-color="#fff" stop-opacity=".156863"/><stop offset="1" stop-color="#fff" stop-opacity=".392157"/></linearGradient><linearGradient id="l" gradientTransform="matrix(.76163372 0 0 .76163376 32.752642 6.015692)" gradientUnits="userSpaceOnUse" x1="-31" x2="-36" y1="12" y2="6"><stop offset="0" stop-color="#1f1f1f"/><stop offset="1" stop-color="#5c5c5c"/></linearGradient><radialGradient id="m" cx="65.297462" cy="48.216358" gradientTransform="matrix(0 .52544994 -.5716256 0 46.193389 -21.123812)" gradientUnits="userSpaceOnUse" r="31.000002"><stop offset="0" stop-color="#cdf87e"/><stop offset=".26238" stop-color="#a2e34f"/><stop offset=".66093999" stop-color="#68b723"/><stop offset="1" stop-color="#1d7e0d"/></radialGradient><linearGradient id="n" gradientTransform="matrix(.2817955 0 0 .2800956 12.178741 12.02218)" gradientUnits="userSpaceOnUse" x1="24.138529" x2="24.138529" y1="21.34207" y2="24.912279"><stop offset="0" stop-color="#fff"/><stop offset=".00000019" stop-color="#fff" stop-opacity=".235294"/><stop offset="1" stop-color="#fff" stop-opacity=".156863"/><stop offset="1" stop-color="#fff" stop-opacity=".392157"/></linearGradient><path d="m3.500001 22h16.999998v2h-16.999998z" fill="url(#g)" opacity=".15"/><path d="m3.4999999 22.000085v1.999891c-.6204724.0038-1.4999999-.448075-1.4999999-1.000075 0-.551999.6924-.999816 1.4999999-.999816z" fill="url(#h)" opacity=".15"/><path d="m20.5 22.000085v1.999891c.620472.0038 1.5-.448075 1.5-1.000075 0-.551999-.692402-.999816-1.5-.999816z" fill="url(#i)" opacity=".15"/><path d="m3.4999601 1.4999572c3.8955809 0 18.0000299.00136 18.0000299.00136l.000021 20.9987158h-18.0000509v-21.0000535z" fill="url(#j)"/><path d="m20.5 21.5h-16.0000004v-18.9999997h16.0000004z" fill="none" stroke="url(#k)" stroke-linecap="round"/><path d="m3.4460282 1.4819799c3.8955809 0 17.9999618.00136 17.9999618.00136l.000021 20.9987161h-17.9999828v-21.0000538z" fill="none" opacity=".3" stroke="#000" stroke-linejoin="round" stroke-width=".999922"/><path d="m9.956073 20.267685h-2.1270676v-5.823622l.020651-.956836.034418-1.046325q-.5300459.530046-.7365574.695255l-1.1564639.929302-1.0256734-1.280371 3.2422293-2.581393h1.7484633v10.06399z" fill="url(#l)" opacity=".66" stroke="#000" stroke-linejoin="round" stroke-width=".761" transform="scale(.98294772 1.0173481)"/><g transform="translate(-1.992714 -6.007286)"><path d="m21.481714 16.507295v4h-7.989v-4z" fill="url(#m)"/><path d="m21.481714 16.507295v4h-7.989v-4z" fill="none" opacity=".5" stroke="#0f5a00" stroke-linecap="round" stroke-linejoin="round"/><path d="m16.992714 17.507286 3.489-.0073v2l-3.489.0073m.0073.000009-2.5-.0073v-2l2.5.0073" fill="none" opacity=".5" stroke="url(#n)"/></g><g transform="matrix(.86159974 0 0 .86159974 3.285686 3.110525)"><path d="m14.999984 11.580757c-.05244.01567-.08675.04907-.125.09375-.07653.08936-.11515.216835-.0625.3125l1.40625 2.65625c.125982.239363.04748.573495-.1875.90625-.237231.335907-.608047.688579-1.09375.96875-.485808.28024-.977944.437605-1.375.46875-.394711.03099-.717447-.07247-.84375-.3125l-1.40625-2.6875c-.03935-.07451-.100938-.118741-.1875-.125-.08652-.0061-.189081.02655-.25.09375-.03284.03499-.04982.0798-.0625.125-.351964 1.288231-.265359 2.739563.25 3.71875.703824 1.337255 2.271665 1.940224 3.84375 1.59375.627816.186403-.460557-1.026545.497159-.07386l4.887516.28125-.540925-1.082386c-.863354-.858809-1.28426-1.620936-1.5-2.21875.248089-.850827.189199-1.756137-.21875-2.53125-.51516-.97876-1.649372-1.810281-2.875-2.1875-.05255-.01719-.103808-.01567-.15625 0z" style="opacity:.4;fill:none;stroke:#000;stroke-width:2;stroke-linecap:round;stroke-linejoin:round;stroke-dashoffset:.3612"/><g enable-background="new" mask="url(#a)" transform="matrix(.8686611 0 0 .8704732 -253.90735 -98.906489)"><path d="m319.39329 139.2285-4.34206-4.35975c-.99389-.9866-1.50014-1.84777-1.7485-2.53454.2856-.97743.2328-2.00504-.23683-2.89549-.59305-1.1244-1.89986-2.08374-3.3108-2.51709-.12099-.0395-.25795.00092-.34601.10358-.0881.10266-.10892.24521-.0483.35511l1.61439 3.06837c.14503.27498.0466.64136-.22391 1.02363-.2731.38589-.71642.77909-1.27556 1.10095-.55926.32194-1.11244.50954-1.56953.54532-.45439.0356-.8053-.0744-.9507-.35014l-1.62416-3.08537c-.0453-.0856-.1291-.13927-.22875-.14646-.0996-.007-.20234.0334-.27247.1106h-.00001c-.0378.0402-.0658.0881-.0804.14003-.40518 1.47992-.31949 3.15578.27379 4.28067.81024 1.53624 2.61048 2.20625 4.42026 1.80822.72274.21414 1.6718.71421 2.77432 1.80865l3.29554 3.21095" style="fill-rule:evenodd;stroke-width:1.149998;stroke-linecap:round;stroke-linejoin:round;stroke-dashoffset:.3612;fill:url(#c);stroke:url(#d)"/><path d="m314.50598 1039.6243c.015.01.006.025 0 .025l1.80449 3.2089c.24343.4323.0678.9428-.22556 1.3681-.29634.4296-.75548.8457-1.35337 1.1692-.59917.3241-1.22764.4798-1.75437.4975-.52558.018-1.01891-.1313-1.25311-.5473l-1.8045-3.2337c-.0104 0-.0268 0-.0251 0 .0165-.018.003.013 0 .025-.33275 1.4234-.16017 3.0685.45113 4.1542.83618 1.485 2.58195 2.1944 4.31073 1.8905 1.72065-.3057 3.19191-1.7936 3.55886-3.2089.23171-.9167.13299-1.9018-.35088-2.7611-.60963-1.0827-1.95075-2.1023-3.35835-2.5871z" fill="url(#e)" fill-rule="evenodd" transform="translate(-5.083714 -912.59475)"/><path d="m310.21875 127.75 1.25 2.4375c.28894.54782.085 1.12046-.25 1.59375-.33855.47839-.8542.92749-1.46875 1.28125-.60688.34935-1.22432.57896-1.8125.625-.2801.0219-.5499-.002-.8125-.0937-.2626-.0921-.51362-.29205-.65625-.5625l-1.25-2.375c-.17286 1.16401-.0996 2.37485.3125 3.15625.68338 1.29573 2.17648 1.88419 3.78125 1.53125.0917-.0238.18952-.0238.28125 0 .82317.2439 1.87487.7896 3.03125 1.9375l4.03032 3.84651 2.65917-1.37343-4.65824-4.47313c-1.04139-1.03374-1.59436-1.97397-1.875-2.75-.0358-.11084-.0358-.23291 0-.34375.24916-.8527.1772-1.74925-.21875-2.5-.41054-.77836-1.32353-1.47359-2.34375-1.9375z" style="fill:none;stroke:#fff;stroke-width:.574999;stroke-linecap:round;stroke-linejoin:round;stroke-dashoffset:.3612"/><path d="m318.61464 140.71739-.12501.12501c-.34845.34845-1.18936.0686-1.88545-.6275l-4.17573-3.67032c-.69609-.69609-.97595-1.537-.6275-1.88546l.125-.125c.34846-.34845 1.18937-.0686 1.88546.6275l4.17573 3.67032c.69609.69609.97595 1.537.6275 1.88545z" fill-rule="evenodd" opacity=".08"/></g></g></svg>