<svg height="24" width="24" xmlns="http://www.w3.org/2000/svg" xmlns:xlink="http://www.w3.org/1999/xlink"><linearGradient id="a" gradientTransform="matrix(.87905913 0 0 1.0000035 13.576794 -16.671791)" gradientUnits="userSpaceOnUse" x1="5.03216" x2="5.03216" y1="27.671694" y2="29.671688"><stop offset="0" stop-color="#fff"/><stop offset=".00000017" stop-color="#fff" stop-opacity=".235294"/><stop offset="1" stop-color="#fff" stop-opacity=".392157"/></linearGradient><radialGradient id="b" cx="24.837126" cy="36.421127" gradientTransform="matrix(-.52995454 0 0 -.35307735 22.512547 21.835677)" gradientUnits="userSpaceOnUse" r="15.644737"><stop offset="0"/><stop offset="1" stop-opacity="0"/></radialGradient><linearGradient id="c" gradientTransform="matrix(-1 0 0 1 24.00036 1.000001)" gradientUnits="userSpaceOnUse" x1="12" x2="12" y1="4" y2="19.998161"><stop offset="0" stop-color="#9bdb4d"/><stop offset="1" stop-color="#68b723"/></linearGradient><linearGradient id="d" gradientTransform="matrix(1.004639 0 0 1 13.142957 -16.179629)" gradientUnits="userSpaceOnUse" x1="-2.521394" x2="-2.521394" y1="22.402153" y2="35.268829"><stop offset="0" stop-color="#fff"/><stop offset=".51999998" stop-color="#fff" stop-opacity=".235294"/><stop offset=".51999998" stop-color="#fff" stop-opacity=".156863"/><stop offset="1" stop-color="#fff" stop-opacity=".392157"/></linearGradient><linearGradient id="e" gradientTransform="matrix(-.61757188 0 0 1.1138815 24.135876 -20.026862)" gradientUnits="userSpaceOnUse" x1="35.836643" x2="35.836643" y1="23.365917" y2="34.139053"><stop offset="0" stop-color="#fff"/><stop offset="0" stop-color="#fff" stop-opacity=".235294"/><stop offset="1" stop-color="#fff" stop-opacity=".156863"/><stop offset="1" stop-color="#fff" stop-opacity=".392157"/></linearGradient><path d="m1.059 8.976195a8.2909995 5.5238047 0 1 1 16.581999 0 8.2909995 5.5238047 0 0 1 -16.581999 0z" fill="url(#b)" fill-rule="evenodd" opacity=".141176" transform="translate(3.939331 8.54761)"/><path d="m1 4.5c-.277 0-.5.2743112-.5.6152344v13.7695316c0 .340924.223.615234.5.615234h2c.277 0 .5-.27431.5-.615234v-13.7695316c0-.3409232-.223-.6152344-.5-.6152344zm10.966797.0136719v.0039062c-.162385 0-.29734.0644098-.394531.1679688-.0067.0074-.014405.0145143-.021485.0214843l-7.8925779 6.9492188c-.090901.09098-.1445312.214106-.1445312.349609 0 .134536.053632.250868.1445312.347657l7.8925779 6.949218c.0071.007.014835.014125.021485.021485.09719.103564.232145.167969.394531.167969.301717 0 .527344-.215493.527344-.50586v-3.988281c-.000189-.271008.237747-.498047.529297-.498047h7.976562c.285849 0 .5-.214151.5-.5v-4c0-.285849-.214151-.5-.5-.5h-8.025391c-.267637-.02501-.480646-.2410707-.480468-.4960938v-3.9902343c0-.290366-.225627-.5-.527344-.5z" fill="url(#c)" stroke="#206b00" stroke-linecap="round" stroke-linejoin="round" stroke-opacity=".5"/><g fill="none"><path d="m13.00036 13.500003h7.5v-3.000003h-7.5" opacity=".6" stroke="url(#a)" stroke-width=".999992"/><path d="m13.055604 13.494013c-.827238.000268-1.555336.670809-1.555604 1.498047v2.920565l-6.7393961-5.920565 6.7393961-5.938069v2.9479618c.000268.827238.728366 1.4977792 1.555604 1.4980472" opacity=".5" stroke="url(#d)"/><path d="m2.504 5.4959996h-1.008v13.0040004h1.008z" opacity=".5" stroke="url(#e)" stroke-width=".991996"/></g></svg>