<svg height="24" viewBox="0 0 6.3499999 6.3500002" width="24" xmlns="http://www.w3.org/2000/svg" xmlns:xlink="http://www.w3.org/1999/xlink"><radialGradient id="a" cx="2.25" cy="16" gradientTransform="matrix(.44260777 0 0 .09290084 11.004131 19.105071)" gradientUnits="userSpaceOnUse" r="16.875"><stop offset="0"/><stop offset="1" stop-opacity="0"/></radialGradient><linearGradient id="b" gradientTransform="matrix(.75062376 .75062376 -.75062369 .75062369 11.927124 -3.684392)" gradientUnits="userSpaceOnUse" x1="4.328731" x2="17.54648" y1="4.891368" y2="18.511118"><stop offset="0" stop-color="#cd9ef7"/><stop offset="1" stop-color="#a56de2"/></linearGradient><linearGradient id="c" gradientTransform="matrix(.17199894 .17199894 -.24844291 .24844291 14.457535 -3.760168)" gradientUnits="userSpaceOnUse" x1="18.39702" x2="66.474319" y1="19.50786" y2="51.131088"><stop offset="0" stop-color="#fff"/><stop offset=".05504374" stop-color="#fff" stop-opacity=".235294"/><stop offset=".61538464" stop-color="#fff"/><stop offset=".76923078" stop-color="#fff" stop-opacity=".172549"/><stop offset=".88550609" stop-color="#fff" stop-opacity=".164706"/><stop offset="1" stop-color="#fff" stop-opacity=".156863"/><stop offset="1" stop-color="#fff" stop-opacity=".392157"/></linearGradient><g transform="scale(.26458333)"><ellipse cx="12" cy="20.591486" display="block" fill="url(#a)" fill-rule="evenodd" opacity=".420333" rx="7.469006" ry="1.567703"/><g stroke-linejoin="round"><path d="m18.685966 6.7382956-5.261703 5.2617024 5.261703 5.261704a8.5148873 8.5148873 0 0 0 0-10.5234064zm-1.427049-1.421477a8.5148873 8.5148873 0 0 0 -10.5178384-.0000045l5.2589214 5.2589219zm-11.9448832 1.4214766a8.5148873 8.5148873 0 0 0 .0000001 10.5234068l5.2617031-5.261704zm6.6859662 6.6859658-5.2589214 5.258922a8.5148873 8.5148873 0 0 0 10.5178424 0z" fill="url(#b)" fill-rule="evenodd" stroke="#7239b3" stroke-opacity=".501961"/><path d="m15.658449 5.5131229a7.4481597 7.4481592 45 0 0 -7.3113737.00552l3.6529247 3.6529287zm2.822904 2.8339496-3.652926 3.6529265 3.651543 3.651543a7.4481597 7.4481592 45 0 0 .0014-7.3044678zm-12.9613236.00138a7.4481597 7.4481592 45 0 0 -.00138 7.3044685l3.6529236-3.652922zm6.4799706 6.4799735-3.6584488 3.658448a7.4481597 7.4481592 45 0 0 7.3113738-.0055z" fill="none" opacity=".5" stroke="url(#c)"/></g></g></svg>