<svg height="24" width="24" xmlns="http://www.w3.org/2000/svg" xmlns:xlink="http://www.w3.org/1999/xlink"><linearGradient id="a" gradientUnits="userSpaceOnUse" x1="11.001243" x2="11.001243" xlink:href="#b" y1="2.268861" y2="19.728327"/><linearGradient id="b"><stop offset="0" stop-color="#fff"/><stop offset=".06316455" stop-color="#fff" stop-opacity=".235294"/><stop offset=".95056331" stop-color="#fff" stop-opacity=".156863"/><stop offset="1" stop-color="#fff" stop-opacity=".392157"/></linearGradient><linearGradient id="c" gradientUnits="userSpaceOnUse" x1="1.571521" x2="22.389223" y1="-4.607497" y2="26"><stop offset="0" stop-color="#cdf87e"/><stop offset=".26238" stop-color="#a2e34f"/><stop offset=".66093999" stop-color="#68b723"/><stop offset="1" stop-color="#1d7e0d"/></linearGradient><linearGradient id="d" gradientTransform="matrix(.47619048 0 0 .25 .095239 2.999819)" gradientUnits="userSpaceOnUse" x1="23.954144" x2="23.954144" y1="15.999304" y2="19.963179"><stop offset="0"/><stop offset="1" stop-opacity="0"/></linearGradient><linearGradient id="e" gradientTransform="matrix(.48483606 0 0 .5270602 -.165352 -.400235)" gradientUnits="userSpaceOnUse" x1="23.99999" x2="23.99999" xlink:href="#b" y1="4.999989" y2="43"/><linearGradient id="f" gradientTransform="matrix(.44576989 0 0 .44993664 .801525 -.024539)" gradientUnits="userSpaceOnUse" x1="25.132275" x2="25.132275" y1="15.499894" y2="48.395687"><stop offset="0" stop-color="#fafafa"/><stop offset="1" stop-color="#e2e1de"/></linearGradient><linearGradient id="g" gradientTransform="matrix(0 -1 1 0 .000182 24.000001)" gradientUnits="userSpaceOnUse" x1="11.001243" x2="11.001243" xlink:href="#b" y1="2.268861" y2="19.728327"/><rect fill="url(#f)" height="20" rx=".527778" ry=".555556" width="19" x="2.000001" y="1.999818"/><path d="m7 2.498774 13.440184-.000182v19.501226l-13.440184.000182z" fill="none" stroke="url(#e)" stroke-linecap="round" stroke-linejoin="round" stroke-width="1.100222"/><path d="m2 6.999818h20.000001v1h-20.000001z" fill="url(#d)" opacity=".15"/><path d="m21 6.1640625v15.2988285c0 .305795-.231314.537109-.537109.537109h-13.462891v1h13.462891c.842497 0 1.537109-.694612 1.537109-1.537109v-15.2988285z" opacity=".3"/><path d="m2.5371094 1.5c-.574145 0-1.0371094.4629634-1.0371094 1.0371094v3.9628906s-.084746 10.668543-.084746 14.996789c-.0000001.574144.3867026 1.04055.960838 1.037109l4.623908-.050847v-15.483051h14.5v-4.4628906c0-.574146-.462964-1.0371094-1.037109-1.0371094z" fill="url(#c)"/><path d="m2.5371094 1c-.842497 0-1.5371094.6946124-1.5371094 1.5371094v18.9257816c0 .842929.6941798 1.537109 1.5371094 1.537109h4.4628906v-1h-4.4628906c-.3053625 0-.5371094-.231747-.5371094-.537109v-14.462891h20v-4.4628906c0-.842497-.694612-1.5371094-1.537109-1.5371094zm0 1h17.9257816c.305795 0 .537109.2313144.537109.5371094v3.4628906h-19v-3.4628906c0-.305795.2313144-.5371094.5371094-.5371094z" fill="#126400" opacity=".4"/><path d="m2.500001 2.499818v3h18v-3z" fill="none" opacity=".5" stroke="url(#a)" stroke-linecap="round" stroke-linejoin="round"/><path d="m11.000001 7h1v14.999818h-1z" opacity=".321"/><path d="m16.000002 7h1v14.999818h-1z" opacity=".321"/><path d="m1.5169502 9.999818h4.4830508v1h-4.4830508z" fill="#126400" opacity=".321"/><path d="m7.000001 9.999818h4v1h-4z" opacity=".321"/><path d="m12.000001 9.999818h4v1h-4z" opacity=".321"/><path d="m17.000002 9.999818h4v1h-4z" opacity=".321"/><path d="m1.5169502 13.999818h4.4830508v1h-4.4830508z" fill="#126400" opacity=".321"/><path d="m6.000001 7h1v14.999818h-1z" fill="#126400" opacity=".4"/><path d="m7.000001 13.999818h4v1h-4z" opacity=".321"/><path d="m12.000001 13.999818h4v1h-4z" opacity=".321"/><path d="m17.000002 13.999818h4v1h-4z" opacity=".321"/><path d="m1.5169502 17.999819h4.4830508v1h-4.4830508z" fill="#126400" opacity=".321"/><path d="m7.000001 17.999819h4v1h-4z" opacity=".321"/><path d="m12.000001 17.999819h4v1h-4z" opacity=".321"/><path d="m17.000002 17.999819h4v1h-4z" opacity=".321"/><g fill="#126400"><path d="m6.000001 1.999818h1v4.000182h-1z" opacity=".4"/><path d="m11.000001 1.999818h1v4.000182h-1z" opacity=".4"/><path d="m16.000002 1.999818h1v4.000182h-1z" opacity=".4"/></g><path d="m2.5 21.5h3v-18.940678h-3z" fill="none" opacity=".5" stroke="url(#g)" stroke-linecap="round" stroke-linejoin="round"/></svg>