<svg viewBox="0 0 24 24" xmlns="http://www.w3.org/2000/svg" xmlns:xlink="http://www.w3.org/1999/xlink"><linearGradient id="a" gradientTransform="matrix(.25378586 0 0 .30501865 19.128979 -.685477)" gradientUnits="userSpaceOnUse" x1="12.414942" x2="10.010673" y1="72.34446" y2="17.002817"><stop offset="0" stop-opacity=".339506"/><stop offset="1" stop-opacity=".246914"/></linearGradient><linearGradient id="b" gradientTransform="matrix(.24324324 0 0 .35135133 2.162164 -.432428)" gradientUnits="userSpaceOnUse" x1="24.668207" x2="25.555088" y1="19.50786" y2="55.634956"><stop offset="0" stop-color="#fff"/><stop offset=".08404884" stop-color="#fff" stop-opacity=".235294"/><stop offset=".61538464" stop-color="#fff"/><stop offset=".76923078" stop-color="#fff" stop-opacity=".172549"/><stop offset=".88550609" stop-color="#fff" stop-opacity=".164706"/><stop offset="1" stop-color="#fff" stop-opacity=".156863"/><stop offset="1" stop-color="#fff" stop-opacity=".392157"/></linearGradient><radialGradient id="c" cx="2.25" cy="16" gradientTransform="matrix(.44260777 0 0 .09290084 10.371482 19.105071)" gradientUnits="userSpaceOnUse" r="16.875"><stop offset="0"/><stop offset="1" stop-opacity="0"/></radialGradient><linearGradient id="d" gradientTransform="matrix(1.0540526 0 0 1.0540525 .505087 1.488309)" gradientUnits="userSpaceOnUse" x1="17.54648" x2="17.54648" y1="2.38289" y2="18.511118"><stop offset="0" stop-color="#f4f4f4"/><stop offset="1" stop-color="#dbdbdb"/></linearGradient><ellipse cx="11.367351" cy="20.591486" display="block" fill="url(#c)" fill-rule="evenodd" opacity=".420333" rx="7.469006" ry="1.567703"/><g stroke-linejoin="round"><path d="m12.568545 4.0607604v7.3886716h7.388672a8.4548111 8.4548111 0 0 0 -7.388672-7.3886716zm-2 .00391a8.4548111 8.4548111 0 0 0 -7.3847656 7.3847616h7.3847656zm-7.3886719 9.3847616a8.4548111 8.4548111 0 0 0 7.3886719 7.388672v-7.388672zm9.3886719 0v7.384766a8.4548111 8.4548111 0 0 0 7.384766-7.384766z" fill="url(#d)" fill-rule="evenodd" stroke="url(#a)" stroke-width="1.090377"/><path d="m9.568545 5.2756042a7.4481597 7.4481592 0 0 0 -5.1660156 5.1738278h5.1660156zm4 .00781v5.1660178h5.164062a7.4481597 7.4481592 0 0 0 -5.164062-5.1660153zm-9.1640625 9.1660178a7.4481597 7.4481592 0 0 0 5.1640625 5.166016v-5.166016zm9.1640625 0v5.173828a7.4481597 7.4481592 0 0 0 5.166016-5.173828z" fill="none" stroke="url(#b)" stroke-width="1.103681"/></g></svg>