<svg height="24" width="24" xmlns="http://www.w3.org/2000/svg" xmlns:xlink="http://www.w3.org/1999/xlink"><linearGradient id="a"><stop offset="0" stop-opacity=".119318"/><stop offset="1" stop-opacity="0"/></linearGradient><linearGradient id="b" gradientTransform="matrix(1.001575 0 0 1 .492156 -.003298)" gradientUnits="userSpaceOnUse" x1="10.769515" x2="15.923767" y1="8.71965" y2="15.039417"><stop offset="0" stop-color="#eeeeec"/><stop offset="1" stop-color="#e0e0de"/></linearGradient><linearGradient id="c" gradientUnits="userSpaceOnUse" x1="4.240236" x2="19" xlink:href="#a" y1="7.850864" y2="10.496701"/><radialGradient id="d" cx="5.780028" cy="8.449767" gradientTransform="matrix(0 .89892574 -.95095622 -.00000002 649.0354 -150.01468)" gradientUnits="userSpaceOnUse" r="19.99999"><stop offset="0" stop-color="#90dbec"/><stop offset=".26238" stop-color="#55c1ec"/><stop offset=".704952" stop-color="#3689e6"/><stop offset="1" stop-color="#2b63a0"/></radialGradient><linearGradient id="e" gradientTransform="matrix(.38465107 0 0 .38465106 631.76837 -145.23163)" gradientUnits="userSpaceOnUse" x1="24" x2="24" y1="44" y2="3.899002"><stop offset="0" stop-color="#185f9a"/><stop offset="1" stop-color="#599ec9"/></linearGradient><linearGradient id="f" gradientUnits="userSpaceOnUse" x1="640.814095" x2="640.814095" y1="-142.717726" y2="-129.330102"><stop offset="0" stop-color="#fff"/><stop offset=".507761" stop-color="#fff" stop-opacity=".235294"/><stop offset=".83456558" stop-color="#fff" stop-opacity=".156863"/><stop offset="1" stop-color="#fff" stop-opacity=".392157"/></linearGradient><radialGradient id="g" cx="22.571428" cy="30.857143" gradientTransform="matrix(.48623843 0 0 .13549598 .024905 14.928848)" gradientUnits="userSpaceOnUse" r="15.571428" xlink:href="#a"/><g transform="translate(0 2)"><ellipse cx="11" cy="19.109867" fill="url(#g)" rx="7.571426" ry="2.890133"/><path d="m2.5000001 2.4967009h16.9999999v2.9840962l-7 6.0160999v7.003103h-2.9999999v-7.003889l-7-5.9835063z" fill="url(#b)" fill-rule="evenodd" stroke="#888a85"/><path d="m3.5000001 3.4967009h14.9999999v1.5l-7 6.0000001v6.5h-1v-6.5l-6.9999999-6.0000001z" fill="url(#c)" fill-rule="evenodd" opacity=".7" stroke="#fdfdfb"/><g transform="matrix(.68799611 0 0 .68726902 -423.50154 108.97043)"><path d="m641-143.5c-4.13824 0-7.5 3.36176-7.5 7.5s3.36176 7.5 7.5 7.5 7.5-3.36176 7.5-7.5-3.36176-7.5-7.5-7.5z" fill="url(#d)" stroke="url(#e)" stroke-linecap="round" stroke-linejoin="round"/><path d="m647.5-136.00023c0 3.58997-2.91036 6.50023-6.49992 6.50023-3.58988 0-6.50008-2.9103-6.50008-6.50023 0-3.5898 2.9102-6.49977 6.50008-6.49977 3.58956 0 6.49992 2.90997 6.49992 6.49977l0 0z" fill="none" opacity=".5" stroke="url(#f)" stroke-linecap="round" stroke-linejoin="round"/><path d="m13.21875 3.40625a2.0402886 2.0402886 0 0 0 -.09375.09375l-4.1875 4.5625-1.5-1.5a2.0402886 2.0402886 0 0 0 -2.875 0l-2 2a2.0402886 2.0402886 0 0 0 -.53125.875 2.0402886 2.0402886 0 0 0 0 .0625c.041073.581606.1379501 1.153759.3125 1.6875a2.0402886 2.0402886 0 0 0  .375.40625l5 4a2.0402886 2.0402886 0 0 0  .71875.375c.020551.0016.041899-.0015.0625 0a2.0402886 2.0402886 0 0 0  .125.03125c.1241935.0066.2491729 0 .375 0 .178711 0 .3559046-.01809.53125-.03125a2.0402886 2.0402886 0 0 0  .96875-.59375l5.46875-5.875c.01167-.1652555.03125-.3317746.03125-.5 0-2.2785514-1.095693-4.3155215-2.78125-5.59375z" fill="#185f9a" opacity=".1" transform="translate(632 -145)"/><path d="m14.03125 4.15625a.94895148.94895148 0 0 0 -.09375.0625l-4.96875 5.4375-2.3125-2.3125a.94895148.94895148 0 0 0 -1.3125 0l-2 2a .94895148.94895148 0 0 0  .0625 1.40625l5 4a .94895148.94895148 0 0 0 1.28125-.09375l6.21875-6.6875c-.218501-1.473701-.888095-2.7885095-1.875-3.8125z" fill="#185f9a" opacity=".25" transform="translate(632 -145)"/><path d="m646.625-140.125-5.625 6.125-3-3-2 2 5 4 6.65625-7.15625z" fill="#fff"/></g></g></svg>