<svg height="24" width="24" xmlns="http://www.w3.org/2000/svg" xmlns:xlink="http://www.w3.org/1999/xlink"><linearGradient id="a" gradientUnits="userSpaceOnUse" x1="5.980485" x2="6.336418" y1="13.64863" y2="23.140155"><stop offset="0" stop-color="#f4f4f4"/><stop offset="1" stop-color="#dbdbdb"/></linearGradient><linearGradient id="b" gradientTransform="translate(-.375437 8.123209)" gradientUnits="userSpaceOnUse" x1="1.49999" x2="1.49999" xlink:href="#c" y1="14.499996" y2="5.499999"/><linearGradient id="c" gradientTransform="matrix(.25378586 0 0 .30501865 19.128979 -.685477)" gradientUnits="userSpaceOnUse" x1="-51.786404" x2="-51.786404" y1="50.786446" y2="2.906247"><stop offset="0" stop-opacity=".339506"/><stop offset="1" stop-opacity=".246914"/></linearGradient><linearGradient id="d" gradientTransform="translate(-.375437 8.123209)" gradientUnits="userSpaceOnUse" x1="5.525419" x2="5.644064" xlink:href="#e" y1="6.81356" y2="12.711864"/><linearGradient id="e" gradientTransform="matrix(.24324324 0 0 .35135133 2.162164 -.432428)" gradientUnits="userSpaceOnUse" x1="23.99999" x2="23.99999" y1="6.923065" y2="41.076912"><stop offset="0" stop-color="#fff"/><stop offset=".15819207" stop-color="#fff" stop-opacity=".235294"/><stop offset="1" stop-color="#fff" stop-opacity=".156863"/><stop offset="1" stop-color="#fff" stop-opacity=".392157"/></linearGradient><linearGradient id="f" gradientTransform="matrix(1.1929898 0 0 1.1929898 -1.616306 7.03505)" gradientUnits="userSpaceOnUse" x1="8.972248" x2="9.000847" xlink:href="#c" y1="9.554251" y2=".15812"/><linearGradient id="g" gradientTransform="matrix(1.3079343 0 0 1.3079343 -2.880693 6.460329)" gradientUnits="userSpaceOnUse" x1="11.314546" x2="11.596296" xlink:href="#e" y1="2.315393" y2="7.636671"/><g transform="matrix(1.33333 0 0 1.33333 1 -9.66664)"><g stroke-miterlimit="0" stroke-width=".750002" transform="translate(0 .750002)"><path d="m1.1245534 13.623208h9.7457616v8.999997h-9.7457616z" fill="url(#a)" stroke="url(#b)" stroke-linejoin="round"/><path d="m1.8781411 14.368972h8.2337059l.0217 7.523896h-8.2337053z" fill="none" stroke="url(#d)"/></g><path d="m-.75000188 23.750002 1.50000376.000076v1.500002h-1.50000376z" fill="#555753" stroke-width="2"/><g stroke-linejoin="round" stroke-miterlimit="0" stroke-width=".750002" transform="translate(-.750002 .750002)"><path d="m16.875042 13.000003a5.3684559 5.3684577 0 1 1 -10.7369113 0 5.3684559 5.3684577 0 1 1 10.7369113 0z" fill="#e9e9e9" stroke="url(#f)"/><path d="m16.08435 13.000001a4.5777706 4.5777716 0 1 1 -9.1555411 0 4.5777706 4.5777716 0 1 1 9.1555411 0z" fill="none" stroke="url(#g)"/></g><g fill="#555753" stroke-width="2"><path d="m15.750039 23.749965 1.500004.000076v1.500002h-1.500004z"/><path d="m15.750039 7.2499221 1.500004.000076v1.500002h-1.500004z"/><path d="m-.75000212 7.2499239 1.500004.000076v1.500002h-1.500004z"/></g></g></svg>