<svg viewBox="0 0 24 24" xmlns="http://www.w3.org/2000/svg" xmlns:xlink="http://www.w3.org/1999/xlink"><linearGradient id="a" gradientTransform="matrix(.25378586 0 0 .30501865 19.128979 -.685477)" gradientUnits="userSpaceOnUse" x1="-25.801424" x2="-25.057144" y1="70.539429" y2="13.641807"><stop offset="0" stop-opacity=".339506"/><stop offset="1" stop-opacity=".246914"/></linearGradient><linearGradient id="b" gradientTransform="matrix(.28571361 0 0 .30419701 -18.857127 3.232605)" gradientUnits="userSpaceOnUse" x1="72.692543" x2="73.158905" y1="1.217758" y2="58.215126"><stop offset="0" stop-color="#f4f4f4"/><stop offset="1" stop-color="#dbdbdb"/></linearGradient><linearGradient id="c" gradientTransform="matrix(.24324324 0 0 .35135133 2.162164 -.432428)" gradientUnits="userSpaceOnUse" x1="8.44344" x2="8.764427" y1="15.233228" y2="54.98378"><stop offset="0" stop-color="#fff"/><stop offset=".03934082" stop-color="#fff" stop-opacity=".235294"/><stop offset="1" stop-color="#fff" stop-opacity=".156863"/><stop offset="1" stop-color="#fff" stop-opacity=".392157"/></linearGradient><radialGradient id="d" cx="605.71429" cy="486.64789" gradientTransform="matrix(.01204859 0 0 .0082353 4.238793 16.980479)" gradientUnits="userSpaceOnUse" r="117.14286" xlink:href="#e"/><linearGradient id="e"><stop offset="0"/><stop offset="1" stop-opacity="0"/></linearGradient><radialGradient id="f" cx="605.71429" cy="486.64789" gradientTransform="matrix(-.01204859 0 0 .0082353 10.761206 16.980588)" gradientUnits="userSpaceOnUse" r="117.14286" xlink:href="#e"/><linearGradient id="g" gradientTransform="matrix(.01656805 0 0 .0082353 1.511834 16.980547)" gradientUnits="userSpaceOnUse" x1="302.85715" x2="302.85715" y1="366.64789" y2="609.50507"><stop offset="0" stop-opacity="0"/><stop offset=".5"/><stop offset="1" stop-opacity="0"/></linearGradient><path d="m3.5 20h8v2h-8z" fill="url(#g)" opacity=".15" stroke-width=".685994"/><path d="m3.5 20.000109v1.999891c-.6204724.0038-1.4999999-.448075-1.4999999-1.000075 0-.551999.6924-.999816 1.4999999-.999816z" fill="url(#f)" opacity=".15"/><path d="m11.5 20v1.999891c.620472.0038 1.5-.448075 1.5-1.000075 0-.551999-.692402-.999816-1.5-.999816z" fill="url(#d)" opacity=".15"/><path d="m3.5289286 20.471071v-16.9421421h7.9421424v16.9421421z" fill="url(#b)" stroke="url(#a)" stroke-linecap="round" stroke-linejoin="round" stroke-width="1.057858"/><path d="m4.5268043 19.469474v-14.9389475h5.9463907v14.9389475z" fill="none" stroke="url(#c)" stroke-width="1.060826"/><g fill="#fcaf3e" stroke="#ce5c00"><path d="m17.2102 20.503364-3-3h6z"/><path d="m17.2102 3.4966359-3 3h6z"/></g></svg>