<svg viewBox="0 0 24 24" xmlns="http://www.w3.org/2000/svg" xmlns:xlink="http://www.w3.org/1999/xlink"><linearGradient id="a" gradientTransform="matrix(-.00816381 1.5058602 -1.5421789 -.00836067 -1.939273 -26.637832)" gradientUnits="userSpaceOnUse" x1="19.301006" x2="36.23402" y1="-8.757121" y2="-8.906282"><stop offset="0" stop-color="#fff394"/><stop offset=".26238" stop-color="#ffe16b"/><stop offset=".66093999" stop-color="#f9c440"/><stop offset="1" stop-color="#d48e15"/></linearGradient><linearGradient id="b" gradientUnits="userSpaceOnUse" x1="12" x2="12" y1="9" y2="15"><stop offset="0" stop-color="#fff"/><stop offset=".33380178" stop-color="#fff" stop-opacity=".235294"/><stop offset=".67927718" stop-color="#fff" stop-opacity=".156863"/><stop offset="1" stop-color="#fff" stop-opacity=".5"/></linearGradient><path d="m11.730469 2.5c-.127609 0-.230469.0828369-.230469.1855469v1.6289062c0 .10271.10286.1855469.230469.1855469h.539062c.127609 0 .230469-.0828369.230469-.1855469v-1.6289062c0-.10271-.10286-.1855469-.230469-.1855469zm-6.1035159 2.515625c-.0531844.0057404-.1091802.0310553-.1542969.0761719l-.3808593.3808593c-.0902332.0902333-.1038769.222295-.03125.2949219l1.1523437 1.1523438c.072627.072627.2027357.0570309.2929688-.0332031l.3808594-.3808594c.0902331-.0902331.10583-.2203419.0332031-.2929688l-1.1523438-1.1523437c-.0363134-.0363135-.0874406-.0506623-.140625-.0449219zm12.7460939 0c-.053185-.0057405-.104312.0086086-.140625.0449219l-1.152344 1.1523437c-.07263.072627-.057027.2027354.033203.2929688l.38086.3808594c.09023.0902329.220341.1058297.292968.0332031l1.152344-1.1523438c.07263-.072627.05899-.2046885-.03125-.2949219l-.380859-.3808593c-.045115-.0451165-.101112-.0704314-.154297-.0761719zm-6.373047.984375a6 6 0 0 0 -6 6 6 6 0 0 0 6 6 6 6 0 0 0 6-6 6 6 0 0 0 -6-6zm-9.3144531 5.5c-.10271 0-.1855469.10286-.1855469.230469v.539062c0 .127609.0828369.230469.1855469.230469h1.6289062c.10271 0 .1855469-.10286.1855469-.230469v-.539062c0-.127609-.0828369-.230469-.1855469-.230469zm17.0000001 0c-.10271 0-.185547.10286-.185547.230469v.539062c0 .127609.082837.230469.185547.230469h1.628906c.10271 0 .185547-.10286.185547-.230469v-.539062c0-.127609-.082837-.230469-.185547-.230469zm-13.3339845 5.535156c-.0531852-.005741-.1023598.008612-.1386719.044922l-1.1523437 1.152344c-.07263.07263-.05898.204688.03125.294922l.3808593.380859c.0902301.09023.2222971.10388.2949219.03125l1.1523438-1.152344c.07263-.07263.0570368-.202734-.0332031-.292968l-.3808594-.38086c-.045115-.045115-.1011117-.072383-.1542969-.078125zm11.2968755 0c-.053185.005741-.109181.033005-.154297.078125l-.38086.38086c-.09023.09023-.105825.220341-.033203.292968l1.152344 1.152344c.07263.07263.204689.05898.294922-.03125l.380859-.380859c.09023-.09023.103881-.222295.03125-.294922l-1.152344-1.152344c-.036315-.036315-.085487-.050663-.138671-.044922zm-5.917969 2.464844c-.127609 0-.230469.082837-.230469.185547v1.628906c0 .10271.10286.185547.230469.185547h.539062c.127609 0 .230469-.082837.230469-.185547v-1.628906c0-.10271-.10286-.185547-.230469-.185547z" fill="url(#a)" stroke="#ad5f00" stroke-opacity=".501961"/><path d="m16.99415 12.026996a5.0213881 4.9728718 0 0 1 -5.021388 4.972871 5.0213881 4.9728718 0 0 1 -5.0213879-4.972871 5.0213881 4.9728718 0 0 1 5.0213879-4.9728721 5.0213881 4.9728718 0 0 1 5.021388 4.9728721z" style="stroke-width:.934745;stroke-linecap:round;fill:none;opacity:.5;stroke-linejoin:round;stroke:url(#b)"/></svg>