<svg height="24" width="24" xmlns="http://www.w3.org/2000/svg" xmlns:xlink="http://www.w3.org/1999/xlink"><clipPath id="a"><path d="m13.5 1.0000002-3.6862745 21.9999998h-8.8137255v-21.9999998z"/></clipPath><linearGradient id="b" gradientTransform="matrix(.44576989 0 0 .44993664 .801525 -.024539)" gradientUnits="userSpaceOnUse" x1="25.132275" x2="25.132275" y1="15.499894" y2="48.395687"><stop offset="0" stop-color="#fafafa"/><stop offset="1" stop-color="#e2e1de"/></linearGradient><linearGradient id="c" gradientUnits="userSpaceOnUse" x1="11.001243" x2="11.001243" y1="2.268861" y2="19.728326"><stop offset="0" stop-color="#fff"/><stop offset=".06316455" stop-color="#fff" stop-opacity=".235294"/><stop offset=".95056331" stop-color="#fff" stop-opacity=".156863"/><stop offset="1" stop-color="#fff" stop-opacity=".392157"/></linearGradient><g clip-path="url(#a)"><rect fill="url(#b)" height="20" rx=".527778" ry=".555556" width="19" x="2.000001" y="1.999818"/><g fill="none"><path d="m2.50125 2.498592h17.938934l-.00125 19.001408h-17.938934z"/><path d="m2.5371094 1.5c-.574146 0-1.0371094.4629634-1.0371094 1.0371094v3.6269531 11.6718755 3.626953c0 .574146.4629634 1.037109 1.0371094 1.037109h17.9257816c.574146 0 1.037109-.462963 1.037109-1.037109v-3.626953-11.6718755-3.6269531c0-.574146-.462963-1.0371094-1.037109-1.0371094z" opacity=".3" stroke="#000"/><path d="m2.500001 2.499818-.000001 19.000182h18l.000001-19.000182z" opacity=".5" stroke="url(#c)" stroke-linecap="round" stroke-linejoin="round"/></g><path d="m6.000001 7h1v14.999818h-1z" opacity=".321"/><path d="m11.000001 7h1v14.999818h-1z" opacity=".321"/><path d="m16.000002 7h1v14.999818h-1z" opacity=".321"/><path d="m2.000001 9.999818h4v1h-4z" opacity=".321"/><path d="m7.000001 9.999818h4v1h-4z" opacity=".321"/><path d="m12.000001 9.999818h4v1h-4z" opacity=".321"/><path d="m17.000002 9.999818h4v1h-4z" opacity=".321"/><path d="m2.000001 13.999818h4v1h-4z" opacity=".321"/><path d="m7.000001 13.999818h4v1h-4z" opacity=".321"/><path d="m12.000001 13.999818h4v1h-4z" opacity=".321"/><path d="m17.000002 13.999818h4v1h-4z" opacity=".321"/><path d="m2.000001 17.999819h4v1h-4z" opacity=".321"/><path d="m7.000001 17.999819h4v1h-4z" opacity=".321"/><path d="m12.000001 17.999819h4v1h-4z" opacity=".321"/><path d="m17.000002 17.999819h4v1h-4z" opacity=".321"/><g fill="#3a3a3a"><path d="m6.000001 1.999818h1l-.000002 5.000182h-1z" opacity=".4"/><path d="m11.000001 1.999818h1l-.000002 5.000182h-1z" opacity=".4"/><path d="m16.000002 1.999818h1l-.000002 5.000182h-1z" opacity=".4"/></g><path d="m2 6h4v1h-4z" opacity=".321"/><path d="m7 6h4v1h-4z" opacity=".321"/><path d="m12 6h4v1h-4z" opacity=".321"/><path d="m17.000001 6h4v1h-4z" opacity=".321"/><g transform="matrix(0 1 -1 0 21.000002 -.000182)"><path d="m2 10h20v4.000001h-20z" fill="#f37329"/><g fill="#cc3b02"><path d="m2 9c-.554 0-1 .446-1 1v4c0 .554.446 1 1 1l20 .000001c.554 0 1-.446 1-1v-4c0-.554-.446-1-1-1zm0 1 20 .000001v4l-20-.000001z"/><path d="m6.000182 10.000002h.999819v3.999815h-.999819z"/><path d="m10 10.000001h1v4.000001h-1z"/><path d="m14 10.000001h1v4.000001h-1z"/><path d="m18.000002 10.000001h1v4.000001h-1z"/></g></g></g><g opacity=".5"><rect fill="url(#b)" height="20" rx=".527778" ry=".555556" width="19" x="2.000001" y="1.999818"/><g fill="none"><path d="m2.50125 2.498592h17.938934l-.00125 19.001408h-17.938934z"/><path d="m2.5371094 1.5c-.574146 0-1.0371094.4629634-1.0371094 1.0371094v3.6269531 11.6718755 3.626953c0 .574146.4629634 1.037109 1.0371094 1.037109h17.9257816c.574146 0 1.037109-.462963 1.037109-1.037109v-3.626953-11.6718755-3.6269531c0-.574146-.462963-1.0371094-1.037109-1.0371094z" opacity=".3" stroke="#000"/><path d="m2.500001 2.499818-.000001 19.000182h18l.000001-19.000182z" opacity=".5" stroke="url(#c)" stroke-linecap="round" stroke-linejoin="round"/></g><path d="m6.000001 7h1v14.999818h-1z" opacity=".321"/><path d="m11.000001 7h1v14.999818h-1z" opacity=".321"/><path d="m16.000002 7h1v14.999818h-1z" opacity=".321"/><path d="m2.000001 9.999818h4v1h-4z" opacity=".321"/><path d="m7.000001 9.999818h4v1h-4z" opacity=".321"/><path d="m12.000001 9.999818h4v1h-4z" opacity=".321"/><path d="m17.000002 9.999818h4v1h-4z" opacity=".321"/><path d="m2.000001 13.999818h4v1h-4z" opacity=".321"/><path d="m7.000001 13.999818h4v1h-4z" opacity=".321"/><path d="m12.000001 13.999818h4v1h-4z" opacity=".321"/><path d="m17.000002 13.999818h4v1h-4z" opacity=".321"/><path d="m2.000001 17.999819h4v1h-4z" opacity=".321"/><path d="m7.000001 17.999819h4v1h-4z" opacity=".321"/><path d="m12.000001 17.999819h4v1h-4z" opacity=".321"/><path d="m17.000002 17.999819h4v1h-4z" opacity=".321"/><g fill="#3a3a3a"><path d="m6.000001 1.999818h1l-.000002 5.000182h-1z" opacity=".4"/><path d="m11.000001 1.999818h1l-.000002 5.000182h-1z" opacity=".4"/><path d="m16.000002 1.999818h1l-.000002 5.000182h-1z" opacity=".4"/></g><path d="m2 6h4v1h-4z" opacity=".321"/><path d="m7 6h4v1h-4z" opacity=".321"/><path d="m12 6h4v1h-4z" opacity=".321"/><path d="m17.000001 6h4v1h-4z" opacity=".321"/><g transform="matrix(0 1 -1 0 21.000002 -.000182)"><path d="m2 10h20v4.000001h-20z" fill="#f37329"/><g fill="#cc3b02"><path d="m2 9c-.554 0-1 .446-1 1v4c0 .554.446 1 1 1l20 .000001c.554 0 1-.446 1-1v-4c0-.554-.446-1-1-1zm0 1 20 .000001v4l-20-.000001z"/><path d="m6.000182 10.000002h.999819v3.999815h-.999819z" opacity="1"/><path d="m10 10.000001h1v4.000001h-1z" opacity="1"/><path d="m14 10.000001h1v4.000001h-1z" opacity="1"/><path d="m18.000002 10.000001h1v4.000001h-1z" opacity="1"/></g></g></g><path d="m13.5.50000021-3.6862745 22.49999979" fill="none" stroke="#757575" stroke-linecap="round" stroke-linejoin="round"/></svg>