<svg viewBox="0 0 24 24" xmlns="http://www.w3.org/2000/svg" xmlns:xlink="http://www.w3.org/1999/xlink"><linearGradient id="a" gradientTransform="matrix(.96727255 0 0 .9672726 38.257302 -.032018)" gradientUnits="userSpaceOnUse" x1="-26.930492" x2="-36" y1="16.292387" y2="6"><stop offset="0" stop-color="#1f1f1f"/><stop offset="1" stop-color="#5c5c5c"/></linearGradient><path d="m13.991609 18.06797h-2.701369v-5.516389h-5.0617898v5.516389h-2.7101118v-12.7812367h2.7101118v5.0093357h5.0617898v-5.0093357h2.701369z" style="stroke:#000;stroke-width:.967;stroke-linejoin:round;stroke-linecap:round;fill:url(#a);opacity:.66" transform="scale(.98294772 1.0173481)"/><path d="m22.6936 11.100284q0 .857336-.519407 1.458096-.519408.600761-1.458096.826046v.03755q1.107652.137675 1.677123.675856.569471.531923.569471 1.439322 0 1.320422-.957462 2.058856-.957462.732177-2.734712.732177-1.489386 0-2.640843-.494376v-1.645833q.531923.269091 1.170231.438054.638308.168964 1.2641.168964.957462 0 1.414291-.325412.456828-.325411.456828-1.045073 0-.644565-.525665-.913656-.525666-.269091-1.677124-.269091h-.694629v-1.483127h.707145q1.063847 0 1.551965-.275349.494376-.281606.494376-.957462 0-1.038815-1.301648-1.038815-.45057 0-.919915.15019-.463086.15019-1.032557.519408l-.894882-1.3329406q1.251584-.9011408 2.985028-.9011408 1.420549 0 2.240336.5757288.826046.5757286.826046 1.6020276z" fill="#fcaf3e" stroke="#ce5c00" stroke-linecap="round" stroke-linejoin="round" stroke-width=".692199" transform="scale(.98294772 1.0173481)"/></svg>