<svg height="24" width="24" xmlns="http://www.w3.org/2000/svg" xmlns:xlink="http://www.w3.org/1999/xlink"><radialGradient id="a" cx="4.992979" cy="43.5" gradientTransform="matrix(2.003784 0 0 1.4 33.938131 -17.400027)" gradientUnits="userSpaceOnUse" r="2.5" xlink:href="#b"/><linearGradient id="b"><stop offset="0" stop-color="#181818"/><stop offset="1" stop-color="#181818" stop-opacity="0"/></linearGradient><radialGradient id="c" cx="4.992979" cy="43.5" gradientTransform="matrix(-2.003784 0 0 -1.4 19.76187 104.39997)" gradientUnits="userSpaceOnUse" r="2.5" xlink:href="#b"/><linearGradient id="d" gradientTransform="matrix(1.0073638 0 0 1 -.323637 0)" gradientUnits="userSpaceOnUse" x1="25.058096" x2="25.058096" y1="47.027729" y2="39.999443"><stop offset="0" stop-color="#181818" stop-opacity="0"/><stop offset=".5" stop-color="#181818"/><stop offset="1" stop-color="#181818" stop-opacity="0"/></linearGradient><linearGradient id="e" gradientTransform="matrix(1.0073638 0 0 1 -.323637 0)" gradientUnits="userSpaceOnUse" x1="25.058096" x2="25.058096" xlink:href="#d" y1="47.027729" y2="39.999443"/><clipPath id="f"><path d="m13.5 1.0000002-3.6862745 21.9999998h-8.8137255v-21.9999998z"/></clipPath><linearGradient id="g" gradientTransform="matrix(.48483606 0 0 .5270602 4.833398 -.398827)" gradientUnits="userSpaceOnUse" x1="24.060406" x2="24.060406" xlink:href="#G" y1="6.451322" y2="10.245955"/><linearGradient id="h" gradientTransform="matrix(.48483606 0 0 .5270602 9.834648 -.400235)" gradientUnits="userSpaceOnUse" x1="24.060406" x2="24.060406" xlink:href="#G" y1="6.451322" y2="10.245955"/><linearGradient id="i" gradientTransform="matrix(.48483606 0 0 .5270602 14.833398 -.398827)" gradientUnits="userSpaceOnUse" x1="24.060406" x2="24.060406" xlink:href="#G" y1="6.451322" y2="10.245955"/><linearGradient id="j" gradientTransform="matrix(.48483606 0 0 .5270602 -.165352 4.599765)" gradientUnits="userSpaceOnUse" x1="24.060406" x2="24.060406" xlink:href="#G" y1="6.451322" y2="8.348639"/><linearGradient id="k" gradientTransform="matrix(.48483606 0 0 .5270602 4.833398 4.601173)" gradientUnits="userSpaceOnUse" x1="24.060406" x2="24.062983" xlink:href="#G" y1="6.451322" y2="8.345967"/><linearGradient id="l" gradientTransform="matrix(.48483606 0 0 .5270602 9.834648 4.599765)" gradientUnits="userSpaceOnUse" x1="24.060406" x2="24.060406" xlink:href="#G" y1="6.451322" y2="8.348639"/><linearGradient id="m" gradientTransform="matrix(.48483606 0 0 .5270602 14.833398 4.601173)" gradientUnits="userSpaceOnUse" x1="24.060406" x2="24.062983" xlink:href="#G" y1="6.451322" y2="8.345967"/><linearGradient id="n" gradientTransform="matrix(.48483606 0 0 .5270602 -.166602 8.601173)" gradientUnits="userSpaceOnUse" x1="24.060406" x2="24.060406" xlink:href="#G" y1="6.451322" y2="8.348639"/><linearGradient id="o" gradientTransform="matrix(.48483606 0 0 .5270602 4.832148 8.602581)" gradientUnits="userSpaceOnUse" x1="24.060406" x2="24.062983" xlink:href="#G" y1="6.451322" y2="8.345967"/><linearGradient id="p" gradientTransform="matrix(.48483606 0 0 .5270602 9.833398 8.601173)" gradientUnits="userSpaceOnUse" x1="24.060406" x2="24.060406" xlink:href="#G" y1="6.451322" y2="8.348639"/><linearGradient id="q" gradientTransform="matrix(.48483606 0 0 .5270602 14.832148 8.602581)" gradientUnits="userSpaceOnUse" x1="24.060406" x2="24.062983" xlink:href="#G" y1="6.451322" y2="8.345967"/><linearGradient id="r" gradientTransform="matrix(.48483606 0 0 .5270602 -.166602 12.601173)" gradientUnits="userSpaceOnUse" x1="24.060406" x2="24.060406" xlink:href="#G" y1="6.451322" y2="8.348639"/><linearGradient id="s" gradientTransform="matrix(.48483606 0 0 .5270602 4.832148 12.602581)" gradientUnits="userSpaceOnUse" x1="24.060406" x2="24.062983" xlink:href="#G" y1="6.451322" y2="8.345967"/><linearGradient id="t" gradientTransform="matrix(.48483606 0 0 .5270602 9.833398 12.601173)" gradientUnits="userSpaceOnUse" x1="24.060406" x2="24.060406" xlink:href="#G" y1="6.451322" y2="8.348639"/><linearGradient id="u" gradientTransform="matrix(.48483606 0 0 .5270602 14.832148 12.602581)" gradientUnits="userSpaceOnUse" x1="24.060406" x2="24.062983" xlink:href="#G" y1="6.451322" y2="8.345967"/><linearGradient id="v" gradientTransform="matrix(.48483606 0 0 .5270602 -.165352 16.599773)" gradientUnits="userSpaceOnUse" x1="24.060406" x2="24.060406" xlink:href="#G" y1="6.451322" y2="8.348639"/><linearGradient id="w" gradientTransform="matrix(.48483606 0 0 .5270602 4.833398 16.601181)" gradientUnits="userSpaceOnUse" x1="24.060406" x2="24.062983" xlink:href="#G" y1="6.451322" y2="8.345967"/><linearGradient id="x" gradientTransform="matrix(.48483606 0 0 .5270602 9.834648 16.599773)" gradientUnits="userSpaceOnUse" x1="24.060406" x2="24.060406" xlink:href="#G" y1="6.451322" y2="8.348639"/><linearGradient id="y" gradientTransform="matrix(.48483606 0 0 .5270602 14.833398 16.601181)" gradientUnits="userSpaceOnUse" x1="24.060406" x2="24.062983" xlink:href="#G" y1="6.451322" y2="8.345967"/><linearGradient id="z" gradientUnits="userSpaceOnUse" x1="10.5" x2="10.5" y1="10.5" y2="14.5"><stop offset="0" stop-color="#ffe16b"/><stop offset="1" stop-color="#f9c440"/></linearGradient><linearGradient id="A" gradientTransform="translate(16 10)" gradientUnits="userSpaceOnUse" x1="3" x2="3" xlink:href="#B" y1="2" y2="3"/><linearGradient id="B" gradientTransform="matrix(0 -.5372 .57682 0 -15.997 19.866)" gradientUnits="userSpaceOnUse" x1="30.655001" x2="30.827999" y1="65.686996" y2="48.688"><stop offset="0" stop-color="#fff"/><stop offset="0" stop-color="#fff" stop-opacity=".235"/><stop offset="1" stop-color="#fff" stop-opacity=".157"/><stop offset="1" stop-color="#fff" stop-opacity=".392"/></linearGradient><linearGradient id="C" gradientTransform="translate(11 10)" gradientUnits="userSpaceOnUse" x1="3" x2="3" xlink:href="#B" y1="2" y2="3"/><linearGradient id="D" gradientTransform="translate(6 10)" gradientUnits="userSpaceOnUse" x1="3" x2="3" xlink:href="#B" y1="2" y2="3"/><linearGradient id="E" gradientTransform="translate(1 10)" gradientUnits="userSpaceOnUse" x1="3" x2="3" xlink:href="#B" y1="2" y2="3"/><linearGradient id="F" gradientTransform="matrix(.46923147 0 0 .47243347 .238446 -.625575)" gradientUnits="userSpaceOnUse" x1="25.132275" x2="25.132275" xlink:href="#I" y1="15.499894" y2="48.395687"/><linearGradient id="G" gradientTransform="matrix(.48483606 0 0 .5270602 -.165352 -.400235)" gradientUnits="userSpaceOnUse" x1="24.060406" x2="24.060406" y1="6.451322" y2="10.245955"><stop offset="0" stop-color="#fff"/><stop offset="0" stop-color="#fff" stop-opacity=".235294"/><stop offset=".99999982" stop-color="#fff" stop-opacity=".156863"/><stop offset="1" stop-color="#fff" stop-opacity=".392157"/></linearGradient><linearGradient id="H" gradientUnits="userSpaceOnUse" x1="11" x2="11" xlink:href="#I" y1="2" y2="22"/><linearGradient id="I" gradientTransform="matrix(.44576989 0 0 .44993664 .801525 -.024539)" gradientUnits="userSpaceOnUse" x1="25.132275" x2="25.132275" y1="15.499894" y2="48.395687"><stop offset="0" stop-color="#fafafa"/><stop offset="1" stop-color="#e2e1de"/></linearGradient><g opacity=".5"><g opacity=".4" transform="matrix(.52631578 0 0 .42857133 -2.631579 3.857159)"><path d="m43.950001 39.999973h5v7h-5z" fill="url(#a)"/><path d="m9.7500003 46.999973h-5v-7h5z" fill="url(#c)"/><path d="m9.7500003 40 34.2000007-.000028v7.000001l-34.2000007.000028z" fill="url(#d)" stroke-width="1.003675"/></g><rect fill="url(#F)" height="21" rx=".555556" ry=".583334" stroke-width="1.051315" width="20" x="1.5" y="1.5"/><path d="m2.5371094 1.5c-.574146 0-1.0371021.4629634-1.0371094 1.0371094v3.6269531 10.8359375 4.462891c0 .574146.4629634 1.037109 1.0371094 1.037109h17.9257816c.574146 0 1.037109-.462963 1.037109-1.037109v-4.462891-10.8359375-3.6269531c.000007-.574146-.462963-1.0371094-1.037109-1.0371094z" fill="url(#H)" stroke="#000" stroke-opacity=".273077"/><path d="m6 2v4h-4v1h4v3h-4v1h4v3h-4v1h4v3h-4v1h4v3h1v-3h4v3h1v-3h4v3h1v-3h4v-1h-4v-3h4v-1h-4v-3h4v-1h-4v-3h4v-1h-4v-4h-1v4h-4v-4h-1v4h-4v-4zm1 5h4v3h-4zm5 0h4v3h-4zm-5 4h4v3h-4zm5 0h4v3h-4zm-5 4h4v3h-4zm5 0h4v3h-4z" fill-opacity=".27451"/><g fill="none" stroke-linecap="round" stroke-linejoin="round"><path d="m2.50125 2.498592 2.99875.001408.000004 3h-3.000004z" stroke="url(#G)"/><path d="m7.5 2.5 2.99875.00141.000004 3h-3.000004z" stroke="url(#g)"/><path d="m12.50125 2.498592 2.99875.001408.000004 3h-3.000004z" stroke="url(#h)"/><path d="m17.5 2.5 2.99875.00141.000004 3h-3.000004z" stroke="url(#i)"/><path d="m2.50125 7.498592 2.99875.001408.00125 1.99859h-3.000004z" stroke="url(#j)"/><path d="m7.5 7.5 2.99875.00141.00125 1.99859h-3.000004z" stroke="url(#k)"/><path d="m12.50125 7.498592 2.99875.001408.0013 1.99859h-3.000004z" stroke="url(#l)"/><path d="m17.5 7.5 2.99875.00141.00125 1.99859h-3.000004z" stroke="url(#m)"/><path d="m2.5 11.5 2.99875.0014.00125 1.998598h-3.000004z" stroke="url(#n)"/><path d="m7.49875 11.501408 2.99875.0014.0012 1.99859h-2.999954z" stroke="url(#o)"/><path d="m12.5 11.5 2.99875.0014.0013 1.99859h-3.000004z" stroke="url(#p)"/><path d="m17.49875 11.501408 2.99875.0014.0013 1.99859h-3.000004z" stroke="url(#q)"/><path d="m2.5 15.5 2.99875.0014.00125 1.998598h-3.000004z" stroke="url(#r)"/><path d="m7.49875 15.501408 2.99875.0014.0012 1.99859h-2.999954z" stroke="url(#s)"/><path d="m12.5 15.5 2.99875.0014.0013 1.99859h-3.000004z" stroke="url(#t)"/><path d="m17.49875 15.501408 2.99875.0014.0013 1.99859h-3.000004z" stroke="url(#u)"/><path d="m2.50125 19.4986 2.99875.0014.00125 1.998598h-3.000004z" stroke="url(#v)"/><path d="m7.5 19.500008 2.99875.0014.0012 1.99859h-2.999954z" stroke="url(#w)"/><path d="m12.50125 19.4986 2.99875.0014.0013 1.99859h-3.000004z" stroke="url(#x)"/><path d="m17.5 19.500008 2.99875.0014.0013 1.99859h-3.000004z" stroke="url(#y)"/></g><path d="m21.500002 14.499818-20.000002.000182v-4l20.000002-.000182z" fill="url(#z)"/><path d="m2 10c-.554.000005-1 .446-1 1v3c0 .554.446 1.000005 1 1h19c.554-.000005 1-.446 1-1v-3c0-.554-.446-1.0000053-1-1zm0 1h4v3h-4zm5 0h4v3h-4zm5 0h4v3h-4zm5 0h4v3h-4z" fill="#ad5f00" fill-opacity=".501961"/><g fill="none" stroke-linecap="square"><path d="m17.5 11.5h3v2h-3z" opacity=".5" stroke="url(#A)"/><path d="m12.5 11.5h3v2h-3z" opacity=".5" stroke="url(#C)"/><path d="m7.4999999 11.5h3.0000001v2h-3.0000001z" opacity=".5" stroke="url(#D)"/><path d="m2.5 11.5h3v2h-3z" opacity=".5" stroke="url(#E)"/></g></g><g clip-path="url(#f)"><g opacity=".4" transform="matrix(.52631578 0 0 .42857133 -2.631579 3.857159)"><path d="m43.950001 39.999973h5v7h-5z" fill="url(#a)"/><path d="m9.7500003 46.999973h-5v-7h5z" fill="url(#c)"/><path d="m9.7500003 40 34.2000007-.000028v7.000001l-34.2000007.000028z" fill="url(#e)" stroke-width="1.003675"/></g><rect fill="url(#F)" height="21" rx=".555556" ry=".583334" stroke-width="1.051315" width="20" x="1.5" y="1.5"/><path d="m2.5371094 1.5c-.574146 0-1.0371021.4629634-1.0371094 1.0371094v3.6269531 10.8359375 4.462891c0 .574146.4629634 1.037109 1.0371094 1.037109h17.9257816c.574146 0 1.037109-.462963 1.037109-1.037109v-4.462891-10.8359375-3.6269531c.000007-.574146-.462963-1.0371094-1.037109-1.0371094z" fill="url(#H)" stroke="#000" stroke-opacity=".273077"/><path d="m6 2v4h-4v1h4v3h-4v1h4v3h-4v1h4v3h-4v1h4v3h1v-3h4v3h1v-3h4v3h1v-3h4v-1h-4v-3h4v-1h-4v-3h4v-1h-4v-3h4v-1h-4v-4h-1v4h-4v-4h-1v4h-4v-4zm1 5h4v3h-4zm5 0h4v3h-4zm-5 4h4v3h-4zm5 0h4v3h-4zm-5 4h4v3h-4zm5 0h4v3h-4z" fill-opacity=".27451"/><g fill="none" stroke-linecap="round" stroke-linejoin="round"><path d="m2.50125 2.498592 2.99875.001408.000004 3h-3.000004z" stroke="url(#G)"/><path d="m7.5 2.5 2.99875.00141.000004 3h-3.000004z" stroke="url(#g)"/><path d="m12.50125 2.498592 2.99875.001408.000004 3h-3.000004z" stroke="url(#h)"/><path d="m17.5 2.5 2.99875.00141.000004 3h-3.000004z" stroke="url(#i)"/><path d="m2.50125 7.498592 2.99875.001408.00125 1.99859h-3.000004z" stroke="url(#j)"/><path d="m7.5 7.5 2.99875.00141.00125 1.99859h-3.000004z" stroke="url(#k)"/><path d="m12.50125 7.498592 2.99875.001408.0013 1.99859h-3.000004z" stroke="url(#l)"/><path d="m17.5 7.5 2.99875.00141.00125 1.99859h-3.000004z" stroke="url(#m)"/><path d="m2.5 11.5 2.99875.0014.00125 1.998598h-3.000004z" stroke="url(#n)"/><path d="m7.49875 11.501408 2.99875.0014.0012 1.99859h-2.999954z" stroke="url(#o)"/><path d="m12.5 11.5 2.99875.0014.0013 1.99859h-3.000004z" stroke="url(#p)"/><path d="m17.49875 11.501408 2.99875.0014.0013 1.99859h-3.000004z" stroke="url(#q)"/><path d="m2.5 15.5 2.99875.0014.00125 1.998598h-3.000004z" stroke="url(#r)"/><path d="m7.49875 15.501408 2.99875.0014.0012 1.99859h-2.999954z" stroke="url(#s)"/><path d="m12.5 15.5 2.99875.0014.0013 1.99859h-3.000004z" stroke="url(#t)"/><path d="m17.49875 15.501408 2.99875.0014.0013 1.99859h-3.000004z" stroke="url(#u)"/><path d="m2.50125 19.4986 2.99875.0014.00125 1.998598h-3.000004z" stroke="url(#v)"/><path d="m7.5 19.500008 2.99875.0014.0012 1.99859h-2.999954z" stroke="url(#w)"/><path d="m12.50125 19.4986 2.99875.0014.0013 1.99859h-3.000004z" stroke="url(#x)"/><path d="m17.5 19.500008 2.99875.0014.0013 1.99859h-3.000004z" stroke="url(#y)"/></g><path d="m21.500002 14.499818-20.000002.000182v-4l20.000002-.000182z" fill="url(#z)"/><path d="m2 10c-.554.000005-1 .446-1 1v3c0 .554.446 1.000005 1 1h19c.554-.000005 1-.446 1-1v-3c0-.554-.446-1.0000053-1-1zm0 1h4v3h-4zm5 0h4v3h-4zm5 0h4v3h-4zm5 0h4v3h-4z" fill="#ad5f00" fill-opacity=".501961"/><g fill="none" stroke-linecap="square"><path d="m17.5 11.5h3v2h-3z" opacity=".5" stroke="url(#A)"/><path d="m12.5 11.5h3v2h-3z" opacity=".5" stroke="url(#C)"/><path d="m7.4999999 11.5h3.0000001v2h-3.0000001z" opacity=".5" stroke="url(#D)"/><path d="m2.5 11.5h3v2h-3z" opacity=".5" stroke="url(#E)"/></g></g><path d="m13.5.50000021-3.6862745 22.49999979" fill="none" stroke="#757575" stroke-linecap="round" stroke-linejoin="round"/></svg>