<svg viewBox="0 0 24 24" xmlns="http://www.w3.org/2000/svg" xmlns:xlink="http://www.w3.org/1999/xlink"><linearGradient id="a"><stop offset="0" stop-color="#737373"/><stop offset=".26238" stop-color="#636363"/><stop offset=".704952" stop-color="#4b4b4b"/><stop offset="1" stop-color="#3f3f3f"/></linearGradient><linearGradient id="b" gradientUnits="userSpaceOnUse" x1="14" x2="16" xlink:href="#a" y1="4" y2="6"/><linearGradient id="c" gradientUnits="userSpaceOnUse" x1="9" x2="11" xlink:href="#a" y1="4" y2="6"/><linearGradient id="d" gradientUnits="userSpaceOnUse" x1="4" x2="6" xlink:href="#a" y1="9" y2="11"/><linearGradient id="e" gradientUnits="userSpaceOnUse" x1="14" x2="16" xlink:href="#a" y1="8" y2="10"/><linearGradient id="f" gradientUnits="userSpaceOnUse" x1="19" x2="21" xlink:href="#a" y1="9" y2="11"/><linearGradient id="g" gradientUnits="userSpaceOnUse" x1="9" x2="11" xlink:href="#a" y1="8" y2="10"/><linearGradient id="h" gradientUnits="userSpaceOnUse" x1="4" x2="6" xlink:href="#a" y1="14" y2="16"/><linearGradient id="i" gradientUnits="userSpaceOnUse" x1="14" x2="16" xlink:href="#a" y1="15" y2="17"/><linearGradient id="j" gradientUnits="userSpaceOnUse" x1="19" x2="21" xlink:href="#a" y1="14" y2="16"/><linearGradient id="k" gradientUnits="userSpaceOnUse" x1="9" x2="11" xlink:href="#a" y1="15" y2="17"/><linearGradient id="l" gradientUnits="userSpaceOnUse" x1="14" x2="16" xlink:href="#a" y1="19" y2="21"/><linearGradient id="m" gradientUnits="userSpaceOnUse" x1="9" x2="11" xlink:href="#a" y1="19" y2="21"/><linearGradient id="n" gradientUnits="userSpaceOnUse" x1="15" x2="17" xlink:href="#a" y1="14" y2="16"/><linearGradient id="o" gradientUnits="userSpaceOnUse" x1="15" x2="17" xlink:href="#a" y1="9" y2="11"/><linearGradient id="p" gradientUnits="userSpaceOnUse" x1="8" x2="10" xlink:href="#a" y1="14" y2="16"/><linearGradient id="q" gradientUnits="userSpaceOnUse" x1="8" x2="10" xlink:href="#a" y1="9" y2="11"/><rect fill="url(#q)" height="2" ry=".500455" width="2" x="8" y="9"/><rect fill="url(#p)" height="2" ry=".500455" width="2" x="8" y="14"/><rect fill="url(#o)" height="2" ry=".500455" width="2" x="15" y="9"/><rect fill="url(#n)" height="2" ry=".500455" width="2" x="15" y="14"/><rect fill="url(#b)" height="2" ry=".500455" width="2" x="14" y="4"/><rect fill="url(#c)" height="2" ry=".500455" width="2" x="9" y="4"/><rect fill="url(#d)" height="2" ry=".500455" width="2" x="4" y="9"/><rect fill="url(#e)" height="2" ry=".500455" width="2" x="14" y="8"/><rect fill="url(#f)" height="2" ry=".500455" width="2" x="19" y="9"/><rect fill="url(#g)" height="2" ry=".500455" width="2" x="9" y="8"/><rect fill="url(#h)" height="2" ry=".500455" width="2" x="4" y="14"/><rect fill="url(#i)" height="2" ry=".500455" width="2" x="14" y="15"/><rect fill="url(#j)" height="2" ry=".500455" width="2" x="19" y="14"/><rect fill="url(#k)" height="2" ry=".500455" width="2" x="9" y="15"/><rect fill="url(#l)" height="2" ry=".500455" width="2" x="14" y="19"/><rect fill="url(#m)" height="2" ry=".500455" width="2" x="9" y="19"/><path d="m9.521379 9.483991h5.99463v5.99463h-5.99463z" fill="#fcaf3e" stroke="#ce5c00" stroke-linejoin="round" stroke-miterlimit="0" stroke-width="1.00537"/></svg>