<svg height="24" width="24" xmlns="http://www.w3.org/2000/svg" xmlns:xlink="http://www.w3.org/1999/xlink"><linearGradient id="a" gradientTransform="matrix(0 -.5372019 -.57681717 0 49.997188 27.865617)" gradientUnits="userSpaceOnUse" x1="40.957993" x2="18.680689" y1="46.97065" y2="46.97065"><stop offset="0" stop-color="#fff"/><stop offset=".45000002" stop-color="#fff" stop-opacity=".235294"/><stop offset=".65000004" stop-color="#fff" stop-opacity=".156863"/><stop offset="1" stop-color="#fff" stop-opacity=".392157"/></linearGradient><linearGradient id="b" gradientTransform="matrix(-.4766877 0 0 .44382351 28.94314 3.441469)" gradientUnits="userSpaceOnUse" x1="23.731871" x2="23.731871" y1="5.394345" y2="40.783871"><stop offset="0" stop-color="#f0c1ff"/><stop offset=".26238" stop-color="#c5a3f2"/><stop offset=".704952" stop-color="#7a36b1"/><stop offset="1" stop-color="#4c2d81"/></linearGradient><linearGradient id="c"><stop offset="0"/><stop offset="1" stop-opacity="0"/></linearGradient><radialGradient id="d" cx="24.837126" cy="36.421127" gradientTransform="matrix(-.27598143 0 0 -.29583148 24.323798 24.819207)" gradientUnits="userSpaceOnUse" r="15.644737" xlink:href="#c"/><linearGradient id="e"><stop offset="0" stop-color="#fff"/><stop offset="0" stop-color="#fff" stop-opacity=".235"/><stop offset="1" stop-color="#fff" stop-opacity=".157"/><stop offset="1" stop-color="#fff" stop-opacity=".392"/></linearGradient><linearGradient id="f" xlink:href="#c"/><linearGradient id="g" gradientTransform="matrix(.3746 0 0 .37083 29.393 2.44)" gradientUnits="userSpaceOnUse" x1="-51.786" x2="-51.786" y1="50.786" y2="2.906"><stop offset="0" stop-opacity=".318"/><stop offset="1" stop-opacity=".24"/></linearGradient><linearGradient id="h" gradientTransform="matrix(.66892 0 0 .4054 -1.18 3.27)" gradientUnits="userSpaceOnUse" x1="24" x2="24" xlink:href="#e" y1="6.733" y2="41.267"/><linearGradient id="i" gradientTransform="matrix(.5135 0 0 .4054 -.325 3.27)" gradientUnits="userSpaceOnUse" x1="37.633" x2="37.633" xlink:href="#e" y1="6.733" y2="41.267"/><linearGradient id="j" gradientTransform="matrix(.45714 0 0 .34765 3.03 4.123)" gradientUnits="userSpaceOnUse" x1="25.132" x2="25.132" y1=".985" y2="47.013"><stop offset="0" stop-color="#f4f4f4"/><stop offset="1" stop-color="#dbdbdb"/></linearGradient><radialGradient id="k" cx="605.714" cy="486.648" gradientTransform="matrix(.01325 0 0 .00824 13.363 17.98)" gradientUnits="userSpaceOnUse" r="117.143" xlink:href="#f"/><radialGradient id="l" cx="605.714" cy="486.648" gradientTransform="matrix(-.01325 0 0 .00824 10.637 17.98)" gradientUnits="userSpaceOnUse" r="117.143" xlink:href="#f"/><linearGradient id="m" gradientTransform="matrix(.03873 0 0 .00824 -1.997 17.98)" gradientUnits="userSpaceOnUse" x1="302.857" x2="302.857" y1="366.648" y2="609.505"><stop offset="0" stop-opacity="0"/><stop offset=".5"/><stop offset="1" stop-opacity="0"/></linearGradient><linearGradient id="n" gradientUnits="userSpaceOnUse" x1="4" x2="4" y1="4.559" y2="21.517"><stop offset="0" stop-color="#ffa154"/><stop offset="1" stop-color="#f37329"/></linearGradient><path d="m2.65 21h18.7v2h-18.7z" fill="url(#m)" opacity=".15"/><path d="m2.65 21v2c-.683.004-1.65-.448-1.65-1s.762-1 1.65-1z" fill="url(#l)" opacity=".15"/><path d="m21.35 21v2c.683.004 1.65-.448 1.65-1s-.762-1-1.65-1z" fill="url(#k)" opacity=".15"/><path d="m5 5h17v16h-17z" fill="url(#j)"/><path d="m21.5 20.5h-19v-15h19z" fill="none" stroke="url(#i)" stroke-linecap="square"/><path d="m2 4.5c-.277 0-.5.223-.5.5v16c0 .277.223.5.5.5h3v-17z" fill="url(#n)"/><g fill="none"><path d="m4.5 20.5h-2v-15h2" opacity=".5" stroke="url(#h)" stroke-linecap="square"/><path d="m6 7.5h4m1 0h2m1 0h1m1 0h2m-12 4h2m-2 2h1m-1 2h2m-2 2h2m0-4h1m0 4h1" stroke="#aaa"/><g stroke-linejoin="round"><path d="m5 21.5h17.5v-17h-17.5" stroke="url(#g)"/><path d="m5 21.5h-3.5v-17h3.5" opacity=".4" stroke="#cc3b02"/></g></g><g fill="url(#n)"><path d="m20 14a4 4 0 1 1 -2.116-3.53l-1.884 3.53z" opacity=".5"/><path d="m20 14.012c0 1.734-1.26 3.392-2.933 3.854-1.67.463-3.605-.31-4.497-1.798-.007.007 3.43-2.056 3.43-2.056z" opacity=".5"/><path d="m20 14c0 1.734-1.26 3.392-2.933 3.855-.04-.007-1.067-3.855-1.067-3.855z"/></g><path d="m13.151555 14.044686a4.3176571 4.6282084 0 1 1 8.635315 0 4.3176571 4.6282084 0 0 1 -8.635315 0z" fill="url(#d)" fill-rule="evenodd" opacity=".141176"/><path d="m17.499999 17.221611-7-5.673017 7-5.6960219v3.6474278h6.000001v4.0000001h-6.000001z" display="block" fill="url(#b)"/><g fill="none"><path d="m16.5 15.111422-4.434589-3.562828 4.434589-3.6228751v2.5742811h6v2h-6z" display="block" opacity=".401" stroke="url(#a)" stroke-miterlimit="7" stroke-width=".963925"/><path d="m17.5 17.221611-7-5.673017 7-5.696022v3.6474278h6v4.0000002h-6z" opacity=".5" stroke="#6326b9" stroke-linejoin="round"/></g></svg>