<?xml version="1.0" encoding="UTF-8" standalone="no"?>
<svg
   xmlns:dc="http://purl.org/dc/elements/1.1/"
   xmlns:cc="http://creativecommons.org/ns#"
   xmlns:rdf="http://www.w3.org/1999/02/22-rdf-syntax-ns#"
   xmlns:svg="http://www.w3.org/2000/svg"
   xmlns="http://www.w3.org/2000/svg"
   xmlns:xlink="http://www.w3.org/1999/xlink"
   xmlns:sodipodi="http://sodipodi.sourceforge.net/DTD/sodipodi-0.dtd"
   xmlns:inkscape="http://www.inkscape.org/namespaces/inkscape"
   height="24"
   width="24"
   version="1.1"
   id="svg18"
   sodipodi:docname="lc_insertsymbol.svg"
   inkscape:version="0.92.3 (unknown)">
  <metadata
     id="metadata24">
    <rdf:RDF>
      <cc:Work
         rdf:about="">
        <dc:format>image/svg+xml</dc:format>
        <dc:type
           rdf:resource="http://purl.org/dc/dcmitype/StillImage" />
      </cc:Work>
    </rdf:RDF>
  </metadata>
  <defs
     id="defs22">
    <linearGradient
       id="linearGradient2867-449-88-871-390-598-476-591-434-148-57-177-641-289-620-227-114-444-680-744-4-1-5">
      <stop
         id="stop5430-5-0-9"
         style="stop-color:#737373;stop-opacity:1"
         offset="0" />
      <stop
         id="stop5432-2-0-0"
         style="stop-color:#636363;stop-opacity:1"
         offset="0.26238" />
      <stop
         id="stop5434-9-6-8"
         style="stop-color:#4b4b4b;stop-opacity:1"
         offset="0.704952" />
      <stop
         id="stop5436-2-7-0"
         style="stop-color:#3f3f3f;stop-opacity:1"
         offset="1" />
    </linearGradient>
    <radialGradient
       inkscape:collect="always"
       xlink:href="#linearGradient2867-449-88-871-390-598-476-591-434-148-57-177-641-289-620-227-114-444-680-744-4-1-5"
       id="radialGradient856"
       cx="11.913767"
       cy="1.5526412"
       fx="11.913767"
       fy="1.5526412"
       r="9.5106812"
       gradientTransform="matrix(-1.6585288,0.09816647,-0.13609591,-2.2993491,31.8844,3.9654623)"
       gradientUnits="userSpaceOnUse" />
  </defs>
  <sodipodi:namedview
     pagecolor="#ffffff"
     bordercolor="#666666"
     borderopacity="1"
     objecttolerance="10"
     gridtolerance="10"
     guidetolerance="10"
     inkscape:pageopacity="0"
     inkscape:pageshadow="2"
     inkscape:window-width="1366"
     inkscape:window-height="706"
     id="namedview20"
     showgrid="true"
     inkscape:snap-global="false"
     inkscape:zoom="6.9532165"
     inkscape:cx="19.972845"
     inkscape:cy="-0.69570006"
     inkscape:window-x="0"
     inkscape:window-y="0"
     inkscape:window-maximized="1"
     inkscape:current-layer="svg18">
    <inkscape:grid
       type="xygrid"
       id="grid834" />
  </sodipodi:namedview>
  <radialGradient
     id="a"
     cx="22.571428"
     cy="30.857143"
     gradientTransform="matrix(0.706422,0,0,0.13549598,-3.4775444,18.360303)"
     gradientUnits="userSpaceOnUse"
     r="15.571428">
    <stop
       offset="0"
       id="stop2" />
    <stop
       offset="1"
       stop-opacity="0"
       id="stop4" />
  </radialGradient>
  <linearGradient
     id="b"
     gradientUnits="userSpaceOnUse"
     x1="11"
     x2="11"
     y1="24"
     y2="0"
     gradientTransform="translate(0.49715781,0.49512391)"
     xlink:href="#linearGradient2867-449-88-871-390-598-476-591-434-148-57-177-641-289-620-227-114-444-680-744-4-1-5">
    <stop
       offset="0"
       stop-color="#1f1f1f"
       id="stop7" />
    <stop
       offset="1"
       stop-color="#5c5c5c"
       id="stop9" />
  </linearGradient>
  <path
     d="m12.006104 7c-1.472982 0-3.0104333.4695638-3.8079594 1.3647461-.7975262.8951823-1.1962892 2.1565759-1.1962892 3.7841799 0 1.652018.2685547 2.994791.8056642 4.02832.5371093 1.025391 2.1019857 2.12085 3.1924804 2.706787v3.115967h-8v-3h4.3796387c-1.2369792-.756836-2.7220053-1.960124-3.397461-3.262207-.6673177-1.310221-1.0009765-2.770996-1.0009765-4.382324 0-1.4973961.3458659-2.8116864 1.0375976-3.9428713.6998698-1.1393229 1.8953939-2.0141602 3.1812012-2.6245118 1.2858073-.6103515 3.105257-.7880859 4.806104-.7880859 2.596028 0 5.159384.5520833 6.689331 1.9111328 1.538086 1.3590495 2.307129 3.1819661 2.307129 5.4687502 0 1.611328-.337728 3.059896-1.013183 4.345703-.675456 1.285807-2.144248 2.493164-3.405641 3.274414h4.41626v3h-8v-3.115967c1.131185-.585937 2.661475-1.693603 3.198584-2.743408s.805664-2.388509.805664-4.016113c0-1.619466-.402832-2.8727216-1.208496-3.7597659-.797526-.8951823-2.324805-1.3647461-3.789648-1.3647461z"
     fill="#fff"
     opacity=".35"
     id="path12" />
  <path
     d="m 12.503262,6.4951239 c -1.472982,0 -3.0104335,0.4695638 -3.8079596,1.3647461 -0.7975262,0.8951823 -1.1962892,2.156576 -1.1962892,3.78418 0,1.652018 0.2685547,2.994791 0.8056642,4.02832 0.5371093,1.025391 2.1019856,2.12085 3.1924806,2.706787 v 3.115967 H 3.4971578 v -3 H 7.8767965 C 6.6398173,17.738288 5.1547912,16.535 4.4793355,15.232917 3.8120178,13.922696 3.478359,12.461921 3.478359,10.850593 3.478359,9.3531968 3.8242249,8.0389065 4.5159566,6.9077216 5.2158264,5.7683987 6.4113505,4.8935614 7.6971578,4.2832098 8.9829651,3.6728583 10.802415,3.4951239 12.503262,3.4951239 c 2.596028,0 5.159384,0.5520833 6.689331,1.9111328 1.538086,1.3590495 2.307129,3.1819661 2.307129,5.4687503 0,1.611328 -0.337728,3.059896 -1.013183,4.345703 -0.675456,1.285807 -2.144248,2.493164 -3.405641,3.274414 h 4.41626 v 3 h -8 v -3.115967 c 1.131185,-0.585937 2.661475,-1.693603 3.198584,-2.743408 0.537109,-1.049805 0.805664,-2.388509 0.805664,-4.016113 0,-1.619466 -0.402832,-2.8727217 -1.208496,-3.759766 C 15.495384,6.9646877 13.968105,6.4951239 12.503262,6.4951239 Z"
     id="path14"
     style="opacity:1;fill:url(#radialGradient856);stroke:#000000;stroke-linecap:round;stroke-linejoin:round;fill-opacity:1;stroke-opacity:0.43137255"
     inkscape:connector-curvature="0" />
  <ellipse
     cx="12.467408"
     cy="22.541323"
     rx="10.999999"
     ry="2.8901329"
     id="ellipse16"
     style="opacity:0.2;fill:url(#a)" />
  <path
     style="opacity:0.1;fill:#ffffff;stroke:none;stroke-linecap:round;stroke-linejoin:round;fill-opacity:1;stroke-opacity:0.43137255"
     d="M 12.503906 3.4960938 C 10.803059 3.4960937 8.9830729 3.6728516 7.6972656 4.2832031 C 6.4114583 4.8935547 5.2154948 5.7688802 4.515625 6.9082031 C 3.8238933 8.039388 3.4785156 9.3541663 3.4785156 10.851562 C 3.4785156 11.031626 3.4975261 11.202603 3.5058594 11.378906 C 3.5727228 10.079248 3.8988872 8.9167509 4.515625 7.9082031 C 5.2154948 6.7688802 6.4114583 5.8935547 7.6972656 5.2832031 C 8.9830729 4.6728516 10.803059 4.4960937 12.503906 4.4960938 C 15.099934 4.4960938 17.663412 5.0472005 19.193359 6.40625 C 20.604311 7.6529638 21.357984 9.2948471 21.474609 11.322266 C 21.480699 11.172201 21.5 11.028 21.5 10.875 C 21.5 8.5882158 20.731445 6.7652995 19.193359 5.40625 C 17.663412 4.0472005 15.099934 3.4960938 12.503906 3.4960938 z M 17.476562 12.224609 C 17.415978 13.576118 17.162818 14.722958 16.695312 15.636719 C 16.158203 16.686524 14.629232 17.792969 13.498047 18.378906 L 13.498047 19.378906 C 14.629232 18.792969 16.158203 17.686524 16.695312 16.636719 C 17.232422 15.586914 17.501953 14.246745 17.501953 12.619141 C 17.501953 12.479599 17.482544 12.358713 17.476562 12.224609 z M 7.5234375 12.25 C 7.517596 12.383931 7.4980469 12.505235 7.4980469 12.644531 C 7.4980469 14.296549 7.767578 15.638346 8.3046875 16.671875 C 8.8417968 17.697266 10.407552 18.792969 11.498047 19.378906 L 11.498047 18.378906 C 10.407552 17.792969 8.8417968 16.697266 8.3046875 15.671875 C 7.8364919 14.770953 7.5835094 13.620882 7.5234375 12.25 z M 3.4980469 18.496094 L 3.4980469 19.496094 L 7.8769531 19.496094 C 7.4277068 19.221226 6.9522988 18.872081 6.4882812 18.496094 L 3.4980469 18.496094 z M 18.458984 18.496094 C 18.001133 18.868011 17.530611 19.217054 17.080078 19.496094 L 21.498047 19.496094 L 21.498047 18.496094 L 18.458984 18.496094 z "
     id="path858" />
</svg>
