<svg height="24" width="24" xmlns="http://www.w3.org/2000/svg" xmlns:xlink="http://www.w3.org/1999/xlink"><radialGradient id="a" cx="65.296997" cy="48.216" gradientTransform="matrix(0 .52545 -.57163 0 46.193 -21.124)" gradientUnits="userSpaceOnUse" r="31"><stop offset="0" stop-color="#d1ff82"/><stop offset=".262" stop-color="#9bdb4d"/><stop offset=".661" stop-color="#68b723"/><stop offset="1" stop-color="#3a9104"/></radialGradient><linearGradient id="b" gradientTransform="matrix(.2818 0 0 .2801 12.18 12.022)" gradientUnits="userSpaceOnUse" x1="24.139" x2="24.139" xlink:href="#d" y1="21.341999" y2="24.912001"/><linearGradient id="c" gradientTransform="matrix(.2818 0 0 .2801 12.197 12.015)" gradientUnits="userSpaceOnUse" x1="24.139" x2="24.139" xlink:href="#d" y1="10.631" y2="35.623"/><linearGradient id="d"><stop offset="0" stop-color="#fff"/><stop offset="0" stop-color="#fff" stop-opacity=".235"/><stop offset="1" stop-color="#fff" stop-opacity=".157"/><stop offset="1" stop-color="#fff" stop-opacity=".392"/></linearGradient><clipPath id="e"><path d="m3.5 2s-.4-.003-.78.188-.72.479-.72 1.312v9s-.003.4.188.78c.19.382.48.72 1.312.72h9s.4.003.78-.188c.382-.19.72-.48.72-1.312v-9s.003-.4-.188-.78c-.19-.382-.48-.72-1.312-.72z"/></clipPath><linearGradient id="f" gradientTransform="matrix(1 0 0 .92308 6 8.73)" gradientUnits="userSpaceOnUse" x1="8" x2="8" y1="16"><stop offset="0" stop-color="#fff"/><stop offset="1" stop-color="#fff"/></linearGradient><path d="m2.5 7.346v8.308c0 1.846 2.923 1.846 2.923 1.846h13.154c2.923 0 2.923-1.846 2.923-1.846v-8.308c0-1.846-2.923-1.846-2.923-1.846h-13.154c-2.923 0-2.923 1.846-2.923 1.846z" fill="url(#f)"/><path clip-path="url(#e)" d="m3.5 2s-.4-.003-.78.188-.72.479-.72 1.312v9s-.003.4.188.78c.19.382.48.72 1.312.72h9s.4.003.78-.188c.382-.19.72-.48.72-1.312v-9s.003-.4-.188-.78c-.19-.382-.48-.72-1.312-.72z" fill="none" opacity=".05" stroke="#000" stroke-width="1.633" transform="matrix(1.5 0 0 .91667 0 4.167)"/><path d="m2.482 15.667v-8.334c0-1.85 2.003-1.85 2.003-1.85h15.03c2.003 0 2.003 1.85 2.003 1.85v8.334c0 1.85-2.003 1.85-2.003 1.85h-15.03c-2.003 0-2.003-1.85-2.003-1.85z" fill="none" opacity=".41" stroke="#000" stroke-width=".963"/><path d="m5.25 6s-.626-.18-1.197.01c-.57.19-1.053.352-1.053 1.49v1c0-.833.507-1.122 1.078-1.313.57-.19 1.172-.187 1.172-.187h13.5c1.25 0 1.683.338 1.97.72.284.38.28.78.28.78v-1s.106-.528-.18-.908c-.285-.38-.134-.62-1.816-.617z" opacity=".1"/><path d="m5.25 6s-.68-.19-1.25 0-1 .667-1 1.5v2c0-.833.507-1.122 1.078-1.313.57-.19 1.172-.187 1.172-.187h13.5c1.25 0 1.683.338 1.97.72.284.38.28.78.28.78v-2s.03-.62-.256-1.002c-.284-.38-.744-.498-1.994-.498z" opacity=".05"/><path d="m16.5 16.5v-3h4v3h3v4h-3v3h-4v-3h-3v-4z" fill="url(#a)" stroke="#206b00" stroke-linecap="round" stroke-linejoin="round" stroke-opacity=".501961"/><g fill="none"><path d="m17.5 18.004v-3.504h2v3.5m0 1v3.5h-2v-3.5" opacity=".5" stroke="url(#c)"/><path d="m20 17.507 2.5-.007v2l-2.5.007m-3 0-2.5-.007v-2l2.5.007" opacity=".5" stroke="url(#b)"/></g></svg>