<svg height="24" width="24" xmlns="http://www.w3.org/2000/svg" xmlns:xlink="http://www.w3.org/1999/xlink"><linearGradient id="a" gradientTransform="matrix(.51351351 0 0 .40540539 -.329339 3.265207)" gradientUnits="userSpaceOnUse" x1="23.99999" x2="23.99999" y1="5.56415" y2="43"><stop offset="0" stop-color="#fff"/><stop offset=".03626217" stop-color="#fff" stop-opacity=".235294"/><stop offset=".95056331" stop-color="#fff" stop-opacity=".156863"/><stop offset="1" stop-color="#fff" stop-opacity=".392157"/></linearGradient><radialGradient id="b" cx="15.951264" cy="8.600432" gradientTransform="matrix(0 .97381444 -1.346835 0 23.579495 -6.308319)" gradientUnits="userSpaceOnUse" r="18.000002"><stop offset="0" stop-color="#90dbec"/><stop offset=".26238" stop-color="#55c1ec"/><stop offset=".704952" stop-color="#3689e6"/><stop offset="1" stop-color="#2b63a0"/></radialGradient><linearGradient id="c" gradientTransform="matrix(.48449877 0 0 .34573161 33.241151 3.149077)" gradientUnits="userSpaceOnUse" x1="-51.786404" x2="-51.786404" y1="53.623615" y2="2.906247"><stop offset="0" stop-color="#185f9a"/><stop offset="1" stop-color="#599ec9"/></linearGradient><linearGradient id="d" gradientTransform="matrix(.0352071 0 0 .0082353 -.724852 18.980547)" gradientUnits="userSpaceOnUse" x1="302.85715" x2="302.85715" y1="366.64789" y2="609.50507"><stop offset="0" stop-opacity="0"/><stop offset=".5"/><stop offset="1" stop-opacity="0"/></linearGradient><radialGradient id="e" cx="605.71429" cy="486.64789" gradientTransform="matrix(-.01204859 0 0 .0082353 10.761206 18.980564)" gradientUnits="userSpaceOnUse" r="117.14286" xlink:href="#f"/><linearGradient id="f"><stop offset="0"/><stop offset="1" stop-opacity="0"/></linearGradient><radialGradient id="g" cx="605.71429" cy="486.64789" gradientTransform="matrix(.01204859 0 0 .0082353 13.238793 18.980564)" gradientUnits="userSpaceOnUse" r="117.14286" xlink:href="#f"/><g transform="translate(0 -1)"><path d="m3.500001 22h16.999998v2h-16.999998z" fill="url(#d)" opacity=".15"/><path d="m3.4999999 22.000085v1.999891c-.6204724.0038-1.4999999-.448075-1.4999999-1.000075 0-.551999.6924-.999816 1.4999999-.999816z" fill="url(#e)" opacity=".15"/><path d="m20.5 22.000085v1.999891c.620472.0038 1.5-.448075 1.5-1.000075 0-.551999-.692402-.999816-1.5-.999816z" fill="url(#g)" opacity=".15"/></g><g stroke-linejoin="round"><path d="m1.4949439 4.4948925c4.8121842 0 21.0000531.00108 21.0000531.00108l.000025 16.9989965s-14.0000516 0-21.0000781 0c0-5.666693 0-11.333386 0-17.0000786z" fill="url(#b)" stroke="url(#c)" stroke-width=".999921"/><g fill="none"><path d="m21.494983 20.494932h-19.0000003v-14.9999999h19.0000003z" opacity=".5" stroke="url(#a)" stroke-linecap="round"/><g stroke="#fff" stroke-linecap="square"><path d="m11.500014 18.49988 8.658137.000241" opacity=".5"/><path d="m19.5 19.5v-6.790439" opacity=".5"/><path d="m10.657438 7.5092554-6.9403786-.0185108m.7829406-.7709521v9.3554795" opacity=".5"/></g></g></g><path d="m7 13.13162h1.161725v.745768h-1.161725zm2.039725 0h1.171001v.745768h-1.171001zm1.827001 0h2.227999v.745768h-2.227999zm3.238999 0h1.887749v.745768h-1.887749zm-7.105725-2.017836h2.129725v.78144h-2.129725zm2.776725 0h1.368001v.78144h-1.368001zm2.059001 0h2.275999v.78144h-2.275999zm3.070999 0h2.081v.78144h-2.080999zm-7.906725 4.013224h1.896827v.758992h-1.896827zm2.777725 0h1.763481v.758992h-1.763481zm2.267345 0h1.100655v.758992h-1.100655zm1.756655 0h1.147v.758992h-1.147zm1.941 0h1.269v.758992h-1.269z" fill="#fff" opacity=".7"/></svg>