<?xml version="1.0" encoding="UTF-8" standalone="no"?>
<svg xmlns:rdf="http://www.w3.org/1999/02/22-rdf-syntax-ns#" xmlns="http://www.w3.org/2000/svg" height="24" width="24" version="1.1" xmlns:cc="http://creativecommons.org/ns#" xmlns:xlink="http://www.w3.org/1999/xlink" xmlns:dc="http://purl.org/dc/elements/1.1/">
 <metadata>
  <rdf:RDF>
   <cc:Work rdf:about="">
    <dc:format>image/svg+xml</dc:format>
    <dc:type rdf:resource="http://purl.org/dc/dcmitype/StillImage"/>
    <dc:title/>
   </cc:Work>
  </rdf:RDF>
 </metadata>
 <defs>
  <radialGradient id="radialGradient2414" gradientUnits="userSpaceOnUse" cy="24.149" cx="17.814" gradientTransform="matrix(-1.4145,0,1.571e-8,1.3559,39.434,-22.854)" r="9.125">
   <stop stop-color="#fff" offset="0"/>
   <stop stop-color="#b6b6b6" offset="1"/>
  </radialGradient>
 </defs>
 <linearGradient id="a" y2="88.801" gradientUnits="userSpaceOnUse" y1="113.98" gradientTransform="matrix(.075030 0 0 .075590 21.87 8.858)" x2="-175.25" x1="-184.92">
  <stop stop-color="#7a0f01" offset="0"/>
  <stop stop-color="#d31807" offset="1"/>
 </linearGradient>
 <linearGradient id="b" y2="75.191" gradientUnits="userSpaceOnUse" y1="88.75" gradientTransform="matrix(.075111 .0058678 -.0061939 .071505 25.005 10.547)" x2="-208.5" x1="-211.29">
  <stop stop-color="#ec4502" offset="0"/>
  <stop stop-color="#fe7617" offset="1"/>
 </linearGradient>
 <linearGradient id="c" y2="38.561" gradientUnits="userSpaceOnUse" y1="-37.385" gradientTransform="matrix(.11183 0 0 .11949 27.052 8.6135)" x2="-107.46" x1="-107.46">
  <stop stop-color="#0b85e9" offset="0"/>
  <stop stop-color="#69d1ef" offset="1"/>
 </linearGradient>
 <linearGradient id="d" y2="39.992" gradientUnits="userSpaceOnUse" y1="110.92" gradientTransform="matrix(.11183 0 0 .11095 27.052 8.4336)" x2="-96.557" x1="-96.557">
  <stop stop-color="#e89c42" offset="0"/>
  <stop stop-color="#faca67" offset="1"/>
 </linearGradient>
 <linearGradient id="e" y2="43" gradientUnits="userSpaceOnUse" y1="5.5642" gradientTransform="matrix(.48649 0 0 .37838 .82433 3.4189)" x2="24" x1="24">
  <stop stop-color="#fff" offset="0"/>
  <stop stop-color="#fff" stop-opacity=".23529" offset=".036262"/>
  <stop stop-color="#fff" stop-opacity=".15686" offset=".95056"/>
  <stop stop-color="#fff" stop-opacity=".39216" offset="1"/>
 </linearGradient>
 <linearGradient id="f" y2="47.013" gradientUnits="userSpaceOnUse" y1=".98521" gradientTransform="matrix(.54286 0 0 .32593 -.52854 4.1778)" x2="25.132" x1="25.132">
  <stop stop-color="#f4f4f4" offset="0"/>
  <stop stop-color="#dbdbdb" offset="1"/>
 </linearGradient>
 <linearGradient id="g" y2="52.888" gradientUnits="userSpaceOnUse" y1="6.6806" gradientTransform="matrix(.48626 .00027192 .00009966 .34755 59.86 2.2422)" x2="-76.844" x1="-76.835">
  <stop stop-opacity=".27059" offset="0"/>
  <stop stop-opacity=".368" offset="1"/>
 </linearGradient>
 <linearGradient id="h" y2="609.51" gradientUnits="userSpaceOnUse" y1="366.65" gradientTransform="matrix(.032794 0 0 .015126 .14745 14.281)" x2="302.86" x1="302.86">
  <stop stop-opacity="0" offset="0"/>
  <stop offset=".5"/>
  <stop stop-opacity="0" offset="1"/>
 </linearGradient>
 <radialGradient id="i" xlink:href="#j" gradientUnits="userSpaceOnUse" cy="486.65" cx="605.71" gradientTransform="matrix(.032794 0 0 .015126 .1539 14.281)" r="117.14"/>
 <linearGradient id="j">
  <stop offset="0"/>
  <stop stop-opacity="0" offset="1"/>
 </linearGradient>
 <radialGradient id="k" xlink:href="#j" gradientUnits="userSpaceOnUse" cy="486.65" cx="605.71" gradientTransform="matrix(-.032794 0 0 .015126 23.846 14.281)" r="117.14"/>
 <g opacity=".2" transform="translate(0 -1)">
  <path opacity="1" d="m4.0827 19.827h15.835v3.6734h-15.835z" fill="url(#h)"/>
  <path opacity="1" d="m19.917 19.827v3.6732c1.6888 0.0069 4.0827-0.82297 4.0827-1.8368s-1.8846-1.8363-4.0827-1.8363z" fill="url(#i)"/>
  <path opacity="1" d="m4.0827 19.827v3.6732c-1.6888 0.006915-4.0827-0.82297-4.0827-1.8368s1.8846-1.8363 4.0827-1.8363z" fill="url(#k)"/>
 </g>
 <path stroke-linejoin="round" d="m22.5 20.5h-20v-16h20z" stroke="url(#g)" stroke-width=".99992" fill="none"/>
 <path d="m3 5c4.3539 0 19 0.0009375 19 0.0009375l0.000024 14.999s-12.667 0-19 0v-15z" fill="url(#f)"/>
 <path stroke="url(#e)" stroke-linecap="round" d="m21.5 19.5h-18v-14h18z" fill="none"/>
 <path d="m4 6v13h17v-13z" fill="url(#d)"/>
 <path opacity=".05" d="m8.1084 13.363c-0.072735-0.0055-0.15451 0.000096-0.23697 0.02791-0.32184 0.10858-0.35875 0.32248-0.38749 0.42515-0.028735 0.10266-0.03468 0.18245-0.039352 0.26664-0.00934 0.16837-0.00208 0.34534 0.00586 0.5222 0.00651 0.14527 0.012305 0.2742 0.015154 0.38807-0.11099 0.02573-0.2333 0.05337-0.37416 0.08352-0.17654 0.03779-0.355 0.07562-0.51961 0.12742-0.082303 0.02591-0.15962 0.05205-0.25784 0.10808-0.049113 0.02801-0.10568 0.06133-0.1719 0.13469-0.066224 0.07336-0.14646 0.21132-0.14189 0.37801 0.00892 0.32542 0.21049 0.42382 0.30432 0.4814 0.093829 0.05758 0.16951 0.08689 0.25228 0.11698 0.16554 0.06019 0.34815 0.10899 0.52756 0.15617 0.14786 0.03889 0.2774 0.07553 0.39239 0.10803-0.00861 0.1083-0.020522 0.22799-0.033877 0.36434-0.016818 0.17167-0.033277 0.34305-0.032406 0.50816 0.0004358 0.08255 0.00232 0.16128 0.027923 0.26747 0.012793 0.0531 0.030065 0.11401 0.082828 0.1966 0.052764 0.08259 0.16349 0.19963 0.33159 0.24698 0.32751 0.09226 0.48855-0.05824 0.57516-0.1253 0.086609-0.06705 0.13995-0.12918 0.19568-0.19474 0.11147-0.13111 0.21535-0.28071 0.3181-0.42836 0.08451-0.12144 0.15964-0.22882 0.22766-0.32267 0.10568 0.04112 0.22197 0.08844 0.35456 0.14266 0.16612 0.06793 0.33419 0.1372 0.49933 0.18713 0.08257 0.02496 0.15975 0.0473 0.27375 0.05676 0.057 0.0047 0.12539 0.0089 0.2241-0.01344 0.09871-0.02238 0.24778-0.0876 0.34692-0.22492 0.19336-0.26784 0.09361-0.46266 0.05331-0.56179s-0.08453-0.16528-0.13284-0.23588c-0.09661-0.14119-0.21482-0.28105-0.33059-0.41934-0.09508-0.11357-0.17728-0.21445-0.24995-0.30472 0.07386-0.08297 0.15631-0.17336 0.25154-0.27659 0.11944-0.12948 0.2395-0.25933 0.34062-0.39344 0.05056-0.06705 0.09837-0.13172 0.14318-0.232 0.0224-0.05014 0.04672-0.10941 0.05498-0.20573 0.0083-0.09632-0.01097-0.25274-0.1176-0.38502-0.2079-0.2579-0.43156-0.22503-0.54299-0.21928-0.11143 0.0058-0.19251 0.02499-0.27808 0.04681-0.17114 0.04364-0.34872 0.10504-0.52303 0.16695-0.14369 0.05103-0.27 0.0958-0.38314 0.13366-0.05991-0.09235-0.12454-0.19596-0.19807-0.31393-0.0922-0.14792-0.18536-0.29642-0.28793-0.42928-0.051285-0.06643-0.098347-0.1286-0.1847-0.20013-0.043178-0.03577-0.096085-0.07714-0.18981-0.11431-0.046863-0.01859-0.11182-0.03544-0.18456-0.04095zm0.8408 1.1512c0.0025-0.000358 0.01724 0.0039 0.02057 0.0038-0.0059 0.0015-0.02274 0.0061-0.02613 0.0068-0.0083 0.0017-0.01458-0.0077 0.0056-0.01062zm0.30724 0.09917c0.0256 0.02035 0.02393 0.02946 0.01886 0.02358-0.0023-0.0027-0.01429-0.01772-0.01886-0.02358zm-1.5929 0.31992c0.020658-0.0093 0.022418 0.0032 0.015768 0.0057-0.00348 0.0013-0.023299 0.0062-0.030936 0.0086 0.003-0.0018 0.012711-0.01318 0.015173-0.01429zm-0.19756 0.24322c-0.0003811 0.0061 0.0004039 0.02313 0.0000204 0.02653-0.00102 0.0091-0.00917 0.0022-0.0000204-0.02653zm2.6127 0.48046c-0.0047-0.0078 0.0064-0.0064 0.01674 0.02121-0.0035-0.0052-0.01495-0.01826-0.01674-0.02121zm0.008 0.31013c-0.01235 0.02884-0.02274 0.03152-0.01843 0.02509 0.002-0.003 0.01389-0.01901 0.01843-0.02509zm-2.6007 0.50649c0.0002138 0.0035-0.0004271 0.02329-0.0003604 0.03092-0.00801-0.03061-0.0001219-0.03857 0.0003604-0.03092zm0.17419 0.26785c0.00559 0.0021 0.021678 0.0073 0.024803 0.0086 0.00882 0.0037 0.00116 0.0086-0.024803-0.0086zm1.64 0.2895c0.0065-0.0069 0.0075 0.0045-0.01824 0.02289 0.0046-0.0053 0.01564-0.02015 0.01824-0.02289zm-0.33801 0.09519c0.0038 0.000919 0.02335 0.0089 0.03153 0.01131-0.03279-0.0022-0.03929-0.01322-0.03153-0.01131z"/>
 <path opacity=".07" d="m4 5.9997v7.7637c0.37971 0.10787 0.87211 0.19607 1.4585 0.19607 1.4952 0 1.2818-0.53661 2.5693-0.53661s2.0458 0.87715 3.7864 0.87715c2.1558 0 2.6506-1.4138 4.3562-1.4138 1.3319 0 1.4319 0.77396 2.8977 0.77396 0.99024 0 1.3191-0.40659 1.9318-0.67076v-6.9898z"/>
 <path d="m4 5.9928v7.1445c0.25243 0.12435 0.57207 0.23735 0.91761 0.23735 0.78911 0 1.5608-0.68108 2.8784-0.68108s2.3086 0.85651 3.9699 0.85651 2.0352-1.2383 4.1534-1.2383c2.1182 0 1.9191 0.78428 3.2455 0.78428 0.91365 0 1.3038-0.34092 1.8352-0.55725v-6.5459z" fill="url(#c)"/>
 <g transform="translate(0 -1)" fill="#fff">
  <path opacity=".1" d="m15.919 11.807c-1.1128 0-1.8127 0.33663-2.3858 0.65012-0.57306 0.31349-1.0054 0.58821-1.7676 0.58821-0.78332 0-1.4024-0.19996-2.0188-0.41278-0.61633-0.21282-1.2327-0.44374-1.9511-0.44374-0.70624 0-1.274 0.17748-1.7386 0.35086-0.46461 0.17338-0.82443 0.33022-1.1398 0.33022-0.28552 0-0.56384-0.10428-0.79204-0.21671a0.29416 0.31427 0 0 0 -0.12557 -0.03096v1.3518c0.39113 0.10457 0.88178 0.18575 1.4585 0.18575 0.78051 0 1.1776-0.15218 1.4778-0.28894 0.30023-0.13676 0.48598-0.24766 1.0915-0.24766 0.58122 0 1.0488 0.20154 1.6227 0.4231 0.57396 0.22156 1.2471 0.45406 2.1636 0.45406 1.1381 0 1.879-0.38564 2.492-0.743s1.0874-0.67076 1.8642-0.67076c0.61261 0 0.89719 0.1661 1.275 0.36118 0.3778 0.19508 0.84135 0.41278 1.6227 0.41278 0.99506 0 1.4312-0.39443 1.9318-0.6398v-1.1867a0.29416 0.31427 0 0 0 -0.10625 0.02064c-0.58271 0.23722-0.88381 0.53661-1.729 0.53661-0.60894 0-0.79899-0.15586-1.1977-0.36118-0.39874-0.20532-0.95463-0.4231-2.0477-0.4231z"/>
  <path opacity=".3" d="m15.919 12.426c-2.1182 0-2.4921 1.2383-4.1534 1.2383s-2.6523-0.85651-3.9699-0.85651c-1.3176 0-2.0893 0.68108-2.8784 0.68108-0.34554 0-0.66519-0.11299-0.91761-0.23735v0.71204c0.37971 0.10787 0.87211 0.19607 1.4585 0.19607 1.4952 0 1.2818-0.53661 2.5693-0.53661s2.0458 0.87715 3.7864 0.87715c2.1558 0 2.6506-1.4138 4.3562-1.4138 1.3319 0 1.4319 0.77396 2.8977 0.77396 0.99024 0 1.3191-0.40659 1.9318-0.67076v-0.53661c-0.53139 0.21633-0.92158 0.55725-1.8352 0.55725-1.3264 0-1.1272-0.78428-3.2455-0.78428z"/>
  <path d="m15.919 12.926c-2.1182 0-2.4921 1.2383-4.1534 1.2383s-2.6523-0.85651-3.9699-0.85651c-1.3176 0-2.0893 0.68108-2.8784 0.68108-0.34554 0-0.66519-0.11299-0.91761-0.23735v0.71204c0.37971 0.10787 0.87211 0.19607 1.4585 0.19607 1.4952 0 1.2818-0.53661 2.5693-0.53661s2.0458 0.87715 3.7864 0.87715c2.1558 0 2.6506-1.4138 4.3562-1.4138 1.3319 0 1.4319 0.77396 2.8977 0.77396 0.99024 0 1.3191-0.40659 1.9318-0.67076v-0.53661c-0.53139 0.21633-0.92158 0.55725-1.8352 0.55725-1.3264 0-1.1272-0.78428-3.2455-0.78428z"/>
 </g>
 <path opacity=".3" stroke="#000" d="m4.5 6.5c3.6664 0 16 0.0007556 16 0.0007556l0.000018 11.999s-10.667 0-16 0v-12z" fill="none"/>
 <path opacity=".15" d="m7.9702 13.845c-0.18011 0.06076 0.030127 1.3677-0.083875 1.5137-0.11007 0.14097-1.4643 0.28389-1.4595 0.45944 0.00498 0.18182 1.378 0.39306 1.4886 0.54133 0.10678 0.14316-0.16909 1.4148 0.00778 1.4646 0.18319 0.0516 0.8198-1.1245 1.0021-1.1788 0.17606-0.05249 1.3596 0.58747 1.4641 0.44271 0.10823-0.14992-0.87019-1.0868-0.86809-1.2687 0.002-0.1756 1.009-1.05 0.89675-1.1893-0.11629-0.14426-1.3577 0.45057-1.5388 0.39253-0.17481-0.05604-0.73516-1.2361-0.90906-1.1775z"/>
 <path d="m8.0218 13.505c0.17396-0.05869 0.73612 1.123 0.91099 1.1791 0.18111 0.05806 1.4218-0.5383 1.5381-0.39399 0.11232 0.13934-0.89478 1.0139-0.89681 1.1896-0.0021 0.18193 0.97661 1.1207 0.86834 1.2707-0.10454 0.14481-1.2891-0.4964-1.4652-0.44389-0.18241 0.05438-0.81823 1.2309-1.0015 1.1793-0.17693-0.04984 0.098058-1.3207-0.00876-1.4639-0.11063-0.14832-1.4823-0.35995-1.4873-0.54183-0.00482-0.17561 1.3497-0.31984 1.4598-0.46086 0.11404-0.14605-0.097885-1.4534 0.082282-1.5142z" fill="url(#b)"/>
 <path opacity=".5" d="m8.0393 13.471-0.04821 0.04636c-0.000344 0.0011-0.0019 0.0014-0.0019 0.0021-0.096792 0.23422 0.058261 1.2592-0.03946 1.3843-0.0042 0.0052-0.01001 0.01243-0.017541 0.01766l0.039461 0.0265c0.79033 0.23672 0.098571-1.4277 0.07889-1.4748-0.0037-0.000698-0.0074-0.0025-0.01094-0.0021z" fill="#9d0f06"/>
 <path opacity=".75" d="m6.7536 15.427c-0.16634 0.0015-0.2626 0.0094-0.2626 0.0094v0.04c0.097563 0.17932 1.3904 0.3845 1.4982 0.52913 0.10805 0.14487-0.1696 1.4307 0.00936 1.4811 0.18536 0.05222 0.82838-1.1379 1.0129-1.1929 0.17705-0.05278 1.3609 0.58692 1.4795 0.45118l-0.002-0.0022c-0.99829-1.2238-3.0144-1.3218-3.7352-1.3157z" fill="url(#a)"/>
 <path stroke-linejoin="round" d="m13.634 8.6693 9.095 8.8273-4.1462 0.13375s1.7387 3.6112 1.7387 3.6112c0.535 1.605-1.8725 2.2068-2.2737 1.0031l-1.605-3.6112-2.943 3.143 0.134-13.108z" fill-rule="evenodd" stroke="#666" fill="url(#radialGradient2414)"/>
 <path opacity=".4" d="m14.64 11.059 5.731 5.5253-3.3036 0.09366s2.1174 4.5352 2.1174 4.5352c0.34733 0.61278-0.08254 0.97744-0.29127 0.42224 0 0-2.2067-4.6887-2.2067-4.6887l-2.1292 2.247 0.08242-8.1347z" stroke="#fff" fill="none"/>
</svg>
