<svg height="24" width="24" xmlns="http://www.w3.org/2000/svg" xmlns:xlink="http://www.w3.org/1999/xlink"><linearGradient id="a"><stop offset="0" stop-color="#fff"/><stop offset="0" stop-color="#fff" stop-opacity=".235"/><stop offset="1" stop-color="#fff" stop-opacity=".157"/><stop offset="1" stop-color="#fff" stop-opacity=".392"/></linearGradient><linearGradient id="b" gradientUnits="userSpaceOnUse" x1="12.00104" x2="12.00104" xlink:href="#a" y1="4.000301" y2="20.000076"/><radialGradient id="c" cx="4.993" cy="43.5" gradientTransform="matrix(2.00378 0 0 1.4 27.988 -17.4)" gradientUnits="userSpaceOnUse" r="2.5" xlink:href="#d"/><linearGradient id="d"><stop offset="0" stop-color="#181818"/><stop offset="1" stop-color="#181818" stop-opacity="0"/></linearGradient><radialGradient id="e" cx="4.993" cy="43.5" gradientTransform="matrix(2.00378 0 0 1.4 -20.012 -104.4)" gradientUnits="userSpaceOnUse" r="2.5" xlink:href="#d"/><linearGradient id="f" gradientUnits="userSpaceOnUse" x1="25.058" x2="25.058" y1="47.028" y2="39.999"><stop offset="0" stop-color="#181818" stop-opacity="0"/><stop offset=".5" stop-color="#181818"/><stop offset="1" stop-color="#181818" stop-opacity="0"/></linearGradient><linearGradient id="g" gradientUnits="userSpaceOnUse" x1="7.284" x2="17.171" y1="6.993" y2="16.88"><stop offset="0" stop-color="#8cd5ff"/><stop offset="1" stop-color="#9bdb4d" stop-opacity=".221"/></linearGradient><linearGradient id="h" gradientTransform="matrix(.6 0 0 .60315 21.828 -232.158)" gradientUnits="userSpaceOnUse" x1="-8.688" x2="-8.688" xlink:href="#a" y1="411.436" y2="414.752"/><linearGradient id="i" gradientTransform="matrix(.3618 0 0 .36374 13.485 -143.257)" gradientUnits="userSpaceOnUse" x1="-8.688" x2="-8.688" y1="410.109" y2="418.67"><stop offset="0" stop-color="#fff"/><stop offset=".42" stop-color="#fff" stop-opacity=".235"/><stop offset="1" stop-color="#fff" stop-opacity=".157"/><stop offset="1" stop-color="#fff" stop-opacity=".392"/></linearGradient><linearGradient id="j" gradientUnits="userSpaceOnUse" x1="2.382" x2="21.571" y1="2.544" y2="21.733"><stop offset="0" stop-color="#002e99"/><stop offset="1" stop-color="#206b00"/></linearGradient><g opacity=".4"><path d="m38 40h5v7h-5z" fill="url(#c)" transform="matrix(.57895 0 0 .42857 -1.895 2.857)"/><path d="m-10-47h5v7h-5z" fill="url(#e)" transform="matrix(-.57895 0 0 -.42857 -1.895 2.857)"/><path d="m10 40h28v7h-28z" fill="url(#f)" transform="matrix(.57895 0 0 .42857 -1.895 2.857)"/></g><path d="m14 2h4v4h-4zm-8 16h4v4h-4z" fill="#b3b3b3"/><path d="m2.5 18v2.5c0 .554.446 1 1 1h2.5v-3.5zm15.5-15.5v3.5h3.5v-2.5c0-.554-.446-1-1-1zm-4 3.5h4v4h-4zm-8 8h4v4h-4z" fill="#777"/><path d="m10 14h4v4h-4zm8-8h4v4h-4z" fill="#b3b3b3"/><path d="m10 10h4v4h-4zm0 8h4v4h-4zm8-8h4v4h-4z" fill="#777"/><path d="m14 10h4v4h-4z" fill="#b3b3b3"/><path d="m18 18v3.5h2.5c.554 0 1-.446 1-1v-2.5z" fill="#777"/><path d="m14 18h4v4h-4zm4-4h4v4h-4z" fill="#b3b3b3"/><path d="m14 14h4v4h-4z" fill="#777"/><rect fill="url(#g)" height="19" rx="1" width="19" x="2.5" y="2.5"/><path d="m3.5 3.5h17v17h-17z" fill="none" opacity=".5" stroke="url(#b)" stroke-linecap="round" stroke-linejoin="round"/><rect fill="none" height="19" opacity=".5" rx="1" stroke="url(#j)" stroke-linecap="round" stroke-linejoin="round" width="19" x="2.5" y="2.5"/><path d="m17.34 16.788-9.34-9.338-.522.522 9.342 9.338z" fill="#555761" stroke="#555761" stroke-width=".5"/><g stroke-linecap="round"><path d="m14.528 14.5h5v5h-5z" fill="#fafafa" stroke="#555761" stroke-linejoin="round" stroke-opacity=".75"/><path d="m15.528 15.5h3v3h-3z" fill="none" stroke="url(#h)"/><path d="m7.02 4.5c1.424.002 2.49 1.017 2.48 2.476-.01 1.577-.968 2.524-2.447 2.524-1.583 0-2.547-1.023-2.553-2.506-.006-1.507.96-2.496 2.52-2.494z" fill="#fafafa" stroke="#555761" stroke-linejoin="round" stroke-opacity=".75"/><path d="m6.984 5.493c.86.014 1.5.614 1.496 1.494-.006.95-.584 1.52-1.476 1.52-1.023.002-1.536-.513-1.54-1.51-.002-.98.58-1.52 1.52-1.504z" fill="none" stroke="url(#i)"/></g></svg>