<svg height="24" width="24" xmlns="http://www.w3.org/2000/svg" xmlns:xlink="http://www.w3.org/1999/xlink"><radialGradient id="a" cx="17" cy="10" gradientTransform="matrix(-2.80847 .4012 -.25 -1.75 67.244 20.68)" gradientUnits="userSpaceOnUse" r="6"><stop offset="0" stop-color="#737373"/><stop offset=".262" stop-color="#636363"/><stop offset=".705" stop-color="#4b4b4b"/><stop offset="1" stop-color="#3f3f3f"/></radialGradient><linearGradient id="b"><stop offset="0"/><stop offset="1" stop-opacity="0"/></linearGradient><linearGradient id="c" gradientTransform="matrix(.4054 0 0 .5135 2.27 -.324)" gradientUnits="userSpaceOnUse" x1="24" x2="24" y1="6.474" y2="41.526"><stop offset="0" stop-color="#fff"/><stop offset="0" stop-color="#fff" stop-opacity=".235"/><stop offset="1" stop-color="#fff" stop-opacity=".157"/><stop offset="1" stop-color="#fff" stop-opacity=".392"/></linearGradient><linearGradient id="d" gradientTransform="matrix(.48572 0 0 .4563 .343 .35)" gradientUnits="userSpaceOnUse" x1="25.132" x2="25.132" y1=".985" y2="47.013"><stop offset="0" stop-color="#f4f4f4"/><stop offset="1" stop-color="#dbdbdb"/></linearGradient><radialGradient id="e" cx="605.714" cy="486.648" gradientTransform="matrix(.01205 0 0 .00824 13.24 18.98)" gradientUnits="userSpaceOnUse" r="117.143" xlink:href="#b"/><radialGradient id="f" cx="605.714" cy="486.648" gradientTransform="matrix(-.01205 0 0 .00824 10.76 18.98)" gradientUnits="userSpaceOnUse" r="117.143" xlink:href="#b"/><linearGradient id="g" gradientTransform="matrix(.0352 0 0 .00824 -.725 18.98)" gradientUnits="userSpaceOnUse" x1="302.857" x2="302.857" y1="366.648" y2="609.505"><stop offset="0" stop-opacity="0"/><stop offset=".5"/><stop offset="1" stop-opacity="0"/></linearGradient><path d="m3.5 22h17v2h-17z" fill="url(#g)" opacity=".15"/><path d="m3.5 22v2c-.62.004-1.5-.448-1.5-1s.692-1 1.5-1z" fill="url(#f)" opacity=".15"/><path d="m20.5 22v2c.62.004 1.5-.448 1.5-1s-.692-1-1.5-1z" fill="url(#e)" opacity=".15"/><path d="m3.5 1.5h17v21h-17z" fill="url(#d)"/><path d="m19.5 21.5h-15v-19h15z" fill="none" stroke="url(#c)" stroke-linecap="round"/><g stroke="#000" stroke-linejoin="round"><path d="m3.5 1.5h17v21h-17z" fill="none" opacity=".3"/><path d="m14.02 11.5c-.287 0-.52.233-.52.52v1.48h-1.48c-.287 0-.52.233-.52.52v.96c0 .287.233.52.52.52h1.48v3h-1.48c-.287 0-.52.233-.52.52v.96c0 .287.233.52.52.52h1.48v1.48c0 .287.233.52.52.52h.96c.287 0 .52-.233.52-.52v-1.48h3v1.48c0 .287.233.52.52.52h.96c.287 0 .52-.233.52-.52v-1.48h1.48c.287 0 .52-.233.52-.52v-.96c0-.287-.233-.52-.52-.52h-1.48v-3h1.48c.287 0 .52-.233.52-.52v-.96c0-.287-.233-.52-.52-.52h-1.48v-1.48c0-.287-.233-.52-.52-.52h-.96c-.287 0-.52.233-.52.52v1.48h-3v-1.48c0-.287-.233-.52-.52-.52zm1.48 4h3v3h-3z" fill="url(#a)" stroke-miterlimit="0" stroke-opacity=".431"/></g></svg>