<svg height="24" width="24" xmlns="http://www.w3.org/2000/svg" xmlns:xlink="http://www.w3.org/1999/xlink"><linearGradient id="a" gradientTransform="matrix(.2818 0 0 .2801 12.197 12.015)" gradientUnits="userSpaceOnUse" x1="24.139" x2="24.139" xlink:href="#b" y1="10.631" y2="35.623001"/><linearGradient id="b"><stop offset="0" stop-color="#fff"/><stop offset="0" stop-color="#fff" stop-opacity=".235"/><stop offset="1" stop-color="#fff" stop-opacity=".157"/><stop offset="1" stop-color="#fff" stop-opacity=".392"/></linearGradient><linearGradient id="c" gradientTransform="matrix(.2818 0 0 .2801 12.18 12.022)" gradientUnits="userSpaceOnUse" x1="24.139" x2="24.139" xlink:href="#b" y1="21.341999" y2="24.912001"/><radialGradient id="d" cx="65.296997" cy="48.216" gradientTransform="matrix(0 .52545 -.57163 0 46.193 -21.124)" gradientUnits="userSpaceOnUse" r="31"><stop offset="0" stop-color="#cdf87e"/><stop offset=".262" stop-color="#a2e34f"/><stop offset=".661" stop-color="#68b723"/><stop offset="1" stop-color="#1d7e0d"/></radialGradient><radialGradient id="e" cx="605.71399" cy="486.64801" gradientTransform="matrix(.01205 0 0 .00824 13.24 17.98)" gradientUnits="userSpaceOnUse" r="117.143" xlink:href="#f"/><linearGradient id="f"><stop offset="0"/><stop offset="1" stop-opacity="0"/></linearGradient><linearGradient id="g" gradientTransform="matrix(.5135 0 0 .4054 -.33 3.265)" gradientUnits="userSpaceOnUse" x1="24" x2="24" y1="5.564" y2="43"><stop offset="0" stop-color="#fff"/><stop offset=".036" stop-color="#fff" stop-opacity=".235"/><stop offset=".951" stop-color="#fff" stop-opacity=".157"/><stop offset="1" stop-color="#fff" stop-opacity=".392"/></linearGradient><radialGradient id="h" cx="15.951" cy="8.6" gradientTransform="matrix(0 .9738 -1.34684 0 23.58 -6.308)" gradientUnits="userSpaceOnUse" r="18"><stop offset="0" stop-color="#90dbec"/><stop offset=".262" stop-color="#55c1ec"/><stop offset=".705" stop-color="#3689e6"/><stop offset="1" stop-color="#2b63a0"/></radialGradient><linearGradient id="i" gradientTransform="matrix(.4845 0 0 .34573 33.24 3.15)" gradientUnits="userSpaceOnUse" x1="-51.786" x2="-51.786" y1="53.624" y2="2.906"><stop offset="0" stop-color="#185f9a"/><stop offset="1" stop-color="#599ec9"/></linearGradient><linearGradient id="j" gradientTransform="matrix(.0352 0 0 .00824 -.725 18.98)" gradientUnits="userSpaceOnUse" x1="302.857" x2="302.857" y1="366.648" y2="609.505"><stop offset="0" stop-opacity="0"/><stop offset=".5"/><stop offset="1" stop-opacity="0"/></linearGradient><radialGradient id="k" cx="605.714" cy="486.648" gradientTransform="matrix(-.01205 0 0 .00824 8.76 17.98)" gradientUnits="userSpaceOnUse" r="117.143" xlink:href="#f"/><radialGradient id="l" cx="605.714" cy="486.648" gradientTransform="matrix(.01205 0 0 .00824 15.24 17.98)" gradientUnits="userSpaceOnUse" r="117.143" xlink:href="#f"/><g transform="translate(0 -2)"><path d="m1.5 22h21v2h-21z" fill="url(#j)" opacity=".15" transform="translate(0 -1)"/><path d="m1.5 21v2c-.62.004-1.5-.448-1.5-1s.692-1 1.5-1z" fill="url(#k)" opacity=".15"/><path d="m22.5 21v2c.62.004 1.5-.448 1.5-1s-.692-1-1.5-1z" fill="url(#l)" opacity=".15"/><g stroke-linejoin="round"><path d="m1.495 4.495h21v17h-21z" fill="url(#h)" stroke="url(#i)"/><g fill="none"><path d="m21.495 20.495h-19v-15h19z" opacity=".5" stroke="url(#g)" stroke-linecap="round"/><path d="m11.5 18.5h8.658m-.658 1v-6.79m-8.843-5.2-6.94-.02m.783-.77v9.355" opacity=".5" stroke="#fff" stroke-linecap="square"/></g></g><path d="m7 13.018h.993l.007.982h-.993zm2-.018h1l.007.982h-1zm2 0h2l.007.982h-2zm3 0 1.993.018.007.982-1.994-.018zm-7-2h2v1h-2zm3 0h1v1h-1.0000019zm2 0h2l.001 1h-2.001zm3 0h2v1h-2zm-8 4h2v1h-2zm3 0h1v1h-1zm2 0h1v1h-1zm2 0h1v1h-1.002zm2 0 1.012.013-.012.987-1.012-.013z" fill="#fff" opacity=".7"/></g><path d="m20.5 21v2c.62.004 1.5-.448 1.5-1s-.692-1-1.5-1z" fill="url(#e)" opacity=".15"/><path d="m16.482 16.507v-3h4v3h3v4h-3v3h-4v-3h-2.99v-4z" fill="url(#d)"/><g fill="none"><path d="m17.5 18.004v-3.504h2v3.5m0 1v3.5h-2v-3.5" opacity=".5" stroke="url(#a)"/><path d="m16.482 16.507v-3h4v3h3v4h-3v3h-4v-3h-2.99v-4z" opacity=".5" stroke="#0f5a00" stroke-linecap="round" stroke-linejoin="round"/><path d="m20 17.507 2.482-.007v2l-2.482.007m-3 0-2.5-.007v-2l2.5.007" opacity=".5" stroke="url(#c)"/></g></svg>