<svg viewBox="0 0 24 24" xmlns="http://www.w3.org/2000/svg" xmlns:xlink="http://www.w3.org/1999/xlink"><linearGradient id="a" gradientUnits="userSpaceOnUse" x1="17.277" x2="26.847" y1="10.055" y2="16.696"><stop offset="0" stop-color="#cd9ef7"/><stop offset="1" stop-color="#a56de2"/></linearGradient><linearGradient id="b" gradientTransform="matrix(0 -.59172 -.63517 0 30.523 33.108)" gradientUnits="userSpaceOnUse" x1="38.941" x2="20.576" y1="15.991" y2="15.991"><stop offset="0" stop-color="#fff"/><stop offset=".512" stop-color="#fff" stop-opacity=".235"/><stop offset=".585" stop-color="#fff" stop-opacity=".157"/><stop offset="1" stop-color="#fff" stop-opacity=".392"/></linearGradient><linearGradient id="c" gradientTransform="matrix(.4054 0 0 .5135 2.27 -.324)" gradientUnits="userSpaceOnUse" x1="24" x2="24" y1="6.474" y2="41.526"><stop offset="0" stop-color="#fff"/><stop offset="0" stop-color="#fff" stop-opacity=".235"/><stop offset="1" stop-color="#fff" stop-opacity=".157"/><stop offset="1" stop-color="#fff" stop-opacity=".392"/></linearGradient><linearGradient id="d" gradientTransform="matrix(.48572 0 0 .4563 .343 .35)" gradientUnits="userSpaceOnUse" x1="25.132" x2="25.132" y1=".985" y2="47.013"><stop offset="0" stop-color="#f4f4f4"/><stop offset="1" stop-color="#dbdbdb"/></linearGradient><radialGradient id="e" cx="605.714" cy="486.648" gradientTransform="matrix(.01205 0 0 .00824 13.24 18.98)" gradientUnits="userSpaceOnUse" r="117.143" xlink:href="#f"/><linearGradient id="f"><stop offset="0"/><stop offset="1" stop-opacity="0"/></linearGradient><radialGradient id="g" cx="605.714" cy="486.648" gradientTransform="matrix(-.01205 0 0 .00824 10.76 18.98)" gradientUnits="userSpaceOnUse" r="117.143" xlink:href="#f"/><linearGradient id="h" gradientTransform="matrix(.0352 0 0 .00824 -.725 18.98)" gradientUnits="userSpaceOnUse" x1="302.857" x2="302.857" y1="366.648" y2="609.505"><stop offset="0" stop-opacity="0"/><stop offset=".5"/><stop offset="1" stop-opacity="0"/></linearGradient><path d="m3.5 22h17v2h-17z" fill="url(#h)" opacity=".15"/><path d="m3.5 22v2c-.62.004-1.5-.448-1.5-1s.692-1 1.5-1z" fill="url(#g)" opacity=".15"/><path d="m20.5 22v2c.62.004 1.5-.448 1.5-1s-.692-1-1.5-1z" fill="url(#e)" opacity=".15"/><path d="m3.5 1.5h17v21h-17z" fill="url(#d)"/><path d="m19.5 21.5h-15v-19h15z" fill="none" stroke="url(#c)" stroke-linecap="round"/><path d="m3.446 1.482h17v21h-17z" fill="none" opacity=".3" stroke="#000" stroke-linejoin="round"/><g stroke-miterlimit="7" stroke-width="1.5"><path d="m23.193 25.327c5.627-4.905 3.627-12.905-4.873-13.12v-4.142l-9 6.905 9 6.905v-4.11c4.947-.193 7.718 4.318 4.182 7.563z" display="block" fill="url(#a)" stroke="#7239b3" stroke-linejoin="round" stroke-opacity=".693" transform="matrix(.66667 0 0 .66667 4.28 -.857)"/><path d="m24.514 22.922c2.428-2.844.905-10.267-7.15-9.716l-.087-3.15-6.34 4.913 6.34 4.87v-2.903c7.71-.745 7.962 4.835 7.236 5.985z" display="block" fill="none" opacity=".53" stroke="url(#b)" transform="matrix(.66667 0 0 .66667 4.28 -.857)"/></g></svg>