<svg height="24" width="24" xmlns="http://www.w3.org/2000/svg" xmlns:xlink="http://www.w3.org/1999/xlink"><linearGradient id="a" gradientUnits="userSpaceOnUse" x1="4.000001" x2="4.000001" y1="16" y2="17"><stop offset="0" stop-color="#fff"/><stop offset="0" stop-color="#fff" stop-opacity=".235"/><stop offset="1" stop-color="#fff" stop-opacity=".157"/><stop offset="1" stop-color="#fff" stop-opacity=".392"/></linearGradient><linearGradient id="b" gradientTransform="matrix(0 -.26666666 -1 0 7 18.633332)" gradientUnits="userSpaceOnUse" x1="15.999081" x2="-.00092" y1="2.500977" y2="2.500977"><stop offset="0" stop-color="#9bdb4d"/><stop offset="1" stop-color="#68b723"/></linearGradient><radialGradient id="c" cx="24.837" cy="36.421001" gradientTransform="matrix(-.27598 0 0 -.29583 24.324 24.82)" gradientUnits="userSpaceOnUse" r="15.645"><stop offset="0"/><stop offset="1" stop-opacity="0"/></radialGradient><linearGradient id="d" gradientUnits="userSpaceOnUse" x1="14" x2="14" y1="5" y2="18"><stop offset="0" stop-color="#ffa154"/><stop offset="1" stop-color="#f37329"/></linearGradient><linearGradient id="e" gradientTransform="matrix(0 -.5372 .57682 0 -15.997 27.866)" gradientUnits="userSpaceOnUse" x1="34.188385" x2="21.157856" y1="46.803162" y2="46.803162"><stop offset="0" stop-color="#fff"/><stop offset=".45" stop-color="#fff" stop-opacity=".235"/><stop offset=".65" stop-color="#fff" stop-opacity=".157"/><stop offset="1" stop-color="#fff" stop-opacity=".392"/></linearGradient><linearGradient id="f" gradientTransform="matrix(.48483606 0 0 .5270602 -.165352 -.400235)" gradientUnits="userSpaceOnUse" x1="24.060406" x2="24.060406" xlink:href="#A" y1="6.451322" y2="10.245955"/><linearGradient id="g" gradientTransform="matrix(.48483606 0 0 .5270602 4.833398 -.398827)" gradientUnits="userSpaceOnUse" x1="24.060406" x2="24.060406" xlink:href="#A" y1="6.451322" y2="10.245955"/><linearGradient id="h" gradientTransform="matrix(.48483606 0 0 .5270602 9.834648 -.400235)" gradientUnits="userSpaceOnUse" x1="24.060406" x2="24.060406" xlink:href="#A" y1="6.451322" y2="10.245955"/><linearGradient id="i" gradientTransform="matrix(.48483606 0 0 .5270602 14.833398 -.398827)" gradientUnits="userSpaceOnUse" x1="24.060406" x2="24.060406" xlink:href="#A" y1="6.451322" y2="10.245955"/><linearGradient id="j" gradientTransform="matrix(.48483606 0 0 .5270602 -.165352 4.599765)" gradientUnits="userSpaceOnUse" x1="24.060406" x2="24.060406" xlink:href="#A" y1="6.451322" y2="8.348639"/><linearGradient id="k" gradientTransform="matrix(.48483606 0 0 .5270602 4.833398 4.601173)" gradientUnits="userSpaceOnUse" x1="24.060406" x2="24.062983" xlink:href="#A" y1="6.451322" y2="8.345967"/><linearGradient id="l" gradientTransform="matrix(.48483606 0 0 .5270602 9.834648 4.599765)" gradientUnits="userSpaceOnUse" x1="24.060406" x2="24.060406" xlink:href="#A" y1="6.451322" y2="8.348639"/><linearGradient id="m" gradientTransform="matrix(.48483606 0 0 .5270602 14.833398 4.601173)" gradientUnits="userSpaceOnUse" x1="24.060406" x2="24.062983" xlink:href="#A" y1="6.451322" y2="8.345967"/><linearGradient id="n" gradientTransform="matrix(.48483606 0 0 .5270602 -.166602 8.601173)" gradientUnits="userSpaceOnUse" x1="24.060406" x2="24.060406" xlink:href="#A" y1="6.451322" y2="8.348639"/><linearGradient id="o" gradientTransform="matrix(.48483606 0 0 .5270602 4.832148 8.602581)" gradientUnits="userSpaceOnUse" x1="24.060406" x2="24.062983" xlink:href="#A" y1="6.451322" y2="8.345967"/><linearGradient id="p" gradientTransform="matrix(.48483606 0 0 .5270602 9.833398 8.601173)" gradientUnits="userSpaceOnUse" x1="24.060406" x2="24.060406" xlink:href="#A" y1="6.451322" y2="8.348639"/><linearGradient id="q" gradientTransform="matrix(.48483606 0 0 .5270602 14.832148 8.602581)" gradientUnits="userSpaceOnUse" x1="24.060406" x2="24.062983" xlink:href="#A" y1="6.451322" y2="8.345967"/><linearGradient id="r" gradientTransform="matrix(.48483606 0 0 .5270602 -.166602 12.601173)" gradientUnits="userSpaceOnUse" x1="24.060406" x2="24.060406" xlink:href="#A" y1="6.451322" y2="8.348639"/><linearGradient id="s" gradientTransform="matrix(.48483606 0 0 .5270602 4.832148 12.602581)" gradientUnits="userSpaceOnUse" x1="24.060406" x2="24.062983" xlink:href="#A" y1="6.451322" y2="8.345967"/><linearGradient id="t" gradientTransform="matrix(.48483606 0 0 .5270602 9.833398 12.601173)" gradientUnits="userSpaceOnUse" x1="24.060406" x2="24.060406" xlink:href="#A" y1="6.451322" y2="8.348639"/><linearGradient id="u" gradientTransform="matrix(.48483606 0 0 .5270602 14.832148 12.602581)" gradientUnits="userSpaceOnUse" x1="24.060406" x2="24.062983" xlink:href="#A" y1="6.451322" y2="8.345967"/><linearGradient id="v" gradientTransform="matrix(.48483606 0 0 .5270602 -.165352 16.599773)" gradientUnits="userSpaceOnUse" x1="24.060406" x2="24.060406" xlink:href="#A" y1="6.451322" y2="8.348639"/><linearGradient id="w" gradientTransform="matrix(.48483606 0 0 .5270602 4.833398 16.601181)" gradientUnits="userSpaceOnUse" x1="24.060406" x2="24.062983" xlink:href="#A" y1="6.451322" y2="8.345967"/><linearGradient id="x" gradientTransform="matrix(.48483606 0 0 .5270602 9.834648 16.599773)" gradientUnits="userSpaceOnUse" x1="24.060406" x2="24.060406" xlink:href="#A" y1="6.451322" y2="8.348639"/><linearGradient id="y" gradientTransform="matrix(.48483606 0 0 .5270602 14.833398 16.601181)" gradientUnits="userSpaceOnUse" x1="24.060406" x2="24.062983" xlink:href="#A" y1="6.451322" y2="8.345967"/><linearGradient id="z" gradientTransform="matrix(.46923147 0 0 .47243347 .238446 -.625575)" gradientUnits="userSpaceOnUse" x1="25.132275" x2="25.132275" xlink:href="#C" y1="15.499894" y2="48.395687"/><linearGradient id="A" gradientTransform="matrix(.48483606 0 0 .5270602 -.165352 -.400235)" gradientUnits="userSpaceOnUse" x1="24.060406" x2="24.060406" y1="6.451322" y2="10.245955"><stop offset="0" stop-color="#fff"/><stop offset="0" stop-color="#fff" stop-opacity=".235294"/><stop offset=".99999982" stop-color="#fff" stop-opacity=".156863"/><stop offset="1" stop-color="#fff" stop-opacity=".392157"/></linearGradient><linearGradient id="B" gradientUnits="userSpaceOnUse" x1="11" x2="11" xlink:href="#C" y1="2" y2="22"/><linearGradient id="C" gradientTransform="matrix(.44576989 0 0 .44993664 .801525 -.024539)" gradientUnits="userSpaceOnUse" x1="25.132275" x2="25.132275" y1="15.499894" y2="48.395687"><stop offset="0" stop-color="#fafafa"/><stop offset="1" stop-color="#e2e1de"/></linearGradient><g transform="matrix(-1 0 0 1 24 0)"><rect fill="url(#z)" height="21" rx=".555556" ry=".583334" stroke-width="1.051315" width="20" x="1.5" y="1.5"/><path d="m2.5371094 1.5c-.574146 0-1.0371021.4629634-1.0371094 1.0371094v3.6269531 10.8359375 4.462891c0 .574146.4629634 1.037109 1.0371094 1.037109h17.9257816c.574146 0 1.037109-.462963 1.037109-1.037109v-4.462891-10.8359375-3.6269531c.000007-.574146-.462963-1.0371094-1.037109-1.0371094z" fill="url(#B)" stroke="#000" stroke-opacity=".273077"/><path d="m6 2v4h-4v1h4v3h-4v1h4v3h-4v1h4v3h-4v1h4v3h1v-3h4v3h1v-3h4v3h1v-3h4v-1h-4v-3h4v-1h-4v-3h4v-1h-4v-3h4v-1h-4v-4h-1v4h-4v-4h-1v4h-4v-4zm1 5h4v3h-4zm5 0h4v3h-4zm-5 4h4v3h-4zm5 0h4v3h-4zm-5 4h4v3h-4zm5 0h4v3h-4z" fill-opacity=".27451"/><g fill="none" stroke-linecap="round" stroke-linejoin="round"><path d="m2.50125 2.498592 2.99875.001408.000004 3h-3.000004z" stroke="url(#f)"/><path d="m7.5 2.5 2.99875.00141.000004 3h-3.000004z" stroke="url(#g)"/><path d="m12.50125 2.498592 2.99875.001408.000004 3h-3.000004z" stroke="url(#h)"/><path d="m17.5 2.5 2.99875.00141.000004 3h-3.000004z" stroke="url(#i)"/><path d="m2.50125 7.498592 2.99875.001408.00125 1.99859h-3.000004z" stroke="url(#j)"/><path d="m7.5 7.5 2.99875.00141.00125 1.99859h-3.000004z" stroke="url(#k)"/><path d="m12.50125 7.498592 2.99875.001408.0013 1.99859h-3.000004z" stroke="url(#l)"/><path d="m17.5 7.5 2.99875.00141.00125 1.99859h-3.000004z" stroke="url(#m)"/><path d="m2.5 11.5 2.99875.0014.00125 1.998598h-3.000004z" stroke="url(#n)"/><path d="m7.49875 11.501408 2.99875.0014.0012 1.99859h-2.999954z" stroke="url(#o)"/><path d="m12.5 11.5 2.99875.0014.0013 1.99859h-3.000004z" stroke="url(#p)"/><path d="m17.49875 11.501408 2.99875.0014.0013 1.99859h-3.000004z" stroke="url(#q)"/><path d="m2.5 15.5 2.99875.0014.00125 1.998598h-3.000004z" stroke="url(#r)"/><path d="m7.49875 15.501408 2.99875.0014.0012 1.99859h-2.999954z" stroke="url(#s)"/><path d="m12.5 15.5 2.99875.0014.0013 1.99859h-3.000004z" stroke="url(#t)"/><path d="m17.49875 15.501408 2.99875.0014.0013 1.99859h-3.000004z" stroke="url(#u)"/><path d="m2.50125 19.4986 2.99875.0014.00125 1.998598h-3.000004z" stroke="url(#v)"/><path d="m7.5 19.500008 2.99875.0014.0012 1.99859h-2.999954z" stroke="url(#w)"/><path d="m12.50125 19.4986 2.99875.0014.0013 1.99859h-3.000004z" stroke="url(#x)"/><path d="m17.5 19.500008 2.99875.0014.0013 1.99859h-3.000004z" stroke="url(#y)"/></g><path d="m1.5 18.5v-4h4.9999999v4z" fill="url(#b)" stroke-width=".436436"/><path d="m18 14c-.554 0-1 .446-1 1v3c0 .554.446 1 1 1h4c.554 0 1-.446 1-1v-3c0-.554-.446-1-1-1zm0 1h4v3h-4z" fill="#206b00" fill-opacity=".501961" transform="matrix(-1 0 0 1 24 0)"/><path d="m2.5000014 15.5h3v2h-3z" fill="none" opacity=".5" stroke="url(#a)" stroke-linecap="square"/></g><path d="m13.152 14.045a4.318 4.628 0 1 1 8.635 0 4.318 4.628 0 0 1 -8.635 0z" fill="url(#c)" fill-rule="evenodd" opacity=".141" transform="matrix(.99999997 0 0 .99999997 -9.999998 6)"/><path d="m16.5 17.5 7-6-7-6v4h-6v4h6z" style="display:block;stroke:#a62100;stroke-linecap:round;stroke-linejoin:round;stroke-opacity:.501961;fill:url(#d)" transform="matrix(.99999997 0 0 .99999997 -9.999998 6)"/><path d="m17.5 15.287966 4.443989-3.787966-4.443989-3.8228814v2.8228814h-6v2h6z" display="block" fill="none" opacity=".5" stroke="url(#e)" stroke-miterlimit="7" transform="matrix(.99999997 0 0 .99999997 -9.999998 6)"/></svg>