<svg height="24" width="24" xmlns="http://www.w3.org/2000/svg" xmlns:xlink="http://www.w3.org/1999/xlink"><linearGradient id="a" gradientTransform="matrix(0 -.5372019 -.57681717 0 49.997188 27.865617)" gradientUnits="userSpaceOnUse" x1="40.957993" x2="18.680689" y1="46.97065" y2="46.97065"><stop offset="0" stop-color="#fff"/><stop offset=".45000002" stop-color="#fff" stop-opacity=".235294"/><stop offset=".65000004" stop-color="#fff" stop-opacity=".156863"/><stop offset="1" stop-color="#fff" stop-opacity=".392157"/></linearGradient><linearGradient id="b" gradientTransform="matrix(-.4766877 0 0 .44382351 28.94314 3.441469)" gradientUnits="userSpaceOnUse" x1="23.731871" x2="23.731871" y1="5.394345" y2="40.783871"><stop offset="0" stop-color="#f0c1ff"/><stop offset=".26238" stop-color="#c5a3f2"/><stop offset=".704952" stop-color="#7a36b1"/><stop offset="1" stop-color="#4c2d81"/></linearGradient><radialGradient id="c" cx="24.837126" cy="36.421127" gradientTransform="matrix(-.27598143 0 0 -.29583148 24.323798 24.819207)" gradientUnits="userSpaceOnUse" r="15.644737"><stop offset="0"/><stop offset="1" stop-opacity="0"/></radialGradient><linearGradient id="d" gradientTransform="matrix(.48806853 0 0 .48717974 .303692 -.163629)" gradientUnits="userSpaceOnUse" x1="20" x2="20" y1="43" y2="3"><stop offset="0" stop-color="#aaa"/><stop offset="1" stop-color="#c8c8c8"/></linearGradient><linearGradient id="e" gradientUnits="userSpaceOnUse" x1="12.001243" x2="12.001243" y1="3.996808" y2="20.000873"><stop offset="0" stop-color="#fff"/><stop offset=".01966729" stop-color="#fff" stop-opacity=".235294"/><stop offset=".99149066" stop-color="#fff" stop-opacity=".156863"/><stop offset="1" stop-color="#fff" stop-opacity=".392157"/></linearGradient><radialGradient id="f" cx="7.495683" cy="8.449767" gradientTransform="matrix(0 .8950525 -.94685877 -.00000002 20.000788 -3.440166)" gradientUnits="userSpaceOnUse" r="19.99999"><stop offset="0" stop-color="#f4f4f4"/><stop offset="1" stop-color="#dbdbdb"/></radialGradient><radialGradient id="g" cx="4.992979" cy="43.5" gradientTransform="matrix(2.003784 0 0 1.4 27.98813 -17.4)" gradientUnits="userSpaceOnUse" r="2.5" xlink:href="#h"/><linearGradient id="h"><stop offset="0" stop-color="#181818"/><stop offset="1" stop-color="#181818" stop-opacity="0"/></linearGradient><radialGradient id="i" cx="4.992979" cy="43.5" gradientTransform="matrix(2.003784 0 0 1.4 -20.01187 -104.4)" gradientUnits="userSpaceOnUse" r="2.5" xlink:href="#h"/><linearGradient id="j" gradientUnits="userSpaceOnUse" x1="25.058096" x2="25.058096" y1="47.027729" y2="39.999443"><stop offset="0" stop-color="#181818" stop-opacity="0"/><stop offset=".5" stop-color="#181818"/><stop offset="1" stop-color="#181818" stop-opacity="0"/></linearGradient><mask id="k"><path d="m303.54129 125.90525h23.375v22.5h-23.375z" fill="url(#l)"/></mask><linearGradient id="l" gradientUnits="userSpaceOnUse" x1="316.472471" x2="317.623691" y1="138.89748" y2="141.19508"><stop offset="0" stop-color="#fff"/><stop offset="1"/></linearGradient><linearGradient id="m" gradientTransform="matrix(.7811541 -.03481362 -.03481362 .7811541 70.230423 94.3198)" gradientUnits="userSpaceOnUse" x1="309.29663" x2="335.30014" y1="67.297691" y2="81.926315"><stop offset="0" stop-color="#d3d7cf"/><stop offset=".18303643" stop-color="#babdb6"/><stop offset=".31893486" stop-color="#fff"/><stop offset=".87643671" stop-color="#babdb6"/><stop offset="1" stop-color="#eeeeec"/></linearGradient><linearGradient id="n" gradientTransform="matrix(.7811541 -.03481362 -.03481362 .7811541 70.230423 94.3198)" gradientUnits="userSpaceOnUse" x1="324.49731" x2="330.06076" y1="70.282364" y2="99.273735"><stop offset="0" stop-color="#888a85"/><stop offset="1" stop-color="#555753"/></linearGradient><linearGradient id="o" gradientTransform="matrix(.801996 0 0 .7960034 69.746815 998.18246)" gradientUnits="userSpaceOnUse" x1="302.29202" x2="308.64914" y1="58.442768" y2="60.767513"><stop offset="0" stop-color="#babdb6"/><stop offset="1" stop-color="#fff"/></linearGradient><g opacity=".4" transform="matrix(.5789476 0 0 .42857134 -1.894738 2.857126)"><path d="m38 40h5v7h-5z" fill="url(#g)"/><path d="m-10-47h5v7h-5z" fill="url(#i)" transform="scale(-1)"/><path d="m10 40h28v7.000001h-28z" fill="url(#j)"/></g><rect fill="url(#f)" height="18" rx=".5" width="18" x="3" y="3"/><rect fill="none" height="19" opacity=".3" rx="1" stroke="#000" stroke-linecap="round" stroke-linejoin="round" width="19" x="2.5" y="2.5"/><path d="m3.501246 3.498756h17v17h-17z" fill="none" stroke="url(#e)" stroke-linecap="round" stroke-linejoin="round"/><path d="m11.514015 3.825155a1.4329316 1.4303221 0 0 0 -.686346.197917l-5.384006 3.105771a1.4329316 1.4303221 0 0 0 -.686347.989583 1.4329316 1.4303221 0 0 0 -.01525 0 1.4329316 1.4303221 0 0 0 -.472816 1.065706l-.03051 6.196318a1.4329316 1.4303221 0 0 0  .488069 1.065705 1.4329316 1.4303221 0 0 0 0 .01522 1.4329316 1.4303221 0 0 0  .701599 1.020032l5.368753 3.075322a1.4329316 1.4303221 0 0 0 1.174416.106571 1.4329316 1.4303221 0 0 0  .01525 0 1.4329316 1.4303221 0 0 0 1.220171-.09134l5.368754-3.090547a1.4329316 1.4303221 0 0 0  .686346-.974359 1.4329316 1.4303221 0 0 0  .533826-1.096155v-6.196317a1.4329316 1.4303221 0 0 0 -.488068-1.065704 1.4329316 1.4303221 0 0 0 -.701599-1.020033l-5.384006-3.090546a1.4329316 1.4303221 0 0 0 -1.174414-.121795 1.4329316 1.4303221 0 0 0 -.533826-.09135z" fill="url(#d)" opacity=".05"/><path d="m13.151556 14.044686a4.317657 4.6282081 0 1 1 8.635314 0 4.317657 4.6282081 0 0 1 -8.635314 0z" fill="url(#c)" fill-rule="evenodd" opacity=".141176"/><path d="m17.5 17.221611-7-5.673017 7-5.6960218v3.6474278h6v4h-6z" display="block" fill="url(#b)"/><path d="m16.5 15.111422-4.434589-3.562828 4.434589-3.6228751v2.5742811h6v2h-6z" style="display:block;opacity:.401;fill:none;stroke-width:.963925;stroke-miterlimit:7;stroke:url(#a)"/><path d="m17.5 17.221611-7-5.673017 7-5.696022v3.6474278h6v4.0000002h-6z" fill="none" opacity=".5" stroke="#6326b9" stroke-linejoin="round"/><g transform="matrix(.86159974 0 0 .86159974 3.285686 3.110525)"><path d="m14.999984 11.580757c-.05244.01567-.08675.04907-.125.09375-.07653.08936-.11515.216835-.0625.3125l1.40625 2.65625c.125982.239363.04748.573495-.1875.90625-.237231.335907-.608047.688579-1.09375.96875-.485808.28024-.977944.437605-1.375.46875-.394711.03099-.717447-.07247-.84375-.3125l-1.40625-2.6875c-.03935-.07451-.100938-.118741-.1875-.125-.08652-.0061-.189081.02655-.25.09375-.03284.03499-.04982.0798-.0625.125-.351964 1.288231-.265359 2.739563.25 3.71875.703824 1.337255 2.271665 1.940224 3.84375 1.59375.627816.186403-.460557-1.026545.497159-.07386l4.887516.28125-.540925-1.082386c-.863354-.858809-1.28426-1.620936-1.5-2.21875.248089-.850827.189199-1.756137-.21875-2.53125-.51516-.97876-1.649372-1.810281-2.875-2.1875-.05255-.01719-.103808-.01567-.15625 0z" style="opacity:.4;fill:none;stroke:#000;stroke-width:2;stroke-linecap:round;stroke-linejoin:round;stroke-dashoffset:.3612"/><g enable-background="new" mask="url(#k)" transform="matrix(.8686611 0 0 .8704732 -253.90735 -98.906489)"><path d="m319.39329 139.2285-4.34206-4.35975c-.99389-.9866-1.50014-1.84777-1.7485-2.53454.2856-.97743.2328-2.00504-.23683-2.89549-.59305-1.1244-1.89986-2.08374-3.3108-2.51709-.12099-.0395-.25795.00092-.34601.10358-.0881.10266-.10892.24521-.0483.35511l1.61439 3.06837c.14503.27498.0466.64136-.22391 1.02363-.2731.38589-.71642.77909-1.27556 1.10095-.55926.32194-1.11244.50954-1.56953.54532-.45439.0356-.8053-.0744-.9507-.35014l-1.62416-3.08537c-.0453-.0856-.1291-.13927-.22875-.14646-.0996-.007-.20234.0334-.27247.1106h-.00001c-.0378.0402-.0658.0881-.0804.14003-.40518 1.47992-.31949 3.15578.27379 4.28067.81024 1.53624 2.61048 2.20625 4.42026 1.80822.72274.21414 1.6718.71421 2.77432 1.80865l3.29554 3.21095" style="fill-rule:evenodd;stroke-width:1.149998;stroke-linecap:round;stroke-linejoin:round;stroke-dashoffset:.3612;fill:url(#m);stroke:url(#n)"/><path d="m314.50598 1039.6243c.015.01.006.025 0 .025l1.80449 3.2089c.24343.4323.0678.9428-.22556 1.3681-.29634.4296-.75548.8457-1.35337 1.1692-.59917.3241-1.22764.4798-1.75437.4975-.52558.018-1.01891-.1313-1.25311-.5473l-1.8045-3.2337c-.0104 0-.0268 0-.0251 0 .0165-.018.003.013 0 .025-.33275 1.4234-.16017 3.0685.45113 4.1542.83618 1.485 2.58195 2.1944 4.31073 1.8905 1.72065-.3057 3.19191-1.7936 3.55886-3.2089.23171-.9167.13299-1.9018-.35088-2.7611-.60963-1.0827-1.95075-2.1023-3.35835-2.5871z" fill="url(#o)" fill-rule="evenodd" transform="translate(-5.083714 -912.59475)"/><path d="m310.21875 127.75 1.25 2.4375c.28894.54782.085 1.12046-.25 1.59375-.33855.47839-.8542.92749-1.46875 1.28125-.60688.34935-1.22432.57896-1.8125.625-.2801.0219-.5499-.002-.8125-.0937-.2626-.0921-.51362-.29205-.65625-.5625l-1.25-2.375c-.17286 1.16401-.0996 2.37485.3125 3.15625.68338 1.29573 2.17648 1.88419 3.78125 1.53125.0917-.0238.18952-.0238.28125 0 .82317.2439 1.87487.7896 3.03125 1.9375l4.03032 3.84651 2.65917-1.37343-4.65824-4.47313c-1.04139-1.03374-1.59436-1.97397-1.875-2.75-.0358-.11084-.0358-.23291 0-.34375.24916-.8527.1772-1.74925-.21875-2.5-.41054-.77836-1.32353-1.47359-2.34375-1.9375z" style="fill:none;stroke:#fff;stroke-width:.574999;stroke-linecap:round;stroke-linejoin:round;stroke-dashoffset:.3612"/><path d="m318.61464 140.71739-.12501.12501c-.34845.34845-1.18936.0686-1.88545-.6275l-4.17573-3.67032c-.69609-.69609-.97595-1.537-.6275-1.88546l.125-.125c.34846-.34845 1.18937-.0686 1.88546.6275l4.17573 3.67032c.69609.69609.97595 1.537.6275 1.88545z" fill-rule="evenodd" opacity=".08"/></g></g></svg>