<svg height="24" width="24" xmlns="http://www.w3.org/2000/svg" xmlns:xlink="http://www.w3.org/1999/xlink"><linearGradient id="a" gradientUnits="userSpaceOnUse" x1="12.001243" x2="12.001243" y1="5" y2="19.914931"><stop offset="0" stop-color="#fff"/><stop offset=".01652508" stop-color="#fff" stop-opacity=".235294"/><stop offset=".98001981" stop-color="#fff" stop-opacity=".156863"/><stop offset="1" stop-color="#fff" stop-opacity=".392157"/></linearGradient><radialGradient id="b" cx="4.992979" cy="43.5" gradientTransform="matrix(2.003784 0 0 1.4 29.714934 -17.4)" gradientUnits="userSpaceOnUse" r="2.5" xlink:href="#c"/><linearGradient id="c"><stop offset="0" stop-color="#181818"/><stop offset="1" stop-color="#181818" stop-opacity="0"/></linearGradient><radialGradient id="d" cx="4.992979" cy="43.5" gradientTransform="matrix(2.003784 0 0 1.4 -18.284598 -104.4)" gradientUnits="userSpaceOnUse" r="2.5" xlink:href="#c"/><linearGradient id="e" gradientTransform="matrix(1.1234054 0 0 1 -2.961737 0)" gradientUnits="userSpaceOnUse" x1="25.058096" x2="25.058096" y1="47.027729" y2="39.999443"><stop offset="0" stop-color="#181818" stop-opacity="0"/><stop offset=".5" stop-color="#181818"/><stop offset="1" stop-color="#181818" stop-opacity="0"/></linearGradient><radialGradient id="f" cx="7.685578" cy="5.959014" gradientTransform="matrix(0 1.1500005 -1.2044328 -.00000002 19.177231 -8.838419)" gradientUnits="userSpaceOnUse" r="19.99999"><stop offset="0" stop-color="#fafafa"/><stop offset="1" stop-color="#e1e1e1"/></radialGradient><linearGradient id="g" gradientUnits="userSpaceOnUse" x1="14" x2="14" y1="5" y2="7"><stop offset="0" stop-color="#e5e5e5"/><stop offset="1" stop-color="#d4d4d4"/></linearGradient><radialGradient id="h" cx="24.837126" cy="36.421127" gradientTransform="matrix(.27598143 0 0 -.29583148 9.676194 24.819207)" gradientUnits="userSpaceOnUse" r="15.644737"><stop offset="0"/><stop offset="1" stop-opacity="0"/></radialGradient><linearGradient id="i" gradientUnits="userSpaceOnUse" x1="17.129183" x2="17.129183" y1="6.5" y2="18.201637"><stop offset="0" stop-color="#cd9ef7"/><stop offset="1" stop-color="#a56de2"/></linearGradient><linearGradient id="j" gradientTransform="matrix(.58603996 0 0 .33333609 17.884286 2.442686)" gradientUnits="userSpaceOnUse" x1="5.03216" x2="5.03216" y1="28.671696" y2="29.671688"><stop offset="0" stop-color="#fff"/><stop offset="0" stop-color="#fff" stop-opacity=".235294"/><stop offset="1" stop-color="#fff" stop-opacity=".392157"/></linearGradient><linearGradient id="k" gradientTransform="matrix(.68959699 0 0 .63823543 17.618529 -5.989018)" gradientUnits="userSpaceOnUse" x1="-2.521394" x2="-2.521394" y1="22.402153" y2="35.268829"><stop offset="0" stop-color="#fff"/><stop offset=".51999998" stop-color="#fff" stop-opacity=".235294"/><stop offset=".51999998" stop-color="#fff" stop-opacity=".156863"/><stop offset="1" stop-color="#fff" stop-opacity=".392157"/></linearGradient><g opacity=".4" transform="matrix(.5789476 0 0 .42857134 -1.894738 2.857146)"><path d="m39.726803 40h5v7h-5z" fill="url(#b)"/><path d="m-8.272728-47h5v7h-5z" fill="url(#d)" transform="scale(-1)"/><path d="m8.272317 40h31.455351v7.000001h-31.455351z" fill="url(#e)"/></g><rect fill="url(#f)" height="17" rx=".5" width="20" x="2" y="4"/><path d="m2.5 3.5c-.554 0-1 .446-1 1v4.5h21v-4.5c0-.554-.446-1-1-1z" fill="url(#g)"/><g fill="none"><rect height="18.000027" opacity=".3" rx="1" stroke="#0e141f" stroke-linecap="round" stroke-linejoin="round" width="21" x="1.5" y="3.5"/><path d="m2.5 4.5h19v15.998756h-19z" opacity=".7" stroke="url(#a)" stroke-linecap="round" stroke-linejoin="round"/><path d="m2 8.5h20" opacity=".2" stroke="#000"/></g><path d="m20.848436 14.044686a4.317657 4.6282081 0 1 0 -8.635314 0 4.317657 4.6282081 0 0 0 8.635314 0z" fill="url(#h)" fill-rule="evenodd" opacity=".141176"/><path d="m17.129183 6.5c-.129184 0-.228749.10128-.285156.126255-.0048.0054-.01041.01065-.01553.01578l-6.224035 5.103413c-.0657.06681-.104463.157237-.104463.256748 0 .0988.03876.184234.104463.255315l6.224036 5.103361c.0051.0051.01072.01037.01553.01577.07024.07606.167788.123358.285157.123358.218072 0 .370816-.158254.370816-.371495v-3.262028c-.000137-.199024.18217-.365761.392893-.365761h5.245713c.206604 0 .361385-.157269.361385-.367193v-2.267765c0-.209925-.154781-.367193-.361385-.367193h-5.281009c-.19344-.01837-.357729-.177038-.3576-.364322v-3.267049c0-.190944-.223285-.367194-.370815-.367194z" fill="url(#i)" stroke="#452981" stroke-linecap="round" stroke-linejoin="round" stroke-opacity=".5"/><g fill="none"><path d="m17.499996 12.499999h5.000005v-1.000006h-5.000005" opacity=".5" stroke="url(#j)" stroke-width=".999992"/><path d="m17.558569 12.499997c-.567826.000171-1.058388.877889-1.058573 1.405861v1.864008l-4.635221-3.778715 4.635221-3.789885v2.13906c0 .599342.699145 1.159576 1 1.159667" opacity=".5" stroke="url(#k)"/></g></svg>