<svg xmlns="http://www.w3.org/2000/svg" xmlns:xlink="http://www.w3.org/1999/xlink" height="24" width="24"><defs><radialGradient gradientTransform="matrix(0 .52545 -.57163 0 46.193 -21.124)" gradientUnits="userSpaceOnUse" xlink:href="#a" id="k" fy="48.216" fx="65.297" r="31" cy="48.216" cx="65.297"/><linearGradient id="a"><stop offset="0" stop-color="#cdf87e"/><stop offset=".262" stop-color="#a2e34f"/><stop offset=".661" stop-color="#68b723"/><stop offset="1" stop-color="#1d7e0d"/></linearGradient><linearGradient gradientTransform="matrix(.2818 0 0 .2801 12.197 12.015)" gradientUnits="userSpaceOnUse" xlink:href="#b" id="l" y2="35.623" x2="24.139" y1="10.631" x1="24.139"/><linearGradient id="b"><stop offset="0" stop-color="#fff"/><stop offset="0" stop-color="#fff" stop-opacity=".235"/><stop offset="1" stop-color="#fff" stop-opacity=".157"/><stop offset="1" stop-color="#fff" stop-opacity=".392"/></linearGradient><linearGradient gradientTransform="matrix(.2818 0 0 .2801 12.18 12.022)" gradientUnits="userSpaceOnUse" xlink:href="#c" id="m" y2="24.912" x2="24.139" y1="21.342" x1="24.139"/><linearGradient id="c"><stop offset="0" stop-color="#fff"/><stop offset="0" stop-color="#fff" stop-opacity=".235"/><stop offset="1" stop-color="#fff" stop-opacity=".157"/><stop offset="1" stop-color="#fff" stop-opacity=".392"/></linearGradient></defs><linearGradient id="j" gradientTransform="matrix(.5135 0 0 .4054 -.33 3.265)" gradientUnits="userSpaceOnUse" x1="24" x2="24" y1="5.564" y2="43"><stop offset="0" stop-color="#fff"/><stop offset=".036" stop-color="#fff" stop-opacity=".235"/><stop offset=".951" stop-color="#fff" stop-opacity=".157"/><stop offset="1" stop-color="#fff" stop-opacity=".392"/></linearGradient><radialGradient id="h" cx="15.951" cy="8.6" gradientTransform="matrix(0 .9738 -1.34684 0 23.58 -6.308)" gradientUnits="userSpaceOnUse" r="18"><stop offset="0" stop-color="#90dbec"/><stop offset=".262" stop-color="#55c1ec"/><stop offset=".705" stop-color="#3689e6"/><stop offset="1" stop-color="#2b63a0"/></radialGradient><linearGradient id="i" gradientTransform="matrix(.4845 0 0 .34573 33.24 3.15)" gradientUnits="userSpaceOnUse" x1="-51.786" x2="-51.786" y1="53.624" y2="2.906"><stop offset="0" stop-color="#185f9a"/><stop offset="1" stop-color="#599ec9"/></linearGradient><linearGradient id="e" gradientTransform="matrix(.0352 0 0 .00824 -.725 18.98)" gradientUnits="userSpaceOnUse" x1="302.857" x2="302.857" y1="366.648" y2="609.505"><stop offset="0" stop-opacity="0"/><stop offset=".5"/><stop offset="1" stop-opacity="0"/></linearGradient><radialGradient id="f" cx="605.714" cy="486.648" gradientTransform="matrix(-.01205 0 0 .00824 10.76 18.98)" gradientUnits="userSpaceOnUse" r="117.143" xlink:href="#d"/><linearGradient id="d"><stop offset="0"/><stop offset="1" stop-opacity="0"/></linearGradient><radialGradient id="g" cx="605.714" cy="486.648" gradientTransform="matrix(.01205 0 0 .00824 13.24 18.98)" gradientUnits="userSpaceOnUse" r="117.143" xlink:href="#d"/><path d="M3.5 22h17v2h-17z" fill="url(#e)" opacity=".15" transform="translate(0 -1)"/><path d="M3.5 22v2c-.62.004-1.5-.448-1.5-1s.692-1 1.5-1z" fill="url(#f)" opacity=".15" transform="translate(0 -1)"/><path d="M20.5 22v2c.62.004 1.5-.448 1.5-1s-.692-1-1.5-1z" fill="url(#g)" opacity=".15" transform="translate(0 -1)"/><g stroke-linejoin="round"><path d="M1.495 4.495h21v17h-21v-17z" fill="url(#h)" stroke="url(#i)"/><g fill="none"><path d="M21.495 20.495h-19v-15h19z" opacity=".5" stroke="url(#j)" stroke-linecap="round"/><g stroke="#fff" stroke-linecap="square"><path d="M11.5 18.5h8.658M19.5 19.5v-6.79M10.657 7.51l-6.94-.02m.783-.77v9.355" opacity=".5"/></g></g></g><path d="M7 13.132h1.162v.745H7zm2.04 0h1.17v.745H9.04zm1.827 0h2.228v.745h-2.228zm3.24 0h1.886v.745h-1.887zM7 11.114h2.13v.78H7zm2.777 0h1.368v.78H9.777zm2.06 0h2.275v.78h-2.276zm3.07 0h2.08v.78h-2.08zM7 15.127h1.897v.76H7zm2.778 0h1.763v.76H9.78zm2.267 0h1.1v.76h-1.1zm1.757 0h1.147v.76H13.8zm1.94 0h1.27v.76h-1.27z" fill="#fff" opacity=".7"/><g><path d="M16.482 16.507v-3h4v3h3v4h-3v3h-4v-3h-2.99v-4z" color="#000" overflow="visible" fill="url(#k)"/><path d="M17.5 18.004V14.5h2V18m0 1v3.5h-2V19" opacity=".5" fill="none" stroke="url(#l)"/><path d="M16.482 16.507v-3h4v3h3v4h-3v3h-4v-3h-2.99v-4z" style="isolation:auto;mix-blend-mode:normal" color="#000" overflow="visible" opacity=".5" solid-color="#000000" fill="none" stroke="#0f5a00" stroke-linecap="round" stroke-linejoin="round"/><path d="M20 17.507l2.482-.007v2L20 19.507m-3 0l-2.5-.007v-2l2.5.007" opacity=".5" fill="none" stroke="url(#m)"/></g></svg>