<svg height="24" width="24" xmlns="http://www.w3.org/2000/svg" xmlns:xlink="http://www.w3.org/1999/xlink"><linearGradient id="a"><stop offset="0" stop-color="#cdf87e"/><stop offset=".26238" stop-color="#a2e34f"/><stop offset=".66093999" stop-color="#68b723"/><stop offset="1" stop-color="#1d7e0d"/></linearGradient><radialGradient id="b" cx="65.297462" cy="48.216358" gradientTransform="matrix(0 .52544994 -.5716256 0 46.193389 -21.123812)" gradientUnits="userSpaceOnUse" r="31.000002" xlink:href="#a"/><linearGradient id="c" gradientTransform="matrix(.2817955 0 0 .2800956 12.178741 12.02218)" gradientUnits="userSpaceOnUse" x1="24.138529" x2="24.138529" y1="21.34207" y2="24.912279"><stop offset="0" stop-color="#fff"/><stop offset=".00000019" stop-color="#fff" stop-opacity=".235294"/><stop offset="1" stop-color="#fff" stop-opacity=".156863"/><stop offset="1" stop-color="#fff" stop-opacity=".392157"/></linearGradient><linearGradient id="d" gradientTransform="matrix(.2817955 0 0 .2800956 12.196562 12.014885)" gradientUnits="userSpaceOnUse" x1="24.138529" x2="24.138529" y1="10.631441" y2="35.62291"><stop offset="0" stop-color="#fff"/><stop offset=".00000002" stop-color="#fff" stop-opacity=".235294"/><stop offset="1" stop-color="#fff" stop-opacity=".156863"/><stop offset="1" stop-color="#fff" stop-opacity=".392157"/></linearGradient><linearGradient id="e" gradientTransform="matrix(.2817955 0 0 .2800956 12.196562 12.014885)" gradientUnits="userSpaceOnUse" x1="24.138529" x2="24.138529" xlink:href="#d" y1="10.631441" y2="35.62291"/><linearGradient id="f" gradientTransform="matrix(.2817955 0 0 .2800956 12.178741 12.02218)" gradientUnits="userSpaceOnUse" x1="24.138529" x2="24.138529" xlink:href="#c" y1="21.34207" y2="24.912279"/><linearGradient id="g" gradientTransform="matrix(.44576989 0 0 .44993664 .801525 -.024539)" gradientUnits="userSpaceOnUse" x1="25.132275" x2="25.132275" y1="15.499894" y2="48.395687"><stop offset="0" stop-color="#fafafa"/><stop offset="1" stop-color="#e2e1de"/></linearGradient><linearGradient id="h" gradientTransform="matrix(.49999998 0 0 .25 -.999998 2.999819)" gradientUnits="userSpaceOnUse" x1="23.954144" x2="23.954144" y1="15.999304" y2="19.963179"><stop offset="0"/><stop offset="1" stop-opacity="0"/></linearGradient><linearGradient id="i" gradientUnits="userSpaceOnUse" x1="8.295028" x2="8.295028" xlink:href="#a" y1="-4.283906" y2="16.849756"/><linearGradient id="j" gradientUnits="userSpaceOnUse" x1="11.001243" x2="11.001243" y1="2.268861" y2="19.728326"><stop offset="0" stop-color="#fff"/><stop offset=".06316455" stop-color="#fff" stop-opacity=".235294"/><stop offset=".95056331" stop-color="#fff" stop-opacity=".156863"/><stop offset="1" stop-color="#fff" stop-opacity=".392157"/></linearGradient><rect fill="url(#g)" height="20" rx=".527778" ry=".555556" width="19" x="2.000001" y="1.999818"/><path d="m2.50125 2.498592h17.938934l-.00125 19.001408h-17.938934z" fill="none"/><path d="m1.000001 6.999818h21v1h-21z" fill="url(#h)" opacity=".15"/><path d="m1.5 6.163481v15.300155c0 .574146.462218 1.036364 1.036364 1.036364h17.927455c.574146 0 1.036364-.462218 1.036364-1.036364v-15.300155" fill="none" opacity=".3" stroke="#000"/><path d="m2.536364 1.499845c-.574145 0-1.036364.462218-1.036364 1.036364v3.963609h20.000182v-3.963609c0-.574146-.462218-1.036364-1.036363-1.036364z" fill="url(#i)"/><g fill="none" stroke-linecap="round"><path d="m2.536364 1.499845c-.574146 0-1.036364.462218-1.036364 1.036364l.000001 3.963609h20.000182l-.000001-3.963609c0-.574146-.462218-1.036364-1.036364-1.036364z" opacity=".4" stroke="#126400"/><path d="m2.500001 2.499818v3h18v-3z" opacity=".5" stroke="url(#j)" stroke-linejoin="round"/></g><path d="m6.000001 7h1v14.999818h-1z" opacity=".321"/><path d="m11.000001 7h1v14.999818h-1z" opacity=".321"/><path d="m16.000002 7h1v14.999818h-1z" opacity=".321"/><path d="m2.000001 9.999818h4v1h-4z" opacity=".321"/><path d="m7.000001 9.999818h4v1h-4z" opacity=".321"/><path d="m12.000001 9.999818h4v1h-4z" opacity=".321"/><path d="m17.000002 9.999818h4v1h-4z" opacity=".321"/><path d="m2.000001 13.999818h4v1h-4z" opacity=".321"/><path d="m7.000001 13.999818h4v1h-4z" opacity=".321"/><path d="m12.000001 13.999818h4v1h-4z" opacity=".321"/><path d="m17.000002 13.999818h4v1h-4z" opacity=".321"/><path d="m2.000001 17.999819h4v1h-4z" opacity=".321"/><path d="m7.000001 17.999819h4v1h-4z" opacity=".321"/><path d="m12.000001 17.999819h4v1h-4z" opacity=".321"/><path d="m17.000002 17.999819h4v1h-4z" opacity=".321"/><g fill="#126400"><path d="m6.000001 1.999818h1v4.000182h-1z" opacity=".4"/><path d="m11.000001 1.999818h1v4.000182h-1z" opacity=".4"/><path d="m16.000002 1.999818h1v4.000182h-1z" opacity=".4"/></g><g fill="none"><path d="m17.5 18.004404v-3.504404h2v3.5m0 1v3.5h-2v-3.5" opacity=".5" stroke="url(#d)"/><path d="m20 17.507295 2.482179-.0073v2l-2.482179.0073m-3 0-2.5-.0073v-2l2.5.0073" opacity=".5" stroke="url(#c)"/><path d="m16.482179 16.507295v-3h4v3h3v4h-3v2.999991h-4v-2.999991h-2.989465v-4z" fill="url(#b)"/><path d="m17.5 18.004404v-3.504404h2v3.5m0 1v3.5h-2v-3.5" opacity=".5" stroke="url(#e)"/><path d="m16.482179 16.507295v-3h4v3h3v4h-3v2.999991h-4v-2.999991h-2.989465v-4z" opacity=".5" stroke="#0f5a00" stroke-linecap="round" stroke-linejoin="round"/><path d="m20 17.507295 2.482179-.0073v2l-2.482179.0073m-3 0-2.5-.0073v-2l2.5.0073" opacity=".5" stroke="url(#f)"/></g></svg>