<?xml version="1.0" encoding="UTF-8" standalone="no"?>
<svg
   xmlns:dc="http://purl.org/dc/elements/1.1/"
   xmlns:cc="http://creativecommons.org/ns#"
   xmlns:rdf="http://www.w3.org/1999/02/22-rdf-syntax-ns#"
   xmlns:svg="http://www.w3.org/2000/svg"
   xmlns="http://www.w3.org/2000/svg"
   xmlns:sodipodi="http://sodipodi.sourceforge.net/DTD/sodipodi-0.dtd"
   xmlns:inkscape="http://www.inkscape.org/namespaces/inkscape"
   height="24"
   width="24"
   version="1.1"
   id="svg18"
   sodipodi:docname="lc_insertsymbol.svg"
   inkscape:version="0.92.3 (unknown)">
  <metadata
     id="metadata24">
    <rdf:RDF>
      <cc:Work
         rdf:about="">
        <dc:format>image/svg+xml</dc:format>
        <dc:type
           rdf:resource="http://purl.org/dc/dcmitype/StillImage" />
      </cc:Work>
    </rdf:RDF>
  </metadata>
  <defs
     id="defs22" />
  <sodipodi:namedview
     pagecolor="#ffffff"
     bordercolor="#666666"
     borderopacity="1"
     objecttolerance="10"
     gridtolerance="10"
     guidetolerance="10"
     inkscape:pageopacity="0"
     inkscape:pageshadow="2"
     inkscape:window-width="1366"
     inkscape:window-height="706"
     id="namedview20"
     showgrid="true"
     inkscape:snap-global="false"
     inkscape:zoom="13.906433"
     inkscape:cx="5.5055761"
     inkscape:cy="16.397201"
     inkscape:window-x="0"
     inkscape:window-y="0"
     inkscape:window-maximized="1"
     inkscape:current-layer="svg18">
    <inkscape:grid
       type="xygrid"
       id="grid834" />
  </sodipodi:namedview>
  <radialGradient
     id="a"
     cx="22.571428"
     cy="30.857143"
     gradientTransform="matrix(0.706422,0,0,0.13549598,-3.4775444,18.360303)"
     gradientUnits="userSpaceOnUse"
     r="15.571428">
    <stop
       offset="0"
       id="stop2" />
    <stop
       offset="1"
       stop-opacity="0"
       id="stop4" />
  </radialGradient>
  <linearGradient
     id="b"
     gradientUnits="userSpaceOnUse"
     x1="11"
     x2="11"
     y1="24"
     y2="0"
     gradientTransform="translate(0.49715781,0.49512391)">
    <stop
       offset="0"
       stop-color="#1f1f1f"
       id="stop7" />
    <stop
       offset="1"
       stop-color="#5c5c5c"
       id="stop9" />
  </linearGradient>
  <path
     d="m12.006104 7c-1.472982 0-3.0104333.4695638-3.8079594 1.3647461-.7975262.8951823-1.1962892 2.1565759-1.1962892 3.7841799 0 1.652018.2685547 2.994791.8056642 4.02832.5371093 1.025391 2.1019857 2.12085 3.1924804 2.706787v3.115967h-8v-3h4.3796387c-1.2369792-.756836-2.7220053-1.960124-3.397461-3.262207-.6673177-1.310221-1.0009765-2.770996-1.0009765-4.382324 0-1.4973961.3458659-2.8116864 1.0375976-3.9428713.6998698-1.1393229 1.8953939-2.0141602 3.1812012-2.6245118 1.2858073-.6103515 3.105257-.7880859 4.806104-.7880859 2.596028 0 5.159384.5520833 6.689331 1.9111328 1.538086 1.3590495 2.307129 3.1819661 2.307129 5.4687502 0 1.611328-.337728 3.059896-1.013183 4.345703-.675456 1.285807-2.144248 2.493164-3.405641 3.274414h4.41626v3h-8v-3.115967c1.131185-.585937 2.661475-1.693603 3.198584-2.743408s.805664-2.388509.805664-4.016113c0-1.619466-.402832-2.8727216-1.208496-3.7597659-.797526-.8951823-2.324805-1.3647461-3.789648-1.3647461z"
     fill="#fff"
     opacity=".35"
     id="path12" />
  <path
     d="m 12.503262,6.4951239 c -1.472982,0 -3.0104335,0.4695638 -3.8079596,1.3647461 -0.7975262,0.8951823 -1.1962892,2.156576 -1.1962892,3.78418 0,1.652018 0.2685547,2.994791 0.8056642,4.02832 0.5371093,1.025391 2.1019856,2.12085 3.1924806,2.706787 v 3.115967 H 3.4971578 v -3 H 7.8767965 C 6.6398173,17.738288 5.1547912,16.535 4.4793355,15.232917 3.8120178,13.922696 3.478359,12.461921 3.478359,10.850593 3.478359,9.3531968 3.8242249,8.0389065 4.5159566,6.9077216 5.2158264,5.7683987 6.4113505,4.8935614 7.6971578,4.2832098 8.9829651,3.6728583 10.802415,3.4951239 12.503262,3.4951239 c 2.596028,0 5.159384,0.5520833 6.689331,1.9111328 1.538086,1.3590495 2.307129,3.1819661 2.307129,5.4687503 0,1.611328 -0.337728,3.059896 -1.013183,4.345703 -0.675456,1.285807 -2.144248,2.493164 -3.405641,3.274414 h 4.41626 v 3 h -8 v -3.115967 c 1.131185,-0.585937 2.661475,-1.693603 3.198584,-2.743408 0.537109,-1.049805 0.805664,-2.388509 0.805664,-4.016113 0,-1.619466 -0.402832,-2.8727217 -1.208496,-3.759766 C 15.495384,6.9646877 13.968105,6.4951239 12.503262,6.4951239 Z"
     id="path14"
     style="opacity:0.66000001;fill:url(#b);stroke:#000000;stroke-linecap:round;stroke-linejoin:round"
     inkscape:connector-curvature="0" />
  <ellipse
     cx="12.467408"
     cy="22.541323"
     rx="10.999999"
     ry="2.8901329"
     id="ellipse16"
     style="opacity:0.2;fill:url(#a)" />
</svg>
