<svg viewBox="0 0 24 24" xmlns="http://www.w3.org/2000/svg" xmlns:xlink="http://www.w3.org/1999/xlink"><linearGradient id="a" gradientTransform="matrix(-1 0 0 1 24 -14.002734)" gradientUnits="userSpaceOnUse" x1="20" x2="20" y1="17" y2="22"><stop offset="0" stop-color="#cd9ef7"/><stop offset="1" stop-color="#a56de2"/></linearGradient><linearGradient id="b" gradientTransform="matrix(-1 0 0 1 24 -14)" gradientUnits="userSpaceOnUse" x1="19" x2="19" y1="19" y2="20.5"><stop offset="0" stop-color="#fff"/><stop offset=".33333334" stop-color="#fff" stop-opacity=".235294"/><stop offset=".74999994" stop-color="#fff" stop-opacity=".156863"/><stop offset="1" stop-color="#fff" stop-opacity=".392157"/></linearGradient><linearGradient id="c"><stop offset="0"/><stop offset="1" stop-opacity="0"/></linearGradient><radialGradient id="d" cx="2.25" cy="16" gradientTransform="matrix(.27629593 0 0 .07867314 -5.763171 12.530126)" gradientUnits="userSpaceOnUse" r="16.875" xlink:href="#c"/><radialGradient id="e" cx="2.25" cy="16" gradientTransform="matrix(.27629593 0 0 .07867314 -20.792187 12.781808)" gradientUnits="userSpaceOnUse" r="16.875" xlink:href="#c"/><ellipse cx="-20.170521" cy="14.040581" display="block" fill="url(#e)" fill-rule="evenodd" opacity=".268" rx="4.662494" ry="1.327611" transform="translate(25.312026)"/><ellipse cx="-5.141505" cy="13.788898" display="block" fill="url(#d)" fill-rule="evenodd" opacity=".268" rx="4.662494" ry="1.327611" transform="translate(25.312026)"/><g fill="#7239b3" transform="matrix(-1 0 0 1 24.004283 0)"><g transform="translate(-1 6)"><path d="m6.5 3v2.5 2.5l-3.6164319-2.5z" fill="url(#a)" fill-rule="evenodd" stroke="#7239b3" stroke-opacity=".74902"/><path d="m5.5 4.923828v.576172.576172l-.8761979-.576172z" fill="none" opacity=".5" stroke="url(#b)" stroke-opacity=".970588"/></g><path d="m5 11h14v1h-14z"/><g transform="matrix(-1 0 0 1 25.004283 6)"><path d="m6.5 3v2.5 2.5l-3.6164319-2.5z" fill="url(#a)" fill-rule="evenodd" stroke="#7239b3" stroke-opacity=".74902"/><path d="m5.5 4.923828v.576172.576172l-.8761979-.576172z" fill="none" opacity=".5" stroke="url(#b)" stroke-opacity=".970588"/></g></g></svg>