<svg height="24" viewBox="0 0 24 24" width="24" xmlns="http://www.w3.org/2000/svg" xmlns:xlink="http://www.w3.org/1999/xlink"><radialGradient id="a" cx="65.296997" cy="48.216" gradientTransform="matrix(0 .52545 -.57163 0 46.193 -21.124)" gradientUnits="userSpaceOnUse" r="31"><stop offset="0" stop-color="#d1ff82"/><stop offset=".262" stop-color="#9bdb4d"/><stop offset=".661" stop-color="#68b723"/><stop offset="1" stop-color="#3a9104"/></radialGradient><linearGradient id="b" gradientTransform="matrix(.2818 0 0 .2801 12.197 12.015)" gradientUnits="userSpaceOnUse" x1="24.139" x2="24.139" xlink:href="#c" y1="10.631" y2="35.623001"/><linearGradient id="c"><stop offset="0" stop-color="#fff"/><stop offset="0" stop-color="#fff" stop-opacity=".235"/><stop offset="1" stop-color="#fff" stop-opacity=".157"/><stop offset="1" stop-color="#fff" stop-opacity=".392"/></linearGradient><linearGradient id="d" gradientTransform="matrix(.2818 0 0 .2801 12.18 12.022)" gradientUnits="userSpaceOnUse" x1="24.139" x2="24.139" xlink:href="#c" y1="21.341999" y2="24.912001"/><linearGradient id="e" gradientTransform="matrix(.04846 0 0 .5238 -20.405 -100.176)" gradientUnits="userSpaceOnUse" x1="292.85699" x2="292.85699" y1="211.076" y2="233.827"><stop offset="0"/><stop offset="1" stop-opacity="0"/></linearGradient><linearGradient id="f"><stop offset="0" stop-color="#64baff"/><stop offset="1" stop-color="#3689e6"/></linearGradient><linearGradient id="g" gradientTransform="matrix(.8048 0 0 .60166 -516.818 -404.08)" gradientUnits="userSpaceOnUse" x1="731.05701" x2="731.05701" xlink:href="#f" y1="654.815" y2="619.30701"/><linearGradient id="h" gradientUnits="userSpaceOnUse" x1="7.814" x2="9.271" xlink:href="#f" y1="12.475" y2="19.39"/>

/&amp;amp;amp;amp;gt;<g transform="translate(8 -8)"><circle cx="8" cy="16" fill="#fdfdfb" r="7.5" stroke="#8c8c8c" stroke-linecap="round" stroke-linejoin="round"/><circle cx="8" cy="16" fill="url(#h)" r="4.5"/><circle cx="8" cy="16" fill="none" opacity=".5" r="4.5" stroke="#002e99" stroke-linecap="round" stroke-linejoin="round"/></g><g transform="translate(0 1)"><rect fill="url(#g)" height="12" opacity=".99" rx="1.5" transform="scale(-1)" width="12" x="-14" y="-22"/><rect fill="none" height="13" opacity=".3" rx="2" stroke="#000" stroke-linecap="round" stroke-linejoin="round" transform="scale(-1 1)" width="13" x="-14.5" y="9.5"/><path d="m11.987 11.624 2.013 1.812-6.765 8.94-5.235-4.51 1.732-2.296 3.06 2.658z" fill="#2f78c7" fill-opacity=".992"/><path d="m11.987 10.624 2.013 1.812-6.765 8.94-5.235-4.51 1.732-2.296 3.06 2.658z" fill="#fff"/><rect fill="none" height="11" opacity=".05" rx="1" stroke="url(#e)" stroke-linecap="round" stroke-linejoin="round" transform="scale(-1 1)" width="11" x="-13.5" y="10.5"/></g><path d="m16.5 16.5v-3h4v3h3v4h-3v3h-4v-3h-3v-4z" fill="url(#a)" stroke="#206b00" stroke-linecap="round" stroke-linejoin="round" stroke-opacity=".501961"/><g fill="none"><path d="m17.5 18.004v-3.504h2v3.5m0 1v3.5h-2v-3.5" opacity=".5" stroke="url(#b)"/><path d="m20 17.507 2.5-.007v2l-2.5.007m-3 0-2.5-.007v-2l2.5.007" opacity=".5" stroke="url(#d)"/></g></svg>