<svg height="24" width="24" xmlns="http://www.w3.org/2000/svg" xmlns:xlink="http://www.w3.org/1999/xlink"><linearGradient id="a" gradientUnits="userSpaceOnUse" x1="17.461565" x2="17.461565" y1="12.132274" y2="23.876353"><stop offset="0" stop-color="#f6f6f6"/><stop offset="1" stop-color="#ccc"/></linearGradient><linearGradient id="b" gradientUnits="userSpaceOnUse" x1="14.525564" x2="14.525564" y1="12.132274" y2="23.879737"><stop offset="0" stop-color="#aaa"/><stop offset="1" stop-color="#8c8c8c"/></linearGradient><linearGradient id="c" gradientUnits="userSpaceOnUse" x1="10.127912" x2="9.984243" y1="12.048073" y2="3.95193"><stop offset="0" stop-color="#e5e5e5"/><stop offset="1" stop-color="#ababab"/></linearGradient><linearGradient id="d"><stop offset="0" stop-color="#fff"/><stop offset=".50775999" stop-color="#fff" stop-opacity=".235294"/><stop offset=".83456999" stop-color="#fff" stop-opacity=".156863"/><stop offset="1" stop-color="#fff" stop-opacity=".392157"/></linearGradient><linearGradient id="e" gradientTransform="matrix(.29729726 0 0 -.29729726 -9.326179 19.538808)" gradientUnits="userSpaceOnUse" x1="71.204002" x2="71.204002" xlink:href="#d" y1="6.2376" y2="44.341"/><radialGradient id="f" cx="23.896" cy="3.99" gradientTransform="matrix(0 .52770723 -.69656421 0 14.779293 -5.447722)" gradientUnits="userSpaceOnUse" r="20.396999"><stop offset="0" stop-color="#ff8c82"/><stop offset=".26238" stop-color="#ed5353"/><stop offset=".66093999" stop-color="#c6262e"/><stop offset="1" stop-color="#a10705"/></radialGradient><linearGradient id="g" gradientTransform="matrix(.22110724 0 0 .22110728 6.693426 6.693263)" gradientUnits="userSpaceOnUse" x1="7.0776" x2="7.0776" y1="3.0816" y2="45.368999"><stop offset="0" stop-color="#7a0000"/><stop offset="1" stop-color="#a10705"/></linearGradient><radialGradient id="h" cx="23.896" cy="3.99" gradientTransform="matrix(0 1.2316483 -1.625754 0 18.486966 -28.721977)" gradientUnits="userSpaceOnUse" r="20.396999"><stop offset="0" stop-color="#fff"/><stop offset=".26238" stop-color="#ddd"/><stop offset=".66093999" stop-color="#abacae"/><stop offset="1" stop-color="#89898b"/></radialGradient><linearGradient id="i" gradientTransform="matrix(.51605578 0 0 .51605586 -.385137 -.385387)" gradientUnits="userSpaceOnUse" x1="18.379" x2="18.379" y1="44.98" y2="3.0816"><stop offset="0" stop-color="#505050"/><stop offset="1" stop-color="#aaa"/></linearGradient><linearGradient id="j" gradientUnits="userSpaceOnUse" x1="11.728084" x2="11.728084" xlink:href="#d" y1="2.181808" y2="21.748418"/><radialGradient id="k" cx="62.625" cy="4.625" gradientTransform="matrix(1.1294118 0 0 .2823525 -58.729414 19.694118)" gradientUnits="userSpaceOnUse" r="10.625"><stop offset="0"/><stop offset="1" stop-opacity="0"/></radialGradient><linearGradient id="l" gradientUnits="userSpaceOnUse" x1="11.899823" x2="11.899823" xlink:href="#d" y1="8.382963" y2="15.591519"/><linearGradient id="m" gradientUnits="userSpaceOnUse" x1="68.313301" x2="68.313301" y1="52.925316" y2="65.922028"><stop offset="0" stop-color="#fff"/><stop offset="1" stop-color="#fff" stop-opacity="0"/></linearGradient><path d="m24 21c0 1.6569-5.3726 3-12 3s-12-1.343-12-3 5.3726-3 12-3 12 1.3431 12 3z" fill="url(#k)" fill-rule="evenodd" opacity=".3"/><g stroke-linecap="round" stroke-linejoin="round"><path d="m12 1.5014c-5.7927 0-10.498 4.7058-10.498 10.498 0 5.7927 4.7058 10.498 10.498 10.498 5.7927 0 10.498-4.7058 10.498-10.498 0-5.7927-4.7058-10.498-10.498-10.498z" fill="url(#h)" stroke="url(#i)" stroke-width="1.003654"/><path d="m12 7.5018c-2.4819 0-4.4982 2.0162-4.4982 4.4982 0 2.4819 2.0163 4.4982 4.4982 4.4982s4.4982-2.0162 4.4982-4.4982c0-2.4819-2.0162-4.4982-4.4982-4.4982z" fill="url(#f)" stroke="url(#g)" stroke-width="1.003654"/><g fill="none"><path d="m17.5 12c0-3.0375-2.463-5.5-5.5-5.5-3.0375 0-5.5 2.4626-5.5 5.5 0 3.038 2.4625 5.5 5.5 5.5 3.037 0 5.5-2.462 5.5-5.5z" opacity=".5" stroke="url(#e)"/><path d="m21.5 12c0 5.247-4.254 9.5-9.5 9.5-5.2466 0-9.5-4.254-9.5-9.5 0-5.2466 4.2534-9.4997 9.5001-9.4997 5.2463 0 9.4999 4.253 9.4999 9.4997z" opacity=".8" stroke="url(#j)"/><path d="m15.499905 12.000095c0 1.933053-1.567221 3.499905-3.499905 3.499905-1.932906 0-3.4999053-1.567221-3.4999053-3.499905 0-1.932906 1.5669993-3.4997951 3.4999423-3.4997951 1.932795 0 3.499868 1.5668521 3.499868 3.4997951z" opacity=".5" stroke="url(#l)"/></g></g><path d="m78.338799 64.349724a11.424408 11.424408 0 1 1 -22.848816 0 11.424408 11.424408 0 1 1 22.848816 0z" fill="url(#m)" opacity=".4" transform="matrix(.17506378 0 0 .17506378 .285714 -.265306)"/><g transform="matrix(.73400013 0 0 .73400013 11.632274 12.132274)"><path d="m16.798828 12.5c-.165264 0-.298828.211412-.298828.474609v.763672h-.09766l-1.123047.480469-.07227.07422-.552734-.552735c-.18611-.186109-.430016-.241858-.546875-.125l-.992188.992188c-.116858.116859-.06111.360765.125.546875l.552735.552734-.07422.07227-.480469 1.123047v.097651h-.763663c-.263197 0-.474609.133564-.474609.298828v1.402344c0 .165264.211412.298828.474609.298828h.763672v.105469l.480469 1.123047.07031.06836-.548828.548828c-.186109.186109-.241858.430016-.125.546875l.992188.992188c.116859.116859.360765.06111.546875-.125l.548828-.548828.07617.07812 1.123047.482422h.09766v.753907c0 .263201.133564.474612.298828.474612h1.402344c.165264 0 .298828-.211411.298828-.474609v-.753907h.105469l1.123047-.482422.07227-.07422.544922.544922c.18611.186108.430016.241859.546875.125l.992188-.992188c.116858-.116859.06111-.360766-.125-.546875l-.544922-.544922.07422-.07227.482422-1.123047v-.105462h.753907c.26319 0 .474602-.133564.474602-.298828v-1.402344c0-.165264-.211412-.298828-.474609-.298828h-.753907v-.09766l-.482422-1.123047-.07812-.07617.548828-.548828c.186109-.18611.241858-.430016.125-.546875l-.992188-.992188c-.116859-.116858-.360765-.06111-.546875.125l-.548828.548828-.06836-.07031-1.123047-.480469h-.105472v-.763672c0-.263197-.133564-.474609-.298828-.474609zm.705078 4c.829457 0 1.503906.674449 1.503906 1.503906.000001.829457-.674449 1.503906-1.503906 1.503906-.829457.000001-1.503906-.674449-1.503906-1.503906s.674449-1.503906 1.503906-1.503906z" display="block" fill="url(#a)" stroke="url(#b)" stroke-linejoin="round" transform="matrix(1.3623976 0 0 1.3623976 -15.847782 -16.528981)"/><path d="m8 3.465116c-2.5005771 0-4.5348837 2.034307-4.5348837 4.534884s2.0343066 4.534884 4.5348837 4.534884c2.500576-.000001 4.534884-2.034307 4.534884-4.534884s-2.034308-4.534884-4.534884-4.534884zm0 2.093024c1.347907 0 2.44186 1.093953 2.44186 2.44186s-1.093953 2.44186-2.44186 2.44186-2.4418605-1.093953-2.4418605-2.44186 1.0939535-2.44186 2.4418605-2.44186z" opacity=".05"/><path d="m8.0000001 4c-2.2056004 0-4.0000002 1.7944001-4.0000002 4.0000008 0 2.2055992 1.7943998 3.9999992 4.0000002 3.9999992 2.2055999 0 3.9999999-1.7944 3.9999999-3.9999992 0-2.2056007-1.7944-4.0000008-3.9999999-4.0000008z" fill="none" stroke="url(#c)" stroke-width="1.352275"/></g></svg>