<svg height="24" width="24" xmlns="http://www.w3.org/2000/svg" xmlns:xlink="http://www.w3.org/1999/xlink"><linearGradient id="a" gradientUnits="userSpaceOnUse" x1="12.001243" x2="12.001243" y1="5" y2="19.914931"><stop offset="0" stop-color="#fff"/><stop offset=".01652508" stop-color="#fff" stop-opacity=".235294"/><stop offset=".98001981" stop-color="#fff" stop-opacity=".156863"/><stop offset="1" stop-color="#fff" stop-opacity=".392157"/></linearGradient><radialGradient id="b" cx="4.992979" cy="43.5" gradientTransform="matrix(2.003784 0 0 1.4 27.8063 -17.399999)" gradientUnits="userSpaceOnUse" r="2.5" xlink:href="#c"/><linearGradient id="c"><stop offset="0" stop-color="#181818"/><stop offset="1" stop-color="#181818" stop-opacity="0"/></linearGradient><radialGradient id="d" cx="4.992979" cy="43.5" gradientTransform="matrix(2.003784 0 0 1.4 -18.284598 -104.4)" gradientUnits="userSpaceOnUse" r="2.5" xlink:href="#c"/><linearGradient id="e" gradientTransform="matrix(1.1234054 0 0 1 -2.961737 0)" gradientUnits="userSpaceOnUse" x1="25.058096" x2="25.058096" y1="47.027729" y2="39.999443"><stop offset="0" stop-color="#181818" stop-opacity="0"/><stop offset=".5" stop-color="#181818"/><stop offset="1" stop-color="#181818" stop-opacity="0"/></linearGradient><radialGradient id="f" cx="7.685578" cy="5.959014" gradientTransform="matrix(0 1.1500005 -1.2044328 -.00000002 19.177231 -8.838419)" gradientUnits="userSpaceOnUse" r="19.99999"><stop offset="0" stop-color="#fafafa"/><stop offset="1" stop-color="#e1e1e1"/></radialGradient><linearGradient id="g" gradientUnits="userSpaceOnUse" x1="14" x2="14" y1="5" y2="7"><stop offset="0" stop-color="#e5e5e5"/><stop offset="1" stop-color="#d4d4d4"/></linearGradient><radialGradient id="h" cx="32" cy="41.5" gradientTransform="matrix(.35714286 0 0 .14285716 -3.928571 13.072062)" gradientUnits="userSpaceOnUse" r="21" xlink:href="#i"/><linearGradient id="i"><stop offset="0"/><stop offset="1" stop-opacity="0"/></linearGradient><radialGradient id="j" cx="24.999998" cy="28.659998" fx="24.999998" fy="28.659998" gradientTransform="matrix(.55040653 0 0 .15669563 -7.856951 10.341911)" gradientUnits="userSpaceOnUse" r="16" xlink:href="#r"/><linearGradient id="k" gradientTransform="matrix(.41935736 0 0 .41979504 -4.580722 1.819164)" gradientUnits="userSpaceOnUse" x1="30" x2="30" xlink:href="#s" y1="25.084745" y2="45"/><linearGradient id="l" gradientTransform="matrix(.41935736 0 0 .41979504 -4.580722 1.819164)" gradientUnits="userSpaceOnUse" x1="29.968306" x2="30.000004" xlink:href="#m" y1="21.68708" y2="43.308842"/><linearGradient id="m"><stop offset="0" stop-color="#fff"/><stop offset="1" stop-color="#fff" stop-opacity="0"/></linearGradient><radialGradient id="n" cx="26.375898" cy="12.31301" fx="26.375898" fy="12.31301" gradientTransform="matrix(.54674217 -.04801515 .04270621 .57397107 -8.132723 .588251)" gradientUnits="userSpaceOnUse" r="8" xlink:href="#r"/><linearGradient id="o" gradientTransform="matrix(.33334585 0 0 .36215328 -2.000376 2.481381)" gradientUnits="userSpaceOnUse" x1="30" x2="30" xlink:href="#s" y1="5" y2="44.678879"/><linearGradient id="p" gradientTransform="matrix(.61956519 0 0 .35916826 -8.166564 4.283932)" gradientUnits="userSpaceOnUse" x1="22" x2="17" xlink:href="#i" y1="39" y2="37.4375"/><linearGradient id="q" gradientTransform="matrix(.33334585 0 0 .36215328 -2.000376 2.481381)" gradientUnits="userSpaceOnUse" x1="29.998489" x2="30" xlink:href="#m" y1="6.780811" y2="26.2834"/><radialGradient id="r" cx="10.90426" cy="8.449767" gradientTransform="matrix(0 .7455191 -.67881264 0 12.738896 1.818745)" gradientUnits="userSpaceOnUse" r="19.99999"><stop offset="0" stop-color="#5f5f5f"/><stop offset=".26238" stop-color="#4f4f4f"/><stop offset=".704952" stop-color="#3b3b3b"/><stop offset="1" stop-color="#2b2b2b"/></radialGradient><linearGradient id="s" gradientTransform="matrix(.53695193 0 0 .53021938 -5.883818 3.029591)" gradientUnits="userSpaceOnUse" x1="24" x2="24" y1="44" y2="3.899002"><stop offset="0" stop-color="#272727"/><stop offset="1" stop-color="#454545"/></linearGradient><radialGradient id="t" cx="11.031" cy="17.125" gradientTransform="matrix(.55873324 0 0 .12659327 11.336057 19.58453)" gradientUnits="userSpaceOnUse" r="9.844" xlink:href="#i"/><linearGradient id="u" gradientTransform="matrix(.30773287 -.29497666 .30773287 .29497666 25.945015 17.143811)" gradientUnits="userSpaceOnUse" x1="36.011002" x2="16.330999" xlink:href="#m" y1="13.023" y2="32.702"/><linearGradient id="v" gradientTransform="matrix(.30773287 -.29497666 .30773287 .29497666 25.634713 17.292587)" gradientUnits="userSpaceOnUse" x1="28.448999" x2="16.330999" xlink:href="#m" y1="20.584" y2="32.702"/><linearGradient id="w" gradientTransform="matrix(.50842231 0 0 .49130393 11.398984 11.719374)" gradientUnits="userSpaceOnUse" x1="11.192" x2="11.192" y1="-.741" y2="30.298"><stop offset="0" stop-color="#f8b17e"/><stop offset=".312" stop-color="#e35d4f"/><stop offset=".571" stop-color="#c6262e"/><stop offset="1" stop-color="#690b54"/></linearGradient><linearGradient id="x" gradientTransform="matrix(.87818 0 0 .88434 -18.525 2.436457)" gradientUnits="userSpaceOnUse" x1="41.224998" x2="41.224998" y1="23.238001" y2="7.39"><stop offset="0" stop-color="#791235"/><stop offset="1" stop-color="#dd3b27"/></linearGradient><g opacity=".4" transform="matrix(.5789476 0 0 .42857134 -1.894738 1.857146)"><path d="m37.818169 40h5v7h-5z" fill="url(#b)"/><path d="m-8.272728-47h5v7h-5z" fill="url(#d)" transform="scale(-1)"/><path d="m8.272317 40h29.545853v7.000001h-29.545853z" fill="url(#e)"/></g><rect fill="url(#f)" height="16" rx=".5" width="19" x="2" y="4"/><path d="m2.5 3.5c-.554 0-1 .446-1 1v4.5h20v-4.5c0-.554-.446-1-1-1z" fill="url(#g)"/><g fill="none"><rect height="17" opacity=".3" rx="1" stroke="#0e141f" stroke-linecap="round" stroke-linejoin="round" width="20" x="1.5" y="3.5"/><path d="m2.5 4.5h18v15h-18z" opacity=".7" stroke="url(#a)" stroke-linecap="round" stroke-linejoin="round"/><g stroke="#9c9c9c"><path d="m3 10.5h1"/><path d="m5 10.5h1"/><path d="m7 10.5h1"/><path d="m9 10.5h1"/><path d="m11 10.5h1"/><path d="m13 10.5h1"/><path d="m15 10.5h1"/><path d="m17 10.5h1"/><path d="m19 10.5h1"/><path d="m3 12.5h1"/><path d="m5 12.5h1"/><path d="m7 12.5h1"/><path d="m9 12.5h1"/><path d="m11 12.5h1"/><path d="m13 12.5h1"/><path d="m15 12.5h1"/><path d="m17 12.5h1"/><path d="m19 12.5h1"/><path d="m3 14.5h1"/><path d="m5 14.5h1"/><path d="m7 14.5h1"/><path d="m9 14.5h1"/><path d="m11 14.5h1"/><path d="m13 14.5h1"/><path d="m15 14.5h1"/><path d="m17 14.5h1"/><path d="m19 14.5h1"/><path d="m3 16.5h1"/><path d="m5 16.5h1"/><path d="m7 16.5h1"/><path d="m9 16.5h1"/><path d="m11 16.5h1"/><path d="m13 16.5h1"/><path d="m15 16.5h1"/><path d="m17 16.5h1"/><path d="m19 16.5h1"/><path d="m3 18.5h1"/><path d="m5 18.5h1"/><path d="m7 18.5h1"/><path d="m9 18.5h1"/><path d="m11 18.5h1"/><path d="m13 18.5h1"/><path d="m15 18.5h1"/><path d="m17 18.5h1"/><path d="m19 18.5h1"/></g><path d="m2 8.5h20" opacity=".2" stroke="#000"/></g><g transform="translate(4 2)"><path d="m15 19.000632a7.5 3 0 0 1 -14.99999996 0 7.5 3 0 1 1 14.99999996 0z" fill="url(#h)" opacity=".8"/><path d="m6.513 10.424959-.056 2.518771c-1.2206208 1.013754-4.5423621 1.469284-4.5376831 2.51877l-.4193572 3.148465c0 1.043308 2.9101663 1.889075 6.5000399 1.889075 3.5898714 0 6.5000404-.845767 6.5000404-1.889075l-.419359-3.148465c-.0049-.898218-3.34503-1.46928-4.550681-2.51877l-.043-2.518771z" fill="url(#j)" stroke="url(#k)" stroke-width=".999919"/><path d="m7.5 11.4375c-.08094.691654.1318657 1.450708-.2235148 2.087545-.5288217.667037-1.389003.904775-2.1389656 1.229786-.7736519.277628-1.5744675.510298-2.2797645.944145.06985.137296-.065526.621724-.078159.907996-.082782.66226-.1655648 1.324519-.2483472 1.986778.6400316.191418 1.2404938.510821 1.9149171.578815 2.3665096.469752 4.8219149.415371 7.191225-.0036.601839-.114874 1.179595-.331813 1.731993-.587727.184056-.31394-.04004-.704525-.03164-1.0593-.070914-.580258-.141829-1.160473-.212744-1.740688-1.388438-.864698-3.1599328-1.033326-4.3605453-2.210845-.4235262-.609711-.1624361-1.377144-.2729369-2.057588-.2621507-.1719-.6361248-.036194-.9509262-.075317h-.029974z" fill="none" opacity=".68" stroke="url(#l)" stroke-width=".999919"/><path d="m7.9999999 4.4732229c-1.3807633 0-2.5000936 1.1349914-2.5000936 2.5350727.010821.5181431.051513 1.1336776.3333444 2.5350729.1666733.5432295 1.6533164 1.9918425 1.6667298 2.1729185.3232373.181075.8333645.181075 1.1667122 0 0-.181076 1.3333833-1.629689 1.5000553-2.1729185.317138-1.456468.316333-1.9918428.333345-2.5350729 0-1.4000813-1.1193297-2.5350727-2.5000931-2.5350727z" fill="url(#n)" stroke="url(#o)" stroke-width=".999813"/><path d="m4.8443056 19.8c-1.4636292-.711942-.7657026-2.29252-.6195656-3.304348-.6195651.718337-.3076095 2.726087-1.54674 2.726087.8260869.293774 1.3915756.494141 2.1663056.578261z" fill="url(#p)" opacity=".5"/><path d="m8 5.4375c-.7988506-.0225277-1.5285136.6901223-1.5254134 1.4898472-.0123042.6499109.1234931 1.2912168.2306737 1.9293972.0277341.2503623.099215.4818625.2817004.664084.334444.4496757.7065068.8702806 1.0755393 1.2916716.3786508-.497217.7660568-.988137 1.125-1.5.1525569-.8464211.3918589-1.6961878.3266846-2.563727-.0989739-.7265893-.7734514-1.3319241-1.5141846-1.311273z" fill="none" opacity=".68" stroke="url(#q)" stroke-width=".999813"/></g><path d="m23.000922 21.751163a5.5000415 1.2469194 0 0 1 -11.000083 0 5.5000415 1.2469194 0 1 1 11.000083 0z" fill="url(#t)" opacity=".4" stroke-width=".881255"/><path d="m22.32969 20.464613-2.797003-2.60615 2.691622-2.729958-1.940778-1.690858-2.76978 2.601728-2.825105-2.599959-2.018058 1.750993 2.825984 2.657442-2.825984 2.613224 2.019814 1.821741 2.821593-2.732611 2.827739 2.732611z" fill="url(#w)" stroke="url(#x)" stroke-linejoin="round" stroke-width=".881255"/><g fill="none" transform="translate(0 -.001543)"><path d="m44.934 14.418-.647-.627-3.265 2.868-3.226-2.864-.824.674" opacity=".5" stroke="url(#u)" stroke-linecap="square" transform="matrix(.87818 0 0 .88434 -18.525 2.438)"/><path d="m45.427 20.732-2.993-2.713m-2.968.035-2.804 2.702" opacity=".4" stroke="url(#v)" transform="matrix(.87818 0 0 .88434 -18.525 2.438)"/></g></svg>