<svg height="24" width="24" xmlns="http://www.w3.org/2000/svg" xmlns:xlink="http://www.w3.org/1999/xlink"><linearGradient id="a"><stop offset="0" stop-color="#64baff"/><stop offset="1" stop-color="#3689e6"/></linearGradient><linearGradient id="b" gradientTransform="matrix(.77056228 0 0 .77077837 -10.001375 -11.006222)" gradientUnits="userSpaceOnUse" x1="20.765842" x2="20.765842" y1="19.46892" y2="40.227158"><stop offset="0" stop-color="#fff"/><stop offset="0" stop-color="#fff" stop-opacity=".235294"/><stop offset="1" stop-color="#fff" stop-opacity=".156863"/><stop offset="1" stop-color="#fff" stop-opacity=".392157"/></linearGradient><linearGradient id="c" gradientUnits="userSpaceOnUse" x1="17" x2="17" xlink:href="#a" y1="2" y2="22.047113"/><linearGradient id="d" gradientUnits="userSpaceOnUse" x1="7" x2="7" xlink:href="#a" y1="2" y2="22.047113"/><g stroke-linejoin="round"><path d="m5.333333 2.5c-.461666 0-.833333.4237-.833333.95v17.1c0 .5263.371667.95.833333.95h3.333334c.461666 0 .833333-.4237.833333-.95v-17.1c0-.5263-.371667-.95-.833333-.95z" fill="url(#d)" stroke="#002e99" stroke-linecap="round" stroke-opacity=".5"/><path d="m15.333333 2.5c-.461666 0-.833333.4237-.833333.95v17.1c0 .5263.371667.95.833333.95h3.333334c.461666 0 .833333-.4237.833333-.95v-17.1c0-.5263-.371667-.95-.833333-.95z" fill="url(#c)" stroke="#002e99" stroke-linecap="round" stroke-opacity=".5"/><path d="m15.498706 3.4980911v17.0057229l3.002861-.02133v-16.9843919zm-10.0028621-.000001v17.0057239l3.002862-.02133v-16.9843909z" fill="none" opacity=".5" stroke="url(#b)" stroke-width=".992"/></g></svg>