<svg height="24" width="24" xmlns="http://www.w3.org/2000/svg" xmlns:xlink="http://www.w3.org/1999/xlink"><linearGradient id="a" gradientUnits="userSpaceOnUse" x1="10.8484" x2="10.8484" xlink:href="#b" y1="8.0466" y2="21.817619"/><linearGradient id="b"><stop offset="0" stop-color="#fff"/><stop offset="1" stop-color="#fff" stop-opacity="0"/></linearGradient><linearGradient id="c" gradientTransform="matrix(.783 0 0 .78 -136.125 -5.74)" gradientUnits="userSpaceOnUse" x1="182" x2="182" xlink:href="#b" y1="33" y2="24.52"/><linearGradient id="d" gradientTransform="matrix(.5135 0 0 .4054 -.33 3.265)" gradientUnits="userSpaceOnUse" x1="24" x2="24" y1="5.564" y2="43"><stop offset="0" stop-color="#fff"/><stop offset=".036" stop-color="#fff" stop-opacity=".235"/><stop offset=".951" stop-color="#fff" stop-opacity=".157"/><stop offset="1" stop-color="#fff" stop-opacity=".392"/></linearGradient><radialGradient id="e" cx="15.951" cy="8.6" gradientTransform="matrix(0 .9738 -1.34684 0 23.58 -6.308)" gradientUnits="userSpaceOnUse" r="18"><stop offset="0" stop-color="#90dbec"/><stop offset=".262" stop-color="#55c1ec"/><stop offset=".705" stop-color="#3689e6"/><stop offset="1" stop-color="#2b63a0"/></radialGradient><linearGradient id="f" gradientTransform="matrix(.4845 0 0 .34573 33.24 3.15)" gradientUnits="userSpaceOnUse" x1="-51.786" x2="-51.786" y1="53.624" y2="2.906"><stop offset="0" stop-color="#185f9a"/><stop offset="1" stop-color="#599ec9"/></linearGradient><linearGradient id="g" gradientTransform="matrix(.0352 0 0 .00824 -.725 18.98)" gradientUnits="userSpaceOnUse" x1="302.857" x2="302.857" y1="366.648" y2="609.505"><stop offset="0" stop-opacity="0"/><stop offset=".5"/><stop offset="1" stop-opacity="0"/></linearGradient><radialGradient id="h" cx="605.714" cy="486.648" gradientTransform="matrix(-.01205 0 0 .00824 8.76 17.98)" gradientUnits="userSpaceOnUse" r="117.143" xlink:href="#i"/><linearGradient id="i"><stop offset="0"/><stop offset="1" stop-opacity="0"/></linearGradient><radialGradient id="j" cx="605.714" cy="486.648" gradientTransform="matrix(.01205 0 0 .00824 15.24 17.98)" gradientUnits="userSpaceOnUse" r="117.143" xlink:href="#i"/><g transform="translate(0 -2)"><g><path d="m1.5 22h21v2h-21z" fill="url(#g)" opacity=".15" transform="translate(0 -1)"/><path d="m1.5 21v2c-.62.004-1.5-.448-1.5-1s.692-1 1.5-1z" fill="url(#h)" opacity=".15"/><path d="m22.5 21v2c.62.004 1.5-.448 1.5-1s-.692-1-1.5-1z" fill="url(#j)" opacity=".15"/><g stroke-linejoin="round"><path d="m1.495 4.495h21v17h-21z" fill="url(#e)" stroke="url(#f)"/><g fill="none"><path d="m21.495 20.495h-19v-15h19z" opacity=".5" stroke="url(#d)" stroke-linecap="round"/><path d="m11.5 18.5h8.658m-.658 1v-6.79m-8.843-5.2-6.94-.02m.783-.77v9.355" opacity=".5" stroke="#fff" stroke-linecap="square"/></g></g><path d="m7 13.018h.993l.007.982h-.993zm2-.018h1l.007.982h-1zm2 0h2l.007.982h-2zm3 0 1.993.018.007.982-1.994-.018zm-7-2h2v1h-2zm3 0h1v1h-1.0000019zm2 0h2l.001 1h-2.001zm3 0h2v1h-2zm-8 4h2v1h-2zm3 0h1v1h-1zm2 0h1v1h-1zm2 0h1v1h-1.002zm2 0 1.012.013-.012.987-1.012-.013z" fill="#fff" opacity=".7"/></g><g><path d="m1.5 6.5 16 16h-16zm3 8.5v4.5h5z" fill="#81d72c" fill-opacity=".588" fill-rule="evenodd" stroke="#4e9a06" stroke-linejoin="round"/><g fill="none" transform="translate(.032)"><path d="m2.468 8.9116875v12.5883125h12.602z" fill="none" opacity=".5" stroke="url(#a)"/><path d="m3.468 14v6.5h7" opacity=".5" stroke="url(#c)"/><path d="m3.468 23.5h14" opacity=".3" stroke="#85f619" stroke-linecap="square"/></g></g></g></svg>