<svg height="24" width="24" xmlns="http://www.w3.org/2000/svg" xmlns:xlink="http://www.w3.org/1999/xlink"><linearGradient id="a"><stop offset="0"/><stop offset="1" stop-opacity="0"/></linearGradient><linearGradient id="b"><stop offset="0" stop-color="#fff"/><stop offset="1" stop-color="#fff" stop-opacity="0"/></linearGradient><linearGradient id="c" gradientTransform="matrix(.5191871 -.1419518 .1416788 .5395318 -2.700956 .511116)" gradientUnits="userSpaceOnUse" x1="16.790216" x2="29.694229" xlink:href="#b" y1="21.270329" y2="46.259285"/><linearGradient id="d" gradientTransform="matrix(.4064094 -.1114517 .1201097 .4587713 .985949 1.932522)" gradientUnits="userSpaceOnUse" x1="23.238182" x2="29.892563" xlink:href="#a" y1="12.158657" y2="26.354361"/><radialGradient id="e" cx="30.685316" cy="42.261425" gradientTransform="matrix(1.9020156 -.4594629 -.3209117 -1.2220749 -34.319147 71.254306)" gradientUnits="userSpaceOnUse" r="8.22791"><stop offset="0" stop-color="#e8e8e8"/><stop offset="1" stop-color="#a5a6a8"/></radialGradient><radialGradient id="f" cx="23.164974" cy="30.23279" gradientTransform="matrix(1.0039742 -.2210864 .3808395 1.798707 -21.33861 -34.687827)" gradientUnits="userSpaceOnUse" r="8.189013"><stop offset="0" stop-color="#767973"/><stop offset="1" stop-color="#202120"/></radialGradient><linearGradient id="g" gradientTransform="matrix(.5802673 -.1586519 .1493371 .5686956 -4.457187 .118027)" gradientUnits="userSpaceOnUse" x1="33.430557" x2="33.430557" y1="45.052155" y2=".310371"><stop offset="0" stop-color="#4c4c4c"/><stop offset="1" stop-color="#d3d7cf"/></linearGradient><linearGradient id="h" gradientTransform="matrix(.3839878 -.1052452 .09919444 .3786761 3.939443 5.887369)" gradientUnits="userSpaceOnUse" x1="19.240318" x2="11.323519" xlink:href="#b" y1="4.81117" y2="35.457581"/><linearGradient id="i" gradientTransform="matrix(.3155841 -.0862844 .1268407 .4830267 1.728122 2.512865)" gradientUnits="userSpaceOnUse" x1="20.226221" x2="11.4375" y1="20.33363" y2="21.75"><stop offset="0" stop-color="#fff" stop-opacity="0"/><stop offset=".5" stop-color="#fff"/><stop offset="1" stop-color="#fff" stop-opacity="0"/></linearGradient><radialGradient id="j" cx="23.986883" cy="27.053167" gradientTransform="matrix(-.1523211 .0416464 -.1633006 -.6218706 18.411522 28.925533)" gradientUnits="userSpaceOnUse" r="7.75" xlink:href="#b"/><radialGradient id="k" cx="9.320398" cy="18.817093" gradientTransform="matrix(.4038641 .1598981 -.2898494 .6893599 10.716404 -2.899861)" gradientUnits="userSpaceOnUse" r="12.5"><stop offset="0" stop-color="#eeeeec"/><stop offset="1" stop-color="#61635f"/></radialGradient><linearGradient id="l" gradientTransform="matrix(.4314627 -.117967 .1114661 .424478 2.778495 5.159344)" gradientUnits="userSpaceOnUse" x1="7.75" x2="4.643187" y1="33.046577" y2="12.063652"><stop offset="0" stop-color="#4b4b4b"/><stop offset="1" stop-color="#babdb6"/></linearGradient><linearGradient id="m" gradientTransform="matrix(.4733762 -.1294266 .1268407 .4830267 -31.97444 13.280659)" gradientUnits="userSpaceOnUse" x1="80.693359" x2="77.125" y1="31.561478" y2="14"><stop offset="0" stop-color="#383937"/><stop offset="1" stop-color="#595b57"/></linearGradient><linearGradient id="n" gradientTransform="matrix(.05807209 .2211463 -.2046339 .05594929 -7.779288 -6.205011)" gradientUnits="userSpaceOnUse" spreadMethod="reflect" x1="102.35701" x2="82.681335" y1="-41.092239" y2="-41.092239"><stop offset="0" stop-color="#babdb6"/><stop offset=".43738842" stop-color="#eeeeec"/><stop offset="1" stop-color="#555753"/></linearGradient><linearGradient id="o" gradientTransform="matrix(.1268407 .4830267 -.4733762 .1294266 -.214527 -32.380564)" gradientUnits="userSpaceOnUse" x1="84.425995" x2="102.42599" y1="8.293367" y2="8.293367"><stop offset="0" stop-color="#a0a0a0"/><stop offset="1" stop-color="#4a4a4a"/></linearGradient><radialGradient id="p" cx="11.402097" cy="36.863068" gradientTransform="matrix(.8415155 0 0 .4207584 2.404959 2.989579)" gradientUnits="userSpaceOnUse" r="10.69499" xlink:href="#a"/><linearGradient id="q" gradientTransform="matrix(.42308 -.1156751 .1268407 .4830267 1.761009 4.056992)" gradientUnits="userSpaceOnUse" x1="9.883214" x2="5.101239" xlink:href="#b" y1="14.05074" y2="30.00112"/><radialGradient id="r" cx="20.8839" cy="20.434256" gradientTransform="matrix(.6996572 -.1532245 .2234237 .6815024 -6.444257 .783163)" gradientUnits="userSpaceOnUse" r="3.999984"><stop offset="0" stop-color="#878a85"/><stop offset="1" stop-color="#3e3f3d"/></radialGradient><radialGradient id="s" cx="11.03125" cy="17.125" gradientTransform="matrix(.63623879 0 0 .14315373 8.98149 18.449012)" gradientUnits="userSpaceOnUse" r="9.84375" xlink:href="#a"/><linearGradient id="t" gradientTransform="matrix(.57894734 0 0 .55555556 34.074641 10.496731)" gradientUnits="userSpaceOnUse" x1="11.192374" x2="11.192374" y1="-.740988" y2="30.298229"><stop offset="0" stop-color="#ff8c82"/><stop offset=".31209752" stop-color="#ed5353"/><stop offset=".57054454" stop-color="#c6262e"/><stop offset="1" stop-color="#a10705"/></linearGradient><linearGradient id="u" gradientUnits="userSpaceOnUse" x1="41.225124" x2="41.225124" y1="23.238064" y2="7.39004"><stop offset="0" stop-color="#7a0000"/><stop offset="1" stop-color="#a10705"/></linearGradient><linearGradient id="v" gradientTransform="matrix(.3077295 -.29497944 .3077295 .29497944 25.944842 17.144019)" gradientUnits="userSpaceOnUse" x1="36.010902" x2="16.331276" xlink:href="#b" y1="13.022708" y2="32.702335"/><linearGradient id="w" gradientTransform="matrix(.3077295 -.29497944 .3077295 .29497944 25.634631 17.292858)" gradientUnits="userSpaceOnUse" x1="28.449389" x2="16.331276" xlink:href="#b" y1="20.584223" y2="32.702335"/><path d="m21 18.5c0 2.485282-4.029436 4.5-9 4.5-4.9705629 0-9-2.014718-9-4.5 0-2.485281 4.0294371-4.5 9-4.5 4.970564 0 9 2.014719 9 4.5z" fill="url(#p)" opacity=".3"/><path d="m7.5027114 13.876691c.3852873 1.467226.061811 2.830486-.7225045 3.044927-.7843152.214442-1.7324653-.80114-2.1177526-2.268366-.385287-1.467226-.061811-2.830486.7225044-3.044927.7843152-.214442 1.7324655.801141 2.1177527 2.268366z" fill="#2e3436" stroke="#555753" stroke-linecap="round"/><path d="m5.0287304 13.210299c.052539.200077-.063823.405731-.2599016.459341-.1960787.05361-.3976234-.06512-.4501626-.2652-.052539-.200077.063823-.40573.2599016-.459341.1960789-.05361.3976235.06512.4501626.2652z" fill="#babdb6"/><path d="m5.7736726 9.9489275c-.9472242.2589825-1.2329758 2.3085475-.6378421 4.5748985.5951335 2.266349 1.8469108 3.895537 2.7941348 3.636555l1.7159886-.469172c.9472241-.258981 1.2329751-2.308548.6378431-4.574897-.5951345-2.266351-1.8469118-3.8955382-2.7941358-3.6365565z" fill="url(#n)" stroke="url(#o)"/><path d="m7.75 10.46875c-.5625.15625-1.125.3125-1.6875.46875.038266.06115-.1947255.427872-.1789271.628844-.1509362 1.233506.06641 2.497877.5185694 3.64944.2624323.621344.5616061 1.255432 1.0523613 1.730578.2141123.130525.23591.265145.4396484.164413.5040327-.130675 1.0080653-.26135 1.512098-.392025-.0949638.023843.1483756-.306956.1371132-.447343.1840688-.913092.0428287-1.857085-.16348-2.754182-.2457684-.955856-.6169426-1.904032-1.2371016-2.681646-.0598963-.12494-.4357113-.372982-.3927816-.366829z" fill="none" opacity=".4" stroke="url(#q)" stroke-linecap="round"/><path d="m7.5279555 9.7281313c-.9660184.2641209-1.2963241 2.2062777-.7372925 4.3351477.5590321 2.128869 1.7967623 3.642307 2.7627807 3.378185l.3017299-.0825c.9660174-.264117 1.2963244-2.206273.7372914-4.335143-.559031-2.12887-1.7967612-3.6423065-2.7627796-3.3781856l-.3017299.082496z" fill="url(#m)"/><path d="m8.0352579 13.731081c1.1703939 4.45702 6.1880861 5.814848 8.8806621 5.078666 1.863919-.509618 2.489676-4.043729 1.474442-7.909873-1.015232-3.8661441-3.288904-6.6075181-5.152824-6.0979008-2.692576.7361817-6.3726745 4.4720892-5.2022801 8.9291078z" fill="url(#k)" stroke="url(#l)" stroke-linecap="round"/><path d="m18.863737 10.770446c1.190888 4.53506-.01607 8.805402-2.695813 9.538076-2.679744.732673-5.817512-2.349771-7.0083983-6.884831-1.1908873-4.5350596.0160691-8.8054016 2.6958133-9.5380752 2.679744-.7326735 5.817511 2.3497702 7.008398 6.8848302z" fill="url(#j)"/><path d="m10.053968 7.1209204c-1.0459862 1.0080187-1.9268751 3.2566766-2.6316727 5.4834856 1.1350737-.893325 2.3507789-1.657681 3.5650387-1.88071z" fill="url(#i)" fill-rule="evenodd" opacity=".733591"/><g stroke-linecap="round"><path d="m9.9701252 8.5340701c-.9340404 1.3357813-1.4571536 3.0293779-.9684961 4.8948349.4886575 1.865458 1.7695279 3.064609 3.2313699 3.743715 9.527293 2.176207 4.143089-15.647987-2.2628738-8.6385499z" fill="none" opacity=".4" stroke="url(#h)"/><path d="m18.863737 10.770448c1.366017 5.201981.459987 9.96951-2.023677 10.648573-2.483665.679063-5.604448-2.987487-6.9704662-8.189469-1.3660182-5.2019818-.4599869-9.9695104 2.0236772-10.6485734 2.483664-.679063 5.604448 2.9874873 6.970466 8.1894694z" fill="url(#f)" stroke="url(#g)"/><path d="m14.425481 12.026471c.355646 1.084817-.629003 2.244092-1.528533 2.441088-.899531.196996-1.918225-.523553-2.273871-1.60837-.355646-1.084818.08577-2.125131.985297-2.322127.89953-.196996 2.46146.40459 2.817107 1.489409z" fill="url(#r)" stroke="#3e3f3d" stroke-width="1.000001"/></g><path d="m11.956689 2.8224929c-1.246137.3407087-2.0143042 1.7154844-2.3259517 3.5803982-.3116475 1.8649133-.165417 4.2607169.4903337 6.7579049.655751 2.497185 1.70308 4.646618 2.886801 6.102681 1.183722 1.456062 2.522627 2.254739 3.768766 1.91403 1.246138-.340709 2.014305-1.715484 2.325952-3.580397.194779-1.165572.212049-2.548776.0377-4.022534-.0055-.04647-.015-.09322-.02088-.139895-.03574-.28374-.07927-.564109-.12925-.85447-.04523-.270517-.09242-.540603-.150907-.816191-.0032-.01514-.0086-.03013-.01189-.04528-.06257-.291364-.13751-.584036-.215106-.879529-.081733-.311249-.162692-.617991-.256585-.916731-.082838-.2655171-.177964-.5284378-.269251-.7838341-.098994-.276961-.198685-.5419726-.306765-.8059349-.018463-.0442299-.031752-.0879956-.050468-.1318064-.571167-1.3652623-1.263907-2.5543419-2.003732-3.4643811-1.183722-1.4560626-2.522628-2.2547395-3.768767-1.9140306zm.49037.9013402c.909959-.2487933 2.013493.3635757 3.070024 1.66826.660331.8154277 1.296358 1.8900081 1.823808 3.1414729.10549.2502931.202158.5117251.298838.775745.08911.2476447.180519.4959985.261325.753646.09379.295589.186381.589007.267412.897586.07556.287761.131982.569685.192386.853386.0043.02003.0116.04037.01585.06038.05503.262843.100638.528137.142981.786.04565.277975.09003.553701.121322.824281.156445 1.352903.132186 2.608013-.04011 3.651091-.275675 1.668924-.931295 2.762267-1.841255 3.011061-.909955.248791-2.013488-.363577-3.07002-1.668262-1.056531-1.304683-2.046865-3.266361-2.651382-5.56845-.60452-2.302087-.708107-4.5062111-.432433-6.1751361.275673-1.6689249.931296-2.7622676 1.841254-3.0110608z" fill="url(#e)"/><path d="m17.753025 11.071536c1.098668 4.196479.579159 7.985112-1.160358 8.462149s-4.040321-2.538168-5.138989-6.734648c-1.09867-4.1964787-.579159-7.9851122 1.160358-8.4621488 1.739515-.4770366 4.040319 2.5381681 5.138989 6.7346478z" fill="none" opacity=".3" stroke="url(#d)" stroke-linecap="round"/><path d="m5.8979706 11.629837c.070052.266769-.085097.540974-.3465355.612454-.2614384.07148-.5301645-.08683-.6002167-.3536-.070052-.266769.085097-.540973.3465352-.612453.2614389-.07148.5301647.08683.600217.353599z" fill="#fff"/><path d="m18.390366 10.899873c1.295966 4.935212.545082 9.428536-1.677146 10.036121-2.222228.607582-5.074288-2.900656-6.370254-7.835868-1.2959652-4.9352131-.5450814-9.4285375 1.677146-10.0361208 2.222229-.6075833 5.074289 2.900654 6.370254 7.8358678z" fill="none" opacity=".4" stroke="url(#c)" stroke-linecap="round"/><path d="m10.19344 6.7343909c.07005.2667687-.0851.5409729-.3465345.6124534-.2614389.07148-.5301647-.086831-.600217-.3536002-.070052-.2667683.085097-.540973.3465355-.6124534.2614384-.07148.530165.086832.600216.3536002z" fill="#fff" opacity=".6"/><g transform="matrix(.87817681 0 0 .88433535 3.449172 3.270754)"><path d="m22.262975 20.900519a6.2629757 1.4091694 0 0 1 -12.5259514 0 6.2629757 1.4091694 0 1 1 12.5259514 0z" fill="url(#s)" opacity=".4"/><g transform="translate(-25.02201 -.941175)"><path d="m46.52201 20.385514-3.184991-2.946158 3.06471-3.086417-2.209232-1.911764-3.154011 2.941176-3.217945-2.941176-2.298531 1.982082 3.217944 3.003528-3.217944 2.955566 2.298531 2.058824 3.214211-3.088236 3.22168 3.088236z" fill="url(#t)" stroke="url(#u)" stroke-linejoin="round"/><g fill="none"><path d="m44.93385 14.418281-.647334-.627116-3.264508 2.866366-3.225731-2.863558-.824531.673766" opacity=".5" stroke="url(#v)" stroke-linecap="square"/><path d="m45.42749 20.732088-2.99345-2.713434m-2.968147.03651-2.804358 2.701545" opacity=".4" stroke="url(#w)"/></g></g></g></svg>