<svg height="24" width="24" xmlns="http://www.w3.org/2000/svg" xmlns:xlink="http://www.w3.org/1999/xlink"><linearGradient id="a" gradientTransform="matrix(.55801834 0 0 .70681406 -11.693179 12.704068)" gradientUnits="userSpaceOnUse" x1="24.010853" x2="24.010853" y1="8.420643" y2="10.368062"><stop offset="0" stop-color="#fff"/><stop offset="0" stop-color="#fff" stop-opacity=".235"/><stop offset="1" stop-color="#fff" stop-opacity=".157"/><stop offset="1" stop-color="#fff" stop-opacity=".392"/></linearGradient><linearGradient id="b" gradientUnits="userSpaceOnUse" x1="10.186459" x2="10.186459" y1="2.549" y2="9.641272"><stop offset="0" stop-color="#64baff"/><stop offset="1" stop-color="#3689e6"/></linearGradient><linearGradient id="c"><stop offset="0"/><stop offset="1" stop-opacity="0"/></linearGradient><radialGradient id="d" cx="62.625" cy="4.625" gradientTransform="matrix(.15 0 0 .04 -.224375 4.351069)" gradientUnits="userSpaceOnUse" r="10.625" xlink:href="#c"/><linearGradient id="e" gradientUnits="userSpaceOnUse" x1="10.244605" x2="9.885405" y1="3.30187" y2="3.86059"><stop offset="0" stop-color="#fff"/><stop offset="0" stop-color="#fff" stop-opacity=".235"/><stop offset=".539" stop-color="#fff" stop-opacity=".157"/><stop offset="1" stop-color="#fff" stop-opacity=".392"/></linearGradient><linearGradient id="f" gradientUnits="userSpaceOnUse" x1="8.334375" x2="8.334375" xlink:href="#g" y1="2.36523" y2="4.614189"/><linearGradient id="g"><stop offset="0" stop-color="#fff"/><stop offset=".5" stop-color="#fff" stop-opacity=".235"/><stop offset=".75" stop-color="#fff" stop-opacity=".157"/><stop offset="1" stop-color="#fff" stop-opacity=".392"/></linearGradient><linearGradient id="h" gradientUnits="userSpaceOnUse" x1="9.128125" x2="9.128125" xlink:href="#g" y1="1.836063" y2="3.688147"/><linearGradient id="i" gradientTransform="matrix(.0352071 0 0 .0082353 -.724852 18.980547)" gradientUnits="userSpaceOnUse" x1="302.85715" x2="302.85715" y1="366.64789" y2="609.50507"><stop offset="0" stop-opacity="0"/><stop offset=".5"/><stop offset="1" stop-opacity="0"/></linearGradient><radialGradient id="j" cx="605.71429" cy="486.64789" gradientTransform="matrix(-.01204859 0 0 .0082353 10.761206 18.980564)" gradientUnits="userSpaceOnUse" r="117.14286" xlink:href="#n"/><radialGradient id="k" cx="605.71429" cy="486.64789" gradientTransform="matrix(.01204859 0 0 .0082353 6.738793 18.980673)" gradientUnits="userSpaceOnUse" r="117.14286" xlink:href="#n"/><linearGradient id="l" gradientTransform="matrix(.48571543 0 0 .45629666 .342829 .348862)" gradientUnits="userSpaceOnUse" x1="25.132275" x2="25.132275" y1=".985206" y2="47.013336"><stop offset="0" stop-color="#f4f4f4"/><stop offset="1" stop-color="#dbdbdb"/></linearGradient><linearGradient id="m" gradientTransform="matrix(.40540511 0 0 .51351351 2.269687 -.32432)" gradientUnits="userSpaceOnUse" x1="23.99999" x2="24.001455" xlink:href="#o" y1="6.473675" y2="25.947361"/><linearGradient id="n" xlink:href="#c"/><linearGradient id="o" gradientTransform="matrix(.40540511 0 0 .51351351 2.269687 -.32432)" gradientUnits="userSpaceOnUse" x1="23.99999" x2="24.001455" y1="6.473675" y2="25.947361"><stop offset="0" stop-color="#fff"/><stop offset="0" stop-color="#fff" stop-opacity=".235294"/><stop offset="1" stop-color="#fff" stop-opacity=".156863"/><stop offset="1" stop-color="#fff" stop-opacity=".392157"/></linearGradient><g transform="translate(-2)"><g transform="translate(0 -8.000085)"><path d="m3.500001 22 10.499999.000085v2l-10.499999-.000085z" fill="url(#i)" opacity=".15"/><path d="m3.4999999 22.000085v1.999891c-.6204724.0038-1.4999999-.448075-1.4999999-1.000075 0-.551999.6924-.999816 1.4999999-.999816z" fill="url(#j)" opacity=".15"/><path d="m14 22.000194v1.999891c.620472.0038 1.5-.448075 1.5-1.000075 0-.551999-.692402-.999816-1.5-.999816z" fill="url(#k)" opacity=".15"/></g><path d="m3.4999601 1.4999569c3.8955809 0 10.0000589.00136 10.0000589.00136l.000021 12.9987161h-10.0000795l-.0000004-13.0000538z" fill="url(#l)"/><g fill="none"><path d="m12.5 13.5h-8l-.0000004-11h8.0000004z" stroke="url(#o)" stroke-linecap="round"/><path d="m3.4999601 1.4999569c3.8955809 0 10.0000589.00136 10.0000589.00136l.000021 12.9987161h-10.0000795l-.0000004-13.0000538z" opacity=".3" stroke="#000" stroke-linejoin="round" stroke-width=".999922"/></g></g><path d="m4 3h8v12h-8z" opacity=".05"/><g transform="translate(2 3)"><g transform="translate(0 -8.000085)"><path d="m3.500001 22 10.499999.000085v2l-10.499999-.000085z" fill="url(#i)" opacity=".15"/><path d="m3.4999999 22.000085v1.999891c-.6204724.0038-1.4999999-.448075-1.4999999-1.000075 0-.551999.6924-.999816 1.4999999-.999816z" fill="url(#j)" opacity=".15"/><path d="m14 22.000194v1.999891c.620472.0038 1.5-.448075 1.5-1.000075 0-.551999-.692402-.999816-1.5-.999816z" fill="url(#k)" opacity=".15"/></g><path d="m3.4999601 1.4999569c3.8955809 0 10.0000589.00136 10.0000589.00136l.000021 12.9987161h-10.0000795l-.0000004-13.0000538z" fill="url(#l)"/><g fill="none"><path d="m12.5 13.5h-8l-.0000004-11h8.0000004z" stroke="url(#m)" stroke-linecap="round"/><path d="m3.4999601 1.4999569c3.8955809 0 10.0000589.00136 10.0000589.00136l.000021 12.9987161h-10.0000795l-.0000004-13.0000538z" opacity=".3" stroke="#000" stroke-linejoin="round" stroke-width=".999922"/></g></g><g transform="matrix(.72649942 0 0 .72649942 17.761088 .446502)"><path d="m-4.6846948 31.027551c.00688.341363.027529.869925.3248454.942878 3.14109.01789 6.297321-.01376 9.4370344-.0083.323469.01377.3358571-.591879.3248454-.94976l-10.0894781.01376z" fill="#505050" stroke="#565656" stroke-linecap="square" stroke-width=".951136"/><g stroke-linecap="round" transform="matrix(1.3764636 0 0 1.3764636 -7.982702 10.397115)"><path d="m.637 9.568.517-2.11 9.76.014.494 2.118z" fill="#4f4f4f" fill-rule="evenodd"/><path d="m1.037 9.54 9.99.012c.278 0 .502.24.5.54l-.004 4.414-10.993-.01.007-4.416c0-.3.223-.54.5-.54z" fill="#4f4f4f"/><path d="m1.037 9.54 9.99.012c.278 0 .502.24.5.54l-.004 4.414-10.993-.01.007-4.416c0-.3.223-.54.5-.54z" fill="none" opacity=".71" stroke="#393939" stroke-linejoin="round"/><path d="m8.05 10h1v1h-1z" fill="#0cceff"/><path d="m.637 9.568.517-2.11 9.76.014.494 2.118z" fill="none" opacity=".7" stroke="#393939" stroke-linecap="butt"/></g><g fill="#e9e9e9" stroke-width="1.376464"><path d="m5.1464762 26.914678v4.349625c0 .261528-.06607.467998-.1486581.467998h-4.66896443-4.67034087c-.082588 0-.1472817-.20647-.1472817-.467998v-4.349625z"/><path d="m-4.4589547 16.602213 9.6214805-.01101-.01605 5.505852h-9.6352451z" stroke="#8c8c8c" stroke-linejoin="round"/><path d="m3.7700126 20.720592h-6.8974589l.015141-2.752927h6.8823179z" fill="none" stroke="url(#a)" stroke-linecap="round" stroke-width="1.376464"/></g></g><g stroke-width=".264583" transform="matrix(3.7795275 0 0 3.7795275 -26.000001 5.121093)"><path d="m7.5406254 1.6717329c.042122 1.3724856-.1267315 2.244142 1.3229167 2.0892784v.5725748l1.0583333-.9260418-1.0583333-.79375v.513147c-1.0828698.1206246-.6289135-.5080845-.7591269-1.4552084z" style="stroke:#002e99;stroke-linecap:square;stroke-linejoin:round;stroke-miterlimit:20;stroke-opacity:.490196;fill:url(#b)"/><path d="m10.715625 4.5610698c0 .2629998-.709999.476-1.5869995.476-.8770001 0-1.5880001-.2130002-1.5880001-.476 0-.263.71-.4760002 1.5870001-.4760002.8769995 0 1.5879995.2130002 1.5879995.4760002z" fill="url(#d)" fill-rule="evenodd" opacity=".3" stroke-width="1"/><g fill="none"><path d="m9.0481551 3.4235641.00476-.4810519.4720853.4650321-.4778418.5790198v-.4" opacity=".5" stroke="url(#e)"/><path d="m8.8635421 3.6149508c-1.1121469.0807203-1.0583334-.3557178-1.1435382-1.8109262" opacity=".5" stroke="url(#f)"/><path d="m8.8254241 3.2752527c-.2311303-.0287024-1.0531826.4784856-.8541193-1.4392885.00227-.021824-.215903-.010778-.3852743.00169" opacity=".5" stroke="url(#h)"/></g></g></svg>