<svg height="24" width="24" xmlns="http://www.w3.org/2000/svg" xmlns:xlink="http://www.w3.org/1999/xlink"><mask id="a"><path d="m303.54129 125.90525h23.375v22.5h-23.375z" fill="url(#b)"/></mask><linearGradient id="b" gradientUnits="userSpaceOnUse" x1="316.47247" x2="317.62369" y1="138.89748" y2="141.19508"><stop offset="0" stop-color="#fff"/><stop offset="1"/></linearGradient><linearGradient id="c" gradientTransform="matrix(.7811541 -.03481362 -.03481362 .7811541 70.230423 94.3198)" gradientUnits="userSpaceOnUse" x1="309.29663" x2="335.30014" y1="67.297691" y2="81.926315"><stop offset="0" stop-color="#d3d7cf"/><stop offset=".18303643" stop-color="#babdb6"/><stop offset=".31893486" stop-color="#fff"/><stop offset=".87643671" stop-color="#babdb6"/><stop offset="1" stop-color="#eeeeec"/></linearGradient><linearGradient id="d" gradientTransform="matrix(.7811541 -.03481362 -.03481362 .7811541 70.230423 94.3198)" gradientUnits="userSpaceOnUse" x1="324.49731" x2="330.06076" y1="70.282364" y2="99.273735"><stop offset="0" stop-color="#888a85"/><stop offset="1" stop-color="#555753"/></linearGradient><linearGradient id="e" gradientTransform="matrix(.801996 0 0 .7960034 69.746815 998.18246)" gradientUnits="userSpaceOnUse" x1="302.29202" x2="308.64914" y1="58.442768" y2="60.767513"><stop offset="0" stop-color="#babdb6"/><stop offset="1" stop-color="#fff"/></linearGradient><linearGradient id="f"><stop offset="0" stop-color="#fff"/><stop offset=".50775999" stop-color="#fff" stop-opacity=".235294"/><stop offset=".83456999" stop-color="#fff" stop-opacity=".156863"/><stop offset="1" stop-color="#fff" stop-opacity=".392157"/></linearGradient><linearGradient id="g" gradientTransform="matrix(.29729726 0 0 -.29729726 -9.326179 19.538808)" gradientUnits="userSpaceOnUse" x1="71.204002" x2="71.204002" xlink:href="#f" y1="6.2376" y2="44.341"/><radialGradient id="h" cx="23.896" cy="3.99" gradientTransform="matrix(0 .52770723 -.69656421 0 14.779293 -5.447722)" gradientUnits="userSpaceOnUse" r="20.396999"><stop offset="0" stop-color="#f8b17e"/><stop offset=".26238" stop-color="#e35d4f"/><stop offset=".66093999" stop-color="#c6262e"/><stop offset="1" stop-color="#690b54"/></radialGradient><linearGradient id="i" gradientTransform="matrix(.22110724 0 0 .22110728 6.693426 6.693263)" gradientUnits="userSpaceOnUse" x1="7.0776" x2="7.0776" y1="3.0816" y2="45.368999"><stop offset="0" stop-color="#791235"/><stop offset="1" stop-color="#c7321f"/></linearGradient><radialGradient id="j" cx="23.896" cy="3.99" gradientTransform="matrix(0 1.2316483 -1.625754 0 18.486966 -28.721977)" gradientUnits="userSpaceOnUse" r="20.396999"><stop offset="0" stop-color="#fff"/><stop offset=".26238" stop-color="#ddd"/><stop offset=".66093999" stop-color="#abacae"/><stop offset="1" stop-color="#89898b"/></radialGradient><linearGradient id="k" gradientTransform="matrix(.51605578 0 0 .51605586 -.385137 -.385387)" gradientUnits="userSpaceOnUse" x1="18.379" x2="18.379" y1="44.98" y2="3.0816"><stop offset="0" stop-color="#505050"/><stop offset="1" stop-color="#aaa"/></linearGradient><linearGradient id="l" gradientUnits="userSpaceOnUse" x1="11.728084" x2="11.728084" xlink:href="#f" y1="2.181808" y2="21.748418"/><radialGradient id="m" cx="62.625" cy="4.625" gradientTransform="matrix(1.1294118 0 0 .2823525 -58.729414 19.694118)" gradientUnits="userSpaceOnUse" r="10.625"><stop offset="0"/><stop offset="1" stop-opacity="0"/></radialGradient><linearGradient id="n" gradientUnits="userSpaceOnUse" x1="11.899823" x2="11.899823" xlink:href="#f" y1="8.382963" y2="15.591519"/><linearGradient id="o" gradientUnits="userSpaceOnUse" x1="68.313301" x2="68.313301" y1="52.925316" y2="65.922028"><stop offset="0" stop-color="#fff"/><stop offset="1" stop-color="#fff" stop-opacity="0"/></linearGradient><path d="m24 21c0 1.6569-5.3726 3-12 3s-12-1.343-12-3 5.3726-3 12-3 12 1.3431 12 3z" fill="url(#m)" fill-rule="evenodd" opacity=".3"/><g stroke-linecap="round" stroke-linejoin="round"><path d="m12 1.5014c-5.7927 0-10.498 4.7058-10.498 10.498 0 5.7927 4.7058 10.498 10.498 10.498 5.7927 0 10.498-4.7058 10.498-10.498 0-5.7927-4.7058-10.498-10.498-10.498z" fill="url(#j)" stroke="url(#k)" stroke-width="1.003654"/><path d="m12 7.5018c-2.4819 0-4.4982 2.0162-4.4982 4.4982 0 2.4819 2.0163 4.4982 4.4982 4.4982s4.4982-2.0162 4.4982-4.4982c0-2.4819-2.0162-4.4982-4.4982-4.4982z" fill="url(#h)" stroke="url(#i)" stroke-width="1.003654"/><g fill="none"><path d="m17.5 12c0-3.0375-2.463-5.5-5.5-5.5-3.0375 0-5.5 2.4626-5.5 5.5 0 3.038 2.4625 5.5 5.5 5.5 3.037 0 5.5-2.462 5.5-5.5z" opacity=".5" stroke="url(#g)"/><path d="m21.5 12c0 5.247-4.254 9.5-9.5 9.5-5.2466 0-9.5-4.254-9.5-9.5 0-5.2466 4.2534-9.4997 9.5001-9.4997 5.2463 0 9.4999 4.253 9.4999 9.4997z" opacity=".8" stroke="url(#l)"/><path d="m15.499905 12.000095c0 1.933053-1.567221 3.499905-3.499905 3.499905-1.932906 0-3.4999053-1.567221-3.4999053-3.499905 0-1.932906 1.5669993-3.4997951 3.4999423-3.4997951 1.932795 0 3.499868 1.5668521 3.499868 3.4997951z" opacity=".5" stroke="url(#n)"/></g></g><path d="m78.338799 64.349724a11.424408 11.424408 0 1 1 -22.848816 0 11.424408 11.424408 0 1 1 22.848816 0z" fill="url(#o)" opacity=".4" transform="matrix(.17506378 0 0 .17506378 .285714 -.265306)"/><g transform="matrix(.86159972 0 0 .86159972 3.285686 3.110525)"><path d="m14.999984 11.580757c-.05244.01567-.08675.04907-.125.09375-.07653.08936-.11515.216835-.0625.3125l1.40625 2.65625c.125982.239363.04748.573495-.1875.90625-.237231.335907-.608047.688579-1.09375.96875-.485808.28024-.977944.437605-1.375.46875-.394711.03099-.717447-.07247-.84375-.3125l-1.40625-2.6875c-.03935-.07451-.100938-.118741-.1875-.125-.08652-.0061-.189081.02655-.25.09375-.03284.03499-.04982.0798-.0625.125-.351964 1.288231-.265359 2.739563.25 3.71875.703824 1.337255 2.271665 1.940224 3.84375 1.59375.627816.186403-.460557-1.026545.497159-.07386l4.887516.28125-.540925-1.082386c-.863354-.858809-1.28426-1.620936-1.5-2.21875.248089-.850827.189199-1.756137-.21875-2.53125-.51516-.97876-1.649372-1.810281-2.875-2.1875-.05255-.01719-.103808-.01567-.15625 0z" style="opacity:.4;fill:none;stroke:#000;stroke-width:2;stroke-linecap:round;stroke-linejoin:round;stroke-dashoffset:.3612"/><g enable-background="new" mask="url(#a)" transform="matrix(.8686611 0 0 .8704732 -253.90735 -98.906489)"><path d="m319.39329 139.2285-4.34206-4.35975c-.99389-.9866-1.50014-1.84777-1.7485-2.53454.2856-.97743.2328-2.00504-.23683-2.89549-.59305-1.1244-1.89986-2.08374-3.3108-2.51709-.12099-.0395-.25795.00092-.34601.10358-.0881.10266-.10892.24521-.0483.35511l1.61439 3.06837c.14503.27498.0466.64136-.22391 1.02363-.2731.38589-.71642.77909-1.27556 1.10095-.55926.32194-1.11244.50954-1.56953.54532-.45439.0356-.8053-.0744-.9507-.35014l-1.62416-3.08537c-.0453-.0856-.1291-.13927-.22875-.14646-.0996-.007-.20234.0334-.27247.1106h-.00001c-.0378.0402-.0658.0881-.0804.14003-.40518 1.47992-.31949 3.15578.27379 4.28067.81024 1.53624 2.61048 2.20625 4.42026 1.80822.72274.21414 1.6718.71421 2.77432 1.80865l3.29554 3.21095" style="fill-rule:evenodd;stroke-width:1.149998;stroke-linecap:round;stroke-linejoin:round;stroke-dashoffset:.3612;fill:url(#c);stroke:url(#d)"/><path d="m314.50598 1039.6243c.015.01.006.025 0 .025l1.80449 3.2089c.24343.4323.0678.9428-.22556 1.3681-.29634.4296-.75548.8457-1.35337 1.1692-.59917.3241-1.22764.4798-1.75437.4975-.52558.018-1.01891-.1313-1.25311-.5473l-1.8045-3.2337c-.0104 0-.0268 0-.0251 0 .0165-.018.003.013 0 .025-.33275 1.4234-.16017 3.0685.45113 4.1542.83618 1.485 2.58195 2.1944 4.31073 1.8905 1.72065-.3057 3.19191-1.7936 3.55886-3.2089.23171-.9167.13299-1.9018-.35088-2.7611-.60963-1.0827-1.95075-2.1023-3.35835-2.5871z" fill="url(#e)" fill-rule="evenodd" transform="translate(-5.083714 -912.59475)"/><path d="m310.21875 127.75 1.25 2.4375c.28894.54782.085 1.12046-.25 1.59375-.33855.47839-.8542.92749-1.46875 1.28125-.60688.34935-1.22432.57896-1.8125.625-.2801.0219-.5499-.002-.8125-.0937-.2626-.0921-.51362-.29205-.65625-.5625l-1.25-2.375c-.17286 1.16401-.0996 2.37485.3125 3.15625.68338 1.29573 2.17648 1.88419 3.78125 1.53125.0917-.0238.18952-.0238.28125 0 .82317.2439 1.87487.7896 3.03125 1.9375l4.03032 3.84651 2.65917-1.37343-4.65824-4.47313c-1.04139-1.03374-1.59436-1.97397-1.875-2.75-.0358-.11084-.0358-.23291 0-.34375.24916-.8527.1772-1.74925-.21875-2.5-.41054-.77836-1.32353-1.47359-2.34375-1.9375z" style="fill:none;stroke:#fff;stroke-width:.574999;stroke-linecap:round;stroke-linejoin:round;stroke-dashoffset:.3612"/><path d="m318.61464 140.71739-.12501.12501c-.34845.34845-1.18936.0686-1.88545-.6275l-4.17573-3.67032c-.69609-.69609-.97595-1.537-.6275-1.88546l.125-.125c.34846-.34845 1.18937-.0686 1.88546.6275l4.17573 3.67032c.69609.69609.97595 1.537.6275 1.88545z" fill-rule="evenodd" opacity=".08"/></g></g></svg>