<svg height="24" viewBox="0 0 6.3499999 6.3500001" width="24" xmlns="http://www.w3.org/2000/svg" xmlns:xlink="http://www.w3.org/1999/xlink"><linearGradient id="a" gradientTransform="matrix(.26458484 0 0 .26458333 -20.905474 216.0909)" gradientUnits="userSpaceOnUse" x1="105.47171" x2="105.47171" y1="283.47653" y2="303.33859"><stop offset="0" stop-color="#fff"/><stop offset=".06316455" stop-color="#fff" stop-opacity=".235294"/><stop offset=".95056331" stop-color="#fff" stop-opacity=".156863"/><stop offset="1" stop-color="#fff" stop-opacity=".392157"/></linearGradient><linearGradient id="b" gradientTransform="matrix(.93896692 0 0 .26458333 -217.5476 281.70752)" gradientUnits="userSpaceOnUse" x1="236.1953" x2="236.1953" y1="35.803886" y2="53.803886"><stop offset="0" stop-color="#f4f4f4" stop-opacity=".746324"/><stop offset=".5" stop-color="#f7f7f7"/><stop offset="1" stop-color="#dcdcdc"/></linearGradient><g transform="matrix(.68442421 0 0 .68442421 .206351 -197.124148)"><path d="m1.9658863 290.91995c-.2931577.00031-.528594.23601-.5291666.52917l-.00474 2.42553c-.0005522.28267.2201809.51.4986775.52607l4.3839456-.007c.2931578-.00029.5285937-.23601.5291666-.52917l.00474-2.42553c.0005514-.28219-.2193055-.5093-.4971273-.52607z" style="opacity:.2;fill:none;stroke:#000;stroke-width:.386578;stroke-linecap:round;stroke-linejoin:round"/><path d="m2.160071 291.11135c-.2931537-.002-.5327205.23604-.5291667.52917l.023987 1.97848c.00355.29313.2360131.52757.5291667.52916l3.9825185.0362c.2931563.002.5327201-.23604.5291667-.52917l-.023984-1.97848c-.00355-.29313-.236013-.52758-.5291667-.52916z" fill="url(#b)"/><path d="m6.1831609 291.31754-1.0725648-.017h-1.546312l-1.4642316.0161c-.14658.00006-.264099.118-.2645833.26458l-.00705 2.13367c-.0004683.142.1114796.25499.2516642.262l4.0939599.003c.1465799.00006.2640988-.11801.2645833-.26459l.00705-2.13367c.0004763-.14583-.1169693-.26287-.262515-.26406z" fill="none" stroke="url(#a)" stroke-linecap="round" stroke-linejoin="round" stroke-width=".386578"/><path d="m3.1777061 292.26693v1.54631l1.546312-.77315zm1.546312.77316v.38658.38657h.386578v-.38657-.38658-.38658-.38658h-.386578v.38658z" fill="#fff" fill-opacity=".847059" stroke-width=".386578"/><path d="m8.9999999 9.9999871v3.9999999l4.0000001-1.999987zm4.0000001 2.0000129v1 1h1v-1-1-1-1h-1v1z" fill="#4d4d4d" transform="matrix(.38657799 0 0 .38657799 -.301496 288.01458)"/></g></svg>