<svg height="24" width="24" xmlns="http://www.w3.org/2000/svg" xmlns:xlink="http://www.w3.org/1999/xlink"><linearGradient id="a"><stop offset="0" stop-color="#fff"/><stop offset="1" stop-color="#fff" stop-opacity="0"/></linearGradient><radialGradient id="b" cx="11.03125" cy="17.125" gradientTransform="matrix(.63623879 0 0 .14315373 8.98149 18.449012)" gradientUnits="userSpaceOnUse" r="9.84375"><stop offset="0"/><stop offset="1" stop-opacity="0"/></radialGradient><linearGradient id="c" gradientTransform="matrix(.57894734 0 0 .55555556 34.074641 10.496731)" gradientUnits="userSpaceOnUse" x1="11.192374" x2="11.192374" y1="-.740988" y2="30.298229"><stop offset="0" stop-color="#f8b17e"/><stop offset=".31209752" stop-color="#e35d4f"/><stop offset=".57054454" stop-color="#c6262e"/><stop offset="1" stop-color="#690b54"/></linearGradient><linearGradient id="d" gradientUnits="userSpaceOnUse" x1="41.225124" x2="41.225124" y1="23.238064" y2="7.39004"><stop offset="0" stop-color="#791235"/><stop offset="1" stop-color="#dd3b27"/></linearGradient><linearGradient id="e" gradientTransform="matrix(.3077295 -.29497944 .3077295 .29497944 25.944842 17.144019)" gradientUnits="userSpaceOnUse" x1="36.010902" x2="16.331276" xlink:href="#a" y1="13.022708" y2="32.702335"/><linearGradient id="f" gradientTransform="matrix(.3077295 -.29497944 .3077295 .29497944 25.634631 17.292858)" gradientUnits="userSpaceOnUse" x1="28.449389" x2="16.331276" xlink:href="#a" y1="20.584223" y2="32.702335"/><linearGradient id="g" gradientUnits="userSpaceOnUse" x1="7.028915" x2="1.951994" xlink:href="#h" y1="10.461203" y2="4.368898"/><linearGradient id="h"><stop offset="0" stop-color="#1f1f1f"/><stop offset="1" stop-color="#5c5c5c"/></linearGradient><linearGradient id="i" gradientUnits="userSpaceOnUse" x1="19.678272" x2="14.601351" xlink:href="#h" y1="10.461203" y2="4.368898"/><g stroke="#000"><path d="m11.460055 17.430622h1.21389c.256189 0 .462435.238477.462435.534702v1.069356c0 .296225-.206246.534702-.462435.534702h-1.21389c-.256189 0-.462435-.238477-.462435-.534702v-1.069356c0-.296225.206246-.534702.462435-.534702z" fill="#727272" opacity=".66" stroke-width=".86124"/><path d="m6.3246793 4.7959648q-1.4316327 0-2.1566262 1.4132784-.7158163 1.4041013-.7158163 4.2306578 0 2.81738.7158163 4.230658.7249935 1.404102 2.1566262 1.404102 1.4408098 0 2.1566261-1.404102.7249935-1.413278.7249935-4.230658 0-2.8265565-.7249935-4.2306578-.7158163-1.4132784-2.1566261-1.4132784zm0-1.4683412q2.3034602 0 3.5148417 1.8262494 1.220559 1.8170722 1.220559 5.286028 0 3.459779-1.220559 5.286029-1.2113815 1.817072-3.5148417 1.817072-2.3034603 0-3.5240189-1.817072-1.2113815-1.82625-1.2113815-5.286029 0-3.4689558 1.2113815-5.286028 1.2205586-1.8262494 3.5240189-1.8262494z" fill="url(#g)" opacity=".66" stroke-width="1.015384" transform="scale(.94866481 1.0541131)"/><path d="m18.974037 4.7959648q-1.431633 0-2.156626 1.4132784-.715817 1.4041013-.715817 4.2306578 0 2.81738.715817 4.230658.724993 1.404102 2.156626 1.404102 1.44081 0 2.156626-1.404102.724993-1.413278.724993-4.230658 0-2.8265565-.724993-4.2306578-.715816-1.4132784-2.156626-1.4132784zm0-1.4683412q2.30346 0 3.514841 1.8262494 1.220559 1.8170722 1.220559 5.286028 0 3.459779-1.220559 5.286029-1.211381 1.817072-3.514841 1.817072-2.303461 0-3.524019-1.817072-1.211382-1.82625-1.211382-5.286029 0-3.4689558 1.211382-5.286028 1.220558-1.8262494 3.524019-1.8262494z" fill="url(#i)" opacity=".66" stroke-width="1.015384" transform="scale(.94866481 1.0541131)"/></g><g transform="matrix(.87817681 0 0 .88433535 4.449172 4.270754)"><path d="m22.262975 20.900519a6.2629757 1.4091694 0 0 1 -12.5259514 0 6.2629757 1.4091694 0 1 1 12.5259514 0z" fill="url(#b)" opacity=".4"/><g transform="translate(-25.02201 -.941175)"><path d="m46.52201 20.385514-3.184991-2.946158 3.06471-3.086417-2.209232-1.911764-3.154011 2.941176-3.217945-2.941176-2.298531 1.982082 3.217944 3.003528-3.217944 2.955566 2.298531 2.058824 3.214211-3.088236 3.22168 3.088236z" fill="url(#c)" stroke="url(#d)" stroke-linejoin="round"/><path d="m44.93385 14.418281-.647334-.627116-3.264508 2.866366-3.225731-2.863558-.824531.673766" fill="none" opacity=".5" stroke="url(#e)" stroke-linecap="square"/><path d="m45.42749 20.732088-2.99345-2.713434m-2.968147.03651-2.804358 2.701545" fill="none" opacity=".4" stroke="url(#f)"/></g></g></svg>