<svg xmlns="http://www.w3.org/2000/svg" xmlns:xlink="http://www.w3.org/1999/xlink" height="24" width="24"><linearGradient id="g" gradientTransform="matrix(.5135 0 0 .4054 -.33 3.265)" gradientUnits="userSpaceOnUse" x1="6.483" x2="49.326" y1="-5.588" y2="58.546"><stop offset="0" stop-color="#fff"/><stop offset="1" stop-color="#fff" stop-opacity=".392"/></linearGradient><radialGradient id="e" cx="13.027" cy="9.355" gradientTransform="matrix(0 .9738 -1.34684 0 23.58 -6.308)" gradientUnits="userSpaceOnUse" r="18" fx="13.027" fy="9.355"><stop offset="0" stop-color="#90dbec"/><stop offset=".262" stop-color="#55c1ec"/><stop offset=".705" stop-color="#3689e6"/><stop offset="1" stop-color="#2b63a0"/></radialGradient><linearGradient id="f" gradientTransform="matrix(.4845 0 0 .34573 33.24 3.15)" gradientUnits="userSpaceOnUse" x1="-51.786" x2="-51.786" y1="53.624" y2="2.906"><stop offset="0" stop-color="#185f9a"/><stop offset="1" stop-color="#599ec9"/></linearGradient><linearGradient id="b" gradientTransform="matrix(.0352 0 0 .00824 -.725 18.98)" gradientUnits="userSpaceOnUse" x1="302.857" x2="302.857" y1="366.648" y2="609.505"><stop offset="0" stop-opacity="0"/><stop offset=".5"/><stop offset="1" stop-opacity="0"/></linearGradient><radialGradient id="c" cx="605.714" cy="486.648" gradientTransform="matrix(-.01205 0 0 .00824 10.76 18.98)" gradientUnits="userSpaceOnUse" r="117.143" xlink:href="#a"/><linearGradient id="a"><stop offset="0"/><stop offset="1" stop-opacity="0"/></linearGradient><radialGradient id="d" cx="605.714" cy="486.648" gradientTransform="matrix(.01205 0 0 .00824 13.24 18.98)" gradientUnits="userSpaceOnUse" r="117.143" xlink:href="#a"/><path d="M3.5 22h17v2h-17z" fill="url(#b)" opacity=".15"/><path d="M3.5 22v2c-.62.004-1.5-.448-1.5-1s.692-1 1.5-1z" fill="url(#c)" opacity=".15"/><path d="M20.5 22v2c.62.004 1.5-.448 1.5-1s-.692-1-1.5-1z" fill="url(#d)" opacity=".15"/><path d="M3.5 1.5h17v21h-17z" fill="url(#e)" stroke="url(#f)" stroke-linejoin="round"/><path d="M19.5 21.5h-15v-19h15z" fill="none" opacity=".5" stroke="url(#g)" stroke-linecap="round" stroke-linejoin="round"/><g fill="#fff"><path d="M7 19h3v1H7zM15 19h2v1h-2zM11 19h3v1h-3zM7 17h2v1H7zM10 17h2v1h-2zM13 17h2v1h-2zM16 17h1v1h-1zM7 15h4v1H7zM12 15h2v1h-2zM15 15h2v1h-2z" opacity=".7"/></g></svg>