<svg height="24" width="24" xmlns="http://www.w3.org/2000/svg" xmlns:xlink="http://www.w3.org/1999/xlink"><radialGradient id="a" cx="15" cy="7.008911" gradientTransform="matrix(.00000011 2.4185305 -2.0730263 .00000009 29.529655 -31.777959)" gradientUnits="userSpaceOnUse" r="4.341479" xlink:href="#b"/><linearGradient id="b"><stop offset="0" stop-color="#737373"/><stop offset=".262" stop-color="#636363"/><stop offset=".705" stop-color="#4b4b4b"/><stop offset="1" stop-color="#3f3f3f"/></linearGradient><radialGradient id="c" cx="5.813" cy="7.919" gradientTransform="matrix(-2.4594 .0971 -.16015 -4.05595 20.38 35.52)" gradientUnits="userSpaceOnUse" r="3.556" xlink:href="#b"/><path d="m7.48 18.52h-2.62v-7.546l.026-1.24.042-1.355q-.653.686-.907.9l-1.424 1.204-1.264-1.66 3.995-3.343h2.152z" fill="url(#c)" stroke="#000" stroke-linecap="round" stroke-linejoin="round" stroke-opacity=".490196"/><path d="m19.597792 18.507778h-8.647697v-1.895265l3.032424-3.270433q.572987-.617063 1.040191-1.137159.467205-.520096.802182-1.013747.334977-.49365.520096-1.004931.185119-.5112804.185119-1.1018978 0-.6523237-.396683-1.0137463-.387868-.3614226-1.049007-.3614226-.6964 0-1.339908.3437923-.643509.3437922-1.348724.9784855l-1.480951-1.7542218q.396684-.3614226.828628-.6875845.431944-.334977.95204-.5906174.520096-.2556404 1.145974-.4054985.625878-.1586733 1.401614-.1586733.925595 0 1.657255.2556403.740475.2556404 1.260571.7316604.520096.4672048.793367 1.1371589.282086.6699541.282086 1.5073967 0 .7581059-.264456 1.4545051-.264455.687585-.722845 1.357539-.458389.661139-1.066637 1.322278-.599433.652323-1.287017 1.331093l-1.551473 1.560287v.123413h5.253851z" fill="url(#a)" stroke="#000" stroke-opacity=".490196"/><path d="m15.242188 5.4355469c-.517159 0-.983139.0524209-1.400391.1582031-.417252.0999054-.799753.2358231-1.146485.40625-.346729.1704269-.663209.3665256-.951171.5898438-.287963.2174412-.565621.4465514-.830079.6875l.498047.5878906c.111765-.090776.21678-.1883639.332032-.2753906.287962-.2233182.604442-.4194169.951171-.5898438.346732-.1704269.729233-.3063446 1.146485-.40625.417252-.1057821.883232-.1582031 1.400391-.1582031.617063 0 1.170429.0854325 1.658203.2558593.49365.170427.913035.4131221 1.259765.7304688.346731.3114699.612741.6900826.794922 1.1367188.128679.305609.195946.6478494.236328 1.0058593.019733-.1650411.044922-.3284596.044922-.4980469 0-.5582949-.093193-1.0611764-.28125-1.5078124-.182181-.4466362-.448191-.8252489-.794922-1.1367188-.34673-.3173467-.766115-.5600418-1.259765-.7304688-.487774-.1704268-1.04114-.2558593-1.658203-.2558593zm-9.914063.0449219-3.9960938 3.3417968.4648438.6113282 3.53125-2.953125h2.1523438v-1zm-.4003906 3.8984374c-.01506.0158211-.0165101.0158046-.03125.03125l-.0097656.3242188-.0273438 1.240234v1l.0273438-1.240234zm11.5507816.3007813c-.030422.17426-.074034.3435175-.132813.5058595-.123413.340854-.298166.676759-.521484 1.005859-.223318.329101-.489313.666941-.800781 1.013672-.31147.346731-.659025.725344-1.041016 1.136719l-3.033203 3.271484v1l3.033203-3.271484c.381991-.411375.729546-.789988 1.041016-1.136719.311469-.346731.577463-.684571.800781-1.013672.223318-.3291.398071-.665005.521484-1.005859.123414-.340854.183594-.707818.183594-1.101563 0-.1469674-.020608-.279489-.050781-.4042965zm-1.265625 6.5371095-.869141.875v.125h5.253906v-1z" fill="#fff" opacity=".1"/></svg>