<svg height="24" width="24" xmlns="http://www.w3.org/2000/svg" xmlns:xlink="http://www.w3.org/1999/xlink"><radialGradient id="a" cx="11" cy="15.707516" gradientTransform="matrix(-2.3947944 -.00000068 .0000007 -2.3829093 37.136363 52.198191)" gradientUnits="userSpaceOnUse" r="1.998022" xlink:href="#b"/><linearGradient id="b"><stop offset="0" stop-color="#737373"/><stop offset=".262" stop-color="#636363"/><stop offset=".705" stop-color="#4b4b4b"/><stop offset="1" stop-color="#3f3f3f"/></linearGradient><radialGradient id="c" cx="18.974" cy="3.907" gradientTransform="matrix(-3.627581 .1056419 -.0955016 -3.2794105 87.202725 10.808028)" gradientUnits="userSpaceOnUse" r="5.235" xlink:href="#b"/><radialGradient id="d" cx="6.325" cy="4.56" gradientTransform="matrix(-2.6740828 0 0 -3.0560783 22.912985 14.93483)" gradientUnits="userSpaceOnUse" r="5.235" xlink:href="#b"/><linearGradient id="e"><stop offset="0" stop-color="#fff"/><stop offset="1" stop-color="#fff" stop-opacity="0"/></linearGradient><radialGradient id="f" cx="11.031" cy="17.125" gradientTransform="matrix(.63624 0 0 .14315 8.98 18.45)" gradientUnits="userSpaceOnUse" r="9.844"><stop offset="0"/><stop offset="1" stop-opacity="0"/></radialGradient><linearGradient id="g" gradientTransform="matrix(.57895 0 0 .55556 34.075 10.497)" gradientUnits="userSpaceOnUse" x1="11.192" x2="11.192" y1="-.741" y2="30.298"><stop offset="0" stop-color="#f8b17e"/><stop offset=".312" stop-color="#e35d4f"/><stop offset=".571" stop-color="#c6262e"/><stop offset="1" stop-color="#690b54"/></linearGradient><linearGradient id="h" gradientUnits="userSpaceOnUse" x1="41.225" x2="41.225" y1="23.238" y2="7.39"><stop offset="0" stop-color="#791235"/><stop offset="1" stop-color="#dd3b27"/></linearGradient><linearGradient id="i" gradientTransform="matrix(.30773287 -.29497666 .30773287 .29497666 25.945015 17.143811)" gradientUnits="userSpaceOnUse" x1="36.011" x2="16.331" xlink:href="#e" y1="13.023" y2="32.702"/><linearGradient id="j" gradientTransform="matrix(.30773287 -.29497666 .30773287 .29497666 25.634713 17.292587)" gradientUnits="userSpaceOnUse" x1="28.449" x2="16.331" xlink:href="#e" y1="20.584" y2="32.702"/><g stroke="#000" stroke-opacity=".49" transform="translate(-1)"><path d="m6.0002745 4.0554636q-1.3584811 0-2.0462596 1.4894433-.6792406 1.4789023-.6792406 4.4588431 0 2.9694.6792406 4.458843.6877785 1.48101 2.0462596 1.48101 1.3660704 0 2.045311-1.479956.6887271-1.489443.6887271-4.458843 0-2.9799407-.6877785-4.458843-.6782919-1.4904974-2.0443623-1.4904974zm0-1.5474188q2.184764 0 3.3345399 1.9247866 1.1573656 1.9152997 1.1573656 5.5719726 0 3.647186-1.1573656 5.571973-1.1497759 1.915299-3.3345399 1.915299-2.1857126 0-3.3430778-1.915299-1.1488273-1.924787-1.1488273-5.571973 0-3.657727 1.1478786-5.5719726 1.1573652-1.9247866 3.3440265-1.9247866z" fill="url(#d)" stroke-width=".999991"/><path d="m17.999875 4.0554636q-1.358481 0-2.04626 1.4894433-.678292 1.4789023-.678292 4.4588431 0 2.9694.678292 4.458843.687779 1.48101 2.04626 1.48101 1.36607 0 2.046259-1.479956.688728-1.489443.688728-4.458843 0-2.9799407-.687779-4.458843-.678292-1.4904974-2.045311-1.4904974zm0-1.5474188q2.184764 0 3.33454 1.9247866 1.157365 1.9152997 1.157365 5.5719726 0 3.647186-1.157365 5.571973-1.150725 1.915299-3.335489 1.915299-2.184764 0-3.343078-1.915299-1.147878-1.924787-1.147878-5.571973 0-3.657727 1.147878-5.5719726 1.157366-1.9247866 3.343078-1.9247866z" fill="url(#c)" stroke-width=".999991"/><path d="m9.5113781 16.957247q0-.399912.1106139-.672192.1191227-.28079.323333-.450965.20421-.170175.476491-.246754.27228-.07658.587104-.07658.297807 0 .561579.07658.27228.07658.47649.246754.204211.170175.323333.450965.119123.27228.119123.672192 0 .382894-.119123.655174-.119122.272281-.323333.450965-.20421.178684-.47649.255263-.263772.08509-.561579.08509-.314824 0-.587104-.08509-.272281-.076579-.476491-.255263-.2042103-.178684-.323333-.450965-.1106139-.27228-.1106139-.655174z" fill="url(#a)" stroke="#000" stroke-opacity=".65098" transform="translate(1)"/></g><path d="m22.263 20.9a6.263 1.41 0 0 1 -12.526 0 6.263 1.41 0 1 1 12.526 0z" fill="url(#f)" opacity=".4" transform="matrix(.87818 0 0 .88434 4.45 4.27)"/><path d="m46.522 20.386-3.185-2.947 3.065-3.087-2.21-1.912-3.154 2.942-3.217-2.94-2.298 1.98 3.218 3.005-3.218 2.955 2.3 2.06 3.213-3.09 3.22 3.09z" fill="url(#g)" stroke="url(#h)" stroke-linejoin="round" transform="matrix(.87818 0 0 .88434 -17.525 3.438)"/><g fill="none"><path d="m44.934 14.418-.647-.627-3.265 2.868-3.226-2.864-.824.674" opacity=".5" stroke="url(#i)" stroke-linecap="square" transform="matrix(.87818 0 0 .88434 -17.525 3.438)"/><path d="m45.427 20.732-2.993-2.713m-2.968.035-2.804 2.702" opacity=".4" stroke="url(#j)" transform="matrix(.87818 0 0 .88434 -17.525 3.438)"/></g></svg>