<svg height="24" width="24" xmlns="http://www.w3.org/2000/svg" xmlns:xlink="http://www.w3.org/1999/xlink"><radialGradient id="a" cx="11.25" cy="19.03125" gradientTransform="matrix(1 0 0 .282946 0 13.64644)" gradientUnits="userSpaceOnUse" r="8.0625"><stop offset="0" stop-color="#0d0d0d"/><stop offset="1" stop-color="#0d0d0d" stop-opacity="0"/></radialGradient><linearGradient id="b" gradientTransform="matrix(.5112838 -.1216744 .12241 .5082113 56.783012 -3.207714)" gradientUnits="userSpaceOnUse" x1="-94.409187" x2="-104.37959" y1="-7.997788" y2="33.43721"><stop offset="0" stop-color="#d1ff82"/><stop offset=".26238" stop-color="#9bdb4d"/><stop offset=".66093999" stop-color="#68b723"/><stop offset="1" stop-color="#3a9104"/></linearGradient><linearGradient id="c" gradientTransform="matrix(.5025885 0 0 .4995683 1.194006 .766526)" gradientUnits="userSpaceOnUse" x1="13.360525" x2="32.448708" y1="26.543833" y2="40.274254"><stop offset="0" stop-color="#fff"/><stop offset="1" stop-color="#fff" stop-opacity="0"/></linearGradient><path d="m19.3125 19.03125a8.0625 2.28125 0 1 1 -16.125 0 8.0625 2.28125 0 1 1 16.125 0z" fill="url(#a)" opacity=".162921" transform="matrix(1.4883719 0 0 1.4465766 -4.744184 -6.830164)"/><g stroke-linecap="round" stroke-width="1.00279" transform="translate(-1.598732 -.828739)"><path d="m19.87251 4.60424c-.281317-.028378-.561.1085751-.70554.3715025l-7.855845 10.1009505-3.9594412-3.129333c-.3526899-.191563-.7927256-.068328-.9854461.282243l-1.7755804 2.265914c-.1927162.350565-.063069.787827.2896181.979387 0 0 6.9304136 5.493317 6.9393336 5.497707.08266.0449.169102.06749.256971.07853.28704.03605.58079-.098.728339-.3664l10.197387-13.2043453c.192718-.350569.06307-.7878285-.289616-.9793887l-2.560408-1.8131407c-.08817-.047891-.185999-.074167-.279772-.0836263z" fill="url(#b)" stroke="#206b00" stroke-linejoin="round" stroke-opacity=".501961"/><path d="m19.911684 5.7142468-8.290645 10.8800032-4.5780627-3.600874c-.4999722.599624-.8488852 1.091607-1.4160895 1.799687 0 0 6.3821712 5.008955 6.4626452 5.092671.25102-.404598 9.783681-12.4276103 9.8955-12.6404546-.167431-.1153442-2.01557-1.4847183-2.073348-1.5310326z" fill="none" opacity=".4" stroke="url(#c)"/></g></svg>