<svg viewBox="0 0 24 24" xmlns="http://www.w3.org/2000/svg"><g fill="#fff" fill-opacity=".977941" stroke-width="1.33333"><rect height="2" opacity=".35" ry=".5" width="10" x="9" y="7.999997"/><rect height="2" opacity=".35" ry=".5" width="10" x="9" y="18"/><rect height="2" opacity=".35" ry=".5" width="14" x="9" y="4"/><rect height="2" opacity=".35" ry=".5" width="14" x="9" y="14"/></g><path d="m9.5 7.0000004c-.2761309.0000276-.4999724.2238691-.5.5v.9980469.00195c.0000257.2768954.2250597.5010538.5019531.5 2.9994899-.01 5.9975379.0099947 8.9980469.0000027.275368-.001103.498021-.2246296.498047-.4999996l.001953-1.0000031c-.000028-.2761309-.223869-.4999724-.5-.5h-9z" fill-opacity=".658824"/><path d="m9.5000001 3.4999514v.998047.002c4.3333339-.01 8.6666669-.01539 12.9999999-.02539v-.974609h-12.9999999z" fill="#ce5c00" stroke="#ce5c00" stroke-linecap="round" stroke-linejoin="round"/><path d="m9.5 13 .00781.0078a.50005.50005 0 0 0 -.029297 0 .50005.50005 0 0 0 -.050781.0039.50005.50005 0 0 0 -.095703.02539.50005.50005 0 0 0 -.2050781.136719.50005.50005 0 0 0 -.03125.03906.50005.50005 0 0 0 -.027344.04297.50005.50005 0 0 0 -.023437.04297.50005.50005 0 0 0 -.017578.04687.50005.50005 0 0 0 -.023438.09766.50005.50005 0 0 0 -.0039.05666v.998047.002a.50005.50005 0 0 0 .5019531.5c4.332979-.01 8.666313-.01539 13-.02539a.50005.50005 0 0 0 .498047-.500001v-.974609a.50005.50005 0 0 0 -.5-.5h-13.0000001z" fill="#ce5c00"/><path d="m9.5 17 .00781.0078c-.00976-.000286-.019533-.000286-.029297 0-.016982.000437-.033931.0017-.050781.0039-.032662.0053-.06472.01378-.095703.02539-.078696.02775-.1491968.07475-.2050781.136719-.011062.01249-.021491.02553-.03125.03906-.00984.01385-.018965.02819-.027344.04297-.00851.01393-.016331.02827-.023437.04297-.00664.01532-.012505.03096-.017578.04687-.01107.03168-.018923.0644-.023438.09766-.00237.0188-.00367.03771-.0039.05666v.998047.002c.0000257.276895.2250597.501054.5019531.5 2.99949-.01 5.997534.0099 8.998043-.000046.275368-.0011.498022-.22463.498047-.500001l.002-.999953c-.000028-.276131-.223869-.499972-.5-.5h-9.0000431z" fill-opacity=".658824"/><path d="m4.0000003 17.498326-3.0000003-4h6.0000003z" fill="#fcaf3e" stroke="#ce5c00" stroke-linecap="round" stroke-linejoin="round"/></svg>