<svg height="24" width="24" xmlns="http://www.w3.org/2000/svg" xmlns:xlink="http://www.w3.org/1999/xlink"><linearGradient id="a" gradientTransform="matrix(2.774389 0 0 1.969706 -1892.179 -872.8854)" gradientUnits="userSpaceOnUse" x1="302.85715" x2="302.85715" y1="366.64789" y2="609.50507"><stop offset="0" stop-opacity="0"/><stop offset=".5"/><stop offset="1" stop-opacity="0"/></linearGradient><radialGradient id="b" cx="605.71429" cy="486.64789" gradientTransform="matrix(2.774389 0 0 1.969706 -1891.633 -872.8854)" gradientUnits="userSpaceOnUse" r="117.14286" xlink:href="#c"/><linearGradient id="c"><stop offset="0"/><stop offset="1" stop-opacity="0"/></linearGradient><radialGradient id="d" cx="605.71429" cy="486.64789" gradientTransform="matrix(-2.774389 0 0 1.969706 112.7623 -872.8854)" gradientUnits="userSpaceOnUse" r="117.14286" xlink:href="#c"/><linearGradient id="e" gradientTransform="matrix(.62762637 0 0 .7245642 2.973068 3.627368)" gradientUnits="userSpaceOnUse" x1="27.557428" x2="27.557428" y1="7.162672" y2="21.386522"><stop offset="0" stop-color="#fff"/><stop offset=".0097359" stop-color="#fff" stop-opacity=".235294"/><stop offset=".99001008" stop-color="#fff" stop-opacity=".156863"/><stop offset="1" stop-color="#fff" stop-opacity=".392157"/></linearGradient><linearGradient id="f" gradientTransform="matrix(.54761895 0 0 .48299421 -1.106552 -.244912)" gradientUnits="userSpaceOnUse" x1="22.934725" x2="22.809399" y1="49.629246" y2="36.657963"><stop offset="0" stop-color="#0a0a0a" stop-opacity=".498"/><stop offset="1" stop-color="#0a0a0a" stop-opacity="0"/></linearGradient><linearGradient id="g" gradientTransform="matrix(.4666607 0 0 .46428558 .836448 -.160712)" gradientUnits="userSpaceOnUse" x1="35.792694" x2="35.792694" y1="17.118193" y2="43.761127"><stop offset="0" stop-color="#e9e9e9"/><stop offset="1" stop-color="#b4b4b4"/></linearGradient><linearGradient id="h" gradientTransform="matrix(.43131243 0 0 .48638011 1.989858 2.185408)" gradientUnits="userSpaceOnUse" x1="21.37039" x2="21.37039" y1="4.73244" y2="34.143417"><stop offset="0" stop-color="#fff"/><stop offset=".1106325" stop-color="#fff" stop-opacity=".235294"/><stop offset=".99001008" stop-color="#fff" stop-opacity=".156863"/><stop offset="1" stop-color="#fff" stop-opacity=".392157"/></linearGradient><linearGradient id="i" gradientTransform="matrix(.49096263 0 0 .48984879 -24.706222 -.712762)" gradientUnits="userSpaceOnUse" x1="62.988873" x2="62.988873" y1="13" y2="16"><stop offset="0" stop-color="#f9f9f9"/><stop offset="1" stop-color="#d8d8d8"/></linearGradient><linearGradient id="j" gradientTransform="matrix(.40212523 0 0 .398023 53.350858 -.790942)" gradientUnits="userSpaceOnUse" x1="-51.786404" x2="-51.786404" y1="53.514328" y2="3.633682"><stop offset="0" stop-opacity=".321739"/><stop offset="1" stop-opacity=".278261"/></linearGradient><path d="m3.0362982 3.4374979c-.277 0-.5.223-.5.5v1.5625h-.5c-.277 0-.5.223-.5.5v1.76465h20.9999998v-1.76465c0-.277-.223-.5-.5-.5h-11.5v-1.5625c0-.277-.223-.5-.5-.5z" fill="none" opacity=".8" stroke="url(#j)"/><g stroke-width="104.962379" transform="matrix(.01182013 0 0 .0076791 22.513248 19.483864)"><path d="m-1559.2523-150.69685h1339.6335v478.35718h-1339.6335z" fill="url(#a)" opacity=".402062"/><path d="m-219.61876-150.68038v478.33079c142.874166.90045 345.40022-107.16966 345.40014-239.196175 0-132.026537-159.436816-239.134595-345.40014-239.134615z" fill="url(#b)" opacity=".402062"/><path d="m-1559.2523-150.68038v478.33079c-142.8742.90045-345.4002-107.16966-345.4002-239.196175 0-132.026537 159.4368-239.134595 345.4002-239.134615z" fill="url(#d)" opacity=".402062"/></g><path d="m3.0362982 3.9999979v2h-1v3h19.9999998v-3h-12v-2z" fill="url(#i)"/><path d="m3.5362982 4.4999979v2h-1v2.33929h18.9999998v-2.33929h-11.9999998v-2z" fill="none" stroke="url(#h)" stroke-linecap="round"/><path d="m1.8455182 7.4999979c-.50041.0575-.23314.65186-.27303.98608.0581.21599.43282 11.3518901.43282 11.7342701 0 .33235.16413.27604.58003.27604h19.1151798c.44803.0103.35334.005.35334-.28128.0327-.14639.46339-12.2622301.47997-12.4535901 0-.2015.0421-.26152-.22081-.26152-6.57255 0-13.8949398 0-20.4674998 0z" fill="url(#g)"/><path d="m1.5362982 6.9999979 21.0000098.0002c.30338 0 .49999.21522.49999.4828l-.4939 13.0510301c.007.33856-.10002.4728-.45251.4657l-19.9878298-.008c-.30338 0-.6093-.19981-.6093-.46739l-.45646-13.0408201c0-.26757.19662-.48299.5-.48299z" fill="url(#f)" opacity=".4"/><path d="m2.5362982 8.4999979.43982 11.0000001h18.1203698l.43981-11.0000001z" fill="none" opacity=".5" stroke="url(#e)" stroke-linecap="round"/><path d="m1.8455182 7.4999979c-.50041.0575-.23314.65186-.27303.98608.0581.21599.43282 11.3518901.43282 11.7342701 0 .33235.16413.27604.58003.27604h19.1151798c.44803.0103.35334.005.35334-.28128.0327-.14639.46339-12.2622301.47997-12.4535901 0-.2015.0421-.26152-.22081-.26152-6.57255 0-13.8949398 0-20.4674998 0z" fill="none" opacity=".3" stroke="#000" stroke-linecap="round" stroke-linejoin="round"/></svg>