<svg height="24" width="24" xmlns="http://www.w3.org/2000/svg" xmlns:xlink="http://www.w3.org/1999/xlink"><linearGradient id="a" gradientUnits="userSpaceOnUse" x1="14.419792" x2="14.419792" y1="-.79375" y2="2.248958"><stop offset="0" stop-color="#ffa154"/><stop offset="1" stop-color="#f37329"/></linearGradient><radialGradient id="b" cx="22.570999" cy="30.857" gradientTransform="matrix(.70642 0 0 .1355 -5.844828 16.93)" gradientUnits="userSpaceOnUse" r="15.571"><stop offset="0"/><stop offset="1" stop-opacity="0"/></radialGradient><linearGradient id="c" gradientTransform="matrix(-2.84165 0 0 -2.59455 19.272 6.038)" gradientUnits="userSpaceOnUse" x1="10.807897" x2="10.807897" y1="-.925249" y2="21.170961"><stop offset="0" stop-color="#737373"/><stop offset=".262" stop-color="#636363"/><stop offset=".705" stop-color="#4b4b4b"/><stop offset="1" stop-color="#3f3f3f"/></linearGradient><path d="m16.844459 11.454856 5.655541.045144v10.5h-1v-9.999999h-2v9.999999h-1v-5.974965h-1.655541c-1.100057 0-1.991655-1.040307-1.991655-2.323597s.891675-2.259634 1.991655-2.246582z" fill="url(#a)" stroke="#a62100" stroke-opacity=".501961"/><ellipse cx="10.100172" cy="21.110001" fill="url(#b)" opacity=".2" rx="11" ry="2.89"/><g fill="url(#c)" stroke="#000" stroke-linejoin="round" stroke-opacity=".490196" transform="matrix(.92524938 0 0 1.0807897 .004667 0)"><path d="m8.7174581 15.475079-8.22250214-3.626844v-1.184106l8.22250214-4.1071112v1.9873117l-5.6638383 2.6249075 5.6638383 2.326811z"/><path d="m16.393449 5.0499731-4.512853 12.1060399h-2.2936892l4.5128532-12.1060399z"/></g></svg>