<svg height="24" width="24" xmlns="http://www.w3.org/2000/svg" xmlns:xlink="http://www.w3.org/1999/xlink"><linearGradient id="a"><stop offset="0" stop-color="#737373"/><stop offset=".26238" stop-color="#636363"/><stop offset=".704952" stop-color="#4b4b4b"/><stop offset="1" stop-color="#3f3f3f"/></linearGradient><radialGradient id="b" cx="9.72272" cy="-91.022446" gradientTransform="matrix(-3.207777 -.00000022 .00000017 -3.3609145 45.712672 -313.85665)" gradientUnits="userSpaceOnUse" r="7" xlink:href="#a"/><radialGradient id="c" cx="-1.473815" cy="-42.064499" gradientTransform="matrix(-1.3567669 .00000019 -.00000007 -2.1857141 14.474057 -91.012398)" gradientUnits="userSpaceOnUse" r="10" xlink:href="#a"/><radialGradient id="d" cx="-1.848931" cy="-36.912685" gradientTransform="matrix(-1.3567669 .00000019 -.00000007 -2.1857141 14.474057 -87.012398)" gradientUnits="userSpaceOnUse" r="10" xlink:href="#a"/><radialGradient id="e" cx="11.921052" cy="4.778846" gradientTransform="matrix(-.00000277 12.666664 17.333334 .00000379 -70.833301 -153.99998)" gradientUnits="userSpaceOnUse" r="1.5" xlink:href="#a"/><radialGradient id="f" cx="13.894735" cy="4.951923" gradientTransform="matrix(-20.000002 -.00000352 .00000305 -17.333334 292.89473 83.833396)" gradientUnits="userSpaceOnUse" r="1.5" xlink:href="#a"/><radialGradient id="g" cx="10.197921" cy="-88.921227" gradientTransform="matrix(-3.207777 -.00000022 .00000017 -3.3609145 45.712672 -301.85665)" gradientUnits="userSpaceOnUse" r="7" xlink:href="#a"/><g transform="translate(0 2)"><path d="m21 8.4995546c0-.269086-.288334-.499541-.625-.499541h-8.75c-.336666 0-.625.230455-.625.499541v.999082c0 .269086.288334.499541.625.499541.0014.0041 8.75 0 8.75 0 .336666 0 .625-.230455.625-.499541z" fill="#fff" opacity=".35"/><path d="m11.5 7.5000016v.9980469.00195c3.000001-.00999 6.000001-.015401 9-.025391v-.9746059z" fill="none" stroke="url(#c)" stroke-linecap="round" stroke-linejoin="round"/><path d="m21 4.4993871c0-.2691161-.346-.4995969-.749999-.4995969h-10.5000009c-.4039991 0-.75.2304808-.75.4995969v.9991938c0 .2691161.3460009.4995969.75.4995969.00168.0041 10.5000009 0 10.5000009 0 .403999 0 .749999-.2304808.749999-.4995969z" fill="#fff" opacity=".35"/><g fill="none" stroke-linecap="round" stroke-linejoin="round"><path d="m9.5000001 3.4999508v.998047.002c3.6666669-.01 7.3333339-.01539 10.9999999-.02539v-.974609h-10.9999999z" stroke="url(#b)"/><path d="m11.5 7.5000016v.9980469.00195c3.000001-.00999 6.000001-.015401 9-.025391v-.9746059z" opacity=".1" stroke="#000"/><path d="m9.5000001 3.5000016v.9980469.00195c3.6666669-.00999 7.3333339-.015401 10.9999999-.025391v-.9746059z" opacity=".1" stroke="#000"/></g><path d="m21 12.499555c0-.269086-.288334-.499541-.625-.499541h-8.75c-.336666 0-.625.230455-.625.499541v.999082c0 .269086.288334.499541.625.499541.0014.0041 8.75 0 8.75 0 .336666 0 .625-.230455.625-.499541z" fill="#fff" opacity=".35"/><path d="m11.5 11.500002v.998046.002c3.000001-.01 6.000001-.0154 9-.02539v-.974605h-9z" fill="none" stroke="url(#d)" stroke-linecap="round" stroke-linejoin="round"/><path d="m11.5 11.500002v.998046.002c3.000001-.01 6.000001-.0154 9-.02539v-.974605h-9z" fill="none" opacity=".1" stroke="#000" stroke-linecap="round" stroke-linejoin="round"/><g fill-rule="evenodd"><path d="m9.0000002 9h-8.0000002l4-2.9999996z" fill="#fff" opacity=".35"/><path d="m9.0000002 8.0000005h-8.0000002l4.0000002-3.0000001z" fill="url(#e)"/><path d="m9.0000002 13h-8.0000002l4 3z" fill="#fff" opacity=".35"/><path d="m9.0000002 12h-8.0000002l4.0000002 3z" fill="url(#f)"/></g><path d="m21 16.499387c0-.269116-.346-.499597-.749999-.499597h-10.5000009c-.4039991 0-.75.230481-.75.499597v.999194c0 .269116.3460009.499597.75.499597.00168.0041 10.5000009 0 10.5000009 0 .403999 0 .749999-.230481.749999-.499597z" fill="#fff" opacity=".35"/><path d="m9.5000001 15.499951v.998047.002c3.6666669-.01 7.3333339-.01539 10.9999999-.02539v-.974609h-10.9999999z" fill="none" stroke="url(#g)" stroke-linecap="round" stroke-linejoin="round"/><path d="m9.5000001 15.500002v.998046.002c3.6666669-.01 7.3333339-.0154 10.9999999-.02539v-.974605h-10.9999999z" fill="none" opacity=".1" stroke="#000" stroke-linecap="round" stroke-linejoin="round"/></g></svg>