<?xml version="1.0" encoding="UTF-8" standalone="no"?>
<svg xmlns:rdf="http://www.w3.org/1999/02/22-rdf-syntax-ns#" xmlns="http://www.w3.org/2000/svg" height="24" width="24" version="1.1" xmlns:cc="http://creativecommons.org/ns#" xmlns:xlink="http://www.w3.org/1999/xlink" xmlns:dc="http://purl.org/dc/elements/1.1/">
 <metadata>
  <rdf:RDF>
   <cc:Work rdf:about="">
    <dc:format>image/svg+xml</dc:format>
    <dc:type rdf:resource="http://purl.org/dc/dcmitype/StillImage"/>
    <dc:title/>
   </cc:Work>
  </rdf:RDF>
 </metadata>
 <defs>
  <linearGradient id="linearGradient2867-449-88-871-390-598-476-591-434-148-57-177-641-289-620-227-114-444-680-744-4-1-5">
   <stop stop-color="#737373" offset="0"/>
   <stop stop-color="#636363" offset=".26238"/>
   <stop stop-color="#4b4b4b" offset=".70495"/>
   <stop stop-color="#3f3f3f" offset="1"/>
  </linearGradient>
  <radialGradient id="radialGradient853" xlink:href="#linearGradient2867-449-88-871-390-598-476-591-434-148-57-177-641-289-620-227-114-444-680-744-4-1-5" gradientUnits="userSpaceOnUse" cy="3.75" cx="15" gradientTransform="matrix(-3.2699 .13625 -.18182 -4.3636 64.73 14.32)" r="5.5"/>
  <mask id="d">
   <path fill="url(#e)" d="m303.54 125.91h23.375v22.5h-23.375z"/>
  </mask>
  <linearGradient id="e" y2="141.2" gradientUnits="userSpaceOnUse" y1="138.9" x2="317.62" x1="316.47">
   <stop stop-color="#fff" offset="0"/>
   <stop offset="1"/>
  </linearGradient>
  <linearGradient id="f" y2="81.926" gradientUnits="userSpaceOnUse" y1="67.298" gradientTransform="matrix(.78115 -.034814 -.034814 .78115 70.23 94.32)" x2="335.3" x1="309.3">
   <stop stop-color="#d3d7cf" offset="0"/>
   <stop stop-color="#babdb6" offset=".18304"/>
   <stop stop-color="#fff" offset=".31893"/>
   <stop stop-color="#babdb6" offset=".87644"/>
   <stop stop-color="#eeeeec" offset="1"/>
  </linearGradient>
  <linearGradient id="g" y2="99.274" gradientUnits="userSpaceOnUse" y1="70.282" gradientTransform="matrix(.78115 -.034814 -.034814 .78115 70.23 94.32)" x2="330.06" x1="324.5">
   <stop stop-color="#888a85" offset="0"/>
   <stop stop-color="#555753" offset="1"/>
  </linearGradient>
  <linearGradient id="h" y2="60.768" gradientUnits="userSpaceOnUse" y1="58.443" gradientTransform="matrix(0.802 0 0 0.796 69.747 998.18)" x2="308.65" x1="302.29">
   <stop stop-color="#babdb6" offset="0"/>
   <stop stop-color="#fff" offset="1"/>
  </linearGradient>
 </defs>
 <radialGradient id="b" gradientUnits="userSpaceOnUse" cy="30.857" cx="22.571" gradientTransform="matrix(.70612 0 0 .13550 -3.4582 16.709)" r="15.571">
  <stop offset="0"/>
  <stop stop-opacity="0" offset="1"/>
 </radialGradient>
 <path d="m9 3.5137c-1.9633 0-3.4863 1.8282-3.4863 3.9863s1.523 3.986 3.4863 3.986h2.5137v8.514a0.486 0.486 0 0 0 0.486 0.486h1a0.486 0.486 0 0 0 0.486 -0.486v-14.514h2.0273v14.446a0.486 0.486 0 0 0 0.487 0.486h1a0.486 0.486 0 0 0 0.48633 -0.48633v-15.932a0.486 0.486 0 0 0 -0.486 -0.4863z" fill="url(#radialGradient853)"/>
 <ellipse opacity=".2" rx="10.995" ry="2.1099" cy="20.89" cx="12.48" fill="url(#b)"/>
 <path d="m9 2.9746v0.025391c-2.2091 0-4 2.0147-4 4.5s1.7909 4.5 4 4.5h2v8.9316l3 0.05273v-14.984h1v15h3v-18zm0 1.0254h8v15.932h-1v-14.932h-3v15h-1v-9h-3c-1.6569 0-3-1.567-3-3.5s1.3431-3.5 3-3.5z" fill-opacity=".43137"/>
 <path d="m9 4h8v15.932h-1v-14.932h-3v15h-1v-9h-3c-1.6569 0-3-1.567-3-3.5s1.3431-3.5 3-3.5z" fill="url(#radialGradient853)"/>
 <path opacity=".1" d="m9 4c-1.6569 0-3 1.567-3 3.5 0 0.1713 0.0226 0.3352 0.043 0.5 0.2096-1.6939 1.447-3 2.957-3h4 3 1v-1h-8z" fill="#fff"/>
 <g transform="matrix(.86160 0 0 .86160 3.2857 3.1105)">
  <path opacity=".4" stroke-linejoin="round" d="m15 11.581c-0.05244 0.01567-0.08675 0.04907-0.125 0.09375-0.07653 0.08936-0.11515 0.21684-0.0625 0.3125l1.4062 2.6562c0.12598 0.23936 0.04748 0.5735-0.1875 0.90625-0.23723 0.33591-0.60805 0.68858-1.0938 0.96875-0.48581 0.28024-0.97794 0.4376-1.375 0.46875-0.39471 0.03099-0.71745-0.07247-0.84375-0.3125l-1.4062-2.6875c-0.03935-0.07451-0.10094-0.11874-0.1875-0.125-0.08652-0.0061-0.18908 0.02655-0.25 0.09375-0.03284 0.03499-0.04982 0.0798-0.0625 0.125-0.35196 1.2882-0.26536 2.7396 0.25 3.7188 0.70382 1.3373 2.2717 1.9402 3.8438 1.5938 0.62782 0.1864-0.46056-1.0265 0.49716-0.07386l4.8875 0.28125-0.54092-1.0824c-0.86335-0.85881-1.2843-1.6209-1.5-2.2188 0.24809-0.85083 0.1892-1.7561-0.21875-2.5312-0.51516-0.97876-1.6494-1.8103-2.875-2.1875-0.05255-0.01719-0.10381-0.01567-0.15625 0z" stroke-dashoffset=".3612" stroke="#000" stroke-linecap="round" stroke-width="2" fill="none"/>
  <g style="enable-background:new" mask="url(#d)" transform="matrix(.86866 0 0 .87047 -253.91 -98.906)">
   <path stroke-linejoin="round" d="m319.39 139.23-4.3421-4.3598c-0.99389-0.9866-1.5001-1.8478-1.7485-2.5345 0.2856-0.97743 0.2328-2.005-0.23683-2.8955-0.59305-1.1244-1.8999-2.0837-3.3108-2.5171-0.12099-0.0395-0.25795 0.00092-0.34601 0.10358-0.0881 0.10266-0.10892 0.24521-0.0483 0.35511l1.6144 3.0684c0.14503 0.27498 0.0466 0.64136-0.22391 1.0236-0.2731 0.38589-0.71642 0.77909-1.2756 1.101-0.55926 0.32194-1.1124 0.50954-1.5695 0.54532-0.45439 0.0356-0.8053-0.0744-0.9507-0.35014l-1.6242-3.0854c-0.0453-0.0856-0.1291-0.13927-0.22875-0.14646-0.0996-0.007-0.20234 0.0334-0.27247 0.1106h-0.00001c-0.0378 0.0402-0.0658 0.0881-0.0804 0.14003-0.40518 1.4799-0.31949 3.1558 0.27379 4.2807 0.81024 1.5362 2.6105 2.2062 4.4203 1.8082 0.72274 0.21414 1.6718 0.71421 2.7743 1.8086l3.2955 3.211" fill-rule="evenodd" stroke-dashoffset=".3612" stroke="url(#g)" stroke-linecap="round" stroke-width="1.15" fill="url(#f)"/>
   <path d="m314.51 1039.6c0.015 0.01 0.006 0.025 0 0.025l1.8045 3.2089c0.24343 0.4323 0.0678 0.9428-0.22556 1.3681-0.29634 0.4296-0.75548 0.8457-1.3534 1.1692-0.59917 0.3241-1.2276 0.4798-1.7544 0.4975-0.52558 0.018-1.0189-0.1313-1.2531-0.5473l-1.8045-3.2337h-0.0251c0.0165-0.018 0.003 0.013 0 0.025-0.33275 1.4234-0.16017 3.0685 0.45113 4.1542 0.83618 1.485 2.582 2.1944 4.3107 1.8905 1.7206-0.3057 3.1919-1.7936 3.5589-3.2089 0.23171-0.9167 0.13299-1.9018-0.35088-2.7611-0.60963-1.0827-1.9508-2.1023-3.3584-2.5871z" fill-rule="evenodd" transform="translate(-5.0837 -912.59)" fill="url(#h)"/>
   <path stroke-linejoin="round" d="m310.22 127.75 1.25 2.4375c0.28894 0.54782 0.085 1.1205-0.25 1.5938-0.33855 0.47839-0.8542 0.92749-1.4688 1.2812-0.60688 0.34935-1.2243 0.57896-1.8125 0.625-0.2801 0.0219-0.5499-0.002-0.8125-0.0937-0.2626-0.0921-0.51362-0.29205-0.65625-0.5625l-1.25-2.375c-0.17286 1.164-0.0996 2.3748 0.3125 3.1562 0.68338 1.2957 2.1765 1.8842 3.7812 1.5312 0.0917-0.0238 0.18952-0.0238 0.28125 0 0.82317 0.2439 1.8749 0.7896 3.0312 1.9375l4.0303 3.8465 2.6592-1.3734-4.6582-4.4731c-1.0414-1.0337-1.5944-1.974-1.875-2.75-0.0358-0.11084-0.0358-0.23291 0-0.34375 0.24916-0.8527 0.1772-1.7492-0.21875-2.5-0.41054-0.77836-1.3235-1.4736-2.3438-1.9375z" stroke-dashoffset=".3612" stroke="#fff" stroke-linecap="round" stroke-width="0.575" fill="none"/>
   <path opacity="0.08" d="m318.61 140.72-0.12501 0.12501c-0.34845 0.34845-1.1894 0.0686-1.8854-0.6275l-4.1757-3.6703c-0.69609-0.69609-0.97595-1.537-0.6275-1.8855l0.125-0.125c0.34846-0.34845 1.1894-0.0686 1.8855 0.6275l4.1757 3.6703c0.69609 0.69609 0.97595 1.537 0.6275 1.8854z" fill-rule="evenodd"/>
  </g>
 </g>
</svg>
