<svg viewBox="0 0 24 24" xmlns="http://www.w3.org/2000/svg" xmlns:xlink="http://www.w3.org/1999/xlink"><linearGradient id="a"><stop offset="0"/><stop offset="1" stop-opacity="0"/></linearGradient><radialGradient id="b" cx="24.837126" cy="36.421127" gradientTransform="matrix(.52995454 0 0 -.35307735 -2.451878 30.383287)" gradientUnits="userSpaceOnUse" r="15.644737" xlink:href="#a"/><linearGradient id="c" gradientUnits="userSpaceOnUse" x1="11.99964" x2="11.99964" y1="5.000001" y2="20.998161"><stop offset="0" stop-color="#9bdb4d"/><stop offset="1" stop-color="#68b723"/></linearGradient><linearGradient id="d" gradientTransform="matrix(-.87905913 0 0 1.0000035 10.673566 -16.421791)" gradientUnits="userSpaceOnUse" x1="5.009942" x2="5.03216" y1="28.039032" y2="29.671688"><stop offset="0" stop-color="#fff"/><stop offset=".00000039" stop-color="#fff" stop-opacity=".235294"/><stop offset="1" stop-color="#fff" stop-opacity=".392157"/></linearGradient><linearGradient id="e" gradientTransform="matrix(-1.004639 0 0 1 10.857043 -16.179629)" gradientUnits="userSpaceOnUse" x1="-2.521394" x2="-2.521394" y1="22.402153" y2="35.268829"><stop offset="0" stop-color="#fff"/><stop offset=".51999998" stop-color="#fff" stop-opacity=".235294"/><stop offset=".51999998" stop-color="#fff" stop-opacity=".156863"/><stop offset="1" stop-color="#fff" stop-opacity=".392157"/></linearGradient><linearGradient id="f" gradientTransform="matrix(.40540511 0 0 .51351351 2.269687 -.324319)" gradientUnits="userSpaceOnUse" x1="23.99999" x2="23.99999" y1="6.473675" y2="41.526306"><stop offset="0" stop-color="#fff"/><stop offset="0" stop-color="#fff" stop-opacity=".235294"/><stop offset="1" stop-color="#fff" stop-opacity=".156863"/><stop offset="1" stop-color="#fff" stop-opacity=".392157"/></linearGradient><linearGradient id="g" gradientTransform="matrix(.48571543 0 0 .45629666 .396742 .365522)" gradientUnits="userSpaceOnUse" x1="25.132275" x2="25.132275" y1=".985206" y2="47.013336"><stop offset="0" stop-color="#f4f4f4"/><stop offset="1" stop-color="#dbdbdb"/></linearGradient><radialGradient id="h" cx="605.71429" cy="486.64789" gradientTransform="matrix(.01204859 0 0 .0082353 13.292706 18.997224)" gradientUnits="userSpaceOnUse" r="117.14286" xlink:href="#a"/><radialGradient id="i" cx="605.71429" cy="486.64789" gradientTransform="matrix(-.01204859 0 0 .0082353 10.815119 18.997224)" gradientUnits="userSpaceOnUse" r="117.14286" xlink:href="#a"/><linearGradient id="j" gradientTransform="matrix(.0352071 0 0 .0082353 -.670939 18.997207)" gradientUnits="userSpaceOnUse" x1="302.85715" x2="302.85715" y1="366.64789" y2="609.50507"><stop offset="0" stop-opacity="0"/><stop offset=".5"/><stop offset="1" stop-opacity="0"/></linearGradient><g transform="translate(-2)"><path d="m3.500002 22h16.999998v2h-16.999998z" fill="url(#j)" opacity=".15"/><path d="m3.5000009 22.000085v1.999891c-.6204724.0038-1.4999999-.448075-1.4999999-1.000075 0-.551999.6924-.999816 1.4999999-.999816z" fill="url(#i)" opacity=".15"/><path d="m20.500001 22.000085v1.999891c.620472.0038 1.5-.448075 1.5-1.000075 0-.551999-.692402-.999816-1.5-.999816z" fill="url(#h)" opacity=".15"/><path d="m3.5538731 1.5166173c3.8955809 0 17.0000589.00136 17.0000589.00136l.000021 20.9987157s-11.3333862 0-17.0000799 0c0-7.000018 0-14.0000346 0-21.0000534z" fill="url(#g)"/><g fill="none" transform="translate(.053913 .01666)"><path d="m19.446087 21.48334h-15v-19.0000001h15z" stroke="url(#f)" stroke-linecap="round"/><path d="m3.4460282 1.4819799c3.8955809 0 17.0000588.00136 17.0000588.00136l.000021 20.9987161s-11.3333861 0-17.0000798 0c0-7.000018 0-14.000035 0-21.0000538z" opacity=".3" stroke="#000" stroke-linejoin="round" stroke-width=".999922"/></g></g><g transform="matrix(-.8 0 0 .8 24.687695 6.706128)"><path d="m19.001669 17.523805a8.2909995 5.5238047 0 1 0 -16.581999 0 8.2909995 5.5238047 0 0 0 16.581999 0z" fill="url(#b)" fill-rule="evenodd" opacity=".141176"/><g stroke-width="1.25"><path d="m12.011963 4.7560117v.0039c.162385 0 .29734.06441.394531.167969.0067.0074.01441.01451.02149.02148l7.659036 6.9571693c.0909.09098.144531.214106.144531.349609 0 .134536-.05363.250868-.144531.347657l-7.659041 6.941278c-.0071.007-.01484.01412-.02149.02148-.09719.103564-.232145.167969-.394531.167969-.301717 0-.527344-.215491-.527344-.505858v-3.988275c.000189-.271008-.237747-.49805-.529297-.49805h-7.7206982c-.285849 0-.5-.214151-.5-.5v-4c0-.2858493.2141509-.5000003.5-.5000003h7.7695312c.267637-.02501.480647-.241068.480469-.4960909v-1.3789091-2.611325c0-.290366.225627-.500003.527344-.500003z" fill="url(#c)" stroke="#206b00" stroke-linecap="round" stroke-linejoin="round" stroke-opacity=".5"/><g fill="none"><path d="m10.48586 13.49234h-6.5012412v-2.5h6.5012412" fill="none" opacity=".6" stroke="url(#d)"/><path d="m12.734375 6.8769531v2.3671875c-.000287.8872194-.740534 1.6221014-1.591168 1.7481994l-.02407 2.5c.850634.126098 1.614948.854816 1.615235 1.742035v2.341797l5.871094-5.333984z" opacity=".5" stroke="url(#e)"/></g></g></g></svg>