<svg xmlns="http://www.w3.org/2000/svg" xmlns:xlink="http://www.w3.org/1999/xlink" viewBox="0 0 24 24"><defs><radialGradient id="g" gradientUnits="userSpaceOnUse" cy="24.149" cx="17.814" gradientTransform="matrix(-1.4145 0 0 1.3559 39.434 -22.854)" r="9.125"><stop offset="0" stop-color="#fff"/><stop offset="1" stop-color="#b6b6b6"/></radialGradient></defs><clipPath id="c"><path d="M3.5 2s-.4-.003-.78.188S2 2.667 2 3.5v9s-.003.4.188.78c.19.382.48.72 1.312.72h9s.4.003.78-.188c.382-.19.72-.48.72-1.312v-9s.003-.4-.188-.78c-.19-.382-.48-.72-1.312-.72z"/></clipPath><linearGradient id="d" gradientTransform="matrix(.03935 0 0 .00824 -2.222 17.98)" gradientUnits="userSpaceOnUse" x1="302.857" x2="302.857" y1="366.648" y2="609.505"><stop offset="0" stop-opacity="0"/><stop offset=".5"/><stop offset="1" stop-opacity="0"/></linearGradient><radialGradient id="e" cx="605.714" cy="486.648" gradientTransform="matrix(-.01205 0 0 .00824 9.76 17.98)" gradientUnits="userSpaceOnUse" r="117.143" xlink:href="#a"/><linearGradient id="a"><stop offset="0"/><stop offset="1" stop-opacity="0"/></linearGradient><radialGradient id="f" cx="605.714" cy="486.648" gradientTransform="matrix(.01205 0 0 .00824 14.24 17.98)" gradientUnits="userSpaceOnUse" r="117.143" xlink:href="#a"/><linearGradient id="b" gradientTransform="matrix(.6 0 0 .36938 -15.4 -.432)" gradientUnits="userSpaceOnUse" x1="9.466" x2="9.449" y1="4.839" y2="24.161"><stop offset="0" stop-color="#f4f4f4"/><stop offset="1" stop-color="#dbdbdb"/></linearGradient><path d="M2.5 7.346v8.308C2.5 17.5 5.423 17.5 5.423 17.5h13.154c2.923 0 2.923-1.846 2.923-1.846V7.346C21.5 5.5 18.577 5.5 18.577 5.5H5.423C2.5 5.5 2.5 7.346 2.5 7.346z" fill="url(#b)"/><path clip-path="url(#c)" d="M3.5 2s-.4-.003-.78.188S2 2.667 2 3.5v9s-.003.4.188.78c.19.382.48.72 1.312.72h9s.4.003.78-.188c.382-.19.72-.48.72-1.312v-9s.003-.4-.188-.78c-.19-.382-.48-.72-1.312-.72z" fill="none" opacity=".05" stroke="#000" stroke-width="1.633" transform="matrix(1.5 0 0 .91667 0 4.167)"/><path d="M2.482 15.667V7.333c0-1.85 2.003-1.85 2.003-1.85h15.03c2.003 0 2.003 1.85 2.003 1.85v8.334c0 1.85-2.003 1.85-2.003 1.85H4.485c-2.003 0-2.003-1.85-2.003-1.85z" fill="none" opacity=".41" stroke="#000" stroke-width=".963"/><path d="M5.25 6s-.626-.18-1.197.01C3.483 6.2 3 6.362 3 7.5v1c0-.833.507-1.122 1.078-1.313C4.648 6.997 5.25 7 5.25 7h13.5c1.25 0 1.683.338 1.97.72.284.38.28.78.28.78v-1s.106-.528-.18-.908c-.285-.38-.134-.62-1.816-.617z" opacity=".1"/><path d="M5.25 6S4.57 5.81 4 6s-1 .667-1 1.5v2c0-.833.507-1.122 1.078-1.313C4.648 7.997 5.25 8 5.25 8h13.5c1.25 0 1.683.338 1.97.72.284.38.28.78.28.78v-2s.03-.62-.256-1.002C20.46 6.118 20 6 18.75 6z" opacity=".05"/><path d="M2.5 21h19v2h-19z" fill="url(#d)" opacity=".15" transform="matrix(.9 0 0 1 1.027 -4)"/><path d="M2.5 21v2c-.62.004-1.5-.448-1.5-1s.692-1 1.5-1z" fill="url(#e)" opacity=".15" transform="matrix(.9 0 0 1 1.027 -4)"/><path d="M21.5 21v2c.62.004 1.5-.448 1.5-1s-.692-1-1.5-1z" fill="url(#f)" opacity=".15" transform="matrix(.9 0 0 1 1.027 -4)"/><path d="M13.634 8.67l9.095 8.827-4.147.133 1.74 3.612c.533 1.605-1.874 2.206-2.275 1.003l-1.605-3.612-2.943 3.143.134-13.108z" fill="url(#g)" fill-rule="evenodd" stroke="#666" stroke-linejoin="round"/><path d="M14.64 11.06l5.73 5.524-3.303.094 2.118 4.535c.347.613-.083.978-.29.422l-2.208-4.688-2.13 2.247.083-8.135z" opacity=".4" fill="none" stroke="#fff"/></svg>