<svg height="24" width="24" xmlns="http://www.w3.org/2000/svg" xmlns:xlink="http://www.w3.org/1999/xlink"><radialGradient id="a" cx="4.992979" cy="43.5" gradientTransform="matrix(2.003784 0 0 1.4 27.98813 -17.4)" gradientUnits="userSpaceOnUse" r="2.5" xlink:href="#b"/><linearGradient id="b"><stop offset="0" stop-color="#181818"/><stop offset="1" stop-color="#181818" stop-opacity="0"/></linearGradient><radialGradient id="c" cx="4.992979" cy="43.5" gradientTransform="matrix(2.003784 0 0 1.4 -20.01187 -104.4)" gradientUnits="userSpaceOnUse" r="2.5" xlink:href="#b"/><linearGradient id="d" gradientUnits="userSpaceOnUse" x1="25.058096" x2="25.058096" y1="47.027729" y2="39.999443"><stop offset="0" stop-color="#181818" stop-opacity="0"/><stop offset=".5" stop-color="#181818"/><stop offset="1" stop-color="#181818" stop-opacity="0"/></linearGradient><linearGradient id="e" gradientTransform="matrix(.18243289 0 0 .26351416 23.812332 -7.647308)" gradientUnits="userSpaceOnUse" x1="-64.748917" x2="-64.748917" y1="59.379383" y2="101.12287"><stop offset="0" stop-color="#fff"/><stop offset="0" stop-color="#fff" stop-opacity=".235294"/><stop offset=".49999997" stop-color="#fff" stop-opacity=".196078"/><stop offset=".63636363" stop-color="#fff" stop-opacity=".900735"/><stop offset=".63636363" stop-color="#fff" stop-opacity=".164706"/><stop offset="1" stop-color="#fff" stop-opacity=".156863"/><stop offset="1" stop-color="#fff" stop-opacity=".392157"/></linearGradient><linearGradient id="f" gradientTransform="matrix(.38705024 0 0 .31920189 2.921125 5.318499)" gradientUnits="userSpaceOnUse" x1="13.122005" x2="13.122005" y1="49.12722" y2="2.135016"><stop offset="0" stop-color="#a56de2"/><stop offset="1" stop-color="#cd9ef7"/></linearGradient><g opacity=".4" transform="matrix(.52631578 0 0 .42857133 -.631579 1.857133)"><path d="m38 40h5v7h-5z" fill="url(#a)"/><path d="m-10-47h5v7h-5z" fill="url(#c)" transform="scale(-1)"/><path d="m10 40h28v7.000001h-28z" fill="url(#d)"/></g><path d="m3.5039063 6.5039062-.0039063 13.9960938h17l-.003-7.002806-8.997.002806.00081-6.9965592z" fill="url(#f)" stroke="#7239b3" stroke-linecap="round" stroke-linejoin="round" stroke-opacity=".74902"/><path d="m4.4980468 7.4980469-.00391 12.0156241 15.0078124-.01172.000906-5.004757-9.005049.02688.003-7.0264926z" fill="none" opacity=".5" stroke="url(#e)"/></svg>