<svg height="24" width="24" xmlns="http://www.w3.org/2000/svg" xmlns:xlink="http://www.w3.org/1999/xlink"><linearGradient id="a"><stop offset="0"/><stop offset="1" stop-opacity="0"/></linearGradient><radialGradient id="b" cx="22.571428" cy="30.857143" gradientTransform="matrix(.70612396 0 0 .13549598 -4.942869 16.709114)" gradientUnits="userSpaceOnUse" r="15.571428" xlink:href="#a"/><linearGradient id="c" gradientUnits="userSpaceOnUse" x1="3.515378" x2="20.515378" xlink:href="#a" y1="20" y2="0"/><linearGradient id="d" gradientTransform="matrix(0 -.5372019 -.57681717 0 25.751425 27.51817)" gradientUnits="userSpaceOnUse" x1="40.957993" x2="18.680689" y1="46.97065" y2="46.97065"><stop offset="0" stop-color="#fff"/><stop offset=".45000002" stop-color="#fff" stop-opacity=".235294"/><stop offset=".65000004" stop-color="#fff" stop-opacity=".156863"/><stop offset="1" stop-color="#fff" stop-opacity=".392157"/></linearGradient><linearGradient id="e" gradientTransform="matrix(-.4766877 0 0 .44382351 4.697377 3.094022)" gradientUnits="userSpaceOnUse" x1="23.731871" x2="23.731871" y1="5.394345" y2="40.783871"><stop offset="0" stop-color="#f0c1ff"/><stop offset=".26238" stop-color="#c5a3f2"/><stop offset=".704952" stop-color="#7a36b1"/><stop offset="1" stop-color="#4c2d81"/></linearGradient><ellipse cx="10.995358" cy="20.890133" fill="url(#b)" opacity=".2" rx="10.995358" ry="2.109867"/><path d="m7.515378 2.9746094v.025391c-2.209139 0-4 2.0147186-4 4.5s1.790861 4.5 4 4.5h2v .08984 2.173828 6.667969l3 .05273v-14.984367h1v15h3v-18zm0 1.0253906h8v1 14.931641h-1v-14.931641h-3v15h-1v-9h-3c-1.6568542 0-3-1.5670034-3-3.5s1.3431458-3.5 3-3.5z" opacity=".66"/><path d="m7.515378 3.9999996h8v1 14.9316414h-1v-14.9316414h-3v15.0000004h-1v-9h-3c-1.6568544 0-3.0000002-1.5670036-3-3.5000004 0-1.9329966 1.3431458-3.5 3-3.5z" fill="url(#c)" opacity=".66"/><g transform="matrix(.85714465 0 0 .85714465 24.210654 8.107875)"><path d="m-6.745763 16.874164-7-5.673017 7-5.6960221v3.6474278h6v4.0000003h-6z" display="block" fill="url(#e)"/><path d="m-7.745763 14.763975-4.434589-3.562828 4.434589-3.6228754v2.5742814h6v2h-6z" style="display:block;opacity:.401;fill:none;stroke-width:.963925;stroke-miterlimit:7;stroke:url(#d)"/><path d="m-6.745763 16.874164-7-5.673017 7-5.6960223v3.6474278h6v4.0000005h-6z" fill="none" opacity=".5" stroke="#6326b9" stroke-linejoin="round"/></g></svg>