<svg height="24" width="24" xmlns="http://www.w3.org/2000/svg" xmlns:xlink="http://www.w3.org/1999/xlink"><linearGradient id="a" gradientUnits="userSpaceOnUse" x1="4" x2="4" y1="4.559" y2="21.517"><stop offset="0" stop-color="#ffa154"/><stop offset="1" stop-color="#f37329"/></linearGradient><linearGradient id="b" gradientUnits="userSpaceOnUse" x1=".655513" x2="14.727656" xlink:href="#c" y1="11.822087" y2="1.32404"/><linearGradient id="c"><stop offset="0" stop-color="#fff3cb"/><stop offset=".26238" stop-color="#fdde76"/><stop offset=".66093999" stop-color="#f9c440"/><stop offset="1" stop-color="#e48b20"/></linearGradient><radialGradient id="d" cx="32.5" cy="16.5625" gradientTransform="matrix(.13600338 .32887282 -.25782279 .11298813 11.149645 -7.537857)" gradientUnits="userSpaceOnUse" r="14.4375" xlink:href="#c"/><filter id="e" color-interpolation-filters="sRGB" height="1.324258" width="1.386852" x="-.193426" y="-.162129"><feGaussianBlur stdDeviation=".67849208"/></filter><linearGradient id="f" gradientTransform="matrix(.26725589 0 0 1.157552 9.315594 -10.704165)" gradientUnits="userSpaceOnUse" x1="-32.957481" x2="-25.474016" y1="27.388975" y2="27.388975"><stop offset="0" stop-color="#2e3436"/><stop offset=".64444447" stop-color="#888a85"/><stop offset="1" stop-color="#555753"/></linearGradient><linearGradient id="g" gradientTransform="matrix(.77602087 .23906428 -.31605097 .56747902 -20.167798 4.551095)" gradientUnits="userSpaceOnUse" x1="27.52779" x2="30.419695" y1="4.16702" y2="2.948735"><stop offset="0" stop-color="#eeeeec"/><stop offset=".78888887" stop-color="#fff"/><stop offset="1" stop-color="#eeeeec"/></linearGradient><linearGradient id="h"><stop offset="0" stop-color="#fff"/><stop offset="0" stop-color="#fff" stop-opacity=".235"/><stop offset="1" stop-color="#fff" stop-opacity=".157"/><stop offset="1" stop-color="#fff" stop-opacity=".392"/></linearGradient><linearGradient id="i"><stop offset="0"/><stop offset="1" stop-opacity="0"/></linearGradient><linearGradient id="j" gradientTransform="matrix(.3746 0 0 .37083 29.393 2.44)" gradientUnits="userSpaceOnUse" x1="-51.786" x2="-51.786" y1="50.786" y2="2.906"><stop offset="0" stop-opacity=".318"/><stop offset="1" stop-opacity=".24"/></linearGradient><linearGradient id="k" gradientTransform="matrix(.66892 0 0 .4054 -1.18 3.27)" gradientUnits="userSpaceOnUse" x1="24" x2="24" xlink:href="#h" y1="6.733" y2="41.267"/><linearGradient id="l" gradientTransform="matrix(.5135 0 0 .4054 -.325 3.27)" gradientUnits="userSpaceOnUse" x1="37.633" x2="37.633" xlink:href="#h" y1="6.733" y2="41.267"/><linearGradient id="m" gradientTransform="matrix(.47058531 0 0 .36937813 2.972059 3.568188)" gradientUnits="userSpaceOnUse" x1="25.132" x2="25.132" y1=".985" y2="47.013"><stop offset="0" stop-color="#f4f4f4"/><stop offset="1" stop-color="#dbdbdb"/></linearGradient><radialGradient id="n" cx="605.714" cy="486.648" gradientTransform="matrix(.01325 0 0 .00824 13.363 17.98)" gradientUnits="userSpaceOnUse" r="117.143" xlink:href="#i"/><radialGradient id="o" cx="605.714" cy="486.648" gradientTransform="matrix(-.01325 0 0 .00824 10.637 17.98)" gradientUnits="userSpaceOnUse" r="117.143" xlink:href="#i"/><linearGradient id="p" gradientTransform="matrix(.03873 0 0 .00824 -1.997 17.98)" gradientUnits="userSpaceOnUse" x1="302.857" x2="302.857" y1="366.648" y2="609.505"><stop offset="0" stop-opacity="0"/><stop offset=".5"/><stop offset="1" stop-opacity="0"/></linearGradient><g transform="translate(0 -2)"><path d="m2.65 21h18.7v2h-18.7z" fill="url(#p)" opacity=".15"/><path d="m2.65 21v2c-.683.004-1.65-.448-1.65-1s.762-1 1.65-1z" fill="url(#o)" opacity=".15"/><path d="m21.35 21v2c.683.004 1.65-.448 1.65-1s-.762-1-1.65-1z" fill="url(#n)" opacity=".15"/><path d="m5 4.5h17.5v17h-17.5z" fill="url(#m)" stroke-width="1.045825"/><path d="m21.5 20.5h-19v-15h19z" fill="none" stroke="url(#l)" stroke-linecap="square"/><path d="m2 4.5c-.277 0-.5.223-.5.5v16c0 .277.223.5.5.5h3v-17z" fill="url(#a)"/><g fill="none"><path d="m4.5 20.5h-2v-15h2" opacity=".5" stroke="url(#k)" stroke-linecap="square"/><path d="m6 7.5h4m1 0h2m1 0h1m1 0h2m-12 4h2m-2 2h1m-1 2h2m-2 2h2m0-4h1m0 4h1" stroke="#aaa"/><g stroke-linejoin="round"><path d="m5 21.5h17.5v-17h-17.5" stroke="url(#j)"/><path d="m5 21.5h-3.5v-17h3.5" opacity=".4" stroke="#cc3b02"/></g></g><g fill="url(#a)"><path d="m20 14a4 4 0 1 1 -2.116-3.53l-1.884 3.53z" opacity=".5"/><path d="m20 14.012c0 1.734-1.26 3.392-2.933 3.854-1.67.463-3.605-.31-4.497-1.798-.007.007 3.43-2.056 3.43-2.056z" opacity=".5"/><path d="m20 14c0 1.734-1.26 3.392-2.933 3.855-.04-.007-1.067-3.855-1.067-3.855z"/></g></g><path d="m9.9746091 1.1054688-.101562 2.4785156-1.5957033.8359375-.5-.28125-.017578-1.4765625-1.046875.9648437-1.4101562-.4414062.59375 1.2929687-.8554688 1.2050782 1.4140625-.1640626.8828125 1.1855469.2792969-1.3964843.7382813-.25 1.5625001.5800781.4316399 2.5390625 1.539063-1.9453125 2.546875.375-1.375-2.0664063 1.142578-2.3046875-2.386719.6679688zm-5.5234372 4.3671874-.8125.75-1.09375-.34375.4609375 1.0058594-.6640625.9335938 1.0976562-.1269532.6835938.9199218.2167969-1.0839842 1.0878906-.3652344-.9628906-.5410156zm3.7128906.8925782-1.1835937 1.0898437-1.5957032-.4980469.671875 1.4628908-.9648437 1.361328 1.5976562-.185547.9960938 1.339844.3164062-1.578125 1.5839844-.533203-1.4042969-.7890628zm-6.2207031 1.5859375-.296875 1.1191411-1.15820315.3125.97070315.626953-.060547 1.199218.8964844-.730468 1.1230469.429687-.4179688-1.080078.7539062-.933594-1.1542968.06445z" fill="url(#b)"/><path d="m13.263114 9.769977c-2.055779.900922-4.601427-.494534-5.685864-3.116837-1.084439-2.622304-.297012-5.478444 1.758767-6.37936679 2.055778-.9009236 4.601426.4945301 5.685864 3.11683479 1.084439 2.622304.297012 5.478445-1.758767 6.379369z" fill="url(#d)" filter="url(#e)" opacity=".483"/><g transform="matrix(1.0583533 -.61104055 .51705714 .89556923 3.108729 -5.864404)"><path d="m.5 18v12.4375c0 .5817.297334 1.0625.666667 1.0625h.666667c.369333 0 .666666-.4808.666666-1.0625v-12.4375z" fill="url(#f)" fill-rule="evenodd"/><rect fill="none" height="21" opacity=".3" rx=".74907" ry=".929487" stroke="#000" stroke-width=".814307" width="2" x=".5" y="10.5"/><path d="m1.166667 10.5c-.369333 0-.666667.4808-.666667 1.0625v6.4375h2v-6.4375c0-.5817-.297333-1.0625-.666666-1.0625z" fill="url(#g)" fill-rule="evenodd" opacity=".9"/></g></svg>