<svg viewBox="0 0 24 24" xmlns="http://www.w3.org/2000/svg" xmlns:xlink="http://www.w3.org/1999/xlink"><linearGradient id="a" gradientTransform="matrix(-2.7931934 0 0 -2.6395605 21.943368 5.142748)" gradientUnits="userSpaceOnUse" x1="7.630111" x2="7.630111" y1="1.474422" y2="21.133375"><stop offset="0" stop-color="#737373"/><stop offset=".262" stop-color="#636363"/><stop offset=".705" stop-color="#4b4b4b"/><stop offset="1" stop-color="#3f3f3f"/></linearGradient><path d="m17.732025 9.038882q0 2.810491-1.056965 4.945041-1.048373 2.125656-2.870136 2.997264l2.182678 3.495325h-3.084966l-1.529593-2.917218h-.223424q-2.1998645 0-3.4372882-1.307411-1.2288304-1.316306-1.2288304-3.646524 0-2.356898.8507287-4.3313572.8507288-1.9833526 2.3459492-3.0417336 1.4952207-1.0583812 3.4544747-1.0583812 2.191271 0 3.394322 1.2807301 1.20305 1.28073 1.20305 3.5842649zm-4.812203-2.5703537q-1.039779 0-1.907695.8182442-.867915.8093502-1.3663216 2.2323835-.4898136 1.423034-.4898136 3.086203 0 1.307413.5671525 1.974459.5757457.667047 1.6155257.667047 1.039779 0 1.890508-.773775.859323-.773773 1.340542-2.187912.481221-1.41414.481221-3.175144 0-1.2629422-.55856-1.9477769-.558559-.6937288-1.572559-.6937288z" fill="url(#a)" stroke="#000" stroke-linecap="round" stroke-linejoin="round" stroke-opacity=".490196"/></svg>