<svg height="24" width="24" xmlns="http://www.w3.org/2000/svg" xmlns:xlink="http://www.w3.org/1999/xlink"><linearGradient id="a" gradientUnits="userSpaceOnUse" x1="11.728292" x2="11.728292" y1="10.181786" y2="29.748312"><stop offset="0" stop-color="#fff"/><stop offset=".507761" stop-color="#fff" stop-opacity=".235294"/><stop offset=".83456558" stop-color="#fff" stop-opacity=".156863"/><stop offset="1" stop-color="#fff" stop-opacity=".392157"/></linearGradient><radialGradient id="b" cx="23.895569" cy="3.990003" gradientTransform="matrix(0 1.2316137 -1.6257082 0 18.486581 -20.720783)" gradientUnits="userSpaceOnUse" r="20.397499"><stop offset="0" stop-color="#f8b17e"/><stop offset=".26238" stop-color="#e35d4f"/><stop offset=".66093999" stop-color="#c6262e"/><stop offset="1" stop-color="#690b54"/></radialGradient><linearGradient id="c" gradientUnits="userSpaceOnUse" x1="9.099545" x2="9.099545" y1="30.8267" y2="9.205249"><stop offset="0" stop-color="#791235"/><stop offset="1" stop-color="#dd3b27"/></linearGradient><radialGradient id="d" cx="62.625" cy="4.625" gradientTransform="matrix(1.1294118 0 0 .2823525 -58.729414 27.694118)" gradientUnits="userSpaceOnUse" r="10.625"><stop offset="0"/><stop offset="1" stop-opacity="0"/></radialGradient><g transform="translate(0 -8)"><path d="m24 29c0 1.656854-5.372583 3-12 3-6.6274173 0-12.00000025-1.343146-12.00000025-3s5.37258295-3 12.00000025-3c6.627417 0 12 1.343146 12 3l0 0z" fill="url(#d)" fill-rule="evenodd" opacity=".3"/><path d="m12.000002 9.5017851c-5.792553 0-10.498217 4.7056619-10.498217 10.4982139 0 5.792554 4.7056639 10.498219 10.498217 10.498216 5.79255 0 10.498219-4.705662 10.498213-10.498216 0-5.792552-4.705663-10.4982139-10.498213-10.4982139z" fill="url(#b)" stroke="url(#c)" stroke-linecap="round" stroke-linejoin="round" stroke-width="1.003654"/><path d="m21.5 19.999663c0 5.246874-4.253609 9.500337-9.499879 9.500337-5.2467526 0-9.500121-4.253511-9.500121-9.500337 0-5.24663 4.2533684-9.499662 9.500121-9.499662 5.24627 0 9.499879 4.253032 9.499879 9.499662l0 0z" fill="none" opacity=".5" stroke="url(#a)" stroke-linecap="round" stroke-linejoin="round"/></g><g opacity=".5" stroke="#5d5d5d" transform="matrix(1.1162516 0 0 1.0912086 -1.953145 -2.745203)"><path d="m9.6949685 8.2559395c-4.6499814 2.4267145-2.5472723 9.3806545 2.7687765 9.3806545 5.260671 0 7.61842-6.592658 2.768775-9.3806545" fill="none" stroke="#5d5d5d" stroke-linecap="round" stroke-miterlimit="0" stroke-width="1.812154"/><path d="m12.5 11.357548v-4.7181465" fill="none" stroke="#5d5d5d" stroke-linecap="round" stroke-miterlimit="0" stroke-width="1.812154"/></g><g transform="matrix(1.1162516 0 0 1.0912086 -1.953145 -1.745203)"><path d="m9.6949685 8.2559395c-4.6499814 2.4267145-2.5472723 9.3806545 2.7687765 9.3806545 5.260671 0 7.61842-6.592658 2.768775-9.3806545" fill="none" stroke="#fff" stroke-linecap="round" stroke-miterlimit="0" stroke-width="1.812154"/><path d="m12.5 11.357548v-4.7181465" fill="none" stroke="#fff" stroke-linecap="round" stroke-miterlimit="0" stroke-width="1.812154"/></g></svg>