<svg height="24" width="24" xmlns="http://www.w3.org/2000/svg" xmlns:xlink="http://www.w3.org/1999/xlink"><linearGradient id="a" gradientTransform="matrix(.44576989 0 0 .44993664 .801525 -.024539)" gradientUnits="userSpaceOnUse" x1="25.132275" x2="25.132275" y1="15.499894" y2="48.395687"><stop offset="0" stop-color="#fafafa"/><stop offset="1" stop-color="#e2e1de"/></linearGradient><linearGradient id="b" gradientUnits="userSpaceOnUse" x1="11" x2="11" y1="3" y2="21"><stop offset="0" stop-color="#fff"/><stop offset="0" stop-color="#fff" stop-opacity=".235294"/><stop offset=".95056331" stop-color="#fff" stop-opacity=".156863"/><stop offset="1" stop-color="#fff" stop-opacity=".392157"/></linearGradient><path d="m2.0273438 1.5c-.2923891 0-.5273438.2469095-.5273438.5546875v19.8906245c0 .307779.2349547.554688.5273438.554688h3.671875l1.9941406-4h12.3066406.972656c.292389 0 .527344-.246909.527344-.554688v-15.8906245c0-.307778-.234955-.5546875-.527344-.5546875z" fill="url(#a)"/><g fill="none"><path d="m2.50125 2.498592h17.938934l-.00125 19.001408h-17.938934z"/><path d="m2.500001 2.499818-.000001 19.000182h2.5l2-4h13.5l.000001-15.000182z" opacity=".5" stroke="url(#b)" stroke-linecap="round" stroke-linejoin="round"/></g><path d="m2 1c-.554 0-1 .446-1 1v20c0 .554.446 1 1 1h4l2-4h13c.554 0 1-.446 1-1v-16c0-.554-.446-1-1-1zm0 1h4v4h-4zm5 0h4v4h-4zm5 0h4v4h-4zm5 0h4v4h-4zm-15 5h4v3h-4zm5 0h4v3h-4zm5 0h4v3h-4zm5 0h4v3h-4zm-15 4h4v3h-4zm5 0h4v3h-4zm5 0h4v3h-4zm5 0h4v3h-4zm-15 4h4v3h-4zm5 0h4v3h-4zm5 0h4v3h-4zm5 0h4v3h-4zm-15 4h5l-1.5 3h-3.5z" opacity=".32"/><path d="m16 1v3h1l1 1.0157v13.921l-1 1.0631h-1v3h7v-3h-1l-1-.93v-14.07l1-.99996h1v-3z" fill-rule="evenodd" opacity=".52"/><path d="m16.97 2.5h1.5303s1 0 1 1v17s-.088 1-1.0884 1h-1.4419m5.0441-19h-1.5303s-1 0-1 1v17s.088 1 1.0884 1h1.4419" fill="none" stroke="#fff"/></svg>