<svg height="24" width="24" xmlns="http://www.w3.org/2000/svg" xmlns:xlink="http://www.w3.org/1999/xlink"><linearGradient id="a" gradientUnits="userSpaceOnUse" x1="4" x2="9" y1="-12" y2="-12"><stop offset="0" stop-color="#fad4a1"/><stop offset="1" stop-color="#e6b481"/></linearGradient><linearGradient id="b"><stop offset="0"/><stop offset="1" stop-opacity="0"/></linearGradient><linearGradient id="c" gradientTransform="matrix(.40540511 0 0 .51351351 2.269687 -.32432)" gradientUnits="userSpaceOnUse" x1="23.99999" x2="23.99999" y1="6.473675" y2="41.526306"><stop offset="0" stop-color="#fff"/><stop offset="0" stop-color="#fff" stop-opacity=".235294"/><stop offset="1" stop-color="#fff" stop-opacity=".156863"/><stop offset="1" stop-color="#fff" stop-opacity=".392157"/></linearGradient><linearGradient id="d" gradientTransform="matrix(.48571543 0 0 .45629666 .342829 .348862)" gradientUnits="userSpaceOnUse" x1="25.132275" x2="25.132275" y1=".985206" y2="47.013336"><stop offset="0" stop-color="#f4f4f4"/><stop offset="1" stop-color="#dbdbdb"/></linearGradient><radialGradient id="e" cx="605.71429" cy="486.64789" gradientTransform="matrix(.01204859 0 0 .0082353 13.238793 18.980564)" gradientUnits="userSpaceOnUse" r="117.14286" xlink:href="#b"/><radialGradient id="f" cx="605.71429" cy="486.64789" gradientTransform="matrix(-.01204859 0 0 .0082353 10.761206 18.980564)" gradientUnits="userSpaceOnUse" r="117.14286" xlink:href="#b"/><linearGradient id="g" gradientTransform="matrix(.0352071 0 0 .0082353 -.724852 18.980547)" gradientUnits="userSpaceOnUse" x1="302.85715" x2="302.85715" y1="366.64789" y2="609.50507"><stop offset="0" stop-opacity="0"/><stop offset=".5"/><stop offset="1" stop-opacity="0"/></linearGradient><linearGradient id="h" gradientTransform="matrix(.33333336 0 0 .86363639 -121.66668 -29.704545)" gradientUnits="userSpaceOnUse" x1="382.92136" x2="386" y1="21.697643" y2="21.657894"><stop offset="0" stop-color="#fff"/><stop offset="1" stop-color="#fff" stop-opacity="0"/></linearGradient><path d="m3.500001 22h16.999998v2h-16.999998z" fill="url(#g)" opacity=".15"/><path d="m3.4999999 22.000085v1.999891c-.6204724.0038-1.4999999-.448075-1.4999999-1.000075 0-.551999.6924-.999816 1.4999999-.999816z" fill="url(#f)" opacity=".15"/><path d="m20.5 22.000085v1.999891c.620472.0038 1.5-.448075 1.5-1.000075 0-.551999-.692402-.999816-1.5-.999816z" fill="url(#e)" opacity=".15"/><path d="m3.4999601 1.4999569c3.8955809 0 17.0000589.00136 17.0000589.00136l.000021 20.9987161s-11.3333862 0-17.0000799 0c0-7.000018 0-14.000035 0-21.0000538z" fill="url(#d)"/><path d="m19.5 21.5h-15.0000004v-19h15.0000004z" fill="none" stroke="url(#c)" stroke-linecap="round"/><path d="m3.4999601 1.4999569c3.8955809 0 17.0000589.00136 17.0000589.00136l.000021 20.9987161s-11.3333862 0-17.0000799 0c0-7.000018 0-14.000035 0-21.0000538z" fill="none" opacity=".3" stroke="#000" stroke-linejoin="round" stroke-width=".999922"/><path d="m4.5-22.5h4v21h-4z" fill="url(#a)" stroke="#783f07" stroke-opacity=".490196" transform="rotate(90)"/><path d="m5.5-21.5h2v19h-2z" fill="none" opacity=".4" stroke="url(#h)" transform="rotate(90)"/><path d="m4 5v2h1v-2zm3 0v2h1v-2zm3 0v2h1v-2zm3 0v2h1v-2zm3 0v2h1v-2zm3 0v2h1v-2z" fill="#a1550a" fill-opacity=".25098"/></svg>