<svg height="24" viewBox="0 0 6.3499999 6.3500002" width="24" xmlns="http://www.w3.org/2000/svg" xmlns:xlink="http://www.w3.org/1999/xlink"><radialGradient id="a" cx="62.625" cy="4.625" gradientTransform="matrix(.29879999 0 0 .0747 -15.539999 295.86)" gradientUnits="userSpaceOnUse" r="10.625"><stop offset="0"/><stop offset="1" stop-opacity="0"/></radialGradient><radialGradient id="b" cx="23.896" cy="3.99" gradientTransform="matrix(0 .326 -.43019998 0 4.89 283.05)" gradientUnits="userSpaceOnUse" r="20.396999"><stop offset="0" stop-color="#fff"/><stop offset=".262" stop-color="#ddd"/><stop offset=".661" stop-color="#abacae"/><stop offset="1" stop-color="#89898b"/></radialGradient><linearGradient id="c" gradientUnits="userSpaceOnUse" x1="2.406734" x2="2.406734" y1="296.68777" y2="290.968693"><stop offset="0" stop-color="#505050"/><stop offset="1" stop-color="#aaa"/></linearGradient><linearGradient id="d" gradientUnits="userSpaceOnUse" x1="3.113744" x2="3.113744" y1="291.228368" y2="296.410376"><stop offset="0" stop-color="#fff"/><stop offset=".508" stop-color="#fff" stop-opacity=".235"/><stop offset=".835" stop-color="#fff" stop-opacity=".157"/><stop offset="1" stop-color="#fff" stop-opacity=".392"/></linearGradient><radialGradient id="e" cx="6.501444" cy="1.90846" gradientTransform="matrix(-.04560053 .6628547 -.57062303 -.03925553 4.513233 288.23442)" gradientUnits="userSpaceOnUse" r="4.8065"><stop offset="0" stop-color="#d1ff82"/><stop offset=".262" stop-color="#9bdb4d"/><stop offset=".661" stop-color="#68b723"/><stop offset="1" stop-color="#3a9104"/></radialGradient><linearGradient id="f" gradientUnits="userSpaceOnUse" x1="8.531282" x2="6.001512" y1="7.679217" y2="12.000504"><stop offset="0" stop-color="#fff"/><stop offset="0" stop-color="#fff" stop-opacity=".235"/><stop offset=".392" stop-color="#fff" stop-opacity=".157"/><stop offset="1" stop-color="#fff" stop-opacity=".392"/></linearGradient><g transform="translate(0 -290.64998)"><path d="m6.35 296.206c0 .44-1.422.794-3.175.794s-3.175-.355-3.175-.794c0-.438 1.422-.793 3.175-.793s3.175.355 3.175.793z" fill="url(#a)" fill-rule="evenodd" opacity=".3"/><path d="m3.175 291.047c-1.533 0-2.77800001 1.245-2.77800001 2.778 0 1.532 1.24500001 2.777 2.77800001 2.777 1.5329998 0 2.7779999-1.245 2.7779999-2.777 0-1.533-1.246-2.778-2.7779999-2.778z" fill="url(#b)" stroke="url(#c)" stroke-linecap="round" stroke-linejoin="round" stroke-width=".266"/><path d="m5.6899998 293.825c0 1.388-1.1269999 2.514-2.5149998 2.514-1.388.001-2.515-1.127-2.515-2.515 0-1.387 1.128-2.512 2.5159999-2.512 1.3880002 0 2.5139999 1.125 2.5139999 2.513z" style="opacity:.8;fill:none;stroke-width:.265;stroke-linecap:round;stroke-linejoin:round;stroke:url(#d)"/><path d="m2.251146 295.27825-.00159-2.90796 2.5435998 1.45451z" fill="url(#e)" stroke-width=".2646"/><g fill="none" transform="translate(0 290.65)"><path d="m2.25 4.628v-2.908l2.543 1.455z" opacity=".5" stroke="#206b00" stroke-linecap="round" stroke-linejoin="round" stroke-width=".264583"/><path d="m3.5016693 4.2396013v7.5231427l6.6198567-3.761988z" opacity=".6" stroke="url(#f)" stroke-width=".999937" transform="matrix(.2646 0 0 .2646 1.587 1.058)"/></g></g></svg>