<svg height="24" width="24" xmlns="http://www.w3.org/2000/svg" xmlns:xlink="http://www.w3.org/1999/xlink"><radialGradient id="a" cx="69.576111" cy="57.160503" gradientTransform="matrix(.13508982 .50778779 -.4997639 .13295517 31.660615 997.55722)" gradientUnits="userSpaceOnUse" r="31"><stop offset="0" stop-color="#d1ff82"/><stop offset=".262" stop-color="#9bdb4d"/><stop offset=".661" stop-color="#68b723"/><stop offset="1" stop-color="#3a9104"/></radialGradient><linearGradient id="b" gradientTransform="matrix(.25508209 .06834904 -.06793671 .25354327 13.649428 8.26572)" gradientUnits="userSpaceOnUse" x1="24.139" x2="24.139" y1="10.631" y2="35.623001"><stop offset="0" stop-color="#fff"/><stop offset="0" stop-color="#fff" stop-opacity=".235"/><stop offset="1" stop-color="#fff" stop-opacity=".157"/><stop offset="1" stop-color="#fff" stop-opacity=".392"/></linearGradient><linearGradient id="c" gradientTransform="matrix(.48571425 0 0 .5 .342857 7.750001)" gradientUnits="userSpaceOnUse" x1="21.381216" x2="21.381216" y1="5.052486" y2="44.137077"><stop offset="0" stop-color="#fff"/><stop offset=".08125819" stop-color="#fff" stop-opacity=".235294"/><stop offset=".92327863" stop-color="#fff" stop-opacity=".156863"/><stop offset="1" stop-color="#fff" stop-opacity=".392157"/></linearGradient><radialGradient id="d" cx="23.334524" cy="41.63604" gradientTransform="matrix(.48613594 0 0 .19884311 .65625 19.220963)" gradientUnits="userSpaceOnUse" r="22.627417"><stop offset="0"/><stop offset="1" stop-opacity="0"/></radialGradient><linearGradient id="e" gradientTransform="matrix(.37654594 0 0 .35839049 -27.150809 31.67023)" gradientUnits="userSpaceOnUse" spreadMethod="reflect" x1="103.95014" x2="89.423676" xlink:href="#f" y1="-7.665694" y2="-7.665694"/><linearGradient id="f"><stop offset="0" stop-color="#868688"/><stop offset="1" stop-color="#d9d9da"/></linearGradient><linearGradient id="g" gradientTransform="matrix(.8224499 0 0 .82905873 -65.448598 8.077184)" gradientUnits="userSpaceOnUse" x1="89.01844" x2="89.01844" xlink:href="#h" y1="22.536863" y2="27.54611"/><linearGradient id="h"><stop offset="0" stop-color="#a0a0a0"/><stop offset="1" stop-color="#4a4a4a"/></linearGradient><linearGradient id="i" gradientTransform="matrix(.37654594 0 0 .35839049 -27.150809 26.670231)" gradientUnits="userSpaceOnUse" spreadMethod="reflect" x1="103.95014" x2="89.423676" xlink:href="#f" y1="-7.665694" y2="-7.665694"/><linearGradient id="j" gradientTransform="matrix(.8224499 0 0 .82905873 -65.448598 3.077185)" gradientUnits="userSpaceOnUse" x1="89.01844" x2="89.01844" xlink:href="#h" y1="22.536863" y2="27.54611"/><linearGradient id="k" gradientTransform="matrix(.37654594 0 0 .352792 -27.150809 21.746031)" gradientUnits="userSpaceOnUse" spreadMethod="reflect" x1="103.95014" x2="89.423676" xlink:href="#f" y1="-7.665694" y2="-7.665694"/><linearGradient id="l" gradientTransform="matrix(.8224499 0 0 .81610786 -65.448598 -1.478464)" gradientUnits="userSpaceOnUse" x1="89.01844" x2="89.01844" xlink:href="#h" y1="22.536863" y2="27.54611"/><linearGradient id="m" gradientTransform="matrix(.37845152 0 0 .34136193 -27.338025 17.61463)" gradientUnits="userSpaceOnUse" spreadMethod="reflect" x1="102.30806" x2="102.30806" y1="-2.392547" y2="-24.582239"><stop offset="0" stop-color="#a5a6a8"/><stop offset="1" stop-color="#e8e8e8"/></linearGradient><linearGradient id="n" gradientTransform="matrix(.37845152 0 0 .34136193 -27.338025 17.61463)" gradientUnits="userSpaceOnUse" x1="109.95628" x2="109.95628" y1="-24.91135" y2="-2.375786"><stop offset="0" stop-color="#b3b3b3"/><stop offset="1" stop-color="#dadada"/></linearGradient><g transform="translate(0 -8)"><path d="m23 27.500001c.000931 2.485168-4.924204 4.499999-11 4.499999-6.0757958 0-11.00093826-2.014831-10.9999999-4.499999-.00093921-2.48517 4.9242041-4.500001 10.9999999-4.500001 6.075796 0 11.000939 2.014831 11 4.500001z" fill="url(#d)" fill-rule="evenodd" opacity=".3"/><path d="m21.441286 26.825403c0 2.028375-4.234572 3.674596-9.452159 3.674596-5.2175947 0-9.4521646-1.646221-9.4521646-3.674596 0-6.488122-1.1553118-3.598097 9.4521646-3.674595 10.850407-.07892 9.452159-2.849032 9.452159 3.674595z" fill="url(#e)" stroke="url(#g)"/><path d="m21.5 23.000001c0 1.932996-4.253296 3.499999-9.499999 3.499999-5.2467056 0-9.500001-1.567003-9.500001-3.499999 0-1.932998 4.2532954-3.500001 9.500001-3.500001 5.246703 0 9.499999 1.567003 9.499999 3.500001z" fill="none" stroke="#d8d8d8"/><path d="m21.441286 21.825404c0 2.028375-4.234572 3.674596-9.452159 3.674596-5.2175947 0-9.4521646-1.646221-9.4521646-3.674596 0-6.488122-1.1553118-3.598097 9.4521646-3.674595 10.850407-.07892 9.452159-2.849032 9.452159 3.674595z" fill="url(#i)" stroke="url(#j)"/><path d="m21.5 18.000002c0 1.932996-4.253296 3.499999-9.499999 3.499999-5.2467056 0-9.500001-1.567003-9.500001-3.499999 0-1.932998 4.2532954-3.500001 9.500001-3.500001 5.246703 0 9.499999 1.567003 9.499999 3.500001z" fill="none" stroke="#d8d8d8"/><path d="m21.441286 16.976886c0 1.99669-4.234572 3.523114-9.452159 3.523114-5.2175947 0-9.4521646-1.526424-9.4521646-3.523114 0-7.1907048-1.1553118-3.541892 9.4521646-3.617194 10.850407-.0777 9.452159-3.109574 9.452159 3.617194z" fill="url(#k)" stroke="url(#l)"/><path d="m21.5 13c0 1.932997-4.253296 3.5-9.499999 3.5-5.2467055 0-9.500001-1.567003-9.500001-3.5 0-1.932996 4.2532955-3.5 9.500001-3.5 5.246703 0 9.499999 1.567004 9.499999 3.5z" fill="url(#m)" stroke="url(#n)"/><rect fill="none" height="19" opacity=".5" rx="17.5" ry="3" stroke="url(#c)" width="17" x="3.5" y="10.5"/></g><g transform="translate(0 1.000002)"><g fill="#fff" fill-opacity=".784314"><path d="m21.722656 9.984375.529297.095703a1.5085731 1.5085731 0 0 0 -.529297-.095703zm.529297.095703c-.726628-.2731165-1.599125-.08159-2.148437.501953l-4.904297 5.207031-2.166016-2.121093a1.5085731 1.5085731 0 0 0 -.0078-.0078c-.772519-.744787-2.095112-.70961-2.830079.06836l.07227-.07227-1.7265624 1.595703a1.5085731 1.5085731 0 0 0 -.074219.07227c-.7427617.786688-.7204 2.057719.0625 2.816406l5.0273441 5.177734a1.5085731 1.5085731 0 0 0 .03906.03906c.397576.380658.234503.259892.695313.451172a1.5085731 1.5085731 0 0 0 .0039.002c.413688.170072 1.031779.15749 1.419922-.01172.388142-.169209.57503-.373395.705078-.509766a1.5085731 1.5085731 0 0 0 .0059-.0078l8.035157-8.533203.002-.002c.742838-.788683.718206-2.058017-.0625-2.814453l-1.462891-1.419922.01563.01758c-.227339-.227335-.470313-.363076-.699219-.449219a1.5085731 1.5085731 0 0 0 -.002 0z" fill-opacity=".627451"/><path d="m14.83991 19.142186 6.784171-6.574226 1.180594 1.235097m-7.44497 7.6681-4.892384-4.671607 1.136215-1.126565" fill-opacity=".784314" opacity=".5"/></g><path d="m11.17 1044.173 3.85 1.973 4.747295-8.3551 2.094705 1.1191.514.348-6.314 11.868-7.48-4.568 1.903-2.89z" fill="url(#a)" transform="matrix(.90518841 .2425445 -.2425445 .90518841 255.36509 -932.81046)"/><g fill="none"><path d="m14.83991 19.142186 6.784171-6.574226 1.180594 1.235097m-7.44497 7.6681-4.892384-4.671607 1.136215-1.126565" opacity=".5" stroke="url(#b)" stroke-width=".93712"/><path d="m21.722 11.492c-.176-.067-.38-.025-.52.124l-5.96 6.328-3.263-3.197c-.195-.188-.5-.183-.688.016l-1.726 1.597c-.186.197-.18.508.014.696l5.06 5.212c.047.045.177.126.23.148.18.074.316-.016.46-.167l8.036-8.536c.187-.198.18-.51-.013-.697l-1.465-1.42c-.048-.048-.107-.082-.166-.104z" opacity=".5" stroke="#206b00" stroke-linecap="round" stroke-linejoin="round" stroke-width=".999907"/></g></g></svg>