<svg height="24" viewBox="0 0 6.3499999 6.3500002" width="24" xmlns="http://www.w3.org/2000/svg" xmlns:xlink="http://www.w3.org/1999/xlink"><linearGradient id="a" gradientTransform="matrix(.31954742 0 0 .34021959 -32.633821 -2.601549)" gradientUnits="userSpaceOnUse" x1="121.89803" x2="123.18954" y1="19.949394" y2="65.821892"><stop offset="0" stop-color="#cd9ef7"/><stop offset="1" stop-color="#a56de2"/></linearGradient><radialGradient id="b" cx="2.25" cy="16" gradientTransform="matrix(.25701242 0 0 .13011445 11.421721 19.194805)" gradientUnits="userSpaceOnUse" r="16.875"><stop offset="0"/><stop offset="1" stop-opacity="0"/></radialGradient><linearGradient id="c" gradientUnits="userSpaceOnUse" x1="12.592105" x2="13.514284" xlink:href="#a" y1="3.118419" y2="18.186666"/><linearGradient id="d" gradientUnits="userSpaceOnUse" x1="12" x2="11.838213" y1="4" y2="18.438251"><stop offset="0" stop-color="#fff"/><stop offset=".14285715" stop-color="#fff" stop-opacity=".235294"/><stop offset="1" stop-color="#fff" stop-opacity=".156863"/><stop offset="1" stop-color="#fff" stop-opacity=".392157"/></linearGradient><linearGradient id="e" gradientUnits="userSpaceOnUse" x1="12" x2="11.949442" y1="9.5" y2="14.011953"><stop offset="0" stop-color="#fff"/><stop offset=".55408376" stop-color="#fff" stop-opacity=".235294"/><stop offset="1" stop-color="#fff" stop-opacity=".156863"/><stop offset="1" stop-color="#fff" stop-opacity=".392157"/></linearGradient><linearGradient id="f" gradientTransform="matrix(.31954742 0 0 .34021959 -32.633821 -2.601549)" gradientUnits="userSpaceOnUse" x1="121.89803" x2="123.18954" xlink:href="#a" y1="19.949394" y2="65.821892"/><g transform="scale(.26458333)"><path d="m12 2.4078945-9.4736868 9.4736865 9.4736868 9.473687 9.473687-9.473687z" fill="#7239b3" fill-opacity=".501961"/><path d="m11.407895 3.1184185-8.2894767 8.2894765h4.7368434l3.5526333-3.5526331zm1.18421 0v4.7368434l3.552633 3.5526331h4.736844zm-9.4736867 9.4736875 8.2894767 8.289475v-4.736843l-3.5526333-3.552632zm13.0263197 0-3.552633 3.552632v4.736843l8.289477-8.289476z" fill="url(#f)" stroke-width="1.118419"/><ellipse cx="12" cy="21.276638" display="block" fill="url(#b)" fill-rule="evenodd" opacity=".245" rx="4.337084" ry="2.195684" stroke-width="1.118419"/><path d="m12 2.492161-9.5078391 9.507839 9.5078391 9.507839 9.507839-9.507839z" fill="none" stroke="#7239b3" stroke-linejoin="round" stroke-opacity=".501961"/><path d="m11.999023 2.5253908-.591797.59375v4.7363282l-3.552734 3.552734h-4.736328l-.591797.591797.591797.591797h4.736328l3.552734 3.552734v4.736328l.591797.59375.59375-.59375v-4.736328l3.550782-3.552734h4.738281l.591797-.591797-.591797-.591797h-4.738281l-3.550782-3.552734v-4.7363282z" fill="#7239b3" fill-opacity=".941176"/><path d="m12 8.8418741-3.0397071 3.0397069 3.0397071 3.039708 3.039708-3.039708z" fill="url(#c)"/><g fill="none" stroke-linejoin="round"><path d="m12 4-8 8 8 8 8-8z" opacity=".5" stroke="url(#d)"/><path d="m12 9.4999998-2.5 2.5000002 2.5 2.5 2.5-2.5z" opacity=".5" stroke="url(#e)"/></g></g></svg>