<svg viewBox="0 0 24 24" xmlns="http://www.w3.org/2000/svg" xmlns:xlink="http://www.w3.org/1999/xlink"><linearGradient id="a" gradientTransform="matrix(.25378586 0 0 .30501865 19.128979 -.685477)" gradientUnits="userSpaceOnUse" x1="15.040358" x2="16.697962" y1="73.130241" y2="4.541527"><stop offset="0" stop-opacity=".339506"/><stop offset="1" stop-opacity=".246914"/></linearGradient><linearGradient id="b" gradientTransform="matrix(.24324324 0 0 .35135133 2.162164 -.432428)" gradientUnits="userSpaceOnUse" x1="32.222214" x2="32.222214" y1="18.30768" y2="55.307682"><stop offset="0" stop-color="#fff"/><stop offset=".28129095" stop-color="#fff" stop-opacity=".235294"/><stop offset="1" stop-color="#fff" stop-opacity=".156863"/><stop offset="1" stop-color="#fff" stop-opacity=".392157"/></linearGradient><radialGradient id="c" cx="2.25" cy="16" gradientTransform="matrix(.53333333 0 0 .11633788 9.543071 18.590918)" gradientUnits="userSpaceOnUse" r="16.875"><stop offset="0"/><stop offset="1" stop-opacity="0"/></radialGradient><linearGradient id="d" gradientUnits="userSpaceOnUse" x1="4.522732" x2="13.404087" y1="5.20141" y2="13.743783"><stop offset="0" stop-color="#eeeeec"/><stop offset="1" stop-color="#e0e0de"/></linearGradient><ellipse cx="10.743073" cy="20.452326" display="block" fill="url(#c)" fill-rule="evenodd" opacity=".711111" rx="9" ry="1.963204"/><path d="m7.5057826 4.5234436c-1.10801 0-2 .8919904-2 2v2 8.0000004c-1.104569 0-2 .8954-2 2s.895431 2 2 2h1 1 2 3.0000004 3c1.10801 0 2-.89199 2-2v-1-9.0000004c1.104569 0 2-.8954 2-2s-.895431-2-2-2h-1-1-7.0000004z" fill="url(#d)" stroke="url(#a)"/><path d="m7.9280908 5.2876367c-.9884959 0-1.7842725.795777-1.7842725 1.7842725v1.7842725l.053932 8.4853873c-.9854261 0-1.8022499.223546-1.8022499 1.208999 0 .985454.7628919 1.011249 1.748318 1.011249h.8921363.8921362 1.7842727 2.6764084 2.676409c.988496 0 1.568543-.382299 1.568546-1.370796l.000004-1.341568-.07191-9.2876363c.985426 0 1.982023.010159 1.982023-.9752944 0-.9854537-.70896-1.2988856-1.694386-1.2988856h-.892137-.892136-6.2449538z" fill="none" stroke="url(#b)" stroke-width=".892136"/></svg>