<svg height="24" viewBox="0 0 24 24" width="24" xmlns="http://www.w3.org/2000/svg" xmlns:xlink="http://www.w3.org/1999/xlink"><linearGradient id="a"><stop offset="0" stop-color="#f8f8f8"/><stop offset="1" stop-color="#efeff0"/></linearGradient><linearGradient id="b" gradientTransform="matrix(.51351348 0 0 .35135134 -.324325 4.567583)" gradientUnits="userSpaceOnUse" x1="40.290417" x2="40.290417" y1="5.524776" y2="42.437775"><stop offset="0" stop-color="#fff"/><stop offset=".03457849" stop-color="#fff" stop-opacity=".235294"/><stop offset=".96375686" stop-color="#fff" stop-opacity=".156863"/><stop offset="1" stop-color="#fff" stop-opacity=".392157"/></linearGradient><linearGradient id="c" gradientTransform="matrix(.46666666 0 0 .41666667 .8 1.958354)" gradientUnits="userSpaceOnUse" x1="24.725653" x2="24.725653" y1="7.879311" y2="61.171558"><stop offset="0" stop-color="#fff"/><stop offset=".06562372" stop-color="#ddd"/><stop offset=".66093999" stop-color="#abacae"/><stop offset="1" stop-color="#89898b"/></linearGradient><linearGradient id="d" gradientTransform="matrix(.08449704 0 0 .01235294 -6.539646 38.470822)" gradientUnits="userSpaceOnUse" x1="302.85715" x2="302.85715" y1="366.64789" y2="609.50507"><stop offset="0" stop-opacity="0"/><stop offset=".5"/><stop offset="1" stop-opacity="0"/></linearGradient><radialGradient id="e" cx="605.71429" cy="486.64789" gradientTransform="matrix(-.0289166 0 0 .01235294 21.026894 38.470848)" gradientUnits="userSpaceOnUse" r="117.14286" xlink:href="#f"/><linearGradient id="f"><stop offset="0"/><stop offset="1" stop-opacity="0"/></linearGradient><radialGradient id="g" cx="605.71429" cy="486.64789" gradientTransform="matrix(.02891661 0 0 .01235294 26.973101 38.470848)" gradientUnits="userSpaceOnUse" r="117.14286" xlink:href="#f"/><linearGradient id="h" gradientTransform="matrix(.6 0 0 .5 28.572331 -2)" gradientUnits="userSpaceOnUse" x1="-19" x2="-19" xlink:href="#a" y1="20" y2="42"/><linearGradient id="i" gradientTransform="matrix(.6 0 0 .5 28.572331 -5)" gradientUnits="userSpaceOnUse" x1="-19" x2="-19" xlink:href="#a" y1="20" y2="42"/><linearGradient id="j" gradientTransform="matrix(1.4 0 0 .5 69.668773 -2)" gradientUnits="userSpaceOnUse" x1="-19" x2="-19" xlink:href="#a" y1="20" y2="42"/><linearGradient id="k" gradientTransform="matrix(.6 0 0 .5 43.572331 -2)" gradientUnits="userSpaceOnUse" x1="-19" x2="-19" xlink:href="#a" y1="20" y2="42"/><linearGradient id="l" gradientTransform="matrix(.4 0 0 .5 20.048221 -8)" gradientUnits="userSpaceOnUse" x1="-19" x2="-19" xlink:href="#a" y1="20" y2="42"/><linearGradient id="m" gradientTransform="matrix(.4 0 0 .5 24.048221 -5)" gradientUnits="userSpaceOnUse" x1="-19" x2="-19" xlink:href="#a" y1="20" y2="42"/><linearGradient id="n" gradientTransform="matrix(.4 0 0 .5 30.048221 -5)" gradientUnits="userSpaceOnUse" x1="-19" x2="-19" xlink:href="#a" y1="20" y2="42"/><linearGradient id="o" gradientTransform="matrix(.4 0 0 .5 27.048221 -5)" gradientUnits="userSpaceOnUse" x1="-19" x2="-19" xlink:href="#a" y1="20" y2="42"/><linearGradient id="p" gradientTransform="matrix(.4 0 0 .5 29.048221 -8)" gradientUnits="userSpaceOnUse" x1="-19" x2="-19" xlink:href="#a" y1="20" y2="42"/><linearGradient id="q" gradientTransform="matrix(.4 0 0 .25 20.048221 -.5)" gradientUnits="userSpaceOnUse" x1="-19" x2="-19" xlink:href="#a" y1="20" y2="42"/><linearGradient id="r" gradientTransform="matrix(.4 0 0 .25 26.048221 -.5)" gradientUnits="userSpaceOnUse" x1="-19" x2="-19" xlink:href="#a" y1="20" y2="42"/><linearGradient id="s" gradientTransform="matrix(.4 0 0 .25 32.048221 -.5)" gradientUnits="userSpaceOnUse" x1="-19" x2="-19" xlink:href="#a" y1="20" y2="42"/><linearGradient id="t" gradientTransform="matrix(.4 0 0 .25 23.048221 -.5)" gradientUnits="userSpaceOnUse" x1="-19" x2="-19" xlink:href="#a" y1="20" y2="42"/><linearGradient id="u" gradientTransform="matrix(.4 0 0 .25 29.048221 -.5)" gradientUnits="userSpaceOnUse" x1="-19" x2="-19" xlink:href="#a" y1="20" y2="42"/><linearGradient id="v" gradientTransform="matrix(.6 0 0 .25 43.572331 -.5)" gradientUnits="userSpaceOnUse" x1="-19" x2="-19" xlink:href="#a" y1="20" y2="42"/><linearGradient id="w" gradientTransform="matrix(.4 0 0 .5 26.048221 -8)" gradientUnits="userSpaceOnUse" x1="-19" x2="-19" xlink:href="#a" y1="20" y2="42"/><linearGradient id="x" gradientTransform="matrix(.4 0 0 .5 23.048221 -8)" gradientUnits="userSpaceOnUse" x1="-19" x2="-19" xlink:href="#a" y1="20" y2="42"/><linearGradient id="y" gradientTransform="matrix(.4 0 0 .5 32.048221 -8)" gradientUnits="userSpaceOnUse" x1="-19" x2="-19" xlink:href="#a" y1="20" y2="42"/><linearGradient id="z" gradientTransform="matrix(.4 0 0 .5 24.048221 -2)" gradientUnits="userSpaceOnUse" x1="-19" x2="-19" xlink:href="#a" y1="20" y2="42"/><linearGradient id="A" gradientTransform="matrix(.4 0 0 .5 33.048221 -5)" gradientUnits="userSpaceOnUse" x1="-19" x2="-19" xlink:href="#a" y1="20" y2="42"/><linearGradient id="B" gradientTransform="matrix(.4 0 0 .5 36.048221 -5)" gradientUnits="userSpaceOnUse" x1="-19" x2="-19" xlink:href="#a" y1="20" y2="42"/><linearGradient id="C" gradientTransform="matrix(.6 0 0 .5 43.572331 -8)" gradientUnits="userSpaceOnUse" x1="-19" x2="-19" xlink:href="#a" y1="20" y2="42"/><g opacity=".4" transform="matrix(.5 0 0 .66666666 0 -8.666666)"><path d="m3.6 43h40.799999v3h-40.799999z" fill="url(#d)"/><path d="m3.6 43.00013v2.999835c-1.4891338.005647-3.6-.672111-3.6-1.500111 0-.827998 1.6617608-1.499723 3.6-1.499724z" fill="url(#e)"/><path d="m44.4 43.00013v2.999835c1.489133.0056 3.6-.672111 3.6-1.500111 0-.827998-1.661761-1.499723-3.6-1.499724z" fill="url(#g)"/></g><rect fill="url(#c)" height="15" rx=".7" ry=".775862" width="21" x="1.5" y="5.5"/><rect fill="none" height="13" opacity=".6" rx=".331395" ry=".361111" stroke="url(#b)" stroke-linecap="round" stroke-linejoin="round" width="19" x="2.5" y="6.500001"/><rect fill="none" height="15" opacity=".3" rx=".7" ry=".775862" stroke="#000" width="21" x="1.5" y="5.499982"/><path d="m2.7108299 9c-.385843 0-.7108299.3128876-.7108299.684365v.458632c0 .176753.081242.335708.2000372.458632-.1187954.122923-.2000372.281879-.2000372.458631v1.375896c0 .176753.081242.335708.2000372.458633-.1187954.122923-.2000372.281878-.2000372.458631v1.375896c0 .176752.081242.335708.2000372.458632-.1187954.122924-.2000372.281879-.2000372.458632v1.375895c0 .176753.081242.335709.2000372.458632-.1187954.122924-.2000372.28188-.2000372.458633v1.375895c0 .371478.3249869.684365.7108299.684365h1.9054708c.1835882 0 .3486904-.07822.4763677-.19259.1276772.114372.2927794.19259.4763677.19259h1.9054707c.1835883 0 .3486907-.078218.4763677-.19259.127677.114372.2927794.19259.4763677.19259h7.1455158c.183588 0 .348691-.07822.476368-.19259.127677.114372.292779.19259.476367.19259h1.90547c.18359 0 .348691-.07822.476369-.19259.127676.114372.292778.19259.476368.19259h1.90547c.385843 0 .71083-.312887.71083-.684365v-1.375895c0-.176753-.08124-.335709-.200037-.458633.118795-.122923.200037-.281879.200037-.458632v-1.375895c0-.176753-.08124-.335708-.200037-.458632.118795-.122924.200037-.28188.200037-.458632v-1.375896c0-.176753-.081236-.335708-.200037-.458631.118795-.122925.200037-.28188.200037-.458633v-1.375896c0-.176752-.08124-.335708-.200037-.458631.118795-.122924.200037-.281879.200037-.458632v-.458632c0-.3714774-.324987-.684365-.71083-.684365h-1.90547c-.18359 0-.348691.0782174-.476368.1925894-.127678-.114372-.29278-.1925894-.476369-.1925894h-1.429103c-.183588 0-.348691.0782174-.476368.1925894-.127676-.114372-.292779-.1925894-.476366-.1925894h-1.429103c-.183589 0-.348691.0782174-.476368.1925894-.127677-.114372-.292779-.1925894-.476369-.1925894h-1.429102c-.183588 0-.34869.0782174-.476367.1925894-.127677-.114372-.29278-.1925894-.476369-.1925894h-1.4291025c-.1835891 0-.348691.0782174-.4763682.1925894-.1276768-.114372-.2927788-.1925894-.4763674-.1925894h-1.4291031c-.1835883 0-.3486906.0782174-.4763677.1925894-.127677-.114372-.2927794-.1925894-.4763677-.1925894h-1.429103c-.1835882 0-.3486905.0782174-.4763677.1925894-.1276773-.114372-.2927795-.1925894-.4763677-.1925894z" opacity=".07"/><path d="m3.3 18c-.1662 0-.3.1115-.3.25v1.5c0 .1385.1338.25.3.25h2.4c.1662 0 .3-.1115.3-.25v-1.5c0-.1385-.1338-.25-.3-.25z" opacity=".15"/><path d="m3.3 17c-.1662 0-.3.1115-.3.25v1.5c0 .1385.1338.25.3.25h2.4c.1662 0 .3-.1115.3-.25v-1.5c0-.1385-.1338-.25-.3-.25z" fill="url(#h)"/><path d="m3.3 15c-.1662 0-.3.1115-.3.25v1.5c0 .1385.1338.25.3.25h2.4c.1662 0 .3-.1115.3-.25v-1.5c0-.1385-.1338-.25-.3-.25z" opacity=".15"/><path d="m3.3 14c-.1662 0-.3.1115-.3.25v1.5c0 .1385.1338.25.3.25h2.4c.1662 0 .3-.1115.3-.25v-1.5c0-.1385-.1338-.25-.3-.25z" fill="url(#i)"/><path d="m10.7 18c-.3878 0-.7.1115-.7.25v1.5c0 .1385.3122.25.7.25h5.6c.3878 0 .7-.1115.7-.25v-1.5c0-.1385-.3122-.25-.7-.25z" opacity=".15"/><path d="m10.7 17c-.3878 0-.7.1115-.7.25v1.5c0 .1385.3122.25.7.25h5.6c.3878 0 .7-.1115.7-.25v-1.5c0-.1385-.3122-.25-.7-.25z" fill="url(#j)"/><path d="m18.3 18c-.1662 0-.3.1115-.3.25v1.5c0 .1385.1338.25.3.25h2.4c.1662 0 .3-.1115.3-.25v-1.5c0-.1385-.1338-.25-.3-.25z" opacity=".15"/><path d="m18.3 17c-.1662 0-.3.1115-.3.25v1.5c0 .1385.1338.25.3.25h2.4c.1662 0 .3-.1115.3-.25v-1.5c0-.1385-.1338-.25-.3-.25z" fill="url(#k)"/><path d="m3.2 12c-.1108 0-.2.1115-.2.25v1.5c0 .1385.0892.25.2.25h1.6c.1108 0 .2-.1115.2-.25v-1.5c0-.1385-.0892-.25-.2-.25z" opacity=".15"/><path d="m3.2 11c-.1108 0-.2.1115-.2.25v1.5c0 .1385.0892.25.2.25h1.6c.1108 0 .2-.1115.2-.25v-1.5c0-.1385-.0892-.25-.2-.25z" fill="url(#l)"/><path d="m7.2 15c-.1108 0-.2.1115-.2.25v1.5c0 .1385.0892.25.2.25h1.6c.1108 0 .2-.1115.2-.25v-1.5c0-.1385-.0892-.25-.2-.25z" opacity=".15"/><path d="m7.2 14c-.1108 0-.2.1115-.2.25v1.5c0 .1385.0892.25.2.25h1.6c.1108 0 .2-.1115.2-.25v-1.5c0-.1385-.0892-.25-.2-.25z" fill="url(#m)"/><path d="m13.2 15c-.1108 0-.2.1115-.2.25v1.5c0 .1385.0892.25.2.25h1.6c.1108 0 .2-.1115.2-.25v-1.5c0-.1385-.0892-.25-.2-.25z" opacity=".15"/><path d="m13.2 14c-.1108 0-.2.1115-.2.25v1.5c0 .1385.0892.25.2.25h1.6c.1108 0 .2-.1115.2-.25v-1.5c0-.1385-.0892-.25-.2-.25z" fill="url(#n)"/><path d="m10.2 15c-.1108 0-.2.1115-.2.25v1.5c0 .1385.0892.25.2.25h1.6c.1108 0 .2-.1115.2-.25v-1.5c0-.1385-.0892-.25-.2-.25z" opacity=".15"/><path d="m10.2 14c-.1108 0-.2.1115-.2.25v1.5c0 .1385.0892.25.2.25h1.6c.1108 0 .2-.1115.2-.25v-1.5c0-.1385-.0892-.25-.2-.25z" fill="url(#o)"/><path d="m12.2 12c-.1108 0-.2.1115-.2.25v1.5c0 .1385.0892.25.2.25h1.6c.1108 0 .2-.1115.2-.25v-1.5c0-.1385-.0892-.25-.2-.25z" opacity=".15"/><path d="m12.2 11c-.1108 0-.2.1115-.2.25v1.5c0 .1385.0892.25.2.25h1.6c.1108 0 .2-.1115.2-.25v-1.5c0-.1385-.0892-.25-.2-.25z" fill="url(#p)"/><path d="m3.2 9c-.1108 0-.2.1115-.2.25v1.5c0 .1385.0892.25.2.25h1.6c.1108 0 .2-.1115.2-.25v-1.5c0-.1385-.0892-.25-.2-.25z" opacity=".15"/><path d="m3.2 9c-.1108 0-.2.05575-.2.125v.75c0 .06925.0892.125.2.125h1.6c.1108 0 .2-.05575.2-.125v-.75c0-.06925-.0892-.125-.2-.125z" fill="url(#q)"/><path d="m9.2 9c-.1108 0-.2.1115-.2.25v1.5c0 .1385.0892.25.2.25h1.6c.1108 0 .2-.1115.2-.25v-1.5c0-.1385-.0892-.25-.2-.25z" opacity=".15"/><path d="m9.2 9c-.1108 0-.2.05575-.2.125v.75c0 .06925.0892.125.2.125h1.6c.1108 0 .2-.05575.2-.125v-.75c0-.06925-.0892-.125-.2-.125z" fill="url(#r)"/><path d="m15.2 9c-.1108 0-.2.1115-.2.25v1.5c0 .1385.0892.25.2.25h1.6c.1108 0 .2-.1115.2-.25v-1.5c0-.1385-.0892-.25-.2-.25z" opacity=".15"/><path d="m15.2 9c-.1108 0-.2.05575-.2.125v.75c0 .06925.0892.125.2.125h1.6c.1108 0 .2-.05575.2-.125v-.75c0-.06925-.0892-.125-.2-.125z" fill="url(#s)"/><path d="m6.2 9c-.1108 0-.2.1115-.2.25v1.5c0 .1385.0892.25.2.25h1.6c.1108 0 .2-.1115.2-.25v-1.5c0-.1385-.0892-.25-.2-.25z" opacity=".15"/><path d="m6.2 9c-.1108 0-.2.05575-.2.125v.75c0 .06925.0892.125.2.125h1.6c.1108 0 .2-.05575.2-.125v-.75c0-.06925-.0892-.125-.2-.125z" fill="url(#t)"/><path d="m12.2 9c-.1108 0-.2.1115-.2.25v1.5c0 .1385.0892.25.2.25h1.6c.1108 0 .2-.1115.2-.25v-1.5c0-.1385-.0892-.25-.2-.25z" opacity=".15"/><path d="m12.2 9c-.1108 0-.2.05575-.2.125v.75c0 .06925.0892.125.2.125h1.6c.1108 0 .2-.05575.2-.125v-.75c0-.06925-.0892-.125-.2-.125z" fill="url(#u)"/><path d="m18.3 9c-.1662 0-.3.1115-.3.25v1.5c0 .1385.1338.25.3.25h2.4c.1662 0 .3-.1115.3-.25v-1.5c0-.1385-.1338-.25-.3-.25z" opacity=".15"/><path d="m18.3 9c-.1662 0-.3.05575-.3.125v.75c0 .06925.1338.125.3.125h2.4c.1662 0 .3-.05575.3-.125v-.75c0-.06925-.1338-.125-.3-.125z" fill="url(#v)"/><path d="m9.2 12c-.1108 0-.2.1115-.2.25v1.5c0 .1385.0892.25.2.25h1.6c.1108 0 .2-.1115.2-.25v-1.5c0-.1385-.0892-.25-.2-.25z" opacity=".15"/><path d="m9.2 11c-.1108 0-.2.1115-.2.25v1.5c0 .1385.0892.25.2.25h1.6c.1108 0 .2-.1115.2-.25v-1.5c0-.1385-.0892-.25-.2-.25z" fill="url(#w)"/><path d="m6.2 12c-.1108 0-.2.1115-.2.25v1.5c0 .1385.0892.25.2.25h1.6c.1108 0 .2-.1115.2-.25v-1.5c0-.1385-.0892-.25-.2-.25z" opacity=".15"/><path d="m6.2 11c-.1108 0-.2.1115-.2.25v1.5c0 .1385.0892.25.2.25h1.6c.1108 0 .2-.1115.2-.25v-1.5c0-.1385-.0892-.25-.2-.25z" fill="url(#x)"/><path d="m15.2 12c-.1108 0-.2.1115-.2.25v1.5c0 .1385.0892.25.2.25h1.6c.1108 0 .2-.1115.2-.25v-1.5c0-.1385-.0892-.25-.2-.25z" opacity=".15"/><path d="m15.2 11c-.1108 0-.2.1115-.2.25v1.5c0 .1385.0892.25.2.25h1.6c.1108 0 .2-.1115.2-.25v-1.5c0-.1385-.0892-.25-.2-.25z" fill="url(#y)"/><path d="m7.2 18c-.1108 0-.2.1115-.2.25v1.5c0 .1385.0892.25.2.25h1.6c.1108 0 .2-.1115.2-.25v-1.5c0-.1385-.0892-.25-.2-.25z" opacity=".15"/><path d="m7.2 17c-.1108 0-.2.1115-.2.25v1.5c0 .1385.0892.25.2.25h1.6c.1108 0 .2-.1115.2-.25v-1.5c0-.1385-.0892-.25-.2-.25z" fill="url(#z)"/><path d="m16.2 15c-.1108 0-.2.1115-.2.25v1.5c0 .1385.0892.25.2.25h1.6c.1108 0 .2-.1115.2-.25v-1.5c0-.1385-.0892-.25-.2-.25z" opacity=".15"/><path d="m16.2 14c-.1108 0-.2.1115-.2.25v1.5c0 .1385.0892.25.2.25h1.6c.1108 0 .2-.1115.2-.25v-1.5c0-.1385-.0892-.25-.2-.25z" fill="url(#A)"/><path d="m19.2 15c-.1108 0-.2.1115-.2.25v1.5c0 .1385.0892.25.2.25h1.6c.1108 0 .2-.1115.2-.25v-1.5c0-.1385-.0892-.25-.2-.25z" opacity=".15"/><path d="m19.2 14c-.1108 0-.2.1115-.2.25v1.5c0 .1385.0892.25.2.25h1.6c.1108 0 .2-.1115.2-.25v-1.5c0-.1385-.0892-.25-.2-.25z" fill="url(#B)"/><path d="m18.3 12c-.1662 0-.3.1115-.3.25v1.5c0 .1385.1338.25.3.25h2.4c.1662 0 .3-.1115.3-.25v-1.5c0-.1385-.1338-.25-.3-.25z" opacity=".15"/><path d="m18.3 11c-.1662 0-.3.1115-.3.25v1.5c0 .1385.1338.25.3.25h2.4c.1662 0 .3-.1115.3-.25v-1.5c0-.1385-.1338-.25-.3-.25z" fill="url(#C)"/></svg>