<svg viewBox="0 0 24 24" xmlns="http://www.w3.org/2000/svg"><path d="m1.539335 2.528801h20.921329v17.921329h-20.921329z" fill="none" stroke="#b2b2b2" stroke-linecap="round" stroke-linejoin="round" stroke-width="1.07867"/><path d="m2 11h20v1h-20z" fill="#b2b2b2" opacity=".8"/><path d="m11.5 3h1v17h-1z" fill="#b2b2b2" opacity=".8"/><path d="m1.4570312 2.5273438v17.9453122h21.0156248v-17.9453122zm1.5429688 1.4726562h18v15h-18z" fill="#fcaf3e"/><path d="m1.4570312 2.0273438a.50005.50005 0 0 0 -.49999995.5v17.9453122a.50005.50005 0 0 0  .49999995.5h21.0156248a.50005.50005 0 0 0  .5-.5v-17.9453122a.50005.50005 0 0 0 -.5-.5zm.5 1h20.0156248v16.9453122h-20.0156248z" fill="#ce5c00"/><path d="m3 4v15h18v-15zm1 1h16v13h-16z" fill="#ce5c00"/></svg>