<svg xmlns="http://www.w3.org/2000/svg" xmlns:xlink="http://www.w3.org/1999/xlink" height="24" viewBox="0 0 24.000001 24.000001" width="24"><defs><linearGradient id="a"><stop offset="0" stop-color="#737373"/><stop offset=".262" stop-color="#636363"/><stop offset=".705" stop-color="#4b4b4b"/><stop offset="1" stop-color="#3f3f3f"/></linearGradient><radialGradient xlink:href="#a" id="b" cx="12.165" cy="8.085" fx="12.165" fy="8.085" r="11.835" gradientTransform="matrix(1 0 0 .51224 0 3.943)" gradientUnits="userSpaceOnUse"/><radialGradient xlink:href="#a" id="c" gradientUnits="userSpaceOnUse" gradientTransform="matrix(-2.06236 -.08507 .0211 -.5118 35.85 -1.736)" cx="11.662" cy="-6.515" fx="11.662" fy="-6.515" r="11.835"/></defs><g transform="translate(0 2)" fill="url(#b)" font-weight="bold" font-family="Droid Sans" letter-spacing="0" word-spacing="0" stroke="#000" stroke-opacity=".431"><path d="M5.934 13.506l-.417-1.073h-.063q-.233.317-.466.55-.233.226-.508.374-.275.15-.62.22-.34.07-.792.07-.48 0-.89-.148-.41-.157-.712-.46-.297-.31-.466-.777-.17-.473-.17-1.115 0-1.256.805-1.85.805-.6 2.407-.663L5.3 8.593V8q0-.487-.284-.72-.282-.233-.79-.233-.51 0-.996.148-.48.148-.967.395l-.698-1.425q.593-.332 1.313-.523.72-.19 1.51-.19 1.475 0 2.26.69.79.693.79 2.105v5.26zM5.3 9.85l-.714.027q-.43.015-.727.113-.298.1-.48.27-.178.16-.262.394-.078.226-.078.508 0 .494.24.706.24.205.628.205.297 0 .55-.1.255-.105.438-.303.19-.204.297-.494.106-.296.106-.677z" style="line-height:1.25;-inkscape-font-specification:'Droid Sans Bold'"/><path d="M13.67 5.466q.606 0 1.108.26.5.262.86.777.36.516.558 1.278.205.763.205 1.766 0 1.016-.204 1.786-.197.762-.564 1.277-.367.514-.883.776-.516.26-1.137.26-.395 0-.706-.084-.303-.085-.543-.226-.24-.14-.424-.317-.176-.185-.325-.383h-.148l-.36.87H9.462V2.52h2.153v2.556q0 .233-.014.508-.013.268-.027.5l-.042.552h.085q.15-.247.34-.46.19-.21.437-.366.254-.163.572-.254.317-.092.705-.092zm-.728 1.722q-.36 0-.614.134-.247.127-.402.388-.155.262-.226.664-.07.395-.085.925v.232q0 .57.064 1.016.07.445.225.748.155.297.41.452.26.155.642.155.642 0 .938-.607.304-.614.304-1.78 0-1.163-.305-1.742-.296-.586-.953-.586z" style="line-height:1.25;-inkscape-font-specification:'Droid Sans Bold'" fill="url(#c)"/><path d="M21.037 13.647q-.847 0-1.532-.233-.678-.233-1.165-.72-.48-.494-.74-1.257-.255-.77-.255-1.835 0-1.18.26-1.97.27-.797.75-1.277.486-.48 1.164-.684.684-.204 1.517-.204.607 0 1.207.148.6.148 1.13.417L22.75 7.67q-.466-.205-.896-.332-.43-.134-.82-.134-.783 0-1.136.6-.353.593-.353 1.786 0 1.186.353 1.75.353.565 1.108.565.615 0 1.116-.155.5-.162 1.023-.41v1.793q-.26.13-.508.227-.248.1-.502.163-.247.063-.522.09-.27.037-.58.037z" style="line-height:1.25;-inkscape-font-specification:'Droid Sans Bold'"/></g><path d="M2 20.293l2-2 2 2 2-2 2 2 2-2 2 2 2-2 2 2 2-1.793 2 2" fill="none" stroke="#ef5858"/></svg>