<svg height="24" width="24" xmlns="http://www.w3.org/2000/svg" xmlns:xlink="http://www.w3.org/1999/xlink"><linearGradient id="a" gradientTransform="matrix(.48571425 0 0 .5 .342857 7.750001)" gradientUnits="userSpaceOnUse" x1="21.381216" x2="21.381216" y1="5.052486" y2="44.137077"><stop offset="0" stop-color="#fff"/><stop offset=".08125819" stop-color="#fff" stop-opacity=".235294"/><stop offset=".92327863" stop-color="#fff" stop-opacity=".156863"/><stop offset="1" stop-color="#fff" stop-opacity=".392157"/></linearGradient><radialGradient id="b" cx="23.334524" cy="41.63604" gradientTransform="matrix(.48613594 0 0 .19884311 .65625 19.220963)" gradientUnits="userSpaceOnUse" r="22.627417"><stop offset="0"/><stop offset="1" stop-opacity="0"/></radialGradient><linearGradient id="c" gradientTransform="matrix(.37654594 0 0 .35839049 -27.150809 31.67023)" gradientUnits="userSpaceOnUse" spreadMethod="reflect" x1="103.95014" x2="89.423676" xlink:href="#d" y1="-7.665694" y2="-7.665694"/><linearGradient id="d"><stop offset="0" stop-color="#868688"/><stop offset="1" stop-color="#d9d9da"/></linearGradient><linearGradient id="e" gradientTransform="matrix(.8224499 0 0 .82905873 -65.448598 8.077184)" gradientUnits="userSpaceOnUse" x1="89.01844" x2="89.01844" xlink:href="#f" y1="22.536863" y2="27.54611"/><linearGradient id="f"><stop offset="0" stop-color="#a0a0a0"/><stop offset="1" stop-color="#4a4a4a"/></linearGradient><linearGradient id="g" gradientTransform="matrix(.37654594 0 0 .35839049 -27.150809 26.670231)" gradientUnits="userSpaceOnUse" spreadMethod="reflect" x1="103.95014" x2="89.423676" xlink:href="#d" y1="-7.665694" y2="-7.665694"/><linearGradient id="h" gradientTransform="matrix(.8224499 0 0 .82905873 -65.448598 3.077185)" gradientUnits="userSpaceOnUse" x1="89.01844" x2="89.01844" xlink:href="#f" y1="22.536863" y2="27.54611"/><linearGradient id="i" gradientTransform="matrix(.37654594 0 0 .352792 -27.150809 21.746031)" gradientUnits="userSpaceOnUse" spreadMethod="reflect" x1="103.95014" x2="89.423676" xlink:href="#d" y1="-7.665694" y2="-7.665694"/><linearGradient id="j" gradientTransform="matrix(.8224499 0 0 .81610786 -65.448598 -1.478464)" gradientUnits="userSpaceOnUse" x1="89.01844" x2="89.01844" xlink:href="#f" y1="22.536863" y2="27.54611"/><linearGradient id="k" gradientTransform="matrix(.37845152 0 0 .34136193 -27.338025 17.61463)" gradientUnits="userSpaceOnUse" spreadMethod="reflect" x1="102.30806" x2="102.30806" y1="-2.392547" y2="-24.582239"><stop offset="0" stop-color="#a5a6a8"/><stop offset="1" stop-color="#e8e8e8"/></linearGradient><linearGradient id="l" gradientTransform="matrix(.37845152 0 0 .34136193 -27.338025 17.61463)" gradientUnits="userSpaceOnUse" x1="109.95628" x2="109.95628" y1="-24.91135" y2="-2.375786"><stop offset="0" stop-color="#b3b3b3"/><stop offset="1" stop-color="#dadada"/></linearGradient><radialGradient id="m" cx="65.297462" cy="48.216358" gradientTransform="matrix(0 .52544997 -.57162563 0 44.976422 1003.5661)" gradientUnits="userSpaceOnUse" r="31.000002"><stop offset="0" stop-color="#cdf87e"/><stop offset=".26238" stop-color="#a2e34f"/><stop offset=".66093999" stop-color="#68b723"/><stop offset="1" stop-color="#1d7e0d"/></radialGradient><linearGradient id="n" gradientTransform="matrix(.28179552 0 0 .28009562 10.979593 1036.7048)" gradientUnits="userSpaceOnUse" x1="24.138529" x2="24.138529" y1="10.631441" y2="35.62291"><stop offset="0" stop-color="#fff"/><stop offset=".00000002" stop-color="#fff" stop-opacity=".235294"/><stop offset="1" stop-color="#fff" stop-opacity=".156863"/><stop offset="1" stop-color="#fff" stop-opacity=".392157"/></linearGradient><g transform="translate(0 -8)"><path d="m23 27.500001c.000931 2.485168-4.924204 4.499999-11 4.499999-6.0757958 0-11.00093826-2.014831-10.9999999-4.499999-.00093921-2.48517 4.9242041-4.500001 10.9999999-4.500001 6.075796 0 11.000939 2.014831 11 4.500001z" fill="url(#b)" fill-rule="evenodd" opacity=".3"/><path d="m21.441286 26.825403c0 2.028375-4.234572 3.674596-9.452159 3.674596-5.2175947 0-9.4521646-1.646221-9.4521646-3.674596 0-6.488122-1.1553118-3.598097 9.4521646-3.674595 10.850407-.07892 9.452159-2.849032 9.452159 3.674595z" fill="url(#c)" stroke="url(#e)"/><path d="m21.5 23.000001c0 1.932996-4.253296 3.499999-9.499999 3.499999-5.2467056 0-9.500001-1.567003-9.500001-3.499999 0-1.932998 4.2532954-3.500001 9.500001-3.500001 5.246703 0 9.499999 1.567003 9.499999 3.500001z" fill="none" stroke="#d8d8d8"/><path d="m21.441286 21.825404c0 2.028375-4.234572 3.674596-9.452159 3.674596-5.2175947 0-9.4521646-1.646221-9.4521646-3.674596 0-6.488122-1.1553118-3.598097 9.4521646-3.674595 10.850407-.07892 9.452159-2.849032 9.452159 3.674595z" fill="url(#g)" stroke="url(#h)"/><path d="m21.5 18.000002c0 1.932996-4.253296 3.499999-9.499999 3.499999-5.2467056 0-9.500001-1.567003-9.500001-3.499999 0-1.932998 4.2532954-3.500001 9.500001-3.500001 5.246703 0 9.499999 1.567003 9.499999 3.500001z" fill="none" stroke="#d8d8d8"/><path d="m21.441286 16.976886c0 1.99669-4.234572 3.523114-9.452159 3.523114-5.2175947 0-9.4521646-1.526424-9.4521646-3.523114 0-7.1907048-1.1553118-3.541892 9.4521646-3.617194 10.850407-.0777 9.452159-3.109574 9.452159 3.617194z" fill="url(#i)" stroke="url(#j)"/><path d="m21.5 13c0 1.932997-4.253296 3.5-9.499999 3.5-5.2467055 0-9.500001-1.567003-9.500001-3.5 0-1.932996 4.2532955-3.5 9.500001-3.5 5.246703 0 9.499999 1.567004 9.499999 3.5z" fill="url(#k)" stroke="url(#l)"/><rect fill="none" height="19" opacity=".5" rx="17.5" ry="3" stroke="url(#a)" width="17" x="3.5" y="10.5"/></g><path d="m20.958984 11a1.3640345 1.3640345 0 0 0 -.736328.216797c-.332475.153079-.639354.374951-.826172.722656l-2.257812 4.201172-.423828.714844-.6875-.527344a1.3640345 1.3640345 0 0 0 -.021485-.015625l-.003906-.001953-.208984-.169922a1.3640345 1.3640345 0 0 0 -.195313-.132813c-.031642-.017564.016177.00901-.011718-.005859l-.111329-.082031a1.3640345 1.3640345 0 0 0 -1.904297.277344l-.109374.146484c-.099697.10443-.197706.224863-.277344.373047l.11914-.183594-.99414 1.294922a1.3640345 1.3640345 0 0 0 -.119141.183594c-.022822.042435.003839-.004812-.013672.03125l-.037109.050781a1.3640345 1.3640345 0 0 0 .220703 1.875l.072266.058594c.116294.136572.259603.2741.458984.384765l-.214844-.148437s1.011281.848386 2.023438 1.697266c.506078.424438 1.012414.849289 1.392578 1.167968.190082.15934.349496.29144.460937.384766.055721.046663.098332.08382.128907.109375.015287.012777.02799.023657.037109.03125.00456.003796.009092.005982.013672.009765.00229.001893.004401.003445.009766.007813l.195312.132813c.1138.063652.10061.026106.162109.054687a1.3640345 1.3640345 0 0 0 1.996094-.394531c.107949-.122866.196257-.249402.259766-.367188l4.644531-8.630859v-1.761719a1.3640345 1.3640345 0 0 0 -.246094-.27539c-.117311-.133075-.263234-.263449-.449218-.367188l-1.492188-.832031a1.3640345 1.3640345 0 0 0 -.001953 0c-.064815-.036046-.128721-.036111-.193359-.0625-.001965-.000802-.003895-.00116-.00586-.001953a1.3640345 1.3640345 0 0 0 -.652344-.166016zm.123047.015625.011719.003906c-.027215.000037-.098683.003572-.179688.00586.072633-.003196.168419-.009732.167969-.009766z" fill="#fff" fill-opacity=".784314"/><g transform="matrix(.78405076 0 0 .78405076 5.161591 -801.31498)"><path d="m12.802963 1044.2277 2.43068 1.8613 4.915451-8.3022 1.925603 1.0665.514119.3472-6.313454 11.8682-5.988355-4.9245 1.830901-2.4216z" fill="url(#m)"/><g fill="none"><path d="m15.209743 1047.5873 5.177033-8.6499 1.558058.9469m-5.555839 9.9573-4.841054-3.8197.789181-1.0062" opacity=".5" stroke="url(#n)"/><path d="m20.191222 1037.8012c-.200773-.021-.400379.079-.503536.271l-4.395165 8.1692-2.825805-2.2825c-.25171-.1397-.565759-.05-.703301.2059l-1.267211 1.6527c-.137539.2557-.04501.5747.206697.7144 0 0 5.159568 4.3289 5.165933 4.3321.05899.033.215389.081.2781.089.204857.026.319801-.1036.425104-.2989l5.927462-11.0172c.13754-.2557.04501-.5746-.206696-.7143l-1.901912-1.0603c-.06293-.035-.132746-.054-.19967-.061z" opacity=".5" stroke="#0f5a00" stroke-linecap="round" stroke-linejoin="round" stroke-width=".873391"/></g></g></svg>