<svg height="24" width="24" xmlns="http://www.w3.org/2000/svg" xmlns:xlink="http://www.w3.org/1999/xlink"><linearGradient id="a" gradientTransform="matrix(.42307923 0 0 .39244743 3.84619 12.352884)" gradientUnits="userSpaceOnUse" spreadMethod="reflect" x1="25.525208" x2="25.525208" y1="35.429005" y2="15.737678"><stop offset="0" stop-color="#969696"/><stop offset=".5" stop-color="#858585" stop-opacity=".634783"/><stop offset="1" stop-color="#939393" stop-opacity="0"/></linearGradient><linearGradient id="b" gradientTransform="matrix(.45945946 0 0 .29729728 2.972974 16.864867)" gradientUnits="userSpaceOnUse" x1="23.99999" x2="23.99999" y1="6.675988" y2="41.184601"><stop offset="0" stop-color="#fff"/><stop offset=".01864429" stop-color="#fff" stop-opacity=".235294"/><stop offset=".98085731" stop-color="#fff" stop-opacity=".156863"/><stop offset="1" stop-color="#fff" stop-opacity=".392157"/></linearGradient><linearGradient id="c" gradientTransform="matrix(.39078075 0 0 .4337445 4.602995 15.522359)" gradientUnits="userSpaceOnUse" x1="16.626165" x2="20.054544" xlink:href="#d" y1="15.298182" y2="24.627615"/><linearGradient id="d"><stop offset="0" stop-color="#fff"/><stop offset="1" stop-color="#fff" stop-opacity="0"/></linearGradient><linearGradient id="e" gradientTransform="matrix(.42307923 0 0 .39244743 3.84619 11.014342)" gradientUnits="userSpaceOnUse" spreadMethod="reflect" x1="25.525208" x2="25.525208" xlink:href="#d" y1="30.188753" y2="15.737678"/><linearGradient id="f" gradientTransform="matrix(.42223777 0 0 .41882295 3.90701 12.452607)" gradientUnits="userSpaceOnUse" x1="23.903786" x2="23.903786" y1="35.75" y2="20.443331"><stop offset="0"/><stop offset=".5" stop-opacity=".498039"/><stop offset="1" stop-opacity="0"/></linearGradient><linearGradient id="g" gradientTransform="matrix(.42307923 0 0 .39244743 3.84619 13.747128)" gradientUnits="userSpaceOnUse" spreadMethod="reflect" x1="25.525208" x2="25.525208" xlink:href="#d" y1="30.188753" y2="15.737678"/><linearGradient id="h" gradientTransform="matrix(.42307923 0 0 .39244743 3.84619 12.352884)" gradientUnits="userSpaceOnUse" spreadMethod="reflect" x1="25.525208" x2="25.525208" y1="30.188753" y2="15.737678"><stop offset="0" stop-color="#a0a0a0"/><stop offset=".5" stop-color="#8f8f8f" stop-opacity=".634783"/><stop offset="1" stop-color="#9d9d9d" stop-opacity="0"/></linearGradient><linearGradient id="i" gradientTransform="matrix(.40000003 0 0 .36363633 4.4 13.81818)" gradientUnits="userSpaceOnUse" x1="20.052792" x2="20.052792" y1="10.636821" y2="45.243549"><stop offset="0" stop-color="#f4f4f4"/><stop offset="1" stop-color="#dbdbdb"/></linearGradient><linearGradient id="j" gradientTransform="matrix(2.774389 0 0 1.969706 -1892.179 -872.8854)" gradientUnits="userSpaceOnUse" x1="302.85715" x2="302.85715" y1="366.64789" y2="609.50507"><stop offset="0" stop-opacity="0"/><stop offset=".5"/><stop offset="1" stop-opacity="0"/></linearGradient><radialGradient id="k" cx="605.71429" cy="486.64789" gradientTransform="matrix(2.774389 0 0 1.969706 -1891.633 -872.8854)" gradientUnits="userSpaceOnUse" r="117.14286" xlink:href="#l"/><linearGradient id="l"><stop offset="0"/><stop offset="1" stop-opacity="0"/></linearGradient><radialGradient id="m" cx="605.71429" cy="486.64789" gradientTransform="matrix(-2.774389 0 0 1.969706 112.7623 -872.8854)" gradientUnits="userSpaceOnUse" r="117.14286" xlink:href="#l"/><g transform="translate(-2 -13)"><g opacity=".7" transform="matrix(.01045062 0 0 .00543807 23.295153 30.21816)"><path d="m-1559.2523-150.69685h1339.6335v478.35718h-1339.6335z" fill="url(#j)" opacity=".39196"/><path d="m-219.61876-150.68038v478.33079c142.874166.90045 345.40022-107.16966 345.40014-239.196175 0-132.026537-159.436816-239.134595-345.40014-239.134615z" fill="url(#k)" opacity=".402062"/><path d="m-1559.2523-150.68038v478.33079c-142.8742.90045-345.4002-107.16966-345.4002-239.196175 0-132.026537 159.4368-239.134595 345.4002-239.134615z" fill="url(#m)" opacity=".402062"/></g><rect fill="url(#i)" fill-rule="evenodd" height="13" rx=".5" width="19" x="4.5" y="17.5"/><g fill="none"><path d="m11.739261 24.322531-5.7012291 5.350022zm4.534881.02453 5.740893 5.227129z" stroke="url(#h)"/><path d="m11.739261 25.716773-3.8538679 3.665908zm4.534881.02453 3.923509 3.558336z" opacity=".7" stroke="url(#g)"/><path d="m7.4264159 21.420414 6.6143001 5.494264 6.533049-5.494264" opacity=".06" stroke="url(#f)"/><path d="m6.4197241 18.557066 7.5803669 6.192934 7.463992-6.200594" opacity=".7" stroke="url(#e)"/></g><path d="m5.6151563 18c-.3217228 0-.6151563.194425-.6151563.49027l.0059595 7.50973c.5178164-.008052 17.6010015-2.94897 17.9940405-3.090431v-4.323715c0-.226135-.271009-.585854-.549585-.585854z" fill="url(#c)" fill-rule="evenodd" opacity=".2"/><g fill="none"><path d="m5.5 18.5h17v11h-17z" stroke="url(#b)" stroke-linecap="round" stroke-linejoin="round"/><rect height="13.000001" opacity=".3" rx="1" stroke="#000" width="19" x="4.5" y="17.499998"/><path d="m5.2155719 18.774502 8.7845191 7.314042 8.917279-7.363225" stroke="url(#a)"/></g></g></svg>