<svg viewBox="0 0 24 24" xmlns="http://www.w3.org/2000/svg" xmlns:xlink="http://www.w3.org/1999/xlink"><linearGradient id="a" gradientUnits="userSpaceOnUse" x1="9.978495" x2="9.978495" y1="13.912886" y2="-5.872059"><stop offset="0"/><stop offset="1" stop-color="#333"/></linearGradient><linearGradient id="b" gradientUnits="userSpaceOnUse" x1="14" x2="6" y1="8" y2="16"><stop offset="0" stop-color="#fff"/><stop offset=".125" stop-color="#fff" stop-opacity="0"/><stop offset="1" stop-color="#fff" stop-opacity="0"/></linearGradient><clipPath id="c"><path d="m8 2.6855469v14.0000001l3.132812-3.820313 2.066407 4.986328a1.0001 1.0001 0 1 0 1.847656-.765624l-2.111328-5.095704 4.378906.009766z"/></clipPath><g transform="translate(-1.989247 7.010752)"><g fill-rule="evenodd" stroke="#000" stroke-linejoin="round"><path d="m7.9892474.989248v10.999999l2.5652276-2.9424833 2.044188 3.7280743c.494727 1.242916 2.142881-.74317 1.613492-1.971723l-1.874329-2.6219433 3.651422-.1919247z" opacity=".02" stroke-width="6"/><path d="m7.9892474.989248v10.999999l2.5652276-2.9424833 2.044188 3.7280743c.494727 1.242916 2.142881-.74317 1.613492-1.971723l-1.874329-2.6219433 3.117524-.2046366z" opacity=".2" stroke-width="2"/><path d="m7.9892474.989248v10.999999l2.5652276-2.9424833 2.044188 3.7280743c.494727 1.242916 2.142881-.74317 1.613492-1.971723l-1.874329-2.6219433 3.117524-.2046366z" opacity=".05" stroke-width="4"/></g><path d="m7 0v11l2.5652277-2.9424843 2.0441883 3.7280743c.494704 1.24297 2.357232.471184 1.827788-.757391l-2.088625-3.8362743 3.651421-.1919247z" fill="none" stroke="#fff" stroke-width="2"/><path d="m7 0v11l2.5652277-2.9424843 2.0441883 3.7280743c.494704 1.24297 2.357232.471184 1.827788-.757391l-2.088625-3.8362743 3.651421-.1919247z" fill="url(#a)" fill-rule="evenodd"/><path clip-path="url(#c)" d="m6.9891304 6.9358866v11.1195654l2.59311-2.974467 2.0664066 3.768597c.500102 1.256433 2.382807.476286 1.847656-.765624l-2.111328-3.877973 3.691112-.194011z" fill="none" opacity=".4" stroke="url(#b)" stroke-width="2.695652" transform="matrix(.98924729 0 0 .98924729 .086022 -6.861307)"/></g><g transform="translate(-1.014)"><path d="m16 1v3h1l1 1.016v13.92l-1 1.064h-1v3h7v-3h-1l-1-.93v-14.07l1-1h1v-3z" fill-rule="evenodd" opacity=".52"/><path d="m16.97 2.5h1.53s1 0 1 1v17s-.088 1-1.088 1h-1.442m5.044-19h-1.53s-1 0-1 1v17s.087 1 1.088 1h1.442" fill="none" stroke="#fff"/></g></svg>