<svg height="24" width="24" xmlns="http://www.w3.org/2000/svg" xmlns:xlink="http://www.w3.org/1999/xlink"><linearGradient id="a" gradientTransform="matrix(1 0 0 -1 13 47.499993)" gradientUnits="userSpaceOnUse" x1="4" x2="4" y1="15.000001" y2="19.5"><stop offset="0" stop-color="#fff"/><stop offset="0" stop-color="#fff" stop-opacity=".235294"/><stop offset=".66666669" stop-color="#fff" stop-opacity=".196078"/><stop offset=".66666669" stop-color="#fff"/><stop offset=".88888896" stop-color="#fff"/><stop offset=".88888896" stop-color="#fff" stop-opacity=".176471"/><stop offset="1" stop-color="#fff" stop-opacity=".156863"/><stop offset="1" stop-color="#fff" stop-opacity=".392157"/></linearGradient><linearGradient id="b" gradientTransform="matrix(.35135 0 0 .5135 6.567 -16.324)" gradientUnits="userSpaceOnUse" x1="24" x2="24.001707" y1="5.564" y2="41.526775"><stop offset="0" stop-color="#fff"/><stop offset=".036" stop-color="#fff" stop-opacity=".235"/><stop offset="1" stop-color="#fff" stop-opacity=".157"/><stop offset="1" stop-color="#fff" stop-opacity=".392"/></linearGradient><linearGradient id="c" gradientTransform="translate(13 .5)" gradientUnits="userSpaceOnUse" x1="4" x2="4" y1="13.5" y2="22"><stop offset="0" stop-color="#ffa154"/><stop offset="1" stop-color="#f37329"/></linearGradient><linearGradient id="d" gradientTransform="matrix(.99999998 0 0 -.99999998 13 47.499993)" gradientUnits="userSpaceOnUse" x1="4" x2="4" xlink:href="#c" y1="13.5" y2="22"/><linearGradient id="e" gradientTransform="translate(13 .5)" gradientUnits="userSpaceOnUse" x1="4" x2="4" xlink:href="#c" y1="22.000069" y2="13.500069"/><linearGradient id="f" gradientUnits="userSpaceOnUse" x1="17" x2="17" y1="19.500069" y2="15.499993"><stop offset="0" stop-color="#fff"/><stop offset=".25002578" stop-color="#fff" stop-opacity=".235294"/><stop offset="1" stop-color="#fff" stop-opacity=".156863"/><stop offset="1" stop-color="#fff" stop-opacity=".392157"/></linearGradient><linearGradient id="g" gradientTransform="matrix(.35135 0 0 .5135 6.567 -16.324)" gradientUnits="userSpaceOnUse" x1="24.001707" x2="24" y1="6.473223" y2="43"><stop offset="0" stop-color="#fff"/><stop offset="0" stop-color="#fff" stop-opacity=".235"/><stop offset=".951" stop-color="#fff" stop-opacity=".157"/><stop offset="1" stop-color="#fff" stop-opacity=".392"/></linearGradient><clipPath id="h"><path d="m7-5h16v12h-16z"/></clipPath><clipPath id="i"><path d="m7-15h16v11h-16z"/></clipPath><linearGradient id="j" gradientTransform="matrix(.42857 0 0 .4563 4.714 -15.65)" gradientUnits="userSpaceOnUse" x1="24" x2="24" xlink:href="#k" y1="5.81" y2="67.174"/><linearGradient id="k"><stop offset="0" stop-color="#f4f4f4"/><stop offset="1" stop-color="#dbdbdb"/></linearGradient><linearGradient id="l" gradientTransform="matrix(.42857 0 0 .4563 4.714 -15.65)" gradientUnits="userSpaceOnUse" x1="25.132" x2="25.132" xlink:href="#k" y1=".985" y2="47.013"/><g clip-path="url(#h)" transform="translate(-3 5)"><path d="m7.5-14.5h15v21h-15z" fill="url(#j)"/><g fill="none"><path d="m21.5 5.5h-13v-19h13z" stroke="url(#b)" stroke-linecap="round"/><path d="m7.5-14.5h15v21h-15z" opacity=".3" stroke="#000" stroke-linejoin="round"/></g></g><g clip-path="url(#i)" transform="translate(-3 28)"><path d="m7.5-14.5h15v21h-15z" fill="url(#l)"/><g fill="none"><path d="m21.5 5.5h-13v-19h13z" stroke="url(#g)" stroke-linecap="round"/><path d="m7.5-14.5h15v21h-15z" opacity=".3" stroke="#000" stroke-linejoin="round"/></g></g><g stroke-linecap="round" stroke-linejoin="round"><g transform="matrix(1 0 0 -1 -5 24.499993)"><path d="m15.5 13.999993v4.000007h-2l3.5 4 3.5-4h-2v-4.000007z" fill="url(#e)" stroke="#a62100" stroke-opacity=".501961"/><path d="m16.476562 14.999993.01172 3.000007c-.000757.481843-.349032.892841-.824219.972657l1.335937 1.527343 1.335937-1.527343c-.475186-.079816-.823461-.490814-.824218-.972657l-.011719-3.000007z" fill="none" opacity=".5" stroke="url(#f)"/></g><g transform="matrix(1 0 0 -1 -5 48.499993)"><path d="m15.5 33.999993v-4h-2l3.5-4 3.5 4h-2v4z" fill="url(#d)" stroke="#a62100" stroke-opacity=".501961"/><path d="m16.5 32.999993-.01172-3c-.000756-.481843-.349031-.892841-.824218-.972657l1.335938-1.527343 1.335937 1.527343c-.475186.07982-.823461.490814-.824218.972657l-.01172 3z" fill="none" opacity=".245" stroke="url(#a)" stroke-linecap="square" stroke-linejoin="miter"/></g></g></svg>