<svg height="24" width="24" xmlns="http://www.w3.org/2000/svg" xmlns:xlink="http://www.w3.org/1999/xlink"><radialGradient id="a" cx="7.061667" cy="7.833584" gradientTransform="matrix(-2.434398 .23920676 -.22241281 -2.1854518 25.994865 21.378326)" gradientUnits="userSpaceOnUse" r="4.535755"><stop offset="0" stop-color="#737373"/><stop offset=".262" stop-color="#636363"/><stop offset=".705" stop-color="#4b4b4b"/><stop offset="1" stop-color="#3f3f3f"/></radialGradient><radialGradient id="b" cx="17" cy="4.98553" gradientTransform="matrix(-.00000005 3.1363666 -2.1384314 -.00000004 27.661215 -54.318232)" gradientUnits="userSpaceOnUse" r="7.014487"><stop offset="0" stop-color="#737373"/><stop offset=".26238" stop-color="#636363"/><stop offset=".704952" stop-color="#4b4b4b"/><stop offset="1" stop-color="#3f3f3f"/></radialGradient><g transform="translate(0 2)"><path d="m16.980468-.99999958a1.0001 1.0001 0 0 0 -.0293.00195 1.0001 1.0001 0 0 0 -.07031.00586 1.0001 1.0001 0 0 0 -.697265.40625l-5.890625 5.88867188a1.0001 1.0001 0 1 0 1.414062 1.4140625l4.292969-4.2929663v16.0859375c0 .272045.218189.490234.490234.490234h1.019532c.272045 0 .490234-.218189.490234-.490234v-16.0859375l4.292969 4.2929688a1.0001 1.0001 0 1 0 1.414062-1.4140625l-5.882812-5.88281248a1.0001 1.0001 0 0 0 -.828125-.4199219 1.0001 1.0001 0 0 0 -.01563 0z" fill="url(#b)"/><text x="4" y="18"><tspan x="4" y="18"/></text><path d="m10.674517 19.410305h-8.2345104v-1.521265l5.3055071-7.606326h-5.1617059v-1.9375322h7.9469082v1.5136968l-5.2979389 7.6138944h5.4417399z" style="stroke:#000;stroke-width:.837;stroke-linecap:round;stroke-linejoin:round;stroke-opacity:.490196;fill:url(#a)" transform="scale(.99126738 1.0088095)"/><path d="m2.5605469 10.417969v1h7.8789061v-1zm4.4316406 2.955078-4.5742187 6.673828v1l5.2597656-7.673828zm-1.1210937 6.253906-.6835938 1h5.394531v-1z" fill="#fff" opacity=".2" transform="translate(0 -2)"/></g></svg>