<svg viewBox="0 0 24 24" xmlns="http://www.w3.org/2000/svg" xmlns:xlink="http://www.w3.org/1999/xlink"><radialGradient id="a" cx="2.25" cy="16" gradientTransform="matrix(.37336191 0 0 .11633788 11.012672 19.175389)" gradientUnits="userSpaceOnUse" r="16.875"><stop offset="0"/><stop offset="1" stop-opacity="0"/></radialGradient><linearGradient id="b" gradientUnits="userSpaceOnUse" x1="3.228417" x2="16.127093" y1="3.167863" y2="14.893287"><stop offset="0" stop-color="#eeeeec"/><stop offset="1" stop-color="#e0e0de"/></linearGradient><ellipse cx="11.852736" cy="21.036797" display="block" fill="url(#a)" fill-rule="evenodd" opacity=".245" rx="6.300482" ry="1.963204"/><path d="m12 3.5294119c-4.678179 0-8.470588 3.7924094-8.470588 8.4705881 0 4.678179 3.792409 8.470588 8.470588 8.470588s8.470588-3.792409 8.470588-8.470588c0-4.6781787-3.792409-8.4705881-8.470588-8.4705881zm0 2.117647c3.508634 0 6.352941 2.8443071 6.352941 6.3529411 0 1.365173-.458384 2.60409-1.191176 3.639706l-8.801471-8.8014706c1.035616-.7327926 2.274533-1.1911765 3.639706-1.1911765zm-5.161765 2.7132353 8.801471 8.8014708c-1.035616.732792-2.274533 1.191176-3.639706 1.191176-3.508634 0-6.352941-2.844307-6.352941-6.352941 0-1.365173.458384-2.6040894 1.191176-3.6397058z" fill="url(#b)" stroke="#888a85" stroke-width="1.058824"/></svg>