<svg height="24" width="24" xmlns="http://www.w3.org/2000/svg" xmlns:xlink="http://www.w3.org/1999/xlink"><radialGradient id="a" cx="7.4957" cy="8.4498" gradientTransform="matrix(0 1.2021946 -1.2711137 -.00000002 22.739245 -6.739845)" gradientUnits="userSpaceOnUse" r="20" xlink:href="#p"/><radialGradient id="b" cx="23.896" cy="3.99" gradientTransform="matrix(0 .98632502 -1.3019316 0 13.194836 -22.714478)" gradientUnits="userSpaceOnUse" r="20.396999"><stop offset="0" stop-color="#fff"/><stop offset=".26238" stop-color="#ddd"/><stop offset=".66093999" stop-color="#abacae"/><stop offset="1" stop-color="#89898b"/></radialGradient><linearGradient id="c" gradientUnits="userSpaceOnUse" x1="7.476259" x2="7.476259" y1="1.263739" y2="14.806796"><stop offset="0" stop-color="#fff"/><stop offset=".42447853" stop-color="#fff" stop-opacity=".235294"/><stop offset=".82089913" stop-color="#fff" stop-opacity=".156863"/><stop offset="1" stop-color="#fff" stop-opacity=".392157"/></linearGradient><linearGradient id="d" gradientTransform="matrix(.31194295 0 0 .31194147 -20.72549 -2.159155)" gradientUnits="userSpaceOnUse" x1="92.696327" x2="92.696327" y1="16.554602" y2="48.983677"><stop offset="0" stop-color="#fff"/><stop offset=".33799788" stop-color="#fff" stop-opacity=".235294"/><stop offset=".61996669" stop-color="#fff" stop-opacity=".156863"/><stop offset="1" stop-color="#fff" stop-opacity=".392157"/></linearGradient><radialGradient id="e" cx="8" cy="4.999986" gradientTransform="matrix(1.1446205 0 0 1.1446151 -1.156964 -1.15687)" gradientUnits="userSpaceOnUse" r="4.805086"><stop offset="0" stop-color="#7a8498"/><stop offset="1" stop-color="#34405c"/></radialGradient><linearGradient id="f" gradientTransform="matrix(3.6415332 1.0119605 -1.0119605 3.6415332 4.760432 -10.827302)" gradientUnits="userSpaceOnUse" x1="2.027828" x2="3.185315" y1="3.995011" y2="4.434366"><stop offset="0" stop-color="#ff8c82"/><stop offset=".31209752" stop-color="#ed5353"/><stop offset=".57054454" stop-color="#c6262e"/><stop offset="1" stop-color="#a10705"/></linearGradient><linearGradient id="g" gradientTransform="matrix(-3.6415331 -1.0119607 1.0119607 -3.6415331 19.739567 18.327303)" gradientUnits="userSpaceOnUse" x1="3.230561" x2="1.906501" xlink:href="#h" y1="4.55868" y2="4.231917"/><linearGradient id="h"><stop offset="0" stop-color="#fff"/><stop offset="1" stop-color="#c1c1c1"/></linearGradient><linearGradient id="i" gradientTransform="matrix(.47371654 -.24028843 .24028843 .47371654 -9.064166 2.185152)" gradientUnits="userSpaceOnUse" x1="24" x2="24" xlink:href="#h" y1="22" y2="26"/><linearGradient id="j" gradientUnits="userSpaceOnUse" x1="12" x2="12" xlink:href="#p" y1="13" y2="19"/><linearGradient id="k"><stop offset="0" stop-color="#181818"/><stop offset="1" stop-color="#181818" stop-opacity="0"/></linearGradient><radialGradient id="l" cx="4.993" cy="43.5" gradientTransform="matrix(2.0038 0 0 1.4 27.988 -17.4)" gradientUnits="userSpaceOnUse" r="2.5" xlink:href="#k"/><radialGradient id="m" cx="4.993" cy="43.5" gradientTransform="matrix(2.0038 0 0 1.4 -20.012 -104.4)" gradientUnits="userSpaceOnUse" r="2.5" xlink:href="#k"/><linearGradient id="n" gradientUnits="userSpaceOnUse" x1="25.058" x2="25.058" y1="47.028" y2="39.999"><stop offset="0" stop-color="#181818" stop-opacity="0"/><stop offset=".5" stop-color="#181818"/><stop offset="1" stop-color="#181818" stop-opacity="0"/></linearGradient><linearGradient id="o" gradientUnits="userSpaceOnUse" x1="12.001" x2="12.001" y1="3.269" y2="20.728"><stop offset="0" stop-color="#fff"/><stop offset=".063165" stop-color="#fff" stop-opacity=".23529"/><stop offset=".95056" stop-color="#fff" stop-opacity=".15686"/><stop offset="1" stop-color="#fff" stop-opacity=".39216"/></linearGradient><radialGradient id="p" cx="7.4957" cy="8.4498" gradientTransform="matrix(0 1.1385 -1.2044 -.00000002 22.177 -5.7503)" gradientUnits="userSpaceOnUse" r="20"><stop offset="0" stop-color="#fafafa"/><stop offset="1" stop-color="#e1e1e1"/></radialGradient><g opacity=".4" transform="matrix(.57895 0 0 .42857 -1.8947 2.8571)"><path d="m38 40h5v7h-5z" fill="url(#l)"/><path d="m-10-47h5v7h-5z" fill="url(#m)" transform="scale(-1)"/><path d="m10 40h28v7h-28z" fill="url(#n)"/></g><path d="m3.0276959 2.5c-.3014727 0-.5276959.2263421-.5276959.527973v17.951084c0 .301631.2262232.527973.5276959.527973h17.9416581c.301472 0 .527696-.226342.527696-.527973v-17.951084c0-.3016309-.226224-.527973-.527696-.527973z" fill="url(#a)" stroke-width="1.055669"/><path d="m3.5012 3.4988h17v17h-17z" fill="none" opacity=".5" stroke="url(#o)" stroke-linecap="round" stroke-linejoin="round"/><g fill-rule="evenodd"><path d="m4.9358 4.9746a.44445.44445 0 0 1 -.88889 0 .44445.44445 0 1 1 .88889 0z" fill="#fff"/><path d="m4.9358 4.5301a.44445.44445 0 0 1 -.88889 0 .44445.44445 0 1 1 .88889 0z" opacity=".3"/><path d="m19.916 4.9746a.44445.44445 0 0 1 -.88889 0 .44445.44445 0 1 1 .88889 0z" fill="#fff"/><path d="m19.916 4.5301a.44445.44445 0 0 1 -.88889 0 .44445.44445 0 1 1 .88889 0z" opacity=".3"/><path d="m4.9358 19.992a.44445.44445 0 0 1 -.88889 0 .44445.44445 0 1 1 .88889 0z" fill="#fff"/><path d="m4.9358 19.548a.44445.44445 0 0 1 -.88889 0 .44445.44445 0 1 1 .88889 0z" opacity=".3"/><path d="m19.916 19.992a.44445.44445 0 0 1 -.88889 0 .44445.44445 0 1 1 .88889 0z" fill="#fff"/><path d="m19.916 19.548a.44445.44445 0 0 1 -.88889 0 .44445.44445 0 1 1 .88889 0z" opacity=".3"/></g><rect fill="#b5b5b5" height="5" rx="1" width="14" x="5" y="7"/><path d="m3.5 2c-.82235 0-1.5.67765-1.5 1.5v17c0 .82235.67765 1.5 1.5 1.5h17c.82235 0 1.5-.67765 1.5-1.5v-17c0-.82235-.67765-1.5-1.5-1.5zm0 1h17c.28565 0 .5.21435.5.5v17c0 .28565-.21435.5-.5.5h-17c-.28565 0-.5-.21435-.5-.5v-17c0-.28565.21435-.5.5-.5z" fill-opacity=".23907"/><rect fill="#cacaca" height="4" rx="1" width="14" x="5" y="8"/><rect fill="#bababa" height="5" rx=".68955" width="14" x="5" y="14"/><rect fill="url(#j)" height="3" rx=".3843" width="12" x="6" y="15"/><g fill="#4d4d4d"><path d="m8 16h1v1h-1z"/><path d="m9 15h1v1h-1z"/><path d="m10 16h1v1h-1z"/><path d="m8 17h1v1h-1z"/><path d="m10 17h1v1h-1z"/><path d="m9 18h1v1h-1z"/><path d="m12 15h1v1h-1z"/><path d="m12 16h1v1h-1z"/><path d="m12 17h1v1h-1z"/><path d="m12 18h1v1h-1z"/><path d="m14 15h1v1h-1z"/><path d="m13 16h1v1h-1z"/><path d="m14 17h1v1h-1z"/><path d="m14 18h1v1h-1z"/></g><g transform="translate(8 8)"><path d="m7.9999999.99999865c-3.8623577 0-6.99999993 3.13764035-6.99999993 7.00000085 0 3.8623615 3.13764223 7.0000015 6.99999993 7.0000015 3.8623581 0 7.0000061-3.13764 7.0000001-7.0000015 0-3.8623605-3.137642-7.00000085-7.0000001-7.00000085z" fill="url(#b)"/><g fill="none"><path d="m14.5 8.0000001c0 3.5898529-2.910146 6.4999999-6.5000066 6.4999999-3.5898477 0-6.4999934-2.910147-6.4999934-6.4999999 0-3.5898535 2.9101457-6.5000001 6.4999934-6.5000001 3.5898606 0 6.5000066 2.9101466 6.5000066 6.5000001z" opacity=".8" stroke="url(#c)" stroke-linecap="round" stroke-linejoin="round"/><path d="m7.9998579.500281c-4.138162 0-7.49985796 3.361693-7.49985796 7.499859s3.36169596 7.49986 7.49985796 7.49986c4.1381621 0 7.4998651-3.361694 7.4998581-7.49986 0-4.138166-3.361696-7.499859-7.4998581-7.499859z" opacity=".7" stroke="#636363"/><path d="m13 8.0012247a5.0000003 4.9999769 0 0 1 -10.0000003 0 5.0000003 4.9999769 0 1 1 10.0000003 0z" opacity=".3" stroke="url(#d)"/></g><path d="m13.5 8.0012106a5.5000003 5.4999746 0 0 1 -11.0000002 0 5.5000003 5.4999746 0 1 1 11.0000002 0z" fill="url(#e)" stroke="#626262" stroke-opacity=".701961" stroke-width="1.14462"/><path d="m11.703125 2.96875a.91978818.91978818 0 0 0 -.630859.2421875l-4.1113285 3.7832031a.91978818.91978818 0 0 0 -.28125.515625.91978818.91978818 0 0 0 -.3300781.5957032l-.6777344 5.3886722a.91978818.91978818 0 0 0 .5527344.96289l.3457031.146485a.91978818.91978818 0 0 0 .9804687-.169922l4.1308598-3.792969a.91978818.91978818 0 0 0 .283203-.515625.91978818.91978818 0 0 0 .330078-.5957031l.677734-5.3222657a.91978818.91978818 0 0 0 -.464844-.9199218l-.365234-.203125a.91978818.91978818 0 0 0 -.439453-.1152344z" fill="#0e141f" opacity=".1"/><path d="m11.695312 3.8886719-4.1113276 3.7832031 3.7988276 1.7421875.677735-5.3222656zm-4.4335932 4.3320312-.6777344 5.3886719.3457031.146484 4.1308595-3.7929684z" fill="#0e141f" opacity=".25"/><g stroke-linecap="round" stroke-linejoin="round" stroke-opacity=".552941" stroke-width="1.369617" transform="matrix(.73013135 0 0 .73013135 -.621794 5.079301)"><path d="m14.629538 5.3193311-5.6552978 5.1935489-.4742411-.200677.9276869-7.3799596z" fill="url(#f)" stroke="#7a0000"/><path d="m9.8704612 2.1806693 5.6295388-5.1806689.500006.2779382-.927686 7.2898006z" fill="url(#g)" stroke="#000"/></g><path d="m10.222186 8.57093c-1.0444359 2.865895-5.345694 1.3003653-4.301258-1.5655299 1.0429353-2.8691133 5.344193-1.3035834 4.301258 1.5655299z" opacity=".2" stroke-width="2.288653"/><path d="m9.0193857 7.3068483a1.0623483 1.0623483 0 0 1 -1.8948665.9611537 1.0623483 1.0623483 0 1 1 1.8948665-.9611537z" fill="url(#i)" stroke-width="1.062348"/></g></svg>