<svg height="24" viewBox="0 0 6.3499999 6.3500002" width="24" xmlns="http://www.w3.org/2000/svg" xmlns:xlink="http://www.w3.org/1999/xlink"><linearGradient id="a" gradientUnits="userSpaceOnUse" x1="15.488957" x2="15.501203" y1="5.356688" y2="18.700766"><stop offset="0" stop-color="#cd9ef7"/><stop offset="1" stop-color="#a56de2"/></linearGradient><radialGradient id="b" cx="2.25" cy="16" gradientTransform="matrix(.26913374 0 0 .11633788 11.394449 19.175389)" gradientUnits="userSpaceOnUse" r="16.875"><stop offset="0"/><stop offset="1" stop-opacity="0"/></radialGradient><linearGradient id="c" gradientTransform="matrix(.24324324 0 0 .35135133 2.162164 -.432428)" gradientUnits="userSpaceOnUse" x1="40.444439" x2="40.743645" y1="18.546713" y2="46.748371"><stop offset="0" stop-color="#fff"/><stop offset=".55903572" stop-color="#fff" stop-opacity=".235294"/><stop offset="1" stop-color="#fff" stop-opacity=".156863"/><stop offset="1" stop-color="#fff" stop-opacity=".392157"/></linearGradient><g transform="scale(.26458333)"><path d="m12 4-2.828125 5.171875-5.171875 2.828125 5.171875 2.828125 2.828125 5.171875 2.828125-5.171875 5.171875-2.828125-5.171875-2.828125z" fill="url(#a)" stroke="#7239b3" stroke-linejoin="round" stroke-opacity=".501961"/><ellipse cx="12" cy="21.036797" display="block" fill="url(#b)" fill-rule="evenodd" opacity=".336" rx="4.541632" ry="1.963204"/><path d="m12 6.0839844-2.0449219 3.7421875a.32215741.32215741 0 0 1 -.1289062.1289062l-3.7421875 2.0449219 3.7421875 2.044922a.32215741.32215741 0 0 1 .1289062.128906l2.0449219 3.742188 2.044922-3.742188a.32215741.32215741 0 0 1 .128906-.128906l3.742188-2.044922-3.742188-2.0449219a.32215741.32215741 0 0 1 -.128906-.1289062z" fill="none" opacity=".5" stroke="url(#c)" stroke-linejoin="round"/></g></svg>