<svg height="24" width="24" xmlns="http://www.w3.org/2000/svg" xmlns:xlink="http://www.w3.org/1999/xlink"><linearGradient id="a" gradientTransform="matrix(.45454545 0 0 1 1 21.999931)" gradientUnits="userSpaceOnUse" spreadMethod="reflect" x1="32" x2="32" y1="1017.8702" y2="1015.3622"><stop offset="0" stop-color="#c00"/><stop offset="1" stop-color="#c00" stop-opacity="0"/></linearGradient><linearGradient id="b" gradientTransform="matrix(.24324307 0 0 .32432431 6.161813 1032.0797)" gradientUnits="userSpaceOnUse" x1="23.99999" x2="23.99999" y1="5.56415" y2="43"><stop offset="0" stop-color="#fff"/><stop offset=".03626217" stop-color="#fff" stop-opacity=".235294"/><stop offset=".95056331" stop-color="#fff" stop-opacity=".156863"/><stop offset="1" stop-color="#fff" stop-opacity=".392157"/></linearGradient><linearGradient id="c" gradientTransform="matrix(.28571361 0 0 .28246936 5.142873 1032.6505)" gradientUnits="userSpaceOnUse" x1="25.132275" x2="25.132275" y1=".985206" y2="47.013336"><stop offset="0" stop-color="#f4f4f4"/><stop offset="1" stop-color="#dbdbdb"/></linearGradient><radialGradient id="d" cx="7.118353" cy="9.957108" gradientTransform="matrix(0 4.2185746 -4.3158852 0 55.293371 992.37587)" gradientUnits="userSpaceOnUse" r="12.671875"><stop offset="0" stop-color="#505050"/><stop offset=".26238" stop-color="#2b2b2b"/><stop offset=".704952" stop-color="#0a0a0a"/><stop offset="1"/></radialGradient><linearGradient id="e" gradientTransform="matrix(.37254902 0 0 .37288135 -.294119 660.13397)" gradientUnits="userSpaceOnUse" x1="33" x2="33" y1="988.36218" y2="1048.3622"><stop offset="0" stop-color="#f0f0f0"/><stop offset=".08552461" stop-color="#d7d7d8"/><stop offset=".92166406" stop-color="#b2b2b3"/><stop offset="1" stop-color="#979798"/></linearGradient><linearGradient id="f"><stop offset="0" stop-color="#181818"/><stop offset="1" stop-color="#181818" stop-opacity="0"/></linearGradient><linearGradient id="g" gradientTransform="matrix(.57142859 0 0 .57142849 -1.752377 1025.5051)" gradientUnits="userSpaceOnUse" x1="25.058096" x2="25.058096" y1="47.027729" y2="39.999443"><stop offset="0" stop-color="#181818" stop-opacity="0"/><stop offset=".5" stop-color="#181818"/><stop offset="1" stop-color="#181818" stop-opacity="0"/></linearGradient><radialGradient id="h" cx="4.992979" cy="43.5" gradientTransform="matrix(1.5819375 0 0 .79999996 -11.851495 -1085.1623)" gradientUnits="userSpaceOnUse" r="2.5" xlink:href="#f"/><radialGradient id="i" cx="4.996482" cy="43.5" gradientTransform="matrix(1.6030271 .00000021 -.00000004 .80000616 11.990502 1015.5619)" gradientUnits="userSpaceOnUse" r="2.5" xlink:href="#f"/><g transform="translate(0 -1028.3622)"><path d="m20 1048.3622h4v4h-4z" fill="url(#i)" opacity=".4"/><path d="m-4-1052.3622h4v4h-4z" fill="url(#h)" opacity=".4" transform="scale(-1)"/><path d="m4 1048.3622h16v4h-16z" fill="url(#g)" opacity=".4"/><rect fill="url(#e)" height="22" rx="1" width="19" x="2.5" y="1028.8622"/><rect fill="none" height="22" opacity=".5" rx="1" stroke="#000" stroke-linecap="round" stroke-linejoin="round" width="19" x="2.5" y="1028.8622"/><path d="m4.500001 1030.8625h15v18h-15z" fill="url(#d)" opacity=".9"/><path d="m7 1033.363h9.999987l.000013 12.9992s-6.666666 0-10 0c0-4.3334 0-8.6666 0-13z" fill="url(#c)"/><g stroke-linecap="round" stroke-linejoin="round"><path d="m16.500001 1045.8635h-8.9999999v-12h8.9999999z" fill="none" stroke="url(#b)"/><path d="m6.4999608 1032.8632h10.9999862l.000014 13.999s-7.333332 0-11.0000002 0c0-4.6666 0-9.3333 0-14z" fill="none" opacity=".3" stroke="#000"/><g transform="matrix(.8 0 0 1 -.8 .000128)"><path d="m6 1037.3621h20v5h-20z" fill="url(#a)" opacity=".8"/><path d="m6 1039.3622h20v1h-20z" fill="#fff" opacity=".8"/></g><path d="m4.500001 1030.8622h15.000001v18h-15.000001z" fill="none" opacity=".5" stroke="#000"/></g></g></svg>