<svg height="24" width="24" xmlns="http://www.w3.org/2000/svg" xmlns:xlink="http://www.w3.org/1999/xlink"><linearGradient id="a" gradientTransform="matrix(.99862953 .05233596 -.05233596 .99862953 1.009599 -.820462)" gradientUnits="userSpaceOnUse" x1="19.577271" x2="19.577271" y1="14.756647" y2="21.284676"><stop offset="0" stop-color="#f3f3f3"/><stop offset="1" stop-color="#f3f3f3" stop-opacity="0"/></linearGradient><radialGradient id="b" cx="6.702713" cy="73.615715" fx="11.969189" fy="75.92881" gradientTransform="matrix(1.6601149 0 0 .29397866 .872727 .233551)" gradientUnits="userSpaceOnUse" r="7.228416"><stop offset="0"/><stop offset="1" stop-opacity="0"/></radialGradient><linearGradient id="c" gradientTransform="matrix(.94444444 0 0 1 13.272827 -6.375707)" gradientUnits="userSpaceOnUse" x1="14.409911" x2="14.465328" y1="6.925648" y2="5.436808"><stop offset="0" stop-color="#a3907c"/><stop offset="1" stop-color="#f9c440"/></linearGradient><linearGradient id="d" gradientTransform="matrix(.35087001 .0183883 -.0183883 .35087001 -15.715689 -2.224657)" gradientUnits="userSpaceOnUse" x1="67.908051" x2="71.214508" y1="6.663275" y2="44.456295"><stop offset="0" stop-color="#fff"/><stop offset=".507761" stop-color="#fff" stop-opacity=".235294"/><stop offset=".83456558" stop-color="#fff" stop-opacity=".156863"/><stop offset="1" stop-color="#fff" stop-opacity=".392157"/></linearGradient><radialGradient id="e" cx="8.072266" cy="5.962701" fx="6" fy="3.371369" gradientTransform="matrix(.8743069 -.03053147 .02312484 .66220882 1.253481 2.845339)" gradientUnits="userSpaceOnUse" r="4.572266"><stop offset="0" stop-color="#fff"/><stop offset="1" stop-color="#fff" stop-opacity=".526471"/></radialGradient><radialGradient id="f" cx="22.099527" cy="24.537743" gradientTransform="matrix(.54128372 -.01890204 .01890204 .54128372 -.870055 -1.670076)" gradientUnits="userSpaceOnUse" r="8.308505"><stop offset="0" stop-color="#fff" stop-opacity=".58"/><stop offset="1" stop-color="#fff" stop-opacity=".46"/></radialGradient><linearGradient id="g" gradientTransform="matrix(.415777 -.4174938 .518983 .5146192 -15.747227 2.650367)" gradientUnits="userSpaceOnUse" spreadMethod="pad" x1="23.575972" x2="23.575972" y1="25.356892" y2="31.210939"><stop offset="0" stop-color="#ad5f00"/><stop offset=".13482948" stop-color="#ffe16b"/><stop offset=".20224422" stop-color="#f9c440"/><stop offset=".26965895" stop-color="#fff394"/><stop offset=".44650277" stop-color="#f9c440"/><stop offset=".57114136" stop-color="#f9c440"/><stop offset=".72038066" stop-color="#ffe16b"/><stop offset="1" stop-color="#ad5f00"/></linearGradient><linearGradient id="h" gradientTransform="matrix(.4282553 -.43106531 .53455872 .53134798 -8.236684 10.17891)" gradientUnits="userSpaceOnUse" spreadMethod="pad" x1="23.575972" x2="23.575972" y1="25.356892" y2="31.210939"><stop offset="0" stop-color="#7e8087"/><stop offset=".13482948" stop-color="#d4d4d4"/><stop offset=".20224422" stop-color="#abacae"/><stop offset=".26965895" stop-color="#fafafa"/><stop offset=".44650277" stop-color="#abacae"/><stop offset=".57114136" stop-color="#abacae"/><stop offset=".72038066" stop-color="#d4d4d4"/><stop offset="1" stop-color="#7e8087"/></linearGradient><linearGradient id="i" gradientTransform="matrix(.4040235 -.4056919 .6073752 .6022679 -17.867764 .693027)" gradientUnits="userSpaceOnUse" x1="30.037716" x2="30.037716" xlink:href="#j" y1="24.989594" y2="30.000141"/><linearGradient id="j"><stop offset="0" stop-color="#555761"/><stop offset=".5" stop-color="#abacae"/><stop offset="1" stop-color="#555761"/></linearGradient><linearGradient id="k" gradientTransform="matrix(.4040235 -.4056919 .6073752 .6022679 -17.983472 .809213)" gradientUnits="userSpaceOnUse" x1="30.037716" x2="30.037716" xlink:href="#l" y1="24.989594" y2="30.000141"/><linearGradient id="l"><stop offset="0" stop-color="#abacae"/><stop offset=".5" stop-color="#fafafa"/><stop offset="1" stop-color="#abacae"/></linearGradient><linearGradient id="m" gradientTransform="matrix(.4040235 -.4056919 .6073752 .6022679 -17.465684 .289287)" gradientUnits="userSpaceOnUse" x1="30.037716" x2="30.037716" xlink:href="#j" y1="24.989594" y2="30.000141"/><linearGradient id="n" gradientTransform="matrix(.4040235 -.4056919 .6073752 .6022679 -17.581392 .405471)" gradientUnits="userSpaceOnUse" x1="30.037716" x2="30.037716" xlink:href="#l" y1="24.989594" y2="30.000141"/><linearGradient id="o" gradientTransform="matrix(.4040235 -.4056919 .6073752 .6022679 -17.061661 -.116406)" gradientUnits="userSpaceOnUse" x1="30.037716" x2="30.037716" xlink:href="#j" y1="24.989594" y2="30.000141"/><linearGradient id="p" gradientTransform="matrix(.4040235 -.4056919 .6073752 .6022679 -17.177369 -.00022)" gradientUnits="userSpaceOnUse" x1="30.037716" x2="30.037716" xlink:href="#l" y1="24.989594" y2="30.000141"/><linearGradient id="q" gradientTransform="matrix(.4040235 -.4056919 .6073752 .602268 -17.636692 .462492)" gradientUnits="userSpaceOnUse" x1="9" x2="9" y1="29.056757" y2="26.02973"><stop offset="0" stop-color="#fff394"/><stop offset="1" stop-color="#fafafa"/></linearGradient><linearGradient id="r" gradientTransform="matrix(.3763801 .03615261 .03669995 .374874 -2.218281 -1.1331)" gradientUnits="userSpaceOnUse" x1="5.517898" x2="9.522056" y1="37.371799" y2="41.391716"><stop offset="0" stop-color="#d48e15"/><stop offset="1" stop-color="#ad5f00"/></linearGradient><path d="m24 21.875c0 1.173606-5.372583 2.125-12 2.125-6.6274176 0-12-.951394-12-2.125s5.3725824-2.125 12-2.125c6.627417 0 12 .951394 12 2.125z" fill="url(#b)" opacity=".15"/><path d="m3.9731598 2.418054c-3.06939733 2.7636978-3.31880443 7.5226673-.5551057 10.592065 2.5367114 2.817304 6.7539529 3.25705 9.8031809 1.173438l3.056831 3.394952 1.486288-1.33826-3.056828-3.394953c2.390928-2.814725 2.394414-7.0548322-.142296-9.8721353-2.7637-3.06939872-7.5226701-3.31880521-10.5920702-.5551067zm1.3382605 1.4862903c2.2661496-2.0404501 5.7270667-1.8590708 7.7675167.4070774 2.040452 2.26615 1.859072 5.7270643-.407073 7.7675143-2.266154 2.04045-5.7270694 1.859073-7.7675204-.40708-2.0404502-2.2661457-1.8590712-5.7270631.4070781-7.767513z" fill="#8cd5ff"/><path d="m3.9731598 2.418054c-3.06939733 2.7636978-3.31880443 7.5226673-.5551057 10.592065 2.5367114 2.817304 6.7539529 3.25705 9.8031809 1.173438l3.056831 3.394952 1.486288-1.33826-3.056828-3.394953c2.390928-2.814725 2.394414-7.0548322-.142296-9.8721353-2.7637-3.06939872-7.5226701-3.31880521-10.5920702-.5551067zm1.3382605 1.4862903c2.2661496-2.0404501 5.7270667-1.8590708 7.7675167.4070774 2.040452 2.26615 1.859072 5.7270643-.407073 7.7675143-2.266154 2.04045-5.7270694 1.859073-7.7675204-.40708-2.0404502-2.2661457-1.8590712-5.7270631.4070781-7.767513z" fill="none" stroke="#002e99" stroke-linecap="round" stroke-linejoin="round" stroke-opacity=".5"/><rect fill="url(#c)" height="3" rx=".5" transform="matrix(.66913061 .74314483 -.74314483 .66913061 0 0)" width="8.5" x="21.705526" y="-2.83464"/><path d="m15.441632 16.649554 1.114736-1.003672 4.683912 5.202013" fill="none" opacity=".5" stroke="url(#a)"/><rect fill="none" height="3" rx=".5" stroke="#a76900" stroke-linejoin="round" stroke-opacity=".5" transform="matrix(.66913061 .74314483 -.74314483 .66913061 0 0)" width="8.5" x="21.705526" y="-2.83464"/><path d="m13.497273 7.8424002a4.5000005 4.5000005 0 1 1 -8.9945172.3140957 4.5000005 4.5000005 0 1 1 8.9945172-.3140957z" fill="url(#f)" fill-rule="evenodd" opacity=".2"/><path d="m9.294493 3.4884636a4.810543 4.8116191 88 0 0 -4.7808502 4.9797932 4.810543 4.8116191 88 0 0 .2125866 1.2406671 10.49573 10.498078 88 0 0 7.6568366-5.1195489 4.810543 4.8116191 88 0 0 -3.088573-1.1009114z" fill="url(#e)" fill-rule="evenodd" opacity=".15"/><path d="m15.478284 8.3314436c-.187882 3.5850554-3.246572 6.3390114-6.8312104 6.1511504-3.5849638-.187882-6.3388583-3.246499-6.1509752-6.8315174.187876-3.5848817 3.2463783-6.3385546 6.8313436-6.1506752 3.584635.1878634 6.338716 3.2461618 6.150842 6.8310422z" fill="none" opacity=".5" stroke="url(#d)" stroke-linecap="round" stroke-linejoin="round"/><g transform="translate(7.999882 7.794112)"><path d="m10.055367 8.2859519-7.9548099 6.1998461-2.1004393 1.72009h6l6.0682982-5.899103z" fill="#0c0c0c" fill-rule="evenodd" opacity=".15"/><g transform="matrix(1.030012 0 0 1.0325071 -.016773 -.521525)"><path d="m2.0488085 11.037368c.2865424-.207707 1.1479509.256388 1.9603385 1.061945.8104458.803629 1.2601996 1.641331 1.0575577 1.930575-.0007708.0011.01977.01774.01898.01882l10.1384643-10.1803301c.257408-.2584708-.213108-1.1436222-1.051287-1.9747519-.838177-.8311298-1.728181-1.29506029-1.98559-1.03658863z" fill="url(#g)"/><path d="m2.0488079 11.037368c.286543-.207708 1.1479512.256388 1.960339 1.061943.8104449.80363 1.2601992 1.641332 1.0575579 1.930577-.0007714.0011.01977.01774.01898.01882l6.9820302-7.0108637.02525-.025356c.00079-.00108-.01975-.01772-.01898-.01882.202643-.2892462-.247112-1.1269457-1.057555-1.9305752-.812389-.8055563-1.6737981-1.2696506-1.9603403-1.0619438l-.025251.025355z" fill="#f9c440" opacity=".6"/><g stroke-linejoin="round"><path d="m2.0488085 11.037368c.2865424-.207707 1.1479509.256388 1.9603385 1.061945.8104458.803629 1.2601996 1.641331 1.0575577 1.930575-.0007708.0011.01977.01774.01898.01882l10.1384643-10.1803301c.257408-.2584708-.213108-1.1436222-1.051287-1.9747519-.838177-.8311298-1.728181-1.29506029-1.98559-1.03658863z" fill="none" stroke="#ad5f00" stroke-width=".484844"/><path d="m20.664062 8.2617188c-.05213.010767-.09381.033047-.126953.066406l-3.224609 3.2460942c.296545-.211927 1.182133.265278 2.017578 1.095703.834766.829753 1.298569 1.695492 1.089844 1.99414-.000714.001.01475.01397.01758.01758l3.226562-3.246094c.265132-.266874-.218698-1.178963-1.082033-2.0371105-.755416-.750879-1.553081-1.2120851-1.917969-1.1367187z" fill="url(#h)" stroke="#555761" stroke-width=".5" transform="matrix(.97086248 0 0 .96851634 -7.75054 -7.208073)"/><path d="m10.565423 2.4840909c.286542-.2077065 1.147951.2563879 1.960338 1.0619443.810445.8036291 1.260199 1.6413295 1.057557 1.9305744-.000769.0011.01977.017738.01898.018821l1.551936-1.5571217c.408481-.40858-.029278-1.092821-.981372-2.0446829-.812386-.8055561-1.673796-1.2696511-1.960337-1.06194452l-.02525.0253559-1.621849 1.62705352z" fill="#fe9ab8" opacity=".9" stroke="#de3e80" stroke-width=".484844"/></g><path d="m9.1785348 3.8767048c.2865413-.2077068 1.1479522.2563879 1.9603392 1.0619443.810445.8036291 1.2602 1.6413294 1.057556 1.9305753-.000771.0011.01977.017736.01898.01882l.126256-.1267795c.00079-.00108-.01975-.01772-.01898-.01882.202645-.2892457-.24711-1.1269463-1.057556-1.9305745-.812387-.8055569-1.6737965-1.2696514-1.9603382-1.0619448z" fill="url(#i)"/><path d="m9.0628273 3.9928895c.2865436-.2077068 1.1479527.2563878 1.9603397 1.061944.810444.8036294 1.2602 1.6413292 1.057556 1.9305742-.000771.0011.01977.017738.01898.018822l.126257-.1267799c.00079-.00108-.01975-.017721-.01898-.018821.202643-.2892448-.24711-1.1269452-1.057557-1.9305743-.812387-.8055563-1.6737957-1.2696512-1.9603386-1.0619444z" fill="url(#k)"/><path d="m9.5806143 3.4729643c.2865426-.2077069 1.1479517.2563872 1.9603387 1.0619442.810446.803629 1.2602 1.6413292 1.057558 1.9305747-.000773.0011.01977.017737.01898.01882l.126258-.1267784c.000791-.00108-.01975-.017721-.01898-.01882.202642-.2892454-.247113-1.126946-1.057559-1.930575-.812386-.8055567-1.6737949-1.2696512-1.9603383-1.0619444z" fill="url(#m)"/><path d="m9.4649071 3.5891488c.2865435-.207707 1.1479529.2563877 1.9603379 1.061944.810447.8036298 1.260201 1.6413294 1.057558 1.9305748-.000769.0011.01977.017737.01898.018821l.126257-.12678c.00079-.00108-.01975-.01772-.01898-.01882.202645-.2892448-.247111-1.1269461-1.057556-1.9305739-.812386-.8055567-1.673796-1.2696517-1.9603395-1.0619447z" fill="url(#n)"/><path d="m9.9846388 3.0672723c.2865412-.2077066 1.1479512.2563878 1.9603372 1.0619445.810446.8036288 1.260201 1.641329 1.057558 1.9305741-.00077.0011.01977.017738.01898.018821l.126256-.1267791c.000792-.00108-.01975-.017721-.01898-.018821.202644-.2892444-.247111-1.126945-1.057557-1.9305744-.812385-.8055559-1.673795-1.2696505-1.960338-1.0619437z" fill="url(#o)"/><path d="m9.8689318 3.1834569c.2865412-.2077072 1.1479512.2563879 1.9603392 1.0619447.810444.8036283 1.260198 1.6413291 1.057556 1.9305739-.000771.0011.01977.017737.01898.018821l.126258-.1267782c.000789-.00108-.01975-.017722-.01898-.018821.202642-.2892458-.247113-1.1269461-1.057558-1.9305749-.812386-.8055564-1.673796-1.2696514-1.9603386-1.0619441z" fill="url(#p)"/><g fill-rule="evenodd" stroke-width=".484844"><path d="m.25980529 15.79419 4.77185621-1.725488.039308-.03926c.2026429-.28924-.2523964-1.127286-1.0628421-1.930916-.8123879-.805556-1.6726784-1.26728-1.9592212-1.059573z" fill="url(#q)" stroke="url(#r)"/><path d="m.7444326 14.506276-.48521185 1.282691 1.30137225-.473393c-.113686-.133135-.2192836-.267835-.3543579-.401773-.1555069-.154199-.30708012-.280667-.4618025-.407525z" fill="#333" stroke="#1a1a1a"/></g></g></g></svg>