<svg height="24" width="24" xmlns="http://www.w3.org/2000/svg" xmlns:xlink="http://www.w3.org/1999/xlink"><radialGradient id="a" cx="13" cy=".94" gradientTransform="matrix(-2.84165 0 0 -2.59455 49.94 3.438)" gradientUnits="userSpaceOnUse" r="8.094"><stop offset="0" stop-color="#737373"/><stop offset=".262" stop-color="#636363"/><stop offset=".705" stop-color="#4b4b4b"/><stop offset="1" stop-color="#3f3f3f"/></radialGradient><linearGradient id="b" gradientTransform="matrix(.49294 0 0 .51865 -1.792 -.03)" gradientUnits="userSpaceOnUse" x1="28.059" x2="33.437" y1="18.868" y2="23.743"><stop offset="0" stop-color="#6e3d09"/><stop offset=".242" stop-color="#ea8113"/><stop offset=".621" stop-color="#5c3307"/><stop offset="1" stop-color="#e07c12"/></linearGradient><linearGradient id="c" gradientTransform="matrix(.4925 0 0 .5272 -1.783 -.32)" gradientUnits="userSpaceOnUse" x1="20.251" x2="22.012" y1="29.811" y2="31.724"><stop offset="0" stop-color="#f2f2f2"/><stop offset="1" stop-color="#c3c3c3"/></linearGradient><radialGradient id="d" cx="15.415" cy="35.357" gradientTransform="matrix(.472 0 0 .475 -2.01 2.097)" gradientUnits="userSpaceOnUse" r="7.579"><stop offset="0" stop-color="#690808"/><stop offset="1" stop-color="#f462ea"/></radialGradient><linearGradient id="e"><stop offset="0"/><stop offset="1" stop-opacity="0"/></linearGradient><radialGradient id="f" cx="26.782" cy="42.343" gradientTransform="matrix(1 0 0 .282 0 30.394)" gradientUnits="userSpaceOnUse" r="14.407" xlink:href="#e"/><linearGradient id="g" gradientTransform="matrix(.518 0 0 .36 -1079.953 -1152.217)" gradientUnits="userSpaceOnUse" x1="2100.578" x2="2100.578" y1="3215.147" y2="3256.79"><stop offset="0" stop-color="#64baff"/><stop offset="1" stop-color="#3689e6"/></linearGradient><linearGradient id="h" gradientTransform="matrix(.29 0 0 .323 2.122 2.74)" gradientUnits="userSpaceOnUse" x1="29.556" x2="26.135" y1="28.447" y2="34.107"><stop offset="0" stop-color="#fff"/><stop offset=".004" stop-color="#fff" stop-opacity=".235"/><stop offset=".539" stop-color="#fff" stop-opacity=".157"/><stop offset="1" stop-color="#fff" stop-opacity=".392"/></linearGradient><linearGradient id="i" gradientUnits="userSpaceOnUse" x1="10.000742" x2="10.000742" y1="20.962546" y2="12.99235"><stop offset="0" stop-color="#fff"/><stop offset=".373" stop-color="#fff" stop-opacity=".235"/><stop offset=".75" stop-color="#fff" stop-opacity=".157"/><stop offset="1" stop-color="#fff" stop-opacity=".392"/></linearGradient><linearGradient id="j" gradientUnits="userSpaceOnUse" x1="8.848872" x2="8.848872" y1="11.921802" y2="22.075938"><stop offset="0" stop-color="#fff"/><stop offset=".5" stop-color="#fff" stop-opacity=".235"/><stop offset=".75" stop-color="#fff" stop-opacity=".157"/><stop offset="1" stop-color="#fff" stop-opacity=".392"/></linearGradient><radialGradient id="k" cx="22.571" cy="30.857" gradientTransform="matrix(.706 0 0 .136 -3.945 13.93)" gradientUnits="userSpaceOnUse" r="15.571" xlink:href="#e"/><g transform="translate(-3 -.967)"><ellipse cx="12" cy="18.11" fill="url(#k)" opacity=".2" rx="11" ry="2.89"/><path d="m15.3 13.7h-6.72l-1.156 2.9h-3.09l6.334-15.2h2.877l6.11 15.2h-3.235zm-5.92-2.3h5.046l-2.252-6.876z" style="stroke:#000;stroke-width:.866;stroke-linecap:round;stroke-linejoin:round;stroke-opacity:.581;fill:url(#a)"/></g><path d="m9.82 12.62 2.005 1.972c1.178-1.218 3.057-3.31 4.353-5.147l.085-4.152c-2.142 2.367-4.8 5.343-6.442 7.328z" fill="url(#b)" stroke="#673907" stroke-linecap="round" stroke-width=".743" transform="matrix(1.048 0 0 1.048 7.707 -.107)"/><path d="m5.413 18.464 1.272 1.162 5.355-4.94c-.216-.824-1.45-2.312-2.373-2.312l-4.253 6.09z" fill="url(#c)" stroke="#787a75" stroke-linecap="round" stroke-width=".749" transform="matrix(1.048 0 0 1.048 7.707 -.107)"/><path d="m1 21.977c3.135 0 5.514.386 5.965-1.97.363-1.898-2.165-2.808-3.417-1.113-1.208 1.632-2.548 3.083-2.548 3.083z" fill="url(#d)" transform="matrix(1.048 0 0 1.048 7.707 -.107)"/><path d="m41.19 42.343c0 2.245-6.45 4.066-14.408 4.066-7.957 0-14.407-1.82-14.407-4.07 0-2.245 6.45-4.066 14.407-4.066s14.407 1.82 14.407 4.066z" fill="url(#f)" opacity=".2" transform="matrix(.546 0 0 .516 .955 .073)"/><g transform="translate(9.02)"><path d="m8.5 8.5v2.02a6.5 6.5 0 0 0 -.5-.02 6.5 6.5 0 0 0 -6.5 6.5 6.5 6.5 0 0 0 6.5 6.5 6.5 6.5 0 0 0 6.48-6h-3.02a3.5 3.5 0 0 1 -3.46 3 3.5 3.5 0 0 1 -3.5-3.5 3.5 3.5 0 0 1 3.5-3.5 3.5 3.5 0 0 1 .5.04v1.96l5-3.5z" fill="url(#g)" opacity=".99"/><g fill="none"><path d="m8.5 8.5v2.02a6.5 6.5 0 0 0 -.5-.02 6.5 6.5 0 0 0 -6.5 6.5 6.5 6.5 0 0 0 6.5 6.5 6.5 6.5 0 0 0 6.48-6h-3.02a3.5 3.5 0 0 1 -3.46 3 3.5 3.5 0 0 1 -3.5-3.5 3.5 3.5 0 0 1 3.5-3.5 3.5 3.5 0 0 1 .5.04v1.96l5-3.5z" opacity=".5" stroke="#002e99" stroke-linecap="round" stroke-linejoin="round"/><path d="m9.496 13.578v-3.13l2.222 1.56z" opacity=".5" stroke="url(#h)" stroke-width=".992"/><path d="m12.32 18.176a4.49 4.49 0 0 1 -5.392 3.202 4.49 4.49 0 0 1 -3.33-5.315 4.49 4.49 0 0 1 5.232-3.458" opacity=".5" stroke="url(#i)" stroke-width=".992"/><ellipse cx="8" cy="17.212" opacity=".99" rx="4" ry="2.472"/><path d="m13.386 18.154a5.506 5.504 0 0 1 -6.446 4.246 5.506 5.504 0 0 1 -4.357-6.372 5.506 5.504 0 0 1 6.3-4.46" opacity=".5" stroke="url(#j)" stroke-width=".992"/></g></g></svg>