<svg height="24" viewBox="0 0 6.3499999 6.3500002" width="24" xmlns="http://www.w3.org/2000/svg" xmlns:xlink="http://www.w3.org/1999/xlink"><linearGradient id="a" gradientTransform="matrix(.00438363 0 0 .00217892 .400006 293.68757)" gradientUnits="userSpaceOnUse" x1="302.85715" x2="302.85715" y1="366.64789" y2="609.50507"><stop offset="0" stop-opacity="0"/><stop offset=".5"/><stop offset="1" stop-opacity="0"/></linearGradient><linearGradient id="b" gradientTransform="matrix(.07559506 0 0 .08048546 -4.996936 292.55595)" gradientUnits="userSpaceOnUse" x1="72.692543" x2="73.101372" y1="1.217758" y2="30.560207"><stop offset="0" stop-color="#f4f4f4"/><stop offset="1" stop-color="#dbdbdb"/></linearGradient><linearGradient id="c" gradientTransform="matrix(.06714751 0 0 .08070285 5.053555 291.51929)" gradientUnits="userSpaceOnUse" x1="-24.036209" x2="-25.057144" y1="43.323273" y2="13.641807"><stop offset="0" stop-opacity=".339506"/><stop offset="1" stop-opacity=".246914"/></linearGradient><radialGradient id="d" cx="605.71429" cy="486.64789" gradientTransform="matrix(-.00318786 0 0 .00217892 2.847236 293.68758)" gradientUnits="userSpaceOnUse" r="117.14286" xlink:href="#e"/><linearGradient id="e"><stop offset="0"/><stop offset="1" stop-opacity="0"/></linearGradient><radialGradient id="f" cx="605.71429" cy="486.64789" gradientTransform="matrix(.00318786 0 0 .00217892 1.121514 293.68755)" gradientUnits="userSpaceOnUse" r="117.14286" xlink:href="#e"/><linearGradient id="g" gradientTransform="matrix(0 .06435811 -.0929617 0 6.059884 292.27274)" gradientUnits="userSpaceOnUse" x1="11.666659" x2="32.222214" y1="35.384918" y2="35.384918"><stop offset="0" stop-color="#fff"/><stop offset=".03934082" stop-color="#fff" stop-opacity=".235294"/><stop offset="1" stop-color="#fff" stop-opacity=".156863"/><stop offset="1" stop-color="#fff" stop-opacity=".392157"/></linearGradient><g transform="translate(0 -290.64998)"><path d="m.92604166 294.48647h2.11666664v.52916h-2.11666664z" fill="url(#a)" opacity=".15" stroke-width=".181503"/><g stroke-width=".264583"><path d="m.94134993 294.75102-.0153083-2.11666h2.11666667v2.11666z" fill="url(#b)" stroke="url(#c)" stroke-linecap="round" stroke-linejoin="round"/><path d="m.92604166 294.4865v.52913c-.16416665.001-.39687497-.11855-.39687497-.2646s.1831975-.26453.39687497-.26453z" fill="url(#d)" opacity=".15"/><path d="m3.0427083 294.48647v.52913c.1641666.001.3968751-.11855.3968751-.2646s-.1831981-.26453-.3968751-.26453z" fill="url(#f)" opacity=".15"/></g><g fill="#fcaf3e" stroke="#ce5c00" stroke-linecap="round" stroke-linejoin="round" transform="matrix(.26458333 0 0 .26458333 0 290.64998)"><path d="m17.197224 17.5-3 3h6z"/><path d="m17.287637 6.5-3-3h6z"/></g><path d="m1.190625 292.89894h1.5875001v1.57332h-1.5875001z" fill="none" stroke="url(#g)" stroke-width=".264583"/></g></svg>