<svg height="24" width="24" xmlns="http://www.w3.org/2000/svg" xmlns:xlink="http://www.w3.org/1999/xlink"><linearGradient id="a" gradientTransform="matrix(.44576989 0 0 .44993664 .801525 -.024539)" gradientUnits="userSpaceOnUse" x1="40.824818" x2="40.824818" y1="41.17144" y2="50.061581"><stop offset="0" stop-color="#fafafa"/><stop offset="1" stop-color="#e2e1de"/></linearGradient><linearGradient id="b" gradientTransform="translate(0 1)" gradientUnits="userSpaceOnUse" x1="4" x2="4" y1="3" y2="4"><stop offset="0" stop-color="#fff"/><stop offset="0" stop-color="#fff" stop-opacity=".235294"/><stop offset="1" stop-color="#fff" stop-opacity=".156863"/><stop offset="1" stop-color="#fff" stop-opacity=".392157"/></linearGradient><linearGradient id="c" gradientTransform="translate(0 8.000003)" gradientUnits="userSpaceOnUse" x1="4" x2="4" xlink:href="#b" y1="3" y2="4"/><linearGradient id="d" gradientTransform="translate(0 15.000003)" gradientUnits="userSpaceOnUse" x1="4" x2="4" xlink:href="#b" y1="3" y2="4"/><linearGradient id="e" gradientTransform="translate(15 8.000003)" gradientUnits="userSpaceOnUse" x1="4" x2="4" xlink:href="#b" y1="3" y2="4"/><g transform="translate(-15 -2)"><rect fill="url(#a)" height="4" rx=".527778" ry=".555556" width="5" x="16.5" y="18.5"/><path d="m16.5 18.5h5v4h-5z" fill="none" stroke="#575757" stroke-linecap="square" stroke-linejoin="round" stroke-opacity=".529412"/></g><g transform="translate(-15 -9)"><rect fill="url(#a)" height="4" rx=".527778" ry=".555556" width="5" x="16.5" y="18.5"/><path d="m16.5 18.5h5v4h-5z" fill="none" stroke="#575757" stroke-linecap="square" stroke-linejoin="round" stroke-opacity=".529412"/></g><g transform="translate(-15 -16)"><rect fill="url(#a)" height="4" rx=".527778" ry=".555556" width="5" x="16.5" y="18.5"/><path d="m16.5 18.5h5v4h-5z" fill="none" stroke="#575757" stroke-linecap="square" stroke-linejoin="round" stroke-opacity=".529412"/></g><g transform="matrix(1 0 0 -1 .730079 34.40901)"><path d="m10.403806 21.939339 4.596194 1.060661-1.060661-4.596194z" fill="#cc3b02" fill-rule="evenodd"/><path d="m6.5251263 14.525126 6.4748737 6.474874" fill="none" stroke="#cc3b02"/></g><g transform="translate(.730079 -10.762563)"><path d="m10.403806 21.939339 4.596194 1.060661-1.060661-4.596194z" fill="#cc3b02" fill-rule="evenodd"/><path d="m6.5251263 14.525126 6.4748737 6.474874" fill="none" stroke="#cc3b02"/></g><g transform="translate(0 -9)"><rect fill="url(#a)" height="4" rx=".527778" ry=".555556" width="5" x="16.5" y="18.5"/><path d="m16.5 18.5h5v4h-5z" fill="none" stroke="#575757" stroke-linecap="square" stroke-linejoin="round" stroke-opacity=".529412"/></g><g fill="none" stroke-linecap="round" stroke-linejoin="round"><path d="m2.5 3.499997h3v2.000003h-3z" stroke="url(#b)"/><path d="m2.5 10.5h3v2.000003h-3z" stroke="url(#c)"/><path d="m2.5 17.5h3v2.000003h-3z" stroke="url(#d)"/><path d="m17.5 10.5h3v2.000003h-3z" stroke="url(#e)"/></g></svg>