<svg height="24" width="24" xmlns="http://www.w3.org/2000/svg" xmlns:xlink="http://www.w3.org/1999/xlink"><linearGradient id="a" gradientTransform="matrix(.40540511 0 0 .51351351 3.278675 -.31533)" gradientUnits="userSpaceOnUse" x1="36.334797" x2="36.334797" y1="6.473674" y2="8.421042"><stop offset="0" stop-color="#fff"/><stop offset="0" stop-color="#fff" stop-opacity=".235294"/><stop offset="1" stop-color="#fff" stop-opacity=".156863"/><stop offset="1" stop-color="#fff" stop-opacity=".392157"/></linearGradient><linearGradient id="b" gradientUnits="userSpaceOnUse" x1="18" x2="18" y1="2" y2="6"><stop offset="0" stop-color="#ffa154"/><stop offset="1" stop-color="#f37329"/></linearGradient><linearGradient id="c" gradientTransform="matrix(0 -.98294772 1.0173481 0 -38.008674 23.008526)" gradientUnits="userSpaceOnUse" x1="18.312265" x2="-5.255175" y1="14.744216" y2="15.096445"><stop offset="0" stop-color="#737373"/><stop offset=".262" stop-color="#636363"/><stop offset=".705" stop-color="#4b4b4b"/><stop offset="1" stop-color="#3f3f3f"/></linearGradient><linearGradient id="d" gradientTransform="matrix(.68058746 0 0 .70440603 40.788047 5.474433)" gradientUnits="userSpaceOnUse" x1="-32.692204" x2="-32.692204" xlink:href="#c" y1="3.563357" y2="23.438257"/><linearGradient id="e" gradientTransform="translate(-.01387 .204693)" gradientUnits="userSpaceOnUse" x1="8" x2="8" xlink:href="#c" y1="3" y2="25"/><g transform="translate(0 2)"><path d="m16.345191 9.3477566h2.798801q1.913027 0 2.774196.5666171.867321.5602503.867321 1.7889823 0 .83401-.381376 1.368794-.375224.534786-1.002647.643016v.06367q.855019.19736 1.230244.738512.381374.541151.381374 1.438825 0 1.273297-.891926 1.986344-.885775.713046-2.411274.713046h-3.364713zm1.906876 3.6861954h1.107217q.775053 0 1.119521-.248293.350618-.248293.350618-.821277 0-.534784-.381375-.763978-.375223-.23556-1.193334-.23556h-1.002647zm0 1.566155v2.425631h1.242544q.787355 0 1.162579-.311958.375224-.311957.375224-.954973 0-1.1587-1.599315-1.1587z" style="stroke:#000;stroke-width:.692199;stroke-linecap:round;stroke-linejoin:round;stroke-opacity:.490196;fill:url(#d)"/><path d="m16.344783 9.3477638v1.0000002h2.798828c1.275351 0 2.201278.188662 2.77539.566407.454382.293509.723.73011.820313 1.298828.02719-.160486.04687-.32795.04687-.509766 0-.819155-.288974-1.415563-.867188-1.7890622-.574107-.3777451-1.500034-.566407-2.775385-.566407zm4.376953 3.1425782c-.05796.120106-.135848.219617-.242188.294922-.229645.165529-.604392.248047-1.121094.248047h-1.105467v1h1.105467c.516702 0 .89145-.08252 1.121094-.248047.233746-.165528.34961-.438323.34961-.820312 0-.18658-.03779-.343826-.107422-.47461zm1.583984 1.697266c-.237882.283693-.536222.463851-.904297.527344v.06445c.570012.131573.98032.377513 1.230469.738281.17373.246513.282871.552669.337891.910156.02276-.151764.04297-.304645.04297-.470703 0-.598449-.126609-1.078686-.380859-1.439453-.087-.125476-.200476-.232327-.326172-.330078zm-1.359375 2.105469c-.06238.169869-.157818.310807-.289062.419922-.25015.207972-.637206.3125-1.16211.3125h-1.242187v1h1.242187c.524904 0 .91196-.104528 1.16211-.3125.250149-.207972.375-.526401.375-.955078 0-.176138-.0305-.328869-.08594-.464844z" fill="#fff" opacity=".1"/><path d="m11.429971 18.5-.97432-3.310658h-4.8991781l-.9743206 3.310658h-3.070029l4.742919-13.9656521h3.4836557l4.761302 13.9656521zm-1.6545062-5.784139q-1.3511804-4.4998323-1.5258228-5.0896623-.1654506-.58983-.2389843-.932312-.3033262 1.2177136-1.737232 6.0219743z" style="stroke:#000;stroke-width:1.034348;stroke-linecap:round;stroke-linejoin:round;stroke-opacity:.490196;fill:url(#e)"/><path d="m6.2558594 6.5351562-4.7441406 13.9648438h.3398437l4.4042969-12.9648438h3.4824218l4.4199218 12.9648438h.341797l-4.7617188-13.9648438zm.3066406 8.1816408c-.1379538.465913-.1303258.468157-.2890625 1h3.5019531c-.1769352-.589247-.152155-.511324-.2988281-1z" fill="#fff" opacity=".1" transform="translate(0 -2)"/><path d="m18 6-4.5-4.5h9z" fill="url(#b)" stroke="#a62100" stroke-linecap="round" stroke-linejoin="round" stroke-opacity=".501961"/><path d="m18.008988 4.6168524-2.099443-2.1168524h4.180909z" fill="none" opacity=".5" stroke="url(#a)" stroke-linecap="square"/></g></svg>