<svg viewBox="0 0 24 24" xmlns="http://www.w3.org/2000/svg" xmlns:xlink="http://www.w3.org/1999/xlink"><radialGradient id="a" cx="65.297462" cy="48.216358" gradientTransform="matrix(0 .38212918 -.4161614 0 32.170797 -18.821396)" gradientUnits="userSpaceOnUse" r="31.000002"><stop offset="0" stop-color="#d1ff82"/><stop offset=".26238" stop-color="#9bdb4d"/><stop offset=".66093999" stop-color="#68b723"/><stop offset="1" stop-color="#3a9104"/></radialGradient><linearGradient id="b" gradientTransform="matrix(.20515598 0 0 .20369724 7.420038 5.278451)" gradientUnits="userSpaceOnUse" x1="24.138529" x2="24.138529" y1="10.631441" y2="35.62291"><stop offset="0" stop-color="#fff"/><stop offset=".00000002" stop-color="#fff" stop-opacity=".235294"/><stop offset="1" stop-color="#fff" stop-opacity=".156863"/><stop offset="1" stop-color="#fff" stop-opacity=".392157"/></linearGradient><linearGradient id="c" gradientTransform="matrix(.20515598 0 0 .20369724 7.407064 5.283756)" gradientUnits="userSpaceOnUse" x1="24.138529" x2="24.138529" y1="21.34207" y2="24.912279"><stop offset="0" stop-color="#fff"/><stop offset=".00000019" stop-color="#fff" stop-opacity=".235294"/><stop offset="1" stop-color="#fff" stop-opacity=".156863"/><stop offset="1" stop-color="#fff" stop-opacity=".392157"/></linearGradient><g transform="matrix(-1 0 0 1 31.992194 0)"><g fill="#fff" fill-opacity=".977941" stroke-width="1.33333"><rect height="2" opacity=".35" ry=".5" width="10" x="9" y="7.999997"/><rect height="2" opacity=".35" ry=".5" width="10" x="9" y="16"/><rect height="2" opacity=".35" ry=".5" width="12.992194" x="9" y="4"/><rect height="2" opacity=".35" ry=".5" width="12.992194" x="9" y="12"/></g><g fill-opacity=".658824"><path d="m9.5 7.0000004c-.2761309.0000276-.4999724.2238691-.5.5v.9980469.00195c.0000257.2768954.2250597.5010538.5019531.5 2.9994899-.01 5.9975379.0099947 8.9980469.0000027.275368-.001103.498021-.2246296.498047-.4999996l.001953-1.0000031c-.000028-.2761309-.223869-.4999724-.5-.5h-9z"/><path d="m9.5 11 .00781.0078c-.00976-.000286-.019533-.000286-.029297 0-.016982.000437-.033931.0017-.050781.0039-.032662.0053-.06472.01378-.095703.02539-.078696.02775-.1491968.07475-.2050781.136719-.011062.01249-.021491.02553-.03125.03906-.00984.01385-.018965.02819-.027344.04297-.00851.01393-.016331.02827-.023437.04297-.00664.01532-.012505.03096-.017578.04687-.01107.03168-.018923.0644-.023438.09766-.00237.0188-.00367.03772-.0039.05666v.998047.002c.0000257.276895.2250597.501054.5019531.5 4.332979-.01 7.65655.01 11.990237-.000046.275368-.0011.498022-.22463.498047-.500001v-.974609c-.000028-.276131-.223869-.499972-.5-.5l-11.9902371-.025344z"/><path d="m9.5 15 .00781.0078c-.00976-.000286-.019533-.000286-.029297 0-.016982.000437-.033931.0017-.050781.0039-.032662.0053-.06472.01378-.095703.02539-.078696.02775-.1491968.07475-.2050781.136719-.011062.01249-.021491.02553-.03125.03906-.00984.01385-.018965.02819-.027344.04297-.00851.01393-.016331.02827-.023437.04297-.00664.01532-.012505.03096-.017578.04687-.01107.03168-.018923.0644-.023438.09766-.00237.0188-.00367.03771-.0039.05666v.998047.002c.0000257.276895.2250597.501054.5019531.5 2.99949-.01 5.997534.0099 8.998043-.000046.275368-.0011.498022-.22463.498047-.500001l.002-.999953c-.000028-.276131-.223869-.499972-.5-.5h-9.0000431z"/></g><rect fill="#fff" fill-opacity=".977941" height="2.007799" opacity=".35" ry=".5" stroke-width="1.33333" width="13.000004" x="8.99219" y="19.992201"/><g fill-opacity=".658824"><path d="m9.49219 18.9922.00781.0078c-.00976-.000286-.019533-.000286-.029297 0-.016982.000437-.033931.0017-.050781.0039-.032662.0053-.06472.01378-.095703.02539-.078696.02775-.1491968.07475-.2050781.136719-.011062.01249-.021491.02553-.03125.03906-.00984.01385-.018965.02819-.027344.04297-.00851.01393-.016331.02827-.023437.04297-.00664.01532-.012505.03096-.017578.04687-.01107.03168-.018923.0644-.023438.09766-.00237.0188-.00367.03772-.0039.05666v.998047.002c.0000257.276895.2250597.501054.5019531.5 4.332979-.01 7.66436.01775 11.998047.0078.275368-.0011.498022-.22463.498047-.500001v-.974655c-.000028-.276131-.223869-.499972-.5-.5l-11.9980471-.033144z"/><path d="m9.49219 2.9922.00781.0078c-.00976-.0002861-.019533-.0002861-.029297 0-.016982.0004366-.033931.00174-.050781.0039-.032662.00528-.06472.013781-.095703.02539-.078696.027748-.1491968.074749-.2050781.136719-.011062.012491-.021491.025527-.03125.03906-.00984.01385-.018965.028192-.027344.04297-.00851.013932-.016331.028273-.023437.04297-.00664.01532-.012505.030963-.017578.04687-.01107.031684-.018923.064403-.023438.09766-.00237.018798-.00367.037715-.0039.05666v.998047.002c.0000257.2768954.2250597.5010538.5019531.5 4.332979-.01 7.66436.017754 11.998047.007754.275368-.001103.498022-.2246305.498047-.500001v-.974609c-.000028-.2761309-.223869-.4999724-.5-.5l-11.9980471-.033144z"/></g></g><g transform="translate(-7.023894 2.158458)"><path d="m10.525424 8.3538136v-2h3l-.000516 2.0062978 2.02987-.00934-.02935 3.0030426h-2v2h-3v-2h-2.0000043l-.00153-3.0122719z" fill="url(#a)"/><g fill="none"><path d="m11.525424 9.8538136v-2.5h1v2.5m0 0v2.5000004h-1v-2.5000004" opacity=".5" stroke="url(#b)"/><path d="m13.025424 9.3538136h1.5v1.0000004h-1.5m-2 0h-1.5000003v-1.0000004h1.5000003" opacity=".5" stroke="url(#c)"/><path d="m10.522896 8.3646014.0037-2.0097959 3.002012-.00449-.0037 2.0097959h2.006128l.000516 2.9937026h-2.006128l.0073 1.995421-3.002013.0045-.0053-1.999921h-1.9999873l-.00153-3.0122723z" opacity=".5" stroke="#206b00" stroke-linecap="round" stroke-linejoin="round"/></g></g></svg>