<svg viewBox="0 0 24 24" xmlns="http://www.w3.org/2000/svg" xmlns:xlink="http://www.w3.org/1999/xlink"><linearGradient id="a" gradientTransform="matrix(.0352071 0 0 .0082353 -.724852 18.980547)" gradientUnits="userSpaceOnUse" x1="302.85715" x2="302.85715" y1="366.64789" y2="609.50507"><stop offset="0" stop-opacity="0"/><stop offset=".5"/><stop offset="1" stop-opacity="0"/></linearGradient><radialGradient id="b" cx="605.71429" cy="486.64789" gradientTransform="matrix(-.01204859 0 0 .0082353 10.761206 18.980564)" gradientUnits="userSpaceOnUse" r="117.14286" xlink:href="#c"/><linearGradient id="c"><stop offset="0"/><stop offset="1" stop-opacity="0"/></linearGradient><radialGradient id="d" cx="605.71429" cy="486.64789" gradientTransform="matrix(.01204859 0 0 .0082353 13.238793 18.980564)" gradientUnits="userSpaceOnUse" r="117.14286" xlink:href="#c"/><linearGradient id="e" gradientTransform="matrix(.48571543 0 0 .45629666 8.342829 .348862)" gradientUnits="userSpaceOnUse" x1="25.132275" x2="25.132275" xlink:href="#f" y1=".985206" y2="47.013336"/><linearGradient id="f"><stop offset="0" stop-color="#f4f4f4"/><stop offset="1" stop-color="#dbdbdb"/></linearGradient><linearGradient id="g" gradientTransform="matrix(.40540511 0 0 .51351351 10.269687 -.324319)" gradientUnits="userSpaceOnUse" x1="23.99999" x2="23.99999" xlink:href="#h" y1="6.473675" y2="41.526306"/><linearGradient id="h"><stop offset="0" stop-color="#fff"/><stop offset="0" stop-color="#fff" stop-opacity=".235294"/><stop offset="1" stop-color="#fff" stop-opacity=".156863"/><stop offset="1" stop-color="#fff" stop-opacity=".392157"/></linearGradient><linearGradient id="i" gradientTransform="matrix(.40540511 0 0 .51351351 -7.730313 -.324319)" gradientUnits="userSpaceOnUse" x1="23.99999" x2="23.99999" xlink:href="#h" y1="6.473675" y2="41.526306"/><linearGradient id="j" gradientTransform="matrix(.48571543 0 0 .45629666 -9.657171 .348862)" gradientUnits="userSpaceOnUse" x1="25.132275" x2="25.132275" xlink:href="#f" y1=".985206" y2="47.013336"/><g transform="translate(1)"><g transform="translate(8)"><path d="m3.500001 22h16.999998v2h-16.999998z" fill="url(#a)" opacity=".15"/><path d="m3.4999999 22.000085v1.999891c-.6204724.0038-1.4999999-.448075-1.4999999-1.000075 0-.551999.6924-.999816 1.4999999-.999816z" fill="url(#b)" opacity=".15"/><path d="m20.5 22.000085v1.999891c.620472.0038 1.5-.448075 1.5-1.000075 0-.551999-.692402-.999816-1.5-.999816z" fill="url(#d)" opacity=".15"/></g><path d="m11.49996 1.499957c3.895581 0 17.000059.0014 17.000059.0014l.000021 20.998716s-11.333386 0-17.00008 0c0-7.000018 0-14.000035 0-21.000054z" fill="url(#e)"/><path d="m27.5 21.5h-15v-19h15z" fill="none" stroke="url(#g)" stroke-linecap="round"/><path d="m11.446028 1.48198c3.895581 0 17.000059.0014 17.000059.0014l.000021 20.998716s-11.333386 0-17.00008 0c0-7.000018 0-14.000035 0-21.000054z" fill="none" opacity=".3" stroke="#000" stroke-linejoin="round" stroke-width=".999922"/><g transform="translate(-10)"><path d="m3.500001 22h16.999998v2h-16.999998z" fill="url(#a)" opacity=".15"/><path d="m3.4999999 22.000085v1.999891c-.6204724.0038-1.4999999-.448075-1.4999999-1.000075 0-.551999.6924-.999816 1.4999999-.999816z" fill="url(#b)" opacity=".15"/><path d="m20.5 22.000085v1.999891c.620472.0038 1.5-.448075 1.5-1.000075 0-.551999-.692402-.999816-1.5-.999816z" fill="url(#d)" opacity=".15"/></g><path d="m-6.50004 1.4999569c3.895581 0 17.000059.0014 17.000059.0014l.000021 20.9987161s-11.333386 0-17.00008 0c0-7.000018 0-14.0000351 0-21.0000541z" fill="url(#j)"/><path d="m9.5 21.5h-15v-19.0000001h15z" fill="none" stroke="url(#i)" stroke-linecap="round"/><path d="m-6.553972 1.4819799c3.895581 0 17.000059.0014 17.000059.0014l.000021 20.9987161s-11.333386 0-17.00008 0c0-7.000018 0-14.0000351 0-21.0000541z" fill="none" opacity=".3" stroke="#000" stroke-linejoin="round" stroke-width=".999922"/></g></svg>