<svg height="24" width="24" xmlns="http://www.w3.org/2000/svg" xmlns:xlink="http://www.w3.org/1999/xlink"><linearGradient id="a" gradientTransform="matrix(1.0080891 0 0 1.0000217 -4.038 2.999761)" gradientUnits="userSpaceOnUse" x1="4.419417" x2="20.01996" y1="3.52262" y2="3.52262"><stop offset="0" stop-color="#888a85"/><stop offset="1" stop-color="#888a85" stop-opacity="0"/></linearGradient><radialGradient id="b" cx="1110.5" cy="1543" gradientTransform="matrix(1.3323351 0 0 .9601284 -1471.5547 -1471.5679)" gradientUnits="userSpaceOnUse" r="6.14121"><stop offset="0" stop-color="#fff"/><stop offset=".55299991" stop-color="#fff"/><stop offset="1" stop-color="#a2a2a2"/></radialGradient><linearGradient id="c"><stop offset="0"/><stop offset="1" stop-opacity="0"/></linearGradient><linearGradient id="d" gradientUnits="userSpaceOnUse" x1="1.006025" x2="16.000223" xlink:href="#c" y1="9.534337" y2="9.534337"/><radialGradient id="e" cx="62.625" cy="4.625" gradientTransform="matrix(.76091728 0 0 .19022902 -39.567475 19.101329)" gradientUnits="userSpaceOnUse" r="10.625" xlink:href="#c"/><linearGradient id="f" gradientTransform="matrix(.40540511 0 0 .46216215 2.269687 .858112)" gradientUnits="userSpaceOnUse" x1="23.99999" x2="23.99999" y1="2.787236" y2="43"><stop offset="0" stop-color="#fff"/><stop offset=".03626217" stop-color="#fff" stop-opacity=".235294"/><stop offset=".95056331" stop-color="#fff" stop-opacity=".156863"/><stop offset="1" stop-color="#fff" stop-opacity=".392157"/></linearGradient><linearGradient id="g" gradientTransform="matrix(.48571543 0 0 .41480329 .342829 1.363181)" gradientUnits="userSpaceOnUse" x1="25.132275" x2="25.132275" y1="-3.71906" y2="47.013336"><stop offset="0" stop-color="#f4f4f4"/><stop offset="1" stop-color="#dbdbdb"/></linearGradient><linearGradient id="h" gradientTransform="matrix(.39221364 0 0 .38819409 29.199296 .900891)" gradientUnits="userSpaceOnUse" x1="-51.786404" x2="-51.786404" y1="50.786446" y2="2.906247"><stop offset="0" stop-color="#a0a0a0"/><stop offset="1" stop-color="#bebebe"/></linearGradient><radialGradient id="i" cx="605.71429" cy="486.64789" gradientTransform="matrix(.01204859 0 0 .0082353 13.238793 17.980564)" gradientUnits="userSpaceOnUse" r="117.14286" xlink:href="#j"/><linearGradient id="j" xlink:href="#c"/><radialGradient id="k" cx="605.71429" cy="486.64789" gradientTransform="matrix(-.01204859 0 0 .0082353 10.761206 17.980564)" gradientUnits="userSpaceOnUse" r="117.14286" xlink:href="#j"/><linearGradient id="l" gradientTransform="matrix(.0352071 0 0 .0082353 -.724852 17.980547)" gradientUnits="userSpaceOnUse" x1="302.85715" x2="302.85715" y1="366.64789" y2="609.50507"><stop offset="0" stop-opacity="0"/><stop offset=".5"/><stop offset="1" stop-opacity="0"/></linearGradient><path d="m3.500001 21h16.999998v2h-16.999998z" fill="url(#l)" opacity=".15"/><path d="m3.4999999 21.000085v1.999891c-.6204724.0038-1.4999999-.448075-1.4999999-1.000075 0-.551999.6924-.999816 1.4999999-.999816z" fill="url(#k)" opacity=".15"/><path d="m20.5 21.000085v1.999891c.620472.0038 1.5-.448075 1.5-1.000075 0-.551999-.692402-.999816-1.5-.999816z" fill="url(#i)" opacity=".15"/><path d="m3.4999601 1.4999569c3.8955809 0 17.0000589.00124 17.0000589.00124l.000021 19.9988401s-11.3333862 0-17.0000799 0c0-6.363471 0-13.6365848 0-20.0000562z" fill="url(#g)" stroke="url(#h)" stroke-linejoin="round" stroke-width=".999922"/><g fill="none"><path d="m19.5 20.5h-15.0000004v-18h15.0000004z" stroke="url(#f)" stroke-linecap="round"/><path d="m6 4.5050064h2.34375zm5.21875 0h1.9375zm2.25 0h.84375zm-3.40625 2h1.75zm2.0625 0h.875zm1.21875 0h1.59375zm1.9375 0h1.625zm-9.28125 2.0300479h1.59375zm2.09375 0h5.90625zm-2.09375 2.9649457h3.09375zm3.40625 0h5.0625zm5.375 0h2.46875zm-8.78125 2h2.34375zm2.6875 0h2.15625zm2.53125 0h1.9375zm2.25 0h.84375zm1.1875 0h1.875zm-8.65625 3h3.09375zm3.40625 0h5.0625zm5.375 0h2.46875zm-8.78125 2h3.875zm4.21875 0h1.75z" stroke="#aaa"/><path d="m12.13125 6.5050061h.875zm-4.03125 2.0300479h5.90625zm6.6875 2.964946h2.46875zm-6.09375 2h2.15625z" stroke="#e20000"/></g><g fill="#e20000"><path d="m6 6h3.673729v1h-3.673729z"/><path d="m8.611123 4h2.25615v1h-2.25615z"/><path d="m12.279661 18h3.597458v1h-3.597458z"/></g><g transform="translate(7.999776 1.997674)"><g transform="translate(0 -1)"><g fill-rule="evenodd" transform="translate(0 8)"><path d="m1.6311977 10.044215-1.2140423-.5314124c.9355638-5.9221279 6.9649974-9.81131271 15.4743956-2.6074566l-.148677 3.105767v.024c-2.3001-1.9558412-4.28185-4.4661954-8.3626394-4.4661954-4.6845799.0620013-5.4152457 3.6123781-5.7451002 4.4751964z" fill="url(#a)"/><path d="m15.497906 10.035214c-2.197549 2.805361-4.840524 3.464775-7.4943994 3.464775-2.6539763 0-5.9811868-.45581-6.4951461-3.464775.5575631-2.7513595 1.9987083-4.4348957 5.7001846-4.4661968 4.0448559-.0340007 6.0093479 2.5103543 8.2893609 4.4661968z" style="stroke-width:1.004673;stroke-linejoin:round;stroke-dashoffset:.6;stroke-opacity:.658824;fill:url(#b);stroke:url(#d)"/><ellipse cx="7.320361" cy="9.525049" fill="#64baff" fill-opacity=".984314" rx="3.161734" ry="3.136432" stroke="#0d52bf" stroke-width=".669784"/><ellipse cx="7.050984" cy="8.801107" fill="#0d52bf" rx="2.016211" ry="1.800021"/><ellipse cx="6.546961" cy="8.400906" fill="#d7e4f1" rx="1.008172" ry=".800054"/></g><path d="m.49911436 17.499903c.89458434-5.925929 7.65508724-10.9231368 15.03926664-2.609057" fill="none" stroke="#8c8c8c" stroke-width="1.004673"/></g><path d="m16.169716 19.98114c0 1.116301-3.619676 2.021186-8.0847463 2.021186-4.4650706 0-8.0847461-.904818-8.0847461-2.021186 0-1.116369 3.6196755-2.021187 8.0847461-2.021187 4.4650703 0 8.0847463.904885 8.0847463 2.021187z" fill="url(#e)" fill-rule="evenodd" opacity=".3" stroke-width=".673729"/></g></svg>