<svg height="24" viewBox="0 0 6.3499999 6.3500002" width="24" xmlns="http://www.w3.org/2000/svg" xmlns:xlink="http://www.w3.org/1999/xlink"><radialGradient id="a" cx="4.992979" cy="43.5" gradientTransform="matrix(2.003784 0 0 1.4 22.538131 -12.73336)" gradientUnits="userSpaceOnUse" r="2.5" xlink:href="#b"/><linearGradient id="b"><stop offset="0" stop-color="#181818"/><stop offset="1" stop-color="#181818" stop-opacity="0"/></linearGradient><radialGradient id="c" cx="4.992979" cy="43.5" gradientTransform="matrix(-2.003784 0 0 -1.4 19.76187 109.06664)" gradientUnits="userSpaceOnUse" r="2.5" xlink:href="#b"/><linearGradient id="d" gradientUnits="userSpaceOnUse" x1="25.058096" x2="25.058096" y1="51.694397" y2="44.666111"><stop offset="0" stop-color="#181818" stop-opacity="0"/><stop offset=".5" stop-color="#181818"/><stop offset="1" stop-color="#181818" stop-opacity="0"/></linearGradient><linearGradient id="e" gradientUnits="userSpaceOnUse" x1="12.023446" x2="12.023446" y1="4.023446" y2="21.023445"><stop offset="0" stop-color="#cd9ef7"/><stop offset="1" stop-color="#a56de2"/></linearGradient><linearGradient id="f" gradientTransform="matrix(.24324324 0 0 .35135133 2.162164 18.585549)" gradientUnits="userSpaceOnUse" x1="26.151932" x2="26.151932" y1="-35.753685" y2="1.246319"><stop offset="0" stop-color="#fff"/><stop offset=".22222215" stop-color="#fff" stop-opacity=".235294"/><stop offset="1" stop-color="#fff" stop-opacity=".156863"/><stop offset="1" stop-color="#fff" stop-opacity=".392157"/></linearGradient><g opacity=".4" transform="matrix(.13925438 0 0 .11339283 -.167105 -.037793)"><path d="m32.550001 44.66664h5v7h-5z" fill="url(#a)"/><path d="m9.7500003 51.666642h-5v-7h5z" fill="url(#c)"/><path d="m9.7500003 44.66664 22.8000007.000001v7.000001l-22.8000007-.000001z" fill="url(#d)"/></g><g transform="matrix(.26458333 0 0 .26458333 -.006203 -.006203)"><path d="m7.529227 4.529227c-1.1079906.00656-2 .8919904-2 2v10c-1.104569 0-2 .8954-2 2s.8719866 1.994217 1.9765556 1.994217h10.0000004c1.10801 0 2.023444-.886207 2.023444-1.994217v-1-9c1.104569 0 2-.8954 2-2s-.895449-1.9937583-2-2l-1.023444-.00578h-1z" fill="url(#e)" stroke="#7239b3" stroke-opacity=".501961"/><path d="m15.505859 5.5292969-7.9707028.00586c-.5753758.00341-1 .4259421-1 .9941407v9.9999994l-.00593.99993-.9999301.0059c-.5610183 0-.9941406.433095-.9941407.994141 0 .575273.4294968 1.00062.9940714.999959l9.9766312-.01168c.571757-.000669 1.017578-.434254 1.017579-.988281v-1-9.0000001l.0058-1.0000699 1.00007-.00579c.561018 0 .994141-.4330949.994141-.9941406 0-.5610348-.426344-.9968315-.994221-1.0000406l-1.025311.0000399z" fill="none" opacity=".5" stroke="url(#f)"/></g></svg>