<svg viewBox="0 0 24 24" xmlns="http://www.w3.org/2000/svg" xmlns:xlink="http://www.w3.org/1999/xlink"><linearGradient id="a" gradientUnits="userSpaceOnUse" x1="46.985" x2="46.985" y1="10" y2="23"><stop offset="0" stop-color="#c6262e"/><stop offset="1" stop-color="#b5232a"/></linearGradient><linearGradient id="b" gradientTransform="matrix(0 -.59172 -.63517 0 9.814 30.722)" gradientUnits="userSpaceOnUse" x1="46.985" x2="46.985" y1="11.47" y2="20"><stop offset="0" stop-color="#fff"/><stop offset=".125" stop-color="#fff" stop-opacity=".235"/><stop offset=".939" stop-color="#fff" stop-opacity=".157"/><stop offset="1" stop-color="#fff" stop-opacity=".392"/></linearGradient><linearGradient id="c" gradientTransform="matrix(1.29412 0 0 1.00005 1.706 1.98)" gradientUnits="userSpaceOnUse" x1="-16" x2="-11.806" xlink:href="#d" y1="423.455" y2="423.455"/><linearGradient id="d"><stop offset="0" stop-color="#555753" stop-opacity="0"/><stop offset=".2" stop-color="#555753"/><stop offset=".8" stop-color="#555753"/><stop offset="1" stop-color="#555753" stop-opacity="0"/></linearGradient><linearGradient id="e" gradientTransform="matrix(1.29412 0 0 1 1.706 2)" gradientUnits="userSpaceOnUse" x1="-16" x2="-11.467" xlink:href="#f" y1="423.586" y2="423.586"/><linearGradient id="f"><stop offset="0" stop-color="#babdb6" stop-opacity="0"/><stop offset=".2" stop-color="#babdb6"/><stop offset=".844" stop-color="#babdb6"/><stop offset="1" stop-color="#babdb6" stop-opacity="0"/></linearGradient><linearGradient id="g" gradientTransform="matrix(.97222 0 0 .9722 -21.625 34.187)" gradientUnits="userSpaceOnUse" x1="12.198" x2="15.699" xlink:href="#h" y1="401.096" y2="404.598"/><linearGradient id="h"><stop offset="0" stop-color="#d3d7cf"/><stop offset="1" stop-color="#fafbfa"/></linearGradient><linearGradient id="i" gradientTransform="matrix(.875 0 0 .87507 -20.312 73.283)" gradientUnits="userSpaceOnUse" x1="12.816" x2="12.816" xlink:href="#j" y1="400.389" y2="406.511"/><linearGradient id="j"><stop offset="0" stop-color="#fff"/><stop offset="1" stop-color="#fff" stop-opacity="0"/></linearGradient><linearGradient id="k" gradientTransform="matrix(.875 0 0 .87507 -20.313 73.283)" gradientUnits="userSpaceOnUse" x1="12.816" x2="12.816" xlink:href="#j" y1="400.389" y2="406.511"/><linearGradient id="l" gradientTransform="matrix(1.29412 0 0 1 1.706 -13)" gradientUnits="userSpaceOnUse" x1="-12.909" x2="1" xlink:href="#d" y1="423.506" y2="423.455"/><linearGradient id="m" gradientTransform="matrix(1.29412 0 0 1.00524 1.706 -15.21)" gradientUnits="userSpaceOnUse" x1="-16" x2=".587" xlink:href="#f" y1="423.586" y2="423.586"/><linearGradient id="n" gradientUnits="userSpaceOnUse" x1="-9.76586" x2="-6.362118" xlink:href="#h" y1="424.133553" y2="427.538268"/><linearGradient id="o" gradientUnits="userSpaceOnUse" x1="-9.098" x2="-9.098" xlink:href="#j" y1="423.650375" y2="429.007125"/><g opacity=".6"><g opacity=".6"><path d="m-19 424h22v3h-22z" fill="url(#c)" transform="matrix(-1 0 0 -1 4 429)"/><path d="m-19 425h22v1h-22z" fill="url(#e)" transform="matrix(-1 0 0 -1 4 429)"/></g><g opacity=".6"><path d="m-19 424h22v3h-22z" fill="url(#c)" transform="translate(20 -422)"/><path d="m-19 425h22v1h-22z" fill="url(#e)" transform="translate(20 -422)"/></g><g stroke-linecap="round" stroke-width="1.167"><path d="m-11.417 422.583h5.834v5.834h-5.834z" fill="url(#g)" stroke="#888a85" stroke-linejoin="round" transform="matrix(.85714 0 0 .85714 14.286 -360.714)"/><path d="m-10.25 423.75h3.5v3.5h-3.5z" fill="none" stroke="url(#i)" transform="matrix(.85714 0 0 .85714 14.286 -360.714)"/><path d="m-11.417 422.583h5.834v5.834h-5.834z" fill="url(#g)" stroke="#888a85" stroke-linejoin="round" transform="matrix(.85714 0 0 .85714 24.286 -360.714)"/><path d="m-10.25 423.75h3.5v3.5h-3.5z" fill="none" stroke="url(#k)" transform="matrix(.85714 0 0 .85714 24.286 -360.714)"/></g></g><path d="m-14 409h17v3h-17z" fill="url(#l)" transform="translate(14 -390)"/><path d="m-14 409.995 17 .01v1.005l-17-.01z" fill="url(#m)" transform="translate(14 -390)"/><g stroke-linecap="round" stroke-width="1.167"><path d="m-11.417 422.583h5.834v5.834h-5.834z" fill="url(#n)" stroke="#888a85" stroke-linejoin="round" transform="matrix(.85715 0 0 .85715 13.286 -344.716)"/><path d="m-10.25 423.75h3.5v3.5h-3.5z" fill="none" stroke="url(#o)" transform="matrix(.85715 0 0 .85715 13.286 -344.716)"/></g><path d="m46.39 10.484c.606-.002 1.125.05 1.554.148 2.437.56 3.51 2.657 3.54 4.92-.18 2.407-.828 3.926-2.86 4.76-.443.11-1.494.177-2.244.18l-4.892.015v-4.037l4.537-.016c2-.052 1.988-1.91.01-1.968l-4.537.016v-4.002z" fill="url(#a)" stroke="#2a0303" stroke-opacity=".49" transform="translate(-27.985 3)"/><path d="m13.513 13.5v4.002l2.502-.008v-3.994zm2.502 5.963-2.502.008v3.529h2.502z" fill="#eee" fill-opacity=".761"/><path d="m18.404 13.484-4.89.016v1l4.89-.016c.607-.002 1.127.05 1.556.15 2.22.51 3.298 2.298 3.496 4.325.014-.137.033-.267.043-.407-.03-2.265-1.103-4.36-3.54-4.92-.43-.1-.95-.15-1.556-.15zm.906 5.49c-.232.26-.64.465-1.27.48l-4.537.017.002 1 4.535-.015c1.37-.036 1.772-.91 1.27-1.482z" fill="#206b00" opacity=".1" stroke="#fff"/><path d="m46.393 11.47-3.91.012v2.032l3.546-.012h.03c.65.018 1.22.183 1.672.516.452.332.775.872.776 1.453 0 .58-.32 1.125-.776 1.458-.454.333-1.028.494-1.68.51-.008.002-.016.002-.023 0l-3.555.013.02 2.06 3.905-.012c.663-.002 1.66-.094 1.92-.143.788-.337 1.23-.566 1.56-1.197.334-.636.523-1.525.61-2.63-.02-.963-.252-1.86-.695-2.534-.45-.684-1.083-1.175-2.07-1.402-.334-.077-.783-.125-1.332-.123z" fill="none" opacity=".53" stroke="url(#b)" stroke-opacity=".915" transform="translate(-27.985 3)"/></svg>