<svg height="24" width="24" xmlns="http://www.w3.org/2000/svg" xmlns:xlink="http://www.w3.org/1999/xlink"><linearGradient id="a"><stop offset="0" stop-color="#737373"/><stop offset=".262" stop-color="#636363"/><stop offset=".705" stop-color="#4b4b4b"/><stop offset="1" stop-color="#3f3f3f"/></linearGradient><radialGradient id="b" cx="12.569" cy="4.287" gradientTransform="matrix(-1.88408 -.0185 .03505 -3.33105 36.1 16.244)" gradientUnits="userSpaceOnUse" r="4.701" xlink:href="#a"/><radialGradient id="c" cx="2.345" cy="4.902" gradientTransform="matrix(-1.70084 -.14124 .39 -4.38428 4.42 25.744)" gradientUnits="userSpaceOnUse" r="4.51" xlink:href="#a"/><linearGradient id="d" gradientUnits="userSpaceOnUse" x1="5.684" x2="1.179" y1="10.036" y2="4.63"><stop offset="0" stop-color="#1f1f1f"/><stop offset="1" stop-color="#5c5c5c"/></linearGradient><g stroke-linecap="round" stroke-linejoin="round"><g fill="url(#d)" stroke="#000" stroke-opacity=".431" stroke-width=".901" transform="scale(.98295 1.01735)"><path d="m6.842 16.083-.48-1.238h-.065q-.627.79-1.295 1.1-.66.3-1.726.3-1.31 0-2.07-.748-.748-.75-.748-2.134 0-1.45 1.01-2.133 1.018-.692 3.062-.765l1.58-.05v-.398q0-1.385-1.418-1.385-1.09 0-2.565.66l-.822-1.677q1.572-.823 3.485-.823 1.832 0 2.81.798.977.798.977 2.427v6.066zm-.733-4.218-.962.033q-1.083.032-1.612.39-.53.36-.53 1.092 0 1.05 1.206 1.05.863 0 1.376-.497.52-.496.52-1.32z" fill="url(#c)"/><path d="m20.522 6.81q1.612 0 2.524 1.26.912 1.255.912 3.445 0 2.256-.944 3.493-.937 1.238-2.557 1.238-1.604 0-2.516-1.164h-.17l-.416 1h-1.897v-12.669h2.484v2.95q0 .56-.097 1.798h.098q.872-1.35 2.582-1.35zm-.798 1.985q-.92 0-1.344.57-.423.562-.44 1.865v.27q0 1.464.432 2.1.44.635 1.385.635.765 0 1.213-.7.456-.71.456-2.053t-.456-2.01q-.456-.677-1.246-.677z" fill="url(#b)"/></g><path d="m16.504704 20.49 3-3v6zm-9.0104568 0-3-3v6z" fill="#fcaf3e" stroke="#ce5c00"/></g></svg>