<svg height="24" width="24" xmlns="http://www.w3.org/2000/svg" xmlns:xlink="http://www.w3.org/1999/xlink"><radialGradient id="a" cx="4.993" cy="43.5" gradientTransform="matrix(2.0038 0 0 1.4 29.715 -17.4)" gradientUnits="userSpaceOnUse" r="2.5" xlink:href="#j"/><radialGradient id="b" cx="4.993" cy="43.5" gradientTransform="matrix(2.0038 0 0 1.4 -18.285 -104.4)" gradientUnits="userSpaceOnUse" r="2.5" xlink:href="#j"/><linearGradient id="c" gradientTransform="matrix(1.1234 0 0 1 -2.962 0)" gradientUnits="userSpaceOnUse" x1="25.058" x2="25.058" xlink:href="#k" y1="47.028" y2="39.999"/><radialGradient id="d" cx="7.686" cy="5.959" gradientTransform="matrix(0 1.15 -1.2044 0 19.177 -8.838)" gradientUnits="userSpaceOnUse" r="20" xlink:href="#l"/><linearGradient id="e" gradientUnits="userSpaceOnUse" x1="14" x2="14" xlink:href="#m" y1="5" y2="7"/><linearGradient id="f" gradientUnits="userSpaceOnUse" x1="12.002" x2="12.002" xlink:href="#n" y1="5.000437" y2="19.916726"/><clipPath id="g"><rect height="20" rx=".5" width="9" x="15" y="3"/></clipPath><clipPath id="h"><rect height="20" rx=".5" width="9" x="1" y="3"/></clipPath><linearGradient id="i" gradientTransform="matrix(.728 0 0 .7272 -31.95 -1.46)" gradientUnits="userSpaceOnUse" x1="32.90934" x2="24.667582" xlink:href="#o" y1="19.878988" y2="19.878988"/><linearGradient id="j"><stop offset="0" stop-color="#181818"/><stop offset="1" stop-color="#181818" stop-opacity="0"/></linearGradient><linearGradient id="k" gradientTransform="matrix(1.1234 0 0 1 -2.962 0)" gradientUnits="userSpaceOnUse" x1="25.058" x2="25.058" y1="47.028" y2="39.999"><stop offset="0" stop-color="#181818" stop-opacity="0"/><stop offset=".5" stop-color="#181818"/><stop offset="1" stop-color="#181818" stop-opacity="0"/></linearGradient><radialGradient id="l" cx="7.686" cy="5.959" gradientTransform="matrix(0 1.15 -1.2044 0 19.177 -8.838)" gradientUnits="userSpaceOnUse" r="20"><stop offset="0" stop-color="#fafafa"/><stop offset="1" stop-color="#e1e1e1"/></radialGradient><linearGradient id="m" gradientUnits="userSpaceOnUse" x1="14" x2="14" y1="5" y2="7"><stop offset="0" stop-color="#e5e5e5"/><stop offset="1" stop-color="#d4d4d4"/></linearGradient><linearGradient id="n" gradientUnits="userSpaceOnUse" x1="12.002" x2="12.002" y1="5.000437" y2="19.916726"><stop offset="0" stop-color="#fff"/><stop offset=".017" stop-color="#fff" stop-opacity=".235"/><stop offset=".98" stop-color="#fff" stop-opacity=".157"/><stop offset="1" stop-color="#fff" stop-opacity=".392"/></linearGradient><linearGradient id="o"><stop offset="0" stop-color="#d1ff82"/><stop offset=".262" stop-color="#9bdb4d"/><stop offset=".661" stop-color="#68b723"/><stop offset="1" stop-color="#3a9104"/></linearGradient><radialGradient id="p" cx="75.338982" cy="36.133709" gradientTransform="matrix(.30645163 .00000001 .00000001 -.2827 -25.095754 22.210998)" gradientUnits="userSpaceOnUse" r="31" xlink:href="#o"/><linearGradient id="q" gradientTransform="matrix(.13939236 0 0 .13837341 8.410006 .281304)" gradientUnits="userSpaceOnUse" x1="24.51" x2="24.416418" y1="8.762" y2="34.101177"><stop offset="0" stop-color="#fff"/><stop offset=".00168642" stop-color="#fff" stop-opacity=".235"/><stop offset="1" stop-color="#fff" stop-opacity=".157"/><stop offset="1" stop-color="#fff" stop-opacity=".392"/></linearGradient><linearGradient id="r" gradientTransform="matrix(.13939236 0 0 .13837341 8.401175 .284021)" gradientUnits="userSpaceOnUse" x1="32.991943" x2="32.991943" y1="23.241306" y2="26.854717"><stop offset="0" stop-color="#fff"/><stop offset="0" stop-color="#fff" stop-opacity=".235"/><stop offset="1" stop-color="#fff" stop-opacity=".157"/><stop offset="1" stop-color="#fff" stop-opacity=".392"/></linearGradient><g clip-path="url(#g)" transform="translate(-15 1)"><g opacity=".4"><path d="m39.727 40h5v7h-5z" fill="url(#a)" transform="matrix(.579 0 0 .4286 -1.895 2.857)"/><path d="m-8.273-47h5v7h-5z" fill="url(#b)" transform="matrix(-.579 0 0 -.4286 -1.895 2.857)"/><path d="m8.272 40h31.455v7h-31.455z" fill="url(#c)" transform="matrix(.579 0 0 .4286 -1.895 2.857)"/></g><rect fill="url(#d)" height="18" rx="1" width="21" x="1.5" y="3.5"/><path d="m2.5 3.5c-.554 0-1 .446-1 1v4.5h21v-4.5c0-.554-.446-1-1-1z" fill="url(#e)"/><g fill="none"><rect height="18" opacity=".3" rx="1" stroke="#0e141f" stroke-linecap="round" stroke-linejoin="round" width="21" x="1.5" y="3.5"/><path d="m2.5 4.5h19v16h-19z" opacity=".7" stroke="url(#f)" stroke-linecap="round" stroke-linejoin="round"/><path d="m2 8.5h20" opacity=".2" stroke="#000"/></g></g><path d="m2.492 10.996v-2h-2v2h-2l.001 1.992 2 .018-.001 1.99h2v-2h2v-2z" fill="url(#p)" stroke="#206b00" stroke-linecap="round" stroke-linejoin="round" stroke-opacity=".501961" transform="matrix(0 1 1 0 -.496 2.008)"/><path d="m11.5 3v-2zm0 1v2z" fill="none" opacity=".5" stroke="url(#q)" stroke-width=".99993"/><path d="m12.5 3.5h1v.5h-1m-2 0h-1v-.5h1" fill="none" opacity=".5" stroke="url(#r)" stroke-width=".99993"/><g transform="matrix(0 -1 1 0 -.496 .008)"><path d="m-12.492 11h4.0000004v2h-4.0000004z" fill="url(#i)" stroke="#206b00" stroke-linecap="round" stroke-linejoin="round" stroke-opacity=".501961"/><path d="m-9.992 11.496h1v1h-1z" fill="#fff" opacity=".3"/></g><g clip-path="url(#h)" transform="translate(14 1)"><g opacity=".4"><path d="m39.727 40h5v7h-5z" fill="url(#a)" transform="matrix(.579 0 0 .4286 -1.895 2.857)"/><path d="m-8.273-47h5v7h-5z" fill="url(#b)" transform="matrix(-.579 0 0 -.4286 -1.895 2.857)"/><path d="m8.272 40h31.455v7h-31.455z" fill="url(#k)" transform="matrix(.579 0 0 .4286 -1.895 2.857)"/></g><rect fill="url(#l)" height="18" rx="1" width="21" x="1.5" y="3.5"/><path d="m2.5 3.5c-.554 0-1 .446-1 1v4.5h21v-4.5c0-.554-.446-1-1-1z" fill="url(#m)"/><g fill="none"><rect height="18" opacity=".3" rx="1" stroke="#0e141f" stroke-linecap="round" stroke-linejoin="round" width="21" x="1.5" y="3.5"/><path d="m2.5 4.5h19v16h-19z" opacity=".7" stroke="url(#n)" stroke-linecap="round" stroke-linejoin="round"/><path d="m2 8.5h20" opacity=".2" stroke="#000"/></g></g><g transform="matrix(0 -1 1 0 -.496 6.008)"><path d="m-12.492 11h4.0000004v2h-4.0000004z" fill="url(#i)" stroke="#206b00" stroke-linecap="round" stroke-linejoin="round" stroke-opacity=".501961"/><path d="m-9.992 11.496h1v1h-1z" fill="#fff" opacity=".3"/></g><g transform="matrix(0 -1 1 0 -.496 12.008)"><path d="m-11.492 10.996 3.0000004.004v2l-3.0000004-.004z" fill="url(#i)" stroke="#206b00" stroke-linecap="round" stroke-linejoin="round" stroke-opacity=".501961"/><path d="m-9.992 11.496h1v1h-1z" fill="#fff" opacity=".3"/></g></svg>