<svg viewBox="0 0 24 24" xmlns="http://www.w3.org/2000/svg"><path d="m1.539335 2.528801h19.921329v17.921329h-19.921329z" fill="none" stroke="#b2b2b2" stroke-linecap="round" stroke-linejoin="round" stroke-width="1.07867"/><path d="m2 11h19v1h-19z" fill="#b2b2b2" opacity=".8"/><path d="m11 3h1v17h-1z" fill="#b2b2b2" opacity=".8"/><path d="m1.5 2.5v18l19.972656-.02734v-17.9453162zm1.5 1.5h17v15h-17z" fill="#fcaf3e"/><g fill="#ce5c00"><path d="m1.5 2.0546918c-.2761309.0000276-.4999723.2238691-.4999999.5v17.9453122c.0000276.276131.223869.499972.4999999.5l20-.000004c.276131-.000027.499972-.223869.5-.5v-17.945312c-.000028-.2761309-.223869-.4999724-.5-.5zm.5 1 19-.0000038v16.945312h-19z"/><path d="m3 4v15h17v-15zm1 1h15v13h-15z"/></g></svg>