<svg height="24" viewBox="0 0 6.3499999 6.3500002" width="24" xmlns="http://www.w3.org/2000/svg" xmlns:xlink="http://www.w3.org/1999/xlink"><radialGradient id="a" cx="2.25" cy="16" gradientTransform="matrix(.24486575 0 0 .11633788 11.301789 19.175389)" gradientUnits="userSpaceOnUse" r="16.875"><stop offset="0"/><stop offset="1" stop-opacity="0"/></radialGradient><linearGradient id="b" gradientUnits="userSpaceOnUse" x1="12.553451" x2="13.504366" y1="5.147804" y2="19.710112"><stop offset="0" stop-color="#cd9ef7"/><stop offset="1" stop-color="#a56de2"/></linearGradient><linearGradient id="c" gradientUnits="userSpaceOnUse" x1="12" x2="12" y1="7.5" y2="17.5"><stop offset="0" stop-color="#fff"/><stop offset=".36842105" stop-color="#fff" stop-opacity=".235294"/><stop offset="1" stop-color="#fff" stop-opacity=".156863"/><stop offset="1" stop-color="#fff" stop-opacity=".392157"/></linearGradient><g transform="scale(.26458333)"><ellipse cx="11.852736" cy="21.036797" display="block" fill="url(#a)" fill-rule="evenodd" opacity=".245" rx="4.13211" ry="1.963204"/><path d="m12 3.5294119c-1.169845 0-2.4816179 2.4816176-2.4816179 2.4816176s-2.6806613-.826691-3.5073526 0 0 3.507353 0 3.507353-2.4816176 1.3117725-2.4816176 2.4816175 2.4816176 2.481618 2.4816176 2.481618-.8266913 2.680661 0 3.507353c.8266913.826691 3.5073526 0 3.5073526 0s1.3117729 2.481617 2.4816179 2.481617 2.481618-2.481617 2.481618-2.481617 2.680661.826691 3.507353 0c.826691-.826692 0-3.507353 0-3.507353s2.481617-1.311773 2.481617-2.481618-2.481617-2.4816175-2.481617-2.4816175.826691-2.680662 0-3.507353c-.826692-.826691-3.507353 0-3.507353 0s-1.311773-2.4816176-2.481618-2.4816176zm0 4.2352941c2.339088 0 4.235294 1.8962057 4.235294 4.235294 0 2.339088-1.896206 4.235294-4.235294 4.235294-2.3390879 0-4.235294-1.896206-4.235294-4.235294 0-2.3390883 1.8962061-4.235294 4.235294-4.235294z" fill="url(#b)" stroke="#7239b3" stroke-opacity=".501961" stroke-width="1.058824"/><g fill="none"><ellipse cx="12.08074" cy="11.99117" rx="5.17746" ry="5.213414" stroke="#fdfdfb" stroke-linecap="round" stroke-linejoin="round" stroke-width="1.059"/><path d="m12 4.6972656c.120539 0 .02822-.014433-.146484.1269532-.1747.1413858-.403439.3919424-.605469.65625-.40406.528615-.697266 1.0761718-.697266 1.0761718a1.1678785 1.1678785 0 0 1 -1.3769529.5703125s-.5956493-.1795954-1.2539062-.2675781c-.3291285-.043991-.6657234-.05867-.8886719-.035156s-.2785026.098815-.1933594.013672c.085143-.085143.00984-.029589-.013672.1933594-.023514.2229484-.00884.5595434.035156.8886719.087983.6582569.2675781 1.2539062.2675781 1.2539062a1.1678785 1.1678785 0 0 1 -.5703121 1.3769525s-.5475568.293206-1.0761718.697266c-.2643076.20203-.5148642.430769-.65625.605469-.1413859.1747-.1269532.267023-.1269532.146484s-.014433-.02822.1269532.146484c.1413858.1747.3919424.403439.65625.605469.528615.40406 1.0761718.697266 1.0761718.697266a1.1678785 1.1678785 0 0 1 .5703125 1.376953s-.1795954.595649-.2675781 1.253906c-.043991.329128-.05867.665724-.035156.888672s.098815.278502.013672.193359c-.085143-.08514-.029589-.0098.1933594.01367.2229485.02351.5595434.0088.8886719-.03516.6582569-.08798 1.2539062-.267578 1.2539062-.267578a1.1678785 1.1678785 0 0 1 1.3769525.570312s.293206.547557.697266 1.076172c.20203.264308.430769.514864.605469.65625s.267023.126953.146484.126953-.02822.01443.146484-.126953c.1747-.141386.403439-.391942.605469-.65625.40406-.528615.697266-1.076172.697266-1.076172a1.1678785 1.1678785 0 0 1 1.376953-.570312s.595649.179595 1.253906.267578c.329129.04399.665723.05867.888672.03516s.278502-.09881.193359-.01367c-.08514.08514-.0098.02959.01367-.193359.02351-.222949.0088-.559543-.03516-.888672-.08798-.658257-.267578-1.253906-.267578-1.253906a1.1678785 1.1678785 0 0 1 .570312-1.376953s.547557-.293206 1.076172-.697266c.264308-.20203.514864-.430769.65625-.605469s.126953-.267023.126953-.146484.01443.02822-.126953-.146484c-.141386-.1747-.391942-.403439-.65625-.605469-.528615-.40406-1.076172-.697266-1.076172-.697266a1.1678785 1.1678785 0 0 1 -.570306-1.3769529s.179595-.5956492.267578-1.2539062c.04399-.3291285.05867-.6657234.03516-.8886719s-.09882-.2785028-.01367-.1933594c.08514.085143.02959.00984-.193359-.013672-.222949-.023514-.559544-.00884-.888672.035156-.658257.087983-1.253906.2675781-1.253906.2675781a1.1678785 1.1678785 0 0 1 -1.376959-.5703121s-.293206-.5475568-.697266-1.0761718c-.20203-.2643076-.430769-.5148642-.605469-.65625-.1747-.1413859-.267023-.1269532-.146484-.1269532z" opacity=".5" stroke="url(#c)" stroke-width="1.058824"/></g></g></svg>