<svg height="24" width="24" xmlns="http://www.w3.org/2000/svg" xmlns:xlink="http://www.w3.org/1999/xlink"><linearGradient id="a"><stop offset="0" stop-color="#1f1f1f"/><stop offset="1" stop-color="#5c5c5c"/></linearGradient><linearGradient id="b" gradientTransform="matrix(.69239436 0 0 .6923943 40.953303 7.161027)" gradientUnits="userSpaceOnUse" x1="-31" x2="-36" xlink:href="#a" y1="12" y2="6"/><linearGradient id="c" gradientTransform="matrix(1.0346394 0 0 1.0346393 40.422511 .588647)" gradientUnits="userSpaceOnUse" x1="-31" x2="-36" xlink:href="#a" y1="12" y2="6"/><path d="m16.08641 10.968302h2.847355q1.946214 0 2.822323.556955.882367.550697.882367 1.758476 0 .819788-.387992 1.345453-.381733.525666-1.020041.632051v.06258q.869851.193995 1.251585.725919.387991.531923.387991 1.41429 0 1.251584-.907399 1.952472-.901141.700887-2.453105.700887h-3.423084v-9.149082zm1.939956 3.623337h1.126426q.788498 0 1.138942-.244059.356701-.244059.356701-.807272 0-.525665-.387991-.750951-.381733-.231543-1.214037-.231543h-1.020041zm0 1.539449v2.384268h1.2641q.801014 0 1.182748-.306638.381733-.306638.381733-.938689 0-1.138941-1.62706-1.138941z" style="stroke:#000;stroke-width:.692199;stroke-linejoin:round;stroke-linecap:round;fill:url(#b);opacity:.66" transform="scale(.98294772 1.0173481)"/><g transform="matrix(.96909024 0 0 .96631872 -.041518 4.020564)"><path d="m17.342697 3.3386364 1.800059-1.2000382 1.800057 1.2000382" fill="none" stroke="#ce5c00" stroke-linecap="round" stroke-width="3.600116"/><path d="m19.142578 1.3457031-2.166016 1.4433594a.66060253.66060253 0 1 0  .732422 1.0996094l1.433594-.9570313 1.433594.9570313a.66060253.66060253 0 1 0  .732422-1.0996094z" fill="#fcaf3e"/></g><path d="m11.633398 19.949226-.991223-3.254204h-4.9841696l-.9912232 3.254204h-3.1232882l4.8251997-13.7275058h3.5440905l4.8439018 13.7275058zm-1.6832092-5.685506q-1.3746208-4.4231-1.5522929-5.0028721-.1683209-.579772-.2431302-.9164139-.3085884 1.1969488-1.7673697 5.919286z" style="stroke:#000;stroke-width:1.034348;stroke-linejoin:round;stroke-linecap:round;fill:url(#c);opacity:.66" transform="scale(.98294772 1.0173481)"/></svg>