<svg viewBox="0 0 24 24" xmlns="http://www.w3.org/2000/svg" xmlns:xlink="http://www.w3.org/1999/xlink"><defs><radialGradient id="a" cx="15" cy="1037.3622" gradientTransform="matrix(-.64403343 -.48884694 .31038244 -.40891466 -297.31851 1468.8874)" gradientUnits="userSpaceOnUse" r="8"><stop offset="0" stop-color="#b3b3b3"/><stop offset="1" stop-color="#4d4d4d" stop-opacity="0"/></radialGradient><radialGradient id="b" cx="11" cy="1041.3622" gradientTransform="matrix(-1.0000002 .00001075 -.00001076 -1.0000128 22.01121 2082.7375)" gradientUnits="userSpaceOnUse" r="8"><stop offset="0" stop-color="#b3b3b3" stop-opacity="0"/><stop offset=".795008" stop-color="#4d4d4d"/><stop offset="1" stop-color="#4d4d4d" stop-opacity="0"/></radialGradient><path id="c" d="m11 1033.3622a8 8 0 0 0 -8 8 8 8 0 0 0 8 8 8 8 0 0 0 8-8 8 8 0 0 0 -8-8m0 4a4 4 0 0 1 4 4 4 4 0 0 1 -4 4 4 4 0 0 1 -4-4 4 4 0 0 1 4-4"/><radialGradient id="d" cx="2.25" cy="16" gradientTransform="matrix(.479894 0 0 .11633788 10.772975 19.175389)" gradientUnits="userSpaceOnUse" r="16.875"><stop offset="0"/><stop offset="1" stop-opacity="0"/></radialGradient><radialGradient id="e" cx="48.332634" cy="14.770915" gradientTransform="matrix(1 0 0 .88235318 0 1.411764)" gradientUnits="userSpaceOnUse" r="8.5"><stop offset="0" stop-color="#cd9ef7"/><stop offset="1" stop-color="#a56de2"/></radialGradient><linearGradient id="f" gradientTransform="matrix(.86174054 0 0 .86384326 -22.812767 -5.201465)" gradientUnits="userSpaceOnUse" x1="13.887581" x2="14.786515" y1="3.56322" y2="20.318056"><stop offset="0" stop-color="#fff"/><stop offset=".5" stop-color="#fff" stop-opacity=".235294"/><stop offset=".81289846" stop-color="#fff" stop-opacity=".156863"/><stop offset="1" stop-color="#fff" stop-opacity=".392157"/></linearGradient></defs><ellipse cx="11.852736" cy="21.036797" display="block" fill="url(#d)" fill-rule="evenodd" opacity=".245" rx="8.098211" ry="1.963204"/><g stroke="#888a85" transform="matrix(1.0588235 0 0 1.0588235 -43.058822 .852923)"><use fill="#4d4d4d" fill-opacity=".835294" height="100%" transform="matrix(1 0 0 .87500027 41 -899.19219)" width="100%" xlink:href="#c"/><path d="m46.845703 6.6560395a8 7.0000022 0 0 0 -2.845703 5.3439765 8 7.0000022 0 0 0 8 7.000002 8 7.0000022 0 0 0 6.158203-2.534438 8 7.0000022 0 0 1 -5.158203 1.659438 8 7.0000022 0 0 1 -8-7.000002 8 7.0000022 0 0 1 1.845703-4.4689765" fill="#4d4d4d" fill-opacity=".470588"/><use fill="url(#b)" height="100%" transform="matrix(1 0 0 .87500027 41 -899.19219)" width="100%" xlink:href="#c"/><use fill="url(#a)" height="100%" transform="matrix(1 0 0 .87500027 41 -899.19219)" width="100%" xlink:href="#c"/><g stroke-opacity=".662745"><path d="m52 19.000018a8 7.0000022 0 0 0 8-7.000002 8 7.0000022 0 0 0 -8-7.000002 8 7.0000022 0 0 0 -8 7.000002 8 7.0000022 0 0 0 8 7.000002m0-3.500001a4 3.5000011 0 0 1 -4-3.500001 4 3.5000011 0 0 1 4-3.5000009 4 3.5000011 0 0 1 4 3.5000009 4 3.5000011 0 0 1 -4 3.500001" fill="url(#e)" stroke="#7239b3" stroke-width=".944444"/><path d="m57 11.562516a4.5 3.9375012 0 0 0 -4.5-3.9375012 4.5 3.9375012 0 0 0 -4.5 3.9375012 4.5 3.9375012 0 0 0 .0098.24955 4 3.5000011 0 0 1 3.990234-3.3120509 4 3.5000011 0 0 1 4 3.5000009 4 3.5000011 0 0 1 -3.707031 3.489764 4.5 3.9375012 0 0 0 .207031.0105 4.5 3.9375012 0 0 0 4.5-3.937501z" fill="#fdfdfb" opacity=".892" stroke="#7239b3"/><path d="m12 7.1777344c-1.981358-.0000236-3.9438926.7201537-5.3105469 1.9160156-1.3666542 1.195862-2.1289925 2.833038-2.1289062 4.464844-.0000861 1.631805.762252 3.268982 2.1289062 4.464844 1.3666543 1.195861 3.3291889 1.916039 5.3105469 1.916015 1.981358.000024 3.943893-.720154 5.310547-1.916015 1.366654-1.195862 2.128992-2.833039 2.128906-4.464844.000086-1.631806-.762252-3.268982-2.128906-4.464844-1.366654-1.1958619-3.329189-1.9160392-5.310547-1.9160156zm.529297 2.7792968c-.556346.000094.932879.063284.378906.015625s.921846.1439338.375.048828c-.546845-.095105.900217.222016.365235.08008-.534983-.1419373.871933.299171.353515.111329-.518418-.187843.835089.371169.337891.138671-.497199-.232497.787788.443537.316406.167969s.735965.508102.294922.191407c-.441044-.316696.675808.568382.269531.21289s.607443.623956.240235.232422c-.367209-.391534.534952.672399.210937.248047s.456631.717109.179687.263672c-.276943-.453438.374776.751692.148438.273437s.2879.779518.115234.28125c-.172665-.498267.198558.800088.08203.28711-.116527-.512979.107481.814948.04883.292968-.05865-.52198.01746.817973.01758.292969-.000116-.525004-.07623.814949-.01758.292969s-.165355.805947-.04883.292969c.116526-.512979-.254697.785377-.08203.287109.172666-.4982702-.341572.7595028-.115234.2812478s-.425381.726875-.148438.273438c.276944-.453438-.503702.688023-.179687.263671.324015-.424351-.578146.639581-.210937.248047.367208-.391533-.646512.587914-.240235.232422s-.710575.529586-.269531.212891c.441043-.316695-.766304.466974-.294922.191406s-.813605.400467-.316406.167969c.497198-.232498-.856309.326514-.337891.138672.518418-.187843-.888498.253266-.353515.111328.534982-.141938-.91208.175183-.365235.08008.546846-.09511-.928973.09649-.375.04883-.0042 0-.0055 0-.0098 0-.533969-.000043-.705942-.000048-1.236329 0 .360287.02727-.788306-.124268-.310547-.04102.495871.08641-.801638-.197262-.316406-.06836.485232.128903-.77506-.266299-.304687-.0957.470372.170596-.7403849-.332301-.289063-.121094.451322.211207-.7015556-.393017-.273437-.142578.428118.250439-.6527631-.452033-.2519534-.164062.4008094.28797-.5999303-.50509-.2304687-.181641.3694611.323449-.541199-.555701-.2070313-.199219s-.474755-.59952-.1796875-.21289c.2950676.386629-.4047128-.63802-.1523437-.22461.252369.41341-.3333283-.66873-.1269532-.232422.2063752.436308-.2551634-.693087-.097656-.238281.1575072.454806-.1746793-.712564-.068359-.244141.10632.468423-.096467-.722855-.042969-.246093.051398.458048-.00873-.577009-.013672-.238282.016115-.378882.063572-1.857997.00195-.02539-.085218 2.534455.1241638-2.566154 0-.0332-.1241637 2.53295.1650252-2.566043.00195-.03516-.163072 2.530887.2058377-2.561468.00391-.0332v-.158203c.202659 2.765218-.156568-2.815047-.00391-.04687.1526618 2.768173-.1045563-2.817171-.00195-.04687.1026033 2.770296-.054457-2.818462-.00195-.04687.052504 2.771587-.00238-2.818919 0-.04687.0001156.52505.076221-.814996.017578-.292969s.165335-.804045.048828-.291015c-.1165068.513029.2546688-.787387.082031-.289063-.1726375.498325.3415376-.75957.1152344-.28125s.4253409-.726949.1484375-.273437c-.2769035.453512.50366-.686156.1796875-.261719s.578103-.641631.2109375-.25.6464696-.588023.2402344-.232422c-.4062351.355602.7105362-.529707.2695312-.21289-.4410055.316816.764319-.467109.292969-.191407-.4713503.275702.815533-.398659.318359-.166015s.856295-.328626.337891-.140625c-.518404.188.886543-.251483.351562-.109375-.53498.142107.914046-.1773178.367188-.08203-.546858.09529.92705-.094724.373047-.046875-.554003.04785.9353-.017684.378906-.017578zm-.548828.9277348c-.0066.000489-.01295.0014-.01953.002.169466-.01072 1.347587-.04309.01172 0-5.3527498.172671 5.40162-.107599.04687-.002a1.0316985 1.0316985 0 0 1 -.02734 0c-.0039.000278-.0078-.000291-.01172 0zm-.269531 5.33789c.382455.000194.06651-.000215.599609 0l-.07227.002c2.651369-.185537-2.7149353.146817-.06055.0039 2.654389-.14291-2.7171706.102205-.06055.002 2.656624-.100252-2.7205754.05953-.0625.002 2.658074-.05757-2.7192883.01684-.06055.002.381749-.0017-.397817-.03122-.283203-.01172zm.603515 0c.451488-.000182.165239.000167.507813 0-.118093-.0044-.548447.0076-.275391.01172.09719-.02313-4.74972-.259258-.06836-.0039 5.88202.320844-5.9612196-.442964-.08789-.0059z" fill="none" stroke="url(#f)" transform="matrix(.94444447 0 0 .94444447 40.666666 -.805538)"/></g></g></svg>