<svg height="24" width="24" xmlns="http://www.w3.org/2000/svg" xmlns:xlink="http://www.w3.org/1999/xlink"><linearGradient id="a" gradientTransform="matrix(.77562455 0 0 .7756249 -43.981565 -9.61426)" gradientUnits="userSpaceOnUse" x1="71.204407" x2="71.204407" y1="15.369057" y2="40.495617"><stop offset="0" stop-color="#fff"/><stop offset=".42447853" stop-color="#fff" stop-opacity=".235294"/><stop offset=".82089913" stop-color="#fff" stop-opacity=".156863"/><stop offset="1" stop-color="#fff" stop-opacity=".392157"/></linearGradient><radialGradient id="b" cx="15.026252" cy="8.62576" fx=".303533" fy="8.625761" gradientTransform="matrix(-.00000003 .56510885 -.53241442 -.00000004 16.49884 1.63324)" gradientUnits="userSpaceOnUse" r="19.99999"><stop offset="0" stop-color="#f4f4f4"/><stop offset="1" stop-color="#dadada"/></radialGradient><radialGradient id="c" cx="62.625" cy="4.625" gradientTransform="matrix(.94117648 0 0 .2823525 -46.941177 19.694118)" gradientUnits="userSpaceOnUse" r="10.625"><stop offset="0"/><stop offset="1" stop-opacity="0"/></radialGradient><radialGradient id="d" cx="99.157013" cy="186.17059" gradientTransform="matrix(.12690354 0 0 .04037841 -.583375 13.534573)" gradientUnits="userSpaceOnUse" r="62.769119"><stop offset="0" stop-color="#3d3d3d"/><stop offset=".5" stop-color="#686868" stop-opacity=".498039"/><stop offset="1" stop-color="#686868" stop-opacity="0"/></radialGradient><path d="m19.965624 21.051843a7.9656233 2.5345164 0 1 1 -15.9312462 0 7.9656233 2.5345164 0 1 1 15.9312462 0z" fill="url(#d)"/><path d="m22 21c0 1.656854-4.477153 3-10 3-5.5228476 0-10-1.343146-10-3s4.4771524-3 10-3c5.522847 0 10 1.343146 10 3l0 0z" fill="url(#c)" fill-rule="evenodd" opacity=".3"/><path d="m12 1.5000002c-5.7935374 0-10.4999999 4.7064618-10.4999999 10.4999998 0 5.793537 4.7064625 10.500001 10.4999999 10.5 5.793537 0 10.500004-4.706463 10.5-10.5 0-5.793538-4.706463-10.4999998-10.5-10.4999998z" fill="url(#b)"/><g stroke-linecap="round"><path d="m21.5 12c0 5.246706-4.253305 9.5-9.5 9.5s-9.5-4.253294-9.5-9.5c0-5.246704 4.253305-9.5 9.5-9.5s9.5 4.253296 9.5 9.5z" fill="none" stroke="url(#a)" stroke-linejoin="round"/><g stroke-width=".6"><path d="m11.468162 12.606151 5.772823-6.611569" fill="none" stroke="#333"/><path d="m12.848222 12.024423-5.0570603-.329172" fill="#00f" stroke="#333"/><path d="m11.397737 10.450238 2.737257 7.425508" fill="none" stroke="#eb5c3a"/></g></g><path d="m12.656259 2.69923c-.09076.000001-.175547.02016-.248926.04526-.07145.02317-.126968.03699-.181037.06789-.05214.0309-.10295.08225-.135777.113148-.03283.0309-.0563.03367-.06789.04526l.135777.158407c.01352-.01738.04278-.04085.06789-.06789.02703-.02897.0519-.06541.09052-.09052.03862-.0251.08557-.05051.135777-.06789.05214-.01931.117312-.02263.181037-.02263.06179.000001.112061.0053.158408.02263.04828.01738.08225.03892.113148.06789.03283.02897.05244.07646.06789.113148.01738.03669.02263.05383.02263.09052-.000001.05793-.0105.115925-.04526.158407-.03283.04248-.08364.07839-.135778.113148-.05214.03476-.09661.06155-.158407.09052-.05987.02704-.128899.06349-.181037.09052-.09849.05214-.162572.09855-.226296.158408-.06179.05793-.121718.117312-.158407.181036-.03476.06372-.05437.134149-.06789.203667-.011588.067582-.022631.154842-.022631.226291h1.244629v-.181036h-1.018333c.0077-.05986.02788-.112062.04526-.158408.01931-.04634.05383-.09716.09052-.135777.03669-.03862.07784-.07646.135778-.113148.05793-.03669.139397-.07453.226296-.113149.03669-.01738.07977-.04085.135777-.06789.05793-.02703.104337-.07066.158408-.113148.05406-.04248.09909-.07784.135777-.135777.03862-.05986.06789-.145191.06789-.226296-.000001-.06179-.02015-.104337-.04526-.158408-.02511-.056-.06487-.115922-.113148-.158407-.04828-.04248-.11152-.06734-.181037-.09052-.06758-.0251-.139399-.04526-.226296-.04526zm-1.425666.02263c-.0038.0097-.03506.03892-.06789.06789-.03282.02897-.06487.05769-.113148.09052-.04635.03283-.104338.06542-.158407.09052-.05214.02511-.09136.04526-.135778.04526v.181036c.03669.000002.06487-.0072.113149-.02263.04828-.01545.113992-.04472.158407-.06789.04634-.02317.07646-.04085.113148-.06789.03669-.02703.07314-.04472.09052-.06789v1.244629h-.407333v.181037h.973074v-.181037h-.362074v-1.493554h-.203667zm-7.9656229 8.237178c-.1023467.000001-.2053567.0086-.294185.04526-.088829.03669-.1606405.09468-.2262961.158407-.063725.06372-.1197863.1394-.1584073.226296-.036693.08497-.045259.173072-.045259.271556 0 .09655.00857.186589.045259.271555.036693.08497.094682.162572.1584073.226296.063725.06179.141329.09909.2262961.135778.086897.03476.1730705.06789.2715553.06789.1313112 0 .2370968-.04556.3394442-.113148.1042758-.06759.1838111-.157623.2262961-.271556-.0000014.142899-.016293.272703-.045259.384704-.027032.11007-.062943.196244-.1131481.271555-.048279.07724-.1115201.140485-.1810368.181037-.069518.04055-.1413305.06789-.2262962.06789-.1081398 0-.2053566-.03065-.2941849-.09052-.088829-.05793-.1424159-.150441-.1810369-.248925l-.1357777.135777c.055998.119726.1407859.203968.2489258.271556.1081384.06758.2268986.09052.3620737.09052.1139316-.000001.2241223-.01768.3168146-.06789.092689-.05021.1606384-.122019.2262961-.226296.067585-.102346.1217155-.230219.1584073-.384703.036685-.156416.067889-.334556.067889-.543111-.0000014-.133242-.031204-.255865-.067889-.362074-.0366928-.108141-.0927526-.198177-.1584075-.271558-.063725-.073379-.135538-.142415-.2262961-.181037-.090761-.040551-.1860465-.045258-.2941849-.045259zm17.2663939 0c-.06952.000001-.138011.0053-.203667.02263-.06566.01545-.126968.03892-.181037.06789-.05407.02897-.0933.07067-.135777.113148-.04249.04055-.08998.08557-.113148.135778l.135777.113148c.04249-.0869.098-.155388.181037-.203667.08497-.05021.184114-.06789.294185-.06789.05986.000001.130828.0072.181037.02263.05214.01545.09909.037.135778.06789.03862.02897.06928.06874.09052.113148.02124.04249.02263.07785.02263.135778-.000002.110071-.03398.202038-.113148.271555-.07917.06952-.190754.113149-.339445.113148h-.09052v.158407h.06789c.164139.000001.297805.0359.384703.113149.0869.07724.135776.183571.135778.316814-.000002.131312-.05275.247296-.135778.316815-.08304.07145-.194615.09052-.339444.09052-.125519 0-.233779-.01768-.316814-.06789-.08304-.05021-.140485-.1187-.181037-.203666l-.135778.135777c.056.104278.138855.168365.248926.226297.110069.05987.237942.09052.384703.09052.100414-.000001.19045-.01629.271555-.04526.08303-.02703.145734-.06101.203667-.113148.05986-.05021.104879-.107657.135778-.181037.03282-.07145.06789-.162028.06789-.248926-.000001-.139036-.03591-.244822-.113148-.339444-.07531-.09462-.189366-.159795-.316814-.181037.05986-.0077.11206-.01823.158407-.04526.04828-.02897.102949-.07259.135778-.113148.03282-.04248.05051-.08364.06789-.135778.01738-.05406.02263-.100474.02263-.158407-.000001-.07724-.01437-.16257-.04526-.226296-.02897-.06372-.08171-.113992-.135778-.158408-.05407-.04635-.105727-.08804-.181037-.113148-.07338-.0251-.160098-.02263-.248925-.02263zm-17.2663939.158407c.073379.000001.1399407.01629.2036665.04526.065658.02704.1101298.06294.1584072.113148.050205.04828.1068104.115382.1357777.181037.028966.06372.045259.132219.045259.203667-.0000014.07338-.016293.138011-.045259.203666-.027032.06372-.062943.110131-.1131481.158407-.048279.04828-.115382.106813-.1810368.135778-.065659.02703-.1302872.02263-.2036665.02263-.073381 0-.138011.0044-.2036666-.02263-.063725-.02897-.1327608-.0875-.1810368-.135778-.048279-.04828-.084183-.09468-.1131481-.158407-.028966-.06566-.045259-.130285-.045259-.203666-.0000007-.07338.018227-.13994.045259-.203667.028966-.06565.064869-.132759.1131481-.181037.050205-.04828.1173111-.08611.1810368-.113148.065658-.02897.1302851-.04526.2036666-.04526zm8.7576599 8.033512c-.113933.000002-.224125.04031-.316815.09052s-.158709.122021-.226296.226296c-.06566.102348-.121718.228289-.158407.384703-.03669.154486-.04526.334557-.04526.543111 0 .133244.0105.253934.04526.362074.03669.106208.09275.198175.158407.271555.06566.07338.135536.117855.226296.158407.09076.03862.186045.06789.294185.06789.102345 0 .205355-.0086.294185-.04526.08883-.03669.16257-.09468.226296-.158408.06566-.06372.121716-.141328.158407-.226296.03862-.0869.04526-.17307.04526-.271555-.000002-.09655-.0086-.186587-.04526-.271555-.03669-.08497-.09468-.164501-.158407-.226296-.06372-.06373-.1394-.101018-.226296-.135778-.08497-.03668-.173072-.06789-.271555-.06789-.131313.000002-.235168.04556-.339444.113148-.102347.06758-.183814.157624-.226297.271555 0-.140966.01823-.2727.04526-.384703.02897-.112.06487-.218872.113148-.294185.05021-.07724.111518-.117853.181037-.158407.06952-.04055.141329-.06789.226296-.06789.108138.000002.205355.03066.294185.09052.08883.05793.165044.127814.203666.226297l.113148-.113148c-.056005-.119726-.140788-.203968-.248925-.271557-.108141-.067585-.226901-.113146-.362074-.113148zm-.02263.859925c.07145.000002.13801.01629.203667.04526.06566.02703.132759.06487.181037.113148.04828.04828.08418.115382.113148.181037.02896.06373.04526.130287.04526.203666-.000002.07338-.01629.138011-.04526.203667-.02703.06372-.06294.110131-.113148.158407-.04828.04828-.115383.106812-.181037.135777-.06372.02703-.130288.02263-.203667.02263-.07338 0-.138011.0044-.203666-.02263-.06372-.02896-.1082-.0875-.158408-.135777-.04828-.05021-.106812-.09468-.135777-.158407-.02897-.06373-.02263-.130286-.02263-.203667-.000001-.07338-.0044-.139941.02263-.203666.02897-.06566.06487-.13276.113148-.181037.05021-.04828.11538-.08611.181037-.113148.06566-.02897.130285-.04526.203666-.04526z" opacity=".4"/><path d="m12 1.4999999c-5.7935381 0-10.5000001 4.7064611-10.5000001 10.4999991 0 5.793539 4.706462 10.500003 10.5000001 10.500001 5.793538 0 10.500007-4.706462 10.5-10.500001 0-5.793538-4.706462-10.4999991-10.5-10.4999991z" fill="none" opacity=".4" stroke="#000" stroke-linecap="round" stroke-linejoin="round"/></svg>