<?xml version="1.0" encoding="UTF-8" standalone="no"?>
<svg xmlns:rdf="http://www.w3.org/1999/02/22-rdf-syntax-ns#" xmlns="http://www.w3.org/2000/svg" height="24" width="24" version="1.1" xmlns:cc="http://creativecommons.org/ns#" xmlns:xlink="http://www.w3.org/1999/xlink" xmlns:dc="http://purl.org/dc/elements/1.1/">
 <metadata>
  <rdf:RDF>
   <cc:Work rdf:about="">
    <dc:format>image/svg+xml</dc:format>
    <dc:type rdf:resource="http://purl.org/dc/dcmitype/StillImage"/>
    <dc:title/>
   </cc:Work>
  </rdf:RDF>
 </metadata>
 <defs>
  <radialGradient id="radialGradient1449" gradientUnits="userSpaceOnUse" cy="-.075555" cx="12" gradientTransform="matrix(-2.3475 -2.5104e-8 2.3783e-8 -2.224 40.17 -.16803)" r="8.0937">
   <stop stop-color="#737373" offset="0"/>
   <stop stop-color="#636363" offset=".26238"/>
   <stop stop-color="#4b4b4b" offset=".70495"/>
   <stop stop-color="#3f3f3f" offset="1"/>
  </radialGradient>
 </defs>
 <radialGradient id="c" gradientUnits="userSpaceOnUse" cy="-14.267" cx="12" gradientTransform="matrix(1.9091 9e-8 -1.2e-7 2.7273 -10.909 62.909)" r="11">
  <stop stop-color="#1f1f1f" offset="0"/>
  <stop stop-color="#5c5c5c" offset="1"/>
 </radialGradient>
 <g transform="translate(0 2)">
  <path stroke-linejoin="round" d="m15.299 14.7h-6.7171l-1.1564 2.9h-3.0924l6.3345-15.2h2.8777l6.1092 15.2h-3.2337zm-5.919-2.3h5.0456l-2.2512-6.8763z" stroke-opacity=".43137" stroke="#000" stroke-linecap="round" stroke-width=".866" fill="url(#radialGradient1449)"/>
  <path opacity=".867" d="m2.9316-0.50977-0.048828-0.48828-0.29102 0.029297-0.048828 0.005859-0.048828 0.013672-0.23047 0.072266 0.29492 0.95508 0.17773-0.054688 0.22656-0.023438h2.0371v-1h-2.0684zm3.0684 0.50977h2v-1h-2zm3 0h2v-1h-2zm3 0h2v-1h-2zm3 0h2v-1h-2zm2.9998 0h2.0004v-1h-2.0004zm3.0002 0h0.0127l0.25098 0.023438 0.16406 0.050781 0.16211 0.087891 0.13672 0.11133 0.11133 0.13672 0.08789 0.16211 0.041017 0.42773h0.95508l-0.05664-0.77344-0.01367-0.046875-0.02344-0.044922-0.13281-0.24219-0.02344-0.042969-0.0293-0.037109-0.17578-0.21289-0.0293-0.037109-0.03711-0.029297-0.21289-0.17578-0.03711-0.029297-0.04297-0.023438-0.24219-0.13281-0.04492-0.023438-0.04687-0.013672-0.26758-0.083984-0.04883-0.013672-0.04883-0.005859-0.31543-0.029297-0.023432-0.0019533h-0.06934zm-19.828 0.13477-0.023438 0.044922-0.013672 0.046875-0.083984 0.26758-0.013672 0.048828-0.0058594 0.048828-0.029297 0.29102-0.0019531 0.023438v1.0938h1v-1.0371l0.023438-0.22656 0.050781-0.16602 0.044922-0.083984-0.87891-0.47461zm20.828 3.8652h1v-2h-1zm-21 1h1v-2h-1zm21 2h1v-2h-1zm-21 1h1v-2h-1zm21 2h1v-2h-1zm-21 1h1v-2h-1zm21 2h1v-2h-1zm-21 1h1v-2h-1zm21 2h1v-2h-1zm-21 1h1v-2h-1zm21 1.549h1v-1.549h-1zm-21 0.51936v0.02539l0.00195 0.02344 0.029297 0.29102 0.00586 0.04883 0.013672 0.04883 0.083984 0.26758 0.013672 0.04687 0.023438 0.04492 0.13281 0.24219 0.023438 0.04297 0.029297 0.03711 0.17578 0.21289 0.029297 0.03711 0.037109 0.0293 0.021484 0.01758 0.40234-0.49023 0.28125-0.23047-0.14258-0.17384-0.087891-0.16211-0.050781-0.16406-0.023438-0.22656v-0.81836h-1zm20.945 0.32422-0.0078-0.002-0.01172 0.03711-0.08789 0.16211-0.11133 0.13672-0.13672 0.11133-0.16211 0.08789-0.16406 0.05078-0.22657 0.023485h-0.20312v1h0.25977l0.02344-0.002 0.29102-0.0293 0.04883-0.0059 0.04883-0.01367 0.26758-0.08398 0.04687-0.01367 0.04492-0.02344 0.24219-0.13281 0.04297-0.02344 0.03711-0.0293 0.21289-0.17578 0.03711-0.0293 0.0293-0.03711 0.17578-0.21289 0.0293-0.03711 0.02344-0.04297 0.13281-0.24219 0.02344-0.04492 0.01367-0.04687 0.02734-0.08789-0.92383-0.28516-0.02148-0.01172zm-19.16 1.5957 0.097656 0.0098 0.023438 0.002h2.0938v-1h-2.0371l-0.078125-0.0078zm3.2148 0.011719h2v-1h-2zm3 0h2v-1h-2zm3 0h2v-1h-2zm3 0h2v-1h-2zm3 0h2v-1h-2z" fill="url(#c)"/>
 </g>
 <rect id="rect833" stroke-opacity=".43015" height="3.0003" width="2.9986" stroke="#a62100" y=".5" x="20.501" stroke-width=".99292" fill="#ffc27d"/>
 <use id="use829" xlink:href="#rect833" transform="translate(.0035374 20.003)" height="100%" width="100%" y="0" x="0"/>
 <use xlink:href="#use829" transform="translate(-20.009 -20.007)" height="100%" width="100%" y="0" x="0"/>
 <use xlink:href="#rect833" transform="translate(-20.005 20.003)" height="100%" width="100%" y="0" x="0"/>
</svg>
