<svg viewBox="0 0 24 24" xmlns="http://www.w3.org/2000/svg" xmlns:xlink="http://www.w3.org/1999/xlink"><linearGradient id="a" gradientTransform="translate(15.968656 11.968657)" gradientUnits="userSpaceOnUse" x1="12.031344" x2="12.031344" y1="3.031343" y2="12.031343"><stop offset="0" stop-color="#fff"/><stop offset=".00000007" stop-color="#fff" stop-opacity=".235294"/><stop offset="1" stop-color="#fff" stop-opacity=".156863"/><stop offset="1" stop-color="#fff" stop-opacity=".392157"/></linearGradient><linearGradient id="b" gradientTransform="matrix(.9999874 0 0 .9999874 -10.002767 -.016593)" gradientUnits="userSpaceOnUse" x1="14.551723" x2="14.50295" xlink:href="#a" y1="9.016707" y2="17.016808"/><linearGradient id="c" gradientUnits="userSpaceOnUse" x1="18.635593" x2="9" xlink:href="#g" y1="18.682203" y2="6.580508"/><linearGradient id="d" gradientUnits="userSpaceOnUse" x1="24.635593" x2="15" xlink:href="#g" y1="18.673729" y2="6.572034"/><linearGradient id="e" gradientTransform="matrix(.9999874 0 0 .9999874 -4.002767 3.974933)" gradientUnits="userSpaceOnUse" x1="14.50295" x2="14.50295" xlink:href="#a" y1="8.025168" y2="13.016757"/><linearGradient id="f"><stop offset="0" stop-color="#737373"/><stop offset=".26238" stop-color="#636363"/><stop offset=".704952" stop-color="#4b4b4b"/><stop offset="1" stop-color="#3f3f3f"/></linearGradient><linearGradient id="g"><stop offset="0" stop-opacity=".658824"/><stop offset="1" stop-color="#5c5c5c"/></linearGradient><radialGradient id="h" cx="-1.473815" cy="-42.064499" gradientTransform="matrix(-2.8642857 .00000019 -.00000015 -2.1857141 8.778565 -80.012447)" gradientUnits="userSpaceOnUse" r="10" xlink:href="#f"/><radialGradient id="i" cx="-1.473815" cy="-42.064499" gradientTransform="matrix(-.00000019 -2.8642857 2.1857141 -.00000015 104.01244 8.778566)" gradientUnits="userSpaceOnUse" r="10" xlink:href="#f"/><g stroke-linejoin="round"><g transform="translate(-1.020634 -.020634)"><path d="m15.483051 10.5h3.016949v8h-3.01695z" fill="url(#d)" stroke="#000" stroke-opacity=".6"/><path d="m9.5 7.516949h3.016949l-.01695 10.991525h-3.016949z" fill="url(#c)" stroke="#000" stroke-opacity=".6"/><g fill="none" stroke-width=".999987"><path d="m10.5 8.4999997h1.048774l-.048774 9.0000003h-1z" opacity=".7" stroke="url(#b)"/><path d="m16.483051 11.491526h1.048774l-.03182 6h-1z" opacity=".7" stroke="url(#e)"/></g></g><g fill="none" stroke-linecap="round"><path d="m2.5 18.499949v.998047.002c6.333334-.01 12.666668.01 19 .000004v-1h-19z" stroke="url(#h)"/><path d="m5.500047 2.5000001h-.998047-.002c.01 6.3333345.0154 12.6666679.02539 18.9999999h.974606v-18.9999999z" stroke="url(#i)"/></g><path d="m8.5 2.5h12v2h-12z" fill="#fcaf3e" stroke="#a62100" stroke-miterlimit="0" stroke-opacity=".501961"/></g></svg>