<svg viewBox="0 0 24 24" xmlns="http://www.w3.org/2000/svg" xmlns:xlink="http://www.w3.org/1999/xlink"><radialGradient id="a" cx="2.25" cy="16" gradientTransform="matrix(.53333333 0 0 .11633788 10.8 18.175389)" gradientUnits="userSpaceOnUse" r="16.875"><stop offset="0"/><stop offset="1" stop-opacity="0"/></radialGradient><linearGradient id="b" gradientTransform="matrix(.38705024 0 0 .31920189 2.921125 5.680651)" gradientUnits="userSpaceOnUse" x1="23.598076" x2="37.746555" y1="23.992306" y2="39.486301"><stop offset="0" stop-color="#eeeeec"/><stop offset="1" stop-color="#e0e0de"/></linearGradient><linearGradient id="c" gradientTransform="matrix(.8239774 -.8548421 .7471754 .7309632 -68.713149 11.514804)" gradientUnits="userSpaceOnUse" spreadMethod="pad" x1="23.575972" x2="23.575972" y1="25.356892" y2="31.210939"><stop offset="0" stop-color="#181818"/><stop offset=".13482948" stop-color="#dbdbdb"/><stop offset=".20224422" stop-color="#a4a4a4"/><stop offset=".26965895" stop-color="#fff"/><stop offset=".44650277" stop-color="#8d8d8d"/><stop offset=".57114136" stop-color="#959595"/><stop offset=".72038066" stop-color="#cecece"/><stop offset="1" stop-color="#181818"/></linearGradient><linearGradient id="d" gradientTransform="matrix(.8006848 -.8306768 .8744329 .8554595 -71.348022 8.307975)" gradientUnits="userSpaceOnUse" x1="10.86941" x2="11.083416" y1="25.077497" y2="30.467169"><stop offset="0" stop-color="#1b1b1b"/><stop offset=".13482948" stop-color="#f3f3f3"/><stop offset=".20224422" stop-color="#b6b6b6"/><stop offset=".26965895" stop-color="#fff"/><stop offset=".44650277" stop-color="#9d9d9d"/><stop offset=".57114136" stop-color="#a6a6a6"/><stop offset=".72038066" stop-color="#e5e5e5"/><stop offset="1" stop-color="#1b1b1b"/></linearGradient><linearGradient id="e" gradientTransform="matrix(.6334257 -.05500901 -.03910351 .6392777 -44.564069 .713749)" gradientUnits="userSpaceOnUse" x1="5.711783" x2="9.522056" y1="37.817223" y2="41.391716"><stop offset="0" stop-color="#a1a1a1"/><stop offset="1" stop-color="#828282"/></linearGradient><linearGradient id="f" gradientTransform="matrix(.50000001 0 0 .87500013 -185.75 -29.937501)" gradientUnits="userSpaceOnUse" x1="385" x2="385" y1="8" y2="33"><stop offset="0" stop-color="#e7d198"/><stop offset="1" stop-color="#ba964a"/></linearGradient><linearGradient id="g" gradientTransform="matrix(.33333336 0 0 .86363639 -121.66668 -29.704545)" gradientUnits="userSpaceOnUse" x1="384" x2="384" y1="9" y2="32"><stop offset="0" stop-color="#fff"/><stop offset="1" stop-color="#fff" stop-opacity="0"/></linearGradient><ellipse cx="12" cy="20.036797" display="block" fill="url(#a)" fill-rule="evenodd" opacity=".711111" rx="9" ry="1.963204"/><path d="m3.483564 6.8457158h17.032871v14.0328712h-17.032871z" fill="url(#b)" stroke="#888a85" stroke-linecap="round" stroke-linejoin="round" stroke-width=".967129"/><path d="m4.478763 7.8409138h15.042475v12.0424752h-15.042475z" fill="none" stroke="#fdfdfb" stroke-width=".957525"/><g transform="translate(0 11)"><path d="m4.5-22.5h4v21h-4z" fill="url(#f)" stroke="#956e37" transform="rotate(90)"/><path d="m5.5-21.5h2v19h-2z" fill="none" opacity=".4" stroke="url(#g)" transform="rotate(90)"/><g fill="#956e37"><path d="m4 5h1v2h-1z"/><path d="m7 5h1v2h-1z"/><path d="m10 5h1v2h-1z"/><path d="m13 5h1v2h-1z"/><path d="m16 5h1v2h-1z"/><path d="m19 5h1v2h-1z"/></g></g><g transform="matrix(.5145355 0 0 .5145355 29.975569 4.467802)"><path d="m-20.006264 14.650792c-.16099-.07329-.324292-.04023-.446586.01499l-16.271002 7.315568-2.996075 1.349729-.08686.0291-5.071935 5.131349 7.226102-.334205.07358-.03426 3.009364-1.344566 16.291433-7.370485c.489178-.220903.400051-1.457808-.197775-2.779654-.448378-.99138-1.047268-1.757712-1.530239-1.977572z" fill="#0c0c0c" fill-rule="evenodd" opacity=".15"/><path d="m-39.833733 20.340642c.546127-.450225 1.148697.251117 2.318286 1.395328.540287.775209 1.127409 1.562056 1.392949 2.468889l13.922219-13.951118 7.252295-8.748825c.510123-.529234 3.790545-4.809294 2.583825-5.989829-1.206714-1.180533-5.800195 2.729207-6.310321 3.258442l-7.76415 7.064089z" fill="url(#c)" stroke="#0c0c0c" stroke-linejoin="round" stroke-width=".97175"/><path d="m-39.751115 20.25802c.546126-.450224 1.06608.333736 2.235667 1.477945 1.166791 1.141475 1.79051 1.628788 1.365621 2.194308l13.781544-13.502238.05004-.05192c.0016-.0021-.02894-.02458-.02733-.02673.424887-.565521-.116215-1.878997-1.283005-3.02047-1.169587-1.144209-2.515704-1.68032-3.061832-1.230094l-.05004.051918-13.010668 14.107282z" fill="#0c0c0c" opacity=".6"/><path d="m-36.368366 24.483597c.42489-.565519.193365-1.877941-.973425-3.019416-1.169586-1.144209-2.068506-1.326182-2.614637-.875957-1.450621 2.868332-2.095062 2.633063-4.340424 7.559765.08336.172306.245016.33745.487928.581233z" style="fill-rule:evenodd;stroke-width:.97175;stroke-linecap:round;stroke-linejoin:round;fill:url(#d);stroke:url(#e)"/><path d="m-25.759246 4.937675c.546126-.450225 1.892241.085886 3.061827 1.230096 1.166791 1.141473 1.707895 2.45495 1.283007 3.020469-.0016.00215.02897.024603.02733.026731 1.499799-2.259861 5.463204-5.632013 6.62456-7.842044.424887-.565522 3.372736-4.451842 2.205946-5.593315-1.169587-1.14421-5.204501 1.98369-5.750629 2.433915l-7.452038 6.724148z" fill="#0c0c0c" opacity=".6"/></g></svg>