<svg height="24" width="24" xmlns="http://www.w3.org/2000/svg" xmlns:xlink="http://www.w3.org/1999/xlink"><radialGradient id="a" cx="17.814" cy="24.149" gradientTransform="matrix(-1.4145 0 0 1.356 39.434 -22.854)" gradientUnits="userSpaceOnUse" r="9.125"><stop offset="0" stop-color="#fff"/><stop offset="1" stop-color="#b6b6b6"/></radialGradient><linearGradient id="b"><stop offset="0" stop-color="#fff"/><stop offset=".508" stop-color="#fff" stop-opacity=".235"/><stop offset=".835" stop-color="#fff" stop-opacity=".157"/><stop offset="1" stop-color="#fff" stop-opacity=".392"/></linearGradient><linearGradient id="c" gradientTransform="matrix(.2973 0 0 -.2973 -9.326 19.54)" gradientUnits="userSpaceOnUse" x1="71.204" x2="71.204" xlink:href="#b" y1="6.238" y2="44.341"/><radialGradient id="d" cx="23.896" cy="3.99" gradientTransform="matrix(0 .5277 -.6966 0 14.78 -5.448)" gradientUnits="userSpaceOnUse" r="20.397"><stop offset="0" stop-color="#f8b17e"/><stop offset=".262" stop-color="#e35d4f"/><stop offset=".661" stop-color="#c6262e"/><stop offset="1" stop-color="#690b54"/></radialGradient><linearGradient id="e" gradientUnits="userSpaceOnUse" x1="8.257238" x2="8.257238" y1="7.374122" y2="16.719549"><stop offset="0" stop-color="#791235"/><stop offset="1" stop-color="#c7321f"/></linearGradient><radialGradient id="f" cx="23.896" cy="3.99" gradientTransform="matrix(0 1.2316 -1.6258 0 18.487 -28.722)" gradientUnits="userSpaceOnUse" r="20.397"><stop offset="0" stop-color="#fff"/><stop offset=".262" stop-color="#ddd"/><stop offset=".661" stop-color="#abacae"/><stop offset="1" stop-color="#89898b"/></radialGradient><linearGradient id="g" gradientUnits="userSpaceOnUse" x1="9.098564" x2="9.098564" y1="22.82468" y2="1.205312"><stop offset="0" stop-color="#505050"/><stop offset="1" stop-color="#aaa"/></linearGradient><linearGradient id="h" gradientUnits="userSpaceOnUse" x1="11.728" x2="11.728" xlink:href="#b" y1="2.182" y2="21.748"/><radialGradient id="i" cx="62.625" cy="4.625" gradientTransform="matrix(1.1294 0 0 .2824 -58.73 19.694)" gradientUnits="userSpaceOnUse" r="10.625"><stop offset="0"/><stop offset="1" stop-opacity="0"/></radialGradient><linearGradient id="j" gradientUnits="userSpaceOnUse" x1="11.9" x2="11.9" xlink:href="#b" y1="8.383" y2="15.592"/><linearGradient id="k" gradientUnits="userSpaceOnUse" x1="68.313" x2="68.313" y1="52.925" y2="65.922"><stop offset="0" stop-color="#fff"/><stop offset="1" stop-color="#fff" stop-opacity="0"/></linearGradient><path d="m24 21c0 1.657-5.373 3-12 3s-12-1.343-12-3 5.373-3 12-3 12 1.343 12 3z" fill="url(#i)" fill-rule="evenodd" opacity=".3"/><g stroke-linecap="round" stroke-linejoin="round"><path d="m12 1.5c-5.793 0-10.498 4.708-10.498 10.5s4.706 10.497 10.498 10.497c5.793 0 10.498-4.705 10.498-10.498s-4.706-10.5-10.498-10.5z" fill="url(#f)" stroke="url(#g)" stroke-width="1.004"/><path d="m12 7.502c-2.482 0-4.498 2.016-4.498 4.498s2.016 4.498 4.498 4.498 4.498-2.016 4.498-4.498-2.016-4.498-4.498-4.498z" fill="url(#d)" stroke="url(#e)" stroke-width="1.004"/><g fill="none"><path d="m17.5 12c0-3.038-2.463-5.5-5.5-5.5-3.038 0-5.5 2.463-5.5 5.5 0 3.038 2.462 5.5 5.5 5.5 3.037 0 5.5-2.462 5.5-5.5z" opacity=".5" stroke="url(#c)"/><path d="m21.5 12c0 5.247-4.254 9.5-9.5 9.5-5.247 0-9.5-4.254-9.5-9.5 0-5.247 4.253-9.5 9.5-9.5 5.246 0 9.5 4.253 9.5 9.5z" opacity=".8" stroke="url(#h)"/><path d="m15.5 12c0 1.933-1.567 3.5-3.5 3.5s-3.5-1.567-3.5-3.5 1.567-3.5 3.5-3.5 3.5 1.567 3.5 3.5z" opacity=".5" stroke="url(#j)"/></g></g><path d="m78.34 64.35a11.424 11.424 0 1 1 -22.85 0 11.424 11.424 0 1 1 22.85 0z" fill="url(#k)" opacity=".4" transform="matrix(.175 0 0 .175 .286 -.265)"/><path d="m13.634 8.67 9.095 8.827-4.148.133 1.74 3.612c.533 1.605-1.874 2.206-2.275 1.003l-1.605-3.612-2.943 3.143.133-13.108z" fill="url(#a)" fill-rule="evenodd" stroke="#666" stroke-linejoin="round"/><path d="m14.64 11.06 5.73 5.524-3.303.094 2.118 4.535c.347.613-.083.978-.29.422l-2.208-4.688-2.13 2.247.083-8.135z" fill="none" opacity=".4" stroke="#fff"/></svg>