<svg viewBox="0 0 24 24" xmlns="http://www.w3.org/2000/svg" xmlns:xlink="http://www.w3.org/1999/xlink"><linearGradient id="a" gradientTransform="matrix(.48483606 0 0 .5270602 -.165352 -.400235)" gradientUnits="userSpaceOnUse" x1="24.060406" x2="24.060406" y1="6.451322" y2="10.245955"><stop offset="0" stop-color="#fff"/><stop offset="0" stop-color="#fff" stop-opacity=".235294"/><stop offset=".99999982" stop-color="#fff" stop-opacity=".156863"/><stop offset="1" stop-color="#fff" stop-opacity=".392157"/></linearGradient><linearGradient id="b" gradientUnits="userSpaceOnUse" x1="1.49" x2="1.49" y1="1.493" y2="5.493"><stop offset="0" stop-color="#d4d4d4"/><stop offset="1" stop-color="#abacae"/></linearGradient><linearGradient id="c" gradientTransform="translate(.009659 -.507)" gradientUnits="userSpaceOnUse" x1="3.980341" x2="3.980341" xlink:href="#a" y1="3" y2="5.5"/><linearGradient id="d" gradientTransform="translate(5.009659 -.507)" gradientUnits="userSpaceOnUse" x1="3.980341" x2="3.980341" xlink:href="#a" y1="3" y2="5.5"/><linearGradient id="e" gradientUnits="userSpaceOnUse" x1="12.5" x2="12.5" y1="8" y2="12.788118"><stop offset="0" stop-color="#ffa154"/><stop offset="1" stop-color="#f37329"/></linearGradient><linearGradient id="f" gradientUnits="userSpaceOnUse" x1="12.5" x2="12.5" xlink:href="#k" y1="10" y2="10.5"/><linearGradient id="g" gradientTransform="matrix(.44577 0 0 .44994 .802 -.025)" gradientUnits="userSpaceOnUse" x1="25.132" x2="25.132" y1="15.5" y2="48.396"><stop offset="0" stop-color="#fafafa"/><stop offset="1" stop-color="#e2e1de"/></linearGradient><linearGradient id="h" gradientTransform="matrix(.48484 0 0 .52706 -.165 -.4)" gradientUnits="userSpaceOnUse" x1="24" x2="24" y1="5" y2="43"><stop offset="0" stop-color="#fff"/><stop offset=".063" stop-color="#fff" stop-opacity=".235"/><stop offset=".951" stop-color="#fff" stop-opacity=".157"/><stop offset="1" stop-color="#fff" stop-opacity=".392"/></linearGradient><linearGradient id="i"><stop offset="0"/><stop offset="1" stop-opacity="0"/></linearGradient><linearGradient id="j" gradientTransform="matrix(.5 0 0 .25 -1 3)" gradientUnits="userSpaceOnUse" x1="23.954" x2="23.954" xlink:href="#i" y1="15.999" y2="19.963"/><linearGradient id="k" gradientTransform="matrix(.4054 0 0 .5135 2.27 -.324)" gradientUnits="userSpaceOnUse" x1="24" x2="24.018253" y1="6.474" y2="20.017527"><stop offset="0" stop-color="#fff"/><stop offset="0" stop-color="#fff" stop-opacity=".235"/><stop offset="1" stop-color="#fff" stop-opacity=".157"/><stop offset="1" stop-color="#fff" stop-opacity=".392"/></linearGradient><linearGradient id="l" gradientTransform="matrix(.48572 0 0 .4563 .343 .35)" gradientUnits="userSpaceOnUse" x1="25.132" x2="25.043234" y1=".985" y2="28.72014"><stop offset="0" stop-color="#f4f4f4"/><stop offset="1" stop-color="#dbdbdb"/></linearGradient><radialGradient id="m" cx="605.714" cy="486.648" gradientTransform="matrix(.01205 0 0 .00824 13.24 18.98)" gradientUnits="userSpaceOnUse" r="117.143" xlink:href="#i"/><radialGradient id="n" cx="605.714" cy="486.648" gradientTransform="matrix(-.01205 0 0 .00824 10.76 18.98)" gradientUnits="userSpaceOnUse" r="117.143" xlink:href="#i"/><linearGradient id="o" gradientTransform="matrix(.0352 0 0 .00824 -.725 18.98)" gradientUnits="userSpaceOnUse" x1="302.857" x2="302.857" y1="366.648" y2="609.505"><stop offset="0" stop-opacity="0"/><stop offset=".5"/><stop offset="1" stop-opacity="0"/></linearGradient><g transform="translate(0 -11.018026)"><path d="m3.5 22h17v2h-17z" fill="url(#o)" opacity=".15"/><path d="m3.5 22v2c-.62.004-1.5-.448-1.5-1s.692-1 1.5-1z" fill="url(#n)" opacity=".15"/><path d="m20.5 22v2c.62.004 1.5-.448 1.5-1s-.692-1-1.5-1z" fill="url(#m)" opacity=".15"/></g><path d="m3.5 1.5h17v10h-17z" fill="url(#l)"/><g fill="none"><path d="m19.5 10.5h-15v-8h15z" stroke="url(#k)" stroke-linecap="round"/><path d="m3.554 1.518 16.892-.036.054 10.018h-17z" opacity=".3" stroke="#000" stroke-linejoin="round"/><path d="m6 4.5h4.5" stroke="#c6262e"/><path d="m11.5 4.5h6.5" stroke="#f9c440"/><path d="m18 6.5h-4.5" stroke="#c6262e"/><path d="m12.5 6.5h-6.5" stroke="#f9c440"/></g><g transform="translate(6.01 8.007)"><rect fill="url(#g)" height="13" rx="1" width="10" x="1.49" y="1.493"/><path d="m2.5 2.5 7.99-.007v11h-8z" fill="none" stroke="url(#h)" stroke-linecap="round" stroke-linejoin="round"/><path d="m.99 6.993h11v1h-11z" fill="url(#j)" opacity=".15"/><path d="m1.5 6.163.018 7.3c0 .575.462 1.033 1.036 1.037l7.91.05c.575.005 1.04-.46 1.037-1.035l-.017-7.3" fill="none" opacity=".3" stroke="#000"/><path d="m5.99 6.993h1l.01 8.007h-1zm-3.99 3.007h4v1h-4zm5 0h4v1h-4z" opacity=".321"/><g fill="none"><path d="m2.99 8.493h2" stroke="#c6262e"/><path d="m7.99 8.493h2" stroke="#f9c440"/><path d="m9.99 12.493h-2" stroke="#c6262e"/><path d="m4.99 12.493h-2" stroke="#f9c440"/></g><path d="m2.49.993c-.5453514 0-.7561114.5122229-1 1v4.5h10v-4.5c0-.5453514-.454649-1-1-1z" fill="url(#b)"/><path d="m8.5 8.5c-.831 0-1.5.669-1.5 1.5v4 1h11v-1-4c0-.831-.669-1.5-1.5-1.5zm0 1h3.5v4.5h-4v-4c0-.06925.0138281-.1354531.0390625-.1953125.0757031-.1795781.2531875-.3046875.4609375-.3046875zm4.5 0h3.5c.277 0 .5.223.5.5v4h-4z" fill="#555761" fill-opacity=".501961" transform="translate(-6.01 -8.007)"/><g fill="none" stroke-linecap="round" stroke-linejoin="round"><path d="m2.7164343 1.980288 2.5393184.012712c.1276074.0006388.2302126.082687.230341.1853973l.0039063 3.123681c.0001284.10271-.1027323.1851198-.230341.1853974l-2.5393184.0055243c-.1276084.0002776-.2302129-.0826873-.2303406-.1853973l-.0039063-3.1419173c-.0001276-.10271.1027336-.1860362.2303406-.1853974z" opacity=".5" stroke="url(#c)"/><path d="m7.7164343 1.980288 2.5393187.012712c.127607.0006388.230212.082687.230341.1853973l.0039 3.123681c.000128.10271-.102732.1851198-.230341.1853974l-2.5393124.0055243c-.1276084.0002776-.2302129-.0826873-.2303406-.1853973l-.0039063-3.1419173c-.0001276-.10271.1027336-.1860362.2303406-.1853974z" opacity=".5" stroke="url(#d)"/></g></g><g stroke-opacity=".501961"><path d="m12.50005 12.5-3.0000003-4h6.0000003z" fill="url(#e)" stroke="#a62100" stroke-linecap="round" stroke-linejoin="round"/><path d="m12.5 10.860169-1-1.360169h2z" fill="none" opacity=".5" stroke="url(#f)" stroke-linecap="square"/></g></svg>