<svg height="24" width="24" xmlns="http://www.w3.org/2000/svg" xmlns:xlink="http://www.w3.org/1999/xlink"><linearGradient id="a" gradientTransform="matrix(.65657 -.6598 .73452 .73087 -21.95 5.314)" gradientUnits="userSpaceOnUse" x1="23.576" x2="23.576" y1="25.357" y2="31.211"><stop offset="0" stop-color="#181818"/><stop offset=".135" stop-color="#dbdbdb"/><stop offset=".202" stop-color="#a4a4a4"/><stop offset=".27" stop-color="#fff"/><stop offset=".447" stop-color="#8d8d8d"/><stop offset=".571" stop-color="#959595"/><stop offset=".72" stop-color="#cecece"/><stop offset="1" stop-color="#181818"/></linearGradient><linearGradient id="b" gradientTransform="matrix(.638 -.64114 .85963 .85535 -24.357 1.938)" gradientUnits="userSpaceOnUse" x1="30.038" x2="30.038" xlink:href="#c" y1="24.99" y2="30"/><linearGradient id="c"><stop offset="0" stop-color="#565656"/><stop offset=".5" stop-color="#9a9a9a"/><stop offset="1" stop-color="#545454"/></linearGradient><linearGradient id="d" gradientTransform="matrix(.638 -.64114 .85963 .85535 -24.54 2.122)" gradientUnits="userSpaceOnUse" x1="30.038" x2="30.038" xlink:href="#e" y1="24.99" y2="30"/><linearGradient id="e"><stop offset="0" stop-color="#b1b1b1"/><stop offset=".5" stop-color="#fff"/><stop offset="1" stop-color="#8f8f8f"/></linearGradient><linearGradient id="f" gradientTransform="matrix(.638 -.64114 .85963 .85535 -23.722 1.3)" gradientUnits="userSpaceOnUse" x1="30.038" x2="30.038" xlink:href="#c" y1="24.99" y2="30"/><linearGradient id="g" gradientTransform="matrix(.638 -.64114 .85963 .85535 -23.905 1.484)" gradientUnits="userSpaceOnUse" x1="30.038" x2="30.038" xlink:href="#e" y1="24.99" y2="30"/><linearGradient id="h" gradientTransform="matrix(.638 -.64114 .85963 .85535 -23.084 .66)" gradientUnits="userSpaceOnUse" x1="30.038" x2="30.038" xlink:href="#c" y1="24.99" y2="30"/><linearGradient id="i" gradientTransform="matrix(.638 -.64114 .85963 .85535 -23.267 .843)" gradientUnits="userSpaceOnUse" x1="30.038" x2="30.038" xlink:href="#e" y1="24.99" y2="30"/><linearGradient id="j" gradientTransform="matrix(.638 -.64114 .85963 .85535 -24.6 2.182)" gradientUnits="userSpaceOnUse" x1="9" x2="9" y1="29.057" y2="26.03"><stop offset="0" stop-color="#ece5a5"/><stop offset="1" stop-color="#fcfbf2"/></linearGradient><linearGradient id="k" gradientTransform="matrix(.56036 .0242 .02416 .55967 -1.392 -1.445)" gradientUnits="userSpaceOnUse" x1="5.518" x2="9.522" y1="37.372" y2="41.392"><stop offset="0" stop-color="#dbce48"/><stop offset="1" stop-color="#c5b625"/></linearGradient><linearGradient id="l" gradientTransform="matrix(.4054 0 0 .46216 2.27 .858)" gradientUnits="userSpaceOnUse" x1="24" x2="24" y1="2.787" y2="43"><stop offset="0" stop-color="#fff"/><stop offset=".036" stop-color="#fff" stop-opacity=".235"/><stop offset=".951" stop-color="#fff" stop-opacity=".157"/><stop offset="1" stop-color="#fff" stop-opacity=".392"/></linearGradient><linearGradient id="m" gradientTransform="matrix(.48572 0 0 .4148 .343 1.363)" gradientUnits="userSpaceOnUse" x1="25.132" x2="25.132" y1="-3.719" y2="47.013"><stop offset="0" stop-color="#f4f4f4"/><stop offset="1" stop-color="#dbdbdb"/></linearGradient><linearGradient id="n" gradientTransform="matrix(.3922 0 0 .3882 29.2 .9)" gradientUnits="userSpaceOnUse" x1="-51.786" x2="-51.786" y1="50.786" y2="2.906"><stop offset="0" stop-color="#a0a0a0"/><stop offset="1" stop-color="#bebebe"/></linearGradient><radialGradient id="o" cx="605.714" cy="486.648" gradientTransform="matrix(.01205 0 0 .00824 13.24 17.98)" gradientUnits="userSpaceOnUse" r="117.143" xlink:href="#p"/><linearGradient id="p"><stop offset="0"/><stop offset="1" stop-opacity="0"/></linearGradient><radialGradient id="q" cx="605.714" cy="486.648" gradientTransform="matrix(-.01205 0 0 .00824 10.76 17.98)" gradientUnits="userSpaceOnUse" r="117.143" xlink:href="#p"/><linearGradient id="r" gradientTransform="matrix(.0352 0 0 .00824 -.725 17.98)" gradientUnits="userSpaceOnUse" x1="302.857" x2="302.857" y1="366.648" y2="609.505"><stop offset="0" stop-opacity="0"/><stop offset=".5"/><stop offset="1" stop-opacity="0"/></linearGradient><path d="m3.5 21h17v2h-17z" fill="url(#r)" opacity=".15"/><path d="m3.5 21v2c-.62.004-1.5-.448-1.5-1s.692-1 1.5-1z" fill="url(#q)" opacity=".15"/><path d="m20.5 21v2c.62.004 1.5-.448 1.5-1s-.692-1-1.5-1z" fill="url(#o)" opacity=".15"/><path d="m3.5 1.5h17v20h-17z" fill="url(#m)" stroke="url(#n)" stroke-linejoin="round"/><g fill="none"><path d="m19.5 20.5h-15v-18h15z" stroke="url(#l)" stroke-linecap="round"/><path d="m6 4.505h2.344zm5.22 0h1.936zm2.25 0h.842zm-3.408 2h1.75zm2.063 0h.875zm1.22 0h1.592zm1.936 0h1.626zm-9.281 2.03h1.594zm2.094 0h5.906zm-2.094 2.965h3.094zm3.406 0h5.063zm5.375 0h2.47zm-8.781 2h2.344zm2.688 0h2.156zm2.53 0h1.938zm2.25 0h.845zm1.188 0h1.875zm-8.656 3h3.094zm3.406 0h5.063zm5.375 0h2.47zm-8.781 2h3.875zm4.22 0h1.75z" stroke="#aaa"/><path d="m12.13 6.505h.876zm-4.03 2.03h5.906zm6.688 2.965h2.468zm-6.094 2h2.156z" stroke="#e20000"/></g><path d="m6 6h3.674v1h-3.674zm2.61-2h2.257v1h-2.257zm3.67 14h3.597v1h-3.597z" fill="#e20000"/><path d="m21.362 19.94c-.137-.02-.245-.008-.316.008l-9.546 2.197-1.756.405-.054.01-2.136 1.505 5.097-.135.044-.01 1.768-.404 9.543-2.212c.287-.067-.142-.423-.96-.8-.615-.284-1.27-.502-1.683-.563z" fill="#0c0c0c" fill-rule="evenodd" opacity=".15"/><path d="m3.996 16.48c.446-.335 1.697.293 2.847 1.437 1.147 1.14 1.75 2.362 1.424 2.813 0 0 .028.025.027.026l16.01-16.088c.406-.41-.225-1.7-1.41-2.88-1.189-1.18-2.484-1.805-2.889-1.398z" fill="url(#a)" stroke="#0c0c0c" stroke-linejoin="round" stroke-width=".5" transform="matrix(.68916 0 0 .68916 7.023 7.518)"/><path d="m19.464 9.14c.307-.23 1.17.203 1.962.99.79.788 1.207 1.63.98 1.94l.02.018 1.346-1.353.028-.028-.02-.018c.227-.312-.19-1.153-.98-1.94-.793-.788-1.655-1.22-1.962-.99l-.028.027z" fill="#ffb6ed" opacity=".8" stroke="#e28ccd" stroke-linejoin="round" stroke-width=".34458"/><path d="m9.777 18.875c.307-.23 1.17.202 1.962.99.79.787 1.206 1.63.98 1.94l.02.017 7.597-7.635.028-.028c0-.002-.02-.018-.02-.02.227-.31-.19-1.15-.98-1.938-.793-.788-1.655-1.22-1.962-.99l-.028.027z" fill="#0c0c0c" opacity=".6"/><path d="m15.862 4.555c.446-.334 1.697.293 2.847 1.437 1.146 1.142 1.75 2.363 1.423 2.813 0 .002.028.025.027.027l.2-.2c0-.002-.03-.025-.028-.027.327-.45-.277-1.672-1.424-2.813-1.15-1.144-2.4-1.772-2.847-1.437z" fill="url(#b)" transform="matrix(.68916 0 0 .68916 7.023 7.518)"/><path d="m15.68 4.74c.445-.336 1.696.292 2.846 1.436 1.147 1.14 1.75 2.363 1.424 2.813 0 0 .028.024.027.026l.2-.2c0-.002-.03-.026-.027-.027.327-.452-.278-1.673-1.425-2.814-1.15-1.144-2.4-1.772-2.847-1.437z" fill="url(#d)" transform="matrix(.68916 0 0 .68916 7.023 7.518)"/><path d="m16.497 3.917c.446-.334 1.697.293 2.847 1.437 1.147 1.142 1.75 2.363 1.424 2.813 0 .002.028.025.027.027l.2-.2c0-.002-.03-.025-.028-.027.327-.45-.277-1.672-1.424-2.813-1.15-1.144-2.4-1.772-2.847-1.437z" fill="url(#f)" transform="matrix(.68916 0 0 .68916 7.023 7.518)"/><path d="m16.314 4.1c.446-.334 1.697.294 2.847 1.438 1.148 1.14 1.752 2.363 1.425 2.813 0 .003.028.026.027.028l.2-.2c0-.002-.03-.026-.027-.027.327-.45-.278-1.67-1.425-2.812-1.15-1.144-2.4-1.772-2.847-1.437z" fill="url(#g)" transform="matrix(.68916 0 0 .68916 7.023 7.518)"/><path d="m17.135 3.276c.446-.334 1.697.293 2.847 1.437 1.147 1.142 1.75 2.363 1.424 2.813 0 .002.028.025.027.027l.2-.2c0-.002-.03-.025-.028-.027.327-.45-.277-1.672-1.424-2.813-1.15-1.144-2.4-1.772-2.846-1.437z" fill="url(#h)" transform="matrix(.68916 0 0 .68916 7.023 7.518)"/><path d="m16.952 3.46c.446-.335 1.697.293 2.847 1.437 1.146 1.14 1.75 2.362 1.423 2.813 0 0 .028.025.027.026l.2-.2c0-.002-.03-.025-.027-.027.327-.45-.278-1.672-1.425-2.813-1.15-1.145-2.4-1.772-2.847-1.438z" fill="url(#i)" transform="matrix(.68916 0 0 .68916 7.023 7.518)"/><g fill-rule="evenodd"><path d="m.928 23.76 7.283-2.97.063-.06c.327-.452-.285-1.673-1.432-2.814-1.15-1.144-2.398-1.77-2.844-1.434z" fill="url(#j)" stroke="url(#k)" stroke-width=".5" transform="matrix(.68916 0 0 .68916 7.023 7.518)"/><path d="m8.235 22.535-.573 1.353 1.37-.56c-.11-.133-.212-.266-.344-.397-.15-.15-.3-.273-.453-.395z" fill="#0c0c0c" stroke="#0c0c0c" stroke-width=".34458"/></g></svg>