<svg height="24" viewBox="0 0 24 24" width="24" xmlns="http://www.w3.org/2000/svg" xmlns:xlink="http://www.w3.org/1999/xlink"><radialGradient id="a" cx="16.999999" cy="14.815425" gradientUnits="userSpaceOnUse" r="3.932233" xlink:href="#e"/><linearGradient id="b" gradientTransform="matrix(.27961814 0 0 -.26116043 25.022124 16.69338)" gradientUnits="userSpaceOnUse" x1="25.46862" x2="25.46862" y1="32.841259" y2="2.723591"><stop offset="0" stop-color="#d1ff82"/><stop offset=".26238" stop-color="#9bdb4d"/><stop offset=".66093999" stop-color="#68b723"/><stop offset="1" stop-color="#3a9104"/></linearGradient><linearGradient id="c" gradientTransform="matrix(0 .3060607 .32769183 0 25.520628 2.564309)" gradientUnits="userSpaceOnUse" x1="20.796995" x2="37.473785" y1="20.64884" y2="20.64884"><stop offset="0" stop-color="#fff"/><stop offset=".51153916" stop-color="#fff" stop-opacity=".235294"/><stop offset=".58522105" stop-color="#fff" stop-opacity=".156863"/><stop offset="1" stop-color="#fff" stop-opacity=".392157"/></linearGradient><linearGradient id="d" gradientTransform="matrix(.04846 0 0 .5238 -20.405 -109.176)" gradientUnits="userSpaceOnUse" x1="292.85699" x2="292.85699" y1="211.076" y2="233.827"><stop offset="0"/><stop offset="1" stop-opacity="0"/></linearGradient><linearGradient id="e"><stop offset="0" stop-color="#64baff"/><stop offset="1" stop-color="#3689e6"/></linearGradient><linearGradient id="f" gradientTransform="matrix(.8048 0 0 .60166 -516.818 -395.08)" gradientUnits="userSpaceOnUse" x1="731.05701" x2="731.05701" xlink:href="#e" y1="654.815" y2="619.30701"/>



/&amp;amp;amp;amp;amp;amp;gt;<rect fill="url(#f)" height="11.000002" opacity=".99" rx="2" transform="scale(-1)" width="11" x="-12.5" y="-12.5"/><rect fill="none" height="11" opacity=".3" rx="2" stroke="#000" stroke-linecap="round" stroke-linejoin="round" transform="scale(-1 1)" width="11" x="-12.5" y="1.5"/><rect fill="none" height="9" opacity=".05" rx="1" stroke="url(#d)" stroke-linecap="round" stroke-linejoin="round" transform="scale(-1 1)" width="9" x="-11.5" y="2.5"/><path d="m10.5 3.5 1.6775 1.51-5.6375 7.45-4.3625-3.758334 1.4433333-1.913333 2.55 2.215z" fill="#2f78c7" fill-opacity=".992" stroke-width=".833333"/><path d="m10.5 2.666666 1.6775 1.51-5.6375 7.45-4.3625-3.758333 1.4433333-1.913333 2.55 2.215z" fill="#fff" stroke-width=".833333"/><circle cx="17" cy="17" fill="#fafafa" r="6.5" stroke="#7e8087" stroke-linecap="round" stroke-linejoin="round" stroke-opacity=".552941"/><circle cx="17" cy="17" fill="url(#a)" r="3.495318" stroke="#002e99" stroke-linecap="round" stroke-linejoin="round" stroke-opacity=".552941"/><g transform="translate(-25.002637 7.892877)"><path d="m29.30271 6.589085c-3.550424 2.4050402-1.417791 7.018039 2.199927 7.018039v1.910877l5-3.571427-5-3.3394508v1.9999998c-2.552377.09933-3.668166-2.3398838-1.843474-4.018038z" display="block" fill="url(#b)"/><g fill="none"><path d="m28.620701 7.833176c-1.252468 1.4706152-.124646 5.310408 3.881936 4.78517v.988778l2.330149-1.66055-2.330149-1.509302v.791685c-4.396795.235118-4.256087-2.8012878-3.881936-3.395781z" display="block" opacity=".8" stroke="url(#c)" stroke-miterlimit="7" stroke-width=".963925"/><path d="m29.30271 6.5890852c-3.550424 2.40504-1.417791 7.0180388 2.199927 7.0180388v1.910877l5-3.571427-5-3.3394508v1.9999998c-2.552377.09933-3.668166-2.3398838-1.843474-4.0180378z" opacity=".5" stroke="#206b00" stroke-linecap="round" stroke-linejoin="round"/></g></g></svg>