<svg height="24" width="24" xmlns="http://www.w3.org/2000/svg" xmlns:xlink="http://www.w3.org/1999/xlink"><linearGradient id="a" gradientUnits="userSpaceOnUse" x1="5.980485" x2="6.336418" y1="13.64863" y2="23.140155"><stop offset="0" stop-color="#f4f4f4"/><stop offset="1" stop-color="#dbdbdb"/></linearGradient><linearGradient id="b" gradientUnits="userSpaceOnUse" x1="1.124553" x2="1.124553" y1="22.623205" y2="13.623208"><stop offset="0" stop-opacity=".339506"/><stop offset="1" stop-opacity=".246914"/></linearGradient><linearGradient id="c" gradientTransform="translate(-.375437 8.123209)" gradientUnits="userSpaceOnUse" x1="5.525419" x2="5.644064" xlink:href="#d" y1="6.81356" y2="12.711864"/><linearGradient id="d" gradientTransform="matrix(.24324324 0 0 .35135133 2.162164 -.432428)" gradientUnits="userSpaceOnUse" x1="23.99999" x2="23.99999" y1="6.923065" y2="41.076912"><stop offset="0" stop-color="#fff"/><stop offset=".50851709" stop-color="#fff" stop-opacity=".235294"/><stop offset="1" stop-color="#fff" stop-opacity=".156863"/><stop offset="1" stop-color="#fff" stop-opacity=".392157"/></linearGradient><linearGradient id="e" gradientTransform="matrix(1.3079343 0 0 1.3079343 -2.880693 6.460329)" gradientUnits="userSpaceOnUse" x1="11.52958" x2="11.596296" xlink:href="#d" y1="1.311899" y2="7.636671"/><linearGradient id="f" gradientUnits="userSpaceOnUse" x1="10.500027" x2="10.500027" y1="8" y2="18.500027"><stop offset="0" stop-color="#cd9ef7"/><stop offset="1" stop-color="#a56de2"/></linearGradient><g transform="matrix(1.33333 0 0 1.33333 1 -9.66664)"><g stroke-miterlimit="0" stroke-width=".750002" transform="translate(0 .750002)"><path d="m1.1245534 13.623208h9.7457616v8.999997h-9.7457616z" fill="url(#a)" stroke="url(#b)" stroke-linejoin="round"/><path d="m1.8781411 14.368972h8.2337059l.0217 7.523896h-8.2337053z" fill="none" stroke="url(#c)"/></g><path d="m-.75000188 23.750002 1.50000376.000076v1.500002h-1.50000376z" fill="#555753" stroke-width="2"/><g stroke-linejoin="round" stroke-miterlimit="0" stroke-width=".750002" transform="translate(-.750002 .750002)"><path d="m16.875042 13.000003a5.3684559 5.3684577 0 1 1 -10.7369113 0 5.3684559 5.3684577 0 1 1 10.7369113 0z" fill="url(#f)" stroke="#7239b3" stroke-opacity=".498039"/><path d="m16.08435 13.000001a4.5777706 4.5777716 0 1 1 -9.1555411 0 4.5777706 4.5777716 0 1 1 9.1555411 0z" fill="none" stroke="url(#e)"/></g><g fill="#555753" stroke-width="2"><path d="m11.250028 23.750039 1.500004.000076v1.500002h-1.500004z"/><path d="m15.750039 7.2499221 1.500004.000076v1.500002h-1.500004z"/><path d="m-.75000212 12.499937 1.500004.000076v1.500002h-1.500004z"/><path d="m15.750039 18.49995 1.500004.000076v1.500002h-1.500004z"/><path d="m3.7500091 18.49995 1.500004.000076v1.500002h-1.500004z"/><path d="m3.7500091 7.2499221 1.500004.000076v1.500002h-1.500004z"/></g></g></svg>