<svg height="24" width="24" xmlns="http://www.w3.org/2000/svg" xmlns:xlink="http://www.w3.org/1999/xlink"><linearGradient id="a" gradientTransform="matrix(.31428606 0 0 .32378988 .457153 -.316822)" gradientUnits="userSpaceOnUse" x1="25.132275" x2="25.221258" xlink:href="#h" y1=".985206" y2="51.832962"/><linearGradient id="b" gradientTransform="matrix(.24324324 0 0 .35135133 2.162164 -.432428)" gradientUnits="userSpaceOnUse" x1="23.99999" x2="23.99999" y1="6.923065" y2="41.076912"><stop offset="0" stop-color="#fff"/><stop offset="0" stop-color="#fff" stop-opacity=".235294"/><stop offset="1" stop-color="#fff" stop-opacity=".156863"/><stop offset="1" stop-color="#fff" stop-opacity=".392157"/></linearGradient><linearGradient id="c" gradientTransform="matrix(.25378586 0 0 .30501865 19.128979 -.685477)" gradientUnits="userSpaceOnUse" x1="-51.786404" x2="-51.786404" y1="50.786446" y2="2.906247"><stop offset="0" stop-opacity=".339506"/><stop offset="1" stop-opacity=".246914"/></linearGradient><linearGradient id="d" gradientTransform="matrix(.02071006 0 0 .00617647 .514794 15.235447)" gradientUnits="userSpaceOnUse" x1="302.85715" x2="302.85715" xlink:href="#i" y1="366.64789" y2="609.50507"/><radialGradient id="e" cx="605.71429" cy="486.64789" gradientTransform="matrix(-.00803239 0 0 .00617647 7.840805 15.23546)" gradientUnits="userSpaceOnUse" r="117.14286" xlink:href="#g"/><linearGradient id="f" gradientTransform="matrix(.31428605 0 0 .34691773 .457153 -.375166)" gradientUnits="userSpaceOnUse" x1="25.132275" x2="25.221258" xlink:href="#h" y1=".985206" y2="51.832962"/><linearGradient id="g"><stop offset="0"/><stop offset="1" stop-opacity="0"/></linearGradient><linearGradient id="h"><stop offset="0" stop-color="#f4f4f4"/><stop offset="1" stop-color="#dbdbdb"/></linearGradient><linearGradient id="i"><stop offset="0" stop-opacity="0"/><stop offset=".5"/><stop offset="1" stop-opacity="0"/></linearGradient><radialGradient id="j" cx="605.71429" cy="486.64789" gradientTransform="matrix(-.00803239 0 0 .00617647 11.840805 18.23546)" gradientUnits="userSpaceOnUse" r="117.14286" xlink:href="#g"/><linearGradient id="k" gradientTransform="matrix(.02071006 0 0 .00617647 4.514794 18.235447)" gradientUnits="userSpaceOnUse" x1="302.85715" x2="302.85715" xlink:href="#i" y1="366.64789" y2="609.50507"/><linearGradient id="l" gradientTransform="matrix(.31428497 0 0 .32592538 .45716 -.322209)" gradientUnits="userSpaceOnUse" x1="25.132275" x2="25.132275" xlink:href="#h" y1=".985206" y2="47.013336"/><linearGradient id="m" gradientTransform="matrix(.02071006 0 0 .00617647 23.006319 8.633711)" gradientUnits="userSpaceOnUse" x1="302.85715" x2="302.85715" xlink:href="#i" y1="366.64789" y2="609.50507"/><radialGradient id="n" cx="605.71429" cy="486.64789" gradientTransform="matrix(-.00803239 0 0 .00617647 30.33233 8.633724)" gradientUnits="userSpaceOnUse" r="117.14286" xlink:href="#g"/><radialGradient id="o" cx="605.71429" cy="486.64789" gradientTransform="matrix(.00803239 0 0 .00617647 30.651196 8.633724)" gradientUnits="userSpaceOnUse" r="117.14286" xlink:href="#g"/><path d="m3.000001 17.500035h10v1.5h-10z" fill="url(#d)" opacity=".15"/><path d="m3.000001 17.5001v1.499919c-.413648.0029-1-.336056-1-.750057 0-.413999.4616-.749862 1-.749862z" fill="url(#e)" opacity=".15"/><g transform="translate(0 1)"><path d="m2.5.5c2.5206668 0 11.000025.001016 11.000025.001016l.000013 15.965112s-7.3333588 0-11.000038 0c0-5.322042 0-10.6440857 0-15.966128z" fill="url(#f)" stroke-width="1.120038"/><g fill="none"><path d="m12.5 15.516949h-9.0000001v-14.016949h9.0000001z" stroke="url(#b)" stroke-linecap="round"/><path d="m2.4999621.49997396c2.5206756 0 11.0000629.000954 11.0000629.000954l.000013 15.96520004h-11.000076z" stroke="url(#c)" stroke-linejoin="round" stroke-width=".999922"/></g></g><path d="m5 3h9l.000009 14.999133-9.000009.000867v-14.999962z" opacity=".05"/><path d="m7.000001 20.500035h10v1.5h-10z" fill="url(#k)" opacity=".15"/><path d="m7.000001 20.5001v1.499919c-.413648.0029-1-.336056-1-.750057 0-.413999.4616-.749862 1-.749862z" fill="url(#j)" opacity=".15"/><g transform="translate(4 4)"><path d="m2.5.5c2.5206668 0 11.000025.00094775 11.000025.00094775l.000013 15.96518025h-11.000038z" fill="url(#a)" stroke-width="1.08206"/><g fill="none"><path d="m12.5 15.516949h-9.0000001v-14.016949h9.0000001z" stroke="url(#b)" stroke-linecap="round"/><path d="m2.4999621.49997396c2.5206756 0 11.0000629.000954 11.0000629.000954l-.000025 15.99907204-11.000038-.033872z" stroke="url(#c)" stroke-linejoin="round" stroke-width=".999922"/></g></g><path d="m9 6h9l.000009 14.999133-9.000009.000867v-14.999962z" opacity=".05"/><g transform="translate(8 7)"><path d="m2.5.5c2.5206581 0 10.999987.000954 10.999987.000954l.000013 14.999046s-7.3333335 0-11 0c0-4.999999 0-10.0000003 0-15z" fill="url(#l)" stroke-width="1.08562"/><g fill="none"><path d="m12.5 14.5h-9.0000001v-13h9.0000001z" stroke="url(#b)" stroke-linecap="round"/><path d="m2.4999621.49997396c2.5206756 0 11.0000629.000954 11.0000629.000954l-.000025 14.99907204-11.000038.000026z" stroke="url(#c)" stroke-linejoin="round" stroke-width=".999922"/></g></g><g transform="translate(-14.491525 11.601735)"><path d="m25.491526 10.8983h10v1.5h-10z" fill="url(#m)" opacity=".15"/><path d="m25.491526 10.898364v1.499919c-.413648.0029-1-.336056-1-.750057 0-.413999.4616-.749862 1-.749862z" fill="url(#n)" opacity=".15"/><path d="m35.492 10.898364v1.499919c.413648.0029 1-.336056 1-.750057 0-.413999-.4616-.749862-1-.749862z" fill="url(#o)" opacity=".15"/></g></svg>