<svg height="24" width="24" xmlns="http://www.w3.org/2000/svg" xmlns:xlink="http://www.w3.org/1999/xlink"><radialGradient id="a" cx="22.571428" cy="30.857143" gradientTransform="matrix(.30275225 0 0 .13549598 -1.369265 12.178848)" gradientUnits="userSpaceOnUse" r="15.571428"><stop offset="0"/><stop offset="1" stop-opacity="0"/></radialGradient><linearGradient id="b" gradientUnits="userSpaceOnUse" x1="13.557236" x2="8.018189" y1="9.712545" y2="3.065689"><stop offset="0" stop-color="#1f1f1f"/><stop offset="1" stop-color="#5c5c5c"/></linearGradient><g transform="translate(0 2)"><ellipse cx="5.464286" cy="16.359867" fill="url(#a)" opacity=".2" rx="4.714285" ry="2.890133"/><g transform="matrix(-1 0 0 -1 37.265352 20.055787)"><path d="m17.342697 3.3386364 1.800059-1.2000382 1.800057 1.2000382" fill="none" stroke="#ce5c00" stroke-linecap="round" stroke-width="3.600116"/><path d="m19.142578 1.3457031-2.166016 1.4433594a.66060253.66060253 0 1 0  .732422 1.0996094l1.433594-.9570313 1.433594.9570313a.66060253.66060253 0 1 0  .732422-1.0996094z" fill="#fcaf3e"/></g><g transform="matrix(-1 0 0 1 37.265352 -.055788)"><path d="m17.342697 3.3386364 1.800059-1.2000382 1.800057 1.2000382" fill="none" stroke="#ce5c00" stroke-linecap="round" stroke-width="3.600116"/><path d="m19.142578 1.3457031-2.166016 1.4433594a.66060253.66060253 0 1 0  .732422 1.0996094l1.433594-.9570313 1.433594.9570313a.66060253.66060253 0 1 0  .732422-1.0996094z" fill="#fcaf3e"/></g><text style="font-size:20.505558;font-family:sans-serif;letter-spacing:0;word-spacing:0;opacity:.66;stroke:#000;stroke-width:1.107809;fill:url(#b)" transform="matrix(0 -.98294772 1.0173481 0 1.057331 22.097208)" x="6.270777" y="17.1486"><tspan fill="url(#b)" font-family="Noto Sans" font-weight="bold" stroke="#000" stroke-width="1.107809" x="6.270777" y="17.1486">T</tspan></text></g></svg>