<svg height="24" width="24" xmlns="http://www.w3.org/2000/svg" xmlns:xlink="http://www.w3.org/1999/xlink"><linearGradient id="a" gradientTransform="matrix(.68946585 0 0 .93677434 3.976097 13.625741)" gradientUnits="userSpaceOnUse" x1="3.5" x2="28.5" y1="6" y2="6"><stop offset="0" stop-color="#ff1d1d"/><stop offset=".16829631" stop-color="#ff8a18"/><stop offset=".31939223" stop-color="#ffe92a"/><stop offset=".50751495" stop-color="#91ea3a"/><stop offset=".6893779" stop-color="#1d72e0"/><stop offset=".87265676" stop-color="#a91ec0"/><stop offset="1" stop-color="#ff0b88"/></linearGradient><linearGradient id="b" gradientTransform="matrix(.3673 0 0 .36733 15.431 .868)" gradientUnits="userSpaceOnUse" x1="-17.508848" x2="-17.508848" y1="35.74987" y2="41.194565"><stop offset="0" stop-color="#fff"/><stop offset=".00000007" stop-color="#fff" stop-opacity=".235"/><stop offset=".63202661" stop-color="#fff" stop-opacity=".157"/><stop offset="1" stop-color="#fff" stop-opacity=".392"/></linearGradient><linearGradient id="c" gradientTransform="matrix(.99801056 0 0 1.0626878 -14.968169 10.982075)" gradientUnits="userSpaceOnUse" x1="23.314552" x2="23.915749" y1="1.428383" y2="4.251413"><stop offset="0" stop-opacity=".339506"/><stop offset="1" stop-opacity=".246914"/></linearGradient><linearGradient id="d"><stop offset="0"/><stop offset="1" stop-opacity="0"/></linearGradient><linearGradient id="e" gradientTransform="matrix(-.8660254 -.5 -.5 .8660254 25.784682 -1.220038)" gradientUnits="userSpaceOnUse" x1="10.308109" x2="-2.003653" xlink:href="#d" y1="17.140203" y2="10.036304"/><linearGradient id="f" gradientTransform="matrix(-.8660254 -.5 -.5 .8660254 25.737843 11.17534)" gradientUnits="userSpaceOnUse" x1="10.636931" x2="-1.841883" xlink:href="#d" y1="17.100588" y2="9.662432"/><linearGradient id="g" gradientTransform="matrix(-.8660254 -.5 -.5 .8660254 25.784682 8.890634)" gradientUnits="userSpaceOnUse" x1="10.488523" x2="-2.194253" xlink:href="#d" y1="17.688837" y2="10.366432"/><g transform="matrix(1.3343663 0 0 1.3343663 -8.02557 -5.306729)"><path d="m6.3892276 17.841225v3.747097h17.2366464v-3.747097z" fill="url(#a)"/><g fill="none"><path d="m8.3469834 8.6596772s3.7033486 1.301366 6.8262716-.2641368c3.224201-1.6162718 7.32849 1.5767798 7.32849 1.5767798" stroke="url(#e)" stroke-width="1.498839"/><g transform="translate(0 -7.494194)"><path d="m8.3001444 21.055056s3.7033486 1.301366 6.8262716-.264137c3.224201-1.616272 7.32849 1.57678 7.32849 1.57678" stroke="url(#f)" stroke-dasharray="1.498839 .74942" stroke-width=".74942"/><path d="m8.3469834 18.77035s3.7033486 1.301366 6.8262716-.264137c3.224201-1.616272 7.32849 1.57678 7.32849 1.57678" stroke="url(#g)" stroke-width=".749419"/></g><g stroke-linecap="square" transform="matrix(.74941941 0 0 .74941941 6.014518 8.473482)"><path d="m1.5 13.5h21v3h-21z" opacity=".6" stroke="url(#b)"/><path d="m.5 12.5h23v5h-23z" stroke="url(#c)"/></g></g></g></svg>