<svg height="24" width="24" xmlns="http://www.w3.org/2000/svg" xmlns:xlink="http://www.w3.org/1999/xlink"><linearGradient id="a"><stop offset="0" stop-color="#6c6c6c" stop-opacity=".7"/><stop offset="1" stop-color="#c1c1c1"/></linearGradient><linearGradient id="b"><stop offset="0"/><stop offset="1" stop-opacity="0"/></linearGradient><radialGradient id="c" cx="605.71429" cy="486.64789" gradientTransform="matrix(.01204859 0 0 .0082353 13.238793 16.980564)" gradientUnits="userSpaceOnUse" r="117.14286" xlink:href="#b"/><radialGradient id="d" cx="605.71429" cy="486.64789" gradientTransform="matrix(-.01204859 0 0 .0082353 10.761206 16.980564)" gradientUnits="userSpaceOnUse" r="117.14286" xlink:href="#b"/><linearGradient id="e" gradientTransform="matrix(.0352071 0 0 .0082353 -.724852 16.980547)" gradientUnits="userSpaceOnUse" x1="302.85715" x2="302.85715" y1="366.64789" y2="609.50507"><stop offset="0" stop-opacity="0"/><stop offset=".5"/><stop offset="1" stop-opacity="0"/></linearGradient><linearGradient id="f" gradientUnits="userSpaceOnUse" x1="16" x2="16" y1="3" y2="19.000001"><stop offset="0" stop-color="#f4f4f4"/><stop offset="1" stop-color="#dbdbdb"/></linearGradient><linearGradient id="g" gradientTransform="matrix(.88235294 0 0 .88235295 1.411765 1.411765)" gradientUnits="userSpaceOnUse" x1="12" x2="12" y1="24.466665" y2="2.933333"><stop offset="0" stop-color="#fff" stop-opacity=".502"/><stop offset="1" stop-color="#fff" stop-opacity="0"/></linearGradient><linearGradient id="h" gradientUnits="userSpaceOnUse" x1="1.204373" x2="14.20437" xlink:href="#a" y1="7.63709" y2="7.63709"/><linearGradient id="i" gradientUnits="userSpaceOnUse" x1="7.704372" x2="7.704372" xlink:href="#a" y1="-1.026171" y2="15.219138"/><linearGradient id="j" gradientUnits="userSpaceOnUse" x1="9.872277" x2="9.872277" y1="15.22011" y2="-2.10822"><stop offset="0" stop-color="#fff"/><stop offset="1" stop-color="#fff" stop-opacity="0"/></linearGradient><path d="m3.5 20h16.999998v2h-16.999998z" fill="url(#e)" opacity=".15"/><path d="m3.5 20.000085v1.999891c-.620472.0038-1.5-.448075-1.5-1.000075 0-.551999.6924-.999816 1.5-.999816z" fill="url(#d)" opacity=".15"/><path d="m20.5 20.000085v1.999891c.620472.0038 1.5-.448075 1.5-1.000075 0-.551999-.692402-.999816-1.5-.999816z" fill="url(#c)" opacity=".15"/><rect fill="url(#f)" height="17.000023" rx="2.615385" width="17" x="3.5" y="3.499989"/><rect fill="none" height="17.000023" opacity=".3" rx="2.615385" stroke="#000" width="17" x="3.5" y="3.499989"/><g stroke="url(#h)" transform="matrix(.92294504 0 0 .92334344 4.88843 5.946611)"><path d="m1.704373 6.637092h8.000001v6.999998h-8.000001z" fill="none" stroke="url(#j)" stroke-miterlimit="0"/><path d="m13.70437 5.1370912a3.5000005 3.5000012 0 1 1 -7.000001 0 3.5000005 3.5000012 0 1 1 7.000001 0z" fill="none" stroke="url(#j)" stroke-linejoin="round" stroke-miterlimit="0"/></g><rect fill="none" height="15.00002" rx="2.307692" ry="2.307693" stroke="url(#g)" width="15" x="4.5" y="4.49999"/><g stroke="url(#h)" transform="matrix(.92294504 0 0 .92334344 4.889289 4.947508)"><path d="m1.704373 6.637092h8.000001v6.999998h-8.000001z" fill="none" stroke="url(#i)" stroke-miterlimit="0"/><path d="m13.70437 5.1370912a3.5000005 3.5000012 0 1 1 -7.000001 0 3.5000005 3.5000012 0 1 1 7.000001 0z" fill="none" stroke="url(#i)" stroke-linejoin="round" stroke-miterlimit="0"/></g></svg>