<svg viewBox="0 0 16 16" xmlns="http://www.w3.org/2000/svg" xmlns:xlink="http://www.w3.org/1999/xlink"><linearGradient id="a" gradientTransform="matrix(-.99999999 0 0 .99999999 6 10)" gradientUnits="userSpaceOnUse" x1="3" x2="3" xlink:href="#l" y1="2" y2="4"/><linearGradient id="b" gradientTransform="matrix(-.99999999 0 0 .99999999 6 5)" gradientUnits="userSpaceOnUse" x1="3" x2="3" xlink:href="#l" y1="2" y2="4"/><linearGradient id="c" gradientTransform="matrix(-.99999999 0 0 .99999999 6 0)" gradientUnits="userSpaceOnUse" x1="3" x2="3" xlink:href="#l" y1="2" y2="4"/><linearGradient id="d" gradientTransform="matrix(-.99999999 0 0 .99999999 16 10)" gradientUnits="userSpaceOnUse" x1="3" x2="3" xlink:href="#l" y1="2" y2="4"/><linearGradient id="e" gradientTransform="matrix(-.99999999 0 0 .99999999 16 5)" gradientUnits="userSpaceOnUse" x1="3" x2="3" xlink:href="#l" y1="2" y2="4"/><linearGradient id="f" gradientTransform="matrix(-.99999999 0 0 .99999999 16 0)" gradientUnits="userSpaceOnUse" x1="3" x2="3" xlink:href="#l" y1="2" y2="4"/><clipPath id="g"><path d="m16 1.7929688c-1.036913 1.1926078-1.994844 2.305806-2.84375 3.2773437-.01719-.0007439-.01443-.00586-.0332-.00586a.53346598.53346598 0 0 0 -.429691.2167975l-4.427734 5.986328c-.5977315.129119-1.1855087.457135-1.6035156 1.091797-1.1329277 1.726413-2.4042969 3.275391-2.4042969 3.275391a.53346598.53346598 0 0 0 -.1191406.365234h5.4785156c.1737957-.102636.340494-.219138.4882815-.365234.412334-.407618.681596-.978348.802734-1.691407.05267-.307763-.0127-.578532-.05664-.855468l5.148437-4.4882816z"/></clipPath><linearGradient id="h" gradientTransform="matrix(.5656 0 0 .5621 -.077 -7.93)" gradientUnits="userSpaceOnUse" x1="28.059" x2="33.437" y1="18.868" y2="23.743"><stop offset="0" stop-color="#6e3d09"/><stop offset=".242" stop-color="#ea8113"/><stop offset=".621" stop-color="#5c3307"/><stop offset="1" stop-color="#e07c12"/></linearGradient><linearGradient id="i" gradientTransform="matrix(.55645 0 0 .56274 .185 -7.95)" gradientUnits="userSpaceOnUse" x1="20.250999" x2="22.011999" y1="29.811001" y2="31.724001"><stop offset="0" stop-color="#f2f2f2"/><stop offset="1" stop-color="#c3c3c3"/></linearGradient><radialGradient id="j" cx="15.415" cy="35.356998" gradientTransform="matrix(.45238 0 0 .5118 1.782 -5.44)" gradientUnits="userSpaceOnUse" r="7.579"><stop offset="0" stop-color="#650000"/><stop offset="1" stop-color="#fb66f5"/></radialGradient><linearGradient id="k" gradientTransform="matrix(-.99999999 0 0 .99999999 11 10)" gradientUnits="userSpaceOnUse" x1="3" x2="3" xlink:href="#l" y1="2" y2="4"/><linearGradient id="l" gradientTransform="matrix(0 -.5372 .57682 0 -15.997 19.866)" gradientUnits="userSpaceOnUse" x1="30.655001" x2="30.827999" y1="65.686996" y2="48.688"><stop offset="0" stop-color="#fff"/><stop offset="0" stop-color="#fff" stop-opacity=".235"/><stop offset="1" stop-color="#fff" stop-opacity=".157"/><stop offset="1" stop-color="#fff" stop-opacity=".392"/></linearGradient><linearGradient id="m" gradientTransform="matrix(-.99999999 0 0 .99999999 11 5)" gradientUnits="userSpaceOnUse" x1="3" x2="3" xlink:href="#l" y1="2" y2="4"/><linearGradient id="n" gradientTransform="matrix(-.99999999 0 0 .99999999 11 0)" gradientUnits="userSpaceOnUse" x1="3" x2="3" xlink:href="#l" y1="2" y2="4"/><linearGradient id="o" gradientTransform="matrix(.67880146 0 0 .73786273 -2.234164 -2.56176)" gradientUnits="userSpaceOnUse" x1="23.915924" x2="23.915924" y1="6.182396" y2="22.445583"><stop offset="0" stop-color="#fff"/><stop offset=".00000001" stop-color="#fff" stop-opacity=".235"/><stop offset=".951" stop-color="#fff" stop-opacity=".157"/><stop offset="1" stop-color="#fff" stop-opacity=".392"/></linearGradient><linearGradient id="p" gradientTransform="matrix(.59436 0 0 .5999 -19.265 1.967)" gradientUnits="userSpaceOnUse" x1="25.132" x2="25.132" y1="15.5" y2="48.396"><stop offset="0" stop-color="#fafafa"/><stop offset="1" stop-color="#e2e1de"/></linearGradient><rect fill="url(#p)" height="15" rx=".424" ry=".491" width="15" x=".5" y=".5"/><path d="m.49804688.00195313c-.27600001 0-.50000001.22399999-.50000001.49999999l.00195313 14.99804688c0 .276.224.5.5.5h15c.276 0 .5-.224.5-.5.0019-5.003728-.002-9.9990437-.002-14.99804688 0-.276-.224-.49999999-.5-.49999999zm.49804687.99804687h14.00390625v4h-4l-.002-3.9980469h-.9999531l.0019531 3.9980469h-4l-.00195-3.9980469h-1l.00195 3.9980469h-4v1h4v4h-4v1h4v4h1v-4h4v4h1v-4h4l.002 4.001953h-14.00395312zm5.00390625 5h4v4h-4zm5 0h4v4h-4z" fill="#030303" opacity=".32"/><g fill="none"><path d="m1.5 1.5000004h13l-.000001 12.9999996h-12.999999z" opacity=".4" stroke="url(#o)" stroke-linecap="round" stroke-linejoin="round" stroke-width="1.012911"/><g stroke-linecap="square"><path d="m9.4999996 11.5h-2.9999996v3h2.9999996z" stroke="url(#k)"/><path d="m9.4999996 6.5h-2.9999996v3h2.9999996z" stroke="url(#m)"/><path d="m9.4999996 1.5000001h-2.9999996v3h2.9999996z" stroke="url(#n)"/><path d="m4.4999996 11.5h-2.9999996v3h2.9999996z" stroke="url(#a)"/><path d="m4.4999996 6.5h-2.9999996v3h2.9999996z" stroke="url(#b)"/><path d="m4.4999996 1.5000001h-2.9999996v3h2.9999996z" stroke="url(#c)"/><path d="m14.5 11.5h-3v3h3z" stroke="url(#d)"/><path d="m14.5 6.5h-3v3h3z" stroke="url(#e)"/><path d="m14.5 1.5000001h-3v3h3z" stroke="url(#f)"/></g></g><g clip-path="url(#g)" transform="translate(0 .000001)"><path d="m13.247 5.778 2.3 2.136.91-.942-.01-4.88c-1.168 1.343-2.276 2.634-3.2 3.687z" fill="url(#h)" stroke="#673907" stroke-linecap="round"/><path d="m8.316 12.098 1.437 1.24 6.05-5.273c-.245-.88-1.64-2.467-2.68-2.467z" fill="url(#i)" stroke="#797b75" stroke-linecap="round"/><path d="m4.667 15.973c3.003 0 5.284.417 5.715-2.12.35-2.045-2.073-3.025-3.275-1.2-1.153 1.757-2.437 3.32-2.437 3.32z" fill="url(#j)"/></g></svg>