<svg height="16" width="16" xmlns="http://www.w3.org/2000/svg" xmlns:xlink="http://www.w3.org/1999/xlink"><linearGradient id="a" gradientTransform="matrix(.57484957 0 0 .42975531 -1164.0142 -1377.7717)" gradientUnits="userSpaceOnUse" x1="2035.1652" x2="2035.1652" y1="3208.0737" y2="3241.9966"><stop offset="0" stop-color="#64baff"/><stop offset="1" stop-color="#3689e6"/></linearGradient><linearGradient id="b" gradientUnits="userSpaceOnUse" x1="7.814092" x2="7.814092" y1="1.282271" y2="14.669901"><stop offset="0" stop-color="#fff"/><stop offset=".507761" stop-color="#fff" stop-opacity=".235294"/><stop offset=".83456558" stop-color="#fff" stop-opacity=".156863"/><stop offset="1" stop-color="#fff" stop-opacity=".392157"/></linearGradient><path d="m8 .50000007c-4.1382429 0-7.50000006 3.36175713-7.50000006 7.49999993 0 4.138243 3.36175716 7.5 7.50000006 7.5 4.138243 0 7.500007-3.361757 7.5-7.5 0-4.1382428-3.361757-7.49999993-7.5-7.49999993z" fill="url(#a)" opacity=".99"/><path d="m8 .50000008c-4.1382429 0-7.50000006 3.36175712-7.50000006 7.50000002s3.36175716 7.4999999 7.50000006 7.4999999c4.138243 0 7.500007-3.361757 7.5-7.4999999 0-4.1382429-3.361757-7.50000002-7.5-7.50000002z" fill="none" opacity=".5" stroke="#002e99" stroke-linecap="round" stroke-linejoin="round"/><path d="m10.847543 4.8202283 1.438157 1.2943501-4.8322214 6.3854216-3.7392072-3.2214717 1.2368142-1.6395071 2.1860001 1.8983714z" fill="#002e99" fill-opacity=".992157" opacity=".25"/><path d="m10.847543 3.8202285 1.438157 1.29435-4.8322214 6.3854215-3.7392072-3.2214715 1.2368142-1.6395072 2.1860001 1.8983715z" fill="#fff"/><path d="m14.5 7.9997643c0 3.5899727-2.910367 6.5002357-6.4999212 6.5002357-3.5898836 0-6.5000789-2.910298-6.5000789-6.5002357 0-3.5898014 2.9101953-6.4997709 6.5000789-6.4997709 3.5895542 0 6.4999212 2.9099695 6.4999212 6.4997709z" fill="none" opacity=".5" stroke="url(#b)" stroke-linecap="round" stroke-linejoin="round"/></svg>