<svg height="16" width="16" xmlns="http://www.w3.org/2000/svg" xmlns:xlink="http://www.w3.org/1999/xlink"><linearGradient id="a" gradientUnits="userSpaceOnUse" x1="5.519532" x2="5.519532" y1="14.494139" y2="8.494139"><stop offset="0" stop-color="#232323"/><stop offset=".8" stop-color="#535353"/><stop offset=".8035444" stop-color="#676767"/><stop offset="1" stop-color="#676767"/></linearGradient><linearGradient id="b" gradientUnits="userSpaceOnUse" x1="6" x2="6" xlink:href="#c" y1="4" y2="9"/><linearGradient id="c"><stop offset="0" stop-color="#f4f4f4"/><stop offset="1" stop-color="#dbdbdb"/></linearGradient><linearGradient id="d" gradientTransform="matrix(.4054 0 0 .5135 -2.734 1.676)" gradientUnits="userSpaceOnUse" x1="24.010853" x2="24.010853" xlink:href="#e" y1="8.420643" y2="10.368062"/><linearGradient id="e"><stop offset="0" stop-color="#fff"/><stop offset="0" stop-color="#fff" stop-opacity=".235"/><stop offset="1" stop-color="#fff" stop-opacity=".157"/><stop offset="1" stop-color="#fff" stop-opacity=".392"/></linearGradient><linearGradient id="f" gradientUnits="userSpaceOnUse" x1="6" x2="6" xlink:href="#c" y1="12" y2="15"/><radialGradient id="g" cx="64.574997" cy="48.605" gradientTransform="matrix(0 .3853 -.4196 0 32.39 -16.793)" gradientUnits="userSpaceOnUse" r="31"><stop offset="0" stop-color="#d1ff82"/><stop offset=".262" stop-color="#9bdb4d"/><stop offset=".661" stop-color="#68b723"/><stop offset="1" stop-color="#3a9104"/></radialGradient><linearGradient id="h" gradientTransform="matrix(.4054 0 0 .5135 -2.734 1.676)" gradientUnits="userSpaceOnUse" x1="8" x2="8" xlink:href="#e" y1="2" y2="13.5"/><linearGradient id="i" gradientUnits="userSpaceOnUse" x1="8" x2="8" xlink:href="#c" y1=".5" y2="13"/><path d="m15.5.5v13h-15v-13z" fill="url(#i)" stroke-width="1.077365"/><g fill="none"><path d="m15.5.5v13h-15v-13z" opacity=".74" stroke="#9f9f9f" stroke-linejoin="round"/><path d="m1.483 12.517.017-11.017h13l-.017 11.017z" fill="none" stroke="url(#h)" stroke-linecap="round"/><path d="m3.497 3.503 10.003-.003v9h-10z" stroke="#e25757" stroke-dasharray="1 1" stroke-dashoffset=".5"/></g><path d="m2.396 14.988c.005.248.02.632.236.685 2.282.013 4.575-.01 6.856-.006.235.01.244-.43.236-.69l-7.33.01z" fill="none" stroke="#000" stroke-linecap="square" stroke-opacity=".501961" stroke-width=".691"/><path d="m1.1250006 7.453123-.5175781 2.109375h.2382813c-.1979666.0718338-.3395465.2739313-.3398438.511719l-.00586 4.414063 10.99414.01172.0039-4.416015c.000293-.2280836-.128927-.421026-.314445-.5000026h.195312l-.49414-2.1171875z" fill="url(#a)" stroke-linecap="round" stroke-width=".69122"/><path d="m1 10h10v1h-10z" fill="#fff" opacity=".2" stroke-width=".845154"/><path d="m1.037 9.54 9.99.012c.278 0 .502.24.5.54l-.004 4.414-10.993-.01.007-4.416c0-.3.223-.54.5-.54z" fill="none" opacity=".71" stroke="#393939" stroke-linecap="round" stroke-linejoin="round"/><path d="m8 10h1v1h-1z" fill="#0cceff" stroke-linecap="round"/><path d="m.637 9.568.517-2.11 9.76.014.494 2.118z" fill="none" opacity=".7" stroke="#393939"/><path d="m2.5 4.5h7v4h-7z" fill="url(#b)" stroke="#000" stroke-linejoin="round" stroke-opacity=".501961"/><path d="m8.5 7.5h-5.011l.011-2h5z" fill="none" stroke="url(#d)" stroke-linecap="round"/><path d="m9 12-.000166 2.658786c-.0000118.189035-.0481754.341214-.108003.341214h-2.891831-2.8921622c-.059833 0-.10801-.152179-.1080031-.341214l.0001653-2.658786z" fill="url(#f)" stroke-width="1.37359"/><path d="m10.5 10.5v-2h3v2h2v3h-2v2h-3v-2h-2v-3z" fill="url(#g)" stroke="#206b00" stroke-linecap="round" stroke-linejoin="round" stroke-opacity=".501961"/><g fill="#fff"><path d="m11 9h2v1h-2z" opacity=".5"/><path d="m11 14h2v1h-2z" opacity=".2"/><path d="m9 11v1h2v-1zm4 0v1h2v-1z" opacity=".4"/></g></svg>