<svg viewBox="0 0 16 16" xmlns="http://www.w3.org/2000/svg" xmlns:xlink="http://www.w3.org/1999/xlink"><linearGradient id="a" gradientTransform="matrix(.49985451 0 0 .87729351 -186.69407 -29.012618)" gradientUnits="userSpaceOnUse" x1="385" x2="385" y1="8" y2="33"><stop offset="0" stop-color="#e7d198"/><stop offset="1" stop-color="#ba964a"/></linearGradient><path d="m3 1c2.2915074 0 9.999988.0008904 9.999988.0008904l.000012 13.9991096s-6.6666668 0-10 0c0-4.666666 0-9.3333336 0-14z" fill="#e9e9e9"/><path d="m12.5 14.5h-9.0000001v-13h9.0000001z" fill="none" stroke="#fff" stroke-linecap="round"/><path d="m2.4999621.49997396c2.5206756 0 11.0000629.000954 11.0000629.000954l.000013 14.99909804s-7.3333841 0-11.000076 0c0-5.000017 0-10.000035 0-15.00005204z" fill="none" stroke="#8c8c8c" stroke-linejoin="round" stroke-width=".999922"/><path d="m3.500582-12.5h3.998836v10h-3.998836z" fill="url(#a)" stroke="#956e37" stroke-linejoin="round" stroke-width="1.001164" transform="matrix(0 1 -1 0 3 6)"/><g fill="#956e37" transform="translate(4 6)"><path d="m3 4h1v2h-1z"/><path d="m6 4h1v2h-1z"/><path d="m9 4h1v2h-1z"/></g></svg>