<svg viewBox="0 0 16 16" xmlns="http://www.w3.org/2000/svg" xmlns:xlink="http://www.w3.org/1999/xlink"><linearGradient id="a" gradientTransform="matrix(.28571361 0 0 .30419701 -15.60289 -.513158)" gradientUnits="userSpaceOnUse" x1="2.237309" x2="1.288115" y1=".135629" y2="15.864442"><stop offset="0" stop-color="#f4f4f4"/><stop offset="1" stop-color="#dbdbdb"/></linearGradient><linearGradient id="b" gradientTransform="matrix(.25378586 0 0 .30501865 19.128979 -.685477)" gradientUnits="userSpaceOnUse" x1="13.627139" x2="13.016928" y1="16.000034" y2=".271222"><stop offset="0" stop-opacity=".339506"/><stop offset="1" stop-opacity=".246914"/></linearGradient><linearGradient id="c" gradientTransform="matrix(.24324324 0 0 .35135133 2.162164 -.432428)" gradientUnits="userSpaceOnUse" x1="8.086798" x2="8.10496" y1="2.924602" y2="13.950673"><stop offset="0" stop-color="#fff"/><stop offset=".09760009" stop-color="#fff" stop-opacity=".235294"/><stop offset="1" stop-color="#fff" stop-opacity=".156863"/><stop offset="1" stop-color="#fff" stop-opacity=".392157"/></linearGradient>
/&amp;gt;<path d="m4.5.5-4 4 4 4v-3c1.3807125 0 1.9540018 1.1200539 2 2.5v7.5h3v-7.5c0-1.3807125.619287-2.5 2-2.5v3l4-4-4-4v2.5c-1.492041 0-2.58388.6432626-3.5 1.6796875-.9161195-1.0364249-2.0079588-1.6796875-3.5-1.6796875z" fill="url(#a)" stroke="url(#b)" stroke-linejoin="round"/><path d="m3.5175781 2.8730469-1.6269531 1.6269531 1.6269531 1.6269531v-.6269531a.98314913.98314913 0 0 1 .9824219-.9824219c.9561779 0 1.8197189.4650344 2.3027344 1.1445313s.6524532 1.4876579.6796875 2.3046875a.98314913.98314913 0 0 1 0 .033203v6.517578h1.0351562v-6.5175779c0-.8373312.1747448-1.6622213.6679688-2.34375.4932239-.6815287 1.3584571-1.1386719 2.3144531-1.1386719a.98314913.98314913 0 0 1 .982422.9824219v.6269531l1.626953-1.6269531-1.626953-1.6269531v.1269531a.98314913.98314913 0 0 1 -.982422.9824219c-1.209493 0-1.9705654.450399-2.7636719 1.3476562a.98314913.98314913 0 0 1 -1.4726562 0c-.7931058-.8972569-1.5541787-1.3476562-2.7636719-1.3476562a.98314913.98314913 0 0 1 -.9824219-.9824219z" fill="none" stroke="url(#c)"/></svg>