<svg height="16" width="16" xmlns="http://www.w3.org/2000/svg" xmlns:xlink="http://www.w3.org/1999/xlink"><linearGradient id="a" gradientUnits="userSpaceOnUse" x1="6.5052029816" x2="6.5052029816" y1="4.00000005156" y2="12.0000020182"><stop offset="0" stop-color="#fff"/><stop offset=".12499987" stop-color="#fff" stop-opacity=".235294"/><stop offset=".87499982" stop-color="#fff" stop-opacity=".156863"/><stop offset="1" stop-color="#fff" stop-opacity=".392157"/></linearGradient><linearGradient id="b" gradientTransform="matrix(.81996151 0 0 .61300006 -1684.8015 -1973.6141)" gradientUnits="userSpaceOnUse" x1="2065.6956" x2="2065.6956" y1="3220.5276" y2="3244.8506"><stop offset="0" stop-color="#ffe16b"/><stop offset="1" stop-color="#f9c440"/></linearGradient><path d="m8 .49996722-2.0086758 2.64954778-3.2940818-.4522725.4522725 3.2940818-2.64954769 2.0086757 2.64954769 2.008676-.4522725 3.294082 3.2940818-.452273 2.0086758 2.649548 2.008676-2.649548 3.294081.452273-.452272-3.294082 2.649548-2.008676-2.649548-2.0086757.452272-3.2940818-3.294081.4522725z" fill="url(#b)" opacity=".99"/><path d="m8 .49996722-2.0086758 2.64954778-3.2940818-.4522725.4522725 3.2940818-2.64954769 2.0086757 2.64954769 2.008676-.4522725 3.294082 3.2940818-.452273 2.0086758 2.649548 2.008676-2.649548 3.294081.452273-.452272-3.294082 2.649548-2.008676-2.649548-2.0086757.452272-3.2940818-3.294081.4522725z" fill="none" stroke="#ad5f00" stroke-linecap="round" stroke-linejoin="round" stroke-opacity=".498039"/><path d="m8 2.15625-1.2109375 1.5976562a1.0004397 1.0004397 0 0 1 -.9335937.3867188l-1.9882813-.2734375.2734375 1.9882813a1.0004397 1.0004397 0 0 1 -.3867188.9335937l-1.5976562 1.2109375 1.5976562 1.2109375a1.0004397 1.0004397 0 0 1 .3867188.9335935l-.2734375 1.988281 1.9882813-.273437a1.0004397 1.0004397 0 0 1 .9335937.386719l1.2109375 1.597656 1.2109375-1.597656a1.0004397 1.0004397 0 0 1 .9335935-.386719l1.988281.273437-.273437-1.988281a1.0004397 1.0004397 0 0 1 .386719-.9335935l1.597656-1.2109375-1.597656-1.2109375a1.0004397 1.0004397 0 0 1 -.386719-.9335937l.273437-1.9882813-1.988281.2734375a1.0004397 1.0004397 0 0 1 -.9335935-.3867188z" fill="none" opacity=".3" stroke="url(#a)" stroke-linecap="round"/><path d="m8 14.000624c-.4016709 0-.8020585-.163613-1.09375-.464844a1.0001 1.0001 0 0 1 -.048828-.05469l-2.5-3a1.0001 1.0001 0 0 1 -.013672-.015622c-.3996418-.4999851-.367219-1.1148472-.1640625-1.5546878.2031565-.4398405.6505428-.8637198 1.2910156-.8828125a1.0001 1.0001 0 0 1 .029297 0h.4999999v-2.5000001a1.0001 1.0001 0 0 1 0-.0098c.00673-.702023.506517-1.316273 1.1914062-1.466797a1.0001 1.0001 0 0 1 .1230469-.01953c.092225-.0086.1851192-.0086.2773438 0l-.0917969-.003873h1a1.0001 1.0001 0 0 1 .037109 0c.7851139.029668 1.4332309.677764 1.462891 1.462891a1.0001 1.0001 0 0 1 0 .03711v2.4999991h.5a1.0001 1.0001 0 0 1 .0293 0c.640473.019093 1.087859.442972 1.291015.8828125.203157.4398406.23558 1.0547027-.164062 1.5546878a1.0001 1.0001 0 0 1 -.01367.01563l-2.4999999 3a1.0001 1.0001 0 0 1 -.0488331.054682c-.2916899.301227-.6920756.464844-1.09375.464844z" fill="#a65a00" opacity=".05"/><path d="m8 13c.1362185 0 .272437-.05424.375-.160156l2.5-3.0000003c.231-.289-.006-.8015-.375-.8125h-1.5v-3.4999997c-.010267-.271776-.2282237-.48973-.5-.5h-1c-.031265-.0029-.062485-.0029-.09375 0-.2353002.051714-.40394.259095-.40625.5v3.4999997h-1.5c-.369.011-.606.5235-.375.8125l2.5 3.0000003c.102563.105917.2387815.160156.375.160156z" fill="#a65a00" opacity=".15"/><path d="m8 12.000222c.1362185 0 .272437-.05424.375-.160156l2.5-3.0000003c.231-.289-.006-.8015-.375-.8125h-1.5v-3.5000001c-.010267-.271776-.2282237-.48973-.5-.5h-1c-.031265-.0029-.062485-.0029-.09375 0-.2353002.051714-.40394.259095-.40625.5v3.5000001h-1.5c-.369.011-.606.5235-.375.8125l2.5 3.0000003c.102563.105917.2387815.160156.375.160156z" fill="#fafafa"/></svg>