<svg viewBox="0 0 16 16" xmlns="http://www.w3.org/2000/svg">

     /&gt;
 <g transform="matrix(0 1 -1 0 16.000398 .000398)"><path d="m4.5117188 3.5c-.1353015-.0020722-.2656665.0507785-.3613282.1464844l-4.00390622 4c-.19518416.1952649-.19518416.5117663 0 .7070312l4.00390622 4.0000004c.3149974.314778.8533412.091803.8535156-.353516v-2h5.9921878v2c .000175.445318.538518.668293.853515.353516l4.003907-4.0000004c.195184-.1952649.195184-.5117663 0-.7070312l-4.003907-4c-.095662-.0957059-.226027-.1485566-.361328-.1464844-.273075.0042945-.492193.2268913-.492187.5v2c-1.9973959 0-3.9947919 0-5.9921878 0v-2c .0000065-.2731089-.2191123-.4957057-.4921874-.5zm-.5078126 1.7070312v1.2929688c.0000276.2761309.2238691.4999724.5.5h.3007813 6.3906245.300782c.276131-.0000276.499972-.2238691.5-.5v-1.2929688l2.796875 2.7929688-2.796875 2.792969v-1.292969c-.000028-.2761309-.223869-.4999724-.5-.5h-.300782c-2.1302082 0-4.2604163 0-6.3906245 0h-.3007813c-.2761309.0000276-.4999724.2238691-.5.5v1.292969l-2.796875-2.792969z" fill="#8c8c8c"/><path d="m4.0039062 5.2070308v1.2929688c.0000276.2761309.2238691.4999724.5.5h.3007813 6.3906245.300782c.276131-.0000276.499972-.2238691.5-.5v-1.2929688l2.796875 2.7929688-2.796875 2.7929694v-1.2929694c-.000028-.2761309-.223869-.4999724-.5-.5h-.300782c-2.1302082 0-4.2604163 0-6.3906245 0h-.3007813c-.2761309.0000276-.4999724.2238691-.5.5v1.2929694l-2.796875-2.7929694z" fill="#e9e9e9"/><path d="m3.5254237 6.440678-1.559322 1.559322 1.559322 1.5932203.1016949-1.0508474 8.8135594.033898.0339.9830509 1.593221-1.6271186-1.627119-1.5932204v1.1186441l-8.7796611.033898z" fill="none" stroke="#fff"/></g></svg>