<svg height="16" width="16" xmlns="http://www.w3.org/2000/svg" xmlns:xlink="http://www.w3.org/1999/xlink"><linearGradient id="a" gradientUnits="userSpaceOnUse" x1="10.385308" x2="10.385308" y1="6.322404" y2="14.64974"><stop offset="0" stop-color="#fff"/><stop offset=".508" stop-color="#fff" stop-opacity=".235"/><stop offset=".835" stop-color="#fff" stop-opacity=".157"/><stop offset="1" stop-color="#fff" stop-opacity=".392"/></linearGradient><radialGradient id="b" cx="11.042373" cy="4.127119" gradientTransform="matrix(-.04245955 2.3911243 -2.3928325 -.04248992 21.386731 -22.101207)" gradientUnits="userSpaceOnUse" r="5.5"><stop offset="0" stop-color="#cdf87e"/><stop offset=".26238" stop-color="#a2e34f"/><stop offset=".66093999" stop-color="#68b723"/><stop offset="1" stop-color="#1d7e0d"/></radialGradient><linearGradient id="c" gradientTransform="matrix(.3673 0 0 .36733 -.292 -1.32)" gradientUnits="userSpaceOnUse" x1="24.378" x2="17.064" y1="22.099" y2="35.86"><stop offset="0" stop-color="#fff"/><stop offset=".002" stop-color="#fff" stop-opacity=".235"/><stop offset=".392" stop-color="#fff" stop-opacity=".157"/><stop offset="1" stop-color="#fff" stop-opacity=".392"/></linearGradient><radialGradient id="d" cx="65.08" cy="48.19" gradientTransform="matrix(0 .6154 -.6695 0 41.292 -38.28)" gradientUnits="userSpaceOnUse" r="31"><stop offset="0" stop-color="#90dbec"/><stop offset=".262" stop-color="#55c1ec"/><stop offset=".705" stop-color="#3689e6"/><stop offset="1" stop-color="#2b63a0"/></radialGradient><path d="m3.506 14.54v-12.04l11.238 6.02z" fill="url(#d)" transform="translate(-1)"/><g fill="none"><path d="m2.506 14.54v-12.04l11.238 6.02z" opacity=".5" stroke="#004372" stroke-linecap="round" stroke-linejoin="round"/><path d="m4.777 4.312v8.404l7.85-4.195z" opacity=".6" stroke="url(#c)" stroke-width=".915" transform="translate(-1)"/></g><circle cx="10.5" cy="10.5" fill="url(#b)" r="5" stroke="#0f5a00" stroke-linecap="round" stroke-linejoin="round" stroke-opacity=".67451"/><path d="m10 8h1v5h-1z" fill="#fff"/><path d="m14.542 10.5c0 2.232-1.81 4.042-4.042 4.042s-4.042-1.81-4.042-4.042c0-2.233 1.81-4.042 4.042-4.042s4.042 1.81 4.042 4.042z" fill="none" opacity=".5" stroke="url(#a)" stroke-linecap="round" stroke-linejoin="round"/><path d="m13 10v1h-5v-1z" fill="#fff"/></svg>