<svg viewBox="0 0 16 16" xmlns="http://www.w3.org/2000/svg" xmlns:xlink="http://www.w3.org/1999/xlink"><linearGradient id="a" gradientTransform="matrix(.6626178 0 0 .5383127 -221.02564 -224.722)" gradientUnits="userSpaceOnUse" x1="336.38605" x2="336.38605" xlink:href="#b" y1="427.76694" y2="424.16095"/><linearGradient id="b"><stop offset="0" stop-color="#555753"/><stop offset="1" stop-color="#555753" stop-opacity="0"/></linearGradient><linearGradient id="c" gradientTransform="matrix(.6619286 0 0 .5541422 -220.77558 -231.53464)" gradientUnits="userSpaceOnUse" x1="336.38605" x2="336.38605" xlink:href="#d" y1="426.56412" y2="424.16095"/><linearGradient id="d"><stop offset="0" stop-color="#babdb6"/><stop offset="1" stop-color="#eeeeec" stop-opacity="0"/></linearGradient><linearGradient id="e" gradientTransform="matrix(1.0131795 0 0 .7238442 -341.92828 -306.2747)" gradientUnits="userSpaceOnUse" x1="337.30206" x2="337.04034" xlink:href="#b" y1="431.7355" y2="428.74005"/><linearGradient id="f" gradientTransform="matrix(1.0152681 0 0 .7238442 -342.63008 -306.27468)" gradientUnits="userSpaceOnUse" x1="337.47427" x2="337.2131" xlink:href="#d" y1="430.89902" y2="426.41998"/><g transform="translate(0 3.00005)"><path d="m13.375397 3.4220093c.735087 3.831631-1.853267 7.0650017-5.8807347 7.0650017-4.0731408 0-6.5698813-3.1870414-5.8807345-7.0650017" fill="none" stroke="url(#a)" stroke-linecap="square" stroke-width="3"/><path d="m13.381641 3.3181331c.711376 3.9852867-1.851338 7.2727539-5.8746199 7.2727539-4.0689079 0-6.6318895-3.2397756-5.874613-7.2727539" fill="none" stroke="url(#c)" stroke-linecap="square"/><path d="m5.50002 8.50001h4v3.99994h-4z" fill="#d3d7cf" stroke="#888a85" stroke-linecap="round" stroke-linejoin="round"/><path d="m6.50002 9.50002h2v2.00008h-2z" fill="none" stroke="#fff" stroke-linecap="round"/></g><g transform="translate(0 -4.196261)"><path d="m16.48393.5-8.99197 9.49999-8.99197-9.49999" fill="none" stroke="url(#e)" stroke-linecap="square" stroke-width="3"/><path d="m16.521.50004-9.01051 9.49998-9.0105-9.49998" fill="none" stroke="url(#f)" stroke-linecap="square" stroke-width="1.2"/><g transform="translate(.196271)"><path d="m7.49997 6.5037 2.99632 2.99632-2.99627 2.99627-2.99632-2.99632z" fill="#d3d7cf" stroke="#888a85" stroke-linecap="round" stroke-linejoin="round" stroke-width="1.4"/><path d="m7.49997 7.90629 1.59378 1.59378-1.59385 1.59385-1.59379-1.59378z" fill="none" stroke="#fff" stroke-linecap="round" stroke-width="1.3"/></g></g></svg>