<svg viewBox="0 0 16 16" xmlns="http://www.w3.org/2000/svg" xmlns:xlink="http://www.w3.org/1999/xlink"><linearGradient id="a" gradientUnits="userSpaceOnUse" x1="7.457264" x2="7.510335" y1="2.103449" y2="14"><stop offset="0" stop-color="#fff"/><stop offset=".19684869" stop-color="#fff" stop-opacity=".235294"/><stop offset="1" stop-color="#fff" stop-opacity=".156863"/><stop offset="1" stop-color="#fff" stop-opacity=".392157"/></linearGradient><linearGradient id="b" gradientUnits="userSpaceOnUse" x1="8" x2="8" y1="3" y2="16"><stop offset="0" stop-color="#f4f4f4"/><stop offset="1" stop-color="#dbdbdb"/></linearGradient><linearGradient id="c" gradientUnits="userSpaceOnUse" x1="4" x2="4" y1="16" y2="0"><stop offset="0" stop-opacity=".339506"/><stop offset="1" stop-opacity=".246914"/></linearGradient>



     /&amp;gt;
 <path d="m3 .49999964c-1.3850207 0-2.5 1.11497926-2.5 2.49999996v10.0000004c0 1.385021 1.1149793 2.5 2.5 2.5h10c1.38502 0 2.5-1.114979 2.5-2.5v-10.0000004c0-1.3850207-1.11498-2.49999996-2.5-2.49999996z" fill="url(#b)" stroke="url(#c)"/><path d="m3.0648181 1.4374998c-1.2118931 0-1.6273181.695516-1.6273181 1.9074091v9.5502601c0 1.211893.7355289 1.667331 1.947422 1.667331h9.310182c1.211892 0 1.867396-.695516 1.867396-1.907409v-9.5902731c0-1.2118931-.695517-1.6273181-1.907409-1.6273181z" fill="none" stroke="url(#a)"/></svg>