<svg viewBox="0 0 16 16" xmlns="http://www.w3.org/2000/svg" xmlns:xlink="http://www.w3.org/1999/xlink"><linearGradient id="a" gradientUnits="userSpaceOnUse" x1="1.220411" x2="1.508405" y1="-2.530475" y2=".418678"><stop offset="0" stop-color="#ffa154"/><stop offset="1" stop-color="#f37329"/></linearGradient><linearGradient id="b" gradientTransform="matrix(.40540511 0 0 .51351351 -2.230313 .567817)" gradientUnits="userSpaceOnUse" x1="36.334797" x2="36.334797" y1="5.71004" y2="8.421042"><stop offset="0" stop-color="#fff"/><stop offset=".00000003" stop-color="#fff" stop-opacity=".235294"/><stop offset="1" stop-color="#fff" stop-opacity=".156863"/><stop offset="1" stop-color="#fff" stop-opacity=".392157"/></linearGradient><radialGradient id="c" cx="7.837353" cy="1.618825" gradientTransform="matrix(-1.3843098 .00000003 -.00000002 -1.1801148 18.686677 5.99341)" gradientUnits="userSpaceOnUse" r="7.784645"><stop offset="0" stop-color="#737373"/><stop offset=".26238" stop-color="#636363"/><stop offset=".704952" stop-color="#4b4b4b"/><stop offset="1" stop-color="#3f3f3f"/></radialGradient><g stroke-linejoin="round"><g fill="url(#c)" stroke="#000" stroke-opacity=".431373" transform="scale(1.0207528 .97966912)"><path d="m5.354047 14.768065-.3728118-.960464h-.050551q-.486551.612928-1.0046963.853044-.5118264.233797-1.3395951.233797-1.017334 0-1.60498661-.581333-.58133373-.581334-.58133373-1.655538 0-1.124754.78353674-1.655537.7898556-.537102 2.3758857-.593971l1.2258559-.03791v-.309623q0-1.0742036-1.099479-1.0742036-.8467252 0-1.9904361.5118264l-.6382032-1.301686q1.2195371-.6382033 2.7044656-.6382033 1.4217401 0 2.1800015.6192468.7582614.6192468.7582614 1.8830157v4.707539zm-.568696-3.273161-.7456237.02528q-.8404064.02528-1.2511313.303305-.4107249.278029-.4107249.846725 0 .815131.935189.815131.6697976 0 1.0678848-.38545.4044061-.385449.4044061-1.023652v-.581334z"/><path d="m12.30281 7.5953684c.834087 0 1.487035.3264736 1.958842.9794209.471807.6487347.707711 1.5396917.707711 2.6728707 0 1.166881-.244329 2.070476-.732986 2.710785-.484445.640309-1.145818.960464-1.984118.960464-.829875 0-1.480716-.301198-1.952523-.903594h-.132695l-.3222621.777217h-1.4722904v-9.8321219h1.9272475v2.2874218c0 .2906668-.02528.7561551-.07583 1.3964647h.07583c.450745-.6992855 1.118436-1.0489282 2.003074-1.0489282zm-.619247 1.5417981c-.476019 0-.823556.1474397-1.042609.4423191-.219053.2906668-.332793.7730054-.341218 1.4470154v.208522c0 .758261.111633 1.301682.334899 1.630262.227479.32858.585547.49287 1.074204.49287.395981 0 .709817-.18114.941508-.543421.235903-.366493.353855-.897276.353855-1.592349s-.117952-1.215324-.353855-1.5607544c-.235904-.3496428-.558165-.5244641-.966784-.5244641z"/></g><path d="m12.500001 5.5010545-3.0000003-3h6.0000003z" fill="url(#a)" stroke="#a62100" stroke-linecap="round" stroke-opacity=".501961"/><path d="m12.5 4.134991-.637826-.634991h1.276753z" fill="none" opacity=".5" stroke="url(#b)" stroke-linecap="square" stroke-linejoin="miter"/></g></svg>