<svg xmlns="http://www.w3.org/2000/svg" xmlns:xlink="http://www.w3.org/1999/xlink" height="16" width="16"><defs><radialGradient id="b" cx="15.951" cy="8.6" gradientTransform="matrix(0 .9738 -1.34684 0 50.58 -19.308)" gradientUnits="userSpaceOnUse" r="18"><stop offset="0" stop-color="#90dbec"/><stop offset=".262" stop-color="#55c1ec"/><stop offset=".705" stop-color="#3689e6"/><stop offset="1" stop-color="#2b63a0"/></radialGradient><linearGradient id="a" gradientTransform="matrix(.4845 0 0 .34573 60.24 -9.85)" gradientUnits="userSpaceOnUse" x1="-51.786" x2="-51.786" y1="53.624" y2="2.906"><stop offset="0" stop-color="#185f9a"/><stop offset="1" stop-color="#599ec9"/></linearGradient><linearGradient xlink:href="#a" id="d" x1="6.356" y1="15" x2="6" y2="3" gradientUnits="userSpaceOnUse"/><radialGradient xlink:href="#b" id="c" cx="8" cy="5.601" fx="8" fy="5.601" r="8" gradientTransform="matrix(1.62617 0 0 .9384 -5.01 1.25)" gradientUnits="userSpaceOnUse"/><linearGradient id="f" gradientTransform="matrix(.57485 0 0 .42976 -1164.014 -1377.772)" gradientUnits="userSpaceOnUse" x1="2035.165" x2="2035.165" y1="3208.074" y2="3241.997"><stop offset="0" stop-color="#ed5353"/><stop offset="1" stop-color="#c6262e"/></linearGradient><linearGradient id="g" gradientUnits="userSpaceOnUse" x1="7.814" x2="7.814" y1="1.282" y2="14.67"><stop offset="0" stop-color="#fff"/><stop offset=".508" stop-color="#fff" stop-opacity=".235"/><stop offset=".835" stop-color="#fff" stop-opacity=".157"/><stop offset="1" stop-color="#fff" stop-opacity=".392"/></linearGradient></defs><linearGradient id="e" gradientTransform="matrix(.35135 0 0 .21622 -.432 3.31)" gradientUnits="userSpaceOnUse" x1="24" x2="24" y1="-.667" y2="43"><stop offset="0" stop-color="#fff"/><stop offset=".508" stop-color="#fff" stop-opacity=".235"/><stop offset=".835" stop-color="#fff" stop-opacity=".157"/><stop offset="1" stop-color="#fff" stop-opacity=".392"/></linearGradient><path d="M.5 3.5h15v10H.5v-10z" fill="url(#c)" stroke="url(#d)" stroke-linejoin="round"/><path d="M14.5 12.5h-13v-8h13z" fill="none" opacity=".5" stroke="url(#e)" stroke-linecap="round"/><path d="M4 6.5h2.076zm2.908 0h2.234zm3.03 0h1.224zM4 8.495h1.295zm1.895 0h1.23zm1.824 0h.742zm1.262.01H12zM4 10.5h1.746zm1.92 0h1.184zm1.985 0H9.16zm1.97 0h1.992z" fill="none" stroke="#fff"/><path d="M8 .5C3.862.5.5 3.862.5 8s3.362 7.5 7.5 7.5 7.5-3.362 7.5-7.5S12.138.5 8 .5z" opacity=".99" fill="url(#f)" transform="translate(5.43 5.43) scale(.6496)"/><path d="M10.627 5.755c-2.688 0-4.872 2.184-4.872 4.872 0 2.688 2.184 4.872 4.872 4.872 2.688 0 4.872-2.185 4.872-4.873s-2.185-4.872-4.873-4.872z" fill="none" stroke="#b10000" stroke-linecap="round" stroke-linejoin="round" stroke-width=".9997343999999999"/><path d="M14.5 8c0 3.59-2.91 6.5-6.5 6.5S1.5 11.59 1.5 8 4.41 1.5 8 1.5s6.5 2.91 6.5 6.5z" opacity=".4" fill="none" stroke="url(#g)" stroke-linecap="round" stroke-linejoin="round" stroke-width="1.539" transform="translate(5.43 5.43) scale(.6496)"/><path d="M8.99 8.678c-.382 0-.752.25-.895.603-.143.355-.05.79.224 1.056l.944.946-.953.953a.638.638 0 0 0-.016.016c-.336.363-.324.993.025 1.342.348.35.977.36 1.338.024a.638.638 0 0 0 .017-.017l.952-.954.936.937c.352.378 1.024.39 1.39.025.365-.365.352-1.038-.026-1.39l-.936-.936.948-.948c.276-.27.365-.712.215-1.067s-.53-.598-.916-.588c-.247.006-.49.112-.662.29l-.948.947-.945-.945c-.18-.186-.435-.294-.693-.294z" opacity=".05" fill="#7a0000"/><path d="M9 9.324a.325.325 0 0 0-.227.558l1.395 1.394-1.395 1.394a.325.325 0 1 0 .46.46l1.394-1.395 1.394 1.395a.325.325 0 1 0 .46-.46l-1.394-1.394 1.395-1.394a.325.325 0 0 0-.236-.557.325.325 0 0 0-.223.097l-1.393 1.395-1.394-1.395A.325.325 0 0 0 9 9.324z" opacity=".15" fill="#7a0000"/><path d="M9 8.674a.325.325 0 0 0-.227.56l1.395 1.393-1.395 1.394a.325.325 0 1 0 .46.46l1.394-1.394 1.394 1.395a.325.325 0 1 0 .46-.46l-1.394-1.393 1.395-1.394a.325.325 0 0 0-.236-.558.325.325 0 0 0-.223.098l-1.393 1.395-1.394-1.395a.325.325 0 0 0-.234-.1z" fill="#fff"/></svg>