<svg height="16" viewBox="0 0 4.2333333 4.2333335" width="16" xmlns="http://www.w3.org/2000/svg" xmlns:xlink="http://www.w3.org/1999/xlink"><linearGradient id="a"><stop offset="0" stop-color="#64baff"/><stop offset="1" stop-color="#3689e6"/></linearGradient><linearGradient id="b" gradientTransform="matrix(.67911689 0 0 .50770063 -435.40827 -335.44457)" gradientUnits="userSpaceOnUse" x1="731.05701" x2="731.05701" xlink:href="#a" y1="654.815" y2="619.30701"/><linearGradient id="c" gradientTransform="matrix(.04089215 0 0 .44199979 -16.518546 -90.06334)" gradientUnits="userSpaceOnUse" x1="292.85699" x2="292.85699" y1="211.076" y2="233.827"><stop offset="0"/><stop offset="1" stop-opacity="0"/></linearGradient><linearGradient id="d" gradientUnits="userSpaceOnUse" x1="9.843156" x2="10.938993" xlink:href="#a" y1="5.636917" y2="10.837817"/><linearGradient id="e"><stop offset="0" stop-color="#fff"/><stop offset=".10605836" stop-color="#fff" stop-opacity=".099265"/><stop offset=".99998999" stop-color="#fff" stop-opacity="0"/><stop offset="1" stop-color="#fff" stop-opacity=".551471"/></linearGradient><linearGradient id="f" gradientUnits="userSpaceOnUse" x1="2.910417" x2="2.910417" xlink:href="#e" y1="293.4281" y2="294.35416"/><linearGradient id="g" gradientUnits="userSpaceOnUse" x1="2.910417" x2="2.910417" xlink:href="#e" y1="291.44373" y2="295.94165"/><g transform="matrix(.2183282 0 0 .2183282 .019509 -.391887)"><rect fill="url(#b)" height="10.125998" opacity=".99" rx="1.26575" stroke-width=".843833" transform="scale(-1)" width="10.125998" x="-11.113794" y="-13.032814"/><rect height="10.969831" rx="1.687666" style="opacity:.3;fill:none;stroke:#000;stroke-width:1.211861;stroke-linecap:round;stroke-linejoin:round" transform="scale(-1 1)" width="10.969831" x="-11.480678" y="2.400877"/><g stroke-width=".843833"><path d="m9.4151586 4.2772008 1.6986354 1.5290256-5.7085309 7.5438696-4.41746629-3.8056892 1.46151889-1.9374406 2.5821294 2.2429088z" fill="#2f78c7" fill-opacity=".992"/><path d="m9.4151586 3.4333676 1.6986354 1.5290257-5.7085309 7.5438687-4.41746629-3.8056881 1.46151889-1.9374408 2.5821294 2.2429084z" fill="#fff"/><rect fill="none" height="9.282165" opacity=".05" rx=".843833" stroke="url(#c)" stroke-linecap="round" stroke-linejoin="round" transform="scale(-1 1)" width="9.282165" x="-10.691878" y="3.328732"/></g></g><g transform="matrix(.666665 0 0 .666665 .970144 -193.76616)"><rect fill="#dcdcdc" height="5.953141" rx="1.190628" ry="1.289854" stroke="#afafaf" stroke-linecap="square" stroke-width=".396876" width="3.571884" x="1.124475" y="290.84839"/><rect fill="none" height="5.159397" rx=".595314" ry=".992179" stroke="url(#g)" stroke-linecap="square" stroke-width=".396876" width="2.778132" x="1.521351" y="291.24527"/><path d="m1.521351 292.93201h2.778132v1.88516h-2.778132z" fill="#9b9b9b"/><path d="m1.521351 292.83279h2.778132v1.98439h-2.778132z" fill="#dcdcdc" stroke="#a2a2a2" stroke-linecap="square" stroke-width=".396876"/><path d="m3.7041689 292.23747-1.5874992-.00006.7937524-.59526z" fill="#919191"/><path d="m3.7041689 295.41248h-1.587504l.793752.59531z" fill="#919191"/><path d="m1.918227 293.22964h1.98438v1.19064h-1.98438z" fill="none" stroke="url(#f)" stroke-linecap="square" stroke-width=".396876"/></g><g transform="matrix(.21492547 0 0 .21492547 -.800949 1.107339)"><circle cx="9.983051" cy="8.288137" fill="#fdfdfb" r="5.64089" stroke="#8c8c8c" stroke-linecap="round" stroke-linejoin="round" stroke-width="1.231047"/><circle cx="9.983051" cy="8.288137" fill="url(#d)" r="3.384534" stroke-width=".752119"/><circle cx="9.983051" cy="8.288137" r="3.384534" style="opacity:.5;fill:none;stroke:#002e99;stroke-width:1.231047;stroke-linecap:round;stroke-linejoin:round"/></g></svg>