<?xml version="1.0" encoding="UTF-8" standalone="no"?>
<svg
   xmlns:dc="http://purl.org/dc/elements/1.1/"
   xmlns:cc="http://creativecommons.org/ns#"
   xmlns:rdf="http://www.w3.org/1999/02/22-rdf-syntax-ns#"
   xmlns:svg="http://www.w3.org/2000/svg"
   xmlns="http://www.w3.org/2000/svg"
   xmlns:sodipodi="http://sodipodi.sourceforge.net/DTD/sodipodi-0.dtd"
   xmlns:inkscape="http://www.inkscape.org/namespaces/inkscape"
   height="16"
   width="16"
   version="1.1"
   id="svg18"
   sodipodi:docname="sc_contourdialog.svg"
   inkscape:version="0.92.3 (unknown)">
  <metadata
     id="metadata24">
    <rdf:RDF>
      <cc:Work
         rdf:about="">
        <dc:format>image/svg+xml</dc:format>
        <dc:type
           rdf:resource="http://purl.org/dc/dcmitype/StillImage" />
        <dc:title></dc:title>
      </cc:Work>
    </rdf:RDF>
  </metadata>
  <defs
     id="defs22">
    <linearGradient
       id="c"
       gradientUnits="userSpaceOnUse"
       x1="7.8889999"
       x2="8"
       y1="8.5059996"
       y2="13"
       gradientTransform="translate(5,-3.0000001)">
      <stop
         offset="0"
         stop-color="#cd9ef7"
         id="stop1090" />
      <stop
         offset="1"
         stop-color="#a56de2"
         id="stop1092" />
    </linearGradient>
    <linearGradient
       id="c-3"
       gradientUnits="userSpaceOnUse"
       x1="7.8889999"
       x2="8"
       y1="8.5059996"
       y2="13"
       gradientTransform="translate(0.9999998,2.9999999)">
      <stop
         offset="0"
         stop-color="#cd9ef7"
         id="stop1090-6" />
      <stop
         offset="1"
         stop-color="#a56de2"
         id="stop1092-7" />
    </linearGradient>
    <linearGradient
       id="d"
       gradientUnits="userSpaceOnUse"
       x1="11.720905"
       x2="11.720905"
       y1="1.7838989"
       y2="11.976016">
      <stop
         offset="0"
         stop-color="#f6f6f6"
         id="stop1028" />
      <stop
         offset="1"
         stop-color="#e6e6e6"
         id="stop1030" />
    </linearGradient>
    <linearGradient
       id="e"
       gradientUnits="userSpaceOnUse"
       x1="9.7209053"
       x2="9.7209053"
       y1="2.7330511"
       y2="15.752358">
      <stop
         offset="0"
         stop-color="#888"
         id="stop1033" />
      <stop
         offset="1"
         stop-color="#626262"
         id="stop1035" />
    </linearGradient>
    <linearGradient
       id="f"
       gradientUnits="userSpaceOnUse"
       x1="12.813955"
       x2="12.742121"
       y1="13.774036"
       y2="9.7259645">
      <stop
         offset="0"
         stop-color="#efefef"
         id="stop1038" />
      <stop
         offset="1"
         stop-color="#c9c9c9"
         id="stop1040" />
    </linearGradient>
  </defs>
  <sodipodi:namedview
     pagecolor="#ffffff"
     bordercolor="#666666"
     borderopacity="1"
     objecttolerance="10"
     gridtolerance="10"
     guidetolerance="10"
     inkscape:pageopacity="0"
     inkscape:pageshadow="2"
     inkscape:window-width="1366"
     inkscape:window-height="706"
     id="namedview20"
     showgrid="false"
     inkscape:zoom="14.75"
     inkscape:cx="-12.576271"
     inkscape:cy="6.9152542"
     inkscape:window-x="0"
     inkscape:window-y="0"
     inkscape:window-maximized="1"
     inkscape:current-layer="g16" />
  <g
     transform="translate(0,-6)"
     id="g16">
    <path
       inkscape:connector-curvature="0"
       style="fill:url(#c-3);stroke:#7239b3;stroke-linecap:round;stroke-linejoin:round;stroke-opacity:0.75"
       d="m 1.4999998,11.5 5,0.0078 0.01953,4.992187 -4.9999998,-0.0078 z"
       id="path1099"
       sodipodi:nodetypes="ccccc" />
    <g
       id="g10"
       style="fill:none;stroke:#565656;stroke-linecap:round;stroke-linejoin:round">
      <path
         d="m 14.507122,9.4999999 c -4.338048,0 -8.676095,0 -13.014143,0 z"
         id="path2"
         inkscape:connector-curvature="0" />
      <path
         d="M 14.507122,12.5 8.5,12.52525 Z"
         id="path4"
         inkscape:connector-curvature="0" />
      <path
         d="M 14.507122,15.5 8.5,15.52525 Z"
         id="path6"
         inkscape:connector-curvature="0" />
      <path
         d="m 14.507122,18.5 c -4.338048,0 -8.676095,0 -13.014143,0 z"
         id="path8"
         inkscape:connector-curvature="0" />
    </g>
    <g
       transform="matrix(1.0513065,-0.43546544,0.43546544,1.0513065,-5.966936,10.266501)"
       id="g1055">
      <path
         d="M 11.21875,8 C 11.094542,8 11,8.0945411 11,8.21875 v 0.625 c -0.276951,0.0711 -0.525582,0.1859391 -0.765625,0.328125 L 9.78125,8.71875 c -0.087828,-0.087829 -0.224671,-0.087829 -0.3125,0 l -0.75,0.75 c -0.087829,0.087829 -0.087829,0.2246711 0,0.3125 l 0.453125,0.453125 C 9.0296894,10.474418 8.9148505,10.723048 8.84375,11 h -0.625 C 8.0945415,11 8,11.094541 8,11.21875 v 1.0625 C 8,12.405459 8.0945415,12.5 8.21875,12.5 h 0.625 c 0.071101,0.276951 0.1859395,0.525582 0.328125,0.765625 L 8.71875,13.71875 c -0.087829,0.08783 -0.087829,0.224671 0,0.3125 l 0.75,0.75 c 0.087829,0.08783 0.224671,0.08783 0.3125,0 l 0.453125,-0.453125 C 10.474418,14.470311 10.723049,14.58515 11,14.65625 v 0.625 C 11,15.405459 11.094542,15.5 11.21875,15.5 h 1.0625 C 12.405459,15.5 12.5,15.405459 12.5,15.28125 v -0.625 c 0.276951,-0.0711 0.525582,-0.185939 0.765625,-0.328125 l 0.453125,0.453125 c 0.08783,0.08783 0.224671,0.08783 0.3125,0 l 0.75,-0.75 c 0.08783,-0.08783 0.08783,-0.224671 0,-0.3125 L 14.328125,13.265625 C 14.470311,13.025582 14.58515,12.776951 14.65625,12.5 h 0.625 C 15.405459,12.5 15.5,12.405459 15.5,12.28125 v -1.0625 C 15.5,11.094541 15.405459,11 15.28125,11 h -0.625 c -0.0711,-0.276952 -0.185939,-0.525582 -0.328125,-0.765625 L 14.78125,9.78125 c 0.08783,-0.087829 0.08783,-0.224671 0,-0.3125 l -0.75,-0.75 c -0.08783,-0.087829 -0.224671,-0.087829 -0.3125,0 L 13.265625,9.171875 C 13.025582,9.0296891 12.776951,8.9148503 12.5,8.84375 v -0.625 C 12.5,8.0945411 12.405459,8 12.28125,8 Z M 11.75,10.75 c 0.552,0 1,0.448 1,1 0,0.552 -0.448,1 -1,1 -0.552,0 -1,-0.448 -1,-1 0,-0.552 0.448,-1 1,-1 z"
         display="block"
         id="path1049"
         inkscape:connector-curvature="0"
         style="display:block;fill:url(#d);stroke:url(#e);stroke-width:0.52727503;stroke-linejoin:round" />
      <path
         d="m 11.75,9.482558 c -1.250289,0 -2.2674419,1.017154 -2.2674419,2.267442 0,1.250289 1.0171529,2.267442 2.2674419,2.267442 1.250288,0 2.267442,-1.017153 2.267442,-2.267442 0,-1.250288 -1.017154,-2.267442 -2.267442,-2.267442 z m 0,1.046512 c 0.673954,0 1.22093,0.546977 1.22093,1.22093 0,0.673954 -0.546976,1.22093 -1.22093,1.22093 -0.673953,0 -1.22093,-0.546976 -1.22093,-1.22093 0,-0.673953 0.546977,-1.22093 1.22093,-1.22093 z"
         id="path1051"
         inkscape:connector-curvature="0"
         style="opacity:0.05" />
      <path
         d="m 11.75,9.75 c -1.1028,0 -2,0.8972 -2,2 0,1.1028 0.8972,2 2,2 1.1028,0 2,-0.8972 2,-2 0,-1.1028 -0.8972,-2 -2,-2 z"
         id="path1053"
         inkscape:connector-curvature="0"
         style="fill:none;stroke:url(#f);stroke-width:0.87879199" />
    </g>
  </g>
</svg>
