<svg viewBox="0 0 16 16" xmlns="http://www.w3.org/2000/svg" xmlns:xlink="http://www.w3.org/1999/xlink"><linearGradient id="a" gradientTransform="matrix(.28571361 0 0 .30419701 -4.128312 -13.725901)" gradientUnits="userSpaceOnUse" x1="9.198076" x2="10.031555" y1="53.543022" y2="93.354385"><stop offset="0" stop-color="#f4f4f4"/><stop offset="1" stop-color="#dbdbdb"/></linearGradient><linearGradient id="b" gradientTransform="matrix(.25378586 0 0 .30501865 19.857794 -16.10161)" gradientUnits="userSpaceOnUse" x1="-16.838144" x2="-17.487486" y1="100.43031" y2="61.578262"><stop offset="0" stop-opacity=".339506"/><stop offset="1" stop-opacity=".246914"/></linearGradient><g stroke-linejoin="round"><path d="m.718242 2.4795225 1.781758.0032361v2h2v-2h5.969302v2h2v-2l1.781758-.00324c.120906-.0002199.218242.16632.218242.3729099v11.2746655c0 .20659-.09734.372906-.218242.372906h-13.532818c-.12090607 0-.218242-.166316-.218242-.372906v-11.2746655c0-.2065899.0973361-.3731256.218242-.372906z" fill="url(#a)" stroke="url(#b)" stroke-linecap="round"/><path d="m2.5 6.5v2h2v-2z" fill="#9cde4a" stroke="#5ca12a"/><path d="m6.5 6.5v2h2v-2z" fill="#9cde4a" stroke="#5ca12a"/><path d="m10.5 6.5v2h2v-2z" fill="#e04447" stroke="#b10000"/><path d="m6.5 10.5v2h2v-2z" fill="#9cde4a" stroke="#5ca12a"/><path d="m10.5 10.5v2h2v-2z" fill="#e04447" stroke="#b10000"/></g></svg>