<svg height="16" width="16" xmlns="http://www.w3.org/2000/svg" xmlns:xlink="http://www.w3.org/1999/xlink"><radialGradient id="a" cx="2.508475" cy="11.254244" gradientTransform="matrix(.76271229 .48304993 -.53505014 .84481808 6.616815 .534731)" gradientUnits="userSpaceOnUse" r="8.000015"><stop offset="0" stop-color="#cd9ef7"/><stop offset="1" stop-color="#a56de2"/></radialGradient><linearGradient id="b" gradientUnits="userSpaceOnUse" x1="8.949138" x2="7.932219" y1=".135593" y2="13.762712"><stop offset="0" stop-color="#fff"/><stop offset=".5" stop-color="#fff" stop-opacity=".235294"/><stop offset=".81289846" stop-color="#fff" stop-opacity=".156863"/><stop offset="1" stop-color="#fff" stop-opacity=".392157"/></linearGradient><g stroke-linejoin="round" stroke-opacity=".662745" stroke-width=".842107"><path d="m7.9999998.42102237-7.2236977 10.21388363c-.2296982.361894-.3552639.75458-.3552639 1.154559 0 2.092836 3.3932166 3.789482 7.5789616 3.789482 4.1857452 0 7.5789622-1.696646 7.5789622-3.789482 0-.457769-.176166-.896306-.473685-1.302634z" fill="url(#a)" opacity=".986928" stroke="#7239b3"/><path d="m8 1.6816406-6.6132812 9.3476564c-.1629775.258852-.2382813.511694-.2382813.759765 0 .653744.5793193 1.409773 1.8183594 2.029297 1.2390401.619525 3.0384997 1.033204 5.0332031 1.033203 1.9947034 0 3.794163-.413678 5.033203-1.033203 1.23904-.619524 1.818359-1.375553 1.818359-2.029297 0-.272404-.101482-.558181-.332031-.873046a.72682317.72682317 0 0 1 -.0078-.0098z" fill="none" opacity=".986928" stroke="url(#b)"/></g><path d="m6.5 3.5199972v2.98h3v-2.99zm0 4.9999998v2.98h3v-2.99zm0 5v2.98h3v-2.99zm0-14.9999998v2.98h3v-2.99z" fill="#ffa154" stroke="#a62100" stroke-miterlimit="0" stroke-opacity=".501961"/></svg>