<svg viewBox="0 0 16 16" xmlns="http://www.w3.org/2000/svg">

     /&gt;
 <path d="m2.3181939 3.635196 9.8262721 10.165255-1.644466 1.699549h5v-5l-1.936837 1.729211-9.6906789-10.0466104z" fill="#fff" stroke="#8c8c8c" stroke-linejoin="round"/><g transform="matrix(.8660254 .5 -.5 .8660254 2.215509 -1.268394)"><path d="m3.5 0c-1.9270743 0-3.5 1.5729257-3.5 3.5s1.5729257 3.5 3.5 3.5c1.1424161 0 2.1542898-.5547263 2.7896107-1.4077359l-.643232-.8066805c-.4350611.7290076-1.2307562 1.2144164-2.1463787 1.2144164-1.3866342 0-2.5-1.1133658-2.5-2.5s1.1133658-2.5 2.5-2.5c1.2152926 0 2.2193106.8551384 2.4492188 2h1c-.245975-1.6896713-1.6934188-3-3.4492188-3z" fill="#8c8c8c"/><path d="m3.5 1c1.3866342 0 2.5 1.1133658 2.5 2.5s-1.1133658 2.5-2.5 2.5-2.5-1.1133658-2.5-2.5 1.1133658-2.5 2.5-2.5z" fill="#fff"/><circle cx="3.5" cy="3.5" fill="#e9e9e9" r="1.5"/></g></svg>