<svg height="16" width="16" xmlns="http://www.w3.org/2000/svg" xmlns:xlink="http://www.w3.org/1999/xlink"><linearGradient id="a" gradientUnits="userSpaceOnUse" x1="10.186459" x2="10.186459" y1="2.549" y2="9.641272"><stop offset="0" stop-color="#64baff"/><stop offset="1" stop-color="#3689e6"/></linearGradient><linearGradient id="b" gradientUnits="userSpaceOnUse" x1="10.244605" x2="9.855729" y1="3.30187" y2="3.73827"><stop offset="0" stop-color="#fff"/><stop offset="0" stop-color="#fff" stop-opacity=".235"/><stop offset=".539" stop-color="#fff" stop-opacity=".157"/><stop offset="1" stop-color="#fff" stop-opacity=".392"/></linearGradient><linearGradient id="c" gradientUnits="userSpaceOnUse" x1="8.334375" x2="8.334375" xlink:href="#d" y1="2.36523" y2="4.614189"/><linearGradient id="d"><stop offset="0" stop-color="#fff"/><stop offset=".5" stop-color="#fff" stop-opacity=".235"/><stop offset=".75" stop-color="#fff" stop-opacity=".157"/><stop offset="1" stop-color="#fff" stop-opacity=".392"/></linearGradient><linearGradient id="e" gradientUnits="userSpaceOnUse" x1="9.134326" x2="9.128125" xlink:href="#d" y1="1.753905" y2="3.688147"/><radialGradient id="f" cx="2.508475" cy="11.254244" gradientTransform="matrix(.76271229 .48304993 -.53505014 .84481808 6.616815 .534731)" gradientUnits="userSpaceOnUse" r="8.000015"><stop offset="0" stop-color="#cd9ef7"/><stop offset="1" stop-color="#a56de2"/></radialGradient><linearGradient id="g" gradientUnits="userSpaceOnUse" x1="8.949138" x2="7.932219" y1=".135593" y2="13.762712"><stop offset="0" stop-color="#fff"/><stop offset=".5" stop-color="#fff" stop-opacity=".235294"/><stop offset=".81289846" stop-color="#fff" stop-opacity=".156863"/><stop offset="1" stop-color="#fff" stop-opacity=".392157"/></linearGradient><g transform="translate(3 -2.509997)"><g stroke-linejoin="round" stroke-opacity=".662745" stroke-width="1.583548" transform="matrix(.63149349 0 0 .63149349 2.948052 2.948052)"><path d="m7.9999998.42102237-7.2236977 10.21388363c-.2296982.361894-.3552639.75458-.3552639 1.154559 0 2.092836 3.3932166 3.789482 7.5789616 3.789482 4.1857452 0 7.5789622-1.696646 7.5789622-3.789482 0-.457769-.176166-.896306-.473685-1.302634z" fill="url(#f)" opacity=".986928" stroke="#7239b3"/><path d="m7.9980469 3.5585938-5.6972657 8.0546872c-.066761.108428-.068359.147892-.068359.175781 0 .01365.1742502.538294 1.21875 1.060547 1.0362864.518148 2.7039277.917971 4.5488278.917969 1.8449014 0 3.512542-.399822 4.548828-.917969 1.0445-.522253 1.21875-1.046896 1.21875-1.060547 0-.0033.01242-.04741-.123047-.232421-.006-.0084-.01184-.01684-.01758-.02539z" fill="none" opacity=".986928" stroke="url(#g)"/></g><path d="m6.5 6.029997v2.98h3v-2.99zm0 4.999999v2.98h3v-2.99zm0-9.999999v2.98h3v-2.99z" fill="#ffa154" stroke="#a62100" stroke-miterlimit="0" stroke-opacity=".501961"/></g><g transform="matrix(2.5196976 0 0 2.5196976 -18.833456 4.080689)"><path d="m7.7044465 1.753905c.042122 1.3724856.5031972 2.1779892 1.9528454 2.0231256v.7549856l1.2501501-1.0270976-1.2501501-1.155704v.793746c-1.1223336.0592364-1.2588422-.4419317-1.3890556-1.3890556z" style="stroke:#002e99;stroke-width:.396873;stroke-linecap:square;stroke-linejoin:round;stroke-miterlimit:20;stroke-opacity:.490196;fill:url(#a)"/><g fill="none"><path d="m9.8419049 3.4395834.00476-.6794884.7658021.7464222-.7681953.7214093-.0033633-.6253431" opacity=".5" stroke="url(#b)" stroke-width=".26"/><g stroke-width=".396873"><path d="m9.6572919 3.5566038c-1.1265459.0527097-1.6538422-.2152067-1.7316686-1.8026988" opacity=".5" stroke="url(#c)"/><path d="m9.6572919 3.4006708c-.5447375.0454536-1.4507879-.0518308-1.5874921-1.4483293h-.291331" opacity=".5" stroke="url(#e)"/></g></g></g></svg>