<svg viewBox="0 0 16 16" xmlns="http://www.w3.org/2000/svg">

     /&gt;
 <rect fill="#e9e9e9" height="15" rx=".5" stroke="#8c8c8c" stroke-linecap="round" stroke-linejoin="round" width="15" x=".5" y=".5"/><path d="m1 1v14h14v-14zm2 2h10v10h-10z" fill="#fdfdfb"/><path d="m3 2c-.554 0-1 .446-1 1v10c0 .554.446 1 1 1h10c .554 0 1-.446 1-1v-10c0-.554-.446-1-1-1zm0 1h10v10h-10z" fill="#8c8c8c"/><path d="m10.838136 2.34149c-.154282-.016277-.307668.062264-.386938.2130556l-3.377422 6.4232412-2.1714633-1.7946651c-.1934247-.1098611-.4347521-.039186-.5404451.1618663l-.9737764 1.2994955c-.1056906.2010483-.034589.4518178.1588345.5616758 0 0 3.9648208 3.4037177 3.9697126 3.4062347.045333.02575.09274.03871.1409296.04504.157421.02067.318521-.0562.3994402-.21013l4.5549009-8.6625444c.105693-.2010512.03459-.4518182-.158833-.5616775l-1.461507-.833632c-.04836-.027468-.102007-.042533-.153433-.047959z" fill="#9cde4a" stroke="#5ca12a" stroke-linecap="round" stroke-linejoin="round" stroke-width=".678892"/></svg>