<svg viewBox="0 0 16 16" xmlns="http://www.w3.org/2000/svg" xmlns:xlink="http://www.w3.org/1999/xlink"><linearGradient id="a" gradientTransform="translate(9 7.000003)" gradientUnits="userSpaceOnUse" x1="4" x2="4" xlink:href="#b" y1="3" y2="4"/><linearGradient id="b" gradientTransform="translate(9 -.999997)" gradientUnits="userSpaceOnUse" x1="4" x2="4" y1="3" y2="4"><stop offset="0" stop-color="#fff"/><stop offset="0" stop-color="#fff" stop-opacity=".235294"/><stop offset="1" stop-color="#fff" stop-opacity=".156863"/><stop offset="1" stop-color="#fff" stop-opacity=".392157"/></linearGradient><linearGradient id="c" gradientTransform="translate(9 2.000003)" gradientUnits="userSpaceOnUse" x1="4" x2="4" xlink:href="#b" y1="3" y2="4"/><linearGradient id="d" gradientTransform="translate(9 -2.999997)" gradientUnits="userSpaceOnUse" x1="4" x2="4" xlink:href="#b" y1="3" y2="4"/><linearGradient id="e" gradientTransform="matrix(.59435835 0 0 .59991399 -19.26472 -.032551)" gradientUnits="userSpaceOnUse" x1="54.288246" x2="54.288246" xlink:href="#f" y1="-2.449354" y2="4.218268"/><linearGradient id="f" gradientTransform="matrix(.59435835 0 0 .59991399 -19.26472 -.032551)" gradientUnits="userSpaceOnUse" x1="25.132275" x2="25.132275" y1="15.499894" y2="48.395687"><stop offset="0" stop-color="#fafafa"/><stop offset="1" stop-color="#e2e1de"/></linearGradient><linearGradient id="g" gradientTransform="matrix(.59435835 0 0 .59991399 -19.26472 -.032551)" gradientUnits="userSpaceOnUse" x1="54.284962" x2="54.284962" xlink:href="#f" y1="-2.423309" y2="4.244313"/><linearGradient id="h" gradientTransform="matrix(.59435835 0 0 .59991399 -19.26472 -.032551)" gradientUnits="userSpaceOnUse" x1="54.284962" x2="54.284962" xlink:href="#f" y1="-2.446099" y2="4.221523"/><linearGradient id="i" gradientTransform="translate(-1 2.000003)" gradientUnits="userSpaceOnUse" x1="4" x2="4" xlink:href="#b" y1="3" y2="4"/><linearGradient id="j" gradientTransform="matrix(.19694688 -.20520309 .19694688 .20520309 2.33061 11.959949)" gradientUnits="userSpaceOnUse" x1="36.010902" x2="16.331276" xlink:href="#k" y1="13.022708" y2="32.702335"/><linearGradient id="k"><stop offset="0" stop-color="#fff"/><stop offset="1" stop-color="#fff" stop-opacity="0"/></linearGradient><linearGradient id="l" gradientTransform="matrix(.19694688 -.20520309 .19694688 .20520309 2.13207 12.063489)" gradientUnits="userSpaceOnUse" x1="28.449389" x2="16.331276" xlink:href="#k" y1="20.584223" y2="32.702335"/><linearGradient id="m" gradientTransform="matrix(.3705263 0 0 .38647344 7.53368 5.335749)" gradientUnits="userSpaceOnUse" x1="11.192374" x2="11.192374" y1="4.064163" y2="30.298229"><stop offset="0" stop-color="#f8b17e"/><stop offset=".31209752" stop-color="#e35d4f"/><stop offset=".57054454" stop-color="#c6262e"/><stop offset="1" stop-color="#690b54"/></linearGradient><linearGradient id="n" gradientTransform="matrix(.64000001 0 0 .69565218 -14.27409 -1.966325)" gradientUnits="userSpaceOnUse" x1="41.225124" x2="41.225124" y1="23.238064" y2="7.916672"><stop offset="0" stop-color="#791235"/><stop offset="1" stop-color="#dd3b27"/></linearGradient><g transform="translate(0 2)"><g transform="matrix(-1 0 0 1 16 0)"><g stroke="#000" stroke-opacity=".308824"><rect fill="url(#h)" height="4" rx=".423727" ry=".491478" width="5" x="10.5" y="-1.5"/><rect fill="url(#g)" height="4" rx=".423727" ry=".491478" transform="translate(0 4.986328)" width="5" x="10.5" y="-1.5"/><rect fill="url(#e)" height="4" rx=".423727" ry=".491478" transform="translate(-.001953 10.001953)" width="5" x="10.5" y="-1.5"/><rect fill="url(#g)" height="3.986328" rx=".423727" ry=".491478" transform="translate(-10 4.986328)" width="5" x="10.5" y="-1.486328"/></g><g fill="none" stroke-linecap="round" stroke-linejoin="round"><path d="m1.5 4.5h3v2.000003h-3z" stroke="url(#i)"/><path d="m11.5-.5h3v2.000003h-3z" stroke="url(#d)"/><path d="m11.5 4.5h3v2.000003h-3z" stroke="url(#c)"/><path d="m11.5 9.5h3v2.000003h-3z" stroke="url(#a)"/></g></g><g fill="#cc3b02" transform="matrix(.70710678 -.70710678 -.70710678 -.70710678 3.477029 21.697592)"><path d="m8.5 5h6.5v1h-6.5z"/><path d="m16 5.5-3-2.5v5z" fill-rule="evenodd"/></g><g fill="#cc3b02" transform="matrix(.70710678 .70710678 -.70710678 .70710678 3.477029 -11.051145)"><path d="m8.5 5h6.5v1h-6.5z"/><path d="m16 5.5-3-2.5v5z" fill-rule="evenodd"/></g><path d="m15.5 12.214902-2.0384-2.049501 1.96142-2.147073-1.41391-1.3299219-2.01857 2.0460349-2.05948-2.0460349-1.47106 1.3788389 2.05948 2.089411-2.05948 2.056046 1.47106 1.432225 2.05709-2.148338 2.06188 2.148338z" fill="url(#m)" stroke="url(#n)" stroke-linejoin="round"/><g fill="none" transform="translate(0 -2)"><path d="m14.01392 10.098118-2.00624 2.049356-2.09215-2.047403" opacity=".5" stroke="url(#j)" stroke-linecap="square"/><path d="m14.3566 14.622087-1.66668-1.887606m-1.42902.08076-1.73943 1.713246" opacity=".4" stroke="url(#l)"/></g></g></svg>