<svg viewBox="0 0 16 16" xmlns="http://www.w3.org/2000/svg" xmlns:xlink="http://www.w3.org/1999/xlink"><linearGradient id="a" gradientUnits="userSpaceOnUse" x1="0" x2="16" y1="5.5" y2="5.5"><stop offset="0" stop-color="#fad4a1"/><stop offset="1" stop-color="#e6b481"/></linearGradient><linearGradient id="b" gradientTransform="matrix(0 .33333 -.86364 0 28.705 -122.667)" gradientUnits="userSpaceOnUse" x1="384.50485" x2="384.50485" y1="30.92145" y2="17.02677"><stop offset="0" stop-color="#fff"/><stop offset=".00000007" stop-color="#fff" stop-opacity=".055147"/><stop offset=".99999994" stop-color="#fff" stop-opacity=".264706"/><stop offset="1" stop-color="#fff" stop-opacity=".485294"/></linearGradient><linearGradient id="c" gradientTransform="matrix(.44035822 0 0 .44035823 -76.20947 -3.14648)" gradientUnits="userSpaceOnUse" x1="188" x2="188" xlink:href="#d" y1="17" y2="36.026299"/><linearGradient id="d"><stop offset="0" stop-color="#fff"/><stop offset="1" stop-color="#fff" stop-opacity="0"/></linearGradient><linearGradient id="e" gradientTransform="matrix(.57418708 0 0 .57270135 -100.42477 -7.179241)" gradientUnits="userSpaceOnUse" x1="182" x2="182" xlink:href="#d" y1="33" y2="24.519934"/><g transform="matrix(0 1 -1 0 19 0)"><path d="m15.5 3.5v4h-15v-4z" fill="url(#a)" stroke="#783f07" stroke-linejoin="round" stroke-opacity=".490196" stroke-width="1.001"/><path d="m14.46 4.5v2h-12.96v-2z" fill="none" opacity=".4" stroke="url(#b)"/><path d="m3 12v2h1v-2zm3 0v2h1v-2zm3 0v2h1v-2zm3 0v2h1v-2z" fill="#a1550a" fill-opacity=".25098" transform="translate(0 -7.9995)"/></g><path d="m.50000002 1.5017251 13.99999998 13.9971909-14.00002097.0039.00002099-2.960449v-6.104867zm2.49999998 7.0331502v4.4651247h4.5303301z" fill="#81d72c" fill-opacity=".588235" fill-rule="evenodd" stroke="#4e9a06" stroke-linejoin="round"/><g fill="none"><path d="m1.5071423 3.7915133.00848 10.6928617 10.6672837-.0039z" opacity=".5" stroke="url(#c)"/><path d="m2.5 7.1382942v6.3773308l5.5-.015625" opacity=".5" stroke="url(#e)"/></g></svg>