<svg height="16" width="16" xmlns="http://www.w3.org/2000/svg" xmlns:xlink="http://www.w3.org/1999/xlink"><linearGradient id="a" gradientUnits="userSpaceOnUse" x1="10.000001" x2="10.000001" y1="10.999999" y2="13.999998"><stop offset="0" stop-color="#fff"/><stop offset="0" stop-color="#fff" stop-opacity=".235294"/><stop offset=".99999994" stop-color="#fff" stop-opacity=".156863"/><stop offset="1" stop-color="#fff" stop-opacity=".392157"/></linearGradient><radialGradient id="b" cx="14.615859" cy="7.296221" fx="14.085626" gradientTransform="matrix(-.00000003 1.2626387 -1.5782983 -.00000004 23.015615 -11.45455)" gradientUnits="userSpaceOnUse" r="12.671875"><stop offset="0" stop-color="#fafafa"/><stop offset="1" stop-color="#e1e1e1"/></radialGradient><linearGradient id="c" gradientUnits="userSpaceOnUse" x1="11.5" x2="11.5" y1="8.5" y2="10.5"><stop offset="0" stop-color="#e5e5e5"/><stop offset="1" stop-color="#d4d4d4"/></linearGradient><path d="m3.5 1.5v2h1v-1h3v-1h-2z" fill="#ffa154" stroke="#a62100" stroke-linecap="square" stroke-opacity=".552941"/><path d="m3.5 14.5v-3h1v2h3v1h-2z" fill="#ffa154" stroke="#a62100" stroke-linecap="square" stroke-opacity=".552941"/><g transform="translate(-8 -5)"><g transform="translate(-.000001 .000002)"><rect fill="url(#b)" height="6" rx=".5" width="7.000001" x="8.500001" y="9.499998"/><path d="m9.5 9.5c-.554 0-1 .446-1 1v1.5h7v-1.5c0-.554-.446-1-1-1z" fill="url(#c)" transform="translate(.000001 -.000002)"/><g fill="none" stroke-linecap="round" stroke-linejoin="round"><rect height="6" opacity=".3" rx="1" stroke="#0e141f" width="7.000001" x="8.500002" y="9.499998"/><path d="m9.500002 10.499998h5.000001v4h-5.000001z" opacity=".8" stroke="url(#a)"/></g></g><path d="m9 11.5h6" fill="none" opacity=".2" stroke="#000"/></g><g transform="translate(-.000002)"><g transform="translate(-.000001 .000002)"><rect fill="url(#b)" height="6" rx=".5" width="7.000001" x="8.500001" y="9.499998"/><path d="m9.5 9.5c-.554 0-1 .446-1 1v1.5h7v-1.5c0-.554-.446-1-1-1z" fill="url(#c)" transform="translate(.000001 -.000002)"/><g fill="none" stroke-linecap="round" stroke-linejoin="round"><rect height="6" opacity=".3" rx="1" stroke="#0e141f" width="7.000001" x="8.500002" y="9.499998"/><path d="m9.500002 10.499998h5.000001v4h-5.000001z" opacity=".8" stroke="url(#a)"/></g></g><path d="m9 11.5h6" fill="none" opacity=".2" stroke="#000"/></g><g transform="translate(-.000002 -9)"><g transform="translate(-.000001 .000002)"><rect fill="url(#b)" height="6" rx=".5" width="7.000001" x="8.500001" y="9.499998"/><path d="m9.5 9.5c-.554 0-1 .446-1 1v1.5h7v-1.5c0-.554-.446-1-1-1z" fill="url(#c)" transform="translate(.000001 -.000002)"/><g fill="none" stroke-linecap="round" stroke-linejoin="round"><rect height="6" opacity=".3" rx="1" stroke="#0e141f" width="7.000001" x="8.500002" y="9.499998"/><path d="m9.500002 10.499998h5.000001v4h-5.000001z" opacity=".8" stroke="url(#a)"/></g></g><path d="m9 11.5h6" fill="none" opacity=".2" stroke="#000"/></g></svg>