<svg viewBox="0 0 16 16" xmlns="http://www.w3.org/2000/svg" xmlns:xlink="http://www.w3.org/1999/xlink"><linearGradient id="a" gradientTransform="matrix(.24324324 0 0 .35135133 2.162164 -.432428)" gradientUnits="userSpaceOnUse" x1="8.480226" x2="8.370998" y1="12.55802" y2="34.315517"><stop offset="0" stop-color="#fff"/><stop offset="0" stop-color="#fff" stop-opacity=".235294"/><stop offset="1" stop-color="#fff" stop-opacity=".156863"/><stop offset="1" stop-color="#fff" stop-opacity=".392157"/></linearGradient><linearGradient id="b" gradientTransform="matrix(.28571361 0 0 .30419701 -34.246958 -9.394514)" gradientUnits="userSpaceOnUse" x1="109.96469" x2="110.87313" y1="41.280045" y2="74.929153"><stop offset="0" stop-color="#f4f4f4"/><stop offset="1" stop-color="#dbdbdb"/></linearGradient><linearGradient id="c" gradientTransform="matrix(1.3832 0 0 1.4144 -11.892 21.51)" gradientUnits="userSpaceOnUse" x1="13.697" x2="13.3" y1="12.091" y2="29.436"><stop offset="0" stop-color="#aff05f"/><stop offset="1" stop-color="#68b723"/></linearGradient><linearGradient id="d" gradientUnits="userSpaceOnUse" x1="12.674249" x2="12.002" xlink:href="#e" y1="11.124193" y2="20.001733"/><linearGradient id="e"><stop offset="0" stop-color="#fff"/><stop offset=".654" stop-color="#fff" stop-opacity=".235"/><stop offset="1" stop-color="#fff" stop-opacity=".157"/><stop offset="1" stop-color="#fff" stop-opacity=".392"/></linearGradient><linearGradient id="f" gradientUnits="userSpaceOnUse" x1="15.893" x2="15.608" y1="7.157" y2="21.532"><stop offset="0" stop-color="#cd9ef7"/><stop offset="1" stop-color="#a56de2"/></linearGradient><linearGradient id="g" gradientUnits="userSpaceOnUse" x1="14.705035" x2="14.002" xlink:href="#e" y1="7.535039" y2="20.001733"/><path d="m15 3v10h-14v-10z" fill="url(#b)"/><path d="m1.5 12.5v-9h13v9z" fill="none" stroke="url(#a)" stroke-linecap="round"/><path d="m15.5 2.5v11h-15v-11z" fill="none" stroke="#dd9861" stroke-linejoin="round"/><g transform="translate(-6.01 -6.01)"><rect fill="url(#f)" height="14.065" rx="1" width="3.968" x="17.515" y="7.469"/><g fill="none" stroke-linecap="round" stroke-linejoin="round"><path d="m18.503 8.517h2.05v12.016h-2.05z" opacity=".5" stroke="url(#g)"/><rect height="14.001" opacity=".5" rx=".664" ry=".63" stroke="#7239b3" width="4.012" x="17.499" y="7.495"/></g></g><g transform="translate(-11.002 -6.01)"><rect fill="url(#c)" height="7.941" rx="1" width="4.096" x="17.404" y="13.559"/><g fill="none" stroke-linecap="round" stroke-linejoin="round"><path d="m18.5 14.498h2v6h-2z" opacity=".5" stroke="url(#d)"/><rect height="7.97" opacity=".5" rx=".866" ry=".597" stroke="#7bb339" width="3.999" x="17.501" y="13.53"/></g></g></svg>