<svg height="16" width="16" xmlns="http://www.w3.org/2000/svg" xmlns:xlink="http://www.w3.org/1999/xlink"><linearGradient id="a" gradientTransform="matrix(.58649923 0 0 .74288938 -4.007407 -4.86097)" gradientUnits="userSpaceOnUse" x1="24.010853" x2="24.010853" y1="8.420643" y2="29.842258"><stop offset="0" stop-color="#fff"/><stop offset="0" stop-color="#fff" stop-opacity=".235"/><stop offset="1" stop-color="#fff" stop-opacity=".157"/><stop offset="1" stop-color="#fff" stop-opacity=".392"/></linearGradient><path d="m15 1v12h-14v-12z" fill="#e9e9e9"/><g fill="none"><path d="m15.5.5v13h-15v-13z" opacity=".74" stroke="#9f9f9f" stroke-linejoin="round"/><path d="m1.483 12.517.017-11.017h13l-.017 11.017z" stroke="#fff" stroke-linecap="round"/><path d="m3.497 3.503h9.972v9.04h-9.974z" stroke="#e25757" stroke-dasharray="1 1" stroke-dashoffset=".5"/></g><path d="m6.347 14.988c.005.248.02.632.236.685 2.282.013 4.575-.01 6.856-.006.234.01.243-.43.235-.69l-7.33.01z" fill="#505050" stroke="#565656" stroke-linecap="square" stroke-width=".691"/><g stroke-linecap="round"><path d="m4.588 9.568.517-2.11 9.76.014.494 2.118z" fill="#4f4f4f" fill-rule="evenodd"/><path d="m4.988 9.54 9.99.012c.278 0 .502.24.5.54l-.004 4.414-10.993-.01.008-4.416c0-.3.223-.54.5-.54z" fill="#4f4f4f"/><path d="m5.01 9.488 9.99.012c.278 0 .502.24.5.54l-.026 4.466-10.993-.01.03-4.468c0-.3.223-.54.5-.54z" fill="none" opacity=".71" stroke="#393939" stroke-linejoin="round"/><path d="m12 10h2v1h-2z" fill="#0cceff" stroke-width="1.414214"/><path d="m4.5801875 9.521125.5248125-2.063125 9.76.014.486188 2.071125z" fill="none" opacity=".7" stroke="#393939" stroke-linecap="butt"/></g><g fill="#e9e9e9" transform="matrix(.69122 0 0 .69122 4.036 5.036)"><path d="m13.691733 10.07494-.000239 4.569871c-.000014.27348-.06974.496583-.15625.49364h-4.9070214-4.9075c-.086562 0-.15626-.22016-.15625-.49364l.0002391-4.569871z" stroke-width="1.9872"/><g stroke-width="1.446717"><path d="m3.5803-.76389 10.115-.00956-.0036 5.7848791-10.1149995.0113z" stroke="#8c8c8c" stroke-linejoin="round"/><path d="m12.245016 3.5647117h-7.2495009l.015914-2.89343483h7.2335869z" fill="none" stroke="url(#a)" stroke-linecap="round"/></g></g></svg>