<svg height="16" width="16" xmlns="http://www.w3.org/2000/svg" xmlns:xlink="http://www.w3.org/1999/xlink"><linearGradient id="a" gradientTransform="matrix(.24324 0 0 .35135 2.162 -.432)" gradientUnits="userSpaceOnUse" x1="24" x2="24" y1="6.923" y2="41.077"><stop offset="0" stop-color="#fff"/><stop offset="0" stop-color="#fff" stop-opacity=".235"/><stop offset="1" stop-color="#fff" stop-opacity=".157"/><stop offset="1" stop-color="#fff" stop-opacity=".392"/></linearGradient><linearGradient id="b" gradientTransform="matrix(.31427 0 0 .32592858 .4573 -.321786)" gradientUnits="userSpaceOnUse" x1="25.132" x2="25.132" y1=".985" y2="47.013"><stop offset="0" stop-color="#f4f4f4"/><stop offset="1" stop-color="#dbdbdb"/></linearGradient><linearGradient id="c" gradientTransform="matrix(.2538 0 0 .30502 19.13 -.685)" gradientUnits="userSpaceOnUse" x1="-51.786" x2="-51.786" y1="50.786" y2="2.906"><stop offset="0" stop-opacity=".34"/><stop offset="1" stop-opacity=".247"/></linearGradient><linearGradient id="d" gradientTransform="matrix(.25764 0 0 .256 -18.787 32.336)" gradientUnits="userSpaceOnUse" spreadMethod="reflect" x1="103.95" x2="89.424" xlink:href="#e" y1="-7.666" y2="-7.666"/><linearGradient id="e"><stop offset="0" stop-color="#868688"/><stop offset="1" stop-color="#d9d9da"/></linearGradient><linearGradient id="f" gradientTransform="matrix(.56273 0 0 .59218 -44.99 15.484)" gradientUnits="userSpaceOnUse" x1="89.018" x2="89.018" xlink:href="#g" y1="22.537" y2="27.546"/><linearGradient id="g"><stop offset="0" stop-color="#a0a0a0"/><stop offset="1" stop-color="#4a4a4a"/></linearGradient><linearGradient id="h" gradientTransform="matrix(.25764 0 0 .256 -18.787 28.336)" gradientUnits="userSpaceOnUse" spreadMethod="reflect" x1="103.95" x2="89.424" xlink:href="#e" y1="-7.666" y2="-7.666"/><linearGradient id="i" gradientTransform="matrix(.56273 0 0 .59218 -44.99 11.484)" gradientUnits="userSpaceOnUse" x1="89.018" x2="89.018" xlink:href="#g" y1="22.537" y2="27.546"/><linearGradient id="j" gradientTransform="matrix(.25764 0 0 .252 -18.787 24.39)" gradientUnits="userSpaceOnUse" spreadMethod="reflect" x1="103.95" x2="89.424" xlink:href="#e" y1="-7.666" y2="-7.666"/><linearGradient id="k" gradientTransform="matrix(.56273 0 0 .58293 -44.99 7.8)" gradientUnits="userSpaceOnUse" x1="89.018" x2="89.018" xlink:href="#g" y1="22.537" y2="27.546"/><linearGradient id="l" gradientTransform="matrix(.25894 0 0 .19506 -18.915 21.137)" gradientUnits="userSpaceOnUse" spreadMethod="reflect" x1="102.308" x2="102.308" y1="-2.393" y2="-24.582"><stop offset="0" stop-color="#a5a6a8"/><stop offset="1" stop-color="#e8e8e8"/></linearGradient><linearGradient id="m" gradientTransform="matrix(.25894 0 0 .19506 -18.915 21.137)" gradientUnits="userSpaceOnUse" x1="109.956" x2="109.956" y1="-24.911" y2="-2.376"><stop offset="0" stop-color="#b3b3b3"/><stop offset="1" stop-color="#dadada"/></linearGradient><linearGradient id="n" gradientTransform="matrix(.3143 0 0 .3421 .457 15.618)" gradientUnits="userSpaceOnUse" x1="21.381" x2="21.381" y1="5.052" y2="44.137"><stop offset="0" stop-color="#fff"/><stop offset=".081" stop-color="#fff" stop-opacity=".235"/><stop offset=".923" stop-color="#fff" stop-opacity=".157"/><stop offset="1" stop-color="#fff" stop-opacity=".392"/></linearGradient><clipPath id="o"><path d="m-1 16h10v14h-10z"/></clipPath><path d="m2.5.5h11v15h-11z" fill="url(#b)" stroke-width="1.08562"/><path d="m2.5.5h11v15h-11z" fill="none" stroke="url(#c)" stroke-linejoin="round"/><g clip-path="url(#o)" opacity=".7" transform="translate(4 -15)"><path d="m14.46 29.5c0 1.2-2.898 2-6.467 2-3.57 0-6.468-.8-6.468-2 0-4.634-.79-3.195 6.468-3.25 7.424-.056 6.467-1.41 6.467 3.25z" fill="url(#d)" stroke="url(#f)"/><path d="m14.5 26.5c0 1.105-2.91 2-6.5 2s-6.5-.895-6.5-2 2.91-2 6.5-2 6.5.895 6.5 2z" fill="none" stroke="#d8d8d8"/><path d="m14.46 25.5c0 1.157-2.898 2-6.467 2-3.57 0-6.468-.8-6.468-2 0-4.634-.79-3.195 6.468-3.25 7.424-.056 6.467-1.41 6.467 3.25z" fill="url(#h)" stroke="url(#i)"/><path d="m14.5 22.5c0 1.105-2.91 2-6.5 2s-6.5-.895-6.5-2 2.91-2 6.5-2 6.5.895 6.5 2z" fill="none" stroke="#d8d8d8"/><path d="m14.46 21.5c0 1.218-2.898 2-6.467 2-3.57 0-6.468-.95-6.468-2 0-4.344-.79-3.046 6.468-3.1 7.424-.056 6.467-.83 6.467 3.1z" fill="url(#j)" stroke="url(#k)"/><path d="m14.5 18.5c0 1.105-2.91 2-6.5 2s-6.5-.895-6.5-2 2.91-2 6.5-2 6.5.895 6.5 2z" fill="url(#l)" stroke="url(#m)"/><rect fill="none" height="13" opacity=".5" rx="17.5" ry="1.5" stroke="url(#n)" width="11" x="2.5" y="17.5"/></g><path d="m12.5 14.5h-9v-13h9z" fill="none" stroke="url(#a)" stroke-linecap="round"/></svg>