<svg height="16" viewBox="0 0 4.2333332 4.2333335" width="16" xmlns="http://www.w3.org/2000/svg" xmlns:xlink="http://www.w3.org/1999/xlink"><linearGradient id="a" gradientTransform="matrix(.3705263 0 0 .38647344 7.53368 7.335749)" gradientUnits="userSpaceOnUse" x1="11.192374" x2="11.192374" y1="4.064163" y2="30.298229"><stop offset="0" stop-color="#ff8c82"/><stop offset=".31209752" stop-color="#ed5353"/><stop offset=".57054454" stop-color="#c6262e"/><stop offset="1" stop-color="#a10705"/></linearGradient><linearGradient id="b" gradientTransform="matrix(.64000001 0 0 .69565218 -14.27409 .033675)" gradientUnits="userSpaceOnUse" x1="41.225124" x2="41.225124" y1="23.238064" y2="7.916672"><stop offset="0" stop-color="#7a0000"/><stop offset="1" stop-color="#a10705"/></linearGradient><linearGradient id="c" gradientTransform="matrix(.19694688 -.20520309 .19694688 .20520309 2.33061 11.959949)" gradientUnits="userSpaceOnUse" x1="36.010902" x2="16.331276" xlink:href="#d" y1="13.022708" y2="32.702335"/><linearGradient id="d"><stop offset="0" stop-color="#fff"/><stop offset="1" stop-color="#fff" stop-opacity="0"/></linearGradient><linearGradient id="e" gradientTransform="matrix(.19694688 -.20520309 .19694688 .20520309 2.13207 12.063489)" gradientUnits="userSpaceOnUse" x1="28.449389" x2="16.331276" xlink:href="#d" y1="20.584223" y2="32.702335"/><linearGradient id="f" gradientTransform="matrix(-.00071707 .13232963 -.1355213 -.00073465 -8.366433 -4.342483)" gradientUnits="userSpaceOnUse" x1="33.891682" x2="151.63832" y1="-119.68561" y2="-121.81685"><stop offset="0" stop-color="#fff394"/><stop offset=".262" stop-color="#ffe16b"/><stop offset=".661" stop-color="#f9c440"/><stop offset="1" stop-color="#d48e15"/></linearGradient><linearGradient id="g" gradientUnits="userSpaceOnUse" x1="8" x2="8" y1="2" y2="10"><stop offset="0" stop-color="#fff"/><stop offset=".25544232" stop-color="#fff" stop-opacity=".235294"/><stop offset="1" stop-color="#fff" stop-opacity=".156863"/><stop offset="1" stop-color="#fff" stop-opacity=".392157"/></linearGradient><g transform="scale(.26458333)"><g stroke-linecap="round" stroke-opacity=".501961"><path d="m2.5.5c-1.1080002 0-2 .8919999-2 2v7c0 1.108.8919998 2 2 2h1.8007812l-.8007812 4 4.0000001-4h5.9999999c1.108 0 2-.892 2-2v-7c0-1.1080001-.892-2-2-2z" fill="url(#f)" stroke="#ad5f00" stroke-linejoin="round"/><path d="m2.5 1.5c-.5712976 0-1 .4287025-1 1v7c0 .571297.4287025 1 1 1h1.8007812c.6315369.000002 1.104974.578124.9804688 1.197266l-.1523438.759765 1.6640626-1.664062c.1875117-.187536.4418322-.292918.7070312-.292969h6c.571297 0 1-.428703 1-1v-7c0-.5712974-.428703-1-1-1z" fill="none" stroke="url(#g)" stroke-linecap="square"/></g><g><path d="m15.5 14.214902-2.0384-2.049501 1.96142-2.147073-1.41391-1.3299219-2.01857 2.0460349-2.05948-2.0460349-1.47106 1.3788389 2.05948 2.089411-2.05948 2.056046 1.47106 1.432225 2.05709-2.148338 2.06188 2.148338z" fill="url(#a)" stroke="url(#b)" stroke-linejoin="round"/><g fill="none"><path d="m14.01392 10.098118-2.00624 2.049356-2.09215-2.047403" opacity=".5" stroke="url(#c)" stroke-linecap="square"/><path d="m14.3566 14.622087-1.66668-1.887606m-1.42902.08076-1.73943 1.713246" opacity=".4" stroke="url(#e)"/></g></g></g></svg>