<svg height="16" width="16" xmlns="http://www.w3.org/2000/svg" xmlns:xlink="http://www.w3.org/1999/xlink"><linearGradient id="a" gradientTransform="matrix(.26726 0 0 1.15755 9.316 -10.704)" gradientUnits="userSpaceOnUse" x1="-32.957001" x2="-25.474001" y1="27.389" y2="27.389"><stop offset="0" stop-color="#2e3436"/><stop offset=".644" stop-color="#888a85"/><stop offset="1" stop-color="#555753"/></linearGradient><linearGradient id="b" gradientTransform="matrix(.77602 .23906 -.31605 .56748 -20.168 4.55)" gradientUnits="userSpaceOnUse" x1="27.528" x2="30.42" y1="4.167" y2="2.949"><stop offset="0" stop-color="#eeeeec"/><stop offset=".789" stop-color="#fff"/><stop offset="1" stop-color="#eeeeec"/></linearGradient><linearGradient id="c" gradientUnits="userSpaceOnUse" x1="1" x2="14" y1="8" y2="8"><stop offset="0" stop-opacity=".34"/><stop offset="1" stop-opacity=".247"/></linearGradient><linearGradient id="d" gradientUnits="userSpaceOnUse" x1="1" x2="14" y1="8" y2="8"><stop offset="0" stop-color="#e3e3e4"/><stop offset=".5" stop-color="#fcfcfc"/><stop offset="1" stop-color="#e3e3e4"/></linearGradient><linearGradient id="e" gradientTransform="matrix(.61235343 0 0 .61170627 -387.02182 80.68349)" gradientUnits="userSpaceOnUse" x1="645.08795" x2="645.08795" y1="-128.62953" y2="-109.01227"><stop offset="0" stop-color="#fff"/><stop offset=".00000009" stop-color="#fff" stop-opacity=".235294"/><stop offset="1" stop-color="#fff" stop-opacity=".156863"/><stop offset="1" stop-color="#fff" stop-opacity=".392157"/></linearGradient><path d="m.5.5v2.8046875c.28021846.6270994 4.2731717 3.2353524 6 5.6953125v6.5h1.5 1.5v-6.5c1.726828-2.4599601 5.719782-5.0682131 6-5.6953125v-2.8046875h-7.5z" fill="url(#d)" stroke="url(#c)" stroke-linecap="round" stroke-linejoin="round"/><path d="m1.5 1.5h13v1.4453125c-1.986969 1.8400155-3.419162 2.7272634-6 5.5546875v6h-1v-6c-1.7290181-2.4358744-3.9973166-3.6953641-6-5.5546875z" fill="none" stroke="url(#e)" stroke-width=".999566"/><g transform="matrix(.77076 -.445 .37655 .6522 1.94 -4.56)"><path d="m.5 18v12.438c0 .58.297 1.062.667 1.062h.666c.37 0 .667-.48.667-1.063v-12.437z" fill="url(#a)" fill-rule="evenodd"/><rect fill="none" height="21" opacity=".3" rx=".749" ry=".929" stroke="#000" stroke-width="1.221" width="2" x=".5" y="10.5"/><path d="m1.167 10.5c-.37 0-.667.48-.667 1.063v6.437h2v-6.438c0-.58-.297-1.062-.667-1.062z" fill="url(#b)" fill-rule="evenodd"/></g></svg>