<svg viewBox="0 0 16 16" xmlns="http://www.w3.org/2000/svg">


     /&gt;
 <path d="m1 3h1l1 1v10 1h12v-13l-1-1h-13z" fill="#e9e9e9" fill-rule="evenodd"/><path d="m2.4941406 0c-.9466364-.01252704-1.68179229.50034771-2.06249998 1.1914062-.38070767.6910586-.48022188 1.532259-.41210937 2.3496094a.50005.50005 0 0 0  .49804687.4589844h1.46874998v9.5c0 .658291.3381315 1.252194.7929688 1.707031.4548372.454837 1.04874.792969 1.7070312.792969h7.5136719v-1h-7.5136719c-.2845177 0-.6905395-.190539-1-.5s-.5-.715482-.5-1v-10a .50005.50005 0 0 0 -.5-.5h-1.3964843c.0180546-.4880009.0358225-.9976683.2167968-1.3261719.2433318-.4416945.5544798-.68202406 1.1738282-.6738281a.50005.50005 0 0 0  .0058593 0h9.5136719v-1z" fill="#8c8c8c"/><path d="m5.9872673 2.0000004v1l6.0127327.0007456v-1zm0 2v1l6.0127327.0007456v-1zm0 2v1l6.0127327.0007456v-1zm0 2v1l6.0127327.0007456v-1zm0 1.9999996v1l6.0127327.000746v-1z" fill="#fff"/><path d="m3.9872673 2.0000004v1h1v-1zm0 2v1h1v-1zm0 2v1h1v-1zm0 2v1h1v-1zm0 1.9999996v1h1v-1zm0 2v1h1v-1z" fill="#fff"/><g fill="#8c8c8c"><path d="m6.4863281 12a .50005.50005 0 0 0 -.5.5c.00191.761606-.123151 1.436455-.3652343 1.861328-.2420835.424874-.5307524.638672-1.1347657.638672a.50005.50005 0 0 0 -.1464843.023438.50005.50005 0 0 0 -.046875.017578.50005.50005 0 0 0 -.1269532.080078.50005.50005 0 0 0 -.0351562.035156.50005.50005 0 0 0 -.1210938.462891.50005.50005 0 0 0  .0332032.09375.50005.50005 0 0 0  .0507812.085937.50005.50005 0 0 0  .0332031.039063.50005.50005 0 0 0  .1601563.117187.50005.50005 0 0 0  .1445312.041016.50005.50005 0 0 0  .0546875.003906h8.5136719v-1h-6.6503906c.038423-.05544.1072253-.08591.140625-.144531.2999682-.526466.3468601-1.192735.390625-1.855469h6.1191406v-1z"/><path d="m7 0v1h6.1875c.231692 0 .752384.2523837 1.148438.6484375.396051.3960538.65039.9186987.65039 1.1503906l.016949 10.2011719h1l-.01695-10.2011719c-.001181-.711116-.423747-1.3397639-.941405-1.85742185-.517658-.51765796-1.146305-.94140625-1.857422-.94140625z"/><path d="m9 12v1h5.912109c-.01848.491497-.03539 1.005254-.21875 1.333984-.246464.441872-.560593.68293-1.193359.666016a.50005.50005 0 0 0 -.013672 0h-4.486328v1h4.474609c.958526.02562 1.706788-.485925 2.09375-1.179688.386963-.693761.486538-1.540457.417969-2.363281a.50005.50005 0 0 0 -.5-.457031z"/></g><path d="m12.987267 2.0000004v1h1v-1zm0 2v1h1v-1zm0 2v1h1v-1zm0 2v1h1v-1zm0 1.9999996v1h1v-1z" fill="#fff"/><path d="m6.8808594 13h8.1191406l-.186441 1h-8.0513437z" fill="#fff"/><g transform="matrix(.79859265 0 0 .80150201 3.204895 3.175968)"><path d="m10.212891 7.0820312c-.04519.0135-.08814.041581-.121094.080078-.06594.076995-.08053.1832-.03516.265625l1.208984 2.3007812c.108546.2062348.03449.4808766-.167969.7675786-.204399.289418-.536596.584777-.955078.826172-.4185718.241455-.831725.383321-1.173828.410156-.340083.0267-.6040676-.05687-.7128906-.263672l-1.2148398-2.3144531c-.0339-.0642-.09729-.1039825-.171875-.109375-.07454-.00525-.150637.026084-.203125.083984-.02829.03015-.049627.064568-.060547.1035157-.303252 1.1099394-.2389549 2.3672704.2050781 3.2109374.606415 1.152179 1.9540853 1.653991 3.3085943 1.355469.540927.160605 1.251004.536592 2.076171 1.357422l.865235.84375h2.939453v-1.259766l-1.683594-1.695312c-.743865-.739949-1.122711-1.387266-1.308594-1.902344.213754-.733072.173755-1.5020846-.177734-2.1699218-.443861-.8432992-1.422513-1.5636595-2.478516-1.8886718-.04528-.014813-.09349-.015453-.138671-.00195z" fill="#9cde4a" fill-rule="evenodd"/><path d="m10.285156 6.6425781c-.198787-.0010556-.3900426.0870081-.519531.2382813-.1722928.2011781-.2272846.4971169-.0859375.7539062l1.2031245 2.2949219c-.0023-.00442.01933.097385-.136718.3183595-.157218.222612-.446048.486409-.8183596.701172-.3748111.216211-.7420608.333742-.9941406.353515-.126899.01-.2197817-.0059-.2636719-.02148-.040774-.01444-.033292-.01333-.03125-.01172l-.00195-.002-1.2148469-2.3124559a.43084286.43084286 0 0 0 0-.00195c-.1016301-.1924737-.3104343-.3226348-.5214844-.3378937-.2089575-.0147173-.4062718.0662888-.5488281.2207031h-.00195c-.00105.00114-.00287.0008084-.00391.00195a.43084286.43084286 0 0 0 -.09375.171875c-.018705.037435-.048792.065498-.060547.1074219a.43084286.43084286 0 0 0 -.00195.00195c-.3291137 1.2045966-.2779677 2.5408016.2402344 3.5253906.6830795 1.297841 2.1727361 1.86472 3.6406241 1.595703-.02342-.0076-.05165-.02064-.074218-.02734l.214845.0078c-.04674.0103-.09382.01095-.140626.01953.458333.149495 1.074387.478698 1.820313 1.220704a.43084286.43084286 0 0 0  .0039.0039l.548831.535178h1.232422l-1.179687-1.152344.002.0039c-.866331-.861724-1.638151-1.281441-2.255859-1.464843a.43084286.43084286 0 0 0 -.216797-.0078c-1.1966863.263709-2.3260641-.171595-2.8340318-1.136725-.3006942-.571324-.3477458-1.453726-.2285156-2.3105474l.9121094 1.7382814c.1099254.2089.3062061.3531.5058594.423828.1996533.07073.4079096.08314.6210937.06641.432126-.0339.8931357-.198144 1.3554689-.464844.464652-.268027.840217-.592994 1.091797-.949218.248878-.352429.416682-.7999107.197265-1.2167971l-.9375-1.7832031c.752271.3458934 1.438028.8516135 1.740235 1.4257812.294066.558733.331576 1.210088.144531 1.851563a.43084286.43084286 0 0 0  .0078.265624c.210302.582742.629285 1.283786 1.410157 2.060547l1.988281 2v-1.222656l-1.378906-1.386719a.43084286.43084286 0 0 0 -.002-.002c-.68794-.68435-1.009234-1.25038-1.175723-1.693316.174548-.762599.141105-1.5637245-.232421-2.2734376-.517432-.9830744-1.573486-1.7413004-2.726563-2.0976563-.065963-.0213516-.132956-.0308981-.199219-.03125z" fill="#5ca12a" fill-rule="evenodd"/></g></svg>