<svg viewBox="0 0 16 16" xmlns="http://www.w3.org/2000/svg" xmlns:xlink="http://www.w3.org/1999/xlink"><linearGradient id="a" gradientTransform="matrix(0 -.5372019 .57681717 0 -15.997188 19.865617)" gradientUnits="userSpaceOnUse" x1="11.517301" x2="11.483547" y1="13.14685" y2="3.511022"><stop offset="0" stop-color="#fff"/><stop offset=".45000002" stop-color="#fff" stop-opacity=".235294"/><stop offset=".65000004" stop-color="#fff" stop-opacity=".156863"/><stop offset="1" stop-color="#fff" stop-opacity=".392157"/></linearGradient><path d="m0 2.9999995h16v3h-16z" fill="#8c8c8c"/><path d="m .5 1.9999995c-.27630144-.0003844-.50038441.2236986-.5.5v12.0000005c-.00038442.276301.22369855.500384.5.5h5.5v-.998047h-5.00195312v-11.0039066h14.00390612v3.0019531h.998047v-3.5c.000384-.2763014-.223699-.5003844-.5-.5zm4.5 1v2h-4v1h4v2h-4v1h4v2.0000005h-4v1h4v2h1v-5.0000005-1-1.6269531-.3730469h.21875 3.78125 1 4v-1h-4v-2h-1v2h-4v-2z" fill="#565656"/><g transform="matrix(1 0 0 -1 0 17.994133)"><path d="m13.697015 12.512529c3.557432-2.432529 1.42059-7.098253-2.204269-7.098253v-1.9327186l-5.0098692 3.6122485 5.0098692 3.3776191v-2.0228593c2.557415-.1004654 3.675406 2.3666283 1.847113 4.0639633z" style="display:block;fill:#d8a7ff;stroke:#8e56dc;stroke-width:.970374;stroke-linejoin:round;stroke-miterlimit:7"/><path d="m10.976562 4.4667969-3.6777339 2.6464843 3.6777339 2.4042969.02542-1.611924c2.212721.037013 3.46091.6648232 3.753781 2.7184169.730399-2.0356237-.05929-4.7099873-3.779198-4.6162615zm-.970703 1.8945312v.6074219l.548829-.074219c1.919602-.2540225 2.988922.5643763 3.476562 1.5546878-.70319-.6798944-1.74883-1.2113931-3.566406-1.1132813l-.458985.023437v.3652344l-.9921871-.6503901z" display="block" fill="url(#a)" opacity=".8"/></g></svg>