<svg height="16" width="16" xmlns="http://www.w3.org/2000/svg" xmlns:xlink="http://www.w3.org/1999/xlink"><radialGradient id="a" cx="24.837126" cy="36.421127" gradientTransform="matrix(-.25568731 0 0 -.17604034 13.353337 17.657486)" gradientUnits="userSpaceOnUse" r="15.644737"><stop offset="0"/><stop offset="1" stop-opacity="0"/></radialGradient><linearGradient id="b" gradientTransform="matrix(.18918906 0 0 .24324323 5.459188 3.162165)" gradientUnits="userSpaceOnUse" x1="23.99999" x2="23.99999" xlink:href="#c" y1="7.555544" y2="40.444435"/><linearGradient id="c"><stop offset="0" stop-color="#fff"/><stop offset="0" stop-color="#fff" stop-opacity=".235294"/><stop offset="1" stop-color="#fff" stop-opacity=".156863"/><stop offset="1" stop-color="#fff" stop-opacity=".392157"/></linearGradient><linearGradient id="d" gradientTransform="matrix(.25714449 0 0 .23901336 3.828532 2.897003)" gradientUnits="userSpaceOnUse" x1="25.132275" x2="25.132275" xlink:href="#e" y1=".985206" y2="47.013336"/><linearGradient id="e"><stop offset="0" stop-color="#f4f4f4"/><stop offset="1" stop-color="#dbdbdb"/></linearGradient><linearGradient id="f" gradientTransform="matrix(.20764335 0 0 .2236809 19.105546 2.630629)" gradientUnits="userSpaceOnUse" x1="-51.786404" x2="-51.786404" xlink:href="#g" y1="50.786446" y2="2.906247"/><linearGradient id="g"><stop offset="0" stop-color="#a0a0a0"/><stop offset="1" stop-color="#bebebe"/></linearGradient><linearGradient id="h" gradientTransform="matrix(.18918906 0 0 .24324323 1.459187 .162165)" gradientUnits="userSpaceOnUse" x1="23.99999" x2="23.99999" xlink:href="#c" y1="7.555544" y2="40.444435"/><linearGradient id="i" gradientTransform="matrix(.25714449 0 0 .23901336 -.171468 -.102997)" gradientUnits="userSpaceOnUse" x1="25.132275" x2="25.132275" xlink:href="#e" y1=".985206" y2="47.013336"/><linearGradient id="j" gradientTransform="matrix(.20764335 0 0 .2236809 15.105546 -.369371)" gradientUnits="userSpaceOnUse" x1="-51.786404" x2="-51.786404" xlink:href="#g" y1="50.786446" y2="2.906247"/><linearGradient id="k" gradientTransform="matrix(.26423972 0 0 -.23508661 .152085 12.576766)" gradientUnits="userSpaceOnUse" x1="25.46862" x2="25.46862" y1="32.841259" y2="2.723591"><stop offset="0" stop-color="#8cd5ff"/><stop offset=".26238" stop-color="#64baff"/><stop offset=".704952" stop-color="#3689e6"/><stop offset="1" stop-color="#0d52bf"/></linearGradient><linearGradient id="l" gradientUnits="userSpaceOnUse" x1="5.73154" x2="5.899279" y1="6.972961" y2="12.650928"><stop offset="0" stop-color="#fff"/><stop offset=".45000002" stop-color="#fff" stop-opacity=".235294"/><stop offset=".65000004" stop-color="#fff" stop-opacity=".156863"/><stop offset="1" stop-color="#fff" stop-opacity=".392157"/></linearGradient><path d="m1.499961.49996096c2.0623745 0 9.000067.000712 9.000067.000712l.000012 10.99936604s-6.0000528 0-9.000079 0c0-3.66669 0-7.333378 0-11.00006704z" fill="url(#i)" stroke="url(#j)" stroke-linejoin="round" stroke-width=".999922"/><path d="m9.4999998 10.5h-7.0000001v-9h7.0000001z" fill="none" stroke="url(#h)" stroke-linecap="round"/><path d="m4 2c1.6040548 0 6.999992.000668 6.999992.000668l.000008 9.999332s-4.6666668 0-7 0c0-3.333325 0-6.666648 0-9.999971z" opacity=".05"/><path d="m5.4999613 3.499961c2.0623745 0 9.0000667.000712 9.0000667.000712l.000012 10.999366s-6.0000525 0-9.0000787 0c0-3.66669 0-7.333378 0-11.000067z" fill="url(#d)" stroke="url(#f)" stroke-linejoin="round" stroke-width=".999922"/><path d="m13.5 13.5h-7v-9h7z" fill="none" stroke="url(#b)" stroke-linecap="round"/><path d="m3.0026383 11.245895a4.0001608 2.7541062 0 1 1 8.0003217 0 4.0001608 2.7541062 0 0 1 -8.0003217 0z" fill="url(#a)" fill-rule="evenodd" opacity=".141176"/><g transform="translate(1.233498 2.409228)"><path d="m4.1972475 3.4812663c-3.35515788 2.1649249-1.3398156 6.3173698 2.0789355 6.3173698v1.7200979l4.249674-3.2148613-4.249674-3.006046v1.8003238c-2.4120014.0894127-3.4664244-2.1062743-1.7420866-3.6168842z" display="block" fill="url(#k)"/><g fill="none"><path d="m4.1501107 3.4072865c-3.41560759 2.2047897-1.3639548 6.4336967 2.1163916 6.4336967v1.7517708l4.3262397-3.2740578-4.3262397-3.0613992v1.8334748c-2.4554583.091059-3.5288789-2.145059-1.7734738-3.6834853z" stroke="#0d52bf" stroke-linecap="round" stroke-linejoin="round" stroke-opacity=".501961"/><path d="m3.671875 7.2402344c.2099117.4951025.5183283.8570023.9042969 1.1035156.6654241.4249981 1.5600315.5436133 2.3984375.4765625a.31452192.31452192 0 0 1 .3398437.3203125l-.00586.34375 1.53125-1.1386719-1.5429681-1.1035156-.015625.4785156a.31452192.31452192 0 0 1 -.2421875.296875c-.9797155.229553-1.951649.0696192-2.7246094-.3105469-.2497513-.1228355-.4384988-.30099-.6425781-.4667968z" opacity=".5" stroke="url(#l)"/></g></g></svg>