<svg height="16" width="16" xmlns="http://www.w3.org/2000/svg" xmlns:xlink="http://www.w3.org/1999/xlink"><linearGradient id="a" gradientTransform="matrix(.25378586 0 0 .30501865 19.128979 -.685477)" gradientUnits="userSpaceOnUse" x1="-51.786404" x2="-51.786404" y1="50.786446" y2="2.906247"><stop offset="0" stop-opacity=".339506"/><stop offset="1" stop-opacity=".246914"/></linearGradient><linearGradient id="b" gradientTransform="matrix(.24324324 0 0 .35135133 2.162164 -.432428)" gradientUnits="userSpaceOnUse" x1="9.602433" x2="46.602432" y1="-32.928219" y2="-32.928219"><stop offset="0" stop-color="#fff"/><stop offset="0" stop-color="#fff" stop-opacity=".235294"/><stop offset="1" stop-color="#fff" stop-opacity=".156863"/><stop offset="1" stop-color="#fff" stop-opacity=".392157"/></linearGradient><linearGradient id="c" gradientTransform="matrix(.24324324 0 0 .35135133 2.162164 -.432428)" gradientUnits="userSpaceOnUse" x1="21.935766" x2="42.491322" y1="-8.735909" y2="-8.735909"><stop offset="0" stop-color="#fff"/><stop offset=".00000003" stop-color="#fff" stop-opacity=".235294"/><stop offset="1" stop-color="#fff" stop-opacity=".156863"/><stop offset="1" stop-color="#fff" stop-opacity=".392157"/></linearGradient><linearGradient id="d" gradientUnits="userSpaceOnUse" x1="14.497891" x2="5.497891" xlink:href="#a" y1="-6.001801" y2="-6.001801"/><linearGradient id="e" gradientUnits="userSpaceOnUse" x1="15.497891" x2="2.497891" xlink:href="#a" y1="-15.001801" y2="-15.001801"/><g transform="matrix(0 1 -1 0 -.001801 -.497891)"><g stroke-width="1.000249"><path d="m2.997891-15.501801h11.999694v6.003608l-11.999694-.003608z" fill="#e9e9e9" fill-rule="evenodd" stroke="url(#e)" stroke-linejoin="round" stroke-miterlimit="0"/><path d="m3.998074-14.498001h9.99978v3.999806h-9.99978z" fill="none" stroke="url(#b)" stroke-linecap="round" stroke-miterlimit="2"/><path d="m5.998197-6.49795h7.99908v5.999751h-7.99908z" fill="#e9e9e9" fill-rule="evenodd" stroke="url(#d)" stroke-linejoin="round" stroke-miterlimit="0"/></g><path d="m6.99753-5.498072h6.000422v3.999871h-6.000422z" fill="none" stroke="url(#c)" stroke-miterlimit="3"/></g><g fill="#ffa154" stroke="#a62100" stroke-linejoin="round" stroke-miterlimit="0" stroke-opacity=".501961" transform="translate(.001926 .499692)"><g transform="matrix(0 -1 1 0 20.500306 .000308)"><path d="m-7-9.000308h3v2h-3z"/><path d="m-12-9.000308h3v2h-3z"/><path d="m-17-9.000308h3v2h-3z"/><path d="m-2-9.000308h3v2h-3z"/></g><g transform="matrix(0 -1 1 0 11.498382 .000308)"><path d="m-7-9.000308h3v2h-3z"/><path d="m-12-9.000308h3v2h-3z"/><path d="m-17-9.000308h3v2h-3z"/><path d="m-2-9.000308h3v2h-3z"/></g></g></svg>