<svg height="16" width="16" xmlns="http://www.w3.org/2000/svg" xmlns:xlink="http://www.w3.org/1999/xlink"><linearGradient id="a" gradientTransform="matrix(.31428569 0 0 .34210527 .457142 15.618423)" gradientUnits="userSpaceOnUse" x1="21.381216" x2="21.381216" y1="5.052486" y2="44.137077"><stop offset="0" stop-color="#fff"/><stop offset=".08125819" stop-color="#fff" stop-opacity=".235294"/><stop offset=".92327863" stop-color="#fff" stop-opacity=".156863"/><stop offset="1" stop-color="#fff" stop-opacity=".392157"/></linearGradient><linearGradient id="b"><stop offset="0" stop-color="#868688"/><stop offset="1" stop-color="#d9d9da"/></linearGradient><linearGradient id="c"><stop offset="0" stop-color="#a0a0a0"/><stop offset="1" stop-color="#4a4a4a"/></linearGradient><linearGradient id="d" gradientTransform="matrix(.25894051 0 0 .19506397 -18.915491 21.136932)" gradientUnits="userSpaceOnUse" spreadMethod="reflect" x1="102.30806" x2="102.30806" y1="-2.392547" y2="-24.582239"><stop offset="0" stop-color="#a5a6a8"/><stop offset="1" stop-color="#e8e8e8"/></linearGradient><linearGradient id="e" gradientTransform="matrix(.25894051 0 0 .19506397 -18.915491 21.136932)" gradientUnits="userSpaceOnUse" x1="109.95628" x2="109.95628" y1="-24.91135" y2="-2.375786"><stop offset="0" stop-color="#b3b3b3"/><stop offset="1" stop-color="#dadada"/></linearGradient><linearGradient id="f" gradientTransform="matrix(.25763669 0 0 .2519943 -18.787395 24.390022)" gradientUnits="userSpaceOnUse" spreadMethod="reflect" x1="103.95014" x2="89.423676" xlink:href="#b" y1="-7.665694" y2="-7.665694"/><linearGradient id="g" gradientTransform="matrix(.56272887 0 0 .58293421 -44.991146 7.801097)" gradientUnits="userSpaceOnUse" x1="89.01844" x2="89.01844" xlink:href="#c" y1="22.536863" y2="27.54611"/><linearGradient id="h" gradientTransform="matrix(.25763669 0 0 .25599322 -18.787395 28.335879)" gradientUnits="userSpaceOnUse" spreadMethod="reflect" x1="103.95014" x2="89.423676" xlink:href="#b" y1="-7.665694" y2="-7.665694"/><linearGradient id="i" gradientTransform="matrix(.56272887 0 0 .59218484 -44.991146 11.483703)" gradientUnits="userSpaceOnUse" x1="89.01844" x2="89.01844" xlink:href="#c" y1="22.536863" y2="27.54611"/><linearGradient id="j" gradientTransform="matrix(.25763669 0 0 .25599322 -18.787395 32.335879)" gradientUnits="userSpaceOnUse" spreadMethod="reflect" x1="103.95014" x2="89.423676" xlink:href="#b" y1="-7.665694" y2="-7.665694"/><linearGradient id="k" gradientTransform="matrix(.56272887 0 0 .59218484 -44.991146 15.483703)" gradientUnits="userSpaceOnUse" x1="89.01844" x2="89.01844" xlink:href="#c" y1="22.536863" y2="27.54611"/><linearGradient id="l" gradientTransform="matrix(.3705263 0 0 .38647344 7.53368 7.335749)" gradientUnits="userSpaceOnUse" x1="11.192374" x2="11.192374" y1="4.064163" y2="30.298229"><stop offset="0" stop-color="#ff8c82"/><stop offset=".31209752" stop-color="#ed5353"/><stop offset=".57054454" stop-color="#c6262e"/><stop offset="1" stop-color="#a10705"/></linearGradient><linearGradient id="m" gradientTransform="matrix(.64000001 0 0 .69565218 -14.27409 .033675)" gradientUnits="userSpaceOnUse" x1="41.225124" x2="41.225124" y1="23.238064" y2="7.916672"><stop offset="0" stop-color="#7a0000"/><stop offset="1" stop-color="#a10705"/></linearGradient><linearGradient id="n" gradientTransform="matrix(.19694688 -.20520309 .19694688 .20520309 2.33061 11.959949)" gradientUnits="userSpaceOnUse" x1="36.010902" x2="16.331276" xlink:href="#o" y1="13.022708" y2="32.702335"/><linearGradient id="o"><stop offset="0" stop-color="#fff"/><stop offset="1" stop-color="#fff" stop-opacity="0"/></linearGradient><linearGradient id="p" gradientTransform="matrix(.19694688 -.20520309 .19694688 .20520309 2.13207 12.063489)" gradientUnits="userSpaceOnUse" x1="28.449389" x2="16.331276" xlink:href="#o" y1="20.584223" y2="32.702335"/><g transform="translate(0 -16)"><path d="m14.459827 29.5c0 1.198813-2.897339 2-6.4672665 2-3.5699332 0-6.4672704-.801187-6.4672704-2 0-4.634373-.79047651-3.194781 6.4672704-3.249422 7.4239625-.05637 6.4672665-1.410311 6.4672665 3.249422z" fill="url(#j)" stroke="url(#k)"/><path d="m14.5 26.5c0 1.10457-2.91015 2-6.4999994 2-3.5898511 0-6.5000006-.89543-6.5000006-2s2.9101495-2 6.5000006-2c3.5898494 0 6.4999994.89543 6.4999994 2z" fill="none" stroke="#d8d8d8"/><path d="m14.459827 25.5c0 1.157142-2.897339 2-6.4672665 2-3.5699332 0-6.4672704-.801187-6.4672704-2 0-4.634373-.79047651-3.194781 6.4672704-3.249422 7.4239625-.05637 6.4672665-1.410311 6.4672665 3.249422z" fill="url(#h)" stroke="url(#i)"/><path d="m14.5 22.5c0 1.10457-2.91015 2-6.4999994 2-3.5898511 0-6.5000006-.89543-6.5000006-2s2.9101495-2 6.5000006-2c3.5898494 0 6.4999994.89543 6.4999994 2z" fill="none" stroke="#d8d8d8"/><path d="m14.459827 21.5c0 1.217851-2.897339 2-6.4672665 2-3.5699332 0-6.4672704-.948833-6.4672704-2 0-4.344467-.79047651-3.046433 6.4672704-3.10022 7.4239625-.0555 6.4672665-.829521 6.4672665 3.10022z" fill="url(#f)" stroke="url(#g)"/><path d="m14.5 18.5c0 1.104569-2.91015 2-6.4999994 2-3.5898511 0-6.5000006-.895431-6.5000006-2s2.9101495-2 6.5000006-2c3.5898494 0 6.4999994.895431 6.4999994 2z" fill="url(#d)" stroke="url(#e)"/><rect fill="none" height="13" opacity=".5" rx="17.5" ry="1.5" stroke="url(#a)" width="11" x="2.5" y="17.5"/></g><path d="m9.9023437 6.9980469a1.6890529 1.6890529 0 0 0 -1.125.4570312l-1.4707032 1.3789063a1.6890529 1.6890529 0 0 0 -.048828 2.4179686l.8808594.894531-.8710938.871094a1.6890529 1.6890529 0 0 0 .015625 2.40625l.5917968.576172h4.0546881l.060546-.0625.060547.0625h3.949219v-3.677734l-.205078-.207032.205078-.224609v-3.6484375l-.833984-.7851563a1.6890529 1.6890529 0 0 0 -2.359375.044922l-.828125.8398437-.855469-.8515625a1.6890529 1.6890529 0 0 0 -1.2207033-.4921875z" fill="#fff" fill-opacity=".607843"/><path d="m15.5 14.214902-2.0384-2.049501 1.96142-2.147073-1.41391-1.3299219-2.01857 2.0460349-2.05948-2.0460349-1.47106 1.3788389 2.05948 2.089411-2.05948 2.056046 1.47106 1.432225 2.05709-2.148338 2.06188 2.148338z" fill="url(#l)" stroke="url(#m)" stroke-linejoin="round"/><g fill="none"><path d="m14.01392 10.098118-2.00624 2.049356-2.09215-2.047403" opacity=".5" stroke="url(#n)" stroke-linecap="square"/><path d="m14.3566 14.622087-1.66668-1.887606m-1.42902.08076-1.73943 1.713246" opacity=".4" stroke="url(#p)"/></g></svg>