<svg height="16" width="16" xmlns="http://www.w3.org/2000/svg" xmlns:xlink="http://www.w3.org/1999/xlink"><linearGradient id="a" gradientTransform="matrix(1.0080891 0 0 1.0000217 -4.038 2.999761)" gradientUnits="userSpaceOnUse" x1="4.419417" x2="20.01996" y1="3.52262" y2="3.52262"><stop offset="0" stop-color="#888a85"/><stop offset="1" stop-color="#888a85" stop-opacity="0"/></linearGradient><radialGradient id="b" cx="1110.5" cy="1543" gradientTransform="matrix(1.3323351 0 0 .9601284 -1471.5547 -1471.5679)" gradientUnits="userSpaceOnUse" r="6.14121"><stop offset="0" stop-color="#fff"/><stop offset=".55299991" stop-color="#fff"/><stop offset="1" stop-color="#a2a2a2"/></radialGradient><linearGradient id="c" gradientUnits="userSpaceOnUse" x1="1.006025" x2="16.000223" y1="9.534337" y2="9.534337"><stop offset="0"/><stop offset="1" stop-opacity=".992647"/></linearGradient><linearGradient id="d" gradientTransform="matrix(.48449877 0 0 .34573161 51.746207 -2.345813)" gradientUnits="userSpaceOnUse" x1="-90.291679" x2="-90.291679" y1="44.38649" y2="12.569903"><stop offset="0" stop-color="#002e99"/><stop offset="1" stop-color="#3689e6"/></linearGradient><radialGradient id="e" cx="6.296552" cy="2.23274" gradientTransform="matrix(-.00000002 2 -2.3881217 -.00000004 13.332056 -12.593104)" gradientUnits="userSpaceOnUse" r="8"><stop offset="0" stop-color="#8cd5ff"/><stop offset=".26238" stop-color="#64baff"/><stop offset=".704952" stop-color="#3689e6"/><stop offset="1" stop-color="#0d52bf"/></radialGradient><linearGradient id="f" gradientTransform="matrix(.35135134 0 0 .2162162 -.43243 3.310814)" gradientUnits="userSpaceOnUse" x1="23.999994" x2="23.999994" y1="3.187486" y2="40.187489"><stop offset="0" stop-color="#fff"/><stop offset="0" stop-color="#fff" stop-opacity=".235294"/><stop offset="1" stop-color="#fff" stop-opacity=".156863"/><stop offset="1" stop-color="#fff" stop-opacity=".392157"/></linearGradient><path d="m.49996075 2.5000267c3.43728005 0 15.00006125.0006471 15.00006125.0006471l.0039 10.9955252h-15.000055l-.00390625-10.9961617z" fill="url(#e)" stroke="url(#d)" stroke-linejoin="round" stroke-width=".999921"/><path d="m14.5 12.5h-13.0000002v-8.9999338h13.0000002z" fill="none" opacity=".5" stroke="url(#f)" stroke-linecap="round"/><path d="m4.0000001 6.5h1.9999999zm2.9999999 0h2zm3 0h1zm-5.9999999 1.994804.9999999.005196zm1.9999999.005196h1zm1.5 0h1zm1.5 0 3 .00518zm-4.9999999 2h1.7459999zm1.9999999 0h1zm2 0h1zm2 0h1.867483z" fill="none" stroke="#fff"/><g transform="matrix(.83472322 0 0 .83472322 2.644242 4.311934)"><g fill-rule="evenodd"><path d="m1.6311977 10.044215-1.2140423-.5314124c.9355638-5.9221279 6.9649974-9.81131271 15.4743956-2.6074566l-.148677 3.105767v.024c-2.3001-1.9558412-4.28185-4.4661954-8.3626394-4.4661954-4.6845799.0620013-5.4152457 3.6123781-5.7451002 4.4751964z" fill="url(#a)"/><path d="m15.497906 10.035214c-2.197549 2.805361-4.840524 3.464775-7.4943994 3.464775-2.6539763 0-5.9811868-.45581-6.4951461-3.464775.5575631-2.7513595 1.9987083-4.4348957 5.7001846-4.4661968 4.0448559-.0340007 6.0093479 2.5103543 8.2893609 4.4661968z" style="stroke-width:1.198002;stroke-linejoin:round;stroke-dashoffset:.6;stroke-opacity:.658824;fill:url(#b);stroke:url(#c)"/><ellipse cx="7.320361" cy="9.525049" fill="#64baff" fill-opacity=".984314" rx="3.161734" ry="3.136432" stroke="#0d52bf" stroke-width="1.198002"/><ellipse cx="7.050984" cy="8.801107" fill="#0d52bf" rx="2.016211" ry="1.800021"/><ellipse cx="6.546961" cy="8.400906" fill="#d7e4f1" rx="1.008172" ry=".800054"/></g><path d="m.49911436 9.4999029c.89458434-5.9259287 7.65508724-10.9231367 15.03926664-2.6090566" fill="none" stroke="#8c8c8c" stroke-width="1.198002"/></g></svg>