<svg height="16" width="16" xmlns="http://www.w3.org/2000/svg" xmlns:xlink="http://www.w3.org/1999/xlink"><linearGradient id="a"><stop offset="0" stop-color="#cc3b02"/><stop offset=".875" stop-color="#cc3b02"/><stop offset="1" stop-color="#cc3b02" stop-opacity="0"/></linearGradient><linearGradient id="b" gradientTransform="matrix(.48571543 0 0 .45629666 -34.78968 -5.734851)" gradientUnits="userSpaceOnUse" x1="25.132275" x2="25.132275" y1=".985206" y2="47.013336"><stop offset="0" stop-color="#fafafa"/><stop offset="1" stop-color="#d4d4d4"/></linearGradient><linearGradient id="c" gradientTransform="matrix(0 -.5 1.2857143 0 270.2857 -33.749939)" gradientUnits="userSpaceOnUse" x1="-68.674088" x2="-80.341354" xlink:href="#b" y1="-203.99998" y2="-203.99998"/><linearGradient id="d" gradientTransform="matrix(0 -.40000001 1.3999916 0 293.59827 -26.299951)" gradientUnits="userSpaceOnUse" x1="-70.749878" x2="-78.249878" y1="-203.99998" y2="-203.99998"><stop offset="0" stop-color="#fff"/><stop offset="0" stop-color="#fff" stop-opacity=".235294"/><stop offset="1" stop-color="#fff" stop-opacity=".156863"/><stop offset="1" stop-color="#fff" stop-opacity=".392157"/></linearGradient><linearGradient id="e" gradientTransform="matrix(0 1 -1 0 22.000001 8.500202)" gradientUnits="userSpaceOnUse" spreadMethod="reflect" x1="3.624325" x2="3.624325" xlink:href="#a" y1="14" y2="6"/><linearGradient id="f" gradientTransform="matrix(0 1 -1.0952381 0 23.142857 8.500201)" gradientUnits="userSpaceOnUse" spreadMethod="reflect" x1="3.551594" x2="3.551594" xlink:href="#g" y1="13.826087" y2="6.495652"/><linearGradient id="g"><stop offset="0" stop-color="#ffa154"/><stop offset=".87188613" stop-color="#ffa154" stop-opacity=".926471"/><stop offset="1" stop-color="#ffa154" stop-opacity="0"/></linearGradient><linearGradient id="h" gradientTransform="matrix(0 1 -1 0 22 -.5)" gradientUnits="userSpaceOnUse" spreadMethod="reflect" x1="3.624325" x2="3.624325" xlink:href="#a" y1="14" y2="6"/><linearGradient id="i" gradientTransform="matrix(0 1 -1.0952381 0 23.142857 -.5)" gradientUnits="userSpaceOnUse" spreadMethod="reflect" x1="3.551594" x2="3.551594" xlink:href="#g" y1="13.826087" y2="6.495652"/><linearGradient id="j" gradientTransform="matrix(0 -.40000003 1.7999893 0 375.19778 -17.299954)" gradientUnits="userSpaceOnUse" x1="-70.749878" x2="-78.249878" y1="-204.24527" y2="-204.24527"><stop offset="0" stop-color="#fff"/><stop offset=".00000024" stop-color="#fff" stop-opacity=".235294"/><stop offset="1" stop-color="#fff" stop-opacity=".156863"/><stop offset="1" stop-color="#fff" stop-opacity=".392157"/></linearGradient><linearGradient id="k" gradientTransform="matrix(0 -.5 1.5714286 0 328.57142 -24.749939)" gradientUnits="userSpaceOnUse" x1="-68.497314" x2="-80.208771" xlink:href="#b" y1="-203.99998" y2="-203.99998"/><path d="m2.5 15.5v-6.0000001h11v6.0000001z" fill="url(#k)"/><path d="m3.5 14.5v-4h9v4z" fill="none" stroke="url(#j)" stroke-miterlimit="3"/><path d="m2.5 15.5v-6h11v6z" fill="none" opacity=".5" stroke="#555761" stroke-linejoin="round" stroke-miterlimit="3"/><path d="m3.5 6.5v-6h9v6z" fill="url(#c)"/><path d="m4.5 5.5v-4h7v4z" fill="none" stroke="url(#d)" stroke-miterlimit="3"/><path d="m3.5 6.5v-6h9v6z" fill="none" opacity=".5" stroke="#555761" stroke-linejoin="round" stroke-miterlimit="3"/><path d="m16 13.500201h-2.5v-2h2.5zm-4.5 0h-3.0000001v-2h3.0000001zm-5.0000001 0h-2.9999999v-2h2.9999999zm-4.9999999 0h-1.5v-2h1.5z" fill="url(#f)"/><path d="m16 13.500201h-2.5v-2h2.5m-4.5 2h-3.0000001v-2h3.0000001zm-5.0000001 0h-2.9999999v-2h2.9999999zm-6.4999999-2h1.5v2h-1.5" fill="none" opacity=".5" stroke="url(#e)" stroke-linejoin="round"/><path d="m16 4.5h-2.5v-2h2.5zm-4.5 0h-3.0000001v-2h3.0000001zm-5.0000001 0h-2.9999999v-2h2.9999999zm-4.9999999 0h-1.5v-2h1.5z" fill="url(#i)"/><path d="m16 4.5h-2.5v-2h2.5m-4.5 2h-3.0000001v-2h3.0000001zm-5.0000001 0h-2.9999999v-2h2.9999999zm-6.4999999-2h1.5v2h-1.5" fill="none" opacity=".5" stroke="url(#h)" stroke-linejoin="round"/></svg>