<svg viewBox="0 0 16 16" xmlns="http://www.w3.org/2000/svg" xmlns:xlink="http://www.w3.org/1999/xlink"><linearGradient id="a" gradientTransform="matrix(.25378586 0 0 .30501865 19.128979 -.685477)" gradientUnits="userSpaceOnUse" x1="8.147742" x2="8.813546" y1="50.683105" y2="1.330528"><stop offset="0" stop-opacity=".339506"/><stop offset="1" stop-opacity=".246914"/></linearGradient><linearGradient id="b" gradientTransform="matrix(.24324324 0 0 .35135133 2.162164 -.432428)" gradientUnits="userSpaceOnUse" x1="9.88688" x2="9.723694" y1="9.847576" y2="34.99955"><stop offset="0" stop-color="#fff"/><stop offset="0" stop-color="#fff" stop-opacity=".235294"/><stop offset="1" stop-color="#fff" stop-opacity=".156863"/><stop offset="1" stop-color="#fff" stop-opacity=".392157"/></linearGradient><linearGradient id="c" gradientTransform="matrix(.28571361 0 0 .30419701 -1.357127 .732605)" gradientUnits="userSpaceOnUse" x1="25.132275" x2="25.132275" y1=".985206" y2="47.013336"><stop offset="0" stop-color="#f4f4f4"/><stop offset="1" stop-color="#dbdbdb"/></linearGradient>

/&amp;amp;gt;<path d="m.5 1.5h15.000026l-.000014 11.999148-15.000038.00089z" fill="url(#c)"/><path d="m15 3c0 2.291507-.000891 9.999988-.000891 9.999988l-13.999109.000012s0-6.666667 0-10z" fill="#e9e9e9"/><path d="m1.4999997 12.5v-10h13.0000003v10z" fill="none" stroke="url(#b)" stroke-linecap="round"/><path d="m15.500026 1.5c0 2.520676-.000954 12.000025-.000954 12.000025l-14.999098.000013v-12.000038z" fill="none" stroke="url(#a)" stroke-linejoin="round" stroke-width=".999922"/><g fill="#fff"><path d="m9 8h4v3h-4z"/><path d="m3 8h4v3h-4z"/><path d="m9 4h4v3h-4z"/><path d="m3 4h4v3h-4z"/></g></svg>