<svg viewBox="0 0 16 16" xmlns="http://www.w3.org/2000/svg" xmlns:xlink="http://www.w3.org/1999/xlink"><linearGradient id="a" gradientTransform="matrix(.25378586 0 0 .30501865 19.128979 -.685477)" gradientUnits="userSpaceOnUse" x1="7.118644" x2="6.847457" y1="15.932206" y2=".271189"><stop offset="0" stop-opacity=".339506"/><stop offset="1" stop-opacity=".246914"/></linearGradient><linearGradient id="b" gradientTransform="matrix(.24324324 0 0 .35135133 2.162164 -.432428)" gradientUnits="userSpaceOnUse" x1="10.278719" x2="10.278719" y1="6.438071" y2="33.119949"><stop offset="0" stop-color="#fff"/><stop offset=".14285715" stop-color="#fff" stop-opacity=".235294"/><stop offset="1" stop-color="#fff" stop-opacity=".156863"/><stop offset="1" stop-color="#fff" stop-opacity=".392157"/></linearGradient><linearGradient id="c" gradientTransform="matrix(.28571361 0 0 .30419701 -25.704585 .164808)" gradientUnits="userSpaceOnUse" x1="13" x2="13" y1="3" y2="11"><stop offset="0" stop-color="#f4f4f4"/><stop offset="1" stop-color="#dbdbdb"/></linearGradient>

/&amp;amp;gt;<path d="m5.5.5v5h-3.75l-1.25 9.921875v.07813h1.8261719c.3334553-2.563323.7015733-5.7194328 1.0175781-8.000005h2.15625v5h10v-12z" fill="url(#c)"/><path d="m5.5.5v5h-3.75l-1.25 9.921875v.07813h1.8261719c.3334553-2.563323.7015733-5.7194328 1.0175781-8.000005h2.15625v5h10v-12z" fill="none" stroke="url(#a)" stroke-linejoin="round"/><path d="m7 2h7v9h-7z" fill="none"/><path d="m6 1v5h-3.8202271l-1.1246882 9h.8347458l.9543663-8h3.1558032v5h9v-11zm1 1h7v9h-7z" fill="url(#b)"/></svg>