<svg xmlns="http://www.w3.org/2000/svg" xmlns:xlink="http://www.w3.org/1999/xlink" height="16" width="16"><defs><linearGradient id="n" y2="44.137" gradientUnits="userSpaceOnUse" x2="21.381" gradientTransform="matrix(.3143 0 0 .3421 .457 15.618)" y1="5.053" x1="21.381"><stop stop-color="#fff" offset="0"/><stop stop-color="#fff" stop-opacity=".235" offset=".081"/><stop stop-color="#fff" stop-opacity=".157" offset=".923"/><stop stop-color="#fff" stop-opacity=".392" offset="1"/></linearGradient><linearGradient id="m" y2="-24.582" spreadMethod="reflect" gradientUnits="userSpaceOnUse" x2="102.31" gradientTransform="matrix(.25894 0 0 .19506 -18.915 21.137)" y1="-2.393" x1="102.31"><stop stop-color="#a5a6a8" offset="0"/><stop stop-color="#e8e8e8" offset="1"/></linearGradient><linearGradient id="l" y2="-2.376" gradientUnits="userSpaceOnUse" x2="109.96" gradientTransform="matrix(.25894 0 0 .19506 -18.915 21.137)" y1="-24.911" x1="109.96"><stop stop-color="#b3b3b3" offset="0"/><stop stop-color="#dadada" offset="1"/></linearGradient><linearGradient id="k" y2="-7.666" spreadMethod="reflect" gradientUnits="userSpaceOnUse" x2="89.424" gradientTransform="matrix(.25764 0 0 .252 -18.787 24.39)" y1="-7.666" x1="103.95"><stop stop-color="#868688" offset="0"/><stop stop-color="#d9d9da" offset="1"/></linearGradient><linearGradient id="j" y2="27.546" gradientUnits="userSpaceOnUse" x2="89.018" gradientTransform="matrix(.56273 0 0 .58293 -44.99 7.8)" y1="22.537" x1="89.018"><stop stop-color="#a0a0a0" offset="0"/><stop stop-color="#4a4a4a" offset="1"/></linearGradient><linearGradient id="i" y2="-7.666" spreadMethod="reflect" gradientUnits="userSpaceOnUse" x2="89.424" gradientTransform="matrix(.25764 0 0 .256 -18.787 28.336)" y1="-7.666" x1="103.95"><stop stop-color="#868688" offset="0"/><stop stop-color="#d9d9da" offset="1"/></linearGradient><linearGradient id="h" y2="27.546" gradientUnits="userSpaceOnUse" x2="89.018" gradientTransform="matrix(.56273 0 0 .59218 -44.99 11.484)" y1="22.537" x1="89.018"><stop stop-color="#a0a0a0" offset="0"/><stop stop-color="#4a4a4a" offset="1"/></linearGradient><linearGradient id="g" y2="-7.666" spreadMethod="reflect" gradientUnits="userSpaceOnUse" x2="89.424" gradientTransform="matrix(.25764 0 0 .256 -18.787 32.336)" y1="-7.666" x1="103.95"><stop stop-color="#868688" offset="0"/><stop stop-color="#d9d9da" offset="1"/></linearGradient><linearGradient id="f" y2="27.546" gradientUnits="userSpaceOnUse" x2="89.018" gradientTransform="matrix(.56273 0 0 .59218 -44.99 15.484)" y1="22.537" x1="89.018"><stop stop-color="#a0a0a0" offset="0"/><stop stop-color="#4a4a4a" offset="1"/></linearGradient><linearGradient x1="23.576" y1="25.357" x2="23.576" y2="31.211" id="o" xlink:href="#a" gradientUnits="userSpaceOnUse" gradientTransform="matrix(.41578 -.4175 .51898 .51462 -15.747 2.65)"/><linearGradient id="a"><stop offset="0" stop-color="#181818"/><stop offset=".135" stop-color="#dbdbdb"/><stop offset=".202" stop-color="#a4a4a4"/><stop offset=".27" stop-color="#fff"/><stop offset=".447" stop-color="#8d8d8d"/><stop offset=".571" stop-color="#959595"/><stop offset=".72" stop-color="#cecece"/><stop offset="1" stop-color="#181818"/></linearGradient><linearGradient x1="30.038" y1="24.99" x2="30.038" y2="30" id="p" xlink:href="#b" gradientUnits="userSpaceOnUse" gradientTransform="matrix(.40402 -.4057 .60738 .60227 -17.868 .693)"/><linearGradient id="b"><stop offset="0" stop-color="#565656"/><stop offset=".5" stop-color="#9a9a9a"/><stop offset="1" stop-color="#545454"/></linearGradient><linearGradient x1="30.038" y1="24.99" x2="30.038" y2="30" id="q" xlink:href="#c" gradientUnits="userSpaceOnUse" gradientTransform="matrix(.40402 -.4057 .60738 .60227 -17.983 .81)"/><linearGradient id="c"><stop offset="0" stop-color="#b1b1b1"/><stop offset=".5" stop-color="#fff"/><stop offset="1" stop-color="#8f8f8f"/></linearGradient><linearGradient x1="30.038" y1="24.99" x2="30.038" y2="30" id="r" xlink:href="#b" gradientUnits="userSpaceOnUse" gradientTransform="matrix(.40402 -.4057 .60738 .60227 -17.466 .29)"/><linearGradient x1="30.038" y1="24.99" x2="30.038" y2="30" id="s" xlink:href="#c" gradientUnits="userSpaceOnUse" gradientTransform="matrix(.40402 -.4057 .60738 .60227 -17.58 .405)"/><linearGradient x1="30.038" y1="24.99" x2="30.038" y2="30" id="t" xlink:href="#b" gradientUnits="userSpaceOnUse" gradientTransform="matrix(.40402 -.4057 .60738 .60227 -17.062 -.116)"/><linearGradient x1="30.038" y1="24.99" x2="30.038" y2="30" id="u" xlink:href="#c" gradientUnits="userSpaceOnUse" gradientTransform="matrix(.40402 -.4057 .60738 .60227 -17.177 0)"/><linearGradient x1="9" y1="29.057" x2="9" y2="26.03" id="v" xlink:href="#d" gradientUnits="userSpaceOnUse" gradientTransform="matrix(.40402 -.4057 .60738 .60227 -17.637 .462)"/><linearGradient id="d"><stop offset="0" stop-color="#ece5a5"/><stop offset="1" stop-color="#fcfbf2"/></linearGradient><linearGradient x1="5.518" y1="37.372" x2="9.522" y2="41.392" id="w" xlink:href="#e" gradientUnits="userSpaceOnUse" gradientTransform="matrix(.37638 .03615 .0367 .37487 -2.218 -1.133)"/><linearGradient id="e"><stop offset="0" stop-color="#dbce48"/><stop offset="1" stop-color="#c5b625"/></linearGradient></defs><g transform="translate(0 -16)"><path d="M14.46 29.5c0 1.2-2.897 2-6.467 2s-6.468-.8-6.468-2c0-4.634-.79-3.195 6.468-3.25 7.424-.056 6.467-1.41 6.467 3.25z" stroke="url(#f)" fill="url(#g)"/><path d="M14.5 26.5c0 1.105-2.91 2-6.5 2s-6.5-.895-6.5-2 2.91-2 6.5-2 6.5.895 6.5 2z" stroke="#d8d8d8" fill="none"/><path d="M14.46 25.5c0 1.157-2.897 2-6.467 2s-6.468-.8-6.468-2c0-4.634-.79-3.195 6.468-3.25 7.424-.056 6.467-1.41 6.467 3.25z" stroke="url(#h)" fill="url(#i)"/><path d="M14.5 22.5c0 1.105-2.91 2-6.5 2s-6.5-.895-6.5-2 2.91-2 6.5-2 6.5.895 6.5 2z" stroke="#d8d8d8" fill="none"/><path d="M14.46 21.5c0 1.218-2.897 2-6.467 2s-6.468-.95-6.468-2c0-4.345-.79-3.046 6.468-3.1 7.424-.056 6.467-.83 6.467 3.1z" stroke="url(#j)" fill="url(#k)"/><path d="M14.5 18.5c0 1.105-2.91 2-6.5 2s-6.5-.895-6.5-2 2.91-2 6.5-2 6.5.895 6.5 2z" stroke="url(#l)" fill="url(#m)"/><rect opacity=".5" rx="17.5" ry="1.5" height="13" width="11" stroke="url(#n)" y="17.5" x="2.5" fill="none" color="#000"/></g><path d="M14 13.243c-.097-.016-.172-.01-.22.002l-6.536 1.45-1.203.268-.036.006L4.61 16l3.56-.054.03-.007 1.21-.267 6.533-1.462c.196-.043-.128-.294-.727-.563-.45-.202-.923-.36-1.215-.404z" opacity=".15" fill="#0c0c0c" fill-rule="evenodd"/><path d="M2.05 11.037c.285-.207 1.147.257 1.96 1.062.81.803 1.26 1.64 1.057 1.93 0 0 .02.018.02.02L15.223 3.867c.258-.258-.213-1.143-1.05-1.974-.84-.832-1.73-1.295-1.987-1.037z" fill="url(#o)" stroke="#0c0c0c" stroke-width=".485" stroke-linejoin="round" transform="matrix(.74077 0 0 .74257 4.48 4.176)"/><path d="M10.565 2.484c.287-.208 1.148.256 1.96 1.062.81.804 1.26 1.64 1.058 1.93 0 .002.02.018.02.02l1.55-1.558c.41-.408-.028-1.093-.98-2.044-.813-.806-1.674-1.27-1.96-1.062l-.026.025-1.622 1.627z" opacity=".8" fill="#ffb6ed" stroke="#e28ccd" stroke-width=".485" stroke-linejoin="round" transform="matrix(.74077 0 0 .74257 4.48 4.176)"/><path d="M5.998 12.372c.212-.154.85.19 1.452.79.6.595.933 1.217.783 1.432 0 0 .015.013.014.014l5.172-5.206.018-.02s-.015-.012-.014-.013c.15-.215-.183-.838-.783-1.434-.6-.598-1.24-.943-1.452-.79l-.018.02z" opacity=".6" fill="#0c0c0c"/><path d="M9.18 3.877c.285-.208 1.146.256 1.96 1.062.81.802 1.26 1.64 1.056 1.93l.02.018.126-.127s-.02-.016-.02-.018c.203-.29-.246-1.127-1.057-1.93-.812-.806-1.674-1.27-1.96-1.062z" fill="url(#p)" transform="matrix(.74077 0 0 .74257 4.48 4.176)"/><path d="M9.063 3.993c.286-.208 1.148.256 1.96 1.062.81.803 1.26 1.64 1.058 1.93 0 .002.02.018.02.02l.126-.128-.02-.018c.204-.29-.246-1.128-1.057-1.932-.813-.806-1.674-1.27-1.96-1.062z" fill="url(#q)" transform="matrix(.74077 0 0 .74257 4.48 4.176)"/><path d="M9.58 3.473c.287-.208 1.15.256 1.96 1.062.81.804 1.26 1.64 1.06 1.93-.002.002.018.018.017.02l.127-.127c0-.002-.02-.018-.02-.02.203-.29-.246-1.126-1.057-1.93-.812-.805-1.674-1.27-1.96-1.062z" fill="url(#r)" transform="matrix(.74077 0 0 .74257 4.48 4.176)"/><path d="M9.465 3.59c.286-.21 1.148.256 1.96 1.06.81.805 1.26 1.642 1.058 1.932l.02.018.125-.126s-.02-.018-.02-.02c.204-.288-.246-1.126-1.056-1.93-.813-.805-1.674-1.27-1.96-1.062z" fill="url(#s)" transform="matrix(.74077 0 0 .74257 4.48 4.176)"/><path d="M9.985 3.067c.286-.207 1.148.257 1.96 1.062.81.803 1.26 1.64 1.058 1.93 0 0 .02.018.02.02l.125-.128s-.02-.018-.02-.02c.203-.288-.246-1.126-1.057-1.93-.81-.805-1.673-1.27-1.96-1.062z" fill="url(#t)" transform="matrix(.74077 0 0 .74257 4.48 4.176)"/><path d="M9.87 3.183c.285-.207 1.147.257 1.96 1.062.81.804 1.26 1.642 1.057 1.93 0 .002.02.02.02.02l.125-.127s-.02-.018-.02-.02c.204-.288-.246-1.126-1.056-1.93-.813-.805-1.674-1.27-1.96-1.06z" fill="url(#u)" transform="matrix(.74077 0 0 .74257 4.48 4.176)"/><path d="M.26 15.794l4.772-1.725.04-.04c.202-.29-.253-1.128-1.064-1.93-.812-.807-1.673-1.27-1.96-1.06z" fill="url(#v)" fill-rule="evenodd" stroke="url(#w)" stroke-width=".485" transform="matrix(.74077 0 0 .74257 4.48 4.176)"/><path d="M.744 14.506L.26 15.79l1.3-.474c-.113-.134-.22-.268-.354-.402-.155-.154-.307-.28-.462-.408z" fill="#0c0c0c" fill-rule="evenodd" stroke="#0c0c0c" stroke-width=".485" transform="matrix(.74077 0 0 .74257 4.48 4.176)"/></svg>