<svg height="16" width="16" xmlns="http://www.w3.org/2000/svg" xmlns:xlink="http://www.w3.org/1999/xlink"><linearGradient id="a" gradientTransform="matrix(1.0080891 0 0 1.0000217 -4.038 2.999761)" gradientUnits="userSpaceOnUse" x1="4.419417" x2="20.01996" y1="3.52262" y2="3.52262"><stop offset="0" stop-color="#888a85"/><stop offset="1" stop-color="#888a85" stop-opacity="0"/></linearGradient><radialGradient id="b" cx="1110.5" cy="1543" gradientTransform="matrix(1.3323351 0 0 .9601284 -1471.5547 -1471.5679)" gradientUnits="userSpaceOnUse" r="6.14121"><stop offset="0" stop-color="#fff"/><stop offset=".55299991" stop-color="#fff"/><stop offset="1" stop-color="#a2a2a2"/></radialGradient><linearGradient id="c" gradientUnits="userSpaceOnUse" x1="1.006025" x2="16.000223" y1="9.534337" y2="9.534337"><stop offset="0"/><stop offset="1" stop-opacity=".992647"/></linearGradient><linearGradient id="d" gradientTransform="matrix(.24324 0 0 .35135 2.162 .568)" gradientUnits="userSpaceOnUse" x1="-.666" x2="56.889999" y1="21.153" y2="21.153"><stop offset="0" stop-color="#fff"/><stop offset="0" stop-color="#fff" stop-opacity=".235"/><stop offset=".972" stop-color="#fff" stop-opacity=".157"/><stop offset="1" stop-color="#fff" stop-opacity=".392"/></linearGradient><linearGradient id="e" gradientTransform="matrix(.30610715 0 0 .32954999 .653214 .669083)" gradientUnits="userSpaceOnUse" x1="-2.13394" x2="50.135338" y1="25.279675" y2="25.279675"><stop offset="0" stop-color="#f4f4f4"/><stop offset="1" stop-color="#dbdbdb"/></linearGradient><linearGradient id="f"><stop offset="0" stop-opacity=".34"/><stop offset="1" stop-opacity=".247"/></linearGradient><linearGradient id="g" gradientTransform="matrix(.2538 0 0 .305 19.13 .315)" gradientUnits="userSpaceOnUse" x1="-16.273" x2="-75.374313" xlink:href="#f" y1="35.03" y2="35.032787"/><linearGradient id="h" gradientTransform="matrix(0 -.2528 .3136 0 .208 13.257)" gradientUnits="userSpaceOnUse" x1="16.626" x2="20.055" y1="15.298" y2="24.628"><stop offset="0" stop-color="#fff"/><stop offset="1" stop-color="#fff" stop-opacity="0"/></linearGradient><linearGradient id="i" gradientTransform="matrix(.3142 0 0 .3333 -.44 .934)" gradientUnits="userSpaceOnUse" x1="-24.032" x2="-24.098" xlink:href="#f" y1="-13.091" y2="-40.164"/><linearGradient id="j" gradientTransform="matrix(.0787 0 0 .085 18.225 4.95)" gradientUnits="userSpaceOnUse" x1="-96.557" x2="-96.557" y1="110.925" y2="39.992"><stop offset="0" stop-color="#e89c42"/><stop offset="1" stop-color="#faca67"/></linearGradient><linearGradient id="k" gradientTransform="matrix(.0787 0 0 .085 19.217 3.783)" gradientUnits="userSpaceOnUse" x1="-107.456" x2="-107.456" y1="-37.385" y2="38.561"><stop offset="0" stop-color="#0b85e9"/><stop offset="1" stop-color="#69d1ef"/></linearGradient><g transform="matrix(0 1 -1 0 15 0)"><path d="m.5 14.5v-13h15v13z" fill="url(#e)" stroke-width="1.077365"/><path d="m.5 14.5v-13h15v13z" fill="none" stroke="url(#g)" stroke-linejoin="round"/><path d="m2 3v10h12v-10z" fill="url(#j)"/><path d="m3 1.918v7.082c.177.088.402.168.645.168.555 0 1.098-.484 2.025-.484s1.624.61 2.793.61c1.17 0 1.434-.88 2.924-.88.995 0 1.267.243 1.613.408v-6.902z" fill="url(#k)" transform="matrix(0 -1 1 0 0 16)"/><path d="m8.326 4.615c0 1.49.88 1.753.88 2.922 0 1.168-.606 1.866-.606 2.793s.482 1.47.482 2.025c0 .243-.08.468-.168.645h1.086c.077-.267.14-.612.14-1.025 0-1.052-.382-.9-.382-1.807s.625-1.44.625-2.666c0-1.517-1.008-1.864-1.008-3.064 0-.712.316-.926.47-1.438h-1.11c-.166.346-.41.618-.41 1.613v.002z" fill="#fff"/><path d="m-13.578541-12.5h11.0000001l.05655 9h-11.0000001z" fill="none" stroke="url(#i)" stroke-linecap="round" transform="matrix(-1 0 .00628327 -1 0 0)"/><path d="m2 13 7.785-.004c-.007-.336-2.133-9.742-2.235-9.996h-5.55z" fill="url(#h)" fill-rule="evenodd" opacity=".15"/><path d="m14.5 2.5v11h-13v-11z" fill="none" stroke="url(#d)" stroke-linecap="round"/></g><g transform="matrix(.83472322 0 0 .83472322 2.644242 4.311934)"><g fill-rule="evenodd"><path d="m1.6311977 10.044215-1.2140423-.5314124c.9355638-5.9221279 6.9649974-9.81131271 15.4743956-2.6074566l-.148677 3.105767v.024c-2.3001-1.9558412-4.28185-4.4661954-8.3626394-4.4661954-4.6845799.0620013-5.4152457 3.6123781-5.7451002 4.4751964z" fill="url(#a)"/><path d="m15.497906 10.035214c-2.197549 2.805361-4.840524 3.464775-7.4943994 3.464775-2.6539763 0-5.9811868-.45581-6.4951461-3.464775.5575631-2.7513595 1.9987083-4.4348957 5.7001846-4.4661968 4.0448559-.0340007 6.0093479 2.5103543 8.2893609 4.4661968z" style="stroke-width:1.198002;stroke-linejoin:round;stroke-dashoffset:.6;stroke-opacity:.658824;fill:url(#b);stroke:url(#c)"/><ellipse cx="7.320361" cy="9.525049" fill="#46aaed" fill-opacity=".984314" rx="3.161734" ry="3.136432" stroke="#2f78c8" stroke-width="1.198002"/><ellipse cx="7.050984" cy="8.801107" fill="#2f78c8" rx="2.016211" ry="1.800021"/><ellipse cx="6.546961" cy="8.400906" fill="#d7e4f1" rx="1.008172" ry=".800054"/></g><path d="m.49911436 9.4999029c.89458434-5.9259287 7.65508724-10.9231367 15.03926664-2.6090566" fill="none" stroke="#8c8c8c" stroke-width="1.198002"/></g></svg>