<svg height="16" width="16" xmlns="http://www.w3.org/2000/svg" xmlns:xlink="http://www.w3.org/1999/xlink"><linearGradient id="a" gradientUnits="userSpaceOnUse" x1="12.001" x2="12.001" y1="3.269" y2="20.729"><stop offset="0" stop-color="#fff"/><stop offset="0" stop-color="#fff" stop-opacity=".235"/><stop offset="1" stop-color="#fff" stop-opacity=".157"/><stop offset="1" stop-color="#fff" stop-opacity=".392"/></linearGradient><linearGradient id="b" gradientUnits="userSpaceOnUse" x1="12" x2="12" y1="8" y2="13"><stop offset="0" stop-color="#d1ff82"/><stop offset=".262" stop-color="#9bdb4d"/><stop offset=".661" stop-color="#68b723"/><stop offset="1" stop-color="#3a9104"/></linearGradient><linearGradient id="c" gradientUnits="userSpaceOnUse" x1="12" x2="12" xlink:href="#a" y1="12" y2="14"/><linearGradient id="d" gradientUnits="userSpaceOnUse" x1="12" x2="12" xlink:href="#a" y1="9.5" y2="10"/><linearGradient id="e" gradientTransform="matrix(.4223 0 0 .40494 1.865 1.178)" gradientUnits="userSpaceOnUse" x1="12" x2="12" y1="10" y2="16"><stop offset="0" stop-color="#fafafa"/><stop offset="1" stop-color="#e2e1de"/></linearGradient><linearGradient id="f" gradientUnits="userSpaceOnUse" x1="1" x2="14" y1="8" y2="8"><stop offset="0" stop-opacity=".34"/><stop offset="1" stop-opacity=".247"/></linearGradient><linearGradient id="g" gradientUnits="userSpaceOnUse" x1="1" x2="14" y1="8" y2="8"><stop offset="0" stop-color="#e3e3e4"/><stop offset=".5" stop-color="#fcfcfc"/><stop offset="1" stop-color="#e3e3e4"/></linearGradient><linearGradient id="h" gradientTransform="matrix(.61235343 0 0 .61170627 -387.02182 80.68349)" gradientUnits="userSpaceOnUse" x1="645.08795" x2="645.08795" y1="-128.62953" y2="-109.01227"><stop offset="0" stop-color="#fff"/><stop offset=".00000009" stop-color="#fff" stop-opacity=".235294"/><stop offset="1" stop-color="#fff" stop-opacity=".156863"/><stop offset="1" stop-color="#fff" stop-opacity=".392157"/></linearGradient><path d="m.5.5v2.8046875c.28021846.6270994 4.2731717 3.2353524 6 5.6953125v6.5h1.5 1.5v-6.5c1.726828-2.4599601 5.719782-5.0682131 6-5.6953125v-2.8046875h-7.5z" fill="url(#g)" stroke="url(#f)" stroke-linecap="round" stroke-linejoin="round"/><path d="m1.5 1.5h13v1.4453125c-1.986969 1.8400155-3.419162 2.7272634-6 5.5546875v6h-1v-6c-1.7290181-2.4358744-3.9973166-3.6953641-6-5.5546875z" fill="none" stroke="url(#h)" stroke-width=".999566"/><g stroke-width=".991358"><path d="m8.496 10v5.122c0 .212.17.382.382.382h6.244c.212 0 .382-.17.382-.382v-5.122" fill="url(#e)" stroke="#141414" stroke-opacity=".326316"/><path d="m8.878 8.496c-.212 0-.382.17-.382.382v1.622h7.008v-1.622c0-.212-.17-.382-.382-.382z" fill="url(#b)" stroke="#126400" stroke-linecap="round" stroke-opacity=".501961"/></g><g fill="none" stroke-linecap="round" stroke-linejoin="round" stroke-opacity=".501961"><path d="m9.5 11.5h5v3h-5z" stroke="url(#c)"/><path d="m9.5 9.5h5z" stroke="url(#d)"/></g></svg>