<svg height="16" viewBox="0 0 4.2333332 4.2333335" width="16" xmlns="http://www.w3.org/2000/svg" xmlns:xlink="http://www.w3.org/1999/xlink"><linearGradient id="a" gradientTransform="matrix(.28571361 0 0 .30419701 -27.738483 -4.038581)" gradientUnits="userSpaceOnUse" x1="95.765984" x2="98.256348" y1="16.6609" y2="63.542023"><stop offset="0" stop-color="#cd9ef7"/><stop offset="1" stop-color="#a56de2"/></linearGradient><linearGradient id="b" gradientTransform="matrix(.24324324 0 0 .35135133 2.162164 -.432428)" gradientUnits="userSpaceOnUse" x1="7.725238" x2="7.555548" y1="14.001025" y2="36.807682"><stop offset="0" stop-color="#fff"/><stop offset=".38631982" stop-color="#fff" stop-opacity=".235294"/><stop offset="1" stop-color="#fff" stop-opacity=".156863"/><stop offset="1" stop-color="#fff" stop-opacity=".392157"/></linearGradient><g transform="scale(.26458333)"><path d="m8 1.5097656a7.4907706 6.4907736 0 0 0 -7.49023438 6.4902344 7.4907706 6.4907736 0 0 0 7.49023438 6.490234 7.4907706 6.4907736 0 0 0 7.490234-6.490234 7.4907706 6.4907736 0 0 0 -.027343-.46875l-6.853516-5.9980469a7.4907706 6.4907736 0 0 0 -.609375-.0234375z" fill="url(#a)" stroke="#7239b3" stroke-opacity=".501961" stroke-width="1.018453"/><path d="m8 2.4414062c-3.6220832.0001987-6.5583155 2.4887386-6.5585938 5.5585938.0002781 3.069855 2.9365105 5.558395 6.5585938 5.558594 3.622083-.000199 6.558316-2.488739 6.558594-5.558594l-6.3555835-5.554925c-.067637-.0021105-.1353153-.0033337-.2030105-.0036688z" fill="none" opacity=".5" stroke="url(#b)" stroke-width=".881958"/></g></svg>