<svg viewBox="0 0 16 16" xmlns="http://www.w3.org/2000/svg">

     /&gt;
 <g transform="translate(.135235 -.135235)"><path d="m .75000087 4.7499915c1.71863313 0 7.50000343.0006678 7.50000343.0006678l.000009 10.4993497s-5.0000085 0-7.50001243 0c0-3.500005 0-7.0000119 0-10.5000175z" fill="#e9e9e9"/><path d="m .86523438 5.1347656v10.0000004l6.99953102.000469v-.357422-9.6425781zm.99953102 1.0004693h5v8.0000001h-5z" fill="#fff"/><path d="m .36391629 4.6343859c1.84877471 0 8.06793041.0006997 8.06793041.0006997l.0000096 11.0009984s-5.3786267 0-8.06794001 0c0-3.667232 0-7.3344655 0-11.0016981z" fill="none" stroke="#8c8c8c" stroke-linejoin="round" stroke-width=".998302"/></g><g transform="translate(3.135235 -2.135235)"><path d="m .75000087 4.7499915c1.71863313 0 7.50000343.0006678 7.50000343.0006678l.000009 10.4993497s-5.0000085 0-7.50001243 0c0-3.500005 0-7.0000119 0-10.5000175z" fill="#e9e9e9"/><path d="m .86523438 5.1347656v10.0000004l6.99953102.000469v-.357422-9.6425781zm.99953102 1.0004693h5v8.0000001h-5z" fill="#fff"/><path d="m .36391629 4.6343859c1.84877471 0 8.06793041.0006997 8.06793041.0006997l.0000096 11.0009984s-5.3786267 0-8.06794001 0c0-3.667232 0-7.3344655 0-11.0016981z" fill="none" stroke="#8c8c8c" stroke-linejoin="round" stroke-width=".998302"/></g><g transform="translate(6.135235 -4.135235)"><path d="m .75000087 4.7499915c1.71863313 0 7.50000343.0006678 7.50000343.0006678l.000009 10.4993497s-5.0000085 0-7.50001243 0c0-3.500005 0-7.0000119 0-10.5000175z" fill="#e9e9e9"/><path d="m .86523438 5.1347656v10.0000004l6.99953102.000469v-.357422-9.6425781zm.99953102 1.0004693h5v8.0000001h-5z" fill="#fff"/><path d="m .36391629 4.6343859c1.84877471 0 8.06793041.0006997 8.06793041.0006997l.0000096 11.0009984s-5.3786267 0-8.06794001 0c0-3.667232 0-7.3344655 0-11.0016981z" fill="none" stroke="#8c8c8c" stroke-linejoin="round" stroke-width=".998302"/></g></svg>