<svg height="16" width="16" xmlns="http://www.w3.org/2000/svg" xmlns:xlink="http://www.w3.org/1999/xlink"><radialGradient id="a" cx="6.703" cy="73.616" gradientTransform="matrix(1.6601 0 0 .36315 .964 1.732)" gradientUnits="userSpaceOnUse" r="7.228"><stop offset="0"/><stop offset="1" stop-opacity="0"/></radialGradient><linearGradient id="b"><stop offset="0" stop-color="#fff"/><stop offset="1" stop-color="#fff" stop-opacity="0"/></linearGradient><radialGradient id="c" cx="32.5" cy="16.563" gradientTransform="matrix(.136 .32887 -.25782 .113 11.15 .462)" gradientUnits="userSpaceOnUse" r="14.438" xlink:href="#b"/><linearGradient id="d" gradientTransform="matrix(.29272 0 0 .42533 1.018 8.287)" gradientUnits="userSpaceOnUse" x1="31" x2="3.259" xlink:href="#b" y1="12.875" y2="24.894"/><linearGradient id="e" gradientTransform="matrix(.26726 0 0 1.15755 9.316 -10.704)" gradientUnits="userSpaceOnUse" x1="-32.957" x2="-25.474" y1="27.389" y2="27.389"><stop offset="0" stop-color="#2e3436"/><stop offset=".644" stop-color="#888a85"/><stop offset="1" stop-color="#555753"/></linearGradient><linearGradient id="f" gradientTransform="matrix(.77602 .23906 -.31605 .56748 -20.168 4.55)" gradientUnits="userSpaceOnUse" x1="27.528" x2="30.42" y1="4.167" y2="2.949"><stop offset="0" stop-color="#eeeeec"/><stop offset=".789" stop-color="#fff"/><stop offset="1" stop-color="#eeeeec"/></linearGradient><radialGradient id="g" cx="32.5" cy="16.563" gradientTransform="matrix(.136 .32887 -.25782 .113 -3.123 -21.05)" gradientUnits="userSpaceOnUse" r="14.438" xlink:href="#h"/><linearGradient id="h"><stop offset="0" stop-color="#fff3cb"/><stop offset=".262" stop-color="#fdde76"/><stop offset=".661" stop-color="#f9c440"/><stop offset="1" stop-color="#e48b20"/></linearGradient><filter id="i" color-interpolation-filters="sRGB" height="1.324" width="1.387" x="-.193" y="-.162"><feGaussianBlur stdDeviation=".678"/></filter><linearGradient id="j" gradientUnits="userSpaceOnUse" x1="1.071" x2="10.542" xlink:href="#h" y1="9.053" y2="1.987"/><linearGradient id="k" gradientUnits="userSpaceOnUse" x1="3.909" x2="4.313" y1="6.427" y2="16.289"><stop offset="0" stop-color="#737373"/><stop offset=".262" stop-color="#636363"/><stop offset=".705" stop-color="#4b4b4b"/><stop offset="1" stop-color="#3f3f3f"/></linearGradient><path d="m7.343 1.84-.068 1.668-1.075.562-.336-.19-.012-.992-.704.65-.95-.298.4.87-.575.81.95-.11.596.8.186-.94.496-.17 1.052.39.29 1.71 1.037-1.31 1.716.253-.926-1.39.77-1.552-1.607.45zm-3.717 2.94-.547.504-.738-.23.31.676-.447.628.74-.085.46.62.145-.73.733-.247-.648-.364zm2.5.6-.798.734-1.074-.336.452.985-.65.916 1.076-.127.67.902.213-1.062 1.067-.36-.946-.53zm-4.19 1.067-.2.754-.78.21.655.424-.04.807.603-.49.756.29-.28-.728.505-.628-.777.044-.442-.68z" fill="url(#j)"/><path d="m-1.01-3.742c-2.055.9-4.6-.495-5.685-3.117-1.085-2.62-.297-5.476 1.758-6.377 2.056-.9 4.602.494 5.686 3.116 1.083 2.622.295 5.48-1.76 6.38z" fill="url(#g)" filter="url(#i)" opacity=".483" transform="matrix(.67304 0 0 .67304 10.236 10.19)"/><path d="m24.09 28.466c0 1.45-5.372 2.625-12 2.625-6.626 0-12-1.173-12-2.623s5.374-2.625 12-2.625c6.628 0 12 1.176 12 2.626z" fill="url(#a)" opacity=".2" transform="matrix(.66667 0 0 .66667 -.06 -5.03)"/><path d="m1.127 17.75c6.066.644 1.95-5.863 8.657-8.894l2.457 7.636c-2.81-1.905-3.734 6.156-11.15 1.95z" fill="url(#d)" fill-rule="evenodd" opacity=".444" transform="matrix(.66667 0 0 .66667 -.06 -5.03)"/><path d="m13.263 17.77c-2.056.9-4.6-.495-5.686-3.117-1.084-2.622-.297-5.478 1.76-6.38 2.055-.9 4.6.495 5.685 3.118 1.084 2.624.297 5.48-1.76 6.38z" fill="url(#c)" transform="matrix(.66667 0 0 .66667 -.06 -5.03)"/><path d="m7.078 5.08-1.324-.2-.8 1.022-.223-1.334-1.207-.453 1.185-.628.053-1.304.958.947 1.24-.352-.594 1.214.715 1.085zm-2.778 3.206-.553-.716-.887.1.536-.728-.372-.78.885.265.655-.582.01.892.78.42-.88.286z" fill="#fff"/><g transform="matrix(.77076 -.445 .37655 .6522 .838 -5.332)"><path d="m.5 18v12.438c0 .58.297 1.062.667 1.062h.666c.37 0 .667-.48.667-1.063v-12.437z" fill="url(#e)" fill-rule="evenodd"/><rect fill="none" height="21" opacity=".3" rx=".749" ry=".929" stroke="#000" stroke-width="1.221" width="2" x=".5" y="10.5"/><path d="m1.167 10.5c-.37 0-.667.48-.667 1.063v6.437h2v-6.438c0-.58-.297-1.062-.667-1.062z" fill="url(#f)" fill-rule="evenodd"/></g><path d="m4.553 15.58-.32-.837h-.043q-.416.534-.86.743-.44.204-1.148.204-.87 0-1.374-.507-.498-.507-.498-1.443 0-.98.67-1.444.677-.468 2.036-.517l1.05-.035v-.27q0-.936-.942-.936-.725 0-1.705.445l-.547-1.133q1.044-.556 2.316-.556 1.217 0 1.866.54.65.54.65 1.642v4.104zm-.487-2.854-.64.022q-.72.022-1.07.265-.352.242-.352.738 0 .712.8.712.575 0 .916-.336.346-.337.346-.893z" fill="url(#k)" stroke="#000" stroke-linejoin="round" stroke-opacity=".49" stroke-width=".604"/></svg>