<svg xmlns="http://www.w3.org/2000/svg" xmlns:xlink="http://www.w3.org/1999/xlink" viewBox="0 0 16 16"><defs><radialGradient id="a" cx="4.333" cy="288.644" gradientTransform="matrix(-8.94376 .3016 -.2982 -8.84088 110.184 2552.074)" gradientUnits="userSpaceOnUse" r="2.799"><stop offset="0" stop-color="#737373"/><stop offset=".262" stop-color="#636363"/><stop offset=".705" stop-color="#4b4b4b"/><stop offset="1" stop-color="#3f3f3f"/></radialGradient><linearGradient xlink:href="#a" id="b" x1="6.126" y1="-2.938" x2="7.147" y2="13.712" gradientUnits="userSpaceOnUse"/></defs><linearGradient id="c" gradientUnits="userSpaceOnUse" x1=".167" x2="14.239" y1="10.717" y2=".219"><stop offset="0" stop-color="#fff3cb"/><stop offset=".262" stop-color="#fdde76"/><stop offset=".661" stop-color="#f9c440"/><stop offset="1" stop-color="#e48b20"/></linearGradient>/&gt;<path d="M11.408 14.22l-.922-3.027H5.85l-.922 3.027H2.023L6.51 1.45H9.81l4.506 12.77zM9.843 8.93Q8.563 4.818 8.4 4.28q-.158-.54-.227-.853Q7.886 4.54 6.53 8.93z" fill="url(#b)" stroke="#000" stroke-linejoin="round" stroke-width=".962" transform="scale(.9794 1.02103)" stroke-opacity=".49"/><path d="M9.486 0l-.1 2.48-1.597.834-.5-.28-.02-1.477-1.045.964-1.41-.44.593 1.293-.855 1.205 1.414-.164L6.85 5.6l.28-1.397.737-.25 1.563.58.43 2.54 1.54-1.946 2.547.375-1.375-2.066 1.143-2.305-2.387.67L9.486 0zM3.963 4.367l-.813.75-1.093-.344.46 1.006-.663.933 1.097-.127.685.92.217-1.084 1.087-.365-.963-.54-.014-1.15zm3.713.893L6.492 6.35l-1.596-.498.672 1.462-.964 1.362L6.2 8.49l.997 1.34.317-1.578 1.584-.533-1.405-.79-.017-1.67zm-6.22 1.586l-.298 1.12L0 8.275l.97.628-.06 1.2.897-.73 1.123.43-.418-1.08.754-.935-1.155.064-.655-1.008z" fill="url(#c)"/></svg>