<svg viewBox="0 0 16 16" xmlns="http://www.w3.org/2000/svg" xmlns:xlink="http://www.w3.org/1999/xlink"><linearGradient id="a" gradientTransform="matrix(.25378586 0 0 .30501865 19.128979 -.685477)" gradientUnits="userSpaceOnUse" x1="8.309998" x2="7.79661" y1="43.741737" y2="1.559171"><stop offset="0" stop-opacity=".339506"/><stop offset="1" stop-opacity=".246914"/></linearGradient><linearGradient id="b" gradientTransform="matrix(.28571361 0 0 .30419701 -19.874076 -4.174175)" gradientUnits="userSpaceOnUse" x1="63.760262" x2="64.363617" y1="20.334787" y2="54.696438"><stop offset="0" stop-color="#f4f4f4"/><stop offset="1" stop-color="#dbdbdb"/></linearGradient><linearGradient id="c" gradientTransform="matrix(.24324324 0 0 .35135133 2.162164 -.432428)" gradientUnits="userSpaceOnUse" x1="5.163838" x2="4.875713" y1="16.689308" y2="34.425945"><stop offset="0" stop-color="#fff"/><stop offset=".212284" stop-color="#fff" stop-opacity=".235294"/><stop offset="1" stop-color="#fff" stop-opacity=".156863"/><stop offset="1" stop-color="#fff" stop-opacity=".392157"/></linearGradient>

/&amp;amp;gt;<g stroke-linejoin="round" transform="matrix(-1 0 0 1 16 0)"><path d="m11.603515 1.7559898c-1.257865.080247-2.467453.8978611-3.6621087 2.1875-2.7143895 3.0996208-5.1293038 2.4336581-7.4414063.3051757v1.7260742 4.0625003 1.711426c1.2731477 1.523179 2.5574337 2.5 3.75 2.5 1.25 0 2.5490762-.822957 3.8085938-2.182617 2.7143902-3.0996216 5.1293042-2.4458664 7.4414062-.317383v-1.711426-4.0625003-1.7260742c-1.346241-1.6106271-2.638619-2.5729228-3.896485-2.4926757z" fill="url(#b)" stroke="url(#a)"/><path d="m11.643458 2.6725823c-1.106149.059755-2.6444206 1.4821461-3.6949845 2.442468-2.386997 2.308114-4.4089446 2.3206835-6.56082.8543659l.016949 1.1666667v3.0251161 1.274403c1.1195887 1.134227 2.0116841 1.844661 3.0604106 1.844661 1.0992328 0 2.4789108-1.443318 3.5865133-2.455781 2.3869976-2.3081144 4.4936906-2.1263841 6.5099726-.8973546l.0339-1.0879623v-3.0251161-1.2853108c-1.183868-1.1993437-1.845792-1.9159114-2.951941-1.8561559z" fill="none" stroke="url(#c)" stroke-width=".809215"/></g></svg>