<svg height="16" width="16" xmlns="http://www.w3.org/2000/svg" xmlns:xlink="http://www.w3.org/1999/xlink"><linearGradient id="a" gradientTransform="matrix(0 -1 -1 0 23 5)" gradientUnits="userSpaceOnUse" spreadMethod="reflect" x1="3.5" x2="3.5" y1="15" y2="7"><stop offset="0" stop-color="#a62100"/><stop offset=".90147907" stop-color="#a62100"/><stop offset="1" stop-color="#a62100" stop-opacity="0"/></linearGradient><linearGradient id="b" gradientTransform="matrix(0 1 -1.0952381 0 24.142857 -2)" gradientUnits="userSpaceOnUse" spreadMethod="reflect" x1="3.5" x2="3.5" y1="14.73913" y2="7.434783"><stop offset="0" stop-color="#ffa154"/><stop offset=".90909094" stop-color="#ffa154" stop-opacity=".926471"/><stop offset="1" stop-color="#ffa154" stop-opacity="0"/></linearGradient><radialGradient id="c" cx="4.333" cy="288.644" gradientTransform="matrix(-8.94376 .3016 -.2982 -8.84088 110.184 2552.074)" gradientUnits="userSpaceOnUse" r="2.799"><stop offset="0" stop-color="#737373"/><stop offset=".262" stop-color="#636363"/><stop offset=".705" stop-color="#4b4b4b"/><stop offset="1" stop-color="#3f3f3f"/></radialGradient><linearGradient id="d" gradientUnits="userSpaceOnUse" x1="13.648" x2="11.83" xlink:href="#c" y1="5.166" y2="14.506"/><linearGradient id="e" gradientUnits="userSpaceOnUse" x1="13.688" x2="13.006" xlink:href="#c" y1="1.499" y2="14.815"/><path d="m16 .5v2h-16v-2z" fill="url(#b)"/><path d="m16 .5h-16m0 2h16" opacity=".5" stroke="url(#a)"/><g stroke="#000" stroke-linejoin="round" stroke-opacity=".49"><g fill="url(#e)" stroke-width=".718" transform="matrix(.84512 0 0 .85534 -6.144 1.546)"><path d="m16.246 11.96h-6.04l-.763 2.24h-1.813l4.176-10.98h2.91l4.028 10.98h-1.758zm-5.176-1.772h4.263l-2.068-5.608z"/><path d="m16.246 11.96h-6.04l-.763 2.24h-1.813l4.176-10.98h2.91l4.028 10.98h-1.758zm-5.176-1.772h4.263l-2.068-5.608z" stroke-linecap="round"/></g><path d="m14.675 13.468-.322-.83h-.044q-.422.53-.87.737-.442.202-1.157.202-.88 0-1.387-.502-.502-.503-.502-1.43 0-.973.677-1.432.683-.464 2.054-.513l1.06-.033v-.267q0-.93-.95-.93-.733 0-1.72.444l-.554-1.124q1.055-.553 2.34-.553 1.227 0 1.883.535.655.536.655 1.628v4.068zm-.492-2.83-.644.023q-.727.023-1.082.263-.355.24-.355.732 0 .704.808.704.58 0 .924-.334.35-.333.35-.884v-.503z" fill="url(#d)" stroke-width=".604" transform="scale(.99118 1.0089)"/></g></svg>