<svg height="16" width="16" xmlns="http://www.w3.org/2000/svg" xmlns:xlink="http://www.w3.org/1999/xlink"><linearGradient id="a" gradientTransform="matrix(.12012014 0 0 .12005232 4.061558 15.613937)" gradientUnits="userSpaceOnUse" x1="51.798126" x2="51.798126" y1="-98.562508" y2="-61.562508"><stop offset="0" stop-color="#fff"/><stop offset=".49771357" stop-color="#fff" stop-opacity=".235294"/><stop offset=".74999994" stop-color="#fff" stop-opacity=".156863"/><stop offset="1" stop-color="#fff" stop-opacity=".392157"/></linearGradient><linearGradient id="b" gradientUnits="userSpaceOnUse" x1="11.825457" x2="11.825457" y1="2.472571" y2="9.506798"><stop offset="0" stop-color="#64baff"/><stop offset="1" stop-color="#3689e6"/></linearGradient><linearGradient id="c" gradientUnits="userSpaceOnUse" x1="6.501251" x2="6.501251" y1="8" y2="11"><stop offset="0" stop-color="#fff"/><stop offset="0" stop-color="#fff" stop-opacity=".235294"/><stop offset="1" stop-color="#fff" stop-opacity=".156863"/><stop offset="1" stop-color="#fff" stop-opacity=".392157"/></linearGradient><linearGradient id="d" gradientUnits="userSpaceOnUse" x1="7.321146" x2="7.321146" y1="6.549137" y2="12.431409"><stop offset="0" stop-color="#fafafa"/><stop offset="1" stop-color="#d4d4d4"/></linearGradient><path d="m11.5 6v7" fill="none" opacity=".6" stroke="#abacae"/><path d="m3.0000001 4.4999998h6.9999999" fill="none" opacity=".6" stroke="#abacae"/><rect fill="url(#d)" height="6" rx=".5" width="6" x="3.5" y="6.5"/><path d="m4.501251 7.498745h4v4h-4z" fill="none" stroke="url(#c)" stroke-linecap="square"/><rect fill="none" height="6" opacity=".5" rx=".5" stroke="#555761" stroke-linecap="round" stroke-linejoin="round" width="6" x="3.5" y="6.5"/><path d="m.50000022 13.5h1.99999978v2h-1.99999978z" fill="#fafafa" stroke="#7e8087" stroke-linecap="round" stroke-linejoin="round" stroke-opacity=".949458"/><path d="m3.0000001 14.5h6.9999999" fill="none" opacity=".6" stroke="#abacae"/><path d="m1.5000001 6v7" fill="none" opacity=".6" stroke="#abacae"/><path d="m10.5 13.5h2v2h-2z" fill="#fafafa" stroke="#7e8087" stroke-linecap="round" stroke-linejoin="round" stroke-opacity=".949458"/><path d="m.50000012 3.4999999h1.99999998v2h-1.99999998z" fill="#fafafa" stroke="#7e8087" stroke-linecap="round" stroke-linejoin="round" stroke-opacity=".949458"/><path d="m13.499999 6a3.5 3.5000009 0 1 1 -7 0 3.5 3.5000009 0 1 1 7 0z" fill="url(#b)"/><g stroke-linecap="round" stroke-linejoin="round"><path d="m12.499994 6.002247a2.4999999 2.4985886 0 1 1 -4.999999 0 2.4999999 2.4985886 0 1 1 4.999999 0z" fill="none" opacity=".5" stroke="url(#a)"/><path d="m13.499999 5.9999996a3.5 3.5000017 0 1 1 -7 0 3.5 3.5000017 0 1 1 7 0z" fill="none" opacity=".5" stroke="#002e99"/><path d="m4.5 9.5h2v2h-2z" fill="#fafafa" stroke="#7e8087" stroke-opacity=".949458"/></g><path d="m7 10.5h7" fill="none" opacity=".6" stroke="#abacae"/><path d="m5.5 2.0000002v6.9999998" fill="none" opacity=".6" stroke="#abacae"/><g fill="#fafafa" stroke="#7e8087" stroke-linecap="round" stroke-linejoin="round" stroke-opacity=".949458"><path d="m13.5 9.5h2v2h-2z"/><path d="m4.5.4999999h2v2h-2z"/><path d="m15.5 2.4999998h-2v-2h2z"/></g><g fill="none" stroke="#abacae"><path d="m13 1.4999998h-6" opacity=".6"/><path d="m14.5 9v-5.9999999" opacity=".6"/></g></svg>