<svg height="16" viewBox="0 0 4.2333333 4.2333335" width="16" xmlns="http://www.w3.org/2000/svg" xmlns:xlink="http://www.w3.org/1999/xlink"><linearGradient id="a" gradientTransform="matrix(.07567388 0 0 -.08048036 -11.873088 4.712066)" gradientUnits="userSpaceOnUse" x1="262.6149" x2="264.98917" y1="52.336571" y2="-137.15227"><stop offset="0" stop-color="#64baff"/><stop offset="1" stop-color="#3689e6"/></linearGradient><linearGradient id="b" gradientUnits="userSpaceOnUse" x1="26" x2="26" y1="2.5" y2="13"><stop offset="0" stop-color="#fff"/><stop offset=".33333334" stop-color="#fff" stop-opacity=".235294"/><stop offset="1" stop-color="#fff" stop-opacity=".156863"/><stop offset="1" stop-color="#fff" stop-opacity=".392157"/></linearGradient><linearGradient id="c" gradientUnits="userSpaceOnUse" x1="26" x2="26" y1="11.5" y2="4"><stop offset="0" stop-color="#fff"/><stop offset=".66666669" stop-color="#fff" stop-opacity=".235294"/><stop offset="1" stop-color="#fff" stop-opacity=".156863"/><stop offset="1" stop-color="#fff" stop-opacity=".392157"/></linearGradient><g transform="scale(.26458333)"><path d="m8 .5c-4.142134 0-7.5 3.3578746-7.5 7.5 0 4.142125 3.357866 7.5 7.5 7.5s7.5-3.357875 7.5-7.5c0-4.1421254-3.357866-7.5-7.5-7.5zm0 4.5a3 3 0 0 1 3 3 3 3 0 0 1 -3 3 3 3 0 0 1 -3-3 3 3 0 0 1 3-3z" fill="url(#a)" stroke="#002e99" stroke-opacity=".501961"/><g fill="none" stroke-linecap="square" stroke-opacity=".922794"><path d="m14.5 8a6.5 6.5 0 0 1 -6.5 6.5 6.5 6.5 0 0 1 -6.5-6.5 6.5 6.5 0 0 1 6.5-6.5 6.5 6.5 0 0 1 6.5 6.5z" opacity=".5" stroke="url(#b)"/><path d="m12 8a4 4 0 0 1 -4 4 4 4 0 0 1 -4-4 4 4 0 0 1 4-4 4 4 0 0 1 4 4z" opacity=".5" stroke="url(#c)"/></g></g></svg>