<svg viewBox="0 0 16 16" xmlns="http://www.w3.org/2000/svg" xmlns:xlink="http://www.w3.org/1999/xlink"><linearGradient id="a" gradientTransform="matrix(.28571361 0 0 .30419701 1.142873 .232605)" gradientUnits="userSpaceOnUse" x1="25.132275" x2="25.132275" xlink:href="#b" y1=".985206" y2="47.013336"/><linearGradient id="b"><stop offset="0" stop-color="#f4f4f4"/><stop offset="1" stop-color="#dbdbdb"/></linearGradient><linearGradient id="c" gradientTransform="matrix(.24324324 0 0 .35135133 2.162164 -.432428)" gradientUnits="userSpaceOnUse" x1="23.99999" x2="23.99999" xlink:href="#d" y1="6.923065" y2="41.076912"/><linearGradient id="d"><stop offset="0" stop-color="#fff"/><stop offset="0" stop-color="#fff" stop-opacity=".235294"/><stop offset="1" stop-color="#fff" stop-opacity=".156863"/><stop offset="1" stop-color="#fff" stop-opacity=".392157"/></linearGradient><linearGradient id="e" gradientTransform="matrix(.25378586 0 0 .30501865 19.128979 -.685477)" gradientUnits="userSpaceOnUse" x1="-51.786404" x2="-51.786404" xlink:href="#f" y1="50.786446" y2="2.906247"/><linearGradient id="f"><stop offset="0" stop-opacity=".339506"/><stop offset="1" stop-opacity=".246914"/></linearGradient><linearGradient id="g" gradientUnits="userSpaceOnUse" x1="8" x2="8" xlink:href="#f" y1="15" y2="2"/><linearGradient id="h" gradientUnits="userSpaceOnUse" x1="2" x2="2" xlink:href="#b" y1="2" y2="15"/><linearGradient id="i" gradientUnits="userSpaceOnUse" x1="2" x2="2" xlink:href="#d" y1="3" y2="13"/><linearGradient id="j" gradientUnits="userSpaceOnUse" x1="8" x2="8" xlink:href="#d" y1="3" y2="13"/><linearGradient id="k" gradientUnits="userSpaceOnUse" x1="14" x2="14" xlink:href="#d" y1="3" y2="13"/>


     /&amp;gt;
 <path d="m.50599243 1.5083781-.00599243 12.9909699h3l.00599-12.9909699zm5.99999997 0-.0059924 12.9909699h2.076923.576923.346154l.00599-12.9909699h-.346154-.576923zm5.9999996 0-.005992 12.9909699h1.846154 1.153846l.006-12.9909699h-1.153846z" fill="url(#h)" stroke="url(#g)" stroke-linejoin="round"/><g transform="translate(25 -4)"><path d="m3 1c2.2915074 0 9.999988.0008904 9.999988.0008904l.000012 13.9991096s-6.6666668 0-10 0c0-4.666666 0-9.3333336 0-14z" fill="url(#a)"/><g fill="none"><path d="m12.5 14.5h-9.0000001v-13h9.0000001z" stroke="url(#c)" stroke-linecap="round"/><path d="m2.4999621.49997396c2.5206756 0 11.0000629.000954 11.0000629.000954l.000013 14.99909804s-7.3333841 0-11.000076 0c0-5.000017 0-10.000035.0000001-15.00005204z" stroke="url(#e)" stroke-linejoin="round" stroke-width=".999922"/></g></g><g fill="none"><path d="m1.5026019 2.4931556h.9998932l-.0024951 11.0068444h-.9973981z" stroke="url(#i)"/><path d="m7.5026019 2.4931556h.9998932l-.0024951 11.0068444h-.9973981z" stroke="url(#j)"/><path d="m13.502602 2.4931556h.999893l-.002495 11.0068444h-.997398z" stroke="url(#k)"/></g></svg>