<svg viewBox="0 0 16 16" xmlns="http://www.w3.org/2000/svg" xmlns:xlink="http://www.w3.org/1999/xlink"><linearGradient id="a" gradientUnits="userSpaceOnUse" x1="11.720905" x2="11.720905" y1="1.783899" y2="11.976016"><stop offset="0" stop-color="#f6f6f6"/><stop offset="1" stop-color="#e6e6e6"/></linearGradient><linearGradient id="b" gradientUnits="userSpaceOnUse" x1="9.720905" x2="9.720905" y1="2.733051" y2="15.752358"><stop offset="0" stop-color="#888"/><stop offset="1" stop-color="#626262"/></linearGradient><linearGradient id="c" gradientUnits="userSpaceOnUse" x1="12.813955" x2="12.742121" y1="13.774036" y2="9.725965"><stop offset="0" stop-color="#efefef"/><stop offset="1" stop-color="#c9c9c9"/></linearGradient><linearGradient id="d" gradientTransform="matrix(.59436 0 0 .5999 -19.265 -.033)" gradientUnits="userSpaceOnUse" x1="25.132" x2="25.132" y1="15.5" y2="48.396"><stop offset="0" stop-color="#fafafa"/><stop offset="1" stop-color="#e2e1de"/></linearGradient><linearGradient id="e" gradientTransform="matrix(.98704 0 0 .88413 .093 -1.35)" gradientUnits="userSpaceOnUse" x1="7" x2="7" y1="2" y2="9"><stop offset="0" stop-color="#fff"/><stop offset=".5" stop-color="#fff" stop-opacity=".235"/><stop offset=".951" stop-color="#fff" stop-opacity=".157"/><stop offset="1" stop-color="#fff" stop-opacity=".392"/></linearGradient><linearGradient id="f" gradientTransform="matrix(.94103 0 0 1.027 .46 -2.56)" gradientUnits="userSpaceOnUse" x1="7" x2="7" y1="-4" y2="17"><stop offset="0" stop-color="#cdf87e"/><stop offset=".262" stop-color="#a2e34f"/><stop offset=".661" stop-color="#68b723"/><stop offset="1" stop-color="#1d7e0d"/></linearGradient><g transform="translate(0 2)"><rect fill="url(#d)" height="10" rx=".424" ry=".491" width="14" x="1" y="3"/><path d="m.498-1.998c-.276 0-.5.224-.5.5l.002 14.998c0 .276.224.5.5.5h15c.276 0 .5-.224.5-.5l-.002-10.5h.002v-1h-.002v-3.498c0-.276-.224-.5-.5-.5h-15zm.498.998h14.004v3h-4.002v-2.998h-1v2.998h-4v-2.998h-1v2.998h-4.002zm0 4h4.004v2h-4v1h4v3h-4v1h4v3h1v-3h4v3h1v-3h4v-1h-4v-3h4v3l.002 4.002h-14.004zm5.004 0h4v2h-4zm5 0h4v2h-4zm-5 3h4v3h-4z" fill="#030303" opacity=".32"/></g><path d="m.5 0a.5.5 0 0 0 -.5.5v3.5h.998v-3.002h14.004v3.002h.998v-3.5a.5.5 0 0 0 -.5-.5zm4.5 1v2h-4v1h14v-1h-4v-2h-1v2h-4v-2z" fill="#126400" opacity=".4"/><path d="m.5.52h15.02v3.082h-15.02z" fill="url(#f)"/><path d="m.5.52v3.082l.51-.008-.01-2.594h14v2.602h.518v-3.08z" fill="url(#e)"/><path d="m5 .494h1v3.074h-1zm5 0h1v3.103h-1z" fill="#126400" opacity=".4"/><path d="m10 8v3h-4v-3z" fill="#fcaf3e"/><path d="m11 8c0-.554-.446-1-1-1h-4c-.554 0-1 .446-1 1v3c0 .554.446 1 1 1h4c.554 0 1-.446 1-1zm-1 0v3h-4v-3z" fill="#ce5c00"/><g transform="matrix(1.0513065 -.43546544 .43546544 1.0513065 -5.966936 4.266501)"><path d="m11.21875 8c-.124208 0-.21875.0945411-.21875.21875v.625c-.276951.0711-.525582.1859391-.765625.328125l-.453125-.453125c-.087828-.087829-.224671-.087829-.3125 0l-.75.75c-.087829.087829-.087829.2246711 0 .3125l.453125.453125c-.1421856.240043-.2570245.488673-.328125.765625h-.625c-.1242085 0-.21875.094541-.21875.21875v1.0625c0 .124209.0945415.21875.21875.21875h.625c.071101.276951.1859395.525582.328125.765625l-.453125.453125c-.087829.08783-.087829.224671 0 .3125l.75.75c.087829.08783.224671.08783.3125 0l.453125-.453125c.240043.142186.488674.257025.765625.328125v.625c0 .124209.094542.21875.21875.21875h1.0625c.124209 0 .21875-.094541.21875-.21875v-.625c.276951-.0711.525582-.185939.765625-.328125l.453125.453125c.08783.08783.224671.08783.3125 0l.75-.75c.08783-.08783.08783-.224671 0-.3125l-.453125-.453125c.142186-.240043.257025-.488674.328125-.765625h.625c.124209 0 .21875-.094541.21875-.21875v-1.0625c0-.124209-.094541-.21875-.21875-.21875h-.625c-.0711-.276952-.185939-.525582-.328125-.765625l.453125-.453125c.08783-.087829.08783-.224671 0-.3125l-.75-.75c-.08783-.087829-.224671-.087829-.3125 0l-.453125.453125c-.240043-.1421859-.488674-.2570247-.765625-.328125v-.625c0-.1242089-.094541-.21875-.21875-.21875zm.53125 2.75c.552 0 1 .448 1 1s-.448 1-1 1-1-.448-1-1 .448-1 1-1z" display="block" fill="url(#a)" stroke="url(#b)" stroke-linejoin="round" stroke-width=".527275"/><path d="m11.75 9.482558c-1.250289 0-2.2674419 1.017154-2.2674419 2.267442 0 1.250289 1.0171529 2.267442 2.2674419 2.267442 1.250288 0 2.267442-1.017153 2.267442-2.267442 0-1.250288-1.017154-2.267442-2.267442-2.267442zm0 1.046512c.673954 0 1.22093.546977 1.22093 1.22093 0 .673954-.546976 1.22093-1.22093 1.22093-.673953 0-1.22093-.546976-1.22093-1.22093 0-.673953.546977-1.22093 1.22093-1.22093z" opacity=".05"/><path d="m11.75 9.75c-1.1028 0-2 .8972-2 2s.8972 2 2 2 2-.8972 2-2-.8972-2-2-2z" fill="none" stroke="url(#c)" stroke-width=".878792"/></g></svg>