<svg viewBox="0 0 16 16" xmlns="http://www.w3.org/2000/svg" xmlns:xlink="http://www.w3.org/1999/xlink"><linearGradient id="a" gradientTransform="matrix(.31606802 .00018694 .00006478 .23894327 37.224637 -12.831953)" gradientUnits="userSpaceOnUse" x1="-76.834877" x2="-76.844345" y1="6.680585" y2="52.887863"><stop offset="0" stop-opacity=".328"/><stop offset="1" stop-opacity=".68"/></linearGradient><linearGradient id="b" gradientTransform="matrix(.34285637 0 0 .2172834 -1.787872 -11.327813)" gradientUnits="userSpaceOnUse" x1="25.132275" x2="25.132275" y1=".985206" y2="47.013336"><stop offset="0" stop-color="#f4f4f4"/><stop offset="1" stop-color="#dbdbdb"/></linearGradient><linearGradient id="c" gradientTransform="matrix(.29729729 0 0 .24324323 -.694452 -11.617513)" gradientUnits="userSpaceOnUse" x1="23.99999" x2="23.99999" y1="5.56415" y2="43"><stop offset="0" stop-color="#fff"/><stop offset=".03626217" stop-color="#fff" stop-opacity=".235294"/><stop offset=".95056331" stop-color="#fff" stop-opacity=".156863"/><stop offset="1" stop-color="#fff" stop-opacity=".392157"/></linearGradient><linearGradient id="d" gradientTransform="matrix(.0657842 0 0 .06827881 15.000447 -8.282094)" gradientUnits="userSpaceOnUse" x1="-96.557358" x2="-96.557358" y1="110.92493" y2="39.991924"><stop offset="0" stop-color="#e89c42"/><stop offset="1" stop-color="#faca67"/></linearGradient><linearGradient id="e" gradientTransform="matrix(.0657842 0 0 .06827881 15.000447 -8.282094)" gradientUnits="userSpaceOnUse" x1="-107.45584" x2="-107.45584" y1="-37.385227" y2="38.561256"><stop offset="0" stop-color="#0b85e9"/><stop offset="1" stop-color="#69d1ef"/></linearGradient><g transform="matrix(1.142857 0 0 1.142857 .639227 14.605339)"><path d="m12.940717-.279632h-13.0000795v-11.000081h13.0000795z" fill="none" stroke="url(#a)" stroke-linejoin="round" stroke-width=".999922"/><path d="m .4406775-10.779673c2.74981 0 11.9999895.00062 11.9999895.00062l.00001 9.999381s-7.9999995 0-11.9999995 0c0-3.33333 0-6.6666612 0-9.999991z" fill="url(#b)"/><path d="m11.940677-1.279672h-10.9999995v-9.000001h10.9999995z" fill="none" stroke="url(#c)" stroke-linecap="round"/><path d="m1.4406775-9.7796732v8.0000012h9.9999995v-8.0000012z" fill="url(#d)"/><path d="m1.4406775-9.7796732v4.082555c.14848.07106.33651.135627.53977.135627.46418 0 .91812-.389189 1.69318-.389189s1.35801.489434 2.33523.489434 1.19716-.707616 2.4431797-.707616c1.24602 0 1.12886.448157 1.9090898.448157.53744 0 .76696-.194811 1.07955-.318427v-3.740541z" fill="url(#e)"/><path d="m8.4520372-6.4295502c-1.2460197 0-1.4659597.707616-2.4431797.707616s-1.56017-.489434-2.33523-.489434-1.229.389189-1.69318.389189c-.20326 0-.39129-.06457-.53977-.135627v.871499c.22336.06164.51301.112039.85795.112039.8795 0 .75402-.306634 1.51137-.306634.75734 0 1.20343.501229 2.22727.501229 1.26814 0 1.55916-.807863 2.5624997-.807863.78346 0 .84229.442261 1.7045398.442261.5825 0 .77595-.232336 1.13637-.383293v-.771252c-.31259.123616-.54211.318427-1.07955.318427-.7802298 0-.6630698-.448157-1.9090898-.448157z" fill="#fff"/><path d="m1.9406775-9.2794622c2.06237 0 9.0000595.000447 9.0000595.000447l.00001 6.9993432s-6.0000395 0-9.0000695 0c0-2.333263 0-4.6665262 0-6.9997882z" fill="none" opacity=".3" stroke="#000"/></g><g transform="matrix(.79859265 0 0 .80150201 3.204895 3.175968)"><path d="m10.212891 7.0820312c-.04519.0135-.08814.041581-.121094.080078-.06594.076995-.08053.1832-.03516.265625l1.208984 2.3007812c.108546.2062348.03449.4808766-.167969.7675786-.204399.289418-.536596.584777-.955078.826172-.4185718.241455-.831725.383321-1.173828.410156-.340083.0267-.6040676-.05687-.7128906-.263672l-1.2148398-2.3144531c-.0339-.0642-.09729-.1039825-.171875-.109375-.07454-.00525-.150637.026084-.203125.083984-.02829.03015-.049627.064568-.060547.1035157-.303252 1.1099394-.2389549 2.3672704.2050781 3.2109374.606415 1.152179 1.9540853 1.653991 3.3085943 1.355469.540927.160605 1.251004.536592 2.076171 1.357422l.865235.84375h2.939453v-1.259766l-1.683594-1.695312c-.743865-.739949-1.122711-1.387266-1.308594-1.902344.213754-.733072.173755-1.5020846-.177734-2.1699218-.443861-.8432992-1.422513-1.5636595-2.478516-1.8886718-.04528-.014813-.09349-.015453-.138671-.00195z" fill="#9cde4a" fill-rule="evenodd"/><path d="m10.285156 6.6425781c-.198787-.0010556-.3900426.0870081-.519531.2382813-.1722928.2011781-.2272846.4971169-.0859375.7539062l1.2031245 2.2949219c-.0023-.00442.01933.097385-.136718.3183595-.157218.222612-.446048.486409-.8183596.701172-.3748111.216211-.7420608.333742-.9941406.353515-.126899.01-.2197817-.0059-.2636719-.02148-.040774-.01444-.033292-.01333-.03125-.01172l-.00195-.002-1.2148469-2.3124559a.43084286.43084286 0 0 0 0-.00195c-.1016301-.1924737-.3104343-.3226348-.5214844-.3378937-.2089575-.0147173-.4062718.0662888-.5488281.2207031h-.00195c-.00105.00114-.00287.0008084-.00391.00195a.43084286.43084286 0 0 0 -.09375.171875c-.018705.037435-.048792.065498-.060547.1074219a.43084286.43084286 0 0 0 -.00195.00195c-.3291137 1.2045966-.2779677 2.5408016.2402344 3.5253906.6830795 1.297841 2.1727361 1.86472 3.6406241 1.595703-.02342-.0076-.05165-.02064-.074218-.02734l.214845.0078c-.04674.0103-.09382.01095-.140626.01953.458333.149495 1.074387.478698 1.820313 1.220704a.43084286.43084286 0 0 0  .0039.0039l.548831.535178h1.232422l-1.179687-1.152344.002.0039c-.866331-.861724-1.638151-1.281441-2.255859-1.464843a.43084286.43084286 0 0 0 -.216797-.0078c-1.1966863.263709-2.3260641-.171595-2.8340318-1.136725-.3006942-.571324-.3477458-1.453726-.2285156-2.3105474l.9121094 1.7382814c.1099254.2089.3062061.3531.5058594.423828.1996533.07073.4079096.08314.6210937.06641.432126-.0339.8931357-.198144 1.3554689-.464844.464652-.268027.840217-.592994 1.091797-.949218.248878-.352429.416682-.7999107.197265-1.2167971l-.9375-1.7832031c.752271.3458934 1.438028.8516135 1.740235 1.4257812.294066.558733.331576 1.210088.144531 1.851563a.43084286.43084286 0 0 0  .0078.265624c.210302.582742.629285 1.283786 1.410157 2.060547l1.988281 2v-1.222656l-1.378906-1.386719a.43084286.43084286 0 0 0 -.002-.002c-.68794-.68435-1.009234-1.25038-1.175723-1.693316.174548-.762599.141105-1.5637245-.232421-2.2734376-.517432-.9830744-1.573486-1.7413004-2.726563-2.0976563-.065963-.0213516-.132956-.0308981-.199219-.03125z" fill="#5ca12a" fill-rule="evenodd"/></g></svg>