<svg viewBox="0 0 16 16" xmlns="http://www.w3.org/2000/svg" xmlns:xlink="http://www.w3.org/1999/xlink"><linearGradient id="a" gradientUnits="userSpaceOnUse" x1="23.642027" x2="9.726939" y1="3.180819" y2="3.180819"><stop offset="0" stop-color="#ffa154"/><stop offset="1" stop-color="#f37329"/></linearGradient><linearGradient id="b" gradientTransform="matrix(0 -.99999999 -.99999999 0 19 11.001953)" gradientUnits="userSpaceOnUse" x1="5.001953" x2="3.001953" y1="11" y2="11"><stop offset="0" stop-color="#fff"/><stop offset=".0000001" stop-color="#fff" stop-opacity=".235294"/><stop offset="1" stop-color="#fff" stop-opacity=".156863"/><stop offset="1" stop-color="#fff" stop-opacity=".392157"/></linearGradient><linearGradient id="c" gradientTransform="matrix(0 -.99999999 -.99999999 0 19 11.001953)" gradientUnits="userSpaceOnUse" x1="7.001953" x2="6.001953" y1="11" y2="11"><stop offset="0" stop-color="#fff"/><stop offset=".50000006" stop-color="#fff" stop-opacity=".235294"/><stop offset=".65000004" stop-color="#fff" stop-opacity=".156863"/><stop offset="1" stop-color="#fff" stop-opacity=".392157"/></linearGradient><linearGradient id="d" gradientUnits="userSpaceOnUse" x1="8" x2="8" y1="12" y2="15"><stop offset="0" stop-color="#d4d4d4"/><stop offset="1" stop-color="#abacae"/></linearGradient><linearGradient id="e" gradientUnits="userSpaceOnUse" x1="7" x2="7" y1="2" y2="14"><stop offset="0" stop-color="#fff"/><stop offset="0" stop-color="#fff" stop-opacity=".235294"/><stop offset="1" stop-color="#fff" stop-opacity=".156863"/><stop offset="1" stop-color="#fff" stop-opacity=".392157"/></linearGradient><linearGradient id="f" gradientTransform="matrix(.59436 0 0 .5999 -19.265 -.033)" gradientUnits="userSpaceOnUse" x1="45.872871" x2="45.872871" y1="-1.611935" y2="22.55876"><stop offset="0" stop-color="#fafafa"/><stop offset="1" stop-color="#e2e1de"/></linearGradient><g transform="translate(0 2)"><rect fill="url(#f)" height="15" rx=".424" ry=".491" width="15" x=".5" y="-1.5"/><path d="m.49804688.00195313c-.27600001 0-.50000001.22399999-.50000001.49999999l.00195313 14.99804688c0 .276.224.5.5.5h15c.276 0 .5-.224.5-.5v-11.5h-.002v-3.49804688c0-.276-.224-.49999999-.5-.49999999zm.49804687.99804687h.00390625l14 .00195v2.99805 11.001953h-14.00195312l-.00195313-10.001953h.00390625v-1h-.003906z" fill="#020202" opacity=".3" transform="translate(0 -2)"/></g><path d="m1 12h14v3h-14z" fill="url(#d)"/><path d="m1.5 1.5h13v13h-13z" fill="none" opacity=".5" stroke="url(#e)" stroke-linecap="round" stroke-linejoin="round"/><path d="m15.135343 9.365302 7.733623-6.1844832-7.733623-6.1844831v3.86530195h-4.638363l.00302 4.63836235h4.635343z" style="display:block;stroke:#a62100;stroke-width:1.546121;stroke-linecap:round;stroke-linejoin:round;stroke-opacity:.501961;fill:url(#a)" transform="matrix(0 -.64678 .64678 0 5.94271 16.29119)"/><path d="m0 11.001953h16v1h-16z" opacity=".3"/><g fill="none"><path d="m8.5 6.0019532v-.2582354c0-.2417645 0-.2417645.205395-.2417645l1.21648-.0000003-1.921875-2.3646021-1.9101573 2.3646021 1.1523443.0000003c.257813 0 .257813 0 .257813.2408933v.2591066" opacity=".5" stroke="url(#c)"/><path d="m8.5 6.0019532v2.4999998h-1v-2.4999998" opacity=".5" stroke="url(#b)"/></g></svg>