<svg viewBox="0 0 16 16" xmlns="http://www.w3.org/2000/svg" xmlns:xlink="http://www.w3.org/1999/xlink"><linearGradient id="a" gradientTransform="matrix(.24324324 0 0 .35135133 2.162164 -.432428)" gradientUnits="userSpaceOnUse" x1="7.028249" x2="6.943502" xlink:href="#l" y1="21.991701" y2="39.863934"/><linearGradient id="b" gradientTransform="matrix(.24324324 0 0 .35135133 2.162164 -.432428)" gradientUnits="userSpaceOnUse" x1="7.394404" x2="7.24203" xlink:href="#l" y1="21.354156" y2="39.705456"/><linearGradient id="c" gradientTransform="matrix(.24324324 0 0 .35135133 2.162164 -.432428)" gradientUnits="userSpaceOnUse" x1="8.312198" x2="7.833283" xlink:href="#l" y1="20.368788" y2="40.660557"/><linearGradient id="d" gradientTransform="matrix(.25378586 0 0 .30501865 19.128979 -.685477)" gradientUnits="userSpaceOnUse" x1="-2.322984" x2="-5.945211" xlink:href="#j" y1="41.954262" y2="19.579317"/><linearGradient id="e" gradientTransform="matrix(.28571361 0 0 .30419701 -25.840178 -3.699598)" gradientUnits="userSpaceOnUse" x1="82.277252" x2="85.287994" xlink:href="#k" y1="29.872334" y2="57.896267"/><linearGradient id="f" gradientTransform="matrix(.28571361 0 0 .30419701 -25.840178 -3.699598)" gradientUnits="userSpaceOnUse" x1="89.215492" x2="92.190842" xlink:href="#k" y1="28.718615" y2="59.015274"/><linearGradient id="g" gradientTransform="matrix(.25378586 0 0 .30501865 19.128979 -.685477)" gradientUnits="userSpaceOnUse" x1="-31.756237" x2="-34.001022" xlink:href="#j" y1="49.89711" y2="20.279768"/><linearGradient id="h" gradientTransform="matrix(.25378586 0 0 .30501865 19.128979 -.685477)" gradientUnits="userSpaceOnUse" x1="-28.733881" x2="-34.001022" xlink:href="#j" y1="47.382408" y2="20.279768"/><linearGradient id="i" gradientTransform="matrix(.28571361 0 0 .30419701 -25.840178 -3.699598)" gradientUnits="userSpaceOnUse" x1="84.517418" x2="84.443405" xlink:href="#k" y1="28.718615" y2="58.861977"/><linearGradient id="j" gradientTransform="matrix(.25378586 0 0 .30501865 19.128979 -.685477)" gradientUnits="userSpaceOnUse" x1="4.889823" x2="5.00757" y1="15.948629" y2="5.354013"><stop offset="0" stop-opacity=".339506"/><stop offset="1" stop-opacity=".246914"/></linearGradient><linearGradient id="k" gradientTransform="matrix(.28571361 0 0 .30419701 -25.840178 -3.699598)" gradientUnits="userSpaceOnUse" x1="8.005887" x2="7.931876" y1="6.025165" y2="15.996569"><stop offset="0" stop-color="#f4f4f4"/><stop offset="1" stop-color="#dbdbdb"/></linearGradient><linearGradient id="l" gradientTransform="matrix(.24324324 0 0 .35135133 2.162164 -.432428)" gradientUnits="userSpaceOnUse" x1="5.355932" x2="5.271186" y1="7.133813" y2="13.235508"><stop offset="0" stop-color="#fff"/><stop offset=".04102409" stop-color="#fff" stop-opacity=".235294"/><stop offset="1" stop-color="#fff" stop-opacity=".156863"/><stop offset="1" stop-color="#fff" stop-opacity=".392157"/></linearGradient><g stroke-linejoin="round"><g transform="translate(5 -5.000231)"><path d="m.5 5.5002306v2.5 6.2524414c2.918586 2.885809 6.134787-.07662 7.5-.546875.8123775-.36403 1.5615147-.588844 2.5-.703125v-1.132813-.664062-3.2055664-1.25-1.25z" fill="url(#e)" stroke="url(#d)"/><path d="m1.5169492 6.5849764v2.5 4.6931196c2.5599462 1.750116 4.0001257-.678189 5.5338983-.614672.8123775-.36403 1.5276164-.826132 2.4661017-.940413v-1.132813-.664062l.033898-1.4089562v-1.25-1.25z" fill="none" stroke="url(#c)"/></g><g transform="translate(3 -3.000231)"><path d="m.5 5.5002306v2.5 6.2524414c2.918586 2.885809 6.134787-.07662 7.5-.546875.8123775-.36403 1.5615147-.588844 2.5-.703125v-1.132813-.664062-3.2055664-1.25-1.25z" fill="url(#i)" stroke="url(#h)"/><path d="m1.5169492 6.5849764v2.5 4.6931196c2.5599462 1.750116 4.0001257-.678189 5.5338983-.614672.8123775-.36403 1.5276164-.826132 2.4661017-.940413v-1.132813-.664062l.033898-1.4089562v-1.25-1.25z" fill="none" stroke="url(#b)"/></g><path d="m.5 5.5002306v2.5 6.2524414c2.918586 2.885809 6.134787-.07662 7.5-.546875.8123775-.36403 1.5615147-.588844 2.5-.703125v-1.132813-.664062-3.2055664-1.25-1.25z" fill="url(#f)" stroke="url(#g)"/><path d="m1.5169492 6.5849764v2.5 4.6931196c2.5599462 1.750116 4.0001257-.678189 5.5338983-.614672.8123775-.36403 1.5276164-.826132 2.4661017-.940413v-1.132813-.664062l.033898-1.4089562v-1.25-1.25z" fill="none" stroke="url(#a)"/></g></svg>