<svg viewBox="0 0 16 16" xmlns="http://www.w3.org/2000/svg" xmlns:xlink="http://www.w3.org/1999/xlink"><linearGradient id="a" gradientTransform="matrix(-8.94376 .3016 -.2982 -8.84088 110.184 2552.074)" gradientUnits="userSpaceOnUse" x1="6.126" x2="7.147" y1="-2.938" y2="13.712"><stop offset="0" stop-color="#737373"/><stop offset=".262" stop-color="#636363"/><stop offset=".705" stop-color="#4b4b4b"/><stop offset="1" stop-color="#3f3f3f"/></linearGradient><linearGradient id="b" gradientUnits="userSpaceOnUse" x1=".167" x2="14.239" y1="10.717" y2=".219"><stop offset="0" stop-color="#fff3cb"/><stop offset=".262" stop-color="#fdde76"/><stop offset=".661" stop-color="#f9c440"/><stop offset="1" stop-color="#e48b20"/></linearGradient>/&amp;gt;<path d="m11.408 14.22-.922-3.027h-4.636l-.922 3.027h-2.905l4.487-12.77h3.3l4.506 12.77zm-1.565-5.29q-1.28-4.112-1.443-4.65-.158-.54-.227-.853-.287 1.113-1.643 5.503z" fill="url(#a)" stroke="#000" stroke-linejoin="round" stroke-opacity=".49" stroke-width=".962" transform="scale(.9794 1.02103)"/><path d="m9.486 0-.1 2.48-1.597.834-.5-.28-.02-1.477-1.045.964-1.41-.44.593 1.293-.855 1.205 1.414-.164.884 1.185.28-1.397.737-.25 1.563.58.43 2.54 1.54-1.946 2.547.375-1.375-2.066 1.143-2.305-2.387.67zm-5.523 4.367-.813.75-1.093-.344.46 1.006-.663.933 1.097-.127.685.92.217-1.084 1.087-.365-.963-.54-.014-1.15zm3.713.893-1.184 1.09-1.596-.498.672 1.462-.964 1.362 1.596-.186.997 1.34.317-1.578 1.584-.533-1.405-.79-.017-1.67zm-6.22 1.586-.298 1.12-1.158.309.97.628-.06 1.2.897-.73 1.123.43-.418-1.08.754-.935-1.155.064-.655-1.008z" fill="url(#b)"/></svg>