<svg height="16" width="16" xmlns="http://www.w3.org/2000/svg"><g fill="#8c8c8c" stroke="#565656" stroke-linejoin="round" stroke-width=".718116" transform="matrix(.84511924 0 0 .85533655 -6.144115 1.545596)"><path d="m16.245921 11.958578h-6.040338l-.7624236 2.243183h-1.8140048l4.1766074-10.9797936h2.90991l4.028054 10.9797936h-1.758086zm-5.176411-1.770935h4.263201l-2.068014-5.6079591z" fill="#8c8c8c" stroke="#565656" stroke-linejoin="round" stroke-width=".718116"/><path d="m16.245921 11.958578h-6.040338l-.7624236 2.243183h-1.8140048l4.1766074-10.9797936h2.90991l4.028054 10.9797936h-1.758086zm-5.176411-1.770935h4.263201l-2.068014-5.6079591z" fill="#8c8c8c" stroke="#565656" stroke-linecap="round" stroke-linejoin="round" stroke-width=".718116"/></g><path d="m14.674725 13.468-.322183-.830032h-.04369q-.420477.529692-.868257.7372-.44232.202047-1.157676.202047-.879179 0-1.387027-.502388-.502388-.502387-.502388-1.430713 0-.972011.677131-1.430713.682592-.4641624 2.053237-.513309l1.059383-.032764v-.2675761q0-.9283253-.950168-.9283253-.731739 0-1.720132.4423197l-.551531-1.1249122q1.053923-.5515344 2.337196-.5515344 1.228666 0 1.883954.5351522.655288.5351522.655288 1.6272996v4.0682485zm-.491466-2.828661-.644367.02184q-.726278.02184-1.081226.262115-.354948.240272-.354948.731739 0 .704435.808189.704435.578839 0 .922865-.333105.349487-.333105.349487-.884639v-.502388z" fill="#8c8c8c" stroke="#565656" stroke-linejoin="round" stroke-width=".603666" transform="scale(.99117962 1.0088989)"/><path d="m .50712124 2.49995h14.99999976" fill="none" stroke="#ce5c00" stroke-linecap="round"/></svg>