<svg height="16" viewBox="0 0 4.2333332 4.2333335" width="16" xmlns="http://www.w3.org/2000/svg" xmlns:xlink="http://www.w3.org/1999/xlink"><linearGradient id="a" gradientUnits="userSpaceOnUse" x1="10" x2="10" xlink:href="#b" y1="0" y2="16"/><linearGradient id="b" gradientTransform="matrix(.28571361 0 0 .30419701 27.447958 -1.936887)" gradientUnits="userSpaceOnUse" x1="25.132275" x2="25.132275" y1=".985206" y2="47.013336"><stop offset="0" stop-color="#cd9ef7"/><stop offset="1" stop-color="#a56de2"/></linearGradient><linearGradient id="c" gradientUnits="userSpaceOnUse" x1="7" x2="7" xlink:href="#b" y1="0" y2="16"/><linearGradient id="d" gradientUnits="userSpaceOnUse" x1="12" x2="12" xlink:href="#e" y1="2" y2="14"/><linearGradient id="e" gradientTransform="matrix(.24324324 0 0 .35135133 2.162164 -.432428)" gradientUnits="userSpaceOnUse" x1="23.99999" x2="23.99999" y1="6.923065" y2="41.076912"><stop offset="0" stop-color="#fff"/><stop offset=".16430601" stop-color="#fff" stop-opacity=".235294"/><stop offset="1" stop-color="#fff" stop-opacity=".156863"/><stop offset="1" stop-color="#fff" stop-opacity=".392157"/></linearGradient><linearGradient id="f" gradientUnits="userSpaceOnUse" x1="5" x2="5" xlink:href="#e" y1="2" y2="14"/><g transform="scale(.26458333)"><path d="m11.5.5a3.9999999 7.4999848 0 0 0 -4 7.5 3.9999999 7.4999848 0 0 0 4 7.5 3.9999999 7.4999848 0 0 0 4-7.5 3.9999999 7.4999848 0 0 0 -4-7.5z" fill="url(#a)" stroke="#7239b3" stroke-opacity=".501961"/><path d="m5.5.5c-2.7614233 0-5 3.3578731-5 7.5 0 4.142127 2.2385767 7.5 5 7.5h3.1016949s-2.5254237-1.764653-2.5254237-7.3644068c0-4.9556862 2.5254237-7.6355932 2.5254237-7.6355932z" fill="url(#c)" stroke="#7239b3" stroke-linejoin="round" stroke-opacity=".501961"/><g fill="none" stroke="#fff"><ellipse cx="11.491526" cy="8.016949" opacity=".5" rx="2.949153" ry="6.491525" stroke="url(#d)" stroke-linejoin="round"/><path d="m5.5839844 1.5273438c-2.2373746.0008688-4.0508261 2.9177801-4.0507813 6.515625.0006257 3.5970822 1.8138808 6.5128042 4.0507813 6.5136722l.9361037.000512c-2.3614493-4.010923-1.8723697-10.4082637.431455-13.0283686z" opacity=".5" stroke="url(#f)"/></g></g></svg>