<svg viewBox="0 0 16 16" xmlns="http://www.w3.org/2000/svg">



     /&gt;
 <path d="m6 2v1h4v2h-4v1h4v3h-4v1h4v3h1v-3h4v-1h-4v-3h4 .001953v7.001953h-9.001953v.998047h9.5a.49930579.49930579 0 0 0  .5-.5v-7.5-3.4238281c0-.3187015-.25747-.5761719-.576172-.5761719zm5 1h4v2h-4z" fill="#565656"/><path d="m1 6h4v7h-4z" fill="#9cde4a"/><path d="m0 3.0000005h6v3h-6z" fill="#9cde4a"/><path d="m .57617188 2c-.31870143 0-.57617188.2574704-.57617188.5761719v10.8476561c0 .318702.25747045.576172.57617188.576172h4.42382812 1v-8-1-2-1zm .42382812 1h4v2h-4zm0 3h4v3h-4zm0 4h4v3h-4z" fill="#5ca12a"/></svg>