<svg height="16" width="16" xmlns="http://www.w3.org/2000/svg"><g stroke-miterlimit="0"><path d="m1.499995 5.499999h10v8.999997h-10z" fill="#e9e9e9" stroke="#8c8c8c" stroke-linejoin="round"/><path d="m2.5 6.500001h8.000001v6.999998h-8.000001z" fill="none" stroke="#fdfdfb"/><path d="m15.500005 5.0000032a4.5000014 4.500003 0 1 1 -9.0000027 0 4.5000014 4.500003 0 1 1 9.0000027 0z" fill="#e9e9e9" stroke="#8c8c8c" stroke-linejoin="round"/></g><g fill="#555753"><path d="m15 0h1v1h-1z"/><path d="m0 15h1v1h-1z"/><path d="m0 0h1v1h-1z"/><path d="m15 15h1v1h-1z"/></g><path d="m14.499997 5.0000012a3.5000005 3.5000012 0 1 1 -7.000001 0 3.5000005 3.5000012 0 1 1 7.000001 0z" fill="none" stroke="#fdfdfb" stroke-linejoin="round" stroke-miterlimit="0"/></svg>