<svg viewBox="0 0 16 16" xmlns="http://www.w3.org/2000/svg" xmlns:xlink="http://www.w3.org/1999/xlink"><linearGradient id="a" gradientTransform="matrix(.61504669 0 0 .61504674 27.556065 -3.084108)" gradientUnits="userSpaceOnUse" x1="-31" x2="-36" y1="12" y2="6"><stop offset="0" stop-color="#1f1f1f"/><stop offset="1" stop-color="#5c5c5c"/></linearGradient>

     /&gt;
 <path d="m1 1h14l-.50379 13.499996h-12.996215z" fill="#e9e9e9"/><path d="m1.5 1.0214844c-.2761309.0000276-.4999724.2238691-.5.5v12.9785156c.0000276.276131.2238691.499972.5.5h12.996094c.276131-.000028.499972-.223869.5-.5v-12.9785156c-.000028-.2761309-.223869-.4999724-.5-.5h-2.496094v1h1.996094v11.9785156h-11.996094v-11.9785156h1v-1z" fill="#8c8c8c"/><path d="m2.5019531 2.0214844a.50005.50005 0 0 0 -.5019531.5v10.9785156a.50005.50005 0 0 0  .4980469.5l11.0214841.023438a.50005.50005 0 0 0  .5-.5v-10.9785161a.50005.50005 0 0 0 -.498047-.5l-1.521484-.0039063v1l1.019531.0019532v9.9785152l-10.019531-.019531v-9.9785155l1 .0019531v-1z" fill="#fdfdfb"/><text style="font-size:11.384519;font-family:sans-serif;letter-spacing:0;word-spacing:0;opacity:.66;stroke:#000;stroke-width:.614646;stroke-linecap:round;stroke-linejoin:round;fill:url(#a)" transform="scale(.96919394 1.0317852)" x="4.444233" y="8.42489"><tspan style="font-weight:bold;font-family:Noto Sans;stroke:#000;stroke-width:.614646;stroke-linecap:round;stroke-linejoin:round;fill:url(#a)" x="4.444233" y="8.42489">Y</tspan></text></svg>