<svg viewBox="0 0 16 16" xmlns="http://www.w3.org/2000/svg" xmlns:xlink="http://www.w3.org/1999/xlink"><linearGradient id="a" gradientUnits="userSpaceOnUse" x1="8" x2="8" y1="9.999929" y2="14.999929"><stop offset="0" stop-color="#ffa154"/><stop offset="1" stop-color="#f37329"/></linearGradient><linearGradient id="b" gradientTransform="matrix(0 1 -1 0 16 10)" gradientUnits="userSpaceOnUse" x1="2.499929" x2="2.999929" y1="8" y2="8"><stop offset="0" stop-color="#fff"/><stop offset=".0000001" stop-color="#fff" stop-opacity=".235294"/><stop offset="1" stop-color="#fff" stop-opacity=".156863"/><stop offset="1" stop-color="#fff" stop-opacity=".392157"/></linearGradient><linearGradient id="c" gradientTransform="matrix(.25378586 0 0 .30501865 19.128979 -.685477)" gradientUnits="userSpaceOnUse" x1="-12.329209" x2="-12.329209" y1="28.475233" y2="2.247328"><stop offset="0" stop-opacity=".339506"/><stop offset="1" stop-opacity=".246914"/></linearGradient><linearGradient id="d" gradientTransform="matrix(.28571361 0 0 .30419701 -16.357127 -8.354442)" gradientUnits="userSpaceOnUse" x1="57.25008" x2="57.25008" y1="27.463919" y2="53.762665"><stop offset="0" stop-color="#f4f4f4"/><stop offset="1" stop-color="#dbdbdb"/></linearGradient><linearGradient id="e" gradientTransform="matrix(.24324324 0 0 .35135133 2.162164 -.432428)" gradientUnits="userSpaceOnUse" x1="28.111103" x2="28.111103" y1="6.923065" y2="18.30768"><stop offset="0" stop-color="#fff"/><stop offset="0" stop-color="#fff" stop-opacity=".235294"/><stop offset="1" stop-color="#fff" stop-opacity=".156863"/><stop offset="1" stop-color="#fff" stop-opacity=".392157"/></linearGradient>


/&amp;amp;amp;gt;<g stroke-linecap="round" stroke-linejoin="round"><path d="m.5.5h15v7h-15z" fill="url(#d)" stroke="url(#c)"/><path d="m1.5 1.5h13v5h-13z" fill="none" stroke="url(#e)"/><g stroke-linecap="round" transform="translate(0 .000071)"><path d="m13.5 10.5 2 2-2 2v-1h-11.0000003v1l-1.99999999-2 1.99999999-2v1h11.0000003z" fill="url(#a)" stroke="#a62100" stroke-opacity=".501961"/><path d="m14.179687 12.5-.199218-.199219c-.144989.087623-.311061.134205-.480469.134766h-11.0000003c-.169408-.000561-.335481-.04714-.480469-.134766l-.199219.199219.199219.199219c.144988-.08762.311061-.134205.480469-.134766h11.0000003c.169408.000561.33548.04714.480469.134766z" fill="none" opacity=".5" stroke="url(#b)"/></g></g></svg>