<svg viewBox="0 0 16 16" xmlns="http://www.w3.org/2000/svg" xmlns:xlink="http://www.w3.org/1999/xlink"><linearGradient id="a" gradientUnits="userSpaceOnUse" x1="10.507685" x2="13.975886" xlink:href="#b" y1="2.149998" y2="5.467495"/><linearGradient id="b"><stop offset="0" stop-opacity=".66087"/><stop offset=".5" stop-opacity="0"/><stop offset="1" stop-opacity=".669565"/></linearGradient><linearGradient id="c" gradientTransform="matrix(.49699112 0 0 .49689181 -4.707319 -2.117175)" gradientUnits="userSpaceOnUse" x1="24.032852" x2="32.349339" xlink:href="#b" y1="13.223127" y2="21.888092"/><linearGradient id="d" gradientTransform="matrix(.49699112 0 0 .49689181 -4.910708 -1.964633)" gradientUnits="userSpaceOnUse" x1="19.065418" x2="23.077925" y1="22.744974" y2="26.757523"><stop offset="0" stop-opacity=".46087"/><stop offset=".49060908" stop-opacity="0"/><stop offset=".60074764" stop-opacity="0"/><stop offset="1" stop-opacity=".588235"/></linearGradient><g fill-rule="evenodd"><path d="m13.715645 10.268958c-.787934 1.441304-2.857598 4.505758 0 4.4809 2.813229-.02447.560206-3.091553 0-4.4809z" fill="#9cde4a" stroke="#5ca12a" stroke-width=".5"/><path d="m13.715037 11.156489c-.466915.789737-1.357229 2.512417-.972696 2.792023l.34515.250968z" fill="#fff" opacity=".8"/><path d="m8.1013329 6.2018217s-6.182332 5.6712613-6.47015 6.2483283c-.294067.589594-.05305 1.218325-.698482 2.536086 1.384331-.631682 2.066258-.379804 2.573354-.661587.519126-.288467 6.3231015-6.3218391 6.3231015-6.3218391z" fill="#9cde4a"/><path d="m8.1013329 6.2018213s-6.182332 5.6712617-6.47015 6.2483287c-.294067.589594-.05305 1.218325-.698482 2.536086 1.384331-.631682 2.066258-.379804 2.573354-.661587.519126-.288467 6.3231015-6.3218395 6.3231015-6.3218395z" fill="url(#d)" stroke="#000" stroke-linejoin="round" stroke-opacity=".658824" stroke-width=".5"/><path d="m11.227318 9.3020856.624958-.624833-.675971-1.9157077s-.03436-.258196.288701-.278778c1.735221-.110549 3.513245-2.1585189 3.598983-3.552672.07466-1.2140219-1.105731-1.99438888-2.176564-1.9099359-1.069334.08433-2.828272 1.5104349-3.2668176 3.309152-.06337.25992-.304924.304905-.304924.304905l-2.0277015-.543212-.59963.599511z" fill="#1e1e1e" fill-opacity=".658824" stroke="#000" stroke-opacity=".658824" stroke-width=".5"/><path d="m11.227318 9.3020856.624958-.624833-.675971-1.9157077c-.914387-.908674-1.073257-.888753-1.8606216-2.1273289l-2.0277015-.5432121-.59963.5995111z" fill="url(#c)"/><path d="m11.176305 6.7615449s-.03436-.258196.288701-.278778c1.735221-.110549 3.513245-2.1585189 3.598983-3.552672.07466-1.2140219-1.105731-1.99438888-2.176564-1.9099359-1.069334.08433-2.828272 1.5104349-3.2668176 3.309152-.06337.2599199-.304924.304905-.304924.304905.448322.7434869 1.0301386 1.4602739 1.8606216 2.1273289z" fill="url(#a)"/><path d="m14.019722 1.481389c-.87729-.462732-1.812661-.230066-2.862493.6970599-1.049833.927127-1.4097386 1.982801-1.3401186 2.6143381 1.0715166-1.6169591 2.3488746-2.9811381 4.2026116-3.311398z" fill="#fff" opacity=".8"/><path d="m7.8585709 6.7914403-5.813021 5.4751427v.66548l5.946143-5.5195079z" fill="#fff" opacity=".8"/></g></svg>