<svg viewBox="0 0 16 16" xmlns="http://www.w3.org/2000/svg"><path d="m7.3670887.40506322v1.26582288h1.2658227v-1.26582288zm-4.2721519 1.81962028c-.3137976.2667722-.6034811.5564557-.8702533.8702532l.9098102.9098102c.257962-.3125823.5576709-.6122912.8702532-.8702533zm9.8101272 0-.909811.9098101c.312583.2579621.612292.557671.870254.8702533l.909809-.9098102c-.266759-.3137975-.556455-.603481-.870252-.8702532zm-4.9050639.7120254c-2.7963798 0-5.0632912 2.2669114-5.0632912 5.0632911 0 2.79638 2.2669114 5.063291 5.0632912 5.063291 2.7963799 0 5.0632909-2.266911 5.0632909-5.063291 0-2.7963797-2.266911-5.0632911-5.0632909-5.0632911zm-7.59493679 4.4303798v1.2658227h1.26582279v-1.2658227zm13.92405069 0v1.2658227h1.265823v-1.2658227zm-11.1946203 4.6281643-.9098102.90981c.2667722.313798.5564557.603494.8702533.870253l.9098101-.909809c-.3125823-.257962-.6122912-.557671-.8702532-.870254zm9.7310133 0c-.257962.312583-.557671.612292-.870254.870254l.909811.909809c.313797-.266759.603493-.556455.870252-.870253zm-5.4984183 2.333861v1.265823h1.2658227v-1.265823z" fill="#fbd25e" stroke="#de9600" stroke-linejoin="round" stroke-width=".810127"/><circle cx="7.991525" cy="8.008474" r="4.289865" style="opacity:.5;fill:none;stroke:#fff;stroke-width:.762643;stroke-linecap:round;stroke-linejoin:round"/></svg>