<svg viewBox="0 0 16 16" xmlns="http://www.w3.org/2000/svg"><path d="m12.5 8.5v3h3v-3z" fill="#ed5353" stroke="#a10705"/><path d="m.5 12.5v3h3v-3z" fill="#9bdb4d" stroke="#3a9104"/><path d="m4.5 12.5v3h3v-3z" fill="#ed5353" stroke="#a10705"/><path d="m8.5 12.5v3h3v-3z" fill="#ffe16b" stroke="#d48e15"/><path d="m12.5 12.5v3h3v-3z" fill="#64baff" stroke="#0d52bf"/><path d="m8.5 8.5v3h3v-3z" fill="#9bdb4d" stroke="#3a9104"/><path d="m4.5 8.5v3h3v-3z" fill="#64baff" stroke="#0d52bf"/><path d="m.5 8.5v3h3v-3z" fill="#ffe16b" stroke="#d48e15"/><path d="m8.5 4.5v3h3v-3z" fill="#64baff" stroke="#0d52bf"/><path d="m.5 4.5v3h3v-3z" fill="#ed5353" stroke="#a10705"/><path d="m4.5 4.5v3h3v-3z" fill="#9bdb4d" stroke="#3a9104"/><path d="m12.5 4.5v3h3v-3z" fill="#ffe16b" stroke="#d48e15"/><path d="m4.5.5v3h3v-3z" fill="#ffe16b" stroke="#d48e15"/><path d="m.5.5v3h3v-3z" fill="#64baff" stroke="#0d52bf"/><path d="m8.5.5v3h3v-3z" fill="#ed5353" stroke="#a10705"/><path d="m12.5.5v3h3v-3z" fill="#9bdb4d" stroke="#3a9104"/></svg>