<svg viewBox="0 0 16 16" xmlns="http://www.w3.org/2000/svg" xmlns:xlink="http://www.w3.org/1999/xlink"><linearGradient id="a" gradientUnits="userSpaceOnUse" x1="11" x2="11" y1="5" y2="18"><stop offset="0" stop-color="#c6262e"/><stop offset="1" stop-color="#b5232a"/></linearGradient><linearGradient id="b" gradientUnits="userSpaceOnUse" x1="11" x2="11" y1="6.47" y2="15"><stop offset="0" stop-color="#fff"/><stop offset=".125" stop-color="#fff" stop-opacity=".235"/><stop offset=".939" stop-color="#fff" stop-opacity=".157"/><stop offset="1" stop-color="#fff" stop-opacity=".392"/></linearGradient>/&amp;gt;<path d="m1 2h1v1h-1zm0 4h1v1h-1zm8 8h1v1h-1zm4 0h1v1h-1zm-12-4h1v1h-1zm0 4h1v1h-1zm4 0h1v1h-1z" fill="#565656"/><path d="m10.374 6.484c.607-.003 1.126.05 1.555.148 2.435.56 3.516 1.604 3.546 3.868-.077 1.845-.905 2.918-2.832 3.822-.444.11-1.495.176-2.246.18l-3.89.017-.007-3.019 4.083-.004c2.002-.052 1.984-1.945.004-2.002l-4.083.003v-2.995z" fill="url(#a)" stroke="#2a0303" stroke-opacity=".49" transform="translate(0 -5.984)"/><path d="m6.507.518v2.996l2.502-.008v-2.988zm2.507 4.99-2.502.01.006 2.51h2.502z" fill="#eee" fill-opacity=".761"/><path d="m10.373.5-3.866.02v1l3.866-.017c.608 0 1.128.05 1.557.15 2.097.597 3.52 2.717 3.548 2.866-.03-2.264-1.112-3.307-3.548-3.867-.43-.1-.95-.15-1.557-.15zm1.507 3.5c.67 1.253-.51 1.666-1.293 1.516l-4.083.003.002 1 4.08-.002c1.37-.037 1.798-1.947 1.296-2.517z" fill="#206b00" opacity=".1" stroke="#fff"/><path d="m10.377 7.47-2.91.015.025 1.024h3.123c2.492.09 2.876 2.413 1.678 3.46-.454.333-1.03.495-1.682.512h-.02l-3.1-.002.028 1.04 2.903-.013c.663-.002 1.66-.094 1.92-.143 1.44-.635 2.22-1.848 2.145-2.887.155-1.858-1.366-2.7-2.775-2.885-.334-.077-.783-.125-1.333-.123z" fill="none" opacity=".53" stroke="url(#b)" stroke-opacity=".915" transform="translate(0 -5.984)"/></svg>