<svg viewBox="0 0 16 16" xmlns="http://www.w3.org/2000/svg" xmlns:xlink="http://www.w3.org/1999/xlink"><linearGradient id="a" gradientUnits="userSpaceOnUse" x1="7" x2="7" y1="6" y2="11"><stop offset="0" stop-color="#ffa154"/><stop offset="1" stop-color="#f37329"/></linearGradient><linearGradient id="b" gradientTransform="matrix(0 1 -1 0 26 -4)" gradientUnits="userSpaceOnUse" x1="11" x2="14" y1="12" y2="12"><stop offset="0" stop-color="#fff"/><stop offset="0" stop-color="#fff" stop-opacity=".235294"/><stop offset="1" stop-color="#fff" stop-opacity=".156863"/><stop offset="1" stop-color="#fff" stop-opacity=".392157"/></linearGradient>
/&amp;gt;<g fill="#565656"><path d="m5 2h1v1h-1z"/><path d="m9 2h1v1h-1z"/><path d="m1 6h1v1h-1z"/><path d="m13 6h1v1h-1z"/><path d="m1 10h1v1h-1z"/><path d="m13 10h1v1h-1z"/><path d="m5 14h1v1h-1z"/><path d="m9 14h1v1h-1z"/></g><g transform="translate(-.021379 .016009)"><path d="m4.521379 5.483991h5.99463v5.99463h-5.99463z" fill="url(#a)" stroke="#a62100" stroke-linejoin="round" stroke-miterlimit="0" stroke-opacity=".501961"/><path d="m9.5 6.5v4h-4v-4z" fill="none" opacity=".5" stroke="url(#b)"/></g></svg>