<svg height="16" viewBox="0 0 16.000001 16.000001" width="16" xmlns="http://www.w3.org/2000/svg" xmlns:xlink="http://www.w3.org/1999/xlink"><linearGradient id="a" gradientTransform="matrix(.27962 0 0 -.26116 5.022 18.693)" gradientUnits="userSpaceOnUse" x1="25.469" x2="25.469" y1="32.841" y2="2.724"><stop offset="0" stop-color="#8cd5ff"/><stop offset=".25" stop-color="#64baff"/><stop offset=".625" stop-color="#3689e6"/><stop offset="1" stop-color="#0d52bf"/></linearGradient><linearGradient id="b" gradientTransform="matrix(.27962 0 0 -.26116 5.022 18.693)" gradientUnits="userSpaceOnUse" x1="36.245998" x2="36.245998" y1="2.929" y2="42.787998"><stop offset="0" stop-color="#002e99" stop-opacity=".709804"/><stop offset="1" stop-color="#3689e6" stop-opacity=".709804"/></linearGradient><linearGradient id="c" gradientTransform="matrix(0 .30606 .3277 0 5.52 4.564)" gradientUnits="userSpaceOnUse" x1="20.797001" x2="37.473999" y1="20.649" y2="20.649"><stop offset="0" stop-color="#fff"/><stop offset=".512" stop-color="#fff" stop-opacity=".235"/><stop offset=".585" stop-color="#fff" stop-opacity=".157"/><stop offset="1" stop-color="#fff" stop-opacity=".392"/></linearGradient><radialGradient id="d" cx="12.165" cy="8.085" gradientTransform="matrix(.66667 0 0 .34149504 -9.063391 9.068642)" gradientUnits="userSpaceOnUse" r="11.835" xlink:href="#e"/><linearGradient id="e"><stop offset="0" stop-color="#737373"/><stop offset=".262" stop-color="#636363"/><stop offset=".705" stop-color="#4b4b4b"/><stop offset="1" stop-color="#3f3f3f"/></linearGradient><radialGradient id="f" cx="10" cy="1.34" gradientTransform="matrix(-2.79608 0 0 -2.9958 92.96 -10.984)" gradientUnits="userSpaceOnUse" r="5.007" xlink:href="#e"/><radialGradient id="g" cx="9" cy="1.239" gradientTransform="matrix(-2.5459 0 0 -2.9096 31.913 3.606)" gradientUnits="userSpaceOnUse" r="5.499" xlink:href="#e"/><radialGradient id="h" cx="11.82" cy="968.252" gradientTransform="matrix(-2.1328937 0 0 -1.3706521 36.431823 1328.9198)" gradientUnits="userSpaceOnUse" r="3.54" xlink:href="#e"/><radialGradient id="i" cx="5.373" cy="966.996" gradientTransform="matrix(-1.5479487 -.06867217 .08755024 -1.9732735 -70.822622 1908.4222)" gradientUnits="userSpaceOnUse" r="3.398" xlink:href="#e"/><path d="m7.34 1.494c-1.583 0-2.78.338-3.604 1.022a.493.493 0 0 0 -.002 0c-.82.67-1.24 1.694-1.24 3.035 0 1.395.446 2.48 1.32 3.216a.493.493 0 0 0 .002.002c.875.74 2.12 1.11 3.74 1.11h.186v4.138a.493.493 0 0 0 .492.492h.774a.493.493 0 0 0 .492-.492c0-3.137-.006-6.86-.008-10.524h2.016v10.507a.493.493 0 0 0 .492.492h1a.493.493 0 0 0 .492-.492v-12a.493.493 0 0 0 -.492-.492c-2.288 0-3.16-.008-5.658-.014a.493.493 0 0 0 -.002 0zm-3.604 1.022.09-.06a.493.493 0 0 0 -.09.06z" fill="url(#g)" transform="translate(55 -15)"/><path d="m62.34-14c-1.654 0-2.98.357-3.922 1.14-.95.777-1.418 1.964-1.418 3.41 0 1.503.498 2.75 1.494 3.59 1.156 1.08 2.873 1.223 3.74 1.23h.014v4.136c0 .273.22.494.495.494h1.757c.274 0 .496-.22.494-.494l.006-10.506h1v10.518c0 .266.216.482.483.482h2.035c.266 0 .482-.216.482-.482v-13.036c0-.266-.216-.482-.482-.482h-4.518zm5.66 1v12h-1v-11h-3c.002 3.832.008 7.733.008 11.016h-.773v-4.14c0-.27-.22-.49-.492-.49h-.188c-1.543 0-2.66-.35-3.42-.995h-.002c-.764-.645-1.147-1.542-1.147-2.84 0-1.246.358-2.08 1.06-2.654l.005-.002c.702-.582 1.778-.908 3.29-.908 2.497.006 3.372.014 5.66.014z" fill-opacity=".431"/><path d="m68-13v12h-1v-11h-3c.002 3.832.008 7.733.008 11.016h-.773v-4.14c0-.27-.22-.49-.492-.49h-.188c-1.543 0-2.66-.35-3.42-.995h-.002c-.764-.645-1.147-1.542-1.147-2.84 0-1.246.358-2.08 1.06-2.654l.005-.002c.702-.582 1.778-.908 3.29-.908 2.497.006 3.372.014 5.66.014z" fill="url(#f)"/><g stroke="#000" stroke-opacity=".431" transform="translate(-2)"><path d="m6.2077051 8.226766-.2907452-.8647676h-.040835q-.3789488.5516784-.784032.7685776-.3985496.210298-1.0437426.210298-.7938324 0-1.2520011-.5233873-.4540852-.5233872-.4540852-1.4900032 0-1.014711.6108916-1.4918893.6157918-.4828364 1.853909-.5347036l.955539-.033949v-.2791403q0-.966616-.857535-.966616-.661527 0-1.55173.4620896l-.498187-1.1731418q.9506388-.5733683 2.1087194-.5733683 1.1090786 0 1.7003694.5563936.5912908.5582797.5912908 1.697472v4.2389646h-1.0478261zm-.4434681-2.948886-.5814904.023576q-.6558101.022633-.9759565.2734816-.3201464.2508486-.3201464.7638624 0 .7327421.7293131.7327421.522688 0 .833034-.3470387.3152462-.3470388.3152462-.9222932z" fill="url(#i)" stroke-linejoin="round" stroke-width=".684528"/><path d="m12.304055 2.7452522c.650638 0 1.159714.2939141 1.527229.8817424.368059.5834274.552089 1.3856401.552089 2.406638 0 1.0499179-.190563 1.8640757-.57169 2.4424736-.378404.5758832-.894286.8638248-1.547646.8638248-.647915 0-1.155631-.2712812-1.523146-.8138436h-.103721l-.251543.6997356h-1.146647l-.0338983-7.9059931h1.5027283l.0339 1.1113899c.008.2614149-.01987.6805606-.05962 1.2570724h.05962c.351181-.6286933.871964-.94304 1.562347-.94304zm-.483486 1.3881548c-.370237 0-.640837.1329687-.8118.398906-.170963.2609077-.259711.6947061-.266244 1.3013952v.188608c0 .6827609.08711 1.1721987.261344 1.4683132.176951.2954859.456263.4432288.837934.4432288.308713 0 .553723-.1634603.73503-.4903808.183485-.3294353.275228-.8072422.275228-1.4334208 0-.6255499-.09201-1.0939264-.276045-1.4051296-.184029-.3143467-.435573-.47152-.754631-.47152z" fill="url(#h)" stroke-linejoin="round" stroke-width=".684528" transform="translate(0 -1)"/><path d="m4.9613458 15.538007q-.5646695 0-1.0213384-.155334-.4520023-.155334-.7766706-.480002-.3200016-.329335-.4933358-.838004-.1700008-.513336-.1700008-1.22334 0-.78667.1733342-1.31334.1800009-.531336.5000025-.851337.3240016-.320002.7760038-.456003.4560023-.136 1.0113384-.136.4046687 0 .8046707.09867.400002.09867.7533369.278001l-.4153352 1.092003q-.3106682-.136668-.5973363-.221335-.2866681-.08933-.5466694-.08933-.5220026 0-.7573371.400002-.2353345.395335-.2353345 1.190672 0 .790671.2353345 1.166673.2353345.376668.7386703.376668.4100021 0 .7440038-.103334.333335-.108003.6820034-.273337v1.195339q-.1733342.08667-.3386684.151334-.1653342.06667-.3346683.108667-.1646675.042-.3480018.06-.1800009.02467-.3866686.02467z" fill="url(#d)"/></g><g stroke-miterlimit="7" stroke-width=".964" transform="matrix(-1 0 0 1 22.991445 -2.107)"><path d="m9.303 8.59c-3.55 2.404-1.418 7.017 2.2 7.017v1.91l5-3.57-5-3.34v2c-2.553.1-3.668-2.34-1.844-4.018z" style="display:block;stroke-width:1;stroke-linejoin:round;stroke-miterlimit:7;fill:url(#a);stroke:url(#b)"/><path d="m8.3862952 11.325115c-.9998462 1.474849 2.0888358 3.855945 4.1167048 3.292885v.99l2.33-1.662-2.33-1.51v.793c-3.8781056 1.16801-4.3908297-1.489658-4.0168297-2.084658z" display="block" fill="none" opacity=".5" stroke="url(#c)"/></g></svg>