<svg viewBox="0 0 16 16" xmlns="http://www.w3.org/2000/svg" xmlns:xlink="http://www.w3.org/1999/xlink"><linearGradient id="a" gradientUnits="userSpaceOnUse" x1="25.03876" x2="25" y1="5.561738" y2="15.5"><stop offset="0" stop-color="#ffa154"/><stop offset="1" stop-color="#f37329"/></linearGradient><linearGradient id="b" gradientUnits="userSpaceOnUse" x1="6.126" x2="7.147" y2="15.671"><stop offset="0" stop-color="#737373"/><stop offset=".262" stop-color="#636363"/><stop offset=".705" stop-color="#4b4b4b"/><stop offset="1" stop-color="#3f3f3f"/></linearGradient><path d="m11.741883 14.201346h-3.0631001v-4.912257l-4.0841331.015241v4.897016h-3.0630999v-12.7170003h3.0630999v4.8817748l4.0841331-.015241v-4.8817748h3.0631001z" fill="url(#b)" stroke="#000" stroke-linejoin="round" stroke-opacity=".49" stroke-width="1.000002" transform="scale(.9794 1.02103)"/><path d="m12 4.1280485c-1.088.264-1.915.7809515-2.617 1.6039515l-.002.002c-.858 1.01-1.251 2.739-1.381 4.266v2.5c.014.032.43.874.444.907.0006607.0023.00133.0047.002.007.2695017.595857.4876644 1.529415 1.1297256 1.563486l2.4242744.022514v-.370019z" fill="#fff" fill-opacity=".804"/><path d="m9.183 10.672q0-2.698 1.12-4.016 1.126-1.316 3.366-1.316.766 0 1.2.092v1.535q-.544-.124-1.077-.124-.973 0-1.59.298-.613.3-.92.884-.306.584-.36 1.66h.08q.605-1.057 1.94-1.057 1.2 0 1.88.764.678.766.678 2.115 0 1.454-.807 2.306-.808.846-2.24.846-.992 0-1.733-.466-.734-.466-1.138-1.36-.398-.896-.398-2.158zm3.232 2.45q.606 0 .93-.41.325-.418.325-1.182 0-.665-.305-1.045-.3-.385-.912-.385-.576 0-.986.38-.404.378-.404.882 0 .74.38 1.25.385.51.973.51z" fill="url(#a)" stroke="#a62100" stroke-linejoin="round" stroke-opacity=".501961"/></svg>