<svg viewBox="0 0 16 16" xmlns="http://www.w3.org/2000/svg" xmlns:xlink="http://www.w3.org/1999/xlink"><clipPath id="a"><path d="m0-.0000002h9l-3 16.0000002h-6z"/></clipPath><linearGradient id="b" gradientTransform="matrix(.67880146 0 0 .73786273 -2.234164 -2.56176)" gradientUnits="userSpaceOnUse" x1="24" x2="23.915924" y1="5" y2="22.445583"><stop offset="0" stop-color="#fff"/><stop offset=".063" stop-color="#fff" stop-opacity=".235"/><stop offset=".951" stop-color="#fff" stop-opacity=".157"/><stop offset="1" stop-color="#fff" stop-opacity=".392"/></linearGradient><linearGradient id="c" gradientTransform="matrix(.59436 0 0 .5999 -19.265 1.967)" gradientUnits="userSpaceOnUse" x1="25.132" x2="25.132" y1="15.5" y2="48.396"><stop offset="0" stop-color="#fafafa"/><stop offset="1" stop-color="#e2e1de"/></linearGradient><g clip-path="url(#a)"><rect fill="url(#c)" height="14" rx=".424" ry=".491" width="14" x="1" y="1"/><path d="m.498.002c-.276 0-.5.224-.5.5l.002 14.998c0 .276.224.5.5.5h15c.276 0 .5-.224.5-.5l-.002-11.5h.002v-1h-.002v-2.498c0-.276-.224-.5-.5-.5zm.498.998h14.004v2h-4.002v-1.998h-1v1.998h-4v-1.998h-1v1.998h-4.002zm0 3h4.004v3h-4v1h4v3h-4v1h4v3h1v-3h4v3h1v-3h4v-1h-4v-3h4v3l.002 4.002h-14.004zm5.004 0h4v3h-4zm5 0h4v3h-4zm-5 4h4v3h-4z" fill="#030303" opacity=".32"/><path d="m1.5 1.5000004h13l-.000001 12.9999996h-12.999999z" fill="none" stroke="url(#b)" stroke-linecap="round" stroke-linejoin="round" stroke-width="1.012911"/><path d="m1 6.9999995h14v5.0000005h-14z" fill="#f37329"/><g fill="#cc3b02"><path d="m1 6.9999995c-.554 0-1 .446-1 1v3.0000005c0 .554.446 1 1 1h14c.554 0 1-.446 1-1v-3.0000005c0-.554-.446-1-1-1zm0 1h14v3.0000005h-14z"/><path d="m5 8h1v3h-1z"/><path d="m10 8h1v3h-1z"/></g></g><g opacity=".5"><rect fill="url(#c)" height="14" rx=".424" ry=".491" width="14" x="1" y="1"/><path d="m.498.002c-.276 0-.5.224-.5.5l.002 14.998c0 .276.224.5.5.5h15c.276 0 .5-.224.5-.5l-.002-11.5h.002v-1h-.002v-2.498c0-.276-.224-.5-.5-.5zm.498.998h14.004v2h-4.002v-1.998h-1v1.998h-4v-1.998h-1v1.998h-4.002zm0 3h4.004v3h-4v1h4v3h-4v1h4v3h1v-3h4v3h1v-3h4v-1h-4v-3h4v3l.002 4.002h-14.004zm5.004 0h4v3h-4zm5 0h4v3h-4zm-5 4h4v3h-4z" fill="#030303" opacity=".32"/><path d="m1.5 1.5000004h13l-.000001 12.9999996h-12.999999z" fill="none" stroke="url(#b)" stroke-linecap="round" stroke-linejoin="round" stroke-width="1.012911"/><path d="m1 6.9999995h14v5.0000005h-14z" fill="#f37329"/><g fill="#cc3b02"><path d="m1 6.9999995c-.554 0-1 .446-1 1v3.0000005c0 .554.446 1 1 1h14c.554 0 1-.446 1-1v-3.0000005c0-.554-.446-1-1-1zm0 1h14v3.0000005h-14z"/><path d="m5 8h1v3h-1z"/><path d="m10 8h1v3h-1z"/></g></g><path d="m9 .4999998-3 14.9930622" fill="none" stroke="#757575" stroke-linecap="round" stroke-linejoin="round"/></svg>