<svg height="16" width="16" xmlns="http://www.w3.org/2000/svg" xmlns:xlink="http://www.w3.org/1999/xlink"><radialGradient id="a" cx="-3.927" cy="12.495" gradientTransform="matrix(0 2.44257 -2.8671 0 42.326 3.813)" gradientUnits="userSpaceOnUse" r="20"><stop offset="0" stop-color="#d1ff82"/><stop offset=".262" stop-color="#9bdb4d"/><stop offset=".661" stop-color="#68b723"/><stop offset="1" stop-color="#3a9104"/></radialGradient><linearGradient id="b" gradientTransform="matrix(.19217 0 0 .18943 -13.034 6.72)" gradientUnits="userSpaceOnUse" x1="106.219" x2="106.219" y1="-3.557" y2="38.482"><stop offset="0" stop-color="#fff"/><stop offset=".034" stop-color="#fff" stop-opacity=".235"/><stop offset="1" stop-color="#fff" stop-opacity=".157"/><stop offset="1" stop-color="#fff" stop-opacity=".392"/></linearGradient><path d="m6.5.5c-.98 0-2 .796-2 1.776 0 .613.527 1.205 1 1.524v.752h-4.21c-.438 0-.79.353-.79.79v3.336c.326-.408.82-.678 1.382-.678.98 0 1.776.796 1.776 1.776s-.796 1.777-1.776 1.777c-.563 0-1.056-.27-1.382-.68v3.838c0 .438.352.79.79.79h3.71c-.41-.326-.776-.82-.776-1.382 0-.98.795-1.776 1.776-1.776.98 0 1.776.796 1.776 1.776 0 .563-.367 1.056-.776 1.382h3.705c.438 0 .795-.352.795-.79v-4.223h.756c.32.472.216 1.054 1.744 1.054.98 0 1.5-.855 1.5-2.04s-.52-1.99-1.5-1.99c-1.528 0-1.425.53-1.744 1.003h-.756v-3.17c0-.438-.357-.79-.795-.79h-3.205v-.755c.473-.32 1-.91 1-1.524 0-.98-1.02-1.776-2-1.776z" fill="url(#a)"/><g fill="none" stroke-linejoin="round"><path d="m5.5 5.5h-4l-.007 1.823c0-.204.013-.343.02-.343 2.167 0 3.164 1.41 3.164 2.883s-1.21 2.673-3.137 2.673h-.022v1.953c0 .024-.003.02.022.02h1.67v-.02c0-1.96 1.308-3.13 2.794-3.13 1.485 0 2.784 1.104 2.784 3.13v.02l1.712-.01v-4.595c-.008-.51 1.42-.398 1.993-.398.374 0 .682 1.09 1.214 1.09.664 0 .767-.397.767-1.165 0-.767-.048-.986-.877-.986-.378 0-.53 1.044-1.193 1.044-.497 0-1.907.188-1.9-.32l-.01-3.62-2.994-.049" opacity=".6" stroke="url(#b)"/><path d="m6.5.5c-.98 0-2 .796-2 1.776 0 .613.527 1.205 1 1.524v.752h-4.21c-.438 0-.79.353-.79.79v3.336c.326-.408.82-.678 1.382-.678.98 0 1.776.796 1.776 1.776s-.796 1.777-1.776 1.777c-.563 0-1.056-.27-1.382-.68v3.838c0 .438.352.79.79.79h3.71c-.41-.326-.776-.82-.776-1.382 0-.98.795-1.776 1.776-1.776.98 0 1.776.796 1.776 1.776 0 .563-.367 1.056-.776 1.382h3.705c.438 0 .795-.352.795-.79v-4.223h.756c.32.472.216 1.054 1.744 1.054.98 0 1.5-.855 1.5-2.04s-.52-1.99-1.5-1.99c-1.528 0-1.425.53-1.744 1.003h-.756v-3.17c0-.438-.357-.79-.795-.79h-3.205v-.755c.473-.32 1-.91 1-1.524 0-.98-1.02-1.776-2-1.776z" opacity=".4" stroke="#0a3600" stroke-linecap="round"/></g></svg>