<svg height="16" width="16" xmlns="http://www.w3.org/2000/svg" xmlns:xlink="http://www.w3.org/1999/xlink"><linearGradient id="a"><stop offset="0"/><stop offset="1" stop-color="#fff"/></linearGradient><linearGradient id="b" gradientUnits="userSpaceOnUse" x1="71.500146" x2="75.500146" xlink:href="#a" y1="12.749854" y2="12.749854"/><linearGradient id="c" gradientUnits="userSpaceOnUse" x1="65.5" x2="73.25" xlink:href="#a" y1="12.75" y2="12.75"/><linearGradient id="d" gradientUnits="userSpaceOnUse" x1="75.75" x2="83.5" xlink:href="#a" y1="12.75" y2="12.75"/><g transform="matrix(.70710678 -.70710678 .70710678 .70710678 -53.695213 51.66399)"><path d="m67.449219 9.9999996c-1.0803.0000003-1.949219.8689194-1.949219 1.9492194v1.601562c0 1.0803.868919 1.949219 1.949219 1.949219h3.851562c1.080301 0 1.949219-.868919 1.949219-1.949219v-1.601562c0-1.080301-.868918-1.949219-1.949219-1.949219zm.300781 1.7500004h3.25c.277 0 .500001.223.5.5v1c.000001.277-.223.5-.5.5h-3.25c-.277 0-.5-.223-.5-.5v-1c0-.277.223-.5.5-.5z" fill="#d4d4d4" stroke="#000" stroke-linecap="round" stroke-linejoin="bevel" stroke-opacity=".427451"/><path d="m77.699219 10c-1.0803-.0000006-1.949219.868918-1.949219 1.949219v1.601562c0 1.0803.868919 1.949219 1.949219 1.949219h3.851562c1.080301 0 1.949219-.868919 1.949219-1.949219v-1.601563c0-1.080299-.868918-1.9492186-1.949219-1.9492186zm.300781 1.75h3.25c.277 0 .5.223.500001.5l-.000001.999999c0 .277001-.223.500001-.5.500001h-3.25c-.277 0-.5-.223-.5-.5v-1c0-.277.223-.5.5-.5z" fill="#d4d4d4" stroke="#000" stroke-linecap="round" stroke-linejoin="bevel" stroke-opacity=".427451"/><path d="m67.449219 9.9999996c-1.0803.0000003-1.949219.8689194-1.949219 1.9492194v1.601562c0 1.0803.868919 1.949219 1.949219 1.949219h3.851562c1.080301 0 1.949219-.868919 1.949219-1.949219v-1.601562c0-1.080301-.868918-1.949219-1.949219-1.949219zm.300781 1.7500004h3.25c.277 0 .500001.223.5.5v1c.000001.277-.223.5-.5.5h-3.25c-.277 0-.5-.223-.5-.5v-1c0-.277.223-.5.5-.5z" fill="url(#c)" opacity=".2"/><path d="m71.25 14.5h-3.75c-.554 0-1-.446-1-1v-1.5m1-1h3.75c.554 0 1 .446 1 1" fill="none" opacity=".4" stroke="#fff" stroke-linecap="round" stroke-linejoin="bevel"/><path d="m77.699219 10c-1.0803-.0000006-1.949219.868918-1.949219 1.949219v1.601562c0 1.0803.868919 1.949219 1.949219 1.949219h3.851562c1.080301 0 1.949219-.868919 1.949219-1.949219v-1.601563c0-1.080299-.868918-1.9492186-1.949219-1.9492186zm.300781 1.75h3.25c.277 0 .5.223.500001.5l-.000001.999999c0 .277001-.223.500001-.5.500001h-3.25c-.277 0-.5-.223-.5-.5v-1c0-.277.223-.5.5-.5z" fill="url(#d)" opacity=".2"/><path d="m77.75 11h3.75c.554 0 1 .446 1 1v1.5m-1 1h-3.75c-.554 0-1-.446-1-1" fill="none" opacity=".4" stroke="#fff" stroke-linecap="round" stroke-linejoin="bevel"/><rect fill="#d4d4d4" height="1.75" rx=".875" stroke="#000" stroke-linecap="round" stroke-linejoin="bevel" stroke-opacity=".403922" width="8" x="70.5" y="11.874998"/><rect fill="url(#b)" height=".75" opacity=".2" rx=".5" width="7" x="71.000145" y="12.374854"/><rect fill="#fff" height=".75" opacity=".4" rx=".5" width="7" x="71.000145" y="12.374854"/></g></svg>