<svg height="16" width="16" xmlns="http://www.w3.org/2000/svg" xmlns:xlink="http://www.w3.org/1999/xlink"><linearGradient id="a" gradientUnits="userSpaceOnUse" x1="2.106" x2="2.106" y1="2.532" y2="14.492"><stop offset="0" stop-color="#ffa154"/><stop offset="1" stop-color="#f37329"/></linearGradient><linearGradient id="b" gradientUnits="userSpaceOnUse" x1="15.911407" x2="15.911407" y1="-2.374197" y2="10.76779"><stop offset="0" stop-color="#cd9ef7"/><stop offset="1" stop-color="#a56de2"/></linearGradient><linearGradient id="c" gradientTransform="matrix(0 -.5372019 .57681717 0 -15.997188 19.865617)" gradientUnits="userSpaceOnUse" x1="32.765083" x2="24.130812" y1="47.277107" y2="47.277107"><stop offset="0" stop-color="#fff"/><stop offset=".45000002" stop-color="#fff" stop-opacity=".235294"/><stop offset=".65000004" stop-color="#fff" stop-opacity=".156863"/><stop offset="1" stop-color="#fff" stop-opacity=".392157"/></linearGradient><linearGradient id="d" gradientTransform="matrix(-.90608582 0 0 .5153763 19.182549 -10.193381)" gradientUnits="userSpaceOnUse" x1="5.03216" x2="5.03216" y1="28.671696" y2="29.671688"><stop offset="0" stop-color="#fff"/><stop offset="0" stop-color="#fff" stop-opacity=".235294"/><stop offset="1" stop-color="#fff" stop-opacity=".392157"/></linearGradient><linearGradient id="e"><stop offset="0" stop-color="#fff"/><stop offset="0" stop-color="#fff" stop-opacity=".235"/><stop offset="1" stop-color="#fff" stop-opacity=".157"/><stop offset="1" stop-color="#fff" stop-opacity=".392"/></linearGradient><linearGradient id="f" gradientTransform="matrix(.33196 0 0 .24402 22.863 1.552)" gradientUnits="userSpaceOnUse" x1="-51.786" x2="-51.786" y1="50.786" y2="2.906"><stop offset="0" stop-opacity=".318"/><stop offset="1" stop-opacity=".24"/></linearGradient><linearGradient id="g" gradientTransform="matrix(.22297 0 0 .27027 .274 2.014)" gradientUnits="userSpaceOnUse" x1="11.003" x2="11.003" xlink:href="#e" y1="7.35" y2="40.65"/><linearGradient id="h" gradientTransform="matrix(.35135 0 0 .27027 -.432 2.014)" gradientUnits="userSpaceOnUse" x1="24" x2="24" xlink:href="#e" y1="7.35" y2="40.444"/><linearGradient id="i" gradientTransform="matrix(.35714584 0 0 .26072727 .677083 1.842182)" gradientUnits="userSpaceOnUse" x1="25.132" x2="25.132" y1=".985" y2="47.013"><stop offset="0" stop-color="#f4f4f4"/><stop offset="1" stop-color="#dbdbdb"/></linearGradient><g transform="translate(0 -1)"><path d="m3 2.5h12.5v12h-12.5z" fill="url(#i)" stroke-width="1.066004"/><path d="m14 9a3 3 0 1 1 -1.587-2.646l-1.413 2.646z" fill="url(#a)" opacity=".5"/><path d="m14 9.01c0 1.3-.946 2.543-2.2 2.89-1.253.347-2.704-.233-3.372-1.35-.006.007 2.572-1.54 2.572-1.54z" fill="url(#a)" opacity=".5"/><path d="m3 14.5h12.5v-12h-12.5" fill="none" stroke="url(#f)" stroke-linejoin="round"/><path d="m14.5 13.5h-13v-10h13z" fill="none" stroke="url(#h)" stroke-linecap="round"/><path d="m3 14.5h-2.5c.002-3.655.002-11.52 0-12h2.5" fill="url(#a)"/><g fill="none"><path d="m3 14.5h-2.376c-.233-.142-.056-.424-.11-.625v-11.305l.03-.05.08-.02h2.376" opacity=".4" stroke="#cc3b02" stroke-linejoin="round"/><path d="m2.5 13.5h-1v-10h1" opacity=".5" stroke="url(#g)" stroke-linecap="square"/><path d="m4 7.5h2m-2 2h1m-1 2h3m-1-2h1" stroke="#aaa"/></g><path d="m14 9c0 1.3-.946 2.543-2.2 2.89-.03-.005-.8-2.89-.8-2.89z" fill="url(#a)"/></g><g stroke-width="1.546116" transform="matrix(-.64678195 0 0 .64678195 22.291211 5.535588)"><path d="m16.684465-1.6011393v4.6383484h-6.184464v3.0922322l6.203998.010089-.01953 4.6282597 7.730577-6.1844648z" style="display:block;stroke:#452981;stroke-linecap:round;stroke-linejoin:round;stroke-opacity:.501961;fill:url(#b)"/><g fill="none"><path d="m18.230581 1.5815815-.002 3.0017443-6.955568-.0000006h6.957522l.000046 2.9554694 3.7115-2.9554694z" display="block" opacity=".5" stroke="url(#c)" stroke-miterlimit="7"/><path d="m11.273059 4.5833252h6.184464" opacity=".5" stroke="url(#d)"/></g></g></svg>