<svg height="16" width="16" xmlns="http://www.w3.org/2000/svg" xmlns:xlink="http://www.w3.org/1999/xlink"><linearGradient id="a" gradientTransform="matrix(.28571361 0 0 .30419701 1.142873 .232605)" gradientUnits="userSpaceOnUse" x1="25.132275" x2="25.750006" xlink:href="#f" y1=".985206" y2="12.384721"/><linearGradient id="b" gradientTransform="matrix(.24324324 0 0 .35135133 2.162164 -.432428)" gradientUnits="userSpaceOnUse" x1="23.99999" x2="23.999992" xlink:href="#e" y1="6.923065" y2="8.346142"/><linearGradient id="c" gradientTransform="matrix(.25378586 0 0 .30501865 19.128979 -.685477)" gradientUnits="userSpaceOnUse" x1="-51.73251" x2="-51.786404" xlink:href="#d" y1="18.639769" y2="2.906247"/><linearGradient id="d" gradientTransform="matrix(.25378586 0 0 .30501865 19.128979 -.685477)" gradientUnits="userSpaceOnUse" x1="-51.73251" x2="-51.786404" y1="18.639769" y2="2.906247"><stop offset="0" stop-opacity=".339506"/><stop offset="1" stop-opacity=".246914"/></linearGradient><linearGradient id="e" gradientTransform="matrix(.24324324 0 0 .35135133 2.162164 -.432428)" gradientUnits="userSpaceOnUse" x1="23.99999" x2="23.999992" y1="6.923065" y2="8.346142"><stop offset="0" stop-color="#fff"/><stop offset="0" stop-color="#fff" stop-opacity=".235294"/><stop offset="1" stop-color="#fff" stop-opacity=".156863"/><stop offset="1" stop-color="#fff" stop-opacity=".392157"/></linearGradient><linearGradient id="f" gradientTransform="matrix(.28571361 0 0 .30419701 1.142873 .232605)" gradientUnits="userSpaceOnUse" x1="25.132275" x2="25.750006" y1=".985206" y2="12.384721"><stop offset="0" stop-color="#f4f4f4"/><stop offset="1" stop-color="#dbdbdb"/></linearGradient><path d="m3 1h3l.000012 1.9991096-3.000012.0008904z" fill="url(#f)"/><g fill="none"><path d="m5.500012 2.4991096-2.0000121.0008904v-1l2.0000121-.0008904z" stroke="url(#e)" stroke-linecap="round"/><path d="m2.4999621.49997396c2.5206756 0 4.0000749.0000636 4.0000749.0000636l.000013 2.99909804-4.000088.0008904z" stroke="url(#d)" stroke-linejoin="round" stroke-width=".999922"/><g stroke="#585c5f"><path d="m4.5 4v9.5h3.5"/><path d="m5 7.5h3"/></g></g><g transform="translate(6.000038 5.000026)"><path d="m3 1h3l.000012 1.9991096-3.000012.0008904z" fill="url(#a)"/><g fill="none"><path d="m5.500012 2.4991096-2.0000121.0008904v-1l2.0000121-.0008904z" stroke="url(#b)" stroke-linecap="round"/><path d="m2.4999621.49997396c2.5206756 0 4.0000749.0000636 4.0000749.0000636l.000013 2.99909804-4.000088.0008904z" stroke="url(#c)" stroke-linejoin="round" stroke-width=".999922"/></g></g><g transform="translate(6 11)"><path d="m3 1h3l.000012 1.9991096-3.000012.0008904z" fill="url(#a)"/><g fill="none"><path d="m5.500012 2.4991096-2.0000121.0008904v-1l2.0000121-.0008904z" stroke="url(#b)" stroke-linecap="round"/><path d="m2.4999621.49997396c2.5206756 0 4.0000749.0000636 4.0000749.0000636l.000013 2.99909804-4.000088.0008904z" stroke="url(#c)" stroke-linejoin="round" stroke-width=".999922"/></g></g></svg>