<svg height="16" width="16" xmlns="http://www.w3.org/2000/svg" xmlns:xlink="http://www.w3.org/1999/xlink"><linearGradient id="a" gradientUnits="userSpaceOnUse" x1="13.607206" x2="13.210122" y1="2.273942" y2="10.91801"><stop offset="0" stop-color="#cd9ef7"/><stop offset="1" stop-color="#a56de2"/></linearGradient><linearGradient id="b" gradientTransform="matrix(0 -.5372019 .57681717 0 -15.997188 19.865617)" gradientUnits="userSpaceOnUse" x1="28.766335" x2="22.22485" y1="41.857925" y2="41.668373"><stop offset="0" stop-color="#fff"/><stop offset=".45000002" stop-color="#fff" stop-opacity=".235294"/><stop offset=".65000004" stop-color="#fff" stop-opacity=".156863"/><stop offset="1" stop-color="#fff" stop-opacity=".392157"/></linearGradient><radialGradient id="c" cx="24.837126" cy="36.421127" gradientTransform="matrix(1 0 0 .536723 0 16.87306)" gradientUnits="userSpaceOnUse" r="15.644737"><stop offset="0"/><stop offset="1" stop-opacity="0"/></radialGradient><linearGradient id="d" gradientTransform="matrix(.24324324 0 0 .35135133 2.162164 -.432428)" gradientUnits="userSpaceOnUse" x1="23.99999" x2="23.99999" y1="5.56415" y2="43"><stop offset="0" stop-color="#fff"/><stop offset=".03626217" stop-color="#fff" stop-opacity=".235294"/><stop offset=".95056331" stop-color="#fff" stop-opacity=".156863"/><stop offset="1" stop-color="#fff" stop-opacity=".392157"/></linearGradient><linearGradient id="e" gradientTransform="matrix(.31428714 0 0 .3259265 .457108 -.322238)" gradientUnits="userSpaceOnUse" x1="25.132275" x2="25.132275" y1=".985206" y2="47.013336"><stop offset="0" stop-color="#f4f4f4"/><stop offset="1" stop-color="#dbdbdb"/></linearGradient><linearGradient id="f" gradientTransform="matrix(.25378586 0 0 .30501865 19.128979 -.685477)" gradientUnits="userSpaceOnUse" x1="-51.786404" x2="-51.786404" y1="50.786446" y2="2.906247"><stop offset="0" stop-color="#a0a0a0"/><stop offset="1" stop-color="#bebebe"/></linearGradient><path d="m2.4999621.49997396c2.5206756 0 11.0000629.000954 11.0000629.000954l.000013 14.99909804s-7.3333841 0-11.0000759 0c0-5.000017 0-10.000035 0-15.00005204z" fill="url(#e)" stroke="url(#f)" stroke-linejoin="round" stroke-width=".999922"/><path d="m12.5 14.5h-9.0000001v-13h9.0000001z" fill="none" stroke="url(#d)" stroke-linecap="round"/><path d="m40.481863 36.421127a15.644737 8.3968935 0 1 1 -31.2894745 0 15.644737 8.3968935 0 1 1 31.2894745 0z" fill="url(#c)" fill-rule="evenodd" opacity=".141176" transform="matrix(.25567703 0 0 -.35727499 5.629043 23.012345)"/><g stroke-miterlimit="7" stroke-width=".963925"><path d="m12.678889 11.518038c3.550425-2.4050396 1.417792-7.018038-2.199926-7.018038v-1.9108774l-5.0000006 3.5714274 5.0000006 3.33945v-2c2.552377-.09933 3.668165 2.3398839 1.843474 4.018038z" display="block" fill="url(#a)" stroke="#452981" stroke-linejoin="round" stroke-opacity=".501961"/><path d="m13.360898 10.273947c1.252469-1.4706149.124647-5.3104076-3.8819354-4.7851697v-.9887773l-2.3301492 1.66055 2.3301492 1.5093014v-.7916852c4.3967954-.2351177 4.2560864 2.8012877 3.8819354 3.3957808z" display="block" fill="none" opacity=".5" stroke="url(#b)"/></g></svg>