<svg height="16" width="16" xmlns="http://www.w3.org/2000/svg"><path d="m12.5 1.5h-9v14h9z" fill="#46a8ea" fill-opacity=".984314"/><path d="m1.5 1c-.276131.0000276-.499972.2238691-.5.5v14c .000028.276131.223869.499972.5.5h1.5 10 1.5c.276131-.000028.499972-.223869.5-.5v-14c-.000028-.2761309-.223869-.4999724-.5-.5h-1.5-10-1.5zm.5 1h1v1h-1v-1zm2 0h8v13h-8v-13zm9 0h1v1h-1v-1zm-11 2h1v1h-1v-1zm11 0h1v1h-1v-1zm-11 2h1v1h-1v-1zm11 0h1v1h-1v-1zm-11 2h1v1h-1v-1zm11 0h1v1h-1v-1zm-11 2h1v1h-1v-1zm11 0h1v1h-1v-1zm-11 2h1v1h-1v-1zm11 0h1v1h-1v-1zm-11 2h1v1h-1v-1zm11 0h1v1h-1v-1z" fill="#565656"/><path d="m2 2h1v1h-1zm11 0h1v1h-1zm-11 2h1v1h-1zm11 0h1v1h-1zm-11 2h1v1h-1zm11 0h1v1h-1zm-11 2h1v1h-1zm11 0h1v1h-1zm-11 2h1v1h-1zm11 0h1v1h-1zm-11 2h1v1h-1zm11 0h1v1h-1zm-11 2h1v1h-1zm11 0h1v1h-1z" fill="#fff"/><path d="m4.5000013 8.4999998h6.9999997" display="block" fill="none" stroke="#565656" stroke-linecap="square" stroke-linejoin="round"/></svg>