<svg viewBox="0 0 16 16" xmlns="http://www.w3.org/2000/svg" xmlns:xlink="http://www.w3.org/1999/xlink"><radialGradient id="a" cx="7.033" cy="-.07" gradientTransform="matrix(-1.85302 .13112 -.1429 -1.98196 20.055 -1.06)" gradientUnits="userSpaceOnUse" r="7.031"><stop offset="0" stop-color="#737373"/><stop offset=".262" stop-color="#636363"/><stop offset=".705" stop-color="#4b4b4b"/><stop offset="1" stop-color="#3f3f3f"/></radialGradient>/&amp;gt;<path d="m8.042 3.73c-1.054 0-1.867.32-2.437.96-.57.642-.857 1.544-.857 2.71 0 1.18.174 2.416.56 3.156.383.734.965 1.31 1.746 1.73l.018 2.163h-5.582l-.02-2h3.243c-.886-.54-1.57-1.277-2.053-2.21-.478-.936-.698-2.256-.698-3.41 0-1.07.247-2.01.742-2.82.5-.816 1.212-1.442 2.132-1.88.92-.436 1.99-.654 3.206-.654 1.858 0 3.334.486 4.43 1.46 1.1.972 1.65 2.276 1.65 3.913 0 1.152-.26 2.462-.743 3.383-.485.92-1.178 1.66-2.08 2.218h3.267l.018 2h-5.616l-.018-2.164c.81-.42 1.406-1.005 1.79-1.756.385-.752.596-1.984.596-3.148 0-1.16-.29-2.056-.865-2.69-.57-.642-1.38-.962-2.428-.962z" fill="url(#a)" stroke="#000" stroke-linejoin="round" stroke-opacity=".431" transform="scale(.99532 1.0047)"/></svg>