<svg height="16" viewBox="0 0 4.2333332 4.2333335" width="16" xmlns="http://www.w3.org/2000/svg" xmlns:xlink="http://www.w3.org/1999/xlink"><linearGradient id="a" gradientTransform="matrix(1.3832 0 0 1.4144 -11.892 21.511)" gradientUnits="userSpaceOnUse" x1="10.48862" x2="10.562238" y1=".346782" y2="10.366126"><stop offset="0" stop-color="#aff05f"/><stop offset="1" stop-color="#68b723"/></linearGradient><linearGradient id="b" gradientUnits="userSpaceOnUse" x1="10.525429" x2="10.525429" xlink:href="#c" y1="1.501732" y2="8.315282"/><linearGradient id="c" gradientTransform="translate(18 -1)" gradientUnits="userSpaceOnUse" x1="9.338983" x2="9.169492" y1="2.576271" y2="13.355932"><stop offset="0" stop-color="#fff"/><stop offset=".38875309" stop-color="#fff" stop-opacity=".235294"/><stop offset="1" stop-color="#fff" stop-opacity=".156863"/><stop offset="1" stop-color="#fff" stop-opacity=".392157"/></linearGradient><linearGradient id="d" gradientUnits="userSpaceOnUse" x1="45.183064" x2="45.183064" y1="34.391285" y2="80.30912"><stop offset="0" stop-color="#cd9ef7"/><stop offset="1" stop-color="#a56de2"/></linearGradient><linearGradient id="e" gradientUnits="userSpaceOnUse" x1="63.183064" x2="63.092651" y1="38.793385" y2="71.205971"><stop offset="0" stop-color="#fff"/><stop offset="0" stop-color="#fff" stop-opacity=".235294"/><stop offset="1" stop-color="#fff" stop-opacity=".156863"/><stop offset="1" stop-color="#fff" stop-opacity=".392157"/></linearGradient><linearGradient id="f" gradientUnits="userSpaceOnUse" x1="-26.423071" x2="53.946991" y1="-.225524" y2="-.225524"><stop offset="0" stop-color="#f7b19e"/><stop offset="1" stop-color="#e2866d"/></linearGradient><linearGradient id="g" gradientUnits="userSpaceOnUse" x1="-16.11673" x2="47.078842" xlink:href="#c" y1="18.227474" y2="-7.844769"/><g transform="matrix(-.26458333 0 0 .26458333 4.237761 0)"><path d="m15.5 5.4763022a4.9745712 4.9763022 0 0 1 -4.974571 4.9763028 4.9745712 4.9763022 0 0 1 -4.9745715-4.9763028 4.9745712 4.9763022 0 0 1 4.9745715-4.9763022 4.9745712 4.9763022 0 0 1 4.974571 4.9763022z" fill="url(#a)"/><path d="m15.5 5.4763022a4.9745712 4.9763022 0 0 1 -4.974571 4.9763028 4.9745712 4.9763022 0 0 1 -4.9745715-4.9763028 4.9745712 4.9763022 0 0 1 4.9745715-4.9763022 4.9745712 4.9763022 0 0 1 4.974571 4.9763022z" fill="none" stroke="#7bb339" stroke-opacity=".501961"/><path d="m14.5 5.4763025a3.974571 3.974571 0 0 1 -3.974571 3.974571 3.974571 3.974571 0 0 1 -3.9745712-3.974571 3.974571 3.974571 0 0 1 3.9745712-3.974571 3.974571 3.974571 0 0 1 3.974571 3.974571z" fill="none" opacity=".5" stroke="url(#b)" stroke-linecap="round" stroke-linejoin="round"/><path d="m24.362666 31.690237h46.862075c.486636 0 .878405.391769.878405.878405v46.862071c0 .486637-.391769.878405-.878405.878405h-46.862075c-.486637 0-.878405-.391768-.878405-.878405v-46.862071c0-.486636.391768-.878405.878405-.878405z" fill="url(#d)" fill-rule="evenodd" transform="matrix(.18511326 0 0 .18511326 -3.847248 -2.366283)"/><g fill="none" fill-rule="evenodd" stroke="#b35039" stroke-width="5.402098" transform="matrix(.18511326 0 0 .18511326 -3.847248 -2.366283)"><rect height="48.618881" rx=".878405" stroke="#7239b3" stroke-opacity=".501961" width="48.618885" x="23.484261" y="31.690237"/><rect height="37.814686" opacity=".5" rx=".878405" stroke="url(#e)" width="37.814686" x="28.886358" y="37.092335"/></g><g transform="matrix(-.0469711 .12301476 -.12285865 -.04702363 12.247547 10.339718)"><path d="m25.603516-36.115234a3.9331261 3.9331261 0 0 0 -2.982422 1.34375l-48.072266 55.005859a3.9331261 3.9331261 0 0 0 2.480469 6.492187l72.503906 8.908204a3.9331261 3.9331261 0 0 0 4.154297-5.308594l-24.431641-63.914063a3.9331261 3.9331261 0 0 0 -3.652343-2.527343z" fill="url(#f)"/><g fill="none" stroke-width="7.59799"><path d="m25.603516-36.115234a3.9331261 3.9331261 0 0 0 -2.982422 1.34375l-48.072266 55.005859a3.9331261 3.9331261 0 0 0 2.480469 6.492187l72.503906 8.908204a3.9331261 3.9331261 0 0 0 4.154297-5.308594l-24.431641-63.914063a3.9331261 3.9331261 0 0 0 -3.652343-2.527343z" fill="none" stroke="#b35039" stroke-opacity=".501961"/><path d="m24.289062-24.931641-39.205078 44.859375 59.13086 7.265625z" opacity=".5" stroke="url(#g)"/></g></g></g></svg>