<svg height="16" width="16" xmlns="http://www.w3.org/2000/svg" xmlns:xlink="http://www.w3.org/1999/xlink"><linearGradient id="a" gradientTransform="matrix(.41578 -.4175 .51898 .51462 -15.747 2.65)" gradientUnits="userSpaceOnUse" x1="23.576" x2="23.576" y1="25.357" y2="31.211"><stop offset="0" stop-color="#181818"/><stop offset=".135" stop-color="#dbdbdb"/><stop offset=".202" stop-color="#a4a4a4"/><stop offset=".27" stop-color="#fff"/><stop offset=".447" stop-color="#8d8d8d"/><stop offset=".571" stop-color="#959595"/><stop offset=".72" stop-color="#cecece"/><stop offset="1" stop-color="#181818"/></linearGradient><linearGradient id="b" gradientTransform="matrix(.40402 -.4057 .60738 .60227 -17.868 .693)" gradientUnits="userSpaceOnUse" x1="30.038" x2="30.038" xlink:href="#c" y1="24.99" y2="30"/><linearGradient id="c"><stop offset="0" stop-color="#565656"/><stop offset=".5" stop-color="#9a9a9a"/><stop offset="1" stop-color="#545454"/></linearGradient><linearGradient id="d" gradientTransform="matrix(.40402 -.4057 .60738 .60227 -17.983 .81)" gradientUnits="userSpaceOnUse" x1="30.038" x2="30.038" xlink:href="#e" y1="24.99" y2="30"/><linearGradient id="e"><stop offset="0" stop-color="#b1b1b1"/><stop offset=".5" stop-color="#fff"/><stop offset="1" stop-color="#8f8f8f"/></linearGradient><linearGradient id="f" gradientTransform="matrix(.40402 -.4057 .60738 .60227 -17.466 .29)" gradientUnits="userSpaceOnUse" x1="30.038" x2="30.038" xlink:href="#c" y1="24.99" y2="30"/><linearGradient id="g" gradientTransform="matrix(.40402 -.4057 .60738 .60227 -17.58 .405)" gradientUnits="userSpaceOnUse" x1="30.038" x2="30.038" xlink:href="#e" y1="24.99" y2="30"/><linearGradient id="h" gradientTransform="matrix(.40402 -.4057 .60738 .60227 -17.062 -.116)" gradientUnits="userSpaceOnUse" x1="30.038" x2="30.038" xlink:href="#c" y1="24.99" y2="30"/><linearGradient id="i" gradientTransform="matrix(.40402 -.4057 .60738 .60227 -17.177 0)" gradientUnits="userSpaceOnUse" x1="30.038" x2="30.038" xlink:href="#e" y1="24.99" y2="30"/><linearGradient id="j" gradientTransform="matrix(.40402 -.4057 .60738 .60227 -17.637 .462)" gradientUnits="userSpaceOnUse" x1="9" x2="9" y1="29.056999" y2="26.030001"><stop offset="0" stop-color="#ece5a5"/><stop offset="1" stop-color="#fcfbf2"/></linearGradient><linearGradient id="k" gradientTransform="matrix(.37638 .03615 .0367 .37487 -2.218 -1.133)" gradientUnits="userSpaceOnUse" x1="5.518" x2="9.522" y1="37.372002" y2="41.391998"><stop offset="0" stop-color="#dbce48"/><stop offset="1" stop-color="#c5b625"/></linearGradient><linearGradient id="l" gradientTransform="matrix(.24324 0 0 .35135 2.162 .568)" gradientUnits="userSpaceOnUse" x1="24" x2="24" y1="6.205" y2="41.59"><stop offset="0" stop-color="#fff"/><stop offset=".029" stop-color="#fff" stop-opacity=".235"/><stop offset=".972" stop-color="#fff" stop-opacity=".157"/><stop offset="1" stop-color="#fff" stop-opacity=".392"/></linearGradient><linearGradient id="m" gradientTransform="matrix(.2857 0 0 .3042 1.143 1.233)" gradientUnits="userSpaceOnUse" x1="25.132" x2="25.132" y1=".985" y2="47.013"><stop offset="0" stop-color="#f4f4f4"/><stop offset="1" stop-color="#dbdbdb"/></linearGradient><linearGradient id="n"><stop offset="0" stop-opacity=".34"/><stop offset="1" stop-opacity=".247"/></linearGradient><linearGradient id="o" gradientTransform="matrix(.2538 0 0 .30502 19.13 .315)" gradientUnits="userSpaceOnUse" x1="-51.786" x2="-51.786" xlink:href="#n" y1="50.786" y2="2.906"/><linearGradient id="p" gradientTransform="matrix(.25277 0 0 .31365 1.903 1.45)" gradientUnits="userSpaceOnUse" x1="16.626" x2="20.055" y1="15.298" y2="24.628"><stop offset="0" stop-color="#fff"/><stop offset="1" stop-color="#fff" stop-opacity="0"/></linearGradient><linearGradient id="q" gradientTransform="matrix(.31418 0 0 .3333 -.44 .934)" gradientUnits="userSpaceOnUse" x1="-24.032" x2="-24.098" xlink:href="#n" y1="-13.091" y2="-40.164"/><linearGradient id="r" gradientTransform="matrix(.07868 0 0 .08498 18.225 4.95)" gradientUnits="userSpaceOnUse" x1="-96.557" x2="-96.557" y1="110.925" y2="39.992"><stop offset="0" stop-color="#e89c42"/><stop offset="1" stop-color="#faca67"/></linearGradient><linearGradient id="s" gradientTransform="matrix(.07868 0 0 .08498 18.225 4.95)" gradientUnits="userSpaceOnUse" x1="-107.456" x2="-107.456" y1="-37.385" y2="38.561"><stop offset="0" stop-color="#0b85e9"/><stop offset="1" stop-color="#69d1ef"/></linearGradient><path d="m1 14v-12h14v12z" fill="url(#m)"/><path d="m14.5 2.5v11h-13v-11z" fill="none" stroke="url(#l)" stroke-linecap="round"/><path d="m.5 14.5v-13h15v13z" fill="none" stroke="url(#o)" stroke-linejoin="round"/><path d="m2.008 3.085v9.957h11.96v-9.957z" fill="url(#r)"/><path d="m2.008 3.085v5.082c.177.088.402.168.645.168.555 0 1.098-.484 2.025-.484s1.624.61 2.793.61c1.17 0 1.433-.88 2.923-.88s1.35.557 2.283.557c.643 0 .917-.242 1.29-.396v-4.656z" fill="url(#s)"/><path d="m10.393 7.255c-1.49 0-1.753.88-2.922.88-1.168 0-1.865-.608-2.792-.608s-1.47.484-2.025.484c-.243 0-.468-.08-.645-.168v1.085c.267.077.613.14 1.026.14 1.052 0 .9-.382 1.807-.382s1.44.624 2.665.624c1.517 0 1.865-1.007 3.065-1.007.937 0 1.007.55 2.038.55.697 0 .928-.29 1.36-.477v-.96c-.375.154-.65.397-1.292.397-.933 0-.793-.558-2.283-.558z" fill="#fff"/><path d="m-13.488-12.572h10.976v8.955h-10.976z" fill="none" stroke="url(#q)" stroke-linecap="round" transform="matrix(-1 .004 .0023 -1 0 0)"/><path d="m2.16 3.242.004 5.785c.336-.007 11.386-2.133 11.64-2.235v-3.55z" fill="url(#p)" fill-rule="evenodd" opacity=".15"/><path d="m14 13.243c-.097-.016-.172-.01-.22.002l-6.536 1.45-1.203.268-.036.006-1.395 1.031 3.56-.054.03-.007 1.21-.267 6.533-1.462c.196-.043-.128-.294-.727-.563-.45-.202-.923-.36-1.215-.404z" fill="#0c0c0c" fill-rule="evenodd" opacity=".15"/><path d="m2.05 11.037c.285-.207 1.147.257 1.96 1.062.81.803 1.26 1.64 1.057 1.93 0 0 .02.018.02.02l10.136-10.182c.258-.258-.213-1.143-1.05-1.974-.84-.832-1.73-1.295-1.987-1.037z" fill="url(#a)" stroke="#0c0c0c" stroke-linejoin="round" stroke-width=".485" transform="matrix(.74077 0 0 .74257 4.48 4.176)"/><path d="m10.565 2.484c.287-.208 1.148.256 1.96 1.062.81.804 1.26 1.64 1.058 1.93 0 .002.02.018.02.02l1.55-1.558c.41-.408-.028-1.093-.98-2.044-.813-.806-1.674-1.27-1.96-1.062l-.026.025z" fill="#ffb6ed" opacity=".8" stroke="#e28ccd" stroke-linejoin="round" stroke-width=".485" transform="matrix(.74077 0 0 .74257 4.48 4.176)"/><path d="m5.998 12.372c.212-.154.85.19 1.452.79.6.595.933 1.217.783 1.432 0 0 .015.013.014.014l5.172-5.206.018-.02s-.015-.012-.014-.013c.15-.215-.183-.838-.783-1.434-.6-.598-1.24-.943-1.452-.79l-.018.02z" fill="#0c0c0c" opacity=".6"/><g transform="matrix(.74077 0 0 .74257 4.48 4.176)"><path d="m9.18 3.877c.285-.208 1.146.256 1.96 1.062.81.802 1.26 1.64 1.056 1.93l.02.018.126-.127s-.02-.016-.02-.018c.203-.29-.246-1.127-1.057-1.93-.812-.806-1.674-1.27-1.96-1.062z" fill="url(#b)"/><path d="m9.063 3.993c.286-.208 1.148.256 1.96 1.062.81.803 1.26 1.64 1.058 1.93 0 .002.02.018.02.02l.126-.128-.02-.018c.204-.29-.246-1.128-1.057-1.932-.813-.806-1.674-1.27-1.96-1.062z" fill="url(#d)"/><path d="m9.58 3.473c.287-.208 1.15.256 1.96 1.062.81.804 1.26 1.64 1.06 1.93-.002.002.018.018.017.02l.127-.127c0-.002-.02-.018-.02-.02.203-.29-.246-1.126-1.057-1.93-.812-.805-1.674-1.27-1.96-1.062z" fill="url(#f)"/><path d="m9.465 3.59c.286-.21 1.148.256 1.96 1.06.81.805 1.26 1.642 1.058 1.932l.02.018.125-.126s-.02-.018-.02-.02c.204-.288-.246-1.126-1.056-1.93-.813-.805-1.674-1.27-1.96-1.062z" fill="url(#g)"/><path d="m9.985 3.067c.286-.207 1.148.257 1.96 1.062.81.803 1.26 1.64 1.058 1.93 0 0 .02.018.02.02l.125-.128s-.02-.018-.02-.02c.203-.288-.246-1.126-1.057-1.93-.81-.805-1.673-1.27-1.96-1.062z" fill="url(#h)"/><path d="m9.87 3.183c.285-.207 1.147.257 1.96 1.062.81.804 1.26 1.642 1.057 1.93 0 .002.02.02.02.02l.125-.127s-.02-.018-.02-.02c.204-.288-.246-1.126-1.056-1.93-.813-.805-1.674-1.27-1.96-1.06z" fill="url(#i)"/><g fill-rule="evenodd" stroke-width=".485"><path d="m.26 15.794 4.772-1.725.04-.04c.202-.29-.253-1.128-1.064-1.93-.812-.807-1.673-1.27-1.96-1.06z" fill="url(#j)" stroke="url(#k)"/><path d="m.744 14.506-.484 1.284 1.3-.474c-.113-.134-.22-.268-.354-.402-.155-.154-.307-.28-.462-.408z" fill="#0c0c0c" stroke="#0c0c0c"/></g></g></svg>