<?xml version="1.0" encoding="UTF-8" standalone="no"?>
<svg xmlns:rdf="http://www.w3.org/1999/02/22-rdf-syntax-ns#" xmlns="http://www.w3.org/2000/svg" version="1.1" xmlns:cc="http://creativecommons.org/ns#" xmlns:xlink="http://www.w3.org/1999/xlink" viewBox="0 0 16 16" xmlns:dc="http://purl.org/dc/elements/1.1/">
 <metadata>
  <rdf:RDF>
   <cc:Work rdf:about="">
    <dc:format>image/svg+xml</dc:format>
    <dc:type rdf:resource="http://purl.org/dc/dcmitype/StillImage"/>
    <dc:title/>
   </cc:Work>
  </rdf:RDF>
 </metadata>
 <defs>
  <linearGradient id="linearGradient3940" x1="25.132" xlink:href="#linearGradient3600" gradientUnits="userSpaceOnUse" y1=".98521" gradientTransform="matrix(.28571 0 0 .30420 1.1429 .23260)" x2="25.132" y2="47.013"/>
  <linearGradient id="linearGradient3600">
   <stop stop-color="#f4f4f4" offset="0"/>
   <stop stop-color="#dbdbdb" offset="1"/>
  </linearGradient>
  <linearGradient id="linearGradient3095" x1="24" xlink:href="#linearGradient3977" gradientUnits="userSpaceOnUse" y1="6.9231" gradientTransform="matrix(.24324 0 0 .35135 2.1622 -.43243)" x2="24" y2="41.077"/>
  <linearGradient id="linearGradient3977">
   <stop stop-color="#fff" offset="0"/>
   <stop stop-color="#fff" stop-opacity=".23529" offset="0"/>
   <stop stop-color="#fff" stop-opacity=".15686" offset="1"/>
   <stop stop-color="#fff" stop-opacity=".39216" offset="1"/>
  </linearGradient>
  <linearGradient id="linearGradient3092" x1="-51.786" xlink:href="#linearGradient3104-9" gradientUnits="userSpaceOnUse" y1="50.786" gradientTransform="matrix(.25379 0 0 .30502 19.129 -.68548)" x2="-51.786" y2="2.9062"/>
  <linearGradient id="linearGradient3104-9">
   <stop stop-opacity=".33951" offset="0"/>
   <stop stop-opacity=".24691" offset="1"/>
  </linearGradient>
  <radialGradient id="radialGradient3259-3" gradientUnits="userSpaceOnUse" cy="48.605" cx="64.575" gradientTransform="matrix(0 .38529 -.41959 0 32.389 -16.793)" r="31">
   <stop stop-color="#cdf87e" offset="0"/>
   <stop stop-color="#a2e34f" offset=".26238"/>
   <stop stop-color="#68b723" offset=".66094"/>
   <stop stop-color="#1d7e0d" offset="1"/>
  </radialGradient>
  <clipPath id="clipPath2442" clipPathUnits="userSpaceOnUse">
   <rect height="5" width="9" y="11" x="2" fill="#85026c"/>
  </clipPath>
  <clipPath id="clipPath2446" clipPathUnits="userSpaceOnUse">
   <rect height="5" width="9" y="-.000013" x="2" fill="#85026c"/>
  </clipPath>
 </defs>
 <g clip-path="url(#clipPath2442)" transform="translate(5 -11)">
  <path d="m3 1c2.2915 0 10 0.0008904 10 0.0008904v13.999h-10v-14z" fill="url(#linearGradient3940)"/>
  <path d="m12.5 14.5h-9v-13h9z" stroke="url(#linearGradient3095)" stroke-linecap="round" fill="none"/>
  <path stroke-linejoin="round" d="m2.5 0.49997c2.5207 0 11 0.000954 11 0.000954l0.000013 14.999h-11c0-5 0-10 1e-7 -15z" stroke="url(#linearGradient3092)" stroke-width=".99992" fill="none"/>
 </g>
 <g clip-path="url(#clipPath2446)" transform="translate(5 11)">
  <path d="m3 1c2.2915 0 10 0.0008904 10 0.0008904v13.999h-10v-14z" fill="url(#linearGradient3940)"/>
  <path d="m12.5 14.5h-9v-13h9z" stroke="url(#linearGradient3095)" stroke-linecap="round" fill="none"/>
  <path stroke-linejoin="round" d="m2.5 0.49997c2.5207 0 11 0.000954 11 0.000954l0.000013 14.999h-11c0-5 0-10 1e-7 -15z" stroke="url(#linearGradient3092)" stroke-width=".99992" fill="none"/>
 </g>
 <path stroke-linejoin="round" d="m9.516 6.5085h2v2h-2z" stroke-opacity=".43382" stroke="#0f5a00" stroke-linecap="round" fill="#9cde4a"/>
 <g stroke-linejoin="round" transform="translate(-7.9926 -4)" stroke="#5ca12a" stroke-linecap="round" stroke-width=".727" fill="#9cde4a">
  <path style="color:#000000" d="m10.5 10.5v-2.0073h3v2.0073h2.0073v3h-2.007v2.0073h-3v-2.007h-2.0073v-3z" fill="url(#radialGradient3259-3)"/>
  <g>
   <path stroke-linejoin="round" opacity=".5" style="color-rendering:auto;color:#000000;isolation:auto;mix-blend-mode:normal;shape-rendering:auto;solid-color:#000000;image-rendering:auto" d="m10.5 10.5v-2.0073h3v2.0073h2.0073v3h-2.007v2.0073h-3v-2.007h-2.0073v-3z" stroke="#0f5a00" stroke-linecap="round" stroke-width="1" fill="none"/>
   <g fill="#fff">
    <rect opacity=".5" style="color-rendering:auto;color:#000000;isolation:auto;mix-blend-mode:normal;shape-rendering:auto;solid-color:#000000;image-rendering:auto" height="1" width="2" y="9" x="11"/>
    <rect opacity=".2" style="color-rendering:auto;color:#000000;isolation:auto;mix-blend-mode:normal;shape-rendering:auto;solid-color:#000000;image-rendering:auto" height="1" width="2" y="14" x="11"/>
    <rect opacity=".4" style="color-rendering:auto;color:#000000;isolation:auto;mix-blend-mode:normal;shape-rendering:auto;solid-color:#000000;image-rendering:auto" height="1" width="2" y="11" x="9"/>
    <rect opacity=".4" style="color-rendering:auto;color:#000000;isolation:auto;mix-blend-mode:normal;shape-rendering:auto;solid-color:#000000;image-rendering:auto" height="1" width="2" y="11" x="13"/>
   </g>
  </g>
 </g>
 <rect opacity=".4" height="1" width="1" y="7" x="10" fill="#fff"/>
 <g stroke-linejoin="round" transform="translate(4)" stroke="#5ca12a" stroke-linecap="round" stroke-width=".727" fill="#9cde4a">
  <path d="m9.516 6.5085h2v2h-2z" stroke-opacity=".43382" stroke="#0f5a00" stroke-width="1"/>
  <rect opacity=".4" height="1" width="1" y="7" x="10" fill="#fff"/>
 </g>
</svg>
