<svg viewBox="0 0 16 16" xmlns="http://www.w3.org/2000/svg" xmlns:xlink="http://www.w3.org/1999/xlink"><linearGradient id="a" gradientTransform="matrix(.48649 0 0 .37838 -2.17567 1.4189)" gradientUnits="userSpaceOnUse" x1="23.999815" x2="23.999815" y1="6.821449" y2="18.714256"><stop offset="0" stop-color="#fff"/><stop offset="0" stop-color="#fff" stop-opacity=".23529"/><stop offset=".99999994" stop-color="#fff" stop-opacity=".15686"/><stop offset="1" stop-color="#fff" stop-opacity=".39216"/></linearGradient><linearGradient id="b" gradientUnits="userSpaceOnUse" x1="14" x2="6" y1="8" y2="16"><stop offset="0" stop-color="#fff"/><stop offset=".125" stop-color="#fff" stop-opacity="0"/><stop offset="1" stop-color="#fff" stop-opacity="0"/></linearGradient><clipPath id="c"><path d="m8 2.6855469v14.0000001l3.132812-3.820313 2.066407 4.986328a1.0001 1.0001 0 1 0 1.847656-.765624l-2.111328-5.095704 4.378906.009766z"/></clipPath><linearGradient id="d" gradientUnits="userSpaceOnUse" x1="9.978495" x2="9.978495" y1="13.912886" y2="-5.872059"><stop offset="0"/><stop offset="1" stop-color="#333"/></linearGradient><linearGradient id="e" gradientTransform="matrix(.34286 0 0 .21728 -.227 3.452)" gradientUnits="userSpaceOnUse" x1="25.132" x2="25.132" y1=".985" y2="47.013"><stop offset="0" stop-color="#f4f4f4"/><stop offset="1" stop-color="#dbdbdb"/></linearGradient><linearGradient id="f" gradientTransform="matrix(.06578 0 0 .06828 16.56 6.498)" gradientUnits="userSpaceOnUse" x1="-96.557" x2="-96.557" y1="110.925" y2="39.992"><stop offset="0" stop-color="#e89c42"/><stop offset="1" stop-color="#faca67"/></linearGradient><linearGradient id="g" gradientTransform="matrix(.06578 0 0 .06828 16.56 6.498)" gradientUnits="userSpaceOnUse" x1="-107.456" x2="-107.456" y1="-37.385" y2="38.561"><stop offset="0" stop-color="#0b85e9"/><stop offset="1" stop-color="#69d1ef"/></linearGradient>

/&amp;amp;gt;<path d="m14.5 13.5h-13v-11h13z" fill="none" stroke="#8c8c8c" stroke-linejoin="round"/><path d="m2 4h12v10h-12z" fill="url(#e)" transform="translate(0 -1)"/><path d="m13.5 12.5h-11v-9h11z" fill="none" stroke="#fdfdfb" stroke-linecap="round"/><path d="m3 5v8h10v-8z" fill="url(#f)" transform="translate(0 -1)"/><path d="m3 5v4.083c.15.07.338.135.54.135.465 0 .92-.39 1.694-.39s1.358.49 2.335.49 1.197-.707 2.443-.707 1.13.45 1.91.45c.536 0 .766-.196 1.078-.32v-3.741z" fill="url(#g)" transform="translate(0 -1)"/><path d="m10.013 7.35c-1.246 0-1.466.708-2.444.708s-1.56-.49-2.336-.49-1.23.39-1.693.39c-.202 0-.39-.065-.54-.136v.87c.225.063.514.113.86.113.88 0 .753-.306 1.51-.306.758 0 1.204.5 2.228.5 1.268 0 1.56-.808 2.562-.808.784 0 .843.442 1.705.442.582 0 .776-.232 1.136-.383v-.77c-.31.123-.54.318-1.078.318-.78 0-.663-.448-1.91-.448z" fill="#fff"/><path d="m3.5 4.5h9v7h-9z" fill="none" opacity=".3" stroke="#000"/><rect fill="#ff8c82" fill-opacity=".816176" height="7.5" rx="1" stroke="#7a0000" stroke-linecap="square" stroke-opacity=".517647" width="8" x="6.5" y="2.5"/><path d="m13.5 9h-6v-5.5h6z" fill="none" opacity=".5" stroke="url(#a)" stroke-linecap="round"/><g transform="matrix(.69327406 0 0 .69327406 4.147082 6)"><path d="m8.1884834 1.6672989v10.9999991l2.5652276-2.9424834 2.044188 3.7280744c.494727 1.242916 2.142881-.74317 1.613492-1.971723l-1.874329-2.6219434 3.117524-.2046366z" fill-rule="evenodd" opacity=".05" stroke="#000" stroke-linejoin="round" stroke-width="4.327293"/><path d="m8.1884834 1.6672989v10.9999991l2.5652276-2.9424834 2.044188 3.7280744c.494727 1.242916 2.142881-.74317 1.613492-1.971723l-1.874329-2.6219434 3.117524-.2046366z" fill-rule="evenodd" opacity=".2" stroke="#000" stroke-linejoin="round" stroke-width="2"/><path d="m7 0v11l2.5652277-2.9424843 2.0441883 3.7280743c.494704 1.24297 2.357232.471184 1.827788-.757391l-2.088625-3.8362743 3.117523-.2046366z" fill="none" stroke="#fff" stroke-width="2.884862"/><path clip-path="url(#c)" d="m6.9891304 6.9358866v11.1195654l2.59311-2.974467 2.0664066 3.768597c.500102 1.256433 2.382807.476286 1.847656-.765624l-2.111328-3.877973 3.151411-.206867z" fill="none" opacity=".4" stroke="url(#b)" stroke-width="2.916219" transform="matrix(.98924729 0 0 .98924729 .086022 -6.861307)"/><path d="m7 0v11l2.5652277-2.9424843 2.0441883 3.7280743c.494704 1.24297 2.357232.471184 1.827788-.757391l-2.088625-3.8362743 3.651421-.1919247z" fill="url(#d)" fill-rule="evenodd"/></g></svg>