<svg xmlns="http://www.w3.org/2000/svg" xmlns:xlink="http://www.w3.org/1999/xlink" height="16" width="16"><defs><radialGradient id="b" cx="15.951" cy="8.6" gradientTransform="matrix(0 .9738 -1.34684 0 50.58 -19.308)" gradientUnits="userSpaceOnUse" r="18"><stop offset="0" stop-color="#90dbec"/><stop offset=".262" stop-color="#55c1ec"/><stop offset=".705" stop-color="#3689e6"/><stop offset="1" stop-color="#2b63a0"/></radialGradient><linearGradient id="a" gradientTransform="matrix(.4845 0 0 .34573 60.24 -9.85)" gradientUnits="userSpaceOnUse" x1="-51.786" x2="-51.786" y1="53.624" y2="2.906"><stop offset="0" stop-color="#185f9a"/><stop offset="1" stop-color="#599ec9"/></linearGradient><linearGradient xlink:href="#a" id="e" x1="6.356" y1="15" x2="6" y2="3" gradientUnits="userSpaceOnUse"/><radialGradient xlink:href="#b" id="d" cx="8" cy="5.601" fx="8" fy="5.601" r="8" gradientTransform="matrix(1.62617 0 0 .9384 -5.01 1.25)" gradientUnits="userSpaceOnUse"/><radialGradient cx="64.575" cy="48.605" r="31" fx="64.575" fy="48.605" id="g" xlink:href="#c" gradientUnits="userSpaceOnUse" gradientTransform="matrix(0 .3853 -.4196 0 32.39 -16.793)"/><linearGradient id="c"><stop offset="0" stop-color="#cdf87e"/><stop offset=".262" stop-color="#a2e34f"/><stop offset=".661" stop-color="#68b723"/><stop offset="1" stop-color="#1d7e0d"/></linearGradient></defs><linearGradient id="f" gradientTransform="matrix(.35135 0 0 .21622 -.432 3.31)" gradientUnits="userSpaceOnUse" x1="24" x2="24" y1="-.667" y2="43"><stop offset="0" stop-color="#fff"/><stop offset=".508" stop-color="#fff" stop-opacity=".235"/><stop offset=".835" stop-color="#fff" stop-opacity=".157"/><stop offset="1" stop-color="#fff" stop-opacity=".392"/></linearGradient><path d="M.5 3.5h15v10H.5v-10z" fill="url(#d)" stroke="url(#e)" stroke-linejoin="round"/><path d="M14.5 12.5h-13v-8h13z" fill="none" opacity=".5" stroke="url(#f)" stroke-linecap="round"/><path d="M4 6.5h2.076zm2.908 0h2.234zm3.03 0h1.224zM4 8.495h1.295zm1.895 0h1.23zm1.824 0h.742zm1.262.01H12zM4 10.5h1.746zm1.92 0h1.184zm1.985 0H9.16zm1.97 0h1.992z" fill="none" stroke="#fff"/><g color="#000"><path d="M10.5 10.5V8.493h3V10.5h2.007v3H13.5v2.007h-3V13.5H8.493v-3z" overflow="visible" fill="url(#g)"/><path d="M10.5 10.5V8.493h3V10.5h2.007v3H13.5v2.007h-3V13.5H8.493v-3z" style="isolation:auto;mix-blend-mode:normal" overflow="visible" opacity=".5" solid-color="#000000" fill="none" stroke="#0f5a00" stroke-linecap="round" stroke-linejoin="round"/><path style="isolation:auto;mix-blend-mode:normal" overflow="visible" opacity=".5" solid-color="#000000" fill="#fff" d="M11 9h2v1h-2z"/><path style="isolation:auto;mix-blend-mode:normal" overflow="visible" opacity=".2" solid-color="#000000" fill="#fff" d="M11 14h2v1h-2z"/><path style="isolation:auto;mix-blend-mode:normal" d="M9 11v1h2v-1zm4 0v1h2v-1z" overflow="visible" opacity=".4" solid-color="#000000" fill="#fff"/></g></svg>