<svg viewBox="0 0 16 16" xmlns="http://www.w3.org/2000/svg" xmlns:xlink="http://www.w3.org/1999/xlink"><linearGradient id="a" gradientTransform="matrix(.59436 0 0 .5999 -19.265 1.967)" gradientUnits="userSpaceOnUse" x1="25.132" x2="25.132" xlink:href="#f" y1="15.5" y2="48.396"/><linearGradient id="b" gradientTransform="matrix(.67880146 0 0 .73786273 2.765836 .43824)" gradientUnits="userSpaceOnUse" x1="24" x2="23.915924" xlink:href="#e" y1="5" y2="18.379787"/><linearGradient id="c" gradientTransform="matrix(.49219581 0 0 .45839231 4.509306 -4.793718)" gradientUnits="userSpaceOnUse" x1="23.731871" x2="23.731871" y1="5.394345" y2="39.735077"><stop offset="0" stop-color="#90dbec"/><stop offset=".26238" stop-color="#55c1ec"/><stop offset=".704952" stop-color="#3689e6"/><stop offset="1" stop-color="#2b63a0"/></linearGradient><linearGradient id="d" gradientTransform="matrix(0 -.5372019 .57681717 0 -15.997188 19.865617)" gradientUnits="userSpaceOnUse" x1="40.957993" x2="18.680689" y1="46.97065" y2="46.97065"><stop offset="0" stop-color="#fff"/><stop offset=".45000002" stop-color="#fff" stop-opacity=".235294"/><stop offset=".65000004" stop-color="#fff" stop-opacity=".156863"/><stop offset="1" stop-color="#fff" stop-opacity=".392157"/></linearGradient><linearGradient id="e" gradientTransform="matrix(.67880146 0 0 .73786273 2.765836 .43824)" gradientUnits="userSpaceOnUse" x1="24" x2="23.915924" y1="5" y2="18.379787"><stop offset="0" stop-color="#fff"/><stop offset=".063" stop-color="#fff" stop-opacity=".235"/><stop offset=".951" stop-color="#fff" stop-opacity=".157"/><stop offset="1" stop-color="#fff" stop-opacity=".392"/></linearGradient><linearGradient id="f" gradientTransform="matrix(.59436 0 0 .5999 -19.265 1.967)" gradientUnits="userSpaceOnUse" x1="25.132" x2="25.132" y1="15.5" y2="48.396"><stop offset="0" stop-color="#fafafa"/><stop offset="1" stop-color="#e2e1de"/></linearGradient><g transform="translate(-4.998 -3.001953)"><rect fill="url(#a)" height="11" rx=".424" ry=".491" width="9" x="6" y="4"/><path d="m5.5 3.0000001c-.276-.0000539-.5.224-.5.5l.00195 11.9980469c0 .276.224.499946.5.5l9.99805.001953c.276.000054.5-.224.5-.5.0021-5.002515-.002-7.0008623-.002-11.9980469 0-.276-.224-.4999461-.5-.5zm.4980469.9980469 9.0019531.001953v3h-4l-.002-2.9980469h-.9999531l.0019531 2.9980469h-4v1h4v3h-4v1h2 2v3h1v-3h4l.002 3.001953-9.002-.001953zm5.0019531 4.001953h4v3h-4z" fill="#030303" fill-opacity=".317647"/><path d="m6.5 4.5h8l-.000001 10h-7.999999z" fill="none" stroke="url(#b)" stroke-linecap="round" stroke-linejoin="round" stroke-width="1.012911"/></g><rect fill="url(#f)" height="11" rx=".424" ry=".491" width="9" x="6" y="4"/><path d="m5.5 3.0000001c-.276-.0000539-.5.224-.5.5l.00195 11.9980469c0 .276.224.499946.5.5l9.99805.001953c.276.000054.5-.224.5-.5.0021-5.002515-.002-7.0008623-.002-11.9980469 0-.276-.224-.4999461-.5-.5zm.4980469.9980469 9.0019531.001953v3h-4l-.002-2.9980469h-.9999531l.0019531 2.9980469h-4v1h4v3h-4v1h2 2v3h1v-3h4l.002 3.001953-9.002-.001953zm5.0019531 4.001953h4v3h-4z" fill="#030303" fill-opacity=".317647"/><path d="m6.5 4.5h8l-.000001 10h-7.999999z" fill="none" stroke="url(#e)" stroke-linecap="round" stroke-linejoin="round" stroke-width="1.012911"/><g transform="matrix(.64678195 0 0 .64678195 -.289687 8.535588)"><path d="m16.710054 9.864121 7.03706-6.1547966-7.05559-5.8627917v3.6474278l-6.191524.0060395.01853 4.6485495 6.191524-.0060395z" display="block" fill="url(#c)"/><g stroke-miterlimit="7" stroke-width="1.546116"><path d="m16.710054 9.864121 7.03706-6.1547966-7.05559-5.8627919v3.6474278l-6.191524.0060395.01853 4.6485497 6.191524-.0060395z" style="display:block;fill:#46a9eb;fill-opacity:.984314;stroke:#004372;stroke-linejoin:round;stroke-opacity:.490196"/><path d="m17.691406-.08007812v2.57421872l-6.191406.0058594.01758 2.6484375 6.19336-.00586v2.6113281l4.470703-4.0449218z" display="block" fill="none" stroke="url(#d)"/></g></g></svg>