<svg height="16" width="16" xmlns="http://www.w3.org/2000/svg" xmlns:xlink="http://www.w3.org/1999/xlink"><linearGradient id="a" gradientTransform="matrix(0 -.5372019 .57681717 0 -15.997188 19.865617)" gradientUnits="userSpaceOnUse" x1="11.517301" x2="11.483547" y1="13.14685" y2="3.511022"><stop offset="0" stop-color="#fff"/><stop offset=".45000002" stop-color="#fff" stop-opacity=".235294"/><stop offset=".65000004" stop-color="#fff" stop-opacity=".156863"/><stop offset="1" stop-color="#fff" stop-opacity=".392157"/></linearGradient><path d="m3 1c2.2915074 0 9.999988.0008904 9.999988.0008904l.000012 13.9991096s-6.6666668 0-10 0c0-4.666666 0-9.3333336 0-14z" fill="#e9e9e9"/><path d="m12.5 14.5h-9.0000001v-13h9.0000001z" fill="none" stroke="#fff" stroke-linecap="round"/><path d="m2.4999621.49997396c2.5206756 0 11.0000629.000954 11.0000629.000954l.000013 14.99909804s-7.3333841 0-11.000076 0c0-5.000017 0-10.000035 0-15.00005204z" fill="none" stroke="#8c8c8c" stroke-linejoin="round" stroke-width=".999922"/><path d="m13.697015 12.512529c3.557432-2.432529 1.42059-7.098253-2.204269-7.098253v-1.9327186l-5.0098692 3.6122485 5.0098692 3.3776191v-2.0228593c2.557415-.1004654 3.675406 2.3666283 1.847113 4.0639633z" style="display:block;fill:#d8a7ff;stroke:#8e56dc;stroke-width:.970374;stroke-linejoin:round;stroke-miterlimit:7"/><path d="m10.976562 4.4667969-3.6777339 2.6464843 3.6777339 2.4042969.02542-1.611924c2.212721.037013 3.46091.6648232 3.753781 2.7184169.730399-2.0356237-.05929-4.7099873-3.779198-4.6162615zm-.970703 1.8945312v.6074219l.548829-.074219c1.919602-.2540225 2.988922.5643763 3.476562 1.5546878-.70319-.6798944-1.74883-1.2113931-3.566406-1.1132813l-.458985.023437v.3652344l-.9921871-.6503901z" display="block" fill="url(#a)" opacity=".8"/></svg>