<svg viewBox="0 0 16 16" xmlns="http://www.w3.org/2000/svg" xmlns:xlink="http://www.w3.org/1999/xlink"><linearGradient id="a" gradientTransform="matrix(-.99999999 0 0 .99999999 11 10)" gradientUnits="userSpaceOnUse" x1="3" x2="3" xlink:href="#r" y1="2" y2="4"/><linearGradient id="b" gradientTransform="matrix(-.99999999 0 0 .99999999 11 5)" gradientUnits="userSpaceOnUse" x1="3" x2="3" xlink:href="#r" y1="2" y2="4"/><linearGradient id="c" gradientTransform="matrix(-.99999999 0 0 .99999999 11 0)" gradientUnits="userSpaceOnUse" x1="3" x2="3" xlink:href="#r" y1="2" y2="4"/><linearGradient id="d" gradientTransform="matrix(-.99999999 0 0 .99999999 6 10)" gradientUnits="userSpaceOnUse" x1="3" x2="3" xlink:href="#r" y1="2" y2="4"/><linearGradient id="e" gradientTransform="matrix(-.99999999 0 0 .99999999 6 5)" gradientUnits="userSpaceOnUse" x1="3" x2="3" xlink:href="#r" y1="2" y2="4"/><linearGradient id="f" gradientTransform="matrix(-.99999999 0 0 .99999999 6 0)" gradientUnits="userSpaceOnUse" x1="3" x2="3" xlink:href="#r" y1="2" y2="4"/><linearGradient id="g" gradientTransform="matrix(-.99999999 0 0 .99999999 16 10)" gradientUnits="userSpaceOnUse" x1="3" x2="3" xlink:href="#r" y1="2" y2="4"/><linearGradient id="h" gradientTransform="matrix(-.99999999 0 0 .99999999 16 5)" gradientUnits="userSpaceOnUse" x1="3" x2="3" xlink:href="#r" y1="2" y2="4"/><linearGradient id="i" gradientTransform="matrix(-.99999999 0 0 .99999999 16 0)" gradientUnits="userSpaceOnUse" x1="3" x2="3" xlink:href="#r" y1="2" y2="4"/><linearGradient id="j" gradientTransform="matrix(.59436 0 0 .5999 -19.265 1.967)" gradientUnits="userSpaceOnUse" x1="25.132" x2="25.132" y1="15.5" y2="48.396"><stop offset="0" stop-color="#fafafa"/><stop offset="1" stop-color="#e2e1de"/></linearGradient><clipPath id="k"><path d="m0 9h9v7h-9z"/></clipPath><clipPath id="l"><path d="m0 0h9v9h-9z"/></clipPath><linearGradient id="m" gradientTransform="matrix(.48483606 0 0 .5270602 -.165352 -.400235)" gradientUnits="userSpaceOnUse" x1="24.060406" x2="24.060406" y1="6.451322" y2="10.245955"><stop offset="0" stop-color="#fff"/><stop offset="0" stop-color="#fff" stop-opacity=".235294"/><stop offset=".99999982" stop-color="#fff" stop-opacity=".156863"/><stop offset="1" stop-color="#fff" stop-opacity=".392157"/></linearGradient><linearGradient id="n" gradientTransform="translate(-6.001953 -.998047)" gradientUnits="userSpaceOnUse" x1="9" x2="9.001953" xlink:href="#m" y1="3" y2="4.998047"/><linearGradient id="o" gradientTransform="translate(-1.001953 -.998047)" gradientUnits="userSpaceOnUse" x1="9" x2="9.001953" xlink:href="#m" y1="3" y2="4.998047"/><linearGradient id="p" gradientTransform="translate(3.998047 -.998047)" gradientUnits="userSpaceOnUse" x1="9" x2="9.001953" xlink:href="#m" y1="3" y2="4.998047"/><linearGradient id="q" gradientUnits="userSpaceOnUse" x1="7.998047" x2="7.998047" y1=".001953" y2="5.001953"><stop offset="0" stop-color="#d4d4d4"/><stop offset="1" stop-color="#abacae"/></linearGradient><linearGradient id="r" gradientTransform="matrix(0 -.5372 .57682 0 -15.997 19.866)" gradientUnits="userSpaceOnUse" x1="30.655001" x2="30.827999" y1="65.686996" y2="48.688"><stop offset="0" stop-color="#fff"/><stop offset="0" stop-color="#fff" stop-opacity=".235"/><stop offset="1" stop-color="#fff" stop-opacity=".157"/><stop offset="1" stop-color="#fff" stop-opacity=".392"/></linearGradient><radialGradient id="s" cx="64.575" cy="48.605" gradientTransform="matrix(0 .4 -.4 0 32.4 -16.8)" gradientUnits="userSpaceOnUse" r="31"><stop offset="0" stop-color="#d1ff82"/><stop offset=".262" stop-color="#9bdb4d"/><stop offset=".661" stop-color="#68b723"/><stop offset="1" stop-color="#3a9104"/></radialGradient><g clip-path="url(#k)" transform="translate(7 -9)"><rect fill="url(#j)" height="15" rx=".424" ry=".491" width="15" x=".5" y=".5"/><path d="m.49804688.00195313c-.27600001 0-.50000001.22399999-.50000001.49999999l.00195313 14.99804688c0 .276.224.5.5.5h15c.276 0 .5-.224.5-.5.0019-5.003728-.002-9.9990437-.002-14.99804688 0-.276-.224-.49999999-.5-.49999999zm.49804687.99804687h14.00390625v4h-4l-.002-3.9980469h-.9999531l.0019531 3.9980469h-4l-.00195-3.9980469h-1l.00195 3.9980469h-4v1h4v4h-4v1h4v4h1v-4h4v4h1v-4h4l.002 4.001953h-14.00395312zm5.00390625 5h4v4h-4zm5 0h4v4h-4z" fill="#030303" opacity=".32"/><g fill="none" stroke-linecap="square"><path d="m9.4999996 11.5h-2.9999996v3h2.9999996z" stroke="url(#a)"/><path d="m9.4999996 6.5h-2.9999996v3h2.9999996z" stroke="url(#b)"/><path d="m9.4999996 1.5000001h-2.9999996v3h2.9999996z" stroke="url(#c)"/><path d="m4.4999996 11.5h-2.9999996v3h2.9999996z" stroke="url(#d)"/><path d="m4.4999996 6.5h-2.9999996v3h2.9999996z" stroke="url(#e)"/><path d="m4.4999996 1.5000001h-2.9999996v3h2.9999996z" stroke="url(#f)"/><path d="m14.5 11.5h-3v3h3z" stroke="url(#g)"/><path d="m14.5 6.5h-3v3h3z" stroke="url(#h)"/><path d="m14.5 1.5000001h-3v3h3z" stroke="url(#i)"/></g></g><g clip-path="url(#l)" transform="translate(7 7)"><rect fill="url(#j)" height="15" rx=".424" ry=".491" width="15" x=".5" y=".5"/><path d="m.49804688.00195313c-.27600001 0-.50000001.22399999-.50000001.49999999l.00195313 14.99804688c0 .276.224.5.5.5h15c.276 0 .5-.224.5-.5.0019-5.003728-.002-9.9990437-.002-14.99804688 0-.276-.224-.49999999-.5-.49999999zm.49804687.99804687h14.00390625v4h-4l-.002-3.9980469h-.9999531l.0019531 3.9980469h-4l-.00195-3.9980469h-1l.00195 3.9980469h-4v1h4v4h-4v1h4v4h1v-4h4v4h1v-4h4l.002 4.001953h-14.00395312zm5.00390625 5h4v4h-4zm5 0h4v4h-4z" fill="#030303" opacity=".32"/><g fill="none" stroke-linecap="square"><path d="m9.4999996 11.5h-2.9999996v3h2.9999996z" stroke="url(#a)"/><path d="m9.4999996 6.5h-2.9999996v3h2.9999996z" stroke="url(#b)"/><path d="m9.4999996 1.5000001h-2.9999996v3h2.9999996z" stroke="url(#c)"/><path d="m4.4999996 11.5h-2.9999996v3h2.9999996z" stroke="url(#d)"/><path d="m4.4999996 6.5h-2.9999996v3h2.9999996z" stroke="url(#e)"/><path d="m4.4999996 1.5000001h-2.9999996v3h2.9999996z" stroke="url(#f)"/><path d="m14.5 11.5h-3v3h3z" stroke="url(#g)"/><path d="m14.5 6.5h-3v3h3z" stroke="url(#h)"/><path d="m14.5 1.5000001h-3v3h3z" stroke="url(#i)"/></g><path d="m.498047.501953h15l.002 4.978047-15 .02z" fill="url(#q)"/><path d="m.498047.001953c-.2761424 0-.5.223858-.5.5l.00195 5.498047h.9980469l-.00195-5h4.0019531v.002l.00195 3.998047h-4v1h14v-1h-4l-.00195-3.998047v-.002h4.001953l.002 5h.998l-.002-5.498047c-.000098-.276142-.223858-.5-.5-.5zm5.5.998047h4v.002l.002 3.998047h-4l-.002-3.998047z" fill="#555761" fill-opacity=".501961"/><g fill="none"><path d="m6.498047 1.501953h3l.00195 2.998047h-3z" opacity=".8" stroke="url(#o)"/><path d="m1.498047 1.501953h3l.00195 2.998047h-3z" opacity=".8" stroke="url(#n)"/><path d="m11.498047 1.501953h3l.002 2.998047h-3z" opacity=".8" stroke="url(#p)"/></g></g><g fill="#9cde4a" stroke="#5ca12a" stroke-linecap="round" stroke-linejoin="round" stroke-width=".727" transform="translate(-1)"><path d="m11.5 10.5v-2.007h2v2.007h2.007l-.007 2h-2.007v2.007h-2v-2.007h-1.993v-2z" fill="url(#s)" stroke="none" transform="translate(-8 -4)"/><path d="m3.5 6.5v-2.007h2v2.007h2.007l-.007 2h-2.007v2.007h-2v-2.007h-1.993v-2z" fill="none" opacity=".5" stroke="#206b00" stroke-opacity=".93" stroke-width="1"/><g fill="#fff" stroke="none"><path d="m4 5h1v1h-1z" opacity=".5"/><path d="m3.993 9h1v1h-1z" opacity=".2"/><path d="m2 7h2v.5h-2zm3 0h2v.5h-2z" opacity=".4"/></g></g></svg>