<svg height="16" width="16" xmlns="http://www.w3.org/2000/svg" xmlns:xlink="http://www.w3.org/1999/xlink"><linearGradient id="a" gradientTransform="matrix(0 -.61157583 .6008607 0 4.388771 19.029157)" gradientUnits="userSpaceOnUse" x1="21.304237" x2="4.953036" y1="12.667211" y2="12.667211"><stop offset="0" stop-color="#9bdb4d"/><stop offset="1" stop-color="#68b723"/></linearGradient><linearGradient id="b" gradientTransform="matrix(0 .54188661 -.46916342 0 36.115417 -2.918912)" gradientUnits="userSpaceOnUse" x1="20.443369" x2="31.222237" xlink:href="#e" y1="54.037033" y2="54.145412"/><linearGradient id="c" gradientTransform="matrix(0 .54188661 -.46916342 0 30.115417 -8.918912)" gradientUnits="userSpaceOnUse" x1="20.443369" x2="36.75845" xlink:href="#e" y1="54.037033" y2="53.883762"/><linearGradient id="d" gradientTransform="matrix(0 -.61157583 .6008607 0 -1.611229 13.029157)" gradientUnits="userSpaceOnUse" x1="21.304237" x2=".047675" y1="12.667211" y2="12.667211"><stop offset="0" stop-color="#64baff"/><stop offset="1" stop-color="#3689e6"/></linearGradient><linearGradient id="e" gradientTransform="matrix(0 .54188661 .46916342 0 -14.115417 -8.918912)" gradientUnits="userSpaceOnUse" x1="20.443369" x2="34.913044" y1="54.037033" y2="54.037033"><stop offset="0" stop-color="#fff"/><stop offset=".36232007" stop-color="#fff" stop-opacity=".235294"/><stop offset="1" stop-color="#fff" stop-opacity=".156863"/><stop offset="1" stop-color="#fff" stop-opacity=".392157"/></linearGradient><path d="m5.001953.4999985c.08084 0 .150828.03231.208984.08789l4.187501 4.339844c.062219.059439.101562.1428761.101562.2421875 0 .1845228-.130217.3222656-.304688.3222656h-2.3964839c-.1628379-.000116-.2988151.1459138-.2988281.3242187l-.000466 6.3769527c-.0000128.174818-.1290258.306641-.3007812.306641h-2.4023438c-.171756 0-.300794-.131823-.300781-.306641l.000466-6.4082027c-.01503-.1636803-.145595-.2930775-.298828-.2929687h-2.396485c-.174469 0-.300781-.1377426-.300781-.3222656 0-.1845764.07628-.1785565.103516-.2421875l4.1875-4.339843c.05467-.05559.129519-.08789.210937-.087891z" style="stroke:#002e99;stroke-width:.999997;stroke-linecap:round;stroke-linejoin:round;stroke-opacity:.501961;fill:url(#d)"/><path d="m5 1.8232296 2.5895534 2.6767704h-.9926493c-.5584978.0002081-1.0963121.7738764-1.0964381 1.2200757l-.001398 5.7799243h-.999068l-.000466-5.7799243c-.000109-.4461993-.506741-1.2198527-1.105316-1.2200757h-.972924z" fill="none" opacity=".6" stroke="url(#c)" stroke-width=".999994"/><path d="m11.001953 6.4999985c.08084 0 .150828.03231.208984.08789l4.187501 4.3398435c.062219.05944.101562.142877.101562.242188 0 .184523-.130217.322266-.304688.322266h-2.396484c-.162838-.000116-.298803.145913-.298828.324218l-.000466 3.376953c-.000024.174818-.129026.306641-.300781.306641h-2.402344c-.171756 0-.3008049-.131823-.300781-.306641l.000466-3.408203c-.01503-.16368-.145595-.293077-.298828-.292968h-2.396485c-.174469 0-.300781-.137743-.300781-.322266 0-.184576.07628-.178556.103516-.242188l4.1875-4.3398425c.05467-.05559.129519-.08789.210937-.087891z" style="stroke:#206b00;stroke-width:.999997;stroke-linecap:round;stroke-linejoin:round;stroke-opacity:.501961;fill:url(#a)"/><path d="m11 7.8232296 2.589553 2.6767704h-.992649c-.558498.000208-1.096312.773876-1.096438 1.220076l-.001398 2.779924h-.999068l-.000466-2.779924c-.000109-.4462-.506741-1.219853-1.105316-1.220076h-.972924z" fill="none" opacity=".6" stroke="url(#b)" stroke-width=".999994"/></svg>