<svg height="16" width="16" xmlns="http://www.w3.org/2000/svg" xmlns:xlink="http://www.w3.org/1999/xlink"><linearGradient id="a" gradientTransform="matrix(0 -.61157583 -.6008607 0 14.611229 15.029157)" gradientUnits="userSpaceOnUse" x1="23.684666" x2="2.479839" y1="7.294484" y2="7.294484"><stop offset="0" stop-color="#64baff"/><stop offset="1" stop-color="#3689e6"/></linearGradient><linearGradient id="b" gradientTransform="matrix(0 .54188661 .46916342 0 -17.115417 -6.918912)" gradientUnits="userSpaceOnUse" x1="20.443369" x2="34.913044" y1="54.037033" y2="54.037033"><stop offset="0" stop-color="#fff"/><stop offset=".36232007" stop-color="#fff" stop-opacity=".235294"/><stop offset="1" stop-color="#fff" stop-opacity=".156863"/><stop offset="1" stop-color="#fff" stop-opacity=".392157"/></linearGradient><path d="m12.5.83398251c0-.184667-.164586-.333984-.369141-.333984h-8.261718c-.204555 0-.369141.149317-.369141.333984v1.33203199c0 .184667.164586.333984.369141.333984h4.1289059 4.1328121c.204555 0 .369141-.149317.369141-.333984zm-4.5019531 1.66601599c-.080838 0-.1508278.03231-.2089844.08789l-4.1875005 4.339844c-.062219.059439-.101562.1428761-.101562.2421875 0 .1845228.130217.3222656.304688.3222656h2.3964839c.1628379-.000116.2988281.1459138.2988281.3242187v5.3769527c0 .174818.1290258.306641.3007812.306641h2.4023438c.1717556 0 .3007813-.131823.3007812-.306641v-5.4082027c.015028-.1636803.1455949-.2930775.2988282-.2929687h2.3964846c.174469 0 .300781-.1377426.300781-.3222656 0-.1845764-.07628-.1785565-.103516-.2421875l-4.1874996-4.339843c-.054667-.05559-.1295192-.08789-.2109375-.087891z" style="stroke:#002e99;stroke-width:.999997;stroke-linecap:round;stroke-linejoin:round;stroke-opacity:.501961;fill:url(#a)"/><path d="m4 1h8v1h-8z" fill="#fff" opacity=".5"/><path d="m8 3.8232296-2.5895534 2.6767704h.9926493c.5584978.0002081 1.0963124.7738764 1.0964382 1.2200757l.0009318 4.7799243h.9990681l.000932-4.7799243c.000109-.4461993.5067412-1.2198527 1.1053156-1.2200757h.9729244z" fill="none" opacity=".6" stroke="url(#b)" stroke-width=".999994"/></svg>