<svg viewBox="0 0 16 16" xmlns="http://www.w3.org/2000/svg" xmlns:xlink="http://www.w3.org/1999/xlink"><linearGradient id="a"><stop offset="0" stop-color="#737373"/><stop offset=".262" stop-color="#636363"/><stop offset=".705" stop-color="#4b4b4b"/><stop offset="1" stop-color="#3f3f3f"/></linearGradient><radialGradient id="b" cx="11.991" cy="3.586" gradientTransform="matrix(-2.78683 .14778 -.08902 -1.6788 45.727 4.702)" gradientUnits="userSpaceOnUse" r="3.67" xlink:href="#a"/><radialGradient id="c" cx="4.031" cy="4.696" gradientTransform="matrix(-4.55967 .17297 -.0856 -2.25616 22.814 10.212)" gradientUnits="userSpaceOnUse" r="2.744" xlink:href="#a"/><g stroke-linejoin="round"><path d="m5.46 13.874h-1.91v-6.59l.016-1.084.03-1.184q-.475.6-.66.787l-1.04 1.052-.923-1.45 2.915-2.92h1.57z" fill="url(#c)" stroke="#000" stroke-opacity=".49"/><path d="m15.5 8.194q0 2.886-.782 4.273-.775 1.386-2.394 1.386-1.57 0-2.37-1.43-.794-1.433-.794-4.23 0-2.915.775-4.294.776-1.387 2.39-1.387 1.568 0 2.368 1.447.807 1.446.807 4.234zm-4.436 0q0 2.027.286 2.91.29.873.974.873.67 0 .967-.89.3-.888.3-2.893 0-2.027-.305-2.908-.298-.89-.96-.89-.678 0-.97.89-.29.88-.29 2.908z" fill="url(#b)" stroke="#000" stroke-opacity=".49"/><path d="m7.473 12.49h1.044l.005 3.032h-1.044z" fill="#ffc27d" stroke="#f37329"/></g></svg>