<svg viewBox="0 0 16 16" xmlns="http://www.w3.org/2000/svg" xmlns:xlink="http://www.w3.org/1999/xlink"><linearGradient id="a"><stop offset="0" stop-color="#737373"/><stop offset=".262" stop-color="#636363"/><stop offset=".705" stop-color="#4b4b4b"/><stop offset="1" stop-color="#3f3f3f"/></linearGradient><radialGradient id="b" cx="6.5" cy="11.743026" gradientTransform="matrix(-1.7405363 -.0000002 .00000016 -1.425042 17.643992 27.785154)" gradientUnits="userSpaceOnUse" r="1.723607" xlink:href="#a"/><radialGradient id="c" cx="8" cy="-.668" gradientTransform="matrix(-1.3663175 0 0 -1.6593365 18.18974 -1.97258)" gradientUnits="userSpaceOnUse" r="7.969" xlink:href="#e"/><radialGradient id="d" cx="8" cy="-.668" gradientTransform="matrix(-1.3663175 0 0 -1.6593365 18.18974 -1.971478)" gradientUnits="userSpaceOnUse" r="7.969" xlink:href="#e"/><radialGradient id="e" cx="8" cy="-.668" gradientTransform="matrix(-1.50575 0 0 -1.50575 20.046 -.006)" gradientUnits="userSpaceOnUse" r="7.969" xlink:href="#a"/><radialGradient id="f" cx="64.575" cy="48.605" gradientTransform="matrix(0 .3853 -.4196 0 32.39 -16.793)" gradientUnits="userSpaceOnUse" r="31"><stop offset="0" stop-color="#cdf87e"/><stop offset=".262" stop-color="#a2e34f"/><stop offset=".661" stop-color="#68b723"/><stop offset="1" stop-color="#1d7e0d"/></radialGradient><g stroke-linejoin="round"><g fill="url(#e)" stroke="#000" stroke-opacity=".49"><path d="m6.66939 6.045572q0 2.885036-.780364 4.271352-.775827 1.386316-2.395536 1.386316-1.569802 0-2.368314-1.4326-.7966972-1.429294-.7966972-4.225068 0-2.916994.775827-4.295596.775827-1.38631599 2.3882768-1.38631599 1.569802 0 2.3701288 1.44692599.807586 1.445824.807586 4.233884zm-4.4344638 0q0 2.025476.2849236 2.907076.290368.873886.9736402.873886.671476 0 .9681958-.88711.2976272-.889314.2976272-2.893852 0-2.02768-.303979-2.90928-.2976272-.889314-.961844-.889314-.676013 0-.9672884.889314-.290368.8816-.290368 2.90928z" fill="url(#c)" stroke-width=".659985"/><path d="m15.670798 6.046674q0 2.885036-.782179 4.271352-.774919 1.386316-2.395536 1.386316-1.569802 0-2.368314-1.4326-.7948822-1.430396-.7948822-4.22617 0-2.916994.7758272-4.295596.775827-1.38631599 2.388277-1.38631599 1.569802 0 2.368314 1.44692599.807586 1.445824.807586 4.233884zm-4.437186 0q0 2.025476.286738 2.907076.290368.873886.973641.873886.669661 0 .967288-.88711.297627-.889314.297627-2.893852 0-2.02768-.303979-2.90928-.299442-.889314-.961844-.889314-.67692 0-.968196.889314-.292182.8816-.292182 2.90928z" fill="url(#d)" stroke-width=".659985"/><path d="m5.5145851 12.575579q0-.29616.077937-.498795.077937-.210429.2104292-.335128.1324924-.132493.3117469-.187048.1792545-.06235.3896837-.06235.2026355 0 .38189.06235.1870481.05456.3195406.187048.1324924.124699.2104291.335128.077937.202635.077937.498795 0 .288366-.077937.498795-.077937.202636-.2104291.335128-.1324925.132492-.3195406.194842-.1792545.06235-.38189.06235-.2104292 0-.3896837-.06235-.1792548-.06235-.3117472-.194842-.1324925-.132492-.2104292-.335128-.0779367-.210429-.0779367-.498795z" fill="url(#b)" stroke="#000" stroke-opacity=".65098" transform="translate(1.485415 -1.075579)"/></g><path d="m10.5 10.5v-2.007h3v2.007h2.007v3h-2.007v2.007h-3v-2.007h-2.007v-3z" fill="url(#f)"/><path d="m10.5 10.5v-2.007h3v2.007h2.007v3h-2.007v2.007h-3v-2.007h-2.007v-3z" fill="none" opacity=".5" stroke="#0f5a00" stroke-linecap="round"/><g fill="#fff"><path d="m11 9h2v1h-2z" opacity=".5"/><path d="m11 14h2v1h-2z" opacity=".2"/><path d="m9 11v1h2v-1zm4 0v1h2v-1z" opacity=".4"/></g></g></svg>