<svg viewBox="0 0 16 16" xmlns="http://www.w3.org/2000/svg" xmlns:xlink="http://www.w3.org/1999/xlink"><linearGradient id="a" gradientTransform="matrix(.3705263 0 0 .38647344 7.53368 7.335749)" gradientUnits="userSpaceOnUse" x1="11.192374" x2="11.192374" y1="4.064163" y2="30.298229"><stop offset="0" stop-color="#f8b17e"/><stop offset=".31209752" stop-color="#e35d4f"/><stop offset=".57054454" stop-color="#c6262e"/><stop offset="1" stop-color="#690b54"/></linearGradient><linearGradient id="b" gradientTransform="matrix(.64000001 0 0 .69565218 -14.27409 .033675)" gradientUnits="userSpaceOnUse" x1="41.225124" x2="41.225124" y1="23.238064" y2="7.916672"><stop offset="0" stop-color="#791235"/><stop offset="1" stop-color="#dd3b27"/></linearGradient><radialGradient id="c" cx="8" cy="-.668" gradientTransform="matrix(-1.50575 0 0 -1.50575 20.046 -.006)" gradientUnits="userSpaceOnUse" r="7.969"><stop offset="0" stop-color="#737373"/><stop offset=".262" stop-color="#636363"/><stop offset=".705" stop-color="#4b4b4b"/><stop offset="1" stop-color="#3f3f3f"/></radialGradient><g stroke-linejoin="round"><g fill="url(#c)" stroke="#000" stroke-opacity=".49"><path d="m7.35 7.27q0 2.618-.86 3.876-.855 1.258-2.64 1.258-1.73 0-2.61-1.3-.878-1.297-.878-3.834 0-2.647.855-3.898.855-1.258 2.632-1.258 1.73 0 2.612 1.313.89 1.312.89 3.842zm-4.887 0q0 1.838.314 2.638.32.793 1.073.793.74 0 1.067-.805.328-.807.328-2.626 0-1.84-.335-2.64-.328-.807-1.06-.807-.745 0-1.066.807-.32.8-.32 2.64zm14.807 0q0 2.618-.862 3.876-.854 1.258-2.64 1.258-1.73 0-2.61-1.3-.876-1.298-.876-3.835 0-2.647.855-3.898.855-1.258 2.632-1.258 1.73 0 2.61 1.313.89 1.312.89 3.842zm-4.89 0q0 1.838.316 2.638.32.793 1.073.793.738 0 1.066-.805.328-.807.328-2.626 0-1.84-.335-2.64-.33-.807-1.06-.807-.746 0-1.067.807-.322.8-.322 2.64z" stroke-width=".66" transform="scale(.90737 1.10208)"/><path d="m7.305 13.305h1.39v1.39h-1.39z" stroke-width=".61"/></g><path d="m15.5 14.214902-2.0384-2.049501 1.96142-2.147073-1.41391-1.3299219-2.01857 2.0460349-2.05948-2.0460349-1.47106 1.3788389 2.05948 2.089411-2.05948 2.056046 1.47106 1.432225 2.05709-2.148338 2.06188 2.148338z" fill="url(#a)" stroke="url(#b)"/></g></svg>