<svg height="16" width="16" xmlns="http://www.w3.org/2000/svg" xmlns:xlink="http://www.w3.org/1999/xlink"><radialGradient id="a" cx="64.574997" cy="48.605" gradientTransform="matrix(0 .3853 -.4196 0 32.39 -16.793)" gradientUnits="userSpaceOnUse" r="31"><stop offset="0" stop-color="#d1ff82"/><stop offset=".262" stop-color="#9bdb4d"/><stop offset=".661" stop-color="#68b723"/><stop offset="1" stop-color="#3a9104"/></radialGradient><linearGradient id="b" gradientTransform="matrix(.24324324 0 0 .35135133 2.162164 -.432428)" gradientUnits="userSpaceOnUse" x1="23.99999" x2="23.99999" y1="6.205239" y2="41.589603"><stop offset="0" stop-color="#fff"/><stop offset=".02929282" stop-color="#fff" stop-opacity=".235294"/><stop offset=".97230476" stop-color="#fff" stop-opacity=".156863"/><stop offset="1" stop-color="#fff" stop-opacity=".392157"/></linearGradient><linearGradient id="c" gradientTransform="matrix(.31428497 0 0 .32592538 .45716 -.322209)" gradientUnits="userSpaceOnUse" x1="25.132275" x2="25.132275" y1=".985206" y2="47.013336"><stop offset="0" stop-color="#f4f4f4"/><stop offset="1" stop-color="#dbdbdb"/></linearGradient><linearGradient id="d" gradientTransform="matrix(.25378586 0 0 .30501865 19.128979 -.685477)" gradientUnits="userSpaceOnUse" x1="-51.786404" x2="-51.786404" y1="50.786446" y2="2.906247"><stop offset="0" stop-opacity=".339506"/><stop offset="1" stop-opacity=".246914"/></linearGradient><path d="m2.5.5c2.5206581 0 10.999987.000954 10.999987.000954l.000013 14.999046s-7.3333335 0-11 0c0-4.999999 0-10.0000003 0-15z" fill="url(#c)" stroke-width="1.08562"/><path d="m12.5 14.5h-9.0000001v-13h9.0000001z" fill="none" stroke="url(#b)" stroke-linecap="round"/><path d="m2.4999621.49997396c2.5206756 0 11.0000629.000954 11.0000629.000954l.000013 14.99909804s-7.3333841 0-11.000076 0c0-5.000017 0-10.000035 0-15.00005204z" fill="none" stroke="url(#d)" stroke-linejoin="round" stroke-width=".999922"/><path d="m10.5 10.5v-2h3v2h2v3h-2v2h-3v-2h-2v-3z" fill="url(#a)" stroke="#206b00" stroke-linecap="round" stroke-linejoin="round" stroke-opacity=".501961"/><g fill="#fff"><path d="m11 9h2v1h-2z" opacity=".5"/><path d="m11 14h2v1h-2z" opacity=".2"/><path d="m9 11v1h2v-1zm4 0v1h2v-1z" opacity=".4"/></g></svg>