<svg viewBox="0 0 16 16" xmlns="http://www.w3.org/2000/svg" xmlns:xlink="http://www.w3.org/1999/xlink"><linearGradient id="a" gradientTransform="matrix(.36872249 0 0 .38856797 7.575734 7.143101)" gradientUnits="userSpaceOnUse" x1="11.192374" x2="11.192374" y1="4.064163" y2="30.298229"><stop offset="0" stop-color="#ed5353"/><stop offset="1" stop-color="#c6262e"/></linearGradient><g stroke-linejoin="round"><g fill="#8c8c8c" stroke="#565656"><path d="m7.3510752 7.2692427q0 2.6186316-.8614819 3.8766683-.8546448 1.258037-2.639143 1.258037-1.729801 0-2.6117944-1.29906-.87515621-1.2990596-.87515621-3.8356453 0-2.6459801.85464471-3.89718.8546448-1.2580371 2.6323059-1.2580371 1.7298009 0 2.6117943 1.3127343.8888306 1.3127344.8888306 3.8424828zm-4.888568 0q0 1.8391955.3145093 2.639143.3213464.7931103 1.0734338.7931103.738413 0 1.0665966-.8067846.3281836-.8067846.3281836-2.6254687 0-1.8391955-.3350207-2.6391429-.3281836-.8067847-1.0597595-.8067847-.7452503 0-1.0665967.8067847-.3213464.7999474-.3213464 2.6391429z" fill="#8c8c8c" stroke="#565656" stroke-linejoin="round" stroke-width=".65966" transform="scale(.90737338 1.1020821)"/><path d="m17.269814 7.2692437q0 2.6186315-.861482 3.8766683-.854645 1.258037-2.639143 1.258037-1.729801 0-2.611794-1.29906-.875156-1.2990597-.875156-3.8356453 0-2.6459802.854644-3.8971801.854645-1.258037 2.632306-1.258037 1.729801 0 2.611795 1.3127343.88883 1.3127343.88883 3.8424828zm-4.888568 0q0 1.8391955.314509 2.639143.321347.7931103 1.073434.7931103.738413 0 1.066597-.8067846.328183-.8067847.328183-2.6254687 0-1.8391955-.33502-2.639143-.328184-.8067846-1.05976-.8067846-.74525 0-1.066596.8067846-.321347.7999475-.321347 2.639143z" fill="#8c8c8c" stroke="#565656" stroke-linejoin="round" stroke-width=".65966" transform="scale(.9073734 1.1020821)"/><path d="m7.305025 13.305024h1.389951v1.389951h-1.389951z" stroke-width=".610049"/></g><path d="m15.503272 14.059536-2.028476-2.060608 1.951871-2.1587096-1.407027-1.3371296-2.008743 2.0571232-2.0494537-2.0571232-1.4638986 1.3863117 2.0494543 2.1007345-2.0494543 2.067189 1.4638986 1.439987 2.0470757-2.159981 2.051842 2.159981z" fill="url(#a)" stroke="#b10000" stroke-width="1.000262"/></g></svg>