<svg height="16" width="16" xmlns="http://www.w3.org/2000/svg" xmlns:xlink="http://www.w3.org/1999/xlink"><linearGradient id="a" gradientTransform="matrix(.50256996 0 0 .39304699 93.351608 -16.857632)" gradientUnits="userSpaceOnUse" x1="-162.6788" x2="-162.6788" y1="58.56691" y2="80.030975"><stop offset="0" stop-color="#dbdbdb"/><stop offset="1" stop-color="#acacac"/></linearGradient><linearGradient id="b" gradientTransform="matrix(.89189031 0 0 .94046961 3.144123 5.34654)" gradientUnits="userSpaceOnUse" x1="11.050709" x2="11.050709" y1="2.82142" y2="8.137913"><stop offset="0" stop-color="#fff"/><stop offset=".002736" stop-color="#fff" stop-opacity=".235294"/><stop offset=".99001008" stop-color="#fff" stop-opacity=".156863"/><stop offset="1" stop-color="#fff" stop-opacity=".392157"/></linearGradient><linearGradient id="c" gradientUnits="userSpaceOnUse" x1="8.000143" x2="8.000143" y1="5" y2="7.5"><stop offset="0" stop-color="#f9f9f9"/><stop offset="1" stop-color="#d8d8d8"/></linearGradient><path d="m15.52332 5.5v-2.773333c0-.1385-.1115-.25-.25-.25h-6.75v-.71875c0-.1385-.1115-.25-.25-.25h-6.5c-.1385 0-.25.1115-.25.25v.71875h-.75c-.1385 0-.25.1115-.25.25v2.773333" fill="none" opacity=".5" stroke="#7e8087" stroke-linecap="square" stroke-width=".992"/><path d="m2.000143 2v1h-1v4h14v-4h-7v-1z" fill="url(#c)"/><path d="m.5 6.4999999 15 .0000001v8l-15.0000004-.01115z" fill="url(#a)" stroke="#585f64" stroke-linejoin="round" stroke-opacity=".498039"/><path d="m14.500143 7.5v6l-12.97669-.03878-.02331-5.96122z" fill="none" opacity=".5" stroke="url(#b)" stroke-linecap="round"/></svg>