<svg xmlns="http://www.w3.org/2000/svg" xmlns:xlink="http://www.w3.org/1999/xlink" version="1" width="16" height="16"><defs><linearGradient id="b"><stop offset="0" stop-color="#787878"/><stop offset=".35" stop-color="#bebebe"/><stop offset=".494" stop-color="#c8c8c8"/><stop offset=".589" stop-color="#e6e6e6"/><stop offset="1" stop-color="#8c8c8c"/></linearGradient><linearGradient id="a"><stop offset="0" stop-color="#fff" stop-opacity="0"/><stop offset="1" stop-color="#fff"/></linearGradient><linearGradient x1="15.574" y1="46.971" x2="23.578" y2="46.971" id="k" xlink:href="#a" gradientUnits="userSpaceOnUse" gradientTransform="matrix(.37255 0 0 .33333 -.784 -1.157)" spreadMethod="reflect"/><linearGradient x1="361.106" y1="87.05" x2="361.106" y2="94.396" id="j" xlink:href="#b" gradientUnits="userSpaceOnUse" gradientTransform="matrix(.3672 0 0 .48512 -123.515 -30.342)"/><linearGradient id="d"><stop offset="0" stop-color="#fff"/><stop offset=".02" stop-color="#fff" stop-opacity=".235"/><stop offset=".975" stop-color="#fff" stop-opacity=".157"/><stop offset="1" stop-color="#fff" stop-opacity=".392"/></linearGradient><linearGradient id="e"><stop offset="0" stop-color="#261e2b"/><stop offset="1" stop-color="#352f39"/></linearGradient><linearGradient id="c"><stop offset="0" stop-color="#fff"/><stop offset="1" stop-color="#fff" stop-opacity="0"/></linearGradient><linearGradient id="h"><stop offset="0"/><stop offset="1" stop-opacity="0"/></linearGradient><linearGradient id="g"><stop offset="0" stop-color="#787878"/><stop offset=".35" stop-color="#bebebe"/><stop offset=".494" stop-color="#c8c8c8"/><stop offset=".589" stop-color="#e6e6e6"/><stop offset="1" stop-color="#8c8c8c"/></linearGradient><linearGradient id="f"><stop offset="0" stop-color="#fff"/><stop offset=".063" stop-color="#fff" stop-opacity=".235"/><stop offset=".969" stop-color="#fff" stop-opacity=".157"/><stop offset="1" stop-color="#fff" stop-opacity=".392"/></linearGradient><linearGradient xlink:href="#c" id="n" gradientUnits="userSpaceOnUse" gradientTransform="matrix(.35 0 0 .55556 .65 6.444)" x1="10" y1="-3" x2="20" y2="12"/><linearGradient xlink:href="#d" id="l" gradientUnits="userSpaceOnUse" gradientTransform="matrix(.35135 0 0 .24324 -.432 1.162)" x1="24" y1="7.557" x2="24" y2="40.546"/><linearGradient xlink:href="#e" id="m" gradientUnits="userSpaceOnUse" gradientTransform="matrix(.3 0 0 .34783 1.7 5.783)" x1="15" y1="24.619" x2="15" y2="2"/><linearGradient id="i" gradientTransform="matrix(.54286 0 0 .32593 -.53 4.178)" gradientUnits="userSpaceOnUse" x1="25.132" x2="25.132" y1=".985" y2="47.013"><stop offset="0" stop-color="#f4f4f4"/><stop offset="1" stop-color="#dbdbdb"/></linearGradient></defs><path d="M5.737 11.5s.052 1.827-.208 2.31c-.262.48-.78.486-.78.486-.333.05-.336 1.205 0 1.205h6.5c.336 0 .333-1.154 0-1.204 0 0-.518-.006-.78-.487-.26-.483-.207-2.31-.207-2.31H5.737z" fill="url(#j)" overflow="visible"/><path d="M5.204 14.5h5.592" fill="none" stroke="url(#k)" stroke-linecap="square"/><path d="M5.737 11.5s.052 1.827-.208 2.31c-.262.48-.78.486-.78.486-.333.05-.336 1.205 0 1.205h6.5c.336 0 .333-1.154 0-1.204 0 0-.518-.006-.78-.487-.26-.483-.207-2.31-.207-2.31H5.737z" fill="none" stroke="#000" stroke-width=".998" stroke-linecap="round" stroke-linejoin="round" stroke-dashoffset=".5" overflow="visible" opacity=".4" color="#000"/><rect width="15" height="11" rx=".333" ry=".333" x=".5" y="1.5" fill="#939393" stroke="#000" stroke-linecap="round" stroke-linejoin="round" stroke-dashoffset=".5"/><rect width="13" height="9" rx="0" ry="0" x="1.5" y="2.5" opacity=".2" fill="none" stroke="url(#l)" stroke-linecap="round" stroke-linejoin="round"/><path d="M2 3h12v8H2z" fill="url(#m)"/><path d="M1 2v10h14V2zm1 1h12v8H2z" opacity=".2" fill="#4c4c4c"/><path d="M1 1.917v10.06h14V1.918z" fill="#383838"/><path d="M1 1.917v5.135c.208.09.47.17.756.17.65 0 1.285-.49 2.37-.49 1.085 0 1.9.616 3.27.616 1.368 0 1.675-.89 3.42-.89 1.744 0 1.58.564 2.673.564.75 0 1.072-.245 1.51-.4V1.916z" fill="#484848"/><path d="M10.816 6.13c-1.745 0-2.052.89-3.42.89-1.37 0-2.185-.615-3.27-.615s-1.72.49-2.37.49c-.285 0-.548-.082-.756-.17V7.82c.313.077.718.14 1.2.14 1.232 0 1.057-.385 2.117-.385s1.685.63 3.118.63c1.776 0 2.183-1.016 3.588-1.016 1.097 0 1.18.556 2.386.556.815 0 1.085-.293 1.59-.482v-.97c-.438.155-.76.4-1.51.4-1.094 0-.93-.564-2.674-.564z" fill="#fff"/><path d="M1 2v10l14-7.292V2z" opacity=".2" fill="url(#n)"/></svg>