<svg viewBox="0 0 16 16" xmlns="http://www.w3.org/2000/svg" xmlns:xlink="http://www.w3.org/1999/xlink"><radialGradient id="a" cx="8.501" cy="1.394" gradientTransform="matrix(-3.2069 .23665 -.20113 -2.1372 36.045 1.91)" gradientUnits="userSpaceOnUse" r="5.284"><stop offset="0" stop-color="#737373"/><stop offset=".262" stop-color="#636363"/><stop offset=".705" stop-color="#4b4b4b"/><stop offset="1" stop-color="#3f3f3f"/></radialGradient>/&amp;gt;<path d="m13.31 7.525q0 2.508-1.243 3.855-1.244 1.348-3.566 1.348-2.32 0-3.564-1.348-1.244-1.347-1.244-3.87 0-2.52 1.244-3.848 1.25-1.334 3.58-1.334 2.328 0 3.558 1.34 1.237 1.34 1.237 3.857zm-7.372 0q0 1.693.642 2.55.643.856 1.92.856 2.565 0 2.565-3.405 0-3.414-2.55-3.414-1.278 0-1.928.865-.65.857-.65 2.55z" fill="url(#a)" stroke="#000" stroke-opacity=".548" stroke-width=".949" transform="scale(.94102 1.06268)"/><path d="m3.5.5h9z" fill="none" stroke="#565656" stroke-linecap="round" stroke-linejoin="round"/></svg>