<svg height="16" width="16" xmlns="http://www.w3.org/2000/svg" xmlns:xlink="http://www.w3.org/1999/xlink"><linearGradient id="a" gradientUnits="userSpaceOnUse" x1="-13.933532" x2="-13.933532" y1="11.945973" y2="-.611973"><stop offset="0" stop-color="#232323"/><stop offset=".8" stop-color="#535353"/><stop offset=".8035444" stop-color="#676767"/><stop offset="1" stop-color="#676767"/></linearGradient><linearGradient id="b" gradientTransform="matrix(.58649923 0 0 .74288938 -4.007407 -4.86097)" gradientUnits="userSpaceOnUse" x1="24.010853" x2="24.010853" y1="8.420643" y2="29.842258"><stop offset="0" stop-color="#fff"/><stop offset="0" stop-color="#fff" stop-opacity=".235"/><stop offset="1" stop-color="#fff" stop-opacity=".157"/><stop offset="1" stop-color="#fff" stop-opacity=".392"/></linearGradient><linearGradient id="c" gradientTransform="matrix(.25379 0 0 .30502 19.129 -.68548)" gradientUnits="userSpaceOnUse" x1="-51.786" x2="-51.786" y1="50.786" y2="2.9062"><stop offset="0" stop-opacity=".33951"/><stop offset="1" stop-opacity=".24691"/></linearGradient><linearGradient id="d" gradientTransform="matrix(.24324 0 0 .35135 2.1622 -.43243)" gradientUnits="userSpaceOnUse" x1="24" x2="24" y1="6.9231" y2="41.077"><stop offset="0" stop-color="#fff"/><stop offset="0" stop-color="#fff" stop-opacity=".23529"/><stop offset="1" stop-color="#fff" stop-opacity=".15686"/><stop offset="1" stop-color="#fff" stop-opacity=".39216"/></linearGradient><linearGradient id="e" gradientTransform="matrix(.28571 0 0 .3042 1.1429 .2326)" gradientUnits="userSpaceOnUse" x1="25.132" x2="25.132" y1=".98521" y2="47.013"><stop offset="0" stop-color="#f4f4f4"/><stop offset="1" stop-color="#dbdbdb"/></linearGradient><g transform="translate(-2)"><path d="m3 1c2.2915 0 10 .0008904 10 .0008904v13.999h-10v-14z" fill="url(#e)"/><g fill="none"><path d="m12.5 14.5h-9v-13h9z" stroke="url(#d)" stroke-linecap="round"/><path d="m2.5.49997c2.5207 0 11 .000954 11 .000954l.000013 14.999h-11c0-5 0-10 .0000001-15z" stroke="url(#c)" stroke-linejoin="round" stroke-width=".99992"/></g></g><g transform="matrix(.69122 0 0 .69122 4.036 5.036)"><path d="m3.3431 14.397c.0073.35961.029665.91477.34211.99126 3.3006.01952 6.6179-.01415 9.9189-.0086.34064.01588.35312-.62103.34211-.99966l-10.603.01695z" fill="#505050" stroke="#565656" stroke-linecap="square" stroke-width=".99971"/><g stroke-linecap="round"><path d="m1.547219 3.5053737-.74878923 3.0516695h.34472563c-.28640169.1039232-.49122775.3963012-.49165787.7403124l-.00847686 6.3859014 15.90541433.016953.005651-6.3887263c.000413-.3299687-.186531-.6091018-.454924-.7233587h.282562l-.714882-3.062972z" fill="url(#a)"/><path d="m1.377 6.5169 14.453.015984c.40177.0004443.72577.34771.72523.77962l-.008 6.3873-15.903-.016.00781-6.3875c.00054-.4319.32345-.78.72519-.7796z" fill="none" opacity=".71" stroke="#393939" stroke-linejoin="round" stroke-width="1.4467"/><path d="m11.522 7.1815 2.893092.0000052-.000342 1.4467225-2.893093-.0000051z" fill="#0cceff"/></g><path d="m.79903 6.5559.74747-3.0509 14.12.0196.714 3.0637z" fill="none" opacity=".7" stroke="#393939" stroke-width="1.4467"/><g fill="#e9e9e9"><path d="m13.691733 10.07494-.000239 4.569871c-.000014.27348-.06974.496583-.15625.49364h-4.9070214-4.9075c-.086562 0-.15626-.22016-.15625-.49364l.0002391-4.569871z" stroke-width="1.9872"/><g stroke-width="1.446717"><path d="m3.5803-.76389 10.115-.00956-.0036 5.7848791-10.1149995.0113z" stroke="#8c8c8c" stroke-linejoin="round"/><path d="m12.245016 3.5647117h-7.2495009l.015914-2.89343483h7.2335869z" fill="none" stroke="url(#b)" stroke-linecap="round"/></g></g><path d="m1.3946356 7.1815052h14.4671744v1.4467174h-14.4671744z" fill="#fff" opacity=".2" stroke-width="1.2227"/></g></svg>