<svg height="16" width="16" xmlns="http://www.w3.org/2000/svg" xmlns:xlink="http://www.w3.org/1999/xlink"><radialGradient id="a" cx="24.837126" cy="36.421127" gradientTransform="matrix(-.25568731 0 0 -.17604034 13.353337 18.657486)" gradientUnits="userSpaceOnUse" r="15.644737"><stop offset="0"/><stop offset="1" stop-opacity="0"/></radialGradient><linearGradient id="b" gradientTransform="matrix(.36666672 0 0 .40625004 -1.983334 1.953124)" gradientUnits="userSpaceOnUse" x1="25.5" x2="26" y1="-13.625" y2="-39.125"><stop offset="0" stop-color="#e2b369"/><stop offset="1" stop-color="#c79b55"/></linearGradient><linearGradient id="c" gradientTransform="matrix(.32142842 0 0 .36666664 -.874998 .983332)" gradientUnits="userSpaceOnUse" x1="14.388891" x2="14.388891" y1="-8.840771" y2="-40.204414"><stop offset="0" stop-color="#fff"/><stop offset=".06249999" stop-color="#fff" stop-opacity=".235294"/><stop offset=".96279675" stop-color="#fff" stop-opacity=".156863"/><stop offset="1" stop-color="#fff" stop-opacity=".392157"/></linearGradient><rect display="block" fill="url(#b)" height="13" rx="1" stroke="#8a5b0f" transform="scale(1 -1)" width="11" x="1.5" y="-14.5"/><path d="m2.5-13.499998h9v11h-9z" display="block" fill="none" opacity=".5" stroke="url(#c)" transform="scale(1 -1)"/><path d="m9.5 4.5000017c.97227.04419 1-1 1-1l-1-1 .00007-1s .06876-1.01939512-1-1.00000002l-3 .03108c-1.025884.042393-1.00906 1.00111702-1.00906 1.00111702l.009.967803-1 1s .11613.955805.99999.999999z" display="block" fill="#e9e9e9" stroke="#8c8c8c"/><path d="m5.00398 4.0000027v-2c-.0394-.631556.20798-1.03361502 1-1h2c .46307.07386.94201.11598 1 1v2l-1-2h-2z" fill="#fff"/><path d="m5.4999613 4.499961c2.0623745 0 9.0000667.000712 9.0000667.000712l.000012 10.999366s-6.0000525 0-9.0000787 0c0-3.66669 0-7.333378 0-11.000067z" fill="#e9e9e9" stroke="#8c8c8c" stroke-linejoin="round" stroke-width=".999922"/><path d="m13.5 14.5h-7v-9h7z" fill="none" stroke="#fff" stroke-linecap="round"/><path d="m3.0026383 12.245895a4.0001609 2.7541062 0 1 1 8.0003217 0 4.0001609 2.7541062 0 0 1 -8.0003217 0z" fill="url(#a)" fill-rule="evenodd" opacity=".141176"/><path d="m5.0573681 5.0424649c-3.544709 2.423392-1.415509 7.0715911 2.196386 7.0715911v1.925457l4.9919539-3.598678-4.9919539-3.3649331v2.015261c-2.548269.100091-3.662262-2.357738-1.840507-4.048698z" fill="#9cde4a" stroke="#5ca12a" stroke-linecap="round" stroke-linejoin="round" stroke-width="1.003"/></svg>