<svg height="16" viewBox="0 0 4.2333332 4.2333335" width="16" xmlns="http://www.w3.org/2000/svg" xmlns:xlink="http://www.w3.org/1999/xlink"><linearGradient id="a" gradientTransform="matrix(-.61157583 0 0 .6008607 15.029159 1.388771)" gradientUnits="userSpaceOnUse" x1="12" x2="12" y1="4" y2="19.998161"><stop offset="0" stop-color="#9bdb4d"/><stop offset="1" stop-color="#68b723"/></linearGradient><linearGradient id="b" gradientTransform="matrix(.52743574 0 0 .33333554 8.345857 -1.557295)" gradientUnits="userSpaceOnUse" x1="5.03216" x2="5.03216" y1="28.671694" y2="29.671688"><stop offset="0" stop-color="#fff"/><stop offset=".00000019" stop-color="#fff" stop-opacity=".235294"/><stop offset="1" stop-color="#fff" stop-opacity=".392157"/></linearGradient><linearGradient id="c" gradientTransform="matrix(.61441293 0 0 .61115825 8.389034 -9.305476)" gradientUnits="userSpaceOnUse" x1="-2.521394" x2="-2.521394" y1="22.402153" y2="35.268829"><stop offset="0" stop-color="#fff"/><stop offset=".51999998" stop-color="#fff" stop-opacity=".235294"/><stop offset=".51999998" stop-color="#fff" stop-opacity=".156863"/><stop offset="1" stop-color="#fff" stop-opacity=".392157"/></linearGradient><linearGradient id="d" gradientTransform="matrix(-.00071707 .13232963 -.1355213 -.00073465 -8.366433 -4.342483)" gradientUnits="userSpaceOnUse" x1="33.891682" x2="151.63832" y1="-119.68561" y2="-121.81685"><stop offset="0" stop-color="#fff394"/><stop offset=".262" stop-color="#ffe16b"/><stop offset=".661" stop-color="#f9c440"/><stop offset="1" stop-color="#d48e15"/></linearGradient><linearGradient id="e" gradientUnits="userSpaceOnUse" x1="8" x2="8" y1="2" y2="10"><stop offset="0" stop-color="#fff"/><stop offset=".25544232" stop-color="#fff" stop-opacity=".235294"/><stop offset="1" stop-color="#fff" stop-opacity=".156863"/><stop offset="1" stop-color="#fff" stop-opacity=".392157"/></linearGradient><g stroke-linecap="round" stroke-opacity=".501961" transform="scale(.26458333)"><path d="m2.5.5c-1.1080002 0-2 .8919999-2 2v7c0 1.108.8919998 2 2 2h1.8007812l-.8007812 4 4.0000001-4h5.9999999c1.108 0 2-.892 2-2v-7c0-1.1080001-.892-2-2-2z" fill="url(#d)" stroke="#ad5f00" stroke-linejoin="round"/><path d="m2.5 1.5c-.5712976 0-1 .4287025-1 1v7c0 .571297.4287025 1 1 1h1.8007812c.6315369.000002 1.104974.578124.9804688 1.197266l-.1523438.759765 1.6640626-1.664062c.1875117-.187536.4418322-.292918.7070312-.292969h6c.571297 0 1-.428703 1-1v-7c0-.5712974-.428703-1-1-1z" fill="none" stroke="url(#e)" stroke-linecap="square"/></g><g transform="matrix(.26458333 0 0 .26458333 .529167 .79375)"><path d="m7.1774891 3.50781c-.1845764 0-.1776546.076034-.2412856.103267l-4.347816 4.1806129c-.05559.054667-.08839.128648-.08839.2100663 0 .080838.03281.1507369.08839.2088935l4.3478193 4.1962383c.059439.06222.1419743.100925.2412857.100925.1845228 0 .3225109-.129479.3225109-.30395v-2.3964022c-.000116-.1628379.1454002-.2989986.323705-.299258l5.3705026-.00781c.174818-.0002568.305788-.1286773.305788-.3004327v-2.4034435c0-.1717556-.13097-.3006833-.305788-.3004304l-5.4003677.00781c-.1636804-.0150253-.2939521-.1448458-.2938433-.2980791v-2.397575c0-.1744694-.1379879-.3004321-.3225109-.3004321z" fill="url(#a)" stroke="#206b00" stroke-linecap="round" stroke-linejoin="round" stroke-opacity=".5"/><g fill="none"><path d="m7.4999965 8.500002h5.0000015v-1.000004h-5.0000015" opacity=".6" stroke="url(#b)"/><path d="m7.4999965 8.5224087c-.5059188.0001637-.9998361.545123-1 1.0506969v.9807024l-2.673407-2.553808 2.673407-2.6061903v.9752625c.0001639.5055734.4940812 1.1066704 1 1.1068342" opacity=".5" stroke="url(#c)" stroke-width=".999996"/></g></g></svg>