<?xml version="1.0" encoding="UTF-8" standalone="no"?>
<svg xmlns:rdf="http://www.w3.org/1999/02/22-rdf-syntax-ns#" xmlns="http://www.w3.org/2000/svg" height="16" width="16" version="1.1" xmlns:cc="http://creativecommons.org/ns#" xmlns:xlink="http://www.w3.org/1999/xlink" xmlns:dc="http://purl.org/dc/elements/1.1/">
 <defs>
  <linearGradient id="linearGradient3069" y2="40.444" gradientUnits="userSpaceOnUse" x2="24" gradientTransform="matrix(.18919 0 0 .24324 5.4592 4.1622)" y1="7.5555" x1="24">
   <stop stop-color="#fff" offset="0"/>
   <stop stop-color="#fff" stop-opacity=".23529" offset="0"/>
   <stop stop-color="#fff" stop-opacity=".15686" offset="1"/>
   <stop stop-color="#fff" stop-opacity=".39216" offset="1"/>
  </linearGradient>
  <linearGradient id="linearGradient3072" y2="47.013" gradientUnits="userSpaceOnUse" x2="25.132" gradientTransform="matrix(.25714 0 0 .23901 3.8285 3.897)" y1=".98521" x1="25.132">
   <stop stop-color="#f4f4f4" offset="0"/>
   <stop stop-color="#dbdbdb" offset="1"/>
  </linearGradient>
  <linearGradient id="linearGradient5021" y2="-39.125" gradientUnits="userSpaceOnUse" y1="-13.625" gradientTransform="matrix(.36667 0 0 .40625 -1.9833 1.9531)" x2="26" x1="25.5">
   <stop stop-color="#e2b369" offset="0"/>
   <stop stop-color="#c79b55" offset="1"/>
  </linearGradient>
  <linearGradient id="linearGradient5025" y2="-40.204" gradientUnits="userSpaceOnUse" y1="-8.8408" gradientTransform="matrix(.32143 0 0 .36667 -0.875 .98333)" x2="14.389" x1="14.389">
   <stop stop-color="#fff" offset="0"/>
   <stop stop-color="#fff" stop-opacity=".23529" offset="0.0625"/>
   <stop stop-color="#fff" stop-opacity=".15686" offset=".96280"/>
   <stop stop-color="#fff" stop-opacity=".39216" offset="1"/>
  </linearGradient>
  <linearGradient id="linearGradient4997" y2="14" gradientUnits="userSpaceOnUse" y1="4" gradientTransform="translate(-16 -6)" x2="25" x1="25">
   <stop stop-color="#fff" offset="0"/>
   <stop stop-color="#ddd" offset=".065624"/>
   <stop stop-color="#abacae" offset=".66094"/>
   <stop stop-color="#89898b" offset="1"/>
  </linearGradient>
  <linearGradient id="linearGradient5001" y2="8" gradientUnits="userSpaceOnUse" y1="3.998" gradientTransform="translate(-14.996 -4)" x2="24.498" x1="24.498">
   <stop stop-color="#fff" offset="0"/>
   <stop stop-color="#fff" stop-opacity="0" offset="1"/>
  </linearGradient>
 </defs>
 <metadata>
  <rdf:RDF>
   <cc:Work rdf:about="">
    <dc:format>image/svg+xml</dc:format>
    <dc:type rdf:resource="http://purl.org/dc/dcmitype/StillImage"/>
    <dc:title/>
   </cc:Work>
  </rdf:RDF>
 </metadata>
 <g>
  <rect transform="scale(1,-1)" stroke="#66430b" fill="url(#linearGradient5021)" style="color:#000000" rx="1" ry="1" width="11" height="13" stroke-opacity=".49804" y="-14.5" x="1.5" display="block"/>
  <rect opacity=".5" style="color:#000000" display="block" transform="scale(1,-1)" height="11" width="9" stroke="url(#linearGradient5025)" y="-13.5" x="2.5" fill="none"/>
  <path style="color:#000000" d="m9.5 4.5c0.97227 0.04419 1-1 1-1l-1-1 0.00007-1s0.06876-1.0194-1-1l-3 0.03108c-1.0259 0.04239-1.0091 1.0011-1.0091 1.0011l0.009 0.9678-1 1s0.11613 0.9558 0.99999 1z" stroke-opacity=".34510" display="block" stroke="#000" fill="url(#linearGradient4997)"/>
 </g>
 <path style="color:#000000" d="m5.004 4v-2c-0.0394-0.63156 0.20798-1.0336 1-1h2c0.46307 0.07386 0.94201 0.11598 1 1v2l-1-2h-2z" fill="url(#linearGradient5001)"/>
 <path opacity=".1" d="m4.5071 4.5h5" stroke="#fff" stroke-linecap="round" stroke-width="1px" fill="none"/>
 <g>
  <path stroke-linejoin="round" d="m3.4979 4.5058c2.0624 0 11.985 0.062693 11.985 0.062693l0.000012 10.999-11.985-0.06198v-11z" stroke-opacity=".34510" stroke="#000" stroke-width=".99992" fill="url(#linearGradient3072)"/>
  <path d="m14.441 14.542-9.9431-0.036v-9.0002l9.9427 0.036557z" stroke="url(#linearGradient3069)" stroke-linecap="round" fill="none"/>
  <g aria-label="?" stroke-opacity=".44485" stroke="#a62100" fill="#ffc27d">
   <path d="m8.839 11.69v-0.20533q0-0.31632 0.038847-0.5716 0.044396-0.25528 0.14984-0.47726 0.11099-0.22198 0.29413-0.43286 0.18313-0.21643 0.46061-0.44951 0.26638-0.22753 0.45506-0.41067 0.18868-0.18868 0.30522-0.37737 0.12209-0.19423 0.17759-0.41067 0.06105-0.22198 0.06105-0.51611 0-0.26638-0.08324-0.48281-0.08324-0.22198-0.24418-0.37737-0.155-0.1613-0.394-0.2445-0.2331-0.0888-0.5439-0.0888-0.46061 0-0.87683 0.14429-0.4163 0.1443-0.8047 0.3329l-0.3496-0.8046q0.44951-0.23308 0.97117-0.39402 0.52166-0.16649 1.06-0.16649 0.51611 0 0.92677 0.14429 0.41622 0.13874 0.70479 0.40512 0.28858 0.26638 0.44396 0.65485 0.15539 0.38292 0.15539 0.86573 0 0.37182-0.07769 0.66595-0.07214 0.28858-0.22198 0.53831t-0.37182 0.48281-0.52166 0.49391q-0.28858 0.24973-0.47171 0.43841-0.18313 0.18314-0.28858 0.36072-0.10544 0.17204-0.14429 0.35517-0.038847 0.18314-0.038847 0.42732v0.09989zm-0.26638 1.6815q0-0.21088 0.055495-0.35517 0.055495-0.14984 0.14984-0.23863 0.094342-0.09434 0.22198-0.13319 0.12764-0.0444 0.27748-0.0444 0.14429 0 0.27193 0.0444 0.13319 0.03885 0.22753 0.13319 0.094342 0.08879 0.14984 0.23863 0.055495 0.14429 0.055495 0.35517 0 0.20533-0.055495 0.35517-0.055495 0.14429-0.14984 0.23863-0.094342 0.09434-0.22753 0.13874-0.12764 0.0444-0.27193 0.0444-0.14984 0-0.27748-0.0444t-0.22198-0.13874q-0.094342-0.09434-0.14984-0.23863-0.055495-0.14984-0.055495-0.35517z" stroke-opacity=".44485" stroke="#a62100" fill="#ffc27d"/>
  </g>
 </g>
</svg>
