<svg xmlns="http://www.w3.org/2000/svg" xmlns:xlink="http://www.w3.org/1999/xlink" height="16" width="16"><defs><linearGradient id="a" y2="53.91" gradientUnits="userSpaceOnUse" x2="129.59" gradientTransform="translate(-156.543 -46.61) scale(1.0683)" y1="37.031" x1="129.58"><stop offset="0" stop-color="#f8b17e"/><stop offset=".42" stop-color="#e35d4f"/><stop offset=".725" stop-color="#c6262e"/><stop offset="1" stop-color="#690b54"/></linearGradient><linearGradient id="b" y2="35.275" gradientUnits="userSpaceOnUse" x2="132.34" gradientTransform="translate(-156.543 -46.61) scale(1.0683)" y1="52.008" x1="132.4"><stop offset="0" stop-color="#791235"/><stop offset="1" stop-color="#dd3b27"/></linearGradient><radialGradient xlink:href="#a" id="c" cx="8.022" cy="3.502" fx="8.022" fy="3.502" r="7.5" gradientUnits="userSpaceOnUse" gradientTransform="matrix(.0814 1.815 -1.9452 .0872 14.182 -11.363)"/><linearGradient xlink:href="#b" id="d" x1="8.341" y1="16.437" x2="8" y2=".5" gradientUnits="userSpaceOnUse"/></defs><linearGradient id="e" gradientUnits="userSpaceOnUse" x1="7.814" x2="7.814" y1="1.282" y2="14.67"><stop offset="0" stop-color="#fff"/><stop offset=".508" stop-color="#fff" stop-opacity=".235"/><stop offset=".835" stop-color="#fff" stop-opacity=".157"/><stop offset="1" stop-color="#fff" stop-opacity=".392"/></linearGradient><path d="M8 .5C3.862.5.5 3.862.5 8s3.362 7.5 7.5 7.5 7.5-3.362 7.5-7.5S12.138.5 8 .5z" fill="url(#c)" opacity=".99"/><path d="M8 .5C3.862.5.5 3.862.5 8s3.362 7.5 7.5 7.5 7.5-3.362 7.5-7.5S12.138.5 8 .5z" stroke-linejoin="round" stroke-linecap="round" stroke="url(#d)" fill="none"/><path d="M14.5 8c0 3.59-2.91 6.5-6.5 6.5S1.5 11.59 1.5 8 4.41 1.5 8 1.5s6.5 2.91 6.5 6.5z" fill="none" opacity=".4" stroke="url(#e)" stroke-linecap="round" stroke-linejoin="round"/><path d="M5.61 4.418c-3.966 2.112-2.173 8.165 2.36 8.165 4.484 0 6.494-5.74 2.36-8.165" fill="none" stroke="#c6272f" stroke-width="2.835" stroke-linecap="round"/><path d="M5.61 4.396c-4.044 2.133-2.216 8.246 2.407 8.246 4.575 0 6.625-5.795 2.408-8.246" fill="none" stroke="#fafafa" stroke-width="1.552" stroke-linecap="round" stroke-miterlimit="0"/><path d="M8.023 6.956V3.444" fill="none" stroke="#c6272f" stroke-width="2.889" stroke-linecap="round" stroke-miterlimit="0"/><path d="M8.022 6.898V3.502" fill="none" stroke="#fafafa" stroke-width="1.805" stroke-linecap="round" stroke-miterlimit="0"/></svg>