<svg height="16" width="16" xmlns="http://www.w3.org/2000/svg" xmlns:xlink="http://www.w3.org/1999/xlink"><linearGradient id="a" gradientTransform="matrix(.31428463 0 0 .32594469 .457175 -.323148)" gradientUnits="userSpaceOnUse" x1="25.132275" x2="25.132275" y1=".985206" y2="47.013336"><stop offset="0" stop-color="#f4f4f4"/><stop offset="1" stop-color="#dbdbdb"/></linearGradient><linearGradient id="b" gradientTransform="matrix(.24324324 0 0 .35135133 2.162164 -.432428)" gradientUnits="userSpaceOnUse" x1="23.99999" x2="23.99999" y1="6.923065" y2="41.076912"><stop offset="0" stop-color="#fff"/><stop offset="0" stop-color="#fff" stop-opacity=".235294"/><stop offset="1" stop-color="#fff" stop-opacity=".156863"/><stop offset="1" stop-color="#fff" stop-opacity=".392157"/></linearGradient><linearGradient id="c" gradientTransform="matrix(.25378586 0 0 .30501865 19.128979 -.685477)" gradientUnits="userSpaceOnUse" x1="-51.786404" x2="-51.786404" y1="50.786446" y2="2.906247"><stop offset="0" stop-opacity=".339506"/><stop offset="1" stop-opacity=".246914"/></linearGradient><linearGradient id="d" gradientUnits="userSpaceOnUse" x1="8.517958" x2="8.521604" y1="13.016949" y2="5.440678"><stop offset="0" stop-color="#fff"/><stop offset="1" stop-color="#fff" stop-opacity="0"/></linearGradient><radialGradient id="e" cx="11.25" cy="19.031" gradientTransform="matrix(.46752116 0 0 .11024138 7.431594 13.179172)" gradientUnits="userSpaceOnUse" r="8.063"><stop offset="0"/><stop offset="1" stop-opacity="0"/></radialGradient><linearGradient id="f" gradientTransform="matrix(0 1 1 0 2.746 -15.478)" gradientUnits="userSpaceOnUse" x1="4.715" x2="43.601" y1="22.595" y2="22.595"><stop offset="0" stop-color="#d1ff82"/><stop offset="1" stop-color="#68b723"/></linearGradient><linearGradient id="g" gradientTransform="matrix(-1.00464 0 0 1 53.79 -17.47)" gradientUnits="userSpaceOnUse" x1="34.883" x2="34.883" y1="12.992" y2="37.992"><stop offset="0" stop-color="#fff"/><stop offset=".52" stop-color="#fff" stop-opacity=".235"/><stop offset=".52" stop-color="#fff" stop-opacity=".157"/><stop offset="1" stop-color="#fff" stop-opacity=".392"/></linearGradient><g transform="translate(1)"><path d="m2.500012.4991096c2.5206554 0 10.999975.00095406 10.999975.00095406l.000013 14.99993634s-7.3333255 0-10.999988 0c0-5.000296 0-10.000594 0-15.0008904z" fill="url(#a)" stroke-width="1.085652"/><g fill="none"><path d="m12.5 14.5h-9.0000001v-13h9.0000001z" stroke="url(#b)" stroke-linecap="round"/><path d="m2.4999621.49997396c2.5206756 0 11.0000629.000954 11.0000629.000954l.000013 14.99909804s-7.3333841 0-11.000076 0c0-5.000017 0-10.000035.0000001-15.00005204z" stroke="url(#c)" stroke-linejoin="round" stroke-width=".999922"/><g stroke-linecap="round"><path d="m10.677391 9.5000009-2.677391 3.4999991-2.6773921-3.4999991h2.1773921v-4.0000005h1v4.0000005z" opacity=".6" stroke="url(#d)"/><path d="m10.677391 8.5-2.677391 3.5-2.6773921-3.5h2.1773921v-4h1v4z" fill="#7e8087" stroke="#797b7e"/></g></g></g><g transform="translate(-9.015 -5.756)"><path d="m16.221276 15.254754c0 1.1852-7.2993362 1.208015-7.2993362.02281 0-1.1852 7.2993362-1.207719 7.2993362-.02281z" fill="url(#e)" opacity=".163" stroke-width=".230617"/><path d="m25.153561-5.2379345 15.763439 13.7279345-15.742 13.604z" fill="url(#f)" transform="matrix(.2963 0 0 .2963 3.062 8.308)"/><g fill="none"><path d="m10.515 6.8777254 4.67 3.9462746-4.67 3.932z" opacity=".5" stroke="#206b00" stroke-width="1.000013"/><path d="m28.477894 2.3354708-.052 3.998.062 4.9118932-.01 3.807 7.226568-6.5939333z" fill="none" stroke="url(#g)" stroke-width="3.374958" transform="matrix(.2963 0 0 .2963 3.062 8.308)"/></g></g></svg>