<svg viewBox="0 0 16 16" xmlns="http://www.w3.org/2000/svg" xmlns:xlink="http://www.w3.org/1999/xlink"><linearGradient id="a" gradientTransform="matrix(.51817 0 0 .361 -1079.953 -1160.217)" gradientUnits="userSpaceOnUse" x1="2100.5779" x2="2100.5779" y1="3215.147" y2="3256.79"><stop offset="0" stop-color="#64baff"/><stop offset="1" stop-color="#3689e6"/></linearGradient><linearGradient id="b" gradientTransform="matrix(.29115 0 0 .32302 2.122 -5.26)" gradientUnits="userSpaceOnUse" x1="29.556" x2="26.135" y1="28.447001" y2="34.106998"><stop offset="0" stop-color="#fff"/><stop offset=".004" stop-color="#fff" stop-opacity=".235"/><stop offset=".539" stop-color="#fff" stop-opacity=".157"/><stop offset="1" stop-color="#fff" stop-opacity=".392"/></linearGradient><linearGradient id="c" gradientTransform="matrix(.49412 0 0 .49434 11.832 -6.382)" gradientUnits="userSpaceOnUse" x1="-3.707" x2="-3.707" y1="39.159" y2="23.025"><stop offset="0" stop-color="#fff"/><stop offset=".373" stop-color="#fff" stop-opacity=".235"/><stop offset=".75" stop-color="#fff" stop-opacity=".157"/><stop offset="1" stop-color="#fff" stop-opacity=".392"/></linearGradient><linearGradient id="d" gradientUnits="userSpaceOnUse" x1="8.848872" x2="8.848872" y1="3.921802" y2="14.075938"><stop offset="0" stop-color="#fff"/><stop offset=".5" stop-color="#fff" stop-opacity=".235"/><stop offset=".75" stop-color="#fff" stop-opacity=".157"/><stop offset="1" stop-color="#fff" stop-opacity=".392"/></linearGradient><linearGradient id="e" gradientUnits="userSpaceOnUse" x1="9.993272" x2="9.993272" xlink:href="#i" y1="2" y2="5"/><linearGradient id="f" gradientUnits="userSpaceOnUse" x1="3.5" x2="3.5" xlink:href="#i" y1="2" y2="5"/><linearGradient id="g" gradientTransform="matrix(0 1 -1 0 16 4)" gradientUnits="userSpaceOnUse" x1="2" x2="10" xlink:href="#i" y1="13.5" y2="13.5"/><linearGradient id="h" gradientTransform="matrix(0 .35135134 -.24324327 0 4.837837 1.567566)" gradientUnits="userSpaceOnUse" x1="5.500005" x2="8.346159" xlink:href="#k" y1="5.499996" y2="5.499996"/><linearGradient id="i" gradientUnits="userSpaceOnUse" x1="6.5" x2="6.5" y1="11" y2="14"><stop offset="0" stop-color="#9bdb4d"/><stop offset="1" stop-color="#68b723"/></linearGradient><linearGradient id="j" gradientTransform="matrix(.35135134 0 0 .24324327 1.560838 2.162163)" gradientUnits="userSpaceOnUse" x1="24.000006" x2="24.000006" xlink:href="#k" y1="5.499996" y2="7.555551"/><linearGradient id="k"><stop offset="0" stop-color="#fff"/><stop offset="0" stop-color="#fff" stop-opacity=".235294"/><stop offset="1" stop-color="#fff" stop-opacity=".156863"/><stop offset="1" stop-color="#fff" stop-opacity=".392157"/></linearGradient><linearGradient id="l" gradientTransform="matrix(0 .35135134 -.24324327 0 4.837837 5.567566)" gradientUnits="userSpaceOnUse" x1="6.923081" x2="19.730774" xlink:href="#k" y1="5.499996" y2="5.499996"/><linearGradient id="m" gradientTransform="matrix(.35135134 0 0 .24324327 -.432434 .162163)" gradientUnits="userSpaceOnUse" x1="24.000006" x2="24.000006" xlink:href="#k" y1="7.555551" y2="56.888878"/><linearGradient id="n" gradientTransform="matrix(.25378586 0 0 .30501865 44.128979 -8.143104)" gradientUnits="userSpaceOnUse" x1="-158.4903" x2="-154.21603" y1="75.568459" y2="33.451473"><stop offset="0" stop-opacity=".339506"/><stop offset="1" stop-opacity=".246914"/></linearGradient><linearGradient id="o" gradientTransform="matrix(.28571361 0 0 .30419701 20.142873 -5.767395)" gradientUnits="userSpaceOnUse" x1="9.301924" x2="9.301924" y1="23.378263" y2="70.842506"><stop offset="0" stop-color="#f4f4f4"/><stop offset="1" stop-color="#dbdbdb"/></linearGradient><g stroke-linecap="round" stroke-linejoin="round"><rect fill="url(#o)" height="15.000051" rx=".218243" ry=".372828" stroke="url(#n)" stroke-width=".999899" width="15.00005" x=".5" y=".5"/><g stroke="#206b00" stroke-opacity=".501961"><path d="m4.5 6.5v7h-2v-7z" fill="url(#g)" stroke-linecap="square" stroke-linejoin="miter"/><path d="m2.5 2.5h2v2h-2z" fill="url(#f)"/><path d="m6.493272 2.5h7.006728v2h-7.006728z" fill="url(#e)" stroke-linecap="square" stroke-linejoin="miter"/></g><g fill="none"><path d="m7 3.5h6z" opacity=".3" stroke="url(#j)" stroke-linecap="square" stroke-linejoin="miter"/><path d="m3.5 7v6z" opacity=".3" stroke="url(#l)" stroke-linecap="square" stroke-linejoin="miter"/><path d="m1.5 14.5v-13h13v13z" stroke="url(#m)"/><path d="m3.5 3v1z" opacity=".3" stroke="url(#h)" stroke-linecap="square" stroke-linejoin="miter"/></g><g transform="matrix(.63 0 0 .63 5.145 5.4124)"><path d="m8.5.5v2.02a6.5 6.5 0 0 0 -.5-.02 6.5 6.5 0 0 0 -6.5 6.5 6.5 6.5 0 0 0 6.5 6.5 6.5 6.5 0 0 0 6.48-6h-3.02a3.5 3.5 0 0 1 -3.46 3 3.5 3.5 0 0 1 -3.5-3.5 3.5 3.5 0 0 1 3.5-3.5 3.5 3.5 0 0 1 .5.04v1.96l5-3.5z" fill="url(#a)" opacity=".99"/><g fill="none"><g stroke-width="1.584"><path d="m8.5.5v2.02a6.5 6.5 0 0 0 -.5-.02 6.5 6.5 0 0 0 -6.5 6.5 6.5 6.5 0 0 0 6.5 6.5 6.5 6.5 0 0 0 6.48-6h-3.02a3.5 3.5 0 0 1 -3.46 3 3.5 3.5 0 0 1 -3.5-3.5 3.5 3.5 0 0 1 3.5-3.5 3.5 3.5 0 0 1 .5.04v1.96l5-3.5z" opacity=".5" stroke="#002e99" stroke-linecap="round" stroke-linejoin="round"/><path d="m9.496 5.578v-3.13l2.222 1.56z" opacity=".5" stroke="url(#b)"/><path d="m12.32 10.176a4.49 4.49 0 0 1 -5.392 3.202 4.49 4.49 0 0 1 -3.33-5.315 4.49 4.49 0 0 1 5.232-3.458" opacity=".5" stroke="url(#c)"/></g><ellipse cx="8" cy="9.212" opacity=".99" rx="4" ry="2.472"/><path d="m13.386 10.154a5.506 5.504 0 0 1 -6.446 4.246 5.506 5.504 0 0 1 -4.357-6.372 5.506 5.504 0 0 1 6.3-4.46" opacity=".5" stroke="url(#d)" stroke-width="1.584"/></g></g></g></svg>