<svg height="16" width="16" xmlns="http://www.w3.org/2000/svg" xmlns:xlink="http://www.w3.org/1999/xlink"><linearGradient id="a" gradientUnits="userSpaceOnUse" x1="7.889" x2="7.889" xlink:href="#f" y1=".506" y2="2.561"/><linearGradient id="b" gradientTransform="matrix(0 -.36364 -.36307 0 20.905 21.41)" gradientUnits="userSpaceOnUse" x1="46.301" x2="24.453" xlink:href="#e" y1="24.282" y2="24.282"/><linearGradient id="c" gradientTransform="matrix(.32595 0 0 .35064 2.1 -11.43)" gradientUnits="userSpaceOnUse" x1="30.418776" x2="30.418776" y1="61.116814" y2="48.283138"><stop offset="0" stop-color="#fff"/><stop offset=".24976155" stop-color="#fff" stop-opacity=".235"/><stop offset="1" stop-color="#fff" stop-opacity=".157"/><stop offset="1" stop-color="#fff" stop-opacity=".392"/></linearGradient><linearGradient id="d" gradientTransform="matrix(.32595 0 0 .35064 2.1 -11.43)" gradientUnits="userSpaceOnUse" x1="32.095" x2="32.095" y1="49.712" y2="61.119"><stop offset="0" stop-color="#fff"/><stop offset="0" stop-color="#fff" stop-opacity=".235"/><stop offset="1" stop-color="#fff" stop-opacity=".157"/><stop offset="1" stop-color="#fff" stop-opacity=".392"/></linearGradient><linearGradient id="e" gradientTransform="matrix(0 -.36364 -.36307 0 20.905 21.41)" gradientUnits="userSpaceOnUse" x1="46.301" x2="24.453" y1="24.282" y2="24.282"><stop offset="0" stop-color="#ffa154"/><stop offset="1" stop-color="#f37329"/></linearGradient><linearGradient id="f" gradientUnits="userSpaceOnUse" x1="7.889" x2="7.889" y1="12.506" y2="14.561"><stop offset="0" stop-color="#cd9ef7"/><stop offset="1" stop-color="#a56de2"/></linearGradient><path d="m.5.5h15v2h-15z" fill="url(#a)" stroke="#7239b3" stroke-linecap="round" stroke-linejoin="round" stroke-opacity=".75"/><path d="m.5 12.5h15v2h-15z" fill="url(#f)" stroke="#7239b3" stroke-linecap="round" stroke-linejoin="round" stroke-opacity=".75"/><path d="m8.567 8.5 3.446 4 3.452-4h-1.95v-4h-3v4z" display="block" fill="url(#e)"/><path d="m8.567 8.5 3.446 4 3.452-4h-1.95v-4h-3v4z" fill="none" opacity=".5" stroke="#a62100" stroke-linejoin="round"/><path d="m10.717 9.5 1.283 1.5 1.317-1.5h-.8v-4h-1v4z" style="display:block;opacity:.401;fill:none;stroke-width:.964;stroke-miterlimit:7;stroke:url(#d)"/><g transform="matrix(1 0 0 -1 -8.015 15)"><path d="m8.567 8.5 3.446 4 3.452-4h-1.95v-4h-3v4z" display="block" fill="url(#b)"/><g fill="none"><path d="m8.567 8.5 3.446 4 3.452-4h-1.95v-4h-3v4z" opacity=".5" stroke="#a62100" stroke-linejoin="round"/><path d="m10.717 9.5 1.283 1.5 1.317-1.5h-.8v-4h-1v4z" display="block" opacity=".401" stroke="url(#c)" stroke-miterlimit="7" stroke-width=".964"/></g></g></svg>