<svg viewBox="0 0 16 16" xmlns="http://www.w3.org/2000/svg" xmlns:xlink="http://www.w3.org/1999/xlink"><linearGradient id="a" gradientTransform="matrix(.59436 0 0 .5999 -19.265 1.967)" gradientUnits="userSpaceOnUse" x1="25.132" x2="25.132" y1="15.5" y2="48.396"><stop offset="0" stop-color="#fafafa"/><stop offset="1" stop-color="#e2e1de"/></linearGradient><g transform="translate(0 -2)"><rect fill="url(#a)" height="3" rx=".424" ry=".491" width="14.004" x="1" y="8"/><path d="m4.5019531 5.0019531c-.276 0-.5.224-.5.5v3.9960938c0 .276.224.5.5.5h10.9999999c.276 0 .5-.224.5-.5.002-5.004 0 1.0029061 0-3.9960938 0-.276-.224-.5-.5-.5zm.4980469.9980469h5v3h-5zm6 0h4l.0039 3h-4.0039v-1h.002v-1.9980469h-.002zm4.001953 0h.002c0 1.167.000047.583-.002 0z" fill-opacity=".317647" transform="translate(0 2)"/></g><g fill="none" stroke="#cc3b02" transform="matrix(0 1 -1 0 16 0)"><path d="m5.5 13.5v2" stroke-linecap="square" stroke-linejoin="round"/><path d="m9.5 13.5v2" stroke-linecap="square" stroke-linejoin="round"/><path d="m6 14.5h3"/></g></svg>