<svg viewBox="0 0 16 16" xmlns="http://www.w3.org/2000/svg" xmlns:xlink="http://www.w3.org/1999/xlink"><linearGradient id="a" gradientTransform="matrix(.416 -.417 .52 .515 -15.747 2.65)" gradientUnits="userSpaceOnUse" x1="23.576" x2="23.576" y1="25.357" y2="31.211"><stop offset="0" stop-color="#181818"/><stop offset=".135" stop-color="#dbdbdb"/><stop offset=".202" stop-color="#a4a4a4"/><stop offset=".27" stop-color="#fff"/><stop offset=".447" stop-color="#8d8d8d"/><stop offset=".571" stop-color="#959595"/><stop offset=".72" stop-color="#cecece"/><stop offset="1" stop-color="#181818"/></linearGradient><linearGradient id="b" gradientTransform="matrix(.404 -.406 .607 .602 -17.868 .693)" gradientUnits="userSpaceOnUse" x1="30.038" x2="30.038" xlink:href="#c" y1="24.99" y2="30"/><linearGradient id="c"><stop offset="0" stop-color="#565656"/><stop offset=".5" stop-color="#9a9a9a"/><stop offset="1" stop-color="#545454"/></linearGradient><linearGradient id="d" gradientTransform="matrix(.404 -.406 .607 .602 -17.983 .81)" gradientUnits="userSpaceOnUse" x1="30.038" x2="30.038" xlink:href="#e" y1="24.99" y2="30"/><linearGradient id="e"><stop offset="0" stop-color="#b1b1b1"/><stop offset=".5" stop-color="#fff"/><stop offset="1" stop-color="#8f8f8f"/></linearGradient><linearGradient id="f" gradientTransform="matrix(.404 -.406 .607 .602 -17.466 .29)" gradientUnits="userSpaceOnUse" x1="30.038" x2="30.038" xlink:href="#c" y1="24.99" y2="30"/><linearGradient id="g" gradientTransform="matrix(.404 -.406 .607 .602 -17.58 .405)" gradientUnits="userSpaceOnUse" x1="30.038" x2="30.038" xlink:href="#e" y1="24.99" y2="30"/><linearGradient id="h" gradientTransform="matrix(.404 -.406 .607 .602 -17.062 -.116)" gradientUnits="userSpaceOnUse" x1="30.038" x2="30.038" xlink:href="#c" y1="24.99" y2="30"/><linearGradient id="i" gradientTransform="matrix(.404 -.406 .607 .602 -17.177 0)" gradientUnits="userSpaceOnUse" x1="30.038" x2="30.038" xlink:href="#e" y1="24.99" y2="30"/><linearGradient id="j" gradientTransform="matrix(.404 -.406 .607 .602 -17.637 .462)" gradientUnits="userSpaceOnUse" x1="9" x2="9" y1="29.057" y2="26.03"><stop offset="0" stop-color="#ece5a5"/><stop offset="1" stop-color="#fcfbf2"/></linearGradient><linearGradient id="k" gradientTransform="matrix(.376 .036 .037 .375 -2.218 -1.133)" gradientUnits="userSpaceOnUse" x1="5.518" x2="9.522" y1="37.372" y2="41.392"><stop offset="0" stop-color="#dbce48"/><stop offset="1" stop-color="#c5b625"/></linearGradient><linearGradient id="l" gradientTransform="matrix(.195 0 0 .18 50.002 -.89)" gradientUnits="userSpaceOnUse" x1="-172.653" x2="-164.718" y1="99.667" y2="91.973"><stop offset="0" stop-color="#242424" stop-opacity=".992"/><stop offset="1" stop-color="#656565"/></linearGradient><linearGradient id="m" gradientTransform="matrix(.502 0 0 .462 -.38 1.903)" gradientUnits="userSpaceOnUse" x1="32.893" x2="31.364" y1="27.988" y2="29.484"><stop offset="0" stop-color="#575757"/><stop offset="1" stop-color="#333"/></linearGradient><linearGradient id="n" gradientTransform="matrix(.195 0 0 .18 -25.223 .847)" gradientUnits="userSpaceOnUse" x1="212.044" x2="210.581" xlink:href="#o" y1="123.74" y2="74.262"/><linearGradient id="o"><stop offset="0" stop-color="#fff" stop-opacity=".195"/><stop offset="1" stop-color="#fff" stop-opacity="0"/></linearGradient><radialGradient id="p" cx="18.241" cy="21.818" gradientTransform="matrix(.703 0 0 .687 -3.238 -4.49)" gradientUnits="userSpaceOnUse" r="8.309" xlink:href="#o"/><radialGradient id="q" cx="15.414" cy="13.078" gradientTransform="matrix(1.45 0 0 1.128 -15.28 -9.906)" gradientUnits="userSpaceOnUse" r="6.656" xlink:href="#o"/><linearGradient id="r" gradientUnits="userSpaceOnUse" x1="8.72024" x2="8.72024" y1="14.43561" y2="2.39531"><stop offset="0" stop-color="#343434" stop-opacity=".976"/><stop offset="1" stop-color="#929292"/></linearGradient><linearGradient id="s" gradientUnits="userSpaceOnUse" x1="8.45498" x2="8.44415" y1="14.53748" y2="2.42384"><stop offset="0" stop-color="#333"/><stop offset="1" stop-color="#333" stop-opacity=".612"/></linearGradient><linearGradient id="t" gradientUnits="userSpaceOnUse" x1="8.958472" x2="8.958472" y1="14.116058" y2="2.582718"><stop offset="0" stop-color="#979797"/><stop offset="1" stop-opacity=".341"/></linearGradient><path d="m13.68 12.5 8.734 7.487-1.21 1.513-8.704-8.1z" fill="url(#l)" fill-rule="evenodd" stroke="url(#m)" stroke-linecap="round" stroke-linejoin="round" transform="matrix(.76 0 0 .8 -1.52 -1.6)"/><path d="m21.218 21.01-7.005-8.046 8.475 6.85z" fill="url(#n)" fill-rule="evenodd" transform="matrix(.76 0 0 .8 -1.52 -1.6)"/><path d="m15.824 14.317a1.01 1.855 46.55 1 1 -1.36 1.492 1.01 1.855 46.55 1 1 1.36-1.493z" fill="#3e3e3e"/><path d="m14.97 8.197a5.84 5.705 0 1 1 -11.683 0 5.84 5.705 0 1 1 11.683 0z" fill="url(#p)" fill-rule="evenodd" opacity=".4" transform="matrix(.76 0 0 .8 -1.52 -1.6)"/><path d="m8.888 3.286c-2.912 0-5.27 2.112-5.27 4.72 0 .754.065 1.532.415 2.164.7.23 1.614.304 2.404.304 3.45 0 6.42-2.563 6.632-5.606-.97-1.025-2.567-1.582-4.182-1.582z" fill="url(#q)" fill-rule="evenodd" opacity=".6" transform="matrix(.76 0 0 .8 -1.52 -1.6)"/><path d="m9 2.5c-3.587 0-6.5 2.69-6.5 6s2.913 6 6.5 6 6.5-2.69 6.5-6-2.913-6-6.5-6zm.077.394c3.21 0 5.82 2.404 5.82 5.367 0 2.965-2.61 5.37-5.82 5.37s-5.814-2.405-5.814-5.37c0-2.962 2.604-5.366 5.814-5.366z" fill="url(#r)" stroke="url(#s)" stroke-linecap="round" stroke-linejoin="round" transform="matrix(.76 0 0 .8 -1.52 -1.6)"/><path d="m9.042 2.673c-3.417 0-6.185 2.56-6.185 5.714 0 3.153 2.768 5.713 6.185 5.713 3.416 0 6.19-2.56 6.19-5.713 0-3.154-2.774-5.714-6.19-5.714zm.035.22c3.21 0 5.567 2.405 5.567 5.368 0 2.965-2.356 5.114-5.567 5.114-3.21 0-5.602-2.15-5.602-5.113 0-2.962 2.392-5.366 5.602-5.366z" fill="url(#t)" transform="matrix(.76 0 0 .8 -1.52 -1.6)"/><path d="m14.14 13.45c-.09-.014-.16-.01-.205.003l-6.08 1.347-1.118.25-.033.006-1.298.96 3.31-.05.03-.008 1.125-.248 6.077-1.36c.182-.04-.12-.273-.676-.524-.418-.187-.858-.334-1.13-.375z" fill="#0c0c0c" fill-rule="evenodd" opacity=".15"/><path d="m2.05 11.037c.285-.207 1.147.257 1.96 1.062.81.802 1.26 1.64 1.057 1.93 0 0 .02.017.02.02l10.136-10.183c.258-.258-.213-1.143-1.05-1.974-.84-.832-1.73-1.295-1.987-1.037z" fill="url(#a)" stroke="#0c0c0c" stroke-linejoin="round" stroke-width=".485" transform="matrix(.7 0 0 .7 5.29 5.02)"/><path d="m10.565 2.484c.287-.208 1.148.256 1.96 1.062.81.804 1.26 1.64 1.058 1.93 0 .002.02.018.02.02l1.55-1.558c.41-.408-.028-1.093-.98-2.044-.813-.806-1.674-1.27-1.96-1.062l-.026.025z" fill="#ffb6ed" opacity=".8" stroke="#e28ccd" stroke-linejoin="round" stroke-width=".485" transform="matrix(.7 0 0 .7 5.29 5.02)"/><path d="m6.695 12.645c.198-.144.79.177 1.35.735.557.554.867 1.133.727 1.333 0 0 .013.012.012.013l4.806-4.846.02-.017s-.016-.012-.015-.013c.14-.2-.17-.778-.728-1.333-.56-.56-1.152-.878-1.35-.735l-.017.018z" fill="#0c0c0c" opacity=".6"/><g transform="matrix(.7 0 0 .7 5.29 5.02)"><path d="m9.18 3.877c.285-.208 1.146.256 1.96 1.062.81.8 1.26 1.64 1.056 1.93l.02.017.126-.127s-.02-.016-.02-.018c.203-.29-.246-1.127-1.057-1.93-.812-.806-1.674-1.27-1.96-1.062z" fill="url(#b)"/><path d="m9.063 3.993c.286-.208 1.148.256 1.96 1.062.81.803 1.26 1.64 1.058 1.93 0 .002.02.018.02.02l.127-.128-.02-.018c.204-.29-.246-1.13-1.057-1.933-.813-.806-1.674-1.27-1.96-1.062z" fill="url(#d)"/><path d="m9.58 3.473c.287-.208 1.15.256 1.96 1.062.81.804 1.26 1.64 1.06 1.93-.002.002.018.018.017.02l.127-.127c0-.002-.02-.018-.02-.02.203-.29-.246-1.126-1.057-1.93-.812-.805-1.674-1.27-1.96-1.062z" fill="url(#f)"/><path d="m9.465 3.59c.286-.21 1.148.256 1.96 1.06.81.805 1.26 1.642 1.058 1.932l.02.018.125-.126s-.02-.018-.02-.02c.204-.288-.246-1.126-1.056-1.93-.813-.805-1.674-1.27-1.96-1.062z" fill="url(#g)"/><path d="m9.985 3.067c.286-.207 1.148.257 1.96 1.062.81.802 1.26 1.64 1.058 1.93 0 0 .02.017.02.02l.125-.13s-.02-.017-.02-.02c.203-.287-.246-1.125-1.057-1.93-.81-.804-1.672-1.27-1.96-1.06z" fill="url(#h)"/><path d="m9.87 3.183c.285-.207 1.147.257 1.96 1.062.81.804 1.26 1.642 1.057 1.93 0 .002.02.02.02.02l.125-.127s-.02-.018-.02-.02c.204-.288-.246-1.126-1.056-1.93-.813-.805-1.674-1.27-1.96-1.06z" fill="url(#i)"/><g fill-rule="evenodd" stroke-width=".485"><path d="m.26 15.794 4.772-1.725.04-.04c.202-.29-.253-1.13-1.064-1.93-.812-.808-1.673-1.27-1.96-1.06z" fill="url(#j)" stroke="url(#k)"/><path d="m.744 14.506-.484 1.284 1.3-.474c-.113-.134-.22-.268-.354-.402-.155-.154-.307-.28-.462-.408z" fill="#0c0c0c" stroke="#0c0c0c"/></g></g></svg>