<svg height="16" width="16" xmlns="http://www.w3.org/2000/svg" xmlns:xlink="http://www.w3.org/1999/xlink"><linearGradient id="a" gradientTransform="matrix(.2857 0 0 .3042 2.609 -.233)" gradientUnits="userSpaceOnUse" x1="25.132" x2="25.132" y1=".985" y2="47.013"><stop offset="0" stop-color="#f4f4f4"/><stop offset="1" stop-color="#dbdbdb"/></linearGradient><linearGradient id="b" gradientTransform="matrix(.24324 0 0 .35135 4.162 -.432)" gradientUnits="userSpaceOnUse" x1="24.000986" x2="24" y1="12.614202" y2="41.077"><stop offset="0" stop-color="#fff"/><stop offset=".00000003" stop-color="#fff" stop-opacity=".235"/><stop offset="1" stop-color="#fff" stop-opacity=".157"/><stop offset="1" stop-color="#fff" stop-opacity=".392"/></linearGradient><linearGradient id="c" gradientTransform="matrix(.2538 0 0 .30502 21.13 -.685)" gradientUnits="userSpaceOnUse" x1="-51.786" x2="-51.786" y1="50.786" y2="2.906"><stop offset="0" stop-opacity=".34"/><stop offset="1" stop-opacity=".247"/></linearGradient><linearGradient id="d" gradientUnits="userSpaceOnUse" x1="10.518" x2="10.522" xlink:href="#e" y1="14.017" y2="6.441"/><linearGradient id="e" gradientUnits="userSpaceOnUse" x1="10.518" x2="10.522" y1="14.017" y2="6.441"><stop offset="0" stop-color="#fff"/><stop offset="1" stop-color="#fff" stop-opacity="0"/></linearGradient><g transform="translate(-4 -2)"><path d="m4.5 2.5h11v13h-11z" fill="url(#a)"/><g fill="none"><path d="m14.5 14.5h-9v-11h9z" stroke="url(#b)" stroke-linecap="round"/><path d="m4.5 2.5h11v13h-11z" stroke="url(#c)" stroke-linejoin="round"/><path d="m12.720339 10.5-2.720339 3.5-2.6889849-3.5h2.1889849v-4h1v4z" opacity=".6" stroke="url(#d)" stroke-linecap="round"/></g><path d="m12.720339 9.5-2.720339 3.5-2.6889849-3.5h2.1889849v-4h1v4z" fill="#7e8087" stroke="#7c7c7c" stroke-linecap="round"/></g><g transform="translate(-2 -1)"><path d="m4.5 2.5h11v13h-11z" fill="url(#a)"/><g fill="none"><path d="m14.5 14.5h-9v-11h9z" stroke="url(#b)" stroke-linecap="round"/><path d="m4.5 2.5h11v13h-11z" stroke="url(#c)" stroke-linejoin="round"/><path d="m12.720339 10.5-2.720339 3.5-2.6889849-3.5h2.1889849v-4h1v4z" opacity=".6" stroke="url(#d)" stroke-linecap="round"/></g><path d="m12.720339 9.5-2.720339 3.5-2.6889849-3.5h2.1889849v-4h1v4z" fill="#7e8087" stroke="#7c7c7c" stroke-linecap="round"/></g><path d="m4.5 2.5h11v13h-11z" fill="url(#a)"/><g fill="none"><path d="m14.5 14.5h-9v-11h9z" stroke="url(#b)" stroke-linecap="round"/><path d="m4.5 2.5h11v13h-11z" stroke="url(#c)" stroke-linejoin="round"/><path d="m12.720339 10.5-2.720339 3.5-2.6889849-3.5h2.1889849v-4h1v4z" opacity=".6" stroke="url(#e)" stroke-linecap="round"/></g><path d="m12.720339 9.5-2.720339 3.5-2.6889849-3.5h2.1889849v-4h1v4z" fill="#7e8087" stroke="#7c7c7c" stroke-linecap="round"/></svg>