<svg height="16" width="16" xmlns="http://www.w3.org/2000/svg" xmlns:xlink="http://www.w3.org/1999/xlink"><linearGradient id="a" gradientUnits="userSpaceOnUse" x1="1" x2="5" y1="-12" y2="-12"><stop offset="0" stop-color="#fff"/><stop offset="1" stop-color="#fff" stop-opacity="0"/></linearGradient><linearGradient id="b" gradientTransform="matrix(.24324 0 0 .35135 2.162 -.432)" gradientUnits="userSpaceOnUse" x1="24" x2="24" y1="5.564" y2="43"><stop offset="0" stop-color="#fff"/><stop offset=".036" stop-color="#fff" stop-opacity=".235"/><stop offset=".951" stop-color="#fff" stop-opacity=".157"/><stop offset="1" stop-color="#fff" stop-opacity=".392"/></linearGradient><linearGradient id="c" gradientTransform="matrix(.3143 0 0 .32593 .457 -.322)" gradientUnits="userSpaceOnUse" x1="25.132" x2="25.132" y1=".985" y2="47.013"><stop offset="0" stop-color="#d1ff82"/><stop offset=".262" stop-color="#9bdb4d"/><stop offset=".705" stop-color="#68b723"/><stop offset="1" stop-color="#3a9104"/></linearGradient><linearGradient id="d" gradientTransform="matrix(.2538 0 0 .30502 19.13 -.685)" gradientUnits="userSpaceOnUse" x1="-51.786" x2="-51.786" y1="50.786" y2="2.906"><stop offset="0" stop-color="#206b00"/><stop offset="1" stop-color="#3a9104"/></linearGradient><path d="m2.5.5h11v15h-11z" fill="url(#c)" stroke="url(#d)" stroke-linejoin="round"/><path d="m12.5 14.5h-9v-13h9z" fill="none" opacity=".5" stroke="url(#b)" stroke-linecap="round"/><path d="m3.5 1.5h5.995l3.005 3.27v9.73h-9z" fill="#fff" opacity=".2" stroke="#000"/><path d="m4 2h5.318l2.682 3v9h-8z" fill="#fff"/><path d="m5 10h2v1h-2zm3 0h2v1h-2zm-3-2h2v1h-2zm3 0h2v1h-2zm-3-2h2v1h-2zm3 0h2v1h-2zm-3-2h2v1h-2zm3 0h1l1 1h-2zm-3 8h2v1h-2zm3 0h2v1h-2z" fill="#89ac68"/><g fill="#fff"><circle cx="13.625" cy="5.359" r="3.403"/><circle cx="13.529" cy="13.413" r="3.403"/><circle cx="6.239" cy="9.393" r="3.403"/></g><g transform="matrix(.80932 0 0 .80932 3.86 3.05)"><path d="m11.635 2.344-9 5a.75.75 0 0 0 0 1.312l9 5a.75.75 0 0 0 .365.094v-1.5h.193l-7.648-4.25 7.818-4.344z" fill="#333" fill-rule="evenodd"/><g id="e" fill-rule="evenodd" stroke-linejoin="round" transform="rotate(90)"><circle cx="3" cy="-12" fill="#666" r="2.5"/><circle cx="3" cy="-12" fill="none" r="2.5" stroke="#333" stroke-width="1.236"/><circle cx="3" cy="-12" fill="none" opacity=".3" r="1.5" stroke="url(#a)" stroke-width="1.236"/></g><use height="100%" transform="translate(-9 5)" width="100%" xlink:href="#e"/><use height="100%" transform="translate(0 10)" width="100%" xlink:href="#e"/></g></svg>