<svg viewBox="0 0 16 16" xmlns="http://www.w3.org/2000/svg"><g transform="translate(8 8)"><path d="m0 3h16v3h-16z" fill="#8c8c8c"/><path d="m .5 2a .49930579.49930579 0 0 0 -.5.5v11a .49930579.49930579 0 0 0  .5.5h15a .49930579.49930579 0 0 0  .5-.5v-11a .49930579.49930579 0 0 0 -.5-.5zm.49804688.9980469h14.00390612v10.0039061h-14.00390612zm4.00195312.0019531v2h-4v1h4v3h-4v1h4v3h1v-3h4v3h1v-3h4v-1h-4v-3h4v-1h-4v-2h-1v2h-4v-2zm1 3h4v3h-4z" fill="#565656"/></g><g transform="translate(8 -8)"><path d="m0 3h16v3h-16z" fill="#8c8c8c"/><path d="m .5 2a .49930579.49930579 0 0 0 -.5.5v11a .49930579.49930579 0 0 0  .5.5h15a .49930579.49930579 0 0 0  .5-.5v-11a .49930579.49930579 0 0 0 -.5-.5zm.49804688.9980469h14.00390612v10.0039061h-14.00390612zm4.00195312.0019531v2h-4v1h4v3h-4v1h4v3h1v-3h4v3h1v-3h4v-1h-4v-3h4v-1h-4v-2h-1v2h-4v-2zm1 3h4v3h-4z" fill="#565656"/></g><g fill="#9cde4a" stroke="#5ca12a" stroke-linecap="round" stroke-linejoin="round" stroke-width=".727"><path d="m2.5377947 6.5454565v-2.1818195h2.909093v2.1818195h2.1818195v2.9090936h-2.1818195v2.1818129h-2.909093v-2.1818129h-2.17415803v-2.9090936h2.17415803z"/><path d="m9.3635 7h2v2h-2z"/><path d="m13.6365 7h2v2h-2z"/></g></svg>