<svg height="16" width="16" xmlns="http://www.w3.org/2000/svg" xmlns:xlink="http://www.w3.org/1999/xlink"><linearGradient id="a" gradientUnits="userSpaceOnUse" x1="11" x2="14" y1="13" y2="16.5"><stop offset="0" stop-color="#d4d4d4"/><stop offset="1" stop-color="#d4d4d4" stop-opacity="0"/></linearGradient><linearGradient id="b" gradientTransform="matrix(.69666532 0 0 .69289412 -187.48762 -34.297678)" gradientUnits="userSpaceOnUse" x1="9" x2="12" y1="9" y2="12"><stop offset="0" stop-color="#abacae"/><stop offset="1" stop-color="#fafafa"/></linearGradient><linearGradient id="c" gradientUnits="userSpaceOnUse" x1="11.5" x2="12" y1="14.5" y2="16.5"><stop offset="0" stop-color="#555761"/><stop offset="1" stop-color="#555761" stop-opacity="0"/></linearGradient><linearGradient id="d" gradientUnits="userSpaceOnUse" x1="9.438604" x2="12" y1="9.849875" y2="16.5"><stop offset="0" stop-color="#fff"/><stop offset="1" stop-color="#fff" stop-opacity="0"/></linearGradient><linearGradient id="e" gradientTransform="matrix(.24324324 0 0 .35135133 2.162164 -.432428)" gradientUnits="userSpaceOnUse" x1="23.99999" x2="23.99999" y1="6.205239" y2="41.589603"><stop offset="0" stop-color="#fff"/><stop offset=".02929282" stop-color="#fff" stop-opacity=".235294"/><stop offset=".97230476" stop-color="#fff" stop-opacity=".156863"/><stop offset="1" stop-color="#fff" stop-opacity=".392157"/></linearGradient><linearGradient id="f" gradientTransform="matrix(.31428497 0 0 .32592538 .45716 -.322209)" gradientUnits="userSpaceOnUse" x1="25.132275" x2="25.132275" y1=".985206" y2="47.013336"><stop offset="0" stop-color="#f4f4f4"/><stop offset="1" stop-color="#dbdbdb"/></linearGradient><linearGradient id="g" gradientTransform="matrix(.25378586 0 0 .30501865 19.128979 -.685477)" gradientUnits="userSpaceOnUse" x1="-51.786404" x2="-51.786404" y1="50.786446" y2="2.906247"><stop offset="0" stop-opacity=".339506"/><stop offset="1" stop-opacity=".246914"/></linearGradient><linearGradient id="h" gradientTransform="matrix(.32160807 0 0 .3333374 -.175147 -.349077)" gradientUnits="userSpaceOnUse" x1="22.004084" x2="22.004084" y1="47.813133" y2="3.363852"><stop offset="0" stop-color="#aaa"/><stop offset="1" stop-color="#c8c8c8"/></linearGradient><path d="m2.5.5c2.5206581 0 10.999987.000954 10.999987.000954l.000013 14.999046s-7.3333335 0-11 0c0-4.999999 0-10.0000003 0-15z" fill="url(#f)" stroke-width="1.08562"/><g fill="none"><path d="m12.5 14.5h-9.0000001v-13h9.0000001z" stroke="url(#e)" stroke-linecap="round"/><path d="m2.4999621.49997396c2.5206756 0 11.0000629.000954 11.0000629.000954l.000013 14.99909804s-7.3333841 0-11.000076 0c0-5.000017 0-10.000035 0-15.00005204z" stroke="url(#g)" stroke-linejoin="round" stroke-width=".999922"/><path d="m4.0000001 3.499995h.7537691zm.8643219 0h.703517zm.8140698 0h.6231156zm.7236186 0h.2713566zm.3819095 0h.603015zm.7236186 0h1.5879395zm1.6884415 0h1.216081zm1.316584 0h.371858zm-6.5125639.994817h.9949753zm1.0954773 0h1.6281406zm1.7286437 0h.7939702zm.8944722 0h.7437182zm.8442213 0h.6331654zm.7336684 0 .994975.010376zm1.085427.010376h1.61809zm-6.3819099.994812h.5125628zm.6733666 0h1.8994984zm-.6733666 1.9947954h.9949753zm1.0954773 0h1.6281406zm1.7286437 0h.7939702zm.8944722 0h.7437182zm.8442213 0h.6331654zm.7336684 0 .994975.010376zm1.085427.010376h1.61809zm-6.3819099.9948286h.7537691zm.8643219 0h.6934672zm.8140698 0h.6231156zm.7236186 0h.2713566zm.3819095 0h.603015zm.7236186 0h1.5778887zm1.6884415 0h1.206031zm1.306533 0h.381909zm.482412 0h.904523zm-6.9849249 1h1.1758797zm1.3065331 0h.5628138zm.6633158 0h.2814074zm.3919602 0h.5125629zm.6231157 0h.5226136zm.6231156 0h.8341715zm.9447243 0h1.0854264zm1.1859294 0h.7236178zm.8241208 0h.180904zm-6.5628149 1.994804h.9949753zm1.0954773 0h1.6281406zm1.7286437 0h.7939702zm.8944722 0h.7437182zm.8442213 0h.6331654zm.7336684 0 .994975.01038zm1.085427.01038h1.61809zm-6.3819099.994816h1.2462313zm1.3567841 0h.3919602zm.4924622 0h.8944722zm.9949753 0h1.3165828zm1.4271356 0h.8944723zm.9849245 0h.1909552zm.2914572 0h1.135678zm1.256282 0h.592964zm-6.8040209 1h1.2462313zm1.3567841 0h.5628138zm.6633168 0h.8844215zm.9849245 0h.954774zm1.0653268 0h.3819094zm.4824125 0h.2110548zm.3216076 0h.5929652z" stroke="url(#h)"/></g><path d="m11.984861 15.97603-2.484861-2.47603h-1.8595458c-.9805253-.126073-2.115025-2.072673-2.1404542-2.771186v-1.228814c.3482947.00372.5205859-.00268.7033898-.00847l2 2.271187c.9575633-.104758 1.3921466-.808051 1.7288136-1.389836l-1.4322034-2.432203v-.440678l.3729208-.0871805.4235622.0819805c1.06595.2477825 1.584365.6318995 2.203517 1.5052.791902 1.023536.06497 2.09887 0 3l3.5 4-2.296284-.01825z" fill="url(#a)"/><path d="m9.5 13.5h-1.8595458c-.9805253-.126073-2.115025-2.072673-2.1404542-2.771186v-1.228814c.3482947.00372.5205859-.00268.7033898-.00847l2 2.271187c.9575633-.104758 1.3921466-.808051 1.7288136-1.389836l-1.4322034-2.432203v-.440678l.3729208-.0871805.4235622.0819805c1.06595.2477825 1.584365.6318995 2.203517 1.5052.791902 1.023536.06497 2.09887 0 3z" fill="url(#b)"/><g fill="none" stroke-linecap="round" stroke-linejoin="round"><path d="m11.984861 15.97603-2.484861-2.47603h-1.8595458c-.9805253-.126073-2.115025-2.072673-2.1404542-2.771186v-1.228814c.3482947.00372.5205859-.00268.7033898-.00847l2 2.271187c.9575633-.104758 1.3921466-.808051 1.7288136-1.389836l-1.4322034-2.432203v-.440678l.3729208-.0871805.4235622.0819805c1.06595.2477825 1.584365.6318995 2.203517 1.5052.791902 1.023536.06497 2.09887 0 3l3.5 4-.571237.285618-1.428763.714382z" opacity=".57" stroke="url(#c)"/><path d="m9.8105469 8.5546875.8261721 1.4023437a.81923874.81923874 0 0 1 .0039.8261718c-.346123.598125-1.0222695 1.649924-2.3476562 1.794922a.81923874.81923874 0 0 1 -.7050722-.273437l-1.1796875-1.339844c.020893.06613.013328.06246.048828.142578.1015519.229187.2531465.502395.4277344.753906.3467492.499526.8456164.815752.8535156.820313h1.7617189a.81923874.81923874 0 0 1 .578125.238281l2.484375 2.476562a.81923874.81923874 0 0 1 .0039.0039l.597656.601562.521485-.259765-2.802735-3.203126a.81923874.81923874 0 0 1 -.199218-.597656c.04656-.645816.261204-1.14199.332031-1.539062.07083-.397072.0727-.5943796-.164063-.9003909a.81923874.81923874 0 0 1 -.01953-.027344c-.365011-.5148398-.651917-.7457384-1.0214791-.9199146z" stroke="url(#d)"/></g></svg>