<svg viewBox="0 0 16 16" xmlns="http://www.w3.org/2000/svg" xmlns:xlink="http://www.w3.org/1999/xlink"><linearGradient id="a" gradientTransform="matrix(.49219581 0 0 .45839231 4.509306 -4.793718)" gradientUnits="userSpaceOnUse" x1="23.731871" x2="23.731871" y1="5.394345" y2="39.735077"><stop offset="0" stop-color="#90dbec"/><stop offset=".26238" stop-color="#55c1ec"/><stop offset=".704952" stop-color="#3689e6"/><stop offset="1" stop-color="#2b63a0"/></linearGradient><linearGradient id="b" gradientTransform="matrix(0 -.5372019 .57681717 0 -15.997188 19.865617)" gradientUnits="userSpaceOnUse" x1="40.957993" x2="18.680689" y1="46.97065" y2="46.97065"><stop offset="0" stop-color="#fff"/><stop offset=".45000002" stop-color="#fff" stop-opacity=".235294"/><stop offset=".65000004" stop-color="#fff" stop-opacity=".156863"/><stop offset="1" stop-color="#fff" stop-opacity=".392157"/></linearGradient>

     /&gt;
 <g transform="matrix(0 -.64286409 -.64676805 0 6.287679 15.42872)"><path d="m16.5 9.221611 7-5.673017-7-5.6960218v3.6474278h-6v4h6z" display="block" fill="url(#a)"/><path d="m16.5 9.221611 7-5.673017-7-5.696022v3.6474278h-6v4.0000002h6z" style="display:block;fill:#46a9eb;fill-opacity:.984314;stroke:#2f78c8;stroke-linejoin:round;stroke-miterlimit:7"/><path d="m17.5 7.111422 4.434589-3.562828-4.434589-3.6228751v2.5742811h-6v2h6z" display="block" fill="none" stroke="url(#b)" stroke-miterlimit="7" stroke-width=".963925"/></g><g transform="matrix(0 .64286409 -.64676805 0 14.287679 .571366)"><path d="m16.5 9.221611 7-5.673017-7-5.6960218v3.6474278h-6v4h6z" display="block" fill="url(#a)"/><path d="m16.5 9.221611 7-5.673017-7-5.696022v3.6474278h-6v4.0000002h6z" style="display:block;fill:#46a9eb;fill-opacity:.984314;stroke:#2f78c8;stroke-linejoin:round;stroke-miterlimit:7"/><path d="m17.5 7.111422 4.434589-3.562828-4.434589-3.6228751v2.5742811h-6v2h6z" display="block" fill="none" stroke="url(#b)" stroke-miterlimit="7" stroke-width=".963925"/></g><path d="m5.0338983 1 5.9660897 2.9500429.000012 11.0499571-5.9661017-2.983051z" fill="#e9e9e9"/><path d="m10.567797 13.957627-5.0677971-2.135593v-9.7457629l5.0677971 2.1694916z" fill="none" stroke="#fff" stroke-linecap="round"/><path d="m4.5338604.49997396 6.9661646 2.95010654.000013 12.0499455-6.9661777-2.983051z" fill="none" stroke="#8c8c8c" stroke-linejoin="round" stroke-width=".999922"/></svg>