<svg viewBox="0 0 16 16" xmlns="http://www.w3.org/2000/svg">

     /&gt;
 <path d="m-15.463622.536378h14.927244v6.927244h-14.927244z" fill="#e9e9e9" stroke="#8c8c8c" stroke-linecap="round" stroke-linejoin="round" stroke-width="1.072756" transform="rotate(-90)"/><path d="m1.0000001 15h6v-14h-6zm1-1v-12h4v12z" fill="#fff"/><g transform="matrix(-.9593921 0 0 -.9706826 30.890991 5.001924)"><path d="m17.342697 3.3386364 1.800059-1.2000382 1.800057 1.2000382" fill="none" stroke="#ce5c00" stroke-linecap="round" stroke-width="3.600116"/><path d="m19.142578 1.3457031-2.166016 1.4433594a.66060253.66060253 0 1 0  .732422 1.0996094l1.433594-.9570313 1.433594.9570313a.66060253.66060253 0 1 0  .732422-1.0996094z" fill="#fcaf3e"/></g><g transform="matrix(.96836148 0 0 .96776974 -6.044006 11.013087)"><path d="m17.342697 3.3386364 1.800059-1.2000382 1.800057 1.2000382" fill="none" stroke="#ce5c00" stroke-linecap="round" stroke-width="3.600116"/><path d="m19.142578 1.3457031-2.166016 1.4433594a.66060253.66060253 0 1 0  .732422 1.0996094l1.433594-.9570313 1.433594.9570313a.66060253.66060253 0 1 0  .732422-1.0996094z" fill="#fcaf3e"/></g></svg>