<svg viewBox="0 0 16 16" xmlns="http://www.w3.org/2000/svg" xmlns:xlink="http://www.w3.org/1999/xlink"><linearGradient id="a" gradientTransform="matrix(.25378586 0 0 .30501865 19.128979 -.685477)" gradientUnits="userSpaceOnUse" x1="19.845741" x2="16.40678" y1="56.124256" y2=".881325"><stop offset="0" stop-opacity=".339506"/><stop offset="1" stop-opacity=".246914"/></linearGradient><linearGradient id="b" gradientTransform="matrix(.24324324 0 0 .35135133 2.162164 -.432428)" gradientUnits="userSpaceOnUse" x1="7.915077" x2="6.859427" y1="7.660193" y2="27.826605"><stop offset="0" stop-color="#fff"/><stop offset=".26149461" stop-color="#fff" stop-opacity=".235294"/><stop offset="1" stop-color="#fff" stop-opacity=".156863"/><stop offset="1" stop-color="#fff" stop-opacity=".392157"/></linearGradient>

/&amp;amp;gt;<path d="m4.71875.499997c-2.3299505 0-4.21875 1.8887756-4.21875 4.21875 0 .4972513.0538773 1.004624.2636719 1.40625 2.1388106 3.992101 4.723284 4.356202 7.2070312 9.316406v.0293c.00619.01242.0231.01682.029297.0293.010247-.02063.01905-.03813.029297-.05859 2.4837469-4.960214 5.0682199-5.324315 7.2070299-9.316416.209794-.401626.263673-.9089987.263673-1.40625 0-2.3299744-1.888799-4.21875-4.21875-4.21875-1.318872 0-2.478643.6049321-3.2519531 1.5527344-.0084815.0103956-.0209091.0188187-.0292969.0292969-.0083877-.0104782-.0208154-.0189013-.0292969-.0292969-.7733097-.9478023-1.9330806-1.5527344-3.2519531-1.5527344z" fill="#e9e9e9" stroke="url(#a)" stroke-linejoin="round"/><path d="m5.1220476 1.4218444c-2.0435769 0-3.7002245 1.5328423-3.7002245 3.4237411 0 .403546.047255.8153061.231264 1.141247 1.8759299 3.2398033 4.1427465 3.5352905 6.3212167 7.5607615v.02378c.00543.01008.020261.01365.025696.02378.00899-.01674.016709-.03094.025696-.04754 2.1784712-4.025477 4.4452862-4.3209642 6.3212152-7.5607675.184009-.3259409.231266-.737701.231266-1.1412471 0-1.8908987-1.656646-3.423741-3.700225-3.423741-1.1567696 0-2.1739932.4909347-2.8522561 1.260127-.00744.00844-.01834.015272-.025696.023776-.00735-.0085-.018256-.015339-.025696-.023776-.6782624-.7692063-1.6954862-1.260141-2.8522563-1.260141z" fill="none" stroke="url(#b)" stroke-width=".844"/></svg>