<svg viewBox="0 0 16 16" xmlns="http://www.w3.org/2000/svg" xmlns:xlink="http://www.w3.org/1999/xlink"><linearGradient id="a" gradientTransform="matrix(.59436 0 0 .5999 -19.265 1.967)" gradientUnits="userSpaceOnUse" x1="25.132" x2="25.132" y1="15.5" y2="48.396"><stop offset="0" stop-color="#fafafa"/><stop offset="1" stop-color="#e2e1de"/></linearGradient><linearGradient id="b" gradientTransform="matrix(.67880146 0 0 .73786273 2.765836 .43824)" gradientUnits="userSpaceOnUse" x1="24" x2="23.915924" y1="5" y2="18.379787"><stop offset="0" stop-color="#fff"/><stop offset=".063" stop-color="#fff" stop-opacity=".235"/><stop offset=".951" stop-color="#fff" stop-opacity=".157"/><stop offset="1" stop-color="#fff" stop-opacity=".392"/></linearGradient><g transform="translate(-3.000323 -1.999977)"><rect fill="url(#a)" height="11" rx=".424" ry=".491" width="9" x="6" y="4"/><path d="m5.5 3.0000001c-.276-.0000539-.5.224-.5.5l.00195 11.9980469c0 .276.224.499946.5.5l9.99805.001953c.276.000054.5-.224.5-.5.0021-5.002515-.002-7.0008623-.002-11.9980469 0-.276-.224-.4999461-.5-.5zm.4980469.9980469 9.0019531.001953v3h-4l-.002-2.9980469h-.9999531l.0019531 2.9980469h-4v1h4v3h-4v1h2 2v3h1v-3h4l.002 3.001953-9.002-.001953zm5.0019531 4.001953h4v3h-4z" fill="#030303" fill-opacity=".317647"/><path d="m6.5 4.5h8l-.000001 10h-7.999999z" fill="none" stroke="url(#b)" stroke-linecap="round" stroke-linejoin="round" stroke-width="1.012911"/></g><g transform="translate(-3 -2)"><path d="m5.9980001 2.998046c-.554-.0001203-1.0000983.446-1 1l.0019529 11.001954c.0000983.554.446.99988 1 1l9.002.002c.554.00012 1.000098-.446 1-1l-.001953-11.002c-.000098-.554-.446-.9998797-1-1zm0 1 9.0019999.001954.002 11.001954-9.002-.001954z" fill="#cc3b02"/><path d="m6 4h9v11.000001h-9z" fill="#f37329" opacity=".65"/><g fill="#cc3b02"><path d="m9.9999999 3.999999h1.0000001v12.000001h-1z"/><path d="m5.9999999 6.999999 9.0000001.000001v1l-9.0000001-.000001z"/><path d="m5.9999999 10.999999 9.0000001.000001v1l-9.0000001-.000001z"/></g></g></svg>