<svg height="16" width="16" xmlns="http://www.w3.org/2000/svg" xmlns:xlink="http://www.w3.org/1999/xlink"><linearGradient id="a" gradientTransform="matrix(.24324324 0 0 .35135133 2.162164 -.432428)" gradientUnits="userSpaceOnUse" x1="23.99999" x2="23.99999" y1="6.923065" y2="41.076912"><stop offset="0" stop-color="#fff"/><stop offset="0" stop-color="#fff" stop-opacity=".235294"/><stop offset="1" stop-color="#fff" stop-opacity=".156863"/><stop offset="1" stop-color="#fff" stop-opacity=".392157"/></linearGradient><linearGradient id="b" gradientUnits="userSpaceOnUse" x1="11" x2="11" y1="7" y2="15"><stop offset="0" stop-color="#fff"/><stop offset="1" stop-color="#fff" stop-opacity="0"/></linearGradient><linearGradient id="c" gradientUnits="userSpaceOnUse" x1="11.492393" x2="14" y1="8" y2="14"><stop offset="0" stop-color="#cd9ef7"/><stop offset="1" stop-color="#a56de2"/></linearGradient><linearGradient id="d" gradientTransform="matrix(.25378586 0 0 .30501865 19.128979 -.685477)" gradientUnits="userSpaceOnUse" x1="-51.786404" x2="-51.786404" y1="50.786446" y2="2.906247"><stop offset="0" stop-opacity=".339506"/><stop offset="1" stop-opacity=".246914"/></linearGradient><linearGradient id="e" gradientTransform="matrix(.31428463 0 0 .32594469 .457175 -.323148)" gradientUnits="userSpaceOnUse" x1="25.132275" x2="25.132275" y1=".985206" y2="47.013336"><stop offset="0" stop-color="#f4f4f4"/><stop offset="1" stop-color="#dbdbdb"/></linearGradient><path d="m2.500012.4991096c2.5206554 0 10.999975.00095406 10.999975.00095406l.000013 14.99993634s-7.3333255 0-10.999988 0c0-5.000296 0-10.000594 0-15.0008904z" fill="url(#e)" stroke-width="1.085652"/><g fill="none"><path d="m12.5 14.5h-9.0000001v-13h9.0000001z" stroke="url(#a)" stroke-linecap="round"/><path d="m2.4999621.49997396c2.5206756 0 11.0000629.000954 11.0000629.000954l.000013 14.99909804s-7.3333841 0-11.000076 0c0-5.000017 0-10.000035.0000001-15.00005204z" stroke="url(#d)" stroke-linejoin="round" stroke-width=".999922"/></g><path d="m4 3h8v1h-8z" fill="#7e7e7e"/><path d="m4 5h7v1h-7z" fill="#7e7e7e"/><path d="m15.5 10.750013a4.7500191 4.7500129 0 0 1 -4.750019 4.750013 4.7500191 4.7500129 0 0 1 -4.7500191-4.750013 4.7500191 4.7500129 0 0 1 4.7500191-4.7500125 4.7500191 4.7500129 0 0 1 4.750019 4.7500125z" fill="url(#c)" stroke="#7239b3" stroke-linecap="square" stroke-opacity=".75"/><path d="m14.545776 10.750013a3.795795 3.79579 0 0 1 -3.795795 3.79579 3.795795 3.79579 0 0 1 -3.795795-3.79579 3.795795 3.79579 0 0 1 3.795795-3.7957896 3.795795 3.79579 0 0 1 3.795795 3.7957896z" fill="none" opacity=".5" stroke="url(#b)" stroke-linecap="square"/><g fill="#7e7e7e"><path d="m4 7h8v1h-8z"/><path d="m4 9h8v1h-8z"/><path d="m4 11h7v1h-7z"/><path d="m4 13h8v1h-8z"/></g></svg>