<svg xmlns="http://www.w3.org/2000/svg" xmlns:xlink="http://www.w3.org/1999/xlink" viewBox="0 0 16 16"><defs><linearGradient id="a"><stop offset="0" stop-color="#737373"/><stop offset=".262" stop-color="#636363"/><stop offset=".705" stop-color="#4b4b4b"/><stop offset="1" stop-color="#3f3f3f"/></linearGradient><radialGradient xlink:href="#a" id="c" cx="14" cy="5.148" fx="14" fy="5.148" r="3.205" gradientTransform="matrix(-2.0164 0 0 -1.31156 42.23 10.466)" gradientUnits="userSpaceOnUse"/><radialGradient xlink:href="#a" id="b" cx="5.259" cy="3.065" fx="5.259" fy="3.065" r="5.069" gradientTransform="matrix(-1.65988 0 0 -2.25063 13.988 9.75)" gradientUnits="userSpaceOnUse"/></defs><path d="M7.54 13.857l-.697-2.287H3.34l-.697 2.287H.447l3.392-9.65h2.49l3.406 9.65zM6.357 9.86Q5.39 6.75 5.265 6.343q-.118-.407-.17-.644-.217.84-1.243 4.16z" fill="url(#b)" stroke="#000" stroke-linejoin="round" stroke-width=".85" transform="scale(.95075 1.0518)" stroke-opacity=".49"/><path d="M11.137 5.888h2.404q1.643 0 2.383.47.745.465.745 1.485 0 .692-.328 1.136-.322.442-.86.532v.053q.733.164 1.056.613.327.45.327 1.194 0 1.056-.766 1.648-.76.59-2.07.59h-2.89V5.89zm1.638 3.06h.95q.666 0 .962-.207.3-.205.3-.68 0-.444-.327-.634-.322-.196-1.024-.196h-.86zm0 1.298v2.013h1.067q.676 0 .998-.26.322-.26.322-.792 0-.962-1.373-.962z" fill="url(#c)" stroke="#000" stroke-linejoin="round" stroke-width=".683" transform="scale(.92856 1.07693)" stroke-opacity=".49"/><path d="M12.5 1.505l-3 3h6z" fill="#ffc27d" stroke="#f37329" stroke-linecap="round" stroke-linejoin="round"/></svg>