<svg height="16" width="16" xmlns="http://www.w3.org/2000/svg"><path d="m15 3c0 2.291507-.00089 9.999988-.00089 9.999988l-13.99911.000012s0-6.666667 0-10z" fill="#9cde4a"/><path d="m1.5 12.5v-9h13v9z" fill="none" stroke="#fff" stroke-linecap="round"/><path d="m15.500026 2.499962c0 2.520676-.000954 11.000063-.000954 11.000063l-14.999098.000013s0-7.333384 0-11.000076z" fill="none" stroke="#5ca12a" stroke-linejoin="round" stroke-width=".999922"/><g fill="#fff"><path d="m4 10h2v1h-2z"/><path d="m10 10h2v1h-2z"/><path d="m7 10h2v1h-2z"/><path d="m9 8h3v1h-3z"/><path d="m4 8h1v1h-1z"/><path d="m6 8h1v1h-1z"/><path d="m4 6h2v1h-2z"/><path d="m7 6h2v1h-2z"/><path d="m11 6h1v1h-1z"/></g></svg>