<svg height="16" width="16" xmlns="http://www.w3.org/2000/svg" xmlns:xlink="http://www.w3.org/1999/xlink"><radialGradient id="a" cx="7.772984" cy="7.282222" gradientTransform="matrix(.01735505 1.7567937 -1.7341486 .01713137 20.266536 -5.783222)" gradientUnits="userSpaceOnUse" r="6.164814"><stop offset="0" stop-color="#d1ff82"/><stop offset=".26238" stop-color="#9bdb4d"/><stop offset=".66093999" stop-color="#68b723"/><stop offset="1" stop-color="#3a9104"/></radialGradient><linearGradient id="b" gradientTransform="matrix(.25508209 .06834904 -.06793671 .25354327 13.443481 .03325)" gradientUnits="userSpaceOnUse" x1="10.568387" x2="15.296399" y1="28.749016" y2="44.988041"><stop offset="0" stop-color="#fff"/><stop offset=".35621077" stop-color="#fff" stop-opacity=".235"/><stop offset="1" stop-color="#fff" stop-opacity=".157"/><stop offset="1" stop-color="#fff" stop-opacity=".392"/></linearGradient><linearGradient id="c" gradientUnits="userSpaceOnUse" x1="7.814092" x2="7.814092" y1="1.282271" y2="14.669901"><stop offset="0" stop-color="#fff"/><stop offset=".507761" stop-color="#fff" stop-opacity=".235294"/><stop offset=".83456558" stop-color="#fff" stop-opacity=".156863"/><stop offset="1" stop-color="#fff" stop-opacity=".392157"/></linearGradient><linearGradient id="d" gradientTransform="matrix(.57484957 0 0 .4297553 -1164.0142 -1377.7717)" gradientUnits="userSpaceOnUse" x1="2035.1652" x2="2035.1652" y1="3208.0737" y2="3241.9966"><stop offset="0" stop-color="#ed5353"/><stop offset="1" stop-color="#c6262e"/></linearGradient><g transform="matrix(.86666666 0 0 .86666666 2.066667 2.066667)"><path d="m7.9999999.50000026c-4.138243 0-7.49999996 3.36175724-7.49999996 7.49999984 0 4.1382429 3.36175696 7.4999999 7.49999996 7.4999999 4.1382431 0 7.5000071-3.361757 7.5000001-7.4999999 0-4.1382426-3.361757-7.49999984-7.5000001-7.49999984z" fill="url(#d)" opacity=".99"/><path d="m7.9999999.50000016c-4.138243 0-7.49999996 3.36175724-7.49999996 7.49999994 0 4.1382429 3.36175696 7.4999999 7.49999996 7.4999999 4.1382431 0 7.5000071-3.361757 7.5000001-7.4999999 0-4.1382427-3.361757-7.49999994-7.5000001-7.49999994z" style="opacity:.5;fill:none;stroke:#7a0000;stroke-width:1.153846;stroke-linecap:round;stroke-linejoin:round"/><path d="m14.5 7.9997641c0 3.5899719-2.910366 6.5002359-6.4999211 6.5002359-3.589884 0-6.500079-2.910298-6.500079-6.5002359 0-3.5898015 2.910195-6.4997709 6.500079-6.4997709 3.5895551 0 6.4999211 2.9099694 6.4999211 6.4997709z" style="opacity:.4;fill:none;stroke-width:1.153846;stroke-linecap:round;stroke-linejoin:round;stroke:url(#c)"/><path d="m7 3a1.0001 1.0001 0 0 0 -1 1v4a1.0001 1.0001 0 0 0 .013672.1640625l.5 2.9999995a1.0001 1.0001 0 0 0 .1699219.410157c-.4040507.373847-.6835939.873545-.6835939 1.425781 0 1.047198.9528024 2 2 2s2-.952802 2-2c0-.552236-.2795432-1.051934-.6835938-1.425781a1.0001 1.0001 0 0 0 .1699219-.410157l.5-2.9999995a1.0001 1.0001 0 0 0 .0136719-.1640625v-4a1.0001 1.0001 0 0 0 -1-1z" fill="#7a0000" opacity=".05"/><path d="m7 4v4l.5 3h1l.5-3v-4zm1 8a1 1 0 0 0 -1 1 1 1 0 0 0 1 1 1 1 0 0 0 1-1 1 1 0 0 0 -1-1z" fill="#7a0000" opacity=".15"/><path d="m7 3v4l.5 3h1l.5-3v-4zm1 8a1 1 0 0 0 -1 1 1 1 0 0 0 1 1 1 1 0 0 0 1-1 1 1 0 0 0 -1-1z" fill="#fff"/></g><g transform="translate(-3.514312 -5.755329)"><path d="m9 2a7 7 0 0 0 -2.6972656.546875l-1.1933594 1.2578125-.3710938-.3515625a7 7 0 0 0 -2.7382812 5.546875 7 7 0 0 0 .0019531.0488281l1.6210938 1.5742189c.1898455.184178.4218773.311276.6171875.388672.7072536.285309 1.5453365.123384 2.0878906-.441407a1.4978393 1.4978393 0 0 0 .0058594-.005859l6.7675776-7.1308592c.018402-.018977.0314-.0409385.048829-.0605469a7 7 0 0 0 -4.150391-1.3730469z" fill="#fff" fill-opacity=".852941" transform="translate(3.514312 5.755329)"/><path d="m14.148 6.28c-.15-.056-.323-.02-.44.103l-5.03 5.295-2.54-2.413c-.164-.158-.423-.154-.58.012l-1.433 1.52c-.157.165-.15.426.014.583l4.04 3.924c.038.037.082.062.13.08.15.063.33.032.452-.095l6.78-7.143c.16-.165.153-.426-.012-.584l-1.242-1.195c-.04-.04-.09-.07-.14-.087z" fill="url(#a)" stroke="#206b00" stroke-linecap="round" stroke-opacity=".501961"/><path d="m9.0974938 12.827279 4.9193502-5.3442508.792467.6915203m-6.0401855 6.3269985-3.5872994-3.442793 1.0216836-1.026074" fill="none" opacity=".5" stroke="url(#b)"/></g></svg>