<svg height="16" width="16" xmlns="http://www.w3.org/2000/svg" xmlns:xlink="http://www.w3.org/1999/xlink"><linearGradient id="a" gradientTransform="matrix(.33333337 0 0 .33332136 16.000001 .000194)" gradientUnits="userSpaceOnUse" x1="-24" x2="-24" y1="2" y2="46.525425"><stop offset="0" stop-color="#64baff"/><stop offset="1" stop-color="#3689e6"/></linearGradient><linearGradient id="b" gradientTransform="matrix(1.0922637 0 0 1.1672451 -54.136517 -5.701974)" gradientUnits="userSpaceOnUse" x1="27.583231" x2="27.583231" y1="7.457535" y2="43.432285"><stop offset="0" stop-color="#fff"/><stop offset=".33333334" stop-color="#fff" stop-opacity=".235294"/><stop offset=".73809522" stop-color="#fff" stop-opacity=".156863"/><stop offset="1" stop-color="#fff" stop-opacity=".392157"/></linearGradient><path d="m6.179444 15.350946c-1.7654569-.492739-2.8365642-1.719188-3.3728258-3.861991-.2913482-1.164161-.4049237-4.2837301-.2087604-5.7340121.4424657-3.271289 1.792243-4.85244495 4.4261798-5.18490995.7360003-.0929 1.2260423-.09311 1.9571274-.000666 2.654356.335044 3.99156 1.93472695 4.441683 5.31353595.155673 1.168564.06183 4.3437971-.156917 5.3092291-.488683 2.156813-1.41255 3.407144-2.962644 4.009546-.8160657.317145-3.2118833.403959-4.123843.149431z" fill="url(#a)"/><path d="m6.1819077 15.34941c-1.761779-.492739-2.830657-1.719188-3.365807-3.861992-.290742-1.164161-.404078-4.2837296-.208326-5.7340106.441545-3.271289 1.788517-4.85244598 4.416972-5.18490598.73447-.09291 1.223489-.09311 1.953055-.000667 2.6488323.335041 3.9832533 1.93472398 4.4324363 5.31353298.155349 1.168564.0617 4.3437966-.156587 5.3092286-.48767 2.156813-1.409611 3.407144-2.956476 4.009546-.8143743.317145-3.2052053.403959-4.1152673.149431z" fill="none" opacity=".5" stroke="#002e99"/><path d="m-21.181641 2.703125c-2.137894-.269845-3.468045-.2698216-5.621093.00195-3.775644.476591-6.473421 1.7959245-8.464844 4.1289063s-3.294969 5.7724956-3.94336 10.5664066c-.555918 4.110205-.180914 13.679927.605469 16.822265 1.554212 6.210525 4.432345 9.472832 9.414063 10.863282 1.119891.312574 3.602504.469492 5.988281.382812s4.806393-.434059 5.75-.800781c4.338268-1.686018 6.845264-5.028217 8.2695312-11.314453.5650034-2.4937309.8836638-12.3549889.4550782-15.5722629-.6607265-4.959895-1.9638664-8.4980456-3.9570314-10.8828125s-4.690912-3.7149928-8.496094-4.1953125z" style="opacity:.5;fill:none;stroke-width:3.373584;stroke-linecap:round;stroke-linejoin:round;stroke:url(#b)" transform="matrix(.29098642 0 0 .30195649 14.993127 .755512)"/><path d="m6.9101562-.37304688c-.507112 0-1.0564853.25560591-1.375.6328125-.3185146.3772066-.4387908.81722628-.4433593 1.22460938a1.3736472 1.3736472 0 0 0 0 .015625v2.1855469c-.8425446-.3867648-1.8746888-.2986826-2.4667969.3789062-.7525094.8611747-.6880774 2.2283414.1933594 3l1.0683594.9355469-1.0683594.9355469c-.8814757.7716673-.9458844 2.1388131-.1933594 3.0000001.5921481.677652 1.6242911.765607 2.4667969.378906v2.185547c0 .416694.124659.864379.4453125 1.242188.3206535.377808.8659635.630859 1.3730468.630859.1728706 0 .4634126-.0032.7929688-.03711.3295562-.03394.6046788.09942 1.2988281-.433594a1.3736472 1.3736472 0 0 0 .058594-.04883l3.6718751-3.15625a1.3736472 1.3736472 0 0 0 .0175778-.015622c.381982-.339809.542684-.715773.630859-1.033203.01456-.05261.05812-.201381.07422-.427735.0093-.128124.0073-.242959.002-.318359a1.3736472 1.3736472 0 0 0 -.0039-.05469c-.0086-.07653-.03555-.22892-.08594-.396484-.08485-.291458-.228759-.671361-.625-1.0175782a1.3736472 1.3736472 0 0 0 -.023489-.0195293l-1.691406-1.4140625 1.691406-1.4140625a1.3736472 1.3736472 0 0 0 .02344-.019531c.395568-.3456532.540034-.7239644.625-1.015625.0509-.1676441.07693-.3190984.08594-.4023437a1.3736472 1.3736472 0 0 0 .0039-.050781c.0055-.076369.0079-.1919847-.002-.3222656-.016223-.2231153-.059196-.3697183-.074171-.4238287-.088174-.3174414-.248849-.6933881-.630859-1.0332031a1.3736472 1.3736472 0 0 0 -.01758-.015625l-3.6718731-3.15625002a1.3736472 1.3736472 0 0 0 -.03125-.0273438c-.397045-.32072477-.6055086-.32181221-.8027344-.36718746-.1972258-.04537524-.3714067-.06696441-.5371094-.08398437-.3314053-.03403993-.6118342-.04101562-.7792969-.04101563z" fill="#002e99" opacity=".05" transform="matrix(.70561795 0 0 .71735611 2.457577 3.260658)"/><path d="m6.9093416 1c-.277 0-.4422236.2230174-.4453298.5v4.875l-1.7734202-1.5c-.31288-.27345-.75785-.21912-1.03125.09375-.2734.31288-.25038.78909.0625 1.0625l2.25 1.96875-2.25 1.96875c-.31288.273401-.3359.749622-.0625 1.0625s.71837.367151 1.03125.09375l1.7734202-1.5v4.875c0 .277.1683298.5.4453298.5.28242 0 1.0379326-.01953 1.2566826-.1875l3.6725278-3.15625c.11231-.09991.18145-.24072.21875-.375.0142-.05132.0283-.10335.0312-.15625.004-.042.003-.083 0-.125-.006-.05361-.0136-.10455-.0312-.15625-.0385-.13396-.10556-.2761-.21875-.375l-2.9537778-2.46875 2.9537778-2.46875c.11319-.098907.18028-.2410493.21875-.375.0176-.051747.0254-.102645.0312-.15625.003-.041989.004-.083009 0-.125-.003-.052913-.017-.1049375-.0312-.15625-.0373-.1342859-.10644-.2750953-.21875-.375l-3.6725278-3.15625c-.19929-.1609824-1.0278826-.1875-1.2566826-.1875zm.9328806 1.9444435 2.4025798 1.9930565-2.4025798 1.8958323zm0 6.2222221 2.4025798 1.8958344-2.4025798 1.993054z" fill="#002e99" opacity=".15" transform="matrix(.70561795 0 0 .71735611 2.457577 3.260658)"/><path d="m6.9093416 1c-.277 0-.4422236.2230174-.4453298.5v4.875l-1.7734202-1.5c-.31288-.27345-.75785-.21912-1.03125.09375-.2734.31288-.25038.78909.0625 1.0625l2.25 1.96875-2.25 1.96875c-.31288.273401-.3359.749622-.0625 1.0625s.71837.367151 1.03125.09375l1.7734202-1.5v4.875c0 .277.1683298.5.4453298.5.28242 0 1.0379326-.01953 1.2566826-.1875l3.6725278-3.15625c.11231-.09991.18145-.24072.21875-.375.0142-.05132.0283-.10335.0312-.15625.004-.042.003-.083 0-.125-.006-.05361-.0136-.10455-.0312-.15625-.0385-.13396-.10556-.2761-.21875-.375l-2.9537778-2.46875 2.9537778-2.46875c.11319-.098907.18028-.2410493.21875-.375.0176-.051747.0254-.102645.0312-.15625.003-.041989.004-.083009 0-.125-.003-.052913-.017-.1049375-.0312-.15625-.0373-.1342859-.10644-.2750953-.21875-.375l-3.6725278-3.15625c-.19929-.1609824-1.0278826-.1875-1.2566826-.1875zm.9328806 1.9444435 2.4025798 1.9930565-2.4025798 1.8958323zm0 6.2222221 2.4025798 1.8958344-2.4025798 1.993054z" fill="#fff" transform="matrix(.70561795 0 0 .71735611 2.457577 2.261152)"/></svg>