<svg height="16" width="16" xmlns="http://www.w3.org/2000/svg" xmlns:xlink="http://www.w3.org/1999/xlink"><linearGradient id="a" gradientTransform="matrix(.28571361 0 0 .30419701 1.142873 .232605)" gradientUnits="userSpaceOnUse" x1="25.132275" x2="25.132275" y1=".985206" y2="47.013336"><stop offset="0" stop-color="#f89b7e"/><stop offset=".26238" stop-color="#e35d4f"/><stop offset=".66093999" stop-color="#c6262e"/><stop offset="1" stop-color="#690b2c"/></linearGradient><linearGradient id="b" gradientUnits="userSpaceOnUse" x1="7.122792" x2="7.007569" xlink:href="#c" y1="-5.470984" y2="4.692178"/><linearGradient id="c"><stop offset="0" stop-color="#fff"/><stop offset=".99017823" stop-color="#ff9f9f" stop-opacity=".871324"/><stop offset="1" stop-color="#fff" stop-opacity=".156863"/><stop offset="1" stop-color="#febcbc" stop-opacity=".392157"/></linearGradient><linearGradient id="d" gradientTransform="matrix(.25378586 0 0 .30501865 19.128979 -.685477)" gradientUnits="userSpaceOnUse" x1="-51.786404" x2="-51.786404" y1="50.786446" y2="2.906247"><stop offset="0" stop-color="#ae0000" stop-opacity=".960784"/><stop offset="1" stop-color="#b20000" stop-opacity=".494118"/></linearGradient><linearGradient id="e"><stop offset="0" stop-color="#f4f4f4"/><stop offset="1" stop-color="#dbdbdb"/></linearGradient><radialGradient id="f" cx="8.276144" cy="9.994116" gradientTransform="matrix(0 2.5645243 -2.8983276 0 36.991821 -24.485687)" gradientUnits="userSpaceOnUse" r="12.671875" xlink:href="#e"/><linearGradient id="g" gradientTransform="matrix(.24324054 0 0 .35134798 2.161459 -.432362)" gradientUnits="userSpaceOnUse" x1="23.99999" x2="23.99999" xlink:href="#c" y1="6.185116" y2="41.814945"/><linearGradient id="h"><stop offset="0" stop-color="#fff"/><stop offset="1" stop-color="#fff" stop-opacity="0"/></linearGradient><linearGradient id="i" gradientTransform="matrix(.30663884 0 0 .23369958 1.592613 5.677061)" gradientUnits="userSpaceOnUse" spreadMethod="reflect" x1="25.525208" x2="25.525208" xlink:href="#h" y1="30.188753" y2="15.737678"/><linearGradient id="j" gradientTransform="matrix(.30663884 0 0 .23369958 1.640234 7.63247)" gradientUnits="userSpaceOnUse" spreadMethod="reflect" x1="25.525208" x2="25.525208" xlink:href="#h" y1="30.188753" y2="15.737678"/><linearGradient id="k" gradientUnits="userSpaceOnUse" x1="6" x2="7" xlink:href="#e" y1="8.9577" y2="17.957701"/><linearGradient id="l" gradientTransform="matrix(.25378586 0 0 .30501865 19.128979 -.685477)" gradientUnits="userSpaceOnUse" x1="9" x2="9" y1="17.957701" y2="8.9577"><stop offset="0" stop-opacity=".339506"/><stop offset="1" stop-opacity=".246914"/></linearGradient><linearGradient id="m" gradientTransform="matrix(.46574 0 0 .48509 .82234 1.5316)" gradientUnits="userSpaceOnUse" x1="23.783" x2="23.904" xlink:href="#n" y1="28.666" y2="16.007"/><linearGradient id="n"><stop offset="0" stop-color="#1e1e1e"/><stop offset="1" stop-color="#1e1e1e" stop-opacity="0"/></linearGradient><linearGradient id="o" gradientTransform="matrix(.46574 0 0 .48509 .82234 -4.1022)" gradientUnits="userSpaceOnUse" x1="23.929" x2="23.929" xlink:href="#n" y1="30.773" y2="45.531"/><linearGradient id="p" gradientTransform="matrix(.44186 0 0 .46429 1.3953 .30357)" gradientUnits="userSpaceOnUse" x1="25.577" x2="25.577" xlink:href="#h" y1="15" y2="44.001"/><linearGradient id="q" gradientTransform="matrix(-.46574 0 0 .48509 17.075 -4.0638)" gradientUnits="userSpaceOnUse" x1="23.929" x2="23.929" xlink:href="#n" y1="30.773" y2="45.531"/><g transform="translate(-2)"><path d="m3 1c2.2915074 0 9.999988.0008904 9.999988.0008904l.000012 13.9991096s-6.6666668 0-10 0c0-4.666666 0-9.3333336 0-14z" fill="url(#a)"/><path d="m12.5 14.5h-9.0000001v-13h9.0000001z" fill="none" stroke="url(#b)" stroke-linecap="round" stroke-opacity=".870588"/><path d="m2.4999621.499974c2.5206756 0 11.0000629.000954 11.0000629.000954l.000013 14.999098s-7.3333841 0-11.000076 0c0-5.000017 0-10.000035.0000001-15.000052z" fill="none" stroke="url(#d)" stroke-linejoin="round" stroke-width=".999922"/><path d="m9.277174 1.0000001c-2.923595 2.785415-4.992324 3.942359-6.277174 4.420259v1.478448c.714076-.233471 1.599342-.619164 2.52038-1.259698 2.11904-1.473684 4.64674-4.269396 4.64674-4.269396-.694786 1.513247-.896901 6.73017-.910326 13.6303869h3.743206l-.04794-1.866248c-.164184-.811487-.957816-5.1488069-1.0887-5.9376049-.344776-2.905015.260388-5.3465831.44914-6.1648971-.04911-.000005-1.61047-.031085-3.035326-.0312499zm-6.277174 7.686422v1.4256469c1.631445.747709 3.523823 2.675395 4.558424 4.887931h1.11413c-.490311-2.028702-3.66792-5.0887079-5.672554-6.3135779z" fill="url(#f)"/><path d="m12.3125 1.03125c-1.379115 1.1426409-5.9033863 4.5971408-9.3125 4.15625v3.15625s7.072543 1.4589543 10-1.1875v-6.0625c-.07417-.051631-.160615-.0625-.25-.0625zm.65625 7.5625c-1.305828 1.793247-2.608733 4.060196-3.5 6.40625h1.125c.690809-1.542126 1.561646-3.227005 2.375-4.40625z" fill="#fff6f6" fill-rule="evenodd" opacity=".1"/><g fill="none"><path d="m3.4992804 5.5202017v1.401819m5.656969 7.5779293h3.3429306v-5.4478063m-.0055-7.5520934h-3.4382436m-5.556188 7.2148914v1.3318833m4.038627 4.453125h1.049207" opacity=".3" stroke="url(#g)" stroke-linecap="round"/><path d="m2.5 5.315775v1.50405m6.831371 8.680175h4.168629v-5.777528m-.34468-9.22196402-3.817416-.000508m-6.837904 8.24935902v1.434608m5.05633 5.306092 1.149386.0099" opacity=".2" stroke="#410000" stroke-linejoin="round"/></g></g><g transform="translate(-1 -2.982349)"><rect fill="url(#k)" fill-rule="evenodd" height="9.999999" rx=".46667" ry=".45455" stroke="url(#l)" stroke-linecap="square" stroke-linejoin="round" width="13" x="3.5" y="8.48235"/><g fill="none"><rect height="7.975349" opacity=".4" rx=".036476" ry=".035005" stroke="url(#p)" stroke-linecap="square" width="10.914999" x="4.5" y="9.48235"/><path d="m7.8373363 14.21335-3.67771 3.327159" opacity=".5" stroke="url(#o)"/><path d="m3.9496263 10.319504 6.2653107 5.162846 5.785063-5.234755" opacity=".5" stroke="url(#m)"/><path d="m12.488937 14.25135 3.285263 3.25525" opacity=".5" stroke="url(#q)"/><path d="m4.6225392 9.5729978 5.5443428 4.4838982 5.248118-4.5850961" opacity=".7" stroke="url(#i)"/><path d="m8.5759014 14.960657-2.9638346 2.746918zm3.2867866.0146 2.561673 2.660403z" opacity=".7" stroke="url(#j)"/></g></g></svg>