<svg viewBox="0 0 16 16" xmlns="http://www.w3.org/2000/svg" xmlns:xlink="http://www.w3.org/1999/xlink"><linearGradient id="a" gradientTransform="matrix(.25378586 0 0 .30501865 19.128979 -.685477)" gradientUnits="userSpaceOnUse" x1="-1.908568" x2=".087848" y1="53.24361" y2=".061523"><stop offset="0" stop-opacity=".339506"/><stop offset="1" stop-opacity=".246914"/></linearGradient><linearGradient id="b" gradientTransform="matrix(.28571361 0 0 .30419701 -21.794627 -1.892395)" gradientUnits="userSpaceOnUse" x1="76.285912" x2="76.157906" y1="6.712274" y2="58.219463"><stop offset="0" stop-color="#f4f4f4"/><stop offset="1" stop-color="#dbdbdb"/></linearGradient><linearGradient id="c" gradientTransform="matrix(.24324324 0 0 .35135133 2.162164 -.432428)" gradientUnits="userSpaceOnUse" x1="24.267538" x2="24.435558" y1="12.780123" y2="35.439842"><stop offset="0" stop-color="#fff"/><stop offset=".1862026" stop-color="#fff" stop-opacity=".235294"/><stop offset="1" stop-color="#fff" stop-opacity=".156863"/><stop offset="1" stop-color="#fff" stop-opacity=".392157"/></linearGradient>

/&amp;amp;gt;<path d="m8 .49804688-2.7011719 4.01367192-4.69531248-.0019532 2.34960938 3.4902344-2.34960938 3.490234 4.69726558-.001953 2.6992188 4.011719 2.681641-4.013672 4.65625-.001953-2.328125-3.484375 2.328125-3.4863281-4.65625-.0019531z" fill="url(#b)" stroke="url(#a)" stroke-linecap="round" stroke-linejoin="round"/><path d="m7.9960938 2.3398438-1.8457032 2.7441406a1.0257456 1.0257456 0 0 1 -.8515625.453125l-2.7675781-.0019532 1.2734375 1.8925782a1.0257456 1.0257456 0 0 1 0 1.1445312l-1.2734375 1.8925784 2.7695312-.002a1.0257456 1.0257456 0 0 1 .8515626.453125l1.84375 2.740234 1.8320312-2.740234a1.0257456 1.0257456 0 0 1 .853516-.455078l2.736328-.002-1.261719-1.8886715a1.0257456 1.0257456 0 0 1 0-1.140625l1.263672-1.890625-2.738281-.00195a1.0257456 1.0257456 0 0 1 -.853516-.4549883z" fill="none" stroke="url(#c)" stroke-linecap="square"/></svg>