<?xml version="1.0" encoding="UTF-8" standalone="no"?>
<svg
   xmlns:dc="http://purl.org/dc/elements/1.1/"
   xmlns:cc="http://creativecommons.org/ns#"
   xmlns:rdf="http://www.w3.org/1999/02/22-rdf-syntax-ns#"
   xmlns:svg="http://www.w3.org/2000/svg"
   xmlns="http://www.w3.org/2000/svg"
   xmlns:xlink="http://www.w3.org/1999/xlink"
   xmlns:sodipodi="http://sodipodi.sourceforge.net/DTD/sodipodi-0.dtd"
   xmlns:inkscape="http://www.inkscape.org/namespaces/inkscape"
   viewBox="0 0 16 16"
   version="1.1"
   id="svg21"
   sodipodi:docname="sc_selectdb.svg"
   inkscape:version="0.92.3 (unknown)"
   inkscape:export-filename="/home/rizmut/Dokumen/Rizmut/Github/libreoffice-style-elementary/images_elementary/cmd/sc_selectdb.png"
   inkscape:export-xdpi="96"
   inkscape:export-ydpi="96">
  <metadata
     id="metadata27">
    <rdf:RDF>
      <cc:Work
         rdf:about="">
        <dc:format>image/svg+xml</dc:format>
        <dc:type
           rdf:resource="http://purl.org/dc/dcmitype/StillImage" />
        <dc:title></dc:title>
      </cc:Work>
    </rdf:RDF>
  </metadata>
  <defs
     id="defs25">
    <linearGradient
       x1="24.001757"
       y1="9.2952671"
       x2="22.875973"
       y2="37.167572"
       id="linearGradient3025"
       xlink:href="#linearGradient3875"
       gradientUnits="userSpaceOnUse"
       gradientTransform="matrix(0.12634274,0.02916852,8.4215749e-4,0.14326193,9.1693704,6.0603164)" />
    <linearGradient
       id="linearGradient3875">
      <stop
         id="stop3877"
         style="stop-color:#ffffff;stop-opacity:1"
         offset="0" />
      <stop
         id="stop3879"
         style="stop-color:#ffffff;stop-opacity:0.23529412"
         offset="0.13099068" />
      <stop
         id="stop3881"
         style="stop-color:#ffffff;stop-opacity:0.15686275"
         offset="0.90155029" />
      <stop
         id="stop3883"
         style="stop-color:#ffffff;stop-opacity:0.39215687"
         offset="1" />
    </linearGradient>
    <linearGradient
       x1="0.36465192"
       y1="19.599176"
       x2="28.05953"
       y2="19.599176"
       id="linearGradient3011"
       xlink:href="#linearGradient2867-449-88-871-390-598-476-591-434-148-57-177-8-3-4"
       gradientUnits="userSpaceOnUse"
       gradientTransform="matrix(0.17182618,0.03966919,0.00115871,0.1971116,8.1556208,5.3989132)"
       spreadMethod="reflect" />
    <linearGradient
       id="linearGradient2867-449-88-871-390-598-476-591-434-148-57-177-8-3-4">
      <stop
         id="stop3750-1-0-7"
         style="stop-color:#ffcd7d;stop-opacity:1"
         offset="0" />
      <stop
         id="stop3752-3-7-6"
         style="stop-color:#fc8f36;stop-opacity:1"
         offset="0.26238" />
      <stop
         id="stop3754-1-8-5"
         style="stop-color:#e23a0e;stop-opacity:1"
         offset="1" />
    </linearGradient>
    <linearGradient
       x1="30"
       y1="30"
       x2="-11"
       y2="30"
       id="linearGradient3013"
       xlink:href="#linearGradient4039"
       gradientUnits="userSpaceOnUse"
       gradientTransform="matrix(0.12955148,0.02990932,8.6766909e-4,0.14760348,9.0923237,5.9354746)"
       spreadMethod="reflect" />
    <linearGradient
       id="linearGradient4039">
      <stop
         id="stop4041"
         style="stop-color:#ba3d12;stop-opacity:1"
         offset="0" />
      <stop
         id="stop4043"
         style="stop-color:#db6737;stop-opacity:1"
         offset="1" />
    </linearGradient>
    <linearGradient
       id="a-3"
       gradientTransform="matrix(0.4282553,-0.43106531,0.53455872,0.53134798,-16.236606,2.214998)"
       gradientUnits="userSpaceOnUse"
       spreadMethod="pad"
       x1="23.575972"
       x2="23.575972"
       y1="25.356892"
       y2="31.210939">
      <stop
         offset="0"
         stop-color="#181818"
         id="stop2-6" />
      <stop
         offset=".13482948"
         stop-color="#dbdbdb"
         id="stop4-7" />
      <stop
         offset=".20224422"
         stop-color="#a4a4a4"
         id="stop6-5" />
      <stop
         offset=".26965895"
         stop-color="#fff"
         id="stop8-3" />
      <stop
         offset=".44650277"
         stop-color="#8d8d8d"
         id="stop10" />
      <stop
         offset=".57114136"
         stop-color="#959595"
         id="stop12" />
      <stop
         offset=".72038066"
         stop-color="#cecece"
         id="stop14" />
      <stop
         offset="1"
         stop-color="#181818"
         id="stop16" />
    </linearGradient>
  </defs>
  <sodipodi:namedview
     pagecolor="#ffffff"
     bordercolor="#666666"
     borderopacity="1"
     objecttolerance="10"
     gridtolerance="10"
     guidetolerance="10"
     inkscape:pageopacity="0"
     inkscape:pageshadow="2"
     inkscape:window-width="1366"
     inkscape:window-height="706"
     id="namedview23"
     showgrid="true"
     inkscape:snap-global="false"
     inkscape:zoom="20.85965"
     inkscape:cx="10.217733"
     inkscape:cy="6.5339107"
     inkscape:window-x="0"
     inkscape:window-y="0"
     inkscape:window-maximized="1"
     inkscape:current-layer="svg21">
    <inkscape:grid
       type="xygrid"
       id="grid837" />
  </sodipodi:namedview>
  <linearGradient
     id="a"
     gradientTransform="matrix(0 -.5372019 .57681717 0 -15.997188 19.865617)"
     gradientUnits="userSpaceOnUse"
     x1="11.517301"
     x2="11.483547"
     y1="13.14685"
     y2="3.511022">
    <stop
       offset="0"
       stop-color="#fff"
       id="stop2" />
    <stop
       offset=".45000002"
       stop-color="#fff"
       stop-opacity=".235294"
       id="stop4" />
    <stop
       offset=".65000004"
       stop-color="#fff"
       stop-opacity=".156863"
       id="stop6" />
    <stop
       offset="1"
       stop-color="#fff"
       stop-opacity=".392157"
       id="stop8" />
  </linearGradient>
  <path
     d="m0 2.9999995h16v3h-16z"
     fill="#8c8c8c"
     id="path11" />
  <path
     d="m .5 1.9999995c-.27630144-.0003844-.50038441.2236986-.5.5v12.0000005c-.00038442.276301.22369855.500384.5.5h5.5v-.998047h-5.00195312v-11.0039066h14.00390612v3.0019531h.998047v-3.5c.000384-.2763014-.223699-.5003844-.5-.5zm4.5 1v2h-4v1h4v2h-4v1h4v2.0000005h-4v1h4v2h1v-5.0000005-1-1.6269531-.3730469h.21875 3.78125 1 4v-1h-4v-2h-1v2h-4v-2z"
     fill="#565656"
     id="path13" />
  <g
     transform="matrix(0.56939411,0,0,0.56939411,6.6083907,5.8876487)"
     id="g29">
    <path
       style="opacity:0.15;fill:#0c0c0c;fill-rule:evenodd"
       inkscape:connector-curvature="0"
       d="m 12.463616,12.76963 c -0.135595,-0.02111 -0.239457,-0.01225 -0.307686,0.003 l -9.0874928,2.017202 -1.6724992,0.372194 -0.051633,0.008 -1.93871532,1.432663 4.94983412,-0.07402 0.040722,-0.0095 1.6834123,-0.370698 9.0845619,-2.03263 c 0.272911,-0.06092 -0.177299,-0.409927 -1.009983,-0.78431 -0.624515,-0.280788 -1.283742,-0.498541 -1.690521,-0.561884 z"
       id="path19" />
    <path
       style="fill:url(#a-3);stroke:#ce5c00;stroke-width:1.47011006;stroke-linejoin:round"
       inkscape:connector-curvature="0"
       d="m 2.0935243,10.874635 c 0.2951422,-0.214459 1.1824032,0.264723 2.0191722,1.096466 0.8347689,0.829753 1.2980207,1.694686 1.0892971,1.993333 -7.939e-4,0.0011 0.020363,0.01832 0.01955,0.01943 L 14.206632,4.7994385 C 14.469702,4.5305318 13.856313,3.6186405 12.992979,2.7604931 12.129647,1.9023457 11.380164,1.4597605 11.115988,1.7275838 Z"
       id="path21" />
    <path
       style="opacity:0.6;fill:#fcaf3e"
       inkscape:connector-curvature="0"
       d="m 2.1992381,10.874635 c 0.2951427,-0.21446 1.1824035,0.264723 2.0191727,1.096464 0.8347679,0.829754 1.2980203,1.694687 1.0892973,1.993335 -7.946e-4,0.0011 -0.026356,-0.364784 -0.02717,-0.363669 L 12.369329,6.3900299 13.856643,4.8745045 C 13.696934,4.5186916 13.732226,4.4452172 13.759375,4.8831052 13.968143,4.584456 13.565763,4.0030492 12.730997,3.173296 11.894227,2.3415534 11.509107,1.9680871 11.213967,2.1825459 l 4.19e-4,-0.026678 z"
       id="path23" />
    <path
       style="fill-rule:evenodd;stroke:#5d5d5d;stroke-width:1.47011006"
       inkscape:connector-curvature="0"
       d="m 0.25082957,15.786088 4.91506913,-1.781579 0.040488,-0.04054 C 5.4151111,13.665331 4.9464151,12.800042 4.1116463,11.970289 3.274877,11.138546 2.3887675,10.661813 2.093625,10.876272 Z"
       id="path25" />
    <path
       style="fill:#fcaf3e;fill-rule:evenodd;stroke:#ce5c00;stroke-width:0.73505503"
       inkscape:connector-curvature="0"
       d="M 0.75000151,14.456308 0.25022748,15.780695 1.5906565,15.291913 C 1.4735586,15.154451 1.3647918,15.015372 1.2256636,14.87708 1.0654897,14.717868 0.90936742,14.587289 0.75000151,14.456308 Z"
       id="path27" />
  </g>
</svg>
