<svg height="16" width="16" xmlns="http://www.w3.org/2000/svg" xmlns:xlink="http://www.w3.org/1999/xlink"><linearGradient id="a" gradientUnits="userSpaceOnUse" x1="7.814092" x2="7.814092" y1="1.282271" y2="14.669901"><stop offset="0" stop-color="#fff"/><stop offset=".507761" stop-color="#fff" stop-opacity=".235294"/><stop offset=".83456558" stop-color="#fff" stop-opacity=".156863"/><stop offset="1" stop-color="#fff" stop-opacity=".392157"/></linearGradient><linearGradient id="b" gradientTransform="matrix(.57484957 0 0 .4297553 -1164.0142 -1377.7717)" gradientUnits="userSpaceOnUse" x1="2035.1652" x2="2035.1652" y1="3208.0737" y2="3241.9966"><stop offset="0" stop-color="#ed5353"/><stop offset="1" stop-color="#c6262e"/></linearGradient><g transform="matrix(.86666666 0 0 .86666666 2.066667 2.066667)"><path d="m7.9999999.50000026c-4.138243 0-7.49999996 3.36175724-7.49999996 7.49999984 0 4.1382429 3.36175696 7.4999999 7.49999996 7.4999999 4.1382431 0 7.5000071-3.361757 7.5000001-7.4999999 0-4.1382426-3.361757-7.49999984-7.5000001-7.49999984z" fill="url(#b)" opacity=".99"/><path d="m7.9999999.50000016c-4.138243 0-7.49999996 3.36175724-7.49999996 7.49999994 0 4.1382429 3.36175696 7.4999999 7.49999996 7.4999999 4.1382431 0 7.5000071-3.361757 7.5000001-7.4999999 0-4.1382427-3.361757-7.49999994-7.5000001-7.49999994z" style="opacity:.5;fill:none;stroke:#7a0000;stroke-width:1.153846;stroke-linecap:round;stroke-linejoin:round"/><path d="m14.5 7.9997641c0 3.5899719-2.910366 6.5002359-6.4999211 6.5002359-3.589884 0-6.500079-2.910298-6.500079-6.5002359 0-3.5898015 2.910195-6.4997709 6.500079-6.4997709 3.5895551 0 6.4999211 2.9099694 6.4999211 6.4997709z" style="opacity:.4;fill:none;stroke-width:1.153846;stroke-linecap:round;stroke-linejoin:round;stroke:url(#a)"/><path d="m7 3a1.0001 1.0001 0 0 0 -1 1v4a1.0001 1.0001 0 0 0 .013672.1640625l.5 2.9999995a1.0001 1.0001 0 0 0 .1699219.410157c-.4040507.373847-.6835939.873545-.6835939 1.425781 0 1.047198.9528024 2 2 2s2-.952802 2-2c0-.552236-.2795432-1.051934-.6835938-1.425781a1.0001 1.0001 0 0 0 .1699219-.410157l.5-2.9999995a1.0001 1.0001 0 0 0 .0136719-.1640625v-4a1.0001 1.0001 0 0 0 -1-1z" fill="#7a0000" opacity=".05"/><path d="m7 4v4l.5 3h1l.5-3v-4zm1 8a1 1 0 0 0 -1 1 1 1 0 0 0 1 1 1 1 0 0 0 1-1 1 1 0 0 0 -1-1z" fill="#7a0000" opacity=".15"/><path d="m7 3v4l.5 3h1l.5-3v-4zm1 8a1 1 0 0 0 -1 1 1 1 0 0 0 1 1 1 1 0 0 0 1-1 1 1 0 0 0 -1-1z" fill="#fff"/></g><path d="m8.0862365.34659903c-.16-.017-.317.062-.4.213l-3.485 6.41599997-2.243-1.793c-.2-.11-.448-.04-.558.162l-1.00600002 1.298c-.11.2-.036.452.164.56 0 0 4.09300002 3.402 4.09800002 3.404.047.026.096.04.146.045.162.02.33-.056.412-.21l4.702-8.654c.1099995-.2.036-.45-.164-.56l-1.508-.83299997c-.05-.028-.106-.043-.16-.048z" fill="#9cde4a" stroke="#5ca12a" stroke-linecap="round" stroke-linejoin="round" stroke-width=".689"/></svg>