<svg height="16" width="16" xmlns="http://www.w3.org/2000/svg" xmlns:xlink="http://www.w3.org/1999/xlink"><linearGradient id="a" gradientTransform="matrix(.35645937 0 0 .35714296 -82.642136 -3.129465)" gradientUnits="userSpaceOnUse" x1="261.29803" x2="261.29803" y1="14.362497" y2="47.962486"><stop offset="0" stop-color="#9bdb4d"/><stop offset="1" stop-color="#68b723"/></linearGradient><linearGradient id="b" gradientTransform="matrix(.82943625 0 0 .83102689 -114.96693 -14.859033)" gradientUnits="userSpaceOnUse" x1="154.28181" x2="154.28181" y1="22.091986" y2="35.930286"><stop offset="0" stop-color="#fff"/><stop offset=".00641762" stop-color="#fff" stop-opacity=".235294"/><stop offset=".79602259" stop-color="#fff" stop-opacity=".156863"/><stop offset="1" stop-color="#fff"/></linearGradient><linearGradient id="c" gradientTransform="matrix(.35645937 0 0 .35714296 -70.784396 -3.129465)" gradientUnits="userSpaceOnUse" x1="225.22734" x2="225.22734" y1="17.162497" y2="45.162487"><stop offset="0" stop-color="#206b00"/><stop offset="1" stop-color="#206b00" stop-opacity="0"/></linearGradient><linearGradient id="d" gradientTransform="matrix(.06357945 0 0 .05566495 -84.875534 -1.787305)" gradientUnits="userSpaceOnUse" spreadMethod="reflect" x1="1507.9642" x2="1366.4091" y1="51.275898" y2="51.275898"><stop offset="0" stop-color="#b4b4b4"/><stop offset="1" stop-color="#fff"/></linearGradient><path d="m2 2.8679355 6-1.8257148 6 1.8257148c0 7.6320645-.5 8.8003885-6 11.9758145-5.5-3.183505-6-4.34375-6-11.9758145z" fill="url(#d)"/><path d="m2.5 3.2409828 5.5-1.6869858 5.5 1.6876078c0 7.2583952-.673568 8.4484362-5.5 11.2349782-4.6868391-2.712832-5.5-3.976583-5.5-11.2356002z" fill="none" opacity=".7" stroke="url(#b)" stroke-linecap="round" stroke-miterlimit="4.1"/><path d="m1.5 2.5 6.5-1.9780586 6.5 1.9780586c0 8.219422-.440191 9.414349-6.5 12.921882-6.0598092-3.507533-6.5-4.70246-6.5-12.921882z" fill="none" opacity=".5" stroke="#555761" stroke-linecap="round"/><path d="m8 1.972656-5 1.6660158c0 6.138327.5 7.7632522 5 10.3613282 4.5-2.566406 5-4.2497482 5-10.3613282z" fill="url(#a)"/><path d="m3.5 3.9999998 4.4997208-1.4999998 4.5007292 1.4999998c0 6.0714312-.936135 7.3602322-4.5001709 9.4218752-3.565152-2.062288-4.5002791-3.350444-4.5002791-9.4218752z" fill="none" opacity=".5" stroke="#555761" stroke-linecap="round"/><path d="m4.5 4.7109378 3.4997208-1.15625 3.5002792 1.164062c0 4.78125-.906052 6.0466732-3.4997209 7.5470002-2.5864769-1.496166-3.5002791-2.7657502-3.5002791-7.5548122z" fill="none" opacity=".15" stroke="url(#c)" stroke-linecap="round"/><path d="m2 2.8679355 6-1.8257148v13.8015293c-5.5-3.183505-6-4.34375-6-11.9758145z" fill="#fff" opacity=".2"/><path d="m10.381816 6.054406a.71291872.71428591 0 0 0 -.4901323.216243l-2.704079 2.709265-1.06381-1.065851c-.67157-.701428-1.708196.337186-1.00811 1.010043l2.07192 2.075894 3.7121893-3.719308c.466249-.454286.132204-1.244858-.517978-1.226286z" fill="#fff" opacity=".3"/><path d="m10.381816 5.054406a.71291872.71428591 0 0 0 -.4901323.216243l-2.704079 2.709265-1.06381-1.065851c-.67157-.701428-1.708196.337186-1.00811 1.010044l2.07192 2.075893 3.7121893-3.719308c.466249-.454286.132204-1.244858-.517978-1.226286z" fill="#206b00"/></svg>