<svg viewBox="0 0 16 16" xmlns="http://www.w3.org/2000/svg" xmlns:xlink="http://www.w3.org/1999/xlink"><linearGradient id="a" gradientUnits="userSpaceOnUse" x1="14" x2="6" y1="8" y2="16"><stop offset="0" stop-color="#fff"/><stop offset=".125" stop-color="#fff" stop-opacity="0"/><stop offset="1" stop-color="#fff" stop-opacity="0"/></linearGradient><clipPath id="b"><path d="m8 2.6855469v14.0000001l3.132812-3.820313 2.066407 4.986328a1.0001 1.0001 0 1 0 1.847656-.765624l-2.111328-5.095704 4.378906.009766z"/></clipPath><linearGradient id="c" gradientUnits="userSpaceOnUse" x1="9.978495" x2="9.978495" y1="13.912886" y2="-5.872059"><stop offset="0"/><stop offset="1" stop-color="#333"/></linearGradient><linearGradient id="d" gradientTransform="matrix(.67880146 0 0 .73786273 -2.234164 -2.56176)" gradientUnits="userSpaceOnUse" x1="24" x2="23.915924" y1="5" y2="22.445583"><stop offset="0" stop-color="#fff"/><stop offset=".063" stop-color="#fff" stop-opacity=".235"/><stop offset=".951" stop-color="#fff" stop-opacity=".157"/><stop offset="1" stop-color="#fff" stop-opacity=".392"/></linearGradient><linearGradient id="e" gradientTransform="matrix(.59436 0 0 .5999 -19.265 1.967)" gradientUnits="userSpaceOnUse" x1="25.132" x2="25.132" y1="15.5" y2="48.396"><stop offset="0" stop-color="#fafafa"/><stop offset="1" stop-color="#e2e1de"/></linearGradient><linearGradient id="f" gradientTransform="matrix(.94103 0 0 1.027 .46 -2.56)" gradientUnits="userSpaceOnUse" x1="7" x2="7" y1="-4" y2="17"><stop offset="0" stop-color="#cdf87e"/><stop offset=".262" stop-color="#a2e34f"/><stop offset=".661" stop-color="#68b723"/><stop offset="1" stop-color="#1d7e0d"/></linearGradient><path d="m1.4238281 1c-.234896 0-.4238281.2182204-.4238281.4902344v13.0195316c0 .272014.1889321.490234.4238281.490234h4.5761719v-10h9v-3.5097656c0-.272014-.188932-.4902344-.423828-.4902344z" fill="url(#e)"/><path d="m.5.52h15.02v3.98h-15.02z" fill="url(#f)"/><path d="m.49804688.00195313c-.27600001 0-.50000001.22399999-.50000001.49999999l.00195313 14.99804688c0 .276.224.5.5.5h5.5v-.998047h-5.00195312l-.00195313-10.001953h4.00390625v2h-4v1h4v3h-4v1h4v3h1v-3-1-3-1-2h4 1 4 .998047.001953v-1h-.002v-3.49804688c0-.276-.224-.49999999-.5-.49999999zm.49804687.99804687h14.00390625v3h-4.001953v-2.9980469h-1.0000001v2.9980469h-4v-2.9980469h-1v2.9980469h-4.00195315z" opacity=".32"/><path d="m1.5 1.5000004h13v1.9999996h-10v11h-3z" fill="none" stroke="url(#d)" stroke-linecap="round" stroke-linejoin="round" stroke-width="1.012911"/><path d="m.5 0c-.27614237 0-.5.22385763-.5.5v4.5h.998v-4.002h14.004v4.002h.998v-4.5c0-.27614237-.223858-.5-.5-.5zm4.5 1v3h-4v1h14v-1h-4v-3h-1v3h-4v-3z" fill="#126400" fill-opacity=".294118"/><g transform="matrix(.69327406 0 0 .69327406 4.147082 6)"><path d="m8.1884834 1.6672989v10.9999991l2.5652276-2.9424834 2.044188 3.7280744c.494727 1.242916 2.142881-.74317 1.613492-1.971723l-1.874329-2.6219434 3.117524-.2046366z" fill-rule="evenodd" opacity=".05" stroke="#000" stroke-linejoin="round" stroke-width="4.327293"/><path d="m8.1884834 1.6672989v10.9999991l2.5652276-2.9424834 2.044188 3.7280744c.494727 1.242916 2.142881-.74317 1.613492-1.971723l-1.874329-2.6219434 3.117524-.2046366z" fill-rule="evenodd" opacity=".2" stroke="#000" stroke-linejoin="round" stroke-width="2"/><path d="m7 0v11l2.5652277-2.9424843 2.0441883 3.7280743c.494704 1.24297 2.357232.471184 1.827788-.757391l-2.088625-3.8362743 3.117523-.2046366z" fill="none" stroke="#fff" stroke-width="2.884862"/><path clip-path="url(#b)" d="m6.9891304 6.9358866v11.1195654l2.59311-2.974467 2.0664066 3.768597c.500102 1.256433 2.382807.476286 1.847656-.765624l-2.111328-3.877973 3.151411-.206867z" fill="none" opacity=".4" stroke="url(#a)" stroke-width="2.916219" transform="matrix(.98924729 0 0 .98924729 .086022 -6.861307)"/><path d="m7 0v11l2.5652277-2.9424843 2.0441883 3.7280743c.494704 1.24297 2.357232.471184 1.827788-.757391l-2.088625-3.8362743 3.651421-.1919247z" fill="url(#c)" fill-rule="evenodd"/></g></svg>