<svg viewBox="0 0 16 16" xmlns="http://www.w3.org/2000/svg">


     /&gt;
 <path d="m5 3v3h6v-3z" fill="#8c8c8c"/><g fill="#565656"><path d="m6 2c-.554 0-1 .446-1 1v10c0 .554.446 1 1 1h4c .554 0 1-.446 1-1v-10c0-.554-.446-1-1-1zm0 1h4v10h-4z"/><path d="m6 5h4v1h-4z"/><path d="m6 9h4v1h-4z"/></g><path d="m13.775202 5.3467027c-.159273-.01626-.317621.0622-.399456.212838l-3.4866888 6.4166833-2.2417151-1.792833c-.1996823-.109749-.4488172-.039146-.5579296.161701l-1.0052801 1.298169c-.10911.200843-.035708.451356.1639731.561103 0 0 4.0930915 3.400241 4.0981415 3.402756.0468.02572.09574.03867.145489.04499.162514.02065.328826-.05614.412363-.209915l4.702263-8.6536963c.109111-.200846.03571-.451357-.163972-.561104l-1.50879-.832781c-.04992-.02744-.105307-.04249-.158398-.04791z" fill="#9cde4a" stroke="#5ca12a" stroke-linecap="round" stroke-linejoin="round" stroke-width=".689434"/></svg>