<svg viewBox="0 0 16 16" xmlns="http://www.w3.org/2000/svg" xmlns:xlink="http://www.w3.org/1999/xlink"><linearGradient id="a" gradientTransform="matrix(.59436 0 0 .5999 -19.265 -.033)" gradientUnits="userSpaceOnUse" x1="25.132" x2="25.132" y1="15.5" y2="48.396"><stop offset="0" stop-color="#fafafa"/><stop offset="1" stop-color="#e2e1de"/></linearGradient><rect fill="url(#a)" height="10" rx=".424" ry=".491" width="14" x="1" y="3"/><path d="m.498047.0019531-.5.5.001953 12.9980469.5.5h15l.5-.5-.002-12.9980469-.5-.5zm.49804688.9980469h14.00390612l.002 12.001953h-14.00395312zm7.00195312.0019531.001953 5.9980469h-7v1h7v5h1v-5h6v-1h-6l-.001953-5.9980469z" fill="#acacac"/><path d="m.5.5v14h15v-14zm2 2h11v10h-11z" fill="#fcaf3e"/><g fill="none" stroke="#ce5c00"><path d="m.5.5h15v14h-15z"/><path d="m2.5 2.5h11v10h-11z"/></g></svg>