<svg height="16" viewBox="0 0 4.2333332 4.2333335" width="16" xmlns="http://www.w3.org/2000/svg" xmlns:xlink="http://www.w3.org/1999/xlink"><linearGradient id="a" gradientTransform="matrix(.28571361 0 0 .30419701 -24.755432 -3.970785)" gradientUnits="userSpaceOnUse" x1="87.830681" x2="81.932365" y1="12.907022" y2="65.448471"><stop offset="0" stop-color="#cd9ef7"/><stop offset="1" stop-color="#a56de2"/></linearGradient><linearGradient id="b" gradientTransform="matrix(.24324324 0 0 .35135133 2.162164 -.432428)" gradientUnits="userSpaceOnUse" x1="24.250988" x2="23.999992" y1="6.918621" y2="41.076912"><stop offset="0" stop-color="#fff"/><stop offset=".00013332" stop-color="#fff" stop-opacity=".235294"/><stop offset="1" stop-color="#fff" stop-opacity=".156863"/><stop offset="1" stop-color="#fff" stop-opacity=".392157"/></linearGradient><g transform="scale(.26458333)"><path d="m4.4667969.5a4.5 4.5 0 0 1 -3.9667969 3.96875v7.064453a4.5 4.5 0 0 1 3.96875 3.966797h7.064453a4.5 4.5 0 0 1 3.966797-3.96875v-7.0644531a4.5 4.5 0 0 1 -3.96875-3.9667969z" fill="url(#a)" stroke="#7239b3" stroke-linejoin="round" stroke-opacity=".501961"/><path d="m5.2890625 1.5a5.5 5.5 0 0 1 -3.7851563 3.7851562c.00283 1.8092481.00498 3.6204395.00781 5.4296878a5.5 5.5 0 0 1 3.77344 3.785156h5.4257818a5.5 5.5 0 0 1 3.794921-3.787109c-.000911-1.8072945-.003-3.6165353-.0039-5.4238285a5.5 5.5 0 0 1 -3.787115-3.7890625z" fill="none" opacity=".5" stroke="url(#b)"/></g></svg>