<svg viewBox="0 0 16 16" xmlns="http://www.w3.org/2000/svg"><path d="m0 3h11v3h-11z" fill="#8c8c8c"/><path d="m .5 2a .49930579.49930579 0 0 0 -.5.5v10.5h.99804688v-10.0019531h14.00195312v-.9980469zm4.5 1v2h-4v1h4v3h-4v1h4 1v-1-3h4 1v-1-2h-1v2h-4v-2z" fill="#565656"/><path d="m15 2v .9980469h.001953v10.0039061h-14.00390612v-.001953h-.99804688v.5a.49930579.49930579 0 0 0  .5.5h15a .49930579.49930579 0 0 0  .5-.5v-11a .49930579.49930579 0 0 0 -.5-.5zm-4 3v1h4v-1zm0 1h-1v3h-4v1h4v3h1v-3h4v-1h-4zm-5 4h-1v3h1z" fill="#8d8d8d" fill-opacity=".298039"/></svg>