<svg viewBox="0 0 16 16" xmlns="http://www.w3.org/2000/svg" xmlns:xlink="http://www.w3.org/1999/xlink"><linearGradient id="a" gradientUnits="userSpaceOnUse" x1="10.5" x2="10.5" y1="5.5" y2="15.5"><stop offset="0" stop-color="#9bdb4d"/><stop offset="1" stop-color="#68b723"/></linearGradient><linearGradient id="b" gradientTransform="matrix(-.99999999 0 0 .99999999 11 5)" gradientUnits="userSpaceOnUse" x1="3" x2="3" xlink:href="#n" y1="2" y2="9"/><linearGradient id="c" gradientUnits="userSpaceOnUse" x1="11.5" x2="11.5" y1="11" y2="18"><stop offset="0" stop-color="#ffa154"/><stop offset="1" stop-color="#f37329"/></linearGradient><linearGradient id="d" gradientUnits="userSpaceOnUse" x1="13.941406" x2="13" xlink:href="#e" y1="14.353133" y2="15.304965"/><linearGradient id="e"><stop offset="0" stop-color="#fff"/><stop offset="0" stop-color="#fff" stop-opacity=".235294"/><stop offset=".5" stop-color="#fff" stop-opacity=".156863"/><stop offset="1" stop-color="#fff" stop-opacity=".392157"/></linearGradient><linearGradient id="f" gradientTransform="matrix(-1 0 0 1 23 0)" gradientUnits="userSpaceOnUse" x1="13.941406" x2="13" xlink:href="#e" y1="14.353133" y2="15.304965"/><linearGradient id="g" gradientTransform="matrix(-.99999999 0 0 .99999999 6 10)" gradientUnits="userSpaceOnUse" x1="3" x2="3" xlink:href="#n" y1="2" y2="4"/><linearGradient id="h" gradientTransform="matrix(-.99999999 0 0 .99999999 6 5)" gradientUnits="userSpaceOnUse" x1="3" x2="3" xlink:href="#n" y1="2" y2="4"/><linearGradient id="i" gradientTransform="matrix(-.99999999 0 0 .99999999 6 0)" gradientUnits="userSpaceOnUse" x1="3" x2="3" xlink:href="#n" y1="2" y2="4"/><linearGradient id="j" gradientTransform="matrix(-.99999999 0 0 .99999999 16 10)" gradientUnits="userSpaceOnUse" x1="3" x2="3" xlink:href="#n" y1="2" y2="4"/><linearGradient id="k" gradientTransform="matrix(-.99999999 0 0 .99999999 16 5)" gradientUnits="userSpaceOnUse" x1="3" x2="3" xlink:href="#n" y1="2" y2="4"/><linearGradient id="l" gradientTransform="matrix(-.99999999 0 0 .99999999 16 0)" gradientUnits="userSpaceOnUse" x1="3" x2="3" xlink:href="#n" y1="2" y2="4"/><linearGradient id="m" gradientTransform="matrix(-.99999999 0 0 .99999999 11 10)" gradientUnits="userSpaceOnUse" x1="3" x2="3" xlink:href="#n" y1="2" y2="4"/><linearGradient id="n" gradientTransform="matrix(0 -.5372 .57682 0 -15.997 19.866)" gradientUnits="userSpaceOnUse" x1="30.655001" x2="30.827999" y1="65.686996" y2="48.688"><stop offset="0" stop-color="#fff"/><stop offset="0" stop-color="#fff" stop-opacity=".235"/><stop offset="1" stop-color="#fff" stop-opacity=".157"/><stop offset="1" stop-color="#fff" stop-opacity=".392"/></linearGradient><linearGradient id="o" gradientTransform="matrix(-.99999999 0 0 .99999999 11 5)" gradientUnits="userSpaceOnUse" x1="3" x2="3" xlink:href="#n" y1="2" y2="4"/><linearGradient id="p" gradientTransform="matrix(-.99999999 0 0 .99999999 11 0)" gradientUnits="userSpaceOnUse" x1="3" x2="3" xlink:href="#n" y1="2" y2="4"/><linearGradient id="q" gradientTransform="matrix(.59436 0 0 .5999 -19.265 1.967)" gradientUnits="userSpaceOnUse" x1="25.132" x2="25.132" y1="15.5" y2="48.396"><stop offset="0" stop-color="#fafafa"/><stop offset="1" stop-color="#e2e1de"/></linearGradient><rect fill="url(#q)" height="15" rx=".424" ry=".491" width="15" x=".5" y=".5"/><path d="m.49804688.00195313c-.27600001 0-.50000001.22399999-.50000001.49999999l.00195313 14.99804688c0 .276.224.5.5.5h15c.276 0 .5-.224.5-.5.0019-5.003728-.002-9.9990437-.002-14.99804688 0-.276-.224-.49999999-.5-.49999999zm.49804687.99804687h14.00390625v4h-4l-.002-3.9980469h-.9999531l.0019531 3.9980469h-4l-.00195-3.9980469h-1l.00195 3.9980469h-4v1h4v4h-4v1h4v4h1v-4h4v4h1v-4h4l.002 4.001953h-14.00395312zm5.00390625 5h4v4h-4zm5 0h4v4h-4z" fill="#030303" opacity=".32"/><g fill="none" stroke-linecap="square"><path d="m9.4999996 11.5h-2.9999996v3h2.9999996z" stroke="url(#m)"/><path d="m9.4999996 6.5h-2.9999996v3h2.9999996z" stroke="url(#o)"/><path d="m9.4999996 1.5000001h-2.9999996v3h2.9999996z" stroke="url(#p)"/><path d="m4.4999996 11.5h-2.9999996v3h2.9999996z" stroke="url(#g)"/><path d="m4.4999996 6.5h-2.9999996v3h2.9999996z" stroke="url(#h)"/><path d="m4.4999996 1.5000001h-2.9999996v3h2.9999996z" stroke="url(#i)"/><path d="m14.5 11.5h-3v3h3z" stroke="url(#j)"/><path d="m14.5 6.5h-3v3h3z" stroke="url(#k)"/><path d="m14.5 1.5000001h-3v3h3z" stroke="url(#l)"/></g><path d="m15.5 5.5v10h-10v-10z" fill="url(#a)" stroke-width="1.111111"/><path d="m16 6c0-.554-.446-1-1-1h-9c-.554 0-1 .446-1 1v9c0 .554.446 1 1 1h9c.554 0 1-.446 1-1zm-1 0v9h-9v-9z" fill="#206b00" fill-opacity=".501961"/><path d="m14.5 6.5h-7.9999996v8h7.9999996z" fill="none" opacity=".5" stroke="url(#b)" stroke-linecap="square"/><g transform="translate(-1 -4)"><path d="m7.4999998 14.5 3.0000002-3v6zm8.0000002 0-3-3v6z" style="stroke:#a62100;stroke-width:1.001575;stroke-linecap:round;stroke-linejoin:round;stroke-opacity:.501961;fill:url(#c)"/><g fill="none"><path d="m13.5 15.078125v-1.15625l.582031.578125z" opacity=".5" stroke="url(#d)"/><path d="m9.5 15.078125v-1.15625l-.582031.578125z" opacity=".5" stroke="url(#f)"/></g></g></svg>