<svg height="16" viewBox="0 0 16 16" width="16" xmlns="http://www.w3.org/2000/svg" xmlns:xlink="http://www.w3.org/1999/xlink"><linearGradient id="a" gradientUnits="userSpaceOnUse" x1="10.186459" x2="10.186459" y1="2.549" y2="9.641272"><stop offset="0" stop-color="#64baff"/><stop offset="1" stop-color="#3689e6"/></linearGradient><linearGradient id="b" gradientUnits="userSpaceOnUse" x1="10.244605" x2="9.855729" y1="3.30187" y2="3.73827"><stop offset="0" stop-color="#fff"/><stop offset="0" stop-color="#fff" stop-opacity=".235"/><stop offset=".539" stop-color="#fff" stop-opacity=".157"/><stop offset="1" stop-color="#fff" stop-opacity=".392"/></linearGradient><linearGradient id="c" gradientUnits="userSpaceOnUse" x1="8.334375" x2="8.334375" xlink:href="#e" y1="2.36523" y2="4.614189"/><linearGradient id="d" gradientUnits="userSpaceOnUse" x1="9.134326" x2="9.128125" xlink:href="#e" y1="1.753905" y2="3.688147"/><linearGradient id="e"><stop offset="0" stop-color="#fff"/><stop offset=".5" stop-color="#fff" stop-opacity=".235"/><stop offset=".75" stop-color="#fff" stop-opacity=".157"/><stop offset="1" stop-color="#fff" stop-opacity=".392"/></linearGradient><linearGradient id="f" gradientTransform="matrix(.28571361 0 0 .30419701 -.857089 .232631)" gradientUnits="userSpaceOnUse" x1="25.132275" x2="26.793295" y1=".985206" y2="18.959322"><stop offset="0" stop-color="#f4f4f4"/><stop offset="1" stop-color="#dbdbdb"/></linearGradient><linearGradient id="g" gradientTransform="matrix(.24324324 0 0 .35135133 2.162164 -.432428)" gradientUnits="userSpaceOnUse" x1="23.99999" x2="23.999838" y1="6.923065" y2="14.038376"><stop offset="0" stop-color="#fff"/><stop offset="0" stop-color="#fff" stop-opacity=".235294"/><stop offset="1" stop-color="#fff" stop-opacity=".156863"/><stop offset="1" stop-color="#fff" stop-opacity=".392157"/></linearGradient><linearGradient id="h" gradientTransform="matrix(.25378586 0 0 .30501865 19.128979 -.685477)" gradientUnits="userSpaceOnUse" x1="-53.389248" x2="-51.786404" y1="25.669893" y2="2.906247"><stop offset="0" stop-opacity=".339506"/><stop offset="1" stop-opacity=".246914"/></linearGradient><g transform="matrix(.93969262 -.34202014 .34202014 .93969262 3.66068 5.911265)"><path d="m1.0000379 1.000026c2.2915074 0 3.9999252-.0000636 3.9999252-.0000636l-.0000259 3.9990836-3.9999372.000954z" fill="url(#f)"/><g fill="none" transform="translate(-1.999962 .000026)"><path d="m6.4999051 5.499961-2.9999372.000954.000032-4.000915 2.9999372-.000954z" stroke="url(#g)" stroke-linecap="round"/><path d="m2.4999621.49997396h5l-.000019 6.00001304-5.0000131.000954z" stroke="url(#h)" stroke-linejoin="round" stroke-width=".999922"/></g></g><g transform="matrix(-.86178733 -2.3677412 -2.3677412 .86178733 19.553141 31.697245)"><path d="m7.7044465 1.753905c.042122 1.3724856.5031972 2.1779892 1.9528454 2.0231256v.7549856l1.2501501-1.0270976-1.2501501-1.155704v.793746c-1.1223336.0592364-1.2588422-.4419317-1.3890556-1.3890556z" style="stroke:#002e99;stroke-width:.396873;stroke-linecap:square;stroke-linejoin:round;stroke-miterlimit:20;stroke-opacity:.490196;fill:url(#a)"/><g fill="none"><path d="m9.8419049 3.4395834.00476-.6794884.7658021.7464222-.7681953.7214093-.0033633-.6253431" opacity=".5" stroke="url(#b)" stroke-width=".26"/><g stroke-width=".396873"><path d="m9.6572919 3.5566038c-1.1265459.0527097-1.6538422-.2152067-1.7316686-1.8026988" opacity=".5" stroke="url(#c)"/><path d="m9.6572919 3.4006708c-.5447375.0454536-1.4507879-.0518308-1.5874921-1.4483293h-.291331" opacity=".5" stroke="url(#d)"/></g></g></g><g transform="matrix(.86178733 2.3677412 2.3677412 -.86178733 -3.553141 -15.697245)"><path d="m7.7044465 1.753905c.042122 1.3724856.5031972 2.1779892 1.9528454 2.0231256v.7549856l1.2501501-1.0270976-1.2501501-1.155704v.793746c-1.1223336.0592364-1.2588422-.4419317-1.3890556-1.3890556z" style="stroke:#002e99;stroke-width:.396873;stroke-linecap:square;stroke-linejoin:round;stroke-miterlimit:20;stroke-opacity:.490196;fill:url(#a)"/><g fill="none"><path d="m9.8419049 3.4395834.00476-.6794884.7658021.7464222-.7681953.7214093-.0033633-.6253431" opacity=".5" stroke="url(#b)" stroke-width=".26"/><g stroke-width=".396873"><path d="m9.6572919 3.5566038c-1.1265459.0527097-1.6538422-.2152067-1.7316686-1.8026988" opacity=".5" stroke="url(#c)"/><path d="m9.6572919 3.4006708c-.5447375.0454536-1.4507879-.0518308-1.5874921-1.4483293h-.291331" opacity=".5" stroke="url(#d)"/></g></g></g></svg>