<svg viewBox="0 0 16 16" xmlns="http://www.w3.org/2000/svg" xmlns:xlink="http://www.w3.org/1999/xlink"><linearGradient id="a" gradientTransform="matrix(.59436 0 0 .5999 -24.26337 -.031024)" gradientUnits="userSpaceOnUse" x1="42.505165" x2="42.505165" y1="1.71866" y2="23.388939"><stop offset="0" stop-color="#fafafa"/><stop offset="1" stop-color="#e2e1de"/></linearGradient><linearGradient id="b" gradientTransform="matrix(.67880146 0 0 .73786273 -2.232534 -1.559784)" gradientUnits="userSpaceOnUse" x1="23.916399" x2="23.915924" y1="6.182365" y2="18.379787"><stop offset="0" stop-color="#fff"/><stop offset="0" stop-color="#fff" stop-opacity=".235"/><stop offset=".951" stop-color="#fff" stop-opacity=".157"/><stop offset="1" stop-color="#fff" stop-opacity=".392"/></linearGradient><path d="m.50195312 1.5019531v11.9999999h2.99999998l2-2.878906v2.878906h3l2.7792969-3.9999999h4.220703v-8h-5-4.9999999z" fill="url(#a)"/><path d="m.50195312 1.0019531c-.276-.0000539-.49999999.224-.49999999.5l.00195312 11.9980469c0 .276.224.499946.5.5l3.21093755.001953 1.2890624-1.849609v1.347656c0 .276.2240001.499946.5.5l3.2109376.001953 2.7871092-4h3.5 1c-.000454-2.6636059-.001953-4.9586116-.001953-8.4980468 0-.276-.224-.4999461-.5-.5h-5l-5.0019531-.0019531zm.49804688.9980469h4.0019531v.0039062h-.0019531l.0019531 2.9980469h-4zm5 .0019531h4.001953v.0019531h-.001953l.001953 2.9980469h-3.9999999l-.0019531-2.9980469zm5 0h4.001953v3h-4l-.001953-2.7246093v-.2734376c0-.0007811 0-.0011718 0-.0019531zm-9.9980469 4h4v3h-4zm5 0h3.9999999v3h-3.9999999zm4.9999999 0h4v3h-4c-.000238-.9175728.000317-2.0560243 0-3zm-9.9999999 3.9999999h2 2l-2 3h-2zm5.5 0h1.5 1.9999999l-1.9999999 3h-2v-2.283203z" fill="#666" fill-opacity=".501961"/><path d="m6.5 2.5v.0019531h-4.9980469v9.9999999h1l3-3.9999999h.9980469v3.9980469h1l3-4h4v-6z" style="opacity:.8;fill:none;stroke-width:1.012911;stroke-linecap:round;stroke-linejoin:round;stroke:url(#b)"/><path d="m.501953 1.5019531v11.9999999h3l2-2.878906v2.878906h3l2.779297-3.9999999h4.220703v-8h-5-5z" fill="#8cd5ff"/><path d="m.501953 1.0019531c-.276-.0000539-.5.224-.5.5l.001953 11.9980469c0 .276.224.499946.5.5l3.210938.002 1.2890621-1.849609v1.351562c0 .276.224.499946.5.5l3.2109375.002 2.7871094-4h3.5 1c-.000454-2.6636996-.001953-4.9587053-.001953-8.4981405 0-.276-.224-.4999461-.5-.5h-4.984375c-.0055-.0001823-.01005-.00391-.01563-.00391zm.498047.9980469h4.001953v.00391h-.001953l.00195 2.9980469h-4zm4.9999999.00391h4.0019531v.00391h-.00195l.00195 2.9941406h-4zm5.0000001.0019493h4.001953v3h-4l-.001953-2.7226562v-.2753906c0-.0007809 0-.00117 0-.00195zm-9.998047 3.9960938h4v3h-4zm5 .00391h4v2.9960938h-4zm5 0h4v3h-4c-.000238-.917631.000317-2.056151 0-3zm-10 3.9960937h2 2l-2 3h-2zm5.4980469.0039h1.5019531 2l-2 3h-2v-2.2871068z" fill="#002e99" fill-opacity=".501961"/></svg>