<svg viewBox="0 0 16 16" xmlns="http://www.w3.org/2000/svg">

     /&gt;
 <path d="m1.5 8c-.047939 10.516821 4.5394365 5.650016 7 0 2.460563-5.6500161 5.952061-5 6 0 .04794 5-5.4175778 4.109336-5.9587889.054668s-6.9932717-10.5714887-7.0412111-.054668z" fill="none" stroke="#555753" stroke-linejoin="round"/><g transform="translate(-5.00002 3.00005)"><path d="m5.50002 8.50001h4v3.99994h-4z" fill="#d3d7cf" stroke="#888a85" stroke-linecap="round" stroke-linejoin="round"/><path d="m6.50002 9.50002h2v2.00008h-2z" fill="none" stroke="#fff" stroke-linecap="round"/></g><g transform="translate(6 -2.99995)"><path d="m5.50002 8.50001h4v3.99994h-4z" fill="#d3d7cf" stroke="#888a85" stroke-linecap="round" stroke-linejoin="round"/><path d="m6.50002 9.50002h2v2.00008h-2z" fill="none" stroke="#fff" stroke-linecap="round"/></g><g transform="translate(-4.00002 -8.00001)"><path d="m5.50002 8.50001h4v3.99994h-4z" fill="#d3d7cf" stroke="#888a85" stroke-linecap="round" stroke-linejoin="round"/><path d="m6.50002 9.50002h2v2.00008h-2z" fill="none" stroke="#fff" stroke-linecap="round"/></g><g transform="matrix(.79859265 0 0 .80150201 3.204895 3.175968)"><path d="m10.212891 7.0820312c-.04519.0135-.08814.041581-.121094.080078-.06594.076995-.08053.1832-.03516.265625l1.208984 2.3007812c.108546.2062348.03449.4808766-.167969.7675786-.204399.289418-.536596.584777-.955078.826172-.4185718.241455-.831725.383321-1.173828.410156-.340083.0267-.6040676-.05687-.7128906-.263672l-1.2148398-2.3144531c-.0339-.0642-.09729-.1039825-.171875-.109375-.07454-.00525-.150637.026084-.203125.083984-.02829.03015-.049627.064568-.060547.1035157-.303252 1.1099394-.2389549 2.3672704.2050781 3.2109374.606415 1.152179 1.9540853 1.653991 3.3085943 1.355469.540927.160605 1.251004.536592 2.076171 1.357422l.865235.84375h2.939453v-1.259766l-1.683594-1.695312c-.743865-.739949-1.122711-1.387266-1.308594-1.902344.213754-.733072.173755-1.5020846-.177734-2.1699218-.443861-.8432992-1.422513-1.5636595-2.478516-1.8886718-.04528-.014813-.09349-.015453-.138671-.00195z" fill="#9cde4a" fill-rule="evenodd"/><path d="m10.285156 6.6425781c-.198787-.0010556-.3900426.0870081-.519531.2382813-.1722928.2011781-.2272846.4971169-.0859375.7539062l1.2031245 2.2949219c-.0023-.00442.01933.097385-.136718.3183595-.157218.222612-.446048.486409-.8183596.701172-.3748111.216211-.7420608.333742-.9941406.353515-.126899.01-.2197817-.0059-.2636719-.02148-.040774-.01444-.033292-.01333-.03125-.01172l-.00195-.002-1.2148469-2.3124559a.43084286.43084286 0 0 0 0-.00195c-.1016301-.1924737-.3104343-.3226348-.5214844-.3378937-.2089575-.0147173-.4062718.0662888-.5488281.2207031h-.00195c-.00105.00114-.00287.0008084-.00391.00195a.43084286.43084286 0 0 0 -.09375.171875c-.018705.037435-.048792.065498-.060547.1074219a.43084286.43084286 0 0 0 -.00195.00195c-.3291137 1.2045966-.2779677 2.5408016.2402344 3.5253906.6830795 1.297841 2.1727361 1.86472 3.6406241 1.595703-.02342-.0076-.05165-.02064-.074218-.02734l.214845.0078c-.04674.0103-.09382.01095-.140626.01953.458333.149495 1.074387.478698 1.820313 1.220704a.43084286.43084286 0 0 0  .0039.0039l.548831.535178h1.232422l-1.179687-1.152344.002.0039c-.866331-.861724-1.638151-1.281441-2.255859-1.464843a.43084286.43084286 0 0 0 -.216797-.0078c-1.1966863.263709-2.3260641-.171595-2.8340318-1.136725-.3006942-.571324-.3477458-1.453726-.2285156-2.3105474l.9121094 1.7382814c.1099254.2089.3062061.3531.5058594.423828.1996533.07073.4079096.08314.6210937.06641.432126-.0339.8931357-.198144 1.3554689-.464844.464652-.268027.840217-.592994 1.091797-.949218.248878-.352429.416682-.7999107.197265-1.2167971l-.9375-1.7832031c.752271.3458934 1.438028.8516135 1.740235 1.4257812.294066.558733.331576 1.210088.144531 1.851563a.43084286.43084286 0 0 0  .0078.265624c.210302.582742.629285 1.283786 1.410157 2.060547l1.988281 2v-1.222656l-1.378906-1.386719a.43084286.43084286 0 0 0 -.002-.002c-.68794-.68435-1.009234-1.25038-1.175723-1.693316.174548-.762599.141105-1.5637245-.232421-2.2734376-.517432-.9830744-1.573486-1.7413004-2.726563-2.0976563-.065963-.0213516-.132956-.0308981-.199219-.03125z" fill="#5ca12a" fill-rule="evenodd"/></g></svg>