<svg viewBox="0 0 16 16" xmlns="http://www.w3.org/2000/svg" xmlns:xlink="http://www.w3.org/1999/xlink"><linearGradient id="a" gradientTransform="matrix(.67880146 0 0 .73786273 -2.234164 -2.56176)" gradientUnits="userSpaceOnUse" x1="24" x2="23.915924" y1="5" y2="22.445583"><stop offset="0" stop-color="#fff"/><stop offset=".063" stop-color="#fff" stop-opacity=".235"/><stop offset=".951" stop-color="#fff" stop-opacity=".157"/><stop offset="1" stop-color="#fff" stop-opacity=".392"/></linearGradient><linearGradient id="b" gradientUnits="userSpaceOnUse" x1="11.7" x2="11.7" y1="1.834" y2="12.026"><stop offset="0" stop-color="#f6f6f6"/><stop offset="1" stop-color="#e6e6e6"/></linearGradient><linearGradient id="c" gradientUnits="userSpaceOnUse" x1="9.7" x2="9.7" y1="2.783" y2="15.8025"><stop offset="0" stop-color="#888"/><stop offset="1" stop-color="#626262"/></linearGradient><linearGradient id="d" gradientTransform="matrix(0 0 0 0 8.7 8.7)" gradientUnits="userSpaceOnUse" x1="86.133003" x2="84.639" y1="105.105" y2="20.895"><stop offset="0" stop-color="#efefef"/><stop offset="1" stop-color="#c9c9c9"/></linearGradient><linearGradient id="e" gradientTransform="matrix(.59436 0 0 .5999 -19.265 1.967)" gradientUnits="userSpaceOnUse" x1="25.132" x2="25.132" y1="15.5" y2="48.396"><stop offset="0" stop-color="#fafafa"/><stop offset="1" stop-color="#e2e1de"/></linearGradient><linearGradient id="f" gradientTransform="matrix(.94103 0 0 1.027 .46 -2.56)" gradientUnits="userSpaceOnUse" x1="7" x2="7" y1="-4" y2="17"><stop offset="0" stop-color="#cdf87e"/><stop offset=".262" stop-color="#a2e34f"/><stop offset=".661" stop-color="#68b723"/><stop offset="1" stop-color="#1d7e0d"/></linearGradient><rect fill="url(#e)" height="14" rx=".424" ry=".491" width="14" x="1" y="1"/><path d="m.5.52h15.02v3.98h-15.02z" fill="url(#f)"/><path d="m.498.002c-.276 0-.5.224-.5.5l.002 14.998c0 .276.224.5.5.5h15c.276 0 .5-.224.5-.5l-.002-10.5h.002v-1h-.002v-3.498c0-.276-.224-.5-.5-.5zm.498.998h14.004v3h-4.002v-2.998h-1v2.998h-4v-2.998h-1v2.998h-4.002zm0 4h4.004v2h-4v1h4v3h-4v1h4v3h1v-3h4v3h1v-3h4v-1h-4v-3h4v3l.002 4.002h-14.004zm5.004 0h4v2h-4zm5 0h4v2h-4zm-5 3h4v3h-4z" fill="#030303" opacity=".32"/><path d="m1.5 1.5000004h13l-.000001 12.9999996h-12.999999z" fill="none" stroke="url(#a)" stroke-linecap="round" stroke-linejoin="round" stroke-width="1.012911"/><path d="m.5 0c-.27614237 0-.5.22385763-.5.5v4.5h.998v-4.002h14.004v4.002h.998v-4.5c0-.27614237-.223858-.5-.5-.5zm4.5 1v3h-4v1h14v-1h-4v-3h-1v3h-4v-3z" fill="#126400" fill-opacity=".294118"/><g transform="translate(-.283018 .815882)"><path d="m11.22 8c-.125 0-.22.095-.22.22v.624c-.277.07-.526.186-.766.328l-.454-.452c-.087-.09-.223-.09-.31 0l-.75.75c-.09.087-.09.223 0 .31l.452.454c-.142.24-.257.49-.328.766h-.624c-.125 0-.22.095-.22.22v1.06c0 .125.095.22.22.22h.624c.07.277.186.526.328.766l-.453.453c-.09.087-.09.223 0 .31l.75.75c.087.09.223.09.31 0l.454-.452c.24.142.49.257.766.328v.625c0 .125.095.22.22.22h1.06c.125 0 .22-.095.22-.22v-.624c.277-.07.526-.186.766-.328l.453.453c.087.09.223.09.31 0l.75-.75c.09-.087.09-.223 0-.31l-.452-.454c.142-.24.257-.49.328-.766h.625c.125 0 .22-.095.22-.22v-1.06c0-.125-.095-.22-.22-.22h-.624c-.07-.277-.186-.526-.328-.766l.453-.453c.09-.087.09-.223 0-.31l-.75-.75c-.087-.09-.223-.09-.31 0l-.454.452c-.24-.142-.49-.257-.766-.328v-.626c0-.125-.095-.22-.22-.22zm.53 2.75c.552 0 1 .448 1 1s-.448 1-1 1-1-.448-1-1 .448-1 1-1z" display="block" fill="url(#b)" stroke="url(#c)" stroke-linejoin="round" stroke-width=".527" transform="matrix(1.1 -.4 .4 1.1 -6 2.3)"/><path d="m10.718 8.03c-1.375.5-2.087 2.027-1.587 3.402s2.027 2.087 3.402 1.587 2.087-2.027 1.587-3.402-2.027-2.087-3.402-1.587zm.42 1.152c.74-.27 1.56.113 1.83.855.27.74-.113 1.56-.855 1.83-.74.27-1.56-.112-1.83-.854-.27-.74.112-1.56.854-1.83z" opacity=".05"/><path d="m11.75 9.75c-1.103 0-2 .897-2 2s.897 2 2 2 2-.897 2-2-.897-2-2-2z" fill="none" stroke="url(#d)" stroke-width=".879" transform="matrix(1.1 -.4 .4 1.1 -6 2.3)"/></g></svg>