<svg xmlns="http://www.w3.org/2000/svg" xmlns:xlink="http://www.w3.org/1999/xlink" width="16" height="16"><defs><linearGradient x1="24" y1="6.205" x2="24" y2="41.59" id="g" xlink:href="#a" gradientUnits="userSpaceOnUse" gradientTransform="matrix(.24324 0 0 .35135 2.162 -.432)"/><linearGradient id="a"><stop offset="0" stop-color="#fff"/><stop offset=".029" stop-color="#fff" stop-opacity=".235"/><stop offset=".972" stop-color="#fff" stop-opacity=".157"/><stop offset="1" stop-color="#fff" stop-opacity=".392"/></linearGradient><linearGradient id="b"><stop offset="0" stop-color="#f4f4f4"/><stop offset="1" stop-color="#dbdbdb"/></linearGradient><linearGradient x1="25.132" y1=".985" x2="25.132" y2="47.013" id="f" xlink:href="#b" gradientUnits="userSpaceOnUse" gradientTransform="matrix(.2857 0 0 .3042 1.143 .233)"/><linearGradient id="c"><stop offset="0" stop-opacity=".34"/><stop offset="1" stop-opacity=".247"/></linearGradient><linearGradient x1="-51.786" y1="50.786" x2="-51.786" y2="2.906" id="h" xlink:href="#c" gradientUnits="userSpaceOnUse" gradientTransform="matrix(.2538 0 0 .30502 19.13 -.685)"/><linearGradient id="d"><stop offset="0" stop-color="#aaa"/><stop offset="1" stop-color="#c8c8c8"/></linearGradient><linearGradient x1="22.004" y1="47.813" x2="22.004" y2="3.364" id="i" xlink:href="#d" gradientUnits="userSpaceOnUse" gradientTransform="matrix(.3216 0 0 .33334 -.175 -.35)"/><linearGradient id="e"><stop offset="0" stop-color="#fcfcfc"/><stop offset="1" stop-color="#cbcdd9"/></linearGradient><linearGradient x1="33.877" y1="19.948" x2="44.119" y2="30.191" id="j" xlink:href="#e" gradientUnits="userSpaceOnUse" gradientTransform="matrix(0 .6 .6 0 5.9 -12.5)"/></defs><path d="M3 1h10v14H3V1z" fill="url(#f)"/><path d="M12.5 14.5h-9v-13h9z" fill="none" stroke="url(#g)" stroke-linecap="round"/><path d="M2.5.5h11v15h-11V.5z" fill="none" stroke="url(#h)" stroke-linejoin="round"/><path d="M4 3.5h.754zm.864 0h.704zm.814 0h.624zm.724 0h.27zm.382 0h.603zm.724 0h1.587zm1.688 0h1.216zm1.317 0h.37zM4 4.495h.995zm1.095 0h1.63zm1.73 0h.793zm.894 0h.742zm.843 0h.633zm.733 0l.995.01zm1.086.01H12zM4 5.5h.513zm.673 0h1.9zM4 7.495h.995zm1.095 0h1.63zm1.73 0h.793zm.894 0h.742zm.843 0h.633zm.733 0l.995.01zm1.086.01H12zM4 8.5h.754zm.864 0h.694zm.814 0h.624zm.724 0h.27zm.382 0h.603zm.724 0h1.577zm1.688 0h1.206zm1.307 0h.38zm.482 0h.904zM4 9.5h1.176zm1.307 0h.562zm.663 0h.28zm.392 0h.512zm.623 0h.523zm.623 0h.834zm.945 0h1.085zm1.186 0h.722zm.823 0h.18zM4 11.495h.995zm1.095 0h1.63zm1.73 0h.793zm.894 0h.742zm.843 0h.633zm.733 0l.995.01zm1.086.01H12zM4 12.5h1.246zm1.357 0h.392zm.492 0h.894zm.994 0H8.16zm1.427 0h.896zm.986 0h.19zm.292 0h1.135zm1.256 0h.593zM4 13.5h1.246zm1.357 0h.563zm.663 0h.885zm.985 0h.955zm1.065 0h.382zm.483 0h.21zm.32 0h.594z" fill="none" stroke="url(#i)"/><g><path d="M16.998 5.802l9 9h-9v-9zm2 5v2h2l-2-2z" opacity=".8" fill="url(#j)" fill-rule="evenodd" stroke="#83899a" transform="matrix(-1 0 0 1 31.5 .7)"/></g></svg>