<svg height="16" width="16" xmlns="http://www.w3.org/2000/svg" xmlns:xlink="http://www.w3.org/1999/xlink"><linearGradient id="a" gradientTransform="matrix(.2538 0 0 .30502 19.13 -.685)" gradientUnits="userSpaceOnUse" x1="-51.73365" x2="-51.786" y1="25.195068" y2="2.906"><stop offset="0" stop-opacity=".34"/><stop offset="1" stop-opacity=".247"/></linearGradient><linearGradient id="b" gradientTransform="matrix(.24324 0 0 .35135 2.162 -.432)" gradientUnits="userSpaceOnUse" x1="24" x2="24.000986" y1="6.923" y2="14.037285"><stop offset="0" stop-color="#fff"/><stop offset="0" stop-color="#fff" stop-opacity=".235"/><stop offset="1" stop-color="#fff" stop-opacity=".157"/><stop offset="1" stop-color="#fff" stop-opacity=".392"/></linearGradient><linearGradient id="c" gradientTransform="matrix(.2857 0 0 .3042 1.143 .233)" gradientUnits="userSpaceOnUse" x1="25.132" x2="25.750788" y1=".985" y2="25.532545"><stop offset="0" stop-color="#f4f4f4"/><stop offset="1" stop-color="#dbdbdb"/></linearGradient><linearGradient id="d" gradientTransform="matrix(.59436 0 0 .5999 -19.265 -.033)" gradientUnits="userSpaceOnUse" x1="25.132" x2="25.132" y1="15.5" y2="48.396"><stop offset="0" stop-color="#fafafa"/><stop offset="1" stop-color="#e2e1de"/></linearGradient><linearGradient id="e" gradientTransform="matrix(.94103 0 0 1.027 .462 2.442)" gradientUnits="userSpaceOnUse" x1="7" x2="7" y1="-4" y2="17"><stop offset="0" stop-color="#cdf87e"/><stop offset=".262" stop-color="#a2e34f"/><stop offset=".661" stop-color="#68b723"/><stop offset="1" stop-color="#1d7e0d"/></linearGradient><linearGradient id="f" gradientTransform="matrix(.98704 0 0 .88413 .095 3.652)" gradientUnits="userSpaceOnUse" x1="7" x2="7" y1="2" y2="9"><stop offset="0" stop-color="#fff"/><stop offset=".5" stop-color="#fff" stop-opacity=".235"/><stop offset=".951" stop-color="#fff" stop-opacity=".157"/><stop offset="1" stop-color="#fff" stop-opacity=".392"/></linearGradient><path d="m3 1h10v4h-10z" fill="url(#c)"/><path d="m12.5 4.5h-9v-3h9z" fill="none" stroke="url(#b)" stroke-linecap="round"/><path d="m2.5.5h11v5h-11z" fill="none" stroke="url(#a)" stroke-linejoin="round"/><g transform="translate(-2.002 1.998)"><rect fill="url(#d)" height="10" rx=".424" ry=".491" width="9" x="6" y="3"/><path d="m5.502 5.002c-.276 0-.5.224-.5.5v8c0 .276.224.5.5.5l9.998-.002c.276 0 .5-.224.5-.5v-8c0-.276-.224-.5-.5-.5zm.498.998 9.002-.002v7.004l-9.002.002zm4 0c-7.9974075 6.353705 0-4.8114603 0 3l-3.998.002v1l3.998-.002v3h1v-3h4v-1h-4c6.625608-6.2892064 0 2.061976 0-3z" fill="#030303" opacity=".32"/><path d="m5.504 5.004c-.276 0-.5.224-.5.5v3.5h.998v-3.002l9.002-.002v3.002h.998v-3.5c0-.276-.224-.5-.5-.5zm-.502.998v2l1.002.002v1l-1.002-.002h10v-1h-4v-2h-1v2h-4v-2z" fill="#126400" opacity=".4"/><path d="m5.505 5.525 10.015-.002v3.082l-10.015.002z" fill="url(#e)"/><path d="m5.505 5.525v3.08l.51-.007-.01-2.594 8.997-.002v2.602h.518v-3.08z" fill="url(#f)"/><path d="m5.002 5.502h1v3.074h-1zm5 0h1v3.103h-1z" fill="#126400" opacity=".4"/></g><path d="m8.0000001 8.5-3-3h5.9999999z" fill="#fcaf3e" stroke="#ce5c00"/></svg>