<svg height="16" width="16" xmlns="http://www.w3.org/2000/svg" xmlns:xlink="http://www.w3.org/1999/xlink"><linearGradient id="a" gradientTransform="matrix(.44035822 0 0 .44035823 -76.20947 -3.14648)" gradientUnits="userSpaceOnUse" x1="188" x2="188" xlink:href="#b" y1="17" y2="36.026299"/><linearGradient id="b"><stop offset="0" stop-color="#fff"/><stop offset="1" stop-color="#fff" stop-opacity="0"/></linearGradient><linearGradient id="c" gradientTransform="matrix(.57418708 0 0 .57270135 -100.42477 -7.179241)" gradientUnits="userSpaceOnUse" x1="182" x2="182" xlink:href="#b" y1="33" y2="24.519934"/><linearGradient id="d" gradientUnits="userSpaceOnUse" x1="8.338983" x2="8.288135" y1="14.008475" y2="1.127119"><stop offset="0" stop-opacity=".34"/><stop offset="1" stop-opacity=".247"/></linearGradient><g transform="translate(1)"><path d="m1.974.5c-.817 0-1.474.657-1.474 1.474v12.526h14v-12.527c0-.816-.657-1.473-1.474-1.473z" fill="#e9e9e9" stroke="url(#d)"/><path d="m2.205 1.5c-.39 0-.705.372-.705.834v1.666h12v-1.666c0-.462-.314-.834-.705-.834z" fill="none" opacity=".8" stroke="#fff"/><path d="m1 5h13v9h-13z" fill="#fff"/><path d="m1 4.5h13" fill="none" stroke="#8c8c8c"/></g><path d="m.50000002 1.5017253 13.99999998 13.9971907-14.00002097.0039.00002099-2.960449v-6.1048668zm2.49999998 7.0331502v4.4651245h4.5303301z" fill="#81d72c" fill-opacity=".588235" fill-rule="evenodd" stroke="#4e9a06" stroke-linejoin="round"/><g fill="none"><path d="m1.5071423 3.7915133.00848 10.6928617 10.6672837-.0039z" opacity=".5" stroke="url(#a)"/><path d="m2.5 7.1382942v6.3773308l5.5-.015625" opacity=".5" stroke="url(#c)"/></g></svg>