<svg height="16" width="16" xmlns="http://www.w3.org/2000/svg" xmlns:xlink="http://www.w3.org/1999/xlink"><radialGradient id="a" cx="64.574997" cy="48.605" gradientTransform="matrix(0 .3853 -.4196 0 32.39 -16.793)" gradientUnits="userSpaceOnUse" r="31"><stop offset="0" stop-color="#d1ff82"/><stop offset=".262" stop-color="#9bdb4d"/><stop offset=".661" stop-color="#68b723"/><stop offset="1" stop-color="#3a9104"/></radialGradient><linearGradient id="b" gradientTransform="matrix(.40540511 0 0 .51351351 2.269687 -.324319)" gradientUnits="userSpaceOnUse" x1="6" x2="6" y1="5" y2="11"><stop offset="0" stop-color="#fff"/><stop offset="0" stop-color="#fff" stop-opacity=".235294"/><stop offset=".83333331" stop-color="#fff" stop-opacity=".184314"/><stop offset=".83333331" stop-color="#fff" stop-opacity=".894737"/><stop offset="1" stop-color="#fff" stop-opacity=".894737"/><stop offset="1" stop-color="#fff" stop-opacity=".168627"/><stop offset="1" stop-color="#fff" stop-opacity=".156863"/><stop offset="1" stop-color="#fff" stop-opacity=".392157"/></linearGradient><linearGradient id="c" gradientTransform="matrix(.25378586 0 0 .30501865 -43.521986 -5.539135)" gradientUnits="userSpaceOnUse" x1="0" x2="0" y1="12.5" y2="3"><stop offset="0" stop-opacity=".339506"/><stop offset="1" stop-opacity=".246914"/></linearGradient><linearGradient id="d" gradientTransform="matrix(.33356 0 0 .33166 -.01 -1.597)" gradientUnits="userSpaceOnUse" x1="19.516729" x2="19.516729" y1="15.368148" y2="44.01194"><stop offset="0" stop-color="#fafafa"/><stop offset="1" stop-color="#cecece"/></linearGradient><path d="m3 3.5c-.64 0-1.5.856-1.5 1.5v4.5l-.823-.00734c-.099996-.0008923-.177.086-.177.186v2.82134h15l.004-2.814c.000142-.1-.087-.186-.188-.186h-.816v-4.5c0-.935-.595-1.5-1.5-1.5-3.1796975.006216-7.4517316-.0185754-10 0z" fill="url(#d)" fill-rule="evenodd" stroke="url(#c)" stroke-linejoin="round"/><path d="m3.5 4.5c-.5 0-1 .098-1 .5v5.5h-1v1h13v-1h-1v-5.258c0-.54 0-.742-1-.742z" fill="none" opacity=".4" stroke="url(#b)" stroke-linecap="round"/><path d="m10.5 10.5v-2h3v2h2v3h-2v2h-3v-2h-2v-3z" fill="url(#a)" stroke="#206b00" stroke-linecap="round" stroke-linejoin="round" stroke-opacity=".501961"/><g fill="#fff"><path d="m11 9h2v1h-2z" opacity=".5"/><path d="m11 14h2v1h-2z" opacity=".2"/><path d="m9 11v1h2v-1zm4 0v1h2v-1z" opacity=".4"/></g></svg>