<svg xmlns="http://www.w3.org/2000/svg" xmlns:xlink="http://www.w3.org/1999/xlink" height="16" width="16"><defs><linearGradient gradientTransform="matrix(.2538 0 0 .30502 19.13 -.685)" gradientUnits="userSpaceOnUse" xlink:href="#a" id="k" y2="2.906" x2="-51.786" y1="50.786" x1="-51.786"/><linearGradient id="a"><stop offset="0" stop-opacity=".34"/><stop offset="1" stop-opacity=".247"/></linearGradient><linearGradient gradientTransform="matrix(.24324 0 0 .35135 2.162 -.432)" gradientUnits="userSpaceOnUse" xlink:href="#b" id="j" y2="41.077" x2="24" y1="6.923" x1="24"/><linearGradient id="b"><stop offset="0" stop-color="#fff"/><stop offset="0" stop-color="#fff" stop-opacity=".235"/><stop offset="1" stop-color="#fff" stop-opacity=".157"/><stop offset="1" stop-color="#fff" stop-opacity=".392"/></linearGradient><linearGradient id="c"><stop offset="0" stop-color="#f4f4f4"/><stop offset="1" stop-color="#dbdbdb"/></linearGradient><linearGradient gradientTransform="matrix(.2857 0 0 .3042 1.143 .233)" gradientUnits="userSpaceOnUse" xlink:href="#c" id="i" y2="47.013" x2="25.132" y1=".985" x1="25.132"/><linearGradient x1="23.576" y1="25.357" x2="23.576" y2="31.211" id="l" xlink:href="#d" gradientUnits="userSpaceOnUse" gradientTransform="matrix(.41578 -.4175 .51898 .51462 -15.747 2.65)"/><linearGradient id="d"><stop offset="0" stop-color="#181818"/><stop offset=".135" stop-color="#dbdbdb"/><stop offset=".202" stop-color="#a4a4a4"/><stop offset=".27" stop-color="#fff"/><stop offset=".447" stop-color="#8d8d8d"/><stop offset=".571" stop-color="#959595"/><stop offset=".72" stop-color="#cecece"/><stop offset="1" stop-color="#181818"/></linearGradient><linearGradient x1="30.038" y1="24.99" x2="30.038" y2="30" id="m" xlink:href="#e" gradientUnits="userSpaceOnUse" gradientTransform="matrix(.40402 -.4057 .60738 .60227 -17.868 .693)"/><linearGradient id="e"><stop offset="0" stop-color="#565656"/><stop offset=".5" stop-color="#9a9a9a"/><stop offset="1" stop-color="#545454"/></linearGradient><linearGradient x1="30.038" y1="24.99" x2="30.038" y2="30" id="n" xlink:href="#f" gradientUnits="userSpaceOnUse" gradientTransform="matrix(.40402 -.4057 .60738 .60227 -17.983 .81)"/><linearGradient id="f"><stop offset="0" stop-color="#b1b1b1"/><stop offset=".5" stop-color="#fff"/><stop offset="1" stop-color="#8f8f8f"/></linearGradient><linearGradient x1="30.038" y1="24.99" x2="30.038" y2="30" id="o" xlink:href="#e" gradientUnits="userSpaceOnUse" gradientTransform="matrix(.40402 -.4057 .60738 .60227 -17.466 .29)"/><linearGradient x1="30.038" y1="24.99" x2="30.038" y2="30" id="p" xlink:href="#f" gradientUnits="userSpaceOnUse" gradientTransform="matrix(.40402 -.4057 .60738 .60227 -17.58 .405)"/><linearGradient x1="30.038" y1="24.99" x2="30.038" y2="30" id="q" xlink:href="#e" gradientUnits="userSpaceOnUse" gradientTransform="matrix(.40402 -.4057 .60738 .60227 -17.062 -.116)"/><linearGradient x1="30.038" y1="24.99" x2="30.038" y2="30" id="r" xlink:href="#f" gradientUnits="userSpaceOnUse" gradientTransform="matrix(.40402 -.4057 .60738 .60227 -17.177 0)"/><linearGradient x1="9" y1="29.057" x2="9" y2="26.03" id="s" xlink:href="#g" gradientUnits="userSpaceOnUse" gradientTransform="matrix(.40402 -.4057 .60738 .60227 -17.637 .462)"/><linearGradient id="g"><stop offset="0" stop-color="#ece5a5"/><stop offset="1" stop-color="#fcfbf2"/></linearGradient><linearGradient x1="5.518" y1="37.372" x2="9.522" y2="41.392" id="t" xlink:href="#h" gradientUnits="userSpaceOnUse" gradientTransform="matrix(.37638 .03615 .0367 .37487 -2.218 -1.133)"/><linearGradient id="h"><stop offset="0" stop-color="#dbce48"/><stop offset="1" stop-color="#c5b625"/></linearGradient></defs><path d="M3 1h10v14H3V1z" fill="url(#i)"/><path d="M12.5 14.5h-9v-13h9z" fill="none" stroke="url(#j)" stroke-linecap="round"/><path d="M2.5.5h11v15h-11V.5z" fill="none" stroke="url(#k)" stroke-linejoin="round"/><path d="M5 5h1v1H5zM8 3h3v1H8z" fill="#e20000"/><g fill="#aaa"><path d="M5 3h2v1H5zM7 5h3v1H7zM5 7h3v1H5z"/></g><path d="M9 7h2v1H9z" fill="#e20000"/><g><path d="M14 13.243c-.097-.016-.172-.01-.22.002l-6.536 1.45-1.203.268-.036.006L4.61 16l3.56-.054.03-.007 1.21-.267 6.533-1.462c.196-.043-.128-.294-.727-.563-.45-.202-.923-.36-1.215-.404z" opacity=".15" fill="#0c0c0c" fill-rule="evenodd"/><path d="M2.05 11.037c.285-.207 1.147.257 1.96 1.062.81.803 1.26 1.64 1.057 1.93 0 0 .02.018.02.02L15.223 3.867c.258-.258-.213-1.143-1.05-1.974-.84-.832-1.73-1.295-1.987-1.037z" fill="url(#l)" stroke="#0c0c0c" stroke-width=".485" stroke-linejoin="round" transform="matrix(.74077 0 0 .74257 4.48 4.176)"/><path d="M10.565 2.484c.287-.208 1.148.256 1.96 1.062.81.804 1.26 1.64 1.058 1.93 0 .002.02.018.02.02l1.55-1.558c.41-.408-.028-1.093-.98-2.044-.813-.806-1.674-1.27-1.96-1.062l-.026.025-1.622 1.627z" opacity=".8" fill="#ffb6ed" stroke="#e28ccd" stroke-width=".485" stroke-linejoin="round" transform="matrix(.74077 0 0 .74257 4.48 4.176)"/><path d="M5.998 12.372c.212-.154.85.19 1.452.79.6.595.933 1.217.783 1.432 0 0 .015.013.014.014l5.172-5.206.018-.02s-.015-.012-.014-.013c.15-.215-.183-.838-.783-1.434-.6-.598-1.24-.943-1.452-.79l-.018.02z" opacity=".6" fill="#0c0c0c"/><path d="M9.18 3.877c.285-.208 1.146.256 1.96 1.062.81.802 1.26 1.64 1.056 1.93l.02.018.126-.127s-.02-.016-.02-.018c.203-.29-.246-1.127-1.057-1.93-.812-.806-1.674-1.27-1.96-1.062z" fill="url(#m)" transform="matrix(.74077 0 0 .74257 4.48 4.176)"/><path d="M9.063 3.993c.286-.208 1.148.256 1.96 1.062.81.803 1.26 1.64 1.058 1.93 0 .002.02.018.02.02l.126-.128-.02-.018c.204-.29-.246-1.128-1.057-1.932-.813-.806-1.674-1.27-1.96-1.062z" fill="url(#n)" transform="matrix(.74077 0 0 .74257 4.48 4.176)"/><path d="M9.58 3.473c.287-.208 1.15.256 1.96 1.062.81.804 1.26 1.64 1.06 1.93-.002.002.018.018.017.02l.127-.127c0-.002-.02-.018-.02-.02.203-.29-.246-1.126-1.057-1.93-.812-.805-1.674-1.27-1.96-1.062z" fill="url(#o)" transform="matrix(.74077 0 0 .74257 4.48 4.176)"/><path d="M9.465 3.59c.286-.21 1.148.256 1.96 1.06.81.805 1.26 1.642 1.058 1.932l.02.018.125-.126s-.02-.018-.02-.02c.204-.288-.246-1.126-1.056-1.93-.813-.805-1.674-1.27-1.96-1.062z" fill="url(#p)" transform="matrix(.74077 0 0 .74257 4.48 4.176)"/><path d="M9.985 3.067c.286-.207 1.148.257 1.96 1.062.81.803 1.26 1.64 1.058 1.93 0 0 .02.018.02.02l.125-.128s-.02-.018-.02-.02c.203-.288-.246-1.126-1.057-1.93-.81-.805-1.673-1.27-1.96-1.062z" fill="url(#q)" transform="matrix(.74077 0 0 .74257 4.48 4.176)"/><path d="M9.87 3.183c.285-.207 1.147.257 1.96 1.062.81.804 1.26 1.642 1.057 1.93 0 .002.02.02.02.02l.125-.127s-.02-.018-.02-.02c.204-.288-.246-1.126-1.056-1.93-.813-.805-1.674-1.27-1.96-1.06z" fill="url(#r)" transform="matrix(.74077 0 0 .74257 4.48 4.176)"/><path d="M.26 15.794l4.772-1.725.04-.04c.202-.29-.253-1.128-1.064-1.93-.812-.807-1.673-1.27-1.96-1.06z" fill="url(#s)" fill-rule="evenodd" stroke="url(#t)" stroke-width=".485" transform="matrix(.74077 0 0 .74257 4.48 4.176)"/><path d="M.744 14.506L.26 15.79l1.3-.474c-.113-.134-.22-.268-.354-.402-.155-.154-.307-.28-.462-.408z" fill="#0c0c0c" fill-rule="evenodd" stroke="#0c0c0c" stroke-width=".485" transform="matrix(.74077 0 0 .74257 4.48 4.176)"/></g></svg>