<svg viewBox="0 0 16 16" xmlns="http://www.w3.org/2000/svg" xmlns:xlink="http://www.w3.org/1999/xlink"><linearGradient id="a" gradientTransform="matrix(.4282553 -.43106531 .53455872 .53134798 -16.236606 2.214998)" gradientUnits="userSpaceOnUse" spreadMethod="pad" x1="23.575972" x2="23.575972" y1="25.356892" y2="31.210939"><stop offset="0" stop-color="#181818"/><stop offset=".13482948" stop-color="#dbdbdb"/><stop offset=".20224422" stop-color="#a4a4a4"/><stop offset=".26965895" stop-color="#fff"/><stop offset=".44650277" stop-color="#8d8d8d"/><stop offset=".57114136" stop-color="#959595"/><stop offset=".72038066" stop-color="#cecece"/><stop offset="1" stop-color="#181818"/></linearGradient><g transform="translate(29.919081 4.835818)"><path d="m-26.919081-3.8358177c2.291507 0 9.999988.0008904 9.999988.0008904l.000012 13.9991093s-6.666667 0-10 0c0-4.6666657 0-9.3333333 0-13.9999997z" fill="#e9e9e9"/><path d="m-17.419081 9.6641823h-9v-13h9z" fill="none" stroke="#fff" stroke-linecap="round"/><path d="m-27.419119-4.3358437c2.520676 0 11.000063.000954 11.000063.000954l.000013 14.9990977s-7.333384 0-11.000076 0c0-5.0000167 0-10.00003468 0-15.0000517z" fill="none" stroke="#8c8c8c" stroke-linejoin="round" stroke-width=".999922"/></g><g transform="matrix(.58831603 0 0 .58831603 7.174811 5.986591)"><path d="m2.0935243 10.874635c.2951422-.214459 1.1824032.264723 2.0191722 1.096466.8347689.829753 1.2980207 1.694686 1.0892971 1.993333-.0007939.0011.020363.01832.01955.01943l8.9850884-9.1844255c.26307-.2689067-.350319-1.180798-1.213653-2.0389454-.863332-.8581474-1.612815-1.3007326-1.876991-1.0329093z" fill="url(#a)" stroke="#ce5c00" stroke-linejoin="round" stroke-width="1.47011"/><path d="m2.1992381 10.874635c.2951427-.21446 1.1824035.264723 2.0191727 1.096464.8347679.829754 1.2980203 1.694687 1.0892973 1.993335-.0007946.0011-.026356-.364784-.02717-.363669l7.0887909-7.2107351 1.487314-1.5155254c-.159709-.3558129-.124417-.4292873-.097268.0086007.208768-.2986492-.193612-.880056-1.028378-1.7098092-.83677-.8317426-1.22189-1.2052089-1.51703-.9907501l.000419-.026678z" fill="#fcaf3e" opacity=".6"/><path d="m .25082957 15.786088 4.91506913-1.781579.040488-.04054c.2087244-.298638-.2599716-1.163927-1.0947404-1.99368-.8367693-.831743-1.7228788-1.308476-2.0180213-1.094017z" fill-rule="evenodd" stroke="#5d5d5d" stroke-width="1.47011"/><path d="m .75000151 14.456308-.49977403 1.324387 1.34042902-.488782c-.1170979-.137462-.2258647-.276541-.3649929-.414833-.1601739-.159212-.31629618-.289791-.47566209-.420772z" fill="#fcaf3e" fill-rule="evenodd" stroke="#ce5c00" stroke-width=".735055"/></g><path d="m5 5h1v1h-1z" fill="#e20000"/><path d="m8 3h3.000001v1h-3.000001z" fill="#e20000"/><g fill="#aaa"><path d="m5 3h2v1h-2z"/><path d="m7 5h3v1h-3z"/><path d="m5 7h3v1h-3z"/></g><path d="m9 7h2v1h-2z" fill="#e20000"/></svg>