<svg viewBox="0 0 16 16" xmlns="http://www.w3.org/2000/svg">

     /&gt;
 <text style="font-size:12.239318;font-family:sans-serif;letter-spacing:0;word-spacing:0;fill:#8c8c8c;stroke:#565656;stroke-width:.772465;stroke-linejoin:round" transform="matrix(0 -.95075273 1.0517982 0 0 0)" x="-16.422533" y="10.091069"><tspan style="font-weight:bold;font-family:Noto Sans;fill:#8c8c8c;stroke:#565656;stroke-width:.772465;stroke-linejoin:round" x="-16.422533" y="10.091069">AB</tspan></text><g transform="matrix(-.9593921 0 0 .9706826 30.839825 -.001923)"><path d="m17.342697 3.3386364 1.800059-1.2000382 1.800057 1.2000382" fill="none" stroke="#ce5c00" stroke-linecap="round" stroke-width="3.600116"/><path d="m19.142578 1.3457031-2.166016 1.4433594a.66060253.66060253 0 1 0  .732422 1.0996094l1.433594-.9570313 1.433594.9570313a.66060253.66060253 0 1 0  .732422-1.0996094z" fill="#fcaf3e"/></g><g transform="matrix(-.9593921 0 0 -.9706826 30.839825 15.975925)"><path d="m17.342697 3.3386364 1.800059-1.2000382 1.800057 1.2000382" fill="none" stroke="#ce5c00" stroke-linecap="round" stroke-width="3.600116"/><path d="m19.142578 1.3457031-2.166016 1.4433594a.66060253.66060253 0 1 0  .732422 1.0996094l1.433594-.9570313 1.433594.9570313a.66060253.66060253 0 1 0  .732422-1.0996094z" fill="#fcaf3e"/></g></svg>