<svg height="16" width="16" xmlns="http://www.w3.org/2000/svg" xmlns:xlink="http://www.w3.org/1999/xlink"><linearGradient id="a" gradientUnits="userSpaceOnUse" x1="8.068" x2="8" y1="1037.5" y2="1052.4"><stop offset="0" stop-color="#fcfcfc"/><stop offset="1" stop-color="#dbdbdb"/></linearGradient><linearGradient id="b" gradientUnits="userSpaceOnUse" x1="9.785" x2="10.077" y1="1050.1" y2="1038.5"><stop offset="0" stop-color="#fff" stop-opacity=".502"/><stop offset="1" stop-color="#fff" stop-opacity="0"/></linearGradient><linearGradient id="c" gradientUnits="userSpaceOnUse" x1="7.993" x2="7.993" xlink:href="#b" y1="1049.355" y2="1037.355"/><g transform="translate(0 -1036.4)"><rect fill="url(#a)" height="13" rx="2" stroke="#000" stroke-opacity=".386" width="13" x="1.5" y="1037.9"/><rect fill="none" height="11" rx="1.003" ry="1.028" stroke="url(#b)" stroke-opacity=".386" width="11.021" x="2.488" y="1038.9"/><g stroke-linecap="round"><path d="m6.5 1039.87v2h-1.007v.992h-2v-2.993zm2.993 0v2h1v1h2v-3zm-3 9v-2h-1v-1h-2v3zm3 0v-2h1v-1h2v3z" fill="none" stroke="url(#c)" stroke-linejoin="round" stroke-opacity=".333" stroke-width=".985" transform="translate(.007 1.045)"/><path d="m6.507 1039.915v2h-1.007v.992h-2v-2.992zm2.993 0v2h1v1h2v-3zm-3 9v-2h-1v-1h-2v3zm3 0v-2h1v-1h2v3z" fill="#fff" stroke="#000" stroke-linejoin="round" stroke-opacity=".333" stroke-width=".985"/><path d="m17.343 3.34 1.8-1.2 1.8 1.2" fill="none" stroke="#ce5c00" stroke-width="3.6" transform="matrix(0 .96572 .9669 0 5.024 1030.416)"/></g><path d="m6.325 1048.902 1.396-2.09a.638.64 90 1 0 1.064.706l-.925 1.384.924 1.385a.638.64 90 1 0 -1.063.707z" fill="#fcaf3e"/><path d="m17.343 3.34 1.8-1.2 1.8 1.2" fill="none" stroke="#ce5c00" stroke-linecap="round" stroke-width="3.6" transform="matrix(0 .96572 -.9669 0 15.982 1030.416)"/><path d="m14.68 1048.902-1.395-2.09a.638.64 90 1 0 -1.063.706l.925 1.384-.925 1.385a.638.64 90 1 0 1.063.707z" fill="#fcaf3e"/></g></svg>