<svg height="16" width="16" xmlns="http://www.w3.org/2000/svg" xmlns:xlink="http://www.w3.org/1999/xlink"><linearGradient id="a" gradientUnits="userSpaceOnUse" x1="8.0678" x2="8" y1="1037.5" y2="1052.4"><stop offset="0" stop-color="#fcfcfc"/><stop offset="1" stop-color="#dbdbdb"/></linearGradient><linearGradient id="b" gradientUnits="userSpaceOnUse" x1="9.7847" x2="10" y1="1050.1" y2="1039.4"><stop offset="0" stop-color="#fff" stop-opacity=".502"/><stop offset="1" stop-color="#fff" stop-opacity="0"/></linearGradient><g stroke-opacity=".38603" transform="translate(0 -1036.4)"><rect fill="url(#a)" height="13" rx="2" stroke="#000" width="13" x="1.5" y="1037.9"/><rect fill="none" height="11" rx="1.0032" ry="1.0281" stroke="url(#b)" width="11.021" x="2.4881" y="1038.9"/></g><path d="m7 3.5c-1.9329966 0-3.5 1.5670034-3.5 3.5s1.5670034 3.5 3.5 3.5c.5942183-.0013 1.1783195-.15389 1.6972656-.443359l2.4746094 2.234375c.297683.28987.770677.28401 1.060547-.013672.289871-.297684.28401-.770677-.013672-1.060547l-2.3691406-2.123047c.4377256-.5979848.6489556-1.3526786.6503906-2.09375 0-1.9329966-1.5670034-3.5-3.5-3.5zm0 1.5a2 2 0 0 1 2 2 2 2 0 0 1 -2 2 2 2 0 0 1 -2-2 2 2 0 0 1 2-2z" fill-opacity=".333333"/></svg>