<svg viewBox="0 0 32 32" xmlns="http://www.w3.org/2000/svg"><g fill="#efefef"><path d="m8 2c-2.2159824 0-4 1.7840176-4 4h-1c-.5539976 0-1 .4460024-1 1s.4460024 1 1 1h1v1h-1c-.5539976 0-1 .4460024-1 1 0 .553996.4460024 1 1 1h1v1h-1c-.5539976 0-1 .446004-1 1s.4460024 1 1 1h1v1h-1c-.5539976 0-1 .446004-1 1s.4460024 1 1 1h1v1h-1c-.5539976 0-1 .446004-1 1s.4460024 1 1 1h1v1h-1c-.5539976 0-1 .446004-1 1s.4460024 1 1 1h1v1h-1c-.5539976 0-1 .446004-1 1s.4460024 1 1 1h1c0 2.215984 1.7840176 4 4 4h17c2.21599 0 4-1.78401 4-4v-17c0-.999998-.262367-1.2638426-1-2l-4-4c-.689027-.7256422-1.000002-1-2-1zm0 2h13v4c0 1.1079934.892006 2 2 2h4v16c0 1.107995-.892005 2-2 2h-17c-.3652213 0-.7059257-.097952-1-.267578v-1.732422c-.5539976 0-1-.446004-1-1s.4460024-1 1-1v-1c-.5539976 0-1-.446004-1-1s.4460024-1 1-1v-1c-.5539976 0-1-.446004-1-1s.4460024-1 1-1v-1c-.5539976 0-1-.446004-1-1s.4460024-1 1-1v-1c-.5539976 0-1-.446004-1-1s.4460024-1 1-1v-1c-.5539976 0-1-.446004-1-1 0-.5539976.4460024-1 1-1v-1c-.5539976 0-1-.4460024-1-1s.4460024-1 1-1v-1.7324219c.2940743-.1696249.6347787-.2675781 1-.2675781z"/><path d="m10 14c-.511405 0-1 .5-1 1v10c0 .55008.482436 1 1 1h13c.523437 0 1-.45725 1-1v-10c0-.5303-.480675-1-1-1zm0 1h13v10h-13zm2 1c-.554 0-1 .442749-1 .992188v.01562c0 .549443.446.992192 1 .992192h9c.554 0 1-.442749 1-.992188v-.01562c0-.549444-.446-.992192-1-.992192zm0 3c-.51141 0-1 .5-1 1v3c0 .55008.48244 1 1 1h3c.52344 0 1-.45725 1-1v-3c0-.5303-.48068-1-1-1zm0 1h3v2l-1-.5-.5.5-.5-.5-.5.5h-.5zm5 0v1h1v-1zm2 0v1h3v-1zm-2 2v1h1v-1zm2 0v1h3v-1z"/></g></svg>