<svg viewBox="0 0 128 128" xmlns="http://www.w3.org/2000/svg"><path d="m87.261719.0078125c-.209966 0-.421431.0148874-.628907.046875-2.662505.85278942-3.558458 4.9064389-1.505859 6.8125l24.095707 24.2207035c2.22595 2.121657 6.66006.306214 6.77734-2.775391v-24.2207031c-.00024-2.1136607-1.91295-4.03686949-4.01562-4.0371094h-24.095708c-.207596-.0319876-.416987-.046875-.626953-.046875zm-69.261719.02148438c-4.151757 0-6.01832 3.48502112-6 5.99804692v115.9687462c.0004 4.1875 1.811444 5.99765 6 5.99805h91.99805c4.18856-.0004 5.9996-1.81055 6-5.99805v-71.820309c.048-2.111901-.78003-4.230236-2.25-5.748047l-42.162112-42.1484371c-1.518209-1.46919052-3.637563-2.29894106-5.75-2.25000002zm0 5.96289062h2 46.25.875l.5.5 41.75 42.0000005.625.625v.875 70.000002 2h-2-88-2v-2-112.0000025z" fill="#aaa8ac"/><path d="m18.000147 5.9918v2 112 2h1.999997 88.000006 2v-2-70-.8752l-.62497-.6248-41.750007-42-.499969-.5h-.875016-46.250044z" fill="#000"/></svg>