<svg height="48" width="48" xmlns="http://www.w3.org/2000/svg"><path d="m13 6c-2.215998 0-4 1.7840022-4 4v28c0 2.215998 1.784002 4 4 4h22c2.215998 0 4-1.784002 4-4v-14.978516l-17.001953-17.021484z" fill="#242424"/><g fill="#efefef"><path d="m13 4c-3.2894025 0-6 2.7105977-6 6v28c0 3.289403 2.7105976 6 6 6h22c3.289403 0 6-2.710597 6-6v-14.978516a2.0002 2.0002 0 0 0 -.585938-1.414062l-17.001953-17.0214845a2.0002 2.0002 0 0 0 -1.414062-.5859375zm0 2h8.998047l17.001953 17.021484v14.978516c0 2.215996-1.784004 4-4 4h-22c-2.215996 0-4-1.784004-4-4v-28c0-2.2159956 1.784004-4 4-4z"/><path d="m30.222656 4c-.078763 0-.156572.0055826-.234375.0175781-.998425.3197957-1.334166 1.8399154-.564453 2.5546875l9.035156 9.0820314c.834723.79562 2.497037.114585 2.541016-1.041016v-4.613281c0-3.2072608-2.493365-5.8034787-5.654297-5.9824219h-4.886719c-.077847-.0119955-.157565-.0175781-.236328-.0175781z"/><path d="m20.001953 26.982422-.001953-2.982422h2.996094l.002 2.982422zm.998047-1.982422v1.001953h1v-1.001953zm.15625 2-4.158297 8.015625v.984375h10.004v-.984375l-5.158203-8.015625zm-6.158297 9v1.001953h1v-1.001953zm13.004 0v1.001953h1v-1.001953z" opacity=".35"/><path d="m15.835891 35h-1.837891l.002 3h2.996047l-.002-3h.0039v.01563l4.158303-8.01563h.6875l5.158203 8.015625v.984375h-10.003953v.996094h10.003953l.001953 1.003906h2.996094l-.002-3h-1.833938l-5.166015-8.017578-.001953-2.982422h-2.996094l.002 2.982422zm5.164109-10h1v1.001953h-1zm-6.002 11h1v1.001953h-1zm13.003953 0h1v1.001953h-1z" stroke-width="2.99937"/><path d="m25.5 23c-.830998 0-1.5.669002-1.5 1.5v4.037109l1 1.552735v-6.089844h9v9h-7.125l.644531 1h5.980469c.830998 0 1.5-.669002 1.5-1.5v-8c0-.830998-.669002-1.5-1.5-1.5z"/><path d="m25 24v6.089844l1.875 2.910156h7.125v-9z" opacity=".35"/><path d="m20.5 18c-3.589839 0-6.5 2.910161-6.5 6.5 0 2.758407 1.71998 5.112764 4.144531 6.056641l.46875-.904297a5.5 5.5 0 0 1 -3.613281-5.152344 5.5 5.5 0 0 1 5.5-5.5 5.5 5.5 0 0 1 5.289062 4h1.035157c-.67717-2.866684-3.250653-5-6.324219-5z"/><path d="m20.5 19a5.5 5.5 0 0 0 -5.5 5.5 5.5 5.5 0 0 0 3.615234 5.152344l1.386719-2.669922-.001953-2.982422h2.996094l.001953 2.982422 1.001953 1.554687v-4.037109c0-.830996.669004-1.5 1.5-1.5h.291016a5.5 5.5 0 0 0 -5.291016-4zm.5 6v1.001953h1v-1.001953z" opacity=".35"/></g></svg>