<?xml version="1.0" encoding="UTF-8"?>
<svg version="1.1" viewBox="0 0 16 16" xmlns="http://www.w3.org/2000/svg"><path d="m1 3v10a3 3 45 0 0 3 3h8a3 3 135 0 0 3-3v-7.9997a1.0003 1.0003 67.5 0 0-0.29297-0.70729l-4-4a1.0003 1.0003 22.5 0 0-0.70729-0.29297h-5.9997a3 3 135 0 0-3 3zm3-1h5v2.5a1.5 1.5 45 0 0 1.5 1.5h2.5v7a1 1 135 0 1-1 1h-8a1 1 45 0 1-1-1v-10a1 1 135 0 1 1-1z" color="#000000" fill="#efefef" stroke-linecap="square" style="-inkscape-stroke:none"/><path d="m5 7v6h6v-2.293l-3.707-3.707h-2.293zm3.707 0 2.293 2.293v-2.293h-2.293z" fill="#efefef"/></svg>
