<svg xmlns="http://www.w3.org/2000/svg" viewBox="0 0 32 32">
  <path
     style="fill:#555753"
     d="M 8 2 C 6.9092972 2 6 2.9092972 6 4 L 6 7 L 3.9394531 7 C 3.418651 7 3 7.418651 3 7.9394531 L 3 8.0605469 C 3 8.581349 3.418651 9 3.9394531 9 L 6 9 L 6 12 L 3.9394531 12 C 3.418651 12 3 12.418651 3 12.939453 L 3 13.060547 C 3 13.581349 3.418651 14 3.9394531 14 L 6 14 L 6 17 L 3.9394531 17 C 3.418651 17 3 17.418651 3 17.939453 L 3 18.060547 C 3 18.581349 3.418651 19 3.9394531 19 L 6 19 L 6 22 L 3.9394531 22 C 3.418651 22 3 22.418651 3 22.939453 L 3 23.060547 C 3 23.581349 3.418651 24 3.9394531 24 L 6 24 L 6 28 C 6 29.090703 6.9092972 30 8 30 L 26 30 C 27.090703 30 28 29.090703 28 28 L 28 4 C 28 2.9092972 27.090703 2 26 2 L 8 2 z M 9 5 L 25 5 L 25 27 L 9 27 L 9 5 z M 12 7 C 11.446 7 11 7.446 11 8 C 11 8.554 11.446 9 12 9 L 22 9 C 22.554 9 23 8.554 23 8 C 23 7.446 22.554 7 22 7 L 12 7 z M 12 12 C 11.446 12 11 12.446 11 13 C 11 13.554 11.446 14 12 14 L 22 14 C 22.554 14 23 13.554 23 13 C 23 12.446 22.554 12 22 12 L 12 12 z M 12 17 C 11.446 17 11 17.446 11 18 C 11 18.554 11.446 19 12 19 L 22 19 C 22.554 19 23 18.554 23 18 C 23 17.446 22.554 17 22 17 L 12 17 z M 12 22 C 11.446 22 11 22.446 11 23 C 11 23.554 11.446 24 12 24 L 22 24 C 22.554 24 23 23.554 23 23 C 23 22.446 22.554 22 22 22 L 12 22 z "
     />
</svg>
