<svg height="24" viewBox="0 0 24 24" width="24" xmlns="http://www.w3.org/2000/svg"><path d="m1 4v2 12 1 1h22v-1-1-12-1-1h-20zm2 2h18v12h-18zm5.5 2a2.5 2.5 0 0 0 -2.5 2.5v2a2.5 2.5 0 0 0 2.5 2.5h2.5v-1h-2.5a1.5 1.5 0 0 1 -1.5-1.5v-2a1.5 1.5 0 0 1 1.5-1.5h2.5v-1zm3.5 0v1 3h1 2.5c.276142 0 .5.223858.5.5v1c0 .276142-.22387.497419-.5.5h-3.5v1h3.5c.828427 0 1.5-.671573 1.5-1.5v-1c0-.171207-.035071-.333063-.087891-.486328-.0015-.0043-.000311-.009302-.001953-.013672h-.001953c-.206406-.581349-.756046-1.008695-1.408203-1h-2.5v-2h3v-1z" fill="#555753"/></svg>