<svg height="24" viewBox="0 0 24 24" width="24" xmlns="http://www.w3.org/2000/svg"><path d="m8 8-2 7h1l.5-2h3l.5 2h1l-2-7h-1l1.304688 4h-2.5800786l1.2753906-4zm4 7h3.5c.828427 0 1.5-.671573 1.5-1.5v-1c0-.171207-.03507-.333063-.08789-.486328-.0015-.0043-.000358-.0093-.002-.01367h-.002c-.206406-.581349-.755895-1.000002-1.40811-1.000002h-2.5v-2h3v-1h-4v1 3h1 2.5c.276142 0 .5.223858.5.5v1c0 .276142-.223858.5-.5.5h-3.5zm5 8c1.661998 0 3-1.338002 3-3v-16c0-1.661998-1.338002-3-3-3h-11c-1.661998 0-3 1.338002-3 3v16c0 1.661998 1.338002 3 3 3zm-.5-2h-10c-.830999 0-1.5-.669001-1.5-1.5v-15c0-.830999.669001-1.5 1.5-1.5h10c.830999 0 1.5.669001 1.5 1.5v15c0 .830999-.669001 1.5-1.5 1.5z" fill="#2e3436"/></svg>