<svg viewBox="0 0 24 24" xmlns="http://www.w3.org/2000/svg"><g fill="#f2f2f7"><path d="m18.524238 11.322698q0 2.494996-.839438 4.360413-.839437 1.853759-2.378407 2.833103-1.538969.979344-3.590928.979344-2.0053239 0-3.5559521-.979344-1.5506281-.991003-2.4133837-2.809785-.8510966-1.830441-.8744144-4.232166v-1.22418q0-2.4483603.8510967-4.3254365.8510967-1.8770763 2.4017249-2.8680792 1.562287-1.0026619 3.5676106-1.0026619 2.0403 0 3.590928.991003 1.562288.9793441 2.401725 2.8564203.839438 1.8654174.839438 4.3487543zm-2.226842-1.095933q0-3.0196441-1.212521-4.6285666-1.212521-1.6205813-3.392728-1.6205813-2.1219122 0-3.3460923 1.6205813-1.2125213 1.6089225-1.2474979 4.4770016v1.247498q0 2.926373 1.2241802 4.605249 1.235839 1.667217 3.392728 1.667217 2.168547 0 3.357751-1.573946 1.189204-1.585605 1.22418-4.535296z" fill="#f2f2f7" transform="scale(1.026095 .97456862)"/><rect height="1" ry=".464045" width="19" x="3" y="22"/><rect height="1" ry=".464045" width="19" x="3" y="20"/></g></svg>