<svg viewBox="0 0 22 22" xmlns="http://www.w3.org/2000/svg" xmlns:xlink="http://www.w3.org/1999/xlink"><linearGradient id="a" gradientUnits="userSpaceOnUse" x1="19" x2="3" xlink:href="#b" y1="21" y2="-1"/><linearGradient id="b"><stop offset="0" stop-color="#8e03a3"/><stop offset="1" stop-color="#c254d2"/></linearGradient><linearGradient id="c" gradientTransform="matrix(1.1249688 0 0 1.1245683 -122.99628 -1095.9935)" gradientUnits="userSpaceOnUse" x1="124.00017" x2="111.99994" xlink:href="#b" y1="992.375" y2="976.36902"/><path d="m2.914559.00675c-.515687.0984-.923302.60028-.914055 1.125v19.74327c.000057.5888.535979 1.12493 1.124991 1.12499h15.7495c.589011-.00006 1.124934-.53619 1.12499-1.12499v-12.99553c.0068-.29695-.109687-.59516-.316404-.80858l-5.624951-6.74775c-.213496-.20658-.511528-.32329-.808586-.31641h-10.124549c-.07009-.007-.140829-.007-.210936 0zm12.972179 0c-.372926.11879-.498432.68372-.210935.94922l3.37497 3.37277c.311786.29553.932786.0425.949211-.38671v-3.37278c-.000034-.2944-.26799-.56246-.562495-.5625h-3.374971c-.05816-.009-.117664-.009-.17578 0z" fill="url(#c)"/><path d="m3.000487 1v20h15.999527v-13l-6-7z" fill="#fff"/><path d="m11 10c-2.761424 0-5 .89543-5 2v4c0 1.10457 2.238576 2 5 2s5-.89543 5-2v-4c0-1.10457-2.238576-2-5-2zm0 1c2.209139 0 4 .44772 4 1s-1.790861 1-4 1-4-.44772-4-1 1.790861-1 4-1zm-4 2.19531c.941815.50538 2.424148.80358 4 .80469 1.574988-.00064 3.057157-.29809 4-.80273v1.60742 1.19531c0 .55228-1.790861 1-4 1s-4-.44772-4-1v-1.19727z" fill="url(#a)"/></svg>