<svg viewBox="0 0 22 22" xmlns="http://www.w3.org/2000/svg" xmlns:xlink="http://www.w3.org/1999/xlink"><linearGradient id="a" gradientTransform="matrix(1.3333333 0 0 1.375 79.332914 275)" gradientUnits="userSpaceOnUse" x1="-46" x2="-56.5" xlink:href="#b" y1="-185.45454" y2="-198.54546"/><linearGradient id="b"><stop offset="0" stop-color="#0369a3"/><stop offset="1" stop-color="#1c99e0"/></linearGradient><linearGradient id="c" gradientTransform="matrix(1.1249688 0 0 1.1245683 -120.9967 -1095.9935)" gradientUnits="userSpaceOnUse" x1="124.00017" x2="111.99994" xlink:href="#b" y1="992.375" y2="976.36902"/><path d="m2.9142093.00675c-.515687.0984-.923302.60028-.914055 1.125l-.000066 19.74327c.000057.5888.535979 1.12493 1.124991 1.12499h15.7494917c.589011-.00006 1.124934-.53619 1.12499-1.12499v-12.99553c.0068-.29695-.109687-.59516-.316404-.80858l-5.624951-6.74775c-.213496-.20658-.511528-.32329-.808586-.31641h-10.1244747c-.07009-.007-.140829-.007-.210936 0zm12.9721047 0c-.372926.11879-.498432.68372-.210935.94922l3.37497 3.37277c.311786.29553.932786.0425.949211-.38671v-3.37278c-.000034-.2944-.26799-.56246-.562495-.5625h-3.374971c-.05816-.009-.117664-.009-.17578 0z" fill="url(#c)"/><path d="m3.0001373 1-.000066 20h15.9995187v-13l-6-7z" fill="#fff"/><path d="m4.9995843 10v1h8.9999997v-1zm0 2v1h11.9999997v-1zm0 2v1h11.9999997v-1zm0 2v1h8.9999997v-1z" fill="url(#a)"/></svg>