<svg viewBox="0 0 16 16" xmlns="http://www.w3.org/2000/svg" xmlns:xlink="http://www.w3.org/1999/xlink"><radialGradient id="a" cx="7.01072" cy="4.528114" gradientTransform="matrix(-1.783003 .00000004 -.00000006 -3.9241543 18.878381 17.226576)" gradientUnits="userSpaceOnUse" r="3.431876"><stop offset="0" stop-color="#737373"/><stop offset=".262" stop-color="#636363"/><stop offset=".705" stop-color="#4b4b4b"/><stop offset="1" stop-color="#3f3f3f"/></radialGradient>


/&amp;amp;gt;<g stroke-linejoin="round"><path d="m10.992402 12.239006-1.2785989-3.6200339h-4.3552285l-1.2945817 3.6200339h-1.5023541l4.2912986-11.73114764h1.3585117l4.2992899 11.73114764zm-1.7500823-4.9385894-1.1827043-3.3882879q-.0479475-.1438424-.1198687-.3516147-.0639299-.2077724-.1358511-.4475098-.0719212-.2397373-.1438424-.4954572-.0719213-.263711-.1358512-.5114396-.0559387.2477286-.1278599.5114396-.0719212.2637111-.1438424.5114397-.0719212.2397374-.1438425.4475097-.0639299.1997812-.1118774.3356323l-1.1587305 3.3882879z" fill="url(#a)" stroke="#000" stroke-opacity=".6" stroke-width="1.007092" transform="scale(1.0615444 .94202371)"/><path d="m2.5 15.5h11zm0-2h11z" fill="none" stroke="#565656" stroke-linecap="round" stroke-width=".995"/></g></svg>