<svg viewBox="0 0 16 16" xmlns="http://www.w3.org/2000/svg"><path d="m11.542969.99804688-1.40625 7.00195312h3.470703l.205078-1h-1.255859a.90238075 1.1081796 47.937514 0 1 -.8125-.8574219l1.080078-5.14453122zm-8.542969 1.00195312-.203125 1.0625-.203125.9375h.8808594c.3043336-.5180501.7206732-.6904225 1.2382812-.9375h3.2207032c-.9679511 3.3097679-3.9309819 6.4917172-7.86523442 8.287109l1.01171872.501953c4.9802641-2.2637542 8.1237039-5.8704732 8.9199219-9.851562z" fill="#232629"/><path d="m10 9-.9902344.9902344 2.0097654 2.0097656-2.0097654 2.009766.9902344.990234 2.009766-2.009766 2.009765 2.009766.990235-.990234-2.009766-2.009766 2.009766-2.0097656-.990235-.9902344-2.009765 2.009766z" fill="#da4453"/></svg>