<?xml version="1.0" encoding="UTF-8" standalone="no"?>
<svg
   xmlns:dc="http://purl.org/dc/elements/1.1/"
   xmlns:cc="http://creativecommons.org/ns#"
   xmlns:rdf="http://www.w3.org/1999/02/22-rdf-syntax-ns#"
   xmlns:svg="http://www.w3.org/2000/svg"
   xmlns="http://www.w3.org/2000/svg"
   xmlns:sodipodi="http://sodipodi.sourceforge.net/DTD/sodipodi-0.dtd"
   xmlns:inkscape="http://www.inkscape.org/namespaces/inkscape"
   viewBox="0 0 32 32"
   version="1.1"
   id="svg10"
   sodipodi:docname="alphaliststyle.svg"
   inkscape:version="0.92.5 (2060ec1f9f, 2020-04-08)"
   inkscape:export-filename="/home/jupiter007/Libreoffice yaru theme fullcolor/build/cmd/32/alphaliststyle.png"
   inkscape:export-xdpi="96"
   inkscape:export-ydpi="96">
  <metadata
     id="metadata16">
    <rdf:RDF>
      <cc:Work
         rdf:about="">
        <dc:format>image/svg+xml</dc:format>
        <dc:type
           rdf:resource="http://purl.org/dc/dcmitype/StillImage" />
      </cc:Work>
    </rdf:RDF>
  </metadata>
  <defs
     id="defs14" />
  <sodipodi:namedview
     pagecolor="#ffffff"
     bordercolor="#666666"
     borderopacity="1"
     objecttolerance="10"
     gridtolerance="10"
     guidetolerance="10"
     inkscape:pageopacity="0"
     inkscape:pageshadow="2"
     inkscape:window-width="1920"
     inkscape:window-height="1011"
     id="namedview12"
     showgrid="true"
     inkscape:zoom="20.85965"
     inkscape:cx="26.678196"
     inkscape:cy="15.317517"
     inkscape:window-x="1920"
     inkscape:window-y="32"
     inkscape:window-maximized="1"
     inkscape:current-layer="svg10">
    <inkscape:grid
       type="xygrid"
       id="grid823" />
  </sodipodi:namedview>
  <path
     inkscape:connector-curvature="0"
     d="m 4,4 v 2 1 2 1 H 7 C 8.108,10 9,9.108 9,8 9,7.1891 8.50311,6.502 7.8125,6.1875 7.91845,5.9817 8,5.7483 8,5.5 8,4.669 7.331,4 6.5,4 H 5 Z M 5,5 H 6.5 C 6.777,5 7,5.223 7,5.5 7,5.777 6.777,6 6.5,6 H 5 Z M 5,7 H 6.5 7 C 7.554,7 8,7.446 8,8 8,8.554 7.554,9 7,9 H 5 Z"
     id="path819"
     style="fill:#000000;stroke:#000000;stroke-width:2;stroke-linejoin:round;stroke-miterlimit:4;stroke-dasharray:none;opacity:0.6" />
  <path
     inkscape:connector-curvature="0"
     d="m 7,14 c -1.65685,0 -3,1.3432 -3,3 0,1.6569 1.3496453,2.853435 3,3 H 8 V 19 H 7 C 5.895431,19 5,18.1046 5,17 5,15.8954 5.8997612,14.90229 7,15 h 1 v -1 z"
     id="path821"
     style="fill:#000000;stroke:#000000;stroke-width:2;stroke-linejoin:round;stroke-miterlimit:4;stroke-dasharray:none;opacity:0.6" />
  <path
     inkscape:connector-curvature="0"
     style="fill:#ffffff"
     id="path2"
     d="m 4,4 v 2 1 2 1 H 7 C 8.108,10 9,9.108 9,8 9,7.1891 8.50311,6.502 7.8125,6.1875 7.91845,5.9817 8,5.7483 8,5.5 8,4.669 7.331,4 6.5,4 H 5 Z M 5,5 H 6.5 C 6.777,5 7,5.223 7,5.5 7,5.777 6.777,6 6.5,6 H 5 Z M 5,7 H 6.5 7 C 7.554,7 8,7.446 8,8 8,8.554 7.554,9 7,9 H 5 Z" />
  <path
     inkscape:connector-curvature="0"
     style="fill:#ffffff"
     id="path4"
     d="m 7,14 c -1.65685,0 -3,1.3432 -3,3 0,1.6569 1.3496453,2.853435 3,3 H 8 V 19 H 7 C 5.895431,19 5,18.1046 5,17 5,15.8954 5.8997612,14.90229 7,15 h 1 v -1 z" />
  <rect
     style="opacity:1;vector-effect:none;fill:#924d8b;fill-opacity:1;stroke:none;stroke-width:3.04599905;stroke-linecap:round;stroke-linejoin:round;stroke-miterlimit:4;stroke-dasharray:none;stroke-dashoffset:0;stroke-opacity:1"
     id="rect839"
     width="16"
     height="2"
     x="-29"
     y="7"
     inkscape:export-filename="/home/jupiter007/Libreoffice yaru theme fullcolor/build/cmd/rect7303.png"
     inkscape:export-xdpi="96"
     inkscape:export-ydpi="96"
     transform="scale(-1,1)" />
  <rect
     inkscape:export-ydpi="96"
     inkscape:export-xdpi="96"
     inkscape:export-filename="/home/jupiter007/Libreoffice yaru theme fullcolor/build/cmd/rect7303.png"
     y="4"
     x="-29"
     height="2"
     width="16"
     id="rect841"
     style="opacity:1;vector-effect:none;fill:#924d8b;fill-opacity:1;stroke:none;stroke-width:3.04599905;stroke-linecap:round;stroke-linejoin:round;stroke-miterlimit:4;stroke-dasharray:none;stroke-dashoffset:0;stroke-opacity:1"
     transform="scale(-1,1)" />
  <rect
     transform="scale(-1,1)"
     inkscape:export-ydpi="96"
     inkscape:export-xdpi="96"
     inkscape:export-filename="/home/jupiter007/Libreoffice yaru theme fullcolor/build/cmd/rect7303.png"
     y="17"
     x="-29"
     height="2"
     width="16"
     id="rect833"
     style="opacity:1;vector-effect:none;fill:#924d8b;fill-opacity:1;stroke:none;stroke-width:3.04599905;stroke-linecap:round;stroke-linejoin:round;stroke-miterlimit:4;stroke-dasharray:none;stroke-dashoffset:0;stroke-opacity:1" />
  <rect
     transform="scale(-1,1)"
     style="opacity:1;vector-effect:none;fill:#924d8b;fill-opacity:1;stroke:none;stroke-width:3.04599905;stroke-linecap:round;stroke-linejoin:round;stroke-miterlimit:4;stroke-dasharray:none;stroke-dashoffset:0;stroke-opacity:1"
     id="rect835"
     width="16"
     height="2"
     x="-29"
     y="14"
     inkscape:export-filename="/home/jupiter007/Libreoffice yaru theme fullcolor/build/cmd/rect7303.png"
     inkscape:export-xdpi="96"
     inkscape:export-ydpi="96" />
  <rect
     style="opacity:1;vector-effect:none;fill:#924d8b;fill-opacity:1;stroke:none;stroke-width:3.04599905;stroke-linecap:round;stroke-linejoin:round;stroke-miterlimit:4;stroke-dasharray:none;stroke-dashoffset:0;stroke-opacity:1"
     id="rect849"
     width="16"
     height="2"
     x="-29"
     y="27"
     inkscape:export-filename="/home/jupiter007/Libreoffice yaru theme fullcolor/build/cmd/rect7303.png"
     inkscape:export-xdpi="96"
     inkscape:export-ydpi="96"
     transform="scale(-1,1)" />
  <rect
     inkscape:export-ydpi="96"
     inkscape:export-xdpi="96"
     inkscape:export-filename="/home/jupiter007/Libreoffice yaru theme fullcolor/build/cmd/rect7303.png"
     y="24"
     x="-29"
     height="2"
     width="16"
     id="rect851"
     style="opacity:1;vector-effect:none;fill:#924d8b;fill-opacity:1;stroke:none;stroke-width:3.04599905;stroke-linecap:round;stroke-linejoin:round;stroke-miterlimit:4;stroke-dasharray:none;stroke-dashoffset:0;stroke-opacity:1"
     transform="scale(-1,1)" />
</svg>
