<?xml version="1.0" encoding="UTF-8" standalone="no"?>
<svg
   xmlns:dc="http://purl.org/dc/elements/1.1/"
   xmlns:cc="http://creativecommons.org/ns#"
   xmlns:rdf="http://www.w3.org/1999/02/22-rdf-syntax-ns#"
   xmlns:svg="http://www.w3.org/2000/svg"
   xmlns="http://www.w3.org/2000/svg"
   xmlns:sodipodi="http://sodipodi.sourceforge.net/DTD/sodipodi-0.dtd"
   xmlns:inkscape="http://www.inkscape.org/namespaces/inkscape"
   viewBox="0 0 32 32"
   version="1.1"
   id="svg6"
   sodipodi:docname="changecasetolower.svg"
   inkscape:version="0.92.5 (2060ec1f9f, 2020-04-08)"
   inkscape:export-filename="/home/jupiter007/Libreoffice yaru theme fullcolor/build/cmd/32/changecasetolower.png"
   inkscape:export-xdpi="96"
   inkscape:export-ydpi="96">
  <metadata
     id="metadata12">
    <rdf:RDF>
      <cc:Work
         rdf:about="">
        <dc:format>image/svg+xml</dc:format>
        <dc:type
           rdf:resource="http://purl.org/dc/dcmitype/StillImage" />
      </cc:Work>
    </rdf:RDF>
  </metadata>
  <defs
     id="defs10" />
  <sodipodi:namedview
     pagecolor="#ffffff"
     bordercolor="#666666"
     borderopacity="1"
     objecttolerance="10"
     gridtolerance="10"
     guidetolerance="10"
     inkscape:pageopacity="0"
     inkscape:pageshadow="2"
     inkscape:window-width="1920"
     inkscape:window-height="1011"
     id="namedview8"
     showgrid="true"
     inkscape:zoom="20.85965"
     inkscape:cx="1.6271774"
     inkscape:cy="13.44665"
     inkscape:window-x="1920"
     inkscape:window-y="32"
     inkscape:window-maximized="1"
     inkscape:current-layer="svg6">
    <inkscape:grid
       type="xygrid"
       id="grid822" />
  </sodipodi:namedview>
  <path
     style="fill:#000000;fill-opacity:1;stroke:#000000;opacity:0.6;stroke-width:2;stroke-miterlimit:4;stroke-dasharray:none;stroke-linejoin:round"
     inkscape:connector-curvature="0"
     id="path847"
     d="m 20,4 4,5 4,-5 z" />
  <path
     style="opacity:0.6;fill:#000000;stroke:#000000;stroke-width:2;stroke-linejoin:round;stroke-miterlimit:4;stroke-dasharray:none"
     id="path845"
     d="m 17,12 v 17 h 1 1 V 27.730469 A 5.5,5.5 0 0 0 22.5,29 5.5,5.5 0 0 0 28,23.5 5.5,5.5 0 0 0 22.5,18 5.5,5.5 0 0 0 19,19.267578 V 12 H 18 Z M 9.5,18 A 5.5,5.5 0 0 0 4,23.5 5.5,5.5 0 0 0 9.5,29 5.5,5.5 0 0 0 13,27.732422 V 29 h 1 1 V 23.5 18 h -1 -1 v 1.269531 A 5.5,5.5 0 0 0 9.5,18 Z m 0,1 A 4.5,4.5 0 0 0 9.1113281,19.019531 4.5,4.5 0 0 1 9.5,19 Z m 13,0 A 4.5,4.5 0 0 0 22.111328,19.019531 4.5,4.5 0 0 1 22.5,19 Z m -12.6113281,0.01953 a 4.5,4.5 0 0 1 0.2207031,0.02734 4.5,4.5 0 0 0 -0.2207031,-0.02734 z m 13.0000001,0 a 4.5,4.5 0 0 1 0.220703,0.02734 4.5,4.5 0 0 0 -0.220703,-0.02734 z m -13.998047,0.02734 a 4.5,4.5 0 0 0 -0.2128906,0.0332 4.5,4.5 0 0 1 0.2128906,-0.0332 z m 13,0 a 4.5,4.5 0 0 0 -0.212891,0.0332 4.5,4.5 0 0 1 0.212891,-0.0332 z m -11.568359,0.0332 a 4.5,4.5 0 0 1 0.236328,0.05273 4.5,4.5 0 0 0 -0.236328,-0.05273 z m 13,0 a 4.5,4.5 0 0 1 0.236328,0.05273 4.5,4.5 0 0 0 -0.236328,-0.05273 z m -14.8808598,0.05273 a 4.5,4.5 0 0 0 -0.2050781,0.05078 4.5,4.5 0 0 1 0.2050781,-0.05078 z m 12.9999998,0 a 4.5,4.5 0 0 0 -0.205078,0.05078 4.5,4.5 0 0 1 0.205078,-0.05078 z m -10.677734,0.05078 a 4.5,4.5 0 0 1 0.226562,0.07617 4.5,4.5 0 0 0 -0.226562,-0.07617 z m 13,0 a 4.5,4.5 0 0 1 0.226562,0.07617 4.5,4.5 0 0 0 -0.226562,-0.07617 z m -15.7539064,0.07617 a 4.5,4.5 0 0 0 -0.1953125,0.07227 4.5,4.5 0 0 1 0.1953125,-0.07227 z m 13.0000004,0 a 4.5,4.5 0 0 0 -0.195313,0.07227 4.5,4.5 0 0 1 0.195313,-0.07227 z m -9.824219,0.07227 a 4.5,4.5 0 0 1 0.228515,0.101563 4.5,4.5 0 0 0 -0.228515,-0.101563 z m 13,0 a 4.5,4.5 0 0 1 0.228515,0.101563 4.5,4.5 0 0 0 -0.228515,-0.101563 z M 7.5859375,19.433594 a 4.5,4.5 0 0 0 -0.1738281,0.08398 4.5,4.5 0 0 1 0.1738281,-0.08398 z m 13.0000005,0 a 4.5,4.5 0 0 0 -0.173829,0.08398 4.5,4.5 0 0 1 0.173829,-0.08398 z m -8.998047,0.08398 a 4.5,4.5 0 0 1 0.21875,0.123047 4.5,4.5 0 0 0 -0.21875,-0.123047 z m 13,0 a 4.5,4.5 0 0 1 0.21875,0.123047 4.5,4.5 0 0 0 -0.21875,-0.123047 z M 7.1933594,19.640625 A 4.5,4.5 0 0 0 7.0175781,19.75 4.5,4.5 0 0 1 7.1933594,19.640625 Z m 12.9999996,0 A 4.5,4.5 0 0 0 20.017578,19.75 4.5,4.5 0 0 1 20.193359,19.640625 Z M 11.982422,19.75 A 4.5,4.5 0 0 1 12.167969,19.880859 4.5,4.5 0 0 0 11.982422,19.75 Z m 13,0 A 4.5,4.5 0 0 1 25.167969,19.880859 4.5,4.5 0 0 0 24.982422,19.75 Z M 6.8320312,19.880859 a 4.5,4.5 0 0 0 -0.1835937,0.142579 4.5,4.5 0 0 1 0.1835937,-0.142579 z m 12.9999998,0 a 4.5,4.5 0 0 0 -0.183593,0.142579 4.5,4.5 0 0 1 0.183593,-0.142579 z M 9.5,20 A 3.5,3.5 0 0 1 13,23.5 3.5,3.5 0 0 1 9.5,27 3.5,3.5 0 0 1 6,23.5 3.5,3.5 0 0 1 9.5,20 Z m 13,0 A 3.5,3.5 0 0 1 26,23.5 3.5,3.5 0 0 1 22.5,27 3.5,3.5 0 0 1 19,23.5 3.5,3.5 0 0 1 22.5,20 Z m -10.148438,0.02344 a 4.5,4.5 0 0 1 0.150391,0.132812 4.5,4.5 0 0 0 -0.150391,-0.132812 z m 13,0 a 4.5,4.5 0 0 1 0.150391,0.132812 4.5,4.5 0 0 0 -0.150391,-0.132812 z M 6.4980469,20.15625 A 4.5,4.5 0 0 0 6.3203125,20.320312 4.5,4.5 0 0 1 6.4980469,20.15625 Z m 13.0000001,0 a 4.5,4.5 0 0 0 -0.177735,0.164062 4.5,4.5 0 0 1 0.177735,-0.164062 z m -6.818359,0.164062 a 4.5,4.5 0 0 1 0.164062,0.177735 4.5,4.5 0 0 0 -0.164062,-0.177735 z m 13,0 a 4.5,4.5 0 0 1 0.164062,0.177735 4.5,4.5 0 0 0 -0.164062,-0.177735 z M 6.15625,20.498047 A 4.5,4.5 0 0 0 6.0234375,20.648438 4.5,4.5 0 0 1 6.15625,20.498047 Z M 19.152344,20.5 A 4.5,4.5 0 0 0 19.025391,20.644531 4.5,4.5 0 0 1 19.152344,20.5 Z m 6.824218,0.148438 a 4.5,4.5 0 0 1 0.142579,0.183593 4.5,4.5 0 0 0 -0.142579,-0.183593 z m -12.998046,0.002 A 4.5,4.5 0 0 1 13,20.673828 v 0.0039 a 4.5,4.5 0 0 0 -0.02148,-0.02734 z m -7.0976566,0.18164 A 4.5,4.5 0 0 0 5.75,21.017578 4.5,4.5 0 0 1 5.8808594,20.832031 Z M 26.25,21.017578 A 4.5,4.5 0 0 1 26.359375,21.193359 4.5,4.5 0 0 0 26.25,21.017578 Z M 5.640625,21.193359 a 4.5,4.5 0 0 0 -0.1230469,0.21875 4.5,4.5 0 0 1 0.1230469,-0.21875 z m 20.841797,0.21875 a 4.5,4.5 0 0 1 0.08398,0.173829 4.5,4.5 0 0 0 -0.08398,-0.173829 z M 5.4335938,21.585938 a 4.5,4.5 0 0 0 -0.1015626,0.228515 4.5,4.5 0 0 1 0.1015626,-0.228515 z m 21.2343752,0.228515 a 4.5,4.5 0 0 1 0.07227,0.195313 4.5,4.5 0 0 0 -0.07227,-0.195313 z M 5.2597656,22.009766 a 4.5,4.5 0 0 0 -0.076172,0.226562 4.5,4.5 0 0 1 0.076172,-0.226562 z m 21.5566404,0.226562 a 4.5,4.5 0 0 1 0.05078,0.205078 4.5,4.5 0 0 0 -0.05078,-0.205078 z M 5.1328125,22.441406 a 4.5,4.5 0 0 0 -0.052734,0.236328 4.5,4.5 0 0 1 0.052734,-0.236328 z m 21.7871095,0.236328 a 4.5,4.5 0 0 1 0.0332,0.212891 4.5,4.5 0 0 0 -0.0332,-0.212891 z M 5.046875,22.890625 a 4.5,4.5 0 0 0 -0.027344,0.220703 4.5,4.5 0 0 1 0.027344,-0.220703 z m 21.933594,0.220703 A 4.5,4.5 0 0 1 27,23.5 4.5,4.5 0 0 0 26.980469,23.111328 Z M 5,23.5 A 4.5,4.5 0 0 0 5.0195312,23.888672 4.5,4.5 0 0 1 5,23.5 Z m 21.980469,0.388672 a 4.5,4.5 0 0 1 -0.02734,0.220703 4.5,4.5 0 0 0 0.02734,-0.220703 z M 5.046875,24.109375 a 4.5,4.5 0 0 0 0.033203,0.212891 4.5,4.5 0 0 1 -0.033203,-0.212891 z m 21.873047,0.212891 a 4.5,4.5 0 0 1 -0.05273,0.236328 4.5,4.5 0 0 0 0.05273,-0.236328 z M 5.1328125,24.558594 a 4.5,4.5 0 0 0 0.050781,0.205078 4.5,4.5 0 0 1 -0.050781,-0.205078 z m 21.6835935,0.205078 a 4.5,4.5 0 0 1 -0.07617,0.226562 4.5,4.5 0 0 0 0.07617,-0.226562 z M 5.2597656,24.990234 a 4.5,4.5 0 0 0 0.072266,0.195313 4.5,4.5 0 0 1 -0.072266,-0.195313 z m 21.4082034,0.195313 a 4.5,4.5 0 0 1 -0.101563,0.228515 4.5,4.5 0 0 0 0.101563,-0.228515 z M 5.4335938,25.414062 a 4.5,4.5 0 0 0 0.083984,0.173829 4.5,4.5 0 0 1 -0.083984,-0.173829 z m 21.0488282,0.173829 a 4.5,4.5 0 0 1 -0.123047,0.21875 4.5,4.5 0 0 0 0.123047,-0.21875 z M 5.640625,25.806641 A 4.5,4.5 0 0 0 5.75,25.982422 4.5,4.5 0 0 1 5.640625,25.806641 Z M 26.25,25.982422 A 4.5,4.5 0 0 1 26.119141,26.167969 4.5,4.5 0 0 0 26.25,25.982422 Z M 5.8808594,26.167969 A 4.5,4.5 0 0 0 6.0234375,26.351562 4.5,4.5 0 0 1 5.8808594,26.167969 Z M 19,26.322266 a 4.5,4.5 0 0 0 0.02148,0.02734 A 4.5,4.5 0 0 1 19,26.326172 Z m 6.976562,0.0293 a 4.5,4.5 0 0 1 -0.132812,0.150391 4.5,4.5 0 0 0 0.132812,-0.150391 z m -13.001953,0.0039 A 4.5,4.5 0 0 1 12.847656,26.5 4.5,4.5 0 0 0 12.974609,26.355469 Z M 6.15625,26.501953 A 4.5,4.5 0 0 0 6.3203125,26.679688 4.5,4.5 0 0 1 6.15625,26.501953 Z m 13,0 a 4.5,4.5 0 0 0 0.164062,0.177735 4.5,4.5 0 0 1 -0.164062,-0.177735 z m -6.476562,0.177735 a 4.5,4.5 0 0 1 -0.177735,0.164062 4.5,4.5 0 0 0 0.177735,-0.164062 z m 13,0 a 4.5,4.5 0 0 1 -0.177735,0.164062 4.5,4.5 0 0 0 0.177735,-0.164062 z M 6.4980469,26.84375 A 4.5,4.5 0 0 0 6.6484375,26.976562 4.5,4.5 0 0 1 6.4980469,26.84375 Z m 13.0000001,0 a 4.5,4.5 0 0 0 0.150391,0.132812 4.5,4.5 0 0 1 -0.150391,-0.132812 z m -7.146485,0.132812 a 4.5,4.5 0 0 1 -0.183593,0.142579 4.5,4.5 0 0 0 0.183593,-0.142579 z m 13,0 a 4.5,4.5 0 0 1 -0.183593,0.142579 4.5,4.5 0 0 0 0.183593,-0.142579 z M 6.8320312,27.119141 A 4.5,4.5 0 0 0 7.0175781,27.25 4.5,4.5 0 0 1 6.8320312,27.119141 Z m 12.9999998,0 A 4.5,4.5 0 0 0 20.017578,27.25 4.5,4.5 0 0 1 19.832031,27.119141 Z M 11.982422,27.25 A 4.5,4.5 0 0 1 11.806641,27.359375 4.5,4.5 0 0 0 11.982422,27.25 Z m 13,0 A 4.5,4.5 0 0 1 24.806641,27.359375 4.5,4.5 0 0 0 24.982422,27.25 Z M 7.1933594,27.359375 a 4.5,4.5 0 0 0 0.21875,0.123047 4.5,4.5 0 0 1 -0.21875,-0.123047 z m 12.9999996,0 a 4.5,4.5 0 0 0 0.21875,0.123047 4.5,4.5 0 0 1 -0.21875,-0.123047 z m -8.605468,0.123047 a 4.5,4.5 0 0 1 -0.173829,0.08398 4.5,4.5 0 0 0 0.173829,-0.08398 z m 13,0 a 4.5,4.5 0 0 1 -0.173829,0.08398 4.5,4.5 0 0 0 0.173829,-0.08398 z m -17.0019535,0.08398 a 4.5,4.5 0 0 0 0.2285156,0.101563 4.5,4.5 0 0 1 -0.2285156,-0.101563 z m 13.0000005,0 a 4.5,4.5 0 0 0 0.228515,0.101563 4.5,4.5 0 0 1 -0.228515,-0.101563 z m -9.400391,0.101563 a 4.5,4.5 0 0 1 -0.195313,0.07227 4.5,4.5 0 0 0 0.195313,-0.07227 z m 13,0 a 4.5,4.5 0 0 1 -0.195313,0.07227 4.5,4.5 0 0 0 0.195313,-0.07227 z m -16.1757814,0.07227 a 4.5,4.5 0 0 0 0.2265625,0.07617 4.5,4.5 0 0 1 -0.2265625,-0.07617 z m 13.0000004,0 a 4.5,4.5 0 0 0 0.226562,0.07617 4.5,4.5 0 0 1 -0.226562,-0.07617 z m -10.246094,0.07617 a 4.5,4.5 0 0 1 -0.205078,0.05078 4.5,4.5 0 0 0 0.205078,-0.05078 z m 13,0 a 4.5,4.5 0 0 1 -0.205078,0.05078 4.5,4.5 0 0 0 0.205078,-0.05078 z m -15.3222658,0.05078 a 4.5,4.5 0 0 0 0.2363282,0.05273 4.5,4.5 0 0 1 -0.2363282,-0.05273 z m 12.9999998,0 a 4.5,4.5 0 0 0 0.236328,0.05273 4.5,4.5 0 0 1 -0.236328,-0.05273 z m -11.11914,0.05273 a 4.5,4.5 0 0 1 -0.212891,0.0332 4.5,4.5 0 0 0 0.212891,-0.0332 z m 13,0 a 4.5,4.5 0 0 1 -0.212891,0.0332 4.5,4.5 0 0 0 0.212891,-0.0332 z m -14.431641,0.0332 a 4.5,4.5 0 0 0 0.2207031,0.02734 4.5,4.5 0 0 1 -0.2207031,-0.02734 z m 13,0 a 4.5,4.5 0 0 0 0.220703,0.02734 4.5,4.5 0 0 1 -0.220703,-0.02734 z M 9.8886719,27.980469 A 4.5,4.5 0 0 1 9.5,28 4.5,4.5 0 0 0 9.8886719,27.980469 Z m 13.0000001,0 A 4.5,4.5 0 0 1 22.5,28 a 4.5,4.5 0 0 0 0.388672,-0.01953 z"
     inkscape:connector-curvature="0" />
  <path
     d="m 17,12 v 17 h 1 1 V 27.730469 A 5.5,5.5 0 0 0 22.5,29 5.5,5.5 0 0 0 28,23.5 5.5,5.5 0 0 0 22.5,18 5.5,5.5 0 0 0 19,19.267578 V 12 H 18 Z M 9.5,18 A 5.5,5.5 0 0 0 4,23.5 5.5,5.5 0 0 0 9.5,29 5.5,5.5 0 0 0 13,27.732422 V 29 h 1 1 V 23.5 18 h -1 -1 v 1.269531 A 5.5,5.5 0 0 0 9.5,18 Z m 0,1 A 4.5,4.5 0 0 0 9.1113281,19.019531 4.5,4.5 0 0 1 9.5,19 Z m 13,0 A 4.5,4.5 0 0 0 22.111328,19.019531 4.5,4.5 0 0 1 22.5,19 Z m -12.6113281,0.01953 a 4.5,4.5 0 0 1 0.2207031,0.02734 4.5,4.5 0 0 0 -0.2207031,-0.02734 z m 13.0000001,0 a 4.5,4.5 0 0 1 0.220703,0.02734 4.5,4.5 0 0 0 -0.220703,-0.02734 z m -13.998047,0.02734 a 4.5,4.5 0 0 0 -0.2128906,0.0332 4.5,4.5 0 0 1 0.2128906,-0.0332 z m 13,0 a 4.5,4.5 0 0 0 -0.212891,0.0332 4.5,4.5 0 0 1 0.212891,-0.0332 z m -11.568359,0.0332 a 4.5,4.5 0 0 1 0.236328,0.05273 4.5,4.5 0 0 0 -0.236328,-0.05273 z m 13,0 a 4.5,4.5 0 0 1 0.236328,0.05273 4.5,4.5 0 0 0 -0.236328,-0.05273 z m -14.8808598,0.05273 a 4.5,4.5 0 0 0 -0.2050781,0.05078 4.5,4.5 0 0 1 0.2050781,-0.05078 z m 12.9999998,0 a 4.5,4.5 0 0 0 -0.205078,0.05078 4.5,4.5 0 0 1 0.205078,-0.05078 z m -10.677734,0.05078 a 4.5,4.5 0 0 1 0.226562,0.07617 4.5,4.5 0 0 0 -0.226562,-0.07617 z m 13,0 a 4.5,4.5 0 0 1 0.226562,0.07617 4.5,4.5 0 0 0 -0.226562,-0.07617 z m -15.7539064,0.07617 a 4.5,4.5 0 0 0 -0.1953125,0.07227 4.5,4.5 0 0 1 0.1953125,-0.07227 z m 13.0000004,0 a 4.5,4.5 0 0 0 -0.195313,0.07227 4.5,4.5 0 0 1 0.195313,-0.07227 z m -9.824219,0.07227 a 4.5,4.5 0 0 1 0.228515,0.101563 4.5,4.5 0 0 0 -0.228515,-0.101563 z m 13,0 a 4.5,4.5 0 0 1 0.228515,0.101563 4.5,4.5 0 0 0 -0.228515,-0.101563 z M 7.5859375,19.433594 a 4.5,4.5 0 0 0 -0.1738281,0.08398 4.5,4.5 0 0 1 0.1738281,-0.08398 z m 13.0000005,0 a 4.5,4.5 0 0 0 -0.173829,0.08398 4.5,4.5 0 0 1 0.173829,-0.08398 z m -8.998047,0.08398 a 4.5,4.5 0 0 1 0.21875,0.123047 4.5,4.5 0 0 0 -0.21875,-0.123047 z m 13,0 a 4.5,4.5 0 0 1 0.21875,0.123047 4.5,4.5 0 0 0 -0.21875,-0.123047 z M 7.1933594,19.640625 A 4.5,4.5 0 0 0 7.0175781,19.75 4.5,4.5 0 0 1 7.1933594,19.640625 Z m 12.9999996,0 A 4.5,4.5 0 0 0 20.017578,19.75 4.5,4.5 0 0 1 20.193359,19.640625 Z M 11.982422,19.75 A 4.5,4.5 0 0 1 12.167969,19.880859 4.5,4.5 0 0 0 11.982422,19.75 Z m 13,0 A 4.5,4.5 0 0 1 25.167969,19.880859 4.5,4.5 0 0 0 24.982422,19.75 Z M 6.8320312,19.880859 a 4.5,4.5 0 0 0 -0.1835937,0.142579 4.5,4.5 0 0 1 0.1835937,-0.142579 z m 12.9999998,0 a 4.5,4.5 0 0 0 -0.183593,0.142579 4.5,4.5 0 0 1 0.183593,-0.142579 z M 9.5,20 A 3.5,3.5 0 0 1 13,23.5 3.5,3.5 0 0 1 9.5,27 3.5,3.5 0 0 1 6,23.5 3.5,3.5 0 0 1 9.5,20 Z m 13,0 A 3.5,3.5 0 0 1 26,23.5 3.5,3.5 0 0 1 22.5,27 3.5,3.5 0 0 1 19,23.5 3.5,3.5 0 0 1 22.5,20 Z m -10.148438,0.02344 a 4.5,4.5 0 0 1 0.150391,0.132812 4.5,4.5 0 0 0 -0.150391,-0.132812 z m 13,0 a 4.5,4.5 0 0 1 0.150391,0.132812 4.5,4.5 0 0 0 -0.150391,-0.132812 z M 6.4980469,20.15625 A 4.5,4.5 0 0 0 6.3203125,20.320312 4.5,4.5 0 0 1 6.4980469,20.15625 Z m 13.0000001,0 a 4.5,4.5 0 0 0 -0.177735,0.164062 4.5,4.5 0 0 1 0.177735,-0.164062 z m -6.818359,0.164062 a 4.5,4.5 0 0 1 0.164062,0.177735 4.5,4.5 0 0 0 -0.164062,-0.177735 z m 13,0 a 4.5,4.5 0 0 1 0.164062,0.177735 4.5,4.5 0 0 0 -0.164062,-0.177735 z M 6.15625,20.498047 A 4.5,4.5 0 0 0 6.0234375,20.648438 4.5,4.5 0 0 1 6.15625,20.498047 Z M 19.152344,20.5 A 4.5,4.5 0 0 0 19.025391,20.644531 4.5,4.5 0 0 1 19.152344,20.5 Z m 6.824218,0.148438 a 4.5,4.5 0 0 1 0.142579,0.183593 4.5,4.5 0 0 0 -0.142579,-0.183593 z m -12.998046,0.002 A 4.5,4.5 0 0 1 13,20.673828 v 0.0039 a 4.5,4.5 0 0 0 -0.02148,-0.02734 z m -7.0976566,0.18164 A 4.5,4.5 0 0 0 5.75,21.017578 4.5,4.5 0 0 1 5.8808594,20.832031 Z M 26.25,21.017578 A 4.5,4.5 0 0 1 26.359375,21.193359 4.5,4.5 0 0 0 26.25,21.017578 Z M 5.640625,21.193359 a 4.5,4.5 0 0 0 -0.1230469,0.21875 4.5,4.5 0 0 1 0.1230469,-0.21875 z m 20.841797,0.21875 a 4.5,4.5 0 0 1 0.08398,0.173829 4.5,4.5 0 0 0 -0.08398,-0.173829 z M 5.4335938,21.585938 a 4.5,4.5 0 0 0 -0.1015626,0.228515 4.5,4.5 0 0 1 0.1015626,-0.228515 z m 21.2343752,0.228515 a 4.5,4.5 0 0 1 0.07227,0.195313 4.5,4.5 0 0 0 -0.07227,-0.195313 z M 5.2597656,22.009766 a 4.5,4.5 0 0 0 -0.076172,0.226562 4.5,4.5 0 0 1 0.076172,-0.226562 z m 21.5566404,0.226562 a 4.5,4.5 0 0 1 0.05078,0.205078 4.5,4.5 0 0 0 -0.05078,-0.205078 z M 5.1328125,22.441406 a 4.5,4.5 0 0 0 -0.052734,0.236328 4.5,4.5 0 0 1 0.052734,-0.236328 z m 21.7871095,0.236328 a 4.5,4.5 0 0 1 0.0332,0.212891 4.5,4.5 0 0 0 -0.0332,-0.212891 z M 5.046875,22.890625 a 4.5,4.5 0 0 0 -0.027344,0.220703 4.5,4.5 0 0 1 0.027344,-0.220703 z m 21.933594,0.220703 A 4.5,4.5 0 0 1 27,23.5 4.5,4.5 0 0 0 26.980469,23.111328 Z M 5,23.5 A 4.5,4.5 0 0 0 5.0195312,23.888672 4.5,4.5 0 0 1 5,23.5 Z m 21.980469,0.388672 a 4.5,4.5 0 0 1 -0.02734,0.220703 4.5,4.5 0 0 0 0.02734,-0.220703 z M 5.046875,24.109375 a 4.5,4.5 0 0 0 0.033203,0.212891 4.5,4.5 0 0 1 -0.033203,-0.212891 z m 21.873047,0.212891 a 4.5,4.5 0 0 1 -0.05273,0.236328 4.5,4.5 0 0 0 0.05273,-0.236328 z M 5.1328125,24.558594 a 4.5,4.5 0 0 0 0.050781,0.205078 4.5,4.5 0 0 1 -0.050781,-0.205078 z m 21.6835935,0.205078 a 4.5,4.5 0 0 1 -0.07617,0.226562 4.5,4.5 0 0 0 0.07617,-0.226562 z M 5.2597656,24.990234 a 4.5,4.5 0 0 0 0.072266,0.195313 4.5,4.5 0 0 1 -0.072266,-0.195313 z m 21.4082034,0.195313 a 4.5,4.5 0 0 1 -0.101563,0.228515 4.5,4.5 0 0 0 0.101563,-0.228515 z M 5.4335938,25.414062 a 4.5,4.5 0 0 0 0.083984,0.173829 4.5,4.5 0 0 1 -0.083984,-0.173829 z m 21.0488282,0.173829 a 4.5,4.5 0 0 1 -0.123047,0.21875 4.5,4.5 0 0 0 0.123047,-0.21875 z M 5.640625,25.806641 A 4.5,4.5 0 0 0 5.75,25.982422 4.5,4.5 0 0 1 5.640625,25.806641 Z M 26.25,25.982422 A 4.5,4.5 0 0 1 26.119141,26.167969 4.5,4.5 0 0 0 26.25,25.982422 Z M 5.8808594,26.167969 A 4.5,4.5 0 0 0 6.0234375,26.351562 4.5,4.5 0 0 1 5.8808594,26.167969 Z M 19,26.322266 a 4.5,4.5 0 0 0 0.02148,0.02734 A 4.5,4.5 0 0 1 19,26.326172 Z m 6.976562,0.0293 a 4.5,4.5 0 0 1 -0.132812,0.150391 4.5,4.5 0 0 0 0.132812,-0.150391 z m -13.001953,0.0039 A 4.5,4.5 0 0 1 12.847656,26.5 4.5,4.5 0 0 0 12.974609,26.355469 Z M 6.15625,26.501953 A 4.5,4.5 0 0 0 6.3203125,26.679688 4.5,4.5 0 0 1 6.15625,26.501953 Z m 13,0 a 4.5,4.5 0 0 0 0.164062,0.177735 4.5,4.5 0 0 1 -0.164062,-0.177735 z m -6.476562,0.177735 a 4.5,4.5 0 0 1 -0.177735,0.164062 4.5,4.5 0 0 0 0.177735,-0.164062 z m 13,0 a 4.5,4.5 0 0 1 -0.177735,0.164062 4.5,4.5 0 0 0 0.177735,-0.164062 z M 6.4980469,26.84375 A 4.5,4.5 0 0 0 6.6484375,26.976562 4.5,4.5 0 0 1 6.4980469,26.84375 Z m 13.0000001,0 a 4.5,4.5 0 0 0 0.150391,0.132812 4.5,4.5 0 0 1 -0.150391,-0.132812 z m -7.146485,0.132812 a 4.5,4.5 0 0 1 -0.183593,0.142579 4.5,4.5 0 0 0 0.183593,-0.142579 z m 13,0 a 4.5,4.5 0 0 1 -0.183593,0.142579 4.5,4.5 0 0 0 0.183593,-0.142579 z M 6.8320312,27.119141 A 4.5,4.5 0 0 0 7.0175781,27.25 4.5,4.5 0 0 1 6.8320312,27.119141 Z m 12.9999998,0 A 4.5,4.5 0 0 0 20.017578,27.25 4.5,4.5 0 0 1 19.832031,27.119141 Z M 11.982422,27.25 A 4.5,4.5 0 0 1 11.806641,27.359375 4.5,4.5 0 0 0 11.982422,27.25 Z m 13,0 A 4.5,4.5 0 0 1 24.806641,27.359375 4.5,4.5 0 0 0 24.982422,27.25 Z M 7.1933594,27.359375 a 4.5,4.5 0 0 0 0.21875,0.123047 4.5,4.5 0 0 1 -0.21875,-0.123047 z m 12.9999996,0 a 4.5,4.5 0 0 0 0.21875,0.123047 4.5,4.5 0 0 1 -0.21875,-0.123047 z m -8.605468,0.123047 a 4.5,4.5 0 0 1 -0.173829,0.08398 4.5,4.5 0 0 0 0.173829,-0.08398 z m 13,0 a 4.5,4.5 0 0 1 -0.173829,0.08398 4.5,4.5 0 0 0 0.173829,-0.08398 z m -17.0019535,0.08398 a 4.5,4.5 0 0 0 0.2285156,0.101563 4.5,4.5 0 0 1 -0.2285156,-0.101563 z m 13.0000005,0 a 4.5,4.5 0 0 0 0.228515,0.101563 4.5,4.5 0 0 1 -0.228515,-0.101563 z m -9.400391,0.101563 a 4.5,4.5 0 0 1 -0.195313,0.07227 4.5,4.5 0 0 0 0.195313,-0.07227 z m 13,0 a 4.5,4.5 0 0 1 -0.195313,0.07227 4.5,4.5 0 0 0 0.195313,-0.07227 z m -16.1757814,0.07227 a 4.5,4.5 0 0 0 0.2265625,0.07617 4.5,4.5 0 0 1 -0.2265625,-0.07617 z m 13.0000004,0 a 4.5,4.5 0 0 0 0.226562,0.07617 4.5,4.5 0 0 1 -0.226562,-0.07617 z m -10.246094,0.07617 a 4.5,4.5 0 0 1 -0.205078,0.05078 4.5,4.5 0 0 0 0.205078,-0.05078 z m 13,0 a 4.5,4.5 0 0 1 -0.205078,0.05078 4.5,4.5 0 0 0 0.205078,-0.05078 z m -15.3222658,0.05078 a 4.5,4.5 0 0 0 0.2363282,0.05273 4.5,4.5 0 0 1 -0.2363282,-0.05273 z m 12.9999998,0 a 4.5,4.5 0 0 0 0.236328,0.05273 4.5,4.5 0 0 1 -0.236328,-0.05273 z m -11.11914,0.05273 a 4.5,4.5 0 0 1 -0.212891,0.0332 4.5,4.5 0 0 0 0.212891,-0.0332 z m 13,0 a 4.5,4.5 0 0 1 -0.212891,0.0332 4.5,4.5 0 0 0 0.212891,-0.0332 z m -14.431641,0.0332 a 4.5,4.5 0 0 0 0.2207031,0.02734 4.5,4.5 0 0 1 -0.2207031,-0.02734 z m 13,0 a 4.5,4.5 0 0 0 0.220703,0.02734 4.5,4.5 0 0 1 -0.220703,-0.02734 z M 9.8886719,27.980469 A 4.5,4.5 0 0 1 9.5,28 4.5,4.5 0 0 0 9.8886719,27.980469 Z m 13.0000001,0 A 4.5,4.5 0 0 1 22.5,28 a 4.5,4.5 0 0 0 0.388672,-0.01953 z"
     id="path2"
     style="fill:#ffffff"
     inkscape:connector-curvature="0" />
  <path
     d="m 20,4 4,5 4,-5 z"
     id="path4"
     inkscape:connector-curvature="0"
     style="fill:#aee3f8;fill-opacity:1" />
</svg>
