<?xml version="1.0" encoding="UTF-8" standalone="no"?>
<svg
   xmlns:dc="http://purl.org/dc/elements/1.1/"
   xmlns:cc="http://creativecommons.org/ns#"
   xmlns:rdf="http://www.w3.org/1999/02/22-rdf-syntax-ns#"
   xmlns:svg="http://www.w3.org/2000/svg"
   xmlns="http://www.w3.org/2000/svg"
   xmlns:sodipodi="http://sodipodi.sourceforge.net/DTD/sodipodi-0.dtd"
   xmlns:inkscape="http://www.inkscape.org/namespaces/inkscape"
   viewBox="0 0 32 32"
   version="1.1"
   id="svg6"
   sodipodi:docname="changebezier.svg"
   inkscape:export-filename="/home/jupiter007/Libreoffice yaru theme fullcolor/build/cmd/32/changebezier.png"
   inkscape:export-xdpi="95"
   inkscape:export-ydpi="95"
   inkscape:version="0.92.5 (2060ec1f9f, 2020-04-08)">
  <metadata
     id="metadata12">
    <rdf:RDF>
      <cc:Work
         rdf:about="">
        <dc:format>image/svg+xml</dc:format>
        <dc:type
           rdf:resource="http://purl.org/dc/dcmitype/StillImage" />
      </cc:Work>
    </rdf:RDF>
  </metadata>
  <defs
     id="defs10" />
  <sodipodi:namedview
     pagecolor="#ffffff"
     bordercolor="#666666"
     borderopacity="1"
     objecttolerance="10"
     gridtolerance="10"
     guidetolerance="10"
     inkscape:pageopacity="0"
     inkscape:pageshadow="2"
     inkscape:window-width="1920"
     inkscape:window-height="1011"
     id="namedview8"
     showgrid="true"
     inkscape:zoom="20.85965"
     inkscape:cx="10.51819"
     inkscape:cy="16.856297"
     inkscape:window-x="0"
     inkscape:window-y="32"
     inkscape:window-maximized="1"
     inkscape:current-layer="svg6">
    <inkscape:grid
       type="xygrid"
       id="grid842" />
  </sodipodi:namedview>
  <path
     d="M 27,6 A 21,21 0 0 0 6,27 h 21 z"
     id="path6"
     inkscape:connector-curvature="0"
     style="fill:#b3b3b3" />
  <path
     d="m 26.5,4.5 c -12.150264,0 -22,9.849736 -22,22 h 1 c 0,-11.045695 9.954305,-21 21,-21 z"
     id="path4"
     style="fill:#1463a5;fill-opacity:1;stroke:#1463a5;stroke-width:1;stroke-miterlimit:4;stroke-dasharray:none;stroke-opacity:1"
     inkscape:connector-curvature="0" />
  <path
     d="M 3,3 V 7 H 7 V 6 H 27 V 4 H 7 V 3 Z M 4,4 H 6 V 6 H 4 Z"
     id="path2"
     inkscape:connector-curvature="0"
     style="fill:#808080;fill-opacity:1"
     sodipodi:nodetypes="cccccccccccccc" />
  <rect
     style="opacity:0.7;vector-effect:none;fill:#000000;fill-opacity:1;stroke:none;stroke-width:1;stroke-linecap:round;stroke-linejoin:round;stroke-miterlimit:4;stroke-dasharray:none;stroke-dashoffset:0;stroke-opacity:1"
     id="rect9084-4"
     width="4"
     height="4"
     x="26"
     y="3" />
  <rect
     style="opacity:1;vector-effect:none;fill:#aee3f8;fill-opacity:1;stroke:none;stroke-width:1;stroke-linecap:round;stroke-linejoin:round;stroke-miterlimit:4;stroke-dasharray:none;stroke-dashoffset:0;stroke-opacity:1"
     id="rect9101-4"
     width="2"
     height="2"
     x="27"
     y="4" />
  <rect
     y="26"
     x="3"
     height="4"
     width="4"
     id="rect832"
     style="opacity:0.7;vector-effect:none;fill:#000000;fill-opacity:1;stroke:none;stroke-width:1;stroke-linecap:round;stroke-linejoin:round;stroke-miterlimit:4;stroke-dasharray:none;stroke-dashoffset:0;stroke-opacity:1" />
  <rect
     y="27"
     x="4"
     height="2"
     width="2"
     id="rect834"
     style="opacity:1;vector-effect:none;fill:#aee3f8;fill-opacity:1;stroke:none;stroke-width:1;stroke-linecap:round;stroke-linejoin:round;stroke-miterlimit:4;stroke-dasharray:none;stroke-dashoffset:0;stroke-opacity:1" />
  <rect
     style="opacity:1;fill:#ffffff;fill-opacity:1;fill-rule:nonzero;stroke:none;stroke-width:0.5;stroke-linecap:round;stroke-linejoin:round;stroke-miterlimit:4;stroke-dasharray:none;stroke-opacity:1"
     id="rect836"
     width="2"
     height="2"
     x="4"
     y="4"
     ry="0" />
  <circle
     style="opacity:1;fill:#762572;fill-opacity:1;stroke:none;stroke-width:2.57142854;stroke-linecap:round;stroke-linejoin:round;stroke-miterlimit:4;stroke-dasharray:none;stroke-opacity:1"
     id="path850"
     cx="25.5"
     cy="25.5"
     r="4.5" />
  <path
     id="path845"
     style="fill:#ffffff;fill-opacity:1"
     d="m 27.6875,24.3125 -0.75,0.75 C 26.9785,25.1996 27,25.34921 27,25.5 27,26.331 26.331,27 25.5,27 25.34921,27 25.1996,26.9785 25.0625,26.9375 l -0.75,0.75 C 24.66714,27.88 25.06657,28 25.5,28 26.885,28 28,26.885 28,25.5 28,25.06657 27.88,24.66714 27.6875,24.3125 Z M 25.5,23 c -1.385,0 -2.5,1.115 -2.5,2.5 0,0.43343 0.12,0.83286 0.3125,1.1875 l 0.75,-0.75 C 24.0215,25.8004 24,25.65079 24,25.5 24,24.669 24.669,24 25.5,24 c 0.15079,0 0.3004,0.0215 0.4375,0.0625 l 0.75,-0.75 C 26.33286,23.12 25.93343,23 25.5,23 Z"
     inkscape:connector-curvature="0" />
</svg>
