<?xml version="1.0" encoding="UTF-8" standalone="no"?>
<svg
   xmlns:dc="http://purl.org/dc/elements/1.1/"
   xmlns:cc="http://creativecommons.org/ns#"
   xmlns:rdf="http://www.w3.org/1999/02/22-rdf-syntax-ns#"
   xmlns:svg="http://www.w3.org/2000/svg"
   xmlns="http://www.w3.org/2000/svg"
   xmlns:sodipodi="http://sodipodi.sourceforge.net/DTD/sodipodi-0.dtd"
   xmlns:inkscape="http://www.inkscape.org/namespaces/inkscape"
   viewBox="0 0 32 32"
   version="1.1"
   id="svg4"
   sodipodi:docname="displaymasterobjects.svg"
   inkscape:version="0.92.5 (2060ec1f9f, 2020-04-08)"
   inkscape:export-filename="/home/jupiter007/Libreoffice yaru theme fullcolor/build/cmd/32/displaymasterobjects.png"
   inkscape:export-xdpi="95"
   inkscape:export-ydpi="95">
  <metadata
     id="metadata10">
    <rdf:RDF>
      <cc:Work
         rdf:about="">
        <dc:format>image/svg+xml</dc:format>
        <dc:type
           rdf:resource="http://purl.org/dc/dcmitype/StillImage" />
      </cc:Work>
    </rdf:RDF>
  </metadata>
  <defs
     id="defs8" />
  <sodipodi:namedview
     pagecolor="#ffffff"
     bordercolor="#666666"
     borderopacity="1"
     objecttolerance="10"
     gridtolerance="10"
     guidetolerance="10"
     inkscape:pageopacity="0"
     inkscape:pageshadow="2"
     inkscape:window-width="1920"
     inkscape:window-height="1011"
     id="namedview6"
     showgrid="true"
     inkscape:zoom="41.7193"
     inkscape:cx="20.47413"
     inkscape:cy="7.4272154"
     inkscape:window-x="1920"
     inkscape:window-y="32"
     inkscape:window-maximized="1"
     inkscape:current-layer="svg4">
    <inkscape:grid
       type="xygrid"
       id="grid825" />
  </sodipodi:namedview>
  <path
     sodipodi:nodetypes="cccscsccccccccscscccccc"
     inkscape:connector-curvature="0"
     id="path4237-1"
     d="m 25.006201,6.999709 c 1.2582,0.0145 2.178891,-0.0306 2.931641,0.384766 0.37637,0.20766 0.673231,0.559386 0.837891,0.998046 0.16467,0.43867 0.224609,0.959588 0.224609,1.617188 v 1.488282 10.512301 c 0,0.657609 -0.0599,1.178578 -0.224609,1.617188 -0.16468,0.438611 -0.461531,0.788524 -0.837891,0.996092 -0.75272,0.415131 -1.673541,0.37165 -2.931641,0.386719 h -0.002 -18.0064929 -0.0039 c -1.2581902,-0.0145 -2.1788912,0.0306 -2.9316412,-0.384766 -0.37637,-0.20766 -0.673221,-0.559386 -0.837891,-0.998045 -0.164539,-0.438671 -0.224618,-0.959579 -0.224618,-1.617188 V 11.466507 9.999709 c 0,-0.6576 0.0599,-1.178577 0.224609,-1.617188 0.16468,-0.4386 0.461531,-0.788533 0.837891,-0.996093 0.75277,-0.41513 1.673601,-0.371639 2.9316912,-0.386719 h 0.002 18.0064929 z"
     style="font-style:normal;font-variant:normal;font-weight:normal;font-stretch:normal;font-size:15px;line-height:125%;font-family:Ubuntu;-inkscape-font-specification:Ubuntu;text-align:center;letter-spacing:0px;word-spacing:0px;writing-mode:lr-tb;text-anchor:middle;display:inline;opacity:0.6;fill:#000000;fill-opacity:1;stroke:none;stroke-width:0.99980211" />
  <path
     inkscape:connector-curvature="0"
     id="path1993"
     d="m 20.016973,8.026894 c 1.556581,0.0108 5.10999,-0.01175 6.659941,0.03877 0.461229,0.04267 1.016188,0.206419 1.15534,0.709967 0.218994,0.635346 0.108414,1.333787 0.145796,1.981924 0.0078,2.297085 0.02297,9.596428 -0.02152,11.88578 -0.0391,0.46193 -0.202551,1.012666 -0.698756,1.163666 -0.632456,0.225082 -1.284144,0.12274 -1.935974,0.154299 -1.424235,0.0068 -10.851197,0.01102 -12.277054,0.01131 -1.704531,3.49e-4 -5.4083879,-0.005 -7.1071901,-0.01851 -0.511911,-0.01201 -1.183699,0.01993 -1.584745,-0.405191 -0.421097,-0.539783 -0.287073,-1.268021 -0.322745,-1.903788 -0.01187,-2.444322 -0.02769,-9.911094 0.0219,-12.356794 0.04928,-0.402041 0.169992,-0.862953 0.575139,-1.044476 0.668169,-0.294097 1.4262052,-0.168019 2.1259212,-0.205572 1.754407,-0.0118 11.5095079,-0.01248 13.2639469,-0.01139 z"
     style="opacity:1;vector-effect:none;fill:#aee3f8;fill-opacity:1;stroke:none;stroke-width:1;stroke-linecap:round;stroke-linejoin:bevel;stroke-miterlimit:4;stroke-dasharray:none;stroke-dashoffset:0;stroke-opacity:1"
     sodipodi:nodetypes="cccccccscccccccc" />
  <path
     sodipodi:nodetypes="ccccccc"
     inkscape:connector-curvature="0"
     style="opacity:0.6;fill:#090909;fill-opacity:1;stroke:#140c0c;stroke-width:2;stroke-linejoin:round;stroke-miterlimit:4;stroke-dasharray:none;stroke-opacity:1"
     id="path839"
     d="m 22.998047,19.929684 c -3.596274,0.0054 -6.912702,1.941384 -8.685547,5.070312 1.772845,3.128929 5.089273,5.064912 8.685547,5.070312 3.596452,-0.0028 6.914412,-1.936568 8.689453,-5.064452 -0.0013,-0.002 -0.0026,-0.0039 -0.0039,-0.0059 0.0013,-0.002 0.0027,-0.0039 0.0039,-0.0059 -1.775061,-3.127852 -5.093018,-5.061618 -8.689453,-5.064372 z" />
  <path
     d="m 22.998047,19.929684 c -3.596274,0.0054 -6.912702,1.941384 -8.685547,5.070312 1.772845,3.128929 5.089273,5.064912 8.685547,5.070312 3.596452,-0.0028 6.914412,-1.936568 8.689453,-5.064452 -0.0013,-0.002 -0.0026,-0.0039 -0.0039,-0.0059 0.0013,-0.002 0.0027,-0.0039 0.0039,-0.0059 -1.775061,-3.127852 -5.093018,-5.061618 -8.689453,-5.064372 z"
     id="path2"
     style="fill:#ffffff;fill-opacity:1"
     inkscape:connector-curvature="0"
     sodipodi:nodetypes="ccccccc" />
  <path
     style="opacity:1;fill:#232629;fill-opacity:1;stroke:none;stroke-width:2;stroke-linecap:round;stroke-linejoin:round;stroke-miterlimit:4;stroke-dasharray:none;stroke-opacity:1"
     d="m 23,20.999996 a 4,4 0 0 0 -4,4 4,4 0 0 0 4,4 4,4 0 0 0 4,-4 4,4 0 0 0 -4,-4 z m 0,1 a 3,3 0 0 1 3,3 3,3 0 0 1 -3,3 3,3 0 0 1 -3,-3 3,3 0 0 1 3,-3 z"
     id="path829"
     inkscape:connector-curvature="0" />
  <path
     style="opacity:1;fill:#232629;fill-opacity:1;stroke:none;stroke-width:2;stroke-linecap:round;stroke-linejoin:round;stroke-miterlimit:4;stroke-dasharray:none;stroke-opacity:1"
     d="m 23,22.999996 a 2,2 0 0 0 -2,2 2,2 0 0 0 2,2 2,2 0 0 0 2,-2 A 2,2 0 0 0 24.91016,24.412105 1,1 0 0 1 24,24.999996 a 1,1 0 0 1 -1,-1 A 1,1 0 0 1 23.589844,23.08984 2,2 0 0 0 23,23 Z"
     id="path834"
     inkscape:connector-curvature="0" />
</svg>
