<?xml version="1.0" encoding="UTF-8" standalone="no"?>
<svg
   xmlns:dc="http://purl.org/dc/elements/1.1/"
   xmlns:cc="http://creativecommons.org/ns#"
   xmlns:rdf="http://www.w3.org/1999/02/22-rdf-syntax-ns#"
   xmlns:svg="http://www.w3.org/2000/svg"
   xmlns="http://www.w3.org/2000/svg"
   xmlns:xlink="http://www.w3.org/1999/xlink"
   xmlns:sodipodi="http://sodipodi.sourceforge.net/DTD/sodipodi-0.dtd"
   xmlns:inkscape="http://www.inkscape.org/namespaces/inkscape"
   viewBox="0 0 32 32"
   version="1.1"
   id="svg6"
   sodipodi:docname="filecontrol.svg"
   inkscape:version="0.92.5 (2060ec1f9f, 2020-04-08)"
   inkscape:export-filename="/home/jupiter007/Libreoffice yaru theme fullcolor/build/cmd/32/filecontrol.png"
   inkscape:export-xdpi="96"
   inkscape:export-ydpi="96">
  <metadata
     id="metadata12">
    <rdf:RDF>
      <cc:Work
         rdf:about="">
        <dc:format>image/svg+xml</dc:format>
        <dc:type
           rdf:resource="http://purl.org/dc/dcmitype/StillImage" />
      </cc:Work>
    </rdf:RDF>
  </metadata>
  <defs
     id="defs10">
    <linearGradient
       inkscape:collect="always"
       xlink:href="#linearGradient5796"
       id="linearGradient5091"
       x1="22.245115"
       y1="-345.06934"
       x2="38.245117"
       y2="-345.06934"
       gradientUnits="userSpaceOnUse"
       gradientTransform="rotate(-90,31.657226,-357.41211)" />
    <linearGradient
       inkscape:collect="always"
       id="linearGradient5796">
      <stop
         id="stop5794"
         offset="0"
         style="stop-color:#4d4d4d;stop-opacity:1" />
      <stop
         id="stop5792"
         offset="1"
         style="stop-color:#151515;stop-opacity:1;" />
    </linearGradient>
    <filter
       inkscape:collect="always"
       style="color-interpolation-filters:sRGB"
       id="filter3915"
       x="-0.3235071"
       width="1.6470141"
       y="-0.1907592"
       height="1.3815184">
      <feGaussianBlur
         inkscape:collect="always"
         stdDeviation="1.2555382"
         id="feGaussianBlur3917" />
    </filter>
    <filter
       inkscape:collect="always"
       style="color-interpolation-filters:sRGB"
       id="filter6028"
       x="-0.16175355"
       width="1.3235071"
       y="-0.095379598"
       height="1.1907592">
      <feGaussianBlur
         inkscape:collect="always"
         stdDeviation="0.62776909"
         id="feGaussianBlur6030" />
    </filter>
  </defs>
  <sodipodi:namedview
     pagecolor="#ffffff"
     bordercolor="#666666"
     borderopacity="1"
     objecttolerance="10"
     gridtolerance="10"
     guidetolerance="10"
     inkscape:pageopacity="0"
     inkscape:pageshadow="2"
     inkscape:window-width="1920"
     inkscape:window-height="1011"
     id="namedview8"
     showgrid="true"
     inkscape:zoom="20.85965"
     inkscape:cx="6.6999832"
     inkscape:cy="11.705129"
     inkscape:window-x="0"
     inkscape:window-y="32"
     inkscape:window-maximized="1"
     inkscape:current-layer="svg6">
    <inkscape:grid
       type="xygrid"
       id="grid830" />
  </sodipodi:namedview>
  <path
     sodipodi:nodetypes="ccccccccc"
     style="opacity:0.6;fill:#000000;stroke:#000000;stroke-width:2;stroke-miterlimit:4;stroke-dasharray:none"
     id="path815"
     d="M 10,28 C 8.0000001,28 6.0000001,27 6.0000001,25 V 7 c 0,-2 2,-3 3.9999999,-3 h 9 l 7,7 v 14 c 0,2 -2,3 -4,3 z"
     inkscape:connector-curvature="0" />
  <path
     inkscape:connector-curvature="0"
     d="M 10,28 C 8.0000001,28 6.0000001,27 6.0000001,25 V 7 c 0,-2 2,-3 3.9999999,-3 h 9 l 7,7 v 14 c 0,2 -2,3 -4,3 z"
     id="path2"
     style="fill:#ffffff"
     sodipodi:nodetypes="ccccccccc" />
  <path
     inkscape:connector-curvature="0"
     d="M 19,11 V 4 l 7,7 z"
     id="path4"
     style="fill:#6d6d6d;fill-opacity:1" />
  <path
     style="color:#000000;font-style:normal;font-variant:normal;font-weight:normal;font-stretch:normal;font-size:medium;line-height:normal;font-family:sans-serif;font-variant-ligatures:normal;font-variant-position:normal;font-variant-caps:normal;font-variant-numeric:normal;font-variant-alternates:normal;font-feature-settings:normal;text-indent:0;text-align:start;text-decoration:none;text-decoration-line:none;text-decoration-style:solid;text-decoration-color:#000000;letter-spacing:normal;word-spacing:normal;text-transform:none;writing-mode:lr-tb;direction:ltr;text-orientation:mixed;dominant-baseline:auto;baseline-shift:baseline;text-anchor:start;white-space:normal;shape-padding:0;clip-rule:nonzero;display:inline;overflow:visible;visibility:visible;opacity:0.6;isolation:auto;mix-blend-mode:normal;color-interpolation:sRGB;color-interpolation-filters:linearRGB;solid-color:#000000;solid-opacity:1;vector-effect:none;fill:#000000;fill-opacity:1;fill-rule:evenodd;stroke:none;stroke-width:1;stroke-linecap:butt;stroke-linejoin:miter;stroke-miterlimit:4;stroke-dasharray:none;stroke-dashoffset:0;stroke-opacity:1;filter:url(#filter6028);color-rendering:auto;image-rendering:auto;shape-rendering:auto;text-rendering:auto;enable-background:accumulate"
     d="m 16.500079,12.320789 v 1.20703 15.398431 l 3.490234,-4.25781 1.746094,4.21289 c 0.17178,0.42931 0.501902,0.73887 0.871095,0.86914 0.370023,0.13057 0.759427,0.0983 1.095704,-0.041 0.336277,-0.13935 0.633513,-0.39208 0.802734,-0.7461 0.169222,-0.35401 0.183512,-0.80661 0,-1.23242 l 0.0039,0.006 -1.82422,-4.40234 4.837892,0.0117 z m 1,2.414061 7.605471,7.60547 -3.919924,-0.01 2.400393,5.79297 0.002,0.002 c 0.08411,0.19517 0.06453,0.3059 0.01563,0.40821 -0.0489,0.1023 -0.153169,0.19807 -0.283204,0.25195 -0.130034,0.0539 -0.27198,0.0592 -0.378906,0.0215 -0.106927,-0.0377 -0.198763,-0.10137 -0.277345,-0.29882 l -0.002,-0.002 -2.386719,-5.76172 -2.775391,3.38477 z"
     id="path6022"
     inkscape:connector-curvature="0" />
  <path
     style="color:#000000;font-style:normal;font-variant:normal;font-weight:normal;font-stretch:normal;font-size:medium;line-height:normal;font-family:sans-serif;font-variant-ligatures:normal;font-variant-position:normal;font-variant-caps:normal;font-variant-numeric:normal;font-variant-alternates:normal;font-feature-settings:normal;text-indent:0;text-align:start;text-decoration:none;text-decoration-line:none;text-decoration-style:solid;text-decoration-color:#000000;letter-spacing:normal;word-spacing:normal;text-transform:none;writing-mode:lr-tb;direction:ltr;text-orientation:mixed;dominant-baseline:auto;baseline-shift:baseline;text-anchor:start;white-space:normal;shape-padding:0;clip-rule:nonzero;display:inline;overflow:visible;visibility:visible;opacity:0.2;isolation:auto;mix-blend-mode:normal;color-interpolation:sRGB;color-interpolation-filters:linearRGB;solid-color:#000000;solid-opacity:1;vector-effect:none;fill:#000000;fill-opacity:1;fill-rule:evenodd;stroke:none;stroke-width:2;stroke-linecap:butt;stroke-linejoin:miter;stroke-miterlimit:4;stroke-dasharray:none;stroke-dashoffset:0;stroke-opacity:1;filter:url(#filter3915);color-rendering:auto;image-rendering:auto;shape-rendering:auto;text-rendering:auto;enable-background:accumulate"
     d="m 16.999657,10.113749 v 2.41407 16.796871 l 3.847656,-4.6914 1.421875,3.42968 c 0.21788,0.54748 0.670306,0.98122 1.171876,1.15821 0.50157,0.17699 1.013726,0.13324 1.453125,-0.0488 0.439399,-0.18208 0.833118,-0.51231 1.0625,-0.99219 0.229383,-0.47988 0.241024,-1.10731 0.0078,-1.64844 l -1.53125,-3.69531 5.300781,0.0117 z m 2,4.828131 5.894532,5.89453 -3.457032,-0.008 -0.01953,-0.0449 -2.41797,2.94743 z"
     id="path3123"
     inkscape:connector-curvature="0" />
  <g
     style="display:inline"
     id="g12439"
     transform="translate(-9.9999202,377.84227)">
    <path
       sodipodi:nodetypes="cccccccc"
       inkscape:connector-curvature="0"
       style="display:inline;fill:none;fill-opacity:1;fill-rule:evenodd;stroke:#ffffff;stroke-width:2;stroke-linecap:butt;stroke-linejoin:miter;stroke-miterlimit:4;stroke-dasharray:none;stroke-opacity:1"
       d="m 27,-365.31445 v 14 l 3.132812,-3.82032 2.066407,4.98633 c 0.500059,1.25653 2.382901,0.47633 1.847656,-0.76562 l -2.111328,-5.09571 4.378906,0.01 z"
       id="path7431" />
    <path
       sodipodi:nodetypes="cccccccc"
       inkscape:connector-curvature="0"
       id="path7371"
       d="m 26.999997,-365.31445 v 14 l 3.13281,-3.82032 2.06641,4.98633 c 0.50006,1.25653 2.3829,0.47633 1.84766,-0.76562 l -2.11133,-5.09571 4.37891,0.01 z"
       style="display:inline;fill:url(#linearGradient5091);fill-opacity:1;fill-rule:evenodd;stroke:none;stroke-width:2;stroke-linecap:butt;stroke-linejoin:miter;stroke-miterlimit:4;stroke-dasharray:none;stroke-opacity:1" />
  </g>
</svg>
