<?xml version="1.0" encoding="UTF-8" standalone="no"?>
<svg
   xmlns:dc="http://purl.org/dc/elements/1.1/"
   xmlns:cc="http://creativecommons.org/ns#"
   xmlns:rdf="http://www.w3.org/1999/02/22-rdf-syntax-ns#"
   xmlns:svg="http://www.w3.org/2000/svg"
   xmlns="http://www.w3.org/2000/svg"
   xmlns:xlink="http://www.w3.org/1999/xlink"
   xmlns:sodipodi="http://sodipodi.sourceforge.net/DTD/sodipodi-0.dtd"
   xmlns:inkscape="http://www.inkscape.org/namespaces/inkscape"
   viewBox="0 0 32 32"
   version="1.1"
   id="svg4"
   sodipodi:docname="freeline_unfilled.svg"
   inkscape:export-filename="/home/jupiter007/Libreoffice yaru theme fullcolor/build/cmd/32/freeline_unfilled.png"
   inkscape:export-xdpi="95"
   inkscape:export-ydpi="95"
   inkscape:version="0.92.4 (5da689c313, 2019-01-14)">
  <metadata
     id="metadata10">
    <rdf:RDF>
      <cc:Work
         rdf:about="">
        <dc:format>image/svg+xml</dc:format>
        <dc:type
           rdf:resource="http://purl.org/dc/dcmitype/StillImage" />
      </cc:Work>
    </rdf:RDF>
  </metadata>
  <defs
     id="defs8">
    <linearGradient
       y2="316.93201"
       x2="702.21381"
       y1="316.93201"
       x1="609.78619"
       gradientUnits="userSpaceOnUse"
       id="linearGradient4400"
       xlink:href="#linearGradient4336-3"
       inkscape:collect="always" />
    <linearGradient
       id="linearGradient4336-3">
      <stop
         id="stop4338-8"
         offset="0"
         style="stop-color:#5884f4;stop-opacity:1" />
      <stop
         style="stop-color:#5884f4;stop-opacity:1"
         offset="0.30756706"
         id="stop4344-3" />
      <stop
         id="stop4346-3"
         offset="0.30756706"
         style="stop-color:#2f5fdd;stop-opacity:1" />
      <stop
         style="stop-color:#2f5fdd;stop-opacity:1"
         offset="0.69206423"
         id="stop4350-1" />
      <stop
         style="stop-color:#234db8;stop-opacity:1"
         offset="0.69206423"
         id="stop4348-6" />
      <stop
         id="stop4340-0"
         offset="1"
         style="stop-color:#234db8;stop-opacity:1" />
    </linearGradient>
  </defs>
  <sodipodi:namedview
     pagecolor="#ffffff"
     bordercolor="#666666"
     borderopacity="1"
     objecttolerance="10"
     gridtolerance="10"
     guidetolerance="10"
     inkscape:pageopacity="0"
     inkscape:pageshadow="2"
     inkscape:window-width="1920"
     inkscape:window-height="1011"
     id="namedview6"
     showgrid="true"
     inkscape:zoom="20.85965"
     inkscape:cx="4.0106843"
     inkscape:cy="12.679962"
     inkscape:window-x="0"
     inkscape:window-y="32"
     inkscape:window-maximized="1"
     inkscape:current-layer="svg4">
    <inkscape:grid
       type="xygrid"
       id="grid817" />
  </sodipodi:namedview>
  <path
     sodipodi:nodetypes="ccccccccccccccccccccccccc"
     style="fill:#000000;stroke:#000000;opacity:0.6;stroke-width:2;stroke-miterlimit:4;stroke-dasharray:none;stroke-linejoin:round"
     inkscape:connector-curvature="0"
     id="path819"
     d="m 24.248047,20.5 c -0.39248,0.001 -1.43173,0.069 -3.09375,0.84375 -0.51959,0.2424 -0.953485,0.51675 -1.546875,0.84375 -0.31677,0.1746 -1.45235,0.74145 -1.875,0.9375 -1.23851,0.5748 -1.65007,0.71986 -2.71875,1.125 -1.03426,0.39225 -2.147777,0.74806 -2.904297,1.03125 C 8.925035,26.47344 4,26.5 4,26.5 V 28 c 0,0 4.99112,0.04799 8.625,-1.3125 0.48203,-0.18045 1.322225,-0.4764 2.109375,-0.75 1.21053,-0.44153 2.516842,-0.985115 3.607422,-1.453125 0.45696,-0.2121 1.5193,-0.736575 1.96875,-0.984375 0.66032,-0.3639 1.100725,-0.632625 1.453125,-0.796875 0.77006,-0.4536 1.625105,-0.723525 2.484375,-0.703125 -0.0672,3e-4 0.26069,0.01469 0.5625,0.140625 0.30182,0.12599 0.637175,0.3504 0.890625,0.5625 0.49098,0.49785 0.696925,0.877735 0.796875,1.546875 -0.0385,1.02299 -0.39095,1.343635 -1.125,1.921875 -0.48575,0.32181 -1.168694,0.380394 -1.871094,0.333984 v 1.453125 c 1.17557,0.002 2.115599,-0.231524 2.667969,-0.521484 1.25507,-0.71579 1.871955,-2.004685 1.828125,-3.234375 -0.007,-0.43185 -0.115825,-0.787575 -0.328125,-1.265625 -0.21237,-0.47789 -0.516045,-1.01416 -0.984375,-1.40625 -0.72278,-0.6348 -1.08547,-0.9141 -2.4375,-1.03125 z" />
  <path
     d="m 24.248047,20.5 c -0.39248,0.001 -1.43173,0.069 -3.09375,0.84375 -0.51959,0.2424 -0.953485,0.51675 -1.546875,0.84375 -0.31677,0.1746 -1.45235,0.74145 -1.875,0.9375 -1.23851,0.5748 -1.65007,0.71986 -2.71875,1.125 -1.03426,0.39225 -2.147777,0.74806 -2.904297,1.03125 C 8.925035,26.47344 4,26.5 4,26.5 V 28 c 0,0 4.99112,0.04799 8.625,-1.3125 0.48203,-0.18045 1.322225,-0.4764 2.109375,-0.75 1.21053,-0.44153 2.516842,-0.985115 3.607422,-1.453125 0.45696,-0.2121 1.5193,-0.736575 1.96875,-0.984375 0.66032,-0.3639 1.100725,-0.632625 1.453125,-0.796875 0.77006,-0.4536 1.625105,-0.723525 2.484375,-0.703125 -0.0672,3e-4 0.26069,0.01469 0.5625,0.140625 0.30182,0.12599 0.637175,0.3504 0.890625,0.5625 0.49098,0.49785 0.696925,0.877735 0.796875,1.546875 -0.0385,1.02299 -0.39095,1.343635 -1.125,1.921875 -0.48575,0.32181 -1.168694,0.380394 -1.871094,0.333984 v 1.453125 c 1.17557,0.002 2.115599,-0.231524 2.667969,-0.521484 1.25507,-0.71579 1.871955,-2.004685 1.828125,-3.234375 -0.007,-0.43185 -0.115825,-0.787575 -0.328125,-1.265625 -0.21237,-0.47789 -0.516045,-1.01416 -0.984375,-1.40625 -0.72278,-0.6348 -1.08547,-0.9141 -2.4375,-1.03125 z"
     id="path2"
     inkscape:connector-curvature="0"
     style="fill:#ffffff"
     sodipodi:nodetypes="ccccccccccccccccccccccccc" />
  <g
     style="display:inline;stroke-width:9.7142868;enable-background:new"
     transform="matrix(0.04974776,0.04974776,-0.05395526,0.05395526,-8.0258033,-30.243261)"
     id="g1135">
    <path
       style="fill:#fee1c2;fill-opacity:1;stroke:none;stroke-width:9.7142868"
       d="m 702.21881,319.35584 -46.21878,81.13762 -46.21383,-81.13762 0.44418,-28.63468 h 92.43261 z"
       id="path1129"
       inkscape:connector-curvature="0"
       sodipodi:nodetypes="cccccc" />
    <path
       style="color:#000000;display:inline;overflow:visible;visibility:visible;fill:#5d5d5d;fill-opacity:1;fill-rule:nonzero;stroke:none;stroke-width:11.66852188;marker:none;enable-background:accumulate"
       d="m 641.30138,374.67695 14.69865,25.81651 14.69864,-25.81651 c 0,0 1.12026,-2.76606 -1.73934,-2.76606 -2.85961,0 -5.69434,3.68807 -5.69434,3.68807 0,0 -1.49371,-4.61009 -7.23393,-4.61009 -5.74023,0 -7.23394,4.61009 -7.23394,4.61009 0,0 -2.89678,-3.68807 -5.7824,-3.68807 -2.88562,0 -1.71334,2.76606 -1.71334,2.76606 z"
       id="path1131"
       inkscape:connector-curvature="0"
       sodipodi:nodetypes="ccczczczc" />
    <path
       style="fill:url(#linearGradient4400);fill-opacity:1;stroke:none;stroke-width:9.7142868"
       d="m 609.7862,306.2504 c 0,-7.37615 28.42768,-3.68808 28.42768,7.37614 0,-18.44036 35.53461,-18.44036 35.53461,0 0,-11.06422 28.47032,-14.75229 28.47032,-7.37614 V 67.928881 H 609.7862 Z"
       id="path1133"
       inkscape:connector-curvature="0"
       sodipodi:nodetypes="ccccccc" />
  </g>
</svg>
