<?xml version="1.0" encoding="UTF-8" standalone="no"?>
<svg
   xmlns:dc="http://purl.org/dc/elements/1.1/"
   xmlns:cc="http://creativecommons.org/ns#"
   xmlns:rdf="http://www.w3.org/1999/02/22-rdf-syntax-ns#"
   xmlns:svg="http://www.w3.org/2000/svg"
   xmlns="http://www.w3.org/2000/svg"
   xmlns:sodipodi="http://sodipodi.sourceforge.net/DTD/sodipodi-0.dtd"
   xmlns:inkscape="http://www.inkscape.org/namespaces/inkscape"
   viewBox="0 0 32 32"
   version="1.1"
   id="svg6"
   sodipodi:docname="graphicfiltersolarize.svg"
   inkscape:version="0.92.4 (5da689c313, 2019-01-14)"
   inkscape:export-filename="/home/jupiter007/Libreoffice yaru theme fullcolor/build/cmd/32/graphicfiltersolarize.png"
   inkscape:export-xdpi="95"
   inkscape:export-ydpi="95">
  <metadata
     id="metadata12">
    <rdf:RDF>
      <cc:Work
         rdf:about="">
        <dc:format>image/svg+xml</dc:format>
        <dc:type
           rdf:resource="http://purl.org/dc/dcmitype/StillImage" />
      </cc:Work>
    </rdf:RDF>
  </metadata>
  <defs
     id="defs10" />
  <sodipodi:namedview
     pagecolor="#ffffff"
     bordercolor="#666666"
     borderopacity="1"
     objecttolerance="10"
     gridtolerance="10"
     guidetolerance="10"
     inkscape:pageopacity="0"
     inkscape:pageshadow="2"
     inkscape:window-width="1920"
     inkscape:window-height="1011"
     id="namedview8"
     showgrid="false"
     inkscape:zoom="14.75"
     inkscape:cx="1.5481448"
     inkscape:cy="18.197686"
     inkscape:window-x="0"
     inkscape:window-y="32"
     inkscape:window-maximized="1"
     inkscape:current-layer="svg6" />
  <path
     style="fill:#000000;stroke:#000000;opacity:0.6;stroke-width:2;stroke-miterlimit:4;stroke-dasharray:none;stroke-linejoin:round"
     id="path812"
     fill="#232629"
     d="m15 4v3h2v-3zm-6.7773438 2.8066406-1.4160156 1.4160156 2.1230469 2.1210938 1.4140625-1.4140625zm15.5546878 0-2.121094 2.1230469 1.414062 1.4140625 2.123047-2.1210938zm-7.777344 1.1933594c-4.418278 0-8 3.581722-8 8s3.581722 8 8 8 8-3.581722 8-8-3.581722-8-8-8zm-12 7v2h3v-2zm21 0v2h3v-2zm-16.0703125 6.65625-2.1230469 2.121094 1.4160156 1.414062 2.1210938-2.121094zm14.1406245 0-1.414062 1.414062 2.121094 2.121094 1.416015-1.414062zm-8.070312 3.34375v3h2v-3z" />
  <path
     d="m15 4v3h2v-3zm-6.7773438 2.8066406-1.4160156 1.4160156 2.1230469 2.1210938 1.4140625-1.4140625zm15.5546878 0-2.121094 2.1230469 1.414062 1.4140625 2.123047-2.1210938zm-7.777344 1.1933594c-4.418278 0-8 3.581722-8 8s3.581722 8 8 8 8-3.581722 8-8-3.581722-8-8-8zm-12 7v2h3v-2zm21 0v2h3v-2zm-16.0703125 6.65625-2.1230469 2.121094 1.4160156 1.414062 2.1210938-2.121094zm14.1406245 0-1.414062 1.414062 2.121094 2.121094 1.416015-1.414062zm-8.070312 3.34375v3h2v-3z"
     fill="#232629"
     id="path2"
     style="fill:#ffffff" />
</svg>
