<?xml version="1.0" encoding="UTF-8" standalone="no"?>
<svg
   xmlns:dc="http://purl.org/dc/elements/1.1/"
   xmlns:cc="http://creativecommons.org/ns#"
   xmlns:rdf="http://www.w3.org/1999/02/22-rdf-syntax-ns#"
   xmlns:svg="http://www.w3.org/2000/svg"
   xmlns="http://www.w3.org/2000/svg"
   xmlns:sodipodi="http://sodipodi.sourceforge.net/DTD/sodipodi-0.dtd"
   xmlns:inkscape="http://www.inkscape.org/namespaces/inkscape"
   height="32"
   viewBox="0 0 32 32"
   width="32"
   version="1.1"
   id="svg6"
   sodipodi:docname="heading2parastyle.svg"
   inkscape:export-filename="/home/jupiter007/Libreoffice yaru theme fullcolor/build/cmd/32/heading2parastyle.png"
   inkscape:export-xdpi="96"
   inkscape:export-ydpi="96"
   inkscape:version="0.92.5 (2060ec1f9f, 2020-04-08)">
  <metadata
     id="metadata12">
    <rdf:RDF>
      <cc:Work
         rdf:about="">
        <dc:format>image/svg+xml</dc:format>
        <dc:type
           rdf:resource="http://purl.org/dc/dcmitype/StillImage" />
      </cc:Work>
    </rdf:RDF>
  </metadata>
  <defs
     id="defs10" />
  <sodipodi:namedview
     pagecolor="#ffffff"
     bordercolor="#666666"
     borderopacity="1"
     objecttolerance="10"
     gridtolerance="10"
     guidetolerance="10"
     inkscape:pageopacity="0"
     inkscape:pageshadow="2"
     inkscape:window-width="1920"
     inkscape:window-height="1011"
     id="namedview8"
     showgrid="true"
     inkscape:zoom="20.85965"
     inkscape:cx="8.1154732"
     inkscape:cy="13.150526"
     inkscape:window-x="0"
     inkscape:window-y="32"
     inkscape:window-maximized="1"
     inkscape:current-layer="svg6">
    <inkscape:grid
       type="xygrid"
       id="grid822" />
  </sodipodi:namedview>
  <path
     style="fill:#000000;fill-opacity:1;stroke:#000000;opacity:0.6;stroke-width:2;stroke-linejoin:round"
     inkscape:connector-curvature="0"
     id="path824"
     d="m 28.999918,27.004868 h -7.750066 v -1.630396 l 2.767144,-2.578335 c 0.824045,-0.844266 1.362455,-1.428175 1.615229,-1.751727 0.252775,-0.328607 0.434773,-0.631937 0.545993,-0.909989 0.111221,-0.278051 0.166831,-0.566214 0.166831,-0.864488 0,-0.444883 -0.123859,-0.776018 -0.371578,-0.993404 -0.242664,-0.217386 -0.568743,-0.326079 -0.978238,-0.326079 -0.429716,0 -0.846794,0.09858 -1.251234,0.295746 -0.404438,0.197164 -0.826572,0.477744 -1.2664,0.841739 l -1.273983,-1.509064 c 0.545993,-0.465104 0.998459,-0.793711 1.357399,-0.98582 0.35894,-0.192108 0.750741,-0.338718 1.175401,-0.439828 0.424662,-0.106165 0.899878,-0.159248 1.425648,-0.159248 0.692603,0 1.304317,0.126388 1.835143,0.379162 0.530827,0.252775 0.94285,0.606659 1.236068,1.061653 0.293218,0.454994 0.439827,0.97571 0.439827,1.562146 0,0.510605 -0.091,0.990877 -0.272996,1.440815 -0.176942,0.444883 -0.454994,0.902405 -0.834156,1.372565 -0.374106,0.470161 -1.036376,1.140014 -1.986808,2.009558 l -1.409745,1.107187 v 0.106165 h 4.830521 z" />
  <path
     style="fill:#000000;stroke-width:2;stroke:#000000;opacity:0.6;stroke-linejoin:round"
     inkscape:connector-curvature="0"
     id="path826"
     d="M 3.9999999,5 V 27 H 6 V 16.99997 h 9.99997 V 27 H 18 V 5 h -2.00003 l 3.1e-5,10 H 6.00003 L 6,5 Z" />
  <path
     d="m 28.999918,27.004868 h -7.750066 v -1.630396 l 2.767144,-2.578335 c 0.824045,-0.844266 1.362455,-1.428175 1.615229,-1.751727 0.252775,-0.328607 0.434773,-0.631937 0.545993,-0.909989 0.111221,-0.278051 0.166831,-0.566214 0.166831,-0.864488 0,-0.444883 -0.123859,-0.776018 -0.371578,-0.993404 -0.242664,-0.217386 -0.568743,-0.326079 -0.978238,-0.326079 -0.429716,0 -0.846794,0.09858 -1.251234,0.295746 -0.404438,0.197164 -0.826572,0.477744 -1.2664,0.841739 l -1.273983,-1.509064 c 0.545993,-0.465104 0.998459,-0.793711 1.357399,-0.98582 0.35894,-0.192108 0.750741,-0.338718 1.175401,-0.439828 0.424662,-0.106165 0.899878,-0.159248 1.425648,-0.159248 0.692603,0 1.304317,0.126388 1.835143,0.379162 0.530827,0.252775 0.94285,0.606659 1.236068,1.061653 0.293218,0.454994 0.439827,0.97571 0.439827,1.562146 0,0.510605 -0.091,0.990877 -0.272996,1.440815 -0.176942,0.444883 -0.454994,0.902405 -0.834156,1.372565 -0.374106,0.470161 -1.036376,1.140014 -1.986808,2.009558 l -1.409745,1.107187 v 0.106165 h 4.830521 z"
     id="path2"
     inkscape:connector-curvature="0"
     style="fill:#aee3f8;fill-opacity:1" />
  <path
     d="M 3.9999999,5 V 27 H 6 V 16.99997 h 9.99997 V 27 H 18 V 5 h -2.00003 l 3.1e-5,10 H 6.00003 L 6,5 Z"
     id="path4"
     inkscape:connector-curvature="0"
     style="fill:#ffffff;stroke-width:1.33333004" />
</svg>
