<?xml version="1.0" encoding="UTF-8" standalone="no"?>
<svg
   xmlns:dc="http://purl.org/dc/elements/1.1/"
   xmlns:cc="http://creativecommons.org/ns#"
   xmlns:rdf="http://www.w3.org/1999/02/22-rdf-syntax-ns#"
   xmlns:svg="http://www.w3.org/2000/svg"
   xmlns="http://www.w3.org/2000/svg"
   xmlns:sodipodi="http://sodipodi.sourceforge.net/DTD/sodipodi-0.dtd"
   xmlns:inkscape="http://www.inkscape.org/namespaces/inkscape"
   height="32"
   viewBox="0 0 32 32"
   width="32"
   version="1.1"
   id="svg6"
   sodipodi:docname="heading4parastyle.svg"
   inkscape:export-filename="/home/jupiter007/Libreoffice yaru theme fullcolor/build/cmd/32/heading4parastyle.png"
   inkscape:export-xdpi="96"
   inkscape:export-ydpi="96"
   inkscape:version="0.92.5 (2060ec1f9f, 2020-04-08)">
  <metadata
     id="metadata12">
    <rdf:RDF>
      <cc:Work
         rdf:about="">
        <dc:format>image/svg+xml</dc:format>
        <dc:type
           rdf:resource="http://purl.org/dc/dcmitype/StillImage" />
      </cc:Work>
    </rdf:RDF>
  </metadata>
  <defs
     id="defs10" />
  <sodipodi:namedview
     pagecolor="#ffffff"
     bordercolor="#666666"
     borderopacity="1"
     objecttolerance="10"
     gridtolerance="10"
     guidetolerance="10"
     inkscape:pageopacity="0"
     inkscape:pageshadow="2"
     inkscape:window-width="1920"
     inkscape:window-height="1011"
     id="namedview8"
     showgrid="true"
     inkscape:zoom="20.85965"
     inkscape:cx="9.2602625"
     inkscape:cy="13.41651"
     inkscape:window-x="0"
     inkscape:window-y="32"
     inkscape:window-maximized="1"
     inkscape:current-layer="svg6">
    <inkscape:grid
       type="xygrid"
       id="grid822" />
  </sodipodi:namedview>
  <path
     style="fill:#000000;fill-opacity:1;stroke:#000000;opacity:0.6;stroke-width:2;stroke-miterlimit:4;stroke-dasharray:none;stroke-linejoin:round"
     inkscape:connector-curvature="0"
     id="path824"
     d="m 29,25 h -1 v 2 l -2.014923,-0.01592 v -2 L 21,25 V 23.071884 L 26.113992,15.984083 28,16 v 7 h 1 z m -3.014923,-2.015917 v -1.998339 c 0,-0.313441 0.01264,-0.768435 0.03792,-1.364982 0.02528,-0.596548 0.0455,-0.942849 0.06067,-1.038903 h -0.06067 c -0.187053,0.41455 -0.412023,0.818989 -0.674908,1.213317 L 23.040568,23 Z" />
  <path
     style="fill:#000000;stroke:#000000;opacity:0.6;stroke-width:2;stroke-miterlimit:4;stroke-dasharray:none;stroke-linejoin:round"
     id="path826"
     stroke-width="1.33333"
     fill="#232629"
     d="m4 5v22h2.0000001v-10.00003h9.9999699v10.00003h2.00003v-22h-2.00003l.000031 10h-9.9999709l-.00003-10z" />
  <path
     d="m 29,25 h -1 v 2 l -2.014923,-0.01592 v -2 L 21,25 V 23.071884 L 26.113992,15.984083 28,16 v 7 h 1 z m -3.014923,-2.015917 v -1.998339 c 0,-0.313441 0.01264,-0.768435 0.03792,-1.364982 0.02528,-0.596548 0.0455,-0.942849 0.06067,-1.038903 h -0.06067 c -0.187053,0.41455 -0.412023,0.818989 -0.674908,1.213317 L 23.040568,23 Z"
     id="path2"
     inkscape:connector-curvature="0"
     style="fill:#aee3f8;fill-opacity:1" />
  <path
     d="m4 5v22h2.0000001v-10.00003h9.9999699v10.00003h2.00003v-22h-2.00003l.000031 10h-9.9999709l-.00003-10z"
     fill="#232629"
     stroke-width="1.33333"
     id="path4"
     style="fill:#ffffff" />
</svg>
