<?xml version="1.0" encoding="UTF-8" standalone="no"?>
<svg
   xmlns:dc="http://purl.org/dc/elements/1.1/"
   xmlns:cc="http://creativecommons.org/ns#"
   xmlns:rdf="http://www.w3.org/1999/02/22-rdf-syntax-ns#"
   xmlns:svg="http://www.w3.org/2000/svg"
   xmlns="http://www.w3.org/2000/svg"
   xmlns:sodipodi="http://sodipodi.sourceforge.net/DTD/sodipodi-0.dtd"
   xmlns:inkscape="http://www.inkscape.org/namespaces/inkscape"
   viewBox="0 0 32 32"
   version="1.1"
   id="svg8"
   sodipodi:docname="hidewhitespace.svg"
   inkscape:export-filename="/home/jupiter007/Libreoffice yaru theme fullcolor/build/cmd/32/hidewhitespace.png"
   inkscape:export-xdpi="95"
   inkscape:export-ydpi="95"
   inkscape:version="0.92.5 (2060ec1f9f, 2020-04-08)">
  <metadata
     id="metadata14">
    <rdf:RDF>
      <cc:Work
         rdf:about="">
        <dc:format>image/svg+xml</dc:format>
        <dc:type
           rdf:resource="http://purl.org/dc/dcmitype/StillImage" />
      </cc:Work>
    </rdf:RDF>
  </metadata>
  <defs
     id="defs12" />
  <sodipodi:namedview
     pagecolor="#ffffff"
     bordercolor="#666666"
     borderopacity="1"
     objecttolerance="10"
     gridtolerance="10"
     guidetolerance="10"
     inkscape:pageopacity="0"
     inkscape:pageshadow="2"
     inkscape:window-width="1920"
     inkscape:window-height="1011"
     id="namedview10"
     showgrid="true"
     inkscape:zoom="10.429825"
     inkscape:cx="-16.493856"
     inkscape:cy="6.3495929"
     inkscape:window-x="0"
     inkscape:window-y="32"
     inkscape:window-maximized="1"
     inkscape:current-layer="svg8">
    <inkscape:grid
       type="xygrid"
       id="grid829" />
  </sodipodi:namedview>
  <path
     inkscape:connector-curvature="0"
     style="opacity:0.6;fill:#000000;stroke:#000000;stroke-width:2;stroke-miterlimit:4;stroke-dasharray:none"
     d="m 28,23 c 0,-2 -1,-4 -3,-4 H 16 7 c -2,0 -3,2 -3,4 v 8 c 0,2 1,4 3,4 h 9 9 c 2,0 3,-2 3,-4 z"
     id="path815"
     sodipodi:nodetypes="sscsssscsss" />
  <path
     inkscape:connector-curvature="0"
     style="fill:#ffffff;fill-opacity:1"
     d="m 28,23 c 0,-2 -1,-4 -3,-4 H 16 7 c -2,0 -3,2 -3,4 v 8 c 0,2 1,4 3,4 h 9 9 c 2,0 3,-2 3,-4 z"
     id="path840"
     sodipodi:nodetypes="sscsssscsss" />
  <path
     sodipodi:nodetypes="sscsssscsss"
     id="path847"
     d="m 28,1 c 0,-2 -1,-4 -3,-4 H 16 7 C 5,-3 4,-1 4,1 v 8 c 0,2 1,4 3,4 h 9 9 c 2,0 3,-2 3,-4 z"
     style="opacity:0.6;fill:#000000;stroke:#000000;stroke-width:2;stroke-miterlimit:4;stroke-dasharray:none"
     inkscape:connector-curvature="0" />
  <path
     sodipodi:nodetypes="sscsssscsss"
     id="path849"
     d="m 28,1 c 0,-2 -1,-4 -3,-4 H 16 7 C 5,-3 4,-1 4,1 v 8 c 0,2 1,4 3,4 h 9 9 c 2,0 3,-2 3,-4 z"
     style="fill:#ffffff;fill-opacity:1"
     inkscape:connector-curvature="0" />
  <path
     style="fill:#e95420;fill-opacity:1;stroke:#e95420;stroke-width:2;stroke-linejoin:round;stroke-miterlimit:4;stroke-dasharray:none;stroke-opacity:1"
     d="m 12,6 4,5 4,-5 z"
     id="path825"
     inkscape:connector-curvature="0"
     sodipodi:nodetypes="cccc" />
  <path
     inkscape:connector-curvature="0"
     id="path857"
     d="m 12,26 4,-5 4,5 z"
     style="fill:#e95420;fill-opacity:1;stroke:#e95420;stroke-width:2;stroke-linejoin:round;stroke-miterlimit:4;stroke-dasharray:none;stroke-opacity:1"
     sodipodi:nodetypes="cccc" />
</svg>
