<?xml version="1.0" encoding="UTF-8" standalone="no"?>
<svg
   xmlns:dc="http://purl.org/dc/elements/1.1/"
   xmlns:cc="http://creativecommons.org/ns#"
   xmlns:rdf="http://www.w3.org/1999/02/22-rdf-syntax-ns#"
   xmlns:svg="http://www.w3.org/2000/svg"
   xmlns="http://www.w3.org/2000/svg"
   xmlns:sodipodi="http://sodipodi.sourceforge.net/DTD/sodipodi-0.dtd"
   xmlns:inkscape="http://www.inkscape.org/namespaces/inkscape"
   viewBox="0 0 32 32"
   version="1.1"
   id="svg6"
   sodipodi:docname="hyphenate.svg"
   inkscape:version="0.92.5 (2060ec1f9f, 2020-04-08)">
  <metadata
     id="metadata12">
    <rdf:RDF>
      <cc:Work
         rdf:about="">
        <dc:format>image/svg+xml</dc:format>
        <dc:type
           rdf:resource="http://purl.org/dc/dcmitype/StillImage" />
      </cc:Work>
    </rdf:RDF>
  </metadata>
  <defs
     id="defs10" />
  <sodipodi:namedview
     pagecolor="#ffffff"
     bordercolor="#666666"
     borderopacity="1"
     objecttolerance="10"
     gridtolerance="10"
     guidetolerance="10"
     inkscape:pageopacity="0"
     inkscape:pageshadow="2"
     inkscape:window-width="1920"
     inkscape:window-height="1011"
     id="namedview8"
     showgrid="true"
     inkscape:zoom="22.627417"
     inkscape:cx="6.2581428"
     inkscape:cy="16.049551"
     inkscape:window-x="0"
     inkscape:window-y="32"
     inkscape:window-maximized="1"
     inkscape:current-layer="svg6">
    <inkscape:grid
       type="xygrid"
       id="grid830" />
  </sodipodi:namedview>
  <path
     sodipodi:nodetypes="cccccccccccc"
     id="path872"
     d="m 20,20 -6,4.5 6,4.5 v -3 h 7 c 2,0 3,0 3,-2 v -6 h -3 v 3.96875 C 27,23 26,23 25,23 h -5 z"
     style="fill:#000000;fill-opacity:1;stroke:#000000;stroke-width:2;stroke-linecap:butt;stroke-linejoin:round;stroke-opacity:1;opacity:0.6;stroke-miterlimit:4;stroke-dasharray:none"
     inkscape:connector-curvature="0"
     inkscape:export-filename="/home/jupiter007/Libreoffice yaru theme fullcolor/build/cmd/32/hyphenate.png"
     inkscape:export-xdpi="95"
     inkscape:export-ydpi="95" />
  <path
     sodipodi:nodetypes="sssccsssccs"
     inkscape:connector-curvature="0"
     id="path854"
     d="M 8.5,18 C 5.4683563,18 3,20.468356 3,23.5 3,26.531644 5.4683563,29 8.5,29 H 11 V 27 H 8.5 C 6.5610811,27 5,25.438919 5,23.5 5,21.561081 6.5610811,20 8.5,20 H 11 v -2 z"
     style="color:#000000;font-style:normal;font-variant:normal;font-weight:normal;font-stretch:normal;font-size:medium;line-height:normal;font-family:sans-serif;font-variant-ligatures:normal;font-variant-position:normal;font-variant-caps:normal;font-variant-numeric:normal;font-variant-alternates:normal;font-feature-settings:normal;text-indent:0;text-align:start;text-decoration:none;text-decoration-line:none;text-decoration-style:solid;text-decoration-color:#000000;letter-spacing:normal;word-spacing:normal;text-transform:none;writing-mode:lr-tb;direction:ltr;text-orientation:mixed;dominant-baseline:auto;baseline-shift:baseline;text-anchor:start;white-space:normal;shape-padding:0;clip-rule:nonzero;display:inline;overflow:visible;visibility:visible;opacity:0.6;isolation:auto;mix-blend-mode:normal;color-interpolation:sRGB;color-interpolation-filters:linearRGB;solid-color:#000000;solid-opacity:1;vector-effect:none;fill:#000000;fill-opacity:1;fill-rule:nonzero;stroke:#000000;stroke-width:2;stroke-linecap:butt;stroke-linejoin:round;stroke-miterlimit:4;stroke-dasharray:none;stroke-dashoffset:0;stroke-opacity:1;color-rendering:auto;image-rendering:auto;shape-rendering:auto;text-rendering:auto;enable-background:accumulate" />
  <path
     style="color:#000000;font-style:normal;font-variant:normal;font-weight:normal;font-stretch:normal;font-size:medium;line-height:normal;font-family:sans-serif;font-variant-ligatures:normal;font-variant-position:normal;font-variant-caps:normal;font-variant-numeric:normal;font-variant-alternates:normal;font-feature-settings:normal;text-indent:0;text-align:start;text-decoration:none;text-decoration-line:none;text-decoration-style:solid;text-decoration-color:#000000;letter-spacing:normal;word-spacing:normal;text-transform:none;writing-mode:lr-tb;direction:ltr;text-orientation:mixed;dominant-baseline:auto;baseline-shift:baseline;text-anchor:start;white-space:normal;shape-padding:0;clip-rule:nonzero;display:inline;overflow:visible;visibility:visible;opacity:1;isolation:auto;mix-blend-mode:normal;color-interpolation:sRGB;color-interpolation-filters:linearRGB;solid-color:#000000;solid-opacity:1;vector-effect:none;fill:#ffffff;fill-opacity:1;fill-rule:nonzero;stroke:none;stroke-width:1;stroke-linecap:butt;stroke-linejoin:miter;stroke-miterlimit:4;stroke-dasharray:none;stroke-dashoffset:0;stroke-opacity:1;color-rendering:auto;image-rendering:auto;shape-rendering:auto;text-rendering:auto;enable-background:accumulate"
     d="M 8.5,18 C 5.4683563,18 3,20.468356 3,23.5 3,26.531644 5.4683563,29 8.5,29 H 11 V 27 H 8.5 C 6.5610811,27 5,25.438919 5,23.5 5,21.561081 6.5610811,20 8.5,20 H 11 v -2 z"
     id="path844"
     inkscape:connector-curvature="0"
     sodipodi:nodetypes="sssccsssccs" />
  <path
     inkscape:connector-curvature="0"
     style="opacity:0.6;fill:#000000;fill-opacity:1;stroke:#000000;stroke-width:2;stroke-linejoin:round;stroke-miterlimit:4;stroke-dasharray:none"
     d="M 7.382813,3 3,14 h 2.357422 l 1.189453,-3 h 2.453126 2.453124 l 1.189453,3 H 15 L 10.617187,3 H 9.000001 Z m 1.617188,1.4960938 1.685546,4.5039063 H 9.000001 7.314454 Z"
     id="path839" />
  <path
     inkscape:connector-curvature="0"
     style="fill:#ffffff;fill-opacity:1;stroke-width:1"
     d="M 7.382813,3 3,14 h 2.357422 l 1.189453,-3 h 2.453126 2.453124 l 1.189453,3 H 15 L 10.617187,3 H 9.000001 Z m 1.617188,1.4960938 1.685546,4.5039063 H 9.000001 7.314454 Z"
     id="path4-3" />
  <path
     inkscape:connector-curvature="0"
     d="m 20,3 v 11 h 1 5 c 1.65686,-3e-6 3.000007,-1.34315 3,-3 C 28.999643,9.747248 28.220883,8.6266128 27.046875,8.1894531 27.65387,7.6229699 27.998954,6.830265 28,6 c 7e-6,-1.6568499 -1.34314,-2.9999969 -3,-3 h -4 z m 2,2 h 2.666016 C 25.402395,5 26,5.5596441 26,6.25 26,6.9403559 25.402395,7.5 24.666016,7.5 H 22 Z m 0,4.5 h 3.572266 C 26.361243,9.5 27,10.059644 27,10.75 27,11.440356 26.361243,12 25.572266,12 H 22 Z"
     style="opacity:0.6;fill:#000000;stroke:#000000;stroke-width:2;stroke-linejoin:round;stroke-miterlimit:4;stroke-dasharray:none"
     id="path835"
     sodipodi:nodetypes="cccccccccccssscccssscc" />
  <path
     inkscape:connector-curvature="0"
     id="path821"
     style="fill:#ffffff"
     d="m 20,3 v 11 h 1 5 c 1.65686,-3e-6 3.000007,-1.34315 3,-3 C 28.999643,9.747248 28.220883,8.6266128 27.046875,8.1894531 27.65387,7.6229699 27.998954,6.830265 28,6 c 7e-6,-1.6568499 -1.34314,-2.9999969 -3,-3 h -4 z m 2,2 h 2.666016 C 25.402395,5 26,5.5596441 26,6.25 26,6.9403559 25.402395,7.5 24.666016,7.5 H 22 Z m 0,4.5 h 3.572266 C 26.361243,9.5 27,10.059644 27,10.75 27,11.440356 26.361243,12 25.572266,12 H 22 Z"
     sodipodi:nodetypes="cccccccccccssscccssscc" />
  <path
     inkscape:connector-curvature="0"
     style="fill:#aee3f8;fill-opacity:1;stroke:none;stroke-width:1px;stroke-linecap:butt;stroke-linejoin:miter;stroke-opacity:1"
     d="m 20,20 -6,4.5 6,4.5 v -3 h 7 c 2,0 3,0 3,-2 v -6 h -3 v 3.96875 C 27,23 26,23 25,23 h -5 z"
     id="path841"
     sodipodi:nodetypes="cccccccccccc" />
</svg>
