<?xml version="1.0" encoding="UTF-8" standalone="no"?>
<svg
   xmlns:dc="http://purl.org/dc/elements/1.1/"
   xmlns:cc="http://creativecommons.org/ns#"
   xmlns:rdf="http://www.w3.org/1999/02/22-rdf-syntax-ns#"
   xmlns:svg="http://www.w3.org/2000/svg"
   xmlns="http://www.w3.org/2000/svg"
   xmlns:sodipodi="http://sodipodi.sourceforge.net/DTD/sodipodi-0.dtd"
   xmlns:inkscape="http://www.inkscape.org/namespaces/inkscape"
   viewBox="0 0 32 32"
   version="1.1"
   id="svg6"
   sodipodi:docname="moduledialog.svg"
   inkscape:export-filename="/home/jupiter007/Libreoffice yaru theme fullcolor/build/cmd/32/moduledialog.png"
   inkscape:export-xdpi="96"
   inkscape:export-ydpi="96"
   inkscape:version="0.92.5 (2060ec1f9f, 2020-04-08)">
  <metadata
     id="metadata12">
    <rdf:RDF>
      <cc:Work
         rdf:about="">
        <dc:format>image/svg+xml</dc:format>
        <dc:type
           rdf:resource="http://purl.org/dc/dcmitype/StillImage" />
      </cc:Work>
    </rdf:RDF>
  </metadata>
  <defs
     id="defs10" />
  <sodipodi:namedview
     pagecolor="#ffffff"
     bordercolor="#666666"
     borderopacity="1"
     objecttolerance="10"
     gridtolerance="10"
     guidetolerance="10"
     inkscape:pageopacity="0"
     inkscape:pageshadow="2"
     inkscape:window-width="1920"
     inkscape:window-height="1011"
     id="namedview8"
     showgrid="false"
     inkscape:zoom="7.375"
     inkscape:cx="0.88135593"
     inkscape:cy="16"
     inkscape:window-x="0"
     inkscape:window-y="32"
     inkscape:window-maximized="1"
     inkscape:current-layer="svg6" />
  <circle
     r="12"
     cy="16"
     cx="16"
     id="circle821"
     style="opacity:0.6;fill:#000000;fill-opacity:1;stroke:#000000;stroke-width:2;stroke-linejoin:round;stroke-miterlimit:4;stroke-dasharray:none;stroke-opacity:1" />
  <circle
     style="opacity:1;fill:#ffffff;fill-opacity:1;stroke:none;stroke-width:4;stroke-linejoin:round;stroke-miterlimit:4;stroke-dasharray:none;stroke-opacity:1"
     id="path819"
     cx="16"
     cy="16"
     r="12" />
  <path
     style="fill:#1a7fd4;fill-opacity:1;stroke:none;stroke-width:1px;stroke-linecap:butt;stroke-linejoin:miter;stroke-opacity:1"
     d="m 12.999999,11 v 10 l 9,-5 z"
     id="path823"
     inkscape:connector-curvature="0"
     sodipodi:nodetypes="cccc" />
  <circle
     style="opacity:1;fill:#ffffff;fill-opacity:1;stroke:none;stroke-width:1;stroke-linecap:round;stroke-linejoin:round;stroke-miterlimit:4;stroke-dasharray:none;stroke-opacity:1"
     id="path816"
     cx="23"
     cy="23"
     r="2" />
  <path
     d="m 22,14.5 c -0.554,0 -1,0.446 -1,1 v 1.886719 a 5.9661016,5.9661016 0 0 0 -0.556641,0.228515 l -1.332031,-1.332031 c -0.391737,-0.391737 -1.022325,-0.391737 -1.414062,0 l -1.414063,1.414063 c -0.391737,0.391737 -0.391737,1.022325 0,1.414062 l 1.333985,1.333984 A 5.9661016,5.9661016 0 0 0 17.386719,21 H 15.5 c -0.554,0 -1,0.446 -1,1 v 2 c 0,0.554 0.446,1 1,1 h 1.886719 a 5.9661016,5.9661016 0 0 0 0.228515,0.556641 l -1.332031,1.332031 c -0.391737,0.391737 -0.391737,1.022325 0,1.414062 l 1.414063,1.414063 c 0.391737,0.391737 1.022325,0.391737 1.414062,0 l 1.333984,-1.333985 A 5.9661016,5.9661016 0 0 0 21,28.613281 V 30.5 c 0,0.554 0.446,1 1,1 h 2 c 0.554,0 1,-0.446 1,-1 v -1.886719 a 5.9661016,5.9661016 0 0 0 0.556641,-0.228515 l 1.332031,1.332031 c 0.391737,0.391737 1.022325,0.391737 1.414062,0 l 1.414063,-1.414063 c 0.391737,-0.391737 0.391737,-1.022325 0,-1.414062 L 28.382812,25.554688 A 5.9661016,5.9661016 0 0 0 28.613281,25 H 30.5 c 0.554,0 1,-0.446 1,-1 v -2 c 0,-0.554 -0.446,-1 -1,-1 h -1.886719 a 5.9661016,5.9661016 0 0 0 -0.228515,-0.556641 l 1.332031,-1.332031 c 0.391737,-0.391737 0.391737,-1.022325 0,-1.414062 l -1.414063,-1.414063 c -0.391737,-0.391737 -1.022325,-0.391737 -1.414062,0 l -1.333984,1.333985 A 5.9661016,5.9661016 0 0 0 25,17.386719 V 15.5 c 0,-0.554 -0.446,-1 -1,-1 z m 1,6.503906 A 1.9954157,1.9954157 0 0 1 24.996094,23 1.9954157,1.9954157 0 0 1 23,24.996094 1.9954157,1.9954157 0 0 1 21.003906,23 1.9954157,1.9954157 0 0 1 23,21.003906 Z"
     id="path49"
     inkscape:connector-curvature="0"
     style="opacity:1;fill:#b3b3b3;fill-opacity:1;stroke:#6d6d6d;stroke-linecap:square;stroke-linejoin:round;stroke-opacity:1" />
</svg>
