<?xml version="1.0" encoding="UTF-8" standalone="no"?>
<svg
   xmlns:dc="http://purl.org/dc/elements/1.1/"
   xmlns:cc="http://creativecommons.org/ns#"
   xmlns:rdf="http://www.w3.org/1999/02/22-rdf-syntax-ns#"
   xmlns:svg="http://www.w3.org/2000/svg"
   xmlns="http://www.w3.org/2000/svg"
   xmlns:sodipodi="http://sodipodi.sourceforge.net/DTD/sodipodi-0.dtd"
   xmlns:inkscape="http://www.inkscape.org/namespaces/inkscape"
   height="32"
   viewBox="0 0 8.4666665 8.4666669"
   width="32"
   version="1.1"
   id="svg88"
   sodipodi:docname="pushbutton.svg"
   inkscape:export-filename="/home/jupiter007/Libreoffice yaru theme fullcolor/build/cmd/32/pushbutton.png"
   inkscape:export-xdpi="95"
   inkscape:export-ydpi="95"
   inkscape:version="0.92.5 (2060ec1f9f, 2020-04-08)">
  <metadata
     id="metadata94">
    <rdf:RDF>
      <cc:Work
         rdf:about="">
        <dc:format>image/svg+xml</dc:format>
        <dc:type
           rdf:resource="http://purl.org/dc/dcmitype/StillImage" />
      </cc:Work>
    </rdf:RDF>
  </metadata>
  <defs
     id="defs92" />
  <sodipodi:namedview
     pagecolor="#ffffff"
     bordercolor="#666666"
     borderopacity="1"
     objecttolerance="10"
     gridtolerance="10"
     guidetolerance="10"
     inkscape:pageopacity="0"
     inkscape:pageshadow="2"
     inkscape:window-width="1920"
     inkscape:window-height="1011"
     id="namedview90"
     showgrid="false"
     inkscape:zoom="7.375"
     inkscape:cx="0.88135593"
     inkscape:cy="16"
     inkscape:window-x="0"
     inkscape:window-y="32"
     inkscape:window-maximized="1"
     inkscape:current-layer="svg88" />
  <linearGradient
     id="a"
     gradientTransform="matrix(1.0000057 0 0 .99999999 -79.012815 -278.25812)"
     gradientUnits="userSpaceOnUse"
     x1="105.47171"
     x2="105.47171"
     y1="283.47653"
     y2="303.33859">
    <stop
       offset="0"
       stop-color="#fff"
       id="stop2" />
    <stop
       offset=".06316455"
       stop-color="#fff"
       stop-opacity=".235294"
       id="stop4" />
    <stop
       offset=".95056331"
       stop-color="#fff"
       stop-opacity=".156863"
       id="stop6" />
    <stop
       offset="1"
       stop-color="#fff"
       stop-opacity=".392157"
       id="stop8" />
  </linearGradient>
  <linearGradient
     id="b"
     gradientTransform="matrix(3.5488514 0 0 .99999999 -822.22715 -30.258293)"
     gradientUnits="userSpaceOnUse"
     x1="235.91496"
     x2="235.88756"
     y1="35.258293"
     y2="57.140381">
    <stop
       offset="0"
       stop-color="#f4f4f4"
       stop-opacity=".746324"
       id="stop11" />
    <stop
       offset=".5"
       stop-color="#f7f7f7"
       id="stop13" />
    <stop
       offset="1"
       stop-color="#dcdcdc"
       id="stop15" />
  </linearGradient>
  <g
     transform="matrix(.26458333 0 0 .26458333 0 1.180042)"
     id="g26">
    <path
       d="m3.9980469 4.0332031c-1.1079987 0-2.0001416.8919937-2 2l.00141 11.0131069c.0001416 1.108006.8920013 2 2 2h24.4902321c1.107999 0 2.000141-.891994 2-2l-.0014-11.0131069c-.000142-1.1080063-.892001-2-2-2z"
       fill="url(#b)"
       id="path18" />
    <g
       fill="none"
       stroke-linecap="round"
       stroke-linejoin="round"
       id="g24">
      <path
         d="m28.496094 5.0351562-24.9863284.00781c-.5540031.0002267-1.0000708.4459968-1 1l.00141 11.0131098c.0000686.53669.4213402.963744.9511719.990234h25.0273415c.554003 0 1.000071-.445997 1-1l-.0014-11.0131069c-.00007-.5511928-.442093-.9935534-.992187-.9980469z"
         stroke="url(#a)"
         id="path20" />
      <path
         d="m3.5 4.0449219c-1.1079984 0-2.0001416.8919937-2 2l.00141 11.0131071c.0001365 1.068339.83218 1.927535 1.8847656 1.988281h25.1035134c1.107999 0 2.000141-.891994 2-2l-.001408-11.0131069c-.000136-1.0665223-.828871-1.9249004-1.878906-1.9882812z"
         opacity=".2"
         stroke="#000"
         id="path22" />
    </g>
  </g>
  <g
     fill="#fbfbfb"
     transform="matrix(.52916666 0 0 .52916666 -3.96875 -7.14375)"
     id="g56">
    <path
       d="m12 21h1v1h-1z"
       id="path28" />
    <path
       d="m13 20h1v1h-1z"
       id="path30" />
    <path
       d="m14 21h1v1h-1z"
       id="path32" />
    <path
       d="m12 22h1v1h-1z"
       id="path34" />
    <path
       d="m14 22h1v1h-1z"
       id="path36" />
    <path
       d="m13 23h1v1h-1z"
       id="path38" />
    <path
       d="m16 20h1v1h-1z"
       id="path40" />
    <path
       d="m16 21h1v1h-1z"
       id="path42" />
    <path
       d="m16 22h1v1h-1z"
       id="path44" />
    <path
       d="m16 23h1v1h-1z"
       id="path46" />
    <path
       d="m18 20h1v1h-1z"
       id="path48" />
    <path
       d="m17 21h1v1h-1z"
       id="path50" />
    <path
       d="m18 22h1v1h-1z"
       id="path52" />
    <path
       d="m18 23h1v1h-1z"
       id="path54" />
  </g>
  <g
     fill="#7c7c7c"
     transform="matrix(.52916666 0 0 .52916666 -3.96875 -7.40833)"
     id="g86">
    <path
       d="m12 21h1v1h-1z"
       id="path58" />
    <path
       d="m13 20h1v1h-1z"
       id="path60" />
    <path
       d="m14 21h1v1h-1z"
       id="path62" />
    <path
       d="m12 22h1v1h-1z"
       id="path64" />
    <path
       d="m14 22h1v1h-1z"
       id="path66" />
    <path
       d="m13 23h1v1h-1z"
       id="path68" />
    <path
       d="m16 20h1v1h-1z"
       id="path70" />
    <path
       d="m16 21h1v1h-1z"
       id="path72" />
    <path
       d="m16 22h1v1h-1z"
       id="path74" />
    <path
       d="m16 23h1v1h-1z"
       id="path76" />
    <path
       d="m18 20h1v1h-1z"
       id="path78" />
    <path
       d="m17 21h1v1h-1z"
       id="path80" />
    <path
       d="m18 22h1v1h-1z"
       id="path82" />
    <path
       d="m18 23h1v1h-1z"
       id="path84" />
  </g>
</svg>
