<?xml version="1.0" encoding="UTF-8" standalone="no"?>
<svg
   xmlns:dc="http://purl.org/dc/elements/1.1/"
   xmlns:cc="http://creativecommons.org/ns#"
   xmlns:rdf="http://www.w3.org/1999/02/22-rdf-syntax-ns#"
   xmlns:svg="http://www.w3.org/2000/svg"
   xmlns="http://www.w3.org/2000/svg"
   xmlns:xlink="http://www.w3.org/1999/xlink"
   xmlns:sodipodi="http://sodipodi.sourceforge.net/DTD/sodipodi-0.dtd"
   xmlns:inkscape="http://www.inkscape.org/namespaces/inkscape"
   viewBox="0 0 32 32"
   version="1.1"
   id="svg4"
   sodipodi:docname="redactdoc.svg"
   inkscape:version="0.92.5 (2060ec1f9f, 2020-04-08)"
   inkscape:export-filename="/home/jupiter007/Libreoffice yaru theme fullcolor/build/cmd/32/redactdoc.png"
   inkscape:export-xdpi="96"
   inkscape:export-ydpi="96"
   width="32"
   height="32">
  <metadata
     id="metadata10">
    <rdf:RDF>
      <cc:Work
         rdf:about="">
        <dc:format>image/svg+xml</dc:format>
        <dc:type
           rdf:resource="http://purl.org/dc/dcmitype/StillImage" />
        <dc:title></dc:title>
      </cc:Work>
    </rdf:RDF>
  </metadata>
  <defs
     id="defs8">
    <linearGradient
       y2="316.93201"
       x2="702.21381"
       y1="316.93201"
       x1="609.78619"
       gradientUnits="userSpaceOnUse"
       id="linearGradient4400"
       xlink:href="#linearGradient4336-3"
       inkscape:collect="always" />
    <linearGradient
       id="linearGradient4336-3">
      <stop
         id="stop4338-8"
         offset="0"
         style="stop-color:#5884f4;stop-opacity:1" />
      <stop
         style="stop-color:#5884f4;stop-opacity:1"
         offset="0.30756706"
         id="stop4344-3" />
      <stop
         id="stop4346-3"
         offset="0.30756706"
         style="stop-color:#2f5fdd;stop-opacity:1" />
      <stop
         style="stop-color:#2f5fdd;stop-opacity:1"
         offset="0.69206423"
         id="stop4350-1" />
      <stop
         style="stop-color:#234db8;stop-opacity:1"
         offset="0.69206423"
         id="stop4348-6" />
      <stop
         id="stop4340-0"
         offset="1"
         style="stop-color:#234db8;stop-opacity:1" />
    </linearGradient>
  </defs>
  <sodipodi:namedview
     pagecolor="#ffffff"
     bordercolor="#666666"
     borderopacity="1"
     objecttolerance="10"
     gridtolerance="10"
     guidetolerance="10"
     inkscape:pageopacity="0"
     inkscape:pageshadow="2"
     inkscape:window-width="1920"
     inkscape:window-height="1011"
     id="namedview6"
     showgrid="true"
     inkscape:zoom="19.666667"
     inkscape:cx="6.1658116"
     inkscape:cy="12.830694"
     inkscape:window-x="1920"
     inkscape:window-y="32"
     inkscape:window-maximized="1"
     inkscape:current-layer="svg4">
    <inkscape:grid
       type="xygrid"
       id="grid844" />
  </sodipodi:namedview>
  <path
     sodipodi:nodetypes="cccscsccccccccscscccccc"
     inkscape:connector-curvature="0"
     id="path4237-1"
     d="m 6.994115,2.9994175 c -1.2582,0.0145 -2.178891,-0.0306 -2.93164,0.384765 -0.37637,0.20766 -0.673231,0.559387 -0.837891,0.998047 -0.16467,0.43867 -0.224609,0.959587 -0.224609,1.6171875 V 7.487699 25 c 0,0.65761 0.0599,1.178577 0.224609,1.617188 0.16468,0.438611 0.461531,0.788524 0.837891,0.996093 0.752719,0.41513 1.67354,0.371649 2.93164,0.386719 h 0.002 18.00586 0.0039 c 1.25819,-0.0145 2.178891,0.0306 2.931641,-0.384766 0.37637,-0.20766 0.673221,-0.559386 0.837891,-0.998046 C 28.939946,26.178517 29.000025,25.65761 29.000025,25 V 7.466215 5.999417 c 0,-0.6576005 -0.0599,-1.1785775 -0.224609,-1.6171875 -0.16468,-0.4386 -0.461531,-0.788534 -0.837891,-0.996094 -0.75277,-0.41513 -1.673601,-0.371638 -2.931691,-0.386718 h -0.002 -18.00586 z"
     style="font-style:normal;font-variant:normal;font-weight:normal;font-stretch:normal;font-size:15px;line-height:125%;font-family:Ubuntu;-inkscape-font-specification:Ubuntu;text-align:center;letter-spacing:0px;word-spacing:0px;writing-mode:lr-tb;text-anchor:middle;display:inline;opacity:0.6;fill:#000000;fill-opacity:1;stroke:none;stroke-width:0.99980211" />
  <path
     inkscape:connector-curvature="0"
     id="path1993"
     d="m 11.983344,4.0266015 c -1.556581,0.0108 -5.109991,-0.01175 -6.659942,0.03877 -0.461229,0.04267 -1.016188,0.206419 -1.155339,0.709967 C 3.949069,5.4106846 4.059649,6.109126 4.022267,6.757263 c -0.0078,2.2970861 -0.02297,16.596429 0.02152,18.885781 0.0391,0.461929 0.20255,1.012666 0.698755,1.163666 0.632456,0.225082 1.284144,0.12274 1.935974,0.154298 1.424235,0.0068 12.850564,0.01102 14.276421,0.01131 1.704531,3.5e-4 3.408388,-0.005 5.10719,-0.01851 0.511911,-0.01201 1.183699,0.01993 1.584745,-0.405191 0.421097,-0.539783 0.287073,-1.268021 0.322745,-1.903787 0.01187,-2.444323 0.02769,-16.9110949 -0.0219,-19.3567954 -0.04928,-0.402041 -0.169992,-0.862952 -0.575139,-1.044476 -0.668169,-0.294097 -1.426205,-0.168018 -2.125921,-0.205572 -1.754407,-0.0118 -11.508874,-0.01248 -13.263313,-0.01139 z"
     style="opacity:1;vector-effect:none;fill:#ffffff;fill-opacity:1;stroke:none;stroke-width:1;stroke-linecap:round;stroke-linejoin:bevel;stroke-miterlimit:4;stroke-dasharray:none;stroke-dashoffset:0;stroke-opacity:1"
     sodipodi:nodetypes="cccccccsccccccc" />
  <path
     style="fill:#232629;stroke-width:1.37436855"
     d="M 8.999999,9.9999998 V 10.999999 H 26 V 9.9999998 Z"
     id="path855"
     inkscape:connector-curvature="0" />
  <path
     inkscape:connector-curvature="0"
     style="fill:#232629"
     d="m 5.999999,13 v 1.000001 H 14 V 13 Z"
     id="path853" />
  <path
     style="fill:#232629"
     d="m 17,17.000001 v 1 h 9 v -1 z"
     id="path2"
     inkscape:connector-curvature="0" />
  <path
     style="fill:#232629;fill-opacity:1"
     d="M 26,7 V 8.0000001 H 19 V 7 Z"
     id="path849"
     inkscape:connector-curvature="0" />
  <path
     inkscape:connector-curvature="0"
     style="fill:#232629;fill-opacity:1"
     d="m 5.999999,9.9999998 v 0.9999992 h 2 V 9.9999998 Z"
     id="path847" />
  <path
     style="fill:#232629;stroke-width:1.91485417;fill-opacity:1"
     d="m 15,13 v 1.000001 H 26 V 13 Z"
     id="path845"
     inkscape:connector-curvature="0" />
  <path
     style="fill:#232629;stroke-width:2.23606801;fill-opacity:1"
     d="m 5.999999,17.000001 v 1 H 16 v -1 z"
     id="path4"
     inkscape:connector-curvature="0" />
  <path
     id="path857"
     d="M 18,7 V 8.0000001 H 5.999999 V 7 Z"
     style="fill:#232629;stroke-width:1.15470052"
     inkscape:connector-curvature="0" />
  <path
     inkscape:connector-curvature="0"
     id="path867"
     d="m 8.999999,23.000001 v 1 H 26 v -1 z"
     style="fill:#232629;stroke-width:1.37436855" />
  <path
     inkscape:connector-curvature="0"
     id="path869"
     d="m 26,20.000001 v 1 h -7 v -1 z"
     style="fill:#232629;fill-opacity:1" />
  <path
     inkscape:connector-curvature="0"
     style="fill:#232629;stroke-width:1.15470052"
     d="m 18,20.000001 v 1 H 5.999999 v -1 z"
     id="path873" />
  <g
     style="display:inline;stroke-width:9.7142868;enable-background:new"
     transform="matrix(0.06092831,0.03517698,-0.03815213,0.06608143,-9.6892946,-18.54128)"
     id="g1135">
    <path
       style="fill:#fee1c2;fill-opacity:1;stroke:none;stroke-width:9.7142868"
       d="m 702.21881,319.35584 -46.21878,81.13762 -46.21383,-81.13762 0.44418,-28.63468 h 92.43261 z"
       id="path1129"
       inkscape:connector-curvature="0"
       sodipodi:nodetypes="cccccc" />
    <path
       style="color:#000000;display:inline;overflow:visible;visibility:visible;fill:#5d5d5d;fill-opacity:1;fill-rule:nonzero;stroke:none;stroke-width:11.66852188;marker:none;enable-background:accumulate"
       d="m 641.30138,374.67695 14.69865,25.81651 14.69864,-25.81651 c 0,0 1.12026,-2.76606 -1.73934,-2.76606 -2.85961,0 -5.69434,3.68807 -5.69434,3.68807 0,0 -1.49371,-4.61009 -7.23393,-4.61009 -5.74023,0 -7.23394,4.61009 -7.23394,4.61009 0,0 -2.89678,-3.68807 -5.7824,-3.68807 -2.88562,0 -1.71334,2.76606 -1.71334,2.76606 z"
       id="path1131"
       inkscape:connector-curvature="0"
       sodipodi:nodetypes="ccczczczc" />
    <path
       style="fill:url(#linearGradient4400);fill-opacity:1;stroke:none;stroke-width:9.7142868"
       d="m 609.7862,306.2504 c 0,-7.37615 28.42768,-3.68808 28.42768,7.37614 0,-18.44036 35.53461,-18.44036 35.53461,0 0,-11.06422 28.47032,-14.75229 28.47032,-7.37614 V 67.928881 H 609.7862 Z"
       id="path1133"
       inkscape:connector-curvature="0"
       sodipodi:nodetypes="ccccccc" />
  </g>
  <path
     id="path919"
     d="M 6,23.000001 V 24 h 2 v -0.999999 z"
     style="fill:#232629;fill-opacity:1"
     inkscape:connector-curvature="0" />
</svg>
