<?xml version="1.0" encoding="UTF-8" standalone="no"?>
<svg
   xmlns:dc="http://purl.org/dc/elements/1.1/"
   xmlns:cc="http://creativecommons.org/ns#"
   xmlns:rdf="http://www.w3.org/1999/02/22-rdf-syntax-ns#"
   xmlns:svg="http://www.w3.org/2000/svg"
   xmlns="http://www.w3.org/2000/svg"
   xmlns:sodipodi="http://sodipodi.sourceforge.net/DTD/sodipodi-0.dtd"
   xmlns:inkscape="http://www.inkscape.org/namespaces/inkscape"
   height="32"
   viewBox="0 0 32 32"
   width="32"
   version="1.1"
   id="svg8"
   sodipodi:docname="smallcaps.svg"
   inkscape:export-filename="/home/jupiter007/Libreoffice yaru theme fullcolor/build/cmd/32/smallcaps.png"
   inkscape:export-xdpi="96"
   inkscape:export-ydpi="96"
   inkscape:version="0.92.5 (2060ec1f9f, 2020-04-08)">
  <metadata
     id="metadata14">
    <rdf:RDF>
      <cc:Work
         rdf:about="">
        <dc:format>image/svg+xml</dc:format>
        <dc:type
           rdf:resource="http://purl.org/dc/dcmitype/StillImage" />
      </cc:Work>
    </rdf:RDF>
  </metadata>
  <defs
     id="defs12" />
  <sodipodi:namedview
     pagecolor="#ffffff"
     bordercolor="#666666"
     borderopacity="1"
     objecttolerance="10"
     gridtolerance="10"
     guidetolerance="10"
     inkscape:pageopacity="0"
     inkscape:pageshadow="2"
     inkscape:window-width="1920"
     inkscape:window-height="1011"
     id="namedview10"
     showgrid="true"
     inkscape:zoom="7.375"
     inkscape:cx="4.5078771"
     inkscape:cy="19.450627"
     inkscape:window-x="1920"
     inkscape:window-y="32"
     inkscape:window-maximized="1"
     inkscape:current-layer="svg8">
    <inkscape:grid
       type="xygrid"
       id="grid821" />
  </sodipodi:namedview>
  <path
     d="M 23,9.9999999 19,5 h 7.99998 z"
     id="path879"
     style="fill:#000000;fill-rule:nonzero;stroke-width:2;fill-opacity:1;stroke:#000000;opacity:0.6;stroke-miterlimit:4;stroke-dasharray:none;stroke-linejoin:round"
     inkscape:connector-curvature="0" />
  <path
     style="color:#000000;font-style:normal;font-variant:normal;font-weight:normal;font-stretch:normal;font-size:medium;line-height:normal;font-family:sans-serif;font-variant-ligatures:normal;font-variant-position:normal;font-variant-caps:normal;font-variant-numeric:normal;font-variant-alternates:normal;font-feature-settings:normal;text-indent:0;text-align:start;text-decoration:none;text-decoration-line:none;text-decoration-style:solid;text-decoration-color:#000000;letter-spacing:normal;word-spacing:normal;text-transform:none;writing-mode:lr-tb;direction:ltr;text-orientation:mixed;dominant-baseline:auto;baseline-shift:baseline;text-anchor:start;white-space:normal;shape-padding:0;clip-rule:nonzero;display:inline;overflow:visible;visibility:visible;opacity:0.6;isolation:auto;mix-blend-mode:normal;color-interpolation:sRGB;color-interpolation-filters:linearRGB;solid-color:#000000;solid-opacity:1;vector-effect:none;fill:#000000;fill-opacity:1;fill-rule:nonzero;stroke:#000000;stroke-width:2;stroke-linecap:butt;stroke-linejoin:round;stroke-miterlimit:4;stroke-dasharray:none;stroke-dashoffset:0;stroke-opacity:1;color-rendering:auto;image-rendering:auto;shape-rendering:auto;text-rendering:auto;enable-background:accumulate"
     d="M 7.9726562 11 L 7.8554688 11.335938 L 4.0625 22.308594 L 3.9238281 22.771484 L 2 28 L 4.453125 28 L 6.6914062 22.013672 L 12.332031 22.013672 L 14.603516 28 L 17.146484 28 L 15.222656 22.771484 L 15.083984 22.308594 L 11.173828 11 L 10.572266 11 L 10 11 L 9.7324219 11 L 9.5292969 11 L 8.5722656 11 L 8 11 L 7.9726562 11 z M 9.5996094 13.751953 L 11.6875 20.001953 L 7.3359375 20.007812 L 9.5996094 13.751953 z M 18 15 L 18 15.5 L 18 28 L 19.833984 28 L 26.166016 28 C 28.277304 28.000007 30.000008 26.277303 30 24.166016 C 29.9983 22.71495 28.938417 21.574642 27.707031 20.908203 C 28.18039 20.348897 28.664569 19.693311 28.666016 18.833984 C 28.666016 16.723054 26.945269 15 24.833984 15 L 19.833984 15 L 18 15 z M 20 17 L 25 17 C 25.831 17 26.5 17.669 26.5 18.5 C 26.5 19.331 25.831 20 25 20 L 20 20 L 20 17 z M 20 22 L 26.033203 22 C 27.122423 22 28 22.877577 28 23.966797 L 28 24.033203 C 28 25.122423 27.122423 26 26.033203 26 L 20 26 L 20 22 z "
     id="path874" />
  <path
     style="color:#000000;font-style:normal;font-variant:normal;font-weight:normal;font-stretch:normal;font-size:medium;line-height:normal;font-family:sans-serif;font-variant-ligatures:normal;font-variant-position:normal;font-variant-caps:normal;font-variant-numeric:normal;font-variant-alternates:normal;font-feature-settings:normal;text-indent:0;text-align:start;text-decoration:none;text-decoration-line:none;text-decoration-style:solid;text-decoration-color:#000000;letter-spacing:normal;word-spacing:normal;text-transform:none;writing-mode:lr-tb;direction:ltr;text-orientation:mixed;dominant-baseline:auto;baseline-shift:baseline;text-anchor:start;white-space:normal;shape-padding:0;clip-rule:nonzero;display:inline;overflow:visible;visibility:visible;opacity:1;isolation:auto;mix-blend-mode:normal;color-interpolation:sRGB;color-interpolation-filters:linearRGB;solid-color:#000000;solid-opacity:1;vector-effect:none;fill:#ffffff;fill-opacity:1;fill-rule:nonzero;stroke:none;stroke-width:1;stroke-linecap:butt;stroke-linejoin:miter;stroke-miterlimit:4;stroke-dasharray:none;stroke-dashoffset:0;stroke-opacity:1;color-rendering:auto;image-rendering:auto;shape-rendering:auto;text-rendering:auto;enable-background:accumulate"
     d="M 7.9726562 11 L 7.8554688 11.335938 L 4.0625 22.308594 L 3.9238281 22.771484 L 2 28 L 4.453125 28 L 6.6914062 22.013672 L 12.332031 22.013672 L 14.603516 28 L 17.146484 28 L 15.222656 22.771484 L 15.083984 22.308594 L 11.173828 11 L 10.572266 11 L 10 11 L 9.7324219 11 L 9.5292969 11 L 8.5722656 11 L 8 11 L 7.9726562 11 z M 9.5996094 13.751953 L 11.6875 20.001953 L 7.3359375 20.007812 L 9.5996094 13.751953 z "
     id="path835" />
  <path
     style="color:#000000;font-style:normal;font-variant:normal;font-weight:normal;font-stretch:normal;font-size:medium;line-height:normal;font-family:sans-serif;font-variant-ligatures:normal;font-variant-position:normal;font-variant-caps:normal;font-variant-numeric:normal;font-variant-alternates:normal;font-feature-settings:normal;text-indent:0;text-align:start;text-decoration:none;text-decoration-line:none;text-decoration-style:solid;text-decoration-color:#000000;letter-spacing:normal;word-spacing:normal;text-transform:none;writing-mode:lr-tb;direction:ltr;text-orientation:mixed;dominant-baseline:auto;baseline-shift:baseline;text-anchor:start;white-space:normal;shape-padding:0;clip-rule:nonzero;display:inline;overflow:visible;visibility:visible;opacity:1;isolation:auto;mix-blend-mode:normal;color-interpolation:sRGB;color-interpolation-filters:linearRGB;solid-color:#000000;solid-opacity:1;vector-effect:none;fill:#ffffff;fill-opacity:1;fill-rule:nonzero;stroke:none;stroke-width:1;stroke-linecap:butt;stroke-linejoin:miter;stroke-miterlimit:4;stroke-dasharray:none;stroke-dashoffset:0;stroke-opacity:1;color-rendering:auto;image-rendering:auto;shape-rendering:auto;text-rendering:auto;enable-background:accumulate"
     d="M 18 15 L 18 15.5 L 18 28 L 19.833984 28 L 26.166016 28 C 28.277304 28.000007 30.000008 26.277303 30 24.166016 C 29.9983 22.71495 28.938417 21.574642 27.707031 20.908203 C 28.18039 20.348897 28.664569 19.693311 28.666016 18.833984 C 28.666016 16.723054 26.945269 15 24.833984 15 L 19.833984 15 L 18 15 z M 20 17 L 25 17 C 25.831 17 26.5 17.669 26.5 18.5 C 26.5 19.331 25.831 20 25 20 L 20 20 L 20 17 z M 20 22 L 26.033203 22 C 27.122423 22 28 22.877577 28 23.966797 L 28 24.033203 C 28 25.122423 27.122423 26 26.033203 26 L 20 26 L 20 22 z "
     id="path850" />
  <path
     inkscape:connector-curvature="0"
     style="fill:#aee3f8;fill-rule:nonzero;stroke-width:1.33333004;fill-opacity:1"
     id="path4"
     d="M 23,9.9999999 19,5 h 7.99998 z" />
</svg>
