<?xml version="1.0" encoding="UTF-8" standalone="no"?>
<svg
   xmlns:dc="http://purl.org/dc/elements/1.1/"
   xmlns:cc="http://creativecommons.org/ns#"
   xmlns:rdf="http://www.w3.org/1999/02/22-rdf-syntax-ns#"
   xmlns:svg="http://www.w3.org/2000/svg"
   xmlns="http://www.w3.org/2000/svg"
   xmlns:sodipodi="http://sodipodi.sourceforge.net/DTD/sodipodi-0.dtd"
   xmlns:inkscape="http://www.inkscape.org/namespaces/inkscape"
   viewBox="0 0 32 32"
   version="1.1"
   id="svg6"
   sodipodi:docname="styleupdatebyexample.svg"
   inkscape:version="0.92.5 (2060ec1f9f, 2020-04-08)"
   inkscape:export-filename="/home/jupiter007/Libreoffice yaru theme fullcolor/build/cmd/32/styleupdatebyexample.png"
   inkscape:export-xdpi="95"
   inkscape:export-ydpi="95">
  <metadata
     id="metadata12">
    <rdf:RDF>
      <cc:Work
         rdf:about="">
        <dc:format>image/svg+xml</dc:format>
        <dc:type
           rdf:resource="http://purl.org/dc/dcmitype/StillImage" />
      </cc:Work>
    </rdf:RDF>
  </metadata>
  <defs
     id="defs10" />
  <sodipodi:namedview
     pagecolor="#ffffff"
     bordercolor="#666666"
     borderopacity="1"
     objecttolerance="10"
     gridtolerance="10"
     guidetolerance="10"
     inkscape:pageopacity="0"
     inkscape:pageshadow="2"
     inkscape:window-width="1920"
     inkscape:window-height="1011"
     id="namedview8"
     showgrid="true"
     inkscape:zoom="20.85965"
     inkscape:cx="5.3521703"
     inkscape:cy="12.813063"
     inkscape:window-x="0"
     inkscape:window-y="32"
     inkscape:window-maximized="1"
     inkscape:current-layer="svg6">
    <inkscape:grid
       type="xygrid"
       id="grid838" />
  </sodipodi:namedview>
  <path
     inkscape:connector-curvature="0"
     id="path826"
     d="M 4.9394562,28.0625 H 26.939456 v -11 l -21.9999998,11"
     style="opacity:0.6;fill:#000000;fill-opacity:1;stroke:#000000;stroke-width:2;stroke-linecap:round;stroke-linejoin:round;stroke-miterlimit:4;stroke-dasharray:none;stroke-opacity:1" />
  <path
     style="fill:#ffffff;fill-opacity:1;stroke:none;stroke-width:1px;stroke-linecap:butt;stroke-linejoin:miter;stroke-opacity:1"
     d="M 4.9394562,28.0625 H 26.939456 v -11 l -21.9999998,11"
     id="path824"
     inkscape:connector-curvature="0" />
  <circle
     style="opacity:1;fill:#762572;fill-opacity:1;stroke:none;stroke-width:2.57142854;stroke-linecap:round;stroke-linejoin:round;stroke-miterlimit:4;stroke-dasharray:none;stroke-opacity:1"
     id="path850"
     cx="25.4375"
     cy="26.5625"
     r="4.5" />
  <path
     id="path845"
     style="fill:#ffffff;fill-opacity:1"
     d="m 27.625,25.375 -0.75,0.75 c 0.041,0.1371 0.0625,0.28671 0.0625,0.4375 0,0.831 -0.669,1.5 -1.5,1.5 C 25.28671,28.0625 25.1371,28.041 25,28 l -0.75,0.75 c 0.35464,0.1925 0.75407,0.3125 1.1875,0.3125 1.385,0 2.5,-1.115 2.5,-2.5 0,-0.43343 -0.12,-0.83286 -0.3125,-1.1875 z m -2.1875,-1.3125 c -1.385,0 -2.5,1.115 -2.5,2.5 0,0.43343 0.12,0.83286 0.3125,1.1875 L 24,27 c -0.041,-0.1371 -0.0625,-0.28671 -0.0625,-0.4375 0,-0.831 0.669,-1.5 1.5,-1.5 0.15079,0 0.3004,0.0215 0.4375,0.0625 l 0.75,-0.75 c -0.35464,-0.1925 -0.75407,-0.3125 -1.1875,-0.3125 z"
     inkscape:connector-curvature="0" />
  <path
     sodipodi:nodetypes="cccccccccccc"
     style="opacity:0.6;fill:#000000;fill-opacity:1;stroke:#000000;stroke-width:2;stroke-linejoin:round;stroke-miterlimit:4;stroke-dasharray:none"
     inkscape:connector-curvature="0"
     id="path827"
     d="m 6,5 v 2 h 0.0019 6.998046 l 6e-6,12 h 0.002 H 15 l -6e-6,-12 h 7 V 5 H 6.001953 Z" />
  <path
     d="m 6,5 v 2 h 0.0019 6.998046 l 6e-6,12 h 0.002 H 15 l -6e-6,-12 h 7 V 5 H 6.001953 Z"
     id="path2"
     inkscape:connector-curvature="0"
     style="fill:#ffffff;fill-opacity:1"
     sodipodi:nodetypes="cccccccccccc" />
</svg>
