<?xml version="1.0" encoding="UTF-8" standalone="no"?>
<svg
   xmlns:dc="http://purl.org/dc/elements/1.1/"
   xmlns:cc="http://creativecommons.org/ns#"
   xmlns:rdf="http://www.w3.org/1999/02/22-rdf-syntax-ns#"
   xmlns:svg="http://www.w3.org/2000/svg"
   xmlns="http://www.w3.org/2000/svg"
   xmlns:sodipodi="http://sodipodi.sourceforge.net/DTD/sodipodi-0.dtd"
   xmlns:inkscape="http://www.inkscape.org/namespaces/inkscape"
   viewBox="0 0 32 32"
   version="1.1"
   id="svg4"
   sodipodi:docname="symbolshapes.left-brace.svg"
   inkscape:export-filename="/home/jupiter007/Libreoffice yaru theme fullcolor/build/cmd/32/symbolshapes.left-brace.png"
   inkscape:export-xdpi="96"
   inkscape:export-ydpi="96"
   inkscape:version="0.92.4 (5da689c313, 2019-01-14)">
  <metadata
     id="metadata10">
    <rdf:RDF>
      <cc:Work
         rdf:about="">
        <dc:format>image/svg+xml</dc:format>
        <dc:type
           rdf:resource="http://purl.org/dc/dcmitype/StillImage" />
      </cc:Work>
    </rdf:RDF>
  </metadata>
  <defs
     id="defs8" />
  <sodipodi:namedview
     pagecolor="#ffffff"
     bordercolor="#666666"
     borderopacity="1"
     objecttolerance="10"
     gridtolerance="10"
     guidetolerance="10"
     inkscape:pageopacity="0"
     inkscape:pageshadow="2"
     inkscape:window-width="1920"
     inkscape:window-height="1011"
     id="namedview6"
     showgrid="false"
     inkscape:zoom="7.375"
     inkscape:cx="-15.728814"
     inkscape:cy="15.389831"
     inkscape:window-x="0"
     inkscape:window-y="32"
     inkscape:window-maximized="1"
     inkscape:current-layer="svg4" />
  <path
     style="fill:#000000;stroke:#000000;opacity:0.6;stroke-width:2;stroke-miterlimit:4;stroke-dasharray:none;stroke-linejoin:round"
     id="path817"
     fill="#232629"
     d="m15.044922 4c-1.77683 0-2.521487.7063656-2.521484 2.5097656v2.4414063c0 .0160827-.001937.0326761-.001954.0488281h.001954v3.951172c0 1.1138-.034197 2.404297-1.015626 2.404297h-.507812v1.289062h.507812c.981482 0 1.015623 1.290497 1.015626 2.404297v3.951172h-.001954c.000017.016152.001951.032745.001954.048828v2.441406c0 1.8034.744654 2.509766 2.521484 2.509766v-1.183594c-1.18455 0-1.201172-.478337-1.201172-2.210937v-1.605469h.007812c-.001198-.13832-.007812-2.235736-.007812-2.394531v-2.015625c0-.8309-.204705-2.067378-1.203125-2.580078.99842-.5127 1.203125-1.751032 1.203125-2.582032v-2.033203c0-.158795.006615-2.25621.007812-2.394531h-.007812v-1.6054688c0-1.7326.016602-2.2109374 1.201172-2.2109374z" />
  <path
     d="m15.044922 4c-1.77683 0-2.521487.7063656-2.521484 2.5097656v2.4414063c0 .0160827-.001937.0326761-.001954.0488281h.001954v3.951172c0 1.1138-.034197 2.404297-1.015626 2.404297h-.507812v1.289062h.507812c.981482 0 1.015623 1.290497 1.015626 2.404297v3.951172h-.001954c.000017.016152.001951.032745.001954.048828v2.441406c0 1.8034.744654 2.509766 2.521484 2.509766v-1.183594c-1.18455 0-1.201172-.478337-1.201172-2.210937v-1.605469h.007812c-.001198-.13832-.007812-2.235736-.007812-2.394531v-2.015625c0-.8309-.204705-2.067378-1.203125-2.580078.99842-.5127 1.203125-1.751032 1.203125-2.582032v-2.033203c0-.158795.006615-2.25621.007812-2.394531h-.007812v-1.6054688c0-1.7326.016602-2.2109374 1.201172-2.2109374z"
     fill="#232629"
     id="path2"
     style="fill:#ffffff" />
</svg>
