/* XPM */
static char * sample_xpm[] = {
"10 10 2 1",
" 	c #FFFFFF",
".	c #72D1C8",
"          ",
" ........ ",
" ........ ",
" ........ ",
" ........ ",
" ........ ",
" ........ ",
" ........ ",
" ........ ",
"          "};
