<svg viewBox="0 0 24 24" xmlns="http://www.w3.org/2000/svg"><path d="m17.126154 3c-2.602428 0-5.178832 2.03265-5.716797 4.5l-.78125 3.5h-.78125c-.86159 0-1.6910944.669001-1.84375 1.5-.1533305.830991.41966 1.5 1.28125 1.5h.6875l-.53125 2.5c-.1845701.84614-1.0137858 1.5-1.90625 1.5-.8924361 0-1.4657452-.65386-1.28125-1.5l.34375-1.5h-1.59375c-.7872259-.000938-1.6858531.498216-1.9042968 1.5-.5379737 2.46735 1.1768961 4.5 3.7792968 4.5 2.6024287 0 5.178824-2.03265 5.716797-4.5l.5625-2.5h1c.861562 0 1.691094-.669009 1.84375-1.5.15334-.830999-.419688-1.5-1.28125-1.5h-.90625l.75-3.5c.184495-.8461406 1.013794-1.5 1.90625-1.5.892445 0 1.434486.6538594 1.25 1.5l-.3125 1.5h1.59375c.787226.0009375 1.685853-.4982062 1.904297-1.5.537964-2.46735-1.176896-4.5-3.779297-4.5z" fill="#555753"/></svg>