<svg viewBox="0 0 24 24" xmlns="http://www.w3.org/2000/svg"><g fill="#2e3436"><path d="m4 21h16v2h-16z" stroke-width="1.14354"/><path d="m12 1.9960938v.0039062h-.132812-.00586-.001953-.005859-1.5c-.07416 0-.145613.0099496-.212891.0253906-.4855418.1114059-.7963984.6064802-1.0117188 1.2519532l-5.0429687 14.9609372c-.0801099.165695-.0655123.343302-.0664063.527344-.0000624.681746.4959869 1.238344 1.1777344 1.238281.6697081-.000811 1.118999-.57244 1.2324219-1.205078l1.6328125-4.798828h7.876953l1.630859 4.794922c.113423.632638.56271 1.204267 1.232422 1.205078.681748.000063 1.177797-.556535 1.177735-1.238281-.0009-.184042.013703-.361649-.066407-.527344l-5.042968-14.9609375c-.215321-.645473-.526177-1.1405472-1.011719-1.2519531-.067278-.015441-.138731-.0253906-.212891-.0253906h-1.5-.005859-.001953-.00586zm.132812 2c.0022.0000331.00396.0000028.00586 0 .0028-.0000532.004912.0000442.007812 0 .090791.0016979.162847.0091015.222657.0234374.182305.0456828.242994.1688224.333984.46875l2.554687 7.5117188h-6.5156245l2.5546875-7.5078125c.09099-.2999276.151679-.4230672.333984-.46875.05981-.014336.131866-.0217395.222657-.0234375.0029.0000443.005012-.0000532.007812 0 .0019.0000029.00366.0000332.00586 0 .044089.0009429.08307.0022494.11914.0058594.0018.0001696.00406-.0001769.00586 0 .002899.0003036.005012.0016131.007812.0019531v-.0039063c.0028-.0003399.004913-.0016495.007812-.0019531.0018-.0001769.00406.0001696.00586 0 .03607-.00361.075051-.0049165.11914-.0058593z"/></g></svg>