<svg height="32" viewBox="0 0 32 32" width="32" xmlns="http://www.w3.org/2000/svg"><path d="m8 1v6h1v-6zm-7 7v1h6v-1zm7 0v1h1v-1zm2 0v1h6v-1zm-2 2v6h1v-6zm6.125 5.998709c-.0433.0093-.08984.01953-.121094.05469-.03125.03516-.04688.08203-.04297.132812.121093 2.179685-.152342 5.712225 1.039064 7.313789 1.091995 1.461394 2.422464 2.198144 4 2.410156v1.089844h2v-1.089844c1.577536-.212012 2.908005-.948762 4-2.410156 1.191406-1.601564.917971-5.136587 1.039063-7.316274.0039-.05078-.01172-.09765-.04297-.132812-.03125-.03515-.07422-.05469-.121094-.05469h-.710937c-.08594 0-.16015.07031-.164063.164063-.03745 2.548404.177167 5.260248-.863281 6.732289-.927082 1.311653-1.773443 1.878001-3.136718 2.044924v-.9375h-2v.9375c-1.363275-.166923-2.209636-.733271-3.136719-2.044922-1.040448-1.472041-.825829-4.181402-.863281-6.729806-.0039-.09375-.07813-.164063-.164063-.164063 0 0-.479268-.04989-.710937 0z" stroke-width=".125"/></svg>