<svg height="32" viewBox="0 0 32 32" width="32" xmlns="http://www.w3.org/2000/svg" xmlns:xlink="http://www.w3.org/1999/xlink"><linearGradient id="a" gradientUnits="userSpaceOnUse" x1="16" x2="16" y1="22" y2="8"><stop offset="0"/><stop offset="1" stop-color="#353535"/></linearGradient><filter id="b" color-interpolation-filters="sRGB" height="1.2184" width="1.2184" x="-.1092" y="-.1092"><feGaussianBlur stdDeviation=".80833591"/></filter><path d="m11.998047 5.6347656c-.71417.0009999-1.362282.6491114-1.363281 1.3632813a.98314913.98314913 0 0 0 0 .00195v1 2.634766h-2.634766-1a.98314913.98314913 0 0 0 -.00195 0c-.7141699.000999-1.3622814.649111-1.3632813 1.363281a.98314913.98314913 0 0 0 0 .002v6 1a.98314913.98314913 0 0 0 0 .002c.0009999.71417.6491114 1.362282 1.3632813 1.363281a.98314913.98314913 0 0 0 .00195 0h1 2.634766v2.6346751 1a.98314913.98314913 0 0 0 0 .002c.001.714169.649112 1.362281 1.363281 1.363281a.98314913.98314913 0 0 0 .002 0h6 1a.98314913.98314913 0 0 0 .002 0c.714169-.001 1.362281-.649112 1.363281-1.363281a.98314913.98314913 0 0 0 0-.002v-1-2.634766h2.634672 1a.98314913.98314913 0 0 0 .002 0c.714169-.001 1.362281-.649112 1.363281-1.363281a.98314913.98314913 0 0 0 0-.002v-1-6a.98314913.98314913 0 0 0 0-.002c-.001-.714169-.649112-1.362281-1.363281-1.363281a.98314913.98314913 0 0 0 -.002 0h-1-2.634766v-2.634672-1a.98314913.98314913 0 0 0 0-.00195c-.000999-.714173-.649111-1.3622845-1.363281-1.3632844a.98314913.98314913 0 0 0 -.002 0h-1-6a.98314913.98314913 0 0 0 -.002 0z" fill="#222" filter="url(#b)" opacity=".652"/><path d="m11 6v5h-5v9h5v5h9v-5h5v-9h-5v-5zm2 2h5v5h5v5h-5v5h-5v-5h-5v-5h5z" fill="#fff"/><path d="m13 8v5h-5v5h5v5h5v-5h5v-5h-5v-5z" fill="url(#a)"/></svg>