<svg height="52" viewBox="0 0 15.875 13.758334" width="60" xmlns="http://www.w3.org/2000/svg" xmlns:xlink="http://www.w3.org/1999/xlink"><linearGradient id="a"><stop offset="0" stop-color="#06f"/><stop offset="1" stop-color="#80b3ff"/></linearGradient><linearGradient id="b" gradientUnits="userSpaceOnUse" x1="4.515485" x2="40.639366" y1="274.42258" y2="308.2887"><stop offset="0" stop-color="#fff"/><stop offset="1" stop-color="#e6e9ef"/></linearGradient><linearGradient id="c" gradientTransform="matrix(.26458333 0 0 .26458333 0 283.24166)" gradientUnits="userSpaceOnUse" x1="29.525455" x2="29.525455" y1="35.604008" y2="16.823929"><stop offset="0" stop-color="#fbaeff"/><stop offset="1" stop-color="#ffd7d7"/></linearGradient><linearGradient id="d" gradientTransform="matrix(.26458333 0 0 .26458333 0 283.24166)" gradientUnits="userSpaceOnUse" x1="30.275862" x2="30.275862" y1="43.344875" y2="30.931082"><stop offset="0" stop-color="#99c2fc"/><stop offset="1" stop-color="#dceafe"/></linearGradient><linearGradient id="e" gradientTransform="matrix(.26458333 0 0 .26458333 0 283.24166)" gradientUnits="userSpaceOnUse" x1="16.310345" x2="24.864887" y1="34.216457" y2="2.290472"><stop offset="0" stop-color="#b900c4"/><stop offset="1" stop-color="#ae4300"/></linearGradient><linearGradient id="f" gradientUnits="userSpaceOnUse" x1="4.644423" x2="12.753998" xlink:href="#d" y1="290.62225" y2="290.62225"/><linearGradient id="g" gradientUnits="userSpaceOnUse" x1="26.360071" x2="30.727873" xlink:href="#d" y1="280.33237" y2="280.33237"/><linearGradient id="h" gradientUnits="userSpaceOnUse" x1="19.076979" x2="22.375702" xlink:href="#d" y1="283.60641" y2="283.60641"/><linearGradient id="i" gradientUnits="userSpaceOnUse" x1="8.052109" x2="17.097128" xlink:href="#d" y1="274.25198" y2="274.25198"/><linearGradient id="j" gradientUnits="userSpaceOnUse" x1="26.210072" x2="30.877872" xlink:href="#a" y1="280.33237" y2="280.33237"/><linearGradient id="k" gradientUnits="userSpaceOnUse" x1="18.926977" x2="22.525702" xlink:href="#a" y1="283.60641" y2="283.60641"/><linearGradient id="l" gradientUnits="userSpaceOnUse" x1="7.902109" x2="17.247128" xlink:href="#a" y1="274.25198" y2="274.25198"/><linearGradient id="m" gradientUnits="userSpaceOnUse" x1="4.494422" x2="12.903998" xlink:href="#a" y1="290.62225" y2="290.62225"/><linearGradient id="n" gradientUnits="userSpaceOnUse" x1="18.145266" x2="23.574682" xlink:href="#e" y1="277.12512" y2="277.12512"/><linearGradient id="o" gradientUnits="userSpaceOnUse" x1="21.766973" x2="30.510118" xlink:href="#e" y1="289.95407" y2="289.95407"/><linearGradient id="p" gradientUnits="userSpaceOnUse" x1="1.642418" x2="5.198858" xlink:href="#e" y1="285.67776" y2="285.67776"/><linearGradient id="q" gradientUnits="userSpaceOnUse" x1="6.045054" x2="13.491523" xlink:href="#e" y1="279.06284" y2="279.06284"/><linearGradient id="r" gradientUnits="userSpaceOnUse" x1="1.621277" x2="5.22" xlink:href="#c" y1="285.67776" y2="285.67776"/><linearGradient id="s" gradientUnits="userSpaceOnUse" x1="6.164858" x2="13.37172" xlink:href="#c" y1="279.06284" y2="279.06284"/><linearGradient id="t" gradientUnits="userSpaceOnUse" x1="18.191986" x2="23.527962" xlink:href="#c" y1="277.12512" y2="277.12512"/><linearGradient id="u" gradientUnits="userSpaceOnUse" x1="21.933758" x2="30.343334" xlink:href="#c" y1="289.95407" y2="289.95407"/><g transform="matrix(.46876205 0 0 .46876205 -.000166 -125.46399)"><rect fill="#c4cfe0" height="27.65732" rx=".055424" ry=".057719" width="32.172832" x=".564436" y="268.21378"/><path d="m123.73047 2.2011719v2.1347656c-.0667.0000007-.13463-.000001-.20117 0 .11216.00256.20117.096133.20117.2128906v101.9707019c0 .11838-.0907.21289-.20508.21289h-119.0527338c-.1143416 0-.2070312-.0945-.2070312-.21289v-1.61328l-2.1328125 1.82813 2.1328125 4.04296.2148438.22266h123.3046912l.21289-.22266v-106.2206994l-.21289-.2207031h.21289z" fill="#b6c2d4" fill-opacity=".916667" transform="matrix(.26458333 0 0 .26458333 0 267.63124)"/><rect fill="url(#b)" height="27.092916" rx=".054608" ry=".056536" width="31.608395" x="1.128871" y="268.7782"/><g stroke-linecap="square" stroke-linejoin="round" stroke-width=".3"><circle cx="12.574618" cy="274.25198" fill="url(#i)" r="4.522509" stroke="url(#l)"/><circle cx="9.768289" cy="279.06284" fill="url(#s)" r="3.453431" stroke="url(#q)"/><circle cx="20.859974" cy="277.12512" fill="url(#t)" r="2.517988" stroke="url(#n)"/><circle cx="28.543972" cy="280.33237" fill="url(#g)" r="2.183901" stroke="url(#j)"/><circle cx="20.726339" cy="283.60641" fill="url(#h)" r="1.649362" stroke="url(#k)"/><circle cx="26.138546" cy="289.95407" fill="url(#u)" r="4.054788" stroke="url(#o)"/><circle cx="8.69921" cy="290.62225" fill="url(#f)" r="4.054788" stroke="url(#m)"/><circle cx="3.420638" cy="285.67776" fill="url(#r)" r="1.649362" stroke="url(#p)"/></g></g></svg>