<svg height="52" viewBox="0 0 15.875 13.758334" width="60" xmlns="http://www.w3.org/2000/svg" xmlns:xlink="http://www.w3.org/1999/xlink"><linearGradient id="a" gradientUnits="userSpaceOnUse" x1="3.9985" x2="47.998501" y1="60" y2="60"><stop offset="0" stop-color="#1c4373"/><stop offset="1" stop-color="#a2b9d3"/></linearGradient><linearGradient id="b"><stop offset="0" stop-color="#90a3ba"/><stop offset="1" stop-color="#fff"/></linearGradient><linearGradient id="c"><stop offset="0" stop-color="#6696d1"/><stop offset="1" stop-color="#fff"/></linearGradient><linearGradient id="d" gradientUnits="userSpaceOnUse" x1="3.9985" x2="47.998501" y1="60" y2="60"><stop offset="0" stop-color="#153256"/><stop offset="1" stop-color="#76b5ff"/></linearGradient><linearGradient id="e" gradientUnits="userSpaceOnUse" x1="8.983426" x2="8.960432" xlink:href="#h" y1="292.79901" y2="281.19302"/><linearGradient id="f" gradientUnits="userSpaceOnUse" x1="9.595406" x2="10.159842" xlink:href="#j" y1="291.35562" y2="286.84015"/><linearGradient id="g" gradientUnits="userSpaceOnUse" x1="31.9995" x2="35.829079" xlink:href="#l" y1="68.33403" y2="102.4666"/><linearGradient id="h" gradientUnits="userSpaceOnUse" x1="3.9985" x2="47.998501" y1="60" y2="60"><stop offset="0" stop-color="#245795"/><stop offset="1" stop-color="#afd4ff"/></linearGradient><linearGradient id="i" gradientUnits="userSpaceOnUse" x1="12.934475" x2="13.475917" xlink:href="#d" y1="292.27155" y2="276.67752"/><linearGradient id="j"><stop offset="0" stop-color="#9fbde2"/><stop offset="1" stop-color="#fff"/></linearGradient><linearGradient id="k" gradientUnits="userSpaceOnUse" x1="12.911482" x2="12.911482" xlink:href="#c" y1="285.71127" y2="273.29092"/><linearGradient id="l"><stop offset="0" stop-color="#fff"/><stop offset="1" stop-color="#fff" stop-opacity="0"/></linearGradient><linearGradient id="m" gradientTransform="matrix(2.070875 0 0 .59167879 -19.869183 6.160328)" gradientUnits="userSpaceOnUse" x1="6.441925" x2="39.339169" xlink:href="#l" y1="25.87571" y2="119.48439"/><linearGradient id="n" gradientUnits="userSpaceOnUse" x1="16.321091" x2="16.862532" xlink:href="#a" y1="292.27155" y2="276.67755"/><linearGradient id="o" gradientUnits="userSpaceOnUse" x1="10.159842" x2="10.291272" xlink:href="#b" y1="281.1958" y2="273.88757"/><linearGradient id="p" gradientUnits="userSpaceOnUse" x1="20.364466" x2="40.22007" xlink:href="#l" y1="18.813845" y2="53.204754"/><linearGradient id="q" gradientUnits="userSpaceOnUse" x1="4.515485" x2="40.639366" y1="274.42258" y2="308.2887"><stop offset="0" stop-color="#fff"/><stop offset="1" stop-color="#e6e9ef"/></linearGradient><linearGradient id="r" gradientUnits="userSpaceOnUse" x1="19.143267" x2="19.120274" xlink:href="#h" y1="292.79901" y2="281.19299"/><linearGradient id="s" gradientUnits="userSpaceOnUse" x1="20.319683" x2="20.884119" xlink:href="#j" y1="290.7912" y2="286.27573"/><linearGradient id="t" gradientTransform="matrix(.27491701 0 0 .49887795 62.898788 44.663887)" gradientUnits="userSpaceOnUse" x1="27.281374" x2="39.999996" xlink:href="#l" y1="13.237132" y2="144.00003"/><linearGradient id="u" gradientUnits="userSpaceOnUse" x1="23.094316" x2="23.635757" xlink:href="#d" y1="292.27155" y2="276.67752"/><linearGradient id="v" gradientUnits="userSpaceOnUse" x1="23.071192" x2="23.071192" xlink:href="#c" y1="282.32776" y2="269.90741"/><linearGradient id="w" gradientTransform="matrix(.547919 0 0 .15654834 4.902654 265.87765)" gradientUnits="userSpaceOnUse" x1="6.441925" x2="39.339169" xlink:href="#l" y1="25.87571" y2="119.48439"/><linearGradient id="x" gradientUnits="userSpaceOnUse" x1="26.480932" x2="27.022373" xlink:href="#a" y1="288.88498" y2="273.29095"/><linearGradient id="y" gradientUnits="userSpaceOnUse" x1="20.390221" x2="20.52165" xlink:href="#b" y1="277.80917" y2="270.50095"/><linearGradient id="z" gradientUnits="userSpaceOnUse" x1="15.618478" x2="20.871939" xlink:href="#l" y1="269.22247" y2="278.32172"/><g transform="matrix(.46871262 0 0 .46871262 0 -125.44931)"><rect fill="#c4cfe0" height="27.65732" rx=".055424" ry=".057719" width="32.172832" x=".564436" y="268.21378"/><path d="m123.73047 2.2011719v2.1347656c-.0667.0000007-.13463-.000001-.20117 0 .11216.00256.20117.096133.20117.2128906v101.9707019c0 .11838-.0907.21289-.20508.21289h-119.0527338c-.1143416 0-.2070312-.0945-.2070312-.21289v-1.61328l-2.1328125 1.82813 2.1328125 4.04296.2148438.22266h123.3046912l.21289-.22266v-106.2206994l-.21289-.2207031h.21289z" fill="#b6c2d4" fill-opacity=".916667" transform="matrix(.26458333 0 0 .26458333 0 267.63124)"/><rect fill="url(#q)" height="27.092916" rx=".054608" ry=".056536" width="31.608395" x="1.128871" y="268.7782"/><path d="m3.6721981 270.85388-.2811634.52526-.5623269 1.05052h.5623269v20.6165h.5623266v-20.6165h.5623269l-.5623269-1.05052z" fill="#797979" opacity=".613861"/><path d="m30.87057 292.76731-.524311.28163-1.048622.5633v-.5633h-25.3465876v-.56329h25.3465876v-.56328l1.048622.56328z" fill="#797979" opacity=".613861"/><rect fill="url(#e)" height="4.515481" rx=".417087" width="7.337663" x="7.902099" y="287.96902"/><rect fill="url(#f)" height="3.386619" rx=".115857" width="6.138253" x="8.466535" y="288.53345"/><path d="m32.4375 79c-.242589 0-.4375.194911-.4375.4375v6.404297c2.327027-.388697 19.082259-2.295187 23.199219-3.53125v-2.873047c0-.242589-.194911-.4375-.4375-.4375z" fill="url(#g)" transform="matrix(.26458333 0 0 .26458333 0 267.63124)"/><rect fill="url(#i)" height="7.902103" rx=".417087" width="7.337663" x="7.902099" y="280.06693"/><rect fill="url(#k)" height="6.773215" rx=".115857" width="6.208793" x="8.466535" y="280.63135"/><path d="m32.4375 49.134766c-.242589 0-.4375.194911-.4375.4375v10.216796c8.669565-.598769 16.634445-1.715847 23.464844-3.230468v-6.986328c0-.121295-.0479-.231496-.126953-.310547-.07905-.07905-.189253-.126953-.310547-.126953z" fill="url(#m)" transform="matrix(.26458333 0 0 .26458333 0 267.63124)"/><rect fill="url(#n)" height="4.515489" rx=".417087" width="7.337663" x="7.902099" y="275.55142"/><rect fill="url(#o)" height="3.38661" rx=".115857" width="6.208792" x="8.395996" y="276.11588"/><path d="m32.125 32.076172c-.220206.02342-.392578.203067-.392578.429687v6.574219c4.019375-.780327 21.234222-1.951463 23.466797-4.21289v-1.845704c0-.242645-.194987-.432095-.4375-.4375z" fill="url(#p)" transform="matrix(.26458333 0 0 .26458333 0 267.63124)"/><rect fill="url(#r)" height="6.208784" rx=".417087" width="7.337663" x="18.061939" y="286.27573"/><rect fill="url(#s)" height="5.079926" rx=".115857" width="6.138254" x="18.626375" y="286.84015"/><path d="m70.835938 72.601562c-.242589 0-.4375.194912-.4375.4375v8.244141c3.262124-.878842 18.75605-2.133607 23.199218-4.361328v-3.882813c0-.242588-.194911-.4375-.4375-.4375z" fill="url(#t)" transform="matrix(.26458333 0 0 .26458333 0 267.63124)"/><rect fill="url(#u)" height="9.595415" rx=".417087" width="7.337664" x="18.061939" y="276.6803"/><rect fill="url(#v)" height="8.463413" rx=".115857" width="6.208924" x="18.626244" y="277.24786"/><path d="m18.742131 277.24797c-.06419 0-.115755.0516-.115755.11576v2.70319c2.293822-.15843 4.401196-.45399 6.208406-.85473v-1.84846c0-.0321-.01267-.0613-.03359-.0822s-.05007-.0336-.08216-.0336z" fill="url(#w)"/><rect fill="url(#x)" height="4.515489" rx=".417087" width="7.337663" x="18.061939" y="272.16483"/><rect fill="url(#y)" height="3.38661" rx=".115857" width="6.208792" x="18.626375" y="272.72925"/><path d="m18.730118 272.73145c-.05826.006-.103869.0537-.103869.11369v1.73943c1.06346-.20646 5.618221-.51633 6.208923-1.11466v-.48835c0-.0642-.05159-.11432-.115755-.11575z" fill="url(#z)"/></g></svg>