<svg height="52" viewBox="0 0 15.875 13.758334" width="60" xmlns="http://www.w3.org/2000/svg" xmlns:xlink="http://www.w3.org/1999/xlink"><linearGradient id="a"><stop offset="0" stop-color="#fff"/><stop offset="1" stop-color="#fff" stop-opacity="0"/></linearGradient><linearGradient id="b" gradientUnits="userSpaceOnUse" x1="4.515485" x2="40.639366" y1="274.42258" y2="308.2887"><stop offset="0" stop-color="#fff"/><stop offset="1" stop-color="#e6e9ef"/></linearGradient><linearGradient id="c"><stop offset="0" stop-color="#051327"/><stop offset="1" stop-color="#387de4"/></linearGradient><linearGradient id="d" gradientUnits="userSpaceOnUse" x1="10.93662" x2="14.005356" xlink:href="#a" y1="262.69385" y2="281.81311"/><linearGradient id="e" gradientTransform="matrix(.19293138 -.07864274 .07881306 .19251444 -.150522 275.5789)" gradientUnits="userSpaceOnUse" x1="57.035828" x2="57.035828" xlink:href="#a" y1="15.361242" y2="50.69762"/><linearGradient id="f" gradientUnits="userSpaceOnUse" x1="16.03937" x2="7.193584" xlink:href="#a" y1="280.74246" y2="277.44485"/><radialGradient id="g" cx="87.325798" cy="13.060184" gradientTransform="matrix(2.3688812 -1.1674228 .4985261 1.0115864 -126.04949 101.73463)" gradientUnits="userSpaceOnUse" r="3.075796" xlink:href="#a"/><filter id="h" height="1.337263" width="1.388714" x="-.194357" y="-.168631"><feGaussianBlur stdDeviation=".41718673"/></filter><radialGradient id="i" cx="224.39641" cy="115.01036" gradientTransform="matrix(.238125 0 0 .12592071 -36.405737 278.32868)" gradientUnits="userSpaceOnUse" r="35.860352"><stop offset="0" stop-color="#9fc1f2"/><stop offset=".2398627" stop-color="#587eb5"/><stop offset="1" stop-color="#0c2a58"/></radialGradient><radialGradient id="j" cx="258.1293" cy="60.191799" gradientTransform="matrix(.75129632 .020899 -.00838475 .30142283 -168.3656 263.04011)" gradientUnits="userSpaceOnUse" r="21.333984"><stop offset="0" stop-color="#f5c31a"/><stop offset="1" stop-color="#e97b00"/></radialGradient><linearGradient id="k" gradientUnits="userSpaceOnUse" x1="8.940333" x2="7.884582" y1="259.59412" y2="289.00256"><stop offset="0" stop-color="#72d13d"/><stop offset=".3553" stop-color="#35ac1c"/><stop offset=".6194" stop-color="#0b6f05"/><stop offset=".7574" stop-color="#006a00"/><stop offset="1" stop-color="#003400"/></linearGradient><radialGradient id="l" cx="200.0293" cy="57.033329" gradientTransform="matrix(1 0 0 1.5705366 0 -24.365917)" gradientUnits="userSpaceOnUse" r="22.19672"><stop offset="0" stop-color="#baff63"/><stop offset="1" stop-color="#fff" stop-opacity="0"/></radialGradient><filter id="m" color-interpolation-filters="sRGB" height="1.01953" width="1.031123" x="-.015562" y="-.009765"><feGaussianBlur stdDeviation=".27666016"/></filter><radialGradient id="n" cx="196.2793" cy="59.525036" gradientTransform="matrix(1.4770959 -.03420302 .02121872 .91635389 -94.907093 21.374376)" gradientUnits="userSpaceOnUse" r="21.997969"><stop offset="0" stop-color="#72d13d"/><stop offset=".3553" stop-color="#35ac1c"/><stop offset=".6194" stop-color="#0f9508"/><stop offset=".7574" stop-color="#008c00"/><stop offset="1" stop-color="#007a00"/></radialGradient><linearGradient id="o" gradientUnits="userSpaceOnUse" x1="24.775612" x2="27.722256" xlink:href="#a" y1="267.34204" y2="283.61252"/><linearGradient id="p" gradientUnits="userSpaceOnUse" x1="31.311399" x2="24.653008" xlink:href="#a" y1="278.23682" y2="266.70413"/><radialGradient id="q" cx="64.686584" cy="139.65083" gradientTransform="matrix(.4700807 -.00000002 .00000002 .3903477 34.278674 65.800126)" gradientUnits="userSpaceOnUse" r="45.01022"><stop offset="0" stop-color="#64d7eb"/><stop offset="1" stop-color="#64d7eb" stop-opacity="0"/></radialGradient><filter id="r"><feGaussianBlur stdDeviation="1.029351"/></filter><linearGradient id="s" gradientTransform="matrix(.238125 0 0 .2135865 -36.405737 271.57318)" gradientUnits="userSpaceOnUse" x1="224.46094" x2="216.4227" xlink:href="#c" y1="106.43359" y2="7.371148"/><linearGradient id="t" gradientTransform="matrix(.28797998 0 0 .25830399 3.38489 264.98518)" gradientUnits="userSpaceOnUse" x1="51.379715" x2="51.379715" xlink:href="#a" y1="35.236496" y2="108.5285"/><linearGradient id="u" gradientTransform="matrix(.18806996 0 0 .16868957 9.597276 272.96997)" gradientUnits="userSpaceOnUse" x1="93.83374" x2="58.429943" xlink:href="#a" y1="84.017662" y2="22.696486"/><linearGradient id="v" gradientTransform="matrix(.238125 0 0 .2135865 -36.405737 273.16069)" gradientUnits="userSpaceOnUse" x1="224.46094" x2="216.4227" xlink:href="#c" y1="106.43359" y2="7.371148"/><g transform="matrix(.46875755 0 0 .46875755 -.000013 -125.46265)"><rect fill="#c4cfe0" height="27.65732" rx=".055424" ry=".057719" width="32.172832" x=".564436" y="268.21378"/><path d="m123.73047 2.2011719v2.1347656c-.0667.0000007-.13463-.000001-.20117 0 .11216.00256.20117.096133.20117.2128906v101.9707019c0 .11838-.0907.21289-.20508.21289h-119.0527338c-.1143416 0-.2070312-.0945-.2070312-.21289v-1.61328l-2.1328125 1.82813 2.1328125 4.04296.2148438.22266h123.3046912l.21289-.22266v-106.2206994l-.21289-.2207031h.21289z" fill="#b6c2d4" fill-opacity=".916667" transform="matrix(.26458333 0 0 .26458333 0 267.63124)"/><rect fill="url(#b)" height="27.092916" rx=".054608" ry=".056536" width="31.608395" x="1.128871" y="268.7782"/><g transform="matrix(1 0 0 .89695119 -1.058333 27.095374)"><path d="m16.933331 272.60029a11.683816 11.683816 0 0 0 -11.683936 11.68347 11.683816 11.683816 0 0 0 2.0315034 6.56332l9.6524326-6.56332z" fill="#21410f" fill-rule="evenodd"/><path d="m16.933331 270.83041a11.683816 11.683816 0 0 0 -11.683936 11.68347 11.683816 11.683816 0 0 0 2.0315034 6.56332l9.6524326-6.56332z" fill="url(#k)" fill-rule="evenodd"/><path d="m221.86328 8.7089844a44.800189 44.800189 0 0 0 -42.66797 44.6914066 44.800189 44.800189 0 0 0 6.64649 23.304687l36.02148-24.015625z" style="fill:none;stroke-width:.755906;stroke-linecap:square;stroke-linejoin:round;stroke:url(#l);filter:url(#m)" transform="matrix(.238125 0 0 .238125 -36.405737 269.79791)"/><path d="m221.86328 8.7089844a44.800189 44.800189 0 0 0 -42.66797 44.6914066 44.800189 44.800189 0 0 0 6.64649 23.304687l36.02148-24.015625z" fill="url(#n)" filter="url(#m)" transform="matrix(.238125 0 0 .238125 -36.405737 269.79791)"/><path d="m16.425455 271.87174a10.668045 10.668045 0 0 0 -9.934276 8.51669c3.635411-.72819 6.982084-.94845 9.934276-2.20266z" fill="url(#d)"/><path d="m16.302022 271.839.154983 6.25148c-3.10595 1.35428-6.917481 1.68574-10.1702034 2.34209l-.098503.18914c3.8871444-.51365 7.2267874-.88848 10.3673264-2.31001l-.06649-6.46408c-.07568-.03-.168474.0144-.244996-.0139z" fill="url(#f)"/><path d="m13.019698 272.55514c-2.596807 1.05851-4.5620028 2.98797-5.7081978 5.31054l.024507-.0119c1.1540286-2.27225 3.0994718-4.15398 5.6554178-5.19585 1.330751-.54243 2.109257-.76145 3.464863-.7758l-.02228 3.01853c.0058-.007.01358-.0142.01918-.0219l.03136-3.09948c-1.355603.0144-2.134107.23342-3.46486.77585z" fill="url(#e)"/><path d="m16.425455 271.87174a10.668045 10.668045 0 0 0 -10.1603092 10.64214 10.668045 10.668045 0 0 0 1.582695 5.54942l8.5776142-5.71871z" fill="none" opacity=".99"/><path d="m85.28125 10.5625-2.875 3.75.28125.65625 4.1875 1.53125c1.248093-2.302684.824176-4.301365-1.59375-5.9375z" fill="url(#g)" fill-rule="evenodd" filter="url(#h)" transform="matrix(.15567705 -.10552235 .10552235 .15567705 1.874409 278.20947)"/></g><g transform="matrix(1 0 0 .89695119 .529167 27.095374)"><g fill-rule="evenodd"><path d="m16.933331 272.60029v11.68347l9.771033 6.38845a11.683816 11.683816 0 0 0 1.912906-6.38845 11.683816 11.683816 0 0 0 -11.683939-11.68347z" fill="#651300"/><path d="m16.933331 270.83041v11.68347l9.771033 6.38845a11.683816 11.683816 0 0 0 1.912906-6.38845 11.683816 11.683816 0 0 0 -11.683939-11.68347z" fill="#8a1a00"/><path d="m17.441209 271.86383v10.14218l8.722256 5.81499a10.668045 10.668045 0 0 0 1.438055-5.30712 10.668045 10.668045 0 0 0 -10.160311-10.65005z" fill="url(#j)"/></g><path d="m17.441209 271.86383v8.15579c2.698552-.31814 7.216438-.99696 9.325477-1.63293-.000135-.00031-.000238-.00062-.000476-.0009-.0099-.0236-.02062-.0467-.03069-.0702a10.668045 10.668045 0 0 0 -.421372-.87111c-.01183-.0219-.0229-.0443-.03488-.0661a10.668045 10.668045 0 0 0 -.00099-.002 10.668045 10.668045 0 0 0 -.519036-.84459c-.0145-.0214-.02813-.0434-.04279-.0646a10.668045 10.668045 0 0 0 -.589266-.77483c-.02312-.0277-.04591-.0558-.0693-.0833a10.668045 10.668045 0 0 0 -.650623-.69777c-.02869-.0282-.05704-.0568-.08604-.0846a10.668045 10.668045 0 0 0 -.71577-.62787c-.02967-.0238-.05937-.0477-.0893-.0712a10.668045 10.668045 0 0 0 -.777162-.55532c-.03134-.0203-.06286-.0404-.09441-.0605a10.668045 10.668045 0 0 0 -.83995-.48089c-.02607-.0134-.05241-.0264-.0786-.0395a10.668045 10.668045 0 0 0 -.890177-.39813c-.03077-.0121-.06166-.0239-.09256-.0358a10.668045 10.668045 0 0 0 -.932966-.30927c-.02255-.006-.04531-.012-.0679-.0182a10.668045 10.668045 0 0 0 -.979476-.21906c-.01981-.004-.0397-.006-.05953-.01a10.668045 10.668045 0 0 0 -1.009241-.12185c-.0019-.00014-.004-.00031-.006-.00046-.08287-.005-.163508-.0113-.246962-.0154z" fill="url(#o)"/><path d="m25.09713 275.6212c.695021.96709 1.366314 1.91838 1.566092 2.55532-3.225857.94184-7.222035 1.66522-9.18963 1.82205.0316.0507-.03294.0609-.000679.11071 2.690634-.24184 6.391914-.77281 9.357331-1.71681-.331589-.71869-.507539-1.3012-1.697851-2.77127z" fill="url(#p)"/></g><path d="m16.933331 284.56629-9.6524326 4.29947v1.58751c2.1719773 2.86924 5.7858696 4.58885 9.6524326 4.59295 3.941757-.004 7.615812-1.78952 9.771033-4.7498v-1.58751z" fill="url(#v)"/><path d="m16.933331 282.97878-9.6524326 5.88698a11.683816 10.479813 0 0 0 9.6524326 4.59295 11.683816 10.479813 0 0 0 9.771033-4.7498z" fill="url(#s)"/><path d="m64 120.3125c12.41208 0 23.810994-4.16399 33.097656-10.93359.772135-.56528 1.270608-1.4463 1.34375-2.39258.07318-.94678-.280401-1.87951-.960937-2.56055-60.334682-91.812049-133.260996 13.1306-33.480469 15.88672z" fill="url(#q)" filter="url(#r)" transform="matrix(.18792032 .00672772 -.00750065 .16855535 5.447697 272.5809)"/><path d="m17.070067 283.51651-8.5966839 5.25748a10.668045 9.5687157 0 0 0 8.4599479 3.77363 10.668045 9.5687157 0 0 0 8.618544-3.95928z" fill="url(#i)"/><path d="m17.070067 283.51651-8.5771503 5.24538c.011313.0159.021573.0321.033021.048 5.1594063.14473 10.4687253.0167 14.4279573-1.77501l-5.804763-3.47078-.000476-.00043z" fill="url(#t)"/><path d="m17.094438 283.55081 5.775586 3.50966c-3.590867 1.66824-9.844744 2.03789-14.1884052 1.61542.031599.0455.061776.0924.094035.13705 3.7884202.60145 12.1026492-.24011 14.4192492-1.65316l-6.065202-3.60897z" fill="url(#u)"/></g></svg>