<svg height="16" width="16" xmlns="http://www.w3.org/2000/svg" xmlns:xlink="http://www.w3.org/1999/xlink"><linearGradient id="a" gradientTransform="matrix(30.236221 0 0 30.236221 -96.020516 -8776.1602)" gradientUnits="userSpaceOnUse" x1="1.462103" x2="15.011641" y1="288.83728" y2="288.83728"><stop offset="0" stop-color="#b900c4"/><stop offset="1" stop-color="#ae4300"/></linearGradient><linearGradient id="b" gradientUnits="userSpaceOnUse" x1="92" x2="76" xlink:href="#a" y1="60" y2="-4"/><linearGradient id="c" gradientTransform="matrix(0 1 -1 0 48 -8)" gradientUnits="userSpaceOnUse" x1="68" x2="4" xlink:href="#a" y1="-44" y2="-28"/><linearGradient id="d" gradientTransform="translate(40 16)" gradientUnits="userSpaceOnUse" x1="52" x2="36" xlink:href="#a" y1="44" y2="-20"/><linearGradient id="e" gradientTransform="matrix(0 1 -1 0 88 8)" gradientUnits="userSpaceOnUse" x1="52" x2="-12" xlink:href="#a" y1="-4" y2="12"/><linearGradient id="f" gradientUnits="userSpaceOnUse" x1="39.738617" x2="39.738617" xlink:href="#i" y1="117.45376" y2="15.999665"/><linearGradient id="g" gradientUnits="userSpaceOnUse" x1="52.000004" x2="52.000004" xlink:href="#k" y1="92.000015" y2="24.000015"/><linearGradient id="h" gradientUnits="userSpaceOnUse" x1="7" x2="6.558231" xlink:href="#m" y1="8.5" y2="11.216886"/><linearGradient id="i" gradientUnits="userSpaceOnUse" x1="3.9985" x2="47.998501" y1="60" y2="60"><stop offset="0" stop-color="#245795"/><stop offset="1" stop-color="#afd4ff"/></linearGradient><linearGradient id="j" gradientUnits="userSpaceOnUse" x1="79.738617" x2="79.738617" xlink:href="#i" y1="117.45376" y2="-8.000271"/><linearGradient id="k"><stop offset="0" stop-color="#9fbde2"/><stop offset="1" stop-color="#fff"/></linearGradient><linearGradient id="l" gradientUnits="userSpaceOnUse" x1="84" x2="84" xlink:href="#k" y1="92" y2="48"/><linearGradient id="m"><stop offset="0" stop-color="#fff"/><stop offset="1" stop-color="#fff" stop-opacity="0"/></linearGradient><linearGradient id="n" gradientUnits="userSpaceOnUse" x1="7.5" x2="10.999999" xlink:href="#m" y1="1" y2="9.499996"/><g transform="scale(.125)"><path d="m0 96h16v8h-16z" fill="#787878" fill-opacity=".615686"/><path d="m-128 32h16v8h-16z" fill="#787878" fill-opacity=".615686" transform="rotate(-90)"/><path d="m12 0-4 8-8 16h8v96h8v-96h8l-8-16z" fill="#797979" opacity=".613861"/><path d="m128 116-8 4-16 8v-8h-88v-8h88v-8l16 8z" fill="#797979" opacity=".613861"/><g fill="#787878" fill-opacity=".615686"><path d="m-128 56h16v8h-16z" transform="rotate(-90)"/><path d="m-128 80h16v8h-16z" transform="rotate(-90)"/><path d="m0 72h16v8h-16z"/><path d="m0 48h16v8h-16z"/></g><rect fill="url(#f)" height="48" rx="6.363961" width="32" x="64" y="64"/><rect fill="url(#g)" height="32" rx="1.767767" width="16" x="72" y="72"/><path d="m9.2207031 9c-.1224178 0-.2207031.0982853-.2207031.2207031v1.8124999c.7436989.072634 1.456513.12992 2 .128906v-1.9414059c0-.1224178-.098285-.2207031-.220703-.2207031z" fill="url(#h)" stroke-width=".125" transform="scale(8)"/><rect fill="url(#j)" height="64" rx="6.363961" width="32" x="24" y="48"/><rect fill="url(#l)" height="48" rx="1.767767" width="16" x="32" y="56"/><path d="m4.2207031 7c-.1224178 0-.2207031.0982853-.2207031.2207031v1.7792969c.4672683-.0404808 1.1854194-.1533842 2-.3027344v-1.4765625c0-.1224178-.0982853-.2207031-.2207031-.2207031z" fill="url(#n)" stroke-width=".125" transform="scale(8)"/><g fill="none" stroke-linecap="round" stroke-width="8"><path d="m28 4v32" stroke="url(#b)"/><path d="m44 20h-16" stroke="url(#c)"/><path d="m68 20v32" stroke="url(#d)"/><path d="m84 36h-16" stroke="url(#e)"/></g></g></svg>