<svg height="24" width="24" xmlns="http://www.w3.org/2000/svg" xmlns:xlink="http://www.w3.org/1999/xlink"><linearGradient id="a" gradientTransform="matrix(.56156549 0 0 .56188923 4.954286 -.435683)" gradientUnits="userSpaceOnUse" x1="13.236" x2="7.752" y1="37.751999" y2="42.282001"><stop offset="0" stop-color="#fff"/><stop offset="1" stop-color="#fff" stop-opacity="0"/></linearGradient><radialGradient id="b" cx="10.918949" cy="4.564843" gradientTransform="matrix(-1.551757 .03070916 -.03957393 -1.999701 22.830413 12.037915)" gradientUnits="userSpaceOnUse" r="5.094793"><stop offset="0" stop-color="#555"/><stop offset="1" stop-color="#666"/></radialGradient><radialGradient id="c" cx="22.570999" cy="30.857" gradientTransform="matrix(.70642 0 0 .1355 -6.216186 14.963)" gradientUnits="userSpaceOnUse" r="15.571" xlink:href="#g"/><linearGradient id="d" gradientTransform="matrix(.49294 0 0 .51865 -1.792 -.03)" gradientUnits="userSpaceOnUse" x1="28.059" x2="33.437" y1="18.868" y2="23.743"><stop offset="0" stop-color="#6e3d09"/><stop offset=".242" stop-color="#ea8113"/><stop offset=".621" stop-color="#5c3307"/><stop offset="1" stop-color="#e07c12"/></linearGradient><linearGradient id="e" gradientTransform="matrix(.4925 0 0 .5272 -1.783 -.32)" gradientUnits="userSpaceOnUse" x1="20.251" x2="22.012" y1="29.811" y2="31.724"><stop offset="0" stop-color="#f2f2f2"/><stop offset="1" stop-color="#c3c3c3"/></linearGradient><radialGradient id="f" cx="15.415" cy="35.357" gradientTransform="matrix(.4721 0 0 .47512 -2.01 2.097)" gradientUnits="userSpaceOnUse" r="7.579"><stop offset="0" stop-color="#690808"/><stop offset="1" stop-color="#f462ea"/></radialGradient><linearGradient id="g"><stop offset="0"/><stop offset="1" stop-opacity="0"/></linearGradient><radialGradient id="h" cx="26.782" cy="42.343" gradientTransform="matrix(1 0 0 .2822 0 30.394)" gradientUnits="userSpaceOnUse" r="14.407" xlink:href="#g"/><g transform="translate(-2 -2)"><path d="m16.5 2.5v19h2v-8h3v-2h-3v-9zm-13.0058594 1v1.5722656h8.0273434c-.404978 5.0741354-2.8447798 10.0768504-8.5859371 12.8164064l1.0488281 1.595703c7.099024-3.478046 9.515625-9.8144175 9.515625-15.984375z" fill="url(#b)" stroke="#000" stroke-opacity=".6"/><path d="m16.5 2.5v1h2v-1zm-13.0058594 1v1h9.9804684c.01443-.3334435.02539-.6670504.02539-1zm7.9199224 2.5722656c-.633796 4.7223134-3.115441 9.2572634-8.4785161 11.8164064l.4902343.746094c5.3840985-2.786444 7.7026628-7.637937 8.0957028-12.5625004zm7.085937 5.4277344v1h3v-1z" fill="#fff" opacity=".2"/><ellipse cx="9.728813" cy="19.143002" fill="url(#c)" opacity=".2" rx="8" ry="2.89"/></g><path d="m19.626953 9.015625c-.728404.8342349-1.476012 1.685801-2.09375 2.417969a1.4627396 1.4627396 0 0 0 -.892578.591797l-2.640625 3.779297v3.695312a.50005.50005 0 0 0 .5.5h2a.50005.50005 0 0 0 .5-.5v-7.5h2.5a.50005.50005 0 0 0 .5-.5v-2a.50005.50005 0 0 0 -.373047-.484375z" fill="#fff" fill-opacity=".815686"/><path d="m9.82 12.62 2.005 1.972c1.178-1.218 3.057-3.31 4.353-5.147l.085-4.152c-2.142 2.367-4.8 5.343-6.442 7.328z" fill="url(#d)" stroke="#673907" stroke-linecap="round" stroke-width=".743" transform="matrix(1.04813 0 0 1.04813 7.707 -.107)"/><path d="m5.413 18.464 1.272 1.162 5.355-4.94c-.216-.824-1.45-2.312-2.373-2.312l-4.253 6.09z" fill="url(#e)" stroke="#787a75" stroke-linecap="round" stroke-width=".749" transform="matrix(1.04813 0 0 1.04813 7.707 -.107)"/><path d="m1 21.977c3.135 0 5.514.386 5.965-1.97.363-1.898-2.165-2.808-3.417-1.113-1.208 1.632-2.548 3.083-2.548 3.083z" fill="url(#f)" transform="matrix(1.04813 0 0 1.04813 7.707 -.107)"/><path d="m41.19 42.343c0 2.245-6.45 4.066-14.408 4.066-7.957 0-14.407-1.82-14.407-4.067 0-2.245 6.45-4.066 14.407-4.066s14.407 1.82 14.407 4.066z" fill="url(#h)" opacity=".2" transform="matrix(.54562 0 0 .51557 .955 .073)"/><path d="m13.5 20c0 .386513-.310591.700553-.700553.700553-.379611 0-.700555-.31059-.697103-.700553 0-.389963.31059-.704004.700553-.704004.389964 0 .704005.317491.704005.707455z" fill="#fff" opacity=".528" stroke-width="3.451003"/><path d="m8.079628 23.506179s2.201436-1.083286 3.137794-2.694518c.333701-.572772 1.085776-.08218.622578.48561-.996125 1.220254-3.760372 2.206417-3.760372 2.206417z" fill="url(#a)" opacity=".428" stroke-width="2.490313"/></svg>