<svg height="24" width="24" xmlns="http://www.w3.org/2000/svg" xmlns:xlink="http://www.w3.org/1999/xlink"><radialGradient id="a" cx="10.918949" cy="4.564843" gradientTransform="matrix(-1.551757 .03070916 -.03957393 -1.999701 23.830413 16.037915)" gradientUnits="userSpaceOnUse" r="5.094793" xlink:href="#b"/><linearGradient id="b"><stop offset="0" stop-color="#555"/><stop offset="1" stop-color="#666"/></linearGradient><linearGradient id="c" gradientUnits="userSpaceOnUse" x1="13" x2="13" xlink:href="#b" y1="25" y2="3"/><g transform="matrix(1 0 0 -1 0 25)"><path d="m2.5 21.5v2h19v-2z" fill="url(#c)"/><path d="m2.5 21.5v2h19v-2z" fill="none" opacity=".61" stroke="#000"/><path d="m3 22v1h18v-1z" fill="#fff" opacity=".2"/><g transform="matrix(1 0 0 -1 0 25)"><path d="m17.5 6.5v17h2v-6h3v-2h-3v-9zm-13.9902344 1.015625v1.5722656h8.0273434c-.404978 5.0741344-2.8447798 8.0768504-8.5859371 10.8164064l1.0488281 1.595703c7.099024-3.478046 9.515625-7.814418 9.515625-13.984375z" fill="url(#a)" stroke="#000" stroke-opacity=".6"/><path d="m2.5 1.5v1h19v-1zm15 5v1.5h2v-1.5zm-13.9902344 1.015625v1.5h9.9472654c.03486-.4892468.058594-.9858555.058594-1.5zm7.8300784 3.072266c-.751574 4.185081-3.2394491 6.859308-8.3886721 9.316406l.734375 1.117187c5.1914739-2.640564 7.4651561-5.592154 7.8515621-10.433593zm8.160156 4.912109v1h3v-1z" fill="#fff" opacity=".2"/></g></g></svg>