<svg height="24" width="24" xmlns="http://www.w3.org/2000/svg" xmlns:xlink="http://www.w3.org/1999/xlink"><radialGradient id="a" cx="10.918949" cy="4.564843" gradientTransform="matrix(-1.551757 .03070916 -.03957393 -1.999701 22.830413 12.037915)" gradientUnits="userSpaceOnUse" r="5.094793" xlink:href="#d"/><radialGradient id="b" cx="10.918949" cy="4.564843" gradientTransform="matrix(-1.551757 .03070916 -.03957393 -1.999701 24.830413 15.037915)" gradientUnits="userSpaceOnUse" r="5.094793" xlink:href="#d"/><filter id="c" color-interpolation-filters="sRGB" height="1.048822" width="1.047205" x="-.023602" y="-.024411"><feGaussianBlur stdDeviation=".16274089"/></filter><radialGradient id="d" cx="10.918949" cy="4.564843" gradientTransform="matrix(-1.551757 .03070916 -.03957393 -1.999701 22.830413 12.037915)" gradientUnits="userSpaceOnUse" r="5.094793"><stop offset="0" stop-color="#555"/><stop offset="1" stop-color="#666"/></radialGradient><path d="m18.5 5.5v16h2v-5h3v-2h-3v-9zm-13.9902344 1.015625v1.5722656h8.0273434c-.404978 5.0741354-2.8447798 7.0768504-8.5859371 9.8164064l1.0488281 1.595703c7.099024-3.478046 9.515625-6.814417 9.515625-12.984375z" fill="url(#b)" filter="url(#c)" opacity=".3" stroke="#000" stroke-opacity=".6"/><path d="m16.5 2.5v16h2v-5h3v-2h-3v-9zm-13.9902344 1.015625v1.5722656h8.0273434c-.404978 5.0741354-2.8447798 7.0768504-8.5859371 9.8164064l1.0488281 1.595703c7.099024-3.478046 9.515625-6.8144175 9.515625-12.984375z" fill="url(#a)" stroke="#000" stroke-opacity=".6"/><path d="m16.5 2.5v1.5h2v-1.5zm-13.9902344 1.015625v1.5h9.9472654c.03486-.4892468.058594-.9858555.058594-1.5zm7.8300784 3.0722656c-.7515742 4.1850814-3.2394491 5.8593084-8.3886721 8.3164064l.734375 1.117187c5.1914739-2.640564 7.4651561-4.592154 7.8515621-9.4335934zm8.160156 4.9121094v1h3v-1z" fill="#e9e9e9" opacity=".08"/></svg>