<svg viewBox="0 0 24 24" xmlns="http://www.w3.org/2000/svg" xmlns:xlink="http://www.w3.org/1999/xlink"><radialGradient id="a" cx="8" cy="2" gradientTransform="matrix(-.909091 -.00000002 .00000003 -1.6363636 15.272728 6.272727)" gradientUnits="userSpaceOnUse" r="5.5" xlink:href="#d"/><radialGradient id="b" cx="13.894735" cy="4.951923" gradientTransform="matrix(-17.500002 -.00000352 .00000267 -17.333334 259.40789 89.833396)" gradientUnits="userSpaceOnUse" r="1.5" xlink:href="#d"/><radialGradient id="c" cx="13.894735" cy="4.951923" gradientTransform="matrix(-17.500002 -.00000352 .00000267 -17.333334 269.40789 89.833396)" gradientUnits="userSpaceOnUse" r="1.5" xlink:href="#d"/><linearGradient id="d"><stop offset="0" stop-color="#737373"/><stop offset=".26238" stop-color="#636363"/><stop offset=".704952" stop-color="#4b4b4b"/><stop offset="1" stop-color="#3f3f3f"/></linearGradient><g fill="none" stroke="#fff" stroke-linecap="round" stroke-linejoin="round" stroke-width=".999482" transform="translate(0 1)"><path d="m20.5 3.5v13.000518z"/><path d="m14.499741 3.5v13.000518z"/><path d="m4.4997409 14.533898v1.96662z"/><path d="m10.499741 14.533898v1.96662z"/><path d="m7.4997409 14.533898v1.96662z"/><path d="m17.499741 3.5v13.000518z"/></g><g fill="#fff"><path d="m11 19h-7l3.5000002 3z" fill-rule="evenodd"/><path d="m21 19h-7l3.5 3z" fill-rule="evenodd"/><path d="m9.5 3.5v3 1 4h1v-4h2v-1h-2v-3zm-7 1v1l3.5585938.023437c-.0584889 1.9771505-1.0585924 2.476563-3.5585938 3.976563l.7636719 1.039062c3.235827-1.0383485 4.2363281-2.025146 4.2363281-6.039062z" stroke="#f7f7f7" stroke-linejoin="round" transform="translate(.027084 1.000259)"/></g><path d="m9.5 3.5v3 1 4h1v-4h2v-1h-2v-3zm-7 1v1l3.5585938.023437c-.0584889 1.9771505-1.0585924 2.476563-3.5585938 3.976563l.7636719 1.039062c3.235827-1.0383485 4.2363281-2.025146 4.2363281-6.039062z" fill="url(#a)" stroke="#000" stroke-linejoin="round" stroke-opacity=".6"/><path d="m11 18h-7l3.5000002 3z" fill="url(#b)" fill-rule="evenodd"/><path d="m21 18h-7l3.5 3z" fill="url(#c)" fill-rule="evenodd"/><g fill="none" stroke="#565656" stroke-linecap="round" stroke-linejoin="round" stroke-width=".999482"><path d="m20.5 3.5v13.000518z"/><path d="m14.499741 3.5v13.000518z"/><path d="m4.4997409 14.533898v1.96662z"/><path d="m10.499741 14.533898v1.96662z"/><path d="m7.4997409 14.533898v1.96662z"/><path d="m17.499741 3.5v13.000518z"/></g></svg>