<svg viewBox="0 0 16 16" xmlns="http://www.w3.org/2000/svg" xmlns:xlink="http://www.w3.org/1999/xlink"><radialGradient id="a" cx="5.119323" cy="4.777176" gradientTransform="matrix(-1.8921147 .00000004 -.00000007 -3.7159531 16.686347 18.251764)" gradientUnits="userSpaceOnUse" r="3.431876"><stop offset="0" stop-color="#737373"/><stop offset=".262" stop-color="#636363"/><stop offset=".705" stop-color="#4b4b4b"/><stop offset="1" stop-color="#3f3f3f"/></radialGradient><radialGradient id="b" cx="64.575233" cy="48.605404" gradientTransform="matrix(0 .38528829 -.41958841 0 32.389496 -16.793007)" gradientUnits="userSpaceOnUse" r="31.000002"><stop offset="0" stop-color="#cdf87e"/><stop offset=".26238" stop-color="#a2e34f"/><stop offset=".66093999" stop-color="#68b723"/><stop offset="1" stop-color="#1d7e0d"/></radialGradient><linearGradient id="c" gradientTransform="matrix(.39367 0 0 .39124 -3.304 -.658)" gradientUnits="userSpaceOnUse" x1="28.059" x2="33.437" y1="18.868" y2="23.743"><stop offset="0" stop-color="#6e3d09"/><stop offset=".242" stop-color="#ea8113"/><stop offset=".621" stop-color="#5c3307"/><stop offset="1" stop-color="#e07c12"/></linearGradient><linearGradient id="d" gradientTransform="matrix(.3873 0 0 .39168 -3.122 -.67)" gradientUnits="userSpaceOnUse" x1="20.251" x2="22.012" y1="29.811" y2="31.724"><stop offset="0" stop-color="#f2f2f2"/><stop offset="1" stop-color="#c3c3c3"/></linearGradient><radialGradient id="e" cx="15.415" cy="35.357" gradientTransform="matrix(.31487 0 0 .35623 -2.01 1.076)" gradientUnits="userSpaceOnUse" r="7.579"><stop offset="0" stop-color="#650000"/><stop offset="1" stop-color="#fb66f5"/></radialGradient>
/&amp;amp;gt;<path d="m9.5.5v13h1v-5h3v-1h-3v-7zm-9 3v1.5l5.5585938.023437c-.2952492 3.301021-1.3730023 4.694323-5.5585938 6.476563l1 1.5c5.1755446-2.262671 6-5.4860836 6-9.5z" fill="url(#a)" stroke="#000" stroke-linejoin="round" stroke-opacity=".6"/><path d="m10.994141 4.875-.544922.7441406-1.4433596 1.9511719v5.6953125l.1210937.414063c.0338225.114097.1032654.208422.1914063.279296a.49401168.49401168 0 0 0 .0019531.001954.49401168.49401168 0 0 0 .1796875.033203h1a.49401168.49401168 0 0 0 .494141-.494141v-4.5058594h1.591797l-.210938-1.9882812h-1.380859z" fill="#fff" fill-opacity=".816"/><path d="m5.97 8.884 1.6 1.487.635-.656-.007-3.397c-.814.935-1.585 1.834-2.228 2.567z" fill="url(#c)" stroke="#673907" stroke-linecap="round" stroke-width=".696" transform="matrix(1.43673 0 0 1.43673 4.67 -6.986)"/><path d="m2.538 13.283 1 .863 4.21-3.67c-.17-.613-1.14-1.717-1.865-1.717l-3.345 4.523z" fill="url(#d)" stroke="#797b75" stroke-linecap="round" stroke-width=".696" transform="matrix(1.43673 0 0 1.43673 4.67 -6.986)"/><path d="m-.002 15.98c2.09 0 3.678.29 3.978-1.476.243-1.423-1.443-2.105-2.28-.835-.802 1.223-1.696 2.311-1.696 2.311z" fill="url(#e)" transform="matrix(1.43673 0 0 1.43673 4.67 -6.986)"/><g transform="translate(-1 -.992714)"><path d="m10.5 5.9927139c-.176485 0-.339079.029411-.496094.066406v5.253906l-.7187498.9726571c-.594492.124722-1.1803426.448831-1.5976562 1.082031a.50398502.50398502 0 0 0 -.00195.002c-.3578693.545677-.7156451 1.048939-1.0566439 1.515578.1146221.06834.2398576.107422.3710938.107422h2.0000001v2c0 .149973.056536.288577.1445311.416016.150468-.01993.3074073-.02987.4511719-.06055.560223-.11955 1.081032-.341325 1.488281-.744141.40725-.402815.674523-.967029.794922-1.675781.0072-.04243-.0013-.07998.002-.121094a.49710148.49710148 0 0 0 .115188-.31445v-.578125l5.138672-4.4785157a.50398502.50398502 0 0 0 .171875-.3652344c-.097029-.0468159-.198972-.078125-.306641-.078125h-2v-2c0-.4053417-.363169-.7489288-.880859-.90625a.50398502.50398502 0 0 0 -.400391.2050781l-1.261719 1.7050781h-.460937v-2.0039062zm-3.5000001 3c-.554 0-.9999999.669-.9999999 1.5000001v1.947266c.8184205-.706421 1.4339805-1.475175 1.8789062-2.304688.198853-.3707384.359233-.7532038.4960938-1.1425781z" fill="#fff" fill-opacity=".815686"/><path d="m10.5 10.5v-3.0072863h3v3.0072863l3-.0073v3l-3 .0073v2.992714h-3v-2.992714l-3.0072863-.0073v-3z" fill="url(#b)"/><path d="m10.5 10.5v-3.0072863h3v3.0072863l3-.0073v3l-3 .0073v2.992714h-3v-2.992714l-3.0072863-.0073v-3z" fill="none" opacity=".5" stroke="#0f5a00" stroke-linecap="round" stroke-linejoin="round"/><g fill="#fff"><path d="m11 8h2v2h-2z" opacity=".5"/><path d="m11 14h2v1.985428h-2z" opacity=".2"/><path d="m8 10.992714v1l3 .007286v-1zm5 .007286v1l2.992714-.0073v-1z" opacity=".4"/></g></g></svg>