<svg viewBox="0 0 16 16" xmlns="http://www.w3.org/2000/svg" xmlns:xlink="http://www.w3.org/1999/xlink"><radialGradient id="a" cx="5.119323" cy="4.777176" gradientTransform="matrix(-1.8921147 .00000004 -.00000007 -3.7159531 17.686347 19.251764)" gradientUnits="userSpaceOnUse" r="3.431876"><stop offset="0" stop-color="#737373"/><stop offset=".262" stop-color="#636363"/><stop offset=".705" stop-color="#4b4b4b"/><stop offset="1" stop-color="#3f3f3f"/></radialGradient>





/&amp;amp;amp;amp;amp;amp;gt;<path d="m10.5 2a.50005.50005 0 0 0 -.5.5v3.5h2v-3.5a.50005.50005 0 0 0 -.5-.5zm-9 2a.50005.50005 0 0 0 -.5.5v1.5h7.953125c.0334857-.4906292.046875-.9910263.046875-1.5a.50005.50005 0 0 0 -.5-.5zm4.2070312 5c-.1058587.1769749-.216923.3501003-.3515624.5097656-.7470261.8858784-1.986964 1.6505174-4.0507813 2.5292964a.50005.50005 0 0 0 -.2207031.738282l1 1.5a.50005.50005 0 0 0 .6171875.18164c2.6586926-1.16234 4.2678264-2.616346 5.1796875-4.316406.1989285-.3708793.3590672-.7531786.4960937-1.142578zm4.2929688 0v5.5a.50005.50005 0 0 0 .5.5h1a.50005.50005 0 0 0 .5-.5v-4.5h2.5a.50005.50005 0 0 0 .5-.5v-.5z" fill-opacity=".470588"/><path d="m10.5 2.5v3.5h1v-3.5zm-9 2v1.5h6.9511719c.0342994-.4868415.0488281-.9869762.0488281-1.5zm4.796875 4.5c-.7491065 1.397418-2.1492423 2.372628-4.796875 3.5l1 1.5c3.066413-1.34059 4.5986245-3.02031 5.34375-5zm4.203125 0v5.5h1v-5h3v-.5z" fill="url(#a)"/><path d="m1.493 7.5h13.014z" fill="none" stroke="#565656" stroke-linecap="round" stroke-linejoin="round"/></svg>