<svg height="16" viewBox="0 0 4.2333332 4.2333335" width="16" xmlns="http://www.w3.org/2000/svg"><g transform="translate(0 -292.76665)"><path d="m1 0c-.5539995 0-1 .44599687-1 1v4c0-.5540035.44600049-1 1-1v-2.5c0-.2770394.2230001-.5.5-.5h1.5.6992188l2.2910156 1.8847656c.0869582.0733683.1967779.1141189.3105468.1152344h.6992188.2050781 7.2949219c.277002 0 .5.2229984.5.5v.5c.554 0 1 .4459965 1 1v-2c0-.5540031-.446-1-1-1h-8-.5175781l-2.2910157-1.890625c-.0893153-.07254932-.2013539-.11127869-.3164062-.109375h-.875z" fill="#4b4b4f" transform="matrix(.26458333 0 0 .26458333 0 292.76665)"/><path d="m1 4c-.55399953 0-1.00000002.4459965-1 1l.00000025 9c.00000001.554003.44600047 1 .99999995 1h13.9999998c.554 0 1-.445997 1-1v-9c0-.5540035-.446-1-1-1zm.5 1h13c.277 0 .5.2230051.5.5v8c0 .276995-.223.5-.5.5h-12.9999998c-.277 0-.4999999-.223005-.5-.5l-.0000002-8c-.00000001-.2769949.223-.5.5-.5z" fill="#4b4b4f" transform="matrix(.26458333 0 0 .26458333 0 292.76665)"/><rect fill-opacity=".188235" height="2.381248" rx=".132292" ry=".132289" width="3.704167" x=".264583" y="294.08957"/><path d="m2.5 3c-.277 0-.5.223005-.5.5v1.5 4.5 2.5l1.5-1.5 1.5 1.5v-2.5-4.5-1.5c0-.276995-.223-.5-.5-.5z" fill="#4b4b4f" transform="matrix(.26458333 0 0 .26458333 0 292.76665)"/></g></svg>