<svg xmlns="http://www.w3.org/2000/svg" viewBox="0 0 56 40">
  <defs
     id="defs3945">
    <linearGradient
       inkscape:collect="always"
       id="linearGradient4400">
      <stop
         style="stop-color:#020303;stop-opacity:1"
         offset="0"
         id="stop4402" />
      <stop
         style="stop-color:#424649;stop-opacity:0"
         offset="1"
         id="stop4404" />
    </linearGradient>
    <linearGradient
       inkscape:collect="always"
       id="linearGradient4435">
      <stop
         style="stop-color:#c61423;stop-opacity:1"
         offset="0"
         id="stop4437" />
      <stop
         style="stop-color:#dc2b41;stop-opacity:1"
         offset="1"
         id="stop4439" />
    </linearGradient>
    <linearGradient
       id="linearGradient4344-2"
       inkscape:collect="always">
      <stop
         id="stop4346-4"
         offset="0"
         style="stop-color:#ed868d;stop-opacity:1" />
      <stop
         id="stop4348-4"
         offset="1"
         style="stop-color:#fbe6e8;stop-opacity:1" />
    </linearGradient>
    <linearGradient
       inkscape:collect="always"
       xlink:href="#linearGradient4344-2"
       id="linearGradient4622"
       gradientUnits="userSpaceOnUse"
       x1="-40.514721"
       y1="28.485283"
       x2="-23.544157"
       y2="11.51472"
       gradientTransform="matrix(0.70710678,-0.70710678,0.70710678,0.70710678,35.506097,-17.79037)" />
    <linearGradient
       inkscape:collect="always"
       xlink:href="#linearGradient4435"
       id="linearGradient4624"
       gradientUnits="userSpaceOnUse"
       gradientTransform="matrix(-1.2972972,0,0,1.2154856,61.081084,-4.5083)"
       x1="26.21154"
       y1="43.999989"
       x2="26.21154"
       y2="6.9999886" />
    <linearGradient
       inkscape:collect="always"
       xlink:href="#linearGradient4400"
       id="linearGradient4631"
       gradientUnits="userSpaceOnUse"
       gradientTransform="translate(-4,-12)"
       x1="19.999998"
       y1="19.999998"
       x2="43.999996"
       y2="44" />
  </defs>
    <path
       style="fill:url(#linearGradient4624)"
       d="M 4 4 L 4 36 L 52 36 L 52 4 L 4 4 z " />
    <path
       style="opacity:0.2;fill:url(#linearGradient4631)"
       d="M 38.90625 12.5625 L 20.28125 30.125 L 15.03125 30.96875 L 20.65625 36 L 52 36 L 52 25.09375 L 38.90625 12.5625 z " />
    <path
       style="fill:#aa111e"
       d="M 4 35 L 4 35.9375 L 4 36 L 27.654297 36 L 28.576172 36 L 50.154297 36 L 51.076172 36 L 52 36 L 52 35.9375 L 52 35 L 50.154297 35 L 44.615234 35 L 15.683594 35 L 4 35 z " />
    <path
       style="fill:url(#linearGradient4622)"
       d="M 33.384766 6.9589844 L 15 25.34375 L 15 31 L 20.65625 31 L 39.041016 12.615234 L 33.384766 6.9589844 z M 32.324219 11.554688 L 34.445312 13.675781 L 18.888672 29.232422 L 16.767578 27.111328 L 32.324219 11.554688 z "/>
</svg>
