<svg height="128" width="128" xmlns="http://www.w3.org/2000/svg" xmlns:xlink="http://www.w3.org/1999/xlink"><filter id="a" height="1.764246" width="1.027791" x="-.013895" y="-.382123"><feGaussianBlur stdDeviation=".31843575"/></filter><filter id="b"><feGaussianBlur stdDeviation="1.1871508"/></filter><linearGradient id="c" gradientUnits="userSpaceOnUse" x1="-59.057827" x2="3.058392" y1="52.499592" y2="52.499592"><stop offset=".0059" stop-color="#ddd"/><stop offset=".1065" stop-color="#bbb"/><stop offset=".2799" stop-color="#b2b2b2"/><stop offset=".5571" stop-color="#9b9b9b"/><stop offset=".7396" stop-color="#888"/><stop offset="1" stop-color="#bbb"/></linearGradient><linearGradient id="d" gradientUnits="userSpaceOnUse" x1="78.542999" x2="99.470703" xlink:href="#e" y1="62.576698" y2="62.576698"/><linearGradient id="e"><stop offset=".0059" stop-color="#888"/><stop offset=".1775" stop-color="#bbb"/><stop offset=".4387" stop-color="#c4c4c4"/><stop offset=".8565" stop-color="#dbdbdb"/><stop offset=".8876" stop-color="#ddd"/><stop offset="1" stop-color="#bbb"/></linearGradient><linearGradient id="f" gradientUnits="userSpaceOnUse" x1="99.470703" x2="120.3984" xlink:href="#e" y1="62.576698" y2="62.576698"/><linearGradient id="g" gradientTransform="matrix(1.484067 0 0 1.456166 -175.6209 -38.51022)" gradientUnits="userSpaceOnUse" x1="117.2334" x2="83.030296" y1="64.213898" y2="64.213898"><stop offset="0" stop-color="#888"/><stop offset=".0079" stop-color="#4e4e4e"/><stop offset=".1453" stop-color="#303030"/><stop offset=".2189"/><stop offset=".2473" stop-color="#232323"/><stop offset=".7371" stop-color="#7b7b7b"/><stop offset="1" stop-color="#888"/></linearGradient><radialGradient id="h" cx="98.667999" cy="83.244102" gradientTransform="matrix(1.484067 0 0 1.456166 -175.6209 -38.51022)" gradientUnits="userSpaceOnUse" r="36.6605"><stop offset=".2544" stop-color="#fff"/><stop offset=".2903" stop-color="#f2f2f2"/><stop offset=".4589" stop-color="#b9b9b9"/><stop offset=".584" stop-color="#959595"/><stop offset=".6509" stop-color="#888"/><stop offset=".8549" stop-color="#a9a9a9"/><stop offset="1" stop-color="#bbb"/></radialGradient><linearGradient id="i" gradientUnits="userSpaceOnUse" x1=".091742" x2="-56.317345" y1="53.883636" y2="53.883636"><stop offset=".2899" stop-color="#fff"/><stop offset=".459" stop-color="#ececec"/><stop offset=".811" stop-color="#c8c8c8"/><stop offset="1" stop-color="#bbb"/></linearGradient><filter id="j"><feGaussianBlur stdDeviation=".44489293"/></filter><linearGradient id="k" gradientTransform="matrix(1.53075 0 0 1.48492 -216.2652 -63.21078)" gradientUnits="userSpaceOnUse" x1="126.42596" x2="73.339935" y1="101.83096" y2="101.83096"><stop offset=".0237" stop-color="#b3925d"/><stop offset=".025" stop-color="#b7975d"/><stop offset=".0348" stop-color="#d1b55a"/><stop offset=".0451" stop-color="#e5cd58"/><stop offset=".056" stop-color="#f4de56"/><stop offset=".068" stop-color="#fce855"/><stop offset=".0828" stop-color="#ffeb55"/><stop offset=".0986" stop-color="#fce242"/><stop offset=".1278" stop-color="#f8d525"/><stop offset=".1568" stop-color="#f5cb11"/><stop offset=".1854" stop-color="#f4c504"/><stop offset=".213" stop-color="#f3c300"/><stop offset=".2931" stop-color="#dfae00"/><stop offset=".3765" stop-color="#d19e00"/><stop offset=".4438" stop-color="#c90"/><stop offset=".6982" stop-color="#e3ad00"/><stop offset=".8402" stop-color="#fd0"/><stop offset=".8602" stop-color="#ffe72f"/><stop offset=".8868" stop-color="#fff468"/><stop offset=".9066" stop-color="#fffc8c"/><stop offset=".9172" stop-color="#ff9"/><stop offset=".9304" stop-color="#fcfb96"/><stop offset=".944" stop-color="#f2ee8d"/><stop offset=".958" stop-color="#e3da7f"/><stop offset=".972" stop-color="#cdbd6b"/><stop offset=".986" stop-color="#b19851"/><stop offset="1" stop-color="#8f6b32"/></linearGradient><linearGradient id="l" gradientTransform="matrix(1 0 0 1.2235252 0 -12.51741)" gradientUnits="userSpaceOnUse" x1="72" x2="72" y1="56" y2="64.727272"><stop offset="0" stop-color="#98773a"/><stop offset="1" stop-color="#98773a" stop-opacity="0"/></linearGradient><filter id="m" height="3.292738" width="1.083372" x="-.041686" y="-1.146369"><feGaussianBlur stdDeviation=".95530726"/></filter><filter id="n" color-interpolation-filters="sRGB"><feGaussianBlur stdDeviation="2.028"/></filter><filter id="o" color-interpolation-filters="sRGB"><feGaussianBlur stdDeviation="1.5615"/></filter><linearGradient id="p" gradientUnits="userSpaceOnUse" x1="72" x2="72" y1=".000003" y2="116.40091"><stop offset="0" stop-color="#eeecec"/><stop offset=".40000001" stop-color="#f4f4f4"/><stop offset="1" stop-color="#f6f5f5"/></linearGradient><radialGradient id="q" cx="64" cy="64.004021" fx="63.793392" fy="47.274845" gradientTransform="matrix(1.6842105 -.08429519 .06886339 1.3758846 -48.197 -18.66323)" gradientUnits="userSpaceOnUse" r="47.5" xlink:href="#V"/><mask id="r" maskUnits="userSpaceOnUse"><path d="m18.607899 44.442407c-.214676 0-.31584.148203-.31584.31584v68.833293c0 .51898.429113.94722.947519.94752l34.742357.0198c.03354.00002.63034-.005 1.065959.00003 6.379076-2.52379 16.053053-14.18327 21.703569-19.869526.932896-1.046366.703596-.727263.918405-1.824735l.000038-48.106352c0-.203854-.103103-.31584-.31584-.31584z" fill="url(#s)" opacity=".846535"/></mask><radialGradient id="s" cx="64" cy="64.004021" fx="63.793392" fy="47.274845" gradientTransform="matrix(1.0638808 -.05324752 .04349957 .86911771 -23.207376 27.283957)" gradientUnits="userSpaceOnUse" r="47.5" xlink:href="#t"/><linearGradient id="t" xlink:href="#V"/><filter id="u"><feGaussianBlur stdDeviation=".77272692"/></filter><filter id="v"><feGaussianBlur stdDeviation=".76"/></filter><radialGradient id="w" cx="100.88867" cy="155.99673" fx="100.88867" fy="155.99673" gradientTransform="matrix(2.6170184 0 0 2.3190383 -169.4466 -242.48233)" gradientUnits="userSpaceOnUse" r="40" xlink:href="#x"/><radialGradient id="x" cx="102" cy="112.3047" gradientUnits="userSpaceOnUse" r="139.55859"><stop offset="0" stop-color="#efefef"/><stop offset=".18851049" stop-color="#f9f9f9"/><stop offset=".25718147" stop-color="#fafafa"/><stop offset=".30111277" stop-color="#fff"/><stop offset=".5313" stop-color="#fafafa"/><stop offset=".8449" stop-color="#ebecec"/><stop offset="1" stop-color="#e1e2e3"/></radialGradient><linearGradient id="y" gradientTransform="matrix(.5963242 0 0 .6040153 27.398043 19.175144)" gradientUnits="userSpaceOnUse" x1="36.166496" x2="37.420395" y1="41.49947" y2="106.46574"><stop offset=".14086165" stop-color="#fff"/><stop offset="1" stop-color="#bac1c4"/></linearGradient><linearGradient id="z" gradientUnits="userSpaceOnUse" x1="52" x2="52" y1="52" y2="60"><stop offset="0"/><stop offset="1" stop-opacity="0"/></linearGradient><filter id="A" color-interpolation-filters="sRGB"><feGaussianBlur stdDeviation="1.1263538"/></filter><radialGradient id="B" cx="100.88867" cy="155.99673" fx="100.88867" fy="155.99673" gradientTransform="matrix(2.6170184 0 0 2.3190383 -190.4466 -216.48233)" gradientUnits="userSpaceOnUse" r="40" xlink:href="#x"/><linearGradient id="C"><stop offset="0" stop-color="#fff"/><stop offset="1" stop-color="#ddd"/></linearGradient><linearGradient id="D" gradientTransform="matrix(.5963242 0 0 .6040153 12.398043 41.175144)" gradientUnits="userSpaceOnUse" x1="58.170628" x2="58.170628" xlink:href="#C" y1="38.9641" y2="94.973244"/><linearGradient id="E" gradientUnits="userSpaceOnUse" x1="56" x2="56" xlink:href="#V" y1="32" y2="88.117546"/><clipPath id="F"><path d="m18.1875 56c-1.219674 0-2.1875.967827-2.1875 2.1875v17.0625c9.640301 2.396967 20.509296 3.75 32 3.75s22.359699-1.353033 32-3.75v-17.0625c0-1.219674-.967827-2.1875-2.1875-2.1875z" filter="url(#G)"/></clipPath><filter id="G" color-interpolation-filters="sRGB" height="1.294962" width="1.106002" x="-.053001" y="-.147481"><feGaussianBlur stdDeviation="1.4133574"/></filter><filter id="H"><feGaussianBlur stdDeviation="1.4074074"/></filter><linearGradient id="I" gradientTransform="matrix(.5963242 0 0 .6040153 55.429293 19.175144)" gradientUnits="userSpaceOnUse" x1="38.047344" x2="38.047344" xlink:href="#J" y1="104.22137" y2="36.109924"/><linearGradient id="J"><stop offset="0" stop-color="#0590ff"/><stop offset="1" stop-color="#c6e6ff"/></linearGradient><filter id="K"><feGaussianBlur stdDeviation="1.7201646"/></filter><linearGradient id="L" gradientTransform="matrix(.5963242 0 0 .6040153 12.398043 41.175144)" gradientUnits="userSpaceOnUse" x1="58.170628" x2="58.170628" xlink:href="#J" y1="55.885925" y2="94.973244"/><clipPath id="M"><path d="m17.000001 8-.000001 110h57.5c1.675283 0 3.119418.18058 4.9-1.6 8.797935-8.79794 20.54047-19.851805 27.79904-27.175957 2.44056-2.462612 2.80096-4.47117 2.80096-6.724043v-74.5z"/></clipPath><filter id="N" color-interpolation-filters="sRGB" height="2.025501" width="1.957419" x="-.478709" y="-.512751"><feGaussianBlur stdDeviation="10.140743"/></filter><filter id="O" color-interpolation-filters="sRGB" height="1.241294" width="1.225275" x="-.112638" y="-.120647"><feGaussianBlur stdDeviation="2.3860572"/></filter><linearGradient id="P" gradientUnits="userSpaceOnUse" x1="86.882011" x2="95.42765" y1="93.756439" y2="102.30208"><stop offset="0" stop-color="#fcfcfc"/><stop offset=".52275378" stop-color="#f8f8f8"/><stop offset=".72337759" stop-color="#f0efef"/><stop offset=".89024991" stop-color="#e3e1e1"/><stop offset="1" stop-color="#cecbcb"/></linearGradient><radialGradient id="Q" cx="90.750008" cy="110.25297" gradientUnits="userSpaceOnUse" r="24.501278" xlink:href="#V"/><clipPath id="R"><path d="m112 82.502986c0 4.465301-2.79749 6.409952-5.27972 8.093625-5.10854 3.46508-14.939114 3.32536-20.720284 3.40638-.081 5.781159.16586 15.504599-3.29922 20.613139-1.68367 2.48224-5.29051 5.38687-8.20078 5.38687 2.31803 0 4.74284-1.33476 7.58402-4.08481 9.14197-8.84873 17.36714-16.13535 25.673154-25.297529 1.91895-2.116745 4.24283-3.641881 4.24283-8.117675z"/></clipPath><filter id="S" color-interpolation-filters="sRGB"><feGaussianBlur stdDeviation=".43040059"/></filter><linearGradient id="T" gradientUnits="userSpaceOnUse" x1="10" x2="10" xlink:href="#C" y1="15.556602" y2="12.444199"/><linearGradient id="U" gradientUnits="userSpaceOnUse" x1="11.1006" x2="8.9005" y1="15.100601" y2="12.900497"><stop offset="0" stop-color="#eaeaea"/><stop offset="1" stop-color="#616161"/></linearGradient><linearGradient id="V"><stop offset="0" stop-color="#fff"/><stop offset="1" stop-color="#fff" stop-opacity="0"/></linearGradient><g transform="matrix(.9999975 0 0 .9999975 0 .000319)"><path d="m16 8.500003v111.999997h59.1875c2.115556 0 4.528919-1.77169 7-4.25.71234-.71442 1.440746-1.39395 2.15625-2.09375.415612-.40649.832187-.81443 1.25-1.21875 7.773958-7.40962 14.98341-14.022599 22.21875-21.999999.42065-.42064.81207-.8111 1.15625-1.1875 1.46444-1.49766 2.76158-2.8378 2.99375-5.8625l.0375-.73125v-74.656248z" filter="url(#n)" opacity=".262376"/><path d="m16.000001 8.000003-.000001 112.199997h58.746418c4.168166 0 7.728581-4.85625 20.853582-17.1 7.48636-6.983699 10.43958-10.889429 13.15009-13.599929 1.74325-1.74325 3.24991-3.03751 3.24991-7.20007v-74.299998z" fill-opacity=".700535" filter="url(#o)"/><path d="m16.000001 8.000003-.000001 111.999997h58.5c1.675283 0 3.914297-.56468 7-3.6 8.870045-8.72523 20.24047-19.851799 27.49904-27.175959 2.44056-2.46261 3.00096-4.47117 3.00096-6.72404v-74.499998z" fill="#fff"/><path d="m18.5 10.000003c-.339844 0-.5.234618-.5.5v105.968747c0 .82158.679323 1.5 1.5 1.5h53.6875c.05307 0 .810384.0234 1.5.0313 1.777664-.0401 3.131974-.75374 4.356035-1.59328 1.051866-.29103 19.649835-18.619589 28.770955-27.809239 1.36239-1.37262 2.18546-3.94817 2.18546-4.89561l.00005-73.201918c0-.322717-.16322-.5-.5-.5z" fill="url(#p)"/><path d="m18.5 10.000003c-.339844 0-.5.234618-.5.5v105.968747c0 .82158.679323 1.49954 1.5 1.5l55.5.0313c.05307.00003 3.273884-.008 3.9635.00005 6.540972-4.50366 20.6373-19.953329 29.58253-28.955139 1.47685-1.65649.4576-.37007 1.45391-1.60746l.00006-76.937498c0-.322717-.16322-.5-.5-.5z" fill="url(#q)" opacity=".846535"/><path d="m0 0h128v128h-128z" fill="#fbfbfb" fill-opacity=".003922" opacity=".01"/><g filter="url(#u)" mask="url(#r)" transform="matrix(1.583082 0 0 1.583082 -11.457825 -61.855975)"><path d="m15 40.6875c-3.884437 0-7 3.146813-7 7.03125v57.96875c0 3.88444 3.115563 7 7 7h66c3.884437 0 7-3.11556 7-7v-57.96875c0-3.884437-3.115563-7.03125-7-7.03125h-8.6v2.99375c0 .95614-.762611 1.71875-1.71875 1.71875h-5.3625c-.95614 0-1.71875-.762611-1.71875-1.71875v-2.99375z" filter="url(#v)" transform="matrix(.5963242 0 0 .5963242 27.398043 19.983477)"/><path d="m36 44c-2.187336 0-3.950648 1.763312-3.950648 3.950648l-.049352 35.049353c0 2.187335 1.812664 4 4 4h40c2.187336 0 4-1.812665 4-4v-35.000001c0-2.187335-1.763312-3.950648-3.950648-3.950648l-5.049352-.049352v1c0 .570169-.454763 1.024932-1.024932 1.024932h-2.950136c-.570169 0-1.024932-.454763-1.024932-1.024932v-1z" fill="#fff"/><path d="m42 40.458984c-1.995976 0-3.541016 1.545039-3.541016 3.541016v35c0 1.995979 1.54504 3.541016 3.541016 3.541016h40c1.995976.000001 3.541016-1.545038 3.541016-3.541016v-35c0-1.995976-1.545039-3.541016-3.541016-3.541016h-4a.54143276.54143276 0 0 0 -.541016.541016v1c0 .4248-.315433.740234-.740234.740234h-4.4375c-.424808 0-.740234-.31543-.740234-.740234v-1a.54143276.54143276 0 0 0 -.541016-.541016z" fill="url(#w)" transform="translate(-6 4)"/><rect fill="url(#y)" height="28.992733" rx="1.312854" ry="1.329786" width="38.164749" x="36.939232" y="53"/><rect fill="url(#z)" filter="url(#A)" height="32" rx="2.201577" transform="matrix(.5963242 0 0 .6040153 27.398043 19.175144)" width="64" x="16" y="56"/><path d="m36.950005 80.731852v.604015c0 .736699.577139 1.321283 1.304459 1.321283h35.555831c.727319 0 1.304459-.584584 1.304459-1.321283v-.604015c0 .736699-.57714 1.321283-1.304459 1.321283h-35.555831c-.72732 0-1.304459-.584584-1.304459-1.321283z" fill="#fff"/><g transform="translate(0 -3)"><path d="m15 40.6875c-3.884437 0-7 3.146813-7 7.03125v57.96875c0 3.88444 3.115563 7 7 7h66c3.884437 0 7-3.11556 7-7v-57.96875c0-3.884437-3.115563-7.03125-7-7.03125h-8.6v2.99375c0 .95614-.762611 1.71875-1.71875 1.71875h-5.3625c-.95614 0-1.71875-.762611-1.71875-1.71875v-2.99375z" filter="url(#v)" transform="matrix(.5963242 0 0 .5963242 12.398043 41.983477)"/><path d="m21 66c-2.187336 0-3.950648 1.763312-3.950648 3.950648l-.049352 35.049352c0 2.18734 1.812664 4 4 4h40c2.187336 0 4-1.81266 4-4v-35c0-2.187335-1.763312-3.950648-3.950648-3.950648l-5.049352-.049352v1c0 .570169-.454763 1.024932-1.024932 1.024932h-2.950136c-.570169 0-1.024932-.454763-1.024932-1.024932v-1z" fill="#fff"/><path d="m21 66.421875c-2.014332 0-3.578125 1.563792-3.578125 3.578125v35c0 2.01434 1.563793 3.57812 3.578125 3.57812h40c2.014331 0 3.578125-1.56378 3.578125-3.57812v-35c0-2.014332-1.563792-3.578125-3.578125-3.578125h-4a.5790269.5790269 0 0 0 -.578125.578125v1c0 .404809-.298315.703125-.703125.703125h-4.4375c-.404816-.000002-.703125-.298314-.703125-.703125v-1a.5790269.5790269 0 0 0 -.578125-.578125z" fill="url(#B)"/><rect fill="url(#D)" height="28.992733" rx="1.312854" ry="1.329786" width="38.164749" x="21.939232" y="75"/><rect fill="url(#z)" filter="url(#A)" height="32" rx="2.201577" transform="matrix(.5963242 0 0 .6040153 12.398043 41.175144)" width="64" x="16" y="56"/><path d="m21.950005 102.73185v.60402c0 .7367.577139 1.32128 1.304459 1.32128h35.555831c.727319 0 1.304459-.58458 1.304459-1.32128v-.60402c0 .7367-.57714 1.32128-1.304459 1.32128h-35.555831c-.72732 0-1.304459-.58458-1.304459-1.32128z" fill="#fff"/><path clip-path="url(#F)" d="m18.1875 56c-1.219674 0-2.1875.967827-2.1875 2.1875v17.0625c9.640301 2.396967 20.509296 3.75 32 3.75s22.359699-1.353033 32-3.75v-17.0625c0-1.219674-.967827-2.1875-2.1875-2.1875z" fill="url(#E)" filter="url(#G)" transform="matrix(.5963242 0 0 .6040153 12.398043 41.175144)"/></g><path clip-path="url(#F)" d="m18.1875 56c-1.219674 0-2.1875.967827-2.1875 2.1875v17.0625c9.640301 2.396967 20.509296 3.75 32 3.75s22.359699-1.353033 32-3.75v-17.0625c0-1.219674-.967827-2.1875-2.1875-2.1875z" fill="url(#E)" filter="url(#G)" transform="matrix(.5963242 0 0 .6040153 27.398043 19.175144)"/></g><path d="m15 40.6875c-3.884437 0-7 3.146813-7 7.03125v57.96875c0 3.88444 3.115563 7 7 7h66c3.884437 0 7-3.11556 7-7v-57.96875c0-3.884437-3.115563-7.03125-7-7.03125h-8.6v2.99375c0 .95614-.762611 1.71875-1.71875 1.71875h-5.3625c-.95614 0-1.71875-.762611-1.71875-1.71875v-2.99375z" filter="url(#H)" transform="matrix(.5963242 0 0 .5963242 55.429293 19.983477)"/><path d="m64.03125 44c-2.187336 0-3.950648 1.763312-3.950648 3.950648l-.04935 35.049353c0 2.187335 1.812664 4 4 4h39.999998c2.18734 0 4-1.812665 4-4v-35.000001c0-2.187335-1.76331-3.950648-3.95065-3.950648l-5.04935-.049352v1c0 .570169-.454763 1.024932-1.024932 1.024932h-2.950136c-.570169 0-1.024932-.454763-1.024932-1.024932v-1z" fill="#fff"/><path d="m42 40.96875c-1.746863 0-3.03125 1.284386-3.03125 3.03125v35c0 1.746867 1.284386 3.03125 3.03125 3.03125h40c1.746863.000001 3.03125-1.284384 3.03125-3.03125v-35c0-1.746863-1.284386-3.03125-3.03125-3.03125h-4a.03125312.03125312 0 0 0 -.0059 0 .03125312.03125312 0 0 0 -.0059.002.03125312.03125312 0 0 0 -.0059.0039.03125312.03125312 0 0 0 -.002.002.03125312.03125312 0 0 0 -.002.002.03125312.03125312 0 0 0 -.0039.0039.03125312.03125312 0 0 0 -.0039.0059.03125312.03125312 0 0 0 -.002.0059.03125312.03125312 0 0 0 0 .0059v1c0 .696091-.553908 1.25-1.25 1.25h-4.4375c-.696097 0-1.25-.553908-1.25-1.25v-1a.03125312.03125312 0 0 0 0-.0059.03125312.03125312 0 0 0 -.002-.0059.03125312.03125312 0 0 0 -.0039-.0059.03125312.03125312 0 0 0 -.002-.002.03125312.03125312 0 0 0 -.002-.002.03125312.03125312 0 0 0 -.0039-.0039.03125312.03125312 0 0 0 -.0059-.0039.03125312.03125312 0 0 0 -.0059-.002.03125312.03125312 0 0 0 -.0059 0z" fill="url(#w)" transform="translate(22 4)"/><rect fill="url(#I)" height="28.992733" rx="1.312854" ry="1.329786" width="38.164749" x="64.970482" y="53"/><rect fill="url(#z)" filter="url(#A)" height="32" rx="2.201577" transform="matrix(.5963242 0 0 .6040153 55.429293 19.175144)" width="64" x="16" y="56"/><path d="m64.981255 80.731852v.604015c0 .736699.577139 1.321283 1.304459 1.321283h35.555826c.72732 0 1.30446-.584584 1.30446-1.321283v-.604015c0 .736699-.57714 1.321283-1.30446 1.321283h-35.555826c-.72732 0-1.304459-.584584-1.304459-1.321283z" fill="#fff"/><g transform="translate(28.03125 -2)"><path d="m15 40.6875c-3.884437 0-7 3.146813-7 7.03125v57.96875c0 3.88444 3.115563 7 7 7h66c3.884437 0 7-3.11556 7-7v-57.96875c0-3.884437-3.115563-7.03125-7-7.03125h-8.6v2.99375c0 .95614-.762611 1.71875-1.71875 1.71875h-5.3625c-.95614 0-1.71875-.762611-1.71875-1.71875v-2.99375z" filter="url(#K)" transform="matrix(.5963242 0 0 .5963242 12.398043 41.983477)"/><path d="m21 66c-2.187336 0-3.950648 1.763312-3.950648 3.950648l-.049352 35.049352c0 2.18734 1.812664 4 4 4h40c2.187336 0 4-1.81266 4-4v-35c0-2.187335-1.763312-3.950648-3.950648-3.950648l-5.049352-.049352v1c0 .570169-.454763 1.024932-1.024932 1.024932h-2.950136c-.570169 0-1.024932-.454763-1.024932-1.024932v-1z" fill="#fff"/><path d="m21 67.03125c-1.716435 0-2.96875 1.252314-2.96875 2.96875v35c0 1.71644 1.252314 2.96875 2.96875 2.96875h40c1.716435 0 2.96875-1.25231 2.96875-2.96875v-35c0-1.716435-1.252314-2.96875-2.96875-2.96875h-3.96875v.96875c0 .729229-.58327 1.3125-1.3125 1.3125h-4.4375c-.72923-.000004-1.3125-.58327-1.3125-1.3125v-.96875z" fill="url(#B)"/><rect fill="url(#L)" height="28.992733" rx="1.312854" ry="1.329786" width="38.164749" x="21.939232" y="75"/><rect fill="url(#z)" filter="url(#A)" height="32" rx="2.201577" transform="matrix(.5963242 0 0 .6040153 12.398043 41.175144)" width="64" x="16" y="56"/><path d="m21.950005 102.73185v.60402c0 .7367.577139 1.32128 1.304459 1.32128h35.555831c.727319 0 1.304459-.58458 1.304459-1.32128v-.60402c0 .7367-.57714 1.32128-1.304459 1.32128h-35.555831c-.72732 0-1.304459-.58458-1.304459-1.32128z" fill="#fff"/><path clip-path="url(#F)" d="m18.1875 56c-1.219674 0-2.1875.967827-2.1875 2.1875v17.0625c9.640301 2.396967 20.509296 3.75 32 3.75s22.359699-1.353033 32-3.75v-17.0625c0-1.219674-.967827-2.1875-2.1875-2.1875z" fill="url(#E)" filter="url(#G)" transform="matrix(.5963242 0 0 .6040153 12.398043 41.175144)"/></g><path clip-path="url(#F)" d="m18.1875 56c-1.219674 0-2.1875.967827-2.1875 2.1875v17.0625c9.640301 2.396967 20.509296 3.75 32 3.75s22.359699-1.353033 32-3.75v-17.0625c0-1.219674-.967827-2.1875-2.1875-2.1875z" fill="url(#E)" filter="url(#G)" transform="matrix(.5963242 0 0 .6040153 55.429293 19.175144)"/><g stroke-width=".986667" transform="translate(.003388 2.684575)"><path d="m15.994823 34.272579c26.828285-9.983661 57.752527-16.18292 96.001787-11.62382l.002-17.330487-96.001787-.00285z" fill="#e3913a"/><path d="m15.994823 34.272579c26.828285-9.983661 57.752527-16.18292 96.001787-11.62382v7.68c-44.222436-9.463511-65.96935-.09221-96.001787 3.94382z" fill="#cc955b"/></g><path clip-path="url(#M)" d="m114.4 82.502986c0 4.465301-4.99749 5.909952-7.47972 7.593625-5.10854 3.46508-16.839114 2.32536-22.620284 2.40638-.081 5.781159 1.06586 17.204599-2.39922 22.313139-1.68367 2.48224-4.79051 8.68687-7.70078 8.68687-2.091359 1.5337 3.488204 8.21101 6.734971 5.31989 9.501888-8.46107 35.131683-30.022704 43.350823-39.262889 2.04044-2.29392-4.90514-9.844666-9.88579-7.057015z" filter="url(#N)" opacity=".34728" transform="translate(0 .000003)"/><path clip-path="url(#M)" d="m113.9 82.502986c0 4.465301-5.09749 6.009952-7.57972 7.693625-5.10854 3.46508-16.139114 2.12536-21.920284 2.20638-.081 5.781159 1.66586 17.304599-1.79922 22.413139-1.68367 2.48224-4.69051 7.98687-7.60078 7.98687-2.091359 1.5337 3.488204 11.21101 6.734971 8.31989 9.501888-8.46107 45.998943-30.20138 54.218083-39.441569 2.04044-2.29392-17.0724-11.965986-22.05305-9.178335z" filter="url(#O)" opacity=".40099" transform="translate(0 .000003)"/><path d="m112 82.502991c0 4.4653-2.79749 6.40995-5.27972 8.09362-5.10854 3.46508-14.939114 3.32536-20.720284 3.40638-.081 5.78116.16586 15.504599-3.29922 20.613139-1.68367 2.48224-5.29051 5.38687-8.20078 5.38687 2.31803 0 4.74284-1.33476 7.58402-4.08481 9.14197-8.84873 17.36714-16.135349 25.673154-25.297529 1.91895-2.11674 4.24283-3.64188 4.24283-8.11767z" fill="url(#P)"/><path d="m112.01875 82.912501c-.31643 3.89911-3.82291 5.502806-6.15 7.08125-3.77484 2.560442-16.03758 2.02523-21.81875 2.10625-.413621 5.892034 1.100005 17.667319-2.2125 22.724999-1.437921 2.19548-3.499456 4.3601-6.1625 4.95 1.980459-.3623 3.984931-1.86139 6.36875-4.16875.339117-.38853.574297-.67895 1.10625-1.5 3.46508-5.10854 2.823687-14.265709 2.904687-20.046869 5.78117-.081 15.318023.31195 20.426563-3.15313.46542-.31569 1.89399-.98774 2.30625-1.4 1.53629-1.53629 3.00171-3.21342 3.23125-6.59375zm-36.34375 36.862499c-.157658.0349-.313437.0414-.46875.0625.156991-.0169.310443-.0335.46875-.0625z" fill="#fff"/><path clip-path="url(#R)" d="m117.31456 81.861283-44.675455 43.487067" fill="none" filter="url(#S)" stroke="url(#Q)" stroke-width="1.2" transform="translate(0 .000003)"/><g stroke-width=".1"><circle cx="10" cy="14" fill="url(#T)" r="2" transform="matrix(.90538134 0 0 .90538134 13.046245 21.480817)"/><circle cx="10" cy="14" fill="url(#U)" r="1.556" transform="matrix(1.0399985 0 0 1.0399985 11.70007 19.596175)"/><circle cx="10" cy="14" fill="url(#T)" r="2" transform="matrix(.90538134 0 0 .90538134 13.046245 31.49992)"/><circle cx="10" cy="14" fill="url(#U)" r="1.556" transform="matrix(1.0399985 0 0 1.0399985 11.70007 29.615278)"/><circle cx="10" cy="14" fill="url(#T)" r="2" transform="matrix(.90538134 0 0 .90538134 13.046245 41.519024)"/><circle cx="10" cy="14" fill="url(#U)" r="1.556" transform="matrix(1.0399985 0 0 1.0399985 11.70007 39.634382)"/><circle cx="10" cy="14" fill="url(#T)" r="2" transform="matrix(.90538134 0 0 .90538134 13.046245 51.538129)"/><circle cx="10" cy="14" fill="url(#U)" r="1.556" transform="matrix(1.0399985 0 0 1.0399985 11.70007 49.653486)"/><circle cx="10" cy="14" fill="url(#T)" r="2" transform="matrix(.90538134 0 0 .90538134 13.046245 61.557234)"/><circle cx="10" cy="14" fill="url(#U)" r="1.556" transform="matrix(1.0399985 0 0 1.0399985 11.70007 59.672591)"/><circle cx="10" cy="14" fill="url(#T)" r="2" transform="matrix(.90538134 0 0 .90538134 13.046245 71.576337)"/><circle cx="10" cy="14" fill="url(#U)" r="1.556" transform="matrix(1.0399985 0 0 1.0399985 11.70007 69.691694)"/><circle cx="10" cy="14" fill="url(#T)" r="2" transform="matrix(.90538134 0 0 .90538134 13.046245 81.595441)"/><circle cx="10" cy="14" fill="url(#U)" r="1.556" transform="matrix(1.0399985 0 0 1.0399985 11.70007 79.710799)"/><circle cx="10" cy="14" fill="url(#T)" r="2" transform="matrix(.90538134 0 0 .90538134 13.046245 91.614543)"/><circle cx="10" cy="14" fill="url(#U)" r="1.556" transform="matrix(1.0399985 0 0 1.0399985 11.70007 89.729901)"/><circle cx="10" cy="14" fill="url(#T)" r="2" transform="matrix(.90538134 0 0 .90538134 13.046245 101.633647)"/><circle cx="10" cy="14" fill="url(#U)" r="1.556" transform="matrix(1.0399985 0 0 1.0399985 11.70007 99.749005)"/><circle cx="10" cy="14" fill="url(#T)" r="2" transform="matrix(.90538134 0 0 .90538134 13.046245 11.461714)"/><circle cx="10" cy="14" fill="url(#U)" r="1.556" transform="matrix(1.0399985 0 0 1.0399985 11.70007 9.577072)"/><circle cx="10" cy="14" fill="url(#T)" r="2" transform="matrix(.90538134 0 0 .90538134 13.046245 1.442615)"/><circle cx="10" cy="14" fill="url(#U)" r="1.556" transform="matrix(1.0399985 0 0 1.0399985 11.70007 -.442027)"/></g></g><g enable-background="new" transform="matrix(.5625 0 0 .5625 46.5625 -469.26622)"><path d="m72 1048.3622h55v2h-55z" filter="url(#a)" opacity=".291429"/><rect fill="#141921" fill-opacity=".747176" filter="url(#b)" height="30.999998" opacity=".348571" rx="1.23223" width="54" x="71" y="1004.3622"/><path d="m92.623386 969.41388v-1.91429z" fill="#fff" fill-opacity=".756881"/><g transform="matrix(.70574489 0 0 .72992417 119.36224 950.76419)"><path d="m-27.999301 26.224605c-17.154324 0-31.05854 13.592564-31.05854 30.359545v22.18976h11.413958c0-7.729017 0-22.357459 0-22.357459 0-10.42705 8.812377-18.909973 19.643096-18.909973 10.832204 0 19.6431052 8.482923 19.6431052 18.909973v22.357459h11.413958v-22.18976c.001477-16.766981-13.9027392-30.359545-31.0555772-30.359545z" fill="url(#c)"/><g transform="matrix(1.484067 0 0 1.484067 -175.6209 -40.36842)"><path d="m78.543 65.329v14.952h1.195s0-3.654 0-14.952 8.834-20.457 19.732-20.457c-11.558 0-20.927 9.159-20.927 20.457z" fill="url(#d)"/><path d="m99.471 44.872c10.898 0 19.732 9.159 19.732 20.457v14.952h1.195v-14.952c0-11.298-9.369-20.457-20.927-20.457z" fill="url(#f)"/></g><path d="m-26.399479 31.214036c-15.691033 0-25.997874 9.027576-25.997874 24.798749v22.761125h3.980263c0-5.860578 0-22.933277 0-22.933277 0-12.092172 9.877947-21.930048 22.017611-21.930048 12.136701 0 22.0131622 9.837876 22.0131622 21.930048v22.933277h2.749972c0-5.838316 0-22.761125 0-22.761125-.00149-15.771173-9.0735872-24.798749-24.7631342-24.798749z" fill="url(#g)"/><path d="m-28.042334 33.278372c-14.699678 0-24.355019 8.637267-24.355019 23.724285v21.772738h3.729456c0-5.606804 0-21.937469 0-21.937469 0-11.566813 9.253161-20.980246 20.625563-20.980246 11.373878 0 20.6255532 9.411949 20.6255532 20.980246v21.937469h2.576334c0-5.584542 0-21.772738 0-21.772738.00149-15.088503-8.4992462-23.724285-23.2018872-23.724285z" fill="url(#h)"/><path d="m-27.999301 28.099178c-15.346729 0-27.787654 13.05365-27.787654 28.054593v22.620139h1.236226c0-3.805146 0-10.692697 0-20.149168 0-14.997974 11.204699-27.159898 26.551428-27.159898 16.645861 0 26.5514282 10.533872 26.5514282 27.159898v20.149168h1.23474897v-23.433025c0-15.654598-11.95165117-27.241707-27.78617717-27.241707z" fill="url(#i)" filter="url(#j)"/></g><g transform="matrix(.6875 0 0 .68750002 55.5 966.86218)"><path d="m-104 56h80v64h-80z" fill="url(#k)" transform="scale(-1 1)"/><g fill-rule="evenodd" transform="translate(-2.58563)"><path d="m63.010092 91.457052h42.545168l-20.958617-.270141z" opacity=".03"/><path d="m103.94356 91.462975v.01681l-19.348502.218521-21.586067-.235327h40.934569z" fill="#fff" opacity=".03"/><path d="m60.094024 89.182536h42.545216l-20.958621-.270141z" opacity=".03"/><path d="m60.094024 89.188911h42.545216l-20.958621.23481z" fill="#fff" opacity=".03"/><path d="m86.670607 91.247803 17.272973.248763v.144536h-45.289z" opacity=".03"/><path d="m103.94358 91.651211v.124381l-17.272973.21513-28.016027-.339511z" fill="#fff" opacity=".03"/><path d="m60.094024 89.182536h42.545216l-20.958621-.270141z" opacity=".03"/><path d="m60.094024 89.188911h42.545216l-20.958621.23481z" fill="#fff" opacity=".03"/><path d="m86.670607 91.247803 17.272973.248763v.144536h-45.289z" opacity=".03"/><path d="m103.94358 91.651211v.124381l-17.272973.21513-28.016027-.339511z" fill="#fff" opacity=".03"/><path d="m91.98348 86.447347 11.9601.154645v.117642h-33.546121z" opacity=".03"/><path d="m103.94358 86.726374v.100814l-11.9601.131143-21.586021-.231957z" fill="#fff" opacity=".03"/><path d="m89.066709 84.174828 14.876851.191605v.07735h-36.462919l21.586068-.26896z" opacity=".03"/><path d="m103.94356 84.450484v.06722l-14.876851.168102-21.586068-.235326h36.462919z" fill="#fff" opacity=".03"/><path d="m89.066709 84.174828 14.876851.191605v.07735h-36.462919l21.586068-.26896z" opacity=".03"/><path d="m103.94356 84.450484v.06722l-14.876851.168102-21.586068-.235326h36.462919z" fill="#fff" opacity=".03"/><path d="m98.406221 92.245344h-54.336492l26.767237-.270119z" opacity=".03"/><path d="m98.406221 92.25174h-54.336492l26.767237.234812z" fill="#fff" opacity=".03"/><path d="m99.24496 94.703459h-70.52352l34.741305-.39347z" opacity=".03"/><path d="m99.24496 94.712774h-70.52352l34.741305.342044z" fill="#fff" opacity=".03"/><path d="m95.490176 89.970721h-54.336469l26.767236-.270141z" opacity=".03"/><path d="m95.490176 89.977117h-54.336469l26.767236.234811z" fill="#fff" opacity=".03"/><path d="m60.546634 92.034422 35.783688.393341h-65.571816v-.05716l29.788128-.336183z" opacity=".03"/><path d="m96.330322 92.437829-35.783688.342903-29.788128-.292485v-.05042h65.571816z" fill="#fff" opacity=".03"/><path d="m95.490176 89.970721h-54.336469l26.767236-.270141z" opacity=".03"/><path d="m95.490176 89.977117h-54.336469l26.767236.234811z" fill="#fff" opacity=".03"/><path d="m60.546634 92.034422 35.783688.393341h-65.571816v-.05716l29.788128-.336183z" opacity=".03"/><path d="m96.330322 92.437829-35.783688.342903-29.788128-.292485v-.05042h65.571816z" fill="#fff" opacity=".03"/><path d="m105.79344 87.506617h-54.336498l26.767237-.270141z" opacity=".03"/><path d="m103.94699 87.512992v.01683l-25.723273.21852-26.767941-.235348h52.491214z" fill="#fff" opacity=".03"/><path d="m106.58563 89.964711h-69.47635l34.225445-.393448z" opacity=".03"/><path d="m103.9436 89.973726v.037l-32.094635.305899-34.739046-.342902h66.833681z" fill="#fff" opacity=".03"/><path d="m102.87742 85.231994h-54.33648l26.767238-.27014z" opacity=".03"/><path d="m102.87742 85.238412h-54.33648l26.767238.234811z" fill="#fff" opacity=".03"/><path d="m45.859357 86.127969 35.783668.393321h-50.884588v-.221848z" opacity=".03"/><path d="m81.643025 86.531377-35.783668.342902-15.10092-.147905v-.194997z" fill="#fff" opacity=".03"/><path d="m104.71674 87.690109h-70.52353l34.741294-.393448z" opacity=".03"/><path d="m104.71674 87.699468h-70.52353l34.741294.342021z" fill="#fff" opacity=".03"/><path d="m102.87742 85.231994h-54.33648l26.767238-.27014z" opacity=".03"/><path d="m102.87742 85.238412h-54.33648l26.767238.234811z" fill="#fff" opacity=".03"/><path d="m45.859357 86.127969 35.783668.393321h-50.884588v-.221848z" opacity=".03"/><path d="m81.643025 86.531377-35.783668.342902-15.10092-.147905v-.194997z" fill="#fff" opacity=".03"/><path d="m104.71674 87.690109h-70.52353l34.741294-.393448z" opacity=".03"/><path d="m103.94699 87.697879v.0067l-35.011385.336162-34.742473-.342902h69.753858z" fill="#fff" opacity=".03"/><path d="m57.236708 100.30314h42.545185l-20.958611-.27013z" opacity=".03"/><path d="m57.236708 100.30953h42.545185l-20.958611.23481z" fill="#fff" opacity=".03"/><path d="m83.812478 102.36818 20.131122.29249v.10083h-48.14715z" opacity=".03"/><path d="m103.9436 102.7716v.0874l-20.131122.25214-28.016028-.33953h48.14715z" fill="#fff" opacity=".03"/><path d="m54.320662 98.028595h42.545208l-20.958633-.27014z" opacity=".03"/><path d="m54.320662 98.034992h42.545208l-20.958633.234811z" fill="#fff" opacity=".03"/><path d="m80.899161 100.09234 23.044419.33277v.0605h-51.063901l28.019482-.3933z" opacity=".03"/><path d="m103.94358 100.49573v.0538l-23.044419.2891-28.019482-.34288h51.063901z" fill="#fff" opacity=".03"/><path d="m54.320662 98.028595h42.545208l-20.958633-.27014z" opacity=".03"/><path d="m54.320662 98.034992h42.545208l-20.958633.234811z" fill="#fff" opacity=".03"/><path d="m80.899161 100.09234 23.044419.33277v.0605h-51.063901l28.019482-.3933z" opacity=".03"/><path d="m103.94358 100.49573v.0538l-23.044419.2891-28.019482-.34288h51.063901z" fill="#fff" opacity=".03"/><path d="m86.212035 95.295231 17.731525.228587v.04033h-39.321026z" opacity=".03"/><path d="m103.94356 95.570888v.03696l-17.731525.198345-21.589501-.235305z" fill="#fff" opacity=".03"/><path d="m61.707898 93.289783h42.545182l-20.958609-.27014z" opacity=".03"/><path d="m61.707898 93.296179h42.545182l-20.958609.234811z" fill="#fff" opacity=".03"/><path d="m88.284151 95.355758 15.659449.225218v.168081h-43.675498z" opacity=".03"/><path d="m103.9436 95.755797v.144535l-15.659449.198345-28.016049-.34288z" fill="#fff" opacity=".03"/><path d="m61.707898 93.289783h42.545182l-20.958609-.27014z" opacity=".03"/><path d="m61.707898 93.296179h42.545182l-20.958609.234811z" fill="#fff" opacity=".03"/><path d="m88.284151 95.355758 15.659449.225218v.168081h-43.675498z" opacity=".03"/><path d="m103.9436 95.755797v.144535l-15.659449.198345-28.016049-.34288z" fill="#fff" opacity=".03"/><path d="m92.632839 101.09142h-54.33647l26.767238-.27013z" opacity=".03"/><path d="m92.632839 101.09783h-54.33647l26.767238.23481z" fill="#fff" opacity=".03"/><path d="m57.688461 103.15487 35.783688.39332h-62.713692v-.0874l26.930004-.3059z" opacity=".03"/><path d="m93.472149 103.55825-35.783688.34291-26.930004-.26559v-.0773h62.713692z" fill="#fff" opacity=".02"/><path d="m89.716793 98.816888h-54.336465l26.767233-.270141z" opacity=".03"/><path d="m89.716793 98.823305h-54.336465l26.767233.234812z" fill="#fff" opacity=".03"/><path d="m54.775187 100.88237 35.780278.39332h-59.796939v-.12105z" opacity=".03"/><path d="m90.555465 101.28575-35.780278.33954-24.016661-.23533v-.10421z" fill="#fff" opacity=".03"/><path d="m89.716793 98.816888h-54.336465l26.767233-.270141z" opacity=".03"/><path d="m89.716793 98.823305h-54.336465l26.767233.234812z" fill="#fff" opacity=".03"/><path d="m54.775187 100.88237 35.780278.39332h-59.796939v-.12105z" opacity=".03"/><path d="m90.555465 101.28575-35.780278.33954-24.016661-.23533v-.10421z" fill="#fff" opacity=".03"/><path d="m100.01996 96.352698h-54.336466l26.767214-.27014z" opacity=".03"/><path d="m100.01996 96.359116h-54.336466l26.767214.234811z" fill="#fff" opacity=".03"/><path d="m100.85881 98.810856h-70.523545l34.741332-.393448z" opacity=".03"/><path d="m100.85881 98.820193h-70.523545l34.741332.342023z" fill="#fff" opacity=".03"/><path d="m97.104028 94.078076h-54.33647l26.767237-.270141z" opacity=".03"/><path d="m97.104028 94.084471h-54.33647l26.767237.234812z" fill="#fff" opacity=".03"/><path d="m62.160112 96.14242 35.783689.393299h-67.185344v-.03698l31.401655-.356317z" opacity=".03"/><path d="m97.943801 96.545807-35.783689.34288-31.401655-.309247v-.03363h67.185344z" fill="#fff" opacity=".03"/><path d="m97.104028 94.078076h-54.33647l26.767237-.270141z" opacity=".03"/><path d="m97.104028 94.084471h-54.33647l26.767237.234812z" fill="#fff" opacity=".03"/><path d="m97.942897 96.536212h-66.636555l32.826498-.393448z" opacity=".03"/><path d="m97.942897 96.545549h-66.636555l32.826498.342021z" fill="#fff" opacity=".03"/><path d="m61.08566 105.93243h42.54518l-20.958607-.27013z" opacity=".02"/><path d="m61.08566 105.93884h42.54518l-20.958607.23481z" fill="#fff" opacity=".02"/><path d="m87.663565 107.99568 16.280035.2353v.15801h-44.299519z" opacity=".02"/><path d="m103.9436 108.39908v.13782l-16.280035.20506-28.019484-.34288z" fill="#fff" opacity=".02"/><path d="m58.169615 103.65791h42.545185l-20.95859-.27012z" opacity=".02"/><path d="m58.169615 103.6643h42.545185l-20.95859.23482z" fill="#fff" opacity=".02"/><path d="m84.746793 105.72318 19.196787.27901v.11431h-47.212816z" opacity=".02"/><path d="m103.94358 106.12656v.10086l-19.196787.23867-28.016029-.33953z" fill="#fff" opacity=".02"/><path d="m58.169615 103.65791h42.545185l-20.95859-.27012z" opacity=".02"/><path d="m58.169615 103.6643h42.545185l-20.95859.23482z" fill="#fff" opacity=".02"/><path d="m84.746793 105.72318 19.196787.27901v.11431h-47.212816z" opacity=".02"/><path d="m103.94358 106.12656v.10086l-19.196787.23867-28.016029-.33953z" fill="#fff" opacity=".02"/><path d="m90.059643 100.92266 13.883917.18153v.0907h-35.46994l21.586023-.27228z" opacity=".03"/><path d="m103.94356 101.20168v.0773l-13.883917.15463-21.586023-.23194h35.46994z" fill="#fff" opacity=".03"/><path d="m87.142871 98.650223 16.800669.21513v.05379h-38.386713l21.586044-.268918z" opacity=".03"/><path d="m103.94354 98.925858v.04707l-16.800669.188257-21.586044-.235327z" fill="#fff" opacity=".03"/><path d="m87.142871 98.650223 16.800669.21513v.05379h-38.386713l21.586044-.268918z" opacity=".03"/><path d="m103.94354 98.925858v.04707l-16.800669.188257-21.586044-.235327z" fill="#fff" opacity=".03"/><path d="m96.48168 106.72074h-54.336448l26.767216-.27014z" opacity=".02"/><path d="m96.48168 106.72714h-54.336448l26.767216.23481z" fill="#fff" opacity=".02"/><path d="m61.539458 108.78562 35.780234.39333h-66.561323v-.0437l30.781089-.3496z" opacity=".02"/><path d="m97.319692 109.189-35.780234.34291-30.781089-.30255v-.0404h66.561323z" fill="#fff" opacity=".02"/><path d="m93.565766 104.44612h-54.336471l26.767239-.27014z" opacity=".02"/><path d="m93.565766 104.4525h-54.336471l26.767239.23483z" fill="#fff" opacity=".02"/><path d="m58.622752 106.50974 35.780278.39331h-63.644573v-.0773l27.864295-.316z" opacity=".02"/><path d="m94.40303 106.91314-35.780278.34288-27.864295-.27566v-.0672h63.644573z" fill="#fff" opacity=".02"/><path d="m93.565766 104.44612h-54.336471l26.767239-.27014z" opacity=".02"/><path d="m93.565766 104.4525h-54.336471l26.767239.23483z" fill="#fff" opacity=".02"/><path d="m58.622752 106.50974 35.780278.39331h-63.644573v-.0773l27.864295-.316z" opacity=".02"/><path d="m94.40303 106.91314-35.780278.34288-27.864295-.27566v-.0672h63.644573z" fill="#fff" opacity=".02"/><path d="m103.86896 101.98203h-54.336471l26.767236-.27013z" opacity=".03"/><path d="m103.86896 101.98841h-54.336471l26.767236.23481z" fill="#fff" opacity=".03"/><path d="m46.852293 102.87921 35.783688.39332h-51.877544v-.21178z" opacity=".03"/><path d="m82.635981 103.28262-35.783688.3429-16.093856-.15801v-.18489z" fill="#fff" opacity=".03"/><path d="m105.70838 104.44017h-70.523554l34.741314-.39347z" opacity=".02"/><path d="m105.70838 104.44951h-70.523554l34.741314.34202z" fill="#fff" opacity=".02"/><path d="m100.95298 99.70739h-54.33647l26.767236-.270141z" opacity=".03"/><path d="m100.95298 99.713787h-54.33647l26.767236.23481z" fill="#fff" opacity=".03"/><path d="m101.79174 102.16553h-70.523528l34.741291-.39346z" opacity=".03"/><path d="m101.79174 102.17487h-70.523528l34.741291.34201z" fill="#fff" opacity=".03"/><path d="m100.95298 99.70739h-54.33647l26.767236-.270141z" opacity=".03"/><path d="m100.95298 99.713787h-54.33647l26.767236.23481z" fill="#fff" opacity=".03"/><path d="m101.79174 102.16553h-70.523528l34.741291-.39346z" opacity=".03"/><path d="m101.79174 102.17487h-70.523528l34.741291.34201z" fill="#fff" opacity=".03"/><path d="m55.312256 114.77853h42.545207l-20.958612-.27015z" opacity=".01"/><path d="m55.312256 114.78492h42.545207l-20.958612.23481z" fill="#fff" opacity=".01"/><path d="m53.871841 117.23668h48.140219l-20.122892-.39346z" opacity=".01"/><path d="m53.871841 117.246 47.877339.21972-19.860012.12231z" fill="#fff" opacity=".01"/><path d="m52.396232 112.50399h42.545184l-20.95861-.27014z" opacity=".01"/><path d="m52.396232 112.51039h42.545184l-20.95861.23481z" fill="#fff" opacity=".01"/><path d="m50.955798 114.96204h55.219602l-27.202276-.39347z" opacity=".01"/><path d="m50.955798 114.97136 52.534322.0549-27.202281.34202-25.332041-.39697z" fill="#fff" opacity=".01"/><path d="m52.396232 112.50399h42.545184l-20.95861-.27014z" opacity=".01"/><path d="m52.396232 112.51039h42.545184l-20.95861.23481z" fill="#fff" opacity=".01"/><path d="m50.955798 114.96204 52.496792.18311-24.479466-.57658z" opacity=".01"/><path d="m103.94358 114.97108v.0269l-24.971711.31601-28.016006-.34288h52.987717z" fill="#fff" opacity=".01"/><path d="m62.699512 110.0398h42.545188l-20.958615-.27011z" opacity=".02"/><path d="m62.699512 110.0462h42.545188l-20.958615.23481z" fill="#fff" opacity=".02"/><path d="m59.783467 107.76527h42.545213l-20.958618-.27014z" opacity=".02"/><path d="m59.783467 107.77168h42.545213l-20.958618.23481z" fill="#fff" opacity=".02"/><path d="m86.360314 109.83109 17.583286.25548v.13782h-45.599313z" opacity=".02"/><path d="m103.9436 110.23112v.12105l-17.583286.22184-28.016027-.34289z" fill="#fff" opacity=".02"/><path d="m59.783467 107.76527h42.545213l-20.958618-.27014z" opacity=".02"/><path d="m59.783467 107.77168h42.545213l-20.958618.23481z" fill="#fff" opacity=".02"/><path d="m86.360314 109.83109 17.583286.25548v.13782h-45.599313z" opacity=".02"/><path d="m103.9436 110.23112v.12105l-17.583286.22184-28.016027-.34289z" fill="#fff" opacity=".02"/><path d="m90.70832 115.56682h-54.336493l26.767237-.27014z" opacity=".01"/><path d="m90.70832 115.57322h-54.336493l26.767237.23481z" fill="#fff" opacity=".01"/><path d="m87.792252 113.29228h-54.336477l26.767244-.27013z" opacity=".01"/><path d="m87.792252 113.2987h-54.336477l26.767244.23481z" fill="#fff" opacity=".01"/><path d="m87.792252 113.29228h-54.336477l26.767244-.27013z" opacity=".01"/><path d="m87.792252 113.2987h-54.336477l26.767244.23481z" fill="#fff" opacity=".01"/><path d="m98.095553 110.82809h-54.336469l26.767216-.27014z" opacity=".02"/><path d="m98.095553 110.83451h-54.336469l26.767216.23482z" fill="#fff" opacity=".02"/><path d="m98.93438 113.28625h-70.52354l34.741305-.39345z" opacity=".01"/><path d="m98.93438 113.29559h-70.52354l34.741305.34202z" fill="#fff" opacity=".01"/><path d="m95.179487 108.55347h-54.336469l26.767236-.27014z" opacity=".02"/><path d="m95.179487 108.55989h-54.336469l26.767236.23481z" fill="#fff" opacity=".02"/><path d="m60.236252 110.61775 35.783689.39332h-65.261553v-.0605l29.477864-.3328z" opacity=".02"/><path d="m96.019941 111.02113-35.783689.34291-29.477864-.29246v-.0504h65.261553z" fill="#fff" opacity=".01"/><path d="m95.179487 108.55347h-54.336469l26.767236-.27014z" opacity=".02"/><path d="m95.179487 108.55989h-54.336469l26.767236.23481z" fill="#fff" opacity=".02"/><path d="m96.018445 111.01161h-65.223076l32.130196-.39345z" opacity=".02"/><path d="m96.018445 111.02095h-65.223076l32.130196.34202z" fill="#fff" opacity=".01"/><path d="m101.44444 78.887685h-70.523543l34.741287-.393427z" opacity=".040984"/><path d="m101.44444 78.897043h-70.523543l34.741287.342022z" fill="#fff" opacity=".040984"/><path d="m59.436168 84.487337h42.545182l-20.958607-.270141z" opacity=".03"/><path d="m59.436168 84.493733h42.545182l-20.958607.234811z" fill="#fff" opacity=".03"/><path d="m86.012027 86.551553 17.931463.258851v.134468h-45.947469z" opacity=".03"/><path d="m103.94349 86.95496v.117664l-17.931463.225217-28.016006-.342881z" fill="#fff" opacity=".03"/><path d="m56.520123 82.212799h42.545207l-20.958612-.27014z" opacity=".03"/><path d="m56.520123 82.219217h42.545207l-20.958612.234811z" fill="#fff" opacity=".03"/><path d="m83.095342 84.275706 20.848258.30255v.09414h-48.864263z" opacity=".03"/><path d="m103.9436 84.679092v.0807l-20.848258.262198-28.016005-.342902h48.864263z" fill="#fff" opacity=".03"/><path d="m56.520123 82.212799h42.545207l-20.958612-.27014z" opacity=".03"/><path d="m56.520123 82.219217h42.545207l-20.958612.234811z" fill="#fff" opacity=".03"/><path d="m83.095342 84.275706 20.848258.30255v.09414h-48.864263z" opacity=".03"/><path d="m103.9436 84.679092v.0807l-20.848258.262198-28.016005-.342902h48.864263z" fill="#fff" opacity=".03"/><path d="m88.411694 79.478642 15.531886.198322v.07062h-37.121388l21.589502-.268938z" opacity=".03"/><path d="m103.94358 79.754277v.06053l-15.531886.174799-21.589502-.235326h37.121388z" fill="#fff" opacity=".03"/><path d="m90.483765 79.539125 13.459835.194997v.198323h-41.47584z" opacity=".03"/><path d="m103.9436 79.942491v.171472l-13.459835.168081-28.016005-.339553z" fill="#fff" opacity=".03"/><path d="m90.483765 79.539125 13.459835.194997v.198323h-41.47584z" opacity=".03"/><path d="m103.9436 79.942491v.171472l-13.459835.168081-28.016005-.339553z" fill="#fff" opacity=".03"/><path d="m94.832189 85.275651h-54.336469l26.767236-.27014z" opacity=".03"/><path d="m94.832189 85.282047h-54.336469l26.767236.234812z" fill="#fff" opacity=".03"/><path d="m59.888119 87.341562 35.783666.39332h-64.913299v-.0639l29.129633-.329423z" opacity=".03"/><path d="m95.671785 87.741579-35.783666.342902-29.129633-.289114v-.05379h64.913299z" fill="#fff" opacity=".03"/><path d="m91.916144 83.001114h-54.33647l26.767239-.270141z" opacity=".040984"/><path d="m91.916144 83.00751h-54.33647l26.767239.234811z" fill="#fff" opacity=".040984"/><path d="m56.971259 85.065694 35.783712.39332h-61.996583v-.09749l26.212871-.295832z" opacity=".03"/><path d="m92.754971 85.469102-35.783712.34288-26.212871-.258829v-.08405z" fill="#fff" opacity=".03"/><path d="m91.916144 83.001114h-54.33647l26.767239-.270141z" opacity=".040984"/><path d="m91.916144 83.00751h-54.33647l26.767239.234811z" fill="#fff" opacity=".040984"/><path d="m102.2194 80.536924h-54.336468l26.767237-.270141z" opacity=".03"/><path d="m102.2194 80.54332h-54.336468l26.767237.234811z" fill="#fff" opacity=".03"/><path d="m104.05888 82.995082h-70.523554l34.741325-.39347z" opacity=".040984"/><path d="m104.05888 83.004397h-70.523554l34.741325.342044z" fill="#fff" opacity=".040984"/><path d="m100.14225 80.720438h-70.523528l34.741291-.39347z" opacity=".040984"/><path d="m100.14225 80.729753h-70.523528l34.741291.342043z" fill="#fff" opacity=".040984"/><path d="m100.14225 80.720438h-68.403365l33.696874-.39347z" opacity=".040984"/><path d="m100.14225 80.729753h-68.403365l33.696874.342043z" fill="#fff" opacity=".040984"/><g opacity=".03" transform="matrix(-.05296143 0 0 .07001725 -49.22982 67.15712)"><path d="m-1975.2125 351.23894h492.5064l-242.6185-3.85802z" opacity=".377049"/><path d="m-1018.5 1265.25v.1562l175.375 2.0313 195.65625-2.1875z" fill="#fff" opacity=".377049" transform="matrix(-1.277147 0 0 1.536384 -2802.138 -1592.586)"/></g><g opacity=".03" transform="matrix(-.05296143 0 0 .07001725 -47.44217 64.88262)"><path d="m-1975.2125 351.23894h492.5064l-242.6185-3.85802z" opacity=".377049"/><path d="m-1975.2125 351.33039h492.5064l-242.6185 3.35361z" fill="#fff" opacity=".377049"/></g><g opacity=".03" transform="matrix(.06763951 0 0 .10757364 99.175066 -44.351595)"><path d="m-861.9375 1263.25-156.5625 2.3125v1.3437h410.5z" opacity=".377049"/><path d="m-1018.5 1267v1.1562l156.5625 2 253.9375-3.1562z" fill="#fff" opacity=".377049"/></g><g opacity=".03" transform="matrix(-.05296143 0 0 .07001725 -47.44217 64.88262)"><path d="m-1975.2125 351.23894h492.5064l-242.6185-3.85802z" opacity=".377049"/><path d="m-1975.2125 351.33039h492.5064l-242.6185 3.35361z" fill="#fff" opacity=".377049"/></g><g opacity=".03" transform="matrix(.06763951 0 0 .10757364 99.175066 -44.351595)"><path d="m-861.9375 1263.25-156.5625 2.3125v1.3437h410.5z" opacity=".377049"/><path d="m-1018.5 1267v1.1562l156.5625 2 253.9375-3.1562z" fill="#fff" opacity=".377049"/></g><g opacity=".03" transform="matrix(.06763953 0 0 .10757338 99.175182 -44.351405)"><path d="m-910.09375 1218.625-108.40625 1.4375v1.0937h304.0625z" opacity=".377049"/><path d="m-1018.5 1221.2188v.9374l108.40625 1.2188 195.65625-2.1562z" fill="#fff" opacity=".377049"/></g><g opacity=".040984" transform="matrix(.06763953 0 0 .10757338 99.175256 -44.351314)"><path d="m-883.65625 1197.5-134.84375 1.7812v.7188h330.5z" opacity=".377049"/><path d="m-1018.5 1200.0625v.625l134.84375 1.5625 195.65625-2.1875z" fill="#fff" opacity=".377049"/></g><g opacity=".040984" transform="matrix(.06763953 0 0 .10757338 99.175256 -44.351314)"><path d="m-883.65625 1197.5-134.84375 1.7812v.7188h330.5z" opacity=".377049"/><path d="m-1018.5 1200.0625v.625l134.84375 1.5625 195.65625-2.1875z" fill="#fff" opacity=".377049"/></g><g opacity=".03" transform="matrix(.06763961 0 0 .07001725 168.2823 67.94547)"><path d="m-1975.2125 351.23894h492.5064l-242.6185-3.85802z" opacity=".377049"/><path d="m-1975.2125 351.33039h492.5064l-242.6185 3.35361z" fill="#fff" opacity=".377049"/></g><g opacity=".03" transform="matrix(.08778972 0 0 .101987 206.9554 59.17459)"><path d="m-1975.2125 351.23894h492.5064l-242.6185-3.85802z" opacity=".377049"/><path d="m-1975.2125 351.33039h492.5064l-242.6185 3.35361z" fill="#fff" opacity=".377049"/></g><g opacity=".03" transform="matrix(.06763961 0 0 .07001725 170.0703 65.67076)"><path d="m-1975.2125 351.23894h492.5064l-242.6185-3.85802z" opacity=".377049"/><path d="m-1975.2125 351.33039h492.5064l-242.6185 3.35361z" fill="#fff" opacity=".377049"/></g><g opacity=".03" transform="matrix(.06763961 0 0 .10757364 100.17585 -44.351523)"><path d="m-634.21875 1270.5625-324.34375 3.6563h594.34375v-.5313z" opacity=".377049"/><path d="m-958.5625 1274.3125 324.34375 3.1875 270-2.7188v-.4687z" fill="#fff" opacity=".377049"/></g><g opacity=".03" transform="matrix(.06763961 0 0 .07001725 170.0703 65.67076)"><path d="m-1975.2125 351.23894h492.5064l-242.6185-3.85802z" opacity=".377049"/><path d="m-1975.2125 351.33039h492.5064l-242.6185 3.35361z" fill="#fff" opacity=".377049"/></g><g opacity=".03" transform="matrix(.06763961 0 0 .10757364 100.17585 -44.351523)"><path d="m-634.21875 1270.5625-324.34375 3.6563h594.34375v-.5313z" opacity=".377049"/><path d="m-958.5625 1274.3125 324.34375 3.1875 270-2.7188v-.4687z" fill="#fff" opacity=".377049"/></g><g opacity=".03" transform="matrix(.06763961 0 0 .07001725 162.7529 63.20674)"><path d="m-1975.2125 351.23894h492.5064l-242.6185-3.85802z" opacity=".377049"/><path d="m-1018.5312 1228.5312v.1563l233.1562 2.0313 242.625-2.1876z" fill="#fff" opacity=".377049" transform="matrix(1 0 0 1.536384 -939.9452 -1536.165)"/></g><g opacity=".03" transform="matrix(.08778972 0 0 .101987 201.4257 54.43587)"><path d="m-1975.2125 351.23894h492.5064l-242.6185-3.85802z" opacity=".377049"/><path d="m-1018.5 1251.4062v.3438l290.90625 2.8438 314.875-3.1876z" fill="#fff" opacity=".377049" transform="matrix(.770473 0 0 1.054778 -1164.722 -968.6282)"/></g><g opacity=".03" transform="matrix(.06763961 0 0 .07001725 164.5406 60.93203)"><path d="m-1975.2125 351.23894h492.5064l-242.6185-3.85802z" opacity=".377049"/><path d="m-1975.2125 351.33039h492.5064l-242.6185 3.35361z" fill="#fff" opacity=".377049"/></g><g opacity=".03" transform="matrix(.06763961 0 0 .10757364 100.17585 -44.351525)"><path d="m-501.09375 1215.6562-324.34375 3.6563h461.21875v-2.0625z" opacity=".377049"/><path d="m-825.4375 1219.4062 324.34375 3.1876 136.875-1.375v-1.8126z" fill="#fff" opacity=".377049"/></g><g opacity=".03" transform="matrix(.08778972 0 0 .101987 203.2138 52.16138)"><path d="m-1975.2125 351.23894h492.5064l-242.6185-3.85802z" opacity=".377049"/><path d="m-1975.2125 351.33039h492.5064l-242.6185 3.35361z" fill="#fff" opacity=".377049"/></g><g opacity=".03" transform="matrix(.06763961 0 0 .07001725 164.5406 60.93203)"><path d="m-1975.2125 351.23894h492.5064l-242.6185-3.85802z" opacity=".377049"/><path d="m-1975.2125 351.33039h492.5064l-242.6185 3.35361z" fill="#fff" opacity=".377049"/></g><g opacity=".03" transform="matrix(.06763961 0 0 .10757364 100.17585 -44.351525)"><path d="m-501.09375 1215.6562-324.34375 3.6563h461.21875v-2.0625z" opacity=".377049"/><path d="m-825.4375 1219.4062 324.34375 3.1876 136.875-1.375v-1.8126z" fill="#fff" opacity=".377049"/></g><g opacity=".03" transform="matrix(.08778972 0 0 .101987 203.2138 52.16138)"><path d="m-1975.2125 351.23894h492.5064l-242.6185-3.85802z" opacity=".377049"/><path d="m-1018.5312 1230.25v.063l317.3437 3.125 314.90625-3.1875h-632.24995z" fill="#fff" opacity=".377049" transform="matrix(.770473 0 0 1.054778 -1185.086 -946.3253)"/></g><g opacity=".03" transform="matrix(-.05296143 0 0 .07001725 -44.68948 76.00332)"><path d="m-1975.2125 351.23894h492.5064l-242.6185-3.85802z" opacity=".377049"/><path d="m-1975.2125 351.33039h492.5064l-242.6185 3.35361z" fill="#fff" opacity=".377049"/></g><g opacity=".03" transform="matrix(.06763951 0 0 .10757364 99.174956 -44.351629)"><path d="m-836.03125 1366.625-182.46875 2.7188v.9374h436.40625z" opacity=".377049"/><path d="m-1018.5 1370.375v.8125l182.46875 2.3437 253.9375-3.1562z" fill="#fff" opacity=".377049"/></g><g opacity=".03" transform="matrix(-.05296143 0 0 .07001725 -42.90183 73.72883)"><path d="m-1975.2125 351.23894h492.5064l-242.6185-3.85802z" opacity=".377049"/><path d="m-1975.2125 351.33039h492.5064l-242.6185 3.35361z" fill="#fff" opacity=".377049"/></g><g opacity=".03" transform="matrix(.06763951 0 0 .10757364 99.174946 -44.351503)"><path d="m-809.625 1345.4688-208.875 3.0937v.5625h462.84375z" opacity=".377049"/><path d="m-1018.5 1349.2188v.5l208.875 2.6874 253.96875-3.1874z" fill="#fff" opacity=".377049"/></g><g opacity=".03" transform="matrix(-.05296143 0 0 .07001725 -42.90183 73.72883)"><path d="m-1975.2125 351.23894h492.5064l-242.6185-3.85802z" opacity=".377049"/><path d="m-1975.2125 351.33039h492.5064l-242.6185 3.35361z" fill="#fff" opacity=".377049"/></g><g opacity=".03" transform="matrix(.06763951 0 0 .10757364 99.174946 -44.351503)"><path d="m-809.625 1345.4688-208.875 3.0937v.5625h462.84375z" opacity=".377049"/><path d="m-1018.5 1349.2188v.5l208.875 2.6874 253.96875-3.1874z" fill="#fff" opacity=".377049"/></g><g opacity=".03" transform="matrix(.06763953 0 0 .10757338 99.175251 -44.351314)"><path d="m-857.78125 1300.875-160.71875 2.125v.375h356.40625z" opacity=".377049"/><path d="m-1018.5 1303.4375v.3437l160.71875 1.8438 195.6875-2.1875z" fill="#fff" opacity=".377049"/></g><g opacity=".03" transform="matrix(-.05296143 0 0 .07001725 -48.43156 68.98989)"><path d="m-1975.2125 351.23894h492.5064l-242.6185-3.85802z" opacity=".377049"/><path d="m-1975.2125 351.33039h492.5064l-242.6185 3.35361z" fill="#fff" opacity=".377049"/></g><g opacity=".03" transform="matrix(.06763951 0 0 .10757364 99.175293 -44.351509)"><path d="m-876.5625 1301.4375-141.9375 2.0937v1.5626h395.875z" opacity=".377049"/><path d="m-1018.5 1305.1562v1.3438l141.9375 1.8438 253.9375-3.1876z" fill="#fff" opacity=".377049"/></g><g opacity=".03" transform="matrix(-.05296143 0 0 .07001725 -48.43156 68.98989)"><path d="m-1975.2125 351.23894h492.5064l-242.6185-3.85802z" opacity=".377049"/><path d="m-1975.2125 351.33039h492.5064l-242.6185 3.35361z" fill="#fff" opacity=".377049"/></g><g opacity=".03" transform="matrix(.06763951 0 0 .10757364 99.175293 -44.351509)"><path d="m-876.5625 1301.4375-141.9375 2.0937v1.5626h395.875z" opacity=".377049"/><path d="m-1018.5 1305.1562v1.3438l141.9375 1.8438 253.9375-3.1876z" fill="#fff" opacity=".377049"/></g><g opacity=".03" transform="matrix(.06763961 0 0 .07001725 171.8219 76.79169)"><path d="m-1975.2125 351.23894h492.5064l-242.6185-3.85802z" opacity=".377049"/><path d="m-1975.2125 351.33039h492.5064l-242.6185 3.35361z" fill="#fff" opacity=".377049"/></g><g opacity=".02" transform="matrix(.06763961 0 0 .10757364 100.1759 -44.351526)"><path d="m-608.3125 1373.9375-324.34375 3.6563h568.4375v-.8126z" opacity=".377049"/><path d="m-932.65625 1377.6875 324.34375 3.1875 244.09375-2.4688v-.7187z" fill="#fff" opacity=".377049"/></g><g opacity=".03" transform="matrix(.06763961 0 0 .07001725 173.6097 74.51697)"><path d="m-1975.2125 351.23894h492.5064l-242.6185-3.85802z" opacity=".377049"/><path d="m-1975.2125 351.33039h492.5064l-242.6185 3.35361z" fill="#fff" opacity=".377049"/></g><g opacity=".03" transform="matrix(.06763961 0 0 .10757364 100.17595 -44.35163)"><path d="m-581.90625 1352.8125-324.3125 3.6563h542v-1.125z" opacity=".377049"/><path d="m-906.21875 1356.5625 324.3125 3.1563 217.6875-2.1876v-.9687z" fill="#fff" opacity=".377049"/></g><g opacity=".03" transform="matrix(.06763961 0 0 .07001725 173.6097 74.51697)"><path d="m-1975.2125 351.23894h492.5064l-242.6185-3.85802z" opacity=".377049"/><path d="m-1975.2125 351.33039h492.5064l-242.6185 3.35361z" fill="#fff" opacity=".377049"/></g><g opacity=".03" transform="matrix(.06763961 0 0 .10757364 100.17595 -44.35163)"><path d="m-581.90625 1352.8125-324.3125 3.6563h542v-1.125z" opacity=".377049"/><path d="m-906.21875 1356.5625 324.3125 3.1563 217.6875-2.1876v-.9687z" fill="#fff" opacity=".377049"/></g><g opacity=".03" transform="matrix(.06763961 0 0 .07001725 167.2929 72.05274)"><path d="m-1975.2125 351.23894h492.5064l-242.6185-3.85802z" opacity=".377049"/><path d="m-1975.2125 351.33039h492.5064l-242.6185 3.35361z" fill="#fff" opacity=".377049"/></g><g opacity=".03" transform="matrix(.08778972 0 0 .101987 204.9654 63.28209)"><path d="m-1975.2125 351.23894h492.5064l-242.6185-3.85802z" opacity=".377049"/><path d="m-1975.2125 351.33039h492.5064l-242.6185 3.35361z" fill="#fff" opacity=".377049"/></g><g opacity=".03" transform="matrix(.06763961 0 0 .07001725 169.0807 69.77825)"><path d="m-1975.2125 351.23894h492.5064l-242.6185-3.85802z" opacity=".377049"/><path d="m-1975.2125 351.33039h492.5064l-242.6185 3.35361z" fill="#fff" opacity=".377049"/></g><g opacity=".03" transform="matrix(.06763961 0 0 .10757364 100.17584 -44.351616)"><path d="m-648.84375 1308.75-324.34375 3.6562h608.96875v-.3437z" opacity=".377049"/><path d="m-973.1875 1312.5 324.34375 3.1875 284.625-2.875v-.3125z" fill="#fff" opacity=".377049"/></g><g opacity=".03" transform="matrix(.06763961 0 0 .07001725 169.0807 69.77825)"><path d="m-1975.2125 351.23894h492.5064l-242.6185-3.85802z" opacity=".377049"/><path d="m-1975.2125 351.33039h492.5064l-242.6185 3.35361z" fill="#fff" opacity=".377049"/></g><g opacity=".03" transform="matrix(.08295112 0 0 .101987 198.1965 61.00738)"><path d="m-1975.2125 351.23894h492.5064l-242.6185-3.85802z" opacity=".377049"/><path d="m-1975.2125 351.33039h492.5064l-242.6185 3.35361z" fill="#fff" opacity=".377049"/></g><g opacity=".02" transform="matrix(-.05296143 0 0 .07001725 -48.05016 81.63257)"><path d="m-1975.2125 351.23894h492.5064l-242.6185-3.85802z" opacity=".377049"/><path d="m-1975.2125 351.33039h492.5064l-242.6185 3.35361z" fill="#fff" opacity=".377049"/></g><g opacity=".02" transform="matrix(.06763951 0 0 .10757364 99.174892 -44.351433)"><path d="m-870.9375 1418.9375-147.5625 2.1875v1.4688h401.53125z" opacity=".377049"/><path d="m-1018.5 1422.6875v1.2813l147.5625 1.9062 253.96875-3.1875z" fill="#fff" opacity=".377049"/></g><g opacity=".02" transform="matrix(-.05296143 0 0 .07001725 -46.26222 79.35808)"><path d="m-1975.2125 351.23894h492.5064l-242.6185-3.85802z" opacity=".377049"/><path d="m-1975.2125 351.33039h492.5064l-242.6185 3.35361z" fill="#fff" opacity=".377049"/></g><g opacity=".02" transform="matrix(.06763951 0 0 .10757364 99.175082 -44.351629)"><path d="m-844.5 1397.8125-174 2.5937v1.0626h427.9375z" opacity=".377049"/><path d="m-1018.5 1401.5625v.9375l174 2.2188 253.9375-3.1563z" fill="#fff" opacity=".377049"/></g><g opacity=".02" transform="matrix(-.05296143 0 0 .07001725 -46.26222 79.35808)"><path d="m-1975.2125 351.23894h492.5064l-242.6185-3.85802z" opacity=".377049"/><path d="m-1975.2125 351.33039h492.5064l-242.6185 3.35361z" fill="#fff" opacity=".377049"/></g><g opacity=".02" transform="matrix(.06763951 0 0 .10757364 99.175082 -44.351629)"><path d="m-844.5 1397.8125-174 2.5937v1.0626h427.9375z" opacity=".377049"/><path d="m-1018.5 1401.5625v.9375l174 2.2188 253.9375-3.1563z" fill="#fff" opacity=".377049"/></g><g opacity=".03" transform="matrix(.06763953 0 0 .10757338 99.1754 -44.351601)"><path d="m-892.65625 1353.1875-125.84375 1.6875v.8438h321.5z" opacity=".377049"/><path d="m-1018.5 1355.7812v.7188l125.84375 1.4375 195.65625-2.1563z" fill="#fff" opacity=".377049"/></g><g opacity=".03" transform="matrix(.06763953 0 0 .10757338 99.175584 -44.351511)"><path d="m-866.21875 1332.0625-152.28125 2v.5h347.9375z" opacity=".377049"/><path d="m-1018.5 1334.625v.4375l152.28125 1.75 195.65625-2.1875z" fill="#fff" opacity=".377049"/></g><g opacity=".03" transform="matrix(.06763953 0 0 .10757338 99.175584 -44.351511)"><path d="m-866.21875 1332.0625-152.28125 2v.5h347.9375z" opacity=".377049"/><path d="m-1018.5 1334.625v.4375l152.28125 1.75 195.65625-2.1875z" fill="#fff" opacity=".377049"/></g><g opacity=".02" transform="matrix(.06763961 0 0 .07001725 169.4623 82.42072)"><path d="m-1975.2125 351.23894h492.5064l-242.6185-3.85802z" opacity=".377049"/><path d="m-1975.2125 351.33039h492.5064l-242.6185 3.35361z" fill="#fff" opacity=".377049"/></g><g opacity=".02" transform="matrix(.06763961 0 0 .10757364 100.17599 -44.351653)"><path d="m-643.21875 1426.2812-324.3125 3.6563h603.3125v-.4063z" opacity=".377049"/><path d="m-967.53125 1430.0312 324.3125 3.1876 279-2.8126v-.375z" fill="#fff" opacity=".377049"/></g><g opacity=".02" transform="matrix(.06763961 0 0 .07001725 171.25 80.14622)"><path d="m-1975.2125 351.23894h492.5064l-242.6185-3.85802z" opacity=".377049"/><path d="m-1975.2125 351.33039h492.5064l-242.6185 3.35361z" fill="#fff" opacity=".377049"/></g><g opacity=".02" transform="matrix(.06763961 0 0 .10757364 100.17584 -44.351757)"><path d="m-616.78125 1405.125-324.3125 3.6562h576.875v-.7187z" opacity=".377049"/><path d="m-941.09375 1408.875 324.3125 3.1875 252.5625-2.5625v-.625z" fill="#fff" opacity=".377049"/></g><g opacity=".02" transform="matrix(.06763961 0 0 .07001725 171.25 80.14622)"><path d="m-1975.2125 351.23894h492.5064l-242.6185-3.85802z" opacity=".377049"/><path d="m-1975.2125 351.33039h492.5064l-242.6185 3.35361z" fill="#fff" opacity=".377049"/></g><g opacity=".02" transform="matrix(.06763961 0 0 .10757364 100.17584 -44.351757)"><path d="m-616.78125 1405.125-324.3125 3.6562h576.875v-.7187z" opacity=".377049"/><path d="m-941.09375 1408.875 324.3125 3.1875 252.5625-2.5625v-.625z" fill="#fff" opacity=".377049"/></g><g opacity=".03" transform="matrix(.06763961 0 0 .07001725 163.9325 77.68199)"><path d="m-1975.2125 351.23894h492.5064l-242.6185-3.85802z" opacity=".377049"/><path d="m-1975.2125 351.33039h492.5064l-242.6185 3.35361z" fill="#fff" opacity=".377049"/></g><g opacity=".03" transform="matrix(.06763961 0 0 .10757364 100.17599 -44.351613)"><path d="m-510.09375 1371.375-324.34375 3.6562h470.21875v-1.9687z" opacity=".377049"/><path d="m-834.4375 1375.125 324.34375 3.1875 145.875-1.4687v-1.7188z" fill="#fff" opacity=".377049"/></g><g opacity=".02" transform="matrix(.08778972 0 0 .101987 202.6057 68.91154)"><path d="m-1975.2125 351.23894h492.5064l-242.6185-3.85802z" opacity=".377049"/><path d="m-1975.2125 351.33039h492.5064l-242.6185 3.35361z" fill="#fff" opacity=".377049"/></g><g opacity=".03" transform="matrix(.06763961 0 0 .07001725 165.7204 75.4075)"><path d="m-1975.2125 351.23894h492.5064l-242.6185-3.85802z" opacity=".377049"/><path d="m-1975.2125 351.33039h492.5064l-242.6185 3.35361z" fill="#fff" opacity=".377049"/></g><g opacity=".03" transform="matrix(.08778972 0 0 .101987 204.3934 66.63663)"><path d="m-1975.2125 351.23894h492.5064l-242.6185-3.85802z" opacity=".377049"/><path d="m-1975.2125 351.33039h492.5064l-242.6185 3.35361z" fill="#fff" opacity=".377049"/></g><g opacity=".03" transform="matrix(.06763961 0 0 .07001725 165.7204 75.4075)"><path d="m-1975.2125 351.23894h492.5064l-242.6185-3.85802z" opacity=".377049"/><path d="m-1975.2125 351.33039h492.5064l-242.6185 3.35361z" fill="#fff" opacity=".377049"/></g><g opacity=".03" transform="matrix(.08778972 0 0 .101987 204.3934 66.63663)"><path d="m-1975.2125 351.23894h492.5064l-242.6185-3.85802z" opacity=".377049"/><path d="m-1975.2125 351.33039h492.5064l-242.6185 3.35361z" fill="#fff" opacity=".377049"/></g><g opacity=".01" transform="matrix(-.05296143 0 0 .07001725 -43.51012 90.47857)"><path d="m-1975.2125 351.23894h492.5064l-242.6185-3.85802z" opacity=".377049"/><path d="m-1975.2125 351.33039h492.5064l-242.6185 3.35361z" fill="#fff" opacity=".377049"/></g><g opacity=".01" transform="matrix(-.06873885 0 0 .101987 -74.79105 81.70791)"><path d="m-1975.2125 351.23894h429.3652l-179.4773-3.85802z" opacity=".377049"/><path d="m-1975.2125 351.33039 427.0204 2.15435-177.1325 1.19926z" fill="#fff" opacity=".377049"/></g><g opacity=".01" transform="matrix(-.05296143 0 0 .07001725 -41.72208 88.20407)"><path d="m-1975.2125 351.23894h492.5064l-242.6185-3.85802z" opacity=".377049"/><path d="m-1975.2125 351.33039h492.5064l-242.6185 3.35361z" fill="#fff" opacity=".377049"/></g><g opacity=".01" transform="matrix(-.06873885 0 0 .101987 -73.0034 79.4332)"><path d="m-1975.2125 351.23894h492.5064l-242.6185-3.85802z" opacity=".377049"/><path d="m-1975.2125 351.33039 468.5563.53859-242.6185 3.35361z" fill="#fff" opacity=".377049"/></g><g opacity=".01" transform="matrix(-.05296143 0 0 .07001725 -41.72208 88.20407)"><path d="m-1975.2125 351.23894h492.5064l-242.6185-3.85802z" opacity=".377049"/><path d="m-1975.2125 351.33039h492.5064l-242.6185 3.35361z" fill="#fff" opacity=".377049"/></g><g opacity=".01" transform="matrix(-.06873885 0 0 .101987 -73.0034 79.4332)"><path d="m-1975.2125 351.23894 468.2213 1.79529-218.3334-5.65331z" opacity=".377049"/><path d="m-1018.5 1483.7812v.25l226.34375 2.9376 253.9375-3.1876z" fill="#fff" opacity=".377049" transform="matrix(-.984007 0 0 1.054778 -2504.823 -1213.732)"/></g><g opacity=".02" transform="matrix(-.05296143 0 0 .07001725 -49.03956 85.73984)"><path d="m-1975.2125 351.23894h492.5064l-242.6185-3.85802z" opacity=".377049"/><path d="m-1975.2125 351.33039h492.5064l-242.6185 3.35361z" fill="#fff" opacity=".377049"/></g><g opacity=".02" transform="matrix(-.05296143 0 0 .07001725 -47.25171 83.46535)"><path d="m-1975.2125 351.23894h492.5064l-242.6185-3.85802z" opacity=".377049"/><path d="m-1975.2125 351.33039h492.5064l-242.6185 3.35361z" fill="#fff" opacity=".377049"/></g><g opacity=".02" transform="matrix(.06763951 0 0 .10757364 99.175009 -44.351794)"><path d="m-859.125 1436-159.375 2.375v1.2812h413.3125z" opacity=".377049"/><path d="m-1018.5 1439.7188v1.125l159.375 2.0624 253.9375-3.1874z" fill="#fff" opacity=".377049"/></g><g opacity=".02" transform="matrix(-.05296143 0 0 .07001725 -47.25171 83.46535)"><path d="m-1975.2125 351.23894h492.5064l-242.6185-3.85802z" opacity=".377049"/><path d="m-1975.2125 351.33039h492.5064l-242.6185 3.35361z" fill="#fff" opacity=".377049"/></g><g opacity=".02" transform="matrix(.06763951 0 0 .10757364 99.175009 -44.351794)"><path d="m-859.125 1436-159.375 2.375v1.2812h413.3125z" opacity=".377049"/><path d="m-1018.5 1439.7188v1.125l159.375 2.0624 253.9375-3.1874z" fill="#fff" opacity=".377049"/></g><g opacity=".01" transform="matrix(.06763961 0 0 .07001725 173.0019 91.26693)"><path d="m-1975.2125 351.23894h492.5064l-242.6185-3.85802z" opacity=".377049"/><path d="m-1975.2125 351.33039h492.5064l-242.6185 3.35361z" fill="#fff" opacity=".377049"/></g><g opacity=".01" transform="matrix(.08778972 0 0 .101987 211.6749 82.49605)"><path d="m-1975.2125 351.23894h492.5064l-242.6185-3.85802z" opacity=".377049"/><path d="m-1975.2125 351.33039h492.5064l-242.6185 3.35361z" fill="#fff" opacity=".377049"/></g><g opacity=".01" transform="matrix(.06763961 0 0 .07001725 174.7897 88.99244)"><path d="m-1975.2125 351.23894h492.5064l-242.6185-3.85802z" opacity=".377049"/><path d="m-1975.2125 351.33039h492.5064l-242.6185 3.35361z" fill="#fff" opacity=".377049"/></g><g opacity=".01" transform="matrix(.08778972 0 0 .101987 213.4626 80.22156)"><path d="m-1975.2125 351.23894h492.5064l-242.6185-3.85802z" opacity=".377049"/><path d="m-1975.2125 351.33039h492.5064l-242.6185 3.35361z" fill="#fff" opacity=".377049"/></g><g opacity=".01" transform="matrix(.06763961 0 0 .07001725 174.7897 88.99244)"><path d="m-1975.2125 351.23894h492.5064l-242.6185-3.85802z" opacity=".377049"/><path d="m-1975.2125 351.33039h492.5064l-242.6185 3.35361z" fill="#fff" opacity=".377049"/></g><g opacity=".01" transform="matrix(.08778972 0 0 .101987 213.4626 80.22156)"><path d="m-1975.2125 351.23894h492.5064l-242.6185-3.85802z" opacity=".377049"/><path d="m-1975.2125 351.33039h492.5064l-242.6185 3.35361z" fill="#fff" opacity=".377049"/></g><g opacity=".02" transform="matrix(.06763961 0 0 .07001725 168.4729 86.5282)"><path d="m-1975.2125 351.23894h492.5064l-242.6185-3.85802z" opacity=".377049"/><path d="m-1975.2125 351.33039h492.5064l-242.6185 3.35361z" fill="#fff" opacity=".377049"/></g><g opacity=".01" transform="matrix(.08778972 0 0 .101987 207.146 77.75733)"><path d="m-1975.2125 351.23894h492.5064l-242.6185-3.85802z" opacity=".377049"/><path d="m-1975.2125 351.33039h492.5064l-242.6185 3.35361z" fill="#fff" opacity=".377049"/></g><g opacity=".02" transform="matrix(.06763961 0 0 .07001725 170.2606 84.25371)"><path d="m-1975.2125 351.23894h492.5064l-242.6185-3.85802z" opacity=".377049"/><path d="m-1975.2125 351.33039h492.5064l-242.6185 3.35361z" fill="#fff" opacity=".377049"/></g><g opacity=".01" transform="matrix(.06763961 0 0 .10757364 100.17573 -44.351579)"><path d="m-631.40625 1443.3125-324.34375 3.6563h591.53125v-.5626z" opacity=".377049"/><path d="m-955.75 1447.0625 324.34375 3.1875 267.1875-2.7188v-.4687z" fill="#fff" opacity=".377049"/></g><g opacity=".02" transform="matrix(.06763961 0 0 .07001725 170.2606 84.25371)"><path d="m-1975.2125 351.23894h492.5064l-242.6185-3.85802z" opacity=".377049"/><path d="m-1975.2125 351.33039h492.5064l-242.6185 3.35361z" fill="#fff" opacity=".377049"/></g><g opacity=".01" transform="matrix(.08119156 0 0 .101987 195.9011 75.48284)"><path d="m-1975.2125 351.23894h492.5064l-242.6185-3.85802z" opacity=".377049"/><path d="m-1975.2125 351.33039h492.5064l-242.6185 3.35361z" fill="#fff" opacity=".377049"/></g><g opacity=".040984" transform="matrix(.06763951 0 0 .10757364 99.175194 -44.351543)"><path d="m-908.3125 1137.375-110.1875 1.625v2.0312h364.15625z" opacity=".377049"/><path d="m-1018.5 1141.125v1.75l110.1875 1.4062 253.96875-3.1562z" fill="#fff" opacity=".377049"/></g><g opacity=".040984" transform="matrix(.08778972 0 0 .101987 204.6066 43.35895)"><path d="m-1975.2125 351.23894h492.5064l-242.6185-3.85802z" opacity=".377049"/><path d="m-1975.2125 351.33039h492.5064l-242.6185 3.35361z" fill="#fff" opacity=".377049"/></g><g opacity=".040984" transform="matrix(-.05296143 0 0 .07001725 -47.03877 60.18746)"><path d="m-1975.2125 351.23894h492.5064l-242.6185-3.85802z" opacity=".377049"/><path d="m-1975.2125 351.33039h492.5064l-242.6185 3.35361z" fill="#fff" opacity=".377049"/></g><g opacity=".03" transform="matrix(.06763951 0 0 .10757364 99.175275 -44.351431)"><path d="m-855.96875 1219.5938-162.53125 2.4062v1.25h416.46875z" opacity=".377049"/><path d="m-1018.5 1223.3438v1.0937l162.53125 2.0937 253.9375-3.1874z" fill="#fff" opacity=".377049"/></g><g opacity=".040984" transform="matrix(-.05296143 0 0 .07001725 -44.25062 57.91297)"><path d="m-1975.2125 351.23894h492.5064l-242.6185-3.85802z" opacity=".377049"/><path d="m-1975.2125 351.33039h492.5064l-242.6185 3.35361z" fill="#fff" opacity=".377049"/></g><g opacity=".040984" transform="matrix(.06763951 0 0 .10757364 99.175096 -44.351504)"><path d="m-829.53125 1198.4375-188.96875 2.8125v.875h442.90625z" opacity=".377049"/><path d="m-1018.5 1202.1875v.75l188.96875 2.4375 253.9375-3.1875z" fill="#fff" opacity=".377049"/></g><g opacity=".040984" transform="matrix(-.05296143 0 0 .07001725 -44.25062 57.91297)"><path d="m-1975.2125 351.23894h492.5064l-242.6185-3.85802z" opacity=".377049"/><path d="m-1975.2125 351.33039h492.5064l-242.6185 3.35361z" fill="#fff" opacity=".377049"/></g><g opacity=".040984" transform="matrix(.06763951 0 0 .10757364 99.175096 -44.351504)"><path d="m-829.53125 1198.4375-188.96875 2.8125v.875h442.90625z" opacity=".377049"/><path d="m-1018.5 1202.1875v.75l188.96875 2.4375 253.9375-3.1875z" fill="#fff" opacity=".377049"/></g><g opacity=".040984" transform="matrix(.06763953 0 0 .10757338 99.175402 -44.351328)"><path d="m-877.71875 1153.8438-140.78125 1.8437v.6563h336.46875z" opacity=".377049"/><path d="m-1018.5 1156.4062v.5626l140.78125 1.625 195.6875-2.1876z" fill="#fff" opacity=".377049"/></g><g opacity=".040984" transform="matrix(.06763951 0 0 .10757364 99.175243 -44.351392)"><path d="m-896.5 1154.4062-122 1.8126v1.8437h375.9375z" opacity=".377049"/><path d="m-1018.5 1158.1562v1.5938l122 1.5625 253.9375-3.1563z" fill="#fff" opacity=".377049"/></g><g opacity=".040984" transform="matrix(.06763951 0 0 .10757364 99.175243 -44.351392)"><path d="m-896.5 1154.4062-122 1.8126v1.8437h375.9375z" opacity=".377049"/><path d="m-1018.5 1158.1562v1.5938l122 1.5625 253.9375-3.1563z" fill="#fff" opacity=".377049"/></g><g opacity=".03" transform="matrix(.06763961 0 0 .07001725 170.4736 60.97582)"><path d="m-1975.2125 351.23894h492.5064l-242.6185-3.85802z" opacity=".377049"/><path d="m-1975.2125 351.33039h492.5064l-242.6185 3.35361z" fill="#fff" opacity=".377049"/></g><g opacity=".03" transform="matrix(.06763961 0 0 .10757364 100.17585 -44.351379)"><path d="m-628.25 1226.9375-324.34375 3.6563h588.375v-.5938z" opacity=".377049"/><path d="m-952.59375 1230.6562 324.34375 3.1876 264.03125-2.6876v-.5z" fill="#fff" opacity=".377049"/></g><g opacity=".040984" transform="matrix(.06763961 0 0 .07001725 172.2612 58.70132)"><path d="m-1975.2125 351.23894h492.5064l-242.6185-3.85802z" opacity=".377049"/><path d="m-1975.2125 351.33039h492.5064l-242.6185 3.35361z" fill="#fff" opacity=".377049"/></g><g opacity=".03" transform="matrix(.06763961 0 0 .10757364 100.17599 -44.351453)"><path d="m-601.8125 1205.7812-324.34375 3.6563h561.9375v-.9063z" opacity=".377049"/><path d="m-926.15625 1209.5312 324.34375 3.1876 237.59375-2.4063v-.7813z" fill="#fff" opacity=".377049"/></g><g opacity=".040984" transform="matrix(.06763961 0 0 .07001725 172.2612 58.70132)"><path d="m-1975.2125 351.23894h492.5064l-242.6185-3.85802z" opacity=".377049"/><path d="m-1975.2125 351.33039h492.5064l-242.6185 3.35361z" fill="#fff" opacity=".377049"/></g><g opacity=".040984" transform="matrix(.06763961 0 0 .07001725 164.944 56.2371)"><path d="m-1975.2125 351.23894h492.5064l-242.6185-3.85802z" opacity=".377049"/><path d="m-1975.2125 351.33039h492.5064l-242.6185 3.35361z" fill="#fff" opacity=".377049"/></g><g opacity=".040984" transform="matrix(.08778972 0 0 .101987 203.6169 47.46622)"><path d="m-1975.2125 351.23894h492.5064l-242.6185-3.85802z" opacity=".377049"/><path d="m-1975.2125 351.33039h492.5064l-242.6185 3.35361z" fill="#fff" opacity=".377049"/></g><g opacity=".040984" transform="matrix(.06763961 0 0 .07001725 167.7324 53.9626)"><path d="m-1975.2125 351.23894h492.5064l-242.6185-3.85802z" opacity=".377049"/><path d="m-1975.2125 351.33039h492.5064l-242.6185 3.35361z" fill="#fff" opacity=".377049"/></g><g opacity=".040984" transform="matrix(.08778972 0 0 .101987 205.4046 45.19172)"><path d="m-1975.2125 351.23894h492.5064l-242.6185-3.85802z" opacity=".377049"/><path d="m-1975.2125 351.33039h492.5064l-242.6185 3.35361z" fill="#fff" opacity=".377049"/></g><g opacity=".040984" transform="matrix(.06763961 0 0 .07001725 167.7324 53.9626)"><path d="m-1975.2125 351.23894h492.5064l-242.6185-3.85802z" opacity=".377049"/><path d="m-1975.2125 351.33039h492.5064l-242.6185 3.35361z" fill="#fff" opacity=".377049"/></g><g opacity=".040984" transform="matrix(.08515049 0 0 .101987 200.1918 45.19172)"><path d="m-1975.2125 351.23894h492.5064l-242.6185-3.85802z" opacity=".377049"/><path d="m-1975.2125 351.33039h492.5064l-242.6185 3.35361z" fill="#fff" opacity=".377049"/></g><path d="m63.010092 71.379793h42.545168l-20.958617-.33715z" opacity=".040984"/><path d="m103.94356 71.387176v.02097l-19.348502.272695-21.586067-.293665z" fill="#fff" opacity=".040984"/><path d="m60.094024 68.541171h42.545216l-20.958621-.337106z" opacity=".040984"/><path d="m60.094024 68.549199h42.545216l-20.958621.29302z" fill="#fff" opacity=".040984"/><path d="m86.670607 71.118645 17.272973.310471v.180359h-45.289z" opacity=".040984"/><path d="m103.94358 71.622074v.155246l-17.272973.268487-28.016027-.423733z" fill="#fff" opacity=".040984"/><path d="m60.094024 68.541171h42.545216l-20.958621-.337106z" opacity=".040984"/><path d="m60.094024 68.549199h42.545216l-20.958621.29302z" fill="#fff" opacity=".040984"/><path d="m86.670607 71.118645 17.272973.310471v.180359h-45.289z" opacity=".040984"/><path d="m103.94358 71.622074v.155246l-17.272973.268487-28.016027-.423733z" fill="#fff" opacity=".040984"/><path d="m91.98348 65.739038 11.9601.154624v.117663h-33.546121z" opacity=".06"/><path d="m103.94358 66.018043v.100836l-11.9601.131142-21.586021-.231978z" fill="#fff" opacity=".06"/><path d="m80.350073 63.466518 22.335567.191627v.07731h-54.744132l32.408565-.268939z" opacity=".06"/><path d="m102.68564 63.742174v.06723l-22.335567.168103-32.408565-.235328h54.744132z" fill="#fff" opacity=".06"/><path d="m80.350073 63.466518 22.335567.191627v.07731h-54.744132l32.408565-.268939z" opacity=".06"/><path d="m102.68564 63.742174v.06723l-22.335567.168103-32.408565-.235328h54.744132z" fill="#fff" opacity=".06"/><path d="m98.406221 72.363554h-54.336492l26.767237-.337128z" opacity=".040984"/><path d="m98.406221 72.371539h-54.336492l26.767237.293063z" fill="#fff" opacity=".040984"/><path d="m99.24496 75.431234h-70.52352l34.741305-.491021z" opacity=".040984"/><path d="m99.24496 75.442889h-70.52352l34.741305.426846z" fill="#fff" opacity=".040984"/><path d="m95.490176 69.524847h-54.336469l26.767236-.337129z" opacity=".040984"/><path d="m95.490176 69.532832h-54.336469l26.767236.293042z" fill="#fff" opacity=".040984"/><path d="m60.546634 72.100346 35.783688.490851h-65.571816v-.0713l29.788128-.419549z" opacity=".040984"/><path d="m96.330322 72.603795-35.783688.42792-29.788128-.365009v-.06291z" fill="#fff" opacity=".040984"/><path d="m95.490176 69.524847h-54.336469l26.767236-.337129z" opacity=".040984"/><path d="m95.490176 69.532832h-54.336469l26.767236.293042z" fill="#fff" opacity=".040984"/><path d="m60.546634 72.100346 35.783688.490851h-65.571816v-.0713l29.788128-.419549z" opacity=".040984"/><path d="m96.330322 72.603795-35.783688.42792-29.788128-.365009v-.06291z" fill="#fff" opacity=".040984"/><path d="m105.79344 66.798286h-54.336498l26.767237-.27014z" opacity=".06"/><path d="m103.94699 66.804705v.01681l-25.723273.218499-26.767941-.235304h52.491214z" fill="#fff" opacity=".06"/><path d="m106.00604 69.517378h-68.89676l33.939924-.491044z" opacity=".040984"/><path d="m103.9436 69.528602v.04617l-32.094635.381794-34.739046-.427963z" fill="#fff" opacity=".040984"/><path d="m102.87742 64.523685h-54.33648l26.767238-.270141z" opacity=".06"/><path d="m102.87742 64.530081h-54.33648l26.767238.234811z" fill="#fff" opacity=".06"/><path d="m45.859357 65.419661 35.783668.393319h-50.884588v-.221869z" opacity=".040984"/><path d="m81.643025 65.823068-35.783668.342901-15.10092-.147926v-.194975z" fill="#fff" opacity=".040984"/><path d="m104.71674 66.981821h-70.52353l34.741294-.39347z" opacity=".06"/><path d="m104.71674 66.991115h-70.52353l34.741294.342065z" fill="#fff" opacity=".040984"/><path d="m102.87742 64.523685h-54.33648l26.767238-.270141z" opacity=".06"/><path d="m102.87742 64.530081h-54.33648l26.767238.234811z" fill="#fff" opacity=".06"/><path d="m45.859357 65.419661 35.783668.393319h-50.884588v-.221869z" opacity=".040984"/><path d="m81.643025 65.823068-35.783668.342901-15.10092-.147926v-.194975z" fill="#fff" opacity=".040984"/><path d="m104.71674 66.981821h-70.52353l34.741294-.39347z" opacity=".06"/><path d="m103.94699 66.989592v.0067l-35.011385.336184-34.742473-.34288h69.753858z" fill="#fff" opacity=".040984"/><path d="m57.236708 79.594802h42.545185l-20.958611-.27014z" opacity=".03"/><path d="m57.236708 79.601199h42.545185l-20.958611.234811z" fill="#fff" opacity=".03"/><path d="m80.899161 79.384008 23.044419.332793v.06053h-51.063901l28.019482-.39332z" opacity=".03"/><path d="m103.94358 79.787416v.05379l-23.044419.289072-28.019482-.34286h51.063901z" fill="#fff" opacity=".03"/><path d="m80.899161 79.384008 23.044419.332793v.06053h-51.063901l28.019482-.39332z" opacity=".03"/><path d="m103.94358 79.787416v.05379l-23.044419.289072-28.019482-.34286h51.063901z" fill="#fff" opacity=".03"/><path d="m86.212035 76.169753 17.731525.285294v.05033h-39.321026l21.589501-.335626z" opacity=".03"/><path d="m103.94356 76.513793v.04612l-17.731525.247539-21.589501-.293664h39.321026z" fill="#fff" opacity=".03"/><path d="m61.707898 73.666994h42.545182l-20.958609-.337128z" opacity=".03"/><path d="m61.707898 73.674978h42.545182l-20.958609.293042z" fill="#fff" opacity=".03"/><path d="m88.284151 76.245305 15.659449.281087v.209785h-43.675498z" opacity=".03"/><path d="m103.9436 76.744547v.180402l-15.659449.247518-28.016049-.42792z" fill="#fff" opacity=".03"/><path d="m61.707898 73.666994h42.545182l-20.958609-.337128z" opacity=".03"/><path d="m61.707898 73.674978h42.545182l-20.958609.293042z" fill="#fff" opacity=".03"/><path d="m88.284151 76.245305 15.659449.281087v.209785h-43.675498z" opacity=".03"/><path d="m103.9436 76.744547v.180402l-15.659449.247518-28.016049-.42792z" fill="#fff" opacity=".03"/><path d="m92.632839 80.383116h-54.33647l26.767238-.27014z" opacity=".040984"/><path d="m100.01996 77.489483h-54.336466l26.767214-.337106z" opacity=".03"/><path d="m100.01996 77.49749h-54.336466l26.767214.29302z" fill="#fff" opacity=".03"/><path d="m97.104028 74.650755h-54.33647l26.767237-.337107z" opacity=".040984"/><path d="m97.104028 74.658783h-54.33647l26.767237.29302z" fill="#fff" opacity=".040984"/><path d="m62.160112 77.227028 35.783689.490849h-67.185344v-.04613l31.401655-.444724z" opacity=".040984"/><path d="m97.104028 74.650755h-54.33647l26.767237-.337107z" opacity=".040984"/><path d="m97.104028 74.658783h-54.33647l26.767237.29302z" fill="#fff" opacity=".040984"/><path d="m97.942897 77.718522h-66.636555l32.826498-.491044z" opacity=".040984"/><path d="m90.059643 80.214327 13.883917.181538v.09077h-35.46994z" opacity=".03"/><path d="m100.95298 78.999081h-54.33647l26.767236-.27014z" opacity=".03"/><path d="m100.95298 79.005477h-54.33647l26.767236.234812z" fill="#fff" opacity=".03"/><path d="m100.95298 78.999081h-54.33647l26.767236-.27014z" opacity=".03"/><path d="m100.95298 79.005477h-54.33647l26.767236.234812z" fill="#fff" opacity=".03"/><path d="m84.434099 56.998686 18.251471.174799v.218499h-60.318954z" opacity=".1"/><path d="m102.68557 57.402116v.188235l-18.251471.151275-42.067483-.33951z" fill="#fff" opacity=".1"/><path d="m35.863769 63.779028h63.875888l-31.466552-.270141z" opacity=".06"/><path d="m35.863769 63.785424h63.875888l-31.466552.234811z" fill="#fff" opacity=".06"/><path d="m86.012027 65.843243 17.931463.258852v.134447h-45.947469z" opacity=".06"/><path d="m103.94349 66.246651v.117642l-17.931463.225239-28.016006-.342881z" fill="#fff" opacity=".06"/><path d="m30.485153 61.50449h63.875876l-31.466546-.27014z" opacity=".040984"/><path d="m30.485153 61.510887h63.875876l-31.466546.234811z" fill="#fff" opacity=".040984"/><path d="m70.384255 63.567375 31.300825.302573v.09412h-73.363121l42.062296-.39669z" opacity=".040984"/><path d="m103.9436 63.970783v.0807l-20.848258.262198-28.016005-.342902h48.864263z" fill="#fff" opacity=".06"/><path d="m30.485153 61.50449h63.875876l-31.466546-.27014z" opacity=".040984"/><path d="m30.485153 61.510887h63.875876l-31.466546.234811z" fill="#fff" opacity=".040984"/><path d="m70.384255 63.567375 31.300825.302573v.09412h-73.363121l42.062296-.39669z" opacity=".040984"/><path d="m103.9436 63.970783v.0807l-20.848258.262198-28.016005-.342902h48.864263z" fill="#fff" opacity=".06"/><path d="m79.366626 58.770311 23.319054.198345v.07059h-55.732793l32.413739-.268939z" opacity=".1"/><path d="m102.68568 59.045989v.06051l-23.319054.174799-32.413739-.235305h55.732793z" fill="#fff" opacity=".06"/><path d="m42.576685 56.765764h63.875885l-31.466549-.27014z" opacity=".06"/><path d="m102.68566 56.773469v.02687l-27.698188.205084-32.408564-.231957h60.106752z" fill="#fff" opacity=".1"/><path d="m82.477595 58.830816 20.208105.194975v.198324h-62.270393z" opacity=".06"/><path d="m102.6857 59.234203v.171429l-20.208105.168103-42.062288-.339532z" fill="#fff" opacity=".06"/><path d="m74.987472 56.494443 27.698188.238674v.03363h-60.106752l32.408564-.272308z" opacity=".1"/><path d="m82.477595 58.830816 20.208105.194975v.198324h-62.270393z" opacity=".06"/><path d="m102.6857 59.234203v.171429l-20.208105.168103-42.062288-.339532z" fill="#fff" opacity=".06"/><path d="m94.832189 64.56732h-54.336469l26.767236-.27014z" opacity=".06"/><path d="m94.832189 64.573716h-54.336469l26.767236.234812z" fill="#fff" opacity=".06"/><path d="m59.888119 66.633231 35.783666.393321h-64.913299v-.06388l29.129633-.329445z" opacity=".040984"/><path d="m95.671785 67.033248-35.783666.342924-29.129633-.289136v-.05379h64.913299z" fill="#fff" opacity=".040984"/><path d="m56.971259 64.357385 35.783712.39332h-61.996583v-.09749l26.212871-.295832z" opacity=".040984"/><path d="m92.754971 64.760793-35.783712.34288-26.212871-.258828v-.08405h61.996583z" fill="#fff" opacity=".040984"/><g opacity=".040984" transform="matrix(-.05296143 0 0 .08738053 -49.22982 41.05376)"><path d="m-1975.2125 351.23894h492.5064l-242.6185-3.85802z" opacity=".377049"/><path d="m-1018.5 1265.25v.1562l175.375 2.0313 195.65625-2.1875z" fill="#fff" opacity=".377049" transform="matrix(-1.277147 0 0 1.536384 -2802.138 -1592.586)"/></g><g opacity=".040984" transform="matrix(-.05296143 0 0 .08738053 -47.44217 38.21543)"><path d="m-1975.2125 351.23894h492.5064l-242.6185-3.85802z" opacity=".377049"/><path d="m-1975.2125 351.33039h492.5064l-242.6185 3.35361z" fill="#fff" opacity=".377049"/></g><g opacity=".040984" transform="matrix(.06763951 0 0 .13425109 99.175066 -98.10806)"><path d="m-861.9375 1263.25-156.5625 2.3125v1.3437h410.5z" opacity=".377049"/><path d="m-1018.5 1267v1.1562l156.5625 2 253.9375-3.1562z" fill="#fff" opacity=".377049"/></g><g opacity=".040984" transform="matrix(-.05296143 0 0 .08738053 -47.44217 38.21543)"><path d="m-1975.2125 351.23894h492.5064l-242.6185-3.85802z" opacity=".377049"/><path d="m-1975.2125 351.33039h492.5064l-242.6185 3.35361z" fill="#fff" opacity=".377049"/></g><g opacity=".040984" transform="matrix(.06763951 0 0 .13425109 99.175066 -98.10806)"><path d="m-861.9375 1263.25-156.5625 2.3125v1.3437h410.5z" opacity=".377049"/><path d="m-1018.5 1267v1.1562l156.5625 2 253.9375-3.1562z" fill="#fff" opacity=".377049"/></g><g opacity=".040984" transform="matrix(.06763953 0 0 .10757338 99.175182 -65.059675)"><path d="m-910.09375 1218.625-108.40625 1.4375v1.0937h304.0625z" opacity=".377049"/><path d="m-1018.5 1221.2188v.9374l108.40625 1.2188 195.65625-2.1562z" fill="#fff" opacity=".377049"/></g><g opacity=".040984" transform="matrix(.06763953 0 0 .10757338 99.175256 -65.059584)"><path d="m-883.65625 1197.5-134.84375 1.7812v.7188h330.5z" opacity=".377049"/><path d="m-1018.5 1200.0625v.625l134.84375 1.5625 195.65625-2.1875z" fill="#fff" opacity=".377049"/></g><g opacity=".040984" transform="matrix(.06763953 0 0 .10757338 99.175256 -65.059584)"><path d="m-883.65625 1197.5-134.84375 1.7812v.7188h330.5z" opacity=".377049"/><path d="m-1018.5 1200.0625v.625l134.84375 1.5625 195.65625-2.1875z" fill="#fff" opacity=".377049"/></g><g opacity=".040984" transform="matrix(.06763961 0 0 .08738053 168.2823 42.03765)"><path d="m-1975.2125 351.23894h492.5064l-242.6185-3.85802z" opacity=".377049"/><path d="m-1975.2125 351.33039h492.5064l-242.6185 3.35361z" fill="#fff" opacity=".377049"/></g><g opacity=".040984" transform="matrix(.08778972 0 0 .127279 206.9554 31.09187)"><path d="m-1975.2125 351.23894h492.5064l-242.6185-3.85802z" opacity=".377049"/><path d="m-1975.2125 351.33039h492.5064l-242.6185 3.35361z" fill="#fff" opacity=".377049"/></g><g opacity=".040984" transform="matrix(.06763961 0 0 .08738053 170.0703 39.19888)"><path d="m-1975.2125 351.23894h492.5064l-242.6185-3.85802z" opacity=".377049"/><path d="m-1975.2125 351.33039h492.5064l-242.6185 3.35361z" fill="#fff" opacity=".377049"/></g><g opacity=".040984" transform="matrix(.06763961 0 0 .13425109 100.17585 -98.108155)"><path d="m-634.21875 1270.5625-324.34375 3.6563h594.34375v-.5313z" opacity=".377049"/><path d="m-958.5625 1274.3125 324.34375 3.1875 270-2.7188v-.4687z" fill="#fff" opacity=".377049"/></g><g opacity=".040984" transform="matrix(.06763961 0 0 .08738053 170.0703 39.19888)"><path d="m-1975.2125 351.23894h492.5064l-242.6185-3.85802z" opacity=".377049"/><path d="m-1975.2125 351.33039h492.5064l-242.6185 3.35361z" fill="#fff" opacity=".377049"/></g><g opacity=".040984" transform="matrix(.06763961 0 0 .13425109 100.17585 -98.108155)"><path d="m-634.21875 1270.5625-324.34375 3.6563h594.34375v-.5313z" opacity=".377049"/><path d="m-958.5625 1274.3125 324.34375 3.1875 270-2.7188v-.4687z" fill="#fff" opacity=".377049"/></g><g opacity=".040984" transform="matrix(.06763961 0 0 .07001725 162.7529 42.49848)"><path d="m-1975.2125 351.23894h492.5064l-242.6185-3.85802z" opacity=".377049"/><path d="m-1018.5312 1228.5312v.1563l233.1562 2.0313 242.625-2.1876z" fill="#fff" opacity=".377049" transform="matrix(1 0 0 1.536384 -939.9452 -1536.165)"/></g><g opacity=".040984" transform="matrix(.08778972 0 0 .127279 201.4257 25.17802)"><path d="m-1975.2125 351.23894h492.5064l-242.6185-3.85802z" opacity=".377049"/><path d="m-1018.5 1251.4062v.3438l290.90625 2.8438 314.875-3.1876z" fill="#fff" opacity=".377049" transform="matrix(.770473 0 0 1.054778 -1164.722 -968.6282)"/></g><g opacity=".040984" transform="matrix(.06763961 0 0 .07001725 164.5406 40.22377)"><path d="m-1975.2125 351.23894h492.5064l-242.6185-3.85802z" opacity=".377049"/><path d="m-1975.2125 351.33039h492.5064l-242.6185 3.35361z" fill="#fff" opacity=".377049"/></g><g opacity=".06" transform="matrix(.06763961 0 0 .10757364 100.17585 -65.059795)"><path d="m-501.09375 1215.6562-324.34375 3.6563h461.21875v-2.0625z" opacity=".377049"/><path d="m-825.4375 1219.4062 324.34375 3.1876 136.875-1.375v-1.8126z" fill="#fff" opacity=".377049"/></g><g opacity=".040984" transform="matrix(.08778972 0 0 .101987 203.2138 31.45312)"><path d="m-1975.2125 351.23894h492.5064l-242.6185-3.85802z" opacity=".377049"/><path d="m-1975.2125 351.33039h492.5064l-242.6185 3.35361z" fill="#fff" opacity=".377049"/></g><g opacity=".040984" transform="matrix(.06763961 0 0 .07001725 164.5406 40.22377)"><path d="m-1975.2125 351.23894h492.5064l-242.6185-3.85802z" opacity=".377049"/><path d="m-1975.2125 351.33039h492.5064l-242.6185 3.35361z" fill="#fff" opacity=".377049"/></g><g opacity=".06" transform="matrix(.06763961 0 0 .10757364 100.17585 -65.059795)"><path d="m-501.09375 1215.6562-324.34375 3.6563h461.21875v-2.0625z" opacity=".377049"/><path d="m-825.4375 1219.4062 324.34375 3.1876 136.875-1.375v-1.8126z" fill="#fff" opacity=".377049"/></g><g opacity=".040984" transform="matrix(.08778972 0 0 .101987 203.2138 31.45312)"><path d="m-1975.2125 351.23894h492.5064l-242.6185-3.85802z" opacity=".377049"/><path d="m-1018.5312 1230.25v.063l317.3437 3.125 314.90625-3.1875h-632.24995z" fill="#fff" opacity=".377049" transform="matrix(.770473 0 0 1.054778 -1185.086 -946.3253)"/></g><g opacity=".040984" transform="matrix(-.05296143 0 0 .07001725 -44.68948 55.29505)"><path d="m-1975.2125 351.23894h492.5064l-242.6185-3.85802z" opacity=".377049"/><path d="m-1975.2125 351.33039h492.5064l-242.6185 3.35361z" fill="#fff" opacity=".377049"/></g><g opacity=".040984" transform="matrix(.06763951 0 0 .10757364 99.174946 -65.059773)"><path d="m-809.625 1345.4688-208.875 3.0937v.5625h462.84375z" opacity=".377049"/><path d="m-1018.5 1349.2188v.5l208.875 2.6874 253.96875-3.1874z" fill="#fff" opacity=".377049"/></g><g opacity=".040984" transform="matrix(.06763951 0 0 .10757364 99.174946 -65.059773)"><path d="m-809.625 1345.4688-208.875 3.0937v.5625h462.84375z" opacity=".377049"/><path d="m-1018.5 1349.2188v.5l208.875 2.6874 253.96875-3.1874z" fill="#fff" opacity=".377049"/></g><g opacity=".040984" transform="matrix(.06763953 0 0 .13425005 99.175251 -98.107103)"><path d="m-857.78125 1300.875-160.71875 2.125v.375h356.40625z" opacity=".377049"/><path d="m-1018.5 1303.4375v.3437l160.71875 1.8438 195.6875-2.1875z" fill="#fff" opacity=".377049"/></g><g opacity=".040984" transform="matrix(-.05296143 0 0 .08738053 -48.43156 43.34113)"><path d="m-1975.2125 351.23894h492.5064l-242.6185-3.85802z" opacity=".377049"/><path d="m-1975.2125 351.33039h492.5064l-242.6185 3.35361z" fill="#fff" opacity=".377049"/></g><g opacity=".040984" transform="matrix(.06763951 0 0 .13425109 99.175293 -98.108116)"><path d="m-876.5625 1301.4375-141.9375 2.0937v1.5626h395.875z" opacity=".377049"/><path d="m-1018.5 1305.1562v1.3438l141.9375 1.8438 253.9375-3.1876z" fill="#fff" opacity=".377049"/></g><g opacity=".040984" transform="matrix(-.05296143 0 0 .08738053 -48.43156 43.34113)"><path d="m-1975.2125 351.23894h492.5064l-242.6185-3.85802z" opacity=".377049"/><path d="m-1975.2125 351.33039h492.5064l-242.6185 3.35361z" fill="#fff" opacity=".377049"/></g><g opacity=".040984" transform="matrix(.06763951 0 0 .13425109 99.175293 -98.108116)"><path d="m-876.5625 1301.4375-141.9375 2.0937v1.5626h395.875z" opacity=".377049"/><path d="m-1018.5 1305.1562v1.3438l141.9375 1.8438 253.9375-3.1876z" fill="#fff" opacity=".377049"/></g><g opacity=".040984" transform="matrix(.06763961 0 0 .08738053 167.2929 47.16359)"><path d="m-1975.2125 351.23894h492.5064l-242.6185-3.85802z" opacity=".377049"/><path d="m-1975.2125 351.33039h492.5064l-242.6185 3.35361z" fill="#fff" opacity=".377049"/></g><g opacity=".040984" transform="matrix(.08778972 0 0 .101987 204.9654 42.57382)"><path d="m-1975.2125 351.23894h492.5064l-242.6185-3.85802z" opacity=".377049"/><path d="m-1975.2125 351.33039h492.5064l-242.6185 3.35361z" fill="#fff" opacity=".377049"/></g><g opacity=".040984" transform="matrix(.06763961 0 0 .08738053 169.0807 44.32482)"><path d="m-1975.2125 351.23894h492.5064l-242.6185-3.85802z" opacity=".377049"/><path d="m-1975.2125 351.33039h492.5064l-242.6185 3.35361z" fill="#fff" opacity=".377049"/></g><g opacity=".040984" transform="matrix(.06763961 0 0 .13425109 100.17584 -98.107966)"><path d="m-648.84375 1308.75-324.34375 3.6562h608.96875v-.3437z" opacity=".377049"/><path d="m-973.1875 1312.5 324.34375 3.1875 284.625-2.875v-.3125z" fill="#fff" opacity=".377049"/></g><g opacity=".040984" transform="matrix(.06763961 0 0 .08738053 169.0807 44.32482)"><path d="m-1975.2125 351.23894h492.5064l-242.6185-3.85802z" opacity=".377049"/><path d="m-1975.2125 351.33039h492.5064l-242.6185 3.35361z" fill="#fff" opacity=".377049"/></g><g opacity=".040984" transform="matrix(.08295112 0 0 .127279 198.1965 33.37926)"><path d="m-1975.2125 351.23894h492.5064l-242.6185-3.85802z" opacity=".377049"/><path d="m-1975.2125 351.33039h492.5064l-242.6185 3.35361z" fill="#fff" opacity=".377049"/></g><g opacity=".040984" transform="matrix(.06763953 0 0 .10757338 99.175584 -65.059561)"><path d="m-866.21875 1332.0625-152.28125 2v.5h347.9375z" opacity=".377049"/><path d="m-1018.5 1334.625v.4375l152.28125 1.75 195.65625-2.1875z" fill="#fff" opacity=".377049"/></g><g opacity=".040984" transform="matrix(.06763953 0 0 .10757338 99.175584 -65.059561)"><path d="m-866.21875 1332.0625-152.28125 2v.5h347.9375z" opacity=".377049"/><path d="m-1018.5 1334.625v.4375l152.28125 1.75 195.65625-2.1875z" fill="#fff" opacity=".377049"/></g><g opacity=".040984" transform="matrix(.06763961 0 0 .07001725 165.7204 54.69923)"><path d="m-1975.2125 351.23894h492.5064l-242.6185-3.85802z" opacity=".377049"/><path d="m-1975.2125 351.33039h492.5064l-242.6185 3.35361z" fill="#fff" opacity=".377049"/></g><g opacity=".040984" transform="matrix(.06763961 0 0 .07001725 165.7204 54.69923)"><path d="m-1975.2125 351.23894h492.5064l-242.6185-3.85802z" opacity=".377049"/><path d="m-1975.2125 351.33039h492.5064l-242.6185 3.35361z" fill="#fff" opacity=".377049"/></g><g opacity=".040984" transform="matrix(-.05296143 0 0 .07001725 -47.03877 39.47898)"><path d="m-1975.2125 351.23894h492.5064l-242.6185-3.85802z" opacity=".377049"/><path d="m-1975.2125 351.33039h492.5064l-242.6185 3.35361z" fill="#fff" opacity=".377049"/></g><g opacity=".040984" transform="matrix(.06763951 0 0 .10757364 99.175275 -65.059701)"><path d="m-855.96875 1219.5938-162.53125 2.4062v1.25h416.46875z" opacity=".377049"/><path d="m-1018.5 1223.3438v1.0937l162.53125 2.0937 253.9375-3.1874z" fill="#fff" opacity=".377049"/></g><g opacity=".040984" transform="matrix(.06763951 0 0 .10757364 99.175096 -65.059984)"><path d="m-829.53125 1198.4375-188.96875 2.8125v.875h442.90625z" opacity=".377049"/><path d="m-1018.5 1202.1875v.75l188.96875 2.4375 253.9375-3.1875z" fill="#fff" opacity=".377049"/></g><g opacity=".040984" transform="matrix(.06763951 0 0 .10757364 99.175096 -65.059984)"><path d="m-829.53125 1198.4375-188.96875 2.8125v.875h442.90625z" opacity=".377049"/><path d="m-1018.5 1202.1875v.75l188.96875 2.4375 253.9375-3.1875z" fill="#fff" opacity=".377049"/></g><g opacity=".06" transform="matrix(.06763961 0 0 .07001725 170.4736 40.26734)"><path d="m-1975.2125 351.23894h492.5064l-242.6185-3.85802z" opacity=".377049"/><path d="m-1975.2125 351.33039h492.5064l-242.6185 3.35361z" fill="#fff" opacity=".377049"/></g><g opacity=".040984" transform="matrix(.06763961 0 0 .10757364 100.17585 -65.059639)"><path d="m-628.25 1226.9375-324.34375 3.6563h588.375v-.5938z" opacity=".377049"/><path d="m-952.59375 1230.6562 324.34375 3.1876 264.03125-2.6876v-.5z" fill="#fff" opacity=".377049"/></g><g opacity=".06" transform="matrix(.06763961 0 0 .10757364 100.17599 -65.059933)"><path d="m-601.8125 1205.7812-324.34375 3.6563h561.9375v-.9063z" opacity=".377049"/><path d="m-926.15625 1209.5312 324.34375 3.1876 237.59375-2.4063v-.7813z" fill="#fff" opacity=".377049"/></g><path d="m30.942104 113.53564h42.545195l-20.958613-.27015z" opacity=".01"/><path d="m30.942104 113.54203h42.545195l-20.958613.23481z" fill="#fff" opacity=".01"/><path d="m29.50168 115.99377h48.140241l-20.122916-.39346z" opacity=".01"/><path d="m29.50168 116.00311 47.87734.21972-19.860015.1223z" fill="#fff" opacity=".01"/><path d="m26.58563 113.71915h55.21963l-27.2023-.39347z" opacity=".01"/><path d="m26.58563 113.72847 52.534345.055-27.202277.34199-25.332068-.39694z" fill="#fff" opacity=".01"/><path d="m28.241426 113.71915 50.840972.18309-23.707333-.57656z" opacity=".01"/><path d="m79.573396 113.72816v.0269l-24.122907.31603-27.063772-.34291h51.186679z" fill="#fff" opacity=".01"/></g><path d="m102.54545 56c-.61261 4.143409-17.627991 5.971384-38.545453 5.971384-20.91593 0-37.932827-1.829766-38.545453-5.971384z" fill="url(#l)"/></g><path d="m72 1048.3622h55v2h-55z" filter="url(#m)" opacity=".291429"/><path d="m72 1005.3622h55v1h-55z" fill="#fdee85" opacity=".331429"/></g></svg>