<svg height="24" width="24" xmlns="http://www.w3.org/2000/svg" xmlns:xlink="http://www.w3.org/1999/xlink"><linearGradient id="a" gradientTransform="matrix(8.0889801 0 0 7.9869061 48.218484 -.133794)" gradientUnits="userSpaceOnUse" x1="-1.147762" x2="-1.850474" y1="7.029993" y2="4.143643"><stop offset="0" stop-color="#b3b3b3"/><stop offset=".52879584" stop-color="#fff"/><stop offset="1" stop-color="#c5c5c5"/></linearGradient><linearGradient id="b" gradientTransform="matrix(7.5452306 0 0 7.4748734 9.591692 3.506601)" gradientUnits="userSpaceOnUse" x1="3.5" x2="3.5" y1="7.82534" y2="4.878163"><stop offset="0" stop-color="#0968ef"/><stop offset="1" stop-color="#aecffc"/></linearGradient><linearGradient id="c" gradientTransform="matrix(8.0000001 0 0 8.0000039 8 -.000003)" gradientUnits="userSpaceOnUse" x1="3.5" x2="3.5" y1="8" y2="5"><stop offset="0" stop-color="#0057ae"/><stop offset="1" stop-color="#0057ae"/></linearGradient><linearGradient id="d" gradientTransform="matrix(.08097133 0 0 .117107 158.00215 417.399)" gradientUnits="userSpaceOnUse" x1="-333.0289" x2="-333.0289" y1="-1473.6504" y2="-776.61371"><stop offset="0" stop-color="#fff"/><stop offset=".49140647" stop-color="#fff"/><stop offset="1" stop-color="#dcdcdc"/></linearGradient><linearGradient id="e" gradientTransform="matrix(.08097133 0 0 .117107 78.3735 180.5229)" gradientUnits="userSpaceOnUse" x1="399.77466" x2="399.77466" y1="731.09662" y2="480.60214"><stop offset="0" stop-color="#cbcbcd"/><stop offset=".5" stop-color="#e0e0e2"/><stop offset="1" stop-color="#f2f2f2"/></linearGradient><filter id="f"><feGaussianBlur stdDeviation="1.5999062"/></filter><linearGradient id="g" gradientUnits="userSpaceOnUse" x1="1055.3002" x2="1055.3002" y1="-468.66934" y2="-481.76657"><stop offset="0" stop-color="#6f6f6f"/><stop offset="1" stop-color="#fff"/></linearGradient><g transform="matrix(.25 0 0 .25 -17.907163 -60.21902)"><path d="m77.017009 244.87505h85.223281c.76597 0 1.38261.72808 1.38261 1.63246v80.73716c0 .90439-.61664 1.63247-1.38261 1.63247h-85.223279c-.765966 0-1.38261-.72808-1.38261-1.63247l-.000002-80.73716c0-.90438.616644-1.63246 1.38261-1.63246z" style="opacity:.4;fill:none;stroke:#000;stroke-width:4;stroke-linecap:round;stroke-linejoin:round;stroke-dashoffset:4;filter:url(#f)"/><path d="m77.011455 244.8761h85.234385c.76607 0 1.38281.72806 1.38281 1.63242v80.73514c0 .90436-.61674 1.63242-1.38281 1.63242h-85.234383c-.766076 0-1.382808-.72806-1.382808-1.63242l-.000002-80.73514c0-.90436.616732-1.63242 1.382808-1.63242z" fill="url(#e)"/><g id="h"><path d="m1060.3605-478.60516a5.0602889 5.0602889 0 0 1 -5.0603 5.06029 5.0602889 5.0602889 0 0 1 -5.0603-5.06029 5.0602889 5.0602889 0 0 1 5.0603-5.06029 5.0602889 5.0602889 0 0 1 5.0603 5.06029z" fill="url(#g)" transform="matrix(.7904687 0 0 .7904687 -678.5531 631.1985)"/></g><path d="m132.17051 259.80938v-1.92136z" fill="#fff" fill-opacity=".756881"/><path d="m77.00365 244.8761c-.766076 0-1.375.72064-1.375 1.625l.000002 80.74998c0 .90436.608924 1.625 1.375 1.625h85.249998c.76608 0 1.375-.72064 1.375-1.625v-80.74998c0-.90436-.60892-1.625-1.375-1.625zm.9375 2.4375h83.375c.72777 0 1.3125.68271 1.3125 1.53125v77.49998c0 .84854-.58473 1.53125-1.3125 1.53125h-83.374998c-.727772 0-1.3125-.68271-1.3125-1.53125l-.000002-77.49998c0-.84854.584728-1.53125 1.3125-1.53125z" fill="url(#d)"/><path d="m75.62865 264.8761h88v63.99998h-87.999998z" fill="#fff"/><use height="96" transform="translate(-12)" width="96" xlink:href="#h"/><use height="96" transform="translate(-24)" width="96" xlink:href="#h"/><use height="96" transform="translate(-72)" width="96" xlink:href="#h"/><g transform="matrix(.6666667 0 0 .6666667 71.628652 250.20943)"><path d="m25.985773 40h20.028454c1.100118 0 1.985773 1.015115 1.985773 2.276042v19.447916c0 1.260927-.885655 2.276042-1.985773 2.276042h-20.028454c-1.100118 0-1.985773-1.015115-1.985773-2.276042v-19.447916c0-1.260927.885655-2.276042 1.985773-2.276042z" fill="url(#c)"/><path d="m26.881566 42h18.236868c.488388 0 .881566.446449.881566 1.001006v17.997988c0 .554557-.393178 1.001006-.881566 1.001006h-18.236868c-.488388 0-.881566-.446449-.881566-1.001006v-17.997988c0-.554557.393178-1.001006.881566-1.001006z" fill="url(#b)"/><g fill-rule="evenodd"><path d="m26 41.967068 19.994108.088388.005892 5.944544h-6l-7.82985 4h-6.018445z" fill="url(#a)"/><path d="m25.911612 56h6.088388l8-4h6.082368l-.082368-4h-6l-8 4h-5.914433z" fill="#0057ae" opacity=".8"/></g></g><g transform="matrix(.6666667 0 0 .6666667 71.628654 274.20943)"><path d="m25.985773 40h20.028454c1.100118 0 1.985773 1.015115 1.985773 2.276042v19.447916c0 1.260927-.885655 2.276042-1.985773 2.276042h-20.028454c-1.100118 0-1.985773-1.015115-1.985773-2.276042v-19.447916c0-1.260927.885655-2.276042 1.985773-2.276042z" fill="url(#c)"/><path d="m26.881566 42h18.236868c.488388 0 .881566.446449.881566 1.001006v17.997988c0 .554557-.393178 1.001006-.881566 1.001006h-18.236868c-.488388 0-.881566-.446449-.881566-1.001006v-17.997988c0-.554557.393178-1.001006.881566-1.001006z" fill="url(#b)"/><g fill-rule="evenodd"><path d="m26 41.967068 19.994108.088388.005892 5.944544h-6l-7.82985 4h-6.018445z" fill="url(#a)"/><path d="m25.911612 56h6.088388l8-4h6.082368l-.082368-4h-6l-8 4h-5.914433z" fill="#0057ae" opacity=".8"/></g></g><g fill="#bbb" fill-rule="evenodd"><path d="m151.62865 300.87608h-40v4h40z"/><path d="m143.62865 308.87608h-32v4h32z"/><path d="m151.62865 276.87608h-40v4h40z"/><path d="m143.62865 284.87608h-32v4h32z"/></g></g></svg>