<svg fill-rule="evenodd" height="74.083336mm" preserveAspectRatio="xMidYMid" stroke-linejoin="round" stroke-width="28.222" viewBox="0 0 7408.3337 7408.3338" width="74.083336mm" xmlns="http://www.w3.org/2000/svg"><g fill="none"><path d="m6016.1055 881.9447h353.58139v5644.4448h-353.58139z"/><path d="m3684.0757 2240.0186h2693.6472v1178.0688h-2693.6472z"/><path d="m3684.0757 2240.0186h2690.4329v1174.8545h-2690.4329z"/></g><path d="m4359.0963 3119.1506-675.019-292.5083 1343.6093-586.6236 1343.6092 586.6236-1343.6092 585.0165z" fill="#c99c00" fill-opacity=".8" stroke="#fff" stroke-opacity=".8" stroke-width="45.358063"/><g fill="none"><path d="m4355.8804 3095.0427h22.500633v30.536573h-22.500633z"/><path d="m3672.8254 2804.1416h703.94836v343.93826h-703.94836z"/><path d="m3672.8254 2804.1416h702.34119v340.72388h-702.34119z"/></g><path d="m4371.9538 3099.8643-11.2503 19.2863-14.4647 24.1078-673.4118-297.3298 11.2503-20.8935 14.4647-20.8934z" fill="#fff" fill-opacity=".8" stroke="#fff" stroke-opacity=".8" stroke-width="45.358063"/><path d="m3624.6099 2804.1416h70.716278v53.037209h-70.716278z" fill="none"/><path d="m3624.6099 2804.1416h65.894714v48.215645h-65.894714z" fill="none"/><path d="m3677.6486 2804.1417 11.2503 24.1078-11.2503 22.5007-53.0372-22.5007z" fill="#fff" fill-opacity=".8" stroke="#fff" stroke-opacity=".8" stroke-width="45.358063"/><path d="m3672.8254 2217.5181h1374.1459v634.83929h-1374.1459z" fill="none"/><path d="m3672.8254 2217.5181h1370.9314v633.23212h-1370.9314z" fill="none"/><path d="m3698.542 2847.5358-14.4647-19.2863-11.2503-22.5006 1346.8237-586.6237 11.2503 19.2863 11.2503 22.5006z" fill="#fff" fill-opacity=".8" stroke="#fff" stroke-opacity=".8" stroke-width="45.358063"/><path d="m5014.8276 2211.0894h35.358139v35.358139h-35.358139z" fill="none"/><path d="m5014.8276 2211.0894h33.75095v33.75095h-33.75095z" fill="none"/><path d="m5045.3657 2219.1252-14.4647 22.5007-14.4647-22.5007 14.4647-6.4287z" fill="#fff" fill-opacity=".8" stroke="#fff" stroke-opacity=".8" stroke-width="45.358063"/><path d="m5014.8276 2217.5181h1374.1459v634.83929h-1374.1459z" fill="none"/><path d="m5014.8276 2217.5181h1372.5387v633.23212h-1372.5387z" fill="none"/><path d="m5016.4363 2260.9121 11.2503-22.5006 14.4647-19.2863 1343.6092 586.6237-12.8575 22.5006-9.6431 19.2863z" fill="#fff" fill-opacity=".8" stroke="#fff" stroke-opacity=".8" stroke-width="45.358063"/><path d="m6368.0801 2804.1416h70.716278v53.037209h-70.716278z" fill="none"/><path d="m6368.0801 2804.1416h67.5019v48.215645h-67.5019z" fill="none"/><path d="m6380.939 2850.7502-11.2503-22.5007 11.2503-24.1078 53.0372 24.1078z" fill="#fff" fill-opacity=".8" stroke="#fff" stroke-opacity=".8" stroke-width="45.358063"/><path d="m5014.8276 2804.1416h1374.1459v634.83929h-1374.1459z" fill="none"/><path d="m5014.8276 2804.1416h1372.5387v633.23212h-1372.5387z" fill="none"/><path d="m6363.2599 2804.1417 9.6431 20.8934 12.8575 20.8935-1343.6092 588.2308-14.4647-19.2862-11.2503-22.5007z" fill="#fff" fill-opacity=".8" stroke="#fff" stroke-opacity=".8" stroke-width="45.358063"/><path d="m5014.8276 3405.23h35.358139v36.965324h-35.358139z" fill="none"/><path d="m5014.8276 3405.23h33.75095v33.75095h-33.75095z" fill="none"/><path d="m5016.4363 3430.9451 14.4647-24.1079 14.4647 24.1079-14.4647 4.8215z" fill="#fff" fill-opacity=".8" stroke="#fff" stroke-opacity=".8" stroke-width="45.358063"/><path d="m4341.4155 3095.0427h705.5556v343.93826h-705.5556z" fill="none"/><path d="m4341.4155 3095.0427h702.34119v342.33105h-702.34119z" fill="none"/><path d="m5042.1513 3390.7654-11.2503 24.1078-14.4647 19.2862-673.4118-297.3298 11.2503-20.8934 14.4647-20.8935z" fill="#fff" fill-opacity=".8" stroke="#fff" stroke-opacity=".8" stroke-width="45.358063"/><path d="m3684.0757 1071.5929h1351.6451v1761.4781h-1351.6451z" fill="none"/><path d="m3684.0757 1071.5929h1350.038v1759.871h-1350.038z" fill="none"/><path d="m4359.0963 2537.3485-675.019 290.901v-1170.0329l1348.4309-585.0165v1171.6401z" fill="#c99c00" fill-opacity=".8" stroke="#fff" stroke-opacity=".8" stroke-width="45.358063"/><path d="m3672.8254 2510.0264h703.94836v343.93826h-703.94836z" fill="none"/><path d="m3672.8254 2510.0264h702.34119v342.33105h-702.34119z" fill="none"/><path d="m4346.2388 2511.6335 14.4647 19.2862 11.2503 22.5007-673.4118 297.3298-14.4647-24.1079-11.2503-20.8934z" fill="#fff" fill-opacity=".8" stroke="#fff" stroke-opacity=".8" stroke-width="45.358063"/><path d="m3653.5391 2823.428h53.037209v46.608456h-53.037209z" fill="none"/><path d="m3658.3608 2823.428h46.608456v45.001266h-46.608456z" fill="none"/><path d="m3658.3623 2825.0351h32.1438l12.8575 22.5007-45.0013 19.2862z" fill="#fff" fill-opacity=".8" stroke="#fff" stroke-opacity=".8" stroke-width="45.358063"/><path d="m3658.3608 1658.2166h64.287521v1174.8545h-64.287521z" fill="none"/><path d="m3658.3608 1658.2166h62.680336v1173.2473h-62.680336z" fill="none"/><path d="m3719.4355 2828.2495h-32.1438-28.9294v-1170.0329h28.9294 32.1438z" fill="#fff" fill-opacity=".8" stroke="#fff" stroke-opacity=".8" stroke-width="45.358063"/><path d="m3658.3608 1634.1088h36.965324v28.929386h-36.965324z" fill="none"/><path d="m3658.3608 1634.1088h35.358139v27.322197h-35.358139z" fill="none"/><path d="m3677.6486 1634.1088 12.8575 24.1078h-32.1438v-16.0719z" fill="#fff" fill-opacity=".8" stroke="#fff" stroke-opacity=".8" stroke-width="45.358063"/><path d="m3672.8254 1047.4851h1374.1459v638.05365h-1374.1459z" fill="none"/><path d="m3672.8254 1052.3066h1370.9314v633.23212h-1370.9314z" fill="none"/><path d="m3698.542 1682.3244-14.4647-19.2863-11.2503-22.5006 1346.8237-588.2308 11.2503 20.8934 11.2503 20.8935z" fill="#fff" fill-opacity=".8" stroke="#fff" stroke-opacity=".8" stroke-width="45.358063"/><path d="m5014.8276 1034.6276h51.430019v46.608456h-51.430019z" fill="none"/><path d="m5014.8276 1034.6276h48.215645v45.001266h-48.215645z" fill="none"/><path d="m5059.8304 1076.4145h-28.9294l-14.4647-24.1078 43.3941-17.6791z" fill="#fff" fill-opacity=".8" stroke="#fff" stroke-opacity=".8" stroke-width="45.358063"/><path d="m4998.7554 1071.5929h65.894714v1179.676h-65.894714z" fill="none"/><path d="m4998.7554 1071.5929h64.287521v1174.8545h-64.287521z" fill="none"/><path d="m5000.3644 1073.2001h27.3222 32.1438v1171.6401h-32.1438-27.3222z" fill="#fff" fill-opacity=".8" stroke="#fff" stroke-opacity=".8" stroke-width="45.358063"/><path d="m5026.0776 2240.0186h36.965324v28.929386h-36.965324z" fill="none"/><path d="m5026.0776 2240.0186h33.75095v27.322197h-33.75095z" fill="none"/><path d="m5040.5441 2264.1265-14.4647-24.1078h32.1438v20.8934z" fill="#fff" fill-opacity=".8" stroke="#fff" stroke-opacity=".8" stroke-width="45.358063"/><path d="m4341.4155 2219.1252h705.5556v347.15262h-705.5556z" fill="none"/><path d="m4341.4155 2219.1252h702.34119v342.33105h-702.34119z" fill="none"/><path d="m5016.4363 2220.7324 14.4647 19.2863 11.2503 22.5006-673.4118 297.3298-14.4647-24.1078-11.2503-20.8935z" fill="#fff" fill-opacity=".8" stroke="#fff" stroke-opacity=".8" stroke-width="45.358063"/><path d="m5026.0776 1071.5929h1351.6451v1761.4781h-1351.6451z" fill="none"/><path d="m5026.0776 1071.5929h1350.038v1759.871h-1350.038z" fill="none"/><path d="m5699.4912 2537.3485 673.4118 290.901v-1170.0329l-1346.8236-585.0165v1171.6401z" fill="#c99c00" fill-opacity=".8" stroke="#fff" stroke-opacity=".8" stroke-width="45.358063"/><g fill="none"><path d="m5685.0249 2534.134h22.500633v32.143761h-22.500633z"/><path d="m5685.0249 2510.0264h703.94836v343.93826h-703.94836z"/><path d="m5685.0249 2510.0264h702.34119v342.33105h-702.34119z"/></g><path d="m5685.0265 2553.4204 12.8575-22.5007 14.4647-19.2862 673.4118 294.1154-12.8575 20.8934-12.8575 24.1079z" fill="#fff" fill-opacity=".8" stroke="#fff" stroke-opacity=".8" stroke-width="45.358063"/><path d="m6355.2222 2825.0352h49.82283v48.215645h-49.82283z" fill="none"/><path d="m6355.2222 2825.0352h46.608456v45.001266h-46.608456z" fill="none"/><path d="m6355.224 2850.7502 14.4647-24.1079h28.9293v41.7869z" fill="#fff" fill-opacity=".8" stroke="#fff" stroke-opacity=".8" stroke-width="45.358063"/><path d="m6339.1504 1658.2166h65.894714v1178.0688h-65.894714z" fill="none"/><path d="m6340.7578 1658.2166h62.680336v1174.8545h-62.680336z" fill="none"/><path d="m6401.8324 2829.8567h-32.1437-28.9294v-1171.6401h28.9294 32.1437z" fill="#fff" fill-opacity=".8" stroke="#fff" stroke-opacity=".8" stroke-width="45.358063"/><path d="m6368.0801 1634.1088h36.965324v28.929386h-36.965324z" fill="none"/><path d="m6368.0801 1634.1088h35.358139v27.322197h-35.358139z" fill="none"/><path d="m6401.8324 1658.2166h-32.1437l14.4646-24.1078 17.6791 8.0359z" fill="#fff" fill-opacity=".8" stroke="#fff" stroke-opacity=".8" stroke-width="45.358063"/><path d="m5014.8276 1047.4851h1374.1459v638.05365h-1374.1459z" fill="none"/><path d="m5014.8276 1052.3066h1372.5387v633.23212h-1372.5387z" fill="none"/><path d="m6385.7605 1640.5375-12.8575 22.5006-9.6431 19.2863-1346.8236-588.2308 11.2503-20.8935 14.4647-20.8934z" fill="#fff" fill-opacity=".8" stroke="#fff" stroke-opacity=".8" stroke-width="45.358063"/><path d="m4998.7554 1034.6276h51.430019v46.608456h-51.430019z" fill="none"/><path d="m4998.7554 1034.6276h48.215645v45.001266h-48.215645z" fill="none"/><path d="m5043.7585 1052.3067-11.2503 24.1078h-32.1438v-41.7869z" fill="#fff" fill-opacity=".8" stroke="#fff" stroke-opacity=".8" stroke-width="45.358063"/><path d="m4998.7554 1071.5929h65.894714v1179.676h-65.894714z" fill="none"/><path d="m4998.7554 1071.5929h64.287521v1174.8545h-64.287521z" fill="none"/><path d="m5000.3644 1073.2001h27.3222 32.1438v1171.6401h-32.1438-27.3222z" fill="#fff" fill-opacity=".8" stroke="#fff" stroke-opacity=".8" stroke-width="45.358063"/><path d="m4998.7554 2240.0186h36.965324v28.929386h-36.965324z" fill="none"/><path d="m4998.7554 2240.0186h35.358139v27.322197h-35.358139z" fill="none"/><path d="m5000.3644 2240.0187h32.1438l-14.4647 24.1078-17.6791-3.2144z" fill="#fff" fill-opacity=".8" stroke="#fff" stroke-opacity=".8" stroke-width="45.358063"/><path d="m5014.8276 2219.1252h705.5556v347.15262h-705.5556z" fill="none"/><path d="m5014.8276 2219.1252h703.94836v342.33105h-703.94836z" fill="none"/><path d="m5016.4363 2262.5193 11.2503-22.5006 14.4647-19.2863 673.4118 294.1154-11.2503 24.1079-14.4647 20.8934z" fill="#fff" fill-opacity=".8" stroke="#fff" stroke-opacity=".8" stroke-width="45.358063"/><path d="m3684.0757 1071.5929h2693.6472v1179.676h-2693.6472z" fill="none"/><path d="m3684.0757 1071.5929h2690.4329v1174.8545h-2690.4329z" fill="none"/><path d="m4359.0963 1950.7248-675.019-292.5082 1343.6093-585.0165 1343.6092 585.0165-1343.6092 586.6236z" fill="#c99c00" fill-opacity=".8" stroke="#fff" stroke-opacity=".8" stroke-width="45.358063"/><g fill="none"><path d="m4355.8804 1926.6169h22.500633v28.929386h-22.500633z"/><path d="m3672.8254 1634.1088h703.94836v343.93826h-703.94836z"/><path d="m3672.8254 1634.1088h702.34119v342.33105h-702.34119z"/></g><path d="m4371.9538 1929.8314-11.2503 19.2862-14.4647 24.1078-673.4118-297.3297 11.2503-20.8935 14.4647-20.8934z" fill="#fff" fill-opacity=".8" stroke="#fff" stroke-opacity=".8" stroke-width="45.358063"/><path d="m3624.6099 1634.1088h70.716278v53.037209h-70.716278z" fill="none"/><path d="m3624.6099 1634.1088h65.894714v48.215645h-65.894714z" fill="none"/><path d="m3677.6486 1634.1088 11.2503 24.1078-11.2503 22.5006-53.0372-22.5006z" fill="#fff" fill-opacity=".8" stroke="#fff" stroke-opacity=".8" stroke-width="45.358063"/><path d="m3672.8254 1047.4851h1374.1459v634.83929h-1374.1459z" fill="none"/><path d="m3672.8254 1047.4851h1370.9314v633.23212h-1370.9314z" fill="none"/><path d="m3698.542 1679.11-14.4647-20.8934-11.2503-22.5007 1346.8237-586.6236 11.2503 19.2862 11.2503 22.5007z" fill="#fff" fill-opacity=".8" stroke="#fff" stroke-opacity=".8" stroke-width="45.358063"/><path d="m5014.8276 1044.2708h35.358139v36.965324h-35.358139z" fill="none"/><path d="m5014.8276 1044.2708h33.75095v32.143761h-33.75095z" fill="none"/><path d="m5045.3657 1050.6995-14.4647 24.1078-14.4647-24.1078 14.4647-6.4288z" fill="#fff" fill-opacity=".8" stroke="#fff" stroke-opacity=".8" stroke-width="45.358063"/><path d="m5014.8276 1047.4851h1374.1459v634.83929h-1374.1459z" fill="none"/><path d="m5014.8276 1047.4851h1372.5387v633.23212h-1372.5387z" fill="none"/><path d="m5016.4363 1090.8792 11.2503-22.5007 14.4647-19.2862 1343.6092 586.6236-12.8575 22.5007-9.6431 20.8934z" fill="#fff" fill-opacity=".8" stroke="#fff" stroke-opacity=".8" stroke-width="45.358063"/><path d="m6368.0801 1634.1088h70.716278v53.037209h-70.716278z" fill="none"/><path d="m6368.0801 1634.1088h67.5019v48.215645h-67.5019z" fill="none"/><path d="m6380.939 1680.7172-11.2503-22.5006 11.2503-24.1078 53.0372 24.1078z" fill="#fff" fill-opacity=".8" stroke="#fff" stroke-opacity=".8" stroke-width="45.358063"/><path d="m5014.8276 1632.5016h1374.1459v636.44647h-1374.1459z" fill="none"/><path d="m5014.8276 1634.1088h1372.5387v633.23212h-1372.5387z" fill="none"/><path d="m6363.2599 1634.1088 9.6431 20.8934 12.8575 20.8935-1343.6092 588.2308-14.4647-19.2863-11.2503-22.5006z" fill="#fff" fill-opacity=".8" stroke="#fff" stroke-opacity=".8" stroke-width="45.358063"/><path d="m5014.8276 2240.0186h35.358139v35.358139h-35.358139z" fill="none"/><path d="m5014.8276 2240.0186h33.75095v32.143761h-33.75095z" fill="none"/><path d="m5016.4363 2264.1265 14.4647-24.1078 14.4647 24.1078-14.4647 6.4287z" fill="#fff" fill-opacity=".8" stroke="#fff" stroke-opacity=".8" stroke-width="45.358063"/><path d="m4341.4155 1926.6169h705.5556v343.93826h-705.5556z" fill="none"/><path d="m4341.4155 1926.6169h702.34119v342.33105h-702.34119z" fill="none"/><path d="m5042.1513 2222.3396-11.2503 24.1078-14.4647 19.2863-673.4118-295.7226 11.2503-22.5007 14.4647-19.2862z" fill="#fff" fill-opacity=".8" stroke="#fff" stroke-opacity=".8" stroke-width="45.358063"/><path d="m5026.0776 1658.2166h1351.6451v1759.871h-1351.6451z" fill="none"/><path d="m5026.0776 1658.2166h1350.038v1758.2638h-1350.038z" fill="none"/><path d="m5699.4912 3123.9721-673.4118 290.9011v-1170.033l1346.8236-586.6236v1171.6401z" fill="#c99c00" fill-opacity=".8" stroke="#fff" stroke-opacity=".8" stroke-width="45.358063"/><path d="m5014.8276 3095.0427h705.5556v343.93826h-705.5556z" fill="none"/><path d="m5014.8276 3095.0427h703.94836v342.33105h-703.94836z" fill="none"/><path d="m5689.8481 3095.0427 14.4647 20.8935 11.2503 20.8934-673.4118 297.3298-14.4647-24.1078-11.2503-19.2862z" fill="#fff" fill-opacity=".8" stroke="#fff" stroke-opacity=".8" stroke-width="45.358063"/><path d="m4998.7554 3405.23h51.430019v46.608456h-51.430019z" fill="none"/><path d="m4998.7554 3405.23h48.215645v45.001266h-48.215645z" fill="none"/><path d="m5000.3644 3406.8372h32.1438l11.2503 24.1079-43.3941 17.679z" fill="#fff" fill-opacity=".8" stroke="#fff" stroke-opacity=".8" stroke-width="45.358063"/><path d="m4998.7554 2240.0186h65.894714v1174.8545h-65.894714z" fill="none"/><path d="m4998.7554 2240.0186h64.287521v1173.2473h-64.287521z" fill="none"/><path d="m5059.8304 3410.0516h-32.1438-27.3222v-1170.0329h27.3222 32.1438z" fill="#fff" fill-opacity=".8" stroke="#fff" stroke-opacity=".8" stroke-width="45.358063"/><path d="m4998.7554 2219.1252h36.965324v28.929386h-36.965324z" fill="none"/><path d="m4998.7554 2219.1252h35.358139v27.322197h-35.358139z" fill="none"/><path d="m5018.0435 2220.7324 14.4647 24.1078h-32.1438v-16.0718z" fill="#fff" fill-opacity=".8" stroke="#fff" stroke-opacity=".8" stroke-width="45.358063"/><path d="m5014.8276 1632.5016h1374.1459v636.44647h-1374.1459z" fill="none"/><path d="m5014.8276 1634.1088h1372.5387v633.23212h-1372.5387z" fill="none"/><path d="m5042.1513 2264.1265-14.4647-19.2863-11.2503-22.5006 1346.8236-588.2308 9.6431 20.8934 12.8575 20.8935z" fill="#fff" fill-opacity=".8" stroke="#fff" stroke-opacity=".8" stroke-width="45.358063"/><path d="m6355.2222 1618.0369h49.82283v46.608456h-49.82283z" fill="none"/><path d="m6355.2222 1618.0369h46.608456v45.001266h-46.608456z" fill="none"/><path d="m6398.618 1659.8238h-28.9293l-14.4647-24.1079 43.394-17.679z" fill="#fff" fill-opacity=".8" stroke="#fff" stroke-opacity=".8" stroke-width="45.358063"/><path d="m6339.1504 1658.2166h65.894714v1178.0688h-65.894714z" fill="none"/><path d="m6340.7578 1658.2166h62.680336v1174.8545h-62.680336z" fill="none"/><path d="m6340.7593 1658.2166h28.9294 32.1437v1171.6401h-32.1437-28.9294z" fill="#fff" fill-opacity=".8" stroke="#fff" stroke-opacity=".8" stroke-width="45.358063"/><path d="m6368.0801 2825.0352h36.965324v28.929386h-36.965324z" fill="none"/><path d="m6368.0801 2825.0352h35.358139v27.322197h-35.358139z" fill="none"/><path d="m6384.1533 2850.7502-14.4646-24.1079h32.1437v19.2863z" fill="#fff" fill-opacity=".8" stroke="#fff" stroke-opacity=".8" stroke-width="45.358063"/><path d="m5685.0249 2804.1416h703.94836v343.93826h-703.94836z" fill="none"/><path d="m5685.0249 2804.1416h702.34119v340.72388h-702.34119z" fill="none"/><path d="m6360.0455 2804.1417 12.8575 20.8934 12.8575 20.8935-673.4118 297.3298-14.4647-24.1078-12.8575-19.2863z" fill="#fff" fill-opacity=".8" stroke="#fff" stroke-opacity=".8" stroke-width="45.358063"/><path d="m3684.0757 1653.395h1351.6451v1761.4781h-1351.6451z" fill="none"/><path d="m3684.0757 1653.395h1350.038v1759.871h-1350.038z" fill="none"/><path d="m4359.0963 3119.1506 673.4119 290.901v-1170.0329l-1348.4309-585.0165v1171.6401z" fill="#c99c00" fill-opacity=".8" stroke="#fff" stroke-opacity=".8" stroke-width="45.358063"/><g fill="none"><path d="m4341.4155 3114.3289h24.107822v30.536573h-24.107822z"/><path d="m4341.4155 3095.0427h705.5556v343.93826h-705.5556z"/><path d="m4341.4155 3095.0427h702.34119v342.33105h-702.34119z"/></g><path d="m4343.0245 3136.8296 11.2503-20.8934 14.4647-20.8935 673.4118 295.7227-11.2503 19.2862-14.4647 24.1078z" fill="#fff" fill-opacity=".8" stroke="#fff" stroke-opacity=".8" stroke-width="45.358063"/><path d="m5014.8276 3405.23h51.430019v46.608456h-51.430019z" fill="none"/><path d="m5014.8276 3405.23h48.215645v45.001266h-48.215645z" fill="none"/><path d="m5016.4363 3430.9451 14.4647-24.1079h28.9294v41.7869z" fill="#fff" fill-opacity=".8" stroke="#fff" stroke-opacity=".8" stroke-width="45.358063"/><path d="m4998.7554 2240.0186h65.894714v1178.0688h-65.894714z" fill="none"/><path d="m4998.7554 2240.0186h64.287521v1174.8545h-64.287521z" fill="none"/><path d="m5059.8304 3411.6588h-32.1438-27.3222v-1171.6401h27.3222 32.1438z" fill="#fff" fill-opacity=".8" stroke="#fff" stroke-opacity=".8" stroke-width="45.358063"/><path d="m5026.0776 2217.5181h36.965324v30.536573h-36.965324z" fill="none"/><path d="m5026.0776 2217.5181h33.75095v27.322197h-33.75095z" fill="none"/><path d="m5058.2232 2241.6259h-32.1438l14.4647-22.5007 17.6791 8.036z" fill="#fff" fill-opacity=".8" stroke="#fff" stroke-opacity=".8" stroke-width="45.358063"/><path d="m3672.8254 1632.5016h1374.1459v636.44647h-1374.1459z" fill="none"/><path d="m3672.8254 1634.1088h1370.9314v633.23212h-1370.9314z" fill="none"/><path d="m5042.1513 2222.3396-11.2503 22.5006-11.2503 19.2863-1346.8237-588.2308 11.2503-20.8935 14.4647-20.8934z" fill="#fff" fill-opacity=".8" stroke="#fff" stroke-opacity=".8" stroke-width="45.358063"/><path d="m3653.5391 1618.0369h53.037209v46.608456h-53.037209z" fill="none"/><path d="m3658.3608 1618.0369h46.608456v45.001266h-46.608456z" fill="none"/><path d="m3703.3636 1635.7159-12.8575 24.1079h-32.1438v-41.7869z" fill="#fff" fill-opacity=".8" stroke="#fff" stroke-opacity=".8" stroke-width="45.358063"/><path d="m3658.3608 1653.395h64.287521v1179.676h-64.287521z" fill="none"/><path d="m3658.3608 1653.395h62.680336v1179.676h-62.680336z" fill="none"/><path d="m3658.3623 1655.0022h28.9294 32.1438v1174.8545h-32.1438-28.9294z" fill="#fff" fill-opacity=".8" stroke="#fff" stroke-opacity=".8" stroke-width="45.358063"/><path d="m3658.3608 2823.428h36.965324v28.929386h-36.965324z" fill="none"/><path d="m3658.3608 2823.428h35.358139v27.322197h-35.358139z" fill="none"/><path d="m3658.3623 2825.0351h32.1438l-12.8575 22.5007-19.2863-3.2144z" fill="#fff" fill-opacity=".8" stroke="#fff" stroke-opacity=".8" stroke-width="45.358063"/><path d="m3672.8254 2804.1416h703.94836v343.93826h-703.94836z" fill="none"/><path d="m3672.8254 2804.1416h702.34119v340.72388h-702.34119z" fill="none"/><path d="m3672.827 2845.9286 11.2503-20.8935 14.4647-20.8934 673.4118 295.7226-11.2503 24.1078-14.4647 19.2863z" fill="#fff" fill-opacity=".8" stroke="#fff" stroke-opacity=".8" stroke-width="45.358063"/><path d="m2379.0391 3974.1746h2693.6472v1178.0688h-2693.6472z" fill="none"/><path d="m2379.0391 3974.1746h2693.6472v1174.8545h-2693.6472z" fill="none"/><path d="m3052.4524 4853.3065-673.4118-292.5082 1345.2164-586.6237 1345.2165 586.6237-1345.2165 585.0165z" fill="#8e03a3" fill-opacity=".8" stroke="#fff" stroke-opacity=".8" stroke-width="45.358063"/><g fill="none"><path d="m3052.4509 4829.1987h22.500633v30.536573h-22.500633z"/><path d="m2366.1814 4538.2979h705.5556v343.93826h-705.5556z"/><path d="m2366.1814 4538.2979h703.94836v340.72388h-703.94836z"/></g><path d="m3066.9171 4834.0203-11.2503 19.2862-14.4647 24.1078-673.4118-297.3298 11.2503-22.5006 14.4647-19.2862z" fill="#fff" fill-opacity=".8" stroke="#fff" stroke-opacity=".8" stroke-width="45.358063"/><path d="m2319.573 4533.4761h72.323463v54.644394h-72.323463z" fill="none"/><path d="m2319.573 4538.2979h65.894714v48.215645h-65.894714z" fill="none"/><path d="m2371.0047 4538.2977 12.8575 24.1078-12.8575 22.5006-51.4301-22.5006z" fill="#fff" fill-opacity=".8" stroke="#fff" stroke-opacity=".8" stroke-width="45.358063"/><path d="m2366.1814 3951.6741h1374.1459v636.44647h-1374.1459z" fill="none"/><path d="m2366.1814 3953.2812h1372.5387v633.23212h-1372.5387z" fill="none"/><path d="m2393.5053 4584.9061-14.4647-20.8934-11.2503-20.8935 1346.8236-588.2308 9.6431 19.2862 12.8575 22.5007z" fill="#fff" fill-opacity=".8" stroke="#fff" stroke-opacity=".8" stroke-width="45.358063"/><path d="m3709.7908 3945.2451h36.965324v35.358139h-36.965324z" fill="none"/><path d="m3709.7908 3945.2451h33.75095v33.75095h-33.75095z" fill="none"/><path d="m3740.3289 3951.674-16.0719 24.1078-12.8575-24.1078 12.8575-4.8216z" fill="#fff" fill-opacity=".8" stroke="#fff" stroke-opacity=".8" stroke-width="45.358063"/><path d="m3709.7908 3951.6741h1374.1459v636.44647h-1374.1459z" fill="none"/><path d="m3709.7908 3953.2812h1372.5387v633.23212h-1372.5387z" fill="none"/><path d="m3711.3995 3996.6753 11.2504-22.5007 14.4646-19.2862 1343.6093 588.2308-12.8575 20.8935-9.6431 20.8934z" fill="#fff" fill-opacity=".8" stroke="#fff" stroke-opacity=".8" stroke-width="45.358063"/><path d="m5064.6504 4533.4761h69.109085v54.644394h-69.109085z" fill="none"/><path d="m5064.6504 4538.2979h67.5019v48.215645h-67.5019z" fill="none"/><path d="m5077.5094 4584.9061-11.2503-22.5006 11.2503-24.1078 53.0372 24.1078z" fill="#fff" fill-opacity=".8" stroke="#fff" stroke-opacity=".8" stroke-width="45.358063"/><path d="m3709.7908 4538.2979h1374.1459v634.83929h-1374.1459z" fill="none"/><path d="m3709.7908 4538.2979h1372.5387v631.62494h-1372.5387z" fill="none"/><path d="m5058.2232 4538.2977 9.6431 19.2862 12.8575 22.5006-1343.6093 588.2309-14.4646-20.8935-11.2504-20.8934z" fill="#fff" fill-opacity=".8" stroke="#fff" stroke-opacity=".8" stroke-width="45.358063"/><path d="m3709.7908 5140.9932h36.965324v36.965324h-36.965324z" fill="none"/><path d="m3709.7908 5140.9932h33.75095v33.75095h-33.75095z" fill="none"/><path d="m3711.3995 5166.7082 12.8575-24.1078 16.0719 24.1078-16.0719 4.8216z" fill="#fff" fill-opacity=".8" stroke="#fff" stroke-opacity=".8" stroke-width="45.358063"/><path d="m3039.5933 4829.1987h705.5556v345.54544h-705.5556z" fill="none"/><path d="m3039.5933 4829.1987h703.94836v340.72388h-703.94836z" fill="none"/><path d="m3740.3289 5124.9213-11.2503 22.5006-14.4647 20.8935-673.4118-297.3298 11.2503-22.5006 14.4647-19.2863z" fill="#fff" fill-opacity=".8" stroke="#fff" stroke-opacity=".8" stroke-width="45.358063"/><path d="m2379.0391 2807.356h1351.6451v1761.4781h-1351.6451z" fill="none"/><path d="m2379.0391 2807.356h1350.038v1759.871h-1350.038z" fill="none"/><path d="m3052.4524 4273.1116-673.4118 290.9011v-1170.033l1348.4308-585.0164v1171.6401z" fill="#8e03a3" fill-opacity=".8" stroke="#fff" stroke-opacity=".8" stroke-width="45.358063"/><path d="m2366.1814 4244.1821h705.5556v343.93826h-705.5556z" fill="none"/><path d="m2366.1814 4244.1821h703.94836v342.33105h-703.94836z" fill="none"/><path d="m3041.2021 4245.7894 14.4647 19.2863 11.2503 22.5006-673.4118 297.3298-14.4647-24.1078-11.2503-20.8935z" fill="#fff" fill-opacity=".8" stroke="#fff" stroke-opacity=".8" stroke-width="45.358063"/><path d="m2353.324 4557.584h48.215645v46.608456h-48.215645z" fill="none"/><path d="m2353.324 4557.584h46.608456v45.001266h-46.608456z" fill="none"/><path d="m2353.3256 4557.5839h32.1438l11.2503 24.1078-43.3941 17.6791z" fill="#fff" fill-opacity=".8" stroke="#fff" stroke-opacity=".8" stroke-width="45.358063"/><path d="m2353.324 3390.7654h64.287521v1176.4617h-64.287521z" fill="none"/><path d="m2353.324 3390.7654h62.680336v1173.2473h-62.680336z" fill="none"/><path d="m2412.7916 4562.4055h-32.1438-27.3222v-1170.033h27.3222 32.1438z" fill="#fff" fill-opacity=".8" stroke="#fff" stroke-opacity=".8" stroke-width="45.358063"/><path d="m2353.324 3368.2646h36.965324v32.143761h-36.965324z" fill="none"/><path d="m2353.324 3371.479h33.75095v27.322197h-33.75095z" fill="none"/><path d="m2371.0047 3373.0863 14.4647 22.5006h-32.1438v-14.4647z" fill="#fff" fill-opacity=".8" stroke="#fff" stroke-opacity=".8" stroke-width="45.358063"/><path d="m2366.1814 2786.4626h1374.1459v634.83929h-1374.1459z" fill="none"/><path d="m2366.1814 2786.4626h1372.5387v631.62494h-1372.5387z" fill="none"/><path d="m2393.5053 3416.4804-14.4647-20.8935-11.2503-20.8934 1346.8236-588.2309 9.6431 19.2863 12.8575 22.5006z" fill="#fff" fill-opacity=".8" stroke="#fff" stroke-opacity=".8" stroke-width="45.358063"/><path d="m3709.7908 2767.1763h49.82283v48.215645h-49.82283z" fill="none"/><path d="m3709.7908 2767.1763h46.608456v45.001266h-46.608456z" fill="none"/><path d="m3754.7936 2810.5704h-30.5366l-12.8575-24.1078 43.3941-17.679z" fill="#fff" fill-opacity=".8" stroke="#fff" stroke-opacity=".8" stroke-width="45.358063"/><path d="m3693.7188 2807.356h65.894714v1181.2832h-65.894714z" fill="none"/><path d="m3693.7188 2807.356h62.680336v1179.676h-62.680336z" fill="none"/><path d="m3695.3277 2808.9633h27.3222 32.1437v1174.8545h-32.1437-27.3222z" fill="#fff" fill-opacity=".8" stroke="#fff" stroke-opacity=".8" stroke-width="45.358063"/><path d="m3722.6482 3974.1746h36.965324v32.143761h-36.965324z" fill="none"/><path d="m3722.6482 3975.7817h33.75095v27.322197h-33.75095z" fill="none"/><path d="m3737.1145 3999.8896-14.4646-24.1078h32.1437v20.8935z" fill="#fff" fill-opacity=".8" stroke="#fff" stroke-opacity=".8" stroke-width="45.358063"/><path d="m3039.5933 3953.2812h705.5556v343.93826h-705.5556z" fill="none"/><path d="m3039.5933 3953.2812h703.94836v342.33105h-703.94836z" fill="none"/><path d="m3714.6139 3954.8884 14.4647 19.2862 11.2503 22.5007-673.4118 295.7226-14.4647-22.5007-11.2503-20.8934z" fill="#fff" fill-opacity=".8" stroke="#fff" stroke-opacity=".8" stroke-width="45.358063"/><path d="m3722.6482 2807.356h1351.6451v1761.4781h-1351.6451z" fill="none"/><path d="m3722.6482 2807.356h1350.038v1759.871h-1350.038z" fill="none"/><path d="m4396.0617 4273.1116 673.4118 290.9011v-1170.033l-1346.8236-585.0164v1171.6401z" fill="#8e03a3" fill-opacity=".8" stroke="#fff" stroke-opacity=".8" stroke-width="45.358063"/><g fill="none"><path d="m4379.9883 4268.29h22.500633v30.536573h-22.500633z"/><path d="m4379.9883 4249.0039h703.94836v345.54544h-703.94836z"/><path d="m4379.9883 4249.0039h702.34119v342.33105h-702.34119z"/></g><path d="m4379.9898 4290.7907 12.8575-20.8935 12.8575-20.8934 675.019 295.7226-12.8575 19.2863-14.4647 24.1078z" fill="#fff" fill-opacity=".8" stroke="#fff" stroke-opacity=".8" stroke-width="45.358063"/><path d="m5053.3999 4559.1909h51.430019v46.608456h-51.430019z" fill="none"/><path d="m5053.3999 4559.1909h46.608456v45.001266h-46.608456z" fill="none"/><path d="m5053.4016 4584.9061 14.4647-24.1078h30.5366v41.7869z" fill="#fff" fill-opacity=".8" stroke="#fff" stroke-opacity=".8" stroke-width="45.358063"/><path d="m5037.3281 3390.7654h64.287521v1179.676h-64.287521z" fill="none"/><path d="m5037.3281 3390.7654h62.680336v1176.4617h-62.680336z" fill="none"/><path d="m5098.4029 4564.0127h-32.1438-28.9294v-1171.6402h28.9294 32.1438z" fill="#fff" fill-opacity=".8" stroke="#fff" stroke-opacity=".8" stroke-width="45.358063"/><path d="m5063.043 3368.2646h38.572514v32.143761h-38.572514z" fill="none"/><path d="m5064.6504 3371.479h35.358139v27.322197h-35.358139z" fill="none"/><path d="m5098.4029 3395.5869h-32.1438l14.4647-22.5006 17.6791 8.0359z" fill="#fff" fill-opacity=".8" stroke="#fff" stroke-opacity=".8" stroke-width="45.358063"/><path d="m3709.7908 2786.4626h1374.1459v634.83929h-1374.1459z" fill="none"/><path d="m3709.7908 2786.4626h1372.5387v631.62494h-1372.5387z" fill="none"/><path d="m5080.7238 3374.6935-12.8575 20.8934-9.6431 20.8935-1346.8237-588.2309 11.2504-22.5006 14.4646-19.2863z" fill="#fff" fill-opacity=".8" stroke="#fff" stroke-opacity=".8" stroke-width="45.358063"/><path d="m3692.1116 2767.1763h53.037209v48.215645h-53.037209z" fill="none"/><path d="m3693.7188 2767.1763h46.608456v45.001266h-46.608456z" fill="none"/><path d="m3738.7217 2786.4626-11.2503 24.1078h-32.1437v-41.7868z" fill="#fff" fill-opacity=".8" stroke="#fff" stroke-opacity=".8" stroke-width="45.358063"/><path d="m3693.7188 2807.356h65.894714v1181.2832h-65.894714z" fill="none"/><path d="m3693.7188 2807.356h62.680336v1179.676h-62.680336z" fill="none"/><path d="m3695.3277 2808.9633h27.3222 32.1437v1174.8545h-32.1437-27.3222z" fill="#fff" fill-opacity=".8" stroke="#fff" stroke-opacity=".8" stroke-width="45.358063"/><path d="m3693.7188 3974.1746h36.965324v32.143761h-36.965324z" fill="none"/><path d="m3693.7188 3975.7817h35.358139v27.322197h-35.358139z" fill="none"/><path d="m3695.3277 3975.7818h32.1437l-14.4647 24.1078-17.679-3.2143z" fill="#fff" fill-opacity=".8" stroke="#fff" stroke-opacity=".8" stroke-width="45.358063"/><path d="m3708.1836 3953.2812h707.16278v343.93826h-707.16278z" fill="none"/><path d="m3709.7908 3953.2812h702.34119v342.33105h-702.34119z" fill="none"/><path d="m3711.3995 3996.6753 11.2504-22.5007 14.4646-19.2862 673.4119 294.1154-12.8575 24.1078-12.8575 19.2863z" fill="#fff" fill-opacity=".8" stroke="#fff" stroke-opacity=".8" stroke-width="45.358063"/><path d="m2379.0391 2805.7488h2693.6472v1179.676h-2693.6472z" fill="none"/><path d="m2379.0391 2805.7488h2693.6472v1174.8545h-2693.6472z" fill="none"/><path d="m3052.4524 3684.8808-673.4118-292.5083 1345.2164-586.6236 1345.2165 586.6236-1345.2165 586.6237z" fill="#8e03a3" fill-opacity=".8" stroke="#fff" stroke-opacity=".8" stroke-width="45.358063"/><g fill="none"><path d="m3052.4509 3660.7729h22.500633v28.929386h-22.500633z"/><path d="m2366.1814 3368.2646h705.5556v343.93826h-705.5556z"/><path d="m2366.1814 3368.2646h703.94836v340.72388h-703.94836z"/></g><path d="m3066.9171 3663.9873-11.2503 19.2863-14.4647 24.1078-673.4118-297.3298 11.2503-20.8934 14.4647-20.8935z" fill="#fff" fill-opacity=".8" stroke="#fff" stroke-opacity=".8" stroke-width="45.358063"/><path d="m2319.573 3368.2646h72.323463v53.037209h-72.323463z" fill="none"/><path d="m2319.573 3368.2646h65.894714v49.82283h-65.894714z" fill="none"/><path d="m2371.0047 3368.2647 12.8575 24.1078-12.8575 24.1079-51.4301-24.1079z" fill="#fff" fill-opacity=".8" stroke="#fff" stroke-opacity=".8" stroke-width="45.358063"/><path d="m2366.1814 2786.4626h1374.1459v634.83929h-1374.1459z" fill="none"/><path d="m2366.1814 2786.4626h1372.5387v631.62494h-1372.5387z" fill="none"/><path d="m2393.5053 3416.4804-14.4647-20.8935-11.2503-20.8934 1346.8236-588.2309 9.6431 19.2863 12.8575 22.5006z" fill="#fff" fill-opacity=".8" stroke="#fff" stroke-opacity=".8" stroke-width="45.358063"/><path d="m3709.7908 2780.0339h36.965324v35.358139h-36.965324z" fill="none"/><path d="m3709.7908 2780.0339h33.75095v32.143761h-33.75095z" fill="none"/><path d="m3740.3289 2786.4626-16.0719 24.1078-12.8575-24.1078 12.8575-6.4287z" fill="#fff" fill-opacity=".8" stroke="#fff" stroke-opacity=".8" stroke-width="45.358063"/><path d="m3709.7908 2786.4626h1374.1459v634.83929h-1374.1459z" fill="none"/><path d="m3709.7908 2786.4626h1372.5387v631.62494h-1372.5387z" fill="none"/><path d="m3711.3995 2828.2495 11.2504-22.5006 14.4646-19.2863 1343.6093 588.2309-12.8575 20.8934-9.6431 20.8935z" fill="#fff" fill-opacity=".8" stroke="#fff" stroke-opacity=".8" stroke-width="45.358063"/><path d="m5064.6504 3368.2646h69.109085v53.037209h-69.109085z" fill="none"/><path d="m5064.6504 3368.2646h67.5019v49.82283h-67.5019z" fill="none"/><path d="m5077.5094 3416.4804-11.2503-24.1079 11.2503-24.1078 53.0372 24.1078z" fill="#fff" fill-opacity=".8" stroke="#fff" stroke-opacity=".8" stroke-width="45.358063"/><path d="m3709.7908 3368.2646h1374.1459v634.83929h-1374.1459z" fill="none"/><path d="m3709.7908 3368.2646h1372.5387v631.62494h-1372.5387z" fill="none"/><path d="m5058.2232 3368.2647 9.6431 20.8935 12.8575 20.8934-1343.6093 588.2309-14.4646-19.2863-11.2504-22.5006z" fill="#fff" fill-opacity=".8" stroke="#fff" stroke-opacity=".8" stroke-width="45.358063"/><path d="m3709.7908 3974.1746h36.965324v33.75095h-36.965324z" fill="none"/><path d="m3709.7908 3974.1746h33.75095v32.143761h-33.75095z" fill="none"/><path d="m3711.3995 3998.2825 12.8575-24.1079 16.0719 24.1079-16.0719 6.4287z" fill="#fff" fill-opacity=".8" stroke="#fff" stroke-opacity=".8" stroke-width="45.358063"/><path d="m3039.5933 3660.7729h705.5556v343.93826h-705.5556z" fill="none"/><path d="m3039.5933 3660.7729h703.94836v342.33105h-703.94836z" fill="none"/><path d="m3740.3289 3956.4956-11.2503 24.1078-14.4647 19.2862-673.4118-297.3298 11.2503-20.8934 14.4647-20.8934z" fill="#fff" fill-opacity=".8" stroke="#fff" stroke-opacity=".8" stroke-width="45.358063"/><path d="m3722.6482 3390.7654h1351.6451v1761.4781h-1351.6451z" fill="none"/><path d="m3722.6482 3390.7654h1350.038v1759.871h-1350.038z" fill="none"/><path d="m4396.0617 4856.5209-673.4118 290.901v-1168.4257l1346.8236-586.6237v1171.6402z" fill="#8e03a3" fill-opacity=".8" stroke="#fff" stroke-opacity=".8" stroke-width="45.358063"/><path d="m3708.1836 4830.8057h707.16278v343.93826h-707.16278z" fill="none"/><path d="m3709.7908 4830.8057h702.34119v342.33105h-702.34119z" fill="none"/><path d="m4384.8114 4830.8059 12.8575 20.8934 12.8575 20.8935-673.4119 297.3298-14.4646-24.1078-11.2504-19.2863z" fill="#fff" fill-opacity=".8" stroke="#fff" stroke-opacity=".8" stroke-width="45.358063"/><path d="m3692.1116 5140.9932h53.037209v48.215645h-53.037209z" fill="none"/><path d="m3693.7188 5140.9932h46.608456v45.001266h-46.608456z" fill="none"/><path d="m3695.3277 5142.6004h32.1437l11.2503 24.1078-43.394 17.6791z" fill="#fff" fill-opacity=".8" stroke="#fff" stroke-opacity=".8" stroke-width="45.358063"/><path d="m3693.7188 3974.1746h65.894714v1178.0688h-65.894714z" fill="none"/><path d="m3693.7188 3975.7817h62.680336v1173.2473h-62.680336z" fill="none"/><path d="m3754.7936 5145.8148h-32.1437-27.3222v-1170.033h27.3222 32.1437z" fill="#fff" fill-opacity=".8" stroke="#fff" stroke-opacity=".8" stroke-width="45.358063"/><path d="m3693.7188 3951.6741h36.965324v33.75095h-36.965324z" fill="none"/><path d="m3693.7188 3953.2812h35.358139v27.322197h-35.358139z" fill="none"/><path d="m3713.0067 3954.8884 14.4647 24.1078h-32.1437v-16.0719z" fill="#fff" fill-opacity=".8" stroke="#fff" stroke-opacity=".8" stroke-width="45.358063"/><path d="m3709.7908 3371.479h1374.1459v634.83929h-1374.1459z" fill="none"/><path d="m3709.7908 3371.479h1372.5387v633.23212h-1372.5387z" fill="none"/><path d="m3737.1145 4001.4968-14.4646-19.2862-11.2504-22.5007 1346.8237-586.6236 9.6431 19.2862 12.8575 22.5007z" fill="#fff" fill-opacity=".8" stroke="#fff" stroke-opacity=".8" stroke-width="45.358063"/><path d="m5053.3999 3353.8h51.430019v46.608456h-51.430019z" fill="none"/><path d="m5053.3999 3353.8h46.608456v45.001266h-46.608456z" fill="none"/><path d="m5098.4029 3395.5869h-30.5366l-14.4647-22.5006 45.0013-19.2863z" fill="#fff" fill-opacity=".8" stroke="#fff" stroke-opacity=".8" stroke-width="45.358063"/><path d="m5037.3281 3390.7654h64.287521v1179.676h-64.287521z" fill="none"/><path d="m5037.3281 3390.7654h62.680336v1176.4617h-62.680336z" fill="none"/><path d="m5037.3297 3392.3725h28.9294 32.1438v1171.6402h-32.1438-28.9294z" fill="#fff" fill-opacity=".8" stroke="#fff" stroke-opacity=".8" stroke-width="45.358063"/><path d="m5063.043 4557.584h38.572514v33.75095h-38.572514z" fill="none"/><path d="m5064.6504 4559.1909h35.358139v27.322197h-35.358139z" fill="none"/><path d="m5080.7238 4584.9061-14.4647-24.1078h32.1438v19.2862z" fill="#fff" fill-opacity=".8" stroke="#fff" stroke-opacity=".8" stroke-width="45.358063"/><path d="m4379.9883 4539.9048h703.94836v343.93826h-703.94836z" fill="none"/><path d="m4379.9883 4539.9048h702.34119v342.33105h-702.34119z" fill="none"/><path d="m5053.4016 4539.9048 14.4647 20.8935 12.8575 20.8934-675.019 297.3298-12.8575-24.1078-12.8575-19.2862z" fill="#fff" fill-opacity=".8" stroke="#fff" stroke-opacity=".8" stroke-width="45.358063"/><path d="m2379.0391 3390.7654h1351.6451v1761.4781h-1351.6451z" fill="none"/><path d="m2379.0391 3390.7654h1350.038v1759.871h-1350.038z" fill="none"/><path d="m3052.4524 4856.5209 675.019 290.901v-1168.4257l-1348.4308-586.6237v1171.6402z" fill="#8e03a3" fill-opacity=".8" stroke="#fff" stroke-opacity=".8" stroke-width="45.358063"/><g fill="none"><path d="m3039.5933 4850.0923h24.107822v32.143761h-24.107822z"/><path d="m3039.5933 4830.8057h705.5556v343.93826h-705.5556z"/><path d="m3039.5933 4830.8057h703.94836v342.33105h-703.94836z"/></g><path d="m3041.2021 4872.5928 11.2503-20.8935 14.4647-20.8934 673.4118 295.7226-11.2503 19.2863-14.4647 24.1078z" fill="#fff" fill-opacity=".8" stroke="#fff" stroke-opacity=".8" stroke-width="45.358063"/><path d="m3709.7908 5140.9932h49.82283v48.215645h-49.82283z" fill="none"/><path d="m3709.7908 5140.9932h46.608456v45.001266h-46.608456z" fill="none"/><path d="m3711.3995 5166.7082 12.8575-24.1078h30.5366v41.7869z" fill="#fff" fill-opacity=".8" stroke="#fff" stroke-opacity=".8" stroke-width="45.358063"/><path d="m3693.7188 3974.1746h65.894714v1178.0688h-65.894714z" fill="none"/><path d="m3693.7188 3974.1746h62.680336v1174.8545h-62.680336z" fill="none"/><path d="m3754.7936 5145.8148h-32.1437-27.3222v-1171.6402h27.3222 32.1437z" fill="#fff" fill-opacity=".8" stroke="#fff" stroke-opacity=".8" stroke-width="45.358063"/><path d="m3722.6482 3951.6741h36.965324v33.75095h-36.965324z" fill="none"/><path d="m3722.6482 3953.2812h33.75095v27.322197h-33.75095z" fill="none"/><path d="m3754.7936 3978.9962h-32.1437l14.4646-24.1078 17.6791 8.0359z" fill="#fff" fill-opacity=".8" stroke="#fff" stroke-opacity=".8" stroke-width="45.358063"/><path d="m2366.1814 3368.2646h1374.1459v634.83929h-1374.1459z" fill="none"/><path d="m2366.1814 3368.2646h1372.5387v631.62494h-1372.5387z" fill="none"/><path d="m3737.1145 3956.4956-12.8575 22.5006-9.6431 19.2863-1346.8236-588.2309 11.2503-20.8934 14.4647-20.8935z" fill="#fff" fill-opacity=".8" stroke="#fff" stroke-opacity=".8" stroke-width="45.358063"/><path d="m2353.324 3352.1929h48.215645v46.608456h-48.215645z" fill="none"/><path d="m2353.324 3352.1929h46.608456v45.001266h-46.608456z" fill="none"/><path d="m2396.7197 3369.8719-11.2503 24.1078h-32.1438v-41.7869z" fill="#fff" fill-opacity=".8" stroke="#fff" stroke-opacity=".8" stroke-width="45.358063"/><path d="m2353.324 3390.7654h64.287521v1179.676h-64.287521z" fill="none"/><path d="m2353.324 3390.7654h62.680336v1176.4617h-62.680336z" fill="none"/><path d="m2353.3256 3392.3725h27.3222 32.1438v1171.6402h-32.1438-27.3222z" fill="#fff" fill-opacity=".8" stroke="#fff" stroke-opacity=".8" stroke-width="45.358063"/><path d="m2353.324 4552.7622h36.965324v33.75095h-36.965324z" fill="none"/><path d="m2353.324 4557.584h33.75095v27.322197h-33.75095z" fill="none"/><path d="m2353.3256 4557.5839h32.1438l-14.4647 24.1078-17.6791-3.2143z" fill="#fff" fill-opacity=".8" stroke="#fff" stroke-opacity=".8" stroke-width="45.358063"/><path d="m2366.1814 4538.2979h705.5556v343.93826h-705.5556z" fill="none"/><path d="m2366.1814 4538.2979h703.94836v340.72388h-703.94836z" fill="none"/><path d="m2367.7903 4580.0845 11.2503-22.5006 14.4647-19.2862 673.4118 295.7226-11.2503 22.5006-14.4647 20.8934z" fill="#fff" fill-opacity=".8" stroke="#fff" stroke-opacity=".8" stroke-width="45.358063"/><path d="m1033.8241 4557.584h2693.6472v1179.676h-2693.6472z" fill="none"/><path d="m1033.8241 4557.584h2688.8257v1174.8545h-2688.8257z" fill="none"/><path d="m1707.236 5436.7158-673.4118-292.5082 1343.6092-586.6237 1343.6093 586.6237-1343.6093 586.6236z" fill="#0369a3" fill-opacity=".8" stroke="#fff" stroke-opacity=".8" stroke-width="45.358063"/><g fill="none"><path d="m1707.2344 5411.001h22.500633v28.929386h-22.500633z"/><path d="m1024.181 5120.0996h703.94836v343.93826h-703.94836z"/><path d="m1024.181 5120.0996h702.34119v340.72388h-702.34119z"/></g><path d="m1723.3079 5415.8224-11.2504 19.2862-14.4646 24.1078-673.4119-297.3298 11.2504-20.8934 14.4646-20.8935z" fill="#fff" fill-opacity=".8" stroke="#fff" stroke-opacity=".8" stroke-width="45.358063"/><path d="m1024.181 4538.2979h1374.1459v634.83929h-1374.1459z" fill="none"/><path d="m1024.181 4538.2979h1370.9314v631.62494h-1370.9314z" fill="none"/><path d="m1049.896 5168.3154-14.4646-20.8935-11.2504-20.8934 1346.8237-588.2308 9.6431 19.2862 12.8575 22.5006z" fill="#fff" fill-opacity=".8" stroke="#fff" stroke-opacity=".8" stroke-width="45.358063"/><path d="m2364.5742 4530.2617h35.358139v33.75095h-35.358139z" fill="none"/><path d="m2364.5742 4530.2617h33.75095v32.143761h-33.75095z" fill="none"/><path d="m2395.1125 4536.6905-16.0719 24.1078-12.8575-24.1078 12.8575-6.4288z" fill="#fff" fill-opacity=".8" stroke="#fff" stroke-opacity=".8" stroke-width="45.358063"/><path d="m2364.5742 4538.2979h1374.1459v634.83929h-1374.1459z" fill="none"/><path d="m2364.5742 4538.2979h1372.5387v631.62494h-1372.5387z" fill="none"/><path d="m2366.1831 4580.0845 11.2503-22.5006 14.4647-19.2862 1342.0021 588.2308-11.2503 20.8934-9.6432 20.8935z" fill="#fff" fill-opacity=".8" stroke="#fff" stroke-opacity=".8" stroke-width="45.358063"/><path d="m3719.4338 5116.8853h69.109085v56.251583h-69.109085z" fill="none"/><path d="m3719.4338 5120.0996h67.5019v49.82283h-67.5019z" fill="none"/><path d="m3732.293 5168.3154-11.2503-24.1078 11.2503-24.1079 51.43 24.1079z" fill="#fff" fill-opacity=".8" stroke="#fff" stroke-opacity=".8" stroke-width="45.358063"/><path d="m2364.5742 5120.0996h1374.1459v634.83929h-1374.1459z" fill="none"/><path d="m2364.5742 5120.0996h1372.5387v631.62494h-1372.5387z" fill="none"/><path d="m3713.0067 5120.0997 9.6432 20.8935 11.2503 20.8934-1342.0021 588.2309-14.4647-19.2863-11.2503-22.5006z" fill="#fff" fill-opacity=".8" stroke="#fff" stroke-opacity=".8" stroke-width="45.358063"/><path d="m2364.5742 5726.0098h35.358139v33.75095h-35.358139z" fill="none"/><path d="m2364.5742 5726.0098h33.75095v32.143761h-33.75095z" fill="none"/><path d="m2366.1831 5750.1175 12.8575-24.1078 16.0719 24.1078-16.0719 6.4287z" fill="#fff" fill-opacity=".8" stroke="#fff" stroke-opacity=".8" stroke-width="45.358063"/><path d="m1694.3768 5411.001h705.5556v343.93826h-705.5556z" fill="none"/><path d="m1694.3768 5411.001h703.94836v340.72388h-703.94836z" fill="none"/><path d="m2395.1125 5706.7234-11.2503 24.1078-14.4647 19.2863-673.4118-297.3298 11.2503-20.8935 14.4647-20.8934z" fill="#fff" fill-opacity=".8" stroke="#fff" stroke-opacity=".8" stroke-width="45.358063"/><path d="m1033.8241 3390.7654h1351.6451v1761.4781h-1351.6451z" fill="none"/><path d="m1033.8241 3390.7654h1350.038v1759.871h-1350.038z" fill="none"/><path d="m1707.236 4856.5209-673.4118 290.901v-1168.4257l1346.8236-586.6237v1171.6402z" fill="#0369a3" fill-opacity=".8" stroke="#fff" stroke-opacity=".8" stroke-width="45.358063"/><path d="m1024.181 4829.1987h703.94836v345.54544h-703.94836z" fill="none"/><path d="m1024.181 4829.1987h702.34119v340.72388h-702.34119z" fill="none"/><path d="m1697.5929 4829.1987 14.4646 19.2863 11.2504 22.5006-673.4119 297.3298-14.4646-24.1078-11.2504-19.2863z" fill="#fff" fill-opacity=".8" stroke="#fff" stroke-opacity=".8" stroke-width="45.358063"/><path d="m1009.7163 3974.1746h64.287521v1174.8545h-64.287521z" fill="none"/><path d="m1009.7163 3974.1746h62.680336v1173.2473h-62.680336z" fill="none"/><path d="m1070.7895 5144.2076h-32.1438-28.9294v-1170.033h28.9294 32.1438z" fill="#fff" fill-opacity=".8" stroke="#fff" stroke-opacity=".8" stroke-width="45.358063"/><path d="m1009.7163 3951.6741h36.965324v33.75095h-36.965324z" fill="none"/><path d="m1009.7163 3953.2812h35.358139v27.322197h-35.358139z" fill="none"/><path d="m1027.3954 3954.8884 14.4647 24.1078h-32.1438v-16.0719z" fill="#fff" fill-opacity=".8" stroke="#fff" stroke-opacity=".8" stroke-width="45.358063"/><path d="m1024.181 3368.2646h1374.1459v634.83929h-1374.1459z" fill="none"/><path d="m1024.181 3368.2646h1370.9314v631.62494h-1370.9314z" fill="none"/><path d="m1049.896 3998.2825-14.4646-19.2863-11.2504-22.5006 1346.8237-588.2309 9.6431 20.8935 12.8575 20.8934z" fill="#fff" fill-opacity=".8" stroke="#fff" stroke-opacity=".8" stroke-width="45.358063"/><path d="m2364.5742 3352.1929h51.430019v46.608456h-51.430019z" fill="none"/><path d="m2364.5742 3352.1929h46.608456v45.001266h-46.608456z" fill="none"/><path d="m2409.5772 3393.9797h-30.5366l-12.8575-24.1078 43.3941-17.6791z" fill="#fff" fill-opacity=".8" stroke="#fff" stroke-opacity=".8" stroke-width="45.358063"/><path d="m2348.5024 3390.7654h65.894714v1179.676h-65.894714z" fill="none"/><path d="m2348.5024 3390.7654h62.680336v1176.4617h-62.680336z" fill="none"/><path d="m2350.1112 3392.3725h27.3222 32.1438v1171.6402h-32.1438-27.3222z" fill="#fff" fill-opacity=".8" stroke="#fff" stroke-opacity=".8" stroke-width="45.358063"/><path d="m2377.4319 4552.7622h36.965324v33.75095h-36.965324z" fill="none"/><path d="m2377.4319 4557.584h33.75095v27.322197h-33.75095z" fill="none"/><path d="m2391.8981 4581.6917-14.4647-24.1078h32.1438v20.8935z" fill="#fff" fill-opacity=".8" stroke="#fff" stroke-opacity=".8" stroke-width="45.358063"/><path d="m1694.3768 4538.2979h705.5556v343.93826h-705.5556z" fill="none"/><path d="m1694.3768 4538.2979h703.94836v340.72388h-703.94836z" fill="none"/><path d="m2369.3975 4538.2977 14.4647 19.2862 11.2503 22.5006-673.4118 297.3298-14.4647-24.1078-11.2503-19.2862z" fill="#fff" fill-opacity=".8" stroke="#fff" stroke-opacity=".8" stroke-width="45.358063"/><path d="m2377.4319 3390.7654h1351.6451v1761.4781h-1351.6451z" fill="none"/><path d="m2377.4319 3390.7654h1350.038v1759.871h-1350.038z" fill="none"/><path d="m3050.8452 4856.5209 673.4118 290.901v-1168.4257l-1346.8236-586.6237v1171.6402z" fill="#0369a3" fill-opacity=".8" stroke="#fff" stroke-opacity=".8" stroke-width="45.358063"/><g fill="none"><path d="m3036.3789 4850.0923h22.500633v32.143761h-22.500633z"/><path d="m3034.7717 4830.8057h705.5556v343.93826h-705.5556z"/><path d="m3036.3789 4830.8057h702.34119v342.33105h-702.34119z"/></g><path d="m3036.3805 4872.5928 12.8575-20.8935 14.4647-20.8934 673.4118 295.7226-12.8575 19.2863-12.8575 24.1078z" fill="#fff" fill-opacity=".8" stroke="#fff" stroke-opacity=".8" stroke-width="45.358063"/><path d="m3708.1836 5140.9932h48.215645v48.215645h-48.215645z" fill="none"/><path d="m3708.1836 5140.9932h46.608456v45.001266h-46.608456z" fill="none"/><path d="m3708.1852 5166.7082 14.4647-24.1078h30.5365v41.7869z" fill="#fff" fill-opacity=".8" stroke="#fff" stroke-opacity=".8" stroke-width="45.358063"/><path d="m3692.1116 3974.1746h64.287521v1178.0688h-64.287521z" fill="none"/><path d="m3692.1116 3974.1746h62.680336v1174.8545h-62.680336z" fill="none"/><path d="m3753.1864 5145.8148h-32.1437-28.9294v-1171.6402h28.9294 32.1437z" fill="#fff" fill-opacity=".8" stroke="#fff" stroke-opacity=".8" stroke-width="45.358063"/><path d="m3716.2195 3951.6741h38.572514v33.75095h-38.572514z" fill="none"/><path d="m3719.4338 3953.2812h35.358139v27.322197h-35.358139z" fill="none"/><path d="m3753.1864 3978.9962h-32.1437l12.8575-24.1078 19.2862 8.0359z" fill="#fff" fill-opacity=".8" stroke="#fff" stroke-opacity=".8" stroke-width="45.358063"/><path d="m2364.5742 3368.2646h1374.1459v634.83929h-1374.1459z" fill="none"/><path d="m2364.5742 3368.2646h1372.5387v631.62494h-1372.5387z" fill="none"/><path d="m3733.9002 3956.4956-11.2503 22.5006-9.6432 19.2863-1346.8236-588.2309 11.2503-20.8934 14.4647-20.8935z" fill="#fff" fill-opacity=".8" stroke="#fff" stroke-opacity=".8" stroke-width="45.358063"/><path d="m2348.5024 3352.1929h49.82283v46.608456h-49.82283z" fill="none"/><path d="m2348.5024 3352.1929h46.608456v45.001266h-46.608456z" fill="none"/><path d="m2393.5053 3369.8719-12.8575 24.1078h-30.5366v-41.7869z" fill="#fff" fill-opacity=".8" stroke="#fff" stroke-opacity=".8" stroke-width="45.358063"/><path d="m2348.5024 3390.7654h65.894714v1179.676h-65.894714z" fill="none"/><path d="m2348.5024 3390.7654h62.680336v1176.4617h-62.680336z" fill="none"/><path d="m2350.1112 3392.3725h27.3222 32.1438v1171.6402h-32.1438-27.3222z" fill="#fff" fill-opacity=".8" stroke="#fff" stroke-opacity=".8" stroke-width="45.358063"/><path d="m2346.8953 4552.7622h38.572514v33.75095h-38.572514z" fill="none"/><path d="m2348.5024 4557.584h35.358139v27.322197h-35.358139z" fill="none"/><path d="m2350.1112 4557.5839h30.5366l-12.8575 24.1078-17.6791-3.2143z" fill="#fff" fill-opacity=".8" stroke="#fff" stroke-opacity=".8" stroke-width="45.358063"/><path d="m2364.5742 4538.2979h705.5556v343.93826h-705.5556z" fill="none"/><path d="m2364.5742 4538.2979h702.34119v340.72388h-702.34119z" fill="none"/><path d="m2366.1831 4580.0845 11.2503-22.5006 14.4647-19.2862 673.4118 295.7226-12.8575 22.5006-12.8575 20.8934z" fill="#fff" fill-opacity=".8" stroke="#fff" stroke-opacity=".8" stroke-width="45.358063"/><path d="m1033.8241 3387.551h2693.6472v1179.676h-2693.6472z" fill="none"/><path d="m1033.8241 3387.551h2688.8257v1174.8545h-2688.8257z" fill="none"/><path d="m1707.236 4266.6829-673.4118-292.5083 1343.6092-585.0164 1343.6093 585.0164-1343.6093 586.6237z" fill="#0369a3" fill-opacity=".8" stroke="#fff" stroke-opacity=".8" stroke-width="45.358063"/><g fill="none"><path d="m1707.2344 4242.5752h22.500633v30.536573h-22.500633z"/><path d="m1024.181 3951.6741h703.94836v345.54544h-703.94836z"/><path d="m1024.181 3951.6741h702.34119v342.33105h-702.34119z"/></g><path d="m1723.3079 4247.3966-11.2504 19.2863-14.4646 24.1078-673.4119-297.3298 11.2504-20.8935 14.4646-20.8934z" fill="#fff" fill-opacity=".8" stroke="#fff" stroke-opacity=".8" stroke-width="45.358063"/><path d="m974.35815 3950.0669h70.716278v54.644394h-70.716278z" fill="none"/><path d="m974.35815 3951.6741h65.894714v51.430019h-65.894714z" fill="none"/><path d="m1025.7882 3951.674 12.8575 24.1078-12.8575 24.1078-51.42999-24.1078z" fill="#fff" fill-opacity=".8" stroke="#fff" stroke-opacity=".8" stroke-width="45.358063"/><path d="m1024.181 3368.2646h1374.1459v634.83929h-1374.1459z" fill="none"/><path d="m1024.181 3368.2646h1370.9314v631.62494h-1370.9314z" fill="none"/><path d="m1049.896 3998.2825-14.4646-19.2863-11.2504-22.5006 1346.8237-588.2309 9.6431 20.8935 12.8575 20.8934z" fill="#fff" fill-opacity=".8" stroke="#fff" stroke-opacity=".8" stroke-width="45.358063"/><path d="m2364.5742 3363.4431h35.358139v35.358139h-35.358139z" fill="none"/><path d="m2364.5742 3363.4431h33.75095v33.75095h-33.75095z" fill="none"/><path d="m2395.1125 3369.8719-16.0719 24.1078-12.8575-24.1078 12.8575-4.8216z" fill="#fff" fill-opacity=".8" stroke="#fff" stroke-opacity=".8" stroke-width="45.358063"/><path d="m2364.5742 3368.2646h1374.1459v634.83929h-1374.1459z" fill="none"/><path d="m2364.5742 3368.2646h1372.5387v631.62494h-1372.5387z" fill="none"/><path d="m2366.1831 3410.0516 11.2503-20.8934 14.4647-20.8935 1342.0021 588.2309-11.2503 22.5006-9.6432 19.2863z" fill="#fff" fill-opacity=".8" stroke="#fff" stroke-opacity=".8" stroke-width="45.358063"/><path d="m3719.4338 3950.0669h69.109085v54.644394h-69.109085z" fill="none"/><path d="m3719.4338 3951.6741h67.5019v51.430019h-67.5019z" fill="none"/><path d="m3732.293 3999.8896-11.2503-24.1078 11.2503-24.1078 51.43 24.1078z" fill="#fff" fill-opacity=".8" stroke="#fff" stroke-opacity=".8" stroke-width="45.358063"/><path d="m2364.5742 3950.0669h1374.1459v636.44647h-1374.1459z" fill="none"/><path d="m2364.5742 3951.6741h1372.5387v633.23212h-1372.5387z" fill="none"/><path d="m3713.0067 3951.674 9.6432 20.8934 11.2503 20.8935-1342.0021 588.2308-14.4647-19.2862-11.2503-22.5007z" fill="#fff" fill-opacity=".8" stroke="#fff" stroke-opacity=".8" stroke-width="45.358063"/><path d="m2364.5742 4557.584h35.358139v35.358139h-35.358139z" fill="none"/><path d="m2364.5742 4557.584h33.75095v33.75095h-33.75095z" fill="none"/><path d="m2366.1831 4581.6917 12.8575-24.1078 16.0719 24.1078-16.0719 6.4288z" fill="#fff" fill-opacity=".8" stroke="#fff" stroke-opacity=".8" stroke-width="45.358063"/><path d="m1694.3768 4242.5752h705.5556v343.93826h-705.5556z" fill="none"/><path d="m1694.3768 4242.5752h703.94836v342.33105h-703.94836z" fill="none"/><path d="m2395.1125 4538.2977-11.2503 24.1078-14.4647 19.2862-673.4118-295.7226 11.2503-22.5006 14.4647-20.8935z" fill="#fff" fill-opacity=".8" stroke="#fff" stroke-opacity=".8" stroke-width="45.358063"/><path d="m2377.4319 3974.1746h1351.6451v1759.871h-1351.6451z" fill="none"/><path d="m2377.4319 3974.1746h1350.038v1758.2638h-1350.038z" fill="none"/><path d="m3050.8452 5439.9302-673.4118 290.901v-1170.0329l1346.8236-586.6237v1171.6402z" fill="#0369a3" fill-opacity=".8" stroke="#fff" stroke-opacity=".8" stroke-width="45.358063"/><path d="m2364.5742 5411.001h705.5556v343.93826h-705.5556z" fill="none"/><path d="m2364.5742 5411.001h702.34119v340.72388h-702.34119z" fill="none"/><path d="m3039.5949 5411.0008 12.8575 20.8934 12.8575 20.8935-673.4118 297.3298-14.4647-24.1078-11.2503-19.2863z" fill="#fff" fill-opacity=".8" stroke="#fff" stroke-opacity=".8" stroke-width="45.358063"/><path d="m2348.5024 5726.0098h49.82283v46.608456h-49.82283z" fill="none"/><path d="m2348.5024 5726.0098h46.608456v45.001266h-46.608456z" fill="none"/><path d="m2350.1112 5726.0097h30.5366l12.8575 24.1078-43.3941 17.6791z" fill="#fff" fill-opacity=".8" stroke="#fff" stroke-opacity=".8" stroke-width="45.358063"/><path d="m2348.5024 4557.584h65.894714v1174.8545h-65.894714z" fill="none"/><path d="m2348.5024 4557.584h62.680336v1173.2473h-62.680336z" fill="none"/><path d="m2409.5772 5727.6169h-32.1438-27.3222v-1170.033h27.3222 32.1438z" fill="#fff" fill-opacity=".8" stroke="#fff" stroke-opacity=".8" stroke-width="45.358063"/><path d="m2346.8953 4533.4761h38.572514v33.75095h-38.572514z" fill="none"/><path d="m2348.5024 4538.2979h35.358139v25.71501h-35.358139z" fill="none"/><path d="m2367.7903 4538.2977 12.8575 24.1078h-30.5366v-16.0719z" fill="#fff" fill-opacity=".8" stroke="#fff" stroke-opacity=".8" stroke-width="45.358063"/><path d="m2364.5742 3951.6741h1374.1459v636.44647h-1374.1459z" fill="none"/><path d="m2364.5742 3953.2812h1372.5387v633.23212h-1372.5387z" fill="none"/><path d="m2391.8981 4584.9061-14.4647-20.8934-11.2503-20.8935 1346.8236-588.2308 9.6432 19.2862 11.2503 22.5007z" fill="#fff" fill-opacity=".8" stroke="#fff" stroke-opacity=".8" stroke-width="45.358063"/><path d="m3708.1836 3935.6021h48.215645v46.608456h-48.215645z" fill="none"/><path d="m3708.1836 3935.6021h46.608456v45.001266h-46.608456z" fill="none"/><path d="m3753.1864 3978.9962h-30.5365l-14.4647-24.1078 45.0012-17.6791z" fill="#fff" fill-opacity=".8" stroke="#fff" stroke-opacity=".8" stroke-width="45.358063"/><path d="m3692.1116 3974.1746h64.287521v1178.0688h-64.287521z" fill="none"/><path d="m3692.1116 3974.1746h62.680336v1174.8545h-62.680336z" fill="none"/><path d="m3692.1133 3974.1746h28.9294 32.1437v1171.6402h-32.1437-28.9294z" fill="#fff" fill-opacity=".8" stroke="#fff" stroke-opacity=".8" stroke-width="45.358063"/><path d="m3716.2195 5139.3857h38.572514v33.75095h-38.572514z" fill="none"/><path d="m3719.4338 5140.9932h35.358139v27.322197h-35.358139z" fill="none"/><path d="m3733.9002 5166.7082-12.8575-24.1078h32.1437v19.2862z" fill="#fff" fill-opacity=".8" stroke="#fff" stroke-opacity=".8" stroke-width="45.358063"/><path d="m3034.7717 5120.0996h705.5556v343.93826h-705.5556z" fill="none"/><path d="m3036.3789 5120.0996h702.34119v340.72388h-702.34119z" fill="none"/><path d="m3711.3995 5120.0997 12.8575 20.8935 12.8575 20.8934-673.4118 297.3298-14.4647-24.1078-12.8575-19.2862z" fill="#fff" fill-opacity=".8" stroke="#fff" stroke-opacity=".8" stroke-width="45.358063"/><path d="m1033.8241 3970.9602h1351.6451v1761.4781h-1351.6451z" fill="none"/><path d="m1033.8241 3970.9602h1350.038v1759.871h-1350.038z" fill="none"/><path d="m1707.236 5436.7158 673.4118 290.9011v-1170.033l-1346.8236-585.0165v1171.6402z" fill="#0369a3" fill-opacity=".8" stroke="#fff" stroke-opacity=".8" stroke-width="45.358063"/><g fill="none"><path d="m1694.3768 5435.1084h24.107822v28.929386h-24.107822z"/><path d="m1694.3768 5411.001h705.5556v343.93826h-705.5556z"/><path d="m1694.3768 5411.001h703.94836v340.72388h-703.94836z"/></g><path d="m1695.9857 5452.7877 11.2503-20.8935 14.4647-20.8934 673.4118 295.7226-11.2503 19.2863-14.4647 24.1078z" fill="#fff" fill-opacity=".8" stroke="#fff" stroke-opacity=".8" stroke-width="45.358063"/><path d="m2364.5742 5726.0098h51.430019v46.608456h-51.430019z" fill="none"/><path d="m2364.5742 5726.0098h46.608456v45.001266h-46.608456z" fill="none"/><path d="m2366.1831 5750.1175 12.8575-24.1078h30.5366v41.7869z" fill="#fff" fill-opacity=".8" stroke="#fff" stroke-opacity=".8" stroke-width="45.358063"/><path d="m2348.5024 4557.584h65.894714v1179.676h-65.894714z" fill="none"/><path d="m2348.5024 4557.584h62.680336v1174.8545h-62.680336z" fill="none"/><path d="m2409.5772 5730.8312h-32.1438-27.3222v-1173.2473h27.3222 32.1438z" fill="#fff" fill-opacity=".8" stroke="#fff" stroke-opacity=".8" stroke-width="45.358063"/><path d="m2377.4319 4533.4761h36.965324v33.75095h-36.965324z" fill="none"/><path d="m2377.4319 4538.2979h33.75095v25.71501h-33.75095z" fill="none"/><path d="m2409.5772 4562.4055h-32.1438l14.4647-24.1078 17.6791 8.0359z" fill="#fff" fill-opacity=".8" stroke="#fff" stroke-opacity=".8" stroke-width="45.358063"/><path d="m1024.181 3950.0669h1374.1459v636.44647h-1374.1459z" fill="none"/><path d="m1024.181 3951.6741h1370.9314v633.23212h-1370.9314z" fill="none"/><path d="m2393.5053 4539.9048-12.8575 22.5007-9.6431 19.2862-1346.8237-588.2308 11.2504-20.8935 14.4646-20.8934z" fill="#fff" fill-opacity=".8" stroke="#fff" stroke-opacity=".8" stroke-width="45.358063"/><path d="m1009.7163 3933.9949h51.430019v46.608456h-51.430019z" fill="none"/><path d="m1009.7163 3933.9949h46.608456v45.001266h-46.608456z" fill="none"/><path d="m1054.7176 3951.674-12.8575 24.1078h-32.1438v-41.7869z" fill="#fff" fill-opacity=".8" stroke="#fff" stroke-opacity=".8" stroke-width="45.358063"/><path d="m1009.7163 3970.9602h64.287521v1179.676h-64.287521z" fill="none"/><path d="m1009.7163 3970.9602h62.680336v1176.4617h-62.680336z" fill="none"/><path d="m1009.7163 3972.5674h28.9294 32.1438v1171.6402h-32.1438-28.9294z" fill="#fff" fill-opacity=".8" stroke="#fff" stroke-opacity=".8" stroke-width="45.358063"/><path d="m1024.181 5120.0996h703.94836v343.93826h-703.94836z" fill="none"/><path d="m1024.181 5120.0996h702.34119v340.72388h-702.34119z" fill="none"/><path d="m1024.181 5161.8866 11.2504-20.8934 14.4646-20.8935 673.4119 295.7227-11.2504 24.1078-14.4646 19.2862z" fill="#fff" fill-opacity=".8" stroke="#fff" stroke-opacity=".8" stroke-width="45.358063"/><path d="m2391.8965 5139.3857h2695.2544v1181.2832h-2695.2544z" fill="none"/><path d="m2391.8965 5139.3857h2690.4329v1174.8545h-2690.4329z" fill="none"/><path d="m3066.9171 6018.5179-673.4118-292.5082 1343.6092-585.0165 1343.6093 585.0165-1343.6093 586.6236z" fill="#a33e03" fill-opacity=".8" stroke="#fff" stroke-opacity=".8" stroke-width="45.358063"/><g fill="none"><path d="m3062.094 5994.4102h22.500633v30.536573h-22.500633z"/><path d="m2379.0391 5703.5088h703.94836v343.93826h-703.94836z"/><path d="m2379.0391 5703.5088h702.34119v342.33105h-702.34119z"/></g><path d="m3079.7746 5999.2316-12.8575 19.2863-14.4647 24.1078-673.4118-297.3298 12.8575-20.8934 12.8575-20.8935z" fill="#fff" fill-opacity=".8" stroke="#fff" stroke-opacity=".8" stroke-width="45.358063"/><path d="m2332.4307 5698.6875h69.109085v56.251583h-69.109085z" fill="none"/><path d="m2332.4307 5703.5088h67.5019v48.215645h-67.5019z" fill="none"/><path d="m2385.4694 5703.509 11.2503 24.1079-11.2503 22.5006-51.4301-22.5006z" fill="#fff" fill-opacity=".8" stroke="#fff" stroke-opacity=".8" stroke-width="45.358063"/><path d="m2379.0391 5116.8853h1374.1459v634.83929h-1374.1459z" fill="none"/><path d="m2379.0391 5116.8853h1372.5387v633.23212h-1372.5387z" fill="none"/><path d="m2404.7556 5748.5103-12.8575-20.8934-12.8575-20.8935 1348.4308-588.2308 9.6431 19.2862 11.2504 22.5007z" fill="#fff" fill-opacity=".8" stroke="#fff" stroke-opacity=".8" stroke-width="45.358063"/><path d="m3722.6482 5112.064h33.75095v36.965324h-33.75095z" fill="none"/><path d="m3722.6482 5112.064h32.143761v32.143761h-32.143761z" fill="none"/><path d="m3753.1864 5118.4926-16.0719 24.1078-14.4646-24.1078 14.4646-6.4288z" fill="#fff" fill-opacity=".8" stroke="#fff" stroke-opacity=".8" stroke-width="45.358063"/><path d="m3722.6482 5116.8853h1374.1459v634.83929h-1374.1459z" fill="none"/><path d="m3722.6482 5116.8853h1370.9314v633.23212h-1370.9314z" fill="none"/><path d="m3722.6499 5160.2795 11.2503-22.5007 14.4647-19.2862 1343.6092 588.2308-11.2503 20.8935-11.2503 20.8934z" fill="#fff" fill-opacity=".8" stroke="#fff" stroke-opacity=".8" stroke-width="45.358063"/><path d="m5075.9004 5698.6875h67.5019v56.251583h-67.5019z" fill="none"/><path d="m5075.9004 5703.5088h65.894714v48.215645h-65.894714z" fill="none"/><path d="m5087.1526 5750.1175-11.2504-22.5006 11.2504-24.1079 53.0372 24.1079z" fill="#fff" fill-opacity=".8" stroke="#fff" stroke-opacity=".8" stroke-width="45.358063"/><path d="m3722.6482 5703.5088h1374.1459v634.83929h-1374.1459z" fill="none"/><path d="m3722.6482 5703.5088h1370.9314v633.23212h-1370.9314z" fill="none"/><path d="m5069.4735 5703.509 11.2503 20.8935 11.2503 20.8934-1343.6092 588.2309-14.4647-19.2863-11.2503-22.5006z" fill="#fff" fill-opacity=".8" stroke="#fff" stroke-opacity=".8" stroke-width="45.358063"/><path d="m3722.6482 6307.8115h33.75095v35.358139h-33.75095z" fill="none"/><path d="m3722.6482 6307.8115h32.143761v32.143761h-32.143761z" fill="none"/><path d="m3722.6499 6331.9196 14.4646-24.1078 16.0719 24.1078-16.0719 6.4287z" fill="#fff" fill-opacity=".8" stroke="#fff" stroke-opacity=".8" stroke-width="45.358063"/><path d="m3050.8435 5994.4102h705.5556v343.93826h-705.5556z" fill="none"/><path d="m3052.4509 5994.4102h702.34119v342.33105h-702.34119z" fill="none"/><path d="m3753.1864 6290.1327-12.8575 24.1078-12.8575 19.2863-675.019-295.7226 12.8575-22.5007 14.4647-19.2862z" fill="#fff" fill-opacity=".8" stroke="#fff" stroke-opacity=".8" stroke-width="45.358063"/><path d="m2391.8965 3970.9602h1354.8596v1761.4781h-1354.8596z" fill="none"/><path d="m2391.8965 3970.9602h1351.6451v1759.871h-1351.6451z" fill="none"/><path d="m3066.9171 5436.7158-673.4118 290.9011v-1170.033l1346.8236-585.0165v1171.6402z" fill="#a33e03" fill-opacity=".8" stroke="#fff" stroke-opacity=".8" stroke-width="45.358063"/><path d="m2379.0391 5411.001h703.94836v343.93826h-703.94836z" fill="none"/><path d="m2379.0391 5411.001h702.34119v340.72388h-702.34119z" fill="none"/><path d="m3052.4524 5411.0008 14.4647 20.8934 12.8575 20.8935-675.019 297.3298-12.8575-24.1078-12.8575-19.2863z" fill="#fff" fill-opacity=".8" stroke="#fff" stroke-opacity=".8" stroke-width="45.358063"/><path d="m2364.5742 5722.7954h51.430019v48.215645h-51.430019z" fill="none"/><path d="m2364.5742 5722.7954h46.608456v45.001266h-46.608456z" fill="none"/><path d="m2366.1831 5724.4025h30.5366l12.8575 24.1078-43.3941 17.6791z" fill="#fff" fill-opacity=".8" stroke="#fff" stroke-opacity=".8" stroke-width="45.358063"/><path d="m2364.5742 4557.584h65.894714v1174.8545h-65.894714z" fill="none"/><path d="m2364.5742 4557.584h62.680336v1173.2473h-62.680336z" fill="none"/><path d="m2425.6491 5727.6169h-32.1438-27.3222v-1170.033h27.3222 32.1438z" fill="#fff" fill-opacity=".8" stroke="#fff" stroke-opacity=".8" stroke-width="45.358063"/><path d="m2362.967 4533.4761h38.572514v33.75095h-38.572514z" fill="none"/><path d="m2364.5742 4538.2979h35.358139v25.71501h-35.358139z" fill="none"/><path d="m2383.8622 4538.2977 12.8575 24.1078h-30.5366v-16.0719z" fill="#fff" fill-opacity=".8" stroke="#fff" stroke-opacity=".8" stroke-width="45.358063"/><path d="m2379.0391 3950.0669h1374.1459v636.44647h-1374.1459z" fill="none"/><path d="m2379.0391 3951.6741h1372.5387v633.23212h-1372.5387z" fill="none"/><path d="m2404.7556 4581.6917-12.8575-19.2862-12.8575-22.5007 1348.4308-588.2308 9.6431 20.8934 11.2504 20.8935z" fill="#fff" fill-opacity=".8" stroke="#fff" stroke-opacity=".8" stroke-width="45.358063"/><path d="m3722.6482 3933.9949h48.215645v46.608456h-48.215645z" fill="none"/><path d="m3722.6482 3933.9949h46.608456v45.001266h-46.608456z" fill="none"/><path d="m3766.0439 3975.7818h-28.9294l-14.4646-24.1078 43.394-17.6791z" fill="#fff" fill-opacity=".8" stroke="#fff" stroke-opacity=".8" stroke-width="45.358063"/><path d="m3708.1836 3970.9602h64.287521v1179.676h-64.287521z" fill="none"/><path d="m3708.1836 3970.9602h62.680336v1176.4617h-62.680336z" fill="none"/><path d="m3708.1852 3972.5674h28.9293 32.1438v1171.6402h-32.1438-28.9293z" fill="#fff" fill-opacity=".8" stroke="#fff" stroke-opacity=".8" stroke-width="45.358063"/><path d="m3732.2913 5137.7788h38.572514v32.143761h-38.572514z" fill="none"/><path d="m3733.8987 5139.3857h35.358139v27.322197h-35.358139z" fill="none"/><path d="m3748.3649 5163.4938-14.4647-22.5006h32.1437v19.2863z" fill="#fff" fill-opacity=".8" stroke="#fff" stroke-opacity=".8" stroke-width="45.358063"/><path d="m3050.8435 5120.0996h705.5556v343.93826h-705.5556z" fill="none"/><path d="m3052.4509 5120.0996h702.34119v340.72388h-702.34119z" fill="none"/><path d="m3727.4714 5120.0997 12.8575 20.8935 12.8575 20.8934-673.4118 297.3298-14.4647-24.1078-12.8575-19.2862z" fill="#fff" fill-opacity=".8" stroke="#fff" stroke-opacity=".8" stroke-width="45.358063"/><path d="m3733.8987 3970.9602h1353.2523v1761.4781h-1353.2523z" fill="none"/><path d="m3733.8987 3970.9602h1350.038v1759.871h-1350.038z" fill="none"/><path d="m4408.9192 5436.7158 673.4118 290.9011v-1170.033l-1348.4308-585.0165v1171.6402z" fill="#a33e03" fill-opacity=".8" stroke="#fff" stroke-opacity=".8" stroke-width="45.358063"/><g fill="none"><path d="m4391.2383 5435.1084h24.107822v28.929386h-24.107822z"/><path d="m4389.6313 5411.001h707.16278v343.93826h-707.16278z"/><path d="m4391.2383 5411.001h702.34119v340.72388h-702.34119z"/></g><path d="m4392.8473 5452.7877 11.2503-20.8935 14.4647-20.8934 673.4118 295.7226-11.2503 19.2863-14.4647 24.1078z" fill="#fff" fill-opacity=".8" stroke="#fff" stroke-opacity=".8" stroke-width="45.358063"/><path d="m5064.6504 5726.0098h49.82283v46.608456h-49.82283z" fill="none"/><path d="m5064.6504 5726.0098h48.215645v45.001266h-48.215645z" fill="none"/><path d="m5066.2591 5750.1175 14.4647-24.1078h28.9294v41.7869z" fill="#fff" fill-opacity=".8" stroke="#fff" stroke-opacity=".8" stroke-width="45.358063"/><path d="m5048.5786 4557.584h65.894714v1179.676h-65.894714z" fill="none"/><path d="m5048.5786 4557.584h64.287521v1174.8545h-64.287521z" fill="none"/><path d="m5109.6532 5730.8312h-32.1438-27.3222v-1173.2473h27.3222 32.1438z" fill="#fff" fill-opacity=".8" stroke="#fff" stroke-opacity=".8" stroke-width="45.358063"/><path d="m5075.9004 4533.4761h36.965324v33.75095h-36.965324z" fill="none"/><path d="m5075.9004 4538.2979h33.75095v25.71501h-33.75095z" fill="none"/><path d="m5108.046 4562.4055h-32.1438l14.4647-24.1078 17.6791 8.0359z" fill="#fff" fill-opacity=".8" stroke="#fff" stroke-opacity=".8" stroke-width="45.358063"/><path d="m3722.6482 3950.0669h1374.1459v636.44647h-1374.1459z" fill="none"/><path d="m3722.6482 3951.6741h1370.9314v633.23212h-1370.9314z" fill="none"/><path d="m5091.9741 4539.9048-11.2503 22.5007-11.2503 19.2862-1346.8236-588.2308 11.2503-20.8935 14.4647-20.8934z" fill="#fff" fill-opacity=".8" stroke="#fff" stroke-opacity=".8" stroke-width="45.358063"/><path d="m3708.1836 3933.9949h48.215645v46.608456h-48.215645z" fill="none"/><path d="m3708.1836 3933.9949h46.608456v45.001266h-46.608456z" fill="none"/><path d="m3753.1864 3951.674-12.8575 24.1078h-32.1437v-41.7869z" fill="#fff" fill-opacity=".8" stroke="#fff" stroke-opacity=".8" stroke-width="45.358063"/><path d="m3708.1836 3970.9602h64.287521v1179.676h-64.287521z" fill="none"/><path d="m3708.1836 3970.9602h62.680336v1176.4617h-62.680336z" fill="none"/><path d="m3708.1852 3972.5674h28.9293 32.1438v1171.6402h-32.1438-28.9293z" fill="#fff" fill-opacity=".8" stroke="#fff" stroke-opacity=".8" stroke-width="45.358063"/><path d="m3708.1836 5137.7788h36.965324v32.143761h-36.965324z" fill="none"/><path d="m3708.1836 5139.3857h35.358139v27.322197h-35.358139z" fill="none"/><path d="m3708.1852 5140.9932h32.1437l-12.8575 22.5006-19.2862-3.2143z" fill="#fff" fill-opacity=".8" stroke="#fff" stroke-opacity=".8" stroke-width="45.358063"/><path d="m3722.6482 5120.0996h703.94836v343.93826h-703.94836z" fill="none"/><path d="m3722.6482 5120.0996h702.34119v340.72388h-702.34119z" fill="none"/><path d="m3722.6499 5161.8866 11.2503-20.8934 14.4647-20.8935 673.4118 295.7227-11.2503 24.1078-14.4647 19.2862z" fill="#fff" fill-opacity=".8" stroke="#fff" stroke-opacity=".8" stroke-width="45.358063"/><path d="m2391.8965 3970.9602h2695.2544v1179.676h-2695.2544z" fill="none"/><path d="m2391.8965 3970.9602h2690.4329v1176.4617h-2690.4329z" fill="none"/><path d="m3066.9171 4851.6993-673.4118-294.1154 1343.6092-585.0165 1343.6093 585.0165-1343.6093 586.6237z" fill="#a33e03" fill-opacity=".8" stroke="#fff" stroke-opacity=".8" stroke-width="45.358063"/><g fill="none"><path d="m3062.094 4825.9844h22.500633v28.929386h-22.500633z"/><path d="m2379.0391 4533.4761h703.94836v343.93826h-703.94836z"/><path d="m2379.0391 4533.4761h702.34119v342.33105h-702.34119z"/></g><path d="m3079.7746 4829.1987-12.8575 19.2863-14.4647 24.1078-673.4118-295.7226 12.8575-22.5007 12.8575-19.2862z" fill="#fff" fill-opacity=".8" stroke="#fff" stroke-opacity=".8" stroke-width="45.358063"/><path d="m2332.4307 4531.8687h69.109085v54.644394h-69.109085z" fill="none"/><path d="m2332.4307 4533.4761h67.5019v49.82283h-67.5019z" fill="none"/><path d="m2385.4694 4535.0833 11.2503 22.5006-11.2503 22.5006-51.4301-22.5006z" fill="#fff" fill-opacity=".8" stroke="#fff" stroke-opacity=".8" stroke-width="45.358063"/><path d="m2379.0391 3950.0669h1374.1459v636.44647h-1374.1459z" fill="none"/><path d="m2379.0391 3951.6741h1372.5387v633.23212h-1372.5387z" fill="none"/><path d="m2404.7556 4581.6917-12.8575-19.2862-12.8575-22.5007 1348.4308-588.2308 9.6431 20.8934 11.2504 20.8935z" fill="#fff" fill-opacity=".8" stroke="#fff" stroke-opacity=".8" stroke-width="45.358063"/><path d="m3722.6482 3943.6379h33.75095v35.358139h-33.75095z" fill="none"/><path d="m3722.6482 3943.6379h32.143761v33.75095h-32.143761z" fill="none"/><path d="m3753.1864 3950.0668-16.0719 24.1078-14.4646-24.1078 14.4646-6.4287z" fill="#fff" fill-opacity=".8" stroke="#fff" stroke-opacity=".8" stroke-width="45.358063"/><path d="m3722.6482 3950.0669h1374.1459v636.44647h-1374.1459z" fill="none"/><path d="m3722.6482 3951.6741h1370.9314v633.23212h-1370.9314z" fill="none"/><path d="m3722.6499 3993.4609 11.2503-20.8935 14.4647-20.8934 1343.6092 588.2308-11.2503 22.5007-11.2503 19.2862z" fill="#fff" fill-opacity=".8" stroke="#fff" stroke-opacity=".8" stroke-width="45.358063"/><path d="m5075.9004 4531.8687h67.5019v54.644394h-67.5019z" fill="none"/><path d="m5075.9004 4533.4761h65.894714v49.82283h-65.894714z" fill="none"/><path d="m5087.1526 4580.0845-11.2504-22.5006 11.2504-22.5006 53.0372 22.5006z" fill="#fff" fill-opacity=".8" stroke="#fff" stroke-opacity=".8" stroke-width="45.358063"/><path d="m3722.6482 4533.4761h1374.1459v634.83929h-1374.1459z" fill="none"/><path d="m3722.6482 4533.4761h1370.9314v633.23212h-1370.9314z" fill="none"/><path d="m5069.4735 4535.0833 11.2503 19.2862 11.2503 22.5007-1343.6092 586.6236-14.4647-19.2862-11.2503-22.5007z" fill="#fff" fill-opacity=".8" stroke="#fff" stroke-opacity=".8" stroke-width="45.358063"/><path d="m3722.6482 5139.3857h33.75095v36.965324h-33.75095z" fill="none"/><path d="m3722.6482 5139.3857h32.143761v33.75095h-32.143761z" fill="none"/><path d="m3722.6499 5163.4938 14.4646-22.5006 16.0719 22.5006-16.0719 6.4288z" fill="#fff" fill-opacity=".8" stroke="#fff" stroke-opacity=".8" stroke-width="45.358063"/><path d="m3050.8435 4825.9844h705.5556v343.93826h-705.5556z" fill="none"/><path d="m3052.4509 4825.9844h702.34119v342.33105h-702.34119z" fill="none"/><path d="m3753.1864 5121.7069-12.8575 24.1079-12.8575 20.8934-675.019-297.3298 12.8575-22.5006 14.4647-19.2863z" fill="#fff" fill-opacity=".8" stroke="#fff" stroke-opacity=".8" stroke-width="45.358063"/><path d="m3733.8987 4557.584h1353.2523v1761.4781h-1353.2523z" fill="none"/><path d="m3733.8987 4557.584h1350.038v1758.2638h-1350.038z" fill="none"/><path d="m4408.9192 6023.3395-675.019 290.901v-1170.0329l1348.4308-586.6237v1173.2473z" fill="#a33e03" fill-opacity=".8" stroke="#fff" stroke-opacity=".8" stroke-width="45.358063"/><path d="m3722.6482 5994.4102h703.94836v343.93826h-703.94836z" fill="none"/><path d="m3722.6482 5994.4102h702.34119v342.33105h-702.34119z" fill="none"/><path d="m4396.0617 5996.0173 14.4647 20.8934 11.2503 20.8935-673.4118 295.7226-14.4647-24.1079-11.2503-19.2862z" fill="#fff" fill-opacity=".8" stroke="#fff" stroke-opacity=".8" stroke-width="45.358063"/><path d="m3708.1836 6307.8115h48.215645v46.608456h-48.215645z" fill="none"/><path d="m3708.1836 6307.8115h46.608456v45.001266h-46.608456z" fill="none"/><path d="m3708.1852 6307.8118h32.1437l12.8575 24.1078-45.0012 17.679z" fill="#fff" fill-opacity=".8" stroke="#fff" stroke-opacity=".8" stroke-width="45.358063"/><path d="m3708.1836 5139.3857h64.287521v1174.8545h-64.287521z" fill="none"/><path d="m3708.1836 5139.3857h62.680336v1173.2473h-62.680336z" fill="none"/><path d="m3769.2583 6309.4189h-32.1438-28.9293v-1168.4257h28.9293 32.1438z" fill="#fff" fill-opacity=".8" stroke="#fff" stroke-opacity=".8" stroke-width="45.358063"/><path d="m3708.1836 5116.8853h36.965324v33.75095h-36.965324z" fill="none"/><path d="m3708.1836 5120.0996h35.358139v27.322197h-35.358139z" fill="none"/><path d="m3727.4714 5120.0997 12.8575 24.1079h-32.1437v-16.0719z" fill="#fff" fill-opacity=".8" stroke="#fff" stroke-opacity=".8" stroke-width="45.358063"/><path d="m3722.6482 4538.2979h1374.1459v634.83929h-1374.1459z" fill="none"/><path d="m3722.6482 4538.2979h1370.9314v631.62494h-1370.9314z" fill="none"/><path d="m3748.3649 5168.3154-14.4647-20.8935-11.2503-20.8934 1346.8236-588.2308 11.2503 19.2862 11.2503 22.5006z" fill="#fff" fill-opacity=".8" stroke="#fff" stroke-opacity=".8" stroke-width="45.358063"/><path d="m5064.6504 4519.0112h49.82283v48.215645h-49.82283z" fill="none"/><path d="m5064.6504 4519.0112h48.215645v45.001266h-48.215645z" fill="none"/><path d="m5109.6532 4562.4055h-28.9294l-14.4647-24.1078 43.3941-17.6791z" fill="#fff" fill-opacity=".8" stroke="#fff" stroke-opacity=".8" stroke-width="45.358063"/><path d="m5048.5786 4557.584h65.894714v1179.676h-65.894714z" fill="none"/><path d="m5048.5786 4557.584h64.287521v1174.8545h-64.287521z" fill="none"/><path d="m5050.1872 4557.5839h27.3222 32.1438v1173.2473h-32.1438-27.3222z" fill="#fff" fill-opacity=".8" stroke="#fff" stroke-opacity=".8" stroke-width="45.358063"/><path d="m5075.9004 5722.7954h36.965324v33.75095h-36.965324z" fill="none"/><path d="m5075.9004 5726.0098h33.75095v25.71501h-33.75095z" fill="none"/><path d="m5090.3669 5750.1175-14.4647-24.1078h32.1438v19.2862z" fill="#fff" fill-opacity=".8" stroke="#fff" stroke-opacity=".8" stroke-width="45.358063"/><path d="m4389.6313 5703.5088h707.16278v343.93826h-707.16278z" fill="none"/><path d="m4391.2383 5703.5088h702.34119v342.33105h-702.34119z" fill="none"/><path d="m5066.2591 5703.509 14.4647 20.8935 11.2503 20.8934-673.4118 297.3298-14.4647-24.1078-11.2503-19.2863z" fill="#fff" fill-opacity=".8" stroke="#fff" stroke-opacity=".8" stroke-width="45.358063"/><path d="m2391.8965 4552.7622h1354.8596v1761.4781h-1354.8596z" fill="none"/><path d="m2391.8965 4552.7622h1351.6451v1759.871h-1351.6451z" fill="none"/><path d="m3066.9171 6018.5179 673.4118 290.901v-1168.4257l-1346.8236-586.6237v1171.6402z" fill="#a33e03" fill-opacity=".8" stroke="#fff" stroke-opacity=".8" stroke-width="45.358063"/><g fill="none"><path d="m3052.4509 6016.9106h22.500633v28.929386h-22.500633z"/><path d="m3050.8435 5994.4102h705.5556v343.93826h-705.5556z"/><path d="m3052.4509 5994.4102h702.34119v342.33105h-702.34119z"/></g><path d="m3052.4524 6037.8042 12.8575-20.8935 14.4647-20.8934 673.4118 294.1154-12.8575 19.2862-12.8575 24.1079z" fill="#fff" fill-opacity=".8" stroke="#fff" stroke-opacity=".8" stroke-width="45.358063"/><path d="m3722.6482 6307.8115h48.215645v46.608456h-48.215645z" fill="none"/><path d="m3722.6482 6307.8115h46.608456v45.001266h-46.608456z" fill="none"/><path d="m3722.6499 6331.9196 14.4646-24.1078h28.9294v41.7868z" fill="#fff" fill-opacity=".8" stroke="#fff" stroke-opacity=".8" stroke-width="45.358063"/><path d="m3708.1836 5139.3857h64.287521v1181.2832h-64.287521z" fill="none"/><path d="m3708.1836 5139.3857h62.680336v1174.8545h-62.680336z" fill="none"/><path d="m3769.2583 6312.6333h-32.1438-28.9293v-1171.6401h28.9293 32.1438z" fill="#fff" fill-opacity=".8" stroke="#fff" stroke-opacity=".8" stroke-width="45.358063"/><path d="m3732.2913 5113.6709h38.572514v33.75095h-38.572514z" fill="none"/><path d="m3733.8987 5116.8853h35.358139v27.322197h-35.358139z" fill="none"/><path d="m3766.0439 5142.6004h-32.1437l14.4647-24.1078 17.679 8.0359z" fill="#fff" fill-opacity=".8" stroke="#fff" stroke-opacity=".8" stroke-width="45.358063"/><path d="m2379.0391 4533.4761h1374.1459v634.83929h-1374.1459z" fill="none"/><path d="m2379.0391 4533.4761h1372.5387v633.23212h-1372.5387z" fill="none"/><path d="m3748.3649 5121.7069-11.2504 22.5007-9.6431 19.2862-1348.4308-586.6236 12.8575-22.5007 12.8575-19.2862z" fill="#fff" fill-opacity=".8" stroke="#fff" stroke-opacity=".8" stroke-width="45.358063"/><path d="m2364.5742 4515.7969h51.430019v46.608456h-51.430019z" fill="none"/><path d="m2364.5742 4515.7969h46.608456v45.001266h-46.608456z" fill="none"/><path d="m2409.5772 4535.0833-12.8575 22.5006h-30.5366v-41.7869z" fill="#fff" fill-opacity=".8" stroke="#fff" stroke-opacity=".8" stroke-width="45.358063"/><path d="m2364.5742 4552.7622h65.894714v1179.676h-65.894714z" fill="none"/><path d="m2364.5742 4552.7622h62.680336v1176.4617h-62.680336z" fill="none"/><path d="m2366.1831 4554.3695h27.3222 32.1438v1171.6402h-32.1438-27.3222z" fill="#fff" fill-opacity=".8" stroke="#fff" stroke-opacity=".8" stroke-width="45.358063"/><path d="m2362.967 5719.5811h38.572514v32.143761h-38.572514z" fill="none"/><path d="m2364.5742 5722.7954h35.358139v27.322197h-35.358139z" fill="none"/><path d="m2366.1831 5724.4025h30.5366l-12.8575 24.1078-17.6791-4.8216z" fill="#fff" fill-opacity=".8" stroke="#fff" stroke-opacity=".8" stroke-width="45.358063"/><path d="m2379.0391 5703.5088h703.94836v343.93826h-703.94836z" fill="none"/><path d="m2379.0391 5703.5088h702.34119v342.33105h-702.34119z" fill="none"/><path d="m2379.0406 5745.2959 12.8575-20.8934 12.8575-20.8935 675.019 295.7226-12.8575 24.1079-14.4647 19.2862z" fill="#fff" fill-opacity=".8" stroke="#fff" stroke-opacity=".8" stroke-width="45.358063"/><path d="m2372.6104 2799.3201h2693.6472v1179.676h-2693.6472z" fill="none"/><path d="m2372.6104 2799.3201h2690.4329v1174.8545h-2690.4329z" fill="none"/><path d="m3047.6309 3680.0592-673.4119-294.1154 1342.0021-585.0165 1343.6093 585.0165-1343.6093 586.6236z" fill="#18a303" fill-opacity=".8" stroke="#fff" stroke-opacity=".8" stroke-width="45.358063"/><g fill="none"><path d="m3042.8076 3652.7371h22.500633v30.536573h-22.500633z"/><path d="m2358.1455 3363.4431h705.5556v343.93826h-705.5556z"/><path d="m2358.1455 3363.4431h703.94836v342.33105h-703.94836z"/></g><path d="m3058.8812 3659.1658-11.2503 20.8934-14.4647 22.5006-673.4119-295.7226 11.2504-22.5006 14.4647-19.2863z" fill="#fff" fill-opacity=".8" stroke="#fff" stroke-opacity=".8" stroke-width="45.358063"/><path d="m2308.3228 3363.4431h72.323463v53.037209h-72.323463z" fill="none"/><path d="m2308.3228 3363.4431h67.5019v49.82283h-67.5019z" fill="none"/><path d="m2361.3615 3365.0503 12.8575 24.1079-12.8575 20.8934-51.43-20.8934z" fill="#fff" fill-opacity=".8" stroke="#fff" stroke-opacity=".8" stroke-width="45.358063"/><path d="m2358.1455 2778.4268h1375.7531v634.83929h-1375.7531z" fill="none"/><path d="m2358.1455 2778.4268h1372.5387v631.62494h-1372.5387z" fill="none"/><path d="m2385.4694 3408.4444-14.4647-19.2862-11.2504-22.5007 1346.8237-588.2308 9.6431 19.2862 12.8575 22.5007z" fill="#fff" fill-opacity=".8" stroke="#fff" stroke-opacity=".8" stroke-width="45.358063"/><path d="m3700.1477 2773.605h35.358139v35.358139h-35.358139z" fill="none"/><path d="m3700.1477 2773.605h33.75095v33.75095h-33.75095z" fill="none"/><path d="m3730.6858 2780.0339-16.0719 24.1078-14.4647-24.1078 14.4647-4.8216z" fill="#fff" fill-opacity=".8" stroke="#fff" stroke-opacity=".8" stroke-width="45.358063"/><path d="m3700.1477 2778.4268h1374.1459v634.83929h-1374.1459z" fill="none"/><path d="m3700.1477 2778.4268h1372.5387v631.62494h-1372.5387z" fill="none"/><path d="m3700.1492 2820.2136 12.8575-22.5007 14.4647-19.2862 1342.0021 588.2308-11.2503 22.5007-9.6432 19.2862z" fill="#fff" fill-opacity=".8" stroke="#fff" stroke-opacity=".8" stroke-width="45.358063"/><path d="m5055.0073 3363.4431h69.109085v53.037209h-69.109085z" fill="none"/><path d="m5055.0073 3363.4431h67.5019v49.82283h-67.5019z" fill="none"/><path d="m5067.8663 3410.0516-11.2503-20.8934 11.2503-24.1079 51.43 24.1079z" fill="#fff" fill-opacity=".8" stroke="#fff" stroke-opacity=".8" stroke-width="45.358063"/><path d="m3700.1477 3363.4431h1374.1459v634.83929h-1374.1459z" fill="none"/><path d="m3700.1477 3363.4431h1372.5387v633.23212h-1372.5387z" fill="none"/><path d="m5048.58 3365.0503 9.6432 19.2863 11.2503 22.5006-1342.0021 586.6237-14.4647-19.2863-12.8575-22.5006z" fill="#fff" fill-opacity=".8" stroke="#fff" stroke-opacity=".8" stroke-width="45.358063"/><path d="m3700.1477 3966.1387h35.358139v33.75095h-35.358139z" fill="none"/><path d="m3700.1477 3966.1387h33.75095v32.143761h-33.75095z" fill="none"/><path d="m3700.1492 3990.2465 14.4647-24.1078 16.0719 24.1078-16.0719 6.4288z" fill="#fff" fill-opacity=".8" stroke="#fff" stroke-opacity=".8" stroke-width="45.358063"/><path d="m3029.9502 3652.7371h705.5556v343.93826h-705.5556z" fill="none"/><path d="m3029.9502 3652.7371h703.94836v342.33105h-703.94836z" fill="none"/><path d="m3730.6858 3948.4596-11.2503 24.1078-14.4647 19.2863-673.4118-297.3298 11.2503-20.8934 14.4647-20.8935z" fill="#fff" fill-opacity=".8" stroke="#fff" stroke-opacity=".8" stroke-width="45.358063"/><path d="m2372.6104 1632.5016h1353.2523v1759.871h-1353.2523z" fill="none"/><path d="m2372.6104 1632.5016h1350.038v1758.2638h-1350.038z" fill="none"/><path d="m3047.6309 3096.6499-673.4119 292.5083v-1170.033l1346.8237-586.6236v1171.6401z" fill="#18a303" fill-opacity=".8" stroke="#fff" stroke-opacity=".8" stroke-width="45.358063"/><path d="m2358.1455 3072.542h705.5556v343.93826h-705.5556z" fill="none"/><path d="m2358.1455 3072.542h703.94836v342.33105h-703.94836z" fill="none"/><path d="m3033.1662 3074.1493 14.4647 19.2863 11.2503 22.5006-673.4118 295.7226-14.4647-22.5006-11.2504-20.8935z" fill="#fff" fill-opacity=".8" stroke="#fff" stroke-opacity=".8" stroke-width="45.358063"/><path d="m2342.0737 3384.3367h53.037209v46.608456h-53.037209z" fill="none"/><path d="m2345.2881 3384.3367h46.608456v45.001266h-46.608456z" fill="none"/><path d="m2345.2897 3384.3366h32.1437l11.2503 24.1078-43.394 17.6791z" fill="#fff" fill-opacity=".8" stroke="#fff" stroke-opacity=".8" stroke-width="45.358063"/><path d="m2345.2881 2217.5181h64.287521v1174.8545h-64.287521z" fill="none"/><path d="m2345.2881 2217.5181h62.680336v1173.2473h-62.680336z" fill="none"/><path d="m2404.7556 3389.1582h-30.5366-28.9293v-1170.033h28.9293 30.5366z" fill="#fff" fill-opacity=".8" stroke="#fff" stroke-opacity=".8" stroke-width="45.358063"/><path d="m2345.2881 2195.0173h36.965324v30.536573h-36.965324z" fill="none"/><path d="m2345.2881 2195.0173h35.358139v27.322197h-35.358139z" fill="none"/><path d="m2362.9687 2196.6246 14.4647 24.1078h-32.1437v-16.0719z" fill="#fff" fill-opacity=".8" stroke="#fff" stroke-opacity=".8" stroke-width="45.358063"/><path d="m2358.1455 1611.6082h1375.7531v634.83929h-1375.7531z" fill="none"/><path d="m2358.1455 1611.6082h1372.5387v633.23212h-1372.5387z" fill="none"/><path d="m2385.4694 2241.6259-14.4647-19.2863-11.2504-22.5006 1346.8237-586.6237 9.6431 19.2863 12.8575 22.5006z" fill="#fff" fill-opacity=".8" stroke="#fff" stroke-opacity=".8" stroke-width="45.358063"/><path d="m3695.3262 1593.9291h53.037209v46.608456h-53.037209z" fill="none"/><path d="m3700.1477 1593.9291h46.608456v45.001266h-46.608456z" fill="none"/><path d="m3745.1505 1635.7159h-30.5366l-14.4647-22.5006 45.0013-19.2862z" fill="#fff" fill-opacity=".8" stroke="#fff" stroke-opacity=".8" stroke-width="45.358063"/><path d="m3684.0757 1632.5016h64.287521v1178.0688h-64.287521z" fill="none"/><path d="m3684.0757 1632.5016h62.680336v1178.0688h-62.680336z" fill="none"/><path d="m3684.0773 1632.5016h28.9294 32.1438v1176.4617h-32.1438-28.9294z" fill="#fff" fill-opacity=".8" stroke="#fff" stroke-opacity=".8" stroke-width="45.358063"/><path d="m3709.7908 2799.3201h38.572514v32.143761h-38.572514z" fill="none"/><path d="m3711.3979 2799.3201h35.358139v27.322197h-35.358139z" fill="none"/><path d="m3727.4714 2825.0351-14.4647-24.1078h32.1438v19.2863z" fill="#fff" fill-opacity=".8" stroke="#fff" stroke-opacity=".8" stroke-width="45.358063"/><path d="m3029.9502 2780.0339h705.5556v343.93826h-705.5556z" fill="none"/><path d="m3029.9502 2780.0339h703.94836v342.33105h-703.94836z" fill="none"/><path d="m3704.9708 2780.0339 14.4647 20.8934 11.2503 20.8935-673.4118 297.3298-14.4647-24.1079-11.2503-19.2862z" fill="#fff" fill-opacity=".8" stroke="#fff" stroke-opacity=".8" stroke-width="45.358063"/><path d="m3711.3979 1632.5016h1353.2523v1759.871h-1353.2523z" fill="none"/><path d="m3711.3979 1632.5016h1351.6451v1758.2638h-1351.6451z" fill="none"/><path d="m4386.4185 3096.6499 673.4119 292.5083v-1170.033l-1346.8237-586.6236v1171.6401z" fill="#18a303" fill-opacity=".8" stroke="#fff" stroke-opacity=".8" stroke-width="45.358063"/><g fill="none"><path d="m4371.9521 3095.0427h22.500633v30.536573h-22.500633z"/><path d="m4371.9521 3072.542h703.94836v343.93826h-703.94836z"/><path d="m4371.9521 3072.542h702.34119v342.33105h-702.34119z"/></g><path d="m4371.9538 3115.9362 12.8576-22.5006 12.8575-19.2863 675.019 294.1154-12.8575 20.8935-14.4647 22.5006z" fill="#fff" fill-opacity=".8" stroke="#fff" stroke-opacity=".8" stroke-width="45.358063"/><path d="m5043.7568 3384.3367h48.215645v46.608456h-48.215645z" fill="none"/><path d="m5043.7568 3384.3367h46.608456v45.001266h-46.608456z" fill="none"/><path d="m5043.7585 3408.4444 14.4647-24.1078h28.9294v41.7869z" fill="#fff" fill-opacity=".8" stroke="#fff" stroke-opacity=".8" stroke-width="45.358063"/><path d="m5026.0776 2217.5181h65.894714v1179.676h-65.894714z" fill="none"/><path d="m5027.6851 2217.5181h62.680336v1174.8545h-62.680336z" fill="none"/><path d="m5087.1526 3390.7654h-30.5366-28.9294v-1171.6402h28.9294 30.5366z" fill="#fff" fill-opacity=".8" stroke="#fff" stroke-opacity=".8" stroke-width="45.358063"/><path d="m5055.0073 2195.0173h36.965324v30.536573h-36.965324z" fill="none"/><path d="m5055.0073 2195.0173h35.358139v27.322197h-35.358139z" fill="none"/><path d="m5087.1526 2220.7324h-30.5366l12.8575-24.1078 17.6791 8.0359z" fill="#fff" fill-opacity=".8" stroke="#fff" stroke-opacity=".8" stroke-width="45.358063"/><path d="m3700.1477 1611.6082h1374.1459v634.83929h-1374.1459z" fill="none"/><path d="m3700.1477 1611.6082h1372.5387v633.23212h-1372.5387z" fill="none"/><path d="m5069.4735 2199.839-11.2503 22.5006-9.6432 19.2863-1348.4308-586.6237 12.8575-22.5006 14.4647-19.2863z" fill="#fff" fill-opacity=".8" stroke="#fff" stroke-opacity=".8" stroke-width="45.358063"/><path d="m3684.0757 1593.9291h49.82283v46.608456h-49.82283z" fill="none"/><path d="m3684.0757 1593.9291h46.608456v45.001266h-46.608456z" fill="none"/><path d="m3729.0786 1613.2153-12.8575 22.5006h-32.1438v-41.7868z" fill="#fff" fill-opacity=".8" stroke="#fff" stroke-opacity=".8" stroke-width="45.358063"/><path d="m3684.0757 1632.5016h64.287521v1178.0688h-64.287521z" fill="none"/><path d="m3684.0757 1632.5016h62.680336v1178.0688h-62.680336z" fill="none"/><path d="m3684.0773 1632.5016h28.9294 32.1438v1176.4617h-32.1438-28.9294z" fill="#fff" fill-opacity=".8" stroke="#fff" stroke-opacity=".8" stroke-width="45.358063"/><path d="m3684.0757 2799.3201h36.965324v32.143761h-36.965324z" fill="none"/><path d="m3684.0757 2799.3201h35.358139v27.322197h-35.358139z" fill="none"/><path d="m3684.0773 2800.9273h32.1438l-12.8575 24.1078-19.2863-4.8215z" fill="#fff" fill-opacity=".8" stroke="#fff" stroke-opacity=".8" stroke-width="45.358063"/><path d="m3700.1477 2780.0339h703.94836v343.93826h-703.94836z" fill="none"/><path d="m3700.1477 2780.0339h702.34119v342.33105h-702.34119z" fill="none"/><path d="m3700.1492 2821.8208 12.8575-20.8935 14.4647-20.8934 673.4118 295.7226-12.8575 24.1078-12.8575 19.2863z" fill="#fff" fill-opacity=".8" stroke="#fff" stroke-opacity=".8" stroke-width="45.358063"/><path d="m2372.6104 1632.5016h2693.6472v1178.0688h-2693.6472z" fill="none"/><path d="m2372.6104 1632.5016h2690.4329v1178.0688h-2690.4329z" fill="none"/><path d="m3047.6309 2511.6335-673.4119-290.9011 1342.0021-588.2308 1343.6093 588.2308-1343.6093 588.2309z" fill="#18a303" fill-opacity=".8" stroke="#fff" stroke-opacity=".8" stroke-width="45.358063"/><g fill="none"><path d="m3042.8076 2487.5256h22.500633v28.929386h-22.500633z"/><path d="m2358.1455 2195.0173h705.5556v345.54544h-705.5556z"/><path d="m2358.1455 2195.0173h703.94836v342.33105h-703.94836z"/></g><path d="m3058.8812 2490.74-11.2503 20.8935-14.4647 24.1078-673.4119-297.3298 11.2504-22.5006 14.4647-19.2863z" fill="#fff" fill-opacity=".8" stroke="#fff" stroke-opacity=".8" stroke-width="45.358063"/><path d="m2308.3228 2195.0173h72.323463v53.037209h-72.323463z" fill="none"/><path d="m2308.3228 2195.0173h67.5019v49.82283h-67.5019z" fill="none"/><path d="m2361.3615 2196.6246 12.8575 24.1078-12.8575 20.8935-51.43-20.8935z" fill="#fff" fill-opacity=".8" stroke="#fff" stroke-opacity=".8" stroke-width="45.358063"/><path d="m2358.1455 1610.0009h1375.7531v634.83929h-1375.7531z" fill="none"/><path d="m2358.1455 1610.0009h1372.5387v633.23212h-1372.5387z" fill="none"/><path d="m2385.4694 2240.0187-14.4647-19.2863-11.2504-22.5006 1346.8237-588.2309 9.6431 20.8935 12.8575 20.8934z" fill="#fff" fill-opacity=".8" stroke="#fff" stroke-opacity=".8" stroke-width="45.358063"/><path d="m3700.1477 1603.5721h35.358139v35.358139h-35.358139z" fill="none"/><path d="m3700.1477 1603.5721h33.75095v33.75095h-33.75095z" fill="none"/><path d="m3730.6858 1610.0009-16.0719 24.1079-14.4647-24.1079 14.4647-4.8215z" fill="#fff" fill-opacity=".8" stroke="#fff" stroke-opacity=".8" stroke-width="45.358063"/><path d="m3700.1477 1610.0009h1374.1459v634.83929h-1374.1459z" fill="none"/><path d="m3700.1477 1610.0009h1372.5387v633.23212h-1372.5387z" fill="none"/><path d="m3700.1492 1651.7878 12.8575-20.8934 14.4647-20.8935 1342.0021 588.2309-11.2503 22.5006-9.6432 19.2863z" fill="#fff" fill-opacity=".8" stroke="#fff" stroke-opacity=".8" stroke-width="45.358063"/><path d="m5055.0073 2195.0173h69.109085v53.037209h-69.109085z" fill="none"/><path d="m5055.0073 2195.0173h67.5019v49.82283h-67.5019z" fill="none"/><path d="m5067.8663 2241.6259-11.2503-20.8935 11.2503-24.1078 51.43 24.1078z" fill="#fff" fill-opacity=".8" stroke="#fff" stroke-opacity=".8" stroke-width="45.358063"/><path d="m3700.1477 2191.803h1374.1459v641.26807h-1374.1459z" fill="none"/><path d="m3700.1477 2195.0173h1372.5387v633.23212h-1372.5387z" fill="none"/><path d="m5048.58 2196.6246 9.6432 19.2863 11.2503 22.5006-1342.0021 588.2308-14.4647-20.8934-12.8575-20.8935z" fill="#fff" fill-opacity=".8" stroke="#fff" stroke-opacity=".8" stroke-width="45.358063"/><path d="m3700.1477 2799.3201h35.358139v35.358139h-35.358139z" fill="none"/><path d="m3700.1477 2799.3201h33.75095v33.75095h-33.75095z" fill="none"/><path d="m3700.1492 2825.0351 14.4647-24.1078 16.0719 24.1078-16.0719 4.8216z" fill="#fff" fill-opacity=".8" stroke="#fff" stroke-opacity=".8" stroke-width="45.358063"/><path d="m3029.9502 2487.5256h705.5556v343.93826h-705.5556z" fill="none"/><path d="m3029.9502 2487.5256h703.94836v340.72388h-703.94836z" fill="none"/><path d="m3730.6858 2783.2483-11.2503 22.5006-14.4647 20.8934-673.4118-297.3298 11.2503-22.5006 14.4647-19.2863z" fill="#fff" fill-opacity=".8" stroke="#fff" stroke-opacity=".8" stroke-width="45.358063"/><path d="m3711.3979 2217.5181h1353.2523v1761.4781h-1353.2523z" fill="none"/><path d="m3711.3979 2217.5181h1351.6451v1759.871h-1351.6451z" fill="none"/><path d="m4386.4185 3683.2736-673.4118 290.901v-1170.0329l1346.8237-585.0165v1171.6402z" fill="#18a303" fill-opacity=".8" stroke="#fff" stroke-opacity=".8" stroke-width="45.358063"/><path d="m3700.1477 3654.3442h703.94836v345.54544h-703.94836z" fill="none"/><path d="m3700.1477 3654.3442h702.34119v342.33105h-702.34119z" fill="none"/><path d="m4375.1682 3655.9514 12.8575 19.2862 12.8575 22.5007-673.4118 295.7226-14.4647-22.5006-12.8575-20.8935z" fill="#fff" fill-opacity=".8" stroke="#fff" stroke-opacity=".8" stroke-width="45.358063"/><path d="m3684.0757 3966.1387h49.82283v46.608456h-49.82283z" fill="none"/><path d="m3684.0757 3966.1387h46.608456v45.001266h-46.608456z" fill="none"/><path d="m3684.0773 3966.1387h32.1438l12.8575 24.1078-45.0013 17.6791z" fill="#fff" fill-opacity=".8" stroke="#fff" stroke-opacity=".8" stroke-width="45.358063"/><path d="m3684.0757 2799.3201h64.287521v1174.8545h-64.287521z" fill="none"/><path d="m3684.0757 2799.3201h62.680336v1173.2473h-62.680336z" fill="none"/><path d="m3745.1505 3970.9603h-32.1438-28.9294v-1170.033h28.9294 32.1438z" fill="#fff" fill-opacity=".8" stroke="#fff" stroke-opacity=".8" stroke-width="45.358063"/><path d="m3684.0757 2780.0339h36.965324v30.536573h-36.965324z" fill="none"/><path d="m3684.0757 2780.0339h35.358139v27.322197h-35.358139z" fill="none"/><path d="m3703.3636 2780.0339 12.8575 24.1078h-32.1438v-16.0719z" fill="#fff" fill-opacity=".8" stroke="#fff" stroke-opacity=".8" stroke-width="45.358063"/><path d="m3700.1477 2191.803h1374.1459v641.26807h-1374.1459z" fill="none"/><path d="m3700.1477 2195.0173h1372.5387v633.23212h-1372.5387z" fill="none"/><path d="m3727.4714 2826.6423-14.4647-20.8934-12.8575-20.8935 1348.4308-588.2308 9.6432 19.2863 11.2503 22.5006z" fill="#fff" fill-opacity=".8" stroke="#fff" stroke-opacity=".8" stroke-width="45.358063"/><path d="m5043.7568 2177.3384h48.215645v48.215645h-48.215645z" fill="none"/><path d="m5043.7568 2177.3384h46.608456v45.001266h-46.608456z" fill="none"/><path d="m5087.1526 2220.7324h-28.9294l-14.4647-24.1078 43.3941-17.6791z" fill="#fff" fill-opacity=".8" stroke="#fff" stroke-opacity=".8" stroke-width="45.358063"/><path d="m5026.0776 2217.5181h65.894714v1179.676h-65.894714z" fill="none"/><path d="m5027.6851 2217.5181h62.680336v1174.8545h-62.680336z" fill="none"/><path d="m5027.6866 2219.1252h28.9294 30.5366v1171.6402h-30.5366-28.9294z" fill="#fff" fill-opacity=".8" stroke="#fff" stroke-opacity=".8" stroke-width="45.358063"/><path d="m5055.0073 3384.3367h36.965324v28.929386h-36.965324z" fill="none"/><path d="m5055.0073 3384.3367h35.358139v25.71501h-35.358139z" fill="none"/><path d="m5069.4735 3408.4444-12.8575-24.1078h30.5366v19.2863z" fill="#fff" fill-opacity=".8" stroke="#fff" stroke-opacity=".8" stroke-width="45.358063"/><path d="m4371.9521 3363.4431h703.94836v343.93826h-703.94836z" fill="none"/><path d="m4371.9521 3363.4431h702.34119v342.33105h-702.34119z" fill="none"/><path d="m5045.3657 3365.0503 14.4647 19.2863 12.8575 22.5006-675.019 295.7226-12.8575-22.5006-12.8576-20.8934z" fill="#fff" fill-opacity=".8" stroke="#fff" stroke-opacity=".8" stroke-width="45.358063"/><path d="m2372.6104 2215.9109h1353.2523v1761.4781h-1353.2523z" fill="none"/><path d="m2372.6104 2215.9109h1350.038v1758.2638h-1350.038z" fill="none"/><path d="m3047.6309 3681.6664 673.4118 290.901v-1170.0329l-1346.8237-586.6236v1173.2473z" fill="#18a303" fill-opacity=".8" stroke="#fff" stroke-opacity=".8" stroke-width="45.358063"/><g fill="none"><path d="m3029.9502 3675.2375h24.107822v30.536573h-24.107822z"/><path d="m3029.9502 3654.3442h705.5556v345.54544h-705.5556z"/><path d="m3029.9502 3654.3442h703.94836v342.33105h-703.94836z"/></g><path d="m3031.559 3697.7383 11.2503-22.5007 14.4647-19.2862 673.4118 294.1154-11.2503 20.8935-14.4647 22.5006z" fill="#fff" fill-opacity=".8" stroke="#fff" stroke-opacity=".8" stroke-width="45.358063"/><path d="m3695.3262 3966.1387h53.037209v46.608456h-53.037209z" fill="none"/><path d="m3700.1477 3966.1387h46.608456v45.001266h-46.608456z" fill="none"/><path d="m3700.1492 3990.2465 14.4647-24.1078h30.5366v41.7869z" fill="#fff" fill-opacity=".8" stroke="#fff" stroke-opacity=".8" stroke-width="45.358063"/><path d="m3684.0757 2799.3201h64.287521v1179.676h-64.287521z" fill="none"/><path d="m3684.0757 2799.3201h62.680336v1174.8545h-62.680336z" fill="none"/><path d="m3745.1505 3972.5674h-32.1438-28.9294v-1171.6401h28.9294 32.1438z" fill="#fff" fill-opacity=".8" stroke="#fff" stroke-opacity=".8" stroke-width="45.358063"/><path d="m3709.7908 2778.4268h38.572514v30.536573h-38.572514z" fill="none"/><path d="m3711.3979 2778.4268h35.358139v25.71501h-35.358139z" fill="none"/><path d="m3745.1505 2802.5345h-32.1438l14.4647-24.1078 17.6791 8.0359z" fill="#fff" fill-opacity=".8" stroke="#fff" stroke-opacity=".8" stroke-width="45.358063"/><path d="m2358.1455 2191.803h1375.7531v641.26807h-1375.7531z" fill="none"/><path d="m2358.1455 2195.0173h1372.5387v633.23212h-1372.5387z" fill="none"/><path d="m3729.0786 2784.8554-12.8575 20.8935-9.6431 20.8934-1346.8237-588.2308 11.2504-22.5006 14.4647-19.2863z" fill="#fff" fill-opacity=".8" stroke="#fff" stroke-opacity=".8" stroke-width="45.358063"/><path d="m2342.0737 2177.3384h53.037209v48.215645h-53.037209z" fill="none"/><path d="m2345.2881 2177.3384h46.608456v45.001266h-46.608456z" fill="none"/><path d="m2388.6837 2196.6246-11.2503 24.1078h-32.1437v-41.7869z" fill="#fff" fill-opacity=".8" stroke="#fff" stroke-opacity=".8" stroke-width="45.358063"/><path d="m2345.2881 2215.9109h64.287521v1178.0688h-64.287521z" fill="none"/><path d="m2345.2881 2215.9109h62.680336v1174.8545h-62.680336z" fill="none"/><path d="m2345.2897 2215.9109h28.9293 30.5366v1173.2473h-30.5366-28.9293z" fill="#fff" fill-opacity=".8" stroke="#fff" stroke-opacity=".8" stroke-width="45.358063"/><path d="m2345.2881 3384.3367h36.965324v28.929386h-36.965324z" fill="none"/><path d="m2345.2881 3384.3367h35.358139v25.71501h-35.358139z" fill="none"/><path d="m2345.2897 3384.3366h32.1437l-14.4647 24.1078-17.679-4.8215z" fill="#fff" fill-opacity=".8" stroke="#fff" stroke-opacity=".8" stroke-width="45.358063"/><path d="m2358.1455 3363.4431h705.5556v343.93826h-705.5556z" fill="none"/><path d="m2358.1455 3363.4431h703.94836v342.33105h-703.94836z" fill="none"/><path d="m2359.7543 3406.8372 11.2504-22.5006 14.4647-19.2863 673.4118 294.1155-11.2503 24.1078-14.4647 19.2862z" fill="#fff" fill-opacity=".8" stroke="#fff" stroke-opacity=".8" stroke-width="45.358063"/></svg>