<svg height="24" width="24" xmlns="http://www.w3.org/2000/svg" xmlns:xlink="http://www.w3.org/1999/xlink"><radialGradient id="a" cx="65.296997" cy="48.216" gradientTransform="matrix(0 .52545 -.57163 0 46.193 -21.124)" gradientUnits="userSpaceOnUse" r="31"><stop offset="0" stop-color="#d1ff82"/><stop offset=".262" stop-color="#9bdb4d"/><stop offset=".661" stop-color="#68b723"/><stop offset="1" stop-color="#3a9104"/></radialGradient><linearGradient id="b" gradientTransform="matrix(.2818 0 0 .2801 12.197 12.015)" gradientUnits="userSpaceOnUse" x1="24.139" x2="24.139" xlink:href="#c" y1="10.631" y2="35.623001"/><linearGradient id="c"><stop offset="0" stop-color="#fff"/><stop offset="0" stop-color="#fff" stop-opacity=".235"/><stop offset="1" stop-color="#fff" stop-opacity=".157"/><stop offset="1" stop-color="#fff" stop-opacity=".392"/></linearGradient><linearGradient id="d" gradientTransform="matrix(.2818 0 0 .2801 12.18 12.022)" gradientUnits="userSpaceOnUse" x1="24.139" x2="24.139" xlink:href="#c" y1="21.341999" y2="24.912001"/><radialGradient id="e" cx="11" cy="15.707516" gradientTransform="matrix(-2.5149558 -.00000071 .00000073 -2.5024743 38.664504 54.307664)" gradientUnits="userSpaceOnUse" r="1.998022" xlink:href="#f"/><linearGradient id="f"><stop offset="0" stop-color="#737373"/><stop offset=".262" stop-color="#636363"/><stop offset=".705" stop-color="#4b4b4b"/><stop offset="1" stop-color="#3f3f3f"/></linearGradient><radialGradient id="g" cx="18.974" cy="3.907" gradientTransform="matrix(-3.627581 .1056419 -.0955016 -3.2794105 87.236615 11.808028)" gradientUnits="userSpaceOnUse" r="5.235" xlink:href="#f"/><radialGradient id="h" cx="6.325" cy="4.56" gradientTransform="matrix(-2.6740828 0 0 -3.0560783 21.912985 15.93483)" gradientUnits="userSpaceOnUse" r="5.235" xlink:href="#f"/><g stroke="#000" stroke-opacity=".49"><path d="m5.0002745 5.0554636q-1.3584811 0-2.0462596 1.4894433-.6792406 1.4789023-.6792406 4.4588431 0 2.9694.6792406 4.458843.6877785 1.48101 2.0462596 1.48101 1.3660704 0 2.045311-1.479956.6887271-1.489443.6887271-4.458843 0-2.9799407-.6877785-4.458843-.6782919-1.4904974-2.0443623-1.4904974zm0-1.5474188q2.184764 0 3.3345399 1.9247866 1.1573652 1.9152997 1.1573652 5.5719726 0 3.647186-1.1573652 5.571973-1.1497759 1.915299-3.3345399 1.915299-2.1857126 0-3.3430778-1.915299-1.1488273-1.924787-1.1488273-5.571973 0-3.657727 1.1478786-5.5719726 1.1573652-1.9247866 3.3440265-1.9247866z" fill="url(#h)" stroke-width=".999991"/><path d="m18.033765 5.0554636q-1.358481 0-2.04626 1.4894433-.678292 1.4789023-.678292 4.4588431 0 2.9694.678292 4.458843.687779 1.48101 2.04626 1.48101 1.36607 0 2.04626-1.479956.688727-1.489443.688727-4.458843 0-2.9799407-.687779-4.458843-.678292-1.4904974-2.045311-1.4904974zm0-1.5474188q2.184764 0 3.33454 1.9247866 1.157365 1.9152997 1.157365 5.5719726 0 3.647186-1.157365 5.571973-1.150725 1.915299-3.335489 1.915299-2.184764 0-3.343078-1.915299-1.147878-1.924787-1.147878-5.571973 0-3.657727 1.147878-5.5719726 1.157366-1.9247866 3.343078-1.9247866z" fill="url(#g)" stroke-width=".999991"/><path d="m12.709413 16.655096q-.1251.482527-.303814 1.027605-.169778.545078-.384235 1.099091-.205521.554013-.437849 1.099091-.223392.554013-.446785 1.054413h-1.9658536q.1340355-.545078.2591353-1.134834.1340354-.589756.2501995-1.179512.1250998-.580821.2233925-1.134834.0982923-.562949.1697783-1.036541h2.501996z" fill="url(#e)" stroke="#000" stroke-opacity=".65098"/></g><path d="m16.5 16.5v-3h4v3h3v4h-3v3h-4v-3h-3v-4z" fill="url(#a)" stroke="#206b00" stroke-linecap="round" stroke-linejoin="round" stroke-opacity=".501961"/><g fill="none"><path d="m17.5 18.004v-3.504h2v3.5m0 1v3.5h-2v-3.5" opacity=".5" stroke="url(#b)"/><path d="m20 17.507 2.5-.007v2l-2.5.007m-3 0-2.5-.007v-2l2.5.007" opacity=".5" stroke="url(#d)"/></g></svg>