<svg viewBox="0 0 24 24" xmlns="http://www.w3.org/2000/svg"><g fill="#2e3436" transform="matrix(-1 0 0 1 24 0)"><path d="m8.5 4.0234375c-.2769994 0-.5.2230005-.5.5v.9882813c0 .2769994.2230006.5.5.5h13c.277 0 .5-.2230006.5-.5v-.9882813c0-.2769995-.223-.5-.5-.5zm0 6.9882815c-.2769994 0-.5.223-.5.5v.988281c0 .277.2230006.5.5.5h6.419922c.09169-.01157.184496-.01953.279297-.01953h6.433593c.211922-.058034.367188-.249637.367188-.48047v-.988281c0-.277-.223-.5-.5-.5zm0 7c-.2769994 0-.5.223-.5.5v.988281c0 .277.2230006.5.5.5h4.480469v-1.988281z"/><path d="m4.5 3.0058593s.000001 1 1 1l.00195 1h-1.00195v2.9941407h-1.5v-4.9941407zm0 7.9824217c.2769997 0 .5.223.5.5v1c0 .277-.2230003.5-.5.5h-1c-.2769997 0-.5-.223-.5-.5v-1c0-.277.2230003-.5.5-.5zm-3 4.5 3 3 1-1 1.5 1.5-2.5 2.5-4.5-4.5z" opacity=".35"/><path d="m15.199219 14c-.65 0-1.199219.549219-1.199219 1.199219v6.601562c0 .65.549219 1.199219 1.199219 1.199219h6.800781c.659999 0 1-.549219 1-1.199219v-6.601562c0-.65-.340001-1.199219-1-1.199219zm1.070312 1c.134379 0 .268126.05133.371094.154297l1.859375 1.859375 1.859375-1.859375c.205937-.205937.536251-.205937.742187 0l.744141.744141c.205936.205936.205937.53625 0 .742187l-1.859375 1.859375 1.859375 1.859375c.205937.205937.205937.536251 0 .742187l-.744141.744141c-.205936.205937-.53625.205937-.742187 0l-1.859375-1.859375-1.859375 1.859375c-.205937.205937-.536251.205936-.742187 0l-.744141-.744141c-.205937-.205936-.205937-.53625 0-.742187l1.859375-1.859375-1.859375-1.859375c-.205937-.205937-.205937-.536251 0-.742187l.744141-.744141c.102968-.102968.236714-.154297.371093-.154297z"/></g></svg>