<svg viewBox="0 0 16 16" xmlns="http://www.w3.org/2000/svg"><path d="m13 1c0 .5522847-.447715 1-1 1v1h1v3h1v-5zm-1 6v2h2v-2zm3 4-2 2-1-1-1 1 2 2 3-3z" opacity=".35"/><path d="m11 2v2h-8v-2zm0 5v2h-1v-1c0-.554-.446-1-1-1zm-3.1875 1c.6627 0 1.1875.54899 1.1875 1.21875v4.5625c0 .66976-.5248 1.21875-1.1875 1.21875h-4.8125c-.6627 0-1-.54899-1-1.21875v-4.5625c0-.66976.33729-1.21875 1-1.21875zm.1875 1h-1l-1.5 1.5-1.5-1.5h-1v1l1.5 1.5-1.5 1.5v1h1l1.5-1.5 1.5 1.5h1v-1l-1.5-1.5 1.5-1.5z" fill="#555753"/></svg>