<svg viewBox="0 0 24 24" xmlns="http://www.w3.org/2000/svg"><path d="m15 2-3.5 18h1.760593l1.239407-6h2.940678l.559322-2h-3l2-10zm-11.5 3-.5 2h7c-.603514 6.498497-2.1968813 9.87557-8 10l-.5 2c9.15313-.738772 10.385411-6.317607 10.5-14z" fill="#4b4b4f" fill-rule="evenodd"/><path d="m16.183594 12-3.832032 3.617188-.851562 4.382812h1.759766l1.240234-6h2.941406l.558594-2z" fill="#fff" fill-opacity=".784314"/><path d="m1.5 21c-.277 0-.5.223-.5.5s.223.5.5.5h9c-.26655-.291318-.5129432-.669998-.431642-1z" fill="#4b4b4f"/><path d="m20.023437 10.66668-7.22977 6.826302-1.129346 2.420883c-.290506.290127-.147295 1.007368.143211 1.297496l2.467831 1.940335c.145253.145064.837068.2705 1.02663.2705l2.343181-.712149 5.076889-5.511248.671356-3.731186z" fill="none" stroke="#b6496c"/><path d="m16.518661 20.388672 6.495399-6.642082-2.969866-2.406793-6.847606 6.327329z" fill="#e68497"/><path d="m15.06022 22.943155c.189562 0 .367135-.14906.512389-.294137l.957771-2.242768-3.333792-2.739124-.994881 2.211518c-.290506.290127-.290506.756747 0 1.046875l2.266831 1.75112c.145254.145064.40212.266516.591682.266516z" fill="#e7acbc"/><path d="m15.241153 22.93628 2.194847-.654818 4.949484-5.279652.628576-3.25522-6.48368 6.65966z" fill="#ab4263"/><path d="m13.589814 18.034536 6.466301-6.026452 2.633511 2.124432" fill="none" stroke="#f398b3"/></svg>