<svg height="256" viewBox="0 0 47.360415 67.733335" width="179" xmlns="http://www.w3.org/2000/svg" xmlns:xlink="http://www.w3.org/1999/xlink"><linearGradient id="a"><stop offset="0"/><stop offset="1" stop-opacity="0"/></linearGradient><linearGradient id="b" xlink:href="#a"/><linearGradient id="c"><stop offset="0" stop-color="#fff"/><stop offset="1" stop-color="#fff" stop-opacity="0"/></linearGradient><linearGradient id="d"><stop offset="0" stop-color="#cbcbcd"/><stop offset=".5" stop-color="#e0e0e2"/><stop offset="1" stop-color="#f2f2f2"/></linearGradient><linearGradient id="e" gradientTransform="matrix(.03036425 0 0 .04391512 -.97068 -20.132442)" gradientUnits="userSpaceOnUse" x1="399.77466" x2="399.77466" xlink:href="#d" y1="727.07941" y2="480.60214"/><linearGradient id="f"><stop offset="0" stop-color="#fff"/><stop offset=".49140647" stop-color="#fff"/><stop offset="1" stop-color="#dcdcdc"/></linearGradient><linearGradient id="g" gradientTransform="matrix(.03036425 0 0 .04391512 28.890065 68.696083)" gradientUnits="userSpaceOnUse" x1="-333.0289" x2="-333.0289" xlink:href="#f" y1="-1473.6504" y2="-776.61371"/><filter id="h"><feGaussianBlur stdDeviation="1.177891"/></filter><linearGradient id="i" gradientTransform="matrix(.03036425 0 0 .04391512 -.97068 -20.132442)" gradientUnits="userSpaceOnUse" x1="399.77466" x2="399.77466" xlink:href="#e" y1="727.07941" y2="480.60214"/><linearGradient id="j" gradientTransform="matrix(.03036425 0 0 .04391512 28.890065 68.696083)" gradientUnits="userSpaceOnUse" x1="-333.0289" x2="-333.0289" xlink:href="#g" y1="-1473.6504" y2="-776.61371"/><linearGradient id="k" gradientTransform="matrix(.0321355 0 0 .04647684 -1.027302 241.82648)" gradientUnits="userSpaceOnUse" x1="399.77466" x2="399.77466" xlink:href="#d" y1="727.07941" y2="480.60214"/><linearGradient id="l" gradientTransform="matrix(.0321355 0 0 .04647684 30.575317 335.83667)" gradientUnits="userSpaceOnUse" x1="-333.0289" x2="-333.0289" xlink:href="#f" y1="-1473.6504" y2="-776.61371"/><linearGradient id="m"><stop offset="0" stop-color="#5e5e5e"/><stop offset="1" stop-color="#5e5e5e" stop-opacity="0"/></linearGradient><linearGradient id="n" gradientTransform="matrix(.44151224 0 0 .41568081 -24.172459 -311.89243)" gradientUnits="userSpaceOnUse" x1="101.3308" x2="101.3308" y1="51.34185" y2="66.668198"><stop offset="0" stop-color="#cbcbcd"/><stop offset=".66545075" stop-color="#e0e0e2"/><stop offset="1" stop-color="#fff"/></linearGradient><linearGradient id="o" gradientUnits="userSpaceOnUse" x1="16.933334" x2="16.933334" y1="272.65829" y2="279.0083"><stop offset="0" stop-color="#535353"/><stop offset=".10625" stop-color="#a9a9a9"/><stop offset=".21249999" stop-color="#fff"/><stop offset=".83083332" stop-color="#fff"/><stop offset="1" stop-color="#e6e6e6"/></linearGradient><linearGradient id="p" gradientUnits="userSpaceOnUse" x1="3.105481" x2="5.364715" xlink:href="#m" y1="275.00192" y2="275.6073"/><linearGradient id="q" gradientUnits="userSpaceOnUse" x1="-30.76119" x2="-28.501957" xlink:href="#m" y1="275.00192" y2="275.6073"/><filter id="r" color-interpolation-filters="sRGB" height="1.156" width="1.0468" x="-.0234" y="-.078"><feGaussianBlur stdDeviation=".20637505"/></filter><linearGradient id="s" gradientTransform="matrix(.0321355 0 0 .04647684 -1.027302 241.82648)" gradientUnits="userSpaceOnUse" x1="399.77466" x2="399.77466" xlink:href="#k" y1="727.07941" y2="480.60214"/><linearGradient id="t" gradientTransform="matrix(.0321355 0 0 .04647684 30.575317 335.83667)" gradientUnits="userSpaceOnUse" x1="-333.0289" x2="-333.0289" xlink:href="#l" y1="-1473.6504" y2="-776.61371"/><linearGradient id="u" gradientUnits="userSpaceOnUse" x1="16.933334" x2="16.933334" xlink:href="#o" y1="272.65829" y2="279.0083"/><linearGradient id="v" gradientTransform="matrix(.44151224 0 0 .41568081 -24.172459 -311.89243)" gradientUnits="userSpaceOnUse" x1="101.3308" x2="101.3308" xlink:href="#n" y1="51.34185" y2="66.668198"/><filter id="w"><feGaussianBlur stdDeviation="1.0394514"/></filter><filter id="x"><feGaussianBlur stdDeviation=".50063244"/></filter><radialGradient id="y" cx="102" cy="112.3047" gradientUnits="userSpaceOnUse" r="139.5585"><stop offset="0" stop-color="#00537d"/><stop offset=".0151" stop-color="#186389"/><stop offset=".0558" stop-color="#558ca8"/><stop offset=".0964" stop-color="#89afc3"/><stop offset=".1357" stop-color="#b3ccd8"/><stop offset=".1737" stop-color="#d4e2e9"/><stop offset=".2099" stop-color="#ecf2f5"/><stop offset=".2435" stop-color="#fafcfd"/><stop offset=".2722" stop-color="#fff"/></radialGradient><radialGradient id="z" cx="102" cy="112.3047" gradientTransform="matrix(.9787234 0 0 .9818182 1.361705 1.163636)" gradientUnits="userSpaceOnUse" r="139.55859"><stop offset="0" stop-color="#535557"/><stop offset=".11366145" stop-color="#898a8c"/><stop offset=".20296688" stop-color="#ececec"/><stop offset=".2363" stop-color="#fafafa"/><stop offset=".2722" stop-color="#fff"/><stop offset=".5313" stop-color="#fafafa"/><stop offset=".8449" stop-color="#ebecec"/><stop offset="1" stop-color="#e1e2e3"/></radialGradient><clipPath id="A"><path d="m236.74922 2.290147c0 8.971924-14.3372 16.254104-32.00119 16.254104-17.57201-.000002-31.84899-7.205862-31.99725-16.113393l.12664 6.4646545c0 8.9719285 14.21056 16.2541055 31.87458 16.2541045 17.66399 0 31.87058-7.282176 31.87058-16.2541045z"/></clipPath><filter id="B" color-interpolation-filters="sRGB"><feGaussianBlur stdDeviation=".80423991"/></filter><filter id="C" color-interpolation-filters="sRGB"><feGaussianBlur stdDeviation=".26807997"/></filter><radialGradient id="D" cx="949.33209" cy="517.87024" fx="941.93115" fy="440.16125" gradientTransform="matrix(.216526 .00830156 -.00660672 .1269813 2.61637 -83.321545)" gradientUnits="userSpaceOnUse" r="119.39729" xlink:href="#c"/><linearGradient id="E" gradientUnits="userSpaceOnUse" spreadMethod="reflect" x1="341.5318" x2="341.5318" y1="452.76285" y2="668.31335"><stop offset="0" stop-color="#d3d3d3"/><stop offset=".26213592" stop-color="#e4e4e4"/><stop offset=".63106799" stop-color="#dfdfdf"/><stop offset="1" stop-color="#c0c0c0"/></linearGradient><radialGradient id="F" cx="902.44019" cy="521.14673" fy="725.48541" gradientTransform="matrix(.12657425 .00418448 -.00349815 .10581386 92.347345 -74.637287)" gradientUnits="userSpaceOnUse" r="252.67184"><stop offset="0" stop-color="#a7a7a7"/><stop offset=".28746885" stop-color="#b7b7b7"/><stop offset=".35849056" stop-color="#f2f2f2"/><stop offset=".69134921" stop-color="#858585"/><stop offset=".76705599" stop-color="#8f8f8f"/><stop offset=".84946543" stop-color="#a4a4a4"/><stop offset=".88352799" stop-color="#757575"/><stop offset=".912646" stop-color="#989898"/><stop offset="1" stop-color="#acacac"/></radialGradient><radialGradient id="G" cx="1304.4258" cy="438.30466" gradientTransform="matrix(1.4615497 0 0 .7922186 -1517.0981 316.29645)" gradientUnits="userSpaceOnUse" r="252.67184" xlink:href="#c"/><filter id="H" color-interpolation-filters="sRGB"><feGaussianBlur stdDeviation=".6301309"/></filter><linearGradient id="I" gradientUnits="userSpaceOnUse" x1="1228.4824" x2="1228.4824" y1="349.26135" y2="687.31006"><stop offset="0" stop-color="#474747"/><stop offset="1" stop-color="#474747" stop-opacity="0"/></linearGradient><filter id="J" color-interpolation-filters="sRGB"><feGaussianBlur stdDeviation="4.7167893"/></filter><linearGradient id="K" gradientUnits="userSpaceOnUse" x1="154.53911" x2="154.03125" xlink:href="#a" y1="13.390625" y2="47.890625"/><clipPath id="L"><ellipse cx="341.5318" cy="637.24835" rx="252.67799" ry="126.339" transform="matrix(.1266434 0 0 .139849 119.28636 -49.149663)"/></clipPath><filter id="M" color-interpolation-filters="sRGB"><feGaussianBlur stdDeviation=".33781807"/></filter><radialGradient id="N" cx="921.0246" cy="489.46097" fx="924.29492" fy="456.94849" gradientTransform="matrix(.42030766 0 -.00520448 .19359874 -191.396 -121.09596)" gradientUnits="userSpaceOnUse" r="119.39729" xlink:href="#c"/><filter id="O" color-interpolation-filters="sRGB"><feGaussianBlur stdDeviation=".057694406"/></filter><clipPath id="P"><path d="m236.74922 21.040147c0 8.971924-14.3372 16.254104-32.00119 16.254104-17.57201-.000002-31.84899-7.205862-31.99725-16.113393l.12664 6.464655c0 8.971928 14.21056 16.254105 31.87458 16.254104 17.66399 0 31.87058-7.282176 31.87058-16.254104z"/></clipPath><filter id="Q" color-interpolation-filters="sRGB" height="1.300219" width="1.107235" x="-.053617" y="-.15011"><feGaussianBlur stdDeviation="1.4297598"/></filter><filter id="R" color-interpolation-filters="sRGB"><feGaussianBlur stdDeviation="1.5753272"/></filter><linearGradient id="S" gradientUnits="userSpaceOnUse" x1="10" x2="10" y1="15.556602" y2="12.444199"><stop offset="0" stop-color="#fff"/><stop offset="1" stop-color="#ddd"/></linearGradient><linearGradient id="T" gradientUnits="userSpaceOnUse" x1="11.1006" x2="8.9005" y1="15.100601" y2="12.900497"><stop offset="0" stop-color="#eaeaea"/><stop offset="1" stop-color="#616161"/></linearGradient><linearGradient id="U" gradientUnits="userSpaceOnUse" x1="88.591797" x2="71.262016" y1="96.592697" y2="79.262917"><stop offset="0" stop-color="#fff"/><stop offset="1" stop-color="#555753"/></linearGradient><filter id="V"><feGaussianBlur stdDeviation=".40750996"/></filter><filter id="W"><feGaussianBlur stdDeviation=".90565481"/></filter><linearGradient id="X" gradientUnits="userSpaceOnUse" x1="85.219681" x2="61.336319" y1="93.219681" y2="69.336319"><stop offset="0"/><stop offset="1" stop-color="#393b38"/></linearGradient><filter id="Y"><feGaussianBlur stdDeviation=".4901192"/></filter><linearGradient id="Z" gradientUnits="userSpaceOnUse" x1="96" x2="88.000198" y1="104" y2="96.000198"><stop offset="0" stop-color="#888a85"/><stop offset=".0072" stop-color="#8c8e89"/><stop offset=".0673" stop-color="#abaca9"/><stop offset=".1347" stop-color="#c5c6c4"/><stop offset=".2115" stop-color="#dbdbda"/><stop offset=".3012" stop-color="#ebebeb"/><stop offset=".4122" stop-color="#f7f7f6"/><stop offset=".5679" stop-color="#fdfdfd"/><stop offset="1" stop-color="#fff"/></linearGradient><mask id="aa" maskUnits="userSpaceOnUse"><path d="m28 1032.3622h68v15h-68z" fill="#fff" filter="url(#ab)" transform="matrix(.94117644 0 0 .94117643 3.647061 61.168402)"/></mask><filter id="ab" color-interpolation-filters="sRGB" height="1.82305" width="1.181555" x="-.090778" y="-.411525"><feGaussianBlur stdDeviation="2.5720304"/></filter><linearGradient id="ac" gradientTransform="matrix(.72077518 0 0 .06279784 -1070.0129 -31.846871)" gradientUnits="userSpaceOnUse" x1="38.357395" x2="48.092773" xlink:href="#ad" y1="86.916695" y2="86.916695"/><linearGradient id="ad" gradientUnits="userSpaceOnUse" x1="21" x2="107" y1="70.875" y2="70.875"><stop offset="0" stop-color="#2f2f2f"/><stop offset=".1224" stop-color="#b6b6b6"/><stop offset=".27856848" stop-color="#f3f3f3"/><stop offset=".47811708" stop-color="#cbcbcb"/><stop offset=".6568" stop-color="#fff"/><stop offset=".7202" stop-color="#f1f1f1"/><stop offset=".8387" stop-color="#bbb"/><stop offset="1" stop-color="#2f2f2f"/></linearGradient><linearGradient id="ae" gradientTransform="matrix(.87424043 0 0 .56484235 5.913597 971.67911)" gradientUnits="userSpaceOnUse" x1="46.449074" x2="47.910881" xlink:href="#af" y1="132.17882" y2="114.82433"/><linearGradient id="af"><stop offset="0" stop-color="#1f1f1f"/><stop offset="1" stop-color="#1f1f1f" stop-opacity="0"/></linearGradient><linearGradient id="ag" gradientTransform="matrix(.68427848 0 0 .46013134 -7.513011 985.14644)" gradientUnits="userSpaceOnUse" x1="46.05291" x2="78.560844" xlink:href="#c" y1="114.45502" y2="114.45502"/><linearGradient id="ah" gradientTransform="matrix(.87424043 0 0 .56484235 8.656698 971.22724)" gradientUnits="userSpaceOnUse" x1="49.834194" x2="46.901009" xlink:href="#af" y1="119.69429" y2="119.69429"/><linearGradient id="ai" gradientTransform="matrix(.72077518 0 0 .06279784 -1070.0129 -77.611743)" gradientUnits="userSpaceOnUse" x1="38.357395" x2="48.092773" xlink:href="#ad" y1="86.916695" y2="86.916695"/><linearGradient id="aj" gradientTransform="matrix(.68427848 0 0 .46013134 46.180455 985.14644)" gradientUnits="userSpaceOnUse" x1="46.05291" x2="78.560844" xlink:href="#c" y1="114.45502" y2="114.45502"/><filter id="ak" color-interpolation-filters="sRGB" height="1.518766" width="1.043604" x="-.021802" y="-.259383"><feGaussianBlur stdDeviation=".20207452"/></filter><linearGradient id="al" gradientTransform="matrix(.56484235 0 0 .87424043 -971.67911 -6.032468)" gradientUnits="userSpaceOnUse" x1="-112.72134" x2="-112.72134" xlink:href="#b" y1="-110.7662" y2="-105.82124"/><linearGradient id="am" gradientTransform="matrix(.56484235 0 0 .87424043 -971.22724 .206087)" gradientUnits="userSpaceOnUse" x1="-120.916" x2="-121.06381" xlink:href="#c" y1="-116.70495" y2="-111.31748"/><linearGradient id="an" gradientTransform="matrix(.56484235 0 0 .87424043 -971.22724 -10.284799)" gradientUnits="userSpaceOnUse" x1="-117.58483" x2="-117.58483" y1="-13.913545" y2="-16.792545"><stop offset="0" stop-color="#2b2b2b"/><stop offset="1" stop-color="#2b2b2b" stop-opacity="0"/></linearGradient><linearGradient id="ao" gradientTransform="matrix(1.0053944 0 0 .04129487 22.511841 -1028.3861)" gradientUnits="userSpaceOnUse" x1="38.033909" x2="48.341999" xlink:href="#ad" y1="86.916695" y2="86.916695"/><linearGradient id="ap" gradientTransform="matrix(.4986962 0 0 .46360557 1003.0609 -116.00919)" gradientUnits="userSpaceOnUse" x1="46.05291" x2="78.560844" xlink:href="#c" y1="114.45502" y2="114.45502"/><linearGradient id="aq" gradientTransform="matrix(1.7337162 0 0 .07465735 -1119.7741 -57.671183)" gradientUnits="userSpaceOnUse" x1="38.357395" x2="48.092773" y1="86.916695" y2="86.916695"><stop offset="0" stop-color="#303030"/><stop offset=".18975452" stop-color="#7e7e7e"/><stop offset=".37950903" stop-color="#9e9e9e"/><stop offset=".75901806" stop-color="#dedede"/><stop offset=".93379617" stop-color="#8d8d8d"/><stop offset="1" stop-color="#2f2f2f"/></linearGradient><linearGradient id="ar" gradientTransform="matrix(.99012144 0 0 .92668586 -926.46794 -7.906466)" gradientUnits="userSpaceOnUse" x1="-116.85363" x2="-116.7804" xlink:href="#c" y1="-83.868286" y2="-80.228065"/><radialGradient id="as" cx="64.709709" cy="105.81721" gradientTransform="matrix(1.362104 -.00880445 .0023358 .4125291 -24.600213 994.70568)" gradientUnits="userSpaceOnUse" r="12.247135"><stop offset="0" stop-color="#87b7ff" stop-opacity="0"/><stop offset=".40384614" stop-color="#87b7ff" stop-opacity="0"/><stop offset=".40384614" stop-color="#87b7ff" stop-opacity=".498039"/><stop offset="1" stop-color="#87b7ff" stop-opacity="0"/></radialGradient><linearGradient id="at" gradientTransform="matrix(.92795818 0 0 .83013803 5.809809 -946.83213)" gradientUnits="userSpaceOnUse" x1="66.740074" x2="70.104553" xlink:href="#b" y1="-85.311409" y2="-101.59357"/><linearGradient id="au" gradientTransform="matrix(1.1657281 0 0 .7916667 -7.512541 23.013579)" gradientUnits="userSpaceOnUse" x1="46.05291" x2="78.560844" xlink:href="#c" y1="114.45502" y2="114.45502"/><filter id="av" color-interpolation-filters="sRGB" height="1.229753" width="1.019504" x="-.009752" y="-.114876"><feGaussianBlur stdDeviation=".15397884"/></filter><linearGradient id="aw" gradientTransform="matrix(1.1657281 0 0 .2916667 -7.512541 90.061194)" gradientUnits="userSpaceOnUse" x1="46.05291" x2="78.560844" xlink:href="#c" y1="114.45502" y2="114.45502"/><filter id="ax" color-interpolation-filters="sRGB" height="1.592796" width="1.01854" x="-.00927" y="-.296398"><feGaussianBlur stdDeviation=".14636931"/></filter><linearGradient id="ay" gradientTransform="matrix(1.7914728 0 0 1.3807022 -35.057551 -389.30946)" gradientUnits="userSpaceOnUse" x1="51" x2="53" xlink:href="#b" y1="1038.8622" y2="1038.8622"/><linearGradient id="az" gradientTransform="matrix(2.0204455 0 0 1.3807022 -50.776052 886.95946)" gradientUnits="userSpaceOnUse" x1="50.796974" x2="53.194843" xlink:href="#ad" y1="114.5" y2="114.5"/><linearGradient id="aA" gradientTransform="matrix(1.9164728 0 0 1.3807022 -18.103997 -389.30946)" gradientUnits="userSpaceOnUse" x1="51" x2="53" xlink:href="#b" y1="1038.8622" y2="1038.8622"/><linearGradient id="aB" gradientTransform="matrix(1.9579467 0 0 1.3807022 -22.177114 886.95946)" gradientUnits="userSpaceOnUse" x1="49.79678" x2="52.3125" xlink:href="#ad" y1="114.5" y2="114.5"/><radialGradient id="aC" cx="64.025307" cy="96.200432" gradientTransform="matrix(1 0 0 .1965555 0 77.291705)" gradientUnits="userSpaceOnUse" r="18.241953" xlink:href="#b"/><filter id="aD" height="1.830769" width="1.144482" x="-.072241" y="-.415385"><feGaussianBlur stdDeviation="1.0680774"/></filter><linearGradient id="aE" gradientTransform="matrix(.2175222 0 0 .1846484 -80.154498 -76.49614)" gradientUnits="userSpaceOnUse" x1="555.14642" x2="742.16382" y1="477.52972" y2="477.52972"><stop offset="0" stop-color="#818584"/><stop offset=".5" stop-color="#fff"/><stop offset="1" stop-color="#818584"/></linearGradient><radialGradient id="aF" cx="648.65527" cy="390.69016" fx="648.6554" fy="406.23959" gradientTransform="matrix(.1927047 0 0 2.0034138 -64.056547 -805.65603)" gradientUnits="userSpaceOnUse" r="93.508705"><stop offset="0" stop-color="#fff"/><stop offset=".5990991" stop-color="#fff" stop-opacity=".822064"/><stop offset="1" stop-color="#fff" stop-opacity="0"/></radialGradient><radialGradient id="aG" cx="648.65515" cy="639.22247" gradientTransform="matrix(.5432305 0 0 .6010885 -291.42689 -285.98596)" gradientUnits="userSpaceOnUse" r="93.508705" xlink:href="#aH"/><linearGradient id="aH"><stop offset="0"/><stop offset="1" stop-color="#afb0b0" stop-opacity="0"/></linearGradient><linearGradient id="aI" gradientUnits="userSpaceOnUse" x1="73.194916" x2="38.706718" y1="19.591291" y2="56.812969"><stop offset="0" stop-color="#ececec"/><stop offset="1" stop-color="#404040"/></linearGradient><radialGradient id="aJ" cx="55.989819" cy="76.438904" gradientTransform="matrix(.8570664 0 0 .04546162 9.302996 20.15302)" gradientUnits="userSpaceOnUse" r="7.989821" xlink:href="#c"/><linearGradient id="aK" gradientTransform="matrix(.8570664 0 0 .8275862 -.981801 -39.631724)" gradientUnits="userSpaceOnUse" x1="73.38102" x2="73.38102" xlink:href="#aH" y1="150.87357" y2="110.8287"/><linearGradient id="aL" gradientUnits="userSpaceOnUse" x1="90.39682" x2="68.047623" xlink:href="#c" y1="69.079369" y2="71.111115"/><filter id="aM" height="1.124643" width="1.535229" x="-.267615" y="-.062321"><feGaussianBlur stdDeviation="2.5675913"/></filter><linearGradient id="aN" gradientUnits="userSpaceOnUse" x1="89.39682" x2="67.047623" xlink:href="#c" y1="69.079369" y2="71.111115"/><linearGradient id="aO" gradientUnits="userSpaceOnUse" x1="172.84727" x2="174.81172" xlink:href="#c" y1=".724351" y2="-41.367252"/><mask id="aP" maskUnits="userSpaceOnUse"><path d="m137.37423-51.650649c-.4646 0-.84375.467363-.84375 1.03125v50.43749993c4.94936.590117 10.01102.90625001 15.15625.90625001 12.91618 0 25.27421-1.91555594 36.71875-5.43749994v-45.90625c0-.563887-.37914-1.03125-.84375-1.03125z" fill="url(#aQ)"/></mask><radialGradient id="aQ" cx="162.46797" cy="-.232756" gradientTransform="matrix(.7001186 0 0 2.7816652 48.721132 1.3718)" gradientUnits="userSpaceOnUse" r="25.9375"><stop offset="0" stop-color="#fff" stop-opacity="0"/><stop offset="1" stop-color="#fff"/></radialGradient><filter id="aR"><feGaussianBlur stdDeviation="1.8190732"/></filter><filter id="aS" height="1.17854" width="1.285794" x="-.142897" y="-.08927"><feGaussianBlur stdDeviation="6.6685268"/></filter><filter id="aT"><feGaussianBlur stdDeviation="2.6674107"/></filter><linearGradient id="aU" gradientTransform="matrix(.8570664 0 0 .8275862 9.302996 -39.631724)" gradientUnits="userSpaceOnUse" x1="55.058228" x2="55.058228" y1="-.856726" y2="7.718658"><stop offset="0" stop-color="#929595"/><stop offset="1" stop-color="#929595" stop-opacity="0"/></linearGradient><linearGradient id="aV" gradientTransform="matrix(.8570664 0 0 .8275862 9.075743 -39.522001)" gradientUnits="userSpaceOnUse" x1="61.06786" x2="56" xlink:href="#b" y1="51.904549" y2="51.904549"/><filter id="aW"><feGaussianBlur stdDeviation="4.6264466"/></filter><radialGradient id="aX" cx="52.181824" cy="44.9091" gradientUnits="userSpaceOnUse" r="1.5498" spreadMethod="reflect"><stop offset="0" stop-color="#fff"/><stop offset="1"/></radialGradient><linearGradient id="aY" gradientUnits="userSpaceOnUse" spreadMethod="reflect" x1="18.323191" x2="109.74034" xlink:href="#c" y1="102.51018" y2="102.51018"/><linearGradient id="aZ" gradientUnits="userSpaceOnUse" spreadMethod="reflect" x1="21.546816" x2="106.948" xlink:href="#c" y1="99.515198" y2="99.515198"/><linearGradient id="a0" gradientUnits="userSpaceOnUse" spreadMethod="reflect" x1="24.78966" x2="103.29436" xlink:href="#c" y1="95.837486" y2="95.837486"/><linearGradient id="a1" gradientUnits="userSpaceOnUse" spreadMethod="reflect" x1="28.398565" x2="99.591179" xlink:href="#c" y1="93.015648" y2="93.015648"/><linearGradient id="a2" gradientUnits="userSpaceOnUse" spreadMethod="reflect" x1="32.581299" x2="95.735374" xlink:href="#c" y1="89.83168" y2="89.83168"/><linearGradient id="a3" gradientUnits="userSpaceOnUse" spreadMethod="reflect" x1="35.859703" x2="92.4534" xlink:href="#c" y1="86.228287" y2="86.228287"/><linearGradient id="a4" gradientUnits="userSpaceOnUse" spreadMethod="reflect" x1="39.510841" x2="89.398872" xlink:href="#c" y1="82.811371" y2="82.811371"/><linearGradient id="a5" gradientUnits="userSpaceOnUse" spreadMethod="reflect" x1="43.011932" x2="85.897781" xlink:href="#c" y1="79.42601" y2="79.42601"/><linearGradient id="a6" gradientUnits="userSpaceOnUse" spreadMethod="reflect" x1="46.613056" x2="82.39669" xlink:href="#c" y1="76.170418" y2="76.170418"/><linearGradient id="a7" gradientUnits="userSpaceOnUse" spreadMethod="reflect" x1="49.814056" x2="78.395447" xlink:href="#c" y1="73.089386" y2="73.089386"/><linearGradient id="a8" gradientUnits="userSpaceOnUse" spreadMethod="reflect" x1="57.0163" x2="71.893417" xlink:href="#c" y1="66.396431" y2="66.396431"/><linearGradient id="a9" gradientUnits="userSpaceOnUse" spreadMethod="reflect" x1="53.315147" x2="75.094414" xlink:href="#c" y1="69.983421" y2="69.983421"/><linearGradient id="ba" gradientTransform="matrix(-1 0 0 -1 129.1953 120.3685)" gradientUnits="userSpaceOnUse" spreadMethod="reflect" x1="18.323191" x2="109.74034" xlink:href="#c" y1="102.51018" y2="102.51018"/><linearGradient id="bb" gradientTransform="matrix(-1 0 0 -1 129.1953 120.3685)" gradientUnits="userSpaceOnUse" spreadMethod="reflect" x1="21.546816" x2="106.948" xlink:href="#c" y1="99.515198" y2="99.515198"/><linearGradient id="bc" gradientTransform="matrix(-1 0 0 -1 129.1953 120.3685)" gradientUnits="userSpaceOnUse" spreadMethod="reflect" x1="24.78966" x2="103.29436" xlink:href="#c" y1="95.837486" y2="95.837486"/><linearGradient id="bd" gradientTransform="matrix(-1 0 0 -1 129.1953 120.3685)" gradientUnits="userSpaceOnUse" spreadMethod="reflect" x1="28.398565" x2="99.591179" xlink:href="#c" y1="93.015648" y2="93.015648"/><linearGradient id="be" gradientTransform="matrix(-1 0 0 -1 129.1953 120.3685)" gradientUnits="userSpaceOnUse" spreadMethod="reflect" x1="32.581299" x2="95.735374" xlink:href="#c" y1="89.83168" y2="89.83168"/><linearGradient id="bf" gradientTransform="matrix(-1 0 0 -1 129.1953 120.3685)" gradientUnits="userSpaceOnUse" spreadMethod="reflect" x1="35.859703" x2="92.4534" xlink:href="#c" y1="86.228287" y2="86.228287"/><linearGradient id="bg" gradientTransform="matrix(-1 0 0 -1 129.1953 120.3685)" gradientUnits="userSpaceOnUse" spreadMethod="reflect" x1="39.510841" x2="89.398872" xlink:href="#c" y1="82.811371" y2="82.811371"/><linearGradient id="bh" gradientTransform="matrix(-1 0 0 -1 129.1953 120.3685)" gradientUnits="userSpaceOnUse" spreadMethod="reflect" x1="43.011932" x2="85.897781" xlink:href="#c" y1="79.42601" y2="79.42601"/><linearGradient id="bi" gradientTransform="matrix(-1 0 0 -1 129.1953 120.3685)" gradientUnits="userSpaceOnUse" spreadMethod="reflect" x1="46.613056" x2="82.39669" xlink:href="#c" y1="76.170418" y2="76.170418"/><linearGradient id="bj" gradientTransform="matrix(-1 0 0 -1 129.1953 120.3685)" gradientUnits="userSpaceOnUse" spreadMethod="reflect" x1="49.814056" x2="78.395447" xlink:href="#c" y1="73.089386" y2="73.089386"/><linearGradient id="bk" gradientTransform="matrix(-1 0 0 -1 129.1953 120.3685)" gradientUnits="userSpaceOnUse" spreadMethod="reflect" x1="57.0163" x2="71.893417" xlink:href="#c" y1="66.396431" y2="66.396431"/><linearGradient id="bl" gradientTransform="matrix(-1 0 0 -1 129.1953 120.3685)" gradientUnits="userSpaceOnUse" spreadMethod="reflect" x1="53.315147" x2="75.094414" xlink:href="#c" y1="69.983421" y2="69.983421"/><radialGradient id="bm" cx="60.097603" cy="88.499367" fx="69.801033" fy="111.93269" gradientTransform="matrix(1.253787 0 0 1.12287 -15.95288 -7.801198)" gradientUnits="userSpaceOnUse" r="47.937988"><stop offset="0" stop-color="#b3b3b3"/><stop offset=".52879584" stop-color="#fff"/><stop offset="1" stop-color="#c5c5c5"/></radialGradient><linearGradient id="bn" gradientTransform="matrix(.983096 -.218338 .197651 .957902 -11.96469 20.07203)" gradientUnits="userSpaceOnUse" x1="17.723173" x2="76.596703" xlink:href="#c" y1="148.57518" y2="32.457832"/><radialGradient id="bo" cx="43.620941" cy="42.699898" fx="43.034355" fy="8.044629" gradientTransform="matrix(.787852 .838765 -1.034944 .955842 62.28262 -38.62105)" gradientUnits="userSpaceOnUse" r="50.234375" xlink:href="#c"/><filter id="bp"><feGaussianBlur stdDeviation="1.1655606"/></filter><radialGradient id="bq" cx="177.4838" cy="65.774605" fx="176.77669" fy="55.875111" gradientUnits="userSpaceOnUse" r="17.67767"><stop offset="0" stop-color="#ddd"/><stop offset="1" stop-color="#a7a7a7"/></radialGradient><linearGradient id="br" gradientTransform="matrix(.8733915 0 0 .3546797 8.760195 -37.148965)" gradientUnits="userSpaceOnUse" x1="59.5" x2="59.5" xlink:href="#c" y1="3.250001" y2="16.112226"/><linearGradient id="bs" gradientTransform="matrix(.8570664 0 0 .8275862 -113.08428 -39.503713)" gradientUnits="userSpaceOnUse" x1="61.06786" x2="56" xlink:href="#b" y1="51.904549" y2="51.904549"/><linearGradient id="bt" gradientUnits="userSpaceOnUse" x1="59.75" x2="59.75" xlink:href="#b" y1="112.25" y2="15.75"/><filter id="bu" height="1.024622" width="1.9504" x="-.4752" y="-.012311"><feGaussianBlur stdDeviation=".495"/></filter><linearGradient id="bv" gradientTransform="matrix(1.1425125 0 0 .8275862 -21.534427 -39.631724)" gradientUnits="userSpaceOnUse" x1="72.201843" x2="73.467186" xlink:href="#c" y1="60.866104" y2="60.866104"/><radialGradient id="bw" cx="645.35938" cy="322.9375" gradientTransform="matrix(.6765632 0 0 1.6798592 -375.04165 -560.59938)" gradientUnits="userSpaceOnUse" r="2.953125" xlink:href="#bx"/><linearGradient id="bx"><stop offset="0" stop-color="#00a8ba"/><stop offset="1" stop-color="#00a8ba" stop-opacity="0"/></linearGradient><radialGradient id="by" cx="645.35938" cy="322.9375" gradientTransform="matrix(1.9641203 0 0 16.515012 -622.20407 -5010.3794)" gradientUnits="userSpaceOnUse" r="2.953125" xlink:href="#bx"/><filter id="bz" height="1.076069" width="1.932147" x="-.466074" y="-.038035"><feGaussianBlur stdDeviation="1.146978"/></filter><radialGradient id="bA" cx="645.35938" cy="322.9375" gradientTransform="matrix(.6765632 0 0 1.2741209 -375.04165 -361.43088)" gradientUnits="userSpaceOnUse" r="2.953125" xlink:href="#bB"/><linearGradient id="bB"><stop offset="0" stop-color="#ba0000"/><stop offset="1" stop-color="#ba0000" stop-opacity="0"/></linearGradient><radialGradient id="bC" cx="645.35938" cy="322.9375" fy="322.82944" gradientTransform="matrix(1.2224264 -.00001671 .00005916 4.33076 -727.92261 -1290.212)" gradientUnits="userSpaceOnUse" r="2.953125" xlink:href="#bB"/><filter id="bD" height="1.148242" width="2.193885" x="-.596942" y="-.074121"><feGaussianBlur stdDeviation=".49701338"/></filter><radialGradient id="bE" cx="60" cy="-16.181448" gradientTransform="matrix(1.0238786 0 0 -.1295309 -.699637 55.856862)" gradientUnits="userSpaceOnUse" r="26.75" xlink:href="#c"/><radialGradient id="bF" cx="9.193527" cy="44.909092" gradientUnits="userSpaceOnUse" r="42.988293" spreadMethod="pad"><stop offset="0"/><stop offset=".73626375" stop-opacity=".498039"/><stop offset="1" stop-opacity="0"/></radialGradient><radialGradient id="bG" cx="56.1105" cy="77.29686" gradientTransform="matrix(.8570664 .00000057 -.00000011 .1465416 -4.410059 12.354209)" gradientUnits="userSpaceOnUse" r="7.782139" xlink:href="#c"/><g fill="none" stroke-width=".264583" transform="translate(0 -229.26665)"><path d="m12.832292 250.56561c.529431 0 1.058597 0 1.323048-.48496s.264451-1.45558.57318-1.94052.926258-.48494 1.543355-.48494" stroke="#bf5e00" transform="translate(0 4.7625)"/><path d="m12.832292 250.56561c.529431 0 1.058597 0 1.323048-.48496s.264451-1.45558.57318-1.94052.926258-.48494 1.543355-.48494" stroke="#bf5e00" transform="matrix(1 0 0 -1 10.054167 504.04167)"/><path d="m12.832292 250.56561c.529431 0 1.058597 0 1.323048-.48496s.264451-1.45558.57318-1.94052.926258-.48494 1.543355-.48494" stroke="#bf5e00" transform="matrix(1 0 0 -1 20.108338 502.98333)"/><g stroke="#0000bf" transform="translate(0 4.7625)"><path d="m10.186458 252.41769c0 1.58724 0 3.17474.74991 3.96862s2.248966.79388 2.998487 1.19055c.74952.39668.74952 1.19057.74952 1.98458"/><path d="m21.828125 252.41769c0 1.05807 0 2.1164-.352734 2.6457s-1.058113.5293-1.763801.5293-1.410978 0-1.763889.66158c-.35291.66157-.352909 2.64545-.352909 3.96863"/><path d="m30.030208 252.41769c0 1.32265 0 2.64557.531302 3.30716s1.585629.66159 2.114663 1.19049c.529035.52891.529035 1.5875.529035 2.6461"/><path d="m18.653125 252.41769c0 1.67543 0 3.35113 2.955113 4.18911 2.955112.83797 8.863208.83797 11.86167 1.19062s3.08666 1.45512 3.174883 2.1609"/></g><g stroke="#008c00"><path d="m14.155208 270.93855v6.61459"/><path d="m33.734375 270.93855v6.61459"/><path d="m14.155208 270.93855 9.525 6.61459"/><path d="m33.602083 271.07085-8.069792 6.48229"/></g></g><g fill="none" stroke="#555753" stroke-width=".264583" transform="translate(0 -229.26665)"><path d="m17.859375 244.21564-8.4666668 6.35"/><path d="m18.123958 244.21564 11.377083 6.35"/><path d="m29.501042 243.42189-10.054167 7.14375"/><path d="m29.765625 243.42189 9.789583 7.14375"/></g><path d="m83.772 239.27611h119.71329c1.18742 0 2.14336 1.12849 2.14336 2.53025v100.56093c0 1.40175-.95594 2.53025-2.14336 2.53025h-119.71329c-1.187418 0-2.143353-1.1285-2.143353-2.53025v-100.56093c0-1.40176.955935-2.53025 2.143353-2.53025z" filter="url(#h)" opacity=".5" transform="matrix(.06614583 0 0 .06513041 5.316231 19.605427)"/><g stroke-width=".25" transform="matrix(.26458333 0 0 .26458333 10.583334 34.263527)"><path d="m1.5185522 4.000005h28.9628878c.28728 0 .518552.2730225.518552.6121575v23.7756805c0 .339134-.231272.612157-.518552.612157h-28.9628878c-.2872782 0-.51855295-.273023-.51855295-.612157v-23.7756805c0-.339135.23127475-.6121575.51855295-.6121575z" fill="url(#e)"/><path d="m1.515625 4.0000075c-.2872785 0-.515625.27024-.515625.6093725v23.781245c0 .339137.2283465.609375.515625.609375h28.96875c.287282 0 .515625-.270238.515625-.609375v-23.781245c0-.3391325-.228343-.6093725-.515625-.6093725zm.3515625.9140625h28.2656245c.272915 0 .492188.256015.492188.57422v22.562492c0 .318201-.219273.574218-.492188.574218h-28.2656245c-.2729142 0-.4921875-.256017-.4921875-.574218v-22.562492c0-.318205.2192733-.57422.4921875-.57422z" fill="url(#g)"/><path d="m1 13h30v16h-30z" fill="#fff"/><g fill="#bcbcbc"><rect height=".999348" rx=".285711" ry=".499674" width="11.999865" x="2.998905" y="24.999725"/><rect height="1.000729" rx=".285711" ry=".500365" width="11.999865" x="2.998905" y="22.000397"/><rect height="1.003491" rx=".285711" ry=".501745" width="11.999865" x="2.998905" y="18.997162"/><rect height="1.003491" rx=".285711" ry=".501745" width="11.999865" x="2.998905" y="15.997163"/><rect height=".999348" rx=".285711" ry=".499674" width="11.999865" x="16.998905" y="24.999725"/><rect height="1.000729" rx=".285711" ry=".500365" width="11.999865" x="16.998905" y="22.000397"/><rect height="1.003491" rx=".285711" ry=".501745" width="11.999865" x="16.998905" y="18.997162"/><rect height="1.003491" rx=".285711" ry=".501745" width="11.999865" x="16.998905" y="15.997163"/></g></g><path d="m83.772 239.27611h119.71329c1.18742 0 2.14336 1.12849 2.14336 2.53025v100.56093c0 1.40175-.95594 2.53025-2.14336 2.53025h-119.71329c-1.187418 0-2.143353-1.1285-2.143353-2.53025v-100.56093c0-1.40176.955935-2.53025 2.143353-2.53025z" filter="url(#h)" opacity=".5" transform="matrix(.06614583 0 0 .06513041 24.895402 19.605427)"/><g stroke-width=".25" transform="matrix(.26458333 0 0 .26458333 30.162505 34.263527)"><path d="m1.5185522 4.000005h28.9628878c.28728 0 .518552.2730225.518552.6121575v23.7756805c0 .339134-.231272.612157-.518552.612157h-28.9628878c-.2872782 0-.51855295-.273023-.51855295-.612157v-23.7756805c0-.339135.23127475-.6121575.51855295-.6121575z" fill="url(#i)"/><path d="m1.515625 4.0000075c-.2872785 0-.515625.27024-.515625.6093725v23.781245c0 .339137.2283465.609375.515625.609375h28.96875c.287282 0 .515625-.270238.515625-.609375v-23.781245c0-.3391325-.228343-.6093725-.515625-.6093725zm.3515625.9140625h28.2656245c.272915 0 .492188.256015.492188.57422v22.562492c0 .318201-.219273.574218-.492188.574218h-28.2656245c-.2729142 0-.4921875-.256017-.4921875-.574218v-22.562492c0-.318205.2192733-.57422.4921875-.57422z" fill="url(#j)"/><path d="m1 13h30v16h-30z" fill="#fff"/><g fill="#bcbcbc"><rect height=".999348" rx=".285711" ry=".499674" width="11.999865" x="2.998905" y="24.999725"/><rect height="1.000729" rx=".285711" ry=".500365" width="11.999865" x="2.998905" y="22.000397"/><rect height="1.003491" rx=".285711" ry=".501745" width="11.999865" x="2.998905" y="18.997162"/><rect height="1.003491" rx=".285711" ry=".501745" width="11.999865" x="2.998905" y="15.997163"/><rect height=".999348" rx=".285711" ry=".499674" width="11.999865" x="16.998905" y="24.999725"/><rect height="1.000729" rx=".285711" ry=".500365" width="11.999865" x="16.998905" y="22.000397"/><rect height="1.003491" rx=".285711" ry=".501745" width="11.999865" x="16.998905" y="18.997162"/><rect height="1.003491" rx=".285711" ry=".501745" width="11.999865" x="16.998905" y="15.997163"/></g></g><g transform="matrix(.25 0 0 .25 10.583334 -18.42292)"><path d="m83.772 239.27611h119.71329c1.18742 0 2.14336 1.12849 2.14336 2.53025v100.56093c0 1.40175-.95594 2.53025-2.14336 2.53025h-119.71329c-1.187418 0-2.143353-1.1285-2.143353-2.53025v-100.56093c0-1.40176.955935-2.53025 2.143353-2.53025z" filter="url(#h)" opacity=".5" transform="matrix(.26458333 0 0 .26052164 -21.068414 204.50088)"/><path d="m1.6071347 267.36666h30.6523883c.304038 0 .548801.28894.548801.64786v25.1626c0 .35892-.244763.64786-.548801.64786h-30.6523883c-.3040362 0-.5488019-.28894-.5488019-.64786v-25.1626c0-.35892.2447657-.64786.5488019-.64786z" fill="url(#k)"/><path d="m1.6040367 267.36666c-.3040364 0-.5457031.286-.5457031.64492v25.16848c0 .35892.2416667.64492.5457031.64492h30.6585923c.304041 0 .545703-.286.545703-.64492v-25.16848c0-.35892-.241662-.64492-.545703-.64492zm.3720703.96738h29.914452c.288835 0 .520898.27095.520898.60772v23.87864c0 .33676-.232063.60771-.520898.60771h-29.914452c-.2888343 0-.5208984-.27095-.5208984-.60771v-23.87864c0-.33677.2320641-.60772.5208984-.60772z" fill="url(#l)"/><rect fill="url(#o)" height="6.349995" rx="2.116667" width="25.4" x="4.233333" y="272.65833"/><rect fill="url(#p)" height="6.35" rx="2.116667" width="4.233333" x="4.233333" y="272.65833"/><rect fill="url(#q)" height="6.35" rx="2.116667" transform="scale(-1 1)" width="4.233333" x="-29.633337" y="272.65833"/><rect fill-opacity=".92549" filter="url(#r)" height="6.350007" rx="1.278853" ry="1.223218" transform="matrix(1 0 0 -1 0 .529167)" width="21.166666" x="6.35" y="-290.64999"/><rect fill="url(#n)" height="6.350007" rx="1.278853" ry="1.223218" transform="scale(1 -1)" width="21.166666" x="6.35" y="-290.64999"/><g stroke-width=".134716"><path d="m13.50549 288.95687q-.517309-.57658-.517309-1.48187 0-.90529.517309-1.48188.522697-.57658 1.368713-.57658.851404 0 1.374102.57658.522697.5712.522697 1.50882 0 .87296-.517309 1.45493-.51192.57658-1.374102.57658-.856792 0-1.374101-.57658zm1.374101-2.85059q-.490365 0-.78674.37721-.296375.37181-.296375.99151 0 .61969.296375.99689.296375.37182.78674.37182.484978 0 .781352-.37182.301764-.37181.301764-.97534 0-.63586-.296375-1.01306-.290986-.37721-.786741-.37721z"/><path d="m18.221892 288.09469v1.31483h-.808295v-3.92832h.808295v1.72436l1.53576-1.72436h.953789l-1.568093 1.69203 1.73514 2.23629h-.964565l-1.287884-1.73514z"/></g></g><g transform="matrix(.25 0 0 .25 20.372917 -18.42292)"><path d="m83.772 239.27611h119.71329c1.18742 0 2.14336 1.12849 2.14336 2.53025v100.56093c0 1.40175-.95594 2.53025-2.14336 2.53025h-119.71329c-1.187418 0-2.143353-1.1285-2.143353-2.53025v-100.56093c0-1.40176.955935-2.53025 2.143353-2.53025z" filter="url(#h)" opacity=".5" transform="matrix(.26458333 0 0 .26052164 -21.068414 204.50088)"/><path d="m1.6071347 267.36666h30.6523883c.304038 0 .548801.28894.548801.64786v25.1626c0 .35892-.244763.64786-.548801.64786h-30.6523883c-.3040362 0-.5488019-.28894-.5488019-.64786v-25.1626c0-.35892.2447657-.64786.5488019-.64786z" fill="url(#s)"/><path d="m1.6040367 267.36666c-.3040364 0-.5457031.286-.5457031.64492v25.16848c0 .35892.2416667.64492.5457031.64492h30.6585923c.304041 0 .545703-.286.545703-.64492v-25.16848c0-.35892-.241662-.64492-.545703-.64492zm.3720703.96738h29.914452c.288835 0 .520898.27095.520898.60772v23.87864c0 .33676-.232063.60771-.520898.60771h-29.914452c-.2888343 0-.5208984-.27095-.5208984-.60771v-23.87864c0-.33677.2320641-.60772.5208984-.60772z" fill="url(#t)"/><rect fill="url(#u)" height="6.349995" rx="2.116667" width="25.4" x="4.233333" y="272.65833"/><rect fill="url(#p)" height="6.35" rx="2.116667" width="4.233333" x="4.233333" y="272.65833"/><rect fill="url(#q)" height="6.35" rx="2.116667" transform="scale(-1 1)" width="4.233333" x="-29.633337" y="272.65833"/><rect fill-opacity=".92549" filter="url(#r)" height="6.350007" rx="1.278853" ry="1.223218" transform="matrix(1 0 0 -1 0 .529167)" width="21.166666" x="6.35" y="-290.64999"/><rect fill="url(#v)" height="6.350007" rx="1.278853" ry="1.223218" transform="scale(1 -1)" width="21.166666" x="6.35" y="-290.64999"/><g stroke-width=".134716"><path d="m13.50549 288.95687q-.517309-.57658-.517309-1.48187 0-.90529.517309-1.48188.522697-.57658 1.368713-.57658.851404 0 1.374102.57658.522697.5712.522697 1.50882 0 .87296-.517309 1.45493-.51192.57658-1.374102.57658-.856792 0-1.374101-.57658zm1.374101-2.85059q-.490365 0-.78674.37721-.296375.37181-.296375.99151 0 .61969.296375.99689.296375.37182.78674.37182.484978 0 .781352-.37182.301764-.37181.301764-.97534 0-.63586-.296375-1.01306-.290986-.37721-.786741-.37721z"/><path d="m18.221892 288.09469v1.31483h-.808295v-3.92832h.808295v1.72436l1.53576-1.72436h.953789l-1.568093 1.69203 1.73514 2.23629h-.964565l-1.287884-1.73514z"/></g></g><g transform="matrix(.25 0 0 .25 30.1625 -18.42292)"><path d="m83.772 239.27611h119.71329c1.18742 0 2.14336 1.12849 2.14336 2.53025v100.56093c0 1.40175-.95594 2.53025-2.14336 2.53025h-119.71329c-1.187418 0-2.143353-1.1285-2.143353-2.53025v-100.56093c0-1.40176.955935-2.53025 2.143353-2.53025z" filter="url(#h)" opacity=".5" transform="matrix(.26458333 0 0 .26052164 -21.068414 204.50088)"/><path d="m1.6071347 267.36666h30.6523883c.304038 0 .548801.28894.548801.64786v25.1626c0 .35892-.244763.64786-.548801.64786h-30.6523883c-.3040362 0-.5488019-.28894-.5488019-.64786v-25.1626c0-.35892.2447657-.64786.5488019-.64786z" fill="url(#s)"/><path d="m1.6040367 267.36666c-.3040364 0-.5457031.286-.5457031.64492v25.16848c0 .35892.2416667.64492.5457031.64492h30.6585923c.304041 0 .545703-.286.545703-.64492v-25.16848c0-.35892-.241662-.64492-.545703-.64492zm.3720703.96738h29.914452c.288835 0 .520898.27095.520898.60772v23.87864c0 .33676-.232063.60771-.520898.60771h-29.914452c-.2888343 0-.5208984-.27095-.5208984-.60771v-23.87864c0-.33677.2320641-.60772.5208984-.60772z" fill="url(#t)"/><rect fill="url(#u)" height="6.349995" rx="2.116667" width="25.4" x="4.233333" y="272.65833"/><rect fill="url(#p)" height="6.35" rx="2.116667" width="4.233333" x="4.233333" y="272.65833"/><rect fill="url(#q)" height="6.35" rx="2.116667" transform="scale(-1 1)" width="4.233333" x="-29.633337" y="272.65833"/><rect fill-opacity=".92549" filter="url(#r)" height="6.350007" rx="1.278853" ry="1.223218" transform="matrix(1 0 0 -1 0 .529167)" width="21.166666" x="6.35" y="-290.64999"/><rect fill="url(#v)" height="6.350007" rx="1.278853" ry="1.223218" transform="scale(1 -1)" width="21.166666" x="6.35" y="-290.64999"/><g stroke-width=".134716"><path d="m13.50549 288.95687q-.517309-.57658-.517309-1.48187 0-.90529.517309-1.48188.522697-.57658 1.368713-.57658.851404 0 1.374102.57658.522697.5712.522697 1.50882 0 .87296-.517309 1.45493-.51192.57658-1.374102.57658-.856792 0-1.374101-.57658zm1.374101-2.85059q-.490365 0-.78674.37721-.296375.37181-.296375.99151 0 .61969.296375.99689.296375.37182.78674.37182.484978 0 .781352-.37182.301764-.37181.301764-.97534 0-.63586-.296375-1.01306-.290986-.37721-.786741-.37721z"/><path d="m18.221892 288.09469v1.31483h-.808295v-3.92832h.808295v1.72436l1.53576-1.72436h.953789l-1.568093 1.69203 1.73514 2.23629h-.964565l-1.287884-1.73514z"/></g></g><g transform="matrix(.25 0 0 .25 5.291667 -45.41041)"><path d="m83.772 239.27611h119.71329c1.18742 0 2.14336 1.12849 2.14336 2.53025v100.56093c0 1.40175-.95594 2.53025-2.14336 2.53025h-119.71329c-1.187418 0-2.143353-1.1285-2.143353-2.53025v-100.56093c0-1.40176.955935-2.53025 2.143353-2.53025z" filter="url(#h)" opacity=".5" transform="matrix(.26458333 0 0 .26052164 -21.068414 204.50088)"/><path d="m1.6071347 267.36666h30.6523883c.304038 0 .548801.28894.548801.64786v25.1626c0 .35892-.244763.64786-.548801.64786h-30.6523883c-.3040362 0-.5488019-.28894-.5488019-.64786v-25.1626c0-.35892.2447657-.64786.5488019-.64786z" fill="url(#s)"/><path d="m1.6040367 267.36666c-.3040364 0-.5457031.286-.5457031.64492v25.16848c0 .35892.2416667.64492.5457031.64492h30.6585923c.304041 0 .545703-.286.545703-.64492v-25.16848c0-.35892-.241662-.64492-.545703-.64492zm.3720703.96738h29.914452c.288835 0 .520898.27095.520898.60772v23.87864c0 .33676-.232063.60771-.520898.60771h-29.914452c-.2888343 0-.5208984-.27095-.5208984-.60771v-23.87864c0-.33677.2320641-.60772.5208984-.60772z" fill="url(#t)"/><path d="m1.0583333 275.83331h31.7499997v16.93334h-31.7499997z" fill="#fff"/><g fill="#cbcbcd"><path d="m1.455208 275.76715h.661458v16.99948h-.661458z"/><path d="m31.750006 275.76715h.661458v16.99948h-.661458z"/><path d="m9.657291 275.89944h.661458v16.86719h-.661458z"/><path d="m17.131769 275.89944h.661458v16.86719h-.661458z"/><path d="m24.606249 275.70102h.661458v17.06563h-.661458z"/><path d="m1.389062 292.10516h30.890106v.66146h-30.890106z"/><path d="m1.389062 287.6734h30.890106v.66146h-30.890106z"/><path d="m1.389062 283.37393h30.890106v.66146h-30.890106z"/><path d="m1.389062 279.20673h30.890106v.66146h-30.890106z"/></g></g><g transform="matrix(.25 0 0 .25 15.345833 -45.41041)"><path d="m83.772 239.27611h119.71329c1.18742 0 2.14336 1.12849 2.14336 2.53025v100.56093c0 1.40175-.95594 2.53025-2.14336 2.53025h-119.71329c-1.187418 0-2.143353-1.1285-2.143353-2.53025v-100.56093c0-1.40176.955935-2.53025 2.143353-2.53025z" filter="url(#h)" opacity=".5" transform="matrix(.26458333 0 0 .26052164 -21.068414 204.50088)"/><path d="m1.6071347 267.36666h30.6523883c.304038 0 .548801.28894.548801.64786v25.1626c0 .35892-.244763.64786-.548801.64786h-30.6523883c-.3040362 0-.5488019-.28894-.5488019-.64786v-25.1626c0-.35892.2447657-.64786.5488019-.64786z" fill="url(#s)"/><path d="m1.6040367 267.36666c-.3040364 0-.5457031.286-.5457031.64492v25.16848c0 .35892.2416667.64492.5457031.64492h30.6585923c.304041 0 .545703-.286.545703-.64492v-25.16848c0-.35892-.241662-.64492-.545703-.64492zm.3720703.96738h29.914452c.288835 0 .520898.27095.520898.60772v23.87864c0 .33676-.232063.60771-.520898.60771h-29.914452c-.2888343 0-.5208984-.27095-.5208984-.60771v-23.87864c0-.33677.2320641-.60772.5208984-.60772z" fill="url(#t)"/><path d="m1.0583333 275.83331h31.7499997v16.93334h-31.7499997z" fill="#fff"/><g fill="#cbcbcd"><path d="m1.455208 275.76715h.661458v16.99948h-.661458z"/><path d="m31.750006 275.76715h.661458v16.99948h-.661458z"/><path d="m9.657291 275.89944h.661458v16.86719h-.661458z"/><path d="m17.131769 275.89944h.661458v16.86719h-.661458z"/><path d="m24.606249 275.70102h.661458v17.06563h-.661458z"/><path d="m1.389062 292.10516h30.890106v.66146h-30.890106z"/><path d="m1.389062 287.6734h30.890106v.66146h-30.890106z"/><path d="m1.389062 283.37393h30.890106v.66146h-30.890106z"/><path d="m1.389062 279.20673h30.890106v.66146h-30.890106z"/></g></g><g transform="matrix(.25 0 0 .25 25.4 -45.41041)"><path d="m83.772 239.27611h119.71329c1.18742 0 2.14336 1.12849 2.14336 2.53025v100.56093c0 1.40175-.95594 2.53025-2.14336 2.53025h-119.71329c-1.187418 0-2.143353-1.1285-2.143353-2.53025v-100.56093c0-1.40176.955935-2.53025 2.143353-2.53025z" filter="url(#h)" opacity=".5" transform="matrix(.26458333 0 0 .26052164 -21.068414 204.50088)"/><path d="m1.6071347 267.36666h30.6523883c.304038 0 .548801.28894.548801.64786v25.1626c0 .35892-.244763.64786-.548801.64786h-30.6523883c-.3040362 0-.5488019-.28894-.5488019-.64786v-25.1626c0-.35892.2447657-.64786.5488019-.64786z" fill="url(#s)"/><path d="m1.6040367 267.36666c-.3040364 0-.5457031.286-.5457031.64492v25.16848c0 .35892.2416667.64492.5457031.64492h30.6585923c.304041 0 .545703-.286.545703-.64492v-25.16848c0-.35892-.241662-.64492-.545703-.64492zm.3720703.96738h29.914452c.288835 0 .520898.27095.520898.60772v23.87864c0 .33676-.232063.60771-.520898.60771h-29.914452c-.2888343 0-.5208984-.27095-.5208984-.60771v-23.87864c0-.33677.2320641-.60772.5208984-.60772z" fill="url(#t)"/><path d="m1.0583333 275.83331h31.7499997v16.93334h-31.7499997z" fill="#fff"/><g fill="#cbcbcd"><path d="m1.455208 275.76715h.661458v16.99948h-.661458z"/><path d="m31.750006 275.76715h.661458v16.99948h-.661458z"/><path d="m9.657291 275.89944h.661458v16.86719h-.661458z"/><path d="m17.131769 275.89944h.661458v16.86719h-.661458z"/><path d="m24.606249 275.70102h.661458v17.06563h-.661458z"/><path d="m1.389062 292.10516h30.890106v.66146h-30.890106z"/><path d="m1.389062 287.6734h30.890106v.66146h-30.890106z"/><path d="m1.389062 283.37393h30.890106v.66146h-30.890106z"/><path d="m1.389062 279.20673h30.890106v.66146h-30.890106z"/></g></g><g transform="matrix(.25 0 0 .25 35.454167 -45.41041)"><path d="m83.772 239.27611h119.71329c1.18742 0 2.14336 1.12849 2.14336 2.53025v100.56093c0 1.40175-.95594 2.53025-2.14336 2.53025h-119.71329c-1.187418 0-2.143353-1.1285-2.143353-2.53025v-100.56093c0-1.40176.955935-2.53025 2.143353-2.53025z" filter="url(#h)" opacity=".5" transform="matrix(.26458333 0 0 .26052164 -21.068414 204.50088)"/><path d="m1.6071347 267.36666h30.6523883c.304038 0 .548801.28894.548801.64786v25.1626c0 .35892-.244763.64786-.548801.64786h-30.6523883c-.3040362 0-.5488019-.28894-.5488019-.64786v-25.1626c0-.35892.2447657-.64786.5488019-.64786z" fill="url(#s)"/><path d="m1.6040367 267.36666c-.3040364 0-.5457031.286-.5457031.64492v25.16848c0 .35892.2416667.64492.5457031.64492h30.6585923c.304041 0 .545703-.286.545703-.64492v-25.16848c0-.35892-.241662-.64492-.545703-.64492zm.3720703.96738h29.914452c.288835 0 .520898.27095.520898.60772v23.87864c0 .33676-.232063.60771-.520898.60771h-29.914452c-.2888343 0-.5208984-.27095-.5208984-.60771v-23.87864c0-.33677.2320641-.60772.5208984-.60772z" fill="url(#t)"/><path d="m1.0583333 275.83331h31.7499997v16.93334h-31.7499997z" fill="#fff"/><g fill="#cbcbcd"><path d="m1.455208 275.76715h.661458v16.99948h-.661458z"/><path d="m31.750006 275.76715h.661458v16.99948h-.661458z"/><path d="m9.657291 275.89944h.661458v16.86719h-.661458z"/><path d="m17.131769 275.89944h.661458v16.86719h-.661458z"/><path d="m24.606249 275.70102h.661458v17.06563h-.661458z"/><path d="m1.389062 292.10516h30.890106v.66146h-30.890106z"/><path d="m1.389062 287.6734h30.890106v.66146h-30.890106z"/><path d="m1.389062 283.37393h30.890106v.66146h-30.890106z"/><path d="m1.389062 279.20673h30.890106v.66146h-30.890106z"/></g></g><g transform="matrix(.06614583 0 0 .06614583 14.2875 7.40833)"><path d="m23 9 .04082 112h61.13118c.53 0 1.039-.211 1.414-.586l32.828-32.828c.375-.375.586-.884.586-1.414v-77.172z" filter="url(#w)" opacity=".306849" transform="matrix(1.0416667 0 0 1.0357143 -9.958333 -3.321534)"/><path d="m24.919999 10.931136v108.137934l58.676001-.0001c.53 0 1.039-.211 1.414-.586l31.484-31.765936c.375-.375.586-.884.586-1.414v-74.371898z" filter="url(#x)" opacity=".89589" transform="matrix(1.0416667 0 0 1.0357143 -9.958333 -3.321534)"/><path d="m23 9.9655172.040816 111.0344828h61.131184c.53 0 1.039-.211 1.414-.586l32.828-32.828c.375-.375.586-.884.586-1.414v-76.2064828z" filter="url(#w)" opacity=".306849" transform="matrix(1.0416667 0 0 1.0357143 -9.958333 -3.321534)"/><path d="m16.000002 8v112h61.172c.53 0 1.039-.211 1.414-.586l32.827998-32.828c.375-.375.586-.884.586-1.414v-77.172z" fill="url(#y)"/><path d="m19.678725 10.7c-.539276 0-.978723.440836-.978723.981818l-.7 105.336362c0 .54197.439447.98182.978723.98182h57.913022c.257404 0 .509915-.10407.691957-.28767l32.129526-32.23113c.18303-.1836.28677-.435927.28677-.694145v-73.805237c0-.540982-.43847-.981818-.97872-.981818z" fill="url(#z)"/><g transform="matrix(1.2491482 0 0 1.2855901 -187.98974 90.620506)"><path clip-path="url(#A)" d="m236.74922-2.959853c0 8.971924-14.3372 16.254104-32.00119 16.254104-17.57201-.000002-31.84899-7.205862-31.99725-16.113393l.12664 6.4646545c0 8.9719285 14.21056 16.2541055 31.87458 16.2541045 17.66399 0 31.87058-7.282176 31.87058-16.2541045z" filter="url(#B)" transform="translate(0 -11.6)"/><path clip-path="url(#A)" d="m236.74922-2.959853c0 8.971924-14.3372 16.254104-32.00119 16.254104-17.57201-.000002-31.84899-7.205862-31.99725-16.113393l.12664 6.4646545c0 8.9719285 14.21056 16.2541055 31.87458 16.2541045 17.66399 0 31.87058-7.282176 31.87058-16.2541045z" filter="url(#C)" transform="translate(0 -11.6)"/><path d="m227.5058-9.6807605c1.621 5.193172-8.05623 9.73979599-22.69227 9.73979599-15.34334 0-24.84902-4.69226019-22.69226-9.73979599 2.81318-6.5838215 12.97932-9.7397965 22.69226-9.7397965 9.3613 0 20.86556 3.887588 22.69227 9.7397965z" fill="url(#D)"/><ellipse cx="341.5318" cy="637.24835" fill="url(#E)" rx="252.67799" ry="126.339" transform="matrix(.1266434 0 0 .12864985 161.49725 -96.94021)"/><path d="m236.74922-14.959853c0 8.9719242-14.3372 16.2541042-32.00119 16.2541042-17.57201-.0000027-31.84899-7.2058625-31.99725-16.1133932l.12664 6.4646545c0 8.97192897 14.21056 16.2541053 31.87458 16.2541043 17.66399 0 31.87058-7.28217533 31.87058-16.2541043z" fill="url(#F)"/><path d="m134.39008 526.22954c-.2863 2.46133-.4688 4.94049-.4687 7.4375 10.36375 61.48028 113.23091 122.54765 252.6874 120.12532 140.89896-2.44738 242.96054-57.02666 252.6563-118.57071.38874-2.46752-.1512-4.97617-.4375-7.4375-7.7085 66.28118-117.7345 122.79277-252.2188 122.79277-134.4842 0-244.5102-58.0662-252.2187-124.34738z" fill="url(#G)" filter="url(#H)" transform="matrix(.1266434 0 0 .12864985 155.79052 -82.328538)"/><path d="m1050.3125 441.16063c-.2863 2.46133-.4688 4.94049-.4687 7.4375 0 69.73913 113.2092 126.34374 252.6874 126.34375 139.4783 0 252.6563-56.60463 252.6563-126.34375 0-2.49701-.1512-4.97617-.4375-7.4375-7.7085 66.28118-117.7345 124.90625-252.2188 124.90625-134.4842 0-244.5102-58.62507-252.2187-124.90625z" fill="url(#I)" filter="url(#J)" opacity=".505535" transform="matrix(.1240149 0 0 .12597969 43.2187 -72.010816)"/><path clip-path="url(#L)" d="m162.53125 21.442859c-17.664 0-32 8.229416-32 17.982365 0 .16808.0228.333043.0313.5.4824-9.520852 14.60917-17.482365 31.96875-17.482365 17.35915 0 31.48569 7.961843 31.96875 17.482365.008-.167191.0313-.331684.0313-.5 0-9.752947-14.336-17.982365-32-17.982365z" fill="url(#K)" filter="url(#M)" transform="matrix(1 0 0 .9199197 42.21284 -51.733938)"/><path d="m205-30.625c-12.42716 0-26.05067 4.05435-29.64997 10.665133-1.74801 3.210518 4.27872 7.867459 11.46247 7.209867 15.58759-2.332403 32.32326-5.259529 47.21875-8.03125-.007-.01854.007-.04394 0-.0625-2.33716-5.876175-17.05401-9.78125-29.03125-9.78125z" fill="url(#N)" filter="url(#O)"/><path clip-path="url(#P)" d="m236.74922 26.665147c0 8.971924-14.3372 16.254104-32.00119 16.254104-17.57201-.000002-31.84899-7.205862-31.99725-16.113393l.12664 6.464655c0 8.971928 14.21056 16.254105 31.87458 16.254104 17.66399 0 31.87058-7.282176 31.87058-16.254104z" fill="#fff" filter="url(#Q)" opacity=".660167" transform="translate(0 -36.05)"/><path d="m134.39008 526.22954c-.2863 2.46133-.4688 4.94049-.4687 7.4375 10.36375 61.48028 113.21652 121.53213 252.6874 120.12532 137.13634-1.38326 235.20153-53.21417 252.6563-118.57071.64496-2.41495-.1512-4.97617-.4375-7.4375-7.7085 66.28118-117.7345 122.79277-252.2188 122.79277-134.4842 0-244.5102-58.0662-252.2187-124.34738z" fill="url(#G)" filter="url(#R)" transform="matrix(.1266434 0 0 .12864985 155.79052 -82.328538)"/></g><g transform="matrix(1.2491482 0 0 1.2855901 -187.98974 79.257388)"><path clip-path="url(#A)" d="m236.74922-2.959853c0 8.971924-14.3372 16.254104-32.00119 16.254104-17.57201-.000002-31.84899-7.205862-31.99725-16.113393l.12664 6.4646545c0 8.9719285 14.21056 16.2541055 31.87458 16.2541045 17.66399 0 31.87058-7.282176 31.87058-16.2541045z" filter="url(#C)" transform="translate(0 -11.6)"/><path d="m227.5058-9.6807605c1.621 5.193172-8.05623 9.73979599-22.69227 9.73979599-15.34334 0-24.84902-4.69226019-22.69226-9.73979599 2.81318-6.5838215 12.97932-9.7397965 22.69226-9.7397965 9.3613 0 20.86556 3.887588 22.69227 9.7397965z" fill="url(#D)"/><ellipse cx="341.5318" cy="637.24835" fill="url(#E)" rx="252.67799" ry="126.339" transform="matrix(.1266434 0 0 .12864985 161.49725 -96.94021)"/><path d="m236.74922-14.959853c0 8.9719242-14.3372 16.2541042-32.00119 16.2541042-17.57201-.0000027-31.84899-7.2058625-31.99725-16.1133932l.12664 6.4646545c0 8.97192897 14.21056 16.2541053 31.87458 16.2541043 17.66399 0 31.87058-7.28217533 31.87058-16.2541043z" fill="url(#F)"/><path d="m134.39008 526.22954c-.2863 2.46133-.4688 4.94049-.4687 7.4375 10.36375 61.48028 113.23091 122.54765 252.6874 120.12532 140.89896-2.44738 242.96054-57.02666 252.6563-118.57071.38874-2.46752-.1512-4.97617-.4375-7.4375-7.7085 66.28118-117.7345 122.79277-252.2188 122.79277-134.4842 0-244.5102-58.0662-252.2187-124.34738z" fill="url(#G)" filter="url(#H)" transform="matrix(.1266434 0 0 .12864985 155.79052 -82.328538)"/><path d="m1050.3125 441.16063c-.2863 2.46133-.4688 4.94049-.4687 7.4375 0 69.73913 113.2092 126.34374 252.6874 126.34375 139.4783 0 252.6563-56.60463 252.6563-126.34375 0-2.49701-.1512-4.97617-.4375-7.4375-7.7085 66.28118-117.7345 124.90625-252.2188 124.90625-134.4842 0-244.5102-58.62507-252.2187-124.90625z" fill="url(#I)" filter="url(#J)" opacity=".505535" transform="matrix(.1240149 0 0 .12597969 43.2187 -72.010816)"/><path clip-path="url(#L)" d="m162.53125 21.442859c-17.664 0-32 8.229416-32 17.982365 0 .16808.0228.333043.0313.5.4824-9.520852 14.60917-17.482365 31.96875-17.482365 17.35915 0 31.48569 7.961843 31.96875 17.482365.008-.167191.0313-.331684.0313-.5 0-9.752947-14.336-17.982365-32-17.982365z" fill="url(#K)" filter="url(#M)" transform="matrix(1 0 0 .9199197 42.21284 -51.733938)"/><path d="m205-30.625c-12.42716 0-26.05067 4.05435-29.64997 10.665133-1.74801 3.210518 4.27872 7.867459 11.46247 7.209867 15.58759-2.332403 32.32326-5.259529 47.21875-8.03125-.007-.01854.007-.04394 0-.0625-2.33716-5.876175-17.05401-9.78125-29.03125-9.78125z" fill="url(#N)" filter="url(#O)"/><path clip-path="url(#P)" d="m236.74922 26.665147c0 8.971924-14.3372 16.254104-32.00119 16.254104-17.57201-.000002-31.84899-7.205862-31.99725-16.113393l.12664 6.464655c0 8.971928 14.21056 16.254105 31.87458 16.254104 17.66399 0 31.87058-7.282176 31.87058-16.254104z" fill="#fff" filter="url(#Q)" opacity=".660167" transform="translate(0 -36.05)"/><path d="m134.39008 526.22954c-.2863 2.46133-.4688 4.94049-.4687 7.4375 10.36375 61.48028 113.21652 121.53213 252.6874 120.12532 137.13634-1.38326 235.20153-53.21417 252.6563-118.57071.64496-2.41495-.1512-4.97617-.4375-7.4375-7.7085 66.28118-117.7345 122.79277-252.2188 122.79277-134.4842 0-244.5102-58.0662-252.2187-124.34738z" fill="url(#G)" filter="url(#R)" transform="matrix(.1266434 0 0 .12864985 155.79052 -82.328538)"/></g><g transform="matrix(1.2491482 0 0 1.2855901 -187.98974 67.961981)"><path clip-path="url(#A)" d="m236.74922-2.959853c0 8.971924-14.3372 16.254104-32.00119 16.254104-17.57201-.000002-31.84899-7.205862-31.99725-16.113393l.12664 6.4646545c0 8.9719285 14.21056 16.2541055 31.87458 16.2541045 17.66399 0 31.87058-7.282176 31.87058-16.2541045z" filter="url(#C)" transform="translate(0 -11.6)"/><path d="m227.5058-9.6807605c1.621 5.193172-8.05623 9.73979599-22.69227 9.73979599-15.34334 0-24.84902-4.69226019-22.69226-9.73979599 2.81318-6.5838215 12.97932-9.7397965 22.69226-9.7397965 9.3613 0 20.86556 3.887588 22.69227 9.7397965z" fill="url(#D)"/><ellipse cx="341.5318" cy="637.24835" fill="url(#E)" rx="252.67799" ry="126.339" transform="matrix(.1266434 0 0 .12864985 161.49725 -96.94021)"/><path d="m236.74922-14.959853c0 8.9719242-14.3372 16.2541042-32.00119 16.2541042-17.57201-.0000027-31.84899-7.2058625-31.99725-16.1133932l.12664 6.4646545c0 8.97192897 14.21056 16.2541053 31.87458 16.2541043 17.66399 0 31.87058-7.28217533 31.87058-16.2541043z" fill="url(#F)"/><path d="m134.39008 526.22954c-.2863 2.46133-.4688 4.94049-.4687 7.4375 10.36375 61.48028 113.23091 122.54765 252.6874 120.12532 140.89896-2.44738 242.96054-57.02666 252.6563-118.57071.38874-2.46752-.1512-4.97617-.4375-7.4375-7.7085 66.28118-117.7345 122.79277-252.2188 122.79277-134.4842 0-244.5102-58.0662-252.2187-124.34738z" fill="url(#G)" filter="url(#H)" transform="matrix(.1266434 0 0 .12864985 155.79052 -82.328538)"/><path d="m1050.3125 441.16063c-.2863 2.46133-.4688 4.94049-.4687 7.4375 0 69.73913 113.2092 126.34374 252.6874 126.34375 139.4783 0 252.6563-56.60463 252.6563-126.34375 0-2.49701-.1512-4.97617-.4375-7.4375-7.7085 66.28118-117.7345 124.90625-252.2188 124.90625-134.4842 0-244.5102-58.62507-252.2187-124.90625z" fill="url(#I)" filter="url(#J)" opacity=".505535" transform="matrix(.1240149 0 0 .12597969 43.2187 -72.010816)"/><path clip-path="url(#L)" d="m162.53125 21.442859c-17.664 0-32 8.229416-32 17.982365 0 .16808.0228.333043.0313.5.4824-9.520852 14.60917-17.482365 31.96875-17.482365 17.35915 0 31.48569 7.961843 31.96875 17.482365.008-.167191.0313-.331684.0313-.5 0-9.752947-14.336-17.982365-32-17.982365z" fill="url(#K)" filter="url(#M)" transform="matrix(1 0 0 .9199197 42.21284 -51.733938)"/><path d="m205-30.625c-12.42716 0-26.05067 4.05435-29.64997 10.665133-1.74801 3.210518 4.27872 7.867459 11.46247 7.209867 15.58759-2.332403 32.32326-5.259529 47.21875-8.03125-.007-.01854.007-.04394 0-.0625-2.33716-5.876175-17.05401-9.78125-29.03125-9.78125z" fill="url(#N)" filter="url(#O)"/><path clip-path="url(#P)" d="m236.74922 26.665147c0 8.971924-14.3372 16.254104-32.00119 16.254104-17.57201-.000002-31.84899-7.205862-31.99725-16.113393l.12664 6.464655c0 8.971928 14.21056 16.254105 31.87458 16.254104 17.66399 0 31.87058-7.282176 31.87058-16.254104z" fill="#fff" filter="url(#Q)" opacity=".660167" transform="translate(0 -36.05)"/><path d="m134.39008 526.22954c-.2863 2.46133-.4688 4.94049-.4687 7.4375 10.36375 61.48028 113.21652 121.53213 252.6874 120.12532 137.13634-1.38326 235.20153-53.21417 252.6563-118.57071.64496-2.41495-.1512-4.97617-.4375-7.4375-7.7085 66.28118-117.7345 122.79277-252.2188 122.79277-134.4842 0-244.5102-58.0662-252.2187-124.34738z" fill="url(#G)" filter="url(#R)" transform="matrix(.1266434 0 0 .12864985 155.79052 -82.328538)"/></g><g transform="matrix(1.2491482 0 0 1.2855901 -187.98974 56.598861)"><path clip-path="url(#A)" d="m236.74922-2.959853c0 8.971924-14.3372 16.254104-32.00119 16.254104-17.57201-.000002-31.84899-7.205862-31.99725-16.113393l.12664 6.4646545c0 8.9719285 14.21056 16.2541055 31.87458 16.2541045 17.66399 0 31.87058-7.282176 31.87058-16.2541045z" filter="url(#C)" transform="translate(0 -11.6)"/><path d="m227.5058-9.6807605c1.621 5.193172-8.05623 9.73979599-22.69227 9.73979599-15.34334 0-24.84902-4.69226019-22.69226-9.73979599 2.81318-6.5838215 12.97932-9.7397965 22.69226-9.7397965 9.3613 0 20.86556 3.887588 22.69227 9.7397965z" fill="url(#D)"/><ellipse cx="341.5318" cy="637.24835" fill="url(#E)" rx="252.67799" ry="126.339" transform="matrix(.1266434 0 0 .12864985 161.49725 -96.94021)"/><path d="m236.74922-14.959853c0 8.9719242-14.3372 16.2541042-32.00119 16.2541042-17.57201-.0000027-31.84899-7.2058625-31.99725-16.1133932l.12664 6.4646545c0 8.97192897 14.21056 16.2541053 31.87458 16.2541043 17.66399 0 31.87058-7.28217533 31.87058-16.2541043z" fill="url(#F)"/><path d="m134.39008 526.22954c-.2863 2.46133-.4688 4.94049-.4687 7.4375 10.36375 61.48028 113.23091 122.54765 252.6874 120.12532 140.89896-2.44738 242.96054-57.02666 252.6563-118.57071.38874-2.46752-.1512-4.97617-.4375-7.4375-7.7085 66.28118-117.7345 122.79277-252.2188 122.79277-134.4842 0-244.5102-58.0662-252.2187-124.34738z" fill="url(#G)" filter="url(#H)" transform="matrix(.1266434 0 0 .12864985 155.79052 -82.328538)"/><path d="m1050.3125 441.16063c-.2863 2.46133-.4688 4.94049-.4687 7.4375 0 69.73913 113.2092 126.34374 252.6874 126.34375 139.4783 0 252.6563-56.60463 252.6563-126.34375 0-2.49701-.1512-4.97617-.4375-7.4375-7.7085 66.28118-117.7345 124.90625-252.2188 124.90625-134.4842 0-244.5102-58.62507-252.2187-124.90625z" fill="url(#I)" filter="url(#J)" opacity=".505535" transform="matrix(.1240149 0 0 .12597969 43.2187 -72.010816)"/><path clip-path="url(#L)" d="m162.53125 21.442859c-17.664 0-32 8.229416-32 17.982365 0 .16808.0228.333043.0313.5.4824-9.520852 14.60917-17.482365 31.96875-17.482365 17.35915 0 31.48569 7.961843 31.96875 17.482365.008-.167191.0313-.331684.0313-.5 0-9.752947-14.336-17.982365-32-17.982365z" fill="url(#K)" filter="url(#M)" transform="matrix(1 0 0 .9199197 42.21284 -51.733938)"/><path d="m205-30.625c-12.42716 0-26.05067 4.05435-29.64997 10.665133-1.74801 3.210518 4.27872 7.867459 11.46247 7.209867 15.58759-2.332403 32.32326-5.259529 47.21875-8.03125-.007-.01854.007-.04394 0-.0625-2.33716-5.876175-17.05401-9.78125-29.03125-9.78125z" fill="url(#N)" filter="url(#O)"/><path clip-path="url(#P)" d="m236.74922 26.665147c0 8.971924-14.3372 16.254104-32.00119 16.254104-17.57201-.000002-31.84899-7.205862-31.99725-16.113393l.12664 6.464655c0 8.971928 14.21056 16.254105 31.87458 16.254104 17.66399 0 31.87058-7.282176 31.87058-16.254104z" fill="#fff" filter="url(#Q)" opacity=".660167" transform="translate(0 -36.05)"/><path d="m134.39008 526.22954c-.2863 2.46133-.4688 4.94049-.4687 7.4375 10.36375 61.48028 113.21652 121.53213 252.6874 120.12532 137.13634-1.38326 235.20153-53.21417 252.6563-118.57071.64496-2.41495-.1512-4.97617-.4375-7.4375-7.7085 66.28118-117.7345 122.79277-252.2188 122.79277-134.4842 0-244.5102-58.0662-252.2187-124.34738z" fill="url(#G)" filter="url(#R)" transform="matrix(.1266434 0 0 .12864985 155.79052 -82.328538)"/></g><g stroke-width=".1"><circle cx="10" cy="14" fill="url(#S)" r="2" transform="matrix(1.4228886 0 0 1.4228886 8.07912 -5.854589)"/><circle cx="10" cy="14" fill="url(#T)" r="1.556" transform="matrix(1.6344516 0 0 1.6344516 5.963484 -8.816475)"/><circle cx="10" cy="14" fill="url(#S)" r="2" transform="matrix(1.66819 0 0 1.6681904 5.626101 -9.520326)"/><circle cx="10" cy="14" fill="url(#T)" r="1.556" transform="matrix(1.9162258 0 0 1.9162263 3.145736 -12.992831)"/><circle cx="10" cy="14" fill="url(#S)" r="2" transform="matrix(1.66819 0 0 1.6681904 5.526101 6.761577)"/><circle cx="10" cy="14" fill="url(#T)" r="1.556" transform="matrix(1.9162258 0 0 1.9162263 3.045736 3.289071)"/><circle cx="10" cy="14" fill="url(#S)" r="2" transform="matrix(1.66819 0 0 1.6681904 5.526101 23.14348)"/><circle cx="10" cy="14" fill="url(#T)" r="1.556" transform="matrix(1.9162258 0 0 1.9162263 3.045736 19.670974)"/><circle cx="10" cy="14" fill="url(#S)" r="2" transform="matrix(1.66819 0 0 1.6681904 5.426101 38.825383)"/><circle cx="10" cy="14" fill="url(#T)" r="1.556" transform="matrix(1.9162258 0 0 1.9162263 2.945736 35.352877)"/><circle cx="10" cy="14" fill="url(#S)" r="2" transform="matrix(1.66819 0 0 1.6681904 5.326101 55.107286)"/><circle cx="10" cy="14" fill="url(#T)" r="1.556" transform="matrix(1.9162258 0 0 1.9162263 2.845736 51.63478)"/><circle cx="10" cy="14" fill="url(#S)" r="2" transform="matrix(1.66819 0 0 1.6681904 5.626101 70.889188)"/><circle cx="10" cy="14" fill="url(#T)" r="1.556" transform="matrix(1.9162258 0 0 1.9162263 3.145736 67.416682)"/><circle cx="10" cy="14" fill="url(#S)" r="2" transform="matrix(1.66819 0 0 1.6681904 5.526101 87.071092)"/><circle cx="10" cy="14" fill="url(#T)" r="1.556" transform="matrix(1.9162258 0 0 1.9162263 3.045736 83.598586)"/></g><g transform="translate(.000002)"><path d="m111.414 86.586c.25-.25-26.379-1.586-31.414-1.586-1.654 0-3 1.346-3 3 0 5.035 1.336 31.664 1.586 31.414z" fill="url(#U)" filter="url(#V)" opacity=".1"/><path d="m111.414 86.586c.375-.375-21.97-.586-31.414-.586-1.103 0-2 .897-2 2 0 9.444.211 31.789.586 31.414z" filter="url(#W)" opacity=".2"/><path d="m111.414 86.586c.239-.239-21.607.414-31.414.414-.553 0-1 .447-1 1 0 9.807-.653 31.653-.414 31.414z" fill="url(#X)" filter="url(#Y)" opacity=".1"/><path d="m78.586 119.414s11.914-9.914 17.414-15.414 15.414-17.414 15.414-17.414-21.164 1.414-31.414 1.414c0 10.25-1.414 31.414-1.414 31.414z" fill="url(#Z)"/></g></g><g transform="matrix(.06614583 0 0 .06614583 26.674811 9.28727)"><g enable-background="new" transform="translate(-3.272728 -964.9089)"><g mask="url(#aa)" transform="matrix(1.5203063 0 0 1.7580049 -28.638978 -783.97488)"><rect fill="url(#ac)" height="30.267452" rx=".534409" ry=".853189" transform="matrix(0 -1 -1 0 0 0)" width="7.017025" x="-1042.366" y="-54.235111"/><path d="m45.669681 1035.3545c-.752454 3.1356-2.990206 5.7036-7.868164 7.0076h10.982644c.642263 0 1.174761-.3264 1.174761-.7414v-5.5248c0-.415-.532498-.7414-1.174761-.7414z" fill="url(#ae)" opacity=".27459"/><path d="m24 1036.3622h22v2h-22z" fill="url(#ag)"/><rect fill="url(#ah)" height="7.015986" rx=".749215" ry="0" width="4.707859" x="49.659451" y="1035.3276"/><rect fill="url(#ai)" height="30.267452" rx=".707802" ry="1.099292" transform="matrix(0 -1 -1 0 0 0)" width="7.017025" x="-1042.366" y="-100"/><rect fill="url(#aj)" filter="url(#ak)" height="2.180316" rx="1.090158" width="25.937958" x="74" y="1036.5656"/><rect fill="url(#al)" height="5.147704" rx=".707802" ry="1.099292" transform="matrix(0 -1 -1 0 0 0)" width="7.017025" x="-1042.366" y="-100"/><rect fill="url(#am)" height="2.738004" rx=".543904" ry=".856658" transform="matrix(0 -1 -1 0 0 0)" width="6.476035" x="-1042.0278" y="-99.581337"/><rect fill="url(#an)" height="6.299033" rx=".726158" ry="1.159319" transform="matrix(0 -1 -1 0 0 0)" width="7.017025" x="-1042.366" y="-30.266687"/></g><rect fill="url(#ao)" height="21.00284" rx="1.018396" ry=".059976" transform="scale(1 -1)" width="11.738789" x="60.063377" y="-1044.2588"/><path d="m1026.0273-63.889141h16.2116v1.883858h-16.2116z" fill="url(#ap)" transform="rotate(89.99999828113)"/><rect fill="url(#aq)" height="35.87978" rx="1.702512" ry="1.748062" transform="matrix(0 -1 -1 0 0 0)" width="16.568367" x="-1052.6438" y="-83.855553"/><rect fill="url(#ar)" height="5.331771" rx="1.702512" ry="1.448453" transform="matrix(0 -1 -1 0 0 0)" width="16.568329" x="-1052.6438" y="-84.102013"/><path d="m52.309118 1036.0425c-.630297.7358-.978436 1.5407-.978436 2.3897 0 3.3949 5.602504 6.1603 12.475104 6.1603 6.872601 0 12.440154-2.7654 12.440154-6.1603 0-.849-.348125-1.6539-.978422-2.3897z" fill="url(#as)" opacity=".360656"/><rect fill="url(#at)" height="21.002226" rx="1.018396" ry=".059976" transform="scale(1 -1)" width="11.73877" x="60.063377" y="-1044.2588"/><path d="m45.815418 112.14169h38.252632v3.09058h-38.252632z" fill="url(#au)" filter="url(#av)" transform="matrix(.84296126 0 0 .90066557 9.355161 937.83453)"/><path d="m46.17263 122.85132h37.89542v1.18519h-37.89542z" fill="url(#aw)" filter="url(#ax)" opacity=".318352" transform="matrix(.92499639 0 0 .90066557 5.457902 938.16691)"/><path d="m56.30756 1038.8368h3.582946v13.807h-3.582946z" fill="url(#ay)" opacity=".445714"/><rect fill="url(#az)" height="16.568426" opacity=".537143" rx="1.010217" ry=".690351" width="4.040891" x="52.266666" y="1036.0753"/><path d="m79.636116 1038.8368h3.832946v13.807h-3.832946z" fill="url(#aA)" opacity=".445714"/><rect fill="url(#aB)" height="16.568352" opacity=".537143" rx=".978973" ry=".690351" width="3.915886" x="75.720238" y="1036.0753"/></g><path d="m-3.272727-36.405899h127.999997v128h-127.999997z" fill="none"/><path d="m47.457542 93.114876h32.967781v6.171114h-32.967781z" fill="url(#aC)" filter="url(#aD)" opacity=".637363" transform="matrix(1.532892 0 0 1.2916667 -37.391302 -65.364315)"/><rect fill="url(#aE)" height="96.000008" rx="2.142127" ry="2.068445" width="47.99572" x="36.72913" y="-36.321381"/><rect fill="url(#aF)" height="96.000008" opacity=".70696" rx="2.058631" ry="1.987822" width="47.99572" x="36.72913" y="-36.321381"/><rect fill="url(#aG)" height="39.706444" rx="1.971781" ry="1.673789" width="47.99572" x="36.72913" y="19.954479"/><text fill="url(#aI)" font-family="Bitstream Vera Sans" font-weight="bold" transform="scale(.9910814 1.0089989)" x="43.776764" y="48.779247"><tspan fill="url(#aI)" font-size="2.302079" x="43.776764" y="48.779247">OXYGEN</tspan></text><rect fill="url(#aJ)" height=".72646" opacity=".732601" rx=".22489" ry=".578023" width="13.695614" x="50.442192" y="23.264826"/><rect fill="url(#aK)" height="24.012951" rx="1.007854" ry=".973187" width="47.99572" x="36.72913" y="35.647964"/><path d="m36.506207-84.727272h.285864v22.222952h-.285864z" fill="#060606" opacity=".791209" transform="rotate(90)"/><path d="m85.933333 5.8497359c-.666929 28.7370181 1.405568 87.9490571-2.473744 108.6551241-14.331196-1.63224-14.483761-73.317722-11.348478-109.0006271z" fill="url(#aL)" fill-rule="evenodd" filter="url(#aM)" opacity=".604396" transform="matrix(.8570664 0 0 .8275862 9.302996 -39.631724)"/><path d="m85.733333 5.7497359c-.666929 28.7370181-.748929 94.1442951-3.273744 108.7551241-15.760825.36115-4.585979-82.522778-11.348478-109.0006271z" fill="url(#aN)" fill-rule="evenodd" filter="url(#aM)" opacity=".761905" transform="matrix(-.8570664 0 0 .8275862 112.42759 -39.631724)"/><rect id="bH" fill="url(#bG)" height="2.280814" opacity=".732601" rx=".22489" ry=".578023" width="13.190489" x="37.085121" y="22.973043"/><path d="m36.742797-29.639791v.553183h13.10063v51.873884h-13.097835v.470425h13.677631v-52.897492z" fill="#3e3e3e" fill-rule="evenodd"/><use height="128" transform="matrix(0 3.9486526 -.5779271 0 65.037072 -175.25607)" width="128" xlink:href="#bH"/><path d="m137.37423-51.650649c-.4646 0-.84375.467362-.84375 1.03125v50.43749973c4.94936.59011697 10.01102.90624997 15.15625.90624997 12.91618 0 25.27421-1.915556 36.71875-5.4375v-45.9062497c0-.563887-.37914-1.03125-.84375-1.03125z" fill="url(#aO)" filter="url(#aR)" mask="url(#aP)" opacity=".289377" transform="matrix(.823454 0 0 .8429904 -72.697715 9.176312)"/><g opacity=".549451" transform="matrix(.022343 0 0 .02607519 74.970067 -3.932449)"><path d="m-365.87868-23v25.59375l80 64.03125-80 64.03125v25.625l112-89.65625z" fill="#060606" filter="url(#aS)" opacity=".791209"/><path d="m-365.87868-38v25.59375l80 64.03125-80 64.03125v25.625l112-89.65625z" fill="#fff" filter="url(#aT)" opacity="1"/><path d="m-365.87868-32v25.59375l80 64.03125-80 64.03125v25.625l112-89.65625z" fill="#7a7a7a" opacity="1"/></g><g opacity=".549451" transform="matrix(.022343 0 0 .02607519 73.136732 -3.932449)"><path d="m-365.87868-23v25.59375l80 64.03125-80 64.03125v25.625l112-89.65625z" fill="#060606" filter="url(#aS)" opacity=".791209"/><path d="m-365.87868-38v25.59375l80 64.03125-80 64.03125v25.625l112-89.65625z" fill="#fff" filter="url(#aT)" opacity="1"/><path d="m-365.87868-32v25.59375l80 64.03125-80 64.03125v25.625l112-89.65625z" fill="#7a7a7a" opacity="1"/></g><rect fill="url(#aU)" height="19.862068" rx="2.058631" ry="1.987822" width="47.99572" x="36.72913" y="-36.321381"/><path d="m57.086063-36.315102h3.664685v90.248672h-3.664685z" fill="url(#aV)" opacity=".208791"/><circle cx="64.17112" cy="65.540108" filter="url(#aW)" opacity=".915751" r="63.144386" transform="matrix(.05396645 0 0 -.05364014 69.452099 47.306447)"/><g transform="matrix(.05679459 0 0 .05484104 69.31685 40.264812)"><g transform="matrix(1.034003 0 0 1.034003 -3.571961 -1.953362)"><circle cx="64.244492" cy="60.244492" r="57.890839"/><circle cx="52.18182" cy="44.909092" fill="url(#aX)" opacity=".118852" r="42.988293" transform="matrix(1.354892 0 0 1.354892 -6.45624 -.602477)"/><g opacity=".577869"><path d="m18.32319 89.008621c.08929.161616.195172.304391.286126.464954-.09422-.152925-.19341-.311012-.286126-.464954zm91.41715 0c-.0927.153942-.1919.312029-.28612.464954.091-.160563.19683-.303338.28612-.464954zm-90.987961.786846c9.012499 15.667623 25.919 26.216263 45.279382 26.216263 19.360383 0 36.266889-10.54864 45.279399-26.216263-9.425234 15.074563-26.202555 25.071753-45.279399 25.071753s-35.854164-9.99719-45.279382-25.071753z" fill="url(#aY)" opacity="1"/><path d="m21.546815 86.902153c.08342.150981.182328.28436.267297.434357-.08802-.142862-.180682-.290546-.267297-.434357zm85.401185 0c-.0866.143811-.17929.291495-.2673.434357.085-.149997.18388-.283376.2673-.434357zm-85.00024.735065c8.419408 14.636582 24.213332 24.491032 42.299653 24.491032 18.086322 0 33.880242-9.85445 42.299647-24.491032-8.804957 14.082532-24.478205 23.421842-42.299647 23.421842s-33.494685-9.33931-42.299653-23.421842z" fill="url(#aZ)" opacity="1"/><path d="m24.78966 84.242991c.07668.138787.167604.261396.245712.399281-.08091-.131326-.166091-.267083-.245712-.399281zm78.5047 0c-.0796.132198-.1648.267955-.24572.399281.0781-.137885.16904-.260494.24572-.399281zm-78.136133.675706c7.739507 13.454618 22.258007 22.513283 38.883784 22.513283s31.144276-9.058666 38.883779-22.513283c-8.093927 12.945319-22.501492 21.530433-38.883779 21.530433-16.382289 0-30.789854-8.585114-38.883784-21.530433z" fill="url(#a0)" opacity="1"/><path d="m28.398565 82.501092c.06954.125862.151993.23705.222826.362091-.07337-.119094-.150621-.242206-.222826-.362091zm71.192615 0c-.07221.119885-.14946.242997-.222835.362091.07084-.125041.153293-.236229.222835-.362091zm-70.858377.612769c7.018633 12.201428 20.184848 20.416349 35.262068 20.416349 15.077217 0 28.243433-8.214922 35.262067-20.416349-7.340046 11.739565-20.405662 19.525049-35.262067 19.525049-14.856408 0-27.922024-7.785484-35.262068-19.525049z" fill="url(#a1)" opacity="1"/><path d="m32.581299 80.504353c.06169.11165.134832.210283.197666.321206-.06509-.105646-.133615-.214858-.197666-.321206zm63.154077 0c-.06405.106348-.132583.21556-.197673.321206.06284-.110923.135981-.209556.197673-.321206zm-62.857579.543579c6.226141 10.823734 17.905727 18.111084 31.280539 18.111084 13.37481 0 25.054396-7.287351 31.280538-18.111084-6.511262 10.414022-18.101606 17.320425-31.280538 17.320425-13.178933 0-24.769278-6.906403-31.280539-17.320425z" fill="url(#a2)" opacity="1"/><path d="m35.859703 78.248887c.05528.09552.120825.179894.177132.274788-.05833-.09038-.119734-.183809-.177132-.274788zm56.593697 0c-.0574.09098-.11881.184409-.177139.274788.05631-.09489.121856-.179272.177139-.274788zm-56.327998.465024c5.579375 9.259547 16.045697 15.493769 28.031148 15.493769 11.98545 0 22.451772-6.234223 28.031148-15.493769-5.834879 8.909044-16.221229 14.817372-28.031148 14.817372s-22.196271-5.908328-28.031148-14.817372z" fill="url(#a3)" opacity="1"/><path d="m39.510842 76.25898c.04873.07843.106509.147722.156144.225645-.05141-.07422-.105548-.150937-.156144-.225645zm49.888034 0c-.0506.07471-.104733.151429-.15615.225645.04964-.07792.107418-.14721.15615-.225645zm-49.653817.381861c4.918287 7.603605 14.144477 12.722922 24.709799 12.722922 10.56532 0 19.79151-5.119317 24.709798-12.722922-5.143517 7.315785-14.299211 12.16749-24.709798 12.16749s-19.566283-4.851705-24.709799-12.16749z" fill="url(#a4)" opacity="1"/><path d="m43.011934 73.358075c.04189.07264.09156.1368.134228.208962-.0442-.06873-.09073-.139778-.134228-.208962zm42.88585 0c-.0435.06918-.09003.140234-.134233.208962.04267-.07216.09234-.136327.134233-.208962zm-42.684507.353628c4.227966 7.041427 12.159186 11.782245 21.241581 11.782245 9.082393 0 17.013613-4.740818 21.24158-11.782245-4.421583 6.774887-12.292202 11.267879-21.24158 11.267879s-16.819999-4.492992-21.241581-11.267879z" fill="url(#a5)" opacity="1"/><path d="m46.613057 70.957326c.03495.0624.0764.117528.111999.179523-.03688-.05904-.07571-.120085-.111999-.179523zm35.783635 0c-.03629.05944-.07512.120478-.112003.179523.0356-.06199.07705-.117121.112003-.179523zm-35.615636.303809c3.527784 6.049434 10.145535 10.122367 17.723817 10.122367s14.196033-4.072933 17.723817-10.122367c-3.689336 5.820444-10.256522 9.680464-17.723817 9.680464-7.467294 0-14.034482-3.86002-17.723817-9.680464z" fill="url(#a6)" opacity="1"/><path d="m49.814056 68.456546c.02792.05546.06102.104447.08946.159541-.02946-.05247-.06047-.106718-.08946-.159541zm28.581388 0c-.02899.05282-.06.107068-.08946.159541.02844-.05509.06154-.104085.08946-.159541zm-28.447203.269994c2.81774 5.376095 8.103523 8.995687 14.156508 8.995687s11.338768-3.619592 14.156507-8.995687c-2.946775 5.172593-8.19217 8.602971-14.156507 8.602971-5.964336 0-11.209733-3.430378-14.156508-8.602971z" fill="url(#a7)" opacity="1"/><path d="m57.016302 64.055173c.01453.02803.03176.05278.04656.08063-.01533-.02652-.03148-.05393-.04656-.08063zm14.877113 0c-.01509.02669-.03123.05411-.04657.08063.0148-.02784.03203-.0526.04657-.08063zm-14.807268.136444c1.466683 2.716869 4.218026 4.54607 7.368711 4.54607s5.902027-1.829201 7.36871-4.54607c-1.533848 2.614028-4.264168 4.347606-7.36871 4.347606s-5.834862-1.733578-7.368711-4.347606z" fill="url(#a8)" opacity="1"/><path d="m53.315147 66.555953c.02127.04103.0465.07727.06817.118032-.02245-.03882-.04608-.07895-.06817-.118032zm21.779266 0c-.02209.03908-.04572.07921-.06817.118032.02167-.04076.0469-.077.06817-.118032zm-21.677017.199746c2.147143 3.977346 6.174956 6.655194 10.787383 6.655194 4.612428 0 8.64024-2.677848 10.787382-6.655194-2.245468 3.826792-6.242505 6.364654-10.787382 6.364654s-8.541913-2.537862-10.787383-6.364654z" fill="url(#a9)" opacity="1"/></g><g opacity=".286885"><path d="m110.87207 31.359847c-.0893-.161616-.19517-.304391-.28613-.464954.0942.152925.19341.311012.28613.464954zm-91.417156 0c.09271-.153942.1919-.312029.28612-.464954-.09096.160563-.19683.303338-.28612.464954zm90.987966-.786846c-9.0125-15.667623-25.919003-26.2162627-45.279385-26.2162627-19.360383 0-36.266889 10.5486397-45.279401 26.2162627 9.425236-15.074563 26.202557-25.0717527 45.279401-25.0717527s35.854165 9.9971897 45.279385 25.0717527z" fill="url(#ba)" opacity=".733607"/><path d="m107.64845 33.466315c-.0834-.150981-.18233-.28436-.2673-.434357.088.142862.18068.290546.2673.434357zm-85.401196 0c.08661-.143811.17929-.291495.2673-.434357-.08498.149997-.18388.283376-.2673.434357zm85.000246-.735065c-8.419412-14.636582-24.213336-24.4910317-42.299657-24.4910317-18.086322 0-33.880242 9.8544497-42.299649 24.4910317 8.804959-14.082532 24.478207-23.4218417 42.299649-23.4218417s33.494685 9.3393097 42.299657 23.4218417z" fill="url(#bb)" opacity=".733607"/><path d="m104.4056 36.125477c-.0767-.138787-.1676-.261396-.24571-.399281.0809.131326.16609.267083.24571.399281zm-78.504706 0c.07962-.132198.1648-.267955.24572-.399281-.07812.137885-.16904.260494-.24572.399281zm78.136136-.675706c-7.739508-13.454618-22.258008-22.513283-38.883785-22.513283s-31.144276 9.058666-38.883781 22.513283c8.093929-12.945319 22.501494-21.530433 38.883781-21.530433 16.382289 0 30.789854 8.585114 38.883785 21.530433z" fill="url(#bc)" opacity=".733607"/><path d="m100.79669 37.867376c-.0695-.125862-.15199-.23705-.22283-.362091.0734.119094.15063.242206.22283.362091zm-71.192614 0c.07221-.119885.14946-.242997.222835-.362091-.07084.125041-.153293.236229-.222835.362091zm70.858374-.612769c-7.01863-12.201428-20.184845-20.416349-35.262065-20.416349-15.077217 0-28.243433 8.214922-35.262067 20.416349 7.340046-11.739565 20.405662-19.525049 35.262067-19.525049 14.856408 0 27.922024 7.785484 35.262065 19.525049z" fill="url(#bd)" opacity=".733607"/><path d="m96.613957 39.864115c-.06169-.11165-.134832-.210283-.197666-.321206.06509.105646.133615.214858.197666.321206zm-63.154077 0c.06405-.106348.132583-.21556.197673-.321206-.06284.110923-.135981.209556-.197673.321206zm62.857579-.543579c-6.226141-10.823734-17.905727-18.111084-31.280539-18.111084-13.37481 0-25.054396 7.287351-31.280538 18.111084 6.511262-10.414022 18.101606-17.320425 31.280538-17.320425 13.178933 0 24.769278 6.906403 31.280539 17.320425z" fill="url(#be)" opacity=".733607"/><path d="m93.335553 42.119585c-.05528-.09552-.120825-.1799-.177132-.27479.05832.09038.119734.18381.177132.27479zm-56.593697 0c.0574-.09098.11881-.18441.177139-.27479-.05631.09489-.121856.17927-.177139.27479zm56.327998-.46503c-5.579375-9.259545-16.045697-15.493767-28.031148-15.493767-11.98545 0-22.451772 6.234223-28.031148 15.493767 5.834879-8.909042 16.221229-14.81737 28.031148-14.81737s22.196271 5.908328 28.031148 14.81737z" fill="url(#bf)" opacity=".733607"/><path d="m89.684414 44.109485c-.04873-.07843-.106509-.14772-.156144-.22564.05141.07421.105548.15094.156144.22564zm-49.888034 0c.0506-.0747.104733-.15143.15615-.22564-.04964.07792-.107418.14721-.15615.22564zm49.653817-.38186c-4.918287-7.603603-14.144477-12.72292-24.709799-12.72292-10.56532 0-19.79151 5.119317-24.709798 12.72292 5.143517-7.315783 14.299211-12.167488 24.709798-12.167488s19.566283 4.851705 24.709799 12.167488z" fill="url(#bg)" opacity=".733607"/><path d="m86.183322 47.010395c-.04189-.07264-.09156-.1368-.134228-.20896.0442.06872.09073.13977.134228.20896zm-42.88585 0c.0435-.06919.09003-.14024.134233-.20896-.04267.07216-.09234.13632-.134233.20896zm42.684507-.35363c-4.227966-7.041427-12.159186-11.782245-21.241581-11.782245-9.082393 0-17.013613 4.740818-21.24158 11.782245 4.421583-6.774887 12.292202-11.267879 21.24158-11.267879s16.819999 4.492992 21.241581 11.267879z" fill="url(#bh)" opacity=".733607"/><path d="m82.582199 49.411145c-.03495-.06241-.0764-.11753-.111999-.17953.03688.05905.07571.12009.111999.17953zm-35.783635 0c.03629-.05944.07512-.12048.112003-.17953-.0356.062-.07705.11712-.112003.17953zm35.615636-.30381c-3.527784-6.04944-10.145535-10.122369-17.723817-10.122369s-14.196033 4.072929-17.723817 10.122369c3.689336-5.82045 10.256522-9.680466 17.723817-9.680466 7.467294 0 14.034482 3.860016 17.723817 9.680466z" fill="url(#bi)" opacity=".733607"/><path d="m79.3812 51.911925c-.02792-.05546-.06102-.10445-.08946-.15954.02946.05247.06047.10671.08946.15954zm-28.581388 0c.02899-.05283.06-.10707.08946-.15954-.02844.05509-.06154.10408-.08946.15954zm28.447203-.27c-2.81774-5.37609-8.103523-8.99568-14.156508-8.99568s-11.338768 3.61959-14.156507 8.99568c2.946775-5.17259 8.19217-8.60297 14.156507-8.60297 5.964336 0 11.209733 3.43038 14.156508 8.60297z" fill="url(#bj)" opacity=".733607"/><path d="m72.178954 56.313295c-.01453-.02803-.03176-.05278-.04656-.08063.01533.02652.03148.05394.04656.08063zm-14.877113 0c.01509-.02669.03123-.05411.04657-.08063-.0148.02785-.03203.0526-.04657.08063zm14.807268-.13644c-1.466683-2.71687-4.218026-4.54607-7.368711-4.54607s-5.902027 1.8292-7.36871 4.54607c1.533848-2.61403 4.264168-4.34761 7.36871-4.34761s5.834862 1.73358 7.368711 4.34761z" fill="url(#bk)" opacity=".733607"/><path d="m75.880109 53.812515c-.02127-.04103-.0465-.07727-.06817-.11803.02245.03882.04608.07895.06817.11803zm-21.779266 0c.02209-.03908.04572-.07921.06817-.11803-.02167.04076-.0469.077-.06817.11803zm21.677017-.19975c-2.147143-3.97734-6.174956-6.65519-10.787383-6.65519-4.612428 0-8.64024 2.67785-10.787382 6.65519 2.245468-3.82679 6.242505-6.36465 10.787382-6.36465s8.541913 2.53786 10.787383 6.36465z" fill="url(#bl)" opacity=".733607"/></g><g opacity=".286885" transform="translate(-.565862 .282931)"><path d="m110.87207 31.359847c-.0893-.161616-.19517-.304391-.28613-.464954.0942.152925.19341.311012.28613.464954zm-91.417156 0c.09271-.153942.1919-.312029.28612-.464954-.09096.160563-.19683.303338-.28612.464954zm90.987966-.786846c-9.0125-15.667623-25.919003-26.2162627-45.279385-26.2162627-19.360383 0-36.266889 10.5486397-45.279401 26.2162627 9.425236-15.074563 26.202557-25.0717527 45.279401-25.0717527s35.854165 9.9971897 45.279385 25.0717527z" fill="url(#ba)" opacity=".733607"/><path d="m107.64845 33.466315c-.0834-.150981-.18233-.28436-.2673-.434357.088.142862.18068.290546.2673.434357zm-85.401196 0c.08661-.143811.17929-.291495.2673-.434357-.08498.149997-.18388.283376-.2673.434357zm85.000246-.735065c-8.419412-14.636582-24.213336-24.4910317-42.299657-24.4910317-18.086322 0-33.880242 9.8544497-42.299649 24.4910317 8.804959-14.082532 24.478207-23.4218417 42.299649-23.4218417s33.494685 9.3393097 42.299657 23.4218417z" fill="url(#bb)" opacity=".733607"/><path d="m104.4056 36.125477c-.0767-.138787-.1676-.261396-.24571-.399281.0809.131326.16609.267083.24571.399281zm-78.504706 0c.07962-.132198.1648-.267955.24572-.399281-.07812.137885-.16904.260494-.24572.399281zm78.136136-.675706c-7.739508-13.454618-22.258008-22.513283-38.883785-22.513283s-31.144276 9.058666-38.883781 22.513283c8.093929-12.945319 22.501494-21.530433 38.883781-21.530433 16.382289 0 30.789854 8.585114 38.883785 21.530433z" fill="url(#bc)" opacity=".733607"/><path d="m100.79669 37.867376c-.0695-.125862-.15199-.23705-.22283-.362091.0734.119094.15063.242206.22283.362091zm-71.192614 0c.07221-.119885.14946-.242997.222835-.362091-.07084.125041-.153293.236229-.222835.362091zm70.858374-.612769c-7.01863-12.201428-20.184845-20.416349-35.262065-20.416349-15.077217 0-28.243433 8.214922-35.262067 20.416349 7.340046-11.739565 20.405662-19.525049 35.262067-19.525049 14.856408 0 27.922024 7.785484 35.262065 19.525049z" fill="url(#bd)" opacity=".733607"/><path d="m96.613957 39.864115c-.06169-.11165-.134832-.210283-.197666-.321206.06509.105646.133615.214858.197666.321206zm-63.154077 0c.06405-.106348.132583-.21556.197673-.321206-.06284.110923-.135981.209556-.197673.321206zm62.857579-.543579c-6.226141-10.823734-17.905727-18.111084-31.280539-18.111084-13.37481 0-25.054396 7.287351-31.280538 18.111084 6.511262-10.414022 18.101606-17.320425 31.280538-17.320425 13.178933 0 24.769278 6.906403 31.280539 17.320425z" fill="url(#be)" opacity=".733607"/><path d="m93.335553 42.119585c-.05528-.09552-.120825-.1799-.177132-.27479.05832.09038.119734.18381.177132.27479zm-56.593697 0c.0574-.09098.11881-.18441.177139-.27479-.05631.09489-.121856.17927-.177139.27479zm56.327998-.46503c-5.579375-9.259545-16.045697-15.493767-28.031148-15.493767-11.98545 0-22.451772 6.234223-28.031148 15.493767 5.834879-8.909042 16.221229-14.81737 28.031148-14.81737s22.196271 5.908328 28.031148 14.81737z" fill="url(#bf)" opacity=".733607"/><path d="m89.684414 44.109485c-.04873-.07843-.106509-.14772-.156144-.22564.05141.07421.105548.15094.156144.22564zm-49.888034 0c.0506-.0747.104733-.15143.15615-.22564-.04964.07792-.107418.14721-.15615.22564zm49.653817-.38186c-4.918287-7.603603-14.144477-12.72292-24.709799-12.72292-10.56532 0-19.79151 5.119317-24.709798 12.72292 5.143517-7.315783 14.299211-12.167488 24.709798-12.167488s19.566283 4.851705 24.709799 12.167488z" fill="url(#bg)" opacity=".733607"/><path d="m86.183322 47.010395c-.04189-.07264-.09156-.1368-.134228-.20896.0442.06872.09073.13977.134228.20896zm-42.88585 0c.0435-.06919.09003-.14024.134233-.20896-.04267.07216-.09234.13632-.134233.20896zm42.684507-.35363c-4.227966-7.041427-12.159186-11.782245-21.241581-11.782245-9.082393 0-17.013613 4.740818-21.24158 11.782245 4.421583-6.774887 12.292202-11.267879 21.24158-11.267879s16.819999 4.492992 21.241581 11.267879z" fill="url(#bh)" opacity=".733607"/><path d="m82.582199 49.411145c-.03495-.06241-.0764-.11753-.111999-.17953.03688.05905.07571.12009.111999.17953zm-35.783635 0c.03629-.05944.07512-.12048.112003-.17953-.0356.062-.07705.11712-.112003.17953zm35.615636-.30381c-3.527784-6.04944-10.145535-10.122369-17.723817-10.122369s-14.196033 4.072929-17.723817 10.122369c3.689336-5.82045 10.256522-9.680466 17.723817-9.680466 7.467294 0 14.034482 3.860016 17.723817 9.680466z" fill="url(#bi)" opacity=".733607"/><path d="m79.3812 51.911925c-.02792-.05546-.06102-.10445-.08946-.15954.02946.05247.06047.10671.08946.15954zm-28.581388 0c.02899-.05283.06-.10707.08946-.15954-.02844.05509-.06154.10408-.08946.15954zm28.447203-.27c-2.81774-5.37609-8.103523-8.99568-14.156508-8.99568s-11.338768 3.61959-14.156507 8.99568c2.946775-5.17259 8.19217-8.60297 14.156507-8.60297 5.964336 0 11.209733 3.43038 14.156508 8.60297z" fill="url(#bj)" opacity=".733607"/><path d="m72.178954 56.313295c-.01453-.02803-.03176-.05278-.04656-.08063.01533.02652.03148.05394.04656.08063zm-14.877113 0c.01509-.02669.03123-.05411.04657-.08063-.0148.02785-.03203.0526-.04657.08063zm14.807268-.13644c-1.466683-2.71687-4.218026-4.54607-7.368711-4.54607s-5.902027 1.8292-7.36871 4.54607c1.533848-2.61403 4.264168-4.34761 7.36871-4.34761s5.834862 1.73358 7.368711 4.34761z" fill="url(#bk)" opacity=".733607"/><path d="m75.880109 53.812515c-.02127-.04103-.0465-.07727-.06817-.11803.02245.03882.04608.07895.06817.11803zm-21.779266 0c.02209-.03908.04572-.07921.06817-.11803-.02167.04076-.0469.077-.06817.11803zm21.677017-.19975c-2.147143-3.97734-6.174956-6.65519-10.787383-6.65519-4.612428 0-8.64024 2.67785-10.787382 6.65519 2.245468-3.82679 6.242505-6.36465 10.787382-6.36465s8.541913 2.53786 10.787383 6.36465z" fill="url(#bl)" opacity=".733607"/></g></g><circle cx="52.18182" cy="44.909092" fill="url(#bF)" opacity=".159836" r="42.988293" transform="matrix(1.400964 0 0 1.400964 -10.24782 -2.576398)"/><circle cx="52.18182" cy="44.909092" fill="url(#bF)" opacity=".196721" r="42.988293" transform="matrix(-1.400964 0 0 1.400964 135.9619 -2.576398)"/><path d="m40.9375 19.34375c-1.378982.08425-2.721284.544956-3.875 1.3125-5.160376 3.349464-9.759998 7.797045-13.40625 13.1875-7.292501 10.780907-9.542508 23.591287-7.25 35.46875 2.292507 11.877459 9.156596 22.92625 19.9375 30.21875 10.780909 7.2925 23.591285 9.54251 35.46875 7.25 11.877462-2.29251 22.957499-9.156596 30.25-19.9375 7.2925-10.780908 9.5425-23.591289 7.25-35.46875-2.29251-11.877462-9.1566-22.926249-19.9375-30.21875-3.589851-2.433505-8.472745-1.496101-10.90625 2.09375s-1.496101 8.472745 2.09375 10.90625c7.265039 4.914273 11.806943 12.22532 13.34375 20.1875 1.536801 7.962181.07052 16.45371-4.84375 23.71875-4.914272 7.265039-12.25657 11.775693-20.21875 13.3125-7.962182 1.536807-16.453709.070523-23.71875-4.84375-7.265032-4.914268-11.775693-12.225313-13.3125-20.1875-1.536806-7.962178-.070519-16.453715 4.84375-23.71875 2.457137-3.632522 5.528356-6.579432 8.96875-8.8125 2.968319-1.884093 4.32342-5.507692 3.3125-8.875-1.01092-3.367307-4.141021-5.656122-7.65625-5.59375-.117417.0019-.226887-.0071-.34375 0zm21.4375 21c-1.937828.12532-3.767515.973547-5.125 2.375-1.447987 1.494885-2.253965 3.512862-2.21875 5.59375-.000001 1.266966 0 24.0625 0 24.0625-.137593 2.885743 1.33379 5.609689 3.8125 7.09375 2.478711 1.484059 5.55254 1.484061 8.03125 0 2.478713-1.484063 3.950093-4.208007 3.8125-7.09375 0 0-.000001-22.795621 0-24.0625.0358-2.118777-.785781-4.154894-2.28125-5.65625-1.495467-1.501357-3.537348-2.339972-5.65625-2.3125-.13006.0019-.245811-.0084-.375 0z" style="stroke:#000;stroke-width:1.25;stroke-linecap:round;stroke-linejoin:round;stroke-dashoffset:4;fill:url(#bm)"/><path d="m89.052758 110.33731c26.785322-14.518407 37.555672-47.163881 24.027312-73.553304-3.14854-6.141789-7.35212-11.402152-12.28011-15.71269 4.52788 4.044347 8.37165 8.938861 11.28913 14.629954 13.10314 25.559983 2.28328 57.263399-24.150142 70.76265-26.43342 13.49924-58.52431 3.70984-71.62745-21.850166-13.1031401-25.559981-2.28327-57.263416 24.15015-70.762653 12.49392-6.3804956 26.24736-7.5430084 38.66594-4.3120456-13.18727-3.5932708-27.85892-2.4715398-41.17286 4.3277346-27.72441 14.158522-39.0726101 47.410003-25.32951 74.218317 13.74309 26.808323 47.40094 37.075733 75.12534 22.917223.4332-.22125.87703-.43458 1.3022-.66502zm-8.99754-100.5586372c-.30005-.087287-.59939-.1708794-.90105-.2531907.3006.07834.60207.1696947.90105.2531907z" fill="url(#bn)"/><path d="m60.886675 3.5011061c-29.89208.9502752-53.8752203 25.5823459-53.8752103 55.7831859 0 15.796568 6.5792803 30.076913 17.1118103 40.23189 36.09494-11.89455 47.09084-57.422611 84.955855-71.051156-9.971155-15.052808-27.054015-24.9639199-46.414605-24.9639199-.60001 0-1.18239-.018932-1.77785 0z" fill="url(#bo)" opacity=".576744"/></g><circle cx="177.4838" cy="65.774605" fill="#060606" filter="url(#bp)" opacity=".549451" r="17.67767" transform="matrix(.09696601 0 0 .08861768 24.661636 22.490167)"/><circle cx="177.4838" cy="65.774605" fill="url(#bq)" r="17.67767" transform="matrix(.09696601 0 0 .08861768 24.661636 22.312932)"/><path d="m39.300322-35.286896h42.853328c.830929 0 1.49986.276828 1.49986.620689 0 .343862-.668931.620689-1.49986.620689-12.462755 4.039023-29.904676-.352285-42.853328 0-.830917 0-1.49986-.276827-1.49986-.620689 0-.343861.668943-.620689 1.49986-.620689z" fill="url(#br)"/><path d="m-65.073967-36.296818h3.664685v90.248672h-3.664685z" fill="url(#bs)" opacity=".29304" transform="scale(-1 1)"/><path d="m62 112h-2v-96" fill="none" filter="url(#bu)" stroke="url(#bt)" stroke-width=".5" transform="matrix(.8570664 0 0 .8275862 9.302996 -39.631724)"/><rect height="84.635422" rx=".307557" ry=".197405" width="1.712497" x="60.728603" y="-31.577486"/><rect height="84.635422" rx=".307557" ry=".197405" width="1.712497" x="60.728603" y="-31.577486"/><rect fill="url(#bv)" height="84.635422" opacity=".717949" rx=".133405" ry=".197405" width=".742805" x="60.957096" y="-31.577486"/><path d="m60.728492-23.070634v9.921667h1.712629v-9.921667z" fill="url(#bw)"/><path d="m642.40625 286.75v72.375h5.90625v-72.375z" fill="url(#by)" filter="url(#bz)" opacity=".465201" transform="matrix(.5804454 0 0 .1370868 -313.01185 -62.380323)"/><path d="m60.728492 46.267957v7.525282h1.712629v-7.525282z" fill="url(#bA)"/><path d="m59.301763 96.79545v16.09305h3.398237v-16.09305z" fill="url(#bC)" filter="url(#bD)" opacity=".549451" transform="matrix(.8570664 0 0 .8275862 9.302996 -39.631724)"/><path d="m60.746296-36.321381h.65736v7.234418h-.65736z" fill="#060606" opacity=".791209"/><path d="m39.306418 57.952849h42.853316c.830928 0 1.499871-.276824 1.499871-.620692 0-.343854-.668943-.620679-1.499871-.620679-12.611829-3.8129-30.677021-2.907232-42.853316 0-.830929 0-1.499872.276825-1.499872.620679 0 .343868.668943.620692 1.499872.620692z" fill="url(#bE)" opacity=".479853"/></g></svg>