<svg height="16" width="16" xmlns="http://www.w3.org/2000/svg" xmlns:xlink="http://www.w3.org/1999/xlink"><filter id="a"><feGaussianBlur stdDeviation="2.0786429"/></filter><radialGradient id="b" cx="108" cy="128.54001" gradientTransform="matrix(.98281247 0 0 .98248353 -1.799998 11.962339)" gradientUnits="userSpaceOnUse" r="139.55859"><stop offset="0" stop-color="#b7b8b9"/><stop offset=".18851049" stop-color="#ececec"/><stop offset=".25718147" stop-color="#fafafa"/><stop offset=".30111277" stop-color="#fff"/><stop offset=".5313" stop-color="#fafafa"/><stop offset=".8449" stop-color="#ebecec"/><stop offset="1" stop-color="#e1e2e3"/></radialGradient><g transform="scale(.125)"><path d="m3.9650279 21.75119.034971 86.469h117.9650211l-.035-86.469z" filter="url(#a)" opacity=".758364" transform="matrix(.98281249 0 0 .98281249 2.131251 .657034)"/><path d="m7.993755 24 .03437 80.06875h111.177005l.82924-.82925-.03437-79.2395z" fill="#fff" stroke-width=".982812"/><path d="m16.839067 31.8625c-.541529 0-.983106.441465-.982812.982812l.03437 63.360938h95.052735c1.14219.0349 1.22864-1.5726 1.22851-1.81206l-.0344-61.548878c-.0003-.541347-.4403-.982812-.98281-.982812z" fill="url(#b)" stroke-width=".982812"/><path d="m48.526049 57.049303q.0629-4.088646 1.069338-7.170856 1.069338-3.08221 2.578992-4.780571 1.572556-1.761262 3.711232-2.830601 2.138677-1.069338 3.962842-1.383849 1.887067-.377413 3.962841-.377413 6.919247 0 11.259502 4.025743 4.403157 4.025744 4.403157 10.441773 0 3.962841-1.572556 6.541833-1.572556 2.578992-5.975713 5.661202-2.830601 2.012872-3.522526 3.208015-.691925 1.195142-.691925 4.277352h-7.799878v-.880631q0-3.145112 1.069338-5.472495 1.132241-2.390286 2.704797-3.837037 1.572556-1.446752 3.145112-2.704797 1.572556-1.258045 2.641894-2.893503 1.132241-1.635458 1.132241-3.711232 0-3.08221-1.887068-5.157984-1.887067-2.075775-4.717668-2.075775-2.956406 0-4.969277 2.390286-1.94997 2.390285-1.94997 6.038615v.56612.125805zm20.19162 21.072252v9.183728h-9.435336v-9.183728z" fill="#5c5c5c" stroke-width="1.572556"/></g></svg>