<svg height="24" viewBox="0 0 24 24" width="24" xmlns="http://www.w3.org/2000/svg" xmlns:xlink="http://www.w3.org/1999/xlink"><linearGradient id="a" gradientUnits="userSpaceOnUse" x1="12" x2="11" y1="23" y2="1"><stop offset="0" stop-color="#ededed"/><stop offset="1" stop-color="#f4f4f4"/></linearGradient><filter id="b" color-interpolation-filters="sRGB" height="1.048" width="1.048" x="-.024" y="-.024"><feGaussianBlur stdDeviation=".2375"/></filter><filter id="c" color-interpolation-filters="sRGB" height="1.024" width="1.024" x="-.012" y="-.012"><feGaussianBlur stdDeviation=".1"/></filter><filter id="d" color-interpolation-filters="sRGB" height="1.048" width="1.048" x="-.024" y="-.024"><feGaussianBlur stdDeviation=".16078125"/></filter><linearGradient id="e" gradientUnits="userSpaceOnUse" x1="12.964234" x2="13.928469" y1="5.250359" y2="19.713875"><stop offset="0" stop-color="#80b3ff"/><stop offset="1" stop-color="#0000bf"/></linearGradient><linearGradient id="f" gradientUnits="userSpaceOnUse" x1="11" x2="11.5" y1="1" y2="13.5"><stop offset="0" stop-color="#e4eefb"/><stop offset="1" stop-color="#e4eefb" stop-opacity="0"/></linearGradient><filter id="g" color-interpolation-filters="sRGB" height="1.072" width="1.072" x="-.036" y="-.036"><feGaussianBlur stdDeviation=".15390611"/></filter><circle cx="12" cy="12" fill="#181818" filter="url(#b)" opacity=".85" r="11.875"/><circle cx="12" cy="12" fill="url(#a)" r="11.5"/><circle cx="12" cy="12" fill="#fff" filter="url(#c)" r="10"/><circle cx="12" cy="12" fill="#0a0d7f" r="9.1875"/><circle cx="12" cy="12" fill="url(#e)" filter="url(#d)" r="8.039063" transform="matrix(1.0370923 0 0 1.0370923 -.445107 -.445107)"/><circle cx="12" cy="12" fill="#8b7800" filter="url(#g)" opacity=".81" r="5.130204"/><circle cx="12" cy="12" fill="#fd0" r="4.997621"/><circle cx="12" cy="12" fill="#ff7e00" r="3.002384"/><circle cx="12" cy="12" fill="#bf0000" r="2.008015"/><path d="m12 4.2539062a7.7468696 7.7468696 0 0 0 -7.7460938 7.7460938 7.7468696 7.7468696 0 0 0 .0527344.820312c4.783965-.519445 10.4670424-1.389562 15.2910154-2.300781a7.7468696 7.7468696 0 0 0 -7.597656-6.2656248z" fill="url(#f)"/><path d="m18.970703.50390625a.99716573.99716573 0 0 0 -.767578.3984375l-3 4.00000005a.99716573.99716573 0 0 0 -.199219.5976562v1.5878906l-4.208984 4.2070314a.99716573.99716573 0 0 0 0 1.410156l.5.5a.99716573.99716573 0 0 0 1.373047.03516l4.714843-4.2441442h1.617188a.99716573.99716573 0 0 0 .597656-.1992188l4-3a.99716573.99716573 0 0 0 -.597656-1.7929688h-3.003906v-2.5039062a.99716573.99716573 0 0 0 -1.025391-.99609375z" fill="#585858"/><path d="m12 12.5 5-4.5h2l4-3h-4v-3.5l-3 4v2l-4.5 4.5z" fill="#f2f2f2"/></svg>