<svg height="32" width="32" xmlns="http://www.w3.org/2000/svg" xmlns:xlink="http://www.w3.org/1999/xlink"><linearGradient id="a"><stop offset="0" stop-color="#c8c8c8"/><stop offset="1" stop-color="#c8c8c8" stop-opacity="0"/></linearGradient><radialGradient id="b" cx="90.750004" cy="110.252967" gradientUnits="userSpaceOnUse" r="24.501278" xlink:href="#c"/><linearGradient id="c"><stop offset="0" stop-color="#fff"/><stop offset="1" stop-color="#fff" stop-opacity="0"/></linearGradient><clipPath id="d"><path d="m112 82.502986c0 4.465301-2.79749 6.409952-5.27972 8.093625-5.10854 3.46508-14.939114 3.32536-20.720284 3.40638-.081 5.781159.16586 15.504599-3.29922 20.613139-1.68367 2.48224-5.29051 5.38687-8.20078 5.38687 2.31803 0 4.74284-1.33476 7.58402-4.08481 9.14197-8.84873 17.36714-16.13535 25.673154-25.297529 1.91895-2.116745 4.24283-3.641881 4.24283-8.117675z"/></clipPath><filter id="e" color-interpolation-filters="sRGB"><feGaussianBlur stdDeviation=".43040059"/></filter><linearGradient id="f" gradientTransform="matrix(1.3731411 0 0 1.4035776 -41.378546 -43.42319)" gradientUnits="userSpaceOnUse" x1="82.15696" x2="94.220871" y1="90.381706" y2="102.18401"><stop offset="0" stop-color="#fcfcfc"/><stop offset=".52275378" stop-color="#f8f8f8"/><stop offset=".72337759" stop-color="#f0efef"/><stop offset=".89024991" stop-color="#e3e1e1"/><stop offset="1" stop-color="#cecbcb"/></linearGradient><clipPath id="g"><path d="m17.000001 8 .782827 110h57.5c1.675283 0 3.119418.18058 4.9-1.6 8.797935-8.79794 19.757642-19.851805 27.016212-27.175957 2.44056-2.462612 2.80096-4.47117 2.80096-6.724043v-74.5z"/></clipPath><radialGradient id="h" cx="64" cy="64.004021" fx="63.793392" fy="47.274845" gradientTransform="matrix(1.7069944 -.08541345 .06979496 1.3941371 -50.362376 -20.218185)" gradientUnits="userSpaceOnUse" r="47.5" xlink:href="#c"/><filter id="i" color-interpolation-filters="sRGB" height="2.025501" width="1.957419" x="-.478709" y="-.512751"><feGaussianBlur stdDeviation="10.140743"/></filter><linearGradient id="j" gradientTransform="matrix(1.013528 0 0 1.013266 -1.513369 -1.307365)" gradientUnits="userSpaceOnUse" x1="72" x2="72" y1="0" y2="116.40091"><stop offset="0" stop-color="#eeecec"/><stop offset=".40000001" stop-color="#f4f4f4"/><stop offset="1" stop-color="#f6f5f5"/></linearGradient><filter id="k"><feGaussianBlur stdDeviation="2.028"/></filter><filter id="l" height="1.408259" width="1.329301" x="-.164651" y="-.20413"><feGaussianBlur stdDeviation="4.2234282"/></filter><filter id="m"><feGaussianBlur stdDeviation="1.4598961"/></filter><linearGradient id="n" gradientUnits="userSpaceOnUse" x1="28" x2="48" y1="74" y2="74"><stop offset="0" stop-color="#e0e0e0"/><stop offset="1" stop-color="#d4d4d4"/></linearGradient><linearGradient id="o" gradientUnits="userSpaceOnUse" x1="48" x2="48" xlink:href="#a" y1="112" y2="124"/><linearGradient id="p" gradientUnits="userSpaceOnUse" x1="28" x2="28" xlink:href="#a" y1="112" y2="124"/><linearGradient id="q" gradientTransform="matrix(-.00000006 1.071378 -1.3223767 -.00000005 72.858664 -69.156133)" gradientUnits="userSpaceOnUse" x1="173.99409" x2="173.99409" xlink:href="#s" y1="38.901901" y2="35.901901"/><linearGradient id="r"><stop fill="none" offset="0" stop-color="#4e3e27"/><stop fill="none" offset="1" stop-color="#816840"/></linearGradient><linearGradient id="s" gradientTransform="matrix(-.00000005 1 -1 -.00000005 42 -70.0005)" gradientUnits="userSpaceOnUse" x1="86" x2="86" xlink:href="#r" y1="31.9995" y2="29.9995"/><linearGradient id="t" gradientTransform="matrix(-.00000006 1.071378 -1.3223767 -.00000005 72.858664 -69.769755)" gradientUnits="userSpaceOnUse" x1="154.08009" x2="154.08009" xlink:href="#s" y1="38.964401" y2="35.964401"/><linearGradient id="u" gradientTransform="matrix(-.00000006 1.071378 -1.3223767 -.00000005 72.737894 -69.974296)" gradientUnits="userSpaceOnUse" x1="134.0137" x2="134.0137" xlink:href="#s" y1="38.964401" y2="35.964401"/><linearGradient id="v" gradientTransform="matrix(-.00000006 1.071378 -1.3223767 -.00000005 72.737894 -71.887918)" gradientUnits="userSpaceOnUse" x1="114.0479" x2="114.0479" xlink:href="#s" y1="38.901901" y2="35.901901"/><linearGradient id="w" gradientTransform="matrix(-.00000006 1.071378 -1.3223767 -.00000005 72.617124 -70.997)" gradientUnits="userSpaceOnUse" x1="93.830101" x2="93.830101" xlink:href="#s" y1="38.5513" y2="35.964401"/><linearGradient id="x" gradientTransform="matrix(-.00000006 1.071378 -1.3223767 -.00000005 73.100204 -69.797)" gradientUnits="userSpaceOnUse" x1="74.001999" x2="74.001999" xlink:href="#r" y1="38.799301" y2="35.901901"/><linearGradient id="y" gradientTransform="matrix(-.00000005 1 -1 -.00000005 42 -70.0005)" gradientUnits="userSpaceOnUse" x1="126" x2="126" y1="30.0005" y2="34.0005"><stop offset="0" stop-color="#ddc98f"/><stop offset="1" stop-color="#f4eab9"/></linearGradient><linearGradient id="z" gradientTransform="matrix(-.00000006 1.071378 -1.3418571 -.00000005 68.357996 -70.997002)" gradientUnits="userSpaceOnUse" x1="126" x2="126" y1="41.9995" y2="29.9995"><stop offset="0" stop-color="#a58b5a"/><stop offset=".5444" stop-color="#c5ab6d"/></linearGradient><filter id="A" color-interpolation-filters="sRGB" height="1.027184" width="1.29359" x="-.146795" y="-.013592"><feGaussianBlur stdDeviation=".61164653"/></filter><radialGradient id="B" cx="102" cy="112.3047" gradientTransform="matrix(.5846529 0 0 .5190255 23.045068 -12.698347)" gradientUnits="userSpaceOnUse" r="139.55859" xlink:href="#C"/><linearGradient id="C"><stop offset="0" stop-color="#f082b0"/><stop offset="1" stop-color="#e85290"/></linearGradient><linearGradient id="D" gradientTransform="matrix(.5846528 0 0 .5190255 30.11937 -12.698347)" gradientUnits="userSpaceOnUse" x1="72.703102" x2="91.985603" xlink:href="#C" y1="53.358898" y2="72.641403"/><linearGradient id="E" gradientTransform="matrix(.9461857 0 0 .3693188 3.912473 -3.266902)" gradientUnits="userSpaceOnUse" x1="54.5298" x2="72.467102" xlink:href="#C" y1="54.024399" y2="71.9617"/><g transform="matrix(.25 0 0 .25 0 -.013695)"><path d="m13.333 5.3364v118.3304l49.8545-.0668c2.115554-.003 4.528919-1.77169 7-4.25.71234-.71442 1.440746-1.39395 2.15625-2.09375.415612-.40649.832187-.81443 1.25-1.21875 7.773958-7.40962 26.98341-25.122599 34.21875-33.099999.42065-.42064.81207-.8111 1.15625-1.1875 1.46444-1.49766 2.76158-2.8378 2.99375-5.8625l.0375-.73125-.0028-69.819851z" filter="url(#k)" opacity=".456067" transform="matrix(1.013528 0 0 1.013266 -1.513369 -1.307368)"/><path d="m13.246094 4.84375c-.208011.048165-.401122.2851257-.400391.4980469a.31469455.31469455 0 0 1 0 .00195v118.30664c.0043.23765.266208.49961.503906.50391h48.806641c1.805649 0 3.560459.28929 6.349609-1.59766.03711-.0388.07201-.0851.121094-.12891.08359-.0745.188131-.16299.306641-.25976.23702-.19354.528336-.42124.792968-.62891.217665-.17081.382332-.30341.513672-.41015a.31469455.31469455 0 0 1 .07422-.10743c9.63616-9.15378 27.613554-28.820625 38.804687-40.148433a.31469455.31469455 0 0 1 .002-.002c1.72022-1.720217 3.37696-3.28053 3.37696-7.558594v-67.9628405c-.004361-.2376834-.266301-.4996119-.503961-.5039063h-98.65039a.31469455.31469455 0 0 1 -.0293-.00195c-.0225-.00213-.04572-.0008527-.06836 0z" filter="url(#m)" transform="matrix(1.013528 0 0 1.013266 -1.513369 -1.307368)"/><path d="m12 4v120h49.999784c1.697965 0 3.967298-.57754 7.094784-3.68191 8.990151-8.92376 32.510002-32.235741 39.866862-39.726545 2.47359-2.518643 3.04157-4.572903 3.04157-6.87703l-.003-69.714515z" fill="#fff"/><path d="m15.506762 7c-.34444 0-.506762.2377304-.506762.5066333v111.9734567c0 .83248.688512 1.5205 1.520292 1.51991l44.959416-.0317c.05379-.00004.821348.0237 1.520292.0317 1.801712-.0406 3.174343-.76374 4.414963-1.61442 1.066096-.29489 30.125502-28.688123 39.369997-37.999684 1.38084-1.390828 2.21504-4.000546 2.21504-4.960555v-68.9187078c0-.3269982-.16543-.5066332-.50677-.5066332z" fill="url(#j)"/><path d="m15.506762 7c-.34444 0-.506762.2377304-.506762.5066333v111.9734567c0 .83249.688527 1.51486 1.520292 1.51991l46.845657.2846c.05379.00033 3.318172-.008 4.017117.00005 6.629458-4.5634 31.077115-31.337425 40.143354-40.458653.66623-.74707.46379-.37498 1.47358-1.628786v-71.6905778c0-.3269982-.16543-.5066332-.50677-.5066332z" fill="url(#h)" opacity=".846535"/><g transform="translate(4 4.05478)"><path d="m24 80h72v4h-72z" fill="#c8c8c8"/><path d="m100-78h4v57.999977h-4z" fill="#b8b8b8" transform="scale(1 -1)"/><path d="m28 96h47.9375v4h-47.9375z" fill="#c8c8c8"/><path d="m28 36h20v76h-20z" fill="url(#n)" opacity=".539906"/><path d="m24.0625 20h3.9375v98h-3.9375z" fill="url(#p)"/><g fill="#b8b8b8"><path d="m24.0625 20h79.9375v4h-79.9375z"/><path d="m24.0625 32h79.9375v4h-79.9375z"/><path d="m24.0625 48h79.9375v4h-79.9375z"/></g><path d="m24 64h79.9375v4h-79.9375z" fill="#c8c8c8"/><path d="m44 20h4v98h-4z" fill="url(#o)"/><path d="m72 20h3.9375v76h-3.9375z" fill="#c8c8c8"/><path d="m76 24h24v8h-24z" fill="#c8d4e6"/><path d="m48 24h24v8h-24z" fill="#b0d1ff"/><path d="m28 36h16v12h-16z" fill="#b0d1ff"/><g fill="#65a1ff"><path d="m44 20h4v32h-4z"/><path d="m24 32h4v20h-4z"/><path d="m72 20h4v16h-4z"/><g transform="rotate(90)"><path d="m20-72h4v24h-4z"/><path d="m32-72h4v44h-4z"/><path d="m48-44h4v16h-4z"/></g></g><path d="m72 36h4v16h-4z" fill-opacity=".451429"/><path d="m48 48h28v4h-28z" fill-opacity=".451429"/><path d="m72 48h8v8h-8z" fill="#555"/><g transform="matrix(1.0437701 0 0 1.3047126 -3.326528 -12.135414)"><path d="m52.000002 28-12-6.63678v-2.725921l12-6.63678v3.432316l-8.38626 4.57521 8.38626 4.559639z" fill="url(#B)"/><path d="m88 21.36322-12 6.63678v-3.432316l8.372229-4.567424-8.372229-4.567425v-3.432835l12 6.637299z" fill="url(#D)"/><path d="m72 12-11.536842 16h-4.463158l11.512241-16z" fill="url(#E)"/></g></g><path clip-path="url(#g)" d="m114.4 82.502986c0 4.465301-6.19771 3.506816-8.67994 5.190489-5.10854 3.46508-20.174689 2.225237-25.955859 2.306257-.081 5.781159.786541 16.143798.786541 22.293818 0 2.97817-3.440475 11.20945-6.350745 11.20945-2.091359 1.5337 3.488204 8.21101 6.734971 5.31989 9.501888-8.46107 35.131682-30.022704 43.350822-39.262889 2.04044-2.29392-4.90514-9.844666-9.88579-7.057015z" filter="url(#i)" opacity=".34728" transform="matrix(1.2713893 0 0 1.3008089 -31.411352 -31.072453)"/><path clip-path="url(#g)" d="m113.9 82.502986c0 4.465301-7.96273 11.129672-10.95287 11.553449-6.394981.906328-15.824979-3.47754-21.606149-3.39652-.081 5.781159 3.918356 18.962455.453276 24.070995-1.68367 2.48224-3.883991 8.07209-6.794261 8.07209-2.091359 1.5337 3.488204 11.21101 6.734971 8.31989 9.501888-8.46107 45.998943-30.20138 54.218083-39.441569 2.04044-2.29392-17.0724-11.965986-22.05305-9.178335z" filter="url(#l)" opacity=".492958" transform="matrix(1.323697 0 0 1.3543271 -37.27081 -37.383179)"/><path d="m111.80692 72.373791c0 6.193164-3.79585 8.890306-7.16393 11.225476-6.931674 4.805908-21.198649 3.788362-29.04299 3.900733-.109909 8.0182.701692 21.4147-4 28.5-2.284534 3.44276-6.727129 8.38457-10.67601 8.38457 3.145284 0 6.435454-1.85125 10.290589-5.66544 12.404537-12.27278 23.56509-22.378984 34.835341-35.086504 2.60379-2.935824 5.757-5.051122 5.757-11.258835z" fill="url(#f)"/><path d="m111.83234 71.941762c-.42932 5.407885-4.39696 7.298568-6.55729 8.796367-5.122 3.551191-11.925937 3.261871-33.27505 3.261871 0 19.65502.5 28.4-3.219913 33.20293-2.21447 2.85919-6.648335 6.04727-10.26176 6.86542 4.951272 0 8.407066-1.08166 11.641616-4.28186.460141-.53889 1.37925-1.54169 2.101048-2.68043 3.839187-5.78555 3.739009-17.201707 3.739009-29.10606 7.844341-.112342 21.630842 1.155905 28.5625-3.65.63154-.437847 2.56984-2.009889 3.13546-2.57551 3.14173-3.14173 3.82294-5.144366 4.13438-9.832728zm-53.314013 52.126588c-.213922.0483-.425295.0575-.636038.0866.213019-.0234.421235-.0465.636038-.0866z" fill="#fff"/><path clip-path="url(#d)" d="m108.97651 89.508691-29.041615 28.702079" fill="none" filter="url(#e)" stroke="url(#b)" stroke-width="1.856056" transform="matrix(1.3568778 0 0 1.3869539 -40.163409 -42.054049)"/><path d="m18 11h10.176779v108h-10.176779z" filter="url(#A)" transform="matrix(1.3875024 0 0 1.0912184 -10.234691 -6.932029)"/><path d="m12 4h16.102285v119.99435h-16.102285z" fill="url(#z)"/><path d="m8 1 4-1v112l-4-1z" fill="url(#y)" opacity=".8" transform="matrix(1.0272654 0 0 1.0713781 15.775102 3.999999)"/><path d="m25.624238 9.4822988c0 .3267746-.167942.5871142-.501181.7831772-.334561.196062-.825163.293557-1.473127.293557-.565978 0-1.018231-.09746-1.352792-.292484-.337206-.196062-.505148-.4521269-.505148-.7692471 0-.2324915.0886-.4339131.268444-.6064025.181164-.1724894.420515-.2957048.718049-.3674885.298858-.070669.61755-.1071283.958724-.1071283.571267 0 1.027487.099611 1.371305.2978423.343817.1982001.515726.4542649.515726.7681739zm-.686313.00818c0-.1178462-.100505-.2078442-.30018-.2667725-.198357-.060033-.497213-.089998-.895249-.089998-.420515 0-.736564.029965-.946821.088975-.207613.058908-.313403.1467786-.313403.2635612 0 .1157089.101821.2014217.305468.2592761.202324.057885.509116.085703.916407.085703.41126 0 .719373-.027818.924342-.08468.204968-.05676.309436-.1414298.309436-.2560648z" fill="url(#x)"/><path d="m25.057848 29.521296v.545337h-3.420989v-.634261h2.173987v-.437125h.591102v.10176c0 .133923.04496.23785.136206.312845.08993.07394.226127.111424.405969.111424h.113729z" fill="url(#w)"/><path d="m25.037123 49.376545c.149429.238914.224804.487472.224804.745675 0 .157496-.03438.309634-.103149.455338-.07008.145705-.178522.263562-.327949.356771-.149429.09317-.325306.138208-.524985.138208-.194389 0-.36762-.04398-.517049-.131785-.149428-.08785-.273732-.221774-.375554-.398548-.04761.227132-.148107.398548-.301503.512119-.152073.113561-.358364.170352-.61755.170352-.349107 0-.63474-.102854-.860867-.307487-.226126-.204633-.33985-.471405-.33985-.799253 0-.233556.06877-.48105.203646-.74139h.844998c-.193066.21213-.288278.423195-.288278.629966 0 .1275.05025.235703.150751.324627.100505.08898.22216.133923.366299.133923.137527 0 .249929-.04285.338528-.129638.0886-.08683.130915-.1982.130915-.332123v-.325701h.6678v.214277c0 .124279.03438.226059.10315.306412.07008.08141.165297.121068.292244.121068.116374 0 .211581-.03641.288279-.107138.07537-.07179.1124-.160708.1124-.269984 0-.161782-.09786-.350348-.294889-.565689h.827807z" fill="url(#v)"/><path d="m25.178618 73.590898v.768184h-2.143573v.374974h-.687635v-.374974h-1.135922v-.768184h1.135922v-1.113163h.741853zm-1.137245 0-1.006328-.528186v.528186z" fill="url(#u)"/><path d="m25.299388 94.381972v1.652067h-.736564v-.904245h-.710117c.124304.124279.186456.247484.186456.373911 0 .171416-.100505.335345-.302824.493905-.202323.160708-.502504.238914-.900538.238914-.441675 0-.801361-.102853-1.081705-.311772-.280343-.208918-.420515-.478901-.420515-.812099 0-.217488.07273-.460697.216869-.730681h.876736c-.214225.234629-.321338.443547-.321338.623543 0 .129638.06612.238914.197034.326764.130916.08785.296213.133923.493247.133923.142817 0 .259186-.0225.353074-.07067.09257-.04612.13885-.107139.13885-.177849 0-.07496-.06083-.138208-.179843-.186418v-.64818h2.191178v-.001z" fill="url(#t)"/><path d="m23.711213 116.98241c.129594.0825.226127.16713.289601.25606.06348.089.09521.17999.09521.27213 0 .21856-.12695.40284-.378201.55497-.251252.15214-.551431.22713-.900539.22713-.39539 0-.728629-.0943-.997071-.28391-.271088-.18856-.40597-.42105-.40597-.69533 0-.29248.163974-.54747.493246-.76389.329272-.21748.807973-.32677 1.440068-.32677.362332 0 .698216.045 1.008976.13607.309436.09.558042.23034.744497.42105.187778.18964.280344.41783.280344.68354 0 .18535-.05554.39534-.167942.62997h-.864834c.185132-.20571.276377-.38356.276377-.53355 0-.14464-.07537-.27213-.22216-.38355-.149429-.1125-.379523-.17678-.691604-.19392zm-.81855 0c-.230094.0193-.40597.0579-.526307.11571-.121659.06-.182487.12642-.182487.20141 0 .0697.05554.12964.166619.17786.109756.0482.248607.0707.416549.0707.158685 0 .285633-.0225.383489-.0664.09786-.045.145461-.105.145461-.18107 0-.0546-.03305-.1082-.09918-.16071-.06612-.0514-.167942-.10499-.304147-.15749z" fill="url(#q)"/><g fill="#fff"><path d="m12 4h16.102285v2.113049h-16.102285z" opacity=".535565"/><path d="m12-123.99434h2.608086v117.8813h-2.608086z" opacity=".535565" transform="scale(1 -1)"/></g></g></svg>