<?xml version="1.0" encoding="UTF-8" standalone="no"?>
<!-- Created with Inkscape (http://www.inkscape.org/) -->

<svg
   xmlns:dc="http://purl.org/dc/elements/1.1/"
   xmlns:cc="http://creativecommons.org/ns#"
   xmlns:rdf="http://www.w3.org/1999/02/22-rdf-syntax-ns#"
   xmlns:svg="http://www.w3.org/2000/svg"
   xmlns="http://www.w3.org/2000/svg"
   xmlns:xlink="http://www.w3.org/1999/xlink"
   xmlns:sodipodi="http://sodipodi.sourceforge.net/DTD/sodipodi-0.dtd"
   xmlns:inkscape="http://www.inkscape.org/namespaces/inkscape"
   width="16"
   height="16"
   id="svg2606"
   sodipodi:version="0.32"
   inkscape:version="0.92.4 (unknown)"
   version="1.0"
   sodipodi:docname="odf_16_8.svg"
   inkscape:output_extension="org.inkscape.output.svgz.inkscape"
   inkscape:export-filename="/home/rizmut/Dokumen/Rizmut/Github/libreoffice-style-karasa-jaga/build/next/res/odf_16_8.png"
   inkscape:export-xdpi="96"
   inkscape:export-ydpi="96">
  <defs
     id="defs2608">
    <linearGradient
       id="linearGradient6131">
      <stop
         id="stop6133"
         offset="0"
         style="stop-color:#fcfcfc;stop-opacity:1" />
      <stop
         style="stop-color:#f8f8f8;stop-opacity:1"
         offset="0.52275378"
         id="stop6135" />
      <stop
         id="stop6141"
         offset="0.77457333"
         style="stop-color:#f0efef;stop-opacity:1;" />
      <stop
         id="stop6139"
         offset="0.90122044"
         style="stop-color:#e3e1e1;stop-opacity:1;" />
      <stop
         id="stop6137"
         offset="1"
         style="stop-color:#cecbcb;stop-opacity:1" />
    </linearGradient>
    <linearGradient
       inkscape:collect="always"
       xlink:href="#linearGradient6131"
       id="linearGradient3893"
       gradientUnits="userSpaceOnUse"
       gradientTransform="matrix(1.0119858,0,0,1.0119858,-0.89554075,-0.9871566)"
       x1="86.73793"
       y1="93.621468"
       x2="95.460213"
       y2="102.34375" />
    <radialGradient
       inkscape:collect="always"
       xlink:href="#linearGradient3913-5"
       id="radialGradient3919-5"
       cx="90.75"
       cy="110.25299"
       fx="90.75"
       fy="110.25299"
       r="18.750002"
       gradientTransform="matrix(1.3067347,0,0,1.3067347,-27.83617,-33.818441)"
       gradientUnits="userSpaceOnUse" />
    <linearGradient
       inkscape:collect="always"
       id="linearGradient3913-5">
      <stop
         style="stop-color:#ffffff;stop-opacity:1;"
         offset="0"
         id="stop3915-4" />
      <stop
         style="stop-color:#ffffff;stop-opacity:0;"
         offset="1"
         id="stop3917-7" />
    </linearGradient>
    <clipPath
       clipPathUnits="userSpaceOnUse"
       id="clipPath3889-6">
      <path
         sodipodi:nodetypes="cscscssc"
         inkscape:connector-curvature="0"
         id="path3891-5"
         d="m 112,82.502986 c 0,4.465301 -2.79749,6.409952 -5.27972,8.093625 -5.10854,3.46508 -14.939114,3.32536 -20.720284,3.40638 -0.081,5.781159 0.16586,15.504599 -3.29922,20.613139 -1.68367,2.48224 -5.29051,5.38687 -8.20078,5.38687 2.31803,0 4.74284,-1.33476 7.58402,-4.08481 9.14197,-8.84873 17.36714,-16.13535 25.673154,-25.297529 C 109.67612,88.503916 112,86.97878 112,82.502986 Z"
         style="fill:url(#linearGradient3893);fill-opacity:1;stroke:none" />
    </clipPath>
    <filter
       inkscape:collect="always"
       id="filter3909-6"
       style="color-interpolation-filters:sRGB">
      <feGaussianBlur
         inkscape:collect="always"
         stdDeviation="0.43040059"
         id="feGaussianBlur3911-9" />
    </filter>
    <linearGradient
       inkscape:collect="always"
       xlink:href="#linearGradient3897-7"
       id="linearGradient3895-3"
       gradientUnits="userSpaceOnUse"
       gradientTransform="matrix(1.3344708,0,0,1.3640502,-37.238647,-42.998247)"
       x1="82.15696"
       y1="90.381706"
       x2="94.220871"
       y2="102.18401" />
    <linearGradient
       id="linearGradient3897-7">
      <stop
         style="stop-color:#fcfcfc;stop-opacity:1"
         offset="0"
         id="stop3899-4" />
      <stop
         id="stop3901-5"
         offset="0.52275378"
         style="stop-color:#f8f8f8;stop-opacity:1" />
      <stop
         style="stop-color:#f0efef;stop-opacity:1;"
         offset="0.72337759"
         id="stop3903-2" />
      <stop
         style="stop-color:#e3e1e1;stop-opacity:1;"
         offset="0.89024991"
         id="stop3905-5" />
      <stop
         style="stop-color:#cecbcb;stop-opacity:1"
         offset="1"
         id="stop3907-4" />
    </linearGradient>
    <clipPath
       clipPathUnits="userSpaceOnUse"
       id="clipPath6093-7">
      <path
         inkscape:connector-curvature="0"
         sodipodi:nodetypes="cccssccc"
         id="path6095-4"
         d="m 17.000001,8 0.782827,110 h 57.5 c 1.675283,0 3.119418,0.18058 4.9,-1.6 8.797935,-8.79794 21.481402,-23.383226 28.739972,-30.707378 2.44056,-2.462612 2.80096,-4.47117 2.80096,-6.724043 L 110,8 Z"
         style="fill:#ffffff;fill-opacity:1" />
    </clipPath>
    <radialGradient
       inkscape:collect="always"
       xlink:href="#linearGradient5982-7"
       id="radialGradient5988-0"
       cx="68.138977"
       cy="89.42041"
       fx="67.932365"
       fy="72.691223"
       r="47.5"
       gradientTransform="matrix(1.5860719,-0.07936281,0.06485072,1.2953772,-41.872296,-14.425457)"
       gradientUnits="userSpaceOnUse" />
    <linearGradient
       inkscape:collect="always"
       id="linearGradient5982-7">
      <stop
         style="stop-color:#ffffff;stop-opacity:1;"
         offset="0"
         id="stop5984-8" />
      <stop
         style="stop-color:#ffffff;stop-opacity:0;"
         offset="1"
         id="stop5986-6" />
    </linearGradient>
    <filter
       inkscape:collect="always"
       id="filter6171-8"
       x="-0.47870937"
       width="1.9574188"
       y="-0.51275069"
       height="2.0255013"
       style="color-interpolation-filters:sRGB">
      <feGaussianBlur
         inkscape:collect="always"
         stdDeviation="10.140743"
         id="feGaussianBlur6173-8" />
    </filter>
    <linearGradient
       inkscape:collect="always"
       xlink:href="#linearGradient4518-3"
       id="linearGradient4524-4"
       x1="47.236164"
       y1="22.150356"
       x2="72"
       y2="116.40091"
       gradientUnits="userSpaceOnUse"
       gradientTransform="matrix(0.94173025,0,0,0.94148681,3.5162756,3.1457312)" />
    <linearGradient
       id="linearGradient4518-3">
      <stop
         style="stop-color:#eeecec;stop-opacity:1"
         offset="0"
         id="stop4520-1" />
      <stop
         id="stop5969-4"
         offset="0.40000001"
         style="stop-color:#f4f4f4;stop-opacity:1" />
      <stop
         style="stop-color:#f6f5f5;stop-opacity:1"
         offset="1"
         id="stop4522-9" />
    </linearGradient>
    <filter
       inkscape:collect="always"
       id="filter4123">
      <feGaussianBlur
         inkscape:collect="always"
         stdDeviation="2.028"
         id="feGaussianBlur4125" />
    </filter>
    <filter
       inkscape:collect="always"
       id="filter3822">
      <feGaussianBlur
         inkscape:collect="always"
         stdDeviation="2.7153804"
         id="feGaussianBlur3824" />
    </filter>
    <filter
       inkscape:collect="always"
       id="filter3827"
       x="-0.084733292"
       width="1.1694666"
       y="-0.10505005"
       height="1.2101001">
      <feGaussianBlur
         inkscape:collect="always"
         stdDeviation="2.1734796"
         id="feGaussianBlur3829" />
    </filter>
    <linearGradient
       id="linearGradient4450"
       inkscape:collect="always">
      <stop
         id="stop4452"
         offset="0"
         style="stop-color:#000000;stop-opacity:1;" />
      <stop
         id="stop4454"
         offset="1"
         style="stop-color:#000000;stop-opacity:0;" />
    </linearGradient>
    <linearGradient
       inkscape:collect="always"
       xlink:href="#linearGradient4450"
       id="linearGradient3285"
       gradientUnits="userSpaceOnUse"
       gradientTransform="translate(-2)"
       x1="66.315437"
       y1="132.11769"
       x2="65.961884"
       y2="97.717491" />
    <clipPath
       id="clipPath3127"
       clipPathUnits="userSpaceOnUse">
      <path
         sodipodi:nodetypes="ccssscccccc"
         inkscape:connector-curvature="0"
         id="path3129"
         d="m 16.5,8.000003 c -0.339844,0 -0.5,0.234618 -0.5,0.5 V 118.46875 c 0,0.82158 0.679323,1.49946 1.5,1.5 l 47.5,0.0313 c 0.05308,3e-5 3.273884,-0.008 3.9635,5e-5 6.540972,-4.50366 29.9679,-28.953329 38.91313,-37.955139 1.47685,-1.65649 0.4576,-0.37007 1.45391,-1.60746 l 6e-5,-71.937498 c 0,-0.322717 -0.16322,-0.5 -0.5,-0.5 z"
         style="opacity:0.84653476;fill:url(#radialGradient3131);fill-opacity:1" />
    </clipPath>
    <linearGradient
       gradientTransform="translate(-143,-64)"
       y2="76.900497"
       x2="151.9005"
       y1="79.100601"
       x1="154.1006"
       gradientUnits="userSpaceOnUse"
       id="linearGradient3452">
      <stop
         id="stop3454"
         style="stop-color:#eaeaea;stop-opacity:1;"
         offset="0" />
      <stop
         id="stop3456"
         style="stop-color:#616161"
         offset="1" />
    </linearGradient>
    <linearGradient
       gradientTransform="translate(-143,-64)"
       y2="76.444199"
       x2="153"
       y1="79.556602"
       x1="153"
       gradientUnits="userSpaceOnUse"
       id="linearGradient3445">
      <stop
         id="stop3447"
         style="stop-color:#FFFFFF"
         offset="0" />
      <stop
         id="stop3449"
         style="stop-color:#DDDDDD"
         offset="1" />
    </linearGradient>
    <linearGradient
       gradientTransform="translate(-143,-64)"
       y2="76.900497"
       x2="151.9005"
       y1="79.100601"
       x1="154.1006"
       gradientUnits="userSpaceOnUse"
       id="linearGradient3438">
      <stop
         id="stop3440"
         style="stop-color:#eaeaea;stop-opacity:1;"
         offset="0" />
      <stop
         id="stop3442"
         style="stop-color:#616161"
         offset="1" />
    </linearGradient>
    <linearGradient
       gradientTransform="translate(-143,-64)"
       y2="76.444199"
       x2="153"
       y1="79.556602"
       x1="153"
       gradientUnits="userSpaceOnUse"
       id="linearGradient3431">
      <stop
         id="stop3433"
         style="stop-color:#FFFFFF"
         offset="0" />
      <stop
         id="stop3435"
         style="stop-color:#DDDDDD"
         offset="1" />
    </linearGradient>
    <linearGradient
       gradientTransform="translate(-143,-64)"
       y2="76.900497"
       x2="151.9005"
       y1="79.100601"
       x1="154.1006"
       gradientUnits="userSpaceOnUse"
       id="linearGradient3424">
      <stop
         id="stop3426"
         style="stop-color:#eaeaea;stop-opacity:1;"
         offset="0" />
      <stop
         id="stop3428"
         style="stop-color:#616161"
         offset="1" />
    </linearGradient>
    <linearGradient
       gradientTransform="translate(-143,-64)"
       y2="76.444199"
       x2="153"
       y1="79.556602"
       x1="153"
       gradientUnits="userSpaceOnUse"
       id="linearGradient3417">
      <stop
         id="stop3419"
         style="stop-color:#FFFFFF"
         offset="0" />
      <stop
         id="stop3421"
         style="stop-color:#DDDDDD"
         offset="1" />
    </linearGradient>
    <linearGradient
       gradientTransform="translate(-143,-64)"
       y2="76.900497"
       x2="151.9005"
       y1="79.100601"
       x1="154.1006"
       gradientUnits="userSpaceOnUse"
       id="linearGradient3410">
      <stop
         id="stop3412"
         style="stop-color:#eaeaea;stop-opacity:1;"
         offset="0" />
      <stop
         id="stop3414"
         style="stop-color:#616161"
         offset="1" />
    </linearGradient>
    <linearGradient
       gradientTransform="translate(-143,-64)"
       y2="76.444199"
       x2="153"
       y1="79.556602"
       x1="153"
       gradientUnits="userSpaceOnUse"
       id="linearGradient3403">
      <stop
         id="stop3405"
         style="stop-color:#FFFFFF"
         offset="0" />
      <stop
         id="stop3407"
         style="stop-color:#DDDDDD"
         offset="1" />
    </linearGradient>
    <linearGradient
       gradientTransform="translate(-143,-64)"
       y2="76.900497"
       x2="151.9005"
       y1="79.100601"
       x1="154.1006"
       gradientUnits="userSpaceOnUse"
       id="linearGradient3396">
      <stop
         id="stop3398"
         style="stop-color:#eaeaea;stop-opacity:1;"
         offset="0" />
      <stop
         id="stop3400"
         style="stop-color:#616161"
         offset="1" />
    </linearGradient>
    <linearGradient
       gradientTransform="translate(-143,-64)"
       y2="76.444199"
       x2="153"
       y1="79.556602"
       x1="153"
       gradientUnits="userSpaceOnUse"
       id="linearGradient3389">
      <stop
         id="stop3391"
         style="stop-color:#FFFFFF"
         offset="0" />
      <stop
         id="stop3393"
         style="stop-color:#DDDDDD"
         offset="1" />
    </linearGradient>
    <linearGradient
       gradientTransform="translate(-143,-64)"
       y2="76.900497"
       x2="151.9005"
       y1="79.100601"
       x1="154.1006"
       gradientUnits="userSpaceOnUse"
       id="linearGradient3382">
      <stop
         id="stop3384"
         style="stop-color:#eaeaea;stop-opacity:1;"
         offset="0" />
      <stop
         id="stop3386"
         style="stop-color:#616161"
         offset="1" />
    </linearGradient>
    <linearGradient
       gradientTransform="translate(-143,-64)"
       y2="76.444199"
       x2="153"
       y1="79.556602"
       x1="153"
       gradientUnits="userSpaceOnUse"
       id="linearGradient3375">
      <stop
         id="stop3377"
         style="stop-color:#FFFFFF"
         offset="0" />
      <stop
         id="stop3379"
         style="stop-color:#DDDDDD"
         offset="1" />
    </linearGradient>
    <linearGradient
       gradientTransform="translate(-143,-64)"
       y2="76.900497"
       x2="151.9005"
       y1="79.100601"
       x1="154.1006"
       gradientUnits="userSpaceOnUse"
       id="linearGradient3368">
      <stop
         id="stop3370"
         style="stop-color:#eaeaea;stop-opacity:1;"
         offset="0" />
      <stop
         id="stop3372"
         style="stop-color:#616161"
         offset="1" />
    </linearGradient>
    <linearGradient
       gradientTransform="translate(-143,-64)"
       y2="76.444199"
       x2="153"
       y1="79.556602"
       x1="153"
       gradientUnits="userSpaceOnUse"
       id="linearGradient3361">
      <stop
         id="stop3363"
         style="stop-color:#FFFFFF"
         offset="0" />
      <stop
         id="stop3365"
         style="stop-color:#DDDDDD"
         offset="1" />
    </linearGradient>
    <linearGradient
       gradientTransform="translate(-143,-64)"
       y2="76.900497"
       x2="151.9005"
       y1="79.100601"
       x1="154.1006"
       gradientUnits="userSpaceOnUse"
       id="linearGradient3354">
      <stop
         id="stop3356"
         style="stop-color:#eaeaea;stop-opacity:1;"
         offset="0" />
      <stop
         id="stop3358"
         style="stop-color:#616161"
         offset="1" />
    </linearGradient>
    <linearGradient
       gradientTransform="translate(-143,-64)"
       y2="76.444199"
       x2="153"
       y1="79.556602"
       x1="153"
       gradientUnits="userSpaceOnUse"
       id="linearGradient3347">
      <stop
         id="stop3349"
         style="stop-color:#FFFFFF"
         offset="0" />
      <stop
         id="stop3351"
         style="stop-color:#DDDDDD"
         offset="1" />
    </linearGradient>
    <linearGradient
       gradientTransform="translate(-143,-64)"
       y2="76.900497"
       x2="151.9005"
       y1="79.100601"
       x1="154.1006"
       gradientUnits="userSpaceOnUse"
       id="XMLID_68_-7">
      <stop
         id="stop291-6"
         style="stop-color:#eaeaea;stop-opacity:1;"
         offset="0" />
      <stop
         id="stop293-56"
         style="stop-color:#616161"
         offset="1" />
    </linearGradient>
    <linearGradient
       gradientTransform="translate(-143,-64)"
       y2="76.444199"
       x2="153"
       y1="79.556602"
       x1="153"
       gradientUnits="userSpaceOnUse"
       id="XMLID_67_-5">
      <stop
         id="stop284-5"
         style="stop-color:#FFFFFF"
         offset="0" />
      <stop
         id="stop286-4"
         style="stop-color:#DDDDDD"
         offset="1" />
    </linearGradient>
    <linearGradient
       id="linearGradient4518-3-0">
      <stop
         id="stop4520-1-6"
         offset="0"
         style="stop-color:#eeecec;stop-opacity:1" />
      <stop
         style="stop-color:#f4f4f4;stop-opacity:1"
         offset="0.40000001"
         id="stop5969-4-8" />
      <stop
         id="stop4522-9-9"
         offset="1"
         style="stop-color:#f6f5f5;stop-opacity:1" />
    </linearGradient>
    <clipPath
       id="clipPath6093-7-6"
       clipPathUnits="userSpaceOnUse">
      <path
         style="fill:#ffffff;fill-opacity:1"
         d="m 17.000001,8 0.782827,110 h 57.5 c 1.675283,0 3.119418,0.18058 4.9,-1.6 C 88.980763,107.60206 99.94047,96.548195 107.19904,89.224043 109.6396,86.761431 110,84.752873 110,82.5 V 8 Z"
         id="path6095-4-8"
         sodipodi:nodetypes="cccssccc"
         inkscape:connector-curvature="0" />
    </clipPath>
    <linearGradient
       id="linearGradient3897-7-4">
      <stop
         id="stop3899-4-4"
         offset="0"
         style="stop-color:#fcfcfc;stop-opacity:1" />
      <stop
         style="stop-color:#f8f8f8;stop-opacity:1"
         offset="0.52275378"
         id="stop3901-5-3" />
      <stop
         id="stop3903-2-0"
         offset="0.72337759"
         style="stop-color:#f0efef;stop-opacity:1;" />
      <stop
         id="stop3905-5-7"
         offset="0.89024991"
         style="stop-color:#e3e1e1;stop-opacity:1;" />
      <stop
         id="stop3907-4-8"
         offset="1"
         style="stop-color:#cecbcb;stop-opacity:1" />
    </linearGradient>
    <clipPath
       id="clipPath3889-6-5"
       clipPathUnits="userSpaceOnUse">
      <path
         style="fill:url(#linearGradient3893-6);fill-opacity:1;stroke:none"
         d="m 112,82.502986 c 0,4.465301 -2.79749,6.409952 -5.27972,8.093625 -5.10854,3.46508 -14.939114,3.32536 -20.720284,3.40638 -0.081,5.781159 0.16586,15.504599 -3.29922,20.613139 -1.68367,2.48224 -5.29051,5.38687 -8.20078,5.38687 2.31803,0 4.74284,-1.33476 7.58402,-4.08481 9.14197,-8.84873 17.36714,-16.13535 25.673154,-25.297529 C 109.67612,88.503916 112,86.97878 112,82.502986 Z"
         id="path3891-5-2"
         inkscape:connector-curvature="0"
         sodipodi:nodetypes="cscscssc" />
    </clipPath>
    <linearGradient
       id="linearGradient3913-5-3"
       inkscape:collect="always">
      <stop
         id="stop3915-4-7"
         offset="0"
         style="stop-color:#ffffff;stop-opacity:1;" />
      <stop
         id="stop3917-7-4"
         offset="1"
         style="stop-color:#ffffff;stop-opacity:0;" />
    </linearGradient>
    <radialGradient
       gradientUnits="userSpaceOnUse"
       gradientTransform="matrix(1.3067347,0,0,1.3067347,-27.83617,-33.818441)"
       r="18.750002"
       fy="110.25299"
       fx="90.75"
       cy="110.25299"
       cx="90.75"
       id="radialGradient3919-5-9"
       xlink:href="#linearGradient3913-5-3"
       inkscape:collect="always" />
    <linearGradient
       y2="102.34375"
       x2="95.460213"
       y1="93.621468"
       x1="86.73793"
       gradientTransform="matrix(1.0119858,0,0,1.0119858,-0.89554075,-0.9871566)"
       gradientUnits="userSpaceOnUse"
       id="linearGradient3893-6"
       xlink:href="#linearGradient6131-5"
       inkscape:collect="always" />
    <linearGradient
       id="linearGradient6131-5">
      <stop
         style="stop-color:#fcfcfc;stop-opacity:1"
         offset="0"
         id="stop6133-5" />
      <stop
         id="stop6135-4"
         offset="0.52275378"
         style="stop-color:#f8f8f8;stop-opacity:1" />
      <stop
         style="stop-color:#f0efef;stop-opacity:1;"
         offset="0.77457333"
         id="stop6141-7" />
      <stop
         style="stop-color:#e3e1e1;stop-opacity:1;"
         offset="0.90122044"
         id="stop6139-6" />
      <stop
         style="stop-color:#cecbcb;stop-opacity:1"
         offset="1"
         id="stop6137-5" />
    </linearGradient>
    <clipPath
       id="clipPath3127-1"
       clipPathUnits="userSpaceOnUse">
      <path
         sodipodi:nodetypes="ccssscccccc"
         inkscape:connector-curvature="0"
         id="path3129-5"
         d="m 16.5,8.000003 c -0.339844,0 -0.5,0.234618 -0.5,0.5 V 118.46875 c 0,0.82158 0.679323,1.49946 1.5,1.5 l 47.5,0.0313 c 0.05308,3e-5 3.273884,-0.008 3.9635,5e-5 6.540972,-4.50366 29.9679,-28.953329 38.91313,-37.955139 1.47685,-1.65649 0.4576,-0.37007 1.45391,-1.60746 l 6e-5,-71.937498 c 0,-0.322717 -0.16322,-0.5 -0.5,-0.5 z"
         style="opacity:0.84653476;fill:url(#radialGradient3131);fill-opacity:1" />
    </clipPath>
  </defs>
  <sodipodi:namedview
     id="base"
     pagecolor="#ffffff"
     bordercolor="#666666"
     borderopacity="1.0"
     inkscape:pageopacity="0.0"
     inkscape:pageshadow="2"
     inkscape:zoom="22.627418"
     inkscape:cx="6.2180462"
     inkscape:cy="9.5749154"
     inkscape:document-units="px"
     inkscape:current-layer="g4923"
     width="128px"
     height="128px"
     showgrid="true"
     inkscape:grid-points="true"
     showguides="true"
     inkscape:guide-bbox="true"
     inkscape:window-width="1224"
     inkscape:window-height="757"
     inkscape:window-x="201"
     inkscape:window-y="270"
     inkscape:snap-global="true"
     inkscape:window-maximized="0"
     inkscape:snap-page="true"
     inkscape:snap-smooth-nodes="true">
    <inkscape:grid
       id="GridFromPre046Settings"
       type="xygrid"
       originx="0"
       originy="0"
       spacingx="0.5"
       spacingy="0.5"
       color="#0000ff"
       empcolor="#0000ff"
       opacity="0.2"
       empopacity="0.4"
       empspacing="2"
       visible="true"
       enabled="true"
       snapvisiblegridlinesonly="true" />
    <sodipodi:guide
       orientation="1,0"
       position="-68,29.325902"
       id="guide4564"
       inkscape:locked="false" />
    <sodipodi:guide
       orientation="1,0"
       position="-121.62237,135.0574"
       id="guide3859"
       inkscape:locked="false" />
    <sodipodi:guide
       orientation="0,1"
       position="38.581514,-74.688154"
       id="guide4360"
       inkscape:locked="false" />
  </sodipodi:namedview>
  <metadata
     id="metadata2611">
    <rdf:RDF>
      <cc:Work
         rdf:about="">
        <dc:format>image/svg+xml</dc:format>
        <dc:type
           rdf:resource="http://purl.org/dc/dcmitype/StillImage" />
        <dc:title></dc:title>
      </cc:Work>
    </rdf:RDF>
  </metadata>
  <g
     inkscape:label="Livello 1"
     inkscape:groupmode="layer"
     id="layer1"
     transform="translate(0,-112)">
    <g
       id="g4923"
       transform="matrix(0.125,0,0,0.125,0,111.99078)">
      <path
         transform="matrix(0.94173025,0,0,0.94148681,3.5162752,3.1457285)"
         sodipodi:nodetypes="ccsssccccccc"
         inkscape:connector-curvature="0"
         id="path5990"
         d="M 13.333,5.3364 V 123.6668 L 63.1875,123.6 c 2.115554,-0.003 4.528919,-1.77169 7,-4.25 0.71234,-0.71442 1.440746,-1.39395 2.15625,-2.09375 0.415612,-0.40649 0.832187,-0.81443 1.25,-1.21875 7.773958,-7.40962 26.98341,-25.122599 34.21875,-33.099999 0.42065,-0.42064 0.81207,-0.8111 1.15625,-1.1875 1.46444,-1.49766 2.76158,-2.8378 2.99375,-5.8625 L 112,75.156251 111.9972,5.3364 Z"
         style="opacity:0.45606695;fill:#000000;fill-opacity:1;filter:url(#filter4123)" />
      <path
         sodipodi:nodetypes="cccccccsccccscsccccsccccccccc"
         inkscape:connector-curvature="0"
         id="path3314"
         d="m 12.96875,3.4375 c -1.48e-4,0.010416 -1.48e-4,0.020834 0,0.03125 -0.921246,0.1949457 -1.534484,0.9333582 -1.53125,1.875 v 118.73736 c -1.48e-4,0.0104 -1.48e-4,0.0209 0,0.0313 0.01925,1.0723 0.80288,1.85562 1.875,1.875 0.01042,1.5e-4 0.02083,1.5e-4 0.03125,0 h 52.529063 c 1.658286,0 4.069886,0.24689 7.15625,-1.84375 0.09606,-0.0692 0.180839,-0.15394 0.25,-0.25 -0.05642,0.0503 -0.118387,0.22919 0.0625,-0.0625 0.05493,-0.0473 0.106764,-0.0903 0.1875,-0.15625 0.219835,-0.17951 0.516782,-0.38621 0.78125,-0.59375 0.264468,-0.20754 0.493455,-0.39466 0.65625,-0.53125 0.0407,-0.0341 0.0777,-0.0491 0.125,-0.0937 0.02365,-0.0223 0.04509,-0.0687 0.09375,-0.125 0.02433,-0.0281 0.07533,-0.0459 0.125,-0.125 0.01159,-0.0185 0.01274,-0.0566 0.03125,-0.0937 9.792927,-9.35059 27.456717,-28.634354 38.499997,-39.8125 1.71056,-1.710561 3.78125,-3.905917 3.78125,-8.5625 V 5.3439 c 1.5e-4,-0.010416 1.5e-4,-0.020834 0,-0.03125 -0.0194,-1.0720969 -0.80283,-1.8556268 -1.875,-1.875 -0.0104,-1.484e-4 -0.0209,-1.484e-4 -0.0313,0 H 13.43745 c -0.03303,-0.00313 -0.06067,0.00142 -0.09375,0 -0.08821,-0.00379 -0.161926,-0.00834 -0.25,0 -0.04162,-0.00237 -0.08338,-0.00237 -0.125,0 z"
         style="fill:#000000;fill-opacity:1;filter:url(#filter3822)"
         transform="matrix(0.94173025,0,0,0.94148681,3.5162752,3.1457285)" />
      <path
         inkscape:connector-curvature="0"
         sodipodi:nodetypes="cccssccc"
         id="path34"
         d="M 16.072365,8.0771252 V 119.57639 l 49.707827,-0.0771 c 1.577682,0 3.686257,-0.53663 6.592193,-3.42109 8.353294,-8.2916 30.207015,-29.952167 37.042715,-36.912327 2.29836,-2.340224 2.82611,-4.248961 2.82611,-6.389865 L 112.23821,8 Z"
         style="fill:#ffffff;fill-opacity:1" />
      <path
         sodipodi:nodetypes="ccsssccscccc"
         inkscape:connector-curvature="0"
         id="path3967"
         d="m 22.330709,13.864607 c -0.32004,0 -0.470863,0.220889 -0.470863,0.470743 v 98.04132 c 0,0.7735 0.639738,1.41283 1.412596,1.41224 l 38.774516,-0.0295 c 0.04998,-4e-5 0.763164,0.022 1.412595,0.0295 1.67408,-0.0377 2.949474,-0.70964 4.10221,-1.50006 0.990574,-0.274 27.991428,-26.655867 36.581047,-35.307802 1.28302,-1.292303 2.05813,-3.71715 2.05813,-4.609153 V 14.33535 c 0,-0.303834 -0.15371,-0.470743 -0.47087,-0.470743 z"
         style="fill:url(#linearGradient4524-4);fill-opacity:1" />
      <path
         style="opacity:0.84653476;fill:url(#radialGradient5988-0);fill-opacity:1"
         d="m 26.330709,17.864607 c -0.32004,0 -0.470863,0.220889 -0.470863,0.470743 l -4,94.04132 c -0.03287,0.77281 0.639752,1.40754 1.412596,1.41224 l 43.527137,0.26444 c 0.04998,3e-4 3.083114,-0.007 3.732546,4e-5 6.159831,-4.24013 28.87563,-26.117493 37.299625,-34.592579 0.61903,-0.694148 0.43093,-0.348416 1.36919,-1.513403 V 14.33535 c 0,-0.303834 -0.15371,-0.470743 -0.47087,-0.470743 z"
         id="path5980"
         inkscape:connector-curvature="0"
         sodipodi:nodetypes="ccssscccccc" />
      <path
         id="path2197"
         d=""
         style="fill:#000000"
         inkscape:connector-curvature="0" />
      <path
         transform="matrix(1.1813248,0,0,1.2086603,-24.263752,-24.510815)"
         sodipodi:nodetypes="cscscssc"
         inkscape:connector-curvature="0"
         id="path6153"
         d="m 116.12376,78.971565 c 0,4.465301 -6.19771,3.506816 -8.67994,5.190489 -5.10854,3.46508 -20.174687,2.225237 -25.955857,2.306257 -0.081,5.781159 -0.937221,19.675219 -0.937221,25.825239 0,2.97817 -3.440475,11.20945 -6.350745,11.20945 -2.091359,1.5337 3.488204,8.21101 6.734971,5.31989 9.501888,-8.46107 35.131682,-30.022704 43.350822,-39.262889 2.04044,-2.29392 -3.18138,-13.376087 -8.16203,-10.588436 z"
         style="opacity:0.34728035;fill:#000000;fill-opacity:1;stroke:none;filter:url(#filter6171-8)"
         clip-path="url(#clipPath6093-7)" />
      <path
         transform="matrix(1.2864191,0,0,1.3161866,-33.246593,-37.128335)"
         clip-path="url(#clipPath6093-7)"
         style="fill:#000000;fill-opacity:1;stroke:none;filter:url(#filter3827)"
         d="m 113.9,82.502986 c 0,4.465301 -10.43981,5.304142 -13.42995,5.727919 -6.394979,0.906328 -14.119031,-0.156997 -19.900201,-0.07598 -0.505268,6.06824 0.8669,24.053995 1.224403,26.575985 0.418175,2.94999 -3.883991,8.07209 -6.794261,8.07209 -2.091359,1.5337 3.488204,11.21101 6.734971,8.31989 C 91.23685,122.66182 127.7339,100.92151 135.95304,91.681321 137.99348,89.387401 118.88065,79.715335 113.9,82.502986 Z"
         id="path6081"
         inkscape:connector-curvature="0"
         sodipodi:nodetypes="cscscssc" />
      <path
         style="opacity:0.64788735;fill:#000000;fill-opacity:0.64705882"
         d="m 69.642634,31.72535 c -3.330496,-0.0017 -5.40672,0.113156 -5.40672,0.212024 0,0.08816 0.879716,1.421121 2.014272,2.96839 1.134557,1.547271 2.274265,2.929952 2.438323,3.180418 l 0.212018,0.530068 -2.332299,2.75636 -2.332314,2.756362 h 5.40672 3.382811 l 0.424051,-1.166153 c 0.529012,-1.453538 0.57017,-1.784807 0.106052,-1.060139 -0.207153,0.323388 -0.70092,0.673603 -1.272166,0.954124 -0.947207,0.465166 1.039489,0.472536 -2.958747,0.530071 l -4.02853,0.106009 0.954124,-1.060136 c 2.532407,-2.928564 3.710489,-4.312475 3.710489,-4.452585 0,-0.08501 -0.908618,-1.351585 -2.014272,-2.862374 -1.105654,-1.510786 -2.014258,-2.896468 -2.014258,-2.96839 0,-0.188441 5.183939,-0.09134 6.572862,0.106009 1.429738,0.203191 2.626734,0.776926 3.074392,1.484193 0.570084,0.900362 0.55414,0.569 0,-0.742096 l -0.53006,-1.272168 h -5.406705 z"
         id="path4074"
         inkscape:connector-curvature="0"
         clip-path="url(#clipPath3127-1)"
         transform="matrix(5.5160538,0,0,5.4763167,-317.98969,-137.66423)"
         sodipodi:nodetypes="cssccccccccccccssscccccc" />
      <path
         sodipodi:nodetypes="cscscssc"
         inkscape:connector-curvature="0"
         id="path6011"
         d="m 111.63282,69.537665 c 0,6.018752 -3.68896,8.639938 -6.96218,10.909345 -6.736467,4.670565 -20.601656,3.681674 -28.225086,3.790881 -0.106814,7.792391 0.681931,20.811609 -3.887352,27.697379 -2.220198,3.3458 -6.53768,8.14845 -10.375353,8.14845 3.056706,0 6.25422,-1.79911 10.000786,-5.50589 12.055202,-11.92716 22.901451,-21.748749 33.854305,-34.098401 2.53047,-2.853145 5.59488,-4.908872 5.59488,-10.941764 z"
         style="fill:url(#linearGradient3895-3);fill-opacity:1;stroke:none" />
      <path
         sodipodi:nodetypes="cscsccccsscccc"
         inkscape:connector-curvature="0"
         id="path6122"
         d="m 110.71058,68.281346 c -0.41723,5.255588 -4.27313,7.093026 -6.37262,8.548644 C 99.360203,80.281173 92.747881,80 72,80 c 0,19.101497 0.485919,27.6002 -3.129233,32.26786 -2.152106,2.77868 -6.461106,5.87696 -9.97277,6.67209 4.811835,0 8.170308,-1.05121 11.313766,-4.16129 C 70.658946,114.25496 79.29853,105.10667 80,104 c 0,-8 0,-4.430898 0,-16 7.62343,-0.109179 8,0 16,0 0.746829,0 10.14294,-9.613144 10.69263,-10.162835 3.05326,-3.053253 3.71528,-4.99949 4.01795,-9.555819 z M 58.897997,118.93995 c -0.207898,0.0469 -0.413317,0.0558 -0.618125,0.0842 0.20702,-0.0228 0.409371,-0.0452 0.618125,-0.0842 z"
         style="fill:#ffffff;fill-opacity:1;stroke:none" />
      <path
         transform="matrix(1.3186655,0,0,1.3478946,-36.057732,-41.667663)"
         clip-path="url(#clipPath3889-6)"
         sodipodi:nodetypes="cc"
         inkscape:connector-curvature="0"
         id="path3873"
         d="M 108.97651,89.508691 79.934895,118.21077"
         style="fill:none;stroke:url(#radialGradient3919-5);stroke-width:1.85605633;stroke-linecap:butt;stroke-linejoin:miter;stroke-miterlimit:4;stroke-dasharray:none;stroke-opacity:1;filter:url(#filter3909-6)" />
      <rect
         y="16"
         x="24"
         height="8"
         width="8"
         id="rect3039"
         style="opacity:0.38053098;fill:#2d2d2d;fill-opacity:1;stroke:none" />
      <rect
         style="opacity:0.38053098;fill:#2d2d2d;fill-opacity:1;stroke:none"
         id="rect3809"
         width="8"
         height="8"
         x="24"
         y="32" />
      <rect
         y="48"
         x="24"
         height="8"
         width="8"
         id="rect3811"
         style="opacity:0.38053098;fill:#2d2d2d;fill-opacity:1;stroke:none" />
      <rect
         style="opacity:0.38053098;fill:#2d2d2d;fill-opacity:1;stroke:none"
         id="rect3813"
         width="8"
         height="8"
         x="24"
         y="64" />
      <rect
         y="80"
         x="24"
         height="8"
         width="8"
         id="rect3835"
         style="opacity:0.38053098;fill:#2d2d2d;fill-opacity:1;stroke:none" />
      <rect
         style="opacity:0.38053098;fill:#2d2d2d;fill-opacity:1;stroke:none"
         id="rect3837"
         width="8"
         height="8"
         x="24"
         y="96" />
      <rect
         y="112"
         x="24"
         height="8"
         width="8"
         id="rect3841"
         style="opacity:0.38053098;fill:#2d2d2d;fill-opacity:0.33155081;stroke:none" />
      <path
         style="fill:#5d6b8d;fill-opacity:1;stroke:none;stroke-width:8px;stroke-linecap:butt;stroke-linejoin:miter;stroke-opacity:1"
         d="m 16,32.07376 h 96 v -24 H 16 Z"
         id="path5143"
         inkscape:connector-curvature="0" />
    </g>
  </g>
</svg>
