<svg height="48" width="48" xmlns="http://www.w3.org/2000/svg" xmlns:xlink="http://www.w3.org/1999/xlink"><radialGradient id="a" cx="90.750004" cy="110.252967" gradientUnits="userSpaceOnUse" r="24.501278" xlink:href="#b"/><linearGradient id="b"><stop offset="0" stop-color="#fff"/><stop offset="1" stop-color="#fff" stop-opacity="0"/></linearGradient><clipPath id="c"><path d="m112 82.502986c0 4.465301-2.79749 6.409952-5.27972 8.093625-5.10854 3.46508-14.939114 3.32536-20.720284 3.40638-.081 5.781159.16586 15.504599-3.29922 20.613139-1.68367 2.48224-5.29051 5.38687-8.20078 5.38687 2.31803 0 4.74284-1.33476 7.58402-4.08481 9.14197-8.84873 17.36714-16.13535 25.673154-25.297529 1.91895-2.116745 4.24283-3.641881 4.24283-8.117675z"/></clipPath><filter id="d" color-interpolation-filters="sRGB"><feGaussianBlur stdDeviation=".43040059"/></filter><linearGradient id="e" gradientUnits="userSpaceOnUse" x1="78.587481" x2="89.952971" y1="87.537425" y2="98.902918"><stop offset="0" stop-color="#fcfcfc"/><stop offset=".52275378" stop-color="#f8f8f8"/><stop offset=".72337759" stop-color="#f0efef"/><stop offset=".89024991" stop-color="#e3e1e1"/><stop offset="1" stop-color="#cecbcb"/></linearGradient><clipPath id="f"><path d="m17.000001 8 .782827 110h57.5c1.675283 0 3.119418.18058 4.9-1.6 8.797935-8.79794 19.757642-19.851805 27.016212-27.175957 2.44056-2.462612 2.80096-4.47117 2.80096-6.724043v-74.5z"/></clipPath><filter id="g" color-interpolation-filters="sRGB" height="1.241294" width="1.225275" x="-.112638" y="-.120647"><feGaussianBlur stdDeviation="2.3860572"/></filter><radialGradient id="h" cx="64" cy="64.004021" fx="63.793392" fy="47.274845" gradientTransform="matrix(1.6842105 -.08429519 .06886339 1.3758846 -48.197001 -18.66323)" gradientUnits="userSpaceOnUse" r="47.5" xlink:href="#b"/><filter id="i" color-interpolation-filters="sRGB" height="2.025501" width="1.957419" x="-.478709" y="-.512751"><feGaussianBlur stdDeviation="10.140743"/></filter><linearGradient id="j" gradientUnits="userSpaceOnUse" x1="72" x2="72" y1=".000003" y2="116.400913"><stop offset="0" stop-color="#eeecec"/><stop offset=".40000001" stop-color="#f4f4f4"/><stop offset="1" stop-color="#f6f5f5"/></linearGradient><filter id="k"><feGaussianBlur stdDeviation="1.5615"/></filter><filter id="l"><feGaussianBlur stdDeviation="2.028"/></filter><clipPath id="m"><path d="m-100.56529 35.206261h128.56538v82.793747h-128.56538z" transform="scale(-1 1)"/></clipPath><linearGradient id="n" gradientTransform="matrix(1.0901639 0 0 1.4448193 .968033 -49.5209)" gradientUnits="userSpaceOnUse" x1="56.954266" x2="88.066963" y1="130.65482" y2="82.515564"><stop offset="0" stop-color="#004fcd"/><stop offset="1" stop-color="#29bfff" stop-opacity=".489083"/></linearGradient><linearGradient id="o" gradientUnits="userSpaceOnUse" x1="77.279506" x2="77.279506" y1="90.281146" y2="88.100818"><stop offset="0" stop-color="#004fcd"/><stop offset="1" stop-color="#297cff"/></linearGradient><radialGradient id="p" cx="48.850761" cy="76.900146" gradientTransform="matrix(2.6335511 -.03292895 .18053735 4.328014 -93.659315 -239.38913)" gradientUnits="userSpaceOnUse" r="19.386568"><stop offset="0" stop-color="#cd0000"/><stop offset="1" stop-color="#cd0000" stop-opacity="0"/></radialGradient><linearGradient id="q" gradientTransform="matrix(-1.1999999 0 0 -1.1999999 126.59999 138.39999)" gradientUnits="userSpaceOnUse" x1="63.460423" x2="63.460423" y1="42.513088" y2="39.447777"><stop offset=".15000001" stop-color="#c20600"/><stop offset=".57499999" stop-color="#860202"/><stop offset="1" stop-color="#760101"/></linearGradient><linearGradient id="r" gradientUnits="userSpaceOnUse" x1="10" x2="10" y1="15.556602" y2="12.444199"><stop offset="0" stop-color="#fff"/><stop offset="1" stop-color="#ddd"/></linearGradient><linearGradient id="s" gradientUnits="userSpaceOnUse" x1="11.1006" x2="8.9005" y1="15.100601" y2="12.900497"><stop offset="0" stop-color="#eaeaea"/><stop offset="1" stop-color="#616161"/></linearGradient><g transform="matrix(.375 0 0 .375 -.000001 0)"><path d="m13.333 5.3364v117.8304l49.8545.4332c2.115476.0184 4.528919-1.77169 7-4.25.71234-.71442 1.440746-1.39395 2.15625-2.09375.415612-.40649.832187-.81443 1.25-1.21875 7.773958-7.40962 26.98341-25.122599 34.21875-33.099999.42065-.42064.81207-.8111 1.15625-1.1875 1.46444-1.49766 2.76158-2.8378 2.99375-5.8625l.0375-.73125-.0028-69.819851z" filter="url(#l)" opacity=".456067"/><path d="m13.333 5.3364v118.3304l49.3318.3c1.527964 0 3.65713-.98408 6.387944-2.83388 13.12308-9.55847 28.444696-29.242774 39.697346-40.632849 1.74325-1.74325 3.24991-3.03751 3.24991-7.20007l-.0028-67.963601z" fill-opacity=".847162" filter="url(#k)"/><path d="m13.333 5.3364v117.3304h49.3318c1.675283 0 3.914297-.56468 7-3.6 8.870045-8.72523 32.07567-31.518599 39.33424-38.842759 2.44056-2.46261 3.00096-4.47117 3.00096-6.72404l-.0028-68.163601z" fill="#fff"/><path d="m16.5 8.000003c-.339844 0-.5.234618-.5.5v109.968747c0 .82158.679323 1.5 1.5 1.5h48.6875c.05308 0 .810384.0234 1.5.0313 1.777664-.0401 3.131974-.75374 4.356035-1.59328 1.051866-.29103 25.980435-26.619589 35.101555-35.809239 1.36239-1.37262 2.18546-3.94817 2.18546-4.89561l.00005-69.201918c0-.322717-.16322-.5-.5-.5z" fill="url(#j)"/><path d="m16.5 8.000003c-.339844 0-.5.234618-.5.5v109.968747c0 .82158.679323 1.49946 1.5 1.5l47.5.0313c.05308.00003 3.273884-.008 3.9635.00005 6.540972-4.50366 29.9679-28.953329 38.91313-37.955139 1.47685-1.65649.4576-.37007 1.45391-1.60746l.00006-71.937498c0-.322717-.16322-.5-.5-.5z" fill="url(#h)" opacity=".846535"/><path d="m0 0h128v128h-128z" fill="#fbfbfb" fill-opacity=".003922" opacity=".01"/><path clip-path="url(#f)" d="m114.4 82.502986c0 4.465301-4.99749 5.909952-7.47972 7.593625-5.10854 3.46508-18.362065-1.446073-24.143235-1.365053-.081 5.781159 3.371639 20.976032-.09344 26.084572-1.68367 2.48224-5.573338 8.68687-8.483608 8.68687-2.091359 1.5337 3.488204 8.21101 6.734971 5.31989 9.501888-8.46107 35.131682-30.022704 43.350822-39.262889 2.04044-2.29392-4.90514-9.844666-9.88579-7.057015z" filter="url(#i)" opacity=".34728" transform="matrix(1.2774204 0 0 1.2774204 -31.076286 -28.013102)"/><g clip-path="url(#m)" transform="matrix(1.44988 0 0 1.44988 -35.810404 -54.695199)"><path d="m113.8 41.728474c-1.22732 1.76303-2.68623 3.570063-4.46286 5.282621-1.91808 1.848911-4.18813 3.568965-6.74539 5.056868-2.80742 1.668991-6.018937 3.065672-9.538932 4.289307-3.519995 1.223634-7.357112 2.297987-11.276384 3.521748-3.773683 1.118246-7.686488 2.397239-11.514856 4.108704-3.828368 1.711466-7.559719 3.874785-10.935707 6.591989-1.893183 1.547927-3.59593 3.296057-5.042008 5.237471-1.446079 1.941414-2.614439 4.070518-3.474898 6.321084-.935326 2.450468-1.381875 4.989073-1.328637 7.540152.05324 2.551084.589798 5.110032 1.601178 7.495 1.205445 2.792322 3.092367 5.165922 5.382685 7.043492 2.290316 1.87759 4.973119 3.23534 7.801485 4.06355 3.427076.94583 6.873446.93703 9.913679.31606 1.979098-.40956 3.714996-1.09233 5.212346-1.89633 1.497351-.80399 2.760768-1.72141 3.781506-2.66388 1.615736-1.51737 2.550879-2.96522 3.134221-4.06355.583349-1.09833.830538-1.862998.885758-2.122083.151774-.712094.187746-1.488627.136271-2.30268-.07644-1.134264-.368255-2.296727-.885758-3.295996-.517508-.999267-1.235387-1.834895-2.044058-2.438132-.808671-.603235-1.686118-.980038-2.555071-1.038464-2.139158-.143831-4.518074.582733-6.132172 1.760874-1.174007.856915-2.384649 2.287789-2.72541 3.973254-.111721.552585-.739874 1.081952-1.056097 1.309367-.316221.227414-.730646.458137-1.192366.632108-.722504.278504-1.747016.367852-2.861681.225753-.911988-.07051-1.9257-.419618-2.929815-1.083614-1.004115-.664002-2.004557-1.639402-2.72541-2.754187-.654418-.9974-1.073432-2.203711-1.260502-3.566898-.187069-1.363172-.15043-2.883432.170338-4.379609.60752-2.815064 2.382442-5.711988 4.837602-8.307711 2.182551-2.34037 4.986429-4.356862 8.142162-6.140482 3.155735-1.783614 6.655571-3.327137 10.152152-4.831115 3.683669-1.547843 7.454273-3.092564 11.003842-4.785965 3.549565-1.693407 6.886787-3.5399 9.777407-5.688976 2.63226-1.964427 4.84091-4.157692 6.64319-6.366235.79171-.970172 1.46834-1.918733 2.11219-2.889639z" fill="url(#n)" fill-rule="evenodd"/><path d="m71.426278 108.85448c.916534-.0662 1.828854-.19129 2.729101-.37457 1.805606-.37248 3.556288-1.01019 5.181601-1.88163 1.354734-.72648 2.630997-1.60382 3.759317-2.64456 1.244839-1.1678 2.313644-2.52678 3.114223-4.03243.359371-.678635.721671-1.361341.876717-2.093195.158968-.741372.182906-1.510162.135523-2.273129-.07589-1.1301-.353252-2.252272-.872152-3.254747-.000001-.000002-.000002-.000004-.000003-.000006-.484679-.936731-1.16904-1.774276-2.012484-2.403873-.736494-.548057-1.596278-.960628-2.50034-1.019971-2.137549-.144836-4.336647.476233-6.068051 1.738457-1.309531.957023-2.372219 2.333306-2.690356 3.913385-.129841.60089-.620551 1.033994-1.09406 1.366364-.373675.268317-.784851.481533-1.213879.642763-.000002.000001-.000004.000002-.000007.000003-.923487.353262-1.940404.354852-2.906045.229324-1.064243-.08396-2.080974-.511513-2.967288-1.09952-.000001-.000001-.000003-.000002-.000005-.000003-1.094504-.724645-2.036951-1.678646-2.748822-2.781055-.705006-1.077329-1.09867-2.333337-1.271401-3.602601-.200055-1.464698-.13659-2.963657.174052-4.408141.692472-3.190269 2.625722-5.982922 4.862142-8.342254 2.336644-2.501806 5.187442-4.470148 8.163093-6.149102 3.26964-1.845204 6.716138-3.348772 10.161796-4.828268.000002-.000001.000004-.000002.000006-.000003 3.689334-1.547615 7.39487-3.058869 11.004525-4.778282.000002-.000001.000004-.000003.000006-.000004 3.407734-1.623364 6.744003-3.42913 9.772323-5.677912 0-.000001 0-.000003 0-.000004 2.46206-1.835071 4.69574-3.976195 6.63897-6.354503.75413-.92295 1.45179-1.891559 2.1115-2.885044m-.007.02236.003-4.153859.005 4.153859m.006-.01833c-.65806.994801-1.3542 1.964896-2.10705 2.889603-1.93975 2.382586-4.17089 4.528921-6.63171 6.369811-3.02669 2.255725-6.362214 4.068895-9.768712 5.698875-.000002.000001-.000004.000002-.000006.000003-3.608292 1.726516-7.312159 3.24473-10.99823 4.798568-3.442701 1.485508-6.884139 2.993952-10.144943 4.841957-2.967704 1.682008-5.807409 3.649526-8.128533 6.144576-2.222851 2.356532-4.141467 5.134871-4.818436 8.294369-.305041 1.430988-.365246 2.915125-.164741 4.36359.17394 1.253889.562973 2.490614 1.256634 3.544278.000001.000001.000002.000003.000003.000005.703318 1.084875 1.633798 2.023371 2.712495 2.734952.000002.000001.000004.000002.000006.000003.87259.574821 1.866546.992416 2.902474 1.070513.956183.119446 1.948363.118939 2.833704-.224996.000002-.000001.000004-.000001.000006-.000002.417144-.157822.815903-.365279 1.17661-.625381.457976-.335702.926689-.736952 1.027717-1.268808.329368-1.630218 1.411193-3.042814 2.748908-4.019705 1.763403-1.290135 4.000097-1.926802 6.181504-1.782461.950803.06448 1.844334.48757 2.600436 1.051943.869106.647107 1.573497 1.505121 2.072004 2.465496.53408 1.029265.820739 2.176847.899452 3.330765.05027.775584.0264 1.562751-.135508 2.328598-.164117.768414-.531745 1.469816-.892464 2.148176-.000001 0-.000002 0-.000003.00001-.810078 1.52897-1.890712 2.90851-3.149944 4.09363-1.142109 1.05676-2.432169 1.9474-3.800644 2.68408-1.642862.88455-3.413203 1.53296-5.240741 1.91336-1.448972.29771-2.929213.44615-4.408991.44284-1.876234-.008-3.750839-.25916-5.559106-.75941-2.84819-.83583-5.546451-2.20736-7.840775-4.09044-2.318776-1.90319-4.22066-4.331604-5.408878-7.088046-1.007123-2.379433-1.552257-4.951865-1.60447-7.534251-.05201-2.581056.41834-5.166351 1.340007-7.57605.000002-.000002.000002-.000004.000002-.000006.866007-2.260544 2.044222-4.400904 3.491308-6.340983 1.457486-1.953821 3.173679-3.709229 5.060545-5.249802 3.333441-2.679101 7.05525-4.854246 10.958074-6.595763 3.729095-1.663955 7.614181-2.947929 11.52666-4.104362.000002 0 .000004-.000001.000006-.000002 3.760311-1.171389 7.557781-2.223521 11.275958-3.513309.000002-.000001.000004-.000002.000005-.000003 3.296974-1.143809 6.532987-2.498113 9.531687-4.278271 0-.000002.00001-.000003.00001-.000003 2.43236-1.413105 4.71295-3.094498 6.73933-5.045218 1.66085-1.598753 3.14157-3.380864 4.46061-5.272879-1.31513 1.894733-2.7924 3.680233-4.45071 5.283158-2.02324 1.955749-4.30178 3.643032-6.73317 5.062258v.000002c-2.997592 1.787771-6.233572 3.150112-9.530262 4.301288-.000001 0-.000002 0-.000003.000001-3.71766 1.298157-7.513985 2.358454-11.271267 3.537376-.000131.000039-.000132.00004-.000133.00004-3.908483 1.164126-7.787449 2.454852-11.506743 4.123824-3.892188 1.746541-7.600993 3.924271-10.918627 6.602235-1.876008 1.5383-3.580742 3.28916-5.02627 5.23561-1.435143 1.932344-2.602192 4.063002-3.458305 6.31161 0 .000001-.000001.000003-.000001.000005-.909523 2.393006-1.37073 4.958294-1.313686 7.515591.05697 2.559828.60266 5.108373 1.605004 7.462787 1.179899 2.723495 3.067919 5.122353 5.366071 7.001223h.000004c2.274116 1.85932 4.9495 3.21148 7.770242 4.0334 2.312448.63483 4.736154.85804 7.129504.68022" fill-rule="evenodd" opacity=".51046" stroke="#000" stroke-width=".504603"/><path d="m84.910656 85.920492-14.717213 7.086065" fill="none" stroke="#cd0000" stroke-width=".109016"/><path d="m84.910656 83.740164v.545082 2.180328.545082h.545082 2.180328.545082v-.545082-2.72541h-2.72541zm.545082.545082h2.180328v2.180328h-2.180328z" fill="#006fc2" opacity=".401674"/><path d="m67.468033 91.916393v.545082 2.180328.545082h.545082 2.180328.545082v-.545082-2.72541h-2.72541zm.545082.545082h2.180328v2.180328h-2.180328z" fill="#0075cd" opacity=".401674"/><path d="m76.189344 88.10082v2.72541h2.72541v-2.72541zm.545082.545082h1.635246v1.635246h-1.635246z" fill="url(#o)" opacity=".401674"/><path d="m44.930436 57.955508v7.356931h7.356931c0-1.666667 0-5.690264 0-7.356931zm1.838679 1.84098h3.678373v3.678373h-3.678373z" fill="#0075cd"/><path d="m48.608901 65.312439v45.980821h1.839233v-45.980821z" fill="url(#p)"/><path d="m50.447488 91.062662v-3.678374h-3.678373v3.678374z" fill="url(#q)"/><path d="m44.930436 109.45402v7.35693h7.356931v-7.35693zm1.838679 1.8397h3.678373v3.67837h-3.678373z" fill="#0075cd"/></g><path clip-path="url(#f)" d="m113.9 82.502986c0 4.465301-5.09749 6.009952-7.57972 7.693625-5.10854 3.46508-16.139114 2.12536-21.920284 2.20638-.081 5.781159 1.66586 17.304599-1.79922 22.413139-1.68367 2.48224-4.69051 7.98687-7.60078 7.98687-2.091359 1.5337 3.488204 11.21101 6.734971 8.31989 9.501888-8.46107 45.998943-30.20138 54.218083-39.441569 2.04044-2.29392-17.0724-11.965986-22.05305-9.178335z" filter="url(#g)" opacity=".40099" transform="matrix(1.3299764 0 0 1.3299764 -36.963543 -37.156423)"/><path d="m111.99381 72.570604c0 5.938743-3.72059 8.525082-7.0219 10.764323-6.794238 4.608475-19.95169 4.558319-27.64051 4.666073-.107728 7.688805.303611 20.48508-4.304863 27.27932-2.239241 3.30132-7.036253 7.16441-10.906844 7.16441 3.082925 0 6.307865-1.7752 10.086567-5.4327 12.158605-11.76861 23.097887-21.459634 34.14469-33.645117 2.55216-2.815215 5.64286-4.843615 5.64286-10.796309z" fill="url(#e)"/><path d="m112.01875 73.115242c-.42084 5.185724-5.08438 7.318602-8.17936 9.417895-5.020443 3.405327-21.17479 2.801263-29.17459 2.801263 0 7.9998 1.619153 23.49711-2.7864 30.22372-1.912401 2.91993-4.654194 5.79882-8.19598 6.58338 2.633964-.48185 5.299865-2.47561 8.470288-5.54435.451018-.51674.763801-.90298 1.471286-1.99496 4.608475-6.79423 4.099678-18.412383 4.207406-26.10119 7.68882-.107728 20.028368-.145785 26.8226-4.754259.619-.41986 2.51897-1.313671 3.06727-1.861967 2.04322-2.043229 3.9922-4.273773 4.29748-8.769532zm-48.33633 49.026258c-.209681.0464-.416863.0551-.623426.0831.208794-.0225.412882-.0446.623426-.0831z" fill="#fff"/><path clip-path="url(#c)" d="m117.31456 81.861283-44.675455 43.487067" fill="none" filter="url(#d)" stroke="url(#a)" stroke-width="1.2" transform="matrix(1.3299764 0 0 1.3299764 -36.963543 -37.156423)"/><circle cx="10" cy="14" fill="url(#r)" r="2" stroke-width=".1" transform="matrix(1.13724273 0 0 1.13724273 9.960377 .44746)"/><circle cx="10" cy="14" fill="url(#s)" r="1.556" stroke-width=".1" transform="matrix(1.30633435 0 0 1.30633435 8.269456 -1.919825)"/><g stroke-width=".986667" transform="translate(.001602 .015061)"><path d="m13.331732 38.278272c26.828285-9.983661 60.417405-16.185767 98.666668-11.626667v-21.333333h-98.666665z" fill="#edf715"/><path d="m13.331732 38.278272c26.828285-9.983661 60.417405-16.185767 98.666668-11.626667v7.68c-44.222439-9.463511-68.634231-.089363-98.666668 3.946667z" fill="#c1cc5b"/></g><g stroke-width=".1"><circle cx="10" cy="14" fill="url(#r)" r="2" transform="matrix(1.3332997 0 0 1.33330005 7.999798 -2.482378)"/><circle cx="10" cy="14" fill="url(#s)" r="1.556" transform="matrix(1.53154217 0 0 1.53154257 6.017368 -5.257776)"/><circle cx="10" cy="14" fill="url(#r)" r="2" transform="matrix(1.3332997 0 0 1.33330005 7.999798 10.850622)"/><circle cx="10" cy="14" fill="url(#s)" r="1.556" transform="matrix(1.53154217 0 0 1.53154257 6.017368 8.075224)"/><circle cx="10" cy="14" fill="url(#r)" r="2" transform="matrix(1.3332997 0 0 1.33330005 7.999798 24.183622)"/><circle cx="10" cy="14" fill="url(#s)" r="1.556" transform="matrix(1.53154217 0 0 1.53154257 6.017368 21.408224)"/><circle cx="10" cy="14" fill="url(#r)" r="2" transform="matrix(1.3332997 0 0 1.33330005 7.999798 37.51662)"/><circle cx="10" cy="14" fill="url(#s)" r="1.556" transform="matrix(1.53154217 0 0 1.53154257 6.017368 34.741222)"/><circle cx="10" cy="14" fill="url(#r)" r="2" transform="matrix(1.3332997 0 0 1.33330005 7.999798 50.84962)"/><circle cx="10" cy="14" fill="url(#s)" r="1.556" transform="matrix(1.53154217 0 0 1.53154257 6.017368 48.074222)"/><circle cx="10" cy="14" fill="url(#r)" r="2" transform="matrix(1.3332997 0 0 1.33330005 7.999798 64.18262)"/><circle cx="10" cy="14" fill="url(#s)" r="1.556" transform="matrix(1.53154217 0 0 1.53154257 6.017368 61.407222)"/><circle cx="10" cy="14" fill="url(#r)" r="2" transform="matrix(1.3332997 0 0 1.33330005 7.999798 77.51562)"/><circle cx="10" cy="14" fill="url(#s)" r="1.556" transform="matrix(1.53154217 0 0 1.53154257 6.017368 74.740222)"/><circle cx="10" cy="14" fill="url(#r)" r="2" transform="matrix(1.3332997 0 0 1.33330005 7.999798 90.84862)"/><circle cx="10" cy="14" fill="url(#s)" r="1.556" transform="matrix(1.53154217 0 0 1.53154257 6.017368 88.073222)"/></g></g></svg>