<svg height="48" width="48" xmlns="http://www.w3.org/2000/svg" xmlns:xlink="http://www.w3.org/1999/xlink"><radialGradient id="a" cx="90.750004" cy="110.252967" gradientUnits="userSpaceOnUse" r="24.501278" xlink:href="#c"/><linearGradient id="b"><stop offset="0" stop-color="#fff"/><stop offset="1" stop-color="#fff" stop-opacity="0"/></linearGradient><linearGradient id="c" xlink:href="#b"/><clipPath id="d"><path d="m112 82.502986c0 4.465301-2.79749 6.409952-5.27972 8.093625-5.10854 3.46508-14.939114 3.32536-20.720284 3.40638-.081 5.781159.16586 15.504599-3.29922 20.613139-1.68367 2.48224-5.29051 5.38687-8.20078 5.38687 2.31803 0 4.74284-1.33476 7.58402-4.08481 9.14197-8.84873 17.36714-16.13535 25.673154-25.297529 1.91895-2.116745 4.24283-3.641881 4.24283-8.117675z"/></clipPath><filter id="e" color-interpolation-filters="sRGB"><feGaussianBlur stdDeviation=".43040059"/></filter><linearGradient id="f" gradientUnits="userSpaceOnUse" x1="78.587481" x2="89.952971" y1="87.537425" y2="98.902918"><stop offset="0" stop-color="#fcfcfc"/><stop offset=".52275378" stop-color="#f8f8f8"/><stop offset=".72337759" stop-color="#f0efef"/><stop offset=".89024991" stop-color="#e3e1e1"/><stop offset="1" stop-color="#cecbcb"/></linearGradient><clipPath id="g"><path d="m17.000001 8 .782827 110h57.5c1.675283 0 3.119418.18058 4.9-1.6 8.797935-8.79794 19.757642-19.851805 27.016212-27.175957 2.44056-2.462612 2.80096-4.47117 2.80096-6.724043v-74.5z"/></clipPath><filter id="h" color-interpolation-filters="sRGB" height="1.241294" width="1.225275" x="-.112638" y="-.120647"><feGaussianBlur stdDeviation="2.3860572"/></filter><radialGradient id="i" cx="64" cy="64.004021" fx="63.793392" fy="47.274845" gradientTransform="matrix(1.6842105 -.08429519 .06886339 1.3758846 -48.197001 -18.66323)" gradientUnits="userSpaceOnUse" r="47.5" xlink:href="#c"/><filter id="j" color-interpolation-filters="sRGB" height="2.025501" width="1.957419" x="-.478709" y="-.512751"><feGaussianBlur stdDeviation="10.140743"/></filter><linearGradient id="k" gradientUnits="userSpaceOnUse" x1="72" x2="72" y1=".000003" y2="116.400913"><stop offset="0" stop-color="#eeecec"/><stop offset=".40000001" stop-color="#f4f4f4"/><stop offset="1" stop-color="#f6f5f5"/></linearGradient><filter id="l"><feGaussianBlur stdDeviation="1.5615"/></filter><filter id="m"><feGaussianBlur stdDeviation="2.028"/></filter><filter id="n" color-interpolation-filters="sRGB"><feGaussianBlur stdDeviation="1.1263538"/></filter><filter id="o" color-interpolation-filters="sRGB"><feGaussianBlur stdDeviation="1.7201646"/></filter><clipPath id="p"><path d="m18.1875 56c-1.219674 0-2.1875.967827-2.1875 2.1875v17.0625c9.640301 2.396967 20.509296 3.75 32 3.75s22.359699-1.353033 32-3.75v-17.0625c0-1.219674-.967827-2.1875-2.1875-2.1875z" filter="url(#q)"/></clipPath><filter id="q" color-interpolation-filters="sRGB" height="1.294962" width="1.106002" x="-.053001" y="-.147481"><feGaussianBlur stdDeviation="1.4133574"/></filter><radialGradient id="r" cx="100.88867" cy="155.99673" gradientTransform="matrix(3.4893491 0 0 3.0920433 -151.27355 -304.55345)" gradientUnits="userSpaceOnUse" r="40"><stop offset="0" stop-color="#efefef"/><stop offset=".18851049" stop-color="#f9f9f9"/><stop offset=".25718147" stop-color="#fafafa"/><stop offset=".30111277" stop-color="#fff"/><stop offset=".5313" stop-color="#fafafa"/><stop offset=".8449" stop-color="#ebecec"/><stop offset="1" stop-color="#e1e2e3"/></radialGradient><linearGradient id="s" gradientTransform="matrix(.7474326 0 0 .77771123 124.22319 41.794009)" gradientUnits="userSpaceOnUse" x1="58.170628" x2="58.170628" y1="55.885925" y2="94.973244"><stop offset="0" stop-color="#0590ff"/><stop offset="1" stop-color="#c6e6ff"/></linearGradient><linearGradient id="t" gradientUnits="userSpaceOnUse" x1="52" x2="52" y1="52" y2="60"><stop offset="0"/><stop offset="1" stop-opacity="0"/></linearGradient><linearGradient id="u" gradientUnits="userSpaceOnUse" x1="56" x2="56" xlink:href="#b" y1="32" y2="88.117546"/><clipPath id="v"><path d="m19.166667 2.6666693c-.33984 0-.5.2346186-.5.5v109.9687407c0 .82158.67932 1.49946 1.5 1.5l47.5.0313c.05309.00004 3.27388-.008 3.963499.00005 6.540971-4.50365 29.967904-28.953319 38.913134-37.95513 1.47685-1.656491.4576-.370069 1.45391-1.607461l.00006-71.9375044c0-.3227171-.16323-.5-.5-.5z"/></clipPath><linearGradient id="w"><stop fill="none" offset="0" stop-color="#4e3e27"/><stop fill="none" offset="1" stop-color="#816840"/></linearGradient><linearGradient id="x" gradientTransform="matrix(-.00000005 1 -1 -.00000005 42 -70.0005)" gradientUnits="userSpaceOnUse" x1="86" x2="86" xlink:href="#w" y1="31.9995" y2="29.9995"/><filter id="y" color-interpolation-filters="sRGB" height="1.027184" width="1.29359" x="-.146795" y="-.013592"><feGaussianBlur stdDeviation=".61164653"/></filter><linearGradient id="z" gradientTransform="matrix(-.00000005 1.0475928 -1.1110833 -.00000005 59.998495 -67.995623)" gradientUnits="userSpaceOnUse" x1="126" x2="126" y1="41.9995" y2="29.9995"><stop offset="0" stop-color="#a58b5a"/><stop offset=".5444" stop-color="#c5ab6d"/></linearGradient><linearGradient id="A" gradientTransform="matrix(-.00000005 1 -1 -.00000005 42 -70.0005)" gradientUnits="userSpaceOnUse" x1="126" x2="126" y1="30.0005" y2="34.0005"><stop offset="0" stop-color="#ddc98f"/><stop offset="1" stop-color="#f4eab9"/></linearGradient><linearGradient id="B" gradientTransform="matrix(-.00000005 1.0475928 -1.0949531 -.00000005 63.925134 -67.995621)" gradientUnits="userSpaceOnUse" x1="74.001999" x2="74.001999" xlink:href="#w" y1="38.799301" y2="35.901901"/><linearGradient id="C" gradientTransform="matrix(-.00000005 1.0475928 -1.0949531 -.00000005 63.525134 -67.995621)" gradientUnits="userSpaceOnUse" x1="93.830101" x2="93.830101" xlink:href="#x" y1="38.5513" y2="35.964401"/><linearGradient id="D" gradientTransform="matrix(-.00000005 1.0475928 -1.0949531 -.00000005 63.625134 -67.595621)" gradientUnits="userSpaceOnUse" x1="114.0479" x2="114.0479" xlink:href="#x" y1="38.901901" y2="35.901901"/><linearGradient id="E" gradientTransform="matrix(-.00000005 1.0475928 -1.0949531 -.00000005 63.625134 -66.995621)" gradientUnits="userSpaceOnUse" x1="134.0137" x2="134.0137" xlink:href="#x" y1="38.964401" y2="35.964401"/><linearGradient id="F" gradientTransform="matrix(-.00000005 1.0475928 -1.0949531 -.00000005 63.725134 -66.795621)" gradientUnits="userSpaceOnUse" x1="154.08009" x2="154.08009" xlink:href="#x" y1="38.964401" y2="35.964401"/><linearGradient id="G" gradientTransform="matrix(-.00000005 1.0475928 -1.0949531 -.00000005 63.725134 -66.195621)" gradientUnits="userSpaceOnUse" x1="173.99409" x2="173.99409" xlink:href="#x" y1="38.901901" y2="35.901901"/><g transform="matrix(.375 0 0 .375 -.000001 0)"><path d="m13.333 5.3364v117.8304l49.8545.4332c2.115476.0184 4.528919-1.77169 7-4.25.71234-.71442 1.440746-1.39395 2.15625-2.09375.415612-.40649.832187-.81443 1.25-1.21875 7.773958-7.40962 26.98341-25.122599 34.21875-33.099999.42065-.42064.81207-.8111 1.15625-1.1875 1.46444-1.49766 2.76158-2.8378 2.99375-5.8625l.0375-.73125-.0028-69.819851z" filter="url(#m)" opacity=".456067"/><path d="m13.333 5.3364v118.3304l49.3318.3c1.527964 0 3.65713-.98408 6.387944-2.83388 13.12308-9.55847 28.444696-29.242774 39.697346-40.632849 1.74325-1.74325 3.24991-3.03751 3.24991-7.20007l-.0028-67.963601z" fill-opacity=".847162" filter="url(#l)"/><path d="m13.333 5.3364v117.3304h49.3318c1.675283 0 3.914297-.56468 7-3.6 8.870045-8.72523 32.07567-31.518599 39.33424-38.842759 2.44056-2.46261 3.00096-4.47117 3.00096-6.72404l-.0028-68.163601z" fill="#fff"/><path d="m16.5 8.000003c-.339844 0-.5.234618-.5.5v109.968747c0 .82158.679323 1.5 1.5 1.5h48.6875c.05308 0 .810384.0234 1.5.0313 1.777664-.0401 3.131974-.75374 4.356035-1.59328 1.051866-.29103 25.980435-26.619589 35.101555-35.809239 1.36239-1.37262 2.18546-3.94817 2.18546-4.89561l.00005-69.201918c0-.322717-.16322-.5-.5-.5z" fill="url(#k)"/><path d="m16.5 8.000003c-.339844 0-.5.234618-.5.5v109.968747c0 .82158.679323 1.49946 1.5 1.5l47.5.0313c.05308.00003 3.273884-.008 3.9635.00005 6.540972-4.50366 29.9679-28.953329 38.91313-37.955139 1.47685-1.65649.4576-.37007 1.45391-1.60746l.00006-71.937498c0-.322717-.16322-.5-.5-.5z" fill="url(#i)" opacity=".846535"/><g clip-path="url(#v)" transform="translate(-2.666667 5.333334)"><g transform="translate(-85.19843 -40.08614)"><path d="m21.288542 44.460625c-3.884437 0-7 3.146813-7 7.03125v52.937915c0 3.88444 3.115563 7 7 7h59.711458c3.884437 0 7-3.11556 7-7v-52.937915c0-3.884437-3.115563-7.03125-7-7.03125h-4.826875v2.99375c0 .95614-.762611 1.71875-1.71875 1.71875h-9.135625c-.95614 0-1.71875-.762611-1.71875-1.71875v-2.99375z" filter="url(#o)" stroke="#000" transform="matrix(.79509695 0 0 .79509695 119.1853 40.066767)"/><path d="m136.00472 74.667997c-2.91644 0-5.26752 2.351077-5.26752 5.267517l-.0738 42.853076c0 2.91645 2.41688 5.33332 5.33332 5.33332h47.99098c2.91644 0 5.33332-2.41687 5.33332-5.33332l.008-42.787273c0-2.916439-2.35108-5.267517-5.26752-5.267517l-5.3993-.0658v1.33333c0 .760223-.60635 1.366573-1.36657 1.366573h-5.26666c-.76022 0-1.36657-.60635-1.36657-1.366573v-1.33333z" fill="#fff"/><path d="m135.53788 76.463715c-2.06919.191852-3.54165 1.812783-3.54165 3.958323v42.866552c0 2.28858 1.66974 3.95832 3.95832 3.95832h48.0332c2.28857 0 3.95832-1.66974 3.95832-3.95832v-42.866552c0-2.288574-1.66974-3.958323-3.95832-3.958323h-4.29165v.491663c0 .972303-.77769 1.749996-1.75 1.749996h-6.91665c-.97231 0-1.75-.777692-1.75-1.749996v-.491663h-33.3249c-.14304 0-.27872-.0128-.41667 0z" fill="url(#r)"/><rect fill="url(#s)" height="37.330135" rx="1.645531" ry="1.712191" width="47.835686" x="136.18211" y="85.345833"/><rect fill="url(#t)" filter="url(#n)" height="32" rx="2.201577" transform="matrix(.7474326 0 0 .77771123 124.22319 41.794009)" width="64" x="16" y="56"/><path d="m136.19562 121.0525v.77771c0 .94856.72339 1.70125 1.63501 1.70125h44.56567c.91162 0 1.635-.75269 1.635-1.70125v-.77771c0 .94855-.72338 1.70124-1.635 1.70124h-44.56567c-.91162 0-1.63501-.75269-1.63501-1.70124z" fill="#fff"/><path clip-path="url(#p)" d="m18.1875 56c-1.219674 0-2.1875.967827-2.1875 2.1875v17.0625c9.640301 2.396967 20.509296 3.75 32 3.75s22.359699-1.353033 32-3.75v-17.0625c0-1.219674-.967827-2.1875-2.1875-2.1875z" fill="url(#u)" filter="url(#q)" transform="matrix(.7474326 0 0 .77771123 124.22319 41.794009)"/></g><g clip-path="none" transform="translate(-93.19843 -26.78614)"><path d="m21.288542 44.460625c-3.884437 0-7 3.146813-7 7.03125v52.937915c0 3.88444 3.115563 7 7 7h59.711458c3.884437 0 7-3.11556 7-7v-52.937915c0-3.884437-3.115563-7.03125-7-7.03125h-4.826875v2.99375c0 .95614-.762611 1.71875-1.71875 1.71875h-9.135625c-.95614 0-1.71875-.762611-1.71875-1.71875v-2.99375z" filter="url(#o)" stroke="#000" transform="matrix(.79509695 0 0 .79509695 119.1853 40.066767)"/><path d="m136.00472 74.667997c-2.91644 0-5.26752 2.351077-5.26752 5.267517l-.0738 42.853076c0 2.91645 2.41688 5.33332 5.33332 5.33332h47.99098c2.91644 0 5.33332-2.41687 5.33332-5.33332l.008-42.787273c0-2.916439-2.35108-5.267517-5.26752-5.267517l-5.3993-.0658v1.33333c0 .760223-.60635 1.366573-1.36657 1.366573h-5.26666c-.76022 0-1.36657-.60635-1.36657-1.366573v-1.33333z" fill="#fff"/><path d="m135.53788 76.463715c-2.06919.191852-3.54165 1.812783-3.54165 3.958323v42.866552c0 2.28858 1.66974 3.95832 3.95832 3.95832h48.0332c2.28857 0 3.95832-1.66974 3.95832-3.95832v-42.866552c0-2.288574-1.66974-3.958323-3.95832-3.958323h-4.29165v.491663c0 .972303-.77769 1.749996-1.75 1.749996h-6.91665c-.97231 0-1.75-.777692-1.75-1.749996v-.491663h-33.3249c-.14304 0-.27872-.0128-.41667 0z" fill="url(#r)"/><rect fill="url(#s)" height="37.330135" rx="1.645531" ry="1.712191" width="47.835686" x="136.18211" y="85.345833"/><rect fill="url(#t)" filter="url(#n)" height="32" rx="2.201577" transform="matrix(.7474326 0 0 .77771123 124.22319 41.794009)" width="64" x="16" y="56"/><path d="m136.19562 121.0525v.77771c0 .94856.72339 1.70125 1.63501 1.70125h44.56567c.91162 0 1.635-.75269 1.635-1.70125v-.77771c0 .94855-.72338 1.70124-1.635 1.70124h-44.56567c-.91162 0-1.63501-.75269-1.63501-1.70124z" fill="#fff"/><path clip-path="url(#p)" d="m18.1875 56c-1.219674 0-2.1875.967827-2.1875 2.1875v17.0625c9.640301 2.396967 20.509296 3.75 32 3.75s22.359699-1.353033 32-3.75v-17.0625c0-1.219674-.967827-2.1875-2.1875-2.1875z" fill="url(#u)" filter="url(#q)" transform="matrix(.7474326 0 0 .77771123 124.22319 41.794009)"/></g></g><g stroke-width=".986667" transform="translate(.001602 .015061)"><path d="m13.331732 38.278272c26.828285-9.983661 60.417405-16.185767 98.666668-11.626667v-21.333333h-98.666665z" fill="#e3913a"/><path d="m13.331732 38.278272c26.828285-9.983661 60.417405-16.185767 98.666668-11.626667v7.68c-44.222439-9.463511-68.634231-.089363-98.666668 3.946667z" fill="#cc955b"/></g><path clip-path="url(#g)" d="m114.4 82.502986c0 4.465301-4.99749 5.909952-7.47972 7.593625-5.10854 3.46508-18.362065-1.446073-24.143235-1.365053-.081 5.781159 3.371639 20.976032-.09344 26.084572-1.68367 2.48224-5.573338 8.68687-8.483608 8.68687-2.091359 1.5337 3.488204 8.21101 6.734971 5.31989 9.501888-8.46107 35.131682-30.022704 43.350822-39.262889 2.04044-2.29392-4.90514-9.844666-9.88579-7.057015z" filter="url(#j)" opacity=".34728" transform="matrix(1.2774204 0 0 1.2774204 -31.076286 -28.013102)"/><path clip-path="url(#g)" d="m113.9 82.502986c0 4.465301-5.09749 6.009952-7.57972 7.693625-5.10854 3.46508-16.139114 2.12536-21.920284 2.20638-.081 5.781159 1.66586 17.304599-1.79922 22.413139-1.68367 2.48224-4.69051 7.98687-7.60078 7.98687-2.091359 1.5337 3.488204 11.21101 6.734971 8.31989 9.501888-8.46107 45.998943-30.20138 54.218083-39.441569 2.04044-2.29392-17.0724-11.965986-22.05305-9.178335z" filter="url(#h)" opacity=".40099" transform="matrix(1.3299764 0 0 1.3299764 -36.963543 -37.156423)"/><path d="m111.99381 72.570604c0 5.938743-3.72059 8.525082-7.0219 10.764323-6.794238 4.608475-19.95169 4.558319-27.64051 4.666073-.107728 7.688805.303611 20.48508-4.304863 27.27932-2.239241 3.30132-7.036253 7.16441-10.906844 7.16441 3.082925 0 6.307865-1.7752 10.086567-5.4327 12.158605-11.76861 23.097887-21.459634 34.14469-33.645117 2.55216-2.815215 5.64286-4.843615 5.64286-10.796309z" fill="url(#f)"/><path d="m112.01875 73.115242c-.42084 5.185724-5.08438 7.318602-8.17936 9.417895-5.020443 3.405327-21.17479 2.801263-29.17459 2.801263 0 7.9998 1.619153 23.49711-2.7864 30.22372-1.912401 2.91993-4.654194 5.79882-8.19598 6.58338 2.633964-.48185 5.299865-2.47561 8.470288-5.54435.451018-.51674.763801-.90298 1.471286-1.99496 4.608475-6.79423 4.099678-18.412383 4.207406-26.10119 7.68882-.107728 20.028368-.145785 26.8226-4.754259.619-.41986 2.51897-1.313671 3.06727-1.861967 2.04322-2.043229 3.9922-4.273773 4.29748-8.769532zm-48.33633 49.026258c-.209681.0464-.416863.0551-.623426.0831.208794-.0225.412882-.0446.623426-.0831z" fill="#fff"/><path clip-path="url(#d)" d="m117.31456 81.861283-44.675455 43.487067" fill="none" filter="url(#e)" stroke="url(#a)" stroke-width="1.2" transform="matrix(1.3299764 0 0 1.3299764 -36.963543 -37.156423)"/><g transform="translate(.001602 -.001601)"><path d="m18 11h10.176779v108h-10.176779z" filter="url(#y)" transform="matrix(1.1488785 0 0 1.0669927 -5.077749 -5.352926)"/><path d="m13.333 5.3364h13.333v117.3304h-13.333z" fill="url(#z)"/><path d="m8 111v-110l4-1v112z" fill="url(#A)" opacity=".8" transform="matrix(1.1433443 0 0 1.0475929 12.945868 5.3364)"/><path d="m24.614128 9.5236296c0 .3195158-.139059.5740804-.414987.7657904-.277023.191709-.683251.28704-1.219778.28704-.46864 0-.843114-.09533-1.120137-.285992-.279213-.19171-.418272-.4420846-.418272-.7521721 0-.2273277.07336-.4242751.222276-.5929376.150008-.1686624.348195-.2891356.594559-.3593243.24746-.069141.511343-.1047593.793841-.1047593.47302 0 .850779.097426 1.135467.2912308.284687.1938047.427031.4441794.427031.7511241zm-.56828.00838c0-.1152352-.08322-.203233-.248555-.2608506-.164243-.058665-.411702-.087998-.741283-.087998-.348195 0-.609889.029333-.783986.08695-.171908.057618-.259504.1435202-.259504.2577079 0 .11314.08431.1969474.252934.2535174.167528.05657.421557.083808.758802.083808.340531 0 .595655-.027238.765373-.08276.169717-.055522.256219-.1382822.256219-.2503747z" fill="url(#B)"/><path d="m24.145146 30.29111v.533225h-2.832644v-.620175h1.800103v-.427418h.489444v.09952c0 .130949.03723.232566.112781.305897.07446.07228.187237.10895.33615.10895h.09417z" fill="url(#C)"/><path d="m24.127986 50.976697c.12373.233614.186142.476655.186142.729125 0 .153996-.02847.302754-.08541.445227-.05803.142473-.147819.257708-.271548.348848-.12373.09114-.269359.13514-.434697.13514-.160958 0-.304397-.04295-.428127-.128854-.123729-.0859-.226655-.216852-.310966-.389705-.03942.22209-.122635.389705-.24965.50075-.125919.111045-.296732.166567-.511343.166567-.289067 0-.525577-.100569-.712814-.300659s-.281403-.460941-.281403-.781504c0-.228376.05694-.47037.168623-.724935h.699675c-.159863.207424-.2387.4138-.2387.615985 0 .124664.04161.23047.124825.317421.08322.08695.183952.130949.303302.130949.113875 0 .206946-.0419.280308-.126759.07336-.08486.1084-.193805.1084-.324754v-.318468h.552951v.209519c0 .12152.02847.221042.08541.299611.05803.07962.136869.118378.241984.118378.09636 0 .175193-.03562.2387-.104759.06241-.07019.09307-.157139.09307-.263994 0-.158186-.08103-.342562-.244174-.553129h.68544z" fill="url(#D)"/><path d="m24.245146 73.382342v.751124h-1.774919v.366658h-.569375v-.366658h-.940565v-.751124h.940565v-1.088449h.614268zm-.94166 0-.833259-.516463v.516463z" fill="url(#E)"/><path d="m24.345146 93.711838v1.615389h-.609889v-.884169h-.58799c.102926.121521.154389.241994.154389.36561 0 .167615-.08322.327897-.250744.48294-.167528.157139-.416083.233614-.745663.233614-.365715 0-.663542-.100569-.895672-.30485s-.348195-.468274-.348195-.794075c0-.212662.06022-.450465.179572-.714459h.725954c-.177382.229423-.266074.433704-.266074.609699 0 .126759.05475.233614.163148.319516.108401.0859.24527.130949.408418.130949.118255 0 .214611-.022.292352-.06914.07665-.04505.11497-.104759.11497-.1739 0-.07333-.05037-.13514-.148913-.182281v-.633794h1.814337v-.001z" fill="url(#F)"/><path d="m23.030107 115.81054c.107306.0807.187237.16342.239795.25037.05256.087.07884.176.07884.26609 0 .21371-.105116.3939-.313157.54265-.208041.14876-.456595.22209-.745663.22209-.327391 0-.603319-.0922-.825594-.27761-.224466-.18437-.336151-.4117-.336151-.67989 0-.28599.135774-.53532.408417-.74693.272644-.21266.669017-.31952 1.192404-.31952.300018 0 .578136.044.83545.13305.256219.088.46207.22523.616458.4117.155484.18543.23213.40856.23213.66837 0 .18123-.04599.38656-.139059.61598h-.716099c.153293-.20114.228845-.37504.228845-.5217 0-.14143-.06241-.26609-.183952-.37504-.12373-.11-.314252-.17285-.572661-.18961zm-.677775 0c-.190522.0189-.336151.0566-.435792.11314-.100736.0587-.151103.12361-.151103.19694 0 .0681.04599.12676.137964.17391.09088.0471.205851.0691.34491.0691.131394 0 .23651-.022.317536-.0649.08103-.044.120445-.10267.120445-.17705 0-.0534-.02737-.1058-.08212-.15714-.05475-.0503-.139059-.10266-.251839-.15399z" fill="url(#G)"/><g fill="#fff"><path d="m13.333 5.3364h13.333v2.066138h-13.333z" opacity=".535565"/><path d="m13.333-122.6668h2.159545v115.26427h-2.159545z" opacity=".535565" transform="scale(1 -1)"/></g></g></g></svg>