<svg height="24" viewBox="0 0 24 24" width="24" xmlns="http://www.w3.org/2000/svg" xmlns:xlink="http://www.w3.org/1999/xlink"><linearGradient id="a" gradientTransform="matrix(.83333333 0 0 1 5.999999 1.000017)" gradientUnits="userSpaceOnUse" x1="35" x2="35" xlink:href="#b" y1="1031.3622" y2="1033.3622"/><linearGradient id="b"><stop offset="0" stop-color="#fff"/><stop offset=".47000003" stop-color="#fff" stop-opacity=".784314"/><stop offset=".75125003" stop-color="#fff" stop-opacity=".283465"/><stop offset="1" stop-color="#fff"/></linearGradient><linearGradient id="c" gradientTransform="matrix(.83333333 0 0 1 5.833333 0)" gradientUnits="userSpaceOnUse" x1="35" x2="35" xlink:href="#b" y1="1039.3622" y2="1042.3622"/><linearGradient id="d" gradientTransform="matrix(.83333333 0 0 .85714286 5.833333 148.62317)" gradientUnits="userSpaceOnUse" x1="30" x2="40" xlink:href="#b" y1="1036.8622" y2="1036.8622"/><linearGradient id="e" gradientUnits="userSpaceOnUse" x1="34" x2="36" xlink:href="#b" y1="42.5" y2="42.5"/><linearGradient id="f" gradientTransform="matrix(.83333333 0 0 .85714286 5.833333 148.62317)" gradientUnits="userSpaceOnUse" x1="35" x2="35" xlink:href="#g" y1="1033.3622" y2="1035.6956"/><linearGradient id="g"><stop offset="0"/><stop offset="1" stop-opacity="0"/></linearGradient><linearGradient id="h" gradientUnits="userSpaceOnUse" x1="35" x2="35" xlink:href="#g" y1="38" y2="42"/><filter id="i" color-interpolation-filters="sRGB" height="1.065726" width="1.117834" x="-.058917" y="-.032863"><feGaussianBlur stdDeviation=".27855661"/></filter><g transform="matrix(-.83937365 .83937365 .83937365 .83937365 -831.70022 -890.45342)"><path d="m30.818835 1032.1716c-.301758.2983-.494463.7209-.494463 1.1809v.021c0 .6256.413861 1.0694.931917 1.3531l-.869091 5.218c-.587021.2617-1.061059.7418-1.061059 1.4194 0 .9156.757405 1.6731 1.673029 1.6731h2.326884v2.3245a.6740074.6740074 0 0 0 .01047.1106l.999397 5.9998a.6740074.6740074 0 0 0 1.32865 0l.999397-5.9998a.6740074.6740074 0 0 0 .0093-.1117l.0012-2.3234h2.32572c.915624 0 1.67303-.7574 1.67303-1.673 0-.6776-.472876-1.1566-1.059896-1.4183l-.869091-5.218c.518056-.2837.931917-.7275.931917-1.3531l-.0012-.022c0-.9136-.761379-1.6637-1.67303-1.6637h-6.00336c-.455258 0-.878044.1855-1.17973.484zm.474684.4793c.18075-.1788.428046-.2885.705046-.2885h6.00336c.554 0 .998233.441.998233.9889l.0012.022c0 .5478-.44656.9889-1.00056.9889l.999396 5.9999c.554 0 .999397.4454.999397.9994s-.44656 1.0006-1.00056 1.0006h-2.999353v2.9993l-.999397 5.9999-1.00056-5.9987.0012-3.0005h-3.000516c-.554 0-1.00056-.4465-1.00056-1.0005s.44656-1.0006 1.00056-1.0006l.998233-6.001c-.554 0-.999397-.44-.999397-.9878v-.023c0-.274.113601-.5206.294351-.6993z" fill-opacity=".698276" filter="url(#i)"/><rect fill="url(#a)" height="2.000017" rx="1" ry=".988951" width="8" x="31" y="1032.3622"/><rect fill="url(#c)" height="2" rx="1" width="10" x="30" y="1040.3622"/><path d="m32 1034.3622h6l1 6h-8z" fill="url(#d)"/><path d="m34 38h2v3l-1 6-1-6z" fill="url(#e)" transform="translate(0 1004.3622)"/><path d="m32 1034.3622h6l1 6h-8z" fill="url(#f)" opacity=".35"/><path d="m34 38h2v3l-1 6-1-6z" fill="url(#h)" opacity=".35" transform="translate(0 1004.3622)"/></g></svg>