<svg height="32" width="32" xmlns="http://www.w3.org/2000/svg" xmlns:xlink="http://www.w3.org/1999/xlink"><filter id="a" color-interpolation-filters="sRGB" height="1.096" width="1.096" x="-.048" y="-.048"><feGaussianBlur stdDeviation=".56026913"/></filter><circle cx="15.932203" cy="16.61017" filter="url(#a)" opacity=".25" r="14.006728" stroke-width="1.077441"/><circle cx="16" cy="16" fill="#0b15c0" r="14.006728" stroke-width="1.077441"/><circle cx="16" cy="16" fill="#495fd6" r="13"/><path d="m17.64092 7.0019531c-1.550397-.085042-2.360227 2.5001408-.886894 3.2070309 1.195304.506672 2.496425-.7611987 2.204418-2.0273434-.090621-.6592922-.663724-1.2018651-1.317524-1.1796875zm-.664744 5.6855469c-.249696-.0212-.542459.07136-.859552.318359-1.519556.684048-2.789931 1.80118-4.116624 2.802735.166504.467839.354396.846655.753603.328125.494929-.304362 2.153332-1.638824 1.987395-.332031-.530993 2.41814-1.17706 4.810737-1.671257 7.236328-.516753 1.328119.65799 2.531651 1.883155 1.667968 1.30227-.554883 2.421553-1.459952 3.566373-2.289062-.156204-.395946-.260481-.965074-.692085-.447266-.566719.265868-1.805288 1.520158-2.035242.486328.476035-2.61841 1.358674-5.138797 1.922458-7.736328.389121-.895755.01088-1.971539-.738224-2.035156z" fill="#fff"/></svg>