<svg height="96" viewBox="0 0 96 96" width="96" xmlns="http://www.w3.org/2000/svg"><g fill="#efefef"><path d="m91 7c0 2.7614237-9.938529 21.298579-12.168734 22.926967-1.857334 1.356135-.834981-16.695831-.893766-20.051967-.064475-3.6809589 4.176076-8 8.0625-7.875 2.759997.08877 5 2.2385763 5 5z" opacity=".5"/><path d="m61.883038 82.999991q-3.731073 0-5.811863-1.937288-2.00904-2.009039-2.00904-5.381355 0-3.228814 1.219774-8.968926l1.219774-5.596609q.358757-1.435028.861017-3.946328.574011-2.511299.574011-4.305084 0-1.363276-.574011-2.726553-.574011-1.435028-2.511299-1.435028-1.865537 0-3.659322 1.578531-1.793785 1.578531-3.444067 4.018078-1.578531 2.439548-2.726554 5.09435-1.148022 2.654802-1.650282 4.807344l-.789265 3.874576q-.215255 1.076271-.50226 3.013559-.287006 1.865536-.645763 4.08983-.287005 2.224293-.50226 4.161581-.215254 1.937288-.287005 3.085311h-9.471186q.07175-1.219774.287006-3.228814.287006-2.009039.645763-4.376835.430508-2.367797.789265-4.59209.430509-2.224294.789266-3.874576l1.148022-5.237852q.50226-2.439548.861017-4.663842.430508-2.224293.430508-3.515818 0-1.363277-.430508-2.726554-.430509-1.363276-2.296045-1.363276-1.937288 0-3.874576 1.650282-1.865536 1.578531-3.515819 4.018079-1.578531 2.439547-2.726553 5.094349-1.148022 2.583051-1.650282 4.663841l-3.946328 18.153106h-9.1841792l6.0271182-28.700562q.143503-.789265.287005-1.722034.143503-.932768.143503-1.363276 0-2.00904-1.148022-2.583051-1.076271-.574011-3.085311-.574011h-1.0045193l.6457623-3.515819h15.354801l-1.578531 7.964406h.574011q2.870056-4.520338 6.027118-6.601129 3.157062-2.080791 7.318643-2.080791 4.305084 0 6.027118 2.367796 1.722034 2.296045 1.722034 5.59661 0 .287006 0 .50226 0 .215254 0 .430508h.50226q2.726553-4.448587 5.883615-6.67288 3.157061-2.296045 7.533897-2.296045 4.376836 0 6.098869 2.439547 1.722034 2.439548 1.722034 5.668361 0 1.793785-.50226 4.018079-.430508 2.152542-.789265 4.018079l-1.722034 7.964405q-.430508 1.937288-.717514 3.802825-.287005 1.793785-.287005 3.300564 0 3.372316 2.511299 3.372316 1.148022 0 2.152542-.430508 1.004519-.430508 2.224293-1.219774l1.578531 2.296045q-1.722034 1.650282-4.233333 3.157062-2.439547 1.435028-5.883615 1.435028z" opacity=".5" stroke-linecap="square" stroke-opacity=".566502"/><path d="m88.998055 80.015692c0-.255923-.0977-.511769-.292952-.70703-.390519-.390525-1.023541-.390525-1.414061 0l-.291023.277343v-.585938l-.000013-41.499993c0-.552285-.447712-1-.999999-1.000001-.552284-.000001-1.000009.447715-1.000003 1.000001l.000013 41.499993v.585938l-.291023-.277346c-.39052-.390524-1.023542-.390524-1.414061 0-.195251.195262-.292989.451109-.292989.707031 0 .255913.0977.511772.292989.707029l1.291015 1.277349.673829.671872.02343.02532c.188258.193548.446789.30274.716791.30274.27001-.000003.528533-.109192.716799-.30274l.02343-.02532.673829-.671872 1.291015-1.277344c.19525-.19525.292951-.45111.292951-.707034z"/><path d="m88.99805 34.98438c0 .255924-.0977.51177-.292952.707031-.390519.390524-1.023541.390524-1.414061 0l-.291023-.277346v.58594l-.000017 44.500008c0 .552284-.447712 1-.999999 1-.552284.000002-1.000003-.447714-1.000003-1l.000017-44.500007v-.585938l-.291023.277345c-.39052.390524-1.023542.390524-1.414061 0-.195251-.195262-.292989-.451109-.292989-.707031 0-.255923.0977-.511771.292989-.707031l1.291015-1.277346.673829-.671875.02343-.0254c.188261-.193536.446792-.302728.716794-.30273.27001.000003.528533.109197.716799.302731l.02343.0254.673829.671874 1.291015 1.277345c.19525.195261.292951.451109.292951.707031z"/><g stroke-linecap="square" stroke-opacity=".566502" stroke-width=".999999"><path d="m89 30.5v1c0 .277001-.222992.5-.500001.5h-7.999998c-.277002 0-.500001-.223-.500001-.5v-1c0-.277001.222992-.5.500001-.5h7.999998c.277001 0 .500001.222999.500001.5z"/><path d="m88.999998 83.5v1.000003c0 .277001-.222992.499997-.499998.499997l-26.999999-.000003c-.277002 0-.500001-.222993-.500001-.499997v-1.000003c0-.277003.222992-.500001.500001-.500001l26.999999.000003c.277002 0 .499998.222992.499998.500001z"/></g></g></svg>