<svg height="96" viewBox="0 0 96 96" width="96" xmlns="http://www.w3.org/2000/svg"><g fill="#efefef"><path d="m22 75v1h-10v-56h10v1h-3.740492c-.827704 0-1.431238.197229-1.810602.591686-.344876.3586-.448906 1.295031-.448906 2.119806v.288508 47.5.358192c0 1.864708.776539 3.141808 2.466434 3.141808z" opacity=".5"/><path d="m74 75v1h10v-56h-10v1h3.740492c.827704 0 1.431238.197229 1.810602.591686.344876.3586.448906 1.295031.448906 2.119806v.288508 47.5.358192c0 1.864708-.776539 3.141808-2.466434 3.141808z" opacity=".5"/><g stroke-linecap="square" stroke-opacity=".566502" stroke-width=".999999"><path d="m29.053317 36.826684q-1.253335 0-2.106669-.640001-.853334-.640001-1.280002-1.733336-.426667-1.120001-.426667-2.50667 0-1.253334.346667-2.613336.346667-1.386669 1.040002-2.66667.693334-1.306669 1.706668-2.34667 1.013335-1.066668 2.320003-1.680002 1.333335-.640001 2.960004-.640001 1.040001 0 2.106669.293334 1.066669.293334 1.653336.640001l1.413335-.640001h1.413335l-1.760002 8.32001q-.05333.293334-.186667.826668-.106667.533334-.186667 1.093335-.08.533334-.08.880001 0 .666667.24.986668.266667.32.693335.32.373333 0 .72-.16.346668-.16.773335-.4l.586667 1.066668q-.666667.506667-1.733335 1.066668-1.040002.533334-2.480003.533334-1.173335 0-1.893336-.533334-.720001-.560001-.720001-1.600002 0-.773335.186667-1.733336h-.186667q-.640001 1.226668-1.333335 2.106669-.693334.853335-1.600002 1.306669-.880001.453334-2.18667.453334zm1.680003-2.133336q.586667 0 1.200001-.480001.613334-.506667 1.173335-1.333335.560001-.853334.986668-1.893336.453334-1.040001.666667-2.106669l.933335-4.426672q-.266667-.373334-.720001-.560001-.453334-.186667-.986668-.186667-.933335 0-1.680002.560001-.746668.56-1.306668 1.493335-.560001.933334-.960002 2.026669-.373333 1.093335-.56 2.213336-.186667 1.093335-.186667 1.973336 0 1.546669.4 2.133336.426667.586668 1.040002.586668z" opacity=".5"/><path d="m30.413323 71.53336q-1.093335 0-2.000003-.293334-.880001-.293333-1.386668-.666667l-1.520002.773334h-1.493335l3.546671-16.666688q.08-.346667.133333-.693334.05333-.346667.05333-.453334 0-.720001-.320001-.906667-.32-.213334-1.093335-.213334h-.613334l.266667-1.413335h6.453342l-1.066668 5.066673q-.08.373334-.293334 1.013335-.186667.64-.426667 1.333335-.24.693334-.453334 1.280001-.186667.586668-.293334.880001h.133334q.960001-1.946669 2.133336-2.90667 1.173335-.960001 2.933337-.960001 1.706669 0 2.800003 1.226668 1.093339 1.226668 1.093339 3.600004 0 1.626669-.586667 3.386671-.586668 1.733336-1.706669 3.253338-1.093335 1.493335-2.693337 2.42667-1.573335.933334-3.600004.933334zm-.133334-1.706669q.933335 0 1.680002-.56.746668-.586668 1.306669-1.493336.56-.933334.933334-2.000002.373334-1.093335.560001-2.160003.186667-1.066668.186667-1.893336 0-1.573335-.426668-2.213336-.4-.666667-.986667-.666667-.746668 0-1.413336.613334-.64.613334-1.173334 1.493335-.506668.880001-.853335 1.733336-.346667.853334-.453334 1.360001l-1.093334 5.040007q.293333.32.720001.533334.453333.213333 1.013334.213333z" opacity=".5"/><path d="m58.960009 36.766667q-1.600002 0-2.960004-.613334-1.333335-.613334-2.133336-1.813336-.800001-1.226668-.800001-3.093337 0-1.493335.560001-3.093337.56-1.626669 1.653335-3.040004 1.120002-1.413335 2.74667-2.293336 1.653336-.880001 3.813338-.880001 2.213337 0 3.226671.853334 1.013335.826668 1.013335 1.973336 0 .826668-.746668 1.546668-.746667.693335-2.50667.693335 0-1.413335-.506667-2.42667-.480001-1.040001-1.440002-1.040001-.693334 0-1.280001.533334-.560001.533334-1.040002 1.413335-.453334.853334-.773334 1.893335-.293334 1.040002-.480001 2.080003-.16 1.013335-.16 1.840002 0 1.626669.746668 2.533337.746667.906668 2.186669.906668 1.413335 0 2.293336-.693334.880002-.693335 1.440002-1.493336.16.160001.266667.480001.133334.293334.133334.693334 0 .693334-.560001 1.413335-.533334.693334-1.706669 1.173335-1.146668.453334-2.98667.453334z" opacity=".5"/><path d="m56.442245 71.188233q-1.383251 0-2.278296-.655461-.867923-.655463-1.274761-1.756639-.40684-1.101176-.40684-2.385882 0-1.232269.352594-2.569411.352593-1.363362 1.030658-2.621849.705187-1.284706 1.708723-2.307227 1.003535-1.048739 2.305418-1.651764 1.329007-.629244 2.929239-.629244.786554 0 1.491742.18353.73231.183529 1.247639.471933.05424-.340842.135612-.838992.108491-.52437.162736-.760336l.244103-1.04874q.189858-.786554.189858-1.127394 0-.7079-.325471-.891429-.325471-.209748-1.112025-.209748h-.623819l.244103-1.38958h6.536541l-3.14622 14.289075q-.108489.576806-.271226 1.389579-.135612.786555-.135612 1.258488 0 .603025.298349.891428.298347.288403.650941.288403.352593 0 .759432-.183529.433961-.18353.759433-.367059l.596696 1.022521q-.705187.576807-1.79009 1.101176-1.084903.498151-2.495277.498151-1.166271 0-1.925703-.524369-.732309-.52437-.732309-1.573109 0-.498151.05424-.917647.05424-.445714.135614-.786554h-.162737q-1.003534 2.018823-2.251174 2.910252-1.220515.891427-2.902115.891427zm1.627354-2.097478q.813678 0 1.627355-.838992.8408-.838991 1.491742-2.149915.678064-1.310924.976413-2.726722l.949291-4.35227q-.271226-.367058-.786556-.550587-.515329-.18353-1.003535-.18353-.922167 0-1.6816.550589-.73231.550587-1.301884 1.468235-.569573.917646-.976413 2.018823-.379716 1.074957-.569574 2.149915-.189857 1.074959-.189857 1.940169 0 1.494453.406838 2.097478.433961.576807 1.05778.576807z" opacity=".5"/></g><path d="m48.998057 47.015692c0-.255923-.0977-.511769-.292952-.70703-.390519-.390525-1.023541-.390525-1.414061 0l-.291023.277343v-.585938l-.000015-1.499993c-.000006-.552285-.447712-1-.999999-1.000001-.552284-.000001-1.000009.447715-1.000003 1.000001l.000015 1.499993v.585938l-.291023-.277346c-.39052-.390524-1.023542-.390524-1.414061 0-.195251.195262-.292989.451109-.292989.707031 0 .255913.0977.511772.292989.707029l1.291015 1.277349.673829.671872.02343.02532c.188258.193548.446789.30274.716791.30274.27001-.000003.528533-.109192.716799-.30274l.02343-.02532.673829-.671872 1.291015-1.277344c.19525-.19525.292951-.45111.292951-.707034z"/><path d="m48.99805 41.98438c0 .255924-.0977.51177-.292952.707031-.390519.390524-1.023541.390524-1.414061 0l-.291023-.277346v.58594l-.000015 4.500008c0 .552284-.447712 1-.999999 1-.552284.000002-1.000003-.447714-1.000003-1l.000015-4.500007v-.585938l-.291023.277345c-.39052.390524-1.023542.390524-1.414061 0-.195251-.195262-.292989-.451109-.292989-.707031 0-.255923.0977-.511771.292989-.707031l1.291015-1.277346.673829-.671875.02343-.0254c.188261-.193536.446792-.302728.716794-.30273.27001.000003.528533.109197.716799.302731l.02343.0254.673829.671874 1.291015 1.277345c.19525.195261.292951.451109.292951.707031z"/><path d="m53 37.5v1c0 .277001-.222992.5-.500001.5h-11.999998c-.277002 0-.500001-.223-.500001-.5v-1c0-.277001.222992-.5.500001-.5h11.999998c.277001 0 .500001.222999.500001.5z" stroke-linecap="square" stroke-opacity=".566502" stroke-width=".999999"/><path d="m53 50.5v1.000003c0 .277001-.222992.499997-.499998.499997h-12.000001c-.277002 0-.500001-.222993-.500001-.499997v-1.000003c0-.277003.222992-.500001.500001-.500001h12.000001c.277002 0 .499998.222992.499998.500001z" stroke-linecap="square" stroke-opacity=".566502" stroke-width=".999999"/></g></svg>