<svg height="48" width="48" xmlns="http://www.w3.org/2000/svg" xmlns:xlink="http://www.w3.org/1999/xlink"><linearGradient id="a" gradientTransform="matrix(3.00001 0 0 1 -633.00043 844.63613)" gradientUnits="userSpaceOnUse" x1="224.99959" x2="213.05658" xlink:href="#b" y1="-796.63611" y2="-844.40387"/><linearGradient id="b" gradientTransform="translate(0 20)" gradientUnits="userSpaceOnUse" x1="129" x2="103" y1="56" y2="24"><stop offset="0" stop-color="#535353"/><stop offset="1" stop-color="#7e7e7e"/></linearGradient><linearGradient id="c" gradientTransform="matrix(2.9999 0 0 2.9991699 -328.98792 -2928.2903)" gradientUnits="userSpaceOnUse" x1="123.66695" x2="111.66655" y1="991.70453" y2="977.03375"><stop offset="0" stop-color="#0369a3"/><stop offset="1" stop-color="#1c99e0"/></linearGradient><linearGradient id="d" gradientTransform="matrix(2.9999 0 0 2.9991699 -328.98808 -2928.2903)" gradientUnits="userSpaceOnUse" x1="123.66695" x2="111.66655" xlink:href="#b" y1="991.70453" y2="977.03375"/><path d="m8.4379114.0136385c-1.37516.262398-2.46216 1.598638-2.4375 2.998046v41.9882865c.00015 1.57031 1.4293 2.999849 3 3h29.9999996c1.57069-.000151 2.99984-1.42969 3-3v-26.181651c.018-.79196-.29253-1.587064-.84375-2.156245l-15.8125-15.8046865c-.56932-.550947-1.36411-.862104-2.15625-.84375h-14.1874996c-.18689-.01799-.37555-.01799-.5625 0z" fill="url(#d)"/><path d="m9.0004114 3.0000005v41.9999995h29.9999996v-26l-16-15.9999995z" fill="#fff"/><path d="m30.988851.0234385c-.99843.319798-1.33417 1.839915-.56445 2.554688l9.03515 9.0820315c.83473.795587 2.49704.114553 2.54102-1.04105v-9.0820315c-.00009-.792624-.71736-1.513582-1.50586-1.513672h-9.03516c-.15569-.02399-.31509-.02399-.4707 0z" fill="url(#c)"/><path d="m12.000571 19.998047v2.000004h24v-2.000004zm0 4.000004v2h24v-2zm0 4v2h11.03125c.6918-.81226 1.51965-1.494291 2.46875-2zm21.5 0c .9491.505709 1.77695 1.18774 2.46875 2 0 .005.0273-.005.0312 0v-2h-2.5zm-3.99609 1.001949c-3.58393 0-6.5 2.916071-6.5 6.5 0 3.58393 2.91607 6.5 6.5 6.5 3.58392 0 6.5-2.91607 6.5-6.5 0-3.583929-2.91608-6.5-6.5-6.5zm-17.50391 2.998051v2h9.15625c.1245-.69988.30915-1.3706.59375-2zm0 4v2h9.375c-.1958-.6375-.30355-1.30838-.34375-2zm0 4v2h12.03125c-.6785-.571831-1.2776-1.24435-1.75-2z" fill="url(#a)"/><g fill="none" stroke="#d1d1d1" stroke-linecap="round"><path d="m31.709771 28.7374c-7.1825 2.52994-7.3489 9.44493-5.6305 12.49029" stroke-width="1.000001"/><path d="m37.000571 35.99833c-3.5797-6.72117-10.4412-5.8475-13.1941-3.69131"/><path d="m25.625371 40.59385c1.6682-7.430009 8.5163-8.40743 11.7423-7.05871"/><path d="m29.000571 43.26261c.6679-5.78028 5.5626-7.04501 8-6.26428"/><path d="m32.000571 41.99833c1.9186-7.36934-3.7212-11.37387-7.2069-11.65209"/><path d="m22.379671 36.52233c4.6342 6.042601 11.2593 4.05476 13.6209 1.476"/></g></svg>