<svg height="48" width="48" xmlns="http://www.w3.org/2000/svg" xmlns:xlink="http://www.w3.org/1999/xlink"><linearGradient id="a" gradientUnits="userSpaceOnUse" x1="12.50085" x2="12.50085" xlink:href="#b" y1="17.9983" y2="39.9983"/><linearGradient id="b"><stop offset="0" stop-color="#0369a3"/><stop offset="1" stop-color="#023f62"/></linearGradient><linearGradient id="c"><stop offset="0" stop-color="#63bbee"/><stop offset="1" stop-color="#aadcf7"/></linearGradient><linearGradient id="d" gradientTransform="matrix(2.9999 0 0 2.9991699 -328.48915 -2928.2902)" gradientUnits="userSpaceOnUse" x1="110.96875" x2="110.99982" xlink:href="#b" y1="976.29968" y2="991.87488"/><linearGradient id="e" gradientTransform="matrix(3.0118696 0 0 3.0275989 -331.98643 -2956.062)" gradientUnits="userSpaceOnUse" x1="110.96875" x2="110.96875" xlink:href="#b" y1="976.29968" y2="992.375"/><linearGradient id="f" gradientUnits="userSpaceOnUse" x1="9.0946" x2="9.0946" y1="28.76489" y2="4.5221"><stop offset="0" stop-color="#fff" stop-opacity=".588235"/><stop offset="1" stop-color="#fff" stop-opacity=".862745"/></linearGradient><linearGradient id="g" gradientTransform="matrix(2.99213 0 0 3.00466 -870.21115 -727.44383)" gradientUnits="userSpaceOnUse" x1="294.3429" x2="294.41818" xlink:href="#c" y1="256.58133" y2="243.13852"/><linearGradient id="h" gradientTransform="matrix(1.55551 0 0 1.66668 -313.49015 1319.0731)" gradientUnits="userSpaceOnUse" x1="208.96875" x2="208.96875" xlink:href="#b" y1="-780.60657" y2="-766.66815"/><linearGradient id="i" gradientTransform="matrix(1.5 0 0 1.33334 -309.49915 794.51762)" gradientUnits="userSpaceOnUse" x1="230" x2="230" xlink:href="#c" y1="-581.63782" y2="-578.63782"/><linearGradient id="j" gradientTransform="matrix(1.49995 0 0 1.53335 -493.98315 -1779.3339)" gradientUnits="userSpaceOnUse" x1="345" x2="345" y1="1173" y2="1178"><stop offset="0" stop-color="#666"/><stop offset="1" stop-color="#333"/></linearGradient><path d="m6.93717.01348c-1.37516.2624-2.46208 1.59976-2.43742 2.99917v41.9882c.00015 1.57031 1.42921 2.99902 2.9999 2.99916h33.998857c1.570687-.00014 2.99975-1.42885 2.9999-2.99916v-26.18222c.018-.79196-.292491-1.58647-.843722-2.15565l-15.810733-15.80599c-.569321-.55095-1.364022-.86187-2.156182-.84351h-18.18812c-.18689-.018-.37553-.018-.56248 0z" fill="url(#d)"/><path d="m33.486944.02307c-.998427.3198-1.334446 1.83976-.564731 2.55454l9.035668 9.08285c.834723.79562 2.497297.11486 2.541276-1.04075v-9.08282c-.00009-.79263-.717456-1.51373-1.50595-1.51382h-9.035669c-.155695-.024-.314989-.024-.470594 0z" fill="url(#e)"/><path d="m7.50095 3.02105v.75 40.50004.72723h.75 32.4994.75v-.72723-25.50003-.3282l-.2344-.2343-14.9059-15.00001-.1875-.1875h-.3282-17.5934-.75z" fill="url(#g)"/><path d="m9.50085 4.99832h16l14 14v24h-30z" fill="url(#f)"/><path d="m8.50085 5.99831h1v1h-1z" fill="#1c99e0"/><path d="m3.50085 5.99831h4v1h-4z" fill="#b3b3b3"/><path d="m8.50085 8.99831h1v1h-1z" fill="#1c99e0"/><path d="m3.50085 8.99831h4v1h-4z" fill="#b3b3b3"/><path d="m8.50085 11.99831h1v1h-1z" fill="#1c99e0"/><path d="m3.50085 11.99831h4v1h-4z" fill="#b3b3b3"/><path d="m8.50085 14.99831h1v1h-1z" fill="#1c99e0"/><path d="m3.50085 14.99831h4v1h-4z" fill="#b3b3b3"/><path d="m8.50085 17.99831h1v1h-1z" fill="#1c99e0"/><path d="m3.50085 17.99831h4v1h-4z" fill="#b3b3b3"/><path d="m8.50085 20.99831h1v1h-1z" fill="#1c99e0"/><path d="m3.50085 20.99831h4v1h-4z" fill="#b3b3b3"/><path d="m8.50085 23.99831h1v1h-1z" fill="#1c99e0"/><path d="m3.50085 23.99831h4v1h-4z" fill="#b3b3b3"/><path d="m8.50085 26.99831h1v1h-1z" fill="#1c99e0"/><path d="m3.50085 26.99831h4v1h-4z" fill="#b3b3b3"/><path d="m8.50085 29.99831h1v1h-1z" fill="#1c99e0"/><path d="m3.50085 29.99831h4v1h-4z" fill="#b3b3b3"/><path d="m8.50085 32.99831h1v1h-1z" fill="#1c99e0"/><path d="m3.50085 32.99831h4v1h-4z" fill="#b3b3b3"/><path d="m8.50085 35.99831h1v1h-1z" fill="#1c99e0"/><path d="m3.50085 35.99831h4v1h-4z" fill="#b3b3b3"/><path d="m8.50085 38.99831h1v1h-1z" fill="#1c99e0"/><path d="m3.50085 38.99831h4v1h-4z" fill="#b3b3b3"/><path d="m8.50085 41.99831h1v1h-1z" fill="#1c99e0"/><path d="m3.50085 41.99831h4v1h-4z" fill="#b3b3b3"/><path d="m22.50085 17.99824h13.99961v10.00009h-13.99961z" fill="url(#h)"/><path d="m23.50085 18.9983h12v8.00002h-12z" fill="url(#i)"/><path d="m30.50085 24.99832-3.5-4.5-3.5 5.5v1h11.99963v-1l-2.49963-3z" fill="url(#j)"/><path d="m35.500483 22.498705a3.5000016 3.4999971 0 0 1 -3.500001-3.499995h3.500001z" fill="#c99c00" opacity=".375"/><path d="m35.50085 21.998306a3 3.0000018 0 0 1 -3-3h3z" fill="#e9b913" opacity=".375"/><g fill="url(#a)"><path d="m12.50088 25.99824h7.99997v2.00008h-7.99997z"/><path d="m12.50088 17.99824h7.99997v2.00008h-7.99997z"/><path d="m12.50088 29.99824h23.99957v2.00008h-23.99957z"/><path d="m12.50088 37.9983h17.99968v1.99992h-17.99968z"/><path d="m12.50088 21.99824h7.99997v2.00008h-7.99997z"/><path d="m12.50088 33.99824h23.99957v2.00008h-23.99957z"/></g></svg>