<svg height="48" width="48" xmlns="http://www.w3.org/2000/svg" xmlns:xlink="http://www.w3.org/1999/xlink"><linearGradient id="a"><stop offset="0" stop-color="#fff" stop-opacity=".588235"/><stop offset="1" stop-color="#fff" stop-opacity=".862745"/></linearGradient><linearGradient id="b"><stop offset="0" stop-color="#a33e03"/><stop offset="1" stop-color="#622502"/></linearGradient><linearGradient id="c" gradientTransform="matrix(2.9999 0 0 2.9991699 -328.48915 -2928.2902)" gradientUnits="userSpaceOnUse" x1="110.96875" x2="110.99982" xlink:href="#b" y1="976.29968" y2="991.87488"/><linearGradient id="d" gradientTransform="matrix(3.0118696 0 0 3.0275989 -331.98643 -2956.062)" gradientUnits="userSpaceOnUse" x1="110.96875" x2="110.96875" xlink:href="#b" y1="976.29968" y2="992.375"/><linearGradient id="e" gradientUnits="userSpaceOnUse" x1="9.0946" x2="9.0946" xlink:href="#a" y1="28.76492" y2="4.52213"/><linearGradient id="f" gradientTransform="matrix(2.99213 0 0 3.00466 -870.20915 -727.4438)" gradientUnits="userSpaceOnUse" x1="294.3429" x2="294.41818" y1="256.58133" y2="243.13852"><stop offset="0" stop-color="#f09e6f"/><stop offset="1" stop-color="#f9cfb5"/></linearGradient><linearGradient id="g" gradientTransform="matrix(.481781 0 0 .479069 -398.32215 532.41015)" gradientUnits="userSpaceOnUse" x1="889" x2="881.77307" y1="-1054.6378" y2="-1044.5505"><stop offset="0" stop-color="#18a303"/><stop offset="1" stop-color="#106802"/></linearGradient><linearGradient id="h" gradientTransform="matrix(.153846 0 0 .300001 -83.34615 351.09015)" gradientUnits="userSpaceOnUse" x1="714" x2="714" xlink:href="#a" y1="-1063.6378" y2="-1083.6378"/><linearGradient id="i" gradientTransform="matrix(.171429 0 0 .250001 -63.15715 298.15915)" gradientUnits="userSpaceOnUse" x1="523" x2="523" y1="-1064.6378" y2="-1088.6378"><stop offset="0" stop-color="#b3b3b3"/><stop offset="1" stop-color="#e6e6e6"/></linearGradient><linearGradient id="j" gradientTransform="matrix(.277778 0 0 .5 -83.27815 523.81715)" gradientUnits="userSpaceOnUse" x1="370" x2="370" xlink:href="#b" y1="-1048.6724" y2="-918.60181"/><linearGradient id="k" gradientTransform="matrix(.277778 0 0 .5 -83.27815 520.81715)" gradientUnits="userSpaceOnUse" x1="370" x2="370" xlink:href="#b" y1="-1048.6724" y2="-918.60181"/><linearGradient id="l" gradientTransform="matrix(.277778 0 0 .5 -83.27815 517.81715)" gradientUnits="userSpaceOnUse" x1="370" x2="370" xlink:href="#b" y1="-1048.6724" y2="-918.60181"/><linearGradient id="m" gradientTransform="matrix(.366667 0 0 .4 -264.43415 465.25415)" gradientUnits="userSpaceOnUse" x1="812" x2="812" xlink:href="#a" y1="-1075.6378" y2="-1115.6378"/><radialGradient id="n" cx="152.3331" cy="-754.6377" gradientTransform="matrix(.00000076 .0676854 -.802004 0 -580.75215 28.67315)" gradientUnits="userSpaceOnUse" r="15"><stop offset="0" stop-opacity=".501961"/><stop offset="1" stop-opacity="0"/></radialGradient><linearGradient id="o" gradientUnits="userSpaceOnUse" x1="31.49965" x2="31.49965" y1="34.99834" y2="18.99834"><stop offset="0" stop-color="#d36118"/><stop offset="1" stop-color="#f09e6f"/></linearGradient><path d="m6.93717.01351c-1.37516.2624-2.46208 1.59976-2.43742 2.99917v41.9882c.00015 1.57031 1.42921 2.99902 2.9999 2.99916h33.99886c1.57068-.00014 2.99975-1.42885 2.9999-2.99916v-26.18222c.018-.79196-.29249-1.58647-.84373-2.15565l-15.81073-15.80599c-.56932-.55095-1.36402-.86187-2.15618-.84351h-18.18812c-.18689-.018-.37553-.018-.56248 0z" fill="url(#c)"/><path d="m33.48694.0231c-.99842.3198-1.33444 1.83976-.56473 2.55454l9.03567 9.08285c.83472.79562 2.4973.11486 2.54128-1.04075v-9.08282c-.00009-.79263-.71746-1.51373-1.50595-1.51382h-9.03567c-.1557-.024-.31499-.024-.4706 0z" fill="url(#d)"/><path d="m7.50095 3.02108v.75 40.50004.72723h.75 32.4994.75v-.72723-25.50003-.3282l-.2344-.2343-14.9059-15.00001-.1875-.1875h-.3282-17.5934-.75z" fill="url(#f)"/><path d="m9.50085 4.99835h16l14 14v24h-30z" fill="url(#e)"/><g fill="#d36118"><path d="m8.50085 5.99834h1v1h-1z"/><path d="m8.50085 8.99834h1v1h-1z"/><path d="m8.50085 11.99834h1v1h-1z"/><path d="m8.50085 14.99834h1v1h-1z"/><path d="m8.50085 17.99834h1v1h-1z"/><path d="m8.50085 20.99834h1v1h-1z"/><path d="m8.50085 23.99834h1v1h-1z"/><path d="m8.50085 26.99834h1v1h-1z"/><path d="m8.50085 29.99834h1v1h-1z"/><path d="m8.50085 32.99834h1v1h-1z"/><path d="m8.50085 35.99834h1v1h-1z"/><path d="m8.50085 38.99834h1v1h-1z"/><path d="m8.50085 41.99834h1v1h-1z"/></g><g fill="#b3b3b3"><path d="m3.50085 5.99834h4v1h-4z"/><path d="m3.50085 8.99834h4v1h-4z"/><path d="m3.50085 11.99834h4v1h-4z"/><path d="m3.50085 14.99834h4v1h-4z"/><path d="m3.50085 17.99834h4v1h-4z"/><path d="m3.50085 20.99834h4v1h-4z"/><path d="m3.50085 23.99834h4v1h-4z"/><path d="m3.50085 26.99834h4v1h-4z"/><path d="m3.50085 29.99834h4v1h-4z"/><path d="m3.50085 32.99834h4v1h-4z"/><path d="m3.50085 35.99834h4v1h-4z"/><path d="m3.50085 38.99834h4v1h-4z"/><path d="m3.50085 41.99834h4v1h-4z"/></g><path d="m25.25875 34.24954-7.504 5.74882h2.9271l6.504-5.74882z" fill="#808080"/><path d="m23.74055 34.24954 7.504 5.74882h-2.9271l-6.504-5.74882z" fill="#808080"/><path d="m12.49963 17.99834h24.00001v18.00004h-24.00001z" fill="#a33e03"/><rect fill="url(#o)" height="16" rx="1" width="22" x="13.499629" y="18.998337"/><path d="m13.18535 37.99836h22.6286c.3799 0 .6857.3016.6857.67635v.6473c0 .37475-.3058.67635-.6857.67635h-22.6286c-.3799 0-.6857-.3016-.6857-.67635v-.6473c0-.37475.3058-.67635.6857-.67635z" fill="url(#n)" opacity=".3"/><rect fill="url(#m)" height="16.000017" rx="1" width="22" x="13.499629" y="18.998337"/><path d="m15.49963 20.99834h18v2h-18z" fill="#d36118"/><path d="m19.49963 24.99834h5v2h-5z" fill="url(#l)"/><circle cx="16.499874" cy="25.99791" fill="#d36118" r=".999999"/><path d="m19.49963 27.99834h5v2h-5z" fill="url(#k)"/><circle cx="16.499874" cy="28.99791" fill="#d36118" r=".999999"/><path d="m19.49963 30.99834h5v2h-5z" fill="url(#j)"/><circle cx="16.499874" cy="31.99791" fill="#d36118" r=".999999"/><path d="m25.49963 24.99834h8.00001v8.00002h-8.00001z" fill="#808080"/><path d="m26.49963 25.99834h6v6.00002h-6z" fill="url(#i)"/><path d="m26.49963 25.99834h6v6.00001h-6z" fill="url(#h)"/><path d="m26.99965 31.49836 1.5-3 2 1 1.5-3" fill="none" stroke="url(#g)" stroke-linecap="round" stroke-linejoin="round"/><path d="m22.49963 35.99834h4v1.00003h-4z" fill="#808080"/></svg>