<svg viewBox="0 0 32 32" xmlns="http://www.w3.org/2000/svg"><g fill="#3a3a38"><rect height="2" ry="1" transform="scale(1 -1)" width="26" x="3" y="-27"/><path d="m8.695312 3-1.2070312 1.8789062-.5976563.9394532c-.171783.2555741-.2558594.5168035-.2558594.7851562 0 .3578037.1652039.7212144.4980469 1.0917969l.8378906.9589844 1.2578125 1.3457031h-.0332031l-.195312.492188v7.330078c0 4.127521 2.57884 6.179687 7.947266 6.179687s8.052734-2.063885 8.052734-6.191406v-7.810547l-3.5-4h3.5v-3h-4.304688l-1.207031 1.8789062-.597657.9394532c-.171783.2555741-.255859.5168035-.255859.7851562 0 .3578037.165204.7212144.498047 1.0917969l.837891.9589844 1.029297 1.8457031-.0332 7.310547c.0095 1.725099-1.743318 2.587891-4.019531 2.587891-2.276218 0-3.947269-.673313-3.947269-2.398438v-8l-3.5000005-4h3.5000005v-3z" stroke-width="1.195431"/><rect height="2" ry="1" transform="scale(1 -1)" width="26" x="3" y="-30"/></g></svg>