<svg viewBox="0 0 32 32" xmlns="http://www.w3.org/2000/svg"><path d="m4 4v24h24v-19h-1v18h-22v-18h16v-5zm11.044922 6c-1.77683 0-2.521485.706366-2.521484 2.509766v2.441406c0 1.1138-.034195 2.404297-1.015626 2.404297h-.507812v1.289062h.507812c.981481 0 1.015626 1.290497 1.015626 2.404297v2.441406c0 1.8034.744654 2.509766 2.521484 2.509766v-1.183594c-1.18455 0-1.201172-.478337-1.201172-2.210937v-2.015625c0-.8309-.204705-2.067378-1.203125-2.580078.99842-.5127 1.203125-1.751032 1.203125-2.582032v-2.033203c0-1.7326.016592-2.210937 1.201172-2.210937zm1.894531 0v1.183594c1.18456 0 1.216797.478337 1.216797 2.210937v2.033203c0 .831.204705 2.069332 1.203125 2.582032-.99842.5127-1.203125 1.749178-1.203125 2.580078v2.015625c0 1.7326-.03219 2.210937-1.216797 2.210937v1.183594c1.77684 0 2.537109-.706366 2.537109-2.509766v-2.441406c0-1.1138.06864-2.404297 1.033204-2.404297h.490234v-1.289062h-.490234c-.96457 0-1.033204-1.290497-1.033204-2.404297v-2.441406c0-1.8034-.760269-2.509766-2.537109-2.509766z" fill="#232629"/><path d="m23 4v5l5-2.5z" fill="#f47750"/></svg>