<svg viewBox="0 0 32 32" xmlns="http://www.w3.org/2000/svg"><path d="m6.2929688 3.9960938-1.2929688 1.2929687v2.5390625c.0548.0399 8 10.667969 8 10.667969v5.007812l3 2.25v-1.248047c-.694269-.520856-1.35725-1.01681-2-1.5v-4.841797l-8-10.6679682v-1.7929688l.7070312-.7070312h18.5859378l.707031.7070312v1.7929688l-7.126953 9.5039062h1.248047l6.878906-9.171875v-2.5390625l-1.292969-1.2929687zm.7070312 2 5 6.5000002c-.0153.005 0-3.5000002 0-3.5000002l3-3z" fill="#232629"/><path d="m25.578125 16.730469-2.080078 3.269531h-6.498047v1h5.861328l-1.910156 3h-3.951172v1h3.316406l-1.738281 2.730469.84375.537109 2.080078-3.267578h6.498047v-1h-5.863281l1.910156-3h3.953125v-1h-3.316406l1.738281-2.732422z" fill="#3daee9"/></svg>