<svg viewBox="0 0 32 32" xmlns="http://www.w3.org/2000/svg"><path d="m11 4v1h17v-1zm0 3v1h13v-1zm0 7v1h17v-1zm0 3v1h4v-1zm0 7v1h17v-1zm0 3v1h11v-1zm13 1v1h4v-1z" fill="#232629"/><path d="m5.5 4a1.5 1.5 0 0 0 -1.5 1.5 1.5 1.5 0 0 0 1.5 1.5 1.5 1.5 0 0 0 1.5-1.5 1.5 1.5 0 0 0 -1.5-1.5zm0 10a1.5 1.5 0 0 0 -1.5 1.5 1.5 1.5 0 0 0 1.5 1.5 1.5 1.5 0 0 0 1.5-1.5 1.5 1.5 0 0 0 -1.5-1.5zm0 10a1.5 1.5 0 0 0 -1.5 1.5 1.5 1.5 0 0 0 1.5 1.5 1.5 1.5 0 0 0 1.5-1.5 1.5 1.5 0 0 0 -1.5-1.5z" fill="#3daee9"/></svg>