<svg viewBox="0 0 32 32" xmlns="http://www.w3.org/2000/svg"><path d="m19 8v6 1 3h1v-2.341797l.324219-.277344.445312-.380859 1.166016-1 5.064453-4.3417969v2.6816409l-.326172.28125-1.609375 1.378906-1.166015 1-3.5 3h1.537109l3.5-3 1.03125-.884766.134765-.115234.398438-.341797v.341797 1 1.339844l-.326172.28125-1.609375 1.378906h1.537109l.398438-.341797v.341797h1v-3-1-6h-1v.3398438l-.326172.28125-6.27539 5.3789062-.398438.341797v-.341797-2.341797l.324219-.277344 3.943359-3.380859h-1.535156l-2.732422 2.341797v-2.341797z" fill="#3daee9"/><path d="m4 4v24h14v-1h-5v-3h5v-1h-5v-3h5v-1h-5v-3h6v-1h-6v-3h6v-1h-6v-3h6 1 7 1v-4zm1 1h7v2h-7zm8 0h6v2h-6zm7 0h7v2h-7zm-15 3h7v3h-7zm0 4h7v3h-7zm0 4h7v3h-7zm14 3v9l9-4zm-14 1h7v3h-7zm0 4h7v3h-7z" fill="#232629"/></svg>