<svg viewBox="0 0 32 32" xmlns="http://www.w3.org/2000/svg"><path d="m26.820312 9.1796875c.112931.2509149.179688.5263745.179688.8203125v11c0 1.108017-.891983 2-2 2h-19c-.293938 0-.5693976-.066757-.8203125-.179688.3127668.694923 1.0062353 1.179688 1.8203125 1.179688h19c1.108015 0 2-.891985 2-2v-11c0-.814077-.484765-1.5075457-1.179688-1.8203125z" fill="#b3b3b3"/><path d="m6 8c-1.1080147 0-2 .8919853-2 2v11c0 1.108015.8919853 2 2 2h19c1.108015 0 2-.891985 2-2v-11c0-1.1080147-.891985-2-2-2zm14 2h2v7h-2-7v3l-5-4 5-4v3h5 1 1z" fill="#232629"/></svg>