<svg height="32" viewBox="0 0 32 32" width="32" xmlns="http://www.w3.org/2000/svg"><g transform="matrix(1.33333 0 0 1.33333 .3334 .00001)"><path d="m11 3-.000023.7500019h9l.000023-.7500019zm0 2.2500056v.7499944h9v-.7499944zm0 4.5000113v.7500171h9v-.7500171zm-.000023 2.2500211.000023.749979h6.750017l-.000023-.749979zm.000023 4.499996v.750032h9v-.750032zm-.000008 2.250036.000008.749964h6l-.000008-.749964zm6.750002.750002v.750039l2.250006-.000038v-.750039z" fill="#232629"/><path d="m4.9999625 9.0000148v2.2500062h-2.2500056v.750002h2.2500056v2.250005h.7500019v-2.250005h2.2500056v-.750002h-2.2500056v-2.2500062z" fill="#27ae60"/></g></svg>