<svg height="32" viewBox="0 0 32 32" width="32" xmlns="http://www.w3.org/2000/svg" xmlns:xlink="http://www.w3.org/1999/xlink"><linearGradient id="a" gradientUnits="userSpaceOnUse" x1="7.739838" x2="8" y1="1.357724" y2="14"><stop offset="0" stop-color="#587bcb"/><stop offset=".94117647" stop-color="#3f59ae"/><stop offset="1" stop-color="#3d7cdb"/></linearGradient><linearGradient id="b" gradientTransform="matrix(1.8125 0 0 1 -.8125 12)" gradientUnits="userSpaceOnUse" x1="6.5" x2="6.5" y1="11" y2="12"><stop offset="0" stop-color="#2a3674"/><stop offset="1" stop-color="#174072" stop-opacity="0"/></linearGradient><linearGradient id="c" gradientUnits="userSpaceOnUse" x1="9" x2="9" y1="-7" y2="4"><stop offset="0" stop-color="#102134"/><stop offset="1" stop-color="#102134" stop-opacity="0"/></linearGradient><filter id="d" color-interpolation-filters="sRGB" height="1.267833" width="1.129187" x="-.064594" y="-.133917"><feGaussianBlur stdDeviation="3.1247207"/></filter><linearGradient id="e" gradientUnits="userSpaceOnUse" x1=".37741" x2="-1" y1="5.214652" y2="-2.999999"><stop offset="0" stop-color="#34608f"/><stop offset="1" stop-color="#34608f" stop-opacity="0"/></linearGradient><linearGradient id="f" gradientTransform="matrix(.21345221 0 0 .14419658 2.588831 -134.48784)" gradientUnits="userSpaceOnUse" x1="124.01234" x2="123.73341" y1="966.51019" y2="904.93018"><stop offset="0"/><stop offset="1" stop-color="#34608f" stop-opacity="0"/></linearGradient><linearGradient id="g" gradientUnits="userSpaceOnUse" x1="55" x2="55" y1="1036.4132" y2="1032.4822"><stop offset="0" stop-color="#003d7b"/><stop offset="1" stop-color="#003d7b" stop-opacity="0"/></linearGradient><filter id="h" color-interpolation-filters="sRGB" height="1.697208" width="1.027888" x="-.013944" y="-.348604"><feGaussianBlur stdDeviation=".70882694"/></filter><filter id="i" color-interpolation-filters="sRGB" height="1.869989" width="1.027669" x="-.013834" y="-.434994"><feGaussianBlur stdDeviation=".70324038"/></filter><clipPath id="j"><rect height="31.444271" rx="4" width="195.54292" x="4" y="941.36218"/></clipPath><filter id="k"><feGaussianBlur stdDeviation="2.2580645"/></filter><linearGradient id="l" gradientTransform="matrix(0 1 -1 0 -39.9985 140.0029)" gradientUnits="userSpaceOnUse" x1="-86.120354" x2="-56.357521" y1="-381.09921" y2="-373.1243"><stop offset="0" stop-color="#00448c"/><stop offset="1" stop-color="#006ebf"/></linearGradient><radialGradient id="m" cx="92.011353" cy="35.987209" gradientTransform="matrix(1.5023157 .832348 -1.5039612 2.7145189 7.92956 -138.29871)" gradientUnits="userSpaceOnUse" r="20"><stop offset="0" stop-color="#888a85"/><stop offset=".05255456" stop-color="#8c8e89"/><stop offset=".0673" stop-color="#abaca9"/><stop offset=".1347" stop-color="#c5c6c4"/><stop offset=".2115" stop-color="#dbdbda"/><stop offset=".3012" stop-color="#ebebeb"/><stop offset=".4122" stop-color="#f7f7f6"/><stop offset=".5679" stop-color="#fdfdfd"/><stop offset="1" stop-color="#fff"/></radialGradient><filter id="n"><feGaussianBlur stdDeviation="1.3978495"/></filter><radialGradient id="o" cx="100" cy="30.018749" gradientTransform="matrix(1 0 0 .8317708 0 5.050029)" gradientUnits="userSpaceOnUse" r="12"><stop offset="0" stop-color="#353535"/><stop offset="1"/></radialGradient><linearGradient id="p" gradientUnits="userSpaceOnUse" x1="328.12448" x2="336.98077" y1="120.81158" y2="87.759453"><stop offset="0" stop-color="#00caff"/><stop offset="1" stop-color="#002465"/></linearGradient><clipPath id="q"><circle cx="343.99899" cy="92" r="36"/></clipPath><filter id="r"><feGaussianBlur stdDeviation="2.8805897"/></filter><linearGradient id="s" gradientTransform="matrix(0 .7388168 -.7388168 0 -5.522656 67.255699)" gradientUnits="userSpaceOnUse" x1="-80.00296" x2="-45.096584" xlink:href="#t" y1="-131.93112" y2="-131.93112"/><linearGradient id="t" gradientTransform="matrix(0 1 -1 0 -39.9985 140.0029)" gradientUnits="userSpaceOnUse" x1="-84.002403" x2="-23.516129" y1="-383.9971" y2="-383.9975"><stop offset="0" stop-color="#fff"/><stop offset="1" stop-color="#fff" stop-opacity="0"/></linearGradient><filter id="u" height="2.148387" width="2.148387" x="-.574194" y="-.574194"><feGaussianBlur stdDeviation="1.9139785"/></filter><linearGradient id="v" gradientTransform="matrix(0 .7388168 -.7388168 0 -5.522656 67.255699)" gradientUnits="userSpaceOnUse" x1="-69.375381" x2="-26.062887" xlink:href="#t" y1="-137.41249" y2="-137.41249"/><g transform="translate(1 14)"><path d="m-46.991242 13.13992h160.201212c2.216 0 4 .8652 4 1.94 0 1.0747-1.78433 1.902-4 1.94-36.945184.6329-120.9042545.7782-160.201212 0-2.215566-.044-4-.8653-4-1.94 0-1.0748 1.784-1.94 4-1.94z" filter="url(#i)" opacity=".554286" transform="matrix(.17315572 0 0 .125 9.204424 12.35751)"/><rect fill="url(#g)" filter="url(#h)" height="4.39197" opacity=".577143" rx="2.439995" ry="1.926663" transform="matrix(.125 0 0 .25614775 -.125 -251.09298)" width="233.99997" x="3.000028" y="1032.4822"/><path d="m1-11c-.5 0-.48341039.383873-.5.5l-.5 1.5v7.5c0 .554.45059681.92878107 1 1l27 3.5c.549403.071219 1-.446 1-1v-11c0-.554-.446-1-1-1h-20.0957031c-.0842007-.485951-.178001-1-.4042969-1z" fill="#3b6ca9"/><path d="m1-11c-.5 0-.4629045.388713-.5.5l-.5 1.5v7.5c0 .554.446 1 1 1v-8.5l.5-1h5.3828125c.013345.068527.023996.094239.037109.1699219.0826732.4792195.4980774.8295107.9843754.8300781h1.0957031 19v12c.554 0 1-.446 1-1v-11c0-.554-.446-1-1-1h-20.0957031c-.0842007-.485951-.178001-1-.4042969-1z" fill="url(#c)" opacity=".25"/><path clip-path="url(#j)" d="m56.984419 956.41796-52.9844191-.46865.0000002 23.62035 195.5429199-.0204v-26.85749c0-2.54081-2.98686-7.17388-5.54823-7.16756l-125.937528.31081c-9.375263 0-4.139978 10.43168-11.072743 10.58369z" fill="#16375b" fill-opacity=".801471" filter="url(#d)" transform="matrix(.14830504 0 0 .14830504 -.59322 -146.2721)"/><path d="m1-3h7l2-2h19c.554 0 1.016287.4462395 1 1l-.5 17c-.01629.55376-.446 1-1 1h-27c-.554 0-.98154361-.446308-1-1l-.5-15c-.01845642-.5536925.44599999-1 1-1z" fill="url(#a)"/><g transform="translate(-1 -14)"><path d="m1.3671875 23 .0332031 1h28.5996094v-1z" fill="#385da4"/><path d="m1.3671875 23 .0332031 1h29.1875004l.029297-1z" fill="url(#b)"/><path d="m1.4003906 24 .015625.5h29.1582034l.013672-.5z" fill="#a4c0e8"/></g><path d="m10-5-2 2h-7c-.554 0-1 .446-1 1v1c0-.554.44600003-1 1-1h7l2-2h19c.554 0 1 .446 1 1v-1c0-.554-.446-1-1-1z" fill="#a4c0e8"/><path d="m2-9h4.5v.9999999h-4.5z" fill="#fcf9e9"/><path d="m5.5-8.9999999h1v.9999999h-1z" fill="#fbc66d"/><path d="m.9980469-2.9902344c-.5505375 0-.9925198.4410516-.9980469.9902344l.5019531 15.009766c.00023.02285.011948.042.013672.06445.0381089.321065.7510483.923754.9843749.925784h.00195l-.5019531-16.9902344z" fill="url(#e)" opacity=".594286"/><path d="m29-5-.5 19c.554 0 .978702-.565256 1-1.266667l.5-16.4666663c.021298-.7014101-.446-1.2666667-1-1.2666667z" fill="url(#f)" opacity=".405714"/><path d="m2 3.2125582c-.5 0-.4629045.388713-.5.5l-.5 1.5v.5l.5-1.5c.037095-.111287 0-.5.5-.5h6.5c.2262959 0 .3200962.514049.4042969 1h20.0957031c.554 0 1 .446 1 1v-.5c0-.554-.446-1-1-1h-20.0957031c-.084201-.485951-.178001-1-.4042969-1z" fill="#a4c0e8" transform="translate(-1 -14)"/><g transform="matrix(.25 0 0 .25 -1 -14)"><circle cx="100" cy="36" fill-opacity=".680473" filter="url(#k)" r="28" transform="matrix(1.138896 0 0 1.138896 -21.889598 -1.111168)"/><circle cx="343.99899" cy="92" fill="url(#l)" r="36" transform="matrix(-.858425 .2300143 -.2300143 -.858425 408.45865 35.850447)"/><circle cx="92" cy="36" fill="url(#m)" filter="url(#n)" opacity=".975544" r="20" transform="matrix(1.1995995 0 0 1.1995995 -18.406698 -7.155252)"/><path d="m88 20.0375v19.9625h24v-4h-20v-16z" fill="url(#o)"/><circle cx="343.99899" cy="92" r="36" style="opacity:.8;fill:none;stroke-width:6.751382;clip-path:url(#q);stroke:url(#p);filter:url(#r)" transform="matrix(-.858425 -.2300143 -.2300143 .858425 408.45865 36.149589)"/><path d="m92.000037 8.1482072c-11.345716 0-20.826095 8.0116058-23.111114 18.6782148 4.554661 4.245895 13.196893 7.111109 23.111114 7.111109 9.914233 0 18.556453-2.865214 23.111113-7.111109-2.28501-10.666609-11.7654-18.6782148-23.111113-18.6782148z" fill="url(#s)" opacity=".8"/><circle cx="96" cy="8" filter="url(#u)" r="4" transform="matrix(.4375 0 0 .4375 50 6.5)"/><path d="m88 20.0375v19.9625h24v-4h-20v-16z" fill="url(#o)"/><path d="m88 20.03125v13.75c1.303847.103833 2.64111.15625 4 .15625v-13.9375z" fill="url(#v)" opacity=".8"/></g></g></svg>