<svg height="24" width="24" xmlns="http://www.w3.org/2000/svg" xmlns:xlink="http://www.w3.org/1999/xlink"><radialGradient id="a" cx="10.779233" cy="4.333702" gradientTransform="matrix(-1.8639066 -.06932268 .09816279 -2.8622989 27.875481 12.146043)" gradientUnits="userSpaceOnUse" r="4.989573" xlink:href="#c"/><linearGradient id="b" gradientTransform="matrix(1 0 0 .66667 1 9.9999)" gradientUnits="userSpaceOnUse" x1="12" x2="12" xlink:href="#c" y1="22"/><linearGradient id="c"><stop offset="0" stop-color="#555"/><stop offset="1" stop-color="#666"/></linearGradient><path d="m19.066557 9.1828489q0 1.9489891-.472831 3.5520041-.4613 1.603015-1.383898 2.744731-.922599 1.141716-2.294964 1.76447-1.360833.622754-3.148368.622754-1.8797941 0-3.2636919-.622754-1.3723653-.622754-2.2834314-1.76447-.8995336-1.141716-1.3377679-2.744731-.4382343-1.614547-.4382343-3.5750691 0-1.9605219.4382343-3.5520044.4382343-1.603015 1.3493004-2.7331982.9110661-1.1301832 2.2949639-1.7414047 1.3838978-.62275402 3.2636919-.62275402 1.787535 0 3.136835.62275402 1.360833.6112215 2.283432 1.7529372.922598 1.1301832 1.383898 2.7331982.472831 1.5914825.472831 3.5635369zm-12.3512876 0q0 1.5799501.2998446 2.8485231.2998445 1.25704.911066 2.145041.622754.876469 1.5684175 1.349301.9571965.461299 2.2718985.461299 1.314703 0 2.260367-.461299.957196-.472832 1.568417-1.349301.622754-.888001.911066-2.145041.288312-1.268573.288312-2.8485231 0-1.5914825-.288312-2.848523-.288312-1.2570405-.899533-2.1219767-.611222-.8764686-1.556885-1.3377679-.945664-.4728317-2.260367-.4728317-1.314703 0-2.2718985.4728317-.957196.4612993-1.57995 1.3377679-.622754.8649362-.9225985 2.1219767-.2998446 1.2570405-.2998446 2.848523z" fill="url(#a)" stroke="#000" stroke-opacity=".6" transform="scale(1.0208454 .97958028)"/><path d="m12.035156.50032079c-1.279319 0-2.3902005.2026833-3.332031.60937501-.9418305.3991604-1.7217585.9689612-2.3417969 1.7070313s-1.0806599 1.6289267-1.3789062 2.6757813c-.2982463 1.0393232-.4472657 2.2001429-.4472657 3.4804687 0 .2555335.011557.5034665.023438.7499995.047719-.9856997.1852306-1.8990097.4238277-2.7304682.2982463-1.0468546.7588678-1.9377112 1.3789062-2.6757813s1.3999664-1.3078709 2.3417969-1.7070313c.9418305-.4066917 2.052712-.6093749 3.332031-.609375 1.216531.0000001 2.284841.2026833 3.203125.609375.926134.3991604 1.702191.9711955 2.330078 1.7167969.627887.7380702 1.098166 1.6308798 1.41211 2.6777344.257366.8312396.407457 1.7461106.458984 2.7363285.01284-.245279.02539-.491797.02539-.7460941 0-1.2878571-.162583-2.4509111-.484375-3.4902344-.313943-1.0468546-.784222-1.9396642-1.412109-2.6777344-.627887-.7456014-1.403944-1.3176365-2.330078-1.7167969-.918284-.40669171-1.986594-.60937501-3.203125-.60937501zm-5.1406248 9.24218781c-.013231.250486-.039062.4873054-.039062.7519534 0 1.031792.1025773 1.962569.3066406 2.791015.2040632.820915.5137123 1.521651.9296875 2.101563.4238237.572381.9579783 1.013481 1.6015625 1.322266.6514326.301253 1.4236206.451172 2.3183596.451171.894739 0 1.663056-.149918 2.30664-.451171.651433-.308785 1.185588-.749885 1.601563-1.322266.423824-.579912.733473-1.280648.929687-2.101563.196215-.828446.294922-1.759223.294922-2.791015 0-.26463-.02439-.5014824-.03711-.7519534-.03718.7312214-.11143 1.4249224-.257813 2.0429684-.196214.820915-.505863 1.521651-.929687 2.101563-.415975.572381-.95013 1.013481-1.601563 1.322266-.643584.301253-1.411901.451171-2.30664.451171-.894739.000001-1.666927-.149918-2.3183596-.451171-.6435836-.308785-1.1777382-.749885-1.6015619-1.322266-.4159752-.579912-.7256243-1.280648-.9296875-2.101563-.1522342-.618032-.2289129-1.311766-.2675782-2.0429684z" fill="#eeeaf5" opacity=".2"/><g transform="translate(0 -3)"><path d="m2.5 22.333v1.3333h19v-1.3333z" fill="url(#b)"/><path d="m2.3921 22.392v1.2159h19.216v-1.2159z" fill="none" opacity=".61" stroke="#000" stroke-width=".78412"/><path d="m3 22.5v1h18v-1z" fill="#fff" opacity=".2"/></g><path d="m2.5 22.333v1.3333h19v-1.3333z" fill="url(#b)"/><path d="m2.3921 22.392v1.2159h19.216v-1.2159z" fill="none" opacity=".61" stroke="#000" stroke-width=".78412"/><path d="m3 22.5v1h18v-1z" fill="#fff" opacity=".2"/></svg>