<svg height="54" viewBox="0 0 17.991667 14.287501" width="68" xmlns="http://www.w3.org/2000/svg" xmlns:xlink="http://www.w3.org/1999/xlink"><linearGradient id="a" gradientTransform="matrix(.53057779 0 0 .21166665 -421.88979 90.702025)" gradientUnits="userSpaceOnUse" x1="814" x2="814" y1="967.55267" y2="914.21936"><stop offset="0" stop-color="#22a7f0"/><stop offset="1" stop-color="#19b5fe"/></linearGradient><linearGradient id="b" gradientTransform="matrix(.05636095 0 0 .38927203 1.207169 277.20488)" gradientUnits="userSpaceOnUse" x1="34" x2="33.037022" y1="47.000004" y2="18.000002"><stop offset="0" stop-color="#5e6b78"/><stop offset="1" stop-color="#768492"/></linearGradient><linearGradient id="c" gradientUnits="userSpaceOnUse" x1="2.504716" x2="13.793605" y1="284.211768" y2="295.500668"><stop offset="0" stop-color="#383e51"/><stop offset="1" stop-color="#655c6f" stop-opacity="0"/></linearGradient><linearGradient id="d" gradientTransform="matrix(.29162962 0 0 .29449278 -224.02566 14.440887)" gradientUnits="userSpaceOnUse" x1="798" x2="798" y1="958.21936" y2="912.21936"><stop offset="0" stop-color="#bdc3c7"/><stop offset="1" stop-color="#dadfe1"/></linearGradient><g stroke-width=".282222" transform="matrix(.93750102 0 0 .93750102 .56224 -264.33219)"><path d="m.52916711 283.08289v13.54668h13.41492589 3.518408v-13.54668z" fill="url(#d)"/><path d="m.52916711 296.34734v.28223h16.93333389v-.28223z" fill="#2e3132" fill-opacity=".294118"/><rect fill="#fff" fill-opacity=".411765" height=".282222" ry=".000005" width="16.933332" x=".529166" y="283.08292"/><path d="m3.0691671 284.21179-1.411111 1.41111 2.54 2.54-.564444.56444-.564445-.56444-1.411111 1.41111 2.54 2.54-.564444.56445-.564445-.56445-1.411111 1.41111 2.822223 3.10445h1.411111 11.5711109v-11.99445l-.564444-.42333v.84667h-12.8477269zm1.635456 1.41111h9.0889889v.84667h-8.1072739z" fill="url(#c)" fill-rule="evenodd" opacity=".2"/><path d="m1.6580561 284.21179v1.41111h1.411111v-1.41111zm0 3.9511v1.41111h1.411111v-1.41111zm0 3.95111v.56445.84666h1.411111v-.84666-.56445z" fill="url(#b)"/><path d="m3.6336121 284.21179v.84667h13.2644449v-.84667zm0 1.41111v.84667h10.1599999v-.84667zm0 2.54v.84667h13.2644449v-.84667zm0 1.41111v.84667h10.0809779v-.84667zm0 2.54v.84667h13.2644449v-.84667zm0 1.41111v.84667h10.0809779v-.84667z" fill="url(#a)"/></g></svg>