<svg viewBox="0 0 22 10" xmlns="http://www.w3.org/2000/svg" xmlns:xlink="http://www.w3.org/1999/xlink"><linearGradient id="a" gradientTransform="translate(-15.5 -1.5)" gradientUnits="userSpaceOnUse" x1="12.5" x2="12.478516" y1="8" y2=".990234"><stop offset="0" stop-color="#409cff"/><stop offset="1" stop-color="#0a84ff"/></linearGradient><linearGradient id="b" gradientUnits="userSpaceOnUse" x1="15" x2="15" xlink:href="#a" y1="10" y2="0"/><linearGradient id="c" gradientUnits="userSpaceOnUse" x1="7" x2="7" xlink:href="#a" y1="10" y2="0"/><path d="m6 0c-.1325995.00002553-.2597597.05271625-.3535156.14648438l-2.5 2.50000002c-.0937681.0937559-.1464589.2209161-.1464844.3535156v1 3 2c0 .554.446 1 1 1h6c.554 0 1-.446 1-1v-8c0-.554-.446-1-1-1h-.9648438-.0351562-2zm0 1h1 2 1v8h-6v-1.9648438c.0004121-.0117151.0004121-.0234411 0-.0351562v-3-1h2z" fill="url(#c)"/><path d="m16 0c.132599.00002553.25976.05271625.353516.14648438l2.5 2.50000002c.093768.0937559.146458.2209161.146484.3535156v1 3 2c0 .554-.446 1-1 1h-6c-.554 0-1-.446-1-1v-8c0-.554.446-1 1-1h.964844.035156 2zm0 1h-1-2-1v8h6v-1.9648438c-.000412-.0117151-.000412-.0234411 0-.0351562v-3-1h-2z" fill="url(#b)"/></svg>