<svg viewBox="0 0 16 16" xmlns="http://www.w3.org/2000/svg" xmlns:xlink="http://www.w3.org/1999/xlink"><filter id="a" color-interpolation-filters="sRGB" height="1.094553" width="1.097492" x="-.048746" y="-.047277"><feGaussianBlur stdDeviation=".36559322"/></filter><linearGradient id="b" gradientUnits="userSpaceOnUse" x1="9" x2="9" y1="1" y2="5"><stop offset="0" stop-color="#5b5b5b"/><stop offset="1" stop-color="#f2f2f7"/></linearGradient><linearGradient id="c" gradientTransform="translate(75 -7)" gradientUnits="userSpaceOnUse" x1="14" x2="13.79661" y1="22" y2="2.135593"><stop offset="0" stop-color="#409cff"/><stop offset="1" stop-color="#0a84ff"/></linearGradient><linearGradient id="d" gradientUnits="userSpaceOnUse" x1="10" x2="10" xlink:href="#c" y1="9" y2="0"/><linearGradient id="e" gradientTransform="matrix(1 0 0 -1 -4.495953 15.996409)" gradientUnits="userSpaceOnUse" x1="9.995953" x2="9.995953" xlink:href="#c" y1="-.003591" y2="8.996409"/>

/&amp;amp;gt;<path d="m1 12.940678h14v2.559322h-14z" filter="url(#a)" opacity=".15" stroke-width="1.015418"/><path d="m1 1c-.554 0-1 .446-1 1v6h1v-3-1-2h5 1 1 7v2 1 3h1v-6c0-.554-.446-1-1-1zm-1 7v6c0 .554.446 1 1 1h14c.554 0 .847804-.467316 1-1v-6h-1v4 1 1h-7-1-1-5v-1-1-4z" fill="#f2f2f7"/><path d="m1 5h14v3h-14z" fill="#2d2d2d"/><path d="m1 8h14v6h-14z" fill="#2d2d2d"/><path d="m1 5h14v1h-14z" fill="#f2f2f7"/><path d="m1 2h14v3h-14z" fill="url(#b)"/><g fill-rule="evenodd"><path d="m9.0039062 1-.0039062 3h-.4707031l.078125.00391c-.6457583-.0504178-1.242897.3506722-1.4804688.8671838-.2375717.5165115-.1557823 1.2319513.3027344 1.6894531l-.0585937-.0644531 2.4667969 2.9433593-.0390626-.0488281c.2773489.3759445.7164749.6020273 1.1835939.609375.01042.000163.02083.000163.03125 0 .46715-.00734.906251-.2334357 1.183594-.609375l-.03906.048828 2.466797-2.9433593-.05859.064453c.458511-.4575013.5403-1.172941.302728-1.6894529-.237572-.5165121-.83471-.9176021-1.480469-.8671876l.078125-.0039062h-.470703v-3zm-4.0196724 4.9996848c-.4671185.00735-.9062465.233434-1.1835937.609375l.0390625-.0488282-2.4667969 2.9433594.0585938-.064453c-.4585185.457503-.5403063 1.172943-.3027344 1.689453s.8347081.917603 1.4804687.867188l-.078125.0039h.4707032l.00195 3.003912h3.9921875l.00195-3.003906h.4707031l-.078125-.0039c.6457652.050407 1.2429032-.350682 1.480475-.867194s.1557834-1.231951-.3027344-1.689453l.0585938.064453-2.4667969-2.9433594.0390625.0488282c-.2773434-.3759401-.7164433-.6020387-1.1835938-.609375-.010416-.0001628-.020834-.0001628-.03125 0z" fill="#2d2d2d" fill-opacity=".784314"/><path d="m11 0c-.705995 0-1.0000001 0-.996094.5078125l-.0058591 4.4921875h-1.46875c-.4639408-.0362197-.7219964.5248265-.3925781.8535156l2.4667972 2.9433594c.092621.1255479.238534.2006712.394531.203125.155997-.00245.30191-.077577.394531-.203125l2.466797-2.9433594c.329419-.3286891.071363-.8897356-.392578-.8535156h-1.46875l-.002-4.4921875c.003953-.5078125-.290052-.5078125-.996047-.5078125z" fill="url(#d)"/><path d="m5.5040474 15.996409c-.705995 0-1.5040475.0036-1.5001412-.504221l-.00391-4.492188h-1.46875c-.463937.03622-.7219926-.524826-.3925743-.853515l2.4667969-2.9433597c.092622-.1255479.2385343-.2006712.3945312-.203125.155997.00245.30191.077577.394531.203125l2.466797 2.9433597c.329419.328689.071363.889735-.392578.853515h-1.46875l-.0039 4.492188c.0039.507812.2139424.504221-.4920526.504221z" fill="url(#e)"/></g></svg>