<svg viewBox="0 0 16 16" xmlns="http://www.w3.org/2000/svg" xmlns:xlink="http://www.w3.org/1999/xlink"><linearGradient id="a" gradientUnits="userSpaceOnUse" x1="11.5" x2="11.5" y1="16" y2="7"><stop offset="0" stop-color="#31de4b"/><stop offset="1" stop-color="#28d74b"/></linearGradient><linearGradient id="b" gradientUnits="userSpaceOnUse" x1="5" x2="5.536464" y1="10" y2="1.000032"><stop offset="0" stop-color="#409cff"/><stop offset="1" stop-color="#0a84ff"/></linearGradient>






     /&amp;amp;amp;amp;amp;gt;
 <path d="m5.5364663 1.0000351c-.2826966-.00348741-.5134911.2532544-.5136411.5712738v7.8572248c.0003644.3914471.3424145.6666763.6718345.5405141l8.9857803-3.4298459c.436841-.1695915.46197-.8538975.03906-1.0634501l-8.9838292-4.4273788c-.0628333-.0310838-.1305756-.0475313-.1992067-.0483413z" fill="url(#b)"/><path d="m2.9771752 1c-.554 0-1 .446-1 1v13c0 .554.446 1 1 1s1-.446 1-1v-13c0-.554-.446-1-1-1z" fill="#f2f2f7"/><path d="m11.5 6a5.5 5.5 0 0 0 -5.2050781 3.7402344l7.9140621-3.0214844a5.5 5.5 0 0 0 -2.708984-.71875z" fill="#2d2d2d" fill-opacity=".784314"/><path d="m11.5 7a4.5 4.5 0 0 0 -4.5 4.5 4.5 4.5 0 0 0 4.5 4.5 4.5 4.5 0 0 0 4.263672-3.078125l-1.894531-.632813a2.5 2.5 0 0 1 -2.369141 1.710938 2.5 2.5 0 0 1 -2.5-2.5 2.5 2.5 0 0 1 2.5-2.5 2.5 2.5 0 0 1 1.376953.4160156l-.730469.7304684a.50005.50005 0 0 0 .353516.853516h3a.50005.50005 0 0 0 .5-.5v-3a.50005.50005 0 0 0 -.515625-.5.50005.50005 0 0 0 -.337891.1464844l-.84375.84375a4.5 4.5 0 0 0 -2.802734-.9902344z" fill="url(#a)"/></svg>