<svg viewBox="0 0 16 16" xmlns="http://www.w3.org/2000/svg" xmlns:xlink="http://www.w3.org/1999/xlink"><filter id="a" color-interpolation-filters="sRGB" height="1.135959" width="1.153052" x="-.076526" y="-.067979"><feGaussianBlur stdDeviation=".44180839"/></filter><radialGradient id="b" cx="55.498295" cy="20.746534" gradientTransform="matrix(1 0 0 .72181261 0 7.10169)" gradientUnits="userSpaceOnUse" r="10.03901"><stop offset="0" stop-color="#ff9f0a"/><stop offset="1" stop-color="#ff9f0a"/></radialGradient><radialGradient id="c" cx="55.441967" cy="22.525862" gradientTransform="matrix(1.2258064 0 0 1.0478667 -12.519154 -1.07824)" gradientUnits="userSpaceOnUse" r="2.229184"><stop offset="0" stop-color="#2d2d2d"/><stop offset="1" stop-color="#2d2d2d" stop-opacity="0"/></radialGradient><linearGradient id="d" gradientTransform="translate(-25.830508 -3.59322)" gradientUnits="userSpaceOnUse" x1="14" x2="13.79661" y1="22" y2="2.135593"><stop offset="0" stop-color="#409cff"/><stop offset="1" stop-color="#0a84ff"/></linearGradient><linearGradient id="e" gradientUnits="userSpaceOnUse" x1="2.559322" x2="2.576271" xlink:href="#d" y1="12.720339" y2="10.144068"/><linearGradient id="f" gradientUnits="userSpaceOnUse" x1="2.486123" x2="2.32212" xlink:href="#d" y1="4.938183" y2="2.061817"/><linearGradient id="g" gradientUnits="userSpaceOnUse" x1="2.629941" x2="2.753574" xlink:href="#d" y1="12.938183" y2="10.061817"/><path d="m-5.5 2c.2769997 0 .5.2230003.5.5s-.2230003.5-.5.5h-9c-.277 0-.5-.2230003-.5-.5s.223-.5.5-.5zm0 3c.2769997 0 .5.2230003.5.5s-.2230003.5-.5.5h-5c-.277 0-.5-.2230003-.5-.5s.223-.5.5-.5zm0 5c.2769997 0 .5.223.5.5s-.2230003.5-.5.5h-9c-.277 0-.5-.223-.5-.5s.223-.5.5-.5zm0 3c.2769997 0 .5.223.5.5s-.2230003.5-.5.5h-5c-.277 0-.5-.223-.5-.5s.223-.5.5-.5z" fill="#f2f2f7" transform="scale(-1 1)"/><ellipse cx="2.5" cy="11.5" fill="url(#e)"/><path d="m4 3.5a1.5 1.5 0 0 1 -1.5 1.5 1.5 1.5 0 0 1 -1.5-1.5 1.5 1.5 0 0 1 1.5-1.5 1.5 1.5 0 0 1 1.5 1.5z" fill="url(#f)"/><path d="m4 11.5a1.5 1.5 0 0 1 -1.5 1.5 1.5 1.5 0 0 1 -1.5-1.5 1.5 1.5 0 0 1 1.5-1.5 1.5 1.5 0 0 1 1.5 1.5z" fill="url(#g)"/><path d="m10.970703 6.3339844c.005373.0153298.009787.0308939.013672.046875-.00406-.0161088-.008047-.0314818-.013672-.046875zm.021485.0839844c.004371.0266893.007812.0540674.007812.0820312 0-.0279406-.003333-.055541-.007812-.0820312zm-5.0878911 3.5820312c-.2734841.28865-.482222.602301-.6660157.916016.0771381.048599.1634353.083984.2617188.083984h7.550781l.697266-1zm-.4042969 3c-.2769997 0-.5.223-.5.5s.2230003.5.5.5h5c.277 0 .5-.223.5-.5s-.223-.5-.5-.5z" fill="#2d2d2d" fill-opacity=".888235"/><g transform="matrix(.40739216 0 0 .40739216 -14.782967 2.351418)"><path d="m57.661017 18.305085 12.20339-12.0000003 1.118644-1.0169491c.535947-.4093238 1.138074-.6755092 2.338983-.6101695l.813559.6101695c.306849.6596707.152068 1.3286734.101695 2.0338983l-11.694915 16.7796611z" fill="#3a3a3c" stroke="#f2f2f7" stroke-width="2.454637"/><path d="m59.389831 19.322034 12.813559-13.1186442.686441-.5338983.355932.3305085-12.122973 15.267452z" fill="#2d2d2d" filter="url(#a)"/><path d="m54.915254 19.525424c-2.355192 1.12312-2.986044 2.645733-4.067796 4.881356-1.280902 3.099136-3.365034 4.179849-6 5.898305 4.002224 2.208107 12.344829 3.382311 15.355932-1.016949 1.803572-2.317145 5.097789-5.637418 1.932203-8.237289-2.997587-2.267403-4.004437-2.954713-7.220339-1.525423z" fill="url(#b)" stroke="#ff6961" stroke-width="2.454637"/><path d="m49.395592 26.820763c-1.20494 1.428749-2.746668 2.309185-4.547936 3.483925 4.002224 2.208106 12.344366 3.383635 15.355469-1.015626-2.950168-3.198325-8.750083-1.802762-10.807533-2.468299z" fill="#0a84ff" stroke="#409cff" stroke-width="2.454637"/><ellipse cx="55.441967" cy="22.525862" fill="url(#c)" rx="2.732548" ry="2.335888"/></g><circle cx="2.5" cy="11.5" fill="url(#e)"/></svg>