<svg viewBox="0 0 11 11" xmlns="http://www.w3.org/2000/svg"><g transform="matrix(.87595733 0 0 .91842651 -5.262627 -.940346)"><path d="m6.4994333 12.50761 7.0081367-5.4964657-7.0081367-5.5187543z" display="block" fill="#e9e9e9"/><path d="m11.94034 7.0111443-4.4397443-3.5101265-.0904509 7.0835782z" style="display:block;opacity:.5;fill:none;stroke:#fff;stroke-width:.949358;stroke-miterlimit:7"/><path d="m6.4994333 12.50761 7.0081367-5.4964657-7.0081367-5.5187545z" style="display:block;fill:none;stroke:#8c8c8c;stroke-width:.984458;stroke-linejoin:round;stroke-miterlimit:7"/></g><path d="m5.4999995 2.8809524c0 1.1392865.7289682 2.105469 1.7460316 2.4655881v.1534596 4.3650797c0 .4836502.389365.8730152.8730159.8730152.4836507 0 .8730161-.389364.8730161-.8730152h.436508c.241825.0000011.4365071-.1946822.4365071-.4365083 0-.241824-.1946821-.4365083-.4365071-.4365083h-.436508v-.8730155h.436508c.241825 0 .4365071-.1946815.4365071-.4365078 0-.2418246-.1946821-.4365079-.4365071-.4365079h-.436508v-.8730161h.436508c.241825 0 .4365071-.1946816.4365071-.4365078 0-.2418254-.194682-.436508-.4365071-.436508h-.436508v-.1534596c1.0170629-.3601191 1.7460319-1.3263017 1.7460319-2.4655881 0-1.4470238-1.1720239-2.61904752-2.619048-2.61904752-1.4470238 0-2.6190475 1.17202372-2.6190475 2.61904752zm1.7460316 0c0-.4823413.3906746-.8730159.8730159-.8730159.4823412 0 .8730161.3906746.8730161.8730159 0 .482342-.390675.8730157-.8730161.8730157-.4823413 0-.8730159-.3906737-.8730159-.8730157z" fill="#fcaf3e" stroke="#ce5c00" stroke-linecap="round" stroke-linejoin="round" stroke-width=".52381"/></svg>