<svg viewBox="0 0 14 14" xmlns="http://www.w3.org/2000/svg" xmlns:xlink="http://www.w3.org/1999/xlink"><radialGradient id="a" cx="65.297462" cy="48.216358" gradientTransform="matrix(0 .52544994 -.5716256 0 46.193389 -21.123812)" gradientUnits="userSpaceOnUse" r="31.000002"><stop offset="0" stop-color="#cdf87e"/><stop offset=".26238" stop-color="#a2e34f"/><stop offset=".66093999" stop-color="#68b723"/><stop offset="1" stop-color="#1d7e0d"/></radialGradient><linearGradient id="b" gradientTransform="matrix(.2817955 0 0 .2800956 12.196562 12.014885)" gradientUnits="userSpaceOnUse" x1="24.138529" x2="24.138529" y1="10.631441" y2="35.62291"><stop offset="0" stop-color="#fff"/><stop offset=".00000002" stop-color="#fff" stop-opacity=".235294"/><stop offset="1" stop-color="#fff" stop-opacity=".156863"/><stop offset="1" stop-color="#fff" stop-opacity=".392157"/></linearGradient><linearGradient id="c" gradientTransform="matrix(.2817955 0 0 .2800956 12.178741 12.02218)" gradientUnits="userSpaceOnUse" x1="24.138529" x2="24.138529" y1="21.34207" y2="24.912279"><stop offset="0" stop-color="#fff"/><stop offset=".00000019" stop-color="#fff" stop-opacity=".235294"/><stop offset="1" stop-color="#fff" stop-opacity=".156863"/><stop offset="1" stop-color="#fff" stop-opacity=".392157"/></linearGradient><g transform="matrix(1.0920945 0 0 1.09091 -13.190039 -13.189788)"><path d="m16.482179 16.507295v-3h4v3h3v4h-3v2.999991h-4v-2.999991h-2.989465v-4z" fill="url(#a)"/><g fill="none"><path d="m17.5 18.004404v-3.504404h2v3.5m0 1v3.5h-2v-3.5" opacity=".5" stroke="url(#b)"/><path d="m16.482179 16.507295v-3h4v3h3v4h-3v2.999991h-4v-2.999991h-2.989465v-4z" opacity=".5" stroke="#0f5a00" stroke-linecap="round" stroke-linejoin="round"/><path d="m20 17.507295 2.482179-.0073v2l-2.482179.0073m-3 0-2.5-.0073v-2l2.5.0073" opacity=".5" stroke="url(#c)"/></g></g></svg>