<svg height="24" width="24" xmlns="http://www.w3.org/2000/svg"><path d="m3 2c-.554 0-1 .446-1 1v18c0 .554.446 1 1 1h7.216797l.738281-3h-7.955078v-14h18v5.105469c.238067.08419.463775.215975.652344.404297l.347656.347656v-7.857422c0-.554-.446-1-1-1zm18 10.685547v1.734375l.886719-.84961zm1 3.544922-.238281.228515-.0078.0059-.740234.695312-.013685.013632v1.826172h-1.814453l-2.980469 3h4.794922c.554 0 1-.446 1-1z" fill="#808080"/><g fill="#fff"><path d="m4 3v1h1v-1zm3 0v1h1v-1zm3 0v1h1v-1zm3 0v1h1v-1zm3 0v1h1v-1zm3 0v1h1v-1z"/><path d="m3 5h18v14h-18z"/><path d="m4 20v1h1v-1zm3 0v1h1v-1zm3 0v1h.462891l.246093-1zm9 0v1h1v-1z"/></g><g transform="translate(-1 -1)"><path d="m18.480469 14.611328-5.529297 5.523438-.951172 3.865234 3.806641-1.011719 5.509765-5.544922z" fill="#eac282"/><path d="m21.316406 17.443359.753906-.707031-2.847656-2.849609-.742187.724609z" fill="#fff"/><path d="m21.419922 12c-.189562 0-.378184.07172-.523438.216797l-1.673828 1.669922 2.847656 2.849609 1.710938-1.638672c.290506-.290127.290506-.756747 0-1.046875l-1.835938-1.833984c-.145254-.145064-.335828-.216797-.52539-.216797z" fill="#eac282"/></g></svg>