<svg viewBox="0 0 16 16" xmlns="http://www.w3.org/2000/svg" xmlns:xlink="http://www.w3.org/1999/xlink"><linearGradient id="a" gradientTransform="matrix(-1 0 0 1 7.944938 0)" gradientUnits="userSpaceOnUse" x1="-39.873871" x2="-39.721909" y1="10.694253" y2="4.321372"><stop offset="0" stop-color="#0040dd"/><stop offset="1" stop-color="#0a84ff"/></linearGradient><g fill="none" stroke-linecap="round" stroke-linejoin="round" transform="matrix(-1 0 0 1 16.944835 0)"><g stroke="#4b4b4f"><path d="m1.437917 2.5h13.006918z"/><path d="m1.4886391 7.5h5.0113609z"/><path d="m1.4929284 9.5000001h5.0322264z"/><path d="m1.444835 12.5h13z"/><path d="m1.4886391 5.5h5.0113609z"/></g><g stroke="#e9e9e9" stroke-opacity=".992157" transform="translate(0 1)"><path d="m1.437917 2.5h13.006918z"/><path d="m1.4886391 7.5h5.0113609z"/><path d="m1.4929284 9.5000001h5.0322264z"/><path d="m1.444835 12.5h13z"/><path d="m1.4886391 5.5h5.0113609z"/></g></g><path d="m5.4604602 4.0000003c.127164.00407.247996.05645.337891.1464844l2.9999996 3c.1951757.1952684.1951757.5117628 0 .7070312l-2.9999996 3.0000001c-.31434.314083-.851578.09279-.853516-.351563v-1.5019527l-3.499897-.0000007c-.275365-.00111-.49996696-.2246334-.49999996-.5v-2c.000034-.2768918.22506296-.5010453.50195296-.5l3.497944.0000007v-1.5c-.0001-.2823451.233417-.5087853.515625-.5z" fill="url(#a)"/></svg>