<svg viewBox="0 0 16 16" xmlns="http://www.w3.org/2000/svg" xmlns:xlink="http://www.w3.org/1999/xlink"><linearGradient id="a" gradientTransform="matrix(-1 0 0 1 7.000103 -4)" gradientUnits="userSpaceOnUse" x1="-39.873871" x2="-39.721909" y1="10.694253" y2="4.321372"><stop offset="0" stop-color="#0040dd"/><stop offset="1" stop-color="#007aff"/></linearGradient><path d="m4.515625 0c.1271638.00407.247996.05645.3378906.1464844l3 3c.1951757.1952684.1951757.5117628 0 .7070312l-3 3.0000001c-.3143393.314083-.8515776.092794-.8535156-.351563v-1.5019527l-3.49989743-.0000007c-.2753644-.00111-.49996629-.2246334-.49999999-.5v-2c.0000342-.2768918.2250632-.5010453.50195309-.5l3.49794433.0000007v-1.5c-.0000999-.2823451.2334165-.5087853.515625-.5z" fill="url(#a)"/><g fill="#48484a" stroke-width="5"><path d="m1.5 7h13c.277 0 .5.223.5.5s-.223.5-.5.5h-13c-.277 0-.5-.223-.5-.5s.223-.5.5-.5z"/><path d="m1.5 9h13c.277 0 .5.223.5.5s-.223.5-.5.5h-13c-.277 0-.5-.223-.5-.5s.223-.5.5-.5z"/><path d="m1.5 11h13c.277 0 .5.223.5.5s-.223.5-.5.5h-13c-.277 0-.5-.223-.5-.5s.223-.5.5-.5z"/><path d="m1.5 13h9c.277 0 .5.223.5.5s-.223.5-.5.5h-9c-.277 0-.5-.223-.5-.5s.223-.5.5-.5z"/><path d="m9.5 5h5c.277 0 .5.223.5.5s-.223.5-.5.5h-5c-.277 0-.5-.223-.5-.5s.223-.5.5-.5z"/></g></svg>