<svg viewBox="0 0 24 24" xmlns="http://www.w3.org/2000/svg"><g fill="#efefef"><path d="m17 10c-3.865993 0-7 3.134007-7 7s3.134007 7 7 7 7-3.134007 7-7-3.134007-7-7-7zm0 2c2.761424 0 5 2.238576 5 5s-2.238576 5-5 5-5-2.238576-5-5 2.238576-5 5-5z"/><path d="m2 5v14c0 1.661994 1.3380051 3 3 3h5.296875a8.5 8.5 0 0 1 -.9140625-2h-3.8828125c-.8309976 0-1.5-.669003-1.5-1.5v-13.5zm14 4v.1484375a8.5 8.5 0 0 1 1.5-.1484375zm1.5 0a8.5 8.5 0 0 1 .5.015625v-.015625z"/><path d="m5 2a3 3 0 0 0 -3 3 3 3 0 0 0 .0234375.3242188c.4358823-.205238.9382414-.3242188 1.4765625-.3242188h.5a1 1 0 0 1 1-1 1 1 0 0 1 1 1h2a3 3 0 0 0 -3-3z"/><path d="m19 2v2a1 1 0 0 1 1 1h2a3 3 0 0 0 -3-3z"/><path d="m5 2h14v2h-14z"/><path d="m6 5v1c0 1.661996 1.3380034 3 3 3h10c1.661996 0 3-1.338004 3-3v-1h-2v.5c0 .830998-.669002 1.5-1.5 1.5h-9c-.830998 0-1.5-.669002-1.5-1.5v-.5z"/><path d="m16.5 13c-.277 0-.5.223-.5.5v2.5h-2.5c-.277 0-.5.223-.5.5v1c0 .277.223.5.5.5h2.5v2.5c0 .277.223.5.5.5h1c.277 0 .5-.223.5-.5v-2.5h2.5c.277 0 .5-.223.5-.5v-1c0-.277-.223-.5-.5-.5h-2.5v-2.5c0-.277-.223-.5-.5-.5z"/></g></svg>