<svg height="24" viewBox="0 0 24 24" width="24" xmlns="http://www.w3.org/2000/svg"><path d="m6.6523438 2c-1.4460573 0-2.6523305.5539163-2.6523438 2 5.74521-.0000133 9.25479 0 15 0v16c-5.74521-.000013-9.25479 0-15 0 0 1.44607 1.2062598 1.886719 2.6523438 1.886719h12.3476562c1.446057 0 2-.440635 2-1.886719v-16c0-1.4460572-.55393-2-2-2zm-3.1523438 4c-.277 0-.5.223-.5.5s.223.5.5.5h2c.277 0 .5-.223.5-.5s-.223-.5-.5-.5zm0 2c-.277 0-.5.223-.5.5s.223.5.5.5h2c.277 0 .5-.223.5-.5s-.223-.5-.5-.5zm0 2c-.277 0-.5.223-.5.5s.223.5.5.5h2c.277 0 .5-.223.5-.5s-.223-.5-.5-.5zm5.5 2c-.554 0-1 .446-1 1v1c0 .554.446 1 1 1h7c.554 0 1-.446 1-1v-1c0-.554-.446-1-1-1zm-5.5 0c-.277 0-.5.223-.5.5s.223.5.5.5h2c.277 0 .5-.223.5-.5s-.223-.5-.5-.5zm0 2c-.277 0-.5.223-.5.5s.223.5.5.5h2c.277 0 .5-.223.5-.5s-.223-.5-.5-.5zm5 2c-.277 0-.5.223-.5.5s.223.5.5.5h8c.277 0 .5-.223.5-.5s-.223-.5-.5-.5zm-5 0c-.277 0-.5.223-.5.5s.223.5.5.5h2c.277 0 .5-.223.5-.5s-.223-.5-.5-.5zm0 2c-.277 0-.5.223-.5.5s.223.5.5.5h2c.277 0 .5-.223.5-.5s-.223-.5-.5-.5z" fill="#aaa8ac"/></svg>