<svg viewBox="0 0 24 24" xmlns="http://www.w3.org/2000/svg"><g fill="#efefef"><path d="m19 2a7 9 0 0 1 -7 9h1v1.917969a9 11 0 0 0 8-10.917969zm-8 9.082031a9 11 0 0 0 -8 10.917969h2a7 9 0 0 1 7-9h-1z" opacity=".35"/><path d="m9 9v6h6v-6zm2 2h2v2h-2z"/><path d="m19.015625 14.001953c.255858 0 .511719.09766.707031.292969l2.984375 2.998047c.1875.1875.292969.441406.292969.707031s-.105469.519531-.292969.707031l-2.984375 2.998047c-.195312.195309-.451173.292969-.707031.292969s-.511719-.09766-.707031-.292969c-.1875-.187499-.292969-.441407-.292969-.707031s.106521-.518487.292969-.707031l1.277344-1.291016h-6.585938c-.553998 0-1-.446003-1-1s.446002-1 1-1h6.585938l-1.277344-1.291016c-.186448-.188545-.292969-.441407-.292969-.707031s.105469-.519532.292969-.707031c.195312-.195312.451173-.292969.707031-.292969z"/></g></svg>