<svg viewBox="0 0 24 24" xmlns="http://www.w3.org/2000/svg"><g fill="#efefef"><path d="m9.0507812 7 1.7402348 2.4394531c.12109.1679688.1875.3750011.1875.5820309v9.339844l1.021484-.509766v-3.851562c0-.862713.389288-1.616856.978516-2.21875v-2.759766c0-.2070298.066406-.4140621.1875-.5820309l1.740234-2.4394531z" opacity=".35"/><path d="m5.0214844 2.0214844c-.8124992 0-1.2851566.9179699-.8125 1.5820312l4.7695312 6.7382814v10.636719c0 .742187.7812508 1.226563 1.4492184.894531l2.179688-1.089844c-.376053-.516421-.607422-1.117618-.607422-1.783203v-.148438l-1.021484.509766v-9.339844c0-.2070304-.06641-.414062-.1875-.5820309l-3.8671879-5.4179687h10.1093749l-3.867187 5.4179687c-.121094.1679689-.1875.3750005-.1875.5820309v2.759766c.28418-.290289.613693-.545559.970703-.759766.317969-.190781.663095-.356547 1.029297-.496093v-1.183594l4.8125-6.7382814c.476561-.6640613-.000001-1.5820312-.8125-1.5820312z"/><path d="m18 12c-2.761424 0-5 1.343146-5 3v4c0 1.656854 2.238576 3 5 3s5-1.343146 5-3v-4c0-1.656854-2.238576-3-5-3zm0 2c1.656854 0 3 .447715 3 1s-1.343146 1-3 1-3-.447715-3-1 1.343146-1 3-1zm-3 3.4c.865481.389466 1.918149.6 3 .6s2.134519-.210534 3-.6v1.6c0 .552285-1.343146 1-3 1s-3-.447715-3-1z"/></g></svg>