<svg viewBox="0 0 24 24" xmlns="http://www.w3.org/2000/svg"><g fill="#efefef"><path d="m5 5c-.5712982 0-1 .4287018-1 1v2h.7441406l-.3691406-.7382812c-.3799695-.7596063.2695988-1.6272276 1.1054688-1.4765626l2.4804687.4472657 1.0390625-1.1191407v-.1132812zm6.521484 0 .353516 2.5644531.837891.4355469h1.287109v-3zm3.478516 0v3h5v-2c0-.5712982-.428703-1-1-1z" opacity=".35"/><path d="m5 3c-1.6446968 0-3 1.3553032-3 3v13c0 1.644696 1.3553032 3 3 3h14c.042162 0 .083236-.004096.125-.005859l-1.994141-1.994141h-2.130859v-2.130859l-1.869141-1.869141h-3.130859v-.787109c-.0966646-.052122-.1893013-.118583-.2714844-.207032l-.7285156-.783203v1.777344h-5v-3h.3789062c-.1394555-.27304-.1627747-.608183-.0039062-.925781l.0371094-.074219h-.4121094v-3h1.2441406l-.5-1h-.7441406v-2c0-.5712988.4287012-1 1-1h4v.1132812l.7285156-.7832031c.2712985-.2918706.6864524-.401362 1.0664064-.28125.379552.1199179.656235.4475276.710937.8417969l.015625.109375h2.478516v3h-1.287109l1.449218.7519531c.743052.3846462.743052 1.4473849 0 1.8320309l-.162109.083985v.597656c.16231.073893.313109.170497.443359.302734l.003907.001953 1.429687 1.429688h4.123047v3h-1.123047l.998047 1h.125v.125l1.994141 1.994141c.001603-.03983.005859-.07895.005859-.119141v-13c0-1.6446968-1.355304-3-3-3zm10 2h4c.571298 0 1 .4287012 1 1v2h-5zm0 4h5v3h-5zm-11 8h5v3h-4c-.5712988 0-1-.428702-1-1zm6 0h4v3h-4z"/><path d="m10.484087 5.0310107-2.152344 2.3164063-3.0351559-.546875 1.4335939 2.867188-1.4335939 2.867187 3.0351559-.546875 2.152344 2.316407.441406-3.203126 2.761719-1.433593-2.761719-1.433594zm2.507813 6.9609383c-.40625 0-.773438.246093-.925782.625-.152344.375-.0625.808593.230469 1.089843l8.985655 8.986237c.25.261719.621094.367188.972656.277344.347656-.08984.625-.367188.714844-.714844.08984-.351562-.01563-.722656-.273438-.976562l-8.985654-8.986237c-.1875-.191407-.449219-.300781-.71875-.300781z"/></g></svg>