<svg viewBox="0 0 24 24" xmlns="http://www.w3.org/2000/svg"><g fill="#efefef"><path d="m2 2v2h20v-2zm4.9492188 4.015625a1.9999988 2.0000827 0 0 0 -2 2 1.9999988 2.0000827 0 0 0 2 2 1.9999988 2.0000827 0 0 0 2-2 1.9999988 2.0000827 0 0 0 -2-2zm4.0507812.984375v2h7v-2zm8 0v2h3v-2zm-12.0507812 11.015625a1.9999988 2.0000827 0 0 0 -2 2 1.9999988 2.0000827 0 0 0 2 2 1.9999988 2.0000827 0 0 0 2-2 1.9999988 2.0000827 0 0 0 -2-2zm12.7109372.984375-.660156.660156v1.339844h3v-2zm-1.660156 1.658203-.341797.341797h.341797z"/><path d="m1 12v4l3-2zm6 .033203a1.9999988 2.0000827 0 0 0 -2 2 1.9999988 2.0000827 0 0 0 2 2 1.9999988 2.0000827 0 0 0 2-2 1.9999988 2.0000827 0 0 0 -2-2zm4 .966797v2h3.345703l2.001953-2z" opacity=".35"/><path d="m21.554571 10.003178c-.49097.006-.9906.19654-1.4326.63855l-9.625681 9.619612c-.31768.31764-.4962.74845-.49629 1.19769v2.54097h2.54097c.44924-.00008.88005-.1786 1.1977-.49629l9.625691-9.619602c1.51544-1.51544.07-3.71839-1.5997-3.87266-.0695-.007-.13995-.009-.21008-.008zm-1.50539 3.05545.89828.89827-.44831.44996-7.084711 7.078642-.44997.44831-.89828-.89827.44831-.44997 7.084721-7.078632z" stroke-width=".999998"/></g></svg>