<svg viewBox="0 0 24 24" xmlns="http://www.w3.org/2000/svg"><g fill="#efefef"><path d="m11.997593 6.0000004c-2.8350596.001-5.2928096 2.0017899-5.8710896 4.7773396-.52818 2.5335.68938 5.03548 2.87305 6.32618l.002.89843a1.0001 1.0001 0 0 0 .9999996.99805h4a1.0001 1.0001 0 0 0 1-.99805l.002-.90039c2.18295-1.29215 3.39908-3.79684 2.86914-6.33008-.58057-2.7754397-3.03958-4.7728396-5.875-4.7714796zm0 1.9999999c1.90014-.00091 3.52887 1.32153 3.91797 3.1816397.38903 1.85966-.57198 3.72312-2.3125 4.48438a1.0001 1.0001 0 0 0 -.59961.91406v.41992h-2.0039v-.41797a1.0001 1.0001 0 0 0 -.59961-.91406c-1.7410796-.76005-2.7041696-2.62443-2.3164096-4.48438.38757-1.8601697 2.0141596-3.1826797 3.9140596-3.1835897zm-1.99609 11.9999997v1c0 .554.446 1 1 1h2c.554 0 1-.446 1-1v-1z"/><path d="m10.645463 12.14645a.5.5 0 0 0 0 .70704l1 1a.50005.50005 0 0 0 .70704 0l1-1a.5.5 0 0 0 0-.70704.5.5 0 0 0 -.70704 0l-.64648.64649-.64648-.64649a.5.5 0 0 0 -.70704 0z" fill-opacity=".35"/><path d="m12 2c-.553999 0-1 .4460006-1 1v1c0 .5539994.446001 1 1 1s1-.4460006 1-1v-1c0-.5539994-.446001-1-1-1zm-6.3632812 2.6347656c-.2556191 0-.5111631.099054-.7070313.2949219-.3917357.3917363-.3917363 1.0223262 0 1.4140625l.7070313.7070312c.3917357.3917359 1.0223263.3917361 1.4140624 0 .391736-.3917362.391736-1.0223265 0-1.4140624l-.7070312-.7070313c-.195868-.1958679-.4514122-.2949219-.7070312-.2949219zm12.7265622 0c-.255619 0-.511163.0990538-.707031.2949219l-.707031.7070313c-.391736.391736-.391736 1.0223264 0 1.4140624.391736.3917362 1.022327.3917362 1.414062 0l.707031-.7070312c.391736-.3917361.391736-1.0223265 0-1.4140625-.195868-.1958681-.451412-.2949219-.707031-.2949219zm-15.363281 6.3652344c-.5539988 0-1 .446002-1 1s.4460012 1 1 1h1c.5539988 0 1-.446002 1-1s-.4460012-1-1-1zm17 0c-.553998 0-1 .446002-1 1s.446002 1 1 1h1c.553998 0 1-.446002 1-1s-.446002-1-1-1zm-13.65625 5.65625c-.255619 0-.5111631.097101-.7070312.292969l-.7070313.707031c-.3917363.391737-.3917361 1.022326 0 1.414062.391736.391736 1.0223261.391737 1.4140625 0l.7070312-.707031c.3917365-.391736.3917362-1.022326 0-1.414062-.195868-.195868-.4514122-.292969-.7070312-.292969zm11.3125 0c-.255619 0-.511163.097101-.707031.292969-.391737.391736-.391737 1.022327 0 1.414062l.707031.707031c.391737.391736 1.022326.391736 1.414062 0s.391737-1.022325 0-1.414062l-.707031-.707031c-.195868-.195869-.451412-.292969-.707031-.292969z"/></g></svg>