<svg viewBox="0 0 24 24" xmlns="http://www.w3.org/2000/svg"><g fill="#efefef"><path d="m6.8682536 3.4830701-2.6846592 9.4602399-.6835944-5.94331h-2.5v2h1l1 11.766949c.5038356.355094.7401191.274234 1 0l5-15.766949h13v2h2v-2c0-1.1045695-.895431-2-2-2h-14.5c-.2268214.022989-.4518815.06095-.6317464.4830701z"/><path d="m11.238281 8.015625c-.681975-.0006043-1.23498.5523993-1.234375 1.234375.00098.283515.09961.558036.279297.777344.007.0099.01418.01964.02149.0293l3.712885 4.943356-3.71289 4.943359c-.0073.0097-.01449.0194-.02149.0293-.179687.219308-.278317.493829-.279297.777344-.000605.681975.5524 1.23498 1.234375 1.234375.476523-.000806.909946-.276068 1.113281-.707031l.002-.0059 3.146484-4.308593 3.146484 4.308593.002.0059c.203337.430962.636758.706224 1.113281.707031.681975.000604 1.234979-.5524 1.234375-1.234375-.00098-.283516-.09961-.558036-.279297-.777344-.007-.0099-.01419-.01964-.02148-.0293l-3.712982-4.943359 3.71289-4.943359c.0073-.0097.01448-.0194.02148-.0293.179687-.219308.278317-.493828.279297-.777344.000604-.6819749-.5524-1.2349793-1.234375-1.234375-.476523.0008066-.909944.2760687-1.113281.7070312l-.002.00586-3.146433 4.3085958-3.146484-4.3085934-.002-.00586c-.203242-.4309619-.636712-.706224-1.113235-.7070306z"/></g></svg>