<svg viewBox="0 0 24 24" xmlns="http://www.w3.org/2000/svg"><g fill="#efefef"><path d="m5 2v1h1v-1zm0 2v4h1v-4zm-2 5v1h1v-1zm2 0v1h1v-1zm-2 2v4h1v-4zm2 0v4h1v-4zm-4 5v1h1v-1zm2 0v1h1v-1zm2 0v1h1v-1zm-4 2v4h1v-4zm2 0v4h1v-4zm2 0v4h1v-4z"/><path d="m8.5 4.0234378c-.2769997 0-.5.2230002-.5.5v.9882812c0 .2769997.2230003.5.5.5h13c.277 0 .5-.2230003.5-.5v-.9882812c0-.2769998-.223-.5-.5-.5zm0 6.9882812c-.2769997 0-.5.223-.5.5v.988281c0 .277.2230003.5.5.5h13c.277 0 .5-.223.5-.5v-.988281c0-.277-.223-.5-.5-.5zm0 7c-.2769997 0-.5.223-.5.5v.988281c0 .277.2230003.5.5.5h13c.277 0 .5-.223.5-.5v-.988281c0-.277-.223-.5-.5-.5z"/></g></svg>