<svg viewBox="0 0 24 24" xmlns="http://www.w3.org/2000/svg"><g fill="#efefef"><path d="m8.5 4.0234378c-.2769997 0-.5.2230002-.5.5v.9882812c0 .2769997.2230003.5.5.5h13c.277 0 .5-.2230003.5-.5v-.9882812c0-.2769998-.223-.5-.5-.5zm0 6.9882812c-.2769997 0-.5.223-.5.5v.988281c0 .277.2230003.5.5.5h13c.277 0 .5-.223.5-.5v-.988281c0-.277-.223-.5-.5-.5zm0 7c-.2769997 0-.5.223-.5.5v.988281c0 .277.2230003.5.5.5h13c.277 0 .5-.223.5-.5v-.988281c0-.277-.223-.5-.5-.5z"/><path d="m4 2v1h1v4h-1v1h3v-1h-1v-4h1v-1zm-2.5 7v1h1.5v4h-1.5v1h5.5v-1h-1v-4h1v-1zm2.5 1h1v4h-1zm-4 6v1h1v4h-1v1h5 2v-1h-1v-4h1v-1h-2zm2 1h1v4h-1zm2 0h1v4h-1z" stroke-width=".5"/></g></svg>