<svg viewBox="0 0 24 24" xmlns="http://www.w3.org/2000/svg"><g fill="#efefef"><path d="m6 2c-1.6446994 0-3 1.3553016-3 3v15c0 1.644698 1.3553006 3 3 3h7.783203c-.331728-.60625-.33455-1.391026-.0078-2h-7.775403c-.5712964 0-1-.428701-1-1v-15c0-.5712994.4287036-1 1-1h7v3c0 .999999 1.000001 2 2 2h3v7.662109l1.074219-1.074218c.253528-.253311.578898-.417588.925781-.498047v-7.589844c-.000051-.2651983-.105433-.51952-.292969-.7070312l-4.5-4.5c-.187511-.1875366-.441832-.2929174-.707031-.2929688z"/><path d="m21.204989 16.295011a1.0072306 1.0072306 0 0 0 -1.42444 0l-1.780549 1.780549-1.780549-1.780549a1.0072306 1.0072306 0 0 0 -1.42444 0 1.0072306 1.0072306 0 0 0 0 1.42444l1.780549 1.780549-1.780549 1.780549a1.0072306 1.0072306 0 0 0 0 1.42444 1.0072306 1.0072306 0 0 0 1.42444 0l1.780549-1.780549 1.780549 1.780549a1.0072306 1.0072306 0 0 0 1.42444 0 1.0072306 1.0072306 0 0 0 0-1.42444l-1.780549-1.780549 1.780549-1.780549a1.0072306 1.0072306 0 0 0 0-1.42444z" stroke-width="1.00723"/><path d="m7 6v2h3v-2zm2 4v2h6v-2zm-2 4v2h6v-2z"/></g></svg>