<svg viewBox="0 0 24 24" xmlns="http://www.w3.org/2000/svg"><g fill="#efefef"><path d="m5 9c-1.644696 0-3 1.355304-3 3v8c0 1.644696 1.355304 3 3 3h4 6 2.5 1.5c1.644696 0 3-1.355304 3-3v-8c0-1.644696-1.355304-3-3-3zm.802734 2h12.394532l-5.919922 3.914841c-.085155.056775-.181249.08516-.277344.085159-.09609-.000001-.193242-.02954-.277344-.08516zm-1.802734 1.201172 6.613281 4.377732c.837378.558258 1.93606.558258 2.773438 0l6.613281-4.377732v7.798828c0 .571298-.428702 1-1 1h-1.5-2.5-6-4c-.571298 0-1-.428702-1-1z"/><path d="m12 0c-.25588 0-.51177.0978-.70703.29297l-1.24805 1.24805-1.76367 1.73437c-.19095.19768-.28125.44055-.28125.75 0 .97461 1 1 1 1 .25689 0 .52846-.12983.71875-.3125l1.28125-1.28125v3.56836s0 1 1 1 1-1 1-1v-3.56836l1.28125 1.28125c.19029.18267.4086.3125.71875.3125 0 0 1-.0254 1-1 0-.30945-.0903-.55232-.28125-.75l-1.76367-1.73437-1.24805-1.24805c-.19526-.19519-.45115-.29297-.70703-.29297z"/></g></svg>