<svg viewBox="0 0 24 24" xmlns="http://www.w3.org/2000/svg"><path d="m12 2c-5.522842 0-10 4.477158-10 10 0 5.522841 4.477158 10 10 10 5.522841 0 10-4.477159 10-10 0-5.522842-4.477159-10-10-10zm4.214844 5.734375a1.0290585 1.0290585 0 0 1 1.029297 1.0292969 1.0290585 1.0290585 0 0 1 -.339844.7617187l-6.134766 6.6132814-.009765-.001953a1 1 0 0 1 -.759766.363281 1 1 0 0 1 -.6972656-.300781l-.0117188.005859-3.2910156-3.109375.0058594-.007812a1.0327497 1.0327497 0 0 1 -.359375-.769532 1.0327497 1.0327497 0 0 1 1.0332031-1.033203 1.0327497 1.0327497 0 0 1 .7753906.351563l2.5449219 2.363281 5.523438-6 .009765.0078125a1.0290585 1.0290585 0 0 1 .681641-.2734375z" fill="#efefef"/></svg>