<svg viewBox="0 0 24 24" xmlns="http://www.w3.org/2000/svg"><g fill="#aaa8ac"><path d="m8 8c-.5165874 0-1.0180972.1810247-1.4121094.5605469a1.0001 1.0001 0 0 0 -.0136718.0136719l-.4257813.4257812h-3.1484375v6h3.1679688l.4023437.402344c.3986724.426483.9131012.597656 1.4296875.597656h1a1.0001 1.0001 0 0 0 1-1h4a1.0001 1.0001 0 0 0 1 1h1c.516585 0 1.031014-.171172 1.429688-.597656l.402343-.402344h3.167969v-6h-3.148438l-.425781-.4257812a1.0001 1.0001 0 0 0 -.013672-.0136719c-.394012-.3795258-.895523-.5605469-1.412109-.5605469h-1a1.0001 1.0001 0 0 0 -1 1h-4a1.0001 1.0001 0 0 0 -1-1z" opacity=".35"/><path d="m8 9c-.26531 0-.53058.1-.71875.28125l-2 2-.28125.28125v.875l.3007812.28125 2 2c.1694301.18125.4339288.28125.6992188.28125h1v-1c0-.26531-.1-.53057-.28125-.71875l-.28125-.28125h7.125l-.28125.28125c-.18125.18818-.28125.45344-.28125.71875v1h1c.26529 0 .529789-.1.699219-.28125l2-2c.569947-.50009.222506-.918786.01953-1.4375l-2-2c-.188169-.18125-.453439-.28125-.718749-.28125h-1v1c0 .2653.0931.529799.28125.699219l.28125.300781h-7.125l.28125-.300781c.18815-.16942.28125-.433919.28125-.699219v-1z"/><path d="m9 5v2h-4-2-2v10h2 2 4v2h1v-2h4v2h1v-2h4 2 2v-10h-2-2-4v-2h-1v2h-4v-2zm-1 3h1a1.0001 1.0001 0 0 1 1 1h4a1.0001 1.0001 0 0 1 1-1h1c.516587 0 1.018096.1810207 1.412109.5605469a1.0001 1.0001 0 0 1 .013672.0136719l.425781.4257812h3.148438v6h-3.167969l-.402343.402344c-.398674.426485-.913102.597656-1.429688.597656h-1a1.0001 1.0001 0 0 1 -1-1h-4a1.0001 1.0001 0 0 1 -1 1h-1c-.5165868 0-1.0310147-.171172-1.4296875-.597656l-.4023437-.402344h-3.1679688v-6h3.1484375l.4257813-.4257812a1.0001 1.0001 0 0 1 .0136718-.0136719c.3940126-.3795226.8955215-.5605469 1.4121094-.5605469z"/><path d="m6 3c-1.6619966 0-3 1.3380034-3 3v1h2v-.5c0-.8309984.6690016-1.5 1.5-1.5h11c.830998 0 1.5.6690016 1.5 1.5v.5h2v-1c0-1.6619966-1.338004-3-3-3zm-3 14v1c0 1.661996 1.3380034 3 3 3h12c1.661996 0 3-1.338004 3-3v-1h-2v.5c0 .830998-.669002 1.5-1.5 1.5h-11c-.8309984 0-1.5-.669002-1.5-1.5v-.5z"/></g></svg>