<svg viewBox="0 0 24 24" xmlns="http://www.w3.org/2000/svg"><g fill="#efefef"><path d="m2 14v9h2v-3h2v-2h-2v-4zm7 0c-1.1045695 0-2 .895431-2 2s.8954305 2 2 2c1.104569 0 2-.895431 2-2s-.895431-2-2-2zm5 0-6 8v1h1l6-8v-1zm6 0v4h-2v2h2v3h2v-9zm-6 5c-1.104569 0-2 .895431-2 2s.895431 2 2 2 2-.895431 2-2-.895431-2-2-2z"/><g transform="translate(0 -1)"><path d="m9 5v3h-5v1h5v3h-5v1h16v-1h-5v-3h5v-1h-5v-3h-1v3h-4v-3zm1 4h4v3h-4z"/><path d="m5 3c-1.6446984 0-3 1.3553016-3 3v7h2v-7c0-.5712994.4287006-1 1-1h14c.571299 0 1 .4287006 1 1v7h2v-7c0-1.6446984-1.355302-3-3-3z"/></g></g></svg>