<svg viewBox="0 0 24 24" xmlns="http://www.w3.org/2000/svg"><path d="m6 3c-1.6619949 0-3 1.3380051-3 3v12c0 1.661994 1.3380051 3 3 3h12c1.661994 0 3-1.338006 3-3v-12c0-1.6619949-1.338006-3-3-3zm7.972656 3.0039062c.25589.0000001.511778.0977551.707032.2929688.18802.187986.29345.4431065.292968.7089844-.000038.2651986-.105429.5195252-.292968.7070312l-4.263672 4.2871094 4.263672 4.287109c.187539.187506.29293.441833.292968.707032.000482.265876-.104948.520998-.292968.708984-.195254.195214-.451142.292969-.707032.292969-.255888 0-.511777-.09775-.707031-.292969l-4.9726562-4.994141c-.195837-.195374-.2929688-.452668-.2929688-.708984s.0971318-.51361.2929688-.708984l4.9726562-4.994141c.195254-.1952137.451143-.2929688.707031-.2929688z" fill="#efefef"/></svg>