<svg viewBox="0 0 16 16" xmlns="http://www.w3.org/2000/svg"><g fill="#efefef"><path d="m6 3v2h1v-2zm4 0v2h1v-2zm-4 2v1h-1v1h1v3h-1v1h1v1h1v-1h3v1h1v-1h1v-1h-1v-3h1v-1h-1v-1h-1v1h-3v-1zm-3 1v1h2v-1zm9 0v1h2v-1zm-5 1h3v3h-3zm-4 3v1h2v-1zm9 0v1h2v-1zm-6 2v2h1v-2zm4 0v2h1v-2z"/><path d="m4 1c-1.6619983 0-3 1.3380017-3 3v9c0 1.661998 1.3380017 3 3 3h9c1.661998 0 3-1.338002 3-3v-9c0-1.6619983-1.338002-3-3-3zm0 2h9c.553999 0 1 .4460006 1 1v9c0 .553999-.446001 1-1 1h-9c-.5539994 0-1-.446001-1-1v-9c0-.5539994.4460006-1 1-1z"/><path d="m6 5c-.5539994 0-1 .4460006-1 1v5c0 .553999.4460006 1 1 1h5c.553999 0 1-.446001 1-1v-5c0-.5539994-.446001-1-1-1zm1 2h3v3h-3z"/><path d="m7 7h3v3h-3z" opacity=".35"/></g></svg>