<svg viewBox="0 0 16 16" xmlns="http://www.w3.org/2000/svg"><g fill="#efefef"><path d="m3 0c-1.6446968 0-3 1.3553032-3 3v9c0 1.644696 1.3553032 3 3 3h9c.06326 0 .125157-.005816.1875-.009766l-1.990234-1.990234h-.197266v-.197266l-.3847656-.384765c-.2240296-.215067-.3309996-.499296-.4316406-.779297l-.0058594.037109a.98514286.98514286 0 0 1 -.1777344.419922v.904297h-3v-2h.3535156l-.2617187-.28125-1.5625.28125h.4707031v2h-2c-.5712988 0-1-.428702-1-1v-1h1.6191406a.98514286.98514286 0 0 1 -.6230468-1h-.9960938v-2h1.921875l.1191406-.2363281-.3808594-.7636719h-1.6601562v-2h1.1054688a.98514286.98514286 0 0 1 1.0429687-.5410156l1.9433594.3496094.7519531-.8085938h-.84375v-2h3v1.4296875a.98514286.98514286 0 0 1 .1777344.421875l.2890625 2.1054687.5332031.2773438v-1.234375h3v2h-1.568359a.98514286.98514286 0 0 1 .332031 1h1.236328v2h-.189453l2.179687 2.179688c.003631-.059792.009766-.119057.009766-.179688v-9c0-1.6446968-1.355304-3-3-3zm0 2h2v2h-3v-1c0-.5712988.4287012-1 1-1zm7 0h2c.571298 0 1 .4287012 1 1v1h-3zm-.1230469 7.3574219-.4101562.2128906-.0488281.3515625c.1398299-.2030765.2584417-.4274352.4589843-.5644531z"/><path d="m8.2011719 3.9863281-1.7539063 1.8867188-2.4726562-.4453125 1.1679687 2.3359375-1.1679687 2.3359371 2.4726562-.4453121 1.7539063 1.8867191.359375-2.6093754 2.2500001-1.1679687-2.2500001-1.1679688zm2.7910161 6.0058594c-.40625 0-.773438.2460935-.925782.6250005-.1523431.374998-.0625.808595.230469 1.089843l3.984375 3.984375c.25.261719.621096.367188.972656.277344.347656-.08984.625-.367188.714844-.714844.08984-.35156-.01563-.722658-.273438-.976562l-3.984374-3.984375c-.1875-.191407-.449221-.3007815-.71875-.3007815z"/></g></svg>