<svg viewBox="0 0 16 16" xmlns="http://www.w3.org/2000/svg"><g fill="#efefef"><path d="m7.9980469.49804688c-.4309192-.0013-.8139721.27346643-.9511719.68164062l-1.4492188 4.3417969-4.5917968-.0175782c-.98061808-.0054998-1.38291655 1.2557276-.58007815 1.8183594l3.62695315 2.5566406-1.5 4.2871098c-.3176594.900544.6872728 1.69064 1.4882812 1.169922l3.3769532-2.1875c-.2831453-.868223-.2593936-1.850592.0976562-2.779297.2064199-.5368668.5067878-.9733268.8027344-1.3398441a1.1926803 1.1926803 0 0 1 1.9667966.1640625l.982422 1.7402346.710938-.41211-.97461-1.724609a1.1926803 1.1926803 0 0 1 .886719-1.7695312c.236726-.030513.483678-.0501944.738281-.0527344a1.1926803 1.1926803 0 0 0 .001953 0c.257834-.00193.532477.0144863.81836.0664062.589579.1071076 1.133223.3266971 1.603515.6347656l.527344-.3730468c.121302-.0864257.211617-.1911374.279297-.3027344h.140625v-.4882812c.000226-.0169867.000627-.0338262 0-.0507813v-1.4609375h-2v.484375l-2-.0058594v-.4785156h-1.806641l-.193359-.5898438v-1.4101562h-.4609375l-.59375-1.8144531c-.1344998-.40953425-.5159066-.68633604-.9472656-.68750002zm2.0019531 2.50195312h2v-2h-2zm2 0v2h2v-2zm2 0h2v-2h-2z"/><path d="m12.640625 8.1679278c-.20041.002-.401376.017669-.597656.042969l1.171875 2.0742182c.24106.42608-.02911.915428-.541016 1.210938l-.923828.535156c-.516619.28718-1.091401.248565-1.332031-.177734l-1.1718752-2.0742191c-.2482198.3074101-.4754377.6489081-.6171876 1.0175781-.6784593 1.764708.2845725 3.469654 2.1503908 3.808594.389819.0709.80079.05441 1.193359.0039.01375-.0022.38015.665612.775391 1.390625h3.958984l-1.908203-2.955078c.24817-.30741.446121-.652785.587891-1.021484.678409-1.764659-.284623-3.4696446-2.150391-3.8085942-.19492-.0354-.395283-.048375-.595703-.046875z" stroke-width="3"/></g></svg>