<svg viewBox="0 0 16 16" xmlns="http://www.w3.org/2000/svg"><g fill="#efefef"><path d="m5.015625 1.0019531c-.255922 0-.511769.097711-.707031.2929688-.390524.390521-.390524 1.0235425 0 1.4140625l.277344.2910156h-.585938-3c-.5522847 0-1 .4477153-1 1s.4477153 1 1 1h3 .585938l-.277344.2910156c-.390524.39052-.390524 1.0235415 0 1.4140625.195262.1952576.451109.2929688.707031.2929688s.511771-.097708.707031-.2929688l1.277344-1.2910156.671875-.6738281.025391-.0234375c.193537-.188264.30273-.4467944.302734-.7167969-.000004-.2700025-.109197-.5285329-.302734-.7167969l-.025391-.0234375-.671875-.6738281-1.277344-1.2910156c-.19526-.195261-.451109-.2929688-.707031-.2929688z" opacity=".35"/><path d="m10 1c-.554 0-1 .446-1 1v4c0 .554.446 1 1 1h4c.554 0 1-.446 1-1v-4c0-.554-.446-1-1-1zm1 2h2v2h-2zm-1 6c-.554 0-1 .446-1 1v4c0 .554.446 1 1 1h4c.554 0 1-.446 1-1v-4c0-.554-.446-1-1-1zm1 2h2v2h-2z"/><path d="m1.21875 9c-.6697593 0-1.21875.5248007-1.21875 1.1875v4.8125c0 .662709.5489907 1 1.21875 1h4.5625c.669759 0 1.21875-.337301 1.21875-1v-4.8125c0-.6626993-.548991-1.1875-1.21875-1.1875zm.513672.9980469c.193286.00121.386678.079889.523437.2167971l1.060547 1.060547a.26039903.26039903 0 0 0 .367188 0l1.060547-1.060547c.27383-.2737726.773043-.2737726 1.046875 0 .273772.273831.273772.773044 0 1.046875l-1.060547 1.060547a.26039903.26039903 0 0 0 0 .367187l.847656.847656a.26039903.26039903 0 0 0 .06445.09961c.05366.03163.104389.06924.148438.113281.273772.273831.273772.773043 0 1.046875-.273389.27333-.770811.272446-1.044922 0-.04354-.04414-.0821-.09291-.113282-.146484a.26039903.26039903 0 0 0 -.103515-.06836l-.845703-.845703a.26039903.26039903 0 0 0 -.367188 0l-.845703.845703a.26039903.26039903 0 0 0 -.103515.06836c-.03119.05358-.06975.102349-.113282.146484-.274111.272446-.771533.27333-1.044922 0-.273772-.273832-.273772-.773044 0-1.046875.04405-.04404.09478-.08165.148438-.113281a.26039903.26039903 0 0 0 .107422-.142578l.804687-.804688a.26039903.26039903 0 0 0 0-.367187l-1.060547-1.060547c-.273772-.273831-.273772-.773044 0-1.046875.117411-.117576.276289-.194298.441407-.212891.02747-.00306.05442-.00408.08203-.00391z"/></g></svg>