<svg viewBox="0 0 16 16" xmlns="http://www.w3.org/2000/svg"><path d="m12.068359 1.002a1 1 0 0 0 -.259765.0156 1 1 0 0 0 -.638672.42383l-2.396484 3.55862h2.412109l1.644531-2.44141a1 1 0 0 0 -.271484-1.38867 1 1 0 0 0 -.490235-.16797zm-9.068359.99805c-1.647969 0-3 1.35203-3 3s1.352031 3 3 3h3.753906l-1.585937 2.35547-.652344.9707-.06445.0957a1 1 0 0 0 -.0059.0117c-.282435.45705-.445275.99348-.445275 1.56643 0 1.64797 1.352031 3 3 3s3-1.35203 3-3c0-1.38833-.960367-2.56552-2.248047-2.90234l1.414063-2.09766h5.833984a1 1 0 0 0 1-1 1 1 0 0 0 -1-1h-3-1.488281-2.41211-1.099609-1.173828c.11205-.31343.173828-.64968.173828-1 0-1.64797-1.352031-3-3-3zm0 1.5a1.5 1.5 0 0 1 .150391.008c.0013.00013.0026-.00013.0039 0a1.5 1.5 0 0 1 .121094.0176c.04575.008.09064.019.134765.0312.502944.13962.893588.53026 1.033203 1.0332.01225.0441.02297.089.03125.13477.0072.0399.0135.0801.01758.12109a1.5 1.5 0 0 1 0 .004 1.5 1.5 0 0 1 .007817.15014c0 .13239-.01738.25941-.04883.38086-.0012.005-.0027.009-.0039.0137-.03394.12608-.08507.24538-.148438.35547-.05146.0894-.109652.17356-.177734.25h-.01367a1.5 1.5 0 0 1 -1.107428.49997c-.135066 0-.264742-.0183-.388672-.0508-.520415-.1362-.924328-.54011-1.060547-1.06053-.032438-.12393-.050781-.2536-.050781-.38867s.01834-.26474.05078-.38867c.136219-.52042.540132-.92433 1.060547-1.06055.123931-.03244.253607-.05078.388673-.05078zm4 8a1.5 1.5 0 0 1 .150391.008c.0013.00013.0026-.00013.0039 0a1.5 1.5 0 0 1 .121094.0176c.04575.008.09064.019.134765.0312.502944.13962.893588.53026 1.033203 1.0332.01225.0441.02297.089.03125.13477.0072.0399.0135.0801.01758.12109a1.5 1.5 0 0 1 0 .004 1.5 1.5 0 0 1 .007817.15014c0 .13507-.01834.26474-.05078.38867-.136219.52042-.540132.92433-1.060547 1.06055-.123931.03244-.253607.05078-.388673.05078s-.264742-.0183-.388672-.0508c-.520415-.1362-.924328-.54011-1.060547-1.06053-.032438-.12393-.050781-.2536-.050781-.38867 0-.0192.0013-.0376.002-.0566a1 1 0 0 0 .0059-.002 1.5 1.5 0 0 1 1.28125-1.41407l.0098-.0137c.065868-.00859.132448-.01363.20105-.01363z" fill="#efefef"/></svg>