<svg viewBox="0 0 16 16" xmlns="http://www.w3.org/2000/svg"><g fill="#aaa8ac"><path d="m3.5 11a1.5 1.5 0 0 0 -1.5 1.5h1a.5.5 0 0 1 .5-.5.5.5 0 0 1 .5.5.5.5 0 0 1 -.5.5h-.5v1h.5a.5.5 0 0 1 .5.5.5.5 0 0 1 -.5.5.5.5 0 0 1 -.5-.5h-1a1.5 1.5 0 0 0 1.5 1.5 1.5 1.5 0 0 0 1.5-1.5 1.5 1.5 0 0 0 -.3847656-1 1.5 1.5 0 0 0 .3847656-1 1.5 1.5 0 0 0 -1.5-1.5zm3.5 1v2h8v-2z"/><path d="m3.5 1c-.8284271 0-1.5.6715729-1.5 1.5h1c0-.276142.2238576-.5.5-.5s.5.223858.5.5c0 .137769-.030367.2084244-.0878906.2871094l-1.9121094 2.3925781v.8203125h3v-1h-1.6015625l1.2617187-1.5957031c.1505506-.164148.3398438-.4311289.3398438-.9042969 0-.8284271-.6715729-1.5-1.5-1.5zm3.5 1v2h8v-2zm-5 5v2h13v-2z" opacity=".35"/></g></svg>