<svg viewBox="0 0 16 16" xmlns="http://www.w3.org/2000/svg"><path d="m1 1v2h2v-2zm4.5429688 0c-.3006202 0-.5429688.2423486-.5429688.5429688v.9140624c0 .3006202.2423486.5429688.5429688.5429688h8.9140622c.300622 0 .542969-.2423486.542969-.5429688v-.9140624c0-.3006202-.242347-.5429688-.542969-.5429688zm6.4570312 3c-.270003.000004-.528533.109198-.716797.3027344l-.023437.0253906-.673828.671875-1.2910161 1.2773438c-.1952584.1952594-.2929688.4511101-.2929688.7070312s.0977112.5117698.2929688.7070312c.3905198.3905231 1.0235451.3905231 1.4140621 0l.291016-.2773437v1.5859375a2 2 0 0 1 -2 2h-1.5859375l.2773437-.291016c.3905231-.390517.3905231-1.0235423 0-1.4140621-.1952614-.1952572-.4511101-.2929688-.7070312-.2929688s-.5117718.0977082-.7070312.2929688l-1.2773438 1.2910161-.671875.673828-.0253906.023437c-.1935364.188264-.3027304.446795-.3027344.716797.000004.270003.109198.528533.3027344.716797l.0253906.023437.671875.673828 1.2773438 1.291016c.1952594.195259.4511101.292969.7070312.292969s.5117698-.09771.7070312-.292969c.3905231-.390518.3905231-1.023545 0-1.414062l-.2773437-.291016h1.5859375a4 4 0 0 0 4-4v-1.5859375l.291016.2773437c.390517.3905231 1.023544.3905231 1.414062 0 .195259-.1952614.292969-.4511101.292969-.7070312s-.09771-.5117718-.292969-.7070312l-1.291016-1.2773438-.673828-.671875-.023437-.0253906c-.188264-.1935364-.446795-.3027304-.716797-.3027344zm-10.484375 1c-.2852149 0-.515625.2304101-.515625.515625v8.96875c0 .285216.2304101.515625.515625.515625h.96875c.2852149 0 .515625-.230409.515625-.515625v-8.96875c0-.2852149-.2304101-.515625-.515625-.515625z" fill="#efefef"/></svg>