<svg viewBox="0 0 16 16" xmlns="http://www.w3.org/2000/svg"><path d="m2.5 2c-.2769997 0-.5.2230003-.5.5v1c0 .2769997.2230003.5.5.5h1c.2769997 0 .5-.2230003.5-.5v-1c0-.2769997-.2230003-.5-.5-.5zm4 0c-.2769997 0-.5.2230003-.5.5v1c0 .2769997.2230003.5.5.5h8c.277 0 .5-.2230003.5-.5v-1c0-.2769997-.223-.5-.5-.5zm-4 5c-.2769997 0-.5.2230003-.5.5v1c0 .2769997.2230003.5.5.5h1c.2769997 0 .5-.2230003.5-.5v-1c0-.2769997-.2230003-.5-.5-.5zm4 0c-.2769997 0-.5.2230003-.5.5v1c0 .2769997.2230003.5.5.5h8c.277 0 .5-.2230003.5-.5v-1c0-.2769997-.223-.5-.5-.5zm-4 5c-.2769997 0-.5.223-.5.5v1c0 .277.2230003.5.5.5h1c.2769997 0 .5-.223.5-.5v-1c0-.277-.2230003-.5-.5-.5zm4 0c-.2769997 0-.5.223-.5.5v1c0 .277.2230003.5.5.5h8c.277 0 .5-.223.5-.5v-1c0-.277-.223-.5-.5-.5z" fill="#efefef"/></svg>