<svg viewBox="0 0 16 16" xmlns="http://www.w3.org/2000/svg"><g fill="#efefef"><path d="m4 0c-1.6446968 0-3 1.3553032-3 3v9c0 1.644696 1.3553032 3 3 3h8.197266l-2.197266-2.197266v.197266h-3v-1.304688l-.9082031-.976562-1.5625.28125h1.4707031v2h-2c-.5712988 0-1-.428702-1-1v-1h.6191406a.98514286.98514286 0 0 1 -.6191406-1.0136719v-1.9863281h.921875l.1191406-.2363281-.3808594-.7636719h-.6601562v-1.4589844a.98514286.98514286 0 0 1 0-.0820312v-.4589844h.1054688a.98514286.98514286 0 0 1 1.0429687-.5410156l1.9433594.3496094.9082031-.9765626v-1.8320312h3v2h-.8027344l.1386719 1h.6640625v1.234375l1 .5175781v-1.7519531h3v2h-2.568359a.98514286.98514286 0 0 1 .333984 1h2.234375v2h-1.189453l1 1h.189453v.189453l1.818359 1.818359c.114706-.316263.181641-.6542.181641-1.007812v-9c0-1.6446968-1.355304-3-3-3zm0 2h2v2h-3v-1c0-.5712988.4287012-1 1-1zm7 0h2c.571298 0 1 .4287012 1 1v1h-3zm0 6.7753906-.755859.3925782c.233992-.0994397.485104-.1601563.748047-.1601563.002621 0 .005192-.0000101.007812 0z"/><path d="m4 2c-.5712982 0-1 .4287018-1 1v1h3v-2zm3 0v1.8320312l.4804688-.515625a.98514286.98514286 0 0 1 1.0175781-.2695312.98514286.98514286 0 0 1 .6796875.8046875l.0195312.1484375h.8027344v-2zm4 0v2h3v-1c0-.5712982-.428703-1-1-1z" opacity=".35"/><path d="m8.2011719 3.9863281-1.7539063 1.8867188-2.4726562-.4453125 1.1679687 2.3359375-1.1679687 2.3359371 2.4726562-.4453121 1.7539063 1.8867191.359375-2.6093754 2.2500001-1.1679687-2.2500001-1.1679688zm2.7910161 6.0058594c-.40625 0-.773438.2460935-.925782.6250005-.1523431.374998-.0625.808595.230469 1.089843l3.984375 3.984375c.25.261719.621096.367188.972656.277344.347656-.08984.625-.367188.714844-.714844.08984-.35156-.01563-.722658-.273438-.976562l-3.984374-3.984375c-.1875-.191407-.449221-.3007815-.71875-.3007815z"/></g></svg>