<svg viewBox="0 0 16 16" xmlns="http://www.w3.org/2000/svg"><g fill="#efefef"><path d="m4 0c-1.6446968 0-3 1.3553032-3 3v9c0 1.293246.8403235 2.403135 1.9980469 2.820312v-1.361328c.0000623-.311375.0573866-.616033.1601562-.904296-.1002422-.156582-.1582031-.346245-.1582031-.554688v-1h1.3398438l1-1h-2.3398438v-2h3v1.3398438l1-1v-.3398438h.3398438l1-1h-1.3398438v-2h3v.3398438l1.339844-1.3398438h-.339844v-2h2c.571298 0 1 .4287012 1 1v.0292969c.785882.1079775 1.475859.4877516 2 1.0332031v-1.0625c0-1.6446968-1.355304-3-3-3zm0 2h2v2h-3v-1c0-.5712988.4287012-1 1-1zm3 0h3v2h-3zm-4 3h3v2h-3zm13 3.6601562-2.339844 2.3398438h.339844v1c0 .571298-.428702 1-1 1h-1.339844l-1.9999998 2h3.3398438c1.644696 0 3-1.355304 3-3z"/><path d="m4 2c-.5712982 0-1 .4287018-1 1v1h3v-2zm3 0v2h3v-2zm4 0v2h.339844l.070312-.0703125c.607054-.6070665 1.387574-.9221106 2.128906-.9316406h.001954c.095171-.001312.200352.0021889.316406.0136719.0014.0001414.002506-.0001444.003906 0 .046614.004425.092699.0112615.138672.0175781v-.0292969c0-.5712982-.428703-1-1-1z" opacity=".35"/><path d="m13.551786 3.99988c-.49097.006-.9906.19654-1.4326.63855l-7.6228997 7.62291c-.31768.31764-.4962.74845-.49629 1.19769v2.54097h2.54097c.44924-.00008.88005-.1786 1.1977-.49629l7.6229097-7.6229c1.51544-1.51544.07-3.71839-1.5997-3.87266-.0695-.007-.13995-.009-.21008-.008zm-1.50539 3.05545.89828.89827-.44831.44996-5.0819297 5.08194-.44997.44831-.89828-.89827.44831-.44997 5.0819397-5.08193z" stroke-width=".999998"/></g></svg>