<svg viewBox="0 0 16 16" xmlns="http://www.w3.org/2000/svg"><g fill="#efefef"><path d="m2 0v3c0 1.6446952 1.3553038 3 3 3h6c1.644695 0 3-1.3553048 3-3v-3h-2v3c0 .5712982-.428706 1-1 1h-6c-.5712952 0-1-.4287018-1-1v-3zm-1 7v2h3v-2zm4 0v2h3v-2zm4 0v1h3v-1zm4 0v1h3v-1zm-8 3c-1.6446962 0-3 1.355306-3 3v3h2v-3c0-.571297.4287048-1 1-1h3v-2z"/><path d="m10.21875 9c-.6697593 0-1.21875.5248007-1.21875 1.1875v4.8125c0 .662709.5489907 1 1.21875 1h4.5625c.669759 0 1.21875-.337301 1.21875-1v-4.8125c0-.6626993-.548991-1.1875-1.21875-1.1875zm.513672.9980469c.193286.00121.386678.079889.523437.2167971l1.060547 1.060547a.26039903.26039903 0 0 0 .367188 0l1.060547-1.060547c.27383-.2737726.773043-.2737726 1.046875 0 .273772.273831.273772.773044 0 1.046875l-1.060547 1.060547a.26039903.26039903 0 0 0 0 .367187l.847656.847656a.26039903.26039903 0 0 0 .06445.09961c.05366.03163.104389.06924.148438.113281.273772.273831.273772.773043 0 1.046875-.273389.27333-.770811.272446-1.044922 0-.04354-.04414-.0821-.09291-.113282-.146484a.26039903.26039903 0 0 0 -.103515-.06836l-.845703-.845703a.26039903.26039903 0 0 0 -.367188 0l-.845703.845703a.26039903.26039903 0 0 0 -.103515.06836c-.03119.05358-.06975.102349-.113282.146484-.274111.272446-.771533.27333-1.044922 0-.273772-.273832-.273772-.773044 0-1.046875.04405-.04404.09478-.08165.148438-.113281a.26039903.26039903 0 0 0 .107422-.142578l.804687-.804688a.26039903.26039903 0 0 0 0-.367187l-1.060547-1.060547c-.273772-.273831-.273772-.773044 0-1.046875.117411-.117576.276289-.194298.441407-.212891.02747-.00306.05442-.00408.08203-.00391z"/></g></svg>