<svg viewBox="0 0 16 16" xmlns="http://www.w3.org/2000/svg"><g fill="#efefef"><path d="m5 0c-1.6446994 0-3 1.3553016-3 3v9c0 .877437.3884141 1.669849.9980469 2.220703v-.761719c.000143-.714108.2840543-1.401305.7890625-1.90625l.2128906-.21289v-8.339844c0-.5712994.4287036-1 1-1h4v1.5c0 .9468979.4490866 1.4438592 1.345703 1.4941406l1.064453-1.0644531c.454795-.4548042 1.006308-.7458671 1.566406-.8671875l-2.769531-2.76953125a1.0001 1.0001 0 0 0 -.707031-.29296875zm9 10.660156-4.3398438 4.339844h1.3398438c1.644699 0 3-1.355302 3-3z"/><path d="m13.551786 3.99988c-.49097.006-.9906.19654-1.4326.63855l-7.6228997 7.62291c-.31768.31764-.4962.74845-.49629 1.19769v2.54097h2.54097c.44924-.00008.88005-.1786 1.1977-.49629l7.6229097-7.6229c1.51544-1.51544.07-3.71839-1.5997-3.87266-.0695-.007-.13995-.009-.21008-.008zm-1.50539 3.05545.89828.89827-.44831.44996-5.0819297 5.08194-.44997.44831-.89828-.89827.44831-.44997 5.0819397-5.08193z" stroke-width=".999998"/></g></svg>