<svg viewBox="0 0 16 16" xmlns="http://www.w3.org/2000/svg"><g fill="#efefef"><path d="m1 1v5h5v-4h1.5v-1h-1.5zm9 0v3h-1v1h1v.3398438l1.410156-1.4101563c.182601-.182605.38164-.3354505.589844-.4648437v-.4648438h1v.0585938c.179812-.0374246.360826-.0582556.539062-.0605469h.001954c.095171-.001312.200352.0021889.316406.0136719.0014.0001414.002506-.0001444.003906 0 .406669.0386043.78907.1525114 1.138672.3222656v-2.3339844zm-1 3v-1h-2v1 2h1v-2zm-1 2v1h-2v1h1.3398438l2-2zm-5-3h1v1h-1zm-2 4v1h2v-1zm2 1v1h1 1v-2h-1v1zm-2 2v5h1.9980469v-1.541016c.0000311-.155233.0167628-.307889.0429687-.458984h-.0410156v-1h.4296875c.1029662-.160071.2209024-.310763.3574219-.447266l1.5527344-1.552734zm13 .660156-1 1v.339844h1zm-1 1.339844h-.339844l-.660156.660156v1.339844h1zm-2.339844 2-.660156.660156v.339844h1v-1z"/><path d="m13.551786 3.99988c-.49097.006-.9906.19654-1.4326.63855l-7.6228997 7.62291c-.31768.31764-.4962.74845-.49629 1.19769v2.54097h2.54097c.44924-.00008.88005-.1786 1.1977-.49629l7.6229097-7.6229c1.51544-1.51544.07-3.71839-1.5997-3.87266-.0695-.007-.13995-.009-.21008-.008zm-1.50539 3.05545.89828.89827-.44831.44996-5.0819297 5.08194-.44997.44831-.89828-.89827.44831-.44997 5.0819397-5.08193z" stroke-width=".999998"/></g></svg>