<svg viewBox="0 0 16 16" xmlns="http://www.w3.org/2000/svg"><path d="m1 1c-.554 0-1 .446-1 1v12c0 .554.446 1 1 1h3v-1a1.0001 1.0001 0 0 1 .2929688-.707031l.2929687-.292969h-2.5859375v-10h12v1a1.0001 1.0001 0 0 1 .03125 0 1.0001 1.0001 0 0 1 .099609.0078125c.648176.085968 1.319692.2939515 1.869141.7753906v-2.7832031c0-.554-.446-1-1-1zm2 3v8h2.5859375l2-2h-2.5859375v-4h6v.5859375l.292969-.2929687a1.0001 1.0001 0 0 1 .707031-.2929688 1.0001 1.0001 0 0 1 .292969-.7070312l.707031-.7070313v-.5859375zm11 1-1 1 2 2 1-1c-.129005-1.3579461-.925643-1.8575071-2-2zm-2 2-7 7v2h2l7-7zm4 1.4140625-.292969.2929687a1.0001 1.0001 0 0 1 -.707031.2929688 1.0001 1.0001 0 0 1 -.292969.7070312l-.707031.7070308v2.585938h-2.585938l-1.9999995 2h5.5859375c.554 0 1-.446 1-1zm-3 2.9999995-.585938.585938h.585938z" fill="#aaa8ac"/></svg>