<svg viewBox="0 0 16 16" xmlns="http://www.w3.org/2000/svg"><g fill="#efefef"><path d="m7.9921875 0c-1.1079978 0-2 .89200222-2 2v3.0039062c0 .6344988-.480251.9960938-1 .9960938h-1c-1.1079978 0-2.0028845.892006-2 2l.0078125 3h2 8 2l-.007812-3c-.0029-1.1079941-.892004-2-2-2h-.97461c-.531379 0-1.0253915-.3588012-1.0253905-1v-3c0-1.10799778-.8920026-2-2-2zm-.015625 1.984375c.0029421-.0029421.0075941-.0001368.0097656.0097656.0023406.0005133.002331.0019532.0058594.0019532.0035283-.0000001.0035188-.0014399.0058594-.0019532.0043429-.0198046.0198044-.004343 0 0-.0005133.0023406-.0019531.0023311-.0019531.0058594v3c-.0000013.8331214.3837125 1.6965835.9785156 2.2285156.594803.5319322 1.3281036.7675781 2.0429686.7675782h.97461c.003527-.0000001.00352-.0014383.005859-.0019532.005663-.017225.018479-.0040689 0 0-.001118.0033986-.00197.0052799-.001953.0117188l.001953.9980468h-7.998047-.0097656l-.0019532-1.0078124c.0017087.0002062.0017353 0 .0039063 0h1c1.445354 0 2.9960937-1.3506767 2.9960937-2.9921876v-3.0039062c.0000001-.0035284-.0014398-.0035188-.0019531-.0058594-.0099024-.0021715-.0127077-.0068235-.0097656-.0097656zm-3.9921875 5.9980469c.0025209.0012542.0038863.0040528.0039062.0117187-.0192258-.0026648-.0108017-.0151495-.0039062-.0117187z"/><path d="m2 10-.00781 3c-.00521 1.999993-.9686155 3-1.9843755 3h10.9999965c.92202 0 2.979106-1.000007 2.98438-3.01562l.007809-2.98438zm2.6875045 1h.3125l-.00781 3zm2 0h.3125l-.00781 2zm2 0h.3125l-.00781 2zm1.9999995 0h.3125l-.0078 1z"/></g></svg>