<svg viewBox="0 0 16 16" xmlns="http://www.w3.org/2000/svg"><g fill="#efefef"><path d="m3 1c-1.6619915 0-3 1.3380085-3 3v6c0 1.661991 1.3380094 3 3 3h3.8398438c-.04474-.090622-.0883595-.181963-.1289063-.275391-.0553868-.12762-.1075069-.258282-.1542969-.390625a1.0001 1.0001 0 0 1 -.0507812-.298828 1.0001 1.0001 0 0 1 0-.070312 1.0001 1.0001 0 0 1 .0507812-.298828c.02353-.066554.0486218-.131996.0742188-.197266.00257-.00653.0052225-.013031.0078125-.019531.02265-.057191.0461135-.113752.0703125-.169922.0288079-.066512.0587688-.132136.0898437-.197266.0131016-.027702.0274694-.054653.0410157-.082031h-3.3398438c-.8309954 0-1.5-.669004-1.5-1.5v-5c0-.830996.669004-1.5 1.5-1.5h8c.830995 0 1.5.669004 1.5 1.5v3.7285156c.758005.2375278 1.434472.6503568 2 1.1914063v-5.4199219c0-1.6619906-1.338009-3-3-3z"/><path d="m4 4c-.5539988 0-1 .4460012-1 1s.4460012 1 1 1h7c.553998 0 1-.4460012 1-1s-.446002-1-1-1zm-1 3v3h4v-.4609375l-.2675781-.265625a1.0001 1.0001 0 0 1 -.0019531-1.4179687l.2695312-.2695313v-.5859375zm6.4160156 0 1.1054684 1.0976562c.315058-.0622189.640522-.0968935.976563-.0976562a1.0001 1.0001 0 0 0 .001953 0c.169064.0000284.336063.0093079.5.0253906v-1.0253906z" opacity=".35"/><path d="m8.5000016 7.5000709-1.0625 1.0625 7.5429694 7.4804691 1.0625-1.0625-1.427735-1.416016c.375647-.441096.676669-.967819.884766-1.5625v-.002c-.640149-1.789606-2.099346-2.9996808-4-3.0000001-.455679.00103-.8855.071027-1.285156.2011719zm3.0292974 2.5000001c1.104565 0 2 .895435 2 2 0 .150392-.01732.296686-.04883.4375l-2.40625-2.384766c.146415-.03423.298138-.05273.45508-.05273zm-3.5625005 1.017578c-.1852122.301761-.3423631.630467-.4667969.982422.6344183 1.79442 2.0967357 2.995676 4.0000004 3 .155456-.000383.307713-.0096.457031-.02539l-1.101562-1.091798c-.55739-.199356-.9992472-.638136-1.2031256-1.193359z"/></g></svg>