<svg viewBox="0 0 16 16" xmlns="http://www.w3.org/2000/svg"><g fill="#aaa8ac"><path d="m0 0v2 7h2 7v-2-7h-2zm10 1v2h4v8l-2-1-2 1-1.25-1h-1.25l1.7714844 1.416016-2.7714844 1.583984h-4.5v-2l1-1h-1-2v5h16v-14zm-8 1h5v5h-5zm9 2c-.365911 0-.70494.1057639-1 .2773438v1.7226562a1 1 0 0 1 1-1 1 1 0 0 1 1 1 1 1 0 0 1 -1 1 1 1 0 0 1 -1-1v1.7226562c.29506.1715799.634089.2773438 1 .2773438 1.104569 0 2-.8954305 2-2s-.895431-2-2-2zm1 7 2 1v1h-6l2-1z"/><path d="m11 4c-.365911 0-.70494.1057639-1 .2773438v3.4453124c.29506.1715799.634089.2773438 1 .2773438 1.104569 0 2-.8954305 2-2s-.895431-2-2-2zm-9 6-2 5h16l-2-4-2-1-2 1-1.25-1z" fill="#aaa8ac" opacity=".35"/></g></svg>