<svg viewBox="0 0 16 16" xmlns="http://www.w3.org/2000/svg"><g fill="#efefef"><path d="m6 3.4296875-.074219.0703125-.240234.2265625c-.06096.057643-.129026.1063083-.201172.1464844-.00079.0004396-.0012.00152-.002.00195a1.0001 1.0001 0 0 1 -.0019 0c-.06799.037467-.140088.067106-.214844.087891a1.0001 1.0001 0 0 1 -.03125.00781c-.076258.0185466-.154687.029175-.234381.0293021h-1c-.07969-.0001271-.158124-.010756-.234375-.029297a1.0001 1.0001 0 0 1 -.03125-.00781c-.07476-.020787-.146858-.050426-.214844-.087893-.000499-.0002751-.0015.0002759-.002 0a1.0001 1.0001 0 0 1 -.0019-.00195c-.07215-.040179-.14022-.088845-.201178-.1464875l-.240234-.2265625h-.074219v10.5h3z" opacity=".35"/><path d="m11 3v3h3v1h-3v3h3v1h-3v3h-1v-3h-3v3h-1v-10.5703125l.4550781-.4296875h.5449219v3h3v-3zm-1 4h-3v3h3z"/><path d="m7 0h-5v.75c.00002.19898.0621.3979325.1875.5390625l1.8125 1.7109375h1l1.8125-1.7109375c.12547-.14113.001199-.46919947.1875-.5390625z"/><path d="m2 0v.75c.00002.19898.0621.3979325.1875.5390625l1.8125 1.7109375h1l1.8125-1.7109375c.1254-.14113.18748-.3400825.1875-.5390625v-.75z"/><path d="m13 1c1.644698 0 3 1.3553016 3 3v9c0 1.644698-1.355302 3-3 3h-9c-1.644698 0-3-1.355302-3-3v-9c0-.6952135.244624-1.3363627.648438-1.8476562l1.46289 1.3828124c-.069242.1378497-.111328.2937147-.111328.4648438v9c0 .571299.428701 1 1 1h9c.571299 0 1-.428701 1-1v-9c0-.5712994-.428701-1-1-1h-6.5449219l1.0429688-.984375a1.0001 1.0001 0 0 0 .0625-.0625c.2603525-.2930108.3820765-.6243216.421875-.953125z"/></g></svg>