<svg viewBox="0 0 16 16" xmlns="http://www.w3.org/2000/svg"><g fill="#efefef"><path d="m5 0c-1.6446962 0-3 1.3553048-3 3v4a1 1 0 0 0 1 1 1 1 0 0 0 1-1v-4c0-.5712982.4287048-1 1-1h4v1h3.914062l-2.707031-2.70703125a1.0001 1.0001 0 0 0 -.707031-.29296875zm8 11a1 1 0 0 0 -1 1c0 .571297-.428706 1-1 1h-1v2h1c1.644695 0 3-1.355306 3-3a1 1 0 0 0 -1-1z"/><path d="m9 4v1h-1v1h1v2h-1v1h1v1h1v-1h2v1h1v-1h1v-1h-1v-2h1v-1h-1v-1h-1v1h-2v-1zm1 2h2v2h-2zm-7 3v1h-1v1h1v2h-1v1h1v1h1v-1h2v1h1v-1h1v-1h-1v-2h1v-1h-1v-1h-1v1h-2v-1zm1 2h2v2h-2z"/><circle cx="10" cy="14" r="1"/></g></svg>