<svg viewBox="0 0 16 16" xmlns="http://www.w3.org/2000/svg"><g fill="#efefef"><path d="m3 5v2h1v-2zm0 3v2h1v-2zm0 3v2h3v-1c-.8735785 0-1.6110385-.416752-1.8847656-1z" opacity=".35"/><path d="m4 3c-1.6619915 0-3 1.3380085-3 3v7.5c0 .830995.8920055 1.5 2 1.5h3c1.1079945 0 2-.669005 2-1.5v-1.5h-2v1h-3v-2h1.1152344c-.0734516-.156508-.1152344-.324189-.1152344-.5v-.5h-1v-2h1v-1h-1v-2h1zm7 6v1.5c0 .72712-.682699 1.329337-1.5957031 1.46875 1.4684301-.197172 2.5957031-1.444628 2.5957031-2.96875zm-1.5957031 2.96875c-.0524536.008009-.1062698.014647-.1601563.019531.0540248-.004337.1069941-.012393.1601563-.019531z"/><path d="m7 0c-1.6619932 0-3 1.3380068-3 3v7.5c0 .830996.8920044 1.5 2 1.5h3c1.107996 0 2-.669004 2-1.5v-1.5h1c1.661992 0 3-1.338008 3-3v-3c0-1.6619932-1.338008-3-3-3zm-1 2h3v2h-3zm4 0h3v5h-3v-2h3v-1h-3zm-4 3h3v2h-3zm0 3h3v2h-3z"/></g></svg>