<svg viewBox="0 0 16 16" xmlns="http://www.w3.org/2000/svg"><g fill="#efefef"><path d="m7 2v4h-4v8h6v-4h4v-8z" opacity=".35"/><path d="m4 4c-1.6619966 0-3 1.3380034-3 3v6c0 1.661996 1.3380034 3 3 3h4c1.6619963 0 3-1.338004 3-3v-3h-2v2.5c0 .830998-.6690018 1.5-1.5 1.5h-3c-.8309984 0-1.5-.669002-1.5-1.5v-5c0-.8309984.6690016-1.5 1.5-1.5h2.5v-2z"/><path d="m8 0c-1.6619966 0-3 1.3380034-3 3v3h2v-2.5c0-.8309984.6690016-1.5 1.5-1.5h3c.830998 0 1.5.6690016 1.5 1.5v5c0 .8309982-.669002 1.5-1.5 1.5h-2.5v2h3c1.661996 0 3-1.338004 3-3v-6c0-1.6619966-1.338004-3-3-3z"/></g></svg>