<svg viewBox="0 0 16 16" xmlns="http://www.w3.org/2000/svg"><g fill="#efefef"><path d="m3 0a3 3 0 0 0 -3 3v9c0 1.644694 1.3553038 3 3 3h6c1.644695 0 3-1.355306 3-3v-1.337891l-1.552734 1.550782c-.227785.227812-.4939293.408563-.7812504.541015-.1744232.152732-.4040166.246094-.6660156.246094h-.3828125c-.0255383.000735-.0505533.003902-.0761719.003906h-2.5410156a1.0036629 1.0036629 0 0 1 -.0253906-.003906h-2.9746094c-.5712952 0-1-.428703-1-1v-9a1 1 0 0 1 1-1 1 1 0 0 1 1 1c0 1.6446948 1.3553038 3 3 3h.3398438l1.9980468-2h-2.3378906c-.5712952 0-1-.4287022-1-1a3 3 0 0 0 -.171875-1h5.509766l.070312-.0703125c.608457-.6084689 1.389681-.9221407 2.128906-.93164062h.001953c.095494-.00131936.200404.00200042.31836.01367192.736411.0691268 1.39359.3904797 1.917969.8496093a3 3 0 0 0 -2.775391-1.8613281h-9.5c-.0490007 0-.0959395.00846329-.140625.02148438a3 3 0 0 0 -.359375-.02148438z"/><path d="m15.291824 2.7827521c-.409802-.4260496-.956264-.7203674-1.530223-.7733978-.0695-.007-.139793-.00929-.209922-.00829-.49097.006-.991549.1960439-1.433549.6380534l-5.6223271 5.6223312c-.3176792.3176393-.4957136.7481466-.4958036 1.1973862l.0000007 2.5411649 2.5411643.000001c.4492399-.00008.8797367-.178115 1.1973857-.495804l3.676403-3.6764033.269308.269308.585573.5855728-.34941.3494102c-.324425.3244251-.324425.8467215 0 1.1711453.324426.324427.84672.324425 1.171145 0l.934983-.9349827c.04055-.040553.07592-.085247.106343-.1312013.01521-.022984.02876-.045009.04143-.069053.126728-.240459.126728-.5301779 0-.770636-.01267-.024042-.0276-.047448-.04281-.070434-.0152-.022981-.0306-.045946-.04834-.067673-.01774-.021729-.03635-.041875-.05662-.062148l-.030386-.030384-1.140762-1.1407619-.269308-.269308.774779-.7747791c.994506-.9945065.713295-2.2857491-.06905-3.0991169zm-1.037182.9626047c.224518.224515.333611.5638745.103581.7941142l-.94327.9460315-.900457-.9004567.946032-.9432694c.230239-.2300311.569597-.1209347.794114.1035804zm-2.911291 2.0108346.900456.9004567-2.829808 2.8298082-.4502278.4474662-.8976942-.8976947.4474661-.4502282z"/></g></svg>