<svg viewBox="0 0 16 16" xmlns="http://www.w3.org/2000/svg"><path d="m2.8085938 3.0097656c-1.5075876.0948296-2.70399859 1.2912406-2.79882817 2.7988282v3.3828124c.09884225 1.5713798 1.39307697 2.8085938 2.99023437 2.8085938h10c1.622961 0 2.933312-1.277213 2.994141-2.8847656v-3.2304688c-.0584-1.543329-1.269759-2.7785735-2.802735-2.875zm-.2226563 1.9902344c.1399349-.0094801.2853068.0280796.4140625.125l2.4980469 1.875c.3338988.2498128.3338988.7501859 0 1l-2.4980469 1.8730469c-.4120182.3101451-1.0009056.0157048-1-.5v-3.7480469c-.0006226-.3545478.2780808-.6041439.5859375-.625zm6 0c.1399349-.0094801.2853068.0280796.4140625.125l2.498047 1.875c.3339.2498128.3339.7501859 0 1l-2.498047 1.8730469c-.4120182.3101451-1.0009056.0157048-1-.5v-3.7480469c-.0006226-.3545478.2780808-.6041439.5859375-.625zm3.9140625 0h1c.277 0 .5.2230006.5.5v4c0 .2769994-.223.5-.5.5h-1c-.277 0-.5-.2230006-.5-.5v-4c0-.2769994.223-.5.5-.5z" fill="#efefef"/></svg>