<svg viewBox="0 0 16 16" xmlns="http://www.w3.org/2000/svg"><g fill="#efefef"><path d="m7.5 10h7c.277 0 .5.223.5.5v1c0 .277-.223.5-.5.5h-7c-.277 0-.5-.223-.5-.5v-1c0-.277.223-.5.5-.5zm-5-1s0 1-1 1l-.002 1h1.00195l.00005 3h1.5l-.00005-5z"/><path d="m3.5 1c-.8284271 0-1.5.6715729-1.5 1.5h1c0-.276142.2238576-.5.5-.5s.5.223858.5.5c0 .137769-.030367.2084244-.0878906.2871094l-1.9121094 2.3925781v.8203125h3v-1h-1.6015625l1.2617187-1.5957031c.1505506-.164148.3398438-.4311289.3398438-.9042969 0-.8284271-.6715729-1.5-1.5-1.5z" opacity=".35"/><path d="m7.5 2.00586c-.277 0-.5.223-.5.5v.98828c0 .277.223.5.5.5h7c.277 0 .5-.223.5-.5v-.98828c0-.277-.223-.5-.5-.5z" opacity=".35"/></g></svg>