<svg viewBox="0 0 16 16" xmlns="http://www.w3.org/2000/svg"><g fill="#efefef"><path d="m8 11v1h4v-1z"/><path d="m7 8c-1.1079989 0-2 .8920011-2 2v3c0 1.107999.8920011 2 2 2h6c1.107999 0 2-.892001 2-2v-3c0-1.1079989-.892001-2-2-2zm1 2h4c.553999 0 1 .446001 1 1v1c0 .553999-.446001 1-1 1h-4c-.5539994 0-1-.446001-1-1v-1c0-.553999.4460006-1 1-1z"/><path d="m4 1c-1.6619949 0-3 1.3380051-3 3v5.5c0 1.661994 1.3380051 3 3 3v-2.5859375c-.5832117-.2053142-1-.7589031-1-1.4140625v-4c0-.8309976.6690024-1.5 1.5-1.5h7c.830997 0 1.5.6690024 1.5 1.5v1.5a1 1 0 0 0 1 1 1 1 0 0 0 1-1v-2c0-1.6619949-1.338006-3-3-3z"/></g></svg>