<svg viewBox="0 0 16 16" xmlns="http://www.w3.org/2000/svg"><g fill="#efefef"><path d="m6 0c-1.6446946 0-3 1.3553064-3 3v12h1c.999994 0 1.2678078-.222845 1.5-.5l2.5-3.125v-2.375c-.499999 0-1.000001.000001-1.5.5l-1.5 2.5v-9c0-.5712976.4287054-1 1-1h4c.571294 0 1 .4287024 1 1v2a1 1 0 0 0 1 1 1 1 0 0 0 1-1v-2c0-1.6446936-1.355307-3-3-3z"/><path d="m12 7c-1.65685 0-3 1.3431492-3 3v1c-.5539988 0-1 .446002-1 1v4h8v-4c0-.553998-.446002-1-1-1v-1c0-1.6568508-1.34315-3-3-3zm0 2c.552283 0 1 .4477165 1 1v1h-2v-1c0-.5522835.447717-1 1-1zm-2 4h4v1h-4z"/></g></svg>