<svg viewBox="0 0 16 16" xmlns="http://www.w3.org/2000/svg"><g fill="#efefef"><path d="m4 0c-1.6619932 0-3 1.3380068-3 3v9c0 1.661992 1.3380068 3 3 3h4.015625a5 5 0 0 1 -.9023438-2h-2.6132812c-.8309968 0-1.5-.669004-1.5-1.5v-8c0-.8309968.6690032-1.5 1.5-1.5h7c.830996 0 1.5.6690032 1.5 1.5v3.6015625a5 5 0 0 1 2 .9003906v-5.0019531c0-1.6619932-1.338008-3-3-3zm.25 3c-.1384995 0-.25.1115007-.25.25v.5c0 .1384993.1115005.25.25.25h.5c.1384995 0 .25-.1115007.25-.25v-.5c0-.1384993-.1115005-.25-.25-.25zm1.75 0v1h4v-1zm5.25 0c-.1385 0-.25.1115007-.25.25v.5c0 .1384993.1115.25.25.25h.5c.1385 0 .25-.1115007.25-.25v-.5c0-.1384993-.1115-.25-.25-.25zm-7 2c-.1384995 0-.25.1115007-.25.25v.5c0 .1384993.1115005.25.25.25h.5c.1384995 0 .25-.1115007.25-.25v-.5c0-.1384993-.1115005-.25-.25-.25zm1.75 0v1h4v-1zm5.25 0c-.1385 0-.25.1115007-.25.25v.5c0 .1384993.1115.25.25.25h.5c.1385 0 .25-.1115007.25-.25v-.5c0-.1384993-.1115-.25-.25-.25zm-7 2c-.1384995 0-.25.1115004-.25.25v.5c0 .1384996.1115005.25.25.25h.5c.1384995 0 .25-.1115004.25-.25v-.5c0-.1384996-.1115005-.25-.25-.25zm1.75 0v1h3 .0214844a5 5 0 0 1 .9785156-.5761719v-.4238281zm5.25 0c-.081965 0-.151728.0409748-.197266.1015625a5 5 0 0 1 .763672-.0878906c-.021591-.0060428-.042834-.0136719-.066406-.0136719zm-7 2c-.1384995 0-.25.1115007-.25.25v.5c0 .1384993.1115005.25.25.25h.5c.1384995 0 .25-.1115007.25-.25v-.5c0-.1384993-.1115005-.25-.25-.25zm1.75 0v1h1.4238281a5 5 0 0 1 .5761719-.9785156v-.0214844zm-1.75 2c-.1384995 0-.25.1115-.25.25v.5c0 .1385.1115005.25.25.25h.5c.1384995 0 .25-.1115.25-.25v-.5c0-.1385-.1115005-.25-.25-.25zm1.75 0v1h1a5 5 0 0 1 .1132812-1z"/><path d="m12 8a1.0001 1.0001 0 0 0 -.943359.6679688l-.621094 1.7675782-1.7675782.621094a1.0001 1.0001 0 0 0 0 1.886718l1.7675782.621094.621094 1.767578a1.0001 1.0001 0 0 0 1.886718 0l.621094-1.767578 1.767578-.621094a1.0001 1.0001 0 0 0 0-1.886718l-1.767578-.621094-.621094-1.7675782a1.0001 1.0001 0 0 0 -.943359-.6679688zm0 3a1 1 0 0 1 1 1 1 1 0 0 1 -1 1 1 1 0 0 1 -1-1 1 1 0 0 1 1-1z"/><path d="m9.8320313 8.8789062a1.0001 1.0001 0 0 0 -.6601561.2929687 1.0001 1.0001 0 0 0 -.195313 1.1386721l.042967.0918 1.0234371-.359375.359375-1.0234378-.0918-.042967a1.0001 1.0001 0 0 0 -.47851-.097661zm4.2207037.00195a1.0001 1.0001 0 0 0 -.363282.095703l-.0918.042964.359375 1.0234378 1.023437.359375.04296-.0918a1.0001 1.0001 0 0 0 -.970695-1.4296819zm-5.0332038 4.7167969-.042967.0918a1.0001 1.0001 0 0 0 1.3339844 1.333984l.0918-.04297-.359375-1.023437zm5.9609378 0-1.023438.359375-.359375 1.023437.0918.04296a1.0001 1.0001 0 0 0 1.333984-1.333984z" opacity=".35"/></g></svg>