<svg viewBox="0 0 16 16" xmlns="http://www.w3.org/2000/svg"><g fill="#aaa8ac"><path d="m1 0v16h14v-16zm2 2h10v8.5l-2-1-1.5 1.5-3.5-4.5-3 3zm7 1c-1.1045695 0-2 .8954305-2 2s.8954305 2 2 2c1.104569 0 2-.8954305 2-2s-.895431-2-2-2zm0 1c.552285 0 1 .4477153 1 1s-.447715 1-1 1-1-.4477153-1-1 .447715-1 1-1zm-4 3.5 2.7714844 3.916016-2.2714844 2.583984h-3.5v-3.5zm5 3 2 1v2.5h-5.5l2-2z"/><path d="m1 16h14l-2-5.5-2-1-1.5 1.5-3.5-4.5-3 3zm9-13c-1.1045695 0-2 .8954305-2 2s.8954305 2 2 2c1.104569 0 2-.8954305 2-2s-.895431-2-2-2z" opacity=".35"/></g></svg>