<svg viewBox="0 0 16 16" xmlns="http://www.w3.org/2000/svg"><g fill="#efefef"><path d="m2 5v6h4.8398438c.8770924-1.7673223 2.5867926-2.9952984 4.6582032-3a1.0001 1.0001 0 0 0 .001953 0c.919145.0001544 1.765395.243744 2.5.6679688v-3.6679688z" opacity=".35"/><path d="m5 2v2h-3v1h12v-1h-3v-2h-1v2h-4v-2zm-3 9v1h3v2h1v-2h.5058594a1.0001 1.0001 0 0 1 .0507812-.333984c.0810431-.229227.1767281-.451471.2832032-.666016z"/><path d="m3 0c-1.6446984 0-3 1.3553016-3 3v10c0 1.644698 1.3553016 3 3 3h8.498047c-1.6526423-.003754-3.0759013-.786324-4.029297-2h-4.46875c-.5712994 0-1-.428701-1-1v-10c0-.5712994.4287006-1 1-1h10c.571299 0 1 .4287006 1 1v5.6679688c.828084.4782074 1.514099 1.1871537 2 2.0371092v-7.705078c0-1.6446984-1.355302-3-3-3zm12.978516 13.341797c-.918253 1.585445-2.540833 2.653454-4.476563 2.658203h1.498047c1.529043 0 2.80621-1.171899 2.978516-2.658203z"/><path d="m11.5 9c-1.90327.00432-3.3655799 1.205574-4 3 .6344201 1.794426 2.09673 2.995676 4 3 1.908257-.0047 3.369716-1.196879 4-2.998047v-.001953c-.640152-1.789612-2.09934-2.9996807-4-3zm.0293 1c1.104568 0 2 .895432 2 2s-.895432 2-2 2-2-.895432-2-2 .895432-2 2-2zm0 1c-.552285 0-1 .447716-1 1s.447715 1 1 1c.552284 0 1-.447716 1-1s-.447716-1-1-1z"/></g></svg>