<svg viewBox="0 0 16 16" xmlns="http://www.w3.org/2000/svg"><g fill="#efefef"><path d="m2 1c-1.10799779 0-2 .8920021-2 2v11c0 1.107998.89200221 2 2 2h3c1.1079979 0 2-.892002 2-2v-.695312c-.1749525-.306041-.3233131-.631159-.4433594-.970704a1.0001 1.0001 0 0 1 0-.667968c.1200462-.339545.2684071-.664663.4433594-.970704v-7.695312c0-1.1079979-.8920021-2-2-2zm0 2h3v3h-3zm0 4h3v3h-3zm0 4h3v3h-3z"/><path d="m11.5 9c-1.90327.00432-3.3655799 1.205574-4 3 .6344201 1.794426 2.09673 2.995676 4 3 1.908257-.0047 3.369716-1.196879 4-2.998047v-.001953c-.640152-1.789612-2.09934-2.9996807-4-3zm.0293 1c1.104568 0 2 .895432 2 2s-.895432 2-2 2-2-.895432-2-2 .895432-2 2-2zm0 1c-.552285 0-1 .447716-1 1s.447715 1 1 1c.552284 0 1-.447716 1-1s-.447716-1-1-1z"/><path d="m15.704989.29501183a1.0072306 1.0072306 0 0 0 -1.42444 0l-1.780549 1.78054857-1.780549-1.78054857a1.0072306 1.0072306 0 0 0 -1.4244408 0 1.0072306 1.0072306 0 0 0 0 1.42443957l1.7805498 1.780549-1.7805498 1.780549a1.0072306 1.0072306 0 0 0 0 1.42444 1.0072306 1.0072306 0 0 0 1.4244408 0l1.780549-1.780549 1.780549 1.780549a1.0072306 1.0072306 0 0 0 1.42444 0 1.0072306 1.0072306 0 0 0 0-1.42444l-1.780549-1.780549 1.780549-1.780549a1.0072306 1.0072306 0 0 0 0-1.42443957z" stroke-width="1.00723"/></g></svg>