<svg viewBox="0 0 16 16" xmlns="http://www.w3.org/2000/svg"><g fill="#efefef"><path d="m1 8v8h11c0-.5.03462-.975766-.584135-1.408895l-8.3856863-5.8699799c-1.0301787-.7211251-1.1448387-.7211251-2.0301787-.7211251zm2 3.5 3.5 2.5h-3.5z"/><path d="m3.96875 1s-2.96875.000012-2.96875 2.96875v3.03125c.4425107 0 .8332537-.0073356 1.2792969.1425781.2535936.0852321.4789153.2028021.7207031.3535157v-3.4960938c.0000031-.999996 1-1 1-1v3c0 .5539976.4460024 1 1 1h.3398438l1-1h-1.3398438v-3h4.3398438l1.9902342-1.9902344c-.096359-.0069575-.195386-.0097656-.298828-.0097656zm10.03125 6.6601562-2 2v1.3398438c0 .999996-1 1-1 1h-1v.380859l1.990234 1.392579c.017524.012266.033648.02639.050782.039062.866701-.281333 1.958984-.988571 1.958984-2.78125z"/><path d="m13.552734 1c-.490969.006-.991594.1966623-1.433593.6386719l-7.1914066 7.1914062 1.3789062.9648438.2070313-.2089844 5.0820311-5.0820313.451172-.4492187.898437.8984375-.449218.4511719-5.0820315 5.0820311-.0488281.048828 1.3769531.964844 6.6191405-6.6191406c1.515439-1.5154385.070089-3.7187771-1.599609-3.8730469-.0695-.007-.138855-.0088125-.208985-.0078125z"/></g></svg>