<svg viewBox="0 0 16 16" xmlns="http://www.w3.org/2000/svg"><g fill="#efefef"><path d="m3 0c-1.6446994 0-3 1.3553016-3 3v9c0 1.644698 1.3553006 3 3 3h1v-2h-1c-.5712964 0-1-.428701-1-1v-9c0-.5712994.4287036-1 1-1h4v1.5c0 .999999.500001 1.5 1.5 1.5h1.5v1h2v-1.5a1.0001 1.0001 0 0 0 -.292969-.7070312l-3.4999998-3.50000005a1.0001 1.0001 0 0 0 -.7070312-.29296875z"/><path d="m10 4.6464844c-1.999996.3535526-5.3588658.4666975-8 .3535156v2.4140625c0-.4383925 1.0019071.3622234 2.1601562 1.4785156.1653685-.5661475.4521155-1.0833426.8320313-1.5175781-.1876566-.1264701-.3786742-.2524614-.578125-.375.332149 0 .6422543-.0022373.9570313-.0039062.7051504-.6186305 1.6265713-.9960938 2.6289062-.9960938h2zm-2 8.2695316v.083984h.0722656z"/><path d="m8 7c-1.644696 0-3 1.355304-3 3v3c0 .03452.0024.06795.0059.101562.054818 1.598158 1.383679 2.898438 2.9941 2.898438h5c1.610421 0 2.939282-1.30028 2.994141-2.898438.003414-.033616.005859-.067044.005859-.101562v-3c0-1.644696-1.355304-3-3-3zm.802734 2h3.394532l-1.501954 1.919922c-.06092.04062-.127197.06657-.195312.07813-.06811-.01156-.13439-.03751-.195312-.07813zm-1.802734 1.201172 2.03125 2.382813c.442319.294881.95764.432657 1.46875.416015.51111.01664 1.026431-.121134 1.46875-.416015l2.03125-2.382813v2.798828c0 .571298-.428702 1-1 1h-5c-.571298 0-1-.428702-1-1z"/></g></svg>