<svg viewBox="0 0 16 16" xmlns="http://www.w3.org/2000/svg"><g fill="#efefef"><path d="m2 5v8h3.5c1.4 0 2.5-1.1 2.5-2.5 0-.843-.7304205-2.2340848-1.4394531-2.2617188.27113-.3382812.4394531-.7382812.4394531-1.2382812 0-1.1-.9-2-2-2zm1 1h2c.552285 0 1 .447715 1 1 0 .5522847-.447715 1-1 1h-2zm9 1c-1.656854 0-3 1.3431458-3 3 0 1.656854 1.343146 3 3 3h1v-1h-1c-1.104569 0-2-.895431-2-2 0-1.1045695.895431-2 2-2h1v-1zm-9 2h2.5c.828427 0 1.5.6715729 1.5 1.5 0 .828427-.671573 1.5-1.5 1.5h-2.5z"/><path d="m9 2v1h.006c-.002.26436.10186.51856.28711.70703l2 2c.39053.39037 1.02353.39037 1.41406 0l2-2c.18539-.18847.28911-.44267.28711-.70703h.00572v-1z"/></g></svg>