<svg viewBox="0 0 16 16" xmlns="http://www.w3.org/2000/svg"><g fill="#efefef"><path d="m3 1c-1.6619898 0-3 1.3380102-3 3v8c0 1.661988 1.3380102 3 3 3h5.015625a5 5 0 0 1 -.9023438-2h-3.6132812c-.8309968 0-1.5-.669004-1.5-1.5v-7c0-.8309968.6690032-1.5 1.5-1.5h9c.830996 0 1.5.6690032 1.5 1.5v2.9199219a5 5 0 0 1 2 1.5820312v-5.0019531c0-1.6619898-1.338012-3-3-3zm1 3c-.5522829 0-1 .4477171-1 1s.4477171 1 1 1 1-.4477171 1-1-.4477171-1-1-1zm3 0v1h6v-1zm-3 3c-.5522829 0-1 .4477171-1 1s.4477171 1 1 1 1-.4477171 1-1-.4477171-1-1-1zm3 0v1h2 .0214844a5 5 0 0 1 2.9785156-1zm5 0a5 5 0 0 1 1 .1015625v-.1015625zm-9 3v2h4a5 5 0 0 1 .4238281-2z"/><path d="m12 8a1.0001 1.0001 0 0 0 -.943359.6679688l-.621094 1.7675782-1.7675782.621094a1.0001 1.0001 0 0 0 0 1.886718l1.7675782.621094.621094 1.767578a1.0001 1.0001 0 0 0 1.886718 0l.621094-1.767578 1.767578-.621094a1.0001 1.0001 0 0 0 0-1.886718l-1.767578-.621094-.621094-1.7675782a1.0001 1.0001 0 0 0 -.943359-.6679688zm0 3a1 1 0 0 1 1 1 1 1 0 0 1 -1 1 1 1 0 0 1 -1-1 1 1 0 0 1 1-1z"/><path d="m9.8320313 8.8789062a1.0001 1.0001 0 0 0 -.6601561.2929687 1.0001 1.0001 0 0 0 -.195313 1.1386721l.042967.0918 1.0234371-.359375.359375-1.0234378-.0918-.042967a1.0001 1.0001 0 0 0 -.47851-.097661zm4.2207037.00195a1.0001 1.0001 0 0 0 -.363282.095703l-.0918.042964.359375 1.0234378 1.023437.359375.04296-.0918a1.0001 1.0001 0 0 0 -.970695-1.4296819zm-5.0332038 4.7167969-.042967.0918a1.0001 1.0001 0 0 0 1.3339844 1.333984l.0918-.04297-.359375-1.023437zm5.9609378 0-1.023438.359375-.359375 1.023437.0918.04296a1.0001 1.0001 0 0 0 1.333984-1.333984z" opacity=".35"/></g></svg>