<svg viewBox="0 0 16 16" xmlns="http://www.w3.org/2000/svg"><g fill="#efefef"><path d="m3 6v8h6v-3h-3v-5z" opacity=".35"/><path d="m4 4c-1.6619949 0-3 1.3380051-3 3v6c0 1.661994 1.3380051 3 3 3h4c1.6619946 0 3-1.338006 3-3v-3h-2.5c-.8309976 0-1.5-.6690026-1.5-1.5v-4.5zm.5 2h.5v3c0 1.661994 1.3380051 3 3 3h1v.5c0 .830997-.6690026 1.5-1.5 1.5h-3c-.8309976 0-1.5-.669003-1.5-1.5v-5c0-.8309976.6690024-1.5 1.5-1.5z"/><path d="m8 0c-1.6619966 0-3 1.3380034-3 3v1h2v-.5c0-.8309984.6690016-1.5 1.5-1.5h3c.830998 0 1.5.6690016 1.5 1.5v5c0 .8309982-.669002 1.5-1.5 1.5h-.5v2h1c1.661996 0 3-1.338004 3-3v-6c0-1.6619966-1.338004-3-3-3z" opacity=".35"/></g></svg>