<svg viewBox="0 0 16 16" xmlns="http://www.w3.org/2000/svg"><g fill="#efefef"><path d="m3 0c-1.6446994 0-3 1.3553016-3 3v9c0 1.644041 1.3542361 2.998917 2.9980469 3v-1.541016c.0000311-.155233.0167628-.307889.0429687-.458984h-.0410156c-.5712964 0-1-.428701-1-1v-9c0-.5712994.4287036-1 1-1h4l3 3v.3398438l1.410156-1.4101563c.07292-.072918.14901-.1425631.226563-.2070313l-3.429688-3.42968745c-.1875117-.1875362-.4418321-.29291764-.707031-.29296875z"/><path d="m13.551786 3.99988c-.49097.006-.9906.19654-1.4326.63855l-7.6228997 7.62291c-.31768.31764-.4962.74845-.49629 1.19769v2.54097h2.54097c.44924-.00008.88005-.1786 1.1977-.49629l7.6229097-7.6229c1.51544-1.51544.07-3.71839-1.5997-3.87266-.0695-.007-.13995-.009-.21008-.008zm-1.50539 3.05545.89828.89827-.44831.44996-5.0819297 5.08194-.44997.44831-.89828-.89827.44831-.44997 5.0819397-5.08193z" stroke-width=".999998"/><path d="m3 4v2h3v-2zm2 3v2h1.3398438l2-2zm-2 3v2h.4296875c.1029662-.160071.2209024-.310763.3574219-.447266l1.5527344-1.552734z"/></g></svg>