<svg viewBox="0 0 16 16" xmlns="http://www.w3.org/2000/svg"><g fill="#aaa8ac"><path d="m5 4v2h-2v1h2v2h-2v1h2v2h1v-2h2c0-.3625259.1036153-.691457.2480469-1h-2.2480469v-2h4v1h1v-1h2v-1h-2v-2h-1v2h-4v-2zm7 5c-1.656852 0-3 .6715737-3 1.5v2 2c0 .828424 1.343152 1.5 3 1.5s3-.671576 3-1.5v-2-2c0-.8284263-1.343148-1.5-3-1.5zm0 .8300781c1.105447-.0000002 2.001242.3000559 2 .6699219.0012.369866-.894553.669922-2 .669922s-2.0012421-.300056-2-.669922c-.00124-.369866.894553-.6699221 2-.6699219zm0 2.1699219c1.104566 0 2 .223858 2 .5s-.895434.5-2 .5-2-.223858-2-.5.895434-.5 2-.5zm0 2c1.104566 0 2 .223858 2 .5s-.895434.5-2 .5-2-.223858-2-.5.895434-.5 2-.5z"/><path d="m4 2c-1.6619949 0-3 1.3380051-3 3v6c0 1.661994 1.3380051 3 3 3h3a1 1 0 0 0 1-1 1 1 0 0 0 -1-1h-2c-1.1079967 0-2-.892003-2-2v-4c0-1.1079967.8920033-2 2-2h6c1.107997 0 2 .8920033 2 2v1a1 1 0 0 0 1 1 1 1 0 0 0 1-1v-2c0-1.6619949-1.338006-3-3-3z"/></g></svg>