<svg height="32" viewBox="0 0 32 32" width="32" xmlns="http://www.w3.org/2000/svg"><g fill="#4b4b4f" stroke-width="1.315812" transform="matrix(1.0780065 0 0 1.0780065 -1.248104 -1.247489)"><path d="m23.320991 18.870517-.610337 3.11646c-.94457 4.660261-4.27963 6.990391-10.005181 6.990391-5.7255499 0-8.1160397-2.33013-7.1714692-6.990391l.7265788-2.986977h4.0979814l-.7265777 2.986977c-.5376785 2.669188.6902627 4.003782 3.6838247 4.003782s4.759183-1.334594 5.296862-4.003782l.675732-3.441092-2.441353-.367917c-7.5420321-1.096531-10.8770926-3.823433-10.0051815-8.1807061.4068921-1.9910707 1.4749832-3.6575106 3.2042735-4.9993197 1.714758-1.327381 4.388619-1.9910715 8.021584-1.9910715 3.632963 0 6.045251.6636905 7.236862 1.9910715 1.177081 1.3418091 1.591239 2.8639686 1.242474 4.5664785l-.217978 1.0821053h-4.097982l.217978-1.0821053c.217977-1.0388198-.036331-1.8972887-.762922-2.5754068-.71206-.6636907-2.12165-.995536-4.22877-.995536-2.107119 0-3.654762.3318453-4.642927.995536-.973635.6781181-1.598505 1.6808674-1.87461 3.008248-.55221 2.7413311 1.685695 4.4799121 6.713716 5.2157421l2.419555.346273c.203446-.346273.479551-.66369.828314-.952251.624871-.51941 1.315134-.779115 2.07079-.779115s1.344196.266919 1.765621.800758c.421425.519409.559477 1.154243.414157 1.904502-.145319.75026-.537678 1.385094-1.177079 1.904501-.203447.173138-.421425.31742-.653936.432845z"/><text transform="scale(1.004059 .99595742)" x="-19.473423" y="33.647236"><tspan fill="#4b4b4f" stroke-width="1.315812" x="-19.473423" y="33.647236"/></text></g></svg>