<svg height="16" width="16" xmlns="http://www.w3.org/2000/svg" xmlns:xlink="http://www.w3.org/1999/xlink">
  <defs>
    <linearGradient
       id="a"
       gradientUnits="userSpaceOnUse"
       x1="7.8712959"
       x2="7.8712959"
       y1="3.349267"
       y2="12.617622">
      <stop
         offset="0"
         stop-color="#fff"
         id="stop2" />
      <stop
         offset="1"
         stop-color="#fff"
         stop-opacity=".392157"
         id="stop8" />
    </linearGradient>
    <linearGradient
       inkscape:collect="always"
       xlink:href="#a"
       id="linearGradient842"
       x1="2.6801353"
       y1="2.4346478"
       x2="2.6007161"
       y2="14.456738"
       gradientUnits="userSpaceOnUse"
       gradientTransform="matrix(1.0489411,0,0,1.0527299,-0.4998481,-0.45744248)" />
  </defs>
  <radialGradient
     id="b"
     cx="65.08"
     cy="48.19"
     gradientTransform="matrix(0 .6154 -.6695 0 41.292 -38.28)"
     gradientUnits="userSpaceOnUse"
     r="21.855">
    <stop
       offset="0"
       stop-color="#f8b17e"
       id="stop14"
       style="stop-color:#bbbbbb;stop-opacity:1" />
    <stop
       offset="1"
       stop-color="#c6262e"
       id="stop16"
       style="stop-color:#767676;stop-opacity:1" />
  </radialGradient>
  <path
     style="fill:url(#b)"
     d="m 8,2.3626885 c -3.1104735,0 -5.6373121,2.5268372 -5.6373121,5.6373111 0,3.1104744 2.5268386,5.6373114 5.6373121,5.6373114 3.1104714,0 5.6373134,-2.526837 5.6373104,-5.6373114 0,-3.1104739 -2.526839,-5.6373111 -5.6373104,-5.6373111 z"
     id="path11" />
  <path
     style="opacity:0.6;fill:none;stroke:url(#linearGradient842);stroke-width:0.7;stroke-linecap:round;stroke-linejoin:round"
     d="m 12.861967,7.9998268 c 0,2.6852782 -2.176936,4.8621402 -4.8619059,4.8621402 -2.6852154,0 -4.86203,-2.176886 -4.86203,-4.8621402 0,-2.6851524 2.1768146,-4.8617956 4.86203,-4.8617956 2.6849699,0 4.8619059,2.1766431 4.8619059,4.8617956 z"
     id="path13" />
  <path
     style="opacity:0.6;fill:none;stroke:#383838;stroke-width:0.74936074;stroke-linecap:round"
     d="m 8,2.3746802 c -3.1038569,0 -5.6253204,2.5214621 -5.6253204,5.6253194 0,3.1038584 2.5214635,5.6253204 5.6253204,5.6253194 3.1038554,0 5.6253214,-2.521461 5.6253184,-5.6253194 0,-3.1038573 -2.521463,-5.6253194 -5.6253184,-5.6253194 z"
     id="path15" />
  <path
     style="fill:#6f6f6f;stroke-width:0.7;fill-opacity:1"
     d="M 10.688359,4.85574 11.748632,5.9160136 5.3869911,12.277654 4.3267177,11.217381 Z"
     id="path17" />
  <path
     style="fill:#6f6f6f;stroke-width:0.7;fill-opacity:1"
     d="M 11.748632,11.217381 10.688359,12.277654 4.3267177,5.9160136 5.3869911,4.85574 Z"
     id="path19" />
  <path
     style="fill:#ffffff;stroke-width:0.7"
     d="M 10.650683,4.2890427 11.710956,5.3493162 5.3493159,11.710957 4.2890423,10.650683 Z"
     id="path21" />
  <path
     style="fill:#ffffff;stroke-width:0.7"
     d="M 11.710956,10.650683 10.650683,11.710957 4.2890423,5.3493162 5.3493159,4.2890427 Z"
     id="path23" />
</svg>
