<svg height="16" width="16" xmlns="http://www.w3.org/2000/svg" xmlns:xlink="http://www.w3.org/1999/xlink"><linearGradient id="a" gradientTransform="matrix(1.0489411 0 0 1.0527299 -.499848 -.457442)" gradientUnits="userSpaceOnUse" x1="2.680135" x2="2.600716" y1="2.434648" y2="14.456738"><stop offset="0" stop-color="#fff"/><stop offset="1" stop-color="#fff" stop-opacity=".392157"/></linearGradient><radialGradient id="b" cx="65.08" cy="48.19" gradientTransform="matrix(0 .6154 -.6695 0 41.292 -38.28)" gradientUnits="userSpaceOnUse" r="21.855"><stop offset="0" stop-color="#bbb"/><stop offset="1" stop-color="#767676"/></radialGradient><path d="m8 2.3626885c-3.1104735 0-5.6373121 2.5268372-5.6373121 5.6373111 0 3.1104744 2.5268386 5.6373114 5.6373121 5.6373114 3.1104714 0 5.6373134-2.526837 5.6373104-5.6373114 0-3.1104739-2.526839-5.6373111-5.6373104-5.6373111z" fill="url(#b)"/><path d="m12.861967 7.9998268c0 2.6852782-2.176936 4.8621402-4.8619059 4.8621402-2.6852154 0-4.86203-2.176886-4.86203-4.8621402 0-2.6851524 2.1768146-4.8617956 4.86203-4.8617956 2.6849699 0 4.8619059 2.1766431 4.8619059 4.8617956z" style="opacity:.6;fill:none;stroke-width:.7;stroke-linecap:round;stroke-linejoin:round;stroke:url(#a)"/><path d="m8 2.3746802c-3.1038569 0-5.6253204 2.5214621-5.6253204 5.6253194 0 3.1038584 2.5214635 5.6253204 5.6253204 5.6253194 3.1038554 0 5.6253214-2.521461 5.6253184-5.6253194 0-3.1038573-2.521463-5.6253194-5.6253184-5.6253194z" fill="none" opacity=".6" stroke="#383838" stroke-linecap="round" stroke-width=".749361"/><g stroke-width=".7"><path d="m10.688359 4.85574 1.060273 1.0602736-6.3616409 6.3616404-1.0602734-1.060273z" fill="#6f6f6f"/><path d="m11.748632 11.217381-1.060273 1.060273-6.3616413-6.3616404 1.0602734-1.0602736z" fill="#6f6f6f"/><path d="m10.650683 4.2890427 1.060273 1.0602735-6.3616401 6.3616408-1.0602736-1.060274z" fill="#fff"/><path d="m11.710956 10.650683-1.060273 1.060274-6.3616407-6.3616408 1.0602736-1.0602735z" fill="#fff"/></g></svg>