<svg height="16" width="16" xmlns="http://www.w3.org/2000/svg" xmlns:xlink="http://www.w3.org/1999/xlink"><linearGradient id="a" gradientTransform="matrix(0 -.39447799 .42344634 0 -.726555 19.187485)" gradientUnits="userSpaceOnUse" x1="38.940514" x2="20.576487" y1="15.991243" y2="15.991243"><stop offset="0" stop-color="#fff"/><stop offset=".51153916" stop-color="#fff" stop-opacity=".235294"/><stop offset=".58522105" stop-color="#fff" stop-opacity=".156863"/><stop offset="1" stop-color="#fff" stop-opacity=".392157"/></linearGradient><linearGradient id="b" gradientTransform="matrix(.36132509 0 0 .33660657 -1.370726 .976696)" gradientUnits="userSpaceOnUse" x1="23.731871" x2="23.731871" y1="4.417527" y2="41.414822"><stop offset="0" stop-color="#cdf87e"/><stop offset=".26238" stop-color="#a2e34f"/><stop offset=".66093999" stop-color="#68b723"/><stop offset="1" stop-color="#1d7e0d"/></linearGradient><path d="m4.1606858 14c-3.75162103-3.269842-2.557601-8.6031753 3.1090659-8.7460233v-2.7623493l6.1393133 4.6031707-6.1393133 4.6031699v-2.7401299c-3.2982039-.1280254-5.0063379 2.8792089-2.6484549 5.0421619z" display="block" fill="url(#b)"/><g fill="none"><path d="m3.2793868 12.396507c-1.61845-1.895459-.408938-6.5742253 4.9619916-6.2069919l.056747-1.7028531 3.5685716 2.6081361-3.5685716 2.6373086v-1.6856033c-5.1395406-.496628-5.5022186 3.5837676-5.0187386 4.3500036z" display="block" opacity=".8" stroke="url(#a)" stroke-miterlimit="7" stroke-width=".963925"/><path d="m4.1606858 14c-3.75162103-3.269842-2.557601-8.6031754 3.1090659-8.7460234v-2.7623493l6.1393133 4.6031707-6.1393133 4.60317v-2.74013c-3.2982039-.1280254-5.0063379 2.879209-2.6484549 5.042162z" opacity=".5" stroke="#0f5a00" stroke-linecap="round"/></g></svg>