<svg viewBox="0 0 32 32" xmlns="http://www.w3.org/2000/svg"><path d="m15 3a3 3 0 0 0 -3 3v4.5l-6.4003906 6.400391-.7070313.707031.7070313.707031 5.6582026 5.65625.707032.707031.707031-.707031 9.898437-9.900391-4.570312-4.570312v-3.5a3 3 0 0 0 -3-3zm0 1a2 2 0 0 1 2 2v2.5l-1.5-1.5-.707031.7070312-1.792969 1.7929688v-3.5a2 2 0 0 1 2-2zm.5 4.4140625 5.65625 5.6562495c-.355059.202404-.803061.659276-.923828.767579-5.316169 5.987823-7.058773-1.727736-13.9257814 2.769531zm8.5 7.5859375c-.68 2.34-2.347031 4.352844-3.082031 5.964844-.257.48-.417969 1.016656-.417969 1.597656 0 1.905 1.56 3.4375 3.5 3.4375s3.5-1.5325 3.5-3.4375c0-.58-.160969-1.118656-.417969-1.597656-.735-1.612-2.402031-3.624844-3.082031-5.964844z" fill="#232629"/></svg>