<svg viewBox="0 0 32 32" xmlns="http://www.w3.org/2000/svg"><path d="m7 4a3 3 0 0 0 -3 3 3 3 0 0 0 3 3 3 3 0 0 0 2.8261719-2h12.6738281a3.5 3.5 0 0 1 3.5 3.5 3.5 3.5 0 0 1 -3.5 3.5h-13-.5v.027344a5.5 5.5 0 0 0 -5 5.472656 5.5 5.5 0 0 0 5 5.474609v.025391h.5 13.5v-2h-13.5a3.5 3.5 0 0 1 -3.5-3.5 3.5 3.5 0 0 1 3.5-3.5h13.5v-.025391a5.5 5.5 0 0 0 5-5.474609 5.5 5.5 0 0 0 -5-5.4726562v-.0273438h-13.1757812a3 3 0 0 0 -2.8242188-2zm0 2a1 1 0 0 1 1 1 1 1 0 0 1 -1 1 1 1 0 0 1 -1-1 1 1 0 0 1 1-1z" fill="#4d4d4d"/></svg>