<svg xmlns="http://www.w3.org/2000/svg" viewBox="0 0 32 32">
 <path 
     style="fill:#4d4d4d" 
     d="M 7 4 A 3 3 0 0 0 4 7 A 3 3 0 0 0 7 10 A 3 3 0 0 0 9.8261719 8 L 15 8 L 15 26 L 16 26 L 17 26 L 22.175781 26 A 3 3 0 0 0 25 28 A 3 3 0 0 0 28 25 A 3 3 0 0 0 25 22 A 3 3 0 0 0 22.173828 24 L 17 24 L 17 8 L 17 6 L 15 6 L 9.8242188 6 A 3 3 0 0 0 7 4 z M 7 6 A 1 1 0 0 1 8 7 A 1 1 0 0 1 7 8 A 1 1 0 0 1 6 7 A 1 1 0 0 1 7 6 z M 25 24 A 1 1 0 0 1 26 25 A 1 1 0 0 1 25 26 A 1 1 0 0 1 24 25 A 1 1 0 0 1 25 24 z "
     />
</svg>
