<svg xmlns="http://www.w3.org/2000/svg" viewBox="0 0 32 32">
 <path 
     style="fill:#4d4d4d" 
     d="M 4 4 L 4 25 C 10.90018 24.63488 19.0872 25.61743 28 28 L 28 7 C 18.36985 3.93434 11.25772 3.994 4 4 z M 5 5.0332031 C 11.73112 5.0324131 18.42848 5.1521644 27 7.7714844 L 27 26.78125 C 18.89231 24.71735 11.5516 23.769001 5 23.994141 L 5 5.0332031 z M 10 11.5 L 7 14.5 L 10 17.5 L 10 16 C 14.97627 16 18.38784 16.34065 22 17.5 L 22 19 L 25 16 L 22 13 L 22 14.5 C 18.9205 13.4938 14.5 13 10 13 L 10 11.5 z "
     />
</svg>
