<svg viewBox="0 0 32 32" xmlns="http://www.w3.org/2000/svg"><path d="m16 4a12 3 0 0 0 -12 3v6 6 6a12 3 0 0 0 12 3 12 3 0 0 0 1-.013672v-.996094a11 2 0 0 1 -1 .009766 11 2 0 0 1 -11-2v-4.804688a12 3 0 0 0 11 1.804688 12 3 0 0 0 11-1.808594v4.808594h1v-18a12 3 0 0 0 -12-3zm0 1a11 2 0 0 1 11 2 11 2 0 0 1 -11 2 11 2 0 0 1 -11-2 11 2 0 0 1 11-2zm11 3.1914062v4.8085938a11 2 0 0 1 -11 2 11 2 0 0 1 -11-2v-4.8046875a12 3 0 0 0 11 1.8046875 12 3 0 0 0 11-1.8085938zm0 5.9999998v4.808594a11 2 0 0 1 -11 2 11 2 0 0 1 -11-2v-4.804688a12 3 0 0 0 11 1.804688 12 3 0 0 0 11-1.808594z" fill="#4d4d4d"/><path d="m19 26c-.55229 0-1 .4477-1 1s.44771 1 1 1c.55228 0 1-.4477 1-1s-.44772-1-1-1zm4 0c-.55229 0-1 .4477-1 1s.44771 1 1 1c.55228 0 1-.4477 1-1s-.44772-1-1-1zm4 0c-.55229 0-1 .4477-1 1s.44771 1 1 1c.55228 0 1-.4477 1-1s-.44772-1-1-1z" fill="#f47750"/></svg>