<svg viewBox="0 0 32 32" xmlns="http://www.w3.org/2000/svg"><path d="m10 4v1h18v-1zm0 3v1h13v-1zm10 7v1h8v-1zm0 3v1h1v-1zm3 0v1h5v-1zm-13 7v1h18v-1zm0 3v1h12v-1zm14 1v1h4v-1z" fill="#232629"/><g fill="#3daee9"><path d="m4 12v8l5-4z"/><path d="m5.5 4c-.828427 0-1.5.6715729-1.5 1.5s.671573 1.5 1.5 1.5 1.5-.6715729 1.5-1.5-.671573-1.5-1.5-1.5zm10 10c-.828427 0-1.5.671573-1.5 1.5s.671573 1.5 1.5 1.5 1.5-.671573 1.5-1.5-.671573-1.5-1.5-1.5zm-10 10c-.828427 0-1.5.671573-1.5 1.5s.671573 1.5 1.5 1.5 1.5-.671573 1.5-1.5-.671573-1.5-1.5-1.5z"/></g></svg>