<svg xmlns="http://www.w3.org/2000/svg" viewBox="0 0 32 32">
 <path 
     style="fill:#4d4d4d" 
     d="M 11 4 L 11 5 L 28 5 L 28 4 L 11 4 z M 11 7 L 11 8 L 24 8 L 24 7 L 11 7 z M 11 14 L 11 15 L 28 15 L 28 14 L 11 14 z M 11 17 L 11 18 L 15 18 L 15 17 L 11 17 z M 11 24 L 11 25 L 28 25 L 28 24 L 11 24 z M 11 27 L 11 28 L 22 28 L 22 27 L 11 27 z M 24 28 L 24 29 L 28 29 L 28 28 L 24 28 z "
     />
 <path 
     style="fill:#1d99f3" 
     d="M 5.5 4 A 1.5 1.5 0 0 0 4 5.5 A 1.5 1.5 0 0 0 5.5 7 A 1.5 1.5 0 0 0 7 5.5 A 1.5 1.5 0 0 0 5.5 4 z M 5.5 14 A 1.5 1.5 0 0 0 4 15.5 A 1.5 1.5 0 0 0 5.5 17 A 1.5 1.5 0 0 0 7 15.5 A 1.5 1.5 0 0 0 5.5 14 z M 5.5 24 A 1.5 1.5 0 0 0 4 25.5 A 1.5 1.5 0 0 0 5.5 27 A 1.5 1.5 0 0 0 7 25.5 A 1.5 1.5 0 0 0 5.5 24 z "
     />
</svg>
