<svg xmlns="http://www.w3.org/2000/svg" viewBox="0 0 32 32">
 <path 
     style="fill:#4d4d4d" 
     d="M 3 4 L 3 22 L 29 22 L 29 4 L 3 4 z M 4 5 L 28 5 L 28 21 L 4 21 L 4 5 z M 16 7 C 12.68629 7 10 9.68629 10 13 C 10 16.31371 12.68629 19 16 19 C 19.31371 19 22 16.31371 22 13 C 22 9.68629 19.31371 7 16 7 z M 16 8 C 18.76142 8 21 10.23858 21 13 C 21 15.76142 18.76142 18 16 18 C 13.23858 18 11 15.76142 11 13 C 11 10.23858 13.23858 8 16 8 z M 15 9 L 15 13 L 15 14 L 20 14 L 20 13 L 16 13 L 16 9 L 15 9 z M 13 23 L 13 27 L 11 27 L 11 28 L 21 28 L 21 27 L 19 27 L 19 23 L 18 23 L 18 27 L 14 27 L 14 23 L 13 23 z "
     />
</svg>
