<svg viewBox="0 0 32 32" xmlns="http://www.w3.org/2000/svg"><path d="m5.037109 4v24h2v-1h-1v-22h11v7h7 1v-1l-7-7h-1zm3 9v14 1 .414062.585938h3.962891 12.037109 3.962891v-.585938-.414062-1-14h-.048829-.951171-2.962891-12.037109-2.962891-.9511719zm1 1h.048828l2.914063 2.914062v.03711l3.023437 3.02539-3.023437 3.023438v.03711l-2.962891 2.96289zm1.462891 0h1.5 12.037109 1.5l-7.517578 7.519531zm16.451171 0h.048829v12l-2.962891-2.962891v-.037109l-3.023438-3.023438 3.023438-3.02539v-.03711zm-11.201171 6.701172 2.25 2.25.01953-.01758.01758.01758 2.25-2.25 6.25 6.25.46289.46289v.585938h-2.962891-12.037109-2.962891v-.585938l.462891-.46289z" fill="#232629"/></svg>