<svg height="32" viewBox="0 0 32 32" width="32" xmlns="http://www.w3.org/2000/svg"><path d="m8 5v1.3339844.6660156h-3v5h3v7h-3v5h3v3h1.3339844 7.6660156v-1h-4v-20h13v12h1v-13zm1 1h3v20h-3zm13.046875 12.085938-4.535156 4.533203.853515.853515 3.681641 3.681641.853516-.853516 3.68164-3.68164-.763672-.763672-3.68164 3.68164a.12585362.12585362 0 0 1 -.179688 0l-2.828125-2.828125a.12585362.12585362 0 0 1 0-.179687l2.828125-2.828125a.12585362.12585362 0 0 1 .179688 0l.943359.943359a.12585362.12585362 0 0 1 0 .179688l-1.796875 1.794922.763672.763671 1.794922-1.794921.853515-.853516-1.794921-1.794922z" fill="#4d4d4d"/></svg>