<svg xmlns="http://www.w3.org/2000/svg" viewBox="0 0 32 32">
 <path 
     style="fill:#b3b3b3" 
     d="M 4 4 L 4 10 L 10 10 L 10 4 L 4 4 z M 11 4 L 11 10 L 28 10 L 28 4 L 11 4 z M 4 11 L 4 28 L 10 28 L 10 11 L 4 11 z M 11 11 L 11 28 L 28 28 L 28 11 L 11 11 z "
     />
 <path 
     style="fill:#4d4d4d" 
     d="M 4 4 L 4 28 L 28 28 L 28 4 L 4 4 z M 5 5 L 10 5 L 10 10 L 5 10 L 5 5 z M 11 5 L 27 5 L 27 10 L 11 10 L 11 5 z M 5 11 L 10 11 L 10 27 L 5 27 L 5 11 z M 11 11 L 27 11 L 27 27 L 11 27 L 11 11 z "
     />
</svg>
