<svg xmlns="http://www.w3.org/2000/svg" viewBox="0 0 32 32">
 <path 
     style="fill:#4d4d4d" 
     d="M 6.2929688 4 L 5 5.2929688 L 5 7.8320312 C 5.05219 7.870058 11.948261 17.09482 12.625 18 L 13.873047 18 L 6 7.5019531 L 6 5.7070312 L 6.7070312 5 L 25.292969 5 L 26 5.7070312 L 26 7.5019531 L 18.126953 18 L 19.375 18 L 27 7.8320312 L 27 5.2929688 L 25.707031 4 L 6.2929688 4 z M 7 6 L 12 12.5 C 11.98469 12.5051 12 9 12 9 L 15 6 L 7 6 z M 4 18 L 4 19 L 7 19 L 7 18 L 4 18 z M 9 18 L 9 19 L 12 19 L 12 18 L 9 18 z M 15 18 L 15 19 L 17 19 L 17 18 L 15 18 z M 20 18 L 20 19 L 23 19 L 23 18 L 20 18 z M 25 18 L 25 19 L 28 19 L 28 18 L 25 18 z M 13 19 L 13 23.507812 L 19 28.009766 L 19 19 L 18 19 L 18 26.009766 C 16.839646 25.142995 15.285496 23.976146 14 23.009766 L 14 19 L 13 19 z "
     />
 <path 
     style="fill:#f47750" 
     d="M 27 20 C 26.44772 20 26 20.4477 26 21 C 26 21.5523 26.44772 22 27 22 C 27.55228 22 28 21.5523 28 21 C 28 20.4477 27.55228 20 27 20 z M 27 23 C 26.44772 23 26 23.4477 26 24 C 26 24.5523 26.44772 25 27 25 C 27.55228 25 28 24.5523 28 24 C 28 23.4477 27.55228 23 27 23 z M 27 26 C 26.44772 26 26 26.4477 26 27 C 26 27.5523 26.44772 28 27 28 C 27.55228 28 28 27.5523 28 27 C 28 26.4477 27.55228 26 27 26 z "
     />
</svg>
