<svg xmlns="http://www.w3.org/2000/svg" viewBox="0 0 32 32">
    <path
       style="fill:#f47750"
       d="M 9 3 L 9 8 L 14 8 L 14 3 L 9 3 z M 19 8 L 19 13 L 24 13 L 24 8 L 19 8 z M 9 13.021484 L 9 18 L 14 18 L 14 13.021484 L 9 13.021484 z M 19 18 L 19 23 L 24 23 L 24 18 L 19 18 z M 24 23 L 24 27.978516 L 29 27.978516 L 29 23 L 24 23 z " />
    <path
       style="fill:#2ecc71"
       d="M 14 3 L 14 8 L 19 8 L 19 3 L 14 3 z M 24 8 L 24 13 L 29 13 L 29 8 L 24 8 z M 4 13 L 4 18 L 9 18 L 9 13 L 4 13 z M 24 18 L 24 23 L 29 23 L 29 18 L 24 18 z M 14 23 L 14 28 L 19 28 L 19 23 L 14 23 z " />
    <path
       style="fill:#fdbc4b"
       d="M 24 3 L 24 8 L 29 8 L 29 3 L 24 3 z M 14 8 L 14 13 L 19 13 L 19 8 L 14 8 z M 24 13.021484 L 24 18 L 29 18 L 29 13.021484 L 24 13.021484 z M 4 18 L 4 23 L 9 23 L 9 18 L 4 18 z M 9 23 L 9 28 L 14 28 L 14 23 L 9 23 z M 19 23.021484 L 19 28 L 24 28 L 24 23.021484 L 19 23.021484 z " />
    <path
       style="fill:#1d99f3"
       d="M 4 3 L 4 8 L 9 8 L 9 3 L 4 3 z M 9 8 L 9 13 L 14 13 L 14 8 L 9 8 z M 19 13.021484 L 19 18 L 24 18 L 24 13.021484 L 19 13.021484 z M 19 18 L 14 18 L 14 23 L 19 23 L 19 18 z M 4 23 L 4 28 L 9 28 L 9 23 L 4 23 z " />
    <path
       style="fill:#da4453"
       d="M 19 3 L 19 8 L 24 8 L 24 3 L 19 3 z M 4 8 L 4 13 L 9 13 L 9 8 L 4 8 z M 14 13.021484 L 14 18 L 19 18 L 19 13.021484 L 14 13.021484 z M 14 18 L 9 18 L 9 23 L 14 23 L 14 18 z " />
</svg>
