<svg xmlns="http://www.w3.org/2000/svg" viewBox="0 0 32 32">
 <path 
     style="fill:#4d4d4d" 
     d="M 4 4 L 4 5 L 5 5 L 5 4 L 4 4 z M 8 4 L 8 5 L 9 5 L 9 4 L 8 4 z M 12 4 L 12 5 L 13 5 L 13 4 L 12 4 z M 16 4 L 16 5 L 17 5 L 17 4 L 16 4 z M 20 4 L 20 5 L 21 5 L 21 4 L 20 4 z M 24 4 L 24 5 L 25 5 L 25 4 L 24 4 z M 27 4 L 27 5 L 28 5 L 28 4 L 27 4 z M 4 7 L 4 8 L 5 8 L 5 7 L 4 7 z M 8 7 L 8 8 L 9 8 L 9 7 L 8 7 z M 12 7 L 12 8 L 13 8 L 13 7 L 12 7 z M 16 7 L 16 8 L 17 8 L 17 7 L 16 7 z M 20 7 L 20 8 L 21 8 L 21 7 L 20 7 z M 24 7 L 24 8 L 25 8 L 25 7 L 24 7 z M 27 7 L 27 8 L 28 8 L 28 7 L 27 7 z M 4 11 L 4 12 L 5 12 L 5 11 L 4 11 z M 8 11 L 8 12 L 9 12 L 9 11 L 8 11 z M 12 11 L 12 12 L 13 12 L 13 11 L 12 11 z M 16 11 L 16 12 L 17 12 L 17 11 L 16 11 z M 20 11 L 20 12 L 21 12 L 21 11 L 20 11 z M 24 11 L 24 12 L 25 12 L 25 11 L 24 11 z M 27 11 L 27 12 L 28 12 L 28 11 L 27 11 z M 4 15 L 4 16 L 5 16 L 5 15 L 4 15 z M 8 15 L 8 16 L 9 16 L 9 15 L 8 15 z M 12 15 L 12 16 L 13 16 L 13 15 L 12 15 z M 16 15 L 16 16 L 17 16 L 17 15 L 16 15 z M 20 15 L 20 16 L 21 16 L 21 15 L 20 15 z M 24 15 L 24 16 L 25 16 L 25 15 L 24 15 z M 27 15 L 27 16 L 28 16 L 28 15 L 27 15 z M 4 19 L 4 20 L 5 20 L 5 19 L 4 19 z M 8 19 L 8 20 L 9 20 L 9 19 L 8 19 z M 12 19 L 12 20 L 13 20 L 13 19 L 12 19 z M 16 19 L 16 20 L 17 20 L 17 19 L 16 19 z M 20 19 L 20 20 L 21 20 L 21 19 L 20 19 z M 24 19 L 24 20 L 25 20 L 25 19 L 24 19 z M 27 19 L 27 20 L 28 20 L 28 19 L 27 19 z M 4 23 L 4 24 L 5 24 L 5 23 L 4 23 z M 8 23 L 8 24 L 9 24 L 9 23 L 8 23 z M 12 23 L 12 24 L 13 24 L 13 23 L 12 23 z M 16 23 L 16 24 L 17 24 L 17 23 L 16 23 z M 20 23 L 20 24 L 21 24 L 21 23 L 20 23 z M 24 23 L 24 24 L 25 24 L 25 23 L 24 23 z M 27 23 L 27 24 L 28 24 L 28 23 L 27 23 z M 4 27 L 4 28 L 5 28 L 5 27 L 4 27 z M 8 27 L 8 28 L 9 28 L 9 27 L 8 27 z M 12 27 L 12 28 L 13 28 L 13 27 L 12 27 z M 16 27 L 16 28 L 17 28 L 17 27 L 16 27 z M 20 27 L 20 28 L 21 28 L 21 27 L 20 27 z M 24 27 L 24 28 L 25 28 L 25 27 L 24 27 z M 27 27 L 27 28 L 28 28 L 28 27 L 27 27 z "
     />
</svg>
