<svg viewBox="0 0 32 32" xmlns="http://www.w3.org/2000/svg"><path d="m4 4v24h11v-3-1l7.5-7.5-1.5-1.5-6 6-2-2-8 8v-22h22v12h1v-13zm6 3a3 3 0 0 0 -3 3 3 3 0 0 0 3 3 3 3 0 0 0 3-3 3 3 0 0 0 -3-3zm14.398438 9-5.111329 5.111328-3.287109 3.28711v3.601562h3.601562l8.398438-8.398438zm-2.048829 3.490234 2.160157 2.160157-3.173828 3.175781v-.675781l-1.013672.021484h-1.035157v-1.035156-.585938l1.441407-1.439453zm-4.076171 4.074219v1.621094h1.035156.992187l.021485.652344-1.080078 1.082031h-1.441407l-.720703-.720703v-1.441407z" fill="#232629"/></svg>