<svg xmlns="http://www.w3.org/2000/svg" viewBox="0 0 32 32">
 <path 
     style="fill:#4d4d4d" 
     d="M 6 4 L 6 24 L 4 24 L 4 25 L 6 25 L 6 27 L 7 27 L 7 25 L 28 25 L 28 24 L 24 24 L 24 17 L 19 17 L 19 24 L 15 24 L 15 4 L 10 4 L 10 24 L 7 24 L 7 4 L 6 4 z "
     />
 <path 
     style="fill:#f47750" 
     d="M 19 26 C 18.44771 26 18 26.4477 18 27 C 18 27.5523 18.44771 28 19 28 C 19.55228 28 20 27.5523 20 27 C 20 26.4477 19.55228 26 19 26 z M 23 26 C 22.44772 26 22 26.4477 22 27 C 22 27.5523 22.44772 28 23 28 C 23.55228 28 24 27.5523 24 27 C 24 26.4477 23.55228 26 23 26 z M 27 26 C 26.44772 26 26 26.4477 26 27 C 26 27.5523 26.44772 28 27 28 C 27.55228 28 28 27.5523 28 27 C 28 26.4477 27.55228 26 27 26 z "
     />
</svg>
