<svg xmlns="http://www.w3.org/2000/svg" viewBox="0 0 32 32">
 <path 
     style="fill:#4d4d4d" 
     d="M 8 6 L 8 10 L 3 10 L 3 11 L 8 11 L 8 15 L 14 15 L 14 14 L 9 14 L 9 7 L 14 7 L 14 6 L 8 6 z M 18 6 L 18 7 L 23 7 L 23 14 L 18 14 L 18 15 L 24 15 L 24 11 L 29 11 L 29 10 L 24 10 L 24 6 L 18 6 z M 14 10 L 14 11 L 18 11 L 18 10 L 14 10 z "
     />
 <path 
     style="fill:#1d99f3" 
     d="M 23 19 L 23 23 L 19 23 L 19 24 L 23 24 L 23 28 L 24 28 L 24 24 L 28 24 L 28 23 L 24 23 L 24 19 L 23 19 z "
     />
</svg>
