<svg viewBox="0 0 32 32" xmlns="http://www.w3.org/2000/svg"><path d="m4 4v15h1v-6h2v6h1v-6h3v6h1v-6h3v6h1v-6h3v5h1v-5h3v5h1v-5h3v5h1v-14zm1 1h2v7h-2zm3 0h3v7h-3zm4 0h3v7h-3zm4 0h3v7h-3zm4 0h3v7h-3zm4 0h3v7h-3zm-1 14v4h-4v1h4v4h1v-4h4v-1h-4v-4z" fill="#4d4d4d"/><path d="m4 19v3.732422 1.535156 2.732422 1h14v-1h-.341797l.341797-.398438v-1.537109c-.552451.645985-1.106129 1.290916-1.660156 1.935547h-2.681641c1.447663-1.68781 2.894692-3.376164 4.341797-5.064453v-1.537109c-2.014197 2.351185-3.893519 4.541893-5.660156 6.601562h-2.6816409c2.2151959-2.586549 3.9942489-4.655073 5.9999999-7h2.341797v-1h-3zm1 1h1.3417969l-1.3417969 1.566406zm2.6582031 0h2.6835939l-5.341797 6.232422v-3.13086c.8861573-1.033777 1.7725967-2.067313 2.6582031-3.101562zm3.9999999 0h2.683594c-2.133072 2.488568-4.134131 4.82291-6.0019532 7h-2.6816407c1.9999201-2.333402 4.0006608-4.666101 5.9999999-7z" fill="#1d99f3"/></svg>