<svg xmlns="http://www.w3.org/2000/svg" viewBox="0 0 32 32">
 <path 
     style="fill:#f47750" 
     d="M 19 26 C 18.44772 26 18 26.44772 18 27 C 18 27.55228 18.44772 28 19 28 C 19.55228 28 20 27.55228 20 27 C 20 26.44772 19.55228 26 19 26 z M 23 26 C 22.44772 26 22 26.44772 22 27 C 22 27.55228 22.44772 28 23 28 C 23.55228 28 24 27.55228 24 27 C 24 26.44772 23.55228 26 23 26 z M 27 26 C 26.44771 26 26 26.44772 26 27 C 26 27.55228 26.44771 28 27 28 C 27.55229 28 28 27.55228 28 27 C 28 26.44772 27.55229 26 27 26 z "
     />
 <path 
     style="fill:#4d4d4d" 
     d="M 8 6 L 8 10 L 3 10 L 3 11 L 8 11 L 8 15 L 14 15 L 14 14 L 9 14 L 9 7 L 14 7 L 14 6 L 8 6 z M 18 6 L 18 7 L 23 7 L 23 14 L 18 14 L 18 15 L 24 15 L 24 11 L 29 11 L 29 10 L 24 10 L 24 6 L 18 6 z M 14 10 L 14 11 L 18 11 L 18 10 L 14 10 z "
     />
</svg>
