<svg xmlns="http://www.w3.org/2000/svg" viewBox="0 0 32 32">
 <path 
     style="fill:#4d4d4d" 
     d="M 15 4 L 15 6.0507812 A 10 10 0 0 0 9.6757812 8.2617188 L 8.2226562 6.8066406 L 6.8066406 8.2226562 L 8.2617188 9.6757812 A 10 10 0 0 0 6.0605469 15 L 4 15 L 4 17 L 6.0507812 17 A 10 10 0 0 0 8.2617188 22.324219 L 6.8066406 23.777344 L 8.2226562 25.191406 L 9.6757812 23.738281 A 10 10 0 0 0 15 25.939453 L 15 28 L 17 28 L 17 25.949219 A 10 10 0 0 0 19 25.53125 L 19 24.474609 A 9 9 0 0 1 16 25 A 9 9 0 0 1 9.5429688 22.269531 A 9 9 0 0 1 7 16 A 9 9 0 0 1 9.7304688 9.5429688 A 9 9 0 0 1 16 7 A 9 9 0 0 1 22.457031 9.7304688 A 9 9 0 0 1 25 16 A 9 9 0 0 1 24.042969 20 L 25.136719 20 A 10 10 0 0 0 25.939453 17 L 28 17 L 28 15 L 25.949219 15 A 10 10 0 0 0 23.738281 9.6757812 L 25.193359 8.2226562 L 23.777344 6.8066406 L 22.324219 8.2617188 A 10 10 0 0 0 17 6.0605469 L 17 4 L 15 4 z M 13 11.5 L 13 20.5 L 20 16 L 13 11.5 z "
     />
 <path 
     style="fill:#f47750" 
     d="M 20 21 L 20 22 L 28 22 L 28 21 L 20 21 z M 20 24 L 20 25 L 28 25 L 28 24 L 20 24 z M 20 27 L 20 28 L 28 28 L 28 27 L 20 27 z "
     />
</svg>
