<svg xmlns="http://www.w3.org/2000/svg" viewBox="0 0 32 32">
 <path 
     style="fill:#4d4d4d" 
     d="M 9 5 A 5 5 0 0 0 4 10 L 4 22 A 5 5 0 0 0 9 27 A 5 5 0 0 0 14 22 L 14 10 A 5 5 0 0 0 9 5 z M 23 5 A 5 5 0 0 0 18 10 L 18 22 A 5 5 0 0 0 23 27 A 5 5 0 0 0 28 22 L 28 10 A 5 5 0 0 0 23 5 z M 9 6 A 4 4 0 0 1 13 10 L 13 22 A 4 4 0 0 1 9 26 A 4 4 0 0 1 5 22 L 5 10 A 4 4 0 0 1 9 6 z M 23 6 A 4 4 0 0 1 27 10 L 27 22 A 4 4 0 0 1 23 26 A 4 4 0 0 1 19 22 L 19 10 A 4 4 0 0 1 23 6 z M 15 26 L 15 28 L 17 28 L 17 26 L 15 26 z "
     />
</svg>
