<?xml version="1.0" encoding="UTF-8" standalone="no"?>
<svg
   xmlns:dc="http://purl.org/dc/elements/1.1/"
   xmlns:cc="http://creativecommons.org/ns#"
   xmlns:rdf="http://www.w3.org/1999/02/22-rdf-syntax-ns#"
   xmlns:svg="http://www.w3.org/2000/svg"
   xmlns="http://www.w3.org/2000/svg"
   xmlns:sodipodi="http://sodipodi.sourceforge.net/DTD/sodipodi-0.dtd"
   xmlns:inkscape="http://www.inkscape.org/namespaces/inkscape"
   width="32"
   height="32"
   viewBox="0 0 32 32"
   id="svg2"
   version="1.1"
   inkscape:version="0.91 r13725"
   sodipodi:docname="pagesetup.svg">
  <metadata
     id="metadata18">
    <rdf:RDF>
      <cc:Work
         rdf:about="">
        <dc:format>image/svg+xml</dc:format>
        <dc:type
           rdf:resource="http://purl.org/dc/dcmitype/StillImage" />
        <dc:title></dc:title>
      </cc:Work>
    </rdf:RDF>
  </metadata>
  <defs
     id="defs16" />
  <sodipodi:namedview
     pagecolor="#ffffff"
     bordercolor="#666666"
     borderopacity="1"
     objecttolerance="10"
     gridtolerance="10"
     guidetolerance="10"
     inkscape:pageopacity="0"
     inkscape:pageshadow="2"
     inkscape:window-width="1883"
     inkscape:window-height="1051"
     id="namedview14"
     showgrid="true"
     inkscape:snap-bbox="true"
     inkscape:object-nodes="true"
     inkscape:zoom="29.5"
     inkscape:cx="17.405816"
     inkscape:cy="16.772237"
     inkscape:window-x="33"
     inkscape:window-y="0"
     inkscape:window-maximized="1"
     inkscape:current-layer="svg2">
    <inkscape:grid
       type="xygrid"
       id="grid4146" />
  </sodipodi:namedview>
  <path
     style="fill:#4d4d4d"
     inkscape:connector-curvature="0"
     id="path6"
     d="m 4,6 24,0 0,20 -1,-1 0,-18 -22,0 0,11 7,0 0,7 15,0 1,1 -17,0 -7,-7 0,-1 z"
     sodipodi:nodetypes="ccccccccccccccc" />
  <path
     style="color:#000000;clip-rule:nonzero;display:inline;overflow:visible;visibility:visible;opacity:1;isolation:auto;mix-blend-mode:normal;color-interpolation:sRGB;color-interpolation-filters:linearRGB;solid-color:#000000;solid-opacity:1;fill:#4d4d4d;fill-opacity:1;fill-rule:evenodd;stroke:none;stroke-width:2;stroke-linecap:square;stroke-linejoin:miter;stroke-miterlimit:4;stroke-dasharray:none;stroke-dashoffset:0;stroke-opacity:0.4848485;color-rendering:auto;image-rendering:auto;shape-rendering:auto;text-rendering:auto;enable-background:accumulate"
     d="m 14.5,8 c 1.187878,1.286e-4 2.211643,0.8361219 2.449219,2 L 24,10 l 0,1 -7.054688,0 C 16.708031,12.162442 15.68641,12.998017 14.5,13 13.312122,12.999871 12.288357,12.163878 12.050781,11 L 8,11 8,10 12.054688,10 C 12.291969,8.8375583 13.31359,8.0019829 14.5,8 Z m 6,6 c 1.18641,0.002 2.208031,0.837558 2.445312,2 L 24,16 l 0,1 -1.050781,0 c -0.237576,1.163878 -1.261341,1.999871 -2.449219,2 -1.18641,-0.002 -2.208031,-0.837558 -2.445312,-2 L 8,17 8,16 18.050781,16 C 18.288357,14.836122 19.312122,14.000129 20.5,14 Z m 0,1 c -0.634902,8.91e-4 -1.200475,0.401408 -1.412109,1 -0.03375,0.09435 -0.05796,0.19184 -0.07227,0.291016 l -0.002,0.01563 c -0.0059,0.04407 -0.0098,0.08839 -0.01172,0.132812 -0.001,0.02017 -0.0017,0.04035 -0.0019,0.06054 8e-5,0.05023 0.0027,0.100423 0.0078,0.150391 0.01262,0.119321 0.03951,0.236697 0.08009,0.349611 0.211634,0.598592 0.777207,0.999109 1.412109,1 0.634902,-8.91e-4 1.200475,-0.401408 1.412109,-1 0.05749,-0.160462 0.08722,-0.32955 0.08789,-0.5 -6.75e-4,-0.17045 -0.0304,-0.339538 -0.08789,-0.5 C 21.700475,15.401408 21.134902,15.000891 20.5,15 Z"
     id="rect4211"
     inkscape:connector-curvature="0"
     sodipodi:nodetypes="ccccccccccccccccccccccccccccccccccc" />
</svg>
