<svg xmlns="http://www.w3.org/2000/svg" viewBox="0 0 32 32">
 <path 
     style="fill:#4d4d4d" 
     d="M 7 4 L 7 12 L 4 12 L 4 24 L 10 24 L 10 28 L 22 28 L 22 27 L 22 24 L 25 24 L 25 23 L 23 23 L 23 19 L 9 19 L 9 23 L 5 23 L 5 13 L 27 13 L 27 17 L 28 17 L 28 12 L 25 12 L 25 4 L 7 4 z M 8 5 L 24 5 L 24 12 L 8 12 L 8 5 z M 10 7 L 10 8 L 22 8 L 22 7 L 10 7 z M 10 10 L 10 11 L 22 11 L 22 10 L 10 10 z M 22 15 L 22 16 L 26 16 L 26 15 L 22 15 z M 11 24 L 21 24 L 21 27 L 11 27 L 11 24 z "
     />
 <path 
     style="fill:#f47750" 
     d="M 27 18 C 26.4477 18 26 18.44772 26 19 C 26 19.55228 26.4477 20 27 20 C 27.5523 20 28 19.55228 28 19 C 28 18.44772 27.5523 18 27 18 z M 27 22 C 26.4477 22 26 22.44772 26 23 C 26 23.55228 26.4477 24 27 24 C 27.5523 24 28 23.55228 28 23 C 28 22.44772 27.5523 22 27 22 z M 27 26 C 26.4477 26 26 26.44772 26 27 C 26 27.55228 26.4477 28 27 28 C 27.5523 28 28 27.55228 28 27 C 28 26.44772 27.5523 26 27 26 z "
     />
</svg>
