<svg xmlns="http://www.w3.org/2000/svg" viewBox="0 0 32 32">
 <path 
     style="fill:#1d99f3" 
     d="M 4.7070312 16 L 4 16.707031 L 9.2929688 22 L 4 27.292969 L 4.7070312 28 L 10 22.707031 L 10.707031 22 L 10 21.292969 L 4.7070312 16 z M 11 27 L 11 28 L 18 28 L 18 27 L 11 27 z "
     />
 <path 
     style="fill:#4d4d4d" 
     d="M 16 4 A 12 3 0 0 0 4 7 L 4 13 L 4 15 L 5 15 L 5 14.195312 A 12 3 0 0 0 16 16 A 12 3 0 0 0 27 14.191406 L 27 19 A 11 2 0 0 1 16 21 A 11 2 0 0 1 12 20.861328 L 12 21.826172 A 12 3 0 0 0 16 22 A 12 3 0 0 0 27 20.191406 L 27 25 A 11 2 0 0 1 19 26.923828 L 19 27.900391 A 12 3 0 0 0 28 25 L 28 7 A 12 3 0 0 0 16 4 z M 16 5 A 11 2 0 0 1 27 7 A 11 2 0 0 1 16 9 A 11 2 0 0 1 5 7 A 11 2 0 0 1 16 5 z M 27 8.1914062 L 27 13 A 11 2 0 0 1 16 15 A 11 2 0 0 1 5 13 L 5 8.1953125 A 12 3 0 0 0 16 10 A 12 3 0 0 0 27 8.1914062 z "
     />
</svg>
