<svg xmlns="http://www.w3.org/2000/svg" viewBox="0 0 32 32">
 <path 
     style="fill:#4d4d4d" 
     d="M 6 4 L 6 28 L 18 28 L 19 28 L 26 21 L 26 4 L 6 4 z M 7 5 L 25 5 L 25 20 L 18 20 L 18 27 L 7 27 L 7 5 z M 18.5 8 A 2.5 2.5 0 0 0 16.050781 10 L 9 10 L 9 11 L 16.054688 11 A 2.5 2.5 0 0 0 18.5 13 A 2.5 2.5 0 0 0 20.949219 11 L 23 11 L 23 10 L 20.945312 10 A 2.5 2.5 0 0 0 18.5 8 z M 12.5 14 A 2.5 2.5 0 0 0 10.054688 16 L 9 16 L 9 17 L 10.050781 17 A 2.5 2.5 0 0 0 12.5 19 A 2.5 2.5 0 0 0 14.945312 17 L 23 17 L 23 16 L 14.949219 16 A 2.5 2.5 0 0 0 12.5 14 z M 12.455078 15 A 1.5 1.5 0 0 1 12.5 15 A 1.5 1.5 0 0 1 13.912109 16 A 1.5 1.5 0 0 1 13.984375 16.291016 A 1.5 1.5 0 0 1 13.986328 16.306641 A 1.5 1.5 0 0 1 13.998047 16.439453 A 1.5 1.5 0 0 1 14 16.5 A 1.5 1.5 0 0 1 13.992188 16.650391 A 1.5 1.5 0 0 1 13.912109 17 A 1.5 1.5 0 0 1 12.5 18 A 1.5 1.5 0 0 1 11.087891 17 A 1.5 1.5 0 0 1 11 16.5 A 1.5 1.5 0 0 1 11.087891 16 A 1.5 1.5 0 0 1 12.455078 15 z "
     />
</svg>
