<svg xmlns="http://www.w3.org/2000/svg" viewBox="0 0 32 32">
 <path 
     style="fill:#4d4d4d" 
     d="M 8.1757812 4 L 8.2246094 4.9003906 L 12.482422 4.9003906 L 8 11.191406 L 8 12 L 14 12 L 13.966797 11.0625 L 9.5253906 11.0625 L 13.925781 4.8613281 L 13.925781 4 L 8.1757812 4 z M 20.5 14 L 20.5 26.085938 L 16.707031 22.292969 L 16 23 L 20 27 L 21 28 L 22 27 L 26 23 L 25.292969 22.292969 L 21.5 26.085938 L 21.5 14 L 20.5 14 z "
     />
 <path 
     style="fill:#1d99f3" 
     d="M 11.091797 14 C 10.05891 14 9.1270851 14.191191 8.2988281 14.574219 L 8.6289062 15.460938 C 8.9845695 15.291244 9.3886904 15.160482 9.8417969 15.068359 C 10.294903 14.971389 10.718643 14.923828 11.113281 14.923828 C 11.697934 14.923828 12.124614 15.06153 12.392578 15.337891 C 12.66542 15.614258 12.800781 16.033278 12.800781 16.595703 L 12.800781 17.353516 L 11.566406 17.353516 C 10.324017 17.353516 9.4176932 17.548682 8.8476562 17.941406 C 8.2824912 18.329289 8 18.941453 8 19.775391 C 8 20.473572 8.2138308 21.017425 8.6425781 21.410156 C 9.0761906 21.802881 9.6499949 22 10.361328 22 C 11.423446 22 12.284657 21.594853 12.947266 20.785156 L 13.080078 21.847656 L 14 21.847656 L 14 16.771484 C 14 15.792087 13.746938 15.085814 13.240234 14.654297 C 12.73841 14.217939 12.022369 14 11.091797 14 z M 11.873047 18.152344 L 12.800781 18.152344 L 12.800781 19.847656 C 12.221001 20.696145 11.432378 21.119141 10.433594 21.119141 C 10.068187 21.119141 9.7631359 21.004211 9.5195312 20.771484 C 9.2759266 20.538757 9.1542969 20.207919 9.1542969 19.78125 C 9.1542969 19.543675 9.1768634 19.345544 9.2207031 19.185547 C 9.2645495 19.020695 9.344007 18.870131 9.4609375 18.734375 C 9.577868 18.59377 9.7387294 18.485781 9.9433594 18.408203 C 10.147989 18.32577 10.409874 18.262377 10.726562 18.21875 C 11.043244 18.175123 11.424812 18.152344 11.873047 18.152344 z "
     />
</svg>
