<?xml version="1.0" encoding="UTF-8" standalone="no"?>
<!-- Created with Inkscape (http://www.inkscape.org/) -->

<svg
   xmlns:dc="http://purl.org/dc/elements/1.1/"
   xmlns:cc="http://creativecommons.org/ns#"
   xmlns:rdf="http://www.w3.org/1999/02/22-rdf-syntax-ns#"
   xmlns:svg="http://www.w3.org/2000/svg"
   xmlns="http://www.w3.org/2000/svg"
   xmlns:sodipodi="http://sodipodi.sourceforge.net/DTD/sodipodi-0.dtd"
   xmlns:inkscape="http://www.inkscape.org/namespaces/inkscape"
   width="32"
   height="32"
   id="svg5453"
   version="1.1"
   inkscape:version="0.91 r13725"
   sodipodi:docname="symbolshapes.left-brace.svg"
   viewBox="0 0 32 32">
  <defs
     id="defs5455" />
  <sodipodi:namedview
     id="base"
     pagecolor="#ffffff"
     bordercolor="#666666"
     borderopacity="1.0"
     inkscape:pageopacity="0"
     inkscape:pageshadow="2"
     inkscape:zoom="16"
     inkscape:cx="12.027264"
     inkscape:cy="8.9898536"
     inkscape:document-units="px"
     inkscape:current-layer="layer1"
     showgrid="true"
     fit-margin-top="0"
     fit-margin-left="0"
     fit-margin-right="0"
     fit-margin-bottom="0"
     inkscape:window-width="1920"
     inkscape:window-height="1021"
     inkscape:window-x="-4"
     inkscape:window-y="0"
     inkscape:window-maximized="1"
     inkscape:showpageshadow="false"
     borderlayer="true"
     showguides="true"
     inkscape:guide-bbox="true"
     inkscape:object-nodes="true"
     inkscape:snap-bbox="true"
     inkscape:snap-global="true">
    <inkscape:grid
       type="xygrid"
       id="grid4063" />
    <sodipodi:guide
       position="4,24"
       orientation="28,0"
       id="guide4280" />
    <sodipodi:guide
       position="13,4"
       orientation="0,28"
       id="guide4282" />
    <sodipodi:guide
       position="28,25"
       orientation="-28,0"
       id="guide4284" />
    <sodipodi:guide
       position="15,28"
       orientation="0,-28"
       id="guide4286" />
  </sodipodi:namedview>
  <metadata
     id="metadata5458">
    <rdf:RDF>
      <cc:Work
         rdf:about="">
        <dc:format>image/svg+xml</dc:format>
        <dc:type
           rdf:resource="http://purl.org/dc/dcmitype/StillImage" />
        <dc:title></dc:title>
      </cc:Work>
    </rdf:RDF>
  </metadata>
  <g
     inkscape:label="Capa 1"
     inkscape:groupmode="layer"
     id="layer1"
     transform="translate(-384.57143,-515.798)">
    <path
       style="font-style:normal;font-variant:normal;font-weight:normal;font-stretch:normal;font-size:medium;line-height:125%;font-family:oxygen;-inkscape-font-specification:oxygen;letter-spacing:0px;word-spacing:0px;fill:#4d4d4d;fill-opacity:1;stroke:none"
       d="M 15.044922 4 C 13.268092 4 12.523436 4.7063656 12.523438 6.5097656 L 12.523438 8.9511719 C 12.523438 8.9672546 12.521501 8.983848 12.521484 9 L 12.523438 9 L 12.523438 12.951172 C 12.523438 14.064972 12.48924 15.355469 11.507812 15.355469 L 11 15.355469 L 11 16.644531 L 11.507812 16.644531 C 12.489294 16.644531 12.523436 17.935028 12.523438 19.048828 L 12.523438 23 L 12.521484 23 C 12.521501 23.016152 12.523436 23.032745 12.523438 23.048828 L 12.523438 25.490234 C 12.523438 27.293634 13.268092 28 15.044922 28 L 15.044922 26.816406 C 13.860372 26.816406 13.84375 26.338069 13.84375 24.605469 L 13.84375 23 L 13.851562 23 C 13.850363 22.86168 13.84375 20.764264 13.84375 20.605469 L 13.84375 18.589844 C 13.84375 17.758944 13.639045 16.522466 12.640625 16.009766 C 13.639045 15.497066 13.84375 14.258734 13.84375 13.427734 L 13.84375 11.394531 C 13.84375 11.235736 13.850364 9.138321 13.851562 9 L 13.84375 9 L 13.84375 7.3945312 C 13.84375 5.6619312 13.860352 5.1835938 15.044922 5.1835938 L 15.044922 4 z "
       transform="translate(384.57143,515.798)"
       id="path4121" />
  </g>
</svg>
