<svg xmlns="http://www.w3.org/2000/svg" viewBox="0 0 32 32">
 <path 
     style="fill:#4d4d4d" 
     d="M 16 4 C 14.342719 4 12.484375 7.515625 12.484375 7.515625 C 12.484375 7.515625 8.6867705 6.3444795 7.515625 7.515625 C 6.3444795 8.6867705 7.515625 12.484375 7.515625 12.484375 C 7.515625 12.484375 4 14.342719 4 16 C 4 17.657281 7.515625 19.515625 7.515625 19.515625 C 7.515625 19.515625 6.3444795 23.313229 7.515625 24.484375 C 8.6867705 25.655521 12.484375 24.484375 12.484375 24.484375 C 12.484375 24.484375 14.342719 28 16 28 C 17.657281 28 19.515625 24.484375 19.515625 24.484375 C 19.515625 24.484375 23.313229 25.655521 24.484375 24.484375 C 25.655521 23.313229 24.484375 19.515625 24.484375 19.515625 C 24.484375 19.515625 28 17.657281 28 16 C 28 14.342719 24.484375 12.484375 24.484375 12.484375 C 24.484375 12.484375 25.655521 8.6867705 24.484375 7.515625 C 23.313229 6.3444795 19.515625 7.515625 19.515625 7.515625 C 19.515625 7.515625 17.657281 4 16 4 z M 16 10 C 19.313709 10 22 12.686291 22 16 C 22 19.313709 19.313709 22 16 22 C 12.686291 22 10 19.313709 10 16 C 10 12.686291 12.686291 10 16 10 z "
     />
</svg>
