<svg xmlns="http://www.w3.org/2000/svg" viewBox="0 0 32 32">
 <path 
     style="fill:#4d4d4d" 
     d="M 4 4 L 4 5 L 28 5 L 28 4 L 4 4 z M 10.998047 8.5 L 10 9.5 L 6 13.5 L 6.7050781 14.207031 L 10.498047 10.414062 L 10.498047 21.5 L 11.498047 21.5 L 11.498047 10.414062 L 15.291016 14.207031 L 15.998047 13.5 L 11.998047 9.5 L 11 8.5 L 10.998047 8.5 z M 20.498047 10.5 L 20.498047 21.585938 L 16.707031 17.792969 L 16 18.5 L 20 22.5 L 21 23.5 L 21.998047 22.5 L 25.998047 18.5 L 25.292969 17.792969 L 21.498047 21.585938 L 21.498047 10.5 L 20.498047 10.5 z M 4 27 L 4 28 L 17 28 L 17 27 L 4 27 z "
     />
 <path 
     style="fill:#f47750" 
     d="M 19 26 C 18.4477 26 18 26.44772 18 27 C 18 27.55228 18.4477 28 19 28 C 19.5523 28 20 27.55228 20 27 C 20 26.44772 19.5523 26 19 26 z M 23 26 C 22.4477 26 22 26.44772 22 27 C 22 27.55228 22.4477 28 23 28 C 23.5523 28 24 27.55228 24 27 C 24 26.44772 23.5523 26 23 26 z M 27 26 C 26.4477 26 26 26.44772 26 27 C 26 27.55228 26.4477 28 27 28 C 27.5523 28 28 27.55228 28 27 C 28 26.44772 27.5523 26 27 26 z "
     />
</svg>
