<svg xmlns="http://www.w3.org/2000/svg" viewBox="0 0 32 32">
 <path
     style="fill:#4d4d4d"
     d="M 6 4 L 6 28 L 26 28 L 26 12 L 26 11 L 19 4 L 18 4 L 6 4 z M 7 5 L 18 5 L 18 12 L 25 12 L 25 27 L 7 27 L 7 5 z M 13 17 L 13 18 L 22 18 L 22 17 L 13 17 z M 10 20 L 10 21 L 18 21 L 18 20 L 10 20 z M 13 23 L 13 24 L 22 24 L 22 23 L 13 23 z "
     />
 <path
     style="fill:#da4453"
     d="M 10 14 L 10 15 L 17 15 L 17 14 L 10 14 z M 10 17 L 10 18 L 12 18 L 12 17 L 10 17 z M 19 20 L 19 21 L 22 21 L 22 20 L 19 20 z M 10 23 L 10 24 L 12 24 L 12 23 L 10 23 z "
     />
</svg>
