<svg viewBox="0 0 16 16" xmlns="http://www.w3.org/2000/svg"><g fill="#efefef"><path d="m7 5.000193v7.58594l-1.29297-1.292971c-.1875-.18755-.44183-.29293-.70703-.29297-.2652.00004-.51953.10542-.70703.29297-.39042.390511-.39042 1.023551 0 1.414061l3 3c.39053.390369 1.02353.390369 1.41406 0l3-3c.39042-.39051.39042-1.02355 0-1.41406-.39051-.390421-1.02355-.390421-1.41406 0l-1.29297 1.29297v-7.58594z"/><path d="m3 0c-1.6446964 0-3 1.3553032-3 3v4c0 1.644696 1.3553032 3 3 3h2c.5522788 0 1-.447722 1-1s-.4477212-1-1-1h-2c-.5712988 0-1-.428702-1-1v-2c0-.5539988.4460016-1 1-1h10c.553998 0 1 .4460012 1 1v2c0 .571298-.428702 1-1 1h-2c-.552278 0-1 .447722-1 1s.447722 1 1 1h2c1.644696 0 3-1.355304 3-3v-4c0-1.6446968-1.355304-3-3-3z"/></g></svg>