<svg height="15" viewBox="0 0 15 15" width="15" xmlns="http://www.w3.org/2000/svg" xmlns:xlink="http://www.w3.org/1999/xlink"><linearGradient id="a" gradientUnits="userSpaceOnUse" x1="7.5" x2="7.5" y1="15" y2="1.5"><stop offset="0" stop-color="#fff"/><stop offset="1" stop-color="#fff" stop-opacity="0"/></linearGradient><path d="m14.482169 8a6.9540726 6.4821687 0 0 1 -6.9540729 6.482169 6.9540726 6.4821687 0 0 1 -6.95407256-6.482169 6.9540726 6.4821687 0 0 1 6.95407256-6.4821687 6.9540726 6.4821687 0 0 1 6.9540729 6.4821687z" fill="none" opacity=".25" stroke="url(#a)"/><path d="m13.5 7.5a6 6 0 0 1 -6 6 6 6 0 0 1 -6-6 6 6 0 0 1 6-6 6 6 0 0 1 6 6z" opacity=".05"/><path d="m13.5 7.5a6 6 0 0 1 -6 6 6 6 0 0 1 -6-6 6 6 0 0 1 6-6 6 6 0 0 1 6 6z" fill="none" opacity=".25" stroke="#000"/><circle cx="7.5" cy="7.5" fill="none" opacity=".05" r="5" stroke="#000"/><path d="m11.195312 3.5-4.6874995 5.9140625a.14703868.14703868 0 0 1 -.2109375.0195313l-2.9433594-2.5527344c-.5161017.6904599-1.0307177 1.3825284-1.5410156 2.0761718l5.0253906 4.3085938 5.9960934-7.9648438.191407-.296875z" fill="#7a8186"/><path d="m11.195312 3-4.6874995 5.9140625a.14703868.14703868 0 0 1 -.2109375.0195313l-2.9433594-2.5527344c-.5161017.6904599-1.0307177 1.3825284-1.5410156 2.0761718l5.0253906 4.3085938 5.9960934-7.9648438.191407-.296875z" fill="#fff"/></svg>