<svg viewBox="0 0 16 16" xmlns="http://www.w3.org/2000/svg"><path d="m1 6c-.554 0-1 .446-1 1v8c0 .554.446 1 1 1h4.9140625.421875l-.042969-.04297c-.2496703-.250664-.3484338-.61453-.2597654-.95703h-.3828125-4.6503906v-8h5.3359375l.060547-.060547c-.1283102-.3027556-.2264416-.6174303-.2929689-.939453-1.7011719 0-3.4023437 0-5.1035156 0zm10 8.164062-1.8359375 1.835938h.8359375c.554 0 1-.446 1-1z" fill="#83beec"/><path d="m11 0a5 5 0 0 0 -5 5 5 5 0 0 0 .7558594 2.6367188l1.4375-1.3632813c.1828347-.1729234.4241411-.2705619.6757812-.2734375.2702129-.0030983.5301792.1032836.7207032.2949219l1.9160152 1.9277343 1.873047-1.9199218c.381866-.3915887 1.007476-.4037702 1.404297-.0273438l.785156.7480469a5 5 0 0 0 .431641-2.0234375 5 5 0 0 0 -5-5z" fill="#fb983b"/><path d="m11 0a5 5 0 0 0 -5 5 5 5 0 0 0 .3964844 1.9394531l.6464844-.6464843a1.0007407 1.0007407 0 0 1 .6914062-.2929688 1.0007407 1.0007407 0 0 1 .7226562.2929688l3.0429688 3.0429687 3.042969-3.0429687a1.0007407 1.0007407 0 0 1 1.304687-.0917969 5 5 0 0 0 .152344-1.2011719 5 5 0 0 0 -5-5z" fill="#f8db8f"/><path d="m11 1a4 4 0 0 0 -4 4 4 4 0 0 0 .1816406 1.1777344 1.0007407 1.0007407 0 0 1 .5527344-.1777344 1.0007407 1.0007407 0 0 1 .7226562.2929688l2.7011718 2.7011718a4 4 0 0 0 .798828-.1152344l2.585938-2.5859374a1.0007407 1.0007407 0 0 1 .302734-.2070313 4 4 0 0 0 .154297-1.0859375 4 4 0 0 0 -4-4z" fill="#ed8733"/><path d="m15.25 7.0000002-3.75 3.7499998-3.75-3.7499998-.75.75 3.75 3.7499998-3.75 3.75.75.75 3.75-3.75 3.75 3.75.75-.75-3.75-3.75 3.75-3.7499998z" fill="#ed3d3b"/></svg>