<svg height="42" viewBox="0 0 42 42" width="42" xmlns="http://www.w3.org/2000/svg"><path d="m42 38v-38h-38v34c0 2.216 1.603106 4 3.59375 4z" fill="#3a3a38"/><g stroke-width=".264583" transform="matrix(3.7795275 0 0 3.7795275 7.000001 -1087.5196)"><path d="m.79375 289.32707v6.87917h6.8791667v-6.87917zm.2645833.26458h6.35v6.35h-6.35z" fill="#fafafa"/><g stroke-width=".264583"><path d="m2.8757934 290.42034a.79374998.79374998 0 0 1 .00103.004c-.00127-.00038-.00236-.001-.00362-.002.021779.0725.037208.14783.037208.22738 0 .0521-.0059.1031-.015502.15245a.79374998.79374998 0 0 1 -.0005292.005.79374998.79374998 0 0 1 -.00362.014c-.010472.0475-.024344.0936-.042891.13746-.018841.0445-.041911.0866-.068213.1266a.79374998.79374998 0 0 1 -.00672.0109.79374998.79374998 0 0 1 -.00103.002c-.026635.0389-.05694.075-.089908.10853a.79374998.79374998 0 0 1 -.0062.007c-.031704.0315-.066726.0595-.1033528.0853a.79374998.79374998 0 0 1 -.019637.014c-.037486.0247-.077292.0459-.1188558.0641a.79374998.79374998 0 0 1 -.013952.006c-.041713.0173-.085282.0308-.1302246.0408a.79374998.79374998 0 0 1 -.021704.005c-.049021.009-.099625.015-.1514115.015-.079552 0-.1549187-.0154-.2273763-.0372.000381.001.00116.002.00155.004a.79374998.79374998 0 0 1 -.00413-.001.79374998.79374998 0 0 0 .1669149.29714 1.0583332 1.0583332 0 0 0 .00465 0c.1442378.16281.3524811.26665.5875609.26665.4383759 0 .79375-.35538.79375-.79375 0-.23535-.1040379-.44383-.2671673-.58808a1.0583332 1.0583332 0 0 0 -.0005291-.006.79374998.79374998 0 0 0 -.2961058-.16536zm.2511473.54105c.030266.0666.048059.14012.048059.21808 0 .29225-.2369162.52916-.5291667.52916-.077269 0-.1503476-.0173-.2165243-.047a1.0583332 1.0583332 0 0 0 .1100708-.0419c.013748-.006.026879-.0131.040308-.0196a1.0583332 1.0583332 0 0 0 .064595-.0336c.014897-.009.029505-.0176.043925-.0269a1.0583332 1.0583332 0 0 0 .056844-.0398c.012568-.009.025082-.0186.037207-.0284a1.0583332 1.0583332 0 0 0 .074931-.0662 1.0583332 1.0583332 0 0 0 .00775-.007c.0005027-.00053.00103-.001.00156-.002a1.0583332 1.0583332 0 0 0 .1550294-.19947 1.0583332 1.0583332 0 0 0 .05581-.10646c.00228-.005.00451-.01.00672-.015a1.0583332 1.0583332 0 0 0 .042891-.11421z" fill="#f8db8f"/><path d="m3.1269407 290.96139c-.1025729.33433-.3636818.59641-.6976318.70022.066177.0298.1392555.047.2165243.047.2922505 0 .5291667-.23691.5291667-.52916 0-.078-.017793-.15144-.048059-.21808z" fill="#ed8733"/></g></g><g stroke-width="1.333333" transform="translate(7.000001 3.000001)"><path d="m21.5 15.5-6.5 6.5-6 6h19v-6zm-9 4-8.4277344 8.427734-.0722656.072266h3.5l6.75-6.75z" fill="#0063b1"/><path d="m21.5 14-6.5 6.5-2.5-2.5-8.5 8.5v1.25l.0722656.177734 8.4277344-8.427734 1.75 1.75-6.75 6.75h1.5l12.5-12.5 6.5 6.5v-1.5z" fill="#83beec"/></g></svg>