<svg height="16" width="16" xmlns="http://www.w3.org/2000/svg" xmlns:xlink="http://www.w3.org/1999/xlink"><radialGradient id="a" cx="8.5" cy="12" gradientUnits="userSpaceOnUse" r="7"><stop offset="0" stop-color="#26ff4d"/><stop offset="1" stop-color="#00d93c"/></radialGradient><filter id="b" color-interpolation-filters="sRGB" height="1.048" width="1.048" x="-.024" y="-.024"><feGaussianBlur stdDeviation=".14"/></filter><linearGradient id="c" gradientUnits="userSpaceOnUse" x1="7" x2="7" y1="-4" y2="8"><stop offset="0" stop-color="#fff"/><stop offset="1" stop-color="#fff" stop-opacity="0"/></linearGradient><filter id="d" color-interpolation-filters="sRGB" height="1.127772" width="1.076883" x="-.038441" y="-.063886"><feGaussianBlur stdDeviation=".20021484"/></filter><filter id="e" color-interpolation-filters="sRGB" height="1.07618" width="1.068255" x="-.034128" y="-.03809"><feGaussianBlur stdDeviation=".1706376"/></filter><circle cx="8" cy="8" fill="#005409" fill-opacity=".658824" r="8"/><circle cx="8" cy="8" fill="url(#a)" filter="url(#b)" r="7"/><path d="m12.25169 3.8600087 2.01342 1.81209-6.76511 8.9395903-5.2348901-4.51006 1.73154-2.2953102 3.0604001 2.6577202z" fill="#d8ffc7" filter="url(#e)"/><path d="m12.19464 2.8959699 2.01342 1.81209-6.76511 8.9395901-5.2348901-4.51006 1.73154-2.29531 3.0604001 2.65772z" fill="#206b00"/><path d="m8 1.65625a6.3439886 6.3439886 0 0 0 -6.34375 6.34375 6.3439886 6.3439886 0 0 0 .1132812 1.1777344 6.625 6.3125 0 0 1 6.6054688-5.9277344 6.625 6.3125 0 0 1 5.78125 3.2460938 6.3439886 6.3439886 0 0 0 -6.15625-4.8398438z" fill="url(#c)" filter="url(#d)"/></svg>