<svg height="16" width="16" xmlns="http://www.w3.org/2000/svg" xmlns:xlink="http://www.w3.org/1999/xlink"><linearGradient id="a" gradientUnits="userSpaceOnUse" x1="3" x2="3" y1="112" y2="120"><stop offset="0" stop-color="#bfbfbf"/><stop offset="1" stop-color="#666e76"/></linearGradient><linearGradient id="b" gradientUnits="userSpaceOnUse" x1="1.5" x2="1.5" y1="111.5" y2="118.5"><stop offset="0" stop-color="#fff"/><stop offset=".42597079" stop-color="#fff"/><stop offset=".5892781" stop-color="#f1f1f1"/><stop offset=".80219781" stop-color="#eaeaea"/><stop offset="1" stop-color="#dfdfdf"/></linearGradient><linearGradient id="c" gradientUnits="userSpaceOnUse" x1="0" x2="4" xlink:href="#d" y1="111.000003" y2="117.5"/><linearGradient id="d"><stop offset="0" stop-color="#fff"/><stop offset="1" stop-color="#fff" stop-opacity="0"/></linearGradient><linearGradient id="e" gradientUnits="userSpaceOnUse" x1="15.999999" x2="15.999999" y1="131.999998" y2="64"><stop offset="0" stop-color="#245795"/><stop offset="1" stop-color="#afd4ff"/></linearGradient><linearGradient id="f" gradientUnits="userSpaceOnUse" x1="24.000001" x2="24.000001" y1="107.999995" y2="72"><stop offset="0" stop-color="#9fbde2"/><stop offset="1" stop-color="#fff"/></linearGradient><linearGradient id="g" gradientUnits="userSpaceOnUse" x1="12" x2="16" xlink:href="#d" y1="40" y2="108"/><linearGradient id="h" gradientUnits="userSpaceOnUse" x1="16" x2="16" xlink:href="#d" y1="40" y2="108"/><g transform="matrix(.125 0 0 .125 8 0)"><rect fill="url(#e)" height="56" rx="6.363961" width="56" y="72"/><rect fill="url(#f)" height="40" rx="1.767767" width="40" x="8" y="80"/><path d="m9.7656248 80c-.483544.0042-.930524.19616-1.25.5156-.3195232.319552-.5156248.760352-.5156248 1.250024-.0000449.0052 0 .0104 0 .016v17.140626c2.839058-.57878 37.509942-1.60381 40-2.92225v-14.234376c0-.979344-.786282-1.765624-1.765625-1.765624z" fill="url(#h)"/></g><g transform="scale(.125)"><rect fill="url(#e)" height="56" rx="6.363961" width="56" y="72"/><rect fill="url(#f)" height="40" rx="1.767767" width="40" x="8" y="80"/><path d="m9.7656248 80c-.483544.0042-.930524.19616-1.25.5156-.3195232.319552-.5156248.760352-.5156248 1.250024-.0000449.0052 0 .0104 0 .016v17.140626c2.839058-.57878 37.509942-1.60381 40-2.92225v-14.234376c0-.979344-.786282-1.765624-1.765625-1.765624z" fill="url(#g)"/></g><g transform="translate(8 -112)"><rect fill="url(#a)" height="7" rx=".795495" width="7" y="113"/><rect fill="url(#b)" height="5" rx=".220971" width="5" x="1" y="114"/><path d="m1.2207031 114c-.1224145-.0009-.2207031.09829-.2207031.2207v2.11092c.3548823-.0723 4.6887427-.16682 5-.33162v-1.74569c0-.12241-.098289-.21979-.2207031-.2207z" fill="url(#c)"/></g><g transform="translate(0 -112)"><rect fill="url(#a)" height="7" rx=".795495" width="7" y="113"/><rect fill="url(#b)" height="5" rx=".220971" width="5" x="1" y="114"/><path d="m1.2207031 114c-.1224145-.0009-.2207031.09829-.2207031.2207v2.11092c.3548823-.0723 4.6887427-.16682 5-.33162v-1.74569c0-.12241-.098289-.21979-.2207031-.2207z" fill="url(#c)"/></g></svg>