<svg height="16" width="16" xmlns="http://www.w3.org/2000/svg" xmlns:xlink="http://www.w3.org/1999/xlink"><linearGradient id="a"><stop offset="0" stop-color="#ad5f00"/><stop offset="1" stop-color="#ad5f00" stop-opacity=".068063"/></linearGradient><linearGradient id="b"><stop offset="0" stop-color="#828282"/><stop offset="1" stop-color="#828282" stop-opacity="0"/></linearGradient><linearGradient id="c" gradientTransform="matrix(1.0769499 0 0 1.3043803 2.256411 -.351998)" gradientUnits="userSpaceOnUse" x1="46.048" x2="46.048" y1="128.01709" y2="16.6203"><stop offset="0" stop-color="#c7cdd7"/><stop offset="1" stop-color="#fff"/></linearGradient><linearGradient id="d" gradientTransform="matrix(1.07695 0 0 1.3091052 -3.487181 -28.656871)" gradientUnits="userSpaceOnUse" x1="114.6638" x2="114.6638" y1="101.334" y2="112.0004"><stop offset="0" stop-color="#c9d1dc"/><stop offset="1" stop-color="#c9d1dc" stop-opacity="0"/></linearGradient><linearGradient id="e" gradientTransform="matrix(2 0 0 1.2 -8 -1.599999)" gradientUnits="userSpaceOnUse" x1="8" x2="8" xlink:href="#b" y1="88" y2="108"/><linearGradient id="f" gradientUnits="userSpaceOnUse" x1="67.266975" x2="67.266975" y1="240.01991" y2="-27.950958"><stop offset="0"/><stop offset="1" stop-color="#fff"/></linearGradient><linearGradient id="g" gradientTransform="matrix(2 0 0 1.2 112 -1.599999)" gradientUnits="userSpaceOnUse" x1="8" x2="8" xlink:href="#a" y1="88" y2="108"/><linearGradient id="h" gradientUnits="userSpaceOnUse" x1="92" x2="92" xlink:href="#b" y1="88" y2="103.9996"/><linearGradient id="i" gradientUnits="userSpaceOnUse" x1="112" x2="112" xlink:href="#a" y1="99.999496" y2="115.99909"/><linearGradient id="j" gradientUnits="userSpaceOnUse" x1="104" x2="104" y1="104" y2="128"><stop offset="0" stop-color="#fff394"/><stop offset="1" stop-color="#fff394" stop-opacity="0"/></linearGradient><g transform="scale(.125)"><path d="m8 104h112v17.4543h-112z" fill="url(#d)" opacity=".764706"/><path d="m8 24h112v80h-112z" fill="url(#c)"/><path d="m112 99.999496h4v15.9996h-4z" fill="url(#i)" transform="matrix(2 0 0 1.5000375 -144 -46.002993)"/><path d="m88 88h4v15.9996h-4z" fill="url(#h)" transform="matrix(2 0 0 1.5000375 -136 -28.003297)"/><path d="m0 104h8v24h-8z" fill="url(#e)"/><path d="m0 24v4 20 4 20 4 26.3125 1.6875h8 32 8 32 8 32 8v-1.6875-78.3125h-120zm8 6h32v18h-32zm40 0h32v18h-32zm40 0h32v18h-32zm-80 22h32v20h-32zm40 0h32v20h-32zm40 0h32v20h-32zm-80 24h32v26.3125h-32zm40 0h32v26.3125h-32zm40 0h32v26.3125h-32z" fill="url(#f)"/><path d="m120 104h8v24h-8z" fill="url(#g)"/><path d="m0 24v4 20 4 20 4 26.3125 1.6875h8 32 8 32 8 32 8v-1.6875-78.3125h-120zm8 6h32v18h-32zm40 0h32v18h-32zm40 0h32v18h-32zm-80 22h32v20h-32zm40 0h32v20h-32zm40 0h32v20h-32zm-80 24h32v26.3125h-32zm40 0h32v26.3125h-32zm40 0h32v26.3125h-32z" fill="url(#f)"/><path d="m40 48v4 20 4h8 32 8v-4-20-4h-8-32zm8 4h32v20h-32z" fill="#ad5f00"/><path d="m48 51.984375h32v20.015625h-32z" fill="#fff394"/><path d="m88 104h31.999996v17.4543h-31.999996z" fill="url(#j)" opacity=".764706"/></g></svg>