<svg height="16" width="16" xmlns="http://www.w3.org/2000/svg" xmlns:xlink="http://www.w3.org/1999/xlink"><radialGradient id="a" cx="68.138977" cy="89.42041" fx="67.932365" fy="72.691223" gradientTransform="matrix(1.5860719 .07936281 .06485072 -1.2953772 -42.110576 142.50266)" gradientUnits="userSpaceOnUse" r="47.5"><stop offset="0" stop-color="#fff"/><stop offset="1" stop-color="#fff" stop-opacity="0"/></radialGradient><linearGradient id="b" gradientTransform="matrix(.94173025 0 0 -.94148681 3.277996 124.93147)" gradientUnits="userSpaceOnUse" x1="47.236164" x2="72" y1="22.150356" y2="116.40091"><stop offset="0" stop-color="#eeecec"/><stop offset=".40000001" stop-color="#f4f4f4"/><stop offset="1" stop-color="#f6f5f5"/></linearGradient><filter id="c"><feGaussianBlur stdDeviation="2.028"/></filter><filter id="d"><feGaussianBlur stdDeviation="2.7153804"/></filter><g transform="matrix(.125 0 0 -.125 -1 16.019768)"><g transform="matrix(1 0 0 -1 0 128.14751)"><path d="m61.021484 6.2832031c-1.414948.038332-3.191209.301102-5.310546 1.7363281-.09046.065151-.171198.1439358-.236329.234375.05313-.047357.111753-.2160285-.05859.058594-.05173.044532-.101703.086346-.177735.1484375-.207025.1690063-.48532.3631984-.734375.5585937-.249057.1953961-.465831.3714023-.61914.5-.03833.032105-.07265.045901-.117188.087891-.02227.020995-.04207.064182-.08789.1171875-.02292.026455-.07041.042715-.117188.1171875-.01092.017418-.01187.054914-.0293.089844-9.222293 8.8034576-9.857862 10.9583476-20.257812 21.4824216-1.61089 1.610471-3.560547 3.676436-3.560547 8.060547v80.39258c0 .0382.0058.0738.0078.11133.005.0857.01214.17075.02734.25195.0075.04.0193.0784.0293.11719.017.0669.03665.13231.06055.19531.0196.0509.04231.10014.06641.14844.0198.0406.04175.0805.06445.11914.03599.0597.07429.11727.117188.17187.0159.0206.03203.0407.04883.0605.05561.0646.114587.12564.179687.18164l.0059.006c.07499.0639.155687.12233.242187.17383.08559.0509.177638.0952.273438.13281.03658.0138.07538.0237.113281.0352.05793.0188.114781.0388.175781.0527.11339.0225.231376.0351.353516.0371.0098.00015.0193.00015.0293 0h.08789 40.164063v.0332h40.402345.0879c.01.00015.0195.00015.0293 0 .12214-.002.24013-.0146.35352-.0371.061-.0139.11785-.0339.17578-.0527.0379-.0115.0767-.0214.11328-.0352.0958-.0376.18785-.0819.27344-.13281.0865-.0515.16719-.10993.24218-.17383l.006-.006c.0651-.056.12408-.11706.17969-.18164.0168-.0198.0329-.0399.0488-.0606.0429-.0546.0812-.11215.11719-.17187.0227-.0386.0446-.0785.0644-.11914.0241-.0483.0468-.0975.0664-.14844.0239-.063.0435-.12846.0605-.19531.01-.0388.0218-.0772.0293-.11719.0152-.0812.0223-.16624.0273-.25195.002-.0375.008-.0731.008-.11133v-80.392478c0-4.38411-1.94966-6.450075-3.56055-8.060546-10.40015-10.524075-11.035721-12.678965-20.258014-21.4824222-.01743-.0349301-.018377-.0724258-.029297-.0898438-.04678-.074472-.09427-.090732-.117188-.1171875-.04582-.053006-.06562-.096192-.08789-.1171875-.04454-.04199-.07886-.055786-.117188-.087891-.153309-.1285977-.370083-.3046039-.619141-.5-.249055-.1953949-.527349-.3895871-.734374-.5585934-.076032-.062091-.126005-.1039051-.177735-.1484375-.170346-.2746223-.111727-.1059505-.058594-.0585937-.065131-.0904392-.145865-.1692241-.236328-.234375-2.119338-1.4352261-3.895599-1.6979961-5.310547-1.7363282h-1.427734-9.3125v-.033203h-9.550781z" filter="url(#d)" stroke-width=".941609"/><path d="m72 7.953125-6.949219.00586c-1.992282.00188-4.264705 1.6686571-6.591797 4.001954-.670832.672617-1.357438 1.311851-2.03125 1.970703-.391394.382705-.784267.767775-1.177734 1.148437-7.320971 6.976059-9.410859 7.65149-16.224609 15.16211-.39614.396026-.763771.764764-1.087891 1.11914-1.37911 1.410027-2.601673 2.671816-2.820312 5.519531l-.03516.6875.002 81.73437h36.677735v.0332h36.916007l.002-81.734377-.0352-.6875c-.21864-2.847715-1.4412-4.109504-2.82031-5.519531-.32412-.354376-.69175-.723113-1.08789-1.11914-6.813792-7.510611-8.90368-8.186042-16.224651-15.162101-.393467-.380662-.786341-.765732-1.177735-1.148437-.673812-.658852-1.360418-1.298086-2.03125-1.970703-2.327092-2.3332964-4.599514-4.0000705-6.591796-4.0019535l-6.710938-.0058594z" filter="url(#c)" opacity=".456067" stroke-width=".941609"/><path d="m72 8.5332031-9.541016.044919c-1.577682 0-3.687814.5354618-6.59375 3.4199219-8.353294 8.2916-14.207219 13.9539-21.042969 20.914062-2.29836 2.340224-2.824218 4.247768-2.824218 6.388672l.001953 80.699222h39.761719v.0332l40.238281-.0332.002-80.699219c0-2.140904-.52586-4.048448-2.82422-6.388672-6.8358-6.960162-12.68972-12.622462-21.043014-20.914062-2.905936-2.8844601-5.016068-3.419922-6.59375-3.419922l-9.541016-.0117188z" fill="#fff"/><path d="m64.349609 14.269531c-1.578675.0833-2.804636.726938-3.912109 1.486328-.990574.274-11.990455 12.654706-20.580078 21.306641-1.28302 1.292303-2.058594 3.717372-2.058594 4.609375v72.037105c0 .24985.150663.47071.470703.47071h33.492188v.0332h33.730471c.32004 0 .4707-.22085.4707-.4707v-72.037112c0-.892003-.77557-3.317072-2.05859-4.609375-8.589626-8.651935-19.589507-21.03264-20.580081-21.306641-1.107473-.759389-2.333435-1.403028-3.91211-1.486328h-.861328c-.287135.007-.715918.01563-.742187.01563l-5.808594-.003911v-.0332l-6.046875.0039c-.02627 0-.455052-.0086-.742187-.01563z" fill="url(#b)"/><path d="m72 14.095703-14.763672.06641c-6.096736 4.32521-12.749666 14.052728-21.068359 22.421875-.25089.281335-.342582.361192-.457031.470704l3.089843 72.654288c0 .24985.150663.47071.470703.47071l32.490235 1.57617v.0449l32.728511-1.58789c.32004 0 .47071-.22085.47071-.4707l3.08984-72.654295c-.11445-.109512-.20614-.189369-.45703-.470703-8.318693-8.369131-14.971623-18.09665-21.068359-22.42186l-14.525391-.064453z" fill="url(#a)" opacity=".846535"/></g><path d="m64 96.147507h16v16.000003h-16z" fill="#2d2d2d" opacity=".380531"/><g fill="#4c9ac3" fill-opacity=".508571" fill-rule="evenodd"><path d="m104 88.102592v-8h-64v8z" opacity=".367257"/><path d="m104 72.14751v-8h-64v8z" opacity=".367257"/><path d="m104 56.14751v-8h-64v8z" opacity=".367257"/><path d="m104 40.14751v-8h-64v8z" opacity=".367257"/><path d="m104 24.14751v-8h-64v8z" opacity=".367257"/></g></g></svg>