<svg xmlns="http://www.w3.org/2000/svg" viewBox="0 0 24 24">
 <path
     style="fill:#555753"
     d="M 3.0605469 2 C 2.4714279 2 1.9922848 2.4772999 1.9941406 3.0664062 L 2 5 L 8.5 12.5 L 2 20 L 2 21.933594 C 2 22.522703 2.4772873 23 3.0664062 23 L 4.1328125 23 L 20.132812 23 L 20.935547 23 C 21.51769 22.909611 22.002132 22.522703 22.001953 21.933594 L 22.001953 21.066406 L 22.001953 18.933594 C 22.001953 17.755386 21.311041 17 20.132812 17 L 19 17 L 19 18.066406 L 19 18.933594 C 18.876414 19.509583 18.589108 20 18 20 L 7.3339844 20 L 13.5 12.5 L 7.3339844 5 L 18 5 C 18.589108 5 18.876414 5.4904169 19 6.0664062 L 19 7.1328125 L 19 8 L 20.132812 8 C 21.311041 8 22.001953 7.0453955 22.001953 5.8671875 L 22.001953 3.7324219 L 21.996094 3.0664062 C 21.991234 2.4773175 21.51183 2.0903893 20.929688 2 L 20.128906 2 L 4.1269531 2 L 3.0605469 2 z "
     />
 </svg>
