<svg xmlns="http://www.w3.org/2000/svg" viewBox="0 0 24 24">
 <path
     style="fill:#555753"
     d="M 15.072266 2.8007812 C 12.295711 2.8007812 9.5466194 4.9677693 8.9726562 7.5996094 L 8.1386719 11.333984 L 7.3046875 11.333984 C 6.3854448 11.333984 5.5007599 12.047194 5.3378906 12.933594 C 5.1742959 13.819983 5.7858354 14.533203 6.7050781 14.533203 L 7.4394531 14.533203 L 6.8710938 17.199219 C 6.6741765 18.101769 5.790072 18.800781 4.8378906 18.800781 C 3.8857413 18.800781 3.2758242 18.101769 3.4726562 17.199219 L 3.8378906 15.599609 L 2.1386719 15.599609 C 1.2987678 15.598509 0.33852476 16.130643 0.10546875 17.199219 C -0.4685046 19.83106 1.3621385 22 4.1386719 22 C 6.9152267 22 9.6643081 19.83106 10.238281 17.199219 L 10.837891 14.533203 L 11.90625 14.533203 C 12.825461 14.533203 13.708224 13.819983 13.871094 12.933594 C 14.034699 12.047194 13.42507 11.333984 12.505859 11.333984 L 11.539062 11.333984 L 12.337891 7.5996094 C 12.534723 6.69706 13.418923 6 14.371094 6 C 15.323254 6 15.90191 6.69706 15.705078 7.5996094 L 15.371094 9.1992188 L 17.072266 9.1992188 C 17.91217 9.2002888 18.872413 8.6681854 19.105469 7.5996094 C 19.679432 4.9677693 17.848799 2.8007813 15.072266 2.8007812 z M 14.939453 11.333984 L 17.972656 16.867188 L 17.605469 17.566406 C 16.65428 17.787409 15.628141 18.704474 15.171875 19.767578 C 14.644984 20.994864 15.05189 22 16.105469 22 C 17.158909 22 18.445925 20.994864 18.972656 19.767578 C 19.073989 19.531696 19.138734 19.31291 19.171875 19.099609 L 20.771484 22 L 23.472656 22 L 20.439453 16.433594 L 20.771484 15.732422 C 21.730652 15.523078 22.777246 14.607059 23.238281 13.533203 C 23.765225 12.305896 23.358192 11.333984 22.304688 11.333984 C 21.251162 11.333984 19.966354 12.305896 19.439453 13.533203 C 19.329959 13.788189 19.26835 14.039482 19.238281 14.267578 L 17.605469 11.333984 L 14.939453 11.333984 z "
     />
 </svg>
