<svg xmlns="http://www.w3.org/2000/svg" viewBox="0 0 16 16">
 <path
     style="fill:#555753"
     d="M 9.1972656 1.0136719 C 7.5004511 1.0136719 5.8156032 2.4583307 5.4648438 4.2128906 L 5.03125 6.5332031 L 4.4316406 6.5332031 C 3.8571005 6.5332031 3.2990705 7.0087187 3.1972656 7.5996094 C 3.0949701 8.1905 3.489913 8.6660156 4.0644531 8.6660156 L 4.6308594 8.6660156 L 4.1972656 10.800781 C 4.0769217 11.402477 3.5135409 11.867188 2.9316406 11.867188 C 2.3497509 11.867188 2.0105688 11.402477 2.1308594 10.800781 L 2.3300781 9.7324219 L 1.296875 9.7324219 C 0.78358412 9.7313659 0.20687748 10.088397 0.064453125 10.800781 C -0.28631697 12.555341 0.83444614 14 2.53125 14 C 4.2280645 14 5.9129018 12.555341 6.2636719 10.800781 L 6.6972656 8.6660156 L 7.296875 8.6660156 C 7.8713938 8.6660156 8.4294452 8.1905 8.53125 7.5996094 C 8.6335455 7.0087187 8.2385813 6.5332031 7.6640625 6.5332031 L 7.0976562 6.5332031 L 7.53125 4.2128906 C 7.6515405 3.6111946 8.2149747 3.1464844 8.796875 3.1464844 C 9.3787646 3.1464844 9.7179468 3.6111946 9.5976562 4.2128906 L 9.3984375 5.2792969 L 10.431641 5.2792969 C 10.944932 5.2803569 11.521638 4.9252745 11.664062 4.2128906 C 12.014822 2.4583307 10.894069 1.0136719 9.1972656 1.0136719 z M 10 6.9902344 L 12 10.490234 L 11.652344 11.091797 C 11.050578 11.30664 10.446654 11.847442 10.160156 12.488281 C 9.7897013 13.316685 10.089303 13.990234 10.830078 13.990234 C 11.570749 13.990234 12.471442 13.316685 12.841797 12.488281 C 12.842997 12.485681 12.844503 12.485022 12.845703 12.482422 L 12.994141 12.224609 L 14 13.990234 L 16 13.990234 L 13.998047 10.490234 L 14.347656 9.8886719 C 14.949402 9.6738492 15.553247 9.1310987 15.839844 8.4902344 C 16.210339 7.6618202 15.910647 6.9902344 15.169922 6.9902344 C 14.4292 6.9902344 13.528658 7.6618202 13.158203 8.4902344 C 13.157003 8.4928644 13.155497 8.4954369 13.154297 8.4980469 L 13.005859 8.7558594 L 12 6.9902344 L 10 6.9902344 z "
     />
 </svg>
