<svg viewBox="0 0 32 32" xmlns="http://www.w3.org/2000/svg" xmlns:xlink="http://www.w3.org/1999/xlink"><filter id="a" color-interpolation-filters="sRGB" height="1.094553" width="1.097492" x="-.048746" y="-.047277"><feGaussianBlur stdDeviation=".36559322"/></filter><linearGradient id="b" gradientTransform="translate(5 2)" gradientUnits="userSpaceOnUse" x1="10" x2="11" xlink:href="#c" y1="26" y2="2"/><linearGradient id="c" gradientTransform="translate(-25.830508 -3.59322)" gradientUnits="userSpaceOnUse" x1="14" x2="13.79661" y1="22" y2="2.135593"><stop offset="0" stop-color="#0040dd"/><stop offset="1" stop-color="#0a84ff"/></linearGradient><linearGradient id="d" gradientUnits="userSpaceOnUse" x1="11.5" x2="11.5" y1="19" y2="25"><stop offset="0" stop-color="#fff"/><stop offset=".08333334" stop-color="#fff" stop-opacity=".055147"/><stop offset="1" stop-color="#fff" stop-opacity=".247059"/><stop offset="1" stop-color="#fff" stop-opacity=".481618"/></linearGradient><linearGradient id="e" gradientTransform="translate(0 8)" gradientUnits="userSpaceOnUse" x1="11.033642" x2="11.240539" xlink:href="#c" y1="12.089852" y2="7.919121"/><radialGradient id="f" cx="22" cy="9.076923" gradientTransform="matrix(1.3 .00000001 -.00000002 1.5 -6.6 -6.615385)" gradientUnits="userSpaceOnUse" r="10"><stop offset="0" stop-color="#d7d7d7"/><stop offset=".29999998" stop-color="#f7f7f7"/><stop offset="1" stop-color="#fff"/></radialGradient><linearGradient id="g" gradientUnits="userSpaceOnUse" x1="20" x2="23" y1="9" y2="6"><stop offset="0" stop-color="#fff"/><stop offset=".77967989" stop-color="#f1f1f1"/><stop offset="1" stop-color="#d5d5d5"/></linearGradient><path d="m4 27.940678h20v2.559322h-20z" filter="url(#a)" opacity=".15" stroke-width="1.015418"/><g transform="translate(-2)"><path d="m6 3v26h19.99762l.00238-19-7-7z" fill="url(#f)"/><path d="m7 4v24h18v-20l-4-4zm1 1h13l3 3v19h-16z" fill="url(#b)"/><path d="m5.9976202 2c-.554 0-1 .446-1 1v26c0 .554.446 1 1 1h19.9999998c.554 0 .892483-.456533 1-1v-10.109375-10.5052752l-6.508082-6.3853498zm0 1h12.9999998v6c0 .6726441.491378 1 1 1h6v19h-19.9999998z" fill="#98989d"/><path d="m20 9h6l-6-6z" fill="url(#g)" fill-rule="evenodd"/></g><g transform="translate(7 1)"><path d="m8 24v5h8v-5z" fill="#fff" fill-rule="evenodd"/><path d="m7 24v5.142578c0 .474857.3825649.857422.8574219.857422h8.2851561c.474857 0 .857422-.382565.857422-.857422v-5.142578h-1v5h-8v-5z" fill="#98989d"/><path d="m3.5 17.5c-.554 0-1 .446-1 1v7c0 .554.446 1 1 1h17c.554 0 1-.446 1-1v-7c0-.554-.446-1-1-1h-1.5v2.5c0 .554-.446 1-1 1h-12c-.554 0-1-.446-1-1v-2.5z" fill="#8e8e93" stroke="#616165"/><rect fill="none" height="7" rx=".5" ry="1" stroke="url(#d)" stroke-opacity=".658088" width="17" x="3.5" y="18.5"/><rect fill="url(#e)" height="4.29661" ry="1" width="12" x="6" y="16"/><path d="m7.8574219 12c-.474857 0-.8574219.382565-.8574219.857422v5.142578h1v-5h8v5h1v-5.142578c0-.474857-.382565-.857422-.857422-.857422z" fill="#98989d"/><g fill="#fff" transform="translate(0 8)"><path d="m8 5v5h8v-5z" fill-rule="evenodd"/><path d="m18 16h2v1h-2z"/></g></g></svg>