<svg viewBox="0 0 32 32" xmlns="http://www.w3.org/2000/svg" xmlns:xlink="http://www.w3.org/1999/xlink"><filter id="a" color-interpolation-filters="sRGB" height="1.094553" width="1.097492" x="-.048746" y="-.047277"><feGaussianBlur stdDeviation=".36559322"/></filter><linearGradient id="b" gradientUnits="userSpaceOnUse" x1="22" x2="22" y1="24" y2="17"><stop offset="0" stop-color="#0078f6"/><stop offset="1" stop-color="#51cdfb"/></linearGradient><radialGradient id="c" cx="22" cy="9.076923" gradientTransform="matrix(1.3 .00000001 -.00000002 1.5 -6.6 -6.615385)" gradientUnits="userSpaceOnUse" r="10"><stop offset="0" stop-color="#d7d7d7"/><stop offset=".29999998" stop-color="#f7f7f7"/><stop offset="1" stop-color="#fff"/></radialGradient><linearGradient id="d" gradientUnits="userSpaceOnUse" x1="20" x2="23" y1="9" y2="6"><stop offset="0" stop-color="#fff"/><stop offset=".77967989" stop-color="#f1f1f1"/><stop offset="1" stop-color="#d5d5d5"/></linearGradient><path d="m6 27.940678h20v2.559322h-20z" filter="url(#a)" opacity=".15" stroke-width="1.015418"/><path d="m6 3v26h19.99762l.00238-19-7-7z" fill="url(#c)"/><path d="m5.9976202 2c-.554 0-1 .446-1 1v26c0 .554.446 1 1 1h19.9999998c.554 0 .892483-.456533 1-1v-10.109375-10.5052752l-6.508082-6.3853498zm0 1h12.9999998v6c0 .6726441.491378 1 1 1h6v19h-19.9999998z" fill="#98989d"/><path d="m20 9h6l-6-6z" fill="url(#d)" fill-rule="evenodd"/><g fill="#0a84ff"><rect fill="url(#b)" height="7" ry=".961864" width="8" x="14" y="17"/><g fill="#2f2f31"><path d="m14 15c-1.104522 0-2 .895478-2 2v7c0 1.104597.895431 2 2 2h1v-1h-1c-.552284 0-1-.447701-1-1v-.28125-6.71875c0-.552299.426767-1 1-1h1v-1z"/><path d="m22 15c1.104522 0 2 .895478 2 2v7c0 1.104597-.895431 2-2 2h-1v-1h1c.552284 0 1-.447701 1-1v-.28125-6.71875c0-.552299-.428229-.959087-1-1h-1v-1z"/></g></g></svg>