<svg viewBox="0 0 32 32" xmlns="http://www.w3.org/2000/svg" xmlns:xlink="http://www.w3.org/1999/xlink"><filter id="a" color-interpolation-filters="sRGB" height="1.094553" width="1.097492" x="-.048746" y="-.047277"><feGaussianBlur stdDeviation=".36559322"/></filter><linearGradient id="b" gradientUnits="userSpaceOnUse" x1="20" x2="23" y1="9" y2="6"><stop offset="0" stop-color="#fff"/><stop offset=".77967989" stop-color="#f1f1f1"/><stop offset="1" stop-color="#d5d5d5"/></linearGradient><radialGradient id="c" cx="22" cy="9.076923" gradientTransform="matrix(1.3 .00000001 -.00000002 1.5 -6.6 -6.615385)" gradientUnits="userSpaceOnUse" r="10"><stop offset="0" stop-color="#d7d7d7"/><stop offset=".29999998" stop-color="#f7f7f7"/><stop offset="1" stop-color="#fff"/></radialGradient><linearGradient id="d" gradientUnits="userSpaceOnUse" x1="27" x2="27" y1="32" y2="20.5"><stop offset="0" stop-color="#0040dd"/><stop offset="1" stop-color="#0a84ff"/></linearGradient><path d="m6 27.940678h20v2.559322h-20z" filter="url(#a)" opacity=".15" stroke-width="1.015418"/><g fill="#98989d"><rect height="1" ry=".474576" width="4" x="8" y="22"/><rect height="1" ry=".474576" width="4" x="17" y="18"/><rect height="1" ry=".5" width="2" x="15" y="10"/></g><path d="m6 3v26h20v-14.810547-4.189453l-7-7zm19.998047 23.066406.001953 2.933594h-.002z" fill="url(#c)"/><g fill="#98989d"><path d="m5.9980469 2c-.554 0-1 .446-1 1v26c0 .554.446 1 1 1h7.0019531.482422 8.605469 1.912109 1.998047c.554 0 .892483-.456533 1-1v-3h.001953v-13h-.001953v-4.6152344l-6.507813-6.3847656zm0 1h13.0000001v6c0 .6726441.491378 1 1 1h6v4.189453h.001953v11.810547h.064453l-.066406.066406v2.933594h-1.998047-.917969-9.353515-.728516-7.0019531z"/><rect height="1" ry=".5" width="5" x="8" y="10"/><rect height="1" ry=".5" width="9" x="8" y="14"/><rect height="1" ry=".474576" width="4" x="8" y="22"/><path d="m14.474609 22c-.071812 0-.138319.018558-.199218.046875-.162063.075355-.275391.236631-.275391.427734v.050782c0 .262917.211694.474609.474609.474609h.753907 1.542968.753907c.262915 0 .474609-.211692.474609-.474609v-.050782c0-.191103-.113328-.352379-.275391-.427734-.060899-.028317-.127406-.046875-.199218-.046875z"/><rect height="1" ry=".5" width="2" x="15" y="10"/></g><path d="m20 9h6l-6-6z" fill="url(#b)" fill-rule="evenodd"/><g fill="#ff9f0a"><rect height="1" ry=".5" width="5" x="19" y="14"/><rect height="1" ry=".5" width="7" x="8" y="18"/><rect height="1" ry=".5" width="7" x="8" y="26"/></g><g transform="matrix(-1 0 0 1 31.99209 0)"><path d="m23.960938 20.003906c-1.078075.018028-1.961942.917871-1.962891 1.996094v.998047h-5.998047c-1.091935 0-2.001953.910018-2.001953 2.001953v2c0 1.091935.910018 2.001953 2.001953 2.001953h5.998047v.998047h4.822265l.179688-.179688v-7.640624l-1.59375-1.591797c-.381828-.381461-.903697-.592342-1.443359-.583985a1.002396 1.002396 0 0 0 -.002 0z" fill="#fff" fill-opacity=".784314"/><path d="m23.978516 21.00586c-.542705.009075-.978038.451359-.978516.99414v2h-7c-.554 0-1 .446-1 1v2c0 .554.446 1 1 1h7v2c.0019.884497 1.070439 1.327166 1.697266.703125l4.005859-4c.387891-.388505.387891-1.017745 0-1.40625l-4.005859-4c-.19038-.190197-.449674-.295182-.71875-.291015z" fill="url(#d)"/></g></svg>