<svg viewBox="0 0 16 16" xmlns="http://www.w3.org/2000/svg"><g fill="none" stroke="#565656" stroke-linecap="round" stroke-linejoin="round" transform="translate(-.00005 -6)"><path d="m9.4988658 9.4999999h5.0082562z"/><path d="m1.492979 12.5h9.014304z"/><path d="m1.4929788 15.5h13.0141432z"/><path d="m1.492979 18.5h9.014304z"/></g><g transform="translate(30.601695 -10.466102)"><g fill="#565656"><path d="m5 2h1v1h-1z"/><path d="m9 2h1v1h-1z"/><path d="m1 6h1v1h-1z"/><path d="m13 6h1v1h-1z"/><path d="m1 10h1v1h-1z"/><path d="m13 10h1v1h-1z"/><path d="m5 14h1v1h-1z"/><path d="m9 14h1v1h-1z"/></g><path d="m4.502685 5.483991h5.99463v5.99463h-5.99463z" fill="#fcaf3e" stroke="#ce5c00" stroke-linejoin="round" stroke-miterlimit="0" stroke-width="1.00537"/></g><path d="m .5 0a .50005.50005 0 0 0 -.5.5v4a .50005.50005 0 0 0  .5.5h2a .50005.50005 0 0 0  .5-.5v-.5h2v .5a.50005.50005 0 0 0  .5.5h2a .50005.50005 0 0 0  .5-.5v-4a .50005.50005 0 0 0 -.5-.5h-2a .50005.50005 0 0 0 -.5.5v.5h-2v-.5a.50005.50005 0 0 0 -.5-.5zm.5 1h1v .5.5h1 2 1v-.5-.5h1v3h-1v-.5-.5h-1-2-1v .5.5h-1z" fill="#ce5c00"/><path d="m1 1v3h1v-1h4v1h1v-3h-1v1h-4v-1z" fill="#fcaf3e"/></svg>