<svg xmlns="http://www.w3.org/2000/svg" viewBox="0 0 24 24">
 <path 
     style="fill:#4d4d4d" 
     d="M 4 3 L 4 21 L 4 22 L 20 22 L 20 21 L 20 3 L 4 3 z M 5 4 L 19 4 L 19 20 L 19 21 L 5 21 L 5 20 L 5 4 z M 7 9 L 7 10 L 11 10 L 11 9 L 7 9 z M 13 9 L 13 10 L 17 10 L 17 9 L 13 9 z M 7 12 L 7 13 L 11 13 L 11 12 L 7 12 z M 13 12 L 13 13 L 17 13 L 17 12 L 13 12 z M 7 15 L 7 16 L 11 16 L 11 15 L 7 15 z M 13 15 L 13 16 L 17 16 L 17 15 L 13 15 z M 7 18 L 7 19 L 11 19 L 11 18 L 7 18 z M 13 18 L 13 19 L 17 19 L 17 18 L 13 18 z "
     />
 <path 
     style="fill:#1d99f3" 
     d="M 7 6 L 7 7 L 11 7 L 11 6 L 7 6 z M 13 6 L 13 7 L 17 7 L 17 6 L 13 6 z "
     />
</svg>
