<svg xmlns="http://www.w3.org/2000/svg" viewBox="0 0 24 24">
 <path 
     style="fill:#4d4d4d" 
     d="M 3 4 L 3 19 L 4 19 L 20 19 L 21 19 L 21 4 L 3 4 z M 4 5 L 20 5 L 20 18 L 4 18 L 4 5 z M 8.65625 8 L 5.984375 15 L 6.9824219 15 L 7.6210938 13.205078 L 10.775391 13.205078 L 11.414062 15 L 12.398438 15 L 9.7304688 8 L 8.65625 8 z M 15.25 8 A 2.25 2.0000132 0 0 0 13 10 L 14 10 A 1.25 1.1111185 0 0 1 15.25 8.8886719 A 1.25 1.1111185 0 0 1 16.5 10 A 1.25 1.1111185 0 0 1 15.791016 11 L 15 11 L 15 11.013672 L 15 11.089844 L 15 11.912109 L 15 11.984375 L 15 12 L 15.224609 12 L 15.25 12 L 15.791016 12 A 1.25 1.111125 0 0 1 16.5 13 A 1.25 1.111125 0 0 1 15.25 14.111328 A 1.25 1.111125 0 0 1 14 13 L 13 13 A 2.25 2.0000249 0 0 0 15.25 15 A 2.25 2.0000249 0 0 0 17.5 13 A 2.25 2.0000249 0 0 0 16.734375 11.5 A 2.25 2.0000132 0 0 0 17.5 10 A 2.25 2.0000132 0 0 0 15.25 8 z M 9.1914062 8.9335938 L 10.480469 12.416016 L 7.90625 12.416016 L 9.1914062 8.9335938 z "
     />
</svg>
