<svg xmlns="http://www.w3.org/2000/svg" viewBox="0 0 24 24">
 <path 
     style="fill:#4d4d4d" 
     d="M 3 4 L 3 19 L 4 19 L 20 19 L 21 19 L 21 4 L 3 4 z M 4 5 L 20 5 L 20 18 L 4 18 L 4 5 z M 8.65625 8 L 5.984375 15 L 6.9824219 15 L 7.6210938 13.205078 L 10.775391 13.205078 L 11.414062 15 L 12.398438 15 L 9.7304688 8 L 8.65625 8 z M 16 8 L 13 12.238281 L 13 13 L 16 13 L 16 15 L 17 15 L 17 13 L 18 13 L 18 12 L 17 12 L 17 8 L 16 8 z M 9.1914062 8.9335938 L 10.480469 12.416016 L 7.90625 12.416016 L 9.1914062 8.9335938 z M 16 9.4765625 L 16 12 L 14.296875 12 L 16 9.4765625 z "
     />
</svg>
