/* XPM */
static char * L3PSetup_t_pm[] = {
/* width height ncolors cpp [x_hot y_hot] */
"16 16 9 1 0 0",
/* colors */
" 	s none	m none	c none",
".	c #861782078617",
"X	s iconColor1	m black	c black",
"o	c #000000008617",
"O	s iconColor2	m white	c white",
"+	c #C71BC30BC71B",
"@	s iconColor6	m white	c yellow",
"#	c #00000000FFFF",
"$	c #861700000000",
/* pixels */
"                ",
"     ..  XXXXX o",
"   ..OO+XO.OO@Xo",
" ..OOOOX@.@.OOOo",
"XXOOOOXOXO.O.@Oo",
"  XOOX@XOX@.OXXo",
"   XOOXOO+XXX  o",
" XX+XOO..+++O+. ",
"X.++X..+++##++O.",
"X...++++$$++OOO.",
"X.....++++OO++O.",
"X.......OO++++..",
"XX......+++++.X.",
"  XX....+++.XX  ",
"    XX..+.XX    ",
"      XXXX      "};
