<svg viewBox="0 0 24 24" xmlns="http://www.w3.org/2000/svg"><path d="m6 4v5.2851562c0 1.2106328.2380226 2.2668198.7148438 2.9648438.4768211.698023 1.128588 1.189084 1.9550781 1.472656.8370861.272619 1.8112451.364594 2.9238281.277344 1.123179-.087253 2.124131-.406846 3.40625-.755859v6.755859h3v-16h-3v7.230469c-1.049007.261758-1.772826.431465-2.578125.507812-.794701.06544-1.260384.017115-1.800781-.146484-.529801-.174506-.9315348-.479752-1.2070315-.916016-.2754967-.447171-.4140625-1.0529432-.4140625-1.816406v-4.859375zm-1 17v1h14v-1zm0 2v1h14v-1z" fill="#232629"/></svg>