<svg height="52" viewBox="0 0 60 52" width="60" xmlns="http://www.w3.org/2000/svg"><path d="m0 0h60v52h-60z"/><path d="m24.859375 14.417969-7.859375 11.582031h-14c0 7.731978 6.2680212 14 14 14 1.894869-.0068 3.768647-.398141 5.507812-1.150391a14 14 0 0 0 8.492188-12.849609 14 14 0 0 0 -6.140625-11.582031zm-2.351563 24.43164c.245035-.104855.482072-.222297.71875-.339843-.236317.120062-.475998.233389-.71875.339843z" fill="#f73062"/><g fill="#8e8e93"><path d="m21.597656 12.794922c1.158054.403082 2.265804.948158 3.279297 1.638672l20.736328 3.939453a8 8 0 0 1 2.386719-.373047 8 8 0 0 1 .992188.06445l.007812-.06445z" fill="#eff0f1"/><path d="m45.308594 33.513672-20.429688 4.02539c-.77748.531378-1.603808.989837-2.472656 1.353516-.0084.0035-.01697.0045-.02539.0078-.264107.111274-.532946.210072-.802734.304687l26.421874-5.205065a8 8 0 0 1 -2.691406-.486328z" fill="#eff0f1"/><path d="m48 18.001953v7.998047l6.158203 5.072266c1.148484-1.393176 1.835734-3.169044 1.839844-5.070313v-.001953c0-4.394975-3.603964-7.998047-7.998047-7.998047z" fill="#1abc9c"/></g><path d="m17 12a14 14 0 0 0 -14 14h14l7.859375-11.582031a14 14 0 0 0 -7.859375-2.417969z" fill="#1daff8"/><path d="m48 18.001953c-.0098.0012-.01955.0025-.0293.0039-4.390057.01597-7.964844 3.60045-7.964844 7.994141 0 4.403515 3.590626 7.994141 7.994141 7.994141h.002c2.500574-.0044 4.699831-1.155158 6.15625-2.921875l-6.158247-5.07226z" fill="#9b59b6"/></svg>