<svg viewBox="0 0 24 24" xmlns="http://www.w3.org/2000/svg"><rect fill="#ed3d3b" height="1" ry=".482023" width="5" x="15" y="18"/><path d="m11 10.5c-7.3333333 9-3.6666667 4.5 0 0zm3-3.5v1h7v6.277344c.0074.04895.01888.09531.02148.146484.0052.101687-.0023.206452-.02148.310547v6.265625h-10v-4h-1v4c0 .554.446 1 1 1h10c.554 0 1-.446 1-1v-13c0-.554-.446-1-1-1z" fill="#fafafa"/><rect fill="#ed3d3b" height="1" ry=".410114" width="7" x="4" y="10"/><g fill="#fafafa"><path d="m3 2c-.554 0-1 .446-1 1v13c0 .554.446 1 1 1h10c.554 0 1-.446 1-1v-4h-1v4h-10v-13h10v6h1v-6c0-.554-.446-1-1-1z"/><path d="m12.5 10c-.277 0-.5.223-.5.5s.223.5.5.5h3.5a1 1 0 0 1 1 1v3.287109l-1.140625-1.140625a.50005.50005 0 0 0 -.359375-.152343.50005.50005 0 0 0 -.347656.859375l2 2a.50005.50005 0 0 0 .707031 0l2-2a.50005.50005 0 1 0 -.707031-.707032l-1.152344 1.152344v-3.298828a2 2 0 0 0 -2-2z" fill-rule="evenodd"/></g></svg>