<svg viewBox="0 0 24 24" xmlns="http://www.w3.org/2000/svg"><path d="m12 2a10 10 0 0 0 -10 10 10 10 0 0 0 10 10 10 10 0 0 0 2.089844-.232422c-.208767-.280696-.381481-.586892-.535156-.904297a9 9 0 0 1 -1.554688.136719 9 9 0 0 1 -9-9 9 9 0 0 1 9-9 9 9 0 0 1 9 9 9 9 0 0 1 -.144531 1.552734c.322006.15532.633713.329042.917969.541016a10 10 0 0 0 .226562-2.09375 10 10 0 0 0 -10-10zm6.5 11c.262337 0 .516941.028173.769531.064453-.251942-.037947-.506921-.064453-.769531-.064453zm1.074219.119141c.132493.026885.261719.063265.390625.099609-.128609-.037376-.258431-.071702-.390625-.099609zm-6.574219 5.380859c0 .263922.026319.520126.064453.773438-.036516-.253294-.064453-.51032-.064453-.773438zm.117188 1.068359c.027883.133467.062082.264715.099609.394532-.036747-.130494-.072562-.260365-.099609-.394532z" fill="#fafafa"/><path d="m12 4.9999998c-2.21 0-4 1.79-4 4h2c0-1.1.9-2 2-2s2 .9 2 2c0 .55-.219844 1.0501562-.589844 1.4101562l-1.240234 1.259766c-.72.73-1.169922 1.730078-1.169922 2.830078v.5h2c0-1.5.449922-2.100078 1.169922-2.830078l.90039-.919922c.57-.57.929688-1.3700002.929688-2.2500002 0-2.21-1.79-4-4-4zm-1 13.0000002v2h2v-2z" fill="#fafafa"/><g fill="#1e8bcd"><path d="m18.5 14a4.5 4.5 0 0 0 -4.5 4.5 4.5 4.5 0 0 0 4.5 4.5 4.5 4.5 0 0 0 4.5-4.5 4.5 4.5 0 0 0 -4.5-4.5zm0 1a3.5 3.5 0 0 1 3.5 3.5 3.5 3.5 0 0 1 -3.5 3.5 3.5 3.5 0 0 1 -3.5-3.5 3.5 3.5 0 0 1 3.5-3.5z"/><path d="m17 21 4-2.5-4-2.5z"/></g></svg>