<svg viewBox="0 0 24 24" xmlns="http://www.w3.org/2000/svg"><path d="m5 3v.9785156l.9785156-.9785156zm2.3925781 0-2.3925781 2.3925781v1.4140625l3.8066406-3.8066406zm2.8300779 0-5.222656 5.2226562v1.4140626l6.636719-6.6367188zm2.828125 0-8.050781 8.050781v1.414063l9-9.0000002v-.4648438zm.949219 1.8789062-9 8.9999998v1.414063l9-9.0000002zm.173828 2.6542969-9.173828 9.1738279v1.414063l10.121094-10.121094h-.121094c-.353315 0-.648385-.1916694-.826172-.4667969zm2.361328.4667969-11.535156 11.535156v1.414063l12.949219-12.949219zm2.464844.3632812-12.6367188 12.6367188h1.4140626l11.2226562-11.2226562zm0 2.8300778-9.8066406 9.806641h1.4140626l8.392578-8.392578zm0 2.828125-6.978516 6.978516h1.414063l5.564453-5.564453zm0 2.828125-4.150391 4.150391h1.414063l2.736328-2.736328zm0 2.828125-1.322266 1.322266h1.322266z" fill="#1e8bcd"/><path d="m5 2c-.554 0-1 .446-1 1v18c0 .554.446 1 1 1h14c.554 0 1-.446 1-1v-10.109375-3.640625-.2089844c0-.4506799.098038-.4254121-.605469-1.0664062l-3.30664-3.2382813c-.709525-.7368575-.710169-.7363281-1.09375-.7363281h-.332032-.662109zm0 1h9v4c0 .554.446 1 1 1h4v13h-14zm10 0 4 4h-4z" fill="#fafafa"/></svg>