<svg viewBox="0 0 24 24" xmlns="http://www.w3.org/2000/svg"><path d="m7.40625 2.0039062a.50341448.50341448 0 0 0 -.5019531.5585938c.0353655.319501.1532784 1.5041296.2265625 2.9707031.0421271.843022.0678759 1.7520225.0371094 2.4589844-.0146062.3357011-.0603771.614534-.1074219.8867187-.0471648.2728821-.0971348.4252621-.1132813.4492188-.1607384.2387931-.2733638.3116053-.2421875.3007812a.50341448.50341448 0 0 0 -.0019531 0c.0414355-.0146441.0463603.000944-.1425781-.0722656l.0097656.0019532c-.2962373-.1210767-.8620004-.3904674-1.7578125-.3769532-.9065087.0134224-1.6336327.3263209-2.109375.8476564-.4777326.523665-.7027877 1.233678-.703125 1.972656.0003373.739087.2360801 1.421644.703125 1.933594.4758734.521628 1.2031714.833838 2.109375.847656.8925051.013201 1.4560221-.255652 1.7519531-.376953l.0058594-.001953c.1547172-.06024.1615384-.056731.1328125-.066406-.0269051-.00951.0837018.06254.2441406.300781.0163783.024321.066115.176357.1132813.449219.0458171.264969.0927543.58466.1074219.921875.0308.707843.0050989 1.57816-.0371094 2.421875-.0744882 1.490815-.1948197 2.722483-.2265625 3.007812a.50341448.50341448 0 0 0 .5019531.558594c.250856-.000865.4730491-.032219.6269531-.039063.3990818-.017003.749207-.075608 1.0117188-.121093.2748348-.046373.4815412-.063877.7285156-.228516a.50341448.50341448 0 0 0 .0019531 0c.2876954-.193687.4746264-.358126.5703124-.632813.077051-.220991.041512-.485891-.044922-.697265-.149225-.364979-.3532728-.691451-.3417966-1.435547.0115134-.747381.2357296-1.206824.5957036-1.535156.361203-.329363.867834-.511419 1.445312-.511719.577476.0003 1.084111.182358 1.445312.511719.359971.32833.584183.787769.595704 1.535156.011473.744097-.192573 1.070568-.341797 1.435547-.086152.210695-.122282.476602-.046875.695312a.50341448.50341448 0 0 0 .001953.001953c.095322.273377.280668.436929.568359.63086.253339.172253.45947.183635.730469.230469.26269.045522.613832.104057 1.013672.121093.167528.010974.387171.03768.626953.039063a.50341448.50341448 0 0 0 .501953-.558594c-.031741-.285373-.152079-1.517001-.226562-3.007812-.042142-.843762-.067887-1.714041-.03711-2.421875.014683-.337253.061601-.656957.107422-.921875.04716-.272847.096894-.424884.113281-.449219.159612-.237013.268876-.308321.240235-.298828-.032593.011291-.034054-.003553.146484.066406l-.009765-.001953c.294661.12043.861183.392432 1.757812.378906.90646-.013422 1.633598-.326135 2.109375-.847656.467041-.511948.702789-1.194504.703125-1.933594-.000325-.73899-.2254-1.448996-.703125-1.972656-.475835-.5214456-1.203121-.8338352-2.109375-.8476564-.895661-.0132464-1.461389.255803-1.757812.3769532l.009765-.0019532c-.185132.0717502-.180659.0593467-.142578.0722656.026759.0094567-.083758-.0625152-.244141-.3007812-.016142-.0239507-.066113-.1763302-.113281-.4492188-.047047-.2721827-.09282-.5510216-.107422-.8867187-.03076-.706872-.004823-1.6157968.03711-2.4589844.07328-1.4665714.191198-2.6511817.226562-2.9707031a.50341448.50341448 0 0 0 -.501953-.5585938c-.181682.0006278-.397315-.011781-.626953.0019532-.398043.0169586-.748592.0732098-1.013672.1191406-.278657.0469628-.487936.0733589-.726563.2324219a.50341448.50341448 0 0 0 -.001953 0c-.286069.1925906-.47393.353893-.570312.6308593-.077815.2231701-.042073.4864602.044922.6992188.149882.3667295.353272.6871137.341797 1.4316406-.011516.7469895-.23593 1.2070988-.595704 1.5351563-.362297.3304534-.86969.5153256-1.445312.515625-.57563-.0002994-1.083014-.1851715-1.445312-.515625-.359772-.328056-.5841826-.7881642-.5957036-1.5351563-.0114764-.7445261.1919136-1.0649097.3417966-1.4316406.087092-.213022.123296-.475243.044922-.6992188-.096075-.2756438-.282197-.4360283-.5683592-.6289062-.2458049-.1671539-.4546623-.1867096-.7304688-.234375a.50341448.50341448 0 0 0 -.0019531 0c-.2617768-.0441661-.6125828-.102135-1.0117188-.1191406-.2304381-.0137717-.4468327-.0009136-.6269531-.0019532zm.5371094 1.0019532c.0095322.0004128.0281401-.0005695.0371094 0a.49922821.49922821 0 0 0 .0097656 0c.3247881.0138379.6263015.0638232.8847656.1074218h.0019531c.2424365.0423531.3847514.1074136.3359375.0742188a.49922821.49922821 0 0 1 .0019532.0019531c.0838593.0564565.1226287.0964186.1523437.1269531.0007633-.0018464.0031704-.0079651.0039063-.0097656.0361849-.0885071.0133681-.033802.0292968.0117188.0194905.055919.007304.0396712-.0332031-.0019532-.0993129.2402464-.4268083.864766-.4121094 1.8183594.0147975.9594224.3532485 1.739484.9238281 2.2597656.5680748.5181408 1.3277938.7788844 2.1210938.7792969.793293-.0004125 1.553016-.2611522 2.121094-.7792969.570579-.5202801.909037-1.3003384.923828-2.2597656.014678-.9523243-.312318-1.5754461-.41211-1.8164062-.038873.0396843-.050185.0529491-.03125-.0019532.008906-.0413438-.006032-.0913916.027344-.0097656.000863.0021121.003006.0095435.003906.0117188.029054-.0296596.068196-.0708248.150391-.1269532-.042515.0283398.098744-.0374494.339844-.078125a.49922821.49922821 0 0 1 .001953 0c.255578-.0442844.55818-.0935077.884766-.1074218a.49922821.49922821 0 0 0 .009765 0c.009024-.000573.027534.0004193.03711 0-.051761.5203779-.126519 1.2561388-.1875 2.4765625-.042664.8578805-.070499 1.7854359-.03711 2.5527343.017448.4011227.07071.7354366.119141 1.015625.048309.2794882.078882.5550288.269531.8378907.190874.2835641.374517.5556141.742188.6855471a.49922821.49922821 0 0 1 .001953 0c.38012.131995.692126-.028249.835937-.083985a.49922821.49922821 0 0 0 .009766-.001953c.364861-.149121.651167-.313237 1.361328-.302734.697882.010643 1.106573.214673 1.384766.519531.276329.3029.439217.760479.439453 1.296875-.000244.536534-.152528.943298-.439453 1.257813-.278268.305022-.687088.5092-1.384766.519531-.709204.010698-.99472-.154852-1.361328-.304688a.49922821.49922821 0 0 0 -.009766-.001953c-.150373-.05827-.462476-.209462-.835937-.080078-.371752.129326-.553636.402658-.744141.685547-.190378.282714-.221216.558361-.269531.837891-.049667.287156-.101735.650964-.119141 1.050781-.033332.766578-.005708 1.658316.03711 2.515625.061241 1.22578.134467 1.955465.185547 2.478516-.012478-.000855-.022656-.001161-.035157-.001954a.49922821.49922821 0 0 0 -.009765 0c-.324803-.013839-.626814-.064673-.884766-.109375-.249704-.043153-.394416-.108745-.337891-.070312a.49922821.49922821 0 0 1 -.001953-.001953c-.084607-.05696-.124117-.097901-.152344-.126953-.000765.001853-.003167.007958-.003906.009765-.034892.085333-.016919.026163-.02539-.011718-.017032-.048234-.006831-.035234.029296.001953.099934-.241745.426809-.868935.41211-1.822266-.014794-.95974-.353447-1.739519-.923828-2.259766-.569161-.518987-1.329641-.774979-2.121094-.77539-.791454.000411-1.551933.256404-2.1210938.77539-.5703788.520245-.9090432 1.30002-.9238281 2.259766-.0146837.952068.3117037 1.577856.4121094 1.820313.0383292-.039451.049713-.053474.03125 0-.0083628.040421.0065561.094621-.0273437.011718-.0008668-.00212-.0030022-.009535-.0039063-.011718-.0289736.029821-.0683105.070894-.1503906.126953.0502524-.0335-.0939593.032731-.3398438.074218a.49922821.49922821 0 0 1 -.0019531 0c-.2579433.044699-.55997.095537-.8847656.109375-.0167965.000747-.0283171.001033-.0449219.001954.0510827-.523067.1243012-1.252738.1855469-2.478516.0428908-.857356.0704647-1.749056.0371094-2.515625-.0173921-.399854-.0694958-.763675-.1191407-1.050781-.0483165-.279515-.079134-.555163-.2695312-.837891-.1908199-.283355-.3743687-.55554-.7421875-.685547a.49922821.49922821 0 0 1 -.0019532 0c-.371759-.129076-.6857972.019267-.8398437.080078a.49922821.49922821 0 0 0 -.0058594.001953c-.3664199.149759-.6519754.31518-1.3613281.304688-.6979294-.010643-1.1065954-.214615-1.3847656-.519531-.286926-.314513-.4392082-.721276-.4394532-1.257813.0002449-.536408.1631261-.99398.4394532-1.296875.2783003-.304971.6871388-.509202 1.3847656-.519531.7100144-.010711.9962829.153535 1.3613281.302734a.49922821.49922821 0 0 0 .0097657.001953c.1417711.054934.4546991.217678.8359374.083985.3720545-.129172.5536179-.402506.7441407-.6855471.1906408-.2828562.2212236-.5583961.2695312-.8378907.0484278-.2801859.1016883-.6145067.1191407-1.015625.0333884-.7672094.0057684-1.6946898-.0371094-2.5527343-.060984-1.220422-.1357377-1.9561768-.1875-2.4765625z" fill="#fafafa"/></svg>