<svg viewBox="0 0 24 24" xmlns="http://www.w3.org/2000/svg"><g fill="#1e8bcd"><rect height="2" ry="1" width="2" x="4" y="3"/><rect height="2" ry="1" width="2" x="9" y="3"/><rect height="2" ry="1" width="2" x="14" y="3"/><rect height="2" ry="1" width="2" x="19" y="3"/></g><path d="m3 1c-.554 0-1 .446-1 1v9c.265199.000051.5195195.105433.7070312.292969l.2929688.292969v-9.585938h4.5859375l-.2929687-.2929688c-.1875363-.1875117-.2929177-.4418322-.2929688-.7070312zm10 0c-.000051.265199-.105433.5195195-.292969.7070312l-.292969.2929688h9.585938v12.560547c.37769.221459.713549.499861 1 .828125v-13.388672c0-.554-.446-1-1-1zm-10 15.414062-.2929688.292969c-.1875117.187536-.4418322.292918-.7070312.292969v4c0 .554.446 1 1 1h13v-1h-13z" fill="#fafafa"/><g fill="#1e8bcd"><rect height="2" ry="1" width="2" x="4" y="8"/><rect height="2" ry="1" width="2" x="9" y="8"/><rect height="2" ry="1" width="2" x="14" y="8"/><rect height="2" ry="1" width="2" x="19" y="8"/><rect height="2" ry="1" width="2" x="4" y="13"/><rect height="2" ry="1" width="2" x="9" y="13"/><rect height="2" ry="1" width="2" x="14" y="13"/><path d="m20 13c-.554 0-1 .446-1 1 0 .047809.020918.088782.027344.134766.313231-.079661.635804-.134766.972656-.134766.336947 0 .661486.049831.972656.132812.006251-.04537.027344-.085669.027344-.132812 0-.554-.446-1-1-1z"/><rect height="2" ry="1" width="2" x="4" y="18"/><rect height="2" ry="1" width="2" x="9" y="18"/><rect height="2" ry="1" width="2" x="14" y="18"/><path d="m20 15c1.656854 0 3 1.343146 3 3v4 1h-2v-1-4c0-.552285-.447715-1-1-1s-1 .447715-1 1v4h-2v-4c0-1.656854 1.343146-3 3-3z" fill="#ed3d3b"/><path d="m-19 22h2v1h-2z" transform="scale(-1 1)"/><g fill-rule="evenodd"><path d="m10 5 2 2h-4z"/><path d="m10 3 2-2h-4z"/><path d="m6 14 2-2v4z"/><path d="m4 14-2-2v4z"/></g><path d="m23 22h-2v1h2z" fill="#1e8bcd"/></g></svg>