<svg height="24" viewBox="0 0 6.3499999 6.3500002" width="24" xmlns="http://www.w3.org/2000/svg"><g stroke-width=".264583" transform="translate(0 -290.64998)"><path d="m3 2c-.5539993 0-1 .4460007-1 1v18c0 .553999.4460007 1 1 1h18c.553999 0 1-.446001 1-1v-18c0-.5539993-.446001-1-1-1zm0 1h18v18h-18z" fill="#fafafa" stroke-width=".999999" transform="matrix(.26458334 0 0 .26458334 0 290.64998)"/><g fill="#c8c6c4"><rect height=".264583" rx=".132292" ry=".125565" width="2.116667" x="2.645833" y="292.23746"/><rect height=".264583" rx=".132292" ry=".125565" width="2.116667" x="2.645833" y="293.560377"/><rect height=".264583" rx=".132292" ry=".125565" width="2.116667" x="2.645833" y="294.883293"/></g><path d="m2.1166667 292.36976a.396875.396875 0 0 1 -.396875.39687.396875.396875 0 0 1 -.396875-.39687.396875.396875 0 0 1 .396875-.39688.396875.396875 0 0 1 .396875.39688z" fill="#1e8bcd"/><path d="m2.1166667 293.69267a.396875.396875 0 0 1 -.396875.39688.396875.396875 0 0 1 -.396875-.39688.396875.396875 0 0 1 .396875-.39687.396875.396875 0 0 1 .396875.39687z" fill="#fb983b"/><path d="m2.1166667 295.01559a.396875.396875 0 0 1 -.396875.39687.396875.396875 0 0 1 -.396875-.39687.396875.396875 0 0 1 .396875-.39688.396875.396875 0 0 1 .396875.39688z" fill="#c8c6c4"/></g></svg>