<svg viewBox="0 0 24 24" xmlns="http://www.w3.org/2000/svg"><path d="m5 2c-.554 0-1 .446-1 1v18c0 .554.446 1 1 1h14c.554 0 1-.446 1-1v-10.109375-3.640625-.2089844c0-.4506799.098038-.4254121-.605469-1.0664062l-3.30664-3.2382813c-.709525-.7368575-.710169-.7363281-1.09375-.7363281h-.332032-.662109zm0 1h9v4c0 .554.446 1 1 1h4v13h-14zm10 0 4 4h-4z" fill="#fafafa"/><path d="m6.0000209 10h1.0211345q.1535039 0 .2602892.08219.1134594.07534.1468299.20548l1.701891 6.21233q.093437.328767.1735261.767123.040045-.212329.086763-.404109.046719-.19863.1001111-.369863l1.9555073-6.19863q.03337-.116439.146829-.20548.11346-.089041.266963-.089041h.353727q.160178 0 .260289.08219.106785.07534.14683.20548l1.955506 6.21233q.05339.164384.100111.356164.04672.184932.08676.390411.04005-.205479.08009-.39726.04005-.19178.08676-.349315l1.695209-6.205479q.03337-.116439.14683-.20548.120134-.089041.273638-.089041h.954393l-2.662959 9h-1.101223l-2.10901-6.821918q-.03337-.09589-.06674-.205479-.02669-.116438-.06007-.246576-.02669.130138-.06007.246576-.0267.109589-.06007.205479l-2.1223577 6.821918h-1.0945495l-2.6629588-9z" fill="#fb983b"/></svg>