<svg viewBox="0 0 16 16" xmlns="http://www.w3.org/2000/svg">
/&amp;amp;gt;<path d="m.5 0c-.0123897.000191-.0247681.00084249-.0371094.00195313-.0163623.00115104-.032658.00310653-.0488281.00585937-.004566.00058807-.009124.00123917-.0136719.00195313-.009167.00169781-.0182856.0036517-.0273437.00585937-.001957.00063897-.00391.00129-.005859.0019531-.005229.0012181-.010438.0025204-.015625.0039063-.006564.0024669-.0130763.0050716-.0195313.0078125-.00722.0024401-.0143834.0050449-.0214844.0078125-.001957.00063898-.00391.00129-.005859.0019531-.0105955.0048427-.0210185.01005421-.03125.015625-.0147367.007743-.0290774.01621708-.0429687.02539062-.004598.0025322-.009156.0051367-.0136719.0078125-.005284.0038041-.0104935.0077111-.015625.01171875-.00596.0044262-.011821.0089847-.0175781.01367188-.001962.001288-.003915.00259-.005859.003906-.004645.004469-.009203.009027-.0136719.0136719-.003971.003841-.007878.007748-.0117188.0117187-.001962.001288-.003915.00259-.005859.003906-.00065284.00064924-.001304.0013-.001953.001953-.001309.001295-.002611.002597-.003906.003906-.003315.003856-.00657.007763-.009766.0117188-.006029.006355-.0118909.012868-.0175781.0195313-.001969.001937-.003922.00389-.005859.005859-.002659.003869-.005263.007776-.0078125.0117188-.01700012.0227684-.03202848.0469444-.04492187.0722656-.0055708.0102315-.0107823.0206545-.015625.03125-.0006631.001949-.0013141.003902-.0019531.005859-.0013248.002593-.0026269.005197-.0039063.007813-.0013668.004539-.002669.009096-.0039062.0136719-.0020208.004528-.0039741.009086-.0058594.0136719-.0020857.00647-.0040392.0129817-.0058594.0195313-.00000128.00065104-.00000128.001302 0 .001953-.0006631.001949-.0013142.003902-.0019531.005859-.0031741.0135571-.00578055.0272409-.0078125.0410156.00000127.00065104.00000127.001302 0 .001953-.00496679.02772636-.00758025.05582108-.00781433.08398595v12c.0002381.01174.00088955.02346.00195313.03516.00108599.01702.00304167.03397.00585937.05078.00203197.01377.00463841.02746.0078125.04101.00063897.002.00129.0039.0019531.0059-.00000128.000651-.00000128.0013 0 .002.0035152.0112.0074239.02228.01171875.0332.0012372.0046.0025394.0091.0039062.01367.0012793.0026.0025814.0052.0039063.0078-.00000127.000651-.00000127.0013 0 .002.00064536.0013.0012964.0026.0019531.0039.0048427.0106.01005421.02102.015625.03125.007743.01474.01621707.02908.02539062.04297.0061645.01.0126789.01976.01953125.0293.002549.0039.0051535.0078.0078125.01172.001937.002.00389.0039.005859.0059.005687.0067.0115487.01318.0175781.01953.004449.0053.009007.01051.0136719.01562.00064924.000653.0013.0013.001953.002.005736.0053.011597.01055.0175781.01563.004469.0046.009027.0092.0136719.01367.001944.0013.003897.0026.005859.0039.005757.0047.011618.0092.0175781.01367.005132.004.0103409.0079.015625.01172.004516.0027.009074.0053.0136719.0078.0138913.0092.0282321.01765.0429687.02539.0102314.0056.0206545.01078.03125.01563.001949.000663.003902.0013.005859.002.007101.0028.0142643.0054.0214844.0078.0115699.0043.0232967.0082.0351563.01172.001949.000663.003902.0013.005859.002.009058.0022.0181763.0042.0273437.0059.004548.000714.009106.0014.0136719.002.0161701.0028.0324658.0047.0488281.0059.00065104.000001.001302.000001.001953 0 .0116922.0011.0234182.0017.0351563.002h4.5v-.09419-.003906-.902344c-1.33333152 0-2.66666492 0-3.99999822 0 0-3.6666667 0-7.3333333 0-11 3.172561-.00000208 6.021536.0000034 9 0v2h1v-2.5c-.000238-.011738-.000889-.0234641-.002-.0351563-.000001-.00065104-.000001-.001302 0-.001953-.0012-.0163623-.0031-.032658-.0059-.0488281-.000588-.004566-.0012-.009124-.002-.0136719-.0092-.0441498-.02429-.0868547-.04492-.12695312-.0077-.0147366-.01622-.0290774-.02539-.0429687-.0025-.004598-.0051-.009156-.0078-.0136719-.076561-.11109863-.194905-.18647224-.328006-.20898448-.01617-.00275284-.032466-.00470833-.048828-.00585937-.011692-.00106358-.023418-.00171503-.035156-.00195313h-.625c-2.9166667 0-5.8333333 0-8.75 0z" fill="#fafafa"/><path d="m2 2v1h3.5 3.5v-1zm0 2v1h3v-1zm0 2v1h3v-.9023438-.0039062-.09375zm0 2v1h3v-.0898438-.9101562zm0 2v1h3v-.910156-.089844z" fill="#c8c6c4"/><path d="m5.5 3c-.01239.000191-.024768.0008425-.037109.00195-.016362.00115-.032658.00311-.048828.00586-.00457.0005881-.00912.00124-.013672.00195-.00917.0017-.018285.00365-.027344.00586-.00196.000639-.00391.00129-.00586.00195-.00523.00122-.010438.00252-.015625.00391-.00656.00247-.013076.00507-.019531.00781-.00722.00244-.014383.00504-.021484.00781-.00196.000639-.00391.00129-.00586.00195-.010595.00484-.021019.010054-.03125.015625-.014737.00774-.029077.016217-.042969.025391-.0046.00253-.00916.00514-.013672.00781-.00528.0038-.010493.00771-.015625.011719-.00596.00443-.011821.00898-.017578.013672-.00196.00129-.00392.00259-.00586.00391-.00465.00447-.0092.00903-.013672.013672-.00397.00384-.00788.00775-.011719.011719-.00196.00129-.00392.00259-.00586.00391-.0006529.0006492-.0013.0013-.00195.00195-.00131.00129-.00261.0026-.00391.00391-.00331.00386-.00657.00776-.00977.011719-.00603.00636-.011891.012868-.017578.019531-.00197.00194-.00392.00389-.00586.00586-.00266.00387-.00526.00778-.00781.011719-.017.022768-.032029.046944-.044922.072266-.00557.010232-.010782.020655-.015625.03125-.0006631.00195-.00131.0039-.00195.00586-.00132.00259-.00263.0052-.00391.00781-.00137.00454-.00267.0091-.00391.013672-.00202.00453-.00397.00909-.00586.013672-.00209.00647-.00404.012982-.00586.019531-.0000013.000651-.0000013.0013 0 .00195-.0006631.00195-.00131.0039-.00195.00586-.00317.013557-.00578.027241-.00781.041016.0000013.000651.0000013.0013 0 .00195-.0049595.0277364-.0075729.0558311-.007807.083996v12c.0002381.01174.0008895.02346.00195.03516.00109.01702.00304.03397.00586.05078.00203.01377.00464.02746.00781.04101.000639.002.00129.0039.00195.0059-.0000013.000651-.0000013.0013 0 .002.00352.0112.00742.02228.011719.0332.00124.0046.00254.0091.00391.01367.00128.0026.00258.0052.00391.0078-.0000013.000651-.0000013.0013 0 .002.0006453.0013.0013.0026.00195.0039.00484.0106.010054.02102.015625.03125.00774.01474.016217.02908.025391.04297.00616.01.012679.01976.019531.0293.00255.0039.00515.0078.00781.01172.00194.002.00389.0039.00586.0059.00569.0067.011549.01318.017578.01953.00445.0053.00901.01051.013672.01562.0006493.000653.0013.0013.00195.002.00574.0053.011597.01055.017578.01563.00447.0046.00903.0092.013672.01367.00194.0013.0039.0026.00586.0039.00576.0047.011618.0092.017578.01367.00513.004.010341.0079.015625.01172.00452.0027.00907.0053.013672.0078.013891.0092.028232.01765.042969.02539.010231.0056.020655.01078.03125.01563.00195.000663.0039.0013.00586.002.0071.0028.014264.0054.021484.0078.01157.0043.023297.0082.035156.01172.00195.000663.0039.0013.00586.002.00906.0022.018176.0042.027344.0059.00455.000714.00911.0014.013672.002.01617.0028.032466.0047.048828.0059.0006511.000001.0013.000001.00195 0 .011692.0011.023418.0017.035156.002h9.375.62501c.01174-.000238.02346-.000889.03516-.002.01702-.0011.03397-.003.05078-.0059.03266-.0053.06472-.01378.0957-.02539.0046-.0019.0091-.0038.01367-.0059.04131-.01751.08006-.04051.115235-.06836.004-.0032.0079-.0065.01172-.0098.0087-.0075.0172-.01533.02539-.02344.004-.0038.0079-.0077.01172-.01172.0081-.0082.01592-.01666.02344-.02539.0033-.0039.0066-.0078.0098-.01172.0068-.0089.01333-.01801.01953-.02734.0027-.0045.0053-.0091.0078-.01367.0092-.01389.01765-.02823.02539-.04297.0056-.01023.01078-.02065.01563-.03125.002-.0045.004-.0091.0059-.01367.0043-.01093.0082-.022.01172-.0332.0014-.0052.0027-.0104.0039-.01563.003-.01098.0056-.02205.0078-.0332.000714-.0045.0014-.0091.002-.01367.0028-.01617.0047-.03247.0059-.04883.000001-.000651.000001-.0013 0-.002.0011-.01169.0017-.02342.002-.03516 0-4 0-8 0-12-.000238-.011738-.000889-.023464-.002-.035156-.000001-.0006511-.000001-.0013 0-.00195-.0012-.016362-.0031-.032658-.0059-.048828-.000588-.00457-.0012-.00912-.002-.013672-.0092-.04415-.02429-.086855-.04492-.1269531-.0077-.014737-.01622-.029077-.02539-.042969-.0025-.0046-.0051-.00916-.0078-.013672-.07668-.1110985-.195024-.1864722-.328125-.2089844-.01617-.00275-.03247-.00471-.04883-.00586-.011756-.001296-.023482-.0019474-.03522-.0021855-3.125 0-6.25 0-9.375 0zm.5 1c3.172561-.0000021 6.021536.0000034 9 0v11c-3.051526-.000002-5.8502055 0-9 0 0-3.666667 0-7.3333333 0-11z" fill="#83beec"/><path d="m7 5v1h7v-1zm0 2v1h7v-1zm0 2v1h7v-1zm0 2v1h7v-1zm0 2v1h7v-1z" fill="#0063b1"/></svg>