<svg viewBox="0 0 16 16" xmlns="http://www.w3.org/2000/svg"><g fill="#fafafa"><g fill="#fafafa"><path d="m0 5v11h3v-1.90625-3.228516-.730468-3.228516-1.90625z"/><path d="m5 0v3h1.8574219 3.2675781.75 3.267578 1.857422v-3z"/><path d="m0 0h3v3h-3z"/></g><g fill="#797774"><path d="m1 6h1v9h-1z"/><g transform="rotate(-90)"><path d="m-2 6h1v9h-1z"/><path d="m-2 1h1v1h-1z"/></g></g></g><path d="m15.25 7.0000002-3.75 3.7499998-3.75-3.7499998-.75.75 3.75 3.7499998-3.75 3.75.75.75 3.75-3.75 3.75 3.75.75-.75-3.75-3.75 3.75-3.7499998z" fill="#ed3d3b"/></svg>