<svg viewBox="0 0 16 16" xmlns="http://www.w3.org/2000/svg">
/&amp;amp;gt;<g fill="#1e8bcd" transform="matrix(0 1 -1 0 16 0)"><path d="m.5 13c-.277 0-.5.223-.5.5s.223.5.5.5h.5v-1zm6.5 0v1h8.5c.277 0 .5-.223.5-.5s-.223-.5-.5-.5z" fill="#fafafa" transform="matrix(0 -1 1 0 0 16)"/><path d="m.5 2c-.277 0-.5.223-.5.5s.223.5.5.5h.5v-1zm8.5 0v1h6.5c.277 0 .5-.223.5-.5s-.223-.5-.5-.5z" fill="#fafafa" transform="matrix(0 -1 1 0 0 16)"/><path d="m5.5 1.0019531c-.1345093-.0001797-.2633927.05405-.3574219.1503907l-1.9492187 1.9511718c-.1299054.1003353-.1937249.248249-.1933594.3964844-.0003655.1482354.063454.2961491.1933594.3964844l1.9492187 1.9511718c.0940292.0963407.2229126.1505704.3574219.1503907.4471002-.0006665.6676852-.5446938.3476562-.8574219l-1.1367187-1.140625h4.2890625v-.5-.5h-4.2890625l1.1367187-1.140625c.320029-.3127281.0994441-.8567554-.3476562-.8574219z" fill-rule="evenodd"/><path d="m1 11v5h6v-5zm1 1h4v3h-4z" fill="#fafafa" transform="matrix(0 -1 1 0 0 16)"/><path d="m1 0v5h8v-5zm1 1h6v3h-6z" fill="#fafafa" transform="matrix(0 -1 1 0 0 16)"/><path d="m10.499998 1.0019531c.13451-.0001797.263393.05405.357422.1503907l1.949219 1.9511718c.129905.1003353.193725.248249.193359.3964844.000366.1482354-.06345.2961491-.193359.3964844l-1.949219 1.9511718c-.094029.0963407-.222912.1505704-.357422.1503907-.4471-.0006665-.6676848-.5446938-.347656-.8574219l1.136719-1.140625h-4.2890626v-.5-.5h4.2890626l-1.136719-1.140625c-.3200288-.3127281-.099444-.8567554.347656-.8574219z" fill-rule="evenodd"/></g></svg>