<svg viewBox="0 0 16 16" xmlns="http://www.w3.org/2000/svg">
/&amp;amp;amp;gt;<path d="m3 0c-.554 0-1 .446-1 1v14c0 .554.446 1 1 1h3.0292969c-.0276409-.102762-.046762-.209222-.0488281-.324219-.0021911-.121989.1127475-.216802.1484374-.339843a1.0001 1.0001 0 0 1 .0722657-.335938h-3.2011719v-14h6v3.5c0 .277.223.5.5.5h3.5v5.890625c.248709.193869.570418.372351 1 .521484v-6.912109-.8632812l-3.636719-3.6367188h-.863281zm7 1 3 3h-3zm3 13.091797v.908203h-2.740234c-.4043262.254714-.837182.598968-1.2871098 1h4.0273438c.554 0 1-.446 1-1v-.800781c-.131309-.034591-.269199-.064778-.396484-.101563-.202397-.015855-.40245-.012679-.603516-.005859z" fill="#fafafa"/><path d="m7.3552524 15.644758c3.9201846-3.277907 3.6057646-5.7662152 3.4784016-8.2894016-.561677 4.0514056 1.529192 5.5007666 4.81093 5.7819296-2.474792-.780342-5.097383-.732202-8.2893316 2.507472z" fill="none" stroke="#ed3d3b" stroke-linecap="round" stroke-linejoin="round" stroke-width=".711393"/></svg>