<svg viewBox="0 0 16 16" xmlns="http://www.w3.org/2000/svg">
/&amp;amp;amp;amp;amp;gt;<path d="m3 0c-.554 0-1 .446-1 1v14c0 .554.446 1 1 1h2 1.0292969 1.2539062c-.0010423-.001761-.0009156-.004095-.0019531-.005859-.0795757-.135403-.1433367-.279235-.1894531-.431641-.006781-.021559-.013487-.042609-.0195313-.064453-.0426401-.160601-.0722656-.325482-.0722656-.498047h-.7988281-1.2011719-2v-14h6v3.5c0 .277.223.5.5.5h2.5 1v.1464844c.350784.0923314.685842.2307408 1 .4121094v-1.0585938-.8632812l-3.636719-3.6367188h-.863281zm7 1 3 3h-3z" fill="#fafafa"/><path d="m4.5 4c-.277 0-.5.223-.5.5s.223.5.5.5h3c.277 0 .5-.223.5-.5s-.223-.5-.5-.5zm0 6c-.277 0-.5.223-.5.5s.223.5.5.5h2.0957031l-.0175781-.015625c.238059-.038619.421875-.235075.421875-.484375 0-.277-.223-.5-.5-.5h-.3886719zm0 3c-.277 0-.5.223-.5.5s.223.5.5.5h1.9628906.5371094v-1h-.8886719z" fill="#c8c6c4"/><path d="m4.5 7c-.277 0-.5.223-.5.5s.223.5.5.5h2.6699219.9765625c.0923314-.3507835.2307408-.6858415.4121094-1h-1.3886719z" fill="#fb983b"/><path d="m12 6a3 3 0 0 0 -3 3v1c-.554 0-1 .446-1 1v4c0 .554.446 1 1 1h6c.554 0 1-.446 1-1v-4c0-.554-.461794-.86866-1-1v-1a3 3 0 0 0 -3-3zm0 1a2 2 0 0 1 2 2v1h-4v-1a2 2 0 0 1 2-2z" fill="#f8db8f"/><path d="m9 11h6v4h-6z" fill="#ed8733"/></svg>