<svg viewBox="0 0 16 16" xmlns="http://www.w3.org/2000/svg">
/&amp;amp;amp;gt;<path d="m3 0c-.554 0-1 .446-1 1v14c0 .554.446 1 1 1h2 1.0292969.3066406l-.0429687-.042969a1.0007407 1.0007407 0 0 1 -.2597657-.957031h-1.0332031-2v-14h6v3.5c0 .277.223.5.5.5h3.5v2.8359375l1-1v-2.3359375-.8632812l-3.636719-3.6367188h-.863281zm7 1 3 3h-3zm4 10.164062-.335938.335938.335938.335938zm-3.835938 3.835938-.9999995 1h1.8359375 2c.234233 0 .439301-.092652.609375-.226562l-.773437-.773438h-1.835938-.740234z" fill="#fafafa"/><path d="m4.5 4c-.277 0-.5.223-.5.5s.223.5.5.5h3c.277 0 .5-.223.5-.5s-.223-.5-.5-.5zm0 6c-.277 0-.5.223-.5.5s.223.5.5.5h3c.277 0 .5-.223.5-.5s-.223-.5-.5-.5zm0 3c-.277 0-.5.223-.5.5s.223.5.5.5h1.9628906.3730469l1-1h-1.3359375z" fill="#c8c6c4"/><path d="m4.5 7c-.277 0-.5.223-.5.5s.223.5.5.5h1.5332031a1.0007407 1.0007407 0 0 1 .2597657-.9570312l.0429687-.0429688zm4.6640625 0 .9999995 1h.335938c.277 0 .5-.223.5-.5s-.223-.5-.5-.5z" fill="#fb983b"/><path d="m15.25 7.0000002-3.75 3.7499998-3.75-3.7499998-.75.75 3.75 3.7499998-3.75 3.75.75.75 3.75-3.75 3.75 3.75.75-.75-3.75-3.75 3.75-3.7499998z" fill="#ed3d3b"/></svg>