<svg viewBox="0 0 16 16" xmlns="http://www.w3.org/2000/svg">
/&amp;amp;amp;gt;<path d="m3 3v1.4708746c0 .1699029.04016.3058253.120482.407767.08534.1019417.190764.1771844.316265.2257281l2.5632539.8956313v3.999999l-2.5557239.881068c-.110441.03883-.213353.114077-.308734.225728-.09036.106796-.128316.240454-.135543.400486v1.492718l10-4.0242715v-1.9514563zm4.0000009 6.8470875v-3.694174l4.1777101 1.8543684z" fill="#1e8bcd"/><path d="m1 0c-.554 0-1 .446-1 1v14c0 .554.446 1 1 1h14c.554 0 1-.446 1-1v-14c0-.554-.446-1-1-1zm0 1h14v14h-14z" fill="#fafafa"/></svg>