<svg viewBox="0 0 16 16" xmlns="http://www.w3.org/2000/svg">


/&amp;amp;amp;gt;<path d="m1 4v3.390625l1-1.6660156v-1.7246094zm13 0v1.7246094l1 1.6660156v-3.390625zm-6.2695312 11c-.1740299.376807-.4162843.714794-.7128907 1h1.9648438c-.2966063-.285206-.5388607-.623193-.7128907-1z" fill="#fafafa"/><path d="m1 0v4h14v-4zm1 1h12v2h-12z" fill="#fafafa"/><path d="m2 1h12v2h-12z" fill="#c8c6c4" stroke-width=".654654"/><path d="m4 3-1 1-3 5v1 2c.17905119 1.133504 1.2418124 2 2.5 2h2c1.2581876 0 2.3209488-.866496 2.5-2v-2h2v2c.179052 1.133504 1.241812 2 2.5 2h2c1.258188 0 2.320948-.866496 2.5-2v-2-1l-3-5-1-1h-3v3h1v-2h1.5l3 5h-13l3-5h1.5v2h1v-3zm-3 7h5v2c0 .554-1.115 1-2.5 1s-2.5-.446-2.5-1zm9 0h5v2c0 .554-1.115 1-2.5 1s-2.5-.446-2.5-1z" fill="#fafafa" transform="translate(0 2)"/></svg>