<svg height="24" viewBox="0 0 6.3499999 6.3500002" width="24" xmlns="http://www.w3.org/2000/svg" xmlns:xlink="http://www.w3.org/1999/xlink"><linearGradient id="a" gradientUnits="userSpaceOnUse" x1="13.870111" x2="15.393723" y1="26.825228" y2="6.157956"><stop offset="0" stop-color="#555"/><stop offset="1"/></linearGradient><linearGradient id="b" gradientUnits="userSpaceOnUse" x1="19.457708" x2="16.933138" y1="5.576836" y2="19.461974"><stop offset="0" stop-color="#3b3e22"/><stop offset="1" stop-color="#454545" stop-opacity="0"/></linearGradient><g transform="matrix(.171875 0 0 .171875 .264624 .264542)"><path d="m13.91662 10.206967q0-2.4307327-2.083485-2.6043564v-1.0417426h10.37402v1.0417426q-1.519208.2170297-1.909861.6510891-.347248.4340594-.347248 1.9532673v5.252119h.911525q.911525 0 1.60602-.824713.737901-.868119 1.041742-1.692832.303842-.868119.651089-1.996673.04341-.21703.08681-.347248 1.345585-4.4274055 5.208713-4.4274055 1.38899 0 2.257109.9115248.868119.9115247.868119 2.1268911 0 1.4758016-.824713 2.1702966-.824713.694495-1.779643.694495-1.345585 0-1.996674-1.215366-.04341-.130218-.217029-.564277-.130218-.4774655-.303842-.6944952-.130218-.2170297-.347248-.2170297-.607683 0-.998336 1.0851489-.390654 1.041742-.998337 2.691168-.607683 1.60602-1.649426 2.517545v.173623q1.866456.43406 3.125228 1.519208 1.302178 1.041743 1.866456 2.126891.564277 1.041743 1.302178 2.560951.737901 1.519208 1.38899 2.343921.868119 1.128554 2.126891 1.128554v1.041743h-6.858139l-3.429069-7.552634q-.08681-.130218-.303842-.434059-.217029-.303842-.303841-.390654-.04341-.130218-.21703-.347247-.173624-.21703-.303841-.303842-.08681-.08681-.260436-.173624-.173624-.08681-.390654-.130218-.173623-.0434-.390653-.0434h-.868119v5.729584q0 1.519208.347248 1.953267.390653.434059 1.909861.651089v1.041743h-10.374018v-1.041748q2.083485-.173624 2.083485-2.604356v-5.729584h-.868118q-.260436 0-.520872.08681-.217029.04341-.347247.130218-.130218.04341-.347248.303842-.217029.21703-.303841.303841-.04341.08681-.303842.477466-.260436.390653-.347247.520871l-3.4290698 7.552635h-6.85813869v-1.041743q1.30217819 0 2.12689109-1.128554.6510891-.824713 1.6494258-3.038416 1.0417426-2.257109 2.3439208-3.602693 1.3021782-1.38899 3.6895048-1.909862v-.173623q-1.0417424-.911525-1.6494256-2.517545-.6076832-1.649426-.9983366-2.691168-.3472476-1.0851489-.9549307-1.0851489-.2170297 0-.3906535.2170297-.1736238.2170297-.3472475.6510892-.1302178.434059-.2170297.607683-.5642773 1.215366-1.9532674 1.215366-.9549307 0-1.7796436-.694495-.8247128-.694495-.8247128-2.1702966 0-1.2153664.8247128-2.1268911.8681189-.9115248 2.257109-.9115248 3.9065347 0 5.2521188 4.4274055.9115248 3.081822 1.7362378 4.036753.694495.824713 1.649426.824713h.911524z" fill="url(#a)" stroke-width="1.031186"/><path d="m16.505859 26.005859c-2.888922 0-4.861454.833353-6.5468746 2.583985-1.6667142 1.849837-2.4140625 3.767341-2.4140625 6.214844 0 3.219263.7931756 5.004184 2.1542969 6.15039 1.6866412 1.420328 3.2529972 1.992188 5.0058592 1.992188 2.713861 0 3.877276-.740633 4.945313-3.041016a2.6854929 2.6854929 0 0 1 .03711-.07422c.05805-.116107.340908-.835577.650391-1.867187a2.6854929 2.6854929 0 0 1 .07227-.220703c.496138-1.240392 1.007216-2.25658 1.712891-3.138672.779165-.973957 2.135178-1.830078 3.574219-1.830078 1.562186 0 3.090571.826731 4.066406 1.933593.975835 1.106863 1.58876 2.447053 2.095703 4.03125l-.03516-.125c.985374 2.627664 2.236023 6.017672 3.763672 10.164063 1.160145 3.0661 2.798301 5.093815 4.517578 6.939453-2.294268-3.189275-4.232584-7.834455-6.31836-14.882812l-.0078-.02148c-1.589771-5.218776-3.85606-8.895293-6.658217-11.257816-2.806624-2.36629-6.200938-3.550782-10.615235-3.550782zm94.820311 0c-4.35391 0-7.7021 1.178288-10.48242 3.542969-2.780322 2.364681-5.037487 6.050832-6.628906 11.28711a2.6854929 2.6854929 0 0 1 -.02148.06641c-.05828.174878-.150597.522529-.24414.990234a2.6854929 2.6854929 0 0 1 -.06641.265625c-.882447 2.867955-1.715572 5.410556-2.496093 7.640625a2.6854929 2.6854929 0 0 1 -.01367.04297c-.902959 2.450895-2.39982 4.834331-4.40625 7.197265-2.122587 2.520567-5.015966 4.076172-8.121094 4.076172h-3.447265a2.6854929 2.6854929 0 0 1 -2.6875-2.6875v-19.849614c0-4.033235.07592-6.773135 1.904296-9.058594a2.6854929 2.6854929 0 0 1 .103516-.117187c.839985-.933315 1.914974-1.456085 3.072266-1.919922h-28.095708c1.151075.610287 2.219846 1.346013 3.033204 2.363281 1.820364 2.276736 2.554687 5.287282 2.554687 8.732422v19.849609a2.6854929 2.6854929 0 0 1 -2.6875 2.6875h-3.439453c-2.976319 0-5.739217-1.389331-7.839844-3.652343a2.6854929 2.6854929 0 0 1 .679688 1.783203v.658203a2.6854929 2.6854929 0 0 1 -2.111328 2.621094c-5.628654 1.22807-9.728596 3.410628-12.564454 6.435547a2.6854929 2.6854929 0 0 1 -.0293.0293c-.869327.898305-1.719233 1.907348-2.552735 3.001954a75.635303 34.9086 0 0 0 12.365235 2.236328l1.570312-3.458985a2.6854929 2.6854929 0 0 1 .207031-.382812l1.306645-1.964848c.643877-.965809 1.122659-1.788286.988281-1.519531a2.6854929 2.6854929 0 0 1 .509766-.701172l1.0625-1.054688c.584762-.703444 1.086761-1.306291 2.289062-1.765625.530041-.278815 1.068345-.519943 1.63086-.642578.868622-.271181 1.761846-.435547 2.65039-.435547h3.277344a2.6854929 2.6854929 0 0 1 2.6875 2.6875v10.580078a75.635303 34.9086 0 0 0 2.898438.06641 75.635303 34.9086 0 0 0 14.529297-.681641v-9.964844a2.6854929 2.6854929 0 0 1 2.6875-2.6875h3.285156c.700426 0 1.386405.07222 2.066406.236328.731618.151975 1.440067.384093 2.089844.708985.534425.267212 1.013604.597272 1.484375 1.025391.583241.432831 1.065683.905835 1.541015 1.5.308372.385477.497944.831572.732422 1.232421.46026.480613.794777.929098 1.328125 1.675782.556505.779111.944681 1.329124 1.195313 1.705078a2.6854929 2.6854929 0 0 1 .207031.382812l.714844 1.576172a75.635303 34.9086 0 0 0 10.820311-2.8418c-.62318-.584036-1.298867-1.170734-2.035155-1.759765a2.6854929 2.6854929 0 0 1 -.08008-.06055c-2.809194-2.421687-6.308915-4.1541-10.660156-5.166016a2.6854929 2.6854929 0 0 1 -2.082032-2.613281v-.658203a2.6854929 2.6854929 0 0 1 .916016-2.021485c2.230439-1.951634 4.080727-4.715021 5.492187-8.445312 1.527648-4.146395 2.7783-7.536403 3.763672-10.164063l-.0059.03711c.567364-1.576 1.231529-2.903921 2.228516-3.986328.996986-1.082408 2.506182-1.890625 4.068362-1.890625 1.4004 0 2.82501.987155 3.51953 2.066406.69219.936198 1.13649 1.95613 1.48633 3.1875.32375.813833.52176 1.336031.67773 1.773437 1.26941 2.345439 2.58413 3.144532 5.14454 3.144532 1.75286 0 3.30901-.569842 4.99804-1.992188 1.36352-1.148224 2.16211-2.932726 2.16211-6.148437 0-2.420746-.76169-4.32126-2.53906-6.1875-1.69399-1.778682-3.6805-2.613282-6.5918-2.613282zm-3.85156 12.023438c-.0224-.05644-.0229-.06321-.0469-.123047l.0977.287109c-.0156-.05728-.0348-.107705-.0508-.164062zm-64.726563 27.117187c-.02678.03221-.05288.06111-.08008.09375l.169922-.183593zm-1.431641-7.683593a2.6854929 2.6854929 0 0 0 -.136718-.142579c.04433.04923.09177.09415.136718.142579zm-.136718-.142579c-.03906-.04337-.08252-.08101-.121094-.125.0083.0072.01317.02212.02148.0293a2.6854929 2.6854929 0 0 1 .09961.0957z" fill="url(#b)" stroke-width="3.897397" transform="scale(.26458334)"/></g></svg>