<svg height="16" viewBox="0 0 4.2333333 4.2333335" width="16" xmlns="http://www.w3.org/2000/svg" xmlns:xlink="http://www.w3.org/1999/xlink"><linearGradient id="a" gradientTransform="matrix(1.4623427 0 0 1.4623425 -7.463503 -400.2617)" gradientUnits="userSpaceOnUse" x1="18.981823" x2="18.82987" y1="294.72055" y2="275.16284"><stop offset="0" stop-color="#555"/><stop offset="1"/></linearGradient><linearGradient id="b" gradientUnits="userSpaceOnUse" x1="19.05" x2="19.05" y1="-2.116667" y2="10.583334"><stop offset="0" stop-color="#3b3e22"/><stop offset="1" stop-color="#454545" stop-opacity="0"/></linearGradient><g stroke-width="1.48483" transform="matrix(.12008485 0 0 .12008485 .155777 -.254314)"><path d="m9.736175 12.729247q0 2.062543 1.250026 3.437572 1.312527 1.312527 3.562574 1.312527 1.375029 0 2.937561-.50001 1.625034-.500011 2.500052-1.000021l.875019-.437509v-7.8126626q0-2.4375508-.812517-3.3750703-.750016-.9375195-3.187567-1.1875247v-.9375195h13.250276v.9375195q-2.500052.3125065-3.250068 1.1875247-.750015.8125169-.750015 3.3750703v16.2503386q0 3.250067.750015 4.187587.750016.937519 3.250068 1.250026v.937519h-13.250276v-.937519q2.562554-.312507 3.250068-1.187525.750016-.875018.750016-4.250088v-6.812642q-3.500073 2.187545-7.812663 2.187545-1.250026 0-2.562553-.250005-1.3125277-.312506-2.7500576-.937519-1.4375299-.687515-2.3750494-2.062543-.8750182-1.375029-.8750182-3.250068v-5.1251066q-.0625013-2.6250547-.812517-3.4375716-.7500156-.8125169-3.1875663-1.1250234v-.9375195h13.2502755v.9375195q-2.43755.3125065-3.250067 1.1875247-.750016.8125169-.750016 3.3750703z" fill="url(#a)" transform="scale(1.0525265 .95009484)"/><path d="m1.4350545 2.6463496c1.2690615.2115113 2.2810303.5048146 2.861324 1.0722861.7339259.7177085.9661594 1.8994552 1.0113079 3.611149a.58557282.52858499 0 0 1 0 .01292v4.8694693c0 1.103121.2798223 2.02018.8268229 2.798279.2067957.272739.4312566.518189.6723103.741556a30.428195 12.186411 0 0 0 4.5470094.153479c-.06938-.05594-.137373-.113328-.203606-.173115a.58557282.52858499 0 0 1 -.02067-.01705c-.975137-.968265-1.4676104-2.208831-1.4676104-3.622005v-4.7506142c0-1.6746733.2113301-2.846518.9456784-3.5646403a.58557282.52858499 0 0 1 0-.00156c.610725-.593697 1.655852-.9099106 2.955892-1.1301638zm17.2475255 0c1.272774.2013376 2.298385.5167119 2.867526 1.1539347.728185.7654033.992704 1.9459139.992704 3.5424195v7.4228022a.58557282.52858499 0 0 1 -.110071.307475 30.428195 12.186411 0 0 0 4.464326-.886767v-6.8435102c0-1.6693727.212827-2.8366231.941548-3.5553386.584591-.610217 1.628264-.9235935 2.945556-1.1410156z" fill="url(#b)"/></g><g fill="#010101" stroke-width=".033073"><rect height=".264583" rx=".059009" ry=".075903" width="4.233333" y="3.96875"/><rect height=".264583" rx=".059009" ry=".075903" width="4.233333" y="3.439583"/></g></svg>