<svg height="24" width="24" xmlns="http://www.w3.org/2000/svg" xmlns:xlink="http://www.w3.org/1999/xlink"><linearGradient id="a" gradientUnits="userSpaceOnUse" x1="1.01333" x2="5.293912" xlink:href="#c" y1="15.931441" y2="15.931441"/><linearGradient id="b" gradientUnits="userSpaceOnUse" x1="3.5" x2="3.5" xlink:href="#c" y1="28" y2="33"/><linearGradient id="c" gradientUnits="userSpaceOnUse" x1="3.5" x2="3.5" y1="28" y2="33"><stop offset="0" stop-color="#64baff"/><stop offset="1" stop-color="#3689e6"/></linearGradient><linearGradient id="d"><stop offset="0" stop-color="#555"/><stop offset="1" stop-color="#666"/></linearGradient><linearGradient id="e" gradientUnits="userSpaceOnUse" x1="26" x2="26" xlink:href="#d" y1="57" y2="35"/><linearGradient id="f" gradientUnits="userSpaceOnUse" x1="19" x2="19" xlink:href="#d" y1="52" y2="30"/><linearGradient id="g" gradientUnits="userSpaceOnUse" x1="26" x2="26" xlink:href="#d" y1="47" y2="25"/><linearGradient id="h" gradientUnits="userSpaceOnUse" x1="19" x2="19" xlink:href="#d" y1="42" y2="20"/><g transform="translate(-7 -25)"><path d="m15.5 43.5v2h7v-2z" fill="url(#e)"/><path d="m15.5 43.5v2h7v-2z" fill="none" opacity=".61" stroke="#000" stroke-linejoin="round"/><path d="m8.5 38.5v2h14v-2z" fill="url(#f)"/><path d="m8.5 38.5v2h14v-2z" fill="none" opacity=".61" stroke="#000" stroke-linejoin="round"/><path d="m15.5 33.5v2h7v-2z" fill="url(#g)"/><path d="m15.5 33.5v2h7v-2z" fill="none" opacity=".61" stroke="#000" stroke-linejoin="round"/><path d="m8.5 28.5v2h14v-2z" fill="url(#h)"/><path d="m8.5 28.5v2h14v-2z" fill="none" opacity=".61" stroke="#000" stroke-linejoin="round"/><g fill="#fff" transform="translate(6)"><path d="m16 29v.5h-12v.5h-1v-1z" opacity=".2"/><path d="m16 34v.5h-5v.5h-1v-1z" opacity=".2"/><path d="m16 39v.5h-12v.5h-1v-1z" opacity=".2"/><path d="m16 44v.5h-5v.5h-1v-1z" opacity=".2"/></g></g><path d="m1.4967728 12.549689h1.8727548q.6007834 0 1.0560646.09387.4599749.08918.7650602.295698.309779.201826.4646685.535073.1548895.328553.1548895.811996 0 .291005-.093872.54446-.089179.253456-.2628428.445894-.173664.192439-.4318131.32386-.2534555.126728-.5773154.16897v.04694q.3238599.05632.6054771.164276.2863109.10326.4975238.291005.211213.183051.3332471.464668.1220341.281618.1220341.685269 0 .469362-.1548894.840158-.1501959.366103-.4412004.624252-.2863109.253455-.6993495.38957-.4130386.136115-.9340306.136115h-2.2764065zm.8730135 2.910044h1.1452435q.3942642 0 .6618005-.0704.2675364-.0704.4318132-.206519.1642767-.140809.234681-.347328.075098-.211213.075098-.488137 0-.563234-.3614088-.807302-.3614089-.244073-1.1405499-.244073h-1.0466775zm0 .732205v2.478232h1.2485032q.4130386 0 .6899622-.09387.2816173-.09387.4505876-.262843.173664-.16897.2487619-.403651.075098-.239375.075098-.525686 0-.262843-.079792-.483443-.075098-.2206-.2534555-.37549-.173664-.159583-.4646685-.244068-.2910045-.08918-.7228176-.08918z" fill="url(#a)" transform="matrix(1.0177791 0 0 1.0177791 16.976616 -.272812)"/><path d="m5.7104557 8.3583889-.7509793-2.1262102h-2.5580234l-.7603666 2.1262102h-.88240069l2.52047439-6.8902354h.7979155l2.5251681 6.8902354zm-1.027903-2.9006577-.6946559-1.9900952q-.0281617-.0844852-.0704043-.2065193-.0375489-.1220342-.0797915-.2628428-.0422426-.1408086-.0844852-.2910045-.0422426-.1548895-.0797916-.3003917-.0328553.1455022-.0750979.3003917-.0422426.1548895-.0844852.3003917-.0422425.1408087-.0844851.2628428-.037549.1173405-.0657107.1971321l-.680575 1.9900952z" fill="url(#b)" transform="matrix(1.0159305 0 0 1.0159305 16.792579 .008458)"/><g stroke="#002e99"><path d="m1.4967728 12.549689h1.8727548q.6007834 0 1.0560646.09387.4599749.08918.7650602.295698.309779.201826.4646685.535073.1548895.328553.1548895.811996 0 .291005-.093872.54446-.089179.253456-.2628428.445894-.173664.192439-.4318131.32386-.2534555.126728-.5773154.16897v.04694q.3238599.05632.6054771.164276.2863109.10326.4975238.291005.211213.183051.3332471.464668.1220341.281618.1220341.685269 0 .469362-.1548894.840158-.1501959.366103-.4412004.624252-.2863109.253455-.6993495.38957-.4130386.136115-.9340306.136115h-2.2764065zm.8730135 2.910044h1.1452435q.3942642 0 .6618005-.0704.2675364-.0704.4318132-.206519.1642767-.140809.234681-.347328.075098-.211213.075098-.488137 0-.563234-.3614088-.807302-.3614089-.244073-1.1405499-.244073h-1.0466775zm0 .732205v2.478232h1.2485032q.4130386 0 .6899622-.09387.2816173-.09387.4505876-.262843.173664-.16897.2487619-.403651.075098-.239375.075098-.525686 0-.262843-.079792-.483443-.075098-.2206-.2534555-.37549-.173664-.159583-.4646685-.244068-.2910045-.08918-.7228176-.08918z" fill="url(#a)" opacity=".5" stroke-width=".982531" transform="matrix(1.0177791 0 0 1.0177791 16.976616 -.272812)"/><path d="m5.7104557 8.3583889-.7509793-2.1262102h-2.5580234l-.7603666 2.1262102h-.88240069l2.52047439-6.8902354h.7979155l2.5251681 6.8902354zm-1.027903-2.9006577-.6946559-1.9900952q-.0281617-.0844852-.0704043-.2065193-.0375489-.1220342-.0797915-.2628428-.0422426-.1408086-.0844852-.2910045-.0422426-.1548895-.0797916-.3003917-.0328553.1455022-.0750979.3003917-.0422426.1548895-.0844852.3003917-.0422425.1408087-.0844851.2628428-.037549.1173405-.0657107.1971321l-.680575 1.9900952z" fill="none" opacity=".5" stroke-width=".984319" transform="matrix(1.0159305 0 0 1.0159305 16.792579 .008458)"/></g></svg>