<svg viewBox="0 0 24 24" xmlns="http://www.w3.org/2000/svg" xmlns:xlink="http://www.w3.org/1999/xlink"><linearGradient id="a" gradientTransform="matrix(.40540511 0 0 .51351351 2.269687 -.324319)" gradientUnits="userSpaceOnUse" x1="23.99999" x2="23.99999" y1="6.473675" y2="41.526306"><stop offset="0" stop-color="#fff"/><stop offset="0" stop-color="#fff" stop-opacity=".235294"/><stop offset="1" stop-color="#fff" stop-opacity=".156863"/><stop offset="1" stop-color="#fff" stop-opacity=".392157"/></linearGradient><linearGradient id="b" gradientTransform="matrix(.48571543 0 0 .45629666 2.396742 .365522)" gradientUnits="userSpaceOnUse" x1="25.132275" x2="25.132275" y1=".985206" y2="47.013336"><stop offset="0" stop-color="#f4f4f4"/><stop offset="1" stop-color="#dbdbdb"/></linearGradient><radialGradient id="c" cx="605.71429" cy="486.64789" gradientTransform="matrix(.01204859 0 0 .0082353 15.292706 18.997224)" gradientUnits="userSpaceOnUse" r="117.14286" xlink:href="#d"/><linearGradient id="d"><stop offset="0"/><stop offset="1" stop-opacity="0"/></linearGradient><radialGradient id="e" cx="605.71429" cy="486.64789" gradientTransform="matrix(-.01204859 0 0 .0082353 12.815119 18.997224)" gradientUnits="userSpaceOnUse" r="117.14286" xlink:href="#d"/><linearGradient id="f" gradientTransform="matrix(.0352071 0 0 .0082353 1.329061 18.997207)" gradientUnits="userSpaceOnUse" x1="302.85715" x2="302.85715" y1="366.64789" y2="609.50507"><stop offset="0" stop-opacity="0"/><stop offset=".5"/><stop offset="1" stop-opacity="0"/></linearGradient><g transform="matrix(-1 0 0 1 24 0)"><path d="m1 4v1h1v4h-1v1h1 1 1v-1h-1v-4h1v-1h-1-1z" fill="#fff" opacity=".35"/><path d="m5.553914 22.01666h16.999998v2h-16.999998z" fill="url(#f)" opacity=".15"/><path d="m5.5539129 22.016745v1.999891c-.6204724.0038-1.4999999-.448075-1.4999999-1.000075 0-.551999.6924-.999816 1.4999999-.999816z" fill="url(#e)" opacity=".15"/><path d="m22.553913 22.016745v1.999891c.620472.0038 1.5-.448075 1.5-1.000075 0-.551999-.692402-.999816-1.5-.999816z" fill="url(#c)" opacity=".15"/><path d="m5.5538731 1.516617c3.8955809 0 17.0000589.00136 17.0000589.00136l.000021 20.998716s-11.333386 0-17.0000799 0c0-7.000018 0-14.0000349 0-21.0000537z" fill="url(#b)"/><g fill="none" transform="translate(2.053913 .01666)"><path d="m19.5 21.5h-15.0000004v-18.9999997h15.0000004z" stroke="url(#a)" stroke-linecap="round"/><path d="m3.4460282 1.4819799c3.8955809 0 17.0000588.00136 17.0000588.00136l.000021 20.9987161s-11.3333861 0-17.0000798 0c0-7.000018 0-14.000035 0-21.0000538z" opacity=".3" stroke="#000" stroke-linejoin="round" stroke-width=".999922"/></g><path d="m1 3v1h1v4h-1v1h1 1 1v-1h-1v-4h1v-1h-1-1z" fill="#4c4c4c"/><path d="m7 4h14v2h-13.998z" fill="#f37329"/><g fill="#616161"><rect height="1" rx=".5" width="13" x="8" y="9"/><rect height="1" rx=".5" width="13" x="8" y="12"/><rect height="1" rx=".5" width="13" x="8" y="15"/><rect height="1" rx=".5" width="13" x="8" y="18"/></g></g></svg>