<svg height="24" width="24" xmlns="http://www.w3.org/2000/svg" xmlns:xlink="http://www.w3.org/1999/xlink"><linearGradient id="a"><stop offset="0"/><stop offset="1" stop-opacity="0"/></linearGradient><radialGradient id="b" cx="13.617249" cy="20.504448" gradientTransform="matrix(.62033209 -.02876011 .00638419 .13770167 -1.724185 10.874947)" gradientUnits="userSpaceOnUse" r="8.063" xlink:href="#a"/><linearGradient id="c" gradientTransform="matrix(3.7978675 .2112311 -.2112311 3.7978675 97.572606 -1126.4105)" gradientUnits="userSpaceOnUse" x1="7.687559" x2="6.853936" y1=".987388" y2="12.658106"><stop offset="0" stop-color="#ffe16b"/><stop offset="1" stop-color="#f9c440"/></linearGradient><linearGradient id="d" gradientUnits="userSpaceOnUse" x1="6.853936" x2="6.853936" y1="3.071445" y2="9.740427"><stop offset="0" stop-color="#fff"/><stop offset=".508" stop-color="#fff" stop-opacity=".235"/><stop offset=".835" stop-color="#fff" stop-opacity=".157"/><stop offset="1" stop-color="#fff" stop-opacity=".392"/></linearGradient><radialGradient id="e" cx="11.25" cy="19.031" gradientTransform="matrix(2.60465 0 0 .37206 -5.302 15.92)" gradientUnits="userSpaceOnUse" r="8.063" xlink:href="#a"/><linearGradient id="f" gradientTransform="matrix(0 1 1 0 2 -16)" gradientUnits="userSpaceOnUse" x1="4.715" x2="43.601" y1="22.595" y2="22.595"><stop offset="0" stop-color="#d1ff82"/><stop offset="1" stop-color="#68b723"/></linearGradient><linearGradient id="g" gradientTransform="matrix(-1.00464 0 0 1 53.044 -17.992)" gradientUnits="userSpaceOnUse" x1="35.794014" x2="34.883" y1="16.42416" y2="37.992"><stop offset="0" stop-color="#fff"/><stop offset=".52" stop-color="#fff" stop-opacity=".235"/><stop offset=".52" stop-color="#fff" stop-opacity=".157"/><stop offset="1" stop-color="#fff" stop-opacity=".392"/></linearGradient><g transform="matrix(-1 0 0 1 37.006356 -7.729343)"><path d="m43.666 22.923c0 4-25.757443 4.256621-25.757443.256621s25.757443-4.255621 25.757443-.256621z" fill="url(#e)" opacity=".163" transform="matrix(.44445 0 0 .44445 5.198 12.95)"/><path d="m23.272-6.46 16.9 14.428-16.916 14.424z" fill="url(#f)" transform="matrix(.44445 0 0 .44445 5.198 12.95)"/><g fill="none"><path d="m25.443483-1.6214585-.0143 13.6436085c.000001.000666.000001.0013 0 .002l-.02022 5.529822 11.270084-9.5665718z" fill="none" opacity=".6" stroke="url(#g)" stroke-width="2.249972" transform="matrix(.44445 0 0 .44445 5.198 12.95)"/><path d="m15.5 10.06 7.552 6.43-7.558 6.426z" opacity=".5" stroke="#206b00" stroke-width="1.000013"/></g></g><g transform="matrix(-1.1995834 0 0 1.1995834 16.221868 6.815546)"><path d="m2.2690111 2.2378223 3.1526416 1.1270865 1.4322834-3.02622472 1.4322837 3.02622482 3.1526412-1.1270867-1.127086 3.1526415 3.026224 1.4322835-3.026224 1.4322836 1.127086 3.1526412-3.1526413-1.127086-1.4322834 3.026224-1.4322837-3.026224-3.1526414 1.127086 1.1270866-3.1526412-3.02622475-1.4322835 3.02622475-1.4322837z" style="stroke:#ad5f00;stroke-width:.833623;stroke-linecap:round;stroke-linejoin:bevel;stroke-opacity:.498039;fill:url(#c)"/><path d="m11.855673 13.074918c0 1.482014-10.0942656 1.534705-10.0942656.05269s10.0942656-1.534335 10.0942656-.05269z" fill="url(#b)" opacity=".163" stroke-width=".370504"/><path d="m6.8535156 2.2382812-.6972656 1.4746094a.81270029.81270029 0 0 1 -1.0078125.4179688l-1.5351563-.5488282.5488282 1.5351563a.81270029.81270029 0 0 1 -.4179688 1.0078125l-1.4746094.6972656 1.4746094.6992188a.81270029.81270029 0 0 1 .4179688 1.0078125l-.5488282 1.5351561 1.5351563-.548828a.81270029.81270029 0 0 1 1.0078125.4179688l.6972656 1.4746092.6992188-1.4746092a.81270029.81270029 0 0 1 1.0078125-.4179688l1.5351561.548828-.548828-1.5351561a.81270029.81270029 0 0 1 .4179688-1.0078125l1.4746092-.6992188-1.4746092-.6972656a.81270029.81270029 0 0 1 -.4179688-1.0078125l.548828-1.5351563-1.5351561.5488282a.81270029.81270029 0 0 1 -1.0078125-.4179688z" style="fill:none;stroke-width:.833623;stroke-linecap:round;stroke-linejoin:bevel;stroke-opacity:.498039;stroke:url(#d)"/></g></svg>