<svg height="24" width="24" xmlns="http://www.w3.org/2000/svg" xmlns:xlink="http://www.w3.org/1999/xlink"><radialGradient id="a" cx="11.03125" cy="17.125" gradientTransform="matrix(.63623879 0 0 .14315373 8.98149 18.449012)" gradientUnits="userSpaceOnUse" r="9.84375"><stop offset="0" stop-opacity=".119318"/><stop offset="1" stop-opacity="0"/></radialGradient><linearGradient id="b" gradientTransform="matrix(.57894734 0 0 .55555556 34.074641 10.496731)" gradientUnits="userSpaceOnUse" x1="11.192374" x2="11.192374" y1="-.740988" y2="30.298229"><stop offset="0" stop-color="#ff8c82"/><stop offset=".31209752" stop-color="#ed5353"/><stop offset=".57054454" stop-color="#c6262e"/><stop offset="1" stop-color="#a10705"/></linearGradient><linearGradient id="c" gradientUnits="userSpaceOnUse" x1="41.225124" x2="41.225124" y1="23.238064" y2="7.39004"><stop offset="0" stop-color="#7a0000"/><stop offset="1" stop-color="#a10705"/></linearGradient><linearGradient id="d" gradientTransform="matrix(.3077295 -.29497944 .3077295 .29497944 25.944842 17.144019)" gradientUnits="userSpaceOnUse" x1="36.010902" x2="16.331276" xlink:href="#e" y1="13.022708" y2="32.702335"/><linearGradient id="e"><stop offset="0" stop-color="#fff"/><stop offset="1" stop-color="#fff" stop-opacity="0"/></linearGradient><linearGradient id="f" gradientTransform="matrix(.3077295 -.29497944 .3077295 .29497944 25.634631 17.292858)" gradientUnits="userSpaceOnUse" x1="28.449389" x2="16.331276" xlink:href="#e" y1="20.584223" y2="32.702335"/><linearGradient id="g" gradientUnits="userSpaceOnUse" x1="3.5" x2="3.5" y1="28" y2="33"><stop offset="0" stop-color="#64baff"/><stop offset="1" stop-color="#3689e6"/></linearGradient><linearGradient id="h" gradientUnits="userSpaceOnUse" x1="3.5" x2="3.5" y1="29.5" y2="31.5"><stop offset="0" stop-color="#fff"/><stop offset=".49771357" stop-color="#fff" stop-opacity=".235294"/><stop offset=".74999994" stop-color="#fff" stop-opacity=".156863"/><stop offset="1" stop-color="#fff" stop-opacity=".392157"/></linearGradient><linearGradient id="i"><stop offset="0" stop-color="#555"/><stop offset="1" stop-color="#666"/></linearGradient><linearGradient id="j" gradientUnits="userSpaceOnUse" x1="26" x2="26" xlink:href="#i" y1="57" y2="35"/><linearGradient id="k" gradientUnits="userSpaceOnUse" x1="19" x2="19" xlink:href="#i" y1="52" y2="30"/><linearGradient id="l" gradientUnits="userSpaceOnUse" x1="26" x2="26" xlink:href="#i" y1="47" y2="25"/><linearGradient id="m" gradientUnits="userSpaceOnUse" x1="19" x2="19" xlink:href="#i" y1="42" y2="20"/><g transform="translate(-7 -25)"><path d="m15.5 43.5v2h7v-2z" fill="url(#j)"/><path d="m15.5 43.5v2h7v-2z" fill="none" opacity=".61" stroke="#000" stroke-linejoin="round"/><path d="m8.5 38.5v2h14v-2z" fill="url(#k)"/><path d="m8.5 38.5v2h14v-2z" fill="none" opacity=".61" stroke="#000" stroke-linejoin="round"/><path d="m15.5 33.5v2h7v-2z" fill="url(#l)"/><path d="m15.5 33.5v2h7v-2z" fill="none" opacity=".61" stroke="#000" stroke-linejoin="round"/><path d="m8.5 28.5v2h14v-2z" fill="url(#m)"/><path d="m8.5 28.5v2h14v-2z" fill="none" opacity=".61" stroke="#000" stroke-linejoin="round"/><g fill="#fff" transform="translate(6)"><path d="m16 29v.5h-12v.5h-1v-1z" opacity=".2"/><path d="m16 34v.5h-5v.5h-1v-1z" opacity=".2"/><path d="m16 39v.5h-12v.5h-1v-1z" opacity=".2"/><path d="m16 44v.5h-5v.5h-1v-1z" opacity=".2"/></g></g><g transform="translate(17 -25)"><path d="m5.5 30.5a2 2 0 0 1 -2 2 2 2 0 0 1 -2-2 2 2 0 0 1 2-2 2 2 0 0 1 2 2z" fill="url(#g)"/><g fill="none"><path d="m5.5 30.5a2 2 0 0 1 -2 2 2 2 0 0 1 -2-2 2 2 0 0 1 2-2 2 2 0 0 1 2 2z" opacity=".5" stroke="#002e99"/><path d="m4.5 30.5a1 1 0 0 1 -1 1 1 1 0 0 1 -1-1 1 1 0 0 1 1-1 1 1 0 0 1 1 1z" opacity=".5" stroke="url(#h)"/></g></g><g transform="translate(17 -15)"><path d="m5.5 30.5a2 2 0 0 1 -2 2 2 2 0 0 1 -2-2 2 2 0 0 1 2-2 2 2 0 0 1 2 2z" fill="url(#g)"/><g fill="none"><path d="m5.5 30.5a2 2 0 0 1 -2 2 2 2 0 0 1 -2-2 2 2 0 0 1 2-2 2 2 0 0 1 2 2z" opacity=".5" stroke="#002e99"/><path d="m4.5 30.5a1 1 0 0 1 -1 1 1 1 0 0 1 -1-1 1 1 0 0 1 1-1 1 1 0 0 1 1 1z" opacity=".5" stroke="url(#h)"/></g></g><g transform="matrix(.87817681 0 0 .88433535 3.449172 3.270754)"><path d="m22.262975 20.900519a6.2629757 1.4091694 0 0 1 -12.5259514 0 6.2629757 1.4091694 0 1 1 12.5259514 0z" fill="url(#a)" opacity=".4"/><g transform="translate(-25.02201 -.941175)"><path d="m46.52201 20.385514-3.184991-2.946158 3.06471-3.086417-2.209232-1.911764-3.154011 2.941176-3.217945-2.941176-2.298531 1.982082 3.217944 3.003528-3.217944 2.955566 2.298531 2.058824 3.214211-3.088236 3.22168 3.088236z" fill="url(#b)" stroke="url(#c)" stroke-linejoin="round"/><g fill="none"><path d="m44.93385 14.418281-.647334-.627116-3.264508 2.866366-3.225731-2.863558-.824531.673766" opacity=".5" stroke="url(#d)" stroke-linecap="square"/><path d="m45.42749 20.732088-2.99345-2.713434m-2.968147.03651-2.804358 2.701545" opacity=".4" stroke="url(#f)"/></g></g></g></svg>