<svg viewBox="0 0 24 24" xmlns="http://www.w3.org/2000/svg" xmlns:xlink="http://www.w3.org/1999/xlink"><linearGradient id="a" gradientUnits="userSpaceOnUse" x1="-15.949153" x2="-15.949153" y1="10.3653" y2="-3.6347"><stop offset="0" stop-color="#2d2d2d"/><stop offset=".08333334" stop-color="#2d2d2d"/><stop offset="1" stop-color="#2d2d2d"/></linearGradient><path d="m3 5h18v14h-18z" fill="url(#a)"/><path d="m3 2c-.554 0-1 .446-1 1v18c0 .554.446 1 1 1h18c.554 0 1-.446 1-1v-18c0-.554-.446-1-1-1zm1 1h1v1h-1zm3 0h1v1h-1zm3 0h1v1h-1zm3 0h1v1h-1zm3 0h1v1h-1zm3 0h1v1h-1zm-16 2h6 3 1 3.5 4.5v14h-4.5v.5h-7.5v-.5h-6zm1 15h1v1h-1zm3 0h1v1h-1zm3 0h1v1h-1zm3 0h1v1h-1zm3 0h1v1h-1zm3 0h1v1h-1z" fill="#f2f2f7"/><path d="m12 5.4999996-1.5 5.0000004h-5l4 3-1 5 3.5-3 4.5 3-1.5-5 3.5-3h-4.5z" fill="#ffe014" stroke="#ff9f0a" stroke-linecap="round" stroke-linejoin="round"/></svg>