<svg viewBox="0 0 24 24" xmlns="http://www.w3.org/2000/svg" xmlns:xlink="http://www.w3.org/1999/xlink"><linearGradient id="a" gradientUnits="userSpaceOnUse" x1="25.095045" x2="17.496641" y1="2.156433" y2="-5.874086"><stop offset="0" stop-color="#409cff"/><stop offset="1" stop-color="#0a84ff"/></linearGradient><linearGradient id="b" gradientUnits="userSpaceOnUse" x1="13" x2="13" y1="23" y2="5"><stop offset="0" stop-color="#2d2d2d"/><stop offset=".22222222" stop-color="#2d2d2d"/><stop offset=".83333331" stop-color="#2d2d2d"/><stop offset="1" stop-color="#2d2d2d"/></linearGradient><linearGradient id="c" gradientUnits="userSpaceOnUse" x1="19.5" x2="19.5" y1="21.500001" y2="14.5"><stop offset="0" stop-color="#e5e5ea"/><stop offset=".07142864" stop-color="#e7e7e7"/><stop offset=".07142864" stop-color="#2d2d2d"/><stop offset=".5" stop-color="#2d2d2d"/><stop offset=".93333334" stop-color="#2d2d2d"/><stop offset="1" stop-color="#2d2d2d"/></linearGradient><linearGradient id="d" gradientUnits="userSpaceOnUse" x1="19.428571" x2="19.428571" y1="18.25" y2="21.285715"><stop offset="0" stop-color="#2d2d2d"/><stop offset="1" stop-color="#2d2d2d"/></linearGradient><g fill="#f2f2f7" transform="scale(-1 1)"><rect height="1" ry=".446068" width="20" x="-22" y="3"/><rect height="1" ry=".446068" width="20" x="-22" y="6"/><rect height="1" ry=".446068" width="20" x="-22" y="21"/><rect height="1" ry=".410114" width="5.999999" x="-8" y="15"/><rect height="1" ry=".423729" width="6.000001" x="-8" y="12"/><rect height="1" ry=".419102" width="9" x="-11" y="9"/><rect height="1" ry=".410114" width="9" x="-11" y="18"/></g><path d="m17.496642-5.8740859h7.433124c.411794 0 .743312.3315171.743312.743312v7.4331233c0 .4117949-.331518.743312-.743312.743312h-7.433124c-.411795 0-.743312-.3315171-.743312-.743312v-7.4331233c0-.4117949.331517-.743312.743312-.743312z" fill="url(#a)" transform="matrix(.70710679 .70710677 -.70710677 .70710679 0 0)"/><g transform="translate(-14 -1)"><path d="m16 13h7v10h-7z" fill="url(#b)"/><path d="m16 12c-.554 0-1 .446-1 1v10c0 .554.446 1 1 1h7c.554 0 1-.446 1-1v-10c0-.554-.446-1-1-1zm0 1h7v10h-7z" fill="#f2f2f7"/><g stroke-width=".607143"><path d="m17 14h5v8h-5z" fill="#f2f2f7"/><path d="m17.5 14.5h4v7h-4z" fill="url(#c)"/><path d="m18 16h3v2h-3z" fill="#5b5b5b"/><path d="m18 18h3v3h-3z" fill="url(#d)"/></g></g></svg>