<svg viewBox="0 0 24 24" xmlns="http://www.w3.org/2000/svg" xmlns:xlink="http://www.w3.org/1999/xlink"><filter id="a" color-interpolation-filters="sRGB" height="1.094553" width="1.097492" x="-.048746" y="-.047277"><feGaussianBlur stdDeviation=".36559322"/></filter><linearGradient id="b" gradientUnits="userSpaceOnUse" x1="17.5" x2="17.5" y1="24" y2="12"><stop offset="0" stop-color="#31de4b"/><stop offset="1" stop-color="#28d74b"/></linearGradient><path d="m9 19.940678h10v2.559322h-10z" filter="url(#a)" opacity=".15" stroke-width="1.015418"/><path d="m5 15.940678h10v2.559322h-10z" filter="url(#a)" opacity=".15" stroke-width="1.015418"/><path d="m5 3c-.554 0-1 .446-1 1v13c0 .554.446 1 1 1h4v-1h-4v-13h10v3h1v-3c0-.554-.446-1-1-1z" fill="#f2f2f7"/><path d="m5 4v13h4a8 8 0 0 1 6-7.7402344v-5.2597656z" fill="#2d2d2d"/><path d="m9 8v9 2.734375 1.265625h1 8 1v-9-2.734375-1.265625h-1-8z" fill="#2d2d2d"/><path d="m9 7c-.554 0-1 .446-1 1v11.410156 1.589844c0 .554.446 1 1 1h1 9c.554 0 1-.446 1-1v-11.4101562-1.5898438c0-.554-.446-1-1-1h-1zm0 1h9 1v1.265625 2.734375 9h-9-1v-1.265625-2.734375z" fill="#f2f2f7"/><path d="m17.5 12a6.5 6.5 0 0 0 -6.5 6.5 6.5 6.5 0 0 0 1.025391 3.5h6.974609c.1385 0 .270906-.027656.390625-.078125.359156-.151406.609375-.506375.609375-.921875v-2-5.914062-.583985a6.5 6.5 0 0 0 -2.5-.501953z" fill="#2d2d2d" fill-opacity=".784314"/><path d="m22.484375 12.501953c-.126911.0035-.247737.05514-.337891.144531l-1.414062 1.414063a5.5 5.5 0 0 0 -3.232422-1.060547 5.5 5.5 0 0 0 -5.5 5.5 5.5 5.5 0 0 0 5.5 5.5 5.5 5.5 0 0 0 5.019531-3.269531l-1.822265-.810547a3.5 3.5 0 0 1 -3.197266 2.080078 3.5 3.5 0 0 1 -3.5-3.5 3.5 3.5 0 0 1 3.5-3.5 3.5 3.5 0 0 1 1.792969.5l-1.646485 1.646484c-.316943.314565-.093028.855178.353516.853516h4.5c.276325.000442.500442-.223675.5-.5v-4.5c-.0005-.28179-.233987-.507317-.515625-.498047z" fill="url(#b)"/></svg>