<svg viewBox="0 0 24 24" xmlns="http://www.w3.org/2000/svg" xmlns:xlink="http://www.w3.org/1999/xlink"><linearGradient id="a" gradientUnits="userSpaceOnUse" x1="-19.59322" x2="-19.728813" y1="16.483051" y2="9.466102"><stop offset="0" stop-color="#409cff"/><stop offset="1" stop-color="#0a84ff"/></linearGradient><path d="m3 3.0527344c5.2776256.063492 10.804378.905688 17.625313 2.7353441l-3.519844 15.0654375c-5.024457-1.18661-9.2286611-1.888753-14.105469-1.853516z" fill="#2d2d2d"/><path d="m7 8-3 2.986668 3 2.986665v-1.493333c3.528502 0 5.021014.165688 7.537939.861581l-.537939 1.658419 4-2.1-2-3.9-.541372 1.53288c-2.606886-.6903672-5.107686-1.0395467-8.458628-1.0395467z" fill="url(#a)"/><path d="m2 2v18c5.6331795-.09222 10.264954.54261 16 2l4-17c-7.921679-2.2535205-14.1121066-2.9697029-20-3zm1 1.0527344c5.2776256.063492 10.804378.905688 17.625313 2.7353441l-3.519844 15.0654375c-5.024457-1.18661-9.2286611-1.888753-14.105469-1.853516z" fill="#f2f2f7"/></svg>