<svg viewBox="0 0 24 24" xmlns="http://www.w3.org/2000/svg" xmlns:xlink="http://www.w3.org/1999/xlink"><linearGradient id="a" gradientTransform="matrix(.70710679 .70710677 -.70710677 .70710679 -36 6)" gradientUnits="userSpaceOnUse" x1="44.271187" x2="40.203392" y1="-30.576271" y2="-34.135593"><stop offset="0" stop-color="#409cff"/><stop offset="1" stop-color="#0a84ff"/></linearGradient><path d="m16 3c0-.554-.446-1-1-1h-6c-.554 0-1 .446-1 1v11c0 .554.446 1 1 1h6c.554 0 1-.446 1-1z" fill="#ff9f0a"/><path d="m15 3v11h-6v-11z" fill="#fc0"/><path d="m3 12c-.554 0-1 .446-1 1v6c0 .554.446 1 1 1h13c.554 0 1-.446 1-1v-6c0-.554-.446-1-1-1z" fill="#f2f2f7"/><path d="m3 13h13v6h-13z" fill="#f2f2f7"/><path d="m11 9c-.554 0-1 .446-1 1v6c0 .554.446 1 1 1h10c.554 0 1-.446 1-1v-6c0-.554-.446-1-1-1z" fill="#409cff"/><path d="m11 10h10v6h-10z" fill="url(#a)"/></svg>