<svg viewBox="0 0 24 24" xmlns="http://www.w3.org/2000/svg" xmlns:xlink="http://www.w3.org/1999/xlink"><filter id="a" color-interpolation-filters="sRGB" height="1.685669" width="1.097492" x="-.048746" y="-.342834"><feGaussianBlur stdDeviation=".36559322"/></filter><linearGradient id="b" gradientUnits="userSpaceOnUse" x1="18" x2="9" y1="19" y2="7"><stop offset="0" stop-color="#409cff"/><stop offset="1" stop-color="#0a84ff"/></linearGradient><path d="m3 19.940678h18v2.559322h-18z" filter="url(#a)" opacity=".15" stroke-width="1.015418"/><g fill="#2d2d2d"><path d="m3 3h18v18h-18z" fill="#2d2d2d"/><path d="m8 3h13v1h-13z"/><path d="m3 8h1v13h-1z"/></g><g fill="#f2f2f7"><path d="m3 2c-.554 0-1 .446-1 1v18c0 .554.446 1 1 1h18c.554 0 1-.446 1-1v-18c0-.554-.446-1-1-1zm0 1h18v18h-18z" fill="#f2f2f7"/><g fill="#e5e5ea"><path d="m4 4h3v3h-3z"/><path d="m9 4v3h5.875l.53125-.53125-.085938.0976562c.288389-.3753123.73964-.5933074 1.212891-.5859374a1.0001 1.0001 0 0 1 .003906 0c.457925.0085672.888773.2272343 1.166016.5917968l-.089844-.1015625.529297.5292969h.857422v-3z"/><path d="m4 9v10h3v-.90625l-.5117188-.511719.0957032.083985c-.7599903-.587053-.7570104-1.7956.0058594-2.378907l-.0996094.087891.5097656-.509766v-5.865234z"/></g></g><path d="m16.492188 7a.50005.50005 0 0 0 -.345704.1464844l-3 2.9999996a.50005.50005 0 0 0 .353516.853516h2.005859l-.001953.988281a.49599547.49599547 0 0 0 0 .001953c0 1.940444-1.561769 3.502834-3.501953 3.503907l-1.001953-.003907v-1.990234a.49998857.49998857 0 0 0 -.515625-.5.49998857.49998857 0 0 0 -.337891.146484l-2.9999996 3a.49998857.49998857 0 0 0 0 .707032l2.9999996 3a.49998857.49998857 0 0 0 .853516-.353516v-2.017578l.998047.003906a.49599547.49599547 0 0 0 .001953 0c3.028788 0 5.495011-2.465601 5.496094-5.49414v-.001954l.003906-.990234h2a.50005.50005 0 0 0 .353516-.853516l-3-2.9999996a.50005.50005 0 0 0 -.361328-.1464844z" fill="url(#b)" fill-rule="evenodd"/></svg>