<svg viewBox="0 0 24 24" xmlns="http://www.w3.org/2000/svg" xmlns:xlink="http://www.w3.org/1999/xlink"><linearGradient id="a" gradientUnits="userSpaceOnUse" x1="8" x2="8" xlink:href="#b" y1="18" y2="9"/><linearGradient id="b"><stop offset="0" stop-color="#409cff"/><stop offset="1" stop-color="#0a84ff"/></linearGradient><linearGradient id="c" gradientTransform="matrix(.8868827 -.51204201 .51204201 .88688277 .387396 10.016944)" gradientUnits="userSpaceOnUse" x1="11.373043" x2="13.375103" xlink:href="#b" y1="9.467584" y2="6.949374"/><g fill="#f2f2f7" transform="matrix(0 -1 -1 0 0 0)"><path d="m-21.5-5h19c.277 0 .5.223.5.5s-.223.5-.5.5h-19c-.277 0-.5-.223-.5-.5s.223-.5.5-.5z"/><path d="m-19.5-22c.277 0 .5.223.5.5v19c0 .277-.223.5-.5.5s-.5-.223-.5-.5v-19c0-.277.223-.5.5-.5z"/></g><path d="m6.830508 2h14.338984c.460101 0 .830508.3704066.830508.830508v14.338984c0 .460101-.370407.830508-.830508.830508h-14.338984c-.4601014 0-.830508-.370407-.830508-.830508v-14.338984c0-.4601014.3704066-.830508.830508-.830508z" fill="#0a84ff"/><path d="m15.175781 2c-.701075.610769-1.195312 1.5218583-1.195312 2.5878906v.2128906l-2.046875 1.1992188h-2.933594c-.2864053 0-.568854-.0061819-.9296875.1289062-.3608335.1350882-.7324238.5142737-.8730469.8652344-.281246.7019214-.1972656 1.253737-.1972656 2.2832032v5.7226562c0 2.333458 4 2.333458 4 0v-1.095703l1.675781 2.945312a1.0001935 1.0001935 0 0 0 .025391.042969c.002496.003918.00528.007824.007812.011719.161311.25767.42709.423534.664063.617187-.27127-.424141.411544.754211-.037109-.064453l.001953-.001953a1.0001935 1.0001935 0 0 0 .035156.066406s.001953.001954.001953.001954c.026024.02122.046452.047203.072266.068359.00252.002066.005181.00389.007812.005859.015977.021111.047313.022905.064453.042969l-.001953.001953.273438.220703.017578-.033203c.096644.068364.198265.122628.302734.169922h1.398438c.133362-.006078.257742-.007817.480468-.125a1.0001935 1.0001935 0 0 0 .03125-.015625c.010035-.005719.019396-.01163.029297-.017578l5.888672-3.451172.03125-.017578c.009938-.00566.019635-.011592.029297-.017578v-5.0039065l-.320312-.5644531c.12705-.1811108.260111-.366738.320312-.5722656v-3.7402344c-.041029-1.0178981-.521015-1.8856049-1.197266-2.4746094zm-1.728515 15.591797-.06836-.0625a1.0001935 1.0001935 0 0 0 .017578.029297c.01164.01727.038386.016565.050782.033203zm1.052734-.798828-.228516.195312.054688-.097656z" fill="#2d2d2d" fill-opacity=".784314" fill-rule="evenodd" stroke-width=".763845"/><g transform="translate(3 -2)"><path d="m11.647722 18.717379 7.209231-4.306748-4.360125-7.925091-7.587737 4.447147z" fill="#2d2d2d" fill-rule="evenodd" stroke-width=".763845"/><path d="m11 8.9999999h-5c-1 0-1 .217546-1 2.2764781v5.723522c0 1 2 1 2 0v-6z" fill="url(#a)" fill-rule="evenodd"/><g fill="none" stroke="#f2f2f7"><path d="m6.909091 10.932687 4.078179 7.170615c.313245.500364.816851.692704 1.302323.437273l5.918596-3.468868c.450197-.311153.658977-.895553.371476-1.407367l-4.082837-7.1787998z"/><path d="m8.5306856 12.820002 6.6506224-4.1570533.967501 1.6757613-6.6506232 4.157053z" fill="url(#c)" fill-rule="evenodd" stroke="none"/><g stroke="#f2f2f7" stroke-linecap="round"><ellipse cx="4.962672" cy="16.187546" fill="#2d2d2d" rx="1.515379" ry="1.505583" stroke-width=".864789" transform="matrix(.86821741 -.49618397 .50382625 .86380502 0 0)"/><path d="m12.488244 9.8063594v-3.2189995c0-2.7660536 4.990814-2.785277 5.011756.014335l.02542 3.3983051"/></g></g></g></svg>