<svg viewBox="0 0 24 24" xmlns="http://www.w3.org/2000/svg" xmlns:xlink="http://www.w3.org/1999/xlink"><linearGradient id="a" gradientUnits="userSpaceOnUse" x1="18.810989" x2="18.372622" y1="21.907942" y2="13.732014"><stop offset="0" stop-color="#ff6482"/><stop offset="1" stop-color="#ff453a"/></linearGradient><linearGradient id="b" gradientUnits="userSpaceOnUse" x1="12" x2="12" y1="3" y2="5"><stop offset="0" stop-color="#5b5b5b"/><stop offset="1" stop-color="#f2f2f7"/></linearGradient><linearGradient id="c" gradientUnits="userSpaceOnUse" x1="26" x2="26" y1="2" y2="22"><stop offset="0" stop-color="#f2f2f7"/><stop offset="1" stop-color="#f2f2f7"/></linearGradient><linearGradient id="d" gradientUnits="userSpaceOnUse" x1="12" x2="12" y1="3" y2="21"><stop offset="0" stop-color="#2d2d2d"/><stop offset=".33333334" stop-color="#2d2d2d"/><stop offset=".8888889" stop-color="#2d2d2d"/><stop offset="1" stop-color="#2d2d2d"/></linearGradient><filter id="e" color-interpolation-filters="sRGB" height="1.094553" width="1.097492" x="-.048746" y="-.047277"><feGaussianBlur stdDeviation=".36559322"/></filter><path d="m3 4h18v18.559322h-18z" filter="url(#e)" opacity=".15" stroke-width="1.015418"/><path d="m3 3h18v18h-18z" fill="url(#d)"/><path d="m3 2c-.554 0-1 .446-1 1v18c0 .554.446 1 1 1h18c.554 0 1-.446 1-1v-18c0-.554-.446-1-1-1zm0 1h5v6h-5zm6 0h6v6h-6zm7 0h5v6h-5zm-13 7h5v3h-5zm6 0h6v3h-6zm7 0h5v3h-5zm-13 4h5v3h-5zm6 0h6v3h-6zm7 0h5v3h-5zm-13 4h5v3h-5zm6 0h6v3h-6zm7 0h5v3h-5z" fill="#e5e5ea"/><path d="m2 3 1-1h18l1 1v3h-20z" fill="url(#b)"/><path d="m3 2c-.554 0-1 .446-1 1v2 1 15c0 .554.446 1 1 1h18c.554 0 1-.446 1-1v-15-3c0-.554-.446-1-1-1zm0 1h5v2h-5zm6 0h6v2h-6zm7 0h5v2h-5zm-13 3h18v15h-18z" fill="url(#c)"/><path d="m14.158203 12a1.0144354 1.0144354 0 0 0 -.544922.283203l-.996093.996094a1.0144354 1.0144354 0 0 0 -.265626.464844c.06031-.235494.0044-.154467-.125.234375-.06468.19442-.09705.520334-.002.80664.0951.286306.271598.491019.44336.640625a1.0144354 1.0144354 0 0 0 .3125.185547c.839168.312378 1.568961.927511 2.322265 1.492188-1.271841 1.063854-2.392714 2.166944-3.203125 3.736328a1.0144354 1.0144354 0 0 0 -.099562.300781v.242187c.01142.234741.07605.443413.175781.617188h3.457031c.26914-.31785.509099-.597102.861329-1.013672.530096-.626928 1.114966-1.246091 1.61914-1.695312.874965.734844 1.803274 1.71084 2.789063 2.708984h1.097656v-3.283203c-.438135-.612293-.904085-1.191115-1.378906-1.710938.418892-.352738.877734-.686354 1.378906-1.044921v-2.847657c-1.36217.597236-2.360731 1.195839-3.380859 1.808594-1.191633-.963775-2.370709-1.952894-3.767579-2.791016a1.0144354 1.0144354 0 0 0 -.359374-.130859z" fill="#2d2d2d" fill-opacity=".784314"/><path d="m14.329706 13.000009-.996654.996652c-.05396.210685-.330065.376944 0 .664435 1.40662.52361 2.502023 1.403626 3.654394 2.325522-1.756168 1.337067-3.038026 2.481865-3.986611 4.318827-.03746.515012 1.198052.835345 1.328871.664435.543366-.545772 2.053816-2.607179 3.322175-3.654392l.42231-.456095c1.339447.890998 2.619021 2.500657 3.896516 3.778269l.664435.664435c-.52369-2.166155-2.08709-4.069132-3.468575-5.450618 1.004354-1.138463 2.467414-1.825543 3.800793-2.854818l-.129566-.147173c-1.809277.742983-2.984962 1.460818-4.313139 2.264356-1.372818-1.103391-2.687023-2.209079-4.194949-3.113835z" fill="url(#a)"/></svg>