<svg viewBox="0 0 24 24" xmlns="http://www.w3.org/2000/svg" xmlns:xlink="http://www.w3.org/1999/xlink"><filter id="a" color-interpolation-filters="sRGB" height="1.156" width="1.156" x="-.078" y="-.078"><feGaussianBlur stdDeviation=".65"/></filter><path d="m12 2.5a5 5 0 0 0 -5 5 5 5 0 0 0 5 5 5 5 0 0 0 5-5 5 5 0 0 0 -5-5zm0 10a10 10 0 0 0 -10 10h1 18 1a10 10 0 0 0 -10-10zm0 1a9 9 0 0 0 -.779297.041016 9 9 0 0 1 .779297-.041016zm.712891.03516a9 9 0 0 1 .445312.04883 9 9 0 0 0 -.445312-.04883zm-1.869141.05078a9 9 0 0 0 -.533203.08008 9 9 0 0 1 .533203-.08008zm2.765625.06641a9 9 0 0 1 .4375.09375 9 9 0 0 0 -.4375-.09375zm-3.6289062.08789a9 9 0 0 0 -.5429688.138666 9 9 0 0 1 .5429688-.138672zm4.4863282.113282a9 9 0 0 1 .486328.15625 9 9 0 0 0 -.486328-.15625zm-5.3320314.126953a9 9 0 0 0 -.578125.210937 9 9 0 0 1 .578125-.210937zm6.1601564.154297a9 9 0 0 1 .492187.21289 9 9 0 0 0 -.492187-.21289zm-6.9316408.144531a9 9 0 0 0 -.625.302734 9 9 0 0 1 .625-.302734zm7.7499998.224609a9 9 0 0 1 .494141.277344 9 9 0 0 0 -.494141-.277344zm-8.5468748.175782a9 9 0 0 0 -.6015624.371093 9 9 0 0 1 .6015624-.371093zm9.3105468.267578a9 9 0 0 1 .466797.324218 9 9 0 0 0 -.466797-.324218zm-10.0468749.199212a9 9 0 0 0 -.5996093.457032 9 9 0 0 1 .5996093-.457032zm10.7871099.332032a9 9 0 0 1 .43164.371093 9 9 0 0 0 -.43164-.371093zm-11.4667974.195312a9 9 0 0 0 -.578125.539063 9 9 0 0 1 .578125-.539063zm12.1289064.390625a9 9 0 0 1 .417969.439453 9 9 0 0 0 -.417969-.439453zm-12.7832032.230469a9 9 0 0 0 -.5390626.617187 9 9 0 0 1 .5390626-.617187zm13.3867182.419922a9 9 0 0 1 .375.480468 9 9 0 0 0 -.375-.480468zm-13.9316401.205078a9 9 0 0 0 -.515625.722656 9 9 0 0 1 .515625-.722656zm14.4804691.519531a9 9 0 0 1 .322265.513672 9 9 0 0 0 -.322265-.513672zm-15.0078129.21875a9 9 0 0 0 -.4355469.763672 9 9 0 0 1 .4355469-.763672zm15.4667969.533203a9 9 0 0 1 .294922.591797 9 9 0 0 0 -.294922-.591797zm-15.9121094.25a9 9 0 0 0 -.359375.806641 9 9 0 0 0 -.2832031.855469 9 9 0 0 0 -.2695313 1.396484h-.00586a9 9 0 0 1 .2753906-1.396484 9 9 0 0 1 .2832031-.855469 9 9 0 0 1 .359375-.806641zm16.2988284.546875a9 9 0 0 1 .232422.613281 9 9 0 0 0 -.232422-.613281zm.3125.857422a9 9 0 0 1 .164062.615235 9 9 0 0 0 -.164062-.615235zm.222656.869141a9 9 0 0 1 .101562.628906 9 9 0 0 0 -.101562-.628906z" filter="url(#a)" opacity=".15"/><path d="m12 2a5 5 0 0 0 -5 5 5 5 0 0 0 5 5 5 5 0 0 0 5-5 5 5 0 0 0 -5-5zm0 1a4 4 0 0 1 4 4 4 4 0 0 1 -4 4 4 4 0 0 1 -4-4 4 4 0 0 1 4-4z" fill="#f2f2f7"/><circle cx="12" cy="7" fill="#2d2d2d" r="4"/><path d="m12 12a10 10 0 0 0 -10 10h1a9 9 0 0 1 9-9 9 9 0 0 1 9 9h1a10 10 0 0 0 -10-10z" fill="#f2f2f7"/><path d="m12 13a9 9 0 0 0 -8.9335938 8h17.8730468a9 9 0 0 0 -8.939453-8z" fill="#2d2d2d"/><path d="m3 21h18v1h-18z" fill="#f2f2f7"/></svg>