<svg viewBox="0 0 24 24" xmlns="http://www.w3.org/2000/svg" xmlns:xlink="http://www.w3.org/1999/xlink"><linearGradient id="a" gradientTransform="matrix(1 0 0 -1 0 24.999934)" gradientUnits="userSpaceOnUse" x1="15" x2="15" y1=".999934" y2="8.499934"><stop offset="0" stop-color="#409cff"/><stop offset="1" stop-color="#0a84ff"/></linearGradient><path d="m12.478516 23.999934a.49948816.49960054 0 0 1 -.394532-.203125l-2.943359-2.949219a.50007538.50018789 0 0 1 .4257812-.847656h1.4335938v-3.5c0-.277.223-.5.5-.5h1.003906.996094c.277 0 .5.223.5.5v3.5h1.394531a.49948816.49960054 0 0 1 .445313.84961l-2.957032 2.955078a.49948816.49960054 0 0 1 -.404296.195312z" fill="url(#a)" fill-rule="evenodd"/><path d="m3 5v4h18v-4z" fill="#2d2d2d"/><path d="m2 4v1 4h1 5 1 6 1 5 1v-4-1zm1 1h5 1 6 1 5v3h-5-1-6-1-5z" fill="#f2f2f7"/><path d="m8 5v3h1v-3zm7 0v3h1v-3z" fill="#e5e5ea"/><path d="m3 10v4h18v-4z" fill="#2d2d2d"/><path d="m2 10v4h1 5 1 6 1 5 1v-4h-1v3h-5-1-6-1-5v-3z" fill="#f2f2f7"/><path d="m8 10v3h1v-3zm7 0v3h1v-3z" fill="#e5e5ea"/></svg>