<svg viewBox="0 0 24 24" xmlns="http://www.w3.org/2000/svg" xmlns:xlink="http://www.w3.org/1999/xlink"><filter id="a" color-interpolation-filters="sRGB" height="1.094553" width="1.097492" x="-.048746" y="-.047277"><feGaussianBlur stdDeviation=".36559322"/></filter><linearGradient id="b" gradientUnits="userSpaceOnUse" x1="18.810989" x2="18.372622" y1="21.907942" y2="13.732014"><stop offset="0" stop-color="#ff6482"/><stop offset="1" stop-color="#ff453a"/></linearGradient><linearGradient id="c" gradientUnits="userSpaceOnUse" x1="7.273339" x2="7.480236" xlink:href="#d" y1="7.625454" y2="3.838238"/><linearGradient id="d" gradientTransform="translate(-25.830508 -3.59322)" gradientUnits="userSpaceOnUse" x1="14" x2="13.79661" y1="22" y2="2.135593"><stop offset="0" stop-color="#409cff"/><stop offset="1" stop-color="#0a84ff"/></linearGradient><linearGradient id="e" gradientUnits="userSpaceOnUse" x1="9.5" x2="9.5" y1="7" y2="10"><stop offset="0" stop-color="#2d2d2d"/><stop offset=".08333334" stop-color="#2d2d2d" stop-opacity=".055147"/><stop offset="1" stop-color="#2d2d2d" stop-opacity=".247059"/><stop offset="1" stop-color="#2d2d2d" stop-opacity=".481618"/></linearGradient><linearGradient id="f" gradientUnits="userSpaceOnUse" x1="9" x2="9" xlink:href="#d" y1="20" y2="5"/><linearGradient id="g" gradientUnits="userSpaceOnUse" x1="15" x2="17.000001" y1="7" y2="4.999999"><stop offset="0" stop-color="#2d2d2d"/><stop offset=".77967989" stop-color="#2d2d2d"/><stop offset="1" stop-color="#3a3a3c"/></linearGradient><radialGradient id="h" cx="17" cy="6.555555" gradientTransform="matrix(1.4285714 -.00000006 .00000006 1.4285714 -7.285714 -4.365078)" gradientUnits="userSpaceOnUse" r="7"><stop offset="0" stop-color="#2d2d2d"/><stop offset=".29999998" stop-color="#2d2d2d"/><stop offset="1" stop-color="#2d2d2d"/></radialGradient><path d="m8 19.940678h14v2.559322h-14z" filter="url(#a)" opacity=".15" stroke-width="1.015418"/><g transform="translate(2.99524)"><path d="m5 3v18h14v-14.2705905l-4-3.7294095z" fill="url(#h)"/><path d="m3 4v16h12v-14l-2-2zm1 1h7.972876l2.027124 2v12h-10z" fill="url(#f)" transform="translate(3)"/><path d="m5 2c-.554 0-1 .446-1 1v18c0 .554.446 1 1 1h14c.554 0 1-.446 1-1v-10.109375-3.6412209-.2079239c0-.4506799.09887-.4265951-.604637-1.0675892l-3.307389-3.2370335c-.709525-.7368575-.711223-.7368575-1.094804-.7368575h-.331557-.661613zm0 1h9v4c0 .554.446 1 1 1h4v13h-14z" fill="#f2f2f7"/><path d="m15 7h4l-4-4z" fill="#2d2d2d" fill-rule="evenodd"/><path d="m15 3 4 4h-4z" fill="url(#g)"/></g><g transform="translate(1 8)"><rect fill="url(#c)" height="4.29661" ry="1" width="12" x="2" y="3.70339"/><path d="m5 11v4h6v-4z" fill="#2d2d2d" fill-rule="evenodd"/><path d="m4 12v3.142578c0 .474857.3825649.857422.8574219.857422h6.2851561c.474857 0 .838139-.382957.857422-.857422v-3.142578h-1v3h-6v-3z" fill="#f2f2f7"/><path d="m4 1v4h8v-4z" fill="#2d2d2d" fill-rule="evenodd"/><path d="m13 10h2v1h-2z" fill="#2d2d2d"/><path d="m3.8574219 0c-.474857 0-.8574219.38256487-.8574219.85742188v5.14257812h1 8 1v-5.14257812c0-.47485701-.382565-.85742188-.857422-.85742188zm.1425781 1h8v4h-8z" fill="#f2f2f7"/><path d="m1.5 5.5c-.554 0-1 .446-1 1v4c0 .554.446 1 1 1h2 1 7.5 2.5c.554 0 1-.446 1-1v-4c0-.554-.446-1-1-1h-1v2h-.5-9.5-1v-2z" fill="#f2f2f7" stroke="#f2f2f7"/><path d="m2 6.5h.5v2h11v-2h.5c.277 0 .5.446.5 1v2c0 .554-.223 1-.5 1h-12c-.277 0-.5-.446-.5-1v-2c0-.554.223-1 .5-1z" fill="none" stroke="url(#e)" stroke-opacity=".658088"/></g><path d="m14.371094 11.986328a1.0144354 1.0144354 0 0 0 -.757813.296875l-.996093.996094a1.0144354 1.0144354 0 0 0 -.265626.464844c.060314-.235494.00436-.154467-.125.234375-.064678.19442-.09705.520334-.001953.80664.095098.286306.271598.491019.44336.640625a1.0144354 1.0144354 0 0 0 .3125.185547c.839169.312378 1.568961.927511 2.322265 1.492188-1.271841 1.063854-2.392714 2.166944-3.203125 3.736328a1.0144354 1.0144354 0 0 0 -.111328.390625c-.039215.539138.262308.956615.511719 1.177734.168079.149014.334953.244526.5.324219v-.732422h2.632812c.26914-.31785.509099-.597102.861329-1.013672.530096-.626928 1.114966-1.246091 1.61914-1.695312.874965.734844 1.803274 1.71084 2.789063 2.708984h1.09375c.554 0 1-.446 1-1v-.646484c-.621565-1.289214-1.502172-2.392107-2.375-3.347657.673759-.567355 1.477184-1.114818 2.375-1.77539v-2.38086a1.0144354 1.0144354 0 0 0 -.542969.0625c-1.617534.664244-2.699204 1.328144-3.833984 2.009766-1.191633-.963775-2.370709-1.952894-3.767579-2.791016a1.0144354 1.0144354 0 0 0 -.480468-.144531z" fill="#2d2d2d" fill-opacity=".784314"/><path d="m14.329708 13.000009-.996656.996652c-.05396.210685-.330065.376944 0 .664435 1.406622.52361 2.502025 1.403626 3.654396 2.325522-1.756168 1.337067-3.038028 2.481865-3.986613 4.318827-.03746.515012 1.198054.835345 1.328873.664435.543366-.545772 2.053816-2.607179 3.322175-3.654392l.42231-.456095c1.339447.890998 2.619021 2.500657 3.896516 3.778269l.664435.664435c-.52369-2.166155-2.08709-4.069132-3.468575-5.450618 1.004354-1.138463 2.467414-1.825543 3.800793-2.854818l-.129566-.147173c-1.809277.742983-2.984962 1.460818-4.313139 2.264356-1.372818-1.103391-2.687023-2.209079-4.194949-3.113835z" fill="url(#b)"/></svg>