<svg viewBox="0 0 24 24" xmlns="http://www.w3.org/2000/svg" xmlns:xlink="http://www.w3.org/1999/xlink"><linearGradient id="a" gradientUnits="userSpaceOnUse" x1="40" x2="42" y1="1" y2="-4"><stop offset="0" stop-color="#409cff"/><stop offset="1" stop-color="#0a84ff"/></linearGradient><path d="m9 2-7 6h5 .0078125 5.4062495.585938 3l6-6zm-1.6777344 3.2675781-.2402344.359375c.052643-.1327591.1279346-.2566043.2402344-.359375z" fill="#2d2d2d"/><path d="m9 2-7 6h1.4609375l5.953125-5h11.0859375l-5 5h.5l6-6z" fill="#f2f2f7" fill-rule="evenodd"/><path d="m2 8v14h14v-14h-3.585938l-.414062.4140625v-.4140625h-4.9921875-.0078125zm1 1h4 1 3 1 3v12h-12z" fill="#f2f2f7"/><path d="m16 22 6-6v-14l-6 6z" fill="#2d2d2d" fill-rule="evenodd"/><path d="m22 2-6 6v14l6-6zm-1 2v11.585938l-5 4.701114v-11.287052z" fill="#f2f2f7" fill-rule="evenodd"/><path d="m3 9h12v12h-12z" fill="#2d2d2d"/><path d="m13.949219 2.0019531c.448585-.023136.857565.2556407 1 .6816407l.105469.3164062.894531 2.6835938c.215965.647787-.26638 1.3167179-.949219 1.3164062h-1.585938l-1 1-.707031.7070312-.707031.2929688h-3c-.5996417-.0002353-.9882169-.4887815-.9921875-1-.0019269-.2480849.0794632-.501195.2851563-.7070312l.3574218-.3574219c-.8167542-.3063753-.8771677-1.4385235-.0976562-1.8300781l4.2109376-2.1054688 1.789062-.8945312c.1236-.061501.258595-.096746.396485-.1035157z" fill="#2d2d2d" fill-opacity=".784314" fill-rule="evenodd"/><path d="m14 3-6 3h2l-2 2h3l2-2h2z" fill="url(#a)"/></svg>