<svg viewBox="0 0 24 24" xmlns="http://www.w3.org/2000/svg"><g fill="#f2f2f7" transform="matrix(1 0 0 -1 0 24)"><rect height="3" rx="1" width="18" x="3" y="2"/><rect height="2" rx=".5" width="9" x="3" y="8"/><path d="m8.0371094 14-.1074219.453125a1.507838 1.507838 0 0 0 .5546875 1.546875h2.111328l1.394531-.447266c.001969-.018103.009766-.03409.009766-.052734v-1c0-.277-.223-.5-.5-.5z" fill="#2d2d2d" fill-opacity=".784314" transform="matrix(1 0 0 -1 0 24)"/></g><g fill="#eac282" transform="translate(-2.602597 -9.200058)"><path d="m11.794252 19.654584-.794252 3.345416 2.979799-.95479z" fill="#e5e5ea" stroke="#f2f2f7" transform="translate(1 1)"/><path d="m21.527817 11.706205c-.189562 0-.378184.07172-.523438.216797l-1.673828 1.669922 2.847656 2.849609 1.710938-1.638672c.290506-.290127.290506-.756747 0-1.046875l-1.835938-1.833984c-.145254-.145064-.335828-.216797-.52539-.216797z" fill="#e68497" stroke="#b6496c"/><path d="m17.588364 13.317533-5.439453 5.433594c.648096.793958 1.89093 2.102781 2.714843 2.957031l.05078-.01367 5.509765-5.544922z" fill="#fc0" stroke="#ff9f0a" transform="translate(1 1)"/><path d="m21.093491 16.135775-1.284233-1.373643-6.299585 6.125687 1.263119 1.338035z" fill="#ffe014"/><path d="m20.379082 13.977391 1.118644-1.067797 1.703389 1.677967" fill="none" stroke="#f398b3"/></g></svg>