<svg viewBox="0 0 24 24" xmlns="http://www.w3.org/2000/svg" xmlns:xlink="http://www.w3.org/1999/xlink"><linearGradient id="a"><stop offset="0" stop-color="#ff6482"/><stop offset="1" stop-color="#ff453a" stop-opacity=".976744"/></linearGradient><linearGradient id="b" gradientUnits="userSpaceOnUse" x1="3.5" x2="3.5" xlink:href="#a" y1="5" y2="2"/><linearGradient id="c" gradientUnits="userSpaceOnUse" x1="20.5" x2="20.5" xlink:href="#a" y1="5" y2="2"/><linearGradient id="d" gradientUnits="userSpaceOnUse" x1="3.5" x2="3.5" xlink:href="#a" y1="22" y2="19"/><linearGradient id="e" gradientUnits="userSpaceOnUse" x1="20.5" x2="20.5" xlink:href="#a" y1="22" y2="19"/><path d="m4 3c-.554 0-1 .446-1 1v9c0 .554.446 1 1 1h11c.554 0 1-.446 1-1v-9c0-.554-.446-1-1-1zm0 1h11v9h-11z" fill="#f2f2f7"/><path d="m4 4h11v9h-11z" fill="#2d2d2d"/><path d="m9 10c-.554 0-1 .446-1 1v9c0 .554.446 1 1 1h11c.554 0 1-.446 1-1v-9c0-.554-.446-1-1-1zm0 1h11v9h-11z" fill="#f2f2f7"/><path d="m16 11v2c0 .554-.446 1-1 1h-6v6h11v-9z" fill="#2d2d2d"/><g fill="#409cff"><path d="m2 2h3v3h-3z" fill="url(#b)"/><path d="m19 2h3v3h-3z" fill="url(#c)"/><path d="m2 19h3v3h-3z" fill="url(#d)"/><path d="m19 19h3v3h-3z" fill="url(#e)"/></g><g fill="#2d2d2d"><path d="m3 3h1v1h-1z"/><path d="m20 3h1v1h-1z"/><path d="m20 20h1v1h-1z"/><path d="m3 20h1v1h-1z"/></g></svg>