<svg viewBox="0 0 24 24" xmlns="http://www.w3.org/2000/svg" xmlns:xlink="http://www.w3.org/1999/xlink"><filter id="a" color-interpolation-filters="sRGB" height="1.701939" width="1.087742" x="-.043871" y="-.35097"><feGaussianBlur stdDeviation=".36559322"/></filter><path d="m2 21h20v2.5h-20z" filter="url(#a)" opacity=".15" stroke-width="1.01542"/><path d="m2.5 1c-.8309992 0-1.5.6690008-1.5 1.5v19c0 .830999.6690008 1.5 1.5 1.5h19c.830999 0 1.5-.669001 1.5-1.5v-19c0-.8309992-.669001-1.5-1.5-1.5zm0 1h19c.294297 0 .5.2057031.5.5v19c0 .294297-.205703.5-.5.5h-19c-.2942969 0-.5-.205703-.5-.5v-19c0-.2942969.2057031-.5.5-.5z" fill="#f2f2f7"/><path d="m2.5 2c-.2942972 0-.5.2057028-.5.5v19c0 .294297.2057028.5.5.5h19c.294297 0 .5-.205703.5-.5v-19c0-.2942972-.205703-.5-.5-.5z" fill="#2d2d2d"/><g fill="#eac282" stroke="#e4b160"><path d="m10 7.5a2.5 2.5 0 0 1 -2.5 2.5 2.5 2.5 0 0 1 -2.5-2.5 2.5 2.5 0 0 1 2.5-2.5 2.5 2.5 0 0 1 2.5 2.5z"/><path d="m3 20.5c.4875945 0 6-5.5 6-5.5l2 1.593356 5-4.593356 4.5 5v3.5z" fill-rule="evenodd"/></g></svg>