<svg viewBox="0 0 24 24" xmlns="http://www.w3.org/2000/svg" xmlns:xlink="http://www.w3.org/1999/xlink"><filter id="a" color-interpolation-filters="sRGB" height="1.094553" width="1.097492" x="-.048746" y="-.047277"><feGaussianBlur stdDeviation=".36559322"/></filter><radialGradient id="b" cx="12" cy="17.5" gradientTransform="matrix(1.7777778 -.00000002 .00000003 1.3333333 -9.333334 -6.333333)" gradientUnits="userSpaceOnUse" r="9"><stop offset="0" stop-color="#2d2d2d9ea"/><stop offset=".29417419" stop-color="#fdd6ba"/><stop offset=".75" stop-color="#f6ac8b"/><stop offset="1" stop-color="#c79fc7"/></radialGradient><filter id="c" color-interpolation-filters="sRGB" height="1.264" width="1.058667" x="-.029333" y="-.132"><feGaussianBlur stdDeviation=".22"/></filter><clipPath id="d"><path d="m3 14c.4875945 0 6-4 6-4l2 1.593356 4-1.593356h2l4 2v2z"/></clipPath><radialGradient id="e" cx="15.000001" cy="13.642857" gradientTransform="matrix(1.6666667 .00000041 -.00000016 .77777777 -10 6.388883)" gradientUnits="userSpaceOnUse" r="9"><stop offset="0" stop-color="#f7f2f6"/><stop offset=".40000007" stop-color="#c2a2ba"/><stop offset=".75000006" stop-color="#be9bb4"/><stop offset="1" stop-color="#ac80a1"/></radialGradient><path d="m2 21h20v2.5h-20z" filter="url(#a)" opacity=".15" stroke-width="1.015418"/><path d="m.78775148 1.4467636v21.5421644h22.64656452v-21.5421644z" fill="#f2f2f7" stroke-width="1.061123" transform="matrix(.97144978 0 0 .97483239 .234739 .589648)"/><path d="m3 3h18v18h-18z" fill="#2d2d2d"/><path d="m2 3v19h20v-19zm1 1h18v17h-18z" fill="#2d2d2d"/><path d="m3 4h18v13h-18z" fill="url(#b)"/><path d="m3 17c.4875945 0 6-4 6-4l2 1.593356 4-1.593356h2l4 2v2z" fill="#1f1c1f" fill-rule="evenodd"/><path clip-path="url(#d)" d="m9 10s-5.5124055 4-6 4h1.6992188c1.7852844-1.183321 4.3007812-3 4.3007812-3l2 1.59375 4-1.59375h2l4 2v-1l-4-2h-2l-4 1.59375z" fill="#f2f2f7" fill-rule="evenodd" filter="url(#c)" transform="translate(0 3)"/><path d="m3 17h18v4h-18z" fill="url(#e)"/></svg>