<svg viewBox="0 0 24 24" xmlns="http://www.w3.org/2000/svg" xmlns:xlink="http://www.w3.org/1999/xlink"><linearGradient id="a" gradientUnits="userSpaceOnUse" x1="13" x2="13" y1="4" y2="8"><stop offset="0" stop-color="#5b5b5b"/><stop offset="1" stop-color="#f2f2f7"/></linearGradient><path d="m3 3c-.554 0-1 .446-1 1v8h1v-8h8.460938c.01499-.0004127.02998-.00781.04492-.00781.01495 0 .02993.0074.04492.00781h9.449222v5.3144531c.0044.03612.01383.070141.01563.1074219.0036.07418-.0061.1507025-.01563.2265625v2.3515625h1v-8c0-.554-.446-1-1-1zm-1 9v7c0 .554.446 1 1 1h18c.554 0 .988768-.446114 1-1v-7h-1v7h-18v-7z" fill="#f2f2f7"/><path d="m3 4h18v4h-18z" fill="url(#a)"/><path d="m3 8h18v4h-18z" fill="#2d2d2d"/><path d="m3 12h18v7h-18z" fill="#2d2d2d"/><g fill="#f2f2f7"><path d="m3 8h18v1h-18z"/><path d="m5 11h2v2h-2z"/><path d="m9 11h10v1h-10z"/><path d="m5 15h2v2h-2z"/><path d="m9 15h10v1h-10z"/></g><path d="m16.5 8.9960938c-1.360936-.0000002-2.503906 1.1429702-2.503906 2.5039062v2.474609h-1.996094c-1.360936 0-2.5039062 1.142971-2.5039062 2.503907v.021484c-.0000002 1.360936 1.1429702 2.503906 2.5039062 2.503906h1.996094v.996094h5.007812v-.996094h2.509766c.166089 0 .328413-.018416.486328-.050781v-4.927734c-.157915-.032365-.320239-.050782-.486328-.050782h-2.509766v-2.474609c0-1.360936-1.14297-2.5039064-2.503906-2.5039062z" fill="#2d2d2d" fill-opacity=".784314"/><path d="m16.5 10.5c-.554 0-1 .446-1 1v3.978516h-3.5c-.554 0-1 .446-1 1v.021484c0 .554.446 1 1 1h3.5v4c0 .554.446 1 1 1s1-.446 1-1v-4h4.013672c.554 0 1-.446 1-1v-.02148c0-.554-.446-1-1-1h-4.013672v-3.97852c0-.554-.446-1-1-1z" fill="#28d74b" stroke="#31de4b"/></svg>