<svg viewBox="0 0 24 24" xmlns="http://www.w3.org/2000/svg" xmlns:xlink="http://www.w3.org/1999/xlink"><linearGradient id="a" gradientTransform="matrix(0 1.0659265 -1.0659265 0 -1.472588 3.472588)" gradientUnits="userSpaceOnUse" x1="11" x2="10.559322" y1="21.813559" y2="2.338983"><stop offset="0" stop-color="#31de4b"/><stop offset="1" stop-color="#28d74b"/></linearGradient><path d="m9.0813233 3.5078125c-1.5012448 0-2.4941406.6667232-2.4941406 2.1679687 0 .350511.2262843.6691228.4785156 1.1484375.162114.307114-.060929.6763615-.4082031.6757813l-3.2551515-.0253906c-.4946514-.0038583-.9023437.4076773-.9023437.9023437v3.3144529c.2837756-.100955.5821007-.169922.9023437-.169922 1.5073375 0 2.7343748 1.227038 2.734375 2.734376 0 1.507337-1.2275134 2.732421-2.734375 2.732421-.3179662 0-.6166532-.06638-.9023437-.167968v3.798828c0 .494666.4076821.90003.9023437.902343l3.7597657.01758c-.1015878-.2857-.1679688-.584386-.1679688-.902345 0-1.506862 1.2250846-2.734375 2.7324219-2.734375 1.5073375 0 2.7343755 1.227037 2.7343755 2.734375 0 .320243-.06896.618568-.169922.902343h3.30664c.494666 0 .902344-.407677.902344-.902343v-3.712891c-.00058-.347274.368667-.570317.675781-.408203.479315.252232.797926.478516 1.148437.478516 1.501246 0 2.720703-1.219459 2.720703-2.720703 0-1.501247-1.219457-2.720704-2.720703-2.720704-.350806 0-.669076.226173-1.148437.478516-.307114.162114-.676361-.060929-.675781-.408203v-3.2285158c0-.4946669-.407678-.9023437-.902344-.9023437h-3.220703c-.347275.0005802-.570317-.3686673-.408203-.6757813.252343-.47936.478516-.797631.478516-1.1484375 0-1.5012457-1.864698-2.1601562-3.3659427-2.1601562z" fill="url(#a)" stroke="#31de4b"/></svg>