<svg viewBox="0 0 24 24" xmlns="http://www.w3.org/2000/svg" xmlns:xlink="http://www.w3.org/1999/xlink"><linearGradient id="a" gradientUnits="userSpaceOnUse" x1="15" x2="17.000001" y1="7" y2="4.999999"><stop offset="0" stop-color="#2d2d2d"/><stop offset=".77967989" stop-color="#2d2d2d"/><stop offset="1" stop-color="#3a3a3c"/></linearGradient><radialGradient id="b" cx="17" cy="6.555555" gradientTransform="matrix(1.4285714 -.00000006 .00000006 1.4285714 -7.285714 -4.365078)" gradientUnits="userSpaceOnUse" r="7"><stop offset="0" stop-color="#2d2d2d"/><stop offset=".29999998" stop-color="#2d2d2d"/><stop offset="1" stop-color="#2d2d2d"/></radialGradient><path d="m5 3v18h14v-14.2705905l-4-3.7294095z" fill="url(#b)"/><path d="m5 2c-.554 0-1 .446-1 1v18c0 .554.446 1 1 1h14c.554 0 1-.446 1-1v-10.109375-3.6412209-.2079239c0-.4506799.09887-.4265951-.604637-1.0675892l-3.307389-3.2370335c-.709525-.7368575-.711223-.7368575-1.094804-.7368575h-.331557-.661613zm0 1h9v4c0 .554.446 1 1 1h4v13h-14z" fill="#f2f2f7"/><path d="m15 7h4l-4-4z" fill="#2d2d2d" fill-rule="evenodd"/><path d="m15 3 4 4h-4z" fill="url(#a)"/><path d="m6.5 19.5v-1l2-4 1.5 1.093356 3-4.593356 4.5 5v3.5z" fill="#28d74b" fill-rule="evenodd" stroke="#28d74b"/><path d="m9.5 4.5a3 3 0 0 0 -3 3 3 3 0 0 0 3 3 3 3 0 0 0 3-3 3 3 0 0 0 -3-3zm0 1a2 2 0 0 1 2 2 2 2 0 0 1 -2 2 2 2 0 0 1 -2-2 2 2 0 0 1 2-2z" fill="#ff9f0a"/><path d="m11.5 7.5a2 2 0 0 1 -2 2 2 2 0 0 1 -2-2 2 2 0 0 1 2-2 2 2 0 0 1 2 2z" fill="#fc0"/></svg>