<svg viewBox="0 0 24 24" xmlns="http://www.w3.org/2000/svg" xmlns:xlink="http://www.w3.org/1999/xlink"><filter id="a" color-interpolation-filters="sRGB" height="1.094553" width="1.097492" x="-.048746" y="-.047277"><feGaussianBlur stdDeviation=".36559322"/></filter><linearGradient id="b" gradientTransform="matrix(1.4285714 -.00000006 .00000006 1.4285714 -7.285714 -4.365078)" gradientUnits="userSpaceOnUse" x1="21" x2="19" y1="-3.291139" y2="12"><stop offset="0" stop-color="#2d2d2d"/><stop offset=".29999998" stop-color="#2d2d2d"/><stop offset="1" stop-color="#2d2d2d"/></linearGradient><path d="m5 19.940678h14v2.559322h-14z" filter="url(#a)" opacity=".15" stroke-width="1.015418"/><path d="m5 3v18h10 4v-3.728516-10.5429684-3.7285156h-4z" fill="url(#b)"/><path d="m5 2c-.554 0-1 .446-1 1v18c0 .554.446 1 1 1h9.994141 4.005859c.554 0 1-.446 1-1v-3.755859c.003664-.075281 0-.162244 0-.285157v-.208984-3.640625-2.21875-3.640625-.2089844c0-.1229127.003664-.2098754 0-.2851562v-3.7558594c0-.554-.446-1-1-1h-4.005859-.994141zm0 1h9 1 1.357422 2.642578v2.5878906 1.140625 1.2714844 8 1.271484 1.140625 2.587891h-2.642578-1.357422-10z" fill="#f2f2f7"/><circle cx="5.504662" cy="5.496187" fill="#31de4b" r="4.496188"/><circle cx="5.500514" cy="5.500514" fill="#28d74b" r="3.499808"/><g fill="#2d2d2d"><rect height="5" rx=".42437" ry=".5" width="1" x="5" y="3"/><rect height="1" rx=".5" ry=".407563" width="5" x="3" y="5"/></g></svg>