<svg viewBox="0 0 24 24" xmlns="http://www.w3.org/2000/svg" xmlns:xlink="http://www.w3.org/1999/xlink"><linearGradient id="a" gradientTransform="matrix(-1 0 0 1 .121439 3.533567)" gradientUnits="userSpaceOnUse" x1="17.5" x2="17.5" y1="17" y2="10"><stop offset="0" stop-color="#409cff"/><stop offset="1" stop-color="#0a84ff"/></linearGradient><filter id="b" color-interpolation-filters="sRGB" height="1.094553" width="1.097492" x="-.048746" y="-.047277"><feGaussianBlur stdDeviation=".36559322"/></filter><path d="m3 14.940678h10v2.559322h-10z" filter="url(#b)" opacity=".15" stroke-width="1.015418"/><path d="m11 19.940678h10v2.559322h-10z" filter="url(#b)" opacity=".15" stroke-width="1.015418"/><path d="m11 8v1.4648438 1.0351562 8.035156 2.464844h10v-2.464844-3.800781-.457031-4.8125002-1.4648438z" fill="#2d2d2d"/><rect fill="#ff6482" height="1" ry=".482023" width="5" x="15" y="18"/><path d="m11 7c-.554 0-1 .446-1 1v13c0 .554.446 1 1 1h10c.554 0 1-.446 1-1v-13c0-.554-.446-1-1-1zm0 1h10v6.277344c.007435.048949.018875.095307.021484.146484.005185.101687-.002278.206452-.021484.310547v6.265625h-10v-10.5z" fill="#f2f2f7"/><path d="m3 3v13h10v-3.464844-.535156-9z" fill="#2d2d2d"/><path d="m3 2c-.554 0-1 .446-1 1v13c0 .554.446 1 1 1h10c.554 0 1-.446 1-1v-3.464844-.535156-.464844-.070312-2.464844-.5351562-5.4648438c0-.554-.446-1-1-1zm0 1h10v5.4648438.5351562 2.464844.070312.464844.535156 3.464844h-10z" fill="#f2f2f7"/><rect fill="#ff6482" height="1" ry=".410114" width="7" x="4" y="10"/><path d="m12.5 9c-.813703 0-1.5.6862972-1.5 1.5 0 .813703.686297 1.5 1.5 1.5h1.5 2v1h-.482422c-.006383-.000337-.011082-.005859-.017578-.005859-.630205.000128-1.182197.422283-1.390625.9375-.208428.515216-.105195 1.202351.347656 1.640625l1.988281 1.988281c.577391.57715 1.543705.57715 2.121094 0l1.986328-1.986328c.228164-.219075.389646-.527558.447266-.839844.01918-.104095.026684-.20886.021484-.310547-.0026-.051174-.014084-.097534-.021484-.146484-.051658-.340086-.209182-.629105-.425781-.845703-.247775-.247775-.585439-.426526-.992188-.447266-.028839-.00147-.054269.018779-.082031.023437v-.007812h-.5v-1c0-1.64501-1.35499-3-3-3h-2z" fill="#2d2d2d" fill-opacity=".784314"/><path d="m12.5 10c-.277 0-.5.223-.5.5s.223.5.5.5h3.5a1 1 0 0 1 1 1v2h-1.425781a.50005.50005 0 0 0 -.074219-.005859.50005.50005 0 0 0 -.347656.859375l2 2a.50005.50005 0 0 0 .707031 0l2-2a.50005.50005 0 0 0 -.427734-.853516h-1.431641v-2a2 2 0 0 0 -2-2z" fill="url(#a)"/></svg>