<svg viewBox="0 0 24 24" xmlns="http://www.w3.org/2000/svg" xmlns:xlink="http://www.w3.org/1999/xlink"><linearGradient id="a" gradientUnits="userSpaceOnUse" x1="12" x2="12" y1="3" y2="21"><stop offset="0" stop-color="#2d2d2d"/><stop offset=".33333334" stop-color="#2d2d2d"/><stop offset=".8888889" stop-color="#2d2d2d"/><stop offset="1" stop-color="#2d2d2d"/></linearGradient><filter id="b" color-interpolation-filters="sRGB" height="1.094553" width="1.097492" x="-.048746" y="-.047277"><feGaussianBlur stdDeviation=".36559322"/></filter><path d="m8.5 4 5-.059322v16.601695l-1.5 1.957627-3.5.05932z" filter="url(#b)" opacity=".15" stroke-width="1.015418"/><path d="m3 4 5-.059322v16.601695l-1.5 1.957627-3.5.05932z" filter="url(#b)" opacity=".15" stroke-width="1.015418"/><path d="m3 19h4v2h-4z" fill="#2d2d2d"/><path d="m3 3h18v15h-18z" fill="url(#a)"/><path d="m3 2c-.554 0-1 .446-1 1v15c0 .554.446 1 1 1h18c.554 0 1-.446 1-1v-15c0-.554-.446-1-1-1zm0 1h5v3h-5zm6 0h6v3h-6zm7 0h5v3h-5zm-13 4h5v3h-5zm6 0h6v3h-6zm7 0h5v3h-5zm-13 4h5v3h-5zm6 0h6v3h-6zm7 0h5v3h-5zm-13 4h5v3h-5zm6 0h6v3h-6zm7 0h5v3h-5z" fill="#e5e5ea"/><path d="m3 2c-.554 0-1 .446-1 1v15c0 .554.446 1 1 1h18c.554 0 1-.446 1-1v-15c0-.554-.446-1-1-1zm0 1h5 1 6 1 5v6 1 3 1 4h-5-1-6-1-5v-4-1-3-1z" fill="#f2f2f7"/><path d="m2 18v3c0 .554.446 1 1 1h3c.8662786 0 2-1.589098 2-2v-1h-1v1l-1 1c-6 0 3 0-3 0v-3z" fill="#f2f2f7"/><path d="m9 19h4v2h-4z" fill="#2d2d2d"/><path d="m8 18v3c0 .554.446 1 1 1h3c.866279 0 2-1.589098 2-2v-1h-1v1l-1 1c-6 0 3 0-3 0v-3z" fill="#f2f2f7"/><circle cx="18.504662" cy="17.496187" fill="#31de4b" r="4.496188"/><circle cx="18.500514" cy="17.500514" fill="#28d74b" r="3.499808"/><g fill="#2d2d2d"><rect height="5" rx=".42437" ry=".5" width="1" x="18" y="15"/><rect height="1" rx=".5" ry=".407563" width="5" x="16" y="17"/></g></svg>