<svg viewBox="0 0 24 24" xmlns="http://www.w3.org/2000/svg" xmlns:xlink="http://www.w3.org/1999/xlink"><linearGradient id="a" gradientUnits="userSpaceOnUse" x1="14" x2="14" xlink:href="#d" y1="6" y2="2"/><linearGradient id="b" gradientUnits="userSpaceOnUse" x1="16.5" x2="16.5" xlink:href="#d" y1="22" y2="18"/><linearGradient id="c" gradientTransform="translate(-9.003098 7.250335)" gradientUnits="userSpaceOnUse" x1="12.003098" x2="12.003098" xlink:href="#d" y1="15.749664" y2="-4.250335"/><linearGradient id="d" gradientTransform="translate(-25.830508 -3.59322)" gradientUnits="userSpaceOnUse" x1="14" x2="13.79661" y1="22" y2="2.135593"><stop offset="0" stop-color="#409cff"/><stop offset="1" stop-color="#0a84ff"/></linearGradient><path d="m8.5 2c-.2769997 0-.5.2230003-.5.5s.2230003.5.5.5h13c.277 0 .5-.2230003.5-.5s-.223-.5-.5-.5zm0 3c-.2769997 0-.5.2230003-.5.5s.2230003.5.5.5h7c.277 0 .5-.2230003.5-.5s-.223-.5-.5-.5z" fill="url(#a)"/><rect fill="#f2f2f7" height="1" ry=".476995" transform="scale(-1 1)" width="12" x="-22" y="10"/><path d="m8.4355469 18c-.2417881 0-.4355469.193759-.4355469.435547v.128906c0 .241788.1937588.435547.4355469.435547h13.1289061c.241788 0 .435547-.193759.435547-.435547v-.128906c0-.241788-.193759-.435547-.435547-.435547zm.0644531 3c-.2769997 0-.5.223-.5.5s.2230003.5.5.5h7c.277 0 .5-.223.5-.5s-.223-.5-.5-.5z" fill="url(#b)"/><rect fill="#f2f2f7" height="1" ry=".5" transform="scale(-1 1)" width="6" x="-16" y="13"/><path d="m1.5 2c-.034625 0-.068955.00313-.1015625.00977-.032607.00664-.06382.01668-.09375.029297s-.057393.028939-.083984.046875c-.026592.017936-.051625.037953-.074219.060547s-.042611.047627-.060547.074219-.034258.054055-.046875.083984c-.012617.02993-.022658.061143-.029297.09375-.0066384.0325984-.0097655.066933-.0097655.101558v16c0 .277.2230006.5.5.5h2.5v1.5c.0003201.27481.221307.498407.4960938.501953.1352469.0018.2655042-.05102.3613281-.146484l1.9948896-1.994306c.1963905-.19629.1963905-.514648 0-.710938l-1.9948896-2.005694c-.3166743-.315722-.857027-.091702-.8574219.355469v1.5h-2v-15h3.5c.5 0 .5-.25.5-.25v-.5s0-.25-.5-.25h-3z" fill="url(#c)"/></svg>