<svg viewBox="0 0 24 24" xmlns="http://www.w3.org/2000/svg" xmlns:xlink="http://www.w3.org/1999/xlink"><linearGradient id="a" gradientUnits="userSpaceOnUse" x1="12" x2="12" y1="3" y2="21"><stop offset="0" stop-color="#2d2d2d"/><stop offset=".33333334" stop-color="#2d2d2d"/><stop offset=".8888889" stop-color="#2d2d2d"/><stop offset="1" stop-color="#2d2d2d"/></linearGradient><filter id="b" color-interpolation-filters="sRGB" height="1.094553" width="1.097492" x="-.048746" y="-.047277"><feGaussianBlur stdDeviation=".36559322"/></filter><g transform="translate(9)"><path d="m3 6 5-.059322v14.601695l-1.5 1.957627-3.5.05932z" filter="url(#b)" opacity=".15" stroke-width="1.015418"/><path d="m3 19h4v2h-4z" fill="#2d2d2d"/><path d="m3 7h9v11h-9z" fill="url(#a)"/><path d="m2 7v11c0 .554.446 1 1 1h9v-1h-4v-3h4v-1h-4v-3h4v-1h-4v-3h-1v3h-4v-3zm1 4h4v3h-4zm0 4h4v3h-4z" fill="#e5e5ea"/><g fill="#f2f2f7"><path d="m3 6c-.554 0-1 .446-1 1v11c0 .554.446 1 1 1h9c.554 0 1-.446 1-1v-11c0-.554-.446-1-1-1zm0 1h9v11h-9z"/><path d="m2 18v3c0 .554.446 1 1 1h3c.8662786 0 2-1.589098 2-2v-1h-1v1l-1 1c-6 0 3 0-3 0v-3z"/></g></g><g transform="translate(0 -4)"><path d="m3 6 5-.059322v14.601695l-1.5 1.957627-3.5.05932z" filter="url(#b)" opacity=".15" stroke-width="1.015418"/><path d="m3 19h4v2h-4z" fill="#5ac8f5"/><path d="m3 7h9v11h-9z" fill="#5ac8f5"/><g fill="#70d7ff"><path d="m2 7v11c0 .554.446 1 1 1h9v-1h-4v-3h4v-1h-4v-3h4v-1h-4v-3h-1v3h-4v-3zm1 4h4v3h-4zm0 4h4v3h-4z"/><path d="m3 6c-.554 0-1 .446-1 1v11c0 .554.446 1 1 1h9c.554 0 1-.446 1-1v-11c0-.554-.446-1-1-1zm0 1h9v11h-9z"/><path d="m2 18v3c0 .554.446 1 1 1h3c.8662786 0 2-1.589098 2-2v-1h-1v1l-1 1c-6 0 3 0-3 0v-3z"/></g></g></svg>