<svg viewBox="0 0 24 24" xmlns="http://www.w3.org/2000/svg" xmlns:xlink="http://www.w3.org/1999/xlink"><linearGradient id="a" gradientUnits="userSpaceOnUse" x1="17.496094" x2="18" y1="20.935547" y2="3"><stop offset="0" stop-color="#2d2d2d"/><stop offset="1" stop-color="#2d2d2d"/></linearGradient><path d="m7 3c-1.0474152 0-2 .8592521-2 1.875v2.375 9.5c-.0000276.276131-.2238691.499972-.5.5-.5207324 0-.8482337.184902-1.0976562.503906-.2494228.319004-.4023438.802696-.4023438 1.371094 0 .552515.1724303 1.029299.4511719 1.355469s.6530957.519531 1.1738281.519531h.25.9375.25.9375.25 2.125 3.226562 2.585938 1.1875c1.047415 0 2-.859252 2-1.875v-2.375-9.5c.000028-.276131.223869-.499972.5-.5.520732 0 1.848234-.1849023 2.097656-.5039062.249423-.3190041.402344-.8026958.402344-1.3710938 0-.552515-.17243-1.0292988-.451172-1.3554688-.278741-.32617-1.19489-.5704429-1.715623-.5704429h-.25-.9375-.25l-1.395705.0509117h-.25-5.351562-2.585938z" fill="url(#a)"/><path d="m7 2c-1.5841076 0-3 1.2592251-3 2.875v2.375 3.560547 5.550781c-.5306291.110971-1.0030754.340448-1.328125.716797-.00242.0028-.00541.005-.00781.0078-.6268096.484108-.664065 1.051036-.664065 1.914075 0 1.581925.918113 3.025391 2.5 3.025391h1.1875 1.1875 7.9375 1.1875c1.584108 0 3-1.259225 3-2.875v-2.375-3.560547-5.5507815c.530629-.1109713 2.003075-.340448 2.328125-.7167969.0029-.00225.0049-.00555.0078-.00781 1.164075-5.4394556-1.335925-4.9394556-3.311101-4.9564262h-.474736zm0 1 10.425088.00842h1.1875c.520732 0 1.657499.2103319 1.93624.5365019.278742.32617.451172.8029537.451172 1.3554687 0 .568398-.152921 1.0520898-.402344 1.3710938-.114373.1462808-.247937.2607164-.40625.3457031-.213955.084214-1.446246.1328125-1.691406.1328125-.276131.0000276-.499972.2238691-.5.5v.025391 5.724609 3.775391 2.375c0 1.015748-.952585 1.875-2 1.875h-1.1875-2.197266c-.0046-.0085-.0091-.01691-.01367-.02539h-.914064-2.3125-2.375-1.1875-1.1875c-.5207324-.000001-.8950865-.193362-1.1738281-.519532s-.4511719-.802954-.4511719-1.355469c0-.568398.1529211-1.05209.4023438-1.371094.1143739-.146281.2479372-.260716.40625-.345703.2139555-.084214.4462462-.132812.6914062-.132812.2761309-.000028.4999724-.223869.5-.5v-.025391-5.75-3.75-2.375c0-1.0157479.9525848-1.875 2-1.875z" fill="#f2f2f7"/><path d="m2 16v1.5 1.5.5c.0004896.46152.1605796.908668.453125 1.265625.3857847.675633 1.0027778 1.159181 1.8261719 1.234375h11.9824221c.07964-.0071.160041-.01021.238281-.02344v-1.02539c-.162562.04294-.329508.05661-.5.07422h-1.1875-2.197266c-.0046-.0085-.0091-.01691-.01367-.02539h-7.2812515-.3203125c-1.1045695 0-2-.895431-2-2v-2h2 9v2c0 1.104569.895431 2 2 2 .16741-.000637.334079-.02229.496094-.06445-.881146-.229411-1.496125-1.02503-1.496094-1.93555v-2-1h-10-1z" fill="#ff6961"/><path d="m3 17v2c0 1.104569.8954305 2 2 2h10.5v-.06445c-.882696-.227914-1.499569-1.023905-1.5-1.93555v-2h-9z" fill="#ff9f0a"/><path d="m19.753906 2.0546875.246094.0078125c-.67977.1500751-1.207692.5778569-1.546875 1.171875-.292545.3569569-.452635.8041049-.453125 1.265625v.5 1.5 1.5h2 2v-1.5-1.5-.5c-.00049-.4615201-.16058-.9086681-.453125-1.265625-.339183-.5940181-.867105-1.0217999-1.546875-1.171875zm0 1.1816406.246094.0371094c.617107.3562835.998043 1.0139929 1 1.7265625v2h-1-1v-2c.002-.7125696.382893-1.370279 1-1.7265625z" fill="#ff6961"/><path d="m19.753906 3.2363281.246094.0371094c-.617107.3562835-.998 1.0139929-1 1.7265625v2h1 1v-2c-.002-.7125696-.382893-1.370279-1-1.7265625z" fill="#ff9f0a"/><path d="m16.5 8.9960938c-1.360936-.0000003-2.503906 1.1429702-2.503906 2.5039062v2.470703h-1.992188c-.51229 0-.993348.16293-1.394531.4375-.132462.090658-.255946.193205-.369141.306641l-.001953.001953c-.112426.112905-.21483.235285-.3046872.367187-.2745702.401183-.4375.882242-.4375 1.394532v.021484c-.0000003 1.360936 1.1429702 2.503906 2.5039062 2.503906h1.996094v.996094h.003906v1h1.5.671875c-.057729.00647-.113274.019338-.171875.025391h-1.1875-.8125v.449218c0 .189239.026647.372458.068359.550782h.744141 1.1875c.088742 0 .174252-.017646.261719-.025391.07964-.0071.160041-.010207.238281-.023438 1.369643-.231466 2.5-1.383333 2.5-2.826171v-2.375-3.560547-1.751953c-.021011-1.34416-1.151739-2.4667974-2.5-2.4667972z" fill="#2d2d2d" fill-opacity=".784314"/><path d="m16.5 10.5c-.554 0-1 .446-1 1v3.978516h-3.5c-.554 0-1 .446-1 1v.021484c0 .554.446 1 1 1h3.5v4c0 .554.446 1 1 1s1-.446 1-1v-4h4.013672c.554 0 1-.446 1-1v-.02148c0-.554-.446-1-1-1h-4.013672v-3.97852c0-.554-.446-1-1-1z" fill="#28d74b" stroke="#31de4b"/></svg>