<svg viewBox="0 0 24 24" xmlns="http://www.w3.org/2000/svg" xmlns:xlink="http://www.w3.org/1999/xlink"><linearGradient id="a" gradientUnits="userSpaceOnUse" x1="12" x2="12" y1="22" y2="2"><stop offset="0" stop-color="#ff6482"/><stop offset="1" stop-color="#ff453a"/></linearGradient><linearGradient id="b" gradientUnits="userSpaceOnUse" x1="13" x2="13" y1="23" y2="5"><stop offset="0" stop-color="#2d2d2d"/><stop offset=".22222222" stop-color="#2d2d2d"/><stop offset=".83333331" stop-color="#2d2d2d"/><stop offset="1" stop-color="#2d2d2d"/></linearGradient><linearGradient id="c" gradientUnits="userSpaceOnUse" x1="19.5" x2="19.5" y1="21.500002" y2="14.5"><stop offset="0" stop-color="#e5e5ea"/><stop offset=".07142864" stop-color="#e7e7e7"/><stop offset=".07142864" stop-color="#2d2d2d"/><stop offset=".5" stop-color="#2d2d2d"/><stop offset=".93333334" stop-color="#2d2d2d"/><stop offset="1" stop-color="#2d2d2d"/></linearGradient><linearGradient id="d" gradientUnits="userSpaceOnUse" x1="19.428572" x2="19.428572" y1="18.25" y2="21.285715"><stop offset="0" stop-color="#2d2d2d"/><stop offset="1" stop-color="#2d2d2d"/></linearGradient><circle cx="12" cy="12" fill="#2d2d2d" r="9"/><path d="m12 2a10 10 0 0 0 -10 10 10 10 0 0 0 10 10 10 10 0 0 0 10-10 10 10 0 0 0 -10-10zm0 1a9 9 0 0 1 9 9 9 9 0 0 1 -9 9 9 9 0 0 1 -9-9 9 9 0 0 1 9-9zm0 1a8 8 0 0 0 -8 8 8 8 0 0 0 8 8 8 8 0 0 0 8-8 8 8 0 0 0 -8-8z" fill="url(#a)"/><g transform="translate(-2 -1)"><path d="m16 13h7v10h-7z" fill="url(#b)"/><path d="m16 12c-.554 0-1 .446-1 1v10c0 .554.446 1 1 1h7c.554 0 1-.446 1-1v-10c0-.554-.446-1-1-1zm0 1h7v10h-7z" fill="#f2f2f7"/><g stroke-width=".607143"><path d="m17 14h5v8h-5z" fill="#f2f2f7"/><path d="m17.5 14.5h4v7h-4z" fill="url(#c)"/><path d="m18 16h3v2h-3z" fill="#5b5b5b"/><path d="m18 18h3v3h-3z" fill="url(#d)"/></g></g></svg>