<svg viewBox="0 0 24 24" xmlns="http://www.w3.org/2000/svg" xmlns:xlink="http://www.w3.org/1999/xlink"><linearGradient id="a" gradientUnits="userSpaceOnUse" x1="13" x2="13" y1="23" y2="5"><stop offset="0" stop-color="#2d2d2d"/><stop offset=".22222222" stop-color="#2d2d2d"/><stop offset=".83333331" stop-color="#2d2d2d"/><stop offset="1" stop-color="#2d2d2d"/></linearGradient><linearGradient id="b" gradientUnits="userSpaceOnUse" x1="19.5" x2="19.5" y1="21.500002" y2="14.5"><stop offset="0" stop-color="#e5e5ea"/><stop offset=".07142864" stop-color="#e7e7e7"/><stop offset=".07142864" stop-color="#2d2d2d"/><stop offset=".5" stop-color="#2d2d2d"/><stop offset=".93333334" stop-color="#2d2d2d"/><stop offset="1" stop-color="#2d2d2d"/></linearGradient><linearGradient id="c" gradientUnits="userSpaceOnUse" x1="19.428572" x2="19.428572" y1="18.25" y2="21.285715"><stop offset="0" stop-color="#2d2d2d"/><stop offset="1" stop-color="#2d2d2d"/></linearGradient><path d="m2 6v15h19 .5.5v-15zm1 1h18v13h-18z" fill="#f2f2f7"/><path d="m3 7v13h18v-13z" fill="#2d2d2d"/><path d="m1 4h22v2h-22z" fill="#f2f2f7"/><path d="m5 9h14v2h-14z" fill="#ff9f0a"/><g fill="#f2f2f7" transform="translate(0 1)"><path d="m5 12h1v1h-1z"/><path d="m5 16h1v1h-1z"/><path d="m5 14h1v1h-1z"/><path d="m8 12h11v1h-11z"/><path d="m8 16h7v1h-7z"/><path d="m8 14h9v1h-9z"/></g><g transform="translate(-2 -1)"><path d="m16 13h7v10h-7z" fill="url(#a)"/><path d="m16 12c-.554 0-1 .446-1 1v10c0 .554.446 1 1 1h7c.554 0 1-.446 1-1v-10c0-.554-.446-1-1-1zm0 1h7v10h-7z" fill="#f2f2f7"/><g stroke-width=".607143"><path d="m17 14h5v8h-5z" fill="#f2f2f7"/><path d="m17.5 14.5h4v7h-4z" fill="url(#b)"/><path d="m18 16h3v2h-3z" fill="#5b5b5b"/><path d="m18 18h3v3h-3z" fill="url(#c)"/></g></g></svg>