<svg viewBox="0 0 24 24" xmlns="http://www.w3.org/2000/svg" xmlns:xlink="http://www.w3.org/1999/xlink"><linearGradient id="a" gradientTransform="matrix(.70710679 .70710677 -.70710677 .70710679 -36 6)" gradientUnits="userSpaceOnUse" x1="46.315495" x2="38.537319" y1="-25.809397" y2="-33.58757"><stop offset="0" stop-color="#409cff"/><stop offset="1" stop-color="#0a84ff"/></linearGradient><path d="m3 8c-.554 0-1 .446-1 1v10c0 .554.446 1 1 1h10c.554 0 1-.446 1-1v-10c0-.554-.446-1-1-1z" fill="#f2f2f7"/><path d="m3 9h10v10h-10z" fill="#f2f2f7"/><path d="m16 2a6 6 0 0 0 -6 6 6 6 0 0 0 6 6 6 6 0 0 0 6-6 6 6 0 0 0 -6-6z" fill="#ff9f0a"/><circle cx="16" cy="8" fill="#fc0" r="5"/><g fill-rule="evenodd"><path d="m15 22 7-7.000001-7-6.999999-7.0000001 6.999999z" fill="#409cff"/><path d="m15 9.5-5.5 5.5 5.5 5.5 5.5-5.5z" fill="url(#a)"/></g></svg>