<svg viewBox="0 0 24 24" xmlns="http://www.w3.org/2000/svg" xmlns:xlink="http://www.w3.org/1999/xlink"><filter id="a" color-interpolation-filters="sRGB" height="1.094553" width="1.097492" x="-.048746" y="-.047277"><feGaussianBlur stdDeviation=".36559322"/></filter><linearGradient id="b" gradientUnits="userSpaceOnUse" x1="45.5" x2="45" y1="12" y2="4"><stop offset="0" stop-color="#0078f6"/><stop offset="1" stop-color="#51cdfb"/></linearGradient><linearGradient id="c" gradientUnits="userSpaceOnUse" x1="45.5" x2="45" y1="12" y2="4.5"><stop offset="0" stop-color="#01bc23"/><stop offset="1" stop-color="#4ee581"/></linearGradient><path d="m3 17.940678h18v2.559322h-18z" filter="url(#a)" opacity=".15" stroke-width="1.015418"/><path d="m2 5v8.259766 6.740234h8.398438 3.203124 8.398438v-6.740234-8.259766zm1 1h18v6.607422 6.392578h-7.789062-2.421876-7.789062v-6.392578z" fill="#f2f2f7"/><path d="m3 6v6.607422 6.392578h7.789062 2.421876 7.789062v-6.392578-6.607422z" fill="#2d2d2d"/><path d="m1 3h22v2h-22z" fill="#f2f2f7"/><path d="m12.417957 14.077877a4 4 0 0 1 -4.8481109 1.657717 4 4 0 0 1 -2.5015676-4.471506 4 4 0 0 1 3.9494539-3.2640487l-.0177324 3.9999607z" fill="url(#b)"/><path d="m10.017578 8.1367188-.015625 3.3027342 2.826172 1.716797a4 4 0 0 0 .171875-1.158203 4 4 0 0 0 -2.982422-3.8613282z" fill="url(#c)"/><g fill="#f2f2f7"><path d="m14 9h5v1h-5z"/><path d="m14 11h5v1h-5z"/><path d="m14 13h5v1h-5z"/></g></svg>