<svg viewBox="0 0 24 24" xmlns="http://www.w3.org/2000/svg" xmlns:xlink="http://www.w3.org/1999/xlink"><filter id="a" color-interpolation-filters="sRGB" height="1.094553" width="1.097492" x="-.048746" y="-.047277"><feGaussianBlur stdDeviation=".36559322"/></filter><linearGradient id="b" gradientUnits="userSpaceOnUse" x1="91.5" x2="91.5" y1="15" y2="3"><stop offset="0" stop-color="#409cff"/><stop offset="1" stop-color="#0a84ff"/></linearGradient><linearGradient id="c" gradientUnits="userSpaceOnUse" x1="15" x2="17.000001" y1="7" y2="4.999999"><stop offset="0" stop-color="#2d2d2d"/><stop offset=".77967989" stop-color="#2d2d2d"/><stop offset="1" stop-color="#3a3a3c"/></linearGradient><radialGradient id="d" cx="17" cy="6.555555" gradientTransform="matrix(1.4285714 -.00000006 .00000006 1.4285714 -7.285714 -4.365078)" gradientUnits="userSpaceOnUse" r="7"><stop offset="0" stop-color="#2d2d2d"/><stop offset=".29999998" stop-color="#2d2d2d"/><stop offset="1" stop-color="#2d2d2d"/></radialGradient><path d="m5 19.940678h14v2.559322h-14z" filter="url(#a)" opacity=".15" stroke-width="1.015418"/><path d="m5 3v18h14v-14.2705905l-4-3.7294095z" fill="url(#d)"/><path d="m5 2c-.554 0-1 .446-1 1v18c0 .554.446 1 1 1h14c.554 0 1-.446 1-1v-10.109375-3.6412209-.2079239c0-.4506799.09887-.4265951-.604637-1.0675892l-3.307389-3.2370335c-.709525-.7368575-.711223-.7368575-1.094804-.7368575h-.331557-.661613zm0 1h9v4c0 .554.446 1 1 1h4v13h-14z" fill="#f2f2f7"/><path d="m15 7h4l-4-4z" fill="#2d2d2d" fill-rule="evenodd"/><path d="m15 3 4 4h-4z" fill="url(#c)"/><path d="m14 5c-.552262.0000552-.999945.4477381-1 1v1c.000055.5522619.447738.9999448 1 1h1v.6347656 10.7304684.634766h-1c-.552262.000055-.999945.447738-1 1v1h6c.554 0 1-.446 1-1-.000055-.552262-.447738-.999945-1-1h-1v-.634766-10.7304684-.6347656h1c.552262-.000055.999945-.447738 1-1v-.2441406c-.009772-.200749-.093827-.3150725-.605469-.78125l-.996093-.9746094h-1.398438c-.175608.0002451-.348056.0467252-.5.1347656-.151944-.0880404-.324392-.1345205-.5-.1347656z" fill="#2d2d2d" fill-opacity=".784314"/><path d="m14 6v1h2v-1zm2 1v14h1v-14zm1 0h2v-1h-2zm0 14v1h2v-1zm-1 0h-2v1h2z" fill="url(#b)"/></svg>