<svg viewBox="0 0 24 24" xmlns="http://www.w3.org/2000/svg" xmlns:xlink="http://www.w3.org/1999/xlink"><linearGradient id="a" gradientUnits="userSpaceOnUse" x1="12.126953" x2="11.998518" y1="16.87484" y2="7.187341"><stop offset="0" stop-color="#2d2d2d"/><stop offset="1" stop-color="#2d2d2d" stop-opacity="0"/></linearGradient><linearGradient id="b" gradientUnits="userSpaceOnUse" x1="44" x2="44" y1="21" y2="3.003906"><stop offset="0" stop-color="#3a3a3c"/><stop offset=".2857143" stop-color="#2d2d2d"/><stop offset="1" stop-color="#2d2d2d"/></linearGradient><path d="m20.995763 12a8.9957628 8.9957628 0 0 1 -8.995763 8.995763 8.9957628 8.9957628 0 0 1 -8.9957628-8.995763 8.9957628 8.9957628 0 0 1 8.9957628-8.9957628 8.9957628 8.9957628 0 0 1 8.995763 8.9957628z" fill="url(#b)" stroke-width=".899576"/><path d="m12 2a10 10 0 0 0 -10 10 10 10 0 0 0 10 10 10 10 0 0 0 10-10 10 10 0 0 0 -10-10zm0 1.0039062a8.9957628 8.9957628 0 0 1 8.996094 8.9960938 8.9957628 8.9957628 0 0 1 -8.996094 8.996094 8.9957628 8.9957628 0 0 1 -8.9960938-8.996094 8.9957628 8.9957628 0 0 1 8.9960938-8.9960938z" fill="#f2f2f7"/><path d="m9.5410156 7.0019531a1.4982769 1.4982769 0 0 0 -1.5390625 1.4980469v7a1.4982769 1.4982769 0 0 0 2.2519529 1.294922l6-3.5a1.4982769 1.4982769 0 0 0 0-2.589844l-6-3.4999999a1.4982769 1.4982769 0 0 0 -.7128904-.203125z" fill="url(#a)"/><path d="m9.5136719 8a.50005.50005 0 0 0 -.5136719.5v7a.50005.50005 0 0 0 .7519531.431641l5.9999999-3.5a.50005.50005 0 0 0 0-.863282l-5.9999999-3.4999996a.50005.50005 0 0 0 -.2382812-.0683594z" fill="#f2f2f7"/></svg>