<svg viewBox="0 0 24 24" xmlns="http://www.w3.org/2000/svg" xmlns:xlink="http://www.w3.org/1999/xlink"><linearGradient id="a" gradientTransform="translate(-50.237288 -.305085)" gradientUnits="userSpaceOnUse" x1="14" x2="13.79661" y1="22" y2="2.135593"><stop offset="0" stop-color="#409cff"/><stop offset="1" stop-color="#0a84ff"/></linearGradient><linearGradient id="b" gradientUnits="userSpaceOnUse" x1="10" x2="10" xlink:href="#a" y1="20" y2="14"/><linearGradient id="c" gradientUnits="userSpaceOnUse" x1="11" x2="11" xlink:href="#a" y1="11" y2="5"/><path d="m22 3v5h-7v-5zm-1 1h-5v3h5zm1 6v5h-7v-5zm-14 0v5h-7v-5zm13 1h-5v3h5zm-14 0h-5v3h5zm15 6v5h-7v-5zm-1 1h-5v3h5z" fill="#f2f2f7"/><path d="m21 4v3h-5v-3zm0 7v3h-5v-3zm-14 0v3h-5v-3zm14 7v3h-5v-3z" fill="#2d2d2d"/><g fill="#409cff"><path d="m8.4941414 13.99414c-.449403.000092-.670587.54684-.347657.859375l3.4999996 3.5-1.646484 1.646485h4v-4l-1.646484 1.646484-3.4999996-3.5c-.09421-.09737-.223892-.152344-.359375-.152344z" fill="url(#b)"/><path d="m8.4941414 11.00586c-.449403-.000092-.670587-.54684-.347657-.859375l3.4999996-3.5-1.646484-1.646485h4v4l-1.646484-1.646484-3.4999996 3.5c-.09421.09737-.223892.152344-.359375.152344z" fill="url(#c)"/></g></svg>