<svg viewBox="0 0 24 24" xmlns="http://www.w3.org/2000/svg" xmlns:xlink="http://www.w3.org/1999/xlink"><filter id="a" color-interpolation-filters="sRGB" height="1.094553" width="1.097492" x="-.048746" y="-.047277"><feGaussianBlur stdDeviation=".36559322"/></filter><path d="m13.74762 9 9.5-.059322v2.559322l-9.5.05932z" filter="url(#a)" opacity=".15" stroke-width="1.015418"/><path d="m.5 9 9.5-.059322v2.559322l-9.5.05932z" filter="url(#a)" opacity=".15" stroke-width="1.015418"/><path d="m13.99762 1v9.054688h9v-5.3252785l-4-3.7294095z" fill="#2d2d2d"/><path d="m13.99762 0c-.554 0-1 .446-1 1v9.054688c0 .554.446 1 1 1h9c.554 0 1-.446 1-1v-2.1093755-2.6959084-.2079239c0-.4506799.09887-.4265951-.604637-1.0675892l-4.039431-3.973891zm0 1h5l.00238 3c.00044.5539998.446 1 1 1h3l-.0024 5.054688h-9z" fill="#f2f2f7"/><path d="m20 4h2l-2-2z" fill="#2d2d2d" fill-rule="evenodd"/><path d="m13.99762 14v9h9v-5.270591l-4-3.729409z" fill="#2d2d2d"/><path d="m13.99762 13c-.554 0-1 .446-1 1v9c0 .554.446 1 1 1h9c.554 0 1-.446 1-1v-1.109375-3.641221-.207924c0-.45068.09887-.426595-.604637-1.067589l-4.039431-3.973891zm0 1h5l.00238 3c.00044.554.446 1 1 1h3l-.0024 5h-9z" fill="#f2f2f7"/><path d="m20 17h2l-2-2z" fill="#2d2d2d" fill-rule="evenodd"/><path d="m1 1v9.054688h9v-5.3252785l-4-3.7294095z" fill="#2d2d2d"/><path d="m1 0c-.554 0-1 .446-1 1v9.054688c0 .554.446 1 1 1h9c.554 0 1-.446 1-1v-2.1093755-2.6959084-.2079239c0-.4506799.09887-.4265951-.604637-1.0675892l-4.039431-3.973891zm0 1h5l.00238 3c.00044.5539998.446 1 1 1h3l-.0024 5.054688h-9z" fill="#f2f2f7"/><path d="m7.00238 4h2l-2-2z" fill="#2d2d2d" fill-rule="evenodd"/><path d="m1 14v9h9v-5.270591l-4-3.729409z" fill="#2d2d2d"/><path d="m1 13c-.554 0-1 .446-1 1v9c0 .554.446 1 1 1h9c.554 0 1-.446 1-1v-1.109375-3.641221-.207924c0-.45068.09887-.426595-.604637-1.067589l-4.039431-3.973891zm0 1h5l.00238 3c.00044.554.446 1 1 1h3l-.0024 5h-9z" fill="#f2f2f7"/><path d="m7.00238 17h2l-2-2z" fill="#2d2d2d" fill-rule="evenodd"/></svg>