<svg viewBox="0 0 24 24" xmlns="http://www.w3.org/2000/svg" xmlns:xlink="http://www.w3.org/1999/xlink"><linearGradient id="a" gradientUnits="userSpaceOnUse" x1="12.037109" x2="12.037109" xlink:href="#c" y1="11.496094" y2="3.496094"/><linearGradient id="b" gradientUnits="userSpaceOnUse" x1="12" x2="12" xlink:href="#c" y1="12.5" y2="4.5"/><linearGradient id="c" gradientUnits="userSpaceOnUse" x1="44" x2="44" y1="21" y2="3.003906"><stop offset="0" stop-color="#3a3a3c"/><stop offset=".2857143" stop-color="#2d2d2d"/><stop offset="1" stop-color="#2d2d2d"/></linearGradient><g transform="translate(.037109 6.996094)"><path d="m11.962891 3.0039062a.99619342.99619342 0 0 0 -.408203.1054688l-8.0000005 4a.99619342.99619342 0 0 0 -.0820313 1.734375l7.9999998 5a.99619342.99619342 0 0 0 1.054688 0l8-5a.99619342.99619342 0 0 0 -.08203-1.734375l-8-4a.99619342.99619342 0 0 0 -.482423-.1054688z" fill="#f2f2f7"/><path d="m12 4-8 4 8 5 8-5z" fill="url(#b)"/></g><g transform="translate(.037109 2.996094)"><path d="m11.962891 3.0039062a.99619342.99619342 0 0 0 -.408203.1054688l-8.0000005 4a.99619342.99619342 0 0 0 -.0820313 1.734375l7.9999998 5a.99619342.99619342 0 0 0 1.054688 0l8-5a.99619342.99619342 0 0 0 -.08203-1.734375l-8-4a.99619342.99619342 0 0 0 -.482423-.1054688z" fill="#f2f2f7"/><path d="m12 4-8 4 8 5 8-5z" fill="url(#b)"/></g><path d="m11.962891 3.0039062a.99619342.99619342 0 0 0 -.408203.1054688l-8.0000005 4a.99619342.99619342 0 0 0 -.0820313 1.734375l7.9999998 5a.99619342.99619342 0 0 0 1.054688 0l8-5a.99619342.99619342 0 0 0 -.08203-1.734375l-8-4a.99619342.99619342 0 0 0 -.482423-.1054688z" fill="#f2f2f7" transform="translate(.037109 -1.003906)"/><path d="m12.037109 2.9960938-8 4 8 5.0000002 8-5.0000002z" fill="url(#a)"/></svg>