<svg viewBox="0 0 24 24" xmlns="http://www.w3.org/2000/svg" xmlns:xlink="http://www.w3.org/1999/xlink"><linearGradient id="a" gradientTransform="matrix(1 0 0 -1 0 7.999941)" gradientUnits="userSpaceOnUse" x1="19.492188" x2="19.5" y1="2" y2="5.999941"><stop offset="0" stop-color="#409cff"/><stop offset="1" stop-color="#0a84ff"/></linearGradient><path d="m14 22v-13l4.355234-.00641c1.470237-.00216 2.052506.3708232 2.820364.9601089.767857.5892861 1.151785 1.4672631 1.151785 2.6339291-.0042 1.433887-.522812 2.271156-1.356077 2.931225 1.254745.543482 1.456925 1.741404 1.668577 2.756275 0 1.220238-.392857 2.487566-1.178571 3.142328-.779762.654762-1.36203.576134-2.820363.576134zm1.919974-5.320104v3.839948h2.74776c.708333 0 1.261905-.175595 1.660714-.526786.39881-.35119.697995-1.17713.598214-1.794114-.21852-1.35119-1.18465-1.489285-2.071428-1.519048zm0-1.919974h2.453117c.702381 0 1.25-.157738 1.642858-.473214.398809-.321429.598214-1.066931.598214-1.650264 0-.642857-.184524-1.002184-.553571-1.287898-.363095-.285714-.931548-.428572-1.705358-.428572h-2.43526z" fill="#f2f2f7" stroke-width=".457143"/><path d="m19.492188 5.9999414a.50005.50005 0 0 1 -.345704-.1464844l-3-3a.50005.50005 0 0 1 .353516-.8535156h6a.50005.50005 0 0 1 .353516.8535156l-3 3a.50005.50005 0 0 1 -.361328.1464844z" fill="url(#a)"/><path d="m5.375 7-5.375 15h2.4707031l1.3398438-4h5.3847656l1.3222655 4h2.480469l-5.3125001-15zm1.1152344 2.9980469h.058594l1.9843747 6.0019531h-4.0527343z" fill="#f2f2f7"/></svg>