<svg viewBox="0 0 24 24" xmlns="http://www.w3.org/2000/svg"><g fill="#fc0"><rect height="1" ry=".488357" width="20" x="2" y="4"/><rect height="1" ry=".488357" width="20" x="2" y="10"/><rect height="1" ry=".488357" width="20" x="2" y="16"/><rect height="1" ry=".488357" width="20" x="2" y="13"/><rect height="1" ry=".488357" width="20" x="2" y="7"/></g><g fill="#f2f2f7"><path d="m2.5 19h19c.277 0 .5.223.5.5s-.223.5-.5.5h-19c-.277 0-.5-.223-.5-.5s.223-.5.5-.5z"/><path d="m4.5 2c.277 0 .5.223.5.5v19c0 .277-.223.5-.5.5s-.5-.223-.5-.5v-19c0-.277.223-.5.5-.5z"/></g></svg>