<svg viewBox="0 0 24 24" xmlns="http://www.w3.org/2000/svg" xmlns:xlink="http://www.w3.org/1999/xlink"><filter id="a" color-interpolation-filters="sRGB" height="1.094553" width="1.097492" x="-.048746" y="-.047277"><feGaussianBlur stdDeviation=".36559322"/></filter><linearGradient id="b" gradientTransform="translate(-50.237288 -.305085)" gradientUnits="userSpaceOnUse" x1="14" x2="13.79661" y1="22" y2="2.135593"><stop offset="0" stop-color="#409cff"/><stop offset="1" stop-color="#0a84ff"/></linearGradient><linearGradient id="c" gradientTransform="translate(2.014242 -1.0001)" gradientUnits="userSpaceOnUse" x1="10" x2="10" xlink:href="#b" y1="12" y2="7"/><linearGradient id="d" gradientUnits="userSpaceOnUse" x1="12" x2="12" xlink:href="#b" y1="17" y2="13"/><path d="m13 20.940678h9v2.559322h-9z" filter="url(#a)" opacity=".15" stroke-width="1.015418"/><path d="m3 19.940678h14v2.559322h-14z" filter="url(#a)" opacity=".15" stroke-width="1.015418"/><path d="m3 3v9 9h6 8v-9-9h-6z" fill="#2d2d2d"/><g fill="#f2f2f7"><path d="m3 2c-.554 0-1 .446-1 1v9 9c0 .554.446 1 1 1h6 8c.554 0 1-.446 1-1v-9-9c0-.554-.446-1-1-1h-6zm0 1h8 6v9 9h-8-6v-9z"/><rect height="1" rx=".5" width="10" x="5" y="12"/><rect height="1" rx=".5" width="10" x="5" y="15"/><rect height="1" rx=".5" width="10" x="5" y="18"/></g><path d="m11 12v10h8c.554 0 1-.446 1-1v-9z" fill="#2d2d2d" fill-opacity=".784314"/><rect fill="#f2f2f7" height="7" ry="1" width="11" x="12" y="16"/><path d="m12 13h11v4h-11z" fill="url(#d)"/><g fill="#2d2d2d"><path d="m18 20h4v2h-4z"/><path d="m13 20h4v2h-4z"/><path d="m18 17h4v2h-4z"/><path d="m13 17h4v2h-4z"/><path d="m18 14h4v2h-4z"/><path d="m13 14h4v2h-4z"/></g><path d="m13 14v2h4v-2zm5 0v2h4v-2z" fill="#0a84ff"/><rect fill="#f2f2f7" height="1" rx=".5" ry=".474576" width="10" x="5" y="9"/><path d="m13 5c-1.570796 0-3.1314668.6470918-4.2421875 1.7578125s-1.7578125 2.6713912-1.7578125 4.2421875c.0000552.552262.4477381.999945 1 1h1l1.017578-.710938c-.0875269-.904514.237018-1.8184358.917969-2.4648432.887622-.8425949 2.197234-1.0610376 3.310547-.5527344l-.154297.1738281 1.175781-.8203125-1.814453 1.8144531c-.416259.4165482-.549563 1.0907029-.324219 1.6347659.225344.544062.795882.925551 1.384766.925781h2.486328 1v-6.9023438c-.203558.0750732-.393536.188269-.546875.3417969l-.894531.8945313c-1.036676-.7842406-2.255517-1.332045-3.556641-1.3339844z" fill="#2d2d2d" fill-opacity=".784314"/><path d="m13 6a5 5 0 0 0 -5 5h1a4 4 0 0 1 4-4 4 4 0 0 1 2.974609 1.3320312l-1.814453 1.8144528a.50005.50005 0 0 0 .353516.853516h2.486328 1 .5a.50005.50005 0 0 0 .5-.498047l.013672-3.9999999a.50005.50005 0 0 0 -.513672-.5019531.50005.50005 0 0 0 -.339844.1464844l-1.478515 1.4785156a5 5 0 0 0 -3.681641-1.625z" fill="url(#c)"/><rect fill="#f2f2f7" height="1" rx=".5" width="4" x="5" y="6"/></svg>