<svg viewBox="0 0 24 24" xmlns="http://www.w3.org/2000/svg" xmlns:xlink="http://www.w3.org/1999/xlink"><linearGradient id="a" gradientTransform="matrix(0 1 -1 0 34.001989 -.992187)" gradientUnits="userSpaceOnUse" x1="21.992188" x2="10.992187" y1="15.001989" y2="15.001989"><stop offset="0" stop-color="#409cff"/><stop offset="1" stop-color="#0a84ff"/></linearGradient><g fill="#f2f2f7" transform="scale(-1 1)"><rect height="1" ry=".5" width="18" x="-21" y="2"/><rect height="1" ry=".487288" width="12.999997" x="-16" y="9"/><rect height="1" ry=".411017" width="19" x="-22" y="21"/><rect height="1" ry=".464045" width="6.000001" x="-9" y="12"/><rect height="1" ry=".5" width="11" x="-14" y="5"/></g><path d="m18 10.007812v2.007813a2.25 2.25 0 0 1 2 2.234375 2.25 2.25 0 0 1 -2 2.232422v-1.97461c-.000922-.443929-.53774-.66555-.851562-.351562l-2.992188 3.005859c-.194583.194751-.194583.510327 0 .705079l2.992188 2.99414c.314488.314654.852381.091355.851562-.353516v-1.986328h.085938.001953l-.001953-.042968a4.25 4.25 0 0 0 3.914062-4.228516 4.25 4.25 0 0 0 -4-4.242188z" fill="url(#a)"/></svg>