<svg viewBox="0 0 24 24" xmlns="http://www.w3.org/2000/svg" xmlns:xlink="http://www.w3.org/1999/xlink"><linearGradient id="a" gradientUnits="userSpaceOnUse" x1="-17.81529" x2="-17.81529" y1="15" y2="-13.214286"><stop offset="0" stop-color="#409cff"/><stop offset="1" stop-color="#0a84ff"/></linearGradient><path d="m10 2a8 8 0 0 0 -8 8 8 8 0 0 0 8 8 8 8 0 0 0 8-8 8 8 0 0 0 -8-8zm0 2a6 6 0 0 1 6 6 6 6 0 0 1 -6 6 6 6 0 0 1 -6-6 6 6 0 0 1 6-6z" fill="#f2f2f7"/><path d="m21 21-6-6" fill="none" stroke="#f2f2f7" stroke-linecap="round" stroke-width="2"/><path d="m-10.761719 15h-7.053571v-21.1607142l-7.053572 3.5267857v-5.2901786l13.540737-5.6501119h.566406z" fill="url(#a)" transform="matrix(.2835443 0 0 .2835443 14.051424 9.746835)"/></svg>