<svg viewBox="0 0 16 16" xmlns="http://www.w3.org/2000/svg" xmlns:xlink="http://www.w3.org/1999/xlink"><linearGradient id="a" gradientTransform="matrix(.26458333 0 0 .26458333 101.6 307.58333)" gradientUnits="userSpaceOnUse" x1="18.5" x2="18.5" y1="23" y2="14.5"><stop offset="0" stop-color="#ff6482"/><stop offset="1" stop-color="#ff453a"/></linearGradient><linearGradient id="b" gradientUnits="userSpaceOnUse" x1="5.169491" x2="5.101695" xlink:href="#a" y1="6.559322" y2="3.169492"/><linearGradient id="c" gradientTransform="matrix(.80638732 0 0 .79969077 3.161242 3.202245)" gradientUnits="userSpaceOnUse" x1="11.192914" x2="11.111127" xlink:href="#a" y1="15.845822" y2="6.232731"/><linearGradient id="d" gradientUnits="userSpaceOnUse" x1="-19.897808" x2="-19.579052" y1="17.182213" y2="1.995771"><stop offset="0" stop-color="#409cff"/><stop offset="1" stop-color="#0a84ff"/></linearGradient><linearGradient id="e" gradientUnits="userSpaceOnUse" x1="1.355932" x2="1.644068" xlink:href="#a" y1="15.720339" y2="13.076271"/><linearGradient id="f" gradientUnits="userSpaceOnUse" x1="14.559322" x2="14.576271" xlink:href="#a" y1="4.720339" y2="2.144068"/><g fill="#f2f2f7"><path d="m9 .04882813c-.7571642.0347447-1.491064.19018978-2.1523438.44921875-1.3225594.51805792-2.4047058 1.47078842-2.7617187 2.76367192-.113847.4122846-.1375995.8529259-.0859375 1.3085937v-.5703125h.9746094c.012232-.1631366.0347768-.3227484.0761718-.4726562.2513091-.9100888 1.0538869-1.663556 2.1621094-2.0976563 2.2164452-.86820056 5.4638954-.387486 7.0449214 2.46875l.875-.484375c-1.37889-2.49106193-3.861319-3.46946846-6.132812-3.36523437zm-4.5761719 5.95117187c.2613879.5426719.6341764 1.0965908 1.1386719 1.6523438 1.4725638 1.6221782 2.1287138 2.9982502 2.2734375 4.0605472.1447237 1.062296-.1813872 1.820057-.7753906 2.375-1.1880068 1.109885-3.6160578 1.276103-5.3730469.0625l-.5683594.822265c2.1331384 1.473421 5.0045899 1.359557 6.625-.154297.8102051-.756927 1.2649732-1.897409 1.0820313-3.240234s-.9621642-2.8777554-2.5234375-4.5976562c-.3094341-.340873-.5554765-.6679105-.75-.9804688z" fill="url(#d)" fill-rule="evenodd"/><path d="m0 13h3v3h-3z" fill="url(#e)"/><path d="m13 1.9999999h3v3h-3z" fill="url(#f)"/></g><path d="m3 3.0000001v4h4v-4zm1 1h2v2h-2z" fill="url(#b)"/><g stroke-width=".551814"><path d="m9.066352 8.0003894-.7995879.8568455c-.043296.1811308-.2648019.3240674 0 .5712304 1.1284923.4501592 2.0073049 1.2067297 2.9318229 1.9993057-1.4089282 1.149508-2.4373274 2.133718-3.1983521 3.712997-.030055.442767.9611643.718166 1.0661171.57123.4359282-.469212 1.647722-2.241453 2.665291-3.141765l.33881-.392117c1.074603.766012 2.101171 2.149874 3.126073 3.248267l.533057.571231c-.420144-1.862294-1.674419-3.498329-2.782744-4.686026.805765-.978763 1.97954-1.5694614 3.049274-2.4543531l-.072696-.3921529c-1.451535.6387594-2.426006 1.5215242-3.491567 2.212344-1.101378-.9486104-2.15573-1.899197-3.365498-2.6770366z" fill="url(#c)"/><path d="m7.4023438 8.3515625a1.0031474 1.0031474 0 0 0 -.109375.2734375c.0544904-.2279637.0116066-.1623424-.0996094.1953125-.055608.1788274-.0840578.4717352-.0019532.7363281.0821047.2645929.2403571.4614344.3925782.6035154a1.0031474 1.0031474 0 0 0 .3125.199219c.2601654.103781.508942.260886.7539062.435547-.2226923-.759804-.6325832-1.5746766-1.2480468-2.4433595zm1.4550781 3.9062495c-.6841699.699621-1.2903797 1.469143-1.7617188 2.447266a1.0031474 1.0031474 0 0 0 -.0957031.367188c-.0066258.097609.0055689.188203.0195312.277343.2600448-.153079.5054219-.326476.7246094-.53125.6691653-.625161 1.0880673-1.514199 1.1132813-2.560547z" fill="#2d2d2d" fill-opacity=".784314"/></g></svg>