<svg viewBox="0 0 16 16" xmlns="http://www.w3.org/2000/svg" xmlns:xlink="http://www.w3.org/1999/xlink"><linearGradient id="a" gradientUnits="userSpaceOnUse" x1="-19.355436" x2="-18.6299" y1="16.707636" y2="1.656788"><stop offset="0" stop-color="#409cff"/><stop offset="1" stop-color="#0a84ff"/></linearGradient><linearGradient id="b" gradientTransform="matrix(.26458333 0 0 .26458333 101.6 307.58333)" gradientUnits="userSpaceOnUse" x1="18.5" x2="18.5" y1="23" y2="14.5"><stop offset="0" stop-color="#ff6482"/><stop offset="1" stop-color="#ff453a"/></linearGradient><linearGradient id="c" gradientUnits="userSpaceOnUse" x1="14.237288" x2="14.169492" xlink:href="#b" y1="3.966102" y2=".305085"/><linearGradient id="d" gradientUnits="userSpaceOnUse" x1="13.898305" x2="14" xlink:href="#b" y1="15.830508" y2="12"/><linearGradient id="e" gradientUnits="userSpaceOnUse" x1="2.101695" x2="2.033898" xlink:href="#b" y1="15.830508" y2="12.033898"/><linearGradient id="f" gradientUnits="userSpaceOnUse" x1="3" x2="13" xlink:href="#a" y1="14.5" y2="14.5"/><linearGradient id="g" gradientUnits="userSpaceOnUse" x1="15" x2="15" xlink:href="#a" y1="12" y2="7.5"/><g fill="#f2f2f7"><path d="m13 1.0488281a13 13 0 0 0 -11.953125 11.9511719h1.1953125a13.5 13.5 0 0 1 10.7578125-10.7558594z"/><path d="m3 14v1h10v-1z" fill="url(#f)"/><path d="m14 3v9h1v-9z" fill="url(#g)"/><path d="m0 12v4h4v-4zm1 1h2v2h-2z" fill="url(#e)"/><path d="m12 0v4h4v-4zm1 1h2v2h-2z" fill="url(#c)"/><path d="m12 12v4h4v-4z" fill="url(#d)"/></g></svg>