<svg viewBox="0 0 16 16" xmlns="http://www.w3.org/2000/svg">/&amp;amp;amp;amp;gt;<path d="m1 1h11v11h-11z" fill="#2d2d2d"/><circle cx="4.5" cy="4.5" fill="#fc0" r="2.005997" stroke="#fc0"/><path d="m1.5 11.5-.0330869-.59841 1.5330869-1.40159 2 1.593356 5-4.593356 1.5 3.5v1.5z" fill="#28d74b" fill-rule="evenodd" stroke="#28d74b"/><g fill="#f2f2f7"><rect height="1" ry=".5" width="3" y="12"/><rect height="1" ry=".5" width="3"/><rect height="1" ry=".5" width="3" x="10" y="12"/></g><path d="m5 5v7h4v-3h3v-4h-3z" fill="#2d2d2d" fill-opacity=".784314"/><g fill="#f2f2f7"><path d="m13 4c-.553999 0-1 .4460006-1 1v7h-4-2-1c-.5539994 0-1 .446001-1 1s.4460006 1 1 1h1v1.017578c0 .544041.4383816.982422.9824219.982422h.0351562c.5440403 0 .9824219-.438381.9824219-.982422v-1.017578h5c.034625 0 .067864-.002458.101562-.005859.505481-.051028.898438-.474767.898438-.994141v-5h1.125c.484284 0 .875-.3907164.875-.875v-.25c0-.4842836-.390716-.875-.875-.875h-1.125v-1c0-.5539994-.446001-1-1-1zm-6.125 2c-.4842836 0-.875.3907164-.875.875v.25 3.875h2v-3h3v-2z" fill="#f2f2f7"/><rect height="3" ry=".5" width="1" x="12"/><rect height="1" ry=".5" width="3" x="4"/><rect height="1" ry=".5" width="3" x="8"/><rect height="3" ry=".5" width="1"/><rect height="3" ry=".5" width="1" y="4"/><rect height="3" ry=".5" width="1" y="8"/></g></svg>