<svg viewBox="0 0 16 16" xmlns="http://www.w3.org/2000/svg" xmlns:xlink="http://www.w3.org/1999/xlink"><linearGradient id="a" gradientTransform="matrix(.70710678 -.70710678 .70710678 .70710678 .41174 9.293314)" gradientUnits="userSpaceOnUse" x1="12.5" x2="12.478516" y1="8" y2=".990234"><stop offset="0" stop-color="#409cff"/><stop offset="1" stop-color="#0a84ff"/></linearGradient><g fill="#2d2d2d"><path d="m2.9980469 0c-.5527763 0-.9980469.4460011-.9980469 1v2h1v-2h12v12h-2v1h2.001953c.552777 0 .998047-.446002.998047-1v-12c0-.5539989-.44527-1-.998047-1zm9.2050781 3.0195312c.065078.0132774.127761.0333594.1875.0585938-.059739-.0252344-.122422-.0453164-.1875-.0585938zm.1875.0585938c.059739.0252344.116841.0559258.169922.0917969-.053081-.0358711-.110183-.0665625-.169922-.0917969zm.169922.0917969c.053081.0358711.103334.0778594.148437.1230469-.045103-.0451875-.095356-.0871758-.148437-.1230469zm.148437.1230469c.045104.0451874.085287.0933008.121094.1464843-.035807-.0531835-.07599-.1012969-.121094-.1464843zm.121094.1464843c.035807.0531836.066606.1100626.091797.1699219-.025191-.0598593-.05599-.1167383-.091797-.1699219zm.091797.1699219c.025191.0598593.045339.1242384.058594.1894531-.013255-.0652147-.033403-.1295938-.058594-.1894531z" fill="#f2f2f7"/><path d="m3 1v2h9.001953c.552777 0 .998047.4460006.998047 1v9h2v-12z"/><path d="m.99804688 3c-.55277678 0-.99804688.4460006-.99804688 1v11c0 .553999.4452701 1 .99804688 1h11.00390612c.552777 0 .998047-.446001.998047-1v-11c0-.5539994-.44527-1-.998047-1zm.00195312 1h11v11h-11z" fill="#f2f2f7"/><path d="m1 4h11v11h-11z"/></g><path d="m2.5 13.5-.0330869-.59841 2.5330869-2.90159 2 1.593356 2-2.593356 1.5 3v1.5z" fill="#28d74b" fill-rule="evenodd" stroke="#28d74b"/><path d="m10 1a1.0001 1.0001 0 0 0 -.6875 1.7246094l.978516.9277344-1.3945316 1.3964843-.7089844.7089844a1.0001 1.0001 0 0 0 0 1.4140625l.7089844.7089844a1.0001 1.0001 0 0 0 1.4140626 0l.707031-.7070313.002-.00195 1.394484-1.3945343.859376.9101562a1.0001 1.0001 0 0 0 1.726562-.6875v-4a1.0001 1.0001 0 0 0 -1-1z" fill="#2d2d2d" fill-opacity=".784314"/><path d="m10 2 1.722656 1.6347656-2.1191404 2.1210938-.7089844.7089844.7089844.7089843.7070314-.7070312.001953-.0019531 2.123047-2.1210938 1.564453 1.65625v-4z" fill="url(#a)"/><path d="m4 5a2 2 0 0 0 -2 2 2 2 0 0 0 2 2 2 2 0 0 0 2-2 2 2 0 0 0 -2-2zm0 1a1 1 0 0 1 1 1 1 1 0 0 1 -1 1 1 1 0 0 1 -1-1 1 1 0 0 1 1-1z" fill="#ff9f0a"/><path d="m5 7a1 1 0 0 1 -1 1 1 1 0 0 1 -1-1 1 1 0 0 1 1-1 1 1 0 0 1 1 1z" fill="#ffd307"/></svg>