<svg viewBox="0 0 16 16" xmlns="http://www.w3.org/2000/svg" xmlns:xlink="http://www.w3.org/1999/xlink"><filter id="a" color-interpolation-filters="sRGB" height="1.094553" width="1.097492" x="-.048746" y="-.047277"><feGaussianBlur stdDeviation=".36559322"/></filter><linearGradient id="b" gradientTransform="matrix(.80638732 0 0 .79969077 3.161242 3.202245)" gradientUnits="userSpaceOnUse" x1="11.192914" x2="11.111127" y1="15.845822" y2="6.232731"><stop offset="0" stop-color="#ff6482"/><stop offset="1" stop-color="#ff453a"/></linearGradient><linearGradient id="c" gradientUnits="userSpaceOnUse" x1="8" x2="8" y1="14" y2="2"><stop offset="0" stop-color="#2d2d2d"/><stop offset=".3888889" stop-color="#2d2d2d"/><stop offset="1" stop-color="#2d2d2d"/></linearGradient>







     /&amp;amp;amp;amp;amp;gt;
 <path d="m1 12.940678h14v2.559322h-14z" filter="url(#a)" opacity=".15" stroke-width="1.015418"/><path d="m2 1c-1.108 0-2 .892-2 2v10c0 1.108.892 2 2 2h12c1.108 0 2-.892 2-2v-10c0-1.108-.892-2-2-2zm-1 1h14v12h-14z" fill="#f2f2f7"/><path d="m1 2v12h14v-12z" fill="url(#c)"/><path d="m2 4h12v2h-12z" fill="#e5e5ea"/><g fill="#f2f2f7"><path d="m2 11h1v1h-1z"/><path d="m2 9h1v1h-1z"/><path d="m4 11h10v1h-10z"/><path d="m4 9h10v1h-10z"/><path d="m2 7h1v1h-1z"/><path d="m4 7h10v1h-10z"/></g><path d="m9.0351562 6.9101562a1.0900648 1.0900648 0 0 0 -.765625.3476563l-.7988281.8574219a1.0900648 1.0900648 0 0 0 -.2636719.4882812c.0610876-.2555625.0227502-.1895225-.0957031.1914063-.0592266.1904644-.0898031.5040014-.0019531.7871093.08785.2831081.2543882.4935398.4140625.6425778a1.0900648 1.0900648 0 0 0 .3398437.214844c.560829.223717 1.0808154.704656 1.6035157 1.109375-.9600806.885408-1.8236911 1.821045-2.4492188 3.119141a1.0900648 1.0900648 0 0 0 -.0976562.332031h4.0996091c.006885-.008744.010641-.012691.017578-.021484.357147-.452646.726537-.8477 1.074219-1.207032.385793.372128.783611.788081 1.197266 1.228516h.691406c.917588 0 1.678652-.615506 1.916016-1.455078-.429742-.765901-.938972-1.454183-1.455078-2.072266.433495-.370752.994132-.798439 1.539062-1.224609v-2.8691408a1.0900648 1.0900648 0 0 0 -.515625.0878907c-1.328846.5847692-2.15191 1.2829431-2.980469 1.8769531-.895726-.7760607-1.779792-1.5731657-2.847656-2.2597656a1.0900648 1.0900648 0 0 0 -.6210938-.1738282z" fill="#2d2d2d" fill-opacity=".784314"/><path d="m9.066352 8.0003894-.7995879.8568455c-.043296.1811308-.2648019.3240674 0 .5712304 1.1284923.4501592 2.0073049 1.2067297 2.9318229 1.9993057-1.4089282 1.149508-2.4373274 2.133718-3.1983521 3.712997-.030055.442767.9611643.718166 1.0661171.57123.4359282-.469212 1.647722-2.241453 2.665291-3.141765l.33881-.392117c1.074603.766012 2.101171 2.149874 3.126073 3.248267l.533057.571231c-.420144-1.862294-1.674419-3.498329-2.782744-4.686026.805765-.978763 1.97954-1.5694614 3.049274-2.4543531l-.072696-.3921529c-1.451535.6387594-2.426006 1.5215242-3.491567 2.212344-1.101378-.9486104-2.15573-1.899197-3.365498-2.6770366z" fill="url(#b)"/></svg>