<svg height="16" viewBox="0 0 4.2333332 4.2333335" width="16" xmlns="http://www.w3.org/2000/svg" xmlns:xlink="http://www.w3.org/1999/xlink"><linearGradient id="a" gradientUnits="userSpaceOnUse" x1=".264583" x2=".79375" y1="2.116667" y2="2.116667"><stop offset="0" stop-color="#344b9d"/><stop offset="1" stop-color="#4662b7"/></linearGradient><linearGradient id="b" gradientTransform="matrix(.99999997 0 0 -.99999235 0 293.82273)" gradientUnits="userSpaceOnUse" x1=".79375" x2="3.439583" y1="293.4281" y2="293.4281"><stop offset="0" stop-color="#2d2d2d"/><stop offset="1" stop-color="#2d2d2d"/></linearGradient><linearGradient id="c" gradientUnits="userSpaceOnUse" x1="1.190625" x2=".529167" y1=".66146" y2=".52916"><stop offset="0" stop-color="#6f96ed"/><stop offset="1" stop-color="#6f96ed" stop-opacity="0"/></linearGradient><path d="m.79375006 0c-.29227266 0-.52919776.17769-.52916666.39688-.0443938.35025.236894.39687.52916666.39687l.00000005 2.64583h2.64583319v-3.43958z" fill="#587ee8"/><path d="m.79375012.79374h2.64583318v3.4395933h-2.64583308z" fill="#587ee8"/><path d="m.79375008.52916h2.64583312v.26457h-2.64583314z" fill="#6f96ed"/><path d="m.2645834.52917.0000001 3.4395733c-.00000739.146128.23691076.26459.52916666.26459v-.52917l-.0000001-2.9104133c-.29224809.00000001-.52916301-.11845596-.52916666-.26458z" fill="url(#a)"/><path d="m.79375009.26458c-.14612404-.00000001-.2645815.059228-.26458333.13229-.00000921.0730659.11845148.13230001.26458333.1323h2.64583321v-.26459z" fill="url(#b)"/><path d="m3.4395837 1.0583333h.264583v.79375h-.264583z" fill="#ff2d55"/><path d="m3.4395837 1.8520933h.264583v.79375h-.264583z" fill="#ff9f0a"/><path d="m3.4395837 2.6458333h.264583v.79375h-.264583z" fill="#28d74b"/><path d="m.79374994.00000333c-.29227266 0-.52919776.17768501-.52916666.39687499v.12557374c.03293872.23571724.27650448.27130124.52916666.27130124v-.26458331c-.14612535.00000001-.26458335-.059229-.26458333-.13229167-.00000001-.0730627.11845799-.13229167.26458333-.13229166z" fill="#405fae" stroke-width=".264583"/><path d="m.2645834.52917c-.00000002.14612.23691598.26458.52916666.26458.18890348-.00007.36340144-.18279.45785314-.26458h-.45785311c-.14612536 0-.26458336-.0592-.26458333-.1323z" fill="url(#c)"/><path d="m.79374995.79375h.26458295v3.4395833h-.26458285z" fill="#6089e9"/><path d="m8 5a2.9999998 2.9999998 0 0 0 -3 3h2a.99999991.99999991 0 0 1 1-1 .99999991.99999991 0 0 1 1 1c-.062621.4059833.1438402.9387821-.1601562 1.2148438l-1.2402344 1.1757812c-.7199996.681334-.5996094.449895-.5996094 1.476563v.132812h2c0-.500001-.1203903-.461245.5996094-1.142578l.9003906-.857422c.506397-.4726353.430337-1.2863945.5-2a2.9999998 2.9999998 0 0 0 -3-3zm-1 8v2h2v-2z" fill="#2d2d2d" transform="scale(.26458333)"/></svg>