<svg viewBox="0 0 16 16" xmlns="http://www.w3.org/2000/svg"><g transform="translate(4 -3)"><path d="m.99999972 7.0000004.00000028 5.9999996h8.0000003l1.4999997-3.0000004-1.9999997-2.9999996z" fill="#2d2d2d"/><path d="m7.6464466 5.5251263-6.71751441 6.7175147 5.65685421 5.656854 7.0710666-7.071068-1.414213-4.242641zm0 1.4142136 3.5355334.7071062 1.06066 3.1819809-5.6568536 5.656854-4.2426406-4.24264z" fill="#f2f2f7" transform="matrix(.70710678 .70710678 -.70710678 .70710678 8 -3.313708)"/><path d="m7 8a2 2 0 0 0 -2 2 2 2 0 0 0 2 2 2 2 0 0 0 2-2 2 2 0 0 0 -2-2zm0 1a1 1 0 0 1 1 1 1 1 0 0 1 -1 1 1 1 0 0 1 -1-1 1 1 0 0 1 1-1z" fill="#f2f2f7"/><g fill="#e5e5ea"><path d="m2 9h2v1h-2z"/><path d="m2 11h2v1h-2z"/></g></g><g transform="translate(2 -1)"><path d="m.99999972 7.0000004.00000028 5.9999996h8.0000003l1.4999997-3.0000004-1.9999997-2.9999996z" fill="#2d2d2d"/><path d="m7.6464466 5.5251263-6.71751441 6.7175147 5.65685421 5.656854 7.0710666-7.071068-1.414213-4.242641zm0 1.4142136 3.5355334.7071062 1.06066 3.1819809-5.6568536 5.656854-4.2426406-4.24264z" fill="#f2f2f7" transform="matrix(.70710678 .70710678 -.70710678 .70710678 8 -3.313708)"/><path d="m7 8a2 2 0 0 0 -2 2 2 2 0 0 0 2 2 2 2 0 0 0 2-2 2 2 0 0 0 -2-2zm0 1a1 1 0 0 1 1 1 1 1 0 0 1 -1 1 1 1 0 0 1 -1-1 1 1 0 0 1 1-1z" fill="#f2f2f7"/><g fill="#e5e5ea"><path d="m2 9h2v1h-2z"/><path d="m2 11h2v1h-2z"/></g></g><g transform="translate(1 .999999)"><path d="m.99999972 7.0000004.00000028 5.9999996h8.0000003l1.4999997-3.0000004-1.9999997-2.9999996z" fill="#2d2d2d"/><path d="m9.4999999 6.0000005-9.50000015.0000002.00000014 8.0000003 9.99999931-.000001 2.0000008-4.0000003zm-1 1 2.0000001 2.9999993-1.5000004 3.0000002h-7.9999994l-.00000042-5.9999993z" fill="#f2f2f7"/><path d="m7 8a2 2 0 0 0 -2 2 2 2 0 0 0 2 2 2 2 0 0 0 2-2 2 2 0 0 0 -2-2zm0 1a1 1 0 0 1 1 1 1 1 0 0 1 -1 1 1 1 0 0 1 -1-1 1 1 0 0 1 1-1z" fill="#f2f2f7"/><g fill="#e5e5ea"><path d="m2 9h2v1h-2z"/><path d="m2 11h2v1h-2z"/></g></g><path d="m0 11h12v5h-12z" fill="#f2f2f7"/><path d="m1 12h10v3h-10z" fill="#2d2d2d"/><path d="m12 11v5l4-6v-5z" fill="#f2f2f7"/></svg>