<svg viewBox="0 0 16 16" xmlns="http://www.w3.org/2000/svg" xmlns:xlink="http://www.w3.org/1999/xlink"><linearGradient id="a" gradientTransform="translate(-2 2)" gradientUnits="userSpaceOnUse" x1="12" x2="12" xlink:href="#b" y1="3" y2="5"/><linearGradient id="b" gradientTransform="translate(0 3)" gradientUnits="userSpaceOnUse" x1="12" x2="12" y1="3" y2="5"><stop offset="0" stop-color="#5b5b5b"/><stop offset="1" stop-color="#f2f2f7"/></linearGradient><linearGradient id="c" gradientTransform="matrix(.75 0 0 1 3.75 -2)" gradientUnits="userSpaceOnUse" x1="12" x2="12" xlink:href="#b" y1="3" y2="5"/><linearGradient id="d" gradientUnits="userSpaceOnUse" x1="46" x2="46" y1="-4" y2="-5"><stop offset="0" stop-color="#409cff"/><stop offset="1" stop-color="#0a84ff"/></linearGradient><linearGradient id="e" gradientUnits="userSpaceOnUse" x1="10" x2="10" y1="16" y2="-2"><stop offset="0" stop-color="#2d2d2d"/><stop offset=".22222222" stop-color="#2d2d2d"/><stop offset=".83333331" stop-color="#2d2d2d"/><stop offset="1" stop-color="#2d2d2d"/></linearGradient><linearGradient id="f" gradientTransform="matrix(1 0 0 .53846154 -6 5.307692)" gradientUnits="userSpaceOnUse" x1="12" x2="12" y1="18" y2="5"><stop offset="0" stop-color="#e5e5ea"/><stop offset=".15476191" stop-color="#e7e7e7"/><stop offset=".15476191" stop-color="#2d2d2d"/><stop offset=".5" stop-color="#2d2d2d"/><stop offset=".85714287" stop-color="#2d2d2d"/><stop offset="1" stop-color="#2d2d2d"/></linearGradient><linearGradient id="g" gradientTransform="matrix(1 0 0 .39999999 -6 6.7)" gradientUnits="userSpaceOnUse" x1="12" x2="12" y1="12" y2="18.250002"><stop offset="0" stop-color="#2d2d2d"/><stop offset="1" stop-color="#2d2d2d"/></linearGradient><linearGradient id="h" gradientUnits="userSpaceOnUse" x1="66" x2="66" xlink:href="#j" y1="25" y2="14"/><linearGradient id="i" gradientUnits="userSpaceOnUse" x1="9.491526" x2="8.81356" y1="1.084746" y2="15.18644"><stop offset="0" stop-color="#f2f2f7"/><stop offset="1" stop-color="#f2f2f7"/></linearGradient><linearGradient id="j" gradientUnits="userSpaceOnUse" x1="61" x2="61" y1="29" y2="18"><stop offset="0" stop-color="#3a3a3c"/><stop offset=".2857143" stop-color="#2d2d2d"/><stop offset="1" stop-color="#2d2d2d"/></linearGradient>







     /&amp;amp;amp;amp;amp;amp;gt;
 <path d="m1 8h9v7h-9z" fill="url(#j)"/><path d="m6 4h9v7h-9z" fill="url(#h)"/><path d="m6 0c-.554 0-1 .446-1 1v3h-4c-.554 0-1 .446-1 1v10c0 .554.446 1 1 1h9c.554 0 1-.446 1-1v-3h4c.554 0 1-.446 1-1v-10c0-.554-.446-1-1-1zm4 4h5v7h-4v-6c0-.554-.446-1-1-1zm-9 4h4v3c0 .554.446 1 1 1h4v3h-9zm5 0h4v3h-4z" fill="url(#i)"/><g fill="#e5e5ea"><path d="m2 9h2v1h-2z" fill="#e5e5ea"/><path d="m7 9h2v1h-2z" fill="url(#d)"/><g fill="#e5e5ea"><path d="m2 11h2v1h-2z"/><path d="m2 13h2v1h-2z"/><path d="m12 9h2v1h-2z"/><path d="m12 7h2v1h-2z"/><path d="m12 5h2v1h-2z"/><path d="m7 13h2v1h-2z"/></g></g><path d="m1 5v2h4v-2zm5 0v2h4v-2z" fill="url(#a)"/><path d="m6 1h9v2h-9z" fill="url(#c)" stroke-width=".866025"/><path d="m9 6v10h1c.554 0 1-.446 1-1v-3h4c.554 0 1-.446 1-1v-5z" fill="#2d2d2d" fill-opacity=".784314"/><g transform="translate(8)"><path d="m2 8h6v8h-6z" fill="url(#e)"/><path d="m2 7h6v9h-6z" fill="#f2f2f7" stroke-width=".774597"/><path d="m3 8h4v7h-4z" fill="url(#f)" stroke-width=".733799"/><path d="m4 9h2v2.5h-2z" fill="#5b5b5b" stroke-width=".912871"/><path d="m4 11.5h2v2.5h-2z" fill="url(#g)" stroke-width=".632456"/></g></svg>