<svg viewBox="0 0 16 16" xmlns="http://www.w3.org/2000/svg"><g fill="#f2f2f7"><path d="m4 7c-.554 0-1 .446-1 1v6c0 .554.446 1 1 1h3c.554 0 1-.446 1-1v-6c0-.554-.446-1-1-1zm0 1h3v6h-3z"/><path d="m11 5c-.554 0-1 .446-1 1v8c0 .554.446 1 1 1h3c.554 0 1-.446 1-1v-8c0-.554-.446-1-1-1zm0 1h3v8h-3z"/><path d="m8 1h2c.554 0 1 .446 1 1v12c0 .554-.446 1-1 1h-2c-.554 0-1-.446-1-1v-12c0-.554.446-1 1-1z"/><path d="m.5 14h15c.277 0 .5.223.5.5s-.223.5-.5.5h-15c-.277 0-.5-.223-.5-.5s.223-.5.5-.5z"/></g><path d="m1.5 0c.277 0 .5.223.5.5v14.999998c0 .277-.223.5-.5.5s-.5-.223-.5-.5v-14.999998c0-.277.223-.5.5-.5z" fill="#e4b500"/><path d="m11 6h3v8h-3z" fill="#2d2d2d"/><path d="m4 8h3v6h-3z" fill="#2d2d2d"/><g fill="#e4b500"><path d="m.5 11h1c.277 0 .5.223.5.5s-.223.5-.5.5h-1c-.277 0-.5-.223-.5-.5s.223-.5.5-.5z"/><path d="m.5 5h1c.277 0 .5.223.5.5s-.223.5-.5.5h-1c-.277 0-.5-.223-.5-.5s.223-.5.5-.5z"/><path d="m.5 8h1c.277 0 .5.223.5.5s-.223.5-.5.5h-1c-.277 0-.5-.223-.5-.5s.223-.5.5-.5z"/><path d="m.5 2h1c.277 0 .5.223.5.5s-.223.5-.5.5h-1c-.277 0-.5-.223-.5-.5s.223-.5.5-.5z"/></g></svg>