<svg viewBox="0 0 16 16" xmlns="http://www.w3.org/2000/svg" xmlns:xlink="http://www.w3.org/1999/xlink"><linearGradient id="a" gradientUnits="userSpaceOnUse" x1="-25.915255" x2="-26.559322" y1="16.067797" y2=".338983"><stop offset="0" stop-color="#409cff"/><stop offset="1" stop-color="#0a84ff"/></linearGradient><path d="m6 1v4h-4v10h8v-4h4v-10z" fill="#2d2d2d"/><path d="m6 0c-.554 0-1 .446-1 1v3h-3c-.554 0-1 .446-1 1v10c0 .554.446 1 1 1h8c.554 0 1-.446 1-1v-3h3c.554 0 1-.446 1-1v-10c0-.554-.446-1-1-1zm0 1h8v10h-3v-6c0-.554-.446-1-1-1h-4zm-4 4h8v10h-8z" fill="url(#a)"/></svg>