<svg viewBox="0 0 16 16" xmlns="http://www.w3.org/2000/svg">/&amp;amp;amp;gt;<g fill="#f2f2f7" fill-rule="evenodd"><path d="m.50195312 1.9980469.00195313.6503906-.00195313.6640625 5.99804688 5.6132812-.0019531 6.3984378 1.5019531.009766 1.4980469-.009766.0019531-6.3984378 6-5.6132812-.001953-.6640625.001953-.6503906h-.002-14.99409375zm6.00000008 13.3261721v.173828h.2011718zm2.9960937 0-.2011719.173828h.2011719z"/><path d="m.50195312 1.4960938c-.1380893-.0001496-.262744.0562999-.35351562.1464843-.09153834.0909462-.14856453.2162129-.1484375.3554688l.00195313.6503906-.00195313.6640625c-.00003865.1412881.05953385.2760352.1640625.3710938l5.8359375 5.5332031v5.7832031.5.5h4v-.5-.5-5.7832031l5.837891-5.5332031c.104528-.0950585.164101-.2298057.164062-.3710938l-.001953-.6640625.001953-.6503906c.000127-.1392559-.0569-.2645226-.148437-.3554688-.04505-.045047-.09873-.0820689-.158204-.1074219h-.001953c-.059504-.0251324-.124752-.038869-.193359-.0390624h-.001953zm.50195308 1.0039062h13.9941408v.2871094.2734375l-3.253906 2.9746093c.0063-.00173.013161-.000356.019531-.0019531l-2.6015626 2.5234375c-.1040267.0946003-.1635524.2968923-.1640625.4375l.0019531 6.0058594h-2l.0019531-6.0058594c-.0005101-.1406077-.0600357-.2745403-.1640625-.3691406l-2.5996094-2.5917969c.0063701.0016.0131933.0002301.0195313.0019531l-3.2539063-2.9746093v-.2734375z"/></g><ellipse cx="8" cy="1.765338" fill="#2d2d2d" rx="7.5" ry="1.264185" stroke="#f2f2f7" stroke-linecap="round" stroke-linejoin="round" stroke-width="1.002306"/><path d="m13.068359 4.0898438a1.0168499 1.0168499 0 0 0 -.90039.6191406l-.958985 2.2734375h-4.208984a1.0168499 1.0168499 0 0 0 -1.0175781 1.0175781v1.1992188l.0175781.0175781v.9707031a1.0168499 1.0168499 0 0 0 .8203125.8125 1.0168499 1.0168499 0 0 0 -.8203125.816406v2.371094a1.0168499 1.0168499 0 0 0 1 .830078h.09375a1.0168499 1.0168499 0 0 0 .5292969.982422h2.3769531v-.5-.5-5.7832031l4.697266-4.453125-1.136719-.5683594a1.0168499 1.0168499 0 0 0 -.492188-.1054687z" fill="#2d2d2d" fill-opacity=".784314"/><path d="m13.105469 5.105468-1.222657 2.894532h-4.882812v2h3.882812l-1 2h-2.882812v2h1.882812l-.777343 1.105468 1.789062.894532 1.222657-2h4.882812v-2h-3.882812l1-2h2.882812v-2h-1.882812l.777343-2z" fill="#409cff"/></svg>