<svg viewBox="0 0 16 16" xmlns="http://www.w3.org/2000/svg" xmlns:xlink="http://www.w3.org/1999/xlink"><linearGradient id="a" gradientUnits="userSpaceOnUse" x1="8.067797" x2="8.101695" y1="1.974576" y2=".889831"><stop offset="0" stop-color="#409cff"/><stop offset="1" stop-color="#0a84ff"/></linearGradient>


/&amp;amp;amp;amp;gt;<path d="m3.8984375 4-3.8984375 11h1.3886719l1.0097656-3h4.1875l1.0136719 3h1.3808594l-3.9042969-11zm.5878906 1.7910156 1.7617188 5.2089844h-3.5136719z" fill="#f2f2f7"/><rect fill="url(#a)" height="1" ry=".5" width="16" y="1"/><path d="m14.603939 14.857464q-.114029-.228059-.185298-.812459-.919361.954995-2.195063.954995-1.140293 0-1.874357-.641415-.7269363-.648541-.7269363-1.639169 0-1.204436.9122343-1.867232.919362-.669921 2.579913-.669921h1.28283v-.6057808q0-.6913025-.413358-1.0975318-.413356-.4133561-1.218688-.4133561-.705555 0-1.183053.3563415-.477498.3563415-.477498.8623466h-1.3255899q0-.5772734.4062299-1.1117857.413355-.5416391 1.111784-.8552195.705557-.3135806 1.546523-.3135806 1.332718 0 2.088162.669922.755443.6627953.783951 1.8315956v3.5491608q0 1.061897.270819 1.689059v.114025zm-2.187937-1.004884q.620034 0 1.175928-.320707.555892-.320708.805332-.833839v-1.582157h-1.033391q-2.423123 0-2.423123 1.41824 0 .620034.413356.969249.413358.349214 1.061898.349214z" fill="#f2f2f7"/></svg>