<svg viewBox="0 0 16 16" xmlns="http://www.w3.org/2000/svg" xmlns:xlink="http://www.w3.org/1999/xlink"><linearGradient id="a" gradientUnits="userSpaceOnUse" x1="10" x2="11.500001" y1="4" y2="2.499999"><stop offset="0" stop-color="#2d2d2d"/><stop offset=".77967989" stop-color="#2d2d2d"/><stop offset="1" stop-color="#3a3a3c"/></linearGradient><radialGradient id="b" cx="10.994179" cy="4.42844" gradientTransform="matrix(1.4 .00000004 -.00000001 1.2 -4.39185 -2.314129)" gradientUnits="userSpaceOnUse" r="5"><stop offset="0" stop-color="#2d2d2d"/><stop offset=".49894297" stop-color="#2d2d2d"/><stop offset="1" stop-color="#2d2d2d"/></radialGradient><path d="m3 1v14h10v-11.2949219l-2.695312-2.7050781z" fill="url(#b)"/><path d="m3 0c-.554 0-1 .446-1 1v14c0 .554.446 1 1 1h10c.554 0 1-.446 1-1v-10.5-.8632812l-3.636719-3.6367188h-.863281zm0 1h6v3.5c0 .277.223.5.5.5h3.5v10h-10zm7 0 3 3h-3z" fill="#f2f2f7"/><path d="m10 1 3 3h-3z" fill="url(#a)"/><path d="m11.5 6c-1.334931 0-2.6642727.3151489-3.6953125.9335938-1.0310398.6184448-1.8041363 1.6226449-1.8046875 2.765625-.0002701.3732322.1893674.6960562.3359375 1.0312502a1.0001 1.0001 0 0 0 -.3359375.746093v1.824219c0 1.15788.751723 2.092425 1.7128906 2.699219h5.2871094c.554 0 1-.446 1-1v-8.5917969c-.780784-.2615144-1.63484-.4082031-2.5-.4082031z" fill="#2d2d2d" fill-opacity=".784314"/><path d="m11.5 7a4.5 2.7 0 0 0 -4.5 2.6992188 4.5 2.7 0 0 0 4.5 2.7011722 4.5 2.7 0 0 0 4.5-2.7011722 4.5 2.7 0 0 0 -4.5-2.6992188zm-4.5 4.476562v1.824219c0 1.491169 2.0147184 2.699219 4.5 2.699219 2.485282 0 4.5-1.20805 4.5-2.699219v-1.824219c-1.113321 1.335161-2.505846 1.824219-4.5 1.824219-2.2028805 0-3.3131403-.608807-4.5-1.824219z" fill="#fc0"/><path d="m11.5 7a4.5 2.7 0 0 0 -4.5 2.6992188 4.5 2.7 0 0 0 4.5 2.7011722 4.5 2.7 0 0 0 4.5-2.7011722 4.5 2.7 0 0 0 -4.5-2.6992188zm0 1c1.932997 0 3.5.6715729 3.5 1.5 0 .828427-1.555285 2.027344-3.488281 2.027344-1.9329972 0-3.511719-1.198917-3.511719-2.027344 0-.8284271 1.5670034-1.5 3.5-1.5zm-4.5 3.476562v1.824219c0 1.491169 2.0147184 2.699219 4.5 2.699219 2.485282 0 4.5-1.20805 4.5-2.699219v-1.824219c-1.113321 1.335162-2.505846 1.824219-4.5 1.824219-2.2028805 0-3.3131403-.608806-4.5-1.824219zm1.0019531 1.873047c.9575331.535022 2.0394689.914063 3.4980469.914063 1.331189 0 2.462494-.352155 3.486328-.900391-.024962.302234-.208602.664367-.800781 1.019531-.628959.377226-1.598984.654297-2.685547.654297s-2.0565882-.277071-2.6855469-.654297c-.6003967-.360093-.7929519-.728692-.8125-1.033203z" fill="#ff9f0a"/></svg>