<svg viewBox="0 0 16 16" xmlns="http://www.w3.org/2000/svg" xmlns:xlink="http://www.w3.org/1999/xlink"><linearGradient id="a"><stop offset="0" stop-color="#2d2d2d"/><stop offset="1" stop-color="#2d2d2d"/></linearGradient><linearGradient id="b" gradientUnits="userSpaceOnUse" x1="5" x2="5" xlink:href="#a" y1="14" y2="5"/><linearGradient id="c" gradientUnits="userSpaceOnUse" x1="14" x2="14" xlink:href="#a" y1="8" y2="-4"/><linearGradient id="d" gradientUnits="userSpaceOnUse" x1="9.5" x2="9.5" xlink:href="#a" y1="15.650501" y2="5.56588"/>


     /&amp;amp;gt;
 <path d="m1 4c-.554 0-1 .446-1 1v8c0 .554.446 1 1 1h8c.554 0 1-.446 1-1v-8c0-.554-.446-1-1-1zm0 1h8v8h-8z" fill="#658ae2"/><path d="m1 4.9999996v8.0000004h8v-8.0000004z" fill="url(#b)"/><g transform="matrix(.83333333 0 0 .83333333 -.666667 3.333333)"><path d="m14-4a6 6 0 0 0 -6 6 6 6 0 0 0 6 6 6 6 0 0 0 6-6 6 6 0 0 0 -6-6zm0 1a5 5 0 0 1 5 5 5 5 0 0 1 -5 5 5 5 0 0 1 -5-5 5 5 0 0 1 5-5z" fill="#658ae2"/><path d="m14-3a5 5 0 0 0 -5 5 5 5 0 0 0 5 5 5 5 0 0 0 5-5 5 5 0 0 0 -5-5z" fill="url(#c)"/></g><path d="m9.4999996 15.650501 5.0423114-5.042311-5.0423114-5.0423098-5.0423104 5.0423098z" style="fill-rule:evenodd;stroke:#658ae2;stroke-width:.915416;stroke-linecap:round;stroke-linejoin:round;fill:url(#d)"/></svg>