<svg viewBox="0 0 16 16" xmlns="http://www.w3.org/2000/svg" xmlns:xlink="http://www.w3.org/1999/xlink"><linearGradient id="a" gradientUnits="userSpaceOnUse" x1="10" x2="11.500001" y1="4" y2="2.499999"><stop offset="0" stop-color="#2d2d2d"/><stop offset=".77967989" stop-color="#2d2d2d"/><stop offset="1" stop-color="#3a3a3c"/></linearGradient><radialGradient id="b" cx="10.994179" cy="4.42844" gradientTransform="matrix(1.4 .00000004 -.00000001 1.2 -4.39185 -2.314129)" gradientUnits="userSpaceOnUse" r="5"><stop offset="0" stop-color="#2d2d2d"/><stop offset=".49894297" stop-color="#2d2d2d"/><stop offset="1" stop-color="#2d2d2d"/></radialGradient><path d="m3 1v14h10v-11.2949219l-2.695312-2.7050781z" fill="url(#b)"/><path d="m3 0c-.554 0-1 .446-1 1v14c0 .554.446 1 1 1h10c.554 0 1-.446 1-1v-10.5-.8632812l-3.636719-3.6367188h-.863281zm0 1h6v3.5c0 .277.223.5.5.5h3.5v10h-10zm7 0 3 3h-3z" fill="#f2f2f7"/><path d="m10 1 3 3h-3z" fill="url(#a)"/><path d="m14 5.7871094c-.289192-.2618806-.627022-.4651059-1-.5996094-.314894-.113557-.648148-.1875-1-.1875h-1a1.0001 1.0001 0 0 0 -.070312.0019531 1.0001 1.0001 0 0 0 -.09961.0117188 1.0001 1.0001 0 0 0 -.097656.0234375 1.0001 1.0001 0 0 0 -.09375.03125 1.0001 1.0001 0 0 0 -.091797.0410156 1.0001 1.0001 0 0 0 -.087891.0488281 1.0001 1.0001 0 0 0 -.080078.0585938 1.0001 1.0001 0 0 0 -.076172.0664062 1.0001 1.0001 0 0 0 -.068359.0722657 1.0001 1.0001 0 0 0 -.060547.0800781 1.0001 1.0001 0 0 0 -.050781.0859375 1.0001 1.0001 0 0 0 -.044922.0898437 1.0001 1.0001 0 0 0 -.033203.09375 1.0001 1.0001 0 0 0 -.025391.0957031 1.0001 1.0001 0 0 0 -.013672.0996094 1.0001 1.0001 0 0 0 -.005859.0996094v1a1.0001 1.0001 0 0 0 .001953.0703125 1.0001 1.0001 0 0 0 .011719.0996094 1.0001 1.0001 0 0 0 .023437.0976562 1.0001 1.0001 0 0 0 .03125.09375 1.0001 1.0001 0 0 0 .041016.0917969 1.0001 1.0001 0 0 0 .048828.0878906 1.0001 1.0001 0 0 0 .058594.0800782 1.0001 1.0001 0 0 0 .066406.0761718 1.0001 1.0001 0 0 0 .072266.0683594 1.0001 1.0001 0 0 0 .080078.0605469 1.0001 1.0001 0 0 0 .085937.0507812 1.0001 1.0001 0 0 0 .089844.0449219 1.0001 1.0001 0 0 0 .09375.0332031 1.0001 1.0001 0 0 0 .095703.0253907 1.0001 1.0001 0 0 0 .09961.0136718 1.0001 1.0001 0 0 0 .099609.0058594h-4a1.0001 1.0001 0 0 0 .0703125-.0019531 1.0001 1.0001 0 0 0 .0996094-.0117188 1.0001 1.0001 0 0 0 .0976562-.0234375 1.0001 1.0001 0 0 0 .09375-.03125 1.0001 1.0001 0 0 0 .0917969-.0410156 1.0001 1.0001 0 0 0 .0878906-.0488281 1.0001 1.0001 0 0 0 .0800782-.0585938 1.0001 1.0001 0 0 0 .0761718-.0664062 1.0001 1.0001 0 0 0 .0683594-.0722657 1.0001 1.0001 0 0 0 .0605469-.0800781 1.0001 1.0001 0 0 0 .0507812-.0859375 1.0001 1.0001 0 0 0 .0449219-.0898437 1.0001 1.0001 0 0 0 .0332031-.09375 1.0001 1.0001 0 0 0 .0253907-.0957031 1.0001 1.0001 0 0 0 .0136718-.0996094 1.0001 1.0001 0 0 0 .0058594-.0996094v-1a1.0001 1.0001 0 0 0 -.0019531-.0703125 1.0001 1.0001 0 0 0 -.0117188-.0996094 1.0001 1.0001 0 0 0 -.0234375-.0976562 1.0001 1.0001 0 0 0 -.03125-.09375 1.0001 1.0001 0 0 0 -.0410156-.0917969 1.0001 1.0001 0 0 0 -.0488281-.0878906 1.0001 1.0001 0 0 0 -.0585938-.0800782 1.0001 1.0001 0 0 0 -.0664062-.0761718 1.0001 1.0001 0 0 0 -.0722657-.0683594 1.0001 1.0001 0 0 0 -.0800781-.0605469 1.0001 1.0001 0 0 0 -.0859375-.0507812 1.0001 1.0001 0 0 0 -.0898437-.0449219 1.0001 1.0001 0 0 0 -.09375-.0332031 1.0001 1.0001 0 0 0 -.0957031-.0253907 1.0001 1.0001 0 0 0 -.0996094-.0136718 1.0001 1.0001 0 0 0 -.0996094-.0058594h-1c-.822507 0-1.5728143.3384393-2.1171875.8828125s-.8828125 1.2946805-.8828125 2.1171875v4c0 .822512.3384366 1.572816.8828125 2.117188.5443759.544371 1.294691.882812 2.1171875.882812h1a1.0001 1.0001 0 0 0 .0703125-.001953 1.0001 1.0001 0 0 0 .0996094-.011719 1.0001 1.0001 0 0 0 .0976562-.023437 1.0001 1.0001 0 0 0 .09375-.03125 1.0001 1.0001 0 0 0 .0917969-.041016 1.0001 1.0001 0 0 0 .0878906-.048828 1.0001 1.0001 0 0 0 .0800782-.058594 1.0001 1.0001 0 0 0 .0761718-.066406 1.0001 1.0001 0 0 0 .0683594-.072266 1.0001 1.0001 0 0 0 .0605469-.080078 1.0001 1.0001 0 0 0 .0507812-.085937 1.0001 1.0001 0 0 0 .0449219-.089844 1.0001 1.0001 0 0 0 .0332031-.09375 1.0001 1.0001 0 0 0 .0253907-.095703 1.0001 1.0001 0 0 0 .0136718-.09961 1.0001 1.0001 0 0 0 .0058594-.099609v-1a1.0001 1.0001 0 0 0 -.0019531-.070312 1.0001 1.0001 0 0 0 -.0117188-.09961 1.0001 1.0001 0 0 0 -.0234375-.097656 1.0001 1.0001 0 0 0 -.03125-.09375 1.0001 1.0001 0 0 0 -.0410156-.091797 1.0001 1.0001 0 0 0 -.0488281-.087891 1.0001 1.0001 0 0 0 -.0585938-.080078 1.0001 1.0001 0 0 0 -.0664062-.076172 1.0001 1.0001 0 0 0 -.0722657-.068359 1.0001 1.0001 0 0 0 -.0800781-.060547 1.0001 1.0001 0 0 0 -.0859375-.050781 1.0001 1.0001 0 0 0 -.0898437-.044922 1.0001 1.0001 0 0 0 -.09375-.033203 1.0001 1.0001 0 0 0 -.0957031-.025391 1.0001 1.0001 0 0 0 -.0996094-.013672 1.0001 1.0001 0 0 0 -.0996094-.005859h4a1.0001 1.0001 0 0 0 -.070312.001953 1.0001 1.0001 0 0 0 -.09961.011719 1.0001 1.0001 0 0 0 -.097656.023437 1.0001 1.0001 0 0 0 -.09375.03125 1.0001 1.0001 0 0 0 -.091797.041016 1.0001 1.0001 0 0 0 -.087891.048828 1.0001 1.0001 0 0 0 -.080078.058594 1.0001 1.0001 0 0 0 -.076172.066406 1.0001 1.0001 0 0 0 -.068359.072266 1.0001 1.0001 0 0 0 -.060547.080078 1.0001 1.0001 0 0 0 -.050781.085937 1.0001 1.0001 0 0 0 -.044922.089844 1.0001 1.0001 0 0 0 -.033203.09375 1.0001 1.0001 0 0 0 -.025391.095703 1.0001 1.0001 0 0 0 -.013672.09961 1.0001 1.0001 0 0 0 -.005859.099609v1a1.0001 1.0001 0 0 0 .001953.070312 1.0001 1.0001 0 0 0 .011719.09961 1.0001 1.0001 0 0 0 .023437.097656 1.0001 1.0001 0 0 0 .03125.09375 1.0001 1.0001 0 0 0 .041016.091797 1.0001 1.0001 0 0 0 .048828.087891 1.0001 1.0001 0 0 0 .058594.080078 1.0001 1.0001 0 0 0 .066406.076172 1.0001 1.0001 0 0 0 .072266.068359 1.0001 1.0001 0 0 0 .080078.060547 1.0001 1.0001 0 0 0 .085937.050781 1.0001 1.0001 0 0 0 .089844.044922 1.0001 1.0001 0 0 0 .09375.033203 1.0001 1.0001 0 0 0 .095703.025391 1.0001 1.0001 0 0 0 .09961.013672 1.0001 1.0001 0 0 0 .099609.005859h1c.351847 0 .685107-.073943 1-.1875.372976-.134503.710807-.33773 1-.599609zm-8 2.2128906h.9609375c-.3718402 0-.6619169.2182938-.9609375.4042969zm5.039062 0h.960938v.4042969c-.299021-.1860031-.589097-.4042969-.960938-.4042969zm-5.039062 3.595703c.2990206.186003.5890971.404297.9609375.404297h-.9609375v-.28125zm6 0v.123047.28125h-.960938c.371841 0 .661917-.218294.960938-.404297z" fill="#2d2d2d" fill-opacity=".784314"/><g fill="#0a84ff"><rect fill="#e5e5ea" height="4" ry=".961864" width="6" x="6" y="8"/><path d="m6 6c-1.104522 0-2 .895478-2 2v4c0 1.104597.8954308 2 2 2h1v-1h-1c-.5522842 0-1-.447701-1-1v-.28125-3.71875c0-.552299.4267669-1 1-1h1v-1z" fill="#f2f2f7"/><path d="m12 6c1.104522 0 2 .895478 2 2v4c0 1.104597-.895431 2-2 2h-1v-1h1c.552284 0 1-.447701 1-1v-.28125-3.71875c0-.552299-.426767-1-1-1h-1v-1z" fill="#f2f2f7"/><rect fill="#2d2d2d" height="2" ry=".406014" width="4" x="7" y="9"/></g></svg>