<?xml version="1.0" encoding="UTF-8" standalone="no"?>
<svg
   viewBox="0 0 16 16"
   version="1.1"
   id="svg16"
   sodipodi:docname="sc_newhtmldoc.svg"
   inkscape:version="1.2.2 (1:1.2.2+202212051552+b0a8486541)"
   xmlns:inkscape="http://www.inkscape.org/namespaces/inkscape"
   xmlns:sodipodi="http://sodipodi.sourceforge.net/DTD/sodipodi-0.dtd"
   xmlns:xlink="http://www.w3.org/1999/xlink"
   xmlns="http://www.w3.org/2000/svg"
   xmlns:svg="http://www.w3.org/2000/svg"><defs
   id="defs20">
  <linearGradient
     id="a-3"
     gradientUnits="userSpaceOnUse"
     x1="12"
     x2="12"
     y1="21.5"
     y2="2.5"
     gradientTransform="translate(12.204576,-9.3728129)">
    <stop
       offset="0"
       stop-color="#2d2d2d"
       id="stop145" />
    <stop
       offset="1"
       stop-color="#2d2d2d"
       id="stop147" />
  </linearGradient>
  <linearGradient
     inkscape:collect="always"
     xlink:href="#a-3"
     id="linearGradient1186"
     x1="7.4101562"
     y1="14.712891"
     x2="7.3945312"
     y2="2.3066406"
     gradientUnits="userSpaceOnUse" />
</defs>
<sodipodi:namedview
   id="namedview18"
   pagecolor="#2d2d2dfff"
   bordercolor="#f2f2f7000"
   borderopacity="0.25"
   inkscape:showpageshadow="2"
   inkscape:pageopacity="0.0"
   inkscape:pagecheckerboard="0"
   inkscape:deskcolor="#d1d1d1"
   showgrid="false"
   inkscape:zoom="23.21875"
   inkscape:cx="10.099596"
   inkscape:cy="8.0107672"
   inkscape:window-width="1920"
   inkscape:window-height="1010"
   inkscape:window-x="0"
   inkscape:window-y="0"
   inkscape:window-maximized="1"
   inkscape:current-layer="svg16" />
<linearGradient
   id="a"
   gradientUnits="userSpaceOnUse"
   x1="-18.169491"
   x2="-18.330508"
   y1="12.296611"
   y2="-2.59322">
  <stop
     offset="0"
     stop-color="#409cff"
     id="stop2" />
  <stop
     offset="1"
     stop-color="#0a84ff"
     id="stop4" />
</linearGradient>
<linearGradient
   id="b"
   gradientUnits="userSpaceOnUse"
   x1="-7.030585"
   x2="-7.026675"
   y1="3.644184"
   y2="-9.348">
  <stop
     offset="0"
     stop-color="e5e5ea"
     id="stop7" />
  <stop
     offset="1"
     stop-color="#2d2d2d"
     id="stop9" />
</linearGradient>




     /&amp;amp;amp;gt;
 <path
   d="m14 8.5a6.5 6.5 0 0 1 -6.5 6.5 6.5 6.5 0 0 1 -6.5-6.5 6.5 6.5 0 0 1 6.5-6.5 6.5 6.5 0 0 1 6.5 6.5z"
   fill="url(#b)"
   id="path12"
   style="fill:url(#linearGradient1186);fill-opacity:1" />
<path
   d="m7.5 1a7.5 7.5 0 0 0 -7.5 7.5 7.5 7.5 0 0 0 7.5 7.5 7.5 7.5 0 0 0 7.5-7.5 7.5 7.5 0 0 0 -7.5-7.5zm.00391 1a6.5 6.5 0 0 1 .064453.00391.50005.50005 0 0 0 .109375.3027344c.6418609.8229503 1.155164 1.6604336 1.5390589 2.5175744-1.119111.1933347-2.2369139.1905685-3.3574219-.0058594.38362-.8549332.8948701-1.6907884 1.5351562-2.5117188a.50005.50005 0 0 0 .109375-.3066406zm-1.2089881.1152344c-.5843051.8029368-1.0703742 1.6335521-1.4355469 2.4921875-.6380173-.175292-1.2786377-.4302808-1.921875-.7246094a6.5 6.5 0 0 1 3.3574219-1.7675781zm2.4902343.015625a6.5 6.5 0 0 1 3.2890628 1.7597656c-.622233.2970411-1.243129.5483381-1.861328.7207031-.3631219-.8547662-.8473482-1.6808971-1.4277348-2.4804687zm-6.5214843 2.5390625c.7466984.356724 1.4969224.6529085 2.25.8613281-.2528039.7990086-.4037353 1.6213918-.4335938 2.46875h-3.0546875a6.5 6.5 0 0 1 1.2382813-3.3300781zm10.4785161.00586a6.5 6.5 0 0 1 1.236328 3.3242181h-2.988282c-.029784-.8452733-.17997-1.6657312-.43164-2.4628906.730412-.2053967 1.458102-.4993505 2.183594-.8613282zm-7.2460942 1.0683587c1.3593621.2565588 2.7228872.2628052 4.0839843.0078125.2387771.7323459.3778619 1.4799447.4082031 2.2480469h-4.9042968c.0304544-.7709663.1716948-1.5209022.4121094-2.2558594zm-4.4746094 3.2558594h3.0839844c.058298.7851002.2173833 1.58728.484375 2.40625-.7861884.212341-1.5684685.522676-2.3476563.896484a6.5 6.5 0 0 1 -1.2207031-3.302734zm4.0878906 0h4.8535156c-.0583742.7091257-.2047291 1.438748-.4589844 2.193359-.6676061-.120087-1.3353808-.199907-2.0039062-.195312-.6440198.004425-1.2871003.087991-1.9296875.205078-.2562167-.758023-.4023155-1.4909887-.4609375-2.203125zm5.855469 0h3.009765a6.5 6.5 0 0 1 -1.21289 3.294922c-.757185-.379302-1.516921-.687884-2.279297-.896484.265471-.816276.424308-1.6158182.482422-2.398438zm-3.464844 2.976562c.5471575-.0039 1.0949911.05604 1.6425781.146485-.365209.832811-.8525412 1.693877-1.4804687 2.589844a.50005.50005 0 0 0 -.0976563.283203 6.5 6.5 0 0 1 -.0644531.003906.50065925.50065925 0 0 0 -.0898438-.287109c-.6269472-.894568-1.1134883-1.754334-1.4785156-2.585938.5232715-.087786 1.0461235-.146627 1.5683594-.150391zm2.638672.347657c.65114.176538 1.305355.444999 1.960937.759765a6.5 6.5 0 0 1 -3.3515621 1.794922c.5759861-.868856 1.0420029-1.720577 1.3906251-2.554687zm-5.201172.011719c.3490871.832808.8149234 1.683346 1.390625 2.550781a6.5 6.5 0 0 1 -3.4199219-1.794922c.6792215-.312559 1.355858-.576136 2.0292969-.755859z"
   fill="url(#a)"
   id="path14" />
</svg>
