<svg viewBox="0 0 16 16" xmlns="http://www.w3.org/2000/svg" xmlns:xlink="http://www.w3.org/1999/xlink"><linearGradient id="a" gradientUnits="userSpaceOnUse" x1="-8" x2="-8" xlink:href="#e" y1="14" y2="13"/><linearGradient id="b" gradientUnits="userSpaceOnUse" x1="-10" x2="-10" xlink:href="#e" y1="11" y2="10"/><linearGradient id="c" gradientTransform="translate(0 -8)" gradientUnits="userSpaceOnUse" x1="5" x2="5" xlink:href="#e" y1="15" y2="9"/><linearGradient id="d" gradientTransform="translate(0 7.999999)" gradientUnits="userSpaceOnUse" x1="4" x2="4" xlink:href="#e" y1="7" y2="1"/><linearGradient id="e" gradientTransform="translate(-32.610169 -7.932203)" gradientUnits="userSpaceOnUse" x1="14" x2="13.79661" y1="22" y2="2.135593"><stop offset="0" stop-color="#409cff"/><stop offset="1" stop-color="#0a84ff"/></linearGradient><path d="m0 1.000001v.999999h1v4h-1v1h1 1 3v-1h-1v-4h1v-.999999h-3-1zm2 .999999h1v4h-1z" fill="url(#c)"/><g fill="#f2f2f7" transform="scale(-1 1)"><rect height="1" ry=".5" width="10" x="-15" y="2"/><rect height="1" ry=".5" width="6.000002" x="-11" y="5"/><rect fill="url(#b)" height="1" ry=".5" width="10" x="-14.999999" y="10"/><rect fill="url(#a)" height="1" ry=".5" width="6.000002" x="-11" y="13"/></g><path d="m1 9v1h1v4h-1v1h1 1 1v-1h-1v-4h1v-1h-1-1z" fill="url(#d)"/></svg>