<svg height="16" viewBox="0 0 4.2333332 4.2333335" width="16" xmlns="http://www.w3.org/2000/svg" xmlns:xlink="http://www.w3.org/1999/xlink"><filter id="a" color-interpolation-filters="sRGB" height="1.094553" width="1.097492" x="-.048746" y="-.047277"><feGaussianBlur stdDeviation=".36559322"/></filter><linearGradient id="b" gradientUnits="userSpaceOnUse" x1="2.831939" x2="2.849877" y1="296.450657" y2="295.67036"><stop offset="0" stop-color="#409cff"/><stop offset="1" stop-color="#0a84ff"/></linearGradient><g transform="translate(0 -292.76665)"><path d="m1 10.940678h14v2.559322h-14z" filter="url(#a)" opacity=".15" stroke-width="1.015418" transform="matrix(.26458333 0 0 .26458333 0 292.76667)"/><path d="m.26458333 293.03125h3.70416667v2.91042h-3.70416667z" fill="#2d2d2d" stroke-width=".264583"/><path d="m0 292.76667v3.43958h4.2333333v-3.43958zm.26458333.26458h3.70416667v2.91042h-3.70416667z" fill="#f2f2f7" stroke-width=".264583"/><path d="m5 12.940678h11v2.559322h-11z" filter="url(#a)" opacity=".15" stroke-width="1.015418" transform="matrix(.26458333 0 0 .26458333 0 292.76667)"/><g stroke-width=".264583"><path d="m1.0583333 295.14792h3.175v1.05833h-3.175z" fill="#2d2d2d" fill-opacity=".784314"/><path d="m1.3229167 295.4125v1.32292h2.9104166v-1.32292zm.2645833.26458h2.38125v.79375h-2.38125z" fill="#f2f2f7"/><path d="m1.5875 295.67708h2.38125v.79375h-2.38125z" fill="#2d2d2d"/><path d="m2.1166667 295.94167h1.3229166v.26458h-1.3229166z" fill="url(#b)"/></g></g></svg>