<svg viewBox="0 0 16 16" xmlns="http://www.w3.org/2000/svg" xmlns:xlink="http://www.w3.org/1999/xlink"><linearGradient id="a" gradientUnits="userSpaceOnUse" x1="8" x2="8" y1="14" y2="2"><stop offset="0" stop-color="#2d2d2d"/><stop offset=".3888889" stop-color="#2d2d2d"/><stop offset="1" stop-color="#2d2d2d"/></linearGradient>







     /&amp;amp;amp;amp;amp;gt;
 <path d="m2 1c-1.108 0-2 .892-2 2v10c0 1.108.892 2 2 2h12c1.108 0 2-.892 2-2v-10c0-1.108-.892-2-2-2zm-1 1h14v12h-14z" fill="#f2f2f7"/><path d="m1 2v12h14v-12z" fill="url(#a)"/><path d="m2 4h12v2h-12z" fill="#e5e5ea"/><g fill="#f2f2f7"><path d="m2 11h1v1h-1z"/><path d="m2 9h1v1h-1z"/><path d="m4 11h10v1h-10z"/><path d="m4 9h10v1h-10z"/><path d="m2 7h1v1h-1z"/><path d="m4 7h10v1h-10z"/></g><g transform="matrix(-1 0 0 1 16 0)"><path d="m7.9589844 5a1.0001 1.0001 0 0 0 -.9589844 1v9h4.486328l4.513672-2.822266v-2.3554684l-7.4707031-4.6699218a1.0001 1.0001 0 0 0 -.5703125-.1523438z" fill="#2d2d2d" fill-opacity=".784314"/><path d="m8 6v10l8-5z" fill="#f2f2f7"/></g></svg>