<svg viewBox="0 0 16 16" xmlns="http://www.w3.org/2000/svg" xmlns:xlink="http://www.w3.org/1999/xlink"><filter id="a" color-interpolation-filters="sRGB" height="1.153483" width="1.158601" x="-.0793" y="-.076742"><feGaussianBlur stdDeviation=".49562693"/></filter><linearGradient id="b" gradientUnits="userSpaceOnUse" x1="13" x2="13" xlink:href="#c" y1="13" y2="-1"/><linearGradient id="c" gradientUnits="userSpaceOnUse" x1="10" x2="10" y1="16" y2="2"><stop offset="0" stop-color="#2d2d2d"/><stop offset=".3888889" stop-color="#2d2d2d"/><stop offset="1" stop-color="#2d2d2d"/></linearGradient><path d="m5.5.5c-1.0993514 0-2 .9006486-2 2v1h-1c-1.0993514 0-2 .9006486-2 2v5c0 1.099351.9006486 2 2 2h.5v3c.0007774.430893.5097988.659116.8320312.373047l4.3574219-3.373047h2.3105469c1.099351 0 2-.900649 2-2v-1h1c1.099351 0 2-.900649 2-2v-5c0-1.0993514-.900649-2-2-2z" filter="url(#a)" opacity=".18"/><g stroke="#f2f2f7" stroke-linecap="round" stroke-linejoin="round"><path d="m5 .5c-.831 0-1.5.669-1.5 1.5v5c0 .831.669 1.5 1.5 1.5h1.5v4l4.5-4h3c.831 0 1.5-.669 1.5-1.5v-5c0-.831-.669-1.5-1.5-1.5z" fill="url(#b)"/><path d="m2 3.5c-.831 0-1.5.669-1.5 1.5v5c0 .831.669 1.5 1.5 1.5h1.5v4l4.5-4h3c.831 0 1.5-.669 1.5-1.5v-5c0-.831-.669-1.5-1.5-1.5z" fill="url(#c)"/></g></svg>