<svg viewBox="0 0 16 16" xmlns="http://www.w3.org/2000/svg" xmlns:xlink="http://www.w3.org/1999/xlink"><linearGradient id="a" gradientUnits="userSpaceOnUse" x1="7.970703" x2="8.032357" y1="15.441403" y2="-.008014"><stop offset="0" stop-color="#2d2d2d"/><stop offset="1" stop-color="#2d2d2d"/></linearGradient>

/&amp;amp;gt;<path d="m4.71875.499997c-2.3299505 0-4.21875 1.8887756-4.21875 4.21875 0 .4972513.0538773 1.004624.2636719 1.40625 2.1388106 3.992101 4.723284 4.356202 7.2070312 9.316406v.0293c.00619.01242.0231.01682.029297.0293.010247-.02063.01905-.03813.029297-.05859 2.4837469-4.960214 5.0682199-5.324315 7.2070299-9.316416.209794-.401626.263673-.9089987.263673-1.40625 0-2.3299744-1.888799-4.21875-4.21875-4.21875-1.318872 0-2.478643.6049321-3.2519531 1.5527344-.0084815.0103956-.0209091.0188187-.0292969.0292969-.0083877-.0104782-.0208154-.0189013-.0292969-.0292969-.7733097-.9478023-1.9330806-1.5527344-3.2519531-1.5527344z" fill="url(#a)" stroke="#0a84ff" stroke-linejoin="round" stroke-opacity=".813725"/></svg>