<svg viewBox="0 0 16 16" xmlns="http://www.w3.org/2000/svg"><path d="m0 5v9.5c-.00038442.276301.22369855.500384.5.5h15c.276301.000384.500384-.223699.5-.5v-9.5h-.998047v9.001953h-14.00390612v-9.001953z" fill="#70d7ff"/><path d="m1 5h14v9h-14z" fill="#2d2d2d"/><path d="m1 5h4v9h-4z" fill="#5ac8f5"/><path d="m1 2v2h4v-2zm5 0v2h4v-2zm5 0v2h4v1h.0039v-3z" fill="#0a84ff"/><path d="m5 5v4h-4v1h4v4h1v-4h3.9999995v4h1.0000005v-4h4v-1h-4v-4h-1.0000005v4h-3.9999995v-4z" fill="#70d7ff"/><path d="m.50195312 1.0019531c-.27630145-.000384-.50038441.223699-.49999999.5v3.4980469h.99804687 14v-1h-4v-2h4.003906v3h.998047v-3.4980469c.000384-.276301-.223699-.500384-.5-.5zm.49804688.9980469h4v2h-4zm5 0h3.9999995v2h-3.9999995z" fill="#409cff"/><path d="m11 5c-1.4660766 0-2.9271003.3472758-4.0507812 1.0214844-1.1236811.6742086-1.9492188 1.7567851-1.9492188 2.9785156 0 .4272032.2072712.8038348.3867188 1.185547a1.0001 1.0001 0 0 0 -.3867188.789062v2.025391c0 .353275.0702501.686033.1875 1h9.8125v-8.0039062c-1.117131-.6555535-2.554657-.9960938-4-.9960938zm4.001953.9980469v8.0039061h-9.8124999c.1357158.362465.3385046.696852.59375.998047h9.7167969c.276301.000384.500384-.223699.5-.5v-7.7265625c-.277801-.2840504-.596224-.5401563-.949219-.7519531-.015159-.0090956-.033547-.014461-.048828-.0234375z" fill="#2d2d2d" fill-opacity=".784314"/><g fill="#5ac8f5"><path d="m6 10.974609v2.025391c0 1.656854 2.238576 3 5 3s5-1.343146 5-3v-2.025391c-1.237023 1.483512-2.784273 2.025391-5 2.025391-2.447645 0-3.681267-.674935-5-2.025391z"/><path d="m16 9a5 3 0 0 1 -5 3 5 3 0 0 1 -5-3 5 3 0 0 1 5-3 5 3 0 0 1 5 3z"/></g></svg>