<svg viewBox="0 0 16 16" xmlns="http://www.w3.org/2000/svg"><path d="m10.253969 12.30644q0-.868427-.5751919-1.342115-.575192-.473687-2.0639245-1.0037663-3.1128043-.98121-4.612815-2.0977593-1.5000108-1.1278277-1.5000108-3.2481436 0-2.0639246 1.7819677-3.3383698 1.7932459-1.27444525 4.5451453-1.27444525 2.7293432 0 4.4661972 1.40978455 1.748133 1.3985063 1.691742 3.6090484l-.02256.06767h-3.699274q0-.9812101-.6654188-1.590237-.6654183-.6203052-1.838359-.6203052-1.1503842 0-1.8045242.5075224-.6541401.5075225-.6541401 1.2518887 0 .7218097.6541401 1.1616625.6654183.4285745 2.4812208 1.0827145 2.7970122.8345925 4.2067972 2.0526463 1.421063 1.2180534 1.421063 3.3496484 0 2.165429-1.691742 3.394761-1.680463 1.218054-4.4661972 1.218054-2.7970126 0-4.8383806-1.398507-2.041368-1.409784-1.9849766-4.048901l.022556-.06767h3.7105564q0 1.421062.7669228 2.030089.7669228.609027 2.323325.609027 1.184219 0 1.7594111-.473687.5864701-.473688.5864701-1.240611z" fill="#f2f2f7" transform="scale(1.0561585 .94682758)"/></svg>