<svg viewBox="0 0 16 16" xmlns="http://www.w3.org/2000/svg" xmlns:xlink="http://www.w3.org/1999/xlink"><linearGradient id="a" gradientTransform="translate(-29.694915 1.220339)" gradientUnits="userSpaceOnUse" x1="14" x2="13.79661" y1="22" y2="2.135593"><stop offset="0" stop-color="#409cff"/><stop offset="1" stop-color="#0a84ff"/></linearGradient><linearGradient id="b" gradientUnits="userSpaceOnUse" x1="15.5" x2="15.5" xlink:href="#a" y1="16" y2="9"/><linearGradient id="c" gradientTransform="translate(-15)" gradientUnits="userSpaceOnUse" x1="15.5" x2="15.5" xlink:href="#a" y1="16" y2="9"/><linearGradient id="d" gradientTransform="matrix(.14285714 0 0 1 12.857143 0)" gradientUnits="userSpaceOnUse" x1="8" x2="8" xlink:href="#a" y1="16" y2="9"/><linearGradient id="e" gradientTransform="matrix(.14285714 0 0 1 .857143 0)" gradientUnits="userSpaceOnUse" x1="8" x2="8" xlink:href="#a" y1="16" y2="9"/><linearGradient id="f" gradientUnits="userSpaceOnUse" x1="8" x2="8" xlink:href="#a" y1="16" y2="8"/>
/&amp;amp;gt;<rect fill="url(#b)" height="7" rx=".5" width="1" x="15" y="9"/><rect fill="url(#c)" height="7" rx=".5" width="1" y="9"/><path d="m1 1h14v7h-14z" fill="#2d2d2d"/><path d="m0 0v1 7.5c-.00038442.276301.22369855.500384.5.5h15c.276301.000384.500384-.223699.5-.5v-7.5-1zm.99804688 1h4.00195312v3h-4v1h4v3h1v-3h4v3h1v-3h4v-1h-4v-3h4.001953v7.001953h-14.00390612zm5.00195312 0h4v3h-4z" fill="#e5e5ea"/><path d="m13 12h2v1h-2z" fill="url(#d)"/><path d="m0 0v1 7.5c-.00038442.276301.22369855.500384.5.5h15c.276301.000384.500384-.223699.5-.5v-7.5-1zm.99804688 1h.00195312 4 1 4 1 4.001953v7.0019531h-14.001953-.00195312z" fill="#f2f2f7"/><path d="m10.507812 7c-.481429-.0013167-.9558824.2471292-1.2304682.6425781l-.8144532 1.1386719c-.5123515-.9735521-1.3532284-1.7753906-2.4628906-1.7753906-1.2216677 0-2.3471291.8698928-2.7890625 1.9941406h8.6933595c.133527-.3805901.117215-.8142178-.064453-1.1757812-.24623-.4900575-.781644-.8219926-1.330078-.8242188z" fill="#2d2d2d" fill-opacity=".784314"/><path d="m10.505859 7.9941406a.50005.50005 0 0 0 -.412109.2148438l-4.9960938 6.9941406a.50052325.50052325 0 0 0 .8144532.582031l4.9941406-6.9941404a.50005.50005 0 0 0 -.400391-.796875zm-4.505859.0058594a2 2 0 0 0 -2 2 2 2 0 0 0 2 2 2 2 0 0 0 2-2 2 2 0 0 0 -2-2zm0 1a1 1 0 0 1 1 1 1 1 0 0 1 -1 1 1 1 0 0 1 -1-1 1 1 0 0 1 1-1zm4 3a2 2 0 0 0 -2 2 2 2 0 0 0 2 2 2 2 0 0 0 2-2 2 2 0 0 0 -2-2zm0 1a1 1 0 0 1 1 1 1 1 0 0 1 -1 1 1 1 0 0 1 -1-1 1 1 0 0 1 1-1z" fill="url(#f)"/><path d="m1 12h2v1h-2z" fill="url(#e)"/></svg>