<svg viewBox="0 0 16 16" xmlns="http://www.w3.org/2000/svg" xmlns:xlink="http://www.w3.org/1999/xlink"><linearGradient id="a" gradientUnits="userSpaceOnUse" x1="2.833473" x2="7.778805" y1="7.808242" y2="7.808242"><stop offset="0" stop-color="#409cff"/><stop offset="1" stop-color="#0a84ff"/></linearGradient><path d="m9 1v4h6v-4zm1 1h4v2h-4zm-1 4v4h6v-4zm1 1h4v2h-4zm-1 4v4h6v-4zm1 1h4v2h-4z" fill="#f2f2f7"/><path d="m10 2v2h4v-2zm0 5v2h4v-2zm0 5v2h4v-2z" fill="#2d2d2d"/><path d="m3.5 1c-.277 0-.5.223-.5.5v2c0 .277.223.5.5.5s.5-.223.5-.5v-1.5h3.5c.277 0 .5-.223.5-.5s-.223-.5-.5-.5zm0 11c-.277 0-.5.223-.5.5v2c0 .277.223.5.5.5h4c.277 0 .5-.223.5-.5s-.223-.5-.5-.5h-3.5v-1.5c0-.277-.223-.5-.5-.5z" fill="url(#a)"/><path d="m1 7h6v2h-6z" fill="#ff6482"/></svg>