<svg height="16" viewBox="0 0 16 16" width="16" xmlns="http://www.w3.org/2000/svg" xmlns:xlink="http://www.w3.org/1999/xlink"><linearGradient id="a" gradientUnits="userSpaceOnUse" x1="7.5" x2="7.59322" y1="12" y2="2.966103"><stop offset="0" stop-color="#31de4b"/><stop offset="1" stop-color="#28d74b"/></linearGradient><g fill="#f2f2f7"><rect height="1" ry=".5" width="14" x="1" y="1"/><rect height="1" ry=".47603" width="3" x="1" y="10"/><rect height="1" ry=".5" width="14" x="1" y="13"/><rect height="1" ry=".344197" width="3" x="1" y="7"/><rect height="1" ry=".464045" width="3" x="1" y="4"/><rect height="1" ry=".47603" width="3" x="12" y="10"/><rect height="1" ry=".344197" width="3" x="12" y="7"/><rect height="1" ry=".464045" width="3" x="12" y="4"/></g><path d="m6 3h4c.554 0 1 .446 1 1v7c0 .554-.446 1-1 1h-4c-.554 0-1-.446-1-1v-7c0-.554.446-1 1-1z" fill="url(#a)"/></svg>