<svg height="16" viewBox="0 0 16 16" width="16" xmlns="http://www.w3.org/2000/svg" xmlns:xlink="http://www.w3.org/1999/xlink"><linearGradient id="a" gradientTransform="matrix(-1 0 0 1 16 0)" gradientUnits="userSpaceOnUse" x1="12" x2="12" y1="12" y2="3"><stop offset="0" stop-color="#409cff"/><stop offset="1" stop-color="#0a84ff"/></linearGradient><path d="m6 3h-4c-.554 0-1 .446-1 1v7c0 .554.446 1 1 1h4c.554 0 1-.446 1-1v-7c0-.554-.446-1-1-1z" fill="url(#a)"/><g fill="#f2f2f7" transform="matrix(-1 0 0 1 16 0)"><rect height="1" ry=".5" width="14" x="1" y="1"/><rect height="1" ry=".5" width="14" x="1" y="13"/><rect height="1" ry=".464045" width="7" x="1" y="4"/><rect height="1" ry=".464045" width="7" x="1" y="7"/><rect height="1" ry=".464045" width="7" x="1" y="10"/></g></svg>