<svg viewBox="0 0 16 16" xmlns="http://www.w3.org/2000/svg" xmlns:xlink="http://www.w3.org/1999/xlink"><linearGradient id="a" gradientUnits="userSpaceOnUse" x1="80.835156" x2="81.021026" y1="3.026914" y2="-4.883095"><stop offset="0" stop-color="#409cff"/><stop offset="1" stop-color="#0a84ff"/></linearGradient>




     /&amp;amp;gt;
 <path d="m6 0a6 6 0 0 0 -6 6 6 6 0 0 0 6 6 6 6 0 0 0 3.4746094-1.113281l4.6582026 4.65625c.195869.195868.511163.195868.707032 0l.707031-.707031c.195869-.195869.195869-.511163 0-.707032l-4.660156-4.6582029a6 6 0 0 0 1.113281-3.4707031 6 6 0 0 0 -6-6zm0 1a4.9992638 4.9992638 0 0 1 5 5 4.9992638 4.9992638 0 0 1 -1.4902344 3.5585938 4.9992638 4.9992638 0 0 1 -.0253906.0273437l-.015625.0136719a4.9992638 4.9992638 0 0 1 -3.46875 1.4003906 4.9992638 4.9992638 0 0 1 -5-5 4.9992638 4.9992638 0 0 1 5-5z" fill="#f2f2f7"/><path d="m5 5h-2c-.554 0-1 .446-1 1s.446 1 1 1h2 2 2c.554 0 1-.446 1-1s-.446-1-1-1h-2z" fill="url(#a)"/></svg>