<svg viewBox="0 0 16 16" xmlns="http://www.w3.org/2000/svg" xmlns:xlink="http://www.w3.org/1999/xlink"><linearGradient id="a" gradientUnits="userSpaceOnUse" x1="7.5" x2="7.5" xlink:href="#c" y1="9" y2="8"/><linearGradient id="b" gradientUnits="userSpaceOnUse" x1="5" x2="5" xlink:href="#c" y1="7" y2="2"/><linearGradient id="c" gradientUnits="userSpaceOnUse" x1="83.001132" x2="83" y1="2.932203" y2="-4.79661"><stop offset="0" stop-color="#409cff"/><stop offset="1" stop-color="#0a84ff"/></linearGradient>






     /&amp;amp;amp;gt;
 <path d="m6 0a6 6 0 0 0 -6 6 6 6 0 0 0 6 6 6 6 0 0 0 3.4746094-1.113281l4.6582026 4.65625c.19587.195868.511163.195868.707032 0l.707031-.707031c.195869-.19587.195869-.511163 0-.707032l-4.660156-4.6582029a6 6 0 0 0 1.113281-3.4707031 6 6 0 0 0 -6-6zm0 1a4.9992638 4.9992638 0 0 1 3.1621094 1.1308594l-7.03125 7.03125a4.9992638 4.9992638 0 0 1 -1.1308594-3.1621094 4.9992638 4.9992638 0 0 1 5-5zm3.8691406 1.8378906a4.9992638 4.9992638 0 0 1 1.1308594 3.1621094 4.9992638 4.9992638 0 0 1 -1.4902344 3.5585938 4.9992638 4.9992638 0 0 1 -.0253906.0273437l-.015625.0136719a4.9992638 4.9992638 0 0 1 -3.46875 1.4003906 4.9992638 4.9992638 0 0 1 -3.1621094-1.1308594z" fill="#f2f2f7"/><path d="m6 8h4v1h-4z" fill="url(#a)"/><path d="m4 1a1.0001 1.0001 0 0 0 -1 1v.0058594a4.9992638 4.9992638 0 0 1 2.3125-.953125 1.0001 1.0001 0 0 0 -.3125-.0527344zm-2 2a1.0001 1.0001 0 0 0 -1 1v1a1.0001 1.0001 0 0 0 .0527344.3164062 4.9992638 4.9992638 0 0 1 .9550781-2.3164062zm5.8378906.4550781-4.3828125 4.3828125a1.0001 1.0001 0 0 0 .5449219.1621094h.7070312l1.2929688-1.2929688v-.7070312h.7070312l1.2929688-1.2929688v-.7070312a1.0001 1.0001 0 0 0 -.1621094-.5449219z" fill="#2d2d2d" fill-opacity=".784314"/><path d="m4 2v2h-2v1h2v2h1v-2h2v-1h-2v-2z" fill="url(#b)"/><path d="m5.6328125 7.0742188c-.2551733.1014974-.4570963.3034204-.5585937.5585937zm5.1582035.34375a4.9992638 4.9992638 0 0 1 -.001954.0039062 4.9992638 4.9992638 0 0 1 -.214843.5878906c-.000245.0005582.000245.0013951 0 .0019532a4.9992638 4.9992638 0 0 1 -.001953.0039062 4.9992638 4.9992638 0 0 1 -.259766.5c-.025347.0435471-.051473.0861444-.078125.1289062a4.9992638 4.9992638 0 0 1 -.2441406.3535157c-.0347043.0462773-.0671876.0935806-.1035156.1386719a4.9992638 4.9992638 0 0 1 -.3769532.421875c-.00843.0091499-.0168926.0182607-.0253906.0273437l-.015625.0136719a4.9992638 4.9992638 0 0 1 -.4785156.4003906h1.0097656c.552262-.0000552.999945-.4477381 1-1v-1c-.000022-.2219959-.08658-.4161141-.208984-.5820312z" fill="#2d2d2d" fill-opacity=".784314"/></svg>