<svg viewBox="0 0 16 16" xmlns="http://www.w3.org/2000/svg"><path d="m1.4648438 2c-.2573531 0-.4648438.2182778-.4648438.4882812v.0234376c0 .2700034.2074907.4882812.4648438.4882812h13.0703122c.257353 0 .464844-.2182778.464844-.4882812v-.0234376c0-.2700034-.207491-.4882812-.464844-.4882812zm6 3c-.2573531 0-.4648438.2182778-.4648438.4882812v.0234376c0 .2700034.2074907.4882812.4648438.4882812h7.0703122c.257353 0 .464844-.2182778.464844-.4882812v-.0234376c0-.2700034-.207491-.4882812-.464844-.4882812zm0 3c-.2573531 0-.4648438.2182778-.4648438.4882812v.0234376c0 .2700034.2074907.4882812.4648438.4882812h7.0703122c.257353 0 .464844-.2182778.464844-.4882812v-.0234376c0-.2700034-.207491-.4882812-.464844-.4882812zm0 3c-.2573531 0-.4648438.218278-.4648438.488281v.023438c0 .270003.2074907.488281.4648438.488281h7.0703122c.257353 0 .464844-.218278.464844-.488281v-.023438c0-.270003-.207491-.488281-.464844-.488281z" fill="#48484a"/></svg>