<svg xmlns="http://www.w3.org/2000/svg" viewBox="0 0 16 16">
  <path
     d="M 13,12.810612 C 12.369989,13.252763 11.680126,13.507737 10.968213,13.70818 10.2563,13.902727 9.5002862,14 8.7001716,14 7.6858531,14 6.7660364,13.852616 5.9407215,13.557848 5.1217066,13.257185 4.4192439,12.841563 3.8333332,12.31098 3.2474226,11.774503 2.7938144,11.140752 2.4725086,10.409727 2.1575029,9.6728077 2,8.8680914 2,7.9955783 2,7.11717 2.1512028,6.3124538 2.4536083,5.5814295 2.7560137,4.8445098 3.1875715,4.2107589 3.7482818,3.6801768 4.315292,3.1495946 4.9957043,2.7369196 5.7895188,2.4421518 6.5896333,2.1473839 7.4810994,2 8.4639172,2 8.9742261,2 9.4498847,2.03832 9.890893,2.1149595 c 0.441008,0.07664 0.850515,0.182756 1.228522,0.3183493 0.378007,0.1355932 0.721363,0.2977155 1.030068,0.4863669 C 12.46449,3.1083271 12.747995,3.3176123 13,3.5475312 l -0.708764,1.0434783 c -0.107102,0.16507 -0.252005,0.2682387 -0.434708,0.3095062 -0.176403,0.035372 -0.368556,-0.0059 -0.57646,-0.1238025 C 7.3326914,3 5,4.7693436 5.0166724,7.9955783 5,11.618944 8,13 10.748907,11.254237 L 10.731958,10 H 9.2860824 C 9.1348795,10 9.0120272,9.958732 8.9175255,9.876196 8.8293239,9.7936613 8.7852231,9.6934403 8.7852231,9.575533 V 8 H 13 Z"
     style="fill:#4d4d4d"
     />
</svg>
