<svg viewBox="0 0 24 24" xmlns="http://www.w3.org/2000/svg" xmlns:xlink="http://www.w3.org/1999/xlink"><linearGradient id="a" gradientUnits="userSpaceOnUse" x1="20" x2="20" y1="22.5" y2="14.5"><stop offset="0" stop-color="#0040dd"/><stop offset="1" stop-color="#0a84ff"/></linearGradient><g transform="translate(-1)"><path d="m13.5 2a7.5 7.5 0 0 0 -7.5 7.5 7.5 7.5 0 0 0 7.5 7.5 7.5 7.5 0 0 0 7.5-7.5 7.5 7.5 0 0 0 -7.5-7.5zm0 2a5.5 5.5 0 0 1 5.5 5.5 5.5 5.5 0 0 1 -5.5 5.5 5.5 5.5 0 0 1 -5.5-5.5 5.5 5.5 0 0 1 5.5-5.5z" fill="#4b4b4f" transform="translate(1)"/><circle cx="14.5" cy="9.5" fill="#fff" r="5.5"/><rect fill="#4b4b4f" height="9" rx="1" transform="matrix(.70710678 .70710678 -.70710678 .70710678 0 0)" width="3" x="15.841788" y="2.542988"/><path d="m5.337261.1594781v.8447501h2.4937536c-.2360331 2.6336326.3510666 2.2266285-2.4937536 3.6552499l.5590258.7950589c3.6026112-1.8013053 2.9409742-2.1272461 2.9409742-5.2950589zm8.307552 2h-1.788883v-3h-1.018669l-.01867 8h1.018669l.01867-4h1.788883z" fill="#4b4b4f" transform="translate(5.162739 6.840522)"/><path d="m16.472656 14.126953a5.5 5.5 0 0 1 -2.472656.845703 1.0001 1.0001 0 0 0 0 .027344v1.974609a7.5 7.5 0 0 0 2.986328-.839843v-1.134766a1.0001 1.0001 0 0 0 -.513672-.873047z" fill="#fff" transform="translate(1)"/><path d="m16.987067 15h-.987067l.000747 6.5h.865207c1.669482 0 2.891447-.293588 4.755906-.671351l-.12186-.828649c-1.766971.353395-2.940192.659166-4.512186.659166zm7.012933 3h-1l-.000747-4h-.999253l.000747 8.930848h.999253v-3.930848h1z" fill="url(#a)"/></g></svg>