<svg viewBox="0 0 24 24" xmlns="http://www.w3.org/2000/svg" xmlns:xlink="http://www.w3.org/1999/xlink"><linearGradient id="a" gradientUnits="userSpaceOnUse" x1="-9.49844" x2="-29.256416" y1="4.6817" y2="5.113155"><stop offset="0" stop-color="#0040dd"/><stop offset="1" stop-color="#0a84ff"/></linearGradient><linearGradient id="b" gradientUnits="userSpaceOnUse" x1="19" x2="19.503906" xlink:href="#a" y1="10" y2="1"/><linearGradient id="c" gradientUnits="userSpaceOnUse" x1="19.503906" x2="20" xlink:href="#a" y1="22.999968" y2="14"/><path d="m19.503906 1c-.130564.00157-.255335.054147-.347656.1464844l-3.009766 3c-.314538.3150451-.091667.8531377.353516.8535156h1.5v4.5c.00008.2761092.223891.49992.5.5h2c.276109-.00008.49992-.2238908.5-.5v-4.5h1.5c.445183-.0003779.668054-.5384705.353516-.8535156l-2.990235-3c-.095193-.0952078-.22475-.14801647-.359375-.1464844z" fill="url(#b)"/><path d="m19.503906 22.999967c-.130564-.0016-.255335-.05415-.347656-.146484l-3.009766-3c-.314537-.315045-.091666-.853137.353516-.853515h1.5v-4.499968c.00008-.276109.223891-.49992.5-.5h2c.276109.00008.49992.223891.5.5v4.499968h1.5c.445182.000378.668053.53847.353516.853515l-2.990235 3c-.09519.09521-.22475.148016-.359375.146484z" fill="url(#c)"/><path d="m13 2v20h2v-8h3v-2h-3v-10zm-11 2v2h8c-.04685 2.0069373-.305397 5.736991-1.188129 7.793267-1.1102766 2.586331-3.7076469 5.064943-6.811871 5.206733v2c3.9542284-.177173 7.129205-2.940467 8.550781-6.251953 1.421577-3.311487 1.515879-6.9820261 1.449219-9.2910158v-1.4570312z" fill="#4b4b4f" fill-rule="evenodd"/></svg>