<svg viewBox="0 0 16 16" xmlns="http://www.w3.org/2000/svg"><path d="m11 0-2 14h2l.69775-4h3.30225v-2.0000001h-3l1-7.9999999zm-10 2v2h6c-1.2130374 5.0642791-1.850886 6.909397-6 7v2c7.2099072-.706593 7.918324-5.6294454 8-11z" fill="#4b4b4f" fill-rule="evenodd"/><path d="m12.355469 5.1582031a1.677188 1.677188 0 0 0 -.46875.3222657l-1.9433596 1.9140624-.9433594 6.6054688h2l.697266-4h3.302734v-2h-3z" fill="#fff" fill-opacity=".784314" fill-rule="evenodd"/><path d="m.46679688 15c-.25822052 0-.46679688.208576-.46679688.466797v.06641c0 .258217.20857636.466793.46679688.466793h6.82031252l-.8300782-.830078c-.0522944-.052265-.0935885-.111916-.1367187-.169922z" fill="#4b4b4f"/><g fill="#e68497" transform="matrix(.74912231 0 0 .74967327 -1.942593 -1.242485)"><path d="m16.518661 20.388672 6.175428-6.674056-2.646137-2.244388-6.365228 6.086413z"/><path d="m15.549003 21.813366c.189562 0 .378184-.07172.523438-.216797l.457939-1.190319-2.626426-2.849609-.495049 1.159069c-.290506.290127-.290506.756747 0 1.046875l1.614708 1.833984c.145254.145064.335828.216797.52539.216797z" fill="#e7acbc"/><path d="m13.064368 6.6764087-5.0107203 4.9377123-.5496625 1.486547c-.018751.383229.1179516.517763.3355761.735265l1.2092718 1.375c.6936168.4627 1.2734849.293285 2.0637249.186059l4.392791-4.712486.0081-1.8372671z" fill="none" stroke="#b6496c" transform="matrix(1.3348955 0 0 1.3339144 2.593158 1.657369)"/><path d="m15.089203 10.440958c.108813.10875-4.271893 4.551726-4.129888 4.551726s-1.0603155.121934-.951503.01317l.433594-.951172-.0098-.01172 4.625537-5.0044387z" fill="#ab4263" transform="matrix(1.3348955 0 0 1.3339144 2.593158 1.657369)"/><path d="m14.357108 18.013368 5.721784-5.630127 2.120144 1.873623" fill="none" stroke="#f398b3" stroke-width="1.334405"/></g></svg>