<?xml version="1.0" encoding="UTF-8" standalone="no"?>
<!-- Created with Inkscape (http://www.inkscape.org/) -->
<svg
   xmlns:dc="http://purl.org/dc/elements/1.1/"
   xmlns:cc="http://web.resource.org/cc/"
   xmlns:rdf="http://www.w3.org/1999/02/22-rdf-syntax-ns#"
   xmlns:svg="http://www.w3.org/2000/svg"
   xmlns="http://www.w3.org/2000/svg"
   xmlns:xlink="http://www.w3.org/1999/xlink"
   xmlns:sodipodi="http://inkscape.sourceforge.net/DTD/sodipodi-0.dtd"
   xmlns:inkscape="http://www.inkscape.org/namespaces/inkscape"
   inkscape:export-ydpi="90.000000"
   inkscape:export-xdpi="90.000000"
   inkscape:export-filename="/home/jimmac/Desktop/kde-uglies/lc_arrowshapes.left-arrow-callout.png"
   sodipodi:docname="lc_fontworkshapetype.fontwork-open-circle-curve.svg"
   sodipodi:docbase="/home/jimmac/Desktop/kde-uglies"
   inkscape:version="0.41+cvs"
   sodipodi:version="0.32"
   id="svg1288"
   height="24.000000px"
   width="24.000000px">
  <defs
     id="defs3">
    <linearGradient
       id="linearGradient2218">
      <stop
         id="stop2220"
         offset="0.0000000"
         style="stop-color:#b6b6b6;stop-opacity:1.0000000;" />
      <stop
         id="stop2222"
         offset="1.0000000"
         style="stop-color:#f0f0f0;stop-opacity:1.0000000;" />
    </linearGradient>
    <linearGradient
       gradientTransform="matrix(2.441894e-16,-1.000000,1.000000,2.441894e-16,26.76771,32.18389)"
       gradientUnits="userSpaceOnUse"
       y2="19.500000"
       x2="16.256456"
       y1="4.3914247"
       x1="6.2532201"
       id="linearGradient2224"
       xlink:href="#linearGradient2218"
       inkscape:collect="always" />
    <linearGradient
       inkscape:collect="always"
       xlink:href="#linearGradient2218"
       id="linearGradient1481"
       gradientUnits="userSpaceOnUse"
       gradientTransform="matrix(2.583112e-17,1.000000,-1.000000,2.583112e-17,48.22134,-3.459283)"
       x1="7.5016217"
       y1="11.590612"
       x2="22.882257"
       y2="3.7637231" />
    <linearGradient
       y2="34.514397"
       x2="20.873892"
       y1="39.685112"
       x1="8.8972702"
       gradientTransform="matrix(2.583112e-17,1.000000,-1.000000,2.583112e-17,72.78655,-2.442357)"
       gradientUnits="userSpaceOnUse"
       id="linearGradient2105"
       xlink:href="#linearGradient2218"
       inkscape:collect="always" />
    <linearGradient
       inkscape:collect="always"
       xlink:href="#linearGradient2218"
       id="linearGradient2533"
       gradientUnits="userSpaceOnUse"
       gradientTransform="matrix(2.583112e-17,1.000000,-1.000000,2.583112e-17,97.62367,-2.442357)"
       x1="5.8036780"
       y1="62.798664"
       x2="24.321037"
       y2="56.169540" />
    <linearGradient
       inkscape:collect="always"
       xlink:href="#linearGradient2218"
       id="linearGradient1298"
       gradientUnits="userSpaceOnUse"
       gradientTransform="matrix(2.243715e-17,0.868435,-0.868609,2.243262e-17,108.8030,-1.661115)"
       x1="6.2648406"
       y1="115.10406"
       x2="25.813429"
       y2="109.66647" />
  </defs>
  <sodipodi:namedview
     inkscape:window-y="237"
     inkscape:window-x="338"
     inkscape:window-height="847"
     inkscape:window-width="1080"
     inkscape:document-units="px"
     inkscape:grid-bbox="true"
     showgrid="false"
     inkscape:current-layer="layer1"
     inkscape:cy="7.5422143"
     inkscape:cx="23.316676"
     inkscape:zoom="11.313708"
     inkscape:pageshadow="2"
     inkscape:pageopacity="0.0"
     borderopacity="0.050980392"
     bordercolor="#666666"
     pagecolor="#ffffff"
     id="base" />
  <metadata
     id="metadata4">
    <rdf:RDF
       id="RDF5">
      <cc:Work
         id="Work6"
         rdf:about="">
        <dc:format
           id="format7">image/svg+xml</dc:format>
        <dc:type
           rdf:resource="http://purl.org/dc/dcmitype/StillImage"
           id="type9" />
      </cc:Work>
    </rdf:RDF>
  </metadata>
  <g
     inkscape:groupmode="layer"
     inkscape:label="Layer 1"
     id="layer1">
    <path
       style="opacity:0.17714281;color:#000000;fill:#000000;fill-opacity:1.0000000;fill-rule:evenodd;stroke:#000000;stroke-width:0.79999989;stroke-linecap:butt;stroke-linejoin:miter;marker:none;marker-start:none;marker-mid:none;marker-end:none;stroke-miterlimit:4.0000000;stroke-dasharray:none;stroke-dashoffset:0.0000000;stroke-opacity:1.0000000;visibility:visible;display:inline;overflow:visible;font-family:Bitstream Vera Sans"
       d="M 12.700825,2.0713835 C 7.4641166,2.0713835 3.3229402,6.0909650 2.8258252,11.196383 L 7.6070752,11.196383 C 8.0696732,8.7435773 10.113555,6.8526335 12.700825,6.8526335 C 15.288095,6.8526336 17.363227,8.7435774 17.825825,11.196383 L 22.607075,11.196383 C 22.109960,6.0909647 17.937534,2.0713835 12.700825,2.0713835 z M 2.9508252,13.665133 C 3.7138715,18.482557 7.6720668,22.258884 12.700825,22.258883 C 17.729584,22.258883 21.719029,18.482557 22.482075,13.665133 L 17.700825,13.665133 C 17.034428,15.827581 15.081983,17.446383 12.700825,17.446383 C 10.319666,17.446383 8.3984714,15.827582 7.7320752,13.665133 L 2.9508252,13.665133 z "
       id="path1597" />
    <path
       id="path1296"
       d="M 11.375000 1.1875000 C 6.1382914 1.1875000 1.9971150 5.2070815 1.5000000 10.312500 L 6.2812500 10.312500 C 6.7438480 7.8596938 8.7877296 5.9687500 11.375000 5.9687500 C 13.962270 5.9687501 16.037402 7.8596939 16.500000 10.312500 L 21.281250 10.312500 C 20.784135 5.2070812 16.611709 1.1875000 11.375000 1.1875000 z M 1.6250000 12.781250 C 2.3880463 17.598674 6.3462416 21.375001 11.375000 21.375000 C 16.403759 21.375000 20.393204 17.598674 21.156250 12.781250 L 16.375000 12.781250 C 15.708603 14.943698 13.756158 16.562500 11.375000 16.562500 C 8.9938410 16.562500 7.0726462 14.943699 6.4062500 12.781250 L 1.6250000 12.781250 z "
       style="opacity:1.0000000;color:#000000;fill:url(#linearGradient1298);fill-opacity:1.0000000;fill-rule:evenodd;stroke:#000000;stroke-width:0.79999989;stroke-linecap:butt;stroke-linejoin:miter;marker:none;marker-start:none;marker-mid:none;marker-end:none;stroke-miterlimit:4.0000000;stroke-dasharray:none;stroke-dashoffset:0.0000000;stroke-opacity:1.0000000;visibility:visible;display:inline;overflow:visible;font-family:Bitstream Vera Sans" />
    <path
       sodipodi:nodetypes="cccccccccccccc"
       id="path1592"
       d="M 11.468750,1.9687500 C 6.6822733,1.9687500 2.8803145,6.1016460 2.5517767,9.5170049 L 5.6250000,9.6053932 C 6.1918866,7.1827528 8.4689877,5.2187500 11.468750,5.2187500 C 14.469810,5.2187501 16.690010,7.1809274 17.343750,9.6053932 L 20.297335,9.6053932 C 19.792020,5.7480928 16.255228,1.9687500 11.468750,1.9687500 z M 2.5000000,13.576745 C 3.2478908,17.161897 6.8759635,20.562501 11.468750,20.562500 C 16.061537,20.562500 19.424444,17.073509 20.172335,13.576745 L 16.953585,13.576745 C 16.356954,15.638114 14.274807,17.343750 11.468750,17.343750 C 8.6612915,17.343750 6.5792107,15.728476 5.7187500,13.576745 L 2.5000000,13.576745 z "
       style="opacity:0.82285714;color:#000000;fill:none;fill-opacity:1.0000000;fill-rule:evenodd;stroke:#ffffff;stroke-width:0.79999989;stroke-linecap:butt;stroke-linejoin:miter;marker:none;marker-start:none;marker-mid:none;marker-end:none;stroke-miterlimit:4.0000000;stroke-dashoffset:0.0000000;stroke-opacity:1.0000000;visibility:visible;display:inline;overflow:visible;font-family:Bitstream Vera Sans" />
  </g>
</svg>
