<svg viewBox="0 0 24 24" xmlns="http://www.w3.org/2000/svg"><path d="m11.5 4c-.65424 0-1.202203.41808-1.408203 1h-4.091797-1v1 11.091797c-.58192.206-1 .753963-1 1.408203 0 .831.669 1.5 1.5 1.5s1.5-.669 1.5-1.5c0-.65424-.41808-1.202203-1-1.408203v-11.091797h4.091797c.15034.4247.483503.7578631.908203.9082031v6.0917969 1h1 .091797c.206.58192.753963 1 1.408203 1 .831 0 1.5-.669 1.5-1.5s-.669-1.5-1.5-1.5c-.65424 0-1.202203.41808-1.408203 1h-.091797v-6.0917969c.58192-.206 1-.7539631 1-1.4082031 0-.831-.669-1.5-1.5-1.5zm0 1c.277 0 .5.223.5.5s-.223.5-.5.5-.5-.223-.5-.5.223-.5.5-.5zm2 8c.277 0 .5.223.5.5s-.223.5-.5.5-.5-.223-.5-.5.223-.5.5-.5zm3.5 1v4.292969l-2.292969-2.292969-.707031.707031 3.292969 3.292969.207031.207031.207031-.207031 3.292969-3.292969-.707031-.707031-2.292969 2.292969v-4.292969zm-11.5 4c.277 0 .5.223.5.5s-.223.5-.5.5-.5-.223-.5-.5.223-.5.5-.5z" fill="#4d4d4d"/></svg>