<svg viewBox="0 0 64 64" xmlns="http://www.w3.org/2000/svg" xmlns:xlink="http://www.w3.org/1999/xlink"><linearGradient id="a" gradientUnits="userSpaceOnUse" x1="56" x2="6" xlink:href="#b" y1="66" y2="1"/><linearGradient id="b"><stop offset="0" stop-color="#8e03a3"/><stop offset="1" stop-color="#c254d2"/></linearGradient><linearGradient id="c" gradientTransform="matrix(3.9998072 0 0 3.9988898 -436.97803 -3904.3837)" gradientUnits="userSpaceOnUse" x1="122.75008" x2="111.74973" xlink:href="#b" y1="991.62115" y2="977.11713"/><g transform="translate(.001639)"><path d="m9.62498.000101c-.12518 0-.25035.0056-.37499.01758-1.83351.349901-2.28285 1.133123-2.24997 2.999025v57.984264c.0002 2.09375.90573 2.99883 2.99996 2.99903h43.9984c2.09422-.0002 2.99878-.90528 2.99898-2.99903v-35.909069c.024-1.05595-.39002-2.115124-1.12498-2.874025l-21.07975-21.075198c-.75909-.7346-1.81877-1.14945-2.87496-1.125h-21.91769c-.1246-.012-.24981-.01758-.375-.01758zm33.00444.0068c-.10498 0-.20974.0084-.31347.02441-1.33122.4264-1.77919 2.452275-.75292 3.405273l12.04766 12.110393c1.11295 1.060849 3.329.153103 3.38764-1.387697v-12.110351c-.00012-1.05685-.95647-2.017428-2.00778-2.017577h-12.04669c-.10378-.016-.20946-.02441-.31444-.02441z" fill="url(#c)"/><path d="m9.99901 3.000101v57.999899h43.99937v-35.999899l-21.99965-22z" fill="#fff"/><path d="m32 26a16 6 0 0 0 -16 6v18a16 6 0 0 0 16 6 16 6 0 0 0 16-6v-18a16 6 0 0 0 -16-6zm0 1.091797a15 4.9090909 0 0 1 15 4.908203 15 4.9090909 0 0 1 -15 4.9082 15 4.9090909 0 0 1 -15-4.9082 15 4.9090909 0 0 1 15-4.908203zm-15 6.974609a16 6 0 0 0 15 3.933594 16 6 0 0 0 15-3.925781v3.925781a15 4.9090909 0 0 1 -15 4.9082 15 4.9090909 0 0 1 -15-4.9082zm0 6.000004a16 6 0 0 0 15 3.93359 16 6 0 0 0 15-3.92578v3.92578a15 4.9090909 0 0 1 -15 4.9082 15 4.9090909 0 0 1 -15-4.9082zm0 6a16 6 0 0 0 15 3.93359 16 6 0 0 0 15-3.92578v3.92578a15 4.9090909 0 0 1 -15 4.9082 15 4.9090909 0 0 1 -15-4.9082z" fill="url(#a)"/></g></svg>