<svg viewBox="0 0 64 64" xmlns="http://www.w3.org/2000/svg" xmlns:xlink="http://www.w3.org/1999/xlink"><linearGradient id="a" gradientUnits="userSpaceOnUse" x1="54" x2="10" y1="61" y2="3.499023"><stop offset="0" stop-color="#18a303"/><stop offset="1" stop-color="#106802"/></linearGradient><linearGradient id="b" gradientUnits="userSpaceOnUse" x1="54.002015" x2="9.660675" y1="60.88762" y2="3.856667"><stop offset="0" stop-color="#6e6e6e"/><stop offset="1" stop-color="#b0b0b0"/></linearGradient><linearGradient id="c" gradientTransform="matrix(.0702465 0 0 .499992 33.53912 642.80772)" gradientUnits="userSpaceOnUse" x1="-17" x2="144" y1="-1194.6378" y2="-1194.6378"><stop offset="0" stop-color="#fff" stop-opacity="0"/><stop offset=".49305555" stop-color="#fff"/><stop offset="1" stop-color="#fff" stop-opacity="0"/></linearGradient><linearGradient id="d" gradientUnits="userSpaceOnUse" x1="54.00201" x2="9.78973" xlink:href="#f" y1="60.88762" y2="4.499023"/><linearGradient id="e" gradientTransform="matrix(3.9998072 0 0 3.9988898 -436.97803 -3904.3837)" gradientUnits="userSpaceOnUse" x1="122.75008" x2="111.74973" xlink:href="#f" y1="991.62115" y2="977.11713"/><linearGradient id="f"><stop offset="0" stop-color="#a33e03"/><stop offset="1" stop-color="#d36118"/></linearGradient><g transform="translate(.001394)"><path d="m7.62498-.000485c-.12518 0-.25035.0056-.37499.01758-1.83351.3499-2.28285 1.133123-2.24997 2.999024v58.984361c.0002 2.09375.90573 1.99932 2.99996 1.99952h47.99889c2.09422-.0002 2.99878-.90528 2.99898-2.99903v-35.909656c.024-1.05595-.39002-2.115123-1.12498-2.874024l-20.07993-21.075197c-.75909-.7346-1.81877-1.14945-2.87496-1.125h-26.918c-.1246-.012-.24981-.01758-.375-.01758zm38.00475.0068c-.10498 0-.20974.0084-.31347.02441-1.33122.4264-1.77919 2.452274-.75292 3.405273l11.04784 12.110392c1.11295 1.06085 3.329.153104 3.38764-1.387696v-12.110351c-.00012-1.05685-.95647-2.017428-2.00778-2.017578h-11.04687c-.10378-.016-.20946-.02441-.31444-.02441z" fill="url(#e)"/><path d="m7.99901 2.999515v58.000485h47.99986v-36.000485l-20.99983-22z" fill="#fff"/><path d="m31 49.99805v1.04004l-6 3.95996h2.93945l4.42774-3.5h.25781l4.375 3.5h3l-6-4v-1z" fill="#646464"/><path d="m16 27.999025v22.000005h32v-22.000005zm1.5 1h29c .277 0 .5.223.5.5v19.000005c0 .277-.223.5-.5.5h-29c-.277 0-.5-.223-.5-.5v-19.000005c0-.277.223-.5.5-.5zm1 1.499024v2h27v-2zm6 3.5v2h16v-2zm-2.5 4.000001v2h8.5v-2zm-2.5.002c-.55228 0-1 .44771-1 1 0 .55228.44772 1 1 1s1-.44772 1-1c0-.55229-.44772-1-1-1zm2.5 3.49805v2h8.5v-2zm-2.5.002c-.55228 0-1 .44771-1 1 0 .55228.44772 1 1 1s1-.44772 1-1c0-.55229-.44772-1-1-1zm2.5 3.49804v2h8.5v-2zm-2.5.002c-.55228 0-1 .44772-1 1 0 .55229.44772 1 1 1s1-.44771 1-1c0-.55228-.44772-1-1-1z" fill="url(#d)"/><path d="m33.34478 45.49832h11.30969v.5h-11.30969z" fill="url(#c)"/><path d="m32.5 37.99805v9h13v-9zm1 1h11v7h-11zm .5 1v .5h10v-.5zm0 1.5v.5h10v-.5zm0 1.5v.5h10v-.5zm0 1.5v.5h10v-.5z" fill="url(#b)"/><path d="m43.23535 39.49121c-.19478.006-.37971.0869-.51563.22657l-3.21972 3.21972-1.46972-1.46972c-.2929-.29278-.76765-.29278-1.06055 0l-2.75 2.75c-.73636.70688.35367 1.7969 1.06055 1.06054l2.21972-2.21972 1.46972 1.46972c.2929.29278.76765.29278 1.06055 0l3.75-3.75c.48968-.47691.13834-1.30679-.54492-1.28711z" fill="url(#a)"/></g></svg>