<?xml version="1.0" encoding="UTF-8"?>
<svg xmlns="http://www.w3.org/2000/svg" xmlns:xlink="http://www.w3.org/1999/xlink" width="64px" height="64px" viewBox="0 0 64 64" version="1.1">
<g id="surface1">
<path style=" stroke:none;fill-rule:nonzero;fill:rgb(88.235295%,11.764706%,9.803922%);fill-opacity:1;" d="M 53.640625 28.480469 C 52.921875 27.761719 51.761719 27.761719 51.039062 28.480469 L 31.941406 47.578125 L 23.921875 39.601562 L 19.558594 43.960938 L 31.941406 56.339844 L 56.699219 31.578125 L 53.640625 28.5 Z M 53.640625 28.480469 "/>
<path style=" stroke:none;fill-rule:nonzero;fill:rgb(88.235295%,11.764706%,9.803922%);fill-opacity:1;" d="M 40.21875 51.921875 L 34.921875 56.398438 L 38.199219 56.398438 C 44.261719 56.398438 49.199219 51.460938 49.199219 45.398438 L 49.199219 44.398438 L 44.160156 48.71875 C 43.320312 50.238281 41.898438 51.398438 40.21875 51.921875 Z M 40.21875 51.921875 "/>
<path style=" stroke:none;fill-rule:nonzero;fill:rgb(88.235295%,11.764706%,9.803922%);fill-opacity:1;" d="M 15.660156 52.21875 L 15.660156 10.980469 L 45.019531 10.980469 L 45.019531 28.878906 L 49.199219 25.300781 L 49.199219 6.800781 L 11.5 6.800781 L 11.5 56.398438 L 26.339844 56.398438 L 22.820312 52.21875 Z M 15.660156 52.21875 "/>
<path style=" stroke:none;fill-rule:nonzero;fill:rgb(88.235295%,11.764706%,9.803922%);fill-opacity:1;" d="M 23.339844 14.558594 L 36.480469 14.558594 C 37.792969 14.558594 38.859375 15.625 38.859375 16.941406 L 38.859375 17.261719 C 38.859375 18.574219 37.792969 19.640625 36.480469 19.640625 L 23.339844 19.640625 C 22.027344 19.640625 20.960938 18.574219 20.960938 17.261719 L 20.960938 16.941406 C 20.960938 15.625 22.027344 14.558594 23.339844 14.558594 Z M 23.339844 14.558594 "/>
<path style=" stroke:none;fill-rule:nonzero;fill:rgb(88.235295%,11.764706%,9.803922%);fill-opacity:1;" d="M 23.519531 26.578125 L 36.859375 26.578125 C 38.121094 26.578125 39.140625 27.601562 39.140625 28.859375 L 39.140625 29.140625 C 39.140625 30.398438 38.121094 31.421875 36.859375 31.421875 L 23.519531 31.421875 C 22.261719 31.421875 21.238281 30.398438 21.238281 29.140625 L 21.238281 28.859375 C 21.238281 27.601562 22.261719 26.578125 23.519531 26.578125 Z M 23.519531 26.578125 "/>
</g>
</svg>
