<svg height="96" viewBox="0 0 96 96" width="96" xmlns="http://www.w3.org/2000/svg"><path d="m14 43h55v3h-55z" fill="#232629"/><g fill="#3daee9" transform="matrix(-3.7795276 0 0 3.7795276 74.650002 -11.650003)"><path d="m4.4582299 20.994688-.185209.185208.423334.423334h-1.3493752v.264583h1.3493752l-.423334.423333.185209.185209.7408331-.740834z"/><path d="m2.2357297 20.994689.1852083.185208-.4233333.423334 1.349375-.000001v.264583l-1.349375.000001.4233333.423333-.1852083.185209-.7408333-.740834z"/><g stroke-linecap="square" stroke-opacity=".566502" stroke-width=".264583"><path d="m5.199063 19.486563h.2645833v2.910417h-.2645833z"/><path d="m1.230313 15.25323h.264584v7.14375h-.264584z"/></g></g><g fill="#232629" stroke-linecap="square" stroke-opacity=".566502"><path d="m24.336001 92.728q-1.344 0-2.64-.24-1.344-.24-2.352-.624l.72-2.688q.576.192 1.584.384 1.008.24 2.496.24 2.928 0 5.232-1.008 2.304-1.008 4.176-2.688 1.92-1.632 3.6-3.648l-6-21.888q-.384-1.44-1.152-1.968-.768-.576-2.16-.576h-.48l.576-2.544h9.408l3.168 12.432q.336 1.248.672 3.024.336 1.728.576 3.312.288 1.584.336 2.4h.144q1.92-2.592 3.456-5.136 1.584-2.592 2.544-4.896.96-2.352.96-4.176 0-1.632-.816-2.448-.768-.864-2.16-.864 0-1.872 1.104-2.976 1.104-1.152 2.736-1.152 1.968 0 2.928 1.104 1.008 1.056 1.008 2.976 0 3.744-2.448 8.4-2.4 4.656-6.624 10.512-2.592 3.648-4.8 6.384-2.16 2.784-4.416 4.608-2.256 1.872-4.992 2.784-2.688.96-6.384.96z" stroke-width=".999999"/><path d="m28.107762 34 .48-2.544h.624q.912 0 1.584-.192.72-.24 1.488-.912.816-.672 2.016-1.968l6.048-6.672-3.312-7.968q-.768-1.824-1.536-2.352-.72-.576-2.112-.576h-.576l.48-2.544h9.024l3.36 9.12 6.672-9.12h5.856l-.48 2.544h-.864q-.912 0-1.632.288-.72.288-1.488 1.056-.72.72-1.872 2.112l-4.944 5.712 3.504 8.064q.864 2.016 1.632 2.736.768.672 2.16.672h.624l-.48 2.544h-9.312l-3.6-9.696-7.488 9.696z" stroke-width=".999997"/></g></svg>