<svg height="96" viewBox="0 0 96 96" width="96" xmlns="http://www.w3.org/2000/svg"><g fill="#3daee9"><path d="m4.4582299 19.67177-.185209.185208.423334.423334h-2.1431252v.264583h2.1431252l-.423334.423333.185209.185209.7408331-.740834z" transform="matrix(0 -3.7795276 -3.7795276 0 154.65 85.650002)"/><path d="m80.3 54.199999-.699999-.7-1.600003 1.6.000002-8.099999h-.999999l-.000001 8.099999-1.599999-1.6-.700003.7 2.800003 2.799999z"/><path d="m80 66v-1h-19v1z" stroke-linecap="square" stroke-opacity=".566502" stroke-width=".999999"/><path d="m80 58.000001v-1.000003l-15 .000002v1.000003z" stroke-linecap="square" stroke-opacity=".566502" stroke-width=".999999"/></g><g fill="#232629"><path d="m32 74h14v2h-14z"/><path d="m32 78h14v2h-14z"/><g stroke-linecap="square" stroke-opacity=".566502"><path d="m23.7821 68.918294q-.583658 0-.957199-.303502-.350194-.326848-.350194-.980545 0-.747081.373541-1.190661.396887-.44358 1.027237-.44358.560311 0 .933852.326848.373541.303502.373541.957199 0 .910505-.44358 1.284046-.44358.350195-.957198.350195zm-1.610895 15.08171q-.933852 0-1.447471-.653697-.490272-.653696-.490272-1.564202 0-.490272.09339-1.167315.09338-.677043.210117-1.354085.116731-.700389.210117-1.143969l.910505-4.295719q.07004-.350195.07004-.607004 0-.63035-.396887-.793774-.373541-.186771-1.027237-.186771h-.303502l.210117-.980544h4.178987l-1.587548 7.494162q-.04669.256809-.140078.747082-.09339.490272-.163424 1.003891-.04669.513618-.04669.840466 0 1.190662.770427 1.190662.396888 0 .817121-.163424.420233-.186771.863813-.44358l.420233.677043q-.513618.443579-1.400778.933852-.863813.466926-1.750972.466926z"/><path d="m59.100839 84.252101q-2.067228 0-3.378153-1.159665-1.310925-1.159664-1.941178-3.252103-.605042-2.092438-.605042-4.890759 0-2.798321.605042-4.865549.630253-2.067229 1.941178-3.201683 1.310925-1.134455 3.403363-1.134455 1.966388 0 3.277313 1.134455 1.310926 1.134454 1.941178 3.226893.655463 2.067228.655463 4.865549 0 2.798321-.655463 4.89076-.655462 2.067228-1.966388 3.226892-1.285715 1.159665-3.277313 1.159665zm0-1.361345q1.840338 0 2.54622-2.092439.731093-2.092438.731093-5.823533 0-3.756305-.731093-5.798323-.705882-2.067228-2.52101-2.067228-1.840337 0-2.59664 2.067228-.731093 2.042018-.731093 5.798323 0 3.731095.731093 5.823533.731093 2.092439 2.57143 2.092439z"/><path d="m20.378071 58.0005v-2.644256l17.187665-26.277295-15.369738-27.6820565v-2.39635708h38.754878l.413165 14.46077558h-4.296916l-.413165-3.5532192q-.330532-2.7268891-1.983192-4.7100811-1.570027-1.9831921-5.288512-1.9831921h-17.187665l12.229684 21.9803784v1.239495l-15.70027 23.963571h23.880938q3.883751 0 5.619044-2.231091 1.735293-2.231091 2.148458-5.619044l.330532-2.47899h4.296916l-.413165 17.931362z"/></g></g></svg>