<svg height="96" viewBox="0 0 96 96" width="96" xmlns="http://www.w3.org/2000/svg"><path d="m45.080001 69v-4.436465l10.149175-11.729286q3.220995-3.767957 5.104974-6.502764 1.883978-2.795581 2.674033-5.287294.850829-2.491714.850829-5.287295 0-3.464089-1.519337-5.591162-1.458564-2.127072-4.679559-2.127072-2.734808 0-4.193372 1.276243-1.458564 1.276244-2.005525 3.342543-.486188 2.005525-.486188 4.436465-2.187846 0-3.707184-.790055-1.519337-.850829-1.519337-3.160222 0-3.524863 2.977901-5.834256 3.038675-2.309393 8.933705-2.309393 5.773482 0 9.055251 2.795581 3.281769 2.734807 3.281769 7.353593 0 4.254145-2.674034 8.32597-2.674034 4.011051-7.47514 9.298345l-10.270722 11.364644h14.038678q2.734808 0 3.707184-1.39779.972376-1.397791 1.39779-3.160222l.243094-1.093923h2.552487l-.303867 10.513815z" fill="#232629" stroke-linecap="square" stroke-opacity=".566502"/><path d="m38 19-19.035156 40.457031-7.439453-13-6.5195316 3.160157.9589844 2.039062 3.8007812-1.878906 10.039063 18.480468 21.294921-47.257812h33.900391v-2h-33-2z" fill="#232629"/><g fill="#3daee9" transform="matrix(0 3.7795276 3.7795276 0 19 10)"><path d="m2.1695837 16.060208-.185209.185208.423334.423334h-1.3493753v.264583h1.3493753l-.423334.423333.185209.185209.740833-.740834z"/><path d="m4.7095834 16.060208.1852083.185208-.4233333.423334h1.349375v.264583h-1.349375l.4233333.423333-.1852083.185209-.7408333-.740834z"/><g stroke-linecap="square" stroke-opacity=".566502" stroke-width=".264583"><path d="m3.7041667 11.377083h.2645833v6.085417h-.2645833z"/><path d="m2.9104167 15.08125h.264584v2.38125h-.264584z"/></g></g></svg>