<svg height="256" viewBox="0 0 47.360415 67.733335" width="179" xmlns="http://www.w3.org/2000/svg" xmlns:xlink="http://www.w3.org/1999/xlink"><linearGradient id="a"><stop offset="0" stop-opacity="0"/><stop offset=".5"/><stop offset="1" stop-opacity="0"/></linearGradient><linearGradient id="b" gradientTransform="matrix(.04576928 0 0 .00823529 -.542324 25.980548)" gradientUnits="userSpaceOnUse" x1="302.85715" x2="302.85715" xlink:href="#a" y1="366.64789" y2="609.50507"/><linearGradient id="c"><stop offset="0"/><stop offset="1" stop-opacity="0"/></linearGradient><linearGradient id="d" xlink:href="#c"/><linearGradient id="e" gradientTransform="matrix(.15732939 0 0 .1586627 -8.008007 59.250311)" gradientUnits="userSpaceOnUse" x1="24.833029" x2="24.833029" y1="2.604455" y2="51.798176"><stop offset="0" stop-color="#fafafa"/><stop offset="1" stop-color="#e2e1de"/></linearGradient><linearGradient id="f" gradientTransform="matrix(-.26458333 0 0 .26458333 3.704167 3.439583)" gradientUnits="userSpaceOnUse" x1="3" x2="3" xlink:href="#g" y1="2" y2="5.000003"/><linearGradient id="g" gradientTransform="matrix(-.26458333 0 0 .26458333 3.704167 3.439583)" gradientUnits="userSpaceOnUse" x1="3" x2="3" y1="2" y2="5.000003"><stop offset="0" stop-color="#fff"/><stop offset="0" stop-color="#fff" stop-opacity=".235"/><stop offset="1" stop-color="#fff" stop-opacity=".157"/><stop offset="1" stop-color="#fff" stop-opacity=".392"/></linearGradient><linearGradient id="h" gradientTransform="matrix(-.26458333 0 0 .26458333 3.704167 1.85208)" gradientUnits="userSpaceOnUse" x1="3" x2="3" xlink:href="#g" y1="2" y2="5.000003"/><linearGradient id="i" gradientTransform="matrix(-.26458333 0 0 .26458333 3.704167 .26458)" gradientUnits="userSpaceOnUse" x1="3" x2="3" xlink:href="#g" y1="2" y2="5.000003"/><linearGradient id="j" gradientTransform="matrix(-.26458333 0 0 .26458333 3.704167 5.02708)" gradientUnits="userSpaceOnUse" x1="3" x2="3" xlink:href="#g" y1="2" y2="5.000003"/><linearGradient id="k" gradientTransform="matrix(-.26458333 0 0 .26458333 3.704167 6.61458)" gradientUnits="userSpaceOnUse" x1="3" x2="3.000001" xlink:href="#g" y1="2" y2="4.000013"/><linearGradient id="l" gradientTransform="matrix(-.26458333 0 0 .26458333 5.55625 3.439583)" gradientUnits="userSpaceOnUse" x1="3" x2="3" xlink:href="#g" y1="2" y2="5.000003"/><linearGradient id="m" gradientTransform="matrix(-.26458333 0 0 .26458333 5.55625 1.85208)" gradientUnits="userSpaceOnUse" x1="3" x2="3" xlink:href="#g" y1="2" y2="5.000003"/><linearGradient id="n" gradientTransform="matrix(-.26458333 0 0 .26458333 5.55625 .26458)" gradientUnits="userSpaceOnUse" x1="3" x2="3" xlink:href="#g" y1="2" y2="5.000003"/><linearGradient id="o" gradientTransform="matrix(-.26458333 0 0 .26458333 5.55625 5.02708)" gradientUnits="userSpaceOnUse" x1="3" x2="3" xlink:href="#g" y1="2" y2="5.000003"/><linearGradient id="p" gradientTransform="matrix(-.26458333 0 0 .26458333 5.55625 6.61458)" gradientUnits="userSpaceOnUse" x1="3" x2="3.000001" xlink:href="#g" y1="2" y2="4.000013"/><linearGradient id="q" gradientTransform="matrix(-.26458333 0 0 .26458333 7.408334 3.439583)" gradientUnits="userSpaceOnUse" x1="3" x2="3" xlink:href="#g" y1="2" y2="5.000003"/><linearGradient id="r" gradientTransform="matrix(-.26458333 0 0 .26458333 7.408334 1.85208)" gradientUnits="userSpaceOnUse" x1="3" x2="3" xlink:href="#g" y1="2" y2="5.000003"/><linearGradient id="s" gradientTransform="matrix(-.26458333 0 0 .26458333 7.408334 .26458)" gradientUnits="userSpaceOnUse" x1="3" x2="3" xlink:href="#g" y1="2" y2="5.000003"/><linearGradient id="t" gradientTransform="matrix(-.26458333 0 0 .26458333 7.408334 5.02708)" gradientUnits="userSpaceOnUse" x1="3" x2="3" xlink:href="#g" y1="2" y2="5.000003"/><linearGradient id="u" gradientTransform="matrix(-.26458333 0 0 .26458333 7.408334 6.61458)" gradientUnits="userSpaceOnUse" x1="3" x2="3.000001" xlink:href="#g" y1="2" y2="4.000013"/><linearGradient id="v" gradientTransform="matrix(-.26458333 0 0 .26458333 1.852084 3.439583)" gradientUnits="userSpaceOnUse" x1="3" x2="3" xlink:href="#g" y1="2" y2="5.000003"/><linearGradient id="w" gradientTransform="matrix(-.26458333 0 0 .26458333 1.852084 1.85208)" gradientUnits="userSpaceOnUse" x1="3" x2="3" xlink:href="#g" y1="2" y2="5.000003"/><linearGradient id="x" gradientTransform="matrix(-.26458333 0 0 .26458333 1.852084 .26458)" gradientUnits="userSpaceOnUse" x1="3" x2="3" xlink:href="#g" y1="2" y2="5.000003"/><linearGradient id="y" gradientTransform="matrix(-.26458333 0 0 .26458333 1.852084 5.02708)" gradientUnits="userSpaceOnUse" x1="3" x2="3" xlink:href="#g" y1="2" y2="5.000003"/><linearGradient id="z" gradientTransform="matrix(-.26458333 0 0 .26458333 1.852084 6.61458)" gradientUnits="userSpaceOnUse" x1="3" x2="3.000001" xlink:href="#g" y1="2" y2="4.000013"/><linearGradient id="A"><stop offset="0" stop-color="#cd9ef7"/><stop offset="1" stop-color="#a56de2"/></linearGradient><linearGradient id="B" gradientTransform="matrix(.26458333 0 0 .26458333 0 59.266666)" gradientUnits="userSpaceOnUse" x1="15.5" x2="15.5" xlink:href="#A" y1="1.5" y2="7.5"/><linearGradient id="C" gradientTransform="matrix(-.26458332 0 0 .26458332 3.704167 .26458)" gradientUnits="userSpaceOnUse" x1="3" x2="3" xlink:href="#g" y1="2" y2="5.000003"/><linearGradient id="D" gradientTransform="matrix(-.26458332 0 0 .26458332 5.55625 .26458)" gradientUnits="userSpaceOnUse" x1="3" x2="3" xlink:href="#g" y1="2" y2="5.000003"/><linearGradient id="E" gradientTransform="matrix(-.26458332 0 0 .26458332 7.408334 .26458)" gradientUnits="userSpaceOnUse" x1="3" x2="3" xlink:href="#g" y1="2" y2="5.000003"/><linearGradient id="F" gradientTransform="matrix(.26458332 0 0 .26458332 1.058332 .26458)" gradientUnits="userSpaceOnUse" x1="3" x2="3" xlink:href="#g" y1="2" y2="5.000003"/><linearGradient id="G" gradientTransform="matrix(.13229166 0 0 .06614583 -1.322965 1.058285)" gradientUnits="userSpaceOnUse" x1="41.000362" x2="41.000362" xlink:href="#d" y1="16.000725" y2="20.000727"/><radialGradient id="H" cx="605.71429" cy="486.64789" gradientTransform="matrix(-.01566318 0 0 .00823529 14.439577 25.98059)" gradientUnits="userSpaceOnUse" r="117.14286" xlink:href="#d"/><radialGradient id="I" cx="605.71429" cy="486.64789" gradientTransform="matrix(.01566318 0 0 .00823529 21.560423 25.98059)" gradientUnits="userSpaceOnUse" r="117.14286" xlink:href="#d"/><linearGradient id="J" gradientTransform="matrix(.04576928 0 0 .00823529 -.542324 25.980548)" gradientUnits="userSpaceOnUse" x1="302.85715" x2="302.85715" xlink:href="#b" y1="366.64789" y2="609.50507"/><linearGradient id="K" gradientTransform="matrix(.15732939 0 0 .1586627 -8.008007 59.250311)" gradientUnits="userSpaceOnUse" x1="24.833029" x2="24.833029" xlink:href="#e" y1="2.604455" y2="51.798176"/><linearGradient id="L" gradientTransform="matrix(.26458333 0 0 .26458333 0 59.266666)" gradientUnits="userSpaceOnUse" x1="15.5" x2="15.5" xlink:href="#B" y1="1.5" y2="7.5"/><radialGradient id="M" cx="4.992979" cy="43.5" gradientTransform="matrix(2.003784 0 0 1.4 27.98813 -17.4)" gradientUnits="userSpaceOnUse" r="2.5" xlink:href="#N"/><linearGradient id="N"><stop offset="0" stop-color="#181818"/><stop offset="1" stop-color="#181818" stop-opacity="0"/></linearGradient><radialGradient id="O" cx="4.992979" cy="43.5" gradientTransform="matrix(2.003784 0 0 1.4 -20.01187 -104.4)" gradientUnits="userSpaceOnUse" r="2.5" xlink:href="#N"/><linearGradient id="P" gradientUnits="userSpaceOnUse" x1="25.058096" x2="25.058096" y1="47.027729" y2="39.999443"><stop offset="0" stop-color="#181818" stop-opacity="0"/><stop offset=".5" stop-color="#181818"/><stop offset="1" stop-color="#181818" stop-opacity="0"/></linearGradient><linearGradient id="Q" gradientTransform="matrix(.26458333 0 0 .26458333 0 -288.53331)" gradientUnits="userSpaceOnUse" x1="14.26548" x2="14.26548" y1=".638623" y2="-32.688385"><stop offset="0" stop-color="#fafafa"/><stop offset="1" stop-color="#d4d4d4"/></linearGradient><linearGradient id="R" gradientTransform="matrix(.17877252 0 0 .17877252 -.057206 288.47611)" gradientUnits="userSpaceOnUse" x1="23.999996" x2="23.999996" y1="6.239989" y2="41.759991"><stop offset="0" stop-color="#fff"/><stop offset=".04026115" stop-color="#fff" stop-opacity=".235294"/><stop offset=".95833331" stop-color="#fff" stop-opacity=".156863"/><stop offset="1" stop-color="#fff" stop-opacity=".392157"/></linearGradient><linearGradient id="S" gradientTransform="matrix(.2788807 0 0 .32281423 -.232314 287.36575)" gradientUnits="userSpaceOnUse" x1="16" x2="16" y1="18.5" y2="25"><stop offset="0" stop-color="#fafafa"/><stop offset="1" stop-color="#e1e1e1"/></linearGradient><linearGradient id="T" gradientTransform="matrix(.22643305 0 0 .25482204 5.642186 288.59646)" gradientUnits="userSpaceOnUse" x1="16.5" x2="16.5" y1="20" y2="23"><stop offset="0" stop-color="#fff"/><stop offset="0" stop-color="#fff" stop-opacity=".235294"/><stop offset="1" stop-color="#fff" stop-opacity=".156863"/><stop offset="1" stop-color="#fff" stop-opacity=".392157"/></linearGradient><linearGradient id="U" gradientUnits="userSpaceOnUse" x1="25.058096" x2="25.058096" xlink:href="#P" y1="47.027729" y2="39.999443"/><linearGradient id="V" gradientTransform="matrix(.26458333 0 0 .26458333 0 -288.53331)" gradientUnits="userSpaceOnUse" x1="14.26548" x2="14.26548" xlink:href="#Q" y1=".638623" y2="-32.688385"/><linearGradient id="W" gradientTransform="matrix(.17877252 0 0 .17877252 -.057206 288.47611)" gradientUnits="userSpaceOnUse" x1="23.999996" x2="23.999996" xlink:href="#R" y1="6.239989" y2="41.759991"/><linearGradient id="X" gradientTransform="matrix(.2788807 0 0 .32281423 -.232314 287.36575)" gradientUnits="userSpaceOnUse" x1="16" x2="16" xlink:href="#S" y1="18.5" y2="25"/><linearGradient id="Y" gradientTransform="matrix(.22643305 0 0 .25482204 5.642186 288.59646)" gradientUnits="userSpaceOnUse" x1="16.5" x2="16.5" xlink:href="#T" y1="20" y2="23"/><radialGradient id="Z" cx="23.334999" cy="41.636002" gradientTransform="matrix(.15200841 0 0 .05845704 12.327996 267.31373)" gradientUnits="userSpaceOnUse" r="22.627001" xlink:href="#c"/><linearGradient id="aa" gradientTransform="matrix(.12113419 0 0 .11437937 3.28295 270.78295)" gradientUnits="userSpaceOnUse" spreadMethod="reflect" x1="103.95" x2="89.424004" xlink:href="#ab" y1="-7.666" y2="-7.666"/><linearGradient id="ab"><stop offset="0" stop-color="#868688"/><stop offset="1" stop-color="#d9d9da"/></linearGradient><linearGradient id="ac" gradientUnits="userSpaceOnUse" x1="14.51530654713" x2="14.51530654713" xlink:href="#ad" y1="269.21635173545" y2="270.5416499"/><linearGradient id="ad"><stop offset="0" stop-color="#a0a0a0"/><stop offset="1" stop-color="#4a4a4a"/></linearGradient><linearGradient id="ae" gradientTransform="matrix(.12113419 0 0 .11437937 3.28295 269.19545)" gradientUnits="userSpaceOnUse" spreadMethod="reflect" x1="103.95" x2="89.424004" xlink:href="#ab" y1="-7.666" y2="-7.666"/><linearGradient id="af" gradientUnits="userSpaceOnUse" x1="14.51530654713" x2="14.51530654713" xlink:href="#ad" y1="267.62885175545" y2="268.95414992"/><linearGradient id="ag" gradientTransform="matrix(.12113419 0 0 .11437937 3.28295 267.60795)" gradientUnits="userSpaceOnUse" spreadMethod="reflect" x1="103.95" x2="89.424004" xlink:href="#ab" y1="-7.666" y2="-7.666"/><linearGradient id="ah" gradientUnits="userSpaceOnUse" x1="14.51530654713" x2="14.51530654713" xlink:href="#ad" y1="266.04135204003" y2="267.36664994"/><linearGradient id="ai"><stop offset="0" stop-color="#a5a6a8"/><stop offset="1" stop-color="#e8e8e8"/></linearGradient><linearGradient id="aj" gradientTransform="matrix(.12121356 0 0 .11612562 3.275542 266.55517)" gradientUnits="userSpaceOnUse" spreadMethod="reflect" x1="102.308" x2="102.308" xlink:href="#ai" y1="-2.393" y2="-24.582001"/><linearGradient id="ak"><stop offset="0" stop-color="#b3b3b3"/><stop offset="1" stop-color="#dadada"/></linearGradient><linearGradient id="al" gradientTransform="matrix(.12121356 0 0 .11612562 3.275542 266.55517)" gradientUnits="userSpaceOnUse" x1="109.956" x2="109.956" xlink:href="#ak" y1="-24.910999" y2="-2.376"/><linearGradient id="am"><stop offset="0" stop-color="#fff"/><stop offset=".081" stop-color="#fff" stop-opacity=".235"/><stop offset=".923" stop-color="#fff" stop-opacity=".157"/><stop offset="1" stop-color="#fff" stop-opacity=".392"/></linearGradient><linearGradient id="an" gradientTransform="matrix(.15875 0 0 .16014171 12.065 263.17829)" gradientUnits="userSpaceOnUse" x1="21.381001" x2="21.381001" xlink:href="#am" y1="5.052" y2="44.137001"/><radialGradient id="ao" cx="23.334999" cy="41.636002" gradientTransform="matrix(.15200841 0 0 .05845704 12.327996 267.31373)" gradientUnits="userSpaceOnUse" r="22.627001" xlink:href="#Z"/><linearGradient id="ap" gradientTransform="matrix(.12121356 0 0 .11612562 3.275542 266.55517)" gradientUnits="userSpaceOnUse" spreadMethod="reflect" x1="102.308" x2="102.308" xlink:href="#aj" y1="-2.393" y2="-24.582001"/><linearGradient id="aq" gradientTransform="matrix(.12121356 0 0 .11612562 3.275542 266.55517)" gradientUnits="userSpaceOnUse" x1="109.956" x2="109.956" xlink:href="#al" y1="-24.910999" y2="-2.376"/><linearGradient id="ar" gradientTransform="matrix(.15875 0 0 .16014171 12.065 263.17829)" gradientUnits="userSpaceOnUse" x1="21.381001" x2="21.381001" xlink:href="#an" y1="5.052" y2="44.137001"/><linearGradient id="as" gradientTransform="matrix(.01210998 0 0 .00218017 -.143404 295.40719)" gradientUnits="userSpaceOnUse" x1="302.85699" x2="302.85699" xlink:href="#a" y1="366.64801" y2="609.505"/><linearGradient id="at" gradientTransform="matrix(.17386864 0 0 .16672152 .060397 288.24497)" gradientUnits="userSpaceOnUse" x1="25.132" x2="25.132" y1=".985" y2="47.013"><stop offset="0" stop-color="#f4f4f4"/><stop offset="1" stop-color="#dbdbdb"/></linearGradient><linearGradient id="au" gradientTransform="matrix(.56757 0 0 .72973 2.378 -2.514)" gradientUnits="userSpaceOnUse" x1="24.000565" x2="24.000565" y1="6.18585" y2="41.815468"><stop offset="0" stop-color="#fff"/><stop offset="0" stop-color="#fff" stop-opacity=".235"/><stop offset=".99999994" stop-color="#fff" stop-opacity=".157"/><stop offset="1" stop-color="#fff" stop-opacity=".392"/></linearGradient><linearGradient id="av" gradientTransform="matrix(.53064 0 0 .5897 39.27 -1.792)" gradientUnits="userSpaceOnUse" x1="-51.785999" x2="-51.785999" y1="50.785999" y2="2.906"><stop offset="0" stop-opacity=".318"/><stop offset="1" stop-opacity=".24"/></linearGradient><linearGradient id="aw" gradientTransform="matrix(.25764 0 0 .256 -18.787 32.336)" gradientUnits="userSpaceOnUse" spreadMethod="reflect" x1="103.95" x2="89.424004" xlink:href="#ab" y1="-7.666" y2="-7.666"/><linearGradient id="ax" gradientTransform="matrix(.56273 0 0 .59218 -44.99 15.484)" gradientUnits="userSpaceOnUse" x1="89.017998" x2="89.017998" xlink:href="#ad" y1="22.537001" y2="27.546"/><linearGradient id="ay" gradientTransform="matrix(.25764 0 0 .256 -18.787 28.336)" gradientUnits="userSpaceOnUse" spreadMethod="reflect" x1="103.95" x2="89.424004" xlink:href="#ab" y1="-7.666" y2="-7.666"/><linearGradient id="az" gradientTransform="matrix(.56273 0 0 .59218 -44.99 11.484)" gradientUnits="userSpaceOnUse" x1="89.017998" x2="89.017998" xlink:href="#ad" y1="22.537001" y2="27.546"/><linearGradient id="aA" gradientTransform="matrix(.25764 0 0 .252 -18.787 24.39)" gradientUnits="userSpaceOnUse" spreadMethod="reflect" x1="103.95" x2="89.424004" xlink:href="#ab" y1="-7.666" y2="-7.666"/><linearGradient id="aB" gradientTransform="matrix(.56273 0 0 .58293 -44.99 7.8)" gradientUnits="userSpaceOnUse" x1="89.017998" x2="89.017998" xlink:href="#ad" y1="22.537001" y2="27.546"/><linearGradient id="aC" gradientTransform="matrix(.25894 0 0 .19506 -18.915 21.137)" gradientUnits="userSpaceOnUse" spreadMethod="reflect" x1="102.308" x2="102.308" xlink:href="#ai" y1="-2.393" y2="-24.582001"/><linearGradient id="aD" gradientTransform="matrix(.25894 0 0 .19506 -18.915 21.137)" gradientUnits="userSpaceOnUse" x1="109.956" x2="109.956" xlink:href="#ak" y1="-24.910999" y2="-2.376"/><linearGradient id="aE" gradientTransform="matrix(.3143 0 0 .3421 .457 15.618)" gradientUnits="userSpaceOnUse" x1="21.381001" x2="21.381001" xlink:href="#am" y1="5.052" y2="44.137001"/><radialGradient id="aF" cx="605.71399" cy="486.64801" gradientTransform="matrix(-.00414337 0 0 .00218017 3.807354 295.40719)" gradientUnits="userSpaceOnUse" r="117.143" xlink:href="#d"/><radialGradient id="aG" cx="605.71399" cy="486.64801" gradientTransform="matrix(.00414337 0 0 .00218017 4.659313 295.40719)" gradientUnits="userSpaceOnUse" r="117.143" xlink:href="#d"/><linearGradient id="aH" gradientTransform="matrix(0 .26458333 -.26458333 0 8.46682 288.53347)" gradientUnits="userSpaceOnUse" x1="1.5" x2="30.5" xlink:href="#A" y1="16.000578" y2="16.000578"/><linearGradient id="aI" gradientUnits="userSpaceOnUse" x1="4.13117575048" x2="4.13117575048" y1="289.07528220693" y2="296.4320382064"><stop offset="0" stop-color="#fff"/><stop offset=".507761" stop-color="#fff" stop-opacity=".235294"/><stop offset=".83456558" stop-color="#fff" stop-opacity=".156863"/><stop offset="1" stop-color="#fff" stop-opacity=".392157"/></linearGradient><linearGradient id="aJ" gradientTransform="matrix(0 .16664641 .16661655 0 .411576 288.46209)" gradientUnits="userSpaceOnUse" x1="3.5" x2="47.5" y1="23" y2="23"><stop offset="0" stop-color="#fff" stop-opacity="0"/><stop offset=".29193082" stop-color="#fff" stop-opacity=".85098"/><stop offset=".45720881" stop-color="#fff" stop-opacity=".126829"/><stop offset=".72528207" stop-color="#fff" stop-opacity=".273171"/><stop offset=".83954281" stop-color="#fff"/><stop offset="1" stop-color="#fff" stop-opacity="0"/></linearGradient><linearGradient id="aK" gradientTransform="matrix(.11781569 .11783681 -.11781569 .11783681 3.949218 286.99649)" gradientUnits="userSpaceOnUse" x1="47.09993" x2="4.286797" y1="27.262068" y2="27.242641"><stop offset="0" stop-color="#fff" stop-opacity="0"/><stop offset=".14318481" stop-color="#fff" stop-opacity=".85098"/><stop offset=".34591126" stop-color="#fff" stop-opacity=".126829"/><stop offset=".43638432" stop-color="#fff"/><stop offset=".58131737" stop-color="#fff" stop-opacity=".204878"/><stop offset=".72528207" stop-color="#fff" stop-opacity=".273171"/><stop offset=".83954281" stop-color="#fff"/><stop offset="1" stop-color="#fff" stop-opacity="0"/></linearGradient><linearGradient id="aL" gradientTransform="matrix(.16661655 0 0 -.16664641 -.004965 296.54445)" gradientUnits="userSpaceOnUse" x1="4.489736" x2="47.500416" y1="23" y2="23"><stop offset="0" stop-color="#fff" stop-opacity="0"/><stop offset=".16829832" stop-color="#fff" stop-opacity=".85098"/><stop offset=".45720881" stop-color="#fff" stop-opacity=".126829"/><stop offset=".60839313" stop-color="#fff" stop-opacity=".273171"/><stop offset=".69343168" stop-color="#fff"/><stop offset="1" stop-color="#fff" stop-opacity="0"/></linearGradient><linearGradient id="aM"><stop offset="0" stop-color="#fff"/><stop offset="1" stop-color="#fff" stop-opacity="0"/></linearGradient><linearGradient id="aN" gradientTransform="matrix(0 .16664641 .16661655 0 -1.761623 288.46209)" gradientUnits="userSpaceOnUse" x1="5.550938" x2="44.628685" xlink:href="#aO" y1="58.276134" y2="22.179625"/><linearGradient id="aO"><stop offset="0" stop-color="#fff" stop-opacity="0"/><stop offset=".14318481" stop-color="#fff" stop-opacity=".85098"/><stop offset=".34591126" stop-color="#fff" stop-opacity=".126829"/><stop offset=".64451498" stop-color="#fff" stop-opacity=".273171"/><stop offset=".72840828" stop-color="#fff"/><stop offset=".80897337" stop-color="#fff" stop-opacity=".229268"/><stop offset="1" stop-color="#fff" stop-opacity="0"/></linearGradient><linearGradient id="aP" gradientTransform="matrix(0 -.16664641 -.16661655 0 7.194172 297.16794)" gradientUnits="userSpaceOnUse" x1="5.550938" x2="44.628685" xlink:href="#aO" y1="58.276134" y2="22.179625"/><linearGradient id="aQ" gradientTransform="matrix(0 .16664641 .16661655 0 .078496 289.35973)" gradientUnits="userSpaceOnUse" x1="25.177414" x2="40.761398" y1="48.221191" y2="17.055471"><stop offset="0" stop-color="#fff" stop-opacity="0"/><stop offset=".44845921" stop-color="#fff" stop-opacity=".273171"/><stop offset=".54972553" stop-color="#fff"/><stop offset=".72087312" stop-color="#fff" stop-opacity=".229268"/><stop offset="1" stop-color="#fff" stop-opacity="0"/></linearGradient><radialGradient id="aR" cx="99.157013" cy="186.17059" gradientTransform="matrix(.04636701 0 0 .01475315 -.364281 293.32734)" gradientUnits="userSpaceOnUse" r="62.769119"><stop offset="0" stop-color="#3d3d3d"/><stop offset=".5" stop-color="#686868" stop-opacity=".498039"/><stop offset="1" stop-color="#686868" stop-opacity="0"/></radialGradient><radialGradient id="aS" cx="22.755268" cy="10.929829" gradientTransform="matrix(.26458333 0 0 .26463074 0 288.5328)" gradientUnits="userSpaceOnUse" r="1.722055" xlink:href="#aM"/><radialGradient id="aT" cx="20.333241" cy="25.393009" gradientTransform="matrix(.26458333 0 0 .26463074 0 288.53211)" gradientUnits="userSpaceOnUse" r="1.722055" xlink:href="#aM"/><radialGradient id="aU" cx="7.460882" cy="11.571873" gradientTransform="matrix(.26458333 0 0 .26463074 0 288.53277)" gradientUnits="userSpaceOnUse" r="1.722055" xlink:href="#aM"/><radialGradient id="aV" cx="12.767352" cy="21.350958" gradientTransform="matrix(.26458333 0 0 .26463074 0 288.5323)" gradientUnits="userSpaceOnUse" r="1.722055" xlink:href="#aM"/><g fill="none" stroke-width=".264583" transform="translate(0 -229.26665)"><path d="m12.832292 250.56561c.529431 0 1.058597 0 1.323048-.48496s.264451-1.45558.57318-1.94052.926258-.48494 1.543355-.48494" stroke="#f58b00" transform="translate(0 4.7625)"/><path d="m12.832292 250.56561c.529431 0 1.058597 0 1.323048-.48496s.264451-1.45558.57318-1.94052.926258-.48494 1.543355-.48494" stroke="#f58b00" transform="matrix(1 0 0 -1 10.054167 504.04167)"/><path d="m12.832292 250.56561c.529431 0 1.058597 0 1.323048-.48496s.264451-1.45558.57318-1.94052.926258-.48494 1.543355-.48494" stroke="#f58b00" transform="matrix(1 0 0 -1 20.108338 502.98333)"/><g stroke="#0d52bf" transform="translate(0 4.7625)"><path d="m10.186458 252.41769c0 1.58724 0 3.17474.74991 3.96862s2.248966.79388 2.998487 1.19055c.74952.39668.74952 1.19057.74952 1.98458"/><path d="m21.828125 252.41769c0 1.05807 0 2.1164-.352734 2.6457s-1.058113.5293-1.763801.5293-1.410978 0-1.763889.66158c-.35291.66157-.352909 2.64545-.352909 3.96863"/><path d="m30.030208 252.41769c0 1.32265 0 2.64557.531302 3.30716s1.585629.66159 2.114663 1.19049c.529035.52891.529035 1.5875.529035 2.6461"/><path d="m18.653125 252.41769c0 1.67543 0 3.35113 2.955113 4.18911 2.955112.83797 8.863208.83797 11.86167 1.19062s3.08666 1.45512 3.174883 2.1609"/></g><path d="m14.155208 270.93855v6.61459" stroke="#3a9104"/><path d="m33.734375 270.93855v6.61459" stroke="#3a9104"/><path d="m14.155208 270.93855 9.525 6.61459" stroke="#3a9104"/><path d="m33.602083 271.07085-8.069792 6.48229" stroke="#3a9104"/></g><g fill="none" stroke="#7239b3" stroke-width=".264583" transform="translate(0 -229.26665)"><path d="m17.859375 244.21564-8.4666668 6.35"/><path d="m18.123958 244.21564 11.377083 6.35"/><path d="m29.501042 243.42189-10.054167 7.14375"/><path d="m29.765625 243.42189 9.789583 7.14375"/></g><g transform="translate(5.291667 -38.89375)"><g transform="matrix(.26458333 0 0 .26458333 -.529167 59.531249)"><path d="m5.0000001 29h26.0000009v2h-26.0000009z" fill="url(#b)" opacity=".15"/><path d="m5.0000001 29.000111v1.99989c-.806615.0038-1.950002-.448074-1.950002-1.000074s.900121-.999816 1.950002-.999816z" fill="url(#H)" opacity=".15"/><path d="m31.000001 29.000111v1.99989c.806614.0038 1.950002-.448074 1.950002-1.000074s-.900122-.999816-1.950002-.999816z" fill="url(#I)" opacity=".15"/></g><rect fill="url(#e)" height="7.672933" rx=".396875" ry=".396891" stroke-width="1.3333" transform="scale(-1 1)" width="7.14375" x="-7.805209" y="59.663525"/><path d="m1.0578166 59.53125c-.29274566 0-.52864993.236008-.52864993.529166v6.879167c0 .293158.23590427.529167.52864993.529167h6.3510334c.2927456 0 .52865-.236009.52865-.529167v-6.879167c0-.293158-.2359044-.529166-.52865-.529166zm.1328084.264583h.9229411v1.322917h-1.3198161v-.926042c0-.219869.17700649-.396875.396875-.396875zm1.1895915 0h1.5864665v1.322917h-1.585433v.256832h-.00103zm1.8531168 0h1.5869833v1.322917h-1.5869833zm1.8536335 0h1.1890748c.2198685 0 .396875.177006.396875.396875v.926042h-1.5859498zm-3.7057168 1.5875h1.5869832l.0005292 1.323433h-1.5869956zm1.8536335 0h1.5864665l-.0005291 1.322917h-1.5875zm1.8531171 0h1.584916v1.322917h-1.5875zm-5.2942506.000516h1.3208496l.000516 1.322917h-1.3198153zm0 1.586983 1.3213664.0088-.0005159 1.305347h-1.31981698v.0088h-.001035zm1.5880168 0h1.5869832v1.322917h-1.5875zm1.8515665 0h1.5875v1.322917h-1.5875zm1.8520833 0h1.5875v1.322917h-1.5859498zm-3.7041666 1.587501h1.5875v1.322917l-1.5875-.0021zm1.8520833 0h1.5875v1.322917h-1.5875zm3.4395833 0v1.321883h-1.5864665v.26665h1.5864665v.660425c0 .05497-.010975.107-.031006.154513v.000529c-.060189.142291-.2011299.241833-.365869.241833h-1.190625l.00103-2.643766zm-6.8791666.000529h1.3208496v1.320333l-1.3208496.0026zm0 1.586971h1.3229167v1.058333h-.9260417c-.21986851 0-.396875-.177006-.396875-.396875zm1.5875 0h1.5875v1.058333h-1.5875zm1.8520833 0 1.5875.0021-.00206 1.05627h-1.585433z" opacity=".3" stroke-width=".264583"/><g fill="none" stroke-width=".264583" transform="translate(0 59.266666)"><path d="m3.8364584 3.8364616h-1.3229165l-.0000002 1.0583307h1.3229167z" stroke="url(#f)"/><path d="m3.8364583 2.2489583h-1.3229165l-.0000002 1.0583307h1.3229167z" stroke="url(#h)"/><path d="m3.8364583.66145834h-1.3229165l-.0000002 1.05833066h1.3229167z" stroke="url(#i)"/><path d="m3.8364583 5.4239584h-1.3229165l-.0000002 1.0583307h1.3229167z" stroke="url(#j)"/><path d="m3.8364583 7.0114584h-1.3229165l-.0000002.79375h1.3229167z" stroke="url(#k)"/><path d="m5.6885416 3.8364616h-1.3229165l-.0000002 1.0583307h1.3229167z" stroke="url(#l)"/><path d="m5.6885415 2.2489583h-1.3229165l-.0000002 1.0583307h1.3229167z" stroke="url(#m)"/><path d="m5.6885415.66145834h-1.3229165l-.0000002 1.05833066h1.3229167z" stroke="url(#n)"/><path d="m5.6885415 5.4239584h-1.3229165l-.0000002 1.0583307h1.3229167z" stroke="url(#o)"/><path d="m5.6885415 7.0114584h-1.3229165l-.0000002.79375h1.3229167z" stroke="url(#p)"/><path d="m7.540625 3.8364616h-1.3229165l-.0000002 1.0583307h1.3229167z" stroke="url(#q)"/><path d="m7.5406249 2.2489583h-1.3229165l-.0000002 1.0583307h1.3229167z" stroke="url(#r)"/><path d="m7.5406249.66145834h-1.3229165l-.0000002 1.05833066h1.3229167z" stroke="url(#s)"/><path d="m7.5406249 5.4239584h-1.3229165l-.0000002 1.0583307h1.3229167z" stroke="url(#t)"/><path d="m7.5406249 7.0114584h-1.3229165l-.0000002.79375h1.3229167z" stroke="url(#u)"/><path d="m1.9843751 3.8364616h-1.05833333l-.0000002 1.0583307h1.05833353z" stroke="url(#v)"/><path d="m1.984375 2.2489583h-1.05833333l-.0000002 1.0583307h1.05833353z" stroke="url(#w)"/><path d="m1.984375.66145834h-1.05833333l-.0000002 1.05833066h1.05833353z" stroke="url(#x)"/><path d="m1.984375 5.4239584h-1.05833333l-.0000002 1.0583307h1.05833353z" stroke="url(#y)"/><path d="m1.984375 7.0114584h-1.05833333l-.0000002.79375h1.05833353z" stroke="url(#z)"/></g><path d="m1.0583333 59.663541c-.21986871 0-.39687496.176998-.39687496.396875v1.190625h7.14374996v-1.190625c0-.219877-.1770063-.396875-.396875-.396875z" fill="url(#B)" stroke-width="1.3333"/><g stroke-width=".264583"><path d="m1.0578166 59.53125c-.29274566 0-.52864993.236008-.52864993.529166v1.322917h1.85208333 1.5869832.2666503 1.5864665.2666506 1.584916.2645834v-1.322917c0-.293158-.2359044-.529166-.52865-.529166zm.1328084.264583h.9229411v1.322917h-1.3198161v-.926042c0-.219869.17700649-.396875.396875-.396875zm1.1895915 0h1.5864665v1.322917h-1.585433v.256832h-.00103zm1.8531168 0h1.5869833v1.322917h-1.5869833zm1.8536335 0h1.1890748c.2198685 0 .396875.177006.396875.396875v.926042h-1.5859498z" fill="#452981" fill-opacity=".501961"/><g transform="translate(0 59.266666)"><g fill="none"><path d="m3.8364583.66145843h-1.3229165l-.0000002 1.05833057h1.3229167z" opacity=".5" stroke="url(#C)"/><path d="m5.6885414.66145843h-1.3229164l-.0000003 1.05833057h1.3229167z" opacity=".5" stroke="url(#D)"/><path d="m7.540625.92604167c0-.13229167-.1116211-.26458333-.2645833-.26458333l-1.0583333.00000009-.0000003 1.05833057h1.3229167z" opacity=".5" stroke="url(#E)"/><path d="m.92604113.92604167c0-.13229167.11162107-.26458333.26458327-.26458333h.7937506l.0000003 1.05833056-1.05833397.0000001z" opacity=".5" stroke="url(#F)"/></g><path d="m.52916667 2.1166667 7.40828523-.0000482v.2645833l-7.40828523.0000482z" fill="url(#G)" opacity=".15"/></g></g></g><g transform="translate(15.345833 -38.89375)"><g transform="matrix(.26458333 0 0 .26458333 -.529167 59.531249)"><path d="m5.0000001 29h26.0000009v2h-26.0000009z" fill="url(#J)" opacity=".15"/><path d="m5.0000001 29.000111v1.99989c-.806615.0038-1.950002-.448074-1.950002-1.000074s.900121-.999816 1.950002-.999816z" fill="url(#H)" opacity=".15"/><path d="m31.000001 29.000111v1.99989c.806614.0038 1.950002-.448074 1.950002-1.000074s-.900122-.999816-1.950002-.999816z" fill="url(#I)" opacity=".15"/></g><rect fill="url(#K)" height="7.672933" rx=".396875" ry=".396891" stroke-width="1.3333" transform="scale(-1 1)" width="7.14375" x="-7.805209" y="59.663525"/><path d="m1.0578166 59.53125c-.29274566 0-.52864993.236008-.52864993.529166v6.879167c0 .293158.23590427.529167.52864993.529167h6.3510334c.2927456 0 .52865-.236009.52865-.529167v-6.879167c0-.293158-.2359044-.529166-.52865-.529166zm.1328084.264583h.9229411v1.322917h-1.3198161v-.926042c0-.219869.17700649-.396875.396875-.396875zm1.1895915 0h1.5864665v1.322917h-1.585433v.256832h-.00103zm1.8531168 0h1.5869833v1.322917h-1.5869833zm1.8536335 0h1.1890748c.2198685 0 .396875.177006.396875.396875v.926042h-1.5859498zm-3.7057168 1.5875h1.5869832l.0005292 1.323433h-1.5869956zm1.8536335 0h1.5864665l-.0005291 1.322917h-1.5875zm1.8531171 0h1.584916v1.322917h-1.5875zm-5.2942506.000516h1.3208496l.000516 1.322917h-1.3198153zm0 1.586983 1.3213664.0088-.0005159 1.305347h-1.31981698v.0088h-.001035zm1.5880168 0h1.5869832v1.322917h-1.5875zm1.8515665 0h1.5875v1.322917h-1.5875zm1.8520833 0h1.5875v1.322917h-1.5859498zm-3.7041666 1.587501h1.5875v1.322917l-1.5875-.0021zm1.8520833 0h1.5875v1.322917h-1.5875zm3.4395833 0v1.321883h-1.5864665v.26665h1.5864665v.660425c0 .05497-.010975.107-.031006.154513v.000529c-.060189.142291-.2011299.241833-.365869.241833h-1.190625l.00103-2.643766zm-6.8791666.000529h1.3208496v1.320333l-1.3208496.0026zm0 1.586971h1.3229167v1.058333h-.9260417c-.21986851 0-.396875-.177006-.396875-.396875zm1.5875 0h1.5875v1.058333h-1.5875zm1.8520833 0 1.5875.0021-.00206 1.05627h-1.585433z" opacity=".3" stroke-width=".264583"/><g fill="none" stroke-width=".264583" transform="translate(0 59.266666)"><path d="m3.8364584 3.8364616h-1.3229165l-.0000002 1.0583307h1.3229167z" stroke="url(#f)"/><path d="m3.8364583 2.2489583h-1.3229165l-.0000002 1.0583307h1.3229167z" stroke="url(#h)"/><path d="m3.8364583.66145834h-1.3229165l-.0000002 1.05833066h1.3229167z" stroke="url(#i)"/><path d="m3.8364583 5.4239584h-1.3229165l-.0000002 1.0583307h1.3229167z" stroke="url(#j)"/><path d="m3.8364583 7.0114584h-1.3229165l-.0000002.79375h1.3229167z" stroke="url(#k)"/><path d="m5.6885416 3.8364616h-1.3229165l-.0000002 1.0583307h1.3229167z" stroke="url(#l)"/><path d="m5.6885415 2.2489583h-1.3229165l-.0000002 1.0583307h1.3229167z" stroke="url(#m)"/><path d="m5.6885415.66145834h-1.3229165l-.0000002 1.05833066h1.3229167z" stroke="url(#n)"/><path d="m5.6885415 5.4239584h-1.3229165l-.0000002 1.0583307h1.3229167z" stroke="url(#o)"/><path d="m5.6885415 7.0114584h-1.3229165l-.0000002.79375h1.3229167z" stroke="url(#p)"/><path d="m7.540625 3.8364616h-1.3229165l-.0000002 1.0583307h1.3229167z" stroke="url(#q)"/><path d="m7.5406249 2.2489583h-1.3229165l-.0000002 1.0583307h1.3229167z" stroke="url(#r)"/><path d="m7.5406249.66145834h-1.3229165l-.0000002 1.05833066h1.3229167z" stroke="url(#s)"/><path d="m7.5406249 5.4239584h-1.3229165l-.0000002 1.0583307h1.3229167z" stroke="url(#t)"/><path d="m7.5406249 7.0114584h-1.3229165l-.0000002.79375h1.3229167z" stroke="url(#u)"/><path d="m1.9843751 3.8364616h-1.05833333l-.0000002 1.0583307h1.05833353z" stroke="url(#v)"/><path d="m1.984375 2.2489583h-1.05833333l-.0000002 1.0583307h1.05833353z" stroke="url(#w)"/><path d="m1.984375.66145834h-1.05833333l-.0000002 1.05833066h1.05833353z" stroke="url(#x)"/><path d="m1.984375 5.4239584h-1.05833333l-.0000002 1.0583307h1.05833353z" stroke="url(#y)"/><path d="m1.984375 7.0114584h-1.05833333l-.0000002.79375h1.05833353z" stroke="url(#z)"/></g><path d="m1.0583333 59.663541c-.21986871 0-.39687496.176998-.39687496.396875v1.190625h7.14374996v-1.190625c0-.219877-.1770063-.396875-.396875-.396875z" fill="url(#L)" stroke-width="1.3333"/><g stroke-width=".264583"><path d="m1.0578166 59.53125c-.29274566 0-.52864993.236008-.52864993.529166v1.322917h1.85208333 1.5869832.2666503 1.5864665.2666506 1.584916.2645834v-1.322917c0-.293158-.2359044-.529166-.52865-.529166zm.1328084.264583h.9229411v1.322917h-1.3198161v-.926042c0-.219869.17700649-.396875.396875-.396875zm1.1895915 0h1.5864665v1.322917h-1.585433v.256832h-.00103zm1.8531168 0h1.5869833v1.322917h-1.5869833zm1.8536335 0h1.1890748c.2198685 0 .396875.177006.396875.396875v.926042h-1.5859498z" fill="#452981" fill-opacity=".501961"/><g transform="translate(0 59.266666)"><g fill="none"><path d="m3.8364583.66145843h-1.3229165l-.0000002 1.05833057h1.3229167z" opacity=".5" stroke="url(#C)"/><path d="m5.6885414.66145843h-1.3229164l-.0000003 1.05833057h1.3229167z" opacity=".5" stroke="url(#D)"/><path d="m7.540625.92604167c0-.13229167-.1116211-.26458333-.2645833-.26458333l-1.0583333.00000009-.0000003 1.05833057h1.3229167z" opacity=".5" stroke="url(#E)"/><path d="m.92604113.92604167c0-.13229167.11162107-.26458333.26458327-.26458333h.7937506l.0000003 1.05833056-1.05833397.0000001z" opacity=".5" stroke="url(#F)"/></g><path d="m.52916667 2.1166667 7.40828523-.0000482v.2645833l-7.40828523.0000482z" fill="url(#G)" opacity=".15"/></g></g></g><g transform="translate(25.4 -38.89375)"><g transform="matrix(.26458333 0 0 .26458333 -.529167 59.531249)"><path d="m5.0000001 29h26.0000009v2h-26.0000009z" fill="url(#J)" opacity=".15"/><path d="m5.0000001 29.000111v1.99989c-.806615.0038-1.950002-.448074-1.950002-1.000074s.900121-.999816 1.950002-.999816z" fill="url(#H)" opacity=".15"/><path d="m31.000001 29.000111v1.99989c.806614.0038 1.950002-.448074 1.950002-1.000074s-.900122-.999816-1.950002-.999816z" fill="url(#I)" opacity=".15"/></g><rect fill="url(#K)" height="7.672933" rx=".396875" ry=".396891" stroke-width="1.3333" transform="scale(-1 1)" width="7.14375" x="-7.805209" y="59.663525"/><path d="m1.0578166 59.53125c-.29274566 0-.52864993.236008-.52864993.529166v6.879167c0 .293158.23590427.529167.52864993.529167h6.3510334c.2927456 0 .52865-.236009.52865-.529167v-6.879167c0-.293158-.2359044-.529166-.52865-.529166zm.1328084.264583h.9229411v1.322917h-1.3198161v-.926042c0-.219869.17700649-.396875.396875-.396875zm1.1895915 0h1.5864665v1.322917h-1.585433v.256832h-.00103zm1.8531168 0h1.5869833v1.322917h-1.5869833zm1.8536335 0h1.1890748c.2198685 0 .396875.177006.396875.396875v.926042h-1.5859498zm-3.7057168 1.5875h1.5869832l.0005292 1.323433h-1.5869956zm1.8536335 0h1.5864665l-.0005291 1.322917h-1.5875zm1.8531171 0h1.584916v1.322917h-1.5875zm-5.2942506.000516h1.3208496l.000516 1.322917h-1.3198153zm0 1.586983 1.3213664.0088-.0005159 1.305347h-1.31981698v.0088h-.001035zm1.5880168 0h1.5869832v1.322917h-1.5875zm1.8515665 0h1.5875v1.322917h-1.5875zm1.8520833 0h1.5875v1.322917h-1.5859498zm-3.7041666 1.587501h1.5875v1.322917l-1.5875-.0021zm1.8520833 0h1.5875v1.322917h-1.5875zm3.4395833 0v1.321883h-1.5864665v.26665h1.5864665v.660425c0 .05497-.010975.107-.031006.154513v.000529c-.060189.142291-.2011299.241833-.365869.241833h-1.190625l.00103-2.643766zm-6.8791666.000529h1.3208496v1.320333l-1.3208496.0026zm0 1.586971h1.3229167v1.058333h-.9260417c-.21986851 0-.396875-.177006-.396875-.396875zm1.5875 0h1.5875v1.058333h-1.5875zm1.8520833 0 1.5875.0021-.00206 1.05627h-1.585433z" opacity=".3" stroke-width=".264583"/><g fill="none" stroke-width=".264583" transform="translate(0 59.266666)"><path d="m3.8364584 3.8364616h-1.3229165l-.0000002 1.0583307h1.3229167z" stroke="url(#f)"/><path d="m3.8364583 2.2489583h-1.3229165l-.0000002 1.0583307h1.3229167z" stroke="url(#h)"/><path d="m3.8364583.66145834h-1.3229165l-.0000002 1.05833066h1.3229167z" stroke="url(#i)"/><path d="m3.8364583 5.4239584h-1.3229165l-.0000002 1.0583307h1.3229167z" stroke="url(#j)"/><path d="m3.8364583 7.0114584h-1.3229165l-.0000002.79375h1.3229167z" stroke="url(#k)"/><path d="m5.6885416 3.8364616h-1.3229165l-.0000002 1.0583307h1.3229167z" stroke="url(#l)"/><path d="m5.6885415 2.2489583h-1.3229165l-.0000002 1.0583307h1.3229167z" stroke="url(#m)"/><path d="m5.6885415.66145834h-1.3229165l-.0000002 1.05833066h1.3229167z" stroke="url(#n)"/><path d="m5.6885415 5.4239584h-1.3229165l-.0000002 1.0583307h1.3229167z" stroke="url(#o)"/><path d="m5.6885415 7.0114584h-1.3229165l-.0000002.79375h1.3229167z" stroke="url(#p)"/><path d="m7.540625 3.8364616h-1.3229165l-.0000002 1.0583307h1.3229167z" stroke="url(#q)"/><path d="m7.5406249 2.2489583h-1.3229165l-.0000002 1.0583307h1.3229167z" stroke="url(#r)"/><path d="m7.5406249.66145834h-1.3229165l-.0000002 1.05833066h1.3229167z" stroke="url(#s)"/><path d="m7.5406249 5.4239584h-1.3229165l-.0000002 1.0583307h1.3229167z" stroke="url(#t)"/><path d="m7.5406249 7.0114584h-1.3229165l-.0000002.79375h1.3229167z" stroke="url(#u)"/><path d="m1.9843751 3.8364616h-1.05833333l-.0000002 1.0583307h1.05833353z" stroke="url(#v)"/><path d="m1.984375 2.2489583h-1.05833333l-.0000002 1.0583307h1.05833353z" stroke="url(#w)"/><path d="m1.984375.66145834h-1.05833333l-.0000002 1.05833066h1.05833353z" stroke="url(#x)"/><path d="m1.984375 5.4239584h-1.05833333l-.0000002 1.0583307h1.05833353z" stroke="url(#y)"/><path d="m1.984375 7.0114584h-1.05833333l-.0000002.79375h1.05833353z" stroke="url(#z)"/></g><path d="m1.0583333 59.663541c-.21986871 0-.39687496.176998-.39687496.396875v1.190625h7.14374996v-1.190625c0-.219877-.1770063-.396875-.396875-.396875z" fill="url(#L)" stroke-width="1.3333"/><g stroke-width=".264583"><path d="m1.0578166 59.53125c-.29274566 0-.52864993.236008-.52864993.529166v1.322917h1.85208333 1.5869832.2666503 1.5864665.2666506 1.584916.2645834v-1.322917c0-.293158-.2359044-.529166-.52865-.529166zm.1328084.264583h.9229411v1.322917h-1.3198161v-.926042c0-.219869.17700649-.396875.396875-.396875zm1.1895915 0h1.5864665v1.322917h-1.585433v.256832h-.00103zm1.8531168 0h1.5869833v1.322917h-1.5869833zm1.8536335 0h1.1890748c.2198685 0 .396875.177006.396875.396875v.926042h-1.5859498z" fill="#452981" fill-opacity=".501961"/><g transform="translate(0 59.266666)"><g fill="none"><path d="m3.8364583.66145843h-1.3229165l-.0000002 1.05833057h1.3229167z" opacity=".5" stroke="url(#C)"/><path d="m5.6885414.66145843h-1.3229164l-.0000003 1.05833057h1.3229167z" opacity=".5" stroke="url(#D)"/><path d="m7.540625.92604167c0-.13229167-.1116211-.26458333-.2645833-.26458333l-1.0583333.00000009-.0000003 1.05833057h1.3229167z" opacity=".5" stroke="url(#E)"/><path d="m.92604113.92604167c0-.13229167.11162107-.26458333.26458327-.26458333h.7937506l.0000003 1.05833056-1.05833397.0000001z" opacity=".5" stroke="url(#F)"/></g><path d="m.52916667 2.1166667 7.40828523-.0000482v.2645833l-7.40828523.0000482z" fill="url(#G)" opacity=".15"/></g></g></g><g transform="translate(35.454167 -38.89375)"><g transform="matrix(.26458333 0 0 .26458333 -.529167 59.531249)"><path d="m5.0000001 29h26.0000009v2h-26.0000009z" fill="url(#J)" opacity=".15"/><path d="m5.0000001 29.000111v1.99989c-.806615.0038-1.950002-.448074-1.950002-1.000074s.900121-.999816 1.950002-.999816z" fill="url(#H)" opacity=".15"/><path d="m31.000001 29.000111v1.99989c.806614.0038 1.950002-.448074 1.950002-1.000074s-.900122-.999816-1.950002-.999816z" fill="url(#I)" opacity=".15"/></g><rect fill="url(#K)" height="7.672933" rx=".396875" ry=".396891" stroke-width="1.3333" transform="scale(-1 1)" width="7.14375" x="-7.805209" y="59.663525"/><path d="m1.0578166 59.53125c-.29274566 0-.52864993.236008-.52864993.529166v6.879167c0 .293158.23590427.529167.52864993.529167h6.3510334c.2927456 0 .52865-.236009.52865-.529167v-6.879167c0-.293158-.2359044-.529166-.52865-.529166zm.1328084.264583h.9229411v1.322917h-1.3198161v-.926042c0-.219869.17700649-.396875.396875-.396875zm1.1895915 0h1.5864665v1.322917h-1.585433v.256832h-.00103zm1.8531168 0h1.5869833v1.322917h-1.5869833zm1.8536335 0h1.1890748c.2198685 0 .396875.177006.396875.396875v.926042h-1.5859498zm-3.7057168 1.5875h1.5869832l.0005292 1.323433h-1.5869956zm1.8536335 0h1.5864665l-.0005291 1.322917h-1.5875zm1.8531171 0h1.584916v1.322917h-1.5875zm-5.2942506.000516h1.3208496l.000516 1.322917h-1.3198153zm0 1.586983 1.3213664.0088-.0005159 1.305347h-1.31981698v.0088h-.001035zm1.5880168 0h1.5869832v1.322917h-1.5875zm1.8515665 0h1.5875v1.322917h-1.5875zm1.8520833 0h1.5875v1.322917h-1.5859498zm-3.7041666 1.587501h1.5875v1.322917l-1.5875-.0021zm1.8520833 0h1.5875v1.322917h-1.5875zm3.4395833 0v1.321883h-1.5864665v.26665h1.5864665v.660425c0 .05497-.010975.107-.031006.154513v.000529c-.060189.142291-.2011299.241833-.365869.241833h-1.190625l.00103-2.643766zm-6.8791666.000529h1.3208496v1.320333l-1.3208496.0026zm0 1.586971h1.3229167v1.058333h-.9260417c-.21986851 0-.396875-.177006-.396875-.396875zm1.5875 0h1.5875v1.058333h-1.5875zm1.8520833 0 1.5875.0021-.00206 1.05627h-1.585433z" opacity=".3" stroke-width=".264583"/><g fill="none" stroke-width=".264583" transform="translate(0 59.266666)"><path d="m3.8364584 3.8364616h-1.3229165l-.0000002 1.0583307h1.3229167z" stroke="url(#f)"/><path d="m3.8364583 2.2489583h-1.3229165l-.0000002 1.0583307h1.3229167z" stroke="url(#h)"/><path d="m3.8364583.66145834h-1.3229165l-.0000002 1.05833066h1.3229167z" stroke="url(#i)"/><path d="m3.8364583 5.4239584h-1.3229165l-.0000002 1.0583307h1.3229167z" stroke="url(#j)"/><path d="m3.8364583 7.0114584h-1.3229165l-.0000002.79375h1.3229167z" stroke="url(#k)"/><path d="m5.6885416 3.8364616h-1.3229165l-.0000002 1.0583307h1.3229167z" stroke="url(#l)"/><path d="m5.6885415 2.2489583h-1.3229165l-.0000002 1.0583307h1.3229167z" stroke="url(#m)"/><path d="m5.6885415.66145834h-1.3229165l-.0000002 1.05833066h1.3229167z" stroke="url(#n)"/><path d="m5.6885415 5.4239584h-1.3229165l-.0000002 1.0583307h1.3229167z" stroke="url(#o)"/><path d="m5.6885415 7.0114584h-1.3229165l-.0000002.79375h1.3229167z" stroke="url(#p)"/><path d="m7.540625 3.8364616h-1.3229165l-.0000002 1.0583307h1.3229167z" stroke="url(#q)"/><path d="m7.5406249 2.2489583h-1.3229165l-.0000002 1.0583307h1.3229167z" stroke="url(#r)"/><path d="m7.5406249.66145834h-1.3229165l-.0000002 1.05833066h1.3229167z" stroke="url(#s)"/><path d="m7.5406249 5.4239584h-1.3229165l-.0000002 1.0583307h1.3229167z" stroke="url(#t)"/><path d="m7.5406249 7.0114584h-1.3229165l-.0000002.79375h1.3229167z" stroke="url(#u)"/><path d="m1.9843751 3.8364616h-1.05833333l-.0000002 1.0583307h1.05833353z" stroke="url(#v)"/><path d="m1.984375 2.2489583h-1.05833333l-.0000002 1.0583307h1.05833353z" stroke="url(#w)"/><path d="m1.984375.66145834h-1.05833333l-.0000002 1.05833066h1.05833353z" stroke="url(#x)"/><path d="m1.984375 5.4239584h-1.05833333l-.0000002 1.0583307h1.05833353z" stroke="url(#y)"/><path d="m1.984375 7.0114584h-1.05833333l-.0000002.79375h1.05833353z" stroke="url(#z)"/></g><path d="m1.0583333 59.663541c-.21986871 0-.39687496.176998-.39687496.396875v1.190625h7.14374996v-1.190625c0-.219877-.1770063-.396875-.396875-.396875z" fill="url(#L)" stroke-width="1.3333"/><g stroke-width=".264583"><path d="m1.0578166 59.53125c-.29274566 0-.52864993.236008-.52864993.529166v1.322917h1.85208333 1.5869832.2666503 1.5864665.2666506 1.584916.2645834v-1.322917c0-.293158-.2359044-.529166-.52865-.529166zm.1328084.264583h.9229411v1.322917h-1.3198161v-.926042c0-.219869.17700649-.396875.396875-.396875zm1.1895915 0h1.5864665v1.322917h-1.585433v.256832h-.00103zm1.8531168 0h1.5869833v1.322917h-1.5869833zm1.8536335 0h1.1890748c.2198685 0 .396875.177006.396875.396875v.926042h-1.5859498z" fill="#452981" fill-opacity=".501961"/><g transform="translate(0 59.266666)"><g fill="none"><path d="m3.8364583.66145843h-1.3229165l-.0000002 1.05833057h1.3229167z" opacity=".5" stroke="url(#C)"/><path d="m5.6885414.66145843h-1.3229164l-.0000003 1.05833057h1.3229167z" opacity=".5" stroke="url(#D)"/><path d="m7.540625.92604167c0-.13229167-.1116211-.26458333-.2645833-.26458333l-1.0583333.00000009-.0000003 1.05833057h1.3229167z" opacity=".5" stroke="url(#E)"/><path d="m.92604113.92604167c0-.13229167.11162107-.26458333.26458327-.26458333h.7937506l.0000003 1.05833056-1.05833397.0000001z" opacity=".5" stroke="url(#F)"/></g><path d="m.52916667 2.1166667 7.40828523-.0000482v.2645833l-7.40828523.0000482z" fill="url(#G)" opacity=".15"/></g></g></g><g transform="translate(10.847917 -241.172893)"><g opacity=".4" transform="matrix(.19495613 0 0 .15119046 -.445614 289.62944)"><path d="m38 40h5v7h-5z" fill="url(#M)"/><path d="m-10-47h5v7h-5z" fill="url(#O)" transform="scale(-1)"/><path d="m10 40h28v7.000001h-28z" fill="url(#P)"/></g><rect fill="url(#Q)" height="7.14375" rx=".443848" stroke-width=".27476" transform="scale(1 -1)" width="7.14375" x=".661458" y="-296.33853"/><rect height="7.14375" rx=".5715" style="opacity:.5;fill:none;stroke:#555761;stroke-width:.264583;stroke-linecap:round;stroke-linejoin:round" width="7.14375" x=".661458" y="289.19476"/><rect fill="none" height="6.614584" rx=".287591" ry=".31498" stroke="url(#R)" stroke-linecap="round" stroke-linejoin="round" stroke-width=".264583" width="6.614584" x=".926042" y="289.45935"/><g fill-rule="evenodd" transform="matrix(.26458333 0 0 .26458333 0 288.53331)"><path d="m5.2218912 5.221965a.44444569.44444569 0 0 1 -.888891 0 .44444569.44444569 0 1 1 .888891 0z" fill="#fff"/><path d="m5.2218912 4.77752a.44444569.44444569 0 0 1 -.888891 0 .44444569.44444569 0 1 1 .888891 0z" opacity=".3"/><path d="m27.666891 5.221965a.44444561.44444561 0 0 1 -.88889 0 .44444561.44444561 0 1 1 .88889 0z" fill="#fff"/><path d="m27.666891 4.77752a.44444561.44444561 0 0 1 -.88889 0 .44444561.44444561 0 1 1 .88889 0z" opacity=".3"/><path d="m5.2218912 27.66669a.44444569.44444569 0 0 1 -.888891 0 .44444569.44444569 0 1 1 .888891 0z" fill="#fff"/><path d="m5.2218912 27.222244a.44444569.44444569 0 0 1 -.888891 0 .44444569.44444569 0 1 1 .888891 0z" opacity=".3"/><path d="m27.666891 27.66669a.44444561.44444561 0 0 1 -.88889 0 .44444561.44444561 0 1 1 .88889 0z" fill="#fff"/><path d="m27.666891 27.222244a.44444561.44444561 0 0 1 -.88889 0 .44444561.44444561 0 1 1 .88889 0z" opacity=".3"/></g><g stroke-width=".264583"><rect fill="#b5b5b5" height="1.322917" rx=".264583" width="5.291667" x="1.5875" y="290.91455"/><rect fill="#cacaca" height="1.058333" rx=".264583" width="5.291667" x="1.5875" y="291.17914"/><rect fill="url(#S)" height="1.5875" rx=".264583" stroke="#656565" stroke-linecap="round" stroke-linejoin="round" stroke-opacity=".529825" width="4.497917" x="1.984375" y="293.4281"/><rect fill="none" height="1.5875" opacity=".5" rx=".280671" ry=".266455" width="4.497916" x="1.984375" y="293.4281"/><rect fill="none" height="1.058333" rx=".130135" ry=".132292" stroke="url(#T)" stroke-linecap="round" stroke-linejoin="round" stroke-opacity=".529825" width="3.96875" x="2.248958" y="293.69269"/></g><g fill="#4d4d4d" transform="matrix(.26458333 0 0 .26458333 0 288.53331)"><path d="m12 21h1v1h-1z"/><path d="m13 20h1v1h-1z"/><path d="m14 21h1v1h-1z"/><path d="m12 22h1v1h-1z"/><path d="m14 22h1v1h-1z"/><path d="m13 23h1v1h-1z"/><path d="m16 20h1v1h-1z"/><path d="m16 21h1v1h-1z"/><path d="m16 22h1v1h-1z"/><path d="m16 23h1v1h-1z"/><path d="m18 20h1v1h-1z"/><path d="m17 21h1v1h-1z"/><path d="m18 22h1v1h-1z"/><path d="m18 23h1v1h-1z"/></g></g><g transform="translate(20.372917 -241.172893)"><g opacity=".4" transform="matrix(.19495613 0 0 .15119046 -.445614 289.62944)"><path d="m38 40h5v7h-5z" fill="url(#M)"/><path d="m-10-47h5v7h-5z" fill="url(#O)" transform="scale(-1)"/><path d="m10 40h28v7.000001h-28z" fill="url(#U)"/></g><rect fill="url(#V)" height="7.14375" rx=".443848" stroke-width=".27476" transform="scale(1 -1)" width="7.14375" x=".661458" y="-296.33853"/><rect height="7.14375" rx=".5715" style="opacity:.5;fill:none;stroke:#555761;stroke-width:.264583;stroke-linecap:round;stroke-linejoin:round" width="7.14375" x=".661458" y="289.19476"/><rect fill="none" height="6.614584" rx=".287591" ry=".31498" stroke="url(#W)" stroke-linecap="round" stroke-linejoin="round" stroke-width=".264583" width="6.614584" x=".926042" y="289.45935"/><g fill-rule="evenodd" transform="matrix(.26458333 0 0 .26458333 0 288.53331)"><path d="m5.2218912 5.221965a.44444569.44444569 0 0 1 -.888891 0 .44444569.44444569 0 1 1 .888891 0z" fill="#fff"/><path d="m5.2218912 4.77752a.44444569.44444569 0 0 1 -.888891 0 .44444569.44444569 0 1 1 .888891 0z" opacity=".3"/><path d="m27.666891 5.221965a.44444561.44444561 0 0 1 -.88889 0 .44444561.44444561 0 1 1 .88889 0z" fill="#fff"/><path d="m27.666891 4.77752a.44444561.44444561 0 0 1 -.88889 0 .44444561.44444561 0 1 1 .88889 0z" opacity=".3"/><path d="m5.2218912 27.66669a.44444569.44444569 0 0 1 -.888891 0 .44444569.44444569 0 1 1 .888891 0z" fill="#fff"/><path d="m5.2218912 27.222244a.44444569.44444569 0 0 1 -.888891 0 .44444569.44444569 0 1 1 .888891 0z" opacity=".3"/><path d="m27.666891 27.66669a.44444561.44444561 0 0 1 -.88889 0 .44444561.44444561 0 1 1 .88889 0z" fill="#fff"/><path d="m27.666891 27.222244a.44444561.44444561 0 0 1 -.88889 0 .44444561.44444561 0 1 1 .88889 0z" opacity=".3"/></g><g stroke-width=".264583"><rect fill="#b5b5b5" height="1.322917" rx=".264583" width="5.291667" x="1.5875" y="290.91455"/><rect fill="#cacaca" height="1.058333" rx=".264583" width="5.291667" x="1.5875" y="291.17914"/><rect fill="url(#X)" height="1.5875" rx=".264583" stroke="#656565" stroke-linecap="round" stroke-linejoin="round" stroke-opacity=".529825" width="4.497917" x="1.984375" y="293.4281"/><rect fill="none" height="1.5875" opacity=".5" rx=".280671" ry=".266455" width="4.497916" x="1.984375" y="293.4281"/><rect fill="none" height="1.058333" rx=".130135" ry=".132292" stroke="url(#Y)" stroke-linecap="round" stroke-linejoin="round" stroke-opacity=".529825" width="3.96875" x="2.248958" y="293.69269"/></g><g fill="#4d4d4d" transform="matrix(.26458333 0 0 .26458333 0 288.53331)"><path d="m12 21h1v1h-1z"/><path d="m13 20h1v1h-1z"/><path d="m14 21h1v1h-1z"/><path d="m12 22h1v1h-1z"/><path d="m14 22h1v1h-1z"/><path d="m13 23h1v1h-1z"/><path d="m16 20h1v1h-1z"/><path d="m16 21h1v1h-1z"/><path d="m16 22h1v1h-1z"/><path d="m16 23h1v1h-1z"/><path d="m18 20h1v1h-1z"/><path d="m17 21h1v1h-1z"/><path d="m18 22h1v1h-1z"/><path d="m18 23h1v1h-1z"/></g></g><g transform="translate(29.897917 -241.172893)"><g opacity=".4" transform="matrix(.19495613 0 0 .15119046 -.445614 289.62944)"><path d="m38 40h5v7h-5z" fill="url(#M)"/><path d="m-10-47h5v7h-5z" fill="url(#O)" transform="scale(-1)"/><path d="m10 40h28v7.000001h-28z" fill="url(#U)"/></g><rect fill="url(#V)" height="7.14375" rx=".443848" stroke-width=".27476" transform="scale(1 -1)" width="7.14375" x=".661458" y="-296.33853"/><rect height="7.14375" rx=".5715" style="opacity:.5;fill:none;stroke:#555761;stroke-width:.264583;stroke-linecap:round;stroke-linejoin:round" width="7.14375" x=".661458" y="289.19476"/><rect fill="none" height="6.614584" rx=".287591" ry=".31498" stroke="url(#W)" stroke-linecap="round" stroke-linejoin="round" stroke-width=".264583" width="6.614584" x=".926042" y="289.45935"/><g fill-rule="evenodd" transform="matrix(.26458333 0 0 .26458333 0 288.53331)"><path d="m5.2218912 5.221965a.44444569.44444569 0 0 1 -.888891 0 .44444569.44444569 0 1 1 .888891 0z" fill="#fff"/><path d="m5.2218912 4.77752a.44444569.44444569 0 0 1 -.888891 0 .44444569.44444569 0 1 1 .888891 0z" opacity=".3"/><path d="m27.666891 5.221965a.44444561.44444561 0 0 1 -.88889 0 .44444561.44444561 0 1 1 .88889 0z" fill="#fff"/><path d="m27.666891 4.77752a.44444561.44444561 0 0 1 -.88889 0 .44444561.44444561 0 1 1 .88889 0z" opacity=".3"/><path d="m5.2218912 27.66669a.44444569.44444569 0 0 1 -.888891 0 .44444569.44444569 0 1 1 .888891 0z" fill="#fff"/><path d="m5.2218912 27.222244a.44444569.44444569 0 0 1 -.888891 0 .44444569.44444569 0 1 1 .888891 0z" opacity=".3"/><path d="m27.666891 27.66669a.44444561.44444561 0 0 1 -.88889 0 .44444561.44444561 0 1 1 .88889 0z" fill="#fff"/><path d="m27.666891 27.222244a.44444561.44444561 0 0 1 -.88889 0 .44444561.44444561 0 1 1 .88889 0z" opacity=".3"/></g><g stroke-width=".264583"><rect fill="#b5b5b5" height="1.322917" rx=".264583" width="5.291667" x="1.5875" y="290.91455"/><rect fill="#cacaca" height="1.058333" rx=".264583" width="5.291667" x="1.5875" y="291.17914"/><rect fill="url(#X)" height="1.5875" rx=".264583" stroke="#656565" stroke-linecap="round" stroke-linejoin="round" stroke-opacity=".529825" width="4.497917" x="1.984375" y="293.4281"/><rect fill="none" height="1.5875" opacity=".5" rx=".280671" ry=".266455" width="4.497916" x="1.984375" y="293.4281"/><rect fill="none" height="1.058333" rx=".130135" ry=".132292" stroke="url(#Y)" stroke-linecap="round" stroke-linejoin="round" stroke-opacity=".529825" width="3.96875" x="2.248958" y="293.69269"/></g><g fill="#4d4d4d" transform="matrix(.26458333 0 0 .26458333 0 288.53331)"><path d="m12 21h1v1h-1z"/><path d="m13 20h1v1h-1z"/><path d="m14 21h1v1h-1z"/><path d="m12 22h1v1h-1z"/><path d="m14 22h1v1h-1z"/><path d="m13 23h1v1h-1z"/><path d="m16 20h1v1h-1z"/><path d="m16 21h1v1h-1z"/><path d="m16 22h1v1h-1z"/><path d="m16 23h1v1h-1z"/><path d="m18 20h1v1h-1z"/><path d="m17 21h1v1h-1z"/><path d="m18 22h1v1h-1z"/><path d="m18 23h1v1h-1z"/></g></g><g stroke-width=".264583" transform="translate(-1.058333 -228.737483)"><path d="m19.314583 269.7479c0 .73025-1.539875 1.32291-3.439583 1.32291s-3.439583-.59266-3.439583-1.32291 1.539875-1.32292 3.439583-1.32292 3.439583.59267 3.439583 1.32292z" fill="url(#Z)" fill-rule="evenodd" opacity=".3"/><path d="m18.915062 269.23672c0 .64717-1.362604 1.17263-3.040856 1.17263s-3.040591-.52546-3.040591-1.17263c.03016-1.44727-.37174-1.14829 3.040591-1.1729 3.490648-.0251 2.997729-.29792 3.040856 1.1729z" fill="url(#aa)" stroke="url(#ac)"/><path d="m18.917708 268.1604c0 .65749-1.362604 1.19062-3.042708 1.19062s-3.042708-.53313-3.042708-1.19062 1.362604-1.19063 3.042708-1.19063 3.042708.53314 3.042708 1.19063z" fill="#868688" stroke="#d8d8d8"/><path d="m18.915062 267.64922c0 .64717-1.362604 1.17263-3.040856 1.17263s-3.040591-.52546-3.040591-1.17263c.03016-1.44727-.37174-1.14829 3.040591-1.1729 3.490648-.0251 2.997729-.29792 3.040856 1.1729z" fill="url(#ae)" stroke="url(#af)"/><path d="m18.917708 266.5729c0 .65749-1.362604 1.19062-3.042708 1.19062s-3.042708-.53313-3.042708-1.19062 1.362604-1.19063 3.042708-1.19063 3.042708.53314 3.042708 1.19063z" fill="#868688" stroke="#d8d8d8"/><path d="m18.915062 266.06172c0 .64717-1.362604 1.17263-3.040856 1.17263s-3.040591-.52546-3.040591-1.17263c.03016-1.44727-.37174-1.14829 3.040591-1.17263 3.490648-.0254 2.997729-.29792 3.040856 1.17263z" fill="url(#ag)" stroke="url(#ah)"/><path d="m18.917708 264.9854c0 .65749-1.362604 1.19062-3.042708 1.19062s-3.042708-.53313-3.042708-1.19062 1.362604-1.19063 3.042708-1.19063 3.042708.53314 3.042708 1.19063z" fill="url(#aj)" stroke="url(#al)"/><rect fill="none" height="6.085417" opacity=".5" rx="4.630209" ry="1.058333" stroke="url(#an)" width="5.55625" x="13.096875" y="264.05936"/></g><g stroke-width=".264583" transform="translate(18.520839 -228.737483)"><path d="m19.314583 269.7479c0 .73025-1.539875 1.32291-3.439583 1.32291s-3.439583-.59266-3.439583-1.32291 1.539875-1.32292 3.439583-1.32292 3.439583.59267 3.439583 1.32292z" fill="url(#ao)" fill-rule="evenodd" opacity=".3"/><path d="m18.915062 269.23672c0 .64717-1.362604 1.17263-3.040856 1.17263s-3.040591-.52546-3.040591-1.17263c.03016-1.44727-.37174-1.14829 3.040591-1.1729 3.490648-.0251 2.997729-.29792 3.040856 1.1729z" fill="url(#aa)" stroke="url(#ac)"/><path d="m18.917708 268.1604c0 .65749-1.362604 1.19062-3.042708 1.19062s-3.042708-.53313-3.042708-1.19062 1.362604-1.19063 3.042708-1.19063 3.042708.53314 3.042708 1.19063z" fill="#868688" stroke="#d8d8d8"/><path d="m18.915062 267.64922c0 .64717-1.362604 1.17263-3.040856 1.17263s-3.040591-.52546-3.040591-1.17263c.03016-1.44727-.37174-1.14829 3.040591-1.1729 3.490648-.0251 2.997729-.29792 3.040856 1.1729z" fill="url(#ae)" stroke="url(#af)"/><path d="m18.917708 266.5729c0 .65749-1.362604 1.19062-3.042708 1.19062s-3.042708-.53313-3.042708-1.19062 1.362604-1.19063 3.042708-1.19063 3.042708.53314 3.042708 1.19063z" fill="#868688" stroke="#d8d8d8"/><path d="m18.915062 266.06172c0 .64717-1.362604 1.17263-3.040856 1.17263s-3.040591-.52546-3.040591-1.17263c.03016-1.44727-.37174-1.14829 3.040591-1.17263 3.490648-.0254 2.997729-.29792 3.040856 1.17263z" fill="url(#ag)" stroke="url(#ah)"/><path d="m18.917708 264.9854c0 .65749-1.362604 1.19062-3.042708 1.19062s-3.042708-.53313-3.042708-1.19062 1.362604-1.19063 3.042708-1.19063 3.042708.53314 3.042708 1.19063z" fill="url(#ap)" stroke="url(#aq)"/><rect fill="none" height="6.085417" opacity=".5" rx="4.630209" ry="1.058333" stroke="url(#ar)" width="5.55625" x="13.096875" y="264.05936"/></g><g transform="translate(14.2875 -280.860403)"><g stroke-width=".264583"><path d="m1.3096875 296.20624h5.8472916v.52916h-5.8472916z" fill="url(#as)" opacity=".15"/><path d="m1.3096875 296.20624v.52916c-.2135188.001-.5159375-.11853-.5159375-.26458s.238125-.26458.5159375-.26458z" fill="url(#aF)" opacity=".15"/><path d="m7.1569791 296.20624v.52916c.2135188.001.5159375-.11853.5159375-.26458s-.238125-.26458-.5159375-.26458z" fill="url(#aG)" opacity=".15"/></g><path d="m1.190625 288.66561 6.0854166.00055v7.67237h-6.0854166z" fill="url(#at)" stroke-width=".275318"/><g fill="none" stroke-linejoin="round" transform="matrix(.26458333 0 0 .26458333 0 288.53332)"><path d="m26.5 28.5h-21v-27h21z" stroke="url(#au)" stroke-linecap="round"/><path d="m4.5.5 23 .002v28.998h-23z" stroke="url(#av)"/></g><g opacity=".6" transform="matrix(.26458333 0 0 .26458333 2.910417 287.47499)"><path d="m14.46 29.5c0 1.2-2.898 2-6.467 2-3.57 0-6.468-.8-6.468-2 0-4.634-.79-3.195 6.468-3.25 7.424-.056 6.467-1.41 6.467 3.25z" fill="url(#aw)" stroke="url(#ax)"/><path d="m14.5 26.5c0 1.105-2.91 2-6.5 2s-6.5-.895-6.5-2 2.91-2 6.5-2 6.5.895 6.5 2z" fill="none" stroke="#d8d8d8"/><path d="m14.46 25.5c0 1.157-2.898 2-6.467 2-3.57 0-6.468-.8-6.468-2 0-4.634-.79-3.195 6.468-3.25 7.424-.056 6.467-1.41 6.467 3.25z" fill="url(#ay)" stroke="url(#az)"/><path d="m14.5 22.5c0 1.105-2.91 2-6.5 2s-6.5-.895-6.5-2 2.91-2 6.5-2 6.5.895 6.5 2z" fill="none" stroke="#d8d8d8"/><path d="m14.46 21.5c0 1.218-2.898 2-6.467 2-3.57 0-6.468-.95-6.468-2 0-4.344-.79-3.046 6.468-3.1 7.424-.056 6.467-.83 6.467 3.1z" fill="url(#aA)" stroke="url(#aB)"/><path d="m14.5 18.5c0 1.105-2.91 2-6.5 2s-6.5-.895-6.5-2 2.91-2 6.5-2 6.5.895 6.5 2z" fill="url(#aC)" stroke="url(#aD)"/><rect fill="none" height="13" opacity=".5" rx="17.5" ry="1.5" stroke="url(#aE)" width="11" x="2.5" y="17.5"/></g></g><g transform="translate(25.400002 -281.125142)"><path d="m7.1437502 296.07394a2.9104167.92604164 0 1 1 -5.8208333 0 2.9104167.92604164 0 1 1 5.8208333 0z" fill="url(#aR)"/><path d="m8.0697919 292.7668c0-2.11682-1.7196327-3.83646-3.8364581-3.83646-2.1168261 0-3.83645948 1.71964-3.83645895 3.83646 0 2.11683 1.71963285 3.83646 3.83645895 3.83646 2.1168254 0 3.8364581-1.71963 3.8364581-3.83646z" fill="url(#aH)"/><g fill="none" stroke-width=".264583"><path d="m7.8052083 292.76667c0 1.97276-1.5993007 3.572-3.5718298 3.572-1.9727098 0-3.57192018-1.59926-3.57192018-3.572 0-1.97266 1.59921038-3.57174 3.57192018-3.57174 1.9725291 0 3.5718298 1.59908 3.5718298 3.57174z" opacity=".5" stroke="url(#aI)" stroke-linecap="round" stroke-linejoin="round"/><path d="m4.2333338 288.93034c-2.1168254 0-3.83645881 1.71963-3.83645881 3.83646s1.71963341 3.83646 3.83645881 3.83646c2.1168244 0 3.8364599-1.71963 3.8364578-3.83646 0-2.11683-1.7196334-3.83646-3.8364578-3.83646z" opacity=".5" stroke="#7239b3"/><path d="m4.5437374 296.40829c2.5884439-2.54989 1.5915876-7.46478-.3037821-7.2796" stroke="url(#aJ)" stroke-linecap="round" stroke-linejoin="round"/><path d="m6.7767945 295.24507c-1.3562443 1.31102-6.26317648-2.47132-4.5120093-5.55" stroke="url(#aK)" stroke-linecap="round" stroke-linejoin="round"/><path d="m7.745918 292.01093c-1.9392143-1.39307-7.25355587-.85912-7.08049842.77468" stroke="url(#aL)" stroke-linecap="round" stroke-linejoin="round"/></g><path d="m6.4762919 291.42538a.45562697.45570862 0 0 1 -.9112538 0 .45562697.45570862 0 1 1 .9112538 0z" fill="url(#aS)"/><path d="m5.8354637 295.2521a.45562697.45570862 0 0 1 -.9112539 0 .45562697.45570862 0 1 1 .9112539 0z" fill="url(#aT)"/><path d="m2.429652 291.59504a.455627.45570871 0 0 1 -.911254 0 .455627.45570871 0 1 1 .911254 0z" fill="url(#aU)"/><path d="m1.3681592 294.90445c2.5714681-.45114 4.5531628-2.95326 4.6625519-3.56557" fill="none" stroke="url(#aN)" stroke-linecap="round" stroke-linejoin="round" stroke-width=".264583"/><path d="m3.8336555 294.18242a.45562705.4557087 0 0 1 -.911254 0 .45562705.4557087 0 1 1 .911254 0z" fill="url(#aV)"/><path d="m4.6120901 289.17886c-2.8370826.58397-3.90570543 5.15901-3.406062 5.70843" fill="none" stroke="url(#aP)" stroke-linecap="round" stroke-linejoin="round" stroke-width=".264583"/><path d="m2.6953633 295.96767c.7571158.145 4.3759022-.5386 5.1093319-3.13187" fill="none" stroke="url(#aQ)" stroke-linecap="round" stroke-linejoin="round" stroke-width=".264583"/></g></svg>