<svg height="128" viewBox="0 0 33.866666 33.866668" width="128" xmlns="http://www.w3.org/2000/svg" xmlns:xlink="http://www.w3.org/1999/xlink"><radialGradient id="a" cx="4.992979" cy="43.5" gradientTransform="matrix(2.003784 0 0 1.4 27.98813 -17.4)" gradientUnits="userSpaceOnUse" r="2.5" xlink:href="#b"/><linearGradient id="b"><stop offset="0" stop-color="#181818"/><stop offset="1" stop-color="#181818" stop-opacity="0"/></linearGradient><radialGradient id="c" cx="4.992979" cy="43.5" gradientTransform="matrix(-2.003784 0 0 -1.4 23.232209 104.4)" gradientUnits="userSpaceOnUse" r="2.5" xlink:href="#b"/><linearGradient id="d" gradientUnits="userSpaceOnUse" x1="25.058096" x2="25.058096" y1="47.027729" y2="39.999443"><stop offset="0" stop-color="#181818" stop-opacity="0"/><stop offset=".5" stop-color="#181818"/><stop offset="1" stop-color="#181818" stop-opacity="0"/></linearGradient><linearGradient id="e" gradientUnits="userSpaceOnUse" x1="15.345833" x2="15.610416" y1="264.456237" y2="294.618737"><stop offset="0" stop-color="#fff"/><stop offset=".01741176" stop-color="#fff" stop-opacity=".235294"/><stop offset=".95056331" stop-color="#fff" stop-opacity=".156863"/><stop offset="1" stop-color="#fff" stop-opacity=".392157"/></linearGradient><radialGradient id="f" cx="25" cy="8" gradientTransform="matrix(.00000003 1.2634084 -1.6845445 .00000003 29.802703 237.63351)" gradientUnits="userSpaceOnUse" r="17"><stop offset="0" stop-color="#fff"/><stop offset="1" stop-color="#fff" stop-opacity=".908397"/></radialGradient><linearGradient id="g" gradientTransform="matrix(.58589872 0 0 .91809262 1.521436 262.65146)" gradientUnits="userSpaceOnUse" x1="15.918245" x2="19.53093" y1="9.458679" y2="20.986202"><stop offset="0" stop-color="#fff"/><stop offset="1" stop-color="#fff" stop-opacity="0"/></linearGradient><radialGradient id="h" cx="8.731252" cy="271.31744" gradientTransform="matrix(-.00000076 3.0638312 -2.6382977 -.00000067 724.54745 242.46782)" gradientUnits="userSpaceOnUse" r="12.435417"><stop offset="0" stop-color="#d1ff82"/><stop offset=".26238" stop-color="#9bdb4d"/><stop offset=".704952" stop-color="#68b723"/><stop offset="1" stop-color="#3a9104"/></radialGradient><linearGradient id="i" gradientTransform="matrix(.21365019 0 0 .23675768 -3.064344 262.08014)" gradientUnits="userSpaceOnUse" x1="19.314583" x2="19.314583" y1="294.61874" y2="271.33539"><stop offset="0" stop-color="#206b00"/><stop offset="1" stop-color="#3a9104"/></linearGradient><g transform="translate(-.264583 -262.868737)"><g opacity=".4" transform="matrix(.82160086 0 0 .41577379 -4.108004 276.66485)"><path d="m38 40h5v7h-5z" fill="url(#a)"/><path d="m13.220339 47h-5v-7h5z" fill="url(#c)"/><path d="m13.220339 40h24.779661v7.000001h-24.779661z" fill="url(#d)"/></g><g stroke-width=".264583"><path d="m6.0854167 265.51456 13.5342093-.00001 8.161624 7.87525v20.17059h-21.6958333z" fill="#fff"/><path d="m4.630209 264.05936h24.606251v30.956242h-24.606251z" fill="url(#h)" stroke="url(#i)" stroke-linecap="round" stroke-linejoin="round"/><path d="m4.894792 264.32394h24.077084v30.427076h-24.077084z" fill="none" opacity=".5" stroke="url(#e)" stroke-linecap="round" stroke-linejoin="round"/><path d="m5.953125 265.38227 13.743683-.00001 8.216734 8.08491v20.22551h-21.960417z" fill="#fff" opacity=".2" stroke="#000"/><path d="m6.0854167 265.51455h13.5342143l8.161619 7.87525v20.17059h-21.6958333z" fill="url(#f)"/></g><g transform="translate(-.264583 3.704167)"><path d="m8.2020829 271.07082h17.9916671v2.11666 2.11667h-17.9916671z" fill="#9bdb4d"/><g fill="none" stroke="#206b00" stroke-width=".264583"><path d="m25.929166 278.87602h-17.4624998m17.4624998 3.70417h-17.4624998m5.4239588-11.24479v14.81651m6.085416-14.81636v14.81652" opacity=".4"/><path d="m8.3343746 271.20311h17.7270834v15.08125h-17.7270834zm17.5659284 3.96875h-17.4336368" opacity=".6" stroke-linecap="round"/></g></g><path d="m6.0009686 264.19164h-1.2384687l.00898 14.2875c.7763654-.0171 23.7434071-6.24199 24.3326861-6.54142v-7.74608h-.98203z" fill="url(#g)" fill-rule="evenodd" opacity=".2" stroke-width=".264583"/></g></svg>