<svg height="16" viewBox="0 0 16 16" width="16" xmlns="http://www.w3.org/2000/svg" xmlns:xlink="http://www.w3.org/1999/xlink"><linearGradient id="a" gradientTransform="matrix(.0435 0 0 .00824 -4.72 16.98)" gradientUnits="userSpaceOnUse" x1="302.85699" x2="302.85699" y1="366.64801" y2="609.505"><stop offset="0" stop-opacity="0"/><stop offset=".5"/><stop offset="1" stop-opacity="0"/></linearGradient><radialGradient id="b" cx="605.71399" cy="486.64801" gradientTransform="matrix(-.01205 0 0 .00824 7.76 16.98)" gradientUnits="userSpaceOnUse" r="117.143" xlink:href="#c"/><linearGradient id="c"><stop offset="0"/><stop offset="1" stop-opacity="0"/></linearGradient><radialGradient id="d" cx="605.71399" cy="486.64801" gradientTransform="matrix(.01205 0 0 .00824 8.24 17.48)" gradientUnits="userSpaceOnUse" r="117.143" xlink:href="#c"/><linearGradient id="e" gradientTransform="matrix(0 .48572 -.4563 0 22.65 .343)" gradientUnits="userSpaceOnUse" x1="5.471" x2="25.028824" y1="25.534" y2="25.531448"><stop offset="0" stop-color="#f4f4f4"/><stop offset="1" stop-color="#dbdbdb"/></linearGradient><linearGradient id="f" gradientTransform="matrix(.4054 0 0 .5135 2.27 -.324)" gradientUnits="userSpaceOnUse" x1="6.735" x2="24.000986" y1="24" y2="24"><stop offset="0" stop-color="#fff"/><stop offset=".027" stop-color="#fff" stop-opacity=".235"/><stop offset="1" stop-color="#fff" stop-opacity=".157"/><stop offset="1" stop-color="#fff" stop-opacity=".392"/></linearGradient><g transform="translate(0 -7)"><path d="m.5 20h15v2h-15z" fill="url(#a)" opacity=".15"/><path d="m.5 20v2c-.62.004-1.5-.448-1.5-1s.692-1 1.5-1z" fill="url(#b)" opacity=".15"/><path d="m15.5 20.5v2c.62.004 1.5-.448 1.5-1s-.692-1-1.5-1z" fill="url(#d)" opacity=".15"/></g><path d="m15.5 3.5v10h-15v-10z" fill="url(#e)"/><g fill="none" transform="translate(-1)"><path d="m12.5 21.5h-8v-12.5h8z" stroke="url(#f)" stroke-linecap="round" transform="matrix(0 1 -1 0 24 0)"/><path d="m16.5 3.5v10h-15v-10z" opacity=".3" stroke="#000" stroke-linejoin="round"/></g></svg>