<svg height="32" width="32" xmlns="http://www.w3.org/2000/svg" xmlns:xlink="http://www.w3.org/1999/xlink"><linearGradient id="a"><stop offset="0"/><stop offset="1" stop-opacity="0"/></linearGradient><linearGradient id="b" gradientTransform="matrix(.56757 0 0 .72973 2.378 -2.514)" gradientUnits="userSpaceOnUse" x1="24.000565" x2="24.000565" y1="6.18585" y2="41.815468"><stop offset="0" stop-color="#fff"/><stop offset="0" stop-color="#fff" stop-opacity=".235"/><stop offset=".99999994" stop-color="#fff" stop-opacity=".157"/><stop offset="1" stop-color="#fff" stop-opacity=".392"/></linearGradient><linearGradient id="c" gradientTransform="matrix(.65714134 0 0 .63012858 .228273 -1.089821)" gradientUnits="userSpaceOnUse" x1="25.132" x2="25.132" y1=".985" y2="47.013"><stop offset="0" stop-color="#f4f4f4"/><stop offset="1" stop-color="#dbdbdb"/></linearGradient><radialGradient id="d" cx="605.714" cy="486.648" gradientTransform="matrix(.01566 0 0 .00824 17.61 25.98)" gradientUnits="userSpaceOnUse" r="117.143" xlink:href="#a"/><radialGradient id="e" cx="605.714" cy="486.648" gradientTransform="matrix(-.01566 0 0 .00824 14.39 25.98)" gradientUnits="userSpaceOnUse" r="117.143" xlink:href="#a"/><linearGradient id="f" gradientTransform="matrix(.04577 0 0 .00824 -.542 25.98)" gradientUnits="userSpaceOnUse" x1="302.857" x2="302.857" y1="366.648" y2="609.505"><stop offset="0" stop-opacity="0"/><stop offset=".5"/><stop offset="1" stop-opacity="0"/></linearGradient><linearGradient id="g" gradientTransform="matrix(.53064 0 0 .5897 39.27 -1.792)" gradientUnits="userSpaceOnUse" x1="-51.786" x2="-51.786" y1="50.786" y2="2.906"><stop offset="0" stop-opacity=".318"/><stop offset="1" stop-opacity=".24"/></linearGradient><radialGradient id="h" cx="38.659" cy="9.341" gradientUnits="userSpaceOnUse" r="8.342"><stop offset="0" stop-color="#d48e15"/><stop offset=".25" stop-color="#f9c440" stop-opacity=".917647"/><stop offset=".5" stop-color="#ffe16b"/><stop offset="1" stop-color="#fff394" stop-opacity=".121569"/></radialGradient><path d="m4.95 29h22.1v2h-22.1z" fill="url(#f)" opacity=".15"/><path d="m4.95 29v2c-.807.004-1.95-.448-1.95-1s.9-1 1.95-1z" fill="url(#e)" opacity=".15"/><path d="m27.05 29v2c.807.004 1.95-.448 1.95-1s-.9-1-1.95-1z" fill="url(#d)" opacity=".15"/><path d="m4.5.5 23 .002071v28.997929h-23z" fill="url(#c)" stroke-width="1.040573"/><path d="m26.5 28.5h-21v-27h21z" fill="none" stroke="url(#b)" stroke-linecap="round" stroke-linejoin="round"/><path d="m4.5.5 23 .002v28.998h-23z" fill="none" stroke="url(#g)" stroke-linejoin="round"/><g fill-rule="evenodd" transform="translate(.03 .227)"><path d="m47 9.34c0 4.608-3.734 8.343-8.34 8.343-4.608 0-8.343-3.735-8.343-8.342 0-4.606 3.735-8.34 8.342-8.34 4.606-.001 8.341 3.732 8.341 8.339z" fill="url(#h)" transform="matrix(.75382 0 0 .75382 -3.43 -.753)"/><g fill="#fff"><path d="m24.454 2.515v1.258h-2.514l.012 1.302 1.245 1.213.013 2.56h1.257l1.258-1.258 1.258 1.265h1.257l-.013-2.567 1.27-1.213-.012-1.302h-2.515v-1.258l-1.245-1.213z" stroke="#f9c440" stroke-linejoin="round" stroke-width="1.999632"/><path d="m24.454 2.515v1.258h-2.514l.012 1.302 1.245 1.213.013 2.56h1.257l1.258-1.258 1.258 1.265h1.257l-.013-2.567 1.27-1.213-.012-1.302h-2.515v-1.258l-1.245-1.213z"/></g></g></svg>