<svg xmlns="http://www.w3.org/2000/svg" xmlns:xlink="http://www.w3.org/1999/xlink" height="32" width="32"><defs><linearGradient id="a"><stop offset="0" stop-color="#fff"/><stop offset=".036" stop-color="#fff" stop-opacity=".235"/><stop offset=".951" stop-color="#fff" stop-opacity=".157"/><stop offset="1" stop-color="#fff" stop-opacity=".392"/></linearGradient><linearGradient id="b"><stop offset="0" stop-color="#f4f4f4"/><stop offset="1" stop-color="#dbdbdb"/></linearGradient><linearGradient id="c"><stop offset="0"/><stop offset="1" stop-opacity="0"/></linearGradient><linearGradient id="d"><stop offset="0" stop-opacity="0"/><stop offset=".5"/><stop offset="1" stop-opacity="0"/></linearGradient><linearGradient gradientTransform="matrix(.56757 0 0 .72973 2.378 -2.514)" gradientUnits="userSpaceOnUse" xlink:href="#a" id="n" y2="43" x2="24" y1="5.564" x1="24"/><linearGradient gradientTransform="matrix(.62857 0 0 .6084 .914 -.535)" gradientUnits="userSpaceOnUse" xlink:href="#b" id="m" y2="47.013" x2="25.132" y1=".985" x1="25.132"/><radialGradient gradientTransform="matrix(.01566 0 0 .00824 17.61 25.98)" gradientUnits="userSpaceOnUse" xlink:href="#c" id="l" fy="486.648" fx="605.714" r="117.143" cy="486.648" cx="605.714"/><radialGradient gradientTransform="matrix(-.01566 0 0 .00824 14.39 25.98)" gradientUnits="userSpaceOnUse" xlink:href="#c" id="k" fy="486.648" fx="605.714" r="117.143" cy="486.648" cx="605.714"/><linearGradient gradientTransform="matrix(.04577 0 0 .00824 -.542 25.98)" gradientUnits="userSpaceOnUse" xlink:href="#d" id="j" y2="609.505" x2="302.857" y1="366.648" x1="302.857"/><linearGradient id="e"><stop offset="0" stop-opacity=".318"/><stop offset="1" stop-opacity=".24"/></linearGradient><linearGradient y2="2.906" x2="-51.786" y1="50.786" x1="-51.786" gradientTransform="matrix(.53064 0 0 .5897 39.27 -1.792)" gradientUnits="userSpaceOnUse" id="o" xlink:href="#e"/><linearGradient id="f"><stop offset="0" stop-color="#cdf87e"/><stop offset=".262" stop-color="#a2e34f"/><stop offset=".661" stop-color="#68b723"/><stop offset="1" stop-color="#1d7e0d"/></linearGradient><linearGradient id="g"><stop offset="0" stop-color="#fff"/><stop offset="0" stop-color="#fff" stop-opacity=".235"/><stop offset="1" stop-color="#fff" stop-opacity=".157"/><stop offset="1" stop-color="#fff" stop-opacity=".392"/></linearGradient><linearGradient id="h"><stop offset="0" stop-color="#fff"/><stop offset="0" stop-color="#fff" stop-opacity=".235"/><stop offset="1" stop-color="#fff" stop-opacity=".157"/><stop offset="1" stop-color="#fff" stop-opacity=".392"/></linearGradient><radialGradient r="8.342" fy="9.341" fx="38.659" cy="9.341" cx="38.659" gradientUnits="userSpaceOnUse" id="p" xlink:href="#i"/><linearGradient id="i"><stop offset="0" stop-color="#fff"/><stop offset=".25" stop-color="#fefede" stop-opacity=".918"/><stop offset=".5" stop-color="#fbf911"/><stop offset="1" stop-color="#fffc04" stop-opacity=".122"/></linearGradient></defs><path opacity=".15" fill="url(#j)" overflow="visible" d="M4.95 29h22.1v2H4.95z"/><path d="M4.95 29v2c-.807.004-1.95-.448-1.95-1s.9-1 1.95-1z" opacity=".15" fill="url(#k)" overflow="visible"/><path d="M27.05 29v2c.807.004 1.95-.448 1.95-1s-.9-1-1.95-1z" opacity=".15" fill="url(#l)" overflow="visible"/><path d="M5 1l22 .002V29H5V1z" fill="url(#m)"/><path d="M26.5 28.5h-21v-27h21z" fill="none" stroke="url(#n)" stroke-linecap="round" stroke-linejoin="round"/><path d="M4.5.5l23 .002V29.5h-23V.5z" fill="none" stroke="url(#o)" stroke-linejoin="round"/><path transform="matrix(.75382 0 0 .75382 -3.43 -.753)" d="M47 9.34c0 4.608-3.734 8.343-8.34 8.343-4.608 0-8.343-3.735-8.343-8.342 0-4.606 3.735-8.34 8.342-8.34C43.265 1 47 4.733 47 9.34z" fill="url(#p)" fill-rule="evenodd"/><path d="M24.454 2.515v1.258H21.94l.012 1.302 1.245 1.213.013 2.56h1.257l1.258-1.258 1.258 1.265h1.257l-.013-2.567 1.27-1.213-.012-1.302H26.97V2.515h-1.184z" overflow="visible" fill="#fff" fill-rule="evenodd" stroke="#ddc73b" stroke-width="1.9996317000000001" stroke-linejoin="round"/><path d="M24.454 2.515v1.258H21.94l.012 1.302 1.245 1.213.013 2.56h1.257l1.258-1.258 1.258 1.265h1.257l-.013-2.567 1.27-1.213-.012-1.302H26.97V2.515l-1.245-1.213z" overflow="visible" fill="#fff" fill-rule="evenodd"/></svg>