<svg height="16" width="16" xmlns="http://www.w3.org/2000/svg" xmlns:xlink="http://www.w3.org/1999/xlink"><radialGradient id="a" cx="8" cy="0" gradientTransform="matrix(.00000003 3.3846154 -3.6923077 .00000003 8 -27.076923)" gradientUnits="userSpaceOnUse" r="6.5"><stop offset="0" stop-color="#fafafa"/><stop offset="1" stop-color="#e1e1e1"/></radialGradient><linearGradient id="b" gradientUnits="userSpaceOnUse" x1="8" x2="8" y1="3" y2="13"><stop offset="0" stop-color="#fff"/><stop offset="0" stop-color="#fff" stop-opacity=".23529"/><stop offset="1" stop-color="#fff" stop-opacity=".15686"/><stop offset="1" stop-color="#fff" stop-opacity=".39216"/></linearGradient><radialGradient id="c" cx="7.4957" cy="8.4498" gradientTransform="matrix(0 .779 -.9889 -.00000001 17.656 -4.14483)" gradientUnits="userSpaceOnUse" r="20"><stop offset="0" stop-color="#5f5f5f"/><stop offset=".26238" stop-color="#4f4f4f"/><stop offset=".70495" stop-color="#3b3b3b"/><stop offset="1" stop-color="#2b2b2b"/></radialGradient><linearGradient id="d" gradientTransform="matrix(.4 0 0 .33333 -.3 .00007)" gradientUnits="userSpaceOnUse" x1="24" x2="24" y1="44" y2="3.899"><stop offset="0" stop-color="#272727"/><stop offset="1" stop-color="#454545"/></linearGradient><g stroke-linecap="round"><rect fill="url(#a)" height="13" rx="1" width="13" x="1.5" y="1.5"/><rect fill="none" height="13" opacity=".4" rx="1" stroke="#000" stroke-linejoin="round" width="13" x="1.5" y="1.5"/><path d="m3.5 1.50007v13h-1.6c-.22834 0-.4-.13759-.4-.31707v-12.683z" fill="url(#c)" stroke="url(#d)" stroke-linejoin="round"/><g fill="none"><g opacity=".1" stroke="#000" transform="translate(0 1)"><path d="m11.779 7.5039c1.221 0 1.221 3.0461-.279 3.0271"/><path d="m5.4441 8.4999h5.0559"/><path d="m6.5269 10.5h2.9731"/><path d="m4.5 12.5h7"/><path d="m6.5 5.5s.5-.96875 1-1 1.0641-1 1.0641-1"/><path d="m8.5 6.5s.5-1 1-1 .93834-1.0361.93834-1.0361"/></g><g stroke="#3689e6"><path d="m11.779 7.5039c1.221 0 1.221 3.0461-.279 3.0271"/><path d="m5.4441 8.4999h5.0559"/><path d="m6.5269 10.5h2.9731"/><path d="m4.5 12.5h7"/></g><g stroke="#f37329"><path d="m6.5 5.5s.5-.96875 1-1 1.0641-1 1.0641-1"/><path d="m8.5 6.5s.5-1 1-1 .93834-1.0361.93834-1.0361"/></g><path d="m2.5 2.5h11v11h-11z" opacity=".5" stroke="url(#b)" stroke-linejoin="round"/></g></g></svg>