<svg height="32" width="32" xmlns="http://www.w3.org/2000/svg" xmlns:xlink="http://www.w3.org/1999/xlink"><linearGradient id="a"><stop offset="0"/><stop offset="1" stop-opacity="0"/></linearGradient><linearGradient id="b" gradientTransform="matrix(.56756757 0 0 .72972971 2.378382 -2.513506)" gradientUnits="userSpaceOnUse" x1="23.99999" x2="23.99999" y1="6.185175" y2="41.814808"><stop offset="0" stop-color="#fff"/><stop offset="0" stop-color="#fff" stop-opacity=".235294"/><stop offset=".99999994" stop-color="#fff" stop-opacity=".156863"/><stop offset="1" stop-color="#fff" stop-opacity=".392157"/></linearGradient><linearGradient id="c" gradientTransform="matrix(.6857127 0 0 .65185065 .042895 -1.144419)" gradientUnits="userSpaceOnUse" x1="25.132275" x2="25.132275" y1=".985206" y2="47.013336"><stop offset="0" stop-color="#f4f4f4"/><stop offset="1" stop-color="#dbdbdb"/></linearGradient><radialGradient id="d" cx="605.71429" cy="486.64789" gradientTransform="matrix(.01566318 0 0 .00823529 17.610433 25.980565)" gradientUnits="userSpaceOnUse" r="117.14286" xlink:href="#a"/><radialGradient id="e" cx="605.71429" cy="486.64789" gradientTransform="matrix(-.01566318 0 0 .00823529 14.389566 25.980565)" gradientUnits="userSpaceOnUse" r="117.14286" xlink:href="#a"/><linearGradient id="f" gradientTransform="matrix(.04576928 0 0 .00823529 -.542324 25.980548)" gradientUnits="userSpaceOnUse" x1="302.85715" x2="302.85715" y1="366.64789" y2="609.50507"><stop offset="0" stop-opacity="0"/><stop offset=".5"/><stop offset="1" stop-opacity="0"/></linearGradient><linearGradient id="g" gradientTransform="matrix(.53064141 0 0 .58970049 39.269607 -1.791918)" gradientUnits="userSpaceOnUse" x1="-51.786404" x2="-51.786404" y1="50.786446" y2="2.906247"><stop offset="0" stop-opacity=".317829"/><stop offset="1" stop-opacity=".24031"/></linearGradient><radialGradient id="h" cx="8.276144" cy="9.994116" gradientTransform="matrix(0 5.4038149 -6.6046736 0 142.06621 -52.987684)" gradientUnits="userSpaceOnUse" r="12.671875"><stop offset="0" stop-color="#f89b7e"/><stop offset=".26238" stop-color="#e35d4f"/><stop offset=".66093999" stop-color="#c6262e"/><stop offset="1" stop-color="#690b2c"/></radialGradient><radialGradient id="i" cx="5.615514" cy="9.957108" fx="5.085284" gradientTransform="matrix(-.00000002 5.4714347 -6.7171728 -.00000002 82.875925 -48.791584)" gradientUnits="userSpaceOnUse" r="12.671875"><stop offset="0" stop-color="#ffcd7d"/><stop offset=".26238" stop-color="#ffa154"/><stop offset=".704952" stop-color="#f37329"/><stop offset="1" stop-color="#cc3b02"/></radialGradient><linearGradient id="j" gradientTransform="matrix(1 0 0 -1 -16.999999 48.999999)" gradientUnits="userSpaceOnUse" x1="42.783993" x2="38.972309" y1="32.537422" y2="18.12406"><stop offset="0" stop-color="#fcfcfc"/><stop offset="1" stop-color="#cbcdd9"/></linearGradient><linearGradient id="k" gradientTransform="matrix(.99749995 0 0 -.99749995 -16.923748 48.896056)" gradientUnits="userSpaceOnUse" x1="40.105618" x2="33.811069" y1="31.65719" y2="18.353575"><stop offset="0" stop-color="#fff"/><stop offset="1" stop-color="#fff" stop-opacity="0"/></linearGradient><path d="m4.949989 29h22.100021v2h-22.100021z" fill="url(#f)" opacity=".15"/><path d="m4.9499887 29.000086v1.99989c-.806615.0038-1.950002-.448074-1.950002-1.000074s.900121-.999816 1.950002-.999816z" fill="url(#e)" opacity=".15"/><path d="m27.050011 29.000086v1.99989c.806614.0038 1.950002-.448074 1.950002-1.000074s-.900122-.999816-1.950002-.999816z" fill="url(#d)" opacity=".15"/><path d="m4.5.5c5.4996175 0 23.999971.001918 23.999971.001918l.000029 29.998082s-15.999999 0-24 0c0-10 0-19.999997 0-29.99999561z" fill="url(#c)" stroke-width="1.081125"/><path d="m26.5 28.5h-21v-27h21z" fill="none" stroke="url(#b)" stroke-linecap="round"/><path d="m4.499961.499944c5.27048 0 23.000054.002 23.000054.002l.000024 28.998112s-15.333385 0-23.000078 0c0-9.666722 0-19.333346 0-28.999956z" fill="none" stroke="url(#g)" stroke-linejoin="round" stroke-width=".999922"/><path d="m77 8.5000001-9 1.6071429v11.785714l9 1.607143zm1.816667 2.1428569c-.170607.0017-.343939.01015-.516667.01674l-.366667.01674v1.356027 1.356027l-.06667.03348c.531627.06704 1.782304.04693 2.616666-.03348 2.244571-.216272 3.659367-.835729 3.416671-1.489954-.272284-.733978-2.524226-1.277531-5.083333-1.25558zm5.183333 2.239956-.2.234375c-.263492.318187-.990899.568596-1.883333.765626-.551416.121738-1.147144.16782-2.516667.200892l-1.466667.03348v.744419 1.037946l1.416667-.05022c1.386317-.03297 1.926936-.0807 2.55-.217634.899039-.197593 1.599458-.481437 1.866667-.770089l.183333-.200894.03333-1.088169zm-12.120621.945842h.533333c.444235 0 .549952.02083.583333.133928.02219.07519.332864 1.229353.7 2.561384s.681403 2.45745.7 2.511161c.02464.07114-.09268.104939-.416666.100446-.24463-.0034-.482912-.02957-.533334-.05022-.0504-.02065-.141632-.299714-.216666-.619419l-.15-.569197h-.7-.716667l-.116667.518973-.1.535715-.5.01674-.483333.01674.03333-.133929c.02341-.07734.297712-1.059152.6-2.176339s.602614-2.201869.666667-2.427455zm.5 1.205357c-.02192.0061-.124272.345054-.233334.78683-.116325.47123-.227509.912528-.25.987724-.036.120334.02558.180573.466667.150669h.5l-.233333-.920759c-.125371-.504882-.237936-.962922-.25-1.004464zm11.620621.31333c-.237288 0-.233333.251116-.233333.251116-.608457.661848-2.572125 1.078102-4.983334 1.0542l-.8-.01674-.03333.619663-.01667 1.004465.133333.05022c.291413.08836 2.738665-.02429 3.433333-.15067.969736-.176426 1.858324-.477872 2.183333-.753348l.266668-.234373.03333-1.104911zm0 2.383015-.233333.284598c-.568118.657474-2.314305 1.045226-4.766667 1.054687h-1.066666v.663617 1.021205l.08333.03348c.844061.06 1.151274.04652 2.183333-.03348 1.746543-.135379 3.080135-.491715 3.516667-.954241l.233336-.251116.03333-1.08817z" fill="url(#h)"/><path d="m10 10v11h11v-11zm3 2h1 2c1.104569 0 2 .895431 2 2s-.895431 2-2 2h-2v3h-1zm1 1v1 1h2c.552285 0 1-.447715 1-1s-.447715-1-1-1z" fill="url(#i)"/><path d="m13.5 30.5 15-15v15zm6.999999-3.000001h5v-4.999999z" fill="url(#j)" fill-rule="evenodd" opacity=".8" stroke="#83899a"/><path d="m15.713203 29.538323 11.845312-11.845312v11.845312z" fill="none" opacity=".4" stroke="url(#k)"/></svg>