<svg height="24" width="24" xmlns="http://www.w3.org/2000/svg" xmlns:xlink="http://www.w3.org/1999/xlink"><linearGradient id="a"><stop offset="0"/><stop offset="1" stop-opacity="0"/></linearGradient><linearGradient id="b" gradientTransform="matrix(.40540511 0 0 .51351351 2.269687 -.32432)" gradientUnits="userSpaceOnUse" x1="23.99999" x2="23.99999" y1="6.473675" y2="41.526306"><stop offset="0" stop-color="#fff"/><stop offset="0" stop-color="#fff" stop-opacity=".235294"/><stop offset="1" stop-color="#fff" stop-opacity=".156863"/><stop offset="1" stop-color="#fff" stop-opacity=".392157"/></linearGradient><radialGradient id="c" cx="605.71429" cy="486.64789" gradientTransform="matrix(.01204859 0 0 .0082353 13.238793 18.980564)" gradientUnits="userSpaceOnUse" r="117.14286" xlink:href="#a"/><radialGradient id="d" cx="605.71429" cy="486.64789" gradientTransform="matrix(-.01204859 0 0 .0082353 10.761206 18.980564)" gradientUnits="userSpaceOnUse" r="117.14286" xlink:href="#a"/><linearGradient id="e" gradientTransform="matrix(.0352071 0 0 .0082353 -.724852 18.980547)" gradientUnits="userSpaceOnUse" x1="302.85715" x2="302.85715" y1="366.64789" y2="609.50507"><stop offset="0" stop-opacity="0"/><stop offset=".5"/><stop offset="1" stop-opacity="0"/></linearGradient><linearGradient id="f"><stop offset="0" stop-color="#aaa"/><stop offset="1" stop-color="#c8c8c8"/></linearGradient><linearGradient id="g" gradientTransform="matrix(.53064133 0 0 .58970225 -14.725138 -17.791863)" gradientUnits="userSpaceOnUse" x1="13" x2="13" y1="26" y2="1"><stop offset="0"/><stop offset="1" stop-color="#525252"/></linearGradient><radialGradient id="h" cx="14.239056" cy="11.49049" gradientTransform="matrix(-.00099722 1.5574418 -2.9455946 -.00188603 41.839816 -17.188778)" gradientUnits="userSpaceOnUse" r="18.000002"><stop offset="0" stop-color="#6b6b6b"/><stop offset=".26238" stop-color="#525252"/><stop offset=".704952" stop-color="#4b4b4b"/><stop offset="1" stop-color="#3f3f3f"/></radialGradient><linearGradient id="i" gradientUnits="userSpaceOnUse" x1="9.781249" x2="9.781249" xlink:href="#f" y1="19" y2="-11"/><linearGradient id="j" gradientUnits="userSpaceOnUse" x1="15.781249" x2="15.781249" xlink:href="#f" y1="19" y2="-11"/><linearGradient id="k" gradientUnits="userSpaceOnUse" x1="9.781249" x2="9.781249" xlink:href="#f" y1="24" y2="-6"/><linearGradient id="l" gradientUnits="userSpaceOnUse" x1="15.781249" x2="15.781249" xlink:href="#f" y1="24" y2="-6"/><path d="m3.4999601 1.5000029c5.270486 0 17.0000509.0018 17.0000509.0018l.000027 20.9982321h-17.0000779v-21.0000781z" fill="url(#h)" stroke="url(#g)" stroke-linejoin="round" stroke-width=".999922"/><path d="m3.500001 22h16.999998v2h-16.999998z" fill="url(#e)" opacity=".15"/><path d="m3.4999999 22.000085v1.999891c-.6204724.0038-1.4999999-.448075-1.4999999-1.000075 0-.551999.6924-.999816 1.4999999-.999816z" fill="url(#d)" opacity=".15"/><path d="m20.5 22.000085v1.999891c.620472.0038 1.5-.448075 1.5-1.000075 0-.551999-.692402-.999816-1.5-.999816z" fill="url(#c)" opacity=".15"/><path d="m19.5 21.5h-15.0000004v-19h15.0000004z" fill="none" opacity=".5" stroke="url(#b)" stroke-linecap="round"/><path d="m6 4h8.36l3.64 3.846154v12.153846h-12z" fill="#fff"/><path d="m5.5 3.5h9.0625l3.9375 4.097561v12.90244h-13z" fill="#fff" opacity=".2" stroke="#000"/><path d="m7 10h4v4h-4z" fill="#3689e6"/><path d="m7 10.5h2.25zm2.5625 0h.46875zm-2.5625 2h1.21875zm1.53125 0h.78125zm1.09375 0h1.09375z" fill="none" stroke="url(#i)"/><path d="m13 10h4v4h-4z" fill="#3689e6"/><path d="m13 10.5h2.25zm2.5625 0h.46875zm-2.5625 2h1.21875zm1.53125 0h.78125zm1.09375 0h1.09375z" fill="none" stroke="url(#j)"/><path d="m7 15h4v4h-4z" fill="#3689e6"/><path d="m7 15.5h2.25zm2.5625 0h.46875zm-2.5625 2h1.21875zm1.53125 0h.78125zm1.09375 0h1.09375z" fill="none" stroke="url(#k)"/><path d="m13 15h4v4h-4z" fill="#3689e6"/><path d="m13 15.5h2.25zm2.5625 0h.46875zm-2.5625 2h1.21875zm1.53125 0h.78125zm1.09375 0h1.09375z" fill="none" stroke="url(#l)"/></svg>