<svg height="32" width="32" xmlns="http://www.w3.org/2000/svg" xmlns:xlink="http://www.w3.org/1999/xlink"><linearGradient id="a"><stop offset="0"/><stop offset="1" stop-opacity="0"/></linearGradient><linearGradient id="b" gradientTransform="matrix(.6886478 0 0 .5067185 -3.970884 4.455257)" gradientUnits="userSpaceOnUse" x1="29.9375" x2="30" y1="41" y2="49.999996"><stop offset="0" stop-color="#7a7a7a"/><stop offset="1" stop-color="#474747"/></linearGradient><linearGradient id="c" gradientTransform="matrix(.07635654 0 0 .02184879 1.402572 30.138555)" gradientUnits="userSpaceOnUse" x1="302.85715" x2="302.85715" y1="366.64789" y2="609.50507"><stop offset="0" stop-opacity="0"/><stop offset=".5"/><stop offset="1" stop-opacity="0"/></linearGradient><radialGradient id="d" cx="605.71429" cy="486.64789" gradientTransform="matrix(.04484747 0 0 .02184879 20.38888 30.138555)" gradientUnits="userSpaceOnUse" r="117.14286" xlink:href="#a"/><radialGradient id="e" cx="605.71429" cy="486.64789" gradientTransform="matrix(-.04484747 0 0 .02184879 37.61113 30.138555)" gradientUnits="userSpaceOnUse" r="117.14286" xlink:href="#a"/><radialGradient id="f" cx="10" cy="7.236837" gradientTransform="matrix(1.4045128 0 0 .9375 -4.045128 4.215466)" gradientUnits="userSpaceOnUse" r="16"><stop offset="0" stop-color="#e6e6e6"/><stop offset="1" stop-color="#c8c8c8"/></radialGradient><linearGradient id="g" gradientTransform="matrix(.58810697 0 0 .51394954 8.831942 .582795)" gradientUnits="userSpaceOnUse" x1="23.99999" x2="23.99999" y1="51.346149" y2="53.354122"><stop offset="0" stop-color="#fff"/><stop offset=".02116842" stop-color="#fff" stop-opacity=".235294"/><stop offset=".99223143" stop-color="#fff" stop-opacity=".156863"/><stop offset="1" stop-color="#fff" stop-opacity=".392157"/></linearGradient><linearGradient id="h" gradientTransform="matrix(.26232885 0 0 .42474288 5.066906 6.097143)" gradientUnits="userSpaceOnUse" x1="23.99999" x2="23.99999" y1="6.539108" y2="42.102226"><stop offset="0" stop-color="#fff"/><stop offset=".03367912" stop-color="#fff" stop-opacity=".235294"/><stop offset=".99223143" stop-color="#fff" stop-opacity=".156863"/><stop offset="1" stop-color="#fff" stop-opacity=".392157"/></linearGradient><radialGradient id="i" cx="58.19616294734" cy="190.31935357829" fx="59.6975472507" fy="191.3478168" gradientUnits="userSpaceOnUse" r="6.39660589751"><stop offset="0" stop-color="#eee"/><stop offset=".16" stop-color="#cecece"/><stop offset=".4675" stop-color="#888"/><stop offset="1" stop-color="#555"/></radialGradient><radialGradient id="j" cx="141.74666" cy="206.42612" gradientTransform="matrix(.24573995 -.00308859 .00181873 .17771138 -19.666102 -13.139935)" gradientUnits="userSpaceOnUse" r="78.728165" xlink:href="#k"/><linearGradient id="k"><stop offset="0" stop-color="#f5f5f5"/><stop offset=".47025558" stop-color="#e7e7e7"/><stop offset=".69348532" stop-color="#8c8c8c"/><stop offset=".83542866" stop-color="#ddd"/><stop offset="1" stop-color="#a8a8a8"/></linearGradient><radialGradient id="l" cx="142.62215" cy="191.85428" gradientTransform="matrix(.12330157 0 0 -.08625852 -2.074113 31.247748)" gradientUnits="userSpaceOnUse" r="78.728165" xlink:href="#k"/><radialGradient id="m" cx="127.31733" cy="143.82751" gradientTransform="matrix(.12092245 -.01546848 .00546562 .04607914 -4.416974 6.971993)" gradientUnits="userSpaceOnUse" r="78.728165"><stop offset="0" stop-color="#f5f5f5"/><stop offset=".27751356" stop-color="#e7e7e7"/><stop offset=".52359134" stop-color="#8c8c8c"/><stop offset="1" stop-color="#ddd"/><stop offset="1" stop-color="#a8a8a8"/></radialGradient><linearGradient id="n" gradientTransform="matrix(.79304646 0 0 .53932582 -.578337 8.471909)" gradientUnits="userSpaceOnUse" x1="7.0625" x2="24.6875" y1="35.28125" y2="35.28125"><stop offset="0"/><stop offset="1" stop-color="#bbb" stop-opacity="0"/></linearGradient><linearGradient id="o" gradientTransform="matrix(.79304646 0 0 .53932582 -1.209199 9.186958)" gradientUnits="userSpaceOnUse" x1="12.277412" x2="12.221823" y1="37.205811" y2="33.758667"><stop offset="0" stop-color="#eee"/><stop offset="1" stop-color="#eee" stop-opacity="0"/></linearGradient><path d="m31.502339 25.502101-4.681316-17.1208196c-.132372-.487549-.825771-.8833843-1.408711-.8833843h-18.9855897c-.8955749 0-1.4087718.1319037-1.597617.8833843l-4.33098234 17.1041506" fill="url(#f)"/><path d="m31.502339 25.502101-4.681316-17.12082c-.132372-.487549-.825771-.8833843-1.408711-.8833843h-18.9855897c-.8955749 0-1.4087718.1319037-1.597617.8833843l-4.33098234 17.104151z" fill="none" opacity=".35" stroke="#000" stroke-linecap="round" stroke-linejoin="round"/><g enable-background="new" transform="matrix(.6666596 0 0 .6259973 -3.333128 3.796978)"><path d="m10.565332 38.149361h36.869301v5.306134h-36.869301z" fill="url(#c)" opacity=".402062"/><path d="m47.41667 38.149545v5.30584c2.30953.01 5.58333-1.18877 5.58333-2.65326s-2.57726-2.65258-5.58333-2.65258z" fill="url(#d)" opacity=".402062"/><path d="m10.58333 38.149545v5.30584c-2.3095401.00999-5.58333-1.18877-5.58333-2.65326s2.5772699-2.65258 5.58333-2.65258z" fill="url(#e)" opacity=".402062"/></g><path d="m.5 25h31v1h-31z" fill="#d2d2d3" fill-rule="evenodd"/><path d="m.50764664 25.485779h30.98450536l-.619526 4.050331h-29.6765863z" fill="url(#b)" fill-rule="evenodd"/><g fill="none"><path d="m.50764664 25.5h30.98450536l-.619526 4h-29.6765863z" opacity=".5" stroke="#000" stroke-linejoin="round"/><path d="m6.4375 8.5c-.4014515 0-.6181328.05924-.625.0625-.00687.00326.045405-.1181812 0 .0625l-4.03125 15.875h28.40625l-4.34375-15.84375a1.0079748 1.0079748 0 0 1 0-.03125c.03231.119003.01552.065777-.09375 0-.109269-.065777-.275574-.125-.34375-.125z" opacity=".8" stroke="url(#h)" stroke-linecap="round" stroke-linejoin="round"/><path d="m2.0163276 28.5 27.9776234.000002c.07589-.199983.332492-2 .332492-2h-28.6075888s.1861288 1.491284.2974734 1.999998z" opacity=".2" stroke="url(#g)" stroke-linecap="round"/></g><g enable-background="new" transform="matrix(.06707933 0 0 .04653275 2.461163 -.213077)"><path d="m48.2999 190.27968c.31446 4.2476 5.02375 7.71156 10.51419 7.71156 5.48794 0 9.6432-3.46396 9.27634-7.71156-.36437-4.22514-5.07117-7.6367-10.5067-7.6367-5.43803.002-9.59329 3.41156-9.28383 7.6367z" fill="#f0f0f0"/><path d="m51.85122 187.29238c-.50163.53906-1.07563 1.40256-1.07563 2.55056 0 .0824.005.16471.01.25206.21713 2.9274 3.89322 5.40059 8.02602 5.40059 2.3534 0 4.50465-.81109 5.75248-2.17371.53656-.58149 1.148-1.54481 1.03819-2.82758-.25206-2.90244-3.92316-5.35567-8.02103-5.35567-2.33593.002-4.47969.8061-5.73001 2.15375z" fill="url(#i)"/></g><g enable-background="new" transform="matrix(.06707933 0 0 .04653275 21.361163 -.213077)"><path d="m48.2999 190.27968c.31446 4.2476 5.02375 7.71156 10.51419 7.71156 5.48794 0 9.6432-3.46396 9.27634-7.71156-.36437-4.22514-5.07117-7.6367-10.5067-7.6367-5.43803.002-9.59329 3.41156-9.28383 7.6367z" fill="#e6e6e6"/><path d="m51.85122 187.29238c-.50163.53906-1.07563 1.40256-1.07563 2.55056 0 .0824.005.16471.01.25206.21713 2.9274 3.89322 5.40059 8.02602 5.40059 2.3534 0 4.50465-.81109 5.75248-2.17371.53656-.58149 1.148-1.54481 1.03819-2.82758-.25206-2.90244-3.92316-5.35567-8.02103-5.35567-2.33593.002-4.47969.8061-5.73001 2.15375z" fill="url(#i)"/></g><path d="m19.336526 8.8770488c-.355386 0-.676107.079816-.928229.2151639-.252122.1353481-.450996.3589057-.464114.6454918-.03156.6872365-.534108 1.2055085-1.485167 1.6905735-.944959.481955-2.310627.884093-3.960445 1.260246-.01065.0025-.02027-.0025-.03094 0-.61424.09563-1.639162.338694-2.6299828.614754-.9900715.275852-1.9002106.582901-2.3205731.799181-.00501.0026-.02607-.0026-.030941 0-2.0908692.985983-3.4038905 2.31632-3.5891532 3.811475-.1695113 1.367877.6407934 2.726175 2.1968093 3.780738 2.2753563 1.542136 5.9584838 2.428278 9.9011118 2.428278 3.942638 0 7.655543-.885554 9.932053-2.428278 1.421291-.963065 2.19681-2.165837 2.19681-3.411886 0-.136319-.01919-.267014-.03094-.368852-.16195-1.307361-1.185188-2.506093-2.846572-3.442623-.051785-.542502-.464115-4.7643442-.464115-4.7643442-.027191-.2857519-.239083-.4806453-.495055-.6147541-.255973-.1341088-.574262-.2151639-.92823-.2151639zm0 .6454918h4.022327c.08203 0 .141479.019416.185646.030738l.464115 5.0102464a.24961549.24797561 0 0 0 0 .03074.24961549.24797561 0 0 0 .03094.06147.24961549.24797561 0 0 0 .09282.09221c1.629421.830491 2.592536 2.08238 2.722806 3.135245.0812.65489-.137335 1.256634-.61882 1.813525-.481485.55689-1.246727 1.052546-2.22775 1.47541-1.962046.845726-4.788487 1.352459-8.013713 1.352459-3.225221 0-6.0516983-.506733-8.0137123-1.352459-.981003-.422858-1.7462456-.918511-2.2277462-1.475404-.4815006-.556894-.6999558-1.158632-.6188195-1.813525.139866-1.128411 1.1962103-2.431816 3.0322156-3.288934a.24961549.24797561 0 0 0 .030941 0c.00415-.0028.09987-.0465.2165869-.09221.1167171-.04571.284163-.124099.4641145-.184426.3599031-.120656.8120989-.259866 1.299521-.399591.974843-.279447 2.060317-.539415 2.599042-.614754a.24961549.24797561 0 0 0 .03094 0c1.594815-.361773 3.12557-.794486 4.300795-1.383196 1.129834-.565973 1.934524-1.327265 2.042105-2.3668037.02919-.010844.09419-.030738.185645-.030738z" fill="url(#j)" stroke-width=".986854"/><path d="m15.999844 19.999941c-2.243306 0-3.963027-.835988-3.999283-1.944843-.000281-.01241-.000561-.02383-.000561-.0355 0-.401251.225403-.782854.653714-1.105962.724529-.546168 1.975473-.872168 3.34641-.872168 1.370667 0 2.6216.326 3.34613.872168.440961.332193.666925.72704.653152 1.14131-.03683 1.108867-1.756538 1.945054-3.999562 1.945054v-.000062zm.06699-2.717582c-2.107848 0-3.248681.207967-3.22338.964372.02444.744615 1.437543 1.33956 3.156421 1.33956 1.718879 0 3.131975-.595156 3.156422-1.33956.02502-.756604-.981616-.964372-3.089463-.964372z" fill="url(#l)"/><path d="m7.4063052 9.1144548a.08585433.08081659 0 0 0 -.029877.028124.08585433.08081659 0 0 0 -.029877.028124l-.0896315.1968678-.9560672 2.9248934-.1792626.478108a.08585433.08081659 0 0 0 0 .02812.08585433.08081659 0 0 0 0 .02812.08585433.08081659 0 0 0 .029877.02812.08585433.08081659 0 0 0 .029877.02812.08585433.08081659 0 0 0 .029877 0 .08585433.08081659 0 0 0 .029877 0l.478034-.112496 8.2759561-1.828059h.02988a.08585433.08081659 0 0 0 .02988 0c.467745-.1943.746882-.618674.806676-.9843388.02952-.1808192.01927-.3384977-.05975-.5062317-.0843-.1790222-.305118-.3426502-.537788-.3374877h-.029881-7.6186601-.1792626a.08585433.08081659 0 0 0 -.029877 0zm.3585252.3374877h7.4991516c-.01142.069979-.03087.209343-.08963.3656118s-.151426.2987827-.239017.3374877l-7.887555 1.743687z" fill="url(#m)"/><g enable-background="new" transform="matrix(-.09781119 0 0 .1076727 9.162211 3.181748)"><path d="m48.2999 190.27968c.31446 4.2476 5.02375 7.71156 10.51419 7.71156 5.48794 0 9.6432-3.46396 9.27634-7.71156-.36437-4.22514-5.07117-7.6367-10.5067-7.6367-5.43803.002-9.59329 3.41156-9.28383 7.6367z" fill="#e6e6e6"/><path d="m51.85122 187.29238c-.50163.53906-1.07563 1.40256-1.07563 2.55056 0 .0824.005.16471.01.25206.21713 2.9274 3.89322 5.40059 8.02602 5.40059 2.3534 0 4.50465-.81109 5.75248-2.17371.53656-.58149 1.148-1.54481 1.03819-2.82758-.25206-2.90244-3.92316-5.35567-8.02103-5.35567-2.33593.002-4.47969.8061-5.73001 2.15375z" fill="url(#i)"/></g><g enable-background="new" transform="matrix(.09781119 0 0 .1076727 22.777316 3.181748)"><path d="m48.2999 190.27968c.31446 4.2476 5.02375 7.71156 10.51419 7.71156 5.48794 0 9.6432-3.46396 9.27634-7.71156-.36437-4.22514-5.07117-7.6367-10.5067-7.6367-5.43803.002-9.59329 3.41156-9.28383 7.6367z" fill="#e6e6e6"/><path d="m51.85122 187.29238c-.50163.53906-1.07563 1.40256-1.07563 2.55056 0 .0824.005.16471.01.25206.21713 2.9274 3.89322 5.40059 8.02602 5.40059 2.3534 0 4.50465-.81109 5.75248-2.17371.53656-.58149 1.148-1.54481 1.03819-2.82758-.25206-2.90244-3.92316-5.35567-8.02103-5.35567-2.33593.002-4.47969.8061-5.73001 2.15375z" fill="url(#i)"/></g><path d="m4.699999 26h14.300001v3h-13.9774435z" fill="url(#n)" fill-rule="evenodd"/><path d="m5.0225554 28.999998s-.2150376-2.163497-.2150376-2.163497c1.4556584 1.714639 6.7945402 2.163497 10.4750742 2.163497z" fill="url(#o)" fill-rule="evenodd" opacity=".811429"/></svg>