<svg height="32" width="32" xmlns="http://www.w3.org/2000/svg" xmlns:xlink="http://www.w3.org/1999/xlink"><linearGradient id="a"><stop offset="0"/><stop offset="1" stop-opacity="0"/></linearGradient><linearGradient id="b" gradientTransform="matrix(.56756757 0 0 .72972971 2.378382 -2.513506)" gradientUnits="userSpaceOnUse" x1="23.99999" x2="23.99999" y1="6.185175" y2="41.814808"><stop offset="0" stop-color="#fff"/><stop offset="0" stop-color="#fff" stop-opacity=".235294"/><stop offset=".99999994" stop-color="#fff" stop-opacity=".156863"/><stop offset="1" stop-color="#fff" stop-opacity=".392157"/></linearGradient><linearGradient id="c" gradientTransform="matrix(.6571413 0 0 .63012228 .228607 -1.089605)" gradientUnits="userSpaceOnUse" x1="25.132275" x2="25.132275" y1=".985206" y2="47.013336"><stop offset="0" stop-color="#f4f4f4"/><stop offset="1" stop-color="#dbdbdb"/></linearGradient><radialGradient id="d" cx="605.71429" cy="486.64789" gradientTransform="matrix(.01566318 0 0 .00823529 17.610433 25.980565)" gradientUnits="userSpaceOnUse" r="117.14286" xlink:href="#a"/><radialGradient id="e" cx="605.71429" cy="486.64789" gradientTransform="matrix(-.01566318 0 0 .00823529 14.389566 25.980565)" gradientUnits="userSpaceOnUse" r="117.14286" xlink:href="#a"/><linearGradient id="f" gradientTransform="matrix(.04576928 0 0 .00823529 -.542324 25.980548)" gradientUnits="userSpaceOnUse" x1="302.85715" x2="302.85715" y1="366.64789" y2="609.50507"><stop offset="0" stop-opacity="0"/><stop offset=".5"/><stop offset="1" stop-opacity="0"/></linearGradient><linearGradient id="g" gradientTransform="matrix(.53064141 0 0 .58970049 39.269607 -1.791918)" gradientUnits="userSpaceOnUse" x1="-51.786404" x2="-51.786404" y1="50.786446" y2="2.906247"><stop offset="0" stop-opacity=".317829"/><stop offset="1" stop-opacity=".24031"/></linearGradient><radialGradient id="h" cx="5.615514" cy="9.957108" fx="5.085284" gradientTransform="matrix(-.00000002 5.4714347 -6.7171728 -.00000002 82.875925 -48.791584)" gradientUnits="userSpaceOnUse" r="12.671875"><stop offset="0" stop-color="#d1ff82"/><stop offset=".26238" stop-color="#9bdb4d"/><stop offset=".66093999" stop-color="#68b723"/><stop offset="1" stop-color="#3a9104"/></radialGradient><linearGradient id="i" gradientTransform="matrix(1 0 0 -1 -16.999999 48.999999)" gradientUnits="userSpaceOnUse" x1="42.783993" x2="38.972309" y1="32.537422" y2="18.12406"><stop offset="0" stop-color="#fcfcfc"/><stop offset="1" stop-color="#cbcdd9"/></linearGradient><linearGradient id="j" gradientTransform="matrix(.99749995 0 0 -.99749995 -16.923748 48.896056)" gradientUnits="userSpaceOnUse" x1="40.105618" x2="33.811069" y1="31.65719" y2="18.353575"><stop offset="0" stop-color="#fff"/><stop offset="1" stop-color="#fff" stop-opacity="0"/></linearGradient><path d="m4.949989 29h22.100021v2h-22.100021z" fill="url(#f)" opacity=".15"/><path d="m4.9499887 29.000086v1.99989c-.806615.0038-1.950002-.448074-1.950002-1.000074s.900121-.999816 1.950002-.999816z" fill="url(#e)" opacity=".15"/><path d="m27.050011 29.000086v1.99989c.806614.0038 1.950002-.448074 1.950002-1.000074s-.900122-.999816-1.950002-.999816z" fill="url(#d)" opacity=".15"/><path d="m4.5.5c5.2704667 0 22.999972.001854 22.999972.001854l.000028 28.998146s-15.333333 0-23 0c0-9.666666 0-19.333331 0-28.99999575z" fill="url(#c)" stroke-width="1.040573"/><path d="m26.5 28.5h-21v-27h21z" fill="none" stroke="url(#b)" stroke-linecap="round"/><path d="m4.499961.499944c5.27048 0 23.000054.002 23.000054.002l.000024 28.998112s-15.333385 0-23.000078 0c0-9.666722 0-19.333346 0-28.999956z" fill="none" stroke="url(#g)" stroke-linejoin="round" stroke-width=".999922"/><path d="m10 10v11h11v-11zm2.603516 2h1.921875l.443359.931641c.29799.613062.597254 1.148169.652344 1.193359.055091.045178.427613-.501415.8125-1.214844l.486328-.910156h1.929687c-.166308.285161-.394025.675858-.888671 1.470703l-1.183594 1.865235 1.183594 1.867187c.597099.946604 1.003792 1.649283 1.070312 1.796875h-1.876953c-.194474-.117834-.346126-.377003-.753906-1.142578-.350437-.657921-.687074-1.237173-.746094-1.283203-.058983-.046018-.400848.453523-.748047 1.097656-.266163.49378-.482857 1.00197-.625 1.328125h-2.201172l1.326172-1.888672 1.09375-1.728516-.96875-1.658203c-.508534-.878059-.895314-1.606407-.927734-1.724609z" fill="url(#h)"/><path d="m13.5 30.5 15-15v15zm6.999999-3.000001h5v-4.999999z" fill="url(#i)" fill-rule="evenodd" opacity=".8" stroke="#83899a"/><path d="m15.713203 29.538323 11.845312-11.845312v11.845312z" fill="none" opacity=".4" stroke="url(#j)"/></svg>