<svg height="128" width="128" xmlns="http://www.w3.org/2000/svg" xmlns:xlink="http://www.w3.org/1999/xlink"><linearGradient id="a" gradientTransform="matrix(2.2144204 0 0 3.4699564 10.750311 -67.821123)" gradientUnits="userSpaceOnUse" x1="16.626165" x2="20.054544" y1="15.298182" y2="24.627615"><stop offset="0" stop-color="#fff"/><stop offset="1" stop-color="#fff" stop-opacity="0"/></linearGradient><linearGradient id="b" gradientUnits="userSpaceOnUse" x1="63.999977" x2="63.999977" y1="-48.864867" y2="54.864895"><stop offset="0" stop-color="#fff"/><stop offset=".06316455" stop-color="#fff" stop-opacity=".235294"/><stop offset=".95056331" stop-color="#fff" stop-opacity=".156863"/><stop offset="1" stop-color="#fff" stop-opacity=".392157"/></linearGradient><radialGradient id="c" cx="7.495683" cy="8.449767" gradientTransform="matrix(.00000005 6.1720513 -6.5292943 -.00000011 119.17132 -93.225249)" gradientUnits="userSpaceOnUse" r="19.99999"><stop offset="0" stop-color="#6b6b6b"/><stop offset=".26238" stop-color="#525252"/><stop offset=".704952" stop-color="#4b4b4b"/><stop offset="1" stop-color="#3f3f3f"/></radialGradient><linearGradient id="d" gradientUnits="userSpaceOnUse" x1="64.000014" x2="64.000014" y1="55.820528" y2="-50.08725"><stop offset="0"/><stop offset="1" stop-color="#525252"/></linearGradient><radialGradient id="e" cx="4.992979" cy="43.5" gradientTransform="matrix(2.003784 0 0 1.4 27.98813 -17.4)" gradientUnits="userSpaceOnUse" r="2.5" xlink:href="#f"/><linearGradient id="f"><stop offset="0" stop-color="#181818"/><stop offset="1" stop-color="#181818" stop-opacity="0"/></linearGradient><radialGradient id="g" cx="4.992979" cy="43.5" gradientTransform="matrix(2.003784 0 0 1.4 -20.01187 -104.4)" gradientUnits="userSpaceOnUse" r="2.5" xlink:href="#f"/><linearGradient id="h" gradientUnits="userSpaceOnUse" x1="25.058096" x2="25.058096" y1="47.027729" y2="39.999443"><stop offset="0" stop-color="#181818" stop-opacity="0"/><stop offset=".5" stop-color="#181818"/><stop offset="1" stop-color="#181818" stop-opacity="0"/></linearGradient><radialGradient id="i" cx="25" cy="8" gradientTransform="matrix(.0000001 4.7750871 -6.3667826 .00000013 117.64014 -162.37718)" gradientUnits="userSpaceOnUse" r="17"><stop offset="0" stop-color="#fff"/><stop offset="1" stop-color="#fff" stop-opacity=".908397"/></radialGradient><g transform="translate(0 64)"><g opacity=".4" transform="matrix(3.10526314 0 0 1.57142851 -10.526316 -14.857139)"><path d="m38 40h5v7h-5z" fill="url(#e)"/><path d="m-10-47h5v7h-5z" fill="url(#g)" transform="scale(-1)"/><path d="m10 40h28v7.000001h-28z" fill="url(#h)"/></g><path d="m18-42.999994h61.152918l30.847082 29.764702v62.235292h-92z" fill="#fff"/><rect fill="url(#c)" height="103" rx="6" stroke="url(#d)" stroke-linecap="round" stroke-linejoin="round" width="103" x="12.5" y="-48.5"/><rect fill="none" height="101" opacity=".5" rx="5" stroke="url(#b)" stroke-linecap="round" stroke-linejoin="round" width="101" x="13.5" y="-47.5"/><path d="m17.5-43.499995h61.944628l31.055372 30.557142v62.442852h-93z" fill="#fff" opacity=".2" stroke="#000"/><path d="m17.680826-48c-1.82309 0-4.680826 2.433241-4.680826 4.8l.03394 59.2c2.934294-.064449 99.73886-23.591754 101.96606-24.723443v-34.476557c0-1.809077-2.133-4.8-3.71161-4.8z" fill="url(#a)" fill-rule="evenodd" opacity=".2"/><path d="m18-43.000009h61.152937l30.847063 29.764709v62.2353h-92z" fill="url(#i)"/></g></svg>