<svg xmlns="http://www.w3.org/2000/svg" xmlns:xlink="http://www.w3.org/1999/xlink" width="24" height="24"><linearGradient id="a"><stop offset="0"/><stop offset="1" stop-opacity="0"/></linearGradient><linearGradient id="j" x1="24" x2="24" y1="6.474" y2="41.526" gradientTransform="matrix(.4054 0 0 .51351 2.27 -.324)" gradientUnits="userSpaceOnUse"><stop offset="0" stop-color="#fff"/><stop offset="0" stop-color="#fff" stop-opacity=".235"/><stop offset="1" stop-color="#fff" stop-opacity=".157"/><stop offset="1" stop-color="#fff" stop-opacity=".392"/></linearGradient><radialGradient xlink:href="#a" id="i" cx="605.714" cy="486.648" r="117.143" gradientTransform="matrix(.01205 0 0 .00824 13.239 18.98)" gradientUnits="userSpaceOnUse"/><radialGradient xlink:href="#a" id="h" cx="605.714" cy="486.648" r="117.143" gradientTransform="matrix(-.01205 0 0 .00824 10.761 18.98)" gradientUnits="userSpaceOnUse"/><linearGradient id="d" x1="302.857" x2="302.857" y1="366.648" y2="609.505" gradientTransform="matrix(.0352 0 0 .00824 -.725 18.98)" gradientUnits="userSpaceOnUse"><stop offset="0" stop-opacity="0"/><stop offset=".5"/><stop offset="1" stop-opacity="0"/></linearGradient><linearGradient id="c" x1="13" x2="13" y1="26" y2="1" gradientTransform="matrix(.53064 0 0 .5897 -14.725 -17.792)" gradientUnits="userSpaceOnUse"><stop offset="0"/><stop offset="1" stop-color="#525252"/></linearGradient><radialGradient id="b" cx="14.239" cy="11.49" r="18" gradientTransform="matrix(-.001 1.55744 -2.9456 -.00189 41.84 -17.189)" gradientUnits="userSpaceOnUse"><stop offset="0" stop-color="#6b6b6b"/><stop offset=".262" stop-color="#525252"/><stop offset=".705" stop-color="#4b4b4b"/><stop offset="1" stop-color="#3f3f3f"/></radialGradient><path fill="url(#b)" stroke="url(#c)" stroke-linejoin="round" d="m3.5 1.5 17 .002V22.5h-17z"/><path fill="url(#d)" d="M3.5 22h17v2h-17z" opacity=".15"/><path fill="url(#h)" d="M3.5 22v2c-.62.004-1.5-.448-1.5-1s.692-1 1.5-1" opacity=".15"/><path fill="url(#i)" d="M20.5 22v2c.62.004 1.5-.448 1.5-1s-.692-1-1.5-1" opacity=".15"/><path fill="none" stroke="url(#j)" stroke-linecap="round" d="M19.5 21.5h-15v-19h15z" opacity=".5"/><g fill="#fff"><path d="M6 4h8.36L18 7.846V20H6z"/><path stroke="#000" d="M5.5 3.5h9.063L18.5 7.598V20.5h-13z" opacity=".2"/></g></svg>