<svg viewBox="0 0 24 24" xmlns="http://www.w3.org/2000/svg" xmlns:xlink="http://www.w3.org/1999/xlink"><linearGradient id="a" gradientTransform="matrix(.8047894 0 0 .60165743 -1656.2775 -1929.7075)" gradientUnits="userSpaceOnUse" x1="2072.9368" x2="2073.0168" y1="3213.1394" y2="3241.4932"><stop offset="0" stop-color="#ed5353"/><stop offset="1" stop-color="#c6262e"/></linearGradient><linearGradient id="b" gradientUnits="userSpaceOnUse" x1="12.223733" x2="11.881584" y1="5.983051" y2="18.17975"><stop offset="0" stop-color="#fff"/><stop offset=".507761" stop-color="#fff" stop-opacity=".235294"/><stop offset=".83456558" stop-color="#fff" stop-opacity=".156863"/><stop offset="1" stop-color="#fff" stop-opacity=".4"/></linearGradient><g transform="matrix(1.1111111 0 0 1.1111111 -1.333333 -1.333333)"><path d="m12 3.5016394a8.4983518 8.4983517 0 0 0 -8.4983606 8.4983606 8.4983518 8.4983517 0 0 0 8.4983606 8.498361 8.4983518 8.4983517 0 0 0 8.498361-8.498361 8.4983518 8.4983517 0 0 0 -8.498361-8.4983606z" fill="url(#a)" stroke="#7a0000" stroke-opacity=".569767" stroke-width="1.003279"/><g fill="none" stroke-linecap="round"><g opacity=".15" stroke="#7a0000" transform="translate(0 .9)"><path d="m16 16-8-7.9999999"/><path d="m8 16 8-7.9999998"/></g><g stroke="#fff"><path d="m16 16-8-7.9999999"/><path d="m8 16 8-7.9999998"/></g></g><path d="m12 4.0000001a8 8 0 0 0 -8 7.9999999 8 8 0 0 0 8 8 8 8 0 0 0 8-8 8 8 0 0 0 -8-7.9999999zm0 1a7 7 0 0 1 7 6.9999999 7 7 0 0 1 -7 7 7 7 0 0 1 -7-7 7 7 0 0 1 7-6.9999999z" fill="url(#b)" opacity=".4"/></g></svg>