<svg viewBox="0 0 24 24" xmlns="http://www.w3.org/2000/svg" xmlns:xlink="http://www.w3.org/1999/xlink"><linearGradient id="a" gradientTransform="matrix(.8047894 0 0 .60165743 -1656.2775 -1929.7075)" gradientUnits="userSpaceOnUse" x1="12.976272" x2="15.508474" y1="3.762712" y2="19.779661"><stop offset="0" stop-color="#ed5353"/><stop offset="1" stop-color="#c6262e"/></linearGradient><linearGradient id="b" gradientTransform="translate(15.966107 -14.033898)" gradientUnits="userSpaceOnUse" x1="11.728284" x2="11.728284" y1="2.18179" y2="21.748316"><stop offset="0" stop-color="#fff"/><stop offset=".507761" stop-color="#fff" stop-opacity=".235294"/><stop offset=".83456558" stop-color="#fff" stop-opacity=".156863"/><stop offset="1" stop-color="#fff" stop-opacity=".4"/></linearGradient><linearGradient id="c" gradientUnits="userSpaceOnUse" x1="12" x2="12.298529" xlink:href="#b" y1="4" y2="19.76619"/><g transform="matrix(1.1111111 0 0 1.1111111 -1.333333 -1.333333)"><path d="m12 3.5016394a8.4983518 8.4983517 0 0 0 -8.4983606 8.4983606 8.4983518 8.4983517 0 0 0 8.4983606 8.498361 8.4983518 8.4983517 0 0 0 8.498361-8.498361 8.4983518 8.4983517 0 0 0 -8.498361-8.4983606z" fill="url(#a)" stroke="#7a0000" stroke-opacity=".569767" stroke-width="1.003279"/><g fill="none" stroke-linecap="round"><g opacity=".15" stroke="#7a0000" transform="translate(0 .9)"><path d="m16 16-8-7.9999999"/><path d="m8 16 8-7.9999998"/></g><path d="m16 16-8-7.9999999" stroke="#fff"/><path d="m8 16 8-7.9999998" stroke="#fff"/></g><path d="m12 4.0000001a8 8 0 0 0 -8 7.9999999 8 8 0 0 0 8 8 8 8 0 0 0 8-8 8 8 0 0 0 -8-7.9999999zm0 1a7 7 0 0 1 7 6.9999999 7 7 0 0 1 -7 7 7 7 0 0 1 -7-7 7 7 0 0 1 7-6.9999999z" fill="url(#c)" opacity=".4"/></g><path d="m37.466097-2.0342382c0 5.2468799-4.25361 9.5003399-9.49988 9.5003399-5.24675 0-9.50011-4.25351-9.50011-9.5003399 0-5.2466301 4.25336-9.4996598 9.50011-9.4996598 5.24627 0 9.49988 4.2530297 9.49988 9.4996598z" fill="none" opacity=".4" stroke="url(#b)" stroke-linecap="round" stroke-linejoin="round"/></svg>