<svg height="24" width="24" xmlns="http://www.w3.org/2000/svg" xmlns:xlink="http://www.w3.org/1999/xlink"><linearGradient id="a"><stop offset="0"/><stop offset="1" stop-opacity="0"/></linearGradient><linearGradient id="b" gradientTransform="matrix(.40540511 0 0 .51351351 2.269687 -.32432)" gradientUnits="userSpaceOnUse" x1="23.99999" x2="23.99999" y1="6.583334" y2="41.507179"><stop offset="0" stop-color="#fff"/><stop offset=".01246384" stop-color="#fff" stop-opacity=".235294"/><stop offset=".98888642" stop-color="#fff" stop-opacity=".156863"/><stop offset="1" stop-color="#fff" stop-opacity=".392157"/></linearGradient><linearGradient id="c" gradientTransform="matrix(.48571314 0 0 .456295 .342883 .348909)" gradientUnits="userSpaceOnUse" x1="25.132275" x2="25.132275" y1=".985206" y2="47.013336"><stop offset="0" stop-color="#f4f4f4"/><stop offset="1" stop-color="#dbdbdb"/></linearGradient><radialGradient id="d" cx="605.71429" cy="486.64789" gradientTransform="matrix(.01204859 0 0 .0082353 13.238793 18.980564)" gradientUnits="userSpaceOnUse" r="117.14286" xlink:href="#a"/><radialGradient id="e" cx="605.71429" cy="486.64789" gradientTransform="matrix(-.01204859 0 0 .0082353 10.761206 18.980564)" gradientUnits="userSpaceOnUse" r="117.14286" xlink:href="#a"/><linearGradient id="f" gradientTransform="matrix(.0352071 0 0 .0082353 -.724852 18.980547)" gradientUnits="userSpaceOnUse" x1="302.85715" x2="302.85715" y1="366.64789" y2="609.50507"><stop offset="0" stop-opacity="0"/><stop offset=".5"/><stop offset="1" stop-opacity="0"/></linearGradient><linearGradient id="g" gradientUnits="userSpaceOnUse" x1="16.570093" x2="16.570093" y1="1.607472" y2="22.542051"><stop offset="0" stop-opacity=".239"/><stop offset="1" stop-opacity=".318"/></linearGradient><linearGradient id="h" gradientUnits="userSpaceOnUse" x1="18.385599" x2="18.385599" y1="1.505811" y2="9.094664"><stop offset="0" stop-color="#fff"/><stop offset=".507761" stop-color="#fff" stop-opacity=".235294"/><stop offset=".83456558" stop-color="#fff" stop-opacity=".156863"/><stop offset="1" stop-color="#fff" stop-opacity=".392157"/></linearGradient><linearGradient id="i" gradientUnits="userSpaceOnUse" x1="18.5" x2="18.5" y1=".5" y2="10.472882"><stop offset="0" stop-color="#ed5353"/><stop offset="1" stop-color="#c6262e"/></linearGradient><path d="m3.500001 22h16.999998v2h-16.999998z" fill="url(#f)" opacity=".15"/><path d="m3.4999999 22.000085v1.999891c-.6204724.0038-1.4999999-.448075-1.4999999-1.000075 0-.551999.6924-.999816 1.4999999-.999816z" fill="url(#e)" opacity=".15"/><path d="m20.5 22.000085v1.999891c.620472.0038 1.5-.448075 1.5-1.000075 0-.551999-.692402-.999816-1.5-.999816z" fill="url(#d)" opacity=".15"/><path d="m3.5 1.5c3.8955625 0 16.999979.00137 16.999979.00137l.000021 20.99863s-11.3333329 0-17 0c0-6.999993 0-13.9999842 0-20.9999777z" fill="url(#c)" stroke-width="1.056232"/><path d="m19.5 21.5h-15.0000004v-19h15.0000004z" fill="none" stroke="url(#b)" stroke-linecap="round"/><path d="m3.4999601 1.4999569c3.8955809 0 17.0000589.00136 17.0000589.00136l.000021 20.9987161s-11.3333862 0-17.0000799 0c0-7.000018 0-14.000035 0-21.0000538z" fill="none" stroke="url(#g)" stroke-linejoin="round" stroke-width=".999922"/><path d="m17 12-5.000001 6-4.999999-6h3v-5h4v5z" fill="#7e8087"/><g transform="translate(0 12)"><path d="m18.5 2c-2.758827 0-5 2.241172-5 4.9999999 0 2.7588276 2.241173 5.0000011 5 5.0000001 2.758828 0 5.000002-2.2411725 5-5.0000001 0-2.7588279-2.241172-5-5-4.9999999z" opacity=".15"/><path d="m18.5.49999985c-2.758827 0-5 2.24117195-5 4.99999985 0 2.7588276 2.241173 5.0000013 5 5.0000003 2.758828 0 5.000002-2.2411727 5-5.0000003 0-2.7588279-2.241172-4.99999996-5-4.99999985z" fill="url(#i)"/><g fill="none" stroke-linecap="round" stroke-linejoin="round"><path d="m22.5 5.4998586c0 2.2092095-1.790992 4.000141-3.999949 4.000141-2.209158 0-4.000051-1.7909518-4.000051-4.000141 0-2.2091082 1.790893-3.9998583 4.000051-3.9998583 2.208957 0 3.999949 1.7907501 3.999949 3.9998583z" opacity=".5" stroke="url(#h)"/><path d="m18.5.499999c-2.758828 0-5 2.2411723-5 5.0000001 0 2.7588286 2.241172 5.0000019 5 5.0000009 2.758828 0 5.000002-2.2411723 5-5.0000009 0-2.7588278-2.241172-5.0000001-5-5.0000001z" opacity=".5" stroke="#6f0000"/></g></g></svg>