<svg viewBox="0 0 16 16" xmlns="http://www.w3.org/2000/svg" xmlns:xlink="http://www.w3.org/1999/xlink"><linearGradient id="a" gradientTransform="matrix(.59436 0 0 .5999 -19.268953 3.967)" gradientUnits="userSpaceOnUse" x1="25.132" x2="25.132" xlink:href="#f" y1="15.5" y2="48.396"/><linearGradient id="b" gradientUnits="userSpaceOnUse" x1="7.207569" x2="7.222524" xlink:href="#e" y1="1.088755" y2="6.505912"/><linearGradient id="c" gradientTransform="matrix(.98704 0 0 .88413 .089047 .65)" gradientUnits="userSpaceOnUse" x1="12" x2="12" xlink:href="#d" y1="2.5" y2="12"/><linearGradient id="d" gradientTransform="matrix(.98704 0 0 .88413 .089047 .65)" gradientUnits="userSpaceOnUse" x1="12" x2="12" y1="2.5" y2="12"><stop offset="0" stop-color="#fff"/><stop offset=".2631579" stop-color="#fff" stop-opacity=".235"/><stop offset=".951" stop-color="#fff" stop-opacity=".157"/><stop offset="1" stop-color="#fff" stop-opacity=".392"/></linearGradient><linearGradient id="e" gradientUnits="userSpaceOnUse" x1="7.207569" x2="7.222524" y1="1.088755" y2="6.505912"><stop offset="0" stop-color="#cd9ef7"/><stop offset="1" stop-color="#a56de2"/></linearGradient><linearGradient id="f" gradientTransform="matrix(.59436 0 0 .5999 -19.268953 3.967)" gradientUnits="userSpaceOnUse" x1="25.132" x2="25.132" y1="15.5" y2="48.396"><stop offset="0" stop-color="#fafafa"/><stop offset="1" stop-color="#e2e1de"/></linearGradient><g transform="translate(.003953 -2.02)"><rect fill="url(#a)" height="10" rx=".424" ry=".491" width="9.007906" x=".996047" y="3"/><path d="m.49609375 4c-.276 0-.50004901.224-.5.5l.00195312 10.998047c.00004901.276.224.5.50000001.5h10.00390612c.276 0 .500049-.224.5-.5l-.001953-10.998047c-.000049-.276-.224-.5-.5-.5zm.49804687.9980469h9.00781238v2.0019531h.994141v-2h-1.0000002v2h-4v-2h-1v2h-4.00195318zm0 3.0019531h4.00195318v3h-4.00000005zm5.00195318 0h4.0058592l.002 7h-9.00785925v-3h4.00000005l.00195 2.998047h1l-.00195-2.998047h4.0039062v-1h-4.0039062z" fill="#c1c1c1" transform="translate(0 -2)"/><path d="m.496047 2.52 10.003953-.02.003953 2.98-10.003953.02z" fill="url(#b)"/><path d="m.496047 2c-.27614237 0-.5.2238576-.5.5v3.5h.998v-3.002h9.007953v3.002h.998v-3.5c0-.2761424-.223858-.5-.5-.5zm4.5 1v2h-4v1h9.003953v-1h-4.003953v-2z" fill="#2f0064" opacity=".4"/><path d="m4.996047 2.494h1v3.074h-1z" fill="#2f0064" opacity=".4"/><path d="m1.5 3.5h8v9h-8z" fill="none" stroke="url(#c)" stroke-linecap="round" stroke-linejoin="round"/></g><path d="m4 2h7v10h-7z" opacity=".05"/><g transform="translate(5 2)"><rect fill="url(#f)" height="10" rx=".424" ry=".491" width="9.007906" x=".996047" y="3"/><path d="m.49609375 4c-.276 0-.50004901.224-.5.5l.00195312 10.998047c.00004901.276.224.5.50000001.5h10.00390612c.276 0 .500049-.224.5-.5l-.001953-10.998047c-.000049-.276-.224-.5-.5-.5zm.49804687.9980469h9.00781238v2.0019531h.994141v-2h-1.0000002v2h-4v-2h-1v2h-4.00195318zm0 3.0019531h4.00195318v3h-4.00000005zm5.00195318 0h4.0058592l.002 7h-9.00785925v-3h4.00000005l.00195 2.998047h1l-.00195-2.998047h4.0039062v-1h-4.0039062z" fill="#c1c1c1" transform="translate(0 -2)"/><path d="m.496047 2.52 10.003953-.02.003953 2.98-10.003953.02z" fill="url(#e)"/><path d="m.496047 2c-.27614237 0-.5.2238576-.5.5v3.5h.998v-3.002h9.007953v3.002h.998v-3.5c0-.2761424-.223858-.5-.5-.5zm4.5 1v2h-4v1h9.003953v-1h-4.003953v-2z" fill="#2f0064" opacity=".4"/><path d="m4.996047 2.494h1v3.074h-1z" fill="#2f0064" opacity=".4"/><path d="m1.5 3.5h8v9h-8z" fill="none" stroke="url(#d)" stroke-linecap="round" stroke-linejoin="round"/></g></svg>