<svg height="52" viewBox="0 0 60 52" width="60" xmlns="http://www.w3.org/2000/svg"><g stroke-linejoin="round"><g stroke-linecap="round"><path d="m21.5 21.5 4-4v-6l-4 4z" fill="#0063b1" stroke="#83beec"/><path d="m49.5 32.5v13h-14v-30h-14v6h-14l4-4h10v-2l4-4h14v30h10z" fill="#0063b1" stroke="#83beec"/><path d="m35.5 40.5 4-3.5v-20.5l-4 4z" fill="#ed8733" stroke="#f8db8f"/></g><path d="m49.5 27v-6.5h-14v20h-14v-7h-14l4-4h14v7h10v-16l4-4h14v6z" fill="#ed8733" stroke="#f8db8f"/><g stroke-linecap="round"><path d="m49.5 45.5 4-4v-13l-4 4z" fill="#0063b1" stroke="#83beec"/><g fill="none"><path d="m21.5 33.5 4-4" stroke="#f8db8f"/><path d="m21.5 40.5 4-4" stroke="#f8db8f"/><g stroke="#83beec"><path d="m35.5 45.5 4-4"/><path d="m35.5 15.5 4-4"/></g></g></g></g></svg>