<svg viewBox="0 0 32 32" xmlns="http://www.w3.org/2000/svg" xmlns:xlink="http://www.w3.org/1999/xlink"><linearGradient id="a" gradientTransform="matrix(.03006084 0 0 .01647058 6.122424 18.961097)" gradientUnits="userSpaceOnUse" x1="302.85715" x2="302.85715" y1="366.64789" y2="609.50507"><stop offset="0" stop-opacity="0"/><stop offset=".5"/><stop offset="1" stop-opacity="0"/></linearGradient><radialGradient id="b" cx="605.71429" cy="486.64789" gradientTransform="matrix(.03006084 0 0 .01647058 6.128339 18.961097)" gradientUnits="userSpaceOnUse" r="117.14286" xlink:href="#c"/><linearGradient id="c"><stop offset="0"/><stop offset="1" stop-opacity="0"/></linearGradient><radialGradient id="d" cx="605.71429" cy="486.64789" gradientTransform="matrix(-.03006084 0 0 .01647058 27.846203 18.961097)" gradientUnits="userSpaceOnUse" r="117.14286" xlink:href="#c"/><linearGradient id="e" gradientUnits="userSpaceOnUse" x1="20.027106" x2="19.97686" y1="5.376829" y2="28.888129"><stop offset="0" stop-color="#f4f4f4"/><stop offset="1" stop-color="#dbdbdb"/></linearGradient><linearGradient id="f" gradientUnits="userSpaceOnUse" x1="17.287067" x2="16.666738" xlink:href="#g" y1="28.04844" y2="-.017777"/><linearGradient id="g"><stop offset="0" stop-color="#8d8d8d"/><stop offset="1" stop-color="#c3c3c3"/></linearGradient><linearGradient id="h" gradientUnits="userSpaceOnUse" x1="15.400626" x2="15.70649" y1="6.91823" y2="26.982385"><stop offset="0" stop-color="#fff"/><stop offset="1" stop-color="#fff" stop-opacity=".247619"/></linearGradient><linearGradient id="i" gradientUnits="userSpaceOnUse" x1="17.118995" x2="17.177158" xlink:href="#g" y1="28.033362" y2="18.664197"/><path d="m9.7297243 25.000001h14.5150897v3.999999h-14.5150897z" fill="url(#a)" opacity=".5"/><path d="m24.244814 25.000139v3.999778c1.548059.0075 3.742453-.896147 3.742452-2.000146 0-1.103999-1.727517-1.999632-3.742452-1.999632z" fill="url(#b)" opacity=".5"/><path d="m9.7297245 25.000139v3.999778c-1.5480591.0075-3.7424526-.896147-3.7424526-2.000146s1.7275169-1.999632 3.7424526-1.999632z" fill="url(#d)" opacity=".5"/><path d="m6.4872673 4.500001c-1.5659848-.020723-2.0931425 1.5102894-1.969 3h1.969v18c0 .942809 1.057191 2 2 2h16.9999997v-20.7c0-.942809-1.357191-2.3-2.3-2.3z" fill="url(#e)" stroke="url(#f)" stroke-linecap="round" stroke-linejoin="round"/><path d="m9.9872673 7.000001v1h11.9999997v-1zm0 4v1h11.9999997v-1zm0 2v1h11.9999997v-1zm0 2v1h11.9999997v-1zm0 2v1h11.9999997v-1zm0 2v1h11.9999997v-1zm0 2v1h11.9999997v-1zm0 2v1h11.9999997v-1z" opacity=".1"/><path d="m7.9872673 7.000001v1h1v-1zm0 4v1h1v-1zm0 2v1h1v-1zm0 2v1h1v-1zm0 2v1h1v-1zm0 2v1h1v-1zm0 2v1h1v-1zm0 2v1h1v-1zm0 2v1h1v-1z" fill="#aaa"/><path d="m22.987267 7.000001v1h1v-1zm0 4v1h1v-1zm0 2v1h1v-1zm0 2v1h1v-1zm0 2v1h1v-1zm0 2v1h1v-1zm0 2v1h1v-1zm0 2v1h1v-1z" fill="#aaa"/><path d="m7.2762673 5.5001892c-1.5429433-.1071376-1.6798345.5800694-1.789.9998118h2v18.69c0 .853009.7408853 1.31 1.59 1.31h15.4099997v-19.39c0-.8530092-.751885-1.6098118-1.601-1.6098118z" fill="none" opacity=".604167" stroke="url(#h)" stroke-linecap="round" stroke-linejoin="round"/><path d="m10.487267 24.500001h17c .125 1.5-.408708 3.042536-2 3h-16.9999997c1.5112979 0 2.0040757-1.375 1.9999997-3z" fill="#c8c8c8" stroke="url(#i)" stroke-linecap="round" stroke-linejoin="round"/><rect fill="#fff" height=".933281" opacity=".7" rx=".3" width="16" x="10.987267" y="25.066721"/><path d="m8 9h1v1h-1z" fill="#aaa"/><path d="m23 9h1v1h-1z" fill="#aaa"/><path d="m10 9h12v1h-12z" fill="#dadada"/></svg>