<svg viewBox="0 0 16 16" xmlns="http://www.w3.org/2000/svg"><g fill="#4b4b4f"><path d="m7.2667029 7.9846468q0 3.0070832-.8778443 4.5012862-.8778442 1.484864-2.7549366 1.484864-1.8210598 0-2.71758152-1.428831-.89652174-1.428832-.93387682-4.2958337v-2.334692q0-2.9790671.87784421-4.4452537.88718303-1.4661866 2.75493663-1.4661866 1.8397373 0 2.7175815 1.3914765.887183 1.3914764.9338769 4.2117844zm-1.652962-2.3627083q0-2.1572555-.4762772-3.1751812-.4762772-1.0272645-1.5222192-1.0272645-1.0179257 0-1.4942029 1.008587-.4762772.9992482-.4949547 3.0257609v2.8016304q0 2.1479169.4949547 3.2312139.4949547 1.073958 1.5128804 1.073958 1.008587 0 1.4848642-1.017925.4762772-1.017926.4949547-3.1098103z" stroke-width=".478145"/><path d="m16.017536 7.9846468q0 3.0070832-.877844 4.5012862-.877844 1.484864-2.754936 1.484864-1.82106 0-2.717582-1.428831-.8965218-1.428832-.9338768-4.2958337v-2.334692q0-2.9790671.8778442-4.4452537.8871826-1.4661866 2.7549366-1.4661866 1.839737 0 2.717582 1.3914765.887183 1.3914764.933876 4.2117844zm-1.652962-2.3627083q0-2.1572555-.476277-3.1751812-.476277-1.0272645-1.522219-1.0272645-1.017926 0-1.494203 1.008587-.476277.9992482-.494955 3.0257609v2.8016304q0 2.1479169.494955 3.2312139.494955 1.073958 1.512881 1.073958 1.008587 0 1.484864-1.017925.476277-1.017926.494954-3.1098103z" stroke-width=".478145"/><path d="m9.6075014 26.817639-2.0507812-1.40625c1.2239583-1.70573 1.8619791-3.463542 1.9140625-5.273438l.028162-2.164641h3.5351562l-.02816 1.734954c-.02134 1.31493-.325521 2.630208-.976562 3.945312-.638021 1.315104-1.445313 2.369791-2.4218756 3.164063z" transform="matrix(.56533404 0 0 .56533404 1.631379 .839076)"/></g></svg>