<svg height="40" width="56" xmlns="http://www.w3.org/2000/svg" xmlns:xlink="http://www.w3.org/1999/xlink"><linearGradient id="a"><stop offset="0"/><stop offset="1" stop-opacity="0"/></linearGradient><linearGradient id="b" gradientTransform="matrix(1.5405406 0 0 1.216213 -4.972971 -14.189135)" gradientUnits="userSpaceOnUse" x1="23.99999" x2="23.99999" y1="5.864106" y2="42.100208"><stop offset="0" stop-color="#fff"/><stop offset=".01214366" stop-color="#fff" stop-opacity=".235294"/><stop offset=".98781353" stop-color="#fff" stop-opacity=".156863"/><stop offset="1" stop-color="#fff" stop-opacity=".392157"/></linearGradient><radialGradient id="c" cx="353.66858" cy="488.07422" gradientTransform="matrix(.03212956 0 0 .02058823 40.136784 28.451416)" gradientUnits="userSpaceOnUse" r="117.14286" xlink:href="#a"/><radialGradient id="d" cx="605.71429" cy="486.64789" gradientTransform="matrix(-.03212956 0 0 .02058823 23.863217 28.451416)" gradientUnits="userSpaceOnUse" r="117.14286" xlink:href="#a"/><linearGradient id="e" gradientTransform="matrix(.11390532 0 0 .02058823 -9.168641 28.451416)" gradientUnits="userSpaceOnUse" x1="302.85715" x2="302.85715" y1="366.64789" y2="609.50507"><stop offset="0" stop-opacity="0"/><stop offset=".5"/><stop offset="1" stop-opacity="0"/></linearGradient><linearGradient id="f" gradientTransform="matrix(.63433879 0 0 .49146613 -74.223948 -82.329154)" gradientUnits="userSpaceOnUse" x1="164.28023" x2="164.28023" y1="241.65149" y2="156.78416"><stop offset="0" stop-color="#d4d4d4"/><stop offset="1" stop-color="#fafafa"/></linearGradient><linearGradient id="g" gradientUnits="userSpaceOnUse" x1="38.5" x2="38.5" y1="16.5" y2="28.5"><stop offset="0" stop-color="#ffe16b"/><stop offset="1" stop-color="#f9c440"/></linearGradient><linearGradient id="h" gradientUnits="userSpaceOnUse" x1="46.5" x2="46.5" y1="28" y2="34.5"><stop offset="0" stop-color="#0d52bf"/><stop offset="1" stop-color="#3689e6"/></linearGradient><path d="m3.000023 1.996762 4.5 4.5h41l5-5h-51z" fill="#715344"/><path d="m4.5 36h47v5h-47z" fill="url(#e)" opacity=".15"/><path d="m4.5 36.000216v4.9997c-1.654593.01-4-1.1202-4-2.5002s1.8464008-2.4995 4-2.4995z" fill="url(#d)" opacity=".15"/><path d="m51.5 36.000216v4.9997c1.654592.01 4-1.1202 4-2.5002s-1.846401-2.4995-4-2.4995z" fill="url(#c)" opacity=".15"/><path d="m3.000023 1.996762 4.5 4.5-.000023 27.003238-5 5 .000023-37.003238z" fill="#8a715e"/><path d="m53.000023 1.996762-4.5 4.5-.000023 27.003238 5 5 .000023-37.003238z" fill="#8a715e"/><path d="m53 38-4.5-4.5h-41l-5 5h51z" fill="#a3907c"/><path d="m2.499985 1.4968c13.5199 0 51.000015.0032 51.000015.0032l.000038 37.00013h-51.0000761l.000023-37.003117z" fill="none" opacity=".5" stroke="#3d211b" stroke-linejoin="round" stroke-width=".999922"/><path d="m52.499993 37.500016h-49.0000004l.000023-35.003238h49.0000004z" fill="none" opacity=".3" stroke="url(#b)" stroke-linecap="round"/><path d="m7 6h42v28h-42z" fill="url(#f)"/><path d="m7.5 6.5h41v27h-41z" fill="none" opacity=".3" stroke="#000" stroke-linecap="round"/><path d="m12 11v1h8v-1zm10 0v1h5v-1zm7 0v1h5v-1zm7 0v1h8v-1z" fill="#555761"/><path d="m12 16v1h7v-1zm8 0v1h4v-1zm5 0v1h-6v-1zm-5 0v1h8v-1zm-8 3v1h4v-1zm5 0v1h5v-1zm6 0v1h2v-1zm-5 0v1h2v-1zm3 0v1h5v-1zm-9 3v1h8v-1zm9 0v1h3v-1zm4 0v1h-6v-1zm-5 0v1h3v-1zm4 0v1h3v-1zm-12 3v1h5v-1zm6 0v1h6v-1zm7 0v1h-2v-1z" fill="#7e8087"/><path d="m17.117188 28.142578c-.01422 0-.02909.0023-.04688.0059l-.144531.05273c-.09244.03556-.20934.07948-.351562.132812-.142223.05333-.300388.111782-.47461.175782-.170666.064-.336094.124754-.496093.18164-.0118.0049-.01549.01857-.02539.02539-.0106.0062-.02317.0027-.0332.01172-.03911.032-.08499.07097-.134766.117187-.04978.04266-.103269.08393-.160156.123047-.05689.03911-.113035.07542-.169922.107422-.05689.032-.110376.05148-.160156.05859.0071-.02133.01209-.04081.01563-.05859.01777-.03911.03691-.08269.05469-.128906l.0625-.138672c.05689-.142223.09586-.246898.117188-.314453.02135-.06755.02098-.126002-.0039-.175782-.01067-.01777-.02519-.03495-.04297-.05273-.01777-.01777-.04187-.03-.07031-.03711-.06044-.01778-.11163-.0029-.154296.04687l-.05859.05859c-.03911.03911-.0903.08994-.154297.150391-.064.06044-.139276.126505-.224609.201172-.08533.07467-.175485.152247-.271485.230469-.124444.096-.234078.176234-.330078.240234s-.181193.115184-.255859.154297c-.07111.03555-.136473.0623-.19336.08008-.05334.0178-.09726.02772-.132812.03125.0036-.01067.0062-.02058.0098-.03125s.01046-.02289.01758-.03711c.01777-.03911.03495-.08038.05273-.123047.02133-.04267.04081-.08624.05859-.128907.07111-.149333.11999-.263925.148437-.345703.03198-.08178.03431-.152444.0059-.21289-.02845-.06044-.07007-.09676-.126953-.107422-.120888-.03555-.254612-.01607-.40039.05859-.06044.02844-.118542.06475-.171875.107421-.05333.04267-.104517.08163-.154297.117188-.032.032-.05148.06866-.05859.111328-.0071.04267.0048.08163.0332.117188.02845.032.06511.05148.111328.05859.04267.0071.08164-.0028.117188-.03125.05333-.04266.104517-.08393.154297-.123047.05334-.04267.10417-.07206.15039-.08984-.01778.032-.03461.06601-.04883.101562-.01423.03555-.02875.06726-.04297.0957-.07822.16-.134368.291421-.169921.394532-.032.09956-.032.184748 0 .255859.02489.05689.06881.09355.132812.111328.02489.0071.04898.01209.07031.01563.02489.0035.05163.0059.08008.0059.273777-.000001.655817-.194476 1.146484-.582032.04622-.03911.08784-.07347.126953-.105468.04266-.032.08393-.06601.123047-.101563-.032.09244-.05379.168069-.06445.228516-.0071.05689.000151.110376.02148.160156.02489.04978.06616.08609.123047.107422.08533.02131.17283.02364.261719.0059.08889-.02134.176385-.05534.261719-.101562.08889-.04978.174432-.107875.259765-.171875.07459-.05905.148828-.121061.220703-.185547.101414-.03723.204703-.07676.3125-.117188.113778-.04266.225365-.08393.332032-.123047.110222-.04267.212593-.08163.308594-.117187.096-.03555.181192-.06726.255859-.0957-.01067.03556-.02289.07487-.03711.121093-.01422.04266-.0291.0958-.04688.15625-.03555.103112-.06921.195566-.09766.277344-.02489.0818-.03711.12342-.03711.126953-.02489.07111-.0081.129562.04883.175782.02844.02489.0628.03711.105469.03711.032 0 .05875-.0076.08008-.02539.07111-.03911.151346-.08269.240234-.128906.07467-.03911.164467-.08303.267578-.132812.103111-.04978.215049-.100964.335938-.154297.0065-.0029.0078-.01201.01367-.01563.0074-.0043.01636-.000194.02344-.0059.05333-.04266.104517-.08393.154297-.123047.05334-.04267.104171-.07206.150391-.08984-.01778.032-.03461.06601-.04883.101562-.01423.03555-.02875.06726-.04297.0957-.07822.16-.134369.291421-.169922.394532-.032.09956-.032.184748 0 .255859.02489.05689.06881.09355.132812.111328.02489.0071.04898.01209.07031.01563.02489.0035.05163.0059.08008.0059.273778-.000001.655819-.194476 1.146485-.582032.04622-.03911.08784-.07347.126953-.105468.04266-.032.08393-.06601.123047-.101563-.032.09244-.05379.168069-.06445.228516-.0071.05689.000151.110376.02148.160156.02489.04978.06616.08609.123047.107422.08533.02131.17283.02364.261718.0059.08889-.02134.176386-.05534.261719-.101562.08889-.04978.174432-.107875.259766-.171875.07459-.05905.148827-.121061.220703-.185547.101414-.03723.204703-.07676.3125-.117188.113778-.04266.225364-.08393.332031-.123047.110222-.04267.212594-.08163.308594-.117187.096-.03555.181193-.06726.255859-.0957-.01067.03556-.02289.07487-.03711.121093-.01422.04266-.03105.0958-.04883.15625-.03555.103112-.06726.195566-.0957.277344-.02489.0818-.03711.12342-.03711.126953-.02489.07111-.0081.129562.04883.175782.02844.02489.0628.03711.105469.03711.032 0 .05874-.0076.08008-.02539.07111-.03911.151346-.08269.240235-.128906.07467-.03911.164466-.08303.267578-.132812.103111-.04978.215049-.100964.335937-.154297.0065-.003.0077-.01197.01367-.01563.0074-.0043.01636-.000194.02344-.0059.05333-.04266.104516-.08393.154297-.123047.05334-.04267.10417-.07206.15039-.08984-.01778.032-.03461.06601-.04883.101562-.01423.03555-.02875.06726-.04297.0957-.07822.16-.134368.291421-.169922.394532-.032.09956-.032.184748 0 .255859.02489.05689.06881.09355.132813.111328.02489.0071.04898.01209.07031.01563.02489.0035.05163.0059.08008.0059.273778-.000001.655818-.194476 1.146485-.582032.04622-.03911.08784-.07347.126953-.105468.04266-.032.08393-.06601.123047-.101563-.032.09244-.05379.168069-.06445.228516-.0071.05689.000151.110376.02148.160156.02489.04978.06616.08609.123047.107422.08533.02131.17283.02364.261719.0059.08889-.02134.176385-.05534.261718-.101562.08889-.04978.174433-.107875.259766-.171875.07459-.05905-7.851172-.121061-7.779297-.185547.101414-.03723.204704-.07676.3125-.117188.113778-.04266.225365-.08393.332031-.123047.110223-.04267.212594-.08163.308594-.117187.096-.03555.181193-.06726.25586-.0957-.01067.03556-.02289.07487-.03711.121093-.01422.04266-.03105.0958-.04883.15625-.03555.103112-.06726.195566-.0957.277344-.02489.0818-.03711.12342-.03711.126953-.02489.07111-.0081.129562.04883.175782.02844.02489.0628.03711.105468.03711.032 0 .05874-.0076.08008-.02539.07111-.03911.151345-.08269.240234-.128906.07467-.03911.164467-.08303.267578-.132812.103111-.04978.215049-.100964.335938-.154297.03911-.01778.0662-.04913.08398-.0918.0178-.04266.01743-.08198-.0039-.121094-.01777-.03911-.04682-.06586-.08594-.08008-.03911-.01778-.07807-.01778-.117187 0-.206222.08533-.381216.165919-.523438.244141.0036-.01422.0082-.02644.01172-.03711.0036-.01067.0062-.02289.0098-.03711.02489-.07111.04437-.134167.05859-.1875.01778-.05689.0323-.108077.04297-.154297.01778-.08178.02734-.14288.02734-.185547.0036-.04622-.0037-.08483-.02148-.113281-.02133-.04977-.05764-.07687-.107421-.08398-.01777-.0071-.03496-.0094-.05273-.0059-.01422 0-.03105.0023-.04883.0059l-.142693.052528c-.09245.03556-.211294.07948-.353516.132812-.142222.05333-.300387.111782-.474609.175782-.170667.064-.336094.124754-.496094.18164-.01147.0048-.01376.01881-.02344.02539-.01101.0063-.02476.0024-.03516.01172-.03911.032 7.91697.07097 7.867187.117187-.04978.04266-.10327.08393-.160156.123047-.05689.03911-.113035.07542-.169922.107422-.05689.032-.110376.05148-.160156.05859.0071-.02133.01209-.04081.01563-.05859.01777-.03911.03495-.08269.05273-.128906l.06445-.138672c.05689-.142223.09585-.246898.117188-.314453.02135-.06755.02098-.126002-.0039-.175782-.01067-.01777-.02519-.03495-.04297-.05273-.01777-.01777-.04187-.03-.07031-.03711-.06045-.01778-.11163-.0029-.154297.04687l-.05859.05859c-.03911.03911-.0903.08994-.154296.150391-.064.06044-.139276.126505-.22461.201172-.08533.07467-.175484.152247-.271484.230469-.124444.096-.234078.176234-.330078.240234s-.183146.115184-.257813.154297c-.07111.03555-.134519.0623-.191406.08008-.05334.0178-.09726.02772-.132813.03125.0036-.01067.0062-.02058.0098-.03125s.01046-.02289.01758-.03711c.01777-.03911.03496-.08038.05273-.123047.02133-.04267.04081-.08624.05859-.128907.07111-.149333.119991-.263925.148438-.345703.03198-.08178.03431-.152444.0059-.21289-.02845-.06044-.07007-.09676-.126953-.107422-.120889-.03555-.254613-.01607-.40039.05859-.06044.02844-.118542.06475-.171876.107421-.05333.04267-.104516.08163-.154296.117188-.0018.0018-.0022.004-.0039.0059-.182608.07714-.347037.151418-.476562.222657.0036-.01422.0082-.02644.01172-.03711.0036-.01067.0062-.02289.0098-.03711.02489-.07111.04437-.134167.05859-.1875.01778-.05689.0323-.108077.04297-.154297.01778-.08178.02734-.14288.02734-.185547.0036-.04622-.0037-.08483-.02148-.113281-.02133-.04977-.05764-.07687-.107422-.08398-.01777-.0071-.03495-.0094-.05273-.0059-.01422 0-.03105.0023-.04883.0059l-.142578.05273c-.09244.03556-.211294.07948-.353516.132812-.142222.05333-.300387.111782-.474609.175782-.170667.064-.334141.124754-.494141.18164-.01089.0045-.01417.01728-.02344.02344-.0118.0065-.02601.0037-.03711.01367-.03911.032-.08303.07097-.132812.117187-.04978.04266-.10327.08393-.160157.123047-.05689.03911-.113035.07542-.169921.107422-.05689.032-.110377.05148-.160157.05859.0071-.02133.01209-.04081.01563-.05859.01777-.03911.03496-.08269.05273-.128906l.06445-.138672c.05689-.142223.09585-.246898.117187-.314453.02135-.06755.02098-.126002-.0039-.175782-.01067-.01777-.02519-.03495-.04297-.05273-.01777-.01777-.04187-.03-.07031-.03711-.06044-.01778-.11163-.0029-.154297.04687l-.05859.05859c-.03911.03911-.0903.08994-.154297.150391-.064.06044-.139276.126505-.224609.201172-.08533.07467-.175485.152247-.271485.230469-.124444.096-.234078.176234-.330078.240234s-.181193.115184-.255859.154297c-.07111.03555-.136473.0623-.193359.08008-.05334.0178-.09726.02772-.132813.03125.0036-.01067.0062-.02058.0098-.03125s.01046-.02289.01758-.03711c.01777-.03911.03495-.08038.05273-.123047.02133-.04267.04081-.08624.05859-.128907.07111-.149333.119991-.263925.148437-.345703.03198-.08178.03431-.152444.0059-.21289-.02845-.06044-.07007-.09676-.126953-.107422-.12089-.03555-.254614-.01607-.400391.05859-.06045.02844-.118542.06475-.171875.107421-.05333.04267-.104517.08163-.154297.117188-.0018.0018-.0022.004-.0039.0059-.182608.07714-.347037.151418-.476562.222657.0036-.01422.0082-.02644.01172-.03711.0036-.01067.0062-.02289.0098-.03711.02489-.07111.04437-.134167.05859-.1875.01778-.05689.0323-.108077.04297-.154297.01778-.08178.02734-.14288.02734-.185547.0036-.04622-.0037-.08483-.02148-.113281-.02133-.04977-.05764-.07687-.107422-.08398-.01777-.0071-.03496-.0094-.05273-.0059z" fill="#0d52bf"/><path d="m38.5 17c-3.583929 0-6.5 2.916071-6.5 6.5-.000346 1.806656.88583 3.399849 2.177734 4.617188-.09375.0795-.15494.190749-.171875.3125l-1 7c-.05566.397798.356708.695559.716797.517578l4.777344-2.388672 4.777344 2.388672c.360089.177981.772461-.11978.716797-.517578l-1-7c-.01744-.122032-.07935-.23332-.173829-.3125 1.291959-1.21703 2.179644-2.810666 2.179688-4.617188 0-3.583929-2.916071-6.5-6.5-6.5z" opacity=".05" stroke="#000" stroke-linejoin="round" stroke-width="2"/><path d="m38.5 17c-3.583929 0-6.5 2.916071-6.5 6.5-.000346 1.806656.88583 3.399849 2.177734 4.617188-.09375.0795-.15494.190749-.171875.3125l-1 7c-.05566.397798.356708.695559.716797.517578l4.777344-2.388672 4.777344 2.388672c.360089.177981.772461-.11978.716797-.517578l-1-7c-.01744-.122032-.07935-.23332-.173829-.3125 1.291959-1.21703 2.179644-2.810666 2.179688-4.617188 0-3.583929-2.916071-6.5-6.5-6.5z" opacity=".15"/><path d="m34.5 27.5-1 7 5-2.5 5 2.5-1-7z" fill="#3689e6"/><path d="m34.5 27.5-1 7 5-2.5 5 2.5-1-7z" fill="none" opacity=".5" stroke="#002e99" stroke-linejoin="round"/><path d="m34.5 27.5-1 7 5-2.5 5 2.5-1-7z" fill="url(#h)" opacity=".5"/><circle cx="38.5" cy="22.5" fill="url(#g)" r="6"/><g fill="none" stroke-linecap="round" stroke-linejoin="round"><circle cx="38.5" cy="22.5" opacity=".5" r="6" stroke="#ad5f00"/><circle cx="38.5" cy="22.5" opacity=".3" r="5" stroke="#fff"/></g></svg>