<?xml version="1.0" encoding="UTF-8" standalone="no"?>
<svg
   xmlns:dc="http://purl.org/dc/elements/1.1/"
   xmlns:cc="http://creativecommons.org/ns#"
   xmlns:rdf="http://www.w3.org/1999/02/22-rdf-syntax-ns#"
   xmlns:svg="http://www.w3.org/2000/svg"
   xmlns="http://www.w3.org/2000/svg"
   xmlns:xlink="http://www.w3.org/1999/xlink"
   xmlns:sodipodi="http://sodipodi.sourceforge.net/DTD/sodipodi-0.dtd"
   xmlns:inkscape="http://www.inkscape.org/namespaces/inkscape"
   width="24"
   height="24"
   id="svg4708"
   version="1.1"
   inkscape:version="0.91 r13725"
   sodipodi:docname="lc_autoformat.svg">
  <sodipodi:namedview
     pagecolor="#ffffff"
     bordercolor="#666666"
     borderopacity="1"
     objecttolerance="10"
     gridtolerance="10"
     guidetolerance="10"
     inkscape:pageopacity="0"
     inkscape:pageshadow="2"
     inkscape:window-width="2560"
     inkscape:window-height="1377"
     id="namedview37"
     showgrid="false"
     inkscape:zoom="27.812867"
     inkscape:cx="20.5434"
     inkscape:cy="16.504883"
     inkscape:window-x="0"
     inkscape:window-y="34"
     inkscape:window-maximized="1"
     inkscape:current-layer="svg4708" />
  <defs
     id="defs4710">
    <radialGradient
       r="7.228416"
       fy="73.615715"
       fx="6.702713"
       cy="73.615715"
       cx="6.702713"
       gradientTransform="matrix(1.6600963,0,0,0.36315008,0.963735,-6.267669)"
       gradientUnits="userSpaceOnUse"
       id="radialGradient4643"
       xlink:href="#linearGradient10691-3" />
    <linearGradient
       id="linearGradient10691-3">
      <stop
         offset="0"
         style="stop-color:#000000;stop-opacity:1"
         id="stop10693-1" />
      <stop
         offset="1"
         style="stop-color:#000000;stop-opacity:0"
         id="stop10695-4" />
    </linearGradient>
    <linearGradient
       id="linearGradient3339">
      <stop
         id="stop3341"
         style="stop-color:#ffffff;stop-opacity:1"
         offset="0" />
      <stop
         id="stop3343"
         style="stop-color:#ffffff;stop-opacity:0"
         offset="1" />
    </linearGradient>
    <radialGradient
       xlink:href="#linearGradient3846"
       id="radialGradient3097"
       gradientUnits="userSpaceOnUse"
       gradientTransform="matrix(0.13600338,0.32887282,-0.25782279,0.11298813,11.149645,-7.5378569)"
       cx="32.5"
       cy="16.5625"
       fx="32.5"
       fy="16.5625"
       r="14.4375" />
    <linearGradient
       id="linearGradient3220-2-2">
      <stop
         id="stop3222-7-1"
         style="stop-color:#2e3436;stop-opacity:1"
         offset="0" />
      <stop
         id="stop3228-2-8"
         style="stop-color:#888a85;stop-opacity:1"
         offset="0.64444447" />
      <stop
         id="stop3224-9-9"
         style="stop-color:#555753;stop-opacity:1"
         offset="1" />
    </linearGradient>
    <linearGradient
       id="linearGradient3338-5-6">
      <stop
         id="stop3340-8-1"
         style="stop-color:#eeeeec;stop-opacity:1"
         offset="0" />
      <stop
         id="stop2677-0-5"
         style="stop-color:#ffffff;stop-opacity:1"
         offset="0.78888887" />
      <stop
         id="stop3342-6-9"
         style="stop-color:#eeeeec;stop-opacity:1"
         offset="1" />
    </linearGradient>
    <linearGradient
       xlink:href="#linearGradient3220-2-2"
       id="linearGradient4203"
       gradientUnits="userSpaceOnUse"
       gradientTransform="matrix(0.26725589,0,0,1.157552,9.315594,-10.704165)"
       x1="-32.957481"
       y1="27.388975"
       x2="-25.474016"
       y2="27.388975" />
    <linearGradient
       xlink:href="#linearGradient3338-5-6"
       id="linearGradient4205"
       gradientUnits="userSpaceOnUse"
       gradientTransform="matrix(0.77602087,0.23906428,-0.31605097,0.56747902,-20.167798,4.551095)"
       x1="27.52779"
       y1="4.1670198"
       x2="30.419695"
       y2="2.9487348" />
    <linearGradient
       inkscape:collect="always"
       xlink:href="#linearGradient3339"
       id="linearGradient3090"
       gradientUnits="userSpaceOnUse"
       gradientTransform="matrix(0.47773331,0,0,0.47773331,-0.39268851,-1.6741878)"
       x1="31"
       y1="12.875"
       x2="3.2591991"
       y2="24.893845" />
    <linearGradient
       id="linearGradient3846">
      <stop
         id="stop3848"
         style="stop-color:#fff3cb;stop-opacity:1"
         offset="0" />
      <stop
         id="stop3850"
         style="stop-color:#fdde76;stop-opacity:1"
         offset="0.26238" />
      <stop
         id="stop3852"
         style="stop-color:#f9c440;stop-opacity:1"
         offset="0.66093999" />
      <stop
         id="stop3854"
         style="stop-color:#e48b20;stop-opacity:1"
         offset="1" />
    </linearGradient>
    <filter
       inkscape:collect="always"
       style="color-interpolation-filters:sRGB"
       id="filter4388"
       x="-0.19342611"
       width="1.3868522"
       y="-0.1621288"
       height="1.3242576">
      <feGaussianBlur
         inkscape:collect="always"
         stdDeviation="0.67849208"
         id="feGaussianBlur4390" />
    </filter>
    <linearGradient
       inkscape:collect="always"
       xlink:href="#linearGradient3846"
       id="linearGradient4409"
       x1="0.23463982"
       y1="14.770722"
       x2="17.41062"
       y2="1.9571632"
       gradientUnits="userSpaceOnUse"
       gradientTransform="matrix(0.81929202,0,0,0.81929202,0.46327421,-0.2794481)" />
  </defs>
  <metadata
     id="metadata4713">
    <rdf:RDF>
      <cc:Work
         rdf:about="">
        <dc:format>image/svg+xml</dc:format>
        <dc:type
           rdf:resource="http://purl.org/dc/dcmitype/StillImage" />
        <dc:title />
      </cc:Work>
    </rdf:RDF>
  </metadata>
  <path
     inkscape:connector-curvature="0"
     d="M -0.21353815,8.9553792 C 12.800676,9.7806878 4.5990461,2.267622 14.65591,2.0282461 l 2.526834,5.3100242 C 12.593416,5.1983538 9.454197,16.1921 -0.27325493,9.7316952 l 0.0597161,-0.776316 z"
     id="path3337-0"
     style="display:inline;opacity:0.44444442;fill:url(#linearGradient3090);fill-opacity:1;fill-rule:evenodd;stroke:none" />
  <path
     inkscape:connector-curvature="0"
     d="m 24.090748,20.465883 c 0,1.449748 -5.372523,2.625 -11.999865,2.625 -6.627343,0 -11.999865,-1.175252 -11.999865,-2.625 0,-1.449747 5.372522,-2.625 11.999865,-2.625 6.627342,0 11.999865,1.175253 11.999865,2.625 z"
     id="path10689"
     style="display:inline;overflow:visible;visibility:visible;opacity:0.2;fill:url(#radialGradient4643);fill-opacity:1;fill-rule:nonzero;stroke:none;stroke-width:0.80000001;marker:none" />
  <path
     style="display:inline;fill:url(#linearGradient4409);fill-opacity:1;stroke:none"
     d="M 9.9746094 1.1054688 L 9.8730469 3.5839844 L 8.2773438 4.4199219 L 7.7773438 4.1386719 L 7.7597656 2.6621094 L 6.7128906 3.6269531 L 5.3027344 3.1855469 L 5.8964844 4.4785156 L 5.0410156 5.6835938 L 6.4550781 5.5195312 L 7.3378906 6.7050781 L 7.6171875 5.3085938 L 8.3554688 5.0585938 L 9.9179688 5.6386719 L 10.349609 8.1777344 L 11.888672 6.2324219 L 14.435547 6.6074219 L 13.060547 4.5410156 L 14.203125 2.2363281 L 11.816406 2.9042969 L 9.9746094 1.1054688 z M 4.4511719 5.4726562 L 3.6386719 6.2226562 L 2.5449219 5.8789062 L 3.0058594 6.8847656 L 2.3417969 7.8183594 L 3.4394531 7.6914062 L 4.1230469 8.6113281 L 4.3398438 7.5273438 L 5.4277344 7.1621094 L 4.4648438 6.6210938 L 4.4511719 5.4726562 z M 8.1640625 6.3652344 L 6.9804688 7.4550781 L 5.3847656 6.9570312 L 6.0566406 8.4199219 L 5.0917969 9.78125 L 6.6894531 9.5957031 L 7.6855469 10.935547 L 8.0019531 9.3574219 L 9.5859375 8.8242188 L 8.1816406 8.0351562 L 8.1640625 6.3652344 z M 1.9433594 7.9511719 L 1.6464844 9.0703125 L 0.48828125 9.3828125 L 1.4589844 10.009766 L 1.3984375 11.208984 L 2.2949219 10.478516 L 3.4179688 10.908203 L 3 9.828125 L 3.7539062 8.8945312 L 2.5996094 8.9589844 L 1.9433594 7.9511719 z "
     id="path3331-0" />
  <path
     inkscape:connector-curvature="0"
     style="display:inline;fill:url(#radialGradient3097);fill-opacity:1;stroke:none;opacity:0.483;filter:url(#filter4388)"
     id="path3249"
     d="M 13.263114,9.769977 C 11.207335,10.670899 8.661687,9.275443 7.57725,6.65314 6.492811,4.030836 7.280238,1.174696 9.336017,0.2737732 c 2.055778,-0.9009236 4.601426,0.4945301 5.685864,3.1168348 1.084439,2.622304 0.297012,5.478445 -1.758767,6.379369 z" />
  <g
     transform="matrix(1.0583533,-0.61104055,0.51705714,0.89556923,3.1087285,-5.8644041)"
     id="g4198">
    <path
       inkscape:connector-curvature="0"
       style="color:#000000;display:inline;overflow:visible;visibility:visible;fill:url(#linearGradient4203);fill-opacity:1;fill-rule:evenodd;stroke:none;stroke-width:2;marker:none;enable-background:accumulate"
       d="m 0.5,18 0,12.4375 C 0.5,31.0192 0.797334,31.5 1.166667,31.5 l 0.666667,0 C 2.202667,31.5 2.5,31.0192 2.5,30.4375 L 2.5,18 l -2,0 z"
       id="rect3174" />
    <rect
       style="color:#000000;display:inline;overflow:visible;visibility:visible;opacity:0.3;fill:none;stroke:#000000;stroke-width:0.81430745;stroke-miterlimit:4;stroke-dasharray:none;stroke-opacity:1;marker:none;enable-background:accumulate"
       id="rect3174-8"
       width="2"
       height="21"
       x="0.5"
       y="10.5"
       rx="0.74907047"
       ry="0.92948729" />
    <path
       inkscape:connector-curvature="0"
       style="color:#000000;display:inline;overflow:visible;visibility:visible;fill:url(#linearGradient4205);fill-opacity:1;fill-rule:evenodd;stroke:none;stroke-width:2;marker:none;enable-background:accumulate;opacity:0.9"
       d="M 1.166667,10.5 C 0.797334,10.5 0.5,10.9808 0.5,11.5625 l 0,6.4375 2,0 0,-6.4375 C 2.5,10.9808 2.202667,10.5 1.833334,10.5 l -0.666667,0 z"
       id="rect3174-6" />
  </g>
</svg>
