<?xml version="1.0" encoding="UTF-8" standalone="no"?>
<svg
   xmlns:dc="http://purl.org/dc/elements/1.1/"
   xmlns:cc="http://creativecommons.org/ns#"
   xmlns:rdf="http://www.w3.org/1999/02/22-rdf-syntax-ns#"
   xmlns:svg="http://www.w3.org/2000/svg"
   xmlns="http://www.w3.org/2000/svg"
   xmlns:xlink="http://www.w3.org/1999/xlink"
   xmlns:sodipodi="http://sodipodi.sourceforge.net/DTD/sodipodi-0.dtd"
   xmlns:inkscape="http://www.inkscape.org/namespaces/inkscape"
   viewBox="0 0 24 24"
   id="svg2"
   version="1.1"
   inkscape:version="0.91 r13725"
   sodipodi:docname="lc_arrowshapes.quad-arrow.svg">
  <metadata
     id="metadata10">
    <rdf:RDF>
      <cc:Work
         rdf:about="">
        <dc:format>image/svg+xml</dc:format>
        <dc:type
           rdf:resource="http://purl.org/dc/dcmitype/StillImage" />
      </cc:Work>
    </rdf:RDF>
  </metadata>
  <defs
     id="defs8">
    <radialGradient
       inkscape:collect="always"
       xlink:href="#linearGradient3941"
       id="radialGradient3947"
       cx="2.25"
       cy="16"
       fx="2.25"
       fy="16"
       r="16.875"
       gradientTransform="matrix(0.19279619,0,0,0.11633788,11.445319,19.956911)"
       gradientUnits="userSpaceOnUse" />
    <linearGradient
       inkscape:collect="always"
       id="linearGradient3941">
      <stop
         style="stop-color:#000000;stop-opacity:1;"
         offset="0"
         id="stop3943" />
      <stop
         style="stop-color:#000000;stop-opacity:0;"
         offset="1"
         id="stop3945" />
    </linearGradient>
    <linearGradient
       inkscape:collect="always"
       xlink:href="#linearGradient6581"
       id="linearGradient4444"
       x1="10.29173"
       y1="13.37206"
       x2="18.970934"
       y2="3.2025685"
       gradientUnits="userSpaceOnUse" />
    <linearGradient
       id="linearGradient6581">
      <stop
         style="stop-color:#eeeeec;stop-opacity:1;"
         offset="0"
         id="stop6583" />
      <stop
         style="stop-color:#e0e0de;stop-opacity:1.0000000;"
         offset="1.0000000"
         id="stop6585" />
    </linearGradient>
  </defs>
  <sodipodi:namedview
     pagecolor="#ffffff"
     bordercolor="#666666"
     borderopacity="1"
     objecttolerance="10"
     gridtolerance="10"
     guidetolerance="10"
     inkscape:pageopacity="0"
     inkscape:pageshadow="2"
     inkscape:window-width="2560"
     inkscape:window-height="1301"
     id="namedview6"
     showgrid="false"
     inkscape:zoom="9.8333333"
     inkscape:cx="12"
     inkscape:cy="12"
     inkscape:window-x="0"
     inkscape:window-y="32"
     inkscape:window-maximized="1"
     inkscape:current-layer="svg2" />
  <ellipse
     style="color:#000000;display:block;overflow:visible;visibility:visible;opacity:0.39200003;fill:url(#radialGradient3947);fill-opacity:1;fill-rule:evenodd;stroke:none;stroke-width:1;stroke-linecap:butt;stroke-linejoin:miter;stroke-miterlimit:4;stroke-dasharray:none;stroke-dashoffset:0;stroke-opacity:1;marker:none;marker-start:none;marker-mid:none;marker-end:none"
     id="path2193"
     cx="11.879111"
     cy="21.818317"
     rx="3.2534359"
     ry="1.9632038" />
  <g
     id="g4352">
    <path
       id="rect8738"
       d="m 5.9804688,6.6816406 c -0.133579,0.00624 -0.2598599,0.062752 -0.3535157,0.1582032 L 1.1523438,11.373047 c -0.19987131,0.202477 -0.20418221,0.526654 -0.00977,0.734375 l 4.5,4.83789 c 0.3236829,0.344751 0.90258,0.125042 0.9160157,-0.347656 l 0.042969,-1.771484 3.4780015,0 0,-1.058594 -3.9955796,0 c -0.2869342,2.27e-4 -0.5215625,0.228795 -0.5292969,0.515625 L 5.53125,15.271484 2.2636719,11.755859 5.4921875,8.484375 5.5039062,9.3046875 c 0.0046,0.2891273 0.2401332,0.521187 0.5292969,0.5214844 l 4.0463609,0 0,-1.0585938 -3.5229234,0 -0.021484,-1.5625 C 6.5318206,6.9050158 6.2802205,6.6675903 5.9804688,6.6816406 Z"
       style="color:#000000;font-style:normal;font-variant:normal;font-weight:normal;font-stretch:normal;font-size:medium;line-height:normal;font-family:sans-serif;text-indent:0;text-align:start;text-decoration:none;text-decoration-line:none;text-decoration-style:solid;text-decoration-color:#000000;letter-spacing:normal;word-spacing:normal;text-transform:none;direction:ltr;block-progression:tb;writing-mode:lr-tb;baseline-shift:baseline;text-anchor:start;white-space:normal;clip-rule:nonzero;display:inline;overflow:visible;visibility:visible;opacity:1;isolation:auto;mix-blend-mode:normal;color-interpolation:sRGB;color-interpolation-filters:linearRGB;solid-color:#000000;solid-opacity:1;fill:#888a85;fill-opacity:1;fill-rule:nonzero;stroke:none;stroke-width:1.05971193;stroke-linecap:round;stroke-linejoin:round;stroke-miterlimit:4;stroke-dasharray:none;stroke-dashoffset:0;stroke-opacity:1;color-rendering:auto;image-rendering:auto;shape-rendering:auto;text-rendering:auto;enable-background:accumulate"
       inkscape:connector-curvature="0"
       sodipodi:nodetypes="ccccccccccccccccccccc" />
    <path
       id="rect8738-5"
       d="m 17.992188,6.6816406 c -0.289152,0.00138 -0.523816,0.2343035 -0.527344,0.5234375 l -0.02148,1.5625 -3.222869,-0.035955 0,1.0585938 3.746307,0.035955 c 0.289164,-2.974e-4 0.5247,-0.2323571 0.529297,-0.5214844 l 0.01172,-0.8203125 3.228516,3.271484 -3.267578,3.515625 -0.02344,-0.988281 c -0.0077,-0.28683 -0.242362,-0.515397 -0.529296,-0.515625 l -3.695526,-0.03595 0,1.058594 3.177948,0.03595 0.04297,1.771484 c 0.01343,0.472699 0.592333,0.692408 0.916016,0.347656 l 4.5,-4.83789 c 0.194416,-0.207721 0.190105,-0.531898 -0.0098,-0.734375 L 18.373047,6.8398438 C 18.272665,6.7378446 18.135295,6.6807832 17.992188,6.6816406 Z"
       style="color:#000000;font-style:normal;font-variant:normal;font-weight:normal;font-stretch:normal;font-size:medium;line-height:normal;font-family:sans-serif;text-indent:0;text-align:start;text-decoration:none;text-decoration-line:none;text-decoration-style:solid;text-decoration-color:#000000;letter-spacing:normal;word-spacing:normal;text-transform:none;direction:ltr;block-progression:tb;writing-mode:lr-tb;baseline-shift:baseline;text-anchor:start;white-space:normal;clip-rule:nonzero;display:inline;overflow:visible;visibility:visible;opacity:1;isolation:auto;mix-blend-mode:normal;color-interpolation:sRGB;color-interpolation-filters:linearRGB;solid-color:#000000;solid-opacity:1;fill:#888a85;fill-opacity:1;fill-rule:nonzero;stroke:none;stroke-width:1.05971193;stroke-linecap:round;stroke-linejoin:round;stroke-miterlimit:4;stroke-dasharray:none;stroke-dashoffset:0;stroke-opacity:1;color-rendering:auto;image-rendering:auto;shape-rendering:auto;text-rendering:auto;enable-background:accumulate"
       inkscape:connector-curvature="0"
       sodipodi:nodetypes="ccccccccccccccccccccc" />
    <path
       inkscape:connector-curvature="0"
       style="color:#000000;font-style:normal;font-variant:normal;font-weight:normal;font-stretch:normal;font-size:medium;line-height:normal;font-family:sans-serif;text-indent:0;text-align:start;text-decoration:none;text-decoration-line:none;text-decoration-style:solid;text-decoration-color:#000000;letter-spacing:normal;word-spacing:normal;text-transform:none;direction:ltr;block-progression:tb;writing-mode:lr-tb;baseline-shift:baseline;text-anchor:start;white-space:normal;clip-rule:nonzero;display:inline;overflow:visible;visibility:visible;opacity:1;isolation:auto;mix-blend-mode:normal;color-interpolation:sRGB;color-interpolation-filters:linearRGB;solid-color:#000000;solid-opacity:1;fill:#fdfdfb;fill-opacity:1;fill-rule:nonzero;stroke:none;stroke-width:1.06268632;stroke-linecap:butt;stroke-linejoin:miter;stroke-miterlimit:4;stroke-dasharray:none;stroke-dashoffset:0;stroke-opacity:1;color-rendering:auto;image-rendering:auto;shape-rendering:auto;text-rendering:auto;enable-background:accumulate"
       d="m 5.6953125,8.2871094 -3.4785156,3.4785156 3.4296875,3.548828 0.039063,-1.511719 5.4746086,0 0,-1.064453 c -3.2127913,0.0013 -6.5097649,0.0069 -6.5097649,0 l 0,0.01563 -0.9433594,-0.976562 1.03125,-1.03125 6.4218743,0 0,-1.0507815 -5.4257805,0 -0.039063,-1.4082031 z m 12.6093755,0 -0.03906,1.40625 -5.121094,0 0,1.0527346 6.117188,0 1.03125,1.03125 -0.94336,0.976562 0,-0.01563 c 0,0 -3.177391,-0.002 -6.205078,0 l 0,1.066407 5.169922,0 0.03906,1.509765 3.429687,-3.548828 -3.478515,-3.4785156 z"
       id="rect11103" />
  </g>
  <path
     sodipodi:nodetypes="ccccccccccccccccccccc"
     style="color:#000000;font-style:normal;font-variant:normal;font-weight:normal;font-stretch:normal;font-size:medium;line-height:normal;font-family:sans-serif;text-indent:0;text-align:start;text-decoration:none;text-decoration-line:none;text-decoration-style:solid;text-decoration-color:#000000;letter-spacing:normal;word-spacing:normal;text-transform:none;direction:ltr;block-progression:tb;writing-mode:lr-tb;baseline-shift:baseline;text-anchor:start;white-space:normal;clip-rule:nonzero;display:inline;overflow:visible;visibility:visible;opacity:1;isolation:auto;mix-blend-mode:normal;color-interpolation:sRGB;color-interpolation-filters:linearRGB;solid-color:#000000;solid-opacity:1;fill:#888a85;fill-opacity:1;fill-rule:nonzero;stroke:none;stroke-width:1.05971193;stroke-linecap:round;stroke-linejoin:round;stroke-miterlimit:4;stroke-dasharray:none;stroke-dashoffset:0;stroke-opacity:1;color-rendering:auto;image-rendering:auto;shape-rendering:auto;text-rendering:auto;enable-background:accumulate"
     d="M 17.21514,5.8772591 C 17.20894,5.7436801 17.15239,5.6173992 17.056937,5.5237434 L 12.523734,1.0491341 C 12.321258,0.84926158 11.997081,0.84494878 11.789359,1.0393641 l -4.83789,4.5 C 6.606718,5.863047 6.826427,6.4419441 7.299125,6.4553798 l 1.771484,0.042969 0,3.1723875 1.058594,0 0,-3.6899656 C 10.128974,5.693838 9.900407,5.4592121 9.613578,5.4514778 l -0.988281,-0.023437 3.515625,-3.2675781 3.271484,3.2285156 -0.820312,0.011719 c -0.289128,0.0046 -0.521187,0.2401332 -0.521485,0.5292969 l 0,3.7407469 1.058594,0 0,-3.2173094 1.5625,-0.021484 c 0.300062,-0.00334 0.537488,-0.2549359 0.523437,-0.5546878 z"
     id="rect8738-6"
     inkscape:connector-curvature="0" />
  <path
     sodipodi:nodetypes="ccccccccccccccccccccc"
     style="color:#000000;font-style:normal;font-variant:normal;font-weight:normal;font-stretch:normal;font-size:medium;line-height:normal;font-family:sans-serif;text-indent:0;text-align:start;text-decoration:none;text-decoration-line:none;text-decoration-style:solid;text-decoration-color:#000000;letter-spacing:normal;word-spacing:normal;text-transform:none;direction:ltr;block-progression:tb;writing-mode:lr-tb;baseline-shift:baseline;text-anchor:start;white-space:normal;clip-rule:nonzero;display:inline;overflow:visible;visibility:visible;opacity:1;isolation:auto;mix-blend-mode:normal;color-interpolation:sRGB;color-interpolation-filters:linearRGB;solid-color:#000000;solid-opacity:1;fill:#888a85;fill-opacity:1;fill-rule:nonzero;stroke:none;stroke-width:1.05971193;stroke-linecap:round;stroke-linejoin:round;stroke-miterlimit:4;stroke-dasharray:none;stroke-dashoffset:0;stroke-opacity:1;color-rendering:auto;image-rendering:auto;shape-rendering:auto;text-rendering:auto;enable-background:accumulate"
     d="m 17.21514,17.888978 c -0.0014,-0.289152 -0.234303,-0.523816 -0.523437,-0.527344 l -1.5625,-0.02148 0,-3.528483 -1.058594,0 0,4.051921 c 2.98e-4,0.289164 0.232357,0.5247 0.521485,0.529297 l 0.820312,0.01172 -3.271484,3.228516 -3.515625,-3.267578 0.988281,-0.02344 c 0.28683,-0.0077 0.515397,-0.242362 0.515625,-0.529296 l 0,-4.00114 -1.058594,0 0,3.483562 -1.771484,0.04297 c -0.472699,0.01343 -0.692408,0.592333 -0.347656,0.916016 l 4.83789,4.5 c 0.20773,0.194407 0.531907,0.190081 0.734375,-0.0098 l 4.533203,-4.474582 c 0.101999,-0.100382 0.159061,-0.237752 0.158203,-0.380859 z"
     id="rect8738-5-0"
     inkscape:connector-curvature="0" />
  <path
     inkscape:connector-curvature="0"
     style="color:#000000;font-style:normal;font-variant:normal;font-weight:normal;font-stretch:normal;font-size:medium;line-height:normal;font-family:sans-serif;text-indent:0;text-align:start;text-decoration:none;text-decoration-line:none;text-decoration-style:solid;text-decoration-color:#000000;letter-spacing:normal;word-spacing:normal;text-transform:none;direction:ltr;block-progression:tb;writing-mode:lr-tb;baseline-shift:baseline;text-anchor:start;white-space:normal;clip-rule:nonzero;display:inline;overflow:visible;visibility:visible;opacity:1;isolation:auto;mix-blend-mode:normal;color-interpolation:sRGB;color-interpolation-filters:linearRGB;solid-color:#000000;solid-opacity:1;fill:#fdfdfb;fill-opacity:1;fill-rule:nonzero;stroke:none;stroke-width:1.06268632;stroke-linecap:butt;stroke-linejoin:miter;stroke-miterlimit:4;stroke-dasharray:none;stroke-dashoffset:0;stroke-opacity:1;color-rendering:auto;image-rendering:auto;shape-rendering:auto;text-rendering:auto;enable-background:accumulate"
     d="m 12.130859,2.1132816 -3.5488278,3.4296876 1.5117188,0.039062 0,5.1679688 1.064453,0 c -10e-4,-3.0259663 -0.0066,-6.203125 0,-6.203125 l -0.01563,0 0.976563,-0.9433594 1.03125,1.03125 0,6.1152344 1.050781,0 0,-5.1191406 1.408203,-0.039063 -3.478516,-3.4785157 z m -2.039062,10.6328124 0,5.466797 -1.5097658,0.03906 3.5488278,3.429688 3.478516,-3.478516 -1.40625,-0.03906 0,-5.417968 -1.052734,0 0,6.414062 -1.03125,1.03125 -0.976563,-0.943359 0.01563,0 c 0,0 0.0021,-3.294325 0,-6.501953 l -1.066406,0 z"
     id="rect11103-6" />
  <path
     style="color:#000000;font-style:normal;font-variant:normal;font-weight:normal;font-stretch:normal;font-size:medium;line-height:normal;font-family:sans-serif;text-indent:0;text-align:start;text-decoration:none;text-decoration-line:none;text-decoration-style:solid;text-decoration-color:#000000;letter-spacing:normal;word-spacing:normal;text-transform:none;direction:ltr;block-progression:tb;writing-mode:lr-tb;baseline-shift:baseline;text-anchor:start;white-space:normal;clip-rule:nonzero;display:inline;overflow:visible;visibility:visible;opacity:1;isolation:auto;mix-blend-mode:normal;color-interpolation:sRGB;color-interpolation-filters:linearRGB;solid-color:#000000;solid-opacity:1;fill:url(#linearGradient4444);fill-opacity:1;fill-rule:nonzero;stroke:none;stroke-width:1.06268632;stroke-linecap:butt;stroke-linejoin:miter;stroke-miterlimit:4;stroke-dasharray:none;stroke-dashoffset:0;stroke-opacity:1;color-rendering:auto;image-rendering:auto;shape-rendering:auto;text-rendering:auto;enable-background:accumulate"
     d="m 12.119141,3.603516 1.03125,1.03125 0,9.220336 -1.992188,0.0019 c -1.8e-4,-2.343163 -0.0055,-9.3101797 0,-9.3101797 l -0.01563,0 z m -7.3808598,7.142578 9.5891208,0 -0.002,1.992187 c -2.537627,4.03e-4 -9.6750584,0.0058 -9.6750584,0 l 0,0.01563 -0.9433594,-0.976562 z m 9.4628908,0 5.060547,0 1.03125,1.03125 -0.94336,0.976562 0,-0.01563 c 0,0 -2.804165,-0.0018 -5.146484,0 z m -3.042969,3.05664 1.992188,0.002 0,5.355468 -1.03125,1.03125 -0.976563,-0.943359 0.01563,0 c 0,0 0.0019,-2.90559 0,-5.445313 z"
     id="rect11103-3"
     inkscape:connector-curvature="0"
     sodipodi:nodetypes="ccccccccccccccccccccccccccccc" />
</svg>
