<?xml version="1.0" encoding="UTF-8" standalone="no"?>
<!-- Created with Inkscape (http://www.inkscape.org/) -->

<svg
   xmlns:dc="http://purl.org/dc/elements/1.1/"
   xmlns:cc="http://creativecommons.org/ns#"
   xmlns:rdf="http://www.w3.org/1999/02/22-rdf-syntax-ns#"
   xmlns:svg="http://www.w3.org/2000/svg"
   xmlns="http://www.w3.org/2000/svg"
   xmlns:xlink="http://www.w3.org/1999/xlink"
   xmlns:sodipodi="http://sodipodi.sourceforge.net/DTD/sodipodi-0.dtd"
   xmlns:inkscape="http://www.inkscape.org/namespaces/inkscape"
   width="24"
   height="24"
   id="svg2555"
   sodipodi:version="0.32"
   inkscape:version="0.91 r13725"
   sodipodi:docname="lc_insertsymbol.svg"
   inkscape:output_extension="org.inkscape.output.svg.inkscape"
   version="1.1"
   inkscape:export-filename="/home/ochosi/Nerdstuff/shimmer/libreoffice-style-elementary/src/cmd/lc_insertsymbol.png"
   inkscape:export-xdpi="90"
   inkscape:export-ydpi="90">
  <defs
     id="defs2557">
    <linearGradient
       inkscape:collect="always"
       id="linearGradient5060">
      <stop
         style="stop-color:black;stop-opacity:1;"
         offset="0"
         id="stop5062" />
      <stop
         style="stop-color:black;stop-opacity:0;"
         offset="1"
         id="stop5064" />
    </linearGradient>
    <linearGradient
       id="linearGradient3682-3">
      <stop
         style="stop-color:#1f1f1f;stop-opacity:1.0000000;"
         offset="0.0000000"
         id="stop3684-6" />
      <stop
         style="stop-color:#5c5c5c;stop-opacity:1.0000000;"
         offset="1.0000000"
         id="stop3686-7" />
    </linearGradient>
    <radialGradient
       inkscape:collect="always"
       xlink:href="#linearGradient5060"
       id="radialGradient3564"
       cx="22.571428"
       cy="30.857143"
       fx="22.571428"
       fy="30.857143"
       r="15.571428"
       gradientTransform="matrix(0.706422,0,0,0.13549598,-3.944954,9.928848)"
       gradientUnits="userSpaceOnUse" />
    <linearGradient
       inkscape:collect="always"
       xlink:href="#linearGradient3682-3"
       id="linearGradient4232"
       x1="11"
       y1="16"
       x2="11"
       y2="-8"
       gradientUnits="userSpaceOnUse" />
  </defs>
  <sodipodi:namedview
     id="base"
     pagecolor="#ffffff"
     bordercolor="#666666"
     borderopacity="1.0"
     inkscape:pageopacity="0.0"
     inkscape:pageshadow="2"
     inkscape:zoom="22.197802"
     inkscape:cx="6.6194916"
     inkscape:cy="12.960738"
     inkscape:current-layer="layer1"
     showgrid="true"
     inkscape:grid-bbox="true"
     inkscape:document-units="px"
     inkscape:window-width="2560"
     inkscape:window-height="1301"
     inkscape:window-x="0"
     inkscape:window-y="32"
     inkscape:window-maximized="1"
     showguides="false">
    <inkscape:grid
       type="xygrid"
       id="grid4202" />
  </sodipodi:namedview>
  <metadata
     id="metadata2560">
    <rdf:RDF>
      <cc:Work
         rdf:about="">
        <dc:format>image/svg+xml</dc:format>
        <dc:type
           rdf:resource="http://purl.org/dc/dcmitype/StillImage" />
        <dc:title />
      </cc:Work>
    </rdf:RDF>
  </metadata>
  <g
     id="layer1"
     inkscape:label="Layer 1"
     inkscape:groupmode="layer"
     transform="translate(0,8)">
    <g
       id="g4346"
       style="font-style:normal;font-weight:normal;font-size:40px;line-height:125%;font-family:sans-serif;letter-spacing:0px;word-spacing:0px;fill:#ffffff;fill-opacity:1;stroke:none;stroke-width:1px;stroke-linecap:butt;stroke-linejoin:miter;stroke-opacity:1;opacity:0.35"
       transform="translate(0,1)">
      <path
         sodipodi:nodetypes="ssscccccccscsscsscccccsscs"
         inkscape:connector-curvature="0"
         id="path4348"
         style="font-style:normal;font-variant:normal;font-weight:bold;font-stretch:normal;font-size:25px;font-family:'Open Sans';-inkscape-font-specification:'Open Sans Bold';fill:#ffffff;fill-opacity:1"
         d="M 12.006104,-2 C 10.533122,-2 8.9956707,-1.5304362 8.1981446,-0.63525391 7.4006184,0.25992838 7.0018554,1.5213216 7.0018554,3.1489258 c 0,1.6520182 0.2685547,2.9947916 0.8056642,4.0283203 C 8.3446289,8.2026367 9.9095053,9.2980957 11,9.8840332 L 11,13 3,13 3,10 7.3796387,10 C 6.1426595,9.2431639 4.6576334,8.0398763 3.9821777,6.737793 3.31486,5.4275716 2.9812012,3.9667968 2.9812012,2.3554687 c 0,-1.4973958 0.3458659,-2.81168613 1.0375976,-3.942871 C 4.7186686,-2.7267252 5.9141927,-3.6015625 7.2,-4.2119141 8.4858073,-4.8222656 10.305257,-5 12.006104,-5 c 2.596028,0 5.159384,0.5520833 6.689331,1.9111328 1.538086,1.3590495 2.307129,3.18196613 2.307129,5.46875 0,1.6113281 -0.337728,3.0598958 -1.013183,4.3457031 C 19.313925,8.0113932 17.845133,9.2187498 16.58374,10 L 21,10 l 0,3 -8,0 0,-3.1159668 c 1.131185,-0.5859375 2.661475,-1.6936035 3.198584,-2.7434082 0.537109,-1.0498047 0.805664,-2.3885091 0.805664,-4.0161133 0,-1.6194661 -0.402832,-2.87272134 -1.208496,-3.75976561 C 14.998226,-1.5304362 13.470947,-2 12.006104,-2 Z" />
    </g>
    <g
       style="font-style:normal;font-weight:normal;font-size:40px;line-height:125%;font-family:sans-serif;letter-spacing:0px;word-spacing:0px;fill:url(#linearGradient4232);fill-opacity:1;stroke:#000000;stroke-width:1px;stroke-linecap:butt;stroke-linejoin:miter;stroke-opacity:1;opacity:0.66"
       id="text4198">
      <path
         d="M 12.006104,-2 C 10.533122,-2 8.9956707,-1.5304362 8.1981446,-0.63525391 7.4006184,0.25992838 7.0018554,1.5213216 7.0018554,3.1489258 c 0,1.6520182 0.2685547,2.9947916 0.8056642,4.0283203 C 8.3446289,8.2026367 9.9095053,9.2980957 11,9.8840332 L 11,13 3,13 3,10 7.3796387,10 C 6.1426595,9.2431639 4.6576334,8.0398763 3.9821777,6.737793 3.31486,5.4275716 2.9812012,3.9667968 2.9812012,2.3554687 c 0,-1.4973958 0.3458659,-2.81168613 1.0375976,-3.942871 C 4.7186686,-2.7267252 5.9141927,-3.6015625 7.2,-4.2119141 8.4858073,-4.8222656 10.305257,-5 12.006104,-5 c 2.596028,0 5.159384,0.5520833 6.689331,1.9111328 1.538086,1.3590495 2.307129,3.18196613 2.307129,5.46875 0,1.6113281 -0.337728,3.0598958 -1.013183,4.3457031 C 19.313925,8.0113932 17.845133,9.2187498 16.58374,10 L 21,10 l 0,3 -8,0 0,-3.1159668 c 1.131185,-0.5859375 2.661475,-1.6936035 3.198584,-2.7434082 0.537109,-1.0498047 0.805664,-2.3885091 0.805664,-4.0161133 0,-1.6194661 -0.402832,-2.87272134 -1.208496,-3.75976561 C 14.998226,-1.5304362 13.470947,-2 12.006104,-2 Z"
         style="font-style:normal;font-variant:normal;font-weight:bold;font-stretch:normal;font-size:25px;font-family:'Open Sans';-inkscape-font-specification:'Open Sans Bold';fill:url(#linearGradient4232);fill-opacity:1;stroke:#000000;stroke-opacity:1"
         id="path4344"
         inkscape:connector-curvature="0"
         sodipodi:nodetypes="ssscccccccscsscsscccccsscs" />
    </g>
    <ellipse
       style="color:#000000;display:inline;overflow:visible;visibility:visible;opacity:0.2;fill:url(#radialGradient3564);fill-opacity:1;fill-rule:nonzero;stroke:none;stroke-width:1;stroke-linecap:round;stroke-linejoin:round;stroke-miterlimit:4;stroke-dasharray:none;stroke-dashoffset:0;stroke-opacity:1;marker:none;marker-start:none;marker-mid:none;marker-end:none"
       id="path3556"
       cx="11.999999"
       cy="14.109868"
       rx="10.999999"
       ry="2.8901329" />
  </g>
</svg>
