<?xml version="1.0" encoding="UTF-8" standalone="no"?>
<svg
   xmlns:dc="http://purl.org/dc/elements/1.1/"
   xmlns:cc="http://creativecommons.org/ns#"
   xmlns:rdf="http://www.w3.org/1999/02/22-rdf-syntax-ns#"
   xmlns:svg="http://www.w3.org/2000/svg"
   xmlns="http://www.w3.org/2000/svg"
   xmlns:xlink="http://www.w3.org/1999/xlink"
   xmlns:sodipodi="http://sodipodi.sourceforge.net/DTD/sodipodi-0.dtd"
   xmlns:inkscape="http://www.inkscape.org/namespaces/inkscape"
   version="1.1"
   width="24"
   height="24"
   id="svg3202"
   inkscape:version="0.91 r13725"
   sodipodi:docname="lc_dbqueryedit.svg">
  <sodipodi:namedview
     pagecolor="#ffffff"
     bordercolor="#666666"
     borderopacity="1"
     objecttolerance="10"
     gridtolerance="10"
     guidetolerance="10"
     inkscape:pageopacity="0"
     inkscape:pageshadow="2"
     inkscape:window-width="2560"
     inkscape:window-height="1375"
     id="namedview57"
     showgrid="false"
     inkscape:zoom="19.666667"
     inkscape:cx="4.8315983"
     inkscape:cy="12.402759"
     inkscape:window-x="0"
     inkscape:window-y="36"
     inkscape:window-maximized="1"
     inkscape:current-layer="svg3202" />
  <defs
     id="defs3204">
    <linearGradient
       x1="21.381216"
       y1="5.0524864"
       x2="21.381216"
       y2="44.137077"
       id="linearGradient3110"
       xlink:href="#linearGradient3125"
       gradientUnits="userSpaceOnUse"
       gradientTransform="matrix(0.48571425,0,0,0.5,0.34285661,-0.249999)" />
    <linearGradient
       id="linearGradient3125">
      <stop
         id="stop3127"
         style="stop-color:#ffffff;stop-opacity:1"
         offset="0" />
      <stop
         id="stop3129"
         style="stop-color:#ffffff;stop-opacity:0.23529412"
         offset="0.08125819" />
      <stop
         id="stop3131"
         style="stop-color:#ffffff;stop-opacity:0.15686275"
         offset="0.92327863" />
      <stop
         id="stop3133"
         style="stop-color:#ffffff;stop-opacity:0.39215687"
         offset="1" />
    </linearGradient>
    <radialGradient
       cx="23.334524"
       cy="41.63604"
       r="22.627417"
       fx="23.334524"
       fy="41.63604"
       id="radialGradient3984"
       xlink:href="#linearGradient23419"
       gradientUnits="userSpaceOnUse"
       gradientTransform="matrix(0.48613594,0,0,0.19884311,0.65625012,11.220963)" />
    <linearGradient
       id="linearGradient23419">
      <stop
         id="stop23421"
         style="stop-color:#000000;stop-opacity:1"
         offset="0" />
      <stop
         id="stop23423"
         style="stop-color:#000000;stop-opacity:0"
         offset="1" />
    </linearGradient>
    <linearGradient
       x1="103.95014"
       y1="-7.6656942"
       x2="89.423676"
       y2="-7.6656942"
       id="linearGradient2864"
       xlink:href="#linearGradient2793"
       gradientUnits="userSpaceOnUse"
       gradientTransform="matrix(0.37654594,0,0,0.35839049,-27.150809,23.67023)"
       spreadMethod="reflect" />
    <linearGradient
       id="linearGradient2793">
      <stop
         id="stop2795"
         style="stop-color:#868688;stop-opacity:1"
         offset="0" />
      <stop
         id="stop2797"
         style="stop-color:#d9d9da;stop-opacity:1"
         offset="1" />
    </linearGradient>
    <linearGradient
       x1="89.01844"
       y1="22.536863"
       x2="89.01844"
       y2="27.54611"
       id="linearGradient2866"
       xlink:href="#linearGradient3858"
       gradientUnits="userSpaceOnUse"
       gradientTransform="matrix(0.8224499,0,0,0.82905873,-65.448598,0.0771844)" />
    <linearGradient
       id="linearGradient3858">
      <stop
         id="stop3860"
         style="stop-color:#a0a0a0;stop-opacity:1"
         offset="0" />
      <stop
         id="stop3862"
         style="stop-color:#4a4a4a;stop-opacity:1"
         offset="1" />
    </linearGradient>
    <linearGradient
       x1="103.95014"
       y1="-7.6656942"
       x2="89.423676"
       y2="-7.6656942"
       id="linearGradient3813"
       xlink:href="#linearGradient2793-4"
       gradientUnits="userSpaceOnUse"
       gradientTransform="matrix(0.37654594,0,0,0.35839049,-27.150809,18.670231)"
       spreadMethod="reflect" />
    <linearGradient
       id="linearGradient2793-4">
      <stop
         id="stop2795-9"
         style="stop-color:#868688;stop-opacity:1"
         offset="0" />
      <stop
         id="stop2797-8"
         style="stop-color:#d9d9da;stop-opacity:1"
         offset="1" />
    </linearGradient>
    <linearGradient
       x1="89.01844"
       y1="22.536863"
       x2="89.01844"
       y2="27.54611"
       id="linearGradient3815"
       xlink:href="#linearGradient3858-22"
       gradientUnits="userSpaceOnUse"
       gradientTransform="matrix(0.8224499,0,0,0.82905873,-65.448598,-4.922815)" />
    <linearGradient
       id="linearGradient3858-22">
      <stop
         id="stop3860-52"
         style="stop-color:#a0a0a0;stop-opacity:1"
         offset="0" />
      <stop
         id="stop3862-32"
         style="stop-color:#4a4a4a;stop-opacity:1"
         offset="1" />
    </linearGradient>
    <linearGradient
       x1="103.95014"
       y1="-7.6656942"
       x2="89.423676"
       y2="-7.6656942"
       id="linearGradient3878"
       xlink:href="#linearGradient2793-3-0"
       gradientUnits="userSpaceOnUse"
       gradientTransform="matrix(0.37654594,0,0,0.352792,-27.150809,13.746031)"
       spreadMethod="reflect" />
    <linearGradient
       id="linearGradient2793-3-0">
      <stop
         id="stop2795-3-9"
         style="stop-color:#868688;stop-opacity:1"
         offset="0" />
      <stop
         id="stop2797-7-4"
         style="stop-color:#d9d9da;stop-opacity:1"
         offset="1" />
    </linearGradient>
    <linearGradient
       x1="89.01844"
       y1="22.536863"
       x2="89.01844"
       y2="27.54611"
       id="linearGradient3880"
       xlink:href="#linearGradient3858-4-6"
       gradientUnits="userSpaceOnUse"
       gradientTransform="matrix(0.8224499,0,0,0.81610786,-65.448598,-9.478464)" />
    <linearGradient
       id="linearGradient3858-4-6">
      <stop
         id="stop3860-9-8"
         style="stop-color:#a0a0a0;stop-opacity:1"
         offset="0" />
      <stop
         id="stop3862-9-2"
         style="stop-color:#4a4a4a;stop-opacity:1"
         offset="1" />
    </linearGradient>
    <linearGradient
       id="linearGradient3844-4-1">
      <stop
         id="stop3846-6-6"
         style="stop-color:#a5a6a8;stop-opacity:1"
         offset="0" />
      <stop
         id="stop3848-9-0"
         style="stop-color:#e8e8e8;stop-opacity:1"
         offset="1" />
    </linearGradient>
    <linearGradient
       id="linearGradient2509-9-1">
      <stop
         id="stop2511-0-9"
         style="stop-color:#b3b3b3;stop-opacity:1"
         offset="0" />
      <stop
         id="stop2513-3-1"
         style="stop-color:#dadada;stop-opacity:1"
         offset="1" />
    </linearGradient>
    <linearGradient
       x1="102.30806"
       y1="-2.3925467"
       x2="102.30806"
       y2="-24.582239"
       id="linearGradient3198"
       xlink:href="#linearGradient3844-4-1"
       gradientUnits="userSpaceOnUse"
       gradientTransform="matrix(0.37845152,0,0,0.34136193,-27.338025,9.61463)"
       spreadMethod="reflect" />
    <linearGradient
       x1="109.95628"
       y1="-24.91135"
       x2="109.95628"
       y2="-2.3757858"
       id="linearGradient3200"
       xlink:href="#linearGradient2509-9-1"
       gradientUnits="userSpaceOnUse"
       gradientTransform="matrix(0.37845152,0,0,0.34136193,-27.338025,9.61463)" />
    <linearGradient
       inkscape:collect="always"
       xlink:href="#linearGradient2509-9-1"
       id="linearGradient4207"
       x1="1.9982721"
       y1="18.498636"
       x2="22.000849"
       y2="18.498636"
       gradientUnits="userSpaceOnUse" />
    <linearGradient
       inkscape:collect="always"
       xlink:href="#linearGradient2509-9-1"
       id="linearGradient4209"
       x1="1.9982721"
       y1="13.498637"
       x2="22.000849"
       y2="13.498637"
       gradientUnits="userSpaceOnUse" />
    <linearGradient
       inkscape:collect="always"
       xlink:href="#linearGradient2509-9-1"
       id="linearGradient4211"
       x1="1.998348"
       y1="8.5000019"
       x2="22.000849"
       y2="8.5000019"
       gradientUnits="userSpaceOnUse" />
    <mask
       id="mask3187">
      <rect
         width="23.375"
         height="22.5"
         x="303.54129"
         y="125.90525"
         id="rect3189"
         style="display:inline;visibility:visible;fill:url(#linearGradient3191);fill-opacity:1;fill-rule:nonzero;stroke:none" />
    </mask>
    <linearGradient
       x1="321.55618"
       y1="1051.4922"
       x2="322.7074"
       y2="1053.7898"
       id="linearGradient3191"
       xlink:href="#linearGradient7693-9"
       gradientUnits="userSpaceOnUse"
       gradientTransform="translate(-5.0837085,-912.59472)" />
    <linearGradient
       id="linearGradient7693-9">
      <stop
         id="stop7695-3"
         style="stop-color:#ffffff;stop-opacity:1"
         offset="0" />
      <stop
         id="stop7697-6"
         style="stop-color:#000000;stop-opacity:1"
         offset="1" />
    </linearGradient>
    <linearGradient
       x1="309.29663"
       y1="67.297691"
       x2="335.30014"
       y2="81.926315"
       id="linearGradient3178"
       xlink:href="#linearGradient4434-3"
       gradientUnits="userSpaceOnUse"
       gradientTransform="matrix(0.7811541,-0.03481362,-0.03481362,0.7811541,70.230423,94.3198)" />
    <linearGradient
       id="linearGradient4434-3">
      <stop
         id="stop4436-3"
         style="stop-color:#d3d7cf;stop-opacity:1"
         offset="0" />
      <stop
         id="stop4438-8"
         style="stop-color:#babdb6;stop-opacity:1"
         offset="0.18303643" />
      <stop
         id="stop4440-0"
         style="stop-color:#ffffff;stop-opacity:1"
         offset="0.31893486" />
      <stop
         id="stop4442-5"
         style="stop-color:#babdb6;stop-opacity:1"
         offset="0.87643671" />
      <stop
         id="stop4444-6"
         style="stop-color:#eeeeec;stop-opacity:1"
         offset="1" />
    </linearGradient>
    <linearGradient
       x1="324.49731"
       y1="70.282364"
       x2="330.06076"
       y2="99.273735"
       id="linearGradient3180"
       xlink:href="#linearGradient7444-4"
       gradientUnits="userSpaceOnUse"
       gradientTransform="matrix(0.7811541,-0.03481362,-0.03481362,0.7811541,70.230423,94.3198)" />
    <linearGradient
       id="linearGradient7444-4">
      <stop
         id="stop7446-4"
         style="stop-color:#888a85;stop-opacity:1"
         offset="0" />
      <stop
         id="stop7448-9"
         style="stop-color:#555753;stop-opacity:1"
         offset="1" />
    </linearGradient>
    <linearGradient
       x1="302.29202"
       y1="58.442768"
       x2="308.64914"
       y2="60.767513"
       id="linearGradient3182"
       xlink:href="#linearGradient7381"
       gradientUnits="userSpaceOnUse"
       gradientTransform="matrix(0.801996,0,0,0.7960034,69.746815,998.18246)" />
    <linearGradient
       id="linearGradient7381">
      <stop
         id="stop7383"
         style="stop-color:#babdb6;stop-opacity:1"
         offset="0" />
      <stop
         id="stop7385"
         style="stop-color:#ffffff;stop-opacity:1"
         offset="1" />
    </linearGradient>
  </defs>
  <metadata
     id="metadata3207">
    <rdf:RDF>
      <cc:Work
         rdf:about="">
        <dc:format>image/svg+xml</dc:format>
        <dc:type
           rdf:resource="http://purl.org/dc/dcmitype/StillImage" />
        <dc:title />
      </cc:Work>
    </rdf:RDF>
  </metadata>
  <path
     d="M 23,19.500001 C 23.000931,21.985169 18.075796,24 12,24 5.9242042,24 0.99906174,21.985169 1.0000001,19.500001 0.99906089,17.014831 5.9242042,15 12,15 c 6.075796,0 11.000939,2.014831 11,4.500001 z"
     id="path23417"
     style="display:inline;overflow:visible;visibility:visible;opacity:0.3;fill:url(#radialGradient3984);fill-opacity:1;fill-rule:evenodd;stroke:none;stroke-width:2;marker:none"
     inkscape:connector-curvature="0" />
  <path
     d="m 21.441286,18.825403 c 0,2.028375 -4.234572,3.674596 -9.452159,3.674596 -5.2175947,0 -9.4521646,-1.646221 -9.4521646,-3.674596 0,-6.488122 -1.1553118,-3.598097 9.4521646,-3.674595 10.850407,-0.07892 9.452159,-2.849032 9.452159,3.674595 z"
     id="path4834"
     style="fill:url(#linearGradient4207);fill-opacity:1.0;stroke:url(#linearGradient2866);stroke-width:0.99999994;stroke-miterlimit:4;stroke-dasharray:none;stroke-opacity:1"
     inkscape:connector-curvature="0" />
  <path
     d="M 21.5,15.000001 C 21.5,16.932997 17.246704,18.5 12.000001,18.5 6.7532954,18.5 2.5,16.932997 2.5,15.000001 2.5,13.067003 6.7532954,11.5 12.000001,11.5 17.246704,11.5 21.5,13.067003 21.5,15.000001 l 0,0 z"
     id="path4838"
     style="fill:none;stroke:#d8d8d8;stroke-width:1;stroke-miterlimit:4;stroke-dasharray:none;stroke-opacity:1"
     inkscape:connector-curvature="0" />
  <path
     d="m 21.441286,13.825404 c 0,2.028375 -4.234572,3.674596 -9.452159,3.674596 -5.2175947,0 -9.4521646,-1.646221 -9.4521646,-3.674596 0,-6.488122 -1.1553118,-3.598097 9.4521646,-3.674595 10.850407,-0.07892 9.452159,-2.849032 9.452159,3.674595 z"
     id="path4834-7"
     style="fill:url(#linearGradient4209);fill-opacity:1.0;stroke:url(#linearGradient3815);stroke-width:0.99999994;stroke-miterlimit:4;stroke-dasharray:none;stroke-opacity:1"
     inkscape:connector-curvature="0" />
  <path
     d="m 21.5,10.000002 c 0,1.932996 -4.253296,3.499999 -9.499999,3.499999 C 6.7532954,13.500001 2.5,11.932998 2.5,10.000002 2.5,8.067004 6.7532954,6.500001 12.000001,6.500001 17.246704,6.500001 21.5,8.067004 21.5,10.000002 l 0,0 z"
     id="path4838-3"
     style="fill:none;stroke:#d8d8d8;stroke-width:1;stroke-miterlimit:4;stroke-dasharray:none;stroke-opacity:1"
     inkscape:connector-curvature="0" />
  <path
     d="m 21.441286,8.976886 c 0,1.99669 -4.234572,3.523114 -9.452159,3.523114 -5.2175947,0 -9.4521646,-1.526424 -9.4521646,-3.523114 0,-7.1907048 -1.1553118,-3.541892 9.4521646,-3.617194 10.850407,-0.0777 9.452159,-3.109574 9.452159,3.617194 z"
     id="path3878"
     style="fill:url(#linearGradient4211);fill-opacity:1.0;stroke:url(#linearGradient3880);stroke-width:0.99999994;stroke-miterlimit:4;stroke-dasharray:none;stroke-opacity:1"
     inkscape:connector-curvature="0" />
  <path
     d="m 21.5,5 c 0,1.932997 -4.253296,3.5 -9.499999,3.5 C 6.7532955,8.5 2.5,6.932997 2.5,5 2.5,3.067004 6.7532955,1.5 12.000001,1.5 17.246704,1.5 21.5,3.067004 21.5,5 l 0,0 z"
     id="path3880"
     style="fill:url(#linearGradient3198);fill-opacity:1;stroke:url(#linearGradient3200);stroke-width:0.99999994;stroke-miterlimit:4;stroke-dasharray:none;stroke-opacity:1"
     inkscape:connector-curvature="0" />
  <rect
     style="color:#000000;display:inline;overflow:visible;visibility:visible;opacity:0.5;fill:none;stroke:url(#linearGradient3110);stroke-width:1;stroke-opacity:1;marker:none;enable-background:accumulate"
     id="rect3145"
     y="2.5"
     x="3.5"
     ry="3"
     rx="17.5"
     height="19"
     width="17" />
  <g
     transform="matrix(0.86159974,0,0,0.86159974,3.2856857,3.1105251)"
     id="g4222">
    <path
       d="m 14.999984,11.580757 c -0.05244,0.01567 -0.08675,0.04907 -0.125,0.09375 -0.07653,0.08936 -0.11515,0.216835 -0.0625,0.3125 l 1.40625,2.65625 c 0.125982,0.239363 0.04748,0.573495 -0.1875,0.90625 -0.237231,0.335907 -0.608047,0.688579 -1.09375,0.96875 -0.485808,0.28024 -0.977944,0.437605 -1.375,0.46875 -0.394711,0.03099 -0.717447,-0.07247 -0.84375,-0.3125 l -1.40625,-2.6875 c -0.03935,-0.07451 -0.100938,-0.118741 -0.1875,-0.125 -0.08652,-0.0061 -0.189081,0.02655 -0.25,0.09375 -0.03284,0.03499 -0.04982,0.0798 -0.0625,0.125 -0.351964,1.288231 -0.265359,2.739563 0.25,3.71875 0.703824,1.337255 2.271665,1.940224 3.84375,1.59375 0.627816,0.186403 -0.460557,-1.026545 0.497159,-0.07386 l 4.887516,0.28125 -0.540925,-1.082386 c -0.863354,-0.858809 -1.28426,-1.620936 -1.5,-2.21875 0.248089,-0.850827 0.189199,-1.756137 -0.21875,-2.53125 -0.51516,-0.97876 -1.649372,-1.810281 -2.875,-2.1875 -0.05255,-0.01719 -0.103808,-0.01567 -0.15625,0 l 0,-4e-6 z"
       id="path4010"
       style="display:inline;opacity:0.4;fill:none;stroke:#000000;stroke-width:2;stroke-linecap:round;stroke-linejoin:round;stroke-miterlimit:4;stroke-dasharray:none;stroke-dashoffset:0.3612;stroke-opacity:1;enable-background:new"
       inkscape:connector-curvature="0" />
    <g
       transform="matrix(0.8686611,0,0,0.8704732,-253.90735,-98.906489)"
       mask="url(#mask3187)"
       id="g6305"
       style="display:inline;enable-background:new">
      <path
         d="m 319.39329,139.2285 -4.34206,-4.35975 c -0.99389,-0.9866 -1.50014,-1.84777 -1.7485,-2.53454 0.2856,-0.97743 0.2328,-2.00504 -0.23683,-2.89549 -0.59305,-1.1244 -1.89986,-2.08374 -3.3108,-2.51709 -0.12099,-0.0395 -0.25795,9.2e-4 -0.34601,0.10358 -0.0881,0.10266 -0.10892,0.24521 -0.0483,0.35511 l 1.61439,3.06837 c 0.14503,0.27498 0.0466,0.64136 -0.22391,1.02363 -0.2731,0.38589 -0.71642,0.77909 -1.27556,1.10095 -0.55926,0.32194 -1.11244,0.50954 -1.56953,0.54532 -0.45439,0.0356 -0.8053,-0.0744 -0.9507,-0.35014 l -1.62416,-3.08537 c -0.0453,-0.0856 -0.1291,-0.13927 -0.22875,-0.14646 -0.0996,-0.007 -0.20234,0.0334 -0.27247,0.1106 l -1e-5,0 c -0.0378,0.0402 -0.0658,0.0881 -0.0804,0.14003 -0.40518,1.47992 -0.31949,3.15578 0.27379,4.28067 0.81024,1.53624 2.61048,2.20625 4.42026,1.80822 0.72274,0.21414 1.6718,0.71421 2.77432,1.80865 l 3.29554,3.21095"
         id="path3688"
         style="display:inline;fill:url(#linearGradient3178);fill-opacity:1;fill-rule:evenodd;stroke:url(#linearGradient3180);stroke-width:1.14999783;stroke-linecap:round;stroke-linejoin:round;stroke-miterlimit:4;stroke-dasharray:none;stroke-dashoffset:0.3612;stroke-opacity:1;enable-background:new"
         inkscape:connector-curvature="0" />
      <path
         d="m 314.50598,1039.6243 c 0.015,0.01 0.006,0.025 0,0.025 l 1.80449,3.2089 c 0.24343,0.4323 0.0678,0.9428 -0.22556,1.3681 -0.29634,0.4296 -0.75548,0.8457 -1.35337,1.1692 -0.59917,0.3241 -1.22764,0.4798 -1.75437,0.4975 -0.52558,0.018 -1.01891,-0.1313 -1.25311,-0.5473 l -1.8045,-3.2337 c -0.0104,0 -0.0268,0 -0.0251,0 0.0165,-0.018 0.003,0.013 0,0.025 -0.33275,1.4234 -0.16017,3.0685 0.45113,4.1542 0.83618,1.485 2.58195,2.1944 4.31073,1.8905 1.72065,-0.3057 3.19191,-1.7936 3.55886,-3.2089 0.23171,-0.9167 0.13299,-1.9018 -0.35088,-2.7611 -0.60963,-1.0827 -1.95075,-2.1023 -3.35835,-2.5871 l 3e-5,-3e-4 z"
         transform="translate(-5.0837137,-912.59475)"
         id="path2777"
         style="display:inline;fill:url(#linearGradient3182);fill-opacity:1;fill-rule:evenodd;stroke:none;enable-background:new"
         inkscape:connector-curvature="0" />
      <path
         d="m 310.21875,127.75 1.25,2.4375 c 0.28894,0.54782 0.085,1.12046 -0.25,1.59375 -0.33855,0.47839 -0.8542,0.92749 -1.46875,1.28125 -0.60688,0.34935 -1.22432,0.57896 -1.8125,0.625 -0.2801,0.0219 -0.5499,-0.002 -0.8125,-0.0937 -0.2626,-0.0921 -0.51362,-0.29205 -0.65625,-0.5625 l -1.25,-2.375 c -0.17286,1.16401 -0.0996,2.37485 0.3125,3.15625 0.68338,1.29573 2.17648,1.88419 3.78125,1.53125 0.0917,-0.0238 0.18952,-0.0238 0.28125,0 0.82317,0.2439 1.87487,0.7896 3.03125,1.9375 l 4.03032,3.84651 2.65917,-1.37343 -4.65824,-4.47313 c -1.04139,-1.03374 -1.59436,-1.97397 -1.875,-2.75 -0.0358,-0.11084 -0.0358,-0.23291 0,-0.34375 0.24916,-0.8527 0.1772,-1.74925 -0.21875,-2.5 -0.41054,-0.77836 -1.32353,-1.47359 -2.34375,-1.9375 l 0,0 z"
         id="path3711-4"
         style="display:inline;fill:none;stroke:#ffffff;stroke-width:0.57499903;stroke-linecap:round;stroke-linejoin:round;stroke-miterlimit:4;stroke-dasharray:none;stroke-dashoffset:0.3612;stroke-opacity:1;enable-background:new"
         inkscape:connector-curvature="0" />
      <path
         d="m 318.61464,140.71739 -0.12501,0.12501 c -0.34845,0.34845 -1.18936,0.0686 -1.88545,-0.6275 l -4.17573,-3.67032 c -0.69609,-0.69609 -0.97595,-1.537 -0.6275,-1.88546 l 0.125,-0.125 c 0.34846,-0.34845 1.18937,-0.0686 1.88546,0.6275 l 4.17573,3.67032 c 0.69609,0.69609 0.97595,1.537 0.6275,1.88545 l 0,0 z"
         id="rect3610"
         style="display:inline;opacity:0.07999998;fill:#000000;fill-opacity:1;fill-rule:evenodd;stroke:none;enable-background:new"
         inkscape:connector-curvature="0" />
    </g>
  </g>
</svg>
