<?xml version="1.0" encoding="UTF-8" standalone="no"?>
<svg
   xmlns:dc="http://purl.org/dc/elements/1.1/"
   xmlns:cc="http://creativecommons.org/ns#"
   xmlns:rdf="http://www.w3.org/1999/02/22-rdf-syntax-ns#"
   xmlns:svg="http://www.w3.org/2000/svg"
   xmlns="http://www.w3.org/2000/svg"
   xmlns:xlink="http://www.w3.org/1999/xlink"
   xmlns:sodipodi="http://sodipodi.sourceforge.net/DTD/sodipodi-0.dtd"
   xmlns:inkscape="http://www.inkscape.org/namespaces/inkscape"
   viewBox="0 0 24 24"
   id="svg2"
   version="1.1"
   inkscape:version="0.91 r13725"
   sodipodi:docname="lc_formatungroup.svg">
  <metadata
     id="metadata10">
    <rdf:RDF>
      <cc:Work
         rdf:about="">
        <dc:format>image/svg+xml</dc:format>
        <dc:type
           rdf:resource="http://purl.org/dc/dcmitype/StillImage" />
        <dc:title></dc:title>
      </cc:Work>
    </rdf:RDF>
  </metadata>
  <defs
     id="defs8">
    <linearGradient
       id="linearGradient4363">
      <stop
         offset="0"
         style="stop-color:#f0c1ff;stop-opacity:1"
         id="stop4365" />
      <stop
         offset="0.26238"
         style="stop-color:#c5a3f2;stop-opacity:1"
         id="stop4367" />
      <stop
         offset="0.704952"
         style="stop-color:#7a36b1;stop-opacity:1"
         id="stop4369" />
      <stop
         offset="1"
         style="stop-color:#bb95e9;stop-opacity:1"
         id="stop4371" />
    </linearGradient>
    <linearGradient
       inkscape:collect="always"
       xlink:href="#linearGradient4225"
       id="linearGradient4612"
       x1="1.2043726"
       y1="7.6370902"
       x2="14.20437"
       y2="7.6370902"
       gradientUnits="userSpaceOnUse" />
    <linearGradient
       id="linearGradient4225">
      <stop
         id="stop4227"
         style="stop-color:#6c6c6c;stop-opacity:0.69999999"
         offset="0" />
      <stop
         id="stop4229"
         style="stop-color:#c1c1c1;stop-opacity:1"
         offset="1" />
    </linearGradient>
    <linearGradient
       x1="12"
       y1="24.466665"
       x2="12"
       y2="2.9333332"
       id="linearGradient4192"
       xlink:href="#linearGradient4186"
       gradientUnits="userSpaceOnUse"
       gradientTransform="matrix(1.0588235,0,0,1.0211804,-0.70588236,-0.25416472)" />
    <linearGradient
       id="linearGradient4186">
      <stop
         id="stop4188"
         style="stop-color:#ffffff;stop-opacity:0.50199997"
         offset="0" />
      <stop
         id="stop4204"
         style="stop-color:#ffffff;stop-opacity:0"
         offset="1" />
    </linearGradient>
    <linearGradient
       inkscape:collect="always"
       xlink:href="#linearGradient4186"
       id="linearGradient4673"
       gradientUnits="userSpaceOnUse"
       x1="9.8722773"
       y1="15.22011"
       x2="9.8722773"
       y2="-2.1082203" />
    <linearGradient
       x1="15.764706"
       y1="3.529412"
       x2="15.764706"
       y2="18.588236"
       id="linearGradient4165"
       xlink:href="#linearGradient3600"
       gradientUnits="userSpaceOnUse"
       gradientTransform="matrix(1.275,0,0,1.2296714,-3.3,-2.7560579)" />
    <linearGradient
       id="linearGradient3600">
      <stop
         id="stop3602"
         style="stop-color:#f4f4f4;stop-opacity:1"
         offset="0" />
      <stop
         id="stop3604"
         style="stop-color:#dbdbdb;stop-opacity:1"
         offset="1" />
    </linearGradient>
    <radialGradient
       cx="605.71429"
       cy="486.64789"
       r="117.14286"
       fx="605.71429"
       fy="486.64789"
       id="radialGradient4151"
       xlink:href="#linearGradient5060"
       gradientUnits="userSpaceOnUse"
       gradientTransform="matrix(0.01445831,0,0,0.00953102,2.386552,7.3481057)" />
    <linearGradient
       id="linearGradient5060">
      <stop
         id="stop5062"
         style="stop-color:#000000;stop-opacity:1"
         offset="0" />
      <stop
         id="stop5064"
         style="stop-color:#000000;stop-opacity:0"
         offset="1" />
    </linearGradient>
    <radialGradient
       cx="605.71429"
       cy="486.64789"
       r="117.14286"
       fx="605.71429"
       fy="486.64789"
       id="radialGradient4154"
       xlink:href="#linearGradient5060"
       gradientUnits="userSpaceOnUse"
       gradientTransform="matrix(-0.01445831,0,0,0.00953102,21.613447,7.3481057)" />
    <linearGradient
       x1="302.85715"
       y1="366.64789"
       x2="302.85715"
       y2="609.50507"
       id="linearGradient4157"
       xlink:href="#linearGradient5048"
       gradientUnits="userSpaceOnUse"
       gradientTransform="matrix(0.04224852,0,0,0.00953102,-3.2698212,7.3481336)" />
    <linearGradient
       id="linearGradient5048">
      <stop
         id="stop5050"
         style="stop-color:#000000;stop-opacity:0"
         offset="0" />
      <stop
         id="stop5056"
         style="stop-color:#000000;stop-opacity:1"
         offset="0.5" />
      <stop
         id="stop5052"
         style="stop-color:#000000;stop-opacity:0"
         offset="1" />
    </linearGradient>
    <linearGradient
       inkscape:collect="always"
       xlink:href="#linearGradient4186"
       id="linearGradient4246"
       gradientUnits="userSpaceOnUse"
       x1="9.8722773"
       y1="15.22011"
       x2="9.8722773"
       y2="-2.1082203" />
    <linearGradient
       inkscape:collect="always"
       xlink:href="#linearGradient4225"
       id="linearGradient4248"
       gradientUnits="userSpaceOnUse"
       x1="1.2043726"
       y1="7.6370902"
       x2="14.20437"
       y2="7.6370902" />
    <linearGradient
       inkscape:collect="always"
       xlink:href="#linearGradient4225"
       id="linearGradient4250"
       gradientUnits="userSpaceOnUse"
       x1="7.7043715"
       y1="-1.0261712"
       x2="7.7043715"
       y2="15.219138" />
    <radialGradient
       inkscape:collect="always"
       xlink:href="#linearGradient4363"
       id="radialGradient4361"
       cx="10.25028"
       cy="-2.9994919"
       fx="10.25028"
       fy="-2.9994919"
       r="3.9596002"
       gradientUnits="userSpaceOnUse"
       gradientTransform="matrix(0.02178581,5.961192,-4.2344463,0.0166228,-2.6742178,-64.05352)" />
  </defs>
  <sodipodi:namedview
     pagecolor="#ffffff"
     bordercolor="#666666"
     borderopacity="1"
     objecttolerance="10"
     gridtolerance="10"
     guidetolerance="10"
     inkscape:pageopacity="0"
     inkscape:pageshadow="2"
     inkscape:window-width="2560"
     inkscape:window-height="1301"
     id="namedview6"
     showgrid="true"
     inkscape:zoom="19.666667"
     inkscape:cx="25.414736"
     inkscape:cy="14.26589"
     inkscape:window-x="0"
     inkscape:window-y="32"
     inkscape:window-maximized="1"
     inkscape:current-layer="svg2"
     inkscape:object-nodes="true">
    <inkscape:grid
       type="xygrid"
       id="grid4373" />
  </sodipodi:namedview>
  <rect
     width="20.399998"
     height="2.3146756"
     x="1.8000011"
     y="10.842662"
     id="rect2879"
     style="display:inline;overflow:visible;visibility:visible;opacity:0.15;fill:url(#linearGradient4157);fill-opacity:1;fill-rule:nonzero;stroke:none;stroke-width:1;marker:none" />
  <path
     inkscape:connector-curvature="0"
     d="m 12.9,10.842712 c 0,0 0,2.314549 0,2.314549 -0.744566,0.0044 -1.8,-0.518574 -1.8,-1.157425 0,-0.638849 0.83088,-1.157124 1.8,-1.157124 z"
     id="path2881"
     style="display:inline;overflow:visible;visibility:visible;opacity:0.15;fill:url(#radialGradient4154);fill-opacity:1;fill-rule:nonzero;stroke:none;stroke-width:1;marker:none" />
  <path
     inkscape:connector-curvature="0"
     d="m 11.1,10.842712 c 0,0 0,2.314549 0,2.314549 0.744566,0.0044 1.8,-0.518574 1.8,-1.157425 0,-0.638849 -0.830882,-1.157124 -1.8,-1.157124 z"
     id="path2883"
     style="display:inline;overflow:visible;visibility:visible;opacity:0.15;fill:url(#radialGradient4151);fill-opacity:1;fill-rule:nonzero;stroke:none;stroke-width:1;marker:none" />
  <rect
     width="20.4"
     height="19.67477"
     rx="3.1384616"
     ry="3.0268836"
     x="1.7999992"
     y="2.1626148"
     id="rect4133"
     style="fill:url(#linearGradient4165);fill-opacity:1;stroke:none" />
  <rect
     width="20.4"
     height="19.67477"
     rx="3.1384616"
     ry="3.0268834"
     x="1.8000002"
     y="2.1626148"
     id="rect7169"
     style="opacity:0.3;fill:none;stroke:none;stroke-width:1;stroke-miterlimit:4;stroke-dasharray:none;stroke-opacity:1" />
  <g
     id="layer1-7"
     transform="matrix(1.107534,0,0,1.0686202,3.4671468,3.838851)"
     style="stroke:url(#linearGradient4248)">
    <rect
       style="fill:none;stroke:url(#linearGradient4246);stroke-width:0.99999988;stroke-linecap:butt;stroke-linejoin:miter;stroke-miterlimit:0;stroke-dasharray:none;stroke-dashoffset:0;stroke-opacity:1"
       id="rect11008-5"
       y="6.6370916"
       x="1.7043725"
       height="6.9999976"
       width="8.000001" />
    <path
       style="fill:none;stroke:url(#linearGradient4673);stroke-width:1;stroke-linecap:butt;stroke-linejoin:round;stroke-miterlimit:0;stroke-dasharray:none;stroke-dashoffset:0;stroke-opacity:1"
       id="path11020-3"
       d="m 13.70437,5.1370912 a 3.5000005,3.5000012 0 1 1 -7.000001,0 3.5000005,3.5000012 0 1 1 7.000001,0 z"
       inkscape:connector-curvature="0" />
  </g>
  <rect
     width="18.711864"
     height="17.919415"
     rx="2.7692308"
     ry="2.6707797"
     x="2.5932202"
     y="3.0911412"
     id="rect4183"
     style="fill:none;stroke:url(#linearGradient4192);stroke-width:1;stroke-miterlimit:4;stroke-dasharray:none" />
  <g
     id="layer1"
     transform="matrix(1.107534,0,0,1.0686202,3.4671468,3.838851)"
     style="stroke:url(#linearGradient4612)">
    <rect
       style="fill:none;stroke:url(#linearGradient4250);stroke-width:0.91919949;stroke-linecap:butt;stroke-linejoin:round;stroke-miterlimit:0;stroke-dasharray:none;stroke-dashoffset:0;stroke-opacity:1"
       id="rect11008"
       y="6.6370916"
       x="1.7043725"
       height="6.9999976"
       width="8.000001" />
    <path
       style="fill:url(#radialGradient4361);stroke:#6326b9;stroke-width:0.91919949;stroke-linecap:butt;stroke-linejoin:round;stroke-miterlimit:0;stroke-dasharray:none;stroke-dashoffset:0;stroke-opacity:0.61627907;fill-opacity:1"
       id="path11020"
       d="m 13.70437,5.1370912 a 3.5000005,3.5000012 0 1 1 -7.000001,0 3.5000005,3.5000012 0 1 1 7.000001,0 z"
       inkscape:connector-curvature="0" />
  </g>
  <path
     style="opacity:0.3;fill:#000000;fill-opacity:1;stroke:none;stroke-width:1;stroke-linejoin:round;stroke-miterlimit:4;stroke-dasharray:none;stroke-opacity:0.61627909"
     d="m 5.5,1.6621094 3,0 z m 3,0 0,1 2,0 0,-1 z m 2,0 3,0 z m 3,0 0,1 2,0 0,-1 z m 2,0 3,0 z m 3,0 0,1 0.5625,0 c 1.479897,0 2.636719,1.1286938 2.636719,2.5273437 l 0,0.3105469 1,0 0,-0.3105469 c 0,-1.9551368 -1.6392,-3.5273437 -3.636719,-3.5273437 z M 22.699219,5.5 l 0,3 z m 0,3 -1,0 0,2 1,0 z m 0,2 0,3 z m 0,3 -1,0 0,2 1,0 z m 0,2 0,3 z m 0,3 -1,0 0,0.310547 c 0,1.39865 -1.156822,2.527344 -2.636719,2.527344 l -0.5625,0 0,1 0.5625,0 c 1.997519,0 3.636719,-1.572207 3.636719,-3.527344 z M 18.5,22.337891 l -3,0 z m -3,0 0,-1 -2,0 0,1 z m -2,0 -3,0 z m -3,0 0,-1 -2,0 0,1 z m -2,0 -3,0 z m -3,0 0,-1 -0.5625,0 c -1.4798967,0 -2.6367188,-1.128694 -2.6367188,-2.527344 l 0,-0.310547 -1,0 0,0.310547 c 0,1.955137 1.6392001,3.527344 3.6367188,3.527344 z M 1.3007812,18.5 l 0,-3 z m 0,-3 1,0 0,-2 -1,0 z m 0,-2 0,-3 z m 0,-3 1,0 0,-2 -1,0 z m 0,-2 0,-3 z m 0,-3 1,0 0,-0.3105469 c 0,-1.3986499 1.1568221,-2.5273437 2.6367188,-2.5273437 l 0.5625,0 0,-1 -0.5625,0 c -1.9975187,0 -3.6367188,1.5722069 -3.6367188,3.5273437 z M 5.5,2.6621094 l 3,0 z M 2.3007812,5.5 l 0,3 z m 0,5 0,3 z m 0,5 0,3 z M 5.5,21.337891 l 3,0 z m 5,0 3,0 z m 5,0 3,0 z M 21.699219,18.5 l 0,-3 z m 0,-5 0,-3 z m 0,-5 0,-3 z M 18.5,2.6621094 l -3,0 z m -5,0 -3,0 z"
     id="rect4375"
     inkscape:connector-curvature="0"
     sodipodi:nodetypes="cccccccccccccccccccccssccssccccccccccccccccccccccssccssccccccccccccccccccccccssccssccccccccccccccccccccccssccssccccccccccccccccccccccccccccccccccccc" />
</svg>
