<?xml version="1.0" encoding="UTF-8" standalone="no"?>
<svg
   xmlns:dc="http://purl.org/dc/elements/1.1/"
   xmlns:cc="http://creativecommons.org/ns#"
   xmlns:rdf="http://www.w3.org/1999/02/22-rdf-syntax-ns#"
   xmlns:svg="http://www.w3.org/2000/svg"
   xmlns="http://www.w3.org/2000/svg"
   xmlns:xlink="http://www.w3.org/1999/xlink"
   xmlns:sodipodi="http://sodipodi.sourceforge.net/DTD/sodipodi-0.dtd"
   xmlns:inkscape="http://www.inkscape.org/namespaces/inkscape"
   version="1.1"
   width="24"
   height="24"
   id="svg4524"
   inkscape:version="0.91 r13725"
   sodipodi:docname="lc_movedownsubitems.svg">
  <sodipodi:namedview
     pagecolor="#ffffff"
     bordercolor="#666666"
     borderopacity="1"
     objecttolerance="10"
     gridtolerance="10"
     guidetolerance="10"
     inkscape:pageopacity="0"
     inkscape:pageshadow="2"
     inkscape:window-width="2560"
     inkscape:window-height="1301"
     id="namedview22"
     showgrid="true"
     inkscape:zoom="32.733151"
     inkscape:cx="23.64405"
     inkscape:cy="11.402285"
     inkscape:window-x="0"
     inkscape:window-y="32"
     inkscape:window-maximized="1"
     inkscape:current-layer="svg4524">
    <inkscape:grid
       type="xygrid"
       id="grid4185" />
  </sodipodi:namedview>
  <defs
     id="defs4526">
    <radialGradient
       cx="22.818085"
       cy="-25.988077"
       r="19.99999"
       fx="22.818085"
       fy="-25.988077"
       id="radialGradient3896-0"
       xlink:href="#linearGradient3682"
       gradientUnits="userSpaceOnUse"
       gradientTransform="matrix(-1.7361515,0,0,-1.5241254,70.7834,-38.540124)" />
    <linearGradient
       id="linearGradient3682">
      <stop
         style="stop-color:#1f1f1f;stop-opacity:1.0000000;"
         offset="0.0000000"
         id="stop3684" />
      <stop
         style="stop-color:#5c5c5c;stop-opacity:1.0000000;"
         offset="1.0000000"
         id="stop3686" />
    </linearGradient>
    <radialGradient
       cx="22.818085"
       cy="-25.988077"
       r="19.99999"
       fx="22.818085"
       fy="-25.988077"
       id="radialGradient3896-0-3"
       xlink:href="#linearGradient3682"
       gradientUnits="userSpaceOnUse"
       gradientTransform="matrix(-1.4277642,0,0,-1.2452847,46.894413,-26.793741)" />
    <radialGradient
       cx="22.818085"
       cy="-25.988077"
       r="19.99999"
       fx="22.818085"
       fy="-25.988077"
       id="radialGradient3896-0-3-9"
       xlink:href="#linearGradient3682"
       gradientUnits="userSpaceOnUse"
       gradientTransform="matrix(-1.2243362,0,0,-1.0532431,34.350322,-27.319729)" />
  </defs>
  <metadata
     id="metadata4529">
    <rdf:RDF>
      <cc:Work
         rdf:about="">
        <dc:format>image/svg+xml</dc:format>
        <dc:type
           rdf:resource="http://purl.org/dc/dcmitype/StillImage" />
        <dc:title />
      </cc:Work>
    </rdf:RDF>
  </metadata>
  <path
     d="m 8.410343,13.976002 c -0.00806,0.200822 0.082607,0.388465 0.2312921,0.53619 l 5.7309119,5.821472 c 0.120809,0.120026 0.26064,0.195009 0.411185,0.229793 0.07731,0.01787 0.154082,0.03047 0.231293,0.02553 0.02492,0.0014 0.05201,9.79e-4 0.07709,0 0.04522,-0.0078 0.08553,-0.0096 0.128498,-0.02553 0.155239,-0.03321 0.312534,-0.106249 0.436888,-0.229794 l 5.73091,-5.821474 c 0.297373,-0.295448 0.270756,-0.777841 -0.0514,-1.097909 l -1.15646,-1.148975 c -0.322154,-0.320068 -0.833389,-0.346512 -1.130762,-0.05107 l -2.390023,2.374547 2e-6,-5.361882 c -1e-6,-0.452645 -0.366779,-0.8170492 -0.822374,-0.8170493 l -1.644744,1.4e-6 c -0.455594,4e-7 -0.822373,0.3644028 -0.822373,0.8170479 l 0,5.387415 -2.41572,-2.40008 c -0.297375,-0.295447 -0.78291,-0.269003 -1.105064,0.05107 l -1.1821648,1.148976 c -0.1610774,0.160033 -0.2489045,0.3609 -0.2569915,0.561721 z"
     id="rect3811-1-2"
     style="color:#000000;display:inline;overflow:visible;visibility:visible;opacity:0.66000001;fill:url(#radialGradient3896-0-3);fill-opacity:1;fill-rule:nonzero;stroke:#000000;stroke-width:0.8197065;stroke-opacity:1;marker:none;enable-background:accumulate"
     inkscape:connector-curvature="0" />
  <path
     d="m 1.3494681,7.1627069 c -0.00694,0.169852 0.070836,0.3285576 0.1983374,0.4535008 l 4.914371,4.9237143 c 0.1035959,0.101516 0.2235041,0.164935 0.3525999,0.194355 0.066299,0.01512 0.1321276,0.02577 0.1983381,0.02159 0.021365,0.0012 0.044599,8.28e-4 0.06611,0 0.038776,-0.0066 0.073341,-0.0081 0.1101898,-0.02159 0.1331209,-0.02809 0.2680041,-0.08986 0.3746398,-0.194356 L 12.478422,7.6162052 C 12.733425,7.3663197 12.7106,6.9583193 12.434346,6.6876104 L 11.442659,5.7158251 C 11.166405,5.4451162 10.728011,5.4227505 10.473007,5.6726335 l -2.049491,2.0083557 1.7e-6,-4.5349986 C 8.4235169,2.7631505 8.1089972,2.4549429 7.7183162,2.4549429 l -1.4104008,1.2e-6 c -0.390681,3e-7 -0.7052008,0.3082063 -0.7052008,0.6910465 l 0,4.5565945 L 3.5311858,5.6726335 C 3.2761824,5.4227488 2.8598258,5.4451145 2.5835716,5.7158251 L 1.5698419,6.6876113 C 1.4317148,6.8229645 1.3564017,6.9928551 1.3494672,7.1627069 Z"
     id="rect3811-1-2-7"
     style="color:#000000;display:inline;overflow:visible;visibility:visible;opacity:0.66000001;fill:url(#radialGradient3896-0-3-9);fill-opacity:1;fill-rule:nonzero;stroke:#000000;stroke-width:0.69808841;stroke-opacity:1;marker:none;enable-background:accumulate"
     inkscape:connector-curvature="0" />
</svg>
