<?xml version="1.0" encoding="UTF-8" standalone="no"?>
<svg
   xmlns:dc="http://purl.org/dc/elements/1.1/"
   xmlns:cc="http://creativecommons.org/ns#"
   xmlns:rdf="http://www.w3.org/1999/02/22-rdf-syntax-ns#"
   xmlns:svg="http://www.w3.org/2000/svg"
   xmlns="http://www.w3.org/2000/svg"
   xmlns:xlink="http://www.w3.org/1999/xlink"
   xmlns:sodipodi="http://sodipodi.sourceforge.net/DTD/sodipodi-0.dtd"
   xmlns:inkscape="http://www.inkscape.org/namespaces/inkscape"
   version="1.1"
   width="24"
   height="24"
   id="svg4524"
   inkscape:version="0.91 r13725"
   sodipodi:docname="lc_upsearch.svg">
  <sodipodi:namedview
     pagecolor="#ffffff"
     bordercolor="#666666"
     borderopacity="1"
     objecttolerance="10"
     gridtolerance="10"
     guidetolerance="10"
     inkscape:pageopacity="0"
     inkscape:pageshadow="2"
     inkscape:window-width="2560"
     inkscape:window-height="1301"
     id="namedview22"
     showgrid="false"
     inkscape:zoom="27.812867"
     inkscape:cx="11.838746"
     inkscape:cy="4.4660338"
     inkscape:window-x="0"
     inkscape:window-y="32"
     inkscape:window-maximized="1"
     inkscape:current-layer="svg4524" />
  <defs
     id="defs4526">
    <radialGradient
       cx="22.818085"
       cy="-25.988077"
       r="19.99999"
       fx="22.818085"
       fy="-25.988077"
       id="radialGradient3896-0"
       xlink:href="#linearGradient3682"
       gradientUnits="userSpaceOnUse"
       gradientTransform="matrix(-1.7361515,0,0,1.5241254,50.7834,62.540124)" />
    <linearGradient
       id="linearGradient3682">
      <stop
         style="stop-color:#1f1f1f;stop-opacity:1.0000000;"
         offset="0.0000000"
         id="stop3684" />
      <stop
         style="stop-color:#5c5c5c;stop-opacity:1.0000000;"
         offset="1.0000000"
         id="stop3686" />
    </linearGradient>
  </defs>
  <metadata
     id="metadata4529">
    <rdf:RDF>
      <cc:Work
         rdf:about="">
        <dc:format>image/svg+xml</dc:format>
        <dc:type
           rdf:resource="http://purl.org/dc/dcmitype/StillImage" />
        <dc:title />
      </cc:Work>
    </rdf:RDF>
  </metadata>
  <path
     d="m 3.9870319,12.641333 c -0.0098,-0.245789 0.1004486,-0.475448 0.2812496,-0.65625 L 11.237031,4.860082 c 0.146903,-0.146902 0.316938,-0.238675 0.5,-0.281248 0.09402,-0.02187 0.187362,-0.03729 0.28125,-0.03125 0.03029,-0.0017 0.06324,-0.0012 0.09375,0 0.05498,0.0095 0.103995,0.01176 0.156252,0.03125 0.188771,0.04065 0.38004,0.13004 0.531253,0.28125 l 6.968747,7.125002 c 0.361604,0.361604 0.329238,0.952012 -0.0625,1.343749 l -1.406251,1.40625 c -0.391737,0.391737 -1.013395,0.424102 -1.374999,0.0625 l -2.906252,-2.906248 2e-6,6.562498 c -1e-6,0.554 -0.446001,1 -1.000001,1 l -1.999998,-1e-6 c -0.554,-1e-6 -1,-0.445999 -1,-0.999999 l 0,-6.593749 -2.9375003,2.937499 c -0.3616034,0.361603 -0.9520125,0.329238 -1.3437491,-0.0625 L 4.2995303,13.328834 C 4.1036611,13.132967 3.9968641,12.887123 3.9870304,12.641334 Z"
     id="rect3811-1"
     style="color:#000000;display:inline;overflow:visible;visibility:visible;opacity:0.66000001;fill:url(#radialGradient3896-0);fill-opacity:1;fill-rule:nonzero;stroke:#000000;stroke-width:1;stroke-opacity:1;marker:none;enable-background:accumulate"
     inkscape:connector-curvature="0" />
</svg>
