<?xml version="1.0" encoding="UTF-8" standalone="no"?>
<svg
   xmlns:dc="http://purl.org/dc/elements/1.1/"
   xmlns:cc="http://creativecommons.org/ns#"
   xmlns:rdf="http://www.w3.org/1999/02/22-rdf-syntax-ns#"
   xmlns:svg="http://www.w3.org/2000/svg"
   xmlns="http://www.w3.org/2000/svg"
   xmlns:sodipodi="http://sodipodi.sourceforge.net/DTD/sodipodi-0.dtd"
   xmlns:inkscape="http://www.inkscape.org/namespaces/inkscape"
   viewBox="0 0 16 16"
   id="svg2"
   version="1.1"
   inkscape:version="0.91 r13725"
   sodipodi:docname="sc_anchormenu.svg">
  <metadata
     id="metadata10">
    <rdf:RDF>
      <cc:Work
         rdf:about="">
        <dc:format>image/svg+xml</dc:format>
        <dc:type
           rdf:resource="http://purl.org/dc/dcmitype/StillImage" />
      </cc:Work>
    </rdf:RDF>
  </metadata>
  <defs
     id="defs8" />
  <sodipodi:namedview
     pagecolor="#ffffff"
     bordercolor="#666666"
     borderopacity="1"
     objecttolerance="10"
     gridtolerance="10"
     guidetolerance="10"
     inkscape:pageopacity="0"
     inkscape:pageshadow="2"
     inkscape:window-width="2560"
     inkscape:window-height="1377"
     id="namedview6"
     showgrid="false"
     inkscape:zoom="14.75"
     inkscape:cx="8"
     inkscape:cy="8"
     inkscape:window-x="0"
     inkscape:window-y="34"
     inkscape:window-maximized="1"
     inkscape:current-layer="svg2" />
  <path
     style="color:#000000;font-style:normal;font-variant:normal;font-weight:normal;font-stretch:normal;font-size:medium;line-height:normal;font-family:sans-serif;text-indent:0;text-align:start;text-decoration:none;text-decoration-line:none;text-decoration-style:solid;text-decoration-color:#000000;letter-spacing:normal;word-spacing:normal;text-transform:none;direction:ltr;block-progression:tb;writing-mode:lr-tb;baseline-shift:baseline;text-anchor:start;white-space:normal;clip-rule:nonzero;display:inline;overflow:visible;visibility:visible;opacity:1;isolation:auto;mix-blend-mode:normal;color-interpolation:sRGB;color-interpolation-filters:linearRGB;solid-color:#000000;solid-opacity:1;fill:#8c8c8c;fill-opacity:1;fill-rule:nonzero;stroke:#565656;stroke-width:0.80011386;stroke-linecap:butt;stroke-linejoin:round;stroke-miterlimit:4;stroke-dasharray:none;stroke-dashoffset:0;stroke-opacity:1;color-rendering:auto;image-rendering:auto;shape-rendering:auto;text-rendering:auto;enable-background:accumulate"
     d="m 7.9988565,1.1990345 c -1.099988,0 -2.000285,0.900296 -2.000285,2.000285 0,0.798393 0.518338,1.420907 1.200171,1.740872 l 0,1.059526 -1.600228,0 c -0.220936,2.2e-5 -0.400035,0.179121 -0.400057,0.400057 l 0,0.800114 c 2.2e-5,0.220936 0.179121,0.400035 0.400057,0.400057 l 1.600228,0 0,5.4476515 c -1.548892,-0.219335 -2.874429,-1.008341 -3.805229,-2.176873 l 0.398494,-0.220344 c 0.194993,-0.108207 0.263883,-0.354948 0.153147,-0.548515 L 3.5450975,9.4017645 c -0.107912,-0.18851 -0.346521,-0.256486 -0.537577,-0.153147 l -2.400341,1.3001855 c -0.197084,0.107131 -0.267596,0.355333 -0.156272,0.550079 l 0.400057,0.700099 c 0.107965,0.189422 0.347717,0.257526 0.539139,0.153147 l 0.540702,-0.295355 c 1.375446,1.88227 3.55774,3.144198 6.068051,3.144198 2.5103835,0 4.6922345,-1.261927 6.0680495,-3.144198 l 0.540703,0.295355 c 0.191422,0.104378 0.431173,0.03628 0.539139,-0.153147 l 0.400057,-0.700099 c 0.03315,-0.05763 0.05141,-0.122624 0.05314,-0.18909 0,0 -0.210806,-0.361472 -0.215656,-0.364114 -0.0049,-0.0026 -0.01145,-0.0062 -0.02032,-0.01094 -0.01774,-0.0096 -0.04372,-0.02438 -0.07657,-0.0422 -0.06571,-0.03563 -0.159378,-0.08593 -0.271913,-0.146897 -0.22507,-0.121936 -0.525065,-0.284441 -0.825118,-0.4469385 -0.600106,-0.324993 -1.200171,-0.650092 -1.200171,-0.650092 -0.191055,-0.10334 -0.429664,-0.03537 -0.537576,0.153147 l -0.400057,0.7000995 c -0.110737,0.193567 -0.04185,0.440308 0.153146,0.548516 l 0.398495,0.220344 c -0.930806,1.168534 -2.256344,1.95754 -3.8052355,2.176874 l 0,-5.4476505 1.6002275,0 c 0.220936,-2.2e-5 0.400035,-0.179121 0.400057,-0.400057 l 0,-0.800114 c -2.2e-5,-0.220936 -0.179121,-0.400035 -0.400057,-0.400057 l -1.6002275,0 0,-1.059526 c 0.681834,-0.319965 1.200171,-0.942479 1.200171,-1.740872 0,-1.099989 -0.900297,-2.000285 -2.000284,-2.000285 z m 0,1.600228 c 0.225684,0 0.400057,0.174373 0.400057,0.400057 0,0.225684 -0.174373,0.400057 -0.400057,0.400057 -0.225685,0 -0.400057,-0.174373 -0.400057,-0.400057 0,-0.225684 0.174372,-0.400057 0.400057,-0.400057 z"
     id="path4"
     inkscape:connector-curvature="0"
     sodipodi:nodetypes="ssccccccccccccccccccsccccccccsscccccccccccccsssssss" />
</svg>
