<?xml version="1.0" encoding="UTF-8" standalone="no"?>
<svg
   xmlns:dc="http://purl.org/dc/elements/1.1/"
   xmlns:cc="http://creativecommons.org/ns#"
   xmlns:rdf="http://www.w3.org/1999/02/22-rdf-syntax-ns#"
   xmlns:svg="http://www.w3.org/2000/svg"
   xmlns="http://www.w3.org/2000/svg"
   xmlns:xlink="http://www.w3.org/1999/xlink"
   xmlns:sodipodi="http://sodipodi.sourceforge.net/DTD/sodipodi-0.dtd"
   xmlns:inkscape="http://www.inkscape.org/namespaces/inkscape"
   viewBox="0 0 16 16"
   id="svg2"
   version="1.1"
   inkscape:version="0.91 r13725"
   sodipodi:docname="sc_deletecolumns.svg">
  <metadata
     id="metadata12">
    <rdf:RDF>
      <cc:Work
         rdf:about="">
        <dc:format>image/svg+xml</dc:format>
        <dc:type
           rdf:resource="http://purl.org/dc/dcmitype/StillImage" />
      </cc:Work>
    </rdf:RDF>
  </metadata>
  <defs
     id="defs10">
    <linearGradient
       x1="11.192374"
       y1="4.0641627"
       x2="11.192374"
       y2="30.298229"
       id="linearGradient4811"
       xlink:href="#linearGradient947"
       gradientUnits="userSpaceOnUse"
       gradientTransform="matrix(0.36872249,0,0,0.38856797,7.5757343,7.1431009)" />
    <linearGradient
       id="linearGradient947">
      <stop
         id="stop943"
         style="stop-color:#ed5353;stop-opacity:1"
         offset="0" />
      <stop
         id="stop945"
         style="stop-color:#c6262e;stop-opacity:1"
         offset="1" />
    </linearGradient>
  </defs>
  <sodipodi:namedview
     pagecolor="#ffffff"
     bordercolor="#666666"
     borderopacity="1"
     objecttolerance="10"
     gridtolerance="10"
     guidetolerance="10"
     inkscape:pageopacity="0"
     inkscape:pageshadow="2"
     inkscape:window-width="2560"
     inkscape:window-height="1375"
     id="namedview8"
     showgrid="false"
     inkscape:zoom="14.75"
     inkscape:cx="-1.8983051"
     inkscape:cy="8"
     inkscape:window-x="0"
     inkscape:window-y="36"
     inkscape:window-maximized="1"
     inkscape:current-layer="svg2" />
  <g
     id="g4281">
    <rect
       y="3"
       x="0"
       height="3"
       width="16"
       id="rect4279"
       style="opacity:1;fill:#8c8c8c;fill-opacity:1;stroke:none;stroke-width:1;stroke-linecap:round;stroke-linejoin:round;stroke-miterlimit:4;stroke-dasharray:none;stroke-dashoffset:0;stroke-opacity:1" />
    <path
       inkscape:connector-curvature="0"
       id="rect4259"
       d="M 0.5,2 A 0.49930579,0.49930579 0 0 0 0,2.5 l 0,11 A 0.49930579,0.49930579 0 0 0 0.5,14 l 15,0 A 0.49930579,0.49930579 0 0 0 16,13.5 l 0,-11 A 0.49930579,0.49930579 0 0 0 15.5,2 l -15,0 z m 0.49804688,0.9980469 14.00390612,0 0,10.0039061 -14.00390612,0 0,-10.0039061 z M 5,3 5,5 1,5 1,6 5,6 5,9 1,9 l 0,1 4,0 0,3 1,0 0,-3 4,0 0,3 1,0 0,-3 4,0 0,-1 -4,0 0,-3 4,0 0,-1 -4,0 0,-2 -1,0 0,2 L 6,5 6,3 5,3 Z m 1,3 4,0 0,3 -4,0 0,-3 z"
       style="color:#000000;font-style:normal;font-variant:normal;font-weight:normal;font-stretch:normal;font-size:medium;line-height:normal;font-family:sans-serif;text-indent:0;text-align:start;text-decoration:none;text-decoration-line:none;text-decoration-style:solid;text-decoration-color:#000000;letter-spacing:normal;word-spacing:normal;text-transform:none;direction:ltr;block-progression:tb;writing-mode:lr-tb;baseline-shift:baseline;text-anchor:start;white-space:normal;clip-rule:nonzero;display:inline;overflow:visible;visibility:visible;opacity:1;isolation:auto;mix-blend-mode:normal;color-interpolation:sRGB;color-interpolation-filters:linearRGB;solid-color:#000000;solid-opacity:1;fill:#565656;fill-opacity:1;fill-rule:nonzero;stroke:none;stroke-width:0.99851173;stroke-linecap:round;stroke-linejoin:round;stroke-miterlimit:4;stroke-dasharray:none;stroke-dashoffset:0;stroke-opacity:1;color-rendering:auto;image-rendering:auto;shape-rendering:auto;text-rendering:auto;enable-background:accumulate" />
  </g>
  <rect
     style="fill:#fcaf3e;fill-opacity:1;stroke:#ce5c00;stroke-width:0.99544716;stroke-linejoin:round;stroke-miterlimit:4;stroke-dasharray:none;stroke-opacity:1"
     id="rect4142"
     width="5.0045524"
     height="11.004553"
     x="0.49772358"
     y="2.4977245" />
  <path
     inkscape:connector-curvature="0"
     style="font-style:normal;font-variant:normal;font-weight:bold;font-stretch:normal;font-size:59.90107727px;line-height:125%;font-family:'Bitstream Vera Sans';text-align:start;writing-mode:lr-tb;text-anchor:start;fill:url(#linearGradient4811);fill-opacity:1;stroke:#b10000;stroke-width:1.00026238;stroke-linecap:butt;stroke-linejoin:round;stroke-miterlimit:4;stroke-dasharray:none;stroke-opacity:1"
     id="text1314"
     d="M 15.503272,14.059536 13.474796,11.998928 15.426667,9.8402184 14.01964,8.5030888 12.010897,10.560212 9.9614433,8.5030888 8.4975447,9.8894005 l 2.0494543,2.1007345 -2.0494543,2.067189 1.4638986,1.439987 2.0470757,-2.159981 2.051842,2.159981 1.442911,-1.437775 z" />
</svg>
