<?xml version="1.0" encoding="UTF-8" standalone="no"?>
<svg
   xmlns:dc="http://purl.org/dc/elements/1.1/"
   xmlns:cc="http://creativecommons.org/ns#"
   xmlns:rdf="http://www.w3.org/1999/02/22-rdf-syntax-ns#"
   xmlns:svg="http://www.w3.org/2000/svg"
   xmlns="http://www.w3.org/2000/svg"
   xmlns:xlink="http://www.w3.org/1999/xlink"
   xmlns:sodipodi="http://sodipodi.sourceforge.net/DTD/sodipodi-0.dtd"
   xmlns:inkscape="http://www.inkscape.org/namespaces/inkscape"
   version="1.1"
   width="16"
   height="16"
   id="svg3162"
   inkscape:version="0.91 r13725"
   sodipodi:docname="sc_delete.svg">
  <sodipodi:namedview
     pagecolor="#ffffff"
     bordercolor="#666666"
     borderopacity="1"
     objecttolerance="10"
     gridtolerance="10"
     guidetolerance="10"
     inkscape:pageopacity="0"
     inkscape:pageshadow="2"
     inkscape:window-width="2560"
     inkscape:window-height="1377"
     id="namedview47"
     showgrid="false"
     inkscape:zoom="29.5"
     inkscape:cx="10.360622"
     inkscape:cy="9.8952943"
     inkscape:window-x="0"
     inkscape:window-y="34"
     inkscape:window-maximized="1"
     inkscape:current-layer="svg3162" />
  <defs
     id="defs3164">
    <linearGradient
       y2="28.903023"
       x2="32.180862"
       y1="13.828948"
       x1="32.180862"
       gradientTransform="matrix(0.72972969,0,0,0.72972969,-14.514409,-6.081971)"
       gradientUnits="userSpaceOnUse"
       id="linearGradient5227-8"
       xlink:href="#linearGradient4404-56-1-1" />
    <linearGradient
       id="linearGradient4404-56-1-1">
      <stop
         id="stop4406-5-6-9"
         style="stop-color:#ffffff;stop-opacity:1"
         offset="0" />
      <stop
         id="stop4408-9-5-4"
         style="stop-color:#ffffff;stop-opacity:0.23529412"
         offset="0.09090912" />
      <stop
         id="stop4410-63-5-2"
         style="stop-color:#ffffff;stop-opacity:0.15686275"
         offset="0.81818187" />
      <stop
         id="stop4412-0-6-0"
         style="stop-color:#ffffff;stop-opacity:0.39215687"
         offset="1" />
    </linearGradient>
  </defs>
  <metadata
     id="metadata3167">
    <rdf:RDF>
      <cc:Work
         rdf:about="">
        <dc:format>image/svg+xml</dc:format>
        <dc:type
           rdf:resource="http://purl.org/dc/dcmitype/StillImage" />
        <dc:title />
      </cc:Work>
    </rdf:RDF>
  </metadata>
  <g
     id="layer2"
     style="display:inline" />
  <path
     inkscape:connector-curvature="0"
     d="m 3,4.0312499 0,9.8228731 c 0,0.158418 0.2258817,0.575571 1.03125,0.943256 C 4.8366183,15.165064 6.137732,15.4479 8,15.4479 c 1.8622686,0 3.163382,-0.282836 3.96875,-0.650521 C 12.774118,14.429694 13,14.012541 13,13.854123 l 0,-9.8228731 -10,0 z"
     id="path4744"
     style="display:inline;overflow:visible;visibility:visible;fill:#e9e9e9;fill-opacity:1;fill-rule:nonzero;stroke:none;stroke-width:1.01884639;marker:none" />
  <path
     inkscape:connector-curvature="0"
     id="path5019"
     d="m 2.5,3.5 0,10.5 c 0,0.828427 2.4624339,1.5 5.5,1.5 3.037566,0 5.5,-0.671573 5.5,-1.5 l 0,-10.5 z"
     style="color:#000000;display:inline;overflow:visible;visibility:visible;opacity:1;fill:none;stroke:#8c8c8c;stroke-width:1;stroke-linecap:butt;stroke-linejoin:miter;stroke-miterlimit:4;stroke-dasharray:none;stroke-dashoffset:0;stroke-opacity:1;marker:none;enable-background:accumulate" />
  <path
     inkscape:connector-curvature="0"
     d="M 4.5,5.5748208 C 4.777,5.6676128 5,5.9450884 5,6.1969635 L 5,14.227251 C 5,14.479127 4.777,14.607198 4.5,14.514405 4.223,14.421615 4,14.144137 4,13.892262 L 4,5.861974 C 4,5.610099 4.223,5.4820286 4.5,5.5748208 Z"
     id="path3772-3-2"
     style="display:inline;overflow:visible;visibility:visible;opacity:1;fill:#ffffff;fill-opacity:1;fill-rule:nonzero;stroke:none;stroke-width:0.99992186;marker:none;enable-background:accumulate" />
  <path
     inkscape:connector-curvature="0"
     d="M 11.499999,5.7155823 C 11.222999,5.8083743 11,6.08585 11,6.3377249 l 0,8.0302881 c 0,0.251876 0.222999,0.379947 0.499999,0.287154 C 11.776999,14.562377 12,14.284899 12,14.033024 L 12,6.0027355 C 12,5.7508605 11.776999,5.6227901 11.499999,5.7155823 Z"
     id="path3287-8-4"
     style="display:inline;overflow:visible;visibility:visible;opacity:1;fill:#ffffff;fill-opacity:1;fill-rule:nonzero;stroke:none;stroke-width:0.99992186;marker:none;enable-background:accumulate" />
  <path
     inkscape:connector-curvature="0"
     d="M 6.5,5.9043505 C 6.777,5.9160275 7,6.1295473 7,6.3830964 L 7,14.46676 C 7,14.720309 6.777,14.91503 6.5,14.903353 6.223,14.891683 6,14.678156 6,14.424607 L 6,6.3409444 C 6,6.0873953 6.223,5.8926745 6.5,5.9043505 Z"
     id="path3778-2-1"
     style="display:inline;overflow:visible;visibility:visible;opacity:1;fill:#ffffff;fill-opacity:1;fill-rule:nonzero;stroke:none;stroke-width:0.99992186;marker:none;enable-background:accumulate" />
  <path
     inkscape:connector-curvature="0"
     d="M 9.5,5.9043505 C 9.222999,5.9160275 9,6.1295473 9,6.3830964 L 9,14.46676 c 0,0.253549 0.222999,0.44827 0.5,0.436593 0.277,-0.01167 0.500001,-0.225197 0.500001,-0.478746 l 0,-8.0836626 C 10.000001,6.0873953 9.777,5.8926745 9.5,5.9043505 Z"
     id="path3293-9-3"
     style="display:inline;overflow:visible;visibility:visible;opacity:1;fill:#ffffff;fill-opacity:1;fill-rule:nonzero;stroke:none;stroke-width:0.99992186;marker:none;enable-background:accumulate" />
  <path
     inkscape:connector-curvature="0"
     d="m 3.5,4.5 0,9.25 c 0.1473239,0.09118 0.4515636,0.259517 0.875,0.375 C 5.2475625,14.362972 6.5538323,14.5 8,14.5 c 1.4461677,0 2.752437,-0.137028 3.625,-0.375 0.423436,-0.115483 0.727676,-0.283818 0.875,-0.375 l 0,-9.25 -9,0 z"
     id="path5208"
     style="color:#000000;display:inline;overflow:visible;visibility:visible;opacity:1;fill:none;stroke:url(#linearGradient5227-8);stroke-width:1;stroke-linecap:round;stroke-linejoin:round;stroke-miterlimit:4;stroke-dasharray:none;stroke-dashoffset:0;stroke-opacity:1;marker:none;enable-background:accumulate" />
  <path
     inkscape:connector-curvature="0"
     id="path5019-9"
     d="M 8,1 C 4.4101492,1 1.5,1.8657221 1.5,2.9336444 l 0,1.9336444 c 0,1.0679223 2.9101492,1.9336443 6.5,1.9336443 3.589851,0 6.5,-0.865722 6.5,-1.9336443 l 0,-1.9336444 C 14.5,1.8657221 11.589851,1 8,1 Z"
     style="color:#000000;display:inline;overflow:visible;visibility:visible;opacity:1;fill:none;stroke:#8c8c8c;stroke-width:1;stroke-linecap:butt;stroke-linejoin:miter;stroke-miterlimit:4;stroke-dasharray:none;stroke-dashoffset:0;stroke-opacity:1;marker:none;enable-background:accumulate" />
  <path
     inkscape:connector-curvature="0"
     d="m 8,1.4531979 c -1.7572026,0 -3.3544793,0.2123601 -4.46875,0.5438375 -0.5571353,0.1657387 -0.9846671,0.3572207 -1.25,0.5438375 -0.2653329,0.1866168 -0.3125,0.3184047 -0.3125,0.3927715 l 0,1.9336444 c 0,0.074367 0.047167,0.2061547 0.3125,0.3927715 0.2653329,0.1866168 0.6928647,0.3780987 1.25,0.5438375 C 4.6455207,6.1353752 6.2427974,6.3477352 8,6.3477352 c 1.7572027,0 3.354479,-0.21236 4.46875,-0.5438374 0.557135,-0.1657388 0.984667,-0.3572207 1.25,-0.5438375 0.265333,-0.1866168 0.3125,-0.3184046 0.3125,-0.3927715 l 0,-1.9336444 c 0,-0.074367 -0.04717,-0.2061547 -0.3125,-0.3927715 C 13.453417,2.3542561 13.025885,2.1627741 12.46875,1.9970354 11.354479,1.665558 9.7572027,1.4531979 8,1.4531979 Z"
     id="path5418"
     style="color:#000000;display:inline;overflow:visible;visibility:visible;fill:#e9e9e9;fill-opacity:1;fill-rule:nonzero;stroke:none;stroke-width:1.03944016;marker:none;enable-background:accumulate" />
  <path
     inkscape:connector-curvature="0"
     d="m 13.541956,3.1681173 a 5.5378434,1.1841661 0 1 0 -11.0756867,0 5.5378434,1.1841661 0 0 0 11.0756867,0 z"
     id="path4564-1-6"
     style="color:#000000;display:inline;overflow:visible;visibility:visible;opacity:1;fill:none;stroke:#ffffff;stroke-width:1;stroke-linecap:round;stroke-linejoin:round;stroke-miterlimit:4;stroke-dasharray:none;stroke-dashoffset:0;stroke-opacity:1;marker:none;enable-background:accumulate" />
  <path
     inkscape:connector-curvature="0"
     id="rect4605-2-4-3"
     d="M 6,0.5 C 5.723,0.5 5.5,0.723 5.5,1 l 0,2 c 0,0.277 0.223,0.5 0.5,0.5 l 2,0 C 7.723,3.5 7.5,3.277 7.5,3 7.5,2.723 7.723,2.5 8,2.5 8.277,2.5 8.5,2.723 8.5,3 8.5,3.277 8.277,3.5 8,3.5 l 2,0 c 0.277,0 0.5,-0.223 0.5,-0.5 l 0,-2 C 10.5,0.723 10.277,0.5 10,0.5 l -4,0 z"
     style="color:#000000;display:inline;overflow:visible;visibility:visible;fill:#e9e9e9;fill-opacity:1;fill-rule:nonzero;stroke:none;stroke-width:1.01884639;marker:none;enable-background:accumulate" />
  <path
     inkscape:connector-curvature="0"
     id="rect4605-3-9"
     d="M 6,0.5 C 5.723,0.5 5.5,0.723 5.5,1 l 0,2 c 0,0.277 0.223,0.5 0.5,0.5 l 2,0 C 7.723,3.5 7.5,3.277 7.5,3 7.5,2.4990498 7.499049,2.5 8,2.5 8.476067,2.5 8.5,2.523933 8.5,3 8.5,3.277 8.277,3.5 8,3.5 l 2,0 c 0.277,0 0.5,-0.223 0.5,-0.5 l 0,-2 C 10.5,0.723 10.277,0.5 10,0.5 Z"
     style="color:#000000;display:inline;overflow:visible;visibility:visible;opacity:1;fill:none;stroke:#8c8c8c;stroke-width:1;stroke-linecap:butt;stroke-linejoin:miter;stroke-miterlimit:4;stroke-dasharray:none;stroke-dashoffset:0;stroke-opacity:1;marker:none;enable-background:accumulate" />
</svg>
