<?xml version="1.0" encoding="UTF-8" standalone="no"?>
<svg
   xmlns:dc="http://purl.org/dc/elements/1.1/"
   xmlns:cc="http://creativecommons.org/ns#"
   xmlns:rdf="http://www.w3.org/1999/02/22-rdf-syntax-ns#"
   xmlns:svg="http://www.w3.org/2000/svg"
   xmlns="http://www.w3.org/2000/svg"
   xmlns:sodipodi="http://sodipodi.sourceforge.net/DTD/sodipodi-0.dtd"
   xmlns:inkscape="http://www.inkscape.org/namespaces/inkscape"
   version="1.0"
   width="16"
   height="16"
   id="svg3783"
   inkscape:version="0.91 r13725"
   sodipodi:docname="sc_datafilterspecialfilter.svg">
  <sodipodi:namedview
     pagecolor="#ffffff"
     bordercolor="#666666"
     borderopacity="1"
     objecttolerance="10"
     gridtolerance="10"
     guidetolerance="10"
     inkscape:pageopacity="0"
     inkscape:pageshadow="2"
     inkscape:window-width="2560"
     inkscape:window-height="1377"
     id="namedview67"
     showgrid="true"
     inkscape:zoom="20.85965"
     inkscape:cx="-6.1458842"
     inkscape:cy="14.178604"
     inkscape:window-x="0"
     inkscape:window-y="34"
     inkscape:window-maximized="1"
     inkscape:current-layer="svg3783">
    <inkscape:grid
       type="xygrid"
       id="grid4200" />
  </sodipodi:namedview>
  <metadata
     id="metadata43">
    <rdf:RDF>
      <cc:Work
         rdf:about="">
        <dc:format>image/svg+xml</dc:format>
        <dc:type
           rdf:resource="http://purl.org/dc/dcmitype/StillImage" />
        <dc:title />
      </cc:Work>
    </rdf:RDF>
  </metadata>
  <defs
     id="defs3785" />
  <g
     id="g4188"
     transform="matrix(1.0075866,0,0,1.0604341,0.07474352,-1.0182192)">
    <path
       inkscape:connector-curvature="0"
       sodipodi:nodetypes="ccccccccc"
       id="path1661"
       d="m 0.43890158,1.4389014 14.84397142,0 0,2.6333318 -6.1122233,5.3089395 0,6.1799253 -2.6195244,0 0,-6.1806189 -6.11222372,-5.2801772 z"
       style="fill:#e9e9e9;fill-opacity:1;fill-rule:evenodd;stroke:#8c8c8c;stroke-width:1.00031662;stroke-linecap:butt;stroke-linejoin:round;stroke-miterlimit:4;stroke-dasharray:none;stroke-opacity:1" />
    <path
       sodipodi:nodetypes="ccccccccc"
       inkscape:connector-curvature="0"
       id="path4165"
       d="m 1.3120764,2.3213567 13.0976226,0 0,1.3236832 -6.1122241,5.2947321 0,5.73596 -0.8731748,0 0,-5.73596 -6.1122237,-5.2947321 z"
       style="opacity:1;fill:#e9e9e9;fill-opacity:1;fill-rule:evenodd;stroke:#fdfdfb;stroke-width:0.87780285px;stroke-linecap:butt;stroke-linejoin:miter;stroke-opacity:1" />
  </g>
  <g
     id="g4196"
     transform="matrix(1.1329766,0,0,1.1329766,-2.1622072,-2.1622074)">
    <path
       inkscape:connector-curvature="0"
       d="m 9.4069767,10.734738 0,4.520864 c 0,0.186932 0.1504895,0.337421 0.3374208,0.337421 l 5.5112045,0 c 0.186931,0 0.337421,-0.150489 0.337421,-0.337421 l 0,-4.520864"
       id="rect4567"
       style="opacity:1;fill:#e9e9e9;fill-opacity:1;stroke:#8c8c8c;stroke-width:0.87499994;stroke-miterlimit:4;stroke-dasharray:none;stroke-opacity:1"
       sodipodi:nodetypes="cssssc" />
    <path
       inkscape:connector-curvature="0"
       d="m 9.7443975,9.406977 c -0.1869313,0 -0.3374208,0.1504896 -0.3374208,0.3374209 l 4e-7,1.4316561 6.1860459,0 0,-1.4316561 c 0,-0.1869313 -0.15049,-0.3374209 -0.337421,-0.3374209 z"
       id="rect5505-21-3-8-9-1-1-7-8"
       style="color:#000000;display:inline;overflow:visible;visibility:visible;opacity:1;fill:#9cde4a;fill-opacity:1;stroke:#5ca12a;stroke-width:0.87499994;stroke-linecap:round;stroke-linejoin:miter;stroke-miterlimit:4;stroke-dasharray:none;stroke-dashoffset:0;stroke-opacity:1;marker:none;enable-background:accumulate"
       sodipodi:nodetypes="ssccsss" />
  </g>
  <path
     style="opacity:1;fill:#fdfdfb;fill-opacity:1;stroke:none;stroke-width:1;stroke-linecap:round;stroke-linejoin:round;stroke-miterlimit:4;stroke-dasharray:none;stroke-dashoffset:0;stroke-opacity:1"
     d="M 9 11 L 9 15 L 15 15 L 15 11 L 9 11 z M 10 12 L 14 12 L 14 14 L 10 14 L 10 12 z "
     id="rect4202" />
</svg>
