<?xml version="1.0" encoding="UTF-8" standalone="no"?>
<svg
   xmlns:dc="http://purl.org/dc/elements/1.1/"
   xmlns:cc="http://creativecommons.org/ns#"
   xmlns:rdf="http://www.w3.org/1999/02/22-rdf-syntax-ns#"
   xmlns:svg="http://www.w3.org/2000/svg"
   xmlns="http://www.w3.org/2000/svg"
   xmlns:sodipodi="http://sodipodi.sourceforge.net/DTD/sodipodi-0.dtd"
   xmlns:inkscape="http://www.inkscape.org/namespaces/inkscape"
   version="1.0"
   width="16"
   height="16"
   id="svg3783"
   inkscape:version="0.91 r13725"
   sodipodi:docname="sc_insertplugin.svg">
  <sodipodi:namedview
     pagecolor="#ffffff"
     bordercolor="#666666"
     borderopacity="1"
     objecttolerance="10"
     gridtolerance="10"
     guidetolerance="10"
     inkscape:pageopacity="0"
     inkscape:pageshadow="2"
     inkscape:window-width="2560"
     inkscape:window-height="1377"
     id="namedview26"
     showgrid="false"
     inkscape:zoom="14.75"
     inkscape:cx="8"
     inkscape:cy="8"
     inkscape:window-x="0"
     inkscape:window-y="34"
     inkscape:window-maximized="1"
     inkscape:current-layer="svg3783" />
  <metadata
     id="metadata43">
    <rdf:RDF>
      <cc:Work
         rdf:about="">
        <dc:format>image/svg+xml</dc:format>
        <dc:type
           rdf:resource="http://purl.org/dc/dcmitype/StillImage" />
        <dc:title />
      </cc:Work>
    </rdf:RDF>
  </metadata>
  <defs
     id="defs3785" />
  <path
     d="m 6.5,0.50000031 c -0.980526,0 -2,0.79578939 -2,1.77631569 0,0.612829 0.527473,1.2043637 1,1.523684 l 0,0.7524572 -4.2105262,0 c -0.43736839,0 -0.78947374,0.3521053 -0.78947374,0.7894737 l 0,3.3365233 C 0.82554001,8.2699485 1.3190131,8.0000002 1.881579,8.0000002 c 0.9805263,0 1.7763158,0.7957895 1.7763158,1.7763158 0,0.980526 -0.7957895,1.776316 -1.7763158,1.776316 -0.5625659,0 -1.05603899,-0.269948 -1.38157894,-0.678454 l 0,3.836348 c 0,0.437369 0.35210535,0.789474 0.78947374,0.789474 L 5,15.5 C 4.591495,15.17446 4.223684,14.680987 4.223684,14.118421 c 0,-0.980526 0.79579,-1.776315 1.776316,-1.776315 0.980527,0 1.776316,0.795789 1.776316,1.776315 C 7.776316,14.680987 7.408506,15.17446 7,15.5 l 3.705263,0 C 11.142631,15.5 11.5,15.147895 11.5,14.710526 l 0,-4.223684 0.755757,0 c 0.31932,0.472528 0.215751,1.054122 1.744243,1.054122 0.980527,0 1.5,-0.855619 1.5,-2.0409641 0,-1.1853455 -0.519473,-1.9891565 -1.5,-1.9891565 -1.528492,0 -1.424923,0.5297868 -1.744243,1.0023144 l -0.755757,0 0,-3.1712269 C 11.5,4.9045625 11.142631,4.5524572 10.705263,4.5524572 L 7.5,4.5524572 7.5,3.8 c 0.472528,-0.3193203 1,-0.910855 1,-1.523684 0,-0.9805263 -1.019473,-1.77631569 -2,-1.77631569 z"
     id="rect3558"
     style="fill:#9cde4a;fill-opacity:1;stroke:#5ca12a;stroke-width:1.00000012;stroke-linecap:round;stroke-linejoin:round;stroke-miterlimit:4;stroke-opacity:1;stroke-dasharray:none;stroke-dashoffset:0" />
</svg>
