<?xml version="1.0" encoding="UTF-8" standalone="no"?>
<svg
   xmlns:dc="http://purl.org/dc/elements/1.1/"
   xmlns:cc="http://creativecommons.org/ns#"
   xmlns:rdf="http://www.w3.org/1999/02/22-rdf-syntax-ns#"
   xmlns:svg="http://www.w3.org/2000/svg"
   xmlns="http://www.w3.org/2000/svg"
   xmlns:sodipodi="http://sodipodi.sourceforge.net/DTD/sodipodi-0.dtd"
   xmlns:inkscape="http://www.inkscape.org/namespaces/inkscape"
   version="1.1"
   width="16"
   height="16"
   id="svg9991"
   inkscape:version="0.91 r13725"
   sodipodi:docname="sc_insertsound.svg">
  <sodipodi:namedview
     pagecolor="#ffffff"
     bordercolor="#666666"
     borderopacity="1"
     objecttolerance="10"
     gridtolerance="10"
     guidetolerance="10"
     inkscape:pageopacity="0"
     inkscape:pageshadow="2"
     inkscape:window-width="1276"
     inkscape:window-height="1377"
     id="namedview18"
     showgrid="false"
     inkscape:zoom="14.75"
     inkscape:cx="8"
     inkscape:cy="8"
     inkscape:window-x="1280"
     inkscape:window-y="34"
     inkscape:window-maximized="0"
     inkscape:current-layer="svg9991" />
  <defs
     id="defs9993" />
  <metadata
     id="metadata9996">
    <rdf:RDF>
      <cc:Work
         rdf:about="">
        <dc:format>image/svg+xml</dc:format>
        <dc:type
           rdf:resource="http://purl.org/dc/dcmitype/StillImage" />
        <dc:title />
      </cc:Work>
    </rdf:RDF>
  </metadata>
  <path
     inkscape:connector-curvature="0"
     style="color:#000000;display:inline;overflow:visible;visibility:visible;fill:#8c8c8c;fill-opacity:1;fill-rule:nonzero;stroke:#565656;stroke-width:1;stroke-miterlimit:4;stroke-dasharray:none;stroke-opacity:1;marker:none;enable-background:accumulate;opacity:1"
     id="path5541"
     d="M 12.32316,0.50696 5.13566,2.35071 C 4.82814,2.43311 4.47941,2.87107 4.47941,3.19446 l 0,9.09375 a 0.48257405,0.48257405 0 0 1 -0.6875,0.4375 c -0.45871,-0.2402 -1.05898,-0.35081 -1.6875,-0.1875 -0.57617,0.14971 -1.04136,0.45145 -1.3125,0.8125 -0.27114,0.36105 -0.35061,0.76088 -0.25,1.125 0.20054,0.72575 1.22627,1.23598 2.375,0.9375 0.91465,-0.23766 1.50878,-0.90083 1.59375,-1.5 L 4.54186,5.38196 A 0.48257405,0.48257405 0 0 1 4.88561,4.91321 l 7,-1.875 a 0.48257405,0.48257405 0 0 1 0.59375,0.46875 l 0,6.78125 a 0.48257405,0.48257405 0 0 1 -0.6875,0.4375 c -0.45871,-0.2402 -1.05898,-0.35081 -1.6875,-0.1875 -0.57617,0.14971 -1.04136,0.45145 -1.3125,0.8125 -0.27114,0.36105 -0.35061,0.76088 -0.25,1.125 0.20054,0.72575 1.22627,1.23598 2.375,0.9375 0.91465,-0.23766 1.50878,-0.90083 1.59375,-1.5 l 0.0312,-11.125 c 0,-0.19384 -0.12436,-0.24481 -0.21875,-0.28125 z" />
</svg>
