<?xml version="1.0" encoding="UTF-8" standalone="no"?>
<!-- Created with Inkscape (http://www.inkscape.org/) -->

<svg
   xmlns:dc="http://purl.org/dc/elements/1.1/"
   xmlns:cc="http://creativecommons.org/ns#"
   xmlns:rdf="http://www.w3.org/1999/02/22-rdf-syntax-ns#"
   xmlns:svg="http://www.w3.org/2000/svg"
   xmlns="http://www.w3.org/2000/svg"
   xmlns:xlink="http://www.w3.org/1999/xlink"
   xmlns:sodipodi="http://sodipodi.sourceforge.net/DTD/sodipodi-0.dtd"
   xmlns:inkscape="http://www.inkscape.org/namespaces/inkscape"
   width="16"
   height="16"
   id="svg1306"
   sodipodi:version="0.32"
   inkscape:version="0.91 r13725"
   sodipodi:docname="sc_outlinebullet.svg"
   version="1.1"
   inkscape:export-filename="/home/ochosi/Nerdstuff/shimmer/libreoffice-style-elementary/src/cmd/sc_defaultnumbering.png"
   inkscape:export-xdpi="90"
   inkscape:export-ydpi="90">
  <defs
     id="defs1308">
    <linearGradient
       id="linearGradient2867-449-88-871-390-598-476-591-434-148-57-177-641-289-620-227-114-444-680-744-4-1">
      <stop
         offset="0"
         style="stop-color:#737373;stop-opacity:1"
         id="stop5430-5-0" />
      <stop
         offset="0.26238"
         style="stop-color:#636363;stop-opacity:1"
         id="stop5432-2-0" />
      <stop
         offset="0.704952"
         style="stop-color:#4b4b4b;stop-opacity:1"
         id="stop5434-9-6" />
      <stop
         offset="1"
         style="stop-color:#3f3f3f;stop-opacity:1"
         id="stop5436-2-7" />
    </linearGradient>
    <radialGradient
       inkscape:collect="always"
       xlink:href="#linearGradient2867-449-88-871-390-598-476-591-434-148-57-177-641-289-620-227-114-444-680-744-4-1"
       id="radialGradient4180"
       gradientUnits="userSpaceOnUse"
       gradientTransform="matrix(-8.6734192,-4.564055e-7,5.0144226e-7,-9.529287,108.91325,-13.099556)"
       cx="11.192508"
       cy="-1.5222741"
       fx="11.192508"
       fy="-1.5222741"
       r="2" />
    <radialGradient
       inkscape:collect="always"
       xlink:href="#linearGradient2867-449-88-871-390-598-476-591-434-148-57-177-641-289-620-227-114-444-680-744-4-1"
       id="radialGradient4176"
       cx="11.284193"
       cy="-2.3434286"
       fx="11.284193"
       fy="-2.3434286"
       r="2"
       gradientUnits="userSpaceOnUse"
       gradientTransform="matrix(-8.6734192,-4.564055e-7,5.0144226e-7,-9.529287,108.91325,-19.099557)" />
  </defs>
  <sodipodi:namedview
     id="base"
     pagecolor="#ffffff"
     bordercolor="#666666"
     borderopacity="1.0"
     inkscape:pageopacity="0.0"
     inkscape:pageshadow="2"
     inkscape:zoom="19.79899"
     inkscape:cx="3.447299"
     inkscape:cy="3.6236343"
     inkscape:current-layer="layer1"
     showgrid="false"
     inkscape:grid-bbox="true"
     inkscape:document-units="px"
     showguides="true"
     inkscape:guide-bbox="true"
     inkscape:window-width="1594"
     inkscape:window-height="885"
     inkscape:window-x="780"
     inkscape:window-y="250"
     inkscape:window-maximized="0" />
  <metadata
     id="metadata1311">
    <rdf:RDF>
      <cc:Work
         rdf:about="">
        <dc:format>image/svg+xml</dc:format>
        <dc:type
           rdf:resource="http://purl.org/dc/dcmitype/StillImage" />
        <dc:title />
      </cc:Work>
    </rdf:RDF>
  </metadata>
  <g
     id="layer1"
     inkscape:label="Layer 1"
     inkscape:groupmode="layer"
     transform="translate(0,-6)">
    <path
       style="color:#000000;font-style:normal;font-variant:normal;font-weight:bold;font-stretch:normal;font-size:54.8693924px;line-height:125%;font-family:'Bitstream Vera Sans';text-indent:0;text-align:start;text-decoration:none;text-decoration-line:none;text-decoration-style:solid;text-decoration-color:#000000;letter-spacing:normal;word-spacing:normal;text-transform:none;direction:ltr;block-progression:tb;writing-mode:lr-tb;baseline-shift:baseline;text-anchor:start;white-space:normal;clip-rule:nonzero;display:inline;overflow:visible;visibility:visible;opacity:1;isolation:auto;mix-blend-mode:normal;color-interpolation:sRGB;color-interpolation-filters:linearRGB;solid-color:#000000;solid-opacity:1;fill:#353535;fill-opacity:1;fill-rule:nonzero;stroke:none;stroke-width:1.00000012;stroke-linecap:round;stroke-linejoin:round;stroke-miterlimit:4;stroke-dasharray:none;stroke-dashoffset:0;stroke-opacity:1;color-rendering:auto;image-rendering:auto;shape-rendering:auto;text-rendering:auto;enable-background:accumulate"
       d="m 5.4921875,9 a 0.50005006,0.50005006 0 0 0 -0.050781,0.00391 0.50005006,0.50005006 0 0 0 -0.095703,0.021484 0.50005006,0.50005006 0 0 0 -0.046875,0.017578 0.50005006,0.50005006 0 0 0 -0.044922,0.021484 0.50005006,0.50005006 0 0 0 -0.082031,0.058594 0.50005006,0.50005006 0 0 0 -0.037109,0.033203 0.50005006,0.50005006 0 0 0 -0.03125,0.039063 0.50005006,0.50005006 0 0 0 -0.029297,0.041016 A 0.50005006,0.50005006 0 0 0 5,9.4726562 a 0.50005006,0.50005006 0 0 0 0,0.048828 0.50005006,0.50005006 0 0 0 0.013672,0.099609 0.50005006,0.50005006 0 0 0 0.056641,0.1367187 0.50005006,0.50005006 0 0 0 0.060547,0.080078 0.50005006,0.50005006 0 0 0 0.035156,0.035156 0.50005006,0.50005006 0 0 0 0.125,0.082031 0.50005006,0.50005006 0 0 0 0.095703,0.03125 A 0.50005006,0.50005006 0 0 0 5.4921875,10 l 9.0156245,0 a 0.50005006,0.50005006 0 0 0 0.09961,-0.011719 0.50005006,0.50005006 0 0 0 0.04687,-0.013672 0.50005006,0.50005006 0 0 0 0.134765,-0.066406 0.50005006,0.50005006 0 0 0 0.07617,-0.064453 0.50005006,0.50005006 0 0 0 0.03125,-0.039063 0.50005006,0.50005006 0 0 0 0.0293,-0.041016 0.50005006,0.50005006 0 0 0 0.04297,-0.089844 0.50005006,0.50005006 0 0 0 0.02539,-0.095703 0.50005006,0.50005006 0 0 0 0.0059,-0.099609 0.50005006,0.50005006 0 0 0 -0.0039,-0.050781 0.50005006,0.50005006 0 0 0 -0.04297,-0.1425782 0.50005006,0.50005006 0 0 0 -0.05273,-0.085937 0.50005006,0.50005006 0 0 0 -0.03125,-0.037109 0.50005006,0.50005006 0 0 0 -0.03516,-0.035156 0.50005006,0.50005006 0 0 0 -0.03906,-0.03125 A 0.50005006,0.50005006 0 0 0 14.564453,9.0039062 0.50005006,0.50005006 0 0 0 14.513672,9 0.50005006,0.50005006 0 0 0 14.507812,9 L 5.4921875,9 Z m 0,3 a 0.50005006,0.50005006 0 0 0 -0.050781,0.0039 0.50005006,0.50005006 0 0 0 -0.048828,0.0078 0.50005006,0.50005006 0 0 0 -0.046875,0.01367 0.50005006,0.50005006 0 0 0 -0.1347656,0.06641 0.50005006,0.50005006 0 0 0 -0.039063,0.03125 0.50005006,0.50005006 0 0 0 -0.037109,0.0332 0.50005006,0.50005006 0 0 0 -0.03125,0.03906 0.50005006,0.50005006 0 0 0 -0.029297,0.04101 0.50005006,0.50005006 0 0 0 -0.023438,0.04297 0.50005006,0.50005006 0 0 0 -0.019531,0.04687 0.50005006,0.50005006 0 0 0 -0.015625,0.04687 0.50005006,0.50005006 0 0 0 -0.00977,0.04883 A 0.50005006,0.50005006 0 0 0 5,12.521484 a 0.50005006,0.50005006 0 0 0 0.00391,0.05078 0.50005006,0.50005006 0 0 0 0.025391,0.0957 0.50005006,0.50005006 0 0 0 0.017578,0.04687 0.50005006,0.50005006 0 0 0 0.023437,0.04297 0.50005006,0.50005006 0 0 0 0.029297,0.04297 0.50005006,0.50005006 0 0 0 0.066406,0.07227 0.50005006,0.50005006 0 0 0 0.039063,0.03125 0.50005006,0.50005006 0 0 0 0.1328125,0.06836 A 0.50005006,0.50005006 0 0 0 5.4921875,13 l 5.0156245,0 a 0.50005006,0.50005006 0 0 0 0.146485,-0.02539 0.50005006,0.50005006 0 0 0 0.04687,-0.01758 0.50005006,0.50005006 0 0 0 0.04492,-0.02148 0.50005006,0.50005006 0 0 0 0.04297,-0.02734 0.50005006,0.50005006 0 0 0 0.03906,-0.03125 0.50005006,0.50005006 0 0 0 0.03711,-0.0332 0.50005006,0.50005006 0 0 0 0.03125,-0.03906 0.50005006,0.50005006 0 0 0 0.08789,-0.177735 0.50005006,0.50005006 0 0 0 0.0098,-0.04883 0.50005006,0.50005006 0 0 0 0.0059,-0.05078 0.50005006,0.50005006 0 0 0 -0.09961,-0.328125 0.50005006,0.50005006 0 0 0 -0.105469,-0.103516 0.50005006,0.50005006 0 0 0 -0.04297,-0.02734 0.50005006,0.50005006 0 0 0 -0.08984,-0.04101 0.50005006,0.50005006 0 0 0 -0.04883,-0.01367 0.50005006,0.50005006 0 0 0 -0.04883,-0.0098 A 0.50005006,0.50005006 0 0 0 10.507812,12 l -5.0156245,0 z m 0,3 a 0.50005006,0.50005006 0 0 0 -0.050781,0.0039 0.50005006,0.50005006 0 0 0 -0.1875,0.06055 0.50005006,0.50005006 0 0 0 -0.042969,0.02734 A 0.50005006,0.50005006 0 0 0 5.0742188,15.236328 0.50005006,0.50005006 0 0 0 5.03125,15.326172 0.50005006,0.50005006 0 0 0 5,15.521484 a 0.50005006,0.50005006 0 0 0 0.00391,0.05078 0.50005006,0.50005006 0 0 0 0.025391,0.0957 0.50005006,0.50005006 0 0 0 0.070312,0.132812 0.50005006,0.50005006 0 0 0 0.1484375,0.13086 0.50005006,0.50005006 0 0 0 0.1386719,0.05469 A 0.50005006,0.50005006 0 0 0 5.4921875,16 l 9.0156245,0 a 0.50005006,0.50005006 0 0 0 0.09961,-0.01172 0.50005006,0.50005006 0 0 0 0.04687,-0.01367 0.50005006,0.50005006 0 0 0 0.04687,-0.01758 0.50005006,0.50005006 0 0 0 0.04492,-0.02148 0.50005006,0.50005006 0 0 0 0.08203,-0.05859 0.50005006,0.50005006 0 0 0 0.03711,-0.0332 0.50005006,0.50005006 0 0 0 0.03125,-0.03906 0.50005006,0.50005006 0 0 0 0.0293,-0.04102 0.50005006,0.50005006 0 0 0 0.02344,-0.04297 0.50005006,0.50005006 0 0 0 0.03516,-0.09375 0.50005006,0.50005006 0 0 0 0.0098,-0.04883 0.50005006,0.50005006 0 0 0 0.0059,-0.09961 0.50005006,0.50005006 0 0 0 -0.0039,-0.05078 0.50005006,0.50005006 0 0 0 -0.0098,-0.04883 0.50005006,0.50005006 0 0 0 -0.05664,-0.136718 0.50005006,0.50005006 0 0 0 -0.365235,-0.238282 0.50005006,0.50005006 0 0 0 -0.05078,-0.0039 0.50005006,0.50005006 0 0 0 -0.0059,0 l -9.0156245,0 z m 0,3 a 0.50005006,0.50005006 0 0 0 -0.099609,0.01172 0.50005006,0.50005006 0 0 0 -0.046875,0.01367 0.50005006,0.50005006 0 0 0 -0.046875,0.01758 0.50005006,0.50005006 0 0 0 -0.087891,0.04883 0.50005006,0.50005006 0 0 0 -0.076172,0.06445 0.50005006,0.50005006 0 0 0 -0.03125,0.03906 0.50005006,0.50005006 0 0 0 -0.029297,0.04102 0.50005006,0.50005006 0 0 0 -0.042969,0.08984 0.50005006,0.50005006 0 0 0 -0.015625,0.04687 0.50005006,0.50005006 0 0 0 -0.00977,0.04883 A 0.50005006,0.50005006 0 0 0 5,18.472656 a 0.50005006,0.50005006 0 0 0 0.013672,0.148438 0.50005006,0.50005006 0 0 0 0.056641,0.136718 0.50005006,0.50005006 0 0 0 0.060547,0.08008 0.50005006,0.50005006 0 0 0 0.074219,0.06641 0.50005006,0.50005006 0 0 0 0.042969,0.02734 0.50005006,0.50005006 0 0 0 0.089844,0.04102 0.50005006,0.50005006 0 0 0 0.048828,0.01367 A 0.50005006,0.50005006 0 0 0 5.4921875,19 l 5.0156245,0 a 0.50005006,0.50005006 0 0 0 0.09961,-0.01172 0.50005006,0.50005006 0 0 0 0.04687,-0.01367 0.50005006,0.50005006 0 0 0 0.04687,-0.01758 0.50005006,0.50005006 0 0 0 0.04492,-0.02148 0.50005006,0.50005006 0 0 0 0.04297,-0.02734 0.50005006,0.50005006 0 0 0 0.195313,-0.28125 A 0.50005006,0.50005006 0 0 0 11,18.478516 0.50005006,0.50005006 0 0 0 10.869141,18.162109 0.50005006,0.50005006 0 0 0 10.751953,18.068359 0.50005006,0.50005006 0 0 0 10.662109,18.027344 0.50005006,0.50005006 0 0 0 10.507812,18 l -5.0156245,0 z"
       id="path4256"
       inkscape:connector-curvature="0" />
    <path
       inkscape:connector-curvature="0"
       id="path4270"
       d="m 5.4929788,13.5 0,0 0,0 c 1.6714366,0 3.3428727,0 5.0143092,0 l 0,0 -5.0143091,0 z"
       style="font-style:normal;font-variant:normal;font-weight:bold;font-stretch:normal;font-size:54.8693924px;line-height:125%;font-family:'Bitstream Vera Sans';text-align:start;writing-mode:lr-tb;text-anchor:start;opacity:0.35;fill:none;fill-opacity:1;stroke:#ffffff;stroke-width:1.00000012;stroke-linecap:round;stroke-linejoin:round;stroke-miterlimit:4;stroke-dasharray:none;stroke-opacity:1" />
    <path
       style="font-style:normal;font-variant:normal;font-weight:bold;font-stretch:normal;font-size:54.8693924px;line-height:125%;font-family:'Bitstream Vera Sans';text-align:start;writing-mode:lr-tb;text-anchor:start;opacity:0.35;fill:none;fill-opacity:1;stroke:#ffffff;stroke-width:1.00000012;stroke-linecap:round;stroke-linejoin:round;stroke-miterlimit:4;stroke-dasharray:none;stroke-opacity:1"
       d="m 5.4929788,10.5 0,0 0,0 c 3.0047683,0 6.0095362,0 9.0143042,0 l 0,0 -9.0143041,0 z"
       id="path4176"
       inkscape:connector-curvature="0" />
    <path
       style="font-style:normal;font-variant:normal;font-weight:bold;font-stretch:normal;font-size:54.8693924px;line-height:125%;font-family:'Bitstream Vera Sans';text-align:start;writing-mode:lr-tb;text-anchor:start;opacity:0.35;fill:none;fill-opacity:1;stroke:#ffffff;stroke-width:1.00000012;stroke-linecap:round;stroke-linejoin:round;stroke-miterlimit:4;stroke-dasharray:none;stroke-opacity:1"
       d="m 5.4929788,19.5 0,0 0,0 c 1.6714366,0 3.3428727,0 5.0143092,0 l 0,0 -5.0143091,0 z"
       id="path4184"
       inkscape:connector-curvature="0" />
    <path
       inkscape:connector-curvature="0"
       id="path4190"
       d="m 5.4929788,16.5 0,0 0,0 c 3.0047683,0 6.0095362,0 9.0143042,0 l 0,0 -9.0143041,0 z"
       style="font-style:normal;font-variant:normal;font-weight:bold;font-stretch:normal;font-size:54.8693924px;line-height:125%;font-family:'Bitstream Vera Sans';text-align:start;writing-mode:lr-tb;text-anchor:start;opacity:0.35;fill:none;fill-opacity:1;stroke:#ffffff;stroke-width:1.00000012;stroke-linecap:round;stroke-linejoin:round;stroke-miterlimit:4;stroke-dasharray:none;stroke-opacity:1" />
    <circle
       r="1.5"
       cy="11.5"
       cx="2.5"
       id="circle4190"
       style="opacity:0.35;fill:#ffffff;fill-opacity:1;stroke:none;stroke-width:1;stroke-miterlimit:4;stroke-dasharray:none;stroke-opacity:1" />
    <circle
       style="opacity:1;fill:url(#radialGradient4176);fill-opacity:1;stroke:none;stroke-width:1;stroke-miterlimit:4;stroke-dasharray:none;stroke-opacity:1"
       id="path4168"
       cx="2.5"
       cy="10.5"
       r="1.5" />
    <circle
       style="opacity:0.35;fill:#ffffff;fill-opacity:1;stroke:none;stroke-width:1;stroke-miterlimit:4;stroke-dasharray:none;stroke-opacity:1"
       id="circle4194"
       cx="2.5"
       cy="17.5"
       r="1.5" />
    <circle
       r="1.5"
       cy="16.5"
       cx="2.5"
       id="circle4178"
       style="opacity:1;fill:url(#radialGradient4180);fill-opacity:1;stroke:none;stroke-width:1;stroke-miterlimit:4;stroke-dasharray:none;stroke-opacity:1" />
    <g
       id="g4232"
       transform="matrix(0.89310997,0,0,0.8895486,1.7102399,2.4299308)">
      <path
         style="display:block;overflow:visible;visibility:visible;fill:#ffffff;fill-opacity:1;fill-rule:nonzero;stroke:#8c8c8c;stroke-width:0.59999996;stroke-linecap:butt;stroke-linejoin:round;stroke-miterlimit:4;stroke-dasharray:none;stroke-dashoffset:0;stroke-opacity:1;marker:none;enable-background:accumulate"
         id="path2426"
         d="m 9.3111323,13.791575 c -0.1305807,0.05409 -0.1888039,0.19465 -0.1347152,0.325231 L 9.448583,14.773873 C 9.1883842,14.969224 8.9770053,15.198225 8.7865635,15.452236 L 8.11287,15.173183 c -0.1305806,-0.05409 -0.2744446,0.0055 -0.3285333,0.136083 l -0.4618808,1.115079 c -0.054089,0.130582 0.0055,0.274445 0.136083,0.328533 l 0.6736935,0.279053 c -0.04495,0.314276 -0.057411,0.625671 -0.011557,0.947794 l -0.6570666,0.272166 c -0.1305812,0.05409 -0.1888039,0.19465 -0.1347152,0.325231 l 0.462682,1.117013 c 0.054089,0.130582 0.1946502,0.188804 0.3252314,0.134716 l 0.6570666,-0.272166 c 0.1953515,0.260198 0.4243522,0.471577 0.6783631,0.662019 l -0.2790529,0.673694 c -0.054088,0.130582 0.0055,0.274444 0.1360829,0.328533 l 1.1150793,0.461881 c 0.130582,0.05409 0.274445,-0.0055 0.328533,-0.136083 l 0.279053,-0.673694 c 0.314276,0.04495 0.625672,0.05741 0.947794,0.01156 l 0.272166,0.657067 c 0.05409,0.130581 0.19465,0.188803 0.325231,0.134715 l 1.117013,-0.462682 c 0.130582,-0.05409 0.188804,-0.19465 0.134716,-0.325232 l -0.272166,-0.657066 c 0.260198,-0.195351 0.471577,-0.424352 0.662019,-0.678363 l 0.673694,0.279053 c 0.130583,0.05409 0.274445,-0.0055 0.328533,-0.136083 l 0.461881,-1.115079 c 0.05409,-0.130583 -0.0055,-0.274445 -0.136083,-0.328533 l -0.673694,-0.279053 c 0.04495,-0.314276 0.05741,-0.625672 0.01156,-0.947794 l 0.657066,-0.272166 c 0.130582,-0.05409 0.188804,-0.19465 0.134716,-0.325231 l -0.462682,-1.117014 c -0.05409,-0.130581 -0.19465,-0.188803 -0.325232,-0.134715 l -0.657066,0.272166 c -0.195351,-0.2602 -0.424352,-0.471578 -0.678363,-0.662019 l 0.279053,-0.673694 c 0.05409,-0.130582 -0.0055,-0.274445 -0.136083,-0.328533 l -1.115079,-0.461881 c -0.130583,-0.05409 -0.274445,0.0055 -0.328534,0.136083 l -0.279053,0.673694 c -0.314275,-0.04495 -0.625671,-0.05741 -0.947793,-0.01156 L 10.75338,13.463608 c -0.05409,-0.130581 -0.19465,-0.188804 -0.325232,-0.134715 l -1.117013,0.462682 z m 1.7560367,2.659752 c 0.580321,-0.240377 1.246395,0.03552 1.486772,0.615841 0.240377,0.580321 -0.03552,1.246395 -0.615841,1.486772 -0.580321,0.240377 -1.246395,-0.03552 -1.486772,-0.615841 -0.240377,-0.580321 0.03552,-1.246395 0.615841,-1.486772 z"
         inkscape:connector-curvature="0" />
      <path
         style="opacity:0.05;fill:#000000;fill-opacity:1;stroke:none"
         id="path3315"
         d="m 10.515242,15.118857 c -1.3144373,0.544458 -1.9408413,2.056733 -1.3963841,3.371169 0.5444576,1.314437 2.0567321,1.940842 3.3711691,1.396384 1.314436,-0.544457 1.940841,-2.056732 1.396384,-3.371169 -0.544457,-1.314436 -2.056733,-1.940841 -3.371169,-1.396384 z m 0.455719,1.100205 c 0.708533,-0.293484 1.521762,0.04337 1.815245,0.751899 0.293484,0.708532 -0.04337,1.52176 -0.751899,1.815244 -0.708531,0.293483 -1.521761,-0.04337 -1.815244,-0.751899 -0.2934836,-0.708531 0.04337,-1.521761 0.751898,-1.815244 z"
         inkscape:connector-curvature="0" />
      <path
         style="fill:none;stroke:#e9e9e9;stroke-width:0.99999994;stroke-miterlimit:4;stroke-dasharray:none;stroke-opacity:1"
         id="path28"
         d="m 10.631703,15.40002 c -1.1593804,0.480232 -1.711913,1.814164 -1.2316817,2.973544 0.4802313,1.159381 1.8141627,1.711914 2.9735437,1.231682 1.159381,-0.480231 1.711914,-1.814163 1.231682,-2.973543 -0.480231,-1.159381 -1.814163,-1.711914 -2.973544,-1.231683 z"
         inkscape:connector-curvature="0" />
    </g>
  </g>
</svg>
