<?xml version="1.0" encoding="UTF-8" standalone="no"?>
<svg
   xmlns:dc="http://purl.org/dc/elements/1.1/"
   xmlns:cc="http://creativecommons.org/ns#"
   xmlns:rdf="http://www.w3.org/1999/02/22-rdf-syntax-ns#"
   xmlns:svg="http://www.w3.org/2000/svg"
   xmlns="http://www.w3.org/2000/svg"
   xmlns:sodipodi="http://sodipodi.sourceforge.net/DTD/sodipodi-0.dtd"
   xmlns:inkscape="http://www.inkscape.org/namespaces/inkscape"
   id="svg3810"
   height="16"
   width="16"
   version="1.1"
   inkscape:version="0.91 r13725"
   sodipodi:docname="sc_printlayout.svg">
  <sodipodi:namedview
     pagecolor="#ffffff"
     bordercolor="#666666"
     borderopacity="1"
     objecttolerance="10"
     gridtolerance="10"
     guidetolerance="10"
     inkscape:pageopacity="0"
     inkscape:pageshadow="2"
     inkscape:window-width="2560"
     inkscape:window-height="1377"
     id="namedview35"
     showgrid="false"
     inkscape:zoom="29.5"
     inkscape:cx="0.53361187"
     inkscape:cy="4.7054258"
     inkscape:window-x="0"
     inkscape:window-y="34"
     inkscape:window-maximized="1"
     inkscape:current-layer="svg3810" />
  <defs
     id="defs3812" />
  <metadata
     id="metadata3815">
    <rdf:RDF>
      <cc:Work
         rdf:about="">
        <dc:format>image/svg+xml</dc:format>
        <dc:type
           rdf:resource="http://purl.org/dc/dcmitype/StillImage" />
        <dc:title />
      </cc:Work>
    </rdf:RDF>
  </metadata>
  <path
     d="m 3,1 c 2.2915074,0 9.999988,8.904e-4 9.999988,8.904e-4 L 13,15 C 13,15 6.3333332,15 3,15 3,10.333334 3,5.6666664 3,1 Z"
     id="path4160"
     style="display:inline;fill:#e9e9e9;fill-opacity:1;stroke:none" />
  <path
     d="m 12.5,14.5 -9.0000001,0 0,-13 L 12.5,1.5 Z"
     id="rect6741-1"
     style="fill:none;stroke:#ffffff;stroke-width:1;stroke-linecap:round;stroke-linejoin:miter;stroke-miterlimit:4;stroke-dasharray:none;stroke-dashoffset:0;stroke-opacity:1" />
  <path
     d="m 2.4999621,0.49997396 c 2.5206756,0 11.0000629,9.54e-4 11.0000629,9.54e-4 l 1.3e-5,14.99909804 c 0,0 -7.3333841,0 -11.000076,0 0,-5.000017 0,-10.000035 0,-15.00005204 z"
     id="path4160-8"
     style="display:inline;fill:none;stroke:#8c8c8c;stroke-width:0.99992192;stroke-linecap:butt;stroke-linejoin:round;stroke-miterlimit:4;stroke-dasharray:none;stroke-dashoffset:0;stroke-opacity:1" />
  <g
     transform="matrix(0.5000156,0,0,0.5000156,7.9997499,7.9997471)"
     id="g4141">
    <rect
       style="display:inline;fill:#505050;fill-opacity:1;stroke:#565656;stroke-width:1.00008368;stroke-linecap:round;stroke-linejoin:round;stroke-miterlimit:4;stroke-dasharray:none;stroke-opacity:1"
       id="rect2315"
       y="3.5000422"
       x="2.500042"
       ry="0.36184996"
       rx="0.29157397"
       height="7.9999166"
       width="10.999916" />
    <path
       d="m 3.4834428,0.49813255 9.0262342,0.001739 c 0,2.86236875 0,8.12745095 0,10.98982145 -3.0087433,0 -6.0174909,0 -9.0262342,0 0,-3.6638545 0,-7.3277061 0,-10.9915602 z"
       id="rect2594"
       style="display:inline;fill:#e9e9e9;fill-opacity:1;stroke:#8c8c8c;stroke-width:0.99525338;stroke-linecap:butt;stroke-linejoin:round;stroke-miterlimit:4;stroke-dasharray:none;stroke-dashoffset:0;stroke-opacity:1"
       inkscape:connector-curvature="0" />
    <path
       inkscape:connector-curvature="0"
       style="fill:#505050;fill-opacity:1;stroke:#565656;stroke-width:0.99970883;stroke-linecap:square;stroke-linejoin:miter;stroke-miterlimit:4;stroke-dasharray:none;stroke-opacity:1"
       id="rect6333"
       d="m 1.5050189,12.499854 c 0.025372,0.518058 -0.0657,1.075536 0.080353,1.555513 0.2739839,0.609191 0.8786674,0.408878 1.2830134,0.44374 0.0073,0.359613 0.029665,0.914771 0.3421077,0.991264 3.3005711,0.01952 6.2780675,0.0028 9.579015,0.0084 0.340644,0.01588 0.35312,-0.580789 0.342108,-0.959421 0.11125,-0.09326 0.427435,-0.01386 0.581072,-0.04021 0.38015,0.0815 0.844967,-0.329793 0.78162,-1.013691 0,-0.328519 0,-0.657045 0,-0.985562 -4.329764,0 -8.6595258,0 -12.9892892,0 z" />
    <path
       inkscape:connector-curvature="0"
       style="fill:#e9e9e9;fill-opacity:1;stroke:#8c8c8c;stroke-width:0.99993199;stroke-linecap:round;stroke-linejoin:round;stroke-miterlimit:4;stroke-dasharray:none;stroke-opacity:1"
       id="rect2313"
       d="m 1.2251892,7.4999662 13.5496198,0 c 0.401775,0 0.725226,0.3477098 0.725226,0.7796206 l 0,5.2204472 -15.00006986,0 0,-5.2204472 c 0,-0.4319108 0.32345002,-0.7796206 0.72522406,-0.7796206 z" />
    <path
       inkscape:connector-curvature="0"
       style="display:inline;opacity:0.9;fill:none;stroke:#ffffff;stroke-width:0.99990565;stroke-linecap:round;stroke-linejoin:miter;stroke-miterlimit:4;stroke-dasharray:none;stroke-opacity:1"
       id="rect2374"
       d="m 1.8170282,8.4999529 12.3659448,0 c 0.164502,0 0.317074,0.1374829 0.317074,0.2857221 l 0,3.714372 -13.0000942,0 0,-3.714372 c 0,-0.1482392 0.1525713,-0.2857221 0.3170754,-0.2857221 z" />
    <rect
       style="fill:#424242;fill-opacity:1;stroke:#565656;stroke-width:0.94301587;stroke-linecap:round;stroke-linejoin:miter;stroke-miterlimit:4;stroke-dasharray:none;stroke-opacity:1"
       id="rect2319"
       y="7.471508"
       x="3.471508"
       height="4.0569844"
       width="9.0569839" />
    <path
       inkscape:connector-curvature="0"
       style="fill:#e9e9e9;fill-opacity:1;stroke:none"
       id="rect6331"
       d="m 13,14 0,0.875 C 13,14.94425 12.93031,15 12.843749,15 l -9.687506,0 c -0.086562,0 -0.15625,-0.05575 -0.15625,-0.125 l 0,-0.875 L 13,14 Z" />
  </g>
</svg>
