<?xml version="1.0" encoding="UTF-8" standalone="no"?>
<!-- Created with Inkscape (http://www.inkscape.org/) -->

<svg
   xmlns:dc="http://purl.org/dc/elements/1.1/"
   xmlns:cc="http://creativecommons.org/ns#"
   xmlns:rdf="http://www.w3.org/1999/02/22-rdf-syntax-ns#"
   xmlns:svg="http://www.w3.org/2000/svg"
   xmlns="http://www.w3.org/2000/svg"
   xmlns:sodipodi="http://sodipodi.sourceforge.net/DTD/sodipodi-0.dtd"
   xmlns:inkscape="http://www.inkscape.org/namespaces/inkscape"
   version="1.0"
   width="16"
   height="16"
   id="svg11300"
   inkscape:version="0.91 r13725"
   sodipodi:docname="sc_printersetup.svg">
  <metadata
     id="metadata24649">
    <rdf:RDF>
      <cc:Work
         rdf:about="">
        <dc:format>image/svg+xml</dc:format>
        <dc:type
           rdf:resource="http://purl.org/dc/dcmitype/StillImage" />
      </cc:Work>
    </rdf:RDF>
  </metadata>
  <sodipodi:namedview
     pagecolor="#ffffff"
     bordercolor="#666666"
     borderopacity="1"
     objecttolerance="10"
     gridtolerance="10"
     guidetolerance="10"
     inkscape:pageopacity="0"
     inkscape:pageshadow="2"
     inkscape:window-width="2560"
     inkscape:window-height="1377"
     id="namedview24647"
     showgrid="true"
     inkscape:zoom="29.5"
     inkscape:cx="9.9642219"
     inkscape:cy="1.5685987"
     inkscape:window-x="0"
     inkscape:window-y="34"
     inkscape:window-maximized="1"
     inkscape:current-layer="svg11300"
     inkscape:object-nodes="true">
    <inkscape:grid
       type="xygrid"
       id="grid4209" />
  </sodipodi:namedview>
  <defs
     id="defs3" />
  <rect
     width="10.999916"
     height="7.9999166"
     rx="0.29157397"
     ry="0.36184996"
     x="2.500042"
     y="3.5000422"
     id="rect2315"
     style="fill:#505050;fill-opacity:1;stroke:#565656;stroke-width:1.00008368;stroke-linecap:round;stroke-linejoin:round;stroke-miterlimit:4;stroke-opacity:1;stroke-dasharray:none;display:inline" />
  <path
     inkscape:connector-curvature="0"
     style="display:inline;fill:#e9e9e9;fill-opacity:1;stroke:#8c8c8c;stroke-width:0.99525338;stroke-linecap:butt;stroke-linejoin:round;stroke-miterlimit:4;stroke-dasharray:none;stroke-dashoffset:0;stroke-opacity:1"
     id="rect2594"
     d="m 3.4834428,0.49813255 9.0262342,0.001739 c 0,2.86236875 0,8.12745095 0,10.98982145 -3.0087433,0 -6.0174909,0 -9.0262342,0 0,-3.6638545 0,-7.3277061 0,-10.9915602 z" />
  <path
     d="m 1.5050189,12.499854 c 0.025372,0.518058 -0.0657,1.075536 0.080353,1.555513 0.2739839,0.609191 0.8786674,0.408878 1.2830134,0.44374 0.0073,0.359613 0.029665,0.914771 0.3421077,0.991264 3.3005711,0.01952 6.2780675,0.0028 9.579015,0.0084 0.340644,0.01588 0.35312,-0.580789 0.342108,-0.959421 0.11125,-0.09326 0.427435,-0.01386 0.581072,-0.04021 0.38015,0.0815 0.844967,-0.329793 0.78162,-1.013691 0,-0.328519 0,-0.657045 0,-0.985562 -4.329764,0 -8.6595258,0 -12.9892892,0 z"
     id="rect6333"
     style="fill:#505050;fill-opacity:1;stroke:#565656;stroke-width:0.99970883;stroke-linecap:square;stroke-linejoin:miter;stroke-miterlimit:4;stroke-opacity:1;stroke-dasharray:none" />
  <path
     d="m 1.2251892,7.4999662 13.5496198,0 c 0.401775,0 0.725226,0.3477098 0.725226,0.7796206 l 0,5.2204472 -15.00006986,0 0,-5.2204472 c 0,-0.4319108 0.32345002,-0.7796206 0.72522406,-0.7796206 z"
     id="rect2313"
     style="fill:#e9e9e9;fill-opacity:1;stroke:#8c8c8c;stroke-width:0.99993199;stroke-linecap:round;stroke-linejoin:round;stroke-miterlimit:4;stroke-opacity:1;stroke-dasharray:none" />
  <path
     d="m 1.8170282,8.4999529 12.3659448,0 c 0.164502,0 0.317074,0.1374829 0.317074,0.2857221 l 0,3.714372 -13.0000942,0 0,-3.714372 c 0,-0.1482392 0.1525713,-0.2857221 0.3170754,-0.2857221 z"
     id="rect2374"
     style="opacity:0.9;fill:none;stroke:#ffffff;stroke-width:0.99990565;stroke-linecap:round;stroke-linejoin:miter;stroke-miterlimit:4;stroke-opacity:1;stroke-dasharray:none;display:inline" />
  <rect
     width="9.0569839"
     height="4.0569844"
     x="3.471508"
     y="7.471508"
     id="rect2319"
     style="fill:#424242;fill-opacity:1;stroke:#565656;stroke-width:0.94301587;stroke-linecap:round;stroke-linejoin:miter;stroke-miterlimit:4;stroke-opacity:1;stroke-dasharray:none" />
  <path
     d="m 13,14 0,0.875 C 13,14.94425 12.93031,15 12.843749,15 l -9.687506,0 c -0.086562,0 -0.15625,-0.05575 -0.15625,-0.125 l 0,-0.875 L 13,14 z"
     id="rect6331"
     style="fill:#e9e9e9;fill-opacity:1;stroke:none" />
  <path
     d="m 10.867705,4.0599947 -2.8749083,2.45766 -2.8605012,-2.45766 1.911803,0 0,-1.911803 1.9118029,0 0,1.911803 1.9118036,0 z"
     id="path4348"
     style="display:inline;overflow:visible;visibility:visible;fill:#fdfdfd;fill-opacity:1;fill-rule:nonzero;stroke:#8c8c8c;stroke-width:0.76472116;stroke-linejoin:round;stroke-miterlimit:4;stroke-dasharray:none;stroke-opacity:1;marker:none"
     inkscape:connector-curvature="0" />
  <g
     id="g4269"
     transform="matrix(0.79859265,0,0,0.80150201,3.2048947,3.1759679)">
    <path
       id="path3688-9"
       d="m 10.212891,7.0820312 c -0.04519,0.0135 -0.08814,0.041581 -0.121094,0.080078 -0.06594,0.076995 -0.08053,0.1832 -0.03516,0.265625 l 1.208984,2.3007812 c 0.108546,0.2062348 0.03449,0.4808766 -0.167969,0.7675786 -0.204399,0.289418 -0.536596,0.584777 -0.955078,0.826172 -0.4185718,0.241455 -0.831725,0.383321 -1.173828,0.410156 -0.340083,0.0267 -0.6040676,-0.05687 -0.7128906,-0.263672 L 7.0410156,9.1542969 c -0.0339,-0.0642 -0.09729,-0.1039825 -0.171875,-0.109375 -0.07454,-0.00525 -0.150637,0.026084 -0.203125,0.083984 -0.02829,0.03015 -0.049627,0.064568 -0.060547,0.1035157 -0.303252,1.1099394 -0.2389549,2.3672704 0.2050781,3.2109374 0.606415,1.152179 1.9540853,1.653991 3.3085943,1.355469 0.540927,0.160605 1.251004,0.536592 2.076171,1.357422 L 13.060547,16 16,16 16,14.740234 14.316406,13.044922 C 13.572541,12.304973 13.193695,11.657656 13.007812,11.142578 13.221566,10.409506 13.181567,9.6404934 12.830078,8.9726562 12.386217,8.129357 11.407565,7.4089967 10.351562,7.0839844 c -0.04528,-0.014813 -0.09349,-0.015453 -0.138671,-0.00195 z"
       style="display:inline;fill:#9cde4a;fill-opacity:1;fill-rule:evenodd;stroke:none;stroke-width:0.86159956;stroke-linecap:round;stroke-linejoin:round;stroke-miterlimit:4;stroke-dasharray:none;stroke-dashoffset:0.3612;stroke-opacity:1;enable-background:new"
       inkscape:connector-curvature="0" />
    <path
       id="path3688"
       d="M 10.285156,6.6425781 C 10.086369,6.6415225 9.8951134,6.7295862 9.765625,6.8808594 9.5933322,7.0820375 9.5383404,7.3779763 9.6796875,7.6347656 l 1.2031245,2.2949219 c -0.0023,-0.00442 0.01933,0.097385 -0.136718,0.3183595 -0.157218,0.222612 -0.446048,0.486409 -0.8183596,0.701172 -0.3748111,0.216211 -0.7420608,0.333742 -0.9941406,0.353515 -0.126899,0.01 -0.2197817,-0.0059 -0.2636719,-0.02148 -0.040774,-0.01444 -0.033292,-0.01333 -0.03125,-0.01172 l -0.00195,-0.002 L 7.421875,8.9550781 a 0.43084286,0.43084286 0 0 0 0,-0.00195 C 7.3202449,8.7606544 7.1114407,8.6304933 6.9003906,8.6152344 6.6914331,8.6005171 6.4941188,8.6815232 6.3515625,8.8359375 l -0.00195,0 c -0.00105,0.00114 -0.00287,8.084e-4 -0.00391,0.00195 a 0.43084286,0.43084286 0 0 0 -0.09375,0.171875 c -0.018705,0.037435 -0.048792,0.065498 -0.060547,0.1074219 a 0.43084286,0.43084286 0 0 0 -0.00195,0.00195 c -0.3291137,1.2045966 -0.2779677,2.5408016 0.2402344,3.5253906 0.6830795,1.297841 2.1727361,1.86472 3.6406241,1.595703 -0.02342,-0.0076 -0.05165,-0.02064 -0.074218,-0.02734 l 0.214845,0.0078 c -0.04674,0.0103 -0.09382,0.01095 -0.140626,0.01953 0.458333,0.149495 1.074387,0.478698 1.820313,1.220704 a 0.43084286,0.43084286 0 0 0 0.0039,0.0039 L 12.443359,16 l 1.232422,0 -1.179687,-1.152344 0.002,0.0039 c -0.866331,-0.861724 -1.638151,-1.281441 -2.255859,-1.464843 a 0.43084286,0.43084286 0 0 0 -0.216797,-0.0078 C 8.8287517,13.642622 7.6993739,13.207318 7.1914062,12.242188 6.890712,11.670864 6.8436604,10.788462 6.9628906,9.9316406 L 7.875,11.669922 c 0.1099254,0.2089 0.3062061,0.3531 0.5058594,0.423828 0.1996533,0.07073 0.4079096,0.08314 0.6210937,0.06641 0.432126,-0.0339 0.8931357,-0.198144 1.3554689,-0.464844 0.464652,-0.268027 0.840217,-0.592994 1.091797,-0.949218 0.248878,-0.352429 0.416682,-0.7999107 0.197265,-1.2167971 l -0.9375,-1.7832031 c 0.752271,0.3458934 1.438028,0.8516135 1.740235,1.4257812 0.294066,0.558733 0.331576,1.210088 0.144531,1.851563 a 0.43084286,0.43084286 0 0 0 0.0078,0.265624 c 0.210302,0.582742 0.629285,1.283786 1.410157,2.060547 l 1.988281,2 0,-1.222656 -1.378906,-1.386719 a 0.43084286,0.43084286 0 0 0 -0.002,-0.002 c -0.68794,-0.68435 -1.009234,-1.25038 -1.175723,-1.693316 C 13.617907,10.282323 13.584464,9.4811975 13.210938,8.7714844 12.693506,7.78841 11.637452,7.030184 10.484375,6.6738281 10.418412,6.6524765 10.351419,6.64293 10.285156,6.6425781 Z"
       style="color:#000000;font-style:normal;font-variant:normal;font-weight:normal;font-stretch:normal;font-size:medium;line-height:normal;font-family:sans-serif;text-indent:0;text-align:start;text-decoration:none;text-decoration-line:none;text-decoration-style:solid;text-decoration-color:#000000;letter-spacing:normal;word-spacing:normal;text-transform:none;direction:ltr;block-progression:tb;writing-mode:lr-tb;baseline-shift:baseline;text-anchor:start;white-space:normal;clip-rule:nonzero;display:inline;overflow:visible;visibility:visible;opacity:1;isolation:auto;mix-blend-mode:normal;color-interpolation:sRGB;color-interpolation-filters:linearRGB;solid-color:#000000;solid-opacity:1;fill:#5ca12a;fill-opacity:1;fill-rule:evenodd;stroke:none;stroke-width:0.86159956;stroke-linecap:round;stroke-linejoin:round;stroke-miterlimit:4;stroke-dasharray:none;stroke-dashoffset:0.3612;stroke-opacity:1;color-rendering:auto;image-rendering:auto;shape-rendering:auto;text-rendering:auto;enable-background:new"
       inkscape:connector-curvature="0" />
  </g>
</svg>
