<?xml version="1.0" encoding="UTF-8" standalone="no"?>
<!-- Created with Inkscape (http://www.inkscape.org/) -->

<svg
   xmlns:dc="http://purl.org/dc/elements/1.1/"
   xmlns:cc="http://creativecommons.org/ns#"
   xmlns:rdf="http://www.w3.org/1999/02/22-rdf-syntax-ns#"
   xmlns:svg="http://www.w3.org/2000/svg"
   xmlns="http://www.w3.org/2000/svg"
   xmlns:xlink="http://www.w3.org/1999/xlink"
   xmlns:sodipodi="http://sodipodi.sourceforge.net/DTD/sodipodi-0.dtd"
   xmlns:inkscape="http://www.inkscape.org/namespaces/inkscape"
   width="16"
   height="16"
   id="svg1306"
   sodipodi:version="0.32"
   inkscape:version="0.91 r13725"
   sodipodi:docname="sc_defaultbullet.svg"
   version="1.1"
   inkscape:export-filename="/home/ochosi/Nerdstuff/shimmer/libreoffice-style-elementary/src/cmd/sc_defaultnumbering.png"
   inkscape:export-xdpi="90"
   inkscape:export-ydpi="90">
  <defs
     id="defs1308">
    <linearGradient
       id="linearGradient2867-449-88-871-390-598-476-591-434-148-57-177-641-289-620-227-114-444-680-744-4-1">
      <stop
         offset="0"
         style="stop-color:#737373;stop-opacity:1"
         id="stop5430-5-0" />
      <stop
         offset="0.26238"
         style="stop-color:#636363;stop-opacity:1"
         id="stop5432-2-0" />
      <stop
         offset="0.704952"
         style="stop-color:#4b4b4b;stop-opacity:1"
         id="stop5434-9-6" />
      <stop
         offset="1"
         style="stop-color:#3f3f3f;stop-opacity:1"
         id="stop5436-2-7" />
    </linearGradient>
    <radialGradient
       inkscape:collect="always"
       xlink:href="#linearGradient2867-449-88-871-390-598-476-591-434-148-57-177-641-289-620-227-114-444-680-744-4-1"
       id="radialGradient4180"
       gradientUnits="userSpaceOnUse"
       gradientTransform="matrix(-8.6734192,-4.564055e-7,5.0144226e-7,-9.529287,108.91325,-13.099556)"
       cx="11.192508"
       cy="-1.5222741"
       fx="11.192508"
       fy="-1.5222741"
       r="2" />
    <radialGradient
       inkscape:collect="always"
       xlink:href="#linearGradient2867-449-88-871-390-598-476-591-434-148-57-177-641-289-620-227-114-444-680-744-4-1"
       id="radialGradient4176"
       cx="11.284193"
       cy="-2.3434286"
       fx="11.284193"
       fy="-2.3434286"
       r="2"
       gradientUnits="userSpaceOnUse"
       gradientTransform="matrix(-8.6734192,-4.564055e-7,5.0144226e-7,-9.529287,108.91325,-19.099557)" />
    <linearGradient
       x1="11.192374"
       y1="4.0641627"
       x2="11.192374"
       y2="30.298229"
       id="linearGradient4811"
       xlink:href="#linearGradient3242"
       gradientUnits="userSpaceOnUse"
       gradientTransform="matrix(0.3705263,0,0,0.38647344,7.53368,7.335749)" />
    <linearGradient
       id="linearGradient3242">
      <stop
         id="stop3244"
         style="stop-color:#f8b17e;stop-opacity:1"
         offset="0" />
      <stop
         id="stop3246"
         style="stop-color:#e35d4f;stop-opacity:1"
         offset="0.31209752" />
      <stop
         id="stop3248"
         style="stop-color:#c6262e;stop-opacity:1"
         offset="0.57054454" />
      <stop
         id="stop3250"
         style="stop-color:#690b54;stop-opacity:1"
         offset="1" />
    </linearGradient>
    <linearGradient
       x1="41.225124"
       y1="23.238064"
       x2="41.225124"
       y2="7.9166722"
       id="linearGradient4813"
       xlink:href="#linearGradient2490"
       gradientUnits="userSpaceOnUse"
       gradientTransform="matrix(0.64000001,0,0,0.69565218,-14.27409,0.033675)" />
    <linearGradient
       id="linearGradient2490">
      <stop
         id="stop2492"
         style="stop-color:#791235;stop-opacity:1"
         offset="0" />
      <stop
         id="stop2494"
         style="stop-color:#dd3b27;stop-opacity:1"
         offset="1" />
    </linearGradient>
    <linearGradient
       x1="36.010902"
       y1="13.022708"
       x2="16.331276"
       y2="32.702335"
       id="linearGradient4808"
       xlink:href="#linearGradient7916"
       gradientUnits="userSpaceOnUse"
       gradientTransform="matrix(0.19694688,-0.20520309,0.19694688,0.20520309,2.33061,11.959949)" />
    <linearGradient
       id="linearGradient7916">
      <stop
         id="stop7918"
         style="stop-color:#ffffff;stop-opacity:1"
         offset="0" />
      <stop
         id="stop7920"
         style="stop-color:#ffffff;stop-opacity:0"
         offset="1" />
    </linearGradient>
    <linearGradient
       x1="28.449389"
       y1="20.584223"
       x2="16.331276"
       y2="32.702335"
       id="linearGradient4805"
       xlink:href="#linearGradient7916"
       gradientUnits="userSpaceOnUse"
       gradientTransform="matrix(0.19694688,-0.20520309,0.19694688,0.20520309,2.13207,12.063489)" />
  </defs>
  <sodipodi:namedview
     id="base"
     pagecolor="#ffffff"
     bordercolor="#666666"
     borderopacity="1.0"
     inkscape:pageopacity="0.0"
     inkscape:pageshadow="2"
     inkscape:zoom="19.79899"
     inkscape:cx="-10.088745"
     inkscape:cy="6.1119221"
     inkscape:current-layer="layer1"
     showgrid="false"
     inkscape:grid-bbox="true"
     inkscape:document-units="px"
     showguides="true"
     inkscape:guide-bbox="true"
     inkscape:window-width="1594"
     inkscape:window-height="885"
     inkscape:window-x="36"
     inkscape:window-y="151"
     inkscape:window-maximized="0" />
  <metadata
     id="metadata1311">
    <rdf:RDF>
      <cc:Work
         rdf:about="">
        <dc:format>image/svg+xml</dc:format>
        <dc:type
           rdf:resource="http://purl.org/dc/dcmitype/StillImage" />
        <dc:title />
      </cc:Work>
    </rdf:RDF>
  </metadata>
  <g
     id="layer1"
     inkscape:label="Layer 1"
     inkscape:groupmode="layer"
     transform="translate(0,-6)">
    <path
       style="color:#000000;font-style:normal;font-variant:normal;font-weight:bold;font-stretch:normal;font-size:54.8693924px;line-height:125%;font-family:'Bitstream Vera Sans';text-indent:0;text-align:start;text-decoration:none;text-decoration-line:none;text-decoration-style:solid;text-decoration-color:#000000;letter-spacing:normal;word-spacing:normal;text-transform:none;direction:ltr;block-progression:tb;writing-mode:lr-tb;baseline-shift:baseline;text-anchor:start;white-space:normal;clip-rule:nonzero;display:inline;overflow:visible;visibility:visible;opacity:1;isolation:auto;mix-blend-mode:normal;color-interpolation:sRGB;color-interpolation-filters:linearRGB;solid-color:#000000;solid-opacity:1;fill:#353535;fill-opacity:1;fill-rule:nonzero;stroke:none;stroke-width:1.00000012;stroke-linecap:round;stroke-linejoin:round;stroke-miterlimit:4;stroke-dasharray:none;stroke-dashoffset:0;stroke-opacity:1;color-rendering:auto;image-rendering:auto;shape-rendering:auto;text-rendering:auto;enable-background:accumulate"
       d="m 5.4921875,9 a 0.50005006,0.50005006 0 0 0 -0.050781,0.00391 0.50005006,0.50005006 0 0 0 -0.095703,0.021484 0.50005006,0.50005006 0 0 0 -0.046875,0.017578 0.50005006,0.50005006 0 0 0 -0.044922,0.021484 0.50005006,0.50005006 0 0 0 -0.082031,0.058594 0.50005006,0.50005006 0 0 0 -0.037109,0.033203 0.50005006,0.50005006 0 0 0 -0.03125,0.039063 0.50005006,0.50005006 0 0 0 -0.029297,0.041016 A 0.50005006,0.50005006 0 0 0 5,9.4726562 a 0.50005006,0.50005006 0 0 0 0,0.048828 0.50005006,0.50005006 0 0 0 0.013672,0.099609 0.50005006,0.50005006 0 0 0 0.056641,0.1367187 0.50005006,0.50005006 0 0 0 0.060547,0.080078 0.50005006,0.50005006 0 0 0 0.035156,0.035156 0.50005006,0.50005006 0 0 0 0.125,0.082031 0.50005006,0.50005006 0 0 0 0.095703,0.03125 A 0.50005006,0.50005006 0 0 0 5.4921875,10 l 9.0156245,0 a 0.50005006,0.50005006 0 0 0 0.09961,-0.011719 0.50005006,0.50005006 0 0 0 0.04687,-0.013672 0.50005006,0.50005006 0 0 0 0.134765,-0.066406 0.50005006,0.50005006 0 0 0 0.07617,-0.064453 0.50005006,0.50005006 0 0 0 0.03125,-0.039063 0.50005006,0.50005006 0 0 0 0.0293,-0.041016 0.50005006,0.50005006 0 0 0 0.04297,-0.089844 0.50005006,0.50005006 0 0 0 0.02539,-0.095703 0.50005006,0.50005006 0 0 0 0.0059,-0.099609 0.50005006,0.50005006 0 0 0 -0.0039,-0.050781 0.50005006,0.50005006 0 0 0 -0.04297,-0.1425782 0.50005006,0.50005006 0 0 0 -0.05273,-0.085937 0.50005006,0.50005006 0 0 0 -0.03125,-0.037109 0.50005006,0.50005006 0 0 0 -0.03516,-0.035156 0.50005006,0.50005006 0 0 0 -0.03906,-0.03125 A 0.50005006,0.50005006 0 0 0 14.564453,9.0039062 0.50005006,0.50005006 0 0 0 14.513672,9 0.50005006,0.50005006 0 0 0 14.507812,9 L 5.4921875,9 Z m 0,3 a 0.50005006,0.50005006 0 0 0 -0.050781,0.0039 0.50005006,0.50005006 0 0 0 -0.048828,0.0078 0.50005006,0.50005006 0 0 0 -0.046875,0.01367 0.50005006,0.50005006 0 0 0 -0.1347656,0.06641 0.50005006,0.50005006 0 0 0 -0.039063,0.03125 0.50005006,0.50005006 0 0 0 -0.037109,0.0332 0.50005006,0.50005006 0 0 0 -0.03125,0.03906 0.50005006,0.50005006 0 0 0 -0.029297,0.04101 0.50005006,0.50005006 0 0 0 -0.023438,0.04297 0.50005006,0.50005006 0 0 0 -0.019531,0.04687 0.50005006,0.50005006 0 0 0 -0.015625,0.04687 0.50005006,0.50005006 0 0 0 -0.00977,0.04883 A 0.50005006,0.50005006 0 0 0 5,12.521484 a 0.50005006,0.50005006 0 0 0 0.00391,0.05078 0.50005006,0.50005006 0 0 0 0.025391,0.0957 0.50005006,0.50005006 0 0 0 0.017578,0.04687 0.50005006,0.50005006 0 0 0 0.023437,0.04297 0.50005006,0.50005006 0 0 0 0.029297,0.04297 0.50005006,0.50005006 0 0 0 0.066406,0.07227 0.50005006,0.50005006 0 0 0 0.039063,0.03125 0.50005006,0.50005006 0 0 0 0.1328125,0.06836 A 0.50005006,0.50005006 0 0 0 5.4921875,13 l 5.0156245,0 a 0.50005006,0.50005006 0 0 0 0.146485,-0.02539 0.50005006,0.50005006 0 0 0 0.04687,-0.01758 0.50005006,0.50005006 0 0 0 0.04492,-0.02148 0.50005006,0.50005006 0 0 0 0.04297,-0.02734 0.50005006,0.50005006 0 0 0 0.03906,-0.03125 0.50005006,0.50005006 0 0 0 0.03711,-0.0332 0.50005006,0.50005006 0 0 0 0.03125,-0.03906 0.50005006,0.50005006 0 0 0 0.08789,-0.177735 0.50005006,0.50005006 0 0 0 0.0098,-0.04883 0.50005006,0.50005006 0 0 0 0.0059,-0.05078 0.50005006,0.50005006 0 0 0 -0.09961,-0.328125 0.50005006,0.50005006 0 0 0 -0.105469,-0.103516 0.50005006,0.50005006 0 0 0 -0.04297,-0.02734 0.50005006,0.50005006 0 0 0 -0.08984,-0.04101 0.50005006,0.50005006 0 0 0 -0.04883,-0.01367 0.50005006,0.50005006 0 0 0 -0.04883,-0.0098 A 0.50005006,0.50005006 0 0 0 10.507812,12 l -5.0156245,0 z m 0,3 a 0.50005006,0.50005006 0 0 0 -0.050781,0.0039 0.50005006,0.50005006 0 0 0 -0.1875,0.06055 0.50005006,0.50005006 0 0 0 -0.042969,0.02734 A 0.50005006,0.50005006 0 0 0 5.0742188,15.236328 0.50005006,0.50005006 0 0 0 5.03125,15.326172 0.50005006,0.50005006 0 0 0 5,15.521484 a 0.50005006,0.50005006 0 0 0 0.00391,0.05078 0.50005006,0.50005006 0 0 0 0.025391,0.0957 0.50005006,0.50005006 0 0 0 0.070312,0.132812 0.50005006,0.50005006 0 0 0 0.1484375,0.13086 0.50005006,0.50005006 0 0 0 0.1386719,0.05469 A 0.50005006,0.50005006 0 0 0 5.4921875,16 l 9.0156245,0 a 0.50005006,0.50005006 0 0 0 0.09961,-0.01172 0.50005006,0.50005006 0 0 0 0.04687,-0.01367 0.50005006,0.50005006 0 0 0 0.04687,-0.01758 0.50005006,0.50005006 0 0 0 0.04492,-0.02148 0.50005006,0.50005006 0 0 0 0.08203,-0.05859 0.50005006,0.50005006 0 0 0 0.03711,-0.0332 0.50005006,0.50005006 0 0 0 0.03125,-0.03906 0.50005006,0.50005006 0 0 0 0.0293,-0.04102 0.50005006,0.50005006 0 0 0 0.02344,-0.04297 0.50005006,0.50005006 0 0 0 0.03516,-0.09375 0.50005006,0.50005006 0 0 0 0.0098,-0.04883 0.50005006,0.50005006 0 0 0 0.0059,-0.09961 0.50005006,0.50005006 0 0 0 -0.0039,-0.05078 0.50005006,0.50005006 0 0 0 -0.0098,-0.04883 0.50005006,0.50005006 0 0 0 -0.05664,-0.136718 0.50005006,0.50005006 0 0 0 -0.365235,-0.238282 0.50005006,0.50005006 0 0 0 -0.05078,-0.0039 0.50005006,0.50005006 0 0 0 -0.0059,0 l -9.0156245,0 z m 0,3 a 0.50005006,0.50005006 0 0 0 -0.099609,0.01172 0.50005006,0.50005006 0 0 0 -0.046875,0.01367 0.50005006,0.50005006 0 0 0 -0.046875,0.01758 0.50005006,0.50005006 0 0 0 -0.087891,0.04883 0.50005006,0.50005006 0 0 0 -0.076172,0.06445 0.50005006,0.50005006 0 0 0 -0.03125,0.03906 0.50005006,0.50005006 0 0 0 -0.029297,0.04102 0.50005006,0.50005006 0 0 0 -0.042969,0.08984 0.50005006,0.50005006 0 0 0 -0.015625,0.04687 0.50005006,0.50005006 0 0 0 -0.00977,0.04883 A 0.50005006,0.50005006 0 0 0 5,18.472656 a 0.50005006,0.50005006 0 0 0 0.013672,0.148438 0.50005006,0.50005006 0 0 0 0.056641,0.136718 0.50005006,0.50005006 0 0 0 0.060547,0.08008 0.50005006,0.50005006 0 0 0 0.074219,0.06641 0.50005006,0.50005006 0 0 0 0.042969,0.02734 0.50005006,0.50005006 0 0 0 0.089844,0.04102 0.50005006,0.50005006 0 0 0 0.048828,0.01367 A 0.50005006,0.50005006 0 0 0 5.4921875,19 l 5.0156245,0 a 0.50005006,0.50005006 0 0 0 0.09961,-0.01172 0.50005006,0.50005006 0 0 0 0.04687,-0.01367 0.50005006,0.50005006 0 0 0 0.04687,-0.01758 0.50005006,0.50005006 0 0 0 0.04492,-0.02148 0.50005006,0.50005006 0 0 0 0.04297,-0.02734 0.50005006,0.50005006 0 0 0 0.195313,-0.28125 A 0.50005006,0.50005006 0 0 0 11,18.478516 0.50005006,0.50005006 0 0 0 10.869141,18.162109 0.50005006,0.50005006 0 0 0 10.751953,18.068359 0.50005006,0.50005006 0 0 0 10.662109,18.027344 0.50005006,0.50005006 0 0 0 10.507812,18 l -5.0156245,0 z"
       id="path4256"
       inkscape:connector-curvature="0" />
    <path
       inkscape:connector-curvature="0"
       id="path4270"
       d="m 5.4929788,13.5 0,0 0,0 c 1.6714366,0 3.3428727,0 5.0143092,0 l 0,0 -5.0143091,0 z"
       style="font-style:normal;font-variant:normal;font-weight:bold;font-stretch:normal;font-size:54.8693924px;line-height:125%;font-family:'Bitstream Vera Sans';text-align:start;writing-mode:lr-tb;text-anchor:start;opacity:0.35;fill:none;fill-opacity:1;stroke:#ffffff;stroke-width:1.00000012;stroke-linecap:round;stroke-linejoin:round;stroke-miterlimit:4;stroke-dasharray:none;stroke-opacity:1" />
    <path
       style="font-style:normal;font-variant:normal;font-weight:bold;font-stretch:normal;font-size:54.8693924px;line-height:125%;font-family:'Bitstream Vera Sans';text-align:start;writing-mode:lr-tb;text-anchor:start;opacity:0.35;fill:none;fill-opacity:1;stroke:#ffffff;stroke-width:1.00000012;stroke-linecap:round;stroke-linejoin:round;stroke-miterlimit:4;stroke-dasharray:none;stroke-opacity:1"
       d="m 5.4929788,10.5 0,0 0,0 c 3.0047683,0 6.0095362,0 9.0143042,0 l 0,0 -9.0143041,0 z"
       id="path4176"
       inkscape:connector-curvature="0" />
    <path
       style="font-style:normal;font-variant:normal;font-weight:bold;font-stretch:normal;font-size:54.8693924px;line-height:125%;font-family:'Bitstream Vera Sans';text-align:start;writing-mode:lr-tb;text-anchor:start;opacity:0.35;fill:none;fill-opacity:1;stroke:#ffffff;stroke-width:1.00000012;stroke-linecap:round;stroke-linejoin:round;stroke-miterlimit:4;stroke-dasharray:none;stroke-opacity:1"
       d="m 5.4929788,19.5 0,0 0,0 c 1.6714366,0 3.3428727,0 5.0143092,0 l 0,0 -5.0143091,0 z"
       id="path4184"
       inkscape:connector-curvature="0" />
    <path
       inkscape:connector-curvature="0"
       id="path4190"
       d="m 5.4929788,16.5 0,0 0,0 c 3.0047683,0 6.0095362,0 9.0143042,0 l 0,0 -9.0143041,0 z"
       style="font-style:normal;font-variant:normal;font-weight:bold;font-stretch:normal;font-size:54.8693924px;line-height:125%;font-family:'Bitstream Vera Sans';text-align:start;writing-mode:lr-tb;text-anchor:start;opacity:0.35;fill:none;fill-opacity:1;stroke:#ffffff;stroke-width:1.00000012;stroke-linecap:round;stroke-linejoin:round;stroke-miterlimit:4;stroke-dasharray:none;stroke-opacity:1" />
    <circle
       r="1.5"
       cy="11.5"
       cx="2.5"
       id="circle4190"
       style="opacity:0.35;fill:#ffffff;fill-opacity:1;stroke:none;stroke-width:1;stroke-miterlimit:4;stroke-dasharray:none;stroke-opacity:1" />
    <circle
       style="opacity:1;fill:url(#radialGradient4176);fill-opacity:1;stroke:none;stroke-width:1;stroke-miterlimit:4;stroke-dasharray:none;stroke-opacity:1"
       id="path4168"
       cx="2.5"
       cy="10.5"
       r="1.5" />
    <circle
       style="opacity:0.35;fill:#ffffff;fill-opacity:1;stroke:none;stroke-width:1;stroke-miterlimit:4;stroke-dasharray:none;stroke-opacity:1"
       id="circle4194"
       cx="2.5"
       cy="17.5"
       r="1.5" />
    <circle
       r="1.5"
       cy="16.5"
       cx="2.5"
       id="circle4178"
       style="opacity:1;fill:url(#radialGradient4180);fill-opacity:1;stroke:none;stroke-width:1;stroke-miterlimit:4;stroke-dasharray:none;stroke-opacity:1" />
    <g
       transform="translate(-4.3210786e-8,6)"
       id="g4214">
      <path
         d="M 15.5,14.214902 13.4616,12.165401 15.42302,10.018328 14.00911,8.688406 11.99054,10.734441 9.93106,8.688406 8.46,10.067245 10.51948,12.156656 8.46,14.212702 9.93106,15.644927 11.98815,13.496589 14.05003,15.644927 15.5,14.214902 Z"
         id="text1314"
         style="font-style:normal;font-variant:normal;font-weight:bold;font-stretch:normal;font-size:59.90107727px;line-height:125%;font-family:'Bitstream Vera Sans';text-align:start;writing-mode:lr-tb;text-anchor:start;fill:url(#linearGradient4811);fill-opacity:1;stroke:url(#linearGradient4813);stroke-width:0.99999994;stroke-linecap:butt;stroke-linejoin:round;stroke-miterlimit:4;stroke-dasharray:none;stroke-opacity:1"
         inkscape:connector-curvature="0" />
      <path
         d="M 14.01392,10.098118 12.00768,12.147474 9.91553,10.100071"
         id="path7076"
         style="font-style:normal;font-variant:normal;font-weight:bold;font-stretch:normal;font-size:59.90107727px;line-height:125%;font-family:'Bitstream Vera Sans';text-align:start;writing-mode:lr-tb;text-anchor:start;opacity:0.5;fill:none;stroke:url(#linearGradient4808);stroke-width:0.99999994;stroke-linecap:square;stroke-linejoin:miter;stroke-miterlimit:4;stroke-dasharray:none;stroke-opacity:1"
         inkscape:connector-curvature="0" />
      <path
         d="m 14.3566,14.622087 -1.66668,-1.887606 m -1.42902,0.08076 -1.73943,1.713246"
         id="path3165"
         style="font-style:normal;font-variant:normal;font-weight:bold;font-stretch:normal;font-size:59.90107727px;line-height:125%;font-family:'Bitstream Vera Sans';text-align:start;writing-mode:lr-tb;text-anchor:start;opacity:0.4;fill:none;stroke:url(#linearGradient4805);stroke-width:0.99999994;stroke-linecap:butt;stroke-linejoin:miter;stroke-miterlimit:4;stroke-dasharray:none;stroke-opacity:1"
         inkscape:connector-curvature="0" />
    </g>
  </g>
</svg>
