<?xml version="1.0" encoding="UTF-8" standalone="no"?>
<svg
   xmlns:dc="http://purl.org/dc/elements/1.1/"
   xmlns:cc="http://creativecommons.org/ns#"
   xmlns:rdf="http://www.w3.org/1999/02/22-rdf-syntax-ns#"
   xmlns:svg="http://www.w3.org/2000/svg"
   xmlns="http://www.w3.org/2000/svg"
   xmlns:sodipodi="http://sodipodi.sourceforge.net/DTD/sodipodi-0.dtd"
   xmlns:inkscape="http://www.inkscape.org/namespaces/inkscape"
   viewBox="0 0 16 16"
   id="svg2"
   version="1.1"
   inkscape:version="0.91 r13725"
   sodipodi:docname="sc_symbolshapes.right-brace.svg"><metadata
   id="metadata10">
  <rdf:RDF>
    <cc:Work
       rdf:about="">
      <dc:format>image/svg+xml</dc:format>
      <dc:type
         rdf:resource="http://purl.org/dc/dcmitype/StillImage" />
    </cc:Work>
  </rdf:RDF>
</metadata>
<defs
   id="defs8" />
<sodipodi:namedview
   pagecolor="#ffffff"
   bordercolor="#666666"
   borderopacity="1"
   objecttolerance="10"
   gridtolerance="10"
   guidetolerance="10"
   inkscape:pageopacity="0"
   inkscape:pageshadow="2"
   inkscape:window-width="2560"
   inkscape:window-height="1375"
   id="namedview6"
   showgrid="false"
   inkscape:zoom="14.75"
   inkscape:cx="-1.8983051"
   inkscape:cy="8"
   inkscape:window-x="0"
   inkscape:window-y="36"
   inkscape:window-maximized="1"
   inkscape:current-layer="svg2" />

     /&gt;
 <path
   style="fill:#ce5c00;fill-opacity:1"
   d="M 7,0 7,1 8,1 C 8.552224,1 9,1.4477014 9,2 L 9,5.71875 9,6 9,7 C 9,7.382499 9.139285,7.7350257 9.375,8 9.139285,8.2649743 9,8.617501 9,9 l 0,1 0,1 0,3 c 0,0.552299 -0.447716,1 -1,1 l -1,0 0,1 1,0 c 1.104569,0 2,-0.895403 2,-2 l 0,-3 0,-1 0,-1 c 0,-0.2761493 0.223858,-0.5 0.5,-0.5 l 0.5,0 0,-1 -0.5,0 C 10.223858,7.5 10,7.2761493 10,7 L 10,6 10,2 C 10,0.8954778 9.177094,0 8,0 Z"
   id="path4"
   inkscape:connector-curvature="0"
   sodipodi:nodetypes="ccssccscsccssccssccssccsscssc" />
</svg>
