<?xml version="1.0" encoding="UTF-8" standalone="no"?>
<svg
   xmlns:dc="http://purl.org/dc/elements/1.1/"
   xmlns:cc="http://creativecommons.org/ns#"
   xmlns:rdf="http://www.w3.org/1999/02/22-rdf-syntax-ns#"
   xmlns:svg="http://www.w3.org/2000/svg"
   xmlns="http://www.w3.org/2000/svg"
   xmlns:sodipodi="http://sodipodi.sourceforge.net/DTD/sodipodi-0.dtd"
   xmlns:inkscape="http://www.inkscape.org/namespaces/inkscape"
   viewBox="0 0 16 16"
   id="svg2"
   version="1.1"
   inkscape:version="0.91 r13725"
   sodipodi:docname="sc_starshapes.star24.svg"><metadata
   id="metadata10">
  <rdf:RDF>
    <cc:Work
       rdf:about="">
      <dc:format>image/svg+xml</dc:format>
      <dc:type
         rdf:resource="http://purl.org/dc/dcmitype/StillImage" />
    </cc:Work>
  </rdf:RDF>
</metadata>
<defs
   id="defs8" />
<sodipodi:namedview
   pagecolor="#ffffff"
   bordercolor="#666666"
   borderopacity="1"
   objecttolerance="10"
   gridtolerance="10"
   guidetolerance="10"
   inkscape:pageopacity="0"
   inkscape:pageshadow="2"
   inkscape:window-width="2560"
   inkscape:window-height="1375"
   id="namedview6"
   showgrid="false"
   inkscape:zoom="29.5"
   inkscape:cx="2.2034314"
   inkscape:cy="11.820914"
   inkscape:window-x="0"
   inkscape:window-y="36"
   inkscape:window-maximized="1"
   inkscape:current-layer="svg2" />


     /&gt;
 <path
   style="fill:#e9e9e9;fill-opacity:1;stroke:#8c8c8c;stroke-width:1.03206706;stroke-linejoin:round;stroke-opacity:1"
   d="M 7.9999999,0.51569365 7.4932502,4.5601258 6.0509628,0.8075598 6.5577124,4.8102968 4.2578488,1.558073 5.7001362,5.3106389 2.6986191,2.8506237 4.9984828,6.0611522 1.4902161,4.5184306 4.5307139,6.9784461 0.78856274,6.4364088 4.2968295,7.9791303 0.51569755,8.5211678 4.2968295,9.0632051 0.78856274,10.564232 4.5307139,10.063889 1.4902161,12.523906 4.9984828,10.939488 2.6986191,14.191713 5.7001362,11.690001 4.2578488,15.484263 6.5577124,12.190344 c 0,0 1.6396275,-2.3257103 1.6396275,-2.3349306 l 5.3379251,0 L 11.70317,9.0632051 15.484302,8.5211678 11.70317,7.9791303 15.211436,6.4364088 11.430305,6.9784461 14.470802,4.5184306 10.962536,6.0611522 13.30138,2.8506237 10.260883,5.3106389 11.742151,1.558073 9.4422878,4.8102968 9.9100567,0.8075598 8.50675,4.5601258 Z"
   id="path4"
   inkscape:connector-curvature="0"
   sodipodi:nodetypes="cccccccccccccccccccccccccccccccccccccc" />
<text
   xml:space="preserve"
   style="font-style:normal;font-weight:normal;font-size:8.31371975px;line-height:125%;font-family:sans-serif;letter-spacing:0px;word-spacing:0px;opacity:1;fill:#ce5c00;fill-opacity:1;stroke:none;stroke-width:0.55728531;stroke-linecap:butt;stroke-linejoin:round;stroke-miterlimit:4;stroke-dasharray:none;stroke-opacity:1"
   x="6.5732422"
   y="16.053705"
   id="text4995-5-2"
   sodipodi:linespacing="125%"
   transform="scale(1.0033566,0.99665463)"><tspan
     sodipodi:role="line"
     id="tspan4997-3-7"
     x="6.5732422"
     y="16.053705"
     style="font-style:normal;font-variant:normal;font-weight:bold;font-stretch:normal;font-family:'Noto Sans';-inkscape-font-specification:'Noto Sans Bold';fill:#ce5c00;fill-opacity:1;stroke:none;stroke-width:0.55728531;stroke-linejoin:round;stroke-miterlimit:4;stroke-dasharray:none;stroke-opacity:1">24</tspan></text>
</svg>
