<?xml version="1.0" encoding="UTF-8" standalone="no"?>
<svg
   xmlns:dc="http://purl.org/dc/elements/1.1/"
   xmlns:cc="http://creativecommons.org/ns#"
   xmlns:rdf="http://www.w3.org/1999/02/22-rdf-syntax-ns#"
   xmlns:svg="http://www.w3.org/2000/svg"
   xmlns="http://www.w3.org/2000/svg"
   xmlns:sodipodi="http://sodipodi.sourceforge.net/DTD/sodipodi-0.dtd"
   xmlns:inkscape="http://www.inkscape.org/namespaces/inkscape"
   viewBox="0 0 16 16"
   id="svg2"
   version="1.1"
   inkscape:version="0.91 r13725"
   sodipodi:docname="sc_starshapes.horizontal-scroll.svg"><metadata
   id="metadata10">
  <rdf:RDF>
    <cc:Work
       rdf:about="">
      <dc:format>image/svg+xml</dc:format>
      <dc:type
         rdf:resource="http://purl.org/dc/dcmitype/StillImage" />
    </cc:Work>
  </rdf:RDF>
</metadata>
<defs
   id="defs8" />
<sodipodi:namedview
   pagecolor="#ffffff"
   bordercolor="#666666"
   borderopacity="1"
   objecttolerance="10"
   gridtolerance="10"
   guidetolerance="10"
   inkscape:pageopacity="0"
   inkscape:pageshadow="2"
   inkscape:window-width="2560"
   inkscape:window-height="1375"
   id="namedview6"
   showgrid="true"
   inkscape:object-nodes="true"
   inkscape:zoom="29.5"
   inkscape:cx="-1.4147438"
   inkscape:cy="8.5986828"
   inkscape:window-x="0"
   inkscape:window-y="36"
   inkscape:window-maximized="1"
   inkscape:current-layer="svg2">
  <inkscape:grid
     type="xygrid"
     id="grid4146" />
</sodipodi:namedview>

     /&gt;
 <path
   style="fill:#e9e9e9;fill-opacity:1;stroke:#8c8c8c;stroke-opacity:1"
   d="m 13.625,0.5 c -1.035563,0 -1.875,0.9644375 -1.875,2 l -7.5,0 -1.875,0 C 1.3362406,2.5 0.5,3.21125 0.5,4.25 l 0,9.25 c 0,1.035563 0.8394375,2 1.875,2 1.0355625,0 1.875,-0.964437 1.875,-2 l 8.4375,0 0.9375,0 c 1.03876,0 1.875,-0.71125 1.875,-1.75 l 0,-9.25 c 0,-1.0355625 -0.839438,-2 -1.875,-2 z"
   id="path4"
   inkscape:connector-curvature="0"
   sodipodi:nodetypes="sccssssccssss" />
<path
   style="fill:#ffffff;fill-opacity:1;stroke:none;stroke-width:1;stroke-linejoin:round;stroke-miterlimit:0;stroke-dasharray:none;stroke-opacity:1"
   d="M 13.751953 0.98046875 C 12.926532 0.96889079 12.0363 1.875 12.263672 3 L 2 3 C 1.5123693 3.1733862 1.144598 3.466003 1.0175781 4 L 1 4 L 1 12 L 1 12.308594 L 1 13 C 0.68031521 15.194741 3.7097362 16.253551 3.7460938 13 L 14 13 C 14.817356 12.677923 14.836264 12.337277 15 12 L 15 3 C 14.996456 1.5540067 14.393947 0.98947383 13.751953 0.98046875 z M 13 3 L 14 3 L 14 4 L 14 12 L 3 12 L 3 13 L 2 13 L 2 12 L 2 10 L 2 4 L 13 4 L 13 3 z "
   id="rect4148" />
</svg>
