<?xml version="1.0" encoding="UTF-8" standalone="no"?>
<svg
   xmlns:dc="http://purl.org/dc/elements/1.1/"
   xmlns:cc="http://creativecommons.org/ns#"
   xmlns:rdf="http://www.w3.org/1999/02/22-rdf-syntax-ns#"
   xmlns:svg="http://www.w3.org/2000/svg"
   xmlns="http://www.w3.org/2000/svg"
   xmlns:xlink="http://www.w3.org/1999/xlink"
   xmlns:sodipodi="http://sodipodi.sourceforge.net/DTD/sodipodi-0.dtd"
   xmlns:inkscape="http://www.inkscape.org/namespaces/inkscape"
   viewBox="0 0 16 16"
   id="svg2"
   version="1.1"
   inkscape:version="0.91 r13725"
   sodipodi:docname="sc_thesaurusdialog.svg">
  <metadata
     id="metadata12">
    <rdf:RDF>
      <cc:Work
         rdf:about="">
        <dc:format>image/svg+xml</dc:format>
        <dc:type
           rdf:resource="http://purl.org/dc/dcmitype/StillImage" />
      </cc:Work>
    </rdf:RDF>
  </metadata>
  <defs
     id="defs10">
    <linearGradient
       gradientTransform="matrix(0.23432741,0,0,0.49377342,0.8357149,0.14412858)"
       gradientUnits="userSpaceOnUse"
       xlink:href="#linearGradient3108"
       id="linearGradient3206"
       y2="0.065301567"
       x2="54.887218"
       y1="0.065301567"
       x1="5.2122574" />
    <linearGradient
       id="linearGradient3108">
      <stop
         offset="0"
         style="stop-color:#9b876c;stop-opacity:1"
         id="stop3110" />
      <stop
         offset="0.92477626"
         style="stop-color:#9b876c;stop-opacity:1"
         id="stop3112" />
      <stop
         offset="0.93581694"
         style="stop-color:#c2c2c2;stop-opacity:1"
         id="stop3114" />
      <stop
         offset="1"
         style="stop-color:#c2c2c2;stop-opacity:1"
         id="stop3116" />
    </linearGradient>
    <linearGradient
       gradientTransform="matrix(0.40000003,0,0,0.05128184,0.7000002,0.2692384)"
       gradientUnits="userSpaceOnUse"
       xlink:href="#linearGradient3707-319-631-407-324-616-674-812-821-107-178-392-400-6-2"
       id="linearGradient3087"
       y2="3.8990016"
       x2="24"
       y1="44"
       x1="24" />
    <linearGradient
       id="linearGradient3707-319-631-407-324-616-674-812-821-107-178-392-400-6-2">
      <stop
         offset="0"
         style="stop-color:#272727;stop-opacity:1"
         id="stop5440-4-8" />
      <stop
         offset="1"
         style="stop-color:#454545;stop-opacity:1"
         id="stop5442-3-8" />
    </linearGradient>
    <radialGradient
       gradientTransform="matrix(0,0.86935046,-0.93513174,0,14.716379,-18.896953)"
       gradientUnits="userSpaceOnUse"
       xlink:href="#linearGradient8967"
       id="radialGradient3080"
       fy="6.6475959"
       fx="24.501682"
       r="17.49832"
       cy="6.6475959"
       cx="24.501682" />
    <linearGradient
       id="linearGradient8967">
      <stop
         offset="0"
         style="stop-color:#ddcfbd;stop-opacity:1"
         id="stop8969" />
      <stop
         offset="1"
         style="stop-color:#856f50;stop-opacity:1"
         id="stop8971" />
    </linearGradient>
    <linearGradient
       gradientTransform="matrix(0.20583462,0,0,0.23348985,1.9132923,1.3584452)"
       gradientUnits="userSpaceOnUse"
       xlink:href="#linearGradient3319"
       id="linearGradient3082"
       y2="61.481758"
       x2="32.901409"
       y1="4.6481781"
       x1="32.901409" />
    <linearGradient
       id="linearGradient3319">
      <stop
         offset="0"
         style="stop-color:#a79071;stop-opacity:1"
         id="stop3321" />
      <stop
         offset="1"
         style="stop-color:#6f5d45;stop-opacity:1"
         id="stop3323" />
    </linearGradient>
    <radialGradient
       gradientTransform="matrix(0,0.77899668,-0.98890282,-1.4352093e-8,18.656045,-3.1449332)"
       gradientUnits="userSpaceOnUse"
       xlink:href="#linearGradient2867-449-88-871-390-598-476-591-434-148-57-177-641-289-620-227-114-444-680-744-8"
       id="radialGradient3075"
       fy="8.4497671"
       fx="7.4956832"
       r="19.99999"
       cy="8.4497671"
       cx="7.4956832" />
    <linearGradient
       id="linearGradient2867-449-88-871-390-598-476-591-434-148-57-177-641-289-620-227-114-444-680-744-8">
      <stop
         offset="0"
         style="stop-color:#5f5f5f;stop-opacity:1"
         id="stop5430-8" />
      <stop
         offset="0.26238"
         style="stop-color:#4f4f4f;stop-opacity:1"
         id="stop5432-3" />
      <stop
         offset="0.704952"
         style="stop-color:#3b3b3b;stop-opacity:1"
         id="stop5434-1" />
      <stop
         offset="1"
         style="stop-color:#2b2b2b;stop-opacity:1"
         id="stop5436-8" />
    </linearGradient>
    <linearGradient
       gradientTransform="matrix(0.40000006,0,0,0.33333333,0.7000001,1)"
       gradientUnits="userSpaceOnUse"
       xlink:href="#linearGradient3707-319-631-407-324-616-674-812-821-107-178-392-400-6-2"
       id="linearGradient3077"
       y2="3.8990016"
       x2="24"
       y1="44"
       x1="24" />
    <linearGradient
       gradientTransform="matrix(0.24324326,0,0,0.29729733,2.1621626,1.8648681)"
       gradientUnits="userSpaceOnUse"
       xlink:href="#linearGradient3098"
       id="linearGradient3072"
       y2="40.818165"
       x2="23.99999"
       y1="7.1818061"
       x1="23.99999" />
    <linearGradient
       id="linearGradient3098">
      <stop
         offset="0"
         style="stop-color:#ffffff;stop-opacity:1"
         id="stop3100" />
      <stop
         offset="0"
         style="stop-color:#ffffff;stop-opacity:0.23529412"
         id="stop3102" />
      <stop
         offset="1"
         style="stop-color:#ffffff;stop-opacity:0.15686275"
         id="stop3104" />
      <stop
         offset="1"
         style="stop-color:#ffffff;stop-opacity:0.39215687"
         id="stop3106" />
    </linearGradient>
    <radialGradient
       gradientTransform="matrix(0,0.44731149,-0.37711817,0,12.188272,0.29143614)"
       gradientUnits="userSpaceOnUse"
       xlink:href="#linearGradient2867-449-88-871-390-598-476-591-434-148-57-177-641-289-620-227-114-444-680-744-8"
       id="radialGradient3140"
       fy="8.4497671"
       fx="10.90426"
       r="19.99999"
       cy="8.4497671"
       cx="10.90426" />
    <linearGradient
       gradientTransform="matrix(0.29830664,0,0,0.31813165,1.8423198,1.0179439)"
       gradientUnits="userSpaceOnUse"
       xlink:href="#linearGradient3707-319-631-407-324-616-674-812-821-107-178-392-400-6-2"
       id="linearGradient3143"
       y2="3.8990016"
       x2="24"
       y1="44"
       x1="24" />
  </defs>
  <sodipodi:namedview
     pagecolor="#ffffff"
     bordercolor="#666666"
     borderopacity="1"
     objecttolerance="10"
     gridtolerance="10"
     guidetolerance="10"
     inkscape:pageopacity="0"
     inkscape:pageshadow="2"
     inkscape:window-width="2560"
     inkscape:window-height="1375"
     id="namedview8"
     showgrid="false"
     inkscape:zoom="14.75"
     inkscape:cx="-1.8983051"
     inkscape:cy="8"
     inkscape:window-x="0"
     inkscape:window-y="36"
     inkscape:window-maximized="1"
     inkscape:current-layer="svg2" />
  <path
     inkscape:connector-curvature="0"
     d="M 13.491301,2.3043765 C 13.39467,1.6493143 13.45489,1.1334487 13.401512,0.50869865 l -9.8928133,0 0.058388,1.98260255"
     id="path2723"
     style="display:inline;fill:#e9e9e9;fill-opacity:1;stroke:url(#linearGradient3206);stroke-width:1.01739752;stroke-linecap:butt;stroke-linejoin:round;stroke-miterlimit:0;stroke-dasharray:none;stroke-dashoffset:0;stroke-opacity:1" />
  <path
     inkscape:connector-curvature="0"
     d="m 4.4999999,2.4999999 -1.6000002,0 c -0.2283392,0 -0.3999998,-0.021171 -0.3999998,-0.048786 l 0,-1.3982157 c 0,-0.44396131 0.2236128,-0.55299826 0.5163576,-0.55299826 l 1.4836424,0"
     id="rect5505-21-3-9"
     style="color:#000000;display:inline;overflow:visible;visibility:visible;fill:#e9e9e9;fill-opacity:1;fill-rule:nonzero;stroke:url(#linearGradient3087);stroke-width:0.99999988;stroke-linecap:round;stroke-linejoin:round;stroke-miterlimit:4;stroke-dasharray:none;stroke-dashoffset:0;stroke-opacity:1;marker:none;enable-background:accumulate" />
  <rect
     width="9.9809589"
     height="12.980959"
     x="3.5095205"
     y="2.5095203"
     id="rect2719"
     style="display:inline;fill:url(#radialGradient3080);fill-opacity:1;stroke:url(#linearGradient3082);stroke-width:1.01904118;stroke-linecap:round;stroke-linejoin:round;stroke-miterlimit:0;stroke-dasharray:none;stroke-dashoffset:0;stroke-opacity:1" />
  <path
     inkscape:connector-curvature="0"
     d="m 4.4999999,2.4999999 c 0,0 0,9.0394761 0,13.0000001 L 2.9,15.5 c -0.2283394,0 -0.4000001,-0.137593 -0.4000001,-0.317074 l 0,-12.6829261 z"
     id="rect5505-21-3"
     style="color:#000000;display:inline;overflow:visible;visibility:visible;fill:url(#radialGradient3075);fill-opacity:1;fill-rule:nonzero;stroke:url(#linearGradient3077);stroke-width:0.99999994;stroke-linecap:round;stroke-linejoin:round;stroke-miterlimit:4;stroke-dasharray:none;stroke-dashoffset:0;stroke-opacity:1;marker:none;enable-background:accumulate" />
  <rect
     width="9"
     height="11"
     x="3.5"
     y="3.4999998"
     id="rect6741-0"
     style="opacity:0.5;fill:none;stroke:url(#linearGradient3072);stroke-width:1;stroke-linecap:round;stroke-linejoin:miter;stroke-miterlimit:4;stroke-dasharray:none;stroke-dashoffset:0;stroke-opacity:1" />
  <path
     inkscape:connector-curvature="0"
     d="m 8.9710583,6.0000284 c -0.2159651,-0.00127 -0.4055978,0.040109 -0.534671,0.125864 -0.1665228,0.1106434 -0.239943,0.1246866 -0.2864322,0.048409 -0.044482,-0.072976 -0.084931,-0.064823 -0.124119,0.038729 -0.033149,0.087579 -0.1024181,0.1275553 -0.181407,0.096819 -0.075317,-0.029304 -0.1061946,-0.019869 -0.076378,0.02904 0.028639,0.04701 0.014633,0.087139 -0.028639,0.087139 -0.043283,0 -0.1819121,0.1483001 -0.305527,0.3291829 -0.1970531,0.2883413 -0.2291962,0.4201239 -0.2291452,1.0262749 2.75e-5,0.380312 0.037584,0.7506221 -0.076379,0.7745478 -0.066839,0.014035 -0.060473,0.2783707 -0.028639,0.5518663 0.041638,0.357641 0.1038082,0.532847 0.2768824,0.697091 0.269583,0.2558197 0.5155765,0.6986477 0.5155765,0.9391397 0,0.32944 -0.7581257,0.905997 -1.8921808,1.432399 l 0,0.823471 5.999433,0 L 12,12.090762 c -0.941596,-0.43428 -1.720879,-1.035188 -1.720879,-1.346633 0,-0.239911 0.236715,-0.683577 0.506027,-0.9391394 0.173078,-0.164244 0.244805,-0.33945 0.286432,-0.697091 C 11.1034,8.834403 11.10771,8.5778576 11.04294,8.5560323 10.95368,8.5259653 10.957,8.1586772 10.957,7.7814845 10.956999,7.2408093 10.92307,7.0396007 10.785142,6.8133007 10.510695,6.3629988 9.6189783,6.0039092 8.9710775,6.0000245 Z"
     id="rect2382-1"
     style="display:inline;overflow:visible;visibility:visible;opacity:0.4;fill:#ffffff;fill-opacity:1;fill-rule:evenodd;stroke:none;stroke-width:1.00213277;marker:none;enable-background:accumulate" />
  <path
     inkscape:connector-curvature="0"
     d="M 8.9737123,5.5134933 C 8.4892707,5.4815557 8.0166377,5.7619614 7.7348192,6.1418135 7.4606051,6.6316037 7.6845211,7.2150578 7.5133194,7.7320755 7.4091859,8.1022001 7.5120771,8.4968527 7.7853646,8.7657414 8.0179414,9.0564834 8.304373,9.4353533 8.1449313,9.8259351 7.9141626,10.265576 7.4543545,10.522958 7.0355887,10.757543 c -0.271372,0.109443 -0.7940598,0.383962 -0.4501728,0.709984 0.1560121,0.101982 0.3382908,-0.01026 0.5123215,0.02257 1.4674209,0 2.9348416,0 4.4022626,0 0,-0.176524 0,-0.353049 0,-0.529573 C 10.940747,10.65933 10.309059,10.36914 9.9946665,9.7829775 9.8880972,9.322491 10.216137,8.9190673 10.503163,8.5993208 10.785971,8.2429597 10.672789,7.7730549 10.574049,7.3747487 10.53229,6.9340822 10.676066,6.4136995 10.344632,6.0525856 9.9862929,5.6922784 9.4684066,5.5454885 8.9737123,5.5134933 Z"
     id="path3107"
     style="color:#000000;display:inline;overflow:visible;visibility:visible;fill:url(#radialGradient3140);fill-opacity:1;fill-rule:nonzero;stroke:url(#linearGradient3143);stroke-width:0.99999976;stroke-linecap:round;stroke-linejoin:round;stroke-miterlimit:4;stroke-dasharray:none;stroke-dashoffset:0;stroke-opacity:1;marker:none;enable-background:accumulate" />
  <g
     id="g4269"
     transform="matrix(0.79859265,0,0,0.80150201,3.2225176,3.1759678)">
    <path
       id="path3688-9"
       d="m 10.212891,7.0820312 c -0.04519,0.0135 -0.08814,0.041581 -0.121094,0.080078 -0.06594,0.076995 -0.08053,0.1832 -0.03516,0.265625 l 1.208984,2.3007812 c 0.108546,0.2062348 0.03449,0.4808766 -0.167969,0.7675786 -0.204399,0.289418 -0.536596,0.584777 -0.955078,0.826172 -0.4185718,0.241455 -0.831725,0.383321 -1.173828,0.410156 -0.340083,0.0267 -0.6040676,-0.05687 -0.7128906,-0.263672 L 7.0410156,9.1542969 c -0.0339,-0.0642 -0.09729,-0.1039825 -0.171875,-0.109375 -0.07454,-0.00525 -0.150637,0.026084 -0.203125,0.083984 -0.02829,0.03015 -0.049627,0.064568 -0.060547,0.1035157 -0.303252,1.1099394 -0.2389549,2.3672704 0.2050781,3.2109374 0.606415,1.152179 1.9540853,1.653991 3.3085943,1.355469 0.540927,0.160605 1.251004,0.536592 2.076171,1.357422 L 13.060547,16 16,16 16,14.740234 14.316406,13.044922 C 13.572541,12.304973 13.193695,11.657656 13.007812,11.142578 13.221566,10.409506 13.181567,9.6404934 12.830078,8.9726562 12.386217,8.129357 11.407565,7.4089967 10.351562,7.0839844 c -0.04528,-0.014813 -0.09349,-0.015453 -0.138671,-0.00195 z"
       style="display:inline;fill:#9cde4a;fill-opacity:1;fill-rule:evenodd;stroke:none;stroke-width:0.86159956;stroke-linecap:round;stroke-linejoin:round;stroke-miterlimit:4;stroke-dasharray:none;stroke-dashoffset:0.3612;stroke-opacity:1;enable-background:new"
       inkscape:connector-curvature="0" />
    <path
       id="path3688"
       d="M 10.285156,6.6425781 C 10.086369,6.6415225 9.8951134,6.7295862 9.765625,6.8808594 9.5933322,7.0820375 9.5383404,7.3779763 9.6796875,7.6347656 l 1.2031245,2.2949219 c -0.0023,-0.00442 0.01933,0.097385 -0.136718,0.3183595 -0.157218,0.222612 -0.446048,0.486409 -0.8183596,0.701172 -0.3748111,0.216211 -0.7420608,0.333742 -0.9941406,0.353515 -0.126899,0.01 -0.2197817,-0.0059 -0.2636719,-0.02148 -0.040774,-0.01444 -0.033292,-0.01333 -0.03125,-0.01172 l -0.00195,-0.002 L 7.421875,8.9550781 a 0.43084286,0.43084286 0 0 0 0,-0.00195 C 7.3202449,8.7606544 7.1114407,8.6304933 6.9003906,8.6152344 6.6914331,8.6005171 6.4941188,8.6815232 6.3515625,8.8359375 l -0.00195,0 c -0.00105,0.00114 -0.00287,8.084e-4 -0.00391,0.00195 a 0.43084286,0.43084286 0 0 0 -0.09375,0.171875 c -0.018705,0.037435 -0.048792,0.065498 -0.060547,0.1074219 a 0.43084286,0.43084286 0 0 0 -0.00195,0.00195 c -0.3291137,1.2045966 -0.2779677,2.5408016 0.2402344,3.5253906 0.6830795,1.297841 2.1727361,1.86472 3.6406241,1.595703 -0.02342,-0.0076 -0.05165,-0.02064 -0.074218,-0.02734 l 0.214845,0.0078 c -0.04674,0.0103 -0.09382,0.01095 -0.140626,0.01953 0.458333,0.149495 1.074387,0.478698 1.820313,1.220704 a 0.43084286,0.43084286 0 0 0 0.0039,0.0039 L 12.443359,16 l 1.232422,0 -1.179687,-1.152344 0.002,0.0039 c -0.866331,-0.861724 -1.638151,-1.281441 -2.255859,-1.464843 a 0.43084286,0.43084286 0 0 0 -0.216797,-0.0078 C 8.8287517,13.642622 7.6993739,13.207318 7.1914062,12.242188 6.890712,11.670864 6.8436604,10.788462 6.9628906,9.9316406 L 7.875,11.669922 c 0.1099254,0.2089 0.3062061,0.3531 0.5058594,0.423828 0.1996533,0.07073 0.4079096,0.08314 0.6210937,0.06641 0.432126,-0.0339 0.8931357,-0.198144 1.3554689,-0.464844 0.464652,-0.268027 0.840217,-0.592994 1.091797,-0.949218 0.248878,-0.352429 0.416682,-0.7999107 0.197265,-1.2167971 l -0.9375,-1.7832031 c 0.752271,0.3458934 1.438028,0.8516135 1.740235,1.4257812 0.294066,0.558733 0.331576,1.210088 0.144531,1.851563 a 0.43084286,0.43084286 0 0 0 0.0078,0.265624 c 0.210302,0.582742 0.629285,1.283786 1.410157,2.060547 l 1.988281,2 0,-1.222656 -1.378906,-1.386719 a 0.43084286,0.43084286 0 0 0 -0.002,-0.002 c -0.68794,-0.68435 -1.009234,-1.25038 -1.175723,-1.693316 C 13.617907,10.282323 13.584464,9.4811975 13.210938,8.7714844 12.693506,7.78841 11.637452,7.030184 10.484375,6.6738281 10.418412,6.6524765 10.351419,6.64293 10.285156,6.6425781 Z"
       style="color:#000000;font-style:normal;font-variant:normal;font-weight:normal;font-stretch:normal;font-size:medium;line-height:normal;font-family:sans-serif;text-indent:0;text-align:start;text-decoration:none;text-decoration-line:none;text-decoration-style:solid;text-decoration-color:#000000;letter-spacing:normal;word-spacing:normal;text-transform:none;direction:ltr;block-progression:tb;writing-mode:lr-tb;baseline-shift:baseline;text-anchor:start;white-space:normal;clip-rule:nonzero;display:inline;overflow:visible;visibility:visible;opacity:1;isolation:auto;mix-blend-mode:normal;color-interpolation:sRGB;color-interpolation-filters:linearRGB;solid-color:#000000;solid-opacity:1;fill:#5ca12a;fill-opacity:1;fill-rule:evenodd;stroke:none;stroke-width:0.86159956;stroke-linecap:round;stroke-linejoin:round;stroke-miterlimit:4;stroke-dasharray:none;stroke-dashoffset:0.3612;stroke-opacity:1;color-rendering:auto;image-rendering:auto;shape-rendering:auto;text-rendering:auto;enable-background:new"
       inkscape:connector-curvature="0" />
  </g>
</svg>
