<svg height="24" viewBox="0 0 6.3499999 6.3500002" width="24" xmlns="http://www.w3.org/2000/svg" xmlns:xlink="http://www.w3.org/1999/xlink"><linearGradient id="a" gradientTransform="matrix(.02565158 0 0 .055299 -294.37533 -30.388306)" gradientUnits="userSpaceOnUse" x1="399.77466" x2="399.77466" y1="1164.6696" y2="549.06134"><stop offset="0" stop-color="#b4b4b6"/><stop offset=".5" stop-color="#9c9ca1"/><stop offset="1" stop-color="#cdcdd1"/></linearGradient><linearGradient id="b" gradientTransform="matrix(.21887413 0 0 .41157411 266.13654 -43.274297)" gradientUnits="userSpaceOnUse" x1="173.2455" x2="-102.13699" y1="70.857895" y2="70.857895"><stop offset="0" stop-color="#fff"/><stop offset=".42597079" stop-color="#fff"/><stop offset=".5892781" stop-color="#f1f1f1"/><stop offset=".80219781" stop-color="#eaeaea"/><stop offset="1" stop-color="#dfdfdf"/></linearGradient><g transform="matrix(.1875 0 0 .1875 0 -49.337498)"><rect fill="url(#a)" height="31.04425" rx=".755952" ry=".732692" transform="rotate(-90)" width="23.988752" x="-292.76669" y="1.411102"/><rect fill="url(#b)" fill-rule="evenodd" height="28.222046" rx=".463021" transform="rotate(90)" width="21.166548" x="270.18906" y="-31.04425"/><g fill="#2e3436" fill-opacity=".580882"><path d="m16.933228 273.01126h12.699921v1.4111h-12.699921z"/><path d="m16.933228 275.83347h12.699921v1.4111h-12.699921z"/><path d="m16.933228 278.65567h12.699921v1.4111h-12.699921z"/><path d="m16.933228 281.47787h12.699921v1.4111h-12.699921z"/><path d="m16.933228 284.30008h12.699921v1.4111h-12.699921z"/><path d="m16.933228 287.12228h12.699921v1.4111h-12.699921z"/><path d="m4.233307 273.01126h11.288818v1.4111h-11.288818z"/><path d="m4.233307 275.83347h11.288818v1.4111h-11.288818z"/><path d="m4.233307 278.65567h11.288818v1.4111h-11.288818z"/><path d="m4.233307 281.47787h11.288818v1.4111h-11.288818z"/><path d="m4.233307 284.30008h11.288818v1.4111h-11.288818z"/><path d="m4.233307 287.12228h11.288818v1.4111h-11.288818z"/></g></g></svg>