<svg height="24" viewBox="0 0 6.3499999 6.3500002" width="24" xmlns="http://www.w3.org/2000/svg" xmlns:xlink="http://www.w3.org/1999/xlink"><linearGradient id="a" gradientTransform="matrix(.02565158 0 0 .055299 -298.60862 -31.799408)" gradientUnits="userSpaceOnUse" x1="399.77466" x2="399.77466" y1="1164.6696" y2="549.06134"><stop offset="0" stop-color="#b4b4b6"/><stop offset=".5" stop-color="#9c9ca1"/><stop offset="1" stop-color="#cdcdd1"/></linearGradient><linearGradient id="b" gradientTransform="matrix(.21887413 0 0 .41157411 270.36983 -41.863195)" gradientUnits="userSpaceOnUse" x1="173.2455" x2="-102.13699" y1="70.857895" y2="70.857895"><stop offset="0" stop-color="#fff"/><stop offset=".42597079" stop-color="#fff"/><stop offset=".5892781" stop-color="#f1f1f1"/><stop offset=".80219781" stop-color="#eaeaea"/><stop offset="1" stop-color="#dfdfdf"/></linearGradient><linearGradient id="c" gradientTransform="matrix(-.17042473 0 0 .10007854 34.00097 286.3385)" gradientUnits="userSpaceOnUse" x1="12.131731" x2="7.983612" xlink:href="#d" y1="120.57536" y2="-118.6722"/><linearGradient id="d"><stop offset="0" stop-color="#0968ef"/><stop offset="1" stop-color="#aecffc"/></linearGradient><linearGradient id="e" gradientTransform="matrix(-.17042473 0 0 -.10007854 34.00097 282.26167)" gradientUnits="userSpaceOnUse" x1="12.131731" x2="7.983612" xlink:href="#d" y1="120.57536" y2="-118.6722"/><linearGradient id="f" gradientTransform="matrix(0 -.17042473 .10007854 0 20.382738 272.96073)" gradientUnits="userSpaceOnUse" x1="12.131731" x2="7.983612" xlink:href="#d" y1="120.57536" y2="-118.6722"/><linearGradient id="g" gradientTransform="matrix(0 -.17042473 -.10007854 0 9.25041 272.96073)" gradientUnits="userSpaceOnUse" x1="12.131731" x2="7.983612" xlink:href="#d" y1="120.57536" y2="-118.6722"/><g transform="matrix(.1875 0 0 .1875 0 -49.337498)"><rect fill="url(#a)" height="29.633148" rx=".755952" ry=".732692" transform="rotate(-90)" width="22.577654" x="-295.5889"/><rect fill="url(#b)" fill-rule="evenodd" height="26.810944" rx=".463021" transform="rotate(90)" width="19.755419" x="274.42236" y="-28.222046"/><path d="m30.000178 276.70697 1.229096-1.58327v14.42856h1.408297v-14.42856l1.229096 1.58327v-1.4083l-1.339119-2.28742h-1.188251l-1.339119 2.28742z" fill="url(#e)"/><path d="m30.000178 291.89318 1.229096 1.58327v-12.3119h1.408297v12.3119l1.229096-1.58327v1.4083l-1.339119 2.28742h-1.188251l-1.339119-2.28742z" fill="url(#c)"/><path d="m25.937428 268.95994 1.58327 1.2291h-14.42856v1.40829h14.42856l-1.58327 1.2291h1.4083l2.28742-1.33912v-1.18825l-2.28742-1.33912z" fill="url(#f)"/><path d="m3.6957201 268.95994-1.5832702 1.2291h12.3119001v1.40829h-12.3119001l1.5832702 1.2291h-1.4083001l-2.28742-1.33912v-1.18825l2.28742-1.33912z" fill="url(#g)"/><g fill="#2e3436" fill-opacity=".580882"><path d="m8.466614 281.47787h1.411102v5.64441h-1.411102z"/><path d="m8.466613 280.06677h4.233307v1.4111h-4.233307z"/><path d="m12.699921 281.47787h1.411102v1.4111h-1.411102z"/><path d="m8.466613 287.12228h4.233307v1.4111h-4.233307z"/><path d="m12.699921 284.30008h1.411102v2.82222h-1.411102z"/><path d="m15.522126 280.06677h1.411102v4.23329h-1.411102z"/><path d="m16.933229 280.06677h4.233307v1.4111h-4.233307z"/><path d="m16.933229 282.88898h2.822205v1.4111h-2.822205z"/><path d="m19.755434 284.30008h1.411102v2.82218h-1.411102z"/><path d="m16.933229 287.12228h2.822205v1.4111h-2.822205z"/><path d="m15.522126 285.71118h1.411102v1.4111h-1.411102z"/><path d="m9.877716 282.88898h2.822204v1.4111h-2.822204z"/></g></g></svg>