<svg height="24" viewBox="0 0 6.3499999 6.3500002" width="24" xmlns="http://www.w3.org/2000/svg" xmlns:xlink="http://www.w3.org/1999/xlink"><linearGradient id="a" gradientTransform="matrix(.02565158 0 0 .055299 -294.37533 -30.388306)" gradientUnits="userSpaceOnUse" x1="392.77362" x2="399.77466" xlink:href="#b" y1="855.73938" y2="549.06134"/><linearGradient id="b"><stop offset="0" stop-color="#b4b4b6"/><stop offset=".5" stop-color="#9c9ca1"/><stop offset="1" stop-color="#cdcdd1"/></linearGradient><linearGradient id="c" gradientTransform="matrix(.21887413 0 0 .41157411 266.13654 -43.274297)" gradientUnits="userSpaceOnUse" x1="173.2455" x2="-102.13699" xlink:href="#d" y1="70.857895" y2="70.857895"/><linearGradient id="d"><stop offset="0" stop-color="#fff"/><stop offset=".42597079" stop-color="#fff"/><stop offset=".5892781" stop-color="#f1f1f1"/><stop offset=".80219781" stop-color="#eaeaea"/><stop offset="1" stop-color="#dfdfdf"/></linearGradient><linearGradient id="e" gradientTransform="matrix(.02565158 0 0 .055299 -294.37532 -14.866181)" gradientUnits="userSpaceOnUse" x1="392.77362" x2="399.77466" xlink:href="#b" y1="855.73938" y2="549.06134"/><linearGradient id="f" gradientTransform="matrix(.21887413 0 0 .41157411 266.13653 -58.796422)" gradientUnits="userSpaceOnUse" x1="173.2455" x2="-102.13699" xlink:href="#d" y1="70.857895" y2="70.857895"/><g transform="matrix(.1875 0 0 .1875 0 -49.337498)"><rect fill="url(#a)" height="15.522125" rx=".755952" ry=".732692" transform="rotate(-90)" width="19.755449" x="-289.94449" y="1.411102"/><rect fill="url(#c)" fill-rule="evenodd" height="12.699921" rx=".463021" transform="rotate(90)" width="16.933241" x="271.60016" y="-15.522125"/><g fill="#2e3436" fill-opacity=".580882"><path d="m1.411102 273.01126h15.522125v1.4111h-15.522125z"/><path d="m1.411102 285.71118h15.522125v1.4111h-15.522125z"/><path d="m270.18906-5.644409h19.75542v1.411102h-19.75542z" transform="rotate(90)"/></g><rect fill="url(#e)" height="15.522125" rx=".755952" ry=".732692" transform="rotate(-90)" width="19.755449" x="-289.94449" y="16.933228"/><rect fill="url(#f)" fill-rule="evenodd" height="12.699921" rx=".463021" transform="rotate(90)" width="16.933214" x="271.60016" y="-31.04425"/><g fill="#2e3436" fill-opacity=".580882"><path d="m270.18906-14.111023h19.75543v1.411102h-19.75543z" transform="rotate(90)"/><path d="m16.933228 273.01126h15.522125v1.4111h-15.522125z"/><path d="m16.933228 285.71118h15.522125v1.4111h-15.522125z"/><g transform="rotate(90)"><path d="m270.18906-21.166534h19.75543v1.411102h-19.75543z"/><path d="m270.18906-29.633148h19.75543v1.411102h-19.75543z"/></g></g></g></svg>