<svg viewBox="0 0 24 24" xmlns="http://www.w3.org/2000/svg" xmlns:xlink="http://www.w3.org/1999/xlink"><linearGradient id="a" gradientTransform="translate(-25.830508 -3.59322)" gradientUnits="userSpaceOnUse" x1="14" x2="13.79661" y1="22" y2="2.135593"><stop offset="0" stop-color="#0040dd"/><stop offset="1" stop-color="#007aff"/></linearGradient><linearGradient id="b" gradientTransform="translate(17)" gradientUnits="userSpaceOnUse" x1="3.627119" x2="3.576271" xlink:href="#a" y1="12.381356" y2="9.940678"/><linearGradient id="c" gradientTransform="translate(16.00083 -.985307)" gradientUnits="userSpaceOnUse" x1="5" x2="5" xlink:href="#a" y1="8" y2="2"/><linearGradient id="d" gradientTransform="matrix(-1 0 0 1 24 0)" gradientUnits="userSpaceOnUse" x1="4" x2="4" xlink:href="#a" y1="21" y2="18"/><linearGradient id="e" gradientUnits="userSpaceOnUse" x1="6.810989" x2="6.372622" y1="21.907942" y2="13.732014"><stop offset="0" stop-color="#d70015"/><stop offset="1" stop-color="#ff453a"/></linearGradient><g fill="#48484a"><rect height="1" ry=".5" width="14.999998" x="2" y="2"/><rect height="1" ry=".392136" width="15.000005" x="2" y="10"/><rect height="1" ry=".436441" width="15.000001" x="2" y="18"/><rect height="1" ry=".5" width="8.999999" x="8" y="21"/><rect height="1" ry=".5" width="8.999999" x="8" y="13"/><rect height="1" ry=".5" width="9.000002" x="8" y="5"/><path d="m10.285156 13c-.7554181.318058-1.4017541.637209-1.9863279.957031.0616006.027023.1293719.042969.2011719.042969h3.466797a1.0017867 1.0017867 0 0 0 -.248047-.666016l-.128906-.146484a1.0017867 1.0017867 0 0 0 -.220703-.1875zm-7.8496091 5c-.0302649 0-.0598219.003306-.0878907.009766-.0215426.004957-.0419986.01198-.0625.019531-.0882832.084083-.1698577.173709-.2558593.259765-.0077987.021758-.0143609.043588-.0195313.066407-.0003217.001419-.0016454.002481-.0019531.003906-.0043547.024859-.0078125.050003-.0078125.076172v.128906c0 .241788.193759.435547.4355469.435547h7.7675781c-.2353548-.348388-.4847944-.681389-.7421875-1zm6.0644531 3c-.0390876 0-.0773992.004821-.1132812.013672-.1076462.026554-.1989148.090051-.2675782.173828.2631348.267659.5316919.54031.8007813.8125h2.6718751c-.08749-.345842-.19996-.676798-.326172-1z" fill="#f2f2f7" fill-opacity=".823483"/></g><path d="m2.329707 13.000009-.996655.996652c-.05396.210685-.330065.376944 0 .664435 1.406621.52361 2.502024 1.403626 3.654395 2.325522-1.756168 1.337067-3.038027 2.481865-3.986612 4.318827-.03746.515012 1.198053.835345 1.328872.664435.543366-.545772 2.053816-2.607179 3.322175-3.654392l.42231-.456095c1.339447.890998 2.619021 2.500657 3.896516 3.778269l.664435.664435c-.52369-2.166155-2.08709-4.069132-3.468575-5.450618 1.004354-1.138463 2.467414-1.825543 3.800793-2.854818l-.129566-.147173c-1.809277.742983-2.984962 1.460818-4.313139 2.264356-1.372818-1.103391-2.687023-2.209079-4.194949-3.113835z" fill="url(#e)" stroke-width=".664435"/><path d="m22 11.5a1.5 1.5 0 0 1 -1.5 1.5 1.5 1.5 0 0 1 -1.5-1.5 1.5 1.5 0 0 1 1.5-1.5 1.5 1.5 0 0 1 1.5 1.5z" fill="url(#b)"/><path d="m21 7.0000002h-1.02325l.00083-4.7506416-1.47675.6321374v-.866803l2.368923-1h.131077z" fill="url(#c)"/><path d="m19 20 3 2v-4z" fill="url(#d)"/></svg>