<svg viewBox="0 0 24 24" xmlns="http://www.w3.org/2000/svg" xmlns:xlink="http://www.w3.org/1999/xlink"><linearGradient id="a" gradientUnits="userSpaceOnUse" x1="4" x2="4" xlink:href="#e" y1="24" y2="18.5"/><linearGradient id="b" gradientTransform="matrix(-1 0 0 1 6.99917 .014693)" gradientUnits="userSpaceOnUse" x1="5" x2="5" xlink:href="#e" y1="8" y2="2"/><linearGradient id="c" gradientTransform="translate(4 8)" gradientUnits="userSpaceOnUse" x1="3.627119" x2="3.576271" xlink:href="#e" y1="12.381356" y2="9.940678"/><linearGradient id="d" gradientTransform="matrix(-1 0 0 1 9.99917 8.014693)" gradientUnits="userSpaceOnUse" x1="5" x2="5" xlink:href="#e" y1="8" y2="2"/><linearGradient id="e" gradientTransform="translate(-25.830508 -3.59322)" gradientUnits="userSpaceOnUse" x1="14" x2="13.79661" y1="22" y2="2.135593"><stop offset="0" stop-color="#0040dd"/><stop offset="1" stop-color="#007aff"/></linearGradient><g transform="matrix(-1 0 0 1 24 0)"><g fill="#48484a" transform="scale(-1 1)"><rect height="1" ry=".5" width="14.999998" x="-22" y="2"/><rect height="1" ry=".392136" width="13" x="-22" y="10"/><rect height="1" ry=".436441" width="11" x="-22" y="18"/><rect height="1" ry=".433709" width="5" x="-16" y="21"/><rect height="1" ry=".46875" width="7" x="-16" y="13"/><rect height="1" ry=".5" width="9.000002" x="-16" y="5"/></g><g fill="url(#a)" stroke-width=".205175"><path d="m2 8h1.0232503l-.00083-4.7506416 1.4767497.6321374v-.866803l-2.3689225-1h-.1310775z" fill="url(#b)"/><path d="m9 19.5a1.5 1.5 0 0 1 -1.5 1.5 1.5 1.5 0 0 1 -1.5-1.5 1.5 1.5 0 0 1 1.5-1.5 1.5 1.5 0 0 1 1.5 1.5z" fill="url(#c)"/><path d="m5.1308594 10.015625 2.3691406 1v.865234l-1.4785156-.630859.0019531 4.75h-1.0234375v-5.984375zm-4 0 2.3691406 1v.865234l-1.4785156-.630859.0019531 4.75h-1.0234375v-5.984375zm2.3691406 4.984375a.5.5 0 0 1 .5.5.5.5 0 0 1 -.5.5.5.5 0 0 1 -.5-.5.5.5 0 0 1 .5-.5z" fill="url(#d)"/></g></g></svg>