<svg viewBox="0 0 32 32" xmlns="http://www.w3.org/2000/svg" xmlns:xlink="http://www.w3.org/1999/xlink"><linearGradient id="a" gradientUnits="userSpaceOnUse" x1="110.96875" x2="110.96875" y1="976.29968" y2="992.375"><stop offset="0" stop-color="#0369a3"/><stop offset="1" stop-color="#023f62"/></linearGradient><linearGradient id="b" gradientTransform="matrix(1 0 0 1.00011 0 -.10551)" gradientUnits="userSpaceOnUse" x1="110.96875" x2="110.99982" xlink:href="#c" y1="976.29968" y2="991.87488"/><linearGradient id="c"><stop offset="0" stop-color="#18a303"/><stop offset="1" stop-color="#106802"/></linearGradient><linearGradient id="d" gradientTransform="matrix(1.00399 0 0 1.00959 -1.49914 -9.36636)" gradientUnits="userSpaceOnUse" x1="110.96875" x2="110.96875" xlink:href="#c" y1="976.29968" y2="992.375"/><linearGradient id="e" gradientTransform="matrix(1.99475 0 0 2.0031 -116.141 -1269.6)" gradientUnits="userSpaceOnUse" x1="294.3429" x2="294.41818" y1="256.58133" y2="243.13852"><stop offset="0" stop-color="#b3b3b3"/><stop offset="1" stop-color="#e6e6e6"/></linearGradient><linearGradient id="f" gradientUnits="userSpaceOnUse" x1="470.0625" x2="470.0625" xlink:href="#g" y1="-765.460818" y2="-781.622678"/><linearGradient id="g"><stop offset="0" stop-color="#fff" stop-opacity=".588235"/><stop offset="1" stop-color="#fff" stop-opacity=".862745"/></linearGradient><linearGradient id="h" gradientUnits="userSpaceOnUse" x1="469.2019" x2="469.64386" xlink:href="#c" y1="-784.87065" y2="-753.4928"/><linearGradient id="i" gradientTransform="matrix(1 0 0 1.2 0 151.925)" gradientUnits="userSpaceOnUse" x1="481" x2="481" xlink:href="#g" y1="-759.63782" y2="-764.63782"/><g transform="translate(-463.99988 784.63417)"><g fill="url(#a)" transform="matrix(1.99993 0 0 1.99923 245.008 -2736.62)"><path d="m111.8125 976.3733c-.4584.0875-.82072.53346-.8125 1.00011v14.00148c.00005.52364.47642 1.00006 1 1.00011h10.99999c.52358-.00005.99995-.47647 1-1.00011v-8.73078c.006-.26409-.0975-.52903-.28125-.71883l-5.27042-5.2707c-.18978-.18372-.45469-.2874-.71875-.28128h-5.72957c-.0623-.006-.12518-.006-.1875 0z" fill="url(#b)"/><path d="m120.32938 976.3765c-.33282.10664-.44483.61349-.18825.85184l3.01199 3.02879c.27825.26531.83246.0383.84712-.34705v-3.02878c-.00003-.26431-.23916-.50477-.502-.5048h-3.01199c-.0519-.008-.105-.008-.15687 0z" fill="url(#d)"/></g><path d="m469.00006-782.62261v.5 27 .5h.49999 20.9996.49999v-.5-17-.2188l-.15624-.1562-9.93731-10-.12499-.125h-.21875-11.0623z" fill="url(#e)"/><path d="m470.00004-781.62261h10.05841l9.9409 10v16h-19.99931z" fill="url(#f)"/><g transform="translate(-.00121 .00001)"><path d="m472-772.63782h16v13.000028h-16z" fill="#ccf4c6"/><path d="m472-772.63782h15.999989v3.999999h-15.999989z" fill="#92e285"/><path d="m472-772.6378v1 2 1 2 1 2 1 2 1h16v-1-11-1h-1-4-1-4-1-4zm1 1h4v2h-4zm5 0h4v2h-4zm5 0h4v2h-4zm-10 3h4v2h-4zm5 0h4v2h-4zm5 0h4v2h-4zm-10 3h4v2h-4zm5 0h4v2h-4zm5 0h4v2h-4zm-10 3h4v2h-4zm5 0h4v2h-4zm5 0h4v2h-4z" fill="url(#h)"/><path d="m480-766.63782h8v7.999965h-8z" fill="#808080"/><path d="m481-765.63782h6v5.999962h-6z" fill="#ccc"/><path d="m481-765.63782h6v5.999962h-6z" fill="url(#i)"/><path d="m482-762.63782h2v2.999972h-2z" fill="#1c99e0"/><path d="m484-764.63782h2v4.999961h-2z" fill="#d36118"/><path d="m482-762.63782h1v1.999999h-1z" fill="#63bbee"/><path d="m484-764.63782h1v3.999988h-1z" fill="#f09e6f"/></g></g></svg>