<svg height="32" width="32" xmlns="http://www.w3.org/2000/svg" xmlns:xlink="http://www.w3.org/1999/xlink"><linearGradient id="a" gradientUnits="userSpaceOnUse" x1="28" x2="8" y1="29" y2="1"><stop offset="0" stop-color="#18a303"/><stop offset="1" stop-color="#43c330"/></linearGradient><linearGradient id="b" gradientUnits="userSpaceOnUse" x1="27" x2="5" y1="30" y2="2"><stop offset="0" stop-color="#6e6e6e"/><stop offset="1" stop-color="#b0b0b0"/></linearGradient><path d="m7 4v24h18v-18l-4.99609-.0117c-.52568-.00006-1.00385-.47941-1.00391-1.00781v-4.98049z" fill="#fff"/><path d="m7 2c-1.108 0-2 .892-2 2v24c0 1.108.892 2 2 2h18c1.108 0 2-.892 2-2v-18.94141c0-.26755-.0542-.42053-.14453-.56836-.17222.30006-.48332.50977-.85547.50977h-2c-.554 0-1-.446-1-1v-2h-2c-.554 0-1-.446-1-1v-2c0-.3845.22239-.705587.53906-.873047-.12562-.0766-.26238-.127473-.43359-.126953zm0 2h12v4.98047c.00006.5284.47823 1.00775 1.00391 1.00781h4.99609v18.01172h-18zm .99805 7.99609v1 2 1 2 1 2 1 2 1h8v1h8v-1-7-5-1h-1-4-1-4-1-4zm1 1h4v2h-4zm5 0h4v2h-4zm5 0h4v2h-4zm-10 3h4v2h-4zm5 0h4v2h-2-2zm5 0h4v2h-4zm-10 3h4v2h-4zm5 0h2v2h-2zm3 0h1 5v5 1h-6v-1-2-1zm-8 3h4v2h-4zm5 0h2v2h-2z" fill="url(#b)"/><path d="m24 0v3h-3v2h3v3h2v-3h3v-2h-3v-3z" fill="url(#a)"/><path d="m17.99891 21.99636h2v2.99997h-2z" fill="#7a7a7a"/><path d="m19.99891 19.99636h2v4.99996h-2z" fill="#7a7a7a"/><path d="m17.99891 21.99636h1v2h-1z" fill="#ddd"/><path d="m19.99891 19.99636h1v3.99999h-1z" fill="#ddd"/></svg>