<svg height="32" width="32" xmlns="http://www.w3.org/2000/svg" xmlns:xlink="http://www.w3.org/1999/xlink"><linearGradient id="a" gradientTransform="translate(-136 -96)" gradientUnits="userSpaceOnUse" x1="163" x2="141" xlink:href="#b" y1="126" y2="98"/><linearGradient id="b" gradientTransform="translate(0 20)" gradientUnits="userSpaceOnUse" x1="129" x2="103" y1="56" y2="24"><stop offset="0" stop-color="#6e6e6e"/><stop offset="1" stop-color="#767676"/></linearGradient><linearGradient id="c" gradientTransform="matrix(1.99993 0 0 1.9994499 -218.99188 -1952.1967)" gradientUnits="userSpaceOnUse" x1="124.00028" x2="110.99982" y1="992.37128" y2="976.36688"><stop offset="0" stop-color="#a33e03"/><stop offset="1" stop-color="#d36118"/></linearGradient><linearGradient id="d" gradientTransform="matrix(1.99993 0 0 1.9994499 -218.99199 -1952.1967)" gradientUnits="userSpaceOnUse" x1="124.00028" x2="110.99982" xlink:href="#b" y1="992.37128" y2="976.36688"/><path d="m6.62489 2.009766c-.91677.174932-1.64144 1.065106-1.625 1.998044v23.99219c.0001 1.04688.95288 1.9999 2 2h18c1.04712-.0001 1.9999-.95312 2-2v-13.45508c.012-.52797-.19501-1.05609-.5625-1.43554l-10.54102-10.537114c-.37954-.367299-.90939-.574736-1.4375-.5625h-7.45898c-.1246-.012-.25036-.012-.375 0z" fill="url(#d)"/><path d="m7 4v24h18v-13.5l-10.5-10.5z" fill="#fff"/><path d="m19.6582 2.015666c-.66561.213198-.89009 1.226608-.37695 1.703125l6.02539 6.054689c.55648.53041 1.66404.077 1.69336-.69336v-6.054688c-.00006-.528417-.47824-1.009706-1.00391-1.009766h-6.02343c-.1038-.01599-.21072-.01599-.31446 0z" fill="url(#c)"/><path d="m10.998 14c-1.108 0-2 .892-2 2v8c0 1.108.892 2 2 2h10c1.108 0 2-.892 2-2v-8c0-1.108-.892-2-2-2zm0 1h10c .554 0 1 .446 1 1v8c0 .554-.446 1-1 1h-10c-.554 0-1-.446-1-1v-8c0-.554.446-1 1-1zm .00005 1.00009v2h10v-2zm1.00195 3c-.55228 0-1 .44771-1 1s .44772 1 1 1 1-.44771 1-1-.44772-1-1-1zm1.99805 0v2h7v-2zm-1.99805 3c-.55228 0-1 .44771-1 1s .44772 1 1 1 1-.44771 1-1-.44772-1-1-1zm1.99805 0v2h7v-2z" fill="url(#a)"/></svg>