<svg viewBox="0 0 32 32" xmlns="http://www.w3.org/2000/svg" xmlns:xlink="http://www.w3.org/1999/xlink"><linearGradient id="a" gradientUnits="userSpaceOnUse" x1="27" x2="5" xlink:href="#b" y1="30" y2="2"/><linearGradient id="b"><stop offset="0" stop-color="#0369a3"/><stop offset="1" stop-color="#1c99e0"/></linearGradient><linearGradient id="c" gradientTransform="matrix(1.99993 0 0 1.9994499 -218.99188 -1952.1967)" gradientUnits="userSpaceOnUse" x1="124.00028" x2="110.99982" xlink:href="#b" y1="992.37128" y2="976.36688"/><path d="m6.625 2.009766c-.91677.174932-1.64144 1.065106-1.625 1.998044v23.99219c.0001 1.04688.95288 1.9999 2 2h18c1.04712-.0001 1.9999-.95312 2-2v-13.45508c.012-.52797-.19501-1.05609-.5625-1.43554l-10.54102-10.537114c-.37954-.367299-.90939-.574736-1.4375-.5625h-7.45898c-.1246-.012-.25036-.012-.375 0zm13.0332.0059c-.66561.213198-.89009 1.226608-.37695 1.703125l6.02539 6.054689c.55648.53041 1.66404.077 1.69336-.69336v-6.054688c-.00006-.528417-.47824-1.009706-1.00391-1.009766h-6.02343c-.1038-.01599-.21072-.01599-.31446 0z" fill="url(#c)"/><path d="m7 4v24h18v-13.5l-10.5-10.5z" fill="#fff"/><path d="m8.99805 11.99609v2l3.00195.00391v-2zm5.00195.00391v6l8.99805-.004v-6zm1 1 6.99805-.004v3.5l-1.5-1.5-1.49805 1.004-2-2.5-2 3zm-6.00195 2.99609v2l3.00195.00391v-2zm0 4v2h14v-2zm0 4v2h10v-2z" fill="url(#a)"/></svg>