#define sample_width 10
#define sample_height 10
static unsigned char sample_bits[] = {
   0x00, 0x00, 0xfe, 0x01, 0xfe, 0x01, 0xfe, 0x01, 0xfe, 0x01, 0xfe, 0x01,
   0xfe, 0x01, 0xfe, 0x01, 0xfe, 0x01, 0x00, 0x00 };
