<svg viewBox="0 0 32 32" xmlns="http://www.w3.org/2000/svg"><path d="m27.494163 9.910887q-.168612 0-.259403-.04752-.09079-.04752-.123217-.19604l-.142672-.540595q-.246434.207919-.486381.374257-.233462.160395-.492867.273267-.259403.11287-.557716.166335-.298314.059409-.654994.059409-.36965 0-.693904-.089109-.31777-.095049-.564203-.285148-.239948-.19604-.382619-.481188-.136187-.2910882-.136187-.6831667 0-.3445552.201037-.659406.207523-.3207918.667964-.5702966.460442-.2495049 1.199742-.4039603.739298-.1603954 1.815823-.184158v-.4455437q0-.6772275-.31777-1.0158411-.311284-.3445541-.914397-.3445541-.402075 0-.680934.095049-.272372.09505-.473411.2079211-.201037.112871-.350194.2079204-.142673.09505-.291829.09505-.116731 0-.201038-.053465-.08431-.053466-.136187-.1366342l-.207522-.3326786q.525292-.4633659 1.128404-.6891081.609598-.2316831 1.348898-.2316831.531777 0 .946822.1603959.415045.1544553.693905.4455442.278858.2910889.42153.6950488.149157.4039609.149157.8970296v3.7128685zm-2.37354-.641584q.285343 0 .525291-.05347.239948-.053467.453956-.148513.214008-.1009906.402075-.2435643.194553-.1485146.382621-.3267326v-1.1999991q-.758755.0297-1.290533.118812-.531776.083169-.869001.2257423-.330739.1425745-.479896.3386125-.149157.1900997-.149157.4277237 0 .2257423.07782.3920795.08431.1603954.220494.267326.136186.100989.324255.154455.188067.04752.402075.04752z" fill="#1e8bcd"/><path d="m23 20.922006v-7.922006h1.025641v3.247911q.34965-.395543.798368-.623955.448718-.233984 1.031469-.233984.495338 0 .891608.183844.39627.183844.675991.529248.27972.345404.425408.841226.151515.49025.151515 1.114206 0 .662953-.168998 1.203343-.168998.54039-.483683.930362-.314686.3844-.763403.5961-.448718.211699-1.008159.211699-.55944 0-.938228-.200557-.372961-.206128-.664336-.568245l-.05827.484679q-.02331.206129-.250582.206129zm2.511655-4.757661q-.472028 0-.833333.2117-.355478.211699-.652681.601671v2.629526q.268065.350975.588578.495822.320513.139275.705128.139275.786713 0 1.206294-.540389.41958-.54039.41958-1.610028 0-.991643-.37296-1.45961-.37296-.467967-1.060606-.467967z" fill="#1e8bcd"/><g fill="#3a3a38"><rect height="1" ry=".5" width="14.999998" x="4" y="4"/><rect height="1" ry=".392136" width="15.000005" x="4" y="14"/><rect height="1" ry=".436441" width="15.000001" x="4" y="24"/><rect height="1" ry=".5" width="8.999999" x="10" y="27"/><rect height="1" ry=".5" width="8.999999" x="10" y="17"/><rect height="1" ry=".5" width="9.000002" x="10" y="7"/></g></svg>