<svg viewBox="0 0 32 32" xmlns="http://www.w3.org/2000/svg" xmlns:xlink="http://www.w3.org/1999/xlink"><linearGradient id="a" gradientTransform="matrix(1.99993 0 0 1.9994499 -218.9916 -1952.1967)" gradientUnits="userSpaceOnUse" x1="124.00028" x2="110.99982" y1="992.37128" y2="976.36688"><stop offset="0" stop-color="#c99c00"/><stop offset="1" stop-color="#e9b913"/></linearGradient><path d="m4.6252743.009766c-.91677.174932-1.64144 1.065106-1.625 1.998044v27.99219c.0001 1.04688.95288 1.9999 2 2h21.9999997c1.04712-.0001 1.9999-.95312 2-2v-17.45508c.012-.52797-.19501-1.05609-.5625-1.43554l-10.54102-10.537114c-.37954-.367299-.90939-.574736-1.4375-.5625h-11.4589797c-.1246-.012-.25036-.012-.375 0zm17.0331997.0059c-.66561.213198-.89009 1.226608-.37695 1.703125l6.02539 6.054689c.55648.53041 1.66404.077 1.69336-.69336v-6.054688c-.00006-.528417-.47824-1.009706-1.00391-1.009766h-6.02343c-.1038-.01599-.21072-.01599-.31446 0z" fill="url(#a)"/><path d="m5.0002743 2v28h21.9999997v-17.5l-10.5-10.5z" fill="#fff"/><circle cx="12.999043" cy="17.999908" fill="#f9cfb5" r="4.499996" stroke="#d36118" stroke-width=".999997"/><path d="m16.498914 22.5h7v-5.99998h-7z" fill="#aadcf7" stroke="#1c99e0" stroke-linecap="round" stroke-linejoin="round" stroke-width=".999999"/><path d="m19.498914 25.50004h-10.9999997l4.9999997-9z" fill="#fde9a9" stroke="#e9b913" stroke-linecap="round" stroke-linejoin="round"/></svg>