<svg viewBox="0 0 32 32" xmlns="http://www.w3.org/2000/svg" xmlns:xlink="http://www.w3.org/1999/xlink"><linearGradient id="a"><stop offset="0" stop-color="#535353"/><stop offset="1" stop-color="#7e7e7e"/></linearGradient><linearGradient id="b" gradientUnits="userSpaceOnUse" x1="29.00008" x2="2.99988" xlink:href="#a" y1="31.99996" y2="-.000008"/><linearGradient id="c" gradientTransform="matrix(1.99993 0 0 1.9994499 -218.9916 -1952.1967)" gradientUnits="userSpaceOnUse" x1="124.00028" x2="110.99982" xlink:href="#a" y1="992.37128" y2="976.36688"/><path d="m4.6252743.009766c-.91677.174932-1.64144 1.065106-1.625 1.998044v27.99219c.0001 1.04688.95288 1.9999 2 2h21.9999997c1.04712-.0001 1.9999-.95312 2-2v-17.45508c.012-.52797-.19501-1.05609-.5625-1.43554l-10.54102-10.537114c-.37954-.367299-.90939-.574736-1.4375-.5625h-11.4589797c-.1246-.012-.25036-.012-.375 0zm17.0331997.0059c-.66561.213198-.89009 1.226608-.37695 1.703125l6.02539 6.054689c.55648.53041 1.66404.077 1.69336-.69336v-6.054688c-.00006-.528417-.47824-1.009706-1.00391-1.009766h-6.02343c-.1038-.01599-.21072-.01599-.31446 0z" fill="url(#c)"/><path d="m5.0002743 2v28h21.9999997v-17.5l-10.5-10.5z" fill="#fff"/><path d="m8.0000043 13v1 13h1 14.9999997v-1-12-1h-1-13.9999997zm1 1h13.9999997v12h-13.9999997z" fill="#f09e6f"/><path d="m14.492194 14.99609-1.90039 8-1.59961-4h-1.9999997v1h1l1.9999997 5h1.40039l2.09961-8.90039h5.5v.90039h1v-2zm1.50195 3.84766a.65006498.65006498 0 0 0 -.45312 1.11523l2.04101 2.04102-2.04101 2.04102a.65006498.65006498 0 1 0  .91796.91796l2.04102-2.04101 2.04102 2.04101a.65006498.65006498 0 1 0  .91796-.91796l-2.04101-2.04102 2.04101-2.04102a.65006498.65006498 0 0 0 -.47265-1.11523.65006498.65006498 0 0 0 -.44531.19727l-2.04102 2.04101-2.04102-2.04101a.65006498.65006498 0 0 0 -.46484-.19727z" fill="url(#b)"/></svg>