<svg viewBox="0 0 24 24" xmlns="http://www.w3.org/2000/svg"><path d="m5 2c-.554 0-1 .446-1 1v18c0 .554.446 1 1 1h14c.554 0 1-.446 1-1v-10.109375-3.640625-.2089844c0-.4506799.098038-.4254121-.605469-1.0664062l-3.30664-3.2382813c-.709525-.7368575-.710169-.7363281-1.09375-.7363281h-.332032-.662109zm0 1h9v4c0 .554.446 1 1 1h4v13h-14zm10 0 4 4h-4z" fill="#fafafa"/><path d="m11.421875 8-3.8203125 10h1.3613281l1.0878904-3h3.904297l1.091797 3h1.351563l-3.824219-10zm.576172 1.6289062 1.591797 4.3710938h-3.175782z" fill="#1e8bcd" stroke-width="3.150643"/></svg>