<svg height="32" width="32" xmlns="http://www.w3.org/2000/svg" xmlns:xlink="http://www.w3.org/1999/xlink"><linearGradient id="a" gradientUnits="userSpaceOnUse" x1="13.580414" x2="13.580414" y1="7.410555" y2="2.160542"><stop offset="0" stop-color="#ffa154"/><stop offset="1" stop-color="#f37329"/></linearGradient><linearGradient id="b" gradientTransform="matrix(.30405459 0 0 .3851361 -1.915087 -.075972)" gradientUnits="userSpaceOnUse" x1="18.123238" x2="18.123238" y1="3.910552" y2="2.410548"><stop offset="0" stop-color="#fff"/><stop offset="0" stop-color="#fff" stop-opacity=".235294"/><stop offset="1" stop-color="#fff" stop-opacity=".156863"/><stop offset="1" stop-color="#fff" stop-opacity=".392157"/></linearGradient><radialGradient id="c" cx="18.87324" cy="9.107614" gradientTransform="matrix(-2.3210204 -.15473492 .21147053 -3.1720533 60.752422 38.720729)" gradientUnits="userSpaceOnUse" r="3.546608" xlink:href="#e"/><linearGradient id="d" gradientTransform="matrix(1.2185899 0 0 1.2612365 -.928214 -6.772519)" gradientUnits="userSpaceOnUse" x1="9.156" x2="9.156" xlink:href="#e" y1="3.932" y2="19.659"/><linearGradient id="e" gradientTransform="matrix(1.0030849 0 0 1.0381896 -.463607 -.418095)" gradientUnits="userSpaceOnUse" x1="9.156" x2="9.156" y1="3.932" y2="19.659"><stop offset="0" stop-color="#737373"/><stop offset=".262" stop-color="#636363"/><stop offset=".705" stop-color="#4b4b4b"/><stop offset="1" stop-color="#3f3f3f"/></linearGradient><g stroke-linejoin="round" stroke-width=".750002" transform="matrix(1.33333 0 0 1.33333 -.164257 1.785965)"><path d="m11.267453 18.531031-1.047988-3.556688h-5.2618713l-1.0455502 3.556688h-3.30116002l5.09614292-15.004932h3.7435081l5.1156415 15.004932zm-1.7791421-6.214112c-.966748-3.2237216-1.5126762-5.0466288-1.6377849-5.4687227-.118609-.422935-.2039107-.756742-.2559039-1.001422-.2177213.8719346-.8404207 3.0286484-1.8680983 6.4701447z" fill="url(#d)" stroke="#000" stroke-opacity=".49" stroke-width=".759278"/><path d="m5.7067042 3.5258119-5.09546918 15.0046441h.387054l4.70841518-13.8657267h3.7444873l4.7262115 13.8657267h.388536l-5.1147475-15.0046441zm.3559117 8.7910181c-.1245119.419596-.1972143.672031-.3366332 1.138918h3.7622836c-.2013257-.671341-.1762574-.589078-.3410822-1.138918z" fill="#fff" opacity=".2"/><path d="m18.317306 12.51624h.721882q.915722 0 1.584133.220576.66841.220575 1.102876.614937.441151.394361.648358.942459.213892.541411.213892 1.189769 0 .721883-.220575 1.290032-.213892.568148-.675094.962511-.45452.387678-1.15635.594885-.70183.207207-1.677709.207207h-2.613485v-9.7721573h5.628013v1.7111303h-3.555941zm0 4.324613h.561465q.374309 0 .668409-.06684.300785-.07352.507992-.233943.213892-.160419.320837-.421099.113634-.26068.113634-.634991 0-.387676-.120314-.634989-.120314-.247312-.347573-.387678-.227259-.140368-.55478-.193838-.320837-.05347-.728567-.05347h-.421099z" fill="url(#c)" stroke="#000" stroke-opacity=".49" stroke-width=".750002"/><path d="m21.496094 13.474609v1h7.503906v-1zm2.761718 5v1h.962891c.813973 0 1.51914.096902 2.113281.292969.594141.196066 1.084512.46977 1.470704.820313.392133.350542.679097.770615.863281 1.257812.134654.340841.204853.713038.24414 1.101563.015733-.170799.041016-.333862.041016-.515625 0-.576317-.095031-1.104685-.285156-1.585938-.184184-.487197-.471148-.90727-.863281-1.257812-.386192-.350543-.876563-.624247-1.470704-.820313-.594141-.196067-1.299308-.292969-2.113281-.292969zm2.847657 4.457032c-.024991.124455-.056194.241625-.101563.345703-.095062.231715-.237608.419905-.427734.5625-.184184.142598-.410371.245196-.677734.310547-.261422.059413-.557907.089843-.890626.089843h-.75v1h.75c.332719 0 .629204-.03043.890626-.089843.267363-.065351.49355-.167949.677734-.310547.190126-.142595.332672-.330785.427734-.5625.101008-.231715.150391-.512983.150391-.845703 0-.185739-.017759-.350509-.048828-.5z" fill="#fff" opacity=".2" transform="matrix(.75000188 0 0 .75000188 .123193 -1.339477)"/><g fill="#fcaf3e" stroke-linecap="round" transform="matrix(1 0 0 -1 0 5.571082)"><path d="m18.123238.53552759-4.500011 4.50001121h9.000022z" fill="url(#a)" stroke="#a62100" stroke-opacity=".501961"/><path d="m18.123215 1.6605304-2.624984 2.6250066h5.250013z" fill="none" opacity=".5" stroke="url(#b)"/></g></g></svg>