<svg height="12" viewBox="0 0 12 12" width="12" xmlns="http://www.w3.org/2000/svg" xmlns:xlink="http://www.w3.org/1999/xlink"><filter id="a" color-interpolation-filters="sRGB" height="1.00224" width="1.000611" x="-.000305" y="-.00112"><feGaussianBlur stdDeviation=".0014"/></filter><linearGradient id="b" gradientUnits="userSpaceOnUse" x1="6" x2="6" y1=".5" y2="9"><stop offset="0" stop-color="#fefefe"/><stop offset="1" stop-color="#fefefe" stop-opacity="0"/></linearGradient>/&amp;gt;<path d="m3 0c-1.1079989 0-2 .89200111-2 2v7c0 1.107999.8920011 2 2 2h7c1.107999 0 2-.892001 2-2v-7c0-1.10799889-.892001-2-2-2zm0 1h7c.553999 0 1 .4460006 1 1v7c0 .553999-.446001 1-1 1h-7c-.5539994 0-1-.446001-1-1v-7c0-.5539994.4460006-1 1-1z" fill="#c8c8c8"/><path d="m1 9v1c0 1.107998.8920022 2 2 2h7c1.107998 0 2-.892002 2-2v-1c0 1.073686-.838343 1.941234-1.898438 1.994141-.033698.003401-.066937.005859-.101562.005859h-7c-.034312 0-.067685-.0042-.1015625-.0059-1.0600946-.052866-1.8984375-.920414-1.8984375-1.9941z" fill="#dadada" filter="url(#a)"/><path d="m3 1c-.5539994 0-1 .4460006-1 1v7c0 .5539994.4460006 1 1 1h7c.553999 0 1-.4460006 1-1v-7c0-.5539994-.446001-1-1-1zm0 1h7v7h-7z" fill="url(#b)"/><path d="m6.5752017 9.0957921q-.5024477-.0034181-.9809693-.1743186-.4785216-.1743186-.8613389-.5639719-.3828172-.3930713-.608406-1.0424935-.2255887-.6528402-.2221707-1.6167194 0-.898937.1914086-1.6030474.1914087-.7041103.5502999-1.1894679.3588911-.4887757.8647568-.7451265.5092837-.2563509 1.1381978-.2563509.6596762 0 1.1689599.2597689.5127018.2597689.8271588.7109464.3144571.4477595.3896533 1.0117314h-1.2475742q-.0957043-.4033254-.3930713-.6425862-.2939489-.2426788-.7451265-.2426788-.7280364 0-1.1211077.6323321-.3896533.6323321-.3930713 1.7363498h.0478521q.1674826-.300785.4340875-.5161197.2666049-.2153347.60157-.3315471.3383831-.1196304.7143644-.1196304.615242 0 1.1040177.293949.4921936.2939489.7793066.8100687.2871129.5127017.2836949 1.1757959.00342.6904383-.314457 1.2407381-.3178751.5468819-.885265.8613389-.5673899.3144571-1.3227704.3110391zm-.00684-1.0254035q.3725632 0 .6665122-.1811546.293953-.1811546.4648536-.4887756.1709005-.307621.1674825-.6904383.003418-.3759813-.1640645-.6801843-.1640646-.304203-.4545955-.4819396-.290531-.1777366-.6630943-.1777366-.2768589 0-.5161197.1059584-.2392608.1059583-.4169974.2939489-.1777366.1845727-.2802769.4306695-.0991223.2426788-.1025404.5195377.00342.3657272.1709006.6733483.1674826.307621.4614316.4921936.2939489.1845726.6665122.1845726z" fill="#3f3f3f" stroke-width=".240628"/></svg>