<svg viewBox="0 0 24 24" xmlns="http://www.w3.org/2000/svg"><path d="m3 2c-.1371683 0-.2679225.0285723-.3867188.078125a1.0001 1.0001 0 0 0 -.0019531 0c-.0027825.0011668-.0050429.0027151-.0078125.0039062-.1162317.0499906-.2202847.1211541-.3085937.2089844-.0012857.0012787-.0026276.0026206-.0039063.0039063-.0855314.0859976-.1533571.1881821-.203125.3007812a1.0001 1.0001 0 0 0 -.0117187.0273438c-.0472056.1163726-.0761719.2432473-.0761719.3769531v16a1.0001 1.0001 0 0 0 .2929688.707031l2 2a1.0001 1.0001 0 0 0 .7070312.292969h16c.137168 0 .267922-.028572.386719-.078125a1.0001 1.0001 0 0 0 .009765-.003906c.116232-.049991.220285-.121154.308594-.208985a1.0001 1.0001 0 0 0 .003906-.003906c.085532-.085998.153357-.188182.203125-.300781a1.0001 1.0001 0 0 0 .011719-.027344c.047206-.116373.076172-.243247.076172-.376953v-5.28125c-.287237.165478-.614595.270309-.96875.28125-.466302.014327-.923004-.136531-1.289062-.425781a1.0001 1.0001 0 0 1 -.001954-.001953l-6.966796-5.525391c-.444462-.352967-.770149-.8883432-.773438-1.5410156a1.0001 1.0001 0 0 1 0-.0117188c.00328-.6526899.328979-1.1880521.773438-1.5410156l6.246093-4.953125z" fill="#922e9b"/><path d="m3 3v16l2 2h1v-7h11.757812l-4.984374-3.953125c-.017509-.013904-.031702-.032409-.048829-.046875h-7.724609v-7zm15 11.191406v6.808594h3v-5.001953c-.455296.006717-.90003-.141117-1.257812-.423828a1.0001 1.0001 0 0 1 -.001954-.001953z" fill="#d492d8"/><g transform="matrix(-1 0 0 1 24.000015 0)"><path d="m3 2c-.5282798.0163207-.9975987.4714736-1 1v11c.0024.528526.4717202.983679 1 1 .23109.0071.4572702-.0676.6386719-.210938l6.9667971-5.5253901c.2331-.1851154.393031-.4660127.394531-.7636719-.001496-.2976592-.161431-.5785565-.394531-.7636719l-6.9667971-5.5253906c-.1814017-.1433405-.4075819-.2180422-.6386719-.2109375z" fill="#309048"/><path d="m3 3v11l6.9550781-5.5z" fill="#a1ddaa"/></g><path d="m6 3v6h6.070312c-.04275-.1559297-.069436-.3203479-.070312-.4941406a1.0001 1.0001 0 0 1 0-.0117188c.00328-.6526899.328979-1.1880521.773438-1.5410156l4.984374-3.953125zm1 12v6h2v-5h2v5h6v-6z" fill="#fafafa"/></svg>