<svg viewBox="0 0 16 16" xmlns="http://www.w3.org/2000/svg" xmlns:xlink="http://www.w3.org/1999/xlink"><radialGradient id="a" cx="8" cy="-2.589108" gradientTransform="matrix(-1.08925 .00000001 -.00000002 -1.7198682 16.714 -4.952924)" gradientUnits="userSpaceOnUse" r="8.721599"><stop offset="0" stop-color="#737373"/><stop offset=".262" stop-color="#636363"/><stop offset=".705" stop-color="#4b4b4b"/><stop offset="1" stop-color="#3f3f3f"/></radialGradient>

/&amp;amp;gt;<path d="m4.038159 7.7413037-3.53782083-6.2413037h2.83687383l3.3777464 6.2946619v-6.2962592h2.5700832v6.2962592l3.3691914-6.2946619h2.845767l-3.538159 6.2413037 3.618807 6.7586963h-2.94359l-3.3520164-6.5897288v6.5897288h-2.5700832v-6.5897288l-3.2624753 6.5897288h-2.9524831z" fill="url(#a)" stroke="#000" stroke-linecap="round" stroke-linejoin="round" stroke-opacity=".6"/><path d="m.5011482 1.4996442.9609375 1.5h1.875l2.9578362 5.6058246.4199219-.6953126v-.1152343l-3.3777581-6.2952777zm6.2136956-.0016v1.5h2.5703124v-1.5zm5.9395152.00159-3.3692028 6.2952777v.1152343l.421875.6953126 2.9473278-5.6058246h1.882813l.96289-1.5zm-9.091859 6.9984127-3.06160485 6.0019531h.94531245l2.5928549-5.2578125zm8.875.0019531-.476562.7421875 2.673503 5.2578125h.945312z" fill="#fff" opacity=".2"/></svg>