<svg height="24" width="24" xmlns="http://www.w3.org/2000/svg" xmlns:xlink="http://www.w3.org/1999/xlink"><linearGradient id="a"><stop offset="0" stop-color="#555"/><stop offset="1" stop-color="#666"/></linearGradient><linearGradient id="b" gradientUnits="userSpaceOnUse" x1="19" x2="19" xlink:href="#c" y1="52" y2="30"/><linearGradient id="c" gradientTransform="translate(-12 6)" gradientUnits="userSpaceOnUse" x1="4" x2="4" y1="3.5" y2="19.240234"><stop offset="0" stop-color="#ffa154"/><stop offset="1" stop-color="#f37329"/></linearGradient><linearGradient id="d" gradientUnits="userSpaceOnUse" x1="23" x2="23" xlink:href="#a" y1="47" y2="25"/><linearGradient id="e" gradientUnits="userSpaceOnUse" x1="17" x2="17" xlink:href="#a" y1="42" y2="49"/><linearGradient id="f" gradientUnits="userSpaceOnUse" x1="16.5" x2="17.5" xlink:href="#c" y1="24.5" y2="45"/><linearGradient id="g" gradientTransform="matrix(.61441293 0 0 .61115825 18.389037 -12.236494)" gradientUnits="userSpaceOnUse" x1="-2.521394" x2="-2.521394" y1="22.402153" y2="35.268829"><stop offset="0" stop-color="#fff"/><stop offset=".51999998" stop-color="#fff" stop-opacity=".235294"/><stop offset=".51999998" stop-color="#fff" stop-opacity=".156863"/><stop offset="1" stop-color="#fff" stop-opacity=".392157"/></linearGradient><linearGradient id="h" gradientTransform="matrix(.52743574 0 0 .33333554 18.34586 -4.557297)" gradientUnits="userSpaceOnUse" x1="5.03216" x2="5.03216" y1="28.671694" y2="29.671688"><stop offset="0" stop-color="#fff"/><stop offset=".00000019" stop-color="#fff" stop-opacity=".235294"/><stop offset="1" stop-color="#fff" stop-opacity=".392157"/></linearGradient><linearGradient id="i" gradientTransform="matrix(-.61157583 0 0 -.6008607 25.029162 11.611229)" gradientUnits="userSpaceOnUse" x1="12" x2="12" y1="4" y2="19.998161"><stop offset="0" stop-color="#9bdb4d"/><stop offset="1" stop-color="#68b723"/></linearGradient><linearGradient id="j" gradientTransform="matrix(-1 0 -0 -1 24 19)" gradientUnits="userSpaceOnUse" x1="4" x2="4" y1="14" y2="5.5"><stop offset="0" stop-color="#fff"/><stop offset=".0001" stop-color="#fff" stop-opacity=".235294"/><stop offset=".99989998" stop-color="#fff" stop-opacity=".156863"/><stop offset="1" stop-color="#fff" stop-opacity=".392157"/></linearGradient><g transform="matrix(-1 0 0 1 24 -25)"><path d="m12.5 43.5v2h7v-2z" fill="url(#e)"/><path d="m12.5 43.5v2h7v-2z" fill="none" opacity=".61" stroke="#000" stroke-linejoin="round"/><path d="m8.5 38.5v2h14v-2z" fill="url(#b)"/><path d="m8.5 38.5v2h14v-2z" fill="none" opacity=".61" stroke="#a62100" stroke-linejoin="round"/><path d="m12.5 33.5v2h7v-2z" fill="url(#d)"/><path d="m12.5 33.5v2h7v-2z" fill="none" opacity=".61" stroke="#000" stroke-linejoin="round"/><path d="m8.5 28.5v2h14v-2z" fill="url(#f)"/><path d="m8.5 28.5v2h14v-2z" fill="none" opacity=".61" stroke="#a62100" stroke-linejoin="round"/><g fill="#fff" transform="matrix(-1 0 0 1 25 0)"><path d="m16 29v.5h-12v.5h-1v-1z" opacity=".2"/><path d="m12 34v.5h-5v.5h-1v-1z" opacity=".2"/><path d="m16 39v.5h-12v.5h-1v-1z" opacity=".2"/><path d="m12 44v.5h-5v.5h-1v-1z" opacity=".2"/></g></g><path d="m23.5 15.5v-12l-7.675781-.0078c-.178305-.000271-.324335-.136003-.324219-.298841v-2.396484c0-.174471-.137743-.304687-.322266-.304687-.09931 0-.182748.03934-.242187.101562l-4.347656 4.195312c-.05558.058157-.087891.128145-.087891.208985 0 .08142.0323.156267.08789.210937l4.347657 4.179688c.06363.027237.05761.103516.242187.103516.184523 0 .322266-.126313.322266-.300782v-2.396484c-.000109-.153233.129288-.283813.292969-.298828 1.447063.002299 4.995574.003419 5.707031.003906v7h-6v2z" fill="url(#i)" stroke="#206b00" stroke-linecap="round" stroke-linejoin="round" stroke-opacity=".5"/><path d="m15.5 5.4999998 6 .000002v-1.000004l-6-.000002" fill="none" opacity=".6" stroke="url(#h)"/><path d="m15.5 5.5913909c-.505919.000163-.999837.545123-1 1.050697v.980702l-2.673408-2.553808 2.673408-2.60619v.975262c.000163.505574.494081 1.106671 1 1.106834" fill="none" opacity=".5" stroke="url(#g)" stroke-width=".999996"/><path d="m16.5 14.5h6" stroke-linecap="round" stroke-linejoin="round"/><path d="m22.5 5v9.5" stroke-linecap="round" stroke-linejoin="round"/><path d="m22.5 4.5v10h-6" fill="none" stroke="url(#j)" stroke-linecap="square" stroke-opacity=".5"/></svg>