<svg height="52" viewBox="0 0 60 52" width="60" xmlns="http://www.w3.org/2000/svg">
  <path
     style="fill:#ffffff"
     d="M 0,0 H 60 V 52 H 0 Z"
     />
  <path
     d="M 26,40 V 32 H 7 v 8 z"
     style="fill:#f62c5f;stroke-width:0.83887047;fill-opacity:1"
     />
  <path
     d="M 55,40 V 32 H 26 v 8 z"
     style="fill:#1eaef7;stroke-width:0.89752746;fill-opacity:1"
     />
  <path
     d="M 41,23 V 15 H 7 v 8 z"
     style="fill:#f62c5f;stroke-width:1.19023812;fill-opacity:1"
     />
  <path
     d="M 55,23 V 15 H 41 v 8 z"
     style="fill:#1eaef7;stroke-width:0.68313003;fill-opacity:1"
     />
  <path
     style="fill:#232629;fill-opacity:1"
     d="m 3,45 h 52 v 1 H 3 Z"
     />
  <path
     style="fill:#232629;fill-opacity:1"
     d="M 6,3 H 7 V 49 H 6 Z"
     />
  <g
     style="fill:#232629;fill-opacity:1"
     transform="translate(38,-30)"
     >
    <path
       d="m 10,33.9999 a 2,2 0 0 0 -2,2 2,2 0 0 0 2,2 2,2 0 0 0 2,-2 2,2 0 0 0 -2,-2 z m 0,1 a 1,1 0 0 1 1,1 1,1 0 0 1 -1,1 1,1 0 0 1 -1,-1 1,1 0 0 1 1,-1 z"
       style="fill:#232629;fill-opacity:1"
       />
    <path
       d="m 14,37.9999 a 2,2 0 0 0 -2,2 2,2 0 0 0 2,2 2,2 0 0 0 2,-2 2,2 0 0 0 -2,-2 z m 0,1 a 1,1 0 0 1 1,1 1,1 0 0 1 -1,1 1,1 0 0 1 -1,-1 1,1 0 0 1 1,-1 z"
       style="fill:#232629;fill-opacity:1"
       />
    <path
       d="m 14.59961,33.7002 -6,8 0.80078,0.5996 6,-8 z"
       style="fill:#232629;fill-opacity:1;fill-rule:evenodd"
       />
  </g>
</svg>
