<svg xmlns="http://www.w3.org/2000/svg" viewBox="0 0 24 24">
 <path 
     style="fill:#4d4d4d" 
     d="M 12 4 L 12 5.3105469 L 8.4492188 9.3046875 L 6.734375 8.453125 L 4.4628906 7.2402344 L 3.9941406 8.1152344 L 6.296875 9.359375 L 8 10.216797 L 8 15.708984 L 6.171875 17.546875 L 4.3828125 19.371094 L 5.0351562 20.001953 L 6.859375 18.265625 L 8.5957031 16.529297 L 18.322266 18.474609 L 19.332031 19.494141 L 20.015625 18.71875 L 19 17.689453 L 19 9.234375 L 20 8.765625 L 19.550781 7.8378906 L 18.4375 8.3847656 L 13 5.2128906 L 13 4 L 12 4 z M 13 6.3710938 L 17.365234 8.9160156 L 13.015625 11.078125 L 13.015625 11 L 13 9 L 13 8 L 13 6.3710938 z M 12 6.8144531 L 12 11.070312 L 9.3769531 9.765625 L 12 6.8144531 z M 18 9.7265625 L 18 16.6875 L 13.359375 12.046875 L 18 9.7265625 z M 9 10.71875 L 11.640625 12.046875 L 9 14.703125 L 9 10.71875 z M 12.515625 12.609375 L 17.064453 17.203125 L 9.4453125 15.679688 L 12.515625 12.609375 z "
     />
 </svg>
