<svg height="150" viewBox="0 0 39.687499 39.6875" width="150" xmlns="http://www.w3.org/2000/svg" xmlns:xlink="http://www.w3.org/1999/xlink"><filter id="a" color-interpolation-filters="sRGB" height="1.13824" width="1.136293" x="-.068146" y="-.06912"><feGaussianBlur stdDeviation="1.0668"/></filter><g stroke-width=".264583"><path d="m1.3229163 1.852083 37.5708337-.0000022v37.0416692l-37.5708337.000002z" fill="#48484a" filter="url(#a)" opacity=".557352" stroke-opacity=".501961"/><path d="m1.5875003 2.116667h37.0416677v35.983334h-37.0416677z" fill="#f2f2f7" stroke-opacity=".501961"/><text stroke-linecap="round" stroke-linejoin="round" x="34.924999" y="2.645833"><tspan stroke-width=".264583" x="34.924999" y="2.645833"/></text><path d="m1.5875 2.1166666h37.041668v8.9958334h-37.041668z" fill="#d1d1d6" stroke-linecap="round" stroke-linejoin="round"/><text fill="#48484a" font-family="Inter" font-size="3.52778" stroke-linecap="round" stroke-linejoin="round" x="13.448908" y="7.878621"><tspan fill="#48484a" font-family="Inter" font-size="3.52778" font-weight="bold" stroke-width=".264583" x="13.448908" y="7.878621">Thesis</tspan></text><text fill="#48484a" font-family="Inter" font-size="2.82222" stroke-linecap="round" stroke-linejoin="round" x="13.448908" y="18.346573"><tspan fill="#48484a" font-family="Inter" font-size="2.82222" stroke-width=".264583" x="13.448908" y="18.346573">Introduction</tspan></text><path d="m5.8208335 3.7041667v5.8208332h4.7624995v-3.96875l-1.8520829-1.8520832zm.2645833.2645833h2.38125v1.8520833h1.8520832v3.4395833h-4.2333332z" fill="#48484a"/><path d="m8.4666667 28.839034v4.7625.000517h.2645833 3.175.264583v-.2651h-.264583-3.175v-4.233334h2.116667v.79375.264584h1.058333v1.322916h.264583v-1.214913-.37207-.0026l-1.056266-1.056266-.0021.0026v-.0026h-.26455-2.116667z" transform="translate(-2.116667 -6.878618)"/><g stroke-linecap="round" stroke-linejoin="round"><path d="m7.9374999 3.9687499-.0000001 2.9104166h-1.8520833v.2645834h1.8520833l.0000001 2.1166666h.2645833l-.0000001-2.1166666h2.1166669v-.2645834h-2.1166669l.0000001-2.9104166z" fill="#48484a"/><path d="m6.3499999 15.08125v4.233333h3.7041671v-4.233333zm.2645833.264583h3.175v3.704167h-3.175zm.5291667.264583v.396875h2.1166666v-.396875zm1.8520833.79375v.529167h.5291667v-.529167zm-2.1166666.264584v.264583h1.8520833v-.264583zm2.1166666.529166v.529167h.5291667v-.529167zm-2.1166666.264584v.264583h1.8520833v-.264583zm2.1166666.529166v.529167h.5291667v-.529167zm-2.1166666.264584v.264583h1.8520833v-.264583z" fill="#232629"/><text fill="#48484a" font-family="Inter" font-size="2.82222" x="13.448908" y="25.225746"><tspan fill="#48484a" font-family="Inter" font-size="2.82222" stroke-width=".264583" x="13.448908" y="25.225746">Methodology.odt</tspan></text><path d="m7.9375001 24.870833v1.322917h1.3229166v-.264583h.7937503v.264583h1.322916v-1.322917h-1.322916v.264584h-.7937503v-.264584zm.2645833.264584h.79375v.79375h-.79375zm2.1166666 0h.79375v.79375h-.79375zm-1.0583333.264583h.7937503v.264583h-.7937503z" fill="#232629"/><text fill="#48484a" font-family="Inter" font-size="2.82222" x="13.448908" y="32.104919"><tspan fill="#48484a" font-family="Inter" font-size="2.82222" stroke-width=".264583" x="13.448908" y="32.104919">Results</tspan></text></g><path d="m9.5239629 28.575255-3.172933 3.172933h-.00103v1.0604h.2645798.5291667.2666504l3.1724162-3.173966-1.0578166-1.058334h-.0005292-.0005292zm-.5286499.902787.6852295.68523-2.0076294 2.007629v-.420646h-.2645834-.2645833v-.264583-.156063zm-2.1161499 2.11615v.420646h.2645833.2645833v.264583.156063l-.1085205.108521h-.4206461l-.2645834-.264584v-.420646z" fill="#232629"/></g></svg>