<svg height="150" viewBox="0 0 39.687499 39.6875" width="150" xmlns="http://www.w3.org/2000/svg" xmlns:xlink="http://www.w3.org/1999/xlink"><filter id="a" color-interpolation-filters="sRGB" height="1.13824" width="1.136293" x="-.068146" y="-.06912"><feGaussianBlur stdDeviation="1.0668"/></filter><g stroke-width=".264583"><path d="m1.3229163 1.852083 37.5708337-.0000022v37.0416692l-37.5708337.000002z" fill="#48484a" filter="url(#a)" opacity=".557352" stroke-opacity=".501961"/><path d="m1.5875003 2.116667h37.0416677v35.983334h-37.0416677z" fill="#f2f2f7" stroke-opacity=".501961"/><text stroke-linecap="round" stroke-linejoin="round" x="34.924999" y="2.645833"><tspan stroke-width=".264583" x="34.924999" y="2.645833"/></text><path d="m1.5875 2.1166666h37.041668v8.9958334h-37.041668z" fill="#d1d1d6" stroke-linecap="round" stroke-linejoin="round"/><text fill="#48484a" font-family="Inter" font-size="3.52778" stroke-linecap="round" stroke-linejoin="round" x="13.448908" y="7.878621"><tspan fill="#48484a" font-family="Inter" font-size="3.52778" font-weight="bold" stroke-width=".264583" x="13.448908" y="7.878621">Sum (A1:A3)</tspan></text><path d="m1.7197916 11.244792h12.1708334v6.349999h-12.1708334z" fill="#fff" stroke="#aeaeb2" stroke-linecap="round" stroke-linejoin="round"/><path d="m6.0854162 4.4979166 1.0583333 2.1166667-1.0583333 2.1166667h4.2333338v-1.0583334h-.264583v.7937501h-3.4561206l.8764323-1.8520834-.9095052-1.8520834h3.4891935v.7937501h.264583v-1.0583334z" fill="#48484a"/><g stroke-linecap="round" stroke-linejoin="round"><path d="m13.890625 11.244792h12.170833v6.349999h-12.170833z" fill="#fff" stroke="#aeaeb2"/><path d="m26.061458 11.244792h12.435417v6.349999h-12.435417z" fill="#fff" stroke="#aeaeb2"/><path d="m1.7197914 17.594791h12.1708336v6.349999h-12.1708336z" fill="#fff" stroke="#aeaeb2"/><path d="m13.890625 17.594791h12.170833v6.349999h-12.170833z" fill="#fff" stroke="#aeaeb2"/><path d="m26.061458 17.594791h12.435417v6.349999h-12.435417z" fill="#fff" stroke="#aeaeb2"/><path d="m1.5874982 30.427083h37.0416678l.000002 7.672918h-37.041668z" fill="#a1ddaa"/><text fill="#48484a" font-family="Inter" font-size="2.82222" x="5.66048" y="35.285793"><tspan x="5.66048" y="35.285793">Sheet1</tspan></text><path d="m1.7197914 23.944791h12.1708336v6.349999h-12.1708336z" fill="#fff" stroke="#aeaeb2"/><path d="m13.890625 23.944791h12.170833v6.349999h-12.170833z" fill="#fff" stroke="#aeaeb2"/><path d="m26.061458 23.944791h12.435417v6.349999h-12.435417z" fill="#fff" stroke="#aeaeb2"/></g></g><path d="m1.8520833 11.377083v18.917708h11.9062497v-18.917708z" style="fill:#a1ddaa;fill-opacity:.61602;stroke:#309048;stroke-width:.529167;stroke-linecap:round;stroke-linejoin:round"/><path d="m19.314583 30.427082h.529167v7.672916h-.529167z" fill="#aeaeb2"/><text style="fill:#48484a;font-family:Inter;stroke-linecap:round;stroke-linejoin:round;font-size:2.82222;stroke-width:.264583" x="23.652149" y="35.285793"><tspan x="23.652149" y="35.285793">Sheet2</tspan></text></svg>