<svg viewBox="0 0 32 32" xmlns="http://www.w3.org/2000/svg" xmlns:xlink="http://www.w3.org/1999/xlink"><linearGradient id="a" gradientTransform="matrix(-.7567567 0 0 .7567567 35.2973 -3.29728)" gradientUnits="userSpaceOnUse" x1="26.21154" x2="26.21154" y1="43.999989" y2="6.999989"><stop offset="0" stop-color="#faae2a"/><stop offset="1" stop-color="#ffc35a"/></linearGradient><linearGradient id="b" gradientTransform="matrix(1.0769231 0 0 -1.0769231 -1.23077 27.30769)" gradientUnits="userSpaceOnUse" x1="16" x2="16" y1="29.999973" y2="2"><stop offset="0" stop-color="#fcd994"/><stop offset="1" stop-color="#fff6e1"/></linearGradient><linearGradient id="c" gradientUnits="userSpaceOnUse" x1="7.92307725692" x2="23.00000145385" y1="5.76922948154" y2="20.84615314"><stop offset="0" stop-color="#292c2f"/><stop offset="1" stop-opacity="0"/></linearGradient><path d="m2 2v21h7v7l7-7h14v-21z" fill="url(#a)"/><path d="m2 21.894531v1.105469h7v-1zm14 .105469-7 7v1l7-7h14v-1z" fill="#e59305"/><path d="m16 6v2l6.460938 10.039062.378906.652344-13.839844.308594 5 5 2.378906-1.568359h13.621094v-2.431641z" fill="url(#c)" opacity=".2"/><path d="m16 6-7 13h14zm-.001953 2.1074219 5.328125 9.8925781h-10.654297zm-.498047 1.8925781v5h1v-5zm0 6v1h1v-1z" fill="url(#b)"/></svg>