<svg viewBox="0 0 24 24" xmlns="http://www.w3.org/2000/svg" xmlns:xlink="http://www.w3.org/1999/xlink"><clipPath id="a"><path d="m2.5 4c-.8224467.0000822-1.4999181.6775532-1.5 1.5v2.2265625 10.8417965.705079c0 .956242.7703197 1.726562 1.7265625 1.726562h16.5468755c.956242 0 1.726562-.77032 1.726562-1.726562v-11.5468755c0-.9562428-.77032-1.7265625-1.726562-1.7265625h-8.652344c-.6964875 0-1.189639-.5359546-1.689639-1.0359546-.7135427-.9089088-1.003572-.8847452-1.931455-.9640454z"/></clipPath><filter id="b" color-interpolation-filters="sRGB" height="1.273927" width="1.15066" x="-.07533" y="-.136964"><feGaussianBlur stdDeviation=".62775"/></filter><filter id="c" color-interpolation-filters="sRGB" height="1.094553" width="1.097492" x="-.048746" y="-.047277"><feGaussianBlur stdDeviation=".36559322"/></filter><linearGradient id="d" gradientUnits="userSpaceOnUse" x1="12" x2="12" y1="20" y2="9"><stop offset="0" stop-color="#60c0f0"/><stop offset="1" stop-color="#83d4fb"/></linearGradient><linearGradient id="e" gradientTransform="matrix(.52570404 0 0 .58385838 -249.16059 -99.37398)" gradientUnits="userSpaceOnUse" x1="501.53809" x2="501.53809" xlink:href="#f" y1="201.88797" y2="201.0316"/><linearGradient id="f"><stop offset="0" stop-opacity="0"/><stop offset=".19762035" stop-opacity=".886275"/><stop offset=".32936725" stop-opacity=".987151"/><stop offset=".50611204"/><stop offset=".67075688"/><stop offset=".80245411" stop-opacity=".839216"/><stop offset="1" stop-opacity="0"/></linearGradient><linearGradient id="g" gradientUnits="userSpaceOnUse" x1="9.288336" x2="9.288336" xlink:href="#h" y1="17.965574" y2="17.593725"/><linearGradient id="h"><stop offset="0" stop-color="#fff" stop-opacity="0"/><stop offset=".25042552" stop-color="#fff" stop-opacity=".997055"/><stop offset=".48660195" stop-color="#fff"/><stop offset=".72244954" stop-color="#fff" stop-opacity=".990049"/><stop offset="1" stop-color="#fff" stop-opacity=".024082"/></linearGradient><linearGradient id="i" gradientUnits="userSpaceOnUse" x1="9.286696" x2="9.286696" xlink:href="#h" y1="19.482582" y2="19.110735"/><linearGradient id="j" gradientTransform="matrix(.52570404 0 0 .58385838 -249.16223 -97.85697)" gradientUnits="userSpaceOnUse" x1="501.53809" x2="501.53809" xlink:href="#f" y1="201.88797" y2="201.0316"/><g fill-rule="evenodd"><path d="m3.5 3c-.8224467.0000822-1.4999181.6775532-1.5 1.5v2.5 11.568359.705079c0 .956242.7703197 1.726562 1.7265625 1.726562h16.5468755c.956242 0 1.726562-.77032 1.726562-1.726562v-12.5468755c0-.9562428-.77032-1.7265625-1.726562-1.7265625h-8.652344c-.696488 0-1.189639-.5359546-1.689639-1.0359546-.7135427-.9089088-1.003572-.8847452-1.931455-.9640454z" fill="#46a2d7"/><rect clip-path="url(#a)" fill="#3f4e60" filter="url(#b)" height="12" rx="1.72607" transform="translate(1)" width="20" x="1" y="7"/><path d="m3 18.940678h18v2.559322h-18z" filter="url(#c)" opacity=".15" stroke-width="1.015418"/><rect fill="#459fd2" height="13" rx="1.72607" width="20" x="2" y="8"/><rect fill="url(#d)" height="11" rx=".996867" ry="1" width="18" x="3" y="9"/><path d="m2.0068137 17.982992-.001642.517008h19.9948283l.0016-.517008z" fill="url(#e)" opacity=".091389"/><path d="m2.0051717 17.5.00164.482992h19.9948283l-.00164-.482992z" fill="url(#g)" opacity=".091389"/><path d="m2.0035317 19.017008.00164.482992h19.9948283l-.0016-.482992z" fill="url(#i)" opacity=".091389"/><path d="m2.0234375 19.5c.024074.183595.073644.357111.1503906.517578h19.6523439c.07675-.160467.126316-.333983.15039-.517578z" fill="url(#j)" opacity=".09"/><path d="m12.492188 11.957031c-.170022-.000762-.341235.08252-.4375.251953l-2.910157 2.919922c-.363923.365937-.0204.865311.371094.855469l-.015625.015625h2.490234v3.474609c-.03591.700353 1.033956.700353.998047 0v-3.474609h2.511719l-.0293-.0293c.267532.01015.531404-.183169.523438-.498047-.0041-.130047-.05875-.253371-.152344-.34375l-2.916016-2.916015c-.09474-.170283-.263572-.255098-.433593-.25586z" fill="#fff"/></g></svg>