<svg viewBox="0 0 24 24" xmlns="http://www.w3.org/2000/svg"><path d="m6.9902344 4c-.701002 0-1.3568328.1626422-1.9648438.4882812-.608012.3176967-1.1372456.8056232-1.5878906 1.4648438-.44349.6592207-.7932713 1.493266-1.0507812 2.5019531-.2575111 1.0007448-.3867188 2.1846859-.3867188 3.5507809 0 1.366096.1292077 2.553813.3867188 3.5625.2575099 1.000745.6072912 1.829061 1.0507812 2.488282.450645.651278.9798786 1.141158 1.5878906 1.466797.608011.317696 1.2638418.476562 1.9648438.476562s1.3548786-.158867 1.9628906-.476562c.615164-.325639 1.147013-.815519 1.597656-1.466797.450643-.659221.804989-1.487537 1.0625-2.488282.25751-1.008687.386719-2.196404.386719-3.5625 0-1.366095-.129209-2.5500361-.386719-3.5507809-.257511-1.0086871-.611857-1.8427324-1.0625-2.5019531-.450643-.6592206-.982492-1.1471471-1.597656-1.4648438-.608013-.3256391-1.2618886-.4882812-1.9628906-.4882812zm10.9999996 0c-.701002 0-1.356832.1626422-1.964843.4882812-.608012.3176967-1.137246.8056232-1.587891 1.4648438-.44349.6592207-.793271 1.493266-1.050781 2.5019531-.257511 1.0007448-.386719 2.1846859-.386719 3.5507809 0 1.366096.129208 2.553813.386719 3.5625.03867.150274.08411.289082.126953.431641h1.873047c-.102159-.301125-.19517-.626463-.273438-.992188-.171674-.810126-.257812-1.810589-.257812-3.001953 0-1.191362.08615-2.18805.257812-2.990234.171674-.8101266.401377-1.4606951.6875-1.953125.293276-.49243.626087-.8461016.998047-1.0605469.379113-.2144453.776528-.3222656 1.191406-.3222656.414879 0 .812293.1078203 1.191407.3222656.379113.2144453.709969.5681169.996093 1.0605469.293276.4924299.527546 1.1429984.699219 1.953125.171675.802184.257813 1.798872.257813 2.990234 0 1.191364-.08613 2.191829-.257813 3.001953-.078274.365756-.173705.691042-.277344.992188h1.886719c.04301-.142559.08828-.281367.126953-.431641.25751-1.008687.386719-2.196404.386719-3.5625 0-1.366095-.129209-2.5500361-.386719-3.5507809-.257511-1.0086871-.611857-1.8427324-1.0625-2.5019531-.450643-.6592206-.982492-1.1471471-1.597656-1.4648438-.608013-.3256391-1.261889-.4882812-1.962891-.4882812zm-10.9999996 1.6796875c.414879 0 .8122922.1078203 1.1914062.3222656.379113.2144453.7099698.5681169.9960938 1.0605469.293276.4924299.5275457 1.1429984.6992187 1.953125.1716749.802184.2578129 1.798872.2578129 2.990234 0 1.191364-.086134 2.191828-.2578129 3.001953-.171673.802185-.4059427 1.448978-.6992187 1.941407-.286124.492431-.6169808.846101-.9960938 1.060547-.379114.206502-.7765272.310546-1.1914062.310546-.414878 0-.8122933-.104044-1.1914063-.310546-.37196-.214446-.7047709-.568116-.9980469-1.060547-.2861229-.492429-.5158259-1.139223-.6875-1.941407-.1716739-.810125-.2578124-1.810589-.2578124-3.001953 0-1.191362.0861454-2.18805.2578124-2.990234.1716741-.8101266.401377-1.4606951.6875-1.953125.293276-.49243.6260869-.8461016.9980469-1.0605469.379113-.2144453.7765283-.3222656 1.1914063-.3222656zm-6.9902344 13.3203125v4h2v-4z" fill="#696969"/><path d="m18 12c-.554 0-1 .446-1 1v4h-4c-.554 0-1 .446-1 1s.446 1 1 1h4v4c0 .554.446 1 1 1s1-.446 1-1v-4h4c.554 0 1-.446 1-1s-.446-1-1-1h-4v-4c0-.554-.446-1-1-1z" fill="#4d82b8"/></svg>