<svg viewBox="0 0 24 24" xmlns="http://www.w3.org/2000/svg" xmlns:xlink="http://www.w3.org/1999/xlink"><filter id="a" color-interpolation-filters="sRGB" height="1.071" width="2.278" x="-.639" y="-.0355"><feGaussianBlur stdDeviation=".26625"/></filter><linearGradient id="b" gradientUnits="userSpaceOnUse" x1="9" x2="9" y1="15" y2="10"><stop offset="0" stop-color="#5b5b5b"/><stop offset=".5" stop-color="#2d2d2d"/><stop offset="1" stop-color="#2d2d2d"/></linearGradient><linearGradient id="c" gradientUnits="userSpaceOnUse" x1="15" x2="15" y1="18" y2="1"><stop offset="0" stop-color="#4f4f4f"/><stop offset=".88235295" stop-color="#4f4f4f" stop-opacity=".498039"/><stop offset="1" stop-color="#5b5b5b"/></linearGradient><linearGradient id="d" gradientUnits="userSpaceOnUse" x1="10" x2="10" y1="9" y2="5"><stop offset="0" stop-color="#31de4b"/><stop offset="1" stop-color="#28d74b"/></linearGradient><g transform="translate(-1)"><path d="m6 3h14v18h-14z" fill="#2d2d2d"/><path d="m8 5v4h4v-4z" fill="url(#d)"/><path d="m14 5v1h5v-1zm0 3v1h5v-1zm-6 3v1h11v-1zm0 3v1h11v-1zm0 3v1h11v-1z" fill="#f2f2f7"/><g fill="#f2f2f7"><path d="m6 2c-.554 0-1 .446-1 1v18c0 .554.446 1 1 1h14c.554 0 1-.446 1-1v-18c0-.554-.446-1-1-1zm0 1h14v18h-14z"/><path d="m3 3h3v1h-3z"/><path d="m3 5h3v1h-3z"/><path d="m6 4h1v1h-1z"/><path d="m3 3h1v3h-1z"/></g><path d="m4 4h2v1h-2z" fill="#2d2d2d"/><g fill="#f2f2f7"><path d="m3 7h3v1h-3z"/><path d="m3 9h3v1h-3z"/><path d="m6 8h1v1h-1z"/><path d="m3 7h1v3h-1z"/></g><path d="m4 8h2v1h-2z" fill="#2d2d2d"/><g fill="#f2f2f7"><path d="m3 11h3v1h-3z"/><path d="m3 13h3v1h-3z"/><path d="m6 12h1v1h-1z"/><path d="m3 11h1v3h-1z"/></g><path d="m4 12h2v1h-2z" fill="#2d2d2d"/><g fill="#f2f2f7"><path d="m3 15h3v1h-3z"/><path d="m3 17h3v1h-3z"/><path d="m6 16h1v1h-1z"/><path d="m3 15h1v3h-1z"/></g><path d="m4 16h2v1h-2z" fill="#2d2d2d"/><g fill="#f2f2f7"><path d="m3 19h3v1h-3z"/><path d="m3 21h3v1h-3z"/><path d="m6 20h1v1h-1z"/><path d="m3 19h1v3h-1z"/></g><path d="m4 20h2v1h-2z" fill="#2d2d2d"/></g><g transform="translate(6)"><path d="m3 8c-.5539999 0-1.0105156.4460998-.9999999 1v10l3.1992187 3h9.8007812c.554 0 1-.446 1-1v-12c0-.554-.446-1-1-1z" fill="#d1d1d6"/><g fill="#2d2d2d" transform="translate(0 8)"><rect height="6" ry=".280908" width="10" x="4" y="1"/><path d="m6.5 8c-.554 0-1 .446-1 1v3c0 .554.4469243 1.031989 1 1h.5v-4h2v4h3c.554 0 1-.446 1-1v-3c0-.554-.446-1-1-1z" fill="url(#b)"/></g><path d="m7 17h2v1h-2z"/><path d="m14 1h1v15.428571h-1z" fill="url(#c)" filter="url(#a)" transform="matrix(1 0 0 .77777778 .5 8.222222)"/><path d="m16 1h1.237288v10.928571h-1.237288z" fill="url(#c)" filter="url(#a)" transform="matrix(1 0 0 .77777778 -13.237288 8.222222)"/><path d="m6 13h6v1h-6z" fill="#e5e5ea"/><path d="m6 11h6v1h-6z" fill="#e5e5ea"/><path d="m6 9h6v1h-6z" fill="#0a84ff"/></g></svg>