<svg height="24" width="24" xmlns="http://www.w3.org/2000/svg" xmlns:xlink="http://www.w3.org/1999/xlink"><linearGradient id="a" gradientUnits="userSpaceOnUse" x1="8" x2="8" xlink:href="#b" y1="0" y2="11"/><linearGradient id="b"><stop offset="0" stop-color="#fff"/><stop offset="1" stop-color="#ededed"/></linearGradient><linearGradient id="c" gradientUnits="userSpaceOnUse" x1="-5" x2="-5" xlink:href="#b" y1="0" y2="11"/><g transform="translate(0 -1028.3622)"><rect fill="url(#a)" height="14" rx="1" transform="translate(-3 1032.3622)" width="11" x="3"/><path d="m4 1v12h9v-12zm1 1h7v10h-7z" fill="#fff" transform="translate(-3 1032.3622)"/><path d="m1 1032.3622c-.554 0-1 .446-1 1v12c0 .554.446 1 1 1h9c.554 0 1-.446 1-1v-12c0-.554-.446-1-1-1zm0 1h9v12h-9z" opacity=".4"/></g><g transform="translate(13 -1028.3622)"><rect fill="url(#c)" height="14" rx="1" transform="translate(-3 1032.3622)" width="11" x="3"/><path d="m4 1v12h9v-12zm1 1h7v10h-7z" fill="#fff" transform="translate(-3 1032.3622)"/><path d="m1 1032.3622c-.554 0-1 .446-1 1v12c0 .554.446 1 1 1h9c.554 0 1-.446 1-1v-12c0-.554-.446-1-1-1zm0 1h9v12h-9z" opacity=".4"/></g></svg>