<svg height="16" width="16" xmlns="http://www.w3.org/2000/svg" xmlns:xlink="http://www.w3.org/1999/xlink"><filter id="a" color-interpolation-filters="sRGB" height="1.24" width="1.24" x="-.12" y="-.12"><feGaussianBlur stdDeviation=".4"/></filter><linearGradient id="b" gradientUnits="userSpaceOnUse" x1="-114" x2="-106" y1="49" y2="49"><stop offset="0" stop-color="#cabb59"/><stop offset="1" stop-color="#eed535"/></linearGradient><linearGradient id="c" gradientUnits="userSpaceOnUse" x1="2" x2="23" y1="1035.3622" y2="1035.3622"><stop offset="0" stop-color="#b7dd93"/><stop offset=".5" stop-color="#a3d277"/><stop offset="1" stop-color="#b6db92"/></linearGradient><linearGradient id="d" gradientUnits="userSpaceOnUse" x1="4.625" x2="20.125" y1=".25" y2="16"><stop offset="0" stop-color="#fff"/><stop offset="1" stop-color="#fff" stop-opacity="0"/></linearGradient><g transform="translate(0 -1036.3622)"><use height="24" transform="translate(-4 -1026.3622)" width="24" xlink:href="#e"/><use height="24" transform="translate(-2 -1024.3622)" width="24" xlink:href="#e"/><g id="e" transform="translate(-66 521.3622)"><path d="m-106 49c0 2.209139-1.79086 4-4 4s-4-1.790861-4-4 1.79086-4 4-4 4 1.790861 4 4z" fill="url(#b)" transform="translate(0 1028.3622)"/><path d="m-110 45c-2.20914 0-4 1.790861-4 4s1.79086 4 4 4 4-1.790861 4-4-1.79086-4-4-4zm0 1c1.65685 0 3 1.343146 3 3s-1.34315 3-3 3-3-1.343146-3-3 1.34315-3 3-3z" opacity=".4" transform="translate(0 1028.3622)"/><path d="m-110 46c-1.65685 0-3 1.343146-3 3s1.34315 3 3 3 3-1.343146 3-3-1.34315-3-3-3zm0 1c1.10457 0 2 .895431 2 2s-.89543 2-2 2-2-.895431-2-2 .89543-2 2-2z" fill="#fff" opacity=".4" transform="translate(0 1028.3622)"/></g><g transform="matrix(.65217391 0 0 .65217391 0 365.34337)"><path d="m23 1033.3622v10c-1 1-2 1-4 1l-17.43125-.1438v-10.7906l17.43125.9344c1.997133.1071 3 0 4-1z" fill="#abd783"/><path d="m23 1033.3622v10c-1 1-2 1-4 1l-17.4666667-.1333v-10.7334l17.4666667.8667c1.997543.099 3 0 4-1zm-1 2c-1 0-1.806818 0-3.625 0l-15.3083333-.3333v7.6666h15.3333333c1.818182 0 2.6 0 3.6-1.0041z" opacity=".4"/><g transform="translate(-2 2)"><path d="m2 1029.9622h21.466667v10.733386h-21.466667z" fill="url(#c)"/><g transform="translate(0 1028.3622)"><path d="m2 1.6000108v10.7333332h21.466667v-10.7333332zm1.5333333 1.5333334h18.3999997v7.6666668h-18.3999997z" opacity=".3"/><path d="m3.5333333 3.1333442v7.6666668h18.3999997v-7.6666668zm1.5333334 1.5333333h15.3333333v4.6h-15.3333333z" fill="url(#d)" opacity=".4"/></g></g><path d="m19 14a4 4 0 1 1 -8 0 4 4 0 1 1 8 0z" filter="url(#a)" opacity=".2" transform="matrix(1.5506552 0 0 1.125 -10.991079 1027.1122)"/><path d="m12 34.5c0 1.380712-.895431 2.5-2 2.5-1.1045695 0-2-1.119288-2-2.5s.8954305-2.5 2-2.5c1.104569 0 2 1.119288 2 2.5z" opacity=".2" transform="matrix(1.26249996 0 0 1.2 -2.125 995.9622)"/><path d="m11 34c0 .552285-.447715 1-1 1-.5522847 0-1-.447715-1-1s.4477153-1 1-1c.552285 0 1 .447715 1 1z" fill="#a4d379" opacity=".5" transform="matrix(.48958330241 0 0 1 5.60416678637 1002.3622)"/><path d="m3 4.5a.5.5 0 1 1 -1 0 .5.5 0 1 1 1 0z" opacity=".25" transform="matrix(1.5333333 0 0 1.5333333 0 1028.895581)"/><path d="m12 4.5a.5.5 0 1 1 -1 0 .5.5 0 1 1 1 0z" opacity=".25" transform="matrix(1.5333333 0 0 1.5333333 0 1028.895581)"/><g transform="matrix(1.5333333 0 0 1.5333333 36.965954 -552.38685)"><use height="24" transform="translate(-4 -1026.3622)" width="24" xlink:href="#f"/><use height="24" transform="translate(-2 -1024.3622)" width="24" xlink:href="#f"/><g id="f" transform="translate(-66 521.3622)"><path d="m-106 49c0 2.209139-1.79086 4-4 4s-4-1.790861-4-4 1.79086-4 4-4 4 1.790861 4 4z" fill="url(#b)" transform="translate(0 1028.3622)"/><path d="m-110 45c-2.20914 0-4 1.790861-4 4s1.79086 4 4 4 4-1.790861 4-4-1.79086-4-4-4zm0 1c1.65685 0 3 1.343146 3 3s-1.34315 3-3 3-3-1.343146-3-3 1.34315-3 3-3z" opacity=".4" transform="translate(0 1028.3622)"/><path d="m-110 46c-1.65685 0-3 1.343146-3 3s1.34315 3 3 3 3-1.343146 3-3-1.34315-3-3-3zm0 1c1.10457 0 2 .895431 2 2s-.89543 2-2 2-2-.895431-2-2 .89543-2 2-2z" fill="#fff" opacity=".4" transform="translate(0 1028.3622)"/></g><path d="m-106 49a4 4 0 1 1 -8 0 4 4 0 1 1 8 0z" fill="url(#b)" transform="matrix(.8748010079 0 0 .87295957453 80.6223876387 998.99535073567)"/><path d="m8.5 7c-1.932557 0-3.5 1.571511-3.5 3.5s1.567443 3.5 3.5 3.5 3.5-1.571511 3.5-3.5-1.567443-3.5-3.5-3.5zm0 1c1.383193 0 2.5 1.1197186 2.5 2.5 0 1.380281-1.116807 1.483534-2.5 1.483534s-2.5-.103253-2.5-1.483534c0-1.3802814 1.116807-2.5 2.5-2.5z" fill="#7c7233" transform="matrix(1.00000003105 0 0 1.00000004796 -24.1082289551 1031.27113256389)"/><g fill="#fff"><path d="m8.5 8c-1.383193 0-2.5 1.1197186-2.5 2.5 0 1.380281 1.116807 1.527728 2.5 1.527728s2.5-.147447 2.5-1.527728c0-1.3802814-1.116807-2.5-2.5-2.5zm0 1c.8297277 0 1.5.6720189 1.5 1.5 0 .827981-.6702723.527728-1.5.527728s-1.5.300253-1.5-.527728c0-.8279811.6702723-1.5 1.5-1.5z" opacity=".4" transform="matrix(1.00000003105 0 0 1.00000004796 -24.1082289551 1031.27113256389)"/><path d="m18 14a3 3 0 1 1 -6 0h3z" opacity=".4" transform="matrix(.45726319 -.69161059 .69161059 .45726319 -32.374726 1045.6052)"/></g></g></g></g></svg>