<?xml version="1.0" encoding="UTF-8" standalone="no"?>
<svg xmlns:rdf="http://www.w3.org/1999/02/22-rdf-syntax-ns#" xmlns="http://www.w3.org/2000/svg" height="16" width="16" version="1.1" xmlns:cc="http://creativecommons.org/ns#" xmlns:xlink="http://www.w3.org/1999/xlink" xmlns:dc="http://purl.org/dc/elements/1.1/">
 <defs>
  <linearGradient id="linearGradient8468">
   <stop stop-color="#fff" offset="0"/>
   <stop stop-color="#fff" stop-opacity="0" offset="1"/>
  </linearGradient>
  <linearGradient id="linearGradient8537" y2="8" xlink:href="#linearGradient8468" gradientUnits="userSpaceOnUse" x2="17" gradientTransform="matrix(0,1,-1,0,23,1)" y1="2" x1="17"/>
  <linearGradient id="linearGradient8539" y2="21" gradientUnits="userSpaceOnUse" x2="17" gradientTransform="matrix(0,-1,1,0,-1,23)" y1="3" x1="17">
   <stop stop-color="#fff" offset="0"/>
   <stop stop-color="#eaeaea" offset="1"/>
  </linearGradient>
  <linearGradient id="linearGradient8541" y2="22" xlink:href="#linearGradient8468" gradientUnits="userSpaceOnUse" x2="12" gradientTransform="matrix(0,-1,1,0,-1,23)" y1="16" x1="12"/>
 </defs>
 <g transform="translate(0 -1036.4)">
  <path opacity=".4" d="m1.511 1044.9h12.978" stroke="#000" stroke-linecap="square" stroke-dasharray="1.01093389, 2.02186778" stroke-width="1.0109" fill="none"/>
  <g transform="matrix(0 -.66667 .63494 0 -652.57 1052.7)">
   <path d="m14 3v18h9z" transform="translate(0 1028.4)" fill="#ad7ea8"/>
   <path opacity=".4" d="m14 3v18h9l-9-18zm1 5 6 12h-6v-12z" transform="translate(0 1028.4)"/>
   <path opacity=".4" d="m15 8v12h6l-6-12zm1 5 3 6h-3v-6z" transform="translate(0 1028.4)" fill="url(#linearGradient8537)"/>
  </g>
  <g transform="matrix(0 .66667 .63494 0 -652.57 1037)">
   <path d="m14 3v18h9z" transform="translate(0 1028.4)" fill="url(#linearGradient8539)"/>
   <path opacity=".4" d="m14 3v18h9l-9-18zm1 5 6 12h-6v-12z" transform="translate(0 1028.4)"/>
   <path opacity=".4" d="m15 8v12h6l-6-12zm1 5 3 6h-3v-6z" transform="translate(0 1028.4)" fill="url(#linearGradient8541)"/>
  </g>
 </g>
</svg>
