<svg height="32" width="32" xmlns="http://www.w3.org/2000/svg" xmlns:xlink="http://www.w3.org/1999/xlink"><radialGradient id="a" cx="99.157013" cy="186.17059" gradientTransform="matrix(.17524541 0 0 .05575992 -1.37681 18.11895)" gradientUnits="userSpaceOnUse" r="62.769119"><stop offset="0" stop-color="#3d3d3d"/><stop offset=".5" stop-color="#686868" stop-opacity=".498039"/><stop offset="1" stop-color="#686868" stop-opacity="0"/></radialGradient><linearGradient id="b" gradientUnits="userSpaceOnUse" x1="15.613884" x2="15.613884" y1="2.047801" y2="29.852878"><stop offset="0" stop-color="#fff"/><stop offset=".507761" stop-color="#fff" stop-opacity=".235294"/><stop offset=".83456558" stop-color="#fff" stop-opacity=".156863"/><stop offset="1" stop-color="#fff" stop-opacity=".392157"/></linearGradient><linearGradient id="c" gradientTransform="matrix(1.1113759 0 0 .83086027 -2249.8942 -2663.1587)" gradientUnits="userSpaceOnUse" x1="2035.1652" x2="2035.1652" y1="3208.0737" y2="3241.9966"><stop offset="0" stop-color="#64baff"/><stop offset="1" stop-color="#3689e6"/></linearGradient><path d="m27.000001 28.499804a11 3.4999999 0 1 1 -21.9999997 0 11 3.4999999 0 1 1 21.9999997 0z" fill="url(#a)"/><path d="m15.999999 1.4999997c-8.000603 0-14.5 6.4993973-14.5 14.5000003s6.499397 14.5 14.5 14.5c8.000604 0 14.500015-6.499397 14.500001-14.5 0-8.000603-6.499397-14.5000003-14.500001-14.5000003z" fill="url(#c)" opacity=".99"/><path d="m29.5 15.999517c0 7.456096-6.044607 13.500489-13.499837 13.500489-7.455912 0-13.5001626-6.044464-13.5001626-13.500489 0-7.4557408 6.0442506-13.4995231 13.5001626-13.4995231 7.45523 0 13.499837 6.0437824 13.499837 13.4995231z" fill="none" opacity=".5" stroke="url(#b)" stroke-linecap="round" stroke-linejoin="round"/><path d="m16.000001 1.5017981c-7.9996071 0-14.4982031 6.4985937-14.4982031 14.4982009 0 7.999609 6.498596 14.498206 14.4982031 14.498203 7.999605 0 14.498209-6.498594 14.498201-14.498203 0-7.9996072-6.498596-14.4982009-14.498201-14.4982009z" fill="none" opacity=".5" stroke="#002e99" stroke-linecap="round" stroke-linejoin="round"/><path d="m18.34375 6.0312504c-.0255-.00135-.03725.031861-.0625.03125-.01054.0001579-.02068-.0002953-.03125 0-1.35571-.016063-2.350157.9942143-2.6875 2.09375-.173133.5643104-.224753 1.2113961-.03125 1.8125.193503.6011036.656639 1.1643006 1.3125 1.4687496a.95737768.95737768 0 0 0 .03125 0c2.084442.854849 4.273239-1.115916 3.84375-3.2499996-.0065-.03238.0077-.061309 0-.09375h-.03125c-.206571-1.1248145-1.147589-2.0181716-2.34375-2.03125zm-.75 6.3124996c-.536723-.0441-.98401.248972-1.40625.53125l-.03125-.0625c-.07106.03095-.117553.09285-.1875.125-1.811393.832589-3.286106 2.016112-4.71875 3.0625a.95737768.95737768 0 0 0 -.34375 1.125c.102217.277874.100526.592509.625 1 .262237.203746.803188.321312 1.15625.1875.224751-.08518.340742-.215831.46875-.34375.184676-.109877.381197-.206187.59375-.34375-.54875 2.308654-1.156526 4.626997-1.65625 7h.03125c-.343604 1.018816-.11613 2.093879.59375 2.75.702454.649258 1.8484.707746 2.8125.15625l.03125.03125c.06013-.02479.09697-.06796.15625-.09375 1.58005-.687456 2.890007-1.697155 4.125-2.5625a.95737768.95737768 0 0 0 .3125-1.15625c-.05379-.131918-.05685-.396712-.40625-.84375-.174702-.223519-.667616-.517736-1.125-.4375-.270477.04745-.353259.189468-.5.3125l-.03125-.03125c-.313004.142069-.458811.278293-.6875.4375.543149-2.352581 1.272384-4.704575 1.84375-7.1875.01518-.06598.04766-.121342.0625-.1875h-.0625c.255508-.687803.302226-1.435374.0625-2.0625-.261501-.68409-.856298-1.335389-1.71875-1.40625z" fill="#002e99" opacity=".05"/><path d="m11.8 16.787587c.191223.519832.406458.941195.864931.365039.568405-.338187 2.472919-1.820561 2.282349-.368542-.609824 2.686875-1.352116 5.345494-1.919681 8.040646-.593471 1.475717.754185 2.810565 2.161236 1.850899 1.495604-.616549 2.782567-1.620801 4.097346-2.542051-.179393-.43995-.298961-1.071935-.794641-.496581-.650854.295414-2.07239 1.688183-2.336485.539461.546711-2.9094 1.559643-5.7111 2.207127-8.597302.595853-1.327069-.377292-3.003869-1.833979-1.9061-1.745148.760068-3.20455 2.001671-4.728203 3.114531zm6.476807-9.7853059c-1.780567-.09449-2.711509 2.77583-1.019448 3.5612799 1.372757.56298 2.867444-.8449569 2.532085-2.2518109-.104074-.732561-.761774-1.334112-1.512636-1.309469z" fill="#002e99" opacity=".15"/><path d="m11.8 15.787587c.191223.519832.406458.941195.864931.365039.568405-.338187 2.472919-1.820561 2.282349-.368542-.609824 2.686875-1.352116 5.345494-1.919681 8.040646-.593471 1.475717.754185 2.810565 2.161236 1.850899 1.495604-.616549 2.782567-1.620801 4.097346-2.542051-.179393-.43995-.298961-1.071935-.794641-.496581-.650854.295414-2.07239 1.688183-2.336485.539461.546711-2.9094 1.559643-5.7111 2.207127-8.597302.595853-1.327069-.377292-3.003869-1.833979-1.9061-1.745148.760068-3.20455 2.001671-4.728203 3.114531zm6.476807-9.7853066c-1.780567-.09449-2.711509 2.77583-1.019448 3.56128 1.372757.5629806 2.867444-.844957 2.532085-2.251811-.104074-.732561-.761774-1.334112-1.512636-1.309469z" fill="#fff"/></svg>