<svg viewBox="0 0 26 26" xmlns="http://www.w3.org/2000/svg" xmlns:xlink="http://www.w3.org/1999/xlink"><filter id="a" color-interpolation-filters="sRGB" height="1.094553" width="1.097492" x="-.048746" y="-.047277"><feGaussianBlur stdDeviation=".36559322"/></filter><path d="m1 19.940678h23v2.559322h-23z" filter="url(#a)" opacity=".15" stroke-width="1.015418"/><path d="m1 4h23v17h-23z" fill="#f2f2f7"/><path d="m1 3c-.554 0-1 .446-1 1v17c0 .554.446 1 1 1h23c.554 0 1-.446 1-1v-17c0-.554-.446-1-1-1zm0 1h23v17h-23z" fill="#8e8e93"/><path d="m12 4h1v17h-1z" fill="#8e8e93"/><path d="m3 4v2h-2v1h2v11h-2v1h2v2h1v-2h5v2h1v-2h2v-1h-2v-11h2v-1h-2v-2h-1v2h-5v-2zm12 0v2h-2v1h2v11h-2v1h2v2h1v-2h5v2h1v-2h2v-1h-2v-11h2v-1h-2v-2h-1v2h-5v-2zm-11 3h5v11h-5zm12 0h5v11h-5z" fill="#0040dd"/></svg>