<svg viewBox="0 0 16 16" xmlns="http://www.w3.org/2000/svg" xmlns:xlink="http://www.w3.org/1999/xlink"><linearGradient id="a" gradientUnits="userSpaceOnUse" x1="8" x2="8" y1="4" y2="14"><stop offset="0" stop-color="#b0b0b0"/><stop offset=".5" stop-color="#b5b5b5"/><stop offset=".71428573" stop-color="#bababa"/><stop offset=".9285714" stop-color="#aaa"/><stop offset="1" stop-color="#a2abaf"/></linearGradient>







     /&amp;amp;amp;amp;amp;gt;
 <g fill-rule="evenodd" stroke="#8d8d8d" transform="translate(1 -1)"><path d="m3.5 2.5000002c.265199.0000511.519519.1054326.707031.2929688l3.207031 1.7070312 5.085938-.0000004c.552262.0000552.999945.4477381 1 1.0000002v9h-1-12v-8.5-2.5c.000055-.5522619.447738-.9999448 1-1z" fill="#c9c9c9"/><path d="m.5 14.5h1 12v-7c.29761-.9920364-1.78201-.9921875-.742188-.9921875h-.002-1-1-8.9785156c-1.02113938 0-1.02076208-.0005516-1.27924988.9902344z" fill="url(#a)"/></g><path d="m6 8v.5.5 6.5c0 .277.223.5.5.5h9c.277 0 .5-.223.5-.5v-6.5-.5-.5h-.5-9z" fill="#686361"/><path d="m7 10h8v5h-8z" fill="#fff"/><g fill="#98989d"><path d="m8 11h2v2h-2z"/><rect height="1" ry=".5" width="3" x="11" y="11"/><rect height="1" ry=".5" width="3" x="11" y="13"/></g></svg>