<svg viewBox="0 0 16 16" xmlns="http://www.w3.org/2000/svg" xmlns:xlink="http://www.w3.org/1999/xlink"><filter id="a" color-interpolation-filters="sRGB" height="1.094553" width="1.097492" x="-.048746" y="-.047277"><feGaussianBlur stdDeviation=".36559322"/></filter><linearGradient id="b" gradientTransform="matrix(.58333333 0 0 .6779661 5.25 5.966102)" gradientUnits="userSpaceOnUse" x1="13" x2="13" y1="3" y2="7"><stop offset="0" stop-color="#c8c8cb"/><stop offset="1" stop-color="#98989d"/></linearGradient><linearGradient id="c" gradientUnits="userSpaceOnUse" x1="6" x2="6" y1="15" y2="23.5"><stop offset="0" stop-color="#848489"/><stop offset="1" stop-color="#616165"/></linearGradient><linearGradient id="d" gradientUnits="userSpaceOnUse" x1="8" x2="8" y1="4" y2="14"><stop offset="0" stop-color="#68caf8"/><stop offset=".5" stop-color="#70cef9"/><stop offset=".71428573" stop-color="#79d3fb"/><stop offset=".9285714" stop-color="#67c1ed"/><stop offset="1" stop-color="#67bfea"/></linearGradient>









     /&amp;amp;amp;amp;amp;amp;amp;gt;
 <path d="m2 11.940678h12v2.559322h-12z" filter="url(#a)" opacity=".15" stroke-width="1.015418"/><g fill-rule="evenodd" transform="translate(1 -1)"><path d="m3.5 2.5000002c.265199.0000511.519519.1054326.707031.2929688l3.207031 1.7070312 5.085938-.0000004c.552262.0000552.999945.4477381 1 1.0000002v9h-1-12v-8.5-2.5c.000055-.5522619.447738-.9999448 1-1z" fill="#94ddff" stroke="#2bbcff"/><path d="m.5 14.5h1 12v-7c.29761-.9920364-1.78201-.9921875-.742188-.9921875h-.002-1-1-8.9785156c-1.02113938 0-1.02076208-.0005516-1.27924988.9902344z" fill="url(#d)" stroke="#15b0f5"/></g><path d="m6 7v.5.5 7.5c0 .277.223.5.5.5h9c.277 0 .5-.223.5-.5v-7.5-.5-.5h-.5-9z" fill="url(#c)"/><path d="m7 10h8v5h-8z" fill="#fff"/><g fill="#bababa"><path d="m8 11h2v2h-2z"/><rect height="1" ry=".5" width="3" x="11" y="11"/><rect height="1" ry=".5" width="3" x="11" y="13"/></g><path d="m7 8h8v2h-8z" fill="url(#b)" stroke-width=".628872"/></svg>