<svg viewBox="0 0 128 128" xmlns="http://www.w3.org/2000/svg" xmlns:xlink="http://www.w3.org/1999/xlink"><linearGradient id="a" gradientTransform="matrix(2.75 0 0 2.775 3.505225 -.357079)" gradientUnits="userSpaceOnUse" x1="5.9981" x2="5.9981" y1="42.011559" y2="3.01156"><stop offset="0" stop-color="#f5f5f5"/><stop offset=".3888889" stop-color="#fdfdfd"/><stop offset="1" stop-color="#fff"/></linearGradient><path d="m16.502154.03604605c-3.667081.69972875-4.565532 2.26600165-4.499774 5.99775495v115.968479c.0004 4.1875 1.811221 5.99736 5.999725 5.99776h91.997085c4.18852-.0004 5.99934-1.81026 5.99974-5.99776v-71.819194c.048-2.111901-.77997-4.2306-2.24993-5.748411l-42.161997-42.1492609c-1.51819-1.46919049-3.637401-2.29830908-5.749813-2.24936805h-47.835085c-.498384-.0479814-1.001407-.0479814-1.499951 0z" fill="#925100"/><path d="m18.000147 5.9918v2 112 2h1.999997 88.000006 2v-2-70-.8752l-.62497-.6248-41.750007-42-.499969-.5h-.875016-46.250044z" fill="#f9f9f9"/><path d="m20 8h46.75l41.25 41.625v69.375l-88 1z" fill="url(#a)" stroke-width="2.762472"/><path d="m86.634994.06163285c-2.662473.85278942-3.558524 4.90601815-1.505951 6.81207925l24.095137 24.2209309c2.22593 2.121657 6.65946.306281 6.77674-2.775324v-24.220851c-.00024-2.1136607-1.91322-4.03659524-4.01587-4.03683515h-24.095136c-.415187-.0639752-.839973-.0639752-1.25492 0z" fill="#925100"/><path d="m69 68a18 18 0 0 1 -18 18 18 18 0 0 1 -18-18 18 18 0 0 1 18-18 18 18 0 0 1 18 18z" fill="#ff453a"/><path d="m51 48a20 20 0 0 0 -20 20 20 20 0 0 0 20 20 20 20 0 0 0 20-20 20 20 0 0 0 -20-20zm0 2a18 18 0 0 1 18 18 18 18 0 0 1 -18 18 18 18 0 0 1 -18-18 18 18 0 0 1 18-18z" fill="#ad3a00"/><path d="m61.99924 93.9986c-.5523-.0001-.9999-.4477-1-1v-32c.0001-.5523.4477-.9999 1-1h32c.5523.0001.9999.4477 1 1v32c-.0001.5523-.4477.9999-1 1zm1-2h30v-30h-30z" fill="#925100"/><path d="m62.99924 91.9986h30v-30h-30z" fill="#ff9500"/><path d="m55.59954 68.0777c-.2217.079-.4124.2313-.5295.424l-9.8301 16.0413-10.0585 15.7153c-.4092.5886-.1611 1.7898 1.0709 1.7394h19.7251 19.3839c1.1879 0 1.4314-1.2862.7975-2.39l-9.4439-15.0647-9.8301-16.0413c-.2412-.4057-.825-.5983-1.2853-.424zm.3779 2.8974 8.9984 14.4866 8.9983 14.5573h-17.9967-17.9966l8.9982-14.5573z" fill="#925100"/><path d="m73.991158 100.00275h-18.000038-18.000038l9.000129-14.500015 8.999909-14.499993 8.999909 14.499993z" fill="#ffd60a"/><path d="m34 99h4v4h-4z" fill="#fff"/><path d="m33 98v6h6v-6zm1 1h4v4h-4z" fill="#98989d"/><g transform="translate(40)"><path d="m34 99h4v4h-4z" fill="#fff"/><g fill="#98989d"><path d="m33 98v6h6v-6zm1 1h4v4h-4z"/><path d="m33 98v6h6v-6zm1 1h4v4h-4z"/></g></g><g transform="translate(20 -32)"><path d="m34 99h4v4h-4z" fill="#fff"/><g fill="#98989d"><path d="m33 98v6h6v-6zm1 1h4v4h-4z"/><path d="m33 98v6h6v-6zm1 1h4v4h-4z"/></g></g></svg>