<svg viewBox="0 0 16 16" xmlns="http://www.w3.org/2000/svg" xmlns:xlink="http://www.w3.org/1999/xlink"><filter id="a" color-interpolation-filters="sRGB" height="1.094553" width="1.097492" x="-.048746" y="-.047277"><feGaussianBlur stdDeviation=".36559322"/></filter><linearGradient id="b" gradientUnits="userSpaceOnUse" x1="8" x2="8" y1="4" y2="14"><stop offset="0" stop-color="#68caf8"/><stop offset=".5" stop-color="#70cef9"/><stop offset=".71428573" stop-color="#79d3fb"/><stop offset=".9285714" stop-color="#67c1ed"/><stop offset="1" stop-color="#67bfea"/></linearGradient>









     /&amp;amp;amp;amp;amp;amp;amp;amp;gt;
 <path d="m1 11.940678 11.5.059322-1 2.5h-10.5z" filter="url(#a)" opacity=".15" stroke-width="1.015418"/><g fill-rule="evenodd" transform="translate(0 -1)"><path d="m3.5 2.5000002c.265199.0000511.519519.1054326.707031.2929688l3.207031 1.7070312 5.085938-.0000004c.552262.0000552.999945.4477381 1 1.0000002l-1 9h-1-11v-8.5-2.5c.000055-.5522619.447738-.9999448 1-1z" fill="#c9c9c9" stroke="#959595"/><path d="m.79012198 14.5h1.00000002 10.709878l2.744141-7.0078125c.29761-.9920364.297634-.9921875-.742188-.9921875h-.002-1-1-7.6883936c-1.0211394 0-1.0207621-.0005516-1.2792499.9902344l-1.7421875 4.1757816z" fill="url(#b)" stroke="#858585"/></g><path d="m8.4963505 14.627737c0-.483766.5198831-.863927 1.0036495-.863927v-3.107757-.395893-.8759126c0-.4852599.3322638-.8749455.817518-.8759125l4.182482-.0083349c.483766-.0009641.934307.3921461.934307.8759125 0 .4837662-.45054.8759125-.934307.8759125v3.941605.437957c0 .48526-.332263.87633-.817518.875913l-4.2518249-.00365c-.4837662-.000415-.9343066-.392147-.9343066-.875913z" fill="#fff" stroke="#98989d"/><path d="m14 8v1c1 0 1 1 0 1v.802734.197266h2v-1.125.0722656c0-1.4472656-.5637-2.0842682-2-1.9472656z" fill="#686361"/><path d="m14 9v1h1c.0062-.6816379 0-1-1-1z" fill="#98989d"/><path d="m8 13v1c0 2.365854 4.449046 1 5.5 1 .171876-.000857.127481.05859.289062 0-.289062 0-.789062 0-.789062-.330074v-.169926-.5-1z" fill="#656565"/><path d="m10 13-1.138.197266c-1.0714617.240703-.862.27521-.862 1.427734 0 1.346001 1.1942339 1.375 2.5 1.375h4c.482249-.05279.5-.749289.5-1.17773-.17551.09242-.342241.153648-.464844.154296l-.287109.002c.05558.0097.111657.01618.167969.01953l-1.416016-.007862h-.957031c-1.847624.014468.382033.009766-1.465629.009766-.0974-.000134-.269983-.01131-.362496-.0293-.7558335-.181292-.9610572.266409-1.2089846-.300778h-.0058594v-.044922-.125-.5h1.5.5v-1zm4.605469 1.994141.002.0059h-.0957c.0313-.000974.06257-.0029.09375-.0059z" fill="#656565"/><path d="m9 14v.5.169922h.011719c-.011719.425534.7263879.32903 1.488281.330078l.304688-.0098h1.195312l1.416016.0078c-.593539.002-1.416016.002-1.416016-.328078v-.169922-.5zm4.605469.994141c-.03118.0029-.06245.0049-.09375.0059h.0957z" fill="#98989d"/></svg>