<svg viewBox="0 0 32 32" xmlns="http://www.w3.org/2000/svg" xmlns:xlink="http://www.w3.org/1999/xlink"><linearGradient id="a" gradientUnits="userSpaceOnUse" x1="20" x2="23" y1="9" y2="6"><stop offset="0" stop-color="#f2f2f7"/><stop offset=".77967989" stop-color="#f2f2f7"/><stop offset="1" stop-color="#d1d1d6"/></linearGradient><radialGradient id="b" cx="22" cy="9.076923" gradientTransform="matrix(1.3 .00000001 -.00000002 1.5 -6.6 -6.615385)" gradientUnits="userSpaceOnUse" r="10"><stop offset="0" stop-color="#e5e5ea"/><stop offset=".29999998" stop-color="#f2f2f7"/><stop offset="1" stop-color="#f2f2f7"/></radialGradient><filter id="c" color-interpolation-filters="sRGB" height="1.685669" width="1.087742" x="-.043871" y="-.342834"><feGaussianBlur stdDeviation=".36559322"/></filter><path d="m6 27.940678h20v2.559322h-20z" filter="url(#c)" opacity=".15" stroke-width="1.01542"/><path d="m6 3v26h19.99762l.00238-19-7-7z" fill="url(#b)"/><path d="m5.9976202 2c-.554 0-1 .446-1 1v26c0 .554.446 1 1 1h19.9999998c.554 0 .892483-.456533 1-1v-10.109375-10.5052752l-6.508082-6.3853498zm0 1h12.9999998v6c0 .6726441.491378 1 1 1h6v19h-19.9999998z" fill="#8e8e93"/><path d="m20 9h6l-6-6z" fill="url(#a)" fill-rule="evenodd"/><g fill="#ff9500"><path d="m8.5 13c-.2769997 0-.5.223-.5.5s.2230003.5.5.5h15c.277 0 .5-.223.5-.5s-.223-.5-.5-.5zm2 2c-.277 0-.5.223-.5.5s.223.5.5.5h11c.277 0 .5-.223.5-.5s-.223-.5-.5-.5zm-2 4a.5.5 0 0 0 -.5.5.5.5 0 0 0 .5.5.5.5 0 0 0 .5-.5.5.5 0 0 0 -.5-.5zm2 0c-.277 0-.5.223-.5.5s.223.5.5.5h4c.277 0 .5-.223.5-.5s-.223-.5-.5-.5zm-2 2a.5.5 0 0 0 -.5.5.5.5 0 0 0 .5.5.5.5 0 0 0 .5-.5.5.5 0 0 0 -.5-.5zm2 0c-.277 0-.5.223-.5.5s.223.5.5.5h4c.277 0 .5-.223.5-.5s-.223-.5-.5-.5zm-2 2a.5.5 0 0 0 -.5.5.5.5 0 0 0 .5.5.5.5 0 0 0 .5-.5.5.5 0 0 0 -.5-.5zm2 0c-.277 0-.5.223-.5.5s.223.5.5.5h4c.277 0 .5-.223.5-.5s-.223-.5-.5-.5z"/><path d="m17 19c-.554 0-1 .446-1 1v4c0 .554.446 1 1 1h6c.554 0 1-.446 1-1v-4c0-.554-.446-1-1-1zm5.4219 1.0059a.5.5 0 0 1 .43164.14062.5.5 0 0 1 0 .70703l-2.3535 2.3535-1-1-1.6465 1.6465a.5.5 0 0 1 -.70703 0 .5.5 0 0 1 0-.70703l2.3535-2.3535 1 1 1.6465-1.6465a.5.5 0 0 1 .27539-.14062z"/></g></svg>