<svg viewBox="0 0 16 16" xmlns="http://www.w3.org/2000/svg" xmlns:xlink="http://www.w3.org/1999/xlink"><linearGradient id="a" gradientUnits="userSpaceOnUse" x1="15" x2="15" y1="18" y2="1"><stop offset="0" stop-color="#4f4f4f"/><stop offset=".88235295" stop-color="#4f4f4f" stop-opacity=".498039"/><stop offset="1" stop-color="#b7b7b7"/></linearGradient><filter id="b" color-interpolation-filters="sRGB" height="1.071" width="2.278" x="-.639" y="-.0355"><feGaussianBlur stdDeviation=".26625"/></filter><linearGradient id="c" gradientUnits="userSpaceOnUse" x1="9" x2="9" y1="15" y2="10"><stop offset="0" stop-color="#dadada"/><stop offset=".5" stop-color="#fff"/><stop offset="1" stop-color="#fff"/></linearGradient>






     /&amp;amp;amp;amp;gt;
 <g transform="translate(-1)"><path d="m2 .00000022c-.554.00000001-1 .446-1 .99999998v11.9999998l3.1992188 3h10.8007812c.554 0 1-.446 1-1v-14c0-.554-.446-1-1-1z" fill="#3e3e3e"/><g fill="#fff"><rect height="6" ry=".280908" width="11" x="3" y="1"/><path d="m5 10c-.554 0-1 .446-1 1v3c0 .554.4469243 1.031989 1 1h1v-4h2v4h4c.554 0 1-.446 1-1v-3c0-.554-.446-1-1-1z" fill="url(#c)"/></g><path d="m6 11h2v1h-2z"/><path d="m14 1h1v18h-1z" fill="url(#a)" filter="url(#b)" transform="matrix(1 0 0 .77777778 .5 .222222)"/><path d="m15 1.0000003h1.237288v16.7142857l-1.237288-1.285714z" fill="url(#a)" filter="url(#b)" transform="matrix(1 0 0 .77777778 -13.237288 .222222)"/><path d="m4 5h9v1h-9z" fill="#bababa"/><path d="m4 3h9v1h-9z" fill="#bababa"/><path d="m4 1h9v1h-9z" fill="#0a84ff"/><path d="m13 9a4 4 0 0 0 -4 4 4 4 0 0 0 1.361328 3h3.638672c.554 0 1-.446 1-1v-5.4589844a4 4 0 0 0 -2-.5410156z" fill="#fff" fill-opacity=".784314" transform="translate(1)"/></g><path d="m16 13a3 3 0 0 1 -3 3 3 3 0 0 1 -3-3 3 3 0 0 1 3-3 3 3 0 0 1 3 3z" fill="#d70015"/></svg>