<svg viewBox="0 0 24 24" xmlns="http://www.w3.org/2000/svg" xmlns:xlink="http://www.w3.org/1999/xlink"><filter id="a" color-interpolation-filters="sRGB" height="1.077483" width="2.017422" x="-.508711" y="-.038742"><feGaussianBlur stdDeviation=".21196289"/></filter><linearGradient id="b" gradientUnits="userSpaceOnUse" x1="13" x2="13" y1="21" y2="15"><stop offset="0" stop-color="#dadada"/><stop offset=".5" stop-color="#fff"/><stop offset="1" stop-color="#fff"/></linearGradient><linearGradient id="c" gradientUnits="userSpaceOnUse" x1="4" x2="4" y1="18" y2="3"><stop offset="0" stop-color="#4f4f4f"/><stop offset=".80000001" stop-color="#4f4f4f" stop-opacity=".498039"/><stop offset="1" stop-color="#b7b7b7"/></linearGradient><filter id="d" color-interpolation-filters="sRGB" height="1.082452" width="2.278" x="-.639" y="-.041226"><feGaussianBlur stdDeviation=".26625"/></filter><linearGradient id="e" gradientUnits="userSpaceOnUse" x1="21" x2="21" y1="20" y2="3"><stop offset="0" stop-color="#4f4f4f"/><stop offset=".88235295" stop-color="#4f4f4f" stop-opacity=".498039"/><stop offset="1" stop-color="#b7b7b7"/></linearGradient><g fill="#fff"><rect height="8" ry="1" width="16" x="4" y="3"/><path d="m8 15c-.554 0-1 .446-1 1v4c0 .554.446 1 1 1h2v-5h2v5h5c.554 0 1-.446 1-1v-4c0-.554-.446-1-1-1z"/></g><path d="m4 2c-.554 0-1 .446-1 1v15l3 4h10.541016a4.0006466 4.0006466 0 0 1 -.541016-2 4.0006466 4.0006466 0 0 1 4-4 4.0006466 4.0006466 0 0 1 2 .539062v-13.539062c0-.554-.446-1-1-1z" fill="#3e3e3e"/><g fill="#fff"><rect height="8" ry=".46741" width="13" x="6" y="3"/><path d="m8 15c-.554 0-1 .446-1 1v4c0 .554.446 1 1 1h2v-5h2v5h4.128906a4.0006466 4.0006466 0 0 1 -.128906-1 4.0006466 4.0006466 0 0 1 2-3.458984v-.541016c0-.554-.446-1-1-1z" fill="url(#b)"/></g><rect fill="url(#c)" filter="url(#d)" height="15.5" rx=".351695" width="1" x="3.5" y="3"/><path d="m10 16h2v.5h-2z" fill="#2a2a2a"/><path d="m20 3v13a4.0006466 4.0006466 0 0 1 1 .130859v-13.130859z" fill="url(#e)" filter="url(#a)"/><path d="m4.5 12v2h12.5c1.386366.714919 2.401647.884583 2.849609 2.005859a4.0006466 4.0006466 0 0 1 .150391-.005859v-4z" fill="#3b3b3b"/><path d="m8 3h9v1h-9z" fill="#0a84ff"/><path d="m8 6h9v1h-9z" fill="#bababa"/><path d="m8 8h9v1h-9z" fill="#bababa"/><circle cx="20" cy="20" fill="#d70015" r="3"/></svg>