<svg viewBox="0 0 16 16" xmlns="http://www.w3.org/2000/svg"><path d="m1.8125656.00599975c-.4583913.08746719-.82070444.53319998-.8124846.99962505v13.9947492c.00005.523384.4764109.999575.999981.999625h11.999772c.52357-.00005.999931-.476241.999981-.999625v-7.9969992c.006-.263961-.0975-.5287717-.281245-.7184805l-5.9998857-5.99775001c-.1897764-.18363112-.4546813-.28726224-.7187363-.28114454h-5.999886c-.0622988-.00599775-.1251776-.00599775-.1874964 0z" fill="#ad3a00"/><path d="m11.343634.00599975c-.331493.10559039-.443051.60743213-.187496.8434336l2.999943 2.99887505c.277145.2626914.829134.037886.843734-.3436211v-2.99887505c-.00003-.26169182-.238205-.49978251-.49999-.4998125h-2.999943c-.0517-.007997-.104589-.007997-.156248 0z" fill="#ad3a00"/><path d="m2.00031.99933038v.50000002 12.9999996.5h.49999 10.99979.5v-.5-7.3124996-.2188l-.15625-.125-5.6874-5.7187-.15624-.12500002h-.1875-5.3124z" fill="#fff"/><path d="m4.99973 5.98722h8v7h-8z" fill="#fff"/><g fill="#98989d" transform="scale(.66688354 1)"><path d="m2.0019531 2v1h1v-1zm0 2v1h1v-1zm0 2v1h1v-1zm0 2v1h1v-1zm0 2v1h1v-1zm0 2v1h1v-1z"/><path d="m0 2v1h2v-1zm0 2v1h2v-1zm0 2v1h2v-1zm0 2v1h2v-1zm0 2v1h2v-1zm0 2v1h2v-1z" stroke-width="1.414214"/></g><path d="m2 1v1h1v1h-1v1h1v1h-1v3h1v1h-1v1h1v1h-1v1h1v1h-1v2h2v-14zm.00195 5h1v1h-1z" fill="#ad3a00"/><path d="m5.0002 6v1 1 1 1 1 1 1h1 2 1 2 1v-1-6h-6z" fill="#ad3a00"/><path d="m8 7.0546875a2.5 2.5 0 0 0 -2 2.4453125 2.5 2.5 0 0 0 2.5 2.5 2.5 2.5 0 0 0 2.449219-2h-2.949219zm1 .9453125v1h2v-1z" fill="#fff"/></svg>