<svg viewBox="0 0 16 16" xmlns="http://www.w3.org/2000/svg" xmlns:xlink="http://www.w3.org/1999/xlink"><clipPath id="a"><path d="m2.5546199-1.4914436c-.82141.0000821-1.497965.67663656-1.498047 1.49804676v.49999999h-.002v1.49999995 2.5 6.5000799c0 .831.669 1.5 1.5 1.5h11.0000471c.831 0 1.5-.669 1.5-1.5v-9.0000799c0-.831-.669-1.49999995-1.5-1.49999995h-5.8359381l-2.160156-1.60742175.05469.048828c-.280766-.2807964-.661511-.4393765-1.058596-.439453z"/></clipPath><filter id="b" color-interpolation-filters="sRGB" height="1.273927" width="1.15066" x="-.07533" y="-.136964"><feGaussianBlur stdDeviation=".62775"/></filter><filter id="c" color-interpolation-filters="sRGB" height="1.094553" width="1.097492" x="-.048746" y="-.047277"><feGaussianBlur stdDeviation=".36559322"/></filter><linearGradient id="d" gradientUnits="userSpaceOnUse" x1="0" x2="4.233333" y1="295.14792" y2="295.14792"><stop offset="0" stop-color="#60c0f0"/><stop offset="1" stop-color="#83d4fb"/></linearGradient><linearGradient id="e" gradientTransform="matrix(.58333333 0 0 .6779661 -.75 .966102)" gradientUnits="userSpaceOnUse" x1="13.285714" x2="13.285714" y1="3" y2="5.95"><stop offset="0" stop-color="#c8c8cb"/><stop offset="1" stop-color="#98989d"/></linearGradient><linearGradient id="f" gradientUnits="userSpaceOnUse" x1="-10.5" x2="-10.5" y1="2.5" y2="14.5"><stop offset="0" stop-color="#848489"/><stop offset="1" stop-color="#616165"/></linearGradient>


/&amp;amp;amp;amp;amp;amp;gt;<g transform="matrix(3.7795275 0 0 3.7795275 -2 -1107.5196)"><path d="m3.5000001 1.0018729c-.8214102.0000821-1.4979651.6766366-1.4980469 1.4980469v.5h-.00195v1.5 2.5l.0000005 6.0000002c0 .831.669 1.5 1.5 1.5h10.9999963c.831 0 1.5-.669 1.5-1.5v-8.5000002c0-.831-.669-1.5-1.5-1.5h-5.8359374l-2.1601563-1.6074219.0546876.0488281c-.2807638-.2807965-.6615085-.4393766-1.0585938-.4394531z" fill="#46a2d7" fill-rule="evenodd" transform="matrix(.26458333 0 0 .26458333 0 292.76667)"/><rect clip-path="url(#a)" fill="#3f4e60" filter="url(#b)" height="11" rx="1.72607" transform="matrix(.26458334 0 0 .26458334 .250132 293.42636)" width="14" x="1.054619" y=".506603"/><path d="m3.0000001 13.998047h11.9999999v1.5h-11.9999999z" filter="url(#c)" opacity=".15" stroke-width="1.015418" transform="matrix(.26458333 0 0 .26458333 0 292.5026)"/><g stroke-width=".264583"><rect fill="#459fd2" height="2.778126" rx=".396875" width="3.704167" x=".529167" y="293.82498"/><rect fill="url(#d)" height="2.116663" rx=".264583" width="3.175" x=".79375" y="294.08957"/></g></g><path d="m3 4h12v2h-12z" fill="url(#e)" stroke-width=".628872"/><path d="m2.5019531 3.0019531c-.2763014-.000384-.5003844.223699-.5.5v3.4980469h-.0019531v8.5c-.0003844.276301.2236985.500384.5.5h13c.276301.000384.500384-.223699.5-.5v-8.5h.001953v-3.4980469c.000384-.276301-.223699-.500384-.5-.5zm.4980469.9980469h3v2h-3zm4 0h3v2h-3zm4 0h4.003906v3h-.001953v8.001953h-12.0039061v-8.001953h.0019531 12v-1h-4z" fill="url(#f)"/><path d="m3 7h12v8h-12z" fill="#fff"/><path d="m6 7v2h-3v1h3v2h-3v1h3v2h1v-2h3v2h1v-2h4v-1h-4v-2h4v-1h-4v-2h-1v2h-3v-2zm1 3h3v2h-3z" fill="#bababa"/></svg>