<svg viewBox="0 0 16 16" xmlns="http://www.w3.org/2000/svg" xmlns:xlink="http://www.w3.org/1999/xlink"><linearGradient id="a" gradientUnits="userSpaceOnUse" x1="8" x2="8" y1="4" y2="14"><stop offset="0" stop-color="#68caf8"/><stop offset=".5" stop-color="#70cef9"/><stop offset=".71428573" stop-color="#79d3fb"/><stop offset=".9285714" stop-color="#67c1ed"/><stop offset="1" stop-color="#67bfea"/></linearGradient><filter id="b" color-interpolation-filters="sRGB" height="1.094553" width="1.097492" x="-.048746" y="-.047277"><feGaussianBlur stdDeviation=".36559322"/></filter><linearGradient id="c" gradientTransform="matrix(.58333333 0 0 .6779661 -.75 .966102)" gradientUnits="userSpaceOnUse" x1="13.285714" x2="13.285714" y1="3" y2="5.95"><stop offset="0" stop-color="#c8c8cb"/><stop offset="1" stop-color="#98989d"/></linearGradient><linearGradient id="d" gradientUnits="userSpaceOnUse" x1="-10.5" x2="-10.5" y1="2.5" y2="14.5"><stop offset="0" stop-color="#848489"/><stop offset="1" stop-color="#616165"/></linearGradient>

/&amp;amp;amp;amp;amp;gt;<path d="m1 10.940678h12v2.559322h-12z" filter="url(#b)" opacity=".15" stroke-width="1.015418"/><g fill-rule="evenodd" transform="translate(0 -2)"><path d="m3.5 2.5000002c.265199.0000511.519519.1054326.707031.2929688l3.207031 1.7070312 5.085938-.0000004c.552262.0000552.999945.4477381 1 1.0000002v9h-1-12v-8.5-2.5c.000055-.5522619.447738-.9999448 1-1z" fill="#94ddff" stroke="#2bbcff"/><path d="m.5 14.5h1 12v-7c.29761-.9920364-1.78201-.9921875-.742188-.9921875h-.002-1-1-8.9785156c-1.02113938 0-1.02076208-.0005516-1.27924988.9902344z" fill="url(#a)" stroke="#15b0f5"/></g><path d="m3 4h12v2h-12z" fill="url(#c)" stroke-width=".628872"/><path d="m2.5019531 3.0019531c-.2763014-.000384-.5003844.223699-.5.5v3.4980469h-.0019531v8.5c-.0003844.276301.2236985.500384.5.5h13c.276301.000384.500384-.223699.5-.5v-8.5h.001953v-3.4980469c.000384-.276301-.223699-.500384-.5-.5zm.4980469.9980469h3v2h-3zm4 0h3v2h-3zm4 0h4.003906v3h-.001953v8.001953h-12.0039061v-8.001953h.0019531 12v-1h-4z" fill="url(#d)"/><path d="m3 7h12v8h-12z" fill="#fff"/><path d="m6 7v2h-3v1h3v2h-3v1h3v2h1v-2h3v2h1v-2h4v-1h-4v-2h4v-1h-4v-2h-1v2h-3v-2zm1 3h3v2h-3z" fill="#bababa"/></svg>