<svg viewBox="0 0 24 24" xmlns="http://www.w3.org/2000/svg" xmlns:xlink="http://www.w3.org/1999/xlink"><linearGradient id="a" gradientTransform="matrix(-1 0 0 1 23.872646 0)" gradientUnits="userSpaceOnUse" x1="11" x2="11" y1="7" y2="21"><stop offset="0" stop-color="#68caf8"/><stop offset=".5" stop-color="#70cef9"/><stop offset=".71428573" stop-color="#79d3fb"/><stop offset=".9285714" stop-color="#67c1ed"/><stop offset="1" stop-color="#67bfea"/></linearGradient><linearGradient id="b" gradientTransform="matrix(-1 0 0 -1 23.872644 21)" gradientUnits="userSpaceOnUse" x1="10.5" x2="10.611328" xlink:href="#c" y1="2.5" y2="18.255859"/><linearGradient id="c" gradientTransform="translate(-50.237288 -.305085)" gradientUnits="userSpaceOnUse" x1="14" x2="13.79661" y1="22" y2="2.135593"><stop offset="0" stop-color="#0040dd"/><stop offset="1" stop-color="#0a84ff"/></linearGradient><linearGradient id="d" gradientTransform="matrix(-1 0 0 -1 23.872644 20.018218)" gradientUnits="userSpaceOnUse" x1="10.5" x2="10.611328" xlink:href="#c" y1="1.518219" y2="17.274078"/><linearGradient id="e" gradientTransform="matrix(-1 0 0 1 23.872644 0)" gradientUnits="userSpaceOnUse" x1="10.5" x2="10.611328" xlink:href="#c" y1="18.5" y2="2.744141"/><linearGradient id="f" gradientTransform="matrix(-1 0 0 1 23.872644 0)" gradientUnits="userSpaceOnUse" x1="8.478516" x2="8.249374" xlink:href="#c" y1="14" y2="2.155962"/><linearGradient id="g" gradientTransform="matrix(-1 0 0 1 23.872644 0)" gradientUnits="userSpaceOnUse" x1="11.194743" x2="10.611328" xlink:href="#c" y1="13.95164" y2="2.744141"/><linearGradient id="h" gradientTransform="matrix(-1 0 0 1 23.872644 0)" gradientUnits="userSpaceOnUse" x1="3.873047" x2="3.79661" xlink:href="#c" y1="14" y2="2.101695"/><linearGradient id="i" gradientTransform="matrix(-1 0 0 1 23.872644 0)" gradientUnits="userSpaceOnUse" x1="11.135593" x2="10.576271" y1="13.889831" y2="5.245763"><stop offset="0" stop-color="#e5eefc"/><stop offset="1" stop-color="#fcfdff"/></linearGradient><g transform="matrix(-1 0 0 1 23.872646 0)"><path d="m16.872646 5.5c-.265199.0000511-.519519.1054326-.707031.2929688l-3.707031 1.7070312h-8.0859376c-.552261.0000552-1.021429.4477381-1.021484 1l.02148 13h1 16.9999996.978516l.02148-11v-4c-.000055-.5522619-.447738-.9999448-1-1z" fill="#94ddff" stroke="#2bbcff"/><g transform="translate(-4.999998 -1.001791)"><path d="m13.372644 3a7.5 7.5 0 0 1 6.626953 4 7.5 7.5 0 0 1 .224609.4726562 7.5 7.5 0 0 1 .06445.1464844 7.5 7.5 0 0 1 .189453.5117188 7.5 7.5 0 0 1 .07617.2265625 7.5 7.5 0 0 1 .123046.4804687 7.5 7.5 0 0 1 .05469.2460938 7.5 7.5 0 0 1 .07031.4589844 7.5 7.5 0 0 1 .03711.3066406 7.5 7.5 0 0 1 .0332.6503906 7.5 7.5 0 0 1 -.0332.650391 7.5 7.5 0 0 1 -.03711.30664 7.5 7.5 0 0 1 -.07031.458985 7.5 7.5 0 0 1 -.05469.246093 7.5 7.5 0 0 1 -.123047.480469 7.5 7.5 0 0 1 -.07617.226563 7.5 7.5 0 0 1 -.189453.511718 7.5 7.5 0 0 1 -.06445.146485 7.5 7.5 0 0 1 -.224608.472656 7.5 7.5 0 0 1 -6.626953 4 7.5 7.5 0 0 1 -6.628906-4 7.5 7.5 0 0 1 -.01758-.03906 7.5 7.5 0 0 1 -.294922-.632813 7.5 7.5 0 0 1 -.0039-.0078 7.5 7.5 0 0 1 -.02344-.06641 7.5 7.5 0 0 1 -.214844-.611328 7.5 7.5 0 0 1 -.05859-.232422 7.5 7.5 0 0 1 -.117187-.486328 7.5 7.5 0 0 1 -.04687-.300781 7.5 7.5 0 0 1 -.05859-.429688 7.5 7.5 0 0 1 -.035171-.69337 7.5 7.5 0 0 1 .035156-.6933594 7.5 7.5 0 0 1 .058594-.4296875 7.5 7.5 0 0 1 .046875-.3007812 7.5 7.5 0 0 1 .117187-.4863281 7.5 7.5 0 0 1 .058594-.2324219 7.5 7.5 0 0 1 .214844-.6113281 7.5 7.5 0 0 1 .023438-.0664063 7.5 7.5 0 0 1 .003906-.0078125 7.5 7.5 0 0 1 .294922-.6328125 7.5 7.5 0 0 1 .017578-.0390625 7.5 7.5 0 0 1 6.628906-4z" fill="url(#i)"/><path d="m13.372644 2a8.5 8.5 0 0 1 7.734375 5h.002a8.5 8.5 0 0 1 .08398.1914062 8.5 8.5 0 0 1 .0019.00391 8.5 8.5 0 0 1 .261725.7128869 8.5 8.5 0 0 1 .03906.1191407 8.5 8.5 0 0 1 .169922.6582031 8.5 8.5 0 0 1 .04102.1816406 8.5 8.5 0 0 1 .0918.5976563 8.5 8.5 0 0 1 .0332.2792968 8.5 8.5 0 0 1 .04102.7558594 8.5 8.5 0 0 1 -.04102.755859 8.5 8.5 0 0 1 -.0332.279297 8.5 8.5 0 0 1 -.0918.597656 8.5 8.5 0 0 1 -.04102.181641 8.5 8.5 0 0 1 -.169922.658203 8.5 8.5 0 0 1 -.03906.119141 8.5 8.5 0 0 1 -.261719.712891 8.5 8.5 0 0 1 -.002.0039 8.5 8.5 0 0 1 -.083933.191412h-.002a8.5 8.5 0 0 1 -7.734328 5 8.5 8.5 0 0 1 -8.046875-5.789062 8.5 8.5 0 0 1 -.208984-.732422 8.5 8.5 0 0 1 -.03125-.123047 8.5 8.5 0 0 1 -.107422-.587891 8.5 8.5 0 0 1 -.04297-.292969 8.5 8.5 0 0 1 -.03906-.501953 8.5 8.5 0 0 1 -.023439-.472656 8.5 8.5 0 0 1 .023438-.472656 8.5 8.5 0 0 1 .039062-.5019534 8.5 8.5 0 0 1 .042969-.2929687 8.5 8.5 0 0 1 .107422-.5878907 8.5 8.5 0 0 1 .03125-.1230468 8.5 8.5 0 0 1 .208984-.7324219 8.5 8.5 0 0 1 8.046875-5.7890625zm0 1a7.5 7.5 0 0 0 -6.628906 4 7.5 7.5 0 0 0 -.0059.013672 7.5 7.5 0 0 0 -.183593.3867187 7.5 7.5 0 0 0 -.107422.2402344 7.5 7.5 0 0 0 -.175781.4765625 7.5 7.5 0 0 0 -.08008.2421875 7.5 7.5 0 0 0 -.111328.4335938 7.5 7.5 0 0 0 -.07031.3144531 7.5 7.5 0 0 0 -.06445.4179687 7.5 7.5 0 0 0 -.03906.3242188 7.5 7.5 0 0 0 -.03317.6503905 7.5 7.5 0 0 0 .0332.650391 7.5 7.5 0 0 0 .03906.324218 7.5 7.5 0 0 0 .06445.417969 7.5 7.5 0 0 0 .07031.314453 7.5 7.5 0 0 0 .111328.433594 7.5 7.5 0 0 0 .08008.242187 7.5 7.5 0 0 0 .175781.476563 7.5 7.5 0 0 0 .107422.240234 7.5 7.5 0 0 0 .183593.386719 7.5 7.5 0 0 0 .00587.01367 7.5 7.5 0 0 0 6.628906 4 7.5 7.5 0 0 0 6.626953-4 7.5 7.5 0 0 0 .314453-.671875 7.5 7.5 0 0 0 .02734-.07422 7.5 7.5 0 0 0 .214844-.611328 7.5 7.5 0 0 0 .05859-.232422 7.5 7.5 0 0 0 .117188-.486328 7.5 7.5 0 0 0 .03906-.255859 7.5 7.5 0 0 0 .06836-.496094 7.5 7.5 0 0 0 .033212-.671872 7.5 7.5 0 0 0 -.033203-.671875 7.5 7.5 0 0 0 -.06836-.4960938 7.5 7.5 0 0 0 -.039062-.2558593 7.5 7.5 0 0 0 -.117188-.4863281 7.5 7.5 0 0 0 -.058593-.2324219 7.5 7.5 0 0 0 -.214844-.6113281 7.5 7.5 0 0 0 -.027344-.0742188 7.5 7.5 0 0 0 -.314453-.671875 7.5 7.5 0 0 0 -6.626953-4z" fill="url(#h)"/><path d="m21.235091 10h-15.845709v1h15.845709z" fill="url(#g)"/><path d="m14.331628 2.2128906c1.585792 2.5262357 2.395273 5.0717692 2.509766 7.609375.01207.2258094.0049.4517474.0059.6777344-.000972.225987.0062.451925-.0059.677734-.114492 2.537606-.923973 5.08314-2.509765 7.609375l-.847657-.53125c.897949-1.43047 1.537191-2.84668 1.931641-4.255859h-.02148c.327615-1.166921.478923-2.332651.48437-3.5-.005447-1.1673485-.156755-2.3330788-.484375-3.5h.02148c-.394445-1.4091789-1.033687-2.8253883-1.931636-4.2558594zm-1.917968 0 .847656.53125c-.897949 1.4304711-1.537191 2.8466805-1.931641 4.2558594h.02149c-.32762 1.1669212-.478928 2.3326515-.484375 3.5.0054 1.167349.156755 2.333079.484375 3.5h-.02149c.39445 1.409179 1.033692 2.825389 1.931641 4.255859l-.847656.53125c-1.304006-2.077342-2.074807-4.167633-2.376954-6.255859-.06529-.451245-.112467-.902602-.132812-1.353516-.01207-.225809-.0049-.451747-.0059-.677734.000972-.225987-.0062-.451925.0059-.6777344.02035-.4509138.06752-.9022703.132812-1.3535156.302147-2.0882262 1.072948-4.1785171 2.376954-6.2558594z" fill="url(#f)" fill-rule="evenodd"/><path d="m19.872644 5.5017908c-4.208734 1.1063541-8.492323 1.5417482-13 0" fill="none" stroke="url(#e)"/><path d="m19.872644 14.516429c-4.208734-1.106354-8.492323-1.541749-13 0" fill="none" stroke="url(#d)"/><path d="m21.235091 11h-15.845709v-1h15.845709z" fill="url(#b)"/></g><g transform="translate(0 1)"><path d="m22.39413 20.5h-1-17.0644526-1l-2.70117201-9.007812c-.297854-.992847-.298232-.992188.74414101-.992188h16.9999996c1.021186 0 1.020809-.000552 1.279297.990234l1.742187 5.675782z" fill="url(#a)" stroke="#15b0f5"/><g fill="#3bc1f1" transform="matrix(-1 0 0 1 23.872646 0)"><path d="m1.9980469 19-.4065851-.002848-.1266181.502848h.5351563 19.003906l.396925-.0052.138844-.495586-.537722.000786z"/><path d="m1.2988281 20.003906-.1503906.501953h.4550781 19.1640624l.367188-.0059.134765-.496094-.503906.002h-19.1640625z"/></g></g><g fill="#fff"><path d="m6.3730467 17.001953a.49855801.49855801 0 0 0 -.351563.849609l3 3a.49855801.49855801 0 0 0 .703125 0l3.0000003-3a.49855801.49855801 0 0 0 -.351562-.849609z"/><rect height="7" rx=".544194" ry=".625" transform="scale(-1 1)" width="3" x="-10.872646" y="12"/></g></g></svg>