<svg height="32" viewBox="0 0 32 32" width="32" xmlns="http://www.w3.org/2000/svg"><path d="m6 3c-1.662 0-3 1.338-3 3v20c0 1.662 1.338 3 3 3h20c1.662 0 3-1.338 3-3v-20c0-1.662-1.338-3-3-3zm13 2h4v8h5v4h-5v10h-4zm-15 4h13v3 1 1.5c-.0012 7.426521-5.613323 11.651661-13 12.419922v-4.03711c5.162445-.745133 8.9953-3.166871 9-8.382812l-.048828-1.5h-8.951172z" opacity=".35"/><path d="m19 5v22h4v-10h5v-4h-5v-8zm-15 4v4h8.951172l.048828 1.5c-.0047 5.215941-3.837555 7.637679-9 8.382812v4.03711c7.386677-.768261 12.998831-4.993401 13-12.419922v-1.5-1-3z" fill="#555753"/></svg>