<svg height="32" viewBox="0 0 32 32" width="32" xmlns="http://www.w3.org/2000/svg"><path d="m24 2v8.5625l-2.28125-2.28125c-.18818-.18811-.45344-.28129-.71875-.28125h-1v1c0 .26529.09304.53057.28125.71875l4 4 .28125.28125h.875l.28125-.28125 4-4c.18814-.18817.28122-.45344.28125-.71875v-1h-1c-.2653 0-.53058.0931-.71875.28125l-2.28125 2.28125v-8.5625zm-8 1v10 13 3h3.341797.658203v-12h.578125.421875 4v-1h-.4375a2.0002 2.0002 0 0 1 -1.414062-.585938l-.28125-.28125-2.132813-2.132812h-.734375v-.734375l-1.132812-1.132813c-.619756-.619654-.867188-1.3999079-.867188-2.132812v-1a2.0002 2.0002 0 0 1 2-2v-3zm-15 6v4h.0488281 8.9023438l.0488281 1.5c-.0047 5.215941-3.837555 9.637679-9 10.382812v4.03711c.016578-.0017.0322681-.006013.0488281-.007813v.007813c7.386677-.768261 12.9988309-6.993401 12.9999999-14.419922v-1.5-1-3h-.048828-12.9511719z" fill="#555753"/></svg>