<svg viewBox="0 0 32 32" xmlns="http://www.w3.org/2000/svg" xmlns:xlink="http://www.w3.org/1999/xlink"><linearGradient id="a" gradientTransform="translate(-17.647376 5.911171)" gradientUnits="userSpaceOnUse" x1="7.735412" x2="-1" y1="14.637846" y2="8"><stop offset="0" stop-color="#ff6482"/><stop offset="1" stop-color="#ff453a"/></linearGradient><linearGradient id="b" gradientUnits="userSpaceOnUse" x1="30" x2="30" xlink:href="#a" y1="29" y2="15"/><linearGradient id="c" gradientUnits="userSpaceOnUse" x1="23" x2="23" xlink:href="#a" y1="26" y2="23"/><filter id="d" color-interpolation-filters="sRGB" height="1.685669" width="1.097492" x="-.048746" y="-.342834"><feGaussianBlur stdDeviation=".36559322"/></filter><path d="m7 26.940678h18v2.559322h-18z" filter="url(#d)" opacity=".15" stroke-width="1.015418"/><path d="m7 3c-.554 0-1 .446-1 1v24c0 .554.446 1 1 1h18c.554 0 1-.446 1-1v-.166016-6.833984-1.285156-4.828125-.886719-10c0-.554-.446-1-1-1zm0 1h18v10 1.755859 4.730469.513672 7h-18z" fill="#f2f2f7"/><path d="m7 4v24h18v-24z" fill="#2d2d2d"/><path d="m9 23h14v3h-14z" fill="url(#c)"/><path d="m26 14.964844-2.355469.894531c-.388307.147706-.644859.520096-.644531.935547v2.410206c.00016.708138.715989 1.191806 1.373047.927734l1.626953-.654297z" fill="#2d2d2d" fill-opacity=".784314"/><path d="m30 29h-3v-11l-3 1.205696v-2.411393l4.724683-1.794303h1.275317z" fill="url(#b)"/></svg>