<svg viewBox="0 0 32 32" xmlns="http://www.w3.org/2000/svg" xmlns:xlink="http://www.w3.org/1999/xlink"><linearGradient id="a" gradientUnits="userSpaceOnUse" x1="-20" x2="-20" xlink:href="#d" y1="29" y2="23"/><linearGradient id="b" gradientUnits="userSpaceOnUse" x1="-19" x2="-19" xlink:href="#d" y1="10" y2="2"/><linearGradient id="c" gradientTransform="translate(-5.003098 12.000335)" gradientUnits="userSpaceOnUse" x1="11.003098" x2="11.003098" xlink:href="#d" y1="16.999664" y2="-9.000335"/><linearGradient id="d" gradientTransform="translate(-25.830508 -3.59322)" gradientUnits="userSpaceOnUse" x1="14" x2="13.79661" y1="22" y2="2.135593"><stop offset="0" stop-color="#409cff"/><stop offset="1" stop-color="#0a84ff"/></linearGradient><g transform="scale(-1 1)"><path d="m-13.5 4c.277 0 .5.2230003.5.5s-.223.5-.5.5h-14c-.277 0-.5-.2230003-.5-.5s.223-.5.5-.5zm0 3c.277 0 .5.2230003.5.5s-.223.5-.5.5h-8c-.277 0-.5-.2230003-.5-.5s.223-.5.5-.5z" fill="url(#b)"/><rect fill="#f2f2f7" height="1" ry=".5" width="12" x="-28" y="14"/><path d="m-13.435547 24c.241788 0 .435547.193759.435547.435547v.128906c0 .241788-.193759.435547-.435547.435547h-14.128906c-.241788 0-.435547-.193759-.435547-.435547v-.128906c0-.241788.193759-.435547.435547-.435547zm-.064453 3c.277 0 .5.223.5.5s-.223.5-.5.5h-8c-.277 0-.5-.223-.5-.5s.223-.5.5-.5z" fill="url(#a)"/><rect fill="#f2f2f7" height="1" ry=".5" width="6" x="-22" y="17"/></g><path d="m4.25 4c-.1384999 0-.25.1115001-.25.25v.5 20c0 .1385.1115001.25.25.25h.5 2.25v2.5a.50258017.50258017 0 0 0 .4960938.501953.50258017.50258017 0 0 0 .3613281-.146484l2.9921871-3a.50258017.50258017 0 0 0 0-.710938l-2.9921871-3a.50258017.50258017 0 0 0 -.8574219.355469v2.5h-2v-19h5.75c.1385 0 .25-.1115001.25-.25v-.5c0-.1384999-.1115-.25-.25-.25z" fill="url(#c)"/></svg>