<svg viewBox="0 0 32 32" xmlns="http://www.w3.org/2000/svg" xmlns:xlink="http://www.w3.org/1999/xlink"><linearGradient id="a" gradientUnits="userSpaceOnUse" x1="-10.346133" x2="-10.389102" y1="24.40678" y2=".40678"><stop offset="0" stop-color="#409cff"/><stop offset="1" stop-color="#0a84ff"/></linearGradient><filter id="b" color-interpolation-filters="sRGB" height="1.685669" width="1.097492" x="-.048746" y="-.342834"><feGaussianBlur stdDeviation=".36559322"/></filter><path d="m7 26.940678h18v2.559322h-18z" filter="url(#b)" opacity=".15" stroke-width="1.01542"/><path d="m7 3c-.554 0-1 .446-1 1v3.4472656 8.9667964 8.138672 3.447266c0 .124837.0289699.241533.0703125.351562.0121954.032436.0276076.061085.0429687.091797.0398424.080005.0895539.150875.1484376.216797.0203839.022826.0381624.045548.0605468.066406.0849185.079327.1782332.149417.2871094.195313.1197188.050469.252125.078125.390625.078125h8.216797 1.566406 4.859375 3.357422c.1385 0 .270906-.027656.390625-.078125.108876-.045896.202191-.115985.287109-.195313.022385-.020858.040163-.04358.060547-.066406.058884-.065922.108595-.136792.148438-.216797.015361-.030712.030773-.059361.042969-.091797.041342-.110029.070312-.226725.070312-.351562v-3.447266-8.138672-8.9667964-3.4472656c0-.554-.446-1-1-1h-3.357422-1.642578-.585938-6.828124-1.585938-.642578zm0 1h2.4199219 1.5800781 2.585938 4.828124 1.585938 2.580078 2.419922v2.4648438 8.9492182 10.121094 2.464844h-2.419922-6.042969-1.074218-8.462891v-2.464844-10.121094-8.9492182z" fill="#f2f2f7"/><path d="m7 4v24h18v-24z" fill="#2d2d2d"/><path d="m7 4v1.3789062l1.3789062-1.3789062zm2.7929688 0-2.7929688 2.7929688v1.4140624l4-4v-.00781l.199219-.1992212zm2.8203122 0-5.613281 5.6191406v1.4160154l6.964844-6.972656.0625-.0625zm2.828125 0-7.9921872 8h.00391l-.4531288.453125v1.412109l9.855469-9.865234zm2.828125 0-11.269531 11.28125v1.417969l12.683594-12.699219zm2.828125 0-14.097656 14.105469v1.421875l15.304688-15.3203128v-.00781l.199218-.1992212zm2.820313 0-16.917969 16.933594v1.412109l18-18.0136718v-.3320312zm1.082031 1.7480469-18 18.0136721v1.414062l.96875-.96875v-.0078l17.03125-17.0371216zm0 2.828125-18 18.0058591v1.417969h.00391l17.99609-18.0117188zm0 2.8261721-16.5878906 16.597656h1.4140625l15.1738281-15.181641zm0 2.832031-13.759766 13.765625h1.416016l12.34375-12.349609zm0 2.830078-10.929688 10.935547h1.414063l9.515625-9.519531zm0 2.832031-8.101562 8.103516h1.414062l6.6875-6.689453zm0 2.820313-5.277344 5.283203h1.41211l3.865234-3.871094zm0 2.828125-2.451172 2.455078h1.41211l1.039062-1.041016z" fill="url(#a)"/></svg>