<?xml version="1.0" encoding="UTF-8" standalone="no"?>
<svg
   xmlns:dc="http://purl.org/dc/elements/1.1/"
   xmlns:cc="http://creativecommons.org/ns#"
   xmlns:rdf="http://www.w3.org/1999/02/22-rdf-syntax-ns#"
   xmlns:svg="http://www.w3.org/2000/svg"
   xmlns="http://www.w3.org/2000/svg"
   xmlns:xlink="http://www.w3.org/1999/xlink"
   xmlns:sodipodi="http://sodipodi.sourceforge.net/DTD/sodipodi-0.dtd"
   xmlns:inkscape="http://www.inkscape.org/namespaces/inkscape"
   viewBox="0 0 24 24"
   version="1.1"
   id="svg4"
   sodipodi:docname="lc_bmpmask.svg"
   inkscape:version="0.92.5 (2060ec1f9f, 2020-04-08)"
   inkscape:export-filename="/home/jupiter007/Libreoffice yaru theme fullcolor/build/cmd/lc_bmpmask.png"
   inkscape:export-xdpi="95"
   inkscape:export-ydpi="95">
  <metadata
     id="metadata10">
    <rdf:RDF>
      <cc:Work
         rdf:about="">
        <dc:format>image/svg+xml</dc:format>
        <dc:type
           rdf:resource="http://purl.org/dc/dcmitype/StillImage" />
      </cc:Work>
    </rdf:RDF>
  </metadata>
  <defs
     id="defs8">
    <linearGradient
       id="d"
       gradientTransform="matrix(0.49699112,0,0,0.49689181,-0.81010194,-0.29150908)"
       gradientUnits="userSpaceOnUse"
       x1="19.065418"
       x2="23.077925"
       y1="22.744974"
       y2="26.757523">
      <stop
         offset="0"
         stop-opacity=".46087"
         id="stop11" />
      <stop
         offset=".49060908"
         stop-opacity="0"
         id="stop13" />
      <stop
         offset=".60074764"
         stop-opacity="0"
         id="stop15" />
      <stop
         offset="1"
         stop-opacity=".588235"
         id="stop17" />
    </linearGradient>
    <linearGradient
       id="c"
       gradientTransform="matrix(0.49699112,0,0,0.49689181,-0.606712,-0.444052)"
       gradientUnits="userSpaceOnUse"
       x1="24.032852"
       x2="32.349339"
       xlink:href="#a"
       y1="13.223127"
       y2="21.888092" />
    <linearGradient
       id="a">
      <stop
         offset="0"
         stop-opacity=".66087"
         id="stop2" />
      <stop
         offset=".5"
         stop-opacity="0"
         id="stop4" />
      <stop
         offset="1"
         stop-opacity=".669565"
         id="stop6" />
    </linearGradient>
    <linearGradient
       id="b"
       gradientUnits="userSpaceOnUse"
       x1="14.156911"
       x2="17.625113"
       xlink:href="#a"
       y1="4.8969669"
       y2="8.2144642"
       gradientTransform="translate(0.451381,-1.073846)" />
  </defs>
  <sodipodi:namedview
     pagecolor="#ffffff"
     bordercolor="#666666"
     borderopacity="1"
     objecttolerance="10"
     gridtolerance="10"
     guidetolerance="10"
     inkscape:pageopacity="0"
     inkscape:pageshadow="2"
     inkscape:window-width="1920"
     inkscape:window-height="1011"
     id="namedview6"
     showgrid="false"
     inkscape:zoom="19.666667"
     inkscape:cx="-0.22354959"
     inkscape:cy="8.7343931"
     inkscape:window-x="0"
     inkscape:window-y="32"
     inkscape:window-maximized="1"
     inkscape:current-layer="svg4" />
  <path
     id="path880"
     d="m 4.7156446,17.268958 c -0.7879344,1.441304 -2.8575984,4.505758 5e-7,4.4809 2.8132285,-0.02447 0.5602054,-3.091553 -5e-7,-4.4809 z"
     style="fill:#000000;stroke:#000000;stroke-width:2;stroke-opacity:1;fill-opacity:1;opacity:0.6;stroke-miterlimit:4;stroke-dasharray:none;stroke-linejoin:round"
     inkscape:connector-curvature="0" />
  <path
     id="path878"
     style="fill:#000000;fill-rule:evenodd;stroke:#000000;stroke-width:2;stroke-linejoin:round;stroke-opacity:1;fill-opacity:1;opacity:0.6;stroke-miterlimit:4;stroke-dasharray:none"
     d="m 12.20194,7.8749446 c 0,0 -6.1823328,5.6712614 -6.4701507,6.2483284 -0.2940662,0.589594 -0.053045,1.218325 -0.6984821,2.536086 C 6.4176384,16.027677 7.099566,16.279555 7.6066621,15.997772 8.1257873,15.709305 13.929764,9.6759326 13.929764,9.6759326 Z"
     inkscape:connector-curvature="0" />
  <path
     inkscape:connector-curvature="0"
     d="m 12.20194,7.8749446 c 0,0 -6.1823328,5.6712614 -6.4701507,6.2483284 -0.2940662,0.589594 -0.053045,1.218325 -0.6984821,2.536086 C 6.4176384,16.027677 7.099566,16.279555 7.6066621,15.997772 8.1257873,15.709305 13.929764,9.6759326 13.929764,9.6759326 Z"
     style="fill:#ffffff;fill-rule:evenodd;stroke:none;stroke-width:2;stroke-linejoin:round;stroke-opacity:0.65882401;fill-opacity:1;stroke-miterlimit:4;stroke-dasharray:none"
     id="path20" />
  <path
     inkscape:connector-curvature="0"
     style="fill:#ffffff;stroke:none;stroke-width:0.5;stroke-opacity:0.65882401;fill-opacity:1"
     d="m 4.7156446,17.268958 c -0.7879344,1.441304 -2.8575984,4.505758 5e-7,4.4809 2.8132285,-0.02447 0.5602054,-3.091553 -5e-7,-4.4809 z"
     id="path22" />
  <path
     style="fill:#6d6d6d;fill-opacity:1;fill-rule:evenodd;stroke:#6d6d6d;stroke-width:0.5;stroke-opacity:1"
     inkscape:connector-curvature="0"
     d="m 15.327926,10.975209 0.624958,-0.624833 -0.675971,-1.9157078 c 0,0 -0.03436,-0.258196 0.288701,-0.278778 1.735221,-0.110549 3.513245,-2.158519 3.598983,-3.552672 0.07466,-1.214022 -1.105731,-1.994389 -2.176564,-1.909936 -1.069334,0.08433 -2.828272,1.510435 -3.266818,3.309152 -0.06337,0.25992 -0.304924,0.304905 -0.304924,0.304905 l -2.027702,-0.543212 -0.59963,0.599511 z"
     id="path26" />
</svg>
