<?xml version="1.0" encoding="UTF-8" standalone="no"?>
<svg
   xmlns:dc="http://purl.org/dc/elements/1.1/"
   xmlns:cc="http://creativecommons.org/ns#"
   xmlns:rdf="http://www.w3.org/1999/02/22-rdf-syntax-ns#"
   xmlns:svg="http://www.w3.org/2000/svg"
   xmlns="http://www.w3.org/2000/svg"
   xmlns:sodipodi="http://sodipodi.sourceforge.net/DTD/sodipodi-0.dtd"
   xmlns:inkscape="http://www.inkscape.org/namespaces/inkscape"
   viewBox="0 0 24 24"
   version="1.1"
   id="svg6"
   sodipodi:docname="lc_dbdistinctvalues.svg"
   inkscape:export-filename="/home/jupiter007/Libreoffice yaru theme fullcolor/build/cmd/lc_dbdistinctvalues.png"
   inkscape:export-xdpi="96"
   inkscape:export-ydpi="96"
   inkscape:version="0.92.5 (2060ec1f9f, 2020-04-08)">
  <metadata
     id="metadata12">
    <rdf:RDF>
      <cc:Work
         rdf:about="">
        <dc:format>image/svg+xml</dc:format>
        <dc:type
           rdf:resource="http://purl.org/dc/dcmitype/StillImage" />
      </cc:Work>
    </rdf:RDF>
  </metadata>
  <defs
     id="defs10" />
  <sodipodi:namedview
     pagecolor="#ffffff"
     bordercolor="#666666"
     borderopacity="1"
     objecttolerance="10"
     gridtolerance="10"
     guidetolerance="10"
     inkscape:pageopacity="0"
     inkscape:pageshadow="2"
     inkscape:window-width="1920"
     inkscape:window-height="1011"
     id="namedview8"
     showgrid="true"
     inkscape:zoom="27.812867"
     inkscape:cx="10.837432"
     inkscape:cy="9.5147186"
     inkscape:window-x="0"
     inkscape:window-y="32"
     inkscape:window-maximized="1"
     inkscape:current-layer="svg6">
    <inkscape:grid
       type="xygrid"
       id="grid832" />
  </sodipodi:namedview>
  <path
     sodipodi:nodetypes="cccccccccccccc"
     id="path825"
     d="m 5.999983,4.000001 -1,1 v 1 0.304687 l 5,7.062501 v 3.632812 0.03906 l 3.990234,2.960938 h 0.0098 v -6.63281 l 5,-7.062501 V 5.000001 l -1,-1 z"
     style="opacity:0.6;fill:#000000;stroke:#000000;stroke-width:2;stroke-linejoin:round;stroke-miterlimit:4;stroke-dasharray:none"
     inkscape:connector-curvature="0" />
  <path
     inkscape:connector-curvature="0"
     style="fill:#ffffff"
     d="m 5.999983,4.000001 -1,1 v 1 0.304687 l 5,7.062501 v 3.632812 0.03906 l 3.990234,2.960938 h 0.0098 v -6.63281 l 5,-7.062501 V 5.000001 l -1,-1 z"
     id="path2"
     sodipodi:nodetypes="cccccccccccccc" />
  <path
     style="opacity:0.6;fill:#000000;fill-opacity:1;stroke:#000000;stroke-width:2;stroke-linejoin:round;stroke-miterlimit:4;stroke-dasharray:none"
     id="path830"
     d="M 16.5625,14.71875 15.78125,16 H 13 v 1 h 2.1875 l -0.59375,1 H 13 v 1 h 1 l -0.4375,0.71875 0.875,0.53125 0.75,-1.25 H 18 V 18 H 15.78125 L 16.375,17 H 18 v -1 h -1 l 0.4375,-0.75 z"
     inkscape:connector-curvature="0" />
  <path
     d="M 16.5625,14.71875 15.78125,16 H 13 v 1 h 2.1875 l -0.59375,1 H 13 v 1 h 1 l -0.4375,0.71875 0.875,0.53125 0.75,-1.25 H 18 V 18 H 15.78125 L 16.375,17 H 18 v -1 h -1 l 0.4375,-0.75 z"
     id="path4"
     style="fill:#aee3f8;fill-opacity:1"
     inkscape:connector-curvature="0" />
</svg>
