<?xml version="1.0" encoding="UTF-8" standalone="no"?>
<svg
   xmlns:dc="http://purl.org/dc/elements/1.1/"
   xmlns:cc="http://creativecommons.org/ns#"
   xmlns:rdf="http://www.w3.org/1999/02/22-rdf-syntax-ns#"
   xmlns:svg="http://www.w3.org/2000/svg"
   xmlns="http://www.w3.org/2000/svg"
   xmlns:sodipodi="http://sodipodi.sourceforge.net/DTD/sodipodi-0.dtd"
   xmlns:inkscape="http://www.inkscape.org/namespaces/inkscape"
   viewBox="0 0 24 24"
   version="1.1"
   id="svg4"
   sodipodi:docname="lc_delete.svg"
   inkscape:version="0.92.5 (2060ec1f9f, 2020-04-08)"
   inkscape:export-filename="/home/jupiter007/Libreoffice yaru theme fullcolor/build/cmd/lc_delete.png"
   inkscape:export-xdpi="96"
   inkscape:export-ydpi="96">
  <metadata
     id="metadata10">
    <rdf:RDF>
      <cc:Work
         rdf:about="">
        <dc:format>image/svg+xml</dc:format>
        <dc:type
           rdf:resource="http://purl.org/dc/dcmitype/StillImage" />
      </cc:Work>
    </rdf:RDF>
  </metadata>
  <defs
     id="defs8" />
  <sodipodi:namedview
     pagecolor="#ffffff"
     bordercolor="#666666"
     borderopacity="1"
     objecttolerance="10"
     gridtolerance="10"
     guidetolerance="10"
     inkscape:pageopacity="0"
     inkscape:pageshadow="2"
     inkscape:window-width="1920"
     inkscape:window-height="1011"
     id="namedview6"
     showgrid="true"
     inkscape:zoom="9.8333334"
     inkscape:cx="15.131323"
     inkscape:cy="7.7789731"
     inkscape:window-x="0"
     inkscape:window-y="32"
     inkscape:window-maximized="1"
     inkscape:current-layer="svg4">
    <inkscape:grid
       type="xygrid"
       id="grid840" />
  </sodipodi:namedview>
  <rect
     style="opacity:1;fill:#ffffff;fill-opacity:1;fill-rule:evenodd;stroke:none;stroke-width:2;stroke-linecap:butt;stroke-linejoin:round;stroke-miterlimit:4;stroke-dasharray:none;stroke-opacity:1"
     id="rect814"
     width="3"
     height="1"
     x="10"
     y="5" />
  <rect
     style="opacity:1;fill:#ffffff;fill-opacity:1;fill-rule:evenodd;stroke:none;stroke-width:2;stroke-linecap:butt;stroke-linejoin:round;stroke-miterlimit:4;stroke-dasharray:none;stroke-opacity:1"
     id="rect816"
     width="9"
     height="10"
     x="7"
     y="9" />
  <path
     inkscape:connector-curvature="0"
     d="m 11.5,3.9995329 c -1.1,0 -2.145,0.32 -2.145,0.32 L 9,4.4275329 v 1.683 a 13.88,13.88 0 0 0 -2.998,0.889 l -0.002,1 H 5 v 1 h 1 l 0.004,9.0000001 c 0,0.439 0.04,0.788 0.15,1.082 0.111,0.294 0.311,0.528 0.563,0.668 0.503,0.28 1.12,0.25 1.953,0.25 h 5.664 c 0.833,0 1.45,0.03 1.953,-0.25 0.252,-0.14 0.45,-0.374 0.56,-0.668 0.11,-0.294 0.153,-0.643 0.153,-1.082 L 16.998,9.9995329 h -1 L 16,17.999533 c 0,0.376 -0.04,0.603 -0.088,0.729 -0.034,0.09 -0.078,0.129 -0.11,0.146 -0.173,0.097 -0.611,0.125 -1.468,0.125 H 8.67 c -0.857,0 -1.295,-0.028 -1.469,-0.125 a 0.267,0.267 0 0 1 -0.113,-0.146 v -0.002 c -0.046,-0.122 -0.084,-0.348 -0.084,-0.727 v -0.002 L 7,8.9995329 h 11 v -1 h -1.002 l 0.002,-1 a 13.855,13.855 0 0 0 -3,-0.889 v -1.661 l -0.33,-0.119 c 0,0 -0.913,-0.33 -2.17,-0.33 z m 0,1 c 0.89,0 1.29,0.155 1.5,0.22 v 0.739 a 14.05,14.05 0 0 0 -1.498,-0.084 c -0.502,0 -1.003,0.032 -1.502,0.086 v -0.734 c 0.266,-0.07 0.772,-0.227 1.5,-0.227 z m -2.5,5 v 6.0000001 h 1 V 9.9995329 Z m 2,0 v 6.0000001 h 1 V 9.9995329 Z m 2,0 v 6.0000001 h 1 V 9.9995329 Z"
     font-size="15"
     font-weight="400"
     letter-spacing="0"
     style="font-weight:400;font-size:15px;line-height:125%;font-family:Ubuntu;-inkscape-font-specification:Ubuntu;text-align:center;letter-spacing:0;word-spacing:0;text-anchor:middle;fill:#c7162b;fill-opacity:1"
     word-spacing="0"
     id="path2-5-9" />
</svg>
