<?xml version="1.0" encoding="UTF-8" standalone="no"?>
<svg
   xmlns:dc="http://purl.org/dc/elements/1.1/"
   xmlns:cc="http://creativecommons.org/ns#"
   xmlns:rdf="http://www.w3.org/1999/02/22-rdf-syntax-ns#"
   xmlns:svg="http://www.w3.org/2000/svg"
   xmlns="http://www.w3.org/2000/svg"
   xmlns:sodipodi="http://sodipodi.sourceforge.net/DTD/sodipodi-0.dtd"
   xmlns:inkscape="http://www.inkscape.org/namespaces/inkscape"
   viewBox="0 0 24 24"
   version="1.1"
   id="svg4"
   sodipodi:docname="lc_dbviewqueries.svg"
   inkscape:export-filename="/home/jupiter007/Libreoffice yaru theme fullcolor/build/cmd/lc_dbviewqueries.png"
   inkscape:export-xdpi="95"
   inkscape:export-ydpi="95"
   inkscape:version="0.92.5 (2060ec1f9f, 2020-04-08)">
  <metadata
     id="metadata10">
    <rdf:RDF>
      <cc:Work
         rdf:about="">
        <dc:format>image/svg+xml</dc:format>
        <dc:type
           rdf:resource="http://purl.org/dc/dcmitype/StillImage" />
      </cc:Work>
    </rdf:RDF>
  </metadata>
  <defs
     id="defs8" />
  <sodipodi:namedview
     pagecolor="#ffffff"
     bordercolor="#666666"
     borderopacity="1"
     objecttolerance="10"
     gridtolerance="10"
     guidetolerance="10"
     inkscape:pageopacity="0"
     inkscape:pageshadow="2"
     inkscape:window-width="1920"
     inkscape:window-height="1011"
     id="namedview6"
     showgrid="false"
     inkscape:zoom="9.8333333"
     inkscape:cx="0.66101695"
     inkscape:cy="12"
     inkscape:window-x="1920"
     inkscape:window-y="32"
     inkscape:window-maximized="1"
     inkscape:current-layer="svg4" />
  <path
     style="fill:#f2cbf8;fill-opacity:1"
     id="path819"
     d="M 12,4 C 7.5817218,4 3.9999999,4.8954258 3.9999999,6 v 4 8 c 0,1.1046 3.5817219,2 8.0000001,2 4.418278,0 8,-0.8954 8,-2 V 10 6 C 20,4.8954258 16.418278,4 12,4 Z"
     inkscape:connector-curvature="0"
     sodipodi:nodetypes="sscssscss" />
  <path
     inkscape:connector-curvature="0"
     d="M 12,4 C 7.5817218,4 3.9999999,4.8954258 3.9999999,6 v 4 8 c 0,1.1046 3.5817219,2 8.0000001,2 4.418278,0 8,-0.8954 8,-2 V 10 6 C 20,4.8954258 16.418278,4 12,4 Z m 0,1 c 3.865993,0 7,0.4477153 7,1 0,0.5522847 -3.134007,1 -7,1 C 8.1340066,7 4.9999998,6.5522847 4.9999998,6 4.9999998,5.4477153 8.1340066,5 12,5 Z M 4.9999998,6.9375 C 6.3529564,7.5624199 8.9580756,8 12,8 15.041924,8 17.647043,7.5624199 19,6.9375 V 10 c 0,0.5523 -3.134007,1 -7,1 C 8.1340066,11 4.9999998,10.5523 4.9999998,10 V 9.0625 Z m 0,4 C 6.3529564,11.562421 8.9580756,12 12,12 c 3.041924,0 5.647043,-0.437579 7,-1.0625 V 14 c 0,0.5523 -3.134007,1 -7,1 -3.8659934,0 -7.0000002,-0.4477 -7.0000002,-1 z m 0,4 C 6.3529564,15.562421 8.9580756,16 12,16 c 3.041924,0 5.647043,-0.437579 7,-1.0625 V 18 c 0,0.5523 -3.134007,1 -7,1 -3.8659934,0 -7.0000002,-0.4477 -7.0000002,-1 z"
     id="path2"
     style="fill:#8e03a3;fill-opacity:1" />
</svg>
