<?xml version="1.0" encoding="UTF-8" standalone="no"?>
<svg
   xmlns:dc="http://purl.org/dc/elements/1.1/"
   xmlns:cc="http://creativecommons.org/ns#"
   xmlns:rdf="http://www.w3.org/1999/02/22-rdf-syntax-ns#"
   xmlns:svg="http://www.w3.org/2000/svg"
   xmlns="http://www.w3.org/2000/svg"
   xmlns:sodipodi="http://sodipodi.sourceforge.net/DTD/sodipodi-0.dtd"
   xmlns:inkscape="http://www.inkscape.org/namespaces/inkscape"
   viewBox="0 0 24 24"
   version="1.1"
   id="svg6"
   sodipodi:docname="lc_extrusiontiltdown.svg"
   inkscape:export-filename="/home/jupiter007/Libreoffice yaru theme fullcolor/build/cmd/lc_extrusiontiltdown.png"
   inkscape:export-xdpi="96"
   inkscape:export-ydpi="96"
   inkscape:version="0.92.5 (2060ec1f9f, 2020-04-08)">
  <metadata
     id="metadata12">
    <rdf:RDF>
      <cc:Work
         rdf:about="">
        <dc:format>image/svg+xml</dc:format>
        <dc:type
           rdf:resource="http://purl.org/dc/dcmitype/StillImage" />
      </cc:Work>
    </rdf:RDF>
  </metadata>
  <defs
     id="defs10" />
  <sodipodi:namedview
     pagecolor="#ffffff"
     bordercolor="#666666"
     borderopacity="1"
     objecttolerance="10"
     gridtolerance="10"
     guidetolerance="10"
     inkscape:pageopacity="0"
     inkscape:pageshadow="2"
     inkscape:window-width="1920"
     inkscape:window-height="1011"
     id="namedview8"
     showgrid="false"
     inkscape:zoom="13.906433"
     inkscape:cx="3.6246992"
     inkscape:cy="12.714858"
     inkscape:window-x="0"
     inkscape:window-y="32"
     inkscape:window-maximized="1"
     inkscape:current-layer="svg6" />
  <path
     inkscape:connector-curvature="0"
     style="opacity:0.6;fill:#000000;stroke:#000000;stroke-width:2;stroke-linejoin:round;stroke-miterlimit:4;stroke-dasharray:none"
     id="path822"
     d="M 19.999999,13.000065 V 12.000066 H 4 v 0.999999 z" />
  <path
     inkscape:connector-curvature="0"
     d="M 19.999999,13.000065 V 12.000066 H 4 v 0.999999 z"
     id="path4-3"
     style="fill:#ffffff" />
  <path
     style="opacity:0.6;fill:#000000;fill-opacity:1;stroke:#000000;stroke-width:2;stroke-linejoin:round;stroke-miterlimit:4;stroke-dasharray:none;stroke-opacity:1"
     d="m 8,21.000067 2.999999,-4 h -2 v -4.000002 -2.999998 c 0,-1.6568542 1.567003,-3.0000002 3.5,-3.0000002 1.932996,0 3.5,1.343146 3.5,3.0000002 v 1 h 2 v -1 c 0,-2.7614242 -2.462434,-5.0000002 -5.5,-5.0000002 C 9.462433,5.0000668 7,7.2386428 7,10.000067 v 2.999998 4.000002 H 5 Z"
     id="path855"
     inkscape:connector-curvature="0"
     sodipodi:nodetypes="ccccsssccssscccc" />
  <path
     style="opacity:1;fill:#e97cc8;fill-opacity:1;stroke:none;stroke-width:2;stroke-linejoin:round;stroke-miterlimit:4;stroke-dasharray:none;stroke-opacity:1"
     d="m 17.999999,11.000067 v -1 c 0,-2.7614242 -2.462434,-5.0000002 -5.5,-5.0000002 C 9.462433,5.0000668 7,7.2386428 7,10.000067 h 1.999999 c 0,-1.6568542 1.567003,-3.0000002 3.5,-3.0000002 1.932996,0 3.5,1.343146 3.5,3.0000002 v 1 z"
     id="path834"
     inkscape:connector-curvature="0"
     sodipodi:nodetypes="cssccsscc" />
  <path
     inkscape:connector-curvature="0"
     style="fill:#e97cc8;fill-opacity:1;stroke:none;stroke-width:1px;stroke-linecap:butt;stroke-linejoin:miter;stroke-opacity:1"
     d="m 8,21.000067 2.999999,-4 h -2 V 13.000065 10.000067 H 7 v 2.999998 4.000002 H 5 Z"
     id="path833" />
</svg>
