<?xml version="1.0" encoding="UTF-8" standalone="no"?>
<svg
   xmlns:osb="http://www.openswatchbook.org/uri/2009/osb"
   xmlns:dc="http://purl.org/dc/elements/1.1/"
   xmlns:cc="http://creativecommons.org/ns#"
   xmlns:rdf="http://www.w3.org/1999/02/22-rdf-syntax-ns#"
   xmlns:svg="http://www.w3.org/2000/svg"
   xmlns="http://www.w3.org/2000/svg"
   xmlns:sodipodi="http://sodipodi.sourceforge.net/DTD/sodipodi-0.dtd"
   xmlns:inkscape="http://www.inkscape.org/namespaces/inkscape"
   height="24"
   id="svg7384"
   version="1.1"
   width="24"
   sodipodi:docname="lc_exportdialog.svg"
   inkscape:version="0.92.5 (2060ec1f9f, 2020-04-08)"
   inkscape:export-filename="/home/jupiter007/Libreoffice yaru theme fullcolor/build/cmd/lc_exportdialog.png"
   inkscape:export-xdpi="95"
   inkscape:export-ydpi="95">
  <sodipodi:namedview
     pagecolor="#ffffff"
     bordercolor="#666666"
     borderopacity="1"
     objecttolerance="10"
     gridtolerance="10"
     guidetolerance="10"
     inkscape:pageopacity="0"
     inkscape:pageshadow="2"
     inkscape:window-width="1920"
     inkscape:window-height="1011"
     id="namedview22"
     showgrid="true"
     inkscape:snap-page="true"
     inkscape:snap-grids="true"
     inkscape:zoom="16"
     inkscape:cx="-4.460716"
     inkscape:cy="5.7958507"
     inkscape:window-x="1920"
     inkscape:window-y="32"
     inkscape:window-maximized="1"
     inkscape:current-layer="svg7384">
    <inkscape:grid
       type="xygrid"
       id="grid831" />
  </sodipodi:namedview>
  <metadata
     id="metadata20854">
    <rdf:RDF>
      <cc:Work
         rdf:about="">
        <dc:title />
        <dc:format>image/svg+xml</dc:format>
        <dc:type
           rdf:resource="http://purl.org/dc/dcmitype/StillImage" />
      </cc:Work>
    </rdf:RDF>
  </metadata>
  <defs
     id="defs7386">
    <linearGradient
       id="linearGradient5606"
       osb:paint="solid">
      <stop
         id="stop5608"
         offset="0"
         style="stop-color:#000000;stop-opacity:1;" />
    </linearGradient>
    <linearGradient
       id="linearGradient4526"
       osb:paint="solid">
      <stop
         id="stop4528"
         offset="0"
         style="stop-color:#ffffff;stop-opacity:1;" />
    </linearGradient>
    <linearGradient
       id="linearGradient3600-4"
       osb:paint="gradient">
      <stop
         id="stop3602-7"
         offset="0"
         style="stop-color:#f4f4f4;stop-opacity:1" />
      <stop
         id="stop3604-6"
         offset="1"
         style="stop-color:#dbdbdb;stop-opacity:1" />
    </linearGradient>
  </defs>
  <g
     id="layer9"
     label="status"
     style="display:inline"
     transform="translate(-753.00024,135)" />
  <g
     id="layer2"
     style="display:inline"
     transform="translate(-512.00004,-232)" />
  <g
     id="layer4"
     style="display:inline"
     transform="translate(-512.00004,-232)" />
  <g
     id="g1812"
     style="display:inline"
     transform="translate(-512.00004,-232)" />
  <g
     id="g6217"
     style="display:inline"
     transform="translate(-512.00004,-232)" />
  <g
     id="layer3"
     style="display:inline"
     transform="translate(-512.00004,-232)" />
  <g
     id="layer1"
     style="display:inline"
     transform="translate(-512.00004,-232)" />
  <path
     sodipodi:nodetypes="cccscsccccccccscscccccc"
     inkscape:connector-curvature="0"
     id="path4237-1"
     d="M 6.9941411,2.999416 C 5.7359411,3.013916 4.81525,2.968816 4.0625,3.384182 3.68613,3.591842 3.389269,3.943568 3.224609,4.382228 3.059939,4.820898 3,5.341816 3,5.999416 V 7.487697 18 c 0,0.657609 0.0599,1.178577 0.224609,1.617189 0.16468,0.43861 0.461531,0.788523 0.837891,0.996092 C 4.81522,21.028412 5.7360411,20.984931 6.9941411,21 h 0.002 H 17.002 17.0059 c 1.25819,-0.0145 2.178891,0.0306 2.931641,-0.384766 0.37637,-0.20766 0.673221,-0.559386 0.837891,-0.998045 C 20.939971,19.178518 21.00005,18.657609 21.00005,18 V 7.466213 5.999416 c 0,-0.6576 -0.0599,-1.178577 -0.224609,-1.617188 C 20.610761,3.943629 20.31391,3.593695 19.93755,3.386135 19.18478,2.971005 18.263949,3.014496 17.005859,2.999416 h -0.002 -10.0058589 z"
     style="font-style:normal;font-variant:normal;font-weight:normal;font-stretch:normal;font-size:15px;line-height:125%;font-family:Ubuntu;-inkscape-font-specification:Ubuntu;text-align:center;letter-spacing:0px;word-spacing:0px;writing-mode:lr-tb;text-anchor:middle;display:inline;opacity:0.6;fill:#000000;fill-opacity:1;stroke:none;stroke-width:0.99980211" />
  <path
     inkscape:connector-curvature="0"
     id="path1993"
     d="M 11.983369,4.026601 C 10.426788,4.037401 6.8733791,4.014851 5.3234281,4.065371 4.862199,4.108041 4.30724,4.27179 4.168088,4.775338 3.949094,5.410684 4.059674,6.109125 4.022292,6.757262 c -0.0078,2.297084 -0.02297,9.59643 0.02152,11.885781 0.0391,0.461929 0.202551,1.012665 0.698756,1.163665 0.6324561,0.225083 1.2841441,0.12274 1.9359741,0.154299 1.424235,0.0068 4.8505629,0.01102 6.2764199,0.01131 1.704531,3.49e-4 3.408388,-0.005 5.10719,-0.01851 0.511911,-0.01201 1.183699,0.01993 1.584745,-0.405192 0.421097,-0.539783 0.287073,-1.268021 0.322745,-1.903787 0.01187,-2.444322 0.02769,-9.911096 -0.0219,-12.356795 C 19.898462,4.885993 19.77775,4.425081 19.372603,4.243558 18.704434,3.949461 17.946398,4.075539 17.246682,4.037986 15.492275,4.026186 13.737808,4.025496 11.983369,4.026596 Z"
     style="opacity:1;vector-effect:none;fill:#ffffff;fill-opacity:1;stroke:none;stroke-width:1;stroke-linecap:round;stroke-linejoin:bevel;stroke-miterlimit:4;stroke-dasharray:none;stroke-dashoffset:0;stroke-opacity:1"
     sodipodi:nodetypes="cccccccsccccccc" />
  <path
     inkscape:export-ydpi="96"
     inkscape:export-xdpi="96"
     inkscape:export-filename="/home/stuart/yaru/icons/Suru/24x24/legacy/document-import.png"
     sodipodi:nodetypes="cccccccc"
     id="path849"
     d="m 10.000025,10.999708 h 5 V 7.9997075 c 0,0 3,1 7,3.9999995 -4,3.000001 -7,4.000001 -7,4.000001 v -3 h -5 z"
     style="display:inline;opacity:0.6;fill:#000000;fill-opacity:1;stroke:#000000;stroke-width:2;stroke-linecap:round;stroke-linejoin:round;stroke-miterlimit:4;stroke-dasharray:none;stroke-dashoffset:0;stroke-opacity:1;enable-background:new"
     inkscape:connector-curvature="0" />
  <path
     inkscape:connector-curvature="0"
     style="display:inline;opacity:1;fill:#e97cc8;fill-opacity:1;stroke:none;stroke-width:1;stroke-linecap:round;stroke-linejoin:round;stroke-miterlimit:4;stroke-dasharray:none;stroke-dashoffset:0;stroke-opacity:0.88059698;enable-background:new"
     d="m 10.000025,10.999708 h 5 V 7.9997075 c 0,0 3,1 7,3.9999995 -4,3.000001 -7,4.000001 -7,4.000001 v -3 h -5 z"
     id="rect11148-3-5-5-7-0"
     sodipodi:nodetypes="cccccccc"
     inkscape:export-filename="/home/stuart/yaru/icons/Suru/24x24/legacy/document-import.png"
     inkscape:export-xdpi="96"
     inkscape:export-ydpi="96" />
  <g
     transform="matrix(0.73400013,0,0,0.73400013,1.632274,14.132274)"
     id="g47"
     style="fill:#b3b3b3;fill-opacity:1;stroke:#6d6d6d;stroke-opacity:1">
    <path
       style="display:block;fill:#b3b3b3;fill-opacity:1;stroke:#6d6d6d;stroke-width:1.36239755;stroke-linejoin:round;stroke-opacity:1"
       inkscape:connector-curvature="0"
       d="m 4.9953044,-2.2238063 c -0.2251553,0 -0.4071226,0.2880272 -0.4071226,0.6466061 v 1.04042491 H 4.4551301 L 2.9250935,0.11781452 2.826633,0.21893167 2.0735896,-0.53411316 C 1.8200337,-0.78766762 1.4877368,-0.86361992 1.3285284,-0.70441286 L -0.02322615,0.64734169 C -0.18243321,0.80655014 -0.10648227,1.1388471 0.14707355,1.3924029 L 0.90011839,2.1454464 0.79900124,2.2439064 0.14441142,3.773943 v 0.1330399 h -1.04041259 c -0.35857903,0 -0.64660623,0.1819672 -0.64660623,0.4071225 v 1.9105501 c 0,0.2251553 0.2880272,0.4071226 0.64660623,0.4071226 H 0.14442369 V 6.7754688 L 0.7990135,8.3055053 0.8948037,8.3986393 0.14708175,9.1463613 C -0.1064727,9.3999151 -0.18242501,9.7322142 -0.02321795,9.8914222 L 1.3285366,11.243176 c 0.1592084,0.159209 0.4915053,0.08326 0.7450611,-0.170299 l 0.747722,-0.747722 0.1037738,0.10643 1.5300366,0.657251 h 0.1330517 v 1.027121 c 0,0.358584 0.1819673,0.64661 0.4071226,0.64661 h 1.9105501 c 0.2251552,0 0.4071225,-0.288026 0.4071225,-0.646606 V 11.08884 h 0.1436907 l 1.5300366,-0.657251 0.09846,-0.101117 0.7424005,0.742401 c 0.2535562,0.253553 0.5858532,0.329508 0.7450622,0.170299 l 1.351754,-1.3517538 c 0.159207,-0.159209 0.08326,-0.4915071 -0.170299,-0.745061 l -0.742401,-0.7424005 0.101117,-0.09846 0.657251,-1.5300366 v -0.143682 h 1.027121 c 0.358569,0 0.646597,-0.1819673 0.646597,-0.4071226 V 4.3141054 c 0,-0.2251553 -0.288028,-0.4071225 -0.646607,-0.4071225 H 11.770039 V 3.7739311 L 11.112789,2.2438946 11.006358,2.1401207 11.75408,1.3923988 c 0.253555,-0.2535558 0.329507,-0.58585276 0.1703,-0.74506121 l -1.351755,-1.35175454 c -0.159208,-0.15920706 -0.491505,-0.0832561 -0.7450612,0.1702997 L 9.0798418,0.2136047 8.9867083,0.11781452 7.4566718,-0.53677529 H 7.312977 V -1.5772002 c 0,-0.3585789 -0.1819673,-0.6466061 -0.4071225,-0.6466061 z m 0.9605965,5.4495904 c 1.1300503,0 2.048918,0.9188677 2.048918,2.0489179 1.3e-6,1.1300502 -0.9188677,2.0489179 -2.048918,2.0489179 C 4.8258507,7.3236213 3.906983,6.4047522 3.906983,5.274702 c 0,-1.1300502 0.9188677,-2.0489179 2.0489179,-2.0489179 z"
       display="block"
       id="path41" />
  </g>
  <circle
     style="opacity:1;fill:#ffffff;fill-opacity:1;stroke:none;stroke-width:2;stroke-linecap:round;stroke-linejoin:round;stroke-miterlimit:4;stroke-dasharray:none;stroke-opacity:1"
     id="path838"
     cx="6"
     cy="18"
     r="1" />
</svg>
