<?xml version="1.0" encoding="UTF-8" standalone="no"?>
<svg
   xmlns:dc="http://purl.org/dc/elements/1.1/"
   xmlns:cc="http://creativecommons.org/ns#"
   xmlns:rdf="http://www.w3.org/1999/02/22-rdf-syntax-ns#"
   xmlns:svg="http://www.w3.org/2000/svg"
   xmlns="http://www.w3.org/2000/svg"
   xmlns:sodipodi="http://sodipodi.sourceforge.net/DTD/sodipodi-0.dtd"
   xmlns:inkscape="http://www.inkscape.org/namespaces/inkscape"
   viewBox="0 0 24 24"
   version="1.1"
   id="svg4"
   sodipodi:docname="lc_fontworkshapetype.fontwork-wave.svg"
   inkscape:export-filename="/home/jupiter007/Libreoffice yaru theme fullcolor/build/cmd/lc_fontworkshapetype.fontwork-wave.png"
   inkscape:export-xdpi="96"
   inkscape:export-ydpi="96"
   inkscape:version="0.92.4 (5da689c313, 2019-01-14)">
  <metadata
     id="metadata10">
    <rdf:RDF>
      <cc:Work
         rdf:about="">
        <dc:format>image/svg+xml</dc:format>
        <dc:type
           rdf:resource="http://purl.org/dc/dcmitype/StillImage" />
      </cc:Work>
    </rdf:RDF>
  </metadata>
  <defs
     id="defs8" />
  <sodipodi:namedview
     pagecolor="#ffffff"
     bordercolor="#666666"
     borderopacity="1"
     objecttolerance="10"
     gridtolerance="10"
     guidetolerance="10"
     inkscape:pageopacity="0"
     inkscape:pageshadow="2"
     inkscape:window-width="1920"
     inkscape:window-height="1011"
     id="namedview6"
     showgrid="false"
     inkscape:zoom="9.8333333"
     inkscape:cx="0.86440678"
     inkscape:cy="11.542373"
     inkscape:window-x="0"
     inkscape:window-y="32"
     inkscape:window-maximized="1"
     inkscape:current-layer="svg4" />
  <path
     style="fill:#000000;stroke:#000000;opacity:0.6;stroke-width:2;stroke-miterlimit:4;stroke-dasharray:none;stroke-linejoin:round"
     id="path817"
     fill="#232629"
     d="m8.15625 5.8515625c-1.341723-.0790375-2.72026.5699-4.15625 2.15625v1.9999995 4 2c2.466242-2.0964 5.042152-3.0529 7.9375 0 2.548597 2.5404 5.19052 3.1727 8.0625 0v-2-4-1.9999995c-2.466242 2.0963995-5.042152 3.0528995-7.9375 0-1.274299-1.2702-2.564527-2.0772125-3.90625-2.15625z" />
  <path
     d="m8.15625 5.8515625c-1.341723-.0790375-2.72026.5699-4.15625 2.15625v1.9999995 4 2c2.466242-2.0964 5.042152-3.0529 7.9375 0 2.548597 2.5404 5.19052 3.1727 8.0625 0v-2-4-1.9999995c-2.466242 2.0963995-5.042152 3.0528995-7.9375 0-1.274299-1.2702-2.564527-2.0772125-3.90625-2.15625z"
     fill="#232629"
     id="path2"
     style="fill:#ffffff" />
</svg>
