<?xml version="1.0" encoding="UTF-8" standalone="no"?>
<svg
   xmlns:dc="http://purl.org/dc/elements/1.1/"
   xmlns:cc="http://creativecommons.org/ns#"
   xmlns:rdf="http://www.w3.org/1999/02/22-rdf-syntax-ns#"
   xmlns:svg="http://www.w3.org/2000/svg"
   xmlns="http://www.w3.org/2000/svg"
   xmlns:sodipodi="http://sodipodi.sourceforge.net/DTD/sodipodi-0.dtd"
   xmlns:inkscape="http://www.inkscape.org/namespaces/inkscape"
   viewBox="0 0 24 24"
   version="1.1"
   id="svg6"
   sodipodi:docname="lc_heading4parastyle.svg"
   inkscape:export-filename="/home/jupiter007/Libreoffice yaru theme fullcolor/build/cmd/lc_heading4parastyle.png"
   inkscape:export-xdpi="96"
   inkscape:export-ydpi="96"
   inkscape:version="0.92.5 (2060ec1f9f, 2020-04-08)">
  <metadata
     id="metadata12">
    <rdf:RDF>
      <cc:Work
         rdf:about="">
        <dc:format>image/svg+xml</dc:format>
        <dc:type
           rdf:resource="http://purl.org/dc/dcmitype/StillImage" />
      </cc:Work>
    </rdf:RDF>
  </metadata>
  <defs
     id="defs10" />
  <sodipodi:namedview
     pagecolor="#ffffff"
     bordercolor="#666666"
     borderopacity="1"
     objecttolerance="10"
     gridtolerance="10"
     guidetolerance="10"
     inkscape:pageopacity="0"
     inkscape:pageshadow="2"
     inkscape:window-width="1920"
     inkscape:window-height="1011"
     id="namedview8"
     showgrid="true"
     inkscape:zoom="27.812867"
     inkscape:cx="7.6497368"
     inkscape:cy="8.8724806"
     inkscape:window-x="0"
     inkscape:window-y="32"
     inkscape:window-maximized="1"
     inkscape:current-layer="svg6">
    <inkscape:grid
       type="xygrid"
       id="grid822" />
  </sodipodi:namedview>
  <path
     style="fill:#000000;stroke:#000000;opacity:0.6;stroke-width:2;stroke-miterlimit:4;stroke-dasharray:none;stroke-linejoin:round"
     inkscape:connector-curvature="0"
     id="path824"
     d="m 3,4 v 16 h 2 v -7 h 7 v 7 h 2 V 4 h -2 v 7 H 5 V 4 Z" />
  <path
     style="fill:#000000;fill-opacity:1;stroke:#000000;opacity:0.6;stroke-width:2;stroke-miterlimit:4;stroke-dasharray:none;stroke-linejoin:round"
     fill="#762572"
     id="path826"
     d="m19.490234 11.970703-3.490234 5.166016v1.175781h3.396484v1.658203h1.644532v-1.658203h.958984v-1.3125h-.958984v-5.029297zm-.066406 1.9375h.044922c-.010888.069312-.026771.319539-.044922.75-.01815.43046-.027344.7582-.027344.984375v1.357422h-1.916015l1.458984-2.216797c.188748-.284542.350073-.575866.484375-.875z" />
  <path
     d="m 3,4 v 16 h 2 v -7 h 7 v 7 h 2 V 4 h -2 v 7 H 5 V 4 Z"
     id="path2"
     inkscape:connector-curvature="0"
     style="fill:#ffffff" />
  <path
     d="m19.490234 11.970703-3.490234 5.166016v1.175781h3.396484v1.658203h1.644532v-1.658203h.958984v-1.3125h-.958984v-5.029297zm-.066406 1.9375h.044922c-.010888.069312-.026771.319539-.044922.75-.01815.43046-.027344.7582-.027344.984375v1.357422h-1.916015l1.458984-2.216797c.188748-.284542.350073-.575866.484375-.875z"
     id="path4"
     fill="#762572"
     style="fill:#aee3f8;fill-opacity:1" />
</svg>
