<?xml version="1.0" encoding="UTF-8" standalone="no"?>
<svg
   xmlns:dc="http://purl.org/dc/elements/1.1/"
   xmlns:cc="http://creativecommons.org/ns#"
   xmlns:rdf="http://www.w3.org/1999/02/22-rdf-syntax-ns#"
   xmlns:svg="http://www.w3.org/2000/svg"
   xmlns="http://www.w3.org/2000/svg"
   xmlns:sodipodi="http://sodipodi.sourceforge.net/DTD/sodipodi-0.dtd"
   xmlns:inkscape="http://www.inkscape.org/namespaces/inkscape"
   viewBox="0 0 24 24"
   version="1.1"
   id="svg4"
   sodipodi:docname="lc_quotecharstyle.svg"
   inkscape:export-filename="/home/jupiter007/Libreoffice yaru theme fullcolor/build/cmd/lc_quotecharstyle.png"
   inkscape:export-xdpi="95"
   inkscape:export-ydpi="95"
   inkscape:version="0.92.5 (2060ec1f9f, 2020-04-08)">
  <metadata
     id="metadata10">
    <rdf:RDF>
      <cc:Work
         rdf:about="">
        <dc:format>image/svg+xml</dc:format>
        <dc:type
           rdf:resource="http://purl.org/dc/dcmitype/StillImage" />
      </cc:Work>
    </rdf:RDF>
  </metadata>
  <defs
     id="defs8" />
  <sodipodi:namedview
     pagecolor="#ffffff"
     bordercolor="#666666"
     borderopacity="1"
     objecttolerance="10"
     gridtolerance="10"
     guidetolerance="10"
     inkscape:pageopacity="0"
     inkscape:pageshadow="2"
     inkscape:window-width="1920"
     inkscape:window-height="1011"
     id="namedview6"
     showgrid="false"
     inkscape:zoom="19.666667"
     inkscape:cx="11.432446"
     inkscape:cy="10.308926"
     inkscape:window-x="1920"
     inkscape:window-y="32"
     inkscape:window-maximized="1"
     inkscape:current-layer="svg4" />
  <path
     id="path825"
     d="M 12.57739,3.0000002 A 6.3107276,7.7249412 24.542808 0 0 5.0773904,10.5 6.3107276,7.7249412 24.542808 0 0 10.57739,18 6.3107276,7.7249412 24.542808 0 0 11.460203,17.92383 L 12.999265,21 h 2.999999 l -1.999999,-4 h -0.05664 a 6.3107276,7.7249412 24.542808 0 0 4.134765,-6.5 6.3107276,7.7249412 24.542808 0 0 -5.5,-7.4999998 z m -0.400391,3 A 3.428139,4.5943294 17.626455 0 1 15.077389,10.5 3.428139,4.5943294 17.626455 0 1 10.975827,15 3.428139,4.5943294 17.626455 0 1 8.0773904,10.5 3.428139,4.5943294 17.626455 0 1 12.176999,6.0000002 Z"
     style="opacity:0.6;fill:#000000;fill-opacity:1;fill-rule:evenodd;stroke:#000000;stroke-width:2;stroke-linecap:butt;stroke-linejoin:round;stroke-miterlimit:4;stroke-dasharray:none;stroke-opacity:1"
     inkscape:connector-curvature="0" />
  <path
     style="opacity:1;fill:#ffffff;fill-opacity:1;fill-rule:evenodd;stroke:none;stroke-width:2;stroke-linecap:butt;stroke-linejoin:round;stroke-miterlimit:4;stroke-dasharray:none;stroke-opacity:1"
     d="M 12.57739,3.0000002 A 6.3107276,7.7249412 24.542808 0 0 5.0773904,10.5 6.3107276,7.7249412 24.542808 0 0 10.57739,18 6.3107276,7.7249412 24.542808 0 0 11.460203,17.92383 L 12.999265,21 h 2.999999 l -1.999999,-4 h -0.05664 a 6.3107276,7.7249412 24.542808 0 0 4.134765,-6.5 6.3107276,7.7249412 24.542808 0 0 -5.5,-7.4999998 z m -0.400391,3 A 3.428139,4.5943294 17.626455 0 1 15.077389,10.5 3.428139,4.5943294 17.626455 0 1 10.975827,15 3.428139,4.5943294 17.626455 0 1 8.0773904,10.5 3.428139,4.5943294 17.626455 0 1 12.176999,6.0000002 Z"
     id="path815"
     inkscape:connector-curvature="0" />
</svg>
