<?xml version="1.0" encoding="UTF-8" standalone="no"?>
<svg
   xmlns:dc="http://purl.org/dc/elements/1.1/"
   xmlns:cc="http://creativecommons.org/ns#"
   xmlns:rdf="http://www.w3.org/1999/02/22-rdf-syntax-ns#"
   xmlns:svg="http://www.w3.org/2000/svg"
   xmlns="http://www.w3.org/2000/svg"
   xmlns:sodipodi="http://sodipodi.sourceforge.net/DTD/sodipodi-0.dtd"
   xmlns:inkscape="http://www.inkscape.org/namespaces/inkscape"
   viewBox="0 0 24 24"
   version="1.1"
   id="svg4"
   sodipodi:docname="lc_symbolshapes.brace-pair.svg"
   inkscape:version="0.92.4 (5da689c313, 2019-01-14)"
   inkscape:export-filename="/home/jupiter007/Libreoffice yaru theme fullcolor/build/cmd/lc_symbolshapes.brace-pair.png"
   inkscape:export-xdpi="96"
   inkscape:export-ydpi="96">
  <metadata
     id="metadata10">
    <rdf:RDF>
      <cc:Work
         rdf:about="">
        <dc:format>image/svg+xml</dc:format>
        <dc:type
           rdf:resource="http://purl.org/dc/dcmitype/StillImage" />
      </cc:Work>
    </rdf:RDF>
  </metadata>
  <defs
     id="defs8" />
  <sodipodi:namedview
     pagecolor="#ffffff"
     bordercolor="#666666"
     borderopacity="1"
     objecttolerance="10"
     gridtolerance="10"
     guidetolerance="10"
     inkscape:pageopacity="0"
     inkscape:pageshadow="2"
     inkscape:window-width="1920"
     inkscape:window-height="1011"
     id="namedview6"
     showgrid="false"
     inkscape:zoom="27.812867"
     inkscape:cx="10.297963"
     inkscape:cy="14.229122"
     inkscape:window-x="0"
     inkscape:window-y="32"
     inkscape:window-maximized="1"
     inkscape:current-layer="svg4" />
  <path
     style="fill:#000000;stroke:#000000;opacity:0.6;stroke-width:2;stroke-miterlimit:4;stroke-dasharray:none;stroke-linejoin:round"
     id="path817"
     fill="#232629"
     d="m11.044922 4c-1.7768302 0-2.5214845.7063656-2.5214845 2.5097656v2.4414063c0 1.1138001-.034195 2.4042971-1.015625 2.4042971h-.5078125v1.289062h.5078125c.98148 0 1.015625 1.290497 1.015625 2.404297v2.441406c0 1.8034.7446543 2.509766 2.5214845 2.509766v-1.183594c-1.1845502 0-1.201172-.478337-1.201172-2.210937v-2.015625c0-.8309-.204705-2.067378-1.203125-2.580078.99842-.5127 1.203125-1.751032 1.203125-2.5820316v-2.0332032c0-1.7326.0165919-2.2109374 1.201172-2.2109374zm1.894531 0v1.1835938c1.18456 0 1.216797.4783374 1.216797 2.2109374v2.0332032c0 .8309996.204705 2.0693316 1.203125 2.5820316-.99842.5127-1.203125 1.749178-1.203125 2.580078v2.015625c0 1.7326-.03219 2.210937-1.216797 2.210937v1.183594c1.77684 0 2.537109-.706366 2.537109-2.509766v-2.441406c0-1.1138.06864-2.404297 1.033204-2.404297h.490234v-1.289062h-.490234c-.96457 0-1.033204-1.290497-1.033204-2.4042971v-2.4414063c0-1.8034-.760269-2.5097656-2.537109-2.5097656z" />
  <path
     d="m11.044922 4c-1.7768302 0-2.5214845.7063656-2.5214845 2.5097656v2.4414063c0 1.1138001-.034195 2.4042971-1.015625 2.4042971h-.5078125v1.289062h.5078125c.98148 0 1.015625 1.290497 1.015625 2.404297v2.441406c0 1.8034.7446543 2.509766 2.5214845 2.509766v-1.183594c-1.1845502 0-1.201172-.478337-1.201172-2.210937v-2.015625c0-.8309-.204705-2.067378-1.203125-2.580078.99842-.5127 1.203125-1.751032 1.203125-2.5820316v-2.0332032c0-1.7326.0165919-2.2109374 1.201172-2.2109374zm1.894531 0v1.1835938c1.18456 0 1.216797.4783374 1.216797 2.2109374v2.0332032c0 .8309996.204705 2.0693316 1.203125 2.5820316-.99842.5127-1.203125 1.749178-1.203125 2.580078v2.015625c0 1.7326-.03219 2.210937-1.216797 2.210937v1.183594c1.77684 0 2.537109-.706366 2.537109-2.509766v-2.441406c0-1.1138.06864-2.404297 1.033204-2.404297h.490234v-1.289062h-.490234c-.96457 0-1.033204-1.290497-1.033204-2.4042971v-2.4414063c0-1.8034-.760269-2.5097656-2.537109-2.5097656z"
     fill="#232629"
     id="path2"
     style="fill:#ffffff" />
</svg>
