<?xml version="1.0" encoding="UTF-8" standalone="no"?>
<svg
   xmlns:dc="http://purl.org/dc/elements/1.1/"
   xmlns:cc="http://creativecommons.org/ns#"
   xmlns:rdf="http://www.w3.org/1999/02/22-rdf-syntax-ns#"
   xmlns:svg="http://www.w3.org/2000/svg"
   xmlns="http://www.w3.org/2000/svg"
   xmlns:sodipodi="http://sodipodi.sourceforge.net/DTD/sodipodi-0.dtd"
   xmlns:inkscape="http://www.inkscape.org/namespaces/inkscape"
   viewBox="0 0 24 24"
   version="1.1"
   id="svg4"
   sodipodi:docname="lc_showtwopages.svg"
   inkscape:version="0.92.5 (2060ec1f9f, 2020-04-08)"
   inkscape:export-filename="/home/jupiter007/Libreoffice yaru theme fullcolor/build/cmd/lc_showtwopages.png"
   inkscape:export-xdpi="95"
   inkscape:export-ydpi="95">
  <metadata
     id="metadata10">
    <rdf:RDF>
      <cc:Work
         rdf:about="">
        <dc:format>image/svg+xml</dc:format>
        <dc:type
           rdf:resource="http://purl.org/dc/dcmitype/StillImage" />
      </cc:Work>
    </rdf:RDF>
  </metadata>
  <defs
     id="defs8" />
  <sodipodi:namedview
     pagecolor="#ffffff"
     bordercolor="#666666"
     borderopacity="1"
     objecttolerance="10"
     gridtolerance="10"
     guidetolerance="10"
     inkscape:pageopacity="0"
     inkscape:pageshadow="2"
     inkscape:window-width="1920"
     inkscape:window-height="1011"
     id="namedview6"
     showgrid="true"
     inkscape:zoom="19.666666"
     inkscape:cx="14.167545"
     inkscape:cy="13.178531"
     inkscape:window-x="1920"
     inkscape:window-y="32"
     inkscape:window-maximized="1"
     inkscape:current-layer="svg4">
    <inkscape:grid
       type="xygrid"
       id="grid823" />
  </sodipodi:namedview>
  <path
     sodipodi:nodetypes="cccccccccccc"
     style="opacity:0.6;fill:#000000;stroke:#000000;stroke-width:2;stroke-linejoin:round;stroke-miterlimit:4;stroke-dasharray:none"
     id="path829"
     d="m 14,20 c -2,0 -3,0 -3,-2 V 5.9999998 c 0,-2 1,-2 3,-2 h 4 l 1,1 2,2 1,1 V 9.4062498 18 c 0,2 -1,2 -3,2 z"
     inkscape:connector-curvature="0" />
  <path
     inkscape:connector-curvature="0"
     d="m 14,20 c -2,0 -3,0 -3,-2 V 5.9999998 c 0,-2 1,-2 3,-2 h 4 l 1,1 2,2 1,1 V 9.4062498 18 c 0,2 -1,2 -3,2 z"
     id="path2"
     style="fill:#ffffff"
     sodipodi:nodetypes="cccccccccccc" />
  <path
     inkscape:connector-curvature="0"
     d="m 18,7.9999998 v -4 l 4,4 z"
     id="path4"
     style="fill:#6d6d6d;fill-opacity:1"
     sodipodi:nodetypes="cccc" />
  <path
     inkscape:connector-curvature="0"
     d="M 5,20 C 3,20 2,20 2,18 V 6 C 2,4 3,4 5,4 h 4 l 1,1 2,2 1,1 V 9.40625 18 c 0,2 -1,2 -3,2 z"
     id="path830"
     style="opacity:0.6;fill:#000000;stroke:#000000;stroke-width:2;stroke-linejoin:round;stroke-miterlimit:4;stroke-dasharray:none"
     sodipodi:nodetypes="cccccccccccc" />
  <path
     sodipodi:nodetypes="cccccccccccc"
     style="fill:#ffffff"
     id="path832"
     d="M 5,20 C 3,20 2,20 2,18 V 6 C 2,4 3,4 5,4 h 4 l 1,1 2,2 1,1 V 9.40625 18 c 0,2 -1,2 -3,2 z"
     inkscape:connector-curvature="0" />
  <path
     sodipodi:nodetypes="cccc"
     style="fill:#6d6d6d;fill-opacity:1"
     id="path834"
     d="M 9,8 V 4 l 4,4 z"
     inkscape:connector-curvature="0" />
</svg>
