<?xml version="1.0" encoding="UTF-8" standalone="no"?>
<svg
   xmlns:dc="http://purl.org/dc/elements/1.1/"
   xmlns:cc="http://creativecommons.org/ns#"
   xmlns:rdf="http://www.w3.org/1999/02/22-rdf-syntax-ns#"
   xmlns:svg="http://www.w3.org/2000/svg"
   xmlns="http://www.w3.org/2000/svg"
   xmlns:sodipodi="http://sodipodi.sourceforge.net/DTD/sodipodi-0.dtd"
   xmlns:inkscape="http://www.inkscape.org/namespaces/inkscape"
   viewBox="0 0 24 24"
   version="1.1"
   id="svg4"
   sodipodi:docname="lc_strongemphasischarstyle.svg"
   inkscape:version="0.92.5 (2060ec1f9f, 2020-04-08)"
   inkscape:export-filename="/home/jupiter007/Libreoffice yaru theme fullcolor/build/cmd/lc_strongemphasischarstyle.png"
   inkscape:export-xdpi="96"
   inkscape:export-ydpi="96">
  <metadata
     id="metadata10">
    <rdf:RDF>
      <cc:Work
         rdf:about="">
        <dc:format>image/svg+xml</dc:format>
        <dc:type
           rdf:resource="http://purl.org/dc/dcmitype/StillImage" />
      </cc:Work>
    </rdf:RDF>
  </metadata>
  <defs
     id="defs8" />
  <sodipodi:namedview
     pagecolor="#ffffff"
     bordercolor="#666666"
     borderopacity="1"
     objecttolerance="10"
     gridtolerance="10"
     guidetolerance="10"
     inkscape:pageopacity="0"
     inkscape:pageshadow="2"
     inkscape:window-width="1920"
     inkscape:window-height="1011"
     id="namedview6"
     showgrid="false"
     inkscape:zoom="9.8333333"
     inkscape:cx="0.66101695"
     inkscape:cy="12"
     inkscape:window-x="0"
     inkscape:window-y="32"
     inkscape:window-maximized="1"
     inkscape:current-layer="svg4" />
  <path
     style="fill:#000000;stroke:#000000;opacity:0.6;stroke-width:2;stroke-miterlimit:4;stroke-dasharray:none;stroke-linejoin:round"
     id="path817"
     fill="#232629"
     d="m12.373047 4c-1.622945 0-2.8969128.3938828-3.8203126 1.1816406-.9164043.7877579-1.375 1.8692919-1.375 3.2460938 0 .7309824.1401038 1.3695529.4199218 1.9160156.2798181.546463.6543516 1.025879 1.1230469 1.4375.4686954.411621 1.1719843.841957 2.1093749 1.289062 1.00035.482591 1.660631.832731 1.982422 1.052735.328786.220005.578203.452064.746094.693359.167891.234199.251953.503427.251953.808594 0 .546463-.193375.957595-.578125 1.234375-.377755.27678-.923183.416016-1.636719.416016-.594613 0-1.252124-.095493-1.9726561-.28711-.7135362-.191617-1.5877199-.521838-2.6230469-.990234v3.064453c1.2591815.624529 2.706814.9375 4.34375.9375 1.776845 0 3.162895-.403842 4.15625-1.212891 1.000349-.809049 1.5-1.917075 1.5-3.322265 0-1.014859-.26522-1.868956-.796875-2.564453-.531654-.702596-1.515151-1.402159-2.949219-2.097657-1.084295-.525172-1.772597-.8872235-2.066406-1.0859371-.286814-.2058106-.497946-.4159987-.630859-.6289063-.132914-.2200044-.199219-.4746514-.199219-.765625 0-.4683965.165354-.8476982.49414-1.1386718.328787-.2909736.800416-.4375 1.416016-.4375.517664 0 1.042564.0682835 1.574219.203125.53865.1348414 1.216688.3722385 2.035156.7128906l1.048828-2.5664063c-.790486-.3477489-1.547863-.6169769-2.27539-.8085937-.720532-.1916168-1.479862-.2871094-2.277344-.2871094z" />
  <path
     d="m12.373047 4c-1.622945 0-2.8969128.3938828-3.8203126 1.1816406-.9164043.7877579-1.375 1.8692919-1.375 3.2460938 0 .7309824.1401038 1.3695529.4199218 1.9160156.2798181.546463.6543516 1.025879 1.1230469 1.4375.4686954.411621 1.1719843.841957 2.1093749 1.289062 1.00035.482591 1.660631.832731 1.982422 1.052735.328786.220005.578203.452064.746094.693359.167891.234199.251953.503427.251953.808594 0 .546463-.193375.957595-.578125 1.234375-.377755.27678-.923183.416016-1.636719.416016-.594613 0-1.252124-.095493-1.9726561-.28711-.7135362-.191617-1.5877199-.521838-2.6230469-.990234v3.064453c1.2591815.624529 2.706814.9375 4.34375.9375 1.776845 0 3.162895-.403842 4.15625-1.212891 1.000349-.809049 1.5-1.917075 1.5-3.322265 0-1.014859-.26522-1.868956-.796875-2.564453-.531654-.702596-1.515151-1.402159-2.949219-2.097657-1.084295-.525172-1.772597-.8872235-2.066406-1.0859371-.286814-.2058106-.497946-.4159987-.630859-.6289063-.132914-.2200044-.199219-.4746514-.199219-.765625 0-.4683965.165354-.8476982.49414-1.1386718.328787-.2909736.800416-.4375 1.416016-.4375.517664 0 1.042564.0682835 1.574219.203125.53865.1348414 1.216688.3722385 2.035156.7128906l1.048828-2.5664063c-.790486-.3477489-1.547863-.6169769-2.27539-.8085937-.720532-.1916168-1.479862-.2871094-2.277344-.2871094z"
     fill="#232629"
     id="path2"
     style="fill:#ffffff" />
</svg>
