<?xml version="1.0" encoding="UTF-8" standalone="no"?>
<!-- Created with Inkscape (http://www.inkscape.org/) -->

<svg
   xmlns:dc="http://purl.org/dc/elements/1.1/"
   xmlns:cc="http://creativecommons.org/ns#"
   xmlns:rdf="http://www.w3.org/1999/02/22-rdf-syntax-ns#"
   xmlns:svg="http://www.w3.org/2000/svg"
   xmlns="http://www.w3.org/2000/svg"
   xmlns:sodipodi="http://sodipodi.sourceforge.net/DTD/sodipodi-0.dtd"
   xmlns:inkscape="http://www.inkscape.org/namespaces/inkscape"
   width="24"
   height="24"
   viewBox="0 0 6.3499997 6.3499997"
   version="1.1"
   id="svg8"
   inkscape:version="0.92.4 (5da689c313, 2019-01-14)"
   sodipodi:docname="lc_text.svg"
   inkscape:export-filename="/home/jupiter007/Libreoffice yaru theme fullcolor/build/cmd/lc_text.png"
   inkscape:export-xdpi="95"
   inkscape:export-ydpi="95">
  <defs
     id="defs2" />
  <sodipodi:namedview
     id="base"
     pagecolor="#ffffff"
     bordercolor="#666666"
     borderopacity="1.0"
     inkscape:pageopacity="0.0"
     inkscape:pageshadow="2"
     inkscape:zoom="31.678384"
     inkscape:cx="5.7427942"
     inkscape:cy="7.3903755"
     inkscape:document-units="px"
     inkscape:current-layer="layer1"
     showgrid="true"
     fit-margin-top="0"
     fit-margin-left="0"
     fit-margin-right="0"
     fit-margin-bottom="0"
     units="px"
     inkscape:window-width="1920"
     inkscape:window-height="1011"
     inkscape:window-x="1920"
     inkscape:window-y="32"
     inkscape:window-maximized="1">
    <inkscape:grid
       type="xygrid"
       id="grid829" />
  </sodipodi:namedview>
  <metadata
     id="metadata5">
    <rdf:RDF>
      <cc:Work
         rdf:about="">
        <dc:format>image/svg+xml</dc:format>
        <dc:type
           rdf:resource="http://purl.org/dc/dcmitype/StillImage" />
        <dc:title />
      </cc:Work>
    </rdf:RDF>
  </metadata>
  <g
     inkscape:label="Calque 1"
     inkscape:groupmode="layer"
     id="layer1"
     transform="translate(72.306845,-147.88839)">
    <path
       sodipodi:nodetypes="cccscsccccccccscscccccc"
       inkscape:connector-curvature="0"
       id="path4237-1"
       d="m -70.456319,148.68204 c -0.332899,0.004 -0.576498,-0.008 -0.775663,0.1018 -0.09958,0.0549 -0.178126,0.14801 -0.221692,0.26407 -0.04357,0.11606 -0.05943,0.25389 -0.05943,0.42788 v 0.39377 2.51684 c 0,0.17399 0.01585,0.31183 0.05943,0.42788 0.04357,0.11605 0.122113,0.20863 0.221692,0.26355 0.199157,0.10983 0.442791,0.0983 0.775663,0.10232 h 5.29e-4 2.647384 0.001 c 0.332896,-0.004 0.576498,0.008 0.775663,-0.10181 0.09958,-0.0549 0.178123,-0.148 0.221692,-0.26406 0.04353,-0.11607 0.05943,-0.25389 0.05943,-0.42788 v -2.52252 -0.38809 c 0,-0.17399 -0.01585,-0.31183 -0.05943,-0.42788 -0.04357,-0.11605 -0.122113,-0.20863 -0.221692,-0.26355 -0.19917,-0.10984 -0.442807,-0.0983 -0.775676,-0.10232 h -5.29e-4 -2.647384 z"
       style="font-style:normal;font-variant:normal;font-weight:normal;font-stretch:normal;font-size:15px;line-height:125%;font-family:Ubuntu;-inkscape-font-specification:Ubuntu;text-align:center;letter-spacing:0px;word-spacing:0px;writing-mode:lr-tb;text-anchor:middle;display:inline;opacity:0.6;fill:#000000;fill-opacity:1;stroke:none;stroke-width:0.26453096" />
    <path
       inkscape:connector-curvature="0"
       id="path1993"
       d="m -69.665419,148.95382 c -0.411845,0.003 -0.822852,-0.003 -1.232943,0.0103 -0.122033,0.0113 -0.268866,0.0546 -0.305683,0.18784 -0.05794,0.1681 -0.02868,0.3529 -0.03858,0.52438 -0.0021,0.60778 -0.0061,2.27451 0.0057,2.88024 0.01035,0.12222 0.05359,0.26793 0.184879,0.30788 0.167338,0.0596 0.339764,0.0325 0.512227,0.0408 0.376829,0.002 1.283378,0.003 1.660636,0.003 0.45099,9e-5 0.901803,-0.001 1.351277,-0.005 0.135443,-0.003 0.313187,0.005 0.419297,-0.1072 0.111416,-0.14282 0.07596,-0.3355 0.08539,-0.50371 0.0031,-0.64673 0.0073,-2.35777 -0.0058,-3.00486 -0.01304,-0.10637 -0.04498,-0.22832 -0.152172,-0.27635 -0.176787,-0.0778 -0.37735,-0.0444 -0.562484,-0.0544 -0.464186,-0.003 -1.457556,-0.003 -1.921751,-0.003 z"
       style="opacity:1;vector-effect:none;fill:#fa9381;fill-opacity:1;stroke:none;stroke-width:0.26458332;stroke-linecap:round;stroke-linejoin:bevel;stroke-miterlimit:4;stroke-dasharray:none;stroke-dashoffset:0;stroke-opacity:1"
       sodipodi:nodetypes="cccccccsccccccc" />
    <circle
       style="opacity:1;vector-effect:none;fill:#46a926;fill-opacity:1;stroke:none;stroke-width:0.92604154;stroke-linecap:butt;stroke-linejoin:round;stroke-miterlimit:4;stroke-dasharray:none;stroke-dashoffset:0;stroke-opacity:1"
       id="path2644"
       cy="152.52571"
       cx="-67.412048"
       r="0.9260416" />
    <path
       inkscape:connector-curvature="0"
       id="path1063"
       overflow="visible"
       font-weight="400"
       style="color:#000000;font-weight:400;line-height:normal;font-family:sans-serif;text-indent:0;text-align:start;text-decoration:none;text-decoration-line:none;text-decoration-style:solid;text-decoration-color:#000000;text-transform:none;white-space:normal;overflow:visible;isolation:auto;mix-blend-mode:normal;fill:#ffffff;fill-opacity:1;stroke-width:0.26458332;marker:none"
       d="m -67.544346,151.86423 v 0.52917 h -0.529166 v 0.26458 h 0.529166 v 0.52917 h 0.264584 v -0.52917 h 0.529166 v -0.26458 h -0.529166 v -0.52917 z" />
    <path
       style="fill:#ffffff;fill-opacity:1;stroke-width:0.26458332"
       d="m -70.190178,150.00505 v 0.52917 h 0.79375 v 1.5875 h 0.529166 v -1.5875 h 0.79375 v -0.52917 z"
       id="path815-3"
       inkscape:connector-curvature="0"
       sodipodi:nodetypes="ccccccccc" />
  </g>
</svg>
