<?xml version="1.0" encoding="UTF-8" standalone="no"?>
<svg
   xmlns:dc="http://purl.org/dc/elements/1.1/"
   xmlns:cc="http://creativecommons.org/ns#"
   xmlns:rdf="http://www.w3.org/1999/02/22-rdf-syntax-ns#"
   xmlns:svg="http://www.w3.org/2000/svg"
   xmlns="http://www.w3.org/2000/svg"
   xmlns:sodipodi="http://sodipodi.sourceforge.net/DTD/sodipodi-0.dtd"
   xmlns:inkscape="http://www.inkscape.org/namespaces/inkscape"
   inkscape:version="0.92.5 (2060ec1f9f, 2020-04-08)"
   inkscape:export-ydpi="96"
   inkscape:export-xdpi="96"
   inkscape:export-filename="/home/jupiter007/Libreoffice yaru theme fullcolor/build/cmd/sc_bold.png"
   sodipodi:docname="sc_bold.svg"
   id="svg834"
   version="1.1"
   viewBox="0 0 16 16"><metadata
   id="metadata840">
  <rdf:RDF>
    <cc:Work
       rdf:about="">
      <dc:format>image/svg+xml</dc:format>
      <dc:type
         rdf:resource="http://purl.org/dc/dcmitype/StillImage" />
    </cc:Work>
  </rdf:RDF>
</metadata>
<defs
   id="defs838" />
<sodipodi:namedview
   inkscape:current-layer="svg834"
   inkscape:window-maximized="1"
   inkscape:window-y="32"
   inkscape:window-x="0"
   inkscape:cy="2.5895873"
   inkscape:cx="18.919071"
   inkscape:zoom="13.515625"
   showgrid="true"
   id="namedview836"
   inkscape:window-height="1011"
   inkscape:window-width="1920"
   inkscape:pageshadow="2"
   inkscape:pageopacity="0"
   guidetolerance="10"
   gridtolerance="10"
   objecttolerance="10"
   borderopacity="1"
   bordercolor="#666666"
   pagecolor="#ffffff">
  <inkscape:grid
     id="grid2009"
     type="xygrid" />
</sodipodi:namedview>

/&gt;<path
   sodipodi:nodetypes="cccccccsscsscccssscccssscc"
   id="path2031"
   style="opacity:0.6;fill:#000000;stroke:#000000;stroke-width:2;stroke-linejoin:round;stroke-miterlimit:4;stroke-dasharray:none"
   d="M 3.0001562,2 V 5.3417969 7.25 7.7460938 11.220703 14 H 6.4298437 9.7148438 C 12.089126,14 14,12.44997 14,10.525391 14,8.993399 12.781502,7.7142822 11.089844,7.25 11.813378,6.7171767 12.285156,5.8796669 12.285156,4.9238281 12.285156,3.3041193 10.947156,2 9.2851562,2 H 6.4298437 Z m 3,3 H 7 C 8.108,5 9,5.446 9,6 9,6.554 8.108,7 7,7 H 6.0001562 Z m 0,4 H 8 c 1.662,0 2,0.446 2,1 0,0.554 -0.338,1 -2,1 H 6.0001562 Z"
   inkscape:connector-curvature="0" />
<path
   sodipodi:nodetypes="cccccccsscsscccssscccssscc"
   d="M 3.0001562,2 V 5.3417969 7.25 7.7460938 11.220703 14 H 6.4298437 9.7148438 C 12.089126,14 14,12.44997 14,10.525391 14,8.993399 12.781502,7.7142822 11.089844,7.25 11.813378,6.7171767 12.285156,5.8796669 12.285156,4.9238281 12.285156,3.3041193 10.947156,2 9.2851562,2 H 6.4298437 Z m 3,3 H 7 C 8.108,5 9,5.446 9,6 9,6.554 8.108,7 7,7 H 6.0001562 Z m 0,4 H 8 c 1.662,0 2,0.446 2,1 0,0.554 -0.338,1 -2,1 H 6.0001562 Z"
   style="fill:#ffffff;stroke-width:0.84617001"
   id="path1988"
   inkscape:connector-curvature="0" />
</svg>
