<?xml version="1.0" encoding="UTF-8" standalone="no"?>
<svg
   xmlns:dc="http://purl.org/dc/elements/1.1/"
   xmlns:cc="http://creativecommons.org/ns#"
   xmlns:rdf="http://www.w3.org/1999/02/22-rdf-syntax-ns#"
   xmlns:svg="http://www.w3.org/2000/svg"
   xmlns="http://www.w3.org/2000/svg"
   xmlns:sodipodi="http://sodipodi.sourceforge.net/DTD/sodipodi-0.dtd"
   xmlns:inkscape="http://www.inkscape.org/namespaces/inkscape"
   viewBox="0 0 16 16"
   version="1.1"
   id="svg4"
   sodipodi:docname="sc_connectorlinescircleend.svg"
   inkscape:export-filename="/home/jupiter007/Libreoffice yaru theme fullcolor/build/cmd/sc_connectorlinescircleend.png"
   inkscape:export-xdpi="96"
   inkscape:export-ydpi="96"
   inkscape:version="0.92.5 (2060ec1f9f, 2020-04-08)"><metadata
   id="metadata10">
  <rdf:RDF>
    <cc:Work
       rdf:about="">
      <dc:format>image/svg+xml</dc:format>
      <dc:type
         rdf:resource="http://purl.org/dc/dcmitype/StillImage" />
    </cc:Work>
  </rdf:RDF>
</metadata>
<defs
   id="defs8" />
<sodipodi:namedview
   pagecolor="#ffffff"
   bordercolor="#666666"
   borderopacity="1"
   objecttolerance="10"
   gridtolerance="10"
   guidetolerance="10"
   inkscape:pageopacity="0"
   inkscape:pageshadow="2"
   inkscape:window-width="1920"
   inkscape:window-height="1011"
   id="namedview6"
   showgrid="true"
   inkscape:zoom="29.5"
   inkscape:cx="-0.3289481"
   inkscape:cy="7.9174774"
   inkscape:window-x="0"
   inkscape:window-y="32"
   inkscape:window-maximized="1"
   inkscape:current-layer="svg4">
  <inkscape:grid
     type="xygrid"
     id="grid819" />
</sodipodi:namedview>
/&gt;<path
   style="fill:#000000;stroke:#000000;opacity:0.6;stroke-width:2;stroke-miterlimit:4;stroke-dasharray:none;stroke-linejoin:round"
   id="path817"
   fill="#232629"
   d="m4 3v1h1 .8632812l3.5976563 9h.5390625 1 .09375c.203774.586424.750376 1 1.40625 1 .828374 0 1.5-.671551 1.5-1.5s-.671626-1.5-1.5-1.5c-.655874 0-1.202476.413576-1.40625 1h-.09375-.861328l-3.5996095-9h-.5390625-1zm8.5 9c.276075 0 .5.22385.5.5s-.223925.5-.5.5c-.276149 0-.5-.22385-.5-.5s.223851-.5.5-.5z" />
<path
   d="m4 3v1h1 .8632812l3.5976563 9h.5390625 1 .09375c.203774.586424.750376 1 1.40625 1 .828374 0 1.5-.671551 1.5-1.5s-.671626-1.5-1.5-1.5c-.655874 0-1.202476.413576-1.40625 1h-.09375-.861328l-3.5996095-9h-.5390625-1zm8.5 9c.276075 0 .5.22385.5.5s-.223925.5-.5.5c-.276149 0-.5-.22385-.5-.5s.223851-.5.5-.5z"
   fill="#232629"
   id="path2"
   style="fill:#ffffff" />
<circle
   style="opacity:0.6;fill:#000000;fill-opacity:1;fill-rule:evenodd;stroke:none;stroke-width:2;stroke-linecap:butt;stroke-linejoin:round;stroke-miterlimit:4;stroke-dasharray:none;stroke-opacity:1"
   id="path821"
   cx="12.5"
   cy="12.5"
   r="0.5" />
</svg>
