<?xml version="1.0" encoding="UTF-8" standalone="no"?>
<svg
   xmlns:dc="http://purl.org/dc/elements/1.1/"
   xmlns:cc="http://creativecommons.org/ns#"
   xmlns:rdf="http://www.w3.org/1999/02/22-rdf-syntax-ns#"
   xmlns:svg="http://www.w3.org/2000/svg"
   xmlns="http://www.w3.org/2000/svg"
   xmlns:sodipodi="http://sodipodi.sourceforge.net/DTD/sodipodi-0.dtd"
   xmlns:inkscape="http://www.inkscape.org/namespaces/inkscape"
   viewBox="0 0 16 16"
   version="1.1"
   id="svg4"
   sodipodi:docname="sc_connectorline.svg"
   inkscape:export-filename="/home/jupiter007/Libreoffice yaru theme fullcolor/build/cmd/sc_connectorline.png"
   inkscape:export-xdpi="96"
   inkscape:export-ydpi="96"
   inkscape:version="0.92.5 (2060ec1f9f, 2020-04-08)"><metadata
   id="metadata10">
  <rdf:RDF>
    <cc:Work
       rdf:about="">
      <dc:format>image/svg+xml</dc:format>
      <dc:type
         rdf:resource="http://purl.org/dc/dcmitype/StillImage" />
    </cc:Work>
  </rdf:RDF>
</metadata>
<defs
   id="defs8" />
<sodipodi:namedview
   pagecolor="#ffffff"
   bordercolor="#666666"
   borderopacity="1"
   objecttolerance="10"
   gridtolerance="10"
   guidetolerance="10"
   inkscape:pageopacity="0"
   inkscape:pageshadow="2"
   inkscape:window-width="1920"
   inkscape:window-height="1011"
   id="namedview6"
   showgrid="true"
   inkscape:zoom="59"
   inkscape:cx="7.9593514"
   inkscape:cy="8.4376403"
   inkscape:window-x="0"
   inkscape:window-y="32"
   inkscape:window-maximized="1"
   inkscape:current-layer="svg4">
  <inkscape:grid
     type="xygrid"
     id="grid819" />
</sodipodi:namedview>
/&gt;<path
   style="fill:#000000;stroke:#000000;opacity:0.6;stroke-width:2;stroke-miterlimit:4;stroke-dasharray:none;stroke-linejoin:round"
   id="path817"
   fill="#232629"
   d="m3.5 2c-.828427 0-1.5.6715511-1.5 1.5 0 .8283739.671573 1.5 1.5 1.5.2329951 0 .4595208-.0614501.65625-.15625l7 7c-.094794.196729-.15625.423255-.15625.65625 0 .828427.671573 1.5 1.5 1.5s1.5-.671573 1.5-1.5-.671573-1.5-1.5-1.5c-.232995 0-.459521.061456-.65625.15625l-7-7c.0947938-.1967247.15625-.4233003.15625-.65625 0-.8284489-.671573-1.5-1.5-1.5zm0 1c.2761424 0 .5.2238504.5.5s-.2238576.5-.5.5c-.2761423 0-.5-.2238504-.5-.5s.2238577-.5.5-.5zm9 9c.276142 0 .5.223858.5.5s-.223858.5-.5.5-.5-.223858-.5-.5.223858-.5.5-.5z" />
<path
   d="m3.5 2c-.828427 0-1.5.6715511-1.5 1.5 0 .8283739.671573 1.5 1.5 1.5.2329951 0 .4595208-.0614501.65625-.15625l7 7c-.094794.196729-.15625.423255-.15625.65625 0 .828427.671573 1.5 1.5 1.5s1.5-.671573 1.5-1.5-.671573-1.5-1.5-1.5c-.232995 0-.459521.061456-.65625.15625l-7-7c.0947938-.1967247.15625-.4233003.15625-.65625 0-.8284489-.671573-1.5-1.5-1.5zm0 1c.2761424 0 .5.2238504.5.5s-.2238576.5-.5.5c-.2761423 0-.5-.2238504-.5-.5s.2238577-.5.5-.5zm9 9c.276142 0 .5.223858.5.5s-.223858.5-.5.5-.5-.223858-.5-.5.223858-.5.5-.5z"
   fill="#232629"
   id="path2"
   style="fill:#ffffff" />
<circle
   style="opacity:0.6;fill:#000000;fill-opacity:1;fill-rule:evenodd;stroke:none;stroke-width:2;stroke-linecap:butt;stroke-linejoin:round;stroke-miterlimit:4;stroke-dasharray:none;stroke-opacity:1"
   id="path821"
   cx="3.5"
   cy="3.5"
   r="0.5" />
<circle
   style="opacity:0.6;fill:#000000;fill-opacity:1;fill-rule:evenodd;stroke:none;stroke-width:2;stroke-linecap:butt;stroke-linejoin:round;stroke-miterlimit:4;stroke-dasharray:none;stroke-opacity:1"
   id="path823"
   cx="12.5"
   cy="12.5"
   r="0.5" />
</svg>
