<?xml version="1.0" encoding="UTF-8" standalone="no"?>
<svg
   xmlns:dc="http://purl.org/dc/elements/1.1/"
   xmlns:cc="http://creativecommons.org/ns#"
   xmlns:rdf="http://www.w3.org/1999/02/22-rdf-syntax-ns#"
   xmlns:svg="http://www.w3.org/2000/svg"
   xmlns="http://www.w3.org/2000/svg"
   xmlns:sodipodi="http://sodipodi.sourceforge.net/DTD/sodipodi-0.dtd"
   xmlns:inkscape="http://www.inkscape.org/namespaces/inkscape"
   viewBox="0 0 16 16"
   version="1.1"
   id="svg4"
   sodipodi:docname="sc_dbviewqueries.svg"
   inkscape:export-filename="/home/jupiter007/Libreoffice yaru theme fullcolor/build/cmd/sc_dbviewqueries.png"
   inkscape:export-xdpi="95"
   inkscape:export-ydpi="95"
   inkscape:version="0.92.5 (2060ec1f9f, 2020-04-08)">
  <metadata
     id="metadata10">
    <rdf:RDF>
      <cc:Work
         rdf:about="">
        <dc:format>image/svg+xml</dc:format>
        <dc:type
           rdf:resource="http://purl.org/dc/dcmitype/StillImage" />
      </cc:Work>
    </rdf:RDF>
  </metadata>
  <defs
     id="defs8" />
  <sodipodi:namedview
     pagecolor="#ffffff"
     bordercolor="#666666"
     borderopacity="1"
     objecttolerance="10"
     gridtolerance="10"
     guidetolerance="10"
     inkscape:pageopacity="0"
     inkscape:pageshadow="2"
     inkscape:window-width="1920"
     inkscape:window-height="1011"
     id="namedview6"
     showgrid="false"
     inkscape:zoom="14.75"
     inkscape:cx="0.44067797"
     inkscape:cy="8"
     inkscape:window-x="1920"
     inkscape:window-y="32"
     inkscape:window-maximized="1"
     inkscape:current-layer="svg4" />
  <path
     style="fill:#f2cbf8;fill-opacity:1;stroke-width:0.91666681"
     id="path817"
     d="m 7.9999998,2.4999999 c -3.0375661,0 -5.5,0.8208113 -5.5,1.8333333 v 7.3333328 c 0,1.012522 2.4624339,1.833334 5.5,1.833334 C 11.037565,13.5 13.5,12.679188 13.5,11.666666 V 4.3333332 c 0,-1.012522 -2.462435,-1.8333333 -5.5000002,-1.8333333 z"
     inkscape:connector-curvature="0"
     sodipodi:nodetypes="sssssss" />
  <path
     inkscape:connector-curvature="0"
     d="m 7.9999998,1.9999999 a 6,2 0 0 0 -5.9999996,2 V 12 A 6,2 0 0 0 7.9999998,14 6,2 0 0 0 14,12 V 3.9999999 a 6,2 0 0 0 -6.0000002,-2 z m 0,1 a 5,1 0 0 1 5.0000002,1 5,1 0 0 1 -5.0000002,1 5,1 0 0 1 -5,-1 5,1 0 0 1 5,-1 z m -5,2.1015625 a 6,2 0 0 0 5,0.8984375 A 6,2 0 0 0 13,5.1035155 v 2.8964846 a 5,1 0 0 1 -5.0000002,1 5,1 0 0 1 -5,-1 z m 0,3.9999997 A 6,2 0 0 0 7.9999998,10 6,2 0 0 0 13,9.1035151 V 12 a 5,1 0 0 1 -5.0000002,1 5,1 0 0 1 -5,-1 z"
     id="path2"
     style="fill:#8e03a3;fill-opacity:1" />
</svg>
