<?xml version="1.0" encoding="UTF-8" standalone="no"?>
<svg
   xmlns:dc="http://purl.org/dc/elements/1.1/"
   xmlns:cc="http://creativecommons.org/ns#"
   xmlns:rdf="http://www.w3.org/1999/02/22-rdf-syntax-ns#"
   xmlns:svg="http://www.w3.org/2000/svg"
   xmlns="http://www.w3.org/2000/svg"
   xmlns:sodipodi="http://sodipodi.sourceforge.net/DTD/sodipodi-0.dtd"
   xmlns:inkscape="http://www.inkscape.org/namespaces/inkscape"
   viewBox="0 0 16 16"
   version="1.1"
   id="svg6"
   sodipodi:docname="sc_flowchartshapes.flowchart-multidocument.svg"
   inkscape:export-filename="/home/jupiter007/Libreoffice yaru theme fullcolor/build/cmd/sc_flowchartshapes.flowchart-multidocument.png"
   inkscape:export-xdpi="96"
   inkscape:export-ydpi="96"
   inkscape:version="0.92.4 (5da689c313, 2019-01-14)">
  <metadata
     id="metadata12">
    <rdf:RDF>
      <cc:Work
         rdf:about="">
        <dc:format>image/svg+xml</dc:format>
        <dc:type
           rdf:resource="http://purl.org/dc/dcmitype/StillImage" />
      </cc:Work>
    </rdf:RDF>
  </metadata>
  <defs
     id="defs10" />
  <sodipodi:namedview
     pagecolor="#ffffff"
     bordercolor="#666666"
     borderopacity="1"
     objecttolerance="10"
     gridtolerance="10"
     guidetolerance="10"
     inkscape:pageopacity="0"
     inkscape:pageshadow="2"
     inkscape:window-width="1920"
     inkscape:window-height="1011"
     id="namedview8"
     showgrid="true"
     inkscape:zoom="41.7193"
     inkscape:cx="2.8640504"
     inkscape:cy="9.3291573"
     inkscape:window-x="0"
     inkscape:window-y="32"
     inkscape:window-maximized="1"
     inkscape:current-layer="svg6" />
  <path
     style="fill:#000000;fill-opacity:1;stroke:#000000;opacity:0.6;stroke-width:2;stroke-miterlimit:4;stroke-dasharray:none;stroke-linejoin:round"
     d="M 6 2 L 6 4 L 4 4 L 4 6 L 2 6 L 2 8 L 2 13.001953 C 4.3348688 15.3106 6.9078296 12.940653 8 12.564453 C 8.649902 12.273229 9.2492118 12.093378 10 12.001953 L 10 11.095703 L 10 10.564453 L 10 10.5625 C 10.649902 10.27135 11.249211 10.09135 12 10 L 12 8.5625 C 12.649902 8.2714254 13.249211 8.0914249 14 8 L 14 3 L 14 2 L 6 2 z "
     id="path824" />
  <path
     d="m4 4v2h6v3.5625.4375.5625c.649902-.29115 1.249211-.47115 2-.5625v-1.4375-2.5625-1-1z"
     id="path2"
     style="fill:#6d6d6d;fill-opacity:1"
     fill="#b3b3b3" />
  <path
     d="m6 2v2h6v1 1 2.5625c.649902-.2910746 1.249211-.4710751 2-.5625v-5-1zm-4 4v2 5.001953c2.3348688 2.308647 4.9078296-.0613 6-.4375.649902-.291224 1.2492118-.471075 2-.5625v-.90625-.53125-2.564453-1-1z"
     id="path4"
     style="fill:#ffffff"
     fill="#232629" />
</svg>
