<?xml version="1.0" encoding="UTF-8" standalone="no"?>
<svg
   xmlns:dc="http://purl.org/dc/elements/1.1/"
   xmlns:cc="http://creativecommons.org/ns#"
   xmlns:rdf="http://www.w3.org/1999/02/22-rdf-syntax-ns#"
   xmlns:svg="http://www.w3.org/2000/svg"
   xmlns="http://www.w3.org/2000/svg"
   xmlns:sodipodi="http://sodipodi.sourceforge.net/DTD/sodipodi-0.dtd"
   xmlns:inkscape="http://www.inkscape.org/namespaces/inkscape"
   viewBox="0 0 16 16"
   version="1.1"
   id="svg4"
   sodipodi:docname="sc_griduse.svg"
   inkscape:version="0.92.5 (2060ec1f9f, 2020-04-08)"
   inkscape:export-filename="/home/jupiter007/Libreoffice yaru theme fullcolor/build/cmd/sc_griduse.png"
   inkscape:export-xdpi="96"
   inkscape:export-ydpi="96"><metadata
   id="metadata10">
  <rdf:RDF>
    <cc:Work
       rdf:about="">
      <dc:format>image/svg+xml</dc:format>
      <dc:type
         rdf:resource="http://purl.org/dc/dcmitype/StillImage" />
    </cc:Work>
  </rdf:RDF>
</metadata>
<defs
   id="defs8" />
<sodipodi:namedview
   pagecolor="#ffffff"
   bordercolor="#666666"
   borderopacity="1"
   objecttolerance="10"
   gridtolerance="10"
   guidetolerance="10"
   inkscape:pageopacity="0"
   inkscape:pageshadow="2"
   inkscape:window-width="1920"
   inkscape:window-height="1011"
   id="namedview6"
   showgrid="true"
   inkscape:zoom="41.7193"
   inkscape:cx="5.3689103"
   inkscape:cy="4.9455085"
   inkscape:window-x="0"
   inkscape:window-y="32"
   inkscape:window-maximized="1"
   inkscape:current-layer="svg4">
  <inkscape:grid
     type="xygrid"
     id="grid845" />
</sodipodi:namedview>
/&gt;<rect
   style="opacity:0.6;fill:#000000;fill-opacity:1;fill-rule:nonzero;stroke:#000000;stroke-width:2;stroke-linecap:round;stroke-linejoin:round;stroke-miterlimit:4;stroke-dasharray:none;stroke-opacity:1"
   id="rect867"
   width="12"
   height="12"
   x="2"
   y="2" />
<rect
   style="opacity:1;fill:#ffffff;fill-opacity:1;fill-rule:nonzero;stroke:none;stroke-width:2;stroke-linecap:round;stroke-linejoin:round;stroke-miterlimit:4;stroke-dasharray:none;stroke-opacity:1"
   id="rect869"
   width="12"
   height="12"
   x="2"
   y="2" />
<path
   sodipodi:nodetypes="ccccc"
   inkscape:connector-curvature="0"
   style="fill:#232629"
   d="m 11,3 v 2 h 2 V 3 Z"
   id="path871" />
<path
   id="path873"
   d="m 6.9999998,3 v 2 h 2 V 3 Z"
   style="fill:#232629"
   inkscape:connector-curvature="0"
   sodipodi:nodetypes="ccccc" />
<path
   sodipodi:nodetypes="ccccc"
   inkscape:connector-curvature="0"
   style="fill:#232629"
   d="m 2.9999998,3 v 2 h 2 V 3 Z"
   id="path875" />
<path
   id="path879"
   d="m 11,7 v 2.0000004 h 2 V 7 Z"
   style="fill:#232629"
   inkscape:connector-curvature="0"
   sodipodi:nodetypes="ccccc" />
<path
   sodipodi:nodetypes="ccccc"
   inkscape:connector-curvature="0"
   style="fill:#232629"
   d="m 6.9999998,7 v 2.0000004 h 2 V 7 Z"
   id="path881" />
<path
   id="path883"
   d="m 2.9999998,7 v 2.0000004 h 2 V 7 Z"
   style="fill:#232629"
   inkscape:connector-curvature="0"
   sodipodi:nodetypes="ccccc" />
<path
   sodipodi:nodetypes="ccccc"
   inkscape:connector-curvature="0"
   style="fill:#232629"
   d="m 11,11 v 2 h 2 v -2 z"
   id="path887" />
<path
   id="path889"
   d="m 6.9999998,11 v 2 h 2 v -2 z"
   style="fill:#232629"
   inkscape:connector-curvature="0"
   sodipodi:nodetypes="ccccc" />
<path
   sodipodi:nodetypes="ccccc"
   inkscape:connector-curvature="0"
   style="fill:#232629"
   d="m 2.9999998,11 v 2 h 2 v -2 z"
   id="path891" />
<path
   sodipodi:nodetypes="cccccccccccccccc"
   style="fill:#000000;stroke:#000000;opacity:0.6;stroke-width:2;stroke-miterlimit:4;stroke-dasharray:none;stroke-linejoin:round"
   inkscape:connector-curvature="0"
   id="path847"
   d="M 12,8 C 11,8 10,8 10,9.5 V 11 H 9 v 4 h 6 V 11 H 14 V 9.5 C 14,8 13,8 12,8 Z m 0,1 c 1,0 1,0.5 1,1 v 1 h -2 v -1 c 0,-0.5 0,-1 1,-1 z" />
<path
   d="M 12,8 C 11,8 10,8 10,9.5 V 11 H 9 v 4 h 6 V 11 H 14 V 9.5 C 14,8 13,8 12,8 Z m 0,1 c 1,0 1,0.5 1,1 v 1 h -2 v -1 c 0,-0.5 0,-1 1,-1 z"
   id="path2"
   inkscape:connector-curvature="0"
   style="fill:#ffffff"
   sodipodi:nodetypes="cccccccccccccccc" />
</svg>
