<?xml version="1.0" encoding="UTF-8" standalone="no"?>
<svg
   xmlns:dc="http://purl.org/dc/elements/1.1/"
   xmlns:cc="http://creativecommons.org/ns#"
   xmlns:rdf="http://www.w3.org/1999/02/22-rdf-syntax-ns#"
   xmlns:svg="http://www.w3.org/2000/svg"
   xmlns="http://www.w3.org/2000/svg"
   xmlns:sodipodi="http://sodipodi.sourceforge.net/DTD/sodipodi-0.dtd"
   xmlns:inkscape="http://www.inkscape.org/namespaces/inkscape"
   viewBox="0 0 16 16"
   version="1.1"
   id="svg4"
   sodipodi:docname="sc_marks.svg"
   inkscape:export-filename="/home/jupiter007/Libreoffice yaru theme fullcolor/build/cmd/sc_marks.png"
   inkscape:export-xdpi="96"
   inkscape:export-ydpi="96"
   inkscape:version="0.92.5 (2060ec1f9f, 2020-04-08)"><metadata
   id="metadata10">
  <rdf:RDF>
    <cc:Work
       rdf:about="">
      <dc:format>image/svg+xml</dc:format>
      <dc:type
         rdf:resource="http://purl.org/dc/dcmitype/StillImage" />
    </cc:Work>
  </rdf:RDF>
</metadata>
<defs
   id="defs8" />
<sodipodi:namedview
   pagecolor="#ffffff"
   bordercolor="#666666"
   borderopacity="1"
   objecttolerance="10"
   gridtolerance="10"
   guidetolerance="10"
   inkscape:pageopacity="0"
   inkscape:pageshadow="2"
   inkscape:window-width="1920"
   inkscape:window-height="1011"
   id="namedview6"
   showgrid="true"
   inkscape:zoom="29.5"
   inkscape:cx="8.8556387"
   inkscape:cy="6.5274048"
   inkscape:window-x="0"
   inkscape:window-y="32"
   inkscape:window-maximized="1"
   inkscape:current-layer="svg4">
  <inkscape:grid
     type="xygrid"
     id="grid839" />
</sodipodi:namedview>
/&gt;<path
   inkscape:connector-curvature="0"
   style="fill:#762572"
   d="M 7.1018297,8.7882057 V 11.788206 H 12.101829 V 8.7882057 Z"
   id="path4-2" />
<path
   sodipodi:nodetypes="cccscsccccccccscscccccc"
   inkscape:connector-curvature="0"
   id="path4237-1"
   d="m 4.994152,0.9992759 c -1.2582,0.0145 -2.1788909,-0.030604 -2.9316409,0.3847657 -0.3763696,0.2076599 -0.6732306,0.559387 -0.8378906,0.9980468 -0.16467,0.43867 -0.224609,0.9595875 -0.224609,1.6171875 V 5.4875567 11 c 0,0.65761 0.0599,1.178577 0.224609,1.617188 0.16468,0.438611 0.461531,0.788524 0.8378906,0.996093 C 2.8152311,14.028411 3.736052,13.98493 4.994152,14 h 0.002 6.005786 0.0039 c 1.25819,-0.0145 2.178891,0.0306 2.931641,-0.384766 0.376371,-0.20766 0.673222,-0.559386 0.837892,-0.998046 C 14.93991,12.178517 14.999989,11.65761 14.999989,11 V 5.4660727 3.9992759 c 0,-0.6576 -0.0599,-1.1785776 -0.224609,-1.6171875 C 14.6107,1.9434885 14.313849,1.5935546 13.937488,1.3859948 13.184718,0.9708647 12.263887,1.014356 11.005797,0.9992759 h -0.002 -6.005786 z"
   style="font-style:normal;font-variant:normal;font-weight:normal;font-stretch:normal;font-size:15px;line-height:125%;font-family:Ubuntu;-inkscape-font-specification:Ubuntu;text-align:center;letter-spacing:0px;word-spacing:0px;writing-mode:lr-tb;text-anchor:middle;display:inline;opacity:0.6;fill:#000000;fill-opacity:1;stroke:none;stroke-width:0.99980211" />
<path
   inkscape:connector-curvature="0"
   id="path1993"
   d="M 4.9830112,2.0264607 C 3.4264302,2.0372567 4.87339,2.0147087 3.323439,2.0652357 2.8622101,2.1079037 2.3072511,2.271655 2.1680991,2.7752023 c -0.218994,0.6353465 -0.108414,1.3337872 -0.145796,1.9819244 -0.0078,2.297085 -0.02297,4.596569 0.02152,6.8859213 0.0391,0.461929 0.202551,1.012666 0.698756,1.163666 0.6324559,0.225082 1.2841439,0.12274 1.9359739,0.154298 1.4242351,0.0068 -0.1498058,0.01102 1.2760513,0.01131 1.7045309,3.5e-4 4.4086837,-0.005 6.1074857,-0.01851 0.511911,-0.01201 1.183699,0.01993 1.584745,-0.405191 C 14.067933,12.008838 13.933908,11.2806 13.96958,10.644834 13.98145,8.2005107 13.99727,5.7335977 13.94768,3.2878984 13.8984,2.8858581 13.777688,2.4249464 13.372541,2.2434233 12.704372,1.9493258 11.946336,2.0754044 11.24662,2.0378505 9.4922139,2.026048 6.7374502,2.0253661 4.9830112,2.0264607 Z"
   style="opacity:1;vector-effect:none;fill:#ffffff;fill-opacity:1;stroke:none;stroke-width:1;stroke-linecap:round;stroke-linejoin:bevel;stroke-miterlimit:4;stroke-dasharray:none;stroke-dashoffset:0;stroke-opacity:1"
   sodipodi:nodetypes="cccccccsccccccc" />
<rect
   style="opacity:1;fill:#c5c5c5;fill-opacity:1;stroke:none;stroke-width:1.72963798;stroke-linecap:round;stroke-linejoin:round;stroke-miterlimit:4;stroke-dasharray:none;stroke-opacity:1"
   id="rect840"
   width="5.9832954"
   height="1"
   x="7.0000114"
   y="9.9994173" />
<rect
   y="7"
   x="3"
   height="1"
   width="2"
   id="rect844"
   style="opacity:1;fill:#c5c5c5;fill-opacity:1;stroke:none;stroke-width:0.99999994;stroke-linecap:round;stroke-linejoin:round;stroke-miterlimit:4;stroke-dasharray:none;stroke-opacity:1" />
<rect
   y="6.9994183"
   x="-13"
   height="1"
   width="7"
   id="rect846"
   style="opacity:1;fill:#232629;fill-opacity:1;stroke:none;stroke-width:1.87082863;stroke-linecap:round;stroke-linejoin:round;stroke-miterlimit:4;stroke-dasharray:none;stroke-opacity:1"
   transform="scale(-1,1)" />
<rect
   style="opacity:1;fill:#c5c5c5;fill-opacity:1;stroke:none;stroke-width:1.41125751;stroke-linecap:round;stroke-linejoin:round;stroke-miterlimit:4;stroke-dasharray:none;stroke-opacity:1"
   id="rect850"
   width="3.9832954"
   height="1"
   x="9.0000114"
   y="3.999418" />
<rect
   y="3.9999998"
   x="3.0000114"
   height="1"
   width="5"
   id="rect852"
   style="opacity:1;fill:#c5c5c5;fill-opacity:1;stroke:none;stroke-width:1.58113873;stroke-linecap:round;stroke-linejoin:round;stroke-miterlimit:4;stroke-dasharray:none;stroke-opacity:1" />
<rect
   style="opacity:1;fill:#c5c5c5;fill-opacity:1;stroke:none;stroke-width:1.2247448;stroke-linecap:round;stroke-linejoin:round;stroke-miterlimit:4;stroke-dasharray:none;stroke-opacity:1"
   id="rect841"
   width="3"
   height="1"
   x="3"
   y="10" />
</svg>
