<?xml version="1.0" encoding="UTF-8" standalone="no"?>
<svg
   xmlns:dc="http://purl.org/dc/elements/1.1/"
   xmlns:cc="http://creativecommons.org/ns#"
   xmlns:rdf="http://www.w3.org/1999/02/22-rdf-syntax-ns#"
   xmlns:svg="http://www.w3.org/2000/svg"
   xmlns="http://www.w3.org/2000/svg"
   xmlns:sodipodi="http://sodipodi.sourceforge.net/DTD/sodipodi-0.dtd"
   xmlns:inkscape="http://www.inkscape.org/namespaces/inkscape"
   viewBox="0 0 16 16"
   version="1.1"
   id="svg4"
   sodipodi:docname="sc_open.svg"
   inkscape:version="0.92.4 (5da689c313, 2019-01-14)"
   inkscape:export-filename="/home/jupiter007/Libreoffice yaru theme fullcolor/build/cmd/sc_open.png"
   inkscape:export-xdpi="96"
   inkscape:export-ydpi="96"><metadata
   id="metadata10">
  <rdf:RDF>
    <cc:Work
       rdf:about="">
      <dc:format>image/svg+xml</dc:format>
      <dc:type
         rdf:resource="http://purl.org/dc/dcmitype/StillImage" />
    </cc:Work>
  </rdf:RDF>
</metadata>
<defs
   id="defs8" />
<sodipodi:namedview
   pagecolor="#ffffff"
   bordercolor="#666666"
   borderopacity="1"
   objecttolerance="10"
   gridtolerance="10"
   guidetolerance="10"
   inkscape:pageopacity="0"
   inkscape:pageshadow="2"
   inkscape:window-width="1920"
   inkscape:window-height="1011"
   id="namedview6"
   showgrid="true"
   inkscape:zoom="45.254834"
   inkscape:cx="9.095107"
   inkscape:cy="8.1724666"
   inkscape:window-x="0"
   inkscape:window-y="32"
   inkscape:window-maximized="1"
   inkscape:current-layer="svg4"
   inkscape:snap-global="true">
  <inkscape:grid
     type="xygrid"
     id="grid823" />
</sodipodi:namedview>



/&gt;<path
   sodipodi:nodetypes="sccccccccccsscccccsscs"
   inkscape:connector-curvature="0"
   id="path820"
   d="M 1.9999997,5.0000001 C 2.0000587,4.4080001 2.0619587,3.994 2.1598931,3.734 2.2578281,3.474 2.3627581,3.3630001 2.5466356,3.2620001 2.9123917,3.059 4.7291247,3 6.0033311,3 h 0.5336442 l 2.1149235,2 0.4602005,0.254 h 0.7030239 l 1.5329778,1e-7 c 1.263158,0.015 1.739507,0.06 2.107262,0.2619999 0.182878,0.1 0.287808,0.212 0.385743,0.4720001 C 13.939036,6.248 14.003077,6.662 14.002998,7.254 L 14.002499,11 c -7.9e-5,0.592 -0.06296,1.006 -0.159893,1.266 -0.09794,0.26 -0.202865,0.371 -0.386742,0.472 C 13.090107,12.94 12.263658,12.985 11.004498,13 H 5.9968361 C 4.7376756,12.985 2.9118927,12.94 2.5461366,12.738 2.3622591,12.638 2.2563298,12.526 2.1593944,12.266 2.062459,12.006 1.999501,11.592 1.999501,11 v -1 z"
   style="color:#000000;font-weight:400;line-height:normal;font-family:sans-serif;font-variant-ligatures:none;font-variant-position:normal;font-variant-caps:normal;font-variant-numeric:normal;font-variant-alternates:normal;font-feature-settings:normal;text-indent:0;text-align:start;text-decoration:none;text-decoration-line:none;text-decoration-style:solid;text-decoration-color:#000000;text-transform:none;white-space:normal;shape-padding:0;overflow:visible;opacity:0.6;isolation:auto;mix-blend-mode:normal;fill:#000000;fill-opacity:1;stroke:#000000;stroke-width:2;stroke-linejoin:round;stroke-miterlimit:4;stroke-dasharray:none;stroke-opacity:1;marker:none" />
<path
   style="color:#000000;font-weight:400;line-height:normal;font-family:sans-serif;font-variant-ligatures:none;font-variant-position:normal;font-variant-caps:normal;font-variant-numeric:normal;font-variant-alternates:normal;font-feature-settings:normal;text-indent:0;text-align:start;text-decoration:none;text-decoration-line:none;text-decoration-style:solid;text-decoration-color:#000000;text-transform:none;white-space:normal;shape-padding:0;overflow:visible;isolation:auto;mix-blend-mode:normal;fill:#b3b3b3;fill-opacity:1;stroke-width:0.99966687;stroke-linejoin:round;marker:none"
   d="M 1.9999997,5.0000001 C 2.0000587,4.4080001 2.0619587,3.994 2.1598931,3.734 2.2578281,3.474 2.3627581,3.3630001 2.5466356,3.2620001 2.9123917,3.059 4.7291247,3 6.0033311,3 h 0.5336442 l 2.1149235,2 0.4602005,0.254 h 0.7030239 l 1.5329778,1e-7 c 1.263158,0.015 1.739507,0.06 2.107262,0.2619999 0.182878,0.1 0.287808,0.212 0.385743,0.4720001 C 13.939036,6.248 14.003077,6.662 14.002998,7.254 L 14.002499,11 c -7.9e-5,0.592 -0.06296,1.006 -0.159893,1.266 -0.09794,0.26 -0.202865,0.371 -0.386742,0.472 C 13.090107,12.94 12.263658,12.985 11.004498,13 H 5.9968361 C 4.7376756,12.985 2.9118927,12.94 2.5461366,12.738 2.3622591,12.638 2.2563298,12.526 2.1593944,12.266 2.062459,12.006 1.999501,11.592 1.999501,11 v -1 z"
   id="path2"
   inkscape:connector-curvature="0"
   sodipodi:nodetypes="sccccccccccsscccccsscs" />
<rect
   style="opacity:0.4;vector-effect:none;fill:#000000;fill-opacity:1;stroke:none;stroke-width:1.27272725;stroke-linecap:round;stroke-linejoin:round;stroke-miterlimit:4;stroke-dasharray:none;stroke-dashoffset:0;stroke-opacity:1"
   id="rect2081"
   width="7"
   height="8"
   x="7"
   y="8"
   ry="1"
   rx="1.2727273" />
<rect
   style="opacity:1;vector-effect:none;fill:#ffffff;fill-opacity:1;stroke:none;stroke-width:1.27272725;stroke-linecap:round;stroke-linejoin:round;stroke-miterlimit:4;stroke-dasharray:none;stroke-dashoffset:0;stroke-opacity:1"
   id="rect2085"
   width="5"
   height="6"
   x="8"
   y="9"
   rx="0"
   ry="1" />
<rect
   style="opacity:1;vector-effect:none;fill:#a7a7f1;fill-opacity:1;stroke:none;stroke-width:1.27272725;stroke-linecap:round;stroke-linejoin:round;stroke-miterlimit:4;stroke-dasharray:none;stroke-dashoffset:0;stroke-opacity:1"
   id="rect2100"
   width="3"
   height="1"
   x="9"
   y="10" />
<rect
   style="opacity:1;vector-effect:none;fill:#a7a7f1;fill-opacity:1;stroke:none;stroke-width:1.27272725;stroke-linecap:round;stroke-linejoin:round;stroke-miterlimit:4;stroke-dasharray:none;stroke-dashoffset:0;stroke-opacity:1"
   id="rect2102"
   width="2"
   height="1"
   x="9"
   y="12" />
</svg>
