<?xml version="1.0" encoding="UTF-8" standalone="no"?>
<svg
   xmlns:dc="http://purl.org/dc/elements/1.1/"
   xmlns:cc="http://creativecommons.org/ns#"
   xmlns:rdf="http://www.w3.org/1999/02/22-rdf-syntax-ns#"
   xmlns:svg="http://www.w3.org/2000/svg"
   xmlns="http://www.w3.org/2000/svg"
   xmlns:sodipodi="http://sodipodi.sourceforge.net/DTD/sodipodi-0.dtd"
   xmlns:inkscape="http://www.inkscape.org/namespaces/inkscape"
   viewBox="0 0 16 16"
   version="1.1"
   id="svg4"
   sodipodi:docname="sc_previousannotation.svg"
   inkscape:version="0.92.5 (2060ec1f9f, 2020-04-08)"
   inkscape:export-filename="/home/jupiter007/Libreoffice yaru theme fullcolor/build/cmd/sc_previousannotation.png"
   inkscape:export-xdpi="95"
   inkscape:export-ydpi="95">
  <metadata
     id="metadata10">
    <rdf:RDF>
      <cc:Work
         rdf:about="">
        <dc:format>image/svg+xml</dc:format>
        <dc:type
           rdf:resource="http://purl.org/dc/dcmitype/StillImage" />
      </cc:Work>
    </rdf:RDF>
  </metadata>
  <defs
     id="defs8" />
  <sodipodi:namedview
     pagecolor="#ffffff"
     bordercolor="#666666"
     borderopacity="1"
     objecttolerance="10"
     gridtolerance="10"
     guidetolerance="10"
     inkscape:pageopacity="0"
     inkscape:pageshadow="2"
     inkscape:window-width="1920"
     inkscape:window-height="1011"
     id="namedview6"
     showgrid="true"
     showguides="false"
     inkscape:zoom="14.75"
     inkscape:cx="9.8621656"
     inkscape:cy="5.3492441"
     inkscape:window-x="1920"
     inkscape:window-y="32"
     inkscape:window-maximized="1"
     inkscape:current-layer="svg4">
    <inkscape:grid
       type="xygrid"
       id="grid825" />
  </sodipodi:namedview>
  <path
     sodipodi:nodetypes="ssscccsscsss"
     inkscape:connector-curvature="0"
     d="m 4.9999998,2.00243 c -2,0 -3,0 -3,1.9999999 V 9.00243 c 0,1.999999 1,1.999999 3,1.999999 l 4,3 v -3 H 11 c 2,0 3,0 3,-1.999999 v -1 -4.0000001 C 14,2.00243 13,2.00243 11,2.00243 Z"
     style="opacity:0.6;fill:#000000;fill-opacity:1;fill-rule:nonzero;stroke:#000000;stroke-width:2;stroke-linecap:butt;stroke-linejoin:round;stroke-miterlimit:4;stroke-dasharray:none;stroke-dashoffset:0;stroke-opacity:1"
     id="path816" />
  <path
     id="rect823"
     style="opacity:1;fill:#fa9381;fill-opacity:1;fill-rule:nonzero;stroke:none;stroke-width:0.00106905;stroke-linecap:butt;stroke-linejoin:round;stroke-miterlimit:4;stroke-dasharray:none;stroke-dashoffset:0;stroke-opacity:1"
     d="m 4.9999998,2.00243 c -2,0 -3,0 -3,1.9999999 V 9.00243 c 0,1.999999 1,1.999999 3,1.999999 l 4,3 v -3 H 11 c 2,0 3,0 3,-1.999999 v -1 -4.0000001 C 14,2.00243 13,2.00243 11,2.00243 Z"
     inkscape:connector-curvature="0"
     sodipodi:nodetypes="ssscccsscsss" />
  <path
     style="opacity:1;fill:#ffffff;fill-opacity:1;fill-rule:nonzero;stroke:none;stroke-width:0.00097591;stroke-linecap:butt;stroke-linejoin:round;stroke-miterlimit:4;stroke-dasharray:none;stroke-dashoffset:0;stroke-opacity:1"
     d="M 4.3333332,5.0024299 H 11.666666 C 11.851334,5.0024299 12,5.22543 12,5.50243 c 0,0.277 -0.148666,0.5 -0.333334,0.5 H 4.3333332 c -0.1846668,0 -0.3333334,-0.223 -0.3333334,-0.5 0,-0.277 0.1486666,-0.5000001 0.3333334,-0.5000001 z"
     id="path822"
     inkscape:connector-curvature="0"
     sodipodi:nodetypes="sssssss" />
  <path
     sodipodi:nodetypes="sssssss"
     inkscape:connector-curvature="0"
     id="path828"
     d="m 4.3333332,7.00243 h 7.3333328 c 0.184668,0 0.333334,0.223 0.333334,0.5 0,0.277 -0.148666,0.5 -0.333334,0.5 H 4.3333332 c -0.1846668,0 -0.3333334,-0.223 -0.3333334,-0.5 0,-0.277 0.1486666,-0.5 0.3333334,-0.5 z"
     style="opacity:1;fill:#ffffff;fill-opacity:1;fill-rule:nonzero;stroke:none;stroke-width:0.00097591;stroke-linecap:butt;stroke-linejoin:round;stroke-miterlimit:4;stroke-dasharray:none;stroke-dashoffset:0;stroke-opacity:1" />
  <path
     sodipodi:nodetypes="cccccccc"
     style="opacity:0.6;fill:#000000;fill-opacity:1;stroke:#000000;stroke-width:2;stroke-linecap:butt;stroke-linejoin:round;stroke-miterlimit:4;stroke-dasharray:none;stroke-opacity:1"
     d="m 0.99994815,11.50012 4.00000025,3.5 v -2 h 4 v -2.999999 h -4 V 8.0001211 Z"
     id="path839"
     inkscape:connector-curvature="0" />
  <path
     sodipodi:nodetypes="cccccccc"
     id="path841"
     d="m 0.99994815,11.50012 4.00000025,3.5 v -2 h 4 v -2.999999 h -4 V 8.0001211 Z"
     style="fill:#ffffff;fill-opacity:1;stroke:none;stroke-width:1px;stroke-linecap:butt;stroke-linejoin:miter;stroke-opacity:1"
     inkscape:connector-curvature="0" />
</svg>
