<?xml version="1.0" encoding="UTF-8" standalone="no"?>
<svg
   xmlns:dc="http://purl.org/dc/elements/1.1/"
   xmlns:cc="http://creativecommons.org/ns#"
   xmlns:rdf="http://www.w3.org/1999/02/22-rdf-syntax-ns#"
   xmlns:svg="http://www.w3.org/2000/svg"
   xmlns="http://www.w3.org/2000/svg"
   xmlns:sodipodi="http://sodipodi.sourceforge.net/DTD/sodipodi-0.dtd"
   xmlns:inkscape="http://www.inkscape.org/namespaces/inkscape"
   viewBox="0 0 16 16"
   version="1.1"
   id="svg4"
   sodipodi:docname="sc_symbolshapes.cloud.svg"
   inkscape:export-filename="/home/jupiter007/Libreoffice yaru theme fullcolor/build/cmd/sc_symbolshapes.cloud.png"
   inkscape:export-xdpi="96"
   inkscape:export-ydpi="96"
   inkscape:version="0.92.4 (5da689c313, 2019-01-14)"><metadata
   id="metadata10">
  <rdf:RDF>
    <cc:Work
       rdf:about="">
      <dc:format>image/svg+xml</dc:format>
      <dc:type
         rdf:resource="http://purl.org/dc/dcmitype/StillImage" />
    </cc:Work>
  </rdf:RDF>
</metadata>
<defs
   id="defs8" />
<sodipodi:namedview
   pagecolor="#ffffff"
   bordercolor="#666666"
   borderopacity="1"
   objecttolerance="10"
   gridtolerance="10"
   guidetolerance="10"
   inkscape:pageopacity="0"
   inkscape:pageshadow="2"
   inkscape:window-width="1920"
   inkscape:window-height="1011"
   id="namedview6"
   showgrid="false"
   inkscape:zoom="14.75"
   inkscape:cx="-7.8644068"
   inkscape:cy="7.6949153"
   inkscape:window-x="0"
   inkscape:window-y="32"
   inkscape:window-maximized="1"
   inkscape:current-layer="svg4" />
/&gt;<path
   style="fill:#000000;stroke:#000000;opacity:0.6;stroke-width:2;stroke-miterlimit:4;stroke-dasharray:none;stroke-linejoin:round"
   id="path817"
   fill="#232629"
   d="m8 3c-1.0795436 0-1.9849545.7312329-2.203125 1.6972656-.3514239-.1663105-.7528321-.2695312-1.171875-.2695312-1.4497469 0-2.625 1.1192881-2.625 2.5 0 .862945.4501833 1.626904 1.1484375 2.0761718-.6815669.3682343-1.1484375 1.0539208-1.1484375 1.8535158 0 1.183467 1.0073598 2.142578 2.25 2.142578.5792897 0 1.1011922-.216098 1.5-.558594.3988067.342495.9207122.558594 1.5.558594 1.0795406 0 1.9849553-.731236 2.203125-1.697266.3514236.166311.752832.269532 1.171875.269532 1.449747 0 2.625-1.119288 2.625-2.5000004 0-.4926835-.163512-.9527116-.421875-1.3398437.696342-.3642829 1.171875-1.0649286 1.171875-1.875 0-1.1834673-1.00736-2.1425781-2.25-2.1425781-.656955 0-1.252715.2637626-1.664062.6914062-.3191861-.8136273-1.1203029-1.40625-2.085938-1.40625z" />
<path
   d="m8 3c-1.0795436 0-1.9849545.7312329-2.203125 1.6972656-.3514239-.1663105-.7528321-.2695312-1.171875-.2695312-1.4497469 0-2.625 1.1192881-2.625 2.5 0 .862945.4501833 1.626904 1.1484375 2.0761718-.6815669.3682343-1.1484375 1.0539208-1.1484375 1.8535158 0 1.183467 1.0073598 2.142578 2.25 2.142578.5792897 0 1.1011922-.216098 1.5-.558594.3988067.342495.9207122.558594 1.5.558594 1.0795406 0 1.9849553-.731236 2.203125-1.697266.3514236.166311.752832.269532 1.171875.269532 1.449747 0 2.625-1.119288 2.625-2.5000004 0-.4926835-.163512-.9527116-.421875-1.3398437.696342-.3642829 1.171875-1.0649286 1.171875-1.875 0-1.1834673-1.00736-2.1425781-2.25-2.1425781-.656955 0-1.252715.2637626-1.664062.6914062-.3191861-.8136273-1.1203029-1.40625-2.085938-1.40625z"
   fill="#232629"
   id="path2"
   style="fill:#ffffff" />
</svg>
