<?xml version="1.0" encoding="UTF-8" standalone="no"?>
<svg
   xmlns:dc="http://purl.org/dc/elements/1.1/"
   xmlns:cc="http://creativecommons.org/ns#"
   xmlns:rdf="http://www.w3.org/1999/02/22-rdf-syntax-ns#"
   xmlns:svg="http://www.w3.org/2000/svg"
   xmlns="http://www.w3.org/2000/svg"
   xmlns:xlink="http://www.w3.org/1999/xlink"
   xmlns:sodipodi="http://sodipodi.sourceforge.net/DTD/sodipodi-0.dtd"
   xmlns:inkscape="http://www.inkscape.org/namespaces/inkscape"
   height="16"
   width="16"
   version="1.1"
   id="svg9"
   sodipodi:docname="sc_shell3d.svg"
   inkscape:export-filename="/home/jupiter007/Libreoffice yaru theme fullcolor/build/cmd/sc_shell3d.png"
   inkscape:export-xdpi="96"
   inkscape:export-ydpi="96"
   inkscape:version="0.92.5 (2060ec1f9f, 2020-04-08)">
  <metadata
     id="metadata15">
    <rdf:RDF>
      <cc:Work
         rdf:about="">
        <dc:format>image/svg+xml</dc:format>
        <dc:type
           rdf:resource="http://purl.org/dc/dcmitype/StillImage" />
      </cc:Work>
    </rdf:RDF>
  </metadata>
  <defs
     id="defs13">
    <radialGradient
       inkscape:collect="always"
       xlink:href="#a"
       id="radialGradient829"
       cx="7.9999995"
       cy="1.999952"
       fx="7.9999995"
       fy="1.999952"
       r="6"
       gradientTransform="matrix(3.529651e-8,1.6666668,-2.0000001,4.2355803e-8,11.999904,-10.333374)"
       gradientUnits="userSpaceOnUse" />
  </defs>
  <sodipodi:namedview
     pagecolor="#ffffff"
     bordercolor="#666666"
     borderopacity="1"
     objecttolerance="10"
     gridtolerance="10"
     guidetolerance="10"
     inkscape:pageopacity="0"
     inkscape:pageshadow="2"
     inkscape:window-width="1920"
     inkscape:window-height="1011"
     id="namedview11"
     showgrid="true"
     inkscape:zoom="41.7193"
     inkscape:cx="4.762666"
     inkscape:cy="7.5941473"
     inkscape:window-x="0"
     inkscape:window-y="32"
     inkscape:window-maximized="1"
     inkscape:current-layer="svg9">
    <inkscape:grid
       type="xygrid"
       id="grid827" />
  </sodipodi:namedview>
  <linearGradient
     id="a"
     gradientTransform="matrix(.75 0 0 -.83333083 -.25 877.4659)"
     gradientUnits="userSpaceOnUse"
     x1="3"
     x2="15"
     y1="1045.3622"
     y2="1045.3622">
    <stop
       offset="0"
       stop-color="#b3b3b3"
       id="stop2"
       style="stop-color:#ffffff;stop-opacity:1" />
    <stop
       style="stop-color:#ffffff;stop-opacity:1"
       id="stop831"
       stop-color="#b3b3b3"
       offset="0.39999998" />
    <stop
       offset="1"
       stop-color="#232629"
       id="stop4"
       style="stop-color:#b6b6b6;stop-opacity:1" />
  </linearGradient>
  <path
     id="path825"
     transform="matrix(.99999998 0 0 1 0 .00004)"
     fill-rule="evenodd"
     fill="url(#a)"
     d="m8 3c-3.2100023 0-5.8156373 2.8059689-5.9765625 6.328125-.0204825.1119997-.0234375.2228076-.0234375.3378906 0 1.8409114 2.6862915 3.3339844 6 3.3339844 3.313709 0 6-1.493073 6-3.3339844 0-.115083-.002925-.2258909-.023438-.3378906-.160925-3.5221561-2.76656-6.328125-5.976562-6.328125z"
     style="fill:#000000;stroke:#000000;opacity:0.6;stroke-width:2.00000002;stroke-miterlimit:4;stroke-dasharray:none;stroke-linejoin:round" />
  <path
     d="m8 3c-3.2100023 0-5.8156373 2.8059689-5.9765625 6.328125-.0204825.1119997-.0234375.2228076-.0234375.3378906 0 1.8409114 2.6862915 3.3339844 6 3.3339844 3.313709 0 6-1.493073 6-3.3339844 0-.115083-.002925-.2258909-.023438-.3378906-.160925-3.5221561-2.76656-6.328125-5.976562-6.328125z"
     fill="url(#a)"
     fill-rule="evenodd"
     transform="matrix(.99999998 0 0 1 0 .00004)"
     id="path7"
     style="fill-opacity:1;fill:url(#radialGradient829)" />
</svg>
