<?xml version="1.0" encoding="UTF-8" standalone="no"?>
<svg
   xmlns:dc="http://purl.org/dc/elements/1.1/"
   xmlns:cc="http://creativecommons.org/ns#"
   xmlns:rdf="http://www.w3.org/1999/02/22-rdf-syntax-ns#"
   xmlns:svg="http://www.w3.org/2000/svg"
   xmlns="http://www.w3.org/2000/svg"
   xmlns:sodipodi="http://sodipodi.sourceforge.net/DTD/sodipodi-0.dtd"
   xmlns:inkscape="http://www.inkscape.org/namespaces/inkscape"
   viewBox="0 0 16 16"
   version="1.1"
   id="svg6"
   sodipodi:docname="sc_textbodyparastyle.svg"
   inkscape:export-filename="/home/jupiter007/Libreoffice yaru theme fullcolor/build/cmd/sc_textbodyparastyle.png"
   inkscape:export-xdpi="96"
   inkscape:export-ydpi="96"
   inkscape:version="0.92.5 (2060ec1f9f, 2020-04-08)">
  <metadata
     id="metadata12">
    <rdf:RDF>
      <cc:Work
         rdf:about="">
        <dc:format>image/svg+xml</dc:format>
        <dc:type
           rdf:resource="http://purl.org/dc/dcmitype/StillImage" />
      </cc:Work>
    </rdf:RDF>
  </metadata>
  <defs
     id="defs10" />
  <sodipodi:namedview
     pagecolor="#ffffff"
     bordercolor="#666666"
     borderopacity="1"
     objecttolerance="10"
     gridtolerance="10"
     guidetolerance="10"
     inkscape:pageopacity="0"
     inkscape:pageshadow="2"
     inkscape:window-width="1920"
     inkscape:window-height="1011"
     id="namedview8"
     showgrid="true"
     inkscape:zoom="29.5"
     inkscape:cx="5.3734365"
     inkscape:cy="8.68974"
     inkscape:window-x="0"
     inkscape:window-y="32"
     inkscape:window-maximized="1"
     inkscape:current-layer="svg6">
    <inkscape:grid
       type="xygrid"
       id="grid830" />
  </sodipodi:namedview>
  <path
     inkscape:connector-curvature="0"
     style="opacity:0.6;fill:#000000;fill-opacity:1;stroke:#000000;stroke-width:2;stroke-linejoin:round;stroke-miterlimit:4;stroke-dasharray:none"
     d="M 6.3828127,2 2.0000002,13 h 2.3574219 l 1.1894531,-3 h 2.4531251 2.4531247 l 1.189453,3 H 14 L 9.6171869,2 H 8.0000003 Z M 8.0000003,3.4960938 9.6855469,8.0000004 H 8.0000003 6.3144533 Z"
     id="path839" />
  <path
     inkscape:connector-curvature="0"
     style="fill:#ffffff;fill-opacity:1;stroke-width:1"
     d="M 6.3828127,2 2.0000002,13 h 2.3574219 l 1.1894531,-3 h 2.4531251 2.4531247 l 1.189453,3 H 14 L 9.6171869,2 H 8.0000003 Z M 8.0000003,3.4960938 9.6855469,8.0000004 H 8.0000003 6.3144533 Z"
     id="path4-3" />
  <path
     inkscape:connector-curvature="0"
     style="opacity:0.6;fill:#000000;fill-opacity:1;stroke:#000000;stroke-width:3;stroke-linejoin:round;stroke-miterlimit:4;stroke-dasharray:none;stroke-opacity:1"
     id="path834"
     d="M 13.5,8.4999999 A 2,2 0 0 0 11.5,10.5 a 2,2 0 0 0 2,2 v 2 h 1 V 8.4999999 Z" />
  <path
     d="M 13.5,8.4999999 A 2,2 0 0 0 11.5,10.5 a 2,2 0 0 0 2,2 v 2 h 1 V 8.4999999 Z"
     id="path4"
     style="fill:#aee3f8;fill-opacity:1;stroke:#aee3f8;stroke-opacity:1"
     inkscape:connector-curvature="0" />
</svg>
