<?xml version="1.0" encoding="UTF-8" standalone="no"?>
<svg
   xmlns:dc="http://purl.org/dc/elements/1.1/"
   xmlns:cc="http://creativecommons.org/ns#"
   xmlns:rdf="http://www.w3.org/1999/02/22-rdf-syntax-ns#"
   xmlns:svg="http://www.w3.org/2000/svg"
   xmlns="http://www.w3.org/2000/svg"
   xmlns:sodipodi="http://sodipodi.sourceforge.net/DTD/sodipodi-0.dtd"
   xmlns:inkscape="http://www.inkscape.org/namespaces/inkscape"
   viewBox="0 0 16 16"
   version="1.1"
   id="svg6"
   sodipodi:docname="sc_textattributes.svg"
   inkscape:version="0.92.5 (2060ec1f9f, 2020-04-08)"
   inkscape:export-filename="/home/jupiter007/Libreoffice yaru theme fullcolor/build/cmd/sc_textattributes.png"
   inkscape:export-xdpi="96"
   inkscape:export-ydpi="96">
  <metadata
     id="metadata12">
    <rdf:RDF>
      <cc:Work
         rdf:about="">
        <dc:format>image/svg+xml</dc:format>
        <dc:type
           rdf:resource="http://purl.org/dc/dcmitype/StillImage" />
      </cc:Work>
    </rdf:RDF>
  </metadata>
  <defs
     id="defs10" />
  <sodipodi:namedview
     pagecolor="#ffffff"
     bordercolor="#666666"
     borderopacity="1"
     objecttolerance="10"
     gridtolerance="10"
     guidetolerance="10"
     inkscape:pageopacity="0"
     inkscape:pageshadow="2"
     inkscape:window-width="1920"
     inkscape:window-height="1011"
     id="namedview8"
     showgrid="true"
     inkscape:zoom="41.7193"
     inkscape:cx="4.8792148"
     inkscape:cy="5.0654662"
     inkscape:window-x="0"
     inkscape:window-y="32"
     inkscape:window-maximized="1"
     inkscape:current-layer="svg6">
    <inkscape:grid
       type="xygrid"
       id="grid824" />
  </sodipodi:namedview>
  <path
     inkscape:connector-curvature="0"
     style="opacity:0.6;fill:#000000;fill-opacity:1;stroke:#000000;stroke-width:2;stroke-linejoin:round;stroke-miterlimit:4;stroke-dasharray:none"
     d="M 6.3828125,2 1.9999999,13 h 2.357422 L 5.546875,10 H 8 10.453125 l 1.189453,3 H 14 L 9.6171875,2 H 8 Z M 8,3.4960938 9.6855469,8.0000002 H 8 6.3144531 Z"
     id="path839" />
  <path
     inkscape:connector-curvature="0"
     style="fill:#ffffff;fill-opacity:1;stroke-width:1"
     d="M 6.3828125,2 1.9999999,13 h 2.357422 L 5.546875,10 H 8 10.453125 l 1.189453,3 H 14 L 9.6171875,2 H 8 Z M 8,3.4960938 9.6855469,8.0000002 H 8 6.3144531 Z"
     id="path4-3" />
  <circle
     style="opacity:1;fill:#ffffff;fill-opacity:1;stroke:none;stroke-width:2;stroke-linecap:round;stroke-linejoin:round;stroke-miterlimit:4;stroke-dasharray:none;stroke-opacity:1"
     id="path824"
     cx="11.5"
     cy="12.502"
     r="1.5" />
  <path
     inkscape:connector-curvature="0"
     style="display:block;fill:#b3b3b3;fill-opacity:1;stroke:#6d6d6d;stroke-width:0.61683768;stroke-linejoin:round;stroke-opacity:1"
     d="m 9.575719,8.6138814 c -0.1375,0.05 -0.204,0.1925001 -0.154,0.33 l 0.2496,0.6864001 c -0.2767,0.1877999 -0.5042,0.4150005 -0.7114,0.6672005 l -0.6802,-0.3156006 c -0.1317,-0.0642 -0.2813004,-0.0098 -0.3410004,0.1240006 l -0.5250003,1.125 c -0.0642,0.1317 -0.0098,0.2813 0.1240003,0.341 l 0.6788004,0.3186 c -0.0602,0.3208 -0.0867,0.6418 -0.0544,0.9738 l -0.6864007,0.2496 c -0.1375,0.05 -0.204,0.1925 -0.154,0.33 l 0.4240003,1.166 c 0.05,0.1375 0.1925,0.204 0.3300004,0.154 l 0.6864,-0.2496 c 0.1878,0.2767 0.415,0.5042 0.6672,0.7114 l -0.3171,0.6795 c -0.0642,0.1317 -0.0098,0.2813 0.124,0.341 l 1.125,0.525 c 0.1317,0.0642 0.2813,0.0098 0.341,-0.124 l 0.3186,-0.6788 c 0.3208,0.0602 0.6418,0.0867 0.9738,0.0544 l 0.25,0.6875 c 0.05,0.1375 0.1925,0.204 0.33,0.154 l 1.166,-0.424 c 0.1375,-0.05 0.204,-0.1925 0.154,-0.33 l -0.2496,-0.6864 c 0.2767,-0.1878 0.5042,-0.415 0.7114,-0.6672 l 0.6795,0.3171 c 0.1317,0.0642 0.2813,0.0098 0.341,-0.124 l 0.525,-1.125 c 0.0642,-0.1317 0.0098,-0.2813 -0.124,-0.341 l -0.6788,-0.3186 c 0.0602,-0.3208 0.0867,-0.6418 0.0544,-0.9738 l 0.6875,-0.25 c 0.1375,-0.05 0.204,-0.1925 0.154,-0.33 l -0.424,-1.166 c -0.05,-0.1375 -0.1925,-0.204 -0.33,-0.154 l -0.6864,0.2496 c -0.1878,-0.2767 -0.415,-0.5042 -0.6672,-0.7114006 l 0.3171,-0.6795 c 0.0642,-0.1317 0.0098,-0.2813 -0.124,-0.341 l -1.125,-0.525 c -0.1317,-0.0642 -0.2813,-0.0098 -0.341,0.124 l -0.3186,0.6788 c -0.3208,-0.0602 -0.6418,-0.0867 -0.9738,-0.0544 l -0.2504,-0.6886 c -0.05,-0.1375 -0.1925,-0.204 -0.33,-0.154 z m 1.683,2.8130006 c 0.6072,-0.2208 1.2792,0.0928 1.5,0.7 0.2208,0.6072 -0.0928,1.2792 -0.7,1.5 -0.6072,0.2208 -1.2792,-0.0928 -1.5,-0.7 -0.2208,-0.6072 0.0928,-1.2792 0.7,-1.5 z"
     display="block"
     id="path34" />
</svg>
