<?xml version="1.0" encoding="UTF-8" standalone="no"?>
<svg
   xmlns:dc="http://purl.org/dc/elements/1.1/"
   xmlns:cc="http://creativecommons.org/ns#"
   xmlns:rdf="http://www.w3.org/1999/02/22-rdf-syntax-ns#"
   xmlns:svg="http://www.w3.org/2000/svg"
   xmlns="http://www.w3.org/2000/svg"
   xmlns:sodipodi="http://sodipodi.sourceforge.net/DTD/sodipodi-0.dtd"
   xmlns:inkscape="http://www.inkscape.org/namespaces/inkscape"
   viewBox="0 0 16 16"
   version="1.1"
   id="svg4"
   sodipodi:docname="sc_viewvaluehighlighting.svg"
   inkscape:version="0.92.5 (2060ec1f9f, 2020-04-08)"
   inkscape:export-filename="/home/jupiter007/Libreoffice yaru theme fullcolor/build/cmd/sc_viewvaluehighlighting.png"
   inkscape:export-xdpi="95"
   inkscape:export-ydpi="95">
  <metadata
     id="metadata10">
    <rdf:RDF>
      <cc:Work
         rdf:about="">
        <dc:format>image/svg+xml</dc:format>
        <dc:type
           rdf:resource="http://purl.org/dc/dcmitype/StillImage" />
      </cc:Work>
    </rdf:RDF>
  </metadata>
  <defs
     id="defs8" />
  <sodipodi:namedview
     pagecolor="#ffffff"
     bordercolor="#666666"
     borderopacity="1"
     objecttolerance="10"
     gridtolerance="10"
     guidetolerance="10"
     inkscape:pageopacity="0"
     inkscape:pageshadow="2"
     inkscape:window-width="1920"
     inkscape:window-height="1011"
     id="namedview6"
     showgrid="true"
     inkscape:zoom="41.7193"
     inkscape:cx="4.2367147"
     inkscape:cy="8.5933897"
     inkscape:window-x="0"
     inkscape:window-y="32"
     inkscape:window-maximized="1"
     inkscape:current-layer="svg4">
    <inkscape:grid
       type="xygrid"
       id="grid817" />
  </sodipodi:namedview>
  <path
     sodipodi:nodetypes="cccscsccccccccscscccccc"
     inkscape:connector-curvature="0"
     id="path4237-1"
     d="M 4.9946161,1 C 3.736416,1.0145 2.815725,0.9694 2.062975,1.384766 1.686605,1.5924259 1.389744,1.9441519 1.225084,2.3828119 1.060414,2.8214819 1.000475,3.3423999 1.000475,4 V 5.488281 12 c 0,0.657609 0.0599,1.178577 0.224609,1.617189 0.16468,0.43861 0.461531,0.788523 0.837891,0.996092 0.75272,0.415131 1.6735411,0.37165 2.9316411,0.386719 h 0.002 6.0048589 0.0039 c 1.25819,-0.0145 2.178891,0.0306 2.931641,-0.384766 0.37637,-0.20766 0.673221,-0.559386 0.837891,-0.998045 C 14.939446,13.178518 14.999525,12.657609 14.999525,12 V 5.466797 4 c 0,-0.6576001 -0.0599,-1.1785771 -0.224609,-1.6171881 C 14.610236,1.9442129 14.313385,1.5942789 13.937025,1.386719 13.184255,0.971589 12.263424,1.01508 11.005334,1 h -0.002 -6.0048589 z"
     style="font-style:normal;font-variant:normal;font-weight:normal;font-stretch:normal;font-size:15px;line-height:125%;font-family:Ubuntu;-inkscape-font-specification:Ubuntu;text-align:center;letter-spacing:0px;word-spacing:0px;writing-mode:lr-tb;text-anchor:middle;display:inline;opacity:0.6;fill:#000000;fill-opacity:1;stroke:none;stroke-width:0.99980211" />
  <path
     inkscape:connector-curvature="0"
     id="path1993"
     d="m 5.9828441,2.0271849 c -1.556581,0.0108 -1.10899,-0.01175 -2.6589411,0.03877 -0.461229,0.04267 -1.016188,0.206419 -1.15534,0.709967 -0.218994,0.635346 -0.108414,1.3337871 -0.145796,1.9819241 -0.0078,2.297084 -0.02297,5.595846 0.02152,7.885197 0.0391,0.461929 0.202551,1.012665 0.698756,1.163665 0.632456,0.225083 1.2841441,0.12274 1.9359741,0.154299 1.424235,0.0068 0.849563,0.01102 2.27542,0.01131 1.704531,3.49e-4 3.4083879,-0.005 5.1071899,-0.01851 0.511911,-0.01201 1.183699,0.01993 1.584745,-0.405192 0.421097,-0.539783 0.287073,-1.268021 0.322745,-1.903787 0.01187,-2.444322 0.02769,-5.910512 -0.0219,-8.3562111 -0.04928,-0.40204 -0.169992,-0.862952 -0.575139,-1.044475 -0.668169,-0.294097 -1.426205,-0.168019 -2.125921,-0.205572 -1.7544069,-0.0118 -3.5088739,-0.01249 -5.2633129,-0.01139 z"
     style="opacity:1;vector-effect:none;fill:#ffffff;fill-opacity:1;stroke:none;stroke-width:1;stroke-linecap:round;stroke-linejoin:bevel;stroke-miterlimit:4;stroke-dasharray:none;stroke-dashoffset:0;stroke-opacity:1"
     sodipodi:nodetypes="cccccccscccccccc" />
  <path
     style="opacity:1;fill:#000000;fill-opacity:1;fill-rule:evenodd;stroke:none;stroke-width:2;stroke-linecap:butt;stroke-linejoin:round;stroke-miterlimit:4;stroke-dasharray:none;stroke-opacity:1"
     d="M 7.9648438 3 A 5 5 0 0 0 4.4648438 4.4648438 A 5 5 0 0 0 3.3808594 9.9140625 A 5 5 0 0 0 8 13 C 8.9412066 13 9.8746618 12.99165 10.607422 12.783203 L 10.054688 11.826172 C 9.3982813 11.993565 8.5511192 12 8 12 A 4 4 0 0 1 4.3046875 9.53125 A 4 4 0 0 1 5.171875 5.171875 A 4 4 0 0 1 9.53125 4.3046875 A 4 4 0 0 1 12 8 C 12 9 11 9 10 9 L 10 8 L 10 6 L 9 6 L 9 6.2714844 A 2 2 0 0 0 8 6 A 2 2 0 0 0 6 8 A 2 2 0 0 0 8 10 A 2 2 0 0 0 9 9.7304688 L 9 10 L 10 10 C 12 10 13 10 13 8 A 5 5 0 0 0 9.9140625 3.3808594 A 5 5 0 0 0 7.9648438 3 z M 8 7 A 1 1 0 0 1 9 8 A 1 1 0 0 1 8 9 A 1 1 0 0 1 7 8 A 1 1 0 0 1 8 7 z "
     id="path821" />
  <path
     id="path840"
     d="M 7.9648438 3 A 5 5 0 0 0 4.4648438 4.4648438 A 5 5 0 0 0 3.3808594 9.9140625 A 5 5 0 0 0 8 13 C 8.9412066 13 9.8746618 12.99165 10.607422 12.783203 L 10.054688 11.826172 C 9.3982813 11.993565 8.5511192 12 8 12 A 4 4 0 0 1 4.3046875 9.53125 A 4 4 0 0 1 5.171875 5.171875 A 4 4 0 0 1 9.53125 4.3046875 A 4 4 0 0 1 12 8 C 12 9 11 9 10 9 L 10 8 L 10 6 L 9 6 L 9 6.2714844 A 2 2 0 0 0 8 6 A 2 2 0 0 0 6 8 A 2 2 0 0 0 8 10 A 2 2 0 0 0 9 9.7304688 L 9 10 L 10 10 C 12 10 13 10 13 8 A 5 5 0 0 0 9.9140625 3.3808594 A 5 5 0 0 0 7.9648438 3 z M 8 7 A 1 1 0 0 1 9 8 A 1 1 0 0 1 8 9 A 1 1 0 0 1 7 8 A 1 1 0 0 1 8 7 z "
     style="opacity:1;fill:#1a7fd4;fill-opacity:1;fill-rule:evenodd;stroke:none;stroke-width:2;stroke-linecap:butt;stroke-linejoin:round;stroke-miterlimit:4;stroke-dasharray:none;stroke-opacity:1" />
</svg>
