<?xml version="1.0" encoding="UTF-8" standalone="no"?>
<svg
   xmlns:dc="http://purl.org/dc/elements/1.1/"
   xmlns:cc="http://creativecommons.org/ns#"
   xmlns:rdf="http://www.w3.org/1999/02/22-rdf-syntax-ns#"
   xmlns:svg="http://www.w3.org/2000/svg"
   xmlns="http://www.w3.org/2000/svg"
   xmlns:sodipodi="http://sodipodi.sourceforge.net/DTD/sodipodi-0.dtd"
   xmlns:inkscape="http://www.inkscape.org/namespaces/inkscape"
   viewBox="0 0 16 16"
   version="1.1"
   id="svg4"
   sodipodi:docname="sc_viewdatasourcebrowser.svg"
   inkscape:version="0.92.4 (5da689c313, 2019-01-14)"
   inkscape:export-filename="/home/jupiter007/Libreoffice yaru theme fullcolor/build/cmd/sc_viewdatasourcebrowser.png"
   inkscape:export-xdpi="95"
   inkscape:export-ydpi="95"><metadata
   id="metadata10">
  <rdf:RDF>
    <cc:Work
       rdf:about="">
      <dc:format>image/svg+xml</dc:format>
      <dc:type
         rdf:resource="http://purl.org/dc/dcmitype/StillImage" />
    </cc:Work>
  </rdf:RDF>
</metadata>
<defs
   id="defs8" />
<sodipodi:namedview
   pagecolor="#ffffff"
   bordercolor="#666666"
   borderopacity="1"
   objecttolerance="10"
   gridtolerance="10"
   guidetolerance="10"
   inkscape:pageopacity="0"
   inkscape:pageshadow="2"
   inkscape:window-width="1920"
   inkscape:window-height="1011"
   id="namedview6"
   showgrid="false"
   inkscape:zoom="29.5"
   inkscape:cx="3.4076772"
   inkscape:cy="9.2935089"
   inkscape:window-x="1920"
   inkscape:window-y="32"
   inkscape:window-maximized="1"
   inkscape:current-layer="svg4" />
/&gt;<path
   style="fill:#f2cbf8;fill-opacity:1;stroke-width:0.91666681"
   id="path817"
   d="M 8,2.5 C 4.9624339,2.5 2.5,3.3208113 2.5,4.3333333 V 11.666666 C 2.5,12.679188 4.9624339,13.5 8,13.5 c 3.037565,0 5.5,-0.820812 5.5,-1.833334 V 4.3333333 C 13.5,3.3208113 11.037565,2.5 8,2.5 Z"
   inkscape:connector-curvature="0"
   sodipodi:nodetypes="sssssss" />
<path
   d="m8 2a6 2 0 0 0 -6 2v8a6 2 0 0 0 6 2 6 2 0 0 0 6-2v-8a6 2 0 0 0 -6-2zm0 1a5 1 0 0 1 5 1 5 1 0 0 1 -5 1 5 1 0 0 1 -5-1 5 1 0 0 1 5-1zm-5 2.1015625a6 2 0 0 0 5 .8984375 6 2 0 0 0 5-.8964844v2.8964844a5 1 0 0 1 -5 1 5 1 0 0 1 -5-1zm0 4a6 2 0 0 0 5 .8984375 6 2 0 0 0 5-.8964844v2.8964844a5 1 0 0 1 -5 1 5 1 0 0 1 -5-1z"
   fill="#232629"
   id="path2"
   style="fill:#8e03a3;fill-opacity:1" />
</svg>
