<svg viewBox="0 0 24 24" xmlns="http://www.w3.org/2000/svg" xmlns:xlink="http://www.w3.org/1999/xlink"><linearGradient id="a" gradientUnits="userSpaceOnUse" x1="-14.330508" x2="-14.320742" y1="20.40678" y2="11.90678"><stop offset="0" stop-color="#0040dd"/><stop offset="1" stop-color="#0a84ff"/></linearGradient><path d="m11.492188 15a.50005.50005 0 0 0 -.345704.146484l-3.9999996 4a.50005.50005 0 0 0 .3535156.853516h2.5v3.5a.50005.50005 0 0 0 .5.5h2a.50005.50005 0 0 0 .5-.5v-3.5h2.5a.50005.50005 0 0 0 .353516-.853516l-4-4a.50005.50005 0 0 0 -.361328-.146484z" fill="url(#a)" transform="translate(0 -2)"/><g fill="#4b4b4f" transform="scale(-1 1)"><rect height="1" ry=".5" width="18" x="-21" y="2"/><rect height="1" ry=".5" width="18" x="-21" y="10"/><rect height="1" ry=".5" width="11" x="-14" y="5"/></g><g fill="#e9e9e9" fill-opacity=".992157" transform="matrix(-1 0 0 1 0 1)"><rect height="1" ry=".5" width="18" x="-21" y="2"/><rect height="1" ry=".5" width="18" x="-21" y="10"/><rect height="1" ry=".5" width="11" x="-14" y="5"/></g></svg>