<svg viewBox="0 0 24 24" xmlns="http://www.w3.org/2000/svg" xmlns:xlink="http://www.w3.org/1999/xlink"><filter id="a" color-interpolation-filters="sRGB" height="1.094553" width="1.097492" x="-.048746" y="-.047277"><feGaussianBlur stdDeviation=".36559322"/></filter><path d="m3 16.940678 16 .059322-1 2.5h-15z" filter="url(#a)" opacity=".15" stroke-width="1.015418"/><g fill="#8e8e93" transform="matrix(.70710678 .70710678 -.70710678 .70710678 9.645554 -5.680829)"><path d="m14.587 1.9712496 6.374892 2.1046045 2.104681 6.3201289-11.004176 11.064647-8.4502756-8.450125z" fill="#f2f2f7"/><g fill="#8e8e93"><path d="m14.200281.97124961-12.0373784 12.00409939 9.8662914 9.86614 12.037379-12.0041-2.104681-7.7615349zm.386719.99999999 6.374892 2.1046045 2.104681 6.3201289-11.004176 11.064647-8.4502756-8.450125z"/><path d="m17.707107 5.2928932a2 2 0 0 0 -2 2 2 2 0 0 0 2 2 2 2 0 0 0 2-2 2 2 0 0 0 -2-2zm0 1a1 1 0 0 1 1 1 1 1 0 0 1 -1 1 1 1 0 0 1 -1-1 1 1 0 0 1 1-1z"/></g></g><g fill="#aeaeb2"><path d="m5 8h8v1h-8z"/><path d="m5 10h8v1h-8z"/><path d="m5 13h8v1h-8z"/><path d="m5 15h8v1h-8z"/></g></svg>