<svg viewBox="0 0 24 24" xmlns="http://www.w3.org/2000/svg" xmlns:xlink="http://www.w3.org/1999/xlink"><clipPath id="a"><path d="m20.99143 12.007177c-.11263-.02069-.229582-.02189-.349814.0022-.256226.05414-.492352.195183-.658476.393444l-5.98314 5.597179-2.988334-1.664179c-.440541-.430791-1.2421491-.430757-1.6827721 0-.440564.430768-.440599 1.214497 0 1.645311l3.7565561 4.160446.91455.858422.804804-.929957 6.934272-8.164982c.581205-.618654.04074-1.75309-.747646-1.897919z"/></clipPath><filter id="b" color-interpolation-filters="sRGB" height="1.052308" width="1.044348" x="-.022174" y="-.026154"><feGaussianBlur stdDeviation=".11996556"/></filter><linearGradient id="c" gradientUnits="userSpaceOnUse" x1="14" x2="14" y1="23" y2="11"><stop offset="0" stop-color="#1ec337"/><stop offset="1" stop-color="#32d74b"/></linearGradient><filter id="d" color-interpolation-filters="sRGB" height="1.094553" width="1.097492" x="-.048746" y="-.047277"><feGaussianBlur stdDeviation=".36559322"/></filter><linearGradient id="e" gradientUnits="userSpaceOnUse" x1="15" x2="17" y1="7" y2="4.999999"><stop offset="0" stop-color="#fff"/><stop offset=".77967989" stop-color="#f1f1f1"/><stop offset="1" stop-color="#d5d5d5"/></linearGradient><radialGradient id="f" cx="17" cy="6.555555" gradientTransform="matrix(1.4285714 -.00000006 .00000006 1.4285714 -7.285714 -4.365078)" gradientUnits="userSpaceOnUse" r="7"><stop offset="0" stop-color="#d7d7d7"/><stop offset=".29999998" stop-color="#f7f7f7"/><stop offset="1" stop-color="#fff"/></radialGradient><path d="m5 19.940678h14v2.559322h-14z" filter="url(#d)" opacity=".15" stroke-width="1.015418"/><path d="m5 3v3.7285156 2.6777344 11.246094.347656h.3515625 13.2968755.351562v-.347656-11.246094-2.6777344l-4-3.7285156h-6z" fill="url(#f)"/><path d="m5 2c-.554 0-1 .446-1 1v18c0 .554.446 1 1 1h4.1875 8.451172 1.365234c.137039-.00053.268151-.028142.386719-.078125.361002-.150582.613281-.505043.613281-.921875l-.003906-11.9589844v-1.7910156-.2089844c0-.4506799.098038-.4254121-.605469-1.0664062l-3.30664-3.2382813c-.709525-.7368575-.710169-.7363281-1.09375-.7363281h-.332032-.662109zm0 1h9v4c0 .554.446 1 1 1h4v1.0410156.3652344l.003906 11.242188-.003906.003906v.347656h-.351562-9.2148442-.4921876-3.9414062z" fill="#98989d"/><path d="m15 7h4l-4-4z" fill="#fff" fill-rule="evenodd"/><rect fill="#98989d" height="1" ry=".5" width="5" x="7" y="5"/><rect fill="#98989d" height="1" ry=".5" width="3" x="7" y="9"/><path d="m12.5 9c-.277 0-.5.223-.5.5s.223.5.5.5h4c.277 0 .5-.223.5-.5s-.223-.5-.5-.5zm-5 3c-.277 0-.5.223-.5.5s.223.5.5.5h6c.06166 0 .119384-.01492.173828-.03516l.28711-.269532v-.002c.024776-.059347.039062-.124724.039062-.193308 0-.277-.223-.5-.5-.5zm-.013672 6c-.2699599 0-.486328.21637-.486328.486328v.02734c0 .269966.2163701.486332.4863281.486332h4.0273439c.269958 0 .486328-.21637.486328-.486328v-.02734c0-.269966-.21637-.486332-.486328-.486332z" fill="#ff9f0a"/><rect fill="#98989d" height="1" ry=".5" width="4" x="7" y="15"/><path d="m15 3 4 4h-4z" fill="url(#e)"/><path d="m20 11.167969c-.300945.132173-.572115.326644-.791016.58789l.083985-.089843-.292969.273437.003906 6.742188.998047-1.177735zm-1 .771484-5.152344 4.822266-2.294922-1.277344c-.874294-.713796-2.1030441-.677274-2.9296871.130859-.8770253.857525-.8770463 2.228369 0 3.085938l-.0429688-.044922 3.0195309 3.34375h4.585938l2.814453-3.314453z" fill="#fff" fill-opacity=".784314"/><path d="m20.99143 12.007177c-.11263-.02069-.229582-.02189-.349814.0022-.256226.05414-.492352.195183-.658476.393444l-5.98314 5.597179-2.988334-1.664179c-.440541-.430791-1.242149-.430757-1.682772 0-.440564.430768-.440599 1.214497 0 1.645311l3.756556 4.160446.91455.858422.804804-.929957 6.934272-8.164982c.581205-.618654.04074-1.75309-.747646-1.897919z" fill="url(#c)"/><path clip-path="url(#a)" d="m20.99143 12.007177c-.11263-.02069-.229582-.02189-.349814.0022-.256226.05414-.492352.195183-.658476.393444l-5.98314 5.597179-2.988334-1.664179c-.440541-.430791-1.2421491-.430757-1.6827721 0-.440564.430768-.440599 1.214497 0 1.645311l3.7565561 4.160446.91455.858422.804804-.929957 6.934272-8.164982c.581205-.618654.04074-1.75309-.747646-1.897919z" fill="none" filter="url(#b)" stroke="#1ec337"/></svg>