<svg viewBox="0 0 24 24" xmlns="http://www.w3.org/2000/svg" xmlns:xlink="http://www.w3.org/1999/xlink"><linearGradient id="a" gradientUnits="userSpaceOnUse" x1="18.805084" x2="18.711864" y1="22.5" y2="11"><stop offset="0" stop-color="#007d1b"/><stop offset="1" stop-color="#28cd41"/></linearGradient><linearGradient id="b" gradientUnits="userSpaceOnUse" x1="-13.059994" x2="-13.073564" y1="21.648481" y2="3.175316"><stop offset="0" stop-color="#e5e5ea"/><stop offset="1" stop-color="#f2f2f7"/></linearGradient><path d="m16.498047 2a.49998833.49998833 0 0 0 -.125.0175781l-16.00781262 4.4648438a.49998833.49998833 0 0 0 -.29101563.7460937l8.73632815 14.1406254a.49998833.49998833 0 0 0 .0097656.013671l.2636719.394532a.49998833.49998833 0 0 0 .4160156.222656h10a.49998833.49998833 0 0 0 .425781-.763672l-2.582031-4.173828-2.185547-4.957031a.49998833.49998833 0 0 0 -.009765-.021485l-.136719-.273437.085937-.345703a.49998833.49998833 0 0 0 .003906-.015625l1.894532-8.8437502a.49998833.49998833 0 0 0 -.498047-.6054688zm-.660156 1.2109375-1.716797 8.0195315-.128906.515625a.50570997.50570997 0 0 0 .037109.349609l.214844.425781 2.193359 4.978516a.50570997.50570997 0 0 0 .033203.0625l2.123047 3.431641h-8.8242188l-.1074218-.16211-8.3789063-13.5605466z" fill="#007aff"/><path d="m17.837891 3.2109375-14.5546879 4.0605469 8.3789059 13.5605466.107422.16211h8.824219l-2.123047-3.431641a.50570997.50570997 0 0 1 -.033203-.0625l-2.193359-4.978516-.214844-.425781a.50570997.50570997 0 0 1 -.03711-.349609l.128906-.515625z" fill="url(#b)" transform="translate(-2)"/><path d="m14.755859 13.521484c-.711386-.066633-1.490101.161692-2.033203.705078a1.9925485 1.9925485 0 0 0 -.003906.001954l-2.9921875 3.005859c-.9532811.956258-.9526067 2.564147.0019531 3.519531l1.2460934 1.246094h5.998047c.000036-.005957.001965-.011614.001953-.017578l.001953-.205078c.672665-.069025 1.548677-.059632 2.066407-.226563.317135-.102253.593104-.231007.849609-.367187l-2.548828-4.121094-1.335938-3.029297c-.17739-.144695-.370713-.26364-.574218-.347656-.210941-.087085-.440606-.141852-.677735-.164063z" fill="#f2f2f7"/><path d="m20.981813 12c0-.550756-.457057-1.007814-1.007813-1.007812-.550755 0-.975055.457058-.974 1.007812l.0078 4.052781c.0038 1.999996-.999378 1.968703-4.0078 1.947219.01338-.539108-.01253-1.384577-.01822-2.013672-.000922-.443929-.53774-.66555-.851563-.351562l-2.992187 3.005859c-.194583.194751-.194583.510327 0 .705078l2.992187 2.994141c.314487.314715.852448.0914.851598-.353516l.018185-1.986328c3.5 0 4-.5 4.94474-1.255813.79339-.632855 1.016174-1.743483 1.044922-2.675781.00008-.0052.00008-.01042 0-.01563z" fill="url(#a)"/></svg>