<svg viewBox="0 0 24 24" xmlns="http://www.w3.org/2000/svg" xmlns:xlink="http://www.w3.org/1999/xlink"><linearGradient id="a" gradientTransform="translate(-4)" gradientUnits="userSpaceOnUse" x1="5.016949" x2="5.271186" xlink:href="#e" y1="21.923729" y2="18.771187"/><linearGradient id="b" gradientTransform="translate(-4)" gradientUnits="userSpaceOnUse" x1="20.068359" x2="20.576271" xlink:href="#e" y1="7.824219" y2="5.279661"/><linearGradient id="c" gradientUnits="userSpaceOnUse" x1="18.805084" x2="18.711864" y1="22.5" y2="11"><stop offset="0" stop-color="#007d1b"/><stop offset="1" stop-color="#28cd41"/></linearGradient><linearGradient id="d" gradientTransform="translate(-4)" gradientUnits="userSpaceOnUse" x1="11.209708" x2="10.878679" xlink:href="#e" y1="12.767767" y2="9.055456"/><linearGradient id="e" gradientTransform="matrix(.26458333 0 0 .26458333 101.6 307.58333)" gradientUnits="userSpaceOnUse" x1="18.5" x2="18.5" y1="23" y2="14.5"><stop offset="0" stop-color="#d70015"/><stop offset="1" stop-color="#ff453a"/></linearGradient><linearGradient id="f" gradientUnits="userSpaceOnUse" x1="5.016949" x2="5.271186" xlink:href="#e" y1="21.923729" y2="18.771187"/><linearGradient id="g" gradientUnits="userSpaceOnUse" x1="20.068359" x2="20.576271" xlink:href="#e" y1="7.824219" y2="5.279661"/><linearGradient id="h" gradientUnits="userSpaceOnUse" x1="10.024398" x2="10.3125" y1="22.067587" y2="2"><stop offset="0" stop-color="#0040dd"/><stop offset="1" stop-color="#007aff"/></linearGradient><path d="m10.3125 2c-.877347-.00987-1.732209.1575871-2.503906.484375-1.543395.6535757-2.7779504 1.9438309-3.1699221 3.6484375-.3617109 1.5730082.0225975 3.4482349 1.3613281 5.4062495l.322266.460938c.0079.01041.01355.02084.02148.03125.843712 1.106738 1.392807 2.089378 1.751953 2.96875.16118.309145.242599.647012.349609.976562.170197.554929.159364 1.120524.15625 1.691407-.01434.495482-.237089.899655-.439449 1.332031-.13738.226647-.294158.437724-.480468.621094-1.280556 1.260341-3.7642334 1.433476-5.2031254.476562l-.6914062 1.041016c2.001894 1.33133 4.9951316 1.117483 6.7695316-.628906.419843-.413217.757577-.924002.986328-1.509766.220167-.507933.25495-1.04195.3125-1.582031.003858-.916462-.043665-1.523113-.408203-2.417969-.321336-.923136-.847304-1.924877-1.589844-3-.486428-.64382-.934763-1.30509-1.341797-2-.7457286-1.3845485-.8859388-2.5955606-.6582031-3.5859375.2951731-1.2836494 1.2123661-2.2604943 2.4375001-2.7792969 2.450267-1.0376052 6.04363-.2463223 7.773437 4.1894532l1.164063-.453125c-1.448578-3.7146137-4.287881-5.3414952-6.919922-5.3710938z" fill="url(#h)"/><path d="m0 19h3v3h-3z" fill="url(#a)"/><path d="m15 5h3v3h-3z" fill="url(#b)"/><path d="m5 9v4h4v-4zm1 1h2v2h-2z" fill="url(#d)"/><path d="m6 10h2v2h-2z" fill="#f2f2f7"/><g fill="#8e8e93" transform="translate(-4)"><path d="m4 19h3v3h-3z" fill="url(#f)"/><path d="m19 5h3v3h-3z" fill="url(#g)"/></g><path d="m9.8496094 17.111328-.1230469.123047c-.6737153.675819-.8612388 1.674605-.5820313 2.541016.1539273-.240927.2903445-.498596.3984376-.775391.220167-.507933.25495-1.04195.3125-1.582031.000463-.110005-.0043826-.204529-.0058594-.306641z" fill="#f2f2f7"/><path d="m20.981813 12c0-.550756-.457057-1.007814-1.007813-1.007812-.550755 0-.975055.457058-.974 1.007812l.0078 4.052781c.0038 1.999996-.999378 1.968703-4.0078 1.947219.01338-.539108-.01253-1.384577-.01822-2.013672-.000922-.443929-.53774-.66555-.851563-.351562l-2.992187 3.005859c-.194583.194751-.194583.510327 0 .705078l2.992187 2.994141c.314487.314715.852448.0914.851598-.353516l.018185-1.986328c3.5 0 4-.5 4.94474-1.255813.79339-.632855 1.016174-1.743483 1.044922-2.675781.00008-.0052.00008-.01042 0-.01563z" fill="url(#c)"/></svg>