<svg viewBox="0 0 24 24" xmlns="http://www.w3.org/2000/svg" xmlns:xlink="http://www.w3.org/1999/xlink"><linearGradient id="a" gradientTransform="translate(-29.694915 1.220339)" gradientUnits="userSpaceOnUse" x1="14" x2="13.79661" y1="22" y2="2.135593"><stop offset="0" stop-color="#0040dd"/><stop offset="1" stop-color="#007aff"/></linearGradient><linearGradient id="b" gradientUnits="userSpaceOnUse" x1="13.525424" x2="13.355932" xlink:href="#a" y1="19.533897" y2="5.237288"/><linearGradient id="c" gradientUnits="userSpaceOnUse" x1="4.660639" x2="4.489908" xlink:href="#a" y1="7.873003" y2="3.055088"/><g fill="#4d82b8"><g fill="url(#b)"><path d="m6 5h12v1h-12z"/><path d="m6 19h12v1h-12z"/><path d="m6 12h12v1h-12z"/><path d="m18 5v1a3 3 0 0 1 3 3 3 3 0 0 1 -3 3v1a4 4 0 0 0 4-4 4 4 0 0 0 -4-4z"/><path d="m6 12v1a3 3 0 0 0 -3 3 3 3 0 0 0 3 3v1a4 4 0 0 1 -4-4 4 4 0 0 1 4-4z"/></g><path d="m2 5.5 4-2.5v5z" fill="url(#c)" fill-rule="evenodd"/></g></svg>