<svg height="24" viewBox="0 0 24 24" width="24" xmlns="http://www.w3.org/2000/svg" xmlns:xlink="http://www.w3.org/1999/xlink"><linearGradient id="a" gradientTransform="translate(0 6)" gradientUnits="userSpaceOnUse" x1="8" x2="8" y1="15" y2="1"><stop offset="0" stop-color="#e9e9e9"/><stop offset=".2857143" stop-color="#f2f2f2"/><stop offset="1" stop-color="#fbfbfb"/></linearGradient><linearGradient id="b" gradientUnits="userSpaceOnUse" x1="8" x2="8" y1="1" y2="15"><stop offset="0" stop-color="#fff"/><stop offset="1" stop-color="#fff" stop-opacity="0"/></linearGradient><linearGradient id="c" gradientUnits="userSpaceOnUse" x1="6" x2="5.5" xlink:href="#a" y1="11" y2="3"/><linearGradient id="d" gradientUnits="userSpaceOnUse" x1="6" x2="6" xlink:href="#b" y1="10" y2="4"/>
/&amp;amp;amp;gt;<g transform="matrix(0 1 -1 0 18.5 3)"><path d="m.5-5.5h17c.831 0 1.5.669 1.5 1.5v9c0 .831-.669 1.5-1.5 1.5h-17c-.831 0-1.5-.669-1.5-1.5v-9c0-.831.669-1.5 1.5-1.5z" fill="#98989d"/><path d="m0-4.5v10h18v-10z" fill="#fff" stroke-width="1.309307"/><path d="m-3.5-9h8v1h-8z" fill="#bababa" transform="rotate(90)"/><g fill="#4b4b4f" transform="translate(0 -5)"><path d="m12 2.5v6l3-3z"/><path d="m5 2.5v6l-3-3z"/></g></g><rect fill="#98989d" height="10" rx="1.5" ry="1.4144" width="10" x="1" y="12"/><rect fill="url(#a)" height="8" rx="1.5" ry="1.414397" width="8" x="2" y="13"/><g fill="none" stroke-linecap="round" stroke-linejoin="round" transform="translate(0 6)"><path d="m3.5 9.5 2 3 4-4.5" stroke="#4b4b4f" stroke-width="1.629"/><rect height="7" rx="1.5" ry="1.414397" stroke="url(#b)" width="7" x="2.5" y="7.5"/></g><path d="m11 7a5 5 0 0 1 -5 5 5 5 0 0 1 -5-5 5 5 0 0 1 5-5 5 5 0 0 1 5 5z" fill="#98989d"/><path d="m10 7a4 4 0 0 1 -4 4 4 4 0 0 1 -4-4 4 4 0 0 1 4-4 4 4 0 0 1 4 4z" fill="url(#c)"/><path d="m9 7a3 3 0 0 1 -3 3 3 3 0 0 1 -3-3 3 3 0 0 1 3-3 3 3 0 0 1 3 3z" fill="url(#d)"/><path d="m8 7a2 2 0 0 1 -2 2 2 2 0 0 1 -2-2 2 2 0 0 1 2-2 2 2 0 0 1 2 2z" fill="#4b4b4f"/></svg>