<svg viewBox="0 0 24 24" xmlns="http://www.w3.org/2000/svg" xmlns:xlink="http://www.w3.org/1999/xlink"><linearGradient id="a" gradientUnits="userSpaceOnUse" x1="12" x2="12" y1="3" y2="5"><stop offset="0" stop-color="#c7c7cc"/><stop offset="1" stop-color="#8e8e93"/></linearGradient><linearGradient id="b" gradientUnits="userSpaceOnUse" x1="26" x2="26" y1="2" y2="22"><stop offset="0" stop-color="#8e8e93"/><stop offset="1" stop-color="#8e8e93"/></linearGradient><linearGradient id="c" gradientUnits="userSpaceOnUse" x1="12" x2="12" y1="3" y2="21"><stop offset="0" stop-color="#e5e5ea"/><stop offset=".33333334" stop-color="#f2f2f7"/><stop offset=".8888889" stop-color="#f2f2f7"/><stop offset="1" stop-color="#f2f2f7"/></linearGradient><filter id="d" color-interpolation-filters="sRGB" height="1.094553" width="1.097492" x="-.048746" y="-.047277"><feGaussianBlur stdDeviation=".36559322"/></filter><path d="m3 4h18v18.559322h-18z" filter="url(#d)" opacity=".15" stroke-width="1.015418"/><path d="m3 3h18v18h-18z" fill="url(#c)"/><path d="m3 2c-.554 0-1 .446-1 1v18c0 .554.446 1 1 1h18c.554 0 1-.446 1-1v-18c0-.554-.446-1-1-1zm0 1h5v6h-5zm6 0h6v6h-6zm7 0h5v6h-5zm-13 7h5v3h-5zm6 0h6v3h-6zm7 0h5v3h-5zm-13 4h5v3h-5zm6 0h6v3h-6zm7 0h5v3h-5zm-13 4h5v3h-5zm6 0h6v3h-6zm7 0h5v3h-5z" fill="#aeaeb2"/><path d="m2 3 1-1h18l1 1v3h-20z" fill="url(#a)"/><path d="m3 2c-.554 0-1 .446-1 1v2 1 15c0 .554.446 1 1 1h18c.554 0 1-.446 1-1v-15-3c0-.554-.446-1-1-1zm0 1h5v2h-5zm6 0h6v2h-6zm7 0h5v2h-5zm-13 3h18v15h-18z" fill="url(#b)"/><path d="m19.925781 8.998047c-.569847 0-1.158631.2275153-1.589843.6582031l-1.671876 1.6699219a1.507838 1.507838 0 0 0 -.292968.416016 1.507838 1.507838 0 0 0 -.451172.308593l-5.439453 5.433594a1.507838 1.507838 0 0 0 -.4375.994141 1.507838 1.507838 0 0 0 -.3183596.628906l-.6875 2.892578h6.8984376l4.957031-4.988281a1.507838 1.507838 0 0 0 .273438-.382813 1.507838 1.507838 0 0 0 .453125-.298828l.380859-.365234v-5.826172l-.482422-.4824219a1.507838 1.507838 0 0 0 -.002 0c-.435915-.4353918-1.019881-.6582031-1.589797-.6582031zm-2.095703 2.830078.220703.222656a1.507838 1.507838 0 0 0 -.246093-.199219z" fill="#f2f2f7" fill-opacity=".784314"/><g fill="#eac282" transform="translate(-1.602597 -1.200058)"><path d="m11.794252 19.654584-.794252 3.345416 2.979799-.95479z" fill="#aeaeb2" stroke="#8e8e93" transform="translate(1 1)"/><path d="m21.527817 11.706205c-.189562 0-.378184.07172-.523438.216797l-1.673828 1.669922 2.847656 2.849609 1.710938-1.638672c.290506-.290127.290506-.756747 0-1.046875l-1.835938-1.833984c-.145254-.145064-.335828-.216797-.52539-.216797z" fill="#e68497" stroke="#b6496c"/><path d="m17.588364 13.317533-5.439453 5.433594c.648096.793958 1.89093 2.102781 2.714843 2.957031l.05078-.01367 5.509765-5.544922z" fill="#fc0" stroke="#ff9500" transform="translate(1 1)"/><path d="m21.093491 16.135775-1.284233-1.373643-6.299585 6.125687 1.263119 1.338035z" fill="#ffe014"/><path d="m20.379082 13.977391 1.118644-1.067797 1.703389 1.677967" fill="none" stroke="#f398b3"/></g></svg>