<svg viewBox="0 0 24 24" xmlns="http://www.w3.org/2000/svg" xmlns:xlink="http://www.w3.org/1999/xlink"><linearGradient id="a" gradientUnits="userSpaceOnUse" x1="7" x2="7" xlink:href="#b" y1="8" y2="2"/><linearGradient id="b" gradientUnits="userSpaceOnUse" x1="23" x2="23" y1="24" y2="12"><stop offset="0" stop-color="#0040dd"/><stop offset="1" stop-color="#0a84ff"/></linearGradient><linearGradient id="c" gradientTransform="matrix(-1 0 0 1 20.999201 0)" gradientUnits="userSpaceOnUse" x1="10" x2="10" xlink:href="#b" y1="8" y2="2"/><path d="m3 9c-.554 0-1 .446-1 1v9c0 .554.446 1 1 1h5c.554 0 1-.446 1-1v-9c0-.554-.446-1-1-1z" fill="#e4b500"/><path d="m3 10h5v9h-5z" fill="#fc0"/><path d="m16 11c-.554 0-1 .446-1 1v7c0 .554.446 1 1 1h5c.554 0 1-.446 1-1v-7c0-.554-.446-1-1-1z" fill="#98989d"/><path d="m16 12h5v7h-5z" fill="#fff"/><path d="m6.484375 1.9999996a.50037035.50037035 0 0 0 -.3046875.1152344l-3 2.5a.50037035.50037035 0 0 0 0 .7695312l3 2.5a.50037035.50037035 0 0 0 .8203125-.3847656v-1.5h2v-2h-2v-1.5a.50037035.50037035 0 0 0 -.515625-.5z" fill="url(#a)"/><path d="m11.514826 1.9999996a.50037035.50037035 0 0 1 .304688.1152344l3 2.5a.50037035.50037035 0 0 1 0 .7695312l-3 2.5a.50037035.50037035 0 0 1 -.820313-.3847656v-1.5h-2v-2h2v-1.5a.50037035.50037035 0 0 1 .515625-.5z" fill="url(#c)"/><g fill="#4b4b4f"><rect height="20" ry=".5" width="1" x="2" y="2"/><rect height="20" ry=".5" width="1" x="15" y="2"/></g></svg>