<svg viewBox="0 0 24 24" xmlns="http://www.w3.org/2000/svg" xmlns:xlink="http://www.w3.org/1999/xlink"><linearGradient id="a" gradientTransform="matrix(.70710679 .70710677 -.70710677 .70710679 -36 6)" gradientUnits="userSpaceOnUse" x1="25.382681" x2="17.496641" y1="2.44407" y2="-5.874086"><stop offset="0" stop-color="#0040dd"/><stop offset="1" stop-color="#007aff"/></linearGradient><linearGradient id="b" gradientUnits="userSpaceOnUse" x1="9" x2="9" xlink:href="#a" y1="9" y2="3"/><linearGradient id="c" gradientUnits="userSpaceOnUse" x1="18" x2="18" xlink:href="#a" y1="18" y2="10"/><path d="m3 9v11h5v-11c22.053809-.2501148 7.388432 0-5 0z" fill="#f2f2f7"/><path d="m2 9v11c0 .554.446 1 1 1h6v-1-3-1-3-1-3h-1v3h-5v-3zm1 4h5v3h-5zm0 4h5v3h-5z" fill="#8e8e93"/><path d="m14.507927 10.000201c-.254427-.0030999-.462142.225115-.462277.507799v6.9842c.000328.347953.308173.592601.604651.480457l8.087202-3.048752c.393157-.150748.415773-.75902.03515-.945289l-8.085442-3.935448c-.05655-.02763-.117518-.04225-.179286-.04297z" fill="url(#c)"/><path d="m12 10c-.554 0-1 .446-1 1v11c0 .554.446 1 1 1s1-.446 1-1v-11c0-.554-.446-1-1-1z" fill="#8e8e93"/><path d="m3 4h18v4h-18z" fill="#007aff" stroke-width=".948683"/><path d="m3 3c-.554 0-1 .446-1 1v5h1 5 1 13v-5c0-.554-.446-1-1-1zm0 1h5v4h-5zm6 0h6v4h-6zm7 0h5v4h-5z" fill="url(#b)"/></svg>