<svg viewBox="0 0 24 24" xmlns="http://www.w3.org/2000/svg" xmlns:xlink="http://www.w3.org/1999/xlink"><linearGradient id="a" gradientUnits="userSpaceOnUse" x1="10.505858" x2="10.5" y1="13.4922" y2="17.5"><stop offset="0" stop-color="#c7c7cc"/><stop offset="1" stop-color="#8e8e93"/></linearGradient><path d="m4.9609375 3.5-.9511719.4042969v.9746093.1992188l5.9003906 8.25c.062016.085851.0954908.189015.0957028.294922v3.876953 3.5c.003686.003145.00609.004685.009766.007812 1.490883.763663 2.489861.748825 3.984375-.007812v-.470703-1.578125-1.451172h-.005859v-3.876953c.00021-.105907.033693-.209072.095703-.294922l5.90039-8.25v-.1992188-.9746093l-.951172-.4042969z" fill="#8e8e93"/><path d="m4.871557 2.125841c-.1322075.0000806-.2591191.0519671-.3535156.1445312l-1.3656976 1.0597059c-.048282.046622-.086791.1023955-.1132813.1640625v.00195c-.0258489.0618744-.0391276.1282648-.0390625.1953156v1.1875.3613282c-.0003594.1056921.032428.2088371.09375.2949218l3.9042969 5.4648438 1.9902343 2.785156v5.427735.179687 2.101563c-.0002768.279493.2128834.429733.5058594.505859 1.5058594.5 3.5058594.5 5.0117204 0 .279493.000277.506136-.226366.50586-.505859v-2.101563-.179687-5.427735l1.990232-2.785156 3.904297-5.4648438c.061322-.0860848.094109-.1892297.09375-.2949218v-1.5488282c.000065-.067051-.01321-.1334444-.03906-.1953124-.02626-.062365-.06479-.1188197-.113282-.1660157l-1.347658-.8300781c-.094397-.0925641-.221308-.1444507-.353516-.1445312-4.681374-1.094353-9.188627-1.69980574-14.274927-.2296278zm.0893805 1.374159c4.3445021-1.712013 8.9234615-2.2712757 14.0781245 0l.951172.4042969v.9746093.1992188l-5.90039 8.25c-.06201.08585-.09549.189015-.0957.294922v3.876953h.005856v1.451172 1.578125.470703c-1.5.759415-2.5.772208-4 0v-.470703-1.578125-1.451172h.0059v-3.876953c-.000212-.105907-.033687-.209071-.095703-.294922l-5.9003906-8.25v-.1992188-.9746093z" fill="#8e8e93"/><ellipse cx="11.994952" cy="3.764185" fill="#e5e5ea" rx="8.493799" ry="2.263032" stroke="#8e8e93" stroke-linecap="round" stroke-linejoin="round" stroke-width="1.002306"/><path d="m12 12c-.554 0-1 .223-1 .5v9.802734c1.188517.133291 2.463077.043507 3.505859-.302734.279493.000277.506136-.226366.50586-.505859v-2.101563-.179687-5.427735l1.27539-1.785156z" fill="#f2f2f7" fill-opacity=".784314"/><g transform="translate(7 .5)"><path d="m6 21.5v-4h9v4z" fill="#f2f2f7"/><path d="m6 12.5c-.554 0-1 .446-1 1v8c0 .554.446 1 1 1h9c.554 0 1-.446 1-1v-8c0-.554-.446-1-1-1zm4.505859.992188c.01495 0 .02993.0074.04492.0078h4.449221v8.000012h-9v-8h4.460938c.01499-.000413.02998-.0078.04492-.0078z" fill="#8e8e93"/><path d="m6 13.5h9v4h-9z" fill="url(#a)"/></g></svg>