<svg viewBox="0 0 24 24" xmlns="http://www.w3.org/2000/svg" xmlns:xlink="http://www.w3.org/1999/xlink"><linearGradient id="a" gradientUnits="userSpaceOnUse" x1="13" x2="13" y1="23" y2="5"><stop offset="0" stop-color="#f2f2f7"/><stop offset=".22222222" stop-color="#f2f2f7"/><stop offset=".83333331" stop-color="#f2f2f7"/><stop offset="1" stop-color="#f2f2f7"/></linearGradient><linearGradient id="b" gradientUnits="userSpaceOnUse" x1="19.5" x2="19.5" y1="21.500002" y2="14.5"><stop offset="0" stop-color="#aeaeb2"/><stop offset=".07142864" stop-color="#e7e7e7"/><stop offset=".07142864" stop-color="#f2f2f7"/><stop offset=".5" stop-color="#f2f2f7"/><stop offset=".93333334" stop-color="#f2f2f7"/><stop offset="1" stop-color="#f2f2f7"/></linearGradient><linearGradient id="c" gradientUnits="userSpaceOnUse" x1="19.428572" x2="19.428572" y1="18.25" y2="21.285715"><stop offset="0" stop-color="#f2f2f7"/><stop offset="1" stop-color="#f2f2f7"/></linearGradient><path d="m2 5v8.259766 6.740234h8.398438 3.203124 8.398438v-6.740234-8.259766zm1 1h18v6.607422 6.392578h-7.789062-2.421876-7.789062v-6.392578z" fill="#8e8e93"/><path d="m3 6v6.607422 6.392578h7.789062 2.421876 7.789062v-6.392578-6.607422z" fill="#f2f2f7"/><path d="m1 3h22v2h-22z" fill="#48484a"/><path d="m5 9h14v2h-14z" fill="#ff9500"/><g transform="translate(-2 -1)"><path d="m16 13h7v10h-7z" fill="url(#a)"/><path d="m16 12c-.554 0-1 .446-1 1v10c0 .554.446 1 1 1h7c.554 0 1-.446 1-1v-10c0-.554-.446-1-1-1zm0 1h7v10h-7z" fill="#8e8e93"/><g stroke-width=".607143"><path d="m17 14h5v8h-5z" fill="#8e8e93"/><path d="m17.5 14.5h4v7h-4z" fill="url(#b)"/><path d="m18 16h3v2h-3z" fill="#c7c7cc"/><path d="m18 18h3v3h-3z" fill="url(#c)"/></g></g></svg>