<svg viewBox="0 0 24 24" xmlns="http://www.w3.org/2000/svg" xmlns:xlink="http://www.w3.org/1999/xlink"><linearGradient id="a" gradientUnits="userSpaceOnUse" x1="-3" x2="-2.5" y1="40" y2="27"><stop offset="0" stop-color="#0040dd"/><stop offset="1" stop-color="#0a84ff"/></linearGradient><path d="m6 3-3 3v1 7.996094.318359 5.685547h4.9941406 4.0019534 5.003906 1l3-3v-15z" fill="#fff"/><path d="m6 2-4 4v16h5.5.7792969 3.4335941.787109 5.5l4-4v-16zm.4140625 1h13.8789065l-2.646485 2.6464844-.353515.3535156h-13.8789065zm14.5859375.7070312v13.8789068l-3 3v-13.8789068l.353516-.3535156zm-18 3.2929688h14v8.154297 5.845703h-4.5-.503906-4.0019534-.4941406-4.5v-5.685547c-.0025961-.023415-.0100042-.044592-.0117188-.068359-.0059105-.081938.0047787-.166107.0117188-.25z" fill="#98989d"/><path d="m9.5 8c-.5020621-.0009123-.984325.2019589-1.3359375.5605469a1.0001 1.0001 0 0 0 -.0351563.0390625l-4.6015624 5.2265626c-.5888078.608233-.6495927 1.528628-.3066407 2.173828.2370348.445937.7172804.716788 1.25.847656a1.0001 1.0001 0 0 0 .5292969.152344h2v4c0 .361473.1270401.703047.3066406 1h4.3867184c.179601-.296953.306641-.638527.306641-1v-4h2a1.0001 1.0001 0 0 0 .527344-.152344c.533535-.130483 1.014639-.401193 1.251953-.847656.342951-.645202.282166-1.565596-.306641-2.173828l-4.601562-5.2265626a1.0001 1.0001 0 0 0 -.035156-.0390625c-.351613-.3585852-.833875-.5614592-1.335938-.5605469z" fill="#fff" fill-opacity=".784314"/><path d="m9.5 9c-.2336134-.0006592-.4575876.0930156-.6210938.2597656l-4.6328124 5.2617184c-.5840377.603306-.053755 1.600935.7734374 1.455078l-.0195312.023438h3v5c0 1 .9455989 1 1.5 1 .554401 0 1.5 0 1.5-1v-5h3l-.019531-.023438c.827197.145857 1.357475-.851772.773437-1.455078l-4.632812-5.2617184c-.1635065-.1667496-.3874806-.2604248-.621094-.2597656z" fill="url(#a)"/></svg>