<svg viewBox="0 0 24 24" xmlns="http://www.w3.org/2000/svg" xmlns:xlink="http://www.w3.org/1999/xlink"><linearGradient id="a" gradientTransform="matrix(.75 0 0 .6779661 .75 .966102)" gradientUnits="userSpaceOnUse" x1="13" x2="13" y1="3" y2="7"><stop offset="0" stop-color="#c7c7cc"/><stop offset="1" stop-color="#8e8e93"/></linearGradient><filter id="b" color-interpolation-filters="sRGB" height="1.094553" width="1.097492" x="-.048746" y="-.047277"><feGaussianBlur stdDeviation=".36559322"/></filter><linearGradient id="c" gradientUnits="userSpaceOnUse" x1="13" x2="13" y1="23" y2="5"><stop offset="0" stop-color="#f2f2f7"/><stop offset=".22222222" stop-color="#f2f2f7"/><stop offset=".83333331" stop-color="#f2f2f7"/><stop offset="1" stop-color="#f2f2f7"/></linearGradient><linearGradient id="d" gradientUnits="userSpaceOnUse" x1="19.5" x2="19.5" y1="21.500002" y2="14.5"><stop offset="0" stop-color="#aeaeb2"/><stop offset=".07142864" stop-color="#e7e7e7"/><stop offset=".07142864" stop-color="#f2f2f7"/><stop offset=".5" stop-color="#f2f2f7"/><stop offset=".93333334" stop-color="#f2f2f7"/><stop offset="1" stop-color="#f2f2f7"/></linearGradient><linearGradient id="e" gradientUnits="userSpaceOnUse" x1="19.428572" x2="19.428572" y1="18.25" y2="21.285715"><stop offset="0" stop-color="#f2f2f7"/><stop offset="1" stop-color="#f2f2f7"/></linearGradient><linearGradient id="f" gradientUnits="userSpaceOnUse" x1="12" x2="12" y1="2" y2="22"><stop offset="0" stop-color="#8e8e93"/><stop offset="1" stop-color="#8e8e93"/></linearGradient><linearGradient id="g" gradientUnits="userSpaceOnUse" x1="63" x2="63" y1="35" y2="20"><stop offset="0" stop-color="#d1d1d6"/><stop offset=".2857143" stop-color="#e5e5ea"/><stop offset="1" stop-color="#f2f2f7"/></linearGradient><path d="m3 4.0000001h18v18.5593219h-18z" filter="url(#b)" opacity=".15" stroke-width="1.015418"/><path d="m3 6h18v15h-18z" fill="url(#g)"/><path d="m3 2c-.554 0-1 .446-1 1v18c0 .554.446 1 1 1h18c.554 0 1-.446 1-1v-18c0-.554-.446-1-1-1zm0 4h18v15h-18z" fill="url(#f)"/><g fill="#aeaeb2"><path d="m10.5 10c-.277 0-.5.223-.5.5v2c0 .277.223.5.5.5h7c.277 0 .5-.223.5-.5v-2c0-.277-.223-.5-.5-.5zm.5 1h6v1h-6z"/><path d="m6.5 10c-.277 0-.5.223-.5.5v2c0 .277.223.5.5.5h2c.277 0 .5-.223.5-.5v-2c0-.277-.223-.5-.5-.5zm.5 1h1v1h-1z"/><path d="m10.5 15c-.277 0-.5.223-.5.5v2c0 .277.223.5.5.5h7c.277 0 .5-.223.5-.5v-2c0-.277-.223-.5-.5-.5zm.5 1h6v1h-6z"/><path d="m6.5 15c-.277 0-.5.223-.5.5v2c0 .277.223.5.5.5h2c.277 0 .5-.223.5-.5v-2c0-.277-.223-.5-.5-.5zm.5 1h1v1h-1z"/></g><path d="m3 3h18v2h-18z" fill="url(#a)" stroke-width=".713074"/><g transform="translate(-2 -1)"><path d="m16 13h7v10h-7z" fill="url(#c)"/><path d="m16 12c-.554 0-1 .446-1 1v10c0 .554.446 1 1 1h7c.554 0 1-.446 1-1v-10c0-.554-.446-1-1-1zm0 1h7v10h-7z" fill="#8e8e93"/><g stroke-width=".607143"><path d="m17 14h5v8h-5z" fill="#8e8e93"/><path d="m17.5 14.5h4v7h-4z" fill="url(#d)"/><path d="m18 16h3v2h-3z" fill="#c7c7cc"/><path d="m18 18h3v3h-3z" fill="url(#e)"/></g></g></svg>