<svg viewBox="0 0 24 24" xmlns="http://www.w3.org/2000/svg" xmlns:xlink="http://www.w3.org/1999/xlink"><linearGradient id="a" gradientUnits="userSpaceOnUse" x1="11.999387" x2="11.999387" xlink:href="#b" y1="21.999737" y2="14.999737"/><linearGradient id="b" gradientTransform="translate(-25.830508 -3.59322)" gradientUnits="userSpaceOnUse" x1="14" x2="13.79661" y1="22" y2="2.135593"><stop offset="0" stop-color="#0040dd"/><stop offset="1" stop-color="#007aff"/></linearGradient><linearGradient id="c" gradientTransform="translate(1)" gradientUnits="userSpaceOnUse" x1="10.999387" x2="10.999387" xlink:href="#b" y1="21.999737" y2="14.999737"/><linearGradient id="d" gradientTransform="matrix(-1 0 0 1 25.006224 0)" gradientUnits="userSpaceOnUse" x1="13.006837" x2="13.006837" xlink:href="#b" y1="21.999737" y2="14.999737"/><path d="m2.5289277 2.5289281h18.9421443v7.9421439h-18.9421443z" fill="#f2f2f7" stroke="#8e8e93" stroke-linecap="round" stroke-linejoin="round" stroke-width="1.057855"/><g transform="translate(-.999387 -.999737)"><path d="m7 18h12v1h-12z" fill="url(#a)"/><path d="m6.484375 15a.50074744.50074744 0 0 0 -.3398438.146484l-2.9921874 3a.50074744.50074744 0 0 0 0 .707032l2.9921874 3a.50074744.50074744 0 0 0 .8554688-.353516v-6a.50074744.50074744 0 0 0 -.515625-.5z" fill="url(#c)"/><path d="m19.521849 15a.50074744.50074744 0 0 1 .339843.146484l2.992188 3a.50074744.50074744 0 0 1 0 .707032l-2.992188 3a.50074744.50074744 0 0 1 -.855468-.353516v-6a.50074744.50074744 0 0 1 .515625-.5z" fill="url(#d)"/></g></svg>