<svg viewBox="0 0 24 24" xmlns="http://www.w3.org/2000/svg" xmlns:xlink="http://www.w3.org/1999/xlink"><linearGradient id="a" gradientTransform="matrix(-1 0 0 1 12.529963 1.998383)" gradientUnits="userSpaceOnUse" x1="8.529866" x2="8.529866" y1="13.501617" y2="5.001617"><stop offset="0" stop-color="#0040dd"/><stop offset="1" stop-color="#0a84ff"/></linearGradient><rect fill="#eaeaea" fill-opacity=".992157" height="1" ry=".411612" transform="matrix(0 -1 -1 0 0 0)" width="2" x="-5" y="-10"/><path d="m4.5157213 7c.1271641.00406.2479969.056449.3378906.1464844l4 3.9999996c.1951841.195265.1951841.511767 0 .707032l-4 4c-.3149974.314778-.8533412.091803-.8535156-.353516v-2.5h-3.50000004c-.2761309-.000028-.4999724-.223869-.5-.5v-2c.0000276-.276131.2238691-.499972.5-.5h3.50000004v-2.5c-.0001088-.2823489.2334131-.5087943.515625-.5z" fill="url(#a)"/><g transform="scale(-1 1)"><rect fill="#98989d" height="1" ry=".5" width="11" x="-21" y="4"/><rect fill="#4b4b4f" height="1" rx=".5" width="11" x="-21" y="8"/><rect fill="#4b4b4f" height="1" rx=".5" ry=".484375" width="11" x="-21" y="14"/><rect fill="#e9e9e9" fill-opacity=".992157" height="1" rx=".5" ry=".25" width="11" x="-21" y="5"/><rect fill="#e9e9e9" fill-opacity=".992157" height="1" rx=".5" width="11" x="-21" y="9"/><rect fill="#e9e9e9" fill-opacity=".992157" height="1" rx=".5" ry=".484375" width="11" x="-21" y="15"/><rect fill="#98989d" height="1" ry=".411612" width="5.999999" x="-8.999999" y="4"/><rect fill="#e9e9e9" fill-opacity=".992157" height="1" rx=".499999" ry=".378466" width="5.999999" x="-8.999999" y="5"/></g><rect fill="#98989d" height="1" ry=".411612" transform="matrix(0 -1 -1 0 0 0)" width="2" x="-4" y="-10"/><rect fill="#4b4b4f" height="1" rx=".5" ry=".484375" transform="scale(-1 1)" width="11" x="-21" y="20"/><rect fill="#e9e9e9" fill-opacity=".992157" height="1" rx=".5" ry=".484375" transform="scale(-1 1)" width="11" x="-21" y="21"/></svg>