<svg viewBox="0 0 24 24" xmlns="http://www.w3.org/2000/svg" xmlns:xlink="http://www.w3.org/1999/xlink"><linearGradient id="a" gradientUnits="userSpaceOnUse" x1="97.932205" x2="97.588573" y1="16.101692" y2="3.999996"><stop offset="0" stop-color="#0040dd"/><stop offset="1" stop-color="#0a84ff"/></linearGradient><path d="m2 2v20h3v-9h8v9h1.099609a1.0001 1.0001 0 0 1 .09766-1.027344l.675781-.912109a1.0001 1.0001 0 0 1 .01367-.01563c.251738-.324983.676748-.575849 1.11328-.650386v-1.445312l-.601562-.16211a1.0001 1.0001 0 0 1 -.726563-1.132812l.988281-5.822266a1.0001 1.0001 0 0 1 .339844-.595703v-8.236328h-3v8h-8v-8z" fill="#4b4b4f"/><path d="m22.588573 11.903133q0 .456035-.301715.751118-.301714.28614-.996571.28614h-3.108572l-.402286 2.333829q.722286-.14307 1.389715-.14307.932571 0 1.645713.28614.722287.277198 1.206858.769001.484572.491803.731429 1.153502.246857.661698.246857 1.421758 0 .947839-.338286 1.734724-.329143.777944-.923428 1.33234-.594286.554396-1.417144.867361-.813714.304024-1.782856.304024-.566857 0-1.078857-.116244-.502857-.116244-.950857-.312966-.448-.196721-.832001-.456036-.374857-.259314-.676571-.545454l.676571-.912072q.228572-.295081.566858-.295081.219429 0 .429714.134128.210285.125186.475428.28614.274286.160953.630857.295082.365714.125186.886858.125186.539428 0 .932571-.178838.402285-.178837.667429-.491802.265143-.312967.393143-.733235.137143-.429209.137143-.929954 0-.947839-.539429-1.466468-.539428-.518629-1.563429-.518629-.411428 0-.832.08047-.420571.07153-.841143.223547l-1.362285-.366616.987429-5.821162h5.942857v.90313z" fill="url(#a)" stroke-width="1.022666"/></svg>