<svg viewBox="0 0 24 24" xmlns="http://www.w3.org/2000/svg" xmlns:xlink="http://www.w3.org/1999/xlink"><linearGradient id="a" gradientUnits="userSpaceOnUse" x1="20.5" x2="20.5" y1="22" y2="13.500001"><stop offset="0" stop-color="#0040dd"/><stop offset="1" stop-color="#007aff"/></linearGradient><path d="m2 2v9.123047 1.640625 3.048828 2.640625 2.380859 1.166016h.1601562 2.8398438v-9h8v9h1.910156.929688.160156v-1.166016-2.380859-2.640625-3.048828-1.640625-9.123047h-3v8h-8v-8z" fill="#48484a"/><path d="m18.467144 16.55963h1.157396q.826712 0 1.225036-.413355.398325-.413356.398325-1.097272 0-.661369-.398325-1.029631-.390809-.368263-1.08224-.368263-.623791 0-1.044663.345716-.420871.3382-.420871.886836h-2.171996q0-.856774.458449-1.533174.465964-.683916 1.292676-1.067209.834227-.383294 1.833796-.383294 1.736094 0 2.720632.834227.984538.826712.984538 2.28473 0 .751556-.458449 1.382863-.458449.631307-1.202489.969507.924414.330684 1.375347.992053.458449.66137.458449 1.563237 0 1.458018-1.067209 2.337338-1.059694.879321-2.810819.879321-1.638392 0-2.683054-.86429-1.037147-.864289-1.037147-2.284729h2.171996q0 .616275.458449 1.007085.465965.390809 1.142365.390809.774102 0 1.210005-.405841.443418-.413355.443418-1.089756 0-1.638391-1.803734-1.638391h-1.149881z" fill="url(#a)" transform="matrix(.97672535 0 0 .97672535 .956358 .382401)"/><path d="m16 13.484375c-.188694.45109-.292969.936067-.292969 1.433594a1.0027625 1.0027625 0 0 0 .292969.710937zm0 5.607422a1.0027625 1.0027625 0 0 0 -.425781.820312c0 .630887.154921 1.233597.425781 1.777344v-.855469z" fill="#f2f2f7" fill-opacity=".784314" transform="matrix(1.00000003 0 0 1.00000003 -.000001 -.000001)"/></svg>