<svg viewBox="0 0 24 24" xmlns="http://www.w3.org/2000/svg" xmlns:xlink="http://www.w3.org/1999/xlink"><filter id="a" color-interpolation-filters="sRGB" height="1.094553" width="1.097492" x="-.048746" y="-.047277"><feGaussianBlur stdDeviation=".36559322"/></filter><linearGradient id="b" gradientUnits="userSpaceOnUse" x1="15" x2="17.000001" y1="7" y2="4.999999"><stop offset="0" stop-color="#f2f2f7"/><stop offset=".77967989" stop-color="#f2f2f7"/><stop offset="1" stop-color="#d1d1d6"/></linearGradient><radialGradient id="c" cx="17" cy="6.555555" gradientTransform="matrix(1.4285714 -.00000006 .00000006 1.4285714 -7.285714 -4.365078)" gradientUnits="userSpaceOnUse" r="7"><stop offset="0" stop-color="#e5e5ea"/><stop offset=".29999998" stop-color="#f2f2f7"/><stop offset="1" stop-color="#f2f2f7"/></radialGradient><path d="m5 19.940678h14v2.559322h-14z" filter="url(#a)" opacity=".15" stroke-width="1.015418"/><path d="m5 3v18h14v-14.2705905l-4-3.7294095z" fill="url(#c)"/><path d="m5 2c-.554 0-1 .446-1 1v18c0 .554.446 1 1 1h14c.554 0 1-.446 1-1v-10.109375-3.6412209-.2079239c0-.4506799.09887-.4265951-.604637-1.0675892l-3.307389-3.2370335c-.709525-.7368575-.711223-.7368575-1.094804-.7368575h-.331557-.661613zm0 1h9v4c0 .554.446 1 1 1h4v13h-14z" fill="#8e8e93"/><path d="m15 7h4l-4-4z" fill="#f2f2f7" fill-rule="evenodd"/><path d="m15 3 4 4h-4z" fill="url(#b)"/><path d="m18 7.984375c-1.468534 0-2.931814.3473694-4.058594 1.0234375s-1.957031 1.7636305-1.957031 2.9921875c0 .425402.207751.799318.384766 1.179688a1.0157478 1.0157478 0 0 0 -.384766.794921v2.025391c0 .438354.211789.80283.386719 1.179688a1.0157478 1.0157478 0 0 0 -.386719.794921v2.025391c0 .762144.305004 1.436724.779297 2h6.236328c.554 0 1-.446 1-1v-10.109375-2.6777344c-.644496-.1469225-1.320429-.2285156-2-.2285156z" fill="#f2f2f7" fill-opacity=".784314"/><g fill="#fc0"><path d="m13 13.974609v2.025391c0 1.656854 2.238576 3 5 3s5-1.343146 5-3v-2.025391c-1.237023 1.483512-2.784273 2.025391-5 2.025391-2.447645 0-3.681267-.674935-5-2.025391z"/><ellipse cx="18" cy="12" rx="5" ry="3"/><path d="m13 17.974609v2.025391c0 1.656854 2.238576 3 5 3s5-1.343146 5-3v-2.025391c-1.237023 1.483512-3 2.025391-5 2.025391s-3.681267-.674935-5-2.025391z"/></g><g fill="#ff9500"><path d="m13 13.974609v2.025391c0 1.656854 2.238576 3 5 3s5-1.343146 5-3v-2.025391c-1.237023 1.483512-2.784273 2.025391-5 2.025391-2.447645 0-3.681267-.674935-5-2.025391zm1.003906 1.923829c1.084008.642805 2.305964 1.105468 3.996094 1.105468 1.543442 0 2.835242-.430894 3.996094-1.097656v.09375c0 .376571-.264802.834662-.976563 1.261719-.711761.427056-1.801487.734375-3.019531.734375s-2.30777-.307319-3.019531-.734375c-.711761-.427057-.976563-.885148-.976563-1.261719z"/><path d="m18 9a5 3 0 0 0 -5 3 5 3 0 0 0 5 3 5 3 0 0 0 5-3 5 3 0 0 0 -5-3zm0 1a4 2 0 0 1 4 2 4 2 0 0 1 -4 2 4 2 0 0 1 -4-2 4 2 0 0 1 4-2z"/><path d="m13 17.974609v2.025391c0 1.656854 2.238576 3 5 3s5-1.343146 5-3v-2.025391c-1.237023 1.483512-2.784273 2.025391-5 2.025391-2.447645 0-3.681267-.674935-5-2.025391zm1.003906 1.923829c1.084008.642805 2.305964 1.105468 3.996094 1.105468 1.543442 0 2.835242-.430894 3.996094-1.097656v.09375c0 .376571-.264802.834662-.976563 1.261719-.711761.427056-1.801487.734375-3.019531.734375s-2.30777-.307319-3.019531-.734375c-.711761-.427057-.976563-.885148-.976563-1.261719z"/></g></svg>