<svg viewBox="0 0 24 24" xmlns="http://www.w3.org/2000/svg" xmlns:xlink="http://www.w3.org/1999/xlink"><filter id="a" color-interpolation-filters="sRGB" height="1.094553" width="1.097492" x="-.048746" y="-.047277"><feGaussianBlur stdDeviation=".36559322"/></filter><path d="m5 19.940678h15v2.559322h-15z" filter="url(#a)" opacity=".15" stroke-width="1.015418"/><path d="m5 3v18h15v-18z" fill="#f2f2f7"/><path d="m5 2c-.554 0-1 .446-1 1v18c0 .554.446 1 1 1h15c.554 0 1-.446 1-1v-18c0-.554-.446-1-1-1zm0 1h15v18h-15zm1.5 2c-.277 0-.5.223-.5.5s.223.5.5.5h11c.277 0 .5-.223.5-.5s-.223-.5-.5-.5zm0 3c-.277 0-.5.223-.5.5s.223.5.5.5h4c.277 0 .5-.223.5-.5s-.223-.5-.5-.5zm0 3c-.277 0-.5.223-.5.5s.223.5.5.5h4c.277 0 .5-.223.5-.5s-.223-.5-.5-.5zm0 4c-.277 0-.5.223-.5.5s.223.5.5.5h11c.277 0 .5-.223.5-.5s-.223-.5-.5-.5zm0 3c-.277 0-.5.223-.5.5s.223.5.5.5h11c.277 0 .5-.223.5-.5s-.223-.5-.5-.5z" fill="#8e8e93"/><path d="m12.5 8c-.276142 0-.5.223858-.5.5s.223858.5.5.5h1c1.209447 0 2.217549.8589244 2.449219 2h-2.341797a.50005.50005 0 0 0 -.113281-.013672.50005.50005 0 0 0 -.347657.859375l3.00586 2.994141a.50005.50005 0 0 0 .707031-.001953l2.994141-2.992188a.50005.50005 0 0 0 -.464844-.845703h-2.429688c-.237582-1.8834003-1.949027-2.95344-3.458984-3z" fill="#d70015"/></svg>