<svg viewBox="0 0 24 24" xmlns="http://www.w3.org/2000/svg" xmlns:xlink="http://www.w3.org/1999/xlink"><linearGradient id="a" gradientUnits="userSpaceOnUse" x1="15" x2="17.000001" y1="7" y2="4.999999"><stop offset="0" stop-color="#fff"/><stop offset=".77967989" stop-color="#f1f1f1"/><stop offset="1" stop-color="#d5d5d5"/></linearGradient><radialGradient id="b" cx="17" cy="6.555555" gradientTransform="matrix(1.4285714 -.00000006 .00000006 1.4285714 -7.285714 -4.365078)" gradientUnits="userSpaceOnUse" r="7"><stop offset="0" stop-color="#d7d7d7"/><stop offset=".29999998" stop-color="#f7f7f7"/><stop offset="1" stop-color="#fff"/></radialGradient><path d="m5 3v18h14v-14.2705905l-4-3.7294095z" fill="url(#b)"/><path d="m5 2c-.554 0-1 .446-1 1v18c0 .554.446 1 1 1h14c.554 0 1-.446 1-1v-10.109375-3.6412209-.2079239c0-.4506799.09887-.4265951-.604637-1.0675892l-3.307389-3.2370335c-.709525-.7368575-.711223-.7368575-1.094804-.7368575h-.331557-.661613zm0 1h9v4c0 .554.446 1 1 1h4v13h-14z" fill="#98989d"/><path d="m15 7h4l-4-4z" fill="#fff" fill-rule="evenodd"/><path d="m15 3 4 4h-4z" fill="url(#a)"/><path d="m18 7.984375c-1.468534 0-2.931814.3473694-4.058594 1.0234375s-1.957031 1.7636305-1.957031 2.9921875c0 .425402.207751.799318.384766 1.179688a1.0157478 1.0157478 0 0 0 -.384766.794921v2.025391c0 .438354.211789.80283.386719 1.179688a1.0157478 1.0157478 0 0 0 -.386719.794921v2.025391c0 .762144.305004 1.436724.779297 2h6.236328c.554 0 1-.446 1-1v-10.109375-2.6777344c-.644496-.1469225-1.320429-.2285156-2-.2285156z" fill="#fff" fill-opacity=".784314"/><g fill="#e4b500"><path d="m13 13.974609v2.025391c0 1.656854 2.238576 3 5 3s5-1.343146 5-3v-2.025391c-1.237023 1.483512-2.784273 2.025391-5 2.025391-2.447645 0-3.681267-.674935-5-2.025391z"/><ellipse cx="18" cy="12" rx="5" ry="3"/><path d="m13 17.974609v2.025391c0 1.656854 2.238576 3 5 3s5-1.343146 5-3v-2.025391c-1.237023 1.483512-3 2.025391-5 2.025391s-3.681267-.674935-5-2.025391z"/></g></svg>