<svg viewBox="0 0 24 24" xmlns="http://www.w3.org/2000/svg" xmlns:xlink="http://www.w3.org/1999/xlink"><filter id="a" color-interpolation-filters="sRGB" height="1.094553" width="1.097492" x="-.048746" y="-.047277"><feGaussianBlur stdDeviation=".36559322"/></filter><linearGradient id="b" gradientUnits="userSpaceOnUse" x1="15" x2="17.000001" y1="7" y2="4.999999"><stop offset="0" stop-color="#fff"/><stop offset=".77967989" stop-color="#f1f1f1"/><stop offset="1" stop-color="#d5d5d5"/></linearGradient><radialGradient id="c" cx="17" cy="6.555555" gradientTransform="matrix(1.4285714 -.00000006 .00000006 1.4285714 -7.285714 -4.365078)" gradientUnits="userSpaceOnUse" r="7"><stop offset="0" stop-color="#d7d7d7"/><stop offset=".29999998" stop-color="#f7f7f7"/><stop offset="1" stop-color="#fff"/></radialGradient><path d="m5 19.940678h14v2.559322h-14z" filter="url(#a)" opacity=".15" stroke-width="1.015418"/><path d="m5 3v18h14v-14.2705905l-4-3.7294095z" fill="url(#c)"/><path d="m5 2c-.554 0-1 .446-1 1v18c0 .554.446 1 1 1h14c.554 0 1-.446 1-1v-10.109375-3.6412209-.2079239c0-.4506799.09887-.4265951-.604637-1.0675892l-3.307389-3.2370335c-.709525-.7368575-.711223-.7368575-1.094804-.7368575h-.331557-.661613zm0 1h9v4c0 .554.446 1 1 1h4v13h-14z" fill="#98989d"/><path d="m15 7h4l-4-4z" fill="#fff" fill-rule="evenodd"/><path d="m15 3 4 4h-4z" fill="url(#b)"/><path d="m20 9a1.6663471 1.6663471 0 0 0 -1.121094.4550781l-7.230468 6.8261719a1.6663471 1.6663471 0 0 0 -.365235.507812l-1.033203 2.216797s-.001953.001953-.001953.001953c-.4805637.642183-.4506029 1.296607-.3808595 1.789063.0599922.423604.1587825.810342.4316405 1.203125h8.701172c.554 0 1-.446 1-1v-10.109375z" fill="#fff" fill-opacity=".784314"/><path d="m20.023437 10.66668-7.22977 6.826302-1.129346 2.420883c-.290506.290127-.147295 1.007368.143211 1.297496l2.467831 1.940335c.145253.145064.837068.2705 1.02663.2705l2.343181-.712149 5.076889-5.511248.671356-3.731186z" fill="none" stroke="#b6496c"/><path d="m16.518661 20.388672 6.495399-6.642082-2.969866-2.406793-6.847606 6.327329z" fill="#e68497"/><path d="m15.06022 22.943155c.189562 0 .367135-.14906.512389-.294137l.957771-2.242768-3.333792-2.739124-.994881 2.211518c-.290506.290127-.290506.756747 0 1.046875l2.266831 1.75112c.145254.145064.40212.266516.591682.266516z" fill="#e7acbc"/><path d="m15.241153 22.93628 2.194847-.654818 4.949484-5.279652.628576-3.25522-6.48368 6.65966z" fill="#ab4263"/><path d="m13.589814 18.034536 6.466301-6.026452 2.633511 2.124432" fill="none" stroke="#f398b3"/></svg>