<svg viewBox="0 0 24 24" xmlns="http://www.w3.org/2000/svg" xmlns:xlink="http://www.w3.org/1999/xlink"><linearGradient id="a" gradientTransform="matrix(0 1 -1 0 13.001749 -6.00206)" gradientUnits="userSpaceOnUse" x1="22.00206" x2="14.00206" y1="7.001749" y2="7.001749"><stop offset="0" stop-color="#0040dd"/><stop offset="1" stop-color="#0a84ff"/></linearGradient><path d="m7.998047 11.482305c-.00404-.12717-.056428-.248012-.146485-.337891l-2.9826257-3.0057904c-.1952066-.195325-.5118244-.195325-.707031 0l-3.0154203 3.0057904c-.31542544.314868-.09217.85389.353515.853516l1.5-.0058v.0078l.00956 3.00587c.00022.544971.454785 1 1 1h1c.545215 0 1.00022-.454543 1-1l-.00956-3.00587v-.002h1.5c.2816438-.000844.5069686-.234121.498047-.515625z" fill="url(#a)"/><g fill="#69696e" transform="scale(-1 1)"><rect height="1" ry=".5" width="19" x="-22" y="2"/><rect height="1" ry=".5" width="13" x="-22" y="10"/><rect height="1" ry=".5" width="19" x="-22" y="18"/><rect height="1" ry=".5" width="13" x="-16" y="21"/><rect height="1" ry=".5" width="7" x="-16" y="13"/><rect height="1" ry=".5" width="13" x="-16" y="5"/></g><g fill="#ebebeb" fill-opacity=".992157" transform="matrix(-1 0 0 1 0 1)"><rect height="1" ry=".5" width="19" x="-22" y="2"/><rect height="1" ry=".5" width="13" x="-22" y="10"/><rect height="1" ry=".398305" width="19" x="-22" y="18"/><rect height="1" ry=".25" width="13" x="-16" y="21"/><rect height="1" ry=".5" width="7" x="-16" y="13"/><rect height="1" ry=".5" width="13" x="-16" y="5"/></g></svg>