<svg viewBox="0 0 24 24" xmlns="http://www.w3.org/2000/svg" xmlns:xlink="http://www.w3.org/1999/xlink"><filter id="a" color-interpolation-filters="sRGB" height="1.5088" width="1.053" x="-.0265" y="-.2544"><feGaussianBlur stdDeviation=".265"/></filter><path d="m3 19.5h18v3h-18z" filter="url(#a)" opacity=".15"/><path d="m2 1v21h20v-21z" fill="#8e8e93"/><path d="m3 2v3h5v-3zm6 0v3h6v-3zm7 0v3h5v-3zm-13 4v3h5v-3zm6 0v3h6v-3zm7 0v3h5v-3zm-13 4v3h5v-3zm6 0v3h6v-3zm7 0v3h5v-3zm-13 4v3h5v-3zm6 0v3h6v-3zm7 0v3h5v-3zm-13 4v3h5v-3zm6 0v3h6v-3zm7 0v3h5v-3z" fill="#f2f2f7"/></svg>