<svg viewBox="0 0 24 24" xmlns="http://www.w3.org/2000/svg" xmlns:xlink="http://www.w3.org/1999/xlink"><linearGradient id="a" gradientTransform="matrix(0 1 -1 0 24 0)" gradientUnits="userSpaceOnUse" x1="21" x2="19" y1="-3.291139" y2="12"><stop offset="0" stop-color="#d7d7d7"/><stop offset=".29999998" stop-color="#f7f7f7"/><stop offset="1" stop-color="#fff"/></linearGradient><path d="m3.5 4c-.831 0-1.5.669-1.5 1.5v13c0 .831.669 1.5 1.5 1.5 5.6538172.00046 11.332647.000027 17 0 .831 0 1.5-.669 1.5-1.5v-13c0-.831-.669-1.5-1.5-1.5zm-.5 1h18v14h-18z" fill="#98989d"/><path d="m21 5h-18v14h18z" fill="url(#a)"/><path d="m5 7h14v2h-14z" fill="#c2c2c4" stroke-width="1.322876"/><g fill="#98989d" transform="translate(0 -1)"><path d="m5 12h1v1h-1z"/><path d="m5 14h1v1h-1z"/><path d="m5 16h1v1h-1z"/><path d="m7 12h12v1h-12z"/><path d="m7 16h7v1h-7z"/><path d="m7 14h9v1h-9z"/></g><path d="m11.941406 9a1.0001 1.0001 0 0 0 -.941406 1v10c2.092579-.000028 4.182218.00005 6.275391 0l4.724609-2.833984v-2.332032l-9.486328-5.6914059a1.0001 1.0001 0 0 0 -.472656-.1425781 1.0001 1.0001 0 0 0 -.09961 0z" fill="#fff" fill-opacity=".784314"/><path d="m12 10v12l10-6z" fill="#4b4b4f"/></svg>