<svg viewBox="0 0 24 24" xmlns="http://www.w3.org/2000/svg" xmlns:xlink="http://www.w3.org/1999/xlink"><linearGradient id="a" gradientUnits="userSpaceOnUse" x1="-9.49844" x2="-29.256416" y1="4.6817" y2="5.113155"><stop offset="0" stop-color="#0040dd"/><stop offset="1" stop-color="#007aff"/></linearGradient><linearGradient id="b" gradientTransform="matrix(0 -1 -1 0 25.014184 15)" gradientUnits="userSpaceOnUse" x1="5.5" x2="5.5" xlink:href="#a" y1="3.999942" y2="23.499943"/><linearGradient id="c" gradientTransform="matrix(0 -1 1 0 -.985758 15)" gradientUnits="userSpaceOnUse" x1="5.5" x2="5.5" xlink:href="#a" y1="22" y2="2.5"/><linearGradient id="d" gradientUnits="userSpaceOnUse" x1="-9.49844" x2="-29.256416" xlink:href="#a" y1="4.6817" y2="5.113155"/><g fill="url(#d)" stroke-linecap="round" stroke-linejoin="round" transform="matrix(0 1 -1 0 28.001638 -.014242)"><path d="m1.014242 9.5078125a.50005.50005 0 0 0 .1464844.3457031l4 4.0000004a.50005.50005 0 0 0 .8535156-.353516v-2.5h3c.545351 0 1-.454649 1-1v-1c0-.5453514-.454649-1-1-1h-3v-2.5a.50005.50005 0 0 0 -.8535156-.3535156l-4 4a.50005.50005 0 0 0 -.1464844.3613281z" fill="url(#c)"/><path d="m23.014184 9.5078125a.50005.50005 0 0 1 -.146484.3457031l-4 4.0000004a.50005.50005 0 0 1 -.853516-.353516v-2.5h-3c-.545351 0-1-.454649-1-1v-1c0-.5453514.454649-1 1-1h3v-2.5a.50005.50005 0 0 1 .853516-.3535156l4 4a.50005.50005 0 0 1 .146484.3613281z" fill="url(#b)"/></g><g fill="#48484a" transform="scale(-1 1)"><rect height=".999999" ry=".5" width="10.000005" x="-13" y="3"/><rect height=".999999" ry=".5" width="10.000002" x="-13" y="17"/><rect height="1" ry=".5" width="10" x="-13" y="19.999998"/><rect height=".999999" ry=".5" width="10" x="-13" y="6"/></g></svg>