<svg viewBox="0 0 24 24" xmlns="http://www.w3.org/2000/svg" xmlns:xlink="http://www.w3.org/1999/xlink"><linearGradient id="a" gradientTransform="translate(1 8)" gradientUnits="userSpaceOnUse" x1="6" x2="6" xlink:href="#d" y1="16" y2="10"/><linearGradient id="b" gradientTransform="translate(1)" gradientUnits="userSpaceOnUse" x1="5" x2="5" xlink:href="#d" y1="8" y2="2"/><linearGradient id="c" gradientTransform="translate(1)" gradientUnits="userSpaceOnUse" x1="6" x2="6" xlink:href="#d" y1="16" y2="10"/><linearGradient id="d" gradientTransform="translate(-25.830508 -3.59322)" gradientUnits="userSpaceOnUse" x1="14" x2="13.79661" y1="22" y2="2.135593"><stop offset="0" stop-color="#0040dd"/><stop offset="1" stop-color="#007aff"/></linearGradient><g fill="#48484a" transform="scale(-1 1)"><rect height="1" ry=".5" width="14.999998" x="-22" y="2"/><rect height="1" ry=".392136" width="15.000005" x="-22" y="10"/><rect height="1" ry=".436441" width="15.000001" x="-22" y="18"/><rect height="1" ry=".5" width="8.999999" x="-16" y="21"/><rect height="1" ry=".5" width="8.999999" x="-16" y="13"/><rect height="1" ry=".5" width="9.000002" x="-16" y="5"/></g><path d="m3 2v1h1v4h-1v1h1 1 1v-1h-1v-4h1v-1h-1-1z" fill="url(#b)"/><path d="m2 10v1h1v4h-1v1h1 1 3v-1h-1v-4h1v-1h-3-1zm2 1h1v4h-1z" fill="url(#c)"/><path d="m0 18v1h1v4h-1v1h1 1 1 2 2v-1h-1v-4h1v-1h-2-2-1-1zm2 1h1v4h-1zm2 0h1v4h-1z" fill="url(#a)"/></svg>