<svg viewBox="0 0 24 24" xmlns="http://www.w3.org/2000/svg" xmlns:xlink="http://www.w3.org/1999/xlink"><filter id="a" color-interpolation-filters="sRGB" height="1.094553" width="1.097492" x="-.048746" y="-.047277"><feGaussianBlur stdDeviation=".36559322"/></filter><linearGradient id="b" gradientUnits="userSpaceOnUse" x1="15" x2="17.000001" y1="7" y2="4.999999"><stop offset="0" stop-color="#fff"/><stop offset=".77967989" stop-color="#f1f1f1"/><stop offset="1" stop-color="#d5d5d5"/></linearGradient><radialGradient id="c" cx="17" cy="6.555555" gradientTransform="matrix(1.4285714 -.00000006 .00000006 1.4285714 -7.285714 -4.365078)" gradientUnits="userSpaceOnUse" r="7"><stop offset="0" stop-color="#d7d7d7"/><stop offset=".29999998" stop-color="#f7f7f7"/><stop offset="1" stop-color="#fff"/></radialGradient><path d="m14 20.940678h8v2.559322h-8z" filter="url(#a)" opacity=".15" stroke-width="1.015418"/><path d="m5 19.940678h14v2.559322h-14z" filter="url(#a)" opacity=".15" stroke-width="1.015418"/><path d="m5 3v18h14v-14.2705905l-4-3.7294095z" fill="url(#c)"/><path d="m5 2c-.554 0-1 .446-1 1v18c0 .554.446 1 1 1h14c.554 0 1-.446 1-1v-10.109375-3.6412209-.2079239c0-.4506799.09887-.4265951-.604637-1.0675892l-3.307389-3.2370335c-.709525-.7368575-.711223-.7368575-1.094804-.7368575h-.331557-.661613zm0 1h9v4c0 .554.446 1 1 1h4v13h-14z" fill="#98989d"/><path d="m15 7h4l-4-4z" fill="#fff" fill-rule="evenodd"/><path d="m15 3 4 4h-4z" fill="url(#b)"/><path d="m11.490234 13.001953a.49960701.49845209 0 0 0 -.492187.505859v1.923829a.49960701.49845209 0 0 0 0 .15039v1.91211a.5.49884417 0 0 0 1 0v-1.0625l.46875.3125c.22942-.278251.525685-.496687.869141-.621094l-.9375-.623047 1.664062-1.105469c.03863-.24896.100796-.488733.183594-.720703.000209-.000588-.00021-.0014 0-.002.08153-.228068.18294-.443198.302734-.650391.0025-.0043.0034-.0094.0059-.01367a.49960701.49845209 0 0 0 -.06836-.002.49960701.49845209 0 0 0 -.267578.08594l-2.220703 1.476562v-1.060547a.49960701.49845209 0 0 0 -.507813-.505859zm-3.0253902.0078a.49960701.49845209 0 0 0 -.4101563.27539l-1.9980469 3.988282a.49960701.49845209 0 1 0 .8925782.443359l.6113281-1.21875h1.1757812l.2792969 1.117187a.49960701.49845209 0 1 0 .96875-.242187l-1-3.986328a.49960701.49845209 0 0 0 -.46875-.376953.49960701.49845209 0 0 0 -.050781 0zm-.1191407 1.923841.140625.566406h-.4257812z" fill="#d70015"/><path d="m18 11c-2.197294 0-4 1.802706-4 4v1c-1.090703 0-2 .909297-2 2v4h7c.554 0 1-.446 1-1v-9.439453c-.59163-.346904-1.269326-.560547-2-.560547z" fill="#fff" fill-opacity=".784314"/><path d="m14 17c-.554 0-1 .446-1 1v4c0 .554.446 1 1 1h8c.554 0 1-.446 1-1v-4c0-.554-.446-1-1-1h-1-1-4-1z" fill="#a48200"/><path d="m14 18h8v4h-8z" fill="#fc0"/><path d="m18 12a3 3 0 0 0 -3 3v2h1v-2a2 2 0 0 1 2-2 2 2 0 0 1 2 2v2h1v-2a3 3 0 0 0 -3-3zm0 2a1 1 0 0 0 -1 1v2h2v-2a1 1 0 0 0 -1-1z" fill="#69696e"/><path d="m18 13c-1.104569 0-2 .895431-2 2v2h4v-2c0-1.104569-.895431-2-2-2zm0 1c.552285 0 1 .447715 1 1v2h-2v-2c0-.552285.447715-1 1-1z" fill="#ebebeb"/><path d="m14 20h8v1h-8z" fill="#a05a00"/></svg>