<svg viewBox="0 0 24 24" xmlns="http://www.w3.org/2000/svg" xmlns:xlink="http://www.w3.org/1999/xlink"><filter id="a" color-interpolation-filters="sRGB" height="1.094553" width="1.097492" x="-.048746" y="-.047277"><feGaussianBlur stdDeviation=".36559322"/></filter><linearGradient id="b" gradientUnits="userSpaceOnUse" x1="9" x2="9" y1="15" y2="10"><stop offset="0" stop-color="#dadada"/><stop offset=".5" stop-color="#fff"/><stop offset="1" stop-color="#fff"/></linearGradient><filter id="c" color-interpolation-filters="sRGB" height="1.071" width="2.278" x="-.639" y="-.0355"><feGaussianBlur stdDeviation=".26625"/></filter><linearGradient id="d" gradientUnits="userSpaceOnUse" x1="15" x2="15" y1="18" y2="1"><stop offset="0" stop-color="#4f4f4f"/><stop offset=".88235295" stop-color="#4f4f4f" stop-opacity=".498039"/><stop offset="1" stop-color="#b7b7b7"/></linearGradient><path d="m6 19.940678h15v2.559322h-15z" filter="url(#a)" opacity=".15" stroke-width="1.015418"/><g transform="translate(2)"><path d="m5 3v18l5-5 2 2 7-6v-9z" fill="#fff"/><circle cx="9.5" cy="7.5" fill="#ffd60a" r="2.5"/><path d="m19 12-7 6-2-2-5 5h14z" fill="#32d74b"/><path d="m5 2c-.554 0-1 .446-1 1v18c0 .554.446 1 1 1h14c.554 0 1-.446 1-1v-18c0-.554-.446-1-1-1zm0 1h14v18h-14z" fill="#929292"/></g><path d="m3 8c-.554 0-1.0105157.4460998-1 1v10l3.1992188 3h9.8007812c.554 0 1-.446 1-1v-12c0-.554-.446-1-1-1z" fill="#3e3e3e"/><g fill="#fff" transform="translate(0 8)"><rect height="6" ry=".280908" width="10" x="4" y="1"/><path d="m6.5 8c-.554 0-1 .446-1 1v3c0 .554.4469243 1.031989 1 1h.5v-4h2v4h3c.554 0 1-.446 1-1v-3c0-.554-.446-1-1-1z" fill="url(#b)"/></g><path d="m7 17h2v1h-2z"/><path d="m14 1h1v15.428571h-1z" fill="url(#d)" filter="url(#c)" transform="matrix(1 0 0 .77777778 .5 8.222222)"/><path d="m16 1h1.237288v10.928571h-1.237288z" fill="url(#d)" filter="url(#c)" transform="matrix(1 0 0 .77777778 -13.237288 8.222222)"/><path d="m6 13h6v1h-6z" fill="#bababa"/><path d="m6 11h6v1h-6z" fill="#bababa"/><path d="m6 9h6v1h-6z" fill="#0a84ff"/></svg>