<svg viewBox="0 0 24 24" xmlns="http://www.w3.org/2000/svg" xmlns:xlink="http://www.w3.org/1999/xlink"><linearGradient id="a"><stop offset="0" stop-color="#c93400"/><stop offset="1" stop-color="#ff9f0a" stop-opacity=".74031"/></linearGradient><linearGradient id="b" gradientUnits="userSpaceOnUse" x1="46.035322" x2="46.035322" y1="14.337162" y2="-1.662838"><stop offset="0" stop-color="#f2f2f7"/><stop offset=".25" stop-color="#e5e5ea"/><stop offset="1" stop-color="#f2f2f7"/></linearGradient><linearGradient id="c" gradientUnits="userSpaceOnUse" x1="93" x2="93" y1="15" y2="4"><stop offset="0" stop-color="#0040dd"/><stop offset="1" stop-color="#007aff"/></linearGradient><linearGradient id="d" gradientUnits="userSpaceOnUse" x1="21" x2="21" xlink:href="#a" y1="6" y2="2"/><linearGradient id="e" gradientUnits="userSpaceOnUse" x1="4" x2="4" xlink:href="#a" y1="6" y2="2"/><linearGradient id="f" gradientUnits="userSpaceOnUse" x1="4" x2="4" xlink:href="#a" y1="22" y2="18"/><path d="m4 4v7.837891 8.162109h8.597656 8.402344v-7.837891-8.162109h-8.597656z" fill="url(#b)"/><path d="m4 3c-.554 0-1 .446-1 1v7.095703 8.904297c0 .554.446 1 1 1h9.185547 7.814453c.554 0 1-.446 1-1v-7.095703-8.904297c0-.554-.446-1-1-1h-9.185547zm0 1h8.402344 8.597656v8.162109 7.837891h-8.402344-8.597656v-8.162109z" fill="#8e8e93"/><g fill="#f2f2f7"><path d="m3 3h2v2h-2z"/><path d="m20 3h2v2h-2z"/><path d="m3 19h2v2h-2z"/></g><g fill="#4d82b8"><path d="m17.970703 9.5117188a.98987088.98987088 0 0 0 -.576172.2050781l-3.332031 2.5703121a.98987088.98987088 0 0 0 0 1.566407l3.332031 2.574218a.98987088.98987088 0 0 0 1.595703-.783203v-.304687c.753289.398258 1.351563 1.052577 1.351563 2.015625 0 1.374187-1.052536 2.439453-2.341797 2.439453s-2.341797-1.065266-2.341797-2.439453a.98987088.98987088 0 0 0 0-.002c-.0019-.993622-.817775-1.845947-1.828125-1.84375h-.002c-1.007192.0026-1.81648.853299-1.818359 1.84375a.98987088.98987088 0 0 0 0 .002c0 .03317.0037.07311.0059.111328.02288 1.318323.462018 2.537781 1.183594 3.533203h7.800787c.554 0 1-.446 1-1v-7.078125c-.8321-.749885-1.861868-1.28509-3.009766-1.490234v-.931641a.98987088.98987088 0 0 0 -1.019531-.9882812z" fill="#f2f2f7" fill-opacity=".784314"/><path d="m18.000047 10.500002v1.714844c2.761974 0 4.999953 2.300623 4.999953 5.140623 0 2.839999-2.237979 5.144531-4.999953 5.144531-2.733975 0-4.952047-2.258594-4.996047-5.058593-.0028-.02856-.004-.05724-.004-.08594.000896-.47224.372945-.854772.832024-.855468.460603-.0015.835032.38166.835928.855468 0 1.894 1.492018 3.429687 3.332001 3.429687s3.332-1.535687 3.332-3.429687-1.492017-3.42578-3.332-3.42578v1.714844l-3.332001-2.574219 3.332001-2.570312z" fill="url(#c)"/><path d="m20 2c-.554 0-1 .446-1 1v2c0 .554.446 1 1 1h2c.554 0 1-.446 1-1v-2c0-.554-.446-1-1-1zm0 1h2v2h-2z" fill="url(#d)"/><path d="m3 2c-.554 0-1 .446-1 1v2c0 .554.446 1 1 1h2c.554 0 1-.446 1-1v-2c0-.554-.446-1-1-1zm0 1h2v2h-2z" fill="url(#e)"/><path d="m3 18c-.554 0-1 .446-1 1v2c0 .554.446 1 1 1h2c.554 0 1-.446 1-1v-2c0-.554-.446-1-1-1zm0 1h2v2h-2z" fill="url(#f)"/></g></svg>