<svg viewBox="0 0 24 24" xmlns="http://www.w3.org/2000/svg" xmlns:xlink="http://www.w3.org/1999/xlink"><linearGradient id="a" gradientTransform="translate(-20.915254 -9.220339)" gradientUnits="userSpaceOnUse" x1="7.639196" x2="8.022712" y1="12.711522" y2="3.286795"><stop offset="0" stop-color="#0040dd"/><stop offset="1" stop-color="#0a84ff"/></linearGradient><linearGradient id="b" gradientUnits="userSpaceOnUse" x1="8" x2="8" xlink:href="#a" y1="21" y2="15"/><linearGradient id="c" gradientUnits="userSpaceOnUse" x1="8" x2="8" xlink:href="#a" y1="9" y2="3"/><path d="m21 2v5h-7v-5zm-1 1h-5v3h5zm1 6v6h-7v-6zm-1 1h-5v4h5zm1 7v5h-7v-5zm-1 1h-5v3h5z" fill="#98989d"/><path d="m20 3v3h-5v-3zm0 7v4h-5v-4zm0 8v3h-5v-3z" fill="#fff"/><path d="m6 15c-.554 0-1 .446-1 1v4c0 .554.446 1 1 1h5c.554 0 1-.446 1-1s-.446-1-1-1h-4v-3c0-.554-.446-1-1-1z" fill="url(#b)"/><path d="m3 11h6v2h-6z" fill="#d70015"/><path d="m6 3c-.554 0-1 .446-1 1v4c0 .554.446 1 1 1s1-.446 1-1v-3h4c.554 0 1-.446 1-1s-.446-1-1-1z" fill="url(#c)"/></svg>