<svg viewBox="0 0 24 24" xmlns="http://www.w3.org/2000/svg" xmlns:xlink="http://www.w3.org/1999/xlink"><filter id="a" color-interpolation-filters="sRGB" height="1.094553" width="1.097492" x="-.048746" y="-.047277"><feGaussianBlur stdDeviation=".36559322"/></filter><linearGradient id="b" gradientUnits="userSpaceOnUse" x1="12" x2="12" y1="2" y2="22"><stop offset="0" stop-color="#848489"/><stop offset="1" stop-color="#616165"/></linearGradient><linearGradient id="c" gradientUnits="userSpaceOnUse" x1="63" x2="63" y1="35" y2="20"><stop offset="0" stop-color="#e9e9e9"/><stop offset=".2857143" stop-color="#f2f2f2"/><stop offset="1" stop-color="#fbfbfb"/></linearGradient><path d="m3 3.5 18-.5v19l-18 .5z" filter="url(#a)" opacity=".15" stroke-width="1.015418"/><path d="m3 6h18v15h-18z" fill="url(#c)"/><path d="m3 2c-.554 0-1 .446-1 1v18c0 .554.446 1 1 1h18c.554 0 1-.446 1-1v-18c0-.554-.446-1-1-1zm0 4h18v15h-18z" fill="url(#b)"/><g fill="#98989d"><path d="m10.5 10c-.277 0-.5.223-.5.5v2c0 .277.223.5.5.5h7c.277 0 .5-.223.5-.5v-2c0-.277-.223-.5-.5-.5zm.5 1h6v1h-6z"/><path d="m6.5 10c-.277 0-.5.223-.5.5v2c0 .277.223.5.5.5h2c.277 0 .5-.223.5-.5v-2c0-.277-.223-.5-.5-.5zm.5 1h1v1h-1z"/><path d="m10.5 15c-.277 0-.5.223-.5.5v2c0 .277.223.5.5.5h7c.277 0 .5-.223.5-.5v-2c0-.277-.223-.5-.5-.5zm.5 1h6v1h-6z"/><path d="m6.5 15c-.277 0-.5.223-.5.5v2c0 .277.223.5.5.5h2c.277 0 .5-.223.5-.5v-2c0-.277-.223-.5-.5-.5zm.5 1h1v1h-1z"/></g><path d="m11 12c-1.0939641 0-1.8970381.938198-1.9941406 1.900391-.0036096.033085-.0055652.066329-.0058594.099609v2 1 5h12c.554 0 1-.446 1-1v-9z" fill="#fff" fill-opacity=".784314"/><path d="m10 16h13v7h-13z" fill="#6b6b70" fill-opacity=".996078"/><path d="m11 13.5h11v10h-11z" filter="url(#a)" opacity=".15" stroke-width="1.015418"/><path d="m11 16h11v6h-11z" fill="#fff"/><path d="m11 14h11v2h-11z" fill="#a2a2a7"/><path d="m16 16h1v6h-1z" fill="#fff"/><path d="m11 19h11v1h-11z" fill="#fff"/><path d="m16 17v2h-5v1h5v2h1v-2h5v-1h-5v-2z" fill="#bababa"/><path d="m11 13c-.554 0-1 .446-1 1v2 1h1 11 1v-1-2c0-.554-.446-1-1-1zm0 1h5v2h-5zm6 0h5v2h-5z" fill="#6b6b70" fill-opacity=".998039"/></svg>