<svg viewBox="0 0 24 24" xmlns="http://www.w3.org/2000/svg" xmlns:xlink="http://www.w3.org/1999/xlink"><linearGradient id="a" gradientUnits="userSpaceOnUse" x1="12.427841" x2="12.405283" y1="16.718594" y2="8.198279"><stop offset="0" stop-color="#0040dd"/><stop offset="1" stop-color="#007aff"/></linearGradient><path d="m8 8h8c.554 0 1 .446 1 1v7c0 .554-.446 1-1 1h-8c-.554 0-1-.446-1-1v-7c0-.554.446-1 1-1z" fill="url(#a)"/><g fill="#48484a"><rect height="1" ry=".446068" width="20" x="2" y="3"/><rect height="1" ry=".446068" width="20" x="2" y="6"/><rect height="1" ry=".446068" width="20" x="2" y="21"/><rect height="1" ry=".410114" width="4" x="2" y="15"/><rect height="1" ry=".446068" width="4" x="2" y="12"/><rect height="1" ry=".446068" width="4" x="2" y="9"/><rect height="1" ry=".410114" width="4" x="18" y="15"/><rect height="1" ry=".446068" width="4" x="18" y="12"/><rect height="1" ry=".446068" width="4" x="18" y="9"/><rect height="1" ry=".271186" width="20" x="2" y="18"/></g></svg>