<svg viewBox="0 0 16 16" xmlns="http://www.w3.org/2000/svg"><path d="m1 4v9h12l1.5-5-2-4z" fill="#fff"/><path d="m8.3535534.5753788-9.5459416 9.5459412 7.7781746 7.778175 9.8994946-9.899495-2.828427-5.6568542zm0 1.4142136 4.2426406 1.4142135 2.474874 4.5961941-8.4852816 8.485281-6.363961-6.363961z" fill="#98989d" transform="matrix(.70710678 .70710678 -.70710678 .70710678 8 -3.313708)"/><path d="m11 6a2 2 0 0 0 -2 2 2 2 0 0 0 2 2 2 2 0 0 0 2-2 2 2 0 0 0 -2-2zm0 1a1 1 0 0 1 1 1 1 1 0 0 1 -1 1 1 1 0 0 1 -1-1 1 1 0 0 1 1-1z" fill="#4b4b4f"/><g fill="#bababa"><path d="m2 6h6v1h-6z"/><path d="m2 8h6v1h-6z"/><path d="m2 10h6v1h-6z"/></g></svg>