<svg viewBox="0 0 16 16" xmlns="http://www.w3.org/2000/svg" xmlns:xlink="http://www.w3.org/1999/xlink"><linearGradient id="a" gradientTransform="matrix(0 -1.000071 -.99880824 0 16.983287 10.007226)" gradientUnits="userSpaceOnUse" x1="1.007155" x2="10.006516" y1="9.995199" y2="9.995199"><stop offset="0" stop-color="#0040dd"/><stop offset="1" stop-color="#0a84ff"/></linearGradient><g fill="#4b4b4f"><rect height="1" ry=".47603" width="14" x="1" y="12"/><rect height="1" ry=".5" width="8" x="1" y="14"/></g><g fill="#e9e9e9" fill-opacity=".992157"><rect height="1" ry=".47603" width="14" x="1" y="13"/><rect height="1" ry=".5" width="8" x="1" y="15"/></g><path d="m7.4921875 8.999941c-.1298869-.0021-.2538701-.05461-.3457031-.146484l-3-3c-.3147787-.314997-.0918033-.853342.3535156-.853516h1.5v-3.4999997c.0000276-.276131.2238691-.499972.5-.5h2c.2761309.000028.4999724.223869.5.5v3.4999997h1.5c.445319.000174.668295.538519.353516.853516l-3.0000004 3c-.095662.09571-.2260267.148556-.3613281.146484z" fill="url(#a)" stroke-linecap="round" stroke-linejoin="round"/></svg>