<svg viewBox="0 0 16 16" xmlns="http://www.w3.org/2000/svg" xmlns:xlink="http://www.w3.org/1999/xlink"><linearGradient id="a" gradientUnits="userSpaceOnUse" x1="8" x2="8" y1="16" y2="7"><stop offset="0" stop-color="#0040dd"/><stop offset="1" stop-color="#0a84ff"/></linearGradient><path d="m7.4921875 7a.50005.50005 0 0 0 -.3457031.1464844l-4 3.9999996a.50005.50005 0 0 0 .3535156.853516h2.5v3.5a.50005.50005 0 0 0 .5.5h2a.50005.50005 0 0 0 .5-.5v-3.5h2.5a.50005.50005 0 0 0 .353516-.853516l-4.0000004-3.9999996a.50005.50005 0 0 0 -.3613281-.1464844z" fill="url(#a)"/><g fill="#4b4b4f"><rect height="1" ry=".5" width="14" x="1" y="2"/><rect height="1" ry=".47603" width="8" x="1" y="4"/></g><g fill="#e9e9e9" fill-opacity=".992157"><rect height="1" ry=".5" width="14" x="1" y="3"/><rect height="1" ry=".47603" width="8" x="1" y="5"/></g></svg>