<svg viewBox="0 0 16 16" xmlns="http://www.w3.org/2000/svg" xmlns:xlink="http://www.w3.org/1999/xlink"><linearGradient id="a" gradientUnits="userSpaceOnUse" x1="2.629941" x2="2.753574" xlink:href="#b" y1="12.938183" y2="10.061817"/><linearGradient id="b" gradientTransform="translate(-25.830508 -3.59322)" gradientUnits="userSpaceOnUse" x1="14" x2="13.79661" y1="22" y2="2.135593"><stop offset="0" stop-color="#0040dd"/><stop offset="1" stop-color="#007aff"/></linearGradient><linearGradient id="c" gradientUnits="userSpaceOnUse" x1="2.486123" x2="2.32212" xlink:href="#b" y1="4.938183" y2="2.061817"/><linearGradient id="d" gradientUnits="userSpaceOnUse" x1="10" x2="10" y1="16" y2="-2"><stop offset="0" stop-color="#f2f2f7"/><stop offset=".22222222" stop-color="#f2f2f7"/><stop offset=".83333331" stop-color="#f2f2f7"/><stop offset="1" stop-color="#f2f2f7"/></linearGradient><linearGradient id="e" gradientTransform="matrix(1 0 0 .53846154 -6 5.307692)" gradientUnits="userSpaceOnUse" x1="12" x2="12" y1="18" y2="5"><stop offset="0" stop-color="#aeaeb2"/><stop offset=".15476191" stop-color="#e7e7e7"/><stop offset=".15476191" stop-color="#f2f2f7"/><stop offset=".5" stop-color="#f2f2f7"/><stop offset=".85714287" stop-color="#f2f2f7"/><stop offset="1" stop-color="#f2f2f7"/></linearGradient><linearGradient id="f" gradientTransform="matrix(1 0 0 .39999999 -6 6.7)" gradientUnits="userSpaceOnUse" x1="12" x2="12" y1="12" y2="18.250002"><stop offset="0" stop-color="#f2f2f7"/><stop offset="1" stop-color="#f2f2f7"/></linearGradient><g fill="#48484a"><rect height="1" ry=".5" transform="scale(-1 1)" width="10" x="-15" y="2"/><rect height="1" ry=".5" transform="scale(-1 1)" width="6.000002" x="-11" y="5"/><path d="m5.5 10c-.277 0-.5.223-.5.5s.223.5.5.5h3.5v-1z"/><path d="m5.5 13c-.277 0-.5.223-.5.5s.223.5.5.5h3.5v-1z"/></g><g transform="translate(8)"><path d="m2 8h6v8h-6z" fill="url(#d)"/><path d="m2 7h6v9h-6z" fill="#8e8e93" stroke-width=".774597"/><path d="m3 8h4v7h-4z" fill="url(#e)" stroke-width=".733799"/><path d="m4 9h2v2.5h-2z" fill="#c7c7cc" stroke-width=".912871"/><path d="m4 11.5h2v2.5h-2z" fill="url(#f)" stroke-width=".632456"/></g><path d="m4 3.5a1.5 1.5 0 0 1 -1.5 1.5 1.5 1.5 0 0 1 -1.5-1.5 1.5 1.5 0 0 1 1.5-1.5 1.5 1.5 0 0 1 1.5 1.5z" fill="url(#c)"/><path d="m4 11.5a1.5 1.5 0 0 1 -1.5 1.5 1.5 1.5 0 0 1 -1.5-1.5 1.5 1.5 0 0 1 1.5-1.5 1.5 1.5 0 0 1 1.5 1.5z" fill="url(#a)"/></svg>