<svg viewBox="0 0 16 16" xmlns="http://www.w3.org/2000/svg"><path d="m-1.7157707 13.220339h-18.6328123v-2.597656l9.84375-10.93750043q2.1874998-2.48046877 3.0078123-4.02343747.8398437-1.5625.8398437-3.2226563 0-2.2265625-1.3476562-3.6523438-1.3476563-1.425781-3.5937498-1.425781-2.695313 0-4.199219 1.542969-1.484375 1.5234371-1.484375 4.2578121h-3.613281q0-3.9257811 2.519531-6.3476561 2.539063-2.421875 6.777344-2.421875 3.9648435 0 6.269531 2.089844 2.3046875 2.070312 2.3046875 5.5273433 0 4.1992188-5.3515625 10l-7.617187 8.2617187h14.2773433z" fill="#48484a" transform="matrix(.48563114 0 0 .48563114 15.833232 8.579792)"/><path d="m1 7h5v2h-5z" fill="#ff3b30"/></svg>