<svg viewBox="0 0 16 16" xmlns="http://www.w3.org/2000/svg" xmlns:xlink="http://www.w3.org/1999/xlink"><linearGradient id="a" gradientUnits="userSpaceOnUse" x1="6.025425" x2="6.635594" y1=".771187" y2="15.567797"><stop offset="0" stop-color="#e5e5ea"/><stop offset="1" stop-color="#f2f2f7"/></linearGradient><g transform="matrix(1 0 0 -1 0 16)"><path d="m2.5.5v15h11v-11.5l-3.5-3.5z" fill="url(#a)"/><path d="m2.5 0a.50001098.50001098 0 0 0 -.5.5v15a.50001098.50001098 0 0 0 .5.5h11a.50001098.50001098 0 0 0 .5-.5v-11.5a.50001098.50001098 0 0 0 -.146484-.3535156l-3.5-3.50000002a.50001098.50001098 0 0 0 -.353516-.14648438zm.5 1h6.7929688l3.2070312 3.2070312v10.7929688h-10z" fill="#007aff"/></g><path d="m9 11v4h1v-3h3v-1h-3z" fill="#007aff"/></svg>