<svg viewBox="0 0 16 16" xmlns="http://www.w3.org/2000/svg" xmlns:xlink="http://www.w3.org/1999/xlink"><linearGradient id="a" gradientTransform="translate(-29.694915 1.220339)" gradientUnits="userSpaceOnUse" x1="14" x2="13.79661" y1="22" y2="2.135593"><stop offset="0" stop-color="#0040dd"/><stop offset="1" stop-color="#007aff"/></linearGradient><linearGradient id="b" gradientUnits="userSpaceOnUse" x1="12.508474" x2="12.5" xlink:href="#a" y1="16.042374" y2="11"/><linearGradient id="c" gradientUnits="userSpaceOnUse" x1="3.516821" x2="3.5" xlink:href="#a" y1="16.016821" y2="11"/>








     /&amp;amp;amp;amp;gt;
 <path d="m4.0117188 0c-.5773501 1-.8781313 1-.3007813 2l3.5410156 6.140625-2.0566406 3.525391c.387581.357618.6521469.828641.7558594 1.345703l1.1621093-2.013672c.7804192-.01.8787974-.774603 1.3339844-.785156l1.6035154 2.78125c-.0023.01134-.0017.02375-.0039.03516.101315-.527403.369773-1.008161.765625-1.371094l-2.0527404-3.517582 3.5410154-6.140625c.57735-1 .276569-1-.300781-2l-3.9941406 6.8476562zm3.9882812 8c.277 0 .5.223.5.5s-.223.5-.5.5-.5-.223-.5-.5.223-.5.5-.5z" fill="#8e8e93"/><g fill="#007aff"><path d="m3.5 11a2.5 2.5 0 0 0 -2.5 2.5 2.5 2.5 0 0 0 2.5 2.5 2.5 2.5 0 0 0 2.5-2.5 2.5 2.5 0 0 0 -2.5-2.5zm0 1a1.5 1.5 0 0 1 1.5 1.5 1.5 1.5 0 0 1 -1.5 1.5 1.5 1.5 0 0 1 -1.5-1.5 1.5 1.5 0 0 1 1.5-1.5z" fill="url(#c)"/><path d="m12.5 11a2.5 2.5 0 0 0 -2.5 2.5 2.5 2.5 0 0 0 2.5 2.5 2.5 2.5 0 0 0 2.5-2.5 2.5 2.5 0 0 0 -2.5-2.5zm0 1a1.5 1.5 0 0 1 1.5 1.5 1.5 1.5 0 0 1 -1.5 1.5 1.5 1.5 0 0 1 -1.5-1.5 1.5 1.5 0 0 1 1.5-1.5z" fill="url(#b)"/></g></svg>