<svg viewBox="0 0 16 16" xmlns="http://www.w3.org/2000/svg" xmlns:xlink="http://www.w3.org/1999/xlink"><linearGradient id="a" gradientTransform="matrix(.70710678 -.70710678 .70710678 .70710678 .41174 9.293314)" gradientUnits="userSpaceOnUse" x1="12.5" x2="12.478516" y1="8" y2=".990234"><stop offset="0" stop-color="#0040dd"/><stop offset="1" stop-color="#0a84ff"/></linearGradient><g fill="#fff"><path d="m2.997793 0h12.004414c.552777 0 .997793.446.997793 1v12c0 .554-.445016 1-.997793 1h-12.004414c-.5527773 0-.997793-.446-.997793-1v-12c0-.554.4450157-1 .997793-1z" fill="#98989d" stroke-linecap="square" stroke-linejoin="round"/><path d="m3 1h12v12h-12z"/><path d="m.99779302 3h11.00441398c.552777 0 .997793.446.997793 1v11c0 .554-.445016 1-.997793 1h-11.00441398c-.55277733 0-.99779302-.446-.99779302-1v-11c0-.554.44501569-1 .99779302-1z" fill="#98989d" stroke-linecap="square" stroke-linejoin="round"/><path d="m1 4h11v11h-11z"/></g><path d="m2.5 13.5-.0330869-.59841 2.5330869-2.90159 2 1.593356 2-2.593356 1.5 3v1.5z" fill="#32d74b" fill-rule="evenodd" stroke="#28cd41"/><path d="m10 1a1.0001 1.0001 0 0 0 -.6875 1.7246094l.978516.9277344-1.3945316 1.3964843-.7089844.7089844a1.0001 1.0001 0 0 0 0 1.4140625l.7089844.7089844a1.0001 1.0001 0 0 0 1.4140626 0l.707031-.7070313.002-.00195 1.394484-1.3945343.859376.9101562a1.0001 1.0001 0 0 0 1.726562-.6875v-4a1.0001 1.0001 0 0 0 -1-1z" fill="#fff" fill-opacity=".784314"/><path d="m10 2 1.722656 1.6347656-2.1191404 2.1210938-.7089844.7089844.7089844.7089843.7070314-.7070312.001953-.0019531 2.123047-2.1210938 1.564453 1.65625v-4z" fill="url(#a)"/><path d="m6.5 7a1.5 1.5 0 0 1 -1.5 1.5 1.5 1.5 0 0 1 -1.5-1.5 1.5 1.5 0 0 1 1.5-1.5 1.5 1.5 0 0 1 1.5 1.5z" fill="#ffd307" stroke="#fc0" stroke-linecap="round" stroke-linejoin="round"/></svg>