<svg viewBox="0 0 16 16" xmlns="http://www.w3.org/2000/svg" xmlns:xlink="http://www.w3.org/1999/xlink"><linearGradient id="a" gradientUnits="userSpaceOnUse" x1="11" x2="12.35894" y1="7.000001" y2="5.689751"><stop offset="0" stop-color="#f2f2f7"/><stop offset=".63984942" stop-color="#f2f2f7"/><stop offset="1" stop-color="#d1d1d6"/></linearGradient><radialGradient id="b" cx="13" cy="6.227273" gradientTransform="matrix(1.75 0 0 1.7499999 -9.75 -5.897727)" gradientUnits="userSpaceOnUse" r="4"><stop offset="0" stop-color="#e5e5ea"/><stop offset=".5" stop-color="#f2f2f7"/><stop offset="1" stop-color="#f2f2f7"/></radialGradient>






     /&amp;amp;gt;
 <g transform="translate(-4 -3)"><path d="m6 4h4l4 3.3821361v7.6178639h-8z" fill="url(#b)"/><path d="m6 3c-.554 0-1 .446-1 1v11c0 .554.446 1 1 1h8c.554 0 1-.446 1-1v-7.9980469l-4.001953-4.0019531zm0 1h4v3.0019531c0 .5527773.44527.9980469.998047.9980469h3.001953v7h-8zm5 .4160156 2.583984 2.5839844h-2.583984z" fill="#8e8e93"/><path d="m11 4.414063 2.585938 2.585938h-2.585938z" fill="url(#a)"/></g><path d="m6 4h4l4 3.3821361v7.6178639h-8z" fill="url(#b)"/><path d="m6 3c-.554 0-1 .446-1 1v11c0 .554.446 1 1 1h8c.554 0 1-.446 1-1v-7.9980469l-4.001953-4.0019531zm0 1h4v3.0019531c0 .5527773.44527.9980469.998047.9980469h3.001953v7h-8zm5 .4160156 2.583984 2.5839844h-2.583984z" fill="#8e8e93"/><path d="m11 4.414063 2.585938 2.585938h-2.585938z" fill="url(#a)"/></svg>