<svg viewBox="0 0 16 16" xmlns="http://www.w3.org/2000/svg" xmlns:xlink="http://www.w3.org/1999/xlink"><filter id="a" color-interpolation-filters="sRGB" height="1.094553" width="1.097492" x="-.048746" y="-.047277"><feGaussianBlur stdDeviation=".36559322"/></filter><linearGradient id="b" gradientTransform="matrix(.70710678 .70710678 -.70710678 .70710678 11.096194 -1.253048)" gradientUnits="userSpaceOnUse" x1="10.717514" x2="5.767767" y1="8.025127" y2="3.075378"><stop offset="0" stop-color="#0040dd"/><stop offset="1" stop-color="#0a84ff"/></linearGradient><radialGradient id="c" cx="10.994179" cy="4.42844" gradientTransform="matrix(1.4 .00000004 -.00000001 1.2 -4.39185 -2.314129)" gradientUnits="userSpaceOnUse" r="5"><stop offset="0" stop-color="#d7d7d7"/><stop offset=".49894297" stop-color="#f7f7f7"/><stop offset="1" stop-color="#fff"/></radialGradient><linearGradient id="d" gradientUnits="userSpaceOnUse" x1="9" x2="10.500001" y1="5.5" y2="3.999999"><stop offset="0" stop-color="#fff"/><stop offset=".77967989" stop-color="#f1f1f1"/><stop offset="1" stop-color="#d5d5d5"/></linearGradient><linearGradient id="e" gradientUnits="userSpaceOnUse" x1="8" x2="8" y1="4" y2="14"><stop offset="0" stop-color="#68caf8"/><stop offset=".5" stop-color="#70cef9"/><stop offset=".71428573" stop-color="#79d3fb"/><stop offset=".9285714" stop-color="#67c1ed"/><stop offset="1" stop-color="#67bfea"/></linearGradient>







     /&amp;amp;amp;amp;amp;amp;amp;gt;
 <g fill-rule="evenodd"><path d="m1 14h12v1.5h-12z" filter="url(#a)" opacity=".15" stroke-width="1.015418"/><path d="m3.5 2.5000002c.265199.0000511.519519.1054326.707031.2929688l3.207031 1.7070312 5.085938-.0000004c.552262.0000552.999945.4477381 1 1.0000002v9h-1-12v-8.5-2.5c.000055-.5522619.447738-.9999448 1-1z" fill="#94ddff" stroke="#2bbcff"/><path d="m.5 14.5h1 12v-7c.29761-.9920364-1.78201-.9921875-.742188-.9921875h-.002-1-1-8.9785156c-1.02113938 0-1.02076208-.0005516-1.27924988.9902344z" fill="url(#e)" stroke="#15b0f5"/><path d="m11 7h4v1.5h-4z" filter="url(#a)" opacity=".15" stroke-width="1.015418"/></g><g transform="matrix(.4 0 0 .4 10.4 0)"><path d="m1.5 2.5v15h10v-13.5449219l-1.195312-1.4550781z" fill="url(#c)"/><path d="m.5 0c-.554 0-1.5.446-1.5 1v17.75c0 .554.696 1.25 1.25 1.25h12.5c.554 0 1.25-.696 1.25-1.25v-14.25-.8632812l-3.636719-3.6367188h-.863281zm1 2.5h5v4.5c0 .277.223.5.5.5h4.5v10h-10zm6 0 4 .25z" fill="#98989d"/><path d="m9 2.5 3 3h-3z" fill="url(#d)"/></g><g transform="translate(1 -1)"><path d="m9.7421875 4.9980469c-.37266 0-.7548267.1474048-1.0371094.4296875l-2.1425781 2.1425781-1.0839844-1.0839844c-.4079896-.4081869-1.0686169-.5398116-1.6015625-.3183593-.5329455.2214522-.9057279.7822528-.9042969 1.359375v4.9472652a.96696258.96696258 0 0 0 0 .002c.00164.766517.6983276 1.463205 1.4648438 1.464844a.96696258.96696258 0 0 0 .00195 0h4.9472657c.5771212.0014 1.1379233-.371352 1.3593753-.904297.221452-.532944.08983-1.193572-.31836-1.601562l-1.083981-1.084032 2.142578-2.1425776c.562713-.5627118.562713-1.511507 0-2.0742188l-.707031-.7070312c-.282283-.2822835-.664449-.4296878-1.0371095-.4296875z" fill="#fff" fill-opacity=".784314"/><path d="m10.742188 4.9648438c-.12781 0-.255582.04855-.353516.1464843l-2.826172 2.8261719-1.7675781-1.7675781a.50107274.50107274 0 0 0 -.8554688.3554687v4.9492184a.50107274.50107274 0 0 0 .5.5h4.9492189a.50107274.50107274 0 0 0 .355469-.855468l-1.7675785-1.7675785 2.8261715-2.8261719c.195869-.1958686.195869-.5111626 0-.7070312l-.707031-.7070313c-.097934-.0979343-.225706-.1464843-.353515-.1464843z" fill="url(#b)" transform="translate(-1 1)"/></g></svg>