<svg viewBox="0 0 16 16" xmlns="http://www.w3.org/2000/svg" xmlns:xlink="http://www.w3.org/1999/xlink"><linearGradient id="a" gradientTransform="translate(-2 2)" gradientUnits="userSpaceOnUse" x1="12" x2="12" xlink:href="#b" y1="3" y2="5"/><linearGradient id="b" gradientTransform="translate(0 3)" gradientUnits="userSpaceOnUse" x1="12" x2="12" y1="3" y2="5"><stop offset="0" stop-color="#c7c7cc"/><stop offset="1" stop-color="#8e8e93"/></linearGradient><linearGradient id="c" gradientTransform="matrix(.75 0 0 1 3.75 -2)" gradientUnits="userSpaceOnUse" x1="12" x2="12" xlink:href="#b" y1="3" y2="5"/><linearGradient id="d" gradientTransform="translate(38 -14)" gradientUnits="userSpaceOnUse" x1="17.602186" x2="19.370058" y1="20.40328" y2="7.363751"><stop offset="0" stop-color="#0040dd"/><stop offset="1" stop-color="#007aff"/></linearGradient><linearGradient id="e" gradientUnits="userSpaceOnUse" x1="8" x2="8" xlink:href="#d" y1="10" y2="9"/><linearGradient id="f" gradientUnits="userSpaceOnUse" x1="13" x2="13" xlink:href="#d" y1="16" y2="4"/><linearGradient id="g" gradientUnits="userSpaceOnUse" x1="66" x2="66" xlink:href="#i" y1="25" y2="14"/><linearGradient id="h" gradientUnits="userSpaceOnUse" x1="9.491526" x2="8.81356" y1="1.084746" y2="15.18644"><stop offset="0" stop-color="#8e8e93"/><stop offset="1" stop-color="#8e8e93"/></linearGradient><linearGradient id="i" gradientUnits="userSpaceOnUse" x1="61" x2="61" y1="29" y2="18"><stop offset="0" stop-color="#d1d1d6"/><stop offset=".2857143" stop-color="#e5e5ea"/><stop offset="1" stop-color="#f2f2f7"/></linearGradient>







     /&amp;amp;amp;amp;amp;gt;
 <path d="m1 8h9v7h-9z" fill="url(#i)"/><path d="m6 4h9v7h-9z" fill="url(#g)"/><path d="m6 0c-.554 0-1 .446-1 1v3h-4c-.554 0-1 .446-1 1v10c0 .554.446 1 1 1h9c.554 0 1-.446 1-1v-3h4c.554 0 1-.446 1-1v-10c0-.554-.446-1-1-1zm4 4h5v7h-4v-6c0-.554-.446-1-1-1zm-9 4h4v3c0 .554.446 1 1 1h4v3h-9zm5 0h4v3h-4z" fill="url(#h)"/><g fill="#aeaeb2"><path d="m2 9h2v1h-2z" fill="#aeaeb2"/><path d="m7 9h2v1h-2z" fill="url(#e)"/><g fill="#aeaeb2"><path d="m2 11h2v1h-2z"/><path d="m2 13h2v1h-2z"/><path d="m12 9h2v1h-2z"/><path d="m12 7h2v1h-2z"/><path d="m12 5h2v1h-2z"/><path d="m7 13h2v1h-2z"/></g></g><path d="m1 5v2h4v-2zm5 0v2h4v-2z" fill="url(#a)"/><path d="m6 1h9v2h-9z" fill="url(#c)" stroke-width=".866025"/><path d="m10 3a1.0001 1.0001 0 0 0 -1 1v.00195c-.0010592-.0000385-.00286-.0019515-.0039062-.00195v1a1.0001 1.0001 0 0 0 .2246093.625 1.0001 1.0001 0 0 0 .013672.019531 1.0001 1.0001 0 0 0 .052734.054688 1.0001 1.0001 0 0 0 .074219.068359 1.0001 1.0001 0 0 0 .080078.060547 1.0001 1.0001 0 0 0 .017578.013672 1.0001 1.0001 0 0 0 .041016.023437 1.0001 1.0001 0 0 0 .029297.015625 1.0001 1.0001 0 0 0 .017578.00977 1.0001 1.0001 0 0 0 .017578.00781 1.0001 1.0001 0 0 0 .039063.019531 1.0001 1.0001 0 0 0 .021484.00781 1.0001 1.0001 0 0 0 .00391.00195 1.0001 1.0001 0 0 0 .00977.00391 1.0001 1.0001 0 0 0 .029297.00977 1.0001 1.0001 0 0 0 .042969.015625 1.0001 1.0001 0 0 0 .021484.00586 1.0001 1.0001 0 0 0 .064453.017578 1.0001 1.0001 0 0 0 .00977.00195 1.0001 1.0001 0 0 1 .00195 0 1.0001 1.0001 0 0 0 .087891.011719 1.0001 1.0001 0 0 0 .00977.00195 1.0001 1.0001 0 0 0 .064439.003908h.0214844 1.0078125v1.0019531h-.0039v.9980469h.0039v.00195h-.0039v5.99805h.0039v-2h3.005859v-3.9960938h-.0039v-.00195h.0039v-.99805h-.0039v-1.0019531h-.001959v-.0019531h.998047.001953v-.9980469h-.002l.002-2.0019531h-2a1.0001 1.0001 0 0 0 -.5.1347656 1.0001 1.0001 0 0 0 -.5-.1347656zm5.003906 0v2h-.002v1a1.0001 1.0001 0 0 0 .002 0 1.0001 1.0001 0 0 0 .0039 0v.00195a1.0001 1.0001 0 0 0 .19336-.021484 1.0001 1.0001 0 0 0 .0957-.025391 1.0001 1.0001 0 0 0 .09375-.035156 1.0001 1.0001 0 0 0 .08984-.042969 1.0001 1.0001 0 0 0 .166015-.1132812 1.0001 1.0001 0 0 0 .07227-.068359 1.0001 1.0001 0 0 0 .06641-.076172 1.0001 1.0001 0 0 0 .05664-.080078 1.0001 1.0001 0 0 0 .05078-.087891 1.0001 1.0001 0 0 0 .03711-.082031 1.0001 1.0001 0 0 0 .0039-.00781 1.0001 1.0001 0 0 0 .02344-.068359 1.0001 1.0001 0 0 0 .042979-.2929688v-1a1.0001 1.0001 0 0 0 -.996094-1zm-5.0390622 11.001953a1.0001 1.0001 0 0 0 -.064453.0039 1.0001 1.0001 0 0 0 -.097656.01367 1.0001 1.0001 0 0 0 -.00195 0 1.0001 1.0001 0 0 0 -.00977.002 1.0001 1.0001 0 0 0 -.085937.02344 1.0001 1.0001 0 0 0 -.085937.03125 1.0001 1.0001 0 0 0 -.021484.0078 1.0001 1.0001 0 0 0 -.1621093.08984 1.0001 1.0001 0 0 0 -.080078.06055 1.0001 1.0001 0 0 0 -.3593757.765597h.00586a1.0001 1.0001 0 0 0 0 .002v.998h.9980462c.554 0 1-.446 1-1v-.998047h-1.0019531z" fill="#f2f2f7" fill-opacity=".784314"/><path d="m10 4v1h2v-1zm2 1v10h1v-10zm1 0h2v-1h-2zm0 10v1h2v-1zm-1 0h-2v1h2z" fill="url(#f)"/></svg>