<svg viewBox="0 0 16 16" xmlns="http://www.w3.org/2000/svg" xmlns:xlink="http://www.w3.org/1999/xlink"><linearGradient id="a" gradientUnits="userSpaceOnUse" x1="10" x2="10" y1="16" y2="-2"><stop offset="0" stop-color="#f2f2f7"/><stop offset=".22222222" stop-color="#f2f2f7"/><stop offset=".83333331" stop-color="#f2f2f7"/><stop offset="1" stop-color="#f2f2f7"/></linearGradient><linearGradient id="b" gradientTransform="matrix(1 0 0 .53846154 -6 5.307692)" gradientUnits="userSpaceOnUse" x1="12" x2="12" y1="18" y2="5"><stop offset="0" stop-color="#aeaeb2"/><stop offset=".15476191" stop-color="#e7e7e7"/><stop offset=".15476191" stop-color="#f2f2f7"/><stop offset=".5" stop-color="#f2f2f7"/><stop offset=".85714287" stop-color="#f2f2f7"/><stop offset="1" stop-color="#f2f2f7"/></linearGradient><linearGradient id="c" gradientTransform="matrix(1 0 0 .39999999 -6 6.7)" gradientUnits="userSpaceOnUse" x1="12" x2="12" y1="12" y2="18.250002"><stop offset="0" stop-color="#f2f2f7"/><stop offset="1" stop-color="#f2f2f7"/></linearGradient>


/&amp;amp;amp;amp;amp;gt;<path d="m2 3v10h6 2.767578 3.232422v-1.847656-1.304688-6.847656z" fill="#f2f2f7"/><path d="m1 2v12h1 6 3.017578 2.982422 1v-2.984375-.03125-4.3984375-3.5859375-1zm1 1h12v4.5859375 2.2617185 1.304688 1.847656h-3.232422-2.767578-6z" fill="#8e8e93"/><path d="m0 0h16v2h-16z" fill="#48484a"/><path d="m3 4h10v2h-10z" fill="#ff9500"/><path d="m9 6v8h2.017578 2.982422 1v-2.984375-.03125-4.3984375-.5859375z" fill="#f2f2f7" fill-opacity=".784314"/><g transform="translate(8)"><path d="m2 8h6v8h-6z" fill="url(#a)"/><path d="m2 7h6v9h-6z" fill="#8e8e93" stroke-width=".774597"/><path d="m3 8h4v7h-4z" fill="url(#b)" stroke-width=".733799"/><path d="m4 9h2v2.5h-2z" fill="#c7c7cc" stroke-width=".912871"/><path d="m4 11.5h2v2.5h-2z" fill="url(#c)" stroke-width=".632456"/></g></svg>