<svg viewBox="0 0 16 16" xmlns="http://www.w3.org/2000/svg"><path d="m1.5 0c-.277 0-.5.223-.5.5v13.5h-.5c-.277 0-.5.223-.5.5s.223.5.5.5h.5v.5c0 .277.223.5.5.5s.5-.223.5-.5v-.5h2 3 1 2 1 3 1.5c.277 0 .5-.223.5-.5s-.223-.5-.5-.5h-.5v-8c0-.554-.446002-1.0013866-1-1h-3v-2c0-.554-.446-1-1-1h-2c-.554 0-1 .446-1 1v4h-3c-.554 0-1 .446-1 1v6h-1v-13.5c0-.277-.223-.5-.5-.5zm9.5 6h3v8h-3zm-7 2h3v6h-3z" fill="#48484a"/><path d="m11 6v8h3v-8zm-7 2v6h3v-6z" fill="#f2f2f7"/><path d="m11 5a6 4 0 0 0 -4 1.0253906v.9746094h-1.1875a6 4 0 0 0 -.8125 2 6 4 0 0 0 .0292969.3554688c-.0142085.0464997-.0292969.0932596-.0292969.1445312v3c0 .047809.0149266.091043.0273438.134766a6 4 0 0 0 -.0273438.365234 6 4 0 0 0 .8105469 2h1.1894531 1 2 1 3 1.5c.277 0 .5-.223.5-.5s-.223-.5-.5-.5h-.5v-7.9746094a6 4 0 0 0 -4-1.0253906z" fill="#f2f2f7" fill-opacity=".784314"/><g fill="#fc0"><path d="m6 10.974609v2.025391c0 1.656854 2.238576 3 5 3s5-1.343146 5-3v-2.025391c-1.237023 1.483512-2.784273 2.025391-5 2.025391-2.447645 0-3.681267-.674935-5-2.025391z"/><path d="m16 9a5 3 0 0 1 -5 3 5 3 0 0 1 -5-3 5 3 0 0 1 5-3 5 3 0 0 1 5 3z"/></g><g fill="#ff9500"><path d="m6 10.974609v2.025391c0 1.656854 2.238576 3 5 3s5-1.343146 5-3v-2.025391c-1.237023 1.483512-2.784273 2.025391-5 2.025391-2.447645 0-3.681267-.674935-5-2.025391zm1.003906 1.923829c1.084008.642805 2.305964 1.105468 3.996094 1.105468 1.543442 0 2.835242-.430894 3.996094-1.097656v.09375c0 .376571-.264802.834662-.976563 1.261719-.711761.427056-1.801487.734375-3.019531.734375s-2.30777-.307319-3.019531-.734375c-.711761-.427057-.976563-.885148-.976563-1.261719z"/><path d="m11 6a5 3 0 0 0 -5 3 5 3 0 0 0 5 3 5 3 0 0 0 5-3 5 3 0 0 0 -5-3zm0 1a4 2 0 0 1 4 2 4 2 0 0 1 -4 2 4 2 0 0 1 -4-2 4 2 0 0 1 4-2z"/></g></svg>