<svg viewBox="0 0 16 16" xmlns="http://www.w3.org/2000/svg" xmlns:xlink="http://www.w3.org/1999/xlink"><linearGradient id="a" gradientTransform="matrix(.80638732 0 0 .79969077 3.161242 3.202245)" gradientUnits="userSpaceOnUse" x1="11.192914" x2="11.111127" y1="15.845822" y2="6.232731"><stop offset="0" stop-color="#d70015"/><stop offset="1" stop-color="#ff453a"/></linearGradient><linearGradient id="b" gradientUnits="userSpaceOnUse" x1="7.273339" x2="7.480236" xlink:href="#c" y1="7.625454" y2="3.838238"/><linearGradient id="c" gradientTransform="translate(-25.830508 -3.59322)" gradientUnits="userSpaceOnUse" x1="14" x2="13.79661" y1="22" y2="2.135593"><stop offset="0" stop-color="#0040dd"/><stop offset="1" stop-color="#007aff"/></linearGradient><linearGradient id="d" gradientUnits="userSpaceOnUse" x1="9.5" x2="9.5" y1="7" y2="10"><stop offset="0" stop-color="#f2f2f7"/><stop offset=".08333334" stop-color="#f2f2f7" stop-opacity=".055147"/><stop offset="1" stop-color="#f2f2f7" stop-opacity=".247059"/><stop offset="1" stop-color="#f2f2f7" stop-opacity=".481618"/></linearGradient><linearGradient id="e" gradientUnits="userSpaceOnUse" x1="6.25" x2="6" xlink:href="#c" y1="13.5" y2="2"/><linearGradient id="f" gradientUnits="userSpaceOnUse" x1="10" x2="11.500001" y1="4" y2="2.499999"><stop offset="0" stop-color="#f2f2f7"/><stop offset=".77967989" stop-color="#f2f2f7"/><stop offset="1" stop-color="#d1d1d6"/></linearGradient><radialGradient id="g" cx="10.994179" cy="4.42844" gradientTransform="matrix(1.4 .00000004 -.00000001 1.2 -4.39185 -2.314129)" gradientUnits="userSpaceOnUse" r="5"><stop offset="0" stop-color="#e5e5ea"/><stop offset=".49894297" stop-color="#f2f2f7"/><stop offset="1" stop-color="#f2f2f7"/></radialGradient><g transform="translate(2)"><path d="m3 1v14h10v-11.2949219l-2.695312-2.7050781z" fill="url(#g)"/><path d="m2 2v12h8v-10l-2-2zm1 1h5l1 1v9h-6z" fill="url(#e)" transform="translate(2)"/><path d="m3 0c-.554 0-1 .446-1 1v14c0 .554.446 1 1 1h10c.554 0 1-.446 1-1v-10.5-.8632812l-3.636719-3.6367188h-.863281zm0 1h6v3.5c0 .277.223.5.5.5h3.5v10h-10zm7 0 3 3h-3z" fill="#8e8e93"/><path d="m10 1 3 3h-3z" fill="url(#f)"/></g><g transform="matrix(.75 0 0 .75 .761913 4.75)"><rect fill="url(#b)" height="5" ry="1" width="12.333333" x="1.666667" y="3"/><path d="m4.3333333 11v3h6.6666667v-3z" fill="#f2f2f7" fill-rule="evenodd"/><path d="m3 12.333333v1.809245c0 .474857.3825649.857422.8574219.857422h7.2851561c.474857 0 1.171472-.382957 1.190755-.857422v-1.809245h-1.333333v1.666667h-6.6666667v-1.666667z" fill="#8e8e93"/><path d="m4.3333333 1.6666667.0000004 2.6666666 6.6666673.0000001-.000001-2.6666667z" fill="#f2f2f7" fill-rule="evenodd"/><path d="m13 10h2v1h-2z" fill="#f2f2f7"/><path d="m3.8461221.33333337c-.474857 0-.8586207.38256634-.8574219.85742193l.0112998 4.4759114h1.3333336 6.6666664 1.333334l-.0113-4.4759114c-.001199-.47485559-.382565-.85742193-.857422-.85742193zm.4872112 1.33333333h6.6666667v2.6666666h-6.6666664z" fill="#8e8e93"/><g stroke-width="1.333333"><path d="m.65078462 5c-.55399997 0-1.00121469.4460013-.99999997 1l.0102323 4.666667c.001215.553999.446 1 .99999997 1h2.67231638 1 7.4999997 2.843566c.554 0 1.001215-.446001 1-1l-.010232-4.666667c-.0012-.5539987-.446-1-1-1h-1.666667v1.3333333h-.5-9.176899-1v-1.3333333z" fill="#8e8e93" stroke="#8e8e93"/><path d="m1.4749089 6.2740113h.5l-.0225989 2.7259887 11.366899.011299.0226-2.7259887h.5c.277 0 .5.446.5 1v2.059322c0 .554-.223 1.0002537-.5.9999997l-12.3668991-.0113c-.2769999-.000253-.5-.4460001-.5-1.0000001v-2.059322c0-.554.2231414-.9911517.5-1z" fill="none" stroke="url(#d)" stroke-opacity=".658088"/></g></g><path d="m9.0371094 6.9980469a1.0023027 1.0023027 0 0 0 -.703125.3183593l-.7988282.8574219a1.0023027 1.0023027 0 0 0 -.2421874.4511719c.054426-.2276955.013489-.1621162-.097656.1953125-.055573.1787143-.084002.4719152-.00195.7363281.082049.264413.2384763.4615014.390625.6035154a1.0023027 1.0023027 0 0 0 .3125.199219c.6031601.240603 1.1515859.740741 1.7089844 1.179687-.9886359.900074-1.870959 1.844417-2.5078126 3.166016a1.0023027 1.0023027 0 0 0 -.0976596.367188c-.026079.384192.1293929.704136.3046875.927734h1.8066406 1.0019529c.256451-.312972.50975-.63801.855469-1.076172.377344-.478243.775532-.911685 1.140625-1.28125.702198.664957 1.439107 1.481771 2.253906 2.357422h.636719c.554 0 1-.446 1-1v-1.089844c-.471155-.919554-1.061799-1.737027-1.664062-2.451172.479258-.420155 1.039439-.840996 1.664062-1.330078v-2.6640622a1.0023027 1.0023027 0 0 0 -.480469.0820312c-1.340698.5899848-2.179634 1.3037618-3.021484 1.9042969-.910104-.7888388-1.808736-1.60056-2.888672-2.2949219a1.0023027 1.0023027 0 0 0 -.5722656-.1582031z" fill="#f2f2f7" fill-opacity=".784314"/><path d="m9.066352 8.0003894-.7995879.8568455c-.043296.1811308-.2648019.3240674 0 .5712304 1.1284923.4501592 2.0073049 1.2067297 2.9318229 1.9993057-1.4089282 1.149508-2.4373274 2.133718-3.1983521 3.712997-.030055.442767.9611643.718166 1.0661171.57123.4359282-.469212 1.647722-2.241453 2.665291-3.141765l.33881-.392117c1.074603.766012 2.101171 2.149874 3.126073 3.248267l.533057.571231c-.420144-1.862294-1.674419-3.498329-2.782744-4.686026.805765-.978763 1.97954-1.5694614 3.049274-2.4543531l-.072696-.3921529c-1.451535.6387594-2.426006 1.5215242-3.491567 2.212344-1.101378-.9486104-2.15573-1.899197-3.365498-2.6770366z" fill="url(#a)"/></svg>