<svg viewBox="0 0 16 16" xmlns="http://www.w3.org/2000/svg" xmlns:xlink="http://www.w3.org/1999/xlink"><linearGradient id="a" gradientTransform="matrix(.80638732 0 0 .79969077 3.161242 3.202245)" gradientUnits="userSpaceOnUse" x1="11.192914" x2="11.111127" y1="15.845822" y2="6.232731"><stop offset="0" stop-color="#d70015"/><stop offset="1" stop-color="#ff453a"/></linearGradient>


/&amp;amp;amp;gt;<path d="m0 5v9.5c-.00038442.276301.22369855.500384.5.5h15c.276301.000384.500384-.223699.5-.5v-9.5h-.998047v9.001953h-14.00390612v-9.001953z" fill="#69696e"/><path d="m1 5h14v9h-14z" fill="#fff"/><path d="m0 1h16v4h-16z" fill="#848489"/><path d="m5 5v4h-4v1h4v4h1v-4h4v4h1v-4h4v-1h-4v-4h-1v4h-4v-4z" fill="#bababa"/><path d="m.50195312 1.0019531c-.27630145-.000384-.50038441.223699-.49999999.5v3.4980469h.99804687 14v-1h-4v-2h4.003906v3h.998047v-3.4980469c.000384-.276301-.223699-.500384-.5-.5zm.49804688.9980469h4v2h-4zm5 0h4v2h-4z" fill="#69696e"/><path d="m9.046875 7.3398438a.66129329.66129329 0 0 0 -.4648438.2089843l-.7988281.8574219a.66129329.66129329 0 0 0 -.1582031.296875c.028544-.1194149-.020764-.047366-.1035156.21875-.041376.1330582-.063414.3414322-.00391.5332031.059508.1917709.1759214.3403583.2988281.4550781a.66129329.66129329 0 0 0 .2070313.1308598c.7861644.313603 1.4665561.837237 2.1679682 1.419922-1.1319772.978455-2.0969305 1.960319-2.7871088 3.392578a.66129329.66129329 0 0 0 -.0488244.146484h3.1171872c.0862-.111465.134008-.167331.228516-.287109.453252-.57445.96395-1.168776 1.396484-1.566407.57943.505708 1.188876 1.1684 1.8125 1.853516h2.089844v-.316406c-.523479-1.285635-1.349888-2.379563-2.150391-3.292969.585992-.55987 1.344807-1.076195 2.150391-1.703125v-1.8789062a.66129329.66129329 0 0 0 -.341797.0507812c-1.369046.6024594-2.309517 1.3678661-3.203125 1.9921875-.962949-.8347672-1.91277-1.6890587-3.0312499-2.4082031a.66129329.66129329 0 0 0 -.3769531-.1035156z" fill="#fff" fill-opacity=".784314"/><path d="m9.066352 8.0003894-.7995879.8568455c-.043296.1811308-.2648019.3240674 0 .5712304 1.1284923.4501592 2.0073049 1.2067297 2.9318229 1.9993057-1.4089282 1.149508-2.4373274 2.133718-3.1983521 3.712997-.030055.442767.9611643.718166 1.0661171.57123.4359282-.469212 1.647722-2.241453 2.665291-3.141765l.33881-.392117c1.074603.766012 2.101171 2.149874 3.126073 3.248267l.533057.571231c-.420144-1.862294-1.674419-3.498329-2.782744-4.686026.805765-.978763 1.97954-1.5694614 3.049274-2.4543531l-.072696-.3921529c-1.451535.6387594-2.426006 1.5215242-3.491567 2.212344-1.101378-.9486104-2.15573-1.899197-3.365498-2.6770366z" fill="url(#a)"/></svg>