<svg viewBox="0 0 16 16" xmlns="http://www.w3.org/2000/svg" xmlns:xlink="http://www.w3.org/1999/xlink"><clipPath id="a"><path d="m2.5546199 2.5085563c-.8214102.0000821-1.4979651.6766366-1.4980469 1.4980469v.5h-.00195v1.4999999.4999999 4.50008c0 .831.669 1.5 1.5 1.5h6.9999996c.8309994 0 1.4999994-.669 1.4999994-1.5v-5.0000799c0-.831-.668999-1.4999999-1.4999991-1.5h-3.000003l-2.1601562-1.6074219.054688.048828c-.2807642-.2807964-.6615089-.4393765-1.0585942-.439453z"/></clipPath><filter id="b" color-interpolation-filters="sRGB" height="1.273927" width="1.15066" x="-.07533" y="-.136964"><feGaussianBlur stdDeviation=".62775"/></filter><linearGradient id="c" gradientUnits="userSpaceOnUse" x1="0" x2="4.233333" y1="295.14792" y2="295.14792"><stop offset="0" stop-color="#60c0f0"/><stop offset="1" stop-color="#83d4fb"/></linearGradient><linearGradient id="d" gradientTransform="matrix(.58333333 0 0 .6779661 -.75 -1.033898)" gradientUnits="userSpaceOnUse" x1="13" x2="13" y1="3" y2="7"><stop offset="0" stop-color="#c8c8cb"/><stop offset="1" stop-color="#98989d"/></linearGradient><linearGradient id="e" gradientUnits="userSpaceOnUse" x1="9" x2="9" y1=".5" y2="15"><stop offset="0" stop-color="#848489"/><stop offset="1" stop-color="#616165"/></linearGradient><linearGradient id="f" gradientUnits="userSpaceOnUse" x1="61" x2="61" y1="29" y2="18"><stop offset="0" stop-color="#e9e9e9"/><stop offset=".2857143" stop-color="#f2f2f2"/><stop offset="1" stop-color="#fbfbfb"/></linearGradient>





     /&amp;amp;amp;amp;gt;
 <path d="m1 4h14v11h-14z" fill="url(#f)"/><path d="m1 0c-.554 0-1 .446-1 1v14c0 .554.446 1 1 1h14c.554 0 1-.446 1-1v-14c0-.554-.446-1-1-1zm0 4h14v11h-14z" fill="url(#e)"/><g fill="#bababa"><path d="m6.5 6c-.277 0-.5.223-.5.5v2c0 .277.223.5.5.5h7c.277 0 .5-.223.5-.5v-2c0-.277-.223-.5-.5-.5zm.5 1h6v1h-6z"/><path d="m6.5 10c-.277 0-.5.223-.5.5v2c0 .277.223.5.5.5h7c.277 0 .5-.223.5-.5v-2c0-.277-.223-.5-.5-.5zm.5 1h6v1h-6z"/><path d="m2.5 6c-.277 0-.5.223-.5.5v2c0 .277.223.5.5.5h2c.277 0 .5-.223.5-.5v-2c0-.277-.223-.5-.5-.5zm.5 1h1v1h-1z"/><path d="m2.5 10c-.277 0-.5.223-.5.5v2c0 .277.223.5.5.5h2c.277 0 .5-.223.5-.5v-2c0-.277-.223-.5-.5-.5zm.5 1h1v1h-1z"/></g><path d="m1 1h14v3h-14z" fill="url(#d)" stroke-width=".628872"/><g transform="matrix(3.7795275 0 0 3.7795275 6 -1105.5196)"><path d="m1.5 5.001873c-.8214102.0000821-1.49796508.6766366-1.49804687 1.4980469v.5h-.00195313v1.5.4999999 4.5000802c0 .831.669 1.5 1.5 1.5h6.9999999c.831 0 1.5-.669 1.5-1.5v-5.0000801c0-.831-.6689996-1.5-1.4999997-1.5000001h-3l-2.1601563-1.6074219.054688.048828c-.2807642-.2807964-.6615089-.4393765-1.0585942-.439453z" fill="#46a2d7" fill-rule="evenodd" transform="matrix(.26458333 0 0 .26458333 0 292.76667)"/><rect clip-path="url(#a)" fill="#3f4e60" filter="url(#b)" height="7.753575" rx="1.72607" transform="matrix(.26458334 0 0 .26458334 -.279035 293.42636)" width="10" x="1.05462" y="4.753028"/><g stroke-width=".264583"><rect fill="#459fd2" height="1.852097" rx=".396875" width="2.645834" y="294.8833"/><rect fill="url(#c)" height="1.322927" rx=".264583" width="2.116667" x=".264583" y="295.14789"/></g></g></svg>