<svg viewBox="0 0 16 16" xmlns="http://www.w3.org/2000/svg" xmlns:xlink="http://www.w3.org/1999/xlink"><linearGradient id="a" gradientUnits="userSpaceOnUse" x1="87.5" x2="87.5" y1="9" y2="-3"><stop offset="0" stop-color="#0040dd"/><stop offset="1" stop-color="#0a84ff"/></linearGradient>

/&amp;amp;amp;gt;<path d="m0 5v9.5c-.00038442.276301.22369855.500384.5.5h15c.276301.000384.500384-.223699.5-.5v-9.5h-.998047v9.001953h-14.00390612v-9.001953z" fill="#69696e"/><path d="m1 5h14v9h-14z" fill="#fff"/><path d="m0 1h16v4h-16z" fill="#848489"/><path d="m5 5v4h-4v1h4v4h1v-4h4v4h1v-4h4v-1h-4v-4h-1v4h-4v-4z" fill="#bababa"/><path d="m.50195312 1.0019531c-.27630145-.000384-.50038441.223699-.49999999.5v3.4980469h.99804687 14v-1h-4v-2h4.003906v3h.998047v-3.4980469c.000384-.276301-.223699-.500384-.5-.5zm.49804688.9980469h4v2h-4zm5 0h4v2h-4z" fill="#69696e"/><path d="m10 3a1.0001 1.0001 0 0 0 -1 1v.0019531c-.0010592-.0000478-.0028599-.0019546-.0039062-.0019531v1a1.0001 1.0001 0 0 0 .2382812.6445312 1.0001 1.0001 0 0 0 .2246094.1972657 1.0001 1.0001 0 0 0 .0878906.0488281 1.0001 1.0001 0 0 0 .0917969.0410156 1.0001 1.0001 0 0 0 .09375.03125 1.0001 1.0001 0 0 0 .0859375.0195313 1.0001 1.0001 0 0 0 .078125.0117187 1.0001 1.0001 0 0 0 .0957031.0058594 1.0001 1.0001 0 0 0 .0039063 0 1.0001 1.0001 0 0 0 .0039062 0h1v1.0019531h-.003906v.9980469h.003906v.0019531h-.003906v5.9980469h3v-1.001953h.003906v-.998047h-.003906v-.001953h.003906v-5.998047h.998047l.001953-3h-2a1.0001 1.0001 0 0 0 -.5.1347656 1.0001 1.0001 0 0 0 -.5-.1347656zm5.003906 0v2h-.001953v1a1.0001 1.0001 0 0 0 .998047-1v-1a1.0001 1.0001 0 0 0 -.996094-1zm-.001953 11v.001953h-.003906v.998047h.001953.5c.201158.00028.371839-.11981.451172-.291016a1.0001 1.0001 0 0 0 -.949219-.708984zm-5.0371092.001953a1.0001 1.0001 0 0 0 -.0644532.003906 1.0001 1.0001 0 0 0 -.0976562.013672 1.0001 1.0001 0 0 0 -.0019532 0 1.0001 1.0001 0 0 0 -.0097656.001953 1.0001 1.0001 0 0 0 -.0859375.023438 1.0001 1.0001 0 0 0 -.0859375.03125 1.0001 1.0001 0 0 0 -.0214844.007812 1.0001 1.0001 0 0 0 -.1621093.089844 1.0001 1.0001 0 0 0 -.0800781.060547 1.0001 1.0001 0 0 0 -.359375.765625h5.9980472v-.998047z" fill="#fff" fill-opacity=".784314"/><path d="m10 4v1h2v-1zm2 1v10h1v-10zm1 0h2v-1h-2zm0 10v1h2v-1zm-1 0h-2v1h2z" fill="url(#a)"/></svg>