<svg viewBox="0 0 16 16" xmlns="http://www.w3.org/2000/svg" xmlns:xlink="http://www.w3.org/1999/xlink"><linearGradient id="a" gradientTransform="matrix(-1 0 0 1 18.000002 0)" gradientUnits="userSpaceOnUse" x1="3.000002" x2="13.000002" xlink:href="#b" y1="3.5" y2="3.5"/><linearGradient id="b" gradientUnits="userSpaceOnUse" x1="23" x2="23" y1="24" y2="12"><stop offset="0" stop-color="#0040dd"/><stop offset="1" stop-color="#0a84ff"/></linearGradient><linearGradient id="c" gradientUnits="userSpaceOnUse" x1="15" x2="5" xlink:href="#b" y1="3.5" y2="3.5"/>

/&amp;amp;gt;<g transform="matrix(0 1 -1 0 16 0)"><path d="m12.5 1.0019534c-.3041.0004534-.488689.2542312-.484375.5136719l-.015625-.015625v1.5h-2v.5.5h2v1.5l.01563-.015625c-.0043.2594407.18027.5132185.48437.5136719.13451.0001797.263393-.05405.357422-.1503907l1.949219-1.9511718c.129909-.1003353.193725-.248249.193359-.3964844.000366-.1482354-.063454-.2961491-.193359-.3964844l-1.949219-1.9511718c-.094029-.0963407-.222912-.1505704-.357422-.1503907z" fill="url(#c)" fill-rule="evenodd"/><path d="m7.5000016 1.0019534c.3041.0004534.488689.2542312.484375.5136719l.015625-.015625v1.5h2.0000004v.5.5h-2.0000004v1.5l-.01563-.015625c.0043.2594407-.18027.5132185-.48437.5136719-.13451.0001797-.263393-.05405-.357422-.1503907l-1.949219-1.9511718c-.129909-.1003353-.193725-.248249-.193359-.3964844-.000366-.1482354.063454-.2961491.193359-.3964844l1.949219-1.9511718c.094029-.096341.222912-.1505704.357422-.1503907z" fill="url(#a)" fill-rule="evenodd"/><path d="m12 9c-.554 0-1 .446-1 1v4c0 .554.446 1 1 1h3c.554 0 1-.446 1-1v-4c0-.554-.446-1-1-1z" fill="#98989d"/><path d="m12 10h3v4h-3z" fill="#fff"/><path d="m1 7c-.554 0-1 .446-1 1v6c0 .554.446 1 1 1h3c.554 0 1-.446 1-1v-6c0-.554-.446-1-1-1z" fill="#e4b500"/><path d="m1 8h3v6h-3z" fill="#fc0"/><g fill="#4b4b4f"><rect height="16" rx=".5" width="1" x="15"/><rect height="16" rx=".5" width="1" x="4"/></g></g></svg>