<svg viewBox="0 0 16 16" xmlns="http://www.w3.org/2000/svg" xmlns:xlink="http://www.w3.org/1999/xlink"><linearGradient id="a"><stop offset="0" stop-color="#007d1b"/><stop offset="1" stop-color="#28cd41"/></linearGradient><linearGradient id="b" gradientUnits="userSpaceOnUse" x1="-21.118645" x2="-21.118645" xlink:href="#a" y1="22.61017" y2="10.11017"/><linearGradient id="c" gradientUnits="userSpaceOnUse" x1="-11" x2="-11" xlink:href="#a" y1="12" y2="8"/>

/&amp;amp;gt;<path d="m4 0c-.554 0-1 .446-1 1v14c0 .554.446 1 1 1h10c.554 0 1-.446 1-1v-14c0-.554-.446-1-1-1zm0 1h10v14h-10z" fill="#8e8e93"/><path d="m4 1h10v14h-10z" fill="#f2f2f7"/><g fill="#8e8e93" transform="translate(1)"><path d="m5 3h3v4h-3z" fill="url(#c)"/><g fill="#8e8e93"><path d="m9 3h3v1h-3z"/><path d="m9 6h3v1h-3z"/><path d="m5 9h7v1h-7z"/><path d="m5 12h7v1h-7z"/></g></g><g transform="translate(0 -1)"><g fill="#8e8e93"><path d="m1 2h3v1h-3z"/><path d="m1 4h3v1h-3z"/><path d="m2-2h3v1h-3z" transform="rotate(90)"/></g><path d="m2 3h2v1h-2z" fill="#f2f2f7"/><path d="m3-5h1v1h-1z" fill="#8e8e93" transform="rotate(90)"/></g><g transform="translate(0 3)"><g fill="#8e8e93"><path d="m1 2h3v1h-3z"/><path d="m1 4h3v1h-3z"/><path d="m2-2h3v1h-3z" transform="rotate(90)"/></g><path d="m2 3h2v1h-2z" fill="#f2f2f7"/><path d="m3-5h1v1h-1z" fill="#8e8e93" transform="rotate(90)"/></g><g transform="translate(0 7)"><g fill="#8e8e93"><path d="m1 2h3v1h-3z"/><path d="m1 4h3v1h-3z"/><path d="m2-2h3v1h-3z" transform="rotate(90)"/></g><path d="m2 3h2v1h-2z" fill="#f2f2f7"/><path d="m3-5h1v1h-1z" fill="#8e8e93" transform="rotate(90)"/></g><g transform="translate(0 11)"><g fill="#8e8e93"><path d="m1 2h3v1h-3z"/><path d="m1 4h3v1h-3z"/><path d="m2-2h3v1h-3z" transform="rotate(90)"/></g><path d="m2 3h2v1h-2z" fill="#f2f2f7"/><path d="m3-5h1v1h-1z" fill="#8e8e93" transform="rotate(90)"/></g><path d="m15 6.0117188c-.067896.0049358-.135835.0060514-.203125.0195312a1.001836 1.001836 0 0 0 -.009766.0019531c-.413934.0874702-.779468.3043501-1.054687.6328125l-4.794922 5.3652344-1.2265625-1.201172c-.7644664-.747547-1.8995999-.747344-2.6640625 0-.764963.747954-.7649764 1.919982 0 2.667969l2.5585938 2.501953h2.7871092l.03125-.035156 4.576172-5.115235z" fill="#f2f2f7" fill-opacity=".784314"/><path d="m15.255859 7.011719c-.08447-.015517-.171544-.016114-.261718.00195-.192169.040608-.369549.1462297-.494141.294925l-5.5136719 6.169922-1.9765625-1.931641c-.3304046-.323092-.9312527-.323066-1.2617187 0-.3304218.323075-.3304481.911266 0 1.234375l2.6328125 2.574219.6875.644531.6035156-.697266 6.144531-6.8671869c.435902-.4639888.030741-1.3152069-.560547-1.4238281z" fill="url(#b)"/></svg>