<svg height="16" viewBox="0 0 4.2333332 4.2333335" width="16" xmlns="http://www.w3.org/2000/svg"><g transform="translate(0 -292.76665)"><g stroke-width=".264583"><path d="m.26458334 293.29581h3.70416656v3.175h-3.70416656z" fill="#f2f2f7"/><path d="m.13280843 293.03175c-.07310476-.0001-.13239338.0592-.13229167.13229v.92552h-.00051676v2.51354c-.00010171.0731.05918691.1324.13229167.1323h3.96874993c.073105.0001.1323932-.0592.1322916-.1323v-2.51354h.0005292v-.92552c.0001016-.0731-.059187-.13239-.1322917-.13229zm.13177491.26406h1.05833336.2645833 1.0583332.2645834 1.0583333.00103v.79375h-.0005292v2.38177h-3.70518603v-2.38177h.00051673v-.26458z" fill="#8e8e93"/><path d="m1.3229167 293.29581v.79375h-1.05833336v.26459h1.05833336v.79375h-1.05833336v.26458h1.05833336v1.05833h.2645833v-1.05833h1.0583332v1.05833h.2645834v-1.05833h1.0583333v-.26458h-1.0583333v-.79375h1.0583333v-.26459h-1.0583333v-.79375h-.2645834v.79375h-1.0583332v-.79375zm.2645833 1.05834h1.0583332v.79375h-1.0583332z" fill="#aeaeb2"/><path d="m1.3229167 293.03123v1.05833.26459.79375.26458 1.32292h.2645833v-1.32292h1.0583332v1.32292h.2645834v-1.32292-.26458-.79375-.26459-1.05833h-.2645834v1.05833h-1.0583332v-1.05833zm.2645833 1.32292h1.0583332v.79375h-1.0583332z" fill="#c93400"/><path d="m1.5875 293.29581h1.058333v3.175h-1.058333z" fill="#55bef0"/></g><path d="m1.5875 293.03123h1.0583332v.26458h-1.0583332z" fill="#c93400" opacity="0"/><path d="m5 1v1 2.5.5 1 3 1 4 1h1 4 1v-1-4-4-1.5-2.5-1h-1-4zm1 1h4v2.5.5h-4v-.5zm0 4h4v3h-4zm0 4h4v4h-4z" fill="#0071a4" transform="matrix(.26458333 0 0 .26458333 0 292.76665)"/><path d="m1.5875 293.29581h1.058333v3.175h-1.058333z" fill="#ff9f0a" opacity="0"/></g></svg>