<svg viewBox="0 0 16 16" xmlns="http://www.w3.org/2000/svg" xmlns:xlink="http://www.w3.org/1999/xlink"><radialGradient id="a" cx="24.803049" cy="16.542116" gradientTransform="matrix(1.1999999 -.0000001 .00000012 1.3164549 -51.492473 -6.658183)" gradientUnits="userSpaceOnUse" r="10"><stop offset="0" stop-color="#51cdfb"/><stop offset="1" stop-color="#0078f6"/></radialGradient><linearGradient id="b" gradientUnits="userSpaceOnUse" x1="13" x2="13" xlink:href="#a" y1="1" y2="9.585939"/><linearGradient id="c" gradientUnits="userSpaceOnUse" x1="9.074853" x2="9.596299" xlink:href="#a" y1="2.877208" y2="10.787216"/><linearGradient id="d" gradientUnits="userSpaceOnUse" x1="8.480701" x2="8.389831" xlink:href="#a" y1="1.38619" y2="7.284495"/><path d="m5 0-3 2v1h9v9h1l2-2v-10z" fill="#0040dd" fill-rule="evenodd"/><path d="m4.5 2c-.2763133-.0004132-.5004132.2236867-.5.5v9c-.0004132.276313.2236867.500413.5.5h9c.276313.000413.500413-.223687.5-.5v-9c.000413-.2763133-.223687-.5004132-.5-.5z" fill="#0040dd" transform="translate(-2)"/><path d="m5 3v8h8v-8z" fill="url(#c)" transform="translate(-2)"/><path d="m5.3027344 1-1.5 1h7.1972656l2-1z" fill="url(#d)"/><path d="m11 2c.552262.0000552.999945.4477381 1 1v7.585938l1-1v-8.585938z" fill="url(#b)" fill-rule="evenodd"/><path d="m11 3.5 3-3v-.5h-1l-3 3h1z" fill="#0040dd"/><path d="m0 13v3h16v-3zm1 1h14v1h-14z" fill="#848489"/></svg>