<svg viewBox="0 0 16 16" xmlns="http://www.w3.org/2000/svg" xmlns:xlink="http://www.w3.org/1999/xlink"><linearGradient id="a" gradientUnits="userSpaceOnUse" x1="10" x2="10" y1="16" y2="-2"><stop offset="0" stop-color="#f7f7f7"/><stop offset=".22222222" stop-color="#fff"/><stop offset=".83333331" stop-color="#fff"/><stop offset="1" stop-color="#f7f7f7"/></linearGradient><linearGradient id="b" gradientTransform="matrix(1 0 0 .53846154 -6 5.307692)" gradientUnits="userSpaceOnUse" x1="12" x2="12" y1="18" y2="5"><stop offset="0" stop-color="#cfcfcf"/><stop offset=".15476191" stop-color="#e7e7e7"/><stop offset=".15476191" stop-color="#fff"/><stop offset=".5" stop-color="#f3f3f3"/><stop offset=".85714287" stop-color="#f9f9f9"/><stop offset=".85714287" stop-color="#fcfcfc"/><stop offset="1" stop-color="#fff"/></linearGradient><linearGradient id="c" gradientTransform="matrix(1 0 0 .39999999 -6 6.7)" gradientUnits="userSpaceOnUse" x1="12" x2="12" y1="12" y2="18.250002"><stop offset="0" stop-color="#f8f8f8"/><stop offset="1" stop-color="#fff"/></linearGradient><path d="m3 0c-.1070341 0-.2047472.02609895-.2988281.06054688-.0647747.02049632-.1233888.04557771-.1816407.078125-.0012814.00071574-.0026254.00123006-.0039062.00195312 0 0-.0019531.00195312-.0019531.00195312-.002857.00162318-.0049719.00421117-.0078125.00585938-.1161675.06752952-.2127981.15471978-.2929688.26171875-.0346862.04404756-.0669549.08912713-.09375.13867187-.0198199.0386616-.0380008.07577523-.0527344.1171875-.0393846.10440981-.0664062.21435249-.0664062.33398438v2.6367188.8632812.5 10c0 .373716.2115188.685754.5136719.857422.0007451.000423.0012072.001531.0019531.001953.0593626.033511.1193565.059134.1855469.080078.0940809.034448.191794.060547.2988281.060547h2 1.0292969.9980469 1.9453124.9980469 1.0292969 2c.107034 0 .204747-.026099.298828-.060547.06619-.020944.126184-.046567.185547-.080078.000796-.000449.001159-.001502.001953-.001953.302153-.171668.513672-.483706.513672-.857422v-10-.5-.8632812-2.6367188c0-.11963189-.027023-.22957456-.066406-.33398438-.014734-.04141227-.032915-.0785259-.052735-.1171875-.026793-.04954475-.059066-.0946243-.09375-.13867187-.08017-.10699897-.176801-.19418923-.292968-.26171875-.004888-.002841-.008732-.00700556-.013672-.00976562-.058252-.03254729-.116866-.05762868-.181641-.078125-.094081-.03444793-.191794-.06054688-.298828-.06054688h-3.5zm0 1h6 4v1.6367188 1.3632812 1 .4746094 9.5253906h-10v-9.5253906-.4746094-1-1.3632812z" fill="#98989d"/><path d="m3 1v14h7.304688 2.695312v-.75-1.955078-1.769531-6.8203129-1.9550781-.75h-2.695312z" fill="#fff"/><path d="m13.929688 5c-.235082.0001751-.462589.083156-.642579.234375l-.287109.2402344-.691406.5800781-1.951172 1.6328125c-.102832.0864494-.187193.1927306-.248047.3125.06085.1197694.145215.2260506.248047.3125l1.951172 1.6328125c.100939-.046841.193409-.099533.269531-.1582031.0046-.00387.0091-.00777.01367-.011719l.408205-.3261716v1.0761722 1.769531 1.955078.75c.000218.351399.184843.676901.486328.857422.302153-.171668.513672-.483706.513672-.857422v-10z" fill="#fff" fill-opacity=".784314"/><path d="m14 14.25v-6.8792876l-2.032827 1.6234428c-.118128.091047-.233794.1229138-.347001.0956-.108284-.0318679-.184574-.0773892-.228873-.1365709l-.391299-.4984823 2.929733-2.454702h2.070267v8.25.75h-2z" fill="#d70015"/><g transform="matrix(-1 0 0 1 16 0)"><path d="m9 6v10h3v-4h2v-6z" fill="#fff" fill-opacity=".784314"/><g transform="translate(8)"><path d="m2 8h6v8h-6z" fill="url(#a)"/><path d="m2 7h6v9h-6z" fill="#626262" stroke-width=".774597"/><path d="m3 8h4v7h-4z" fill="url(#b)" stroke-width=".733799"/><path d="m4 9h2v2.5h-2z" fill="#dadada" stroke-width=".912871"/><path d="m4 11.5h2v2.5h-2z" fill="url(#c)" stroke-width=".632456"/></g></g></svg>