<svg height="16" viewBox="0 0 16 16" width="16" xmlns="http://www.w3.org/2000/svg" xmlns:xlink="http://www.w3.org/1999/xlink"><linearGradient id="a" gradientUnits="userSpaceOnUse" x1="-6" x2="-6" y1="40" y2="30"><stop offset="0" stop-color="#f2f2f7"/><stop offset=".25" stop-color="#e5e5ea"/><stop offset="1" stop-color="#f2f2f7"/></linearGradient><path d="m4 4c-.554 0-1 .4428827-1 .9921875v10.0156245c0 .549305.446.992188 1 .992188h11c.554 0 1-.442883 1-.992188v-10.0156245c0-.5493048-.446-.9921875-1-.9921875z" fill="#aeaeb2"/><path d="m1 1c-.554 0-1 .4428827-1 .9921875v10.0156245c0 .549305.446.992188 1 .992188h11c.554 0 1-.442883 1-.992188v-10.0156245c0-.5493048-.446-.9921875-1-.9921875zm0 1h11v10h-11z" fill="#8e8e93"/><path d="m1 2v10h11v-10z" fill="url(#a)"/></svg>