<svg height="16" viewBox="0 0 16 16" width="16" xmlns="http://www.w3.org/2000/svg"><g fill="#48484a"><rect height="2" rx=".5" width="10" y="8"/><rect height="1" rx=".5" ry=".428091" width="2" y="14"/><rect height="1" rx=".5" ry=".428091" width="2" x="4" y="14"/><rect height="1" rx=".5" ry=".428091" width="2" x="8" y="14"/><rect height="1" rx=".5" ry=".428091" width="2" x="12" y="14"/><rect height="2" rx=".5" width="16" y="11"/></g><path d="m5.4023438 8-.3007813.7636719a1.5029654 1.5029654 0 0 0 .0625 1.2363281h4.3359375c.277 0 .5-.223.5-.5v-1c0-.277-.223-.5-.5-.5z" fill="#f2f2f7" fill-opacity=".784314"/><g fill="#eac282" transform="translate(-.495572 -6.5)"><path d="m8.0648836 13.101074-1.0693114 2.712486 2.9227772-.657095z" fill="#aeaeb2" stroke="#8e8e93" stroke-linecap="square"/><path d="m11.861005 8.958496-3.524935 3.651053 2.158551 2.207933 3.493336-3.734963z" fill="#fc0" stroke="#ff9500"/><path d="m14.065594 7c-.142171 0-.283638.05379-.392578.1625977l-1.255371 1.2524416 2.135742 2.1372067 1.283203-1.229004c.21788-.2175952.21788-.5675602 0-.7851562l-1.376953-1.3754881c-.108941-.108798-.251871-.1625977-.394043-.1625977z" fill="#e68497" stroke="#b6496c"/><path d="m13.411678 10.101871-.552201-.5355508-3.5918326 3.4336798.7279278.5z" fill="#ffe014"/></g></svg>