<svg height="16" viewBox="0 0 4.2333332 4.2333335" width="16" xmlns="http://www.w3.org/2000/svg"><path d="m2.910417 3.70414h.79375v.52918h-.79375z" fill="#fc0"/><g fill="#ff3b30"><path d="m0 .00001h.529167v.529167h-.529167z"/><path d="m1.322917 1.32292h.79375v.79375h-.79375z"/><path d="m2.910417 1.32292h.79375v.79375h-.79375z"/><path d="m2.116667 2.91041h.79375v.79375h-.79375z"/><path d="m.529167 3.70414h.79375v.52918h-.79375z"/></g><g fill="#fc0"><path d="m2.910417.52916h.79375v.79375h-.79375z"/><path d="m2.116667 2.11668h.79375v.79375h-.79375z"/><path d="m.529167 2.91041h.79375v.79375h-.79375z"/><path d="m.529167.52916h.79375v.79375h-.79375z"/><path d="m1.322917-.00002h.79375v.52918h-.79375z"/></g><g fill="#28cd41"><path d="m3.704167.52916h.529166v.79375h-.529166z"/><path d="m1.322917 2.11665h.79375v.79375h-.79375z"/><path d="m3.704167 2.11668h.529167v.79375h-.529167z"/><path d="m3.704167 3.70418h.529167v.52915h-.529167z"/><path d="m0 2.11668h.529167v.79375h-.529167z"/><path d="m2.116667.00001h.79375v.529175h-.79375z"/><path d="m.529167.00001h.79375v.529175h-.79375z"/></g><g fill="#0040dd"><path d="m1.322917.52916h.79375v.79375h-.79375z"/><path d="m3.704167.00001h.529166v.529175h-.529166z"/><path d="m2.116667 3.70418h.79375v.52915h-.79375z"/><path d="m0 .52916h.529167v.79375h-.529167z"/></g><g fill="#007aff"><path d="m2.116667.52916h.79375v.79375h-.79375z"/><path d="m3.704167 1.32292h.529167v.79375h-.529167z"/><path d="m.529167 1.32292h.79375v.79375h-.79375z"/><path d="m1.322917 2.91041h.79375v.79375h-.79375z"/><path d="m2.910417 2.91041h.79375v.79375h-.79375z"/><path d="m0 2.91041h.529167v.79375h-.529167z"/></g><g fill="#f2f2f7"><path d="m.529167 2.11668h.79375v.79375h-.79375z"/><path d="m0 1.32292h.529167v.79375h-.529167z"/><path d="m2.116667 1.32292h.79375v.79375h-.79375z"/><path d="m2.910417 2.11665h.79375v.79375h-.79375z"/><path d="m3.704167 2.91041h.529167v.79375h-.529167z"/><path d="m1.322917 3.70418h.79375v.52915h-.79375z"/><path d="m0 3.70418h.529167v.52915h-.529167z"/><path d="m2.910417.00001h.79375v.529175h-.79375z"/></g></svg>