<svg viewBox="0 0 16 16" xmlns="http://www.w3.org/2000/svg" xmlns:xlink="http://www.w3.org/1999/xlink"><linearGradient id="a" gradientUnits="userSpaceOnUse" x1="9.5" x2="9.5" y1="5" y2="14"><stop offset="0" stop-color="#0040dd"/><stop offset="1" stop-color="#007aff"/></linearGradient><g transform="matrix(-1 0 0 -1 15.999309 17)"><path d="m.9993083 16c0 .554.446 1 1 1h4.90625 3.2441407 4.84961c.554 0 1-.446 1-1v-4.90625-3.2441406-4.8496094c0-.554-.446-1-1-1h-3.855469-5.2304692-3.9140625c-.1385 0-.2689531.02766-.3886719.07813-.3591562.151401-.6113281.50637-.6113281.92187v3.855469 5.230468zm1 0v-2.916016-7.230468-2.853516h2.9160156 7.2304691 2.853516v3.847656 5.244141 3.908203h-3.847657-5.2441406z" fill="#8e8e93"/><path d="m1.9999998 3-.0000004 13.000004 13.0000006-.000004v-13z" fill="#f2f2f7"/><path d="m6.4999998 5.5 6.0000002 8" fill="none" stroke="url(#a)" stroke-linecap="round" stroke-linejoin="round"/><path d="m6.4999998 13.5 6.0000002-8" fill="none" stroke="url(#a)" stroke-linecap="round" stroke-linejoin="round"/><circle cx="-3.510327" cy="-4.511018" fill="#007d1b" r="3.511018" transform="scale(-1)"/><circle cx="-3.520831" cy="-4.521522" fill="#28cd41" r="2.500514" transform="scale(-1)"/><g fill="#f2f2f7" transform="matrix(-1 0 0 -1 7.021345 8.022036)"><rect height="5" rx=".42437" ry=".5" width="1" x="3" y="1"/><rect height="1" rx=".5" ry=".407563" width="5" x="1" y="3"/></g></g></svg>