<svg viewBox="0 0 16 16" xmlns="http://www.w3.org/2000/svg" xmlns:xlink="http://www.w3.org/1999/xlink"><filter id="a" color-interpolation-filters="sRGB" height="1.094553" width="1.097492" x="-.048746" y="-.047277"><feGaussianBlur stdDeviation=".36559322"/></filter><linearGradient id="b" gradientUnits="userSpaceOnUse" x1="8" x2="8" y1="14" y2="2"><stop offset="0" stop-color="#f2f2f7"/><stop offset=".3888889" stop-color="#e5e5ea"/><stop offset="1" stop-color="#f2f2f7"/></linearGradient>








     /&amp;amp;amp;amp;amp;amp;gt;
 <path d="m1 12.940678h14v2.559322h-14z" filter="url(#a)" opacity=".15" stroke-width="1.015418"/><path d="m2 1c-1.108 0-2 .892-2 2v10c0 1.108.892 2 2 2h12c1.108 0 2-.892 2-2v-10c0-1.108-.892-2-2-2zm-1 1h14v12h-14z" fill="#8e8e93"/><path d="m1 2v12h14v-12z" fill="url(#b)"/><path d="m2 4h12v2h-12z" fill="#aeaeb2"/><g fill="#8e8e93"><path d="m2 11h1v1h-1z"/><path d="m2 9h1v1h-1z"/><path d="m4 11h10v1h-10z"/><path d="m4 9h10v1h-10z"/><path d="m2 7h1v1h-1z"/><path d="m4 7h10v1h-10z"/></g><g fill-rule="evenodd" transform="translate(-1 -2)"><path d="m2 4h12.183594l-12.183594 10.900391z" fill="#f2f2f7"/><path d="m2 1c-1.108 0-2 .892-2 2v10c0 .574005.24214993 1.087096.62695312 1.451172l.51562498-.451172 13.7148439-12 .515625-.4511719c-.357981-.3386988-.839052-.5488281-1.373047-.5488281zm-1 1h12.183594l-12.183594 10.900391z" fill="#8e8e93" transform="translate(1 2)"/></g></svg>