<svg viewBox="0 0 16 16" xmlns="http://www.w3.org/2000/svg" xmlns:xlink="http://www.w3.org/1999/xlink"><linearGradient id="a" gradientUnits="userSpaceOnUse" x1="-39.873871" x2="-39.72191" y1="10.694253" y2="4.321372"><stop offset="0" stop-color="#0040dd"/><stop offset="1" stop-color="#0a84ff"/></linearGradient><path d="m3.5039062 4.5078125-3.01367182 3 3.01367182 2.9999995v-1.9960932h2.9863282v-2h-2.9863282z" fill="url(#a)" stroke="url(#a)" stroke-linecap="round" stroke-linejoin="round" stroke-width=".999439" transform="matrix(-1 0 0 1 6.98049 0)"/><g fill="#4b4b4f"><rect height="1" ry=".5" width="13" x="2" y="2"/><rect height="1" ry=".440076" width="7" x="8" y="10"/><rect height="1" ry=".5" width="12.999998" x="2" y="14"/><rect height="1" ry=".47603" width="6.999999" x="8" y="6"/></g><g fill="#e9e9e9" fill-opacity=".992157"><rect height="1" ry=".5" width="13" x="2" y="3"/><rect height="1" ry=".440076" width="7" x="8" y="11"/><rect height="1" ry=".5" width="12.999998" x="2" y="15"/><rect height="1" ry=".47603" width="6.999999" x="8" y="7"/></g></svg>