<svg viewBox="0 0 16 16" xmlns="http://www.w3.org/2000/svg" xmlns:xlink="http://www.w3.org/1999/xlink"><linearGradient id="a" gradientUnits="userSpaceOnUse" x1="5.779193" x2="5.536466" y1="9.993506" y2="1.000035"><stop offset="0" stop-color="#0040dd"/><stop offset="1" stop-color="#007aff"/></linearGradient>





     /&amp;amp;amp;amp;gt;
 <path d="m5.5364663 1.0000351c-.2826966-.00348741-.5134911.2532544-.5136411.5712738v7.8572248c.0003644.3914471.3424145.6666763.6718345.5405141l8.9857803-3.4298459c.436841-.1695915.46197-.8538975.03906-1.0634501l-8.9838292-4.4273788c-.0628333-.0310838-.1305756-.0475313-.1992067-.0483413z" fill="url(#a)"/><path d="m2.9771752 1c-.554 0-1 .446-1 1v13c0 .554.446 1 1 1s1-.446 1-1v-13c0-.554-.446-1-1-1z" fill="#8e8e93"/></svg>