<svg height="16" viewBox="0 0 16 16" width="16" xmlns="http://www.w3.org/2000/svg" xmlns:xlink="http://www.w3.org/1999/xlink"><linearGradient id="a" gradientUnits="userSpaceOnUse" x1="8" x2="8" y1="16" y2="1"><stop offset="0" stop-color="#007d1b"/><stop offset="1" stop-color="#28cd41"/></linearGradient><path d="m12.5 1c-.116134 0-.218039.0453863-.302734.1113281l-6.7167972 1.9257813c-.266279.0763186-.4804688.3597187-.4804688.6367187v2.5 6.0410159a1.6894133 2.0554846 62.746032 0 0 -1.015625-.105469 1.6894133 2.0554846 62.746032 0 0 -1.984375 2.03125 1.6894133 2.0554846 62.746032 0 0 1.984375 1.46875 1.6894133 2.0554846 62.746032 0 0 1.9785156-1.923828c.0228932-.057432.0371094-.11976.0371094-.185547v-7.1113281l6-1.7207031v5.5468752a1.6894133 2.0554846 62.746032 0 0 -1.015625-.105469 1.6894133 2.0554846 62.746032 0 0 -1.984375 2.03125 1.6894133 2.0554846 62.746032 0 0 1.984375 1.46875 1.6894133 2.0554846 62.746032 0 0 1.978516-1.923828c.022893-.057432.037109-.11976.037109-.185547v-7.6191406-2.3808594-.1191406c0-.256822-.18671-.40446417-.425781-.3652344-.025244-.0038957-.047851-.015625-.074219-.015625z" fill="url(#a)"/></svg>