<svg viewBox="0 0 16 16" xmlns="http://www.w3.org/2000/svg">/&amp;amp;amp;gt;<circle cx="8" cy="8" fill="#f2f2f7" r="7"/><path d="m8 .50000015c-4.138241 0-7.5 3.36175825-7.5 7.49999925 0 4.1382426 3.361759 7.5000016 7.5 7.5000006 4.138242 0 7.500005-3.361758 7.5-7.5000006 0-4.138241-3.361758-7.49999925-7.5-7.49999925z" fill="none" stroke="#8e8e93" stroke-linecap="round" stroke-linejoin="round"/><g fill="#8e8e93"><rect fill="#ff9500" height="5" ry=".5" width="1" x="7" y="4"/><rect fill="#ff9500" height="1" ry=".5" width="5" x="7" y="8"/><path d="m14 8.5a.5.5 0 0 1 -.5.5.5.5 0 0 1 -.5-.5.5.5 0 0 1 .5-.5.5.5 0 0 1 .5.5z"/><path d="m8 2.5a.5.5 0 0 1 -.5.5.5.5 0 0 1 -.5-.5.5.5 0 0 1 .5-.5.5.5 0 0 1 .5.5z"/><path d="m3 8.5a.5.5 0 0 1 -.5.5.5.5 0 0 1 -.5-.5.5.5 0 0 1 .5-.5.5.5 0 0 1 .5.5z"/><path d="m8 13.5a.5.5 0 0 1 -.5.5.5.5 0 0 1 -.5-.5.5.5 0 0 1 .5-.5.5.5 0 0 1 .5.5z"/></g></svg>