<svg viewBox="0 0 16 16" xmlns="http://www.w3.org/2000/svg">/&amp;amp;gt;<rect fill="#8e8e93" height="14" rx="1.5" width="14" x="1" y="1"/><path d="m2.5 2c-.2942972 0-.5.2057028-.5.5v11c0 .294297.2057028.5.5.5h11c.294297 0 .5-.205703.5-.5v-11c0-.2942972-.205703-.5-.5-.5z" fill="#f2f2f7"/><g fill="#48484a"><path d="m3.5 7h7c.277 0 .5.223.5.5s-.223.5-.5.5h-7c-.277 0-.5-.223-.5-.5s.223-.5.5-.5z"/><path d="m3.477373 11h5.045254c.2644646 0 .477373.212908.477373.477373v.04525c0 .264469-.2129084.477377-.477373.477377h-5.045254c-.2644646 0-.477373-.212908-.477373-.477373v-.04525c0-.264469.2129084-.477377.477373-.477377z"/><path d="m3.454745 3h5.09051c.2519287 0 .454745.2028163.454745.454745v.09051c0 .2519287-.2028163.454745-.454745.454745h-5.09051c-.2519287 0-.454745-.2028163-.454745-.454745v-.09051c0-.2519287.2028163-.454745.454745-.454745z"/></g><g fill="#aeaeb2"><path d="m2 5h12v.5h-12z"/><path d="m2 9h12v.5h-12z"/></g></svg>