<svg viewBox="0 0 16 16" xmlns="http://www.w3.org/2000/svg" xmlns:xlink="http://www.w3.org/1999/xlink"><linearGradient id="a" gradientUnits="userSpaceOnUse" x1="12" x2="12" xlink:href="#f" y1="8" y2="2"/><linearGradient id="b" gradientTransform="matrix(-1 0 0 1 48.02254 -4)" gradientUnits="userSpaceOnUse" x1="13" x2="13" y1="7" y2="1"><stop offset="0" stop-color="#0040dd"/><stop offset="1" stop-color="#007aff"/></linearGradient><linearGradient id="c" gradientTransform="translate(0 1)" gradientUnits="userSpaceOnUse" x1="3" x2="3" xlink:href="#b" y1="14" y2="10"/><linearGradient id="d" gradientTransform="translate(0 1)" gradientUnits="userSpaceOnUse" x1="8" x2="8" xlink:href="#b" y1="14" y2="11"/><linearGradient id="e" gradientTransform="translate(0 1)" gradientUnits="userSpaceOnUse" x1="13" x2="13" xlink:href="#b" y1="14" y2="10"/><linearGradient id="f" gradientUnits="userSpaceOnUse" x1="8" x2="8" y1="15" y2="1"><stop offset="0" stop-color="#d1d1d6"/><stop offset=".2857143" stop-color="#e5e5ea"/><stop offset="1" stop-color="#f2f2f7"/></linearGradient><linearGradient id="g" gradientUnits="userSpaceOnUse" x1="4" x2="4" xlink:href="#f" y1="8" y2="2"/>



/&amp;amp;amp;amp;gt;<path d="m9.4140625 2c-.247162 0-.4140625.1669005-.4140625.4140625v5.171875c0 .247162.1669005.4140625.4140625.4140625h5.1718755c.247162 0 .414062-.1668998.414062-.4140625v-5.171875c0-.2471627-.1669-.4140625-.414062-.4140625z" fill="url(#a)"/><path d="m9.4140625 1c-.7835768 0-1.4140625.6304857-1.4140625 1.4140625v5.171875c0 .7835768.6304857 1.4140625 1.4140625 1.4140625h5.1718755c.783577 0 1.414062-.6304857 1.414062-1.4140625v-5.171875c0-.7835768-.630485-1.4140625-1.414062-1.4140625zm0 1h5.1718755c.247161 0 .414062.1669.414062.4140625v5.171875c0 .2471625-.166901.4140625-.414062.4140625h-5.1718755c-.2471618 0-.4140625-.1669007-.4140625-.4140625v-5.171875c0-.2471618.1669007-.4140625.4140625-.4140625z" fill="#8e8e93"/><path d="m4 1a4 4 0 0 0 -4 4 4 4 0 0 0 4 4 4 4 0 0 0 4-4 4 4 0 0 0 -4-4zm0 1a3 3 0 0 1 3 3 3 3 0 0 1 -3 3 3 3 0 0 1 -3-3 3 3 0 0 1 3-3z" fill="#8e8e93"/><path d="m7 5a3 3 0 0 1 -3 3 3 3 0 0 1 -3-3 3 3 0 0 1 3-3 3 3 0 0 1 3 3z" fill="url(#g)"/><path d="m6 5a2 2 0 0 1 -2 2 2 2 0 0 1 -2-2 2 2 0 0 1 2-2 2 2 0 0 1 2 2z" fill="#48484a"/><path d="m5 13a2 2 0 0 1 -2 2 2 2 0 0 1 -2-2 2 2 0 0 1 2-2 2 2 0 0 1 2 2z" fill="url(#c)"/><path d="m10 13a2 2 0 0 1 -2 2 2 2 0 0 1 -2-2 2 2 0 0 1 2-2 2 2 0 0 1 2 2z" fill="url(#d)"/><path d="m15 13a2 2 0 0 1 -2 2 2 2 0 0 1 -2-2 2 2 0 0 1 2-2 2 2 0 0 1 2 2z" fill="url(#e)"/><path d="m15 2.6074219-3.332031 3.1738281-.8125-1.015625c-.722237-.3388985-1.1818733.0590259-1.0332034.7441406l1.1777344 1.4902344c.305106.2873828.626101.4510487 1.023438.0058594l2.976562-2.5839844z" fill="#48484a"/></svg>