<svg viewBox="0 0 16 16" xmlns="http://www.w3.org/2000/svg" xmlns:xlink="http://www.w3.org/1999/xlink"><linearGradient id="a" gradientUnits="userSpaceOnUse" x1="-11.40678" x2="-11.457627" y1="13.355932" y2="-.627119"><stop offset="0" stop-color="#d1d1d6"/><stop offset=".2857143" stop-color="#e5e5ea"/><stop offset="1" stop-color="#f2f2f7"/></linearGradient><linearGradient id="b" gradientUnits="userSpaceOnUse" x1="8" x2="8" y1="14" y2="4"><stop offset="0" stop-color="#f2f2f7"/><stop offset="1" stop-color="#f2f2f7" stop-opacity="0"/></linearGradient>

/&amp;amp;gt;<path d="m8 1c3.865993 0 7 3.1340068 7 7 0 3.865993-3.134007 7-7 7-3.8659932 0-7-3.134007-7-7 0-3.8659932 3.1340068-7 7-7z" fill="url(#a)"/><path d="m8 0a8 8 0 0 0 -8 8 8 8 0 0 0 8 8 8 8 0 0 0 8-8 8 8 0 0 0 -8-8zm0 1a7 7 0 0 1 7 7 7 7 0 0 1 -7 7 7 7 0 0 1 -7-7 7 7 0 0 1 7-7z" fill="#8e8e93"/><path d="m3 4a1.0001 1.0001 0 0 0 -1 1v.5 2.515625a1.0001 1.0001 0 0 0 1 1h1a1.0001 1.0001 0 0 0 1-1v-1.015625h6v2h-1v-.5a1.0001 1.0001 0 0 0 -1.5996094-.8007812l-2.6660156 2a1.0001 1.0001 0 0 0 0 1.6015622l2.6660156 2a1.0001 1.0001 0 0 0 1.5996094-.800781v-.5h3a1.0001 1.0001 0 0 0 1-1v-.5-5-.5a1.0001 1.0001 0 0 0 -1-1z" fill="url(#b)"/><path d="m3 5v.5 2.515625h1v-1.515625c.0000276-.2761309.2238691-.4999724.5-.5h7c.276131.0000276.499972.2238691.5.5v3c-.000028.2761309-.223869.4999724-.5.5h-2c-.2761309-.0000276-.4999724-.2238691-.5-.5v-1l-2.6660156 2 2.6660156 2v-1c.0000276-.276131.2238691-.499972.5-.5h3.5v-.5-5-.5z" fill="#48484a"/></svg>