<svg viewBox="0 0 16 16" xmlns="http://www.w3.org/2000/svg" xmlns:xlink="http://www.w3.org/1999/xlink"><filter id="a" color-interpolation-filters="sRGB" height="1.094553" width="1.097492" x="-.048746" y="-.047277"><feGaussianBlur stdDeviation=".36559322"/></filter><linearGradient id="b" gradientTransform="translate(0 1)" gradientUnits="userSpaceOnUse" x1="8" x2="8" xlink:href="#d" y1="13" y2="1"/><linearGradient id="c" gradientTransform="translate(0 2)" gradientUnits="userSpaceOnUse" x1="8" x2="8" xlink:href="#d" y1="13" y2="1"/><linearGradient id="d" gradientTransform="translate(0 2)" gradientUnits="userSpaceOnUse" x1="8" x2="8" y1="13" y2="1"><stop offset="0" stop-color="#f2f2f7"/><stop offset=".3888889" stop-color="#e5e5ea"/><stop offset="1" stop-color="#f2f2f7"/></linearGradient>






     /&amp;amp;amp;amp;amp;gt;
 <path d="m4 12.940678h11v2.559322h-11z" filter="url(#a)" opacity=".15" stroke-width="1.015418"/><path d="m2 8.940678h11v2.559322h-11z" filter="url(#a)" opacity=".15" stroke-width="1.015418"/><g transform="translate(-2 -5)"><path d="m5 6c-1.108 0-2 .892-2 2v6c0 1.108.892 2 2 2h9c1.108 0 2-.892 2-2v-6c0-1.108-.892-2-2-2zm-1 1h11v8h-11z" fill="#8e8e93"/><path d="m4 7v8h11v-8z" fill="url(#c)"/><path d="m5 8h9v2h-9z" fill="#aeaeb2"/><g fill="#8e8e93"><path d="m5 13h1v1h-1z"/><path d="m5 11h1v1h-1z"/><path d="m7 13h7v1h-7z"/><path d="m7 11h7v1h-7z"/></g></g><path d="m5 5c-1.108 0-2 .892-2 2v6c0 1.108.892 2 2 2h9c1.108 0 2-.892 2-2v-6c0-1.108-.892-2-2-2zm-1 1h11v8h-11z" fill="#8e8e93"/><path d="m4 6v8h11v-8z" fill="url(#b)"/><path d="m5 7h9v2h-9z" fill="#aeaeb2"/><g fill="#8e8e93" transform="translate(0 -1)"><path d="m5 13h1v1h-1z"/><path d="m5 11h1v1h-1z"/><path d="m7 13h7v1h-7z"/><path d="m7 11h7v1h-7z"/></g><path d="m3 1c-.3669301 0-.7049987.1042911-1 .2753906v.7246094a1.0001 1.0001 0 0 0 1 1h3.1972656l-4.0449218 6.4707031a1.0001 1.0001 0 0 0 .6445312 1.5078129 1.0001 1.0001 0 0 0 .0039062.001953c.0664274.006606.1309958.019531.1992188.019531h10a1.0001 1.0001 0 0 0 .847656-1.5292969l-4.0449216-6.4707031h3.1972656a1.0001 1.0001 0 0 0 .90625-.578125c-.248117-.8223406-1.00088-1.421875-1.90625-1.421875z" fill="#f2f2f7" fill-opacity=".784314"/><g fill="#48484a" transform="matrix(0 1 1 0 -1 -2)"><path d="m12 4v10l-8-5z"/><path d="m-4 4h2v10h-2z" transform="scale(-1 1)"/></g></svg>