<svg viewBox="0 0 16 16" xmlns="http://www.w3.org/2000/svg" xmlns:xlink="http://www.w3.org/1999/xlink"><linearGradient id="a" gradientTransform="matrix(0 -1 -1 0 12.004507 11.971283)" gradientUnits="userSpaceOnUse" x1="-.028717" x2="6.971283" y1="9.004507" y2="9.004507"><stop offset="0" stop-color="#0040dd"/><stop offset="1" stop-color="#0a84ff"/></linearGradient><path d="m8.004507 8.4790946a.50029411.50029411 0 0 1 -.4941406.4921875l-1.5175782.017578v2.4921879a.50029411.50029411 0 0 1 -.5.5h-2a.50029411.50029411 0 0 1 -.5-.5v-2.4921878l-1.4941402-.017578a.50029411.50029411 0 0 1 -.347657-.8535156l3.0000004-3a.50029411.50029411 0 0 1 .7070312 0l3 3a.50029411.50029411 0 0 1 .1464844.361328z" fill="url(#a)"/><g fill="#69696e"><rect height="1" ry=".5" width="13" x="3" y="2"/><rect height="1" ry=".440076" width="7" x="8.999999" y="10"/><rect height="1" ry=".5" width="6.999997" x="9" y="14"/><rect height="1" ry=".47603" width="6.999999" x="8.999999" y="6"/></g><g fill="#eaeaea" fill-opacity=".992157"><rect height="1" ry=".5" width="13" x="3" y="3"/><rect height="1" ry=".440076" width="7" x="8.999999" y="11"/><rect height="1" ry=".380151" width="6.999997" x="9" y="15"/><rect height="1" ry=".47603" width="6.999999" x="8.999999" y="7"/></g></svg>