<svg viewBox="0 0 16 16" xmlns="http://www.w3.org/2000/svg">/&amp;gt;<path d="m1 7v4.089844 3.910156h4.6503906 4.3496094v-4.089844-3.910156h-4.6503906z" fill="#f2f2f7"/><path d="m.5 6a.50005.50005 0 0 0 -.5.5v4.5 4.5a.50005.50005 0 0 0 .5.5h5.4140625 4.5859375a.50005.50005 0 0 0 .5-.5v-4.5-4.5a.50005.50005 0 0 0 -.5-.5h-5.4140625zm.5 1h4.3496094 4.6503906v3.910156 4.089844h-4.3496094-4.6503906v-3.910156z" fill="#8e8e93"/><circle cx="11" cy="5" fill="#ff9500" r="5"/><circle cx="11" cy="5" fill="#fc0" fill-opacity=".996078" r="4"/></svg>