<svg viewBox="0 0 16 16" xmlns="http://www.w3.org/2000/svg">/&amp;amp;amp;gt;<path d="m6.2531417-.00195313a1.0019848 1.0019848 0 0 0 -.9375.65039063l-5.25195314 14.0000005a1.0019848 1.0019848 0 0 0 .93750004 1.353515h1.875a1.0019848 1.0019848 0 0 0 .9433594-.664062l1.1914062-3.335938h3.9980464l1.1699224 3.330078a1.0019848 1.0019848 0 0 0 .945313.669922h1.875a1.0019848 1.0019848 0 0 0 .939453-1.349609l-5.1699223-14.00000025a1.0019848 1.0019848 0 0 0 -.9394531-.65429688zm.7753907 6.35937503.5761718 1.640625h-1.1621094z" fill="#4b4b4f"/><path d="m6.2531417 1-5.2519531 14h1.875l1.4296875-4h5.4140625l1.4042974 4h1.875l-5.1699224-14zm.7558594 2.4335938h.056641l1.9531245 5.5664062h-3.9980468z" fill="#fff"/><g fill="#eac282" transform="translate(-.495572 -.5)"><path d="m8.0648836 13.101074-1.0693114 2.712486 2.9227772-.657095z" fill="#a2a2a7" stroke="#848489" stroke-linecap="square"/><path d="m11.861005 8.958496-3.524935 3.651053 2.158551 2.207933 3.493336-3.734963z" fill="#fc0" stroke="#c89e00"/><path d="m14.065594 7c-.142171 0-.283638.05379-.392578.1625977l-1.255371 1.2524416 2.135742 2.1372067 1.283203-1.229004c.21788-.2175952.21788-.5675602 0-.7851562l-1.376953-1.3754881c-.108941-.108798-.251871-.1625977-.394043-.1625977z" fill="#e68497" stroke="#b6496c"/><path d="m13.411678 10.101871-.552201-.5355508-3.5918326 3.4336798.7279278.5z" fill="#ffe014"/></g></svg>