<svg viewBox="0 0 16 16" xmlns="http://www.w3.org/2000/svg" xmlns:xlink="http://www.w3.org/1999/xlink"><clipPath id="a"><path d="m15.291698 7.0118053c-.08045-.015575-.163987-.01645-.249867.00164-.103393.040599-.249464.1135514-.470341.2950811l-5.57149 4.6914736-2.561703-1.752966c-.3146717-.3230895-.8872488-.3230655-1.2019794 0-.3146887.323073-.3147137.910865 0 1.233975l3.5081864 3.875179.65325.643812.5748598-.697463 5.8531172-6.8673289c.415147-.4639881.0291-1.3148091-.534033-1.423429z"/></clipPath><filter id="b" color-interpolation-filters="sRGB" height="1.079999" width="1.065455" x="-.032728" y="-.039999"><feGaussianBlur stdDeviation=".14999781"/></filter><linearGradient id="c" gradientUnits="userSpaceOnUse" x1="8.932495" x2="9.050846" y1="16.008474" y2="6.991526"><stop offset="0" stop-color="#1ec337"/><stop offset="1" stop-color="#32d74b"/></linearGradient>








     /&amp;amp;amp;amp;amp;amp;gt;
 <path d="m0 5v9.5c-.00038442.276301.22369855.500384.5.5h15c.276301.000384.500384-.223699.5-.5v-9.5h-.998047v9.001953h-14.00390612v-9.001953z" fill="#69696e"/><path d="m1 5h14v9h-14z" fill="#fff"/><path d="m1 2h14v2h-14z" fill="#0a84ff" stroke-width=".661438"/><path d="m.50195312 1.0019531c-.27630145-.000384-.50038441.223699-.49999999.5v3.4980469h.99804687 14v-1h-4v-2h4.003906v3h.998047v-3.4980469c.000384-.276301-.223699-.500384-.5-.5zm.49804688.9980469h4v2h-4zm5 0h4v2h-4z" fill="#0040dd"/><path d="m5 5v4h-4v1h4v4h1v-4h4v4h1v-4h4v-1h-4v-4h-1v4h-4v-4z" fill="#bababa"/><path d="m15.164062 6.0039062c-.108612.0006372-.219323.0122379-.328124.0351563a.99593614.99593614 0 0 0 -.158204.046875c-.18656.0732561-.453721.2192565-.738281.453125a.99593614.99593614 0 0 0 -.007812.0078125l-4.994141 4.203125-1.9375-1.3261719c-.735492-.6160601-1.7883134-.5795232-2.4765625.1269531-.7362069.7558218-.7362125 1.8691458 0 2.6249998l2.5566406 2.824219h4.4589839l4.460938-5.234375v-3.5410156c-.154374-.0852234-.324387-.1537658-.519531-.1914063-.10128-.0196076-.207794-.029934-.316407-.0292969z" fill="#fff" fill-opacity=".784314"/><path d="m15.291698 7.0118053c-.08045-.015575-.163987-.01645-.249867.00164-.103393.040599-.249464.1135514-.470341.2950811l-5.57149 4.6914736-2.561703-1.752966c-.3146717-.3230895-.8872488-.3230655-1.2019794 0-.3146887.323073-.3147137.910865 0 1.233975l3.5081864 3.875179.65325.643812.5748598-.697463 5.8531172-6.8673289c.415147-.4639881.0291-1.3148091-.534033-1.423429z" fill="url(#c)"/><path clip-path="url(#a)" d="m15.291698 7.0118053c-.08045-.015575-.163987-.01645-.249867.00164-.103393.040599-.249464.1135514-.470341.2950811l-5.57149 4.6914736-2.561703-1.752966c-.3146717-.3230895-.8872488-.3230655-1.2019794 0-.3146887.323073-.3147137.910865 0 1.233975l3.5081864 3.875179.65325.643812.5748598-.697463 5.8531172-6.8673289c.415147-.4639881.0291-1.3148091-.534033-1.423429z" fill="none" filter="url(#b)" stroke="#1ec337"/></svg>