<svg viewBox="0 0 16 16" xmlns="http://www.w3.org/2000/svg" xmlns:xlink="http://www.w3.org/1999/xlink"><linearGradient id="a" gradientTransform="matrix(.70710679 .70710677 -.70710677 .70710679 -36 6)" gradientUnits="userSpaceOnUse" x1="38.337067" x2="32.526913" y1="-26.009651" y2="-31.819805"><stop offset="0" stop-color="#0040dd"/><stop offset="1" stop-color="#007aff"/></linearGradient>

/&amp;amp;amp;amp;gt;<path d="m1 4c-.554 0-1 .446-1 1v8c0 .554.446 1 1 1h8c.554 0 1-.446 1-1v-8c0-.554-.446-1-1-1z" fill="#8e8e93"/><path d="m1 5h8v8h-8z" fill="#8e8e93"/><path d="m11 0c-2.7614237 0-5 2.2385763-5 5s2.2385763 5 5 5c2.761424 0 5-2.2385763 5-5s-2.238576-5-5-5z" fill="#ff9500" stroke-width=".833333"/><path d="m15 5a4 4 0 0 1 -4 4 4 4 0 0 1 -4-4 4 4 0 0 1 4-4 4 4 0 0 1 4 4z" fill="#ffcc00"/><g fill-rule="evenodd"><path d="m9.4999995 16.216381 5.7134635-5.608191-5.7134635-5.60819-5.7134625 5.60819z" fill="#0040dd"/><path d="m9.5 6.5-4.1855469 4.107422 4.1855469 4.109375 4.185547-4.109375z" fill="url(#a)"/></g></svg>