<svg viewBox="0 0 16 16" xmlns="http://www.w3.org/2000/svg" xmlns:xlink="http://www.w3.org/1999/xlink"><linearGradient id="a" gradientTransform="matrix(.81735493 0 -.23689508 1.2234587 -7.663725 -1.054604)" gradientUnits="userSpaceOnUse" x1="19.43474" x2="19.986498" xlink:href="#c" y1="11.4876" y2="4.948761"/><linearGradient id="b" gradientTransform="matrix(.73341185 0 -.21256575 .82415938 -6.0553 3.514739)" gradientUnits="userSpaceOnUse" x1="23.664351" x2="23.453386" xlink:href="#c" y1="11.509012" y2="6.655582"/><linearGradient id="c" gradientTransform="translate(-11 -1)" gradientUnits="userSpaceOnUse" x1="14" x2="13.79661" y1="22" y2="2.135593"><stop offset="0" stop-color="#0040dd"/><stop offset="1" stop-color="#007aff"/></linearGradient>








     /&amp;amp;amp;amp;amp;amp;gt;
 <path d="m2.5 2.5c-.554 0-1 .446-1 1v11c0 .554.446 1 1 1h11c.554 0 1-.446 1-1v-11c0-.554-.460187-1.1245722-1-1h-1v1c0 .554-.446 1-1 1h-7c-.554 0-.9942233-.4460301-1-1v-1z" fill="#a2845e" stroke="#7f6545"/><path d="m8 .5c-1.1045695 0-2 .8954305-2 2h-2.5v2h4.5 4.5v-2h-2.5c0-1.1045695-.8954305-2-2-2zm0 1c.5522847 0 1 .4477153 1 1s-.4477153 1-1 1-1-.4477153-1-1c.0002944-.03328.00225-.066524.00586-.099609.0511359-.510819.4807684-.8999361.99414-.900391z" fill="#48484a" stroke="#48484a"/><path d="m4 3c-.554 0-1 .446-1 1v10c0 .554.446 1 1 1h8c.554 0 1-.446 1-1v-10c0-.554-.446-1-1-1z" fill="#8e8e93"/><path d="m4 4v10h8v-10z" fill="#f2f2f7"/><path d="m4.5 8 .290735-.9928326 1.448934.0000002.145598-.7519503c.122571-.6330287.327161-1.1215219.61377-1.4654797.289763-.3476169.632652-.5214254 1.028669-.5214254.08312 0 .164104.010977.242968.032932.08202.018295.170818.045739.266403.08233l-.247417.8233033c-.04117-.014637-.09247-.027443-.153902-.03842-.05899-.010978-.121482-.016467-.187485-.016467-.212676 0-.388771.095137-.528284.2854119-.138805.1866154-.242925.4592202-.312359.8178145l-.145598.7519503 1.537968-.0071672-.290735.9928328-1.537968.0071672-.605324 4.154742.567935.153683-.133908.691575h-1.917748l.133908-.691575.627449-.153683.605325-4.154742z" fill="url(#a)"/><path d="m7.407023 12.534132.403599-.08504 1.343571-1.525615-.579686-1.368875-.359734-.08504.12111-.469562h1.39506l-.121109.469564-.333887.04437.346832.906706.986668-.910404-.308663-.04067.121109-.469566h1.404932l-.121108.469564-.403602.08504-1.45368 1.368875.75231 1.525615.363024.08504-.120149.465866h-1.395061l.120149-.465866.326354-.04067-.5237-1.059749-.871362 1.059749.308663.04067-.12015.465866h-1.40164z" fill="url(#b)"/></svg>