<svg viewBox="0 0 16 16" xmlns="http://www.w3.org/2000/svg" xmlns:xlink="http://www.w3.org/1999/xlink"><linearGradient id="a" gradientUnits="userSpaceOnUse" x1="4.5" x2="4.5" y1="9.000243" y2=".000243"><stop offset="0" stop-color="#2a9240"/><stop offset="1" stop-color="#32d74b"/></linearGradient><linearGradient id="b" gradientUnits="userSpaceOnUse" x1="12.875071" x2="5.124855" y1="15.499941" y2="5.124941"><stop offset="0" stop-color="#0040dd"/><stop offset="1" stop-color="#0a84ff"/></linearGradient><g fill="#a2a2a7"><path d="m0 0h3v3h-3z"/><path d="m5 0v3h5.875l.53125-.53125-.08594.097656c.288389-.3753123.73964-.5933074 1.212891-.5859374.0013-.0000025.0026-.0000025.0039 0 .457925.00857.888773.2272343 1.166016.5917968l-.089836-.1015623.529297.5292969h1.857422v-3z"/><path d="m0 5v11h3v-1.90625l-.5117188-.511719.095703.08398c-.7599903-.587053-.7570104-1.7956.00586-2.378907l-.0996098.087896.5097656-.509766v-5.865234z"/></g><path d="m12.492188 3a.50005.50005 0 0 0 -.345704.1464844l-3 2.9999996a.50005.50005 0 0 0 .353516.853516h2.005859l-.002.988281a.49599547.49599547 0 0 0 0 .002c0 1.940444-1.561769 3.502834-3.501953 3.503907l-1.001906-.003954v-1.990234a.49998857.49998857 0 0 0 -.515625-.5.49998857.49998857 0 0 0 -.337891.146484l-2.9999996 3a.49998857.49998857 0 0 0 0 .707032l2.9999996 3a.49998857.49998857 0 0 0 .853516-.353516v-2.017578l.998047.0039a.49599547.49599547 0 0 0 .002 0c3.028788 0 5.495011-2.465601 5.496094-5.49414v-.002l.003859-.990182h2a.50005.50005 0 0 0 .353516-.853516l-3-2.9999996a.50005.50005 0 0 0 -.361328-.1464844z" fill="url(#b)" fill-rule="evenodd"/><path d="m1.3652344 0c-.2662742.18391465-.51906835.38820895-.7480469.6171875s-.43327285.4817727-.6171875.7480469v1.6347656h3v-3zm3.6347656 0v1.84375c.057034-.0511116.2023358-.1987845.1660156-.1523438-.014204.018162-.1345413.1384459-.1660156.1738282v1.1347656h4.9902344v-2.5c.0000667-.17314446-.0404002-.34098057-.1035156-.5zm-5 5v2.6347656c.18391465.2662742.38820895.5190683.6171875.7480469.6575491.6575491 1.4891978 1.1339906 2.3828125 1.390625v-4.3105469c-.0784513-.1283794-.097525-.2867868-.0800781-.4628906z" fill="#fff" fill-opacity=".784314"/><path d="m4.5.00024262a4.5 4.5 0 0 0 -4.5 4.49999998 4.5 4.5 0 0 0 4.5 4.5 4.5 4.5 0 0 0 4.263672-3.078125l-1.894531-.632813a2.5 2.5 0 0 1 -2.369141 1.710938 2.5 2.5 0 0 1 -2.5-2.5 2.5 2.5 0 0 1 2.5-2.5 2.5 2.5 0 0 1 1.376953.4160156l-.730469.7304684a.50005.50005 0 0 0 .353516.853516h3a.50005.50005 0 0 0 .5-.5v-2.99999998a.50005.50005 0 0 0 -.515625-.5.50005.50005 0 0 0 -.337891.1464844l-.84375.84375a4.5 4.5 0 0 0 -2.802734-.9902344z" fill="url(#a)"/></svg>