<svg viewBox="0 0 16 16" xmlns="http://www.w3.org/2000/svg" xmlns:xlink="http://www.w3.org/1999/xlink"><linearGradient id="a" gradientUnits="userSpaceOnUse" x1="87.5" x2="87.5" y1="9" y2="-3"><stop offset="0" stop-color="#0040dd"/><stop offset="1" stop-color="#0a84ff"/></linearGradient>


/&amp;amp;amp;gt;<path d="m2 4h12v10h-12z" fill="#fff"/><path d="m1 3v12h14v-12zm1 1h12v10h-12z" fill="#98989d"/><path d="m0 1h16v2h-16z" fill="#69696e"/><path d="m3 5h10v2h-10z" fill="#ff9500"/><g fill="#98989d" transform="translate(0 -1)"><path d="m3 11h1v1h-1z"/><path d="m3 9h1v1h-1z"/><path d="m3 13h1v1h-1z"/><path d="m5 11h6v1h-6z"/><path d="m5 9h8v1h-8z"/><path d="m5 13h4v1h-4z"/></g><path d="m10 3a1.0001 1.0001 0 0 0 -1 1v.00195c-.0010592-.0000447-.0028599-.0019515-.0039062-.00195v1a1.0001 1.0001 0 0 0 .2382812.6445312 1.0001 1.0001 0 0 0 .2246094.1972657 1.0001 1.0001 0 0 0 .087891.048828 1.0001 1.0001 0 0 0 .091797.041016 1.0001 1.0001 0 0 0 .09375.03125 1.0001 1.0001 0 0 0 .085937.019531 1.0001 1.0001 0 0 0 .078125.011719 1.0001 1.0001 0 0 0 .0957031.0058591 1.0001 1.0001 0 0 0 .00391 0 1.0001 1.0001 0 0 0 .00391 0h1v1.0019531h-.0039v.9980469h.0039v.00195h-.0039v5.99805h3v-1.001953h.0039v-.998047h-.0039v-.002h.0039v-5.998h.998047l.0019-3h-2a1.0001 1.0001 0 0 0 -.5.1347656 1.0001 1.0001 0 0 0 -.4999545-.1347656zm5.003906 0v2h-.002v1a1.0001 1.0001 0 0 0 .998094-1v-1a1.0001 1.0001 0 0 0 -.996094-1zm-.002 11v.002h-.0039v.998h.002.5c.201158.00028.371839-.11981.451172-.291016a1.0001 1.0001 0 0 0 -.949225-.708984zm-5.0371092.002a1.0001 1.0001 0 0 0 -.064453.0039 1.0001 1.0001 0 0 0 -.097656.01367 1.0001 1.0001 0 0 0 -.00195 0 1.0001 1.0001 0 0 0 -.00977.002 1.0001 1.0001 0 0 0 -.085937.02344 1.0001 1.0001 0 0 0 -.085937.03125 1.0001 1.0001 0 0 0 -.021484.0078 1.0001 1.0001 0 0 0 -.1621093.08984 1.0001 1.0001 0 0 0 -.080078.06055 1.0001 1.0001 0 0 0 -.3593287.76555h5.9980472v-.998047z" fill="#fff" fill-opacity=".784314"/><path d="m10 4v1h2v-1zm2 1v10h1v-10zm1 0h2v-1h-2zm0 10v1h2v-1zm-1 0h-2v1h2z" fill="url(#a)"/></svg>