<svg viewBox="0 0 16 16" xmlns="http://www.w3.org/2000/svg" xmlns:xlink="http://www.w3.org/1999/xlink"><linearGradient id="a" gradientUnits="userSpaceOnUse" x1="-21.118645" x2="-21.118645" y1="22.61017" y2="10.11017"><stop offset="0" stop-color="#2a9240"/><stop offset="1" stop-color="#32d74b"/></linearGradient><linearGradient id="b" gradientUnits="userSpaceOnUse" x1="66" x2="66" xlink:href="#d" y1="25" y2="14"/><linearGradient id="c" gradientUnits="userSpaceOnUse" x1="9.491526" x2="8.81356" y1="1.084746" y2="15.18644"><stop offset="0" stop-color="#848489"/><stop offset="1" stop-color="#616165"/></linearGradient><linearGradient id="d" gradientUnits="userSpaceOnUse" x1="61" x2="61" y1="29" y2="18"><stop offset="0" stop-color="#e9e9e9"/><stop offset=".2857143" stop-color="#f2f2f2"/><stop offset="1" stop-color="#fbfbfb"/></linearGradient>







     /&amp;amp;amp;amp;amp;gt;
 <path d="m1 8h9v7h-9z" fill="url(#d)"/><path d="m6 4h9v7h-9z" fill="url(#b)"/><path d="m6 0c-.554 0-1 .446-1 1v3h-4c-.554 0-1 .446-1 1v10c0 .554.446 1 1 1h9c.554 0 1-.446 1-1v-3h4c.554 0 1-.446 1-1v-10c0-.554-.446-1-1-1zm4 4h5v7h-4v-6c0-.554-.446-1-1-1zm-9 4h4v3c0 .554.446 1 1 1h4v3h-9zm5 0h4v3h-4z" fill="url(#c)"/><g fill="#98989d"><path d="m2 9h2v1h-2z"/><path d="m7 9h2v1h-2z"/><path d="m2 11h2v1h-2z"/><path d="m2 13h2v1h-2z"/><path d="m12 9h2v1h-2z"/><path d="m12 7h2v1h-2z"/><path d="m12 5h2v1h-2z"/><path d="m7 13h2v1h-2z"/></g><path d="m15.123047 5.9609375c-.110345.0006343-.223482.011067-.333985.0332031a1.0408632 1.0408632 0 0 0 -.009765.0019532c-.422574.0892957-.795085.3090659-1.076172.6445312l-4.7675781 5.333984-1.1972657-1.171875c-.7813755-.764082-1.9373807-.763872-2.71875 0-.7818908.764506-.7819036 1.958119 0 2.722657l2.53125 2.474609h2.4492188c.276415 0 .524418-.112893.705078-.292969h.001953c.000641-.000641.001314-.00131.001953-.001953.179619-.180598.291016-.42906.291016-.705078v-3h3.023438l1.976562-2.2089844v-3.5996094c-.166504-.0908344-.34796-.1647898-.556641-.203125-.102417-.0188141-.209968-.027978-.320312-.0273437z" fill="#fff" fill-opacity=".784314"/><path d="m15.255859 7.011719c-.08447-.015517-.171544-.016114-.261718.00195-.192169.040608-.369549.1462297-.494141.294925l-5.5136719 6.169922-1.9765625-1.931641c-.3304046-.323092-.9312527-.323066-1.2617187 0-.3304218.323075-.3304481.911266 0 1.234375l2.6328125 2.574219.6875.644531.6035156-.697266 6.144531-6.8671869c.435902-.4639888.030741-1.3152069-.560547-1.4238281z" fill="url(#a)"/></svg>