<svg viewBox="0 0 16 16" xmlns="http://www.w3.org/2000/svg" xmlns:xlink="http://www.w3.org/1999/xlink"><filter id="a" color-interpolation-filters="sRGB" height="1.071" width="2.278" x="-.639" y="-.0355"><feGaussianBlur stdDeviation=".26625"/></filter><linearGradient id="b" gradientUnits="userSpaceOnUse" x1="9" x2="9" y1="15" y2="10"><stop offset="0" stop-color="#dadada"/><stop offset=".5" stop-color="#fff"/><stop offset="1" stop-color="#fff"/></linearGradient><linearGradient id="c" gradientUnits="userSpaceOnUse" x1="15" x2="15" y1="18" y2="1"><stop offset="0" stop-color="#4f4f4f"/><stop offset=".88235295" stop-color="#4f4f4f" stop-opacity=".498039"/><stop offset="1" stop-color="#b7b7b7"/></linearGradient>




     /&amp;amp;amp;gt;
 <path d="m1 0c-.554 0-1 .446-1 1v12l3.1992188 3h11.8007812c.554 0 1-.446 1-1v-14c0-.554-.446-1-1-1z" fill="#3e3e3e"/><g fill="#fff"><rect height="6" ry=".280908" width="12" x="2" y="1"/><path d="m4.5 10c-.554 0-1 .446-1 1v3c0 .554.4469243 1.031989 1 1h1v-4h2v4h4.5c.554 0 1-.446 1-1v-3c0-.554-.446-1-1-1z" fill="url(#b)"/></g><path d="m5.5 11h2v1h-2z"/><path d="m14 1h1v18h-1z" fill="url(#c)" filter="url(#a)" transform="matrix(1 0 0 .77777778 .5 .222222)"/><path d="m14 1h1.237288v13.5h-1.237288z" fill="url(#c)" filter="url(#a)" transform="matrix(1 0 0 .77777778 -13.237288 .222222)"/><path d="m4 5h8v1h-8z" fill="#bababa"/><path d="m4 3h8v1h-8z" fill="#bababa"/><path d="m4 1h8v1h-8z" fill="#0a84ff"/><path d="m13.570312 5c-.517134 0-1.058051.2069703-1.453124.6015625a1.5003416 1.5003416 0 0 0 -.011719.0097656l-5.3378909 5.4472659a1.5003416 1.5003416 0 0 0 -.3515625.582031 1.5003416 1.5003416 0 0 0 -.2441406.412109l-1.0683594 2.712891a1.5003416 1.5003416 0 0 0 1.7265625 2.011719l2.921875-.658203a1.5003416 1.5003416 0 0 0 .4277349-.167969l.578124-.337891a1.5003416 1.5003416 0 0 0 .31836-.25l4.923828-5.066406v-3.7226562l-.974609-.9726563c-.401372-.4008445-.937881-.6015625-1.455079-.6015625z" fill="#fff" fill-opacity=".784314"/><g fill="#eac282" transform="translate(-.495572 -.5)"><path d="m8.0648836 13.101074-1.0693114 2.712486 2.9227772-.657095z" fill="#a2a2a7" stroke="#848489" stroke-linecap="square"/><path d="m11.861005 8.958496-3.524935 3.651053 2.158551 2.207933 3.493336-3.734963z" fill="#fc0" stroke="#c89e00"/><path d="m14.065594 7c-.142171 0-.283638.05379-.392578.1625977l-1.255371 1.2524416 2.135742 2.1372067 1.283203-1.229004c.21788-.2175952.21788-.5675602 0-.7851562l-1.376953-1.3754881c-.108941-.108798-.251871-.1625977-.394043-.1625977z" fill="#e68497" stroke="#b6496c"/><path d="m13.411678 10.101871-.552201-.5355508-3.5918326 3.4336798.7279278.5z" fill="#ffe014"/></g></svg>