<svg viewBox="0 0 16 16" xmlns="http://www.w3.org/2000/svg" xmlns:xlink="http://www.w3.org/1999/xlink"><linearGradient id="a" gradientUnits="userSpaceOnUse" x1="13" x2="13" xlink:href="#b" y1="13" y2="-1"/><linearGradient id="b" gradientUnits="userSpaceOnUse" x1="10" x2="10" y1="16" y2="2"><stop offset="0" stop-color="#f5f5f5"/><stop offset=".3888889" stop-color="#fdfdfd"/><stop offset="1" stop-color="#fff"/></linearGradient><g stroke="#98989d" stroke-linecap="round" stroke-linejoin="round"><path d="m5 .5c-.831 0-1.5.669-1.5 1.5v5c0 .831.669 1.5 1.5 1.5h1.5v4l4.5-4h3c.831 0 1.5-.669 1.5-1.5v-5c0-.831-.669-1.5-1.5-1.5z" fill="url(#a)"/><path d="m2 3.5c-.831 0-1.5.669-1.5 1.5v5c0 .831.669 1.5 1.5 1.5h1.5v4l4.5-4h3c.831 0 1.5-.669 1.5-1.5v-5c0-.831-.669-1.5-1.5-1.5z" fill="url(#b)"/></g></svg>