<svg viewBox="0 0 16 16" xmlns="http://www.w3.org/2000/svg" xmlns:xlink="http://www.w3.org/1999/xlink"><linearGradient id="a" gradientUnits="userSpaceOnUse" x1="-16.830508" x2="-16.830508" y1="-1.59322" y2="-2.59322"><stop offset="0" stop-color="#0040dd"/><stop offset="1" stop-color="#0a84ff"/></linearGradient><rect fill="url(#a)" height="1" ry=".452061" width="12" x="3" y="1"/><g fill="#98989d"><path d="m4 7c-.554 0-1 .446-1 1v6c0 .554.446 1 1 1h3c.554 0 1-.446 1-1v-6c0-.554-.446-1-1-1zm0 1h3v6h-3z"/><path d="m11 5c-.554 0-1 .446-1 1v8c0 .554.446 1 1 1h3c.554 0 1-.446 1-1v-8c0-.554-.446-1-1-1zm0 1h3v8h-3z"/><rect height="12" ry="1" width="4" x="7" y="3"/><rect height="1" ry=".5" width="16" y="14"/><rect height="15.999998" ry=".5" width="1" x="1"/></g><g fill="#fff"><path d="m11 6h3v8h-3z"/><path d="m4 8h3v6h-3z"/></g></svg>