<svg viewBox="0 0 16 16" xmlns="http://www.w3.org/2000/svg" xmlns:xlink="http://www.w3.org/1999/xlink"><linearGradient id="a" gradientUnits="userSpaceOnUse" x1="30.996092" x2="30.996092" xlink:href="#c" y1="11" y2="7"/><linearGradient id="b" gradientTransform="translate(5)" gradientUnits="userSpaceOnUse" x1="11" x2="11" xlink:href="#c" y1="10" y2="6"/><linearGradient id="c" gradientTransform="translate(5)" gradientUnits="userSpaceOnUse" x1="75" x2="75" y1="3" y2="-1"><stop offset="0" stop-color="#0040dd"/><stop offset="1" stop-color="#0a84ff"/></linearGradient><path d="m3 1v2.7050781 11.2949219h4.2636719 1.4726562 5.2636719v-11.2949219-2.7050781h-3.695312-4.6093755z" fill="#fff"/><path d="m3 0c-.554 0-1 .446-1 1v2.6367188.8632812 1.5.6074219 1.8925781.5 6c0 .554.446 1 1 1h1 1 1 .9726562 1 .054688 1 .9726558 1 2 1c.554 0 1.005639-.446029 1-1v-8.3925781-.6074219-1.5-.8632812-2.6367188c0-.554-.446-1-1-1h-3.636719-.863281-3.8632812zm0 1h1.6367188 1.0585937.3046875 1 2 1 .304688 1.058593 2.636719v1.6367188 1.0683593.2949219 1 10h-5.2636719-1.4726562-4.2636719v-10-1-.2949219-1.0683593z" fill="#98989d"/><path d="m4 5v11h10c.554 0 1-.446 1-1v-8.3925781-.6074219-1z" fill="#fff" fill-opacity=".784314"/><path d="m6.0000004 9c-.554 0-1 .446-1 1v5c0 .554.446 1 1 1h2 1.9726562 1.0546874 1.972656 2c.554 0 1-.446 1-1v-5c0-.554-.446-1-1-1h-1-1-1.392578-2.2148435-1.3925781-1z" fill="#98989d"/><path d="m6.0000004 7v2h3.3925781.6074215v-2h-2.349609zm4.9999996 0v2h.607422 3.392578v-2h-1.65039zm-4.9999996 3v2h3.9726562.027343v-.5-1.5h-.214843zm4.9999996 0v1.5.5h.02734 3.972656v-2h-3.785152zm-4.9999996 3v2h3.9726562.027343v-2h-.027343zm4.9999996 0v2h.02734 3.972656v-2h-3.972656z" fill="#fff"/><path d="m5.0000004 6v4h5.9999996.214844 3.785156 1v-3.9726562-.0273438h-1zm9.9999996.2285156v.00781h-.02148c.0073-.00213.01415-.00571.02148-.00781zm-8.9999996.7714844h3.9999996v2h-3.9999996zm4.9999996 0h2 .355469 1.644531v2h-3.390625-.609375z" fill="url(#b)"/><g transform="translate(-22.996091 -6)"><g fill="url(#a)"><rect height="3" ry=".5" width="1" x="35" y="8"/><rect height="1" ry=".5" width="3" x="33" y="10"/></g><path d="m35.499115 10.493535c-2.279661-3.5000009-6.057166-4.1907549-8 0" fill="none" stroke="url(#a)" stroke-linecap="round"/></g><path d="m6.0000004 7v2h3.9999996v-2zm4.9999996 0v2h4v-2z" fill="#0a84ff"/></svg>