<svg viewBox="0 0 16 16" xmlns="http://www.w3.org/2000/svg"><g fill="#fc0" transform="matrix(0 -1 -1 0 0 0)"><path d="m-15.511642-10.999999h15.02328595c.27054978 0 .488357.217807.488357.488357v.02329c0 .27055-.21780722.488357-.488357.488357h-15.02328595c-.27055 0-.488357-.217807-.488357-.488357v-.02329c0-.27055.217807-.488357.488357-.488357z"/><path d="m-15.511642-4.999999h15.02328595c.27054978 0 .488357.2178072.488357.488357v.023286c0 .2705497-.21780722.488357-.488357.488357h-15.02328595c-.27055 0-.488357-.2178073-.488357-.4883571v-.023286c0-.2705498.217807-.488357.488357-.488357z"/><path d="m-15.511642-7.999999h15.02328595c.27054978 0 .488357.2178072.488357.488357v.023286c0 .2705497-.21780722.488357-.488357.488357h-15.02328595c-.27055 0-.488357-.2178073-.488357-.4883571v-.023286c0-.2705498.217807-.488357.488357-.488357z"/><path d="m-15.511642-13.999999h15.02328595c.27054978 0 .488357.217807.488357.488357v.02329c0 .27055-.21780722.488357-.488357.488357h-15.02328595c-.27055 0-.488357-.217807-.488357-.488357v-.02329c0-.27055.217807-.488357.488357-.488357z"/></g><g fill="#48484a"><path d="m-14.499999-15.999999c.277 0 .5.223.5.5v14.99999805c0 .277-.223.5-.5.5s-.5-.223-.5-.5v-14.99999805c0-.277.223-.5.5-.5z" transform="matrix(0 -1 -1 0 0 0)"/><path d="m.5-2h15c.277 0 .5.223.5.5s-.223.5-.5.5h-15c-.277 0-.5-.223-.5-.5s.223-.5.5-.5z" transform="rotate(90)"/></g></svg>