<svg height="16" viewBox="0 0 16 16" width="16" xmlns="http://www.w3.org/2000/svg" xmlns:xlink="http://www.w3.org/1999/xlink"><linearGradient id="a" gradientUnits="userSpaceOnUse" x1="17.080925" x2="9.723911" y1="1.860564" y2="-5.169229"><stop offset="0" stop-color="#0040dd"/><stop offset="1" stop-color="#0a84ff"/></linearGradient><g fill="#4b4b4f"><rect height="1" ry=".5" width="14" x="1" y="1"/><rect height="1" ry=".5" width="14" x="1" y="14"/><rect height="1" ry=".5" width="5" x="1" y="11"/><rect height="1" ry=".5" width="5" x="1" y="4"/><rect height="1" ry=".488015" width="3" x="1" y="7"/></g><g fill="#ececec" fill-opacity=".992157"><rect height="1" ry=".5" width="14" x="1" y="2"/><rect height="1" ry=".5" width="14" x="1" y="15"/><rect height="1" ry=".5" width="5" x="1" y="12"/><rect height="1" ry=".5" width="5" x="1" y="5"/><rect height="1" ry=".488015" width="3" x="1" y="8"/></g><path d="m9.723911-5.169229h6.008023c.416056 0 .751003.3349473.751003.751003v6.0080228c0 .4160557-.334947.751003-.751003.751003h-6.008023c-.4160556 0-.751003-.3349473-.751003-.751003v-6.0080228c0-.4160557.3349474-.751003.751003-.751003z" fill="url(#a)" transform="matrix(.70710678 .70710678 -.70710678 .70710678 0 0)"/></svg>