<svg height="16" viewBox="0 0 16 16" width="16" xmlns="http://www.w3.org/2000/svg" xmlns:xlink="http://www.w3.org/1999/xlink"><filter id="a" color-interpolation-filters="sRGB" height="1.135959" width="1.153052" x="-.076526" y="-.067979"><feGaussianBlur stdDeviation=".44180839"/></filter><radialGradient id="b" cx="55.498295" cy="20.746534" gradientTransform="matrix(.81285147 0 0 .58672644 12.105687 7.90149)" gradientUnits="userSpaceOnUse" r="10.03901"><stop offset="0" stop-color="#ffc765"/><stop offset="1" stop-color="#ffa914"/></radialGradient><radialGradient id="c" cx="55.441967" cy="22.525862" gradientTransform="matrix(.99639853 0 0 .85175999 1.929474 1.252422)" gradientUnits="userSpaceOnUse" r="2.229184"><stop offset="0" stop-color="#ffe9c3"/><stop offset="1" stop-color="#ffe9c3" stop-opacity="0"/></radialGradient><g fill="#ebebeb" fill-opacity=".992157"><path d="m.5 1c-.277 0-.5.223-.5.5v1 7 1c0 .277.223.5.5.5h1 3c.277 0 .5-.223.5-.5v-1c0-.277-.223-.5-.5-.5h-2.5v-6h13.5c.277 0 .5-.223.5-.5v-1c0-.277-.223-.5-.5-.5h-14z"/><rect height="1" rx=".5" ry=".428091" width="2" y="15"/><rect height="1" rx=".5" ry=".428091" width="2" x="4" y="15"/><rect height="1" rx=".5" ry=".428091" width="2" x="8" y="15"/><rect height="1" rx=".5" ry=".428091" width="2" x="12" y="15"/><rect height="2" rx=".5" width="16" y="12"/></g><g fill="#4b4b4f"><path d="m.5 0c-.277 0-.5.223-.5.5v1 7 1c0 .277.223.5.5.5h1 3c.277 0 .5-.223.5-.5v-1c0-.277-.223-.5-.5-.5h-2.5v-6h13.5c.277 0 .5-.223.5-.5v-1c0-.277-.223-.5-.5-.5h-14z"/><rect height="1" rx=".5" ry=".428091" width="2" y="14"/><rect height="1" rx=".5" ry=".428091" width="2" x="4" y="14"/><rect height="1" rx=".5" ry=".428091" width="2" x="8" y="14"/><rect height="1" rx=".5" ry=".428091" width="2" x="12" y="14"/><rect height="2" rx=".5" width="16" y="11"/></g><g transform="matrix(.40739216 0 0 .40739216 -14.782967 -1.402794)"><path d="m58.378559 16.943855 12.216923-10.9072969.935142-.8501295c.448031-.3421786.951385-.5646991 1.955298-.5100777l.680103.5100777c.256514.5514588.127123 1.1107188.08501 1.7002591l-9.776486 14.0271373z" fill="#d6d6d6" stroke="#98989d" stroke-width="2.454637"/><path d="m59.389831 19.322034 12.813559-13.1186442.686441-.5338983.355932.3305085-12.122973 15.267452z" fill="#f9f9f9" filter="url(#a)" transform="matrix(.83596073 0 0 .83596073 12.191581 .765755)"/><path d="m56.743632 18.000141c-1.914421.91293-2.42721 2.150588-3.306514 3.967818-1.041183 2.519137-2.735273 3.397596-4.877109 4.794446 3.253214 1.794863 10.034512 2.749316 12.482092-.826629 1.466036-1.883495 4.143745-4.582383 1.570594-6.695692-2.436593-1.843062-3.255013-2.401743-5.869063-1.239943z" fill="url(#b)" stroke="#f58b00" stroke-width="2.454637"/><path d="m52.256966 23.930168c-.979437 1.161361-2.232633 1.877025-3.696796 2.831914 3.253214 1.794862 10.034136 2.750393 12.481716-.825553-2.398049-2.599763-7.112518-1.465378-8.78492-2.006361z" fill="#0a84ff" stroke="#0040dd" stroke-width="2.454637"/><ellipse cx="57.171772" cy="20.439053" fill="url(#c)" rx="2.221156" ry="1.89873" stroke-width=".812851"/></g></svg>