<svg height="32" viewBox="0 0 32 32" width="32" xmlns="http://www.w3.org/2000/svg" xmlns:xlink="http://www.w3.org/1999/xlink"><linearGradient id="a" gradientUnits="userSpaceOnUse" x1="19" x2="19" y1="6" y2="25"><stop offset="0" stop-color="#ffa154"/><stop offset="1" stop-color="#f37329"/></linearGradient><linearGradient id="b" gradientTransform="matrix(.5135 0 0 .4054 -.325 3.27)" gradientUnits="userSpaceOnUse" x1="37.632999" x2="37.633884" y1="6.733" y2="56.068081"><stop offset="0" stop-color="#fff"/><stop offset="0" stop-color="#fff" stop-opacity=".235"/><stop offset="1" stop-color="#fff" stop-opacity=".157"/><stop offset="1" stop-color="#fff" stop-opacity=".392"/></linearGradient><linearGradient id="c" gradientTransform="matrix(.3746 0 0 .37083 29.393 2.44)" gradientUnits="userSpaceOnUse" x1="-51.785999" x2="-51.785999" y1="50.785999" y2="2.906"><stop offset="0" stop-opacity=".318"/><stop offset="1" stop-opacity=".24"/></linearGradient><linearGradient id="d" gradientTransform="matrix(.457 0 0 .3477 47.03 -3.877)" gradientUnits="userSpaceOnUse" x1="-70.087524" x2="-70.087524" y1="25.53063" y2="88.803566"><stop offset="0" stop-color="#f4f4f4"/><stop offset="1" stop-color="#dbdbdb"/></linearGradient><path d="m1.5 4.5h29v23h-29z" fill="url(#d)"/><g fill="none"><path d="m29.5 26.5h-27v-21h27z" fill="none" stroke="url(#b)" stroke-linecap="square"/><path d="m1.5 4.5v23h3.5 25.5v-23h-25.5z" stroke="url(#c)" stroke-linejoin="round"/></g><path d="m4 10 3 16 21-4-3-16zm10.36219.22719c1.56031-.44225 3.2332-.23403 4.63749.57721 2.86915 1.65691 3.85222 5.32578 2.19592 8.19528-1.65691 2.86915-5.32578 3.85222-8.19528 2.19592l.99989-1.73187c1.913 1.1042 4.35891.44882 5.46352-1.46394 1.1042-1.913.44882-4.35891-1.46394-5.46352-1.913-1.1042-4.35891-.44882-5.46352 1.46394l1.73186.9999-4.09763 1.09796-1.09796-4.09764 1.73186.99989c.78008-1.35196 2.0563-2.34671 3.55779-2.77313z" fill="url(#a)"/></svg>