<svg height="32" viewBox="0 0 32 32" width="32" xmlns="http://www.w3.org/2000/svg" xmlns:xlink="http://www.w3.org/1999/xlink"><linearGradient id="a" gradientUnits="userSpaceOnUse" x1="16" x2="16" y1="5" y2="26"><stop offset="0" stop-color="#ffa154"/><stop offset="1" stop-color="#f37329"/></linearGradient><linearGradient id="b" gradientTransform="matrix(.5135 0 0 .4054 -.325 3.27)" gradientUnits="userSpaceOnUse" x1="37.632999" x2="37.633884" y1="6.733" y2="56.068081"><stop offset="0" stop-color="#fff"/><stop offset="0" stop-color="#fff" stop-opacity=".235"/><stop offset="1" stop-color="#fff" stop-opacity=".157"/><stop offset="1" stop-color="#fff" stop-opacity=".392"/></linearGradient><linearGradient id="c" gradientTransform="matrix(.3746 0 0 .37083 29.393 2.44)" gradientUnits="userSpaceOnUse" x1="-51.785999" x2="-51.785999" y1="50.785999" y2="2.906"><stop offset="0" stop-opacity=".318"/><stop offset="1" stop-opacity=".24"/></linearGradient><linearGradient id="d" gradientTransform="matrix(.457 0 0 .3477 47.03 -3.877)" gradientUnits="userSpaceOnUse" x1="-70.087524" x2="-70.087524" y1="25.53063" y2="88.803566"><stop offset="0" stop-color="#f4f4f4"/><stop offset="1" stop-color="#dbdbdb"/></linearGradient><path d="m1.5 4.5h29v23h-29z" fill="url(#d)"/><g fill="url(#a)"><path d="m2 13 14 5 14-5v-8h-28z"/><path d="m22.7906 22.46319a8.0000001 8.0000001 0 0 0 -2.42399-11.05099 8.0000001 8.0000001 0 0 0 -11.05098 2.42398l1.68437 1.07838a6.0000001 6.0000001 0 0 1 8.28824-1.81799 6.0000001 6.0000001 0 0 1 1.81798 8.28824z"/><path d="m24.47497 23.54156-5.05311-3.23513.90899 4.14413z" fill-rule="evenodd"/><path d="m9.25848 22.46319a8.0000001 8.0000001 0 0 1 2.42398-11.05099 8.0000001 8.0000001 0 0 1 11.05099 2.42398l-1.68437 1.07838a6.0000001 6.0000001 0 0 0 -8.28824-1.81799 6.0000001 6.0000001 0 0 0 -1.81798 8.28824z"/><path d="m7.57411 23.54156 5.05311-3.23513-.90899 4.14413z" fill-rule="evenodd"/></g><g fill="none"><path d="m29.5 26.5h-27v-21h27z" fill="none" stroke="url(#b)" stroke-linecap="square"/><path d="m1.5 4.5v23h3.5 25.5v-23h-25.5z" stroke="url(#c)" stroke-linejoin="round"/></g></svg>