<?xml version="1.0" encoding="UTF-8" standalone="no"?>
<svg
   xmlns:dc="http://purl.org/dc/elements/1.1/"
   xmlns:cc="http://creativecommons.org/ns#"
   xmlns:rdf="http://www.w3.org/1999/02/22-rdf-syntax-ns#"
   xmlns:svg="http://www.w3.org/2000/svg"
   xmlns="http://www.w3.org/2000/svg"
   xmlns:xlink="http://www.w3.org/1999/xlink"
   xmlns:sodipodi="http://sodipodi.sourceforge.net/DTD/sodipodi-0.dtd"
   xmlns:inkscape="http://www.inkscape.org/namespaces/inkscape"
   viewBox="0 0 24 24"
   version="1.1"
   id="svg4"
   sodipodi:docname="lx03166.svg"
   inkscape:export-filename="/home/jupiter007/Libreoffice yaru theme fullcolor/build/res/lx03166.png"
   inkscape:export-xdpi="95"
   inkscape:export-ydpi="95"
   inkscape:version="0.92.5 (2060ec1f9f, 2020-04-08)">
  <metadata
     id="metadata10">
    <rdf:RDF>
      <cc:Work
         rdf:about="">
        <dc:format>image/svg+xml</dc:format>
        <dc:type
           rdf:resource="http://purl.org/dc/dcmitype/StillImage" />
        <dc:title></dc:title>
      </cc:Work>
    </rdf:RDF>
  </metadata>
  <defs
     id="defs8">
    <linearGradient
       inkscape:collect="always"
       xlink:href="#linearGradient927"
       id="linearGradient8590-3-3-4"
       gradientUnits="userSpaceOnUse"
       gradientTransform="matrix(0.0760869,0,0,0.07608688,4.6956289,4.6956553)"
       x1="96"
       y1="4.0000062"
       x2="96"
       y2="188" />
    <linearGradient
       inkscape:collect="always"
       id="linearGradient927">
      <stop
         style="stop-color:#ffffff;stop-opacity:1;"
         offset="0"
         id="stop923" />
      <stop
         id="stop933"
         offset="0.125"
         style="stop-color:#ffffff;stop-opacity:0.09803922" />
      <stop
         id="stop931"
         offset="0.92500001"
         style="stop-color:#ffffff;stop-opacity:0.09803922" />
      <stop
         style="stop-color:#ffffff;stop-opacity:0.49803922"
         offset="1"
         id="stop925" />
    </linearGradient>
    <linearGradient
       inkscape:collect="always"
       xlink:href="#linearGradient1048"
       id="linearGradient8588-0-1-5"
       gradientUnits="userSpaceOnUse"
       gradientTransform="matrix(0.31496064,0,0,0.31496077,4.1666489,-73.709945)"
       x1="13.735326"
       y1="249.69423"
       x2="38.099998"
       y2="292.76666" />
    <linearGradient
       inkscape:collect="always"
       id="linearGradient1048">
      <stop
         style="stop-color:#cdcdcd;stop-opacity:1;"
         offset="0"
         id="stop1044" />
      <stop
         style="stop-color:#d9d9d9;stop-opacity:1"
         offset="1"
         id="stop1046" />
    </linearGradient>
  </defs>
  <sodipodi:namedview
     pagecolor="#ffffff"
     bordercolor="#666666"
     borderopacity="1"
     objecttolerance="10"
     gridtolerance="10"
     guidetolerance="10"
     inkscape:pageopacity="0"
     inkscape:pageshadow="2"
     inkscape:window-width="1920"
     inkscape:window-height="1011"
     id="namedview6"
     showgrid="false"
     inkscape:zoom="9.8333333"
     inkscape:cx="-11.79661"
     inkscape:cy="12"
     inkscape:window-x="0"
     inkscape:window-y="32"
     inkscape:window-maximized="1"
     inkscape:current-layer="svg4" />
  <ellipse
     style="display:inline;opacity:0.1;fill:#000000;fill-opacity:1;stroke:none;stroke-width:1.95437706;stroke-linecap:round;stroke-linejoin:round;stroke-miterlimit:4;stroke-dasharray:none;stroke-opacity:1;enable-background:new"
     id="path9498-0-0-2-3-3"
     cx="-11.999969"
     cy="-12.499985"
     transform="scale(-1)"
     rx="6.9999981"
     ry="6.5" />
  <circle
     style="display:inline;opacity:1;fill:url(#linearGradient8588-0-1-5);fill-opacity:1;stroke:none;stroke-width:1.86940384;stroke-linecap:round;stroke-linejoin:round;stroke-miterlimit:4;stroke-dasharray:none;stroke-opacity:1;enable-background:new"
     id="path9498-6-5-6-8"
     cx="12"
     cy="12"
     r="7.5000005" />
  <path
     inkscape:connector-curvature="0"
     style="display:inline;opacity:0.2;fill:#ffffff;fill-opacity:1;stroke:none;stroke-width:0.05803572;stroke-linecap:round;stroke-linejoin:round;stroke-miterlimit:4;stroke-dasharray:none;stroke-opacity:1;enable-background:new"
     d="M 11.99999,4.4999953 A 7.4999997,7.4999997 0 0 0 4.4999889,11.999995 H 11.99999 Z m 0,7.4999997 v 7.5 a 7.4999997,7.4999997 0 0 0 7.5,-7.5 z"
     id="path11042-53-1-6-2-2" />
  <path
     inkscape:connector-curvature="0"
     style="display:inline;opacity:0.02000002;fill:#000000;fill-opacity:1;stroke:none;stroke-width:0.05803571;stroke-linecap:round;stroke-linejoin:round;stroke-miterlimit:4;stroke-dasharray:none;stroke-opacity:1;enable-background:new"
     d="m 16.59617,7.4037854 a 6.4999995,6.4999995 0 0 0 -9.1923901,0 L 11.99997,11.999985 Z m -4.5962,4.5961996 -4.5961901,4.59619 a 6.4999995,6.4999995 0 0 0 9.1923901,0 z"
     id="path11042-53-6-27-2-0-2" />
  <path
     style="display:inline;opacity:1;fill:#faf8f6;fill-opacity:1;stroke:none;stroke-width:0.05803572;stroke-linecap:round;stroke-linejoin:round;stroke-miterlimit:4;stroke-dasharray:none;stroke-opacity:1;enable-background:new"
     d="m 9.9541399,4.7845353 a 7.4999997,7.4999997 0 0 0 -0.13619,0.0462 7.4999997,7.4999997 0 0 1 0.3626901,-0.0983 7.4999997,7.4999997 0 0 0 -0.2265001,0.0521 z m 0.5905901,-0.13605 a 7.4999997,7.4999997 0 0 1 0.36946,-0.0614 7.4999997,7.4999997 0 0 0 -0.36946,0.0614 z m -1.0807301,0.3019 a 7.4999997,7.4999997 0 0 0 -0.3507,0.13392 7.4999997,7.4999997 0 0 1 0.3507,-0.13392 z m 1.8227501,-0.41054 a 7.4999997,7.4999997 0 0 1 0.37224,-0.0242 7.4999997,7.4999997 0 0 0 -0.37224,0.0242 z m -2.5132601,0.69875 a 7.4999997,7.4999997 0 0 0 -0.3371,0.16899 7.4999997,7.4999997 0 0 1 0.3371,-0.16899 z m 3.2615601,-0.73285 a 7.4999997,7.4999997 0 0 1 0.37405,0.0134 7.4999997,7.4999997 0 0 0 -0.37405,-0.0134 z m -3.9197901,1.08849 a 7.4999997,7.4999997 0 0 0 -0.31893,0.20191 7.4999997,7.4999997 0 0 1 0.31893,-0.20191 z M 12.7819,4.5465153 a 7.4999997,7.4999997 0 0 1 0.37185,0.0507 7.4999997,7.4999997 0 0 0 -0.37185,-0.0507 z m -5.2867801,1.46764 a 7.4999997,7.4999997 0 0 0 -0.29723,0.23291 7.4999997,7.4999997 0 0 1 0.29723,-0.23291 z m 6.0283001,-1.35219 a 7.4999997,7.4999997 0 0 1 0.36234,0.0869 7.4999997,7.4999997 0 0 0 -0.36234,-0.0869 z m -6.7114701,1.92805 a 7.4999997,7.4999997 0 0 0 -0.085,0.0793 7.4999997,7.4999997 0 0 1 0.085,-0.0793 z m -0.11227,0.10869 a 7.4999997,7.4999997 0 0 0 -1.19404,1.5511601 L 12.00078,11.999835 Z m 5.3011001,5.3011297 5.30109,5.30114 a 7.4999997,7.4999997 0 0 0 1.19405,-1.55116 z M 14.2481,4.8505153 a 7.4999997,7.4999997 0 0 1 0.3526,0.12283 7.4999997,7.4999997 0 0 0 -0.3526,-0.12283 z m 0.70211,0.25991 a 7.4999997,7.4999997 0 0 1 0.34033,0.15837 7.4999997,7.4999997 0 0 0 -0.34033,-0.15837 z m 0.67307,0.32891 a 7.4999997,7.4999997 0 0 1 0.12302,0.073 l 0.005,-0.008 a 7.4999997,7.4999997 0 0 0 -0.12747,-0.0653 z m -7.3680301,13.0479497 -0.005,0.008 a 7.4999997,7.4999997 0 0 0 0.12747,0.0653 7.4999997,7.4999997 0 0 1 -0.12303,-0.073 z m 0.45578,0.2436 a 7.4999997,7.4999997 0 0 0 0.34031,0.15836 7.4999997,7.4999997 0 0 1 -0.34031,-0.15836 z m 0.68982,0.29543 a 7.4999997,7.4999997 0 0 0 0.35261,0.12285 7.4999997,7.4999997 0 0 1 -0.35261,-0.12285 z M 17.2747,17.330455 a 7.4999997,7.4999997 0 0 1 -0.085,0.0793 7.4999997,7.4999997 0 0 0 0.085,-0.0793 z m -7.15888,1.92039 a 7.4999997,7.4999997 0 0 0 0.36235,0.0869 7.4999997,7.4999997 0 0 1 -0.36235,-0.0869 z m 6.68788,-1.49819 a 7.4999997,7.4999997 0 0 1 -0.29722,0.23292 7.4999997,7.4999997 0 0 0 0.29722,-0.23292 z m -5.95585,1.64989 a 7.4999997,7.4999997 0 0 0 0.37185,0.0507 7.4999997,7.4999997 0 0 1 -0.37185,-0.0507 z m 5.35742,-1.19896 a 7.4999997,7.4999997 0 0 1 -0.31895,0.20191 7.4999997,7.4999997 0 0 0 0.31895,-0.20191 z m -4.61278,1.27702 a 7.4999997,7.4999997 0 0 0 0.37405,0.0134 7.4999997,7.4999997 0 0 1 -0.37405,-0.0134 z m 3.97271,-0.88847 a 7.4999997,7.4999997 0 0 1 -0.3371,0.169 7.4999997,7.4999997 0 0 0 0.3371,-0.169 z m -3.22259,0.89193 a 7.4999997,7.4999997 0 0 0 0.37224,-0.0242 7.4999997,7.4999997 0 0 1 -0.37224,0.0242 z m 2.54567,-0.56864 a 7.4999997,7.4999997 0 0 1 -0.35069,0.1339 7.4999997,7.4999997 0 0 0 0.35069,-0.1339 z m -1.80088,0.49717 a 7.4999997,7.4999997 0 0 0 0.36945,-0.0614 7.4999997,7.4999997 0 0 1 -0.36945,0.0614 z m 1.09624,-0.24351 a 7.4999997,7.4999997 0 0 1 -0.36268,0.0983 7.4999997,7.4999997 0 0 0 0.36268,-0.0983 z"
     id="path11042-53-6-2-0-6-2-8"
     inkscape:connector-curvature="0" />
  <circle
     style="display:inline;opacity:1;fill:#aea795;fill-opacity:1;stroke:none;stroke-width:0.20701969;stroke-linecap:round;stroke-linejoin:round;stroke-miterlimit:4;stroke-dasharray:none;stroke-dashoffset:0;stroke-opacity:1;enable-background:new"
     id="path7147-9-1-3-9"
     cx="11.999969"
     cy="-11.999969"
     transform="scale(1,-1)"
     r="3" />
  <circle
     style="display:inline;opacity:1;fill:#faf8f6;fill-opacity:1;stroke:none;stroke-width:0.14285713;stroke-linecap:round;stroke-linejoin:round;stroke-miterlimit:4;stroke-dasharray:none;stroke-dashoffset:0;stroke-opacity:1;enable-background:new"
     id="path7164-3-8-7-7"
     cx="11.999969"
     cy="11.999969"
     r="2" />
  <circle
     style="display:inline;opacity:1;fill:#4d4d4d;fill-opacity:1;stroke:none;stroke-width:0.25;stroke-linecap:round;stroke-linejoin:round;stroke-miterlimit:4;stroke-dasharray:none;stroke-dashoffset:0;stroke-opacity:1;enable-background:new"
     id="path7166-6-7-5-3"
     cx="11.999969"
     cy="11.999969"
     r="1" />
  <circle
     style="display:inline;opacity:0.4;vector-effect:none;fill:none;fill-opacity:1;stroke:#000000;stroke-width:1;stroke-linecap:butt;stroke-linejoin:round;stroke-miterlimit:4;stroke-dasharray:none;stroke-dashoffset:6.5999999;stroke-opacity:1;enable-background:new"
     id="path1377"
     cx="12"
     cy="12"
     r="7.5000005" />
  <path
     style="display:inline;opacity:1;fill:url(#linearGradient8590-3-3-4);fill-opacity:1;stroke:none;stroke-width:1.86940372;stroke-linecap:round;stroke-linejoin:round;stroke-miterlimit:4;stroke-dasharray:none;stroke-opacity:1;enable-background:new"
     d="m 11.99997,4.9999853 c -3.8659901,0 -7.0000011,3.1340201 -7.0000011,6.9999997 0,3.86599 3.134011,7 7.0000011,7 3.866,0 7,-3.13401 7,-7 0,-3.8659796 -3.134,-6.9999997 -7,-6.9999997 z m 0,1 a 6,6 0 0 1 6,5.9999997 6,6 0 0 1 -6,6 6,6 0 0 1 -6.0000001,-6 6,6 0 0 1 6.0000001,-5.9999997 z"
     id="path9498-1-6-7-2-0"
     inkscape:connector-curvature="0" />
</svg>
