<?xml version="1.0" encoding="UTF-8" standalone="no"?>
<svg
   xmlns:dc="http://purl.org/dc/elements/1.1/"
   xmlns:cc="http://creativecommons.org/ns#"
   xmlns:rdf="http://www.w3.org/1999/02/22-rdf-syntax-ns#"
   xmlns:svg="http://www.w3.org/2000/svg"
   xmlns="http://www.w3.org/2000/svg"
   xmlns:xlink="http://www.w3.org/1999/xlink"
   xmlns:sodipodi="http://sodipodi.sourceforge.net/DTD/sodipodi-0.dtd"
   xmlns:inkscape="http://www.inkscape.org/namespaces/inkscape"
   height="32"
   width="32"
   version="1.1"
   id="svg31"
   sodipodi:docname="odb_32_8.svg"
   inkscape:version="0.92.4 (5da689c313, 2019-01-14)"
   inkscape:export-filename="/home/jupiter007/Libreoffice yaru theme/build/res/odb_32_8.png"
   inkscape:export-xdpi="96"
   inkscape:export-ydpi="96">
  <metadata
     id="metadata37">
    <rdf:RDF>
      <cc:Work
         rdf:about="">
        <dc:format>image/svg+xml</dc:format>
        <dc:type
           rdf:resource="http://purl.org/dc/dcmitype/StillImage" />
      </cc:Work>
    </rdf:RDF>
  </metadata>
  <defs
     id="defs35">
    <linearGradient
       inkscape:collect="always"
       xlink:href="#linearGradient927"
       id="linearGradient969"
       x1="336"
       y1="134"
       x2="336"
       y2="162"
       gradientUnits="userSpaceOnUse" />
    <linearGradient
       inkscape:collect="always"
       id="linearGradient927">
      <stop
         style="stop-color:#ffffff;stop-opacity:1;"
         offset="0"
         id="stop923" />
      <stop
         id="stop933"
         offset="0.125"
         style="stop-color:#ffffff;stop-opacity:0.09803922" />
      <stop
         id="stop931"
         offset="0.92500001"
         style="stop-color:#ffffff;stop-opacity:0.09803922" />
      <stop
         style="stop-color:#ffffff;stop-opacity:0.49803922"
         offset="1"
         id="stop925" />
    </linearGradient>
    <clipPath
       clipPathUnits="userSpaceOnUse"
       id="clipPath959">
      <path
         style="color:#000000;display:inline;overflow:visible;visibility:visible;opacity:1;fill:#46a926;fill-opacity:1;fill-rule:nonzero;stroke:none;stroke-width:2;stroke-miterlimit:4;stroke-dasharray:none;stroke-opacity:1;marker:none;enable-background:accumulate"
         d="m 330.1929,133.99999 c -5.61538,0 -6.21958,0.57678 -6.19206,6.20352 v 7.79648 7.79648 c -0.0276,5.62673 0.57668,6.20351 6.19206,6.20351 h 11.615 c 5.6154,0 6.19208,-0.5767 6.19208,-6.20351 v -7.79648 -7.79648 c 0,-5.6268 -0.5767,-6.20352 -6.19208,-6.20352 z"
         id="path961"
         inkscape:connector-curvature="0"
         sodipodi:nodetypes="scccssscsss" />
    </clipPath>
    <linearGradient
       inkscape:collect="always"
       xlink:href="#linearGradient14494"
       id="linearGradient1389"
       gradientUnits="userSpaceOnUse"
       gradientTransform="matrix(0.97892669,0,0,1.0007266,-171.40557,-739.99963)"
       x1="525.4375"
       y1="836.1875"
       x2="516.65625"
       y2="828.5" />
    <linearGradient
       id="linearGradient14494">
      <stop
         id="stop14496"
         style="stop-color:#dc85e9;stop-opacity:1"
         offset="0" />
      <stop
         id="stop14498"
         style="stop-color:#f2cbf8;stop-opacity:1"
         offset="1" />
    </linearGradient>
    <linearGradient
       inkscape:collect="always"
       xlink:href="#linearGradient14494"
       id="linearGradient1391"
       gradientUnits="userSpaceOnUse"
       gradientTransform="matrix(0.97892669,0,0,1.0007266,755.5951,-1698.6771)"
       x1="525.4375"
       y1="836.1875"
       x2="516.65625"
       y2="828.5" />
    <linearGradient
       inkscape:collect="always"
       xlink:href="#linearGradient14494"
       id="linearGradient1393"
       gradientUnits="userSpaceOnUse"
       gradientTransform="translate(-125.5,-1702.459)"
       x1="525.4375"
       y1="836.1875"
       x2="516.65625"
       y2="828.5" />
    <linearGradient
       inkscape:collect="always"
       xlink:href="#linearGradient14494"
       id="linearGradient1395"
       gradientUnits="userSpaceOnUse"
       x1="520.58502"
       y1="735.05206"
       x2="516.15179"
       y2="720.86298" />
    <linearGradient
       gradientTransform="translate(-315.93172,-126.57627)"
       inkscape:collect="always"
       xlink:href="#linearGradient4338"
       id="linearGradient1313"
       x1="340"
       y1="132"
       x2="328"
       y2="164"
       gradientUnits="userSpaceOnUse" />
    <linearGradient
       inkscape:collect="always"
       id="linearGradient4338">
      <stop
         style="stop-color:#f2f2f2;stop-opacity:1"
         offset="0"
         id="stop4340" />
      <stop
         style="stop-color:#f9f9f9;stop-opacity:1"
         offset="1"
         id="stop4342" />
    </linearGradient>
    <linearGradient
       inkscape:collect="always"
       xlink:href="#linearGradient7701"
       id="linearGradient924"
       gradientUnits="userSpaceOnUse"
       gradientTransform="matrix(0,-0.07208805,-0.07208601,0,43.196915,39.241889)"
       x1="459.03448"
       y1="419.23337"
       x2="35.310345"
       y2="207.36522" />
    <linearGradient
       id="linearGradient7701">
      <stop
         id="stop7699"
         style="stop-color:#950ba8;stop-opacity:1"
         offset="0" />
      <stop
         id="stop7693"
         style="stop-color:#c557bc;stop-opacity:1"
         offset="1" />
    </linearGradient>
  </defs>
  <sodipodi:namedview
     pagecolor="#ffffff"
     bordercolor="#666666"
     borderopacity="1"
     objecttolerance="10"
     gridtolerance="10"
     guidetolerance="10"
     inkscape:pageopacity="0"
     inkscape:pageshadow="2"
     inkscape:window-width="1920"
     inkscape:window-height="1011"
     id="namedview33"
     showgrid="false"
     inkscape:zoom="7.375"
     inkscape:cx="16"
     inkscape:cy="16"
     inkscape:window-x="0"
     inkscape:window-y="32"
     inkscape:window-maximized="1"
     inkscape:current-layer="svg31" />
  <linearGradient
     id="a"
     gradientTransform="matrix(.49999977 0 0 .48275841 384.57144 516.34974)"
     gradientUnits="userSpaceOnUse"
     x1="32"
     x2="32"
     y1="61"
     y2="3">
    <stop
       offset="0"
       stop-color="#8e44ad"
       id="stop2" />
    <stop
       offset="1"
       stop-color="#9b59b6"
       id="stop4" />
  </linearGradient>
  <linearGradient
     id="b"
     gradientUnits="userSpaceOnUse"
     x1="407.950735"
     x2="407.950735"
     y1="545.556623"
     y2="538.798005">
    <stop
       offset="0"
       stop-color="#d3bdd7"
       id="stop7" />
    <stop
       offset="1"
       stop-color="#e8d9eb"
       id="stop9" />
  </linearGradient>
  <linearGradient
     id="c"
     gradientTransform="matrix(.48275841 0 0 -.48275841 378.50247 553.76351)"
     gradientUnits="userSpaceOnUse"
     x1="54"
     x2="39.500008"
     y1="31"
     y2="16.500048">
    <stop
       offset="0"
       stop-color="#383e51"
       id="stop12" />
    <stop
       offset="1"
       stop-color="#655c6f"
       stop-opacity="0"
       id="stop14" />
  </linearGradient>
  <g
     id="g942"
     transform="translate(-4.0677966,-5.4237289)">
    <path
       inkscape:connector-curvature="0"
       id="path922"
       d="m 25.874005,6.9237288 c 1.41241,0 2.52238,0.0342 3.42383,0.18555 0.90145,0.15132 1.61987,0.43164 2.14258,0.95312 0.5227,0.52148 0.80325,1.23898 0.95312,2.1406302 0.14988,0.90164 0.18075,2.0101 0.17383,3.42578 v 7.79492 7.79688 c 0.007,1.41452 -0.024,2.52269 -0.17383,3.42382 -0.14987,0.90165 -0.43041,1.61915 -0.95312,2.14063 -0.52272,0.52148 -1.24112,0.8018 -2.14258,0.95312 -0.90146,0.15132 -2.01142,0.18555 -3.42383,0.18555 h -11.61523 c -1.41241,0 -2.51847,-0.0342 -3.41797,-0.18555 -0.8994999,-0.15137 -1.6159699,-0.43149 -2.1367199,-0.95312 -0.52075,-0.52163 -0.8000399,-1.23774 -0.9511699,-2.13867 -0.15113,-0.90094 -0.18555,-2.01055 -0.18555,-3.42578 v -7.79688 -7.79688 c 0,-1.41524 0.0344,-2.52484 0.18555,-3.42578 0.15113,-0.9009302 0.4304199,-1.6170302 0.9511699,-2.1386702 0.52075,-0.52163 1.23722,-0.80175 2.1367199,-0.95312 0.8995,-0.15137 2.00556,-0.18555 3.41797,-0.18555 z"
       style="color:#000000;display:inline;overflow:visible;visibility:visible;fill:url(#linearGradient924);fill-opacity:1;fill-rule:nonzero;stroke:none;stroke-width:0.99999994;marker:none;enable-background:accumulate" />
    <path
       id="path1295"
       d="m 14.261635,9.4237288 c -1.37205,0 -2.37815,0.0445 -3.00977,0.15039 -0.61819,0.10377 -0.76201,0.22891 -0.79101,0.25781 -0.0276,0.0276 -0.14965,0.1658 -0.25196,0.7812502 -0.10462,0.62946 -0.14762,1.63095 -0.14062,3.00391 v 0.006 7.80078 7.80273 0.006 c -0.007,1.37154 0.036,2.37291 0.14062,3.00196 0.10231,0.61547 0.22436,0.75365 0.25196,0.78125 0.029,0.029 0.17281,0.15404 0.79101,0.25781 0.63175,0.10609 1.63775,0.15039 3.00977,0.15039 h 11.61523 c 1.37206,0 2.37433,-0.0445 3.00391,-0.15039 0.616,-0.10366 0.75435,-0.22701 0.78125,-0.25391 0.0283,-0.0283 0.15211,-0.16861 0.25586,-0.78711 0.10599,-0.632 0.15039,-1.63731 0.15039,-3.01199 v -7.79688 -6 l -6,-6.0000002 z"
       style="color:#000000;font-style:normal;font-variant:normal;font-weight:normal;font-stretch:normal;font-size:medium;line-height:normal;font-family:sans-serif;font-variant-ligatures:normal;font-variant-position:normal;font-variant-caps:normal;font-variant-numeric:normal;font-variant-alternates:normal;font-feature-settings:normal;text-indent:0;text-align:start;text-decoration:none;text-decoration-line:none;text-decoration-style:solid;text-decoration-color:#000000;letter-spacing:normal;word-spacing:normal;text-transform:none;writing-mode:lr-tb;direction:ltr;text-orientation:mixed;dominant-baseline:auto;baseline-shift:baseline;text-anchor:start;white-space:normal;shape-padding:0;clip-rule:nonzero;display:inline;overflow:visible;visibility:visible;opacity:1;isolation:auto;mix-blend-mode:normal;color-interpolation:sRGB;color-interpolation-filters:linearRGB;solid-color:#000000;solid-opacity:1;vector-effect:none;fill:url(#linearGradient1313);fill-opacity:1;fill-rule:nonzero;stroke:none;stroke-width:5;stroke-linecap:butt;stroke-linejoin:miter;stroke-miterlimit:4;stroke-dasharray:none;stroke-dashoffset:0;stroke-opacity:1;marker:none;color-rendering:auto;image-rendering:auto;shape-rendering:auto;text-rendering:auto;enable-background:accumulate"
       inkscape:connector-curvature="0" />
    <g
       id="g1387"
       transform="matrix(0.57732782,0,0,0.57515103,-178.53212,-26.216251)"
       style="display:inline;stroke-width:1.73539293;enable-background:new">
      <path
         inkscape:connector-curvature="0"
         sodipodi:nodetypes="cccscccc"
         id="path1375"
         d="m 332.74163,90.1053 v 3.50254 c 0,0 0,0.33824 0,0.50036 0,1.93441 5.0402,3.50255 11.2577,3.50255 6.2174,0 11.2576,-1.56814 11.2576,-3.50255 V 93.60784 90.1053 Z"
         style="color:#000000;display:inline;overflow:visible;visibility:visible;fill:url(#linearGradient1389);fill-opacity:1;fill-rule:nonzero;stroke:#8e03a3;stroke-width:1.73539293;stroke-linecap:butt;stroke-linejoin:miter;stroke-miterlimit:4;stroke-dasharray:none;stroke-dashoffset:0;stroke-opacity:1;marker:none" />
      <g
         style="stroke-width:1.73539293;stroke-miterlimit:4;stroke-dasharray:none"
         transform="translate(-927.00067,953.99307)"
         id="g1385">
        <path
           sodipodi:nodetypes="cccscccc"
           id="path1377"
           d="m 1259.7423,-868.57233 v 3.50255 c 0,0 0,0.33824 0,0.50036 0,1.93441 5.0402,3.50254 11.2577,3.50254 6.2174,0 11.2576,-1.56813 11.2576,-3.50254 v -0.50036 -3.50255 z"
           style="color:#000000;display:inline;overflow:visible;visibility:visible;fill:url(#linearGradient1391);fill-opacity:1;fill-rule:nonzero;stroke:#8e03a3;stroke-width:1.73539293;stroke-linecap:butt;stroke-linejoin:miter;stroke-miterlimit:4;stroke-dasharray:none;stroke-dashoffset:0;stroke-opacity:1;marker:none"
           inkscape:connector-curvature="0" />
        <g
           style="stroke-width:1.75333548;stroke-miterlimit:4;stroke-dasharray:none"
           transform="matrix(0.97892669,0,0,1.0007266,878.4504,0.37753505)"
           id="g1383">
          <path
             sodipodi:nodetypes="cccscccc"
             id="path1379"
             d="m 389.5,-872.95665 v 3.5 c 0,0 0,0.338 0,0.5 0,1.933 5.14873,3.5 11.5,3.5 6.35127,0 11.5,-1.567 11.5,-3.5 v -0.5 -3.5 z"
             style="color:#000000;display:inline;overflow:visible;visibility:visible;fill:url(#linearGradient1393);fill-opacity:1;fill-rule:nonzero;stroke:#8e03a3;stroke-width:1.75333548;stroke-linecap:butt;stroke-linejoin:miter;stroke-miterlimit:4;stroke-dasharray:none;stroke-dashoffset:0;stroke-opacity:1;marker:none"
             inkscape:connector-curvature="0" />
          <ellipse
             ry="5.6875"
             rx="22.4375"
             cy="730.3125"
             cx="519.6875"
             transform="matrix(0.512535,0,0,0.615385,134.642,-1323.1872)"
             id="ellipse1381"
             style="color:#000000;display:inline;overflow:visible;visibility:visible;fill:url(#linearGradient1395);fill-opacity:1;fill-rule:nonzero;stroke:#8e03a3;stroke-width:3.12197781;stroke-miterlimit:4;stroke-dasharray:none;marker:none" />
        </g>
      </g>
    </g>
    <path
       inkscape:connector-curvature="0"
       id="path1011"
       d="m 8.0682751,21.423729 v 7.79688 c -0.0276,5.62673 0.57798,6.20312 6.1933599,6.20312 h 11.61523 c 5.6154,0 6.19141,-0.57631 6.19141,-6.20312 v -7.79688 z"
       style="color:#000000;display:inline;overflow:visible;visibility:visible;opacity:0.1;fill:#ffffff;fill-opacity:1;fill-rule:nonzero;stroke:none;stroke-width:0.99999994;marker:none;enable-background:accumulate" />
    <path
       inkscape:connector-curvature="0"
       id="path1018"
       d="M 20.068275,7.4237288 V 35.423729 h 5.80859 c 5.6154,0 6.19141,-0.57631 6.19141,-6.20312 v -7.79688 -7.79688 c 0,-5.6268002 -0.57603,-6.2031202 -6.19141,-6.2031202 z"
       style="color:#000000;display:inline;overflow:visible;visibility:visible;opacity:0.1;fill:#ffffff;fill-opacity:1;fill-rule:nonzero;stroke:none;stroke-width:0.99999994;marker:none;enable-background:accumulate" />
    <path
       inkscape:connector-curvature="0"
       style="color:#000000;display:inline;overflow:visible;visibility:visible;opacity:0.3;fill:none;fill-opacity:1;fill-rule:nonzero;stroke:#000000;stroke-width:0.99999994;stroke-opacity:1;marker:none;enable-background:accumulate"
       d="m 14.261635,6.9237288 c -1.41241,0 -2.52238,0.0342 -3.42383,0.18555 -0.9014499,0.15132 -1.6198699,0.43164 -2.1425799,0.95312 -0.5227,0.52148 -0.8032499,1.23898 -0.9531199,2.1406302 -0.14988,0.90164 -0.18075,2.0101 -0.17383,3.42578 v 7.79492 7.79688 c -0.007,1.41452 0.024,2.52269 0.17383,3.42382 0.14987,0.90165 0.4304099,1.61915 0.9531199,2.14063 0.52272,0.52148 1.24112,0.8018 2.1425799,0.95312 0.90146,0.15132 2.01142,0.18555 3.42383,0.18555 h 11.61523 c 1.41241,0 2.51847,-0.0342 3.41797,-0.18555 0.8995,-0.15137 1.61597,-0.43149 2.13672,-0.95312 0.52075,-0.52163 0.80004,-1.23774 0.95117,-2.13867 0.15113,-0.90094 0.18555,-2.01055 0.18555,-3.42578 v -7.79688 -7.79688 c 0,-1.41524 -0.0344,-2.52484 -0.18555,-3.42578 -0.15113,-0.9009302 -0.43042,-1.6170302 -0.95117,-2.1386702 -0.52075,-0.52163 -1.23722,-0.80175 -2.13672,-0.95312 -0.8995,-0.15137 -2.00556,-0.18555 -3.41797,-0.18555 z"
       id="path1089" />
    <path
       clip-path="url(#clipPath959)"
       style="color:#000000;display:inline;overflow:visible;visibility:visible;opacity:0.2;fill:none;fill-opacity:1;fill-rule:nonzero;stroke:url(#linearGradient969);stroke-width:2;stroke-miterlimit:4;stroke-dasharray:none;stroke-opacity:1;marker:none;enable-background:accumulate"
       d="m 330.1929,133.99999 c -5.61538,0 -6.21958,0.57678 -6.19206,6.20352 v 7.79648 7.79648 c -0.0276,5.62673 0.57668,6.20351 6.19206,6.20351 h 11.615 c 5.6154,0 6.19208,-0.5767 6.19208,-6.20351 v -7.79648 -7.79648 c 0,-5.6268 -0.5767,-6.20352 -6.19208,-6.20352 z"
       id="path939"
       inkscape:connector-curvature="0"
       sodipodi:nodetypes="scccssscsss"
       transform="translate(-315.93172,-126.57627)" />
  </g>
</svg>
