<svg viewBox="0 0 16 16" xmlns="http://www.w3.org/2000/svg"><path d="m3.5 2c-.82843 0-1.5.67157-1.5 1.5 0 .6558404.4135873 1.2024109 1 1.40625v6.1875c-.5864127.203839-1 .75041-1 1.40625 0 .82843.67157 1.5 1.5 1.5s1.5-.67157 1.5-1.5c0-.65584-.4135873-1.202411-1-1.40625v-6.1875c.0771596-.0268209.1479033-.0552639.21875-.09375l2.875 2.15625c-.0599582.1621025-.09375.348305-.09375.53125 0 .82843.67157 1.5 1.5 1.5s1.5-.67157 1.5-1.5-.67157-1.5-1.5-1.5c-.2847728 0-.5544546.0809461-.78125.21875l-2.84375-2.125c.0759039-.1794577.125-.3866425.125-.59375 0-.82843-.67157-1.5-1.5-1.5zm0 1c.27614 0 .5.22386.5.5s-.22386.5-.5.5-.5-.22386-.5-.5.22386-.5.5-.5zm5 4c.27614 0 .5.22386.5.5s-.22386.5-.5.5-.5-.22386-.5-.5.22386-.5.5-.5zm2.5.78125v4.3125l-2-2.03125v1.4375l2.28125 2.28125.21875.21875.21875-.21875 2.28125-2.28125v-1.4375l-2 2.03125v-4.3125zm-7.5 4.21875c.27614 0 .5.22386.5.5s-.22386.5-.5.5-.5-.22386-.5-.5.22386-.5.5-.5z" fill="#4d4d4d"/></svg>