<svg height="16" viewBox="0 0 16.000001 16.000001" width="16" xmlns="http://www.w3.org/2000/svg" xmlns:xlink="http://www.w3.org/1999/xlink"><linearGradient id="a" gradientTransform="matrix(.25508209 .06834904 -.06793671 .25354327 13.443481 .03325)" gradientUnits="userSpaceOnUse" x1="10.568387" x2="15.296399" y1="28.749016" y2="44.988041"><stop offset="0" stop-color="#fff"/><stop offset=".35621077" stop-color="#fff" stop-opacity=".235"/><stop offset="1" stop-color="#fff" stop-opacity=".157"/><stop offset="1" stop-color="#fff" stop-opacity=".392"/></linearGradient><radialGradient id="b" cx="5" cy="4.121356" gradientTransform="matrix(-1.706926 .15517496 -.21424541 -2.3567015 12.417612 11.936931)" gradientUnits="userSpaceOnUse" r="2.33377" xlink:href="#c"/><linearGradient id="c"><stop offset="0" stop-color="#737373"/><stop offset=".262" stop-color="#636363"/><stop offset=".705" stop-color="#4b4b4b"/><stop offset="1" stop-color="#3f3f3f"/></linearGradient><radialGradient id="d" cx="11.5" cy="2.992463" gradientTransform="matrix(-1.886169 -.14508935 .18917342 -2.459264 30.624848 10.027785)" gradientUnits="userSpaceOnUse" r="2.643067" xlink:href="#c"/><radialGradient id="e" cx="7.772984" cy="7.282222" gradientTransform="matrix(.01735505 1.7567937 -1.7341486 .01713137 20.266536 -5.783222)" gradientUnits="userSpaceOnUse" r="6.164814"><stop offset="0" stop-color="#cdf87e"/><stop offset=".26238" stop-color="#a2e34f"/><stop offset=".66093999" stop-color="#68b723"/><stop offset="1" stop-color="#1d7e0d"/></radialGradient><g stroke-linejoin="round"><path d="m14.148 6.28c-.15-.056-.323-.02-.44.103l-5.03 5.295-2.54-2.413c-.164-.158-.423-.154-.58.012l-1.433 1.52c-.157.165-.15.426.014.583l4.04 3.924c.038.037.082.062.13.08.15.063.33.032.452-.095l6.78-7.143c.16-.165.153-.426-.012-.584l-1.242-1.195c-.04-.04-.09-.07-.14-.087z" fill="url(#e)" stroke="#0f5a00" stroke-linecap="round" stroke-opacity=".501961"/><path d="m9.0974938 12.827279 4.9193502-5.3442508.792467.6915203m-6.0401855 6.3269985-3.5872994-3.442793 1.0216836-1.026074" fill="none" opacity=".5" stroke="url(#a)"/><g transform="translate(0 -.042969)"><path d="m4.7865854 10.230507-.2080711-.8547786h-.0449883q-.185577.2530594-.3711539.4386363-.1855769.1799534-.404895.2980483-.2193182.118094-.4892483.174329-.26993.05624-.6242132.05624-.3880244 0-.7141899-.112471-.3261655-.106851-.5679778-.3317931-.2361888-.2305653-.3711538-.5736014-.1349651-.3486596-.1349651-.8210372 0-.922261.6467074-1.4171328.652331-.4948717 1.9794871-.5398601l1.0347318-.0393648v-.3880244q0-.3767774-.084353-.6298368-.0787297-.2530594-.2361889-.4048951-.1518357-.1574592-.3824009-.2249417-.2249417-.0674825-.5173659-.0674825-.4667541 0-.8716492.134965-.3992715.1349651-.7704253.3261655l-.3599067-.7704253q.4161421-.2249418.9278845-.382401.5117424-.1574591 1.0740967-.1574591.5736013 0 .9897435.1180944.4217657.1124708.6916957.3655302.2755536.2474359.4105186.6354604.1349651.3880244.1349651.9391316v4.2289042zm-1.8782633-.71419q.3430361 0 .6354603-.1068473.2924243-.1068473.5061189-.320542.2136946-.2193181.331789-.5454836.1237179-.331789.1237179-.7760489v-.5567307l-.8041666.0393648q-.5061188.0224941-.8491549.1124708-.3430361.0899767-.5511072.2530594-.2024475.1574592-.2924242.3880245-.089977.2249417-.089977.5117424 0 .5173659.26993.7591782.2755536.2418124.7198138.2418124z" fill="url(#b)"/><path d="m7.1034849 6.5245923q0-1.0178613.134965-1.8051573.1405886-.7929195.4330128-1.3608973.2924242-.5736013.7479313-.9278845.455507-.3542832 1.090967-.4948718.702943-.1518356 1.383392-.2868007.680448-.1405885 1.25405-.2530594l.185577.8997668q-.281178.044988-.629837.1068474-.343036.061859-.697319.1293414-.34866.067483-.680449.1349651-.326166.067483-.573601.1237179-.34866.07873-.629837.2643065-.281177.1855769-.483625.5061189-.202447.3149183-.320542.7816724-.112471.4611305-.134965 1.0965908h.07311q.101224-.1630827.275554-.331789.17433-.1687063.410518-.3036713.236189-.1405886.534237-.2305653.303671-.089977.663578-.089977.556731 0 .978496.208071.421766.2024476.702943.5736014.286801.3655303.427389.8716491.140589.5061189.140589 1.1134615 0 .7704253-.196824 1.3496502-.1912.5792249-.53986.9672494-.34866.3880244-.837908.5848485-.489248.191201-1.074097.191201-.601719 0-1.090967-.247436-.483629-.2530595-.8322882-.7366842-.3430361-.4892482-.528613-1.1978146-.1855769-.7141899-.1855769-1.6364509zm2.7049241 2.9692305q.337413 0 .612966-.1068473.275554-.1124709.472378-.3599067.196824-.2474359.303671-.6467075.106847-.404895.106847-.995367 0-.4723776-.07311-.849155-.073102-.3767773-.236185-.6410838-.163082-.2699301-.416142-.4105186-.253059-.1462122-.618589-.1462122-.343037 0-.641084.1349651-.298048.134965-.534237.3261654-.230565.1912005-.393648.3992716-.157459.2024475-.230565.3486596 0 .5623543.06748 1.0909673.07311.528613.25306.9447552.185577.4105186.506119.663578.320542.2474359.821037.2474359z" fill="url(#d)"/><g fill="none" stroke="#000" stroke-width=".5"><path d="m4.7865854 10.230507-.2080711-.8547786h-.0449883q-.185577.2530594-.3711539.4386363-.1855769.1799534-.404895.2980483-.2193182.118094-.4892483.174329-.26993.05624-.6242132.05624-.3880244 0-.7141899-.112471-.3261655-.106851-.5679778-.3317931-.2361888-.2305653-.3711538-.5736014-.1349651-.3486596-.1349651-.8210372 0-.922261.6467074-1.4171328.652331-.4948717 1.9794871-.5398601l1.0347318-.0393648v-.3880244q0-.3767774-.084353-.6298368-.0787297-.2530594-.2361889-.4048951-.1518357-.1574592-.3824009-.2249417-.2249417-.0674825-.5173659-.0674825-.4667541 0-.8716492.134965-.3992715.1349651-.7704253.3261655l-.3599067-.7704253q.4161421-.2249418.9278845-.382401.5117424-.1574591 1.0740967-.1574591.5736013 0 .9897435.1180944.4217657.1124708.6916957.3655302.2755536.2474359.4105186.6354604.1349651.3880244.1349651.9391316v4.2289042zm-1.8782633-.71419q.3430361 0 .6354603-.1068473.2924243-.1068473.5061189-.320542.2136946-.2193181.331789-.5454836.1237179-.331789.1237179-.7760489v-.5567307l-.8041666.0393648q-.5061188.0224941-.8491549.1124708-.3430361.0899767-.5511072.2530594-.2024475.1574592-.2924242.3880245-.089977.2249417-.089977.5117424 0 .5173659.26993.7591782.2755536.2418124.7198138.2418124z" opacity=".61"/><path d="m7.1034849 6.5245923q0-1.0178613.134965-1.8051573.1405886-.7929195.4330128-1.3608973.2924242-.5736013.7479313-.9278845.455507-.3542832 1.090967-.4948718.702943-.1518356 1.383392-.2868007.680448-.1405885 1.25405-.2530594l.185577.8997668q-.281178.044988-.629837.1068474-.343036.061859-.697319.1293414-.34866.067483-.680449.1349651-.326166.067483-.573601.1237179-.34866.07873-.629837.2643065-.281177.1855769-.483625.5061189-.202447.3149183-.320542.7816724-.112471.4611305-.134965 1.0965908h.07311q.101224-.1630827.275554-.331789.17433-.1687063.410518-.3036713.236189-.1405886.534237-.2305653.303671-.089977.663578-.089977.556731 0 .978496.208071.421766.2024476.702943.5736014.286801.3655303.427389.8716491.140589.5061189.140589 1.1134615 0 .7704253-.196824 1.3496502-.1912.5792249-.53986.9672494-.34866.3880244-.837908.5848485-.489248.191201-1.074097.191201-.601719 0-1.090967-.247436-.483629-.2530595-.8322882-.7366842-.3430361-.4892482-.528613-1.1978146-.1855769-.7141899-.1855769-1.6364509zm2.7049241 2.9692305q.337413 0 .612966-.1068473.275554-.1124709.472378-.3599067.196824-.2474359.303671-.6467075.106847-.404895.106847-.995367 0-.4723776-.07311-.849155-.073102-.3767773-.236185-.6410838-.163082-.2699301-.416142-.4105186-.253059-.1462122-.618589-.1462122-.343037 0-.641084.1349651-.298048.134965-.534237.3261654-.230565.1912005-.393648.3992716-.157459.2024475-.230565.3486596 0 .5623543.06748 1.0909673.07311.528613.25306.9447552.185577.4105186.506119.663578.320542.2474359.821037.2474359z" opacity=".61"/></g></g></g></svg>