<svg viewBox="0 0 16 16" xmlns="http://www.w3.org/2000/svg"><g fill="#aaa8ac"><path d="m1 0v7h2v-2h3 1 3v2h-.1875l.568359.5683594.275391.2402344a1.0001 1.0001 0 0 1 .34375.7539062v-.5625h3v2h-3v-.5625a1.0001 1.0001 0 0 1 -.34375.753906l-.275391.240235-.568359.568359h.1875v2h-3-1-3v-2h-2v4h15v-15zm2 2h3v2h-3zm4 0h3v2h-3zm4 0h3v2h-3zm0 3h3v2h-3zm0 6h3v2h-3z"/><path d="m3 2h11v2h-11z" opacity=".35"/><path d="m6 6v1c0 .2653.1.53058.3.7l.2625.3h-5.5625v2h5.5625l-.2625.3c-.2.16943-.3.43469-.3.7v1h1c.3 0 .53057-.1.7-.3l2-2 .3-.2625v-.875l-.3-.2625-2-2c-.16942-.2-.43469-.3-.7-.3z"/></g></svg>