<svg height="512" width="512" xmlns="http://www.w3.org/2000/svg" xmlns:xlink="http://www.w3.org/1999/xlink"><linearGradient id="a"><stop offset="0" stop-color="#0369a3"/><stop offset="1" stop-color="#1c99e0"/></linearGradient><linearGradient id="b" gradientUnits="userSpaceOnUse" x1="1730" x2="1340" xlink:href="#a" y1="133" y2="-372"/><clipPath id="c"><circle cx="3063.9983" cy="-1084.639" r="15.000002"/></clipPath><clipPath id="d"><circle cx="3063.9983" cy="-1084.639" r="15.000002"/></clipPath><clipPath id="e"><circle cx="3063.9983" cy="-1084.639" r="15.000002"/></clipPath><clipPath id="f"><circle cx="3063.9983" cy="-1084.639" r="15.000002"/></clipPath><clipPath id="g"><circle cx="3063.9983" cy="-1084.639" r="15.000002"/></clipPath><clipPath id="h"><circle cx="3063.9983" cy="-1084.639" r="15.000002"/></clipPath><clipPath id="i"><circle cx="3063.9983" cy="-1084.639" r="15.000002"/></clipPath><clipPath id="j"><circle cx="3063.9983" cy="-1084.639" r="15.000002"/></clipPath><linearGradient id="k" gradientUnits="userSpaceOnUse" x1="434.00592" x2="74.00592" y1="482.0002" y2="22.0002"><stop offset="0" stop-color="#e6e6e6"/><stop offset="1" stop-color="#fff"/></linearGradient><linearGradient id="l" gradientTransform="matrix(2.008088 0 0 2.0188846 126.9892 2846.1793)" gradientUnits="userSpaceOnUse" x1="151.89409" x2="-24.890991" xlink:href="#a" y1="-1168.5558" y2="-1398.881"/><path d="m75.8672 0c-8.2664 0-15.8672 7.36558-15.8672 16.24219v479.90039c0 7.73479 7.2433 15.85742 15.5137 15.85742h359.9902c9.2544 0 16.5-7.73949 16.5-15.48828v-298.38281c0-8.44868-1.0237-12.36482-7-18.33789l-170.6562-170.57227c-5.9762-5.97107-10.5476-9.0506-19-9.05859zm253.6953.0781c-13.6766 0-14.2772 14.22732-7.0449 21.49219v.002l106.3848 106.86718c8.6804 8.71464 23.1094 6.6482 23.1094-7.09765v-104.8711c0-8.45468-7.6541-16.39258-16.0645-16.39258z" fill="url(#l)" stroke-width="15.997"/><path d="m84.0059 24v464h344v-288l-176-176z" fill="url(#k)"/><g transform="translate(-1277.9941 384)"><path d="m1405-164.00781v16h256v-16zm0 32v16h256v-16zm0 32v15.999998h149.25c10.524-5.0936 22.274-8 34.75-8s24.226 2.9064 34.75 8h37.25v-15.999998zm184.0234 18.425779a69.60031 69.60031 0 0 0 -69.6015 69.599609 69.60031 69.60031 0 0 0 69.6015 69.601563 69.60031 69.60031 0 0 0 69.5996-69.601563 69.60031 69.60031 0 0 0 -69.5996-69.599609zm-184.0234 13.574219v16h114.75c3.3748-5.8264 7.4438-11.2236 12.127-16zm241.125 0c4.6832 4.7764 8.7502 10.173599 12.125 16h2.75v-16zm-241.125 32v16h104.377c.5516-5.5184 1.7574-10.87 3.373-16zm0 31.9999995v16.0000005h107.75c-1.6156-5.1300005-2.8214-10.4816005-3.373-16.0000005zm0 32.0000005v16h126.877c-4.6832-4.776401-8.7522-10.173601-12.127-16z" fill="url(#b)"/><g fill="none" stroke="#aadcf7" stroke-linecap="round"><path clip-path="url(#c)" d="m3066.2254-1069.3064c-2.0507-12.7551-13.5915-15.1323-19.2204-13.1889" stroke-width=".877032" transform="matrix(4.5624407 0 0 4.5592407 -12390.321 4932.2248)"/><g stroke-width=".866611"><path clip-path="url(#d)" d="m3068.184-1099.5366c-15.8287 5.5755-16.1955 20.8148-12.4084 27.5262" transform="matrix(4.6156807 0 0 4.6156807 -12553.401 4994.3368)"/><path clip-path="url(#e)" d="m3078.4656-1088.3913c-15.558-9.6896-30.2603-1.1652-34.1742 5.8114" transform="matrix(4.6156807 0 0 4.6156807 -12552.201 4990.4928)"/><path clip-path="url(#f)" d="m3062.7593-1100.0911c15.4435 6.5674 14.8438 21.7994 10.639 28.2572" transform="matrix(4.6156807 0 0 4.6156807 -12553.401 4994.3368)"/><path clip-path="url(#g)" d="m3072.4132-1068.2406c1.6468-20.2395-13.394-26.7448-21.8167-25.1165" transform="matrix(4.6156807 0 0 4.6156807 -12553.401 4994.3368)"/><path clip-path="url(#h)" d="m3085.0144-1076.9486c-15.8776-5.4349-25.6105 6.297-26.7982 13.9111" transform="matrix(4.6156807 0 0 4.6156807 -12553.401 4994.3368)"/><path clip-path="url(#i)" d="m3086.2173-1079.8642c-14.1391-9.0401-26.3732.053-29.3302 7.1696" transform="matrix(4.6156807 0 0 4.6156807 -12553.401 4994.3368)"/><path clip-path="url(#j)" d="m3078.5198-1092.1932c-16.7706-.6199-22.7025 13.4218-21.6414 21.0549" transform="matrix(4.6156807 0 0 4.6156807 -12553.401 4994.3368)"/></g></g></g></svg>