<svg height="512" width="512" xmlns="http://www.w3.org/2000/svg" xmlns:xlink="http://www.w3.org/1999/xlink"><linearGradient id="a" gradientTransform="matrix(2.008088 0 0 2.0188846 126.9892 2846.1792)" gradientUnits="userSpaceOnUse" x1="151.89409" x2="-24.890991" xlink:href="#b" y1="-1168.5558" y2="-1398.881"/><linearGradient id="b"><stop offset="0" stop-color="#535353"/><stop offset="1" stop-color="#7e7e7e"/></linearGradient><linearGradient id="c" gradientTransform="matrix(0 2.157508 -3.555632 0 4154.0859 -611.8488)" gradientUnits="userSpaceOnUse" x1="445.69522" x2="441.38797" xlink:href="#d" y1="1103.5776" y2="1099.8198"/><linearGradient id="d" gradientUnits="userSpaceOnUse" x1="445.69522" x2="441.38797" y1="1103.5776" y2="1099.8198"><stop offset="0" stop-color="#e9b913"/><stop offset="1" stop-color="#ff0"/></linearGradient><linearGradient id="e" gradientTransform="matrix(0 2.157508 -3.555632 0 4290.0859 -611.8488)" gradientUnits="userSpaceOnUse" x1="445.69522" x2="441.38797" xlink:href="#d" y1="1103.5776" y2="1099.8198"/><linearGradient id="f" gradientTransform="matrix(0 2.157508 -3.555632 0 4290.0859 -723.8488)" gradientUnits="userSpaceOnUse" x1="445.69522" x2="441.38797" xlink:href="#d" y1="1103.5776" y2="1099.8198"/><linearGradient id="g" gradientTransform="matrix(6.99996 0 0 6.6052 -2226.9941 -7517.1288)" gradientUnits="userSpaceOnUse" x1="382.60724" x2="326.92453" xlink:href="#b" y1="1215.1245" y2="1138.4175"/><linearGradient id="h" gradientTransform="matrix(0 2.157508 -3.555632 0 4154.0859 -723.8488)" gradientUnits="userSpaceOnUse" x1="445.69522" x2="441.38797" xlink:href="#d" y1="1103.5776" y2="1099.8198"/><linearGradient id="i" gradientUnits="userSpaceOnUse" x1="452.0059" x2="57.0059" y1="512" y2="2"><stop offset="0" stop-color="#0369a3"/><stop offset="1" stop-color="#1c99e0"/></linearGradient><linearGradient id="j" gradientUnits="userSpaceOnUse" x1="434.00592" x2="74.00592" y1="482" y2="22"><stop offset="0" stop-color="#e6e6e6"/><stop offset="1" stop-color="#fff"/></linearGradient><path d="m75.8672-.00005c-8.2664 0-15.8672 7.36558-15.8672 16.24219v479.90039c0 7.73479 7.2433 15.85742 15.5137 15.85742h359.9902c9.2544 0 16.5-7.73949 16.5-15.48828v-298.38281c0-8.44868-1.0237-12.36482-7-18.33789l-170.6562-170.57227c-5.9762-5.97107-10.5476-9.0506-19-9.05859z" fill="url(#a)" stroke-width="15.997"/><path d="m84.0059 23.99995v464h344v-288l-176-176z" fill="url(#j)"/><path d="m184.0059 224v44h64v-44zm136 0v44h64v-44zm-192 4v8h48v-8zm60 0h55.998v36h-55.998zm76 0v8h48v-8zm60 0h55.998v36h-55.998zm-196 16v8h48v-8zm136 0v8h48v-8zm-136 16v8h48v-8zm136 0v8h48v-8zm-136 16v8h120v-8zm136 0v8h120v-8zm-136 16v8h120v-8zm136 0v8h120v-8zm-136 16v8h96v-8zm136 0v8h96v-8zm-80 28v44h64v-44zm136 0v44h64v-44zm-192 4v8h48v-8zm60 0h55.998v36h-55.998zm76 0v8h48v-8zm60 0h55.998v36h-55.998zm-196 16v8h48v-8zm136 0v8h48v-8zm-136 16v8h48v-8zm136 0v8h48v-8zm-136 16v8h120v-8zm136 0v8h120v-8zm-136 16v8h120v-8zm136 0v8h120v-8zm-136 16v8h96v-8zm136 0v8h96v-8z" fill="url(#i)"/><path d="m244.0018 244.38044a16.667025 16.363693 0 0 1 -16.667-16.36368h16.667z" fill="url(#h)" opacity=".74"/><path d="m204.3399 236-16.334 23.69141v4.30859h56v-4.30859l-11.666-12.92188-11.666 8.61524zm136 0-16.334 23.69141v4.30859h56v-4.30859l-11.666-12.92188-11.666 8.61524zm-136 112-16.334 23.69141v4.30859h56v-4.30859l-11.666-12.92188-11.666 8.61524zm136 0-16.334 23.69141v4.30859h56v-4.30859l-11.666-12.92188-11.666 8.61524z" fill="url(#g)"/><path d="m380.0018 244.38044a16.667025 16.363693 0 0 1 -16.667-16.36368h16.667z" fill="url(#f)" opacity=".74"/><path d="m380.0018 356.38044a16.667025 16.363693 0 0 1 -16.667-16.36368h16.667z" fill="url(#e)" opacity=".74"/><path d="m244.0018 356.38044a16.667025 16.363693 0 0 1 -16.667-16.36368h16.667z" fill="url(#c)" opacity=".74"/><path d="m329.5625.07805c-13.6766 0-14.2772 14.22732-7.0449 21.49219v.002l106.3848 106.86718c8.6804 8.71464 23.1094 6.6482 23.1094-7.09765v-104.8711c0-8.45468-7.6541-16.39258-16.0645-16.39258h-106.3848z" fill="url(#a)" stroke-width="15.997"/></svg>