<svg height="512" width="512" xmlns="http://www.w3.org/2000/svg" xmlns:xlink="http://www.w3.org/1999/xlink"><linearGradient id="a" gradientTransform="matrix(0 3.3507195 -5.47088 0 6378.2615 -1248.1482)" gradientUnits="userSpaceOnUse" x1="445.69501" x2="441.388" y1="1103.578" y2="1099.8199"><stop offset="0" stop-color="#e9b913"/><stop offset="1" stop-color="#ff0"/></linearGradient><linearGradient id="b" gradientTransform="matrix(1.9726968 0 0 1.9549122 -405.4482 3355.3572)" gradientUnits="userSpaceOnUse" x2="0" y1="-1556.6379" y2="-1550.512"><stop offset="0" stop-color="#0369a3"/><stop offset="1" stop-color="#047fc6"/></linearGradient><linearGradient id="c" gradientTransform="matrix(1.9726968 0 0 1.9549122 -1424.4783 294.6724)" gradientUnits="userSpaceOnUse" x2="0" xlink:href="#d" y1="-5.058" y2="1.412"/><linearGradient id="d"><stop offset="0" stop-color="#808080"/><stop offset="1" stop-color="#666"/></linearGradient><linearGradient id="e" gradientTransform="matrix(1.9726968 0 0 1.9549122 -1424.4783 294.6724)" gradientUnits="userSpaceOnUse" x2="0" xlink:href="#d" y1="-6.308" y2="-.088"/><linearGradient id="f" gradientTransform="matrix(1.9726968 0 0 1.9549122 -1424.4783 294.6724)" gradientUnits="userSpaceOnUse" x2="0" xlink:href="#g" y1="-8.721" y2="2.989"/><linearGradient id="g"><stop offset="0" stop-color="#666"/><stop offset="1" stop-color="#666" stop-opacity=".5"/></linearGradient><radialGradient id="h" cx="-1535.304" cy="-842.90802" gradientTransform="matrix(0 6.4819806 14.961722 0 12973.993 10181.383)" gradientUnits="userSpaceOnUse" r="10"><stop offset="0" stop-color="#fff"/><stop offset="1" stop-color="#00a8ff" stop-opacity="0"/></radialGradient><linearGradient id="i" gradientTransform="matrix(1.9726968 0 0 1.9549122 -1424.4783 294.6724)" gradientUnits="userSpaceOnUse" x2="0" xlink:href="#g" y1="-8.721" y2="-1.764"/><linearGradient id="j" gradientTransform="matrix(17.490561 0 0 15.847496 -5822.2369 -18339.476)" gradientUnits="userSpaceOnUse" x2="0" y1="1173" y2="1178"><stop offset="0" stop-color="#0369a3"/><stop offset="1" stop-color="#023f62"/></linearGradient><linearGradient id="k" gradientTransform="matrix(1.9726968 0 0 1.9549122 -405.4482 3355.3572)" gradientUnits="userSpaceOnUse" x2="0" y1="-1554.4651" y2="-1562.3665"><stop offset="0" stop-color="#18a303"/><stop offset="1" stop-color="#106802"/></linearGradient><linearGradient id="l" gradientTransform="matrix(17.490561 0 0 15.847496 -5822.2369 -18359.221)" gradientUnits="userSpaceOnUse" x2="0" y1="1173.911" y2="1178"><stop offset="0" stop-color="#666"/><stop offset="1" stop-color="#1a1a1a"/></linearGradient><linearGradient id="m" gradientTransform="matrix(1.9726968 0 0 1.9549122 -405.4482 3355.3572)" gradientUnits="userSpaceOnUse" x1="346.69601" x2="361.36801" y1="-1576.519" y2="-1566.796"><stop offset="0" stop-color="#fff"/><stop offset="1" stop-color="#fff" stop-opacity="0"/></linearGradient><linearGradient id="n" gradientTransform="matrix(-17.490561 0 0 15.847496 6396.1736 -18364.108)" gradientUnits="userSpaceOnUse" x2="0" y1="1173" y2="1178"><stop offset="0" stop-color="#666"/><stop offset="1" stop-color="#333"/></linearGradient><linearGradient id="o" gradientTransform="matrix(19.367977 0 0 15.639298 -4090.1894 9326.5583)" gradientUnits="userSpaceOnUse" x2="0" y1="-581.638" y2="-577.573"><stop offset="0" stop-color="#44adeb"/><stop offset="1" stop-color="#aadcf7"/></linearGradient><linearGradient id="p" gradientTransform="translate(-1829.9941 384)" gradientUnits="userSpaceOnUse" x1="2250" x2="1898" xlink:href="#q" y1="144" y2="-320"/><linearGradient id="q" gradientTransform="translate(0 20)" gradientUnits="userSpaceOnUse" x1="129" x2="103" y1="56" y2="24"><stop offset="0" stop-color="#535353"/><stop offset="1" stop-color="#7e7e7e"/></linearGradient><linearGradient id="r" gradientTransform="matrix(2.008088 0 0 2.0188846 114.9892 2846.1793)" gradientUnits="userSpaceOnUse" x1="151.89409" x2="-24.890991" y1="-1168.5558" y2="-1398.881"><stop offset="0" stop-color="#0369a3"/><stop offset="1" stop-color="#1c99e0"/></linearGradient><linearGradient id="s" gradientUnits="userSpaceOnUse" x1="422.00592" x2="62.00592" y1="482.0002" y2="22.0002"><stop offset="0" stop-color="#e6e6e6"/><stop offset="1" stop-color="#fff"/></linearGradient><linearGradient id="t" gradientTransform="matrix(2.008088 0 0 2.0188846 114.9892 2846.1793)" gradientUnits="userSpaceOnUse" x1="151.89409" x2="-24.890991" xlink:href="#q" y1="-1168.5558" y2="-1398.881"/><g transform="translate(12)"><path d="m63.8672 0c-8.2664 0-15.8672 7.36558-15.8672 16.24219v479.90039c0 7.73479 7.2433 15.85742 15.5137 15.85742h359.9902c9.2544 0 16.5-7.73949 16.5-15.48828v-298.38281c0-8.44868-1.0237-12.36482-7-18.33789l-170.6562-170.57227c-5.9762-5.97107-10.5476-9.0506-19-9.05859z" fill="url(#t)" stroke-width="15.997"/><path d="m72.0059 24v464h344v-288l-176-176z" fill="url(#s)"/><path d="m317.5625.0781c-13.6766 0-14.2772 14.22732-7.0449 21.49219v.002l106.3848 106.86718c8.6804 8.71464 23.1094 6.6482 23.1094-7.09765v-104.8711c0-8.45468-7.6541-16.39258-16.0645-16.39258h-106.3848z" fill="url(#r)" stroke-width="15.997"/><path d="m132.0059 222v10h62v-10zm72 0v110h166v-110zm-90 20v10h80v-10zm0 20v10h80v-10zm0 20v10h80v-10zm0 20v10h80v-10zm0 20v10h80v-10zm0 20v10h256v-10zm0 20v10h256v-10zm0 20v10h256v-10zm0 20v10h256v-10zm0 20v10h168v-10z" fill="url(#p)"/><path d="m212.0059 230.1603h149.9249v93.83578h-149.9249z" fill="url(#o)"/><path d="m321.1828 257.79885c-29.7187 11.74511-58.7469 27.79885-78.4739 53.27135 40.3969 0 78.8172-1.93145 119.216-1.93145l.01-17.67827c-9.9976-8.59379-28.4107-29.39015-40.748-33.66359z" fill="#fff" opacity=".5"/><path d="m321.9522 259.61691c9.9937 4.9518 27.3613 22.19803 39.9727 34.66646v14.85734h-114.9372c19.9933-24.76288 49.9763-39.62021 74.9625-49.5238z" fill="url(#n)"/><path d="m285.2521 288.40104.8739-6.99272 13.1244-5.56368 7.3779-6.83242 12.9803-5.2157-3.3871 8.44913-5.062 8.78146-3.0103 9.54584-2.0832 5.49917-20.8159-7.67108z" fill="#333"/><path d="m250.3512 243.68438c-12.7239 18.99784-23.3962 36.1952-38.3433 53.20098l.138 13.75281c33.1019 0 87.7712.43008 120.8751.43008-27.7302-19.94988-57.948-38.27718-75.1479-68.48058-2.3673 2.08785-5.997-1.01655-7.52 1.09476z" fill="url(#m)" opacity=".5"/><path d="m289.4678 281.90291c-14.959-12.3003-22.4888-22.286-32.4825-37.14333-2.9195.87385-2.8091.54151-4.9948 0 0 0-13.371 19.68597-19.9894 29.71467-6.6203 10.0287-19.9932 24.76092-19.9932 24.76092v9.90358h114.9372s-27.46-19.65469-37.4754-27.23779z" fill="url(#l)"/><path d="m361.9308 299.23517h-6.4428l-28.539 4.95179s-28.2017-7.42867-32.4449-7.42867c-4.1683 0-17.5294 2.47492-20.0288 2.47492-1.7518 0-12.4931-4.95179-15.032-4.95179-4.19 0-9.0191 5.25871-21.5122 7.42866 0 0-3.5903-7.89393-5.9319-7.42866-14.9925 5.72789-19.9933 4.95179-19.9933 4.95179v24.76092h149.919v-24.76092z" fill="url(#k)"/><path d="m212.0059 304.18891v19.80717h129.9356l4.9988-4.95179-4.9968-4.95375-9.9937-4.95374-24.9862-4.9518-24.9862-2.47883-22.4887 2.47688h-29.985-17.4899z" fill="url(#j)"/><path d="m222.0035 294.28337 7.1214-11.32676 8.4373-9.89967 6.4448-11.63173 7.9815-11.71579-5.417 14.79477-3.9651 12.18888-1.9195 7.68867-3.5824 8.19108c-1.4401-1.04196-3.2628-1.08106-4.9061-1.60889l-4.6911 1.82198-5.5077 1.49746z" fill="#333"/><path d="m240.3338 294.50232 5.3756-13.44979 2.6237-13.87988 3.7876-8.56838 2.3672-8.89485 3.2826 9.14899.9311 8.73846 3.973 7.78641 3.9395 8.94372.7358 6.31437-6.6145 1.84348-6.285-2.42995-6.9478 4.46697h-7.1688z" fill="url(#i)"/><path d="m304.7483 296.76807-8.7548-6.25181-5.5907-4.4181 5.4328 8.38266 8.9166 2.28725z" fill="#808080"/><path d="m361.9308 292.71749v-62.55719l-149.9249-.16031v62.7175z" fill="url(#h)"/><path d="m361.9308 259.32368c-16.3423-.00003-29.5904-13.12868-29.5904-29.32369h29.5904z" fill="#e9b913" opacity=".5"/><path d="m312.0808 290.80363 3.0892-9.85667 3.7916-8.56838 2.3672-8.89094 3.2826 9.14899 4.2136 7.80792 3.038 7.78446-.434 8.32402 4.1703 4.15027-8.5891-.46136-17.3341-3.55207 2.4067-5.88429z" fill="url(#f)"/><path d="m291.9672 294.28337-7.2793-10.92796-12.9014-13.94439-10.6723-13.9092-4.1289-5.79045 4.4741 15.03328 4.9041 9.01214 4.3518 13.77041 1.2625 6.75617 4.4938 1.4916 6.865-1.57761c2.8841-.28347 5.7662.0489 8.6326.0841z" fill="url(#e)"/><path d="m359.899 296.29498-5.8688-3.4993-8.2183-11.15863-12.0847-10.35126-9.4354-7.8001 1.8188 6.51572 8.3406 13.03926.9153 11.7588 5.0107 3.81208 11.2443-2.16409 8.2794-.15053z" fill="url(#c)"/><path d="m212.0591 309.27168-.051 14.7244h124.9368v-4.95179l-4.9969-4.95375-24.9862-4.95374-24.9881-2.47492-24.9862 2.47492-27.0417.73895-17.8825-.60602z" fill="url(#b)"/><path d="m282.0406 304.31598-25.0927 2.81899-26.7695 2.02919-16.3241.0587 16.0913.66076 27.5862-.0391 24.4417-2.50619 25.0296 2.36544 11.1339 2.1504 13.7102 3.16696 4.4978 4.27344.6194 4.70547h2.2804l.4044-5.45029-6.7269-6.37302-26.0396-4.85404-24.8421-3.0047z" fill="#0088b7"/><path d="m266.981 319.04625 4.9968-4.95375h19.9914l14.9924 4.95179 4.9969 4.94984h-9.9976l-34.9799-4.95179z" fill="#1c99e0" opacity=".5"/><path d="m257.009 249.70942 3.0814 11.54571c2.5329 4.64878 7.5041 6.61738 11.6073 10.57608 5.9221 5.72202 12.503 12.4782 15.0221 14.65597l-2.0319-3.11613-12.8876-13.98739-10.6644-13.86815-4.1308-5.80218z" fill="#fff" opacity=".4"/><path d="m252.0122 249.70942-6.4468 14.88275-6.4349 17.86203-7.0505 8.54883c1.014.22481 4.1545.96964 5.0166 1.59325l3.5706-8.18717 1.9135-7.69649 4.0046-12.2182 5.4249-14.785z" opacity=".25"/><path d="m259.4098 294.30683c-4.0795 0-8.743 4.94593-20.5259 7.20776l-.434.24437c.217.0723.9627.20526 3.5785-.18377 3.4857-.51805 15.8999-5.7318 18.8589-5.55977 2.967.17204 11.8204 5.18052 13.5643 5.00849 1.7439-.17594 18.5-2.58439 21.6405-1.89627 3.1366.694 31.932 7.08852 31.932 7.08852l27.4935-5.00849 6.4113.18376v-2.13867h-6.4705l-28.4857 4.94593s-28.2431-7.44822-32.4844-7.44822c-4.1703 0-17.5373 2.50229-20.0367 2.50229-1.7518 0-12.501-4.94593-15.0418-4.94593z" fill="#ff0" opacity=".35"/><path d="m362.0004 255.56086c-14.1626-.003-25.642-11.38091-25.642-25.41522h25.6475z" fill="url(#a)" opacity=".74"/><g fill="#fff" transform="translate(-1829.9941 384)"><path d="m2160.3618-153.8397c0 17.28729 14.1186 31.27859 31.5631 31.27859v-1.93145c-16.3674 0-29.6141-13.12528-29.6141-29.34714z" opacity=".5"/><path d="m2154.2583-120.54559 1.8504 6.53722 8.3247 13.07446.9213 11.72947 4.9968 3.84727.8621-.18377-4.4386-4.39855-.864-11.24074-4.7582-7.25273 12.7733 6.764 10.11 10.4451-8.1985-11.11759-12.0828-10.38645-9.4965-7.81965zm29.7759 29.32368.4931.55129-.1242-.30693z" opacity=".4"/><path d="m2040-156v98h154v-98zm2 2.1603h149.925l.075 93.8397h-150z" opacity=".55"/></g></g></svg>