<?xml version="1.0" encoding="UTF-8" standalone="no"?>
<!-- Created with Inkscape (http://www.inkscape.org/) -->

<svg
   xmlns:dc="http://purl.org/dc/elements/1.1/"
   xmlns:cc="http://creativecommons.org/ns#"
   xmlns:rdf="http://www.w3.org/1999/02/22-rdf-syntax-ns#"
   xmlns:svg="http://www.w3.org/2000/svg"
   xmlns="http://www.w3.org/2000/svg"
   xmlns:sodipodi="http://sodipodi.sourceforge.net/DTD/sodipodi-0.dtd"
   xmlns:inkscape="http://www.inkscape.org/namespaces/inkscape"
   width="32"
   height="32"
   id="svg5453"
   version="1.1"
   inkscape:version="0.91 r13725"
   sodipodi:docname="transition.svg"
   viewBox="0 0 32 32">
  <defs
     id="defs5455" />
  <sodipodi:namedview
     id="base"
     pagecolor="#ffffff"
     bordercolor="#666666"
     borderopacity="1.0"
     inkscape:pageopacity="0"
     inkscape:pageshadow="2"
     inkscape:zoom="8.7500095"
     inkscape:cx="25.083933"
     inkscape:cy="14.692217"
     inkscape:document-units="px"
     inkscape:current-layer="layer1"
     showgrid="true"
     fit-margin-top="0"
     fit-margin-left="0"
     fit-margin-right="0"
     fit-margin-bottom="0"
     inkscape:window-width="1920"
     inkscape:window-height="1013"
     inkscape:window-x="-4"
     inkscape:window-y="0"
     inkscape:window-maximized="1"
     inkscape:showpageshadow="false"
     borderlayer="true"
     showguides="true"
     inkscape:guide-bbox="true"
     inkscape:object-nodes="true"
     inkscape:snap-bbox="true"
     inkscape:snap-global="true">
    <inkscape:grid
       type="xygrid"
       id="grid4063" />
    <sodipodi:guide
       position="4,24"
       orientation="28,0"
       id="guide4280" />
    <sodipodi:guide
       position="13,4"
       orientation="0,28"
       id="guide4282" />
    <sodipodi:guide
       position="28,14"
       orientation="-28,0"
       id="guide4284" />
    <sodipodi:guide
       position="15,28"
       orientation="0,-28"
       id="guide4286" />
  </sodipodi:namedview>
  <metadata
     id="metadata5458">
    <rdf:RDF>
      <cc:Work
         rdf:about="">
        <dc:format>image/svg+xml</dc:format>
        <dc:type
           rdf:resource="http://purl.org/dc/dcmitype/StillImage" />
        <dc:title />
      </cc:Work>
    </rdf:RDF>
  </metadata>
  <g
     inkscape:label="Capa 1"
     inkscape:groupmode="layer"
     id="layer1"
     transform="translate(-384.57143,-515.798)">
    <path
       style="fill:#4d4d4d;fill-opacity:1;stroke:none;stroke-width:1;stroke-linecap:butt;stroke-linejoin:round;stroke-miterlimit:4;stroke-dasharray:none"
       d="m 385.57143,519.798 0,20 30,0 0,-20 -30,0 z m 1,1 28,0 0,18 -28,0 0,-18 z m 11,20 0,2 -2,0 0,1 10,0 0,-1 -2,0 0,-2 -1,0 0,2 -4,0 0,-2 -1,0 z"
       id="rect4160"
       inkscape:connector-curvature="0" />
    <path
       inkscape:connector-curvature="0"
       style="fill:#1d99f3;fill-opacity:1;stroke:none;stroke-width:1;stroke-linecap:butt;stroke-linejoin:round;stroke-miterlimit:4;stroke-dasharray:none"
       d="m 480.57143,520.798 0,9 -14,9 28,0 0,-18 -14,0 z"
       id="rect4223-0" />
    <path
       style="fill:#4d4d4d;fill-opacity:1;stroke:none;stroke-width:1;stroke-linecap:butt;stroke-linejoin:round;stroke-miterlimit:4;stroke-dasharray:none"
       d="m 465.57143,519.798 0,20 30,0 0,-20 -30,0 z m 1,1 28,0 0,18 -28,0 0,-18 z m 11,20 0,2 -2,0 0,1 10,0 0,-1 -2,0 0,-2 -1,0 0,2 -4,0 0,-2 -1,0 z"
       id="rect4160-9"
       inkscape:connector-curvature="0" />
    <path
       style="fill:#4d4d4d;fill-opacity:1;stroke:none;stroke-width:1;stroke-linecap:butt;stroke-linejoin:round;stroke-miterlimit:4;stroke-dasharray:none"
       d="m 425.57143,519.798 0,20 30,0 0,-20 -30,0 z m 1,1 28,0 0,18 -28,0 0,-18 z m 11,20 0,2 -2,0 0,1 10,0 0,-1 -2,0 0,-2 -1,0 0,2 -4,0 0,-2 -1,0 z"
       id="rect4160-9-3"
       inkscape:connector-curvature="0" />
    <g
       id="g4232-0-5"
       inkscape:transform-center-x="-0.80422841"
       inkscape:transform-center-y="1.0151174"
       transform="matrix(0.99849308,-0.05487784,0.05487784,0.99849308,-28.46859,22.78046)" />
    <rect
       style="fill:#1d99f3;fill-opacity:1;stroke:none;stroke-width:1;stroke-linecap:butt;stroke-linejoin:round;stroke-miterlimit:4;stroke-dasharray:none"
       id="rect4310"
       width="28"
       height="9"
       x="426.57144"
       y="-538.79803"
       transform="scale(1,-1)" />
    <path
       style="fill:#4d4d4d;fill-opacity:1;fill-rule:evenodd;stroke:none;stroke-width:1px;stroke-linecap:butt;stroke-linejoin:miter;stroke-opacity:1"
       d="m 437.57142,526.798 6,0 -3,-3 z"
       id="path4346"
       inkscape:connector-curvature="0"
       sodipodi:nodetypes="cccc" />
    <rect
       style="fill:#4d4d4d;fill-opacity:1;stroke:none;stroke-width:1;stroke-linecap:butt;stroke-linejoin:round;stroke-miterlimit:4;stroke-dasharray:none"
       id="rect4344"
       width="2"
       height="9.0000267"
       x="439.57144"
       y="-535.79803"
       transform="scale(1,-1)" />
    <path
       inkscape:connector-curvature="0"
       style="fill:#4d4d4d;fill-opacity:1;stroke:none;stroke-width:1;stroke-linecap:butt;stroke-linejoin:round;stroke-miterlimit:4;stroke-dasharray:none"
       d="m 425.57143,559.798 0,20 30,0 0,-20 -30,0 z m 1,1 28,0 0,18 -28,0 0,-18 z m 11,20 0,2 -2,0 0,1 10,0 0,-1 -2,0 0,-2 -1,0 0,2 -4,0 0,-2 -1,0 z"
       id="rect4160-9-3-0" />
    <rect
       style="fill:#1d99f3;fill-opacity:1;stroke:none;stroke-width:1;stroke-linecap:butt;stroke-linejoin:round;stroke-miterlimit:4;stroke-dasharray:none"
       id="rect4310-0"
       width="28"
       height="9"
       x="426.57144"
       y="560.79797" />
    <path
       style="fill:#4d4d4d;fill-opacity:1;fill-rule:evenodd;stroke:none;stroke-width:1px;stroke-linecap:butt;stroke-linejoin:miter;stroke-opacity:1"
       d="m 437.57143,572.798 6,0 -3,3 z"
       id="path4346-0"
       inkscape:connector-curvature="0"
       sodipodi:nodetypes="cccc" />
    <rect
       style="fill:#4d4d4d;fill-opacity:1;stroke:none;stroke-width:1;stroke-linecap:butt;stroke-linejoin:round;stroke-miterlimit:4;stroke-dasharray:none"
       id="rect4344-2"
       width="2"
       height="9.0000267"
       x="439.57144"
       y="563.79797" />
    <path
       style="fill:#4d4d4d;fill-opacity:1;stroke:none;stroke-width:1;stroke-linecap:butt;stroke-linejoin:round;stroke-miterlimit:4;stroke-dasharray:none"
       d="m 473.82038,534.08802 a 8,8 0 0 0 11.04079,2.47001 8,8 0 0 0 2.47001,-11.04079 l -1.68885,1.07135 a 6,6 0 0 1 -1.85251,8.28059 6,6 0 0 1 -8.28059,-1.85251 l -1.68885,1.07135 z"
       id="path4380"
       inkscape:connector-curvature="0" />
    <path
       style="fill:#4d4d4d;fill-opacity:1;fill-rule:evenodd;stroke:none;stroke-width:1px;stroke-linecap:butt;stroke-linejoin:miter;stroke-opacity:1"
       d="m 472.13153,535.15937 5.06655,-3.21404 -4.1403,-0.92626 z"
       id="path4346-2"
       inkscape:connector-curvature="0"
       sodipodi:nodetypes="cccc" />
    <path
       style="fill:#4d4d4d;fill-opacity:1;stroke:none;stroke-width:1;stroke-linecap:butt;stroke-linejoin:round;stroke-miterlimit:4;stroke-dasharray:none"
       d="m 385.57143,559.798 0,20 30,0 0,-20 -30,0 z m 1,1 28,0 0,18 -28,0 0,-18 z m 11,20 0,2 -2,0 0,1 10,0 0,-1 -2,0 0,-2 -1,0 0,2 -4,0 0,-2 -1,0 z"
       id="rect4160-7"
       inkscape:connector-curvature="0" />
    <path
       style="fill:#4d4d4d;fill-opacity:1;stroke:none;stroke-width:1;stroke-linecap:butt;stroke-linejoin:round;stroke-miterlimit:4;stroke-dasharray:none"
       d="m 385.57143,479.798 0,20 30,0 0,-20 -30,0 z m 1,1 28,0 0,18 -28,0 0,-18 z m 11,20 0,2 -2,0 0,1 10,0 0,-1 -2,0 0,-2 -1,0 0,2 -4,0 0,-2 -1,0 z"
       id="rect4160-5"
       inkscape:connector-curvature="0" />
    <rect
       style="fill:#1d99f3;fill-opacity:1;stroke:none;stroke-width:1;stroke-linecap:butt;stroke-linejoin:round;stroke-miterlimit:4;stroke-dasharray:none"
       id="rect4483-6"
       width="3"
       height="18"
       x="386.57144"
       y="480.79797" />
    <rect
       style="fill:#1d99f3;fill-opacity:1;stroke:none;stroke-width:1;stroke-linecap:butt;stroke-linejoin:round;stroke-miterlimit:4;stroke-dasharray:none"
       id="rect4485-8"
       width="1"
       height="18"
       x="391.57144"
       y="480.79797" />
    <rect
       style="fill:#1d99f3;fill-opacity:1;stroke:none;stroke-width:1;stroke-linecap:butt;stroke-linejoin:round;stroke-miterlimit:4;stroke-dasharray:none"
       id="rect4487-1"
       width="1"
       height="18"
       x="394.57144"
       y="480.79797" />
    <rect
       style="fill:#1d99f3;fill-opacity:1;stroke:none;stroke-width:1;stroke-linecap:butt;stroke-linejoin:round;stroke-miterlimit:4;stroke-dasharray:none"
       id="rect4489-7"
       width="3"
       height="18"
       x="396.57144"
       y="480.79797" />
    <rect
       style="fill:#1d99f3;fill-opacity:1;stroke:none;stroke-width:1;stroke-linecap:butt;stroke-linejoin:round;stroke-miterlimit:4;stroke-dasharray:none"
       id="rect4491-8"
       width="2"
       height="18"
       x="400.57144"
       y="480.79797" />
    <rect
       style="fill:#1d99f3;fill-opacity:1;stroke:none;stroke-width:1;stroke-linecap:butt;stroke-linejoin:round;stroke-miterlimit:4;stroke-dasharray:none"
       id="rect4493-3"
       width="1"
       height="18"
       x="404.57144"
       y="480.79797" />
    <rect
       style="fill:#1d99f3;fill-opacity:1;stroke:none;stroke-width:1;stroke-linecap:butt;stroke-linejoin:round;stroke-miterlimit:4;stroke-dasharray:none"
       id="rect4495-7"
       width="1"
       height="18"
       x="408.57144"
       y="480.79797" />
    <rect
       style="fill:#1d99f3;fill-opacity:1;stroke:none;stroke-width:1;stroke-linecap:butt;stroke-linejoin:round;stroke-miterlimit:4;stroke-dasharray:none"
       id="rect4497-0"
       width="1.9999883"
       height="18.000027"
       x="411.57144"
       y="480.79797" />
    <rect
       style="fill:#1d99f3;fill-opacity:1;stroke:none;stroke-width:1;stroke-linecap:butt;stroke-linejoin:round;stroke-miterlimit:4;stroke-dasharray:none"
       id="rect4203-8-1"
       width="18"
       height="8.0000792"
       x="391.57144"
       y="525.79797" />
    <path
       style="fill:#4d4d4d;fill-opacity:1;stroke:none;stroke-width:1;stroke-linecap:butt;stroke-linejoin:round;stroke-miterlimit:4;stroke-dasharray:none"
       d="m 345.57143,519.798 0,20 30,0 0,-20 -30,0 z m 1,1 28,0 0,18 -28,0 0,-18 z m 11,20 0,2 -2,0 0,1 10,0 0,-1 -2,0 0,-2 -1,0 0,2 -4,0 0,-2 -1,0 z"
       id="rect4160-2"
       inkscape:connector-curvature="0" />
    <rect
       style="fill:#1d99f3;fill-opacity:1;stroke:none;stroke-width:1;stroke-linecap:butt;stroke-linejoin:round;stroke-miterlimit:4;stroke-dasharray:none"
       id="rect4203-5"
       width="7"
       height="5"
       x="346.57144"
       y="520.79797" />
    <rect
       style="fill:#1d99f3;fill-opacity:1;stroke:none;stroke-width:1;stroke-linecap:butt;stroke-linejoin:round;stroke-miterlimit:4;stroke-dasharray:none"
       id="rect4203-2-3"
       width="7"
       height="5"
       x="360.57144"
       y="520.79797" />
    <rect
       style="fill:#1d99f3;fill-opacity:1;stroke:none;stroke-width:1;stroke-linecap:butt;stroke-linejoin:round;stroke-miterlimit:4;stroke-dasharray:none"
       id="rect4203-6-2"
       width="7"
       height="4"
       x="346.57144"
       y="529.79797" />
    <rect
       style="fill:#1d99f3;fill-opacity:1;stroke:none;stroke-width:1;stroke-linecap:butt;stroke-linejoin:round;stroke-miterlimit:4;stroke-dasharray:none"
       id="rect4203-8-1-8"
       width="7"
       height="4.0000262"
       x="353.57144"
       y="525.79797" />
    <rect
       style="fill:#1d99f3;fill-opacity:1;stroke:none;stroke-width:1;stroke-linecap:butt;stroke-linejoin:round;stroke-miterlimit:4;stroke-dasharray:none"
       id="rect4203-64-9-8"
       width="7"
       height="4.9999738"
       x="353.57144"
       y="533.79797" />
    <rect
       style="fill:#1d99f3;fill-opacity:1;stroke:none;stroke-width:1;stroke-linecap:butt;stroke-linejoin:round;stroke-miterlimit:4;stroke-dasharray:none"
       id="rect4203-6-7-6"
       width="7"
       height="4"
       x="360.57144"
       y="529.79797" />
    <rect
       style="fill:#1d99f3;fill-opacity:1;stroke:none;stroke-width:1;stroke-linecap:butt;stroke-linejoin:round;stroke-miterlimit:4;stroke-dasharray:none"
       id="rect4203-8-0-7"
       width="7"
       height="4.0000262"
       x="367.57144"
       y="525.79797" />
    <rect
       style="fill:#1d99f3;fill-opacity:1;stroke:none;stroke-width:1;stroke-linecap:butt;stroke-linejoin:round;stroke-miterlimit:4;stroke-dasharray:none"
       id="rect4203-64-8-8"
       width="7"
       height="4.9999738"
       x="367.57144"
       y="533.79797" />
    <g
       id="g4297"
       transform="translate(1,1)">
      <path
         sodipodi:nodetypes="cccc"
         inkscape:connector-curvature="0"
         id="path4346-27"
         d="m 386.57143,525.04065 4.24264,-4.24265 -4.24264,0 z"
         style="fill:#1d99f3;fill-opacity:1;fill-rule:evenodd;stroke:none;stroke-width:1px;stroke-linecap:butt;stroke-linejoin:miter;stroke-opacity:1" />
      <rect
         transform="matrix(0.70710678,-0.70710678,-0.70710678,-0.70710678,0,0)"
         y="-653.26398"
         x="-95.912514"
         height="9.0000267"
         width="2"
         id="rect4344-7"
         style="fill:#1d99f3;fill-opacity:1;stroke:none;stroke-width:1;stroke-linecap:butt;stroke-linejoin:round;stroke-miterlimit:4;stroke-dasharray:none" />
    </g>
    <path
       style="fill:#1d99f3;fill-opacity:1;fill-rule:evenodd;stroke:none;stroke-width:1px;stroke-linecap:butt;stroke-linejoin:miter;stroke-opacity:1"
       d="m 413.57143,526.04065 -4.24264,-4.24265 4.24264,0 z"
       id="path4346-27-5"
       inkscape:connector-curvature="0"
       sodipodi:nodetypes="cccc" />
    <rect
       style="fill:#1d99f3;fill-opacity:1;stroke:none;stroke-width:1;stroke-linecap:butt;stroke-linejoin:round;stroke-miterlimit:4;stroke-dasharray:none"
       id="rect4344-7-1"
       width="2"
       height="9.0000267"
       x="-662.40607"
       y="-88.184639"
       transform="matrix(-0.70710678,-0.70710678,0.70710678,-0.70710678,0,0)" />
    <path
       style="fill:#1d99f3;fill-opacity:1;fill-rule:evenodd;stroke:none;stroke-width:1px;stroke-linecap:butt;stroke-linejoin:miter;stroke-opacity:1"
       d="m 413.57143,533.55535 -4.24264,4.24265 4.24264,0 z"
       id="path4346-27-5-5"
       inkscape:connector-curvature="0"
       sodipodi:nodetypes="cccc" />
    <rect
       style="fill:#1d99f3;fill-opacity:1;stroke:none;stroke-width:1;stroke-linecap:butt;stroke-linejoin:round;stroke-miterlimit:4;stroke-dasharray:none"
       id="rect4344-7-1-3"
       width="2"
       height="9.0000267"
       x="86.841454"
       y="661.06293"
       transform="matrix(-0.70710678,0.70710678,0.70710678,0.70710678,0,0)" />
    <path
       style="fill:#1d99f3;fill-opacity:1;fill-rule:evenodd;stroke:none;stroke-width:1px;stroke-linecap:butt;stroke-linejoin:miter;stroke-opacity:1"
       d="m 387.57143,533.55535 4.24264,4.24265 -4.24264,0 z"
       id="path4346-27-5-5-1"
       inkscape:connector-curvature="0"
       sodipodi:nodetypes="cccc" />
    <rect
       style="fill:#1d99f3;fill-opacity:1;stroke:none;stroke-width:1;stroke-linecap:butt;stroke-linejoin:round;stroke-miterlimit:4;stroke-dasharray:none"
       id="rect4344-7-1-3-6"
       width="2"
       height="9.0000267"
       x="653.33502"
       y="94.569328"
       transform="matrix(0.70710678,0.70710678,-0.70710678,0.70710678,0,0)" />
  </g>
</svg>
