<?xml version="1.0" encoding="UTF-8" standalone="no"?>
<!-- Created with Inkscape (http://www.inkscape.org/) -->

<svg
   xmlns:dc="http://purl.org/dc/elements/1.1/"
   xmlns:cc="http://creativecommons.org/ns#"
   xmlns:rdf="http://www.w3.org/1999/02/22-rdf-syntax-ns#"
   xmlns:svg="http://www.w3.org/2000/svg"
   xmlns="http://www.w3.org/2000/svg"
   xmlns:xlink="http://www.w3.org/1999/xlink"
   xmlns:sodipodi="http://sodipodi.sourceforge.net/DTD/sodipodi-0.dtd"
   xmlns:inkscape="http://www.inkscape.org/namespaces/inkscape"
   version="1.1"
   id="svg2"
   width="32"
   height="32"
   viewBox="0 0 32 32"
   sodipodi:docname="recent-documents.svg"
   inkscape:export-filename="/home/jupiter007/Libreoffice yaru theme/build/framework/res/recent-documents.png"
   inkscape:export-xdpi="95"
   inkscape:export-ydpi="95"
   inkscape:version="0.92.4 (5da689c313, 2019-01-14)">
  <metadata
     id="metadata8">
    <rdf:RDF>
      <cc:Work
         rdf:about="">
        <dc:format>image/svg+xml</dc:format>
        <dc:type
           rdf:resource="http://purl.org/dc/dcmitype/StillImage" />
      </cc:Work>
    </rdf:RDF>
  </metadata>
  <defs
     id="defs6">
    <linearGradient
       inkscape:collect="always"
       xlink:href="#linearGradient36441"
       id="linearGradient13834"
       gradientUnits="userSpaceOnUse"
       gradientTransform="translate(-315.67782,-130.96624)"
       x1="320"
       y1="164"
       x2="352"
       y2="134" />
    <linearGradient
       inkscape:collect="always"
       id="linearGradient36441">
      <stop
         style="stop-color:#2c001e;stop-opacity:1"
         offset="0"
         id="stop36437" />
      <stop
         id="stop36445"
         offset="0.10864977"
         style="stop-color:#2c001e;stop-opacity:1" />
      <stop
         style="stop-color:#370626;stop-opacity:1"
         offset="0.18689813"
         id="stop36449" />
      <stop
         id="stop36451"
         offset="0.2980746"
         style="stop-color:#55163b;stop-opacity:1" />
      <stop
         style="stop-color:#772953;stop-opacity:1"
         offset="0.37246177"
         id="stop36453" />
      <stop
         style="stop-color:#7c2b51;stop-opacity:1"
         offset="0.44700962"
         id="stop36447" />
      <stop
         id="stop36455"
         offset="0.52428877"
         style="stop-color:#8b314b;stop-opacity:1" />
      <stop
         style="stop-color:#8b314b;stop-opacity:1"
         offset="0.59614229"
         id="stop36457" />
      <stop
         id="stop36459"
         offset="0.66876179"
         style="stop-color:#a33a41;stop-opacity:1" />
      <stop
         style="stop-color:#c44732;stop-opacity:1"
         offset="0.79755175"
         id="stop36461" />
      <stop
         id="stop36463"
         offset="0.91251218"
         style="stop-color:#e65524;stop-opacity:1" />
      <stop
         style="stop-color:#e65524;stop-opacity:1"
         offset="1"
         id="stop36439" />
    </linearGradient>
    <linearGradient
       inkscape:collect="always"
       xlink:href="#linearGradient3388"
       id="linearGradient13846"
       gradientUnits="userSpaceOnUse"
       gradientTransform="translate(-315.67782,-130.96624)"
       x1="321"
       y1="139"
       x2="352"
       y2="163" />
    <linearGradient
       inkscape:collect="always"
       id="linearGradient3388">
      <stop
         style="stop-color:#666666;stop-opacity:1;"
         offset="0"
         id="stop3384" />
      <stop
         style="stop-color:#7a7a7a;stop-opacity:1"
         offset="1"
         id="stop3386" />
    </linearGradient>
  </defs>
  <sodipodi:namedview
     pagecolor="#ffffff"
     bordercolor="#666666"
     borderopacity="1"
     objecttolerance="10"
     gridtolerance="10"
     guidetolerance="10"
     inkscape:pageopacity="0"
     inkscape:pageshadow="2"
     inkscape:window-width="1920"
     inkscape:window-height="1011"
     id="namedview4"
     showgrid="true"
     inkscape:zoom="22.627417"
     inkscape:cx="0.94127259"
     inkscape:cy="15.101696"
     inkscape:window-x="0"
     inkscape:window-y="32"
     inkscape:window-maximized="1"
     inkscape:current-layer="svg2">
    <inkscape:grid
       type="xygrid"
       id="grid834" />
  </sodipodi:namedview>
  <g
     id="g900"
     transform="matrix(0.93651641,0,0,0.93332493,-3.0477916,0.1685088)">
    <path
       sodipodi:nodetypes="scccccccccccsscccsscccsccccs"
       inkscape:connector-curvature="0"
       id="path3453-68"
       d="m 11.355379,4.0337583 c -1.5270004,0 -2.7016004,0.0572 -3.6680004,0.25391 -0.9705,0.19757 -1.7812,0.56614 -2.3437,1.21875 -0.56,0.64975 -0.7902,1.46709 -0.9004,2.35937 -0.1101,0.89115 -0.1128,1.91086 -0.1211,3.1601597 v 0.002 0.004 15.0039 0.004 0.002 c 0.017,2.49108 -0.083,4.16296 0.8418,5.44922 0.4763,0.66243 1.2071,1.07232 2.0625,1.28125 0.8459,0.20664 1.8469,0.26172 3.1289004,0.26172 h 19 c 1.527,0 2.7019,-0.0572 3.668,-0.25391 0.9699,-0.19756 1.779,-0.56452 2.3398,-1.21875 0.5583,-0.65128 0.7856,-1.47025 0.8906,-2.36328 0.1049,-0.89165 0.1016,-1.91451 0.1016,-3.16406 v -13 c 0,-1.24947 0,-2.27216 -0.1016,-3.1640597 -0.105,-0.89304 -0.3323,-1.71201 -0.8906,-2.36328 -0.5608,-0.65423 -1.3699,-1.02119 -2.3398,-1.21875 -0.9661,-0.19707 -2.141,-0.25419 -3.668,-0.25419 h -10.6055 l -2.1425,-2 h -0.3946 c -2.0639,-9e-5 -3.912,-2e-5 -4.3574,0 z"
       style="color:#000000;font-style:normal;font-variant:normal;font-weight:normal;font-stretch:normal;font-size:medium;line-height:normal;font-family:sans-serif;font-variant-ligatures:none;font-variant-position:normal;font-variant-caps:normal;font-variant-numeric:normal;font-variant-alternates:normal;font-feature-settings:normal;text-indent:0;text-align:start;text-decoration:none;text-decoration-line:none;text-decoration-style:solid;text-decoration-color:#000000;letter-spacing:normal;word-spacing:normal;text-transform:none;writing-mode:lr-tb;direction:ltr;text-orientation:mixed;dominant-baseline:auto;baseline-shift:baseline;text-anchor:start;white-space:normal;shape-padding:0;clip-rule:nonzero;display:inline;overflow:visible;visibility:visible;opacity:0.1;isolation:auto;mix-blend-mode:normal;color-interpolation:sRGB;color-interpolation-filters:linearRGB;solid-color:#000000;solid-opacity:1;vector-effect:none;fill:#000000;fill-opacity:1;fill-rule:nonzero;stroke:none;stroke-width:1;stroke-linecap:butt;stroke-linejoin:miter;stroke-miterlimit:4;stroke-dasharray:none;stroke-dashoffset:0;stroke-opacity:1;marker:none;color-rendering:auto;image-rendering:auto;shape-rendering:auto;text-rendering:auto;enable-background:accumulate" />
    <path
       sodipodi:nodetypes="ccscccccccsscscsscsssccccc"
       inkscape:connector-curvature="0"
       id="path3455-5"
       d="m 11.355379,3.5337583 c -1.5139004,0 -2.6622004,0.0597 -3.5684004,0.24414 -0.9061,0.18447 -1.5957,0.51085 -2.0644,1.05469 -0.4687,0.54384 -0.6789,1.24892 -0.7832,2.09375 -0.1044,0.84483 -0.1089,1.85362 -0.1172,3.1035097 v 0.002 15.0039 0.002 c 0.017,2.49977 -0.038,4.0689 0.7481,5.16211 0.393,0.5466 0.9994,0.8964 1.7753,1.08593 0.776,0.18954 1.7431,0.24805 3.0098004,0.24805 h 19 c 1.5139,0 2.6627,-0.0597 3.5684,-0.24414 0.9057,-0.18449 1.5936,-0.51 2.0605,-1.05469 0.4669,-0.54469 0.674,-1.25062 0.7735,-2.0957 0.099,-0.84508 0.098,-1.85547 0.098,-3.10547 v -13 c 0,-1.25 0,-2.2603897 -0.098,-3.1054697 -0.1,-0.84508 -0.3066,-1.55101 -0.7735,-2.0957 -0.4669,-0.54469 -1.1548,-0.8702 -2.0605,-1.05469 -0.9057,-0.18449 -2.0545,-0.24414 -3.5684,-0.24414 h -10.8027 l -2.1426,-2 h -0.1973 c -2.3007,-1e-4 -4.8574,0 -4.8574,0 z"
       style="color:#000000;font-style:normal;font-variant:normal;font-weight:normal;font-stretch:normal;font-size:medium;line-height:normal;font-family:sans-serif;font-variant-ligatures:none;font-variant-position:normal;font-variant-caps:normal;font-variant-numeric:normal;font-variant-alternates:normal;font-feature-settings:normal;text-indent:0;text-align:start;text-decoration:none;text-decoration-line:none;text-decoration-style:solid;text-decoration-color:#000000;letter-spacing:normal;word-spacing:normal;text-transform:none;writing-mode:lr-tb;direction:ltr;text-orientation:mixed;dominant-baseline:auto;baseline-shift:baseline;text-anchor:start;white-space:normal;shape-padding:0;clip-rule:nonzero;display:inline;overflow:visible;visibility:visible;opacity:1;isolation:auto;mix-blend-mode:normal;color-interpolation:sRGB;color-interpolation-filters:linearRGB;solid-color:#000000;solid-opacity:1;vector-effect:none;fill:url(#linearGradient13834);fill-opacity:1;fill-rule:nonzero;stroke:none;stroke-width:1;stroke-linecap:butt;stroke-linejoin:miter;stroke-miterlimit:4;stroke-dasharray:none;stroke-dashoffset:0;stroke-opacity:1;marker:none;color-rendering:auto;image-rendering:auto;shape-rendering:auto;text-rendering:auto;enable-background:accumulate" />
    <path
       style="color:#000000;font-style:normal;font-variant:normal;font-weight:normal;font-stretch:normal;font-size:medium;line-height:normal;font-family:sans-serif;font-variant-ligatures:none;font-variant-position:normal;font-variant-caps:normal;font-variant-numeric:normal;font-variant-alternates:normal;font-feature-settings:normal;text-indent:0;text-align:start;text-decoration:none;text-decoration-line:none;text-decoration-style:solid;text-decoration-color:#000000;letter-spacing:normal;word-spacing:normal;text-transform:none;writing-mode:lr-tb;direction:ltr;baseline-shift:baseline;text-anchor:start;white-space:normal;shape-padding:0;clip-rule:nonzero;display:inline;overflow:visible;visibility:visible;opacity:1;isolation:auto;mix-blend-mode:normal;color-interpolation:sRGB;color-interpolation-filters:linearRGB;solid-color:#000000;solid-opacity:1;fill:url(#linearGradient13846);fill-opacity:1;fill-rule:nonzero;stroke:none;stroke-width:4.00000048;stroke-linecap:butt;stroke-linejoin:miter;stroke-miterlimit:4;stroke-dasharray:none;stroke-dashoffset:0;stroke-opacity:1;marker:none;color-rendering:auto;image-rendering:auto;shape-rendering:auto;text-rendering:auto;enable-background:accumulate"
       d="m 20.464779,8.0337583 -2.1426,1.9999997 h -7.5 c -5.9671004,0 -5.9998004,0.99667 -6.0000004,5.92578 0,0.0272 0,0.0468 0,0.0742 0,2.4577 0.019,4.9135 0.01,7.35938 -2e-4,0.01 -2e-4,0.0195 0,0.0293 0.054,1.76416 -0.1006,3.63712 0.2148,5.57031 0,0.01 0.01,0.0196 0.01,0.0293 0.2671,1.33673 1.429,2.19355 2.6601,2.34961 1.8121,0.26968 3.5568004,0.10509 5.1817004,0.16211 0.01,1.7e-4 0.019,1.7e-4 0.029,0 6.4942,-0.007 13.0085,0.0246 19.5156,-0.12695 0.036,-3.5e-4 0.072,-0.003 0.1074,-0.008 0.5732,-0.0889 1.2063,-0.26164 1.7832,-0.61914 0.5769,-0.35749 1.1085,-0.95184 1.2754,-1.75 0,-0.02 0.01,-0.0402 0.01,-0.0605 0.3017,-2.28103 0.1519,-4.5186 0.2011,-6.66407 1e-4,-0.007 1e-4,-0.0143 0,-0.0215 -0.011,-3.50034 0.02,-7.01499 -0.027,-10.53516 -0.1773,-3.0020797 -1.0487,-3.7148397 -5.9707,-3.7148397 0,0 -7.0567,-10e-5 -9.3574,0 z"
       id="path3495-15"
       inkscape:connector-curvature="0" />
    <path
       id="path3497-0"
       d="m 20.464779,8.0337583 -2.1426,1.9999997 h -7.5 c -6.0000004,0 -6.0000004,1 -6.0000004,6 v 1 c 0,-5 0,-6 6.0000004,-6 h 7.5 l 2.1426,-1.9999997 c 2.3007,-10e-5 9.3578,0 9.3578,0 6,0 5.9999,0.9999997 6.0332,5.9999997 v -1 c -0.033,-4.9999997 -0.033,-5.9999997 -6.0332,-5.9999997 0,0 -7.0571,-10e-5 -9.3578,0 z"
       style="color:#000000;font-style:normal;font-variant:normal;font-weight:normal;font-stretch:normal;font-size:medium;line-height:normal;font-family:sans-serif;font-variant-ligatures:none;font-variant-position:normal;font-variant-caps:normal;font-variant-numeric:normal;font-variant-alternates:normal;font-feature-settings:normal;text-indent:0;text-align:start;text-decoration:none;text-decoration-line:none;text-decoration-style:solid;text-decoration-color:#000000;letter-spacing:normal;word-spacing:normal;text-transform:none;writing-mode:lr-tb;direction:ltr;baseline-shift:baseline;text-anchor:start;white-space:normal;shape-padding:0;clip-rule:nonzero;display:inline;overflow:visible;visibility:visible;opacity:0.3;isolation:auto;mix-blend-mode:normal;color-interpolation:sRGB;color-interpolation-filters:linearRGB;solid-color:#000000;solid-opacity:1;fill:#ffffff;fill-opacity:1;fill-rule:nonzero;stroke:none;stroke-width:4.00000048;stroke-linecap:butt;stroke-linejoin:miter;stroke-miterlimit:4;stroke-dasharray:none;stroke-dashoffset:0;stroke-opacity:1;marker:none;color-rendering:auto;image-rendering:auto;shape-rendering:auto;text-rendering:auto;enable-background:accumulate"
       inkscape:connector-curvature="0"
       sodipodi:nodetypes="ccsscsccccccc" />
    <path
       style="color:#000000;font-style:normal;font-variant:normal;font-weight:normal;font-stretch:normal;font-size:medium;line-height:normal;font-family:sans-serif;font-variant-ligatures:none;font-variant-position:normal;font-variant-caps:normal;font-variant-numeric:normal;font-variant-alternates:normal;font-feature-settings:normal;text-indent:0;text-align:start;text-decoration:none;text-decoration-line:none;text-decoration-style:solid;text-decoration-color:#000000;letter-spacing:normal;word-spacing:normal;text-transform:none;writing-mode:lr-tb;direction:ltr;text-orientation:mixed;dominant-baseline:auto;baseline-shift:baseline;text-anchor:start;white-space:normal;shape-padding:0;clip-rule:nonzero;display:inline;overflow:visible;visibility:visible;opacity:0.4;isolation:auto;mix-blend-mode:normal;color-interpolation:sRGB;color-interpolation-filters:linearRGB;solid-color:#000000;solid-opacity:1;vector-effect:none;fill:none;fill-opacity:1;fill-rule:nonzero;stroke:#000000;stroke-width:1;stroke-linecap:butt;stroke-linejoin:miter;stroke-miterlimit:4;stroke-dasharray:none;stroke-dashoffset:0;stroke-opacity:1;marker:none;color-rendering:auto;image-rendering:auto;shape-rendering:auto;text-rendering:auto;enable-background:accumulate"
       d="m 11.355379,3.5337583 c -1.5139004,0 -2.6622004,0.0597 -3.5684004,0.24414 -0.9061,0.18447 -1.5957,0.51085 -2.0644,1.05469 -0.4687,0.54384 -0.6789,1.24892 -0.7832,2.09375 -0.1044,0.84483 -0.1089,1.85362 -0.1172,3.1035097 v 0.002 15.0039 0.002 c 0.017,2.49977 -0.038,4.0689 0.7481,5.16211 0.393,0.5466 0.9994,0.8964 1.7753,1.08593 0.776,0.18954 1.7431,0.24805 3.0098004,0.24805 h 19 c 1.5139,0 2.6627,-0.0597 3.5684,-0.24414 0.9057,-0.18449 1.5936,-0.51 2.0605,-1.05469 0.4669,-0.54469 0.674,-1.25062 0.7735,-2.0957 0.099,-0.84508 0.098,-1.85547 0.098,-3.10547 v -13 c 0,-1.25 0,-2.2603897 -0.098,-3.1054697 -0.1,-0.84508 -0.3066,-1.55101 -0.7735,-2.0957 -0.4669,-0.54469 -1.1548,-0.8702 -2.0605,-1.05469 -0.9057,-0.18449 -2.0545,-0.24414 -3.5684,-0.24414 h -10.8027 l -2.1426,-2 h -0.1973 c -2.3007,-1e-4 -4.8574,0 -4.8574,0 z"
       id="path3499-90"
       inkscape:connector-curvature="0"
       sodipodi:nodetypes="ccscccccccsscscsscsssccccc" />
    <path
       inkscape:connector-curvature="0"
       style="color:#000000;font-style:normal;font-variant:normal;font-weight:normal;font-stretch:normal;font-size:medium;line-height:normal;font-family:sans-serif;font-variant-ligatures:none;font-variant-position:normal;font-variant-caps:normal;font-variant-numeric:normal;font-variant-alternates:normal;font-feature-settings:normal;text-indent:0;text-align:start;text-decoration:none;text-decoration-line:none;text-decoration-style:solid;text-decoration-color:#000000;letter-spacing:normal;word-spacing:normal;text-transform:none;writing-mode:lr-tb;direction:ltr;baseline-shift:baseline;text-anchor:start;white-space:normal;shape-padding:0;clip-rule:nonzero;display:inline;overflow:visible;visibility:visible;opacity:0.2;isolation:auto;mix-blend-mode:normal;color-interpolation:sRGB;color-interpolation-filters:linearRGB;solid-color:#000000;solid-opacity:1;fill:#491706;fill-opacity:1;fill-rule:nonzero;stroke:none;stroke-width:4.00000048;stroke-linecap:butt;stroke-linejoin:miter;stroke-miterlimit:4;stroke-dasharray:none;stroke-dashoffset:0;stroke-opacity:1;marker:none;color-rendering:auto;image-rendering:auto;shape-rendering:auto;text-rendering:auto;enable-background:accumulate"
       d="m 20.464779,7.0337583 -2.1426,2 h -7.5 c -6.0000004,0 -6.0000004,0.9999997 -6.0000004,5.9999997 v 1 c 0,-5 0,-6 6.0000004,-6 h 7.5 l 2.1426,-1.9999997 c 2.3007,-10e-5 9.3578,0 9.3578,0 6,0 5.9999,1 6.0332,5.9999997 v -1 c -0.033,-4.9999997 -0.033,-5.9999997 -6.0332,-5.9999997 0,0 -7.0571,-10e-5 -9.3578,0 z"
       id="path3501-40"
       sodipodi:nodetypes="ccsscsccccccc" />
    <path
       id="path3513-30"
       d="m 11.355379,4.0337583 c -6.0000004,0 -5.9999004,1 -6.0332004,5.9999997 v 1 c 0.033,-4.9999997 0.033,-5.9999997 6.0332004,-5.9999997 0,0 2.5567,-10e-5 4.8574,0 l 2.1426,2 h 11 c 6,0 6,1 6,5.9999997 v -1 c 0,-4.9999997 0,-5.9999997 -6,-5.9999997 h -11 l -2.1426,-2 c -2.3007,-10e-5 -4.8574,0 -4.8574,0 z"
       style="color:#000000;font-style:normal;font-variant:normal;font-weight:normal;font-stretch:normal;font-size:medium;line-height:normal;font-family:sans-serif;font-variant-ligatures:none;font-variant-position:normal;font-variant-caps:normal;font-variant-numeric:normal;font-variant-alternates:normal;font-feature-settings:normal;text-indent:0;text-align:start;text-decoration:none;text-decoration-line:none;text-decoration-style:solid;text-decoration-color:#000000;letter-spacing:normal;word-spacing:normal;text-transform:none;writing-mode:lr-tb;direction:ltr;baseline-shift:baseline;text-anchor:start;white-space:normal;shape-padding:0;clip-rule:nonzero;display:inline;overflow:visible;visibility:visible;opacity:0.4;isolation:auto;mix-blend-mode:normal;color-interpolation:sRGB;color-interpolation-filters:linearRGB;solid-color:#000000;solid-opacity:1;fill:#fec589;fill-opacity:1;fill-rule:nonzero;stroke:none;stroke-width:4.00000048;stroke-linecap:butt;stroke-linejoin:miter;stroke-miterlimit:4;stroke-dasharray:none;stroke-dashoffset:0;stroke-opacity:1;marker:none;color-rendering:auto;image-rendering:auto;shape-rendering:auto;text-rendering:auto;enable-background:accumulate"
       inkscape:connector-curvature="0" />
    <path
       sodipodi:nodetypes="ccscc"
       inkscape:connector-curvature="0"
       id="path3517-21"
       d="m 35.322179,22.033758 -9,9 h 4 c 5,0 4.9999,-1 5.0332,-6 z"
       style="color:#000000;font-style:normal;font-variant:normal;font-weight:normal;font-stretch:normal;font-size:medium;line-height:normal;font-family:sans-serif;font-variant-ligatures:none;font-variant-position:normal;font-variant-caps:normal;font-variant-numeric:normal;font-variant-alternates:normal;font-feature-settings:normal;text-indent:0;text-align:start;text-decoration:none;text-decoration-line:none;text-decoration-style:solid;text-decoration-color:#000000;letter-spacing:normal;word-spacing:normal;text-transform:none;writing-mode:lr-tb;direction:ltr;baseline-shift:baseline;text-anchor:start;white-space:normal;shape-padding:0;clip-rule:nonzero;display:inline;overflow:visible;visibility:visible;opacity:0.05;isolation:auto;mix-blend-mode:normal;color-interpolation:sRGB;color-interpolation-filters:linearRGB;solid-color:#000000;solid-opacity:1;fill:#ffffff;fill-opacity:1;fill-rule:nonzero;stroke:none;stroke-width:4.00000048;stroke-linecap:butt;stroke-linejoin:miter;stroke-miterlimit:4;stroke-dasharray:none;stroke-dashoffset:0;stroke-opacity:1;marker:none;color-rendering:auto;image-rendering:auto;shape-rendering:auto;text-rendering:auto;enable-background:accumulate" />
  </g>
  <g
     id="g859"
     font-weight="400"
     style="font-weight:400;fill:#ffffff;fill-opacity:1"
     transform="matrix(1,0,0,0.86666667,8,13)" />
  <path
     id="path819"
     style="font-weight:400;font-size:15px;line-height:125%;font-family:Ubuntu;-inkscape-font-specification:Ubuntu;text-align:center;letter-spacing:0;word-spacing:0;text-anchor:middle;fill:#ffffff;fill-opacity:1;stroke-width:0.80066746;opacity:0.7"
     d="m 15.594343,16.400467 v 4.1656 l 1.92,1.917601 0.567345,-0.566401 -1.68601,-1.6824 v -3.8344 z m -3.878728,7.795341 a 6,6 0 0 0 3.119832,1.689045 6,6 0 0 0 6.713372,-3.589395 6,6 0 0 0 -2.209709,-7.283753 6,6 0 0 0 -7.576539,0.745777 l -0.707107,-0.707106 -1.0606598,3.18198 3.1819808,-1.06066 -0.707107,-0.707107 a 5,5 0 0 1 6.314243,-0.62148 5,5 0 0 1 1.840963,6.069794 5,5 0 0 1 -5.596087,2.991392 5,5 0 0 1 -4.023051,-4.904172 l -0.999894,1e-6 a 6,6 0 0 0 1.709763,4.195684 z"
     inkscape:connector-curvature="0" />
</svg>
