<svg height="128" viewBox="0 0 128 128" width="128" xmlns="http://www.w3.org/2000/svg" xmlns:xlink="http://www.w3.org/1999/xlink"><linearGradient id="a" gradientUnits="userSpaceOnUse" x1="20" x2="23" y1="9" y2="6"><stop offset="0" stop-color="#2d2d2d"/><stop offset=".77967989" stop-color="#2d2d2d"/><stop offset="1" stop-color="#3a3a3c"/></linearGradient><linearGradient id="b" gradientUnits="userSpaceOnUse" x1="79.445053" x2="91.499992" xlink:href="#a" y1="36.754223" y2="24.5"/><linearGradient id="c" gradientUnits="userSpaceOnUse" x1="110" x2="138" y1="119" y2="131"><stop offset="0" stop-color="#cdd4df"/><stop offset="1" stop-color="#b3bece"/></linearGradient><filter id="d" color-interpolation-filters="sRGB" height="1.035462" width="1.018138" x="-.009069" y="-.017731"><feGaussianBlur stdDeviation=".068164053"/></filter><linearGradient id="e" gradientUnits="userSpaceOnUse" x1="107" x2="137" y1="126" y2="126"><stop offset="0" stop-color="#feaf38"/><stop offset="1" stop-color="#ef7e02"/></linearGradient><path d="m76 11-52.009766.07031c-.156156-.000536-.308365.04261-.445312.117188-.01047.0058-.02103.01144-.03125.01758-.131703.07906-.239434.187093-.316406.314453-.0072.01191-.01283.02485-.01953.03711-.0728.134283-.11766.285283-.117187.443359v104c-.000473.15808.04439.30908.117187.44336.0067.0123.0123.0252.01953.0371.07697.12736.184703.23539.316406.31445.01022.006.02078.0118.03125.0176.136947.0746.289155.11772.445312.11719l67.009766.0703h14v-31-46c.00008-.0328-.008-.06519-.0117-.09766-.008-.0662-.0226-.130234-.0449-.19336-.0197-.05597-.0427-.109918-.0723-.162109-.0387-.06698-.0821-.131554-.13476-.189453-.0267-.03007-.0542-.05887-.084-.08594-.0769-.06819-.16025-.127826-.25195-.171875-.0156-.0077-.031-.01465-.0469-.02148-.11295-.047308-.2323-.078411-.35349-.078123-4.002842.01172-8.001351.0059-12 0h-11.919922c-.0267.000076-.05338-.000078-.08008 0-1.709692.01306-3-1.281763-3-3v-24c.0003-.128489-.03044-.25511-.08398-.373047s-.129704-.227359-.222657-.320312c-.09295-.09295-.202377-.169117-.320312-.222657-.117937-.05354-.24456-.084289-.373049-.083984z" fill="#2d2d2d"/><path d="m24 9c-1.718257 0-3 1.281743-3 3v104c0 1.71826 1.281745 2.99814 3 3h80.03125c1.71826-.002 3-1.28174 3-3l-.03125-76.5.0234-1.875c-.005-.212516-.0232-.269878-.0859-.398438-.12532-.257123-.65905-.868999-2.05469-2.140624-.008-.01024-.0158-.02069-.0234-.03125l-23.304722-23.382813c-.008-.0051-.01584-.01031-.02344-.01563-1.402037-1.398573-3.235578-2.5019604-5.031248-2.656245zm52 2c.513955-.0012 1.00122.486045 1 1v24c0 1.718238 1.290306 3.013061 3 3 8.00504-.0234 15.994309.02344 24 0 .5137-.0011 1.00122.486118 1 1l-.0293 76c.001.51396-.41573.93069-.92968.92969h-80.050786c-.513955.001-.930907-.41573-.929687-.92969v-104c-.0012-.513955.415732-.930907.929687-.929688zm3 1 25 25-24.009766-.07031c-.513955.001215-.930907-.415735-.929687-.92969z" fill="#f2f2f7" stroke-width="4"/><path d="m-13.336474 37.454913h6l-6-6z" fill="url(#a)" fill-rule="evenodd"/><path d="m79 12 .06055 24c-.0003.128489.02532.249983.07227.361328s.115056.21271.199219.296875c.08416.08416.185532.152271.296875.199219.111344.04695.23284.07257.361328.07227l24.009758.070308z" fill="url(#b)"/><path d="m61.371094 53c-5.204976 10.186885-10.097051 20.534109-15.375 30.683594-2.540526-4.854876-4.940455-9.782515-7.390625-14.683594h-4.617188c-.523598 0-1 .476402-1 1s.476402 1 1 1h2.765625.644532l8.589843 17.232422 16.339844-32.679688c.169441-.33878.515741-.55276.894531-.552734h30.765625c.523599 0 1-.476402 1-1s-.476401-1-1-1zm10.623047 12.996094c-.071955-.000175-.143211.003727-.214844.011718-.445566.05079-.872568.254936-1.189453.572266a2.0000479 2.0000479 0 0 1 -.001953.001953c-.740356.740515-.740356 2.087611 0 2.828125l5.171875 5.171875a2.0000479 2.0000479 0 0 1 .015625.019531l1.394531 1.394532-1.404297 1.404297a2.0000479 2.0000479 0 0 1 -.005859.009765l-5.171875 5.169922c-.740937.740583-.740937 2.091447 0 2.832031.725239.725086 2.032008.738146 2.78125.042969l6.628906-6.628906 1.400391 1.40039a2.0000479 2.0000479 0 0 1 .019531.013672l5.171875 5.171875c.740513.740356 2.085658.740356 2.826172 0 .725654-.725308.738693-2.031872.042968-2.78125l-6.632812-6.634765 6.613281-6.611328c.716925-.745263.709055-2.072042-.023437-2.804688-.370368-.369935-.890589-.582207-1.414063-.582031-.523473-.000177-1.043696.212095-1.414062.582031l-5.171875 5.171875a2.0000479 2.0000479 0 0 1 -.009766.007813l-1.408203 1.408203-6.628906-6.628907c-.368253-.34442-.871321-.541747-1.375-.542968zm-38.994141 31.003906c-.553999 0-1 .446001-1 1s.446001 1 1 1h14c.553999 0 1-.446001 1-1s-.446001-1-1-1zm24 0c-.553999 0-1 .446001-1 1s.446001 1 1 1h14c.553999 0 1-.446001 1-1s-.446001-1-1-1zm24 0c-.553999 0-1 .446001-1 1s.446001 1 1 1h14c.553999 0 1-.446001 1-1s-.446001-1-1-1z" fill="#ff3b30"/><g transform="translate(-10 -7)"><path d="m99 109c-1.662 0-3 1.338-3 3v13c0 1.662 1.338 3 3 3h26c1.662 0 3-1.338 3-3v-13c0-1.662-1.338-3-3-3h-3-4-12-4z" fill="url(#c)"/><path d="m99 109c-1.662 0-3 1.338-3 3v13c0 1.662 1.338 3 3 3h26c1.662 0 3-1.338 3-3v-13c0-1.662-1.338-3-3-3h-3-4-12-4zm0 1h26c1.108 0 2 .892 2 2v13c0 1.108-.892 2-2 2h-26c-1.108 0-2-.892-2-2v-13c0-1.108.892-2 2-2z" fill="#627899"/><path d="m112 93c-5.52285 0-10 4.477153-10 10v6h4v-6c0-3.313709 2.68629-6 6-6s6 2.686291 6 6v6h4v-6c0-5.522847-4.47715-10-10-10z" fill="#627899"/><path d="m112 93.980469c-4.99308 0-9.01953 4.026454-9.01953 9.019531v5.01953.98047h2.01953v-.98047h.0195v-5.01953c0-.24022.0132-.47683.0371-.71094.35872-3.511567 3.3401-6.269529 6.94336-6.269529 3.84348 0 6.98047 3.13699 6.98047 6.980469v5.01953h.01957v.98047h2.01953v-.98047-5.01953c0-4.993077-4.02645-9.019531-9.01953-9.019531z" fill="#2d2d2d"/><path d="m112 93.980469c-4.99308 0-9.01953 4.026454-9.01953 9.019531v.20703c0-4.820361 4.02645-8.70703 9.01953-8.70703s9.01953 3.886669 9.01953 8.70703v-.20703c0-4.993077-4.02645-9.019531-9.01953-9.019531z" fill="#2d2d2d" filter="url(#d)"/><rect fill="url(#e)" height="8" rx=".016949" ry="1" width="30" x="97" y="115"/><rect fill="#5f3519" height="1" rx=".016949" ry=".125" transform="scale(1 -1)" width="30" x="97" y="-124"/><g fill="#341f07"><path d="m97 115 5 8h4l-5-8z"/><path d="m105 115 5 8h4l-5-8z"/><path d="m113 115 5 8h4l-5-8z"/><path d="m121 115 5 8h.98242c.009 0 .0176-.446.0176-1v-3.80078l-2.00002-3.19922z"/></g><path d="m99 110c-1.108 0-2 .892-2 2 0-.554.446-1 1-1h28c.554 0 1 .446 1 1 0-1.108-.892-2-2-2z" fill="#e7e7e7"/><rect fill="#a28b6c" height="1" rx="0" ry="1" width="30" x="97" y="114"/></g></svg>