<svg height="24" viewBox="0 0 6.3499999 6.3500002" width="24" xmlns="http://www.w3.org/2000/svg" xmlns:xlink="http://www.w3.org/1999/xlink"><linearGradient id="a" gradientUnits="userSpaceOnUse" x1="5.744856" x2="6.541121" xlink:href="#b" y1="288.61456" y2="276.18652"/><linearGradient id="b"><stop offset="0" stop-color="#06f"/><stop offset="1" stop-color="#80b3ff"/></linearGradient><linearGradient id="c" gradientUnits="userSpaceOnUse" x1="6.540745" x2="7.68603" xlink:href="#b" y1="271.0806" y2="261.5257"/><g fill="#555" transform="matrix(.1875 0 0 .1875 .000002 -.000002)"><path d="m12.699992 2.8222426h18.344432v1.4111102h-18.344432z"/><path d="m12.699992 7.0555732h18.344432v1.4111102h-18.344432z"/><path d="m12.699992 11.288904h14.111102v1.41111h-14.111102z"/><path d="m12.699992 19.755565h18.344432v1.41111h-18.344432z"/><path d="m12.699992 23.988896h18.344432v1.41111h-18.344432z"/><path d="m12.699992 28.222226h14.111102v1.41111h-14.111102z"/></g><g transform="matrix(.225 0 0 .225 -.210373 -59.487988)"><path d="m4.8046875 265.98828a1.4134104 1.4134104 0 0 0 -1.328125.92969l-2.390625 6.55469a1.4134104 1.4134104 0 0 0 1.328125 1.89843h1.3710937a1.4134104 1.4134104 0 0 0 1.3359376-.95117l.2519531-.72461h.4863281l.25.72461a1.4134104 1.4134104 0 0 0 1.3359375.95117h1.359375a1.4134104 1.4134104 0 0 0 1.3281245-1.89648l-2.382812-6.55469a1.4134104 1.4134104 0 0 0 -1.328125-.93164z" fill="url(#c)"/><path d="m7.4458527 273.95627-.5813599-1.67432h-2.4975218l-.5813599 1.67432h-1.3720092l2.3905517-6.55309h1.6185058l2.3812499 6.55309zm-1.8324462-5.54385-.027905.10232q-.046509.16743-.1116211.38137-.065112.21394-.7999511 2.35335h1.8836059l-.6464722-1.88361-.1999878-.63252z" fill="#bfd9ff" stroke-width=".264583"/></g><g transform="matrix(.225 0 0 .225 -.204035 -60.122867)"><path d="m2.5371094 282.82422a1.5125787 1.5125787 0 0 0 -1.5117188 1.51172v6.55273a1.5125787 1.5125787 0 0 0 1.5117188 1.51172h3.2792968c.4418691 0 .8786599-.0421 1.3046876-.13672a1.5125787 1.5125787 0 0 0 .013672-.004c.4515009-.10489.889414-.27651 1.2851563-.53321a1.5125787 1.5125787 0 0 0 .00586-.004c.4231267-.27645.7873616-.66209 1.0371094-1.10352a1.5125787 1.5125787 0 0 0 .00391-.006c.2796684-.50081.390625-1.06173.390625-1.59375 0-.66403-.3235038-1.34231-.7675781-1.88867.1580271-.3855.390625-.75402.390625-1.14844 0-.46812-.096949-.96679-.3339844-1.41992-.2271814-.44119-.5786607-.82206-.9804688-1.08594-.4005609-.263-.8345744-.41887-1.2734375-.51367-.4299337-.0966-.8794987-.13867-1.3554687-.13867zm6.4414062 4.0332.011719.0117c-.00221-.002-.0056-.002-.00781-.004-.00215-.002-.00174-.006-.00391-.008z" fill="url(#a)"/><path d="m8.3459629 289.01972q0 .89297-.6697265 1.38131-.6697266.48834-1.8603515.48834h-3.2788695v-6.55308h2.9998168q1.1999267 0 1.8138427.41857.6185668.41393.6185668 1.22784 0 .5581-.3116088.94413-.306958.38137-.9394775.51624.7953002.093 1.2092284.5023.4185791.40462.4185791 1.07435zm-1.7580321-2.85099q0-.44183-.2837036-.62787-.2790528-.18603-.8325073-.18603h-1.5626953v1.62315h1.571997q.5813599 0 .8418091-.19998.2651001-.20464.2651001-.60927zm.381372 2.74402q0-.92087-1.3208495-.92087h-1.7394287v1.87895h1.7905883q.6604248 0 .9627319-.23719.306958-.24185.306958-.72089z" fill="#bfd9ff" stroke-width=".264583"/></g><g fill="#fff" fill-opacity=".392157" transform="matrix(.1875 0 0 .1875 .000002 -.264587)"><path d="m12.699992 2.8222426h18.344432v1.4111102h-18.344432z"/><path d="m12.699992 7.0555732h18.344432v1.4111102h-18.344432z"/><path d="m12.699992 11.288904h14.111102v1.41111h-14.111102z"/><path d="m12.699992 19.755565h18.344432v1.41111h-18.344432z"/><path d="m12.699992 23.988896h18.344432v1.41111h-18.344432z"/><path d="m12.699992 28.222226h14.111102v1.41111h-14.111102z"/></g></svg>