<svg height="24" viewBox="0 0 6.3499999 6.3500002" width="24" xmlns="http://www.w3.org/2000/svg"><g fill="#555"><path d="m.79375156 1.05834437h4.762497v.26457919h-4.762497z"/><path d="m.79375156 1.85209h4.762497v.26457919h-4.762497z"/><path d="m.79375156 2.64583563h4.762497v.26457919h-4.762497z"/><path d="m.79375156 3.43957938h4.762497v.26457919h-4.762497z"/><path d="m.79375156 4.233325h4.762497v.26457919h-4.762497z"/><path d="m.79375156 5.02707063h4.762497v.26457919h-4.762497z"/></g><g fill="#fff" fill-opacity=".392157" transform="translate(-.000002 -.264594)"><path d="m.79375156 1.0583444h4.76249704v.2645792h-4.76249704z"/><path d="m.79375156 1.85209h4.76249704v.2645792h-4.76249704z"/><path d="m.79375156 2.6458356h4.76249704v.2645792h-4.76249704z"/><path d="m.79375156 3.4395794h4.76249704v.2645792h-4.76249704z"/><path d="m.79375156 4.233325h4.76249704v.2645792h-4.76249704z"/><path d="m.79375156 5.0270706h4.76249704v.2645792h-4.76249704z"/></g></svg>