<svg height="24" width="24" xmlns="http://www.w3.org/2000/svg" xmlns:xlink="http://www.w3.org/1999/xlink"><linearGradient id="a"><stop offset="0" stop-color="#fff"/><stop offset="1" stop-color="#fff" stop-opacity="0"/></linearGradient><linearGradient id="b"><stop offset="0" stop-color="#fff"/><stop offset="1" stop-color="#c0c0c0" stop-opacity="0"/></linearGradient><linearGradient id="c" gradientUnits="userSpaceOnUse" spreadMethod="reflect" x1="79.46063685469" x2="77.13800741897" y1="46.07494050943" y2="101.24125796669"><stop offset="0" stop-color="#fff" stop-opacity=".55036"/><stop offset="1" stop-color="#fff" stop-opacity="0"/></linearGradient><linearGradient id="d" gradientUnits="userSpaceOnUse" x1="57.287113" x2="144.2531" y1="1.159746" y2="16.876789"><stop offset="0" stop-color="#fff" stop-opacity="0"/><stop offset=".06868132" stop-color="#fff"/><stop offset=".5" stop-color="#fff"/><stop offset="1" stop-color="#fff" stop-opacity="0"/></linearGradient><radialGradient id="e" cx="23.190451" cy="59.379417" fx="22.471308" fy="59.354759" gradientTransform="matrix(1 0 0 .941176 0 3.492906)" gradientUnits="userSpaceOnUse" r="2.108223" xlink:href="#b"/><linearGradient id="f" gradientUnits="userSpaceOnUse" x1="98.291809" x2="44.242641" xlink:href="#b" y1="-126.7503" y2="101.45739"/><linearGradient id="g" gradientUnits="userSpaceOnUse" x1="98.291809" x2="44.242641" xlink:href="#b" y1="-44.01474" y2="101.45739"/><radialGradient id="h" cx="63.912209" cy="115.70919" fx="63.975182" fy="116.88514" gradientTransform="matrix(1 0 0 .197802 0 92.82166)" gradientUnits="userSpaceOnUse" r="63.912209"><stop offset="0"/><stop offset="1" stop-opacity="0"/></radialGradient><radialGradient id="i" cx="5.753135" cy="-45.41592" fx="74.816956" fy="-43.169445" gradientTransform="matrix(1 0 0 .09492274 0 -41.10492)" gradientUnits="userSpaceOnUse" r="124.10334" xlink:href="#a"/><radialGradient id="j" cx="23.662739" cy="95.898506" fx="24.26058" fy="96.778763" gradientTransform="matrix(1.484142 .129521 -.489782 5.61225 35.51325 -445.3727)" gradientUnits="userSpaceOnUse" r="2.793914" xlink:href="#a"/><linearGradient id="k" gradientUnits="userSpaceOnUse" x1="82.30598637729" x2="183.63825028919" y1="137.97264522862" y2="-17.07663310576"><stop offset="0" stop-color="#dd6a0e"/><stop offset="1" stop-color="#ffb66d"/></linearGradient><linearGradient id="l" gradientUnits="userSpaceOnUse" x1="4.93107" x2="117.21009" y1="-106.70427" y2="199.03694"><stop offset="0" stop-color="#a25000"/><stop offset="1" stop-color="#35240d"/></linearGradient><linearGradient id="m" gradientUnits="userSpaceOnUse" x1="98.77286885895" x2="43.95924564151" xlink:href="#b" y1="-45.50611127814" y2="102.02353288694"/><g transform="matrix(.15642231 0 0 .15642231 1.945268 1.87778)"><path d="m153.09403 94.713757c-8.55745 12.383133-60.477658-1.70046-74.679399 3.287761-14.201741 4.988222-45.911151 48.445882-60.332603 44.133872-14.4214534-4.31202-17.0713902-58.043145-26.2040499-70.008359-9.1326591-11.965213-60.2621021-28.693497-60.6176031-43.7416-.3555-15.048104 49.926959-34.1721736 58.484406-46.555303 8.557447-12.38313 8.6671236-66.179444 22.868864-71.167664 14.201742-4.988221 47.927947 36.923576 62.3494 41.235595 14.421453 4.312018 65.618675-12.207649 74.751335-.242435s-20.30585 56.9921987-19.95035 72.040303c.3555 15.048103 31.88745 58.634701 23.33 71.01783z" fill="url(#l)" transform="matrix(.511285 .187762 -.187762 .511285 41.72321 44.08266)"/><path d="m64.825227 9.4341787c-.239347.1603929-1.526245.8090493-3.016534 2.5856013-1.766267 2.105543-3.756663 5.281875-5.745778 8.647397-1.989118 3.365522-3.981591 6.953559-5.918154 10.055114-1.936566 3.101555-3.584934 5.690992-6.147983 7.498241-2.56305 1.807249-5.592732 2.492619-9.164518 3.275094-3.571786.782474-7.596031 1.440074-11.4341 2.183396-3.838071.743324-7.50741 1.571579-10.083841 2.528145-2.214123.822046-3.241137 1.807034-3.4474696 1.953564.00112.002-.00122.02595 0 .02873.071609.199771.2480326 1.638137 1.5226326 3.6773 1.456684 2.330468 3.877871 5.227241 6.464001 8.159005 2.58613 2.931766 5.348023 5.904637 7.699344 8.704857 2.351321 2.800215 4.330618 5.191657 5.257387 8.187734.926768 2.996074.646853 6.0716.28729 9.710366-.359564 3.63877-.957358 7.669092-1.436445 11.549017-.03081.249505-.06109.498453-.09077.746615-.431755 3.610865-.733738 7.055165-.627455 9.624515.09939 2.40268.74876 3.70065.804409 3.90713.212236-.006 1.631359.23733 3.964587-.34475 2.666547-.66522 6.151662-2.03752 9.739095-3.59111 3.587433-1.55358 7.297388-3.28316 10.68715-4.65409s6.258526-2.5151 9.39435-2.47066c3.135822.0444 5.958596 1.26282 9.308161 2.72922 3.349563 1.46641 7.030251 3.31551 10.572233 4.97011 3.541982 1.65459 6.97755 3.10916 9.624182 3.84968 2.315803.64794 3.750372.4483 3.964587.45964.06088-.20528.751905-1.47947.919324-3.8784.19133-2.7416-.03323-6.47919-.402205-10.37112-.368971-3.891931-.892822-7.958976-1.149156-11.606472-.256332-3.647492-.436694-6.713025.574578-9.681637 1.011284-2.968616 3.057511-5.311612 5.487231-8.044092 2.42969-2.732479 5.28974-5.617701 7.9579-8.475025 2.66813-2.857322 5.11427-5.698364 6.63638-7.986631 1.30807-1.96648 1.58181-3.382505 1.66626-3.619841.001-.0027-.001-.02677 0-.02873-.20408-.151788-1.22879-1.155309-3.41874-2.039752-2.54829-1.029173-6.15345-1.963674-9.96892-2.815432-3.81547-.851759-7.828456-1.644796-11.376646-2.528145-3.548183-.883349-6.567507-1.625792-9.078329-3.504925-2.510821-1.879133-4.070232-4.54417-5.918153-7.699344-1.847916-3.155172-3.737886-6.778234-5.63086-10.198757-1.892972-3.420523-3.810041-6.636304-5.515948-8.791042-1.492669-1.885395-2.79183-2.5646028-2.959077-2.7005163z" style="stroke-width:6.89922;stroke-linecap:round;stroke-linejoin:round;stroke-dashoffset:4;fill:url(#k);stroke:url(#c)"/><ellipse cx="63.912209" cy="115.70919" fill="url(#h)" opacity=".381395" rx="63.912209" ry="12.641975" transform="matrix(-.975103 0 0 .416667 126.6744 75.1684)"/><g fill="none" stroke="url(#d)"><path d="m55.266721 10.739701c1.253491-2.1711111 5.953978-9.3817673 9.741697-9.3262739 6.881018.1038561 18.502784 29.7161619 23.937641 33.0469999 6.689899 4.100009 30.977811 7.003713 35.396901 10.508855" stroke-opacity=".581301" stroke-width=".506726"/><path d="m55.236135 11.274949c1.253491-2.1711107 6.000407-9.701979 9.787576-9.6168369 6.807244.1530386 18.247624 29.8250969 23.845884 33.0469999 6.800504 3.913817 31.118925 7.060743 35.538015 10.565885" stroke-linecap="round" stroke-linejoin="round" stroke-opacity=".430894"/><path d="m55.205632 12.312054c1.253491-2.17111 6.215194-10.2759166 9.818079-10.1658924 6.259152.193004 18.400139 30.3131464 23.754375 33.0470004 6.988097 3.568097 32.308544 7.487786 35.934554 10.901419" stroke-linecap="round" stroke-linejoin="round" stroke-opacity=".430894" stroke-width="2"/></g><ellipse cx="23.190451" cy="59.379417" fill="url(#e)" opacity=".702326" rx="2.108223" ry="1.98421" transform="matrix(-1.742936 -1.063485 -.470527 1.244278 191.1539 -3.699137)"/><path d="m64.8125 10.15625c-.236008.158156-1.499245.810725-2.96875 2.5625-1.741631 2.076178-3.694876 5.212665-5.65625 8.53125-1.961377 3.318584-3.934195 6.847951-5.84375 9.90625-1.909557 3.0583-3.535196 5.592956-6.0625 7.375-2.527304 1.782045-5.509278 2.478438-9.03125 3.25-3.521972.77156-7.496708 1.423295-11.28125 2.15625-3.784542.732958-7.397001 1.525525-9.9375 2.46875-2.183243.810584-3.202795 1.793014-3.40625 1.9375-.00004.0025.000145.028 0 .03125.07061.196986.243176 1.614276 1.5 3.625 1.436369 2.297967 3.824938 5.140373 6.375 8.03125 1.922509 2.179452 3.940722 4.396042 5.8125 6.53125 22.875315 2.404977 47.219576 10.887985 71.4375 14.96875.08013-1.344915.317405-2.636357.75-3.90625.997182-2.927214 3.010418-5.211878 5.40625-7.90625 2.39581-2.694367 5.2128-5.557526 7.84375-8.375 2.63092-2.817471 5.03037-5.618646 6.53125-7.875 1.28983-1.939054 1.57297-3.328474 1.65625-3.5625-.00003-.0026.00016-.028 0-.03125-.20124-.149672-1.2156-1.127891-3.375-2-2.51276-1.014819-6.0815-1.941371-9.84375-2.78125-3.76226-.839881-7.720045-1.628971-11.21875-2.5-3.498698-.871031-6.461695-1.615824-8.9375-3.46875-2.4758-1.852928-4.021601-4.45133-5.84375-7.5625-1.82215-3.111169-3.664677-6.689682-5.53125-10.0625-1.866569-3.372819-3.755385-6.562813-5.4375-8.6875-1.471851-1.859101-2.772586-2.522232-2.9375-2.65625z" fill="url(#f)"/><path d="m64.820041 9.4310571c-.239346.1603929-1.52045.8221919-3.010739 2.5987429-1.766264 2.105543-3.747135 5.286392-5.73625 8.651914-1.989119 3.365521-3.98984 6.944807-5.926403 10.046362-1.936565 3.101555-3.585197 5.672061-6.148246 7.47931-2.56305 1.80725-5.5872 2.513492-9.158986 3.295967-3.571786.782473-7.60274 1.443426-11.440809 2.186747-3.83807.743325-7.501622 1.547102-10.078054 2.503668-2.214122.822048-3.248094 1.818374-3.4544266 1.964903-.0000406.0025.000147.0284 0 .03169.071609.199772.2466156 1.637108 1.5212156 3.676271 1.456685 2.330469 3.879037 5.213077 6.465166 8.144842 1.949701 2.210278 3.996459 4.458219 5.894711 6.623626 1.460444.153543 2.933339.339017 4.405187.538764 13.865976-10.617952 32.531223-24.243419 50.580419-36.350712-1.784779-3.076121-3.592473-6.586847-5.419331-9.887902-1.892969-3.420523-3.8085-6.655636-5.514406-8.810374-1.492669-1.885395-2.811801-2.5579054-2.979048-2.6938189zm35.019651 34.2273509c-12.725577 9.609123-23.884508 20.29159-33.561819 31.628608 9.921294 2.444788 19.929522 4.845601 29.91724 6.528551.08126-1.363938.321895-2.673645.760608-3.961499 1.011286-2.968616 3.052999-5.285594 5.482719-8.018074 2.42969-2.732476 5.28652-5.636131 7.95469-8.493454 2.66813-2.857321 5.10151-5.698115 6.62362-7.986382 1.30807-1.96648 1.59522-3.375551 1.67968-3.612887-.00003-.0026.00016-.0284 0-.03169-.20409-.151789-1.2328-1.143844-3.42274-2.028288-2.5483-1.029172-6.16751-1.968829-9.98298-2.820587-1.79452-.400608-3.63783-.812472-5.451018-1.204296z" fill="url(#m)" opacity=".413934"/><path d="m64.8125 10.15625c-.236008.158156-1.499245.810725-2.96875 2.5625-1.741631 2.076178-3.694876 5.212665-5.65625 8.53125-1.961377 3.318584-3.934195 6.847951-5.84375 9.90625-1.909557 3.0583-3.535196 5.592956-6.0625 7.375-2.527304 1.782045-5.509278 2.478438-9.03125 3.25-3.521972.77156-7.496708 1.423295-11.28125 2.15625-3.784542.732958-7.397001 1.525525-9.9375 2.46875-2.183243.810584-3.202795 1.793014-3.40625 1.9375-.00004.0025.000145.028 0 .03125.07061.196986.243176 1.614276 1.5 3.625 1.436369 2.297967 48.608777-8.811561 66.40625-20.75-1.759887-3.03322-3.54237-6.494983-5.34375-9.75-1.866569-3.372819-3.755385-6.562813-5.4375-8.6875-1.471851-1.859101-2.772586-2.522232-2.9375-2.65625zm34.53125 33.75c-30.873543 23.581074-13.442175 35.965522-3.59375 37.625.08013-1.344915.317405-2.636357.75-3.90625.997182-2.927214 3.010418-5.211878 5.40625-7.90625 2.39581-2.694367 5.2128-5.557526 7.84375-8.375 2.63092-2.817471 5.03037-5.618646 6.53125-7.875 1.28983-1.939054 1.57297-3.328474 1.65625-3.5625-.00003-.0026.00016-.028 0-.03125-.20124-.149672-1.2156-1.127891-3.375-2-2.51276-1.014819-6.0815-1.941371-9.84375-2.78125-1.7695-.395021-3.5871-.801141-5.375-1.1875z" fill="url(#g)" opacity=".348361"/><ellipse cx="5.753135" cy="-45.41592" fill="url(#i)" opacity=".356557" rx="124.10334" ry="11.780229" transform="matrix(.126835 -.05623734 -.03870485 -.09211943 44.81196 106.2565)"/><ellipse cx="5.753135" cy="-45.41592" fill="url(#i)" opacity=".495902" rx="124.10334" ry="11.780229" transform="matrix(-.126834 -.05702883 .03870485 -.09341592 81.95911 106.3126)"/><ellipse cx="5.753135" cy="-45.41592" fill="url(#i)" opacity=".27459" rx="124.10334" ry="11.780229" transform="matrix(-.00654867 -.135343 -.09988208 .00269653 91.9485 98.93228)"/><path d="m25.088207 80.21837c.446267 10.529444-3.033624 25.73442-2.850933 31.24622l2.394783.22808c1.968-10.00016 3.385099-20.183942 3.535157-30.790076z" fill="url(#j)" fill-rule="evenodd" opacity=".553279"/></g></svg>