<svg height="24" viewBox="0 0 6.3499999 6.3500002" width="24" xmlns="http://www.w3.org/2000/svg" xmlns:xlink="http://www.w3.org/1999/xlink"><linearGradient id="a" gradientUnits="userSpaceOnUse" x1="31.750008" x2="34.499989" xlink:href="#e" y1="48.000015" y2="72.750015"/><radialGradient id="b" cx="72.631729" cy="22.787588" gradientTransform="matrix(5.297908 0 0 5.2979189 -354.76495 -52.461151)" gradientUnits="userSpaceOnUse" r="1.265237" xlink:href="#e"/><linearGradient id="c" gradientUnits="userSpaceOnUse" x1="27.579626" x2="30.679226" y1="57.197716" y2="68.765579"><stop offset="0" stop-color="#fff"/><stop offset="1" stop-color="#fff" stop-opacity="0"/></linearGradient><linearGradient id="d" gradientTransform="matrix(-.08906363 -.15426272 .09058772 -.05230085 14.13228 30.081635)" gradientUnits="userSpaceOnUse" x1="10.135816" x2="9.692278" y1="29.107889" y2="103.48482"><stop offset="0" stop-color="#72d13d"/><stop offset=".3553" stop-color="#35ac1c"/><stop offset=".6194" stop-color="#0f9508"/><stop offset=".7574" stop-color="#008c00"/><stop offset="1" stop-color="#007a00"/></linearGradient><linearGradient id="e"><stop offset="0" stop-color="#fd0000"/><stop offset="1" stop-color="#8f0000"/></linearGradient><g transform="matrix(.171875 0 0 .171875 0 .264583)"><path d="m28.47879 17.49679-22.4971856-13.2911716.769695-1.3331509 22.4971856 13.2911725z" fill="#4d4d4d" fill-opacity=".992157" opacity=".99"/><path d="m7.682978 4.60533v23.09058h-1.539387v-23.09058z" fill="#4d4d4d" fill-opacity=".992157" opacity=".5"/><g transform="matrix(.38484968 0 0 .38484968 -4.617912 -21.55155)"><rect fill="url(#a)" height="12" rx="1.546875" width="12" x="24" y="60"/><rect fill="url(#b)" height="8.937499" rx=".837891" width="8.937503" x="25.562511" y="61.5625"/><path d="m26.428317 61.562516c-.464192 0-.837891.3737-.837891.837891v4.224364c.679121.06455 1.378207.104736 2.094726.104736 2.578772 0 4.95135-.434878 6.842772-1.169555v-3.159545c0-.464191-.373698-.837891-.837891-.837891z" fill="url(#c)"/></g><g opacity=".5" transform="matrix(.38484968 0 0 .38484968 -4.617912 4.615854)"><rect fill="url(#a)" height="12" rx="1.546875" width="12" x="24" y="60"/><rect fill="url(#b)" height="8.937499" rx=".837891" width="8.937503" x="25.562511" y="61.5625"/><path d="m26.428317 61.562516c-.464192 0-.837891.3737-.837891.837891v4.224364c.679121.06455 1.378207.104736 2.094726.104736 2.578772 0 4.95135-.434878 6.842772-1.169555v-3.159545c0-.464191-.373698-.837891-.837891-.837891z" fill="url(#c)"/></g><g transform="matrix(.38484968 0 0 .38484968 18.472025 -7.695296)"><rect fill="url(#a)" height="12" rx="1.546875" width="12" x="24" y="60"/><rect fill="url(#b)" height="8.937499" rx=".837891" width="8.937503" x="25.562511" y="61.5625"/><path d="m26.428317 61.562516c-.464192 0-.837891.3737-.837891.837891v4.224364c.679121.06455 1.378207.104736 2.094726.104736 2.578772 0 4.95135-.434878 6.842772-1.169555v-3.159545c0-.464191-.373698-.837891-.837891-.837891z" fill="url(#c)"/></g><path d="m22.648044 26.943345-1.005353-.26938.170777-2.64809-7.848346 4.53231-.73574-1.27434 7.848307-4.53237-2.378704-1.17616.269384-1.00535 5.661934.98155-1.982068 5.39217z" fill="url(#d)"/></g></svg>