<svg height="24" width="24" xmlns="http://www.w3.org/2000/svg" xmlns:xlink="http://www.w3.org/1999/xlink"><linearGradient id="a" gradientTransform="matrix(.01012142 0 0 .01626492 -109.65689 -1.937946)" gradientUnits="userSpaceOnUse" x1="399.77466" x2="399.77466" y1="1164.6696" y2="549.06134"><stop offset="0" stop-color="#717174"/><stop offset=".5" stop-color="#9c9ca1"/><stop offset="1" stop-color="#cdcdd1"/></linearGradient><radialGradient id="b" cx="-33.5" cy="194.5" gradientTransform="matrix(.7272728 0 0 .7272727 -79.63637 -129.45454)" gradientUnits="userSpaceOnUse" r="5.5"><stop offset="0" stop-color="#a9cbfc"/><stop offset="1" stop-color="#aecffc"/></radialGradient><radialGradient id="c" cx="11.99999015" cy="-103.99999545" gradientUnits="userSpaceOnUse" r="3.99999985"><stop offset="0" stop-color="#8fbcff"/><stop offset="1" stop-color="#80b3ff"/></radialGradient><linearGradient id="d" gradientTransform="matrix(.01012142 0 0 .01626492 -113.65688 -5.937946)" gradientUnits="userSpaceOnUse" x1="399.77466" x2="399.77466" y1="1164.6696" y2="549.06134"><stop offset="0" stop-color="#717174"/><stop offset=".5" stop-color="#9c9ca1"/><stop offset="1" stop-color="#bdbdc2"/></linearGradient><linearGradient id="e" gradientTransform="matrix(.08333331 0 0 .1111112 -113.33333 .888887)" gradientUnits="userSpaceOnUse" x1="119.57646" x2="15.999996" y1="23.792561" y2="109.6508"><stop offset="0" stop-color="#fff"/><stop offset=".42597079" stop-color="#fff"/><stop offset=".5892781" stop-color="#e5e5e5"/><stop offset=".80219781" stop-color="#eaeaea"/><stop offset="1" stop-color="#eee"/></linearGradient><linearGradient id="f" gradientTransform="matrix(0 -.1996878 -.2499999 0 15.999994 -91.10764)" gradientUnits="userSpaceOnUse" x1="102.31124" x2="74.330322" y1="-5.830213" y2="32"><stop offset="0" stop-color="#fff"/><stop offset="1" stop-color="#fff" stop-opacity="0"/></linearGradient><g transform="matrix(1.7142638 0 0 1.7142638 -5.142635 193.71196)"><rect fill="url(#a)" height="9.916731" opacity=".75" rx=".396846" ry=".461538" transform="matrix(0 1 1 0 0 0)" width="9.916642" x="-108.91664" y="7.083269"/><g fill-rule="evenodd"><rect fill="url(#b)" height="8.750058" rx=".184624" ry=".222222" transform="matrix(0 1 1 0 0 0)" width="8.750053" x="-108.33331" y="7.666606"/><path d="m16.416663-105.99996c-2.357025 2.13339-5.656457 5.17085-8.7500571 6.416711v-5.435261c2.9617531-.30442 6.3873431-2.00479 8.7500571-3.3148z" fill="url(#c)"/></g></g><path d="m-1.71410911426-1.7141132h27.42821908574v27.42821908574h-27.42821908574z" fill="#e7e7e7" opacity="0"/><g transform="matrix(1.7142638 0 0 1.7142638 -5.142635 193.71196)"><rect fill="url(#d)" height="10" opacity=".75" rx=".396846" ry=".461539" transform="matrix(0 1 1 0 0 0)" width="10" x="-113" y="3"/><g fill-rule="evenodd"><rect fill="url(#e)" height="8.750057" rx=".184624" ry=".222222" transform="matrix(0 1 1 0 0 0)" width="8.750048" x="-112.41666" y="3.583246"/><path d="m12.333303-109.49998c-2.357025 2.13339-5.6564656 4.35293-8.750057 5.5988v-5.43526c2.9617442-.30442 6.3873519-1.47442 8.750057-2.78444z" fill="url(#f)"/></g></g></svg>