<svg height="24" viewBox="0 0 24 24" width="24" xmlns="http://www.w3.org/2000/svg" xmlns:xlink="http://www.w3.org/1999/xlink"><linearGradient id="a" gradientTransform="matrix(.76865992 0 0 1.0385957 14.804866 -2.046111)" gradientUnits="userSpaceOnUse" x1="-20" x2="109.41488" xlink:href="#C" y1="68" y2="94.402573"/><linearGradient id="b" gradientTransform="matrix(1.0317152 0 0 -1.0455226 9.160302 133.3601)" gradientUnits="userSpaceOnUse" x1="21.416348" x2="27.068035" xlink:href="#t" y1="13.17709" y2="6.032567"/><linearGradient id="c" gradientTransform="matrix(-1.0317152 0 0 -1.0455226 118.91927 133.3601)" gradientUnits="userSpaceOnUse" x1="21.416348" x2="27.068035" xlink:href="#t" y1="13.17709" y2="6.032567"/><linearGradient id="d" gradientTransform="matrix(.71977653 0 0 .96372952 17.915126 2.321349)" gradientUnits="userSpaceOnUse" x1="64" x2="64" xlink:href="#A" y1="84" y2="52"/><linearGradient id="e" gradientUnits="userSpaceOnUse" x1="72" x2="74.638542" xlink:href="#u" y1="4" y2="57.684673"/><linearGradient id="f" gradientUnits="userSpaceOnUse" x1="35.543501" x2="43.010801" y1="62.048213" y2="112.659971"><stop offset="0" stop-color="#c0c0c0"/><stop offset="1" stop-color="#f7f7f7"/></linearGradient><radialGradient id="g" cx="40.990562" cy="98.035287" gradientUnits="userSpaceOnUse" r="18.521135"><stop offset="0" stop-color="#666"/><stop offset="1" stop-color="#232323" stop-opacity=".9375"/></radialGradient><linearGradient id="h" gradientTransform="matrix(2.384575 0 0 2.6116957 -85.719524 -642.69941)" gradientUnits="userSpaceOnUse" x1="53.51049" x2="53.720795" y1="264.43698" y2="279.9422"><stop offset="0" stop-color="#f8f8f8"/><stop offset="1" stop-color="#f8f8f8" stop-opacity="0"/></linearGradient><linearGradient id="i" gradientTransform="matrix(.09716559 0 0 .1561431 1.69383 -69.804244)" gradientUnits="userSpaceOnUse" x1="399.77466" x2="399.77466" y1="1164.6696" y2="549.06134"><stop offset="0" stop-color="#b4b4b6"/><stop offset=".5" stop-color="#9c9ca1"/><stop offset="1" stop-color="#cdcdd1"/></linearGradient><linearGradient id="j" gradientTransform="matrix(.8333335 0 0 1.1111112 2.666665 -7.111107)" gradientUnits="userSpaceOnUse" x1="42.728634" x2="124.09152" y1="99.999985" y2="27.999992"><stop offset="0" stop-color="#fff"/><stop offset=".42597079" stop-color="#fff"/><stop offset=".5892781" stop-color="#f1f1f1"/><stop offset=".80219781" stop-color="#eaeaea"/><stop offset="1" stop-color="#dfdfdf"/></linearGradient><linearGradient id="k" gradientTransform="matrix(1.9983722 0 0 2.5 -115.72536 -16)" gradientUnits="userSpaceOnUse" x1="102.31124" x2="74.330322" xlink:href="#l" y1="-5.830213" y2="32"/><linearGradient id="l"><stop offset="0" stop-color="#fff"/><stop offset="1" stop-color="#fff" stop-opacity="0"/></linearGradient><linearGradient id="m" gradientUnits="userSpaceOnUse" x1="43" x2="56" y1="108.75" y2="61.75"><stop offset="0" stop-color="#27951d"/><stop offset="1" stop-color="#27951d" stop-opacity="0"/></linearGradient><clipPath id="n"><rect height="80" rx="1.5" ry="1.444445" width="80" x="16" y="24"/></clipPath><filter id="o" height="1.679219" width="1.459715" x="-.229858" y="-.339609"><feGaussianBlur stdDeviation="7.8534644"/></filter><linearGradient id="p" gradientUnits="userSpaceOnUse" x1="46.5" x2="72" xlink:href="#q" y1="-22.395977" y2="74.104019"/><radialGradient id="q" cx="48" cy="-.2148" gradientTransform="matrix(.9792 0 0 .9725 133.0002 20.8762)" gradientUnits="userSpaceOnUse" r="55.147999"><stop offset="0" stop-color="#72d13d"/><stop offset=".3553" stop-color="#35ac1c"/><stop offset=".6194" stop-color="#0f9508"/><stop offset=".7574" stop-color="#008c00"/><stop offset="1" stop-color="#007a00"/></radialGradient><radialGradient id="r" cx="52.796875" cy="63.40625" fx="51.796875" fy="93.371971" gradientTransform="matrix(1 0 0 .6507436 0 22.14504)" gradientUnits="userSpaceOnUse" r="34.671875" xlink:href="#q"/><linearGradient id="s" gradientUnits="userSpaceOnUse" x1="64.18939" x2="64.18939" xlink:href="#l" y1="12.987433" y2="83.758904"/><linearGradient id="t"><stop offset="0" stop-color="#a49a99" stop-opacity=".393382"/><stop offset=".5" stop-color="#625957"/><stop offset="1" stop-color="#9c9290" stop-opacity=".639706"/></linearGradient><linearGradient id="u"><stop offset="0" stop-color="#fff"/><stop offset="1" stop-color="#bbb"/></linearGradient><linearGradient id="v" gradientTransform="matrix(1.0317152 0 0 1.0455226 9.160302 -16.996467)" gradientUnits="userSpaceOnUse" x1="21.416348" x2="27.068035" xlink:href="#t" y1="13.17709" y2="6.032567"/><linearGradient id="w" gradientTransform="matrix(-1.0317152 0 0 1.0455226 118.91927 -16.996467)" gradientUnits="userSpaceOnUse" x1="21.416348" x2="27.068035" xlink:href="#t" y1="13.17709" y2="6.032567"/><filter id="x" color-interpolation-filters="sRGB" height="1.011497" width="1.00824" x="-.00412" y="-.005748"><feGaussianBlur stdDeviation=".13885547"/></filter><filter id="y" color-interpolation-filters="sRGB" height="1.127949" width="1.076818" x="-.038409" y="-.063974"><feGaussianBlur stdDeviation=".65166516"/></filter><filter id="z" color-interpolation-filters="sRGB" height="1.095962" width="1.057614" x="-.028807" y="-.047981"><feGaussianBlur stdDeviation=".48874883"/></filter><linearGradient id="A"><stop offset="0" stop-color="#cbcbcd"/><stop offset=".5" stop-color="#e0e0e2"/><stop offset="1" stop-color="#f2f2f2"/></linearGradient><linearGradient id="B" gradientTransform="matrix(.71977653 0 0 .96372952 17.915126 -9.315014)" gradientUnits="userSpaceOnUse" x1="63.567924" x2="64" xlink:href="#A" y1="20.533155" y2="-8"/><linearGradient id="C"><stop offset="0" stop-color="#959391"/><stop offset="1" stop-color="#828282"/></linearGradient><linearGradient id="D" gradientTransform="matrix(.76865992 0 0 1.0385957 14.804866 -13.682475)" gradientUnits="userSpaceOnUse" x1="52.108521" x2="109.41488" xlink:href="#C" y1="83.378242" y2="32.78091"/><linearGradient id="E" gradientUnits="userSpaceOnUse" x1="63.9991" x2="63.9991" xlink:href="#u" y1="40.728418" y2="75.637018"/><linearGradient id="F" gradientTransform="matrix(.79999995 0 0 .66666668 12.799816 15.51545)" gradientUnits="userSpaceOnUse" x1="63.999107" x2="63.999107" xlink:href="#A" y1="64.0009" y2="29.092302"/><linearGradient id="G" gradientTransform="matrix(.76865992 0 0 1.0385957 14.804866 -2.046111)" gradientUnits="userSpaceOnUse" x1="52.108521" x2="109.41488" xlink:href="#C" y1="83.378242" y2="32.78091"/><linearGradient id="H" gradientTransform="matrix(1.0317152 0 0 1.0455226 9.160302 -5.360103)" gradientUnits="userSpaceOnUse" x1="21.416348" x2="27.068035" xlink:href="#t" y1="13.17709" y2="6.032567"/><linearGradient id="I" gradientTransform="matrix(-1.0317152 0 0 1.0455226 118.91927 -5.360103)" gradientUnits="userSpaceOnUse" x1="21.416348" x2="27.068035" xlink:href="#t" y1="13.17709" y2="6.032567"/><linearGradient id="J" gradientTransform="matrix(.71977653 0 0 .96372952 17.915126 2.321349)" gradientUnits="userSpaceOnUse" x1="63.567924" x2="64" xlink:href="#A" y1="20.533155" y2="-8"/><linearGradient id="K" gradientUnits="userSpaceOnUse" x1="63.9991" x2="63.9991" xlink:href="#u" y1="46.5466" y2="81.4552"/><linearGradient id="L" gradientTransform="matrix(.79999995 0 0 .66666668 12.799816 21.333632)" gradientUnits="userSpaceOnUse" x1="63.999107" x2="63.999107" xlink:href="#A" y1="64.0009" y2="29.092302"/><g transform="matrix(.171875 0 0 .171875 7.000239 2)"><path d="m36.60969 0c-4.1415-.0000001-7.475356 7.4600418-7.475356 11.697428v3.122162h-.043834v49.180411h69.8172v-49.180411h-.0438v-3.122162c.000008-4.2373862-3.33384-11.697428-7.47534-11.697428z" fill="url(#G)"/><path d="m36.60969 128c-4.1415 0-7.475356-7.46005-7.475356-11.69744v-3.12215h-.043834v-49.180411h69.817196v49.180411h-.0438v3.12215c0 4.23739-3.333848 11.69744-7.475348 11.69744z" fill="url(#a)"/><path d="m46.985862 116.3396-17.895362 2.38552c1.110793 3.90762 4.548069 8.63476 8.745507 9.20537z" fill="url(#b)" fill-rule="evenodd"/><path d="m81.094407 116.3396 9.143849 11.58278c4.16588-.61855 7.56853-5.32194 8.66944-9.2074z" fill="url(#c)" fill-rule="evenodd"/><path d="m41.141976 121.62832c-3.453415 0-6.233377-4.90481-6.233377-8.60391v-2.72555h-.03655v-44.540493h58.217551v44.540493h-.03655v2.72555c0 3.6991-2.779969 8.60391-6.233379 8.60391z" fill="url(#d)"/><path d="m32.269531 6.5429688c-4.7979-.0000001-8.660156 5.0894142-8.660156 8.9277342v2.828125h-.05078v46.216797l9.765738.786019-1.678625-41.199885h.04687v-2.730469c0-3.704527 2.820959-9.170746 7.287883-9.190741l50.90628-.227874c4.466926-.01999 6.479055 5.414282 6.422663 9.11857v2.730469h.0488l-2.414116 41.093979 10.497282-.38007v-46.216795h-.0508v-2.828125c0-3.83832-3.86225-8.9277342-8.660146-8.9277342z" fill="#d4d4d4" filter="url(#x)" transform="matrix(.71977653 0 0 -.9637295 17.915126 127.93398)"/><path d="m37.834005.06962197c-4.196483.57190714-7.632897 5.29839853-8.743505 9.20536663l17.895362 2.3855244z" fill="url(#H)" fill-rule="evenodd"/><path d="m90.24026.07570753-9.145849 11.58480547 17.813289-2.3753833c-1.10075-3.8848568-4.50245-8.58969218-8.66744-9.20942217z" fill="url(#I)" fill-rule="evenodd"/><path d="m41.141976 6.3717491c-3.453415-.0000001-6.233377 4.9048179-6.233377 8.6039209v2.725547h-.03655v44.540491h58.217551v-44.540491h-.03655v-2.725547c0-3.699103-2.779969-8.6039209-6.233382-8.6039209z" fill="url(#J)"/><path d="m32.269531 4.2028388c-4.7979-.0000001-8.660156 5.0894143-8.660156 8.9277342v2.828125h-.05078v46.216797l7.923982-.261117.163131-41.092191h.04687v-2.730464c0-3.704527 2.930467-8.856147 7.397333-8.8298879l50.955078.299547c4.466867.026259 6.313215 5.1253609 6.313215 8.8298879v2.730469h.0488l-.16313 41.092191 8.197496-.03843v-46.216802h-.0508v-2.828125c0-3.8383199-3.86225-8.9277342-8.660146-8.9277342z" fill="url(#e)" filter="url(#x)" transform="matrix(.71977653 0 0 .9637295 17.915126 2.321349)"/><path d="m64 109.77592-20.359652-24.447207h8.468173l11.891479 14.277154 11.891479-14.277154h8.468173z" fill="#fdfcfc" filter="url(#z)" transform="matrix(.92239182 0 0 .9 4.966018 19.755232)"/><path d="m63.999097 116.60309-18.779578-22.002487h7.810974l10.968604 12.849437 10.968602-12.849437h7.810974z" fill="#403c3b"/><path d="m64 22.224075-20.359652 24.447212h8.468173l11.891479-14.277154 11.891479 14.277154h8.468173z" fill="#fdfcfc" filter="url(#y)" transform="matrix(.92239182 0 0 .9 4.966018 -4.579509)"/><path d="m63.999097 13.577582-18.779579 22.002491h7.810974l10.968605-12.849439 10.968602 12.849439h7.810974z" fill="#403c3b"/><rect fill="#5c5b5a" height="46.5448" ry="5.8181" width="58.181" x="34.9086" y="40.7285"/><rect fill="url(#K)" height="34.9086" ry="4.363575" width="46.5448" x="40.7267" y="46.5466"/><rect fill="url(#L)" height="23.2724" ry="2.90905" width="34.9086" x="46.5448" y="52.3647"/></g><g transform="matrix(.171875 0 0 .171875 7.000239 2)"><path d="m36.60969-11.636364c-4.1415 0-7.475356 7.4600422-7.475356 11.69742836v3.12216204h-.043834v49.1804106h69.8172v-49.1804106h-.0438v-3.12216204c.000008-4.23738616-3.33384-11.69742836-7.47534-11.69742836z" fill="url(#D)"/><path d="m36.60969 128c-4.1415 0-7.475356-7.46005-7.475356-11.69744v-3.12215h-.043834v-49.180411h69.817196v49.180411h-.0438v3.12215c0 4.23739-3.333848 11.69744-7.475348 11.69744z" fill="url(#a)"/><path d="m46.985862 116.3396-17.895362 2.38552c1.110793 3.90762 4.548069 8.63476 8.745507 9.20537z" fill="url(#b)" fill-rule="evenodd"/><path d="m81.094407 116.3396 9.143849 11.58278c4.16588-.61855 7.56853-5.32194 8.66944-9.2074z" fill="url(#c)" fill-rule="evenodd"/><path d="m41.141976 121.62832c-3.453415 0-6.233377-4.90481-6.233377-8.60391v-2.72555h-.03655v-44.540493h58.217551v44.540493h-.03655v2.72555c0 3.6991-2.779969 8.60391-6.233379 8.60391z" fill="url(#d)"/><path d="m32.269531 6.5429688c-4.7979-.0000001-8.660156 5.0894142-8.660156 8.9277342v2.828125h-.05078v46.216797l9.765738.786019-1.678625-41.199885h.04687v-2.730469c0-3.704527 2.820959-9.170746 7.287883-9.190741l50.90628-.227874c4.466926-.01999 6.479055 5.414282 6.422663 9.11857v2.730469h.0488l-2.414116 41.093979 10.497282-.38007v-46.216795h-.0508v-2.828125c0-3.83832-3.86225-8.9277342-8.660146-8.9277342z" fill="#d4d4d4" filter="url(#x)" transform="matrix(.71977653 0 0 -.9637295 17.915126 127.93398)"/><path d="m37.834005-11.566742c-4.196483.571907-7.632897 5.2983989-8.743505 9.205367l17.895362 2.38552436z" fill="url(#v)" fill-rule="evenodd"/><path d="m90.24026-11.560656-9.145849 11.58480536 17.813289-2.37538326c-1.10075-3.8848568-4.50245-8.5896921-8.66744-9.2094221z" fill="url(#w)" fill-rule="evenodd"/><path d="m41.141976-5.2646145c-3.453415-.0000001-6.233377 4.90481786-6.233377 8.6039209v2.725547h-.03655v44.5404906h58.217551v-44.5404906h-.03655v-2.725547c0-3.69910304-2.779969-8.6039209-6.233382-8.6039209z" fill="url(#B)"/><path d="m32.269531 4.2028388c-4.7979-.0000001-8.660156 5.0894143-8.660156 8.9277342v2.828125h-.05078v46.216797l7.923982-.261117.163131-41.092191h.04687v-2.730464c0-3.704527 2.930467-8.856147 7.397333-8.8298879l50.955078.299547c4.466867.026259 6.313215 5.1253609 6.313215 8.8298879v2.730469h.0488l-.16313 41.092191 8.197496-.03843v-46.216802h-.0508v-2.828125c0-3.8383199-3.86225-8.9277342-8.660146-8.9277342z" fill="url(#e)" filter="url(#x)" transform="matrix(.71977653 0 0 .9637295 17.915126 -9.315014)"/><path d="m64 109.77592-20.359652-24.447207h8.468173l11.891479 14.277154 11.891479-14.277154h8.468173z" fill="#fdfcfc" filter="url(#z)" transform="matrix(.92239182 0 0 .9 4.966018 19.755232)"/><path d="m63.999097 116.60309-18.779578-22.002487h7.810974l10.968604 12.849437 10.968602-12.849437h7.810974z" fill="#403c3b"/><path d="m64 22.224075-20.359652 24.447212h8.468173l11.891479-14.277154 11.891479 14.277154h8.468173z" fill="#fdfcfc" filter="url(#y)" transform="matrix(.92239182 0 0 .9 4.966018 -16.215872)"/><path d="m63.999097 1.9412184-18.779579 22.0024906h7.810974l10.968605-12.849439 10.968602 12.849439h7.810974z" fill="#403c3b"/><rect fill="#5c5b5a" height="49.454544" ry="5.8181" width="58.181816" x="34.908192" y="34.909092"/><rect fill="url(#E)" height="34.9086" ry="4.363575" width="46.5448" x="40.7267" y="40.72842"/><rect fill="url(#F)" height="23.2724" ry="2.90905" width="34.9086" x="46.5448" y="46.54652"/></g><g transform="matrix(.1549637 0 0 .15499745 -.755465 4.517256)"><circle cx="40.314274" cy="90.258026" fill="#2a2a2a" fill-opacity=".919118" r="35.439163"/><circle cx="40.314274" cy="90.258026" fill="url(#f)" r="28.832094"/><path d="m56.305226 66.284808c-9.830495 14.888628-25.55978 36.685442-33.137513 47.110512a28.832095 28.832095 0 0 0 14.09113 5.52365c6.553265-2.89168 16.142417-7.15947 26.48594-11.90106a28.832095 28.832095 0 0 0 5.401061-16.759343 28.832095 28.832095 0 0 0 -12.840618-23.973759z" fill="#f7f7f7" fill-opacity=".658088" fill-rule="evenodd"/><circle cx="40.314274" cy="90.258026" fill="url(#g)" r="18.521137"/><ellipse cx="40.185036" cy="84.161751" fill="url(#h)" rx="15.169822" ry="10.753576"/></g><g transform="matrix(.09285086 0 0 .09285086 -.656616 -.084639)"><rect fill="url(#i)" height="96.928268" rx="2.857143" ry="2.769231" width="96.928268" x="7.071732" y="11.681365"/><g fill-rule="evenodd"><rect fill="url(#j)" height="75.388657" rx="1.5" ry="1.444445" width="75.388657" x="17.841539" y="22.451172"/><path d="m67.001547 22.451172c-21.349742 23.570205-37.236168 44.452693-49.704168 75.388653h54.393198c3.046452-29.61745 8.429665-51.761538 21.539615-75.388653z" fill="url(#k)"/><path clip-path="url(#n)" d="m96.5 41.5-44 54.5-37-28.5z" fill="url(#m)" filter="url(#o)" opacity=".756554" stroke="#000"/></g><path d="m128 3.208047-76.02318 52.372235-22.978484-19.41474c-1.376484-.814305-3.182667-.509859-4.045508.710488l-16.5056725 21.812637c-.8628517 1.220339-.4379247 2.856539.9385578 3.670851l40.8434467 33.185654c1.376483.814307 3.182657.509857 4.045508-.710481z" fill="url(#p)" opacity=".906367"/><path d="m87.46875 40.84375-30.96875 21.3125c-2.966629 2.041883-6.93187 1.850017-9.6875-.46875l-18.65625-15.75-10.03125 13.21875 33 26.8125z" fill="url(#r)" opacity=".906367"/><path d="m107.65625 22.09375-53.40625 36.78125c-1.48677 1.016551-3.46954.914215-4.84375-.25l-21.90625-18.46875-14.875 19.65625 8.75 7.09375c1.7816.053567 3.5684.09375 5.375.09375 18.91208 0 36.51705-3.005811 51.28125-8.125z" fill="url(#s)" opacity=".756554"/></g></svg>