<svg height="24" width="24" xmlns="http://www.w3.org/2000/svg" xmlns:xlink="http://www.w3.org/1999/xlink"><linearGradient id="a"><stop offset="0" stop-color="#0968ef"/><stop offset="1" stop-color="#aecffc"/></linearGradient><linearGradient id="b"><stop offset="0" stop-color="#fff"/><stop offset="1" stop-color="#fff" stop-opacity="0"/></linearGradient><linearGradient id="c" gradientTransform="matrix(2.2115662 -.04123813 -.04123817 2.2591837 -31.837642 -67.624458)" gradientUnits="userSpaceOnUse" x1="68.302673" x2="68.302673" xlink:href="#b" y1="30.528692" y2="85.07811"/><linearGradient id="d" gradientTransform="matrix(.88731106 0 0 1.2261852 -40.905799 -11.618961)" gradientUnits="userSpaceOnUse" x1="102.31124" x2="74.330322" xlink:href="#b" y1="-5.830213" y2="32"/><linearGradient id="e" gradientTransform="matrix(.59245361 0 0 .76480615 -73.477856 -10.747966)" gradientUnits="userSpaceOnUse" x1="29.500801" x2="103.76822" y1="29.743441" y2="97.734528"><stop offset="0" stop-color="#fff"/><stop offset=".42597079" stop-color="#fff"/><stop offset=".5892781" stop-color="#f1f1f1"/><stop offset=".80219781" stop-color="#eaeaea"/><stop offset="1" stop-color="#dfdfdf"/></linearGradient><linearGradient id="f" gradientTransform="matrix(.07291481 0 0 .10813251 -78.254027 -54.755844)" gradientUnits="userSpaceOnUse" x1="399.77466" x2="399.77466" y1="1164.6696" y2="549.06134"><stop offset="0" stop-color="#b4b4b6"/><stop offset=".5" stop-color="#9c9ca1"/><stop offset="1" stop-color="#cdcdd1"/></linearGradient><linearGradient id="g" gradientUnits="userSpaceOnUse" x1="58.181641" x2="104.7258" y1="90.194336" y2="64.0009"><stop offset="0" stop-color="#c7cdd7"/><stop offset="1" stop-color="#fff"/></linearGradient><linearGradient id="h" gradientUnits="userSpaceOnUse" x1="52.363281" x2="151.2706" xlink:href="#a" y1="90.182655" y2="34.9104"/><linearGradient id="i" gradientTransform="matrix(.62351671 .59545422 .59545422 -.62351671 -42.057927 59.769481)" gradientUnits="userSpaceOnUse" x1="113.15723" x2="39.268185" xlink:href="#a" y1="25.786163" y2="25.786163"/><g transform="matrix(.171875 0 0 .171875 1.000155 .99999)"><rect fill="url(#f)" height="64" rx="2.144051" ry="2.301303" transform="rotate(-90)" width="64" x="-64"/><g fill-rule="evenodd"><rect fill="url(#e)" height="52.3629" rx="1.066416" ry="1.24281" transform="rotate(-90)" width="52.3629" x="-58.1828" y="5.8181"/><path d="m40.716944 5.8199c-9.479645 11.560575-18.799718 26.244739-24.33572 41.418025h24.151496c1.352678-14.52659 6.009145-29.829538 11.83018-41.418025z" fill="url(#d)"/><path d="m49.436804 113.76553-26.873487-1.82057-.111541-4.84521 12.023076-2.8541c-23.352054-22.30105-17.635176-41.413425-5.763822-54.450926l4.995192 5.070294c-8.709479 10.761859-15.063098 24.724071 5.532263 44.392504l2.177947-12.016193 4.965056-.237033z" fill="url(#i)"/></g><path d="m83.521484 52.365234c-2.241916 1.526748-2.444397 3.253453-2.58789 5.50586a18.023867 18.023867 0 0 1 1.089844 6.128906 18.023867 18.023867 0 0 1 -18.023438 18.023438 18.023867 18.023867 0 0 1 -8.472656-2.123047c-1.549153.140929-2.870115.700581-3.097656 2.201171l-.06641 39.726558c.000284 2.9647 2.229278 5.45528 5.175781 5.78321 2.12802.23674 4.267173.36637 6.408204.38867.02018.00011.04037.00011.06055 0 16.75273-.00004 33.402076-6.89622 45.248047-18.74219 11.84597-11.84596 18.74215-28.495315 18.74219-45.248044v-.002c-.00089-2.139949-.10901-4.281053-.32422-6.410156-.30126-2.971175-2.80265-5.232047-5.78906-5.232422z" fill="url(#h)"/><path d="m86.460938 58.189453a23.217184 23.217184 0 0 1 .755859 5.810547 23.217184 23.217184 0 0 1 -23.216797 23.216797 23.217184 23.217184 0 0 1 -5.648438-.726563c-.05725.000628-.113538.000935-.169921.002v35.417976c1.836667.17035 4.110623.26896 5.792968.29492 32.145735-.0001 57.380751-26.053489 57.380861-58.199225.00011-1.942443-.097-3.883674-.29102-5.816406z" fill="url(#g)"/><path d="m86.472656 58.189453c.02891.138049.04928.277609.07617.416016a23.217184 23.217184 0 0 1 .667971 5.394531 23.217184 23.217184 0 0 1 -12.787109 20.736328c-.563177.50051-1.128667 1.009685-1.679688 1.47461 4.123866.151257 12.310921.198344 16.558594.11914 7.663943-.142904 20.739126-.691586 28.324216-1.554687 2.40068-6.452491 3.72263-13.449534 3.72266-20.769532.00011-1.942443-.097-3.883674-.29102-5.816406z" fill="url(#c)" opacity=".574257"/></g></svg>