<svg height="24" width="24" xmlns="http://www.w3.org/2000/svg" xmlns:xlink="http://www.w3.org/1999/xlink"><linearGradient id="a"><stop offset="0" stop-color="#c7cdd7"/><stop offset="1" stop-color="#fff"/></linearGradient><linearGradient id="b" gradientTransform="matrix(.22377866 0 0 .33350232 4.624644 22.86601)" gradientUnits="userSpaceOnUse" x1="46.048" x2="46.048" xlink:href="#a" y1="128.01709" y2="16.6203"/><linearGradient id="c"><stop offset="0" stop-color="#0968ef"/><stop offset="1" stop-color="#aecffc"/></linearGradient><linearGradient id="d" gradientUnits="userSpaceOnUse" x1="121.05164" x2="121.05164" y1="-40.916946" y2="98.914055"><stop offset="0" stop-color="#fff"/><stop offset="1" stop-color="#555"/></linearGradient><linearGradient id="e"><stop offset="0" stop-color="#fff"/><stop offset="1" stop-color="#fff" stop-opacity="0"/></linearGradient><linearGradient id="f"><stop offset="0" stop-color="#765c44"/><stop offset="1" stop-color="#765c44" stop-opacity="0"/></linearGradient><linearGradient id="g" xlink:href="#f"/><linearGradient id="h" gradientUnits="userSpaceOnUse" x1="304.88663" x2="345.62039" xlink:href="#g" y1="385.86127" y2="384.62384"/><linearGradient id="i" gradientTransform="matrix(.22377866 0 0 .33350232 4.624644 69.41081)" gradientUnits="userSpaceOnUse" x1="46.048" x2="46.048" xlink:href="#a" y1="128.01709" y2="16.6203"/><linearGradient id="j" gradientTransform="matrix(.22377866 0 0 .33350232 91.896144 46.13841)" gradientUnits="userSpaceOnUse" x1="46.048" x2="46.048" xlink:href="#a" y1="128.01709" y2="16.6203"/><linearGradient id="k" gradientTransform="matrix(.90630779 -.42261826 -.42261826 -.90630779 -3.041036 144.08325)" gradientUnits="userSpaceOnUse" x1="120.25623" x2="23.2724" xlink:href="#c" y1="65.292686" y2="64.0009"/><linearGradient id="l" gradientTransform="matrix(.90630779 .42261826 .42261826 -.90630779 -59.591843 99.385094)" gradientUnits="userSpaceOnUse" x1="120.25623" x2="23.2724" xlink:href="#c" y1="65.292686" y2="64.0009"/><linearGradient id="m" gradientUnits="userSpaceOnUse" x1="88.388141" x2="101.279286" xlink:href="#e" y1="51.615385" y2="113.914252"/><filter id="n" color-interpolation-filters="sRGB" height="1.024" width="1.024" x="-.012" y="-.012"><feGaussianBlur stdDeviation=".28192153"/></filter><radialGradient id="o" cx="50.424522" cy="-81.945961" gradientTransform="matrix(.30794145 .30794145 -.30794145 .30794145 50.133873 110.90745)" gradientUnits="userSpaceOnUse" r="50.15279"><stop offset="0" stop-color="#7ae91e" stop-opacity=".996078"/><stop offset="1" stop-color="#62c916"/></radialGradient><linearGradient id="p" gradientTransform="scale(1.0975951 .9110828)" gradientUnits="userSpaceOnUse" x1="26.091133" x2="31.500689" xlink:href="#e" y1="14.856744" y2="14.856744"/><filter id="q" height="1.277481" width="1.279832" x="-.139916" y="-.138741"><feGaussianBlur stdDeviation=".28784801"/></filter><linearGradient id="r" gradientUnits="userSpaceOnUse" x1="304.88663" x2="345.62039" xlink:href="#f" y1="385.86127" y2="384.62384"/><radialGradient id="s" cx="51.991096" cy="-78.028419" gradientTransform="matrix(.28232256 .33158686 -.56115095 .47778001 31.708291 122.93033)" gradientUnits="userSpaceOnUse" r="57.039597" xlink:href="#t"/><linearGradient id="t"><stop offset="0" stop-color="#011701"/><stop offset=".80671918" stop-color="#145703"/><stop offset="1" stop-color="#2fa207" stop-opacity=".384314"/></linearGradient><radialGradient id="u" cx="43.084476" cy="-121.92532" gradientTransform="matrix(.30347528 .31234377 -.3628951 .35259129 43.626055 116.16172)" gradientUnits="userSpaceOnUse" r="57.039597" xlink:href="#t"/><radialGradient id="v" cx="84.903702" cy="-130.14005" gradientTransform="matrix(.30794145 .30794145 -.30794145 .30794145 50.133874 110.90745)" gradientUnits="userSpaceOnUse" r="57.039597" xlink:href="#t"/><linearGradient id="w" gradientUnits="userSpaceOnUse" spreadMethod="reflect" x1="88.606247" x2="91.575104" y1="13.510336" y2="13.510336"><stop offset="0" stop-color="#c8ff87"/><stop offset="1" stop-color="#abff87" stop-opacity="0"/></linearGradient><radialGradient id="x" cx="84.903702" cy="-130.14005" gradientTransform="matrix(.04899496 -.04899496 .04899496 .04899496 27.763383 298.48358)" gradientUnits="userSpaceOnUse" r="57.039597" xlink:href="#y"/><linearGradient id="y"><stop offset="0" stop-color="#3a0b02"/><stop offset="1" stop-color="#a21d07" stop-opacity=".382353"/></linearGradient><radialGradient id="z" cx="2.720703" cy="-66.273438" gradientTransform="matrix(.04899496 -.04899496 .04899496 .04899496 27.763383 298.48358)" gradientUnits="userSpaceOnUse" r="57.039597" xlink:href="#y"/><radialGradient id="A" cx="51.991096" cy="-78.028419" gradientTransform="matrix(.04899496 -.04899496 .04899496 .04899496 27.763383 298.48358)" gradientUnits="userSpaceOnUse" r="57.039597" xlink:href="#y"/><linearGradient id="B" gradientTransform="scale(1.0975951 .9110828)" gradientUnits="userSpaceOnUse" x1="26.091133" x2="31.500689" xlink:href="#g" y1="14.856744" y2="14.856744"/><linearGradient id="C" gradientUnits="userSpaceOnUse" spreadMethod="reflect" x1="88.606247" x2="91.575104" y1="13.510336" y2="13.510336"><stop offset="0" stop-color="#ff8787"/><stop offset="1" stop-color="#ff8787" stop-opacity="0"/></linearGradient><linearGradient id="D" gradientUnits="userSpaceOnUse" spreadMethod="reflect" x1="31.606251" x2="34.575108" y1="13.510336" y2="13.510336"><stop offset="0" stop-color="#fff"/><stop offset="1" stop-color="#790000" stop-opacity="0"/></linearGradient><radialGradient id="E" cx="50.424522" cy="-81.945961" gradientTransform="matrix(.04899496 -.04899496 .04899496 .04899496 27.763382 298.48358)" gradientUnits="userSpaceOnUse" r="50.15279"><stop offset="0" stop-color="#db3424"/><stop offset="1" stop-color="#b32016"/></radialGradient><linearGradient id="F" gradientTransform="matrix(.04899496 -.04899496 .04899496 .04899496 27.763383 298.48358)" gradientUnits="userSpaceOnUse" x1="50.06789" x2="59.441998" y1="-154.40843" y2="-71.617722"><stop offset="0" stop-color="#fff"/><stop offset="1" stop-color="#fcf3f3" stop-opacity="0"/></linearGradient><g transform="matrix(.171875 0 0 .171875 1.000002 .99985)"><text x="552.36987" y="202.81038"><tspan fill="#555" x="552.36987" y="219.61037"/></text><text x="284.18808" y="202.81038"><tspan fill="#555" x="284.18808" y="219.61037"/></text><text x="-10.252362" y="133.87732"><tspan fill="#555" x="-10.252362" y="150.67731"/></text><text x="161.66467" y="-39.856026"><tspan fill="#555" x="161.66467" y="-23.056038"/></text><g transform="matrix(-1 0 0 1 122.1875 0)"><path d="m87.271484 49.554688v2.804687h.0098v20.458984h-.0098v.0098 2.802734h.0098v.0059h5.8125v-.0059h23.281216v.0059h5.8125v-26.082105zm5.822266 2.804687h23.28125v20.458984h-23.28125z" fill="url(#d)"/><path d="m93.0896 52.3647h23.2724v20.4543h-23.2724z" fill="url(#j)"/><g transform="translate(.0056 20.272003)"><path d="m5.8181 75.6371h23.2724v20.4543h-23.2724z" fill="url(#i)"/><path d="m0 72.828125v2.802734 17.460938 5.84375h5.8125 23.28125 5.8125.002v-2.84375h-.002v-20.460938h.002v-2.802734zm5.8125 2.802734h23.28125v20.460938h-23.28125z" fill="url(#d)"/></g><g transform="translate(0 -23.272975)"><path d="m5.8181 29.0923h23.2724v20.4543h-23.2724z" fill="url(#b)"/><path d="m0 26.28125v2.8125 17.453125 5.8125.0059h5.8125v-.0059h23.28125v.0059h5.8125v-.0059h.002v-2.8125h-.002v-20.453125h.002v-2.8125h-.002-5.8125-23.28125zm5.8125 2.8125h23.28125v20.453125h-23.28125z" fill="url(#d)"/></g></g><path d="m82.190143 30.517479-9.687325 20.591802-3.847728-1.400473 1.446653-10.339514-31.634006 14.761441-2.462774-5.281436 31.634006-14.761441-8.788471-5.405064 1.338496-3.980594 22.001128 5.815234z" fill="url(#k)"/><path d="m82.19013 91.677293-22.001128 5.815232-1.400447-3.847736 8.850418-5.537911-31.641867-14.744583 2.462757-5.2814 31.641868 14.744583-1.508601-10.206666 3.909679-1.53333 9.687325 20.591803z" fill="url(#l)"/><rect fill="#145603" height="34.9086" ry="1.25" width="11.6362" x="104.64565" y="46.5466"/><rect fill="#145603" height="11.6362" rx="2.740039" ry="1.856155" width="34.9086" x="93.009445" y="58.1828"/><g transform="matrix(.5477761 0 0 .5477761 57.848897 11.416917)"><path d="m127.39616 90.582952c.00005-1.656397-1.34274-2.99918-2.99913-2.999132h-19.88392v-19.884771c.00005-1.656396-1.34274-2.99918-2.99913-2.999132l-10.617747.000005c-1.656393-.000048-2.999178 1.342735-2.999131 2.999127v19.884771h-19.883921c-1.656396-.000048-2.99918 1.342735-2.999132 2.999132v10.617738c-.000048 1.6564 1.342736 2.99918 2.999132 2.99913h19.883921v19.88392c-.00005 1.6564 1.342736 2.99918 2.999132 2.99913h10.617746c1.65639.00005 2.99918-1.34273 2.99913-2.99913v-19.88392h19.88392c1.6564.00005 2.99918-1.34274 2.99913-2.99913z" fill="#1f5623" fill-opacity=".905882"/><path d="m127.39616 90.582952c.00005-1.656397-1.34274-2.99918-2.99913-2.999132h-19.88392v-19.884771c.00005-1.656396-1.34274-2.99918-2.99913-2.999132l-10.617747.000005c-1.656393-.000048-2.999178 1.342735-2.999131 2.999127v19.884771h-19.883921c-1.656396-.000048-2.99918 1.342735-2.999132 2.999132v10.617738c-.000048 1.6564 1.342736 2.99918 2.999132 2.99913h19.883921v19.88392c-.00005 1.6564 1.342736 2.99918 2.999132 2.99913h10.617746c1.65639.00005 2.99918-1.34273 2.99913-2.99913v-19.88392h19.88392c1.6564.00005 2.99918-1.34274 2.99913-2.99913z" fill="url(#v)"/><path d="m127.39616 90.582952c.00005-1.656397-1.34274-2.99918-2.99913-2.999132h-19.88392v-19.884771c.00005-1.656396-1.34274-2.99918-2.99913-2.999132l-10.617747.000005c-1.656393-.000048-2.999178 1.342735-2.999131 2.999127v19.884771h-19.883921c-1.656396-.000048-2.99918 1.342735-2.999132 2.999132v10.617738c-.000048 1.6564 1.342736 2.99918 2.999132 2.99913h19.883921v19.88392c-.00005 1.6564 1.342736 2.99918 2.999132 2.99913h10.617746c1.65639.00005 2.99918-1.34273 2.99913-2.99913v-19.88392h19.88392c1.6564.00005 2.99918-1.34274 2.99913-2.99913z" fill="#066704"/><path d="m127.39616 90.582952c.00005-1.656397-1.34274-2.99918-2.99913-2.999132h-19.88392v-19.884771c.00005-1.656396-1.34274-2.99918-2.99913-2.999132l-10.617747.000005c-1.656393-.000048-2.999178 1.342735-2.999131 2.999127v19.884771h-19.883921c-1.656396-.000048-2.99918 1.342735-2.999132 2.999132v10.617738c-.000048 1.6564 1.342736 2.99918 2.999132 2.99913h19.883921v19.88392c-.00005 1.6564 1.342736 2.99918 2.999132 2.99913h10.617746c1.65639.00005 2.99918-1.34273 2.99913-2.99913v-19.88392h19.88392c1.6564.00005 2.99918-1.34274 2.99913-2.99913z" fill="url(#u)"/><path d="m127.39616 90.582952c.00005-1.656397-1.34274-2.99918-2.99913-2.999132h-19.88392v-19.884771c.00005-1.656396-1.34274-2.99918-2.99913-2.999132l-10.617747.000005c-1.656393-.000048-2.999178 1.342735-2.999131 2.999127v19.884771h-19.883921c-1.656396-.000048-2.99918 1.342735-2.999132 2.999132v10.617738c-.000048 1.6564 1.342736 2.99918 2.999132 2.99913h19.883921v19.88392c-.00005 1.6564 1.342736 2.99918 2.999132 2.99913h10.617746c1.65639.00005 2.99918-1.34273 2.99913-2.99913v-19.88392h19.88392c1.6564.00005 2.99918-1.34274 2.99913-2.99913z" fill="url(#s)"/><g fill-rule="evenodd" transform="translate(-.000004 .000002)"><path d="m31.7 16 2.875-3.375c-1.051205-1.695758-3.935136-2.288018-5.9375-.3125l2.8125 3.375z" fill="url(#p)" filter="url(#q)" opacity=".498127" transform="matrix(-.64954358 .64954358 .6557809 .6557809 80.344203 61.100228)"/><path d="m31.7 16 2.875-3.375c-1.051205-1.695758-3.935136-2.288018-5.9375-.3125l2.8125 3.375z" fill="url(#p)" filter="url(#q)" opacity=".790262" transform="matrix(-.6476361 -.6476361 .64147625 -.64147625 102.80882 152.77126)"/><path d="m31.7 16 2.875-3.375c-1.051205-1.695758-3.935136-2.288018-5.9375-.3125l2.8125 3.375z" fill="url(#r)" filter="url(#q)" opacity=".498127" transform="matrix(-.58819378 .58819378 -.59384198 -.59384198 128.42011 113.04167)"/><path d="m88.7 16 2.875-3.375c-1.051205-1.695758-3.935136-2.288018-5.9375-.3125l2.8125 3.375z" fill="url(#w)" filter="url(#q)" opacity=".790262" transform="matrix(-.59384198 -.59384198 .58819378 -.58819378 112.80265 161.75846)"/><path d="m31.7 16 2.875-3.375c-1.051205-1.695758-3.935136-2.288018-5.9375-.3125l2.8125 3.375z" fill="url(#D)" filter="url(#q)" opacity=".790262" transform="matrix(-.54004786 -.54004786 -.53491131 .53491131 148.63874 100.16245)"/><path d="m88.7 16 2.875-3.375c-1.051205-1.695758-3.935136-2.288018-5.9375-.3125l2.8125 3.375z" fill="url(#w)" filter="url(#q)" opacity=".790262" transform="matrix(-.55444337 -.55444337 -.5491699 .5491699 158.16646 109.42078)"/></g><path d="m124.39703 90.582952h-22.88305v-22.883898l-10.617745-.000005-.000001 22.883903h-22.883053v10.617738h22.883053v22.88305h10.617746v-22.88305h22.88305z" fill="url(#o)"/><path d="m101.51439 67.699141-10.617969-.000005v22.884181l-22.88358-.000435v10.617968h22.882978l.000001 22.88297h10.61797v-22.88297l22.88298-.00001-.00001-10.617954h-22.88297zm-.75422.754216-.00061 22.129359c-.00004.41656.33766.754256.75422.754217h22.12876v9.109527h-22.12876c-.41656-.00004-.75426.33766-.75422.75422v22.12876h-9.109534v-22.12876c.00004-.41656-.337657-.75426-.754216-.75422h-22.128761v-9.109532l22.129363.000436c.416558.000039.754257-.337657.754216-.754216v-22.129961z" fill="#eef4ca" fill-opacity=".779412" filter="url(#n)"/><path d="m90.89648 67.699221v22.882812h-22.882813v6.925781a65.433395 38.789856 0 0 0 17.794923 1.498047 65.433395 38.789856 0 0 0 38.58789-7.521484v-.902344h-22.88281v-22.882812z" fill="url(#m)"/></g><g transform="matrix(4.0619601 4.0619601 -4.0619601 4.0619601 1102.4573 -1180.5958)"><path d="m24.529657 285.13245c-.26354-.00001-.477184.21364-.477176.47718v4.22195h-4.222095c-.263541 0-.477184.21364-.477177.47718l.000001 1.68933c-.000008.26354.213636.47719.477176.47718h4.222095v4.22196c-.000008.26354.213636.47718.477176.47717h1.689334c.263541.00001.477184-.21363.477176-.47717v-4.22196h4.22196c.26354.00001.477184-.21364.477176-.47718v-1.68933c.000008-.26354-.213636-.47718-.477176-.47718h-4.22196v-4.22195c.000008-.26354-.213636-.47719-.477177-.47718z" fill="url(#x)"/><path d="m24.529657 285.13245c-.26354-.00001-.477184.21364-.477176.47718v4.22195h-4.222095c-.263541 0-.477184.21364-.477177.47718l.000001 1.68933c-.000008.26354.213636.47719.477176.47718h4.222095v4.22196c-.000008.26354.213636.47718.477176.47717h1.689334c.263541.00001.477184-.21363.477176-.47717v-4.22196h4.22196c.26354.00001.477184-.21364.477176-.47718v-1.68933c.000008-.26354-.213636-.47718-.477176-.47718h-4.22196v-4.22195c.000008-.26354-.213636-.47719-.477177-.47718z" fill="url(#z)"/><path d="m24.529657 285.13245c-.26354-.00001-.477184.21364-.477176.47718v4.22195h-4.222095c-.263541 0-.477184.21364-.477177.47718l.000001 1.68933c-.000008.26354.213636.47719.477176.47718h4.222095v4.22196c-.000008.26354.213636.47718.477176.47717h1.689334c.263541.00001.477184-.21363.477176-.47717v-4.22196h4.22196c.26354.00001.477184-.21364.477176-.47718v-1.68933c.000008-.26354-.213636-.47718-.477176-.47718h-4.22196v-4.22195c.000008-.26354-.213636-.47719-.477177-.47718z" fill="url(#A)"/><path d="m24.529657 285.13245c-.26354-.00001-.477184.21364-.477176.47718v4.22195h-4.222095c-.263541 0-.477184.21364-.477177.47718l.000001 1.68933c-.000008.26354.213636.47719.477176.47718h4.222095v4.22196c-.000008.26354.213636.47718.477176.47717h1.689334c.263541.00001.477184-.21363.477176-.47717v-4.22196h4.22196c.26354.00001.477184-.21364.477176-.47718v-1.68933c.000008-.26354-.213636-.47718-.477176-.47718h-4.22196v-4.22195c.000008-.26354-.213636-.47719-.477177-.47718z" fill="#56331f" fill-opacity=".905882"/><g fill-rule="evenodd"><path d="m31.7 16 2.875-3.375c-1.051205-1.695758-3.935136-2.288018-5.9375-.3125l2.8125 3.375z" fill="url(#B)" filter="url(#q)" opacity=".498127" transform="matrix(.1033455 .1033455 .10433789 -.10433789 19.838814 294.77189)"/><path d="m31.7 16 2.875-3.375c-1.051205-1.695758-3.935136-2.288018-5.9375-.3125l2.8125 3.375z" fill="url(#p)" filter="url(#q)" opacity=".790262" transform="matrix(-.10304201 .10304201 -.10206195 -.10206195 35.519028 290.10275)"/><path d="m31.7 16 2.875-3.375c-1.051205-1.695758-3.935136-2.288018-5.9375-.3125l2.8125 3.375z" fill="url(#h)" filter="url(#q)" opacity=".498127" transform="matrix(.09358445 .09358445 -.09448311 .09448311 29.197858 286.02787)"/><path d="m88.7 16 2.875-3.375c-1.051205-1.695758-3.935136-2.288018-5.9375-.3125l2.8125 3.375z" fill="url(#C)" filter="url(#q)" opacity=".790262" transform="matrix(-.09448311 .09448311 -.09358445 -.09358445 35.854021 289.60759)"/><path d="m31.7 16 2.875-3.375c-1.051205-1.695758-3.935136-2.288018-5.9375-.3125l2.8125 3.375z" fill="url(#D)" filter="url(#q)" opacity=".790262" transform="matrix(-.08592421 .08592421 .08510696 .08510696 26.0538 281.71607)"/><path d="m88.7 16 2.875-3.375c-1.051205-1.695758-3.935136-2.288018-5.9375-.3125l2.8125 3.375z" fill="url(#C)" filter="url(#q)" opacity=".790262" transform="matrix(-.0882146 .0882146 .08737557 .08737557 26.431933 281.29508)"/></g><path d="m24.529657 285.60963v4.69913h-4.699271v1.68933h4.699271v4.69914h1.689334v-4.69914h4.699136v-1.68933h-4.699136l-.000001-4.69913z" fill="url(#E)"/><path d="m19.8304 290.30869-.000001 1.68937h4.699316l-.000069 4.69922h1.68937v-4.69912h4.699124v-1.68937h-4.699124l-.000001-4.69912h-1.689368v4.69912zm.12.12 4.57922.0001c.06628.00001.120006-.0537.119999-.12v-4.57912h1.44937v4.57912c-.000006.0663.05372.12001.12.12h4.579124v1.44937h-4.579124c-.06628-.00001-.120006.0537-.12.12v4.57912h-1.44937l.000069-4.57921c.000006-.0663-.05372-.12001-.12-.12h-4.579315z" fill="#f4caca" fill-opacity=".779412"/><path d="m19.8304 290.30869-.000001 1.68937h4.699316v.96754c.63875-.89522 1.64386-2.06887 1.87767-2.65634l-.188396-.00047-.000001-4.69912h-1.689368v4.69912z" fill="url(#F)" fill-rule="evenodd"/></g></g></svg>