<svg enable-background="new 0 0 128 128" height="24" viewBox="0 0 24 24" width="24" xmlns="http://www.w3.org/2000/svg" xmlns:xlink="http://www.w3.org/1999/xlink"><radialGradient id="a" cx="16.933332" cy="292.76666" gradientTransform="matrix(1 0 0 .32 0 199.08133)" gradientUnits="userSpaceOnUse" r="13.229166"><stop offset="0" stop-color="#818181"/><stop offset="1" stop-color="#818181" stop-opacity="0"/></radialGradient><filter id="b" color-interpolation-filters="sRGB" height="1.099" width="1.03168" x="-.01584" y="-.0495"><feGaussianBlur stdDeviation=".17462499"/></filter><clipPath id="c"><circle cx="241.02888" cy="62.757114" r="56.358574"/></clipPath><radialGradient id="d" cx="253.321" cy="66.658485" gradientTransform="matrix(1 0 0 1.0903226 0 -6.020769)" gradientUnits="userSpaceOnUse" r="27.400387"><stop offset="0" stop-color="#fff"/><stop offset="1" stop-color="#fff" stop-opacity="0"/></radialGradient><filter id="e" color-interpolation-filters="sRGB"><feGaussianBlur stdDeviation="2.2118645"/></filter><linearGradient id="f" gradientUnits="userSpaceOnUse" x1="240.05066" x2="228.19365" y1="24.920795" y2="69.171783"><stop offset="0" stop-color="#0f0"/><stop offset="1" stop-color="#0f0" stop-opacity="0"/></linearGradient><filter id="g" color-interpolation-filters="sRGB" height="1.321594" width="1.235453" x="-.117726" y="-.160797"><feGaussianBlur stdDeviation="5.8271635"/></filter><linearGradient id="h" gradientUnits="userSpaceOnUse" x1="295.57062" x2="262.89542" y1="67.719147" y2="58.963852"><stop offset="0" stop-color="#ff0c0c"/><stop offset="1" stop-color="#f00000"/></linearGradient><filter id="i" color-interpolation-filters="sRGB" height="1.432307" width="1.706359" x="-.353179" y="-.216154"><feGaussianBlur stdDeviation="5.8271635"/></filter><radialGradient id="j" cx="258.32312" cy="88.262062" gradientTransform="matrix(1.1510082 -.66453489 .35977962 .62315659 -73.821372 213.90449)" gradientUnits="userSpaceOnUse" r="41.365746"><stop offset="0" stop-color="#ff0cec"/><stop offset="1" stop-color="#ff0cec" stop-opacity="0"/></radialGradient><filter id="k" color-interpolation-filters="sRGB" height="1.565087" width="1.338086" x="-.169043" y="-.282544"><feGaussianBlur stdDeviation="5.8271635"/></filter><radialGradient id="l" cx="276.30197" cy="61.70874" fx="279.1304" fy="71.516762" gradientTransform="matrix(2.1404584 0 0 1.7746318 -315.1109 -47.801551)" gradientUnits="userSpaceOnUse" r="28.961044"><stop offset="0" stop-color="#ff980c"/><stop offset="1" stop-color="#ff980c" stop-opacity="0"/></radialGradient><filter id="m" color-interpolation-filters="sRGB" height="1.594829" width="1.49138" x="-.24569" y="-.297414"><feGaussianBlur stdDeviation="5.8271635"/></filter><radialGradient id="n" cx="223.7993" cy="64.006836" gradientTransform="matrix(1.7198557 0 0 1.8516856 -161.10321 -54.513697)" gradientUnits="userSpaceOnUse" r="41.512196"><stop offset="0" stop-color="#00ffe6"/><stop offset="1" stop-color="#00ffe6" stop-opacity="0"/></radialGradient><filter id="o" color-interpolation-filters="sRGB" height="1.316449" width="1.276715" x="-.138358" y="-.158224"><feGaussianBlur stdDeviation="5.8271635"/></filter><radialGradient id="p" cx="226.29558" cy="102.51125" gradientTransform="matrix(1.320262 .7622536 -.93961452 1.6274601 26.300653 -229.36669)" gradientUnits="userSpaceOnUse" r="32.880466"><stop offset="0" stop-color="#002aff"/><stop offset="1" stop-color="#002aff" stop-opacity="0"/></radialGradient><filter id="q" color-interpolation-filters="sRGB" height="1.380266" width="1.425335" x="-.212667" y="-.190133"><feGaussianBlur stdDeviation="5.8271635"/></filter><radialGradient id="r" cx="257.91721" cy="51.729225" gradientTransform="matrix(.8660254 .5 -1.3425161 2.325306 104.00167 -192.13233)" gradientUnits="userSpaceOnUse" r="25.27907"><stop offset="0" stop-color="#f5ff00"/><stop offset="1" stop-color="#f5ff00" stop-opacity=".152466"/></radialGradient><filter id="s" color-interpolation-filters="sRGB" height="1.325565" width="1.553232" x="-.276616" y="-.162782"><feGaussianBlur stdDeviation="5.8271635"/></filter><linearGradient id="t" gradientTransform="matrix(.70509068 0 0 .55404079 4.993799 119.39617)" gradientUnits="userSpaceOnUse" x1="16.933332" x2="16.933332" y1="265.96365" y2="281.125"><stop offset="0" stop-color="#faf8fe"/><stop offset="1" stop-color="#faf8fe" stop-opacity="0"/></linearGradient><mask id="u" maskUnits="userSpaceOnUse"><path d="m64 7.9375a56.063463 56.063463 0 0 0 -56.0625 56.0625 56.063463 56.063463 0 0 0 56.0625 56.0625 56.063463 56.063463 0 0 0 56.0625-56.0625 56.063463 56.063463 0 0 0 -56.0625-56.0625zm0 5.554688a50.507625 50.507625 0 0 1 50.50781 50.507812 50.507625 50.507625 0 0 1 -50.50781 50.50781 50.507625 50.507625 0 0 1 -50.507812-50.50781 50.507625 50.507625 0 0 1 50.507812-50.507812z" fill="#4b4b4b" fill-opacity=".970588" filter="url(#v)"/></mask><filter id="v" color-interpolation-filters="sRGB" height="1.072" width="1.072" x="-.036" y="-.036"><feGaussianBlur stdDeviation="1.681875"/></filter><linearGradient id="w" gradientUnits="userSpaceOnUse" x1="78.610847" x2="120.3435" y1="88.852417" y2="111.54715"><stop offset="0" stop-color="#fff"/><stop offset="1" stop-color="#ccc"/></linearGradient><linearGradient id="x" gradientUnits="userSpaceOnUse" x1="88.38102" x2="130.48599" y1="1008.9966" y2="1015.6953"><stop offset="0" stop-color="#7b7b7b"/><stop offset="1" stop-color="#797979" stop-opacity="0"/></linearGradient><clipPath id="y"><path d="m41.355614 933.74432h83.943996v117.52168h-83.943996z"/></clipPath><filter id="z" color-interpolation-filters="sRGB" height="1.073732" width="1.13754" x="-.06877" y="-.036866"><feGaussianBlur stdDeviation="1.0557314"/></filter><linearGradient id="A" gradientUnits="userSpaceOnUse" x1="100.83452" x2="116.42799" y1="37.992622" y2="80.92411"><stop offset="0" stop-color="#fff" stop-opacity=".683453"/><stop offset="1" stop-color="#fff" stop-opacity="0"/></linearGradient><linearGradient id="B" gradientTransform="matrix(.58291629 0 0 .66676377 62.177025 -566.68964)" gradientUnits="userSpaceOnUse" x1="63.011921" x2="63.011921" y1="945.89801" y2="1033.1569"><stop offset="0" stop-color="#545454" stop-opacity=".988"/><stop offset="1" stop-color="#ebebeb"/></linearGradient><linearGradient id="C" gradientTransform="matrix(.48045402 0 0 .66178602 128.73476 -578.51587)" gradientUnits="userSpaceOnUse" x1="-60.535713" x2="-60.357143" y1="979.50507" y2="1009.505"><stop offset="0" stop-color="#979797"/><stop offset=".148461" stop-color="#f6f6f6"/><stop offset=".28399727" stop-color="#e2e2e2"/><stop offset=".41198727" stop-color="#dedede"/><stop offset=".41198727" stop-color="#f6f6f6"/><stop offset="1" stop-color="#6b6b6b"/></linearGradient><linearGradient id="D" gradientTransform="matrix(.480454 0 0 .58309338 128.76683 499.76645)" gradientUnits="userSpaceOnUse" x1="-61.078979" x2="-60.6413" y1="-1056.658" y2="-1010.9131"><stop offset="0" stop-color="#777"/><stop offset=".18176934" stop-color="#a8a8a8"/><stop offset=".22864534" stop-color="#cdcdcd"/><stop offset=".34561315" stop-color="#f7f7f7"/><stop offset="1" stop-color="#fff"/></linearGradient><linearGradient id="E" gradientUnits="userSpaceOnUse" x1="98.9077" x2="98.9077" y1="46.5466" y2="162.9086"><stop offset="0" stop-color="#99999c"/><stop offset=".5" stop-color="#9c9ca1"/><stop offset="1" stop-color="#cdcdd1"/></linearGradient><g transform="matrix(.72734994 0 0 .72734994 -.316461 -192.275626)"><ellipse cx="16.933332" cy="292.76666" fill="url(#a)" filter="url(#b)" rx="13.229166" ry="4.233333"/><g clip-path="url(#c)" transform="matrix(.25424787 0 0 .25424787 -44.347744 264.08548)"><ellipse cx="253.321" cy="66.658485" fill="url(#d)" filter="url(#e)" opacity=".8" rx="27.400387" ry="29.875261"/><path d="m277.53941 34.308352c-.35355 1.767766-24.39518 35.001785-24.39518 35.001785l-94.39876-32.880465 42.07286-54.093669c29.88933.870742 61.38224-4.372162 76.72108 51.972349z" fill="url(#f)" filter="url(#g)"/><path d="m288.85312 38.197439c-.70711 2.828427-14.84924 64.700271-14.84924 64.700271l39.59798-2.47487-4.5962-61.164741z" fill="url(#h)" filter="url(#i)"/><path d="m306.53079 90.876894-30.05204-15.909903-32.17336 2.828428s-10.25305 7.778174-10.25305 9.545941-10.25304 35.00179-10.25304 35.00179l29.69848 2.12132z" fill="url(#j)" filter="url(#k)"/><path d="m276.83231 26.883731-28.99138 58.336309 28.30508-4.449748 28.61701-25.248737z" fill="url(#l)" filter="url(#m)"/><path d="m182.65106-3.8858218c24.57537 16.7031288 50.42777 30.4265148 71.26094 55.8614348l-9.60661 32.890873-33.58757 23.334524c-56.40553-27.91019-57.27604-81.354175-28.06676-112.0868318z" fill="url(#n)" filter="url(#o)"/><path d="m246.42671 72.492118c-3.53553-.707107-65.76093 22.627417-65.76093 22.627417l5.65686 50.911685 56.92209-1.06066z" fill="url(#p)" filter="url(#q)"/><path d="m267.63992 1.0743328c-1.06066 2.8284271-25.45585 85.9134742-25.45585 85.9134742l50.55814-61.51829z" fill="url(#r)" filter="url(#s)"/><path d="m306.53079 90.876894-30.05204-15.909903c-9.76108-4.355727-17.6584-.962169-28.67336 1.578428 0 0-13.75305 9.028174-13.75305 10.795941s-10.25304 35.00179-10.25304 35.00179l29.69848 2.12132z" fill="url(#j)" filter="url(#k)" opacity=".483471"/><path d="m172.15106 3.6141782 82.76094 42.3614348-10.60661 38.890873-33.58757 23.334524c-56.40553-27.91019-67.77604-73.854175-38.56676-104.5868318z" fill="url(#n)" filter="url(#o)" opacity=".280992"/><path d="m267.63992 1.0743328c-1.06066 2.8284271-25.45585 85.9134742-25.45585 85.9134742l50.55814-61.51829z" fill="url(#r)" filter="url(#s)" opacity=".396694"/><ellipse cx="253.321" cy="66.658485" fill="url(#d)" filter="url(#e)" opacity=".301653" rx="27.400387" ry="29.875261"/></g><ellipse cx="16.933332" cy="274.56451" fill="url(#t)" rx="9.374036" ry="7.365858"/><path d="m64 7.9375c-30.962243.0005318-56.0619682 25.100257-56.0625 56.0625.0005318 30.962243 25.100257 56.06197 56.0625 56.0625 30.962243-.00053 56.06197-25.100257 56.0625-56.0625-.00053-30.962243-25.100257-56.0619682-56.0625-56.0625z" fill="#2d2d2d" mask="url(#u)" transform="matrix(.25558617 0 0 .25558617 .575818 263.68383)"/></g><g transform="matrix(.171875 0 0 .171875 2.00031 1.99999)"><path d="m69.8172 46.546616h58.181v81.453444h-58.181z" fill="url(#E)"/><path d="m75.6353 52.3647h46.5448v69.81722h-46.5448z" fill="url(#w)"/><path clip-path="url(#y)" d="m92.81509 1029.6319c1.071428 1.4286 10.71429 15.3572 11.78571 13.5715 1.07143-1.7858 26.42857-25.3572 25-26.7858-1.42857-1.4285-33.928567-41.78567-33.928567-41.78567z" fill="url(#x)" fill-rule="evenodd" filter="url(#z)" opacity=".68" transform="matrix(.69309305 0 0 .69309305 41.153912 -600.6251)"/><path d="m75.6353 52.3647v47.28063c14.171661-16.500095 33.53848-23.157342 46.54439-25.022283v-22.257813z" fill="url(#A)" fill-rule="evenodd"/><path d="m87.2715 64.0009h23.2724v46.5448h-23.2724z" fill="url(#B)"/><path d="m89.925598 66.798828h17.686732v41.164682h-17.686732z" fill="#535353"/><path d="m93.0896 69.819h11.6362v17.4543h-11.6362z" fill="url(#C)"/><path d="m93.0896-116.3638h11.6362v29.0905h-11.6362z" fill="url(#D)" transform="scale(1 -1)"/></g></svg>