<svg height="24" viewBox="0 0 6.3499999 6.3500002" width="24" xmlns="http://www.w3.org/2000/svg" xmlns:xlink="http://www.w3.org/1999/xlink"><linearGradient id="a" gradientUnits="userSpaceOnUse" x1="-29.248074" x2="-29.248074" y1="-297" y2="-280.06689"><stop offset="0" stop-color="#0968ef"/><stop offset="1" stop-color="#aecffc"/></linearGradient><g transform="matrix(.171875 0 0 .171875 .264584 -44.961457)"><g fill="#4d4d4d"><path d="m7.696861 290.84253h21.551214v1.53937h-21.551214z" opacity=".99"/><path d="m26.169462 267.75219v1.53893c1.705625 0 3.078366 1.91757 3.078366 4.29948v1.37511c0 2.3819-1.372741 5.06918-3.078366 5.06918v.032 1.50946h.000529c1.430988 0 2.65862-.8201 3.431835-1.90065.773213-1.08055 1.187008-3.22398 1.187008-4.71107v-1.37459c0-1.48708-.413592-2.85966-1.187008-3.93981s-2.001432-1.90014-3.431835-1.90014c-20.6843392-.00023-20.6567786.002-.000529.002z" fill-opacity=".992157" opacity=".99"/><path d="m7.6968617 280.06693v1.53944h18.4724673v-1.53944z" opacity=".99"/><path d="m4.618117 267.75195h21.55121v1.53937h-21.55121z" opacity=".99"/><g fill-opacity=".992157"><path d="m7.6968617 280.06906v1.53892c-1.705625 0-3.0783659 1.14788-3.0783659 3.52978v1.37511c0 2.38191 1.3727409 4.29948 3.0783659 4.29948v.032 1.50947h-.0005291c-1.4309871 0-2.6586198-.82011-3.4318328-1.90066s-1.187008-2.45427-1.187008-3.94136v-1.37459c0-1.48708.4135911-2.08997 1.1870081-3.17012.773414-1.08015 2.0014309-1.90014 3.4318329-1.90014l.0005292.002z" opacity=".99"/><path d="m0 268.52114 9.242082-5.38782-2.627498 5.38782 2.627498 5.38779z" fill-rule="evenodd"/></g></g><path d="m-33.866665-297h9.236708v9.23671h-9.236708z" fill="url(#a)" opacity=".99" transform="scale(-1)"/></g></svg>