<svg height="24" viewBox="0 0 24 24" width="24" xmlns="http://www.w3.org/2000/svg" xmlns:xlink="http://www.w3.org/1999/xlink"><linearGradient id="a" gradientUnits="userSpaceOnUse" x1="72" x2="72" y1="128" y2="0"><stop offset="0" stop-color="#fff"/><stop offset=".59375" stop-color="#fff"/><stop offset=".84375" stop-color="#f1f1f1"/><stop offset=".90625" stop-color="#eaeaea"/><stop offset="1" stop-color="#dfdfdf"/></linearGradient><linearGradient id="b" gradientUnits="userSpaceOnUse" x1="5.822266" x2="122.17578" y1="64.000771" y2="64.000771"><stop offset="0" stop-color="#b4b4b6"/><stop offset=".5" stop-color="#9c9ca1"/><stop offset="1" stop-color="#cdcdd1"/></linearGradient><g transform="matrix(.171875 0 0 .171875 1 1)"><path d="m11.636719 5.8242188a5.8151495 5.8151495 0 0 0 -5.8144534 5.8144532v75.634766a5.8151495 5.8151495 0 0 0 5.8144534 5.814453h18.818359l-12.169922 20.283199a5.8151495 5.8151495 0 0 0 8.708985 7.45899l33.292968-27.742189h56.074221a5.8151495 5.8151495 0 0 0 5.81445-5.814453v-75.634766a5.8151495 5.8151495 0 0 0 -5.81445-5.8144532z" fill="url(#b)"/><path d="m11.6362 11.638v75.6353h29.0905l-17.4543 29.0905 34.9086-29.0905h58.181v-75.6353z" fill="url(#a)"/></g></svg>