<svg height="24" width="24" xmlns="http://www.w3.org/2000/svg" xmlns:xlink="http://www.w3.org/1999/xlink"><linearGradient id="a" gradientTransform="matrix(.18269429 0 0 .24456788 .02595 104.43402)" gradientUnits="userSpaceOnUse" x1="46.048" x2="46.048" y1="128.01709" y2="16.6203"><stop offset="0" stop-color="#c7cdd7"/><stop offset="1" stop-color="#fff"/></linearGradient><linearGradient id="b" gradientUnits="userSpaceOnUse" x1="20.80606" x2="20.80606" y1="-1.999943" y2="20.999734"><stop offset="0" stop-color="#fff"/><stop offset="1" stop-color="#555"/></linearGradient><linearGradient id="c" gradientUnits="userSpaceOnUse" x1="64" x2="64" y1="108" y2="7.636364"><stop offset="0" stop-color="#fff"/><stop offset="1" stop-color="#d8d8d8"/></linearGradient><g transform="translate(0 -104)"><path d="m1.000295 108.99995h21.999704v15.000053h-21.999704z" fill="url(#a)"/><path d="m.000309 119.9998h20.999704v.999986h-20.999704z" fill="#fff" opacity=".650718"/><path d="m18 4h-12.0019531-.9980469l-4 .00391h-1v.9980431 2.9980469.9980469 3.0019531 1 2.996094.0059.994141.0098 2.992188 1.003906h1l4-.0039h.9980469l11.0019531.0039h.998047l5.003906-.002029h.998047v-1.005859-2.990235-9.0078122-3.9960938h-5zm0 1v2.9960938h-12.0019531v-2.9980469zm1 0h4.001953v2.9960938h-4.001953zm-18 .00195 4-.00391v2.9980538l-4 .0039062zm17 3.9941438v3.0019532.001953l-12.0019531-.003906v-3.0019533zm1 0h4.001953v3.0019532h-4.001953zm-18 .00195 4-.00391v3.0019602l-4 .003906zm18 3.9980471h4.001953v2.998047h-4.001953zm-18 .0039091 4-.0039v2.996094l-4 .0039zm4.9980469-.003906 12.0019531.003906v2.994141.0039l-12.0019531-.000006v-.0059zm12.0019531 4.007812v2.992188l-12.0019531-.001906v-2.992188zm1 0h4.001953v2.992188h-4.001953zm-18 .002 4-.0039v2.992188l-4 .0039z" fill="url(#b)" transform="translate(0 104)"/><g transform="matrix(.19999999 0 0 .19999999 -2.199999 90.600001)"><path d="m40.999996 152h60.000004v14.999997h-60.000004z" fill="#c6e0f2"/><path d="m35.999997 147v5 15 5h70.000003v-5-15-5h-5-60.000003zm5 5h60.000003v15h-60.000003z" fill="#358deb"/><path d="m35.999997 127v4l-.000003 16 .000003 5h70.000003v-4-17-4h-4-61zm5.000003 4 60 1v15h-60.000003z" fill="#d92d9b"/><path d="m40.999996 132h60.000004v14.999998h-60.000004z" fill="#f2c6e8"/><path d="m40.999996 112h60.000004v14.999999h-60.000004z" fill="#f2e3c6"/></g><path d="m4.9999999 112v.82353 3.29411.82353l14.0000001.05883v-.82353-3.29411-.82353h-1l-12.1764706-.05883zm1 1 12.0000001.0588v3l-12.0000001-.0588z" fill="#eb8416"/><path d="m6 109h12v3h-12z" fill="#c6d8f2"/><path d="m4.9999999 108v.83333 3.33333.83334h14.0000001v-.83334-3.33333-.83333h-.833333-12.3333343zm1 1h12.0000001v3h-12.0000001z" fill="#0d67eb"/><g fill="#8b7c8e"><ellipse cx="15.993773" cy="110.49953" rx="1.00628" ry="1.000421"/><ellipse cx="15.993773" cy="114.49953" rx="1.00628" ry="1.000421"/><ellipse cx="15.993773" cy="118.49953" rx="1.00628" ry="1.000421"/><ellipse cx="15.993773" cy="122.49953" rx="1.00628" ry="1.000421"/></g></g><g transform="matrix(.171875 0 0 .171875 2 2.6875)"><path d="m34.909091 36.727273v87.272727h4 85.090909 4v-4-79.272727-4h-4-85.090909zm5.818182 5.818182h81.454547v75.636365h-81.454547z" fill="#808080"/><path d="m40.727273 42.545455v75.636365h81.454547v-75.636365z" fill="url(#c)"/><g fill="#666" transform="matrix(1.6561141 0 0 1.6561141 -76.446366 -51.224066)"><path d="m77.825948 68.766312 12.685456 4.697388v3.639078l-16.576203-7.036794v-2.710746l16.576203-7.018236v3.639087z"/><path d="m115.31361 76.259044h-10.76034l-2.87754 4.530285-1.925103-1.095435 2.188543-3.43485h-3.525987v-2.970675h5.410567l3.13071-6.07041h-8.429953v-2.989251h10.334793l3.10044-4.864491 1.92511 1.095444-2.41146 3.769047h3.95154v2.989251h-5.85638l-3.11043 6.07041h8.85549z"/><path d="m91.912757 90.148401h-16.900431v-2.989251h16.900431zm0 7.705193h-16.900431v-2.970671h16.900431z"/><path d="m111.36998 91.10687-13.394707-4.808781v-3.527685l17.305717 7.018236v2.710746l-17.305717 7.036783v-3.564808z"/></g></g></svg>