<svg height="24" viewBox="0 0 24 24" width="24" xmlns="http://www.w3.org/2000/svg" xmlns:xlink="http://www.w3.org/1999/xlink"><linearGradient id="a"><stop offset="0" stop-color="#b4b4b6"/><stop offset=".5" stop-color="#9c9ca1"/><stop offset="1" stop-color="#cdcdd1"/></linearGradient><linearGradient id="b" gradientUnits="userSpaceOnUse" x1="80.291107" x2="84.533745" y1="102.50967" y2="-21.234015"><stop offset="0" stop-color="#fff"/><stop offset=".42597079" stop-color="#fff"/><stop offset=".5892781" stop-color="#f1f1f1"/><stop offset=".80219781" stop-color="#eaeaea"/><stop offset="1" stop-color="#dfdfdf"/></linearGradient><linearGradient id="c" gradientTransform="matrix(1.3294113 0 0 1.0502177 -4.052115 -18.328132)" gradientUnits="userSpaceOnUse" x1="7.424621" x2="11.844038" xlink:href="#a" y1="81.507729" y2="81.507729"/><linearGradient id="d" gradientUnits="userSpaceOnUse" x1="29.089844" x2="122.17969" xlink:href="#a" y1="52.365234" y2="52.365234"/><g transform="matrix(.171875 0 0 .171875 1 1)"><path d="m34.908203 5.8203125a5.8195717 5.8195717 0 0 0 -5.818359 5.8183595v81.453125a5.8195717 5.8195717 0 0 0 5.818359 5.818359h81.453127a5.8195717 5.8195717 0 0 0 5.81836-5.818359v-81.453125a5.8195717 5.8195717 0 0 0 -5.81836-5.8183595z" fill="url(#d)"/><path d="m34.9086 11.638h81.4534v81.4534h-81.4534z" fill="url(#b)"/><path d="m5.8182636 23.272727h5.8181004v93.089603h-5.8181004z" fill="url(#c)"/></g></svg>