<svg height="24" viewBox="0 0 6.3499999 6.3500002" width="24" xmlns="http://www.w3.org/2000/svg" xmlns:xlink="http://www.w3.org/1999/xlink"><linearGradient id="a" gradientUnits="userSpaceOnUse" x1="98.9077" x2="98.9077" y1="46.5466" y2="162.9086"><stop offset="0" stop-color="#99999c"/><stop offset=".5" stop-color="#9c9ca1"/><stop offset="1" stop-color="#cdcdd1"/></linearGradient><linearGradient id="b" gradientUnits="userSpaceOnUse" x1="78.610847" x2="120.3435" y1="88.852417" y2="111.54715"><stop offset="0" stop-color="#fff"/><stop offset="1" stop-color="#ccc"/></linearGradient><linearGradient id="c" gradientUnits="userSpaceOnUse" x1="88.38102" x2="130.48599" y1="1008.9966" y2="1015.6953"><stop offset="0" stop-color="#7b7b7b"/><stop offset="1" stop-color="#797979" stop-opacity="0"/></linearGradient><clipPath id="d"><path d="m41.355614 933.74432h83.943996v117.52168h-83.943996z"/></clipPath><filter id="e" color-interpolation-filters="sRGB" height="1.073732" width="1.13754" x="-.06877" y="-.036866"><feGaussianBlur stdDeviation="1.0557314"/></filter><linearGradient id="f" gradientUnits="userSpaceOnUse" x1="100.83452" x2="116.42799" y1="37.992622" y2="80.92411"><stop offset="0" stop-color="#fff" stop-opacity=".683453"/><stop offset="1" stop-color="#fff" stop-opacity="0"/></linearGradient><linearGradient id="g" gradientTransform="matrix(.58291629 0 0 .66676377 62.177025 -566.68964)" gradientUnits="userSpaceOnUse" x1="63.011921" x2="63.011921" y1="945.89801" y2="1033.1569"><stop offset="0" stop-color="#545454" stop-opacity=".988"/><stop offset="1" stop-color="#ebebeb"/></linearGradient><linearGradient id="h" gradientTransform="matrix(.48045402 0 0 .66178602 128.73476 -578.51587)" gradientUnits="userSpaceOnUse" x1="-60.535713" x2="-60.357143" y1="979.50507" y2="1009.505"><stop offset="0" stop-color="#979797"/><stop offset=".148461" stop-color="#f6f6f6"/><stop offset=".28399727" stop-color="#e2e2e2"/><stop offset=".41198727" stop-color="#dedede"/><stop offset=".41198727" stop-color="#f6f6f6"/><stop offset="1" stop-color="#6b6b6b"/></linearGradient><linearGradient id="i" gradientTransform="matrix(.480454 0 0 .58309338 128.76683 499.76645)" gradientUnits="userSpaceOnUse" x1="-61.078979" x2="-60.6413" y1="-1056.658" y2="-1010.9131"><stop offset="0" stop-color="#777"/><stop offset=".18176934" stop-color="#a8a8a8"/><stop offset=".22864534" stop-color="#cdcdcd"/><stop offset=".34561315" stop-color="#f7f7f7"/><stop offset="1" stop-color="#fff"/></linearGradient><linearGradient id="j"><stop offset="0" stop-color="#06f"/><stop offset="1" stop-color="#80b3ff"/></linearGradient><linearGradient id="k" gradientUnits="userSpaceOnUse" x1=".896507" x2="1.553645" xlink:href="#j" y1="2.116058" y2=".163738"/><linearGradient id="l" gradientUnits="userSpaceOnUse" x1="1.161211" x2="1.818349" xlink:href="#j" y1="5.026835" y2="3.074515"/><linearGradient id="m" gradientUnits="userSpaceOnUse" x1=".367496" x2="1.024634" xlink:href="#j" y1="5.026823" y2="3.074503"/><g stroke-width=".045475"><path d="m1.0584844 3.7041995a.26476416.26476416 0 0 0 -.26476909.2647691v.2645914a.26476416.26476416 0 0 0 .26450259.264769v.5287387a.26476416.26476416 0 0 0 -.26450259.264769v.2645914a.26476416.26476416 0 0 0 .26476909.2647692h.7936854a.26476416.26476416 0 0 0 .264769-.2647692v-.2645914a.26476416.26476416 0 0 0 -.2645914-.264769v-.5287387a.26476416.26476416 0 0 0 .2645914-.264769v-.2645914a.26476416.26476416 0 0 0 -.264769-.2647691z" fill="url(#l)"/><path d="m.26476907 3.7041874a.26476416.26476416 0 0 0 -.26476907.2647692v.2645914a.26476416.26476416 0 0 0 .26450263.264769v.5287387a.26476416.26476416 0 0 0 -.26450263.264769v.2645914a.26476416.26476416 0 0 0 .26476907.2647691h.79368543a.26476416.26476416 0 0 0 .264769-.2647691v-.2645914a.26476416.26476416 0 0 0 -.2645914-.264769v-.5287387a.26476416.26476416 0 0 0 .2645914-.264769v-.2645914a.26476416.26476416 0 0 0 -.264769-.2647692z" fill="url(#m)"/><path d="m.26476907 3.9689566v.2645914h.26450256v1.0582767h-.26450256v.2645914h.79368543v-.2645914h-.26459143v-1.0582767h.26459143v-.2645914z" fill="#bfd9ff"/></g><path d="m1.0584843 3.968969v.2645912h.2645026v1.0582774h-.2645026v.2645912h.7936854v-.2645912h-.2645914v-1.0582774h.2645914v-.2645912z" fill="#bfd9ff" stroke-width=".171875"/><g fill="#555"><path d="m2.38274825.79378203h3.43808489v.26455034h-3.43808489z"/><path d="m2.37679038 1.58751969h3.44404277v.26456392h-3.44404277z"/><path d="m2.3767902 2.38126078h2.65029291v.26457217h-2.65029291z"/><path d="m2.38274773 3.70415516h3.43808523v.26459486h-3.43808523z"/><path d="m2.37678986 4.49789109h3.44404311v.26460844h-3.44404311z"/><path d="m2.37678986 5.29163391h2.65029325v.26461669h-2.65029325z"/></g><path d="m.79378055.79342248a.26476416.26476416 0 0 0 -.26476907.26476902v.2645914a.26476416.26476416 0 0 0 .26450263.2647691v.5287387a.26476416.26476416 0 0 0 -.26450263.264769v.2645914a.26476416.26476416 0 0 0 .26476907.2647691h.79368535a.26476416.26476416 0 0 0 .2647691-.2647691v-.2645914a.26476416.26476416 0 0 0 -.2645914-.264769v-.5287387a.26476416.26476416 0 0 0 .2645914-.2647691v-.2645914a.26476416.26476416 0 0 0 -.2647691-.26476902z" fill="url(#k)" stroke-width=".045475"/><path d="m.79395815 1.058393v.2645913h.26450255v1.0582773h-.26450255v.2645913h.79368535v-.2645913h-.2645913v-1.0582773h.2645913v-.2645913z" fill="#bfd9ff" stroke-width=".171875"/><g fill="#fff" fill-opacity=".392157" transform="translate(-.001498 -.264615)"><path d="m2.3827483.79378203h3.4380848v.26455037h-3.4380849z"/><path d="m2.3767904 1.5875197h3.4440428v.2645639h-3.4440428z"/><path d="m2.3767902 2.3812608h2.6502929v.2645722h-2.6502929z"/><path d="m2.3827477 3.7041552h3.4380853v.2645948h-3.4380853z"/><path d="m2.3767899 4.4978911h3.4440431v.2646084h-3.4440431z"/><path d="m2.3767899 5.2916339h2.6502932v.2646167h-2.6502932z"/></g><g transform="matrix(.04547526 0 0 .04547526 .529249 .529168)"><path d="m69.8172 46.546616h58.181v81.453444h-58.181z" fill="url(#a)"/><path d="m75.6353 52.3647h46.5448v69.81722h-46.5448z" fill="url(#b)"/><path clip-path="url(#d)" d="m92.81509 1029.6319c1.071428 1.4286 10.71429 15.3572 11.78571 13.5715 1.07143-1.7858 26.42857-25.3572 25-26.7858-1.42857-1.4285-33.928567-41.78567-33.928567-41.78567z" fill="url(#c)" fill-rule="evenodd" filter="url(#e)" opacity=".68" transform="matrix(.69309305 0 0 .69309305 41.153912 -600.6251)"/><path d="m75.6353 52.3647v47.28063c14.171661-16.500095 33.53848-23.157342 46.54439-25.022283v-22.257813z" fill="url(#f)" fill-rule="evenodd"/><path d="m87.2715 64.0009h23.2724v46.5448h-23.2724z" fill="url(#g)"/><path d="m89.925598 66.798828h17.686732v41.164682h-17.686732z" fill="#535353"/><path d="m93.0896 69.819h11.6362v17.4543h-11.6362z" fill="url(#h)"/><path d="m93.0896-116.3638h11.6362v29.0905h-11.6362z" fill="url(#i)" transform="scale(1 -1)"/></g></svg>