<svg height="24" width="24" xmlns="http://www.w3.org/2000/svg" xmlns:xlink="http://www.w3.org/1999/xlink"><linearGradient id="a" gradientUnits="userSpaceOnUse" x1="3.9985" x2="47.998501" y1="60" y2="60"><stop offset="0" stop-color="#245795"/><stop offset="1" stop-color="#afd4ff"/></linearGradient><linearGradient id="b"><stop offset="0" stop-color="#9fbde2"/><stop offset="1" stop-color="#fff"/></linearGradient><linearGradient id="c"><stop offset="0" stop-color="#fff"/><stop offset="1" stop-color="#fff" stop-opacity="0"/></linearGradient><linearGradient id="d" gradientUnits="userSpaceOnUse" x1="31.883538" x2="45.478737" xlink:href="#c" y1="61.481231" y2="85.028804"/><linearGradient id="e" gradientUnits="userSpaceOnUse" x1="45.171153" x2="45.171153" xlink:href="#b" y1="93.410531" y2="48.512157"/><linearGradient id="f" gradientUnits="userSpaceOnUse" x1="37.141929" x2="37.141929" xlink:href="#a" y1="109.86276" y2="48.000793"/><linearGradient id="g" gradientUnits="userSpaceOnUse" x1="63.808318" x2="63.808318" xlink:href="#a" y1="109.86276" y2="21.334464"/><linearGradient id="h" gradientUnits="userSpaceOnUse" x1="71.837541" x2="71.837541" xlink:href="#b" y1="93.410531" y2="48.512157"/><linearGradient id="i" gradientUnits="userSpaceOnUse" x1="62.626687" x2="72.145128" xlink:href="#c" y1="44.280492" y2="79.803788"/><linearGradient id="j" gradientUnits="userSpaceOnUse" x1="90.079618" x2="90.079618" xlink:href="#a" y1="109.86276" y2="48.000793"/><linearGradient id="k" gradientUnits="userSpaceOnUse" x1="98.108849" x2="98.108849" xlink:href="#b" y1="93.410531" y2="48.512157"/><linearGradient id="l" gradientUnits="userSpaceOnUse" x1="84.821229" x2="98.416428" xlink:href="#c" y1="61.481231" y2="85.028804"/><linearGradient id="m" gradientUnits="userSpaceOnUse" x1="48.150617" x2="47.999335" y1="116.874923" y2="37.334351"><stop offset="0" stop-color="#0968ef"/><stop offset="1" stop-color="#aecffc"/></linearGradient><g transform="scale(.1875)"><g stroke-width=".91667"><path d="m5.3331092 10.668048h111.9988308v111.998832h-111.9988308z" fill="#a4c0e4" fill-opacity=".360294"/><path d="m7.952898 5.3353401c-1.4509576.0000101-2.619303 1.2827725-2.6193131 2.8771265l-.0007131 111.5757234c-.0000101 1.59436 1.1683555 2.87713 2.619313 2.87713h112.0939652c1.45095 0 2.61931-1.28277 2.61931-2.87713v-111.576531c0-1.594354-1.16836-2.8771365-2.61931-2.8771264zm2.714202 5.3335149 106.66484-.000807v106.665552h-106.665553z" fill="url(#m)"/><path d="m10.666388 85.333936h10.666555v5.333278h-10.666555z" fill="#787878" fill-opacity=".615686"/><path d="m37.332776 117.3336v-10.66655h5.333277v10.66655z" fill="#787878" fill-opacity=".615686"/><path d="m18.666304 10.668048 2.666638 5.333277 5.333278 10.666556h-5.333278v85.332439h-5.333277v-85.332439h-5.333278l5.333278-10.666556z" fill="#797979" opacity=".613861"/><path d="m117.33194 109.33369-5.33328 2.66663-10.66655 5.33328v-5.33328h-79.999168v-5.33327h79.999168v-5.33328l10.66655 5.33328z" fill="#797979" opacity=".613861"/></g><g fill="#787878" fill-opacity=".615686" transform="matrix(.91667 0 0 .91667 5.333109 5.33312)"><path d="m-122.1819 58.181h11.6362v5.8181h-11.6362z" transform="rotate(-90)"/><path d="m-122.1819 81.4534h11.6362v5.8181h-11.6362z" transform="rotate(-90)"/><path d="m5.818101 64.0009h11.6362v5.8181h-11.6362z"/><path d="m5.818101 40.7285h11.6362v5.8181h-11.6362z"/></g><g stroke-width=".91667"><rect fill="url(#f)" height="42.666222" rx="4.235882" width="21.29936" x="26.666218" y="64.000824"/><rect fill="url(#e)" height="31.99967" rx="1.167204" width="10.564322" x="31.965746" y="69.334106"/><path d="m33.141858 69.357249c-.646637 0-1.176115.529476-1.176115 1.176106v15.578249c4.129314-.841264 7.80363-2.966163 10.564329-5.942432v-9.635817c0-.646631-.529487-1.176106-1.176106-1.176106z" fill="url(#d)"/><rect fill="url(#g)" height="63.999332" rx="4.235882" width="21.29936" x="53.332607" y="42.667713"/><rect fill="url(#h)" height="53.332779" rx="1.167204" width="10.564322" x="58.632133" y="48.000992"/><path d="m59.808247 47.907171c-.646637 0-1.176115.529476-1.176115 1.176106v24.744949c4.129314-.841264 7.80363-2.966163 10.564328-5.942432v-18.802517c0-.646631-.529487-1.176106-1.176106-1.176106z" fill="url(#i)"/><rect fill="url(#j)" height="47.9995" rx="4.235882" width="21.333111" x="79.965248" y="58.667549"/><rect fill="url(#k)" height="37.332943" rx="1.167204" width="10.666555" x="85.298523" y="64.000824"/><path d="m86.490924 64.109084c-.646637 0-1.176115.529476-1.176115 1.176106v15.578249c4.129314-.841264 7.803633-2.966163 10.564331-5.942432v-9.635817c0-.646631-.529487-1.176106-1.176106-1.176106z" fill="url(#l)"/></g></g></svg>