<svg height="24" width="24" xmlns="http://www.w3.org/2000/svg" xmlns:xlink="http://www.w3.org/1999/xlink"><linearGradient id="a"><stop offset="0" stop-color="#fff"/><stop offset="1" stop-color="#fff" stop-opacity="0"/></linearGradient><linearGradient id="b"><stop offset="0" stop-color="#fff"/><stop offset=".13883302" stop-color="#bcbcbc"/><stop offset=".27766603" stop-color="#8f8f8f"/><stop offset=".34831479" stop-color="#f2f2f2"/><stop offset=".51983202" stop-color="#bbb"/><stop offset=".69134921" stop-color="#3f3f3f"/><stop offset=".71995538" stop-color="#8f8f8f"/><stop offset=".82474411" stop-color="#a4a4a4"/><stop offset=".91127253" stop-color="#5e5e5e"/><stop offset="1" stop-color="#acacac"/></linearGradient><filter id="c"><feGaussianBlur stdDeviation="4.7167893"/></filter><filter id="d"><feGaussianBlur stdDeviation="4.19576"/></filter><filter id="e"><feGaussianBlur stdDeviation="1.6009629"/></filter><filter id="f"><feGaussianBlur stdDeviation=".46407361"/></filter><filter id="g"><feGaussianBlur stdDeviation="6.421369"/></filter><linearGradient id="h" gradientUnits="userSpaceOnUse" x1="99.465668" x2="99.465668" y1="120.62987" y2="90.83989"><stop offset="0"/><stop offset="1" stop-opacity="0"/></linearGradient><radialGradient id="i" cx="949.33209" cy="517.87024" fx="941.93115" fy="440.16125" gradientTransform="matrix(.3791376 -.00599606 -.00000007 .2162218 -295.92749 -82.282556)" gradientUnits="userSpaceOnUse" r="119.39729" xlink:href="#a"/><radialGradient id="j" cx="902.44019" cy="573.33636" fy="777.67505" gradientTransform="matrix(.2216259 0 0 .1778449 -136.00416 -61.563674)" gradientUnits="userSpaceOnUse" r="252.67184" xlink:href="#b"/><linearGradient id="k" gradientUnits="userSpaceOnUse" x1="46.270017" x2="46.270017" y1="39.291823" y2="23.014645"><stop offset="0" stop-color="#222"/><stop offset="1" stop-opacity="0"/></linearGradient><linearGradient id="l" gradientUnits="userSpaceOnUse" x1="1228.4824" x2="1228.4824" y1="349.26135" y2="687.31006"><stop offset="0"/><stop offset="1" stop-color="#474747" stop-opacity="0"/></linearGradient><radialGradient id="m" cx="1302.5156" cy="396.677" gradientTransform="matrix(1.4615497 0 0 .7922186 -1517.0981 316.29645)" gradientUnits="userSpaceOnUse" r="252.67184" xlink:href="#a"/><linearGradient id="n" gradientUnits="userSpaceOnUse" spreadMethod="reflect" x1="341.5318" x2="341.5318" y1="528.58008" y2="700.07751"><stop offset="0" stop-color="#fcfcfc"/><stop offset="1" stop-color="#c0c0c0"/></linearGradient><radialGradient id="o" cx="902.44019" cy="573.33636" fy="777.67505" gradientTransform="matrix(1.0000001 0 0 .7898656 -515.84706 106.14197)" gradientUnits="userSpaceOnUse" r="252.67184" xlink:href="#b"/><radialGradient id="p" cx="949.33209" cy="517.87024" fx="941.93115" fy="440.16125" gradientTransform="matrix(1.7097296 .06452833 -.05216787 .9870304 -1209.4918 -86.255073)" gradientUnits="userSpaceOnUse" r="119.39729" xlink:href="#a"/><linearGradient id="q" gradientUnits="userSpaceOnUse" x1="328.12448" x2="336.98077" y1="120.81158" y2="87.759453"><stop offset="0" stop-color="#96ff00"/><stop offset="1" stop-color="#609800"/></linearGradient><linearGradient id="r" gradientUnits="userSpaceOnUse" x1="122.00004" x2="122.00004" y1="61.999996" y2="9.932843"><stop offset="0" stop-color="#004d00" stop-opacity="0"/><stop offset=".5" stop-color="#004d00"/><stop offset="1" stop-color="#004d00" stop-opacity="0"/></linearGradient><filter id="s" color-interpolation-filters="sRGB" height="1.072142" width="1.071866" x="-.035933" y="-.036071"><feGaussianBlur stdDeviation=".66434216"/></filter><radialGradient id="t" cx="-55.685837" cy="-347.11612" gradientTransform="matrix(-.89528211 -.23989009 .26001404 -.9703857 -29.034684 -654.02683)" gradientUnits="userSpaceOnUse" r="22.14249"><stop offset="0" stop-color="#82c133"/><stop offset="1" stop-color="#72b028"/></radialGradient><clipPath id="u"><circle cx="343.91208" cy="92.325096" r="36" transform="matrix(.86602539 .50000002 .49999965 -.86602561 0 0)"/></clipPath><filter id="v"><feGaussianBlur stdDeviation="2.8805897"/></filter><radialGradient id="w" cx="343.99899" cy="92" gradientTransform="matrix(.47032074 0 0 .4703204 -235.54627 -330.99181)" gradientUnits="userSpaceOnUse" r="36"><stop offset="0" stop-color="#e5ff00"/><stop offset="1" stop-color="#bff500" stop-opacity="0"/></radialGradient><filter id="x"><feGaussianBlur stdDeviation="1.04"/></filter><linearGradient id="y" gradientTransform="matrix(0 .47393418 -.47393451 0 83.152635 278.87871)" gradientUnits="userSpaceOnUse" x1="-80.00296" x2="-45.096584" xlink:href="#a" y1="-131.93112" y2="-131.93112"/><g transform="matrix(.171875 0 0 .171875 .999785 1.00628)"><path d="m594.20979 637.24835c0 303.86445.0008 275.30281-397.06542 275.30281-108.848745 0-108.290564-77.88045-108.290564-275.30281 0-54.05872 113.199744-113.03373 252.677994-113.03373s252.67799 57.40697 252.67799 113.03373z" filter="url(#g)" transform="matrix(.2308868 0 0 .2254747 -15.015146 -112.19714)"/><path d="m82.30409 50.818968c-19.50589 0-34.606025 7.274788-34.606015 17.027734 0 .03149-.00033.0623 0 .09375-.0009.02034.00074.04214 0 .0625.0007.04154-.0013.08353 0 .125v.09375c-.00017.02045 0 .04203 0 .0625 0 .30478.0007.605244.03125.90625l-.09068 5.5c-.07319.464007-.125.932891-.125 1.40625 0 .463152.0549.920786.125 1.375-.0701.454214-.125.911848-.125 1.375 0 .03149-.00033.0623 0 .09375-.00087.02096.0007.04152 0 .0625.00073.04301-.0013.08207 0 .125v.0625c-.00018.02107 0 .04141 0 .0625 0 .30478.0007.605244.03125.90625l-.09068 5.53125c-.07319.464007-.125.932891-.125 1.40625 0 .458111.0564.894377.125 1.34375-.0701.454214-.125.911848-.125 1.375 0 .03149-.00033.0623 0 .09375-.0009.02034.00074.04214 0 .0625.0007.04154-.0013.08353 0 .125v.09375c-.00017.02045 0 .04203 0 .0625 0 .30478.0007.605243.03125.90625l-.09068 5.5c-.07319.464007-.125.932891-.125 1.40625 0 .367777.01813.731525.0625 1.09375-.04437.362225-.0625.725973-.0625 1.093748 0 .0315-.00033.0623 0 .0937-.00087.021.0007.0415 0 .0625.0007.0415-.0013.0835 0 .125v.0625c-.00018.0211 0 .0414 0 .0625 0 .30478.0007.63649.03125.9375l-.09068 5.5c-.07319.46401-.125.93289-.125 1.40625 0 8.08635 15.83785 16.21067 35.34375 16.21067 19.505895 0 35.312505-8.23543 35.312505-16.21067 0-.51532-.0384-1.02709-.125-1.53125l-.0907-5.375c.0305-.30101.0312-.63272.0312-.9375 0-.0527.00096-.10365 0-.15625.002-.0837 0-.16602 0-.25 0-.368081-.0181-.731227-.0625-1.093748.0444-.362521.0625-.725667.0625-1.09375 0-.515316-.0384-1.02709-.125-1.53125l-.0907-5.375c.0305-.301006.0312-.60147.0312-.90625 0-.05118.0009-.105181 0-.15625.003-.09412 0-.186776 0-.28125 0-.462326-.0239-.92158-.0937-1.375.0683-.448468.0937-.886581.0937-1.34375 0-.515316-.0384-1.02709-.125-1.53125l-.0907-5.40625c.0305-.301006.0312-.60147.0312-.90625 0-.05272.00096-.103647 0-.15625.002-.0837 0-.166023 0-.25 0-.462326-.0239-.92158-.0937-1.375.0699-.45342.0937-.912674.0937-1.375 0-.515316-.0384-1.02709-.125-1.53125l-.0907-5.375c.0305-.301006.0312-.60147.0312-.90625 0-.05118.0009-.105181 0-.15625.003-.09412 0-.186776 0-.28125 0-9.752947-15.06888-17.027735-34.574775-17.027734z" fill="url(#h)" filter="url(#e)" transform="matrix(1.6509734 0 0 1.5910501 -72.016668 -91.24764)"/><g transform="matrix(.23088687 0 0 .21851872 -25.419238 -48.416581)"><ellipse cx="341.5318" cy="637.24835" fill="#343434" filter="url(#d)" rx="252.67799" ry="126.339" transform="translate(45.061429 -54.602901)"/><ellipse cx="341.5318" cy="637.24835" fill="url(#n)" rx="252.67799" ry="126.339" transform="translate(45.061429 -113.57703)"/><path d="m639.26508 523.65926c0 69.7391-113.2092 126.34375-252.6874 126.34375-138.7519-.00002-251.4856-56.01143-252.6563-125.25l1 50.25c0 69.73913 112.2092 126.34376 251.6876 126.34375 139.4782 0 251.6561-56.60462 251.6561-126.34375z" fill="url(#o)"/><path d="m566.27727 486.15744c12.7997 40.36672-63.6135 75.70779-179.1824 75.70779-121.1539 0-196.2125-36.47311-179.1823-75.70779 22.2134-51.17628 102.4871-75.70779 179.1823-75.70779 73.9186 0 164.7584 30.21836 179.1824 75.70779z" fill="url(#p)"/><path d="m134.39008 519.23381c-.2863 2.46133-.4688 4.94049-.4687 7.4375 0 69.73913 113.2092 126.34374 252.6874 126.34375 139.4783 0 252.6563-56.60463 252.6563-126.34375 0-2.49701-.1512-4.97617-.4375-7.4375-7.7085 66.28118-117.7345 118.90625-252.2188 118.90625-134.4842 0-244.5102-52.62507-252.2187-118.90625z" fill="url(#m)" filter="url(#c)"/><path d="m1050.3125 441.16063c-.2863 2.46133-.4688 4.94049-.4687 7.4375 0 69.73913 113.2092 126.34374 252.6874 126.34375 139.4783 0 252.6563-56.60463 252.6563-126.34375 0-2.49701-.1512-4.97617-.4375-7.4375-7.7085 66.28118-117.7345 124.90625-252.2188 124.90625-134.4842 0-244.5102-58.62507-252.2187-124.90625z" fill="url(#l)" filter="url(#c)" opacity=".505535" transform="matrix(.9792446 0 0 .9792446 -888.88819 80.200032)"/></g><g transform="matrix(.23088687 0 0 .21201663 -25.419238 -61.533093)"><ellipse cx="341.5318" cy="637.24835" fill="#343434" filter="url(#d)" rx="252.67799" ry="126.339" transform="translate(45.061429 -54.602901)"/><ellipse cx="341.5318" cy="637.24835" fill="url(#n)" rx="252.67799" ry="126.339" transform="translate(45.061429 -113.57703)"/><path d="m639.26508 523.65926c0 69.7391-113.2092 126.34375-252.6874 126.34375-138.7519-.00002-251.4856-56.01143-252.6563-125.25l1 50.25c0 69.73913 112.2092 126.34376 251.6876 126.34375 139.4782 0 251.6561-56.60462 251.6561-126.34375z" fill="url(#o)"/><path d="m566.27727 486.15744c12.7997 40.36672-63.6135 75.70779-179.1824 75.70779-121.1539 0-196.2125-36.47311-179.1823-75.70779 22.2134-51.17628 102.4871-75.70779 179.1823-75.70779 73.9186 0 164.7584 30.21836 179.1824 75.70779z" fill="url(#p)"/><path d="m134.39008 519.23381c-.2863 2.46133-.4688 4.94049-.4687 7.4375 0 69.73913 113.2092 126.34374 252.6874 126.34375 139.4783 0 252.6563-56.60463 252.6563-126.34375 0-2.49701-.1512-4.97617-.4375-7.4375-7.7085 66.28118-117.7345 118.90625-252.2188 118.90625-134.4842 0-244.5102-52.62507-252.2187-118.90625z" fill="url(#m)" filter="url(#c)"/><path d="m1050.3125 441.16063c-.2863 2.46133-.4688 4.94049-.4687 7.4375 0 69.73913 113.2092 126.34374 252.6874 126.34375 139.4783 0 252.6563-56.60463 252.6563-126.34375 0-2.49701-.1512-4.97617-.4375-7.4375-7.7085 66.28118-117.7345 124.90625-252.2188 124.90625-134.4842 0-244.5102-58.62507-252.2187-124.90625z" fill="url(#l)" filter="url(#c)" opacity=".505535" transform="matrix(.9792446 0 0 .9792446 -888.88819 80.200032)"/></g><g transform="matrix(1.0417865 0 0 .9209778 -2.834255 2.827868)"><ellipse cx="341.5318" cy="637.24835" fill="#2a2a2a" filter="url(#d)" rx="252.67799" ry="126.339" transform="matrix(.2216259 0 0 .2251584 -11.69231 -97.756732)"/><ellipse cx="341.5318" cy="637.24835" fill="url(#n)" rx="252.67799" ry="126.339" transform="matrix(.2216259 0 0 .2251584 -11.69231 -110.83553)"/><path d="m119.99861 32.44385c0 15.702343-25.090092 28.447356-56.002074 28.447356-30.751014-.000005-55.7357222-12.611444-55.9951796-28.201089l.2216259 11.314209c0 15.702351 24.8684647 28.447359 55.7804907 28.447356 30.911982 0 55.773507-12.745005 55.773507-28.447356z" fill="url(#j)"/><path d="m103.82262 24c2.83674 9.088906-14.0984-1.239891-39.711461-1.239891-26.850842 0-43.485772 10.073909-39.711439 1.239891 4.923065-11.522769 22.713796-17.0462448 39.711439-17.0462448 16.382276 0 36.514731 6.8039168 39.711461 17.0462448z" fill="url(#i)"/><path d="m134.39008 519.23381c-.2863 2.46133-.4688 4.94049-.4687 7.4375 0 69.73913 113.2092 126.34374 252.6874 126.34375 139.4783 0 252.6563-56.60463 252.6563-126.34375 0-2.49701-.1512-4.97617-.4375-7.4375-7.7085 66.28118-117.7345 118.90625-252.2188 118.90625-134.4842 0-244.5102-52.62507-252.2187-118.90625z" fill="url(#m)" filter="url(#c)" transform="matrix(.2216259 0 0 .2251584 -21.67909 -85.46243)"/><path d="m1050.3125 441.16063c-.2863 2.46133-.4688 4.94049-.4687 7.4375 0 69.73913 113.2092 126.34374 252.6874 126.34375 139.4783 0 252.6563-56.60463 252.6563-126.34375 0-2.49701-.1512-4.97617-.4375-7.4375-7.7085 66.28118-117.7345 124.90625-252.2188 124.90625-134.4842 0-244.5102-58.62507-252.2187-124.90625z" fill="url(#l)" filter="url(#c)" opacity=".505535" transform="matrix(.217026 0 0 .2204852 -218.67974 -67.40472)"/><path d="m11.172353 47.430418c37.178071-20.550502 69.990301-17.88445 100.198467-.593047 2.17056-1.824202 3.57671-3.453897 4.33225-4.930038-36.344497-18.936648-72.689001-15.534544-109.033497.460541.970108 1.713789 2.724006 3.354706 4.50278 5.062544z" fill="url(#k)" fill-rule="evenodd" filter="url(#f)" opacity=".034653" transform="matrix(.9742725 0 0 .9985972 4.548712 -.695946)"/></g><path d="m62.720703 63.632812c-4.215963 0-8.148977.673366-11.675781 2.207032-3.388083 1.461344-6.380045 3.655023-8.699219 6.460937-.866046 1.047809-1.552601 2.233417-2.236328 3.419922l.269531-.648437a5.8478752 5.8478752 0 0 0 -2.90625-7.529297c-1.254762-.591869-2.4902-1.119636-3.707031-1.582031-1.256554-.477491-2.523746-.88137-3.798828-1.212891-1.26163-.33346-2.547094-.591801-3.851563-.771485-.0052-.000722-.01046-.0012-.01563-.002-1.343417-.187306-2.706649-.277343-4.083984-.277343-2.768624 0-5.434626.364163-7.939453 1.179687a5.8478752 5.8478752 0 0 0 -.01953.0059c-2.4757.815525-4.7713142 2.091617-6.6894535 3.8125-1.9320882 1.712812-3.454495 3.875576-4.4648437 6.263672a5.8478752 5.8478752 0 0 0 -.015625.03516c-1.0188417 2.451588-1.46875 5.110035-1.46875 7.832031 0 2.791923.4773308 5.510475 1.6464843 7.986328a5.8478752 5.8478752 0 0 0 .013672.0293c.9704113 2.026448 2.2296968 3.882295 3.7792969 5.462891a5.8478752 5.8478752 0 0 0 .082031.08203c1.3917194 1.364429 2.9113617 2.551774 4.5468749 3.527343 1.286421.767338 2.471815 1.436468 3.578125 2.013668.949222.50086 1.760063.95869 2.513672 1.39649-.08108-.0141-.154393-.007-.236328-.0234-.803954-.16121-1.637024-.38399-2.501953-.67187-.0033-.001-.0064-.00085-.0098-.002-.903159-.30801-1.798864-.65293-2.6875-1.0332-.978324-.43989-1.942953-.88677-2.892578-1.3418a5.8478752 5.8478752 0 0 0 -8.375 5.27344v9.19336a5.8478752 5.8478752 0 0 0 3.1347656 5.17969c2.2605086 1.18407 4.6913051 2.06017 7.2421874 2.63281a5.8478752 5.8478752 0 0 0 .01367.004c2.537267.56384 5.150568.84179 7.8125.84179 3.057553 0 5.938832-.37665 8.619141-1.24023 2.614909-.83581 5.032452-2.09414 7.068359-3.84375a5.8478752 5.8478752 0 0 0 .0059-.006c2.02713-1.74645 3.645999-3.95602 4.689454-6.41602.154495-.36011.21126-.75402.341796-1.12304.732299 1.34965 1.515622 2.66574 2.470704 3.84765a5.8478752 5.8478752 0 0 0 .02344.0274c2.313104 2.82713 5.300097 5.04713 8.689453 6.53515a5.8478752 5.8478752 0 0 0 .01563.008c3.001798 1.30722 6.343801 1.88044 9.851563 2.05468l6.875 8.46485a5.8478752 5.8478752 0 0 0 4.539062 2.16211h12.707031a5.8478752 5.8478752 0 0 0 4.355469-9.75l-7.412109-8.27344c.114298-.12345.253827-.22152.365234-.34766 1.676971-1.87528 3.053362-4.01458 4.109375-6.33789.388074-.83714.693225-1.72286 1.001953-2.60547v10.35742a5.8478752 5.8478752 0 0 0 5.847657 5.84766h26.8828031a5.8478752 5.8478752 0 0 0 5.84766-5.84766v-8.173999a5.8478752 5.8478752 0 0 0 -5.84766-5.84766h-11.13867v-32.654296a5.8478752 5.8478752 0 0 0 -5.84766-5.847656h-9.896482a5.8478752 5.8478752 0 0 0 -5.847657 5.847656v10.376953c-1.02308-3.029446-2.415356-5.852494-4.378906-8.234375-2.296114-2.832089-5.281508-5.047439-8.671875-6.511719-3.510454-1.537842-7.426884-2.21289-11.623047-2.212891zm25.21875 18.363282.01563.04687c-.0033-.01174-.01037-.02147-.01367-.0332-.0013-.0043-.000697-.0093-.002-.01367zm-50.703125.65039c-.709907 2.702889-1.072891 5.585973-1.205078 8.591797-1.245115-1.330657-2.61593-2.552112-4.175781-3.568359-1.463488-.973505-3.03694-1.902592-4.707031-2.798828.665206.27762 1.372176.585531 2.164062.955078a5.8478752 5.8478752 0 0 0 7.873047-3.058594zm25.484375.917969c1.118968 0 1.70606.201888 2.044922.384766.444932.240122.737218.492829 1.105469 1.082031a5.8478752 5.8478752 0 0 0 .03516.05469c.407939.636782.82324 1.605355 1.113281 3.009765a5.8478752 5.8478752 0 0 0 .01563.07227c.314942 1.432987.501953 3.211885.501953 5.320312 0 2.108429-.185662 3.903258-.503906 5.367188a5.8478752 5.8478752 0 0 0 -.01172.04687c-.288177 1.380216-.698955 2.338486-1.115234 2.988276a5.8478752 5.8478752 0 0 0 -.01172.0195c-.350661.55229-.644066.81078-1.128906 1.06836a5.8478752 5.8478752 0 0 0 -.0332.0176c-.330307.17826-.925505.38477-2.074219.38477-1.089008 0-1.660101-.195-2.011719-.38477-.475406-.25657-.828075-.576-1.226562-1.16015-.419239-.66564-.838616-1.6191-1.140625-2.99219-.000172-.000783.000172-.0012 0-.002-.316759-1.461872-.501953-3.250481-.501953-5.353516-.000001-2.108426.187011-3.887325.501953-5.320312a5.8478752 5.8478752 0 0 0 .002-.01367c.306042-1.407794.731936-2.381181 1.146484-3.035156.396734-.596098.737803-.897878 1.216797-1.152344.394142-.209388.987155-.402344 2.076172-.402344zm-26.3125 7.976563.08203.08984c-.01125-.01275-.02778-.02048-.03906-.0332-.016-.01753-.0269-.03917-.04297-.05664zm52.306641 10.150394-.0078.043c.0011-.006.000884-.012.002-.0176.0016-.009.0043-.0167.0059-.0254zm-24.269532 21.53906-.185546.0332c-.252034.042-.43748.0488-.548828.0488l-.01758-.008c.250687-.024.49784-.0234.751953-.0742z" fill="#fff" fill-opacity=".764706"/><g stroke-width="1.634604"><path d="m35.169415 103.92821q0 3.12873-1.085479 5.65088-1.053554 2.49021-3.128734 4.27806-2.043255 1.75592-5.044285 2.7137-2.969104.95777-6.832132.95777-3.384141 0-6.5448-.70237-3.128734-.70236-5.8105057-2.1071v-9.19465q1.5324409.7343 3.0968078 1.43667 1.5643669.67044 3.1606599 1.21318 1.628218.54274 3.224511.862 1.628218.31925 3.224511.31925 1.628218 0 2.777549-.35118 1.181257-.38311 1.883625-1.02163.734295-.67044 1.053554-1.56436.351184-.92585.351184-2.01133 0-1.30896-.574665-2.29866-.54274-1.02163-1.564367-1.88363-.989702-.893923-2.426365-1.723995-1.404738-.830073-3.160659-1.755922-1.46859-.766221-3.288363-1.8517-1.819774-1.085479-3.447993-2.681771-1.5962922-1.628219-2.6817712-3.894955-1.085479-2.298661-1.085479-5.491246 0-3.128734 1.0216273-5.587025 1.0535532-2.490216 2.9691039-4.182286 1.915552-1.723997 4.629249-2.61792 2.745624-.893924 6.129764-.893924 1.69207 0 3.288363.223481 1.628218.223481 3.192585.638517 1.596293.415036 3.192586 1.021627 1.596292.606591 3.288362 1.404738l-3.192585 7.69413q-1.436663-.670443-2.681772-1.181256-1.245108-.510814-2.426364-.861998-1.181257-.351185-2.330588-.510814-1.117405-.191555-2.266735-.191555-2.490217 0-3.831103 1.340886-1.30896 1.30896-1.30896 3.511844 0 1.181256.383111 2.107106.415036.893924 1.277034 1.69207.893924.798146 2.266735 1.628219 1.404738.830072 3.384141 1.883625 2.394439 1.277034 4.405768 2.61792 2.011328 1.30896 3.447992 2.937178 1.468589 1.596293 2.266735 3.639548.798147 2.043258.798147 4.788878z"/><path d="m83.600933 93.488456q0 3.799176-.638517 7.151394-.606591 3.32029-1.883625 6.06591-1.245108 2.74562-3.16066 4.88465-1.883625 2.13904-4.469619 3.54377l11.525233 12.86612h-12.70649l-8.556128-10.53553q-.223481 0-.415036.0319-.15963.0319-.351185.0319-.159629 0-.287332 0-5.363544 0-9.32235-1.72399-3.92688-1.724-6.512874-4.88466-2.554068-3.16066-3.831102-7.59835-1.245108-4.469621-1.245108-9.897016 0-5.427395 1.245108-9.833163 1.277034-4.437693 3.863028-7.566427 2.585994-3.128734 6.512874-4.820804 3.958806-1.723996 9.354275-1.723996 5.363544 0 9.290424 1.723996 3.92688 1.69207 6.480948 4.85273 2.585994 3.128733 3.831102 7.566427 1.277034 4.405768 1.277034 9.865089zm-31.670446 0q0 3.671473.638517 6.608654.638517 2.90525 1.947477 4.9485 1.340886 2.01133 3.352215 3.09681 2.011328 1.08548 4.788878 1.08548 2.841401 0 4.852729-1.08548 2.043255-1.08548 3.320289-3.09681 1.30896-2.04325 1.915551-4.9485.638517-2.937181.638517-6.608654 0-3.671473-.638517-6.576726-.606591-2.937179-1.915551-4.980433-1.277034-2.043255-3.288363-3.128734-2.011329-1.085479-4.820804-1.085479-2.777549 0-4.820804 1.085479-2.043254 1.085479-3.38414 3.128734-1.30896 2.043254-1.947477 4.980433-.638517 2.905253-.638517 6.576726z"/><path d="m93.242543 116.89011v-46.675601h9.897017v38.502581h16.98455v8.17302z"/></g><g transform="matrix(1.45455 0 0 1.45455 -111.43652 -349.97683)"><ellipse cx="-207.73613" cy="212.29665" fill="none" rx="20.523085" ry="20.523069" stroke-width=".570085" transform="matrix(-.96592587 -.2588189 -.25881915 .9659258 0 0)"/><ellipse cx="-59.830322" cy="-331.66757" fill="#292929" filter="url(#s)" rx="22.14249" ry="22.142477" transform="matrix(-.89809327 .23387197 -.24064319 -.8728227 12.164424 -15.390993)"/><ellipse cx="-73.756378" cy="-287.72238" fill="url(#t)" rx="20.523085" ry="20.523069" transform="matrix(-.96592587 .25881888 -.25881888 -.96592587 0 0)"/><circle cx="343.99899" cy="92" r="36" style="opacity:.8;fill:none;stroke-width:6.751382;clip-path:url(#u);stroke:url(#q);filter:url(#v)" transform="matrix(-.55066046 -.14754894 -.14754899 .55066008 348.7124 258.92482)"/><ellipse cx="-73.756401" cy="-287.72238" fill="url(#w)" rx="16.931545" ry="16.931536" stroke-width=".470321" transform="matrix(-.96592583 .25881905 -.25881905 -.96592583 0 0)"/><path d="m120.01465 24.819615v9.194998h-7.32125v3.970777h7.32125v9.194998h3.97076v-9.194998h7.32126v-3.970777h-7.32126v-9.194998z" style="fill:none;stroke-width:4;stroke-linecap:round;stroke-linejoin:round;stroke:url(#r);filter:url(#x)" transform="matrix(1.2017106 0 0 1.2017106 -.897549 217.33317)"/><path d="m141.84828 244.34507v10.13508h-10.13507v7.72576h10.13507v10.13508h7.7258v-10.13508h10.13506v-7.72576h-10.13506v-10.13508z" fill="#fff" fill-rule="evenodd"/><path d="m145.71127 240.96258c-7.27803 0-13.35947 5.13926-14.82526 11.98165 2.92172 2.72366 8.46549 4.56161 14.82526 4.56161s11.90353-1.83795 14.82523-4.56161c-1.46576-6.84239-7.54721-11.98165-14.82523-11.98165z" fill="url(#y)" opacity=".8" stroke-width=".789785"/></g></g></svg>