<svg height="24" viewBox="0 0 6.3499999 6.3500002" width="24" xmlns="http://www.w3.org/2000/svg" xmlns:xlink="http://www.w3.org/1999/xlink"><filter id="a"><feGaussianBlur stdDeviation="1.5999062"/></filter><linearGradient id="b" gradientTransform="matrix(.06470556 0 0 .11021838 95.499827 172.30263)" gradientUnits="userSpaceOnUse" x1="399.77466" x2="399.77466" y1="731.09662" y2="480.60214"><stop offset="0" stop-color="#cbcbcd"/><stop offset=".5" stop-color="#e0e0e2"/><stop offset="1" stop-color="#f2f2f2"/></linearGradient><linearGradient id="c" gradientTransform="matrix(.06470556 0 0 .11021838 159.13243 395.2449)" gradientUnits="userSpaceOnUse" x1="-333.0289" x2="-333.0289" y1="-1473.6504" y2="-776.61371"><stop offset="0" stop-color="#fff"/><stop offset=".49140647" stop-color="#fff"/><stop offset="1" stop-color="#dcdcdc"/></linearGradient><linearGradient id="d" gradientUnits="userSpaceOnUse" x1="28" x2="28" y1="57.5" y2="0"><stop offset="0" stop-color="#ffea00"/><stop offset="1" stop-color="#fc0"/></linearGradient><linearGradient id="e" gradientUnits="userSpaceOnUse" x1="32.009362" x2="32.009362" y1="34.594796" y2="9.844794"><stop offset="0" stop-color="#fff8a8"/><stop offset="1" stop-color="#fff" stop-opacity="0"/></linearGradient><g transform="matrix(.171875 0 0 .171875 .264624 -44.96146)"><path d="m4.6180845 273.90908v-6.15776-1.53892h1.5394411l15.3937084.00012v1.53892l-15.3937084-.00012v6.15776z" fill="#06f"/><path d="m4.6179427 286.22425v6.15776 1.53893h1.539441l15.3937083.00012v-1.53893l-15.3937083-.00012v-6.15776z" fill="#06f"/><g transform="matrix(.38484969 0 0 .38484969 -50.657479 184.28712)"><path d="m124.97348 244.87477 37.26681.00028c.76597 0 1.38261.72808 1.38261 1.63246v30.74291c0 .90439-.61664 1.63247-1.38261 1.63247l-37.26681-.00028c-.76596 0-1.38261-.72808-1.38261-1.63247v-30.74291c0-.90438.61665-1.63246 1.38261-1.63246z" style="opacity:.6;fill:none;stroke:#000;stroke-width:4.612318;stroke-linecap:round;stroke-linejoin:round;stroke-dashoffset:4;filter:url(#a)" transform="matrix(.79911685 0 0 .9411767 32.87024 2.398693)"/><path d="m132.73422 232.87011 29.78941.00026c.61218 0 1.10502.68523 1.10502 1.53639v28.93261l-31.99945-.00026v-28.93261c0-.85116.49283-1.53639 1.10502-1.53639z" fill="url(#b)"/><path d="m145.53241 262.21901v-1.80834z" fill="#fff" fill-opacity=".756881"/><path d="m132.72798 232.87011c-.61218 0-1.09878.67825-1.09878 1.52941v28.94657c0 .85117.4866 1.52942 1.09878 1.52942l29.80189.00026c.61219 0 1.09878-.67825 1.09878-1.52942v-28.94657c0-.85116-.48659-1.52941-1.09878-1.52941zm.74917 2.29411 28.30355.00026c.58157 0 1.04884.64256 1.04884 1.44118v25.88775c0 .79863-.46727 1.44118-1.04884 1.44118l-28.30355-.00026c-.58157 0-1.04884-.64255-1.04884-1.44118v-25.88775c0-.79862.46727-1.44118 1.04884-1.44118z" fill="url(#c)"/><path d="m131.6292 244.87584 31.99945.00026v19.99967l-31.99945-.00026z" fill="#fff"/></g><g transform="matrix(.38484969 0 0 .38484969 -29.106223 173.5114)"><path d="m124.97348 244.87477 37.26681.00028c.76597 0 1.38261.72808 1.38261 1.63246v30.74291c0 .90439-.61664 1.63247-1.38261 1.63247l-37.26681-.00028c-.76596 0-1.38261-.72808-1.38261-1.63247v-30.74291c0-.90438.61665-1.63246 1.38261-1.63246z" style="opacity:.6;fill:none;stroke:#000;stroke-width:4.612318;stroke-linecap:round;stroke-linejoin:round;stroke-dashoffset:4;filter:url(#a)" transform="matrix(.79911685 0 0 .9411767 32.87024 2.398693)"/><path d="m132.73422 232.87011 29.78941.00026c.61218 0 1.10502.68523 1.10502 1.53639v28.93261l-31.99945-.00026v-28.93261c0-.85116.49283-1.53639 1.10502-1.53639z" fill="url(#b)"/><path d="m145.53241 262.21901v-1.80834z" fill="#fff" fill-opacity=".756881"/><path d="m132.72798 232.87011c-.61218 0-1.09878.67825-1.09878 1.52941v28.94657c0 .85117.4866 1.52942 1.09878 1.52942l29.80189.00026c.61219 0 1.09878-.67825 1.09878-1.52942v-28.94657c0-.85116-.48659-1.52941-1.09878-1.52941zm.74917 2.29411 28.30355.00026c.58157 0 1.04884.64256 1.04884 1.44118v25.88775c0 .79863-.46727 1.44118-1.04884 1.44118l-28.30355-.00026c-.58157 0-1.04884-.64255-1.04884-1.44118v-25.88775c0-.79862.46727-1.44118 1.04884-1.44118z" fill="url(#c)"/><path d="m131.6292 244.87584 31.99945.00026v19.99967l-31.99945-.00026z" fill="#fff"/></g><g transform="matrix(.24052605 0 0 .24052605 -1.540002 261.59332)"><g transform="matrix(.857143 0 0 .857143 7.999999 7.999999)"><g fill="none" stroke="#bf5e00" stroke-linejoin="round"><path d="m3.751 42 10.811-10.399-14.562-3.601 14.562-3.601-10.811-10.399 14.412 4.163-4.163-14.412 10.399 10.811 3.601-14.562 3.601 14.562 10.399-10.811-4.163 14.412 14.412-4.163-10.811 10.399 14.562 3.601-14.562 3.601 10.811 10.399-14.412-4.163 4.163 14.412-10.399-10.811-3.601 14.562-3.601-14.562-10.399 10.811 4.163-14.412z" opacity=".1" stroke-width="18.666664"/><path d="m3.751 42 10.811-10.399-14.562-3.601 14.562-3.601-10.811-10.399 14.412 4.163-4.163-14.412 10.399 10.811 3.601-14.562 3.601 14.562 10.399-10.811-4.163 14.412 14.412-4.163-10.811 10.399 14.562 3.601-14.562 3.601 10.811 10.399-14.412-4.163 4.163 14.412-10.399-10.811-3.601 14.562-3.601-14.562-10.399 10.811 4.163-14.412z" opacity=".15" stroke-width="13.999998"/><path d="m3.751 42 10.811-10.399-14.562-3.601 14.562-3.601-10.811-10.399 14.412 4.163-4.163-14.412 10.399 10.811 3.601-14.562 3.601 14.562 10.399-10.811-4.163 14.412 14.412-4.163-10.811 10.399 14.562 3.601-14.562 3.601 10.811 10.399-14.412-4.163 4.163 14.412-10.399-10.811-3.601 14.562-3.601-14.562-10.399 10.811 4.163-14.412z" opacity=".2" stroke-width="9.333332"/><path d="m3.751 42 10.811-10.399-14.562-3.601 14.562-3.601-10.811-10.399 14.412 4.163-4.163-14.412 10.399 10.811 3.601-14.562 3.601 14.562 10.399-10.811-4.163 14.412 14.412-4.163-10.811 10.399 14.562 3.601-14.562 3.601 10.811 10.399-14.412-4.163 4.163 14.412-10.399-10.811-3.601 14.562-3.601-14.562-10.399 10.811 4.163-14.412z" opacity=".25" stroke-width="4.666666"/></g><path d="m3.751 42 10.811-10.399-14.562-3.601 14.562-3.601-10.811-10.399 14.412 4.163-4.163-14.412 10.399 10.811 3.601-14.562 3.601 14.562 10.399-10.811-4.163 14.412 14.412-4.163-10.811 10.399 14.562 3.601-14.562 3.601 10.811 10.399-14.412-4.163 4.163 14.412-10.399-10.811-3.601 14.562-3.601-14.562-10.399 10.811 4.163-14.412z" fill="url(#d)"/></g><path d="m32.009361 9.8447961-2.855769 11.5096159-8.221155-8.538462 3.288462 11.394232-11.394232-3.288462 8.538462 8.221155-6.605769 1.644231c4.587209 2.366121 10.631485 3.807692 17.250001 3.807692 6.618516-.000001 12.633945-1.441571 17.221155-3.807692l-6.605769-1.644231 8.567308-8.221155-11.423078 3.288462 3.317308-11.394232-8.250001 8.538462z" fill="url(#e)"/></g><g transform="matrix(.38484969 0 0 .38484969 -29.106223 195.06265)"><path d="m124.97348 244.87477 37.26681.00028c.76597 0 1.38261.72808 1.38261 1.63246v30.74291c0 .90439-.61664 1.63247-1.38261 1.63247l-37.26681-.00028c-.76596 0-1.38261-.72808-1.38261-1.63247v-30.74291c0-.90438.61665-1.63246 1.38261-1.63246z" style="opacity:.6;fill:none;stroke:#000;stroke-width:4.612318;stroke-linecap:round;stroke-linejoin:round;stroke-dashoffset:4;filter:url(#a)" transform="matrix(.79911685 0 0 .9411767 32.87024 2.398693)"/><path d="m132.73422 232.87011 29.78941.00026c.61218 0 1.10502.68523 1.10502 1.53639v28.93261l-31.99945-.00026v-28.93261c0-.85116.49283-1.53639 1.10502-1.53639z" fill="url(#b)"/><path d="m145.53241 262.21901v-1.80834z" fill="#fff" fill-opacity=".756881"/><path d="m132.72798 232.87011c-.61218 0-1.09878.67825-1.09878 1.52941v28.94657c0 .85117.4866 1.52942 1.09878 1.52942l29.80189.00026c.61219 0 1.09878-.67825 1.09878-1.52942v-28.94657c0-.85116-.48659-1.52941-1.09878-1.52941zm.74917 2.29411 28.30355.00026c.58157 0 1.04884.64256 1.04884 1.44118v25.88775c0 .79863-.46727 1.44118-1.04884 1.44118l-28.30355-.00026c-.58157 0-1.04884-.64255-1.04884-1.44118v-25.88775c0-.79862.46727-1.44118 1.04884-1.44118z" fill="url(#c)"/><path d="m131.6292 244.87584 31.99945.00026v19.99967l-31.99945-.00026z" fill="#fff"/></g></g></svg>