<svg height="24" viewBox="0 0 6.3499999 6.3500002" width="24" xmlns="http://www.w3.org/2000/svg" xmlns:xlink="http://www.w3.org/1999/xlink"><filter id="a"><feGaussianBlur stdDeviation=".385"/></filter><linearGradient id="b" gradientUnits="userSpaceOnUse" x1="23.839391" x2="29.14349" y1="9.533772" y2="29.328938"><stop offset="0" stop-color="#2c72c7"/><stop offset="1" stop-color="#00438a"/></linearGradient><linearGradient id="c" gradientUnits="userSpaceOnUse" x1="21.701172" x2="34.01615" y1="19.951565" y2="19.951565"><stop offset="0" stop-color="#bbd6ff"/><stop offset="1" stop-color="#0057ae"/></linearGradient><linearGradient id="d" gradientUnits="userSpaceOnUse" x1="124.5" x2="135.74562" y1="125" y2="2.932803"><stop offset="0" stop-color="#fff"/><stop offset="1" stop-color="#fff" stop-opacity="0"/></linearGradient><linearGradient id="e" gradientTransform="matrix(.03116178 0 0 .04506859 30.181062 72.57011)" gradientUnits="userSpaceOnUse" x1="-333.0289" x2="-333.0289" y1="-1473.6504" y2="-776.61371"><stop offset="0" stop-color="#fff"/><stop offset=".49140647" stop-color="#fff"/><stop offset="1" stop-color="#dcdcdc"/></linearGradient><linearGradient id="f" gradientTransform="matrix(.03116178 0 0 .04506859 -.463999 -18.59159)" gradientUnits="userSpaceOnUse" x1="399.77466" x2="399.77466" y1="731.09662" y2="480.60214"><stop offset="0" stop-color="#cbcbcd"/><stop offset=".5" stop-color="#e0e0e2"/><stop offset="1" stop-color="#f2f2f2"/></linearGradient><filter id="g"><feGaussianBlur stdDeviation="1.5999062"/></filter><g transform="matrix(.171875 0 0 .171875 .261293 .261622)"><path d="m5.3817215 7.6003939h85.2230075c.76597 0 1.38261.72808 1.38261 1.63246v72.7371801c0 .90439-.61664 1.63247-1.38261 1.63247h-85.2230075c-.765966 0-1.38261-.72808-1.38261-1.63247v-72.7371801c0-.90438.616644-1.63246 1.38261-1.63246z" style="opacity:.4;fill:none;stroke:#000;stroke-width:4;stroke-linecap:round;stroke-linejoin:round;stroke-dashoffset:4;filter:url(#g)" transform="matrix(.38484968 0 0 .38484968 -1.517699 .17058)"/><path d="m.54831388 3.0960003c-.2948242 0-.5291684.27733-.5291684.62536v27.9978197c0 .34805.2343442.62539.5291684.62539h32.80833012c.294826 0 .529169-.27734.529169-.62539v-27.9978197c0-.34803-.234343-.62536-.529169-.62536zm.3607964.93806h32.08673772c.280082 0 .505115.26274.505115.5893v26.7470497c0 .32656-.225033.58931-.505115.58931h-32.08673772c-.2800827 0-.5051152-.26275-.5051152-.58931v-26.7470497c0-.32656.2250325-.5893.5051152-.5893z" fill="url(#e)"/><path d="m.55131748 3.0960003h32.80232052c.294823 0 .532175.28019.532175.62823v26.4527097h-33.86666872v-26.4527097c0-.34804.2373491-.62823.5321732-.62823z" fill="url(#f)"/><path d="m.01914548 9.2535903h33.86666752v23.0909797h-33.86666752z" fill="#fff"/><g transform="matrix(0 1 -1 0 43.04217 -1.68886)"><path d="m27.875761 25.729041-4.635758-4.257532h3.096387l-.0259-10.756178h3.078743l.0259 10.756178h3.096387z" fill="none" stroke="url(#b)" stroke-linecap="round" stroke-linejoin="round" stroke-width="3.096387"/><path d="m27.875762 25.341995-4.635758-3.870485h3.096387l-.0259-10.756179h3.078743l.0259 10.756179h3.096387z" fill="url(#c)" fill-rule="evenodd" stroke-width=".193524"/><path d="m108.08835 107.8982-23.954406-19.999995h15.999996l-.0884-55.580539h15.90883l.0884 55.580539h16z" fill="none" filter="url(#a)" opacity=".898396" stroke="url(#d)" transform="matrix(.19352419 0 0 .19352419 6.95805 4.46108)"/></g><g transform="matrix(0 1 1 0 -9.17598 -10.916269)"><path d="m26.327413 26.347713-4.635759-4.837435h3.096387l-.02575-10.794947h3.096387l.02575 10.794947h3.096387z" fill="none" stroke="url(#b)" stroke-linecap="round" stroke-linejoin="round" stroke-width="3.096387"/><path d="m26.327413 25.960666-4.635759-4.450388h3.096387l-.02575-10.794947h3.096387l.02575 10.794947h3.096387z" fill="url(#c)" fill-rule="evenodd" stroke-width=".193524"/><path d="m100.08755 111.09508-23.954413-22.996547h16.000001l-.133141-55.780865h16.000003l.13316 55.780865h16z" fill="none" filter="url(#a)" opacity=".898396" stroke="url(#d)" transform="matrix(.19352419 0 0 .19352419 6.95805 4.46108)"/></g></g></svg>