<svg height="24" width="24" xmlns="http://www.w3.org/2000/svg" xmlns:xlink="http://www.w3.org/1999/xlink"><linearGradient id="a"><stop offset="0" stop-color="#c7cdd7"/><stop offset="1" stop-color="#fff"/></linearGradient><linearGradient id="b" gradientTransform="matrix(.22377866 0 0 .33350232 4.624644 22.86601)" gradientUnits="userSpaceOnUse" x1="46.048" x2="46.048" xlink:href="#a" y1="128.01709" y2="16.6203"/><linearGradient id="c" gradientUnits="userSpaceOnUse" x1="121.05164" x2="121.05164" y1="-40.916946" y2="98.914055"><stop offset="0" stop-color="#fff"/><stop offset="1" stop-color="#555"/></linearGradient><linearGradient id="d" gradientTransform="matrix(.22377866 0 0 .33350232 4.624644 69.41081)" gradientUnits="userSpaceOnUse" x1="46.048" x2="46.048" xlink:href="#a" y1="128.01709" y2="16.6203"/><linearGradient id="e" gradientTransform="matrix(.22377866 0 0 .33350232 91.896144 46.13841)" gradientUnits="userSpaceOnUse" x1="46.048" x2="46.048" xlink:href="#a" y1="128.01709" y2="16.6203"/><linearGradient id="f" gradientUnits="userSpaceOnUse" x1="79.529203" x2="25.706658" y1="59.474477" y2="59.474477"><stop offset="0" stop-color="#0968ef"/><stop offset="1" stop-color="#aecffc"/></linearGradient><radialGradient id="g" cx="73.984352" cy="23.717249" gradientTransform="matrix(13.795252 -.0000053 .0000053 13.795281 -915.90742 -263.17565)" gradientUnits="userSpaceOnUse" r="1.265237" xlink:href="#h"/><linearGradient id="h"><stop offset="0" stop-color="#fd0000"/><stop offset="1" stop-color="#8f0000"/></linearGradient><linearGradient id="i" gradientUnits="userSpaceOnUse" x1="95.107762" x2="98.207361" y1="48.016883" y2="59.584746"><stop offset="0" stop-color="#fff"/><stop offset="1" stop-color="#fff" stop-opacity="0"/></linearGradient><linearGradient id="j" gradientUnits="userSpaceOnUse" x1="117.928508" x2="120.678489" xlink:href="#h" y1="37.568625" y2="62.318624"/><g transform="translate(0 -104)"><text x="552.36987" y="202.81038"><tspan fill="#555" x="552.36987" y="219.61037"/></text><text x="284.18808" y="202.81038"><tspan fill="#555" x="284.18808" y="219.61037"/></text><text x="-10.252362" y="133.87732"><tspan fill="#555" x="-10.252362" y="150.67731"/></text><text x="161.66467" y="-39.856026"><tspan fill="#555" x="161.66467" y="-23.056038"/></text><g transform="matrix(.171875 0 0 .171875 1.000155 104.99985)"><rect fill="url(#j)" height="26.100826" rx="1.546875" width="34.9086" x="87.271172" y="49.545444"/><g transform="translate(-81.461968 -23.469791)"><path d="m87.271484 49.554688v2.804687h.0098v20.458984h-.0098v.0098 2.802734h.0098v.0059h5.8125v-.0059h23.281216v.0059h5.8125v-26.082105zm5.822266 2.804687h23.28125v20.458984h-23.28125z" fill="url(#c)"/><path d="m93.0896 52.3647h23.2724v20.4543h-23.2724z" fill="url(#e)"/></g><g transform="translate(5.817282 -20.661123)"><path d="m5.8181 75.6371h23.2724v20.4543h-23.2724z" fill="url(#d)"/><path d="m0 72.828125v2.802734 17.460938l.00002265 6.11489h5.81250005 23.2812503 5.8125.002l-.000023-3.11489h-.002v-20.460938h.002v-2.802734zm5.8125 2.802734h23.28125v20.460938h-23.28125z" fill="url(#c)"/></g><g transform="translate(5.817282 -26.280377)"><path d="m5.8181 29.0923h23.2724v20.4543h-23.2724z" fill="url(#b)"/><path d="m0 26.28125v2.8125 17.453125 5.8125.0059h5.8125v-.0059h23.28125v.0059h5.8125v-.0059h.002v-2.8125h-.002v-20.453125h.002v-2.8125h-.002-5.8125-23.28125zm5.8125 2.8125h23.28125v20.453125h-23.28125z" fill="url(#c)"/></g><g transform="translate(5.809882 5.693794)"><path d="m5.8181 75.6371h23.2724v20.4543h-23.2724z" fill="url(#d)"/><path d="m0 72.828125v2.802734 17.460938l.00742265 5.941791h5.81250005 23.2812503 5.8125.002l-.0074-2.941791h-.002v-20.460938h.002v-2.802734zm5.8125 2.802734h23.28125v20.460938h-23.28125z" fill="url(#c)"/></g><path d="m84.513623 61.087081-17.48217-14.56847-2.89536 2.89538 5.68078 8.7594-29.0905.0093v5.82738l29.0905-.0093-5.68078 8.61282 2.89536 3.04197 17.48217-14.56847z" fill="url(#f)"/><rect fill="url(#g)" height="20.430569" rx=".837891" width="23.272097" x="93.090652" y="52.381744"/><path d="m93.923315 52.525314c-.464188.0033-.802765.230073-.804744.694259l-.04419 10.36736c.67912.0645 1.3782.10473 2.09473.10473 2.57877 0 19.271099-.445278 21.162519-1.179948l.0442-9.30254c.002-.464185-.37371-.841198-.83789-.83789z" fill="url(#i)"/><g transform="translate(5.817304 31.899257)"><path d="m5.8181 75.6371h23.2724v20.4543h-23.2724z" fill="url(#d)"/><path d="m0 72.828125v2.802734 17.460938 5.84375h5.8125 23.28125 5.8125.002v-2.84375h-.002v-20.460938h.002v-2.802734zm5.8125 2.802734h23.28125v20.460938h-23.28125z" fill="url(#c)"/></g></g></g></svg>