<svg height="24" viewBox="0 0 6.3499999 6.3500001" width="24" xmlns="http://www.w3.org/2000/svg" xmlns:xlink="http://www.w3.org/1999/xlink"><filter id="a"><feGaussianBlur stdDeviation="1.9"/></filter><radialGradient id="b" cx="100.88867" cy="155.99673" gradientTransform="matrix(4.4358932 0 0 4.0437488 -312.90386 -445.7342)" gradientUnits="userSpaceOnUse" r="40"><stop offset="0" stop-color="#fff"/><stop offset=".11366145" stop-color="#bdbebf"/><stop offset=".20296688" stop-color="#ececec"/><stop offset=".2363" stop-color="#fafafa"/><stop offset=".38818121" stop-color="#fff"/><stop offset=".5313" stop-color="#fafafa"/><stop offset=".8449" stop-color="#ebecec"/><stop offset="1" stop-color="#e1e2e3"/></radialGradient><radialGradient id="c" cx="48" cy="112" gradientTransform="matrix(1.0107803 0 0 .7798658 30.921447 25.75368)" gradientUnits="userSpaceOnUse" r="32"><stop offset="0" stop-color="#ffea00"/><stop offset="1" stop-color="#ffa000"/></radialGradient><linearGradient id="d" gradientUnits="userSpaceOnUse" x1="52.663445" x2="52.663445" y1="62.977589" y2="67.365891"><stop offset="0"/><stop offset="1" stop-opacity="0"/></linearGradient><filter id="e"><feGaussianBlur stdDeviation="1.1263538"/></filter><filter id="f" height="1.294962" width="1.106002" x="-.053001" y="-.147481"><feGaussianBlur stdDeviation="1.4133574"/></filter><linearGradient id="g" gradientUnits="userSpaceOnUse" x1="56" x2="56" y1="32" y2="88.117546"><stop offset="0" stop-color="#fff"/><stop offset="1" stop-color="#fff" stop-opacity="0"/></linearGradient><clipPath id="h"><path d="m19.612718 62.977532c-1.219674 0-2.1875.967827-2.1875 2.1875v17.062499c9.640301 2.396967 27.001626 4.247351 38.49233 4.247351 11.490703 0 22.359698-1.353033 31.999999-3.75v-17.062499c0-1.219674-.967827-2.1875-2.1875-2.1875z" filter="url(#f)"/></clipPath><radialGradient id="i" cx="84.903702" cy="-130.14005" gradientTransform="matrix(.04899496 -.04899496 .04899496 .04899496 27.763383 298.48358)" gradientUnits="userSpaceOnUse" r="57.039597" xlink:href="#j"/><linearGradient id="j"><stop offset="0" stop-color="#3a0b02"/><stop offset="1" stop-color="#a21d07" stop-opacity=".382353"/></linearGradient><radialGradient id="k" cx="2.720703" cy="-66.273438" gradientTransform="matrix(.04899496 -.04899496 .04899496 .04899496 27.763383 298.48358)" gradientUnits="userSpaceOnUse" r="57.039597" xlink:href="#j"/><radialGradient id="l" cx="51.991096" cy="-78.028419" gradientTransform="matrix(.04899496 -.04899496 .04899496 .04899496 27.763383 298.48358)" gradientUnits="userSpaceOnUse" r="57.039597" xlink:href="#j"/><linearGradient id="m" gradientTransform="scale(1.0975951 .9110828)" gradientUnits="userSpaceOnUse" x1="26.091133" x2="31.500689" xlink:href="#n" y1="14.856744" y2="14.856744"/><linearGradient id="n"><stop offset="0" stop-color="#765c44"/><stop offset="1" stop-color="#765c44" stop-opacity="0"/></linearGradient><filter id="o" height="1.277481" width="1.279832" x="-.139916" y="-.138741"><feGaussianBlur stdDeviation=".28784801"/></filter><linearGradient id="p" gradientUnits="userSpaceOnUse" x1="304.88663" x2="345.62039" xlink:href="#n" y1="385.86127" y2="384.62384"/><linearGradient id="q" gradientUnits="userSpaceOnUse" spreadMethod="reflect" x1="31.606251" x2="34.575108" y1="13.510336" y2="13.510336"><stop offset="0" stop-color="#fff"/><stop offset="1" stop-color="#790000" stop-opacity="0"/></linearGradient><radialGradient id="r" cx="50.424522" cy="-81.945961" gradientTransform="matrix(.04899496 -.04899496 .04899496 .04899496 27.763382 298.48358)" gradientUnits="userSpaceOnUse" r="50.15279"><stop offset="0" stop-color="#db3424"/><stop offset="1" stop-color="#b32016"/></radialGradient><linearGradient id="s" gradientTransform="matrix(.04899496 -.04899496 .04899496 .04899496 27.763383 298.48358)" gradientUnits="userSpaceOnUse" x1="50.06789" x2="59.441998" y1="-154.40843" y2="-71.617722"><stop offset="0" stop-color="#fff"/><stop offset="1" stop-color="#fcf3f3" stop-opacity="0"/></linearGradient><linearGradient id="t" gradientUnits="userSpaceOnUse" spreadMethod="reflect" x1="88.606247" x2="91.575104" y1="13.510336" y2="13.510336"><stop offset="0" stop-color="#ff8787"/><stop offset="1" stop-color="#ff8787" stop-opacity="0"/></linearGradient><g transform="matrix(.05939994 0 0 .05798391 -1.82366 -1.485529)"><path d="m15.595819 41.723588c-3.884437 0-6.9999996 3.146813-6.9999996 7.03125l-.0000086 64.932662c0 3.88444 3.1155632 7 7.0000002 7l74.217711-.00006c3.884437 0 7-3.11556 7-7l.000008-64.932658c0-3.884437-3.115563-7.03125-7-7.03125h-9.446083v3.38205c0 .95614-.762611 1.71875-1.71875 1.71875h-12.597438c-.95614 0-1.71875-.762611-1.71875-1.71875v-3.38205z" style="fill:#020202;stroke:#000;stroke-width:2;stroke-linecap:round;stroke-linejoin:round;stroke-dashoffset:1.0878;filter:url(#a)" transform="matrix(1.0107803 0 0 1.0398212 30.921447 -3.361312)"/><path d="m46.306348 39.308882c-3.707572 0-6.696418 3.074719-6.696418 6.888816l.000001 1.840627-.000009 66.490085c0 3.81411 2.988846 6.88882 6.696418 6.88882l75.77588-.00006c3.70757 0 6.69642-3.07471 6.69642-6.88882v-68.33071c0-3.814097-2.98885-6.888816-6.69642-6.888816h-2.29546-8.90853v2.775853c0 .994216-.77083 1.787194-1.73728 1.787194h-.48985-9.398397c-.966447 0-1.737278-.792979-1.737278-1.787194v-2.775853z" fill="#fff"/><path d="m46.36367 40.348703c-2.935098 0-5.306596 2.439633-5.306596 5.459062l-.000009 69.110575c0 3.01945 2.371497 5.45907 5.306596 5.45907l76.097599-.00006c2.9351 0 5.3066-2.43962 5.3066-5.45907v-69.110573c0-3.019428-2.3715-5.459062-5.3066-5.459062h-11.59043v2.320932c0 1.242766-.97144 2.242115-2.1795 2.242115h-8.98901c-1.20806 0-2.179494-.999347-2.179494-2.242115v-2.320932z" fill="url(#b)"/><rect fill="url(#c)" height="59.319614" rx="2.225311" ry="2.289247" width="71.268311" x="48.518463" y="52.997967"/><rect clip-path="url(#h)" fill="url(#d)" filter="url(#e)" height="32.912197" rx="2.201577" transform="matrix(1.0107803 0 0 1.0398212 30.921447 -12.487407)" width="70.508209" x="17.409338" y="62.977589"/><path d="m48.52761 110.10663v1.03982c0 1.26823.978261 2.27576 2.211082 2.27459l66.820938-.0637c1.23282-.001 2.21108-1.00636 2.21108-2.27459v-1.03982c0 1.26823-.97826 2.27344-2.21108 2.27461l-66.820938.0637c-1.232821.001-2.211082-1.00638-2.211082-2.27461z" fill="#fff"/><path d="m19.612723 46.200989c-1.219674 0-2.1875.967827-2.1875 2.1875l-.000008 24.026412c9.640301 2.396967 28.295297 3.749944 39.786001 3.749944s21.066027-1.237144 30.706328-3.634111l.000008-24.026412c0-1.219674-.967827-2.1875-2.1875-2.1875z" fill="url(#g)" filter="url(#f)" transform="matrix(1.0107803 0 0 1.0398212 30.921443 4.957199)"/></g><g transform="matrix(.18657797 .18657797 -.18657797 .18657797 50.906407 -57.739222)"><path d="m24.529657 285.13245c-.26354-.00001-.477184.21364-.477176.47718v4.22195h-4.222095c-.263541 0-.477184.21364-.477177.47718l.000001 1.68933c-.000008.26354.213636.47719.477176.47718h4.222095v4.22196c-.000008.26354.213636.47718.477176.47717h1.689334c.263541.00001.477184-.21363.477176-.47717v-4.22196h4.22196c.26354.00001.477184-.21364.477176-.47718v-1.68933c.000008-.26354-.213636-.47718-.477176-.47718h-4.22196v-4.22195c.000008-.26354-.213636-.47719-.477177-.47718z" fill="url(#i)"/><path d="m24.529657 285.13245c-.26354-.00001-.477184.21364-.477176.47718v4.22195h-4.222095c-.263541 0-.477184.21364-.477177.47718l.000001 1.68933c-.000008.26354.213636.47719.477176.47718h4.222095v4.22196c-.000008.26354.213636.47718.477176.47717h1.689334c.263541.00001.477184-.21363.477176-.47717v-4.22196h4.22196c.26354.00001.477184-.21364.477176-.47718v-1.68933c.000008-.26354-.213636-.47718-.477176-.47718h-4.22196v-4.22195c.000008-.26354-.213636-.47719-.477177-.47718z" fill="url(#k)"/><path d="m24.529657 285.13245c-.26354-.00001-.477184.21364-.477176.47718v4.22195h-4.222095c-.263541 0-.477184.21364-.477177.47718l.000001 1.68933c-.000008.26354.213636.47719.477176.47718h4.222095v4.22196c-.000008.26354.213636.47718.477176.47717h1.689334c.263541.00001.477184-.21363.477176-.47717v-4.22196h4.22196c.26354.00001.477184-.21364.477176-.47718v-1.68933c.000008-.26354-.213636-.47718-.477176-.47718h-4.22196v-4.22195c.000008-.26354-.213636-.47719-.477177-.47718z" fill="url(#l)"/><path d="m24.529657 285.13245c-.26354-.00001-.477184.21364-.477176.47718v4.22195h-4.222095c-.263541 0-.477184.21364-.477177.47718l.000001 1.68933c-.000008.26354.213636.47719.477176.47718h4.222095v4.22196c-.000008.26354.213636.47718.477176.47717h1.689334c.263541.00001.477184-.21363.477176-.47717v-4.22196h4.22196c.26354.00001.477184-.21364.477176-.47718v-1.68933c.000008-.26354-.213636-.47718-.477176-.47718h-4.22196v-4.22195c.000008-.26354-.213636-.47719-.477177-.47718z" fill="#56331f" fill-opacity=".905882"/><g fill-rule="evenodd"><path d="m31.7 16 2.875-3.375c-1.051205-1.695758-3.935136-2.288018-5.9375-.3125l2.8125 3.375z" fill="url(#m)" filter="url(#o)" opacity=".498127" transform="matrix(.1033455 .1033455 .10433789 -.10433789 19.918099 294.97177)"/><path d="m31.7 16 2.875-3.375c-1.051205-1.695758-3.935136-2.288018-5.9375-.3125l2.8125 3.375z" fill="url(#m)" filter="url(#o)" opacity=".790262" transform="matrix(-.10304201 .10304201 -.10206195 -.10206195 35.578528 290.16173)"/><path d="m31.7 16 2.875-3.375c-1.051205-1.695758-3.935136-2.288018-5.9375-.3125l2.8125 3.375z" fill="url(#p)" filter="url(#o)" opacity=".498127" transform="matrix(.09358445 .09358445 -.09448311 .09448311 29.31017 286.13876)"/><path d="m88.7 16 2.875-3.375c-1.051205-1.695758-3.935136-2.288018-5.9375-.3125l2.8125 3.375z" fill="url(#t)" filter="url(#o)" opacity=".790262" transform="matrix(-.09448311 .09448311 -.09358445 -.09358445 35.976992 289.69398)"/><path d="m31.7 16 2.875-3.375c-1.051205-1.695758-3.935136-2.288018-5.9375-.3125l2.8125 3.375z" fill="url(#q)" filter="url(#o)" opacity=".790262" transform="matrix(-.08592421 .08592421 .08510696 .08510696 25.942432 281.62392)"/><path d="m88.7 16 2.875-3.375c-1.051205-1.695758-3.935136-2.288018-5.9375-.3125l2.8125 3.375z" fill="url(#t)" filter="url(#o)" opacity=".790262" transform="matrix(-.0882146 .0882146 .08737557 .08737557 26.377026 281.20605)"/></g><path d="m24.529657 285.60963v4.69913h-4.699271v1.68933h4.699271v4.69914h1.689334v-4.69914h4.699136v-1.68933h-4.699136l-.000001-4.69913z" fill="url(#r)"/><path d="m19.8304 290.30869-.000001 1.68937h4.699316l-.000069 4.69922h1.68937v-4.69912h4.699124v-1.68937h-4.699124l-.000001-4.69912h-1.689368v4.69912zm.12.12 4.57922.0001c.06628.00001.120006-.0537.119999-.12v-4.57912h1.44937v4.57912c-.000006.0663.05372.12001.12.12h4.579124v1.44937h-4.579124c-.06628-.00001-.120006.0537-.12.12v4.57912h-1.44937l.000069-4.57921c.000006-.0663-.05372-.12001-.12-.12h-4.579315z" fill="#f4caca" fill-opacity=".779412"/><path d="m19.8304 290.30869-.000001 1.68937h4.699316v.96754c.63875-.89522 1.64386-2.06887 1.87767-2.65634l-.188396-.00047-.000001-4.69912h-1.689368v4.69912z" fill="url(#s)" fill-rule="evenodd"/></g></svg>