<svg height="24" width="24" xmlns="http://www.w3.org/2000/svg" xmlns:xlink="http://www.w3.org/1999/xlink"><linearGradient id="a" gradientTransform="matrix(1.0629486 0 0 1.1383523 .149183 7.839946)" gradientUnits="userSpaceOnUse" x1="46.048" x2="46.048" y1="128.01709" y2="16.6203"><stop offset="0" stop-color="#c7cdd7"/><stop offset="1" stop-color="#fff"/></linearGradient><linearGradient id="b" gradientTransform="matrix(1.0629487 0 0 1.3091052 -5.519737 -33.747371)" gradientUnits="userSpaceOnUse" x1="114.6638" x2="114.6638" y1="101.334" y2="112.0004"><stop offset="0" stop-color="#c9d1dc"/><stop offset="1" stop-color="#c9d1dc" stop-opacity="0"/></linearGradient><linearGradient id="c" gradientTransform="matrix(2.1818422 0 0 1.090921 -81.453404 -11.637891)" gradientUnits="userSpaceOnUse" x1="53.332001" x2="53.332001" y1="101.334" y2="117.3336"><stop offset="0" stop-color="#0968ef"/><stop offset="1" stop-color="#0968ef" stop-opacity="0"/></linearGradient><linearGradient id="d" gradientTransform="matrix(1.454525 0 0 .87271499 -5.8181 22.110581)" gradientUnits="userSpaceOnUse" x1="8" x2="8" y1="88" y2="108"><stop offset="0" stop-color="#284cc6"/><stop offset="1" stop-color="#284cc6" stop-opacity="0"/></linearGradient><linearGradient id="e" gradientTransform="matrix(1.4545249 0 0 .872715 116.36372 22.111567)" gradientUnits="userSpaceOnUse" x1="8" x2="8" y1="88" y2="108"><stop offset="0" stop-color="#828282"/><stop offset="1" stop-color="#828282" stop-opacity="0"/></linearGradient><linearGradient id="f" gradientUnits="userSpaceOnUse" x1="21.805765" x2="21.805765" y1="-5.53284" y2="18.500613"><stop offset="0" stop-color="#fff"/><stop offset="1" stop-color="#555"/></linearGradient><linearGradient id="g" gradientUnits="userSpaceOnUse" x1="-98.9095" x2="-113.45594" y1="-17.4543" y2="-17.454464"><stop offset="0" stop-color="#67bff9"/><stop offset="1" stop-color="#67bff9" stop-opacity="0"/></linearGradient><g transform="matrix(.171875 0 0 .171875 1.000014 1.49976)"><path d="m5.8181 98.9095h116.36364v14.546442h-116.36364z" fill="url(#b)" opacity=".764706"/><path d="m5.8181 5.819578h116.36365v93.090912h-116.36365z" fill="url(#a)"/><text x="552.36987" y="202.81038"><tspan fill="#555" x="552.36987" y="219.61037"/></text><path d="m17.4543 128h116v4.000001h-116z" fill="#fff" opacity=".262911"/><path d="m29.0905 98.9095h5.8181v17.4543h-5.8181z" fill="url(#c)"/><path d="m0 98.9095h5.8181v17.4543h-5.8181z" fill="url(#d)"/><path d="m122.18182 98.910484h5.8181v17.4543h-5.8181z" fill="url(#e)"/><text x="284.18808" y="202.81038"><tspan fill="#555" x="284.18808" y="219.61037"/></text><text x="-10.252362" y="133.87732"><tspan fill="#555" x="-10.252362" y="150.67731"/></text><text x="161.66467" y="-39.856026"><tspan fill="#555" x="161.66467" y="-23.056038"/></text><path d="m0 93.0914h122.1801v5.818101h-122.1801z" fill="#fff" opacity=".650718"/><path d="m23 2.015625-16.0019531.0175781h-.9980469-4.0019531-.9980469v.484375 2.9980469.5019531.4824219 3 .015625.984375 3 .015625.982422.023437 2.978516 1.003906h1 4 1l15.001953-.015625h.998047v-1.005859-2.978516-1.003906-7.5zm-1 .484375v3.5019531l-15 .015625h-.0019531v-3.5h2v-.0019531h10.0000001v.0019531zm-20.0019531.0175781h4.0019531v3.5h-4-.0019531zm20.0019531 3.9804688v3.5l-15 .0175781v-3.5zm-20 .0175781h4v3.5h-4zm20 3.982422v3.5l-15 .017578v-3.5zm-20 .017578h4v3.5h-4zm20 3.988281h.001953v3.494141l-15.001953.017578v-3.494141zm-20 .017578h4v3.494141h-4z" fill="url(#f)" transform="matrix(5.8181818 0 0 5.8181818 -5.818264 -8.725876)"/><path d="m5.819578-29.090828h93.08992v23.272728h-93.08992z" fill="#67bff9" transform="rotate(90)"/><path d="m1 2.0175781v.4824219 3 .5175781.4804688.0019531 3 .998047.001953 3 .998047.005859 2.996094 1.003906h1 4 1v-.488281-3.511719-.005859-.482422-3.515625-.484375-3.515625-.4824219-.0019531-3.515625-.4824219h-.9980469-4.0019531zm1 .4824219h4.0019531v3.515625h-4.0019531zm0 4h4v3.515625h-4zm0 4h4v3.515625h-4zm0 4.003906h4v3.511719h-4z" fill="#284cc6" transform="matrix(5.8181818 0 0 5.8181818 -5.818264 -8.725876)"/><path d="m-113.45594-29.090828h14.546442v23.272728h-14.546442z" fill="url(#g)" transform="matrix(0 -1 -1 0 0 0)"/></g></svg>