<svg height="24" width="24" xmlns="http://www.w3.org/2000/svg" xmlns:xlink="http://www.w3.org/1999/xlink"><linearGradient id="a" gradientUnits="userSpaceOnUse" x1="126.869905" x2="126.869905" y1="-29.090338" y2="104.725963"><stop offset="0" stop-color="#48940b" stop-opacity=".831373"/><stop offset="1" stop-color="#48940b" stop-opacity=".831373"/></linearGradient><linearGradient id="b" gradientUnits="userSpaceOnUse" x1="21.500134" x2="21.803798" y1="-1.99984" y2="24.002483"><stop offset="0" stop-color="#fff"/><stop offset="1" stop-color="#555"/></linearGradient><linearGradient id="c" gradientTransform="matrix(.15944229 0 0 1.4229404 10.786026 -14.92908)" gradientUnits="userSpaceOnUse" x1="46.048" x2="46.048" y1="128.01709" y2="16.6203"><stop offset="0" stop-color="#c7cdd7"/><stop offset="1" stop-color="#fff"/></linearGradient><linearGradient id="d" gradientTransform="matrix(.86194072 0 0 1.0908937 4.740838 -18.90866)" gradientUnits="userSpaceOnUse" x1="8" x2="80" y1="36" y2="112"><stop offset="0" stop-color="#c8ffa5"/><stop offset="1" stop-color="#dfffcb"/></linearGradient><linearGradient id="e" gradientTransform="matrix(-.72842389 0 0 .72842389 142.34975 70.326298)" gradientUnits="userSpaceOnUse" x1="113.15723" x2="-12.496982" y1="25.786163" y2="111.87242"><stop offset="0" stop-color="#bbd6ff"/><stop offset="1" stop-color="#0057ae"/></linearGradient><linearGradient id="f" gradientTransform="matrix(2.9353705 0 0 -2.9353705 -202.71344 270.45937)" gradientUnits="userSpaceOnUse" x1="104" x2="104" y1="120" y2="57.11084"><stop offset="0" stop-color="#d4e2f3"/><stop offset="1" stop-color="#fff" stop-opacity="0"/></linearGradient><linearGradient id="g" gradientUnits="userSpaceOnUse" x1="54.939537" x2="116.538628" y1="74.293155" y2="74.293155"><stop offset="0" stop-color="#fff"/><stop offset="1" stop-color="#fff" stop-opacity="0"/></linearGradient><filter id="h" color-interpolation-filters="sRGB" height="1.024067" width="1.023933" x="-.011966" y="-.012034"><feGaussianBlur stdDeviation=".30713451"/></filter><linearGradient id="i" gradientUnits="userSpaceOnUse" x1="63.993828" x2="104.720528" y1="52.375712" y2="98.920512"><stop offset="0" stop-color="#2c72c7"/><stop offset="1" stop-color="#00438a"/></linearGradient><g transform="matrix(.171875 0 0 .171875 -.000148 .996689)"><path d="m11.636364 11.636364h17.4543l.0011 110.564716h-17.4543z" fill="url(#c)"/><path d="m1 3v1 2.9960938.00977h-.001953v1 2.9960936 1 3.001953.998047 2.9980426.0059.992188.01172 2.992187 1.003906h.9999999 3.0019531.9980469v-4.005901h.0019531v-6.5-5.5058594-.9980468-2.9960938-1h-.9980469-3.0019531zm1 1h3.0019531v2.9960938h-3.0019531zm0 4.0058594h3v2.9921876h-3zm0 3.9960936h3v2.992188h-3zm0 4.001953h3v2.992188h-3zm-.00195 4.00586h3.00195v2.992187h-3.0019531z" fill="url(#b)" stroke-width=".171875" transform="matrix(5.8181818 0 0 5.8181818 .000082 -11.618033)"/><path d="m11.636364 11.636364 116.363716.01833v17.4543l-116.363716-.01833z" fill="url(#d)"/><path d="m102.00399 43.665797-14.555862 14.709916 11.6418-.01265c3.427012 28.243454-23.269373 36.652778-41.266228 35.089106l.358978-11.978362-15.05429 14.892425 15.05429 14.198068-.358978-11.284006c29.512283 4.675176 50.25451-15.346267 47.09435-40.917231l11.62058.01265z" fill="none" stroke="url(#i)" stroke-linecap="round" stroke-linejoin="round" stroke-width="8"/><path d="m102.00399 43.665797-14.555862 14.709916 11.6418-.01265c3.427012 28.243454-23.269373 36.652778-41.266228 35.089106l.358978-11.978362-15.05429 14.892425 15.05429 14.198068-.358978-11.284006c29.512283 4.675176 50.25451-15.346267 47.09435-40.917231l11.62058.01265z" fill="url(#e)" fill-rule="evenodd"/><path d="m102.00423 43.665569-11.179683 11.298828v3.408204l8.265625-.0098c1.868098 15.395785-5.264051 25.249069-11.816585 28.929188v7.65625c11.636364-7.65625 19.858593-18.671371 17.644703-36.585404l9.38868.01172v-2.257813z" fill="url(#f)" fill-rule="evenodd"/><path d="m102.00399 43.665797-14.555862 14.709916 11.6418-.01265c3.427012 28.243454-23.269373 36.652778-41.266228 35.089106l.358978-11.978362-15.05429 14.892425 15.05429 14.198068-.358978-11.284006c29.512283 4.675176 50.25451-15.346267 47.09435-40.917231l11.62058.01265z" fill="none" filter="url(#h)" stroke="url(#g)" stroke-width=".7"/><path d="m5.8190415 5.8374436v5.8125004 17.4375 5.812501.0098h5.8125005v-.0098h17.46875v.0098h5.808594.0039v-.0098l29.08729.0047h5.812503l29.102329-.0078v.0078h5.818362v-.0098l17.45431.0042v.0098h5.8125v-.0098h.008v-5.812526h-.008v-17.437456h.008v-5.8125h-.008-5.8125l-52.375001.00565h-5.812503l-29.08729-.0048h-5.8125-17.46875zm5.8125005 5.8125004h17.46875v17.4375h-17.46875zm23.28125 0 29.08729.0047v17.4375l-29.08729-.0047zm87.274798-.00088v17.437501l-17.45432-.0042v-17.437501zm-23.272682-.0022v17.437501l-29.102323.0079v-17.437551z" fill="url(#a)"/></g></svg>