<svg height="24" width="24" xmlns="http://www.w3.org/2000/svg" xmlns:xlink="http://www.w3.org/1999/xlink"><filter id="a"><feGaussianBlur stdDeviation="1.5999062"/></filter><linearGradient id="b" gradientTransform="matrix(.11777685 0 0 .17033799 114.48257 275.18533)" gradientUnits="userSpaceOnUse" x1="-333.0289" x2="-333.0289" y1="-1473.6504" y2="-776.61371"><stop offset="0" stop-color="#fff"/><stop offset=".49140647" stop-color="#fff"/><stop offset="1" stop-color="#dcdcdc"/></linearGradient><linearGradient id="c" gradientTransform="matrix(.11777685 0 0 .17033799 -1.341286 -69.362806)" gradientUnits="userSpaceOnUse" x1="399.77466" x2="399.77466" y1="731.09662" y2="480.60214"><stop offset="0" stop-color="#cbcbcd"/><stop offset=".5" stop-color="#e0e0e2"/><stop offset="1" stop-color="#f2f2f2"/></linearGradient><g transform="matrix(.1875 0 0 .1875 .000281 0)"><path d="m84.34813 250.87833h77.88965c.76597 0 1.38257.72808 1.38261 1.63246l.003 62.7339c.00004.90439-.61664 1.63247-1.38261 1.63247h-77.890137c-.765966 0-1.382574-.72808-1.38261-1.63247l-.0025-62.7339c-.000037-.90438.616644-1.63246 1.38261-1.63246z" style="opacity:.4;fill:none;stroke:#000;stroke-width:4;stroke-linecap:round;stroke-linejoin:round;stroke-dashoffset:4;filter:url(#a)" transform="matrix(1.45455 0 0 1.45455 -115.33946 -343.57879)"/><g stroke-width="1.45455"><path d="m7.3410335 21.337806h113.3105365c1.11428 0 2.01131 1.059 2.01136 2.374437l.004 91.246657h-117.3336044l-.00366-91.246657c-.0000527-1.315437.8970675-2.374437 2.0113634-2.374437z" fill="url(#c)"/><path d="m76.905499 43.059009v-2.794715z" fill="#fff" fill-opacity=".756881"/><path d="m7.3296807 21.337806c-1.1142958 0-2.0000589 1.048207-2.0000062 2.363644l.00366 91.26825c.0000527 1.31543.8857104 2.36364 2.0000062 2.36364h113.3332493c1.1143 0 2.00005-1.04821 2-2.36364l-.004-91.26825c-.00005-1.315437-.8857-2.363644-2-2.363644zm1.3636406 3.545466h110.6059687c1.05857 0 1.90904.993036 1.90909 2.22728l.004 86.540958c.00005 1.23425-.85052 2.22728-1.90909 2.22728h-110.6059732c-1.0585807 0-1.9090447-.99303-1.9090968-2.22728l-.00366-86.540958c-.0000521-1.234244.8505161-2.22728 1.9090968-2.22728z" fill="url(#b)"/><path d="m5.33333 48.00005v15.99999h37.33331v-15.99999zm42.66664 0v15.99999h31.99998v-15.99999zm37.33331 0v15.99999h37.33331v-15.99999zm-79.99995 21.33332v21.33332h37.33331v-21.33332zm42.66664 0v21.33332h31.99998v-21.33332zm37.33331 0v21.33332h37.33331v-21.33332zm-79.99995 26.66665v21.33332h37.33331v-21.33332zm42.66664 0v21.33332h31.99998v-21.33332zm37.33331 0v21.33332h37.33331v-21.33332z" fill="#fff"/></g></g><rect fill="#9d9d9d" height="5.894737" ry=".439071" width="16" x="-.053932" y="2.981403"/><rect fill="#fff" height="3.999998" ry=".439071" width="14" x="1" y="4.000003"/><rect fill="#06f" height="2.000002" ry=".252089" width="12" x="2" y="5.000003"/></svg>