<svg enable-background="new 0 0 128 128" height="24" viewBox="0 0 24 24" width="24" xmlns="http://www.w3.org/2000/svg" xmlns:xlink="http://www.w3.org/1999/xlink"><linearGradient id="a" gradientUnits="userSpaceOnUse" x1="61" x2="105" y1="44" y2="72"><stop offset="0" stop-color="#382a23"/><stop offset="1" stop-color="#753919" stop-opacity="0"/></linearGradient><filter id="b"><feGaussianBlur stdDeviation="1.5750545"/></filter><radialGradient id="c" cx="59.940041" cy="56.035801" fx="59.940041" fy="56.035801" gradientTransform="matrix(1 0 0 1.8330946 0 -46.683121)" gradientUnits="userSpaceOnUse" r="24.090857" xlink:href="#d"/><radialGradient id="d" cx="48" cy="-.2148" gradientTransform="matrix(.9792 0 0 .9725 133.0002 20.8762)" gradientUnits="userSpaceOnUse" r="55.147999"><stop offset="0" stop-color="#fff718"/><stop offset="1" stop-color="#e77100"/></radialGradient><radialGradient id="e" cx="92.609375" cy="2.384881" gradientTransform="matrix(3.49562 -2.4342373 .6597955 .94748129 -257.69134 225.62669)" gradientUnits="userSpaceOnUse" r="1.515625" xlink:href="#f"/><linearGradient id="f"><stop offset="0" stop-color="#fff"/><stop offset="1" stop-color="#fff" stop-opacity="0"/></linearGradient><filter id="g" height="1.295681" width="1.265199" x="-.132599" y="-.147841"><feGaussianBlur stdDeviation=".16747573"/></filter><linearGradient id="h" gradientUnits="userSpaceOnUse" x1="37.013638" x2="82.901695" y1="55.986382" y2="55.986382"><stop offset="0" stop-color="#753919"/><stop offset="1" stop-color="#753919" stop-opacity="0"/></linearGradient><radialGradient id="i" cx="92.504089" cy="1.991497" gradientTransform="matrix(1.6002822 -3.1923724 1.0321559 .51740226 -58.053329 296.8628)" gradientUnits="userSpaceOnUse" r="1.515625" xlink:href="#j"/><linearGradient id="j"><stop offset="0" stop-color="#fdff63"/><stop offset="1" stop-color="#fff" stop-opacity="0"/></linearGradient><radialGradient id="k" cx="92.609375" cy="2.384881" gradientTransform="matrix(3.49562 -2.4342373 .6597955 .94748129 -265.30336 257.27635)" gradientUnits="userSpaceOnUse" r="1.515625" xlink:href="#f"/><radialGradient id="l" cx="47.98196" cy="64.88855" fx="45.620869" fy="43.625381" gradientTransform="matrix(.25568275 .1196198 -.40782751 .87171573 60.011076 12.507468)" gradientUnits="userSpaceOnUse" r="22.407845"><stop offset="0" stop-color="#31170a"/><stop offset="1" stop-color="#542912" stop-opacity="0"/></radialGradient><radialGradient id="m" cx="77" cy="40.033596" gradientTransform="matrix(1.8469014 0 0 3.7015753 -79.21141 -136.18737)" gradientUnits="userSpaceOnUse" r="19.958006"><stop offset="0" stop-color="#ffea00"/><stop offset="1" stop-color="#fc0"/></radialGradient><radialGradient id="n" cx="92.609375" cy="2.384881" gradientTransform="matrix(3.49562 -2.4342373 .6597955 .94748129 -232.69134 225.62669)" gradientUnits="userSpaceOnUse" r="1.515625" xlink:href="#j"/><radialGradient id="o" cx="77" cy="43.275459" gradientTransform="matrix(1.8469014 0 0 3.7015753 -79.21141 -136.18737)" gradientUnits="userSpaceOnUse" r="19.958006"><stop offset="0" stop-color="#ffea00"/><stop offset="1" stop-color="#dea200"/></radialGradient><radialGradient id="p" cx="54.0625" cy="56" fx="59.98452" fy="46.739941" gradientTransform="matrix(1.631111 .28444492 -.80286938 4.6039467 -3.158749 -229.19883)" gradientUnits="userSpaceOnUse" r="14.0625" xlink:href="#d"/><linearGradient id="q" gradientUnits="userSpaceOnUse" x1="43" x2="47.244663" y1="76" y2="46.741943"><stop offset="0" stop-color="#fffccf"/><stop offset="1" stop-color="#fff" stop-opacity="0"/></linearGradient><linearGradient id="r" gradientUnits="userSpaceOnUse" x1="40.371117" x2="48.230423" y1="31.368244" y2="2.036914"><stop offset="0" stop-color="#fff" stop-opacity="0"/><stop offset=".5" stop-color="#fff" stop-opacity=".18705"/><stop offset="1" stop-color="#fff"/></linearGradient><linearGradient id="s" gradientUnits="userSpaceOnUse" x1="47.299999" x2="39.374374" xlink:href="#f" y1="44" y2="30.272415"/><linearGradient id="t" gradientUnits="userSpaceOnUse" x1="30.450985" x2="41.028702" y1="79.965019" y2="40.488441"><stop offset="0" stop-color="#ffeb4a"/><stop offset="1" stop-color="#ffeb4a" stop-opacity="0"/></linearGradient><filter id="u"><feGaussianBlur stdDeviation=".43658741"/></filter><radialGradient id="v" cx="67.273438" cy="2.351479" gradientTransform="matrix(2.1582105 2.7612836 -.9564263 .74753972 -100.66778 -185.24544)" gradientUnits="userSpaceOnUse" r="1.351563" xlink:href="#f"/><filter id="w" height="1.284083" width="1.324416" x="-.162208" y="-.142041"><feGaussianBlur stdDeviation=".17107863"/></filter><linearGradient id="x" gradientUnits="userSpaceOnUse" x1="27.096366" x2="134.8207" y1="72.678185" y2="134.071453"><stop offset="0" stop-color="#a4ca51"/><stop offset=".5" stop-color="#93c131"/><stop offset="1" stop-color="#8ebd27"/></linearGradient><filter id="y" color-interpolation-filters="sRGB" height="1.109627" width="1.126768" x="-.063384" y="-.054813"><feGaussianBlur stdDeviation="2.792426"/></filter><linearGradient id="z" gradientUnits="userSpaceOnUse" x1="88.591797" x2="71.262016" y1="96.592697" y2="79.262917"><stop offset="0" stop-color="#fff"/><stop offset="1" stop-color="#555753"/></linearGradient><linearGradient id="A" gradientUnits="userSpaceOnUse" x1="85.219681" x2="61.336319" y1="93.219681" y2="69.336319"><stop offset="0"/><stop offset="1" stop-color="#393b38"/></linearGradient><linearGradient id="B" gradientUnits="userSpaceOnUse" x1="96" x2="88.000198" y1="104" y2="96.000198"><stop offset="0" stop-color="#888a85"/><stop offset=".0072" stop-color="#8c8e89"/><stop offset=".0673" stop-color="#abaca9"/><stop offset=".1347" stop-color="#c5c6c4"/><stop offset=".2115" stop-color="#dbdbda"/><stop offset=".3012" stop-color="#ebebeb"/><stop offset=".4122" stop-color="#f7f7f6"/><stop offset=".5679" stop-color="#fdfdfd"/><stop offset="1" stop-color="#fff"/></linearGradient><filter id="C"><feGaussianBlur stdDeviation=".50063244"/></filter><filter id="D"><feGaussianBlur stdDeviation=".40750996"/></filter><filter id="E"><feGaussianBlur stdDeviation=".4901192"/></filter><filter id="F"><feGaussianBlur stdDeviation=".90565481"/></filter><g transform="matrix(.20454546 0 0 .20454546 -1.577287 -1.380505)"><path d="m18.193185 4.6471269v122.2660431h66.498509c.53 0 1.039-.211 1.414-.586l37.235026-37.232607c.375-.375.586-.884.586-1.414l-.0228-83.0334361z" fill="#3e5300" filter="url(#y)" opacity=".68" transform="matrix(.92495507 0 0 .91966966 .661074 7.364178)"/><path d="m29.750812 15.546194-.000011 102.331376 53.830924-.0001c.53 0 1.039-.211 1.414-.586l31.498275-28.780314c.375-.375.586-.884.586-1.414l.0812-71.550962z" filter="url(#C)" opacity=".89589" transform="matrix(1.0090419 0 0 1.003276 -7.641977 .929762)"/><path d="m22.377839 16.526886v102.666604h54.36722c.513401 0 1.006458-.20439 1.369714-.56765l31.814227-28.804429c.36326-.363255.56764-.856313.56764-1.369714l.0819-71.924811z" fill="#cde2a2"/><path d="m27.893008 21.458161c-.43895 0-.796642.358823-.796642.799162l.270505 91.063947c0 .44114.357693.79917.796643.79917h53.555576c.209516 0 .415049-.0847.563224-.23416l23.127166-22.873763c.14897-.149444.23341-.354826.23341-.565007l-.16806-68.171766c0-.440338-.35689-.799162-.79663-.799162l-38.300353-.06078-38.484839.04236z" fill="url(#x)" stroke-width=".840278"/><path d="m66.377394 87.626506-21.40101-22.00089 21.40101-21.997826 7.134251 7.332269-14.268502 14.665557 7.133822 7.333582 21.401017-21.997754-18.642785-19.163877c-1.522333-1.566154-3.991544-1.566154-5.515166 0l-30.152619 30.995413c-1.522324 1.564841-1.522324 4.103057 0 5.669285l30.153056 30.994466c1.523623 1.566149 3.992835 1.566149 5.515159 0l30.153056-30.994466c1.522317-1.566228 1.522317-4.104444 0-5.669285l-4.377325-4.498391z" fill="#fff" stroke-width="6.904992"/><g transform="matrix(1.1080161 0 0 1.1080161 -12.744784 -10.01667)"><path d="m111.52523 88.365747c.26305-.236238-24.821717-1.141063-29.856717-1.141063-1.654 0-3 1.346-3 3 0 5.035 1.211722 26.561276 1.474766 26.325036z" fill="url(#z)" filter="url(#D)" opacity=".750685"/><path d="m111.52523 88.365747c.39457-.354357-20.412717-.141063-29.856717-.141063-1.103 0-2 .897-2 2 0 9.444.0802 26.679386.474766 26.325036z" filter="url(#F)" opacity=".2"/><path d="m111.52523 88.365747c.25147-.225842-20.049717.858937-29.856717.858937-.553 0-1 .447-1 1 0 9.806996-.776705 26.550876-.525234 26.325036z" fill="url(#A)" filter="url(#E)" opacity=".1"/><path d="m81.278898 116.44678 30.059452-26.861477-29.948218.444937z" fill="url(#B)"/></g><g transform="matrix(1.1863801 0 0 1.2022812 41.559972 12.331234)"><path d="m57.59375 13.574219a2.4257372 2.4257372 0 0 0 -2.296875 1.644531l-13.59375 40a2.4257372 2.4257372 0 0 0 2.296875 3.207031h6.005859l-12.30664 36.804688a2.4257372 2.4257372 0 0 0 4.320312 2.111328l31.90625-48a2.4257372 2.4257372 0 0 0 -2.019531-3.767578h-6.267578l16.36914-28.361328a2.4257372 2.4257372 0 0 0 -2.101562-3.638672z" fill="url(#a)" filter="url(#b)" transform="translate(-12.9 -9.5)"/><path d="m57.605469 11.580078c-1.928958-.01141-3.579689 1.165299-4.199219 2.992188a2.0138704 2.0138704 0 0 0 -.0059.01563l-13.269532 40.27539c-.00023.000655.00023.0013 0 .002-1.020637 2.90791 1.119051 5.896623 4.201172 5.867188h3.185547l-11.701131 33.859323a2.0138704 2.0138704 0 0 0 -.0039.01172c-.72599 2.1398.19583 4.407895 2.251953 5.398433 2.056125.99055 4.40603.30601 5.630859-1.601558l32.199213-48.283204a2.0138704 2.0138704 0 0 0 .002-.002c.910024-1.369387 1.012135-3.06554.220704-4.537109-.791433-1.471569-2.2706-2.314824-3.904297-2.310547h-2.863329l14.361329-25.070266c.808374-1.395442.800006-3.030931.0039-4.417969-.79601-1.386987-2.230387-2.193402-3.800782-2.199219a2.0138704 2.0138704 0 0 0 -.0078 0z" fill="url(#c)" transform="translate(-14 -12)"/><path d="m66 1.6874995-.96875 2.9062505 3.09375-.1875005c-.15911-2.224387-1.155152-2.4401352-2.125-2.71875z" fill="url(#e)" filter="url(#g)" transform="matrix(1.4680988 0 0 1.4680988 -30.441048 -2.150329)"/><path d="m57.578125 11.626953c-1.890668.0149-3.501895 1.185558-4.101563 2.978516a1.9364137 1.9364137 0 0 0 -.0039.0078l-13.27149 40.285169c-.984212 2.845074 1.091091 5.77322 4.101562 5.787109a1.9364137 1.9364137 0 0 0 .0098 0h3.28125l-11.736328 33.900391.02734-.07422c-.841533 2.142544.0669 4.494282 2.138672 5.507812 2.071778 1.01353 4.491069.30175 5.671874-1.6875l-.05273.08594 32.212891-48.304688c.915075-1.357909.999342-3.055854.224609-4.498047-.774731-1.442191-2.231853-2.314102-3.876953-2.300781h-2.896518l14.361328-25.113282c.814618-1.383915.790733-3.022441.01172-4.382813-.778693-1.359803-2.190972-2.192854-3.773438-2.191406h-22.3125a1.9364137 1.9364137 0 0 0 -.01563 0z" fill="url(#h)" transform="translate(-14 -12)"/><path d="m89.78466 2.9912276.46534 3.5691631 3.25065-2.1541407c-.15911-2.224387-3.25065-2.506427-3.71599-1.4150224z" fill="url(#i)" filter="url(#g)" transform="matrix(-1.260111 0 0 -1.260111 140.39943 90.317223)"/><path d="m58.387959 33.337184-.96875 2.90625 3.09375-.1875c-.15911-2.224387-1.155152-2.440135-2.125-2.71875z" fill="url(#k)" filter="url(#g)" transform="matrix(1.4760622 0 0 1.4760622 -27.335112 -17.254127)"/><path d="m57.580078 11.78125c-1.819629.01434-3.379893 1.14745-3.957031 2.873047a1.7815006 1.7815006 0 0 0 -.0039.01172l-13.177741 40.376952c-.945642 2.733572 1.064546 5.568684 3.957032 5.582031a1.7815006 1.7815006 0 0 0 .0078 0h3.490234l-11.890625 34.005859.02344-.0625c-.809448 2.060857.06988 4.337696 2.0625 5.3125 1.992619.974811 4.335162.286041 5.470703-1.626953l-.05078.08008 32.527343-48.61914c.881132-1.307531.9628-2.951148.216806-4.339846-.745995-1.388699-2.154549-2.231573-3.738281-2.21875h-3.179687l14.197265-25.033203v-.002c.782946-1.331496.759957-2.914571.0098-4.22461-.750226-1.309985-2.11484-2.116555-3.638706-2.115187h-22.3125a1.7815006 1.7815006 0 0 0 -.01367 0z" fill="url(#l)" transform="translate(-14 -12)"/><path d="m26 84 14.023595-39.937327h-9.383646l13.024521-40.5729307h22.325664l-17.714886 31.6265407h10.467059z" fill="url(#m)"/><path d="m91 1.6874995-.96875 2.9062505 3.09375-.1875005c-.15911-2.224387-1.155152-2.4401352-2.125-2.71875z" fill="url(#n)" filter="url(#g)" transform="matrix(-1.3780653 0 0 -1.3780653 155.36836 50.092383)"/><path d="m26 84 13.766383-39.395754 7.233617-4.604246 10.907859-4z" fill="url(#o)"/><path d="m43.59375 4-12.945155 40.062673h9.375l-14.023595 39.937327 20-44h-8l16.125-36z" fill="url(#p)"/><path d="m43.675536 3.4897423-12.647372 39.4165077c2.685462-.03316 5.028213-1.500541 6.842267-2.200893 2.307406.0914 6.475532.283699 7.664814.259562 4.391788-1.103535 9.396199-3.525877 12.925812-5.411136l.28125-.4375h-10.46875l17.714479-31.6265407z" fill="url(#q)"/><path d="m43.678624 3.4897423-.15625.5h21.5625l-17.717567 31.6265407h10.46875l-.25.375c.294742-.14921.58686-.283597.875-.4375l.28125-.4375h-10.46875l17.717567-31.6265407z" fill="url(#r)"/><path d="m57.429807 35.116283c-3.071116 1.62811-7.704419 3.837727-11.435983 4.883717l-8.05478.05557c-2.024414.860302-4.234266 2.211387-6.766547 2.282222l-.1875.53125c2.566711-.03169 5.03373-1.502422 6.874789-2.176645l7.697657.27169c4.434125-1.105398 9.344806-3.509452 12.903614-5.410304l.28125-.4375z" fill="url(#s)"/><path d="m26 84 14.023595-39.937327h-9.383646l13.024521-40.5729307 15.33553 7.0102577-10.724752 24.616283h10.467059z" fill="none" filter="url(#u)" stroke="url(#t)"/><path d="m43.625 1.7812495.53125 2.890625-2.53125-1.421875c.17769-.5642061.687414-1.4701237 2-1.46875z" fill="url(#v)" filter="url(#w)" opacity=".811881" transform="matrix(1.5030615 0 0 1.5030615 -22.367288 -2.35024)"/></g></g></svg>