<svg height="24" width="24" xmlns="http://www.w3.org/2000/svg" xmlns:xlink="http://www.w3.org/1999/xlink"><linearGradient id="a" gradientUnits="userSpaceOnUse" x1="64" x2="64" xlink:href="#x" y1="83.729706" y2="-62.169582"/><linearGradient id="b" gradientUnits="userSpaceOnUse" x1="64" x2="64" xlink:href="#w" y1="24" y2="-52"/><radialGradient id="c" cx="66" cy="-10.851176" gradientTransform="matrix(23 -.000001 .00000061 14.035669 -1452 156.4281)" gradientUnits="userSpaceOnUse" r="2" spreadMethod="reflect" xlink:href="#n"/><linearGradient id="d" gradientTransform="matrix(1.3755238 0 0 1.8570645 -21.763731 -96.765704)" gradientUnits="userSpaceOnUse" x1="59.925762" x2="100.4067" y1="101.12862" y2="77.702431"><stop offset="0"/><stop offset="1" stop-opacity="0"/></linearGradient><filter id="e"><feGaussianBlur stdDeviation=".6715998"/></filter><radialGradient id="f" cx="42.617531" cy="120.64188" gradientTransform="matrix(1.909059 1.8392116 -8.6222515 7.5766472 1009.8522 -881.36145)" gradientUnits="userSpaceOnUse" r="3.406888"><stop offset="0" stop-color="#b4942a"/><stop offset="1" stop-color="#e4dcc9"/></radialGradient><linearGradient id="g" gradientTransform="matrix(.9986497 0 0 .9998891 .14044 .005323)" gradientUnits="userSpaceOnUse" x1="75.848022" x2="81.452583" y1="72.804123" y2="77.047241"><stop offset="0" stop-color="#252525"/><stop offset=".5" stop-color="#252525"/><stop offset=".75" stop-color="#252525"/><stop offset="1"/></linearGradient><linearGradient id="h" gradientTransform="matrix(.9986497 0 0 .9998891 .14044 .005323)" gradientUnits="userSpaceOnUse" x1="76.708534" x2="80.579521" y1="83.325729" y2="87.154587"><stop offset="0" stop-color="#d4a100" stop-opacity=".976471"/><stop offset="1" stop-color="#ffc712"/></linearGradient><linearGradient id="i" gradientTransform="matrix(1.2875994 1.1737414 -.5465891 .6213041 81.686465 27.89447)" gradientUnits="userSpaceOnUse" x1="11.326384" x2="14.493531" y1="57.383999" y2="57.383999"><stop offset="0" stop-color="#9a7600"/><stop offset=".09292036" stop-color="#e3ad00"/><stop offset=".5043171" stop-color="#ffcd2c"/><stop offset=".91571385" stop-color="#e3ad00"/><stop offset="1" stop-color="#b98d00"/></linearGradient><linearGradient id="j" gradientTransform="matrix(.9992082 0 0 .9993395 .108362 -.090375)" gradientUnits="userSpaceOnUse" x1="114.92793" x2="100.65602" y1="-22.560064" y2="-22.052734"><stop offset="0" stop-color="#980000"/><stop offset="1" stop-color="#db5c5c"/></linearGradient><linearGradient id="k" gradientUnits="userSpaceOnUse" x1="-12.817558" x2="82.172836" y1="7.462277" y2="7.462277"><stop offset="0" stop-color="#fff" stop-opacity=".683453"/><stop offset="1" stop-color="#fff" stop-opacity="0"/></linearGradient><filter id="l"><feGaussianBlur stdDeviation=".31468463"/></filter><radialGradient id="m" cx="34.677639" cy="7.462277" gradientTransform="matrix(-1.5103 .00264127 -.00011671 -.00911022 87.0522 7.438666)" gradientUnits="userSpaceOnUse" r="47.595196" xlink:href="#n"/><linearGradient id="n"><stop offset="0" stop-color="#fff"/><stop offset="1" stop-color="#fff" stop-opacity="0"/></linearGradient><linearGradient id="o" gradientTransform="matrix(.6182226 0 0 .6232687 24.10803 47.993844)" gradientUnits="userSpaceOnUse" x1="33.342377" x2="24.450998" y1="117.83894" y2="107.35519"><stop offset="0"/><stop offset="1" stop-color="#515151"/></linearGradient><linearGradient id="p" gradientTransform="matrix(1.6732108 1.5189394 -1.5009523 1.6928488 18.675678 -24.465565)" gradientUnits="userSpaceOnUse" x1="48.498562" x2="48.732723" xlink:href="#n" y1=".811505" y2="2.365727"/><linearGradient id="q" gradientTransform="matrix(.9973012 0 0 .9997782 .28069 .010646)" gradientUnits="userSpaceOnUse" x1="92.226158" x2="96.579895" y1="54.119438" y2="57.15118"><stop offset="0" stop-color="#ea3838"/><stop offset="1" stop-color="#c40000"/></linearGradient><radialGradient id="r" cx="49.011971" cy="2.674308" gradientTransform="matrix(2.2600183 0 0 .2752449 -2.259041 -25.415382)" gradientUnits="userSpaceOnUse" r="1.724619" xlink:href="#s"/><linearGradient id="s"><stop offset="0" stop-color="#fff"/><stop offset="1" stop-color="#252525" stop-opacity="0"/></linearGradient><radialGradient id="t" cx="49.011971" cy="2.674308" gradientTransform="matrix(1.550633 0 0 .1873121 21.621938 -31.864287)" gradientUnits="userSpaceOnUse" r="1.724619" xlink:href="#s"/><radialGradient id="u" cx="49.011971" cy="2.674308" gradientTransform="matrix(1.5495914 0 0 .1876849 -193.24041 -23.535874)" gradientUnits="userSpaceOnUse" r="1.724619" xlink:href="#s"/><clipPath id="v"><rect height="125.19099" rx="4.333439" ry="4.144913" transform="matrix(-.70710684 -.70710672 -.70710672 .70710684 0 0)" width="125.19099" x="-156.80151" y="-62.379433"/></clipPath><linearGradient id="w"><stop offset="0" stop-color="#c8c8c8"/><stop offset="1" stop-color="#e4e4e4"/></linearGradient><linearGradient id="x"><stop offset="0"/><stop offset="1" stop-color="#7c7c7c"/></linearGradient><filter id="y"><feGaussianBlur stdDeviation="1.36"/></filter><filter id="z" height="1.05568" width="1.348" x="-.174" y="-.02784"><feGaussianBlur stdDeviation="1.16"/></filter><linearGradient id="A" gradientUnits="userSpaceOnUse" x1="70" x2="70" xlink:href="#x" y1="127" y2="32.952141"/><linearGradient id="B" gradientTransform="matrix(1.1428572 0 0 1 -7.142858 0)" gradientUnits="userSpaceOnUse" x1="64" x2="64" xlink:href="#w" y1="100" y2="28"/><radialGradient id="C" cx="64" cy="54.400002" gradientTransform="matrix(7.7142861 0 0 1.7500001 -427.71431 -43.200007)" gradientUnits="userSpaceOnUse" r="16" spreadMethod="reflect" xlink:href="#n"/><radialGradient id="D" cx="89.923889" cy="-1.414208" gradientUnits="userSpaceOnUse" r="113.80746"><stop offset="0" stop-color="#fff"/><stop offset=".5" stop-color="#fff"/><stop offset="1" stop-opacity="0"/></radialGradient><mask id="E" maskUnits="userSpaceOnUse"><path d="m9.923884-81.414215h159.999996v160h-159.999996z" fill="url(#D)" opacity=".6" transform="matrix(.70710683 .70710673 -.70710673 .70710683 0 0)"/></mask><g clip-path="url(#v)" mask="url(#E)" transform="matrix(.1355574 -.13555737 .13555737 .1355574 -6.059962 11.95858)"><rect height="84" rx="18.257076" style="opacity:.85;fill:none;stroke-width:18.297783;stroke-linecap:round;stroke-linejoin:round;stroke:url(#A);filter:url(#y)" transform="matrix(1.1428572 0 0 1 -7.14286 0)" width="28" x="50" y="22"/><rect fill="none" height="84" rx="20.865231" stroke="url(#B)" stroke-linecap="round" stroke-linejoin="round" stroke-width="7.824461" width="32" x="50.000004" y="22"/><rect fill="none" height="84" rx="20.865231" stroke="url(#C)" stroke-linecap="round" stroke-linejoin="round" stroke-width="7.824461" width="32" x="50.000004" y="22"/><g id="F" transform="translate(0 4)"><rect height="94.031357" rx="1.510971" ry="2.608154" style="opacity:.6;fill:none;stroke-width:18.257076;stroke-linecap:round;stroke-linejoin:round;stroke:url(#a);filter:url(#z)" width="3.836991" x="64" y="-56"/><rect fill="url(#b)" height="90.650108" rx="2.576326" ry="2.608154" width="8.563862" x="62.104618" y="-55.70195"/><rect fill="url(#c)" height="89.99807" rx="2.608154" width="8.237843" x="62.430637" y="-55.049911"/></g><use height="128" transform="translate(0 144)" width="128" xlink:href="#F"/></g><g transform="matrix(.20956487 0 0 .20956487 2.184791 -9.982221)"><g fill-rule="evenodd"><path d="m90.067703 48.28801c.613642-.692125 4.648657-.363057 8.944253 3.536477 4.337724 3.937759 5.210074 7.748115 4.441394 8.615025-.5003.564284-1.00061 1.128566-1.50092 1.692851-4.461914-4.050501-8.9238-8.101002-13.385691-12.151503.500309-.564283 1.000624-1.128565 1.500964-1.69285z" fill="#bf0000"/><path d="m36.000762 124 20.247-9.42653.09417-.10772-13.269004-12.28446-.127672.1459z" fill="#b3925d"/><path d="m98.534725 51.799464c-1.025821-.04502-1.882013.614542-2.665637.986566-4.174912 3.698786-21.569273 21.653428-22.000397 22.168708l-17.273332 20.659839-.106627.116066-9.682256 17.633397 23.598527-5.26172 29.942357-36.049245 3.58973-4.294461c.64726-1.199814 1.23861-7.813473-1.74155-12.76732-1.45299-2.415269-2.634991-3.146806-3.660815-3.19183zm5.402365 15.95915c-.0266.04924-.0446.143824-.0711.174098-.0129.01476 1.49247-1.049396.6753-.870498z" fill="url(#d)" filter="url(#e)"/><path d="m37.004018 123.01573 18.885171-8.78019.09416-.10769-12.551842-11.60866-.12769.14592z" fill="url(#f)"/></g><path d="m49.164276 108.94499c1.648961 1.50106 2.755448 1.51054 3.34488 2.0471.09525.0867.175312.18851.243795.29167l44.639991-51.266458-6.480524-5.899315-44.724863 51.363483c.214748.0564.415855.13454.602285.30424.538767.49045.717813 1.65124 2.374436 3.15928z" fill="url(#g)"/><path d="m54.219542 109.12044-1.750182 2.00168c.538752.53092.431653 1.46553 1.421976 2.36702 1.067261.97156 1.630178.45849 2.321697 1.08447l1.771382-2.02599z" opacity=".353488"/><path d="m97.156354 59.801933-44.606049 51.227617c.541583.53354.517441 1.37742 1.512824 2.28353 1.072712.97652 1.555044.55628 2.250088 1.18547l44.627263-51.251869z" fill="url(#h)"/><path d="m47.641192 104.81388-.897802 1.02682-.0345.0376c.447512.42018.395724 1.39005 1.878296 2.86086l.08229.0749.586334.53373.0823.0749c1.616252 1.35012 2.54668 1.16726 3.136095 1.7038l.947655-1.09585z" fill="#252525" opacity=".386047"/><path d="m43.884886 101.37497-.940801.95531c.02064.0187-.05311.1047-.03237.12358.423005.38509.412824 1.36825 1.189787 2.20191l.072.0655.318878.29029.04115.0374c.925767.72156 1.702344.46358 2.175362.82926l.940872-1.07609z" fill="#131313" opacity=".353488"/><path d="m44.501995 104.6749c1.032229.92922 1.738227.6105 2.287845 1.11081l44.606065-51.227604-3.824461-3.481452-44.627276 51.251876c.02096.019.04162.0379.06269.0571.42971.39116.455145 1.35294 1.495139 2.28929z" fill="url(#i)"/><path d="m99.380959-24.64492h18.073061v4.252269h-18.073061z" fill="url(#j)" transform="matrix(.7409346 .6715772 -.6655662 .7463388 0 0)"/><path d="m82.172836 7.4622769c0 .5365014-21.264324.9714217-47.495197.9714217-26.2308732 0-47.495197-.4349203-47.495197-.9714217s21.2643238-.9714217 47.495197-.9714217c26.230873 0 47.495197.4349203 47.495197.9714217z" fill="url(#k)" filter="url(#l)" transform="matrix(.3854946 -.4403693 -1.7345162 -1.5764895 62.874028 110.46407)"/><path d="m106.56087 7.4622769c.00002.232347-31.840086.4212113-71.318555.4230365-39.478469.00183-71.818819-.1840719-72.439038-.4163902-.62022-.2323183 30.7118344-.424103 70.18056-.4295779 39.468725-.00547 72.301293.1774094 73.541553.4096417" fill="url(#m)" transform="matrix(.3184879 -.3665274 -1.2576415 -1.1452705 66.925762 101.47904)"/><path d="m44.721041 119.98334c-1.894932-.77816-4.469372-3.93608-5.787909-5.07837l-2.933131 9.08971z" fill="url(#o)" fill-rule="evenodd"/><path d="m97.676422 50.957862c2.773338 2.157871 4.754818 5.136648 4.863888 5.422718.10904.286071-2.586875-3.046365-4.878244-4.572341-2.273846-1.514326-5.450917-1.552229-5.685693-1.736594-.234782-.184361-1.822614-1.877275-.38221-1.814774 1.506596.06537 3.94013 1.035831 6.082259 2.700991z" fill="url(#p)" fill-rule="evenodd"/><path d="m93.653015 51.592952-2.773744 3.218036 6.482458 5.873697 2.773741-3.186793z" fill="url(#q)"/><path d="m104.60918-25.364759h7.79523v1.708078h-7.79523z" fill="url(#r)" transform="matrix(.7404161 .6721488 -.6634233 .7482443 0 0)"/><path d="m94.946716-31.829779h5.348454v1.162492h-5.348454z" fill="url(#t)" transform="matrix(.6942228 .7197602 -.7693435 .6388354 0 0)"/><path d="m-119.96733-23.501301h5.3449v1.164788h-5.3449z" fill="url(#u)" transform="matrix(-.7514575 -.6597815 -.5893147 .8079036 0 0)"/></g></svg>