<svg height="24" viewBox="0 0 24 24" width="24" xmlns="http://www.w3.org/2000/svg" xmlns:xlink="http://www.w3.org/1999/xlink"><linearGradient id="a"><stop offset="0" stop-color="#b4b4b6"/><stop offset=".5" stop-color="#9c9ca1"/><stop offset="1" stop-color="#cdcdd1"/></linearGradient><linearGradient id="b" gradientTransform="matrix(.40973888 0 0 .24845378 46.138617 23.258463)" gradientUnits="userSpaceOnUse" x1="82.625992" x2="148.58893" y1="685.96204" y2="-265.62833"><stop offset="0" stop-color="#fff"/><stop offset=".42597079" stop-color="#fff"/><stop offset=".5892781" stop-color="#f1f1f1"/><stop offset=".80219781" stop-color="#eaeaea"/><stop offset="1" stop-color="#dfdfdf"/></linearGradient><linearGradient id="c" gradientTransform="matrix(.09096337 0 0 .05515755 9.89296 6.343133)" gradientUnits="userSpaceOnUse" x1="34.312935" x2="286.96298" xlink:href="#a" y1="183.73163" y2="-90.271233"/><linearGradient id="d" gradientUnits="userSpaceOnUse" x1="5.833984" x2="122.16406" xlink:href="#a" y1="64.000977" y2="64.000977"/><linearGradient id="e" gradientUnits="userSpaceOnUse" x1="93.090012" x2="98.908195" xlink:href="#a" y1="61.091805" y2="61.091805"/><g transform="matrix(.171875 0 0 .171875 1.000155 .999845)"><g fill-rule="evenodd"><path d="m11.636719 5.8359375a5.8041015 5.8041015 0 0 0 -5.8027346 5.8027345v104.724608a5.8041015 5.8041015 0 0 0 5.8027346 5.80274h104.724611a5.8041015 5.8041015 0 0 0 5.80273-5.80274v-104.724608a5.8041015 5.8041015 0 0 0 -5.80273-5.8027345z" fill="url(#d)"/><path d="m11.6362 11.638v104.7258h104.7258v-104.7258z" fill="url(#b)"/><path d="m6 2 .00977 20h.99023l.019531-7.5h-.019531l-.0097656-12.5z" fill="url(#c)" transform="matrix(5.8181818 0 0 5.8181818 -5.819082 -5.817282)"/></g><path d="m93.090012 5.819081h5.818186v110.54545h-5.818186z" fill="url(#e)"/></g></svg>