<svg height="24" viewBox="0 0 24 24" width="24" xmlns="http://www.w3.org/2000/svg" xmlns:xlink="http://www.w3.org/1999/xlink"><linearGradient id="a" gradientUnits="userSpaceOnUse" x1="58.181" x2="58.181" y1="128" y2=".0018"><stop offset="0" stop-color="#fff"/><stop offset=".46428573" stop-color="#fff"/><stop offset=".78125" stop-color="#f1f1f1"/><stop offset=".90625" stop-color="#eaeaea"/><stop offset="1" stop-color="#dfdfdf"/></linearGradient><linearGradient id="b" gradientUnits="userSpaceOnUse" x1="58.181" x2="58.181" y1="128" y2=".0018"><stop offset="0" stop-color="#b4b4b6"/><stop offset=".5" stop-color="#9c9ca1"/><stop offset="1" stop-color="#cdcdd1"/></linearGradient><g transform="matrix(-.171875 0 0 .171875 22.999665 1)"><path d="m122.00781 17.470703a5.8066137 5.8066137 0 0 0 -2.17773.494141c-37.943898 16.788107-77.140626 31.300805-116.1132831 46.441406a5.8066137 5.8066137 0 0 0 -3.70507815 5.412109v34.910161a5.8066137 5.8066137 0 0 0 7.96289065 5.39062l116.3613306-46.544921a5.8066137 5.8066137 0 0 0 3.65039-5.390625v-34.910156a5.8066137 5.8066137 0 0 0 -5.97852-5.802735z" fill="url(#b)"/><path d="m122.1801 58.1828-116.362 46.5448v-34.9086c38.914682-15.118078 78.197891-29.659259 116.362-46.5448z" fill="url(#a)"/></g></svg>