<svg height="24" viewBox="0 0 6.3499999 6.3500003" width="24" xmlns="http://www.w3.org/2000/svg" xmlns:xlink="http://www.w3.org/1999/xlink"><linearGradient id="a" gradientTransform="matrix(.22074034 0 0 .27016572 2.861137 262.5662)" gradientUnits="userSpaceOnUse" x1="55.875" x2="70.71875" xlink:href="#q" y1="91.296875" y2="91.296875"/><radialGradient id="b" cx="63.462833" cy="66.417244" gradientTransform="matrix(.23868901 0 0 .03810074 1.738199 277.54305)" gradientUnits="userSpaceOnUse" r="13.788582" xlink:href="#m"/><filter id="c"><feGaussianBlur stdDeviation="1.5999062"/></filter><linearGradient id="d" gradientTransform="matrix(.03116178 0 0 .04506859 -.483098 242.98515)" gradientUnits="userSpaceOnUse" x1="399.77466" x2="399.77466" y1="731.09662" y2="480.60214"><stop offset="0" stop-color="#cbcbcd"/><stop offset=".5" stop-color="#e0e0e2"/><stop offset="1" stop-color="#f2f2f2"/></linearGradient><linearGradient id="e" gradientTransform="matrix(.03116178 0 0 .04506859 30.161964 334.14685)" gradientUnits="userSpaceOnUse" x1="-333.0289" x2="-333.0289" y1="-1473.6504" y2="-776.61371"><stop offset="0" stop-color="#fff"/><stop offset=".49140647" stop-color="#fff"/><stop offset="1" stop-color="#dcdcdc"/></linearGradient><linearGradient id="f" gradientUnits="userSpaceOnUse" x1="19.663105" x2="19.663105" y1="287.77186" y2="283.153664"><stop offset="0" stop-color="#e8e8e8"/><stop offset=".234375" stop-color="#fff"/><stop offset=".69675177" stop-color="#ededed"/><stop offset=".90625" stop-color="#6c6c6c"/><stop offset="1" stop-color="#2b2b2b"/></linearGradient><linearGradient id="g" gradientUnits="userSpaceOnUse" x1="21.886683" x2="23.426082" xlink:href="#h" y1="284.693096" y2="284.693096"/><linearGradient id="h"><stop offset="0" stop-color="#aaa"/><stop offset="1" stop-color="#aaa" stop-opacity="0"/></linearGradient><linearGradient id="i" gradientUnits="userSpaceOnUse" x1="-30.780982" x2="-29.241583" xlink:href="#h" y1="284.693096" y2="284.693096"/><filter id="j"><feGaussianBlur stdDeviation=".50622511"/></filter><linearGradient id="k" gradientTransform="matrix(.26458333 0 0 .25823082 -.654811 -304.29908)" gradientUnits="userSpaceOnUse" x1="101.3308" x2="101.3308" y1="51.34185" y2="66.668198"><stop offset="0" stop-color="#cbcbcd"/><stop offset=".66545075" stop-color="#e0e0e2"/><stop offset="1" stop-color="#fff"/></linearGradient><radialGradient id="l" cx="63.912209" cy="115.70919" fy="115.7093" gradientTransform="matrix(.16145195 0 0 .02180632 6.614583 294.56994)" gradientUnits="userSpaceOnUse" r="63.912209" xlink:href="#m"/><linearGradient id="m"><stop offset="0"/><stop offset="1" stop-opacity="0"/></linearGradient><radialGradient id="n" cx="63.816387" cy="120.57538" gradientTransform="matrix(.25671949 0 0 .07513332 .550423 287.26689)" gradientUnits="userSpaceOnUse" r="14.672465"><stop offset="0"/><stop offset=".5714286"/><stop offset="1" stop-opacity="0"/></radialGradient><linearGradient id="o" gradientTransform="matrix(.22074034 0 0 .23746357 2.861137 264.65265)" gradientUnits="userSpaceOnUse" x1="94.42218" x2="100.78125" xlink:href="#m" y1="30.355696" y2="35.359375"/><linearGradient id="p" gradientTransform="matrix(.22074034 0 0 .27016546 2.861138 262.5662)" gradientUnits="userSpaceOnUse" spreadMethod="reflect" x1="55.826965" x2="121.36113" y1="61.3554" y2="52.6054"><stop offset="0" stop-color="#bdbdbd"/><stop offset="1" stop-color="#bdbdbd" stop-opacity="0"/></linearGradient><linearGradient id="q"><stop offset="0" stop-color="#fff" stop-opacity=".537906"/><stop offset=".21464799" stop-color="#fff"/><stop offset=".66342056" stop-color="#fff" stop-opacity=".415162"/><stop offset="1" stop-color="#fff" stop-opacity="0"/></linearGradient><radialGradient id="r" cx="51.78791" cy="41.299831" gradientTransform="matrix(.4343787 -.2149771 .35891594 .76254239 -25.518612 249.07113)" gradientUnits="userSpaceOnUse" r="15.995545" xlink:href="#q"/><radialGradient id="s" cx="52.715279" cy="41.561275" gradientTransform="matrix(.4343787 -.21378278 .35891594 .7583059 -25.518612 249.24051)" gradientUnits="userSpaceOnUse" r="15.995545" xlink:href="#q"/><radialGradient id="t" cx="57.214077" cy="124.00706" fx="49.233025" fy="124.00705" gradientTransform="matrix(.61953168 -.00000006 0 .28763835 -17.455568 233.79883)" gradientUnits="userSpaceOnUse" r="11.383312" xlink:href="#u"/><linearGradient id="u"><stop offset="0" stop-color="#fff"/><stop offset="1" stop-color="#fff" stop-opacity="0"/></linearGradient><radialGradient id="v" cx="63.462833" cy="66.417244" gradientTransform="matrix(.23868901 0 0 .06669799 1.738199 275.64367)" gradientUnits="userSpaceOnUse" r="13.788582" xlink:href="#m"/><linearGradient id="w" gradientTransform="matrix(.22047697 -.01077964 .0115261 .23574433 2.886126 263.42369)" gradientUnits="userSpaceOnUse" x1="26.516504" x2="67.55307" xlink:href="#u" y1="6.289245" y2="6.289245"/><linearGradient id="x" gradientTransform="matrix(.22074034 0 0 .16502502 2.861137 264.39631)" gradientUnits="userSpaceOnUse" x1="27.080584" x2="59.768688" xlink:href="#u" y1="-14.285192" y2="17.40625"/><linearGradient id="y" gradientTransform="matrix(.24830857 0 0 .25923263 1.418237 263.05161)" gradientUnits="userSpaceOnUse" x1="48.648247" x2="63.212357" xlink:href="#m" y1="123.09119" y2="60.341194"/><g transform="matrix(.171875 0 0 .171875 .264573 -44.95694)"><path d="m12.003906 1.0507812a8.155008 1.9949337 0 0 0 -5.6816404.5644532c-.1691402.0384468-.3157913.0814901-.4707031.1230468a8.155008 1.9949337 0 0 0 -.1484375.0410157c-1.1917061.337941-1.9375.762077-1.9375 1.2167969 0 2.1274735 6.1777344 8.6738282 6.1777344 8.6738282.025624.03667.054728.09978.054687.169922l-.00391.802734-.066406 9.917969c-.0001019.01509.022653.02659.027344.04102v.03906c.025458.103209.1117366.118967.1855466.152344.000379-.01168-.000374-.02348 0-.03516.256311.114873.756539.189454 1.595703.189454.0445 0 .08121-.0035.125-.0039.02531.000324.05562.0039.08008.0039.06536 0 .147699-.01021.220703-.01367.0019-.000092.0039.000093.0059 0 .584154-.01809 1.063503-.07287 1.376953-.160156v.02344l.185547-.06836v-.0059c.127297-.05329.207031-.112458.207031-.183594 0-.0013.000124-.0046 0-.0059l.062462-10.710859c0-.01055.005-.02026.0059-.03125.02947-.03467.04492-.06557.04492-.0918 0-.0039-.0034-.0079-.0039-.01172-.0035.000797-.01203.0012-.01563.002.01773-.01894 6.203125-6.6282657 6.203125-8.7734374 0-.1697853-.215949-.3598897-.576172-.5527344a8.155008 1.9949337 0 0 0 -7.654297-1.3125z" fill="#d0d0d0" transform="matrix(1.539394 0 0 1.539394 -1.539337 261.56765)"/><ellipse cx="16.933334" cy="297.09317" fill="url(#l)" opacity=".381395" rx="10.318751" ry="1.393691"/><ellipse cx="16.933334" cy="296.32614" fill="url(#n)" opacity=".413934" rx="3.766708" ry="1.10239"/><path d="m14.115408 263.95214v-.73929z" fill="#fff" fill-opacity=".756881"/><path d="m27.190849 268.0365c-2.842649 4.00968-5.837781 7.7048-7.777384 11.71448l.309876-.0105 9.109266-12.16406c-.604989.25688-1.147088.401-1.641758.46008z" fill="url(#o)" opacity=".42"/><path d="m16.954088 263.2057c-7.0085037 0-12.6963338 1.3867-12.6963338 2.97557 0 3.27502 9.5108818 13.35213 9.5108818 13.35213.04081.0584.08939.15521.08591.26801l-.110697 16.49499c-.0024.35533.851035.59473 2.784957.59473 1.892583 0 3.387199-.22248 3.387199-.62846 0-.002.000191-.007 0-.009l.09612-16.48599c0-.0661.009-.14128.03975-.19762 0 0 9.557156-10.20522 9.557156-13.51222 0-1.12637-5.646441-2.85214-12.65494-2.85214z" style="stroke:#575757;stroke-width:.307879;stroke-linecap:round;stroke-linejoin:round;stroke-dashoffset:4;fill:url(#p)"/><path d="m16.953922 266.15778c-5.168295 0-9.3341621.50788-10.0160417 1.86483 2.227259.8738 5.8176137 1.40816 10.0160417 1.40816 4.193843 0 8.008861-.52206 10.236927-1.39427-.668723-1.36068-5.058892-1.87872-10.236927-1.87872z"/><path d="m14.835638 279.9059-.110697 16.79793c.472303.0993 1.418538.1873 2.118384.1873.582252 0 1.418614-.10048 1.85003-.17038l.110697-16.84858c-1.092204.24393-2.87621.41965-3.968414.0337z" fill="url(#a)" opacity=".614754"/><path d="m13.942333 279.59352c-.000873.006-.0062.0108-.0062.0169 0 .32295 1.580635.87211 3.087212.87211 1.506575 0 3.066479-.58289 3.06648-.90584 0-.006-.0054-.011-.0062-.0169-.600839.13617-1.930986.27169-3.060294.27169-1.129041 0-2.480142-.10185-3.081026-.23796z" fill="url(#b)" opacity=".11"/><path d="m14.835638 279.94469-3.03553-10.51392c2.335252.26645 4.717967.15862 7.061719.0424l-.05778 10.43775c-1.092204.20436-2.87621.35705-3.968414.0337z" fill="url(#r)" opacity=".758197"/><path d="m13.942333 279.59352c-.000873.006-.0062.0108-.0062.0169 0 .32295 1.580635.6572 3.087212.6572 1.506575 0 3.066479-.36798 3.06648-.69093 0-.006-.0054-.011-.0062-.0169-.600839.13617-1.948481.41497-3.07779.41497-1.129041 0-2.462646-.24512-3.06353-.38124z" fill="url(#b)" opacity=".11"/><ellipse cx="16.9384" cy="266.25577" rx="12.546605" ry="3.027167" style="fill:none;stroke:#5b5b5b;stroke-width:.29568;stroke-linecap:round;stroke-linejoin:round;stroke-dashoffset:4"/><path d="m14.650285 279.9126-3.567583-10.48183c2.335252.26497 6.042409.21401 8.386161.0985l-.518479 10.37946c-1.092205.20323-3.207895.32542-4.300099.004z" fill="url(#s)" opacity=".758197"/><ellipse cx="16.938402" cy="266.2558" rx="12.55377" ry="3.070989" style="fill:none;stroke-width:.208022;stroke-linecap:round;stroke-linejoin:round;stroke-dashoffset:4;stroke:url(#t)"/><path d="m13.942333 279.59352c-.000873.006-.0062.0108-.0062.0169 0 .32295 1.589383 1.11091 3.095959 1.11091s3.057732-.82169 3.057733-1.14464c0-.006-.0054-.011-.0062-.0169-.600839.13617-2.000968.47467-3.130276.47467-1.129042 0-2.41016-.30482-3.011045-.44094z" fill="url(#v)" opacity=".11"/><path d="m14.656286 279.86309.06865 16.84074c.472303.0993 1.418538.1873 2.118384.1873.582252 0 1.418614-.10048 1.85003-.17038l.234864-16.84858c-1.092204.24393-3.179728.37684-4.271933-.009z" fill="url(#a)" opacity=".614754"/><path d="m19.432556 279.74903h.275925l-.110697 16.80771-.285682.10422z" opacity=".213115"/><path d="m8.8799178 264.15733c1.3633562-.26371 2.7191072-.47186 4.0632922-.59552l.141696 2.62403c-1.116075.0775-2.098343.38867-3.155854.60205z" fill="url(#w)" opacity=".836066"/><path d="m11.980141 266.65793c-1.177349.0493-1.39478.0678-2.2967508.15435.8504498.3609 1.8268638.65629 2.6419838.96952 1.084138.0439 2.243471.0658 3.455965.0774-.778743-.38809-1.74637-1.36381-2.904114-1.50801-.812998-.10126-.879208.31448-.897084.30678z" fill="url(#x)" opacity=".836066"/><path d="m13.856872 279.70084-.0043-.004-.06802 16.72342c.03919.15888.172058.18245.285681.23383.195693-6.03415-.02285-12.28977-.213325-16.9532z" fill="url(#y)" opacity=".532787"/></g><g transform="matrix(.171875 0 0 .171875 .528786 -44.169132)"><path d="m49.256336 34.532577h37.348405c.76597 0 1.38261.72808 1.38261 1.63246v32.604814c0 .90439-.61664 1.63247-1.38261 1.63247h-37.348405c-.765966 0-1.38261-.72808-1.38261-1.63247v-32.604814c0-.90438.616644-1.63246 1.38261-1.63246z" style="opacity:.68;fill:none;stroke:#000;stroke-width:4;stroke-linecap:round;stroke-linejoin:round;stroke-dashoffset:4;filter:url(#c)" transform="matrix(.38484968 0 0 .38484968 -1.536797 265.28794)"/><path d="m17.417351 278.5782h14.377795c.294822 0 .532174.28019.532174.62823v12.54718h-15.442142v-12.54718c0-.34804.237349-.62823.532173-.62823z" fill="url(#d)"/><path d="m17.414347 278.5782c-.294824 0-.529168.27734-.529168.62537v12.55289c0 .34804.234344.62538.529168.62538h14.383805c.294826 0 .529168-.27734.529168-.62538v-12.55289c0-.34803-.234342-.62537-.529168-.62537zm.360797.93807h13.662211c.280083 0 .505116.26273.505116.58929v11.30213c0 .32656-.225033.58931-.505116.58931h-13.662211c-.280083 0-.505116-.26275-.505116-.58931v-11.30213c0-.32656.225033-.58929.505116-.58929z" fill="url(#e)"/><g transform="matrix(1.3845916 0 0 .99998322 -11.841249 -1.5344)"><rect fill="url(#f)" height="4.61818" rx="1.078735" ry="1.539399" width="8.894301" x="21.886681" y="283.15366"/><rect fill="url(#g)" height="4.618209" rx="1.040345" ry="1.539399" width="4.447153" x="21.886681" y="283.15366"/><rect fill="url(#i)" height="4.618209" rx=".963569" ry="1.539399" transform="scale(-1 1)" width="4.447152" x="-30.780985" y="283.15366"/></g><path d="m161.41055-344.5433h30.88367c1.10703 0 1.99824 1.22517 1.99824 2.74702v2.27745c0 1.52185-.89121 2.74703-1.99824 2.74703h-30.88367c-1.10703 0-1.99824-1.22518-1.99824-2.74703v-2.27745c0-1.52185.89121-2.74702 1.99824-2.74702z" fill-opacity=".924855" filter="url(#j)" transform="matrix(.35105195 0 0 -.31938175 -37.445712 181.350128)"/><path d="m21.855041-291.35568h7.716717c.424571 0 .766373.33891.766373.75989v.77502c0 .42098-.341802.75989-.766373.75989h-7.716717c-.424571 0-.766373-.33891-.766373-.75989v-.77502c0-.42098.341802-.75989.766373-.75989z" fill="url(#k)" transform="matrix(1.3347929 0 0 -1.2876134 -9.683404 -84.350816)"/><text font-family="sans-serif" font-size="2.391986" letter-spacing="0" stroke-width=".0598" word-spacing="0" x="22.61891" y="290.13321"><tspan font-family="FreeSans" font-weight="600" stroke-width=".0598" x="22.61891" y="290.13321">OK</tspan></text></g></svg>