<svg height="24" viewBox="0 0 24 24" width="24" xmlns="http://www.w3.org/2000/svg" xmlns:xlink="http://www.w3.org/1999/xlink"><linearGradient id="a"><stop offset="0" stop-color="#fff"/><stop offset=".42597079" stop-color="#fff"/><stop offset=".5892781" stop-color="#f1f1f1"/><stop offset=".80219781" stop-color="#eaeaea"/><stop offset="1" stop-color="#dfdfdf"/></linearGradient><linearGradient id="b"><stop offset="0" stop-color="#b4b4b6"/><stop offset=".5" stop-color="#9c9ca1"/><stop offset="1" stop-color="#cdcdd1"/></linearGradient><linearGradient id="c" gradientUnits="userSpaceOnUse" x1=".34186" x2="134.160047" xlink:href="#a" y1="103.093432" y2="103.093432"/><linearGradient id="d" gradientUnits="userSpaceOnUse" x1="5.8181" x2="128.34186" xlink:href="#a" y1="24.00135" y2="27.457069"/><linearGradient id="e" gradientUnits="userSpaceOnUse" x1=".011719" x2="127.53635" xlink:href="#b" y1="24.001953" y2="23.873388"/><linearGradient id="f" gradientUnits="userSpaceOnUse" x1="0" x2="128.68372" xlink:href="#b" y1="73.884789" y2="73.884789"/><g transform="matrix(0 -.171875 -.171875 0 22.719184 23.058757)"><path d="m64.34186 4.1843419c-15.611688-.0000429-31.084243 1.5675437-42.548828 4.4335938-5.732293 1.4330253-10.474292 3.1304343-14.2031247 5.3808593-3.7288329 2.250424-7.23588183 5.592753-7.23632809 10.537109.00044599 4.944356 3.50749519 8.286685 7.23632809 10.537109 3.7288327 2.250425 8.4708317 3.947835 14.2031247 5.38086 11.464585 2.86605 26.93714 4.433637 42.548828 4.433594 15.611355-.000088 31.082696-1.567549 42.54688-4.433594 5.73208-1.433022 10.47636-3.130455 14.20507-5.38086 3.72871-2.250404 7.23393-5.592858 7.23438-10.537109-.00045-4.94425-3.50567-8.286704-7.23438-10.537109s-8.47299-3.947837-14.20507-5.3808593c-11.464184-2.8660446-26.935525-4.4335059-42.54688-4.4335938z" fill="url(#e)"/><path d="m128.34186 24.547978c-.17204.436589-2.59569.709527-2.38672.446911.10449-.131309-1.33358 1.458043-1.06836 1.193359.26522-.264685-1.61161 1.420979-1.17187 1.058594.43973-.362386-1.87938 1.387206-1.26367.957031.6157-.430176-2.14056 1.353914-1.35352.878906 1.57409-.950015-5.1975 2.616089-2.98242 1.580078 2.21508-1.03601-6.15469 2.447471-3.36133 1.402344s-7.05721 2.272914-3.74414 1.263672-7.89541 2.07932-4.11719 1.134766c3.77822-.944555-8.663425 1.873495-4.47266 1.013671 4.19078-.859824-9.34799 1.650875-4.79687.890625 4.55112-.760249-9.944642 1.41099-5.085938.761719 4.858705-.649271-10.444539 1.160294-5.332031.630859 5.112508-.529434-10.846547.89696-5.535156.494141 5.311391-.402818-11.143753.628678-5.689453.357422s-11.333373.351292-5.792969.214844-11.414877.0723-5.845703.07227c5.569135-.000015-11.386086-.208669-5.845703-.07227 5.540383.136403-11.247265-.486058-5.792969-.214844s-11.000854-.760202-5.689453-.357422-10.647686-1.023539-5.535156-.494141c5.112529.529399-10.19272-1.280098-5.333985-.630859 4.858736.649239-9.635143-1.52194-5.083984-.761719 4.551159.760222-8.98769-1.750425-4.796875-.890625s-8.250921-1.956253-4.472656-1.011718c3.778264.944534-7.432263-2.145946-4.119141-1.136719 3.313123 1.009227-6.537552-2.30879-3.74414-1.263672 2.793411 1.045118-5.5764591-2.438351-3.361329-1.402344 2.215131 1.036008-4.5565537-2.530098-2.9824211-1.580078.7870663.47501-1.969239-1.307134-1.3535156-.876953s-1.7034276-1.321378-1.2636719-.958984c.4397557.362393-1.4371089-1.323289-1.171875-1.058594s-1.172856-1.322727-1.0683594-1.191406c.2089932.262641-2.20101425-.024367-2.37304679-.460938l-.0117192 78.557526v1.8304.84961c.001081.0293.002383.0586.003906.0879-.001869.0469-.003171.0937-.003906.14061.00000286.0325.0153207.0575.015625.0899.0250971.48061.10972796.95624.25195312 1.41601.65253435 4.09618 3.31304275 7.03751 6.63274935 9.04102 3.7303485 2.25134 8.4740915 3.94962 14.2070315 5.38281 11.465879 2.86638 26.938379 4.43364 42.550781 4.43359 15.612069-.00008 31.085308-1.56917 42.55078-4.43554 5.73274-1.43319 10.47485-3.12954 14.20508-5.38086 3.47461-2.09705 6.99198-5.17857 7.42601-9.58665.0516-.21697.0908-.43674.11719-.6582.003-.0997.0488-.17828.0488-.2793-.002-.0658-.004-.13156-.008-.19726.004-.0709.007-.14188.008-.21289v-.83985l-.004.0391c-.0003-.0378-.00097-.0755-.002-.11329z" fill="url(#f)" fill-rule="evenodd"/><path d="m122.52155 34.535904c-9.21673 6.189663-26.135415 10.527305-58.17969 10.544922-31.512435-.024787-52.33049-5.094941-57.8399578-10.414588l-.34186 68.656602v2.67968c.0007065 8.03306 25.7077288 14.54445 57.8399578 14.54436 32.131468-.00018 58.52297-6.51149 58.52368-14.54436-.0782-.1182 0-.40055 0-.41015v-.83985c.00065-.003.00095-.007.002-.01-.00064-.005-.00095-.009-.002-.0137z" fill="url(#c)" fill-rule="evenodd"/><path d="m122.52196 24.535301c0 8.03312-26.048521 14.54525-58.181 14.54525s-58.1809996-6.51213-58.1809996-14.54525c.0000011-8.033119 26.0485216-14.5452492 58.1809996-14.5452492 32.132479 0 58.181 6.5121302 58.181 14.5452492z" fill="url(#d)"/></g></svg>