<svg height="24" width="24" xmlns="http://www.w3.org/2000/svg" xmlns:xlink="http://www.w3.org/1999/xlink"><linearGradient id="a"><stop offset="0" stop-color="#fff"/><stop offset="1" stop-color="#fff" stop-opacity="0"/></linearGradient><linearGradient id="b"><stop offset="0" stop-color="#0968ef"/><stop offset="1" stop-color="#aecffc"/></linearGradient><linearGradient id="c" gradientUnits="userSpaceOnUse" x1="73.148689" x2="20.154539" y1="16.524591" y2="4.777212"><stop offset="0" stop-color="#fff"/><stop offset=".42597079" stop-color="#fff"/><stop offset=".5892781" stop-color="#f1f1f1"/><stop offset=".80219781" stop-color="#eaeaea"/><stop offset="1" stop-color="#dfdfdf"/></linearGradient><linearGradient id="d" gradientUnits="userSpaceOnUse" x1="60.225525" x2="43.933361" y1="13.882052" y2="-28.738575"><stop offset="0" stop-color="#7c7c80"/><stop offset=".5" stop-color="#69696e"/><stop offset="1" stop-color="#9b9ba3"/></linearGradient><linearGradient id="e" gradientTransform="matrix(-1 0 1.0391918 2.6020388 125.70794 -32.532614)" gradientUnits="userSpaceOnUse" x1="102.02351" x2="63.741646" xlink:href="#a" y1="7.380471" y2="41.850632"/><radialGradient id="f" cx="1.608865" cy="43.392368" gradientTransform="matrix(1.0623106 -.1081395 .1395431 1.3891768 65.036345 -5.127747)" gradientUnits="userSpaceOnUse" r="51.478786"><stop offset="0" stop-color="#9fbde2"/><stop offset="1" stop-color="#fff"/></radialGradient><linearGradient id="g" gradientTransform="matrix(.9540327 .3642812 -.3646886 .952822 78.177143 24.111674)" gradientUnits="userSpaceOnUse" x1="37.405655" x2="-122.80884" y1="14.747621" y2="120.06515"><stop offset="0" stop-color="#245795"/><stop offset="1" stop-color="#afd4ff"/></linearGradient><linearGradient id="h" gradientTransform="matrix(0 -1 -1 0 135.18938 123.601)" gradientUnits="userSpaceOnUse" x1="34.25" x2="34.25" xlink:href="#a" y1="-117.20911" y2="161.86531"/><linearGradient id="i" gradientTransform="matrix(.2409212 1.2764479 -1.2764479 .2409212 36.574434 -66.370578)" gradientUnits="userSpaceOnUse" x1="113.15723" x2="39.268185" xlink:href="#b" y1="25.786163" y2="25.786163"/><linearGradient id="j" gradientUnits="userSpaceOnUse" x1="82.344865" x2="121.862165" xlink:href="#b" y1="73.605877" y2="53.430432"/><g transform="matrix(-.171875 0 0 -.171875 22.99813 21.997536)"><g fill="#0069eb" fill-opacity=".894118" transform="rotate(90)"><path d="m58.168465-17.443674h5.8172v11.6857h-5.8172z"/><path d="m58.168465-34.898026h5.8172v11.6857h-5.8172z"/><path d="m58.168465-58.170425h5.8172v11.6857h-5.8172z"/></g><g transform="matrix(-1 0 0 1 130.48325 -18.437715)"><path d="m49.979538 26.929435-95.049975 36.385102 78.30727-80.136564z" style="opacity:.891386;stroke-width:5.699889;stroke-linecap:round;stroke-linejoin:round;stroke-dashoffset:1.0878;fill:url(#c);stroke:url(#d)" transform="matrix(.9540327 .3642812 -.3646886 .952822 78.088755 24.000063)"/><path d="m83.108632 38.35449c9.436887 5.883327 21.810878 12.40481 30.779568 15.44273l-10.95524 11.446126-28.945554-16.71743c-1.378572-1.055803-3.019822-2.343141-4.783819-3.766346z" fill="url(#e)" fill-rule="evenodd"/></g><path d="m116.0384 68.177238-103.972115-.045908 104.154685-47.9405z" style="opacity:.891386;stroke-width:5.818;stroke-linecap:round;stroke-linejoin:round;stroke-dashoffset:1.0878;fill:url(#f);stroke:url(#g)" transform="matrix(-1 0 0 -1 130.48325 140.90714)"/><path d="m48.551885 69.855925-12.4375-.03125-8.0625 15.21875-16.15625-13.28125 6 2.15625c1.55333.561567 3.27009.410523 4.6875-.4375 1.33329-.797689 2.25743-2.141987 2.5625-3.65625h-10.6875c-1.60438.0017-2.90457 1.301867-2.90625 2.90625l-.0625 12.9375 14.75 12.125005c1.27399 1.05815 2.969094 1.47754 4.59375 1.15625 1.624656-.3213 3.005923-1.34908 3.78125-2.812505zm-2.46875-17.375-1.53125-1.03125c-2.132012-1.459592-4.992532-1.238552-6.875.53125l-.5625.53125zm-9.40625-25.6875c-.0039-.561622-.103433-1.111686-.28125-1.65625-.474178-1.452171-1.520093-2.639213-2.90625-3.28125l-8.90625-4.15625c-2.50339-1.169256-5.48568-.299978-6.96875 2.03125-2.66552 4.188235-4.70335 8.841873-6.0625 13.75l.0625 16.15625c-.00078.773999.29474 1.516253.84375 2.0625.549.546247 1.31879.847458 2.09375.84375l16.4375-.03125c-1.981996-10.421395 1.505431-16.652869 5-23 .462598-.835214.693951-1.782714.6875-2.71875zm-1.875 43.03125h-9.40625c.85532 1.312403 2.22143 2.204096 3.78125 2.4375 1.671421.250101 3.365727-.276403 4.59375-1.4375z" fill="#fff" fill-rule="evenodd" opacity=".629428"/><path d="m105.00188 75.468425-51.14673 23.426075c-7.31035.015-36.336102-16.69722-36.40085-23.2574z" fill="url(#h)" opacity=".891386"/><path d="m58.168465-127.98742h5.8172v11.6857h-5.8172z" fill="#0069eb" fill-opacity=".894118" transform="rotate(90)"/><path d="m58.168465-104.76469h5.8172v11.6857h-5.8172z" fill="#0069eb" fill-opacity=".894118" transform="rotate(90)"/><path d="m58.168465-81.442825h5.8172v11.6857h-5.8172z" fill="#0069eb" fill-opacity=".894118" transform="rotate(90)"/><g fill-rule="evenodd" transform="matrix(-.8660254 .50000001 .50000001 .8660254 82.333564 -35.556098)"><path d="m22.984375 24.876953c-7.186791 12.278067-8.562805 29.601856-1.707031 43.121094a1.6826976 1.6826976 0 0 1 -2.072266 2.34375l-13.7753905-4.974609-2.7089844 3.769531 26.5019529 21.804687 16.078125-30.304687-3.667969-2.501953-10.486328 9.919922a1.6826976 1.6826976 0 0 1 -2.685546-.523438c-8.765372-19.170568-4.160163-31.182171.455078-39.878906z" fill="url(#i)" transform="matrix(-.86424993 .50306268 .50306268 .86424993 88.802978 -9.788286)"/><path d="m81.453965 23.275158-2.548086 3.785919c19.180597 9.578171 22.828051 31.746083 20.893287 50.023633l9.496594 6.424823 11.93554-32.177734-4.23632-1.894531-9.4043 11.228515c-.97845 1.16598-2.87898.537054-2.96875-.982422-.87592-15.132884-10.780143-29.412291-23.167965-36.408203z" fill="url(#j)"/></g></g></svg>