<svg height="24" viewBox="0 0 24 24" width="24" xmlns="http://www.w3.org/2000/svg" xmlns:xlink="http://www.w3.org/1999/xlink"><linearGradient id="a" gradientUnits="userSpaceOnUse" x1=".001953" x2="127.99805" y1="64.219604" y2="64.219604"><stop offset="0" stop-color="#b4b4b6"/><stop offset=".5" stop-color="#9c9ca1"/><stop offset="1" stop-color="#cdcdd1"/></linearGradient><linearGradient id="b" gradientUnits="userSpaceOnUse" x1="63.9991" x2="63.82843" y1="128" y2="1.347994"><stop offset="0" stop-color="#fff"/><stop offset=".46428573" stop-color="#fff"/><stop offset=".78125" stop-color="#f1f1f1"/><stop offset=".90625" stop-color="#eaeaea"/><stop offset="1" stop-color="#dfdfdf"/></linearGradient><g transform="matrix(.171875 0 0 .171875 1 1)"><path d="m38.207031 15.226562c-15.639723-.259477-27.588092 9.474121-35.0605466 13.310547a5.7897907 5.7897907 0 0 0 -3.14453127 5.150391v60.623047a5.7897907 5.7897907 0 0 0 10.52539087 3.328125c7.142074-10.16645 13.550463-12.254117 21.689453-11.324219s18.161013 6.101149 28.646484 12.861328l-.09375-.06055c15.221867 10.238109 27.962912 14.707439 39.210938 14.037109 11.248021-.67032 20.221791-6.84636 26.794921-15.285155a5.7897907 5.7897907 0 0 0 1.22266-3.556641v-60.623044a5.7897907 5.7897907 0 0 0 -10.18555-3.765625c-7.16224 8.361884-14.20335 12.160912-21.953125 12.310547-7.749774.149634-17.071641-3.578396-28.111328-12.957031l.310547.283203c-10.187264-10.014306-20.467651-14.176344-29.851563-14.332032z" fill="url(#a)"/><path d="m5.7906153 33.687803v60.622897c16.0444987-22.838687 36.7739267-13.819841 58.2093847 0 29.234602 19.66295 46.39202 15.17152 58.20939 0v-60.622897c-15.73016 18.364886-34.83473 19.857666-58.20939 0-25.102178-24.675998-44.708038-6.931716-58.2093847 0z" fill="url(#b)"/></g></svg>