<svg height="24" width="24" xmlns="http://www.w3.org/2000/svg" xmlns:xlink="http://www.w3.org/1999/xlink"><linearGradient id="a" gradientUnits="userSpaceOnUse" x1="20.142858" x2="20.142858" y1="20.28572" y2="16.000004"><stop offset="0" stop-color="#e60000"/><stop offset=".5" stop-color="#a02525"/><stop offset="1" stop-color="#e60000"/></linearGradient><linearGradient id="b" gradientTransform="matrix(.10301455 .10301455 .10301455 -.10301455 .753849 5.522662)" gradientUnits="userSpaceOnUse" x1="113.15723" x2="-107.73106" y1="25.786163" y2="6.373069"><stop offset="0" stop-color="#0968ef"/><stop offset="1" stop-color="#aecffc"/></linearGradient><linearGradient id="c" gradientTransform="matrix(.18269429 0 0 .24456788 .02595 .43402)" gradientUnits="userSpaceOnUse" x1="46.048" x2="46.048" y1="128.01709" y2="16.6203"><stop offset="0" stop-color="#c7cdd7"/><stop offset="1" stop-color="#fff"/></linearGradient><linearGradient id="d" gradientUnits="userSpaceOnUse" x1="20.80606" x2="20.80606" y1="-1.999942" y2="20.999734"><stop offset="0" stop-color="#fff"/><stop offset="1" stop-color="#555"/></linearGradient><text x="552.36987" y="98.810379"><tspan fill="#555" x="552.36987" y="115.61037"/></text><text x="284.18808" y="98.810379"><tspan fill="#555" x="284.18808" y="115.61037"/></text><text x="-10.252362" y="29.877319"><tspan fill="#555" x="-10.252362" y="46.677307"/></text><text x="161.66467" y="-143.85602"><tspan fill="#555" x="161.66467" y="-127.05604"/></text><path d="m1.000295 4.99995 20.998727.00066v15.00005l-20.998727-.00066z" fill="url(#c)"/><path d="m.000309 15.9998h20.999704v.99999h-20.999704z" fill="#fff" opacity=".650718"/><path d="m18 4-6 .00391h-1-6-.9980469-3.0019531-1v.9980431 2.9980469.9980469 3.0019531 1 2.996094.0059.994141.0098 2.992188 1.003906h1 3.0019531.9980469 6 1 5 .998047l4.001953-.002029h.998047v-1.003906-2.992188-9.0078122-3.9960938h-3.998047zm0 1v2.9960938l-6 .0039062v-2.9980469zm1 0h3v2.9960938h-3zm-18 .0019531h3.0019531v2.9980469h-3.0019531zm4 0h6v2.9980469h-6zm13 3.9941407v3.0019532.001953h-6v-3h-1v3h-6v-3.0019531h6 1zm1 0h3v3.0019532h-3zm-18 .0019531h3.0019531v3.0019531h-3.0019531zm18 3.9980471 3 .002v2.996094h-3zm-18 .003906h3.0019531v2.996094h-3.0019531zm4 0h6v3l-6 .002v-.0059zm7 0h6v2.994141.0039l-6 .001959zm6 4.003906v2.992188l-6 .002v-2.992188zm1 0h3v2.496094h-3zm-18 .002h3.0019531v2.992188h-3.0019531zm4 0h6v2.992188h-6z" fill="url(#d)"/><path d="m18 16.000004v.714286 3.571423.714287h.714286 3.571429.714285v-.714287-3.571423-.714286h-.714285-3.571429zm1 .999996 3 .0039v2.9961h-3z" fill="url(#a)" stroke-width=".178571"/><path d="m19 17h3v3h-3z" fill="#f7e6e6" opacity=".85" stroke-width=".178571"/><path d="m17 15v6h1v-5h5v-1h-5z" fill="#fff"/><g fill-rule="evenodd"><path d="m5.7207031 2.9707031a.99962109.99962109 0 0 0 -.6503906.2558594l-.8691406.7792969a.99962109.99962109 0 0 0 -.037109 1.453125l7.8183595 7.7695316-.789063.224609a.99962109.99962109 0 0 0 -.726562.960937v.560547a.99962109.99962109 0 0 0 .994141 1l4.5332026.025391a.99962109.99962109 0 0 0 1.005859-1.005859l-.02539-4.533203a.99962109.99962109 0 0 0 -1.03711-.992188l-.582031.021484a.99962109.99962109 0 0 0 -.925781.728516l-.212891.765625-7.7734376-7.7226562a.99962109.99962109 0 0 0 -.7226563-.2910157z" fill="#fff" fill-opacity=".870588"/><path d="m5.7382812 3.9707031-.8691406.7792969 9.0273434 8.970703-2.429687.693359v.560547l4.533203.025391-.025391-4.533203-.582031.021484-.671875 2.408203z" fill="url(#b)"/></g></svg>