<svg height="24" viewBox="0 0 6.3499999 6.3500002" width="24" xmlns="http://www.w3.org/2000/svg" xmlns:xlink="http://www.w3.org/1999/xlink"><radialGradient id="a" cx="136.494317" cy="139.647288" gradientUnits="userSpaceOnUse" r="135.187553"><stop offset="0" stop-color="#3e3e3e"/><stop offset=".0151" stop-color="#505050"/><stop offset=".0558" stop-color="#7e7e7e"/><stop offset=".1357" stop-color="#c6c6c6"/><stop offset=".20990001" stop-color="#f1f1f1"/><stop offset=".24349999" stop-color="#fcfcfc"/><stop offset=".2722" stop-color="#fff"/></radialGradient><filter id="b"><feGaussianBlur stdDeviation=".50063244"/></filter><filter id="c"><feGaussianBlur stdDeviation="1.0394514"/></filter><radialGradient id="d" cx="29.227722" cy="293.82623" gradientTransform="matrix(2.4560291 .08983152 -.088838 2.428866 -16.453481 -420.01624)" gradientUnits="userSpaceOnUse" r="11.288881"><stop offset="0" stop-color="#c3c5c6"/><stop offset=".11366145" stop-color="#e5e5e5"/><stop offset=".20296688" stop-color="#ececec"/><stop offset=".2363" stop-color="#fafafa"/><stop offset=".2722" stop-color="#fff"/><stop offset=".5313" stop-color="#fafafa"/><stop offset=".8449" stop-color="#ebecec"/><stop offset="1" stop-color="#e1e2e3"/></radialGradient><g transform="matrix(.1875 0 0 .1875 0 -49.33749)"><path d="m21.480526 7.7313758.04082 115.7280242 98.353984.0412c.375-.375.586-.884.586-1.414v-114.3552542h-98.9808z" filter="url(#c)" opacity=".333" transform="matrix(.26697567 0 0 .26545011 -2.014228 263.38225)"/><path d="m21.480526 7.7625933.04082 115.6968067 98.353984.0412c.375-.375.586-.884.586-1.414v-114.3240567z" filter="url(#c)" opacity=".306849" transform="matrix(.26697567 0 0 .26545011 -2.014228 263.38225)"/><path d="m21.480526 8.7281105.04082 114.7312895 98.353984.0412c.375-.375.586-.884.586-1.414v-113.3585195h-98.9808z" filter="url(#c)" opacity=".306849" transform="matrix(.26697567 0 0 .26545011 -2.014228 263.38225)"/><path d="m23.400525 9.6937293v111.6353907l94.554805-.0928c.375-.375.586-.884.586-1.414v-110.1285107h-95.140805z" filter="url(#b)" opacity=".89589" transform="matrix(.26697567 0 0 .26545011 -2.014228 263.38225)"/><path d="m15.99999 10.666743v111.999927l90.66791-.002v.002h4.76562.56641v-1.36915-9.29882-101.331957z" fill="url(#a)" transform="matrix(.26458333 0 0 .26458333 0 263.13332)"/><rect fill="url(#d)" height="26.811092" rx=".11693" ry=".167043" width="22.577763" x="5.644441" y="267.36667"/><g fill-rule="evenodd"><path d="m8.4666612 265.95556v29.63332h.6947265v-29.63332z" fill="#258aff" fill-opacity=".454902"/><path d="m8.4666612 274.14276v12.55461h.8346712v-12.55461z" fill="#042cff"/><g fill="#258aff" fill-opacity=".454902"><path d="m29.654191 285.71111h-25.4208604v.69473h25.4208604z"/><path d="m23.988873 265.95556v29.63332h.694726v-29.63332z"/><path d="m29.654191 273.72749h-25.4208604v.69473h25.4208604z"/></g><g fill="#042cff"><path d="m23.843725 273.72749v12.79451h.834671v-12.79451z"/><path d="m8.4666612 273.59267h16.2169378v.82955h-16.2169378z"/><path d="m8.4064991 285.71111h16.2720309v.82956h-16.2720309z"/></g></g></g></svg>