<svg height="24" width="24" xmlns="http://www.w3.org/2000/svg" xmlns:xlink="http://www.w3.org/1999/xlink"><linearGradient id="a" gradientUnits="userSpaceOnUse" x1="170.36354" x2="170.36354" y1="39.851387" y2="33.06419"><stop offset="0" stop-color="#06f"/><stop offset="1" stop-color="#80b3ff"/></linearGradient><linearGradient id="b" gradientTransform="matrix(2.9960283 0 0 2.9960284 -6.182746 -773.85961)" gradientUnits="userSpaceOnUse" x1="15.70367" x2="16.933331" y1="294.8226" y2="266.54037"><stop offset="0" stop-color="#555"/><stop offset="1"/></linearGradient><linearGradient id="c" gradientUnits="userSpaceOnUse" x1="119.82502" x2="137.85655" y1="-767.91748" y2="-569.57062"><stop offset="0" stop-color="#3b3e22"/><stop offset="1" stop-color="#454545" stop-opacity="0"/></linearGradient><g transform="matrix(.171875 0 0 .171875 1 1.000001)"><path d="m24.499275 62.391315h39.069898v-25.01505q0-6.962952-1.934153-8.897105-1.934153-2.063097-9.41288-2.707815v-2.449928h35.846309v2.449928q-7.478726.644718-9.412879 2.707815-1.934154 1.934153-1.934154 8.897105v57.25094q0 6.834005 2.063097 8.897105 2.063097 2.0631 9.283936 2.70782v2.44992h-35.846309v-2.44992q7.478727-.51578 9.41288-2.70782 1.934153-2.19204 1.934153-10.315484v-25.143994h-39.069898v26.562373q0 6.834005 2.063097 8.897105 2.063097 2.0631 9.283936 2.70782v2.44992h-35.84630867v-2.44992q7.47872637-.51578 9.41287967-2.70782 1.934153-2.19204 1.934153-10.315484v-55.832561q0-6.962952-1.934153-8.897105-1.9341533-2.063097-9.41287967-2.707815v-2.449928h35.84630867v2.449928q-7.478726.644718-9.412879 2.707815-1.934154 1.934153-1.934154 8.897105z" fill="url(#b)" stroke-width="3.063286" transform="scale(.98623208 1.0139601)"/><path d="m8.3925781 25.761719c.9019458.434113 1.7172599.945058 2.3632809 1.646484 2.122795 2.204754 2.490235 5.605452 2.490235 10.490235v35.460937a66.90815 31.99955 0 0 0 8.861328 1.355469v-5.701172a2.0557256 2.1135226 0 0 1 2.054687-2.111328h38.53125a2.0557256 2.1135226 0 0 1 2.054688 2.111328v3.898437a66.90815 31.99955 0 0 0 8.861328-2.283203v-32.730468c0-4.884783.36744-8.285481 2.490234-10.490235.646023-.701426 1.461336-1.212371 2.363282-1.646484h-18.566407c.901946.434113 1.71726.945058 2.363282 1.646484 2.123499 2.205498 2.488281 5.606042 2.488281 10.490235v25.363281a2.0557256 2.1135226 0 0 1 -2.054688 2.113281h-38.53125a2.0557256 2.1135226 0 0 1 -2.054687-2.113281v-25.363281c0-4.884193.364779-8.284737 2.488281-10.490235.646023-.701427 1.461335-1.212371 2.363281-1.646484z" fill="url(#c)" opacity=".75"/></g><g font-family="Bitstream Vera Sans" transform="matrix(1.83506503 0 0 1.83506503 -301.203997 -50.425052)"><text fill="none" stroke="url(#a)" stroke-linejoin="round" stroke-width="2" transform="scale(1.0218307 .9786357)" x="169.0562" y="39.851395"><tspan style="font-weight:bold;font-size:5.919166;font-family:Liberation Sans;fill:none;stroke-width:2;stroke-linejoin:round;stroke:url(#a)" x="169.0562" y="39.851395">2</tspan></text><text fill="#bfd9ff" x="172.84839" y="39"><tspan fill="#bfd9ff" font-family="Liberation Sans" font-size="5.792707" font-weight="bold" x="172.84839" y="39">2</tspan></text></g></svg>