<svg height="24" width="24" xmlns="http://www.w3.org/2000/svg" xmlns:xlink="http://www.w3.org/1999/xlink"><linearGradient id="a"><stop offset="0"/><stop offset="1" stop-opacity="0"/></linearGradient><linearGradient id="b"><stop offset="0" stop-color="#fff"/><stop offset="1" stop-color="#fff" stop-opacity="0"/></linearGradient><linearGradient id="c"><stop offset="0" stop-color="#fff"/><stop offset="1" stop-color="#aeaeae"/></linearGradient><radialGradient id="d" cx="63.912209" cy="115.70919" fx="27.036068" fy="115.7093" gradientTransform="matrix(1 0 0 .197802 0 92.82166)" gradientUnits="userSpaceOnUse" r="63.912209" xlink:href="#a"/><radialGradient id="e" cx="34.699203" cy="23.848236" fx="25.839911" fy="27.013157" gradientTransform="matrix(.725384 .467836 -1.556716 1.983807 -4.78262 -6.257694)" gradientUnits="userSpaceOnUse" r="18.765305"><stop offset="0" stop-color="#515151"/><stop offset="1"/></radialGradient><linearGradient id="f" gradientTransform="matrix(4.371392 -.831165 1.874778 4.613048 -115.1994 -110.1966)" gradientUnits="userSpaceOnUse" x1="-9.112999" x2="-10.734963" y1="52.430771" y2="49.68412"><stop offset="0" stop-color="#554513"/><stop offset="1" stop-color="#b59e69"/></linearGradient><radialGradient id="g" cx="37.498978" cy="114.05495" fx="43.631195" fy="115.16036" gradientTransform="matrix(.402277 .828901 -1.959267 .854184 144.8049 5.170721)" gradientUnits="userSpaceOnUse" r="11.61476"><stop offset="0" stop-color="#b4942a"/><stop offset="1" stop-color="#e4dcc9"/></radialGradient><radialGradient id="h" cx="-41.394871" cy="49.229198" gradientTransform="matrix(.491514 .313662 -2.114448 2.772026 89.18091 -17.73445)" gradientUnits="userSpaceOnUse" r="16.602501" xlink:href="#b"/><linearGradient id="i" gradientTransform="matrix(3.575685 -.105333 1.875716 3.147943 -120.7649 -34.21735)" gradientUnits="userSpaceOnUse" x1="24.086939" x2="26.619194" xlink:href="#b" y1="16.355263" y2="20.057724"/><radialGradient id="j" cx="49.009884" cy="8.495312" fx="47.370888" fy="6.77017" gradientTransform="matrix(2.017188 1.195882 -.266742 .445702 -92.16292 -39.55281)" gradientUnits="userSpaceOnUse" r="3.97504" xlink:href="#c"/><linearGradient id="k" gradientTransform="matrix(1.482193 .168578 .475404 1.202449 -163.8908 -13.43553)" gradientUnits="userSpaceOnUse" x1="51.674519" x2="58.674988" xlink:href="#b" y1="91.063316" y2="82.036392"/><linearGradient id="l" gradientTransform="matrix(1.608305 -.00900481 .342084 1.463618 -155.5019 -33.38711)" gradientUnits="userSpaceOnUse" x1="47.745087" x2="37.852875" xlink:href="#a" y1="100.18176" y2="107.42576"/><radialGradient id="m" cx="49.009884" cy="8.495312" fx="47.356842" fy="9.785249" gradientTransform="matrix(1.006114 .804017 .402416 -.496946 -8.95131 64.78593)" gradientUnits="userSpaceOnUse" r="3.97504" xlink:href="#c"/><radialGradient id="n" cx="49.009884" cy="8.495312" fx="47.424515" fy="9.608234" gradientTransform="matrix(1.023607 .818166 .402456 -.496915 -6.729909 60.21586)" gradientUnits="userSpaceOnUse" r="3.97504" xlink:href="#c"/><radialGradient id="o" cx="49.009884" cy="8.495312" fx="48.025326" fy="9.788682" gradientTransform="matrix(1.05859 .846463 .402535 -.496852 -5.327913 54.90227)" gradientUnits="userSpaceOnUse" r="3.97504" xlink:href="#c"/><radialGradient id="p" cx="49.009884" cy="8.495312" fx="48.361217" fy="9.435684" gradientTransform="matrix(1.076084 .86061 .402574 -.496821 -3.078406 50.29781)" gradientUnits="userSpaceOnUse" r="3.97504" xlink:href="#c"/><linearGradient id="q" gradientTransform="matrix(1.086544 -.0911518 -.132743 1.144289 8.908611 -9.844197)" gradientUnits="userSpaceOnUse" x1="59.634602" x2="50.843105" xlink:href="#a" y1="106.41199" y2="95.266502"/><ellipse cx="63.912209" cy="115.70919" fill="url(#d)" opacity=".381395" rx="63.912209" ry="12.641975" transform="matrix(.171875 0 0 .07161464 .998919 13.814725)"/><g transform="matrix(.15396391 .02188725 -.02025134 .16322694 19.144859 -.093723)"><g fill-rule="evenodd"><path d="m-50.852965 101.22964c4.36122-11.520914 3.658771-18.972754 13.083651-34.562727 9.424879-15.589971 29.0910824-39.248738 43.4656295-58.9770924.9155496-1.2565496 5.1033015-2.2729918 8.2329415-.4369422 3.248997 1.9060755 3.912808 5.9551286 3.299288 7.2025036-10.7492359 21.854967-22.5085319 50.152689-31.93341 65.74266-9.424885 15.589967-16.410583 18.531434-24.615875 27.797148-3.844076-2.25518-7.688151-4.51037-11.532225-6.76555z" fill="url(#e)" stroke="#000" stroke-width="1.607337"/><path d="m-46.9123 115.2964c-1.349022 7.40157.759053 15.18878-4.047066 22.20473-6.787251 9.908-31.183623 13.97436-44.816686 5.59442 13.842993-1.96808 18.236105-11.83508 26.290799-20.3453 5.208072-5.5026 11.583136-8.84423 13.867728-12.65303 2.901753 1.73306 5.803489 3.46614 8.705225 5.19918z" fill="url(#f)"/><path d="m-49.226127 114.67029c-.495831 4.43982-1.36099 12.27592-3.713481 16.43446-3.322219 5.87273-18.168032 12.56395-25.732119 8.9925 8.123709-1.68138 10.608773-12.83226 14.444306-18.02211 1.355815-1.83454 9.289023-8.05602 10.392948-10.31818 1.60108 1.08515 3.007269 1.82815 4.608346 2.91333z" fill="url(#g)"/><path d="m-50.852965 101.22964c4.36122-11.520914 3.658771-18.972754 13.083651-34.562727 9.424879-15.589971 29.0910824-39.248738 43.4656295-58.9770924.9155496-1.2565496 3.3909686.0379744 6.5206075 1.874024 3.248997 1.9060754 5.625142 3.6441624 5.011622 4.8915374-10.7492359 21.854967-22.5085319 50.152689-31.93341 65.74266-9.424885 15.589967-16.410583 18.531434-24.615875 27.797148-3.844076-2.25518-7.688151-4.51037-11.532225-6.76555z" fill="url(#h)" opacity=".293023"/><path d="m7.8698635 6.4272937c-.7262392.2935217-1.807177.8421956-2.1218925 1.274135-8.7427442 11.9989843-27.989515 36.5107403-36.321125 49.5615283 3.334701-.256519 7.85366-.768851 11.085238-3.340471 6.12826-4.876745 24.849517-37.977552 28.2103146-42.06038 2.1111504-2.564698 5.6404424.328282 8.2837564.612778.172239-1.619258-1.027709-4.0530702-3.05832-5.2443661-2.053829-1.2049073-4.5727773-1.4115649-6.0779715-.8032242z" fill="url(#i)" opacity=".869767"/></g><path d="m-2.1888806 16.5219c-1.1833335.810959-2.3734148 2.06554-2.5405429 3.336618l12.9393111 7.624283 2.1206014-3.543364zm11.1559155 6.609224-2.1206471 3.543357 4.5448792 2.694393c1.046909-.674609 1.487592-2.318936 1.670727-3.801297z" fill="url(#j)"/><path d="m-50.852965 101.22964c4.36122-11.520914 3.658771-18.972754 13.083651-34.562727 9.424879-15.589971 29.0910824-39.248738 43.4656295-58.9770924.9155496-1.2565496 4.0836819-2.1040599 7.2133215-.26801 3.248997 1.906075 4.932428 5.7861964 4.318908 7.0335714-10.7492359 21.854967-22.5085319 50.152689-31.93341 65.74266-9.424885 15.589967-16.410583 18.531434-24.615875 27.797148-3.844076-2.25518-7.688151-4.51037-11.532225-6.76555z" fill="url(#k)" fill-rule="evenodd" opacity=".293023"/><path d="m-2.7178739 48.034993c-.092038.15577-.1115455.307184-.058568.454228.053002.147079.1736355.27616.3619147.387281.1874708.110651.3584361.153661.512871.129037.1544327-.02465.2776665-.11484.3696969-.270603.092561-.156656.1123341-.308508.059347-.455576-.052999-.147071-.1732344-.275909-.3607141-.386569-.1882876-.11113-.3596387-.154367-.5140668-.129729-.1544326.02463-.2779295.115275-.3704802.271931m-.3338845-.197065c.188256-.318607.4178761-.519692.6888967-.603243.2710076-.08355.551329-.03985.8409191.131069.2888032.170459.4620324.394445.5197123.671995.0576698.277542-.00761.575622-.1958587.894238-.1877258.317718-.4173436.518804-.6888912.603241-.2710112.08355-.5509173.04009-.8397294-.130362-.289587-.170918-.4632287-.395154-.5208956-.672695-.057149-.278428.00814-.576507.1958468-.894243m2.33303334-1.878119 1.31817153-.149479-.31452313.532364-.884051.103087.33893113.819554-.31608969.535-.50559428-1.225862-1.2653773.144816.3153082-.533673.8320842-.09438-.3199026-.772512.316874-.536332.48416894 1.177418m-.45122464-1.233174.33020972-.558899.90330878-.07562-.36995674-.827124.33099141-.560224.5876486 1.365621.75272893.444253-.3019806.511122-.75272686-.444275-1.48022324.145147m4.0303978-3.046381c-.019477.160399-.055745.317432-.108861.471087-.053155.153667-.1228381.303515-.2091215.449543-.1950422.330121-.43252.542673-.7124661.637676-.280713.094528-.5634908.057734-.84829431-.110355-.28803328-.169993-.45654983-.401954-.50561077-.695897-.04905049-.29395.02735198-.61173.22917059-.953358.07791213-.131865.16359912-.251402.25706248-.358574.09395511-.108077.19452431-.202685.30167681-.283895l.3697839.218264c-.1220202.07719-.2293979.162417-.3221738.25568-.092224.09237-.170769.193452-.2356022.303188-.12027221.20356-.16162339.39102-.12409356.562385.0372959.170021.15127666.311308.34194956.423836.1890745.1116.3664587.144656.5321113.0992.1656473-.04547.3062648-.16599.4218288-.361589.031371-.05309.057584-.103864.078676-.152305.020821-.04978.035562-.09659.044228-.140407l-.3470503-.204837-.18432.311988-.3087373-.182225.4706222-.796529.8592203.507123m-1.3887222-1.424817.8149478-1.379322.3482238.205516-.5129871.868214.3327159.196365.4823525-.816452.3482438.205532-.482383.816443.4092874.241559.5302185-.897419.3482298.205527-.8322024 1.40854zm1.0980874-1.85858.3372555-.570852 1.6513083.0024-1.2253978-.723248.2862853-.48455 1.7866628 1.054504-.3372679.570852-1.6513301-.0024 1.2254291.723253-.2862811.484543-1.7866637-1.054503m1.9012455-3.217993.3372729-.570837 1.6512914.0024-1.2253783-.723233.2862784-.484567 1.7866484 1.054504-.3372533.570852-1.6513444-.0024 1.225447.723261-.2863006.484547-1.7866615-1.054503m1.6163945-2.80958c.111373-.18851.243483-.311073.3963503-.36767.1534305-.05747.305906-.04148.4574954.04799.151557.08946.2390782.214519.2625224.375174.023442.160657-.020786.335682-.1327032.525075-.1118967.189403-.2441181.313084-.3967385.37102-.1520575.05707-.3038967.04087-.45547-.0486-.1515857-.08949-.2394989-.21478-.2637375-.375906-.023726-.162014.020398-.337704.1322811-.527107m.8101128 1.215814.6455019-1.092582.2393481.141263-.6455042 1.092577zm-.6066927-1.095747c-.043902.07435-.052765.146704-.026556.217077.026727.06949.086363.131546.1789082.186169.092541.05462.1753129.07662.248314.06598.073511-.01152.1322451-.05444.1761425-.128802.043426-.07344.052146-.144688.026232-.213709-.025417-.0699-.084402-.132167-.1769435-.186789-.092555-.05462-.1759663-.07641-.2502892-.06536-.073779.01016-.132387.05197-.1758075.125427m2.409138-2.588791c.1100933-.11527.2242137-.184585.3423763-.207948.1178834-.02471.2362878-.002.3551594.06817.1771069.104529.267485.259334.2711322.464408.00285.204604-.080951.451171-.2514041.739692-.060154.101773-.1281214.19953-.2039484.293239-.074469.09331-.1560267.181257-.2446158.263846l-.3554466-.209775c.099564-.07015.188222-.145548.2659932-.226175.077472-.08199.1431541-.16856.1970154-.259717.080022-.135406.1200442-.251435.1201241-.348081.0005946-.09753-.038599-.169593-.1176044-.216221-.081355-.04802-.1647513-.04711-.2501569.0028-.085688.0485-.1711302.144885-.2563726.28914l-.1207859.204398-.2967714-.175161.1270637-.215057c.075811-.128337.1143488-.23451.1155523-.318544.0004406-.08449-.036458-.14864-.11063-.192421-.068628-.0405-.139728-.04128-.2133001-.0023-.073557.03894-.1432998.114165-.2091722.225676-.048656.0823-.089412.170446-.1223307.264411-.032933.09397-.057625.192198-.074065.294692l-.3374491-.19917c.034078-.115956.074024-.227269.1198315-.333927.045777-.106663.096936-.207771.1533867-.303369.1521739-.257529.3041813-.427435.4560841-.509675.1516213-.08359.3040026-.08019.4571628.01021.1045267.0617.1722263.142848.203173.243464.030123.100142.023465.217962-.020002.353449" fill="#999"/><path d="m-46.9123 115.2964c-1.349022 7.40157.759053 15.18878-4.047066 22.20473-6.787251 9.908-24.093064-6.33707-16.44232-15.15914 5.115512-5.89868 9.499569-8.43597 11.784161-12.24477 2.901753 1.73306 5.803489 3.46614 8.705225 5.19918z" fill="url(#l)" fill-rule="evenodd"/><g transform="matrix(1.315268 .227284 .523783 1.001007 -160.614 3.521774)"><path d="m38.34944 98.879422c.751011-1.450103 1.895586-3.192465 3.027228-4.145441l6.412295 5.187625-3.199247 3.950744zm5.560223 4.449478 3.19925-3.95078 2.266831 1.81152c-.626426 1.2552-2.096426 2.66359-3.415851 3.76577z" fill="url(#m)"/><path d="m41.361775 94.94897c.746637-1.453636 1.888528-3.198165 3.024064-4.148003l6.52432 5.278231-3.199564 3.950502zm5.656954 4.52771 3.199556-3.95053 2.306244 1.843402c-.622393 1.258459-2.095991 2.663928-3.420035 3.762378z" fill="url(#n)"/><path d="m44.345464 90.914825c.737901-1.460703 1.874426-3.209577 3.017737-4.153123l6.748372 5.459444-3.200191 3.949994zm5.850403 4.684175 3.200183-3.95003 2.385064 1.907161c-.614324 1.264978-2.095127 2.664625-3.428391 3.755622z" fill="url(#o)"/><path d="m47.385861 86.950051c.733532-1.46424 1.86737-3.215282 3.014569-4.155681l6.860405 5.550042-3.20051 3.949749zm5.947126 4.762406 3.200498-3.949777 2.424476 1.939032c-.610288 1.26824-2.094701 2.664978-3.432577 3.752246z" fill="url(#p)"/><path d="m50.41561 82.77934c-1.111349.911013-2.222017 2.602204-2.956499 4.037011l-.09357-.06297c-1.107583.914062-2.217891 2.605539-2.956497 4.03701l-.03395.0028c-1.089405.911249-2.171914 2.582859-2.918393 3.998402l-.09357-.06297c-1.131642.952977-2.251889 2.697034-3.002898 4.147137l6.245645 5.00016 1.35296 1.09048c1.319431-1.10219 2.806202-2.53846 3.432627-3.79366l-.153181-.12879c1.290777-1.082291 2.681424-2.455868 3.284367-3.675001l-.123373-.09588c1.322309-1.085948 2.782454-2.467493 3.390379-3.7193l-.182987-.161704c1.315547-1.077056 2.7547-2.43887 3.352276-3.680689l-1.689125-1.380973z" fill="url(#q)"/></g></g></svg>