<svg height="24" viewBox="0 0 6.3499999 6.3500002" width="24" xmlns="http://www.w3.org/2000/svg" xmlns:xlink="http://www.w3.org/1999/xlink"><linearGradient id="a" gradientUnits="userSpaceOnUse" x1="2.30908" x2="34.636352" y1="265.442887" y2="297.770167"><stop offset="0" stop-color="#0968ef"/><stop offset="1" stop-color="#aecffc"/></linearGradient><g transform="matrix(.171875 0 0 .171875 .000002 -45.22612)"><path d="m21.551212 263.1338h10.775607v10.77561h-10.775607z" fill="#777"/><path d="m10.775599 263.1338h10.775614v10.77561h-10.775614z" fill="#aeb3b7"/><path d="m0 263.1338h10.775607v10.77561h-10.775607z" fill="#777"/><path d="m21.55121 284.68504h10.775607v10.77561h-10.775607z" fill="#777"/><path d="m21.551212 273.9094h10.775614v10.77561h-10.775614z" fill="#aeb3b7"/><path d="m10.775614 273.9094h10.775607v10.77561h-10.775607z" fill="#777"/><path d="m10.775597 284.68504h10.775614v10.77561h-10.775614z" fill="#aeb3b7"/><path d="m0 284.68504h10.775607v10.77561h-10.775607z" fill="#777"/><path d="m-.00001 273.9094h10.775614v10.77561h-10.775614z" fill="#aeb3b7"/><g stroke-width=".654648"><path d="m32.327398 263.13395h4.618043v10.77561h-4.618043z" fill="#aeb3b7"/><path d="m32.327404 273.90955h4.618041v10.77561h-4.618041z" fill="#777"/><path d="m32.327397 284.68519h4.618044v10.77561h-4.618044z" fill="#aeb3b7"/></g><g stroke-width=".654669"><path d="m21.551212 295.46091h10.775614v4.61833h-10.775614z" fill="#aeb3b7"/><path d="m10.775614 295.46091h10.775607v4.61833h-10.775607z" fill="#777"/><path d="m-.00001016 295.46091h10.77561416v4.61833h-10.77561416z" fill="#aeb3b7"/></g><path d="m32.327404 295.46097h4.618041v4.61834h-4.618041z" fill="#777" stroke-width=".428578"/><path d="m-.00001 263.13379h36.94545v36.94545h-36.94545z" fill="url(#a)" stroke-width="1.200034"/><path d="m-186.83304 192.30792h1.53937v35.40556h-1.53937z" fill="#4d4d4d" transform="matrix(.70710678 -.70710678 .70710678 .70710678 0 0)"/><path d="m1.5393725 264.67317h7.6968614v7.69686h-7.6968614z" fill="#4d4d4d"/><path d="m3.0787448 266.21254h4.6181168v4.61812h-4.6181168z" fill="#fff"/><path d="m27.70919 290.84299h7.696861v7.69686h-7.696861z" fill="#4d4d4d"/><path d="m29.248562 292.38236h4.618117v4.61812h-4.618117z" fill="#fff"/></g></svg>