<svg enable-background="new 0 0 128 128" height="24" viewBox="0 0 24 24" width="24" xmlns="http://www.w3.org/2000/svg" xmlns:xlink="http://www.w3.org/1999/xlink"><radialGradient id="a" cx="9.110815" cy="130.07681" gradientTransform="matrix(.89127886 0 0 .9510679 9.430321 -7.348081)" gradientUnits="userSpaceOnUse" r="139.55859"><stop offset="0" stop-color="#c3c5c6"/><stop offset=".11366145" stop-color="#e5e5e5"/><stop offset=".20296688" stop-color="#ececec"/><stop offset=".2363" stop-color="#fafafa"/><stop offset=".2722" stop-color="#fff"/><stop offset=".5313" stop-color="#fafafa"/><stop offset=".8449" stop-color="#ebecec"/><stop offset="1" stop-color="#e1e2e3"/></radialGradient><radialGradient id="b" cx="136.512424" cy="127.013668" gradientUnits="userSpaceOnUse" r="135.187556"><stop offset="0" stop-color="#3e3e3e"/><stop offset=".0151" stop-color="#505050"/><stop offset=".0558" stop-color="#7e7e7e"/><stop offset=".1357" stop-color="#c6c6c6"/><stop offset=".20990001" stop-color="#f1f1f1"/><stop offset=".24349999" stop-color="#fcfcfc"/><stop offset=".2722" stop-color="#fff"/></radialGradient><filter id="c"><feGaussianBlur stdDeviation="1.0394514"/></filter><filter id="d"><feGaussianBlur stdDeviation=".50063244"/></filter><g transform="matrix(.171875 0 0 .171875 .000014 1.999972)"><g transform="translate(-.018019 -11.433557)"><path d="m17.15654 26.91895.118303 79.65341 112.766517.0763c.375-.375.586-.884.586-1.414l-.0775-78.315661z" filter="url(#c)" opacity=".306849" transform="matrix(1.0090419 0 0 1.003276 -7.594726 -11.692777)"/><path d="m17.15654 27.884467.118303 78.687893 112.766517.0763c.375-.375.586-.884.586-1.414l-.0775-77.350124-113.39333.000001z" filter="url(#c)" opacity=".306849" transform="matrix(1.0090419 0 0 1.003276 -7.594726 -11.692777)"/><path d="m17.15654 26.887732.118303 79.684628 112.766517.0763c.375-.375.586-.884.586-1.414l-.0775-78.346859-113.39333.000001z" filter="url(#c)" opacity=".553425" transform="matrix(1.0090419 0 0 1.003276 -7.594726 -11.692777)"/><path d="m19.076539 28.850086.07749 75.591994 108.967334-.0577c.375-.375.586-.884.586-1.414l-.0775-74.120215-109.553331.000001z" filter="url(#d)" opacity=".89589" transform="matrix(1.0090419 0 0 1.003276 -7.594726 -11.692777)"/><path d="m11.654303 17.251821-.000002 75.636445h110.545459l-.002-75.636465-110.543908.000001z" fill="url(#b)"/><path d="m17.394207 22.867257c-.491095 0-.891279.42703-.891279.951069l.38083 62.284696c0 .525.400185.95108.891279.95108l98.486213.199669c.16667-.17785.26114-.42227.26114-.6724l-.0782-63.441123c0-.524039-.39929-.951068-.89127-.951068z" fill="url(#a)"/></g><path d="m17.454464 98.9095h104.725796v17.4543h-104.725796z" fill="#258aff" stroke-width="1.240486"/></g></svg>