<svg height="24" width="24" xmlns="http://www.w3.org/2000/svg" xmlns:xlink="http://www.w3.org/1999/xlink"><filter id="a"><feGaussianBlur stdDeviation="1.177891"/></filter><linearGradient id="b"><stop offset="0" stop-color="#6f6f6f"/><stop offset="1" stop-color="#fff"/></linearGradient><linearGradient id="c" gradientTransform="matrix(1.1394606 0 0 1.1610599 -1179.1484 584.83878)" gradientUnits="userSpaceOnUse" x1="1052.916" x2="1055.8423" xlink:href="#b" y1="-481.74805" y2="-476.67953"/><linearGradient id="d" gradientTransform="matrix(.121457 0 0 .1756605 115.62276 282.79187)" gradientUnits="userSpaceOnUse" x1="-333.0289" x2="-333.0289" y1="-1473.6504" y2="-1301.7214"><stop offset="0" stop-color="#fff"/><stop offset=".49140647" stop-color="#fff"/><stop offset="1" stop-color="#dcdcdc"/></linearGradient><linearGradient id="e" gradientTransform="matrix(.121457 0 0 .1756605 -3.82022 -72.522224)" gradientUnits="userSpaceOnUse" x1="399.77466" x2="399.77466" y1="727.07941" y2="480.60214"><stop offset="0" stop-color="#cbcbcd"/><stop offset=".5" stop-color="#e0e0e2"/><stop offset="1" stop-color="#f2f2f2"/></linearGradient><linearGradient id="f" gradientTransform="matrix(1.1394606 0 0 1.1610599 -1173.3824 596.36058)" gradientUnits="userSpaceOnUse" x1="1052.916" x2="1055.8423" xlink:href="#b" y1="-481.74805" y2="-476.67953"/><linearGradient id="g" gradientTransform="matrix(1.1394606 0 0 1.1610599 -1179.1484 608.22558)" gradientUnits="userSpaceOnUse" x1="1052.916" x2="1055.8423" xlink:href="#b" y1="-481.74805" y2="-476.67953"/><linearGradient id="h" gradientTransform="matrix(1.1394606 0 0 1.1610599 -1173.3824 619.74738)" gradientUnits="userSpaceOnUse" x1="1052.916" x2="1055.8423" xlink:href="#b" y1="-481.74805" y2="-476.67953"/><linearGradient id="i" gradientTransform="matrix(1.1394606 0 0 1.1610599 -1179.1484 631.32638)" gradientUnits="userSpaceOnUse" x1="1052.916" x2="1055.8423" xlink:href="#b" y1="-481.74805" y2="-476.67953"/><linearGradient id="j" gradientUnits="userSpaceOnUse" x1="15.093026" x2="25.320713" xlink:href="#k" y1="292.12253" y2="263.66364"/><linearGradient id="k"><stop offset="0" stop-color="#555"/><stop offset="1"/></linearGradient><linearGradient id="l" gradientUnits="userSpaceOnUse" x1="21.34454" x2="27.9718" xlink:href="#k" y1="288.04095" y2="269.6004"/><g transform="matrix(.171875 0 0 .171875 .000309 -.99997)"><rect filter="url(#a)" height="63.312321" opacity=".4" rx="2.143353" ry="2.53025" transform="matrix(.9714876 0 0 1.1112289 -75.301221 -245.93402)" width="134.59267" x="81.628647" y="235.65378"/><rect fill="url(#e)" height="63.998272" rx="2.074212" ry="2.448628" width="127.99828" x="5.8181" y="17.4561"/><path d="m7.8805998 17.510171c-1.1491098 0-2.0624998 1.08096-2.0624998 2.43749v59.059878c0 1.35655.91339 2.4375 2.0624998 2.4375l123.8733602.02091c1.14913 0 2.0625-1.08095 2.0625-2.4375l.0699-59.134857c0-1.35653-.91337-2.43749-2.0625-2.43749zm3.7556002 5.764029h116.36216c1.09166 0 1.96875 1.02406 1.96875 2.29688v52.142191c0 1.2728-.87709 2.29687-1.96875 2.29687l-116.36216-.0872c-1.09166 0-1.96875-1.02407-1.96875-2.29687v-52.054991c0-1.27282.87709-2.29688 1.96875-2.29688z" fill="url(#d)"/><rect fill="#fff" fill-opacity=".911765" height="40.645123" ry="4.949748" width="81.4534" x="46.5448" y="32.081974"/><path d="m50.401889 29.0923c-2.148962 0-3.857089 1.904905-3.857089 4.295443v37.953914c0 2.390539 1.708129 4.295443 3.857089 4.295443l73.739381-.0625c2.14896 0 3.85709-1.904906 3.85709-4.295443l-.00016-24.733877.00016-13.220037c0-2.390539-1.70813-4.295443-3.85709-4.295443zm2.103866 4.95628 69.414765-.0625c2.14896 0 3.85709 1.904903 3.85709 4.295443v31.786099c0 2.390538-1.70813 4.295442-3.85709 4.295442l-69.414765.0625c-2.148958 0-3.857088-1.904902-3.857088-4.295442v-31.786099c0-2.390538 1.708125-4.295443 3.857088-4.295443z" opacity=".391089"/><ellipse cx="23.324566" cy="29.149517" fill="url(#c)" rx="5.766" ry="5.875299"/><ellipse cx="29.090567" cy="40.671318" fill="url(#f)" rx="5.766" ry="5.875299"/><ellipse cx="23.324566" cy="52.536316" fill="url(#g)" rx="5.766" ry="5.875299"/><ellipse cx="29.090567" cy="64.058113" fill="url(#h)" rx="5.766" ry="5.875299"/><ellipse cx="23.324566" cy="75.637115" fill="url(#i)" rx="5.766" ry="5.875299"/></g><path d="m65.068359 23.185547c-4.24452 0-8.250593.887051-11.77539 2.742187-3.507887 1.846269-6.469869 4.607505-8.761719 8.042969-.0016.0023-.0043.0035-.0059.0059-2.059908 3.016221-3.785792 6.102891-5.160157 9.25586-.953454 2.187342-1.778295 4.932147-2.621093 7.603516h-4.88086a4.5360528 4.5360528 0 0 0 -4.435547 3.583984l-1 4.664062a4.5360528 4.5360528 0 0 0 4.435547 5.486328h2.44926c-1.485797 6.549311-3.032999 13.406325-4.992188 22.371094-3.006747 13.683514-5.101349 22.036404-6.457031 26.691404-.42469-.67457-.796344-1.3979-1.341797-1.94336-1.786987-1.78697-4.381668-2.99414-6.982422-2.99414-2.683784 0-5.4153934 1.24461-7.2480464 3.16992-1.887797 1.91763-3.0605469 4.66147-3.0605468 7.36133 0 3.78206 1.7461594 7.54642 4.7128906 9.875 2.9498466 2.38412 6.7647546 3.4336 10.8164066 3.4336 4.03705 0 7.903997-.98031 11.279296-2.94922a4.5360528 4.5360528 0 0 0 .0332-.0195c7.615236-4.53058 12.61393-13.88046 16.683593-27.47071 1.767219-5.890706 4.744903-18.68841 8.84375-37.525388h1.5c-.664309 1.37616-1.3335 2.752898-1.761718 4.166016a4.5360528 4.5360528 0 0 0 -.02539.08594c-.481719 1.712781-.896368 3.585823-1.253906 5.628906-.382729 2.186995-.570314 4.417448-.570313 6.68164 0 5.424561.874541 10.604039 2.650391 15.447266a4.5360528 4.5360528 0 0 0 .0059.01563c1.777472 4.793787 4.6085 9.753937 8.433594 14.988277a4.5360528 4.5360528 0 0 0 6.136719 1.125l1.65625-1.07812a4.5360528 4.5360528 0 0 0 1.466797-6.04492c-1.825777-3.20626-2.99969-5.994385-3.582032-8.246096a4.5360528 4.5360528 0 0 0 -.0039-.01953c-.574773-2.184138-.929687-5.293188-.929687-9.207031 0-4.3078.339947-8.296147 1.001953-11.970703.730941-3.785554 1.569314-6.835328 2.43164-9.052734a4.5360528 4.5360528 0 0 0 .0098-.02734c.887789-2.325156 2.02608-4.540359 3.429687-6.667969.0013-.002.0026-.0039.0039-.0059 1.548169-2.320524 2.85078-4.020476 3.720703-4.962891a4.5360528 4.5360528 0 0 0 .05859-.0625c1.017397-1.144569 2.300619-2.432526 3.839843-3.835937a4.5360528 4.5360528 0 0 0 .314453-6.384766l-1.294921-1.439453a4.5360528 4.5360528 0 0 0 -4.085938-1.445313c1.089359-1.718475 1.845703-3.660379 1.845703-5.654296 0-3.827517-1.723307-7.636099-4.714844-9.984375-2.948737-2.383232-6.762805-3.433594-10.814453-3.433594zm-3.599609 18.099609c.460457.992925.994972 1.962251 1.726562 2.746094a4.5360528 4.5360528 0 0 0 .222657.220703c1.845532 1.722476 4.441526 2.773438 6.980469 2.773438.452993 0 .893483-.213197 1.349609-.277344-.523972.422319-1.096782.88431-2.111328 1.710937-.0054.0044-.0083.0073-.01367.01172-.001.000839-.000924.0011-.002.002-1.318401 1.065498-2.400026 2.007435-3.292969 2.900391a4.5360528 4.5360528 0 0 0 -.109375.111328c-.09256.09917-.263509.294396-.363281.402344a4.5360528 4.5360528 0 0 0 -2.898438-1.050781h-4.386719l.564454-2.228516.002-.0059c.755059-2.959628 1.548356-5.325702 2.332031-7.316406zm56.42383.919922a4.5360528 4.5360528 0 0 0 -2.66406.734375l-1.6543 1.080078a4.5360528 4.5360528 0 0 0 -1.4043 6.138672c1.79354 2.974669 2.93854 5.636477 3.51758 7.914063a4.5360528 4.5360528 0 0 0 .0195.07031c.62387 2.300501.99414 5.381509.99414 9.173828 0 4.448766-.51168 9.037519-1.55078 13.78125a4.5360528 4.5360528 0 0 0 -.01.04102c-.57315 2.73552-1.27935 5.131499-2.05078 7.341797a4.5360528 4.5360528 0 0 0 -2.00781-4.072266l-1.51172-1.005859a4.5360528 4.5360528 0 0 0 -6.03906.927734l-1.45313-7.085937c.0608-.10273.0906-.134728.16211-.253907l-.0859.138672c.57994-.892235 1.07572-1.599047 1.44726-2.082031.11761-.152888.36201-.358603.54688-.541016 1.10105.543378 2.15522 1.015625 3.8457 1.015625 2.09131 0 4.35027-.846106 5.9082-2.30664a4.5360528 4.5360528 0 0 0 .008-.0059c1.53699-1.446614 2.64843-3.735437 2.64843-5.964843 0-2.243819-.9973-4.586577-2.55078-6.191407-1.4993-1.623101-3.84845-2.804687-6.1582-2.804687-2.88666 0-5.64937 1.252733-7.79883 3.130859-.00061.000531-.001.0014-.002.002-.543235.473261-1.131453 1.189639-1.691408 1.785157-.424665-.995268-.781756-2.069954-1.359375-2.923828a4.5360528 4.5360528 0 0 0 -4.400391-1.949219l-12.017578 1.726562a4.5360528 4.5360528 0 0 0 -3.890625 4.490235v1.943359a4.5360528 4.5360528 0 0 0 4.964844 4.515625c.58327-.0556.926976-.06191 1.333984-.08008.1027.253146.151202.274521.351563 1.201172l1.796875 9.226562-2.210938 3.517578a4.5360528 4.5360528 0 0 0 -.0059.0098c-.116784.186853-.08018.112145-.1875.267578-1.140307-.535217-2.352441-.958984-3.810547-.958984-2.200907 0-4.5391 1.03396-6.050781 2.609375-1.507263 1.535096-2.441406 3.824565-2.441406 5.955078 0 2.293153 1.011729 4.782246 2.716796 6.392578a4.5360528 4.5360528 0 0 0 .09961.09375c1.738303 1.545175 4.119218 2.294925 6.324218 2.294925 2.696469 0 5.473441-.90372 7.529297-2.712894.784611-.690457 1.468972-1.568785 2.166016-2.458984.01362.02619.02144.06182.03516.08789a4.5360528 4.5360528 0 0 0 .06836.125c1.617243 2.849442 5.017188 4.958988 8.333984 4.958988 2.891715 0 5.661655-1.19952 7.896485-3.033206 2.18128-1.751276 4.20227-4.186908 6.42773-7.34375-.2587.605623-.47966 1.322419-.7539 1.878906-1.02557 2.049397-2.12825 3.785018-3.28321 5.21875-1.16326 1.444033-3.10419 3.47303-5.74414 5.92773a4.5360528 4.5360528 0 0 0 -.36914 6.25782l1.22266 1.43945a4.5360528 4.5360528 0 0 0 5.97266.83789c.30763-.20499.55145-.39039.87695-.63476l.0273-.0195c.0347-.0261.0545-.0385.0918-.0664 1.30395-.91354 2.23654-1.57563 2.88476-2.0586l.006-.004c1.05002-.72745 2.15876-1.69524 3.84961-3.19727l.0137-.0117c1.88317-1.57863 3.39582-2.99288 4.59765-4.375 1.09521-1.25949 2.3464-2.869614 3.82422-4.888669l.002-.002c1.65503-2.242608 2.96981-4.484374 3.91016-6.767578.94473-2.178783 1.70285-4.614327 2.32031-7.332031.70377-2.88263 1.0586-5.829941 1.0586-8.8125 0-5.777322-.97972-11.180696-2.9961-16.09375-1.89691-4.736598-4.63356-9.509043-8.16601-14.353516a4.5360528 4.5360528 0 0 0 -3.48047-1.859375zm-40.179689 1.714844-.109375.111328c.01869-.01869.02444-.04756.04297-.06641.0184-.01935.04819-.02541.06641-.04492zm-56.089844 80.591798c-.08176.27797-.163995.29106-.136719.23633.01335-.0268.103465-.17578.136719-.23633z" fill="#fff" opacity=".86" stroke-width="2.776301" transform="matrix(.171875 0 0 .171875 1.000309 1.000002)"/><g transform="matrix(.63167067 0 0 .63167067 1.800052 -162.60923)"><path d="m16.408342 269.09104q0-.39282.241734-.78564.241735-.42303.241735-.48347 0-.39282-.513686-.39282-1.601492 0-2.749731 4.50231l-.543902 2.14539h2.779947l-.271952 1.26911h-2.719513q-1.873443 8.67223-2.598647 11.08957-1.6014909 5.34838-3.9886195 6.76857-1.0878054.63455-2.4475622.63455-1.3597568 0-2.1756109-.66477-.81585409-.63455-.81585409-1.72236 0-.66477.48346909-1.14823.4532523-.48347 1.0878054-.48347.5741196 0 1.0273718.45325.4532523.45325.4532523.99715 0 .42304-.2417345.81586-.2417346.39282-.2417346.48347 0 .33238.5439027.33238 1.0878055 0 1.6317082-1.63171.5741196-1.60149 2.0547436-8.33984.997155-4.56274 1.6921418-7.58442h-2.2058277l.2719514-1.26911h2.2058277q.4532525-1.6317.9669385-2.81016.513686-1.17846 1.299323-2.3267.785637-1.17845 1.933876-1.78279 1.148239-.60433 2.628863-.60433 1.359757 0 2.175611.66477.815854.63455.815854 1.75257 0 .69499-.453252 1.14824-.423035.45325-1.087805.45325-.604337 0-1.057589-.42303-.423035-.45325-.423035-1.05759z" fill="url(#j)" stroke-width=".75542"/><g fill="url(#l)" stroke-width=".489492"><path d="m20.708774 272.11865q-.665709.60697-1.135621 1.13562-.469912.50907-1.135621 1.50763-.646129.97899-1.057302 2.05587-.411173 1.0573-.724448 2.68241-.293695 1.62512-.293695 3.48519 0 1.70343.293695 2.81947.293696 1.13562 1.096462 2.54536l-.450332.29369q-1.488055-2.03629-2.134184-3.77888-.64613-1.76217-.64613-3.77887 0-.82235.137058-1.60553.137058-.78319.313275-1.40974.195797-.64613.548231-1.29226.352434-.64613.626549-1.09646.293695-.46991.763607-.99856.469912-.52866.744028-.82235.293695-.2937.802766-.70487.528651-.43075.724448-.58739.215376-.15664.665709-.46991.469912-.33285.509071-.37201z"/><path d="m28.1186 278.3254q-.215376 0-.60697-.19579-.391593-.1958-.509071-.1958-.274115 0-.567811.25454-.293695.23495-.489491.48949-.195797.25453-.450333.64613-.234956.39159-.293695.46991l.62655 3.05443q.215376 1.03772.724447 1.03772.254536 0 .489492-.1958.254536-.21537.822346-.9594l.411173.27412q-.900664 1.29225-1.585953 1.84048-.665709.54824-1.370577.54824-.783187 0-1.19436-.72445-.391593-.74403-.704868-2.3104l-.469912.7636q-.841926 1.40974-1.331417 1.84049-.489492.43076-1.23352.43076-.54823 0-.900664-.31328-.352434-.33285-.352434-.84193 0-.45033.313274-.7636.313275-.33286.763607-.33286.293695 0 .685289.21538.391593.1958.509071.1958.254536 0 .450333-.15664.195796-.17622.489491-.64613l.861506-1.37058-.58739-3.01527q-.156638-.72444-.391594-1.01814-.234956-.29369-.704868-.29369-.274115 0-.685288.0392v-.52866l3.269805-.46991q.450332.66571.881085 2.702 1.17478-1.62512 1.78175-2.15377.626549-.54823 1.311838-.54823.450332 0 .783187.37202.352434.35243.352434.84192 0 .41117-.332855.72445-.313275.29369-.763607.29369z"/><path d="m30.762306 271.72706q1.370577 1.87964 2.075445 3.64181.724448 1.76217.724448 3.91594 0 1.07688-.254536 2.1146-.234956 1.03773-.56781 1.80133-.313275.76361-.920245 1.58596-.58739.80276-.978983 1.25309-.391594.45034-1.116041 1.05731-.704869.62655-.959404.80276-.234956.17622-.822346.58739-.156638.11748-.215377.15664l-.332854-.39159q1.116041-1.03773 1.683851-1.74259.567811-.70487 1.037723-1.6447.724448-1.46847 1.1552-3.52434.450333-2.05586.450333-4.01383 0-1.66427-.313275-2.81947-.293695-1.1552-1.096461-2.48662z"/></g></g></svg>