<svg height="24" width="24" xmlns="http://www.w3.org/2000/svg" xmlns:xlink="http://www.w3.org/1999/xlink"><radialGradient id="a" cx="90.750004" cy="110.252967" gradientUnits="userSpaceOnUse" r="24.501278" xlink:href="#b"/><linearGradient id="b"><stop offset="0" stop-color="#fff"/><stop offset="1" stop-color="#fff" stop-opacity="0"/></linearGradient><clipPath id="c"><path d="m112 82.502986c0 4.465301-2.79749 6.409952-5.27972 8.093625-5.10854 3.46508-14.939114 3.32536-20.720284 3.40638-.081 5.781159.16586 15.504599-3.29922 20.613139-1.68367 2.48224-5.29051 5.38687-8.20078 5.38687 2.31803 0 4.74284-1.33476 7.58402-4.08481 9.14197-8.84873 17.36714-16.13535 25.673154-25.297529 1.91895-2.116745 4.24283-3.641881 4.24283-8.117675z"/></clipPath><filter id="d" color-interpolation-filters="sRGB"><feGaussianBlur stdDeviation=".43040059"/></filter><linearGradient id="e" gradientTransform="matrix(1.4094273 0 0 1.4111689 -46.598939 -46.228314)" gradientUnits="userSpaceOnUse" x1="82.15696" x2="94.220871" y1="90.381706" y2="102.18401"><stop offset="0" stop-color="#fcfcfc"/><stop offset=".52275378" stop-color="#f8f8f8"/><stop offset=".72337759" stop-color="#f0efef"/><stop offset=".89024991" stop-color="#e3e1e1"/><stop offset="1" stop-color="#cecbcb"/></linearGradient><clipPath id="f"><path d="m17.000001 8 .782827 110h57.5c1.675283 0 3.119418.18058 4.9-1.6 8.797935-8.79794 19.757642-19.851805 27.016212-27.175957 2.44056-2.462612 2.80096-4.47117 2.80096-6.724043v-74.5z"/></clipPath><radialGradient id="g" cx="64" cy="64.004021" fx="63.793392" fy="47.274845" gradientTransform="matrix(1.689423 -.08280186 .06907651 1.3515102 -50.111719 -17.641619)" gradientUnits="userSpaceOnUse" r="47.5" xlink:href="#b"/><filter id="h" color-interpolation-filters="sRGB" height="2.025501" width="1.957419" x="-.478709" y="-.512751"><feGaussianBlur stdDeviation="10.140743"/></filter><linearGradient id="i" gradientTransform="matrix(1.003095 0 0 .98228452 -1.76555 .690988)" gradientUnits="userSpaceOnUse" x1="72" x2="72" y1="0" y2="116.40091"><stop offset="0" stop-color="#eeecec"/><stop offset=".40000001" stop-color="#f4f4f4"/><stop offset="1" stop-color="#f6f5f5"/></linearGradient><filter id="j"><feGaussianBlur stdDeviation="2.028"/></filter><filter id="k" height="1.408259" width="1.329301" x="-.164651" y="-.20413"><feGaussianBlur stdDeviation="4.2234282"/></filter><filter id="l" color-interpolation-filters="sRGB"><feGaussianBlur stdDeviation=".37043075"/></filter><filter id="m" color-interpolation-filters="sRGB"><feGaussianBlur stdDeviation=".69944247"/></filter><filter id="n" color-interpolation-filters="sRGB" height="1.278057" width="1.146622" x="-.073311" y="-.139028"><feGaussianBlur stdDeviation=".73249726"/></filter><filter id="o" color-interpolation-filters="sRGB"><feGaussianBlur stdDeviation=".61029092"/></filter><filter id="p" color-interpolation-filters="sRGB" height="1.355011" width="1.245126" x="-.122563" y="-.177505"><feGaussianBlur stdDeviation="2.0368781"/></filter><filter id="q" color-interpolation-filters="sRGB" height="1.024527" width="2.117884" x="-.558942" y="-.012263"><feGaussianBlur stdDeviation=".465785"/></filter><linearGradient id="r" gradientUnits="userSpaceOnUse" x1="40.117199" x2="48.117199" y1="49" y2="49"><stop offset="0" stop-color="#008e00"/><stop offset=".2294" stop-color="#008700"/><stop offset=".5127" stop-color="#007800"/><stop offset=".8231" stop-color="#005f00"/><stop offset="1" stop-color="#004d00"/></linearGradient><filter id="s" color-interpolation-filters="sRGB" height="1.448597" width="1.128466" x="-.064233" y="-.224299"><feGaussianBlur stdDeviation="1.8073251"/></filter><linearGradient id="t" gradientUnits="userSpaceOnUse" x1="62.246101" x2="52.913101" y1="8.6162" y2="19.949699"><stop offset="0"/><stop offset="1" stop-opacity="0"/></linearGradient><radialGradient id="u" cx="39.890652" cy="94.426834" gradientTransform="matrix(1 0 0 .2670157 0 81.512404)" gradientUnits="userSpaceOnUse" r="33.764351" xlink:href="#t"/><linearGradient id="v" gradientTransform="matrix(.64639279 0 0 .84179907 26.448533 17.56953)" gradientUnits="userSpaceOnUse" x1="40.117199" x2="48.117199" xlink:href="#r" y1="49" y2="49"/><linearGradient id="w" gradientUnits="userSpaceOnUse" x1="44.142799" x2="44.142799" y1="3.493313" y2="94.157005"><stop offset="0" stop-color="#00a208"/><stop offset=".5" stop-color="#dfffa8"/><stop offset="1" stop-color="#8aff47" stop-opacity=".632911"/></linearGradient><linearGradient id="x" gradientTransform="matrix(.58527946 0 0 .70126958 29.6173 19.035609)" gradientUnits="userSpaceOnUse" x1="44.117001" x2="44.117001" xlink:href="#t" y1="88.249001" y2="83.652809"/><linearGradient id="y" gradientTransform="matrix(.6433337 0 0 .5432152 37.044465 32.23032)" gradientUnits="userSpaceOnUse" x1=".117412" x2="43.927124" y1="101.0003" y2="92.500053"><stop offset="0" stop-color="#287f00"/><stop offset=".5" stop-color="#3cf000"/><stop offset="1" stop-color="#003a00"/></linearGradient><linearGradient id="z" gradientUnits="userSpaceOnUse" x1="3.988547" x2="43.87418" y1="100.01298" y2="100.01298"><stop offset="0" stop-color="#080"/><stop offset="1" stop-color="#0aa800" stop-opacity=".607595"/></linearGradient><radialGradient id="A" cx="22.501722" cy="91.356857" fx="19.835222" fy="86.023857" gradientTransform="matrix(.6862309 -.2788753 .2607269 .6833644 -.067421 33.863485)" gradientUnits="userSpaceOnUse" r="14"><stop offset="0" stop-color="#fff"/><stop offset=".5" stop-color="#fff" stop-opacity=".708861"/><stop offset="1" stop-color="#fff" stop-opacity="0"/></radialGradient><radialGradient id="B" cx="27.127048" cy="113.89391" gradientTransform="matrix(1 -.02648657 .0139617 .5271235 18.16764 52.58348)" gradientUnits="userSpaceOnUse" r="11.990002"><stop offset="0" stop-color="#c3ff6a"/><stop offset="1" stop-color="#a6ff88" stop-opacity="0"/></radialGradient><linearGradient id="C" gradientTransform="matrix(1 0 0 -1 39.75779 128)" gradientUnits="userSpaceOnUse" x1="22.025112" x2="21.785669" y1="29.212114" y2="7.972616"><stop offset="0" stop-opacity="0"/><stop offset="1" stop-color="#07631a"/></linearGradient><linearGradient id="D" gradientTransform="matrix(.89806988 0 0 .91729682 23.579061 11.001685)" gradientUnits="userSpaceOnUse" x1="54.103237" x2="32.584381" xlink:href="#r" y1="32.580181" y2="31.295557"/><radialGradient id="E" cx="78.879628" cy="28.174702" gradientUnits="userSpaceOnUse" r="16.492849"><stop offset=".33140001" stop-color="#f0ff80"/><stop offset=".67438829" stop-color="#0f0" stop-opacity="0"/></radialGradient><g transform="matrix(.171875 0 0 .171875 2.00031 2)"><path d="m1.7583079-6.6265601.0345201 130.2933601 61.394672-.0668c2.115555-.002 4.528919-1.77169 7-4.25.71234-.71442 1.440746-1.39395 2.15625-2.09375.415612-.40649.832187-.81443 1.25-1.21875 7.773958-7.40962 26.98341-25.122599 34.21875-33.099999.42065-.42064.81207-.8111 1.15625-1.1875 1.46444-1.49766 2.76158-2.8378 2.99375-5.8625l.0375-.73125-.03732-81.7828111z" filter="url(#j)" opacity=".456067" transform="matrix(1.003095 0 0 .98228452 -1.765551 .690986)"/><path d="m-.00179976-5.9149545.03462691 128.0819345h61.06098785c1.680486 0 3.926459-.55989 7.021752-3.56934 8.897609-8.6509 32.175353-31.250103 39.456483-38.511869 2.44813-2.441635 3.01026-4.433083 3.01026-6.66676l-.0376-79.3339655z" fill="#fff"/><path d="m5.4688642-1.0066815c-.340895 0-.501546.230461-.501546.491142l.034627 116.3008095c.0002402.80702.6814249 1.47388 1.504643 1.47343l56.0725038-.0308c.05324-.00003.812893.0229 1.504643.0308 1.783165-.0393 3.141667-.74038 4.369516-1.56504 1.055122-.28588 25.815399-23.810974 34.964739-32.837827 1.36662-1.348301 2.19223-3.878226 2.19223-4.808882l-.0346-78.5624905c0-.317-.16372-.491143-.50156-.491143z" fill="url(#i)"/><path d="m5.4688642-1.0066815c-.340895 0-.501546.230461-.501546.491142l.034627 116.3008095c.0002402.80703.6814347 1.46951 1.504643 1.47343l57.9393288.27591c.05324.00025 3.284015-.008 3.975766.00005 6.561216-4.42387 26.757215-26.379267 35.730127-35.221607.65937-.724227.45902-.363513 1.45841-1.578984l-.0346-81.2496085c0-.317-.16372-.491143-.50156-.491143z" fill="url(#g)" opacity=".846535"/><path clip-path="url(#f)" d="m114.4 82.502986c0 4.465301-9.3766 4.299815-11.85883 5.983488-5.108537 3.46508-16.574334-.810699-22.355504-.729679-.081 5.781159.365076 18.386735.365076 24.536755 0 2.97817-3.440475 11.20945-6.350745 11.20945-2.091359 1.5337 3.488204 8.21101 6.734971 5.31989 9.501888-8.46107 35.131682-30.022701 43.350822-39.262886 2.04044-2.29392-4.90514-9.844666-9.88579-7.057018z" filter="url(#h)" opacity=".605634" transform="matrix(1.258302 0 0 1.2610357 -31.355772 -28.164007)"/><path clip-path="url(#f)" d="m113.9 82.502986c0 4.465301-7.96273 7.457662-10.95287 7.881439-6.394981.906328-15.304541-.844131-21.085711-.763111-.081 5.781159 3.397918 20.001056-.06716 25.109596-1.68367 2.48224-3.883991 8.07209-6.794261 8.07209-2.091359 1.5337 3.488204 11.21101 6.734971 8.31989 9.501888-8.46107 45.998941-30.20138 54.218081-39.441569 2.04044-2.29392-17.0724-11.965986-22.05305-9.178335z" filter="url(#k)" opacity=".643192" transform="matrix(1.3586765 0 0 1.3616521 -42.382653 -40.155635)"/><g transform="matrix(1.0556277 0 0 1.0556277 2.892953 -1.02463)"><path d="m79.195961 111.20621a33.764351 9.0156116 0 0 1 -33.764351 9.01561 33.764351 9.0156116 0 0 1 -33.764351-9.01561 33.764351 9.0156116 0 0 1 33.764351-9.01561 33.764351 9.0156116 0 0 1 33.764351 9.01561" fill="url(#u)" fill-rule="evenodd" filter="url(#s)" transform="matrix(.42551709 -.05689873 0 -.59231321 20.280195 167.61184)"/><path d="m52.379872 17.56953h5.332742v72.32385l-5.332742-4.511137z" fill="url(#v)"/><path d="m43.117 16.665084v76.991916c.813.204 1.005.252 2 .5 0-6.867 0-72.081916 0-77.491916-.937 0-1.062 0-2 0z" fill="url(#w)" filter="url(#q)" opacity=".7" transform="matrix(1.3331851 0 0 -.87815049 -5.10307 101.18626)"/><path d="m57.7792 77.304026c-1.00317-1.417267-2.194214-1.301488-3.562599-2.398974-.367555-.294533-.742135-.565224-1.119639-.821187v12.27362l4.682238 3.882025z" fill="url(#x)" opacity=".3"/><g transform="matrix(1.2220101 -.14708261 .14405017 1.1619222 -37.724677 -2.197498)"><path d="m37.422745 90.448873c1.672024 5.389239 9.805048 8.256329 18.16517 6.40451 8.360764-1.852368 13.780851-7.722891 12.10947-13.112134-1.672025-5.388695-9.804406-8.256329-18.164527-6.403965s-13.782137 7.722892-12.110113 13.111589z" fill="url(#y)"/><path d="m43.576 95.141c-1.891-7.217-12.218-10.761-23.068-7.915-10.849 2.846-18.111 11.005-16.22 18.224 1.104 4.218 5.1 7.166 10.387 8.333-3.231-1.651-5.652-4.326-6.545-7.736-1.904-7.269 3.803-15.064 12.748-17.412 8.945-2.347 17.741 1.644 19.645 8.912.894 3.41.095 6.931-1.911 9.956 4.034-3.612 6.069-8.145 4.964-12.362z" fill="url(#z)" filter="url(#p)" opacity=".9" transform="matrix(.686105 0 0 .5432152 36.321363 32.23032)"/><path d="m34.447549 87.550082c-7.626375 4.164496-12.096252 10.313936-9.566387 13.160718 1.100762 1.23833 3.231368 1.53678 4.823819 1.56891 4.124595.0834 9.446953-1.428 14.234531-4.042258 7.625626-4.163549 12.09604-10.314544 9.565214-13.160989-1.100763-1.238336-3.231366-1.536781-4.823822-1.568919-4.125344-.0825-9.445778 1.428283-14.233355 4.042538z" fill="url(#A)" filter="url(#o)" opacity=".8" transform="matrix(.7077814 0 0 .6148065 20.645198 26.252134)"/><path d="m46.87479 109c-7.172 1.882-12.588.601-11.925 3.134.273 1.045 1.302 1.832 2.116 2.308 2.241 1.311 6.431 2.239 11.471.917 7.171-1.882 10.926-6.96 10.263-9.492-.273-1.046-1.302-1.832-2.116-2.309-2.241-1.31-4.77 4.12-9.809 5.442z" fill="url(#B)" filter="url(#n)" opacity=".6" transform="matrix(.7114081 .1240747 -.1849201 .7638422 40.01216 .650991)"/><path d="m87.84375 97.625c-.647929 8.38965-8.33824 16.48063-19.25 19.34375-12.995 3.409-25.651001-1.86025-28.25-11.78125-.232934-.88908-.377065-1.79014-.4375-2.6875-.107691 1.56171.03141 3.1375.4375 4.6875 2.598999 9.921 15.255 15.19025 28.25 11.78125 11.777624-3.09031 19.782779-12.26827 19.25-21.34375z" fill="url(#C)" filter="url(#m)" opacity=".8" transform="matrix(.6181529 0 0 .5432152 13.113494 32.23032)"/></g><path d="m66.344245 32.910401c-4.558596-5.445073-6.937874-12.076212-8.631631-15.340871v21.848985c30.843306 12.982502 10.920819 47.47664 10.920819 47.47664 22.784931-23.469037 1.906599-48.97356-2.289188-53.984754z" fill="url(#D)"/><path d="m73.283992 31.834433c-3.124227-3.830364-3.782911-6.407664-4.516521-7.486534 0 11.959973 3.892177 11.817622.318418 11.130841 6.34086 3.26096 11.213882 7.754378 13.072556 12.52126-2.084692-7.847405-6.240964-12.937074-8.874453-16.165567z" fill="url(#E)" filter="url(#l)" transform="matrix(1.3331851 0 0 1.3331851 -32.943975 -9.094172)"/></g><path d="m110.63455 70.194961c0 6.22666-3.89615 8.938389-7.35324 11.28619-7.11485 4.831902-21.758838 3.808851-29.810472 3.92183-.112812 8.061568.720236 21.530529-4.105701 28.654139-2.344905 3.46138-6.904898 8.42993-10.95813 8.42993 3.228399 0 6.605514-1.86127 10.562523-5.69609 12.732335-12.33915 24.187814-22.50002 35.75589-35.27627 2.67259-2.951702 5.90913-5.078441 5.90913-11.319729z" fill="url(#e)"/><path d="m110.66063 69.760596c-.44065 5.437134-4.51314 7.338042-6.73057 8.843942-5.25734 3.570397-12.241076 3.279514-34.154353 3.279514 0 19.761338.513212 28.553598-3.305002 33.382518-2.272989 2.87466-6.824021 6.07997-10.532933 6.90254 5.082113 0 8.629228-1.08751 11.949253-4.30502.472301-.5418 1.415698-1.55003 2.15657-2.69493 3.94064-5.81684 3.837814-17.294735 3.837814-29.263474 8.051633-.11295 22.202451 1.162156 29.317291-3.669742.64822-.440215 2.63774-2.020759 3.2183-2.58944 3.22475-3.158721 3.92397-5.17219 4.24363-9.885908zm-54.722858 52.408514c-.219575.0485-.436533.0579-.652846.087.218648-.0234.432367-.0468.652846-.087z" fill="#fff"/><path clip-path="url(#c)" d="m108.97651 89.508691-29.041615 28.702079" fill="none" filter="url(#d)" stroke="url(#a)" stroke-width="1.82707" transform="matrix(1.3927341 0 0 1.3944553 -45.351691 -44.851769)"/></g></svg>