<svg enable-background="new 0 0 128 128" height="24" viewBox="0 0 24 24" width="24" xmlns="http://www.w3.org/2000/svg" xmlns:xlink="http://www.w3.org/1999/xlink"><filter id="a" height="1.083722" width="1.585751" x="-.292876" y="-.041861"><feGaussianBlur stdDeviation=".97625222"/></filter><linearGradient id="b" gradientUnits="userSpaceOnUse" x1="31.910453" x2="31.910453" y1="22.393583" y2="73.797461"><stop offset="0" stop-color="#e00000"/><stop offset="1" stop-color="#f00" stop-opacity=".407895"/></linearGradient><linearGradient id="c" gradientUnits="userSpaceOnUse" spreadMethod="reflect" x1="32" x2="32" xlink:href="#d" y1="17.963892" y2="41.469219"/><linearGradient id="d"><stop offset="0" stop-color="#f9ccca"/><stop offset="1" stop-color="#f9ccca" stop-opacity="0"/></linearGradient><filter id="e"><feGaussianBlur stdDeviation=".32485683"/></filter><linearGradient id="f" gradientUnits="userSpaceOnUse" x1="32" x2="32" xlink:href="#d" y1="20.528635" y2="24.486135"/><clipPath id="g"><path d="m33.6875 23.03125c-1.995923.0217-3.714674.05554-5.515648.09375v56.860173l3.552029-3.985173 3.552029 3.985173v-56.953923c-.759566.0053-.857248-.0079-1.58841 0z"/></clipPath><linearGradient id="h" gradientUnits="userSpaceOnUse" spreadMethod="reflect" x1="32" x2="32" y1="71.921122" y2="42.556589"><stop offset="0" stop-color="#e20800"/><stop offset="1" stop-color="#9c0f0f"/></linearGradient><radialGradient id="i" cx="84.903702" cy="-130.14005" gradientTransform="matrix(.30794145 .30794145 -.30794145 .30794145 49.969462 110.90745)" gradientUnits="userSpaceOnUse" r="57.039597" xlink:href="#j"/><linearGradient id="j"><stop offset="0" stop-color="#011701"/><stop offset=".80671918" stop-color="#145703"/><stop offset="1" stop-color="#2fa207" stop-opacity=".384314"/></linearGradient><radialGradient id="k" cx="43.084476" cy="-121.92532" gradientTransform="matrix(.30347528 .31234377 -.3628951 .35259129 43.461643 116.16172)" gradientUnits="userSpaceOnUse" r="57.039597" xlink:href="#j"/><radialGradient id="l" cx="51.991096" cy="-78.028419" gradientTransform="matrix(.28232256 .33158686 -.56115095 .47778001 31.543879 122.93033)" gradientUnits="userSpaceOnUse" r="57.039597" xlink:href="#j"/><linearGradient id="m" gradientTransform="scale(1.0975951 .9110828)" gradientUnits="userSpaceOnUse" x1="26.091133" x2="31.500689" xlink:href="#n" y1="14.856744" y2="14.856744"/><linearGradient id="n"><stop offset="0" stop-color="#fff"/><stop offset="1" stop-color="#fff" stop-opacity="0"/></linearGradient><filter id="o" height="1.277481" width="1.279832" x="-.139916" y="-.138741"><feGaussianBlur stdDeviation=".28784801"/></filter><linearGradient id="p" gradientUnits="userSpaceOnUse" spreadMethod="pad" x1="33.346737" x2="32.553017" xlink:href="#n" y1="11.842831" y2="16.361324"/><linearGradient id="q" gradientUnits="userSpaceOnUse" spreadMethod="reflect" x1="88.606247" x2="91.575104" y1="13.510336" y2="13.510336"><stop offset="0" stop-color="#c8ff87"/><stop offset="1" stop-color="#abff87" stop-opacity="0"/></linearGradient><linearGradient id="r" gradientUnits="userSpaceOnUse" spreadMethod="reflect" x1="31.606251" x2="34.575108" y1="13.510336" y2="13.510336"><stop offset="0" stop-color="#fff"/><stop offset="1" stop-color="#790000" stop-opacity="0"/></linearGradient><radialGradient id="s" cx="50.424522" cy="-81.945961" gradientTransform="matrix(.30794145 .30794145 -.30794145 .30794145 49.969461 110.90745)" gradientUnits="userSpaceOnUse" r="50.15279"><stop offset="0" stop-color="#7ae91e" stop-opacity=".996078"/><stop offset="1" stop-color="#62c916"/></radialGradient><filter id="t" color-interpolation-filters="sRGB" height="1.024" width="1.024" x="-.012" y="-.012"><feGaussianBlur stdDeviation=".28192153"/></filter><linearGradient id="u" gradientUnits="userSpaceOnUse" x1="88.223729" x2="101.114874" xlink:href="#n" y1="51.615383" y2="113.91425"/><linearGradient id="v" gradientUnits="userSpaceOnUse" x1="88.591797" x2="71.262016" y1="96.592697" y2="79.262917"><stop offset="0" stop-color="#fff"/><stop offset="1" stop-color="#555753"/></linearGradient><linearGradient id="w" gradientUnits="userSpaceOnUse" x1="85.219681" x2="61.336319" y1="93.219681" y2="69.336319"><stop offset="0"/><stop offset="1" stop-color="#393b38"/></linearGradient><linearGradient id="x" gradientUnits="userSpaceOnUse" x1="96" x2="88.000198" y1="104" y2="96.000198"><stop offset="0" stop-color="#888a85"/><stop offset=".0072" stop-color="#8c8e89"/><stop offset=".0673" stop-color="#abaca9"/><stop offset=".1347" stop-color="#c5c6c4"/><stop offset=".2115" stop-color="#dbdbda"/><stop offset=".3012" stop-color="#ebebeb"/><stop offset=".4122" stop-color="#f7f7f6"/><stop offset=".5679" stop-color="#fdfdfd"/><stop offset="1" stop-color="#fff"/></linearGradient><radialGradient id="y" cx="102" cy="112.3047" gradientTransform="matrix(.94807 0 0 .9510679 3.32352 5.274458)" gradientUnits="userSpaceOnUse" r="139.55859"><stop offset="0" stop-color="#535557"/><stop offset=".11366145" stop-color="#898a8c"/><stop offset=".20296688" stop-color="#ececec"/><stop offset=".2363" stop-color="#fafafa"/><stop offset=".2722" stop-color="#fff"/><stop offset=".5313" stop-color="#fafafa"/><stop offset=".8449" stop-color="#ebecec"/><stop offset="1" stop-color="#e1e2e3"/></radialGradient><radialGradient id="z" cx="100.80984" cy="112.93461" gradientUnits="userSpaceOnUse" r="135.18756"><stop offset="0" stop-color="#3e3e3e"/><stop offset=".0151" stop-color="#505050"/><stop offset=".0558" stop-color="#7e7e7e"/><stop offset=".1357" stop-color="#c6c6c6"/><stop offset=".20990001" stop-color="#f1f1f1"/><stop offset=".24349999" stop-color="#fcfcfc"/><stop offset=".2722" stop-color="#fff"/></radialGradient><filter id="A"><feGaussianBlur stdDeviation="1.0394514"/></filter><filter id="B"><feGaussianBlur stdDeviation=".50063244"/></filter><filter id="C"><feGaussianBlur stdDeviation=".40750996"/></filter><filter id="D"><feGaussianBlur stdDeviation=".4901192"/></filter><filter id="E"><feGaussianBlur stdDeviation=".90565481"/></filter><g transform="matrix(.20454546 0 0 .20454546 -1.577287 -1.380484)"><path d="m27.845077 13.841705.02654 106.166145h56.286107c.53 0 1.02161-.22945 1.414-.586l32.842276-29.842381c.39239-.356548.586-.884.586-1.414v-74.323764z" filter="url(#A)" opacity=".553425" transform="matrix(1.0090419 0 0 1.003276 -7.641977 .929762)"/><path d="m27.845077 13.872922.02655 106.134928h56.286103c.53 0 1.02161-.22945 1.414-.586l32.84227-29.842381c.39239-.356548.586-.884.586-1.414v-74.292547z" filter="url(#A)" opacity=".306849" transform="matrix(1.0090419 0 0 1.003276 -7.641977 .929762)"/><path d="m29.750812 15.546194-.000011 102.331376 53.830924-.0001c.53 0 1.039-.211 1.414-.586l31.498275-28.780314c.375-.375.586-.884.586-1.414l.0812-71.550962z" filter="url(#B)" opacity=".89589" transform="matrix(1.0090419 0 0 1.003276 -7.641977 .929762)"/><path d="m27.845077 14.838439.02654 105.169411h56.286107c.53 0 1.02161-.22945 1.414-.586l32.842276-29.842381c.39239-.356548.586-.884.586-1.414v-73.32703z" filter="url(#A)" opacity=".306849" transform="matrix(1.0090419 0 0 1.003276 -7.641977 .929762)"/><path d="m22.377839 16.526886v102.666604h54.36722c.513401 0 1.006458-.20439 1.369714-.56765l31.814227-28.804429c.36326-.363255.56764-.856313.56764-1.369714l.0819-71.924811z" fill="url(#z)"/><path d="m28.955742 22.40103c-.522387 0-.94807.42703-.94807.951069l.307523 88.852961c0 .525.425684.95108.94807.95108h47.210313c.249342 0 .493944-.10082.670284-.27867l28.137638-24.226257c.17729-.17785.27778-.422273.27778-.672405l-.7-64.604786c0-.524039-.42473-.951068-.94806-.951068z" fill="url(#y)"/><g transform="matrix(1.1080161 0 0 1.1080161 -12.744784 -10.01667)"><path d="m111.52523 88.365747c.26305-.236238-24.821717-1.141063-29.856717-1.141063-1.654 0-3 1.346-3 3 0 5.035 1.211722 26.561276 1.474766 26.325036z" fill="url(#v)" filter="url(#C)" opacity=".750685"/><path d="m111.52523 88.365747c.39457-.354357-20.412717-.141063-29.856717-.141063-1.103 0-2 .897-2 2 0 9.444.0802 26.679386.474766 26.325036z" filter="url(#E)" opacity=".2"/><path d="m111.52523 88.365747c.25147-.225842-20.049717.858937-29.856717.858937-.553 0-1 .447-1 1 0 9.806996-.776705 26.550876-.525234 26.325036z" fill="url(#w)" filter="url(#D)" opacity=".1"/><path d="m81.278898 116.44678 30.059452-26.861477-29.948218.444937z" fill="url(#x)"/></g><g transform="matrix(2.0645503 0 0 1.5312153 -23.562101 -18.242976)"><path d="m33.6875 26.929506c-1.995923.0217-3.886526.05554-5.6875.09375v53.976744l4-4 4 4v-54.070494c-.759566.0053-1.581338-.0079-2.3125 0z" filter="url(#a)" opacity=".772201" transform="matrix(1.1473488 0 0 1.0535988 -4.775548 -6.091506)"/><path d="m32.963411 21.110823c-1.995924.0217-2.990585-.03821-4.791559 0v56.375l3.552029-3.693468 3.552029 3.787218v-56.46875c-.759565.0053-1.581337-.0079-2.312499 0z" fill="url(#h)"/><path d="m33.218038 20.410513c-1.995923.0217-3.506611.05554-5.307585.09375v57.188037l3.620085-4.313037 4 4.313037v-57.281787c-.759566.0053-1.581338-.0079-2.3125 0z" fill="none" stroke="url(#b)" stroke-linecap="round" stroke-linejoin="round" stroke-width="1.804466"/><path d="m32.515676 24.204571c-1.995923.0217-2.572699-.199192-4.373673-.16098l.029849 55.941582 3.552029-3.985173 3.552029 3.985173-.447733-55.7806c-.759566.0053-1.581338-.0079-2.3125 0z" style="opacity:.6139;fill:none;stroke-width:2.062246;stroke-linecap:round;stroke-linejoin:round;clip-path:url(#g);stroke:url(#c);filter:url(#e)" transform="translate(0 -3)"/><path d="m32.96341 21.110821c-1.995923.0217-2.990584-.03821-4.791558 0v5c1.800974-.03821 2.795635.0217 4.791558 0 .731162-.0079 1.552934.0053 2.3125 0v-5c-.759566.0053-1.581338-.0079-2.3125 0z" fill="url(#f)"/><g transform="matrix(.44400444 0 0 .59865487 15.118666 16.262089)"><path d="m125.7311 90.766045c.00005-1.656397-1.34274-2.99918-2.99913-2.999132l-18.38328-.183095.0485-18.151185c.00005-1.656396-1.34274-2.99918-2.99913-2.999132l-10.617739.000005c-1.656393-.000048-2.999178 1.342735-2.999131 2.999127l-.04848 18.151185-18.333781.183099c-1.656396-.000048-2.99918 1.342735-2.999132 2.999132v10.617741c-.000048 1.6564 1.342736 2.99918 2.999132 2.99913l18.333781-.1831.04908 18.56596c-.00005 1.6564 1.342736 2.99918 2.999132 2.99913h10.617738c1.65639.00005 2.99918-1.34273 2.99913-2.99913l-.0491-18.56596 18.38328.18309c1.6564.00005 2.99918-1.34274 2.99913-2.99913z" fill="#1f5623" fill-opacity=".905882"/><path d="m125.7311 90.766045c.00005-1.656397-1.34274-2.99918-2.99913-2.999132l-18.38328-.183095.0485-18.151185c.00005-1.656396-1.34274-2.99918-2.99913-2.999132l-10.617739.000005c-1.656393-.000048-2.999178 1.342735-2.999131 2.999127l-.04848 18.151185-18.333781.183099c-1.656396-.000048-2.99918 1.342735-2.999132 2.999132v10.617741c-.000048 1.6564 1.342736 2.99918 2.999132 2.99913l18.333781-.1831.04908 18.56596c-.00005 1.6564 1.342736 2.99918 2.999132 2.99913h10.617738c1.65639.00005 2.99918-1.34273 2.99913-2.99913l-.0491-18.56596 18.38328.18309c1.6564.00005 2.99918-1.34274 2.99913-2.99913z" fill="url(#i)"/><path d="m125.7311 90.766045c.00005-1.656397-1.34274-2.99918-2.99913-2.999132l-18.38328-.183095.0485-18.151185c.00005-1.656396-1.34274-2.99918-2.99913-2.999132l-10.617739.000005c-1.656393-.000048-2.999178 1.342735-2.999131 2.999127l-.04848 18.151185-18.333781.183099c-1.656396-.000048-2.99918 1.342735-2.999132 2.999132v10.617741c-.000048 1.6564 1.342736 2.99918 2.999132 2.99913l18.333781-.1831.04908 18.56596c-.00005 1.6564 1.342736 2.99918 2.999132 2.99913h10.617738c1.65639.00005 2.99918-1.34273 2.99913-2.99913l-.0491-18.56596 18.38328.18309c1.6564.00005 2.99918-1.34274 2.99913-2.99913z" fill="#066704"/><path d="m125.7311 90.766045c.00005-1.656397-1.34274-2.99918-2.99913-2.999132l-18.38328-.183095.0485-18.151185c.00005-1.656396-1.34274-2.99918-2.99913-2.999132l-10.617739.000005c-1.656393-.000048-2.999178 1.342735-2.999131 2.999127l-.04848 18.151185-18.333781.183099c-1.656396-.000048-2.99918 1.342735-2.999132 2.999132v10.617741c-.000048 1.6564 1.342736 2.99918 2.999132 2.99913l18.333781-.1831.04908 18.56596c-.00005 1.6564 1.342736 2.99918 2.999132 2.99913h10.617738c1.65639.00005 2.99918-1.34273 2.99913-2.99913l-.0491-18.56596 18.38328.18309c1.6564.00005 2.99918-1.34274 2.99913-2.99913z" fill="url(#k)"/><path d="m125.7311 90.766045c.00005-1.656397-1.34274-2.99918-2.99913-2.999132l-18.38328-.183095.0485-18.151185c.00005-1.656396-1.34274-2.99918-2.99913-2.999132l-10.617739.000005c-1.656393-.000048-2.999178 1.342735-2.999131 2.999127l-.04848 18.151185-18.333781.183099c-1.656396-.000048-2.99918 1.342735-2.999132 2.999132v10.617741c-.000048 1.6564 1.342736 2.99918 2.999132 2.99913l18.333781-.1831.04908 18.56596c-.00005 1.6564 1.342736 2.99918 2.999132 2.99913h10.617738c1.65639.00005 2.99918-1.34273 2.99913-2.99913l-.0491-18.56596 18.38328.18309c1.6564.00005 2.99918-1.34274 2.99913-2.99913z" fill="url(#l)"/><g fill-rule="evenodd" transform="translate(-.164416)"><path d="m31.7 16 2.875-3.375c-1.051205-1.695758-3.935136-2.288018-5.9375-.3125l2.8125 3.375z" fill="url(#m)" filter="url(#o)" opacity=".498127" transform="matrix(-.64954358 .64954358 .6557809 .6557809 81.289533 61.297978)"/><path d="m31.7 16 2.875-3.375c-1.051205-1.695758-3.935136-2.288018-5.9375-.3125l2.8125 3.375z" fill="url(#m)" filter="url(#o)" opacity=".790262" transform="matrix(-.6476361 -.6476361 .64147625 -.64147625 102.80882 152.77126)"/><path d="m31.7 16 2.875-3.375c-1.051205-1.695758-3.935136-2.288018-5.9375-.3125l2.8125 3.375z" fill="url(#p)" filter="url(#o)" opacity=".498127" transform="matrix(-.58819378 .58819378 -.59384198 -.59384198 128.42011 113.04167)"/><path d="m88.7 16 2.875-3.375c-1.051205-1.695758-3.935136-2.288018-5.9375-.3125l2.8125 3.375z" fill="url(#q)" filter="url(#o)" opacity=".790262" transform="matrix(-.59384198 -.59384198 .58819378 -.58819378 113.74798 161.95621)"/><path d="m31.7 16 2.875-3.375c-1.051205-1.695758-3.935136-2.288018-5.9375-.3125l2.8125 3.375z" fill="url(#r)" filter="url(#o)" opacity=".790262" transform="matrix(-.54004786 -.54004786 -.53491131 .53491131 147.78183 100.09653)"/><path d="m88.7 16 2.875-3.375c-1.051205-1.695758-3.935136-2.288018-5.9375-.3125l2.8125 3.375z" fill="url(#q)" filter="url(#o)" opacity=".790262" transform="matrix(-.55444337 -.55444337 -.5491699 .5491699 158.58595 110.58603)"/><path d="m31.7 16 2.875-3.375c-1.051205-1.695758-3.935136-2.288018-5.9375-.3125l2.8125 3.375z" fill="url(#r)" filter="url(#o)" opacity=".790262" transform="matrix(-.54004786 .54004786 -.53491131 -.53491131 147.68861 92.185302)"/><path d="m88.7 16 2.875-3.375c-1.051205-1.695758-3.935136-2.288018-5.9375-.3125l2.8125 3.375z" fill="url(#q)" filter="url(#o)" opacity=".790262" transform="matrix(.55444337 -.55444337 .5491699 .5491699 34.12719 110.58603)"/></g><path d="m122.73197 90.766045-21.38241-.183095.0485-21.150312-10.617737-.000005-.04848 21.150317-21.332913.183099v10.617741l21.332913-.1831.04908 21.56509h10.617737l-.0491-21.56509 21.38241.18309z" fill="url(#s)"/><path d="m101.39845 69.432725-10.617961-.000005-.04848 21.150595-21.33344.182664v10.617971l21.332838-.1831.04908 21.56501h10.617963l-.0491-21.56501 21.38234.18308-.00001-10.617951-21.38233-.183095zm-.75422.754216-.0491 20.395773c-.00004.41656.33766.754256.75422.754217l20.62812.183095v9.109524l-20.62812-.18309c-.41656-.00004-.75426.33766-.75422.75422l.0491 20.8108h-9.109526l-.04908-20.8108c.00004-.41656-.337657-.75426-.754216-.75422l-20.578621.1831v-9.109535l20.579213-.182663c.416558.000039.754257-.337657.754216-.754216l.04848-20.396375z" fill="#eef4ca" fill-opacity=".779412" filter="url(#t)"/><path d="m90.780548 69.432805-.04848 21.149226-21.332673.183099v6.925781c5.787164.982213 10.225142 1.303218 16.244783 1.314948 13.882903-.01695 25.896292-2.467983 37.087242-7.338389v-.902344l-21.38217-.183095.0485-21.149226z" fill="url(#u)"/></g></g></g></svg>