<?xml version="1.0" encoding="UTF-8" standalone="no"?>
<svg
   xmlns:dc="http://purl.org/dc/elements/1.1/"
   xmlns:cc="http://creativecommons.org/ns#"
   xmlns:rdf="http://www.w3.org/1999/02/22-rdf-syntax-ns#"
   xmlns:svg="http://www.w3.org/2000/svg"
   xmlns="http://www.w3.org/2000/svg"
   xmlns:xlink="http://www.w3.org/1999/xlink"
   xmlns:sodipodi="http://sodipodi.sourceforge.net/DTD/sodipodi-0.dtd"
   xmlns:inkscape="http://www.inkscape.org/namespaces/inkscape"
   height="24"
   width="24"
   version="1.1"
   id="svg3159"
   sodipodi:docname="lc_insertscript.svg"
   inkscape:version="0.92.4 (unknown)"
   inkscape:export-filename="/home/rizmut/Dokumen/Rizmut/Github/libreoffice-style-karasa-jaga/build/next/cmd/lc_insertscript.png"
   inkscape:export-xdpi="96"
   inkscape:export-ydpi="96">
  <metadata
     id="metadata3165">
    <rdf:RDF>
      <cc:Work
         rdf:about="">
        <dc:format>image/svg+xml</dc:format>
        <dc:type
           rdf:resource="http://purl.org/dc/dcmitype/StillImage" />
      </cc:Work>
    </rdf:RDF>
  </metadata>
  <defs
     id="defs3163">
    <radialGradient
       id="a-7"
       cx="84.903702"
       cy="-130.14005"
       gradientTransform="matrix(0.30794145,0.30794145,-0.30794145,0.30794145,49.969462,110.90745)"
       gradientUnits="userSpaceOnUse"
       r="57.039597"
       xlink:href="#b-0" />
    <linearGradient
       id="b-0">
      <stop
         offset="0"
         stop-color="#011701"
         id="stop4303" />
      <stop
         offset=".80671918"
         stop-color="#145703"
         id="stop4305" />
      <stop
         offset="1"
         stop-color="#2fa207"
         stop-opacity=".384314"
         id="stop4307" />
    </linearGradient>
    <radialGradient
       id="c-9"
       cx="43.084476"
       cy="-121.92532"
       gradientTransform="matrix(0.30347528,0.31234377,-0.3628951,0.35259129,43.461643,116.16172)"
       gradientUnits="userSpaceOnUse"
       r="57.039597"
       xlink:href="#b-0" />
    <radialGradient
       id="d-3"
       cx="51.991096"
       cy="-78.028419"
       gradientTransform="matrix(0.28232256,0.33158686,-0.56115095,0.47778001,31.543879,122.93033)"
       gradientUnits="userSpaceOnUse"
       r="57.039597"
       xlink:href="#b-0" />
    <linearGradient
       id="e-6"
       gradientTransform="scale(1.0975951,0.9110828)"
       gradientUnits="userSpaceOnUse"
       x1="26.091133"
       x2="31.500689"
       xlink:href="#f-0"
       y1="14.856744"
       y2="14.856744" />
    <linearGradient
       id="f-0">
      <stop
         offset="0"
         stop-color="#fff"
         id="stop4313" />
      <stop
         offset="1"
         stop-color="#fff"
         stop-opacity="0"
         id="stop4315" />
    </linearGradient>
    <filter
       id="g-6"
       height="1.277481"
       width="1.279832"
       x="-0.139916"
       y="-0.138741">
      <feGaussianBlur
         stdDeviation=".28784801"
         id="feGaussianBlur4318" />
    </filter>
    <filter
       id="filter5035"
       height="1.277481"
       width="1.279832"
       x="-0.139916"
       y="-0.138741">
      <feGaussianBlur
         stdDeviation=".28784801"
         id="feGaussianBlur5033" />
    </filter>
    <linearGradient
       id="h-2"
       gradientUnits="userSpaceOnUse"
       spreadMethod="pad"
       x1="33.346737"
       x2="32.553017"
       xlink:href="#f-0"
       y1="11.842831"
       y2="16.361324" />
    <filter
       id="filter5046"
       height="1.277481"
       width="1.279832"
       x="-0.139916"
       y="-0.138741">
      <feGaussianBlur
         stdDeviation=".28784801"
         id="feGaussianBlur5044" />
    </filter>
    <linearGradient
       id="i-6"
       gradientUnits="userSpaceOnUse"
       spreadMethod="reflect"
       x1="88.606247"
       x2="91.575104"
       y1="13.510336"
       y2="13.510336">
      <stop
         offset="0"
         stop-color="#c8ff87"
         id="stop4322" />
      <stop
         offset="1"
         stop-color="#abff87"
         stop-opacity="0"
         id="stop4324" />
    </linearGradient>
    <filter
       id="filter5053"
       height="1.277481"
       width="1.279832"
       x="-0.139916"
       y="-0.138741">
      <feGaussianBlur
         stdDeviation=".28784801"
         id="feGaussianBlur5051" />
    </filter>
    <linearGradient
       id="j-1"
       gradientUnits="userSpaceOnUse"
       spreadMethod="reflect"
       x1="31.606251"
       x2="34.575108"
       y1="13.510336"
       y2="13.510336">
      <stop
         offset="0"
         stop-color="#fff"
         id="stop4327" />
      <stop
         offset="1"
         stop-color="#790000"
         stop-opacity="0"
         id="stop4329" />
    </linearGradient>
    <filter
       id="filter5060"
       height="1.277481"
       width="1.279832"
       x="-0.139916"
       y="-0.138741">
      <feGaussianBlur
         stdDeviation=".28784801"
         id="feGaussianBlur5058" />
    </filter>
    <filter
       id="filter5070"
       height="1.277481"
       width="1.279832"
       x="-0.139916"
       y="-0.138741">
      <feGaussianBlur
         stdDeviation=".28784801"
         id="feGaussianBlur5068" />
    </filter>
    <filter
       id="filter5080"
       height="1.277481"
       width="1.279832"
       x="-0.139916"
       y="-0.138741">
      <feGaussianBlur
         stdDeviation=".28784801"
         id="feGaussianBlur5078" />
    </filter>
    <filter
       id="filter5090"
       height="1.277481"
       width="1.279832"
       x="-0.139916"
       y="-0.138741">
      <feGaussianBlur
         stdDeviation=".28784801"
         id="feGaussianBlur5088" />
    </filter>
    <radialGradient
       id="k-8"
       cx="50.424522"
       cy="-81.945961"
       gradientTransform="matrix(0.30794145,0.30794145,-0.30794145,0.30794145,49.969461,110.90745)"
       gradientUnits="userSpaceOnUse"
       r="50.15279">
      <stop
         offset="0"
         stop-color="#7ae91e"
         stop-opacity=".996078"
         id="stop4332" />
      <stop
         offset="1"
         stop-color="#62c916"
         id="stop4334" />
    </radialGradient>
    <filter
       style="color-interpolation-filters:sRGB"
       id="l-7"
       height="1.024"
       width="1.024"
       x="-0.012"
       y="-0.012">
      <feGaussianBlur
         stdDeviation=".28192153"
         id="feGaussianBlur4337" />
    </filter>
    <linearGradient
       id="m-9"
       gradientUnits="userSpaceOnUse"
       x1="88.223732"
       x2="101.11488"
       xlink:href="#f-0"
       y1="51.615383"
       y2="113.91425" />
    <linearGradient
       spreadMethod="reflect"
       y2="13.510336"
       x2="91.575104"
       y1="13.510336"
       x1="88.606247"
       gradientUnits="userSpaceOnUse"
       id="linearGradient5124"
       xlink:href="#i-6"
       inkscape:collect="always" />
    <linearGradient
       spreadMethod="reflect"
       y2="13.510336"
       x2="34.575108"
       y1="13.510336"
       x1="31.606251"
       gradientUnits="userSpaceOnUse"
       id="linearGradient5126"
       xlink:href="#j-1"
       inkscape:collect="always" />
    <linearGradient
       inkscape:collect="always"
       xlink:href="#f-0"
       id="linearGradient5289"
       gradientUnits="userSpaceOnUse"
       gradientTransform="scale(1.0975951,0.9110828)"
       x1="26.091133"
       y1="14.856744"
       x2="31.500689"
       y2="14.856744" />
    <linearGradient
       inkscape:collect="always"
       xlink:href="#i-6"
       id="linearGradient5291"
       gradientUnits="userSpaceOnUse"
       x1="88.606247"
       y1="13.510336"
       x2="91.575104"
       y2="13.510336"
       spreadMethod="reflect" />
    <linearGradient
       inkscape:collect="always"
       xlink:href="#j-1"
       id="linearGradient5293"
       gradientUnits="userSpaceOnUse"
       x1="31.606251"
       y1="13.510336"
       x2="34.575108"
       y2="13.510336"
       spreadMethod="reflect" />
    <linearGradient
       inkscape:collect="always"
       xlink:href="#i-6"
       id="linearGradient5295"
       gradientUnits="userSpaceOnUse"
       x1="88.606247"
       y1="13.510336"
       x2="91.575104"
       y2="13.510336"
       spreadMethod="reflect" />
  </defs>
  <sodipodi:namedview
     pagecolor="#ffffff"
     bordercolor="#666666"
     borderopacity="1"
     objecttolerance="10"
     gridtolerance="10"
     guidetolerance="10"
     inkscape:pageopacity="0"
     inkscape:pageshadow="2"
     inkscape:window-width="1366"
     inkscape:window-height="706"
     id="namedview3161"
     showgrid="false"
     inkscape:zoom="9.8333333"
     inkscape:cx="-1.0677966"
     inkscape:cy="12"
     inkscape:window-x="0"
     inkscape:window-y="0"
     inkscape:window-maximized="1"
     inkscape:current-layer="svg3159" />
  <radialGradient
     id="a"
     cx="90.750004"
     cy="110.252967"
     gradientUnits="userSpaceOnUse"
     r="24.501278"
     xlink:href="#b" />
  <linearGradient
     id="b">
    <stop
       offset="0"
       stop-color="#fff"
       id="stop3038" />
    <stop
       offset="1"
       stop-color="#fff"
       stop-opacity="0"
       id="stop3040" />
  </linearGradient>
  <clipPath
     id="c">
    <path
       d="m112 82.502986c0 4.465301-2.79749 6.409952-5.27972 8.093625-5.10854 3.46508-14.939114 3.32536-20.720284 3.40638-.081 5.781159.16586 15.504599-3.29922 20.613139-1.68367 2.48224-5.29051 5.38687-8.20078 5.38687 2.31803 0 4.74284-1.33476 7.58402-4.08481 9.14197-8.84873 17.36714-16.13535 25.673154-25.297529 1.91895-2.116745 4.24283-3.641881 4.24283-8.117675z"
       id="path3043" />
  </clipPath>
  <filter
     id="d"
     color-interpolation-filters="sRGB">
    <feGaussianBlur
       stdDeviation=".43040059"
       id="feGaussianBlur3046" />
  </filter>
  <linearGradient
     id="e"
     gradientTransform="matrix(1.4094273 0 0 1.4111689 -46.598939 -46.228314)"
     gradientUnits="userSpaceOnUse"
     x1="82.15696"
     x2="94.220871"
     y1="90.381706"
     y2="102.18401">
    <stop
       offset="0"
       stop-color="#fcfcfc"
       id="stop3049" />
    <stop
       offset=".52275378"
       stop-color="#f8f8f8"
       id="stop3051" />
    <stop
       offset=".72337759"
       stop-color="#f0efef"
       id="stop3053" />
    <stop
       offset=".89024991"
       stop-color="#e3e1e1"
       id="stop3055" />
    <stop
       offset="1"
       stop-color="#cecbcb"
       id="stop3057" />
  </linearGradient>
  <clipPath
     id="f">
    <path
       d="m17.000001 8 .782827 110h57.5c1.675283 0 3.119418.18058 4.9-1.6 8.797935-8.79794 19.757642-19.851805 27.016212-27.175957 2.44056-2.462612 2.80096-4.47117 2.80096-6.724043v-74.5z"
       id="path3060" />
  </clipPath>
  <radialGradient
     id="g"
     cx="64"
     cy="64.004021"
     fx="63.793392"
     fy="47.274845"
     gradientTransform="matrix(1.689423 -.08280186 .06907651 1.3515102 -50.111719 -17.641619)"
     gradientUnits="userSpaceOnUse"
     r="47.5"
     xlink:href="#b" />
  <filter
     id="h"
     color-interpolation-filters="sRGB"
     height="2.025501"
     width="1.957419"
     x="-.478709"
     y="-.512751">
    <feGaussianBlur
       stdDeviation="10.140743"
       id="feGaussianBlur3064" />
  </filter>
  <linearGradient
     id="i"
     gradientTransform="matrix(1.003095 0 0 .98228452 -1.76555 .690988)"
     gradientUnits="userSpaceOnUse"
     x1="72"
     x2="72"
     y1="0"
     y2="116.40091">
    <stop
       offset="0"
       stop-color="#eeecec"
       id="stop3067" />
    <stop
       offset=".40000001"
       stop-color="#f4f4f4"
       id="stop3069" />
    <stop
       offset="1"
       stop-color="#f6f5f5"
       id="stop3071" />
  </linearGradient>
  <filter
     id="j">
    <feGaussianBlur
       stdDeviation="2.028"
       id="feGaussianBlur3074" />
  </filter>
  <filter
     id="k"
     height="1.408259"
     width="1.329301"
     x="-.164651"
     y="-.20413">
    <feGaussianBlur
       stdDeviation="4.2234282"
       id="feGaussianBlur3077" />
  </filter>
  <filter
     id="l">
    <feGaussianBlur
       stdDeviation="1.8077645"
       id="feGaussianBlur3080" />
  </filter>
  <filter
     id="m">
    <feGaussianBlur
       stdDeviation="1.56"
       id="feGaussianBlur3083" />
  </filter>
  <linearGradient
     id="n"
     gradientTransform="matrix(.9867021 0 0 1 1.61969 0)"
     gradientUnits="userSpaceOnUse"
     x1="9"
     x2="106.55763"
     y1="24.324116"
     y2="53.655067">
    <stop
       offset="0"
       stop-color="#555753"
       id="stop3086" />
    <stop
       offset=".6272"
       stop-color="#2e2e2e"
       id="stop3088" />
    <stop
       offset="1"
       stop-color="#2e2e2e"
       id="stop3090" />
  </linearGradient>
  <linearGradient
     id="o">
    <stop
       offset=".5"
       stop-color="#fff"
       id="stop3093" />
    <stop
       offset="1"
       stop-color="#eeeeec"
       id="stop3095" />
  </linearGradient>
  <linearGradient
     id="p"
     gradientTransform="matrix(1.0528457 0 0 .72097847 9.941428 32.453874)"
     gradientUnits="userSpaceOnUse"
     x1="44"
     x2="44"
     xlink:href="#o"
     y1="44"
     y2="40" />
  <linearGradient
     id="q"
     gradientTransform="matrix(1.2133439 0 0 1.2112438 13.307679 13.42004)"
     gradientUnits="userSpaceOnUse"
     x1="24"
     x2="24"
     xlink:href="#o"
     y1="40"
     y2="20" />
  <linearGradient
     id="r"
     gradientTransform="matrix(.68887277 0 0 .68204965 19.90459 14.48444)"
     gradientUnits="userSpaceOnUse"
     x1="8"
     x2="120"
     y1="40.665478"
     y2="64">
    <stop
       offset="0"
       stop-color="#c6c6c6"
       id="stop3100" />
    <stop
       offset=".52140325"
       stop-color="#eee"
       id="stop3102" />
    <stop
       offset="1"
       stop-color="#c6c6c6"
       id="stop3104" />
  </linearGradient>
  <linearGradient
     id="s"
     gradientTransform="matrix(.72714354 0 0 .72467785 17.455251 11.756238)"
     gradientUnits="userSpaceOnUse"
     x1="45.123108"
     x2="94.190605"
     y1="21.220039"
     y2="114.55814">
    <stop
       offset="0"
       stop-color="#8e8e8e"
       id="stop3107" />
    <stop
       offset=".5"
       stop-color="#ababab"
       id="stop3109" />
    <stop
       offset="1"
       stop-color="#9d9d9d"
       id="stop3111" />
  </linearGradient>
  <clipPath
     id="t">
    <path
       d="m11.608716 5.836076v116.330904h49.485099c1.680486 0 3.926459-.55989 7.021752-3.56934 8.897609-8.6509 32.175353-31.250103 39.456483-38.511869 2.44813-2.441635 3.01026-4.433083 3.01026-6.66676l-.003-67.582935z"
       id="path3114" />
  </clipPath>
  <g
     transform="matrix(.171875 0 0 .171875 2.00031 2)"
     id="g3157">
    <path
       d="m7.5585371-6.5280421v130.2099521l55.6289629-.08191c2.115554-.003 4.528919-1.77169 7-4.25.71234-.71442 1.440746-1.39395 2.15625-2.09375.415612-.40649.832187-.81443 1.25-1.21875 7.773958-7.40962 26.98341-25.122599 34.21875-33.099999.42065-.42064.81207-.8111 1.15625-1.1875 1.46444-1.49766 2.76158-2.8378 2.99375-5.8625l.0375-.73125-.0028-81.6993989z"
       filter="url(#j)"
       opacity=".456067"
       transform="matrix(1.003095 0 0 .98228452 -1.765551 .690986)"
       id="path3117" />
    <path
       d="m7.5692871-8.3605359.09766.00391c-.116561-.011043-.234998-.011044-.351562 0-.038713.00368-.077187.00954-.115235.017578-.884985.1872727-1.47381.9176866-1.470703 1.8222656v130.1881423c-.0000503.006-.0000503.0117 0 .0176.01849 1.02971.790762 1.80366 1.820313 1.82226.00651.00006.01302.00006.01953 0l54.5869629-.0151c1.665878-.00046 4.036021.24848 7.107422-1.83203.114412-.0774.212059-.17702.287109-.29297-.05475.0809-.07562.0982-.03125.0586.0578-.0515.151363-.13059.261719-.22071.220712-.18022.508961-.40573.773438-.61328.264476-.20754.497588-.39062.658203-.52539.04015-.0337.07576-.0627.121093-.10547.02267-.0214.04603-.0428.0918-.0957.02288-.0265.05118-.0588.09766-.13281.0096-.0152.01965-.0375.03516-.0684 9.781586-9.33524 27.455859-28.656496 38.511713-39.847658l.004-.0039c1.71036-1.710501 3.76562-3.869783 3.76562-8.503906v-79.8482939c.00006-.00651.00006-.013021 0-.019531-.0186-1.0295278-.79071-1.8017087-1.82031-1.8203126-.007-.0000616-.013-.0000616-.0195 0z"
       filter="url(#l)"
       transform="matrix(1.003095 0 0 .98228452 -1.765551 .690986)"
       id="path3119" />
    <path
       d="m5.8163811-5.8181818v128.0000018l55.2774339-.0148c1.680486 0 3.926459-.55989 7.021752-3.56934 8.897609-8.6509 32.175353-31.250103 39.456483-38.511869 2.44813-2.441635 3.01026-4.433083 3.01026-6.66676l-.003-79.252031z"
       fill="#fff"
       id="path3121" />
    <path
       d="m17.07938-.92474702c-.340895 0-.501546.230461-.501546.491142v116.21887502c0 .80702.681425 1.474 1.504643 1.47343l44.496615-.0308c.05324-.00004.812893.0229 1.504643.0308 1.783165-.0393 3.141667-.74038 4.369516-1.56504 1.055122-.28588 25.815399-23.810974 34.964739-32.837827 1.36662-1.348301 2.19223-3.878226 2.19223-4.808882v-78.48055602c0-.317-.16372-.491143-.50156-.491143z"
       fill="url(#i)"
       id="path3123" />
    <path
       d="m17.07938-.92474702c-.340895 0-.501546.230461-.501546.491142v116.21887502c0 .80703.68144 1.46853 1.504643 1.47343l46.36344.27591c.05324.00032 3.284015-.008 3.975766.00005 6.561216-4.42387 26.757215-26.379267 35.730127-35.221607.65937-.724227.45902-.363513 1.45841-1.578984v-81.16767402c0-.317-.16372-.491143-.50156-.491143z"
       fill="url(#g)"
       opacity=".846535"
       id="path3125" />
    <g
       clip-path="url(#t)"
       id="g3145">
      <g
         filter="url(#m)"
         opacity=".6"
         transform="matrix(.72714354 0 0 .74599173 28.362409 23.351093)"
         id="g3129">
        <path
           d="m-3.9999997-.0000063c-1.6499999 0-2.9999999 1.35-2.9999999 2.9999999v90.0000004c0 1.65 1.35 3 2.9999999 3h105.9999997c1.65 0 3-1.35 3-3v-90.0000004c0-1.6499999-1.35-2.9999999-3-2.9999999z"
           id="path3127" />
      </g>
      <path
         d="m25.453829 23.351086c-1.199788 0-2.181429.978314-2.181429 2.174033v65.220995c0 1.195709.981641 2.174035 2.181429 2.174035h77.077221c1.19979 0 2.18143-.978326 2.18143-2.174035v-65.220995c0-1.195719-.98164-2.174033-2.18143-2.174033z"
         fill="url(#s)"
         id="path3131" />
      <path
         d="m27.48219 25.397234c-1.136639 0-2.066617.920768-2.066617 2.04615v61.384455c0 1.125381.929978 2.046158 2.066617 2.046158h73.02053c1.13663 0 2.06661-.920777 2.06661-2.046158v-61.384455c0-1.125382-.92998-2.04615-2.06661-2.04615z"
         fill="url(#r)"
         id="path3133" />
      <path
         d="m23.272409 34.921974h81.440071v46.604069h-81.440071z"
         id="path3135" />
      <path
         d="m103.25 76c0 1.65-1.33204 3-2.9601 3h-86.829785c-1.628058 0-2.960106-1.35-2.960106-3v-64c0-1.65 1.332048-3 2.960106-3h86.829785c1.62806 0 2.9601 1.35 2.9601 3z"
         fill="url(#n)"
         transform="matrix(.83184647 0 0 .61455912 16.681178 31.183403)"
         id="path3137" />
      <path
         d="m23.272405 57.796064c33.458007-13.515085 65.650228-16.65439 81.440075-17.341613v-4.41218h-81.440075z"
         fill="#fff"
         opacity=".1"
         id="path3139" />
      <path
         d="m45.663516 51.487708-12.942334 6.921392v-3.460695l9.706751-5.191048-9.706751-5.191045v-3.460696l12.942334 6.921393z"
         fill="url(#q)"
         id="path3141" />
      <path
         d="m64.68941 64.176928h-16.845532v-2.883912h16.845532z"
         fill="url(#p)"
         opacity=".9"
         id="path3143" />
    </g>
    <path
       clip-path="url(#f)"
       d="m114.4 82.502986c0 4.465301-9.3766 4.299815-11.85883 5.983488-5.108537 3.46508-16.574334-.810699-22.355504-.729679-.081 5.781159.365076 18.386735.365076 24.536755 0 2.97817-3.440475 11.20945-6.350745 11.20945-2.091359 1.5337 3.488204 8.21101 6.734971 5.31989 9.501888-8.46107 35.131682-30.022701 43.350822-39.262886 2.04044-2.29392-4.90514-9.844666-9.88579-7.057018z"
       filter="url(#h)"
       opacity=".605634"
       transform="matrix(1.258302 0 0 1.2610357 -31.355772 -28.164007)"
       id="path3147" />
    <path
       clip-path="url(#f)"
       d="m113.9 82.502986c0 4.465301-7.96273 7.457662-10.95287 7.881439-6.394981.906328-15.304541-.844131-21.085711-.763111-.081 5.781159 3.397918 20.001056-.06716 25.109596-1.68367 2.48224-3.883991 8.07209-6.794261 8.07209-2.091359 1.5337 3.488204 11.21101 6.734971 8.31989 9.501888-8.46107 45.998941-30.20138 54.218081-39.441569 2.04044-2.29392-17.0724-11.965986-22.05305-9.178335z"
       filter="url(#k)"
       opacity=".643192"
       transform="matrix(1.3586765 0 0 1.3616521 -42.382653 -40.155635)"
       id="path3149" />
    <path
       d="m110.63455 70.194961c0 6.22666-3.89615 8.938389-7.35324 11.28619-7.11485 4.831902-21.758838 3.808851-29.810472 3.92183-.112812 8.061568.720236 21.530529-4.105701 28.654139-2.344905 3.46138-6.904898 8.42993-10.95813 8.42993 3.228399 0 6.605514-1.86127 10.562523-5.69609 12.732335-12.33915 24.187814-22.50002 35.75589-35.27627 2.67259-2.951702 5.90913-5.078441 5.90913-11.319729z"
       fill="url(#e)"
       id="path3151" />
    <path
       d="m110.66063 69.760596c-.44065 5.437134-4.51314 7.338042-6.73057 8.843942-5.25734 3.570397-12.241076 3.279514-34.154353 3.279514 0 19.761338.513212 28.553598-3.305002 33.382518-2.272989 2.87466-6.824021 6.07997-10.532933 6.90254 5.082113 0 8.629228-1.08751 11.949253-4.30502.472301-.5418 1.415698-1.55003 2.15657-2.69493 3.94064-5.81684 3.837814-17.294735 3.837814-29.263474 8.051633-.11295 22.202451 1.162156 29.317291-3.669742.64822-.440215 2.63774-2.020759 3.2183-2.58944 3.22475-3.158721 3.92397-5.17219 4.24363-9.885908zm-54.722858 52.408514c-.219575.0485-.436533.0579-.652846.087.218648-.0234.432367-.0468.652846-.087z"
       fill="#fff"
       id="path3153" />
    <path
       clip-path="url(#c)"
       d="m108.97651 89.508691-29.041615 28.702079"
       fill="none"
       filter="url(#d)"
       stroke="url(#a)"
       stroke-width="1.82707"
       transform="matrix(1.3927341 0 0 1.3944553 -45.351691 -44.851769)"
       id="path3155" />
  </g>
  <g
     transform="matrix(0.18750058,0,0,0.18750058,-0.01227967,-0.01866635)"
     id="g4432">
    <path
       style="fill:#1f5623;fill-opacity:0.90588199"
       inkscape:connector-curvature="0"
       d="m 125.7311,90.766045 c 5e-5,-1.656397 -1.34274,-2.99918 -2.99913,-2.999132 l -18.38328,-0.183095 0.0485,-18.151185 c 5e-5,-1.656396 -1.34274,-2.99918 -2.99913,-2.999132 l -10.617739,5e-6 c -1.656393,-4.8e-5 -2.999178,1.342735 -2.999131,2.999127 l -0.04848,18.151185 -18.333781,0.183099 c -1.656396,-4.8e-5 -2.99918,1.342735 -2.999132,2.999132 v 10.617741 c -4.8e-5,1.6564 1.342736,2.99918 2.999132,2.99913 l 18.333781,-0.1831 0.04908,18.56596 c -5e-5,1.6564 1.342736,2.99918 2.999132,2.99913 h 10.617738 c 1.65639,5e-5 2.99918,-1.34273 2.99913,-2.99913 l -0.0491,-18.56596 18.38328,0.18309 c 1.6564,5e-5 2.99918,-1.34274 2.99913,-2.99913 z"
       id="path4398" />
    <path
       style="fill:url(#a-7)"
       inkscape:connector-curvature="0"
       d="m 125.7311,90.766045 c 5e-5,-1.656397 -1.34274,-2.99918 -2.99913,-2.999132 l -18.38328,-0.183095 0.0485,-18.151185 c 5e-5,-1.656396 -1.34274,-2.99918 -2.99913,-2.999132 l -10.617739,5e-6 c -1.656393,-4.8e-5 -2.999178,1.342735 -2.999131,2.999127 l -0.04848,18.151185 -18.333781,0.183099 c -1.656396,-4.8e-5 -2.99918,1.342735 -2.999132,2.999132 v 10.617741 c -4.8e-5,1.6564 1.342736,2.99918 2.999132,2.99913 l 18.333781,-0.1831 0.04908,18.56596 c -5e-5,1.6564 1.342736,2.99918 2.999132,2.99913 h 10.617738 c 1.65639,5e-5 2.99918,-1.34273 2.99913,-2.99913 l -0.0491,-18.56596 18.38328,0.18309 c 1.6564,5e-5 2.99918,-1.34274 2.99913,-2.99913 z"
       id="path4400" />
    <path
       style="fill:#066704"
       inkscape:connector-curvature="0"
       d="m 125.7311,90.766045 c 5e-5,-1.656397 -1.34274,-2.99918 -2.99913,-2.999132 l -18.38328,-0.183095 0.0485,-18.151185 c 5e-5,-1.656396 -1.34274,-2.99918 -2.99913,-2.999132 l -10.617739,5e-6 c -1.656393,-4.8e-5 -2.999178,1.342735 -2.999131,2.999127 l -0.04848,18.151185 -18.333781,0.183099 c -1.656396,-4.8e-5 -2.99918,1.342735 -2.999132,2.999132 v 10.617741 c -4.8e-5,1.6564 1.342736,2.99918 2.999132,2.99913 l 18.333781,-0.1831 0.04908,18.56596 c -5e-5,1.6564 1.342736,2.99918 2.999132,2.99913 h 10.617738 c 1.65639,5e-5 2.99918,-1.34273 2.99913,-2.99913 l -0.0491,-18.56596 18.38328,0.18309 c 1.6564,5e-5 2.99918,-1.34274 2.99913,-2.99913 z"
       id="path4402" />
    <path
       style="fill:url(#c-9)"
       inkscape:connector-curvature="0"
       d="m 125.7311,90.766045 c 5e-5,-1.656397 -1.34274,-2.99918 -2.99913,-2.999132 l -18.38328,-0.183095 0.0485,-18.151185 c 5e-5,-1.656396 -1.34274,-2.99918 -2.99913,-2.999132 l -10.617739,5e-6 c -1.656393,-4.8e-5 -2.999178,1.342735 -2.999131,2.999127 l -0.04848,18.151185 -18.333781,0.183099 c -1.656396,-4.8e-5 -2.99918,1.342735 -2.999132,2.999132 v 10.617741 c -4.8e-5,1.6564 1.342736,2.99918 2.999132,2.99913 l 18.333781,-0.1831 0.04908,18.56596 c -5e-5,1.6564 1.342736,2.99918 2.999132,2.99913 h 10.617738 c 1.65639,5e-5 2.99918,-1.34273 2.99913,-2.99913 l -0.0491,-18.56596 18.38328,0.18309 c 1.6564,5e-5 2.99918,-1.34274 2.99913,-2.99913 z"
       id="path4404" />
    <path
       style="fill:url(#d-3)"
       inkscape:connector-curvature="0"
       d="m 125.7311,90.766045 c 5e-5,-1.656397 -1.34274,-2.99918 -2.99913,-2.999132 l -18.38328,-0.183095 0.0485,-18.151185 c 5e-5,-1.656396 -1.34274,-2.99918 -2.99913,-2.999132 l -10.617739,5e-6 c -1.656393,-4.8e-5 -2.999178,1.342735 -2.999131,2.999127 l -0.04848,18.151185 -18.333781,0.183099 c -1.656396,-4.8e-5 -2.99918,1.342735 -2.999132,2.999132 v 10.617741 c -4.8e-5,1.6564 1.342736,2.99918 2.999132,2.99913 l 18.333781,-0.1831 0.04908,18.56596 c -5e-5,1.6564 1.342736,2.99918 2.999132,2.99913 h 10.617738 c 1.65639,5e-5 2.99918,-1.34273 2.99913,-2.99913 l -0.0491,-18.56596 18.38328,0.18309 c 1.6564,5e-5 2.99918,-1.34274 2.99913,-2.99913 z"
       id="path4406" />
    <g
       style="fill-rule:evenodd"
       transform="translate(-0.164416)"
       id="g4424">
      <path
         style="opacity:0.498127;fill:url(#linearGradient5289);filter:url(#g-6)"
         inkscape:connector-curvature="0"
         d="m 31.7,16 2.875,-3.375 c -1.051205,-1.695758 -3.935136,-2.288018 -5.9375,-0.3125 l 2.8125,3.375 z"
         transform="matrix(-0.64954358,0.64954358,0.6557809,0.6557809,81.289533,61.297978)"
         id="path4408" />
      <path
         style="opacity:0.79026196;fill:url(#e-6);filter:url(#g-6)"
         inkscape:connector-curvature="0"
         d="m 31.7,16 2.875,-3.375 c -1.051205,-1.695758 -3.935136,-2.288018 -5.9375,-0.3125 l 2.8125,3.375 z"
         transform="matrix(-0.6476361,-0.6476361,0.64147625,-0.64147625,102.80882,152.77126)"
         id="path4410" />
      <path
         style="opacity:0.498127;fill:url(#h-2);filter:url(#g-6)"
         inkscape:connector-curvature="0"
         d="m 31.7,16 2.875,-3.375 c -1.051205,-1.695758 -3.935136,-2.288018 -5.9375,-0.3125 l 2.8125,3.375 z"
         transform="matrix(-0.58819378,0.58819378,-0.59384198,-0.59384198,128.42011,113.04167)"
         id="path4412" />
      <path
         style="opacity:0.79026196;fill:url(#linearGradient5291);filter:url(#g-6)"
         inkscape:connector-curvature="0"
         d="m 88.7,16 2.875,-3.375 c -1.051205,-1.695758 -3.935136,-2.288018 -5.9375,-0.3125 l 2.8125,3.375 z"
         transform="matrix(-0.59384198,-0.59384198,0.58819378,-0.58819378,113.74798,161.95621)"
         id="path4414" />
      <path
         style="opacity:0.79026196;fill:url(#linearGradient5293);filter:url(#g-6)"
         inkscape:connector-curvature="0"
         d="m 31.7,16 2.875,-3.375 c -1.051205,-1.695758 -3.935136,-2.288018 -5.9375,-0.3125 l 2.8125,3.375 z"
         transform="matrix(-0.54004786,-0.54004786,-0.53491131,0.53491131,147.78183,100.09653)"
         id="path4416" />
      <path
         style="opacity:0.79026196;fill:url(#linearGradient5295);filter:url(#g-6)"
         inkscape:connector-curvature="0"
         d="m 88.7,16 2.875,-3.375 c -1.051205,-1.695758 -3.935136,-2.288018 -5.9375,-0.3125 l 2.8125,3.375 z"
         transform="matrix(-0.55444337,-0.55444337,-0.5491699,0.5491699,158.58595,110.58603)"
         id="path4418" />
      <path
         style="opacity:0.79026196;fill:url(#linearGradient5126);filter:url(#g-6)"
         inkscape:connector-curvature="0"
         d="m 31.7,16 2.875,-3.375 c -1.051205,-1.695758 -3.935136,-2.288018 -5.9375,-0.3125 l 2.8125,3.375 z"
         transform="matrix(-0.54004786,0.54004786,-0.53491131,-0.53491131,147.68861,92.185302)"
         id="path4420" />
      <path
         style="opacity:0.79026196;fill:url(#linearGradient5124);filter:url(#g-6)"
         inkscape:connector-curvature="0"
         d="m 88.7,16 2.875,-3.375 c -1.051205,-1.695758 -3.935136,-2.288018 -5.9375,-0.3125 l 2.8125,3.375 z"
         transform="matrix(0.55444337,-0.55444337,0.5491699,0.5491699,34.12719,110.58603)"
         id="path4422" />
    </g>
    <path
       style="fill:url(#k-8)"
       inkscape:connector-curvature="0"
       d="m 122.73197,90.766045 -21.38241,-0.183095 0.0485,-21.150312 -10.617737,-5e-6 -0.04848,21.150317 -21.332913,0.183099 v 10.617741 l 21.332913,-0.1831 0.04908,21.56509 h 10.617737 l -0.0491,-21.56509 21.38241,0.18309 z"
       id="path4426" />
    <path
       style="fill:#eef4ca;fill-opacity:0.77941176;filter:url(#l-7)"
       inkscape:connector-curvature="0"
       d="m 101.39845,69.432725 -10.617961,-5e-6 -0.04848,21.150595 -21.33344,0.182664 v 10.617971 l 21.332838,-0.1831 0.04908,21.56501 h 10.617963 l -0.0491,-21.56501 21.38234,0.18308 -1e-5,-10.617951 -21.38233,-0.183095 z m -0.75422,0.754216 -0.0491,20.395773 c -4e-5,0.41656 0.33766,0.754256 0.75422,0.754217 l 20.62812,0.183095 v 9.109524 l -20.62812,-0.18309 c -0.41656,-4e-5 -0.75426,0.33766 -0.75422,0.75422 l 0.0491,20.8108 h -9.109526 l -0.04908,-20.8108 c 4e-5,-0.41656 -0.337657,-0.75426 -0.754216,-0.75422 l -20.578621,0.1831 V 91.520025 L 90.732,91.337362 c 0.416558,3.9e-5 0.754257,-0.337657 0.754216,-0.754216 l 0.04848,-20.396375 z"
       id="path4428" />
    <path
       style="fill:url(#m-9)"
       inkscape:connector-curvature="0"
       d="m 90.780548,69.432805 -0.04848,21.149226 -21.332673,0.183099 v 6.925781 c 5.787164,0.982213 10.225142,1.303218 16.244783,1.314948 13.882903,-0.01695 25.896292,-2.467983 37.087242,-7.338389 v -0.902344 l -21.38217,-0.183095 0.0485,-21.149226 z"
       id="path4430" />
  </g>
</svg>
