<svg height="24" width="24" xmlns="http://www.w3.org/2000/svg" xmlns:xlink="http://www.w3.org/1999/xlink"><linearGradient id="a" gradientTransform="matrix(0 .01301305 .02091171 0 -8.491466 7.64369)" gradientUnits="userSpaceOnUse" x1="399.77466" x2="399.77466" y1="1164.6696" y2="549.06134"><stop offset="0" stop-color="#717174"/><stop offset=".5" stop-color="#9c9ca1"/><stop offset="1" stop-color="#bdbdc2"/></linearGradient><linearGradient id="b" gradientUnits="userSpaceOnUse" x1="11.707651" x2="19.471256" y1="11.279128" y2="3.190106"><stop offset="0" stop-color="#fff"/><stop offset=".42597079" stop-color="#fff"/><stop offset=".5892781" stop-color="#e5e5e5"/><stop offset=".80219781" stop-color="#eaeaea"/><stop offset="1" stop-color="#eee"/></linearGradient><linearGradient id="c" gradientUnits="userSpaceOnUse" x1="10.666672" x2="85.333344" xlink:href="#e" y1="80" y2="80"/><linearGradient id="d" gradientUnits="userSpaceOnUse" x1="48" x2="122.66667" xlink:href="#e" y1="42.666668" y2="42.666668"/><linearGradient id="e" gradientUnits="userSpaceOnUse" x1="47.975686" x2="122.603399" y1="42.537371" y2="42.537371"><stop offset="0" stop-color="#b4b4b6"/><stop offset=".5" stop-color="#9c9ca1"/><stop offset="1" stop-color="#cdcdd1"/></linearGradient><linearGradient id="f" gradientUnits="userSpaceOnUse" x1="120.522686" x2="70.536637" y1="18.63866" y2="60.424882"><stop offset="0" stop-color="#fff"/><stop offset="1" stop-color="#fff" stop-opacity="0"/></linearGradient><g transform="matrix(.1875 0 0 .1875 -.000001 0)"><path d="m13.333339 45.333332h69.333336v69.333336h-69.333336z" fill="none" stroke="url(#c)" stroke-dasharray="5.333333 5.333333" stroke-width="5.333333"/><circle cx="85.333336" cy="42.666668" fill="none" r="34.666668" stroke="url(#d)" stroke-dasharray="5.333333 5.333333" stroke-width="5.333333"/><path d="m-9.141919-9.14192h146.28384v146.28384h-146.28384z" fill="#e7e7e7" opacity="0"/><path d="m110.30229 23.156674c-16.769103 8.846075-38.153996 18.689554-56.411692 20.566149v2.528142a31.657706 31.657706 0 0 0 20.987113 26.144527c15.124615-10.190771 29.937619-23.493965 41.736709-34.182846a31.657706 31.657706 0 0 0 -6.31213-15.055972z" fill="url(#f)" fill-rule="evenodd" stroke-width="1.091062"/><path d="m8.9960938 8a6.9963484 6.9963484 0 0 0 6.9960942 6.972656 6.9963484 6.9963484 0 0 0 .007812 0v-6.4628904c0-.2826634-.265008-.5097656-.59375-.5097656z" fill="url(#a)" stroke-width=".140625" transform="matrix(5.3333333 0 0 5.3333333 .000005 0)"/><path d="m10.146484 9a5.9358197 5.9358197 0 0 0 4.853516 4.822266v-4.5839848c0-.1315027-.126873-.2382812-.285156-.2382812z" fill="url(#b)" stroke-width=".204574" transform="matrix(5.3333333 0 0 5.3333333 .000005 0)"/></g></svg>