<svg enable-background="new 0 0 128 128" height="24" viewBox="0 0 24 24" width="24" xmlns="http://www.w3.org/2000/svg" xmlns:xlink="http://www.w3.org/1999/xlink"><linearGradient id="a" gradientTransform="matrix(1.6363601 0 0 1.4960829 -178.79304 -76.583031)" gradientUnits="userSpaceOnUse" x1="154.28152" x2="154.44292" y1="104.82231" y2="130.74823"><stop offset="0" stop-color="#4c78fd"/><stop offset="1" stop-color="#85a2fe"/></linearGradient><radialGradient id="b" cx="121.21739" cy="133.25926" gradientTransform="matrix(.93803929 0 0 .96715161 2.819296 2.117235)" gradientUnits="userSpaceOnUse" r="139.55859"><stop offset="0" stop-color="#c3c4c6"/><stop offset=".11366145" stop-color="#c5c6c7"/><stop offset=".20296688" stop-color="#ececec"/><stop offset=".2363" stop-color="#fafafa"/><stop offset=".2722" stop-color="#fff"/><stop offset=".5313" stop-color="#fafafa"/><stop offset=".8449" stop-color="#ebecec"/><stop offset="1" stop-color="#e1e2e3"/></radialGradient><radialGradient id="c" cx="136" cy="140" gradientUnits="userSpaceOnUse" r="139.5585"><stop offset="0" stop-color="#00537d"/><stop offset=".0151" stop-color="#186389"/><stop offset=".0558" stop-color="#558ca8"/><stop offset=".0964" stop-color="#89afc3"/><stop offset=".1357" stop-color="#b3ccd8"/><stop offset=".1737" stop-color="#d4e2e9"/><stop offset=".2099" stop-color="#ecf2f5"/><stop offset=".2435" stop-color="#fafcfd"/><stop offset=".2722" stop-color="#fff"/></radialGradient><filter id="d"><feGaussianBlur stdDeviation="1.0394514"/></filter><filter id="e"><feGaussianBlur stdDeviation=".50063244"/></filter><linearGradient id="f"><stop offset="0" stop-color="#fff"/><stop offset="1" stop-color="#555"/></linearGradient><linearGradient id="g"><stop offset="0"/><stop offset="1" stop-color="#333"/></linearGradient><linearGradient id="h"><stop offset="0"/><stop offset="1" stop-opacity="0"/></linearGradient><linearGradient id="i" gradientTransform="matrix(.753793 0 0 .6015334 -124.27428 8.136806)" gradientUnits="userSpaceOnUse" x1="25.439508" x2="25.379547" xlink:href="#h" y1="-4.66054" y2="-.227425"/><linearGradient id="j" gradientTransform="matrix(.753793 0 0 .30059615 -124.12137 -22.378011)" gradientUnits="userSpaceOnUse" x1="21.386999" x2="21.386999" xlink:href="#h" y1="-5.395907" y2="7.910984"/><linearGradient id="k" gradientTransform="matrix(.753793 0 0 .739087 -124.12137 -19.825392)" gradientUnits="userSpaceOnUse" spreadMethod="reflect" x1="24" x2="24" xlink:href="#f" y1="8" y2="-16.569082"/><radialGradient id="l" cx="24" cy="17.363621" gradientTransform="matrix(1.1872212 0 0 .55018351 -134.686 16.276698)" gradientUnits="userSpaceOnUse" r="10.839936" xlink:href="#g"/><linearGradient id="m" gradientTransform="matrix(.753793 0 0 .30059613 -84.121377 -22.378011)" gradientUnits="userSpaceOnUse" x1="25.559429" x2="26.693504" xlink:href="#h" y1="-.202853" y2="7.910984"/><linearGradient id="n" gradientTransform="matrix(.753793 0 0 .739087 -84.121377 -19.825392)" gradientUnits="userSpaceOnUse" spreadMethod="reflect" x1="24" x2="24" xlink:href="#f" y1="8" y2="-16.569082"/><radialGradient id="o" cx="24" cy="17.363621" gradientTransform="matrix(1.1872212 0 0 .36001 -94.686002 17.697623)" gradientUnits="userSpaceOnUse" r="10.839936" xlink:href="#g"/><linearGradient id="p" gradientTransform="matrix(0 -.753793 -.3005961 0 22.851133 44.060687)" gradientUnits="userSpaceOnUse" x1="25.559429" x2="26.693502" xlink:href="#h" y1="-.202853" y2="7.910984"/><linearGradient id="q" gradientTransform="matrix(.753793 0 0 .739087 -44.121375 -19.825392)" gradientUnits="userSpaceOnUse" spreadMethod="reflect" x1="24" x2="24" xlink:href="#f" y1="8" y2="-16.569082"/><radialGradient id="r" cx="24" cy="17.363621" gradientTransform="matrix(1.1872212 0 0 .36001 -54.686 17.697623)" gradientUnits="userSpaceOnUse" r="10.839936" xlink:href="#g"/><linearGradient id="s" gradientTransform="matrix(.9792 0 0 .9725 133.0002 20.8762)" gradientUnits="userSpaceOnUse" x1="120.21935" x2="111.65311" y1="87.939392" y2="119.90906"><stop offset="0" stop-color="#72d13d"/><stop offset=".3553" stop-color="#35ac1c"/><stop offset=".6194" stop-color="#0f9508"/><stop offset=".7574" stop-color="#008c00"/><stop offset="1" stop-color="#007a00"/></linearGradient><linearGradient id="t" gradientUnits="userSpaceOnUse" x1="120.21935" x2="111.65311" y1="-84.158562" y2="-52.188889"><stop offset="0" stop-color="#0968ef"/><stop offset="1" stop-color="#aecffc"/></linearGradient><linearGradient id="u" gradientUnits="userSpaceOnUse" x1="128" x2="111.65311" y1="7.999996" y2="55.909065"><stop offset="0" stop-color="#9a7600"/><stop offset=".09292036" stop-color="#e3ad00"/><stop offset=".5043171" stop-color="#ffcd2c"/><stop offset=".91571385" stop-color="#e3ad00"/><stop offset="1" stop-color="#b98d00"/></linearGradient><g transform="matrix(.1875 0 0 .1875 0 .5)"><path d="m23 9.9655172.0048 9.3418338-10.244776-.0084.03814 19.198993 10.211083.111325.0096 16.777531-10.258804-.04187-.03648 19.184862 10.299556.158815-2.5646 16.571413-7.712706-.01676v19.2702l10.277153.0669.01789 10.41966 95.373184.47566c.375-.375.586-.88402.586-1.41402v-110.0961078h-96z" filter="url(#d)" opacity=".306849" transform="matrix(1.0416667 0 0 1.0357143 -9.958333 -3.321534)"/><rect fill="url(#s)" height="26.568712" rx="3.902046" width="18.796871" x="103.8698" y="88.097954"/><path d="m23 9-.01254 10.374266-10.227459-.07531v19.251748l10.216739.05858-.02326 16.79424-10.193477-.0586v19.251746l10.210333.0251-2.201918 16.994872-7.666617-.0054-.355979 18.902228 7.706046-.0668 2.58896 10.55337 95.373182.186c.375-.375.586-.884.586-1.414l-.00001-110.77204z" filter="url(#d)" opacity=".306849" transform="matrix(1.0416667 0 0 1.0357143 -9.958333 -3.321534)"/><rect fill="url(#t)" height="28" rx="3.902046" transform="scale(1 -1)" width="18.796871" x="103.8698" y="-84"/><path d="m24.919999 10.931136v108.137934h91.574001c.375-.375.586-.884.586-1.414v-106.723934z" filter="url(#e)" opacity=".89589" transform="matrix(1.0416667 0 0 1.0357143 -9.958333 -3.321534)"/><rect fill="url(#u)" height="26.568712" rx="3.902046" width="18.796871" x="103.8698" y="24.097954"/><path d="m16.000002 8v112h95.413998c.375-.375.586-.884.586-1.414v-110.586z" fill="url(#c)"/><path d="m21.333335 13.481267c-.516859 0-.938038.434251-.938038.967152l-.670903 101.792701c0 .53388.42118.96716.938039.96716l86.004377-.0185c.17541-.18086.27484-.42942.27484-.68378v-102.747125c0-.5329-.42024-.967151-.93803-.967151z" fill="url(#b)" stroke-width=".971655"/><rect fill="url(#o)" height="6.279149" rx="3.327495" ry="2.767652" transform="rotate(-90)" width="16" x="-72" y="20.38752"/><path d="m-72-24.000002h16v18.6666667h-16z" fill="url(#n)" transform="matrix(0 -1 -1 0 0 0)"/><path d="m-72-24.000002h15.980886v3.52688h-15.980886z" fill="url(#m)" opacity=".451977" transform="matrix(0 -1 -1 0 0 0)"/><rect fill="url(#r)" height="6.193546" rx="3.327495" ry="2.767652" transform="rotate(-90)" width="15.980884" x="-34.647552" y="20.473122"/><path d="m-34.666667-24.000002h16l.000002 18.6666667h-16.000002z" fill="url(#q)" transform="matrix(0 -1 -1 0 0 0)"/><path d="m24.000002 34.647552v-15.980885h-3.52688v15.980885z" fill="url(#p)" opacity=".451977"/><rect fill="url(#l)" height="6.193546" rx="3.327495" ry="3.096773" transform="rotate(-90)" width="15.999987" x="-109.33333" y="20.473122"/><path d="m-109.35245-24.000002h16.019117l.152916 18.6814507h-16.019113z" fill="url(#k)" transform="matrix(0 -1 -1 0 0 0)"/><path d="m-109.33333-24.000002h15.999997v3.52688h-15.999997z" fill="url(#j)" opacity=".451977" transform="matrix(0 -1 -1 0 0 0)"/><path d="m-109.33333 5.3333353h15.999994v2.528156h-15.999994z" fill="url(#i)" opacity=".638418" transform="rotate(-90)"/><path d="m42.66671 72.000052h53.333292l-.000127 26.666568h-53.33328z" fill="url(#a)" stroke-width="1.781432"/><path d="m31.999987 61.339048c-.000001 15.998097-.000003 31.996192-.000005 47.994292h16.00002v-5.33334h-10.66668v-37.33338h10.66668v-5.33334z"/><path d="m106.66667 61.339048c.00001 15.998097.00001 31.996192.00001 47.994292h-16.000011v-5.33334h10.666671v-37.33338h-10.666671v-5.33334z"/></g></svg>