<svg height="24" width="24" xmlns="http://www.w3.org/2000/svg" xmlns:xlink="http://www.w3.org/1999/xlink"><linearGradient id="a" gradientTransform="matrix(.93505184 0 0 .93505179 -4.986985 36.572714)" gradientUnits="userSpaceOnUse" x1="56" x2="56" y1="124" y2="24.585119"><stop offset="0" stop-color="#0968ef"/><stop offset="1" stop-color="#aecffc"/></linearGradient><linearGradient id="b" gradientTransform="matrix(.12417227 0 0 .21857388 2.43709 -123.87677)" gradientUnits="userSpaceOnUse" x1="399.77466" x2="399.77466" y1="1164.6696" y2="549.06134"><stop offset="0" stop-color="#b4b4b6"/><stop offset=".5" stop-color="#9c9ca1"/><stop offset="1" stop-color="#cdcdd1"/></linearGradient><linearGradient id="c" gradientTransform="matrix(.1195733 0 0 .24285987 2.346827 -140.95398)" gradientUnits="userSpaceOnUse" x1="399.77466" x2="399.77466" y1="791.98688" y2="593.10883"><stop offset="0" stop-color="#fff"/><stop offset=".42597079" stop-color="#fff"/><stop offset=".5892781" stop-color="#f1f1f1"/><stop offset=".80219781" stop-color="#eaeaea"/><stop offset="1" stop-color="#dfdfdf"/></linearGradient><linearGradient id="d" gradientTransform="matrix(.70247816 -.00000003 .00000002 .41251639 -5.531365 15.119423)" gradientUnits="userSpaceOnUse" x1="10.135816" x2="9.692278" y1="29.107889" y2="103.48482"><stop offset="0" stop-color="#72d13d"/><stop offset=".3553" stop-color="#35ac1c"/><stop offset=".6194" stop-color="#0f9508"/><stop offset=".7574" stop-color="#008c00"/><stop offset="1" stop-color="#007a00"/></linearGradient><g transform="matrix(.171875 0 0 .171875 1.000155 .99985)"><path d="m17.45426 46.5466h104.72666v81.454269h-104.72666z" fill="#ebebeb" opacity=".710145"/><path d="m20.076474 41.0478c-1.483144 0-2.688274 1.142634-2.688274 2.571392l.06557 87.628388c0 1.42876 1.205129 2.57139 2.688274 2.57139l105.168219.00079c1.48314 0 2.68827-1.14263 2.68827-2.57139l-.0656-87.628387c0-1.428757-1.20513-2.571392-2.68827-2.571392l-105.168189-.000791h.00004zm3.129826 5.8181 98.97462-.318509-.00053 81.454269-98.908563-.00079-.06557-81.13497z" fill="url(#a)"/><g fill="#a2a2a2"><path d="m29.0905 58.1828h81.4534v5.8181h-81.4534z"/><path d="m29.0905 69.819h75.6353v5.8181h-75.6353z"/><path d="m29.0905 81.4552h46.5448v5.8181h-46.5448z"/></g><rect fill="url(#b)" height="52.363827" rx="2.973228" ry="3.309743" width="98.908684" x="-5.819082" y=".000873"/><path d="m-.0009 5.819055h87.2724v40.727547h-87.2724z" fill="url(#c)"/><path d="m17.453646 11.637237h5.818182v23.272728h-5.818182z" fill-opacity=".710983"/><g transform="translate(17.67767 10.414295)"><path d="m-11.614016 50.379967 2.9024517-2.90245 8.70735093 5.804901.0036614-23.208644h5.80490087l-.00366 23.208644 8.7073521-5.804901 2.902452 2.90245-14.5076854 17.413783z" style="fill:none;stroke:#fff;stroke-width:11.606146;stroke-linecap:round;stroke-linejoin:round;stroke-dashoffset:1.0878"/><path d="m-11.604874 50.391835 2.9024492-2.90245 8.70735164 5.8049-.2138435-25.889525h5.80307386l.2156821 25.889525 8.7073767-5.8049 2.90245 2.90245-14.5168006 17.401915-14.5076844-17.401915z" fill="url(#d)"/></g><g fill="#a2a2a2"><path d="m40.7267 93.0914h63.9991v5.8181h-63.9991z"/><path d="m29.0905 104.7276h63.9991v5.8181h-63.9991z"/><path d="m29.09001 116.36459h46.5448v5.8181h-46.5448z"/></g></g></svg>