<svg height="24" width="24" xmlns="http://www.w3.org/2000/svg" xmlns:xlink="http://www.w3.org/1999/xlink"><linearGradient id="a"><stop offset="0" stop-color="#d3d3d3"/><stop offset="1" stop-color="#d3d3d3" stop-opacity="0"/></linearGradient><linearGradient id="b"><stop offset="0" stop-color="#fff"/><stop offset="1" stop-color="#fff" stop-opacity="0"/></linearGradient><linearGradient id="c" gradientTransform="matrix(0 1 -1 0 -39.9985 140.0029)" gradientUnits="userSpaceOnUse" x1="-84.002403" x2="-12.0029" y1="-383.9971" y2="-383.9971"><stop offset="0" stop-color="#888a85"/><stop offset="1"/></linearGradient><radialGradient id="d" cx="79.339813" cy="114.95621" gradientTransform="matrix(1 -.00000004 .00000002 .5714285 .660186 38.310745)" gradientUnits="userSpaceOnUse" r="56" xlink:href="#c"/><linearGradient id="e" gradientUnits="userSpaceOnUse" x1="56" x2="80" xlink:href="#b" y1="-32" y2="88"/><filter id="f"><feGaussianBlur stdDeviation="1.23375"/></filter><linearGradient id="g" gradientUnits="userSpaceOnUse" x1="82.36569" x2="82.36569" y1="41.208014" y2="105.708774"><stop offset="0" stop-color="#fff"/><stop offset="1" stop-color="#dfdfdf"/></linearGradient><radialGradient id="h" cx="76.209439" cy="68.793777" gradientUnits="userSpaceOnUse" r="40.329939"><stop offset="0" stop-color="#fff" stop-opacity=".48"/><stop offset="1" stop-color="#fff" stop-opacity="0"/></radialGradient><linearGradient id="i" gradientUnits="userSpaceOnUse" x1="80" x2="72" xlink:href="#b" y1="68" y2="44"/><linearGradient id="j" gradientUnits="userSpaceOnUse" x1="60" x2="79.95355" xlink:href="#b" y1="-8" y2="88"/><linearGradient id="k" gradientUnits="userSpaceOnUse" x1="72" x2="72" xlink:href="#a" y1="108" y2="60"/><filter id="l"><feGaussianBlur stdDeviation=".2125"/></filter><linearGradient id="m" gradientTransform="matrix(.9337087 0 0 .9276822 4.242641 6.782771)" gradientUnits="userSpaceOnUse" x1="72" x2="72" xlink:href="#c" y1="-16" y2="64"/><radialGradient id="n" cx="52.972271" cy="28" gradientTransform="matrix(.6205264 -.4280051 .8036782 .8890357 -1.310838 27.907796)" gradientUnits="userSpaceOnUse" r="4" xlink:href="#b"/><radialGradient id="o" cx="115.55806" cy="28.883884" gradientTransform="matrix(.5003954 .4652234 -1.0427748 1.4492943 86.080504 -65.147718)" gradientUnits="userSpaceOnUse" r="4" xlink:href="#b"/><radialGradient id="p" cx="55.422085" cy="107.93423" gradientTransform="matrix(.4752794 .5221485 -1.0186682 1.2326937 139.4252 -53.079902)" gradientUnits="userSpaceOnUse" r="4.5" xlink:href="#a"/><radialGradient id="q" cx="116" cy="108" gradientTransform="matrix(.4413433 -.5369279 1.3713203 1.4565111 -85.226898 12.110704)" gradientUnits="userSpaceOnUse" r="4.5" xlink:href="#a"/><g transform="matrix(.171875 0 0 .171875 1 1)"><path d="m58.63033 29.047145c-1.852768-.003-3.643538.679699-5.018684 1.913345l-39.44835 33.396561c-1.566681 1.405889-2.450985 3.410633-2.450985 5.508114-.000001 2.097483.884305 4.102226 2.450985 5.508114l39.44835 33.396561c1.375141 1.23364 3.165911 1.91637 5.018684 1.91334h50.18769c4.08079-.00041 7.46926-3.367 7.46967-7.42146v-66.793117c-.00041-4.054457-3.38888-7.421052-7.46967-7.421458z" fill="url(#m)"/><path d="m58.181818 34.88-40.727273 34.92 40.727273 34.92h52.363632v-69.84z" fill="url(#d)"/><path d="m58.181818 34.88-40.727273 34.92 3.451705 2.60625c7.1612.54765 14.54759.84375 22.09375.84375 25.68969 0 48.017994-3.620983 67.54545-9.27v-29.1z" fill="url(#e)"/><path d="m59.17819 37.864264-11.8125 11.78125 17.0625 17.0625-17.0625 17.03125 11.8125 11.8125 17.03125-17.0625 17.0625 17.0625 11.78125-11.8125-17.03125-17.03125 17.03125-17.0625-11.78125-11.78125-17.0625 17.03125z" style="fill:none;stroke-width:5;stroke-linecap:round;stroke-linejoin:round;stroke:url(#h);filter:url(#f)"/><path d="m59.17819 37.864264-11.8125 11.78125 17.0625 17.0625-17.0625 17.03125 11.8125 11.8125 17.03125-17.0625 17.0625 17.0625 11.78125-11.8125-17.03125-17.03125 17.03125-17.0625-11.78125-11.78125-17.0625 17.03125z" fill="url(#g)"/><path d="m59.1875 37.875-11.8125 11.78125 17.0625 17.0625-6.15625 6.125c11.311694-.592043 22.14911-1.831095 32.25-3.625l-2.5-2.5 17.03125-17.0625-11.78125-11.78125-17.0625 17.03125z" fill="url(#i)"/><path d="m58.181818 34.88-40.727273 34.92 40.727273-33.92h52.363632v-1z" fill="url(#j)"/><path d="m58.181818 34.88-40.727273 34.92 40.727273 34.92h52.363632v-69.84z" style="opacity:.604;fill:none;stroke-linecap:round;stroke-linejoin:round;stroke-dashoffset:4;stroke:url(#k);filter:url(#l)"/><g fill-rule="evenodd"><path d="m110.54545 29.00132v5.87868h5.17157c-1.21532-4.734246-3.21767-5.174284-5.17157-5.87868z" fill="url(#o)"/><path d="m58.181818 29.354874v5.525126l-6.00901-2.762563c1.862203-1.093039 3.29545-2.710648 6.00901-2.762563z" fill="url(#n)"/><path d="m110.54545 104.72h5.17157c-.41195 1.44006.35852 4.3782-5.17157 5.87868z" fill="url(#q)"/><path d="m58.181818 104.72v6.05546c-2.07988-.47349-3.576722-1.61924-4.729631-3.16154z" fill="url(#p)"/></g></g></svg>