<svg height="24" width="24" xmlns="http://www.w3.org/2000/svg" xmlns:xlink="http://www.w3.org/1999/xlink"><linearGradient id="a"><stop offset="0" stop-color="#fff"/><stop offset="1" stop-color="#fff" stop-opacity="0"/></linearGradient><linearGradient id="b" gradientTransform="matrix(-.25 0 0 .25 24 98)" gradientUnits="userSpaceOnUse" x1="88" x2="88" xlink:href="#a" y1="28" y2="80"/><linearGradient id="c" gradientTransform="matrix(0 -.17069412 -.18207373 .07733563 17.936842 120.29086)" gradientUnits="userSpaceOnUse" x1="74.904556" x2="10.461798" y1="71.052765" y2="71.052765"><stop offset="0" stop-color="#c7cdd7"/><stop offset="1" stop-color="#fff"/></linearGradient><linearGradient id="d" gradientUnits="userSpaceOnUse" x1="17.635806" x2="17.635806" y1="124.096916" y2="112.923353"><stop offset="0" stop-color="#dda2a2"/><stop offset=".5" stop-color="#c86868"/><stop offset="1" stop-color="#edcdcd"/></linearGradient><linearGradient id="e" gradientTransform="matrix(0 -.17069412 -.18207373 .07733563 32.938764 120.29086)" gradientUnits="userSpaceOnUse" x1="7.689354" x2="53.518353" xlink:href="#a" y1="32.6068" y2="82.037323"/><mask id="f" maskUnits="userSpaceOnUse"><path d="m31.017747 120.69839-.01105-11.45549c-.000164-.17022-.112114-.2252-.272779-.19139l-13.459218 2.83263c-.160665.0338-.272943.25289-.272779.42311l.01105 11.45549c.000164.17022.112114.2252.272779.19139l13.459219-2.83263c.160664-.0338.272943-.2529.272779-.42311z" fill="url(#e)" fill-rule="evenodd"/></mask><g transform="matrix(0 1 -1 0 129 0)"><path d="m17.006394 120.37861-.0016-11.90543c-.000081-.60191-.412005-.79038-1-.66172l-14.0047764 3.06435c-.5879952.12866-1.0000815.90932-.9999997 1.51122l.00162 11.90544c.0000819.6019.412013.79038.9999997.66172l14.0047764-3.06436c.587995-.12866 1.60191-1.51122 1-1.51122z" fill="#81a2d1"/><path d="m16.015825 120.69839-.01105-11.45549c-.000164-.17022-.112114-.2252-.272779-.19139l-13.4592184 2.83263c-.1606641.0338-.2729427.25289-.2727785.42311l.011049 11.45549c.0001642.17022.1121137.2252.2727785.19139l13.4592194-2.83263c.160664-.0338.272943-.2529.272779-.42311z" fill="url(#c)" fill-rule="evenodd"/><path d="m15.840714 109.02976c.09797.005.164062.0833.164062.21094l-.004776 9.2593c-4.300543 1.69508-10.4619175-1.7552-14-2.5v-3.69531c0-.17022.1223183-.35769.2734375-.42188l13.4579015-2.82961c.03778-.0161.07672-.0251.109375-.0234z" fill="url(#b)"/><g mask="url(#f)" transform="translate(-15.001922)"><circle cx="17.499065" cy="118.49561" fill="#9b2828" fill-opacity=".975" r="6.497143"/><circle cx="17.499065" cy="118.49561" fill="url(#d)" r="5.493597"/></g><circle cx="17.499065" cy="118.49561" fill="#9b2828" fill-opacity=".975" r="6.497143"/><circle cx="17.499065" cy="118.49561" fill="url(#d)" r="5.493597"/></g></svg>