<svg enable-background="new 0 0 128 128" height="24" viewBox="0 0 34.909091 34.909091" width="24" xmlns="http://www.w3.org/2000/svg" xmlns:xlink="http://www.w3.org/1999/xlink"><radialGradient id="a" cx="427.83167" cy="-398.90292" gradientTransform="matrix(1.8479032 0 0 -1.8463153 -827.14968 -627.54977)" gradientUnits="userSpaceOnUse" r="94.664803"><stop offset="0" stop-color="#535557"/><stop offset=".07095145" stop-color="#898a8c"/><stop offset=".203" stop-color="#ececec"/><stop offset=".2363" stop-color="#fafafa"/><stop offset=".2722" stop-color="#fff"/><stop offset=".5313" stop-color="#fafafa"/><stop offset=".8449" stop-color="#ebecec"/><stop offset="1" stop-color="#e1e2e3"/></radialGradient><filter id="b"><feGaussianBlur stdDeviation=".90323211"/></filter><linearGradient id="c" gradientTransform="matrix(1.00086 0 0 -1 -462.16033 -287.04545)" gradientUnits="userSpaceOnUse" x1="398.44479" x2="393.59644" y1="-369.5" y2="-364.65219"><stop offset="0" stop-color="#888a85"/><stop offset=".0072" stop-color="#8c8e89"/><stop offset=".0673" stop-color="#abaca9"/><stop offset=".1347" stop-color="#c5c6c4"/><stop offset=".2115" stop-color="#dbdbda"/><stop offset=".3012" stop-color="#ebebeb"/><stop offset=".4122" stop-color="#f7f7f6"/><stop offset=".5679" stop-color="#fdfdfd"/><stop offset="1" stop-color="#fff"/></linearGradient><linearGradient id="d" gradientTransform="matrix(1.1000154 0 0 1.259077 -6.4 -21.931205)" gradientUnits="userSpaceOnUse" x1="64" x2="63.9991" y1="96" y2="52.364712"><stop offset="0" stop-color="#080808"/><stop offset="1" stop-color="#232323"/></linearGradient><linearGradient id="e" gradientTransform="matrix(1.0731876 0 0 1.0898743 -4.878251 -.979469)" gradientUnits="userSpaceOnUse" x1="64" x2="64" y1="88" y2="56"><stop offset="0" stop-color="#7f7f81"/><stop offset=".44999999" stop-color="#b6b6b7"/><stop offset=".67499995" stop-color="#f5f5f5"/><stop offset="1" stop-color="#cfcfcf"/></linearGradient><linearGradient id="f" gradientTransform="matrix(.85938698 0 0 1.1353881 9.000004 -2.607879)" gradientUnits="userSpaceOnUse" x1="68" x2="68" y1="4" y2="48"><stop offset="0" stop-color="#fff"/><stop offset=".54545456" stop-color="#ebebeb"/><stop offset=".90909094" stop-color="#bababa"/><stop offset="1" stop-color="#7e7e7f"/></linearGradient><linearGradient id="g" gradientTransform="matrix(.90905844 0 0 1 6.010209 3.69403)" gradientUnits="userSpaceOnUse" x1="58.375481" x2="58.375481" y1="35.690582" y2="75.075203"><stop offset="0" stop-color="#6e4388"/><stop offset=".21062189" stop-color="#651d8d"/><stop offset=".346082" stop-color="#ac7ec6"/><stop offset=".5" stop-color="#ca87dc"/><stop offset="1" stop-color="#ebeaeb"/></linearGradient><linearGradient id="h" gradientUnits="userSpaceOnUse" x1="68.0009" x2="67.436577" y1="123.69399" y2="97.321114"><stop offset="0" stop-color="#fefefe"/><stop offset=".5" stop-color="#f7f7f7"/><stop offset=".91002578" stop-color="#8c8c8c"/><stop offset="1" stop-color="#666"/></linearGradient><linearGradient id="i" gradientTransform="matrix(1.0312643 0 0 .6746442 -1.999993 21.891662)" gradientUnits="userSpaceOnUse" x1="52" x2="76" y1="72" y2="72"><stop offset="0"/><stop offset=".66666669" stop-color="#a6a6a6" stop-opacity=".866667"/><stop offset="1" stop-opacity=".737089"/></linearGradient><linearGradient id="j" gradientUnits="userSpaceOnUse" x1="64.255142" x2="64.255142" y1="47.693993" y2="67.693993"><stop offset="0" stop-color="#baaac4"/><stop offset="1" stop-color="#baaac4" stop-opacity="0"/></linearGradient><linearGradient id="k" gradientTransform="matrix(1.1215587 .56106135 .56106135 -1.1215587 -83.954348 140.36418)" gradientUnits="userSpaceOnUse" x1="113.15723" x2="39.268185" y1="25.786163" y2="25.786163"><stop offset="0" stop-color="#0968ef"/><stop offset="1" stop-color="#aecffc"/></linearGradient><g transform="matrix(.171875 0 0 .171875 0 2.90909)"><g transform="matrix(1.45455 0 0 1.45455 186.18223 -25.386011)"><path d="m-116.36364 17.454546v63.998901h29.090412c.365314 0 .710527-.14925.96875-.40625l27.715409-27.715409c.258221-.258.40625-.603749.40625-.96875v-34.908492z" opacity=".6" stroke="#000" stroke-linejoin="round" stroke-width="5.818182"/><path d="m-116.36364 17.454546v63.998901h29.090412c.365314 0 .710527-.14925.96875-.40625l27.715409-27.715409c.258221-.258.40625-.603749.40625-.96875v-34.908492z" fill="#fff"/><path d="m-114.71458 19.412808v60.082379h28.482022c.346487 0 .673911-.14156.918826-.38532l25.096536-23.643597c.244914-.244704.385315-.572637.385315-.918826v-35.134636z" fill="url(#a)"/><g transform="matrix(1.3181185 0 0 1.3181185 11.369005 -40.539991)"><path d="m-99.99277 80.598s8.198044-6.816 11.983298-10.598c3.785253-3.782 10.607115-11.973 10.607115-11.973s-8.023478 2.409045-20.023478 2.409045c0 12-2.566935 20.161955-2.566935 20.161955z" filter="url(#b)" opacity=".3" transform="matrix(1.0561473 0 0 1.0633114 28.78946 7.753771)"/><path d="m-75.3564 93.052545s8.198044-6.816 11.983298-10.598c3.785253-3.782 10.607115-11.973 10.607115-11.973s-7.597643 2.973-19.597643 2.973c0 12-2.99277 19.598-2.99277 19.598z" fill="url(#c)"/></g></g><g transform="matrix(1.45455 0 0 1.45455 211.57031 8.464872)"><path d="m-116.36364 17.454546v63.998901h29.090412c.365314 0 .710527-.14925.96875-.40625l27.715409-27.715409c.258221-.258.40625-.603749.40625-.96875v-34.908492z" opacity=".6" stroke="#000" stroke-linejoin="round" stroke-width="5.818182"/><path d="m-116.36364 17.454546v63.998901h29.090412c.365314 0 .710527-.14925.96875-.40625l27.715409-27.715409c.258221-.258.40625-.603749.40625-.96875v-34.908492z" fill="#fff"/><path d="m-114.71458 19.412808v60.082379h28.482022c.346487 0 .673911-.14156.918826-.38532l25.096536-23.643597c.244914-.244704.385315-.572637.385315-.918826v-35.134636z" fill="url(#a)"/><g transform="matrix(1.3181185 0 0 1.3181185 11.369005 -40.539991)"><path d="m-99.99277 80.598s8.198044-6.816 11.983298-10.598c3.785253-3.782 10.607115-11.973 10.607115-11.973s-8.023478 2.409045-20.023478 2.409045c0 12-2.566935 20.161955-2.566935 20.161955z" filter="url(#b)" opacity=".3" transform="matrix(1.0561473 0 0 1.0633114 28.78946 7.753771)"/><path d="m-75.3564 93.052545s8.198044-6.816 11.983298-10.598c3.785253-3.782 10.607115-11.973 10.607115-11.973s-7.597643 2.973-19.597643 2.973c0 12-2.99277 19.598-2.99277 19.598z" fill="url(#c)"/></g></g><path d="m66.342429 176.28791-38.138635 8.96571-2.227888-6.68816 15.493597-9.11135c-42.00481304-21.01297-42.23355731-50.02889-31.307423-73.232414l9.113474 4.911794c-7.504008 18.68722-10.3637327 40.81574 26.682445 59.34816l-2.112822-17.63678 6.801067-2.45361z" fill="url(#k)" fill-rule="evenodd"/><g transform="matrix(.9316209 0 0 .9316209 84.629763 67.70417)"><rect fill="#111012" height="36.335339" rx=".20271" ry=".351644" width="90.838356" x="18.167677" y="18.167662"/><rect fill="#3e3c41" height="22.709587" rx=".168174" ry=".279602" width="63.586849" x="31.79343" y="27.251495"/><rect fill="#636363" fill-opacity=".996078" height="58.837982" rx=".198656" ry=".315411" width="54.503017" x="36.335346" y="-.000009"/><rect fill="#1d1d1d" height="23.2724" rx="8" transform="scale(1 -1)" width="113.77512" x="5.819001" y="-67.694855"/><rect fill="url(#d)" height="59.044933" rx=".2445" ry=".383627" width="127.17369" x=".000008" y="40.877247"/><rect fill="#b6b6b6" height="28.748613" rx="7.687527" ry="3.693984" transform="scale(1 -1)" width="117.13782" x="5.493962" y="-69.625862"/><rect fill="url(#e)" height="36.303337" rx=".221498" ry=".271696" width="117.12922" x="5.502564" y="59.076923"/><rect fill="#28232c" height="18.167669" rx=".23216" ry=".352081" width="99.922188" x="13.62576" y="45.419167"/><rect fill="url(#f)" height="45.419174" rx=".177371" ry=".283042" width="36.335342" x="45.419182" y="9.083826"/><path d="m19.879936 39.036896h87.621894c.10394 0 .18325.155388.18762.347716l.49907 21.961351c.004.192706-.12556.264567-.18762.347717l-7.44861 9.999987.36375 6h-73.452194l.363764-6-7.44861-9.999987c-.06776-.09109-.183244-.155011-.187623-.347717l-.499066-21.961351c-.0044-.192706.08368-.347716.187625-.347716z" style="stroke:#1f1f1f;stroke-width:3;stroke-linecap:square;stroke-linejoin:round;stroke-opacity:.924883;fill:url(#g)"/><path d="m18.167678 86.296425v40.877255h90.838352v-39.384619z" fill="#424242" fill-rule="evenodd"/><path d="m27.251513 99.922178v18.167672h72.670682v-18.167672z" fill="url(#h)" fill-rule="evenodd"/><rect height="22.709591" rx=".206393" ry=".266329" width="90.838348" x="18.167679" y="77.212593"/><rect fill="url(#i)" height="8.000092" rx=".212846" ry=".168183" width="23.999996" x="52" y="68.000046"/><rect fill="#986aae" height="18.167673" rx=".281181" ry=".640314" width="63.586845" x="31.79343" y="40.877247"/><rect fill="url(#j)" height="38.11245" opacity=".92" rx=".30959" ry="1.007805" width="45.419174" x="40.877266" y="39.10014"/><rect fill="#c9b1d5" height="15.625274" rx=".257991" ry=".525472" width="54.50301" x="36.33535" y="38.877728"/><rect fill="#0c0c0c" height="13.851226" rx=".257991" ry=".266553" width="36.335342" x="45.419182" y="36.335331"/><path d="m27.251513 90.838342v-9.083835h71.999997l.000001 9.083835z" fill="#545156" fill-rule="evenodd"/></g></g></svg>