<svg enable-background="new 0 0 128 128" height="24" viewBox="0 0 24 24" width="24" xmlns="http://www.w3.org/2000/svg" xmlns:xlink="http://www.w3.org/1999/xlink"><radialGradient id="a" cx="91.793747" cy="99.892967" gradientUnits="userSpaceOnUse" r="105.20497"><stop offset="0" stop-color="#00537d"/><stop offset=".0151" stop-color="#186389"/><stop offset=".0558" stop-color="#558ca8"/><stop offset=".0964" stop-color="#89afc3"/><stop offset=".1357" stop-color="#b3ccd8"/><stop offset=".1737" stop-color="#d4e2e9"/><stop offset=".2099" stop-color="#ecf2f5"/><stop offset=".2435" stop-color="#fafcfd"/><stop offset=".2722" stop-color="#fff"/></radialGradient><radialGradient id="b" cx="112.83274" cy="112.77987" gradientTransform="matrix(.9787234 0 0 .9818182 -18.638296 -6.836364)" gradientUnits="userSpaceOnUse" r="139.55859"><stop offset="0" stop-color="#535557"/><stop offset=".11366145" stop-color="#898a8c"/><stop offset=".20296688" stop-color="#ececec"/><stop offset=".2363" stop-color="#fafafa"/><stop offset=".2722" stop-color="#fff"/><stop offset=".5313" stop-color="#fafafa"/><stop offset=".8449" stop-color="#ebecec"/><stop offset="1" stop-color="#e1e2e3"/></radialGradient><linearGradient id="c" gradientUnits="userSpaceOnUse" x1="111.78525" x2="111.99271" y1="112.5" y2="44.287056"><stop offset="0" stop-color="#e5ff00"/><stop offset="1" stop-color="#e5ff00" stop-opacity="0"/></linearGradient><filter id="d"><feGaussianBlur stdDeviation="1.0394514"/></filter><filter id="e"><feGaussianBlur stdDeviation=".50063244"/></filter><linearGradient id="f" gradientUnits="userSpaceOnUse" x1="96" x2="88.000198" y1="104" y2="96.000198"><stop offset="0" stop-color="#888a85"/><stop offset=".0072" stop-color="#8c8e89"/><stop offset=".0673" stop-color="#abaca9"/><stop offset=".1347" stop-color="#c5c6c4"/><stop offset=".2115" stop-color="#dbdbda"/><stop offset=".3012" stop-color="#ebebeb"/><stop offset=".4122" stop-color="#f7f7f6"/><stop offset=".5679" stop-color="#fdfdfd"/><stop offset="1" stop-color="#fff"/></linearGradient><filter id="g"><feGaussianBlur stdDeviation=".90565481"/></filter><linearGradient id="h" gradientUnits="userSpaceOnUse" x1="96" x2="88.000198" y1="104" y2="96.000198"><stop offset="0" stop-color="#888a85"/><stop offset=".0673" stop-color="#8c8e89"/><stop offset=".0673" stop-color="#abaca9"/><stop offset=".1347" stop-color="#c5c6c4"/><stop offset=".2115" stop-color="#dbdbda"/><stop offset=".3012" stop-color="#ebebeb"/><stop offset=".4122" stop-color="#f7f7f6"/><stop offset=".5679" stop-color="#fdfdfd"/><stop offset="1" stop-color="#fff"/></linearGradient><filter id="i"><feGaussianBlur stdDeviation="1.0600355"/></filter><linearGradient id="j" gradientTransform="matrix(1.1772548 0 0 1.0772187 1.846275 -4.94167)" gradientUnits="userSpaceOnUse" x1="71.626404" x2="46.225941" y1="123.73875" y2="28.942928"><stop offset="0" stop-color="#005f1e"/><stop offset="1" stop-color="#43943c"/></linearGradient><radialGradient id="k" cx="71.775223" cy="16.0865" gradientTransform="matrix(.9650814 .2619502 -.9201984 3.3902106 33.309062 -57.693239)" gradientUnits="userSpaceOnUse" r="3.15625" xlink:href="#l"/><linearGradient id="l"><stop offset="0" stop-color="#fff"/><stop offset="1" stop-color="#fff" stop-opacity="0"/></linearGradient><filter id="m" height="1.157943" width="1.244782" x="-.122391" y="-.078971"><feGaussianBlur stdDeviation=".321914"/></filter><linearGradient id="n" gradientTransform="matrix(1.1772548 0 0 1.0772187 6.555295 -4.94167)" gradientUnits="userSpaceOnUse" x1="96.373123" x2="96.373123" y1="120.42788" y2="46.089832"><stop offset="0" stop-color="#002a0d"/><stop offset="1" stop-color="#002a0d" stop-opacity="0"/></linearGradient><radialGradient id="o" cx="71.775223" cy="16.0865" gradientTransform="matrix(.9650814 .2619502 -.9201984 3.3902106 17.309062 -57.693239)" gradientUnits="userSpaceOnUse" r="3.15625"><stop offset="0" stop-color="#f0ff80"/><stop offset="1" stop-color="#f0ff80" stop-opacity="0"/></radialGradient><linearGradient id="p" gradientTransform="matrix(1.0533333 0 0 .9219945 7.546667 4.992427)" gradientUnits="userSpaceOnUse" x1="43.799026" x2="58.606159" y1="32.051865" y2="96.363052"><stop offset="0" stop-color="#37a42c"/><stop offset="1" stop-color="#bff500"/></linearGradient><radialGradient id="q" cx="11.578125" cy="64.53125" gradientTransform="matrix(6.5079869 0 0 1.510917 -63.772161 -32.970115)" gradientUnits="userSpaceOnUse" r="3.578125" xlink:href="#l"/><filter id="r" height="1.598266" width="1.90393" x="-.451965" y="-.299133"><feGaussianBlur stdDeviation="1.3476562"/></filter><radialGradient id="s" cx="53.630272" cy="79.055809" fx="57.058514" fy="91.805016" gradientTransform="matrix(1.519949 .00000007 -.00000008 1.2772114 -20.224726 -23.996639)" gradientUnits="userSpaceOnUse" r="50"><stop offset="0" stop-color="#cbff10"/><stop offset="1" stop-color="#004d00"/></radialGradient><filter id="t"><feGaussianBlur stdDeviation=".495"/></filter><linearGradient id="u" gradientTransform="matrix(1.0533333 0 0 .9219945 11.76 4.992427)" gradientUnits="userSpaceOnUse" x1="63.159035" x2="63.159035" y1="21.171064" y2="80.12056"><stop offset="0" stop-color="#edffbf"/><stop offset="1" stop-color="#edffbf" stop-opacity="0"/></linearGradient><linearGradient id="v" gradientTransform="matrix(1.0533333 0 0 .9219945 11.76 4.992427)" gradientUnits="userSpaceOnUse" x1="73.739265" x2="35.568035" xlink:href="#l" y1="69.923088" y2="48.212151"/><linearGradient id="w" gradientTransform="matrix(1.0533333 0 0 .9219945 11.76 4.992427)" gradientUnits="userSpaceOnUse" x1="63.159035" x2="63.159035" xlink:href="#l" y1="21.171064" y2="80.12056"/><g opacity=".5" transform="matrix(.171875 0 0 .171875 -3.402051 -1.356603)"><path d="m32.6 14.793103.04082 105.241387 51.531184-.00001c.53 0 1.039-.211 1.414-.586l33.787996-28.579721c.375-.375.586-.884.586-1.414v-74.661656z" filter="url(#d)" opacity=".306849" transform="matrix(1.0416667 0 0 1.0357143 -9.958333 -3.321534)"/><path d="m34.147375 16.447009v101.114561h50.268382c.53 0 1.039-.211 1.414-.586l31.624243-30.258536c.375-.375.586-.884.586-1.414l-.11199-68.856025z" filter="url(#e)" opacity=".89589" transform="matrix(1.0416667 0 0 1.0357143 -9.958333 -3.321534)"/><path d="m32.6 14.793103.04082 105.241387 51.531184-.00001c.53 0 1.039-.211 1.414-.586l33.787996-28.676273c.375-.375.586-.884.586-1.414v-74.565104z" filter="url(#d)" opacity=".513513" transform="matrix(1.0416667 0 0 1.0357143 -9.958333 -3.321534)"/><path d="m25.61185 13.712868v104.725802h52.3629c.53 0 1.039-.211 1.414-.586l33.02525-31.66667c.375-.375.586-.884.586-1.414l-.11665-71.059132z" fill="url(#a)"/><path d="m32.378725 19.5c-.539276 0-.978723.440836-.978723.981818l.02995 97.030222c0 .54197.439447.98182.978723.98182l44.483072-.29386c.257404 0 .509915-.10407.691957-.28767l35.294776-32.870017c.18303-.1836.28677-.435927.28677-.694145l-.23495-63.835382c0-.540982-.43847-.981818-.97872-.981818z" fill="url(#b)"/><g transform="translate(.000002)"><path d="m112.88335 83.530068-34.908602-1.807319-2 2 2 34.715921z" filter="url(#g)"/><path d="m77.974748 118.43867 34.908602-34.908602h-34.908602z" fill="url(#f)"/></g></g><g transform="matrix(.171875 0 0 .171875 3.597879 2.643369)"><path d="m32.6 14.793103.04082 105.241387 51.531184-.00001c.53 0 1.039-.211 1.414-.586l33.787996-28.579721c.375-.375.586-.884.586-1.414v-74.661656z" filter="url(#d)" opacity=".306849" transform="matrix(1.0416667 0 0 1.0357143 -9.958333 -3.321534)"/><path d="m34.147375 16.447009v101.114561h50.268382c.53 0 1.039-.211 1.414-.586l31.624243-30.258536c.375-.375.586-.884.586-1.414l-.11199-68.856025z" filter="url(#e)" opacity=".89589" transform="matrix(1.0416667 0 0 1.0357143 -9.958333 -3.321534)"/><path d="m32.6 14.793103.04082 105.241387 51.531184-.00001c.53 0 1.039-.211 1.414-.586l33.787996-28.676273c.375-.375.586-.884.586-1.414v-74.565104z" filter="url(#d)" opacity=".513513" transform="matrix(1.0416667 0 0 1.0357143 -9.958333 -3.321534)"/><path d="m25.61185 13.712868v104.725802h52.3629c.53 0 1.039-.211 1.414-.586l33.02525-31.66667c.375-.375.586-.884.586-1.414l-.11665-71.059132z" fill="url(#a)"/><path d="m32.378725 19.5c-.539276 0-.978723.440836-.978723.981818l.02995 97.030222c0 .54197.439447.98182.978723.98182l44.483072-.29386c.257404 0 .509915-.10407.691957-.28767l35.294776-32.870017c.18303-.1836.28677-.435927.28677-.694145l-.23495-63.835382c0-.540982-.43847-.981818-.97872-.981818z" fill="url(#b)"/><g transform="translate(.000002)"><path d="m112.88335 83.530068-34.908602-1.807319-2 2 2 34.715921z" filter="url(#g)"/><path d="m77.974748 118.43867 34.908602-34.908602h-34.908602z" fill="url(#h)"/></g></g><g transform="matrix(0 .08766863 -.08766863 0 17.610422 -.792671)"><path d="m87.875 12c-.865503.02693-1.698899.333976-2.375.875l-60 48c-.949856.759129-1.5 1.909063-1.5 3.125s.550144 2.365871 1.5 3.125l60 48c1.200963.96113 2.832437 1.13525 4.21875.46875 1.386317-.6665 2.281892-2.05554 2.28125-3.59375v-23.6875-10.25l-1.5-1.1875c-1.200963-.96113-2.832437-1.135247-4.21875-.46875-1.386317.666498-2.281892 2.055543-2.28125 3.59375v23.6875l-49.59375-39.6875 49.59375-39.6875v23.6875c-.000642 1.538207.894936 2.927253 2.28125 3.59375 1.38631.666496 3.017787.49238 4.21875-.46875l1.5-1.1875v-10.25-23.6875c.000417-1.082848-.441373-2.121179-1.21875-2.875-.777377-.75382-1.823927-1.158727-2.90625-1.125z" style="opacity:.905263;fill:none;stroke:#638000;stroke-width:.966;stroke-linejoin:round;filter:url(#i)" transform="matrix(1.0533333 0 0 1.0173732 -5.093333 -1.111812)"/><g fill-rule="evenodd"><path d="m91.044922 4.0644531c-1.786176.0508634-3.538542.6280715-4.996094 1.6953125l-70.623047 51.6875004c-2.059729 1.506263-3.394531 3.914078-3.394531 6.552734 0 2.638658 1.334802 5.04647 3.394531 6.552734l70.623047 51.687496c2.608844 1.91046 5.98005 2.20189 8.88086.92579 2.870195-1.26266 5.039722-4.11674 5.039062-7.44727v-.002-25.5293-4.78125-6.25-30.3125-5.3125-5.71875-25.529297-.002c.000404-2.3433224-1.065084-4.5335446-2.761719-6.0389655-1.750327-1.5530589-3.967312-2.2403162-6.162109-2.1777344zm-8.388672 24.9511719v9.515625h-12.994141zm-18.615234 13.630859c-.061106.298083-.197266.568625-.197266.884766v41.677734l-28.958984-21.208984zm6.943359 47.791016h11.671875v8.546875z" fill="url(#j)"/><path d="m87.875 12c-.799041.02487-1.572946.283948-2.21875.75l.96875 9.03125 5.34375-6.15625c-.08779-.946211-.499493-1.832841-1.1875-2.5-.777377-.75382-1.823927-1.158727-2.90625-1.125z" fill="url(#k)" filter="url(#m)" opacity=".85" transform="matrix(1.6242239 0 0 1.5687739 -51.942329 -13.800705)"/><path d="m91.039062 3.875c-1.822999.051912-3.612256.6419306-5.101562 1.7324219l-70.623047 51.6875001c-2.104916 1.539307-3.472656 4.002646-3.472656 6.705078 0 2.702434 1.36774 5.165769 3.472656 6.705078l70.623047 51.687502c2.666198 1.95245 6.106657 2.25016 9.068359.94726 2.929648-1.2888 5.153041-4.2102 5.152341-7.62109v-.002-25.5293-4.78125-.75-5.5-30.3125-5.3125-.1875-5.53125-25.529297-.002c.00043-2.3998437-1.092005-4.6408702-2.826169-6.1795905-1.790409-1.588624-4.053986-2.2904042-6.292969-2.2265625zm-8.572265 25.511719v8.955078h-12.226563zm-18.714844 13.705078c-.01499.152982-.09766.282453-.09766.439453v41.304688l-28.451168-20.835938zm7.810547 47.535156h10.904297v7.986328z" fill="url(#n)" opacity=".905263"/><path d="m71.875 12c-.799041.02487-1.572946.283948-2.21875.75l.96875 9.03125 5.34375-6.15625c-.08779-.946211-.499493-1.832841-1.1875-2.5-.777377-.75382-1.823927-1.158727-2.90625-1.125z" fill="url(#o)" filter="url(#m)" opacity=".35" transform="matrix(1.5198093 0 0 -1.467924 -18.580468 138.50508)"/><path d="m24.4 64.000073 63.2-44.255734v88.511471z" fill="url(#p)"/><path d="m11.6875 59.125-2.1875 1.75c-.9498559.759129-1.5 1.909063-1.5 3.125.0000001 1.215937.5501441 2.365871 1.5 3.125l3.53125 2.8125 2.125-5.625z" fill="url(#q)" filter="url(#r)" opacity=".5" transform="matrix(1.6627754 0 0 -1.6060093 2.523144 167.66965)"/><path d="m87.6 19.744339-63.2 44.255734 63.2 44.255737v-29.503825-29.503823z" fill="url(#s)"/></g><path d="m92 16-60 48 60 48v-32-32z" fill="none" filter="url(#t)" stroke="url(#c)" stroke-width="1.014736" transform="matrix(1.0533333 0 0 .9219945 -9.306667 4.992427)"/><path d="m92 16-60 48 60 48v-32-32z" fill="none" filter="url(#t)" stroke="url(#c)" stroke-width="1.014736" transform="matrix(1.0533333 0 0 .9219945 -9.306667 4.992427)"/><g fill-rule="evenodd"><path d="m87.6 19.744339-63.068333 44.169297c6.793856.858836 14.016911 1.325368 21.5275 1.325367 15.513654 0 29.871052-1.977018 41.540833-5.33028v-10.660561z" fill="url(#u)"/><path d="m87.6 19.744339-.88875.633871v28.46658 10.516499c-11.508047 3.306789-25.649685 5.243844-40.948333 5.243844-7.131481 0-13.993161-.422394-20.474167-1.210119l-.757083.518622c6.793856.858836 14.016911 1.325368 21.5275 1.325367 15.513654 0 29.871052-1.977018 41.540833-5.33028v-10.660561z" fill="url(#v)"/><path d="m87.6 19.744339-63.068333 44.169297c3.591314.453991 7.315582.78465 11.125833 1.008432-3.488053-.217395-6.90721-.562838-10.204167-.97962l61.225-42.872743v28.639454 10.343625c-4.247377 1.220467-8.856521 2.26888-13.759166 3.08292 5.231797-.85061 10.165161-1.929422 14.680833-3.226981v-10.660561zm-51.9425 45.177729c1.745003.102487 3.515059.179649 5.299583.230498-1.785355-.05547-3.555557-.121801-5.299583-.230498z" fill="url(#w)"/></g></g></svg>