<svg height="24" width="24" xmlns="http://www.w3.org/2000/svg" xmlns:xlink="http://www.w3.org/1999/xlink"><linearGradient id="a"><stop offset="0"/><stop offset="1" stop-opacity="0"/></linearGradient><linearGradient id="b"><stop offset="0" stop-color="#dee1e5"/><stop offset="1" stop-color="#fafafa"/></linearGradient><linearGradient id="c"><stop offset="0" stop-color="#e0e0e0"/><stop offset="1" stop-color="#fff"/></linearGradient><filter id="d"><feGaussianBlur stdDeviation="1.0251142"/></filter><filter id="e" height="1.312913" width="1.101627" x="-.050813" y="-.156456"><feGaussianBlur stdDeviation="2.37129"/></filter><linearGradient id="f" gradientTransform="matrix(.17848354 0 0 .16563484 1.581973 110.58511)" gradientUnits="userSpaceOnUse" x1="68.019264" x2="68.019264" xlink:href="#c" y1="42.21183" y2="98.134933"/><linearGradient id="g" gradientUnits="userSpaceOnUse" x1="19.626432" x2="19.626432" xlink:href="#b" y1="115.000074" y2="126.438295"/><linearGradient id="h" gradientTransform="matrix(.19026153 0 0 .1777406 .828183 108.50904)" gradientUnits="userSpaceOnUse" x1="63.999996" x2="63.999996" y1="79.933922" y2="-.398468"><stop offset="0" stop-color="#e3e3e3"/><stop offset=".80000001" stop-color="#f6f6f6"/><stop offset="1" stop-color="#f3f3f3"/></linearGradient><radialGradient id="i" cx="64" cy="125" gradientTransform="matrix(.17848354 0 0 .17529634 1.581973 102.05374)" gradientUnits="userSpaceOnUse" r="56" xlink:href="#a"/><linearGradient id="j" gradientUnits="userSpaceOnUse" x1="16.303318" x2="16.303318" xlink:href="#a" y1="122.575656" y2="114.623175"/><linearGradient id="k" gradientTransform="matrix(.17848354 0 0 .16225777 1.581973 109.60597)" gradientUnits="userSpaceOnUse" x1="87.53772" x2="87.53772" xlink:href="#c" y1="86.377098" y2="-16.000978"/><linearGradient id="l" gradientUnits="userSpaceOnUse" x1="19.626432" x2="19.626432" xlink:href="#b" y1="115.000074" y2="124.205075"/><linearGradient id="m" gradientUnits="userSpaceOnUse" x1="19.626432" x2="19.626432" y1="114.816801" y2="126.258567"><stop offset="0" stop-color="#e5edf8"/><stop offset="1" stop-color="#fafafa"/></linearGradient><filter id="n"><feGaussianBlur stdDeviation="1.5398218"/></filter><filter id="o"><feGaussianBlur stdDeviation="1.2279844"/></filter><linearGradient id="p"><stop offset="0" stop-color="#fff"/><stop offset="1" stop-color="#fff" stop-opacity="0"/></linearGradient><linearGradient id="q" xlink:href="#p"/><linearGradient id="r"><stop offset="0" stop-color="#06f"/><stop offset="1" stop-color="#0045ad"/></linearGradient><filter id="s" color-interpolation-filters="sRGB"><feGaussianBlur stdDeviation="1.6233536"/></filter><clipPath id="t"><circle cx="343.99899" cy="92" r="36"/></clipPath><filter id="u" color-interpolation-filters="sRGB"><feGaussianBlur stdDeviation="2.8805897"/></filter><radialGradient id="v" cx="95.997604" cy="18.669399" gradientTransform="matrix(.3008594 0 0 .55385015 12.372618 102.21139)" gradientUnits="userSpaceOnUse" r="15.999599" xlink:href="#q"/><radialGradient id="w" cx="95.997604" cy="18.669399" gradientTransform="matrix(.58571487 0 0 1.0782388 -19.972755 94.42134)" gradientUnits="userSpaceOnUse" r="15.999599" xlink:href="#q"/><linearGradient id="x" gradientTransform="matrix(0 1 -1 0 -39.9985 140.0029)" gradientUnits="userSpaceOnUse" x1="-86.120354" x2="-56.357521" xlink:href="#r" y1="-381.09921" y2="-373.1243"/><radialGradient id="y" cx="343.99899" cy="92" gradientUnits="userSpaceOnUse" r="36" xlink:href="#r"/><linearGradient id="z" gradientUnits="userSpaceOnUse" x1="328.12448" x2="336.98077" y1="120.81158" y2="87.759453"><stop offset="0" stop-color="#06f"/><stop offset="1" stop-color="#002049"/></linearGradient><linearGradient id="A" gradientTransform="matrix(0 .7388168 -.7388168 0 -1.522665 63.255682)" gradientUnits="userSpaceOnUse" x1="-80.00296" x2="-45.096584" xlink:href="#p" y1="-131.93112" y2="-131.93112"/><clipPath id="B"><path d="m-3.260655 30.477537h123.26067v71.191017h-123.26067z"/></clipPath><g transform="translate(0 -104)"><path d="m12 107.5-10.9901583 6.53763v.64701.647l10.4902843 6.48268 11.499874-6.48268v-.647-.64701z" fill="#fff" opacity=".5"/><path d="m58.369677 8.6461951-61.5751921 36.6288049v3.725.5 3.125l-.05514 44.963943.05514 20.820917v2.09014h1.0377086.4198446.022097 121.7258649v-67.875-3.125-.5-3.725z" style="opacity:.688372;stroke:#000;stroke-width:5.789399;stroke-linecap:round;stroke-linejoin:round;filter:url(#d)" transform="matrix(.17848354 0 0 .17848354 1.581973 105.58198)"/><path d="m3.009842 114.14919h19.990158v12.850815h-19.990158z" fill="url(#m)"/><path d="m3.009842 114.14919h19.990158v12.850815h-19.990158z" fill="url(#l)"/><path d="m12 106.96455-10.9901583 6.53763v.64701.647l10.4902843 6.48268 11.499874-6.48268v-.647-.64701z" fill="url(#k)"/><path d="m12 106.96455-10.9901583 6.53763v.64701.647l10.4902843 6.48268 11.499874-6.48268v-.647-.64701z" fill="url(#j)" opacity=".320225"/><rect filter="url(#o)" height="89.697884" rx="2.6666" stroke="#000" stroke-width="1.866243" transform="matrix(.17848354 0 0 .17848354 1.581973 105.58198)" width="100.87569" x="7.94486" y="19.150337"/><path d="m12 106.96455-10.9901583 6.53763v.64701.647l10.4902843 6.48268 11.499874-6.48268v-.647-.64701z" fill="url(#i)" opacity=".320225"/><rect fill="#fff" height="16.009598" rx=".270858" width="18.004654" x="3" y="109"/><path d="m4 110h16.004667v14.009598h-16.004667z" fill="url(#h)"/><path d="m-3.2055151 52.625v2l58.7745211 34.320873 64.430994-34.320873v-2c-16.90555 10.981058-42.242087 19.527251-59.147633 30.889047l-5.283361-3.566974-5.336544 3.532429z" filter="url(#e)" stroke="#000" transform="matrix(.17848354 0 0 .17848354 1.581973 105.58198)"/><path d="m1.0098417 114.79619v12.20381h21.9901583v-12.20381l-11.499874 6.48268z" fill="url(#g)"/><path d="m1.0098417 114.79619-.00494 1.21353 10.4952193 7.02755 11.504499-7.02755-.0046-1.21353-11.499874 6.48268z" fill="#fff"/><path clip-path="url(#B)" d="m-3.2055151 33.000267 47.5682991 36.717556 11.206222-8.370657 11.204493 8.370657 53.226501-36.717556v-3.499732h-123.2055151z" fill="#2d2d2d" filter="url(#n)" opacity=".767442" transform="matrix(.17848354 0 0 -.1783881 1.581973 132.43683)"/><path d="m1.0098417 114.79619-.00494 1.21353 10.4952193 7.02755 11.504499-7.02755-.0046-1.21353-11.499874 6.48268z" fill="#fff" opacity=".437209"/><path d="m1.0098417 126.48605 10.4902843-6.63505 11.499874 6.63505v.36893c0 .0832-.04866.14506-.13721.14506h-21.7218745c-.073202 0-.1307379-.0501-.1310993-.14645z" fill="url(#f)"/><path d="m11.500126 119.851-10.4902843 6.63586v.17849l10.4902843-5.23443 11.499874 5.23443v-.17849z" fill="#fff"/><text stroke-width=".171875" x="107.60648" y="122.84544"><tspan fill="#555" stroke-width=".171875" x="107.60648" y="125.73294"/></text><rect fill="url(#v)" height=".916644" rx=".458322" ry=".44556" width="5.499862" x="38.504467" y="112.09312"/><rect fill="url(#w)" height=".916644" rx=".458322" ry=".44556" width="5.499862" x="33.504539" y="114.09309"/><g transform="matrix(.17186502 0 0 .17186502 2.005652 104.0101)"><circle cx="343.99899" cy="92" fill="url(#x)" r="36" transform="matrix(-.858425 .2300143 -.2300143 -.858425 412.45864 31.85043)"/><circle cx="343.99899" cy="92" fill="url(#y)" filter="url(#s)" r="36" transform="matrix(-.76523618 .20504438 -.20504438 -.76523618 378.10456 31.866675)"/><circle cx="343.99899" cy="92" r="36" style="opacity:.8;fill:none;stroke-width:6.751382;clip-path:url(#t);stroke:url(#z);filter:url(#u)" transform="matrix(-.858425 -.2300143 -.2300143 .858425 412.45864 32.149572)"/><path d="m96.000027 4.1481901c-11.345716 0-20.826095 8.0116059-23.111114 18.6782149 4.554661 4.245895 13.196893 7.111109 23.111114 7.111109 9.914233 0 18.556453-2.865214 23.111113-7.111109-2.28501-10.666609-11.7654-18.6782149-23.111113-18.6782149z" fill="url(#A)" opacity=".8"/></g><g fill="#fff"><path d="m15.609738 107.01893h5.789901v.990877h-5.789901z"/><path d="m15.609738 109.00979h5.789901v.999986h-5.789901z"/><path d="m15.609738 111.00976h5.789901v.999986h-5.789901z"/></g></g></svg>