<svg height="24" viewBox="0 0 6.3499999 6.3500001" width="24" xmlns="http://www.w3.org/2000/svg" xmlns:xlink="http://www.w3.org/1999/xlink"><linearGradient id="a" gradientTransform="scale(4.1302718 3.7795276)" gradientUnits="userSpaceOnUse" x1="3.432987" x2="3.077958" xlink:href="#c" y1="6.536628" y2="1.266435"/><linearGradient id="b" gradientUnits="userSpaceOnUse" x1="3.284255" x2="2.929226" xlink:href="#c" y1="6.536628" y2="1.266435"/><linearGradient id="c" gradientUnits="userSpaceOnUse" x1="3.825946" x2="3.825946" y1="295.924349" y2="291.729203"><stop offset="0" stop-color="#555"/><stop offset="1"/></linearGradient><path d="m4 3v1.5351562c-1.2474845.1378859-2.1981157.4602194-2.8417969.9707032-.65573767.5200453-.98242185 1.2071395-.98242185 2.0605468 0 .8000696.28325642 1.4933604.85156255 2.0800782.5732389.5639016 1.567846 1.2070906 2.9726562 1.9257816v5.669922c-1.0016397-.02326-1.7988563-.265175-2.3828125-.734376-.5974499-.493375-1.02676742-1.266887-1.2890625-2.320312h-.328125v2.599609c.65573769.373366 1.2676315.632618 1.8359375.779297.5531683.129793 1.2795018.207593 2.1640625.236328v2.197266h1v-2.230469c1.2986091-.217122 2.2915877-.56774 2.9570312-1.0625.7140254-.53338 1.0703125-1.300694 1.0703126-2.300781 0-.306694-.0365131-.592685-.109375-.859375-.0582854-.266689-.1244039-.493005-.1972657-.679687-.0728582-.200018-.2100537-.407742-.4140625-.621094-.2040073-.213352-.3658462-.37999-.4824218-.5-.1165755-.12001-.3337141-.272301-.6542969-.458985-.3205841-.200016-.5535003-.339915-.6992188-.419921-.1311473-.080008-.4094445-.228055-.8320312-.441407-.3138852-.16413-.4801616-.252835-.6386719-.33789v-4.9882816c.822707.121585 1.4786921.3794586 1.9511719.7871094.5100185.4267037.8593929 1.0665143 1.0488281 1.9199218h.328125v-2.2207031c-.6702609-.5111176-1.7880697-.8526548-3.328125-1.0332031v-1.5527344zm0 2.0761719v4.5605469c-.8749247-.5450821-1.4693701-.9835571-1.7695312-1.3105469-.291439-.3333624-.4375001-.7325116-.4375-1.1992188 0-1.082316.7364998-1.7654128 2.2070312-2.0507812zm1 6.9921871c.894422.528367 1.5239099.980358 1.8203125 1.337891.3205828.373366.4804687.867082.4804687 1.480469 0 1.227698-.7727975 1.996374-2.3007812 2.316406z" fill="url(#a)" stroke-width="3.95101" transform="scale(.26458333)"/><path d="m5.8049109 2.7480609q.2593143 0 .4022017.1481796.1428874.1481795.1428874.418078 0 .3069434-.1217189.6085946-.1217189.3016513-.333404.5186285-.2698985.2698985-.6191789.2698985-.2857749 0-.460415-.1852245-.1746402-.1905165-.1746402-.4974599 0-.49746.3545725-.8890774.3598646-.3916174.8096954-.3916174zm-.4392465 1.8046154q.2275614 0 .4286623-.2011009.2011008-.2011008.3069433-.4762914.1111347-.2804827.1111347-.5345048 0-.1746402-.1111347-.2963592-.1058425-.127011-.2593142-.127011-.2434378 0-.4392465.2751906-.1958087.2751906-.2804828.5662576-.079382.2857749-.079382.4551229 0 .1481796.089966.2434379.089966.095258.2328539.095258zm-1.6088067-3.3446244q.164056 0 .2646064.07409.1005504.068798.2222693.1428874.1270111.068798.3439883.068798.24873 0 .4286623-.079382.1852244-.079382.3969095-.2804828h.206393l-2.037469 3.6462752h-.2540221l1.8575367-3.3128715q-.2751907.1587638-.582134.1587638-.206393 0-.3439883-.052921.037045.1323032.037045.2328536 0 .4921678-.3175276.9367065-.3122355.4392465-.7673585.4392465-.2593142 0-.4445386-.1958087-.1799324-.2011008-.1799324-.4762914 0-.5027521.3545725-.8996616.3598647-.4022017.8149875-.402202zm0 .1587638q-.2540221 0-.5133363.4657072-.2540221.4604151-.2540221.8467404 0 .1428874.084674.2328536.089966.089966.2275615.089966.3228197 0 .5927182-.375741.2698985-.3810332.2698985-.830864 0-.1005504-.047629-.2593142-.1058427-.0264605-.1799325-.0582133-.0687976-.0370449-.0952582-.0582134-.0211685-.0211685-.0423371-.0370449-.0211685-.0158764-.042337-.0158764z" fill="url(#b)"/></svg>