<svg height="24" viewBox="0 0 6.3499999 6.3500001" width="24" xmlns="http://www.w3.org/2000/svg" xmlns:xlink="http://www.w3.org/1999/xlink"><filter id="a"><feGaussianBlur stdDeviation="1.9"/></filter><radialGradient id="b" cx="100.88867" cy="155.99673" gradientTransform="matrix(4.4358932 0 0 4.0437488 -312.90386 -445.7342)" gradientUnits="userSpaceOnUse" r="40"><stop offset="0" stop-color="#fff"/><stop offset=".11366145" stop-color="#bdbebf"/><stop offset=".20296688" stop-color="#ececec"/><stop offset=".2363" stop-color="#fafafa"/><stop offset=".38818121" stop-color="#fff"/><stop offset=".5313" stop-color="#fafafa"/><stop offset=".8449" stop-color="#ebecec"/><stop offset="1" stop-color="#e1e2e3"/></radialGradient><radialGradient id="c" cx="48" cy="112" gradientTransform="matrix(1.0107803 0 0 .7798658 30.921447 25.75368)" gradientUnits="userSpaceOnUse" r="32"><stop offset="0" stop-color="#ffea00"/><stop offset="1" stop-color="#ffa000"/></radialGradient><linearGradient id="d" gradientUnits="userSpaceOnUse" x1="52.663445" x2="52.663445" y1="62.977589" y2="67.365891"><stop offset="0"/><stop offset="1" stop-opacity="0"/></linearGradient><filter id="e"><feGaussianBlur stdDeviation="1.1263538"/></filter><filter id="f" height="1.294962" width="1.106002" x="-.053001" y="-.147481"><feGaussianBlur stdDeviation="1.4133574"/></filter><linearGradient id="g"><stop offset="0" stop-color="#fff"/><stop offset="1" stop-color="#fff" stop-opacity="0"/></linearGradient><linearGradient id="h" gradientUnits="userSpaceOnUse" x1="56" x2="56" xlink:href="#g" y1="32" y2="88.117546"/><filter id="i"><feGaussianBlur stdDeviation="1.0600355"/></filter><linearGradient id="j" xlink:href="#g"/><filter id="k" height="1.157943" width="1.244782" x="-.122391" y="-.078971"><feGaussianBlur stdDeviation=".321914"/></filter><filter id="l" height="1.598266" width="1.90393" x="-.451965" y="-.299133"><feGaussianBlur stdDeviation="1.3476562"/></filter><filter id="m"><feGaussianBlur stdDeviation=".495"/></filter><linearGradient id="n" gradientTransform="matrix(1.1772548 0 0 1.0772187 1.846275 -4.94167)" gradientUnits="userSpaceOnUse" x1="71.626404" x2="46.225941" y1="123.73875" y2="28.942928"><stop offset="0" stop-color="#005f1e"/><stop offset="1" stop-color="#43943c"/></linearGradient><radialGradient id="o" cx="71.775223" cy="16.0865" gradientTransform="matrix(.9650814 .2619502 -.9201984 3.3902106 33.309062 -57.693239)" gradientUnits="userSpaceOnUse" r="3.15625" xlink:href="#j"/><linearGradient id="p" gradientTransform="matrix(1.1772548 0 0 1.0772187 6.555295 -4.94167)" gradientUnits="userSpaceOnUse" x1="96.373123" x2="96.373123" y1="120.42788" y2="46.089832"><stop offset="0" stop-color="#002a0d"/><stop offset="1" stop-color="#002a0d" stop-opacity="0"/></linearGradient><radialGradient id="q" cx="71.775223" cy="16.0865" gradientTransform="matrix(.9650814 .2619502 -.9201984 3.3902106 17.309062 -57.693239)" gradientUnits="userSpaceOnUse" r="3.15625"><stop offset="0" stop-color="#f0ff80"/><stop offset="1" stop-color="#f0ff80" stop-opacity="0"/></radialGradient><linearGradient id="r" gradientTransform="matrix(1.0533333 0 0 .9219945 7.546667 4.992427)" gradientUnits="userSpaceOnUse" x1="43.799026" x2="58.606159" y1="32.051865" y2="96.363052"><stop offset="0" stop-color="#37a42c"/><stop offset="1" stop-color="#bff500"/></linearGradient><radialGradient id="s" cx="11.578125" cy="64.53125" gradientTransform="matrix(6.5079869 0 0 1.510917 -63.772161 -32.970115)" gradientUnits="userSpaceOnUse" r="3.578125" xlink:href="#j"/><radialGradient id="t" cx="53.630272" cy="79.055809" fx="57.058514" fy="91.805016" gradientTransform="matrix(1.519949 .00000007 -.00000008 1.2772114 -20.224726 -23.996639)" gradientUnits="userSpaceOnUse" r="50"><stop offset="0" stop-color="#cbff10"/><stop offset="1" stop-color="#004d00"/></radialGradient><linearGradient id="u" gradientUnits="userSpaceOnUse" x1="111.78525" x2="111.99271" y1="112.5" y2="44.287056"><stop offset="0" stop-color="#e5ff00"/><stop offset="1" stop-color="#e5ff00" stop-opacity="0"/></linearGradient><linearGradient id="v" gradientTransform="matrix(1.0533333 0 0 .9219945 11.76 4.992427)" gradientUnits="userSpaceOnUse" x1="63.159035" x2="63.159035" y1="21.171064" y2="80.12056"><stop offset="0" stop-color="#edffbf"/><stop offset="1" stop-color="#edffbf" stop-opacity="0"/></linearGradient><linearGradient id="w" gradientTransform="matrix(1.0533333 0 0 .9219945 11.76 4.992427)" gradientUnits="userSpaceOnUse" x1="73.739265" x2="35.568035" xlink:href="#j" y1="69.923088" y2="48.212151"/><g transform="matrix(.05939994 0 0 .05798391 -1.82366 -.691779)"><path d="m28.816102 46.069283c-3.884437 0-7 3.146813-7 7.03125l.0068 51.749147c0 3.88444 3.115564 7 7.000001 7l60.997429.0425c3.884437 0 7-3.11556 7-7l-.0068-51.749148c0-3.884437-3.115563-7.03125-7-7.03125h-9.446083v3.38205c0 .95614-.762611 1.71875-1.71875 1.71875h-12.597439c-.95614 0-1.71875-.762611-1.71875-1.71875v-3.38205z" style="fill:#020202;stroke:#000;stroke-width:2;stroke-linecap:round;stroke-linejoin:round;stroke-dashoffset:1.0878;filter:url(#a)" transform="matrix(1.0107803 0 0 1.0398212 30.921447 -3.361312)"/><path d="m59.66915 43.827627c-3.707572 0-6.696418 3.074719-6.696418 6.888816l.000001 1.840627.0069 52.78159c0 3.81411 2.988846 6.88882 6.696418 6.88882l62.413079.0442c3.70757 0 6.69642-3.07471 6.69642-6.88882l-.007-54.622213c0-3.814097-2.98885-6.888816-6.69642-6.888816h-2.29546-8.90853v2.775853c0 .994216-.77083 1.787194-1.73728 1.787194h-.48985-9.398398c-.966447 0-1.737278-.792979-1.737278-1.787194v-2.775853z" fill="#fff"/><path d="m59.726472 44.867448c-2.935098 0-5.306596 2.439633-5.306596 5.459062l.0069 55.40208c0 3.01945 2.371497 5.45907 5.306596 5.45907l62.734798.0442c2.9351 0 5.3066-2.43962 5.3066-5.45907l-.007-55.402076c0-3.019428-2.3715-5.459062-5.3066-5.459062h-11.59043v2.320932c0 1.242766-.97144 2.242115-2.1795 2.242115h-8.989011c-1.20806 0-2.179494-.999347-2.179494-2.242115v-2.320932z" fill="url(#b)"/><rect fill="url(#c)" height="45.630474" rx="2.225311" ry="2.289247" width="57.905502" x="61.881271" y="57.561016"/><rect fill="url(#d)" filter="url(#e)" height="32.912254" rx="2.201577" transform="matrix(1.0107803 0 0 1.0398212 30.921446 -7.924358)" width="57.287914" x="30.629627" y="62.977531"/><path d="m32.817131 50.59594c-1.219674 0-2.1875.967827-2.1875 2.1875l-.000009 19.638112c9.640301 2.396967 15.09089 3.743293 26.581594 3.743293s21.066027-1.237144 30.706328-3.634111l.000009-19.638112c0-1.219674-.967827-2.1875-2.1875-2.1875z" fill="url(#h)" filter="url(#f)" transform="matrix(1.0107803 0 0 1.0398212 30.921443 4.957199)"/><path d="m32.817128 62.984182c-1.219674 0-2.1875.967827-2.1875 2.1875v17.062499c9.640301 2.396966 13.797215 4.240699 25.287919 4.240699 11.490702 0 22.359697-1.353033 31.999998-3.749999l-.01588-17.559849c0-1.219674-.967827-2.1875-2.1875-2.1875z" fill="none" filter="url(#f)" transform="matrix(1.0107803 0 0 1.0398212 30.921446 -7.924358)"/><path d="m61.897322 100.91688v1.03982c0 1.26823.978261 2.27504 2.211082 2.27459l53.458136-.0194c1.23282-.00045 2.21108-1.00636 2.21108-2.27459v-1.03982c0 1.26823-.97826 2.27416-2.21108 2.27461l-53.458136.0194c-1.232821.00045-2.211082-1.00638-2.211082-2.27461z" fill="#fff"/></g><g transform="matrix(.05939994 0 0 .05798391 -2.61741 -2.014696)"><path d="m28.816102 46.069283c-3.884437 0-7 3.146813-7 7.03125l.0068 51.749147c0 3.88444 3.115564 7 7.000001 7l60.997429.0425c3.884437 0 7-3.11556 7-7l-.0068-51.749148c0-3.884437-3.115563-7.03125-7-7.03125h-9.446083v3.38205c0 .95614-.762611 1.71875-1.71875 1.71875h-12.597439c-.95614 0-1.71875-.762611-1.71875-1.71875v-3.38205z" style="fill:#020202;stroke:#000;stroke-width:2;stroke-linecap:round;stroke-linejoin:round;stroke-dashoffset:1.0878;filter:url(#a)" transform="matrix(1.0107803 0 0 1.0398212 30.921447 -3.361312)"/><path d="m59.66915 43.827627c-3.707572 0-6.696418 3.074719-6.696418 6.888816l.000001 1.840627.0069 52.78159c0 3.81411 2.988846 6.88882 6.696418 6.88882l62.413079.0442c3.70757 0 6.69642-3.07471 6.69642-6.88882l-.007-54.622213c0-3.814097-2.98885-6.888816-6.69642-6.888816h-2.29546-8.90853v2.775853c0 .994216-.77083 1.787194-1.73728 1.787194h-.48985-9.398398c-.966447 0-1.737278-.792979-1.737278-1.787194v-2.775853z" fill="#fff"/><path d="m59.726472 44.867448c-2.935098 0-5.306596 2.439633-5.306596 5.459062l.0069 55.40208c0 3.01945 2.371497 5.45907 5.306596 5.45907l62.734798.0442c2.9351 0 5.3066-2.43962 5.3066-5.45907l-.007-55.402076c0-3.019428-2.3715-5.459062-5.3066-5.459062h-11.59043v2.320932c0 1.242766-.97144 2.242115-2.1795 2.242115h-8.989011c-1.20806 0-2.179494-.999347-2.179494-2.242115v-2.320932z" fill="url(#b)"/><rect fill="url(#c)" height="45.630474" rx="2.225311" ry="2.289247" width="57.905502" x="61.881271" y="57.561016"/><rect fill="url(#d)" filter="url(#e)" height="32.912254" rx="2.201577" transform="matrix(1.0107803 0 0 1.0398212 30.921446 -7.924358)" width="57.287914" x="30.629627" y="62.977531"/><path d="m32.817131 50.59594c-1.219674 0-2.1875.967827-2.1875 2.1875l-.000009 19.638112c9.640301 2.396967 15.09089 3.743293 26.581594 3.743293s21.066027-1.237144 30.706328-3.634111l.000009-19.638112c0-1.219674-.967827-2.1875-2.1875-2.1875z" fill="url(#h)" filter="url(#f)" transform="matrix(1.0107803 0 0 1.0398212 30.921443 4.957199)"/><path d="m32.817128 62.984182c-1.219674 0-2.1875.967827-2.1875 2.1875v17.062499c9.640301 2.396966 13.797215 4.240699 25.287919 4.240699 11.490702 0 22.359697-1.353033 31.999998-3.749999l-.01588-17.559849c0-1.219674-.967827-2.1875-2.1875-2.1875z" fill="none" filter="url(#f)" transform="matrix(1.0107803 0 0 1.0398212 30.921446 -7.924358)"/><path d="m61.897322 100.91688v1.03982c0 1.26823.978261 2.27504 2.211082 2.27459l53.458136-.0194c1.23282-.00045 2.21108-1.00636 2.21108-2.27459v-1.03982c0 1.26823-.97826 2.27416-2.21108 2.27461l-53.458136.0194c-1.232821.00045-2.211082-1.00638-2.211082-2.27461z" fill="#fff"/></g><g transform="matrix(-.02273763 0 0 .02273763 5.453633 .96764)"><path d="m87.875 12c-.865503.02693-1.698899.333976-2.375.875l-60 48c-.949856.759129-1.5 1.909063-1.5 3.125s.550144 2.365871 1.5 3.125l60 48c1.200963.96113 2.832437 1.13525 4.21875.46875 1.386317-.6665 2.281892-2.05554 2.28125-3.59375v-23.6875-10.25l-1.5-1.1875c-1.200963-.96113-2.832437-1.135247-4.21875-.46875-1.386317.666498-2.281892 2.055543-2.28125 3.59375v23.6875l-49.59375-39.6875 49.59375-39.6875v23.6875c-.000642 1.538207.894936 2.927253 2.28125 3.59375 1.38631.666496 3.017787.49238 4.21875-.46875l1.5-1.1875v-10.25-23.6875c.000417-1.082848-.441373-2.121179-1.21875-2.875-.777377-.75382-1.823927-1.158727-2.90625-1.125z" style="opacity:.905263;fill:none;stroke:#638000;stroke-width:.966;stroke-linejoin:round;filter:url(#i)" transform="matrix(1.0533333 0 0 1.0173732 -5.093333 -1.111812)"/><g fill-rule="evenodd"><path d="m91.044922 4.0644531c-1.786176.0508634-3.538542.6280715-4.996094 1.6953125l-70.623047 51.6875004c-2.059729 1.506263-3.394531 3.914078-3.394531 6.552734 0 2.638658 1.334802 5.04647 3.394531 6.552734l70.623047 51.687496c2.608844 1.91046 5.98005 2.20189 8.88086.92579 2.870195-1.26266 5.039722-4.11674 5.039062-7.44727v-.002-25.5293-4.78125-6.25-30.3125-5.3125-5.71875-25.529297-.002c.000404-2.3433224-1.065084-4.5335446-2.761719-6.0389655-1.750327-1.5530589-3.967312-2.2403162-6.162109-2.1777344zm-8.388672 24.9511719v9.515625h-12.994141zm-18.615234 13.630859c-.061106.298083-.197266.568625-.197266.884766v41.677734l-28.958984-21.208984zm6.943359 47.791016h11.671875v8.546875z" fill="url(#n)"/><path d="m87.875 12c-.799041.02487-1.572946.283948-2.21875.75l.96875 9.03125 5.34375-6.15625c-.08779-.946211-.499493-1.832841-1.1875-2.5-.777377-.75382-1.823927-1.158727-2.90625-1.125z" fill="url(#o)" filter="url(#k)" opacity=".85" transform="matrix(1.6242239 0 0 1.5687739 -51.942329 -13.800705)"/><path d="m91.039062 3.875c-1.822999.051912-3.612256.6419306-5.101562 1.7324219l-70.623047 51.6875001c-2.104916 1.539307-3.472656 4.002646-3.472656 6.705078 0 2.702434 1.36774 5.165769 3.472656 6.705078l70.623047 51.687502c2.666198 1.95245 6.106657 2.25016 9.068359.94726 2.929648-1.2888 5.153041-4.2102 5.152341-7.62109v-.002-25.5293-4.78125-.75-5.5-30.3125-5.3125-.1875-5.53125-25.529297-.002c.00043-2.3998437-1.092005-4.6408702-2.826169-6.1795905-1.790409-1.588624-4.053986-2.2904042-6.292969-2.2265625zm-8.572265 25.511719v8.955078h-12.226563zm-18.714844 13.705078c-.01499.152982-.09766.282453-.09766.439453v41.304688l-28.451168-20.835938zm7.810547 47.535156h10.904297v7.986328z" fill="url(#p)" opacity=".905263"/><path d="m71.875 12c-.799041.02487-1.572946.283948-2.21875.75l.96875 9.03125 5.34375-6.15625c-.08779-.946211-.499493-1.832841-1.1875-2.5-.777377-.75382-1.823927-1.158727-2.90625-1.125z" fill="url(#q)" filter="url(#k)" opacity=".35" transform="matrix(1.5198093 0 0 -1.467924 -18.580468 138.50508)"/><path d="m24.4 64.000073 63.2-44.255734v88.511471z" fill="url(#r)"/><path d="m11.6875 59.125-2.1875 1.75c-.9498559.759129-1.5 1.909063-1.5 3.125.0000001 1.215937.5501441 2.365871 1.5 3.125l3.53125 2.8125 2.125-5.625z" fill="url(#s)" filter="url(#l)" opacity=".5" transform="matrix(1.6627754 0 0 -1.6060093 2.523144 167.66965)"/><path d="m87.6 19.744339-63.2 44.255734 63.2 44.255737v-29.503825-29.503823z" fill="url(#t)"/></g><path d="m92 16-60 48 60 48v-32-32z" fill="none" filter="url(#m)" stroke="url(#u)" stroke-width="1.014736" transform="matrix(1.0533333 0 0 .9219945 -9.306667 4.992427)"/><path d="m92 16-60 48 60 48v-32-32z" fill="none" filter="url(#m)" stroke="url(#u)" stroke-width="1.014736" transform="matrix(1.0533333 0 0 .9219945 -9.306667 4.992427)"/><g fill-rule="evenodd"><path d="m87.6 19.744339-63.068333 44.169297c6.793856.858836 14.016911 1.325368 21.5275 1.325367 15.513654 0 29.871052-1.977018 41.540833-5.33028v-10.660561z" fill="url(#v)"/><path d="m87.6 19.744339-.88875.633871v28.46658 10.516499c-11.508047 3.306789-25.649685 5.243844-40.948333 5.243844-7.131481 0-13.993161-.422394-20.474167-1.210119l-.757083.518622c6.793856.858836 14.016911 1.325368 21.5275 1.325367 15.513654 0 29.871052-1.977018 41.540833-5.33028v-10.660561z" fill="url(#w)"/><path d="m87.6 19.744339-63.068333 44.169297c3.591314.453991 7.315582.78465 11.125833 1.008432-3.488053-.217395-6.90721-.562838-10.204167-.97962l61.225-42.872743v28.639454 10.343625c-4.247377 1.220467-8.856521 2.26888-13.759166 3.08292 5.231797-.85061 10.165161-1.929422 14.680833-3.226981v-10.660561zm-51.9425 45.177729c1.745003.102487 3.515059.179649 5.299583.230498-1.785355-.05547-3.555557-.121801-5.299583-.230498z" fill="url(#v)"/></g></g></svg>