<svg height="24" viewBox="0 0 6.3499999 6.3500002" width="24" xmlns="http://www.w3.org/2000/svg" xmlns:xlink="http://www.w3.org/1999/xlink"><linearGradient id="a" gradientUnits="userSpaceOnUse" x1="2.161062" x2="7.435016" y1="272.699563" y2="292.382224"><stop offset="0" stop-color="#2cc742"/><stop offset="1" stop-color="#138a00"/></linearGradient><linearGradient id="b" gradientUnits="userSpaceOnUse" x1="7.384845" x2="7.11074" y1="275.79274" y2="293.0936"><stop offset="0" stop-color="#bbffc8"/><stop offset="1" stop-color="#00ae10"/></linearGradient><linearGradient id="c" gradientUnits="userSpaceOnUse" x1="124.5" x2="135.74562" y1="125" y2="2.932803"><stop offset="0" stop-color="#fff"/><stop offset="1" stop-color="#fff" stop-opacity="0"/></linearGradient><filter id="d"><feGaussianBlur stdDeviation=".385"/></filter><linearGradient id="e" gradientUnits="userSpaceOnUse" x1="5.387792" x2="5.387792" y1="291.612527" y2="279.511124"><stop offset="0" stop-color="#d4f3d8"/><stop offset="1" stop-color="#fff" stop-opacity="0"/></linearGradient><g transform="matrix(.171875 0 0 .171875 .264624 -44.9615)"><path d="m12.315196 264.67297h20.011839v3.078745h-20.011839z" fill="#3877c9"/><g transform="matrix(1 0 0 -1 0 558.59442)"><path d="m5.3877922 291.99738-3.848486-4.23334h3.078789l-.0001525-23.09107h1.539394l.0001525 23.09107h3.078789z" fill="none" stroke="url(#a)" stroke-linecap="round" stroke-linejoin="round" stroke-width="3.078789"/><path d="m5.3877922 291.61253-3.848486-3.84849h3.078789l-.0001525-23.09107h1.539394l.0001525 23.09107h3.078789z" fill="url(#b)" fill-rule="evenodd"/><path d="m104 124.5-20-20h16v-64h8v64h16z" fill="none" filter="url(#d)" opacity=".898396" stroke="url(#c)" transform="matrix(.19242431 0 0 .19242431 -14.624336 267.6557)"/><path d="m5.3877922 291.61253-3.848486-3.84849h3.078789v-10.6134c.525174.13326 1.039892.28001 1.539394.43897v10.17443h3.078789z" fill="url(#e)" fill-rule="evenodd"/></g><path d="m15.39394 270.83044h16.933096v1.53935h-16.933096z" fill="#8a8a8a" opacity=".99"/><path d="m15.393939 275.44861h16.933096v1.53935h-16.933096z" fill="#8a8a8a" opacity=".99"/><path d="m12.315196 280.06696h20.011839v3.078745h-20.011839z" fill="#3877c9"/><g fill="#8a8a8a"><path d="m15.393701 286.22455h16.933096v1.53935h-16.933096z" opacity=".99"/><path d="m15.393702 290.84265h16.933096v1.53935h-16.933096z" opacity=".99"/></g></g></svg>