<svg enable-background="new 0 0 128 128" height="24" viewBox="0 0 24 24" width="24" xmlns="http://www.w3.org/2000/svg" xmlns:xlink="http://www.w3.org/1999/xlink"><linearGradient id="a" gradientTransform="matrix(.9792 0 0 .9725 140.0002 28.8762)" gradientUnits="userSpaceOnUse" x1="-135.2299" x2="-120.50674" y1="-21.610088" y2="-9.127198"><stop offset="0" stop-color="#8dd8e4"/><stop offset=".04431298" stop-color="#a8e2f1"/><stop offset=".33793688" stop-color="#0a9dc4"/><stop offset=".73121971" stop-color="#00718c"/><stop offset="1" stop-color="#002b38"/></linearGradient><linearGradient id="b" gradientUnits="userSpaceOnUse" x1="64.822235" x2="64.716736" y1="17.727728" y2="25.233469"><stop offset="0" stop-color="#717171"/><stop offset="1" stop-color="#717171" stop-opacity="0"/></linearGradient><mask id="c" maskUnits="userSpaceOnUse"><path d="m12 16.312845h110.11765v35.373653h-110.11765z" fill="#fff"/></mask><filter id="d" color-interpolation-filters="sRGB" height="2.168999" width="1.076726" x="-.038363" y="-.5845"><feGaussianBlur stdDeviation="1.6184007"/></filter><radialGradient id="e" cx="9.110815" cy="130.07681" gradientTransform="matrix(.89127886 0 0 .9510679 9.430321 -7.348081)" gradientUnits="userSpaceOnUse" r="139.55859"><stop offset="0" stop-color="#c3c5c6"/><stop offset=".11366145" stop-color="#e5e5e5"/><stop offset=".20296688" stop-color="#ececec"/><stop offset=".2363" stop-color="#fafafa"/><stop offset=".2722" stop-color="#fff"/><stop offset=".5313" stop-color="#fafafa"/><stop offset=".8449" stop-color="#ebecec"/><stop offset="1" stop-color="#e1e2e3"/></radialGradient><radialGradient id="f" cx="136.512424" cy="127.013668" gradientUnits="userSpaceOnUse" r="135.187556"><stop offset="0" stop-color="#3e3e3e"/><stop offset=".0151" stop-color="#505050"/><stop offset=".0558" stop-color="#7e7e7e"/><stop offset=".1357" stop-color="#c6c6c6"/><stop offset=".20990001" stop-color="#f1f1f1"/><stop offset=".24349999" stop-color="#fcfcfc"/><stop offset=".2722" stop-color="#fff"/></radialGradient><filter id="g"><feGaussianBlur stdDeviation="1.0394514"/></filter><filter id="h"><feGaussianBlur stdDeviation=".50063244"/></filter><g transform="matrix(.171875 0 0 .171875 -.003083 .034829)"><path d="m17.15654 26.91895.118303 79.65341 112.766517.0763c.375-.375.586-.884.586-1.414l-.0775-78.315661z" filter="url(#g)" opacity=".306849" transform="matrix(1.0090419 0 0 1.003276 -7.594726 -11.692777)"/><path d="m17.15654 27.884467.118303 78.687893 112.766517.0763c.375-.375.586-.884.586-1.414l-.0775-77.350124-113.39333.000001z" filter="url(#g)" opacity=".306849" transform="matrix(1.0090419 0 0 1.003276 -7.594726 -11.692777)"/><path d="m17.15654 26.887732.118303 79.684628 112.766517.0763c.375-.375.586-.884.586-1.414l-.0775-78.346859-113.39333.000001z" filter="url(#g)" opacity=".553425" transform="matrix(1.0090419 0 0 1.003276 -7.594726 -11.692777)"/><path d="m19.076539 28.850086.07749 75.591994 108.967331-.0577c.375-.375.586-.884.586-1.414l-.0775-74.120215-109.553328.000001z" filter="url(#h)" opacity=".89589" transform="matrix(1.0090419 0 0 1.003276 -7.594726 -11.692777)"/><path d="m11.654303 17.251821-.000002 75.636445h110.545459l-.002-75.636465-110.543908.000001z" fill="url(#f)"/><path d="m17.394207 22.867257c-.491095 0-.891279.42703-.891279.951069l.38083 62.284696c0 .525.400185.95108.891279.95108l98.486213.199669c.16667-.17785.26114-.42227.26114-.6724l-.0782-63.441123c0-.524039-.39929-.951068-.89127-.951068z" fill="url(#e)"/></g><rect fill="url(#a)" height="10" rx="1.5" stroke-width=".25" width="16" x="7" y="11"/><path d="m8 12h14v8h-14z" fill="#fff"/><path d="m12 16.312845h110.11765v6.632562h-110.11765z" fill="url(#b)" filter="url(#d)" mask="url(#c)" transform="matrix(.12713675 0 0 .22615701 6.474359 8.310736)"/><g fill="#4d4d4d" transform="matrix(.24109322 0 0 .24109322 14.795615 14.385349)"><path d="m-25.5 15.62q0-.72.16-1.32.16-.64.56-1.16.4-.56.76-1 .36-.44 1.08-.88.72-.48 1.2-.76.48-.32 1.44-.72 1-.44 1.52-.64.52-.24 1.64-.68 1.12-.44 1.64-.64v-2.44q0-3.32-3.04-3.32-1.2 0-2.04.6-.84.56-.84 1.36 0 .32.08.88.12.56.12.72 0 .68-.56 1.2-.52.48-1.24.48-.68 0-1.2-.52-.52-.52-.52-1.2 0-1.88 1.92-3.16 1.96-1.32 4.8-1.32 3.28 0 4.52 1.6 1.24 1.56 1.24 4.8v7.8q0 1.32.24 1.84.28.48.96.48.84 0 1.76-.76v1.04q-1.04 1.16-1.84 1.6-.76.4-1.76.4-1.24 0-1.84-.68-.56-.68-.72-2.24-3.44 2.92-5.84 2.92-1.84 0-3.04-1.2-1.16-1.2-1.16-3.08zm10-1.04v-5.8q-3.6 1.32-5.04 2.56-1.44 1.24-1.44 3 0 1.64.8 2.44.8.8 1.72.8 1.36 0 2.92-.92.64-.36.84-.76.2-.4.2-1.32z"/><path d="m-3.1000305-7.74v12.24q.6-1.48 2.15999998-2.44 1.56-.96 3.40000002-.96 3 0 5 2.52 2.04 2.48 2.04 6.16 0 4.28-2.72 7.2-2.68 2.92-6.64000002 2.92-2.39999998 0-4.51999998-.8-2.08-.84-2.08-1.76v-20.76q0-1.24-.4-1.64-.36-.4-1.56-.4-.44 0-.68.04v-.64q3.08-.76 5.8-1.76zm0 14.36v10.08q0 .76 1.16 1.36 1.15999998.56 2.71999998.56 2.48000002 0 3.84000002-1.84 1.36-1.84 1.36-5.16 0-3.64-1.4-5.8-1.36-2.2-3.72000002-2.2-1.56 0-2.75999998.92-1.2.92-1.2 2.08z"/><path d="m11.499893 10.98q0-4.44 2.6-7.16 2.64-2.72 6.16-2.72 2.52 0 4.32 1.24 1.84 1.2 1.84 2.88 0 .68-.56 1.2-.56.48-1.36.48-1.36 0-1.88-1.84l-.24-.88q-.32-1.12-.8-1.52-.48-.4-1.56-.4-2.44 0-3.96 1.96-1.48 1.92-1.48 5 0 3.44 1.72 5.64 1.76 2.16 4.48 2.16 1.72 0 2.96-.8 1.24-.84 2.68-2.96l.56.36q-.4.8-.72 1.32-.28.52-1.08 1.56-.76 1.04-1.52 1.68-.76.64-2 1.2-1.24.52-2.56.52-3.32 0-5.48-2.48-2.12-2.52-2.12-6.44z"/></g></svg>