<svg height="24" width="24" xmlns="http://www.w3.org/2000/svg" xmlns:xlink="http://www.w3.org/1999/xlink"><linearGradient id="a"><stop offset="0" stop-color="#fff"/><stop offset="1" stop-color="#fff" stop-opacity="0"/></linearGradient><linearGradient id="b"><stop offset="0"/><stop offset="1" stop-opacity="0"/></linearGradient><linearGradient id="c"><stop offset="0" stop-color="#fff" stop-opacity=".621622"/><stop offset="1" stop-color="#fff" stop-opacity="0"/></linearGradient><filter id="d"><feGaussianBlur stdDeviation=".47186117"/></filter><filter id="e"><feGaussianBlur stdDeviation=".53709441"/></filter><filter id="f"><feGaussianBlur stdDeviation=".42032926"/></filter><filter id="g"><feGaussianBlur stdDeviation=".94493222"/></filter><filter id="h" height="1.233946" width="1.097917" x="-.048959" y="-.116973"><feGaussianBlur stdDeviation=".71942638"/></filter><filter id="i" height="1.205601" width="1.14478" x="-.07239" y="-.102801"><feGaussianBlur stdDeviation="3.0237831"/></filter><filter id="j" height="1.910861" width="1.250487" x="-.125243" y="-.45543"><feGaussianBlur stdDeviation="1.2915062"/></filter><radialGradient id="k" cx="-498.49612" cy="-97.979721" gradientTransform="matrix(1.1439156 0 0 1.0941763 71.741347 8.948429)" gradientUnits="userSpaceOnUse" r="50.496159"><stop offset="0" stop-color="#fff"/><stop offset=".30253538" stop-color="#fff" stop-opacity=".866667"/><stop offset=".70000011" stop-color="#fff" stop-opacity=".509804"/><stop offset="1" stop-color="#fff" stop-opacity="0"/></radialGradient><mask id="l"><path d="m-548.99231-108.19437h100.99232v26.352942h-100.99232z" fill="url(#k)"/></mask><linearGradient id="m" gradientUnits="userSpaceOnUse" x1="-493.85455" x2="-493.85455" y1="-118.343312" y2="-74.99992"><stop offset="0" stop-color="#cacaca"/><stop offset=".61419845" stop-color="#ebebeb"/><stop offset="1" stop-color="#cbcbcb"/></linearGradient><radialGradient id="n" cx="-307.625" cy="70.359375" fx="-320.35294" fy="87.258614" gradientTransform="matrix(1.2680305 -.0211603 .00907596 .5438769 -108.5458 -159.1423)" gradientUnits="userSpaceOnUse" r="50.125" xlink:href="#a"/><linearGradient id="o" gradientUnits="userSpaceOnUse" x1="-190.20325" x2="-190.20325" xlink:href="#b" y1="80.369522" y2="112.08436"/><radialGradient id="p" cx="-322.72327" cy="85.487053" gradientTransform="matrix(1.4273864 0 0 .434579 -52.49666 -139.76369)" gradientUnits="userSpaceOnUse" r="18.133474" xlink:href="#c"/><radialGradient id="q" cx="-317.63007" cy="84.673492" gradientTransform="matrix(1.4273864 0 0 .434579 -52.49666 -139.76369)" gradientUnits="userSpaceOnUse" r="18.133474" xlink:href="#c"/><linearGradient id="r" gradientUnits="userSpaceOnUse" x1="-492.87499" x2="-492.87499" xlink:href="#b" y1="-124.8225" y2="-105.119627"/><linearGradient id="s" gradientUnits="userSpaceOnUse" x1="-487.11025" x2="-487.11025" y1="-64.95675" y2="-114.777448"><stop offset="0" stop-color="#050505"/><stop offset="1" stop-color="#050505" stop-opacity="0"/></linearGradient><radialGradient id="t" cx="-107.83378" cy="-43.067612" gradientTransform="matrix(1 0 0 .275 -377.3601 -90.187081)" gradientUnits="userSpaceOnUse" r="12.374368" xlink:href="#b"/><radialGradient id="u" cx="-195.32214" cy="133.89294" gradientTransform="matrix(1.4809016 0 0 .3819503 -208.92937 -132.80629)" gradientUnits="userSpaceOnUse" r="48.968639" xlink:href="#a"/><radialGradient id="v" cx="-195.32211" cy="144.36551" gradientTransform="matrix(.5314418 0 0 .3819503 -394.3799 -132.80629)" gradientUnits="userSpaceOnUse" r="48.968639" xlink:href="#a"/><radialGradient id="w" cx="-75.703278" cy="119.10338" gradientTransform="matrix(2.8313727 .0000001 -.00000001 .3289326 19.372101 67.439863)" gradientUnits="userSpaceOnUse" r="50.125"><stop offset="0" stop-opacity="0"/><stop offset=".52602422" stop-opacity=".214286"/><stop offset="1"/></radialGradient><radialGradient id="x" cx="-75.711166" cy="113.45824" fx="-75.514481" fy="99.224663" gradientTransform="matrix(1.8505064 -.00000012 .00000003 .4986511 -54.882697 47.225801)" gradientUnits="userSpaceOnUse" r="50.125"><stop offset="0" stop-opacity="0"/><stop offset=".5" stop-opacity=".214286"/><stop offset="1"/></radialGradient><linearGradient id="y" gradientUnits="userSpaceOnUse" x1="-493.381984" x2="-493.381984" xlink:href="#a" y1="-114.580612" y2="-91.389902"/><radialGradient id="z" cx="-120" cy="-109.7959" gradientTransform="matrix(.8183544 -.00000005 .00000013 2.242391 162.20254 332.54575)" gradientUnits="userSpaceOnUse" r="78" xlink:href="#a"/><linearGradient id="A" gradientUnits="userSpaceOnUse" x1="133.068143" x2="133.068143" xlink:href="#a" y1="123.252046" y2="43.898753"/><linearGradient id="B" gradientUnits="userSpaceOnUse" x1="89.531918" x2="89.531918" y1="79.966569" y2="-9.440113"><stop offset="0" stop-color="#1f1f1f"/><stop offset="1" stop-color="#424242"/></linearGradient><radialGradient id="C" cx="-122.25" cy="-192.92754" gradientTransform="matrix(.9982816 -.00000003 .00000002 .7333812 184.60376 154.42559)" gradientUnits="userSpaceOnUse" r="94"><stop offset="0" stop-color="#e2e2e2"/><stop offset="1" stop-color="#9d9d9d"/></radialGradient><linearGradient id="D" gradientUnits="userSpaceOnUse" x1="50.594086" x2="78.86857" xlink:href="#a" y1="-60.197109" y2="72.49049"/><radialGradient id="E" cx="-122.25" cy="-192.92754" gradientTransform="matrix(.9982816 -.00000003 .00000002 .7333812 184.60376 154.42559)" gradientUnits="userSpaceOnUse" r="94"><stop offset="0" stop-color="#d6d6d6"/><stop offset="1" stop-color="#fff"/></radialGradient><linearGradient id="F" gradientUnits="userSpaceOnUse" x1="50.432415" x2="87.271828" y1="100.43566" y2="18.300024"><stop offset="0" stop-color="#3383e6"/><stop offset="1" stop-color="#6ecaf7"/></linearGradient><linearGradient id="G" gradientUnits="userSpaceOnUse" x1="88.591797" x2="71.262016" y1="96.592697" y2="79.262917"><stop offset="0" stop-color="#fff"/><stop offset="1" stop-color="#555753"/></linearGradient><filter id="H" color-interpolation-filters="sRGB"><feGaussianBlur stdDeviation=".40750996"/></filter><filter id="I" color-interpolation-filters="sRGB"><feGaussianBlur stdDeviation=".90565481"/></filter><filter id="J" color-interpolation-filters="sRGB"><feGaussianBlur stdDeviation=".4901192"/></filter><filter id="K" height="1.229705" width="1.213029" x="-.106514" y="-.114852"><feGaussianBlur stdDeviation="1.8651175"/></filter><linearGradient id="L" gradientUnits="userSpaceOnUse" x1="96" x2="88.000198" y1="104" y2="96.000198"><stop offset="0" stop-color="#888a85"/><stop offset=".0072" stop-color="#8c8e89"/><stop offset=".0673" stop-color="#abaca9"/><stop offset=".1347" stop-color="#c5c6c4"/><stop offset=".2115" stop-color="#dbdbda"/><stop offset=".3012" stop-color="#ebebeb"/><stop offset=".4122" stop-color="#f7f7f6"/><stop offset=".5679" stop-color="#fdfdfd"/><stop offset="1" stop-color="#fff"/></linearGradient><radialGradient id="M" cx="102" cy="112.3047" gradientTransform="matrix(.6298585 0 0 .61289931 60.894285 55.501053)" gradientUnits="userSpaceOnUse" r="139.55859"><stop offset="0" stop-color="#535557"/><stop offset=".11366145" stop-color="#898a8c"/><stop offset=".20296688" stop-color="#ececec"/><stop offset=".2363" stop-color="#fafafa"/><stop offset=".2722" stop-color="#fff"/><stop offset=".5313" stop-color="#fafafa"/><stop offset=".8449" stop-color="#ebecec"/><stop offset="1" stop-color="#e1e2e3"/></radialGradient><radialGradient id="N" cx="102" cy="112.3047" gradientTransform="matrix(1.0909091 0 0 1.0413224 14.185612 8.250449)" gradientUnits="userSpaceOnUse" r="139.5585"><stop offset="0"/><stop offset=".0151" stop-color="#515151"/><stop offset=".0558" stop-color="#7f7f7f"/><stop offset=".0964" stop-color="#a6a6a6"/><stop offset=".1357" stop-color="#c5c5c5"/><stop offset=".1737" stop-color="#dfdfdf"/><stop offset=".20990001" stop-color="#f1f1f1"/><stop offset=".2435" stop-color="#fafcfd"/><stop offset=".2722" stop-color="#fff"/></radialGradient><filter id="O"><feGaussianBlur stdDeviation="1.4899279"/></filter><radialGradient id="P" cx="106.664" cy="117.3336" fy="121.10474" gradientTransform="matrix(.50000015 -.5000004 .70710696 .70710661 -29.635422 87.698281)" gradientUnits="userSpaceOnUse" r="5.3332"><stop offset="0" stop-color="#eefcff"/><stop offset="1" stop-color="#eefcff" stop-opacity="0"/></radialGradient><filter id="Q"><feGaussianBlur stdDeviation=".20220663"/></filter><linearGradient id="R" gradientUnits="userSpaceOnUse" x1="85.219681" x2="61.336319" y1="93.219681" y2="69.336319"><stop offset="0"/><stop offset="1" stop-color="#393b38"/></linearGradient><g transform="matrix(.171875 0 0 .171875 1.000155 .854683)"><g><g transform="matrix(.7275923 0 0 .7275923 426.34097 174.4132)"><path d="m-498-141.61937-14.5625 5.4375c1.28562 3.30562 1.77043 27.83222-1.0625 31.15625-1.96509 2.30575-6.97583 3.31181-10.96875 3.71875-11.9257 1.21541-23.53125 7.587113-23.53125 13.687493 0 10.91453 28.21176 16.59375 50.125 16.59375 21.78824 0 50.125-5.67922 50.125-16.59375 0-6.350325-11.6368-12.472083-23.5625-13.687493-3.99292-.40694-9.15288-1.29374-10.96875-3.71875-2.8714-3.83463-2.27652-28.28154-1.03125-31.15625z" fill="none" opacity=".54955" stroke="url(#s)" stroke-width="3.933164"/><g fill-rule="evenodd"><path d="m-498-139.31937-14.5625 5.4375c1.28562 3.30562 1.77043 27.83222-1.0625 31.15625-1.96509 2.30575-6.97583 3.311808-10.96875 3.718748-11.9257 1.21541-23.53125 7.587115-23.53125 13.687495 0 10.91453 28.21176 16.59375 50.125 16.59375 21.78824 0 50.125-5.67922 50.125-16.59375 0-6.350325-11.6368-12.472085-23.5625-13.687495-3.99292-.40694-9.15288-1.293738-10.96875-3.718748-2.8714-3.83463-2.27652-28.28154-1.03125-31.15625z" fill-opacity=".762162" filter="url(#i)" opacity=".481982"/><path d="m-498-141.31937-14.5625 5.4375c1.28562 3.30562 1.77043 27.83222-1.0625 31.15625-1.96509 2.30575-6.97583 3.31181-10.96875 3.71875-11.9257 1.215408-23.53125 7.587113-23.53125 13.687493 0 10.91453 28.21176 16.59375 50.125 16.59375 21.78824 0 50.125-5.67922 50.125-16.59375 0-6.350325-11.6368-12.472085-23.5625-13.687493-3.99292-.40694-9.15288-1.29374-10.96875-3.71875-2.8714-3.83463-2.27652-28.28154-1.03125-31.15625z" fill-opacity=".762162" filter="url(#g)"/><path d="m-498-141.61937-14.5625 5.4375c1.28562 3.30562 1.77043 27.83222-1.0625 31.15625-1.96509 2.30575-6.97583 3.31181-10.96875 3.71875-11.9257 1.21541-23.53125 7.587113-23.53125 13.687493 0 10.91453 28.21176 16.59375 50.125 16.59375 21.78824 0 50.125-5.67922 50.125-16.59375 0-6.350325-11.6368-12.472083-23.5625-13.687493-3.99292-.40694-9.15288-1.29374-10.96875-3.71875-2.8714-3.83463-2.27652-28.28154-1.03125-31.15625z" fill="url(#m)"/><path d="m-497.9851-141.63165-14.5625 5.4375c.0823.2115.14371.53213.21875.90625l14.34375-5.34375 14.28125 5.34375c.0786-.3886.19552-.70835.28125-.90625zm-13.5625 21.21875c-.0808 6.89711-.65883 13.728-2.0625 15.375-1.9651 2.30575-6.97583 3.31181-10.96875 3.71875-11.92571 1.21541-23.53125 7.587123-23.53125 13.687503 0 .144795.0214.294549.0312.4375.692-5.921036 11.94697-11.947572 23.5-13.125003 3.99292-.40694 9.00365-1.413 10.96875-3.71875 1.47226-1.72748 2.02909-9.1492 2.0625-16.375zm27.125 2.0625c.12575 6.40052.70665 12.54356 2.03125 14.3125 1.81587 2.42501 6.97582 3.31181 10.96875 3.71875 11.63062 1.18534 22.94516 7.039381 23.5 13.218753.0146-.173402.0625-.355119.0625-.53125-.00001-6.350323-11.6368-12.472093-23.5625-13.687503-3.99293-.40694-9.15288-1.29374-10.96875-3.71875-1.25624-1.67765-1.86615-7.27675-2.03125-13.3125z" fill="url(#n)"/><path d="m-215.03125 91.125c1.79705.578786 3.37742 1.345738 4.28125 2.40625 2.41859 2.837859 2.41412 21.09051 1.5625 28.4375 4.74841.47841 9.54702.71875 14.0625.71875 4.50925 0 9.27026-.23618 14.03125-.71875-.83121-7.18431-.87047-25.188384 1.5625-28.4375.81106-1.083138 2.28787-1.842548 4.03125-2.40625-10.41058-.396513-21.97647-1.083033-39.53125 0z" fill="url(#o)" filter="url(#d)" opacity=".117117" transform="matrix(.9370573 0 0 .9370573 -315.15064 -187.06378)"/><path d="m-511.82885-112.6004c-.0609 5.48859-.3553 10.83813-8.03125 11.25-3.86166.69826-4.19519 2.151173-4.875 3.531253 9.03627-1.36341 19.4666-4.011823 26.94953-2.786613l.13258-8.98705c-4.24239-1.08888-9.97027-1.89853-14.17586-3.00759z" fill="url(#p)" filter="url(#h)" opacity=".468468"/><path d="m-510.4226-109.2254c-.35428 4.99035-5.21804 8.28427-9.96166 9.09727 5.05584-.89459 16.56776-1.03031 22.5324-1.04798l.11048-6.20554c-3.46184-.52011-8.29888-.68808-12.68122-1.84375z" fill="url(#q)" filter="url(#h)" opacity=".40991"/><path d="m-498-141.61937-14.5625 5.4375c1.28562 3.30562 1.77043 27.83222-1.0625 31.15625-1.96509 2.30575-6.97583 3.31181-10.96875 3.71875h53.15625c-3.99292-.40694-9.15288-1.29374-10.96875-3.71875-2.8714-3.83463-2.27652-28.28154-1.03125-31.15625z" fill="url(#r)"/><path d="m-215.03125 91.125c1.79705.578786 3.37742 1.345738 4.28125 2.40625 2.41859 2.837859 2.41412 21.09051 1.5625 28.4375 4.74841.47841 9.54702.71875 14.0625.71875 4.50925 0 9.27026-.23618 14.03125-.71875-.83121-7.18431-.87047-25.188384 1.5625-28.4375.81106-1.083138 2.28787-1.842548 4.03125-2.40625-10.15799-.507294-21.02253-.676229-39.53125 0z" fill="url(#o)" filter="url(#d)" opacity=".117117" transform="matrix(.9370573 0 0 .9370573 -315.15064 -187.06378)"/><path d="m-484.9792-110.89486c-.0309 6.01372-3.42647 8.66713-12.45647 8.86418 13.73668-.71873 21.51974 1.32042 27.66815 2.278495-3.12515-1.117485-8.27754-1.167505-11.4047-2.985595-3.35231-1.94899-3.48432-5.07232-3.80698-8.15708z" fill-opacity=".497297" filter="url(#j)" opacity=".554054" stroke="url(#t)"/><path d="m-511.63312-136.00757-.77482.27894c.47095 1.21093.83949 5.34079.96078 10.19663.0638-3.69336.007-7.47744-.18596-10.47557zm26.93275 0c-.206 3.1902-.30814 7.24261-.21695 11.18841.10566-5.25273.47249-9.78227.96078-10.90947zm34.68095 44.784613c-2.5131 9.379008-28.98934 15.17194-48.16282 15.17194-19.23909 0-45.75355-6.234085-48.13183-15.10996-.53243.94277-.83681 1.90053-.83681 2.85134 0 10.66206 27.56228 16.20924 48.96864 16.20924 21.28424 0 48.96864-5.54718 48.96864-16.20924 0-.98976-.27209-1.95349-.80582-2.91332z" fill="url(#u)" filter="url(#e)" opacity=".432432"/><path d="m-511.63312-136.00757-.77482.27894c.47095 1.21093.83949 5.34079.96078 10.19663.0638-3.69336.007-7.47744-.18596-10.47557zm26.93275 0c-.206 3.1902-.30814 7.24261-.21695 11.18841.10566-5.25273.47249-9.78227.96078-10.90947zm34.68095 44.784613c-2.41916 9.028413-28.98934 15.17194-48.16282 15.17194-19.23909 0-45.72354-6.122102-48.13183-15.10996-.53243.94277-.83681 1.90053-.83681 2.85134 0 10.66206 27.56228 16.20924 48.96864 16.20924 21.28424 0 48.96864-5.54718 48.96864-16.20924 0-.98976-.27209-1.95349-.80582-2.91332z" fill="url(#v)" filter="url(#e)"/><g mask="url(#l)"><path d="m-221.76796 93.20625c-9.66876.985393-19.22404 5.312612-22.36077 10.23165-2.95517 4.63431 6.61982 3.87902 10.65303 2.25713 9.14413-3.49527 22.59713-3.45175 37.58274-3.45175 17.89278 0 33.6687.89525 42.39208 5.61044 5.43293 2.93663 9.21476-.42103 8.02165-3.09878-2.41912-5.429356-12.55538-10.470722-23.13248-11.54869-30.70887-2.692478-35.76778-1.861224-53.15625 0z" fill="url(#w)" filter="url(#f)" opacity=".27027" transform="matrix(.9478225 0 0 .9234897 -313.03905 -186.89507)"/><path d="m-221.76796 93.20625c-9.8876 1.007694-19.55436 5.201049-22.5707 10.56315-2.20296 3.91619 6.14869 3.79059 10.73888 1.97324 9.1757-3.44127 22.65328-3.63195 37.70682-3.63195 17.80642 0 33.44474.99076 42.26424 5.67477 5.13681 3.01365 9.64454-.29612 8.02046-3.33328-2.45487-5.409725-12.61965-10.187663-23.00345-11.24593-29.41254-2.955932-35.37204-1.884684-53.15625 0z" fill="url(#x)" filter="url(#f)" opacity=".27027" transform="matrix(.9410153 0 0 .9168573 -314.3667 -186.17274)"/><path d="m-499.8125-102.09375c-4.83212.0399-10.33985.16863-16.84375.40625 1.68391.54236 3.18431 1.28749 4.03125 2.28125 1.26736 1.487077 1.80071 7.479387 1.90625 13.6875h11.25c.91468 0 1.65625-.832157 1.65625-1.84375v-14.53125c-.66994.002-1.30348-.006-2 0z" fill="url(#y)" filter="url(#d)" opacity=".148649"/></g></g></g><rect fill="url(#C)" height="93.0896" rx="14.827229" width="127.9982" y=".0018"/><rect fill="url(#E)" height="87.996979" rx="13.669816" width="122.90558" x="3.009273" y="2.77959"/><rect fill="url(#z)" height="65.076164" opacity=".707207" rx="2.620845" width="99.80291" x="14.346707" y="14.159207"/><rect fill="url(#B)" height="81.453407" rx="10.956208" width="116.362" x="5.8181" y="5.8199"/><rect fill="url(#F)" height="65.217834" rx="2.642942" width="99.736694" x="14.331082" y="14.143582"/><path d="m9.773139 5.911812c-2.1143562 0-3.973139 1.7294051-3.973139 3.973138v42.11505c15.082806 2.009541 32.413417 3.12367 49.822346 3.12367 24.127258 0 47.423634-2.243206 66.577654-5.944415v-39.279255c0-1.426781-1.35311-3.9966813-3.97314-3.9966813z" fill="url(#A)"/><path d="m17.4543 17.4561h93.0896l-93.0896 58.181z" fill="url(#D)"/></g><g><path d="m111.9972 117.3336a5.3332 5.3332 0 0 1 -5.3332 5.3332v-5.3332z" fill="url(#P)" filter="url(#Q)" opacity=".632851" transform="matrix(1.6239053 0 0 1.5112735 -73.423441 -52.219055)"/><path d="m43.447999 29.798617v89.270453l43.988001-.0001c.53 0 1.039-.211 1.414-.586l23.73579-25.007315c.375-.375.586-.884.586-1.414v-62.263038z" filter="url(#O)" opacity=".701657" transform="matrix(1.1363637 0 0 1.1298701 .739537 -4.584929)"/><path d="m52.362699 29.936456v98.909034h43.828744c.578182 0 1.133455-.2197 1.542546-.61021l29.625751-30.237655c.40908-.390516.63927-.920523.63927-1.472424v-66.588745z" fill="url(#N)" stroke-width="1.090909"/><path d="m68.587566 35.682318c-.548584 0-10.406689.452043-10.406689.985855l.04823 85.262137c0 .53481 12.626078-.0169 13.174665-.0169l32.991648-1.79506c.26187 0 .51869-.10263.7039-.28386l16.78982-22.072612c.18618-.181179.29172-.430139.29172-.68494l-.0482-60.3535c-8.2325-2.20589-5.57863 1.677193-.99562-.968811z" fill="url(#M)" stroke-width="1.090909"/><g transform="matrix(.99495401 0 0 .90033903 16.106841 18.684462)"><path d="m111.414 86.586c.25-.25-26.379-1.586-31.414-1.586-1.654 0-3 1.346-3 3 0 5.035 1.336 31.664 1.586 31.414z" fill="url(#G)" filter="url(#H)" opacity=".1"/><path d="m111.414 86.586c.375-.375-20.77251-1.78349-30.21651-1.78349-1.103 0-2 .897-2 2 0 9.444-.98649 32.98649-.61149 32.61149z" filter="url(#I)" opacity=".2"/><path d="m111.414 86.586c.239-.239-20.40951-1.980981-30.21651-1.980981-.553 0-1 .447-1 1 0 9.807-1.85049 34.047981-1.61149 33.808981z" fill="url(#R)" filter="url(#J)" opacity=".1"/><path d="m114.89179 80.55589c.239-.239-31.061782-2.301337-40.868782-2.301337-.553 0-1 .447-1 1 0 9.807-1.020513 41.153987 2.174605 37.711487z" fill="url(#R)" filter="url(#K)" opacity=".303867" transform="matrix(.79786971 0 0 .79786971 23.223386 23.695489)"/><path d="m81.476738 121.70507s9.023262-12.20507 14.523262-17.70507 17.32678-17.414 17.32678-17.414-21.600041-.000001-31.850041-.000001c0 10.25-.000001 35.119071-.000001 35.119071z" fill="url(#L)"/></g></g></g></svg>