<svg height="24" width="24" xmlns="http://www.w3.org/2000/svg" xmlns:xlink="http://www.w3.org/1999/xlink"><linearGradient id="a"><stop offset="0" stop-color="#eefcff"/><stop offset="1" stop-color="#eefcff" stop-opacity="0"/></linearGradient><filter id="b" color-interpolation-filters="sRGB"><feGaussianBlur stdDeviation="1.0394514"/></filter><radialGradient id="c" cx="106.664" cy="117.3336" fy="121.10474" gradientTransform="matrix(.50000015 -.5000004 .70710696 .70710661 -29.635422 87.698281)" gradientUnits="userSpaceOnUse" r="5.3332" xlink:href="#a"/><filter id="d"><feGaussianBlur stdDeviation=".20220663"/></filter><filter id="e"><feGaussianBlur stdDeviation="1.4899279"/></filter><radialGradient id="f" cx="102" cy="112.3047" gradientTransform="matrix(1 0 0 .95454553 17.367237 12.172879)" gradientUnits="userSpaceOnUse" r="139.5585"><stop offset="0" stop-color="#f1f1f1"/><stop offset=".2435" stop-color="#fafcfd"/><stop offset=".2722" stop-color="#fff"/></radialGradient><radialGradient id="g" cx="102" cy="112.3047" gradientTransform="matrix(.57715156 .01589145 -.02224735 .80798715 62.704314 26.219765)" gradientUnits="userSpaceOnUse" r="139.55859"><stop offset="0" stop-color="#fafafa"/><stop offset=".2722" stop-color="#fff"/><stop offset=".77031809" stop-color="#fafafa"/><stop offset=".91872495" stop-color="#ebecec"/><stop offset="1" stop-color="#e1e2e3"/></radialGradient><linearGradient id="h" gradientUnits="userSpaceOnUse" x1="85.642059" x2="79.003235" y1="104.08924" y2="96.630435"><stop offset="0" stop-color="#8c8c8c"/><stop offset=".25" stop-color="#a8a8a8"/><stop offset=".5" stop-color="#c5c5c5"/><stop offset=".75" stop-color="#e2e2e2"/><stop offset="1" stop-color="#fff"/></linearGradient><linearGradient id="i" gradientTransform="matrix(.89509226 0 0 .99999997 -9.010924 -4.361998)" gradientUnits="userSpaceOnUse" x1="80.523918" x2="80.523918" y1="15.676145" y2="32.142143"><stop offset="0" stop-color="#fff"/><stop offset=".50551778" stop-color="#8b8b8b"/><stop offset=".50551778" stop-color="#a5a5a5"/><stop offset=".65644157" stop-color="#f4f4f4"/><stop offset=".80480587" stop-color="#bbb"/><stop offset="1" stop-color="#b1b1b1"/></linearGradient><filter id="j" height="1.227488" width="1.075829" x="-.037915" y="-.113744"><feGaussianBlur stdDeviation=".75827487"/></filter><radialGradient id="k" cx="61.331802" cy="49.168488" gradientTransform="matrix(1.0790045 0 0 1.9211571 -16.84549 -81.486193)" gradientUnits="userSpaceOnUse" r="50.665401"><stop offset="0"/><stop offset=".43397453" stop-color="#171717"/><stop offset=".66038471" stop-color="#424242"/><stop offset=".75739998" stop-color="#292929"/><stop offset="1" stop-color="#1c1c1c"/></radialGradient><radialGradient id="l" cx="61.331802" cy="66.66819" gradientTransform="matrix(1.6581504 0 0 3.7941922 -50.331513 -189.00933)" gradientUnits="userSpaceOnUse" r="50.665401"><stop offset="0" stop-color="#878787"/><stop offset=".35530001" stop-color="#646464"/><stop offset=".61940002" stop-color="#2d2d2d"/><stop offset=".75739998" stop-color="#232323"/><stop offset="1" stop-color="#1f1f1f"/></radialGradient><linearGradient id="m" gradientUnits="userSpaceOnUse" x1="70.204185" x2="70.204185" y1="117.91774" y2="63.594783"><stop offset="0" stop-color="#343434"/><stop offset="1" stop-opacity="0"/></linearGradient><radialGradient id="n" cx="106.83067" cy="117.06844" fy="120.83958" gradientTransform="matrix(.50000015 -.5000004 .70710696 .70710661 -29.635422 87.698281)" gradientUnits="userSpaceOnUse" r="5.3332" xlink:href="#a"/><radialGradient id="o" cx="91.455429" cy="103.26143" gradientTransform="matrix(2.425942 0 0 2.5158062 -142.41014 -158.24866)" gradientUnits="userSpaceOnUse" r="37.361931"><stop offset="0" stop-color="#ededed"/><stop offset=".25000003" stop-color="#fff"/><stop offset=".5" stop-color="#f6f6f6"/><stop offset="1" stop-color="#eee"/></radialGradient><filter id="p"><feGaussianBlur stdDeviation="2.1720601"/></filter><linearGradient id="q" gradientTransform="matrix(1.3091402 0 0 1.3089471 -33.806659 -30.257161)" gradientUnits="userSpaceOnUse" x1="74.710579" x2="74.664803" y1="18.19672" y2="8.003"><stop offset="0" stop-color="#fff"/><stop offset="1" stop-color="#555"/></linearGradient><filter id="r" height="1.232813" width="1.128976" x="-.064488" y="-.116406"><feGaussianBlur stdDeviation=".80190058"/></filter><g transform="scale(.1875)"><path d="m21.33332.00008h51.11455l-.00001 39.02874h-51.11455z" fill-rule="evenodd" opacity=".265194"/><path d="m48 1.8691406c-.434694.0000351-.787074.3524155-.787109.7871094l-.000008 12.3852c.000035.434694.352415.787074.787109.787109h26.65625c.434693-.000035.787073-.352415.787109-.787109l.000008-12.3852c-.000035-.4346939-.352415-.7870743-.787109-.7871094z" fill="#0f0f0f" filter="url(#r)" transform="matrix(1.1916281 0 0 1.01326 -25.022481 3.920038)"/><path d="m15.99999 10.66674c-8.9318889 0-16 7.818111-16 16l.06251 87.99993v2.65625c0 2.95459 2.389157 5.34375 5.34375 5.34375h2.65625l74.66662-.00001h2.65625c2.95459 0 5.34375-2.38916 5.34375-5.34375v-2.65625l-.06251-87.99993c0-10.931889-9.56811-16-16-16z" fill="url(#k)"/><path d="m8 45.98175c-4.431889 0-8 3.568111-8 8v12.3125l.0625 48.37242v2.65625c0 2.95459 2.389157 5.34375 5.34375 5.34375h2.65625 74.604167 2.65625c2.95459 0 5.34375-2.38916 5.34375-5.34375v-2.65625l-.0625-48.372423v-12.3125c0-4.431889-3.568106-8.000001-7.999996-8z" fill="url(#m)"/><path d="m111.95553 116.68606c0 2.94545-2.38775 5.3332-5.3332 5.3332v-5.3332z" fill="url(#n)" filter="url(#d)" opacity=".632851" transform="matrix(-1.5000378 0 0 1.5000365 168.00004 -60.366678)"/><path d="m111.9972 117.3336a5.3332 5.3332 0 0 1 -5.3332 5.3332v-5.3332z" fill="url(#c)" filter="url(#d)" opacity=".632851" transform="matrix(1.4885799 0 0 1.385334 -76.11122 -45.212892)"/><path d="m10.369821 15.976607c-2.8264321 0-5.0820611 2.205148-5.0820611 4.932182l.066301 40.580654-.025888 50.929847v2.45166c0 1.36353 1.127814 2.48052 2.541031 2.48052h2.5410301l70.848422.0625h2.541026c1.41323 0 2.57093-1.11699 2.57093-2.48052v-2.45166l.02589-50.929847-.0663-40.580654c0-2.727034-2.28552-4.932182-5.111956-4.932182z" fill="url(#l)"/><path d="m10.899612 16.48484c-2.8260678.018741-5.081522 7.548274-5.081522 9.238025v2.287625c0-1.689751 2.2554541-5.219284 5.081522-5.238025l69.876528-.463388c2.826071-.01874 5.111413 1.366374 5.111413 3.056125v-2.287625c0-1.689751-2.285342-7.074867-5.111413-7.056125z" fill="#fff" opacity=".132597"/><path d="m19.28124 27.279675.06086 89.531175h59.625.0625c5.540627-.18609 11.198674.23989 14.90625-.71875.103096-.0188.207717-.0293.3125-.0313.005-.0839.01545-.16746.03125-.25.979346-4.88981 1.741321-12.14476 2.1875-18.312497v-.125l-2.251295-69.706973-74.934565-.386705z" fill="#191919" filter="url(#p)" opacity=".811594" transform="matrix(1.0271934 0 0 .9697326 -8.382565 -3.663784)"/><path d="m10.66666 21.3334h69.33329v79.99995h-63.51519-5.8181z" fill="url(#h)"/><path d="m22.30286 32.9696v62.545651h47.51609l.7276-7.2715-2.1828-55.274151z" fill="url(#o)"/><path d="m15.99999 10.66674h58.66663v26.66665h-58.66663z" fill-rule="evenodd" opacity=".265194"/><path d="m31.332389 18.849453h52.998799c1.256908 4.579055 1.44506 12.699364 0 18.8996l-52.9988.1c-1.771197-5.775999-2.527736-14.298334.000001-18.9996z" fill-opacity=".635838" filter="url(#j)" transform="matrix(.91827743 0 0 .842123 -5.499436 -5.206818)"/><path d="m21.33332 10.66673h47.99997v16h-47.99997z" fill="url(#i)"/><path d="m26.66665-19.5834h37.33331v14.24999h-37.33331z" fill="url(#q)" transform="scale(1 -1)"/><g fill="#fff" fill-rule="evenodd"><path d="m31.99998 10.66674h26.66665v5.33333h-26.66665z" opacity=".955028"/><path d="m21.33332 21.3334h47.99997v5.33333h-47.99997z" opacity=".801105"/></g></g><g transform="matrix(.171875 0 0 .171875 2.000309 2)"><path d="m39.843005 27.69604v94.53157l76.276995-1.22761v-30.000414-58.827172z" filter="url(#b)" opacity=".306849" transform="matrix(1.0416667 0 0 1.0357143 5.041668 .407116)"/><path d="m111.9972 117.3336a5.3332 5.3332 0 0 1 -5.3332 5.3332v-5.3332z" fill="url(#c)" filter="url(#d)" opacity=".632851" transform="matrix(1.4885799 0 0 1.385334 -62.941058 -43.257498)"/><path d="m26.691872 32.558722v86.510348l87.124128-.0001v-27.007315-59.502933z" filter="url(#e)" opacity=".701657" transform="matrix(1.0416667 0 0 1.0357143 5.041668 .407116)"/><path d="m34.9086 34.9104v87.80793h87.45864v-29.62693-58.181z" fill="url(#f)"/><path d="m49.825589 40.7285c-.502869 0-9.098889.398746-9.098889.888076v74.747224c0 .49023 11.133329 0 11.6362 0h63.9991v-22.833044-51.914179c-7.54646-2.022066-5.11375 1.537427-.91265-.888077z" fill="url(#g)"/><g fill="#00132f"><path d="m96.420576 42.899289q0-1.334974.821523-2.669949.821523-1.437665.821523-1.643045 0-1.334975-1.745736-1.334975-5.442588 0-9.344821 15.300861l-1.848426 7.291014h9.447511l-.924213 4.312994h-9.24213q-6.366801 29.472127-8.831369 37.687351-5.442588 18.17619-13.555125 23.00264-3.696852 2.1565-8.317917 2.1565-4.621066 0-7.393705-2.25919-2.772639-2.1565-2.772639-5.85335 0-2.25919 1.643045-3.90223 1.540356-1.64305 3.696853-1.64305 1.951116 0 3.491471 1.54036 1.540355 1.54035 1.540355 3.38878 0 1.43766-.821523 2.77264-.821522 1.33497-.821522 1.64304 0 1.1296 1.848426 1.1296 3.696852 0 5.545278-5.54528 1.951117-5.44259 6.982943-28.342536 3.388781-15.506241 5.750659-25.775275h-7.496395l.924213-4.312994h7.496395q1.540355-5.545278 3.286091-9.550202 1.745736-4.004923 4.415684-7.907156 2.669949-4.004923 6.572182-6.05873 3.902233-2.053806 8.93406-2.053806 4.621063 0 7.393703 2.259187 2.77264 2.156497 2.77264 5.95604 0 2.361877-1.54036 3.902232-1.43766 1.540356-3.69685 1.540356-2.053804 0-3.594159-1.437665-1.437665-1.540355-1.437665-3.594162z" stroke-width="2.567257" transform="matrix(.79767955 0 0 .79922045 4.540678 14.078713)"/><path d="m120.12239 80.520063q-.82266 0-2.31839-.747866-1.49573-.747867-1.94445-.747867-1.04701 0-2.16881.972226-1.1218.89744-1.86967 1.869666-.74787.972226-1.72009 2.467958-.89744 1.495733-1.1218 1.794879l2.39317 11.666713q.82265 3.963688 2.76711 3.963688.97222 0 1.86966-.74786.97223-.82266 3.14104-3.664548l1.57052 1.047013q-3.44019 4.935915-6.05772 7.029945-2.54274 2.09402-5.23506 2.09402-2.99147 0-4.56199-2.7671-1.49573-2.84189-2.69231-8.824823l-1.79488 2.916678q-3.215827 5.384635-5.085493 7.029945-1.869665 1.6453-4.711557 1.6453-2.094025 0-3.440184-1.19658-1.346159-1.27138-1.346159-3.21583 0-1.72009 1.196585-2.91668 1.196586-1.271368 2.916679-1.271368 1.121799 0 2.617531.822652 1.495733.747866 1.944453.747866.972226 0 1.720092-.598292.747866-.67308 1.869665-2.467959l3.290608-5.235063-2.243595-11.51714q-.598293-2.767105-1.495732-3.888904-.89744-1.1218-2.692319-1.1218-1.047012 0-2.617531.149574v-2.019239l12.489367-1.794879q1.72009 2.542745 3.3654 10.320554 4.48719-6.20729 6.80558-8.226529 2.39317-2.094025 5.0107-2.094025 1.72009 0 2.99147 1.420946 1.34616 1.346159 1.34616 3.215824 0 1.570519-1.27138 2.767105-1.19658 1.1218-2.91667 1.1218z" stroke-width="1.869666" transform="matrix(.90066994 0 0 .77034866 -1.100959 13.593213)"/></g></g></svg>