<svg height="24" viewBox="0 0 6.3499999 6.3500002" width="24" xmlns="http://www.w3.org/2000/svg" xmlns:xlink="http://www.w3.org/1999/xlink"><linearGradient id="a" gradientUnits="userSpaceOnUse" x1="13.640022" x2="14.869683" y1="294.8226" y2="266.54037"><stop offset="0" stop-color="#555"/><stop offset="1"/></linearGradient><filter id="b" color-interpolation-filters="sRGB" height="1.005726" width="1.009696" x="-.004848" y="-.002863"><feGaussianBlur stdDeviation=".12613919"/></filter><linearGradient id="c" gradientUnits="userSpaceOnUse" x1="39.054226" x2="46.698284" y1="78.860413" y2="-95.683258"><stop offset="0" stop-color="#06f"/><stop offset="1" stop-color="#80b3ff"/></linearGradient><linearGradient id="d" gradientUnits="userSpaceOnUse" x1="34.9086" x2="40.7267" y1="29.0923" y2="81.4552"><stop offset="0" stop-color="#3b3e22"/><stop offset="1" stop-color="#454545" stop-opacity="0"/></linearGradient><g transform="matrix(.171875 0 0 .171875 .260889 -44.964916)"><path d="m22.422885 295.00091-21.86338836-9.89878v-2.84052l21.86338836-9.89878v3.09875l-18.0760297 8.22029 18.0760297 8.22029z" fill="url(#a)" stroke-width="1.022449"/><path d="m25.113281-14.748047a22.606266 22.606266 0 0 0 -6.882812 1.076172c-23.0768169 4.3318031-40.493044 24.669281-40.53125 48.433594a22.606266 22.606266 0 0 0 0 .0078c-.00011.07119-.000106.07238 0 .0039a22.606266 22.606266 0 0 0 0 .04883c-.000042-.04223-.000047-.04044 0 .0059a22.606266 22.606266 0 0 0 0 .0039c.02011 19.17918 11.363797 36.1651 27.8496091 44.326172v19.332013a22.606266 22.606266 0 0 0 22.6035159 22.603516h4.857422a22.606266 22.606266 0 0 0 8.578125-1.70313 22.606266 22.606266 0 0 0 8.564453 1.70313h4.857422a22.606266 22.606266 0 0 0 22.603515-22.603516v-64.945312a22.606266 22.606266 0 0 0 15.291016-21.363281v-4.3261722a22.606266 22.606266 0 0 0 -22.603516-22.6035158h-3.248047-19.390625-12.162109zm-3.517578.363281c-.217842.02502-.415859.106895-.632812.134766.176843-.02653.343812-.0998.521484-.121094zm45.462891 49.169922h.242187c-.008.0035-.01423.0087-.02148.01172-.223575-.000899.0657-.01179-.220703-.01172z" fill="url(#c)" filter="url(#b)" transform="matrix(.12334716 0 0 .12334716 23.920674 282.05571)"/><path d="m25.113282 7.8556102c-.304465.1057657-.61943.17845-.939453.2167969-13.62291 1.5643406-23.84905038 13.0152289-23.87109438 26.7265629.000002.002-.000002.0039 0 .0059-.000002.0013.000002.0026 0 .0039.01438 13.717156 10.24240938 25.177175 23.87109438 26.742187 2.266783.260505 3.978015 2.179234 3.978516 4.460937v32.47823h8.63386l.713796-73.029045h8.162109l.713797 73.029015h8.63386v-81.818077c.000583-2.479647 9.563464-4.489651 12.04311-4.490235h3.248047v-4.3261718h-3.248047-19.390767-12.162109z" fill="#bfd9ff" filter="url(#b)" transform="matrix(.12334716 0 0 .12334716 23.920674 282.05571)"/><path d="m81.451172 40-76.0410158 34.421875v6.482422l18.4707028 8.361328a70.658793 39.101744 0 0 0 6.63086.183594 70.658793 39.101744 0 0 0 3.703125-.07227l-19.148438-8.70898a3.2984058 3.2984058 0 0 1 0-6.009766l66.384766-30.191406z" fill="url(#d)" transform="matrix(.26458333 0 0 .26458333 0 263.13332)"/></g></svg>