<svg height="24" viewBox="0 0 6.3499999 6.3500002" width="24" xmlns="http://www.w3.org/2000/svg" xmlns:xlink="http://www.w3.org/1999/xlink"><linearGradient id="a" gradientUnits="userSpaceOnUse" x1="16.747845" x2="17.977507" y1="289.73224" y2="261.45001"><stop offset="0" stop-color="#555"/><stop offset="1"/></linearGradient><linearGradient id="b" gradientUnits="userSpaceOnUse" x1="51.787098" x2="53.49707" y1="-8.128862" y2="76.720642"><stop offset="0" stop-color="#3b3e22"/><stop offset="1" stop-color="#454545" stop-opacity="0"/></linearGradient><linearGradient id="c" gradientUnits="userSpaceOnUse" x1="24.031185" x2="27.700682" y1="296.09348" y2="276.89655"><stop offset="0" stop-color="#06f"/><stop offset="1" stop-color="#80b3ff"/></linearGradient><g transform="matrix(.1409375 0 0 .1409375 .198475 -36.277424)"><path d="m26.768639 277.80322q0 1.94028-.423333 3.63361-.423333 1.69333-1.093611 2.8575-.635 1.12889-1.552222 2.08139-.881945.9525-1.728611 1.51694-.846667.56445-1.799167.98778-.9525.42333-1.552222.59972-.564445.14111-1.093612.24695 2.151945 2.78694 4.409723 4.02166 2.257778 1.27 5.291667 1.34056v.635q-.564445.0353-1.446389.0353-1.340556 0-2.610556-.14111-1.234722-.10584-2.2225-.28223-.9525-.14111-1.905-.52916-.9525-.35278-1.5875-.59972-.635-.21167-1.411111-.74084-.740834-.52916-1.128889-.77611-.352778-.24694-.9525-.84667-.599722-.59972-.776111-.81138-.176389-.17639-.740834-.81139-.529166-.635-.599722-.70556-3.5277778-1.19944-5.8561111-4.02167-2.2930557-2.82222-2.2930557-7.62 0-5.36222 3.2455557-8.78416 3.2455561-3.45722 8.2902781-3.45722 5.044722 0 8.290278 3.42194 3.245555 3.42194 3.245555 8.74889zm-4.021666-.0706q0-4.93889-2.046111-7.86694-2.010834-2.96333-5.362223-2.96333-1.763889 0-3.139722.74083-1.375833.70555-2.187222 1.83444-.8113893 1.09361-1.3758337 2.57528-.5291667 1.48167-.7408334 2.8575-.1763889 1.34056-.1763889 2.75167 0 3.10444.7055556 5.3975.7055556 2.25778 1.8697224 3.42194 1.164167 1.16417 2.363611 1.69334 1.234722.52916 2.575278.52916 1.728611 0 3.069167-.70555 1.375833-.74084 2.187222-1.86973.811389-1.12888 1.340555-2.61055.529167-1.51695.705556-2.92806.211667-1.41111.211667-2.8575z" fill="url(#a)" stroke-width="1.022449"/><path d="m57.572266 11.248047c-12.300216 0-22.155994 4.125826-30.015625 12.498047a1.7991825 1.7991825 0 0 1 -.0078.0078c-7.855182 8.282117-11.773437 18.807085-11.773437 31.955078 0 8.332896 1.40002 15.334024 4.142578 21.09961a148.73327 58.457358 0 0 0 10.609375.267578c-.137355-.40571-.279234-.803705-.410156-1.222656a1.7991825 1.7991825 0 0 1 0-.0059c-1.845061-5.996357-2.746107-12.977246-2.746107-20.935495 0-3.629745.224481-7.177166.679687-10.636718a1.7991825 1.7991825 0 0 1 .0078-.03711c.553101-3.595162 1.520119-7.306343 2.886718-11.132812a1.7991825 1.7991825 0 0 1 .01367-.03711c1.468346-3.854362 3.269314-7.231748 5.419922-10.134765l.0059-.0078c.0031-.0042.0047-.0095.0078-.01367 2.220011-3.081108 5.216186-5.584378 8.894531-7.470703 3.740867-2.006249 8.00243-2.998047 12.683594-2.998047 8.974439 0 16.433991 4.136918 21.761719 11.988282 5.41779 7.765039 8.039062 18.065325 8.039062 30.746093 0 3.723893-.275656 7.404418-.820312 11.042969-.0011.0073.0011.01618 0 .02344-.312194 2.479457-.848694 5.0129-1.570313 7.595703a148.73327 58.457358 0 0 0 11.511706-1.808611c.333271-1.045258.650976-2.131253.939453-3.285156 1.027503-4.110047 1.542969-8.545103 1.542969-13.302735 0-13.056642-3.916159-23.537957-11.773438-31.822265-7.857358-8.284385-17.724931-12.373047-30.029296-12.373047z" fill="url(#b)" transform="matrix(.26458333 0 0 .26458333 0 263.13332)"/></g><g transform="matrix(.171875 0 0 .171875 -2.359928 -48.379926)"><path d="m19.962891 281.36133a2.8072587 2.8072587 0 0 0 -2.804688 2.93945l.34375 7.23828a2.8072587 2.8072587 0 0 0 2.804688 2.67383h2.304687a2.8072587 2.8072587 0 0 0 1.853516-.70117 2.8072587 2.8072587 0 0 0 1.855468.70117h2.320313a2.8072587 2.8072587 0 0 0 2.802734-2.66797l.359375-7.23828a2.8072587 2.8072587 0 0 0 -2.802734-2.94531h-3.005859a2.8072587 2.8072587 0 0 0 -1.513672.44531 2.8072587 2.8072587 0 0 0 -1.509766-.44531z" fill="url(#c)" transform="translate(18.273996 1.661272)"/><text style="font-size:33.465523;font-family:sans-serif;letter-spacing:0;word-spacing:0;fill:#bfd9ff;stroke-width:.836638" x="36.815952" y="308.85327"><tspan fill="#bfd9ff" font-family="Liberation Sans" stroke-width=".836638" x="36.815952" y="308.85327">"</tspan></text></g></svg>