<svg height="24" viewBox="0 0 6.3499999 6.3500003" width="24" xmlns="http://www.w3.org/2000/svg" xmlns:xlink="http://www.w3.org/1999/xlink"><radialGradient id="a" cx="84.903702" cy="-130.14005" gradientTransform="matrix(.04899496 -.04899496 .04899496 .04899496 27.763383 298.48358)" gradientUnits="userSpaceOnUse" r="57.039597" xlink:href="#c"/><linearGradient id="b"><stop offset="0" stop-color="#3a0b02"/><stop offset="1" stop-color="#a21d07" stop-opacity=".382353"/></linearGradient><linearGradient id="c" xlink:href="#b"/><radialGradient id="d" cx="2.720703" cy="-66.273438" gradientTransform="matrix(.04899496 -.04899496 .04899496 .04899496 27.763383 298.48358)" gradientUnits="userSpaceOnUse" r="57.039597" xlink:href="#c"/><radialGradient id="e" cx="51.991096" cy="-78.028419" gradientTransform="matrix(.04899496 -.04899496 .04899496 .04899496 27.763383 298.48358)" gradientUnits="userSpaceOnUse" r="57.039597" xlink:href="#c"/><linearGradient id="f" gradientTransform="scale(1.0975951 .9110828)" gradientUnits="userSpaceOnUse" x1="26.091133" x2="31.500689" xlink:href="#g" y1="14.856744" y2="14.856744"/><linearGradient id="g"><stop offset="0" stop-color="#765c44"/><stop offset="1" stop-color="#765c44" stop-opacity="0"/></linearGradient><filter id="h" height="1.277481" width="1.279832" x="-.139916" y="-.138741"><feGaussianBlur stdDeviation=".28784801"/></filter><linearGradient id="i" gradientUnits="userSpaceOnUse" x1="304.88663" x2="345.62039" xlink:href="#g" y1="385.86127" y2="384.62384"/><linearGradient id="j" gradientUnits="userSpaceOnUse" spreadMethod="reflect" x1="88.60625" x2="91.575107" y1="13.510336" y2="13.510336"><stop offset="0" stop-color="#ff8787"/><stop offset="1" stop-color="#ff8787" stop-opacity="0"/></linearGradient><linearGradient id="k" gradientUnits="userSpaceOnUse" spreadMethod="reflect" x1="31.60625" x2="34.575107" y1="13.510336" y2="13.510336"><stop offset="0" stop-color="#fff"/><stop offset="1" stop-color="#790000" stop-opacity="0"/></linearGradient><linearGradient id="l" gradientTransform="scale(1.0986045 .91024571)" gradientUnits="userSpaceOnUse" x1="77.194977" x2="84.111938" xlink:href="#b" y1="11.411927" y2="11.411927"/><radialGradient id="m" cx="50.424522" cy="-81.945961" gradientTransform="matrix(.04899496 -.04899496 .04899496 .04899496 27.763382 298.48358)" gradientUnits="userSpaceOnUse" r="50.15279"><stop offset="0" stop-color="#db3424"/><stop offset="1" stop-color="#b32016"/></radialGradient><linearGradient id="n" gradientTransform="matrix(.04899496 -.04899496 .04899496 .04899496 27.763383 298.48358)" gradientUnits="userSpaceOnUse" x1="50.06789" x2="59.441998" y1="-154.40843" y2="-71.617722"><stop offset="0" stop-color="#fff"/><stop offset="1" stop-color="#fcf3f3" stop-opacity="0"/></linearGradient><linearGradient id="o" gradientTransform="matrix(.22074034 0 0 .27016572 2.861137 262.5662)" gradientUnits="userSpaceOnUse" x1="55.875" x2="70.71875" xlink:href="#v" y1="91.296875" y2="91.296875"/><radialGradient id="p" cx="63.462833" cy="66.417244" gradientTransform="matrix(.23868901 0 0 .03810074 1.738199 277.54305)" gradientUnits="userSpaceOnUse" r="13.788582" xlink:href="#r"/><radialGradient id="q" cx="63.912209" cy="115.70919" fy="115.7093" gradientTransform="matrix(.16145195 0 0 .02180632 6.614583 294.56994)" gradientUnits="userSpaceOnUse" r="63.912209" xlink:href="#r"/><linearGradient id="r"><stop offset="0"/><stop offset="1" stop-opacity="0"/></linearGradient><radialGradient id="s" cx="63.816387" cy="120.57538" gradientTransform="matrix(.25671949 0 0 .07513332 .550423 287.26689)" gradientUnits="userSpaceOnUse" r="14.672465"><stop offset="0"/><stop offset=".5714286"/><stop offset="1" stop-opacity="0"/></radialGradient><linearGradient id="t" gradientTransform="matrix(.22074034 0 0 .23746357 2.861137 264.65265)" gradientUnits="userSpaceOnUse" x1="94.42218" x2="100.78125" xlink:href="#r" y1="30.355696" y2="35.359375"/><linearGradient id="u" gradientTransform="matrix(.22074034 0 0 .27016546 2.861138 262.5662)" gradientUnits="userSpaceOnUse" spreadMethod="reflect" x1="55.826965" x2="121.36113" y1="61.3554" y2="52.6054"><stop offset="0" stop-color="#bdbdbd"/><stop offset="1" stop-color="#bdbdbd" stop-opacity="0"/></linearGradient><linearGradient id="v"><stop offset="0" stop-color="#fff" stop-opacity=".537906"/><stop offset=".21464799" stop-color="#fff"/><stop offset=".66342056" stop-color="#fff" stop-opacity=".415162"/><stop offset="1" stop-color="#fff" stop-opacity="0"/></linearGradient><radialGradient id="w" cx="51.78791" cy="41.299831" gradientTransform="matrix(.4343787 -.2149771 .35891594 .76254239 -25.518612 249.07113)" gradientUnits="userSpaceOnUse" r="15.995545" xlink:href="#v"/><radialGradient id="x" cx="52.715279" cy="41.561275" gradientTransform="matrix(.4343787 -.21378278 .35891594 .7583059 -25.518612 249.24051)" gradientUnits="userSpaceOnUse" r="15.995545" xlink:href="#v"/><radialGradient id="y" cx="57.214077" cy="124.00706" fx="49.233025" fy="124.00705" gradientTransform="matrix(.61953168 -.00000006 0 .28763835 -17.455568 233.79883)" gradientUnits="userSpaceOnUse" r="11.383312" xlink:href="#z"/><linearGradient id="z"><stop offset="0" stop-color="#fff"/><stop offset="1" stop-color="#fff" stop-opacity="0"/></linearGradient><radialGradient id="A" cx="63.462833" cy="66.417244" gradientTransform="matrix(.23868901 0 0 .06669799 1.738199 275.64367)" gradientUnits="userSpaceOnUse" r="13.788582" xlink:href="#r"/><linearGradient id="B" gradientTransform="matrix(.22047697 -.01077964 .0115261 .23574433 2.886126 263.42369)" gradientUnits="userSpaceOnUse" x1="26.516504" x2="67.55307" xlink:href="#z" y1="6.289245" y2="6.289245"/><linearGradient id="C" gradientTransform="matrix(.22074034 0 0 .16502502 2.861137 264.39631)" gradientUnits="userSpaceOnUse" x1="27.080584" x2="59.768688" xlink:href="#z" y1="-14.285192" y2="17.40625"/><linearGradient id="D" gradientTransform="matrix(.24830857 0 0 .25923263 1.418237 263.05161)" gradientUnits="userSpaceOnUse" x1="48.648247" x2="63.212357" xlink:href="#r" y1="123.09119" y2="60.341194"/><g transform="matrix(.171875 0 0 .171875 .264574 -44.956941)"><path d="m12.003906 1.0507812a8.155008 1.9949337 0 0 0 -5.6816404.5644532c-.1691402.0384468-.3157913.0814901-.4707031.1230468a8.155008 1.9949337 0 0 0 -.1484375.0410157c-1.1917061.337941-1.9375.762077-1.9375 1.2167969 0 2.1274735 6.1777344 8.6738282 6.1777344 8.6738282.0256239.036668.0547283.099784.0546875.169922l-.0039063.802734-.0664062 9.917969c-.0001019.015089.0226532.026592.0273437.041015v.039063c.0254581.103209.1117369.118967.1855469.152344.000379-.011679-.000374-.023476 0-.035157.256311.114873.756539.189454 1.595703.189454.044504 0 .081208-.003529.125-.003907.025314.000324.055618.003907.080078.003907.065356 0 .147699-.010214.220703-.013672.001931-.000092.003925.000093.00586 0 .584154-.018095 1.063503-.072865 1.376953-.160156v.023437l.185547-.068359v-.00586c.127297-.053293.207031-.112458.207031-.183594 0-.001299.000124-.00456 0-.005859l.0625-10.710937c0-.010545.005032-.020263.005859-.03125.029465-.034673.044922-.065573.044922-.091797 0-.003898-.003386-.007886-.003906-.011719-.003517.000797-.012032.001156-.015625.001953.01773-.018936 6.203125-6.6282657 6.203125-8.7734374 0-.1697853-.215949-.3598897-.576172-.5527344a8.155008 1.9949337 0 0 0 -7.654297-1.3125z" fill="#d0d0d0" transform="matrix(1.539394 0 0 1.539394 -1.539337 261.56765)"/><ellipse cx="16.933334" cy="297.09317" fill="url(#q)" opacity=".381395" rx="10.318751" ry="1.393691"/><ellipse cx="16.933334" cy="296.32614" fill="url(#s)" opacity=".413934" rx="3.766708" ry="1.10239"/><path d="m14.115408 263.95214v-.73929z" fill="#fff" fill-opacity=".756881"/><path d="m27.190849 268.0365c-2.842649 4.00968-5.837781 7.7048-7.777384 11.71448l.309876-.0105 9.109266-12.16406c-.604989.25688-1.147088.401-1.641758.46008z" fill="url(#t)" opacity=".42"/><path d="m16.954088 263.2057c-7.0085037 0-12.6963338 1.3867-12.6963338 2.97557 0 3.27502 9.5108818 13.35213 9.5108818 13.35213.04081.0584.08939.15521.08591.26801l-.110697 16.49499c-.0024.35533.851035.59473 2.784957.59473 1.892583 0 3.387199-.22248 3.387199-.62846 0-.002.000191-.007 0-.009l.09612-16.48599c0-.0661.009-.14128.03975-.19762 0 0 9.557156-10.20522 9.557156-13.51222 0-1.12637-5.646441-2.85214-12.65494-2.85214z" style="stroke:#575757;stroke-width:.307879;stroke-linecap:round;stroke-linejoin:round;stroke-dashoffset:4;fill:url(#u)"/><path d="m16.953922 266.15778c-5.168295 0-9.3341621.50788-10.0160417 1.86483 2.227259.8738 5.8176137 1.40816 10.0160417 1.40816 4.193843 0 8.008861-.52206 10.236927-1.39427-.668723-1.36068-5.058892-1.87872-10.236927-1.87872z"/><path d="m14.835638 279.9059-.110697 16.79793c.472303.0993 1.418538.1873 2.118384.1873.582252 0 1.418614-.10048 1.85003-.17038l.110697-16.84858c-1.092204.24393-2.87621.41965-3.968414.0337z" fill="url(#o)" opacity=".614754"/><path d="m13.942333 279.59352c-.000873.006-.0062.0108-.0062.0169 0 .32295 1.580635.87211 3.087212.87211 1.506575 0 3.066479-.58289 3.06648-.90584 0-.006-.0054-.011-.0062-.0169-.600839.13617-1.930986.27169-3.060294.27169-1.129041 0-2.480142-.10185-3.081026-.23796z" fill="url(#p)" opacity=".11"/><path d="m14.835638 279.94469-3.03553-10.51392c2.335252.26645 4.717967.15862 7.061719.0424l-.05778 10.43775c-1.092204.20436-2.87621.35705-3.968414.0337z" fill="url(#w)" opacity=".758197"/><path d="m13.942333 279.59352c-.000873.006-.0062.0108-.0062.0169 0 .32295 1.580635.6572 3.087212.6572 1.506575 0 3.066479-.36798 3.06648-.69093 0-.006-.0054-.011-.0062-.0169-.600839.13617-1.948481.41497-3.07779.41497-1.129041 0-2.462646-.24512-3.06353-.38124z" fill="url(#p)" opacity=".11"/><ellipse cx="16.9384" cy="266.25577" rx="12.546605" ry="3.027167" style="fill:none;stroke:#5b5b5b;stroke-width:.29568;stroke-linecap:round;stroke-linejoin:round;stroke-dashoffset:4"/><path d="m14.650285 279.9126-3.567583-10.48183c2.335252.26497 6.042409.21401 8.386161.0985l-.518479 10.37946c-1.092205.20323-3.207895.32542-4.300099.004z" fill="url(#x)" opacity=".758197"/><ellipse cx="16.938402" cy="266.2558" rx="12.55377" ry="3.070989" style="fill:none;stroke-width:.208022;stroke-linecap:round;stroke-linejoin:round;stroke-dashoffset:4;stroke:url(#y)"/><path d="m13.942333 279.59352c-.000873.006-.0062.0108-.0062.0169 0 .32295 1.589383 1.11091 3.095959 1.11091s3.057732-.82169 3.057733-1.14464c0-.006-.0054-.011-.0062-.0169-.600839.13617-2.000968.47467-3.130276.47467-1.129042 0-2.41016-.30482-3.011045-.44094z" fill="url(#A)" opacity=".11"/><path d="m14.656286 279.86309.06865 16.84074c.472303.0993 1.418538.1873 2.118384.1873.582252 0 1.418614-.10048 1.85003-.17038l.234864-16.84858c-1.092204.24393-3.179728.37684-4.271933-.009z" fill="url(#o)" opacity=".614754"/><path d="m19.432556 279.74903h.275925l-.110697 16.80771-.285682.10422z" opacity=".213115"/><path d="m8.8799178 264.15733c1.3633562-.26371 2.7191072-.47186 4.0632922-.59552l.141696 2.62403c-1.116075.0775-2.098343.38867-3.155854.60205z" fill="url(#B)" opacity=".836066"/><path d="m11.980141 266.65793c-1.177349.0493-1.39478.0678-2.2967508.15435.8504498.3609 1.8268638.65629 2.6419838.96952 1.084138.0439 2.243471.0658 3.455965.0774-.778743-.38809-1.74637-1.36381-2.904114-1.50801-.812998-.10126-.879208.31448-.897084.30678z" fill="url(#C)" opacity=".836066"/><path d="m13.856872 279.70084-.0043-.004-.06802 16.72342c.03919.15888.172058.18245.285681.23383.195693-6.03415-.02285-12.28977-.213325-16.9532z" fill="url(#D)" opacity=".532787"/></g><g transform="matrix(.16613302 .16613302 -.16613302 .16613302 48.802071 -47.404645)"><path d="m24.529657 285.13245c-.26354-.00001-.477184.21364-.477176.47718v4.22195h-4.222095c-.263541 0-.477184.21364-.477177.47718l.000001 1.68933c-.000008.26354.213636.47719.477176.47718h4.222095v4.22196c-.000008.26354.213636.47718.477176.47717h1.689334c.263541.00001.477184-.21363.477176-.47717v-4.22196h4.22196c.26354.00001.477184-.21364.477176-.47718v-1.68933c.000008-.26354-.213636-.47718-.477176-.47718h-4.22196v-4.22195c.000008-.26354-.213636-.47719-.477177-.47718z" fill="url(#a)"/><path d="m24.529657 285.13245c-.26354-.00001-.477184.21364-.477176.47718v4.22195h-4.222095c-.263541 0-.477184.21364-.477177.47718l.000001 1.68933c-.000008.26354.213636.47719.477176.47718h4.222095v4.22196c-.000008.26354.213636.47718.477176.47717h1.689334c.263541.00001.477184-.21363.477176-.47717v-4.22196h4.22196c.26354.00001.477184-.21364.477176-.47718v-1.68933c.000008-.26354-.213636-.47718-.477176-.47718h-4.22196v-4.22195c.000008-.26354-.213636-.47719-.477177-.47718z" fill="url(#d)"/><path d="m24.529657 285.13245c-.26354-.00001-.477184.21364-.477176.47718v4.22195h-4.222095c-.263541 0-.477184.21364-.477177.47718l.000001 1.68933c-.000008.26354.213636.47719.477176.47718h4.222095v4.22196c-.000008.26354.213636.47718.477176.47717h1.689334c.263541.00001.477184-.21363.477176-.47717v-4.22196h4.22196c.26354.00001.477184-.21364.477176-.47718v-1.68933c.000008-.26354-.213636-.47718-.477176-.47718h-4.22196v-4.22195c.000008-.26354-.213636-.47719-.477177-.47718z" fill="url(#e)"/><path d="m24.529657 285.13245c-.26354-.00001-.477184.21364-.477176.47718v4.22195h-4.222095c-.263541 0-.477184.21364-.477177.47718l.000001 1.68933c-.000008.26354.213636.47719.477176.47718h4.222095v4.22196c-.000008.26354.213636.47718.477176.47717h1.689334c.263541.00001.477184-.21363.477176-.47717v-4.22196h4.22196c.26354.00001.477184-.21364.477176-.47718v-1.68933c.000008-.26354-.213636-.47718-.477176-.47718h-4.22196v-4.22195c.000008-.26354-.213636-.47719-.477177-.47718z" fill="#56331f" fill-opacity=".905882"/><g fill-rule="evenodd"><path d="m31.7 16 2.875-3.375c-1.051205-1.695758-3.935136-2.288018-5.9375-.3125l2.8125 3.375z" fill="url(#f)" filter="url(#h)" opacity=".498127" transform="matrix(.1033455 .1033455 .10433789 -.10433789 19.838814 294.771888)"/><path d="m31.7 16 2.875-3.375c-1.051205-1.695758-3.935136-2.288018-5.9375-.3125l2.8125 3.375z" fill="url(#f)" filter="url(#h)" opacity=".790262" transform="matrix(-.10304201 .10304201 -.10206195 -.10206195 35.519028 290.102747)"/><path d="m31.7 16 2.875-3.375c-1.051205-1.695758-3.935136-2.288018-5.9375-.3125l2.8125 3.375z" fill="url(#i)" filter="url(#h)" opacity=".498127" transform="matrix(.09358445 .09358445 -.09448311 .09448311 29.197858 286.027868)"/><path d="m88.7 16 2.875-3.375c-1.051205-1.695758-3.935136-2.288018-5.9375-.3125l2.8125 3.375z" fill="url(#j)" filter="url(#h)" opacity=".790262" transform="matrix(-.09448311 .09448311 -.09358445 -.09358445 35.854021 289.607594)"/><path d="m31.7 16 2.875-3.375c-1.051205-1.695758-3.935136-2.288018-5.9375-.3125l2.8125 3.375z" fill="url(#k)" filter="url(#h)" opacity=".790262" transform="matrix(-.08592421 .08592421 .08510696 .08510696 26.0538 281.716075)"/><path d="m88.7 16 2.875-3.375c-1.051205-1.695758-3.935136-2.288018-5.9375-.3125l2.8125 3.375z" fill="url(#l)" filter="url(#h)" opacity=".790262" transform="matrix(-.0882146 .0882146 .08737557 .08737557 26.431933 281.295081)"/></g><path d="m24.529657 285.60963v4.69913h-4.699271v1.68933h4.699271v4.69914h1.689334v-4.69914h4.699136v-1.68933h-4.699136l-.000001-4.69913z" fill="url(#m)"/><path d="m19.8304 290.30869-.000001 1.68937h4.699316l-.000069 4.69922h1.68937v-4.69912h4.699124v-1.68937h-4.699124l-.000001-4.69912h-1.689368v4.69912zm.12.12 4.57922.0001c.06628.00001.120006-.0537.119999-.12v-4.57912h1.44937v4.57912c-.000006.0663.05372.12001.12.12h4.579124v1.44937h-4.579124c-.06628-.00001-.120006.0537-.12.12v4.57912h-1.44937l.000069-4.57921c.000006-.0663-.05372-.12001-.12-.12h-4.579315z" fill="#f4caca" fill-opacity=".779412"/><path d="m19.8304 290.30869-.000001 1.68937h4.699316v.96754c.63875-.89522 1.64386-2.06887 1.87767-2.65634l-.188396-.00047-.000001-4.69912h-1.689368v4.69912z" fill="url(#n)" fill-rule="evenodd"/></g></svg>