<svg enable-background="new" height="24" width="24" xmlns="http://www.w3.org/2000/svg" xmlns:xlink="http://www.w3.org/1999/xlink"><linearGradient id="a"><stop offset="0" stop-color="#fff"/><stop offset="1" stop-color="#fff" stop-opacity="0"/></linearGradient><linearGradient id="b"><stop offset="0" stop-color="#f0ff80"/><stop offset="1" stop-color="#f0ff80" stop-opacity="0"/></linearGradient><filter id="c"><feGaussianBlur stdDeviation=".425"/></filter><filter id="d"><feGaussianBlur stdDeviation=".4605"/></filter><filter id="e"><feBlend in2="BackgroundImage" mode="lighten"/></filter><filter id="f" height="1.205783" width="1.364658" x="-.182329" y="-.102891"><feGaussianBlur stdDeviation=".45819706"/></filter><filter id="g" height="1.37026" width="1.20766" x="-.10383" y="-.18513"><feGaussianBlur stdDeviation=".45819702"/></filter><linearGradient id="h" gradientUnits="userSpaceOnUse" x1="86.324677" x2="86.324677" xlink:href="#a" y1="42.0625" y2="87.837845"/><linearGradient id="i" gradientUnits="userSpaceOnUse" x1="90.533279" x2="80.137749" xlink:href="#a" y1="88.838577" y2="60.277084"/><linearGradient id="j" gradientUnits="userSpaceOnUse" x1="74.603891" x2="74.603891" xlink:href="#b" y1="110.884026" y2="61.378731"/><linearGradient id="k" gradientUnits="userSpaceOnUse" x1="86.324677" x2="86.324677" y1="42.0625" y2="107.99453"><stop offset="0" stop-color="#bfffbf"/><stop offset="1" stop-color="#bfffbf" stop-opacity="0"/></linearGradient><radialGradient id="l" cx="54.537579" cy="77.542084" fy="99.883759" gradientTransform="matrix(1.3117247 .00000006 -.00000004 .9837933 -13.905973 15.313725)" gradientUnits="userSpaceOnUse" r="48.000004"><stop offset="0" stop-color="#66f515"/><stop offset="1" stop-color="#002e00"/></radialGradient><radialGradient id="m" cx="52.791927" cy="95.459297" fx="53.15992" fy="87.08094" gradientTransform="matrix(.5646619 .00000009 -.00000014 .9176397 27.424193 14.143916)" gradientUnits="userSpaceOnUse" r="52.000004"><stop offset="0" stop-color="#001400"/><stop offset="1" stop-color="#001400" stop-opacity="0"/></radialGradient><radialGradient id="n" cx="99.765625" cy="29.374895" gradientTransform="matrix(1.9646726 .00000034 -.00000104 5.9752716 -93.241137 -132.14811)" gradientUnits="userSpaceOnUse" r="3.015625" xlink:href="#a"/><radialGradient id="o" cx="99.765625" cy="29.374895" gradientTransform="matrix(1.9646726 .00000034 -.00000104 5.9752716 -164.24114 -112.14811)" gradientUnits="userSpaceOnUse" r="3.015625" xlink:href="#a"/><radialGradient id="p" cx="53.633381" cy="51.919601" gradientTransform="matrix(1.0961401 .0879121 -.1002304 1.2497316 4.059957 -4.687387)" gradientUnits="userSpaceOnUse" r="52.000004" xlink:href="#a"/><linearGradient id="q" gradientUnits="userSpaceOnUse" x1="92.090905" x2="92.090905" y1="121.89701" y2="48.849478"><stop offset="0" stop-color="#003100"/><stop offset="1" stop-color="#008c00"/></linearGradient><radialGradient id="r" cx="99.765625" cy="29.374895" gradientTransform="matrix(1.9646726 .00000034 -.00000104 5.9752716 -96.241137 -146.14811)" gradientUnits="userSpaceOnUse" r="3.015625" xlink:href="#a"/><radialGradient id="s" cx="99.765625" cy="29.374895" gradientTransform="matrix(1.9646726 .00000034 -.00000104 5.9752716 -167.24116 -126.14811)" gradientUnits="userSpaceOnUse" r="3.015625" xlink:href="#b"/><linearGradient id="t" gradientUnits="userSpaceOnUse" x1="47.729377" x2="61.52393" y1="53.400097" y2="5.119167"><stop offset="0" stop-color="#555"/><stop offset="1"/></linearGradient><g transform="matrix(.171875 0 0 .171875 1.000155 .88432)"><g fill="url(#t)" stroke-width="1.362055"><path d="m31.618862 33.11072h-15.309497l-4.195129 11.9316h-5.3937367l14.1653707-39.7175184h6.537863l13.947441 39.7175184h-5.666148zm-1.416537-4.249611-6.102006-18.088088-6.537863 18.088088z"/><path d="m76.186147 33.710024q0 5.121326-3.21445 8.226811-3.214449 3.105485-8.499222 3.105485h-17.924641v-39.7175184h16.126729q3.323413 0 5.775112.9806794 2.451699.9806795 3.650307 2.6151453 1.25309 1.5799837 1.797912 3.2144497.544822 1.579983.544822 3.268931 0 6.102006-5.502701 8.662669 3.813753 1.471019 5.502701 3.759271 1.743431 2.288252 1.743431 5.884077zm-14.764675-11.277814q7.9544 0 7.9544-6.319934 0-6.3199346-7.9544-6.3199346h-9.806795v12.6398686zm2.560663 18.14257q2.669628 0 4.358576-1.144126 1.688948-1.198608 2.23377-2.615145.544822-1.416537.544822-3.051003 0-3.105485-1.852395-4.957879-1.852395-1.906877-5.284773-1.906877h-12.367458v13.67503z"/><path d="m80.54813 25.64666q0-2.72411.435858-5.393738.49034-2.669627 1.797912-5.557183 1.307573-2.887556 3.21445-5.012362 1.961359-2.1792877 5.23029-3.5958247 3.323414-1.4165371 7.464061-1.4165371 12.966759 0 15.309499 12.9667618h-5.17581q-.87172-4.249611-3.43238-6.374416-2.56066-2.1248059-7.300614-2.1248059-5.775112 0-9.153008 4.4130579-3.323414 4.413057-3.323414 12.040564 0 7.464061 3.486861 11.877118 3.48686 4.358576 9.425419 4.358576 4.903396 0 7.518546-2.72411 2.61514-2.778592 3.54134-8.553704h5.23029q-1.79791 15.745354-16.344658 15.745354-4.086165 0-7.355096-1.362055-3.21445-1.416537-5.175809-3.541343-1.906876-2.124805-3.214449-4.957879-1.25309-2.887556-1.74343-5.502702-.435858-2.615145-.435858-5.284772z"/></g><path d="m5.81774 56.1828 5.81816 5.81816h5.81816l5.81816-5.81816 5.81816 5.81816h5.81816l5.81816-5.81816 5.81816 5.81816h5.81816l5.81816-5.81816 5.81816 5.81816h5.81816l5.81816-5.81816 5.81816 5.81816h5.81816l5.81816-5.81816 5.81816 5.81816h5.81816l5.81816-5.81816v-5.81816l-5.81816 5.81816h-5.81816l-5.81816-5.81816-5.81816 5.81816h-5.81816l-5.81816-5.81816-5.81816 5.81816h-5.81816l-5.81816-5.81816-5.81816 5.81816h-5.81816l-5.81816-5.81816-5.81816 5.81816h-5.81816l-5.81816-5.81816-5.81816 5.81816h-5.81816l-5.81816-5.81816z" fill="#bf0000" fill-rule="evenodd"/><g transform="translate(3.11525 8.0914)"><g fill="none" stroke-linecap="round" stroke-linejoin="round"><path d="m57.39399 88.154282c-8.147999-8.350285-25.763139-26.404282-25.763139-26.404282l-12.630855 12.947999 38.393994 39.354851 57.60601-59.05285-12.63258-12.94714s-35.262001 36.147423-44.97343 46.101422z" filter="url(#d)" stroke="#004d00" stroke-width="12"/><g stroke-width="8"><path d="m57.39399 88.154282c-8.147999-8.350285-25.763139-26.404282-25.763139-26.404282l-12.630855 12.947999 38.393994 39.354851 57.60601-59.05285-12.63258-12.94714s-35.262001 36.147423-44.97343 46.101422z" stroke="url(#q)"/><path d="m57.39399 88.154282c-8.147999-8.350285-25.763139-26.404282-25.763139-26.404282l-12.630855 12.947999 38.393994 39.354851 57.60601-59.05285-12.63258-12.94714s-35.262001 36.147423-44.97343 46.101422z" filter="url(#e)" opacity=".285714" stroke="url(#p)"/></g></g><path d="m28.406226 44.03125c-.149888-.0024-.286582.01658-.4375.03125-.827192.08205-1.59533.427082-2.21875.96875l1.6875 9.6875c.110915-.113676.850367-.848179.9375-.9375l.375.375 3.03125-8.34375-.5625-.5625c-.74135-.759594-1.76329-1.201919-2.8125-1.21875z" fill="url(#s)" filter="url(#f)" opacity=".409524" transform="matrix(1 0 0 -1 29.000024 161.74979)"/><path d="m99.40625 24.03125c-.149888-.0024-.286582.01658-.4375.03125-.827192.08205-1.59533.427082-2.21875.96875l1.6875 9.6875c.110915-.113676.850367-.848179.9375-.9375l.375.375 3.03125-8.34375-.5625-.5625c-.74135-.759594-1.76329-1.201919-2.8125-1.21875z" fill="url(#r)" filter="url(#g)" opacity=".238095" transform="matrix(-.3420202 .9396927 .9396927 .3420202 27.209834 -28.203299)"/><path d="m31.40625 58.03125c-.149888-.0024-.286582.01658-.4375.03125-.827192.08205-1.59533.427082-2.21875.96875l1.6875 9.6875c.110915-.113676.850367-.848179.9375-.9375l.375.375 3.03125-8.34375-.5625-.5625c-.74135-.759594-1.76329-1.201919-2.8125-1.21875z" fill="url(#o)" filter="url(#f)" opacity=".77619"/><path d="m99.40625 24.03125c-.149888-.0024-.286582.01658-.4375.03125-.827192.08205-1.59533.427082-2.21875.96875l1.6875 9.6875c.110915-.113676.850367-.848179.9375-.9375l.375.375 3.03125-8.34375-.5625-.5625c-.74135-.759594-1.76329-1.201919-2.8125-1.21875z" fill="url(#r)" filter="url(#g)" opacity=".371429" transform="matrix(.34202016 .93969261 -.93969261 .34202016 107.5334 -48.203289)"/><path d="m102.40625 38.03125c-.14989-.0024-.28658.01658-.4375.03125-.82719.08205-1.59533.427082-2.21875.96875l1.6875 9.6875c.11092-.113676.85037-.848179.9375-.9375l.375.375 3.03125-8.34375-.5625-.5625c-.74135-.759594-1.76329-1.201919-2.8125-1.21875z" fill="url(#n)" filter="url(#f)" opacity=".871429"/><path d="m57.39399 88.154282c-8.147999-8.350285-25.763139-26.404282-25.763139-26.404282l-12.630855 12.947999 38.393994 39.354851 57.60601-59.05285-12.63258-12.94714s-35.262001 36.147423-44.97343 46.101422z" style="opacity:.285714;fill:none;stroke-width:8;stroke-linecap:round;stroke-linejoin:round;stroke:url(#m)"/><path d="m57.39399 88.154282c-8.147999-8.350285-25.763139-26.404282-25.763139-26.404282l-12.630855 12.947999 38.393994 39.354851 57.60601-59.05285-12.63258-12.94714s-35.262001 36.147423-44.97343 46.101422z" fill="url(#l)"/><path d="m102.375 42.0625s-35.257321 36.139751-44.96875 46.09375c-8.147999-8.350285-25.78125-26.40625-25.78125-26.40625l-12.625 12.9375 16.46875 16.875c.188911.000487.373377 0 .5625 0 17.529799 0 34.136291-2.093139 49.03125-5.84375l29.9375-30.71875z" fill="url(#k)"/><path d="m57.39399 88.154282c-8.147999-8.350285-25.763139-26.404282-25.763139-26.404282l-12.630855 12.947999 38.393994 39.354851 57.60601-59.05285-12.63258-12.94714s-35.262001 36.147423-44.97343 46.101422z" fill="none" filter="url(#c)" stroke="url(#j)"/><path d="m102.375 42.0625s-.40024.431341-.40625.4375l12.1875 12.28125-30 30.21875c-14.927199 3.687634-31.057257 6.218746-48.625 6.21875-.126355 0-.250091-.000001-.375 0l.3125.34375c.188911.000487.373377 0 .5625 0 17.529799 0 34.136291-2.093139 49.03125-5.84375l29.9375-30.71875z" fill="url(#i)"/><path d="m102.375 42.0625s-35.257321 36.139751-44.96875 46.09375c-8.147999-8.350285-25.78125-26.40625-25.78125-26.40625l-12.625 12.9375.5.5 12.125-12.4375s17.633251 18.055965 25.78125 26.40625c9.711429-9.953999 44.96875-46.09375 44.96875-46.09375l12.125 12.4375.5-.5z" fill="url(#h)"/></g></g></svg>