<svg height="24" viewBox="0 0 6.3499999 6.3500003" width="24" xmlns="http://www.w3.org/2000/svg" xmlns:xlink="http://www.w3.org/1999/xlink"><radialGradient id="a" cx="29.962149" cy="131.46768" gradientTransform="matrix(.18778643 -.00430591 .00097263 .04241826 2.109254 290.26002)" gradientUnits="userSpaceOnUse" r="27.01967" xlink:href="#g"/><radialGradient id="b" cx="27.565985" cy="130.94269" gradientTransform="matrix(.26458333 0 0 .0741725 0 285.69667)" gradientUnits="userSpaceOnUse" r="27.01967" xlink:href="#v"/><linearGradient id="c" gradientUnits="userSpaceOnUse" x1="6.09146" x2="5.99793" xlink:href="#v" y1="290.848175" y2="299.046853"/><filter id="d"><feGaussianBlur stdDeviation="1.5891116"/></filter><linearGradient id="e" gradientTransform="matrix(1.0320438 0 0 1.0327501 3.9492 21.033265)" gradientUnits="userSpaceOnUse" x1="89.090881" x2="89.090881" y1="103.89701" y2="30.849478"><stop offset="0" stop-color="#003100"/><stop offset="1" stop-color="#008c00"/></linearGradient><radialGradient id="f" cx="53.633381" cy="51.919601" gradientTransform="matrix(1.0961401 .0879121 -.1002304 1.2497316 1.059933 -18.687387)" gradientUnits="userSpaceOnUse" r="52.000004" xlink:href="#g"/><linearGradient id="g"><stop offset="0" stop-color="#fff"/><stop offset="1" stop-color="#fff" stop-opacity="0"/></linearGradient><filter id="h"><feBlend in2="BackgroundImage" mode="lighten"/></filter><radialGradient id="i" cx="99.765625" cy="29.374895" gradientTransform="matrix(1.9646726 .00000034 -.00000104 5.9752716 -167.24116 -126.14811)" gradientUnits="userSpaceOnUse" r="3.015625" xlink:href="#j"/><linearGradient id="j"><stop offset="0" stop-color="#f0ff80"/><stop offset="1" stop-color="#f0ff80" stop-opacity="0"/></linearGradient><filter id="k" height="1.205783" width="1.364658" x="-.182329" y="-.102891"><feGaussianBlur stdDeviation=".45819706"/></filter><radialGradient id="l" cx="99.765625" cy="29.374895" gradientTransform="matrix(1.9646726 .00000034 -.00000104 5.9752716 -96.241137 -146.14811)" gradientUnits="userSpaceOnUse" r="3.015625" xlink:href="#g"/><filter id="m" height="1.37026" width="1.20766" x="-.10383" y="-.18513"><feGaussianBlur stdDeviation=".45819702"/></filter><radialGradient id="n" cx="99.765625" cy="29.374895" gradientTransform="matrix(1.9646726 .00000034 -.00000104 5.9752716 -167.24116 -126.14811)" gradientUnits="userSpaceOnUse" r="3.015625" xlink:href="#g"/><radialGradient id="o" cx="52.791927" cy="95.459297" fx="53.15992" fy="87.08094" gradientTransform="matrix(.11213636 .00000002 -.00000003 .18235901 4.070698 277.19005)" gradientUnits="userSpaceOnUse" r="52.000004"><stop offset="0" stop-color="#001400"/><stop offset="1" stop-color="#001400" stop-opacity="0"/></radialGradient><radialGradient id="p" cx="54.537579" cy="77.542084" fy="99.883759" gradientTransform="matrix(.26049573 0 0 .19550545 -4.13707 277.42252)" gradientUnits="userSpaceOnUse" r="48.000004"><stop offset="0" stop-color="#66f515"/><stop offset="1" stop-color="#002e00"/></radialGradient><linearGradient id="q" gradientTransform="matrix(.19859023 0 0 .19872616 -.779709 277.95636)" gradientUnits="userSpaceOnUse" x1="83.324677" x2="83.324677" y1="24.0625" y2="89.99453"><stop offset="0" stop-color="#bfffbf"/><stop offset="1" stop-color="#bfffbf" stop-opacity="0"/></linearGradient><linearGradient id="r" gradientUnits="userSpaceOnUse" x1="71.603867" x2="71.603867" xlink:href="#j" y1="96.884026" y2="47.378731"/><filter id="s"><feGaussianBlur stdDeviation=".425"/></filter><linearGradient id="t" gradientTransform="matrix(.19859023 0 0 .19872616 -.779709 277.16145)" gradientUnits="userSpaceOnUse" x1="87.533279" x2="77.137749" xlink:href="#g" y1="74.838577" y2="46.277084"/><linearGradient id="u" gradientTransform="matrix(.19859023 0 0 .19872616 -.779709 277.95636)" gradientUnits="userSpaceOnUse" x1="83.324677" x2="83.324677" xlink:href="#g" y1="24.0625" y2="69.837845"/><linearGradient id="v"><stop offset="0"/><stop offset="1" stop-opacity="0"/></linearGradient><linearGradient id="w" gradientUnits="userSpaceOnUse" x1="6.522222" x2="6.600205" xlink:href="#g" y1="292.512989" y2="295.555922"/><linearGradient id="x" gradientUnits="userSpaceOnUse" x1="20.788102" x2="10.963702" xlink:href="#v" y1="268.967757" y2="278.9582"/><radialGradient id="y" cx="-16.60284" cy="73.863823" gradientTransform="matrix(.25473422 .02748889 .02789079 1.846495 8.739394 148.46325)" gradientUnits="userSpaceOnUse" r="4.390625" xlink:href="#g"/><linearGradient id="z" gradientUnits="userSpaceOnUse" x1="26.106408" x2="19.665187" y1="294.20518" y2="287.146715"><stop offset="0" stop-opacity=".447653"/><stop offset=".5" stop-opacity=".133574"/><stop offset="1" stop-opacity="0"/></linearGradient><linearGradient id="A" gradientTransform="matrix(.25473422 .02748889 .00409549 .27114288 .312576 262.44581)" gradientUnits="userSpaceOnUse" x1="95.84687" x2="76.361786" xlink:href="#B" y1="117.20569" y2="88.409065"/><linearGradient id="B"><stop offset="0" stop-color="#393a38"/><stop offset="1" stop-color="#393a38" stop-opacity="0"/></linearGradient><linearGradient id="C" gradientTransform="matrix(.25473422 .02748889 .00409549 .27114288 .312576 262.44581)" gradientUnits="userSpaceOnUse" x1="87.068436" x2="105.05599" xlink:href="#B" y1="146.89471" y2="58.65321"/><radialGradient id="D" cx="104.66048" cy="65.847801" fx="115.7285" fy="56.281128" gradientTransform="matrix(.12000256 -.06913218 .27307381 .47401268 -5.347457 256.70822)" gradientUnits="userSpaceOnUse" r="29.998838" xlink:href="#g"/><linearGradient id="E" gradientTransform="matrix(.25438602 -.01155329 -.00145997 .29661167 2.120812 262.343)" gradientUnits="userSpaceOnUse" spreadMethod="reflect" x1="106.2739" x2="79.54409" y1="52.468563" y2="69.991898"><stop offset="0" stop-color="#9a7600"/><stop offset=".09292036" stop-color="#e3ad00"/><stop offset=".5043171" stop-color="#ffcd2c"/><stop offset=".91571385" stop-color="#e3ad00"/><stop offset="1" stop-color="#b98d00"/></linearGradient><linearGradient id="F" gradientTransform="matrix(.29713891 0 0 .20078083 -85.654012 234.56977)" gradientUnits="userSpaceOnUse" x1="-113.6435" x2="-118.30019" xlink:href="#v" y1="78.293831" y2="33.764427"/><linearGradient id="G" gradientTransform="matrix(.29713891 0 0 .20078083 -85.654012 234.56977)" gradientUnits="userSpaceOnUse" x1="-82.509743" x2="-118.91476" xlink:href="#H" y1="64.065186" y2="63.447075"/><linearGradient id="H"><stop offset="0"/><stop offset=".40659341" stop-opacity=".682353"/><stop offset=".45329672" stop-opacity=".487365"/><stop offset=".5" stop-opacity=".361011"/><stop offset=".70604396" stop-opacity=".151625"/><stop offset="1" stop-opacity="0"/></linearGradient><linearGradient id="I" gradientTransform="matrix(.29713891 0 0 .20078083 -85.445361 234.71771)" gradientUnits="userSpaceOnUse" x1="-146.75171" x2="-123.66653" xlink:href="#H" y1="74.959991" y2="73.415115"/><linearGradient id="J" gradientTransform="matrix(.29885269 .02243057 .01404722 .31925895 39.69721 260.36754)" gradientUnits="userSpaceOnUse" x1="-116.78745" x2="-84.77729" xlink:href="#v" y1="116.55856" y2="93.56797"/><radialGradient id="K" cx="70.623695" cy="53.380299" fx="70.964447" fy="76.702087" gradientTransform="matrix(.29801846 -.15293049 .1869776 .35408102 -14.863487 266.76096)" gradientUnits="userSpaceOnUse" r="53.565186"><stop offset="0" stop-color="#fff" stop-opacity="0"/><stop offset=".5" stop-color="#7f7f7f" stop-opacity="0"/><stop offset="1"/></radialGradient><linearGradient id="L" gradientTransform="matrix(.29885269 .02243057 .01404722 .31925895 39.69721 260.36754)" gradientUnits="userSpaceOnUse" x1="-70.057068" x2="-27.8897" y1="95.781326" y2="66.671455"><stop offset="0" stop-color="#fff"/><stop offset=".42597079" stop-color="#fff"/><stop offset=".5892781" stop-color="#f1f1f1"/><stop offset=".80219781" stop-color="#eaeaea"/><stop offset="1" stop-color="#dfdfdf"/></linearGradient><radialGradient id="M" cx="63.84724" cy="121.47017" fx="95.480644" gradientTransform="matrix(.26458333 0 0 .02705973 0 291.98536)" gradientUnits="userSpaceOnUse" r="63.84724" xlink:href="#v"/><g transform="matrix(-.15826632 0 0 .15826632 6.066163 -40.655097)"><path d="m4.0676263 296.38986c1.8118029.0146 3.339677-.18651 3.7127048-.1773 2.4676279.0609 8.3796839-1.0841 6.0153279-2.49164-2.583029-1.53773-9.6826445-1.49642-12.4469779-.0137-3.0167706 1.61811.9074373 2.66801 2.7189452 2.68265z" fill="url(#a)" fill-rule="evenodd" opacity=".377049" stroke="url(#b)" stroke-width=".569383"/><ellipse cx="16.892916" cy="295.27231" fill="url(#M)" opacity=".364754" rx="16.892916" ry="1.727685"/><path d="m22.776185 266.90831c1.296174 2.30773 8.076148 14.37896 9.372315 16.68669 1.296173 2.30774-1.54641 6.34925-6.346512 9.02209-4.800108 2.67283-9.746603 2.96848-11.042775.66075-1.296168-2.30773-8.0761421-14.37897-9.3723173-16.6867-1.2961712-2.30773 1.54641-6.34925 6.3465193-9.02208 4.800104-2.67283 9.746604-2.96848 11.04277-.66075z" style="opacity:.25;fill:none;stroke:#000;stroke-width:.787789;stroke-linecap:round;stroke-linejoin:round;stroke-dashoffset:4;stroke-opacity:.333333"/><path d="m22.776185 266.90831c1.296174 2.30773 8.076148 14.37896 9.372315 16.68669 1.296173 2.30774-1.54641 6.34925-6.346512 9.02209-4.800108 2.67283-9.746603 2.96848-11.042775.66075-1.296168-2.30773-8.0761421-14.37897-9.3723173-16.6867-1.2961712-2.30773 1.54641-6.34925 6.3465193-9.02208 4.800104-2.67283 9.746604-2.96848 11.04277-.66075z" style="opacity:.3;fill:none;stroke:#000;stroke-width:.525192;stroke-linecap:round;stroke-linejoin:round;stroke-dashoffset:4;stroke-opacity:.333333"/><path d="m22.774958 266.82697c1.296175 2.30773 8.076144 14.37896 9.372314 16.68669 1.296173 2.30773-1.546407 6.34925-6.346513 9.02208-4.800108 2.67283-9.746603 2.96848-11.042775.66075-1.296168-2.30773-8.0761418-14.37896-9.3723167-16.68669-1.2961716-2.30773 1.5464096-6.34925 6.3465187-9.02208 4.800104-2.67283 9.746601-2.96848 11.042772-.66075z" fill="url(#L)"/><path d="m22.774958 266.82697c1.296175 2.30773 8.076144 14.37896 9.372314 16.68669 1.296173 2.30773-1.546407 6.34925-6.346513 9.02208-4.800108 2.67283-9.746603 2.96848-11.042775.66075-1.296168-2.30773-8.0761418-14.37896-9.3723167-16.68669-1.2961716-2.30773 1.5464096-6.34925 6.3465187-9.02208 4.800104-2.67283 9.746601-2.96848 11.042772-.66075z" fill="url(#K)" opacity=".405738"/><path d="m22.774958 266.82697c1.296175 2.30773 8.076144 14.37896 9.372314 16.68669 1.296173 2.30773-1.546407 6.34925-6.346513 9.02208-4.800108 2.67283-9.746603 2.96848-11.042775.66075-1.296168-2.30773-8.0761418-14.37896-9.3723167-16.68669-1.2961716-2.30773 1.5464096-6.34925 6.3465187-9.02208 4.800104-2.67283 9.746601-2.96848 11.042772-.66075z" fill="url(#J)"/><ellipse cx="-120.46539" cy="244.35136" fill="url(#I)" opacity=".4" rx="9.953061" ry="4.794975" transform="matrix(.87368565 -.48649089 .48970775 .87188664 0 0)"/><ellipse cx="-120.67405" cy="244.20343" fill="url(#G)" opacity=".4" rx="9.953061" ry="4.794975" transform="matrix(.87368565 -.48649089 .48970775 .87188664 0 0)"/><ellipse cx="-120.67405" cy="244.20343" fill="url(#F)" opacity=".4" rx="9.953061" ry="4.794975" transform="matrix(.87368565 -.48649089 .48970775 .87188664 0 0)"/><path d="m22.800552 266.87572c.07931.14121.365656.64417.423851.74778 1.296171 2.30773-1.542221 6.34755-6.342327 9.02038-4.800107 2.67283-9.7422345 2.97082-11.038406.66309-.070056-.12473-.4047868-.72435-.5051483-.90303.03325.36595.1297083.70452.3053934 1.01731.6716337 1.19579 2.2934044 1.71025 4.3330819 1.58809 2.039678-.12215 4.516481-.87894 6.948143-2.23296 2.431661-1.35401 4.372747-3.04847 5.545085-4.71485 1.172337-1.66639 1.571729-3.31084.900092-4.50663-.146415-.26069-.338874-.48321-.569765-.67918z" fill="#cacaca"/><path d="m20.299004 265.6326c-2.187856-.24169-5.248382.50168-8.24845 2.1722-4.8001108 2.67282-7.6449635 6.71855-6.3487938 9.02628.097252.17315.2200243.32601.3567867.46993-.070966-.0916-.1379056-.1816-.1950183-.28328-1.2961697-2.30773 1.5486829-6.35346 6.3487934-9.02629 4.43797-2.47118 9.000237-2.91068 10.68803-1.13913-.53333-.68612-1.444542-1.09192-2.601348-1.21971z" fill="#babdb6" opacity=".4"/><path d="m15.735896 281.12825 6.571483 11.08651c3.929309-1.76535 8.55305-5.8896 9.302903-8.62749l-6.400594-11.28186c-.790049 4.01511-5.597896 6.96892-9.473792 8.82284z" fill="url(#E)"/><ellipse cx="-120.54996" cy="244.10875" rx="9.943135" ry="4.793191" style="fill:none;stroke:#fff;stroke-width:.393626;stroke-linecap:round;stroke-linejoin:round;stroke-dashoffset:4" transform="matrix(.873335 -.48712009 .48922825 .87215579 0 0)"/><path d="m5.1767295 274.79581c-.073241.61511.00666 1.18659.2722203 1.67433 1.2539985 2.30318 5.9057972 1.7353 10.6734392-.70602 1.274868-.65282 2.328067-1.44041 2.605625-1.67214-1.987096-1.24736-12.8167604-2.36603-13.5512845.70383z" fill="#b70000"/><path d="m20.087009 265.32079c-.423109-.0459-.881213-.0499-1.367276-.0207-1.944249.1169-4.326678.8407-6.683057 2.15502-2.3563799 1.31432-4.2260448 2.95894-5.3435019 4.54977-.244044.34743-.449952.69564-.6201974 1.0328.1553866-.2911.3414617-.58126.5509853-.87954 1.1174571-1.59083 2.9869942-3.24393 5.343373-4.55824 2.356379-1.31432 4.738809-2.03812 6.683058-2.15502 1.94425-.1169 3.442223.36141 4.059391 1.46164.424301.75642.384358 1.71936-.04572 2.7613.488442-1.0989.559307-2.11411.115056-2.90608-.462876-.82518-1.422787-1.30317-2.692115-1.44099zm2.774894 4.81676c-.164583.31021-.361212.6212-.58193.93542-1.177161 1.67582-3.118218 3.37911-5.555235 4.7384-2.437016 1.3593-4.911758 2.12044-6.9598811 2.24358-2.048124.12314-3.6783372-.39623-4.3555901-1.60358-.4656114-.83005-.416387-1.87578.042258-2.99007-.5187932 1.17214-.5985815 2.2667-.1115984 3.13486.6772527 1.20735 2.3074665 1.72672 4.3555902 1.60358 2.0481244-.12315 4.5228654-.88428 6.9598814-2.24358 2.437017-1.3593 4.378202-3.05411 5.555361-4.72993.25519-.3633.471428-.73135.651144-1.08868z" fill-opacity=".394309"/><path d="m20.228078 265.25917c-.423109-.0459-.881342-.0584-1.367404-.0291-1.944249.11689-4.326679.84069-6.683058 2.15501-1.507376.84077-2.8108152 1.82059-3.8514699 2.83279 1.0036048-.93845 2.2354729-1.83526 3.6401219-2.61873 2.356379-1.31432 4.738809-2.03812 6.683058-2.15502s3.472163.3686 4.051849 1.48861c.551404 1.06536.123569 2.58844-.993887 4.17927-.388018.55239-.823513 1.06473-1.381129 1.61418.652563-.6173 1.154363-1.20453 1.592477-1.82824 1.117459-1.59083 1.593428-3.0447.976257-4.14494-.462876-.82517-1.397487-1.35598-2.666815-1.49381zm-12.3475889 4.91905c-.6429287.61784-1.199157 1.25016-1.6405918 1.8786-1.1771601 1.67582-1.5862514 3.33031-.9089988 4.53766s2.3074662 1.72672 4.3555902 1.60358c2.0481233-.12314 4.5308253-.88342 6.9678413-2.24272 1.628509-.90833 3.028509-1.96912 4.13395-3.07301-1.070074 1.02681-2.399465 2.0094-3.922601 2.85896-2.437017 1.35929-4.91163 2.1289-6.9597534 2.25205-2.048124.12314-3.6784661-.40471-4.3557182-1.61206-.6772529-1.20735-.2681616-2.86183.9089983-4.53766.3908628-.55644.8711393-1.11544 1.4212834-1.6654z" fill-opacity=".394309"/><path d="m15.735896 281.12825 6.571483 11.08651c3.92931-1.76535 8.55305-5.8896 9.302903-8.62749l-6.400594-11.28186c-.790049 4.01511-5.597896 6.96892-9.473792 8.82284z" fill="url(#D)"/><path d="m31.757023 283.03166c.07835.1395.361232.63637.418721.73872 1.280483 2.27981-1.523555 6.27074-6.265563 8.91122-4.742013 2.64048-9.624326 2.93486-10.90481.65506-.06921-.12322-.399888-.71558-.499034-.89211.03285.36153.128138.696.301697 1.005.663504 1.18133 2.265648 1.68956 4.280639 1.56888 2.014992-.12068 4.461818-.86831 6.864051-2.20593 2.402228-1.33763 4.319822-3.01158 5.477969-4.6578 1.15815-1.64621 1.55271-3.27076.889201-4.45208-.144645-.25753-.334774-.47736-.562871-.67096z" fill="url(#C)" opacity=".782787"/><path d="m31.638963 282.89544c.07835.1395.361227.63637.418719.73873 1.280483 2.2798-1.523556 6.27073-6.265564 8.91121-4.742013 2.64048-9.624325 2.93486-10.90481.65506-.06921-.12322-.399888-.71558-.499034-.8921.03285.36152.128138.69599.301697 1.00499.663505 1.18133 2.265648 1.68956 4.280639 1.56888 2.014992-.12068 4.461818-.86831 6.864051-2.20593 2.402228-1.33763 4.319823-3.01158 5.47797-4.65779 1.15815-1.64622 1.552707-3.27077.889198-4.45209-.144642-.25753-.334774-.47735-.562866-.67096z" fill="url(#A)" opacity=".782787"/><path d="m4.0676263 296.38986c1.8118029.0146 3.339677-.18651 3.7127048-.1773 2.4676279.0609 8.3796839-1.0841 6.0153279-2.49164-2.583029-1.53773-9.6826445-1.49642-12.4469779-.0137-3.0167706 1.61811.9074373 2.66801 2.7189452 2.68265z" fill="#b90000" fill-rule="evenodd" stroke="#ae0000" stroke-width=".19899"/><path d="m4.0540524 296.48488c1.8118029.0146 3.3465595-.19658 3.7194916-.18409 2.490188.0834 8.59527-1.09927 6.089985-2.64775-2.557087-1.58048-9.7505145-1.56428-12.6098658-.00012-3.0033333 1.64292.9888813 2.81732 2.8003892 2.83196z" fill="none" opacity=".885246" stroke="url(#c)" stroke-width=".020373"/><path d="m22.307379 292.21476c3.92931-1.76535 8.55305-5.8896 9.302903-8.62749-4.619546-8.00069-13.343735 1.65969-9.302903 8.62749z" fill="url(#z)" opacity=".438525"/><path d="m9.520324 277.88325c-1.5173159-.0363-2.075357 1.18256-2.1727936 2.36823-.2912411 3.54401.3160959 6.02836.1130131 8.86394-.04119.57511-1.0647836 1.15336-1.1850912-.12789-.2791833-2.97324.1953352-5.05962-.1384549-9.16638-.1102506-1.35646-.5265812-2.65953-.8918051-4.21019" fill="#b70000" fill-rule="evenodd" stroke="#000" stroke-width=".026458"/><path d="m5.6708751 276.79418c.2910181 1.14473.5664335 2.17783.6529875 3.24274.3337901 4.10676-.1407039 6.19478.1384794 9.16802.016029.17069.050078.30708.093708.41617.1167405-.11932.1971101-.27177.2081485-.42589.2030831-2.83558-.4246012-5.28508-.1333598-8.82909.076221-.92752.4008115-2.14073 1.2909979-2.39851-.7531648-.39068-1.5280661-.76702-2.2509615-1.17344z" fill="url(#y)" fill-rule="evenodd"/><path d="m5.1767295 274.79581c-.073241.61511.00666 1.18659.2722203 1.67433 1.2539985 2.30318 5.9057972 1.7353 10.6734392-.70602 1.274868-.65282 2.328067-1.44041 2.605625-1.67214-1.987096-1.24736-12.8167604-2.36603-13.5512845.70383z" fill="url(#x)"/><path d="m4.0540524 296.48488c1.8118029.0146 3.3465595-.19658 3.7194916-.18409 2.490188.0834 8.574909-1.07891 6.069624-2.62739-2.557087-1.58048-9.7165795-1.56089-12.5759308.003-3.0033333 1.64292.9753073 2.79357 2.7868152 2.80821z" fill="none" opacity=".627049" stroke="url(#c)" stroke-width=".07329"/><path d="m4.0540524 296.48488c1.8118029.0146 3.3465595-.19658 3.7194916-.18409 2.490188.0834 8.528679-1.008 6.016833-2.5458-2.549149-1.56065-9.6248869-1.54042-12.4943451-.002-3.0168616 1.61795.9465126 2.71678 2.7580205 2.73142z" fill="none" opacity=".245902" stroke="url(#c)" stroke-width=".258498"/><path d="m8.564777 292.52927c-2.0929232-.0789-4.3044943.1296-5.9227281.60744-.8293857.75645 2.2642883 1.49285 4.5409224 1.54901 2.5886312.0639 5.5190567-.67686 5.0047307-1.66402-1.04367-.27747-2.3053598-.44278-3.622925-.49243z" fill="url(#w)" opacity=".819672"/><path d="m4.0676263 296.38986c1.8118029.0146 3.339677-.18651 3.7127048-.1773 2.4676279.0609 8.3796839-1.0841 6.0153279-2.49164-2.583029-1.53773-9.6826445-1.49642-12.4469779-.0137-3.0167706 1.61811.9074373 2.66801 2.7189452 2.68265z" fill="url(#a)" fill-rule="evenodd" opacity=".70082" stroke="url(#b)" stroke-width=".19899"/></g><g transform="matrix(.171875 0 0 .171875 1.058374 -48.349376)"><g fill="none" stroke-linecap="round" stroke-linejoin="round" transform="matrix(.19242425 0 0 .19242425 -1.539626 273.90905)"><path d="m54.393966 74.154282c-8.147999-8.350285-25.763139-26.404282-25.763139-26.404282l-12.630855 12.947999 38.393994 39.354851 57.606014-59.05285-12.632583-12.94714s-35.262002 36.147423-44.973431 46.101422z" filter="url(#d)" opacity=".502762" stroke="#004d00" stroke-width="11.526575" transform="matrix(1.0320437 0 0 1.0327501 3.9492 16.902265)"/><path d="m60.086153 93.485105c-8.409091-8.623758-26.588686-27.269024-26.588686-27.269024l-13.035596 13.372046 39.624282 40.643723 59.451927-60.986832-13.03738-13.37116s-36.391927 37.331253-46.414547 47.611247z" stroke="url(#e)" stroke-width="8"/><path d="m54.393966 74.154282c-8.147999-8.350285-25.763139-26.404282-25.763139-26.404282l-12.630855 12.947999 38.393994 39.354851 57.606014-59.05285-12.632583-12.94714s-35.262002 36.147423-44.973431 46.101422z" filter="url(#h)" opacity=".285714" stroke="url(#f)" stroke-width="7.748958" transform="matrix(1.0320437 0 0 1.0327501 3.9492 16.902265)"/></g><path d="m28.406226 44.03125c-.149888-.0024-.286582.01658-.4375.03125-.827192.08205-1.59533.427082-2.21875.96875l1.6875 9.6875c.110915-.113676.850367-.848179.9375-.9375l.375.375 3.03125-8.34375-.5625-.5625c-.74135-.759594-1.76329-1.201919-2.8125-1.21875z" fill="url(#i)" filter="url(#k)" opacity=".409524" transform="matrix(.19859023 0 0 -.19872615 4.383642 306.5232)"/><path d="m99.40625 24.03125c-.149888-.0024-.286582.01658-.4375.03125-.827192.08205-1.59533.427082-2.21875.96875l1.6875 9.6875c.110915-.113676.850367-.848179.9375-.9375l.375.375 3.03125-8.34375-.5625-.5625c-.74135-.759594-1.76329-1.201919-2.8125-1.21875z" fill="url(#l)" filter="url(#m)" opacity=".238095" transform="matrix(-.06792186 .18674151 .1866138 .06796837 4.028128 268.77455)"/><path d="m28.406226 44.03125c-.149888-.0024-.286582.01658-.4375.03125-.827192.08205-1.59533.427082-2.21875.96875l1.6875 9.6875c.110915-.113676.850367-.848179.9375-.9375l.375.375 3.03125-8.34375-.5625-.5625c-.74135-.759594-1.76329-1.201919-2.8125-1.21875z" fill="url(#n)" filter="url(#k)" opacity=".77619" transform="matrix(.19859023 0 0 .19872615 -.779704 277.16145)"/><path d="m99.40625 24.03125c-.149888-.0024-.286582.01658-.4375.03125-.827192.08205-1.59533.427082-2.21875.96875l1.6875 9.6875c.110915-.113676.850367-.848179.9375-.9375l.375.375 3.03125-8.34375-.5625-.5625c-.74135-.759594-1.76329-1.201919-2.8125-1.21875z" fill="url(#l)" filter="url(#m)" opacity=".371429" transform="matrix(.06792186 .18674151 -.1866138 .06796837 19.979606 264.80003)"/><path d="m99.40625 24.03125c-.149888-.0024-.286582.01658-.4375.03125-.827192.08205-1.59533.427082-2.21875.96875l1.6875 9.6875c.110915-.113676.850367-.848179.9375-.9375l.375.375 3.03125-8.34375-.5625-.5625c-.74135-.759594-1.76329-1.201919-2.8125-1.21875z" fill="url(#l)" filter="url(#k)" opacity=".871429" transform="matrix(.19859023 0 0 .19872615 -.779709 277.16145)"/><path d="m10.022407 291.89785c-1.6181131-1.65942-5.116308-5.24722-5.116308-5.24722l-2.5083648 2.5731 7.6246728 7.82084 11.439992-11.73535-2.508709-2.57293s-7.002688 7.18344-8.931283 9.16156z" style="opacity:.285714;fill:none;stroke-width:1.539394;stroke-linecap:round;stroke-linejoin:round;stroke:url(#o)"/><path d="m10.022407 291.89785c-1.6181133-1.65942-5.116308-5.24722-5.116308-5.24722l-2.5083648 2.5731 7.6246728 7.82084 11.439992-11.73535-2.508709-2.57293s-7.002688 7.18344-8.931283 9.16156z" fill="url(#p)" stroke-width=".192424"/><path d="m18.955196 282.7382s-7.001759 7.18192-8.930354 9.16004c-1.6181134-1.65942-5.1199051-5.24761-5.1199051-5.24761l-2.5072017 2.57102 3.270533 3.3535c.037515.0001.074149 0 .1117076 0 3.4812471 0 6.7791342-.41596 9.7371272-1.16131l5.945296-6.10462z" fill="url(#q)" stroke-width=".192424"/><path d="m54.393966 74.154282c-8.147999-8.350285-25.763139-26.404282-25.763139-26.404282l-12.630855 12.947999 38.393994 39.354851 57.606014-59.05285-12.632583-12.94714s-35.262002 36.147423-44.973431 46.101422z" fill="none" filter="url(#s)" stroke="url(#r)" stroke-width=".96862" transform="matrix(.19859023 0 0 .19872615 -.779704 277.16145)"/><g stroke-width=".192424"><path d="m18.955196 282.7382s-.07948.0857-.08068.087l2.420322 2.4406-5.957707 6.00526c-2.964397.73283-6.1676687 1.23583-9.6564508 1.23583-.025092 0-.049666 0-.074471 0l.062059.0683c.037517.0001.07415 0 .1117077 0 3.4812471 0 6.7791341-.41596 9.7371271-1.16131l5.945295-6.10462z" fill="url(#t)"/><path d="m18.955196 282.7382s-7.001759 7.18192-8.930354 9.16004c-1.6181134-1.65942-5.1199051-5.24761-5.1199051-5.24761l-2.5072017 2.57102.099295.0994 2.4079065-2.47166s3.5017917 3.58819 5.1199053 5.24761c1.928595-1.97812 8.930354-9.16003 8.930354-9.16003l2.407906 2.47166.09929-.0994z" fill="url(#u)"/></g></g></svg>