<svg height="24" width="24" xmlns="http://www.w3.org/2000/svg" xmlns:xlink="http://www.w3.org/1999/xlink"><linearGradient id="a"><stop offset="0"/><stop offset="1" stop-opacity="0"/></linearGradient><linearGradient id="b"><stop offset="0" stop-color="#fff"/><stop offset="1" stop-color="#fff" stop-opacity="0"/></linearGradient><linearGradient id="c" gradientTransform="matrix(1.8263701 0 0 1.8293782 224.68154 -3467.4687)" gradientUnits="userSpaceOnUse" x1="-97.742668" x2="-97.742668" y1="1937.9885" y2="1895.421"><stop offset="0" stop-color="#2e2a2b"/><stop offset=".33497536" stop-color="#4c494a"/><stop offset=".66748768" stop-color="#5b595a"/><stop offset="1" stop-color="#6b696a"/></linearGradient><radialGradient id="d" cx="100.30548" cy="42.449028" gradientTransform="matrix(3.9033696 -.08921125 .03142618 1.3750281 -365.19142 -59.70847)" gradientUnits="userSpaceOnUse" r="38"><stop offset="0" stop-color="#d0ced9"/><stop offset=".28386873" stop-color="#ecf1f9"/><stop offset=".58388489" stop-color="#fff"/><stop offset="1" stop-color="#c6d5e3"/></radialGradient><filter id="e"><feGaussianBlur stdDeviation=".11145486"/></filter><linearGradient id="f" gradientUnits="userSpaceOnUse" x1="65.972266" x2="66.079451" xlink:href="#b" y1="31.21278" y2="59.869701"/><linearGradient id="g" gradientTransform="matrix(.7134318 0 0 .7083173 5.052357 -5.237961)" gradientUnits="userSpaceOnUse" x1="107.06239" x2="107.06239" xlink:href="#b" y1="-26.262714" y2="134.55173"/><filter id="h" height="1.240511" width="1.138013" x="-.069006" y="-.120256"><feGaussianBlur stdDeviation="1.9228365"/></filter><radialGradient id="i" cx="84" cy="91.983192" gradientTransform="matrix(.7217891 0 0 .424278 -3.07943 23.252626)" gradientUnits="userSpaceOnUse" r="32" xlink:href="#b"/><linearGradient id="j" gradientUnits="userSpaceOnUse" x1="47.608696" x2="47.608696" xlink:href="#a" y1="104.35009" y2="176.35008"/><linearGradient id="k" gradientUnits="userSpaceOnUse" x1="89.604726" x2="114.175" xlink:href="#b" y1="42.336197" y2="106.7981"/><filter id="l"><feGaussianBlur stdDeviation=".0231875"/></filter><clipPath id="m"><path d="m18.189713 132.42089c-1.419208 0-2.5625 1.1433-2.5625 2.5625v37.18328h72.000002v-37.18328c0-1.4192-1.14329-2.5625-2.5625-2.5625z"/></clipPath><linearGradient id="n" gradientTransform="matrix(.7217891 0 0 .6902605 -3.07943 -3.520608)" gradientUnits="userSpaceOnUse" x1="64" x2="56" y1="120.0697" y2="96.315643"><stop offset="0" stop-color="#8a8a8a"/><stop offset="1" stop-color="#c6c6c6"/></linearGradient><filter id="o" height="1.185769" width="1.247692" x="-.123846" y="-.092885"><feGaussianBlur stdDeviation="1.2384615"/></filter><linearGradient id="p" gradientUnits="userSpaceOnUse" x1="68" x2="36" xlink:href="#a" y1="120" y2="84"/><linearGradient id="q" gradientTransform="matrix(.7217891 0 0 .6902605 3.07943 -3.520608)" gradientUnits="userSpaceOnUse" x1="-80.095642" x2="-89.987785" xlink:href="#b" y1="78.43882" y2="115.78114"/><linearGradient id="r" gradientUnits="userSpaceOnUse" x1="87.693916" x2="91.051781" xlink:href="#a" y1="100.83184" y2="100.83184"/><filter id="s" height="1.045223" width="1.50979" x="-.254895" y="-.022612"><feGaussianBlur stdDeviation=".35662617"/></filter><filter id="t" height="1.203077" width="1.293333" x="-.146667" y="-.101538"><feGaussianBlur stdDeviation=".55"/></filter><clipPath id="u"><rect height="12" rx="1.079258" width="8" x="12" y="12"/></clipPath><clipPath id="v"><rect height="12" rx="1.079258" width="8" x="12" y="12"/></clipPath><filter id="w"><feGaussianBlur stdDeviation=".04177847"/></filter><radialGradient id="x" cx="16" cy="18" gradientTransform="matrix(1 0 0 1.5 0 -9)" gradientUnits="userSpaceOnUse" r="4"><stop offset="0" stop-color="#7a7a7a"/><stop offset="1" stop-opacity=".490909"/></radialGradient><linearGradient id="y" gradientUnits="userSpaceOnUse" x1="16" x2="16" xlink:href="#a" y1="1.595278" y2="18.75548"/><radialGradient id="z" cx="16.03512" cy="19.49425" fy="18.539073" gradientUnits="userSpaceOnUse" r="2.378519"><stop offset="0" stop-color="#868385"/><stop offset="1" stop-color="#4a4949"/></radialGradient><linearGradient id="A" gradientUnits="userSpaceOnUse" x1="13.731525" x2="13.731525" y1="17.127984" y2="19.868869"><stop offset="0" stop-color="#fff"/><stop offset="1"/></linearGradient><linearGradient id="B" gradientTransform="matrix(.7217891 0 0 .6902605 -3.07943 -3.520608)" gradientUnits="userSpaceOnUse" x1="60.25" x2="60.25" xlink:href="#a" y1="122.00736" y2="118.5"/><filter id="C"><feGaussianBlur stdDeviation="2.028"/></filter><linearGradient id="D" gradientTransform="matrix(1.003095 0 0 .98228452 -1.76555 .690988)" gradientUnits="userSpaceOnUse" x1="72" x2="72" y1="0" y2="116.40091"><stop offset="0" stop-color="#eeecec"/><stop offset=".40000001" stop-color="#f4f4f4"/><stop offset="1" stop-color="#f6f5f5"/></linearGradient><radialGradient id="E" cx="64" cy="64.004021" fx="63.793392" fy="47.274845" gradientTransform="matrix(1.689423 -.08280186 .06907651 1.3515102 -50.111719 -17.641619)" gradientUnits="userSpaceOnUse" r="47.5" xlink:href="#b"/><clipPath id="F"><path d="m17.000001 8 .782827 110h57.5c1.675283 0 3.119418.18058 4.9-1.6 8.797935-8.79794 19.757642-19.851805 27.016212-27.175957 2.44056-2.462612 2.80096-4.47117 2.80096-6.724043v-74.5z"/></clipPath><filter id="G" color-interpolation-filters="sRGB" height="2.025501" width="1.957419" x="-.478709" y="-.512751"><feGaussianBlur stdDeviation="10.140743"/></filter><filter id="H" height="1.408259" width="1.329301" x="-.164651" y="-.20413"><feGaussianBlur stdDeviation="4.2234282"/></filter><linearGradient id="I" gradientTransform="matrix(1.4094273 0 0 1.4111689 -46.598939 -46.228314)" gradientUnits="userSpaceOnUse" x1="82.15696" x2="94.220871" y1="90.381706" y2="102.18401"><stop offset="0" stop-color="#fcfcfc"/><stop offset=".52275378" stop-color="#f8f8f8"/><stop offset=".72337759" stop-color="#f0efef"/><stop offset=".89024991" stop-color="#e3e1e1"/><stop offset="1" stop-color="#cecbcb"/></linearGradient><radialGradient id="J" cx="90.750004" cy="110.252967" gradientUnits="userSpaceOnUse" r="24.501278" xlink:href="#b"/><clipPath id="K"><path d="m112 82.502986c0 4.465301-2.79749 6.409952-5.27972 8.093625-5.10854 3.46508-14.939114 3.32536-20.720284 3.40638-.081 5.781159.16586 15.504599-3.29922 20.613139-1.68367 2.48224-5.29051 5.38687-8.20078 5.38687 2.31803 0 4.74284-1.33476 7.58402-4.08481 9.14197-8.84873 17.36714-16.13535 25.673154-25.297529 1.91895-2.116745 4.24283-3.641881 4.24283-8.117675z"/></clipPath><filter id="L" color-interpolation-filters="sRGB"><feGaussianBlur stdDeviation=".43040059"/></filter><g transform="matrix(.171875 0 0 .171875 -.999733 1.999705)"><path d="m13.333-.58629621v124.25309621l49.8545-.0668c2.115554-.003 4.528919-1.77169 7-4.25.71234-.71442 1.440746-1.39395 2.15625-2.09375.415612-.40649.832187-.81443 1.25-1.21875 7.773958-7.40962 26.98341-25.122599 34.21875-33.099999.42065-.42064.81207-.8111 1.15625-1.1875 1.46444-1.49766 2.76158-2.8378 2.99375-5.8625l.0375-.73125-.0028-75.74254721z" filter="url(#C)" opacity=".456067" transform="matrix(1.003095 0 0 .98228452 -1.765551 .690986)"/><path d="m11.608716.0183032v122.1486768h49.485099c1.680486 0 3.926459-.55989 7.021752-3.56934 8.897609-8.6509 32.175353-31.250103 39.456483-38.511869 2.44813-2.441635 3.01026-4.433083 3.01026-6.66676l-.003-73.4007078z" fill="#fff"/><path d="m17.07938 4.9265762c-.340895 0-.501546.230461-.501546.491142v110.3675518c0 .80702.681425 1.474 1.504643 1.47343l44.496615-.0308c.05324-.00004.812893.0229 1.504643.0308 1.783165-.0393 3.141667-.74038 4.369516-1.56504 1.055122-.28588 25.815399-23.810974 34.964739-32.837827 1.36662-1.348301 2.19223-3.878226 2.19223-4.808882v-72.6292328c0-.317-.16372-.491143-.50156-.491143z" fill="url(#D)"/><path d="m17.07938 4.9265762c-.340895 0-.501546.230461-.501546.491142v110.3675518c0 .80703.68144 1.46853 1.504643 1.47343l46.36344.27591c.05324.00032 3.284015-.008 3.975766.00005 6.561216-4.42387 26.757215-26.379267 35.730127-35.221607.65937-.724227.45902-.363513 1.45841-1.578984v-75.3163508c0-.317-.16372-.491143-.50156-.491143z" fill="url(#E)" opacity=".846535"/><path clip-path="url(#F)" d="m114.4 82.502986c0 4.465301-9.3766 4.299815-11.85883 5.983488-5.108537 3.46508-16.574334-.810699-22.355504-.729679-.081 5.781159.365076 18.386735.365076 24.536755 0 2.97817-3.440475 11.20945-6.350745 11.20945-2.091359 1.5337 3.488204 8.21101 6.734971 5.31989 9.501888-8.46107 35.131682-30.022701 43.350822-39.262886 2.04044-2.29392-4.90514-9.844666-9.88579-7.057018z" filter="url(#G)" opacity=".605634" transform="matrix(1.258302 0 0 1.2610357 -31.355772 -28.164007)"/><path clip-path="url(#F)" d="m113.9 82.502986c0 4.465301-7.96273 7.457662-10.95287 7.881439-6.394981.906328-15.304541-.844131-21.085711-.763111-.081 5.781159 3.397918 20.001056-.06716 25.109596-1.68367 2.48224-3.883991 8.07209-6.794261 8.07209-2.091359 1.5337 3.488204 11.21101 6.734971 8.31989 9.501888-8.46107 45.998941-30.20138 54.218081-39.441569 2.04044-2.29392-17.0724-11.965986-22.05305-9.178335z" filter="url(#H)" opacity=".643192" transform="matrix(1.3586765 0 0 1.3616521 -42.382653 -40.155635)"/><path d="m110.63455 70.194961c0 6.22666-3.89615 8.938389-7.35324 11.28619-7.11485 4.831902-21.758838 3.808851-29.810472 3.92183-.112812 8.061568.720236 21.530529-4.105701 28.654139-2.344905 3.46138-6.904898 8.42993-10.95813 8.42993 3.228399 0 6.605514-1.86127 10.562523-5.69609 12.732335-12.33915 24.187814-22.50002 35.75589-35.27627 2.67259-2.951702 5.90913-5.078441 5.90913-11.319729z" fill="url(#I)"/><path d="m110.66063 69.760596c-.44065 5.437134-4.51314 7.338042-6.73057 8.843942-5.25734 3.570397-12.241076 3.279514-34.154353 3.279514 0 19.761338.513212 28.553598-3.305002 33.382518-2.272989 2.87466-6.824021 6.07997-10.532933 6.90254 5.082113 0 8.629228-1.08751 11.949253-4.30502.472301-.5418 1.415698-1.55003 2.15657-2.69493 3.94064-5.81684 3.837814-17.294735 3.837814-29.263474 8.051633-.11295 22.202451 1.162156 29.317291-3.669742.64822-.440215 2.63774-2.020759 3.2183-2.58944 3.22475-3.158721 3.92397-5.17219 4.24363-9.885908zm-54.722858 52.408514c-.219575.0485-.436533.0579-.652846.087.218648-.0234.432367-.0468.652846-.087z" fill="#fff"/><path clip-path="url(#K)" d="m108.97651 89.508691-29.041615 28.702079" fill="none" filter="url(#L)" stroke="url(#J)" stroke-width="1.82707" transform="matrix(1.3927341 0 0 1.3944553 -45.351691 -44.851769)"/></g><g transform="matrix(.18750059 0 0 .18750059 7.255898 8.999488)"><path d="m6.4514143.0035867c-1.2903997 0-2.3978613 1.1513294-2.3971907 2.3564583v69.075398l8.5909414 8.546185h68.915744c2.107085 0 2.397003-.245907 2.397003-2.356274v-75.265309c0-1.2841622-1.11157-2.3564583-2.397003-2.3564583z" fill="url(#c)"/><rect fill="url(#d)" height="37.706059" rx=".909634" ry=".914365" width="47.905937" x="19.96908" y=".00228"/><rect fill="#cfdce7" height="37.332691" opacity=".613281" rx=".960809" ry=".654892" width="5.333243" x="19.96908" y=".00228"/><rect fill="#cfdce7" height="37.332691" opacity=".546875" rx="0" ry=".691693" width="5.333241" x="62.635014" y=".00228"/><path d="m100.309 4.9315278c-.10113 0-.18846.03692-.28125.0625-.10429.02875-.19158.06873-.28125.125-.08551.05367-.15037.1133-.21875.1875-.02858.03101-.06863.05969-.09375.09375-.0337.0406-.06548.08064-.09375.125-.09343.16901-.15625.35712-.15625.5625v51.3750002h.40625v-51.3750002c0-.21142.0889-.39008.1875-.5625h11.90624c2.95345 0 4.375.33282 4.375 3.3125v-.59375c0-2.60722-1.31573-3.17681-3.375-3.28125h-12.12499c.0536-.00807.10032-.03125.15625-.03125zm-93.218753.03125c-1.625192.15371-2.961966.77436-3 2.875.121067-2.05986 1.759484-2.3125 4.34375-2.3125h12c.106588.1773.15625.37327.15625.59375v51.3750002h.40625v-51.3750002c0-.22048-.04966-.41645-.15625-.59375-.04526-.07529-.09582-.15599-.15625-.21875-.09373-.10558-.218747-.19086-.34375-.25-.116339-.05505-.234438-.09375-.375-.09375h-.5zm-3 2.875c-.00244.13474-.03125.25892-.03125.40625v.59375c0-.37246.013955-.70573.03125-1z" fill="url(#f)" filter="url(#e)" opacity=".269531" transform="matrix(.7134318 0 0 .7083173 1.199826 -3.046065)"/><path d="m80.698342.4285771c2.107085 0 2.693205.2357464 2.693205 2.3463011v73.1558978c0 2.110368-2.012983 3.762937-4.120068 3.762937h.512778c2.107085 0 3.812401-1.652569 3.812401-3.762937v-73.1558978c0-2.1105547-.278452-2.3463011-2.385537-2.3463011z" fill="url(#g)"/><path clip-path="url(#m)" d="m16.78125 130.4375c-1.48295 0-2.65625 1.20455-2.65625 2.6875v42.03125c0 1.48295 1.173301 2.65625 2.65625 2.65625h.15625c-.407771-.44637-.6875-1.03176-.6875-1.6875v-39.96875c0-1.39131 1.112011-2.53125 2.5-2.53125h65.59375c1.387992 0 2.5 1.13994 2.5 2.53125v39.96875c.000002.65574-.248479 1.24113-.65625 1.6875h.125c1.48295 0 2.687502-1.1733 2.6875-2.65625v-42.03125c0-1.48295-1.204549-2.6875-2.6875-2.6875z" fill="url(#j)" filter="url(#h)" transform="matrix(.7217891 0 0 .6831868 8.751635 -38.388554)"/><path d="m21.849585 52.036632c-1.024369 0-1.849585.781081-1.849585 1.750666l.01782 25.377821h51.968812l-.01782-25.377821c0-.969585-.825215-1.750666-1.849585-1.750666z" fill-opacity=".128319"/><path d="m21.880771 52.079644c-1.024368 0-1.849584.78109-1.849584 1.750667v25.403125l51.955446-.079646v-25.403125c0-.969579-.825213-1.750665-1.849583-1.750665z" fill="url(#i)" opacity=".074219"/><path d="m52.9375 84c-.51955 0-.9375.417953-.9375.9375v23.0625h-11.0625c-.51955 0-.9375.41795-.9375.9375v6.125c0 .51955.417949.9375.9375.9375h12 10.125c.51955 0 .9375-.41795.9375-.9375v-6.125-24c0-.51955-.417949-.9375-.9375-.9375z" fill="url(#p)" filter="url(#o)" transform="matrix(.7217891 0 0 .6902605 -3.07943 -3.520608)"/><path d="m112.08125 97.375v6.71875h-1.21875-1.03125l4.34375 7.53125 4.34375-7.53125h-1.03125-1.21875v-6.71875h-2.09375z" style="opacity:.453125;fill-rule:evenodd;stroke:#fff;stroke-width:.204613;fill:url(#k);filter:url(#l)" transform="matrix(.4266354 0 0 .5529039 29.37826 10.222563)"/><path d="m87.693916 81.905701h3.357863v37.852272h-3.357863z" fill="url(#r)" filter="url(#s)" opacity=".296875" transform="matrix(.7217891 0 0 .6902605 -3.07943 -3.520608)"/><path d="m21.852589 52.25101c-.849726 0-1.533802.654194-1.533802 1.466803l.127596 26.00698h43.991625v-26.10478c0-.81261-.593851-1.369003-1.443578-1.369003zm2.898726 3.911286h10.19527c.375006 0 .676676.288495.676676.64712v14.75578c0 .358626-.301671.647121-.676676.647121h-10.19527c-.375006 0-.676678-.288495-.676678-.647121v-14.75578c0-.358624.301673-.64712.676678-.64712z" fill="url(#n)"/><path d="m-60.341511 53.345402h.18253v26.141083h-.18253z" fill="url(#q)" transform="scale(-1 1)"/><g opacity=".785156" stroke-dashoffset="4.15" stroke-linecap="round" stroke-linejoin="round" transform="matrix(.7765389 0 0 .9603239 -2.268297 -5.285829)"><rect height="12" rx="1.079258" style="opacity:1;fill:none;stroke:#000;stroke-width:1.269198;clip-path:url(#v);filter:url(#t)" transform="matrix(.6942102 0 0 .6942102 4.892636 5.504216)" width="8" x="12" y="12"/><rect height="12" rx="1.079258" style="opacity:1;stroke-width:1.269198;clip-path:url(#u);fill:url(#x);stroke:url(#y);filter:url(#t)" transform="matrix(.6942102 0 0 .6942102 4.892636 5.504216)" width="8" x="12" y="12"/><rect fill="url(#z)" filter="url(#w)" height="3.67592" opacity="1" rx=".452268" stroke="url(#A)" stroke-width=".42123" width="4.350229" x="13.897468" y="18.030909"/></g><path d="m20.378714 78.275253h40.059296v1.725651h-40.059296z" fill="url(#B)" opacity=".546875"/><path d="m6.4613852.0039191c-1.4671097.0759236-2.4078322 1.2078791-2.4078322 3.054618v.4205623c0-2.1105576 1.0141804-3.054617 3.121264-3.054617 26.055115-.4064623 54.428234-.1928614 74.375262 0 1.352675 0 2.407833.799205 2.407833 2.3462998v-.4205633c0-1.0931946-1.104749-2.3462998-2.407833-2.3462998h-74.375262c-.2633854 0-.5038448-.0108449-.7134318 0z" fill="#343434" fill-opacity=".828402"/><path d="m8.2804401 1.9852146c-1.2275532 0-2.281078 1.094276-2.2804401 2.2396856v66.1028608l7.721239 7.672239h66.010631c2.004463 0 2.280261-.233721 2.280261-2.23951v-71.5355898c0-1.2205264-1.057433-2.2396856-2.280261-2.2396856z" style="opacity:.4;fill:none;stroke:#000;stroke-width:4.124987;stroke-linecap:round;stroke-linejoin:round;stroke-dashoffset:1.0878"/><path d="m60 52v4h8v20h4v-20-4h-4z" opacity=".187192"/><g fill="#fff"><path d="m20 52v4h44v-4z" opacity=".403941"/><path d="m8 4v4h72v-4z" fill-rule="evenodd" opacity=".226601"/><path d="m20 72v4h44v-4z" opacity=".221675"/><path d="m16 0v4h56v-4z" opacity=".221675"/><path d="m16 0v4h56v-4z" opacity=".02"/></g></g></svg>