<svg height="24" width="24" xmlns="http://www.w3.org/2000/svg" xmlns:xlink="http://www.w3.org/1999/xlink"><linearGradient id="a" gradientUnits="userSpaceOnUse" x1="1055.3002" x2="1055.3002" y1="-468.66934" y2="-481.76657"><stop offset="0" stop-color="#6f6f6f"/><stop offset="1" stop-color="#fff"/></linearGradient><linearGradient id="b" gradientTransform="matrix(.08097133 0 0 .117107 78.3735 180.5229)" gradientUnits="userSpaceOnUse" x1="-333.0289" x2="-333.0289" y1="-1473.6504" y2="-776.61371"><stop offset="0" stop-color="#fff"/><stop offset=".49140647" stop-color="#fff"/><stop offset="1" stop-color="#dcdcdc"/></linearGradient><linearGradient id="c" gradientTransform="matrix(.08097133 0 0 .117107 -1.25515 -56.3532)" gradientUnits="userSpaceOnUse" x1="399.77466" x2="399.77466" y1="731.09662" y2="480.60214"><stop offset="0" stop-color="#cbcbcd"/><stop offset=".5" stop-color="#e0e0e2"/><stop offset="1" stop-color="#f2f2f2"/></linearGradient><filter id="d"><feGaussianBlur stdDeviation="1.5999062"/></filter><linearGradient id="e" gradientUnits="userSpaceOnUse" x1="73.62919" x2="73.62919" y1="27.87512" y2="80.00131"><stop offset="0" stop-color="#b3b3b6"/><stop offset="1" stop-color="#cecece"/></linearGradient><g transform="matrix(.25 0 0 .25 2 0)"><rect height="80" rx="1.38261" ry="1.632467" style="opacity:.4;fill:none;stroke:#000;stroke-width:4;stroke-linecap:round;stroke-linejoin:round;stroke-dashoffset:4;filter:url(#d)" width="84" y="8"/><rect fill="url(#c)" height="80" rx="1.382808" ry="1.632419" width="84" y="8"/><g id="f" transform="translate(-79.62865 -236.8761)"><path d="m1060.3605-478.60516a5.0602889 5.0602889 0 0 1 -5.0603 5.06029 5.0602889 5.0602889 0 0 1 -5.0603-5.06029 5.0602889 5.0602889 0 0 1 5.0603-5.06029 5.0602889 5.0602889 0 0 1 5.0603 5.06029z" fill="url(#a)" transform="matrix(.7904687 0 0 .7904687 -678.5531 631.1985)"/></g><path d="m52.54186 22.93328v-1.92136z" fill="#fff" fill-opacity=".756881"/><path d="m1.375 8c-.766076 0-1.375.72064-1.375 1.625v76.75c0 .90436.608924 1.625 1.375 1.625h81.25c.76608 0 1.375-.72064 1.375-1.625v-76.75c0-.90436-.60892-1.625-1.375-1.625zm.9375 2.4375h79.375c.72777 0 1.3125.68271 1.3125 1.53125v73.5c0 .84854-.58473 1.53125-1.3125 1.53125h-79.375c-.727772 0-1.3125-.68271-1.3125-1.53125v-73.5c0-.84854.584728-1.53125 1.3125-1.53125z" fill="url(#b)"/><path d="m0 28h84v60h-84z" fill="#fff"/><use height="96" transform="translate(-12)" width="96" xlink:href="#f"/><use height="96" transform="translate(-24)" width="96" xlink:href="#f"/><use height="96" transform="translate(-64)" width="96" xlink:href="#f"/><g fill-rule="evenodd"><path d="m14 7-1 1v2l3-3zm4 0-5 5v2l2-2 5-5zm4 0-9 9v2l6-6 4-4v-1zm1 3-10 10v2l9-9 1-1zm0 4-6 6-2 2h2l5-5 1-1zm0 4-1 1-1 1-2 2h2l1-1v-1h1z" fill="#ddd" stroke-width=".25" transform="matrix(4 0 0 4 -8 0)"/><path d="m44 28h4v60h-4z" fill="url(#e)"/></g></g></svg>