<svg height="24" width="24" xmlns="http://www.w3.org/2000/svg" xmlns:xlink="http://www.w3.org/1999/xlink"><linearGradient id="a"><stop offset="0" stop-color="#c7cdd7"/><stop offset="1" stop-color="#fff"/></linearGradient><linearGradient id="b" gradientTransform="matrix(.22377866 0 0 .33350232 4.624644 22.86601)" gradientUnits="userSpaceOnUse" x1="46.048" x2="46.048" xlink:href="#a" y1="128.01709" y2="16.6203"/><linearGradient id="c"><stop offset="0" stop-color="#0968ef"/><stop offset="1" stop-color="#aecffc"/></linearGradient><linearGradient id="d" gradientUnits="userSpaceOnUse" x1="121.05164" x2="121.05164" y1="-40.916946" y2="98.914055"><stop offset="0" stop-color="#fff"/><stop offset="1" stop-color="#555"/></linearGradient><linearGradient id="e"><stop offset="0" stop-color="#fff"/><stop offset="1" stop-color="#fff" stop-opacity="0"/></linearGradient><linearGradient id="f" gradientTransform="matrix(.22377866 0 0 .33350232 4.624644 69.41081)" gradientUnits="userSpaceOnUse" x1="46.048" x2="46.048" xlink:href="#a" y1="128.01709" y2="16.6203"/><linearGradient id="g" gradientTransform="matrix(.22377866 0 0 .33350232 91.896144 46.13841)" gradientUnits="userSpaceOnUse" x1="46.048" x2="46.048" xlink:href="#a" y1="128.01709" y2="16.6203"/><linearGradient id="h" gradientTransform="matrix(.90630779 .42261826 -.42261826 .90630779 -3.041036 -65.250316)" gradientUnits="userSpaceOnUse" x1="120.25623" x2="23.2724" xlink:href="#c" y1="65.292686" y2="64.0009"/><linearGradient id="i" gradientTransform="matrix(.90630779 -.42261826 .42261826 .90630779 -59.591843 66.188326)" gradientUnits="userSpaceOnUse" x1="120.25623" x2="23.2724" xlink:href="#c" y1="65.292686" y2="64.0009"/><linearGradient id="j" gradientUnits="userSpaceOnUse" x1="88.388141" x2="101.279286" xlink:href="#e" y1="51.615385" y2="113.914252"/><filter id="k" color-interpolation-filters="sRGB" height="1.024" width="1.024" x="-.012" y="-.012"><feGaussianBlur stdDeviation=".28192153"/></filter><radialGradient id="l" cx="50.424522" cy="-81.945961" gradientTransform="matrix(.30794145 .30794145 -.30794145 .30794145 50.133873 110.90745)" gradientUnits="userSpaceOnUse" r="50.15279"><stop offset="0" stop-color="#7ae91e" stop-opacity=".996078"/><stop offset="1" stop-color="#62c916"/></radialGradient><linearGradient id="m" gradientTransform="scale(1.0975951 .9110828)" gradientUnits="userSpaceOnUse" x1="26.091133" x2="31.500689" xlink:href="#e" y1="14.856744" y2="14.856744"/><filter id="n" height="1.277481" width="1.279832" x="-.139916" y="-.138741"><feGaussianBlur stdDeviation=".28784801"/></filter><linearGradient id="o" gradientUnits="userSpaceOnUse" x1="304.88663" x2="345.62039" y1="385.86127" y2="384.62384"><stop offset="0" stop-color="#765c44"/><stop offset="1" stop-color="#765c44" stop-opacity="0"/></linearGradient><linearGradient id="p" gradientUnits="userSpaceOnUse" spreadMethod="reflect" x1="31.606251" x2="34.575108" y1="13.510336" y2="13.510336"><stop offset="0" stop-color="#fff"/><stop offset="1" stop-color="#790000" stop-opacity="0"/></linearGradient><radialGradient id="q" cx="51.991096" cy="-78.028419" gradientTransform="matrix(.28232256 .33158686 -.56115095 .47778001 31.708291 122.93033)" gradientUnits="userSpaceOnUse" r="57.039597" xlink:href="#r"/><linearGradient id="r"><stop offset="0" stop-color="#011701"/><stop offset=".80671918" stop-color="#145703"/><stop offset="1" stop-color="#2fa207" stop-opacity=".384314"/></linearGradient><radialGradient id="s" cx="43.084476" cy="-121.92532" gradientTransform="matrix(.30347528 .31234377 -.3628951 .35259129 43.626055 116.16172)" gradientUnits="userSpaceOnUse" r="57.039597" xlink:href="#r"/><radialGradient id="t" cx="84.903702" cy="-130.14005" gradientTransform="matrix(.30794145 .30794145 -.30794145 .30794145 50.133874 110.90745)" gradientUnits="userSpaceOnUse" r="57.039597" xlink:href="#r"/><linearGradient id="u" gradientUnits="userSpaceOnUse" spreadMethod="reflect" x1="88.606247" x2="91.575104" y1="13.510336" y2="13.510336"><stop offset="0" stop-color="#c8ff87"/><stop offset="1" stop-color="#abff87" stop-opacity="0"/></linearGradient><g transform="matrix(.171875 0 0 .171875 1.007198 .99985)"><text x="552.36987" y="202.81038"><tspan fill="#555" x="552.36987" y="219.61037"/></text><text x="284.18808" y="202.81038"><tspan fill="#555" x="284.18808" y="219.61037"/></text><text x="-10.252362" y="133.87732"><tspan fill="#555" x="-10.252362" y="150.67731"/></text><text x="161.66467" y="-39.856026"><tspan fill="#555" x="161.66467" y="-23.056038"/></text><path d="m87.271484 49.554688v2.804687h.0098v20.458984h-.0098v.0098 2.802734h.0098v.0059h5.8125v-.0059h23.281216v.0059h5.8125v-26.082105zm5.822266 2.804687h23.28125v20.458984h-23.28125z" fill="url(#d)"/><path d="m93.0896 52.3647h23.2724v20.4543h-23.2724z" fill="url(#g)"/><g transform="translate(.0056 20.272003)"><path d="m5.8181 75.6371h23.2724v20.4543h-23.2724z" fill="url(#f)"/><path d="m0 72.828125v2.802734 17.460938 5.84375h5.8125 23.28125 5.8125.002v-2.84375h-.002v-20.460938h.002v-2.802734zm5.8125 2.802734h23.28125v20.460938h-23.28125z" fill="url(#d)"/></g><g transform="translate(0 -23.272975)"><path d="m5.8181 29.0923h23.2724v20.4543h-23.2724z" fill="url(#b)"/><path d="m0 26.28125v2.8125 17.453125 5.8125.0059h5.8125v-.0059h23.28125v.0059h5.8125v-.0059h.002v-2.8125h-.002v-20.453125h.002v-2.8125h-.002-5.8125-23.28125zm5.8125 2.8125h23.28125v20.453125h-23.28125z" fill="url(#d)"/></g><path d="m82.190143 48.315456-9.687325-20.591802-3.847728 1.400473 1.446653 10.339514-31.634006-14.761441-2.462774 5.281436 31.634006 14.761441-8.788471 5.405064 1.338496 3.980594 22.001128-5.815234z" fill="url(#h)"/><path d="m82.19013 73.896127-22.001128-5.815232-1.400447 3.847736 8.850418 5.537911-31.641867 14.744583 2.462757 5.2814 31.641868-14.744583-1.508601 10.206666 3.909679 1.53333 9.687325-20.591803z" fill="url(#i)"/><rect fill="#145603" height="34.9086" ry="1.25" width="11.6362" x="11.6362" y="46.5466"/><rect fill="#145603" height="11.6362" rx="2.740039" ry="1.856155" width="34.9086" y="58.1828"/><g transform="matrix(.5477761 0 0 .5477761 -35.160545 11.416917)"><path d="m127.39616 90.582952c.00005-1.656397-1.34274-2.99918-2.99913-2.999132h-19.88392v-19.884771c.00005-1.656396-1.34274-2.99918-2.99913-2.999132l-10.617747.000005c-1.656393-.000048-2.999178 1.342735-2.999131 2.999127v19.884771h-19.883921c-1.656396-.000048-2.99918 1.342735-2.999132 2.999132v10.617738c-.000048 1.6564 1.342736 2.99918 2.999132 2.99913h19.883921v19.88392c-.00005 1.6564 1.342736 2.99918 2.999132 2.99913h10.617746c1.65639.00005 2.99918-1.34273 2.99913-2.99913v-19.88392h19.88392c1.6564.00005 2.99918-1.34274 2.99913-2.99913z" fill="#1f5623" fill-opacity=".905882"/><path d="m127.39616 90.582952c.00005-1.656397-1.34274-2.99918-2.99913-2.999132h-19.88392v-19.884771c.00005-1.656396-1.34274-2.99918-2.99913-2.999132l-10.617747.000005c-1.656393-.000048-2.999178 1.342735-2.999131 2.999127v19.884771h-19.883921c-1.656396-.000048-2.99918 1.342735-2.999132 2.999132v10.617738c-.000048 1.6564 1.342736 2.99918 2.999132 2.99913h19.883921v19.88392c-.00005 1.6564 1.342736 2.99918 2.999132 2.99913h10.617746c1.65639.00005 2.99918-1.34273 2.99913-2.99913v-19.88392h19.88392c1.6564.00005 2.99918-1.34274 2.99913-2.99913z" fill="url(#t)"/><path d="m127.39616 90.582952c.00005-1.656397-1.34274-2.99918-2.99913-2.999132h-19.88392v-19.884771c.00005-1.656396-1.34274-2.99918-2.99913-2.999132l-10.617747.000005c-1.656393-.000048-2.999178 1.342735-2.999131 2.999127v19.884771h-19.883921c-1.656396-.000048-2.99918 1.342735-2.999132 2.999132v10.617738c-.000048 1.6564 1.342736 2.99918 2.999132 2.99913h19.883921v19.88392c-.00005 1.6564 1.342736 2.99918 2.999132 2.99913h10.617746c1.65639.00005 2.99918-1.34273 2.99913-2.99913v-19.88392h19.88392c1.6564.00005 2.99918-1.34274 2.99913-2.99913z" fill="#066704"/><path d="m127.39616 90.582952c.00005-1.656397-1.34274-2.99918-2.99913-2.999132h-19.88392v-19.884771c.00005-1.656396-1.34274-2.99918-2.99913-2.999132l-10.617747.000005c-1.656393-.000048-2.999178 1.342735-2.999131 2.999127v19.884771h-19.883921c-1.656396-.000048-2.99918 1.342735-2.999132 2.999132v10.617738c-.000048 1.6564 1.342736 2.99918 2.999132 2.99913h19.883921v19.88392c-.00005 1.6564 1.342736 2.99918 2.999132 2.99913h10.617746c1.65639.00005 2.99918-1.34273 2.99913-2.99913v-19.88392h19.88392c1.6564.00005 2.99918-1.34274 2.99913-2.99913z" fill="url(#s)"/><path d="m127.39616 90.582952c.00005-1.656397-1.34274-2.99918-2.99913-2.999132h-19.88392v-19.884771c.00005-1.656396-1.34274-2.99918-2.99913-2.999132l-10.617747.000005c-1.656393-.000048-2.999178 1.342735-2.999131 2.999127v19.884771h-19.883921c-1.656396-.000048-2.99918 1.342735-2.999132 2.999132v10.617738c-.000048 1.6564 1.342736 2.99918 2.999132 2.99913h19.883921v19.88392c-.00005 1.6564 1.342736 2.99918 2.999132 2.99913h10.617746c1.65639.00005 2.99918-1.34273 2.99913-2.99913v-19.88392h19.88392c1.6564.00005 2.99918-1.34274 2.99913-2.99913z" fill="url(#q)"/><g fill-rule="evenodd" transform="translate(-.000004 .000002)"><path d="m31.7 16 2.875-3.375c-1.051205-1.695758-3.935136-2.288018-5.9375-.3125l2.8125 3.375z" fill="url(#m)" filter="url(#n)" opacity=".498127" transform="matrix(-.64954358 .64954358 .6557809 .6557809 80.344203 61.100228)"/><path d="m31.7 16 2.875-3.375c-1.051205-1.695758-3.935136-2.288018-5.9375-.3125l2.8125 3.375z" fill="url(#m)" filter="url(#n)" opacity=".790262" transform="matrix(-.6476361 -.6476361 .64147625 -.64147625 102.80882 152.77126)"/><path d="m31.7 16 2.875-3.375c-1.051205-1.695758-3.935136-2.288018-5.9375-.3125l2.8125 3.375z" fill="url(#o)" filter="url(#n)" opacity=".498127" transform="matrix(-.58819378 .58819378 -.59384198 -.59384198 128.42011 113.04167)"/><path d="m88.7 16 2.875-3.375c-1.051205-1.695758-3.935136-2.288018-5.9375-.3125l2.8125 3.375z" fill="url(#u)" filter="url(#n)" opacity=".790262" transform="matrix(-.59384198 -.59384198 .58819378 -.58819378 112.80265 161.75846)"/><path d="m31.7 16 2.875-3.375c-1.051205-1.695758-3.935136-2.288018-5.9375-.3125l2.8125 3.375z" fill="url(#p)" filter="url(#n)" opacity=".790262" transform="matrix(-.54004786 -.54004786 -.53491131 .53491131 148.63874 100.16245)"/><path d="m88.7 16 2.875-3.375c-1.051205-1.695758-3.935136-2.288018-5.9375-.3125l2.8125 3.375z" fill="url(#u)" filter="url(#n)" opacity=".790262" transform="matrix(-.55444337 -.55444337 -.5491699 .5491699 158.16646 109.42078)"/></g><path d="m124.39703 90.582952h-22.88305v-22.883898l-10.617745-.000005-.000001 22.883903h-22.883053v10.617738h22.883053v22.88305h10.617746v-22.88305h22.88305z" fill="url(#l)"/><path d="m101.51439 67.699141-10.617969-.000005v22.884181l-22.88358-.000435v10.617968h22.882978l.000001 22.88297h10.61797v-22.88297l22.88298-.00001-.00001-10.617954h-22.88297zm-.75422.754216-.00061 22.129359c-.00004.41656.33766.754256.75422.754217h22.12876v9.109527h-22.12876c-.41656-.00004-.75426.33766-.75422.75422v22.12876h-9.109534v-22.12876c.00004-.41656-.337657-.75426-.754216-.75422h-22.128761v-9.109532l22.129363.000436c.416558.000039.754257-.337657.754216-.754216v-22.129961z" fill="#eef4ca" fill-opacity=".779412" filter="url(#k)"/><path d="m90.89648 67.699221v22.882812h-22.882813v6.925781a65.433395 38.789856 0 0 0 17.794923 1.498047 65.433395 38.789856 0 0 0 38.58789-7.521484v-.902344h-22.88281v-22.882812z" fill="url(#j)"/></g></g></svg>