<svg height="24" viewBox="0 0 24 24" width="24" xmlns="http://www.w3.org/2000/svg" xmlns:xlink="http://www.w3.org/1999/xlink"><linearGradient id="a"><stop offset="0" stop-color="#b4b4b6"/><stop offset=".5" stop-color="#9c9ca1"/><stop offset="1" stop-color="#cdcdd1"/></linearGradient><linearGradient id="b" gradientTransform="matrix(.4472136 0 0 2.236068 -91.215177 9.447918)" gradientUnits="userSpaceOnUse" x1="195.86193" x2="208.8716" xlink:href="#a" y1="-31.81947" y2="-31.81947"/><linearGradient id="c" gradientUnits="userSpaceOnUse" x1="16" x2="112" xlink:href="#a" y1="64" y2="64"/><linearGradient id="d"><stop offset="0" stop-color="#fff"/><stop offset=".46428573" stop-color="#fff"/><stop offset=".78125" stop-color="#f1f1f1"/><stop offset=".90625" stop-color="#eaeaea"/><stop offset="1" stop-color="#dfdfdf"/></linearGradient><linearGradient id="e" gradientUnits="userSpaceOnUse" x1="10.482422" x2="10.482422" xlink:href="#d" y1="52.281243" y2="-28.281245"/><linearGradient id="f" gradientUnits="userSpaceOnUse" x1="-3.62306" x2="2.170326" xlink:href="#b" y1="-45.258991" y2="-45.258991"/><linearGradient id="g" gradientTransform="translate(-16.960258 -16.960258)" gradientUnits="userSpaceOnUse" x1="-3.62306" x2="2.170326" xlink:href="#b" y1="-45.258991" y2="-45.258991"/><linearGradient id="h" gradientTransform="translate(18.39766 -18.39766)" gradientUnits="userSpaceOnUse" x1="-3.62306" x2="2.170326" xlink:href="#b" y1="-45.258991" y2="-45.258991"/><linearGradient id="i" gradientTransform="translate(1.437402 -35.357918)" gradientUnits="userSpaceOnUse" x1="-3.62306" x2="2.170326" xlink:href="#b" y1="-45.258991" y2="-45.258991"/><linearGradient id="j" gradientUnits="userSpaceOnUse" x1="59.971829" x2="59.971829" xlink:href="#d" y1="128.450739" y2="-.450739"/><linearGradient id="k" gradientUnits="userSpaceOnUse" x1="15.661946" x2="112.338055" xlink:href="#a" y1="64" y2="64"/><g stroke-width="1.157932"><path d="m9.8439272 5.8165842c-2.2244323-.000464-4.027807 1.8029107-4.027343 4.027343l.0006976 42.5206088-.0006976 65.791534c-.0004624 2.22443 1.8029118 4.02781 4.027343 4.02734l13.4278998-.00069 94.884243.00069c2.22443.00046 4.0278-1.80291 4.02734-4.02734l-.002-48.336988.002-59.9751548c.00047-2.2244312-1.80291-4.0278054-4.02734-4.027343l-94.884243.0025z" fill="url(#k)" transform="matrix(.171875 0 0 .171875 1.000155 .999845)"/><path d="m11.635464 11.637263v104.727277h104.727276v-104.727277z" fill="url(#j)" transform="matrix(.171875 0 0 .171875 1.000155 .999845)"/><g transform="matrix(.171875 0 0 .171875 9.765819 9.938339)"><path d="m16 12.001953a3.9983437 3.9983437 0 0 0 -3.998047 3.998047v96a3.9983437 3.9983437 0 0 0 3.998047 3.99805h96a3.9983437 3.9983437 0 0 0 3.99805-3.99805v-96a3.9983437 3.9983437 0 0 0 -3.99805-3.998047z" fill="url(#c)" stroke-width="1.149834" transform="matrix(.67132716 0 0 .67132716 -29.964937 -30.964938)"/><path d="m-16.090724-17.0896h58.180324v58.180324h-58.180324z" fill="url(#e)" stroke-width=".723699"/><path d="m-3.62306-61.702576h5.793387v32.887169h-5.793387z" fill="url(#f)" transform="matrix(-.70710678 .70710678 .70710678 .70710678 0 0)"/><path d="m-20.583319-78.662834h5.793387v32.887169h-5.793387z" fill="url(#g)" transform="matrix(-.70710678 -.70710678 .70710678 -.70710678 0 0)"/><path d="m14.7746-80.100235h5.793387v32.887169h-5.793387z" fill="url(#h)" transform="matrix(.70710678 .70710678 -.70710678 .70710678 0 0)"/><path d="m-2.185659-97.060493h5.793387v32.887169h-5.793387z" fill="url(#i)" transform="matrix(.70710678 -.70710678 -.70710678 -.70710678 0 0)"/></g></g></svg>