<svg height="24" viewBox="0 0 24 24" width="24" xmlns="http://www.w3.org/2000/svg" xmlns:xlink="http://www.w3.org/1999/xlink"><linearGradient id="a" gradientUnits="userSpaceOnUse" x1="57.789307" x2="63.889606" y1="-122.57781" y2=".895302"><stop offset="0" stop-color="#fff"/><stop offset=".46428573" stop-color="#fff"/><stop offset=".78125" stop-color="#f1f1f1"/><stop offset=".90625" stop-color="#eaeaea"/><stop offset="1" stop-color="#dfdfdf"/></linearGradient><linearGradient id="b" gradientUnits="userSpaceOnUse" x1="5.868782" x2="121.9984" y1="-64.06636" y2="-64.06636"><stop offset="0" stop-color="#b4b4b6"/><stop offset=".5" stop-color="#9c9ca1"/><stop offset="1" stop-color="#cdcdd1"/></linearGradient><path d="m63.878906-122.13086a5.6387422 5.6387422 0 0 0 -3.945312 1.66406l-13.69336 13.78516-19.351562-.0957a5.6387422 5.6387422 0 0 0 -5.666016 5.6582l.06641 19.429687-13.7499995 13.617187a5.6387422 5.6387422 0 0 0 -.00586 8.00586l13.7851555 13.693359-.0957 19.351563a5.6387422 5.6387422 0 0 0 5.658203 5.666015l19.429688-.06641 13.617187 13.75a5.6387422 5.6387422 0 0 0 8.00586.00586l13.693359-13.785156 19.351571.0957a5.6387422 5.6387422 0 0 0 5.66601-5.658203l-.0664-19.429687 13.75-13.617188a5.6387422 5.6387422 0 0 0 .006-8.005859l-13.78515-13.69336.0957-19.351568a5.6387422 5.6387422 0 0 0 -5.6582-5.66601l-19.429693.0664-13.617188-13.75a5.6387422 5.6387422 0 0 0 -4.060547-1.66992z" fill="url(#b)" transform="matrix(.17580496 0 0 -.17580496 .277553 .254553)"/><path d="m61.192239-7.5672874-15.628085-15.7828766-22.291754.075966.109453-22.210904-15.8163661-15.708935 15.7828761-15.628085-.07597-22.291755 22.210904.109454 15.708934-15.816367 15.628086 15.782877 22.291754-.07597-.109454 22.210904 15.816363 15.708935-15.782873 15.628085.07597 22.291755-22.210904-.109454z" fill="url(#a)" transform="matrix(.171875 0 0 -.171875 1 1)"/></svg>