<svg height="24" viewBox="0 0 24 24" width="24" xmlns="http://www.w3.org/2000/svg" xmlns:xlink="http://www.w3.org/1999/xlink"><linearGradient id="a" gradientUnits="userSpaceOnUse" x1="12" x2="12" y1="23" y2="0"><stop offset="0" stop-color="#fff"/><stop offset=".46428573" stop-color="#fff"/><stop offset=".78125" stop-color="#f1f1f1"/><stop offset=".90625" stop-color="#eaeaea"/><stop offset="1" stop-color="#dfdfdf"/></linearGradient><linearGradient id="b" gradientUnits="userSpaceOnUse" x1="1.786449" x2="22.221609" y1="11.997999" y2="11.997999"><stop offset="0" stop-color="#b4b4b6"/><stop offset=".5" stop-color="#9c9ca1"/><stop offset="1" stop-color="#cdcdd1"/></linearGradient><path d="m12 1c-2.0442027-.00007447-3.8097489 1.1955173-4.6699219 2.9140625-1.9163096-.1116937-3.8326274.8194753-4.8535156 2.5878906-1.0220568 1.7704361-.8689139 3.8978159.1894531 5.5019529-1.0549071 1.603615-1.2065727 3.727784-.1855468 5.496094 1.0220707 1.770463 2.940877 2.702284 4.859375 2.587891.8613871 1.715269 2.6262071 2.908277 4.6679682 2.908203 2.044033-.000122 3.809811-1.195648 4.669922-2.914063 1.916304.111688 3.832589-.819605 4.853516-2.58789 1.021969-1.770283.86867-3.897859-.189453-5.501953 1.054902-1.603765 1.206672-3.7278087.185547-5.4960942-1.022081-1.7702854-2.941062-2.7022456-4.859375-2.5878907-.861306-1.7154209-2.62608-2.9082775-4.667969-2.9082031zm0 8a3.0000001 3.0000001 0 0 1 3 3 3.0000001 3.0000001 0 0 1 -3 3 3.0000001 3.0000001 0 0 1 -3-3 3.0000001 3.0000001 0 0 1 3-3z" fill="url(#b)"/><path d="m12 2.0078125c-1.899021-.0000692-3.4992903 1.276759-4.0332031 3.0078125-1.7648015-.4005043-3.6686293.3471113-4.6171875 1.9902344-.9494175 1.6446083-.6443276 3.6702686.5878906 4.9980466-1.2291337 1.327988-1.532627 3.349238-.5839844 4.992188.9494382 1.644646 2.8550115 2.393382 4.6210938 1.990234.5355786 1.728349 2.1361176 3.002022 4.0332026 3.001953 1.898841-.000113 3.499316-1.276931 4.033204-3.007812 1.76475.400515 3.668588-.347226 4.617187-1.990235.949334-1.644463.644058-3.670261-.587891-4.998046 1.229146-1.32805 1.532723-3.3512074.583985-4.9941411-.949434-1.6444584-2.855131-2.3913144-4.621094-1.9882813-.535482-1.7285061-2.136004-3.0020222-4.033203-3.0019531zm0 5.9921875a4.0000001 4.0000001 0 0 1 4 4 4.0000001 4.0000001 0 0 1 -4 4 4.0000001 4.0000001 0 0 1 -4-4 4.0000001 4.0000001 0 0 1 4-4z" fill="url(#a)"/></svg>