<svg height="24" width="24" xmlns="http://www.w3.org/2000/svg" xmlns:xlink="http://www.w3.org/1999/xlink"><linearGradient id="a" gradientTransform="matrix(.27849619 0 0 .24935206 -.593986 1.835381)" gradientUnits="userSpaceOnUse" spreadMethod="pad" x1="27.267826" x2="27.267826" y1="76.857674" y2="4.67058"><stop offset="0" stop-color="#c8c8c8"/><stop offset="1" stop-color="#e4e4e4"/></linearGradient><radialGradient id="b" cx="64.00029" cy="60.099979" gradientTransform="matrix(.25399096 .02309182 -.03125235 .34375002 -2.37723 -10.137253)" gradientUnits="userSpaceOnUse" r="32"><stop offset="0"/><stop offset="1" stop-color="#7c7c7c"/></radialGradient><radialGradient id="c" cx="64" cy="44.202766" gradientTransform="matrix(.42181024 .0000038 -.00000267 .29637863 -14.995812 -4.802397)" gradientUnits="userSpaceOnUse" r="28" spreadMethod="reflect"><stop offset="0" stop-color="#fff"/><stop offset="1" stop-color="#fff" stop-opacity="0"/></radialGradient><g fill="none" stroke-linecap="round" stroke-linejoin="round"><path d="m15.499925 9.372727v8.325568c0 3.761365-7 3.761365-7 0v-11.9607953c0-3.009091 4.968582-3.009091 4.968582 0v6.1403413c-1.656419 2.256818-1.281419 2.256818-2.937837 0v-1.316478" opacity=".6" stroke="url(#b)" stroke-width="3"/><path d="m15.499925 9.372727v8.325568c0 3.761365-7 3.761365-7 0v-11.9607953c0-3.009091 5.031082-3.009091 5.031082 0v6.0778413c-1.656419 2.256818-1.343919 2.256818-3.000337 0v-1.316478" stroke="url(#a)"/><path d="m15.499925 9.372727v8.325568c0 3.761365-7 3.761365-7 0v-11.9607953c0-3.009091 5.031082-3.009091 5.031082 0v6.0153413c-1.656419 2.256818-1.343919 2.256818-3.000337 0v-1.128978" stroke="url(#c)"/></g></svg>