<svg height="24" viewBox="0 0 6.3499999 6.3500002" width="24" xmlns="http://www.w3.org/2000/svg" xmlns:xlink="http://www.w3.org/1999/xlink"><linearGradient id="a"><stop offset="0" stop-color="#fff"/><stop offset="1" stop-color="#ddd"/></linearGradient><radialGradient id="b" cx="-36.127712" cy="14.53337" gradientTransform="matrix(.16901829 0 0 .18880256 5.015121 287.20743)" gradientUnits="userSpaceOnUse" r="47.974007"><stop offset="0" stop-color="#c15520"/><stop offset=".65957445" stop-color="#a84710"/><stop offset="1" stop-color="#a74810"/></radialGradient><linearGradient id="c" gradientTransform="matrix(.34551371 -.00015556 .00117036 .32888605 .201176 291.80578)" gradientUnits="userSpaceOnUse" x1="8.904203" x2="8.904203" xlink:href="#a" y1="5" y2="9.420999"/><linearGradient id="d" gradientTransform="matrix(.34551371 -.00015556 .00117036 .32888605 .201176 291.80578)" gradientUnits="userSpaceOnUse" x1="11.322603" x2="11.322603" y1="4.809438" y2="10.569438"><stop offset="0"/><stop offset="1" stop-opacity="0"/></linearGradient><linearGradient id="e" gradientTransform="matrix(.33098991 0 0 .26661382 -.712016 292.47629)" gradientUnits="userSpaceOnUse" x1="8" x2="8" xlink:href="#a" y1="15.8312" y2="14"/><g transform="translate(.526846 -290.652275)"><rect fill="url(#b)" height="5.57444" rx=".245533" transform="matrix(.99999342 -.00362713 .00476634 .99998864 0 0)" width="5.000547" x="-1.12097" y="291.18069"/><path d="m2.7897275 294.53932.0001114.0313-.439631.0002-.0001114-.0313c.045474-.001.076902-.005.094282-.0129.017376-.008.026028-.0224.025954-.0433-.0000962-.0267-.011175-.0633-.033237-.10981l-.071304-.1571-.451422.0002-.079328.19164c-.0089.023-.013318.0444-.013247.0641.0000815.023.00941.0401.027975.0513.018566.0107.048343.016.089331.016l.0001113.0313-.3410933.00016-.0001113-.0313c.022455-.001.040131-.004.053028-.009.013458-.005.028293-.0171.044506-.0369.01621-.0203.032399-.0468.048565-.0794.016728-.0326.039016-.0807.066863-.14433l.3559122-.80584.034531-.00002.4328425.93216c.029974.0609.053692.0994.071156.11541.017463.016.045567.0251.084317.0272m-.8469628-.39003.3983631-.00018-.2012117-.45205zm1.1008095-.69715.0018.50265c.017264-.0401.048306-.0732.093131-.0994.045384-.0267.094184-.0401.1464014-.0401.086466-.00004.1587363.0341.2168118.10252.058072.0679.087288.15228.087649.25329.0004233.11758-.037974.2162-.1151718.29587-.077201.0797-.1727886.11952-.2867663.11957-.069062.00004-.1339504-.0109-.1946667-.0328-.060158-.0224-.090282-.0464-.090373-.0721l-.00303-.85218c-.0001217-.0342-.00554-.0566-.016243-.0673-.010705-.0107-.033465-.016-.068276-.016-.012914 0-.022738.00054-.029471.002l-.0000939-.0265.050487-.0129c.080774-.022.147237-.0417.1993908-.0594l.00843.003m.00209.59003.00148.41366c.0000715.0203.016981.0385.050727.0545.033745.016.072795.024.1171517.024.070745-.00003.1256795-.0252.1648037-.0754.039124-.0503.058525-.12081.058202-.21167-.0003704-.10047-.020574-.18036-.060649-.23967-.040076-.0593-.093802-.0889-.1611775-.0889-.044357.00002-.083896.0126-.1186176.0377-.034722.0251-.052026.0537-.051911.0858m.6423959.17849c-.0002182-.0615.010247-.11812.031399-.16997.021151-.0519.049354-.0946.084607-.12831.035253-.0337.075305-.0599.1201558-.0786.045411-.0193.092259-.0289.1405453-.0289.07243-.00003.1348121.0168.1871493.0504.052334.0331.078583.0727.078747.11861.0000656.0187-.00802.035-.024249.0489-.016235.0134-.035583.0201-.058041.0201-.017968.00001-.034275-.007-.048919-.02-.01465-.0139-.025381-.0323-.032201-.0553l-.011078-.0361c-.00853-.0305-.020116-.0513-.034753-.0625-.014079-.0112-.036556-.0168-.067438-.0168-.069621.00003-.1259547.0268-.1689974.0802-.043045.0529-.064417.12162-.064116.20606.000344.0941.025313.17102.074936.23085.050182.0593.1145749.0889.1931818.0889.049409-.00002.092041-.0113.1278956-.0337.035851-.023.074169-.0631.1149538-.1203l.024474.0144c-.00837.015-.015063.027-.020085.0361-.00446.009-.013393.0238-.026795.0441-.013404.0198-.025979.0364-.037722.0497-.011745.0134-.02741.0289-.046997.0465-.019029.0176-.038348.0318-.057962.0425s-.042601.0198-.068964.0273c-.025802.007-.052738.0113-.080811.0113-.095451.00004-.1741779-.0341-.236183-.10251-.061444-.0684-.092355-.15602-.092736-.26291" style="opacity:.15873;stroke-width:.529167;stroke-linecap:round;stroke-linejoin:round;fill:url(#c);stroke:url(#d)"/><rect height="5.30888" rx=".110067" style="opacity:.322751;fill:none;stroke:#000;stroke-width:.264583;stroke-linecap:round;stroke-linejoin:round" transform="matrix(.99999345 -.00362014 .00477393 .9999886 0 0)" width="4.737187" x="-.991521" y="291.31348"/><path d="m2.7897275 294.53932.0001114.0313-.439631.0002-.0001114-.0313c.045474-.001.076902-.005.094282-.0129.017376-.008.026028-.0224.025954-.0433-.0000962-.0267-.011175-.0633-.033237-.10981l-.071304-.1571-.451422.0002-.079328.19164c-.0089.023-.013318.0444-.013247.0641.0000815.023.00941.0401.027975.0513.018566.0107.048343.016.089331.016l.0001113.0313-.3410933.00016-.0001113-.0313c.022455-.001.040131-.004.053028-.009.013458-.005.028293-.0171.044506-.0369.01621-.0203.032399-.0468.048565-.0794.016728-.0326.039016-.0807.066863-.14433l.3559122-.80584.034531-.00002.4328425.93216c.029974.0609.053692.0994.071156.11541.017463.016.045567.0251.084317.0272m-.8469628-.39003.3983631-.00018-.2012117-.45205zm1.1008095-.69715.0018.50265c.017264-.0401.048306-.0732.093131-.0994.045384-.0267.094184-.0401.1464014-.0401.086466-.00004.1587363.0341.2168118.10252.058072.0679.087288.15228.087649.25329.0004233.11758-.037974.2162-.1151718.29587-.077201.0797-.1727886.11952-.2867663.11957-.069062.00004-.1339504-.0109-.1946667-.0328-.060158-.0224-.090282-.0464-.090373-.0721l-.00303-.85218c-.0001217-.0342-.00554-.0566-.016243-.0673-.010705-.0107-.033465-.016-.068276-.016-.012914 0-.022738.00054-.029471.002l-.0000939-.0265.050487-.0129c.080774-.022.147237-.0417.1993908-.0594l.00843.003m.00209.59003.00148.41366c.0000715.0203.016981.0385.050727.0545.033745.016.072795.024.1171517.024.070745-.00003.1256795-.0252.1648037-.0754.039124-.0503.058525-.12081.058202-.21167-.0003704-.10047-.020574-.18036-.060649-.23967-.040076-.0593-.093802-.0889-.1611775-.0889-.044357.00002-.083896.0126-.1186176.0377-.034722.0251-.052026.0537-.051911.0858m.6423959.17849c-.0002182-.0615.010247-.11812.031399-.16997.021151-.0519.049354-.0946.084607-.12831.035253-.0337.075305-.0599.1201558-.0786.045411-.0193.092259-.0289.1405453-.0289.07243-.00003.1348121.0168.1871493.0504.052334.0331.078583.0727.078747.11861.0000656.0187-.00802.035-.024249.0489-.016235.0134-.035583.0201-.058041.0201-.017968.00001-.034275-.007-.048919-.02-.01465-.0139-.025381-.0323-.032201-.0553l-.011078-.0361c-.00853-.0305-.020116-.0513-.034753-.0625-.014079-.0112-.036556-.0168-.067438-.0168-.069621.00003-.1259547.0268-.1689974.0802-.043045.0529-.064417.12162-.064116.20606.000344.0941.025313.17102.074936.23085.050182.0593.1145749.0889.1931818.0889.049409-.00002.092041-.0113.1278956-.0337.035851-.023.074169-.0631.1149538-.1203l.024474.0144c-.00837.015-.015063.027-.020085.0361-.00446.009-.013393.0238-.026795.0441-.013404.0198-.025979.0364-.037722.0497-.011745.0134-.02741.0289-.046997.0465-.019029.0176-.038348.0318-.057962.0425s-.042601.0198-.068964.0273c-.025802.007-.052738.0113-.080811.0113-.095451.00004-.1741779-.0341-.236183-.10251-.061444-.0684-.092355-.15602-.092736-.26291" fill="#fff" opacity=".772487" stroke="#fff" stroke-width=".052917"/><rect fill="url(#e)" height=".284698" opacity=".68254" rx=".13229" ry=".132289" transform="matrix(.99999001 -.00447026 .00196322 .99999807 0 0)" width="4.497403" x="-.050037" y="296.20886"/><rect fill="#591300" height=".254535" opacity=".68254" rx=".132278" ry=".006172" transform="matrix(.0021128 -.99999777 .99996489 -.00837987 0 0)" width="4.760388" x="-296.21887" y="1.157379"/><rect fill="#fff" height=".108994" opacity=".291005" rx=".132278" ry=".054497" transform="matrix(.004898 -.999988 .99982091 -.01892486 0 0)" width="4.760489" x="-296.25461" y="2.247528"/><rect fill="#fff" height=".230183" opacity=".095238" rx=".132166" ry=".132045" transform="matrix(.99989624 -.01440514 .00798551 .99996812 0 0)" width="2.646101" x="-.751662" y="292.80139"/><rect fill="#7a1818" height=".230194" opacity=".269841" rx=".132049" ry=".132041" transform="matrix(.99989916 -.01420088 .00810039 .99996719 0 0)" width="2.684287" x="-.78317" y="292.5368"/></g></svg>