<svg height="24" width="24" xmlns="http://www.w3.org/2000/svg" xmlns:xlink="http://www.w3.org/1999/xlink"><linearGradient id="a"><stop offset="0" stop-color="#fd0000"/><stop offset="1" stop-color="#8f0000"/></linearGradient><linearGradient id="b"><stop offset="0" stop-color="#fff"/><stop offset="1" stop-color="#fff" stop-opacity="0"/></linearGradient><linearGradient id="c" gradientUnits="userSpaceOnUse" x1="43.750008" x2="46.499989" xlink:href="#a" y1="8.099999" y2="32.849998"/><radialGradient id="d" cx="72.631729" cy="22.787588" gradientTransform="matrix(5.297908 0 0 5.2979189 -342.76495 -92.361166)" gradientUnits="userSpaceOnUse" r="1.265237" xlink:href="#a"/><linearGradient id="e" gradientUnits="userSpaceOnUse" x1="39.579626" x2="42.679225" xlink:href="#b" y1="17.2977" y2="28.865563"/><linearGradient id="f" gradientUnits="userSpaceOnUse" x1="31.750008" x2="34.499989" xlink:href="#a" y1="48.000014" y2="72.750013"/><radialGradient id="g" cx="72.631729" cy="22.787588" gradientTransform="matrix(5.6861997 0 0 5.6862116 -382.96828 -61.145643)" gradientUnits="userSpaceOnUse" r="1.265237" xlink:href="#a"/><linearGradient id="h" gradientUnits="userSpaceOnUse" x1="27.398917" x2="30.725691" xlink:href="#b" y1="56.550288" y2="68.965978"/><linearGradient id="i" gradientUnits="userSpaceOnUse" x1="55.750008" x2="58.499989" xlink:href="#a" y1="48.000014" y2="72.750013"/><radialGradient id="j" cx="72.631729" cy="22.787588" gradientTransform="matrix(5.297908 0 0 5.2979189 -330.76495 -52.461151)" gradientUnits="userSpaceOnUse" r="1.265237" xlink:href="#a"/><linearGradient id="k" gradientUnits="userSpaceOnUse" x1="51.579626" x2="54.679225" xlink:href="#b" y1="57.197715" y2="68.765578"/><filter id="l" color-interpolation-filters="sRGB" height="1.123846" width="1.171988" x="-.085994" y="-.061923"><feGaussianBlur stdDeviation="1.7347784"/></filter><g transform="scale(.25)"><path d="m88 8a80.004913 80.004913 0 0 0 -57.144531 23.115234 80.004913 80.004913 0 0 0 -23.746094 56.884766h4.042969a76.004662 76.004662 0 0 1 22.560547-54.041016 76.004662 76.004662 0 0 1 54.242187-21.957031z" fill="#4d4d4d" fill-opacity=".992157"/><g transform="matrix(2.0731913 0 0 2.0731913 -30.723663 -104.39058)"><rect fill="url(#f)" height="12" rx="1.546875" width="12" x="24" y="60"/><g stroke-width="1.073292"><rect fill="url(#g)" height="9.592542" rx=".899301" width="9.592547" x="25.233967" y="61.234982"/><path d="m26.16323 61.234996c-.498215 0-.899302.401088-.899302.899301v4.533974c.728895.06928 1.479218.112413 2.248251.112413 2.767774 0 5.314242-.466751 7.34429-1.255274v-3.391113c0-.498213-.401088-.899301-.899302-.899301z" fill="url(#h)"/></g></g><g transform="translate(-36 63.900017)"><rect fill="url(#c)" height="12" rx="1.546875" width="12" x="36" y="20.099985"/><rect fill="url(#d)" height="8.937499" rx=".837891" width="8.937503" x="37.562511" y="21.662485"/><path d="m38.428317 21.662501c-.464192 0-.837891.3737-.837891.837891v4.224364c.679121.06455 1.378207.104736 2.094726.104736 2.578772 0 4.95135-.434878 6.842772-1.169555v-3.159545c0-.464191-.373698-.837891-.837891-.837891z" fill="url(#e)"/></g><g transform="translate(36 -56)"><rect fill="url(#i)" height="12" rx="1.546875" width="12" x="48" y="60"/><rect fill="url(#j)" height="8.937499" rx=".837891" width="8.937503" x="49.562511" y="61.5625"/><path d="m50.428317 61.562516c-.464192 0-.837891.3737-.837891.837891v4.224364c.679121.06455 1.378207.104736 2.094726.104736 2.578772 0 4.95135-.434878 6.842772-1.169555v-3.159545c0-.464191-.373698-.837891-.837891-.837891z" fill="url(#k)"/></g><g fill-rule="evenodd"><path d="m51.202156 43.382184c-1.986284.0172-3.952729.863732-5.328126 2.296875s-2.142586 3.432658-2.078125 5.417968l20.994141 53.910213h.002c.455233.90897 1.098397 1.7252 1.876954 2.3789 5.590446 3.32606 16.578381 1.5129 17.35126.36202 4.67443-3.34163 12.951555-13.849354 10.522655-19.434774-.16002-.36796-.34944-.72301-.5664-1.06055l-.002-.002-37.942281-42.153808c-1.34368-1.111954-3.086036-1.730106-4.830078-1.714844z" fill="#333" fill-opacity=".772059" filter="url(#l)" transform="matrix(.96362925 -.15114707 .15114707 .96362925 -19.560931 -6.427799)"/><path d="m35.647677 28.109718c-2.843117.471203-4.740803 3.190683-4.202073 6.021781l28.522734 48.78169c.406898.570093.926195 1.05086 1.52591 1.412673 5.30511 1.291823 13.616621-2.165006 14.919779-2.988063 3.201685-3.143477 9.428355-12.504808 6.758024-16.709857-.148096-.233195-.314778-.45405-.498424-.660413l-43.566949-35.208001c-1.040347-.617588-2.265449-.847738-3.459001-.64981z" fill="#fff"/><path d="m63.84976 78.850311-26.362577-44.570673 40.186569 31.444838c3.06427 4.825378-8.878625 16.113426-13.823992 13.125835z"/></g></g></svg>