<svg height="16" viewBox="0 0 4.2333333 4.2333335" width="16" xmlns="http://www.w3.org/2000/svg" xmlns:xlink="http://www.w3.org/1999/xlink"><linearGradient id="a" gradientUnits="userSpaceOnUse" x1="11.773879" x2="23.672378" y1="-5.474802" y2="19.351187"><stop offset="0" stop-color="#3b3e22"/><stop offset="1" stop-color="#454545" stop-opacity="0"/></linearGradient><linearGradient id="b" gradientUnits="userSpaceOnUse" x1="18.981823" x2="20.202982" y1="31.58723" y2="3.50059"><stop offset="0" stop-color="#555"/><stop offset="1"/></linearGradient><g transform="matrix(.125 0 0 .125 -.026713 -.034727)"><path d="m28.788702 32.027816h-23.4218108l14.2590968-14.880778-14.1206183-14.7525543h22.8234443l.512886 8.3184643h-.683848c-.199456-1.8235962-1.011526-3.319515-2.43621-4.4877562-1.424685-1.1682412-3.077319-1.7523618-4.957902-1.7523618h-7.009447c-.911798 0-1.127573-.04514-1.127573.4677462 0 .1139747.327677.5271332.983032 1.2394754.655354.6838485 1.481671 1.5386591 2.478951 2.5644319 1.025772.9972788 1.782927 1.5285045 2.751713 2.4972895.968785.940292 1.89483 1.852091 2.778135 2.735395.911798.85481 1.46942 2.058616 1.640382 2.229579l-11.523703 11.595284h13.035862c.99728 0 1.780856-.356171 2.35073-1.068514.598368-.712342.897551-1.059794.897551-2.057073v-.299183h.769329z" fill="url(#b)" stroke-width="1.015378"/><path d="m28.167128 12.093728 48.160997 50.556663c1.188033 1.188223 1.188033 3.114511 0 4.302734l-7.126953 7.126953c.578087-.0654 1.154938-.13376 1.730469-.205078l12.617187-12.568359c-1.044983-.995169-1.736301-4.208072-3.922716-6.257835-.02254-.02438-.04468-.04912-.06641-.07422-3.326721-3.326724-6.815097-6.752584-10.466793-10.296874-.01052-.01229-.02093-.02466-.03125-.03711-3.650839-3.650837-6.504455-5.641896-10.371743-9.401759-.02248-.02179-.04462-.04393-.06641-.06641-3.772932-3.880731-6.896799-7.116918-9.38086-9.708984-.0125-.01421-.02487-.02853-.03711-.04297-1.265499-1.375543-2.234658-2.471722-2.939453-3.359375-.352399-.443827-.633518-.832125-.892578-1.248047s-.69336-.569129-.69336-2.140625c0-1.873548.324766-2.785495 1.942056-3.694141.0534-.03.1221-.0086.175781-.03711zm56.74414 2.847458c5.164332 1.017107 10.0592 2.808428 14.232422 6.230469 2.51616 2.063252 4.3634 4.566122 5.99414 7.181641l-.9082-13.41211z" fill="url(#a)" stroke-width="3.837649" transform="scale(.26458334)"/></g></svg>