<svg height="16" viewBox="0 0 16 16" width="16" xmlns="http://www.w3.org/2000/svg" xmlns:xlink="http://www.w3.org/1999/xlink"><linearGradient id="a" gradientUnits="userSpaceOnUse" x1=".060704" x2="16" y1="7.99708" y2="7.99708"><stop offset="0" stop-color="#b4b4b6"/><stop offset=".5" stop-color="#9c9ca1"/><stop offset="1" stop-color="#cdcdd1"/></linearGradient><linearGradient id="b" gradientUnits="userSpaceOnUse" x1="8" x2="8" y1="16" y2="1"><stop offset="0" stop-color="#fff"/><stop offset=".397158" stop-color="#fff"/><stop offset=".799705" stop-color="#f1f1f1"/><stop offset=".902344" stop-color="#eaeaea"/><stop offset="1" stop-color="#dfdfdf"/></linearGradient><path d="m6.957031 1-6.789062 6.789062c-.1406252.140626-.1445315.359376-.007813.496094l6.710938 6.710938c.488281.492187 1.128906.5 1.128906.003906v-4h7.644531c.199219 0 .355469-.15625.355469-.347656v-5.304688c0-.191406-.15625-.347656-.355469-.347656h-7.644531v-4c0-.5-.542969-.5-1.042969 0zm0 0" fill="url(#a)"/><path d="m6.578125 2.722656-5.144531 5.144532c-.074219.074218-.074219.191406-.003906.261718l5.074218 5.074219c.1875.1875.5 0 .496094-.203125v-3h7.8125c.105469 0 .1875-.078125.1875-.179688v-3.640624c0-.101563-.082031-.179688-.1875-.179688h-7.8125v-3.125c0-.1875-.261719-.3125-.421875-.152344zm0 0" fill="url(#b)" fill-rule="evenodd"/></svg>