<svg height="16" viewBox="0 0 16 16" width="16" xmlns="http://www.w3.org/2000/svg" xmlns:xlink="http://www.w3.org/1999/xlink"><linearGradient id="a"><stop offset="0" stop-color="#b4b4b6"/><stop offset=".5" stop-color="#9c9ca1"/><stop offset="1" stop-color="#cdcdd1"/></linearGradient><linearGradient id="b" gradientTransform="matrix(0 .125 -.125 0 15.999831 3.000489)" gradientUnits="userSpaceOnUse" x1="32.002338" x2="95.997658" xlink:href="#a" y1="63.999783" y2="63.999783"/><linearGradient id="c"><stop offset="0" stop-color="#fff"/><stop offset=".397158" stop-color="#fff"/><stop offset=".799705" stop-color="#f1f1f1"/><stop offset=".902344" stop-color="#eaeaea"/><stop offset="1" stop-color="#dfdfdf"/></linearGradient><linearGradient id="d" gradientTransform="matrix(0 .125 -.125 0 15.999831 3.000489)" gradientUnits="userSpaceOnUse" x1="128.00134" x2=".001346" xlink:href="#c" y1="63.99865" y2="63.99865"/><linearGradient id="e" gradientUnits="userSpaceOnUse" x1=".000292" x2="7.999707" xlink:href="#a" y1="6.999973" y2="6.999973"/><linearGradient id="f" gradientUnits="userSpaceOnUse" x1="12.000168" x2="-3.999832" xlink:href="#c" y1="6.999831" y2="6.999831"/><path d="m16 10.984375c-.003906-.257813-.109375-.507813-.292969-.691406l-3-3c-.285156-.285157-.714843-.371094-1.089843-.214844-.375.152344-.617188.519531-.617188.921875v1h-2v-2c0-.550781-.449219-1-1-1h-7c-.550781 0-1 .449219-1 1v4.007812.011719 3.980469c0 .550781.449219 1 1 1h7c.550781 0 1-.449219 1-1v-2h2v1c0 .40625.242188.769531.617188.925781.375.152344.804687.066407 1.089843-.21875l3-3c.191407-.191406.296875-.449219.292969-.722656zm0 0" fill="url(#b)"/><path d="m15 11-3-3v2h-4v-3h-7v8h7v-3h4v2zm0 0" fill="url(#d)"/><path d="m3.984375-1c-.257813.003906-.507813.109375-.691406.292969l-3 3c-.628907.628906-.183594 1.707031.707031 1.707031h1v2h4v-2h1c.890625 0 1.335938-1.078125.707031-1.707031l-3-3c-.191406-.191407-.453125-.296875-.722656-.292969zm0 0" fill="url(#e)"/><path d="m4 0-3 3h2v4h2v-4h2zm0 0" fill="url(#f)"/></svg>