<svg height="16" width="16" xmlns="http://www.w3.org/2000/svg" xmlns:xlink="http://www.w3.org/1999/xlink"><linearGradient id="a" gradientTransform="matrix(.9230769 0 0 .8181818 -115.38462 6.90909)" gradientUnits="userSpaceOnUse" x1="36.57159" x2="69.666092" y1="2.245406" y2="122.72039"><stop offset="0" stop-color="#bbb"/><stop offset="1" stop-color="#888"/></linearGradient><linearGradient id="b" gradientUnits="userSpaceOnUse" x1="-42.336163" x2="-41.901527" y1="-54.937099" y2="103.375214"><stop offset="0" stop-color="#e5f0ff"/><stop offset="1" stop-color="#fff"/></linearGradient><g transform="matrix(.125 0 0 .125 .000005 0)"><path d="m-108 20h96.000038v80h-96.000038z" fill="url(#b)" stroke="url(#a)" stroke-linecap="round" stroke-width="8" transform="scale(-1 1)"/><g fill="#2c72c7"><path d="m56 8h8v8h-8z"/><path d="m55.999962 104h8v8h-8z"/><path d="m-.000037 8h8v8h-8z"/><path d="m-.000073 104h8v8h-8z"/><path d="m112 8h8v8h-8z"/><path d="m111.99996 104h8v8h-8z"/><path d="m0 56h8v8h-8z"/><path d="m112 56h8v8h-8z"/></g><path d="m46.820301 88 .02016-6.97053 8.664409-.920396.332418-40.790848h-2.074575c-3.552558.000042-6.535606.06822-8.949152.204532-2.413567.136397-4.12204.295477-5.125424.477242l-1.098305 7.124546-6.732385-.208696.142553-14.91585h56l-.142553 14.91585-6.759143.208696-1.098304-7.124546c-.488182-.09086-1.220384-.170401-2.196611-.238622-.949195-.06814-2.061058-.124949-3.335593-.170443-1.274615-.06814-2.671223-.113586-4.18983-.136355-1.491559-.04541-3.023762-.06814-4.59661-.06818h-1.99322l-.332418 40.722674 8.664406.920396-.02016 6.97053h-25.17966"/></g></svg>