<svg height="16" viewBox="0 0 4.2333333 4.2333335" width="16" xmlns="http://www.w3.org/2000/svg" xmlns:xlink="http://www.w3.org/1999/xlink"><linearGradient id="a" gradientUnits="userSpaceOnUse" x1="64" x2="64" y1="131.54474" y2="-3.544517"><stop offset="0" stop-color="#b4b4b6"/><stop offset=".5" stop-color="#9c9ca1"/><stop offset="1" stop-color="#cdcdd1"/></linearGradient><linearGradient id="b" gradientUnits="userSpaceOnUse" x1="63.999996" x2="63.999996" y1="121.89668" y2="6.103257"><stop offset="0" stop-color="#fff"/><stop offset=".50643778" stop-color="#fff"/><stop offset=".82296139" stop-color="#f1f1f1"/><stop offset=".90625" stop-color="#eaeaea"/><stop offset="1" stop-color="#dfdfdf"/></linearGradient><path d="m64 8.0078125a55.991227 55.991227 0 0 0 -55.9921875 55.9921875 55.991227 55.991227 0 0 0 55.9921875 55.99219 55.991227 55.991227 0 0 0 55.99219-55.99219 55.991227 55.991227 0 0 0 -.63281-8h-47.35938v-47.3476562a55.991227 55.991227 0 0 0 -8-.6445313z" fill="url(#a)" transform="scale(.03307292)"/><path d="m64 16.005859a47.993573 47.993573 0 0 0 -47.994141 47.994141 47.993573 47.993573 0 0 0 47.994141 47.99414 47.993573 47.993573 0 0 0 47.99414-47.99414h-47.99414z" fill="url(#b)" transform="scale(.03307292)"/></svg>