<svg height="16" viewBox="0 0 16 16" width="16" xmlns="http://www.w3.org/2000/svg" xmlns:xlink="http://www.w3.org/1999/xlink"><linearGradient id="a" gradientUnits="userSpaceOnUse" x1="59.971828" x2="59.971828" y1="128.45074" y2="-.450739"><stop offset="0" stop-color="#fff"/><stop offset=".46428573" stop-color="#fff"/><stop offset=".78125" stop-color="#f1f1f1"/><stop offset=".90625" stop-color="#eaeaea"/><stop offset="1" stop-color="#dfdfdf"/></linearGradient><linearGradient id="b" gradientUnits="userSpaceOnUse" x1="8.002914" x2="119.99709" y1="64" y2="64"><stop offset="0" stop-color="#b4b4b6"/><stop offset=".5" stop-color="#9c9ca1"/><stop offset="1" stop-color="#cdcdd1"/></linearGradient><g stroke-width="1.157932" transform="scale(.125)"><path d="m16 8.0019531a7.9974177 7.9974177 0 0 0 -7.9980469 7.9980469v96a7.9974177 7.9974177 0 0 0 7.9980469 7.99805h96a7.9974177 7.9974177 0 0 0 7.99805-7.99805v-96a7.9974177 7.9974177 0 0 0 -7.99805-7.9980469zm37.126953 39.9980469h21.746094c2.840096 0 5.126953 2.522352 5.126953 5.65625v20.6875c0 3.133898-2.286857 5.65625-5.126953 5.65625h-21.746094c-2.840096 0-5.126953-2.522352-5.126953-5.65625v-20.6875c0-3.133898 2.286857-5.65625 5.126953-5.65625z" fill="url(#b)"/><path d="m16 16v96h96v-96zm24 24h48v48h-48z" fill="url(#a)"/></g></svg>