<svg height="16" viewBox="0 0 4.2333333 4.2333335" width="16" xmlns="http://www.w3.org/2000/svg" xmlns:xlink="http://www.w3.org/1999/xlink"><linearGradient id="a" gradientUnits="userSpaceOnUse" x1="16.933332" x2="16.933332" y1="295.38516" y2="264.74814"><stop offset="0" stop-color="#fff"/><stop offset=".50643778" stop-color="#fff"/><stop offset=".82296139" stop-color="#f1f1f1"/><stop offset=".90625" stop-color="#eaeaea"/><stop offset="1" stop-color="#dfdfdf"/></linearGradient><linearGradient id="b" gradientUnits="userSpaceOnUse" x1="16.933332" x2="16.933332" y1="295.38516" y2="264.74814"><stop offset="0" stop-color="#b4b4b6"/><stop offset=".5" stop-color="#9c9ca1"/><stop offset="1" stop-color="#cdcdd1"/></linearGradient><g transform="matrix(.125 0 0 .125 0 -32.891665)"><path d="m16.933594 267.36719c-4.274764.00005-8.5378194 1.23023-11.7070315 3.49414-3.1692121 2.2639-5.22491852 5.6588-5.22460937 9.20508-.00030446 3.54627 2.05539787 6.94117 5.22460937 9.20507s7.4322705 3.49409 11.7070315 3.49414c4.274761-.00005 8.53782-1.23024 11.707031-3.49414s5.224914-5.6588 5.224609-9.20507c.00031-3.54628-2.055397-6.94118-5.224609-9.20508-3.169212-2.26391-7.432268-3.49409-11.707031-3.49414z" fill="url(#b)"/><ellipse cx="16.933334" cy="280.06665" fill="url(#a)" rx="14.816668" ry="10.583331"/></g></svg>