<svg height="16" viewBox="0 0 16 16" width="16" xmlns="http://www.w3.org/2000/svg" xmlns:xlink="http://www.w3.org/1999/xlink"><filter id="a" height="100%" width="100%" x="0%" y="0%"><feColorMatrix in="SourceGraphic" type="matrix" values="0 0 0 0 1 0 0 0 0 1 0 0 0 0 1 0 0 0 1 0"/></filter><mask id="b"><g filter="url(#a)"><path d="m0 0h16v16h-16z" fill-opacity=".501961"/></g></mask><clipPath id="c"><path d="m0 0h16v16h-16z"/></clipPath><linearGradient id="d"><stop offset="0" stop-color="#fd0000"/><stop offset="1" stop-color="#8f0000"/></linearGradient><linearGradient id="e" gradientUnits="userSpaceOnUse" x1="3.500003" x2="4" xlink:href="#d" y1="-.500001" y2="4"/><radialGradient id="f" cx="72.631729" cy="22.787588" gradientTransform="matrix(1.185546 0 0 1.185549 -82.608261 -24.015791)" gradientUnits="userSpaceOnUse" r="1.265237" xlink:href="#d"/><linearGradient id="g"><stop offset="0" stop-color="#fff"/><stop offset="1" stop-color="#fff" stop-opacity="0"/></linearGradient><linearGradient id="h" gradientUnits="userSpaceOnUse" x1="2.951386" x2="3.645003" xlink:href="#g" y1=".523261" y2="3.111875"/><linearGradient id="i" gradientUnits="userSpaceOnUse" x1="13.499998" x2="13.999995" xlink:href="#d" y1="4.499999" y2="9"/><radialGradient id="j" cx="72.631729" cy="22.787588" gradientTransform="matrix(1.185546 0 0 1.185549 -72.608265 -19.015791)" gradientUnits="userSpaceOnUse" r="1.265237" xlink:href="#d"/><linearGradient id="k" gradientUnits="userSpaceOnUse" x1="12.951381" x2="13.644998" xlink:href="#g" y1="5.523261" y2="8.111875"/><mask id="l"><g filter="url(#a)"><path d="m0 0h16v16h-16z" fill-opacity=".501961"/></g></mask><linearGradient id="m" gradientUnits="userSpaceOnUse" x1="3.5" x2="3.999997" xlink:href="#d" y1="10.499999" y2="15"/><radialGradient id="n" cx="72.631729" cy="22.787588" gradientTransform="matrix(1.185546 0 0 1.185549 -82.608263 -13.015791)" gradientUnits="userSpaceOnUse" r="1.265237" xlink:href="#d"/><linearGradient id="o" gradientUnits="userSpaceOnUse" x1="2.951383" x2="3.645" xlink:href="#g" y1="11.523261" y2="14.111875"/><clipPath id="p"><path d="m0 0h16v16h-16z"/></clipPath><linearGradient id="q" gradientTransform="matrix(.0605264 .104835 .0615622 -.0355429 2.825748 12.096632)" gradientUnits="userSpaceOnUse" x1="10.135816" x2="9.692278" y1="29.107889" y2="103.48482"><stop offset="0" stop-color="#72d13d"/><stop offset=".3553" stop-color="#35ac1c"/><stop offset=".6194" stop-color="#0f9508"/><stop offset=".7574" stop-color="#008c00"/><stop offset="1" stop-color="#007a00"/></linearGradient><g clip-path="url(#c)" mask="url(#b)"><path d="m2.996094 12.5v-9h1.003906v9zm0 0" fill="#4d4d4d" fill-opacity=".992157"/></g><path d="m3.359375 1.28125 11.261719 6.5-.503906.871094-11.257813-6.5zm0 0" fill="#4d4d4d" fill-opacity=".992157"/><path d="m2.28125 1h2.4375c.15625 0 .28125.125.28125.28125v2.4375c0 .15625-.125.28125-.28125.28125h-2.4375c-.15625 0-.28125-.125-.28125-.28125v-2.4375c0-.15625.125-.28125.28125-.28125zm0 0" fill="url(#e)"/><path d="m2.6875 1.5h1.625c.105469 0 .1875.082031.1875.1875v1.625c0 .105469-.082031.1875-.1875.1875h-1.625c-.105469 0-.1875-.082031-.1875-.1875v-1.625c0-.105469.082031-.1875.1875-.1875zm0 0" fill="url(#f)"/><path d="m2.695312 1.5c-.105468 0-.1875.082031-.1875.1875v.945312c.152344.015626.308594.023438.46875.023438.574219 0 1.105469-.097656 1.53125-.261719v-.707031c0-.105469-.085937-.1875-.1875-.1875zm0 0" fill="url(#h)"/><path d="m12.28125 6h2.4375c.15625 0 .28125.125.28125.28125v2.4375c0 .15625-.125.28125-.28125.28125h-2.4375c-.15625 0-.28125-.125-.28125-.28125v-2.4375c0-.15625.125-.28125.28125-.28125zm0 0" fill="url(#i)"/><path d="m12.6875 6.5h1.625c.105469 0 .1875.082031.1875.1875v1.625c0 .105469-.082031.1875-.1875.1875h-1.625c-.105469 0-.1875-.082031-.1875-.1875v-1.625c0-.105469.082031-.1875.1875-.1875zm0 0" fill="url(#j)"/><path d="m12.695312 6.5c-.105468 0-.1875.082031-.1875.1875v.945312c.152344.015626.308594.023438.46875.023438.574219 0 1.105469-.097656 1.53125-.261719v-.707031c0-.105469-.085937-.1875-.1875-.1875zm0 0" fill="url(#k)"/><g clip-path="url(#p)" mask="url(#l)"><path d="m2.28125 12h2.4375c.15625 0 .28125.125.28125.28125v2.4375c0 .15625-.125.28125-.28125.28125h-2.4375c-.15625 0-.28125-.125-.28125-.28125v-2.4375c0-.15625.125-.28125.28125-.28125zm0 0" fill="url(#m)"/><path d="m2.6875 12.5h1.625c.105469 0 .1875.082031.1875.1875v1.625c0 .105469-.082031.1875-.1875.1875h-1.625c-.105469 0-.1875-.082031-.1875-.1875v-1.625c0-.105469.082031-.1875.1875-.1875zm0 0" fill="url(#n)"/><path d="m2.695312 12.5c-.105468 0-.1875.082031-.1875.1875v.945312c.152344.015626.308594.023438.46875.023438.574219 0 1.105469-.097656 1.53125-.261719v-.707031c0-.105469-.085937-.1875-.1875-.1875zm0 0" fill="url(#o)"/></g><path d="m7.566406 8.152344-.183594.683594 1.617188.796874-3.464844 2 .5.867188 3.464844-2-.117188 1.800781.683594.183594 1.347656-3.667969zm0 0" fill="url(#q)"/></svg>