<svg height="16" viewBox="0 0 16 16" width="16" xmlns="http://www.w3.org/2000/svg" xmlns:xlink="http://www.w3.org/1999/xlink"><linearGradient id="a" gradientUnits="userSpaceOnUse" x1="3.44654465056" x2="3.42747678882" y1="-1.55039682934" y2="3.38618525049"><stop offset="0" stop-color="#f0efef"/><stop offset="1" stop-color="#ecebeb"/></linearGradient><filter id="b" color-interpolation-filters="sRGB" height="1.048" width="1.048" x="-.024" y="-.024"><feGaussianBlur stdDeviation=".054227538"/></filter><filter id="c" color-interpolation-filters="sRGB" height="1.120005" width="1.120005" x="-.060002" y="-.060002"><feGaussianBlur stdDeviation=".13557429"/></filter><linearGradient id="d" gradientUnits="userSpaceOnUse" x1="8.25470500861" x2="7.96237826168" xlink:href="#e" y1="1.25754227982" y2="15.05174629832"/><linearGradient id="e"><stop offset="0" stop-color="#fff"/><stop offset="1" stop-color="#fff" stop-opacity="0"/></linearGradient><linearGradient id="f" gradientUnits="userSpaceOnUse" x1="3.19987376148" x2="3.20630404768" xlink:href="#e" y1="2.69579012328" y2="-.20426525026"/><radialGradient id="g" cx="3.20972994665" cy="1.70958119295" gradientUnits="userSpaceOnUse" r="1.1465013867"><stop offset="0" stop-color="#666"/><stop offset="1" stop-color="#232323" stop-opacity=".9375"/></radialGradient><linearGradient id="h"><stop offset="0" stop-color="#fff"/><stop offset="1" stop-color="#bbb"/></linearGradient><linearGradient id="i"><stop offset="0" stop-color="#cbcbcd"/><stop offset=".5" stop-color="#e0e0e2"/><stop offset="1" stop-color="#f2f2f2"/></linearGradient><linearGradient id="j" gradientUnits="userSpaceOnUse" x1="72" x2="72" y1="-16" y2="128"><stop offset="0" stop-color="#959391"/><stop offset="1" stop-color="#828282"/></linearGradient><linearGradient id="k" gradientUnits="userSpaceOnUse" x1="64" x2="64" xlink:href="#i" y1="40" y2="-8"/><linearGradient id="l" gradientUnits="userSpaceOnUse" x1="64" x2="64" xlink:href="#h" y1="8" y2="112"/><filter id="m" color-interpolation-filters="sRGB" height="1.229086" width="1.168" x="-.084" y="-.114543"><feGaussianBlur stdDeviation=".56"/></filter><filter id="n" color-interpolation-filters="sRGB" height="1.219135" width="1.336" x="-.168" y="-.109568"><feGaussianBlur stdDeviation=".56"/></filter><linearGradient id="o" gradientUnits="userSpaceOnUse" x1="64" x2="64" xlink:href="#h" y1="48" y2="80"/><linearGradient id="p" gradientTransform="matrix(.66666666 0 0 .5 21.333334 32)" gradientUnits="userSpaceOnUse" x1="64" x2="64" xlink:href="#i" y1="64" y2="32"/><linearGradient id="q" gradientTransform="matrix(.09716559 0 0 .1561431 1.69383 -69.804244)" gradientUnits="userSpaceOnUse" x1="399.77466" x2="399.77466" y1="1164.6696" y2="549.06134"><stop offset="0" stop-color="#b4b4b6"/><stop offset=".5" stop-color="#9c9ca1"/><stop offset="1" stop-color="#cdcdd1"/></linearGradient><linearGradient id="r" gradientTransform="matrix(.8333335 0 0 1.1111112 2.666665 -7.111107)" gradientUnits="userSpaceOnUse" x1="42.728634" x2="124.09152" y1="99.999985" y2="27.999992"><stop offset="0" stop-color="#fff"/><stop offset=".42597079" stop-color="#fff"/><stop offset=".5892781" stop-color="#f1f1f1"/><stop offset=".80219781" stop-color="#eaeaea"/><stop offset="1" stop-color="#dfdfdf"/></linearGradient><linearGradient id="s" gradientTransform="matrix(1.9983722 0 0 2.5 -115.72536 -16)" gradientUnits="userSpaceOnUse" x1="102.31124" x2="74.330322" xlink:href="#e" y1="-5.830213" y2="32"/><linearGradient id="t" gradientUnits="userSpaceOnUse" x1="43" x2="56" y1="108.75" y2="61.75"><stop offset="0" stop-color="#27951d"/><stop offset="1" stop-color="#27951d" stop-opacity="0"/></linearGradient><clipPath id="u"><rect height="80" rx="1.5" ry="1.444445" width="80" x="16" y="24"/></clipPath><filter id="v" height="1.679219" width="1.459715" x="-.229858" y="-.339609"><feGaussianBlur stdDeviation="7.8534644"/></filter><linearGradient id="w" gradientUnits="userSpaceOnUse" x1="46.5" x2="72" xlink:href="#x" y1="-22.395977" y2="74.104019"/><radialGradient id="x" cx="48" cy="-.2148" gradientTransform="matrix(.9792 0 0 .9725 133.0002 20.8762)" gradientUnits="userSpaceOnUse" r="55.147999"><stop offset="0" stop-color="#72d13d"/><stop offset=".3553" stop-color="#35ac1c"/><stop offset=".6194" stop-color="#0f9508"/><stop offset=".7574" stop-color="#008c00"/><stop offset="1" stop-color="#007a00"/></radialGradient><radialGradient id="y" cx="52.796875" cy="63.40625" fx="51.796875" fy="93.371971" gradientTransform="matrix(1 0 0 .6507436 0 22.14504)" gradientUnits="userSpaceOnUse" r="34.671875" xlink:href="#x"/><linearGradient id="z" gradientUnits="userSpaceOnUse" x1="64.18939" x2="64.18939" xlink:href="#e" y1="12.987433" y2="83.758904"/><g transform="matrix(.11246431 0 0 .125 4.30371175 0)"><rect fill="url(#j)" height="128" rx="14.751542" ry="13.666797" width="80" x="24"/><rect fill="url(#l)" height="112" rx="12.907599" ry="11.958447" width="62.24197" x="32.866322" y="8"/><rect fill="url(#k)" height="96" rx="9.876436" ry="10.226353" width="44.458546" x="41.758034" y="16"/><g fill="#fff" transform="translate(0 -8)"><path d="m56 28.266411h16v11.733589h-16z" filter="url(#m)"/><path d="m48 40h8v12.266411h-8z" filter="url(#n)"/><path d="m72 40h8v12.266411h-8z" filter="url(#n)"/></g><g fill="#403c3b"><path d="m56 16h16v11.733589h-16z"/><path d="m48 27.733589h8v12.266411h-8z"/><path d="m72 27.733589h8v12.266411h-8z"/></g><rect fill="#5c5b5a" height="48" ry="4.330235" width="64" x="32" y="40"/><g fill="#fff" transform="matrix(1 0 0 -1 0 147.73359)"><path d="m56 32.266411h16v8h-16z" filter="url(#m)"/><path d="m48 40h8v12.266411h-8z" filter="url(#n)"/><path d="m72 40h8v12.266411h-8z" filter="url(#n)"/></g><g fill="#403c3b" transform="matrix(1 0 0 -1 0 139.73359)"><path d="m56 28.266411h16v7.467179h-16z"/><path d="m48 35.733589h8v12.266411h-8z"/><path d="m72 35.733589h8v12.266411h-8z"/></g><rect fill="url(#o)" height="32" ry="3.464188" width="44.458549" x="41.758034" y="48"/><rect fill="url(#p)" height="16" ry="1.732094" width="26.675129" x="50.649742" y="56"/></g><g transform="matrix(.06752790125 0 0 .06752790125 -.47753925 -.216632625)"><rect fill="url(#q)" height="103.66086" rx="2.857143" ry="2.769231" width="103.66086" x="7.071732" y="3.208047"/><g fill-rule="evenodd"><rect fill="url(#r)" height="74.043472" rx="1.5" ry="1.444445" width="74.043465" x="21.880426" y="18.016741"/><path d="m69.695249 18.016741c-21.349742 23.570205-30.505247 43.107508-42.973247 74.043468h54.393198c3.046452-29.61745 1.698744-50.416353 14.808694-74.043468z" fill="url(#s)"/><path clip-path="url(#u)" d="m96.5 41.5-44 54.5-37-28.5z" fill="url(#t)" filter="url(#v)" opacity=".756554" stroke="#000"/></g><path d="m128 3.208047-76.02318 52.372235-22.978484-19.41474c-1.376484-.814305-3.182667-.509859-4.045508.710488l-16.5056725 21.812637c-.8628517 1.220339-.4379247 2.856539.9385578 3.670851l40.8434467 33.185654c1.376483.814307 3.182657.509857 4.045508-.710481z" fill="url(#w)" opacity=".906367"/><path d="m87.46875 40.84375-30.96875 21.3125c-2.966629 2.041883-6.93187 1.850017-9.6875-.46875l-18.65625-15.75-10.03125 13.21875 33 26.8125z" fill="url(#y)" opacity=".906367"/><path d="m107.65625 22.09375-53.40625 36.78125c-1.48677 1.016551-3.46954.914215-4.84375-.25l-21.90625-18.46875-14.875 19.65625 8.75 7.09375c1.7816.053567 3.5684.09375 5.375.09375 18.91208 0 36.51705-3.005811 51.28125-8.125z" fill="url(#z)" opacity=".756554"/></g><g transform="matrix(1.523396 0 0 1.523396 -.04743175 9.395567)"><path d="m5.8863771 3.1750014a2.7113769 2.7113769 0 0 1 -2.7113769 2.7113769 2.7113769 2.7113769 0 0 1 -2.71137691-2.7113769 2.7113769 2.7113769 0 0 1 2.71137691-2.71137692 2.7113769 2.7113769 0 0 1 2.7113769 2.71137692z" fill="#2a2a2a" filter="url(#c)" opacity=".59" stroke-width=".192102" transform="matrix(1.0761102 0 0 1.1039851 -.08445 -2.334201)"/><path d="m5.8792424 1.2281515a2.7113769 2.7113769 0 0 1 -2.7113769 2.7113769 2.7113769 2.7113769 0 0 1 -2.71137686-2.7113769 2.7113769 2.7113769 0 0 1 2.71137686-2.7113769 2.7113769 2.7113769 0 0 1 2.7113769 2.7113769z" fill="#2a2a2a" filter="url(#b)" opacity=".78" stroke-width=".192102" transform="matrix(1.1502467 0 0 1.1353256 -.475961 -.131776)"/><path d="m5.9451769 1.2281514a2.7774632 2.7774632 0 0 1 -2.7774633 2.7774632 2.7774632 2.7774632 0 0 1 -2.77746312-2.7774632 2.7774632 2.7774632 0 0 1 2.77746312-2.7774632 2.7774632 2.7774632 0 0 1 2.7774633 2.7774632z" fill="url(#a)" stroke-width=".218917"/><path d="m8.015625 1.0019531c-3.8650921-.0000005-6.9980472 3.1329547-6.9980469 6.9980469-.0000004 3.865092 3.1329548 6.998047 6.9980469 6.998047 3.865092 0 6.998047-3.132955 6.998047-6.998047 0-3.8650923-3.132955-6.9980474-6.998047-6.9980469zm-.015625.9980469a6.0000002 6.0000002 0 0 1 6 6 6.0000002 6.0000002 0 0 1 -6 6 6.0000002 6.0000002 0 0 1 -6-6 6.0000002 6.0000002 0 0 1 6-6z" fill="url(#d)" stroke-width=".551604" transform="matrix(.39687302 0 0 .39687302 -.007119 -1.946833)"/><path d="m4.6269788 1.2281514a1.4591133 1.4591133 0 0 1 -1.4591133 1.4591133 1.4591133 1.4591133 0 0 1 -1.4591133-1.4591133 1.4591133 1.4591133 0 0 1 1.4591133-1.45911325 1.4591133 1.4591133 0 0 1 1.4591133 1.45911325z" fill="url(#f)" stroke-width=".20691"/><path d="m4.3143668 1.2281514a1.1465013 1.1465013 0 0 1 -1.1465013 1.1465013 1.1465013 1.1465013 0 0 1 -1.1465013-1.1465013 1.1465013 1.1465013 0 0 1 1.1465013-1.14650135 1.1465013 1.1465013 0 0 1 1.1465013 1.14650135z" fill="url(#g)" stroke-width=".16258"/></g></svg>