<svg height="16" viewBox="0 0 16 16" width="16" xmlns="http://www.w3.org/2000/svg" xmlns:xlink="http://www.w3.org/1999/xlink"><filter id="a" color-interpolation-filters="sRGB" height="1.306617" width="1.43589" x="-.217945" y="-.153309"><feGaussianBlur stdDeviation="3.1542391"/></filter><linearGradient id="b" gradientUnits="userSpaceOnUse" x1="32.81356" x2="28.745762" y1="44.474575" y2="19.254236"><stop offset="0" stop-color="#070707"/><stop offset="1" stop-color="#474747"/></linearGradient><filter id="c" height="100%" width="100%" x="0%" y="0%"><feColorMatrix in="SourceGraphic" type="matrix" values="0 0 0 0 1 0 0 0 0 1 0 0 0 0 1 0 0 0 1 0"/></filter><mask id="d"><g filter="url(#c)"><path d="m0 0h16v16h-16z" fill-opacity=".988235"/></g></mask><clipPath id="e"><path d="m0 0h16v16h-16z"/></clipPath><linearGradient id="f"><stop offset="0" stop-color="#fd0000"/><stop offset="1" stop-color="#8f0000"/></linearGradient><linearGradient id="g" gradientUnits="userSpaceOnUse" x1="1.500003" x2="2" xlink:href="#f" y1=".503773" y2="5.003774"/><radialGradient id="h" cx="72.631729" cy="22.787588" gradientTransform="matrix(1.185546 0 0 1.185549 -84.608261 -23.012017)" gradientUnits="userSpaceOnUse" r="1.265237" xlink:href="#f"/><linearGradient id="i"><stop offset="0" stop-color="#fff"/><stop offset="1" stop-color="#fff" stop-opacity="0"/></linearGradient><linearGradient id="j" gradientUnits="userSpaceOnUse" x1=".951386" x2="1.645003" xlink:href="#i" y1="1.527035" y2="4.115649"/><linearGradient id="k" gradientUnits="userSpaceOnUse" x1="14.493753" x2="14.99375" xlink:href="#f" y1=".503773" y2="5.003774"/><radialGradient id="l" cx="72.631729" cy="22.787588" gradientTransform="matrix(1.185546 0 0 1.185549 -71.61451 -23.012017)" gradientUnits="userSpaceOnUse" r="1.265237" xlink:href="#f"/><linearGradient id="m" gradientUnits="userSpaceOnUse" x1="13.945136" x2="14.638753" xlink:href="#i" y1="1.527035" y2="4.115649"/><linearGradient id="n" gradientUnits="userSpaceOnUse" x1="8.486417" x2="8.986414" xlink:href="#f" y1="9.45908" y2="13.959081"/><radialGradient id="o" cx="72.631729" cy="22.787588" gradientTransform="matrix(1.185546 0 0 1.185549 -77.621846 -14.05671)" gradientUnits="userSpaceOnUse" r="1.265237" xlink:href="#f"/><linearGradient id="p" gradientUnits="userSpaceOnUse" x1="7.9378" x2="8.631417" xlink:href="#i" y1="10.482342" y2="13.070956"/><g transform="translate(-1 -2)"><path d="m4 12h9v1h-9z" fill="#c80000" fill-opacity=".984314"/><path d="m1 11v3h3v-3zm1 1h1v1h-1z" fill="#c80000" fill-opacity=".984314"/><g clip-path="url(#e)" mask="url(#d)" transform="translate(0 -.101695)"><path d="m1.7494551 3.6044834c-.046875 0-.089843.019531-.121093.054687-.03125.035157-.046876.082032-.042969.132813.121093 2.179687.828125 4.300781 2.019531 5.902344 1.316406 1.7617186 2.8471263 2.8619566 4.8744703 2.8619566 2.0273436 0 3.4854496-1.189096 4.8018556-2.950815 1.191406-1.601563 1.898438-3.722657 2.019531-5.902344.0039-.050781-.01172-.097656-.04297-.132813-.03125-.035156-.07422-.054687-.121093-.054687h-.714844c-.08984 0-.160156.070313-.164063.164063-.253905 4.429687-2.516698 7.888315-5.7784166 7.892221-3.265625 0-5.6010323-3.3697696-5.8549393-7.8033626-.00391-.09375-.078125-.164063-.164062-.164063z" fill="#4d4d4d"/></g><g transform="translate(1)"><path d="m.28125 2.0037741h2.4375c.15625 0 .28125.125.28125.28125v2.4375c0 .15625-.125.28125-.28125.28125h-2.4375c-.15625 0-.28125-.125-.28125-.28125v-2.4375c0-.15625.125-.28125.28125-.28125zm0 0" fill="url(#g)"/><path d="m.6875 2.5037741h1.625c.105469 0 .1875.082031.1875.1875v1.625c0 .105469-.082031.1875-.1875.1875h-1.625c-.105469 0-.1875-.082031-.1875-.1875v-1.625c0-.105469.082031-.1875.1875-.1875zm0 0" fill="url(#h)"/><path d="m.695312 2.5037741c-.105468 0-.1875.082031-.1875.1875v.945312c.152344.015625.308594.023438.46875.023438.574219 0 1.105469-.097657 1.53125-.261719v-.707031c0-.105469-.085937-.1875-.1875-.1875zm0 0" fill="url(#j)"/></g><path d="m13.273438 2.0037741h2.4375c.15625 0 .28125.125.28125.28125v2.4375c0 .15625-.125.28125-.28125.28125h-2.4375c-.152344 0-.28125-.125-.28125-.28125v-2.4375c0-.15625.128906-.28125.28125-.28125zm0 0" fill="url(#k)"/><path d="m13.679688 2.5037741h1.625c.105468 0 .1875.082031.1875.1875v1.625c0 .105469-.08203.1875-.1875.1875h-1.625c-.101563 0-.1875-.082031-.1875-.1875v-1.625c0-.105469.08594-.1875.1875-.1875zm0 0" fill="url(#l)"/><path d="m13.6875 2.5037741c-.105469 0-.1875.082031-.1875.1875v.945312c.152344.015625.308594.023438.46875.023438.578125 0 1.109375-.097657 1.53125-.261719v-.707031c0-.105469-.08203-.1875-.1875-.1875zm0 0" fill="url(#m)"/><path d="m7.2676649 10.959081h2.4375c.15625 0 .28125.125.28125.28125v2.4375c0 .15625-.125.28125-.28125.28125h-2.4375c-.15625 0-.28125-.125-.28125-.28125v-2.4375c0-.15625.125-.28125.28125-.28125zm0 0" fill="url(#n)"/><path d="m7.6739149 11.459081h1.625c.105469 0 .1875.08203.1875.1875v1.625c0 .105469-.082031.1875-.1875.1875h-1.625c-.105469 0-.1875-.08203-.1875-.1875v-1.625c0-.105469.082031-.1875.1875-.1875zm0 0" fill="url(#o)"/><path d="m7.6817269 11.459081c-.105468 0-.1875.08203-.1875.1875v.945312c.152344.01563.308594.02344.46875.02344.574219 0 1.105469-.09766 1.53125-.261719v-.707031c0-.105469-.085937-.1875-.1875-.1875zm0 0" fill="url(#p)"/><path d="m13 11v3h3v-3zm1 1h1v1h-1z" fill="#c80000" fill-opacity=".984314"/></g><g transform="matrix(.1875 0 0 .1875 4.641579 4.166948)"><path d="m22.708984 3.9453125c-3.643939.037094-6.935512 3.3597782-6.935546 7.0039065v43.93164c.000478 4.147308 4.37543 7.703362 8.435546 6.857422l9.992188-2.080078 2.375 1.714844c1.876701 1.356544 5.885119 3.607037 8.047558 2.778906.01858-.0069 1.255573-.463996 2.644531-1.242187.617506-.345969 1.597838-.928014 2.550781-1.839844.431928-.413294 1.210343-1.264146 1.753907-2.351563.691831-1.384039-.303632-5.000467-.844433-7.163671-.0036-.01429-.05031-.245884-.05859-.283204l6.132812-4.144531c3.40028-2.297728 3.941244-7.821553 1.052735-10.736328l-.002-.002-30.099567-30.3710469c-1.314483-1.3259965-3.177893-2.0906385-5.044922-2.0722656z" filter="url(#a)" opacity=".76"/><path d="m17.03125 7.3398438c-2.671376.0271922-5.082006 2.4632515-5.082031 5.1347652v43.931641c.000351 3.040395 3.205165 5.647504 6.18164 5.027344l10.800782-2.248047 4.670087 5.587096c1.376447.994944 3.261915 1.239033 4.847657.63086h.002c.01282-.0048 1.149662-.428397 2.396484-1.126953.577508-.32356 1.382234-.803021 2.171875-1.558594.368036-.352159.950562-.988787 1.375-1.837891.513582-1.027443-.77469-5.741835-1.175947-7.346862-.03825-.153003-.209942-.997624-.332031-1.582031l7.173828-4.847656c2.493301-1.684843 2.890644-5.734647.771484-7.871094l-30.101609-30.373047c-.963649-.9720894-2.328545-1.5330004-3.697266-1.5195312h-.002z" fill="#fff" transform="translate(5.694915 -3.525424)"/><path d="m23.737884 11.281217v40.419921l11.863281-2.470703c.263538-.05442.537815.0044.755859.16211l6.527477 6.654892c.285679-.118453.599894-.234307 1.154297-.544922.384975-.215689.749087-.464247.9375-.644531.06051-.0579.06738-.07382.08789-.101562-.320785-1.338154-3.156382-8.467393-3.156382-8.467393-.07594-.378615.08265-.765836.402343-.982422l9.074219-6.130859z" fill="url(#b)"/></g></svg>