<svg height="16" width="16" xmlns="http://www.w3.org/2000/svg" xmlns:xlink="http://www.w3.org/1999/xlink"><linearGradient id="a"><stop offset="0" stop-color="#0968ef"/><stop offset="1" stop-color="#aecffc"/></linearGradient><linearGradient id="b" gradientTransform="matrix(.1195733 0 0 .1821449 2.346827 -92.079062)" gradientUnits="userSpaceOnUse" x1="399.77466" x2="399.77466" y1="1164.6696" y2="549.06134"><stop offset="0" stop-color="#b4b4b6"/><stop offset=".5" stop-color="#9c9ca1"/><stop offset="1" stop-color="#cdcdd1"/></linearGradient><linearGradient id="c" gradientTransform="matrix(1.0649536 0 0 1.3333335 .725187 -21.333329)" gradientUnits="userSpaceOnUse" x1="112.00001" x2="112.00001" y1="124.23937" y2="-22.601965"><stop offset="0" stop-color="#fff"/><stop offset=".42597079" stop-color="#fff"/><stop offset=".5892781" stop-color="#f1f1f1"/><stop offset=".80219781" stop-color="#eaeaea"/><stop offset="1" stop-color="#dfdfdf"/></linearGradient><linearGradient id="d" gradientUnits="userSpaceOnUse" x1="99.877216" x2="99.877216" xlink:href="#a" y1="120" y2="23.99935"/><linearGradient id="e" gradientUnits="userSpaceOnUse" x1="48" x2="48" xlink:href="#a" y1="124" y2="24.585119"/><linearGradient id="f" gradientTransform="matrix(-.00000004 -.9684223 .5686868 -.00000002 19.384232 119.62718)" gradientUnits="userSpaceOnUse" x1="10.135816" x2="9.692278" y1="29.107889" y2="103.48482"><stop offset="0" stop-color="#72d13d"/><stop offset=".3553" stop-color="#35ac1c"/><stop offset=".6194" stop-color="#0f9508"/><stop offset=".7574" stop-color="#008c00"/><stop offset="1" stop-color="#007a00"/></linearGradient><g transform="matrix(.125 0 0 .125 0 -.07387)"><rect fill="url(#b)" height="112" rx="2.863108" ry="2.758119" width="128" y="8"/><rect fill="url(#c)" fill-rule="evenodd" height="96" rx="1.750002" ry="1.750001" width="112" x="8" y="16"/><path d="m79.946503 32h24v64h-24z" fill="#a4c9fb" opacity=".280899"/><path d="m48.43617-4.2107443v-2.619683z" fill="#fff" fill-opacity=".756881"/><path d="m24 32h24v64h-24z" fill="#a4c9fb" opacity=".340824"/><path d="m18.875 24c-1.586162 0-2.875 1.222001-2.875 2.75v74.5c0 1.528 1.288837 2.75 2.875 2.75h34.25c1.586162 0 2.875-1.222 2.875-2.75v-74.5c0-1.527998-1.288837-2.75-2.875-2.75zm5.125 8h24v64h-24z" fill="url(#e)"/><path d="m74.821499 24c-1.586162 0-2.875 1.222001-2.875 2.75v74.5c0 1.528 1.288837 2.75 2.875 2.75h34.250001c1.58616 0 2.875-1.222 2.875-2.75v-74.5c0-1.527998-1.28884-2.75-2.875-2.75zm5.125 8h24.000001v64h-24.000001z" fill="url(#d)"/><g fill="#a2a2a2"><path d="m24 40.075485h24v8h-24z"/><path d="m24 56h16v8h-16z"/><path d="m24 72h24v8h-24z"/><path d="m24 88h16v8h-16z"/><path d="m80 40.075485h24v8h-24z"/><path d="m80 56h8v8h-8z"/><path d="m80 72h16v8h-16z"/><path d="m80 88h23.946503v8h-23.946503z"/></g><path d="m67.993707 128.0126-4.001259-4.00126 8.002518-12.00378-31.994966-.00504v-8.00252l31.994966.005-8.002518-12.00374 4.001259-4.00126 24.006293 20z" style="fill:none;stroke:#fff;stroke-width:16;stroke-linecap:round;stroke-linejoin:round;stroke-dashoffset:1.0878"/><path d="m68.010069 128-4.001259-4.00126 8.002518-12.00378-32.011328.00504v-8l32.011328-.008-8.002518-12.003335 4.001259-4.00126 23.989931 20.012595z" fill="url(#f)"/></g></svg>