<svg enable-background="new 0 0 128 128" height="16" viewBox="0 0 16 16" width="16" xmlns="http://www.w3.org/2000/svg" xmlns:xlink="http://www.w3.org/1999/xlink"><radialGradient id="a" cx="102" cy="112.3047" gradientUnits="userSpaceOnUse" r="139.5585" xlink:href="#h"/><radialGradient id="b" cx="102" cy="112.3047" gradientTransform="matrix(.9787234 0 0 .9818182 1.361705 1.163636)" gradientUnits="userSpaceOnUse" r="139.55859" xlink:href="#g"/><linearGradient id="c" gradientUnits="userSpaceOnUse" x1="85.219681" x2="61.336319" y1="93.219681" y2="69.336319"><stop offset="0"/><stop offset="1" stop-color="#393b38"/></linearGradient><linearGradient id="d" gradientUnits="userSpaceOnUse" x1="96" x2="88.000198" y1="104" y2="96.000198"><stop offset="0" stop-color="#888a85"/><stop offset=".0072" stop-color="#8c8e89"/><stop offset=".0673" stop-color="#abaca9"/><stop offset=".1347" stop-color="#c5c6c4"/><stop offset=".2115" stop-color="#dbdbda"/><stop offset=".3012" stop-color="#ebebeb"/><stop offset=".4122" stop-color="#f7f7f6"/><stop offset=".5679" stop-color="#fdfdfd"/><stop offset="1" stop-color="#fff"/></linearGradient><radialGradient id="e" cx="60.000003" cy="66.538" fx="60.000003" fy="66.538" gradientUnits="userSpaceOnUse" r="17.444813" xlink:href="#h"/><radialGradient id="f" cx="102" cy="112.3047" gradientTransform="matrix(.12234042 0 0 .12272727 47.420216 52.645367)" gradientUnits="userSpaceOnUse" r="139.55859" xlink:href="#g"/><radialGradient id="g" cx="102" cy="112.3047" gradientTransform="matrix(.9787234 0 0 .9818182 1.361705 1.163636)" gradientUnits="userSpaceOnUse" r="139.55859"><stop offset="0" stop-color="#535557"/><stop offset=".11366145" stop-color="#898a8c"/><stop offset=".20296688" stop-color="#ececec"/><stop offset=".2363" stop-color="#fafafa"/><stop offset=".2722" stop-color="#fff"/><stop offset=".5313" stop-color="#fafafa"/><stop offset=".8449" stop-color="#ebecec"/><stop offset="1" stop-color="#e1e2e3"/></radialGradient><radialGradient id="h" cx="102" cy="112.3047" gradientUnits="userSpaceOnUse" r="139.5585"><stop offset="0" stop-color="#00537d"/><stop offset=".0151" stop-color="#186389"/><stop offset=".0558" stop-color="#558ca8"/><stop offset=".0964" stop-color="#89afc3"/><stop offset=".1357" stop-color="#b3ccd8"/><stop offset=".1737" stop-color="#d4e2e9"/><stop offset=".2099" stop-color="#ecf2f5"/><stop offset=".2435" stop-color="#fafcfd"/><stop offset=".2722" stop-color="#fff"/></radialGradient><filter id="i"><feGaussianBlur stdDeviation="1.0394514"/></filter><filter id="j"><feGaussianBlur stdDeviation=".50063244"/></filter><filter id="k"><feGaussianBlur stdDeviation=".4901192"/></filter><filter id="l"><feGaussianBlur stdDeviation=".90565481"/></filter><filter id="m" height="1.247155" width="1.247155" x="-.123577" y="-.123577"><feGaussianBlur stdDeviation="1.7720846"/></filter><g transform="matrix(.125 0 0 .125 -2 -1)"><path d="m30.68 16.724138.04082 96.551722h53.45118c.53 0 .993044-.26409 1.414-.586l32.828-25.10386c.42096-.321908.586-.884.586-1.414v-69.447862z" fill="#656565" filter="url(#i)" opacity=".715069" transform="matrix(1.0416667 0 0 1.0357143 -9.958333 -3.321534)"/><path d="m30.68 17.689655.04082 95.586205h53.45118c.53 0 1.039-.211 1.414-.586 13.296921-8.21061 24.14086-11.5437 32.828-25.10386.375-.375.586-.884.586-1.414v-68.482345z" fill="#484848" filter="url(#i)" opacity=".835616" transform="matrix(1.0416667 0 0 1.0357143 -9.958333 -3.321534)"/><path d="m32.599999 18.655274v92.689656l50.996001-.0001c.53 0 1.039-.211 1.414-.586l31.484-24.041796c.375-.375.586-.884.586-1.414v-66.64776z" filter="url(#j)" opacity=".89589" transform="matrix(1.0416667 0 0 1.0357143 -9.958333 -3.321534)"/><path d="m24.000002 16v96h53.172c.53 0 .991019-.2661 1.414-.586l32.827998-24.828c.42298-.319902.586-.884.586-1.414v-69.172z" fill="url(#a)"/><path d="m32.678725 24c-.539276 0-.978723.440836-.978723.981818l.3 78.036362c0 .54197.439447.98182.978723.98182h43.913022c.257404 0 .509915-.10407.691957-.28767l26.129526-18.23113c.18303-.1836.28677-.435927.28677-.694145v-59.805237c0-.540982-.43847-.981818-.97872-.981818z" fill="url(#b)"/><g fill="#b3b3b3"><path d="m40 32h56v8h-56z"/><path d="m40 48h56v8h-56z"/><path d="m40 64h56v8h-56z"/><path d="m40 80h56v8h-56z"/><path d="m40 96h40v8h-40z"/></g><g transform="translate(.000002 -8)"><path d="m111.414 86.586c.25-.25-26.379-1.586-31.414-1.586-1.654 0-3 1.346-3 3 0 5.035 1.336 31.664 1.586 31.414z" filter="url(#m)" opacity=".906849"/><path d="m111.414 86.586c.375-.375-21.97-.586-31.414-.586-1.103 0-2 .897-2 2 0 9.444.211 31.789.586 31.414z" filter="url(#l)" opacity=".2"/><path d="m111.414 86.586c.239-.239-21.607.414-31.414.414-.553 0-1 .447-1 1 0 9.807-.653 31.653-.414 31.414z" fill="url(#c)" filter="url(#k)" opacity=".1"/><path d="m78.586 119.414s11.914-9.914 17.414-15.414 15.414-17.414 15.414-17.414-21.164 1.414-31.414 1.414c0 10.25-1.414 31.414-1.414 31.414z" fill="url(#d)"/></g></g><g transform="translate(-46.250003 -52.499912)"><path d="m29.94365 24.129955.77717 96.870045h53.45118c.53 0 1.039-.211 1.414-.586l32.828-32.828c.375-.375.586-.884.586-1.414l-.73635-62.042045z" fill="#656565" filter="url(#i)" opacity=".715069" transform="matrix(.13020834 0 0 .12946429 46.005211 52.08472)"/><path d="m30.495913 25.465763.224903 95.534237h53.451184c.53 0 1.039-.211 1.414-.586 13.296921-8.21061 24.14086-19.26784 32.828-32.828.375-.375.586-.884.586-1.414l-.18409-60.706237z" fill="#484848" filter="url(#i)" opacity=".835616" transform="matrix(.13020834 0 0 .12946429 46.005211 52.08472)"/><path d="m32.599997 26.379412.000002 92.689658 50.996001-.0001c.53 0 1.039-.211 1.414-.586l31.484-31.765936c.375-.375.586-.884.586-1.414v-58.923622z" filter="url(#j)" opacity=".89589" transform="matrix(.13020834 0 0 .12946429 46.005211 52.08472)"/><path d="m50.250003 55.499912v12h6.6465c.06625 0 .129875-.02638.17675-.07325l4.1035-4.1035c.04687-.04687.07325-.1105.07325-.17675v-7.6465z" fill="url(#e)" stroke-width=".125"/><path d="m51.334843 56.499912c-.06741 0-.12234.0551-.12234.122727l.0375 9.754545c0 .06775.05493.122728.122341.122728h5.489127c.03218 0 .06374-.01301.08649-.03596l3.266191-3.278891c.02288-.02295.03585-.05449.03585-.08677v-6.475655c0-.06762-.05481-.122727-.12234-.122727z" fill="url(#f)" stroke-width=".125"/><g fill="#669eed"><path d="m52.182209 57.482964h7v1h-7z"/><path d="m52.182209 59.482964h7v1h-7z"/><path d="m52.182209 61.482964h7v1h-7z"/><path d="m52.182209 63.482964h7v1h-7z"/><path d="m52.182209 65.482956h5v1h-5z"/></g><g transform="matrix(.125 0 0 .125 47.250003 52.499912)"><path d="m111.414 86.586c.25-.25-26.379-1.586-31.414-1.586-1.654 0-3 1.346-3 3 0 5.035 1.336 31.664 1.586 31.414z" filter="url(#m)" opacity=".906849"/><path d="m111.414 86.586c.375-.375-21.97-.586-31.414-.586-1.103 0-2 .897-2 2 0 9.444.211 31.789.586 31.414z" filter="url(#l)" opacity=".2"/><path d="m111.414 86.586c.239-.239-21.607.414-31.414.414-.553 0-1 .447-1 1 0 9.807-.653 31.653-.414 31.414z" fill="url(#c)" filter="url(#k)" opacity=".1"/><path d="m78.586 119.414s11.914-9.914 17.414-15.414 15.414-17.414 15.414-17.414-21.164 1.414-31.414 1.414c0 10.25-1.414 31.414-1.414 31.414z" fill="url(#d)"/></g></g></svg>