<svg height="16" viewBox="0 0 4.2333333 4.2333334" width="16" xmlns="http://www.w3.org/2000/svg" xmlns:xlink="http://www.w3.org/1999/xlink"><linearGradient id="a" gradientTransform="matrix(.36111918 0 0 .36111917 -280.44128 196.31872)" gradientUnits="userSpaceOnUse" x1="778.88196" x2="778.88196" xlink:href="#b" y1="289.57986" y2="284.53162"/><linearGradient id="b"><stop offset="0" stop-color="#06f"/><stop offset="1" stop-color="#80b3ff"/></linearGradient><linearGradient id="c" gradientTransform="matrix(.35915571 0 0 .35915572 -278.87823 195.9106)" gradientUnits="userSpaceOnUse" x1="778" x2="778" xlink:href="#b" y1="295" y2="290"/><g transform="translate(0 -291.708317)"><path d="m.25329595 301.86154v-.14912q.0420587-.0925.11929377-.18047.0779998-.0879.19576412-.18352.11317614-.0918.15829365-.15142.0458822-.0596.0458822-.117 0-.1407-.14147017-.1407-.0688233 0-.1055291.0375-.0359411.0367-.0466469.11088l-.21641112-.0122q.0183529-.14989.11164672-.22865.0940585-.0788.25541101-.0788.17435242 0 .26764626.0795.0932938.0795.0932938.2233 0 .0757-.0298234.13688-.0298234.0612-.0764704.11318-.0466469.0512-.10399969.0964-.0565881.0451-.11011732.0879-.0535292.0428-.0978821.0864-.0435881.0436-.0649998.0933h.50011622v.17664z" fill="none" stroke="url(#c)" stroke-linejoin="round" stroke-width=".529167" transform="scale(1.0218307 .9786357)"/><path d="m.28335501 295.41248v-.14594q.0411601-.0906.11674513-.17661.0763334-.0861.19158175-.17961.11075821-.0898.15491181-.14817.044902-.0584.044902-.1145 0-.1377-.13844775-.1377-.067353 0-.10327454.0367-.0351732.0359-.0456504.10851l-.21178764-.012q.0179608-.14668.10926147-.22377.0920491-.0771.24995432-.0771.1706275 0 .26192818.0778.0913007.0778.0913007.21852 0 .0741-.0291863.13396-.0291863.0599-.0748366.11076-.0456503.0501-.10177781.0943-.0553791.0442-.10776474.0861-.0523856.0419-.0957909.0846-.0426569.0427-.0636111.0913h.4894315v.17288z" fill="#bfd9ff" stroke-width=".264583"/></g><g transform="translate(0 -292.237483)"><path d="m.26081901 301.0433v-.16069h.26834044v-.7389l-.25988272.16223v-.16992l.27141598-.17607h.20452309v.92266h.24834946v.16069z" stroke="url(#a)" stroke-linejoin="round" stroke-width=".529167" transform="scale(1.0236449 .97690126)"/><path d="m.29150194 294.08957v-.15699h.26214211v-.72183l-.25387975.15849v-.166l.26514661-.172h.19979885v.90134h.24261294v.15699z" fill="#bfd9ff" stroke-width=".264583"/></g><g fill="#404040" fill-opacity=".839216" transform="translate(0 -292.76665)"><path d="m3.96875 293.5604-2.1166668-.00001v.26459l2.1166668.00001z" stroke-width=".125"/><path d="m3.4395832 294.08956h-1.5874999v.26458h1.5874999z" stroke-width=".125"/><g transform="matrix(-.125 0 0 .125 0 259.87498)"><path d="m-31.749998 284.30007 16.933334-.00008v2.1167h-16.933336z"/><path d="m-27.516665 288.53333h12.699999v2.11669h-12.699999z"/></g></g><g fill="#fff" fill-opacity=".392157" transform="translate(0 -293.03122)"><path d="m3.96875 293.5604-2.1166668-.00001v.26459l2.1166668.00001z" stroke-width=".125"/><path d="m3.4395832 294.08956h-1.5874999v.26458h1.5874999z" stroke-width=".125"/><g transform="matrix(-.125 0 0 .125 0 259.87498)"><path d="m-31.749998 284.30007 16.933334-.00008v2.1167h-16.933336z"/><path d="m-27.516665 288.53333h12.699999v2.11669h-12.699999z"/></g></g></svg>