<svg height="16" width="16" xmlns="http://www.w3.org/2000/svg" xmlns:xlink="http://www.w3.org/1999/xlink"><linearGradient id="a"><stop offset="0" stop-color="#fff"/><stop offset="1" stop-color="#fff" stop-opacity="0"/></linearGradient><linearGradient id="b"><stop offset="0" stop-color="#ffff0c"/><stop offset="1" stop-color="#ffff0c" stop-opacity="0"/></linearGradient><linearGradient id="c"><stop offset="0" stop-color="#63e9ff"/><stop offset="1" stop-color="#fff" stop-opacity="0"/></linearGradient><linearGradient id="d" gradientUnits="userSpaceOnUse" x1="55.150834" x2="55.150834" y1="128.748787" y2="39.395058"><stop offset="0" stop-color="#051327"/><stop offset="1" stop-color="#387de4"/></linearGradient><linearGradient id="e" gradientUnits="userSpaceOnUse" x1="43.519861" x2="43.519861" y1="-52.960692" y2="56.217219"><stop offset="0" stop-color="#72d13d"/><stop offset=".3553" stop-color="#35ac1c"/><stop offset=".6194" stop-color="#0b6f05"/><stop offset=".7574" stop-color="#006a00"/><stop offset="1" stop-color="#003400"/></linearGradient><linearGradient id="f" gradientUnits="userSpaceOnUse" x1="117.779654" x2="117.779654" y1="22.007093" y2="98.556437"><stop offset="0" stop-color="#e05600"/><stop offset="1" stop-color="#600"/></linearGradient><linearGradient id="g" gradientUnits="userSpaceOnUse" x1="50.406247" x2="50.406247" xlink:href="#a" y1="44.326514" y2="112.435358"/><linearGradient id="h" gradientUnits="userSpaceOnUse" x1="121.000152" x2="121.000152" xlink:href="#a" y1="20.674664" y2="73.549662"/><linearGradient id="i" gradientUnits="userSpaceOnUse" x1="44.598082" x2="54.377432" xlink:href="#a" y1="-13.965313" y2="45.346876"/><radialGradient id="j" cx="59.269905" cy="126.30224" fx="62.451874" fy="156.61607" gradientTransform="matrix(1.0058441 .00000004 -.00000002 .5396386 -2.231019 45.993805)" gradientUnits="userSpaceOnUse" r="41.734375"><stop offset="0" stop-color="#9fc1f2"/><stop offset=".5" stop-color="#587eb5"/><stop offset="1" stop-color="#0c2a58"/></radialGradient><radialGradient id="k" cx="99.041145" cy="81.771805" gradientTransform="matrix(1.9652466 0 0 1.6731189 -90.329766 -39.545553)" gradientUnits="userSpaceOnUse" r="21.625"><stop offset="0" stop-color="#f5c31a"/><stop offset="1" stop-color="#e97b00"/></radialGradient><radialGradient id="l" cx="39.191303" cy="75.128395" fx="38.089832" fy="79.916908" gradientTransform="matrix(1.5449156 -.00000003 0 1.0679259 -23.242821 -29.615781)" gradientUnits="userSpaceOnUse" r="35.96875"><stop offset="0" stop-color="#72d13d"/><stop offset=".3553" stop-color="#35ac1c"/><stop offset=".6194" stop-color="#0f9508"/><stop offset=".7574" stop-color="#008c00"/><stop offset="1" stop-color="#007a00"/></radialGradient><linearGradient id="m" gradientUnits="userSpaceOnUse" x1="121.007018" x2="121.007018" xlink:href="#a" y1="47.280508" y2="73.549662"/><linearGradient id="n" gradientUnits="userSpaceOnUse" x1="54.377432" x2="54.377432" xlink:href="#a" y1="10.439355" y2="45.346876"/><linearGradient id="o" gradientUnits="userSpaceOnUse" x1="50.127462" x2="50.127462" xlink:href="#a" y1="81.172178" y2="112.156573"/><radialGradient id="p" cx="57.278244" cy="131.22166" gradientTransform="matrix(1 0 0 .5383567 0 45.541887)" gradientUnits="userSpaceOnUse" r="41.878006" xlink:href="#c"/><filter id="q"><feGaussianBlur stdDeviation=".32711655"/></filter><radialGradient id="r" cx="104.25" cy="78.317085" gradientTransform="matrix(1.2027022 0 0 2.0129973 -19.131703 -66.152087)" gradientUnits="userSpaceOnUse" r="22.125" xlink:href="#b"/><filter id="s"><feGaussianBlur stdDeviation=".29578125"/></filter><radialGradient id="t" cx="37.03125" cy="67.156921" gradientTransform="matrix(1 0 0 .6337967 0 10.070538)" gradientUnits="userSpaceOnUse" r="35.96875"><stop offset="0" stop-color="#baff63"/><stop offset="1" stop-color="#fff" stop-opacity="0"/></radialGradient><filter id="u"><feGaussianBlur stdDeviation=".29882812"/></filter><linearGradient id="v" gradientUnits="userSpaceOnUse" x1="96.168646" x2="58.565491" xlink:href="#a" y1="85.906158" y2="20.775581"/><linearGradient id="w" gradientUnits="userSpaceOnUse" x1="70.778132" x2="55.711972" xlink:href="#a" y1="36.298126" y2="17.981934"/><radialGradient id="x" cx="87.325798" cy="13.060184" gradientTransform="matrix(2.3688812 -1.1674228 .4985261 1.0115864 -126.04949 97.63463)" gradientUnits="userSpaceOnUse" r="3.075796" xlink:href="#a"/><filter id="y" height="1.337263" width="1.388714" x="-.194357" y="-.168631"><feGaussianBlur stdDeviation=".41718673"/></filter><radialGradient id="z" cx="96.9375" cy="17.980104" gradientTransform="matrix(.8551174 0 0 1.9745874 17.044558 -17.35343)" gradientUnits="userSpaceOnUse" r="3.4375" xlink:href="#a"/><filter id="A" height="1.211342" width="1.186346" x="-.093173" y="-.105671"><feGaussianBlur stdDeviation=".22807958"/></filter><radialGradient id="B" cx="63.4366" cy="-.80577" gradientTransform="matrix(.5410048 0 0 .3716141 29.117098 10.906392)" gradientUnits="userSpaceOnUse" r="39.184292" xlink:href="#a"/><filter id="C"><feGaussianBlur stdDeviation=".31665616"/></filter><radialGradient id="D" cx="61.849747" cy="68.749786" gradientTransform="matrix(.9552014 .2959566 -.7323242 2.3635804 53.117914 -110.25996)" gradientUnits="userSpaceOnUse" r="2.776" xlink:href="#a"/><filter id="E"><feGaussianBlur stdDeviation=".18027646"/></filter><radialGradient id="F" cx="64.686584" cy="139.65083" gradientTransform="matrix(.4700807 -.00000002 .00000002 .3903477 34.278674 65.800126)" gradientUnits="userSpaceOnUse" r="45.01022"><stop offset="0" stop-color="#64d7eb"/><stop offset="1" stop-color="#64d7eb" stop-opacity="0"/></radialGradient><filter id="G"><feGaussianBlur stdDeviation="1.029351"/></filter><radialGradient id="H" cx="96.265633" cy="18.054264" gradientTransform="matrix(.8432649 -.1418808 .3214122 1.910305 9.382691 -2.534613)" gradientUnits="userSpaceOnUse" r="3.4375" xlink:href="#b"/><radialGradient id="I" cx="87.339302" cy="12.464132" gradientTransform="matrix(2.3688812 -1.1674228 .4985261 1.0115864 -126.04949 101.73463)" gradientUnits="userSpaceOnUse" r="3.075796" xlink:href="#c"/><linearGradient id="J" gradientUnits="userSpaceOnUse" x1="96.327082" x2="60.979875" xlink:href="#a" y1="84.294999" y2="23.071839"/><linearGradient id="K" gradientUnits="userSpaceOnUse" x1="89.817826" x2="56.91776" xlink:href="#a" y1="87.892276" y2="30.90769"/><linearGradient id="L" gradientUnits="userSpaceOnUse" x1="93.022173" x2="56.260173" xlink:href="#a" y1="83.319141" y2="19.645489"/><g transform="scale(.125)"><path d="m62.088749-.0213555c-30.001946 0-54.6993737 22.3002335-58.8297633 51.1718355-.180991 1.270922.1974005 2.557936 1.0374534 3.528663.8400528.970728 2.0594004 1.529991 3.3431413 1.533357h49.6142906c1.584582-.009 3.044079-.862403 3.828964-2.238971l25.08296-43.41656c.639309-1.1153533.763372-2.4531804.340065-3.6670758-.423307-1.2138953-1.352356-2.1844835-2.546587-2.6604495-6.755664-2.6763074-14.114357-4.2507992-21.870524-4.2507992z" fill="url(#e)"/><path d="m64 7.1972656c-28.376826 0-51.718165 21.0843934-55.625 48.3867184-.1317508.925156.1452896 1.872578.7558594 2.578125.6101449.705058 1.4923026 1.106358 2.4316406 1.109375h47.775391c1.155776-.0065 2.216576-.626807 2.789062-1.630859a1.0414417 1.0414417 0 0 1 .002-.0059l24.15425-41.808553v-.002c.46152-.806311.54531-1.776315.234375-2.667969-.310836-.891372-.971852-1.591468-1.83789-1.9375-6.395358-2.5335221-13.351006-4.0214374-20.679688-4.0214374z" fill="url(#B)" filter="url(#C)" transform="matrix(1.0383632 0 0 1.0383632 -4.366494 -6.413779)"/><path d="m101.83447 15.402321c-1.58507.0441-3.032168.91236-3.817 2.2902l-24.793913 42.982754c-1.032486 1.773172-.746711 4.018549.697018 5.476567l34.618545 34.618538c.93181.92825 2.22051 1.40655 3.5323 1.31103 1.31178-.0955 2.5176-.75546 3.30511-1.8089 7.58468-10.145683 12.24759-22.725527 12.24759-36.410869 0-19.200712-8.95763-36.299347-22.83562-47.463581-.83621-.670313-1.88267-1.023052-2.95403-.995739z" fill="url(#f)"/><path d="m9.848058 72.10625c-1.270957.000546-2.4780401.557184-3.3036563 1.523461-.8256163.966278-1.1870898 2.245431-.9893142 3.500905 4.4311345 27.854184 28.4365695 49.257864 57.5258125 49.257864 12.858127 0 24.67013-4.31539 34.280168-11.32072 1.024459-.74929 1.670352-1.90882 1.768172-3.17427.09782-1.26546-.362225-2.51047-1.259378-3.40829l-35.10696-35.106959c-.818112-.817348-1.928139-1.275091-3.084579-1.271991z" fill="url(#d)"/><path d="m11.6875 68.96875c-.955739.000408-1.8686489.422905-2.4902344 1.150391-.6215869.727489-.8895187 1.683205-.7402344 2.630859 4.2789748 26.897707 27.4471788 47.5625 55.5429688 47.5625 12.41208 0 23.810994-4.16399 33.097656-10.93359.772135-.56528 1.270608-1.4463 1.34375-2.39258.07318-.94678-.280401-1.87951-.960937-2.56055l-34.5-34.499999c-.616076-.615503-1.451411-.959366-2.322266-.957031a1.0001 1.0001 0 0 1 -.002 0z" fill="url(#F)" filter="url(#G)" transform="matrix(1.0175931 0 0 1.0175931 -2.045061 2.954437)"/><path d="m61.257085 5.5753693c-26.458539 0-48.161656 19.6005527-51.801098 45.0404057h47.201358l23.863079-41.3050461c-5.974255-2.3667463-12.449513-3.7353596-19.263339-3.7353596z" fill="url(#l)"/><path d="m101.81081 22.568984-23.120068 40.080964 32.281418 32.281425c6.56656-8.78379 10.55414-19.605903 10.55414-31.41481 0-16.592077-7.71938-31.29723-19.71549-40.947579z" fill="url(#k)"/><path d="m13.25409 78.202649c3.747555 23.557201 24.256122 41.901831 48.879945 41.901831 10.86253 0 20.799165-3.61041 28.952903-9.55416l-32.060185-32.06019z" fill="url(#j)"/><path d="m101.81081 22.568984-23.120068 40.080964 2.352241 2.352242c14.701645-1.512488 28.256167-4.606755 39.957167-8.882808-1.9191-13.528522-9.01247-25.363547-19.18934-33.550398z" fill="url(#h)"/><path d="m61.257085 5.5753693c-22.691476 0-41.87584 14.4226537-49.177086 34.5752257 24.583341-2.294752 46.109685-8.94787 61.216673-18.306347l7.223752-12.5335191c-5.974255-2.3667463-12.449513-3.7353596-19.263339-3.7353596z" fill="url(#i)"/><path d="m61.257085 5.5753693c-16.309499 0-30.803059 7.4660037-40.378926 19.1398577 9.577255-11.46027 23.934335-18.7385381 40.070218-18.7385381 6.813827 0 13.289084 1.3686127 19.26334 3.7353591l-7.038528 12.193941c.03857-.02381.085-.0379.123483-.06174l7.223752-12.5335201c-5.974255-2.3667463-12.449513-3.7353596-19.263339-3.7353596z" fill="url(#n)"/><path d="m101.81767 22.568984-23.120063 40.080964.123802.123802 22.903411-39.709558c10.06749 8.098857 17.11918 19.77021 19.12744 33.11709.0514-.0187.10346-.04316.15475-.0619-1.9191-13.528522-9.01247-25.363547-19.18934-33.550398z" fill="url(#m)"/><g fill="none" stroke-linecap="round" stroke-linejoin="round"><path d="m11.400238 73.890641c4.032747 25.349924 26.102039 45.090609 52.599762 45.090609 11.68918 0 22.382003-3.88517 31.15625-10.28125l-34.5-34.5z" filter="url(#q)" stroke="url(#p)" transform="matrix(.9292807 0 0 .9292807 2.660069 9.5375)"/><path d="m99.21875 22.21875-23.34375 40.46875 32.59375 32.59375c6.63009-8.868774 10.65625-19.795591 10.65625-31.71875 0-16.752607-7.79407-31.600033-19.90625-41.34375z" filter="url(#s)" stroke="url(#r)" transform="matrix(.9904177 0 0 .9904177 3.542803 .563142)"/><path d="m64 8.3375c-26.783594 0-48.753346 19.841356-52.4375 45.59375h47.78125l24.15625-41.8125c-6.047652-2.395823-12.602462-3.78125-19.5-3.78125z" filter="url(#u)" stroke="url(#t)" transform="matrix(.9878636 0 0 .9878636 -1.966186 -2.660943)"/></g><path d="m81.012918 8-7.365889 12.784847c-15.586469 9.655505-37.672219 16.579542-62.918318 19.112372-.124105.323391-.271179.647183-.389386.973465 25.840039-2.412059 48.46681-9.405286 64.346067-19.242167l7.593031-13.1742331c-.417875-.1655442-.843016-.2981463-1.265505-.4542839z" fill="url(#L)"/><path d="m101.8743 19.949531c.005.0046-.005.02864 0 .03319.31642.267332.65211.522584.96255.796592-.32238-.271235-.63412-.565577-.96255-.829782z" fill="url(#v)"/><path d="m102.59523 23.075347c9.24576 8.160792 15.62717 19.444419 17.44083 32.229649-11.75327 4.295155-25.364172 7.392648-40.123264 8.923214l.842401.842401c14.820157-1.52468 28.483943-4.64389 40.279263-8.954414-1.87634-13.227176-8.67235-24.823409-18.43923-33.04085z" fill="url(#J)"/><path d="m58.80024 78.594674 10.338249 10.338249c-14.101714 4.699417-30.801286 7.569665-48.787238 8.015046.156128.250209.30525.508844.46464.755041 18.163167-.407229 35.028679-3.275145 49.251879-8.015047l-11.093289-11.093289z" fill="url(#K)"/><path d="m79.260898 8.8785383-7.007657 12.1630707c-14.828439 9.185921-35.840074 15.773216-59.85836 18.182865-.118069.307662-.25799.615707-.370449.926121 24.58334-2.294752 46.109684-8.94787 61.216672-18.306347l7.223753-12.5335191c-.397551-.1574937-.802017-.2836465-1.203959-.4321906z" fill="url(#w)"/><g fill-rule="evenodd"><path d="m85.28125 6.4625-2.875 3.75.28125.65625 4.1875 1.53125c1.248093-2.302684.824176-4.301365-1.59375-5.9375z" fill="url(#x)" filter="url(#y)" transform="matrix(1.0383632 0 0 1.0383632 -4.366494 -2.15649)"/><path d="m97 19.75 3.125 3.6875.625-.25 2.125-3.6875c-1.86298-1.810986-3.690498-1.569499-5.875.25z" fill="url(#z)" filter="url(#A)" transform="matrix(1.0621221 0 0 1.0621221 -4.510503 -3.649494)"/><path d="m64.125746 71.961438-3.844893 3.005204-.707107-.486136.30936-4.375223c1.958506-.129684 3.221742.696628 4.24264 1.856155z" fill="url(#D)" filter="url(#E)" opacity=".648515" transform="matrix(1.0175931 0 0 1.0175931 -2.045061 1.02101)"/></g><path d="m13.264357 78.223183c1.107308 6.960566 3.928895 13.699017 7.603805 19.375283 18.16317-.407226 35.02868-3.275146 49.25188-8.015047l-11.093289-11.093289z" fill="url(#g)"/><path d="m13.242252 78.222962c.0093.05839.01955.115916.02904.17424l45.389556.278785 10.977129 10.698343c.06653-.02205.136866-.03595.203279-.05808l-11.093287-11.093288z" fill="url(#o)"/><g fill-rule="evenodd"><path d="m93.513864 19.838388 3.611136 3.599112.625-.25 2.036612-3.599112c-1.862982-1.810986-4.088246-1.569499-6.272748.25z" fill="url(#H)" filter="url(#A)" opacity=".539604" transform="matrix(1.0808081 0 0 -1.0808081 6.916889 121.56221)"/><path d="m85.458027 10.496209-3.051777 3.516291.28125.65625 4.077015 1.809153c1.248093-2.302684 1.111438-4.345559-1.306488-5.981694z" fill="url(#I)" filter="url(#y)" opacity=".613861" transform="matrix(1.0175931 0 0 -1.0175931 9.809899 125.89241)"/></g></g></svg>