<svg height="16" viewBox="0 0 4.2333333 4.2333334" width="16" xmlns="http://www.w3.org/2000/svg" xmlns:xlink="http://www.w3.org/1999/xlink"><linearGradient id="a" gradientTransform="matrix(.36111918 0 0 .36111917 -280.44128 196.31872)" gradientUnits="userSpaceOnUse" x1="778.88196" x2="778.88196" xlink:href="#b" y1="289.57986" y2="284.53162"/><linearGradient id="b"><stop offset="0" stop-color="#06f"/><stop offset="1" stop-color="#80b3ff"/></linearGradient><linearGradient id="c" gradientTransform="matrix(.35915571 0 0 .35915572 -278.87823 195.9106)" gradientUnits="userSpaceOnUse" x1="778" x2="778" xlink:href="#b" y1="295" y2="290"/><g font-family="Bitstream Vera Sans" font-size="3.175" transform="translate(0 -291.708317)"><text fill="none" stroke="url(#c)" stroke-linejoin="round" stroke-width=".529167" transform="scale(1.0218307 .9786357)" x=".199002" y="301.86154"><tspan style="font-weight:bold;font-size:1.566113;font-family:Liberation Sans;fill:none;stroke-width:.529167;stroke-linejoin:round;stroke:url(#c)" x=".199002" y="301.86154">2</tspan></text><text fill="#bfd9ff" stroke-width=".264583" x=".230221" y="295.41248"><tspan fill="#bfd9ff" font-family="Liberation Sans" font-size="1.532654" font-weight="bold" stroke-width=".264583" x=".230221" y="295.41248">2</tspan></text></g><g font-family="Bitstream Vera Sans" font-size="3.175" transform="translate(0 -292.237483)"><text stroke="url(#a)" stroke-linejoin="round" stroke-width=".529167" transform="scale(1.0236449 .97690126)" x=".161633" y="301.0433"><tspan style="font-weight:bold;font-size:1.574674;font-family:Liberation Sans;stroke-width:.529167;stroke-linejoin:round;stroke:url(#a)" x=".161633" y="301.0433">1</tspan></text><text fill="#bfd9ff" stroke-width=".264583" x=".194607" y="294.08957"><tspan fill="#bfd9ff" font-family="Liberation Sans" font-size="1.538301" font-weight="bold" stroke-width=".264583" x=".194607" y="294.08957">1</tspan></text></g><g fill="#404040" fill-opacity=".839216" transform="translate(0 -292.76665)"><path d="m3.96875 293.5604-2.1166668-.00001v.26459l2.1166668.00001z" stroke-width=".125"/><path d="m3.4395832 294.08956h-1.5874999v.26458h1.5874999z" stroke-width=".125"/><g transform="matrix(-.125 0 0 .125 0 259.87498)"><path d="m-31.749998 284.30007 16.933334-.00008v2.1167h-16.933336z"/><path d="m-27.516665 288.53333h12.699999v2.11669h-12.699999z"/></g></g></svg>