<svg height="16" width="16" xmlns="http://www.w3.org/2000/svg" xmlns:xlink="http://www.w3.org/1999/xlink"><linearGradient id="a" gradientTransform="matrix(.30523238 0 0 1.3043803 6.372135 -.351998)" gradientUnits="userSpaceOnUse" x1="46.048" x2="46.048" y1="128.01709" y2="16.6203"><stop offset="0" stop-color="#c7cdd7"/><stop offset="1" stop-color="#fff"/></linearGradient><linearGradient id="b" gradientUnits="userSpaceOnUse" x1="67.266975" x2="67.266975" y1="288.20084" y2="-56"><stop offset="0"/><stop offset="1" stop-color="#fff"/></linearGradient><linearGradient id="c" gradientTransform="matrix(-1 0 0 1 154.9807 67.757363)" gradientUnits="userSpaceOnUse" x1="71.227066" x2="28.9296" y1="10.599652" y2="70.897705"><stop offset="0" stop-color="#bbd6ff"/><stop offset="1" stop-color="#0057ae"/></linearGradient><linearGradient id="d" gradientTransform="matrix(1.037037 0 0 1.2158938 -.296299 -21.49932)" gradientUnits="userSpaceOnUse" x1="8" x2="80" y1="36" y2="112"><stop offset="0" stop-color="#c8ffa5"/><stop offset="1" stop-color="#dfffcb"/></linearGradient><linearGradient id="e" gradientUnits="userSpaceOnUse" x1="67.266975" x2="67.266975" y1="288.20084" y2="-56"><stop offset="0" stop-color="#48940b" stop-opacity=".831373"/><stop offset="1" stop-color="#48940b" stop-opacity=".831373"/></linearGradient><linearGradient id="f" gradientTransform="matrix(5.4921716 0 0 -5.4921716 -467.24293 446.32459)" gradientUnits="userSpaceOnUse" x1="101.99715" x2="104" y1="83.220375" y2="57.11084"><stop offset="0" stop-color="#d4e2f3"/><stop offset="1" stop-color="#fff" stop-opacity="0"/></linearGradient><linearGradient id="g" gradientUnits="userSpaceOnUse" x1="46.825066" x2="123.00084" y1="77.669472" y2="77.669472"><stop offset="0" stop-color="#2c72c7"/><stop offset="1" stop-color="#00438a"/></linearGradient><g transform="scale(.125)"><path d="m8 8h31.743378v104.4853h-31.743378z" fill="url(#a)"/><path d="m17.4543 128h116v4h-116z" fill="#fff" opacity=".262911"/><path d="m0 8v4.707031 19.292969 4 20 4.199219 19.800781 4 24.11328 3.88672h8 32 8 .03906v-3.88672h-.03906v-24.11328h.03906v-4h-.03906v-19.800781h.03906v-4.199219h-.03906v-20h.03906v-.101562h79.96094v-27.898438h-120zm8 4.707031h32v19.292969h-32zm40 0h32v19.292969h-32zm40 0h32v19.292969h-32zm-80 23.292969h32v20h-32zm0 24.199219h32v19.800781h-32zm0 23.800781h32v24.11328h-32z" fill="url(#b)"/><path d="m8 12.5457h112v19.4543h-112z" fill="url(#d)"/><path d="m0 8v4.707031 19.292969 4h8 32 8 .03906v-.101562h79.96094v-27.898438h-120zm8 4.707031h32v19.292969h-32zm40 0h32v19.292969h-32zm40 0h32v19.292969h-32z" fill="url(#e)"/><path d="m12.5625 2.0019531a1.7514399 1.7514399 0 0 0 -1.302734.6289063l-1.5585941 1.8691406h5.8085941l-1.558594-1.8691406a1.7514399 1.7514399 0 0 0 -1.388672-.6289063zm-6.5625 6.2421875-2.1191406 1.7656254a1.7514399 1.7514399 0 0 0 0 2.691406l2.1191406 1.765625z" fill="#fff" fill-opacity=".870588" transform="scale(8)"/><g transform="matrix(1.0829116 0 0 1.0829116 -10.697781 -12.853721)"><path d="m103.00085 39.581578-20.000003 24 16-3.824219c4.320943 36.554361-15.129056 32.049812-32 32l3.824219-16-24 20 24 20.000001-3.824219-16c29.28178 3.57202 44.038973-8.252026 40.000003-40.000001l16 3.824219z" fill="none" stroke="url(#g)" stroke-linecap="round" stroke-linejoin="round" stroke-width="10"/><g fill-rule="evenodd"><path d="m103.00085 39.581578-20.000003 24 16-3.824219c4.320943 36.554361-15.129056 32.049812-32 32l3.824219-16-24 20 24 20.000001-3.824219-16c29.28178 3.57202 44.038973-8.252026 40.000003-40.000001l16 3.824219z" fill="url(#c)"/><path d="m103.00074 39.582031-20.000006 24 16.000003-3.824219c1.743563 14.750261-.38617 22.809901-4.65235 27.179688 3.70511-1.003936 7.387903-2.031766 11.048833-3.082031 2.28912-6.17274 2.86803-14.158062 1.60352-24.097657l16 3.824219z" fill="url(#f)"/></g></g></g></svg>