<svg height="16" viewBox="0 0 4.2333333 4.2333335" width="16" xmlns="http://www.w3.org/2000/svg" xmlns:xlink="http://www.w3.org/1999/xlink"><radialGradient id="a" cx="-32" cy="9.6" gradientTransform="matrix(.11920158 .11920158 -.59600795 .59600795 13.01637 -1.457733)" gradientUnits="userSpaceOnUse" r="5.6"><stop offset="0" stop-color="#a50606"/><stop offset="1" stop-color="#f20909"/></radialGradient><linearGradient id="b" gradientTransform="matrix(-.84615404 0 0 -.80489557 31.261552 244.46168)" gradientUnits="userSpaceOnUse" x1="0" x2="31.942419" y1="294.88333" y2="274.79138"><stop offset="0" stop-color="#5499ff"/><stop offset=".11366145" stop-color="#5a9cff"/><stop offset=".20296694" stop-color="#80b3ff"/><stop offset=".21468808" stop-color="#7aafff"/><stop offset=".2560246" stop-color="#80b3ff"/><stop offset=".5313" stop-color="#80b3ff"/><stop offset=".8449" stop-color="#80b3ff"/><stop offset="1" stop-color="#80b3ff"/></linearGradient><filter id="c" color-interpolation-filters="sRGB" height="1.0264" width="1.022" x="-.011" y="-.0132"><feGaussianBlur stdDeviation=".1200918"/></filter><filter id="d" color-interpolation-filters="sRGB" height="1.132" width="1.11" x="-.055" y="-.066"><feGaussianBlur stdDeviation=".600459"/></filter><filter id="e" color-interpolation-filters="sRGB" height="1.0528" width="1.044" x="-.022" y="-.0264"><feGaussianBlur stdDeviation=".2401836"/></filter><g transform="scale(.125)"><path d="m2.4287318 271.26587h29.0092052v21.83486h-29.0092052z" fill="#a4a4a4" filter="url(#d)" transform="matrix(-1.09448 0 0 -1.09448 35.466532 325.77731)"/><path d="m1.8599554 271.26588h30.1467556v21.83486h-30.1467556z" fill="#949494" filter="url(#c)" transform="matrix(-1.0531812 0 0 -1.0531812 34.767212 314.12347)"/><path d="m1.7325692 271.26588h30.4015288v21.83486h-30.4015288z" fill="#313131" filter="url(#e)" transform="matrix(-1.0080161 0 0 -1.0080161 34.002412 301.37864)"/><path d="m31.750012 27.51664h-29.63334v-21.16664h29.63334z" fill="#80b3ff" opacity=".99"/><path d="m28.575012 24.34164h-23.28334v-14.81666h23.28334z" fill="url(#b)" opacity=".99"/><g fill="#eee" transform="translate(0 -263.13332)"><path d="m29.633342 288.5333h-1.05833v-16.93333h1.05833z"/><path d="m5.291682 288.5333h-1.05834v-16.93333h1.05834z"/><path d="m28.575002 287.47498v1.05833h-23.28333v-1.05833z"/><path d="m28.575002 271.59995v1.05833h-23.28333v-1.05833z"/><path d="m28.574996 276.89166v1.05833h-23.2833295v-1.05833z"/></g></g><g stroke-width=".033073" transform="translate(-2.122263)"><path d="m1.421875 3 .4765625.4785156-.8769531.8789063-.72265628.7207031a1.0200496 1.0200496 0 0 0 -.29882812.7363281 1.0200496 1.0200496 0 0 0 .29882812.7070313l.72265628.7207031.4355468.4375h.0019532a1.0200496 1.0200496 0 0 0 .0273437.0253906 1.0200496 1.0200496 0 0 0 .0351563.03125 1.0200496 1.0200496 0 0 0 .0117187.0117188 1.0200496 1.0200496 0 0 0 .0585938.0429687 1.0200496 1.0200496 0 0 0 .0859375.0546875 1.0200496 1.0200496 0 0 0 .0898437.0449219 1.0200496 1.0200496 0 0 0 .0957031.0371094 1.0200496 1.0200496 0 0 0 .0742188.0214844 1.0200496 1.0200496 0 0 0 .0234375.0058593 1.0200496 1.0200496 0 0 0 .0117187.0019531 1.0200496 1.0200496 0 0 0 .0878907.0136719 1.0200496 1.0200496 0 0 0 .0019531 0 1.0200496 1.0200496 0 0 0 .0722656.0058594 1.0200496 1.0200496 0 0 0 .0449219.0019531 1.0200496 1.0200496 0 0 0 .0722656-.0039062 1.0200496 1.0200496 0 0 0 .0136719 0 1.0200496 1.0200496 0 0 0 .0039062 0 1.0200496 1.0200496 0 0 0 .0722657-.0097656 1.0200496 1.0200496 0 0 0 .0253906-.0039063 1.0200496 1.0200496 0 0 0 .0566406-.0136719 1.0200496 1.0200496 0 0 0 .0429688-.0097656 1.0200496 1.0200496 0 0 0 .0097656-.0039062 1.0200496 1.0200496 0 0 0 .0585937-.0195313 1.0200496 1.0200496 0 0 0 .0273438-.0097656 1.0200496 1.0200496 0 0 0 .0273438-.0117188 1.0200496 1.0200496 0 0 0 .0644531-.03125 1.0200496 1.0200496 0 0 0 .0253906-.0136719 1.0200496 1.0200496 0 0 0 .0625-.0390624 1.0200496 1.0200496 0 0 0 .0234375-.015625 1.0200496 1.0200496 0 0 0 .0585938-.0449219 1.0200496 1.0200496 0 0 0 .0761718-.0683594l1.5996094-1.5996094 1.5996094 1.5996094a1.0200496 1.0200496 0 0 0 .0761718.0683594 1.0200496 1.0200496 0 0 0 .0742188.0546875 1.0200496 1.0200496 0 0 0 .0273438.0175781 1.0200496 1.0200496 0 0 0 .0585937.0351563 1.0200496 1.0200496 0 0 0 .0410156.0195312 1.0200496 1.0200496 0 0 0 .046875.0234375 1.0200496 1.0200496 0 0 0 .0410157.015625 1.0200496 1.0200496 0 0 0 .0585937.0195313 1.0200496 1.0200496 0 0 0 .0820313.0214843 1.0200496 1.0200496 0 0 0 .0097656.0019531 1.0200496 1.0200496 0 0 0 .0429687.0078126 1.0200496 1.0200496 0 0 0 .0722657.0097656 1.0200496 1.0200496 0 0 0 .0175781 0 1.0200496 1.0200496 0 0 0 .0722656.0039062 1.0200496 1.0200496 0 0 0 .0449219-.0019531 1.0200496 1.0200496 0 0 0 .0722656-.0058594 1.0200496 1.0200496 0 0 0 .0019531 0 1.0200496 1.0200496 0 0 0 .0878907-.0136719 1.0200496 1.0200496 0 0 0 .0117187-.0019531 1.0200496 1.0200496 0 0 0 .0234375-.0058593 1.0200496 1.0200496 0 0 0 .0742188-.0214844 1.0200496 1.0200496 0 0 0 .0957031-.0371094 1.0200496 1.0200496 0 0 0 .0898437-.0449219 1.0200496 1.0200496 0 0 0 .0859375-.0546875 1.0200496 1.0200496 0 0 0 .0703125-.0546875 1.0200496 1.0200496 0 0 0 .0117188-.0078125 1.0200496 1.0200496 0 0 0 .0507812-.0488281l.4375-.4375.7226563-.7207031a1.0200496 1.0200496 0 0 0 .2988281-.7070313 1.0200496 1.0200496 0 0 0 -.2988281-.7363281l-.7226563-.7207031-.8769531-.8789063.4765625-.4785156z" fill="#fff" fill-opacity=".870588" stroke-width=".125" transform="matrix(.26458334 0 0 .26458334 2.122263 0)"/><path d="m3.9186605.01107519-.6139549.61395471-.6139548-.61395471-.3065493.30654922.6139548.61395473-.6139548.61395506.3065493.3065492.6139548-.6139547.6139549.6139547.3065492-.3065492-.6139547-.61395506.6139547-.61395473z" fill="url(#a)"/></g></svg>