<svg height="16" width="16" xmlns="http://www.w3.org/2000/svg" xmlns:xlink="http://www.w3.org/1999/xlink"><filter id="a" color-interpolation-filters="sRGB" height="1.072142" width="1.071866" x="-.035933" y="-.036071"><feGaussianBlur stdDeviation=".66434216"/></filter><radialGradient id="b" cx="-55.685837" cy="-347.11612" gradientTransform="matrix(-.91762954 -.24587809 .26650439 -.99460792 -14.509941 -705.18366)" gradientUnits="userSpaceOnUse" r="22.14249"><stop offset="0" stop-color="#82c133"/><stop offset="1" stop-color="#72b028"/></radialGradient><linearGradient id="c" gradientUnits="userSpaceOnUse" x1="328.12448" x2="336.98077" y1="120.81158" y2="87.759453"><stop offset="0" stop-color="#96ff00"/><stop offset="1" stop-color="#609800"/></linearGradient><clipPath id="d"><circle cx="343.91208" cy="92.325096" r="36" transform="matrix(.86602539 .50000002 .49999965 -.86602561 0 0)"/></clipPath><filter id="e"><feGaussianBlur stdDeviation="2.8805897"/></filter><radialGradient id="f" cx="343.99899" cy="92" gradientTransform="matrix(.46130197 0 0 .46130166 -219.03541 -372.17548)" gradientUnits="userSpaceOnUse" r="36"><stop offset="0" stop-color="#e5ff00"/><stop offset="1" stop-color="#bff500" stop-opacity="0"/></radialGradient><linearGradient id="g" gradientUnits="userSpaceOnUse" x1="122.00004" x2="122.00004" y1="61.999996" y2="9.932843"><stop offset="0" stop-color="#314d00" stop-opacity="0"/><stop offset=".5" stop-color="#194d00"/><stop offset="1" stop-color="#2d4d00" stop-opacity="0"/></linearGradient><filter id="h"><feGaussianBlur stdDeviation="1.04"/></filter><linearGradient id="i" gradientTransform="matrix(.1133598 0 0 .1691546 .642795 -76.95463)" gradientUnits="userSpaceOnUse" x1="417.76013" x2="417.76013" y1="691.40674" y2="549.52472"><stop offset="0" stop-color="#cbcbcd"/><stop offset=".5" stop-color="#e0e0e2"/><stop offset="1" stop-color="#fff"/></linearGradient><filter id="j"><feGaussianBlur stdDeviation="2.4"/></filter><linearGradient id="k" gradientTransform="matrix(1.25 0 0 1 -145.53581 -244.8761)" gradientUnits="userSpaceOnUse" x1="167.62865" x2="167.62865" y1="340.8761" y2="308.8761"><stop offset="0" stop-color="#cbcbcd"/><stop offset=".66545075" stop-color="#e0e0e2"/><stop offset="1" stop-color="#fff"/></linearGradient><linearGradient id="l" gradientTransform="matrix(0 .51133072 -.51133109 0 76.138665 324.51289)" gradientUnits="userSpaceOnUse" x1="-80.00296" x2="-45.096584" y1="-131.93112" y2="-131.93112"><stop offset="0" stop-color="#fff"/><stop offset="1" stop-color="#fff" stop-opacity="0"/></linearGradient><g transform="scale(.125)"><rect filter="url(#j)" height="112.96648" opacity=".4" rx="1.85197" ry="2.186269" transform="matrix(1 0 0 .9333333 -79.62865 -205.35101)" width="120" x="83.628647" y="232.8761"/><rect fill="url(#i)" height="96" rx=".000001" width="112" x="7.999997" y="15.999999"/><rect fill-opacity=".16763" height="24.000002" rx=".000002" ry=".000001" width="96" x="15.999997" y="31.999998"/><rect fill="#fff" height="16.000002" rx=".000002" ry="0" width="80" x="23.999996" y="40"/><rect fill-opacity=".375" height="32.000004" rx=".000002" ry=".000001" transform="scale(1 -1)" width="80" x="23.999996" y="-104"/><rect fill="url(#k)" height="24.000002" rx=".000002" ry=".000001" width="80" x="23.999996" y="72"/><g stroke-width=".657006" transform="translate(-79.62865 -236.8761)"><path d="m124.41114 328.26396q-2.5229-2.81199-2.5229-7.22707 0-4.41508 2.5229-7.22706 2.54918-2.81198 6.67518-2.81198 4.15228 0 6.70146 2.81198 2.54918 2.7857 2.54918 7.35846 0 4.2574-2.5229 7.09567-2.49662 2.81198-6.70146 2.81198-4.17856 0-6.70146-2.81198zm6.70146-13.90225q-2.3915 0-3.83691 1.83962-1.44542 1.81334-1.44542 4.83556 0 3.02223 1.44542 4.86185 1.44541 1.81333 3.83691 1.81333 2.36522 0 3.81063-1.81333 1.4717-1.81334 1.4717-4.75673 0-3.10106-1.44542-4.94068-1.41913-1.83962-3.83691-1.83962z"/><path d="m152.41291 324.05912v6.41238h-3.94203v-19.15829h3.94203v8.40967l7.48987-8.40967h4.6516l-7.64755 8.25199 8.46224 10.9063h-4.70416l-6.28098-8.46224z"/></g></g><g transform="matrix(.20938731 0 0 .20938731 -18.76877 -58.739049)"><ellipse cx="-217.13077" cy="255.38551" fill="none" rx="22.14249" ry="22.142477" stroke-width=".615069" transform="matrix(-.96592586 -.2588189 -.25881915 .9659258 0 0)"/><ellipse cx="-59.830322" cy="-331.66757" fill="#292929" filter="url(#a)" rx="22.14249" ry="22.142477" transform="matrix(-.93421983 .2432797 -.25032328 -.9079328 4.714699 17.679705)"/><ellipse cx="-60.347961" cy="-329.73572" fill="url(#b)" rx="21.035366" ry="21.035353" transform="matrix(-.96592587 .25881888 -.25881888 -.96592587 0 0)"/><circle cx="343.99899" cy="92" r="36" style="opacity:.8;fill:none;stroke-width:6.751382;clip-path:url(#d);stroke:url(#c);filter:url(#e)" transform="matrix(-.56440567 -.15123195 -.151232 .56440527 351.70189 302.97936)"/><ellipse cx="-60.347996" cy="-329.73572" fill="url(#f)" rx="16.606871" ry="16.606859" stroke-width=".461302" transform="matrix(-.96592583 .25881905 -.25881905 -.96592583 0 0)"/><path d="m143.63359 283.60495c-7.85231 0-14.41363 5.54478-15.99508 12.92708 3.15226 2.93856 9.13349 4.92155 15.99508 4.92155 6.86158 0 12.8428-1.98299 15.99506-4.92155-1.58145-7.3823-8.14276-12.92708-15.99506-12.92708z" fill="url(#l)" opacity=".8" stroke-width=".852104"/><path d="m120.01465 21.014613v13h-11.12625v3.970777h11.12625v11.061281h3.97076v-11.061281h11.12626v-3.970777h-11.12626v-13z" style="fill:none;stroke-width:4;stroke-linecap:round;stroke-linejoin:round;stroke:url(#g);filter:url(#h)" transform="matrix(1.2316998 0 0 1.2316998 -6.63385 260.53982)"/><path d="m140.03421 285.26955v13.70421h-13.7042v7.1987h13.7042v13.7042h7.1987v-13.7042h13.70421v-7.1987h-13.70421v-13.70421z" fill="#fff" fill-rule="evenodd"/></g></svg>