<svg height="16" viewBox="0 0 4.2333333 4.2333335" width="16" xmlns="http://www.w3.org/2000/svg" xmlns:xlink="http://www.w3.org/1999/xlink"><linearGradient id="a" gradientTransform="matrix(.06470556 0 0 .11021838 95.499827 172.30263)" gradientUnits="userSpaceOnUse" x1="399.77466" x2="399.77466" y1="731.09662" y2="480.60214"><stop offset="0" stop-color="#cbcbcd"/><stop offset=".5" stop-color="#e0e0e2"/><stop offset="1" stop-color="#f2f2f2"/></linearGradient><linearGradient id="b" gradientTransform="matrix(.06470556 0 0 .11021838 159.13243 395.2449)" gradientUnits="userSpaceOnUse" x1="-333.0289" x2="-333.0289" y1="-1473.6504" y2="-776.61371"><stop offset="0" stop-color="#fff"/><stop offset=".49140647" stop-color="#fff"/><stop offset="1" stop-color="#dcdcdc"/></linearGradient><filter id="c" color-interpolation-filters="sRGB" height="1.229111" width="1.16223" x="-.081115" y="-.114556"><feGaussianBlur stdDeviation="1.0146845"/></filter><linearGradient id="d" gradientUnits="userSpaceOnUse" x1="28" x2="28" y1="57.5" y2="0"><stop offset="0" stop-color="#ffea00"/><stop offset="1" stop-color="#fc0"/></linearGradient><linearGradient id="e" gradientUnits="userSpaceOnUse" x1="32.009361" x2="32.009361" y1="34.594795" y2="9.844794"><stop offset="0" stop-color="#fff8a8"/><stop offset="1" stop-color="#fff" stop-opacity="0"/></linearGradient><g transform="matrix(.171875 0 0 .171875 .264624 -47.078127)"><path d="m4.6178982 280.06668v-3.07879-1.53892h1.5394411l6.1575757-.00047v1.53892l-6.1575757.00047v3.07879z" fill="#06f"/><path d="m4.6178983 287.76365.0000444 4.61836v1.53893h1.539441l15.3937083.00012v-1.53893l-15.3937083-.00012-.0000444-4.61836z" fill="#06f"/><g transform="matrix(.24052605 0 0 .24052605 9.237006 272.3691)"><g transform="matrix(.857143 0 0 .857143 7.999999 7.999999)"><g fill="none" stroke="#bf5e00" stroke-linejoin="round"><path d="m3.751 42 10.811-10.399-14.562-3.601 14.562-3.601-10.811-10.399 14.412 4.163-4.163-14.412 10.399 10.811 3.601-14.562 3.601 14.562 10.399-10.811-4.163 14.412 14.412-4.163-10.811 10.399 14.562 3.601-14.562 3.601 10.811 10.399-14.412-4.163 4.163 14.412-10.399-10.811-3.601 14.562-3.601-14.562-10.399 10.811 4.163-14.412z" opacity=".1" stroke-width="18.666664"/><path d="m3.751 42 10.811-10.399-14.562-3.601 14.562-3.601-10.811-10.399 14.412 4.163-4.163-14.412 10.399 10.811 3.601-14.562 3.601 14.562 10.399-10.811-4.163 14.412 14.412-4.163-10.811 10.399 14.562 3.601-14.562 3.601 10.811 10.399-14.412-4.163 4.163 14.412-10.399-10.811-3.601 14.562-3.601-14.562-10.399 10.811 4.163-14.412z" opacity=".15" stroke-width="13.999998"/><path d="m3.751 42 10.811-10.399-14.562-3.601 14.562-3.601-10.811-10.399 14.412 4.163-4.163-14.412 10.399 10.811 3.601-14.562 3.601 14.562 10.399-10.811-4.163 14.412 14.412-4.163-10.811 10.399 14.562 3.601-14.562 3.601 10.811 10.399-14.412-4.163 4.163 14.412-10.399-10.811-3.601 14.562-3.601-14.562-10.399 10.811 4.163-14.412z" opacity=".2" stroke-width="9.333332"/><path d="m3.751 42 10.811-10.399-14.562-3.601 14.562-3.601-10.811-10.399 14.412 4.163-4.163-14.412 10.399 10.811 3.601-14.562 3.601 14.562 10.399-10.811-4.163 14.412 14.412-4.163-10.811 10.399 14.562 3.601-14.562 3.601 10.811 10.399-14.412-4.163 4.163 14.412-10.399-10.811-3.601 14.562-3.601-14.562-10.399 10.811 4.163-14.412z" opacity=".25" stroke-width="4.666666"/></g><path d="m3.751 42 10.811-10.399-14.562-3.601 14.562-3.601-10.811-10.399 14.412 4.163-4.163-14.412 10.399 10.811 3.601-14.562 3.601 14.562 10.399-10.811-4.163 14.412 14.412-4.163-10.811 10.399 14.562 3.601-14.562 3.601 10.811 10.399-14.412-4.163 4.163 14.412-10.399-10.811-3.601 14.562-3.601-14.562-10.399 10.811 4.163-14.412z" fill="url(#d)"/></g><path d="m32.009361 9.8447961-2.855769 11.5096159-8.221155-8.538462 3.288462 11.394232-11.394232-3.288462 8.538462 8.221155-6.605769 1.644231c4.587209 2.366121 10.631485 3.807692 17.250001 3.807692 6.618516-.000001 12.633945-1.441571 17.221155-3.807692l-6.605769-1.644231 8.567308-8.221155-11.423078 3.288462 3.317308-11.394232-8.250001 8.538462z" fill="url(#e)"/></g><g transform="matrix(.38484969 0 0 .38484969 -38.342368 199.68083)"><path d="m124.97348 244.87477h27.25635c.76597 0 1.38264.72808 1.38261 1.63246l-.00056 17.99325c-.00003.90439-.61664 1.63247-1.38261 1.63247h-27.25635c-.76596 0-1.38264-.72808-1.38261-1.63247l.00056-17.99325c.00003-.90438.61665-1.63246 1.38261-1.63246z" style="opacity:.6;fill:none;stroke:#000;stroke-width:4.612318;stroke-linecap:round;stroke-linejoin:round;stroke-dashoffset:4;filter:url(#c)" transform="matrix(.79911685 0 0 .9411767 32.87024 2.398693)"/><path d="m132.73422 232.87011h21.78989c.61218 0 1.10504.68523 1.10502 1.53639l-.00046 16.93292h-23.99992l.00045-16.93292c.00002-.85116.49283-1.53639 1.10502-1.53639z" fill="url(#a)"/><path d="m137.53243 250.21906v-1.80834z" fill="#fff" fill-opacity=".756881"/><path d="m132.72798 232.87011c-.61218 0-1.09876.67825-1.09878 1.52941l-.00045 16.94688c-.00002.85117.4866 1.52942 1.09878 1.52942h21.80236c.61219 0 1.09876-.67825 1.09878-1.52942l.00046-16.94688c.00002-.85116-.48659-1.52941-1.09878-1.52941zm.74917 2.29411h20.30403c.58157 0 1.04886.64256 1.04884 1.44118l-.00046 13.88806c-.00002.79863-.46727 1.44118-1.04884 1.44118h-20.30402c-.58157 0-1.04887-.64255-1.04884-1.44118l.00045-13.88806c.00003-.79862.46727-1.44118 1.04884-1.44118z" fill="url(#b)"/><path d="m131.6292 244.87584h23.99993l-.00046 7.99998h-23.99992z" fill="#fff"/></g><g transform="matrix(.38484969 0 0 .38484969 -50.65752 190.44447)"><path d="m124.97348 244.87477h27.25635c.76597 0 1.38264.72808 1.38261 1.63246l-.00056 17.99325c-.00003.90439-.61664 1.63247-1.38261 1.63247h-27.25635c-.76596 0-1.38264-.72808-1.38261-1.63247l.00056-17.99325c.00003-.90438.61665-1.63246 1.38261-1.63246z" style="opacity:.6;fill:none;stroke:#000;stroke-width:4.612318;stroke-linecap:round;stroke-linejoin:round;stroke-dashoffset:4;filter:url(#c)" transform="matrix(.79911685 0 0 .9411767 32.87024 2.398693)"/><path d="m132.73422 232.87011h21.78989c.61218 0 1.10504.68523 1.10502 1.53639l-.00046 16.93292h-23.99992l.00045-16.93292c.00002-.85116.49283-1.53639 1.10502-1.53639z" fill="url(#a)"/><path d="m137.53243 250.21906v-1.80834z" fill="#fff" fill-opacity=".756881"/><path d="m132.72798 232.87011c-.61218 0-1.09876.67825-1.09878 1.52941l-.00045 16.94688c-.00002.85117.4866 1.52942 1.09878 1.52942h21.80236c.61219 0 1.09876-.67825 1.09878-1.52942l.00046-16.94688c.00002-.85116-.48659-1.52941-1.09878-1.52941zm.74917 2.29411h20.30403c.58157 0 1.04886.64256 1.04884 1.44118l-.00046 13.88806c-.00002.79863-.46727 1.44118-1.04884 1.44118h-20.30402c-.58157 0-1.04887-.64255-1.04884-1.44118l.00045-13.88806c.00003-.79862.46727-1.44118 1.04884-1.44118z" fill="url(#b)"/><path d="m131.6292 244.87584h23.99993l-.00046 7.99998h-23.99992z" fill="#fff"/></g></g></svg>