<svg height="16" viewBox="0 0 4.2333333 4.2333335" width="16" xmlns="http://www.w3.org/2000/svg" xmlns:xlink="http://www.w3.org/1999/xlink"><linearGradient id="a" gradientTransform="matrix(2.9758551 0 0 2.9758549 -2309.4946 -578.87404)" gradientUnits="userSpaceOnUse" x1="778.88196" x2="778.88196" xlink:href="#b" y1="289.57986" y2="284.53162"/><linearGradient id="b"><stop offset="0" stop-color="#06f"/><stop offset="1" stop-color="#80b3ff"/></linearGradient><linearGradient id="c" gradientUnits="userSpaceOnUse" x1="5.882862" x2="5.621286" xlink:href="#b" y1="294.754239" y2="278.863507"/><g transform="matrix(.125 0 0 .125 0 -32.89167)"><path d="m-31.856726 269.48331h17.04006v2.116696h-17.04006z" fill="#404040" fill-opacity=".839216" transform="scale(-1 1)"/><path d="m-27.516666 273.71664h12.699999v2.116692h-12.699999z" fill="#404040" fill-opacity=".839216" transform="scale(-1 1)"/><g font-family="Bitstream Vera Sans" font-size="26.164047"><text fill="none" stroke="url(#c)" stroke-linejoin="round" stroke-width="4.360674" transform="scale(1.0218307 .9786357)" x="3.163329" y="298.44107"><tspan style="font-weight:bold;font-size:12.905779;font-family:Liberation Sans;fill:none;stroke-width:4.360674;stroke-linejoin:round;stroke:url(#c)" x="3.163329" y="298.44107">2</tspan></text><text fill="#bfd9ff" stroke-width="2.180337" x="3.453858" y="292.06509"><tspan fill="#bfd9ff" font-family="Liberation Sans" font-size="12.630056" font-weight="bold" stroke-width="2.180337" x="3.453858" y="292.06509">2</tspan></text><text stroke="url(#a)" stroke-linejoin="round" stroke-width="4.360674" transform="scale(1.0236449 .97690126)" x="2.854235" y="284.12396"><tspan style="font-weight:bold;font-size:12.976333;font-family:Liberation Sans;stroke-width:4.360674;stroke-linejoin:round;stroke:url(#a)" x="2.854235" y="284.12396">1</tspan></text><text fill="#bfd9ff" stroke-width="2.180337" x="3.161938" y="277.56085"><tspan fill="#bfd9ff" font-family="Liberation Sans" font-size="12.676597" font-weight="bold" stroke-width="2.180337" x="3.161938" y="277.56085">1</tspan></text></g><g fill="#404040" fill-opacity=".839216" transform="scale(-1 1)"><path d="m-31.856724 284.29999h17.04006v2.116696h-17.04006z"/><path d="m-27.516665 288.53333h12.699999v2.116692h-12.699999z"/></g></g></svg>