<svg height="16" width="16" xmlns="http://www.w3.org/2000/svg" xmlns:xlink="http://www.w3.org/1999/xlink"><linearGradient id="a" gradientTransform="matrix(2.5599786 0 0 2.5618328 317.24891 -4847.794)" gradientUnits="userSpaceOnUse" x1="-97.742668" x2="-97.742668" y1="1937.9885" y2="1895.421"><stop offset="0" stop-color="#141313"/><stop offset=".33497536" stop-color="#2b292a"/><stop offset=".63281107" stop-color="#3f3e3e"/><stop offset="1" stop-color="#6b696a"/></linearGradient><radialGradient id="b" cx="100.16534" cy="37.468983" gradientTransform="matrix(4.8110826 .00000075 -.00000031 1.9257147 -441.90372 -88.154647)" gradientUnits="userSpaceOnUse" r="38"><stop offset="0" stop-color="#d0ced9"/><stop offset=".25" stop-color="#ecf1f9"/><stop offset=".5" stop-color="#fff"/><stop offset="1" stop-color="#c6d5e3"/></radialGradient><linearGradient id="c" gradientUnits="userSpaceOnUse" x1="47.608696" x2="47.608696" xlink:href="#d" y1="104.35009" y2="176.35008"/><linearGradient id="d"><stop offset="0"/><stop offset="1" stop-opacity="0"/></linearGradient><clipPath id="e"><path d="m18.189713 132.42089c-1.419208 0-2.5625 1.1433-2.5625 2.5625v37.18328h72.000002v-37.18328c0-1.4192-1.14329-2.5625-2.5625-2.5625z"/></clipPath><filter id="f" height="1.240511" width="1.138013" x="-.069006" y="-.120256"><feGaussianBlur stdDeviation="1.9228365"/></filter><radialGradient id="g" cx="84" cy="91.983192" gradientTransform="matrix(1 0 0 .6210279 0 37.87587)" gradientUnits="userSpaceOnUse" r="32" xlink:href="#h"/><linearGradient id="h"><stop offset="0" stop-color="#fff"/><stop offset="1" stop-color="#fff" stop-opacity="0"/></linearGradient><linearGradient id="i" gradientUnits="userSpaceOnUse" x1="68" x2="36" xlink:href="#d" y1="120" y2="84"/><filter id="j" height="1.185769" width="1.247692" x="-.123846" y="-.092885"><feGaussianBlur stdDeviation="1.2384615"/></filter><linearGradient id="k" gradientUnits="userSpaceOnUse" x1="89.604729" x2="114.175" xlink:href="#h" y1="42.336197" y2="106.7981"/><filter id="l"><feGaussianBlur stdDeviation=".0231875"/></filter><linearGradient id="m" gradientUnits="userSpaceOnUse" x1="87.693916" x2="91.051781" xlink:href="#d" y1="100.83184" y2="100.83184"/><filter id="n" height="1.045223" width="1.50979" x="-.254895" y="-.022612"><feGaussianBlur stdDeviation=".35662617"/></filter><linearGradient id="o" gradientTransform="matrix(1 0 0 .9968924 0 -.225228)" gradientUnits="userSpaceOnUse" x1="52" x2="52" y1="112" y2="80"><stop offset="0" stop-color="#8a8a8a"/><stop offset="1" stop-color="#c6c6c6"/></linearGradient><clipPath id="p"><rect height="12" rx="1.079258" width="8" x="12" y="12"/></clipPath><filter id="q" height="1.203077" width="1.293333" x="-.146667" y="-.101538"><feGaussianBlur stdDeviation=".55"/></filter><radialGradient id="r" cx="16" cy="18" gradientTransform="matrix(1 0 0 1.5 0 -9)" gradientUnits="userSpaceOnUse" r="4"><stop offset="0" stop-color="#7a7a7a"/><stop offset="1" stop-opacity=".490909"/></radialGradient><linearGradient id="s" gradientUnits="userSpaceOnUse" x1="16" x2="16" xlink:href="#d" y1="1.595278" y2="18.75548"/><clipPath id="t"><rect height="12" rx="1.079258" width="8" x="12" y="12"/></clipPath><radialGradient id="u" cx="16.03512" cy="19.494249" fy="18.539074" gradientUnits="userSpaceOnUse" r="2.378519"><stop offset="0" stop-color="#868385"/><stop offset="1" stop-color="#4a4949"/></radialGradient><linearGradient id="v" gradientUnits="userSpaceOnUse" x1="13.731525" x2="13.731525" y1="17.127983" y2="19.86887"><stop offset="0" stop-color="#fff"/><stop offset="1"/></linearGradient><filter id="w"><feGaussianBlur stdDeviation=".04177847"/></filter><linearGradient id="x"><stop offset="0" stop-color="#cbcbcd"/><stop offset=".5" stop-color="#e0e0e2"/><stop offset="1" stop-color="#fff"/></linearGradient><filter id="y"><feGaussianBlur stdDeviation="2.4"/></filter><linearGradient id="z" gradientTransform="matrix(.01416998 0 0 .02114433 .08035 -10.619329)" gradientUnits="userSpaceOnUse" x1="399.77466" x2="399.77466" xlink:href="#x" y1="681.00012" y2="549.33234"/><linearGradient id="A" gradientUnits="userSpaceOnUse" x1="8.000001" x2="8.000001" xlink:href="#x" y1="3" y2="1"/><path d="m91.480617 232.8761h104.296063c1.02599 0 7.85197 7.40364 7.85197 8.61484v100.62746c0 1.21119-.82598 2.18627-1.85197 2.18627h-116.296063c-1.025991 0-1.85197-.97508-1.85197-2.18627v-100.62746c0-1.2112 6.825979-8.61484 7.85197-8.61484z" filter="url(#y)" opacity=".5" transform="matrix(.125 0 0 .11666666 -9.953581 -26.668877)"/><g stroke-width=".125"><rect fill="url(#A)" height="5" rx=".807049" ry="1" width="14" x="1" y=".999999"/><path d="m1 4.9999995h14v8.0000005h-14z" fill="url(#z)"/><g fill="#fff"><path d="m9.7753326 3.7023707v-.3431z" fill-opacity=".756881"/><path d="m1.0000004 4.999997h13.9999996v8.000003h-13.9999996z"/></g></g><g fill="#cfcfd1"><path d="m7 5.999997h6v1h-6z"/><path d="m7 9.999997h6v1h-6z"/><path d="m3 5.999997h2v1h-2z"/><path d="m3 9.999997h2v1h-2z"/><path d="m7 7.999997h6v1h-6z"/><path d="m3 7.999997h2v1h-2z"/></g><g transform="matrix(.08912294 0 0 .08912294 5.274087 5.709251)"><path d="m11.74287 3.8564678c-1.8087222 0-3.3610242 1.6123041-3.3600838 3.299947l-.3827862 97.2760252 11.640039 11.56756h96.999201c2.95345 0 3.35982-.34436 3.35982-3.29969l.38279-105.5438952c0-1.7983202-1.55806-3.299947-3.35982-3.299947z" fill="url(#a)"/><path d="m17.198816 9.4666957c-1.628094 0-3.025374 1.4512923-3.024527 2.9703973l-.58074 88.396987 9.577465 9.51223h88.212466c2.65849 0 3.02428-.30998 3.02428-2.97017l.58071-94.939047c0-1.61873-1.40245-2.9703973-3.02429-2.9703973z" style="opacity:.35;fill:none;stroke:#000;stroke-width:11.02602;stroke-linecap:round;stroke-linejoin:round;stroke-dashoffset:1.0878"/><rect fill="url(#b)" height="50.49205" rx="1.299477" ry="1.280226" width="67.322731" x="30.341021" y="9.466696"/><path clip-path="url(#e)" d="m19.585424 126.4375c-1.48295 0-2.65625 1.20455-2.65625 2.6875l.435841 39.22509c0 1.48295 1.173301 2.65625 2.65625 2.65625h.15625c-.407771-.44637-.6875-1.03176-.6875-1.6875l-.435841-37.16259c0-1.39131 1.112011-2.53125 2.5-2.53125h62.788636c1.387992 0 2.5 1.13994 2.5 2.53125l.435841 37.16259c.000002.65574-.248479 1.24113-.65625 1.6875h.125c1.48295 0 2.687502-1.1733 2.6875-2.65625l-.435841-39.22509c0-1.48295-1.204549-2.6875-2.6875-2.6875z" fill="url(#c)" filter="url(#f)" transform="matrix(1 0 0 .91653944 16.391305 -41.797544)"/><path d="m35.951249 76.78943c-1.419208 0-1.370231 1.362784-1.370231 2.781994l-.547379 36.489596 69.965421-.34444-.0247-37.14624c0-1.41921-1.14329-2.5625-2.5625-2.5625z" fill-opacity=".128319"/><path d="m35.951249 76.78943c-1.419208 0-1.370231 1.362794-1.370231 2.781994l-.547379 36.489596 69.965421-.36102v-37.18328c0-1.4192-.85512-1.72729-2.27433-1.72729z" fill="url(#g)" opacity=".074219"/><path d="m52.93656 80.040991c-.51955 0-.937465.417953-.9375.9375v23.062499h-11.0625c-.51955 0-.9375.41795-.9375.9375v6.125c0 .51955.417949.9375.9375.9375h12 10.125c.51955 0 .9375-.41795.9375-.9375v-6.125-23.999999c0-.51955-.417949-.9375-.9375-.9375z" fill="url(#i)" filter="url(#j)" transform="matrix(1 0 0 1.0103538 0 -1.312878)"/><path d="m112.08021 93.783789v6.718751h-1.21875-1.03125l4.34375 7.53125 4.34375-7.53125h-1.03125-1.21875v-6.718751h-2.09375z" style="opacity:.453125;fill-rule:evenodd;stroke:#fff;stroke-width:.098887;fill:url(#k);filter:url(#l)" transform="matrix(.9067163 0 0 1.1138304 4.475665 -12.395278)"/><path d="m87.693916 81.905701h4.306084v34.204989h-4.306084z" fill="url(#m)" filter="url(#n)" opacity=".296875" transform="matrix(1 0 0 1.0103538 0 -1.312878)"/><path d="m35.951249 76.78943c-1.17725 0-1.370231 1.608402-1.370231 2.781994l-.547379 36.489596 52.409661-.00002v-39.27157c0-1.173593 1.17725 0 0 0zm5.610228 5.610228h11.220455c.519551 0 0-.517934 0 0v22.440912c0 .51793.51955 0 0 0h-11.220455c-.519551 0 0 .51793 0 0v-22.440912c0-.517932-.51955 0 0 0z" fill="url(#o)"/><g opacity=".785156" stroke-dashoffset="4.15" stroke-linecap="round" stroke-linejoin="round" transform="matrix(1.4404859 0 0 .9603239 -3.047774 -5.28583)"><rect height="12" rx="1.079258" style="opacity:1;fill:none;stroke:#000;stroke-width:.931872;clip-path:url(#p);filter:url(#q)" transform="matrix(.6942102 0 0 .6942102 4.892636 5.504216)" width="8" x="12" y="12"/><rect height="12" rx="1.079258" style="opacity:1;stroke-width:.931872;clip-path:url(#t);fill:url(#r);stroke:url(#s);filter:url(#q)" transform="matrix(.6942102 0 0 .6942102 4.892636 5.504216)" width="8" x="12" y="12"/><rect fill="url(#u)" filter="url(#w)" height="3.67592" opacity="1" rx=".452268" stroke="url(#v)" stroke-width=".309276" width="4.350229" x="13.897468" y="18.030909"/></g><path d="m87.99906 76v7.71875h8v24.28125h8v-24.28125-7.71875h-8z" opacity=".35"/><g fill="#fff"><path d="m35.951248 82.399658h50.49205v5.61023h-50.49205z" opacity=".399015"/><path d="m34.343285 110.4508h52.100014v5.61023h-52.100014z" opacity=".712"/><path d="m30.341021 9.466696h67.322731v16.830683h-67.322731z" opacity=".275862"/></g></g></svg>