<svg height="16" viewBox="0 0 16 16" width="16" xmlns="http://www.w3.org/2000/svg" xmlns:xlink="http://www.w3.org/1999/xlink"><linearGradient id="a" gradientUnits="userSpaceOnUse" x1="0" x2="128" y1="64" y2="64"><stop offset="0" stop-color="#b4b4b6"/><stop offset=".5" stop-color="#9c9ca1"/><stop offset="1" stop-color="#cdcdd1"/></linearGradient><linearGradient id="b" gradientUnits="userSpaceOnUse" x1="128" x2="0" y1="16" y2="16"><stop offset="0" stop-color="#fff"/><stop offset=".53340602" stop-color="#fff"/><stop offset=".9375" stop-color="#f1f1f1"/><stop offset=".96875" stop-color="#eaeaea"/><stop offset="1" stop-color="#dfdfdf"/></linearGradient><g transform="matrix(0 .125 -.125 0 12 0)"><path d="m64 0a64 64 0 0 0 -64 64h32a32 32 0 0 1 32-32 32 32 0 0 1 32 32h32a64 64 0 0 0 -64-64z" fill="url(#a)"/><path d="m64 8a56 56 0 0 0 -55.3691406 48h16.1796876a40 40 0 0 1 39.189453-32 40 40 0 0 1 39.14844 32h16.20703a56 56 0 0 0 -55.35547-48z" fill="url(#b)"/></g></svg>