<svg height="16" viewBox="0 0 4.2333333 4.2333335" width="16" xmlns="http://www.w3.org/2000/svg" xmlns:xlink="http://www.w3.org/1999/xlink"><linearGradient id="a" gradientTransform="matrix(2.1166667 0 0 2.1166667 0 261.01665)" gradientUnits="userSpaceOnUse" x1="4" x2="2.906408" xlink:href="#e" y1="25" y2="-9.205398"/><linearGradient id="b" gradientUnits="userSpaceOnUse" x1="9.525001" x2="8.466667" y1="302.291663" y2="263.133333"><stop offset="0" stop-color="#555753"/><stop offset="1" stop-color="#babdb6"/></linearGradient><linearGradient id="c" gradientTransform="matrix(0 -.26458334 -.26458334 0 31.750007 300.14312)" gradientUnits="userSpaceOnUse" x1="133.00127" x2="59.112225" y1="57.786163" y2="57.786163"><stop offset="0" stop-color="#0968ef"/><stop offset="1" stop-color="#aecffc"/></linearGradient><linearGradient id="d" gradientTransform="translate(0 -2.116665)" gradientUnits="userSpaceOnUse" x1="16.933334" x2="17.797721" xlink:href="#e" y1="324.516667" y2="248.316657"/><linearGradient id="e" gradientTransform="matrix(.47244094 0 0 .47244094 0 -124.31495)" gradientUnits="userSpaceOnUse" x1="16.933334" x2="17.797721" y1="324.516667" y2="248.316657"><stop offset="0"/><stop offset="1" stop-color="#fff"/></linearGradient><linearGradient id="f" gradientTransform="matrix(.28494299 0 0 .34511728 .597009 260.92352)" gradientUnits="userSpaceOnUse" x1="46.048" x2="46.048" y1="128.01709" y2="16.6203"><stop offset="0" stop-color="#c7cdd7"/><stop offset="1" stop-color="#fff"/></linearGradient><g transform="matrix(.125 0 0 .125 0 -32.891665)"><path d="m2.1166667 266.49436 29.6333333-.18604v23.28333h-29.6333333z" fill="url(#f)"/><path d="m0 265.24999v1.24437 23.12623 1.0294h2.1166667 29.6333343 2.116666v-1.0294-24.3706h-31.7500003zm31.750001 1.05833v.18604 23.09729.0289h-29.6333343v-.0289-23.09729z" fill="url(#d)"/><path d="m2.1166668 285.54434h29.6333342v8.28063h-29.6333342z" fill="url(#b)"/><g stroke-width=".264583"><path d="m.0537435 284.29999-.0537435.06614v10.45104l.0537435.0662h33.7591795l.05374-.0662v-10.45104l-.05374-.0661zm2.0629232 1.24437h29.6333343v8.28063.0289h-29.6333343v-.0289z" fill="url(#a)"/><path d="m15.875007 268.39312 5.29167 6.35-1.05168 1.05168-3.18165-2.06342-.000013 8.45194h-2.11667l.000013-8.45194-3.12841 2.06342-1.10492-1.05168z" fill="url(#c)" fill-rule="evenodd"/></g></g></svg>