<svg height="16" width="16" xmlns="http://www.w3.org/2000/svg" xmlns:xlink="http://www.w3.org/1999/xlink"><linearGradient id="a" gradientUnits="userSpaceOnUse" x1="63.383484" x2="92.279503" y1="120.42094" y2="12.579539"><stop offset="0" stop-color="#33373f"/><stop offset="1" stop-color="#33373f" stop-opacity="0"/></linearGradient><filter id="b"><feGaussianBlur stdDeviation="1.6296572"/></filter><linearGradient id="c" gradientTransform="matrix(-.36414171 -1.3589955 1.3589955 -.36414171 568.59708 -140.9012)" gradientUnits="userSpaceOnUse" x1="9.978035" x2="-77.65287" y1="-367.08105" y2="-390.56168"><stop offset="0" stop-color="#81c837"/><stop offset="1" stop-color="#2a3d0c"/></linearGradient><radialGradient id="d" cx="31.999201" cy="117.34788" gradientTransform="matrix(1.0577565 0 0 1.0572174 -1.848162 -6.72862)" gradientUnits="userSpaceOnUse" r="30.65625"><stop offset="0" stop-color="#b0d81d"/><stop offset="1" stop-color="#50740e"/></radialGradient><linearGradient id="e" gradientUnits="userSpaceOnUse" x1="57.610355" x2="57.610355" xlink:href="#f" y1="-27.735687" y2="74.686096"/><linearGradient id="f"><stop offset="0" stop-color="#fff"/><stop offset="1" stop-color="#fff" stop-opacity="0"/></linearGradient><linearGradient id="g" gradientUnits="userSpaceOnUse" x1="58.756977" x2="58.756977" xlink:href="#f" y1="11.896209" y2="75.65007"/><linearGradient id="h" gradientUnits="userSpaceOnUse" x1="106.49866" x2="59.799995" xlink:href="#f" y1="74.650566" y2="-6.233881"/><radialGradient id="i" cx="31.999201" cy="117.34788" gradientTransform="matrix(1.6778494 0 0 1.6769942 -13.68129 -84.769414)" gradientUnits="userSpaceOnUse" r="30.65625"><stop offset="0" stop-color="#d7ea00"/><stop offset="1" stop-color="#d7ea00" stop-opacity="0"/></radialGradient><filter id="j" height="1.352204" width="1.036262" x="-.018131" y="-.176102"><feGaussianBlur stdDeviation=".46318493"/></filter><clipPath id="k"><path d="m-170.44471 76.46119c-.058.058-.0801.14083-.0221.19886l20.74917 20.74917 9.21448 9.21448c.058.058.16294.058.22097 0l9.21449-9.21448 40.55096-40.550964.002-18.872954-49.87797 49.877978-20.63868-20.63868c-.058-.058-.14084-.0359-.19888.0221l-9.21448 9.21449z"/></clipPath><filter id="l"><feGaussianBlur stdDeviation="1.6526048"/></filter><linearGradient id="m" gradientUnits="userSpaceOnUse" x1="105.36082" x2="60.312237" xlink:href="#f" y1="77.69117" y2="-.335267"/><filter id="n"><feGaussianBlur stdDeviation=".0290625"/></filter><linearGradient id="o"><stop offset="0"/><stop offset="1" stop-opacity="0"/></linearGradient><linearGradient id="p"><stop offset="0" stop-color="#fff" stop-opacity=".537906"/><stop offset=".21464799" stop-color="#fff"/><stop offset=".66342056" stop-color="#fff" stop-opacity=".415162"/><stop offset="1" stop-color="#fff" stop-opacity="0"/></linearGradient><radialGradient id="q" cx="63.816387" cy="120.57538" gradientTransform="matrix(1 0 0 .289157 0 85.71021)" gradientUnits="userSpaceOnUse" r="14.672465"><stop offset="0"/><stop offset=".5714286"/><stop offset="1" stop-opacity="0"/></radialGradient><linearGradient id="r" gradientTransform="matrix(.9384891 0 0 .9797769 5.360263 .417599)" gradientUnits="userSpaceOnUse" x1="48.648247" x2="63.212357" xlink:href="#o" y1="123.09119" y2="60.341194"/><linearGradient id="s" gradientTransform="matrix(.8342942 0 0 1.0210988 10.813747 -1.416993)" gradientUnits="userSpaceOnUse" x1="55.875" x2="70.71875" xlink:href="#p" y1="91.296875" y2="91.296875"/><radialGradient id="t" cx="63.462833" cy="66.417244" gradientTransform="matrix(.9021317 0 0 .2520869 6.569572 48.009639)" gradientUnits="userSpaceOnUse" r="13.788582" xlink:href="#o"/><radialGradient id="u" cx="52.715279" cy="41.561275" gradientTransform="matrix(1.6417463 -.8079979 1.3565327 2.8660381 -96.448304 -51.781803)" gradientUnits="userSpaceOnUse" r="15.995545" xlink:href="#p"/><radialGradient id="v" cx="63.462833" cy="66.417244" gradientTransform="matrix(.9021317 0 0 .1440028 6.569572 55.188411)" gradientUnits="userSpaceOnUse" r="13.788582" xlink:href="#o"/><radialGradient id="w" cx="51.78791" cy="41.299831" gradientTransform="matrix(1.6417463 -.8125119 1.3565327 2.88205 -96.448304 -52.421999)" gradientUnits="userSpaceOnUse" r="15.995545" xlink:href="#p"/><linearGradient id="x" gradientTransform="matrix(.8342942 0 0 .8975001 10.813747 6.468777)" gradientUnits="userSpaceOnUse" x1="94.42218" x2="100.78125" xlink:href="#o" y1="30.355696" y2="35.359375"/><radialGradient id="y" cx="57.214077" cy="124.00706" fx="49.233025" fy="124.00705" gradientTransform="matrix(.556928 -.00000003 0 .138799 37.13478 97.17706)" gradientUnits="userSpaceOnUse" r="11.383312" xlink:href="#f"/><linearGradient id="z" gradientTransform="matrix(.8342942 0 0 1.0210978 10.813748 -1.416992)" gradientUnits="userSpaceOnUse" spreadMethod="reflect" x1="28.940924" x2="121.36113" y1="64.378441" y2="52.6054"><stop offset="0" stop-color="#e7e7e7"/><stop offset="1" stop-color="#f8f8f8"/></linearGradient><linearGradient id="A" gradientTransform="matrix(.8342942 0 0 .6237166 16.067197 11.056213)" gradientUnits="userSpaceOnUse" x1="27.080584" x2="59.768688" xlink:href="#f" y1="-14.285192" y2="17.40625"/><g transform="scale(.125)"><ellipse cx="63.816387" cy="120.57538" fill="url(#q)" opacity=".413934" rx="14.672465" ry="4.242641" transform="matrix(.9702784 0 0 .9820563 2.080338 1.949507)"/><path d="m53.349575 3.8211942v-2.7941576z" fill="#fff" fill-opacity=".756881"/><path d="m102.76856 19.258155c-10.743867 15.154665-23.320525 29.317723-30.651309 44.47239l1.171186-.03966 35.685193-46.171632c-2.28657.97088-4.33545 1.51561-6.20507 1.738907z" fill="url(#x)" opacity=".42"/><path d="m64.07844 1c-26.48883 0-47.986141 5.2410524-47.986141 11.246264 0 12.378012 37.304851 50.534456 37.304851 50.534456.15424.220906.33787.586613.32471 1.012938v54.463802c0 1.34296 1.8583 2.17807 9.16761 2.17807 7.15307 0 11.54554-.64365 11.54554-2.17807 0-.009.00072-.0255 0-.034l-.05511-54.429793c0-.25001.03393-.533963.15023-.746911 0 0 37.37801-38.768103 37.37801-51.267003 0-4.257157-21.34088-10.7797529-47.8297-10.779753z" style="stroke:#000;stroke-width:2;stroke-linecap:round;stroke-linejoin:round;stroke-dashoffset:4;fill:url(#z)"/><path d="m64.076426 16.189295c-17.388701 0-31.787584 2.117228-34.081764 4.860618 7.493601 1.766592 19.956176 2.950087 34.081764 2.950087 14.110159 0 26.562923-1.158657 34.059239-2.921989-2.249916-2.750934-16.63777-4.888716-34.059239-4.888716z"/><path d="m57.429913 64.188615v55.608735c1.785083.37543 4.003191.63818 6.648277.63818 2.20064 0 4.105219-.18266 5.735768-.44674v-55.800175c-4.128014.921909-8.25603 1.458575-12.384045 0z" fill="url(#s)" opacity=".614754"/><path d="m54.05364 63.007967c-.0033.02286-.02338.04079-.02338.06382 0 1.220585 4.615845 3.226439 10.309993 3.226439 5.694143 0 10.333367-2.005853 10.333371-3.226439 0-.02236-.0203-.04162-.02338-.06382-2.270886.514645-6.041741.829643-10.309991.829643-4.267242-.000001-8.015554-.315203-10.286613-.829643z" fill="url(#v)" opacity=".11"/><path d="m57.429913 64.335188-12.831081-39.807359c8.82615 1.007037 17.831686.599508 26.689963.160406l-1.474837 39.646953c-4.128014.772391-8.25603 1.222019-12.384045 0z" fill="url(#w)" opacity=".758197"/><path d="m54.05364 63.007967c-.0033.02286-.02338.04079-.02338.06382 0 1.220585 4.615845 2.414162 10.309993 2.414162 5.694143 0 10.333367-1.193576 10.333371-2.414162 0-.02236-.0203-.04162-.02338-.06382-2.270886.514645-6.107865 1.371162-10.376117 1.371162-4.267242-.000001-7.949428-.856722-10.220488-1.371162z" fill="url(#v)" opacity=".11"/><ellipse cx="68.053238" cy="112.83906" rx="11.285211" ry="1.481896" style="fill:none;stroke:#5b5b5b;stroke-width:.196203;stroke-linecap:round;stroke-linejoin:round;stroke-dashoffset:4" transform="matrix(4.2019807 0 0 7.7206883 -221.93924 -858.66739)"/><path d="m56.729366 64.213919-14.841989-39.68609c8.826152 1.001442 22.837449.808862 31.695727.3722l-3.21608 39.426685c-4.128018.7681-9.509643 1.102435-13.637658-.112795z" fill="url(#u)" opacity=".758197"/><ellipse cx="68.053238" cy="112.83906" rx="11.285211" ry="1.481896" style="fill:none;stroke-width:.137008;stroke-linecap:round;stroke-linejoin:round;stroke-dashoffset:4;stroke:url(#y)" transform="matrix(4.2043803 0 0 7.832456 -222.10254 -871.27912)"/><path d="m54.05364 63.007967c-.0033.02286-.02338.04079-.02338.06382 0 1.220585 4.648908 4.128971 10.343053 4.128971 5.694144 0 10.300307-2.908385 10.300311-4.128971 0-.02236-.0203-.04162-.02338-.06382-2.270886.514645-6.30624 1.596795-10.574491 1.596795-4.267244-.000001-7.751054-1.082355-10.022114-1.596795z" fill="url(#t)" opacity=".11"/><path d="m56.752048 64.026799.677865 55.770551c1.785083.37543 4.003191.63818 6.648277.63818 2.20064 0 4.105219-.18266 5.735768-.44674l.469291-55.800175c-4.128015.921909-9.403184 1.29676-13.531201-.161816z" fill="url(#s)" opacity=".614754"/><path d="m72.189405 63.723192h1.042865v55.645728l-1.07974.39388z" opacity=".213115"/><path d="m49.092208 16.961126c-4.44982.186297-3.831095.667704-7.240118.994953 3.214297 1.364021 6.904683 2.48046 9.985452 3.664336 4.097528.166059 8.479256.248852 13.061913.292368-2.943282-1.466769-6.600453-5.154562-10.976177-5.699554-3.072748-.382708-4.763507.776997-4.83107.747897z" fill="url(#A)" opacity=".836066"/><path d="m53.730639 63.41356-.0164-.01531.161302 55.32716c.148106.6005.650298.68958 1.07974.88376.739628-22.806227-.504757-38.570058-1.224646-56.195611z" fill="url(#r)" opacity=".532787"/></g><g transform="matrix(.07737056 0 0 .07737056 6.525018 6.5897)"><path d="m27.466896 21.725018c-6.375901 0-11.509136 5.133235-11.509136 11.509136v72.876216c0 6.37591 5.133235 11.50914 11.509136 11.50914h72.921174c6.3759 0 11.50913-5.13323 11.50913-11.50914v-72.876216c0-6.375901-5.13323-11.509136-11.50913-11.509136z" fill="url(#a)" filter="url(#b)" transform="matrix(1.1653284 0 0 1.1653284 -10.569027 -16.960745)"/><path d="m19.948522 5.3551937c-7.751676 0-13.9925468 6.2408713-13.9925468 13.9925483v88.601258c0 7.75169 6.2408708 13.99255 13.9925468 13.99255h88.655908c7.75168 0 13.99254-6.24086 13.99254-13.99255v-88.601258c0-7.751677-6.24086-13.9925483-13.99254-13.9925483z" fill="url(#c)" stroke-width="1.004002"/><path d="m10.65625 58.746094c-2.9579571 0-5.2539063 2.295949-5.2539062 5.253906v50.65625c0 2.95796 2.2959487 5.25391 5.2539062 5.25391h50.6875c2.957958 0 5.253906-2.29595 5.253906-5.25391v-50.65625c0-2.957957-2.295949-5.253906-5.253906-5.253906z" fill="url(#d)" transform="matrix(1.4913377 0 0 1.4913377 10.999794 -69.264715)"/><path d="m23.46875 15.125c-4.703945 0-8.34375 3.639805-8.34375 8.34375v50.910156c2.772982.0847 5.525526.152344 8.34375.152344 34.838627 0 66.408842-6.505555 89.46875-17.039062v-34.023438c0-4.703945-3.63981-8.34375-8.34375-8.34375z" fill="url(#e)" transform="matrix(.93186463 0 0 .93186463 5.023011 4.30758)"/><path d="m26.895445 18.739864c-4.458772 0-7.922731 3.463964-7.922731 7.922734v.745668c0-4.458771 3.463959-7.922732 7.922731-7.922732h75.710745c4.45877 0 7.92273 3.463961 7.92273 7.922732v-.745668c0-4.45877-3.46396-7.922734-7.92273-7.922734z" fill="url(#g)"/><path d="m108.19541 22.079725c.60121 1.123715.93209 2.428187.93209 3.821553v31.784138c-21.521119 9.849887-51.314912 16.03186-83.840244 16.03186-2.424841 0-4.794681-.07051-7.177063-.139814v1.025296c2.632749.08101 5.246048.139812 7.922731.139812 32.525332 0 62.319127-6.181973 83.840266-16.031859v-31.784138c0-1.856914-.65455-3.513367-1.67778-4.846848z" fill="url(#h)"/><path d="m13.906704 107.61323v1c0 2.98978 2.32272 5.3125 5.3125 5.3125h49.596192c2.98978 0 5.3125-2.32272 5.3125-5.3125v-1c0 2.98978-2.32272 5.3125-5.3125 5.3125h-49.596192c-2.98978 0-5.3125-2.32272-5.3125-5.3125z" fill="url(#i)" filter="url(#j)" transform="matrix(1.5201296 0 0 1.5201296 -2.220935 -64.306577)"/><path d="m30.899499 68.812012c-.06634.06633-.09161.16108-.02529.227455l23.73268 23.732681 10.539434 10.539442c.06638.0663.186366.0663.252743 0l10.539439-10.539442 46.381785-46.381769.00216-21.58669-57.050103 57.049917-23.606307-23.60631c-.06633-.06632-.161089-.04107-.227475.02529l-10.539427 10.539432z" fill="#fff"/><path clip-path="url(#k)" d="m-90.5 33.65-49.90625 49.875-20.625-20.65625c-.058-.058-.12946-.02675-.1875.03125l-11.51875 11.51875c-.058.058-.0892.12947-.0313.1875l1.90625 1.90625 9.64375-9.6125c.058-.058.1295-.08925.1875-.03125l20.62505 20.65625 49.90625-49.875z" filter="url(#l)" transform="matrix(1.1437897 0 0 1.1437897 225.85241 -18.643506)"/><path d="m110.3125 39.6875-.71875.71875v18.8125l.71875-.71875zm-4.40625 23.21875c-7.987072 3.324696-17.205416 6.152808-27.21875 8.375l-1.46875 1.5c9.669797-2.036328 18.634585-4.656683 26.53125-7.71875zm-55.9375 12.84375c-5.855982.539299-11.85079.845618-17.875.96875l1 1c6.013775-.129703 11.999565-.487107 17.84375-1.03125z" fill="url(#m)" filter="url(#n)" opacity=".519802" transform="matrix(.87559048 0 0 .87559048 26.211504 3.703458)"/></g></svg>