<svg height="16" viewBox="0 0 4.2333333 4.2333335" width="16" xmlns="http://www.w3.org/2000/svg" xmlns:xlink="http://www.w3.org/1999/xlink"><linearGradient id="a" gradientUnits="userSpaceOnUse" x1="15.712173" x2="16.933331" y1="294.720557" y2="266.633917"><stop offset="0" stop-color="#555"/><stop offset="1"/></linearGradient><radialGradient id="b" cx="34.35376" cy="561.81543" gradientTransform="matrix(1.3532032 0 0 1.3528358 2.86614 -717.2286)" gradientUnits="userSpaceOnUse" r="4"><stop offset="0" stop-color="#033a13"/><stop offset="1" stop-color="#398c37"/></radialGradient><linearGradient id="c" gradientUnits="userSpaceOnUse" x1="49.625347" x2="46.194677" y1="42.3078" y2="45.73846"><stop offset="0" stop-color="#bbf10e"/><stop offset="1" stop-color="#5f9207"/></linearGradient><linearGradient id="d" gradientUnits="userSpaceOnUse" x1="15.712174" x2="16.933332" y1="262.97046" y2="288.61478"><stop offset="0" stop-color="#3b3e22"/><stop offset="1" stop-color="#454545" stop-opacity="0"/></linearGradient><g transform="matrix(.12864448 0 0 .12864448 -.061713 -33.912364)"><path d="m16.354887 265.66172-8.8896118 20.9888c-1.3107097 3.10581-2.2657505 5.04327-2.8641181 5.81259-.5698734.74082-1.3800329 1.13605-2.4342993 1.19305v.81545h8.4638102v-.81545c-1.9375708 0-2.9083051-.58317-2.9083051-1.75141 0-.51289.113495-1.06868.3414446-1.66705l2.4905375-6.05763h10.287526l2.141058 5.16184c.541382 1.22522.811433 2.18026.811435 2.86412 0 .54138-.215316.90923-.64272 1.10869-.427407.19948-1.210196.31297-2.349943.34144v.81545h10.89811v-.81545c-.968787-.057-1.681144-.29566-2.137042-.72306-.455899-.4274-1.023376-1.42551-1.707223-2.99266l-10.645039-24.27872zm-.68289 6.06968 4.314254 10.39197h-8.588337z" fill="url(#a)" stroke-width="1.015378"/><path d="m16.782477 266.30836-7.3555686 17.36214a28.086634 12.822159 0 0 0 .7173116.0161.64386597.64386597 0 0 1 .01729-.44959l4.915041-11.75245a.64386597.64386597 0 0 1 .610579-.39652.64386597.64386597 0 0 1 .577187.39413l4.86913 11.54257a28.086634 12.822159 0 0 0 2.763704-.50743l-7.107521-16.20896z" fill="url(#d)"/><path d="m19.11858 270.01614-2.940441 2.94044 3.735806 8.99807a4.110274 4.110274 0 0 0 4.000927-1.00425z" fill="#fff" fill-opacity=".784314" stroke-width="1.015378"/></g><g transform="matrix(0 -.26458334 -.26458334 0 14.816666 13.758334)"><path d="m51 41h-4v1h2l-4 4 1 1 4-4v2h1z" fill="none" stroke="url(#b)" stroke-linejoin="round" stroke-width="2"/><path d="m51 41h-4v1h2l-4 4 1 1 4-4v2h1z" fill="url(#c)" fill-rule="evenodd"/></g></svg>