<svg height="16" width="16" xmlns="http://www.w3.org/2000/svg" xmlns:xlink="http://www.w3.org/1999/xlink"><linearGradient id="a"><stop offset="0" stop-color="#0968ef"/><stop offset="1" stop-color="#aecffc"/></linearGradient><linearGradient id="b" gradientTransform="matrix(-.99999988 -.00049052 -.00049052 .99999988 120.03866 63.99516)" gradientUnits="userSpaceOnUse" x1="113.15723" x2="39.268185" xlink:href="#a" y1="25.786163" y2="25.786163"/><linearGradient id="c" gradientTransform="matrix(.99999988 -.00049044 .00049044 .99999988 9.961897 63.995143)" gradientUnits="userSpaceOnUse" x1="113.15723" x2="39.268185" xlink:href="#a" y1="25.786163" y2="25.786163"/><linearGradient id="d" gradientTransform="matrix(.06503009 0 0 .1431311 44.280407 -64.438806)" gradientUnits="userSpaceOnUse" x1="1041.3578" x2="303.23798" y1="841.45801" y2="841.45801"><stop offset="0" stop-color="#b4b4b6"/><stop offset=".5" stop-color="#9c9ca1"/><stop offset="1" stop-color="#cdcdd1"/></linearGradient><linearGradient id="e" gradientTransform="matrix(.65972239 0 0 1.0000001 -97.887947 -5.784912)" gradientUnits="userSpaceOnUse" x1="87.745918" x2="136.25117" y1="101.7849" y2="5.784912"><stop offset="0" stop-color="#fff"/><stop offset=".42597079" stop-color="#fff"/><stop offset=".5892781" stop-color="#f1f1f1"/><stop offset=".80219781" stop-color="#eaeaea"/><stop offset="1" stop-color="#dfdfdf"/></linearGradient><linearGradient id="f" gradientTransform="matrix(-.72259344 0 0 1.0000001 91.60134 8)" gradientUnits="userSpaceOnUse" x1="102.31124" x2="74.330322" y1="-5.830213" y2="32"><stop offset="0" stop-color="#fff"/><stop offset="1" stop-color="#fff" stop-opacity="0"/></linearGradient><g transform="scale(.125)"><rect fill="url(#d)" height="112" rx="3.632653" width="48" x="64" y="8"/><g fill-rule="evenodd" transform="matrix(0 1 -1 0 128 0)"><rect fill="url(#e)" height="96" rx=".8" ry="3.25" transform="rotate(-90)" width="32" x="-56" y="16"/><path d="m25.484039 24c7.719875 9.42808 14.956541 19.625611 19.464861 32.000001h-19.66809c-1.101572-11.846987-4.540373-22.549161-9.28081-32.000001z" fill="url(#f)"/><path d="m.0249541 91.9363 24.0098099-19.98823 3.97288 3.9768-7.80464 12.02133 27.796996.0538-.0039 7.99999-27.796996-.0538 7.79292 11.82773-3.97689 4.17415z" fill="url(#b)"/><path d="m128 92-24.00981-19.988228-3.97288 3.976796 7.80464 12.021335-27.82195-.009903.004 7.999993 27.82195.0099-7.79302 11.827727 3.97689 4.17416z" fill="url(#c)"/></g><path d="m24 48v32h32v-32zm8 8h16v16l-15.9375.03125z" fill="#797979"/></g></svg>