<svg height="16" width="16" xmlns="http://www.w3.org/2000/svg" xmlns:xlink="http://www.w3.org/1999/xlink"><linearGradient id="a" gradientTransform="matrix(.30769997 0 0 1.3043803 -149.43764 -39.470642)" gradientUnits="userSpaceOnUse" x1="127.0339" x2="7.050848" y1="44.542374" y2="44.542374"><stop offset="0" stop-color="#fdfaeb"/><stop offset="1" stop-color="#ffe1a5"/></linearGradient><linearGradient id="b" gradientTransform="matrix(1.0769499 0 0 1.5652564 2.256411 -29.222398)" gradientUnits="userSpaceOnUse" x1="46.048" x2="46.048" y1="110.69923" y2="16.6203"><stop offset="0" stop-color="#c7cdd7"/><stop offset="1" stop-color="#fff"/></linearGradient><linearGradient id="c" gradientUnits="userSpaceOnUse" x1="67.266975" x2="67.266975" y1="144.02724" y2="-112.02084"><stop offset="0"/><stop offset="1" stop-color="#fff"/></linearGradient><linearGradient id="d" gradientUnits="userSpaceOnUse" x1="79.999992" x2="128.00005" y1="56" y2="56"><stop offset="0" stop-color="#fff"/><stop offset="1" stop-color="#fff" stop-opacity="0"/></linearGradient><mask id="e" maskUnits="userSpaceOnUse"><path d="m0 0h128.00005v112h-128.00005z" fill="url(#d)"/></mask><g transform="matrix(.125 0 0 .125 0 -.003589)"><g mask="url(#e)" transform="translate(0 16)"><path d="m0 0h127.99999v88h-127.99999z" fill="url(#b)"/><path d="m0 0v4 20 4 28 4 20 4 2.3125 1.6875h128v-64-24h-120zm5 8h30v16h-30zm35 0h27v16h-27zm32 0h56v16h-56zm-67 24h30v24h-30zm35 0h27v24h-27zm32 0h56v24h-56zm-67 32h30v16h-30zm35 0h27v16h-27zm32 0h56v16h-56zm-67 24h30zm35 0h27zm32 0h56z" fill="url(#c)"/><path d="m5 32h123v23.999998h-123z" fill="url(#a)"/><path d="m0 24v4 28 4 4h5 30 5 27 5 56v-8h-56v-24h56v-8h-56-5-27-5-30zm5 8h30v24h-30zm35 0h27v24h-27z" fill="#bf5e00"/></g><path d="m0 16v5.627129 82.372871l40-.00001 43.842194-77.9585 3.757813-10.216798z" fill="#525252" opacity=".57"/><path d="m27.172553 123.63746c3.000001 1.50002 5.702 2.85196 8.839998 4.41997 3.104003-6.718 58.597162-117.099744 61.517165-123.4276937-3.002003-1.5000189-5.704003-2.8520315-8.842001-4.4200063-3.102002 6.7180347-58.595163 117.10171-61.515162 123.42773z" fill="#555" stroke-width="2"/></g></svg>