<svg height="16" width="16" xmlns="http://www.w3.org/2000/svg" xmlns:xlink="http://www.w3.org/1999/xlink"><linearGradient id="a"><stop offset="0" stop-color="#cbff10"/><stop offset="1" stop-color="#004d00"/></linearGradient><radialGradient id="b" cx="72" cy="56" gradientUnits="userSpaceOnUse" r="55.851028" xlink:href="#a"/><filter id="c" color-interpolation-filters="sRGB" height="1.108706" width="1.053825" x="-.026913" y="-.054353"><feGaussianBlur stdDeviation="1.2525832"/></filter><radialGradient id="d" cx="64.405708" cy="96.659279" gradientTransform="matrix(1 0 0 .52093381 0 46.306194)" gradientUnits="userSpaceOnUse" r="58.857224"><stop offset="0" stop-color="#272727"/><stop offset="1" stop-color="#272727" stop-opacity="0"/></radialGradient><linearGradient id="e" gradientUnits="userSpaceOnUse" x1="64" x2="64" xlink:href="#a" y1="48" y2="88"/><radialGradient id="f" cx="64.016602" cy="91.914062" gradientTransform="matrix(1 0 0 .50035854 0 45.924075)" gradientUnits="userSpaceOnUse" r="55.834961"><stop offset="0" stop-color="#fff"/><stop offset="1" stop-color="#fff" stop-opacity="0"/></radialGradient><g transform="matrix(.14210193 0 0 .14210193 -1.050472 -3.023472)"><ellipse cx="64.405708" cy="96.659279" fill="url(#d)" filter="url(#c)" rx="55.851028" ry="27.654516" transform="matrix(1.0085407 0 0 .70183342 -.550072 37.543229)"/><path d="m119.85156 63.976562-55.85156.023438h55.85156zm-.041.833985c-1.98754 6.291078-26.35769 11.179442-55.783216 11.189453-29.260364.001332-53.593075-4.824702-55.8457034-11.076172.5038074 30.471793 25.3424044 54.914072 55.8183594 54.927732 30.516328-.0189 55.36797-24.527888 55.81055-55.041013z" fill="url(#b)"/><path d="m120 64a56 12 0 0 1 -55.973277 11.999999 56 12 0 0 1 -56.0266975-11.988546 56 12 0 0 1 55.9198045-12.011441 56 12 0 0 1 56.08007 11.977082l-55.9999.022906z" fill="url(#e)"/><path d="m119.85156 63.976562-55.85156.023438h55.55273l.29883-.02148zm-.041.833985c-.0006.0019-.001.004-.002.0059-.47925 28.303862-25.315411 55.017633-55.80856 55.035113 30.516328-.0189 55.36797-24.527888 55.81055-55.041013zm-55.81056 55.041013c-30.449237-.01267-55.2684702-26.658088-55.8144531-54.919919-.0009627-.0026-.00295-.0052-.00391-.0078.5038111 30.47178 25.3424081 54.914059 55.8183631 54.927719zm53.33203-52.228513c-7.19364 4.876933-28.443456 8.368495-53.304686 8.376953-24.635171.0011-45.774761-3.420094-53.1875-8.232422 7.412767 5.36405 28.552364 11.374088 53.1875 11.373047 24.861236-.0079 46.111046-6.104121 53.304686-11.517578z" fill="url(#f)"/></g></svg>