<svg height="16" viewBox="0 0 16 16" width="16" xmlns="http://www.w3.org/2000/svg" xmlns:xlink="http://www.w3.org/1999/xlink"><linearGradient id="a"><stop offset="0" stop-color="#fff"/><stop offset="1" stop-color="#bbb"/></linearGradient><linearGradient id="b"><stop offset="0" stop-color="#cbcbcd"/><stop offset=".5" stop-color="#e0e0e2"/><stop offset="1" stop-color="#f2f2f2"/></linearGradient><linearGradient id="c" gradientUnits="userSpaceOnUse" x1="72" x2="72" y1="-16" y2="128"><stop offset="0" stop-color="#959391"/><stop offset="1" stop-color="#828282"/></linearGradient><linearGradient id="d" gradientUnits="userSpaceOnUse" x1="56" x2="24" xlink:href="#b" y1="64" y2="64"/><linearGradient id="e" gradientUnits="userSpaceOnUse" x1="32" x2="96" xlink:href="#a" y1="64" y2="64"/><filter id="f" color-interpolation-filters="sRGB" height="1.229086" width="1.168" x="-.084" y="-.114543"><feGaussianBlur stdDeviation=".56"/></filter><filter id="g" color-interpolation-filters="sRGB" height="1.219135" width="1.336" x="-.168" y="-.109568"><feGaussianBlur stdDeviation=".56"/></filter><linearGradient id="h" gradientUnits="userSpaceOnUse" x1="40" x2="88" xlink:href="#a" y1="64" y2="64"/><linearGradient id="i" gradientTransform="matrix(.66666666 0 0 .5 21.333334 32)" gradientUnits="userSpaceOnUse" x1="64" x2="15.999999" xlink:href="#b" y1="64" y2="64"/><g transform="matrix(0 .125 -.125 0 16 0)"><rect fill="url(#c)" height="128" rx="14.751542" ry="13.666797" width="80" x="24"/><rect fill="url(#e)" height="112" rx="12.907599" ry="11.958447" width="64" x="32" y="8"/><rect fill="url(#d)" height="96" rx="9.876436" ry="10.226353" width="48" x="40" y="16"/><g fill="#fff" transform="translate(0 -8)"><path d="m56 28.266411h16v11.733589h-16z" filter="url(#f)"/><path d="m48 40h8v12.266411h-8z" filter="url(#g)"/><path d="m72 40h8v12.266411h-8z" filter="url(#g)"/></g><g fill="#403c3b"><path d="m56 16h16v11.733589h-16z"/><path d="m48 27.733589h8v12.266411h-8z"/><path d="m72 27.733589h8v12.266411h-8z"/></g><rect fill="#5c5b5a" height="48" ry="4.330235" width="64" x="32" y="40"/><g fill="#fff" transform="matrix(1 0 0 -1 0 147.73359)"><path d="m56 32.266411h16v8h-16z" filter="url(#f)"/><path d="m48 40h8v12.266411h-8z" filter="url(#g)"/><path d="m72 40h8v12.266411h-8z" filter="url(#g)"/></g><g fill="#403c3b" transform="matrix(1 0 0 -1 0 139.73359)"><path d="m56 28.266411h16v7.467179h-16z"/><path d="m48 35.733589h8v12.266411h-8z"/><path d="m72 35.733589h8v12.266411h-8z"/></g><rect fill="url(#h)" height="32" ry="3.464188" width="48" x="40" y="48"/><rect fill="url(#i)" height="16" ry="1.732094" width="32" x="48" y="56"/></g></svg>