<svg enable-background="new 0 0 128 128" height="16" viewBox="0 0 16 16" width="16" xmlns="http://www.w3.org/2000/svg" xmlns:xlink="http://www.w3.org/1999/xlink"><radialGradient id="a" cx="102" cy="112.3047" gradientTransform="matrix(.9787234 0 0 .9818182 1.904079 .621263)" gradientUnits="userSpaceOnUse" r="139.55859"><stop offset="0" stop-color="#ececec"/><stop offset=".2363" stop-color="#fafafa"/><stop offset=".2722" stop-color="#fff"/><stop offset=".5313" stop-color="#fafafa"/><stop offset=".8449" stop-color="#ebecec"/><stop offset="1" stop-color="#e1e2e3"/></radialGradient><radialGradient id="b" cx="102.542374" cy="111.762327" gradientUnits="userSpaceOnUse" r="139.5585"><stop offset="0" stop-color="#ecf2f5"/><stop offset=".2435" stop-color="#fafcfd"/><stop offset=".2722" stop-color="#fff"/></radialGradient><linearGradient id="c" gradientTransform="matrix(1.8 0 0 1.4960829 -206.36154 -67.61099)" gradientUnits="userSpaceOnUse" x1="154.64529" x2="154.44292" y1="106.68593" y2="130.74823"><stop offset="0" stop-color="#4c78fd"/><stop offset="1" stop-color="#85a2fe"/></linearGradient><filter id="d"><feGaussianBlur stdDeviation="1.0394514"/></filter><filter id="e"><feGaussianBlur stdDeviation=".50063244"/></filter><g transform="matrix(.125 0 0 .125 -.067797 .067797)"><path d="m14.542374 5.4576272.02148 57.9999998-.02148 58.000003h.04297 63.677734 36.279293v-36.072269-43.855468-36.0722658h-36.279294-63.677734z" filter="url(#d)" opacity=".715069" stroke-width="1.038686"/><path d="m14.542374 6.4576272.02148 57.4999998-.02148 57.500003h.04297 63.677734 36.279293v-36.072269-42.855468-36.0722658h-36.279294-63.677734z" filter="url(#d)" opacity=".835616" stroke-width="1.038686"/><path d="m24.919999 10.931136v108.137934l58.676001-.0001c.53 0 1.039-.211 1.414-.586l31.484-31.765936c.375-.375.586-.884.586-1.414v-74.371898z" filter="url(#e)" opacity=".89589" transform="matrix(1.0416667 0 0 1.0357143 -9.415959 -3.863907)"/><path d="m16.542374 7.4576272v112.0000028h61.171875 34.828121v-34.828128-42.34375-34.8281248h-34.828121z" fill="url(#b)"/><path d="m25.222062 15.457627c-.539277 0-.980469.44144-.980469.982422l.15039 47.017578-.15039 47.017583c0 .54098.441192.98242.980469.98242h.298828 51.914062 26.128898c.54025 0 .97852-.44144.97852-.98242v-26.230474-41.574218-26.230469c0-.540982-.43827-.982422-.97852-.982422h-26.128898-51.914062z" fill="url(#a)"/><g fill="#8e8e8e" stroke-width="1.722773" transform="translate(.542374 -.542373)"><path d="m96 24v8h-64v-8z"/><path d="m96 40v8h-64v-8z"/><path d="m96 56v8h-64v-8z"/><path d="m96 72v8h-64v-8z"/><path d="m96 88v8h-64v-8z"/><path d="m96 104v8h-64v-8z"/></g><g transform="translate(8.542374 -12.542373)"><path d="m24 64a4.0004 4.0004 0 0 0 -4 4v1.453125 53.091795a4.0004 4.0004 0 0 0 4 4c5.880122 0 10.243404-.13476 16-.13476a4.0004 4.0004 0 0 0 4-4v-6.41016h48v6.41016a4.0004 4.0004 0 0 0 4 4c5.7566 0 10.11988.13476 16 .13476a4.0004 4.0004 0 0 0 4-4v-53.091795-1.453125a4.0004 4.0004 0 0 0 -4-4h-5.81836-10.18164a4.0004 4.0004 0 0 0 -4 4v8h-48v-8a4.0004 4.0004 0 0 0 -4-4h-10.181641zm12 16h4v32h-4zm60 0h4v32h-4z" fill="#fff" fill-opacity=".893382" stroke-width="1.868384"/><path d="m24 68v1.453125 53.091805c5.818359 0 10.181641-.13559 16-.13559v-6.40934h-8v-40h8v-8h-10.181641z" fill="#333"/><path d="m112 68v1.453125 53.091805c-5.81836 0-10.18164-.13559-16-.13559v-6.40934h8v-40h-8v-8h10.18164z" fill="#333"/><path d="m44 84h48v24h-48z" fill="url(#c)" stroke-width="1.868384"/></g></g></svg>