<svg height="16" viewBox="0 0 4.2333333 4.2333335" width="16" xmlns="http://www.w3.org/2000/svg" xmlns:xlink="http://www.w3.org/1999/xlink"><linearGradient id="a" gradientUnits="userSpaceOnUse" x1="64" x2="64" y1="-263.133321" y2="-183.13332"><stop offset="0" stop-color="#3b3e22"/><stop offset="1" stop-color="#454545" stop-opacity="0"/></linearGradient><linearGradient id="b" gradientTransform="matrix(1.0122175 0 0 1.0122174 0 -266.70825)" gradientUnits="userSpaceOnUse" x1="15.712173" x2="16.933331" y1="294.72055" y2="266.63391"><stop offset="0" stop-color="#555"/><stop offset="1"/></linearGradient><path d="m2.192949 24.740468h1.0383051q.086525 1.557457.908517 2.336186.8219916.778729 2.5525002.778729h5.6674157l-.04326-1.860297q-1.427672-.302839-2.9418674-1.12483-1.4709323-.821992-2.8553392-2.163136-1.3411441-1.384407-2.2063984-3.50428-.8652543-2.163135-.8652543-4.672373 0-5.2347883 3.8503816-8.8255936 3.8503817-3.5908053 10.0369497-3.5908053 5.970255 0 9.777373 3.3744917 3.807119 3.331229 3.807119 8.8688562 0 4.369534-2.336186 7.441187-2.292924 3.02839-6.359619 4.196483l-.216314 1.860297h5.797204q3.244703 0 3.331229-3.114915h1.038305l-.259576 6.619195h-11.767459l.562416-6.359619q5.278051-1.687246 5.278051-10.080212 0-3.201441-.865254-5.5376279-.865255-2.3361866-2.292924-3.5042799-1.384407-1.1680933-2.768814-1.6872458-1.384407-.5191526-2.812076-.5191526-3.98017 0-6.446145 3.0716527-2.4227119 3.0716527-2.4227119 7.8738145 0 8.392966 5.4078389 10.383051l.432628 6.359619h-11.7674587z" fill="url(#b)" stroke-width="1.027783" transform="scale(.12349125 .12652719)"/><path d="m89.46875 19.771484c3.836001 3.640679 6.861705 8.400363 9.013672 14.353516 2.411388 6.670815 3.542968 14.329673 3.542968 22.955078 0 2.740965-.10365 5.365057-.31055 7.882813a88.000004 48.000002 0 0 0 8.31055-3.09961c.28823-2.207252.43945-4.513291.43945-6.935547 0-12.951404-4.06858-22.511114-12.515621-30.083984a4.9868032 5.1094001 0 0 1 -.0293-.02148c-2.468529-2.241814-5.580368-3.455182-8.451169-5.050786zm-49.650391.06641c-3.145855 1.758966-6.508714 3.185528-9.166015 5.724609-8.70104 8.313941-12.792969 17.931874-12.792969 30.029297 0 4.274976.528487 8.25905 1.564453 12.011719a88.000004 48.000002 0 0 0 7.853516 1.710937c-.661392-4.138956-.980469-8.602388-.980469-13.392581 0-13.108109 3.310859-24.432035 10.123047-33.28125a4.9868032 5.1094001 0 0 1 .0293-.03711c.946147-1.207505 2.321331-1.711305 3.36914-2.765625z" fill="url(#a)" opacity=".75" transform="scale(.03307292)"/></svg>