<svg height="16" width="16" xmlns="http://www.w3.org/2000/svg" xmlns:xlink="http://www.w3.org/1999/xlink"><linearGradient id="a"><stop offset="0" stop-color="#fff"/><stop offset="1" stop-color="#fff" stop-opacity="0"/></linearGradient><radialGradient id="b" cx="84.903702" cy="-130.14005" gradientTransform="matrix(.30794145 .30794145 -.30794145 .30794145 46.491338 107.57052)" gradientUnits="userSpaceOnUse" r="57.039597" xlink:href="#c"/><linearGradient id="c"><stop offset="0" stop-color="#011701"/><stop offset=".80671918" stop-color="#145703"/><stop offset="1" stop-color="#2fa207" stop-opacity=".384314"/></linearGradient><radialGradient id="d" cx="43.084476" cy="-121.92532" gradientTransform="matrix(.30347528 .31234377 -.3628951 .35259129 39.983519 112.82479)" gradientUnits="userSpaceOnUse" r="57.039597" xlink:href="#c"/><radialGradient id="e" cx="51.991096" cy="-78.028419" gradientTransform="matrix(.28232256 .33158686 -.56115095 .47778001 28.065755 119.5934)" gradientUnits="userSpaceOnUse" r="57.039597" xlink:href="#c"/><linearGradient id="f" gradientTransform="scale(1.0975951 .9110828)" gradientUnits="userSpaceOnUse" x1="26.091133" x2="31.500689" xlink:href="#a" y1="14.856744" y2="14.856744"/><filter id="g" height="1.277481" width="1.279832" x="-.139916" y="-.138741"><feGaussianBlur stdDeviation=".28784801"/></filter><linearGradient id="h" gradientUnits="userSpaceOnUse" x1="304.88663" x2="345.62039" y1="385.86127" y2="384.62384"><stop offset="0" stop-color="#765c44"/><stop offset="1" stop-color="#765c44" stop-opacity="0"/></linearGradient><linearGradient id="i" gradientUnits="userSpaceOnUse" spreadMethod="reflect" x1="31.606251" x2="34.575108" y1="13.510336" y2="13.510336"><stop offset="0" stop-color="#fff"/><stop offset="1" stop-color="#790000" stop-opacity="0"/></linearGradient><radialGradient id="j" cx="50.424522" cy="-81.945961" gradientTransform="matrix(.30794145 .30794145 -.30794145 .30794145 46.491337 107.57052)" gradientUnits="userSpaceOnUse" r="50.15279"><stop offset="0" stop-color="#7ae91e" stop-opacity=".996078"/><stop offset="1" stop-color="#62c916"/></radialGradient><filter id="k" color-interpolation-filters="sRGB" height="1.024" width="1.024" x="-.012" y="-.012"><feGaussianBlur stdDeviation=".28192153"/></filter><linearGradient id="l" gradientUnits="userSpaceOnUse" x1="84.745605" x2="97.636749" xlink:href="#a" y1="48.278454" y2="110.57732"/><linearGradient id="m" gradientUnits="userSpaceOnUse" spreadMethod="reflect" x1="88.606247" x2="91.575104" y1="13.510336" y2="13.510336"><stop offset="0" stop-color="#c8ff87"/><stop offset="1" stop-color="#abff87" stop-opacity="0"/></linearGradient><linearGradient id="n"><stop offset="0" stop-color="#cbcbcd"/><stop offset=".5" stop-color="#e0e0e2"/><stop offset="1" stop-color="#fff"/></linearGradient><filter id="o"><feGaussianBlur stdDeviation="2.4"/></filter><linearGradient id="p" gradientTransform="matrix(.01416998 0 0 .02114433 .08035 -10.619329)" gradientUnits="userSpaceOnUse" x1="399.77466" x2="399.77466" xlink:href="#n" y1="681.00012" y2="549.33234"/><linearGradient id="q" gradientUnits="userSpaceOnUse" x1="8.000001" x2="8.000001" xlink:href="#n" y1="3" y2="1"/><path d="m91.480617 232.8761h104.296063c1.02599 0 7.85197 7.40364 7.85197 8.61484v100.62746c0 1.21119-.82598 2.18627-1.85197 2.18627h-116.296063c-1.025991 0-1.85197-.97508-1.85197-2.18627v-100.62746c0-1.2112 6.825979-8.61484 7.85197-8.61484z" filter="url(#o)" opacity=".5" transform="matrix(.125 0 0 .11666666 -9.953581 -26.668877)"/><g stroke-width=".125"><rect fill="url(#q)" height="5" rx=".807049" ry="1" width="14" x="1" y=".999999"/><path d="m1 4.9999995h14v8.0000005h-14z" fill="url(#p)"/><g fill="#fff"><path d="m9.7753326 3.7023707v-.3431z" fill-opacity=".756881"/><path d="m1.0000004 4.999997h13.9999996v8.000003h-13.9999996z"/></g></g><g fill="#cfcfd1"><path d="m7 5.999997h6v1h-6z"/><path d="m7 9.999997h6v1h-6z"/><path d="m3 5.999997h2v1h-2z"/><path d="m3 9.999997h2v1h-2z"/><path d="m7 7.999997h6v1h-6z"/><path d="m3 7.999997h2v1h-2z"/></g><g transform="matrix(.125 0 0 .125 -.008059 -.007506)"><path d="m90.896484 60.324219c-4.022451-.000117-7.375114 3.352553-7.375 7.375v15.509765h-15.507812c-4.019003-.000116-7.375117 3.350604-7.375 7.373047v10.619139c-.000117 4.02244 3.355991 7.37317 7.375 7.37305h15.507812v15.50976c-.000121 4.02245 3.355991 7.37317 7.375 7.37305h10.617186c4.01901.00012 7.37512-3.35059 7.375-7.37305v-15.50976h15.50781c4.01903.00012 7.37513-3.3506 7.375-7.37305v-10.619139c.00013-4.02246-3.35599-7.373163-7.375-7.373047h-15.50781v-15.509765c.00012-4.022461-3.35255-7.375117-7.375-7.375z" fill="#033d03" transform="translate(-3.64254 -3.336931)"/><path d="m123.75362 87.246019c.00005-1.656397-1.34274-2.99918-2.99913-2.999132h-19.88392v-19.884771c.00005-1.656396-1.34274-2.99918-2.99913-2.999132l-10.617743.000005c-1.656393-.000048-2.999178 1.342735-2.999131 2.999127v19.884771h-19.88392c-1.656396-.000048-2.99918 1.342735-2.999132 2.999132v10.61774c-.000048 1.6564 1.342736 2.999181 2.999132 2.999131h19.88392v19.88392c-.00005 1.6564 1.342736 2.99918 2.999132 2.99913h10.617742c1.65639.00005 2.99918-1.34273 2.99913-2.99913v-19.88392h19.88392c1.6564.00005 2.99918-1.342741 2.99913-2.999131z" fill="#1f5623" fill-opacity=".905882"/><path d="m123.75362 87.246019c.00005-1.656397-1.34274-2.99918-2.99913-2.999132h-19.88392v-19.884771c.00005-1.656396-1.34274-2.99918-2.99913-2.999132l-10.617743.000005c-1.656393-.000048-2.999178 1.342735-2.999131 2.999127v19.884771h-19.88392c-1.656396-.000048-2.99918 1.342735-2.999132 2.999132v10.61774c-.000048 1.6564 1.342736 2.999181 2.999132 2.999131h19.88392v19.88392c-.00005 1.6564 1.342736 2.99918 2.999132 2.99913h10.617742c1.65639.00005 2.99918-1.34273 2.99913-2.99913v-19.88392h19.88392c1.6564.00005 2.99918-1.342741 2.99913-2.999131z" fill="url(#b)"/><path d="m123.75362 87.246019c.00005-1.656397-1.34274-2.99918-2.99913-2.999132h-19.88392v-19.884771c.00005-1.656396-1.34274-2.99918-2.99913-2.999132l-10.617743.000005c-1.656393-.000048-2.999178 1.342735-2.999131 2.999127v19.884771h-19.88392c-1.656396-.000048-2.99918 1.342735-2.999132 2.999132v10.61774c-.000048 1.6564 1.342736 2.999181 2.999132 2.999131h19.88392v19.88392c-.00005 1.6564 1.342736 2.99918 2.999132 2.99913h10.617742c1.65639.00005 2.99918-1.34273 2.99913-2.99913v-19.88392h19.88392c1.6564.00005 2.99918-1.342741 2.99913-2.999131z" fill="#066704"/><path d="m123.75362 87.246019c.00005-1.656397-1.34274-2.99918-2.99913-2.999132h-19.88392v-19.884771c.00005-1.656396-1.34274-2.99918-2.99913-2.999132l-10.617743.000005c-1.656393-.000048-2.999178 1.342735-2.999131 2.999127v19.884771h-19.88392c-1.656396-.000048-2.99918 1.342735-2.999132 2.999132v10.61774c-.000048 1.6564 1.342736 2.999181 2.999132 2.999131h19.88392v19.88392c-.00005 1.6564 1.342736 2.99918 2.999132 2.99913h10.617742c1.65639.00005 2.99918-1.34273 2.99913-2.99913v-19.88392h19.88392c1.6564.00005 2.99918-1.342741 2.99913-2.999131z" fill="url(#d)"/><path d="m123.75362 87.246019c.00005-1.656397-1.34274-2.99918-2.99913-2.999132h-19.88392v-19.884771c.00005-1.656396-1.34274-2.99918-2.99913-2.999132l-10.617743.000005c-1.656393-.000048-2.999178 1.342735-2.999131 2.999127v19.884771h-19.88392c-1.656396-.000048-2.99918 1.342735-2.999132 2.999132v10.61774c-.000048 1.6564 1.342736 2.999181 2.999132 2.999131h19.88392v19.88392c-.00005 1.6564 1.342736 2.99918 2.999132 2.99913h10.617742c1.65639.00005 2.99918-1.34273 2.99913-2.99913v-19.88392h19.88392c1.6564.00005 2.99918-1.342741 2.99913-2.999131z" fill="url(#e)"/><g fill-rule="evenodd"><path d="m31.7 16 2.875-3.375c-1.051205-1.695758-3.935136-2.288018-5.9375-.3125l2.8125 3.375z" fill="url(#f)" filter="url(#g)" opacity=".498127" transform="matrix(-.64954358 .64954358 .6557809 .6557809 76.701663 57.763298)"/><path d="m31.7 16 2.875-3.375c-1.051205-1.695758-3.935136-2.288018-5.9375-.3125l2.8125 3.375z" fill="url(#f)" filter="url(#g)" opacity=".790262" transform="matrix(-.6476361 -.6476361 .64147625 -.64147625 99.166281 149.43433)"/><path d="m31.7 16 2.875-3.375c-1.051205-1.695758-3.935136-2.288018-5.9375-.3125l2.8125 3.375z" fill="url(#h)" filter="url(#g)" opacity=".498127" transform="matrix(-.58819378 .58819378 -.59384198 -.59384198 124.77757 109.70474)"/><path d="m88.7 16 2.875-3.375c-1.051205-1.695758-3.935136-2.288018-5.9375-.3125l2.8125 3.375z" fill="url(#m)" filter="url(#g)" opacity=".790262" transform="matrix(-.59384198 -.59384198 .58819378 -.58819378 109.16011 158.42153)"/><path d="m31.7 16 2.875-3.375c-1.051205-1.695758-3.935136-2.288018-5.9375-.3125l2.8125 3.375z" fill="url(#i)" filter="url(#g)" opacity=".790262" transform="matrix(-.54004786 -.54004786 -.53491131 .53491131 144.9962 96.825516)"/><path d="m88.7 16 2.875-3.375c-1.051205-1.695758-3.935136-2.288018-5.9375-.3125l2.8125 3.375z" fill="url(#m)" filter="url(#g)" opacity=".790262" transform="matrix(-.55444337 -.55444337 -.5491699 .5491699 154.52391 106.08385)"/></g><path d="m120.75449 87.246019h-22.88305v-22.883898l-10.617741-.000005-.000001 22.883903h-22.883052v10.61774h22.883052v22.883051h10.617742v-22.883051h22.88305z" fill="url(#j)"/><path d="m97.87185 64.362208-10.617965-.000005v22.884181l-22.883579-.000435v10.61797h22.882977l.000001 22.882971h10.617966v-22.882971l22.88298-.00001-.00001-10.617956h-22.88297zm-.75422.754216-.00061 22.129359c-.00004.41656.33766.754256.75422.754217h22.12876v9.109529h-22.12876c-.41656-.00004-.75426.33766-.75422.75422v22.128761h-9.10953v-22.128761c.00004-.41656-.337657-.75426-.754216-.75422h-22.12876v-9.109534l22.129362.000436c.416558.000039.754257-.337657.754216-.754216v-22.129961z" fill="#eef4ca" fill-opacity=".779412" filter="url(#k)"/><path d="m87.253944 64.362288v22.882812h-22.882812v6.925781a65.433395 38.789856 0 0 0 17.794922 1.498047 65.433395 38.789856 0 0 0 38.587886-7.521484v-.902344h-22.88281v-22.882812z" fill="url(#l)"/></g></svg>