<svg height="16" viewBox="0 0 4.2333333 4.2333335" width="16" xmlns="http://www.w3.org/2000/svg" xmlns:xlink="http://www.w3.org/1999/xlink"><linearGradient id="a" gradientUnits="userSpaceOnUse" x1="21.913338" x2="20.917337" y1=".001315" y2="17.929335"><stop offset="0" stop-color="#3b3e22"/><stop offset="1" stop-color="#454545" stop-opacity="0"/></linearGradient><linearGradient id="b" gradientUnits="userSpaceOnUse" x1="22.742989" x2="23.964148" y1="31.14403" y2="3.05739"><stop offset="0" stop-color="#555"/><stop offset="1"/></linearGradient><g stroke-width="1.015378" transform="matrix(.13282282 0 0 .13282282 -.132466 -.132466)"><path d="m8.5561895 30.893702v-.683849q1.8378425-.341924 2.3934695-.81207.555627-.512886 1.068514-2.350729l5.257085-18.8913154q.470146-1.6668808.470146-2.649913 0-.8975512-.598368-1.2394754-.555626-.3846648-2.393469-.5983675v-.6838485h10.556911v.6838485q-1.880583.3419243-2.43621.8548107-.555627.4701458-1.068514 2.3079887l-5.257085 18.9340559q-.470146 1.66688-.470146 2.692653 0 .897551.512887 1.239476.555626.299183 2.393469.512886v.683849z" fill="url(#b)" stroke-width="1.015378"/><path d="m17.885667 2.9729648c.01393.00796.0178.026892.03152.03514.02526.016669.05273.015556.07803.033073zm4.027662.4139282-.04909.042891c.0091-.00837.02037-.00933.02946-.01757.0089-.00768.0106-.017674.01964-.025322zm-2.92592 1.0862385c.119499.3449489.24598.6963719.24598 1.0330119 0 .8934715-.193013 1.8701042-.5271 3.054594l-2.50424 9.0020356a18.798872 10.332203 0 0 0 1.056783.08165l3.113505-11.2122379a1.4885026 1.4885026 0 0 1 0-.00207c.217891-.7807736.43959-1.3998279.734322-1.9569867z" fill="url(#a)"/></g></svg>