<svg height="16" width="16" xmlns="http://www.w3.org/2000/svg" xmlns:xlink="http://www.w3.org/1999/xlink"><linearGradient id="a" gradientTransform="matrix(.9684223 -.00000004 .00000002 .5686868 24.36518 11.372902)" gradientUnits="userSpaceOnUse" x1="10.135816" x2="9.692278" y1="29.107889" y2="103.48482"><stop offset="0" stop-color="#72d13d"/><stop offset=".3553" stop-color="#35ac1c"/><stop offset=".6194" stop-color="#0f9508"/><stop offset=".7574" stop-color="#008c00"/><stop offset="1" stop-color="#007a00"/></linearGradient><linearGradient id="b" gradientUnits="userSpaceOnUse" x1="40" x2="40" y1="148" y2="48.585119"><stop offset="0" stop-color="#0968ef"/><stop offset="1" stop-color="#aecffc"/></linearGradient><linearGradient id="c" gradientTransform="matrix(.12417227 0 0 .21857388 2.43709 -129.69487)" gradientUnits="userSpaceOnUse" x1="399.77466" x2="399.77466" y1="1164.6696" y2="549.06134"><stop offset="0" stop-color="#b4b4b6"/><stop offset=".5" stop-color="#9c9ca1"/><stop offset="1" stop-color="#cdcdd1"/></linearGradient><linearGradient id="d" gradientTransform="matrix(.1195733 0 0 .24285987 2.346827 -146.77208)" gradientUnits="userSpaceOnUse" x1="399.77466" x2="399.77466" y1="791.98688" y2="593.10883"><stop offset="0" stop-color="#fff"/><stop offset=".42597079" stop-color="#fff"/><stop offset=".5892781" stop-color="#f1f1f1"/><stop offset=".80219781" stop-color="#eaeaea"/><stop offset="1" stop-color="#dfdfdf"/></linearGradient><g transform="scale(.125)"><path d="m16 24h96v96.000053h-96z" fill="#d9e8fc" opacity=".340824"/><path d="m10.875 16c-1.586162 0-2.875 1.222001-2.875 2.75v106.5c0 1.528 1.288837 2.75 2.875 2.75h106.25c1.58616 0 2.875-1.222 2.875-2.75v-106.5c0-1.527998-1.28884-2.75-2.875-2.75zm5.125 8h96v96h-96z" fill="url(#b)"/><g fill="#a2a2a2"><path d="m24 56h76v8h-76z"/><path d="m24 72h56v8h-56z"/><path d="m24 88h80v8h-80z"/></g><rect fill="url(#c)" height="48" rx="2.973228" ry="3.309743" width="96"/><rect fill="url(#d)" height="32" rx="2.863108" ry="3.677492" width="80" x="8" y="8"/><rect height="16" rx="2.863108" ry="1.838746" width="8" x="16" y="8"/><path d="m15.97976 59.98238 4.00126-4.00126 12.00378 8.00252.005-31.99497h8.00252l-.005 31.99497 12.00378-8.00252 4.00126 4.00126-20 24.00629z" style="fill:none;stroke:#fff;stroke-width:16;stroke-linecap:round;stroke-linejoin:round;stroke-dashoffset:1.0878"/><path d="m15.99236 59.99874 4.00126-4.00126 12.00378 8.00252-.005-32.01133h8l.0076 32.01133 12.00378-8.00252 4.00126 4.00126-20.0126 23.98993-20-23.98993z" fill="url(#a)"/><path d="m24 104h72v8h-72z" fill="#a2a2a2"/></g></svg>