<svg enable-background="new 0 0 128 128" height="16" viewBox="0 0 16 16" width="16" xmlns="http://www.w3.org/2000/svg" xmlns:xlink="http://www.w3.org/1999/xlink"><linearGradient id="a" gradientUnits="userSpaceOnUse" x1="85.219681" x2="61.336319" y1="93.219681" y2="69.336319"><stop offset="0"/><stop offset="1" stop-color="#393b38"/></linearGradient><linearGradient id="b" gradientUnits="userSpaceOnUse" x1="96" x2="88.000198" y1="104" y2="96.000198"><stop offset="0" stop-color="#888a85"/><stop offset=".0072" stop-color="#8c8e89"/><stop offset=".0673" stop-color="#abaca9"/><stop offset=".1347" stop-color="#c5c6c4"/><stop offset=".2115" stop-color="#dbdbda"/><stop offset=".3012" stop-color="#ebebeb"/><stop offset=".4122" stop-color="#f7f7f6"/><stop offset=".5679" stop-color="#fdfdfd"/><stop offset="1" stop-color="#fff"/></linearGradient><radialGradient id="c" cx="102" cy="112.3047" gradientTransform="matrix(.12234042 0 0 .12272727 .170213 .145467)" gradientUnits="userSpaceOnUse" r="139.55859"><stop offset="0" stop-color="#535557"/><stop offset=".11366145" stop-color="#898a8c"/><stop offset=".20296688" stop-color="#ececec"/><stop offset=".2363" stop-color="#fafafa"/><stop offset=".2722" stop-color="#fff"/><stop offset=".5313" stop-color="#fafafa"/><stop offset=".8449" stop-color="#ebecec"/><stop offset="1" stop-color="#e1e2e3"/></radialGradient><radialGradient id="d" cx="12.75" cy="14.0381" gradientUnits="userSpaceOnUse" r="17.444813"><stop offset="0" stop-color="#00537d"/><stop offset=".0151" stop-color="#186389"/><stop offset=".0558" stop-color="#558ca8"/><stop offset=".0964" stop-color="#89afc3"/><stop offset=".1357" stop-color="#b3ccd8"/><stop offset=".1737" stop-color="#d4e2e9"/><stop offset=".2099" stop-color="#ecf2f5"/><stop offset=".2435" stop-color="#fafcfd"/><stop offset=".2722" stop-color="#fff"/></radialGradient><filter id="e"><feGaussianBlur stdDeviation="1.0394514"/></filter><filter id="f"><feGaussianBlur stdDeviation=".50063244"/></filter><filter id="g"><feGaussianBlur stdDeviation=".4901192"/></filter><filter id="h"><feGaussianBlur stdDeviation=".90565481"/></filter><filter id="i" height="1.247155" width="1.247155" x="-.123577" y="-.123577"><feGaussianBlur stdDeviation="1.7720846"/></filter><filter id="j" color-interpolation-filters="sRGB" height="1.081416" width="1.047504" x="-.023752" y="-.040708"><feGaussianBlur stdDeviation="1.0608009"/></filter><linearGradient id="k" gradientUnits="userSpaceOnUse" x1="73.884003" x2="83.571121" y1="135.42368" y2="-20.739262"><stop offset="0" stop-color="#0d0"/><stop offset="1" stop-color="#000e00"/></linearGradient><radialGradient id="l" cx="73.72036" cy="101.74702" gradientTransform="matrix(4.1052304 -.37601167 .29689698 3.2414698 -264.18097 -192.83082)" gradientUnits="userSpaceOnUse" r="18.978512"><stop offset="0" stop-color="#0f0"/><stop offset="1" stop-color="#004d00"/></radialGradient><radialGradient id="m" cx="57.522243" cy="63.842773" gradientTransform="matrix(7.2611355 0 0 7.0240393 -399.44582 -454.49493)" gradientUnits="userSpaceOnUse" r="18.978512"><stop offset="0" stop-color="#bfffbf"/><stop offset="1" stop-color="#bfffbf" stop-opacity="0"/></radialGradient><linearGradient id="n" gradientUnits="userSpaceOnUse" x1="63.14854" x2="69.310593" y1="117.01452" y2="36.40435"><stop offset="0" stop-color="#f0ff80"/><stop offset="1" stop-color="#f0ff80" stop-opacity="0"/></linearGradient><clipPath id="o"><path d="m14.349982-.517543c-.584216 0-1.060283.477572-1.060283 1.063636l.325 101.872727c0 .58714.476067 1.06364 1.060283 1.06364h56.239107c.278855 0 .552408-.11274.74962-.31164l28.306991-28.417063c.19828-.1989.31066-.472254.31066-.75199v-73.455674c0-.586064-.47501-1.063636-1.06028-1.063636z"/></clipPath><path d="m23 9 .04082 112h61.13118c.53 0 1.039-.211 1.414-.586l32.828-32.828c.375-.375.586-.884.586-1.414v-77.172z" filter="url(#e)" opacity=".715069" transform="matrix(.13020834 0 0 .12946429 -1.244792 -.415179)"/><path d="m24.919999 10.931136v108.137934l58.676001-.0001c.53 0 1.039-.211 1.414-.586l31.484-31.765936c.375-.375.586-.884.586-1.414v-74.371898z" filter="url(#f)" opacity=".89589" transform="matrix(.13020834 0 0 .12946429 -1.244792 -.415179)"/><path d="m23 9.9655172.040816 111.0344828h61.131184c.53 0 1.039-.211 1.414-.586 13.296921-8.21061 24.14086-19.26784 32.828-32.828.375-.375.586-.884.586-1.414v-76.2064828z" filter="url(#e)" opacity=".835616" transform="matrix(.13020834 0 0 .12946429 -1.244792 -.415179)"/><path d="m2.0000002 1.0000124v13.9999996h7.6465c.06625 0 .129875-.02637.17675-.07325l4.1034998-4.1035c.046875-.046875.07325-.1105.07325-.17675v-9.6464996z" fill="url(#d)" stroke-width=".125"/><path d="m3.0848406 2.0000124c-.06741 0-.1223403.055104-.1223403.1227273l.0375 11.7545453c0 .06775.054931.122727.1223403.122727h6.4891278c.032176 0 .063739-.01301.086495-.03596l3.2661906-3.278892c.022879-.022948.035846-.054488.035846-.086766v-8.4756543c0-.067623-.05481-.1227273-.12234-.1227273z" fill="url(#c)" stroke-width=".125"/><g clip-path="url(#o)" transform="matrix(.125 0 0 .125 .883059 1.564705)"><g fill-rule="evenodd"><path d="m50.89259 41.365234c-1.12727-.0027-2.06505.866053-2.14844 1.990235l.10547-1.81836-1.41992.0039c-1.18408.0037-2.14215.96435-2.14258 2.148437 0 3.859363.64931 8.254153.71094 11.927735.0308 1.83679-.0916 3.477023-.41602 4.671874-.32446 1.194852-.77168 1.860468-1.38867 2.263672-.31066.203018-.26937.172456-.5625.09961-.29313-.07285-8.85247-.358545-9.52539-.804688-1.34585-.892285-3.16245-2.607066-5.93164-2.363281-2.98054.262395-5.18505 2.360886-6.40235 4.792969-1.21729 2.432082-1.7159 5.309732-1.75781 8.142578-.0404 2.731021.17151 5.088231.96289 7.167969.79138 2.079737 2.26952 3.830472 4.30078 4.921875 1.56565.84121 3.25906.609105 4.58399.166015 1.32493-.443089 2.4905-1.112021 3.54101-1.683593 1.05051-.571573 10.0016-1.032024 10.50391-1.158204s.1262-.175502.16992-.125c.93301 1.077594 1.58063 4.19266 1.60352 8 .0229 3.80734-.37107 8.196223-.39258 12.037103-.006 1.19171.95867 2.16083 2.15039 2.16016l26.16602-.0449 24.16406.0449c1.19172.00067 2.15645-.96845 2.15039-2.16016-.0215-3.84069-.41594-8.229782-.39258-12.037103.0234-3.80732.67232-6.922249 1.60547-8 .0438-.05061-.33408-.0011.16797.125.50204.126139 9.45363.586631 10.5039 1.158204 1.05027.571572 4.21622 1.240469 5.54102 1.683593 1.3248.443125 3.01841.675155 4.58398-.166015 2.03127-1.091402 3.5094-2.842136 4.30079-4.921875.79138-2.079739 1.00327-4.436947.96289-7.167969-.0419-2.832846-.54052-5.710496-1.75782-8.142578-1.2173-2.432083-3.42181-4.530574-6.40234-4.792969-2.7692-.243785-6.58579 1.470996-7.93164 2.363281-.67292.446143-9.23226.731842-9.52539.804688-.29314.07285-.25184.10341-.5625-.09961-.61699-.403203-1.06421-1.06882-1.38867-2.263672-.32446-1.194851-.44683-2.835083-.41602-4.671874.0616-3.673583.71094-8.068373.71094-11.927735-.00043-1.184087-.9585-2.144777-2.14258-2.148437l-1.44141-.0039.12891 1.826172c-.0795-1.12802-1.01957-2.001461-2.15039-1.998047l-20.70898.08398z" fill="#252525" filter="url(#j)"/><path d="m50.76759 40.490234c-1.12727-.0027-2.06505.866053-2.14844 1.990235l.10547-1.81836-1.41992.0039c-1.18408.0037-2.14215.96435-2.14258 2.148437 0 3.859363.64931 8.254153.71094 11.927735.0308 1.83679-.0916 3.477023-.41602 4.671874-.32446 1.194852-.77168 1.860468-1.38867 2.263672-.31066.203018-.26937.172456-.5625.09961-.29313-.07285-8.85247-.358545-9.52539-.804688-1.34585-.892285-3.16245-2.607066-5.93164-2.363281-2.98054.262395-5.18505 2.360886-6.40235 4.792969-1.21729 2.432082-1.7159 5.309732-1.75781 8.142578-.0404 2.731021.17151 5.088231.96289 7.167969.79138 2.079737 2.26952 3.830472 4.30078 4.921875 1.56565.84121 3.25906.609105 4.58399.166015 1.32493-.443089 2.4905-1.112021 3.54101-1.683593 1.05051-.571573 10.0016-1.032024 10.50391-1.158204s.1262-.175502.16992-.125c.93301 1.077594 1.58063 4.19266 1.60352 8 .0229 3.80734-.37107 8.196223-.39258 12.037103-.006 1.19171.95867 2.16083 2.15039 2.16016l26.16602-.0449 24.16406.0449c1.19172.00067 2.15645-.96845 2.15039-2.16016-.0215-3.84069-.41594-8.229782-.39258-12.037103.0234-3.80732.67232-6.922249 1.60547-8 .0438-.05061-.33408-.0011.16797.125.50204.126139 9.45363.586631 10.5039 1.158204 1.05027.571572 4.21622 1.240469 5.54102 1.683593 1.3248.443125 3.01841.675155 4.58398-.166015 2.03127-1.091402 3.5094-2.842136 4.30079-4.921875.79138-2.079739 1.00327-4.436947.96289-7.167969-.0419-2.832846-.54052-5.710496-1.75782-8.142578-1.2173-2.432083-3.42181-4.530574-6.40234-4.792969-2.7692-.243785-6.58579 1.470996-7.93164 2.363281-.67292.446143-9.23226.731842-9.52539.804688-.29314.07285-.25184.10341-.5625-.09961-.61699-.403203-1.06421-1.06882-1.38867-2.263672-.32446-1.194851-.44683-2.835083-.41602-4.671874.0616-3.673583.71094-8.068373.71094-11.927735-.00043-1.184087-.9585-2.144777-2.14258-2.148437l-1.44141-.0039.12891 1.826172c-.0795-1.12802-1.01957-2.001461-2.15039-1.998047l-20.70898.08398z" fill="url(#k)"/><path d="m124.91806 71.575291c-.0765-5.17171-1.93837-10.45106-6.19922-10.82617-3.22771-.28415-15.91857 4.7454-19.00781 2.72656-4.65416-3.04153-2.06641-13.45801-2.06641-20.66211l-3.43945-.0098-.0117-.16601-20.714845.08398-22.7168-.08398-.01.16601-3.44141.0098c0 7.2041 2.58776 17.62058-2.06641 20.66211-3.08923 2.01884-13.7801-3.01071-17.00781-2.72656-4.26085.37511-6.12272 5.65446-6.19922 10.82617-.0766 5.18049.89384 8.4257 4.13282 10.16601 3.41449 1.83458 16.99857-5.09523 19.40625-2.31445 3.3197 3.83414 1.77577 14.06137 1.73437 21.455079l26.16797-.0449 24.166015.0449c-.0414-7.393709-1.58337-17.620939 1.73633-21.455079 2.40768-2.78078 17.98981 4.14903 21.4043 2.31445 3.23899-1.74031 4.20942-4.98552 4.13281-10.16601z" fill="url(#l)"/><path d="m50.761725 42.638672-.0098.166016-3.4414.0098c0 7.2041 2.58776 17.620579-2.06641 20.662109-3.08923 2.01884-13.7801-3.010712-17.00781-2.726562-4.26085.37511-6.12272 5.654462-6.19922 10.826172-.03325 2.248452.14828 4.111496.60937 5.666016 31.78076-3.728951 50.57776-11.331667 74.289075-21.759766-.0209-4.066792.70898-8.821106.70898-12.667969l-3.43945-.0098-.0117-.166016-20.714845.08398z" fill="url(#m)"/></g><path d="m124.91806 71.575291c-.0765-5.17171-1.93837-10.45106-6.19922-10.82617-3.22771-.28415-15.91857 4.7454-19.00781 2.72656-4.65416-3.04153-2.06641-13.45801-2.06641-20.66211l-3.43945-.0098-.0117-.16601-20.714845.08398-22.7168-.08398-.01.16601-3.44141.0098c0 7.2041 2.58776 17.62058-2.06641 20.66211-3.08923 2.01884-13.7801-3.01071-17.00781-2.72656-4.26085.37511-6.12272 5.65446-6.19922 10.82617-.0766 5.18049.89384 8.4257 4.13282 10.16601 3.41449 1.83458 16.99857-5.09523 19.40625-2.31445 3.3197 3.83414 1.77577 14.06137 1.73437 21.455079l26.16797-.0449 24.166015.0449c-.0414-7.393709-1.58337-17.620939 1.73633-21.455079 2.40768-2.78078 17.98981 4.14903 21.4043 2.31445 3.23899-1.74031 4.20942-4.98552 4.13281-10.16601z" fill="none" stroke="url(#n)" stroke-width=".5"/></g><g transform="matrix(.125 0 0 .125 0 .000012)"><path d="m111.414 86.586c.25-.25-26.379-1.586-31.414-1.586-1.654 0-3 1.346-3 3 0 5.035 1.336 31.664 1.586 31.414z" filter="url(#i)" opacity=".906849"/><path d="m111.414 86.586c.375-.375-21.97-.586-31.414-.586-1.103 0-2 .897-2 2 0 9.444.211 31.789.586 31.414z" filter="url(#h)" opacity=".2"/><path d="m111.414 86.586c.239-.239-21.607.414-31.414.414-.553 0-1 .447-1 1 0 9.807-.653 31.653-.414 31.414z" fill="url(#a)" filter="url(#g)" opacity=".1"/><path d="m78.586 119.414s11.914-9.914 17.414-15.414 15.414-17.414 15.414-17.414-21.164 1.414-31.414 1.414c0 10.25-1.414 31.414-1.414 31.414z" fill="url(#b)"/></g></svg>