<svg height="16" viewBox="0 0 4.2333333 4.2333335" width="16" xmlns="http://www.w3.org/2000/svg" xmlns:xlink="http://www.w3.org/1999/xlink"><linearGradient id="a" gradientUnits="userSpaceOnUse" x1="2.116667" x2="2.116667" y1="22.225001" y2="9.525001"><stop offset="0" stop-color="#06f"/><stop offset="1" stop-color="#80b3ff"/></linearGradient><linearGradient id="b" gradientTransform="matrix(-.84615404 0 0 -1.2648364 31.261552 637.61137)" gradientUnits="userSpaceOnUse" x1="-5.580285" x2="41.94849" y1="297.74185" y2="264.27243"><stop offset="0" stop-color="#cccdcf"/><stop offset=".11366145" stop-color="#e0e0e1"/><stop offset=".20296694" stop-color="#f2f2f2"/><stop offset=".21468808" stop-color="#fafafa"/><stop offset=".21468808" stop-color="#fff"/><stop offset=".63157898" stop-color="#fafafa"/><stop offset=".8449" stop-color="#ebecec"/><stop offset="1" stop-color="#e1e2e3"/></linearGradient><filter id="c" color-interpolation-filters="sRGB" height="1.0264" width="1.022" x="-.011" y="-.0132"><feGaussianBlur stdDeviation=".1200918"/></filter><filter id="d" color-interpolation-filters="sRGB" height="1.132" width="1.11" x="-.055" y="-.066"><feGaussianBlur stdDeviation=".600459"/></filter><filter id="e" color-interpolation-filters="sRGB" height="1.0528" width="1.044" x="-.022" y="-.0264"><feGaussianBlur stdDeviation=".2401836"/></filter><g transform="matrix(.125 0 0 .125 -.000002 -32.759372)"><path d="m1.7325692 267.06621h30.4015288v30.2342h-30.4015288z" fill="#313131" filter="url(#e)" transform="matrix(-1.0080161 0 0 -1.0080161 34.002412 564.51196)"/><path d="m1.8599554 267.24631h30.1467556v29.874h-30.1467556z" fill="#949494" filter="url(#c)" transform="matrix(-1.0531812 0 0 -1.0531812 34.767212 577.25679)"/><path d="m2.4287318 267.39798h29.0092052v29.57064h-29.0092052z" fill="#a4a4a4" filter="url(#d)" transform="matrix(-1.09448 0 0 -1.09448 35.466532 588.91063)"/><path d="m31.750012 294.88329h-29.63334v-29.6333h29.63334z" fill="#f8f8f8" opacity=".99"/><path d="m28.575012 291.70832h-23.28334v-23.28333h23.28334z" fill="url(#b)" opacity=".99"/><g fill="#cacaca"><path d="m29.633342 292.76665h-1.05833v-25.4h1.05833z"/><path d="m5.291682 292.76665h-1.05834v-25.4h1.05834z"/><path d="m28.574999 286.41666v1.05833h-23.2833295v-1.05833z"/><path d="m29.633332 267.36665v1.05833h-25.3999988v-1.05833z"/><path d="m29.633332 272.65832v1.05833h-25.399998v-1.05833z"/><path d="m29.633332 276.89165v1.05833h-25.3999972v-1.05833z"/><path d="m29.633332 281.12499v1.05833h-25.3999964v-1.05833z"/><path d="m28.574999 291.70832v1.05833h-23.2833298v-1.05833z"/><path d="m9.5250064 292.76665h-1.05834v-25.4h1.05834z"/><path d="m13.75834 292.76665h-1.05834v-25.4h1.05834z"/><path d="m19.050006 292.76665h-1.05834v-25.4h1.05834z"/><path d="m24.341673 292.76665h-1.05834v-25.4h1.05834z"/></g><g fill="#258aff" fill-rule="evenodd" transform="matrix(0 1 -1 0 293.824983 259.958317)"><path d="m8.4666713 279.00832v2.11667h4.2333327v-2.11667z"/><path d="m13.758337 279.00832v2.11667h3.175001v-2.11667z"/><path d="m17.991671 279.00832v2.11667h3.174999v-2.11667z"/><path d="m22.225003 279.00832v2.11667h4.233334v-2.11667z"/><path d="m27.51667 279.00831v2.11667l4.233333.00001v-2.11667z"/><path d="m5.2916664 280.06664v2.11667h2.1166666v-2.11667z"/><path d="m32.808336 279.00832v2.11667h2.116667v-2.11667z"/></g></g><g transform="matrix(0 .125 -.125 0 3.704168 0)"><path d="m8.4666671 15.875001c-2.2163347 1.439211-6.2503322 4.910787-8.4666667 6.349999v-12.7000002c2.2163345 1.4392122 6.2503323 4.9107892 8.4666667 6.3500012z" fill="url(#a)"/><path d="m8 56.052734v15.894532c3.497188-2.745361 6.765701-5.232021 10.330078-7.947266-3.564377-2.715245-6.83289-5.201905-10.330078-7.947266z" fill="#bfd9ff" transform="matrix(.26458334 0 0 .26458334 0 -1.058333)"/></g></svg>