<svg height="16" width="16" xmlns="http://www.w3.org/2000/svg" xmlns:xlink="http://www.w3.org/1999/xlink"><filter id="a"><feGaussianBlur stdDeviation="1.177891"/></filter><linearGradient id="b"><stop offset="0" stop-color="#6f6f6f"/><stop offset="1" stop-color="#fff"/></linearGradient><linearGradient id="c" gradientUnits="userSpaceOnUse" x1="1052.916" x2="1055.8423" xlink:href="#b" y1="-481.74805" y2="-476.67953"/><linearGradient id="d" gradientUnits="userSpaceOnUse" x1="1053.9857" x2="1057.7916" xlink:href="#b" y1="-483.13486" y2="-476.54285"/><linearGradient id="e" gradientUnits="userSpaceOnUse" x1="1052.3214" x2="1055.2821" xlink:href="#b" y1="-481.76657" y2="-476.63852"/><linearGradient id="f" gradientTransform="matrix(.121457 0 0 .1756605 115.62276 282.79187)" gradientUnits="userSpaceOnUse" x1="-333.0289" x2="-333.0289" y1="-1473.6504" y2="-1301.7214"><stop offset="0" stop-color="#fff"/><stop offset=".49140647" stop-color="#fff"/><stop offset="1" stop-color="#dcdcdc"/></linearGradient><linearGradient id="g" gradientTransform="matrix(.121457 0 0 .1756605 -3.82022 -72.522224)" gradientUnits="userSpaceOnUse" x1="399.77466" x2="399.77466" y1="727.07941" y2="480.60214"><stop offset="0" stop-color="#cbcbcd"/><stop offset=".5" stop-color="#e0e0e2"/><stop offset="1" stop-color="#f2f2f2"/></linearGradient><linearGradient id="h" gradientUnits="userSpaceOnUse" x1="15.093026" x2="25.320713" xlink:href="#i" y1="292.12253" y2="263.66364"/><linearGradient id="i"><stop offset="0" stop-color="#555"/><stop offset="1"/></linearGradient><linearGradient id="j" gradientUnits="userSpaceOnUse" x1="21.34454" x2="27.9718" xlink:href="#i" y1="288.04095" y2="269.6004"/><g transform="matrix(.125 0 0 .125 -.000001 -1)"><rect filter="url(#a)" height="66.305458" opacity=".4" rx="2.143353" ry="2.53025" transform="matrix(.9714876 0 0 1.1112289 -75.301221 -245.93402)" width="124" x="81.628647" y="232.05415"/><rect fill="url(#g)" height="64" rx="2.074212" ry="2.448628" width="112.00001" x="8" y="16"/><path d="m10.125 16.007569c-1.1491098 0-2.0624998 1.08096-2.0624998 2.43749v59.12498c0 1.35655.91339 2.4375 2.0624998 2.4375h107.875c1.14913 0 2.0625-1.08095 2.0625-2.4375v-59.12498c0-1.35653-.91337-2.43749-2.0625-2.43749zm4.40625 7.95625h99.0625c1.09166 0 1.96875 1.02406 1.96875 2.29688v49.94997c0 1.2728-.87709 2.29687-1.96875 2.29687h-99.0625c-1.09166 0-1.96875-1.02407-1.96875-2.29687v-49.94997c0-1.27282.87709-2.29688 1.96875-2.29688z" fill="url(#f)"/><circle cx="1055.3002" cy="-478.60516" fill="url(#c)" r="5.060289" transform="matrix(1.51997385 0 0 1.54878611 -1580.028656 773.257022)"/><circle cx="1055.3002" cy="-478.60516" fill="url(#d)" r="5.060289" transform="matrix(1.54878643 0 0 1.56074986 -1602.434586 794.982931)"/><circle cx="1055.3002" cy="-478.60516" fill="url(#e)" r="5.060289" transform="matrix(1.5679217 0 0 1.58093645 -1630.62804 820.644343)"/><rect fill="#fff" fill-opacity=".911765" height="40" ry="5.5" width="64" x="48" y="32"/><path d="m51.858405 27.158685c-1.955613 0-3.510055 1.839628-3.510055 4.148247v36.653312c0 2.30862 1.554444 4.148247 3.510055 4.148247h56.631545c1.95561 0 3.51005-1.839629 3.51005-4.148247v-36.653312c0-2.30862-1.55444-4.148247-3.51005-4.148247zm1.914575 4.786438h52.69602c1.95561 0 3.51006 1.839626 3.51006 4.148247v30.696856c0 2.308619-1.55444 4.148246-3.51006 4.148246h-52.69602c-1.95561 0-3.510054-1.839625-3.510054-4.148246v-30.696856c0-2.308619 1.55444-4.148247 3.510054-4.148247z" opacity=".391089"/><path d="m63.28125 17.734375c-4.700886 0-9.246595.991343-13.259766 3.103516-3.985883 2.097846-7.356931 5.251375-9.914062 9.082031-2.196946 3.217857-4.048864 6.524198-5.527344 9.916016-.805083 1.84696-1.466581 4.200575-2.185547 6.335937h-3.261719a7.1398459 7.1398459 0 0 0 -6.980468 5.642578l-1.027344 4.794922a7.1398459 7.1398459 0 0 0 6.416016 8.611328c-1.385861 6.145713-2.715441 12.004628-4.46875 20.027344-2.330183 10.604293-4.073269 17.773083-5.462891 23.140623-2.107847-1.54202-4.657411-2.71679-7.320313-2.71679-3.3774418 0-6.9544674 1.62515-9.2363276 4.01171-2.3291628 2.37718-3.8398438 5.93246-3.8398438 9.29493 0 4.50139 2.20408322 9.27845 5.7910156 12.09765 3.5512484 2.85845 8.0961758 4.0625 12.6523438 4.0625 4.536875 0 8.989669-1.11947 12.849609-3.37109a7.1398459 7.1398459 0 0 0 .05273-.0312c8.795966-5.23304 13.996896-15.42396 18.261718-29.66602.800641-2.668791 1.949911-7.365789 3.148438-12.337888.46624 2.31502 1.000406 4.609777 1.806641 6.808594a7.1398459 7.1398459 0 0 0 .0098.02539c1.933313 5.214084 4.961908 10.495864 8.994141 16.013674a7.1398459 7.1398459 0 0 0 9.664062 1.76562l1.703125-1.11132a7.1398459 7.1398459 0 0 0 2.302735-9.51172c-.275727-.48421-.42809-.87477-.671875-1.33594 1.466014.53871 2.989768.83398 4.417968.83398 3.25459 0 6.800227-1.13892 9.378907-3.4082.174755-.153783.283295-.347468.449219-.503906 2.319023 2.298736 5.674161 3.912106 8.820312 3.912106.625318 0 1.235702-.10291 1.847656-.18945a7.1398459 7.1398459 0 0 0 .556641 8.47852l1.257813 1.48046a7.1398459 7.1398459 0 0 0 9.40234 1.31641c.39807-.26547.63621-.4511.94727-.68555l.0371-.0254c.0513-.0386.0953-.0685.15234-.11132 1.27966-.89692 2.21485-1.5601 2.90625-2.07422 1.32019-.91569 2.42107-1.90264 4.17383-3.46094 1.98294-1.66406 3.61393-3.17739 4.97461-4.74219 1.20234-1.38269 2.52118-3.08235 4.07031-5.199218.002-.0022.004-.0036.006-.0059 1.77943-2.414224 3.22511-4.866874 4.28125-7.417969 1.04853-2.417389 1.86603-5.063416 2.52735-7.972656.76488-3.144339 1.15429-6.365751 1.15429-9.617187 0-6.21805-1.05816-12.110712-3.26562-17.490235-2.04281-5.096286-4.96063-10.170123-8.6875-15.28125a7.1398459 7.1398459 0 0 0 -9.66407-1.77539l-1.70312 1.109375a7.1398459 7.1398459 0 0 0 -2.2168 9.667968c1.39505 2.313744 2.25157 4.307704 2.84766 6.087891-1.61247-.880722-3.37596-1.519531-5.17188-1.519531-3.35147 0-6.49671 1.449871-8.976559 3.414062-.05734-.08767-.07162-.187824-.130859-.27539a7.1398459 7.1398459 0 0 0 -6.929688-3.066407l-11.185546 1.607422c.07514-.08573.253646-.357466.320312-.429687a7.1398459 7.1398459 0 0 0 .08984-.09961c.975701-1.097661 2.234911-2.364115 3.765625-3.759765a7.1398459 7.1398459 0 0 0 .49414-10.054688l-1.332031-1.478515a7.1398459 7.1398459 0 0 0 -2.433594-1.75c.393984-1.292879.767578-2.609693.767578-3.890625.000001-4.532718-2.163905-9.360427-5.792968-12.212891-3.551253-2.85846-8.09618-4.0625-12.652344-4.0625zm-5.205078 9.863281c-.01033.01876-.01447.02911-.02539.04883.01059-.0304.01466-.02369.02539-.04883zm20.015625 15.623047-.169922.177735c.0312-.03121.05313-.07191.08398-.103516.02589-.02714.06037-.04683.08594-.07422zm-17.615235.826172c1.088745.90484 2.303321 1.701062 3.673829 2.230469-.139172.125786-.303485.261825-.4375.386718a7.1398459 7.1398459 0 0 0 -2.601563-.492187h-1.289062c.21591-.807146.434495-1.398286.654296-2.125zm54.810548 13.242187.27148.289063c-.0403-.045-.11478-.06872-.15625-.113281-.047-.04901-.0675-.128018-.11523-.175782zm-42.056641 9.951172a7.1398459 7.1398459 0 0 0 6.578125 4.595704l1.496094 7.667968-.865235 1.375c-.88937-.245792-1.823718-.445312-2.910156-.445312-2.565994 0-5.27587 1.224595-7.251953 2.93164.138177-2.897638.383912-5.685659.84375-8.242187.650639-3.36582 1.387608-5.857241 2.109375-7.882813zm39.884761 7.503907c-.22409 1.489027-.41391 2.966804-.74804 4.492187a7.1398459 7.1398459 0 0 0 -.0137.0625c-.13488.64375-.31682 1.145556-.4629 1.757813l-1.46679-.978516a7.1398459 7.1398459 0 0 0 -5.86719-.931641l-.57812-2.810546c.0783-.114937.14434-.206722.21679-.310547.85557.286086 1.86599.480466 3.23047.480468 1.9176-.000001 3.90153-.735668 5.68945-1.761718zm-43.52148 9.037109c-.02611.02611-.03664.06921-.0625.0957-.02373.02464-.06452.03572-.08789.06055zm36.96875 15.740234-.0801.0625c.0136-.01092.0254-.02616.0391-.03711.0122-.01.0289-.01537.041-.02539zm-85.583984 25.724606c-.14756.45331-.304497.51721-.308594.52539-.0057.0114.145326-.25121.308594-.52539z" fill="#fff" opacity=".87" stroke-width="2.855131" transform="translate(0 8)"/><g font-family="sans-serif" letter-spacing="0" transform="matrix(3.7795275 0 0 3.7795275 1.150747 -974.57112)" word-spacing="0"><text fill="url(#h)" font-size="30.216818" stroke-width=".75542" x="3.717278" y="287.64417"><tspan style="font-style:italic;font-weight:bold;font-family:FreeSerif;letter-spacing:-1.22497463;stroke-width:.75542;fill:url(#h)" x="3.717278" y="287.64417">f</tspan></text><text fill="url(#j)" font-size="19.57967" stroke-width=".489492" x="13.973368" y="285.13913"><tspan style="font-style:italic;font-weight:bold;font-family:FreeSerif;letter-spacing:-.79374999;stroke-width:.489492;fill:url(#j)" x="13.973368" y="285.13913">(x)</tspan></text></g></g></svg>