<svg enable-background="new 0 0 128 128" height="16" viewBox="0 0 16 16" width="16" xmlns="http://www.w3.org/2000/svg" xmlns:xlink="http://www.w3.org/1999/xlink"><linearGradient id="a" gradientUnits="userSpaceOnUse" x1="85.219681" x2="61.336319" y1="93.219681" y2="69.336319"><stop offset="0"/><stop offset="1" stop-color="#393b38"/></linearGradient><linearGradient id="b" gradientUnits="userSpaceOnUse" x1="96" x2="88.000198" y1="104" y2="96.000198"><stop offset="0" stop-color="#888a85"/><stop offset=".0072" stop-color="#8c8e89"/><stop offset=".0673" stop-color="#abaca9"/><stop offset=".1347" stop-color="#c5c6c4"/><stop offset=".2115" stop-color="#dbdbda"/><stop offset=".3012" stop-color="#ebebeb"/><stop offset=".4122" stop-color="#f7f7f6"/><stop offset=".5679" stop-color="#fdfdfd"/><stop offset="1" stop-color="#fff"/></linearGradient><radialGradient id="c" cx="102" cy="112.3047" gradientTransform="matrix(.9787234 0 0 .9818182 1.361705 1.163636)" gradientUnits="userSpaceOnUse" r="139.55859"><stop offset="0" stop-color="#535557"/><stop offset=".11366145" stop-color="#898a8c"/><stop offset=".20296688" stop-color="#ececec"/><stop offset=".2363" stop-color="#fafafa"/><stop offset=".2722" stop-color="#fff"/><stop offset=".5313" stop-color="#fafafa"/><stop offset=".8449" stop-color="#ebecec"/><stop offset="1" stop-color="#e1e2e3"/></radialGradient><radialGradient id="d" cx="102" cy="112.3047" gradientUnits="userSpaceOnUse" r="139.5585"><stop offset="0" stop-color="#00537d"/><stop offset=".0151" stop-color="#186389"/><stop offset=".0558" stop-color="#558ca8"/><stop offset=".0964" stop-color="#89afc3"/><stop offset=".1357" stop-color="#b3ccd8"/><stop offset=".1737" stop-color="#d4e2e9"/><stop offset=".2099" stop-color="#ecf2f5"/><stop offset=".2435" stop-color="#fafcfd"/><stop offset=".2722" stop-color="#fff"/></radialGradient><filter id="e"><feGaussianBlur stdDeviation="1.0394514"/></filter><filter id="f"><feGaussianBlur stdDeviation=".50063244"/></filter><filter id="g"><feGaussianBlur stdDeviation=".4901192"/></filter><filter id="h"><feGaussianBlur stdDeviation=".90565481"/></filter><filter id="i" height="1.247155" width="1.247155" x="-.123577" y="-.123577"><feGaussianBlur stdDeviation="1.7720846"/></filter><linearGradient id="j" gradientTransform="matrix(1.0049075 0 0 1 7.528874 .15753)" gradientUnits="userSpaceOnUse" spreadMethod="reflect" x1="93.637222" x2="64.116623" y1="76.247704" y2="76.247704"><stop offset="0" stop-color="#777"/><stop offset="1" stop-color="#909090"/></linearGradient><radialGradient id="k" cx="50.790016" cy="19.459543" gradientTransform="matrix(1 0 0 .3685052 0 21.824288)" gradientUnits="userSpaceOnUse" r="25.617748"><stop offset="0" stop-color="#fefefe"/><stop offset="1" stop-color="#e7e7e7"/></radialGradient><linearGradient id="l" gradientTransform="matrix(1.0837352 0 0 .97440388 -12.843601 1.563565)" gradientUnits="userSpaceOnUse" x1="62.6875" x2="62.6875" y1="50.053383" y2="98.544846"><stop offset="0" stop-color="#fff"/><stop offset="1" stop-color="#fff" stop-opacity="0"/></linearGradient><g transform="matrix(.125 0 0 .125 -.000001 .000012)"><path d="m23 9 .04082 112h61.13118c.53 0 1.039-.211 1.414-.586l32.828-32.828c.375-.375.586-.884.586-1.414v-77.172z" filter="url(#e)" opacity=".715069" transform="matrix(1.0416667 0 0 1.0357143 -9.958333 -3.321534)"/><path d="m24.919999 10.931136v108.137934l58.676001-.0001c.53 0 1.039-.211 1.414-.586l31.484-31.765936c.375-.375.586-.884.586-1.414v-74.371898z" filter="url(#f)" opacity=".89589" transform="matrix(1.0416667 0 0 1.0357143 -9.958333 -3.321534)"/><path d="m23 9.9655172.040816 111.0344828h61.131184c.53 0 1.039-.211 1.414-.586 13.296921-8.21061 24.14086-19.26784 32.828-32.828.375-.375.586-.884.586-1.414v-76.2064828z" filter="url(#e)" opacity=".835616" transform="matrix(1.0416667 0 0 1.0357143 -9.958333 -3.321534)"/><path d="m16.000002 8v112h61.172c.53 0 1.039-.211 1.414-.586l32.827998-32.828c.375-.375.586-.884.586-1.414v-77.172z" fill="url(#d)"/><path d="m24.678725 16c-.539276 0-.978723.440836-.978723.981818l.3 94.036362c0 .54197.439447.98182.978723.98182h51.913022c.257404 0 .509915-.10407.691957-.28767l26.129526-26.23113c.18303-.1836.28677-.435927.28677-.694145v-67.805237c0-.540982-.43847-.981818-.97872-.981818z" fill="url(#c)"/><g transform="translate(0 8)"><path d="m72.062778 24.18878c-17.629524 0-31.937216 6.857289-31.937216 15.3125 0 .232569.0101.457449.03145.6875h-.157018v34.96875h.157018c-.0214.230049-.03145.454931-.03145.6875 0 8.45521 14.307692 15.3125 31.937216 15.3125 17.629525 0 31.937222-6.85729 31.937222-15.3125 0-.232569-.009-.457451-.0314-.6875h.0314v-34.96875h-.0314c.0213-.230049.0314-.454933.0314-.6875 0-8.455208-14.307697-15.3125-31.937222-15.3125z" fill="url(#j)"/><ellipse cx="58.382252" cy="34.559727" fill="url(#k)" opacity=".867256" rx="25.617748" ry="9.440273" transform="matrix(1.0330224 0 0 1.1041215 11.532777 -.014258)"/><path d="m47.442544 49.72003c-1.318308 1.238388-2.072622 2.573784-2.072622 4 0 5.753611 11.865063 10.4375 26.473032 10.4375s26.473033-4.683887 26.473033-10.4375c0-1.426216-.754314-2.761612-2.072621-4-3.990127 3.766069-13.39776 6.4375-24.400412 6.4375-11.002651 0-20.410295-2.671432-24.40041-6.4375z" fill="#e4e4e4"/><path d="m47.442544 65.72003c-1.318308 1.238388-2.072622 2.573784-2.072622 4 0 5.753611 11.865063 10.4375 26.473032 10.4375s26.473033-4.683887 26.473033-10.4375c0-1.426216-.754314-2.761612-2.072621-4-3.990127 3.766069-13.39776 6.4375-24.400412 6.4375-11.002651 0-20.410295-2.671432-24.40041-6.4375z" fill="#e4e4e4"/><path d="m47.950688 44.22695.402885 41.352028c3.018051.374687 6.187771 4.578552 9.482684 4.578552 2.10562 0 4.162095-.08662 6.163743-.243601l.277967-41.504278c-6.970945 2.333965-12.93203-3.761518-16.327279-4.182701z" fill="url(#l)" opacity=".52809"/><g fill="#7f7f7f"><path d="m71.842954 23.68942c-17.142365 0-31.097998 7.034703-31.685989 15.83927 2.630867-4.285624 8.90968-7.776241 17.114831-9.720432 4.09117-1.550349 9.114069-2.478517 14.571158-2.478517 5.457091 0 10.47999.92817 14.57116 2.478517 8.205151 1.94419 14.483966 5.434808 17.114826 9.720432-.58799-8.80457-14.54362-15.83927-31.685986-15.83927z" opacity=".685393"/><path d="m71.842954 91.13927c-17.142365 0-31.097998-7.0347-31.685989-15.83927 2.630867 4.28562 8.90968 7.77624 17.114831 9.72043 4.09117 1.55035 9.114069 2.47852 14.571158 2.47852 5.457091 0 10.47999-.92817 14.57116-2.47852 8.205151-1.94419 14.483966-5.43481 17.114826-9.72043-.58799 8.80457-14.54362 15.83927-31.685986 15.83927z" opacity=".685393"/></g></g><g fill="#2d2d2d"><path d="m24 16h8v8h-8z" opacity=".380531"/><path d="m24 32h8v8h-8z" opacity=".380531"/><path d="m24 48h8v8h-8z" opacity=".380531"/><path d="m24 64h8v8h-8z" opacity=".380531"/><path d="m24 80h8v8h-8z" opacity=".380531"/><path d="m24 96h8v8h-8z" opacity=".380531"/><path d="m24 112h8v8h-8z" fill-opacity=".331551" opacity=".380531"/></g><g transform="translate(.000002)"><path d="m111.414 86.586c.25-.25-26.379-1.586-31.414-1.586-1.654 0-3 1.346-3 3 0 5.035 1.336 31.664 1.586 31.414z" filter="url(#i)" opacity=".906849"/><path d="m111.414 86.586c.375-.375-21.97-.586-31.414-.586-1.103 0-2 .897-2 2 0 9.444.211 31.789.586 31.414z" filter="url(#h)" opacity=".2"/><path d="m111.414 86.586c.239-.239-21.607.414-31.414.414-.553 0-1 .447-1 1 0 9.807-.653 31.653-.414 31.414z" fill="url(#a)" filter="url(#g)" opacity=".1"/><path d="m78.586 119.414s11.914-9.914 17.414-15.414 15.414-17.414 15.414-17.414-21.164 1.414-31.414 1.414c0 10.25-1.414 31.414-1.414 31.414z" fill="url(#b)"/></g></g></svg>