<svg enable-background="new 0 0 128 128" height="16" viewBox="0 0 16 16" width="16" xmlns="http://www.w3.org/2000/svg" xmlns:xlink="http://www.w3.org/1999/xlink"><filter id="a"><feGaussianBlur stdDeviation="2.2677902"/></filter><radialGradient id="b" cx="110.000003" cy="116.3047" gradientUnits="userSpaceOnUse" r="139.5585"><stop offset="0" stop-color="#3e3e3e"/><stop offset=".1737" stop-color="#dfdfdf"/><stop offset=".2099" stop-color="#ecf2f5"/><stop offset=".2435" stop-color="#fafcfd"/><stop offset=".2722" stop-color="#fff"/></radialGradient><radialGradient id="c" cx="102" cy="112.3047" gradientTransform="matrix(.7577494 .00000001 -.00000001 .7474952 24.959557 32.357472)" gradientUnits="userSpaceOnUse" r="139.55859"><stop offset="0" stop-color="#535557"/><stop offset=".11366145" stop-color="#898a8c"/><stop offset=".20296688" stop-color="#ececec"/><stop offset=".2363" stop-color="#fafafa"/><stop offset=".2722" stop-color="#fff"/><stop offset=".5313" stop-color="#fafafa"/><stop offset=".8449" stop-color="#ebecec"/><stop offset="1" stop-color="#e1e2e3"/></radialGradient><linearGradient id="d"><stop offset="0" stop-color="#fff"/><stop offset="1" stop-color="#555753"/></linearGradient><linearGradient id="e" gradientUnits="userSpaceOnUse" x1="100.992697" x2="92.566533" xlink:href="#d" y1="105.262725" y2="96.836671"/><linearGradient id="f" gradientUnits="userSpaceOnUse" x1="101.700746" x2="92.621463" xlink:href="#d" y1="105.96973" y2="96.890447"/><linearGradient id="g" gradientTransform="matrix(1.0001522 0 0 1.0794114 7.983043 -5.205071)" gradientUnits="userSpaceOnUse" x1="95" x2="87.292999" y1="103" y2="95.292999"><stop offset="0" stop-color="#fff"/><stop offset="1" stop-color="#393b38"/></linearGradient><linearGradient id="h" gradientUnits="userSpaceOnUse" x1="104.000003" x2="96.000201" y1="108" y2="100.000198"><stop offset="0" stop-color="#888a85"/><stop offset=".0072" stop-color="#8c8e89"/><stop offset=".0673" stop-color="#abaca9"/><stop offset=".1347" stop-color="#c5c6c4"/><stop offset=".2115" stop-color="#dbdbda"/><stop offset=".3012" stop-color="#ebebeb"/><stop offset=".4122" stop-color="#f7f7f6"/><stop offset=".5679" stop-color="#fdfdfd"/><stop offset="1" stop-color="#fff"/></linearGradient><linearGradient id="i" gradientTransform="matrix(1.1000154 0 0 1.259077 -6.4 -21.931205)" gradientUnits="userSpaceOnUse" x1="64" x2="63.9991" y1="96" y2="52.364712"><stop offset="0" stop-color="#080808"/><stop offset="1" stop-color="#232323"/></linearGradient><linearGradient id="j" gradientTransform="matrix(1.0731876 0 0 1.0898743 -4.878251 -.979469)" gradientUnits="userSpaceOnUse" x1="64" x2="64" y1="88" y2="56"><stop offset="0" stop-color="#7f7f81"/><stop offset=".44999999" stop-color="#b6b6b7"/><stop offset=".67499995" stop-color="#f5f5f5"/><stop offset="1" stop-color="#cfcfcf"/></linearGradient><linearGradient id="k" gradientTransform="matrix(.85938698 0 0 1.1353881 9.000004 -2.607879)" gradientUnits="userSpaceOnUse" x1="68" x2="68" y1="4" y2="48"><stop offset="0" stop-color="#fff"/><stop offset=".54545456" stop-color="#ebebeb"/><stop offset=".90909094" stop-color="#bababa"/><stop offset="1" stop-color="#7e7e7f"/></linearGradient><linearGradient id="l" gradientTransform="matrix(.90905844 0 0 1 6.010209 3.69403)" gradientUnits="userSpaceOnUse" x1="58.375481" x2="58.375481" y1="35.690582" y2="75.075203"><stop offset="0" stop-color="#6e4388"/><stop offset=".21062189" stop-color="#651d8d"/><stop offset=".346082" stop-color="#ac7ec6"/><stop offset=".5" stop-color="#ca87dc"/><stop offset="1" stop-color="#ebeaeb"/></linearGradient><linearGradient id="m" gradientUnits="userSpaceOnUse" x1="68.0009" x2="67.436577" y1="123.69399" y2="97.321114"><stop offset="0" stop-color="#fefefe"/><stop offset=".5" stop-color="#f7f7f7"/><stop offset=".91002578" stop-color="#8c8c8c"/><stop offset="1" stop-color="#666"/></linearGradient><linearGradient id="n" gradientTransform="matrix(1.0312643 0 0 .6746442 -1.999993 21.891662)" gradientUnits="userSpaceOnUse" x1="52" x2="76" y1="72" y2="72"><stop offset="0"/><stop offset=".66666669" stop-color="#a6a6a6" stop-opacity=".866667"/><stop offset="1" stop-opacity=".737089"/></linearGradient><linearGradient id="o" gradientUnits="userSpaceOnUse" x1="64.255142" x2="64.255142" y1="47.693993" y2="67.693993"><stop offset="0" stop-color="#baaac4"/><stop offset="1" stop-color="#baaac4" stop-opacity="0"/></linearGradient><linearGradient id="p" gradientTransform="matrix(.80007657 .59989787 .59989787 -.80007657 -67.0635 69.718299)" gradientUnits="userSpaceOnUse" x1="113.15723" x2="39.268185" y1="25.786163" y2="25.786163"><stop offset="0" stop-color="#0968ef"/><stop offset="1" stop-color="#aecffc"/></linearGradient><g transform="matrix(.125 0 0 .125 -4 -3)"><g fill="none" stroke="#000" stroke-linejoin="round" stroke-width="3"><path d="m40.000003 32v47c0 1.104.896 2 2 2l21.999997.265165c.53 0 1.03125-.21875 1.40625-.59375 0 0 12.608472-12.828269 18.108469-18.328269 5.500001-5.5-.108469-11.749396-.108469-11.749396.375-.374999.59375-.87625.59375-1.40625v-17.1875z" filter="url(#a)" opacity=".629428"/><path d="m40.000003 32v47c0 1.104.896 2 2 2l21.999997.265165c.53 0 1.03125-.21875 1.40625-.59375 0 0 12.608472-12.828269 18.108469-18.328269 5.500001-5.5-.108469-11.749396-.108469-11.749396.375-.374999.59375-.87625.59375-1.40625v-17.1875z" filter="url(#a)"/><path d="m40.200003 32.3v45.7c0 1.104.896 2 2 2h5.799997l15.6.265165c.53 0 1.169357-.42591 1.40625-.59375l18.99375-18.101053v-9.570362-2.8125-16.8875z" opacity=".558052"/></g><path d="m40.000003 32v46c0 1.104.896 2 2 2l21.584497.265165c.53 0 1.039-.211 1.414-.586l18.4155-17.250019.586-1.414v-29.015146z" fill="url(#b)"/><path d="m48.875 40c-.482125 0-.875.449-.875 1v30.2c0 .552.392875 1 .875 1h24.025502c.230125 0 .455875-.106.618625-.293l2.224493-17.028c.16363-.187.25638-.444.25638-.707v-13.172c0-.551-.392-1-.875-1z" fill="url(#c)"/><g transform="matrix(.67421826 0 0 .67421826 3.488901 .495627)"><path d="m119.41386 88.25684c.26979-.269785-28.466695-1.71152-33.900173-1.71152-1.784902 0-3.237427 1.452526-3.237427 3.237428 0 5.433481 1.657562 30.500882 1.927348 30.231092z" fill="url(#e)" opacity=".15" stroke-width="1.079142"/><path d="m119.41363 88.25684c.40468-.404675-23.708551-.632372-33.899879-.632372-1.190284 0-2.158266.967983-2.158266 2.158266 0 10.191332.443523 30.635506.848198 30.230836z" fill="url(#f)" opacity=".2" stroke-width="1.079133"/><path d="m119.414 88.25684c.23904-.257979-21.610289.446877-31.418779.446877-.553084 0-1.000152.482496-1.000152 1.079411 0 10.585792-.253039 30.388672-.014 30.130692z" fill="url(#g)" opacity=".673025" stroke-width="1.039026"/><path d="m86.786003 120.014s11.714-6.514 17.213997-12.014c5.5-5.5 15.414-17.414 15.414-17.414s-21.164 1.36712-31.413997 1.36712c0 10.25001-1.214 28.06088-1.214 28.06088z" fill="url(#h)"/></g></g><g transform="matrix(.125 0 0 .125 -2 -1.5)"><g fill="none" stroke="#000" stroke-linejoin="round" stroke-width="3"><path d="m40.000003 32v47c0 1.104.896 2 2 2l21.999997.265165c.53 0 1.03125-.21875 1.40625-.59375 0 0 12.608472-12.828269 18.108469-18.328269 5.500001-5.5-.108469-11.749396-.108469-11.749396.375-.374999.59375-.87625.59375-1.40625v-17.1875z" filter="url(#a)" opacity=".629428"/><path d="m40.000003 32v47c0 1.104.896 2 2 2l21.999997.265165c.53 0 1.03125-.21875 1.40625-.59375 0 0 12.608472-12.828269 18.108469-18.328269 5.500001-5.5-.108469-11.749396-.108469-11.749396.375-.374999.59375-.87625.59375-1.40625v-17.1875z" filter="url(#a)"/><path d="m40.200003 32.3v45.7c0 1.104.896 2 2 2h5.799997l15.6.265165c.53 0 1.169357-.42591 1.40625-.59375l18.99375-18.101053v-9.570362-2.8125-16.8875z" opacity=".558052"/></g><path d="m40.000003 32v46c0 1.104.896 2 2 2l21.584497.265165c.53 0 1.039-.211 1.414-.586l18.4155-17.250019.586-1.414v-29.015146z" fill="url(#b)"/><path d="m48.875 40c-.482125 0-.875.449-.875 1v30.2c0 .552.392875 1 .875 1h24.025502c.230125 0 .455875-.106.618625-.293l2.224493-17.028c.16363-.187.25638-.444.25638-.707v-13.172c0-.551-.392-1-.875-1z" fill="url(#c)"/><g transform="matrix(.67421826 0 0 .67421826 3.488901 .495627)"><path d="m119.41386 88.25684c.26979-.269785-28.466695-1.71152-33.900173-1.71152-1.784902 0-3.237427 1.452526-3.237427 3.237428 0 5.433481 1.657562 30.500882 1.927348 30.231092z" fill="url(#e)" opacity=".15" stroke-width="1.079142"/><path d="m119.41363 88.25684c.40468-.404675-23.708551-.632372-33.899879-.632372-1.190284 0-2.158266.967983-2.158266 2.158266 0 10.191332.443523 30.635506.848198 30.230836z" fill="url(#f)" opacity=".2" stroke-width="1.079133"/><path d="m119.414 88.25684c.23904-.257979-21.610289.446877-31.418779.446877-.553084 0-1.000152.482496-1.000152 1.079411 0 10.585792-.253039 30.388672-.014 30.130692z" fill="url(#g)" opacity=".673025" stroke-width="1.039026"/><path d="m86.786003 120.014s11.714-6.514 17.213997-12.014c5.5-5.5 15.414-17.414 15.414-17.414s-21.164 1.36712-31.413997 1.36712c0 10.25001-1.214 28.06088-1.214 28.06088z" fill="url(#h)"/></g></g><g transform="matrix(.08632811 0 0 .08632811 4.933471 4.950001)"><rect fill="#111012" height="34.751137" rx=".20271" ry=".351644" width="81.085983" x="23.938082" y="17.954744"/><rect fill="#3e3c41" height="19.69231" rx=".168174" ry=".279602" width="68.923096" x="29.538465" y="29.538456"/><rect fill="#636363" fill-opacity=".996078" height="57.91856" rx=".198656" ry=".315411" width="57.91856" x="35.521793" y=".579175"/><rect fill="#1d1d1d" height="23.2724" rx="8" transform="scale(1 -1)" width="113.77512" x="5.819001" y="-67.694855"/><rect fill="url(#i)" height="69.502274" rx=".2445" ry=".383627" width="127.42084" x=".770657" y="35.330311"/><rect fill="#b6b6b6" height="28.95928" rx="7.687527" ry="3.693984" transform="scale(1 -1)" width="115.83712" x="6.562513" y="-70.081451"/><rect fill="url(#j)" height="40.542992" rx=".221498" ry=".271696" width="115.83712" x="6.562513" y="58.497738"/><rect fill="#28232c" height="17.375568" rx=".23216" ry=".352081" width="104.25341" x="12.354369" y="46.914024"/><rect fill="url(#k)" height="46.33485" rx=".177371" ry=".283042" width="34.751137" x="47.105507" y="6.371032"/><path d="m19.879936 39.036896h87.621894c.10394 0 .18325.155388.18762.347716l.49907 21.961351c.004.192706-.12556.264567-.18762.347717l-7.44861 9.999987.36375 6h-73.452194l.363764-6-7.44861-9.999987c-.06776-.09109-.183244-.155011-.187623-.347717l-.499066-21.961351c-.0044-.192706.08368-.347716.187625-.347716z" style="stroke:#1f1f1f;stroke-width:3;stroke-linecap:square;stroke-linejoin:round;stroke-opacity:.924883;fill:url(#l)"/><path d="m23.938082 88.615388v39.384622h81.085988v-39.384622z" fill="#424242" fill-rule="evenodd"/><path d="m29.538466 98.461544.191472 17.954756h68.923087l-.191472-17.954756z" fill="url(#m)" fill-rule="evenodd"/><rect height="23.167423" rx=".206393" ry=".266329" width="92.669701" x="18.146225" y="75.873306"/><rect fill="url(#n)" height="8.000092" rx=".212846" ry=".168183" width="23.999996" x="52" y="68.000046"/><rect fill="#986aae" height="17.375566" rx=".281181" ry=".640314" width="69.502289" x="29.729939" y="41.122169"/><rect fill="url(#o)" height="34.751137" opacity=".92" rx=".30959" ry="1.007805" width="46.33485" x="41.313648" y="41.122169"/><rect fill="#c9b1d5" height="15.058826" rx=".257991" ry=".525472" width="46.33485" x="41.313648" y="41.122169"/><rect fill="#0c0c0c" height="9.846154" rx=".257991" ry=".266553" width="29.538465" x="49.230778" y="39.384613"/><path d="m28.000902 87.693995-.000903-7.693984h71.999997l.000904 7.693984z" fill="#545156" fill-rule="evenodd"/></g><g fill-rule="evenodd" transform="scale(.125)"><path d="m12.841797 39.937499a8.5524698 8.5524698 0 0 0 -6.7382813 3.580078c-2.3062486 3.233128-4.3990894 6.770207-6.10351561 10.546875v37.832031c2.49245831 5.214723 6.07718571 10.380247 10.84179691 15.404297l-.04297.0156a8.5524698 8.5524698 0 0 0 -5.5175779 9.23828l.796875 5.56445a8.5524698 8.5524698 0 0 0 3.7070322 5.88089h33.3554687l3.041016-.15625a8.5524698 8.5524698 0 0 0 7.882812-10.51172l-7.205078-30.398437a8.5524698 8.5524698 0 0 0 -9.740234-6.460938l-5.685547.955078a8.5524698 8.5524698 0 0 0 -6.078125 4.322266c-2.757022-3.846232-3.898241-7.210359-4.208985-10.160156-.585274-5.555844 1.754688-11.273909 5.607422-17.400391a8.5524698 8.5524698 0 0 0 -1.902344-11.236328l-6.451171-5.150391a8.5524698 8.5524698 0 0 0 -5.558594-1.865234z" fill="#fff" fill-opacity=".784314"/><path d="m45.742833 119.30391-31.199798 1.60398-.795671-5.56468 13.453454-4.94259c-29.9646095-22.467493-26.0126074-45.265673-14.136205-61.91519l6.450974 5.15138c-8.548381 13.593334-13.9428897 30.547981 12.484413 50.36319l.853543-14.138473 5.685412-.956702z" fill="url(#p)"/></g></svg>