<svg height="16" viewBox="0 0 4.2333332 4.2333335" width="16" xmlns="http://www.w3.org/2000/svg"><path d="m4.1631957 296.81356v.11243h-1.5090475v-.11243q.2367134-.006.3254809-.0473.088767-.0414.088767-.15386 0-.14203-.1124389-.3965l-.2426306-.56816h-1.5504724l-.27222029.69239q-.0473427.12427-.0473427.23079 0 .24264.40241265.24264v.11243h-1.17173094v-.11243q.21895983-.0118.3373165-.1657.1242745-.15978.39649483-.80483l1.23090935-2.90565h.1183566l1.4735405 3.36132q.142028.32549.2367134.41425.094685.0888.2958916.10061zm-2.8997383-1.40845h1.3670195l-.6864687-1.6274z" fill="none" stroke="#000" stroke-width=".147946" transform="translate(0 -292.76665)"/></svg>