<svg height="16" width="16" xmlns="http://www.w3.org/2000/svg" xmlns:xlink="http://www.w3.org/1999/xlink"><linearGradient id="a" gradientUnits="userSpaceOnUse" x1="112" x2="87.003235" y1="112" y2="92.992435"><stop offset="0" stop-color="#8c8c8c"/><stop offset=".25" stop-color="#a8a8a8"/><stop offset=".5" stop-color="#c5c5c5"/><stop offset=".75" stop-color="#e2e2e2"/><stop offset="1" stop-color="#fff"/></linearGradient><linearGradient id="b" gradientTransform="matrix(.91827743 0 0 1.5002119 6.887452 -14.888112)" gradientUnits="userSpaceOnUse" x1="80.523918" x2="80.523918" y1="15.676145" y2="32.142143"><stop offset="0" stop-color="#fff"/><stop offset=".50551778" stop-color="#8b8b8b"/><stop offset=".50551778" stop-color="#a5a5a5"/><stop offset=".65644157" stop-color="#f4f4f4"/><stop offset=".80480587" stop-color="#bbb"/><stop offset="1" stop-color="#b1b1b1"/></linearGradient><filter id="c" height="1.227488" width="1.075829" x="-.037915" y="-.113744"><feGaussianBlur stdDeviation=".75827487"/></filter><radialGradient id="d" cx="61.331802" cy="49.168488" gradientTransform="matrix(1.3948019 .00000003 -.00000004 1.9211571 -28.21391 -85.124195)" gradientUnits="userSpaceOnUse" r="50.665401"><stop offset="0"/><stop offset=".43397453" stop-color="#171717"/><stop offset=".66038471" stop-color="#424242"/><stop offset=".75739998" stop-color="#292929"/><stop offset="1" stop-color="#1c1c1c"/></radialGradient><radialGradient id="e" cx="61.331802" cy="66.66819" gradientTransform="matrix(1.6581504 0 0 3.7941922 -42.331513 -192.64733)" gradientUnits="userSpaceOnUse" r="50.665401"><stop offset="0" stop-color="#878787"/><stop offset=".35530001" stop-color="#646464"/><stop offset=".61940002" stop-color="#2d2d2d"/><stop offset=".75739998" stop-color="#232323"/><stop offset="1" stop-color="#1f1f1f"/></radialGradient><linearGradient id="f" gradientUnits="userSpaceOnUse" x1="78.204185" x2="78.204185" y1="114.27974" y2="59.956783"><stop offset="0" stop-color="#343434"/><stop offset="1" stop-opacity="0"/></linearGradient><radialGradient id="g" cx="106.664" cy="117.3336" fy="121.10474" gradientTransform="matrix(.50000015 -.5000004 .70710696 .70710661 -29.635422 87.698281)" gradientUnits="userSpaceOnUse" r="5.3332"><stop offset="0" stop-color="#eefcff"/><stop offset="1" stop-color="#eefcff" stop-opacity="0"/></radialGradient><filter id="h"><feGaussianBlur stdDeviation=".20220663"/></filter><radialGradient id="i" cx="91.455429" cy="103.26143" gradientTransform="matrix(2.425942 0 0 2.5158062 -134.41014 -161.88666)" gradientUnits="userSpaceOnUse" r="37.361931"><stop offset="0" stop-color="#ededed"/><stop offset=".25000003" stop-color="#fff"/><stop offset=".5" stop-color="#f6f6f6"/><stop offset="1" stop-color="#eee"/></radialGradient><filter id="j"><feGaussianBlur stdDeviation="2.1720601"/></filter><linearGradient id="k" gradientTransform="matrix(1.1964479 0 0 1.8545763 -9.332512 -35.742499)" gradientUnits="userSpaceOnUse" x1="74.664803" x2="74.664803" y1="18.669399" y2="8.003"><stop offset="0" stop-color="#fff"/><stop offset="1" stop-color="#555"/></linearGradient><filter id="l" height="1.232813" width="1.128976" x="-.064488" y="-.116406"><feGaussianBlur stdDeviation=".80190058"/></filter><g transform="scale(.125)"><path d="m48 1.8691406a.78717265.78717265 0 0 0 -.787109.7871094v13.34375a.78717265.78717265 0 0 0 .787109.787109h26.65625a.78717265.78717265 0 0 0 .787109-.787109v-13.34375a.78717265.78717265 0 0 0 -.787109-.7871094z" fill="#0f0f0f" filter="url(#l)" transform="matrix(1.1916281 0 0 1.4619513 -8.962482 -2.490895)"/><path d="m16 8c-4.431889 0-8 3.568111-8 8v96 2.65625c0 2.95459 2.389157 5.34375 5.34375 5.34375h2.65625 96 2.65625c2.95459 0 5.34375-2.38916 5.34375-5.34375v-2.65625-96c0-4.431889-3.56811-8-8-8z" fill="url(#d)"/><path d="m16 42.34375c-4.431889 0-8 3.568111-8 8v12.3125 49.34375 2.65625c0 2.95459 2.389157 5.34375 5.34375 5.34375h2.65625 96 2.65625c2.95459 0 5.34375-2.38916 5.34375-5.34375v-2.65625-49.34375-12.3125c0-4.431889-3.56811-8-8-8z" fill="url(#f)"/><path d="m111.9972 117.3336a5.3332 5.3332 0 0 1 -5.3332 5.3332v-5.3332z" fill="url(#g)" filter="url(#h)" opacity=".632851" transform="matrix(-1.5000378 0 0 1.5000365 176.00004 -64.004678)"/><path d="m111.9972 117.3336a5.3332 5.3332 0 0 1 -5.3332 5.3332v-5.3332z" fill="url(#g)" filter="url(#h)" opacity=".632851" transform="matrix(1.4885799 0 0 1.385334 -45.308297 -49.885191)"/><path d="m21.082061 16c-2.826432 0-5.082061 2.205148-5.082061 4.932182v36.919261 49.216377 2.45166c0 1.36353 1.127814 2.48052 2.541031 2.48052h2.54103 93.805979 2.54103c1.41323 0 2.57093-1.11699 2.57093-2.48052v-2.45166-49.216377-36.919261c0-2.727034-2.28552-4.932182-5.11196-4.932182z" fill="url(#e)"/><path d="m21.081522 16c-2.82613 0-5.081522 5.366374-5.081522 7.056125v2.287625c0-1.689751 2.255392-3.056125 5.081522-3.056125h85.807068c2.82613 0 5.11141 1.366374 5.11141 3.056125v-2.287625c0-1.689751-2.28528-7.056125-5.11141-7.056125z" fill="#fff" opacity=".513812"/><path d="m19.28125 28.28125v89.53125h59.625.0625c5.540627-.18609 26.7751.23989 30.48267-.71875.1031-.0188.20772-.0293.3125-.0313.005-.0839.0155-.16746.0312-.25.97935-4.88981 1.74133-12.14476 2.1875-18.3125v-.125-70.09375h-92.70137z" fill="#191919" filter="url(#j)" opacity=".811594" transform="matrix(1.0271934 0 0 .9697326 -.382565 -7.301784)"/><path d="m24 24h80v80h-80z" fill="url(#a)"/><path d="m32 32v64h64v-64z" fill="url(#i)"/><path d="m31.3324 20.0028h52.998799c1.256908 4.579055 1.44506 12.699364 0 18.8996l-52.9988.1c-1.771197-5.775999-2.527736-14.298334.000001-18.9996z" fill-opacity=".635838" filter="url(#c)" transform="matrix(.91827743 0 0 1.2106781 10.560563 -15.098284)"/><path d="m39.945442 9.115278h47.750427v24.003389h-47.750427z" fill="url(#b)"/><path d="m48.095551-20.900324h31.904444v19.781656h-31.904444z" fill="url(#k)" transform="scale(1 -1)"/><path d="m56 1.118668h16v8h-16z" fill="#fff" fill-rule="evenodd" opacity=".513812"/><path d="m66.777834 44.495435 13.832337-12.374368h34.218259c2.86505 0 5.17157 3.514004 5.17157 7.878933v72.12106c0 4.36493-2.31819 7.62056-5.17157 7.87894l-81.991721 7.42462c-2.853377.25838-.484968-20.0359 2.253048-23.43529 5.773597-7.168228 10.820332-5.614118 15.657967-1.55081l6.242077-28.153022-8.571663-3.940631 1.532236-13.358483 11.302333-1.076482c4.345264-.413861 3.36607-9.531119 5.525127-11.414467z" fill="#fff"/><g fill="#00132f"><path d="m96.420576 42.899289q0-1.334974.821523-2.669949.821523-1.437665.821523-1.643045 0-1.334975-1.745736-1.334975-5.442588 0-9.344821 15.300861l-1.848426 7.291014h9.447511l-.924213 4.312994h-9.24213q-6.366801 29.472127-8.831369 37.687351-5.442588 18.17619-13.555125 23.00264-3.696852 2.1565-8.317917 2.1565-4.621066 0-7.393705-2.25919-2.772639-2.1565-2.772639-5.85335 0-2.25919 1.643045-3.90223 1.540356-1.64305 3.696853-1.64305 1.951116 0 3.491471 1.54036 1.540355 1.54035 1.540355 3.38878 0 1.43766-.821523 2.77264-.821522 1.33497-.821522 1.64304 0 1.1296 1.848426 1.1296 3.696852 0 5.545278-5.54528 1.951117-5.44259 6.982943-28.342536 3.388781-15.506241 5.750659-25.775275h-7.496395l.924213-4.312994h7.496395q1.540355-5.545278 3.286091-9.550202 1.745736-4.004923 4.415684-7.907156 2.669949-4.004923 6.572182-6.05873 3.902233-2.053806 8.93406-2.053806 4.621063 0 7.393703 2.259187 2.77264 2.156497 2.77264 5.95604 0 2.361877-1.54036 3.902232-1.43766 1.540356-3.69685 1.540356-2.053804 0-3.594159-1.437665-1.437665-1.540355-1.437665-3.594162z" stroke-width="2.567257" transform="matrix(.93185685 0 0 .93365694 3.167268 8.548355)"/><path d="m120.12239 80.520063q-.82266 0-2.31839-.747866-1.49573-.747867-1.94445-.747867-1.04701 0-2.16881.972226-1.1218.89744-1.86967 1.869666-.74787.972226-1.72009 2.467958-.89744 1.495733-1.1218 1.794879l2.39317 11.666713q.82265 3.963688 2.76711 3.963688.97222 0 1.86966-.74786.97223-.82266 3.14104-3.664548l1.57052 1.047013q-3.44019 4.935915-6.05772 7.029945-2.54274 2.09402-5.23506 2.09402-2.99147 0-4.56199-2.7671-1.49573-2.84189-2.69231-8.824823l-1.79488 2.916678q-3.215827 5.384635-5.085493 7.029945-1.869665 1.6453-4.711557 1.6453-2.094025 0-3.440184-1.19658-1.346159-1.27138-1.346159-3.21583 0-1.72009 1.196585-2.91668 1.196586-1.271368 2.916679-1.271368 1.121799 0 2.617531.822652 1.495733.747866 1.944453.747866.972226 0 1.720092-.598292.747866-.67308 1.869665-2.467959l3.290608-5.235063-2.243595-11.51714q-.598293-2.767105-1.495732-3.888904-.89744-1.1218-2.692319-1.1218-1.047012 0-2.617531.149574v-2.019239l12.489367-1.794879q1.72009 2.542745 3.3654 10.320554 4.48719-6.20729 6.80558-8.226529 2.39317-2.094025 5.0107-2.094025 1.72009 0 2.99147 1.420946 1.34616 1.346159 1.34616 3.215824 0 1.570519-1.27138 2.767105-1.19658 1.1218-2.91667 1.1218z" stroke-width="1.869666" transform="matrix(1.0521712 0 0 .89992864 -3.423346 7.981189)"/></g></g></svg>