<svg height="16" viewBox="0 0 4.2333333 4.2333335" width="16" xmlns="http://www.w3.org/2000/svg" xmlns:xlink="http://www.w3.org/1999/xlink"><linearGradient id="a" gradientUnits="userSpaceOnUse" x1="16.632429" x2="17.853586" y1="289.63019" y2="261.54355"><stop offset="0" stop-color="#555"/><stop offset="1"/></linearGradient><linearGradient id="b" gradientUnits="userSpaceOnUse" x1="52.117416" x2="59.683208" y1="22.913706" y2="84.084274"><stop offset="0" stop-color="#3b3e22"/><stop offset="1" stop-color="#454545" stop-opacity="0"/></linearGradient><g transform="matrix(.125 0 0 .125 0 -32.891665)"><path d="m19.73174 289.59152q2.116667 4.33917 6.103056 4.33917.846667 0 2.363611-.42334l.211667.84667q-3.421945 1.23472-6.314722 1.23472-4.938889 0-8.043334-3.10444-1.023056-1.02306-1.975556-3.03389-2.010833-.74084-3.1044441-1.41111-1.0583333-.70556-2.1519445-1.905-3.1397223-3.45723-3.1397223-8.43139 0-5.50334 3.5277779-9.10167 3.563056-3.59833 8.960556-3.59833 5.468055 0 8.960556 3.56305 3.527777 3.52778 3.527777 9.03111 0 5.22112-3.316111 8.74889-1.128889 1.19945-2.293055 1.86973-1.164167.67027-3.316112 1.37583zm-3.527777-23.42445q-3.033889 0-4.656667 2.99862-1.622778 2.99861-1.622778 8.53722 0 5.50333 1.5875 8.36083 1.5875 2.82222 4.656667 2.82222 3.033889 0 4.621389-2.8575 1.622778-2.8575 1.622778-8.29027 0-5.50334-1.622778-8.53723-1.622778-3.03389-4.586111-3.03389z" fill="url(#a)" stroke-width="1.015378"/><path d="m77.207031 14.554688c1.921648 1.946532 4.079895 3.553936 5.484375 6.179687 4.643286 8.680894 6.681641 20.140926 6.681641 34.464844 0 .01604.000005.03084 0 .04687a113.7082 38.478259 0 0 0 14.214843-3.087886c-.4861-11.661994-4.411751-20.823861-11.912109-28.324219a4.6669221 4.6669221 0 0 1 -.0293-.0293c-4.20088-4.285758-9.03356-7.253427-14.439453-9.25zm-32.273437.06641c-5.316764 2.018793-10.105136 5.025882-14.357422 9.316402-.0025.0025-.0053.0053-.0078.0078-.0025.0026-.0053.0052-.0078.0078-8.047001 8.215408-11.988281 18.253023-11.988281 31.113281 0 1.504938.06255 2.970217.18164 4.400391a113.7082 38.478259 0 0 0 14.173828.417969c-.05333-1.568813-.08594-3.168042-.08594-4.81836 0-14.41149 2.034217-25.87538 6.695312-34.488281 1.374339-2.53954 3.517409-4.062656 5.396485-5.957031z" fill="url(#b)" transform="matrix(.26458333 0 0 .26458333 0 263.13332)"/></g></svg>