<svg height="16" viewBox="0 0 4.2333333 4.2333335" width="16" xmlns="http://www.w3.org/2000/svg" xmlns:xlink="http://www.w3.org/1999/xlink"><linearGradient id="a" gradientUnits="userSpaceOnUse" x1="16.20205" x2="21.913329" y1="10.308693" y2="10.308693"><stop offset="0" stop-color="#3b3e22"/><stop offset="1" stop-color="#454545" stop-opacity="0"/></linearGradient><linearGradient id="b" gradientUnits="userSpaceOnUse" x1="-228.6404" x2="-311.9765" y1="149.28616" y2="65.950043"><stop offset="0" stop-color="#bf0303"/><stop offset="1" stop-color="#fe9494"/></linearGradient><linearGradient id="c" gradientUnits="userSpaceOnUse" x1="22.742989" x2="23.964148" y1="31.14403" y2="3.05739"><stop offset="0" stop-color="#555"/><stop offset="1"/></linearGradient><g stroke-width="1.015378" transform="scale(.125)"><text fill="url(#c)" font-family="sans-serif" font-size="40.615143" letter-spacing="0" word-spacing="0" x="8.55619" y="30.893702"><tspan fill="url(#c)" font-family="FreeSerif" font-size="42.740532" font-style="italic" stroke-width="1.015378" x="8.55619" y="30.893702">I</tspan></text><path d="m17.885667 2.9729648c.01393.00796.0178.026892.03152.03514.02526.016669.05273.015556.07803.033073zm4.027662.4139282-.04909.042891c.0091-.00837.02037-.00933.02946-.01757.0089-.00768.0106-.017674.01964-.025322zm-2.92592 1.0862385c.119499.3449489.24598.6963719.24598 1.0330119 0 .8934715-.193013 1.8701042-.5271 3.054594l-2.50424 9.0020356a18.798872 10.332203 0 0 0 1.056783.08165l3.113505-11.2122379a1.4885026 1.4885026 0 0 1 0-.00207c.217891-.7807736.43959-1.3998279.734322-1.9569867z" fill="url(#a)"/></g><g transform="matrix(.01937847 0 0 .01937847 7.98004 .493996)"><g fill-rule="evenodd" stroke="#000" stroke-width="3"><path d="m-281.8265 191.44587-37.8876-37.88764 22.7143-22.71429 44.8732 45.28411-14.9013 14.90128z" fill="#fff" stroke-opacity=".706587"/><path d="m-249.6122 174.89131-45.9455-45.94544 45.9455-45.945425 45.9454 45.945425z" fill="url(#b)" stroke-linecap="round" stroke-linejoin="round" stroke-opacity=".622755"/><path d="m-265.2013 160.12404-15.5891-15.58909 46.7673-46.767245 15.589 15.589085z" fill="#fff" stroke-opacity=".48503"/></g><path d="m-261.5422 144.27001-3.1391-3.10289 3.2253-3.188.3329.32919-2.4062 2.37844 1.0074.99585 2.0163-1.99297.3288.32498-2.0163 1.99296 1.1369 1.12375 2.5741-2.54422.3329.32915zm4.337-4.28665-3.1394-3.10287 1.7472-1.727c.5538-.54738 1.0442-.90059 1.4709-1.05963.4292-.16157.7704-.11726 1.0236.13291.4184.41371.3269 1.09147-.2753 2.03318l3.3965-.45143-1.0062.99457-2.9696.31049-.7644.75556 1.3278 1.31242-.8111.80181m-.8497-2.44339.2651-.26214c1.0296-1.01768 1.3245-1.74388.8848-2.17856-.3237-.32005-.9173-.0535-1.7805.79972l-.5148.50885zm7.6285-6.63033-2.3363-.36618.3667 2.3129zm2.0663.33086-1.4976-.23894-2.4453 2.41702.2339 1.4879-.7604.7517-.8501-5.3657.8113-.80183 5.3934.87478zm2.9255-2.7365c-.3875.38294-.9288.82706-1.624 1.33243l-.441-.43607c.814-.48034 1.4302-.9274 1.8488-1.34117.3224-.31868.5352-.6198.6383-.90342.1057-.28615.084-.50327-.066-.65147-.1231-.12158-.2928-.16076-.509-.11755-.2135.0407-.5463.17951-.9981.41651l-.5231.26946c-.6441.33478-1.1347.53599-1.4719.60369-.3358.0637-.5936.007-.7732-.17073-.2419-.23901-.2792-.59472-.1124-1.06712.1654-.47382.4977-.95745.9969-1.45088.4447-.43944.9542-.86346 1.5288-1.27209l.4073.40254c-.7386.47274-1.2573.85693-1.5563 1.15247-.2834.28012-.4764.55193-.5789.81548-.1025.26352-.092.45677.033.57977.1047.10345.2649.12818.4808.0742.2156-.054.5588-.20307 1.0294-.4473l.5407-.28283c.6533-.34109 1.1472-.54149 1.4821-.60123.3347-.0597.5981.005.7905.19552.2729.26979.3062.6702.1 1.20118-.2039.52847-.6111 1.09468-1.222 1.6986m3.096-3.21547-3.1392-3.10288 3.2253-3.18799.3329.32916-2.4062 2.37847 1.0073.99585 2.0164-1.99298.3288.32498-2.0162 1.99298 1.1369 1.12376 2.574-2.54423.3329.32914zm4.3368-4.28663-3.1392-3.10289 1.7472-1.72698c.5538-.54739 1.0439-.90057 1.4707-1.05963.4295-.16157.7705-.11726 1.0237.13293.4184.41369.3267 1.09145-.2753 2.03317l3.3965-.45143-1.0062.99457-2.9697.31047-.7644.75557 1.3279 1.31242-.8112.80181m-.8496-2.4434.2652-.26215c1.0294-1.01768 1.3245-1.74386.8846-2.17855-.3238-.32005-.9172-.0535-1.7805.79972l-.5148.50886z" fill="#9c0f0f" stroke="#9c0f0f" stroke-opacity=".652695"/><g fill-rule="evenodd"><path d="m-236.5014 70.467545 41.451 41.656495-.017 8.20218-8.9473 8.80624-45.695-45.900475 13.2081-12.76444z" fill="#ddd" stroke="#000" stroke-linejoin="round" stroke-opacity=".700599" stroke-width="3"/><path d="m-236.55281 72.958716-11.0947 10.478331 14.38202 14.382022 11.30016-10.889246z" opacity=".177778"/><path d="m-207.9942 101.5173-11.0947 10.47833 15.2038 14.58748 7.219-6.9565-.1325-7.94252z" fill="#fff" opacity=".655556"/></g></g></svg>