<svg height="16" width="16" xmlns="http://www.w3.org/2000/svg" xmlns:xlink="http://www.w3.org/1999/xlink"><linearGradient id="a"><stop offset="0"/><stop offset="1" stop-opacity="0"/></linearGradient><linearGradient id="b"><stop offset="0" stop-color="#fff"/><stop offset="1" stop-color="#fff" stop-opacity="0"/></linearGradient><linearGradient id="c" gradientTransform="matrix(2.5599786 0 0 2.5618328 317.24891 -4847.794)" gradientUnits="userSpaceOnUse" x1="-97.742668" x2="-97.742668" y1="1937.9885" y2="1895.421"><stop offset="0" stop-color="#141313"/><stop offset=".33497536" stop-color="#2b292a"/><stop offset=".63281107" stop-color="#3f3e3e"/><stop offset="1" stop-color="#6b696a"/></linearGradient><radialGradient id="d" cx="100.16534" cy="37.468983" gradientTransform="matrix(4.8110826 .00000075 -.00000031 1.9257147 -441.90372 -88.154647)" gradientUnits="userSpaceOnUse" r="38"><stop offset="0" stop-color="#d0ced9"/><stop offset=".25" stop-color="#ecf1f9"/><stop offset=".5" stop-color="#fff"/><stop offset="1" stop-color="#c6d5e3"/></radialGradient><filter id="e" height="1.240511" width="1.138013" x="-.069006" y="-.120256"><feGaussianBlur stdDeviation="1.9228365"/></filter><radialGradient id="f" cx="84" cy="91.983192" gradientTransform="matrix(1 0 0 .6210279 0 37.87587)" gradientUnits="userSpaceOnUse" r="32" xlink:href="#b"/><linearGradient id="g" gradientUnits="userSpaceOnUse" x1="47.608696" x2="47.608696" xlink:href="#a" y1="104.35009" y2="176.35008"/><linearGradient id="h" gradientUnits="userSpaceOnUse" x1="89.604726" x2="114.175" xlink:href="#b" y1="42.336197" y2="106.7981"/><filter id="i"><feGaussianBlur stdDeviation=".0231875"/></filter><clipPath id="j"><path d="m18.189713 132.42089c-1.419208 0-2.5625 1.1433-2.5625 2.5625v37.18328h72.000002v-37.18328c0-1.4192-1.14329-2.5625-2.5625-2.5625z"/></clipPath><linearGradient id="k" gradientTransform="matrix(1 0 0 .9968924 0 -.225228)" gradientUnits="userSpaceOnUse" x1="52" x2="52" y1="112" y2="80"><stop offset="0" stop-color="#8a8a8a"/><stop offset="1" stop-color="#c6c6c6"/></linearGradient><filter id="l" height="1.185769" width="1.247692" x="-.123846" y="-.092885"><feGaussianBlur stdDeviation="1.2384615"/></filter><linearGradient id="m" gradientUnits="userSpaceOnUse" x1="68" x2="36" xlink:href="#a" y1="120" y2="84"/><linearGradient id="n" gradientUnits="userSpaceOnUse" x1="87.693916" x2="91.051781" xlink:href="#a" y1="100.83184" y2="100.83184"/><filter id="o" height="1.045223" width="1.50979" x="-.254895" y="-.022612"><feGaussianBlur stdDeviation=".35662617"/></filter><filter id="p" height="1.203077" width="1.293333" x="-.146667" y="-.101538"><feGaussianBlur stdDeviation=".55"/></filter><clipPath id="q"><rect height="12" rx="1.079258" width="8" x="12" y="12"/></clipPath><clipPath id="r"><rect height="12" rx="1.079258" width="8" x="12" y="12"/></clipPath><filter id="s"><feGaussianBlur stdDeviation=".04177847"/></filter><radialGradient id="t" cx="16" cy="18" gradientTransform="matrix(1 0 0 1.5 0 -9)" gradientUnits="userSpaceOnUse" r="4"><stop offset="0" stop-color="#7a7a7a"/><stop offset="1" stop-opacity=".490909"/></radialGradient><linearGradient id="u" gradientUnits="userSpaceOnUse" x1="16" x2="16" xlink:href="#a" y1="1.595278" y2="18.75548"/><radialGradient id="v" cx="16.03512" cy="19.49425" fy="18.539073" gradientUnits="userSpaceOnUse" r="2.378519"><stop offset="0" stop-color="#868385"/><stop offset="1" stop-color="#4a4949"/></radialGradient><linearGradient id="w" gradientUnits="userSpaceOnUse" x1="13.731525" x2="13.731525" y1="17.127984" y2="19.868869"><stop offset="0" stop-color="#fff"/><stop offset="1"/></linearGradient><filter id="x"><feGaussianBlur stdDeviation="1.0600355"/></filter><linearGradient id="y" gradientTransform="matrix(1.1772548 0 0 1.0772187 1.846275 -4.94167)" gradientUnits="userSpaceOnUse" x1="71.626404" x2="46.225941" y1="123.73875" y2="28.942928"><stop offset="0" stop-color="#005f1e"/><stop offset="1" stop-color="#43943c"/></linearGradient><radialGradient id="z" cx="71.775223" cy="16.0865" gradientTransform="matrix(.9650814 .2619502 -.9201984 3.3902106 33.309062 -57.693239)" gradientUnits="userSpaceOnUse" r="3.15625" xlink:href="#b"/><filter id="A" height="1.157943" width="1.244782" x="-.122391" y="-.078971"><feGaussianBlur stdDeviation=".321914"/></filter><linearGradient id="B" gradientTransform="matrix(1.1772548 0 0 1.0772187 6.555295 -4.94167)" gradientUnits="userSpaceOnUse" x1="96.373123" x2="96.373123" y1="120.42788" y2="46.089832"><stop offset="0" stop-color="#002a0d"/><stop offset="1" stop-color="#002a0d" stop-opacity="0"/></linearGradient><radialGradient id="C" cx="71.775223" cy="16.0865" gradientTransform="matrix(.9650814 .2619502 -.9201984 3.3902106 17.309062 -57.693239)" gradientUnits="userSpaceOnUse" r="3.15625"><stop offset="0" stop-color="#f0ff80"/><stop offset="1" stop-color="#f0ff80" stop-opacity="0"/></radialGradient><radialGradient id="D" cx="11.578125" cy="64.53125" gradientTransform="matrix(6.5079869 0 0 1.510917 -63.772161 -32.970115)" gradientUnits="userSpaceOnUse" r="3.578125" xlink:href="#b"/><filter id="E" height="1.598266" width="1.90393" x="-.451965" y="-.299133"><feGaussianBlur stdDeviation="1.3476562"/></filter><linearGradient id="F" gradientUnits="userSpaceOnUse" x1="111.785248" x2="111.992706" y1="112.5" y2="44.287056"><stop offset="0" stop-color="#e5ff00"/><stop offset="1" stop-color="#e5ff00" stop-opacity="0"/></linearGradient><filter id="G"><feGaussianBlur stdDeviation=".495"/></filter><linearGradient id="H" gradientTransform="matrix(-.60836457 0 0 .53250836 55.937837 3.096607)" gradientUnits="userSpaceOnUse" x1="43.799026" x2="58.606159" y1="32.051865" y2="96.363052"><stop offset="0" stop-color="#37a42c"/><stop offset="1" stop-color="#bff500"/></linearGradient><radialGradient id="I" cx="53.630272" cy="79.055809" fx="57.058514" fy="91.805016" gradientTransform="matrix(-.87786375 .00000004 .00000005 .7376679 71.977519 -13.646357)" gradientUnits="userSpaceOnUse" r="50"><stop offset="0" stop-color="#cbff10"/><stop offset="1" stop-color="#004d00"/></radialGradient><linearGradient id="J" gradientTransform="matrix(-.60836457 0 0 .53250836 53.504379 3.096607)" gradientUnits="userSpaceOnUse" x1="63.159035" x2="63.159035" y1="21.171064" y2="80.12056"><stop offset="0" stop-color="#edffbf"/><stop offset="1" stop-color="#edffbf" stop-opacity="0"/></linearGradient><linearGradient id="K" gradientTransform="matrix(-.60836457 0 0 .53250836 53.504379 3.096607)" gradientUnits="userSpaceOnUse" x1="73.739265" x2="35.568035" xlink:href="#b" y1="69.923088" y2="48.212151"/><g transform="matrix(.125 0 0 .125 0 .002914)"><path d="m11.335342 0c-1.8087222 0-3.3610242 1.6123041-3.3600838 3.299947l.0247418 101.132493 11.640039 11.56756h96.999201c2.95345 0 3.35982-.34436 3.35982-3.29969l-.02474-109.400363c0-1.7983202-1.55806-3.299947-3.35982-3.299947z" fill="url(#c)"/><path d="m15.193656 4c-1.679527 0-3.120949 1.49714-3.120076 3.064236l-.07358 95.123024 9.880029 9.81274h90.999201c2.74248 0 3.11983-.31977 3.11983-3.064l.07358-101.871764c0-1.669868-1.44677-3.064236-3.11983-3.064236z" style="opacity:.35;fill:none;stroke:#000;stroke-width:8;stroke-linecap:round;stroke-linejoin:round;stroke-dashoffset:1.0878"/><rect fill="url(#d)" height="52" rx="1.299477" ry="1.280226" width="80" x="24" y="4"/><path clip-path="url(#j)" d="m16.78031 126.4375c-1.48295 0-2.65625 1.20455-2.65625 2.6875l.435841 39.22509c0 1.48295 1.173301 2.65625 2.65625 2.65625h.15625c-.407771-.44637-.6875-1.03176-.6875-1.6875l-.435841-37.16259c0-1.39131 1.112011-2.53125 2.5-2.53125h65.59375c1.387992 0 2.5 1.13994 2.5 2.53125l.435841 37.16259c.000002.65574-.248479 1.24113-.65625 1.6875h.125c1.48295 0 2.687502-1.1733 2.6875-2.65625l-.435841-39.22509c0-1.48295-1.204549-2.6875-2.6875-2.6875z" fill="url(#g)" filter="url(#e)" transform="matrix(1 0 0 .91653944 16.391305 -41.797544)"/><path d="m34.53687 76.00784c-1.419208 0-2.5625 1.14329-2.5625 2.5625l.02469 37.14624h72l-.0247-37.14624c0-1.41921-1.14329-2.5625-2.5625-2.5625z" fill-opacity=".128319"/><path d="m34.580078 76.0708c-1.419208 0-2.5625 1.1433-2.5625 2.5625v37.18328l71.981482-.11658v-37.18328c0-1.4192-1.14329-2.5625-2.5625-2.5625z" fill="url(#f)" opacity=".074219"/><path d="m52.93656 80.040991c-.51955 0-.937465.417953-.9375.9375v23.062499h-11.0625c-.51955 0-.9375.41795-.9375.9375v6.125c0 .51955.417949.9375.9375.9375h12 10.125c.51955 0 .9375-.41795.9375-.9375v-6.125-23.999999c0-.51955-.417949-.9375-.9375-.9375z" fill="url(#m)" filter="url(#l)" transform="matrix(1 0 0 1.0103538 0 -1.312878)"/><path d="m112.08021 93.783789v6.718751h-1.21875-1.03125l4.34375 7.53125 4.34375-7.53125h-1.03125-1.21875v-6.718751h-2.09375z" style="opacity:.453125;fill-rule:evenodd;stroke:#fff;stroke-width:.098887;fill:url(#h);filter:url(#i)" transform="matrix(.9067163 0 0 1.1138304 4.475665 -12.395278)"/><path d="m87.693916 81.905701h4.306084v34.20499h-4.306084z" fill="url(#n)" filter="url(#o)" opacity=".296875" transform="matrix(1 0 0 1.0103538 0 -1.312878)"/><path d="m34.541033 76.321631c-1.17725 0-2.125.944804-2.125 2.118396l.176777 37.559973h55.40625v-37.701219c0-1.173593-.82275-1.97715-2-1.97715zm6.395527 7.925238h14.125c.519551 0 .9375.416652.9375.934586v21.310695c0 .51793-.41795.93459-.9375.93459h-14.125c-.519551 0-.9375-.41666-.9375-.93459v-21.310695c0-.517932.41795-.934586.9375-.934586z" fill="url(#k)"/><g opacity=".785156" stroke-dashoffset="4.15" stroke-linecap="round" stroke-linejoin="round" transform="matrix(1.4404859 0 0 .9603239 -3.047774 -5.28583)"><rect height="12" rx="1.079258" style="opacity:1;fill:none;stroke:#000;stroke-width:.931872;clip-path:url(#r);filter:url(#p)" transform="matrix(.6942102 0 0 .6942102 4.892636 5.504216)" width="8" x="12" y="12"/><rect height="12" rx="1.079258" style="opacity:1;stroke-width:.931872;clip-path:url(#q);fill:url(#t);stroke:url(#u);filter:url(#p)" transform="matrix(.6942102 0 0 .6942102 4.892636 5.504216)" width="8" x="12" y="12"/><rect fill="url(#v)" filter="url(#s)" height="3.67592" opacity="1" rx=".452268" stroke="url(#w)" stroke-width=".309276" width="4.350229" x="13.897468" y="18.030909"/></g><path d="m87.99906 76v7.71875h8v24.28125h8v-24.28125-7.71875h-8z" opacity=".35"/><g fill="#fff"><path d="m32 80h56v7.999996h-56z" opacity=".399015"/><path d="m32 108h56v4h-56z" opacity=".712"/><path d="m24 4h80v12h-80z" opacity=".275862"/></g></g><path d="m87.875 12c-.865503.02693-1.698899.333976-2.375.875l-60 48c-.949856.759129-1.5 1.909063-1.5 3.125s.550144 2.365871 1.5 3.125l60 48c1.200963.96113 2.832437 1.13525 4.21875.46875 1.386317-.6665 2.281892-2.05554 2.28125-3.59375v-23.6875-10.25l-1.5-1.1875c-1.200963-.96113-2.832437-1.135247-4.21875-.46875-1.386317.666498-2.281892 2.055543-2.28125 3.59375v23.6875l-49.59375-39.6875 49.59375-39.6875v23.6875c-.000642 1.538207.894936 2.927253 2.28125 3.59375 1.38631.666496 3.017787.49238 4.21875-.46875l1.5-1.1875v-10.25-23.6875c.000417-1.082848-.441373-2.121179-1.21875-2.875-.777377-.75382-1.823927-1.158727-2.90625-1.125z" style="opacity:.905263;fill:none;stroke:#638000;stroke-width:.966;stroke-linejoin:round;filter:url(#x)" transform="matrix(-.09832016 0 0 .09496357 11.441914 -.071699)"/><g fill-rule="evenodd"><path d="m90.925781-.06054687c-2.590203.07375895-5.163589.91729383-7.314453 2.49218747l-70.623047 51.6855474c-3.0451135 2.227907-5.0839841 5.852642-5.0839841 9.882812 0 4.03116 2.0395885 7.656994 5.0859371 9.884766l70.623047 51.685544c3.860769 2.82603 8.748949 3.2337 12.978516 1.37305 4.167743-1.83347 7.504483-6.14034 7.503903-11.22461v-.004-25.52734-4.78125-6.25-30.3125-5.3125-5.71875-25.527344-.0039c.00032-3.5767774-1.6348-6.8929237-4.150388-9.125-2.6255-2.3295967-5.859992-3.306887-9.019531-3.21679687zm-31.208984 50.98828087v26.144532l-17.851563-13.072266z" fill="url(#y)" transform="matrix(-.09334192 0 0 .09334192 10.966493 .03208)"/><path d="m87.875 12c-.799041.02487-1.572946.283948-2.21875.75v8.509131l6.3125-5.634131c-.08779-.946211-.499493-1.832841-1.1875-2.5-.777377-.75382-1.823927-1.158727-2.90625-1.125z" fill="url(#z)" filter="url(#A)" opacity=".85" transform="matrix(-.18645836 0 0 .18009278 18.73693 -1.939353)"/><path d="m90.917969-.36328125c-2.649147.07543744-5.284638.93867125-7.486328 2.55078125l-70.623047 51.685547c-3.1174453 2.280803-5.2070315 5.994699-5.2070315 10.126953 0 4.133245 2.0903057 7.84824 5.2089845 10.128906l70.623047 51.685544c3.952572 2.89326 8.952258 3.30978 13.279297 1.40625 4.262909-1.87533 7.686189-6.28904 7.685549-11.50195v-.004-25.52734-4.78125-.75-5.5-30.3125-5.3125-.1875-5.53125-25.527344-.0039c.00036-3.667166-1.6763-7.0661006-4.25196-9.3514785-2.689655-2.38652518-5.998247-3.38507553-9.228511-3.29296875zm-31.503907 51.88867225v24.949218l-17.035156-12.474609z" fill="url(#B)" opacity=".905263" transform="matrix(-.09334192 0 0 .09334192 11.001111 .031537)"/><path d="m71.875 12c-.799041.02487-1.572946.283948-2.21875.75v8.572989l6.3125-5.697989c-.08779-.946211-.499493-1.832841-1.1875-2.5-.777377-.75382-1.823927-1.158727-2.90625-1.125z" fill="url(#C)" filter="url(#A)" opacity=".35" transform="matrix(-.18737132 0 0 -.18097458 15.817192 13.936107)"/><path d="m11.6875 59.125-2.1875 1.75c-.9498559.759129-1.5 1.909063-1.5 3.125.0000001 1.215937.5501441 2.365871 1.5 3.125l3.53125 2.8125 2.125-5.625z" fill="url(#D)" filter="url(#E)" opacity=".5" transform="matrix(-.23400446 0 0 -.22601569 11.970369 20.594011)"/></g><path d="m92 16-60 48 59.45645 46.40495.54355-30.40495v-32z" fill="none" filter="url(#G)" stroke="url(#F)" stroke-width="1.014736" transform="matrix(-.09832016 0 0 .08606074 11.835195 .498082)"/><path d="m92 16-60 48 58.27295 45.05285 1.72705-29.05285v-32z" fill="none" filter="url(#G)" stroke="url(#F)" stroke-width="1.014736" transform="matrix(-.09832016 0 0 .08606074 11.835195 .498082)"/><g fill-rule="evenodd" transform="matrix(.17777525 0 0 .17777525 .769981 -.597388)"><path d="m46.204004 37.17714-36.5018756-25.5604.2399998 50.400803z" fill="url(#H)"/><path d="m9.7021284 11.61674 36.5018756 25.5604-36.171198 24.711023-.3306776-16.190889v-17.040267z" fill="url(#I)"/><path d="m9.7021284 11.61674 36.4258296 25.510478c-3.923868.49603-8.095626.765481-12.433451.76548-8.960087 0-17.252365-1.141849-23.9923786-3.078563v-6.157128z" fill="url(#J)"/><path d="m9.7021284 11.61674.5133076.3661v16.441195 6.073923c6.646603 1.909874 14.814266 3.028642 23.650173 3.028642 4.118868 0 8.081909-.243959 11.825087-.698918l.437262.299536c-3.923868.49603-8.095626.765481-12.433451.76548-8.960087 0-17.252365-1.141849-23.9923786-3.078563v-6.157128z" fill="url(#K)"/><path d="m9.7021284 11.61674 36.4258296 25.510478c-2.074204.262207-4.225197.453183-6.425851.582431 2.014565-.125559 3.989338-.325073 5.893532-.565791l-35.361191-24.761638v16.541041 5.974078c2.45312.704895 5.115184 1.310417 7.946762 1.780575-3.021684-.491279-5.871004-1.114359-8.4790816-1.863779v-6.157128zm29.9999786 26.092909c-1.007846.05919-2.030162.103758-3.060834.133127 1.031152-.03204 2.053552-.07035 3.060834-.133127z" fill="url(#J)"/></g></svg>