<svg height="16" viewBox="0 0 4.2333333 4.2333335" width="16" xmlns="http://www.w3.org/2000/svg" xmlns:xlink="http://www.w3.org/1999/xlink"><linearGradient id="a" gradientTransform="matrix(.02142367 0 0 .03442741 261.74293 -6.218645)" gradientUnits="userSpaceOnUse" x1="399.77466" x2="399.77466" y1="1164.6696" y2="549.06134"><stop offset="0" stop-color="#717174"/><stop offset=".5" stop-color="#9c9ca1"/><stop offset="1" stop-color="#bdbdc2"/></linearGradient><linearGradient id="b" gradientTransform="matrix(.17638883 0 0 .23518537 262.42777 8.231486)" gradientUnits="userSpaceOnUse" x1="119.57646" x2="15.999996" y1="23.792561" y2="109.6508"><stop offset="0" stop-color="#fff"/><stop offset=".42597079" stop-color="#fff"/><stop offset=".5892781" stop-color="#e5e5e5"/><stop offset=".80219781" stop-color="#eaeaea"/><stop offset="1" stop-color="#eee"/></linearGradient><linearGradient id="c" gradientTransform="matrix(0 -.4226725 -.52916644 0 40.216662 309.47215)" gradientUnits="userSpaceOnUse" x1="102.31124" x2="74.330322" y1="-5.830213" y2="32"><stop offset="0" stop-color="#fff"/><stop offset="1" stop-color="#fff" stop-opacity="0"/></linearGradient><linearGradient id="d" gradientTransform="matrix(.02142367 0 0 .03442741 272.32624 -8.335316)" gradientUnits="userSpaceOnUse" x1="399.77466" x2="399.77466" y1="1164.6696" y2="549.06134"><stop offset="0" stop-color="#717174"/><stop offset=".5" stop-color="#9c9ca1"/><stop offset="1" stop-color="#cdcdd1"/></linearGradient><radialGradient id="e" cx="-33.5" cy="194.5" gradientTransform="matrix(1.539394 0 0 1.5393938 335.86967 -278.24543)" gradientUnits="userSpaceOnUse" r="5.5"><stop offset="0" stop-color="#a9cbfc"/><stop offset="1" stop-color="#aecffc"/></radialGradient><radialGradient id="f" cx="21.166644" cy="284.300008" gradientUnits="userSpaceOnUse" r="8.466666"><stop offset="0" stop-color="#8fbcff"/><stop offset="1" stop-color="#80b3ff"/></radialGradient><linearGradient id="g" gradientTransform="matrix(-.16780128 .20456557 .20456557 .16780128 16.554479 244.17787)" gradientUnits="userSpaceOnUse" x1="113.15723" x2="39.268185" xlink:href="#h" y1="25.786163" y2="25.786163"/><linearGradient id="h"><stop offset="0" stop-color="#0968ef"/><stop offset="1" stop-color="#aecffc"/></linearGradient><linearGradient id="i" gradientTransform="matrix(.16780128 -.20456557 -.20456557 -.16780128 17.31219 315.95544)" gradientUnits="userSpaceOnUse" x1="113.15723" x2="39.268185" xlink:href="#h" y1="25.786163" y2="25.786163"/><g transform="matrix(.125 0 0 .125 0 -32.89167)"><path d="m0 263.13333h33.866665v33.866665h-33.866665z" fill="#e7e7e7" opacity="0"/><rect fill="url(#a)" height="21.166666" opacity=".75" rx=".839991" ry=".976923" transform="matrix(0 1 1 0 0 0)" width="21.166666" x="263.13333" y="12.700008"/><rect fill="url(#b)" fill-rule="evenodd" height="16.933332" rx=".390787" ry=".47037" transform="matrix(0 1 1 0 0 0)" width="16.933332" x="265.25" y="14.816674"/><path d="m31.750001 270.79756c-4.989035 4.51568-10.385224 8.74867-16.933326 11.38576v-11.50463c6.269025-.64436 11.932268-2.65582 16.933326-5.4287z" fill="url(#c)" fill-rule="evenodd"/><g transform="translate(-10.583336 2.116688)"><rect fill="url(#d)" height="21.166666" opacity=".75" rx=".839991" ry=".976923" transform="matrix(0 1 1 0 0 0)" width="21.166666" x="273.71664" y="10.583336"/><g fill-rule="evenodd"><rect fill="url(#e)" height="16.933332" rx=".390787" ry=".47037" transform="matrix(0 1 1 0 0 0)" width="16.933332" x="275.83331" y="12.700003"/><path d="m29.633335 281.3809c-4.989036 4.51567-10.385213 8.74869-16.933333 11.38576v-11.50463c6.269044-.64436 11.932255-2.65585 16.933333-5.4287z" fill="url(#f)"/></g></g><g fill-rule="evenodd"><path d="m12.7 263.13332c-2.523773.49267-5.2257625 2.12646-7.9865927 5.49217l-1.1513508-3.61321-1.4800131.14624.064079 8.26564 8.1183676-1.55339-.187069-1.51412-3.7274209-.38861c2.3067489-2.81214 4.4180529-4.1697 6.3499999-4.62607z" fill="url(#g)"/><path d="m31.720544 286.70914-8.118367 1.5534.187068 1.51412 3.727421.3886c-2.306749 2.81215-4.418053 4.16971-6.35 4.62608v2.20865c2.523773-.49268 5.225763-2.12646 7.986594-5.49217l1.15135 3.61321 1.480013-.14624z" fill="url(#i)"/></g></g></svg>