<svg height="16" width="16" xmlns="http://www.w3.org/2000/svg" xmlns:xlink="http://www.w3.org/1999/xlink"><linearGradient id="a" gradientUnits="userSpaceOnUse" x1="104.06811" x2="104" y1="40" y2="-127.999999"><stop offset="0" stop-color="#dee1e5"/><stop offset="1" stop-color="#fafafa"/></linearGradient><linearGradient id="b" gradientUnits="userSpaceOnUse" x1="48" x2="48" y1="240.12875" y2="-88"><stop offset="0"/><stop offset="1" stop-opacity="0"/></linearGradient><filter id="c" height="1.260078" width="1.266016" x="-.133008" y="-.130039"><feGaussianBlur stdDeviation="3.0342466"/></filter><linearGradient id="d" gradientUnits="userSpaceOnUse" x1="56.165081" x2="56.165081" y1="72.000854" y2="15.999757"><stop offset="0" stop-color="#d7dadd"/><stop offset="1" stop-color="#fff"/></linearGradient><g transform="matrix(-.125 0 0 .125 16 0)"><rect fill="url(#b)" height="127.7724" opacity=".859903" rx="8" width="95.931892" x="32.068104"/><path d="m40.068104-120h79.931896l.0681 112h-79.931892z" fill="url(#a)" transform="scale(1 -1)"/><path d="m36-1-32.7791094 41.876712h17.6558214l3.123288 11.780822h24l2.342466-11.780822h19.436643z" filter="url(#c)" transform="matrix(1.2807018 0 0 1.2807018 2 .280702)"/><path d="m48 0-35.050438 48h19.050438v24h32v-24h20.331141z" fill="url(#d)"/><g font-family="Liberation Sans" font-size="10.2079" transform="scale(-1 1)"><text x="-112.72604" y="79.900314"><tspan x="-112.72604" y="79.900314">blallall</tspan></text><text x="-111.5755" y="96.775002"><tspan x="-111.5755" y="96.775002">blallall</tspan></text><text x="-79.743713" y="96.007973"><tspan x="-79.743713" y="96.007973">blallall</tspan></text><text x="-112.34254" y="63.409153"><tspan x="-112.34254" y="63.409153">blallall</tspan></text></g></g></svg>