<svg height="16" viewBox="0 0 16 16" width="16" xmlns="http://www.w3.org/2000/svg" xmlns:xlink="http://www.w3.org/1999/xlink"><linearGradient id="a" gradientTransform="matrix(1.375 0 0 1.375 78.368096 -144.00124)" gradientUnits="userSpaceOnUse" x1="4.043177" x2="120.14173" y1="55.8302" y2="55.8302"><stop offset="0" stop-color="#b4b4b6"/><stop offset=".5" stop-color="#9c9ca1"/><stop offset="1" stop-color="#cdcdd1"/></linearGradient><linearGradient id="b" gradientTransform="translate(4)" gradientUnits="userSpaceOnUse" x1="0" x2="56" xlink:href="#a" y1="64" y2="64"/><linearGradient id="c" gradientTransform="translate(-4)" gradientUnits="userSpaceOnUse" x1="72" x2="128" xlink:href="#a" y1="64" y2="64"/><g transform="scale(.125)"><path d="m68 0c14.883807.24158 20.16327 1.698443 26.70313 6.046875 6.53985 4.348435 9.7733 13.995236 9.125 27.75l-.14063 3.0625c-.79617 16.891816 5.20318 22.309035 20.3125 27.140625-15.10932 4.83159-21.10867 10.248809-20.3125 27.140624l.14063 3.062504c.6483 13.754762-2.58515 23.401562-9.125 27.750002-6.53986 4.34842-11.819323 5.80529-26.70313 6.04687v-2.65625c15.56034-4.34843 19.9375-11.60029 19.9375-29.71875v-8.593752c0-20.0511 4.10221-18.199658 21.01563-23.031248-16.91342-4.83159-21.01563-2.980148-21.01563-23.03125v-8.59375c0-18.118469-4.37716-25.37032-19.9375-29.71875z" fill="url(#c)"/><path d="m60 0c-14.883807.24158-20.163272 1.698443-26.703125 6.046875-6.539855 4.348435-9.773308 13.995236-9.125 27.75l.140625 3.0625c.796167 16.891816-5.203184 22.309035-20.3125 27.140625 15.109316 4.83159 21.108667 10.248809 20.3125 27.140624l-.140625 3.062504c-.648308 13.754762 2.585145 23.401562 9.125 27.750002 6.539853 4.34842 11.819318 5.80529 26.703125 6.04687v-2.65625c-15.56034-4.34843-19.9375-11.60029-19.9375-29.71875v-8.593752c0-20.0511-4.102207-18.199658-21.015625-23.031248 16.913418-4.83159 21.015625-2.980148 21.015625-23.03125v-8.59375c0-18.118469 4.37716-25.37032 19.9375-29.71875z" fill="url(#b)"/></g></svg>