<svg height="16" width="16" xmlns="http://www.w3.org/2000/svg" xmlns:xlink="http://www.w3.org/1999/xlink"><linearGradient id="a" gradientUnits="userSpaceOnUse" x1="8.212793" x2="8.212793" y1="-13.821526" y2="-1.400359"><stop offset="0" stop-color="#06f"/><stop offset="1" stop-color="#80b3ff"/></linearGradient><linearGradient id="b" gradientUnits="userSpaceOnUse" x1="104.000007" x2="152.000004" y1="123.999973" y2="79.999985"><stop offset="0" stop-color="#0968ef"/><stop offset="1" stop-color="#aecffc"/></linearGradient><g transform="scale(.125)"><rect fill="#618fd2" fill-opacity=".091954" height="104" rx=".181713" ry=".202637" stroke-width="1.131505" width="104" x="8" y="8"/><path d="m112 56v7.870346h-8v-7.870346z" fill="#7193c6"/><use height="128" transform="translate(0 104)" width="128" xlink:href="#c"/><use height="128" transform="translate(104 104)" width="128" xlink:href="#c"/><rect id="c" fill="url(#a)" height="16" rx=".20639" ry=".249288" transform="scale(1 -1)" width="16" y="-16"/><g fill="#7193c6"><path d="m112 72.129654v7.870346h-8v-7.870346z"/><path d="m112.16019 88.12965v7.87035h-8v-7.87035z"/><path d="m80 104.12965v7.87035h-8v-7.87035z"/><path d="m64 104.12965v7.87035h-8v-7.87035z"/><path d="m48 104.12965v7.87035h-8v-7.87035z"/><path d="m32 104.12965v7.87035h-8v-7.87035z"/><path d="m80 8.000004v7.87035h-8v-7.87035z"/><path d="m64 8.000004v7.87035h-8v-7.87035z"/><path d="m48 8.000004v7.87035h-8v-7.87035z"/><path d="m32 8.000004v7.87035h-8v-7.87035z"/><path d="m15.87034 88h-7.87035v-8h7.87035z"/><path d="m15.87034 72h-7.87035v-8h7.87035z"/><path d="m15.87034 56h-7.87035v-8h7.87035z"/><path d="m15.87034 40h-7.87035v-8h7.87035z"/><path d="m15.87035 104h-7.87035v-8h7.87035z"/><path d="m16 16.129654v7.870346h-8v-7.870346z"/><path d="m112 40v7.870346h-8v-7.870346z"/><path d="m112 24v7.870346h-8v-7.870346z"/></g><use height="128" transform="translate(104)" width="128" xlink:href="#c"/><path d="m96 104v7.87035h-8v-7.87035z" fill="#7193c6"/><path d="m96 8.12965v7.87035h-8v-7.87035z" fill="#7193c6"/><path d="m40 39.999974v7.999993l40 40.000025h-24.000002v7.999996h40.000002v-7.999996-32.000031h-8v24.000039l-40.000001-40.000026z" fill="url(#b)" stroke-width="30.236218"/><path d="m32 20h-5.401486c-5.601539 0-9.369246.663987-11.303114 1.991962-1.867182 1.328043-3.400938 4.359244-4.601268 9.093707h-2.400662l.600166-14.723111h55.757944l.600168 14.723111h-2.400667c-1.133641-4.792278-2.667398-7.823479-4.601271-9.093707-1.867171-1.327975-5.634877-1.991962-11.30311-1.991962h-5.401485v37.438404 6.817482c0 3.175639.566839 5.225277 1.700467 6.149128 1.133642.923778 3.767703 1.472305 7.902175 1.645514v1.645548h-28.550445v-1.645548c4.134479-.231074 6.735189-.808285 7.802148-1.732136 1.06696-.981561 1.60044-3.3199 1.60044-7.015159z" stroke-width="1.183502"/></g></svg>