<svg height="16" viewBox="0 0 16 16" width="16" xmlns="http://www.w3.org/2000/svg" xmlns:xlink="http://www.w3.org/1999/xlink"><linearGradient id="a" gradientUnits="userSpaceOnUse" x1="64" x2="64" y1="128" y2="0"><stop offset="0" stop-color="#b4b4b6"/><stop offset=".5" stop-color="#9c9ca1"/><stop offset="1" stop-color="#cdcdd1"/></linearGradient><linearGradient id="b" gradientUnits="userSpaceOnUse" x1="72" x2="72" y1="128" y2="0"><stop offset="0" stop-color="#fff"/><stop offset=".59375" stop-color="#fff"/><stop offset=".84375" stop-color="#f1f1f1"/><stop offset=".90625" stop-color="#eaeaea"/><stop offset="1" stop-color="#dfdfdf"/></linearGradient><g transform="scale(.125)"><path d="m64 0c-35.346224 0-64 28.653776-64 64s28.653776 64 64 64 64-28.653776 64-64-28.653776-64-64-64zm0 32c17.673112 0 32 14.326888 32 32 0 2.865288-.383469 5.640622-1.089844 8.283203l-39.193359-39.193359c2.642581-.706375 5.417915-1.089844 8.283203-1.089844zm-30.910156 23.716797 39.193359 39.193359c-2.642581.706375-5.417915 1.089844-8.283203 1.089844-17.673112 0-32-14.326888-32-32 0-2.865288.383469-5.640622 1.089844-8.283203z" fill="url(#a)"/><path d="m64 8c-30.927946 0-56 25.072054-56 56s25.072054 56 56 56 56-25.072054 56-56-25.072054-56-56-56zm0 16c22.09139 0 40 17.90861 40 40 0 8.151586-2.44567 15.729771-6.632812 22.052734l-55.419922-55.419922c6.322963-4.187146 13.901148-6.632812 22.052734-6.632812zm-33.367188 17.947266 55.419922 55.419922c-6.322963 4.187142-13.901148 6.632812-22.052734 6.632812-22.09139 0-40-17.90861-40-40 0-8.151586 2.445666-15.729771 6.632812-22.052734z" fill="url(#b)"/></g></svg>