<svg height="16" viewBox="0 0 16 16" width="16" xmlns="http://www.w3.org/2000/svg" xmlns:xlink="http://www.w3.org/1999/xlink"><linearGradient id="a" gradientUnits="userSpaceOnUse" x1="-.165475" x2="122.55024" y1="-61.192997" y2="-61.192997"><stop offset="0" stop-color="#b4b4b6"/><stop offset=".5" stop-color="#9c9ca1"/><stop offset="1" stop-color="#cdcdd1"/></linearGradient><linearGradient id="b" gradientUnits="userSpaceOnUse" x1="43.341953" x2="74.933983" y1="-117.10874" y2="-2.171004"><stop offset="0" stop-color="#fff"/><stop offset=".59375" stop-color="#fff"/><stop offset=".84375" stop-color="#f1f1f1"/><stop offset=".90625" stop-color="#eaeaea"/><stop offset="1" stop-color="#dfdfdf"/></linearGradient><g transform="matrix(.125 0 0 .125 -.060022 0)"><path d="m61.392578-122.54883a7.7351809 7.7351809 0 0 0 -7.708984 5.86719l-3.53125 14.24609-10.208985-10.57422a7.7351809 7.7351809 0 0 0 -12.996093 7.51563l4.066406 14.103515-14.13086-4.052734a7.7351809 7.7351809 0 0 0 -7.4980464 13.005859l10.5742184 10.183594-14.2636715 3.55664a7.7351809 7.7351809 0 0 0 .00977 15.011719l14.2460935 3.53125-10.5742185 10.208985a7.7351809 7.7351809 0 0 0 7.5156245 12.996093l14.103516-4.066406-4.052735 14.132813a7.7351809 7.7351809 0 0 0 13.00586 7.4960932l10.183589-10.5742192 3.554688 14.2656255a7.7351809 7.7351809 0 0 0 15.011719-.00977l3.53125-14.2480465 10.210937 10.5742184a7.7351809 7.7351809 0 0 0 12.996094-7.5156204l-4.066406-14.103516 14.132816 4.052735a7.7351809 7.7351809 0 0 0 7.49609-13.007813l-10.57227-10.179687 14.26172-3.556641a7.7351809 7.7351809 0 0 0 -.01-15.011719l-14.2461-3.53125 10.57422-10.210937a7.7351809 7.7351809 0 0 0 -7.51562-12.996094l-14.103518 4.066406 4.052734-14.132813a7.7351809 7.7351809 0 0 0 -13.005859-7.49609l-10.183594 10.57422-3.556641-14.26368a7.7351809 7.7351809 0 0 0 -7.302734-5.85742z" fill="url(#a)" transform="matrix(1.0081953 -.275962 -.275962 -1.0081953 -11.926818 19.040573)"/><path d="m61.192239-7.5672874-6.937306-27.8255256-19.876069 20.640904 7.904879-27.566265-27.533633 7.937512 20.628959-19.920645-27.8135821-6.89273 27.8255251-6.937306-20.640904-19.87607 27.566265 7.90488-7.937512-27.533637 19.920646 20.628963 6.892729-27.813583 6.937306 27.825526 19.87607-20.640906-7.90488 27.566267 27.533638-7.937512-20.628963 19.920646 27.813583 6.892729-27.825527 6.937306 20.640907 19.87607-27.566268-7.90488 7.937513 27.533634-19.920646-20.628959z" fill="url(#b)" transform="matrix(1.0081953 -.275962 -.275962 -1.0081953 -11.926818 19.040573)"/><g fill="#ae1010" stroke-width="1.306233"><path d="m46.976116 56.136478h-8.203141v-3.291707q5.32943-.679241 6.949158-1.880975 1.619729-1.201734 2.821463-5.486177h3.030459v37.044758h-4.597939z"/><path d="m65.140097 58.330948q.365745-12.853329 12.226338-12.853329 5.277179 0 8.568886 3.03046 3.291706 3.03046 3.291706 7.837396 0 6.896908-7.837396 11.181351l-5.22493 2.821463q-3.396205 1.828725-4.859186 3.552953-1.46298 1.724227-1.828726 4.075445h19.488991v4.54569h-24.661672q.313496-6.113169 2.455718-9.404875 2.142221-3.343956 7.941894-6.635662l4.806936-2.716964q5.015933-2.873712 5.015933-7.314903 0-2.97821-2.089972-4.963684-2.089972-1.985473-5.22493-1.985473-6.949158 0-7.471651 8.830132z"/></g></g></svg>