<svg height="16" viewBox="0 0 16 16" width="16" xmlns="http://www.w3.org/2000/svg" xmlns:xlink="http://www.w3.org/1999/xlink"><linearGradient id="a" gradientUnits="userSpaceOnUse" x1="72" x2="72" y1="-16" y2="128"><stop offset="0" stop-color="#959391"/><stop offset="1" stop-color="#828282"/></linearGradient><linearGradient id="b" gradientUnits="userSpaceOnUse" x1="64" x2="64" y1="40" y2="-8"><stop offset="0" stop-color="#cbcbcd"/><stop offset=".5" stop-color="#e0e0e2"/><stop offset="1" stop-color="#f2f2f2"/></linearGradient><linearGradient id="c" gradientUnits="userSpaceOnUse" x1="64" x2="64" y1="8" y2="112"><stop offset="0" stop-color="#fff"/><stop offset="1" stop-color="#bbb"/></linearGradient><filter id="d" color-interpolation-filters="sRGB" height="1.229086" width="1.168" x="-.084" y="-.114543"><feGaussianBlur stdDeviation=".56"/></filter><filter id="e" color-interpolation-filters="sRGB" height="1.219135" width="1.336" x="-.168" y="-.109568"><feGaussianBlur stdDeviation=".56"/></filter><g transform="scale(.125)"><rect fill="url(#a)" height="128" rx="14.751542" ry="13.666797" width="96" x="16"/><rect fill="url(#c)" height="112" rx="12.907599" ry="11.958447" width="80" x="24" y="8"/><rect fill="url(#b)" height="96" rx="9.876436" ry="10.226353" width="64" x="32" y="16"/><g fill="#fff"><path d="m56 28.266411h16v11.733589h-16z" filter="url(#d)"/><path d="m48 40h8v12.266411h-8z" filter="url(#e)"/><path d="m72 40h8v12.266411h-8z" filter="url(#e)"/></g><g fill="#403c3b"><path d="m56 24h16v11.733589h-16z"/><path d="m48 35.733589h8v12.266411h-8z"/><path d="m72 35.733589h8v12.266411h-8z"/></g><path d="m16 56h96v16h-96z" fill="#5c5b5a"/><g fill="#fff" transform="matrix(1 0 0 -1 0 136)"><path d="m56 28.266411h16v11.733589h-16z" filter="url(#d)"/><path d="m48 40h8v12.266411h-8z" filter="url(#e)"/><path d="m72 40h8v12.266411h-8z" filter="url(#e)"/></g><g fill="#403c3b" transform="matrix(1 0 0 -1 0 128)"><path d="m56 24h16v11.733589h-16z"/><path d="m48 35.733589h8v12.266411h-8z"/><path d="m72 35.733589h8v12.266411h-8z"/></g></g></svg>