<svg height="16" width="16" xmlns="http://www.w3.org/2000/svg" xmlns:xlink="http://www.w3.org/1999/xlink"><linearGradient id="a"><stop offset="0" stop-color="#0968ef"/><stop offset="1" stop-color="#aecffc"/></linearGradient><linearGradient id="b" gradientTransform="matrix(-.00049044 -.99999988 .99999988 -.00049044 -7.941142 120.013715)" gradientUnits="userSpaceOnUse" x1="113.15723" x2="39.268185" xlink:href="#a" y1="25.786163" y2="25.786163"/><linearGradient id="c" gradientTransform="matrix(-.00049044 .99999988 .99999988 .00049044 -7.951042 8.164337)" gradientUnits="userSpaceOnUse" x1="113.15723" x2="39.268185" xlink:href="#a" y1="25.786163" y2="25.786163"/><g transform="matrix(.125 0 0 .125 0 -.01113)"><g fill="#404040" fill-opacity=".892019" transform="scale(-1 1)"><path d="m-120 8h72v8.000004h-72z"/><path d="m-120 40h72v8.000004h-72z"/><path d="m-120 72h72v8.000004h-72z"/><path d="m-120 104h72v8.000004h-72z"/></g><g fill-rule="evenodd"><path d="m20 0-19.988228 24.009811 3.976795 3.972883 12.021335-7.80464-.009895 43.825946 7.999993-.004.0099-43.825944 11.827727 7.793019 4.174158-3.976891z" fill="url(#b)"/><path d="m19.990098 128.17805-19.988228-24.00981 3.976795-3.97288 12.021335 7.80464.000007-44.004 7.999993.004-.000007 44.004 11.827727-7.79302 4.174158 3.97689z" fill="url(#c)"/></g></g></svg>