<svg height="16" width="16" xmlns="http://www.w3.org/2000/svg" xmlns:xlink="http://www.w3.org/1999/xlink"><linearGradient id="a"><stop offset="0" stop-color="#0968ef"/><stop offset="1" stop-color="#aecffc"/></linearGradient><linearGradient id="b" gradientTransform="matrix(.99999988 -.00049052 .00049052 .99999988 -73.111006 64.048132)" gradientUnits="userSpaceOnUse" x1="113.15723" x2="39.268185" xlink:href="#a" y1="25.786163" y2="25.786163"/><linearGradient id="c" gradientTransform="matrix(-.99999988 -.00049044 -.00049044 .99999988 199.1112 63.994221)" gradientUnits="userSpaceOnUse" x1="113.15723" x2="39.268185" xlink:href="#a" y1="25.786163" y2="25.786163"/><linearGradient id="d" gradientTransform="matrix(.06503009 0 0 .1431311 -83.720535 -63.540355)" gradientUnits="userSpaceOnUse" x1="399.77466" x2="399.77466" y1="1164.6696" y2="549.06134"><stop offset="0" stop-color="#b4b4b6"/><stop offset=".5" stop-color="#9c9ca1"/><stop offset="1" stop-color="#cdcdd1"/></linearGradient><linearGradient id="e" gradientTransform="matrix(.65972239 0 0 1.0000001 -97.887947 -5.784912)" gradientUnits="userSpaceOnUse" x1="33.177513" x2="136.25117" y1="9.784911" y2="105.7849"><stop offset="0" stop-color="#fff"/><stop offset=".42597079" stop-color="#fff"/><stop offset=".5892781" stop-color="#f1f1f1"/><stop offset=".80219781" stop-color="#eaeaea"/><stop offset="1" stop-color="#dfdfdf"/></linearGradient><linearGradient id="f" gradientTransform="matrix(0 -.72259344 -1.0000001 0 96 101.12595)" gradientUnits="userSpaceOnUse" x1="102.31124" x2="74.330322" y1="-5.830213" y2="32"><stop offset="0" stop-color="#fff"/><stop offset="1" stop-color="#fff" stop-opacity="0"/></linearGradient><g transform="scale(.125)"><rect fill="url(#d)" height="48" rx="3.632653" transform="rotate(-90)" width="48" x="-64" y="40"/><g fill-rule="evenodd"><rect fill="url(#e)" height="32" rx="4" ry="3.25" transform="rotate(-90)" width="32" x="-56" y="48"/><path d="m80 35.008646c-9.42808 7.719875-19.625611 14.956544-32.000001 19.46486v-19.668089c11.846987-1.101572 22.549161-2.06498 32.000001-6.805417z" fill="url(#f)"/><path d="m47.975046 91.9363-24.00981-19.98823-3.97288 3.9768 7.80464 12.02133-27.796996.0538.0039 7.99999 27.796996-.0538-7.79292 11.82773 3.97689 4.17415z" fill="url(#b)"/><path d="m78.024949 91.936297 24.009811-19.988228 3.97288 3.976796-7.804641 12.021335 29.797001.0538-.004 7.999993-29.797001-.0538 7.793021 11.827727-3.97689 4.17416z" fill="url(#c)"/></g></g></svg>