<svg height="16" width="16" xmlns="http://www.w3.org/2000/svg" xmlns:xlink="http://www.w3.org/1999/xlink"><linearGradient id="a"><stop offset="0" stop-color="#1d3c12"/><stop offset="1" stop-color="#1d3c12" stop-opacity="0"/></linearGradient><linearGradient id="b" gradientUnits="userSpaceOnUse" x1="63.919922" x2="65.71067" xlink:href="#a" y1="97.92601" y2=".568682"/><filter id="c" color-interpolation-filters="sRGB" height="1.063315" width="1.038651" x="-.019325" y="-.031658"><feGaussianBlur stdDeviation=".91252666"/></filter><clipPath id="d"><path d="m63.919921 97.926011a55.999998 12 0 0 1 -55.9199211-12.011723 55.999998 12 0 0 1 .1816414-.91406c.015756-.95158.054535-1.89668.1171868-2.835938.0000432-.00065-.0000433-.000999 0-.002.06269-.939252.1493697-1.873029.2578131-2.798834.0000749-.000638-.0000749-.000999 0-.002.1084766-.925789.2394886-1.844625.3925753-2.755856.0001065-.000632-.0001065-.0013 0-.002.1531201-.91122.3287976-1.813452.5253904-2.708988.0001364-.000621-.0001371-.0013 0-.002.1966205-.895525.4153381-1.783393.6542961-2.662108.000166-.00061-.000165-.0013 0-.002.23899-.878709.499116-1.748592.779297-2.609376.000193-.000588-.000192-.0014 0-.002.560616-1.722135 1.203206-3.407149 1.921875-5.050781.11448-.261858.242973-.515671.36133-.775392.624933-1.371251 1.291704-2.720439 2.021486-4.029293.433973-.778333.885948-1.544072 1.355468-2.298831.000295-.000477-.000297-.0015 0-.002.938794-1.509031 1.947437-2.968864 3.021485-4.376951.00055-.000722.0014-.0012.002-.002.822228-1.077837 1.695033-2.114869 2.591796-3.12891.274474-.310362.541058-.62749.822266-.93164.000331-.00036-.000332-.0016 0-.002.599991-.6489 1.215904-1.28259 1.845703-1.90234.630448-.6204 1.274419-1.22635 1.933594-1.81641.658832-.58977 1.331189-1.16431 2.017578-1.72266.000385-.00031.0016.00032.002 0 .299466-.243589.611457-.471532.916015-.70898 1.090796-.85048 2.204124-1.67434 3.357422-2.44336.000755-.0005.0012-.0014.002-.002 1.475467-.98367 3.000689-1.89982 4.570313-2.74219.000499-.00027.0015.00027.002 0 .784712-.421102 1.580183-.82488 2.386718-1.20898.000526-.00026.0014.00025.002 0 2.420689-1.15274 4.93647-2.13627 7.533203-2.93555.000591-.00018.0014.00018.002 0 .865184-.266279 1.740599-.51349 2.623047-.73828 1.632966-.415982 3.297851-.75107 4.984374-1.01953.136921-.0218.270956-.05148.408209-.07227.000638-.000101.0013.000099.002 0 .913578-.13838 1.834289-.254119 2.761714-.347661.000649-.00006.0013.00007.002 0 1.855515-.187078 3.738492-.284298 5.642579-.285152 4.768174.0029 9.39828.60418 13.818356 1.73242.884807.225841 1.759538.472691 2.626952.74023.575804.17758 1.141271.37673 1.708986.57227 1.995049.68721 3.946142 1.47131 5.832032 2.37109 1.614939.77053 3.187909 1.616579 4.71289 2.53321.484215.291039.955175.60107 1.429686.90625.272843.175472.552675.341407.822266.521479.00076.0005.0012.0014.002.002.219084.146368.429568.30376.646483.45313 1.244577.857129 2.461942 1.75427 3.630859 2.707029 1.372535 1.118761 2.691425 2.30266 3.951175 3.54492.00066.000651.001.0013.002.002.62953.620831 1.24412 1.25625 1.84375 1.906241.00064.000679.001.0013.002.002.60023.650699 1.18476 1.31535 1.7539 1.994138 1.70745 2.03636 3.2726 4.196009 4.67968 6.464843.46902.75628.92016 1.524837 1.35352 2.30469 1.29969 2.33882 2.43617 4.781939 3.39454 7.312497.00028.000777.002.0012.002.002.31923.843031.61743 1.696536.89649 2.558591.19656.607171.37076 1.223712.54685 1.839843.0742.259638.15989.514172.23046.775392.00016.00061-.00017.0013 0 .002.23772.880185.45514 1.769041.65039 2.666014.00013.000621-.00013.0013 0 .002.19523.896984.36982 1.802212.5215 2.714846.00011.000632-.0001.0013 0 .002.15162.912639.27989 1.832591.38674 2.759761.00008.000638-.00007.000998 0 .002.10685.927181.19101 1.86215.25198 2.802729.00005.000655-.00005.001 0 .002.0609.940601.0994 1.886971.11329 2.83985v.002a55.999998 12 0 0 1 .1889.810565h-.14846v.02164.002h.14846a55.999998 12 0 0 1 -56.080129 11.976376zm-55.734374-12.931641a55.999998 12 0 0 1 3.246094-3.173829c-.188821.111123-.404798.219527-.580079.332037-.0034.002-.0083.004-.01171.0061-1.3879919.901078-2.2962278 1.850611-2.6542968 2.835938zm111.476563-.224632c-.0372-.08322-.0641-.167378-.1094-.249985a55.999998 12 0 0 1 .1094.249985zm-.17969-.357391c-.2172-.368209-.50724-.731292-.87501-1.08789a55.999998 12 0 0 1 .87501 1.08789zm-.9668-1.169937c-.38018-.356659-.83176-.70544-1.35546-1.048822a55.999998 12 0 0 1 1.35546 1.048822z"/></clipPath><radialGradient id="e" cx="87.651321" cy="93.491234" gradientTransform="matrix(1.0147423 0 0 -1.0147423 -.943507 150.86951)" gradientUnits="userSpaceOnUse" r="55.039619" xlink:href="#f"/><radialGradient id="f" cx="87.651321" cy="93.491234" gradientTransform="matrix(1.0147423 0 0 -1.0147423 -.943507 150.86951)" gradientUnits="userSpaceOnUse" r="55.039619"><stop offset="0" stop-color="#cbff10"/><stop offset="1" stop-color="#004d00"/></radialGradient><filter id="g" color-interpolation-filters="sRGB" height="1.108706" width="1.053825" x="-.026913" y="-.054353"><feGaussianBlur stdDeviation="1.2525832"/></filter><radialGradient id="h" cx="64.405708" cy="96.659279" gradientTransform="matrix(1 0 0 .52093381 0 46.306194)" gradientUnits="userSpaceOnUse" r="58.857224"><stop offset="0" stop-color="#272727"/><stop offset="1" stop-color="#272727" stop-opacity="0"/></radialGradient><linearGradient id="i" gradientUnits="userSpaceOnUse" x1="56" x2="88" xlink:href="#a" y1="108" y2="-56"/><filter id="j" color-interpolation-filters="sRGB" height="1.060435" width="1.036613" x="-.018306" y="-.030217"><feGaussianBlur stdDeviation=".85429734"/></filter><mask id="k" maskUnits="userSpaceOnUse"><path d="m63.919922 97.92601a56 12 0 0 1 -55.919922-12.01172 56 12 0 0 1 .1816406-.91406c.015766-.95158.054528-1.89668.1171875-2.83594.0000431-.00065-.0000431-.001 0-.002.062691-.93925.1493682-1.87303.2578125-2.79883.0000751-.00064-.000075-.001 0-.002.1084754-.92579.2394893-1.844627.3925782-2.755854.0001063-.000633-.0001064-.0013 0-.002.1531194-.911217.3287973-1.813452.5253906-2.708984.0001366-.000622-.0001366-.0013 0-.002.1966236-.895523.4153388-1.783393.6542966-2.662109.000166-.000608-.000165-.0013 0-.002.238988-.878708.499114-1.748595.779297-2.609375.000193-.000591-.000192-.0014 0-.002.560616-1.722132 1.203206-3.407146 1.921875-5.050781.114482-.26183.24297-.515684.361328-.775391.624933-1.371249 1.291704-2.720436 2.021485-4.029296.433972-.77833.885949-1.544066 1.355468-2.298829.000296-.000475-.000296-.0015 0-.002.938794-1.509032 1.947438-2.968869 3.021485-4.376953.000551-.000722.0014-.0012.002-.002.822228-1.077837 1.695034-2.114869 2.591797-3.12891.274474-.31036.541059-.62749.822265-.93164.000332-.00036-.000331-.0016 0-.002.599991-.6489 1.215904-1.28259 1.845703-1.90234.630448-.6204 1.274419-1.22635 1.933594-1.81641.658832-.58977 1.331189-1.16431 2.017578-1.72266.000385-.00031.0016.00032.002 0 .299469-.24359.611457-.47153.916015-.70898 1.090796-.85048 2.204124-1.67434 3.357422-2.44336.000755-.0005.0012-.0014.002-.002 1.475467-.98367 3.000689-1.89982 4.570313-2.74219.000499-.00027.0015.00027.002 0 .784712-.4211 1.580183-.82488 2.386718-1.20898.000526-.00026.0014.00025.002 0 2.420689-1.15274 4.93647-2.13627 7.533203-2.93555.000591-.00018.0014.00018.002 0 .865184-.26628 1.740599-.51349 2.623047-.73828 1.632966-.41598 3.297853-.75107 4.984375-1.01953.136925-.0218.27095-.05148.408203-.07227.000636-.0001.0013.0001.002 0 .913581-.13838 1.834294-.25412 2.761719-.34766.000645-.00006.0013.00007.002 0 1.855516-.18708 3.73849-.2843 5.642578-.28515 4.768176.0029 9.398283.60418 13.818359 1.73242.884804.22584 1.759537.47269 2.626953.74023.5758.17758 1.141267.37673 1.708985.57227 1.99505.68721 3.946141 1.47131 5.832031 2.37109 1.614939.77053 3.187911 1.61658 4.712891 2.53321.48419.29104.955173.60107 1.429687.90625.272855.17547.552687.34141.822266.52148.000755.0005.0012.0014.002.002.219093.14637.429588.30376.646484.45313 1.244577.85713 2.461943 1.75427 3.63086 2.70703 1.37253 1.11876 2.69142 2.30266 3.95117 3.54492.00066.00065.001.0013.002.002.62952.62083 1.24411 1.25625 1.84375 1.90624.00063.00068.001.0013.002.002.60023.6507 1.18476 1.31535 1.7539 1.994139 1.70745 2.03636 3.27261 4.196009 4.67969 6.464843.46903.756279.92015 1.524836 1.35352 2.304688 1.29969 2.338822 2.43616 4.781938 3.39453 7.3125.00029.000774.002.0012.002.002.31923.84303.61742 1.696538.89649 2.558594.19655.60717.37073 1.223711.54687 1.839844.0742.259654.15991.514194.23047.77539.00016.000609-.00017.0013 0 .002.23773.880189.45512 1.769046.65039 2.666016.00013.000622-.00014.0013 0 .002.19524.896979.36985 1.80221.52148 2.714844.00011.000633-.0001.0013 0 .002.1516.912644.27987 1.832592.38672 2.759762.00008.00064-.00007.001 0 .002.10682.92718.19103 1.86215.25196 2.80273.00004.00065-.00005.001 0 .002.0609.9406.0994 1.88697.11328 2.83985v.002a56 12 0 0 1 .18889.810562h-.14844v.0215.002h.14844a56 12 0 0 1 -56.080078 11.9765zm-55.7343751-12.93164a56 12 0 0 1 3.2460941-3.17383c-.188819.11112-.404798.21952-.580079.33203-.0034.002-.0083.004-.01172.006-1.3879923.90108-2.2962283 1.85061-2.6542971 2.83594zm111.4765631-.22461c-.0374-.0832-.0641-.16736-.10938-.25a56 12 0 0 1 .10938.25zm-.17969-.35742c-.21718-.36823-.50722-.73129-.875-1.08789a56 12 0 0 1 .875 1.08789zm-.9668-1.16993c-.38018-.35666-.83176-.70544-1.35546-1.04882a56 12 0 0 1 1.35546 1.04882z" fill="url(#f)"/></mask><g transform="matrix(.13961931 0 0 .13961931 -.992272 -1.419023)"><ellipse cx="64.405708" cy="96.659279" fill="url(#h)" filter="url(#g)" rx="55.851028" ry="27.654516" transform="matrix(1.0085407 0 0 .70183342 -.550072 17.543229)"/><path d="m63.919922 97.92601a56 12 0 0 1 -55.919922-12.01172 56 12 0 0 1 .1816406-.91406c.015766-.95158.054528-1.89668.1171875-2.83594.0000431-.00065-.0000431-.001 0-.002.062691-.93925.1493682-1.87303.2578125-2.79883.0000751-.00064-.000075-.001 0-.002.1084754-.92579.2394893-1.844627.3925782-2.755854.0001063-.000633-.0001064-.0013 0-.002.1531194-.911217.3287973-1.813452.5253906-2.708984.0001366-.000622-.0001366-.0013 0-.002.1966236-.895523.4153388-1.783393.6542966-2.662109.000166-.000608-.000165-.0013 0-.002.238988-.878708.499114-1.748595.779297-2.609375.000193-.000591-.000192-.0014 0-.002.560616-1.722132 1.203206-3.407146 1.921875-5.050781.114482-.26183.24297-.515684.361328-.775391.624933-1.371249 1.291704-2.720436 2.021485-4.029296.433972-.77833.885949-1.544066 1.355468-2.298829.000296-.000475-.000296-.0015 0-.002.938794-1.509032 1.947438-2.968869 3.021485-4.376953.000551-.000722.0014-.0012.002-.002.822228-1.077837 1.695034-2.114869 2.591797-3.12891.274474-.31036.541059-.62749.822265-.93164.000332-.00036-.000331-.0016 0-.002.599991-.6489 1.215904-1.28259 1.845703-1.90234.630448-.6204 1.274419-1.22635 1.933594-1.81641.658832-.58977 1.331189-1.16431 2.017578-1.72266.000385-.00031.0016.00032.002 0 .299469-.24359.611457-.47153.916015-.70898 1.090796-.85048 2.204124-1.67434 3.357422-2.44336.000755-.0005.0012-.0014.002-.002 1.475467-.98367 3.000689-1.89982 4.570313-2.74219.000499-.00027.0015.00027.002 0 .784712-.4211 1.580183-.82488 2.386718-1.20898.000526-.00026.0014.00025.002 0 2.420689-1.15274 4.93647-2.13627 7.533203-2.93555.000591-.00018.0014.00018.002 0 .865184-.26628 1.740599-.51349 2.623047-.73828 1.632966-.41598 3.297853-.75107 4.984375-1.01953.136925-.0218.27095-.05148.408203-.07227.000636-.0001.0013.0001.002 0 .913581-.13838 1.834294-.25412 2.761719-.34766.000645-.00006.0013.00007.002 0 1.855516-.18708 3.73849-.2843 5.642578-.28515 4.768176.0029 9.398283.60418 13.818359 1.73242.884804.22584 1.759537.47269 2.626953.74023.5758.17758 1.141267.37673 1.708985.57227 1.99505.68721 3.946141 1.47131 5.832031 2.37109 1.614939.77053 3.187911 1.61658 4.712891 2.53321.48419.29104.955173.60107 1.429687.90625.272855.17547.552687.34141.822266.52148.000755.0005.0012.0014.002.002.219093.14637.429588.30376.646484.45313 1.244577.85713 2.461943 1.75427 3.63086 2.70703 1.37253 1.11876 2.69142 2.30266 3.95117 3.54492.00066.00065.001.0013.002.002.62952.62083 1.24411 1.25625 1.84375 1.90624.00063.00068.001.0013.002.002.60023.6507 1.18476 1.31535 1.7539 1.994139 1.70745 2.03636 3.27261 4.196009 4.67969 6.464843.46903.756279.92015 1.524836 1.35352 2.304688 1.29969 2.338822 2.43616 4.781938 3.39453 7.3125.00029.000774.002.0012.002.002.31923.84303.61742 1.696538.89649 2.558594.19655.60717.37073 1.223711.54687 1.839844.0742.259654.15991.514194.23047.77539.00016.000609-.00017.0013 0 .002.23773.880189.45512 1.769046.65039 2.666016.00013.000622-.00014.0013 0 .002.19524.896979.36985 1.80221.52148 2.714844.00011.000633-.0001.0013 0 .002.1516.912644.27987 1.832592.38672 2.759762.00008.00064-.00007.001 0 .002.10682.92718.19103 1.86215.25196 2.80273.00004.00065-.00005.001 0 .002.0609.9406.0994 1.88697.11328 2.83985v.002a56 12 0 0 1 .18889.810562h-.14844v.0215.002h.14844a56 12 0 0 1 -56.080078 11.9765zm-55.7343751-12.93164a56 12 0 0 1 3.2460941-3.17383c-.188819.11112-.404798.21952-.580079.33203-.0034.002-.0083.004-.01172.006-1.3879923.90108-2.2962283 1.85061-2.6542971 2.83594zm111.4765631-.22461c-.0374-.0832-.0641-.16736-.10938-.25a56 12 0 0 1 .10938.25zm-.17969-.35742c-.21718-.36823-.50722-.73129-.875-1.08789a56 12 0 0 1 .875 1.08789zm-.9668-1.16993c-.38018-.35666-.83176-.70544-1.35546-1.04882a56 12 0 0 1 1.35546 1.04882z" fill="url(#e)"/><g fill="none"><path d="m63.919922 97.92601a56 12 0 0 1 -55.919922-12.01172 56 12 0 0 1 .1816406-.91406c.015766-.95158.054528-1.89668.1171875-2.83594.0000431-.00065-.0000431-.001 0-.002.062691-.93925.1493682-1.87303.2578125-2.79883.0000751-.00064-.000075-.001 0-.002.1084754-.92579.2394893-1.844627.3925782-2.755854.0001063-.000633-.0001064-.0013 0-.002.1531194-.911217.3287973-1.813452.5253906-2.708984.0001366-.000622-.0001366-.0013 0-.002.1966236-.895523.4153388-1.783393.6542966-2.662109.000166-.000608-.000165-.0013 0-.002.238988-.878708.499114-1.748595.779297-2.609375.000193-.000591-.000192-.0014 0-.002.560616-1.722132 1.203206-3.407146 1.921875-5.050781.114482-.26183.24297-.515684.361328-.775391.624933-1.371249 1.291704-2.720436 2.021485-4.029296.433972-.77833.885949-1.544066 1.355468-2.298829.000296-.000475-.000296-.0015 0-.002.938794-1.509032 1.947438-2.968869 3.021485-4.376953.000551-.000722.0014-.0012.002-.002.822228-1.077837 1.695034-2.114869 2.591797-3.12891.274474-.31036.541059-.62749.822265-.93164.000332-.00036-.000331-.0016 0-.002.599991-.6489 1.215904-1.28259 1.845703-1.90234.630448-.6204 1.274419-1.22635 1.933594-1.81641.658832-.58977 1.331189-1.16431 2.017578-1.72266.000385-.00031.0016.00032.002 0 .299469-.24359.611457-.47153.916015-.70898 1.090796-.85048 2.204124-1.67434 3.357422-2.44336.000755-.0005.0012-.0014.002-.002 1.475467-.98367 3.000689-1.89982 4.570313-2.74219.000499-.00027.0015.00027.002 0 .784712-.4211 1.580183-.82488 2.386718-1.20898.000526-.00026.0014.00025.002 0 2.420689-1.15274 4.93647-2.13627 7.533203-2.93555.000591-.00018.0014.00018.002 0 .865184-.26628 1.740599-.51349 2.623047-.73828 1.632966-.41598 3.297853-.75107 4.984375-1.01953.136925-.0218.27095-.05148.408203-.07227.000636-.0001.0013.0001.002 0 .913581-.13838 1.834294-.25412 2.761719-.34766.000645-.00006.0013.00007.002 0 1.855516-.18708 3.73849-.2843 5.642578-.28515 4.768176.0029 9.398283.60418 13.818359 1.73242.884804.22584 1.759537.47269 2.626953.74023.5758.17758 1.141267.37673 1.708985.57227 1.99505.68721 3.946141 1.47131 5.832031 2.37109 1.614939.77053 3.187911 1.61658 4.712891 2.53321.48419.29104.955173.60107 1.429687.90625.272855.17547.552687.34141.822266.52148.000755.0005.0012.0014.002.002.219093.14637.429588.30376.646484.45313 1.244577.85713 2.461943 1.75427 3.63086 2.70703 1.37253 1.11876 2.69142 2.30266 3.95117 3.54492.00066.00065.001.0013.002.002.62952.62083 1.24411 1.25625 1.84375 1.90624.00063.00068.001.0013.002.002.60023.6507 1.18476 1.31535 1.7539 1.994139 1.70745 2.03636 3.27261 4.196009 4.67969 6.464843.46903.756279.92015 1.524836 1.35352 2.304688 1.29969 2.338822 2.43616 4.781938 3.39453 7.3125.00029.000774.002.0012.002.002.31923.84303.61742 1.696538.89649 2.558594.19655.60717.37073 1.223711.54687 1.839844.0742.259654.15991.514194.23047.77539.00016.000609-.00017.0013 0 .002.23773.880189.45512 1.769046.65039 2.666016.00013.000622-.00014.0013 0 .002.19524.896979.36985 1.80221.52148 2.714844.00011.000633-.0001.0013 0 .002.1516.912644.27987 1.832592.38672 2.759762.00008.00064-.00007.001 0 .002.10682.92718.19103 1.86215.25196 2.80273.00004.00065-.00005.001 0 .002.0609.9406.0994 1.88697.11328 2.83985v.002a56 12 0 0 1 .18889.810562h-.14844v.0215.002h.14844a56 12 0 0 1 -56.080078 11.9765zm-55.7343751-12.93164a56 12 0 0 1 3.2460941-3.17383c-.188819.11112-.404798.21952-.580079.33203-.0034.002-.0083.004-.01172.006-1.3879923.90108-2.2962283 1.85061-2.6542971 2.83594zm111.4765631-.22461c-.0374-.0832-.0641-.16736-.10938-.25a56 12 0 0 1 .10938.25zm-.17969-.35742c-.21718-.36823-.50722-.73129-.875-1.08789a56 12 0 0 1 .875 1.08789zm-.9668-1.16993c-.38018-.35666-.83176-.70544-1.35546-1.04882a56 12 0 0 1 1.35546 1.04882z" style="stroke-width:1.179;stroke-linecap:square;stroke-linejoin:round;mask:url(#k);stroke:url(#i);filter:url(#j)"/><path clip-path="url(#d)" d="m64 29.410156c-1.904705.000851-3.787865.100054-5.644531.285156a.6631526.6631526 0 0 0 -.06641.0039c-.927674.09357-1.849179.209669-2.763671.347656-.0013.000192-.0026-.000192-.0039 0a.6631526.6631526 0 0 0 -.02734.0039.6631526.6631526 0 0 0 -.002 0c-.166438.02521-.301111.05655-.41211.07422-1.704213.271276-3.390026.609684-5.044922 1.03125-.87245.222243-1.736812.468362-2.591797.730469-.0014.000417-.0025.0015-.0039.002a.6631526.6631526 0 0 0 -.05859.01563.6631526.6631526 0 0 0 -.002 0c-2.597641.799559-5.111583 1.786363-7.535156 2.935547-.0069.0032-.01464.0046-.02148.0078a.6631526.6631526 0 0 0 -.06641.02539.6631526.6631526 0 0 0 -.002 0c-.798166.380115-1.585131.781767-2.361328 1.197265-.0051.0027-.0105.0051-.01563.0078a.6631526.6631526 0 0 0 -.03906.01953.6631526.6631526 0 0 0 -.002 0c-1.58843.852462-3.130203 1.780135-4.623047 2.775391a.6631526.6631526 0 0 0 -.002.002.6631526.6631526 0 0 0 -.05859.04297c-1.149512.769294-2.25928 1.585232-3.339844 2.427734-.278.216744-.576814.4381-.876953.679688a.6631526.6631526 0 0 0 -.04883.03906.6631526.6631526 0 0 0 -.002 0c-.694688.5651-1.374596 1.145625-2.041016 1.742188-.667358.597384-1.319534 1.210555-1.957031 1.83789-.636816.626655-1.259721 1.268797-1.867188 1.925781a.6631526.6631526 0 0 0 0 .002.6631526.6631526 0 0 0 -.04297.04883c-.277606.303027-.535764.606163-.789062.892578-.895692 1.01283-1.771283 2.052848-2.599609 3.136719a.6631526.6631526 0 0 0 -.01172.01367c-.004.0052-.0078.01043-.01172.01563a.6631526.6631526 0 0 0 -.002.002c-1.086671 1.424634-2.10664 2.902641-3.056641 4.429687a.6631526.6631526 0 0 0 0 .002.6631526.6631526 0 0 0 -.03516.06055c-.461756.744286-.910023 1.498243-1.337891 2.265625-.740508 1.328099-1.414244 2.692319-2.044921 4.076172-.110878.243294-.240819.500608-.365235.785156-.727187 1.663117-1.377939 3.368437-1.945312 5.111328a.6631526.6631526 0 0 0 0 .002.6631526.6631526 0 0 0 -.01758.0625c-.2758825.850861-.5353006 1.709727-.7714848 2.578126a.6631526.6631526 0 0 0 0 .002.6631526.6631526 0 0 0 -.00391.01172c-.2401731.884826-.4597374 1.778904-.6578783 2.681338a.6631526.6631526 0 0 0 0 .002.6631526.6631526 0 0 0 -.00195.0059c-.1983289.903788-.3746388 1.815848-.5293 2.736241a.6631526.6631526 0 0 0 -.00195.01367.6631526.6631526 0 0 0 -.00586.05078c-.1504714.9018-.2813717 1.808849-.3886719 2.724609a.6631526.6631526 0 0 0 0 .0098c-.00257.02196-.00331.04443-.00586.06641a.6631526.6631526 0 0 0 0 .002c-.1056923.912317-.1940704 1.830124-.2558593 2.75586a.6631526.6631526 0 0 0 -.00195.04492v.002c-.061295.930086-.099359 1.865361-.1152344 2.806641-.09543.305736-.175148.615426-.1816406.929688a.6631526.6631526 0 0 0 0 .0098c-.00451.987636.4520662 1.941226 1.2402344 2.794922s1.9123279 1.639781 3.3554689 2.388672c2.886281 1.497782 7.070779 2.835858 12.28125 3.955078 10.420942 2.238441 25.011356 3.536515 39.705078 3.541016 14.693081.0045 29.299861-1.283875 39.750003-3.515625 5.22507-1.115875 9.42695-2.452085 12.33203-3.947266 1.45255-.74759 2.58651-1.533211 3.38477-2.384765.73244-.78134 1.14175-1.649003 1.21875-2.548829a.6631526.6631526 0 0 0 .0566-.238281.6631526.6631526 0 0 0 0-.08008c-.001-.01658-.0102-.03226-.0117-.04883-.00006-.000627.00006-.0013 0-.002a.6631526.6631526 0 0 0 -.0156-.06445c-.0267-.237806-.0868-.471688-.16407-.703125-.0144-.933964-.0504-1.861538-.10937-2.783203v-.002a.6631526.6631526 0 0 0 -.002-.04297c-.061-.941813-.14741-1.877985-.25391-2.806641a.6631526.6631526 0 0 0 -.002-.0293.6631526.6631526 0 0 0 0-.002c-.10639-.923154-.23435-1.839946-.38477-2.75-.0001-.000634.0001-.0013 0-.002a.6631526.6631526 0 0 0 -.006-.04102.6631526.6631526 0 0 0 0-.002c-.15241-.917311-.32765-1.825612-.52344-2.726562-.00083-.0039-.001-.0079-.002-.01172a.6631526.6631526 0 0 0 -.002-.0098c-.19466-.894174-.41221-1.781007-.64844-2.658203a.6631526.6631526 0 0 0 -.004-.01367c-.002-.009-.003-.01838-.006-.02734a.6631526.6631526 0 0 0 0-.002c-.0775-.287001-.16578-.543179-.23437-.783203-.17576-.614808-.35103-1.240184-.55274-1.863281-.2822-.871712-.58491-1.734131-.9082-2.587891a.6631526.6631526 0 0 0 -.002-.002.6631526.6631526 0 0 0 -.0449-.0957c-.96184-2.525288-2.09051-4.968616-3.38868-7.304687-.43842-.788948-.89443-1.566596-1.36914-2.332032-1.42382-2.295835-3.00875-4.48066-4.73632-6.541015-.57584-.686772-1.1661-1.35917-1.77344-2.017578a.6631526.6631526 0 0 0 -.002-.002l-.0176-.01758-.002-.002c-.59953-.649238-1.21472-1.285783-1.84375-1.90625l-.002-.002a.6631526.6631526 0 0 0 -.004-.0039c-1.27369-1.256498-2.60834-2.453531-3.997202-3.585601-1.185669-.966413-2.415641-1.875076-3.671876-2.740234-.187467-.129104-.388402-.274629-.605468-.421875a.6631526.6631526 0 0 0 -.0332-.02344c-.0058-.0039-.0098-.0078-.01563-.01172a.6631526.6631526 0 0 0 -.002-.002c-.289354-.19328-.572682-.362514-.832031-.529297-.470568-.302644-.947597-.615672-1.447265-.916016-1.543128-.927538-3.135367-1.782797-4.769532-2.5625-1.911185-.911849-3.884359-1.705953-5.90039-2.40039-.564835-.194547-1.138085-.395431-1.730469-.578126-.877618-.270686-1.76268-.521424-2.658203-.75-4.472846-1.141671-9.158714-1.748968-13.982374-1.751902a.6631526.6631526 0 0 0 0-.002z" filter="url(#c)" stroke="url(#b)"/></g></g></svg>