<svg height="16" width="16" xmlns="http://www.w3.org/2000/svg" xmlns:xlink="http://www.w3.org/1999/xlink"><linearGradient id="a" gradientTransform="matrix(1.5714286 0 0 2 -77.455357 -24)" gradientUnits="userSpaceOnUse" x1="102.31124" x2="74.330322" xlink:href="#d" y1="-5.830213" y2="32"/><linearGradient id="b" gradientTransform="matrix(.8333334 0 0 .888889 -5.333332 -16.888886)" gradientUnits="userSpaceOnUse" x1="42.728634" x2="124.09152" y1="99.999985" y2="27.999992"><stop offset="0" stop-color="#fff"/><stop offset=".42597079" stop-color="#fff"/><stop offset=".5892781" stop-color="#f1f1f1"/><stop offset=".80219781" stop-color="#eaeaea"/><stop offset="1" stop-color="#dfdfdf"/></linearGradient><linearGradient id="c" gradientTransform="matrix(.09716559 0 0 .1301193 -6.30617 -71.503536)" gradientUnits="userSpaceOnUse" x1="399.77466" x2="399.77466" y1="1164.6696" y2="549.06134"><stop offset="0" stop-color="#b4b4b6"/><stop offset=".5" stop-color="#9c9ca1"/><stop offset="1" stop-color="#cdcdd1"/></linearGradient><linearGradient id="d"><stop offset="0" stop-color="#fff"/><stop offset="1" stop-color="#fff" stop-opacity="0"/></linearGradient><linearGradient id="e" gradientTransform="matrix(3.3333334 0 -.639827 2.5593082 69.638116 -169.21913)" gradientUnits="userSpaceOnUse" x1="20" x2="20" xlink:href="#d" y1="78.165009" y2="109.84906"/><linearGradient id="f" gradientTransform="matrix(.8333334 0 0 .9162458 40.666665 32.068602)" gradientUnits="userSpaceOnUse" x1="80.34671" x2="73.462685" y1="17.268518" y2="107.95493"><stop offset="0" stop-color="#c7cdd7"/><stop offset="1" stop-color="#fff"/></linearGradient><linearGradient id="g" gradientUnits="userSpaceOnUse" x1="125.157229" x2="51.268184" y1="25.786163" y2="25.786163"><stop offset="0" stop-color="#0968ef"/><stop offset="1" stop-color="#aecffc"/></linearGradient><g transform="scale(.125)"><rect fill="url(#c)" height="80" opacity=".75" rx="2.857143" ry="2.769231" width="96"/><rect fill="url(#b)" fill-rule="evenodd" height="64" rx="1.5" ry="1.444445" width="80" x="8" y="8"/><path d="m66.330357 8c-16.78846 18.856165-32.526091 39.251232-42.330357 64h42.772322c2.395595-23.69396 9.873977-45.098309 20.183035-64z" fill="url(#a)" fill-rule="evenodd"/><rect fill="#81a2d1" height="82.462112" rx="2.857143" ry="2.63168" transform="matrix(1 0 -.2425356 .9701425 0 0)" width="96" x="46" y="49.477268"/><g fill-rule="evenodd"><rect fill="url(#f)" height="65.969688" rx="1.5" ry="1.372697" transform="matrix(1 0 -.2425356 .9701425 0 0)" width="80" x="54" y="57.72348"/><path d="m45 56c-2.77 0-5.407749 1.630996-5.919752 3.679006l-6.458254 25.833017c26.406949 3.10247 53.005766 3.380002 79.900026.399892l6.55823-26.232909c.512-2.048016-1.31025-3.679006-4.08025-3.679006z" fill="url(#e)"/><path d="m132 28-24-20-3.97484 3.974843 7.79874 12.025157h-79.849058v8h79.849058l-7.79874 11.823899 3.97484 4.176101z" fill="url(#g)"/></g></g></svg>