<svg height="16" viewBox="0 0 4.2333333 4.2333335" width="16" xmlns="http://www.w3.org/2000/svg" xmlns:xlink="http://www.w3.org/1999/xlink"><linearGradient id="a" gradientUnits="userSpaceOnUse" x1="1.375709" x2="1.334632" y1="1.578919" y2="-1.439867"><stop offset="0" stop-color="#474744"/><stop offset="1" stop-color="#9e9e9a"/></linearGradient><linearGradient id="b" gradientUnits="userSpaceOnUse" x1=".789266" x2="2.009137" y1=".124767" y2=".124767"><stop offset="0" stop-color="#f5f5f5"/><stop offset="1" stop-color="#eaeaea"/></linearGradient><linearGradient id="c" gradientUnits="userSpaceOnUse" x1=".789561" x2="2.008026" y1=".796695" y2=".796695"><stop offset="0" stop-color="#e9e9e9" stop-opacity=".980392"/><stop offset=".22058271" stop-color="#808080" stop-opacity=".988235"/><stop offset=".5" stop-color="#d0d0d0" stop-opacity=".980392"/><stop offset=".75" stop-color="#808080" stop-opacity=".968627"/><stop offset="1" stop-color="#e9e9e9" stop-opacity=".980392"/></linearGradient><linearGradient id="d" gradientTransform="matrix(.29104575 0 0 .33313079 -1.693333 -5.80263)" gradientUnits="userSpaceOnUse" x1="64" x2="63.9991" y1="96" y2="52.364712"><stop offset="0" stop-color="#080808"/><stop offset="1" stop-color="#232323"/></linearGradient><linearGradient id="e" gradientTransform="matrix(.28394756 0 0 .28836258 -1.290704 -.25915)" gradientUnits="userSpaceOnUse" x1="64" x2="64" y1="88" y2="56"><stop offset="0" stop-color="#7f7f81"/><stop offset=".19868903" stop-color="#b6b6b7"/><stop offset=".42807329" stop-color="#f5f5f5"/><stop offset="1" stop-color="#cfcfcf"/></linearGradient><linearGradient id="f" gradientTransform="matrix(.22737947 0 0 .30040476 4.497918 -.689997)" gradientUnits="userSpaceOnUse" x1="68" x2="68" y1="4" y2="48"><stop offset="0" stop-color="#fff"/><stop offset=".54545456" stop-color="#ebebeb"/><stop offset=".90909094" stop-color="#bababa"/><stop offset="1" stop-color="#7e7e7f"/></linearGradient><linearGradient id="g" gradientTransform="matrix(.24052171 0 0 .26458333 3.706868 .977383)" gradientUnits="userSpaceOnUse" x1="64" x2="63.79105" y1="48" y2="92.305969"><stop offset="0" stop-color="#6e4388"/><stop offset=".21062189" stop-color="#651d8d"/><stop offset=".54859322" stop-color="#ac7ec6"/><stop offset=".81943738" stop-color="#ca87dc"/><stop offset="1" stop-color="#ebeaeb"/></linearGradient><linearGradient id="h" gradientUnits="userSpaceOnUse" x1="20.108572" x2="19.959261" y1="32.727373" y2="25.749553"><stop offset="0" stop-color="#fefefe"/><stop offset=".5" stop-color="#f7f7f7"/><stop offset=".91002578" stop-color="#8c8c8c"/><stop offset="1" stop-color="#666"/></linearGradient><linearGradient id="i" gradientUnits="userSpaceOnUse" x1="19.117506" x2="19.117506" y1="12.619033" y2="17.910723"><stop offset="0" stop-color="#baaac4"/><stop offset="1" stop-color="#baaac4" stop-opacity="0"/></linearGradient><g transform="scale(.125)"><rect fill="#111012" height="9.059485" rx=".053634" ry=".093039" width="21.166666" x="8.466667" y="4.233352"/><rect fill="#3e3c41" height="7.24426" rx=".044496" ry=".073978" width="16.933334" x="10.583333" y="6.34999"/><rect fill="#636363" fill-opacity=".996078" height="14.832205" rx=".052561" ry=".083452" width="12.7" x="12.7" y=".000014"/><rect fill="#1d1d1d" height="6.157489" rx="2.116667" transform="scale(1 -1)" width="30.103001" x="1.539611" y="-17.910931"/><rect fill="url(#d)" height="15.505507" rx=".064691" ry=".101501" width="33.866665" y="11.641674"/><rect fill="#b6b6b6" height="5.291663" rx="2.033992" ry=".977367" transform="scale(1 -1)" width="31.749998" x="1.058333" y="-16.933331"/><rect fill="url(#e)" height="10.583338" rx=".058605" ry=".071886" width="31.749998" x="1.058333" y="14.816662"/><rect fill="url(#f)" height="12.234495" rx=".04693" ry=".074888" width="10.583332" x="13.758333" y="1.058333"/><path d="m8.5163092 11.42578 21.0662888.491463c.02749.000641.04964.0411.04964.092v12.823887l-.04964.092-21.0662892-.491463-.049642-.092v-12.823887c0-.051.022147-.09264.049642-.092z" style="stroke:#1f1f1f;stroke-width:.79375;stroke-linecap:square;stroke-linejoin:round;stroke-opacity:.924883;fill:url(#g)"/><path d="m8.4666669 25.400003v8.46667h21.1666661v-8.46667z" fill="#222" fill-rule="evenodd"/><path d="m9.5250002 25.400003v7.40833h19.0499988l.000001-7.40833z" fill="url(#h)" fill-rule="evenodd"/><rect height="5.291671" rx=".054608" ry=".070466" width="21.166662" x="8.466667" y="20.108353"/><rect fill="#986aae" height="4.233333" rx=".074396" ry=".169416" width="14.816668" x="11.641666" y="11.641677"/><rect fill="url(#i)" height="7.408327" opacity=".92" rx=".081912" ry=".266648" width="12.7" x="12.7" y="11.641677"/><rect fill="#c9b1d5" height="3.174994" rx=".06826" ry=".139031" width="12.7" x="12.7" y="11.641677"/><rect fill="#0c0c0c" height="2.11666" rx=".06826" ry=".070525" width="10.583333" x="13.758333" y="11.641677"/><path d="m9.5252389 23.202373-.0002387-2.0357h19.0499988l.00024 2.0357z" fill="#545156" fill-rule="evenodd"/><g transform="matrix(3.9999999 0 0 3.9999999 -1.058333 15.345834)"><path d="m1.5082513-1.5466494c-.1662884-.02268-.3297873-.012062-.504362.015502-.00207.0003175-.004138.0006615-.006201.00103 0 0-.0644039.011337-.13900959.036174-.0373028.012417-.0791076.027942-.12609049.054777-.0469829.026835-.10788992.061267-.15606284.1576131-.0364134.072827-.0260205.077209-.028422.093534-.002402.016325-.003455.029246-.004651.043925-.002392.029359-.004131.063024-.005684.1033529-.003107.0806585-.00553.1875613-.007235.31315927-.003409.25119617-.004632.57670887-.004651.90020357-.00003731.6469893.004651 1.28467616.004651 1.28467616.00092869.1091837.0691979.2064475.17156554.2444321.40864558.1518068.77588928.1254035 1.13274738-.069246.013657-.00745.026628-.016097.038757-.025839l.0894-.071829c.034285-.027557.061113-.063269.078032-.1038701.3815066-.91254716.198723-1.75257966.1085205-2.6044922-.00948-.087907-.06248-.1651741-.1410767-.205672-.1711969-.0882624-.3339777-.1447571-.5002278-.1674308z" fill="url(#a)"/><path d="m1.0448801-1.2713454s-.19731643.035876-.23319213.1076272c-.0358757.071751-.017938 2.6189265-.017938 2.6189265.36793333.1366827.59851773.1187207.91483043-.053814l.089689-.071751c.3475772-.83138846.18165-1.60690966.08969-2.4754238-.3046192-.1570509-.5225004-.1761826-.8430793-.1255649z" fill="url(#b)"/><path d="m2.0050456.04754244c-.00932.336568-.062399.6723338-.2067057 1.01750886l-.089917.07183c-.3163128.1725345-.5467395.1904264-.91467288.0537437 0 0-.003294-.56963916-.004134-1.12706306-.00061383.6837241.004134 1.39164636.004134 1.39164636.36793338.1366827.59836008.1187908.91467288-.053743l.089917-.07183c.182081-.43553066.2220086-.85582576.2067057-1.28209286z" fill="url(#c)"/><path d="m1.4376384 1.2495361c-.1287029.035485-.2543664.040609-.3963583.01292a.1984375.13229167 0 0 0 .1979208.1224732.1984375.13229167 0 0 0 .1984375-.1322917.1984375.13229167 0 0 0 0-.0031z" fill="#222" fill-opacity=".980392"/></g></g></svg>