<svg height="16" width="16" xmlns="http://www.w3.org/2000/svg" xmlns:xlink="http://www.w3.org/1999/xlink"><linearGradient id="a"><stop offset="0" stop-color="#0968ef"/><stop offset="1" stop-color="#aecffc"/></linearGradient><linearGradient id="b" gradientTransform="matrix(.00049052 .99999988 -.99999988 .00049052 63.952389 -73.110665)" gradientUnits="userSpaceOnUse" x1="113.15723" x2="39.268185" xlink:href="#a" y1="25.786163" y2="25.786163"/><linearGradient id="c" gradientTransform="matrix(.00049044 -.99999988 -.99999988 -.00049044 64.006249 199.11167)" gradientUnits="userSpaceOnUse" x1="113.15723" x2="39.268185" xlink:href="#a" y1="25.786163" y2="25.786163"/><linearGradient id="d" gradientTransform="matrix(.06503009 0 0 .1431311 44.279935 -63.539885)" gradientUnits="userSpaceOnUse" x1="1348.915" x2="-127.32468" y1="891.05676" y2="891.05676"><stop offset="0" stop-color="#b4b4b6"/><stop offset=".5" stop-color="#9c9ca1"/><stop offset="1" stop-color="#cdcdd1"/></linearGradient><linearGradient id="e" gradientTransform="matrix(.65972239 0 0 1.0000001 30.112523 -5.784442)" gradientUnits="userSpaceOnUse" x1="21.050486" x2="130.1873" y1="117.78248" y2="33.78249"><stop offset="0" stop-color="#fff"/><stop offset=".42597079" stop-color="#fff"/><stop offset=".5892781" stop-color="#f1f1f1"/><stop offset=".80219781" stop-color="#eaeaea"/><stop offset="1" stop-color="#dfdfdf"/></linearGradient><linearGradient id="f" gradientTransform="matrix(0 -.72259344 -1.0000001 0 120.00141 125.12736)" gradientUnits="userSpaceOnUse" x1="102.31124" x2="74.330322" y1="-5.830213" y2="32"><stop offset="0" stop-color="#fff"/><stop offset="1" stop-color="#fff" stop-opacity="0"/></linearGradient><g transform="matrix(.125 0 0 .125 0 .000244)"><rect fill="url(#d)" height="48.002422" rx="3.632653" width="48.000473" x="64" y="39.998051"/><g fill-rule="evenodd"><rect fill="url(#e)" height="32.002422" rx="4" ry="3.25" width="32.000473" x="72" y="47.998051"/><path d="m104.00141 59.010058c-9.428078 7.719875-19.625609 14.956544-31.999999 19.46486v-19.668089c11.846987-1.101572 22.547751-2.068345 31.998589-6.808779z" fill="url(#f)"/><path d="m36.06369 47.971146 19.98823-24.00981-3.9768-3.97288-12.02133 7.80464-.0538-27.796996-7.99999.0039.0538 27.796996-11.827733-7.79292-4.17415 3.97689z" fill="url(#b)"/><path d="m36.063703 78.024949 19.988228 24.009811-3.976796 3.97288-12.021335-7.804641-.0538 29.797001-7.999993-.004.0538-29.797001-11.827723 7.793021-4.17416-3.97689z" fill="url(#c)"/></g></g></svg>