<svg height="16" viewBox="0 0 4.2333333 4.2333335" width="16" xmlns="http://www.w3.org/2000/svg" xmlns:xlink="http://www.w3.org/1999/xlink"><radialGradient id="a" cx="34.35376" cy="561.81543" gradientTransform="matrix(-1.3532032 .00000004 -.00000004 -1.3528358 82.8544 797.75064)" gradientUnits="userSpaceOnUse" r="4"><stop offset="0" stop-color="#590000"/><stop offset="1" stop-color="#bf0000"/></radialGradient><linearGradient id="b" gradientTransform="matrix(-1 0 0 -1 70.7205 599.52222)" gradientUnits="userSpaceOnUse" x1="34.999939" x2="31.448986" y1="561.00018" y2="565.14764"><stop offset="0" stop-color="#f7a5a0"/><stop offset="1" stop-color="#cd1f00"/></linearGradient><linearGradient id="c" gradientUnits="userSpaceOnUse" x1="15.712173" x2="16.933331" y1="294.72055" y2="266.63391"><stop offset="0" stop-color="#555"/><stop offset="1"/></linearGradient><linearGradient id="d" gradientUnits="userSpaceOnUse" x1="15.712174" x2="16.933332" y1="262.97046" y2="288.61478"><stop offset="0" stop-color="#3b3e22"/><stop offset="1" stop-color="#454545" stop-opacity="0"/></linearGradient><g transform="matrix(.1 0 0 .1 -.004577 -25.478271)"><path d="m31.700188 293.65814v.81207h-10.898836v-.81207q1.709621-.0427 2.350729-.34192.641108-.29918.641108-1.11125 0-1.02578-.81207-2.86362l-1.752362-4.10309h-11.198019l-1.9660646 5.00064q-.3419242.89755-.3419242 1.66688 0 1.75236 2.9063558 1.75236v.81207h-8.462625v-.81207q1.5813997-.0855 2.4362103-1.19673.8975512-1.15399 2.8636157-5.81271l8.890031-20.9856h.85481l10.642393 24.27662q1.025772 2.35073 1.709621 2.99184.683848.6411 2.137027.72658zm-20.942861-10.17224h9.873063l-4.957902-11.75365z" fill="url(#c)" stroke-width="1.015378"/><path d="m16.782477 266.30836-7.3555686 17.36214a28.086634 12.822159 0 0 0 .7173116.0161.64386597.64386597 0 0 1 .01729-.44959l4.915041-11.75245a.64386597.64386597 0 0 1 .610579-.39652.64386597.64386597 0 0 1 .577187.39413l4.86913 11.54257a28.086634 12.822159 0 0 0 2.763704-.50743l-7.107521-16.20896z" fill="url(#d)"/></g><g transform="matrix(.26458334 0 0 .26458334 -6.805218 -8.60479)"><path d="m34.72056 39.522042 4-.00001-.00002-1.00001-2 .00002 4.00001-4-1.00001-1.00001-3.99999 4 .00002-2-1.00001.00002z" fill="none" stroke="url(#a)" stroke-linejoin="round" stroke-width="2"/><path d="m34.72056 39.522042 4-.00001-.00002-1.00001-2 .00002 4.00001-4-1.00001-1.00001-3.99999 4 .00002-2-1.00001.00002z" fill="url(#b)" fill-rule="evenodd"/></g></svg>