<svg enable-background="new 0 0 128 128" height="16" viewBox="0 0 16 16" width="16" xmlns="http://www.w3.org/2000/svg" xmlns:xlink="http://www.w3.org/1999/xlink"><linearGradient id="a"><stop offset="0"/><stop offset="1" stop-opacity="0"/></linearGradient><filter id="b" height="1.20422" width="1.175483" x="-.087741" y="-.10211"><feGaussianBlur stdDeviation="3.0526685"/></filter><linearGradient id="c" gradientTransform="translate(-682.08887 -206.90625)" gradientUnits="userSpaceOnUse" x1="147.09375" x2="8.083992" xlink:href="#d" y1="33.40625" y2="123.90625"/><radialGradient id="d" cx="48" cy="-.2148" gradientTransform="matrix(.9792 0 0 .9725 133.0002 20.8762)" gradientUnits="userSpaceOnUse" r="55.147999"><stop offset="0" stop-color="#72d13d"/><stop offset="1" stop-color="#00b400"/></radialGradient><radialGradient id="e" cx="66.01458" cy="126.69183" gradientTransform="matrix(.675025 0 0 .3583625 -662.56149 -165.9016)" gradientUnits="userSpaceOnUse" r="59.995121"><stop offset="0" stop-color="#53be2c"/><stop offset="1" stop-color="#53be2c" stop-opacity="0"/></radialGradient><radialGradient id="f" cx="167.67001" cy="80.404922" gradientTransform="matrix(.2676699 .521376 -.7037472 .3612977 -573.09501 -242.96923)" gradientUnits="userSpaceOnUse" r="59.995121" xlink:href="#g"/><linearGradient id="g"><stop offset="0" stop-opacity=".672662"/><stop offset="1" stop-opacity="0"/></linearGradient><radialGradient id="h" cx="-10.165252" cy="66.906013" gradientTransform="matrix(.4582893 -.00000002 .00000005 1.0000813 -661.64092 -206.91145)" gradientUnits="userSpaceOnUse" r="59.995121" xlink:href="#g"/><radialGradient id="i" cx="72.684891" cy="48.228905" fx="74.871155" fy="26.862719" gradientTransform="matrix(.982366 .01671718 -.00358011 .2103843 -700.65231 -176.42846)" gradientUnits="userSpaceOnUse" r="59.995121" xlink:href="#g"/><radialGradient id="j" cx="64.088867" cy="7.410843" gradientTransform="matrix(.3093869 0 0 .4779247 -637.82826 -203.04183)" gradientUnits="userSpaceOnUse" r="59.995121" xlink:href="#l"/><linearGradient id="k"><stop offset="0" stop-color="#fff"/><stop offset="1" stop-color="#fff" stop-opacity="0"/></linearGradient><linearGradient id="l" xlink:href="#k"/><filter id="m"><feGaussianBlur stdDeviation=".89883985"/></filter><linearGradient id="n" gradientUnits="userSpaceOnUse" spreadMethod="reflect" x1="-562.02637" x2="-556.78521" xlink:href="#l" y1="-194.336754" y2="-192.461754"/><filter id="o" height="1.274647" width="1.301924" x="-.150962" y="-.137324"><feGaussianBlur stdDeviation=".39257441"/></filter><linearGradient id="p" gradientUnits="userSpaceOnUse" spreadMethod="reflect" x1="120.0625" x2="125.30366" xlink:href="#q" y1="12.569496" y2="14.444496"/><linearGradient id="q"><stop offset="0" stop-color="#baff63"/><stop offset="1" stop-color="#fff" stop-opacity="0"/></linearGradient><radialGradient id="r" cx="67.09375" cy="116.90625" fx="67.09375" fy="116.90625" gradientTransform="translate(-682.08887 -206.90625)" gradientUnits="userSpaceOnUse" r="56" xlink:href="#d"/><radialGradient id="s" cx="99.726295" cy="27.418272" fx="64.689766" fy="68.231934" gradientTransform="matrix(.693735 .05867125 -.0362428 .4285387 -648.14948 -180.02535)" gradientUnits="userSpaceOnUse" r="56"><stop offset="0" stop-color="#62c734"/><stop offset="1" stop-color="#62c734" stop-opacity="0"/></radialGradient><linearGradient id="t" gradientUnits="userSpaceOnUse" x1="-594.723391" x2="-606.99512" y1="-194.192728" y2="-133.007568"><stop offset="0" stop-color="#cbff9c"/><stop offset="1" stop-color="#65c171" stop-opacity="0"/></linearGradient><linearGradient id="u" gradientUnits="userSpaceOnUse" x1="-606.9909" x2="-606.9909" xlink:href="#l" y1="-202.372576" y2="-126.731795"/><linearGradient id="v" gradientUnits="userSpaceOnUse" x1="-610.49512" x2="-610.49512" xlink:href="#q" y1="-76.5" y2="-143.479473"/><filter id="w"><feGaussianBlur stdDeviation="1.0580524"/></filter><linearGradient id="x" gradientUnits="userSpaceOnUse" x1="-612.61644" x2="-612.61644" xlink:href="#q" y1="-129.533012" y2="-191.562733"/><linearGradient id="y" gradientUnits="userSpaceOnUse" x1="-73" x2="-163" xlink:href="#a" y1="105.625" y2="86.125"/><linearGradient id="z" gradientUnits="userSpaceOnUse" x1="-124.09394" x2="-178.5043" xlink:href="#a" y1="135.63324" y2="91.103989"/><linearGradient id="A" gradientUnits="userSpaceOnUse" x1="-102.30271" x2="-177.01074" xlink:href="#a" y1="98.479607" y2="111.20422"/><mask id="B" maskUnits="userSpaceOnUse"><g transform="matrix(.09167413 0 0 .09166666 19.40279 -.105173)"><path d="m-112.87919-.748959c-28.6839 0-52.71845 20.401005-58.26941 47.514207-.79126 3.868612-1.21439 7.877997-1.21439 11.974434 0 32.783633 26.70271 59.488638 59.4838 59.488638 29.946276 0 54.851203-22.055174 58.887249-50.944604a4.998049 4.9984563 0 0 0 -4.239713-5.625l-.1069-.02127c2.838532-1.953949 4.943161-4.985493 4.94315-8.480149l-.06436-40.035514c0-.717339-.09272-1.03007-.149115-1.363636-.03163-.715756-.777428-1.371252-1.022644-2.1306818a4.998049 4.9984563 0 0 0 -1.661789-3.664773c-.0469-.042382-.101446-.044618-.149115-.085233-.619913-.5287408-1.271744-.9474219-1.874847-1.2144888a4.998049 4.9984563 0 0 0 -.04254-.021306h-.02182a4.998049 4.9984563 0 0 0 -.234308-.1065382c-.0059-.00234-.01527.00233-.02182 0a4.998049 4.9984563 0 0 0 -1.511354-.319594c-.03491-.00642-.0709.00597-.1069 0-.382551-.064724-.70467-.2306564-1.107848-.2343753-2.87688-.021044-5.26132 1.478842-7.22244 3.430398a4.998049 4.9984563 0 0 0 -.0218 0l-5.92195 5.9232951c-.39629-.303709-.77448-.692738-1.17177-.980116-10.17955-8.161865-23.12629-13.10369037-37.177366-13.1036908zm0 42.166195c2.95958 0 5.5895.931331 8.01071 2.237217l-.12783.127844-2.34356 1.938921a4.998049 4.9984563 0 0 0 -.36219.340909c-1.00449 1.009854-1.8013 2.078561-2.32226 3.089488l.91612-1.257102-.91612.916189c-1.23623 1.236897-2.29448 2.524378-2.87618 4.367894-.5817 1.843518-.23556 4.037528.31958 5.326706.42832.994298 1.2329 2.446981 2.74836 3.579546 1.51545 1.132564 3.5865 1.747159 5.64584 1.747159h7.158496c-2.20237 6.929903-8.008666 12.251424-15.850966 12.251421-7.0097 0-12.97576-4.16924-15.72315-10.142046-.17336-.408851-.32589-.76404-.31958-.745735a4.998049 4.9984563 0 0 0 -.0639-.19176c.0573.146924-.0662-.220156-.19175-.617902l-.0426-.19176c-.26146-.923558-.46146-1.790067-.55388-2.535509a4.998049 4.9984563 0 0 0 -.21305-.894884c-.10603-.741327-.21305-1.487817-.21305-2.024148 0-1.21682.11296-2.38194.34088-3.494319 1.61453-7.879834 8.56424-13.828128 16.98015-13.828129z" fill="#fff" stroke-width=".908063"/><path d="m-118.07184 64.040507h81.811524l.760316 77.459493h-83.5z" fill="url(#y)" filter="url(#b)"/><path d="m-159.5 68.25 120.361741-12.266292-54.315068 106.569152-104.341323-33.58779z" fill="url(#z)" filter="url(#b)" transform="matrix(.63937619 .76889407 -.76889407 .63937619 37.597633 128.087228)"/><path d="m-125.38608 52.426476 86.247821 3.557232-54.315068 106.569152-104.341323-33.58779z" fill="url(#A)" filter="url(#b)" transform="matrix(.63937619 .76889407 -.76889407 .63937619 37.597633 128.087228)"/></g></mask><linearGradient id="C" gradientUnits="userSpaceOnUse" x1="65.918158" x2="95.469008" y1="92.505587" y2="72.005587"><stop offset="0" stop-color="#382a23"/><stop offset="1" stop-color="#753919" stop-opacity="0"/></linearGradient><filter id="D" color-interpolation-filters="sRGB" height="1.116259" width="1.118972" x="-.059486" y="-.058129"><feGaussianBlur stdDeviation="2.3063507"/></filter><radialGradient id="E" cx="30.826572" cy="86.85881" gradientTransform="matrix(.97177617 0 0 .99360916 2.808391 -1.052321)" gradientUnits="userSpaceOnUse" r="48.221165"><stop offset="0" stop-color="#fff718"/><stop offset="1" stop-color="#e77100"/></radialGradient><linearGradient id="F" gradientUnits="userSpaceOnUse" x1="-6.953438" x2="66.845506" y1="100.303807" y2="77.467066"><stop offset="0" stop-color="#753919"/><stop offset="1" stop-color="#753919" stop-opacity="0"/></linearGradient><radialGradient id="G" cx="45.885448" cy="75.050514" gradientTransform="matrix(.97177617 0 0 .99360916 2.808391 -1.052321)" gradientUnits="userSpaceOnUse" r="48.221165" xlink:href="#H"/><linearGradient id="H"><stop offset="0" stop-color="#31170a"/><stop offset="1" stop-color="#542912" stop-opacity="0"/></linearGradient><radialGradient id="I" cx="-3.114552" cy="128.35297" gradientTransform="matrix(.97177617 0 0 .99360916 2.808391 -1.052321)" gradientUnits="userSpaceOnUse" r="48.221165" xlink:href="#H"/><linearGradient id="J" gradientUnits="userSpaceOnUse" x1="11.554377" x2="72.751942" xlink:href="#K" y1="103.219135" y2="78.90899"/><linearGradient id="K" gradientUnits="userSpaceOnUse" x1="28" x2="28" y1="57.5" y2="0"><stop offset="0" stop-color="#ffea00"/><stop offset="1" stop-color="#fc0"/></linearGradient><linearGradient id="L" gradientUnits="userSpaceOnUse" x1="4.266055" x2="89.204306" y1="115.055971" y2="115.055971"><stop offset="0" stop-color="#ffea00"/><stop offset="1" stop-color="#dea200"/></linearGradient><linearGradient id="M" gradientUnits="userSpaceOnUse" x1="2.814214" x2="68.147888" y1="124.73762" y2="62.865772"><stop offset="0" stop-color="#ffeb4a"/><stop offset="1" stop-color="#ffeb4a" stop-opacity="0"/></linearGradient><filter id="N" color-interpolation-filters="sRGB" height="1.035563" width="1.036448" x="-.018224" y="-.017782"><feGaussianBlur stdDeviation=".66328126"/></filter><linearGradient id="O" gradientUnits="userSpaceOnUse" x1="9.610824" x2="2.222648" xlink:href="#K" y1="58.780281" y2="105.911422"/><linearGradient id="P" gradientUnits="userSpaceOnUse" x1="1.90311" x2="32.767336" xlink:href="#k" y1="44.651196" y2="82.160849"/><linearGradient id="Q" gradientUnits="userSpaceOnUse" x1="85.219681" x2="61.336319" y1="93.219681" y2="69.336319"><stop offset="0"/><stop offset="1" stop-color="#393b38"/></linearGradient><linearGradient id="R" gradientUnits="userSpaceOnUse" x1="96" x2="88.000198" y1="104" y2="96.000198"><stop offset="0" stop-color="#888a85"/><stop offset=".0072" stop-color="#8c8e89"/><stop offset=".0673" stop-color="#abaca9"/><stop offset=".1347" stop-color="#c5c6c4"/><stop offset=".2115" stop-color="#dbdbda"/><stop offset=".3012" stop-color="#ebebeb"/><stop offset=".4122" stop-color="#f7f7f6"/><stop offset=".5679" stop-color="#fdfdfd"/><stop offset="1" stop-color="#fff"/></linearGradient><radialGradient id="S" cx="102" cy="112.3047" gradientTransform="matrix(.12234042 0 0 .12272727 1.670213 .645455)" gradientUnits="userSpaceOnUse" r="139.55859"><stop offset="0" stop-color="#535557"/><stop offset=".11366145" stop-color="#898a8c"/><stop offset=".20296688" stop-color="#ececec"/><stop offset=".2363" stop-color="#fafafa"/><stop offset=".2722" stop-color="#fff"/><stop offset=".5313" stop-color="#fafafa"/><stop offset=".8449" stop-color="#ebecec"/><stop offset="1" stop-color="#e1e2e3"/></radialGradient><radialGradient id="T" cx="14.25" cy="14.538088" gradientUnits="userSpaceOnUse" r="17.444813"><stop offset="0" stop-color="#00537d"/><stop offset=".0151" stop-color="#186389"/><stop offset=".0558" stop-color="#558ca8"/><stop offset=".0964" stop-color="#89afc3"/><stop offset=".1357" stop-color="#b3ccd8"/><stop offset=".1737" stop-color="#d4e2e9"/><stop offset=".2099" stop-color="#ecf2f5"/><stop offset=".2435" stop-color="#fafcfd"/><stop offset=".2722" stop-color="#fff"/></radialGradient><filter id="U"><feGaussianBlur stdDeviation="1.0394514"/></filter><filter id="V"><feGaussianBlur stdDeviation=".50063244"/></filter><filter id="W"><feGaussianBlur stdDeviation=".4901192"/></filter><filter id="X"><feGaussianBlur stdDeviation=".90565481"/></filter><filter id="Y" height="1.247155" width="1.247155" x="-.123577" y="-.123577"><feGaussianBlur stdDeviation="1.7720846"/></filter><path d="m3.8000066 5.137931.0408162 104.275859h80.3311772c.53 0 1.062846-.18833 1.414-.586l28.988-32.827997c.35116-.397671.586-.884.586-1.414v-69.447862z" filter="url(#U)" opacity=".715069" transform="matrix(.13020834 0 0 .12946429 .255208 .084808)"/><path d="m5.7200056 7.0690671-.0000038 100.4137929 77.8759982-.0001c.53 0 1.039-.211 1.414-.586l27.644-31.765933c.375-.375.58766-.884003.586-1.414v-66.6477599z" filter="url(#V)" opacity=".89589" transform="matrix(.13020834 0 0 .12946429 .255208 .084808)"/><path d="m3.8000066 6.1034482.0408122 103.3103418h80.3311812c.53 0 1.039-.211 1.414-.586 13.296921-8.21061 20.30086-19.267837 28.988-32.827997.375-.375.586-.884.586-1.414v-68.4823448z" filter="url(#U)" opacity=".835616" transform="matrix(.13020834 0 0 .12946429 .255208 .084808)"/><path d="m1.000001.99999999-.0000005 13.00000001h10.1464995c.06625 0 .133008-.02344.17675-.07325l3.6035-4.1035c.043743-.0498116.07325-.1105.07325-.17675v-8.64650001z" fill="url(#T)" stroke-width=".125"/><path d="m2.0848414 2c-.0674095 0-.1223404.0551045-.1223404.1227273l.0375 10.7545457c-.0000005.067746.0549304.122727.1223399.122727h8.9891271c.03218 0 .06374-.01301.08649-.03596l2.766196-1.77889c.022879-.02295.035846-.054491.035846-.086768v-8.9756547c0-.0676228-.054808-.1227273-.122339-.1227273z" fill="url(#S)" stroke-width=".125"/><g transform="matrix(.125 0 0 .125 1 -1)"><path d="m111.414 86.586c.25-.25-26.379-1.586-31.414-1.586-1.654 0-3 1.346-3 3 0 5.035 1.336 31.664 1.586 31.414z" filter="url(#Y)" opacity=".906849"/><path d="m111.414 86.586c.375-.375-21.97-.586-31.414-.586-1.103 0-2 .897-2 2 0 9.444.211 31.789.586 31.414z" filter="url(#X)" opacity=".2"/><path d="m111.414 86.586c.239-.239-21.607.414-31.414.414-.553 0-1 .447-1 1 0 9.807-.653 31.653-.414 31.414z" fill="url(#Q)" filter="url(#W)" opacity=".1"/><path d="m78.586 119.414s11.914-9.914 17.414-15.414 15.414-17.414 15.414-17.414-21.164 1.414-31.414 1.414c0 10.25-1.414 31.414-1.414 31.414z" fill="url(#R)"/></g><g mask="url(#B)" transform="translate(-.5 .15)"><path d="m9.0546875-.17382812c-2.6295717 0-4.832918 1.87009202-5.3417969 4.35546872-.072538.3546227-.1113281.7221496-.1113281 1.0976563 0 3.0051662 2.4479475 5.4531251 5.453125 5.4531251 2.7452995 0 5.0284365-2.0217244 5.3984375-4.669922a.45819179.45819179 0 0 0 -.388672-.515625l-.0098-.00195c.26022-.179112.45316-.4570035.453159-.7773469l-.0059-3.6699219c0-.065756-.0085-.094423-.01367-.12499995-.0029-.0656111-.07127-.12569804-.09375-.1953125a.45819179.45819179 0 0 0 -.152343-.3359375c-.0043-.003885-.0093-.00409-.01367-.007813-.05683-.0484679-.116586-.086847-.171875-.11132813a.45819179.45819179 0 0 0 -.0039-.001953h-.002a.45819179.45819179 0 0 0 -.02148-.009766c-.000541-.00021413-.0014.00021316-.002 0a.45819179.45819179 0 0 0 -.138552-.02929612c-.0032-.00058817-.0065.00054716-.0098 0-.03507-.005933-.0646-.0211435-.101562-.0214844-.263735-.001929-.482326.13556051-.66211.31445313a.45819179.45819179 0 0 0 -.002 0l-.542888.54296877c-.03633-.02784-.071-.063501-.107421-.089844-.933202-.74817096-2.120083-1.20117158-3.4082035-1.20117162zm0 3.86523432c.2713169 0 .5124124.085372.734375.2050782l-.0117187.0117187-.2148438.1777344a.45819179.45819179 0 0 0 -.033203.03125c-.0920864.0925705-.1651323.1905348-.2128908.2832031l.083984-.1152344-.083984.083984c-.113331.1133825-.2103447.2314016-.2636718.4003906-.053327.1689891-.021595.3701067.029297.4882813.039266.091144.1130251.2243066.2519532.328125.138928.1038184.3287893.1601563.5175781.1601563h.6562493c-.201901.635241-.7341884 1.1230471-1.4531243 1.1230468-.642608 0-1.1895418-.3821803-1.4414063-.9296875-.015892-.037478-.029875-.070037-.029297-.068359a.45819179.45819179 0 0 0 -.00586-.017578c.00525.013468-.00607-.020181-.017578-.056641l-.00391-.017578c-.0239693-.0846595-.0423042-.1640895-.050777-.2324217a.45819179.45819179 0 0 0 -.019531-.082031c-.00972-.067955-.019531-.1363832-.019531-.1855469 0-.1115418.010356-.2183445.03125-.3203125.1480101-.7223181.7851191-1.2675783 1.5566401-1.2675784z" fill="#008000" stroke-width=".083242"/><g mask="none" transform="matrix(.08232844 0 0 .08232174 59.933662 17.039446)"><path d="m-617.99512-203c-33.12519 0-60 26.87481-60 60s26.87481 60 60 60c30.28912 0 55.33661-22.21626 59.40625-51.34375l-35.03125-5.03125c-1.62468 11.96113-11.93007 20.96875-24.375 20.96875-13.57163 0-24.59375-11.02212-24.59375-24.59375s11.02212-24.59375 24.59375-24.59375c6.78582 0 12.92129 2.76504 17.375 7.21875l-10.32718 10.32718c-2.05587 2.05587-2.24372 3.30578-1.67961 4.61553.50857 1.18078 1.52073 2.52604 4.20973 2.52604h43.95331c3.84589 0 6.45899-2.65438 6.45899-6.25013l-.0689-44.07802c0-2.48075-.90251-3.84323-2.18147-4.34961-1.31432-.52039-3.03321-.12268-5.10709 1.9512l-10.19531 10.19531c-10.85932-10.85935-25.87487-17.5625-42.43747-17.5625z" fill="url(#c)"/><path d="m-617.99512-203c-33.12519 0-60 26.87481-60 60s26.87481 60 60 60c30.28912 0 55.33661-22.21626 59.40625-51.34375l-35.03125-5.03125c-1.62468 11.96113-11.93007 20.96875-24.375 20.96875-13.57163 0-24.59375-11.02212-24.59375-24.59375s11.02212-24.59375 24.59375-24.59375c6.78582 0 12.92129 2.76504 17.375 7.21875l-10.32718 10.32718c-2.05587 2.05587-2.24372 3.30578-1.67961 4.61553.50857 1.18078 1.52073 2.52604 4.20973 2.52604h43.95331c3.84589 0 6.45899-2.65438 6.45899-6.25013l-.0689-44.07802c0-2.48075-.90251-3.84323-2.18147-4.34961-1.31432-.52039-3.03321-.12268-5.10709 1.9512l-10.19531 10.19531c-10.85932-10.85935-25.87487-17.5625-42.43747-17.5625z" fill="url(#e)" opacity=".797753"/><path d="m-617.99512-203c-33.12519 0-60 26.87481-60 60s26.87481 60 60 60c30.28912 0 55.33661-22.21626 59.40625-51.34375l-35.03125-5.03125c-1.62468 11.96113-11.93007 20.96875-24.375 20.96875-13.57163 0-24.59375-11.02212-24.59375-24.59375s11.02212-24.59375 24.59375-24.59375c6.78582 0 12.92129 2.76504 17.375 7.21875l-10.32718 10.32718c-2.05587 2.05587-2.24372 3.30578-1.67961 4.61553.50857 1.18078 1.52073 2.52604 4.20973 2.52604h43.95331c3.84589 0 6.45899-2.65438 6.45899-6.25013l-.0689-44.07802c0-2.48075-.90251-3.84323-2.18147-4.34961-1.31432-.52039-3.03321-.12268-5.10709 1.9512l-10.19531 10.19531c-10.85932-10.85935-25.87487-17.5625-42.43747-17.5625z" fill="url(#f)" opacity=".689139"/><path d="m-617.99512-203c-33.12519 0-60 26.87481-60 60s26.87481 60 60 60c30.28912 0 55.33661-22.21626 59.40625-51.34375l-35.03125-5.03125c-1.62468 11.96113-11.93007 20.96875-24.375 20.96875-13.57163 0-24.59375-11.02212-24.59375-24.59375s11.02212-24.59375 24.59375-24.59375c6.78582 0 12.92129 2.76504 17.375 7.21875l-10.32718 10.32718c-2.05587 2.05587-2.24372 3.30578-1.67961 4.61553.50857 1.18078 1.52073 2.52604 4.20973 2.52604h43.95331c3.84589 0 6.45899-2.65438 6.45899-6.25013l-.0689-44.07802c0-2.48075-.90251-3.84323-2.18147-4.34961-1.31432-.52039-3.03321-.12268-5.10709 1.9512l-10.19531 10.19531c-10.85932-10.85935-25.87487-17.5625-42.43747-17.5625z" fill="url(#h)"/><path d="m-617.99512-203c-33.12519 0-60 26.87481-60 60s26.87481 60 60 60c30.28912 0 55.33661-22.21626 59.40625-51.34375l-35.03125-5.03125c-1.62468 11.96113-11.93007 20.96875-24.375 20.96875-13.57163 0-24.59375-11.02212-24.59375-24.59375s11.02212-24.59375 24.59375-24.59375c6.78582 0 12.92129 2.76504 17.375 7.21875l-10.32718 10.32718c-2.05587 2.05587-2.24372 3.30578-1.67961 4.61553.50857 1.18078 1.52073 2.52604 4.20973 2.52604h43.95331c3.84589 0 6.45899-2.65438 6.45899-6.25013l-.0689-44.07802c0-2.48075-.90251-3.84323-2.18147-4.34961-1.31432-.52039-3.03321-.12268-5.10709 1.9512l-10.19531 10.19531c-10.85932-10.85935-25.87487-17.5625-42.43747-17.5625z" fill="url(#i)" opacity=".797753"/><path d="m-617.99512-202.7c-33.12519 0-60 26.57481-60 59.7s26.87481 60 60 60c30.28912 0 55.33661-22.21626 59.40625-51.34375l-35.03125-5.03125c-1.62468 11.96113-11.93007 20.96875-24.375 20.96875-13.57163 0-24.59375-11.02212-24.59375-24.59375s11.02212-24.59375 24.59375-24.59375c6.78582 0 12.92129 2.76504 17.375 7.21875l-10.32718 10.32718c-2.05587 2.05587-2.24372 3.30578-1.67961 4.61553.50857 1.18078 1.52073 2.52604 4.20973 2.52604h43.95331c3.84589 0 6.45899-2.65438 6.45899-6.25013l-.0689-44.07802c0-2.48075-.90251-3.84323-2.18147-4.34961-1.31432-.52039-3.03321-.12268-5.10709 1.9512l-10.19531 10.19531c-10.85935-10.85935-25.8749-17.2625-42.4375-17.2625z" fill="url(#j)" filter="url(#m)" opacity=".745318"/><path d="m-564.40137-196.15625.9375 4.375 1.25.875 4-2.625c.24688-1.72375-.35117-3.34743-1.9375-4-1.58634-.65257-3.16128.1267-4.25 1.375z" fill="url(#n)" fill-rule="evenodd" filter="url(#o)" opacity=".820225"/><path d="m117.6875 10.75 2.1875 3.125.5-.125 3.5-.375c.24688-1.723751-.35117-3.347429-1.9375-4.0000001-1.58634-.6525714-3.16128.1267033-4.25 1.3750001z" fill="url(#p)" fill-rule="evenodd" filter="url(#o)" opacity=".820225" transform="matrix(0 1 1 0 -621.72529 -267.26984)"/><path d="m-617.99512-199c-30.9617 0-56 25.0383-56 56s25.0383 56 56 56c26.9329 0 49.12173-18.80675 54.53125-44l-27.125-3.875c-3.43856 11.8973-14.44038 20.46875-27.40625 20.46875-15.73735 0-28.59375-12.8564-28.59375-28.59375s12.8564-28.59375 28.59375-28.59375c7.87242 0 15.05155 3.2078 20.21875 8.375.75946.75141 1.1875 1.77539 1.1875 2.84375s-.42804 2.09234-1.1875 2.84375l-10.625 10.625h43.9375c2.00539 0 2.46875-.59216 2.46875-2.25l-.0937-44.09375-10.625 10.65625c-.75141.75946-1.77539 1.1875-2.84375 1.1875s-2.09234-.42804-2.84375-1.1875c-10.13772-10.13767-24.11044-16.40625-39.5938-16.40625z" fill="url(#r)"/><path d="m-617.99512-199c-30.9617 0-56 25.0383-56 56s25.0383 56 56 56c26.9329 0 49.12173-18.80675 54.53125-44l-27.125-3.875c-3.43856 11.8973-14.44038 20.46875-27.40625 20.46875-15.73735 0-28.59375-12.8564-28.59375-28.59375s12.8564-28.59375 28.59375-28.59375c7.87242 0 15.05155 3.2078 20.21875 8.375.75946.75141 1.1875 1.77539 1.1875 2.84375s-.42804 2.09234-1.1875 2.84375l-10.625 10.625h43.9375c2.00539 0 2.46875-.59216 2.46875-2.25l-.0937-44.09375-10.625 10.65625c-.75141.75946-1.77539 1.1875-2.84375 1.1875s-2.09234-.42804-2.84375-1.1875c-10.13772-10.13767-24.11044-16.40625-39.5938-16.40625z" fill="url(#s)"/><path d="m-617.99512-199c-30.9617 0-56 25.0383-56 56 0 .56787.0145 1.12373.0312 1.6875 5.98947.67765 12.14122 1.15013 18.40625 1.40625-.2707-10.45904 3.67161-20.97492 11.8125-28.78125 15.33932-14.70894 39.72856-14.21432 54.4375 1.125 2.76385 2.8823 4.7566 5.68837 6.5625 9.25l-20.5 10.40625h19.15625c7.9282-2.02663 15.18621-3.43697 22.09375-6.1875l-.0937-39.15625-10.625 10.65625c-.75141.75946-1.77539 1.1875-2.84375 1.1875s-2.09234-.42804-2.84375-1.1875c-10.13767-10.13767-24.11039-16.40625-39.59375-16.40625z" fill="url(#t)"/><path d="m-617.989-198.99749c-30.96169 0-56 25.0383-56 56 .00001.17872-.002.3543 0 .53125.25324-30.7435 25.19598-55.53125 56-55.53125 15.48337 0 29.45608 6.26859 39.59374 16.40625.75142.75947 1.77539 1.1875 2.84375 1.1875 1.06837 0 2.09234-.42803 2.84375-1.1875l10.125-10.15625.49375 37.55c-6.90754 2.75053-14.56555 3.86086-22.49374 5.8875l-18.65625.40625h19.15625c7.92819-2.02663 15.1862-3.43697 22.09374-6.1875l-.0937-38.15625v-1l-.5.5-10.125 10.15625c-.7514.75947-1.77539 1.1875-2.84375 1.1875-1.06835 0-2.09234-.42803-2.84375-1.1875-.0105-.0105-.0208-.0208-.0312-.0312-.0524-.0523-.10367-.10416-.15625-.15625-.5738-.56787-1.15087-1.11515-1.75-1.65625-.0815-.0741-.16804-.1451-.25-.21875-9.91604-8.91018-23.00958-14.34375-37.40624-14.34375zm-.65625 19.21875c-9.23817.25052-18.40344 3.79268-25.59375 10.6875-7.63208 7.31844-11.12755 17.37292-11.3125 27.21875.23988-9.80188 4.18042-19.49406 11.8125-26.8125 13.31613-12.7689 33.45333-14.09805 48.15625-4.1875-6.87906-4.80507-14.98746-7.12523-23.0625-6.90625z" fill="url(#u)"/><g fill="none" stroke-dashoffset="1.0878" stroke-linecap="round" stroke-linejoin="round"><path d="m-618.49512-199c-30.9617 0-56 25.0383-56 56s25.0383 56 56 56c26.9329 0 49.12173-18.80675 54.53125-44l-27.125-3.875c-3.43856 11.8973-14.44038 20.46875-27.40625 20.46875-15.73735 0-28.59375-12.8564-28.59375-28.59375s12.8564-28.59375 28.59375-28.59375c7.87242 0 15.05155 3.2078 20.21875 8.375.75946.75141 1.1875 1.77539 1.1875 2.84375s-.42804 2.09234-1.1875 2.84375l-10.625 10.625h43.9375c2.00539 0 2.46875-.59216 2.46875-2.25l-.0937-44.09375-10.625 10.65625c-.75141.75946-1.77539 1.1875-2.84375 1.1875s-2.09234-.42804-2.84375-1.1875c-10.13771-10.13767-24.11044-16.40625-39.5938-16.40625z" filter="url(#w)" stroke="url(#v)"/><path d="m-618.49512-199c-30.9617 0-56 25.0383-56 56s25.0383 56 56 56c26.9329 0 49.12173-18.80675 54.53125-44l-27.125-3.875c-3.43856 11.8973-14.44038 20.46875-27.40625 20.46875-15.73735 0-28.59375-12.8564-28.59375-28.59375s12.8564-28.59375 28.59375-28.59375c7.87242 0 15.05155 3.2078 20.21875 8.375.75946.75141 1.1875 1.77539 1.1875 2.84375s-.42804 2.09234-1.1875 2.84375l-10.625 10.625h43.9375c2.00539 0 2.46875-.59216 2.46875-2.25l-.0937-44.09375-10.625 10.65625c-.75141.75946-1.77539 1.1875-2.84375 1.1875s-2.09234-.42804-2.84375-1.1875c-10.13771-10.13767-24.11044-16.40625-39.5938-16.40625z" filter="url(#w)" stroke="url(#x)"/></g></g></g><g transform="matrix(.125 0 0 .125 .406008 .136376)"><path d="m4.7443515 33.143064c-1.5261642.0048-3.99181946 1.243011-3.99240826 2.769183v86.996743c.0005934 1.52913 2.47086736 3.9994 3.99999996 4h84.8861668c2.450068-.00089 3.692983-4.17902 1.983411-5.93407l-84.8861672-86.996735c-.5234143-.536181-1.2417045-.837466-1.9910023-.835121zm12.0075915 37.765926 38.753574 36h-38.753574z" fill="url(#E)"/><path d="m4.7443515 33.143064c-1.5261642.0048-3.99181946.239754-3.99240826 1.765926v86.99674c.0005934 1.52913 2.47086736 5.00266 3.99999996 5.00326h84.8861668c2.450068-.00089 3.692983-4.17902 1.983411-5.93407l-84.8861672-86.996735c-.5234143-.536181-1.2417045-.837466-1.9910023-.835121zm12.0075915 37.765926 38.753574 36h-38.753574z" fill="url(#F)"/><path d="m4.7443515 33.143064c-1.5261642.0048-3.99181946 1.378604-3.99240826 2.904776v86.99674c.0005934 1.52913 2.47086736 3.86381 3.99999996 3.86441h84.8861668c2.450068-.00089 3.692983-4.17902 1.983411-5.93407l-84.8861672-86.996735c-.5234143-.536181-1.2417045-.837466-1.9910023-.835121zm12.0075915 37.765926 38.753574 36-38.897392.38467z" fill="url(#G)"/><path d="m3.7599545 30.894267c-1.5704891.0049-2.8411906 1.279112-2.84179695 2.849609v89.523444c.00061456 1.57354 1.27606815 2.849 2.84960945 2.84961h87.351562c2.521216-.00092 3.800225-3.03383 2.041016-4.83985l-87.3515624-89.523438c-.5386162-.551753-1.2777681-.861789-2.0488281-.859375zm11.3722945 39.373888 40.378015 36.386465-40.874838.148z" fill="url(#C)" filter="url(#D)" transform="matrix(.97177617 0 0 .97177617 2.808391 .715728)"/><path d="m4.7443515 33.143064c-1.5261642.0048-3.99181946 1.243011-3.99240826 2.769183v86.996743c.0005934 1.52913 2.47086736 3.9994 3.99999996 4h84.8861668c2.450068-.00089 3.692983-4.17902 1.983411-5.93407l-84.8861672-86.996735c-.5234143-.536181-1.2417045-.837466-1.9910023-.835121zm6.7123425 33.381251 49.012318 45.471675-49.108197.14382z" fill="url(#I)"/><path d="m4.7519435 36.608813v86.300177h.6624021l7.4487014-16h-.271414l.09588-33.010595c-2.9617673-5.421563-3.8847147-26.505795-7.9355695-37.289582z" fill="url(#O)" fill-rule="evenodd"/><path d="m2 36.21875v89.52344h87.351562zm8.232348 27.780825 50.988826 49.394095-51.153792-.00001z" fill="none" filter="url(#N)" stroke="url(#M)" stroke-width="2.058087" transform="matrix(.97177617 0 0 .97177617 2.808391 .715728)"/><path d="m4.7519435 35.912247v86.996743h2.2203575l.3301734-84zm7.9999995 23.751767v3.244976l49.549726 48h-49.549726v2.59523l56-.007z" fill="#fff"/><path d="m4.7519435 35.912247v86.996743h84.8861665zm7.9999995 26.996743 49.549726 48h-49.710036z" fill="url(#J)"/><g fill-rule="evenodd"><path d="m4.7519435 35.912247v55.153991l7.9999995-6.093288v-22.06396l16 13.939383 5.53569-9.939383z" fill="url(#P)"/><path d="m62.301669 110.90899h-1.549726-43.712381l-12.2876185 11.64318v.35682h84.2598265z" fill="url(#L)"/></g></g></svg>