<svg height="16" viewBox="0 0 16 16" width="16" xmlns="http://www.w3.org/2000/svg" xmlns:xlink="http://www.w3.org/1999/xlink"><linearGradient id="a" gradientUnits="userSpaceOnUse" x1="64" x2="64" xlink:href="#c" y1="128" y2="0"/><linearGradient id="b"><stop offset="0" stop-color="#fff"/><stop offset=".59375" stop-color="#fff"/><stop offset=".84375" stop-color="#f1f1f1"/><stop offset=".90625" stop-color="#eaeaea"/><stop offset="1" stop-color="#dfdfdf"/></linearGradient><linearGradient id="c"><stop offset="0" stop-color="#b4b4b6"/><stop offset=".5" stop-color="#9c9ca1"/><stop offset="1" stop-color="#cdcdd1"/></linearGradient><linearGradient id="d" gradientUnits="userSpaceOnUse" x1="64" x2="64" xlink:href="#b" y1="128" y2="0"/><linearGradient id="e" gradientUnits="userSpaceOnUse" x1="63.91441" x2="63.91441" xlink:href="#b" y1="96.199707" y2="31.971474"/><linearGradient id="f" gradientTransform="matrix(1 0 0 4.5000001 -60 -17.490333)" gradientUnits="userSpaceOnUse" x1="56" x2="64" xlink:href="#c" y1="24" y2="24"/><linearGradient id="g" gradientTransform="matrix(1 0 0 4.5000001 -150.50967 -108)" gradientUnits="userSpaceOnUse" x1="56" x2="64" xlink:href="#c" y1="24" y2="24"/><g transform="scale(.125)"><path d="m16 7.96875a8.0317966 8.0317966 0 0 0 -8.03125 8.03125v96a8.0317966 8.0317966 0 0 0 8.03125 8.03125h96a8.0317966 8.0317966 0 0 0 8.03125-8.03125v-96a8.0317966 8.0317966 0 0 0 -8.03125-8.03125z" fill="url(#a)"/><path d="m16 16h96v96h-96z" fill="url(#d)"/><path d="m-4 18.509668h8v144.000002h-8z" fill="url(#f)" transform="matrix(.70710678 -.70710678 .70710678 .70710678 0 0)"/><path d="m-94.509666-72h8v144h-8z" fill="url(#g)" transform="matrix(-.70710678 -.70710678 -.70710678 .70710678 0 0)"/><path d="m16 7.96875a8.0317966 8.0317966 0 0 0 -8.03125 8.03125v96a8.0317966 8.0317966 0 0 0 8.03125 8.03125h96a8.0317966 8.0317966 0 0 0 8.03125-8.03125v-96a8.0317966 8.0317966 0 0 0 -8.03125-8.03125z" fill="url(#a)" transform="matrix(.57127453 0 0 .57127453 27.43843 27.43843)"/><path d="m39.828823 40.000004h48.171177v48.171177h-48.171177z" fill="url(#e)"/></g></svg>