<svg height="16" viewBox="0 0 16 16" width="16" xmlns="http://www.w3.org/2000/svg" xmlns:xlink="http://www.w3.org/1999/xlink"><linearGradient id="a"><stop offset="0" stop-color="#fff"/><stop offset=".59375" stop-color="#fff"/><stop offset=".84375" stop-color="#f1f1f1"/><stop offset=".90625" stop-color="#eaeaea"/><stop offset="1" stop-color="#dfdfdf"/></linearGradient><linearGradient id="b"><stop offset="0" stop-color="#b4b4b6"/><stop offset=".5" stop-color="#9c9ca1"/><stop offset="1" stop-color="#cdcdd1"/></linearGradient><linearGradient id="c" gradientUnits="userSpaceOnUse" x1="64" x2="64" xlink:href="#b" y1="128" y2="0"/><linearGradient id="d" gradientUnits="userSpaceOnUse" x1="5.518158" x2="15.391344" xlink:href="#b" y1="11.867131" y2="11.867131"/><linearGradient id="e" gradientUnits="userSpaceOnUse" x1="96" x2="96" xlink:href="#a" y1="128" y2="0"/><linearGradient id="f" gradientUnits="userSpaceOnUse" x1="48" x2="48" xlink:href="#a" y1="128" y2="0"/><g transform="matrix(.125 0 0 .125 0 -.111913)"><path d="m36.853516.72851562c-9.158162.0109187-17.891461 5.94673218-21.740235 14.19140638-1.979554.892351-3.873803 1.964193-5.5410154 3.355469-.00587.0045-.011725.0091-.017578.01367-8.479148 7.115941-10.53340696 20.466313-5.3476564 30.101564-1.7634454 3.657567-2.7115523 7.714065-2.4785156 11.769531l.00195.0059c.6440602 11.050674 10.1237314 20.671254 20.9492224 22.265585 1.880062 3.597638 4.564373 6.780828 7.955078 9.015625l.0078.0039c9.248885 6.08189 22.628031 4.221617 30.371094-3.509766 4.009036.640803 8.166364.385408 11.984375-1l.0059-.002c10.403133-3.78631 16.901172-15.629902 15.322237-26.458931 2.906848-2.831634 5.184269-6.315413 6.353516-10.203125l.002-.0078c3.174966-10.60454-2.443272-22.888548-12.07036-28.089856-.535255-4.024044-1.971288-7.932941-4.392578-11.19336l-.0059-.0059c-6.609943-8.8794038-19.817178-11.70774787-29.738241-7.0917561-3.548142-1.9735557-7.541768-3.15607896-11.603515-3.16015628-.0059-.00000664-.01172-.00000664-.01758 0zm11.146484 28.52148438a18.75 18.75 0 0 1 18.75 18.75 18.75 18.75 0 0 1 -18.75 18.75 18.75 18.75 0 0 1 -18.75-18.75 18.75 18.75 0 0 1 18.75-18.75zm32.232422 29.269531c-.300978.814282-.675779 1.861648-.845703 2.388672-.331497.646653-1.128439 2.332914-1.41211 2.986328-1.817526-.446229 1.145998-3.289783 2.257813-5.375z" fill="url(#c)"/><path d="m36.863614 8.4746702a16.179616 16.179616 0 0 0 -15.720473 12.4339908 16.179616 16.179616 0 0 0 -6.608288 3.314366 16.179616 16.179616 0 0 0 -1.99271 22.795339 16.179616 16.179616 0 0 0 .966614 1.03725 16.179616 16.179616 0 0 0 -4.0467634 11.658841 16.179616 16.179616 0 0 0 17.0923214 15.211142 16.179616 16.179616 0 0 0 1.409025-.156144 16.179616 16.179616 0 0 0 6.935449 10.20892 16.179616 16.179616 0 0 0 22.408692-4.62859 16.179616 16.179616 0 0 0 .717524-1.223136 16.179616 16.179616 0 0 0 12.329893.533497 16.179616 16.179616 0 0 0 9.669847-20.73757 16.179616 16.179616 0 0 0 -.553943-1.306785 16.179616 16.179616 0 0 0 7.79053-9.56947 16.179616 16.179616 0 0 0 -10.859525-20.140869 16.179616 16.179616 0 0 0 -1.377425-.336457 16.179616 16.179616 0 0 0 -3.024382-11.963695 16.179616 16.179616 0 0 0 -22.641053-3.316226 16.179616 16.179616 0 0 0 -1.091157.903411 16.179616 16.179616 0 0 0 -11.404176-4.7178148zm11.491543 13.6868688a25.891771 25.891771 0 0 1 25.890359 25.892219 25.891771 25.891771 0 0 1 -25.890359 25.890357 25.891771 25.891771 0 0 1 -25.892218-25.890357 25.891771 25.891771 0 0 1 25.892218-25.892219z" fill="url(#f)"/><g fill-rule="evenodd"><path d="m8.1542969 7.6230469c-.12916-.0056913-.2537052.0121602-.3417969.0449219-.2681141.0997121-.3348129.2069021-.3867188.2558593-.0519058.0489573-.0706033.0580469-.03125.0332031l-.4179687.2636719a.76605815.76605815 0 0 0 -.3554687.5917969c-.1365547 1.834262-.2642661 3.493984-.5058594 5.28125-.050422.09642-.1644458.3126-.2890625.539062-.0832605.077475-.169716.180584-.2382813.369141-.0118487.032583-.0233607.062423-.0351562.103516-.011795.041093-.0371908.053571-.0332032.253906.0019938.100167-.0344614.379256.3457032.628906.0097032.006372.0212809.005913.03125.011719h.7871094c.0048995-.00312.0188991-.006827.0234374-.009766.2053837-.13298.1834598-.163507.2089844-.197265.0288648-.038176.0339265-.055448.0527344-.083985.0315416.001825.4106572-.150811.7871094-.21875.4101807-.074025.7714844-.10742.7714844-.107422a.76605815.76605815 0 0 0 .6914062-.710937c.0604976-.899481.0832998-1.783061.0449219-2.664063.5009162.545284.9773451 1.055995 1.2460941 1.449219l-.025391-.039062c.128775.214626.329462.315285.455078.353515s.207438.038077.273438.03711c.131999-.001938.209396-.019669.291015-.039063.16324-.038787.32245-.094454.503906-.162109.362914-.135308.80119-.324625 1.236329-.519531.870278-.389813 1.716797-.802735 1.716797-.802735a.76605815.76605815 0 0 0 -.220704-1.445312c-2.407829-.366428-3.882875-1.86727-6.2167965-3.1250002-.1076801-.0580282-.2399808-.0861058-.3691406-.0917969z" fill="url(#d)" stroke-width=".125" transform="matrix(8 0 0 8 0 .895303)"/><path d="m59.080341 71.847988c-1.119046 15.031515-2.137904 28.721692-4.197429 43.653262 0 0-5.766115 11.19643-4.422938 7.5027 1.343177-3.69374 17.18312-5.15214 17.18312-5.15214 1.023059-15.21089.860828-29.349432-3.055898-43.792353 4.857367 11.069255 18.356131 21.974279 24.546731 31.032163 1.007383 1.67898 27.870923-11.417006 27.870923-11.417006-21.290233-3.239982-33.991311-16.108768-51.715365-25.660111-.886338-.477639-1.694221.983227-2.862162 1.720545z" fill="url(#e)"/></g></g></svg>