<svg height="16" viewBox="0 0 16 16" width="16" xmlns="http://www.w3.org/2000/svg" xmlns:xlink="http://www.w3.org/1999/xlink"><linearGradient id="a" gradientUnits="userSpaceOnUse" x1=".001014" x2="127.99898" y1="64.001122" y2="64.001122"><stop offset="0" stop-color="#b4b4b6"/><stop offset=".5" stop-color="#9c9ca1"/><stop offset="1" stop-color="#cdcdd1"/></linearGradient><linearGradient id="b" gradientUnits="userSpaceOnUse" x1="64" x2="64" y1="128" y2="0"><stop offset="0" stop-color="#fff"/><stop offset=".59375" stop-color="#fff"/><stop offset=".84375" stop-color="#f1f1f1"/><stop offset=".90625" stop-color="#eaeaea"/><stop offset="1" stop-color="#dfdfdf"/></linearGradient><g transform="matrix(.125 0 0 .125 0 -.000141)"><path d="m64.203125.00585938a8.0008 8.0008 0 0 0 -7.964844 6.05468752l-10.035156 40.1425781-40.1425781 10.035156a8.0008 8.0008 0 0 0 0 15.523438l40.1425781 10.035156 10.035156 40.142575a8.0008 8.0008 0 0 0 15.523438 0l10.035156-40.142575 40.142575-10.035156a8.0008 8.0008 0 0 0 0-15.523438l-40.142575-10.035156-10.035156-40.1425781a8.0008 8.0008 0 0 0 -7.558594-6.05468752z" fill="url(#a)"/><path d="m64.000002 120-11.200002-44.8-44.8-11.199998 44.8-11.200002 11.199998-44.8 11.200002 44.8 44.8 11.199998-44.8 11.200002z" fill="url(#b)"/></g></svg>