<svg height="16" viewBox="0 0 16 16" width="16" xmlns="http://www.w3.org/2000/svg" xmlns:xlink="http://www.w3.org/1999/xlink"><linearGradient id="a" gradientUnits="userSpaceOnUse" x1=".998779" x2="15.001221" y1="8" y2="8"><stop offset="0" stop-color="#b4b4b6"/><stop offset=".5" stop-color="#9c9ca1"/><stop offset="1" stop-color="#cdcdd1"/></linearGradient><path d="m4.15625.99804688c-1.692924 0-3.15820313 1.31468082-3.15820312 3.00195312v8c0 1.687273 1.46527912 3.001953 3.15820312 3.001953h7.6875c1.692924 0 3.158203-1.31468 3.158203-3.001953v-8c0-1.6872723-1.465279-3.00195313-3.158203-3.00195312zm0 1.00195312h7.6875c1.194563 0 2.15625.892 2.15625 2v8c0 1.108-.961688 2-2.15625 2h-7.6875c-1.1945625 0-2.15625-.892-2.15625-2v-8c0-1.108.9616875-2 2.15625-2z" fill="url(#a)" stroke-width=".144742"/></svg>