<svg height="16" viewBox="0 0 16 16" width="16" xmlns="http://www.w3.org/2000/svg" xmlns:xlink="http://www.w3.org/1999/xlink"><linearGradient id="a" gradientTransform="matrix(.00049044 .99999988 -.99999988 .00049044 52.004836 1.957334)" gradientUnits="userSpaceOnUse" x1="113.15723" x2="39.268185" xlink:href="#b" y1="25.786163" y2="25.786163"/><linearGradient id="b"><stop offset="0" stop-color="#0968ef"/><stop offset="1" stop-color="#aecffc"/></linearGradient><linearGradient id="c" gradientTransform="matrix(.00049044 .99999988 -.99999988 .00049044 92.004836 1.957334)" gradientUnits="userSpaceOnUse" x1="113.15723" x2="-21.971066" xlink:href="#b" y1="25.786163" y2="27.994064"/><linearGradient id="d" gradientTransform="matrix(.00049044 .99999988 -.99999988 .00049044 131.951042 1.957334)" gradientUnits="userSpaceOnUse" x1="113.15723" x2="-16.176079" xlink:href="#b" y1="25.786163" y2="23.943111"/>




/&amp;amp;amp;gt;<path d="m45.594662 51.084892h-23.920582l-6.55475 18.642731h-8.4275356l22.1329226-62.0573097h10.215195l21.792416 62.0573097h-8.853169zm-2.213292-6.639877-9.534182-28.262039-10.215195 28.262039z" stroke-width="2.128166" transform="scale(.125)"/><g fill-rule="evenodd" transform="matrix(.125 0 0 .125 .5 0)"><path d="m24.063696 121.97105 19.988228-24.00981-3.976796-3.97288-12.021335 7.80464-.0538-29.797-7.999993.004.0538 29.797-11.827726-7.79302-4.174157 3.97689z" fill="url(#a)"/><path d="m64.063696 121.97105 19.988228-24.00981-3.976796-3.97288-12.021335 7.80464-.0538-93.797-7.999993.004.0538 93.797-11.827726-7.79302-4.174157 3.97689z" fill="url(#c)"/><path d="m104.0099 121.97105 19.98823-24.00981-3.9768-3.97288-12.02133 7.80464v-93.793l-7.99999.004v93.793l-11.827762-7.79302-4.174157 3.97689z" fill="url(#d)"/></g></svg>