<?xml version="1.0" encoding="UTF-8" standalone="no"?>
<svg
   viewBox="0 0 14 14"
   version="1.1"
   id="svg8"
   sodipodi:docname="doc_modified_no_14.svg"
   width="14"
   height="14"
   inkscape:export-filename="doc_modified_no_14.png"
   inkscape:export-xdpi="90"
   inkscape:export-ydpi="90"
   inkscape:version="1.2.2 (b0a8486541, 2022-12-01)"
   xmlns:inkscape="http://www.inkscape.org/namespaces/inkscape"
   xmlns:sodipodi="http://sodipodi.sourceforge.net/DTD/sodipodi-0.dtd"
   xmlns="http://www.w3.org/2000/svg"
   xmlns:svg="http://www.w3.org/2000/svg">
  <defs
     id="defs12" />
  <sodipodi:namedview
     id="namedview10"
     pagecolor="#505050"
     bordercolor="#ffffff"
     borderopacity="1"
     inkscape:showpageshadow="0"
     inkscape:pageopacity="0"
     inkscape:pagecheckerboard="1"
     inkscape:deskcolor="#505050"
     showgrid="false"
     inkscape:zoom="23.6"
     inkscape:cx="5.0423729"
     inkscape:cy="5"
     inkscape:window-width="1419"
     inkscape:window-height="764"
     inkscape:window-x="1940"
     inkscape:window-y="184"
     inkscape:window-maximized="0"
     inkscape:current-layer="g6" />
  <g
     transform="rotate(180,7,6)"
     id="g6">
    <path
       d="M 3,1 H 9.3892117 L 11,2.6689307 V 9 H 3 Z"
       fill="#ffffff"
       fill-rule="evenodd"
       id="path2" />
    <path
       d="M 2.5,0 A 0.50005,0.50005 0 0 0 2,0.5 v 9 A 0.50005,0.50005 0 0 0 2.5,10 H 5 9 11.5 A 0.50005,0.50005 0 0 0 12,9.5 v -7 A 0.50005,0.50005 0 0 0 11.853516,2.1464844 L 9.8535156,0.14648438 A 0.50005,0.50005 0 0 0 9.5,0 H 8 5 Z M 3,1 H 4 V 3 C 4,3.554 4.446,4 5,4 H 8 C 8.554,4 9,3.554 9,3 V 1 H 9.2929688 L 11,2.7070312 V 9 H 10 V 7 C 10,6.446 9.554,6 9,6 H 5 C 4.446,6 4,6.446 4,7 V 9 H 3 Z M 5,1 H 7 V 3 H 5 Z M 5,7 H 9 V 9 H 5 Z"
       fill="#5f5f5f"
       id="path4" />
  </g>
</svg>
