<svg height="24" viewBox="0 0 24 24" width="24" xmlns="http://www.w3.org/2000/svg"><path d="m20 .9980469-6 .0019531c-.54701 0-.433161 0 .537109 1l5.462891 5.4707031c1.17188 1.14518 1 1.0683669 1-.4707031v-5.0019531c-.00006-.55226-.44774-.99994-1-1zm-16 .0019531c-.5522619.0000552-.9999448.4477381-1 1v20c.0000552.552262.4477381.999945 1 1h16c.552262-.000055.999945-.447738 1-1v-11c-.000051-.265199-.105433-.519519-.292969-.707031l-9-9.0000002c-.187512-.1875362-.441832-.2929177-.707031-.2929688zm1 2h5.585938l8.414062 8.414062v9.585938h-14z" fill="#555753"/></svg>