<svg viewBox="0 0 24 24" xmlns="http://www.w3.org/2000/svg"><path d="m3 2v1.9023438c.125734.0531991.2526114.1164935.3945312.1777343l1.6054688.6894531v-.7695312h2.28125l.8339844-1 .1171875-.140625c.0780448-.0936472.4026322-.4883088.7207031-.859375zm7 0v1 1h3v3.7382812l.453125.2617188c.262781.1147619.486972.238336.503906.3671875.028921.2200612-.302113.4376035-.68164.6328125h4.724609v7.060547l2 1.599609v-9.660156l-6-6zm-1 1.5-2.5 3-3.5-1.5 2 3.5-2 3.5 3.5-1.5 2.5 3.5v-4l3-1.5-3-1.5zm-6 3.5175781v2.9648438l.8476562-1.4824219zm8.5 4.4824219-1 1 12 11 1.5-2zm-6.5.730469-1 .425781.0019531.001953-.6074219.261719c-.1341286.057879-.2660989.075159-.3945312.076172v10.003906h17v-.988281-.125l-2-1.832031v.945312h-13z" fill="#555753"/></svg>