<svg viewBox="0 0 24 24" xmlns="http://www.w3.org/2000/svg">
  <path
     style="fill:#555753"
     d="M 6.2226562 5 L 1 10.875 L 1 13.125 L 6.2226562 19 L 8 19 L 8 15 L 16 15 L 16 19 L 17.777344 19 L 23 13.125 L 23 10.875 L 17.777344 5 L 16 5 L 16 9 L 8 9 L 8 5 L 6.2226562 5 z M 6 8.8613281 L 6 11 L 18 11 L 18 8.8613281 L 21 12 L 18 15.138672 L 18 13 L 6 13 L 6 15.138672 L 3 12 L 6 8.8613281 z "
     />
  <path
     style="opacity:0.35;fill:#555753"
     d="M 6 8.8613281 L 3 12 L 6 15.138672 L 6 13 L 18 13 L 18 15.138672 L 21 12 L 18 8.8613281 L 18 11 L 6 11 L 6 8.8613281 z "
     />
</svg>
