<svg xmlns="http://www.w3.org/2000/svg" viewBox="0 0 24 24">
  <path
     style="fill:#555753"
     d="M 7 2 L 3 7 L 5 7 L 2 13 L 11 6 L 9 6 L 13 2 L 7. 2 z M 2 3 L 2 6.6484375 L 4.921875 3 L 2 3 z M 13.414062 3 L 11.414062 5 L 13.914062 5 L 14 5 L 14 8 L 10.056641 8 L 8.7714844 9 L 9 9 L 9 12 L 4.9140625 12 L 2.6132812 13.789062 L 2 13.287109 L 2 22 L 22 22 L 22 3 L 13.414062 3 z M 15 5 L 20 5 L 20 8 L 15 8 L 15 5 z M 2 8 L 2 10.763672 L 3.3828125 8 L 2 8 z M 10 9 L 14 9 L 14 12 L 10 12 L 10 9 z M 15 9 L 20 9 L 20 12 L 15 12 L 15 9 z M 4 13 L 9 13 L 9 16 L 4 16 L 4 13 z M 10 13 L 14 13 L 14 16 L 10 16 L 10 13 z M 15 13 L 20 13 L 20 16 L 15 16 L 15 13 z M 4 17 L 9 17 L 9 20 L 4 20 L 4 17 z M 10 17 L 14 17 L 14 20 L 10 20 L 10 17 z M 15 17 L 20 17 L 20 20 L 15 20 L 15 17 z "
     />
</svg>
