<svg xmlns="http://www.w3.org/2000/svg" viewBox="0 0 24 24">
  <path
     style="fill:#555753"
     d="M 11 2 L 11 5.6816406 L 10.71875 5.3105469 C 10.528462 5.1278769 10.256892 5 10 5 L 9 5 L 9 5.4101562 L 9 6 C 9 6.307497 9.0903 6.5503669 9.28125 6.7480469 L 12 10 L 14.71875 6.7480469 C 14.9097 6.5503669 15 6.307497 15 6 L 15 5.4101562 L 15 5 L 14 5 C 13.74311 5 13.471551 5.1278769 13.28125 5.3105469 L 13 5.6816406 L 13 2 L 11 2 z M 3 11 L 3 13 L 20 13 L 20 11 L 3 11 z M 12 14 L 9.28125 17.251953 C 9.0903 17.449633 9 17.692503 9 18 L 9 18.589844 L 9 19 L 10 19 C 10.256892 19 10.528462 18.872123 10.71875 18.689453 L 11 18.318359 L 11 22 L 13 22 L 13 18.318359 L 13.28125 18.689453 C 13.471551 18.872123 13.74311 19 14 19 L 15 19 L 15 18.589844 L 15 18 C 15 17.692503 14.9097 17.449633 14.71875 17.251953 L 12 14 z "
     />
</svg>
