<svg viewBox="0 0 24 24" xmlns="http://www.w3.org/2000/svg">
  <path
     style="fill:#555753"
     d="M 6.875 0 L 1 5.2226562 L 1 7 L 5 7 L 5 17 L 1 17 L 1 18.777344 L 6.875 24 L 9.125 24 L 15 18.777344 L 15 17 L 11 17 L 11 15 L 16.050781 15 L 16.050781 19 L 17.828125 19 L 23.050781 13.125 L 23.050781 10.875 L 17.828125 5 L 16.050781 5 L 16.050781 9 L 11 9 L 11 7 L 15 7 L 15 5.2226562 L 9.125 0 L 6.875 0 z M 8 2 L 11.138672 5 L 9 5 L 9 11 L 18.050781 11 L 18.050781 8.8613281 L 21.050781 12 L 18.050781 15.138672 L 18.050781 13 L 11 13 L 9 13 L 9 19 L 11.138672 19 L 8 22 L 4.8613281 19 L 7 19 L 7 5 L 4.8613281 5 L 8 2 z "
     />
  <path
     style="opacity:0.35;fill:#555753"
     d="M 8 2 L 4.8613281 5 L 7 5 L 7 19 L 4.8613281 19 L 8 22 L 11.138672 19 L 9 19 L 9 13 L 18.050781 13 L 18.050781 15.138672 L 21.050781 12 L 18.050781 8.8613281 L 18.050781 11 L 9 11 L 9 5 L 11.138672 5 L 8 2 z "
     />
</svg>
