<svg viewBox="0 0 24 24" xmlns="http://www.w3.org/2000/svg"><g fill="#555753"><path d="m12 0-3 3h2v8h-8v-2l-3 3 3 3v-2h8v8h-2l3 3 3-3h-2v-8h7v3c4.925172-4.694285 4.582198-3.417802 0-8v3h-7v-8h2z" opacity=".35"/><path d="m10.585938 0-3.585938 3.5859375v1.4140625h2v4h-4v-2h-1.4140625l-.2929687.2929688-3.2929688 3.2929692v2.828124l3.5859375 3.585938h1.4140625v-2h4v4h-2v1.414062l.2929688.292969 3.2929692 3.292969h2.828124l3.585938-3.585938v-1.414062h-2v-4h4v2h1.414062l.292969-.292969 3.292969-3.292969v-2.828124l-3.585938-3.585938h-1.414062v2h-4v-4h2v-1.4140625l-.292969-.2929687-3.292969-3.2929688zm1.414062 1.4140625 1.585938 1.5859375h-.585938v8h8v-.585938l1.585938 1.585938-1.585938 1.585938v-.585938h-8v8h.585938l-1.585938 1.585938-1.585938-1.585938h.585938v-8h-8v.585938l-1.5859375-1.585938 1.5859375-1.585938v.585938h8v-8h-.585938z"/></g></svg>