<svg viewBox="0 0 24 24" xmlns="http://www.w3.org/2000/svg">
  <path
     style="fill:#555753"
     d="M 5 2 L 5 14 C 2.790861 14 1 15.790861 1 18 C 1 20.209139 2.790861 22 5 22 L 10.71875 22 C 10.069086 21.42629 9.5169683 20.75082 9.0839844 20 L 7 20 L 5 20 C 3.8954305 20 3 19.104569 3 18 C 3 16.895431 3.8954305 16 5 16 L 7 16 L 7 4 L 17 4 L 19 4 C 20.104569 4 21 4.8954305 21 6 C 21 7.1045695 20.104569 8 19 8 L 17 8 L 17 8.0703125 C 18.363771 8.2431251 19.660002 8.7644428 20.763672 9.5839844 C 22.130621 8.9124767 22.997637 7.5229798 23 6 C 23 3.790861 21.209139 2 19 2 L 5 2 z M 16 9 C 12.134007 9 9 12.134007 9 16 C 9 19.865993 12.134007 23 16 23 C 19.865993 23 23 19.865993 23 16 C 23 12.134007 19.865993 9 16 9 z M 16 11 C 18.761424 11 21 13.238576 21 16 C 21 18.761424 18.761424 21 16 21 C 13.238576 21 11 18.761424 11 16 C 11 13.238576 13.238576 11 16 11 z M 15 13 L 15 15 L 13 15 L 13 17 L 15 17 L 15 19 L 17 19 L 17 17 L 19 17 L 19 15 L 17 15 L 17 13 L 15 13 z "
     />
</svg>
