<svg viewBox="0 0 24 24" xmlns="http://www.w3.org/2000/svg"><path d="m11 2v3.6816406l-.28125-.3710937c-.190288-.18267-.461858-.3105469-.71875-.3105469h-1v.4101562.5898438c0 .307497.0903.5503669.28125.7480469l2.71875 3.2519531 2.71875-3.2519531c.19095-.19768.28125-.4405499.28125-.7480469v-.5898438-.4101562h-1c-.25689 0-.528449.1278769-.71875.3105469l-.28125.3710937v-3.6816406zm-8 9v2h17v-2zm9 3-2.71875 3.251953c-.19095.19768-.28125.44055-.28125.748047v.589844.410156h1c.256892 0 .528462-.127877.71875-.310547l.28125-.371094v3.681641h2v-3.681641l.28125.371094c.190301.18267.46186.310547.71875.310547h1v-.410156-.589844c0-.307497-.0903-.550367-.28125-.748047z" fill="#555753"/></svg>