<svg viewBox="0 0 24 24" xmlns="http://www.w3.org/2000/svg"><g fill="#555753"><path d="m5 2a3 3 0 0 0 -3 3 3 3 0 0 0 3 3 3 3 0 0 0 2.8261719-2h3.7402341a15 15 0 0 0 -7.2578122 10.085938 3 3 0 0 0 -2.3085938 2.914062 3 3 0 0 0 3 3 3 3 0 0 0 3-3 3 3 0 0 0 -1.6894531-2.697266 13 13 0 0 1 9.9941411-9.9941402 3 3 0 0 0 2.695312 1.6914062 3 3 0 0 0 3-3 3 3 0 0 0 -3-3 3 3 0 0 0 -2.826172 2h-8.3496092a3 3 0 0 0 -2.8242188-2zm0 2a1 1 0 0 1 1 1 1 1 0 0 1 -1 1 1 1 0 0 1 -1-1 1 1 0 0 1 1-1zm14 0a1 1 0 0 1 1 1 1 1 0 0 1 -1 1 1 1 0 0 1 -1-1 1 1 0 0 1 1-1zm-14 14a1 1 0 0 1 1 1 1 1 0 0 1 -1 1 1 1 0 0 1 -1-1 1 1 0 0 1 1-1z"/><path d="m13 6-6 6-1 4v4l-1 2h17v-17l-1 1h-4z" opacity=".35"/></g></svg>