<svg viewBox="0 0 24 24" xmlns="http://www.w3.org/2000/svg"><g fill="#555753"><path d="m3 6a9 11 0 0 0 8 10.917969v-1.917969h1a7 9 0 0 1 -7-9zm9 9h1v1.925781a9 11 0 0 0 8-10.925781h-2a7 9 0 0 1 -7 9z" opacity=".35"/><path d="m3 13a3 3 0 0 0 -3 3 3 3 0 0 0 3 3 3 3 0 0 0 2.8261719-2h3.1738281v2h6v-2h3.175781a3 3 0 0 0 2.824219 2 3 3 0 0 0 3-3 3 3 0 0 0 -3-3 3 3 0 0 0 -2.826172 2h-3.173828v-2h-6v2h-3.1757812a3 3 0 0 0 -2.8242188-2zm0 2a1 1 0 0 1 1 1 1 1 0 0 1 -1 1 1 1 0 0 1 -1-1 1 1 0 0 1 1-1zm8 0h2v2h-2zm10 0a1 1 0 0 1 1 1 1 1 0 0 1 -1 1 1 1 0 0 1 -1-1 1 1 0 0 1 1-1z"/></g></svg>