<svg viewBox="0 0 24 24" xmlns="http://www.w3.org/2000/svg"><path d="m5 1c-2.1972955 0-4 1.8027043-4 4s1.8027045 4 4 4c1.8503027 0 3.4055918-1.284213 3.8554688-3h.390625l3.7929682 13.275391a1.0001 1.0001 0 0 0 .960938.724609h4.822266l-1.509766 1.28125c-.18267.1903-.3125.46186-.3125.71875v1h.414062.585938c.30945 0 .55232-.0903.75-.28125 1.41667-1.07301 2.83333-2.64575 4.25-3.71875l-4.25-3.71875c-.19768-.19095-.44055-.28125-.75-.28125h-.585938-.414062v1c0 .25689.12983.52846.3125.71875l1.509766 1.28125h-4.06836l-3.792968-13.2753906a1.0001 1.0001 0 0 0 -.960938-.7246094h-1.1445312c-.449877-1.715787-2.0051661-3-3.8554688-3zm0 2c1.1164148 0 2 .8835841 2 2s-.8835852 2-2 2-2-.8835841-2-2 .8835852-2 2-2z" fill="#555753"/></svg>