<svg viewBox="0 0 24 24" xmlns="http://www.w3.org/2000/svg"><path d="m5 1c-2.1972955 0-4 1.8027043-4 4s1.8027045 4 4 4c1.8503027 0 3.4055918-1.284213 3.8554688-3h5.6523432l1 .0039062c1.388871.0045401 2.491679 1.1091694 2.492188 2.4980469.000509 1.3888776-1.101368 2.4963989-2.490234 2.5019529l-.509766.001953v-.005859h-5.515625v-.007812l-1 .003906c-2.4671759.008058-4.4834706 2.030858-4.484375 4.498047s2.0152525 4.492092 4.4824219 4.501953l.5175781.001953v.001953h6.144531c.449877 1.715787 2.005166 3 3.855469 3 2.197296 0 4-1.802704 4-4s-1.802704-4-4-4c-1.850303 0-3.405592 1.284213-3.855469 3h-5.6542966l-1-.003906c-1.3888665-.005555-2.4907435-1.111123-2.4902344-2.5.0005091-1.388878 1.1033173-2.4955 2.4921875-2.5l.5078125-.001953v.005859h5.517578v.007812l1-.003906c2.467168-.00987 4.483326-2.034764 4.482422-4.5019529s-2.017199-4.489989-4.484375-4.4980469l-.515625-.0019531v-.0019531h-6.1445312c-.449877-1.715787-2.0051661-3-3.8554688-3zm0 2c1.1164148 0 2 .8835841 2 2s-.8835852 2-2 2-2-.8835841-2-2 .8835852-2 2-2zm14 14c1.116415 0 2 .883584 2 2s-.883585 2-2 2-2-.883584-2-2 .883585-2 2-2z" fill="#555753"/></svg>