<svg xmlns="http://www.w3.org/2000/svg" viewBox="0 0 24 24">
  <path
     style="fill:#555753"
     d="M 11 2 L 11 2.0195312 L 7.3632812 9 L 1 9 L 6.4550781 14.441406 L 4 22 L 11 18.861328 L 18 22 L 20 22 L 20 20 L 18 20 L 18 18 L 16.703125 18 L 16.056641 16 L 18 16 L 18 14 L 16 14 L 17.982422 12 L 18 12 L 18 11.982422 L 19.994141 10 L 20 10 L 20 9.9941406 L 21 9 L 20 9 L 20 8 L 18 8 L 18 9 L 16 9 L 16 8 L 14.119141 8 L 14 7.7714844 L 14 6 L 13.082031 6 L 12.046875 4 L 14 4 L 14 2 L 11.009766 2 L 11 2 z M 14 4 L 14 6 L 16 6 L 16 4 L 14 4 z M 16 4 L 18 4 L 18 2 L 16 2 L 16 4 z M 18 4 L 18 6 L 20 6 L 20 4 L 18 4 z M 20 4 L 22 4 L 22 2 L 20 2 L 20 4 z M 20 6 L 20 8 L 22 8 L 22 6 L 20 6 z M 18 6 L 16 6 L 16 8 L 18 8 L 18 6 z M 20 10 L 20 12 L 22 12 L 22 10 L 20 10 z M 20 12 L 18 12 L 18 14 L 20 14 L 20 12 z M 20 14 L 20 16 L 22 16 L 22 14 L 20 14 z M 20 16 L 18 16 L 18 18 L 20 18 L 20 16 z M 20 18 L 20 20 L 22 20 L 22 18 L 20 18 z "
     />
</svg>
