<svg xmlns="http://www.w3.org/2000/svg" viewBox="0 0 24 24">
  <path
     style="fill:#555753"
     d="M 10 1 C 6.686292 1 4 3.6862915 4 7 L 4 7.5625 L 1.71875 5.28125 C 1.53057 5.1 1.26531 5 1 5 L 0 5 L 0 6 C 0 6.26529 0 6.53057 0.28125 6.71875 L 4.28125 10.71875 L 4.5625 11 L 5.4375 11 L 5.71875 10.71875 L 9.71875 6.71875 C 9.9 6.53058 10 6.424264 10 6 L 10 5 L 9 5 C 8.7347 5 8.46942 5.1 8.28125 5.28125 L 6 7.5625 L 6 7 C 6 4.790861 7.790861 3 10 3 C 12.209139 3 14 4.790861 14 7 L 16 7 C 16 3.6862915 13.313708 1 10 1 z M 19 2 A 3 3 0 0 0 16 5 A 3 3 0 0 0 18 7.8261719 L 18 16.175781 C 17.147427 16.477508 16.476467 17.14775 16.173828 18 L 11.824219 18 C 11.423599 16.866682 10.385182 16.081912 9.1855469 16.005859 L 8.0410156 12 L 5.9609375 12 L 7.2617188 16.556641 C 6.4706535 17.119035 6.0005544 18.029397 6 19 C 6 20.656854 7.3431458 22 9 22 C 10.270521 21.999045 11.402665 21.197859 11.826172 20 L 16.175781 20 C 16.599048 21.197185 17.730196 21.998218 19 22 C 20.656854 22 22 20.656854 22 19 C 21.999045 17.729479 21.197859 16.597335 20 16.173828 L 20 7.8242188 A 3 3 0 0 0 22 5 A 3 3 0 0 0 19 2 z M 19 4 A 1 1 0 0 1 20 5 A 1 1 0 0 1 19 6 A 1 1 0 0 1 18 5 A 1 1 0 0 1 19 4 z M 9 18 C 9.5522847 18 10 18.447715 10 19 C 10 19.552285 9.5522847 20 9 20 C 8.4477153 20 8 19.552285 8 19 C 8 18.447715 8.4477153 18 9 18 z M 19 18 C 19.552285 18 20 18.447715 20 19 C 20 19.552285 19.552285 20 19 20 C 18.447715 20 18 19.552285 18 19 C 18 18.447715 18.447715 18 19 18 z "
     />
</svg>
