<svg viewBox="0 0 24 24" xmlns="http://www.w3.org/2000/svg"><path d="m5 1c-2.197296 0-4 1.802704-4 4s1.802704 4 4 4c1.850303 0 3.4055918-1.284213 3.8554688-3h.390625l3.7929682 13.275391c.122876.428807.514873.724399.960938.724609h1.144531c.449877 1.715787 2.005166 3 3.855469 3 2.197295 0 4-1.802704 4-4s-1.802705-4-4-4c-1.850303 0-3.405592 1.284213-3.855469 3h-.390625l-3.792968-13.2753906c-.122876-.428807-.514873-.7244004-.960938-.7246094h-1.1445312c-.449877-1.715787-2.0051658-3-3.8554688-3zm14 16c1.116415 0 2 .883584 2 2s-.883585 2-2 2-2-.883584-2-2 .883585-2 2-2z" fill="#555753"/></svg>