<svg xmlns="http://www.w3.org/2000/svg" viewBox="0 0 24 24">
  <path
     style="fill:#555753"
     d="M 1 2 L 1 5 L 3 5 L 3 18 L 8 18 L 5 21 L 5 22 L 7 22 L 11 18 L 11.849609 18 C 12.33941 17.187648 13.01623 16.505558 13.824219 16 L 5 16 L 5 5 L 19 5 L 19 8.5605469 C 20.187528 9.2568566 21 10.533381 21 12 L 21 5 L 23 5 L 23 2 L 1 2 z M 21 12 C 21 13.455083 20.17273 14.683594 19 15.382812 L 19 15.412109 C 19.747453 15.681579 20.419228 16.100485 21 16.617188 L 21 12 z M 7 6 L 7 8 L 17 8 L 17 6 L 7 6 z M 7 9 L 7 14 L 10 14 L 10 9 L 7 9 z M 12 9 L 12 14 L 13.576172 14 C 13.384207 13.691948 13.23737 13.356946 13.138672 13 L 13 13 L 13 12 L 13 10 L 13.560547 10 C 13.782006 9.6223096 14.060408 9.2864514 14.388672 9 L 12 9 z M 17 9 C 15.343146 9 14 10.343146 14 12 C 14 13.656854 15.343146 15 17 15 C 18.656855 15 20 13.656854 20 12 C 20 10.343146 18.656855 9 17 9 z M 8 10 L 9 10 L 9 13 L 8 13 L 8 10 z M 17 11 C 17.552285 11 18 11.447715 18 12 C 18 12.552284 17.552285 13 17 13 C 16.447716 13 16 12.552284 16 12 C 16 11.447715 16.447716 11 17 11 z M 17 16 C 14.238577 16 12 18.238576 12 21 L 12 23 L 22 23 L 22 21.058594 C 22.000114 21.039064 22.000114 21.01953 22 21 C 22 18.238576 19.761424 16 17 16 z M 17 18 C 18.656855 18 20 19.343146 20 21 L 14 21 C 14 19.343146 15.343146 18 17 18 z "
     />
</svg>
