<svg xmlns="http://www.w3.org/2000/svg" viewBox="0 0 24 24">
  <path
     style="opacity:0.35;fill:#555753"
     d="M 4 2 A 9 11 0 0 0 12 12.917969 L 12 11 L 13 11 A 7 9 0 0 1 6 2 L 4 2 z M 14 11.082031 L 14 13 L 13 13 A 7 9 0 0 1 20 22 L 22 22 A 9 11 0 0 0 14 11.082031 z "
     />
  <path
     style="fill:#555753"
     d="M 10 9 L 10 15 L 16 15 L 16 9 L 10 9 z M 12 11 L 14 11 L 14 13 L 12 13 L 12 11 z M 1 13 L 1 15 A 4 4 0 0 0 5 19 L 8.6835938 19 L 6.3125 21.28125 C 6.12983 21.471551 6 21.775978 6 22 L 6 23 L 6.4121094 23 L 7 23 C 7.30945 23 7.55232 22.9097 7.75 22.71875 C 8.766078 21.949156 11.274849 19.397651 12 18.779297 L 12 17.164062 L 7.75 13.28125 C 7.55232 13.0903 7.30945 13 7 13 L 6.4121094 13 L 6 13 L 6 14 C 6 14.256892 6.12983 14.528462 6.3125 14.71875 L 8.6835938 17 L 5 17 A 2 2 0 0 1 3 15 L 3 13 L 1 13 z "
     />
</svg>
