<svg viewBox="0 0 24 24" xmlns="http://www.w3.org/2000/svg"><g fill="#2e3436"><path d="m8.4941406 9.0058594c-4.1366858 0-7.4902344 3.3538586-7.4902344 7.4902346s3.3535486 7.488281 7.4902344 7.488281c3.0894444 0 5.7416424-1.869391 6.8867184-4.539063-.176603.010184-.353501.017948-.548828-.017578-.473437-.086003-.914617-.247068-1.308593-.46875-.91012 1.86408-2.823038 3.148438-5.0371099 3.148438-3.0947369 0-5.6035156-2.508929-5.6035156-5.603516-.000069-3.094537 2.5087787-5.601562 5.6035156-5.601562 1.7238509 0 3.2650659.777951 4.2929689 2.001953a1.006978 1.006978 0 0 1 1.576172.210937l1.068359 1.890625c.029981-.008048.02742.000406.070313-.023437l.296875-.171875c-.765081-3.324309-3.740168-5.8046876-7.2968754-5.8046876zm0 4.5058596c-1.6480883 0-2.984375 1.336426-2.984375 2.984375 0 1.647988 1.3362867 2.982422 2.984375 2.982422 1.6481184 0 2.9843754-1.334434 2.9843754-2.982422 0-1.647949-1.336257-2.984375-2.9843754-2.984375z"/><path d="m13 0c-1.644694 0-3 1.3553048-3 3v5.1367188a8.5 8.5 0 0 1 2 .6191406v-5.7558594c0-.0832338.011977-.1619854.029297-.2382812.0049-.019974.011658-.0391188.017578-.0585938.0036-.011554.005966-.0236294.009766-.0351562.09816-.2963737.324814-.5205061.623047-.6152344.021808-.00735.043936-.0136683.066406-.0195313.08099-.0197471.164862-.0332031.253906-.0332031h8c.42194 0 .766859.2334987.917969.5859375l-.003907.0058594c.055303.1242442.085938.2630181.085938.4082031v2.5214844 5.4785156c0 .571287-.428713 1-1 1h-1.373047c.299944.265915.553165.576758.748047.921875.188453.333732.318601.698241.392578 1.078125h.232422c1.644694 0 3-1.355306 3-3v-8c0-1.6446952-1.355306-3-3-3z"/><path d="m21.978516 2.7910156-5.027344 5.7460938-2.244141-2.2441406c-.390509-.3904194-1.023553-.3904194-1.414062 0-.39172.3907292-.39172 1.0252864 0 1.4160156l3 2.9999996c.409239.40983 1.079958.387394 1.460937-.04883l4.246094-4.8535134v-.2851562-2.5214844c0-.071277-.0074-.1417587-.02148-.2089844z"/><path d="m16.872073 12.00062c-.20041.002-.40137.0177-.59765.043l1.17187 2.07422c.24106.42608-.0291.91543-.54101 1.21094l-.92383.53512c-.51662.28718-1.0914.24857-1.33203-.17773l-1.17188-2.07422c-.24822.30741-.47543.64891-.61718 1.01758-.67846 1.76471.28457 3.46965 2.15039 3.80859.38982.0709.80079.0545 1.19336.004.0316-.005 2.627917 4.55388 2.627917 4.55388l4.16797.004-3.969717-6.12224c.24817-.30741.44612-.65279.58789-1.02149.67841-1.76466-.28462-3.46964-2.15039-3.80859-.19492-.0354-.39529-.0484-.59571-.0469z" stroke-width="3"/></g></svg>