<svg xmlns="http://www.w3.org/2000/svg" viewBox="0 0 24 24">
  <path
     style="fill:#555753"
     d="M 3,2 C 2.446,2 2,2.446 2,3 v 6 c 0,0.554 0.446,1 1,1 h 6 c 0.554,0 1,-0.446 1,-1 V 3 C 10,2.446 9.554,2 9,2 Z m 13,0 v 1 c 0,0.2653 0.0931,0.53058 0.28125,0.71875 L 17.5625,5 H 12 v 2 h 5.5625 L 16.28125,8.28125 C 16.09314,8.46943 15.99996,8.73469 16,9 v 1 h 1 c 0.26529,0 0.53057,-0.09304 0.71875,-0.28125 l 3,-3 L 21,6.4375 v -0.875 l -0.28125,-0.28125 -3,-3 C 17.53058,2.09311 17.26531,2.0000302 17,2 Z M 4,4 H 8 V 8 H 4 Z m 1,8 v 5.5625 L 3.71875,16.28125 C 3.53057,16.09314 3.26531,15.99996 3,16 H 2 v 1 c 0,0.26529 0.09304,0.53057 0.28125,0.71875 l 3,3 L 5.5625,21 h 0.875 l 0.28125,-0.28125 3,-3 C 9.90689,17.53058 9.99997,17.26531 10,17 V 16 H 9 C 8.7347,16 8.46942,16.0931 8.28125,16.28125 L 7,17.5625 V 12 Z m 7,0 v 1.707031 L 14.792969,16.5 12,19.292969 V 21 h 1.707031 L 16.5,18.207031 19.292969,21 H 21 V 19.292969 L 18.207031,16.5 21,13.707031 V 12 H 19.292969 L 16.5,14.792969 13.707031,12 Z"
     />
</svg>
