<svg viewBox="0 0 24 24" xmlns="http://www.w3.org/2000/svg"><g fill="#555753"><path d="m8 9-5 5v6h18v-3l-2.498047-2.46875-3.0625 2.830078z" opacity=".35"/><path d="m18 1v6.5625l-2.28125-2.28125c-.18818-.18811-.45344-.28129-.71875-.28125h-1v1c0 .26529.09304.53057.28125.71875l4 4 .28125.28125h.875l.28125-.28125 4-4c.18814-.18817.28122-.45344.28125-.71875v-1h-1c-.2653 0-.53058.0931-.71875.28125l-2.28125 2.28125v-6.5625zm-17 1v20h22v-12.1484375l-2 1.9999995v4.441407l-2.5-2.5-2.976562 2.976562-7.5000005-8.4999998-5.0234375 5.0234378v-9.292969h13v-2zm6.9765625 7.7304688 6.8378905 7.7480472-2.814453 2.521484h-9v-5zm10.5234375 5.4765622 2.5 2.5v2.292969h-7.292969z"/></g></svg>