<svg xmlns="http://www.w3.org/2000/svg" viewBox="0 0 24 24">
  <path
     d="m12 2-9.53125 13.476625c-.3030738.4775-.46875.995625-.46875 1.523375 0 2.761375 4.4771525 5 10 5 5.522847 0 10-2.238625 10-5 0-.604-.232441-1.182625-.625-1.71875z"
     style="fill:#555753;opacity:0.35" />
  <path
     style="fill:#555753"
     d="M 12 2 L 2.46875 15.476562 C 2.1656762 15.954062 2 16.47225 2 17 C 2 19.761375 6.4771525 22 12 22 C 17.522847 22 22 19.761375 22 17 C 22 16.396 21.767559 15.817375 21.375 15.28125 L 12 2 z M 11.998047 5.4667969 L 19.751953 16.449219 L 19.761719 16.462891 C 19.971328 16.749214 20 16.909115 20 17 C 20 17.299788 19.621469 18.023245 18.175781 18.746094 C 16.730094 19.468942 14.491198 20 12 20 C 9.5088022 20 7.2699062 19.468942 5.8242188 18.746094 C 4.3785312 18.023245 4 17.299788 4 17 C 4 16.891812 4.030206 16.753011 4.15625 16.552734 C 4.1574 16.550934 4.1570371 16.550628 4.1582031 16.548828 L 11.998047 5.4667969 z "
     />
</svg>
