<svg viewBox="0 0 24 24" xmlns="http://www.w3.org/2000/svg"><path d="m1 2v1c0 .224022.12983.528449.3125.71875l.3710938.28125 2.3164062 2-2.3164062 2-.3710938.28125c-.18267.190288-.2899208.4628522-.3125.71875v1h.4121094.5878906c.30945 0 .55232-.0903.75-.28125l3.25-2.882812v-1.615235c-.725151-.618354-2.233922-2.169859-3.25-2.939453-.19768-.19095-.4478542-.3480873-.75-.28125h-.5878906zm7 2v18h14v-18zm2 2h4v2h-4zm6 0h4v2h-4zm-6 4h4v2h-4zm6 0h4v2h-4zm-6 4h4v2h-4zm6 0h4v2h-4zm-6 4h4v2h-4zm6 0h4v2h-4z" fill="#555753"/></svg>