<svg viewBox="0 0 24 24" xmlns="http://www.w3.org/2000/svg"><path d="m5 2v16.9l-2.3007812-2.5875c-.1715502-.18267-.4424148-.3125-.6992188-.3125h-1v.400391.599609c0 .3.1007815.55232.3007812.75.7 1.024166 2.7992188 3.25 3.6992188 4.25h2l3.699219-4.25c.2-.19768.300781-.45.300781-.75v-.599609-.400391h-1c-.25689 0-.5276786.12983-.6992188.3125l-2.3007812 2.5875v-16.9zm3 0v1l2 2 2-2v-1zm5 0v1l2 2 2-2v-1zm5 0v1l2 2 2-2v-1zm-9 4c-.552262.00006-1 .4477977-1 1v1c.01563 1.0155238.11647.8958418 1 2l4 4.998047h4l4-4.998047c.88353-1.1041582 1-1.0001045 1-2v-1c0-.5522023-.447738-.99994-1-1zm4 9.998047v5.001953c.000351.890547 1.077037 1.336525 1.707031.707031l2-2c.187536-.187491.292969-.441859.292969-.707031v-3.001953z" fill="#555753"/></svg>