<svg xmlns="http://www.w3.org/2000/svg" viewBox="0 0 24 24">
 <path
     style="fill:#555753"
     d="M 2,2 V 21 H 12 C 10.717153,21 9.6104834,20.152769 9.1894531,19 H 8 V 16 H 9 V 15 H 8 v -3 h 3 v 0.1875 c 0.315317,-0.115179 0.649128,-0.189453 1,-0.189453 V 11 10 8 h 3 v 2 h 1 V 8 h 3 v 2 h 2 V 2 H 20 Z M 4,4 H 7 V 7 H 4 Z m 4,0 h 3 V 7 H 8 Z m 4,0 h 3 v 3 h -3 z m 4,0 h 3 V 7 H 16 Z M 4,8 h 3 v 3 H 4 Z m 4,0 h 3 v 3 H 8 Z m -4,4 h 3 v 3 H 4 Z m 10,0 v 1 h 5 v -1 z m -2,1.998047 c -0.55228,0 -1,0.447934 -1,1 V 18 c 0,0.552055 0.44772,1 1,1 h 1 v -2 h 7 v 2 h 1 c 0.55228,0 1.000001,-0.447945 1,-1 v -3.001953 c 0,-0.12495 -0.03906,-0.257857 -0.09375,-0.375 -0.10121,-0.239182 -0.29197,-0.430082 -0.53125,-0.53125 -0.11719,-0.05468 -0.25,-0.09375 -0.375,-0.09375 z M 4,16 h 3 v 3 H 4 Z m 10,2 v 4 h 5 v -4 z"
     />
 <path
     style="fill:#555753;opacity:0.35"
     d="M 4,4 V 7 H 7 V 4 Z m 4,0 v 3 h 3 V 4 Z m 4,0 v 3 h 3 V 4 Z M 4,8 v 3 H 7 V 8 Z m 4,0 v 3 h 3 V 8 Z m 4,0 v 2 h 3 V 8 Z m -8,4 v 3 h 3 v -3 z m 4,0 v 3 h 1 v -0.002 C 9,13.715464 9.8471647,12.608607 11,12.1875 V 12 Z"
     />
 </svg>
