<svg xmlns="http://www.w3.org/2000/svg" viewBox="0 0 24 24">
  <path
     style="fill:#555753"
     d="M 12 2 C 6.4771525 2 2 4.2385763 2 7 L 2 17 C 2 19.238908 4.9426494 21.134425 9 21.771484 L 9 19.777344 C 6.0709404 19.331816 4 18.258268 4 17 L 4 14.990234 C 5.2672814 15.839398 7.0275649 16.447367 9 16.759766 L 9 14.777344 C 6.0709404 14.331816 4 13.258268 4 12 L 4 9.9902344 C 5.8844525 11.252944 8.8489864 11.997697 12 12 C 15.151014 11.9977 18.115548 11.252944 20 9.9902344 L 20 13 L 22 13 L 22 7 C 22 4.2385763 17.522847 2 12 2 z M 12 4 C 16.418278 4 20 5.3431458 20 7 C 20 8.6568542 16.418278 10 12 10 C 7.581722 10 4 8.6568542 4 7 C 4 5.3431458 7.581722 4 12 4 z M 11 14 C 10.446 14 10 14.446 10 15 L 10 22 C 10 22.554 10.446 23 11 23 L 22 23 C 22.554 23 23 22.554 23 22 L 23 15 C 23 14.446 22.554 14 22 14 L 11 14 z M 17 15 L 18 15 L 18 17 L 20 17 C 21.10457 17 22 18.119288 22 19.5 C 22 20.880712 21.10457 22 20 22 L 18 22 L 17 22 L 17 15 z M 12 17 L 15 17 C 15.552285 17 16 17.447715 16 18 L 16 22 L 15.5 22 L 12.5 22 C 11.671573 22 11 21.328427 11 20.5 C 11 19.671573 11.671573 19 12.5 19 L 15 19 L 15 18 L 12 18 L 12 17 z M 18 18 L 18 21 L 20 21 C 20.552285 21 21 20.328427 21 19.5 C 21 18.671573 20.552285 18 20 18 L 18 18 z M 12.5 20 C 12.223858 20 12 20.223858 12 20.5 C 12 20.776142 12.223858 21 12.5 21 L 15 21 L 15 20 L 12.5 20 z "
     />
</svg>
