<svg viewBox="0 0 24 24" xmlns="http://www.w3.org/2000/svg"><g fill="#2e3436"><path d="m5 3c-1.6619932 0-3 1.3380068-3 3v12c0 1.661992 1.3380068 3 3 3h4.0429688c.0944311-.543426.351152-1.050421.7460937-1.445312l.5546875-.554688h-4.84375c-.8309976 0-1.5-.669003-1.5-1.5v-11c0-.8309976.6690024-1.5 1.5-1.5h13c.830997 0 1.5.6690024 1.5 1.5v2.9726562c.484451-.3022689 1.021692-.4620739 1.541016-.46875h.001953c.095388-.0013177.200614.0020213.318359.0136719.001442.0001427.002461-.0001456.003906 0 .045293.0042997.090074.0114879.134766.0175781v-3.0351562c0-1.6619932-1.338008-3-3-3zm1.5 3c-.8284247 0-1.5.6715753-1.5 1.5s.6715753 1.5 1.5 1.5 1.5-.6715753 1.5-1.5-.6715753-1.5-1.5-1.5zm3.5 1v2h9v-2zm-3.5 3c-.8284247 0-1.5.671576-1.5 1.5s.6715753 1.5 1.5 1.5 1.5-.671576 1.5-1.5-.6715753-1.5-1.5-1.5zm3.5 1v2h6.347656l2.001953-2zm-5 4v3h6.34375l3.001953-3zm17 1.662109-4.341797 4.337891h1.341797c1.661992 0 3-1.338008 3-3z"/><path d="m21.554571 10.003178c-.49097.006-.9906.19654-1.4326.63855l-9.625681 9.619612c-.31768.31764-.4962.74845-.49629 1.19769v2.54097h2.54097c.44924-.00008.88005-.1786 1.1977-.49629l9.625691-9.619602c1.51544-1.51544.07-3.71839-1.5997-3.87266-.0695-.007-.13995-.009-.21008-.008zm-1.50539 3.05545.89828.89827-.44831.44996-7.084711 7.078642-.44997.44831-.89828-.89827.44831-.44997 7.084721-7.078632z" stroke-width=".999998"/></g></svg>