<svg viewBox="0 0 24 24" xmlns="http://www.w3.org/2000/svg"><g fill="#2e3436"><path d="m9 4v3h-5v1h5v3h-5v1h5v3h-5v1h5v4h2v-4h9v-1h-9v-3h9v-1h-9v-3h9v-1h-9v-3z"/><path d="m5 4c-.5712994 0-1 .4287006-1 1v2h5v-3zm-1 4v4h5v-4zm0 4v3h5v-3zm0 4v3c0 .571299.4287006 1 1 1h4v-4z" opacity=".35"/><path d="m5 2c-1.6447 0-3 1.3553-3 3v14c0 1.6447 1.3553 3 3 3h14c1.6447 0 3-1.3553 3-3v-14c0-1.6447-1.3553-3-3-3zm0 2h14c.5713 0 1 .4287 1 1v14c0 .5713-.4287 1-1 1h-14c-.5713 0-1-.4287-1-1v-14c0-.5713.4287-1 1-1z"/></g></svg>