<svg viewBox="0 0 24 24" xmlns="http://www.w3.org/2000/svg"><g fill="#555753"><path d="m14.412157 10.677509-3.027344 2.501954c-.260249.203004-.376587.512079-.367187.820312h-.01758v3c.000368.554-.446 1-1 1s-.999632-.446-1-1v-3c-.000494-.743495.233705-1.1 1-1.435547z" opacity=".35"/><path d="m3 3c-.554 0-1 .446-1 1v16c0 .554.446 1 1 1h11.744141l-1.490235-2h-9.253906v-14h16v5.994141l2 2.683593v-9.677734c0-.554-.446-1-1-1zm14 5v6c0 .552285.447715 1 1 1s1-.447715 1-1v-6zm-1 1.3671875-4.615234 3.8125005c-.426586.332751-.510683.948932-.1875 1.382812l5.25 7.048828c.323183.433881.92693.514393 1.353515.181641l4.81836-3.976563c.426585-.332752.508727-.950885.185547-1.384765l-2.804688-3.763672v1.332031c0 1.092725-.907275 2-2 2s-2-.907275-2-2z"/></g></svg>