<svg xmlns="http://www.w3.org/2000/svg" viewBox="0 0 24 24">
  <path
     style="fill:#555753"
     d="M 1,2 V 3 C 1,3.224022 1.12983,3.528449 1.3125,3.71875 L 1.6835938,4 4,6 1.6835938,8 1.3125,8.28125 C 1.12983,8.471538 1.0225792,8.7441022 1,9 v 1 H 1.4121094 2 C 2.30945,10 2.55232,9.9097 2.75,9.71875 L 6,6.835938 V 5.220703 C 5.274849,4.602349 3.766078,3.050844 2.75,2.28125 2.55232,2.0903 2.3021458,1.9331627 2,2 H 1.4121094 Z M 8,4 V 22 H 22 V 4 Z m 2,2 h 4 v 2 h -4 z m 6,0 h 4 v 2 h -4 z m -6,4 h 4 v 2 h -4 z m 6,0 h 4 v 2 h -4 z m -6,4 h 4 v 2 h -4 z m 6,0 h 4 v 2 h -4 z m -6,4 h 4 v 2 h -4 z m 6,0 h 4 v 2 h -4 z"
     />
</svg>
