<svg xmlns="http://www.w3.org/2000/svg" viewBox="0 0 24 24">
 <path
     style="fill:#555753"
     d="m 13,2 v 1 8 h 9 V 10 C 22,7.8785977 21.156337,5.8437784 19.65625,4.34375 18.156163,2.8437216 16.121402,1.9999165 14,2 Z m 2,2.1992188 c 1.210288,0.2100583 2.361673,0.6781143 3.242188,1.5585937 C 19.122702,6.6382919 19.590675,7.78972 19.800781,9 H 15 Z"
     />
 <path
     style="fill:#555753;opacity:0.35"
     d="M 10.666016 6.4003906 C 7.2156422 6.4003905 4.0995632 8.4852353 2.78125 11.673828 C 1.4629367 14.862421 2.1956966 18.538025 4.6386719 20.974609 C 7.0816472 23.411195 10.762136 24.137206 13.947266 22.810547 C 17.132395 21.483887 19.208256 18.360518 19.199219 14.910156 L 19.197266 13.84375 L 18.130859 13.847656 L 11.732422 13.865234 L 11.732422 6.4003906 L 10.666016 6.4003906 z M 9.5996094 8.6933594 L 9.5996094 13.867188 L 9.5996094 16.001953 L 9.5996094 21.234375 C 8.3205412 21.017709 7.1091671 20.42306 6.1484375 19.464844 C 4.3123998 17.633609 3.7611643 14.884694 4.7519531 12.488281 C 5.6021273 10.431972 7.4570694 9.0604489 9.5996094 8.6933594 z "
     />
 </svg>
