<svg xmlns="http://www.w3.org/2000/svg" viewBox="0 0 24 24">
  <path
     style="fill:#555753"
     d="M 3 1 C 2.446 1 2 1.446 2 2 L 2 21 C 2 21.554 2.446 22 3 22 L 9 22 L 9 20 L 5 20 L 5 18 L 9 18 L 9 17 L 5 17 L 5 15 L 9 15 L 9 14 L 5 14 L 5 12 L 19 12 L 19 13 L 22 13 L 22 2 C 22 1.446 21.554 1 21 1 L 3 1 z M 5 3 L 18 3 L 18 5 L 5 5 L 5 3 z M 5 6 L 19 6 L 19 8 L 5 8 L 5 6 z M 5 9 L 19 9 L 19 11 L 5 11 L 5 9 z M 11 14 C 10.446 14 10 14.446 10 15 L 10 22 C 10 22.554 10.446 23 11 23 L 22 23 C 22.554 23 23 22.554 23 22 L 23 15 C 23 14.446 22.554 14 22 14 L 11 14 z M 17 15 L 18 15 L 18 17 L 20 17 C 21.10457 17 22 18.119288 22 19.5 C 22 20.880712 21.10457 22 20 22 L 18 22 L 17 22 L 17 15 z M 12 17 L 15 17 C 15.552285 17 16 17.447715 16 18 L 16 22 L 15.5 22 L 12.5 22 C 11.671573 22 11 21.328427 11 20.5 C 11 19.671573 11.671573 19 12.5 19 L 15 19 L 15 18 L 12 18 L 12 17 z M 18 18 L 18 21 L 20 21 C 20.552285 21 21 20.328427 21 19.5 C 21 18.671573 20.552285 18 20 18 L 18 18 z M 12.5 20 C 12.223858 20 12 20.223858 12 20.5 C 12 20.776142 12.223858 21 12.5 21 L 15 21 L 15 20 L 12.5 20 z "
     />
</svg>
