<svg viewBox="0 0 24 24" xmlns="http://www.w3.org/2000/svg"><g fill="#555753"><path d="m2 2v19h10c-1.282847 0-2-1-2-2h-2v-3h2v-1h-2v-3h3v1h1v-2-1-2h3v2h1v-2h3v2h2v-8h-1zm2 2h3v3h-3zm4 0h3v3h-3zm4 0h3v3h-3zm4 0h3v3h-3zm-12 4h3v3h-3zm4 0h3v3h-3zm6 3v2h6v-2zm-10 1h3v3h-3zm8 2c-.55228 0-1 .447934-1 1v4c0 .552055.447872 1 1 1h1v-2h8v2h1c.55228 0 1-.447945 1-1v-4c0-.664831-.314989-1-1-1zm-8 2h3v3h-3zm10 3v4h6v-4z"/><path d="m4 4v3h3v-3zm4 0v3h3v-3zm4 0v3h3v-3zm-8 4v3h3v-3zm4 0v3h3v-3zm4 0v2h3v-2zm-8 4v3h3v-3zm4 0v3h2v-2h1v-1z" opacity=".35"/></g></svg>