<svg viewBox="0 0 24 24" xmlns="http://www.w3.org/2000/svg"><g fill="#2e3436"><path d="m5 3c-1.6619932 0-3 1.3380068-3 3v12c0 1.661992 1.3380068 3 3 3h7.980469v-2h-7.480469c-.8309976 0-1.5-.669003-1.5-1.5v-11c0-.8309976.6690024-1.5 1.5-1.5h13c.830997 0 1.5.6690024 1.5 1.5v6.480469h2v-6.980469c0-1.6619932-1.338008-3-3-3zm1.5 3c-.8284247 0-1.5.6715753-1.5 1.5s.6715753 1.5 1.5 1.5 1.5-.6715753 1.5-1.5-.6715753-1.5-1.5-1.5zm3.5 1v2h9v-2zm-3.5 3c-.8284247 0-1.5.671576-1.5 1.5s.6715753 1.5 1.5 1.5 1.5-.671576 1.5-1.5-.6715753-1.5-1.5-1.5zm3.5 1v2h4.919922c.091689-.011568.184496-.019531.279297-.019531h3.800781v-1.980469zm-5 4v3h7.980469v-2.800781c0-.067278.003887-.133457.009765-.199219z"/><path d="m15.199219 14c-.65 0-1.199219.549219-1.199219 1.199219v6.601562c0 .65.549219 1.199219 1.199219 1.199219h6.800781c.659999 0 1-.549219 1-1.199219v-6.601562c0-.65-.340001-1.199219-1-1.199219zm1.070312 1c.134379 0 .268126.05133.371094.154297l1.859375 1.859375 1.859375-1.859375c.205937-.205937.536251-.205937.742187 0l.744141.744141c.205936.205936.205937.53625 0 .742187l-1.859375 1.859375 1.859375 1.859375c.205937.205937.205937.536251 0 .742187l-.744141.744141c-.205936.205937-.53625.205937-.742187 0l-1.859375-1.859375-1.859375 1.859375c-.205937.205937-.536251.205936-.742187 0l-.744141-.744141c-.205937-.205936-.205937-.53625 0-.742187l1.859375-1.859375-1.859375-1.859375c-.205937-.205937-.205937-.536251 0-.742187l.744141-.744141c.102968-.102968.236714-.154297.371093-.154297z"/></g></svg>