<svg viewBox="0 0 24 24" xmlns="http://www.w3.org/2000/svg"><g fill="#555753"><path d="m2 2v20h9.248047c-.158803-.38009-.248047-.792882-.248047-1.21875v-.78125h-1v-1-3h1v-1h-1v-3h1.904297c.578128-.608183 1.384204-1 2.283203-1h.8125v-3h5v3h1c.334323 0 .673531.08664 1 .208984v-9.208984zm2 2h5v2 1h-5zm6 0h4v3h-4v-1zm5 0h5v3h-5zm-11 4h5v3h-5zm6 0h4.048828v3h-4.048828zm-6 4h5v3h-5zm10.1875 1c-.662698 0-1.1875.548988-1.1875 1.21875v6.5625c0 .669759.524802 1.21875 1.1875 1.21875h6.8125c.662699 0 1-.548991 1-1.21875v-6.5625c0-.669762-.337286-1.21875-1-1.21875zm-.1875 1h1l2.5 2.5 2.5-2.5h1v1l-2.5 2.5 2.5 2.338983v1h-1l-2.5-2.338983-2.5 2.5h-1v-1l2.5-2.5-2.5-2.5zm-10 2h5v3 1h-5z"/><path d="m4 4v3h5v-1-2zm6 0v2 1h4v-3zm5 0v3h5v-3z" opacity=".35"/></g></svg>