<svg viewBox="0 0 24 24" xmlns="http://www.w3.org/2000/svg"><g fill="#2e3436"><path d="m5 5c-.5712982 0-1 .4287018-1 1v2h16v-2c0-.5712982-.428703-1-1-1z" opacity=".35"/><path d="m5 3c-1.6446904 0-3 1.3553096-3 3v13c0 1.644688 1.3553096 3 3 3h7c.552285 0 1-.447715 1-1s-.447715-1-1-1h-7c-.5712964 0-1-.428706-1-1v-9h16v4c0 .552284.447716 1 1 1s1-.447716 1-1v-8c0-1.6446904-1.355312-3-3-3zm0 2h14c.571294 0 1 .4287036 1 1v2h-16v-2c0-.5712964.4287036-1 1-1zm1 6v1h5v-1zm7 0v1h5v-1zm-7 2v1h5v-1zm7 0v1h3c.000055-.55226.44774-.999945 1-1zm-7 2v1h5v-1zm7 0v1h1 2v-1zm-7 2v1h5v-1z" fill="#2e3436"/><path d="m17 14v3h-3v2h3v3h2v-3h3v-2h-3v-3z" stroke-width="1.06904"/></g></svg>