<svg xmlns="http://www.w3.org/2000/svg" viewBox="0 0 24 24">
  <path
     style="fill:#555753"
     d="m 2,23 h 6 8 v -8 h -2 v 1 h -4 v -3 h 2 V 11 H 10 V 8 h 4 v 1 h 2 V 1 H 8 2 Z m 2,-2 v -3 h 4 v 3 z m 0,-5 v -3 h 4 v 3 z M 4,11 V 8 h 4 v 3 z M 4,6 V 3 h 4 v 3 z m 6,15 v -3 h 4 v 3 z M 10,6 V 3 h 4 v 3 z m 4,7 h 4.683594 L 17.3125,14.28125 C 17.12983,14.471538 17.015222,14.743559 17,15 v 1 H 17.412109 18 c 0.30945,0 0.55232,-0.0903 0.75,-0.28125 L 22,12.835938 V 11.220703 C 21.274849,10.602349 19.766078,9.050844 18.75,8.28125 18.55232,8.0903 18.30945,8 18,8 H 17.412109 17 v 1 c 0,0.224022 0.12983,0.528449 0.3125,0.71875 L 18.683594,11 H 14 Z"
     />
</svg>
