<svg viewBox="0 0 24 24" xmlns="http://www.w3.org/2000/svg"><g fill="#2e3436"><path d="m8 5c-1.644693 0-3 1.355308-3 3v7c0 1.644688 1.3553086 3 3 3v4h.2753906c.2242424 0 .5766391-.28851.8359375-.501953l3.8691409-3.185547v-2.310547c-.531409.01177-.678366.310363-.992188.492188l-1.988281 1.505859v-1c0-.552283-.4477165-1-1-1h-1c-.5712934 0-1-.428706-1-1v-7c0-.571297.428706-1 1-1h11c.571292 0 1 .428703 1 1v4a1 1 0 0 0 1 1 1 1 0 0 0 1-1v-4c0-1.644692-1.355309-3-3-3z"/><path d="m5 2c-1.6446946 0-3 1.3553064-3 3v7c0 1.29412.8410566 2.405751 2 2.822266v-2.822266-7c0-.0694089.0073884-.1364857.0195312-.2011719.0756607-.403053.3762451-.7036366.7792969-.7792969.064686-.0121427.1317633-.0195312.2011719-.0195312h11 2.822266c-.416514-1.1589435-1.528144-2-2.822266-2z"/><path d="m15.199219 14c-.65 0-1.199219.549219-1.199219 1.199219v6.601562c0 .65.549219 1.199219 1.199219 1.199219h6.800781c.659999 0 1-.549219 1-1.199219v-6.601562c0-.65-.340001-1.199219-1-1.199219zm1.070312 1c.134379 0 .268126.05133.371094.154297l1.859375 1.859375 1.859375-1.859375c.205937-.205937.536251-.205937.742187 0l.744141.744141c.205936.205936.205937.53625 0 .742187l-1.859375 1.859375 1.859375 1.859375c.205937.205937.205937.536251 0 .742187l-.744141.744141c-.205936.205937-.53625.205937-.742187 0l-1.859375-1.859375-1.859375 1.859375c-.205937.205937-.536251.205936-.742187 0l-.744141-.744141c-.205937-.205936-.205937-.53625 0-.742187l1.859375-1.859375-1.859375-1.859375c-.205937-.205937-.205937-.536251 0-.742187l.744141-.744141c.102968-.102968.236714-.154297.371093-.154297z"/></g></svg>