<svg viewBox="0 0 24 24" xmlns="http://www.w3.org/2000/svg"><g fill="#2e3436"><path d="m6 1c-1.6619949 0-3 1.3380051-3 3v16c0 1.661994 1.3380051 3 3 3h5.166016l-1.5820316-1.583984c-.1236165-.123302-.2241329-.264624-.3066406-.416016h-2.7773438c-.8309976 0-1.5-.669003-1.5-1.5v-15c0-.8309976.6690024-1.5 1.5-1.5h11c.830997 0 1.5.6690024 1.5 1.5v9.742188l.492188-.5625c.345643-.39555.850838-.645276 1.375-.679688h.002c.0438-.0029.08701-.0021.130859-.002v-8.998c-.000047-1.6619949-1.338053-3-3.000047-3zm.5 4c-.2769991 0-.5.2230009-.5.5v1c0 .2769991.2230009.5.5.5h1c.2769991 0 .5-.2230009.5-.5v-1c0-.2769991-.2230009-.5-.5-.5zm2.5 0v2h6v-2zm7.5 0c-.277 0-.5.2230009-.5.5v1c0 .2769991.223.5.5.5h1c.277 0 .5-.2230009.5-.5v-1c0-.2769991-.223-.5-.5-.5zm-10 3c-.2769991 0-.5.2230009-.5.5v1c0 .2769991.2230009.5.5.5h1c.2769991 0 .5-.2230009.5-.5v-1c0-.2769991-.2230009-.5-.5-.5zm2.5 0v2h6v-2zm7.5 0c-.277 0-.5.2230009-.5.5v1c0 .2423744.170186.4437637.398438.4902344.032605.0066386.066937.0097656.101562.0097656h1c.277 0 .5-.2230009.5-.5v-1c0-.2769991-.223-.5-.5-.5zm-10 3c-.2769991 0-.5.223-.5.5v1c0 .277.2230009.5.5.5h1c.2769991 0 .5-.223.5-.5v-1c0-.277-.2230009-.5-.5-.5zm2.5 0v2h6v-2zm7.5 0c-.277 0-.5.223-.5.5v1c0 .242375.170186.443764.398438.490234.032605.006639.066937.009766.101562.009766h1c.277 0 .5-.223.5-.5v-1c0-.277-.223-.5-.5-.5zm-10 3c-.2769991 0-.5.223-.5.5v1c0 .277.2230009.5.5.5h1c.2769991 0 .5-.223.5-.5v-1c0-.277-.2230009-.5-.5-.5zm2.5 0v2h6v-2zm7.5 0c-.277 0-.5.223-.5.5v1c0 .242375.170186.443764.398438.490234.032605.006639.066937.009766.101562.009766h.960938l.539062-.615234v-.884766c0-.277-.223-.5-.5-.5zm-10 3c-.2769991 0-.5.223-.5.5v1c0 .277.2230009.5.5.5h1c.2769991 0 .5-.223.5-.5v-1c0-.277-.2230009-.5-.5-.5zm2.5 0v2h.2753906c.082721-.152293.184337-.294028.3085938-.417969.7415556-.739785 2.0892476-.740671 2.8300776 0l.417969.417969h2.003907l.164062-.1875v-1.8125zm7.5 0c-.277 0-.5.223-.5.5v.169922l.585938-.669922z"/><path d="m21.751905 15.657795a1 1 0 0 0 -.0937-1.41211 1 1 0 0 0 -1.41211.0937l-6.29687 7.19532-2.24414-2.24415a1 1 0 0 0 -1.41407 0 1 1 0 0 0 0 1.41602l3 3a1.0001 1.0001 0 0 0 1.46094-.0488z"/></g></svg>