<svg height="24" viewBox="0 0 24 24" width="24" xmlns="http://www.w3.org/2000/svg"><g fill="#2e3436" transform="matrix(0 1 -1 0 23.999999 .000001)"><path d="m11 24h2v-24h-2z" opacity=".35"/><path d="m14 0c-.255922 0-.511769.097707-.707031.2929688l-3.292969 3.2929687-.671875.6738281-.0253906.0234375c-.1935418.1882648-.3027304.4467932-.3027344.7167969.001018.2590797.1025483.5076456.2832031.6933594v.00391l.7167969.7167931 3.292969 3.2929685c.390523.390524 1.02354.390524 1.414062 0 .390524-.390522.390524-1.023541 0-1.414062l-2.283203-2.2832034a8 7 0 0 1 7.576172 6.9902344 8 7 0 0 1 -6 6.757812v2.03711a10 9 0 0 0 8-8.794922 10 9 0 0 0 -9.585938-8.9921875v-.0078125l2.292969-2.2929688c.390524-.3905216.390524-1.0235398 0-1.4140624-.195261-.1952589-.451109-.2929688-.707031-.2929688zm-11 12a1 1 0 0 0 -1 1 1 1 0 0 0 .0117188.154297 10 9 0 0 0 7.9882812 8.640625v-2.03711a8 7 0 0 1 -6-6.757812 1 1 0 0 0 -1-1z"/></g></svg>