<svg viewBox="0 0 24 24" xmlns="http://www.w3.org/2000/svg"><path d="m1 2v2h2v-2zm12 0v2h2v-2zm-5 2a5 5 0 0 0 -5 5 5 5 0 0 0 5 5 5 5 0 0 0 5-5 5 5 0 0 0 -5-5zm12 2v2h2v-2zm-5.080078 4a7 7 0 0 1 -3.919922 5.316406v1.832032l.574219-.574219 4-4c.403816-.403753.926506-.574219 1.425781-.574219h1 1v-2zm2.080078 3c-.26531 0-.53058.09311-.71875.28125l-4 4-.28125.28125v.875l.28125.28125 4 4c.18818.18821.45346.28125.71875.28125h1v-1c0-.370332-.09314-.53057-.28125-.71875l-2.28125-2.28125h7.5625v-2h-7.5625l2.28125-2.28125c.18815-.18817.28125-.45345.28125-.71875v-1zm-16 1v2h2v-2zm18 0c0 .499249-.170419 1.021939-.574219 1.425781l-.574219.574219h1.148438zm-11 6v2h2v-2zm12 0v2h2v-2z" fill="#555753"/></svg>