<svg xmlns="http://www.w3.org/2000/svg" viewBox="0 0 24 24">
  <path
     style="fill:#555753"
     d="M 12 1 L 12 17.744141 L 15.757812 14.054688 L 17.902344 18.464844 C 18.42803 19.658013 21.161848 18.701 20.384766 17.105469 L 18.261719 12.523438 L 23 12.523438 L 12 1 z M 5.5 6 C 3.014719 6 1 8.014719 1 10.5 L 1 11 L 4 11 L 4 10.5 C 4 9.671573 4.671573 9 5.5 9 C 6.328428 9 7 9.671573 7 10.5 C 7 11.328428 6.328428 12 5.5 12 L 4 12 L 4 17 L 7 17 L 7 14.736328 C 8.795778 14.101428 9.9973 12.404706 10 10.5 C 10 8.014719 7.985281 6 5.5 6 z M 4 19 L 4 22 L 7 22 L 7 19 L 4 19 z "
     />
</svg>
