<svg viewBox="0 0 24 24" xmlns="http://www.w3.org/2000/svg"><g fill="#2e3436"><path d="m14 10-7 7 7 7 7-7-1.5-1.5-5.5 5.5-4-4 4-4 1.153381 1.208912-2.153381 2.291088 1.5 1.5 3.744141-3.757813z"/><path d="m6 2c-1.6446994 0-3 1.3553016-3 3v15c0 1.644698 1.3553006 3 3 3h5.582031l-1.9999998-2h-3.5820312c-.5712964 0-1-.428701-1-1v-15c0-.5712994.4287036-1 1-1h7v3c0 .999999 1.000001 2 2 2h3v3.580078l.953125.953125c.32806.341629.372056.866322.105469 1.257813.279035-.185486.632323-.219203.941406-.089844v-7.201172c-.000051-.2651983-.105433-.51952-.292969-.7070312l-4.5-4.5c-.187511-.1875366-.441832-.2929174-.707031-.2929688z"/></g></svg>