<svg xmlns="http://www.w3.org/2000/svg" viewBox="0 0 24 24">
 <path
     style="fill:#555753"
     d="m 1 3 v 18 h 6 v 2 h 10 v -2 h 6 V 3 H 17 V 1 H 7 V 3 Z M 3 5 H 7 V 9 H 3 Z M 8 2 h 8 V 8 H 8 Z m 9 3 h 4 V 9 H 17 Z M 3 10 h 4 v 4 H 3 Z M 8 9 h 8 v 6 H 8 Z m 9 1 h 4 v 4 H 17 Z M 3 15 h 4 v 4 H 3 Z m 5 1 h 8 v 6 H 8 Z m 9 -1 h 4 v 4 h -4 z"
     />
 <path
     style="fill:#555753;opacity:0.35"
     d="M 8 2 L 8 8 L 16 8 L 16 2 L 8 2 z M 8 9 L 8 15 L 16 15 L 16 9 L 8 9 z M 8 16 L 8 22 L 16 22 L 16 16 L 8 16 z "
     />
 </svg>
