<svg viewBox="0 0 24 24" xmlns="http://www.w3.org/2000/svg"><path d="m3 3c-.554 0-1 .446-1 1v16c0 .554.446 1 1 1h7v-.742188a.99973787.99973787 0 0 1 .292969-.707031l.550781-.550781h-6.84375v-14h16v5.035156a.99973787.99973787 0 0 1 .257812-.035156c.148551 0 .485319.030387.841797.154297.320508.071247.621051.186863.900391.333984v-6.488281c0-.554-.446-1-1-1zm3 3c-.554 0-1 .446-1 1v10c0 .554.446 1 1 1h5.84375l1.998047-2h-6.341797c-.277 0-.5-.223-.5-.5v-7c0-.277.223-.5.5-.5h9c.277 0 .5.223.5.5v4.386719a.99973787.99973787 0 0 1 1.013672-.009766.99973787.99973787 0 0 1 .160156-1.191406l.826172-.835938v-3.849609c0-.554-.446-1-1-1zm14.257812 5-1.373046 1.388672c.917143.914946 1.826998 1.829073 2.74414 2.726562l1.371094-1.373046c0-.171429-.00011-.34163-.042969-.535157-.04286-.14933-.11688-.28842-.171875-.429687-.33322-.855982-1.05356-1.519978-1.970703-1.691406-.185331-.085716-.385212-.085938-.556641-.085938zm-2.74414 2.742188-6.513672 6.515624v2.742188h2.742188l6.515624-6.513672zm3.599609 2.228515a.99973787.99973787 0 0 1 -.148437 1.222656l-.964844.964844v.841797h-.841797l-2.001953 2h3.84375c.554 0 1-.446 1-1v-3.958984a.99973787.99973787 0 0 1 -.886719-.070313z" fill="#555753"/></svg>