<svg viewBox="0 0 24 24" xmlns="http://www.w3.org/2000/svg"><path d="m3 2v21h7v-2h-5v-17h8v5h5v2.84375c.514218-.515084 1.03384-1.031746 1.546875-1.546875l.292969-.296875h.160156v-2l-6-6zm17.257812 9-1.373046 1.388672c.917143.914946 1.826998 1.829073 2.74414 2.726562l1.371094-1.373046c0-.171429-.000111-.34163-.042969-.535157-.04286-.14933-.11688-.28842-.171875-.429687-.33322-.855982-1.05356-1.519978-1.970703-1.691406-.185332-.085715-.385212-.085938-.556641-.085938zm-2.74414 2.742188-6.513672 6.515624v2.742188h2.742188l6.515624-6.513672zm2.486328 4.414062c-.666619.666714-1.333271 1.333396-2 2v.84375h-.84375c-.666775.666558-1.33312 1.333546-2 2h4.84375z" fill="#555753"/></svg>