<svg viewBox="0 0 24 24" xmlns="http://www.w3.org/2000/svg"><path d="m4 2c-1.108 0-2 .892-2 2v16c0 1.108.892 2 2 2h16c1.108 0 2-.892 2-2v-16c0-1.108-.892-2-2-2zm0 3h16v15h-16zm6 2a3 3 0 0 0 -2.8261719 2h-2.1738281v2h2.1757812a3 3 0 0 0 2.8242188 2 3 3 0 0 0 2.826172-2h6.173828v-2h-6.175781a3 3 0 0 0 -2.824219-2zm0 2a1 1 0 0 1 1 1 1 1 0 0 1 -1 1 1 1 0 0 1 -1-1 1 1 0 0 1 1-1zm4 4c-1.30451 0-2.403282.837195-2.816406 2h-6.183594v2h6.183594c.413124 1.162805 1.511896 2 2.816406 2s2.403282-.837195 2.816406-2h2.183594v-2h-2.183594c-.413124-1.162805-1.511896-2-2.816406-2z" fill="#555753"/></svg>