<svg xmlns="http://www.w3.org/2000/svg" viewBox="0 0 24 24">
  <path
     style="opacity:0.35;fill:#555753"
     d="m 17.656854,6.3431458 a 8,8 0 0 0 -11.3137082,0 8,8 0 0 0 0,11.3137082 8,8 0 0 0 11.3137082,0 8,8 0 0 0 0,-11.3137082 z"
     />
  <path
     style="fill:#555753"
     d="m 19.071068,4.9289322 a 10,10 0 0 0 -14.1421358,0 10,10 0 0 0 0,14.1421358 10,10 0 0 0 14.1421358,0 10,10 0 0 0 0,-14.1421358 z M 18.314243,7.099971 a 8,8 0 0 1 -0.0014,9.798677 L 13.414214,12 Z M 16.89865,5.6871363 12,10.585786 7.099971,5.6857574 a 8,8 0 0 1 9.798677,0.00138 z M 5.6871385,7.101352 10.585786,12 5.6857571,16.900029 a 8,8 0 0 1 0.00138,-9.798677 z M 12,13.414214 l 4.900029,4.900029 a 8,8 0 0 1 -9.7986767,-0.0014 z"
     />
</svg>
