<svg xmlns="http://www.w3.org/2000/svg" viewBox="0 0 24 24">
  <path
     style="fill:#555753"
     d="m 5,12 c 0.00472,5.684149 4.3393856,10.428573 10,10.945312 C 15.535463,23 16,23 17,23 V 15 H 15.736328 C 14.188467,14.863429 13.001068,13.553874 13,12 13.0011,10.446126 14.188467,9.136571 15.736328,9 H 17 V 1 C 16,1 15.526522,1 15,1.05078 9.337895,1.567657 5.0027044,6.314353 5,12 Z m 2,0 C 7.00543,7.420487 10.44884,3.575238 15,3.066406 V 7.11 C 12.67655,7.587546 11.005816,9.628648 11,12 c 0.003,2.373554 1.674399,4.417869 4,4.892578 v 4.046875 C 10.45,20.43037 7.0024533,16.581751 7,12 Z"
     />
  <path
     style="opacity:0.35;fill:#555753"
     d="M 7,12 C 7.00543,7.420487 10.44884,3.575238 15,3.066406 V 7.11 C 12.67655,7.587546 11.005816,9.628648 11,12 c 0.003,2.373554 1.674399,4.417869 4,4.892578 v 4.046875 C 10.45,20.43037 7.0024533,16.581751 7,12 Z"
     />
</svg>
