<svg viewBox="0 0 24 24" xmlns="http://www.w3.org/2000/svg"><path d="m3 3c-.554 0-1 .446-1 1v16c0 .554.446 1 1 1h14.871094l-.427735-.427734h-2.328125c-1.35622 0-2.902005-.408487-4.326172-1.572266h-6.789062v-14h16v7.359375c.40316.896472.572266 1.817709.572266 2.755859v2.328125l1.427734 1.427735v-14.871094c0-.554-.446-1-1-1zm13 8v1.503906c.628416.471311.998772 1.210576 1 1.996094 0 1.380712-1.119288 2.5-2.5 2.5-.786206-.000614-1.526324-.371035-1.998047-1h-1.501953v1.857422c1.371429 1.321851 2.804414 1.714844 4.115234 1.714844h2.742188l3.427734 3.427734h1.714844v-1.714844l-3.427734-3.427734v-2.742188c0-1.511964-.368607-2.743805-1.714844-4.115234z" fill="#555753"/></svg>