<svg xmlns="http://www.w3.org/2000/svg" viewBox="0 0 24 24">
  <path
     style="fill:#555753"
     d="M 5 2 L 5 5 L 13 5 C 14.104569 5 15 5.8954305 15 7 L 15 8 L 6.5 8 C 4.0147186 8 2 10.014719 2 12.5 C 2 14.985281 4.0147186 17 6.5 17 L 10 17 L 10 15 L 13 15 L 13 14 L 6.5 14 C 5.6715729 14 5 13.328427 5 12.5 C 5 11.671573 5.6715729 11 6.5 11 L 15 11 L 15 10 L 18 10 L 18 7 C 18 4.2385763 15.761424 2 13 2 L 5 2 z M 16 11 L 16 12.503906 C 16.628416 12.975217 16.998772 13.714482 17 14.5 C 17 15.880712 15.880712 17 14.5 17 C 13.713794 16.999386 12.973676 16.628965 12.501953 16 L 11 16 L 11 17.857422 C 12.371429 19.179273 13.804414 19.572266 15.115234 19.572266 L 17.857422 19.572266 L 21.285156 23 L 23 23 L 23 21.285156 L 19.572266 17.857422 L 19.572266 15.115234 C 19.572266 13.60327 19.203659 12.371429 17.857422 11 L 16 11 z "
     />
</svg>
