<svg xmlns="http://www.w3.org/2000/svg" viewBox="0 0 24 24">
  <path
     style="fill:#555753"
     d="M 4,2 C 3.446,2 3.0502957,2.436688 3,3 V 4 7.5 C 3,8.3284271 3.6721071,9.0297447 4.5,9 H 6 V 6.5 C 6,5.6715729 6.6717564,5.0174367 7.5,5 H 10 v 8 l 1.5,1 H 13 V 5 h 2.5 c 0.176153,0 0.342979,0.033941 0.5,0.087891 v 0.00391 C 16.581345,5.2983812 17.022554,5.8481755 17,6.5 V 9 h 1.5 C 19.328427,9 20,8.3284271 20,7.5 V 4 3 C 20,2.4344471 19.554,2 19,2 H 16 Z M 2,10.285156 V 22 H 21 V 20.884766 Z M 5,15 12,19 H 5 Z"
     />
</svg>
