<svg viewBox="0 0 24 24" xmlns="http://www.w3.org/2000/svg"><g fill="#555753"><path d="m7 3c-3.3137085 0-6 4.0294373-6 9 0 4.970563 2.6862915 9 6 9h16v-2c-2.209139 0-4-3.134007-4-7 0-3.8659932 1.790861-7 4-7v-2zm0 2h12.236328c-1.412419 1.706443-2.234483 4.2796086-2.236328 7 .000416 2.718919.820243 5.291825 2.230469 7h-12.230469c-2.209139 0-4-3.134007-4-7 0-3.8659932 1.790861-7 4-7z"/><path d="m7 5c-2.2030514-.0000294-3.9913943 3.1173455-4 6.972656 0 .0056-.0000036.01008 0 .01563v.011714c.0002242.196794.0091.370204.013672.554688.165281 3.638672 1.9005281 6.444314 3.986328 6.445312h12.230469c-1.410226-1.708175-2.230053-4.281081-2.230469-7 .0018-2.7203914.823909-5.293557 2.236328-7z" opacity=".35"/></g></svg>