<svg xmlns="http://www.w3.org/2000/svg" viewBox="0 0 24 24">
  <path
     style="fill:#555753"
     d="M 9.5,5 C 8.669,5 8,5.669 8,6.5 v 5.40625 C 7.963635,11.92169 7.926526,11.93535 7.890625,11.95117 7.6722554,11.39357 7.1368337,11 6.5,11 5.669,11 5,11.669 5,12.5 v 3 c 0,2.485281 3.3578645,4.5 7.5,4.5 4.142136,0 7.5,-2.014719 7.5,-4.5 v -3 C 20,11.669 19.331,11 18.5,11 17.862167,11 17.32707,11.396079 17.109375,11.955078 17.073495,11.938278 17.036395,11.92265 17,11.90625 V 11 C 17,10.169 16.331,9.5 15.5,9.5 14.669,9.5 14,10.169 14,11 V 9.5 C 14.000006,8.669 13.331,8 12.5,8 11.669,8 11,8.669 11,9.5 v -3 C 11,5.669 10.331,5 9.5,5 Z"
     />
</svg>
