<svg xmlns="http://www.w3.org/2000/svg" viewBox="0 0 24 24">
  <path
     style="fill:#555753"
     d="M 2 2 L 2 4 L 4 4 L 4 2 L 2 2 z M 8 2 L 8 4 L 10 4 L 10 2 L 8 2 z M 14 2 L 14 4 L 16 4 L 16 2 L 14 2 z M 20 2 L 20 4 L 22 4 L 22 2 L 20 2 z M 2 8 L 2 10 L 4 10 L 4 8 L 2 8 z M 8 8 L 8 10 L 10 10 L 10 8 L 8 8 z M 14 8 L 14 10 L 16 10 L 16 8 L 14 8 z M 20 8 L 20 10 L 22 10 L 22 8 L 20 8 z M 2 14 L 2 16 L 4 16 L 4 14 L 2 14 z M 8 14 L 8 16 L 10 16 L 10 14 L 8 14 z M 14 14 L 14 16 L 16 16 L 16 14 L 14 14 z M 20 14 L 20 16 L 22 16 L 22 14 L 20 14 z M 2 20 L 2 22 L 4 22 L 4 20 L 2 20 z M 8 20 L 8 22 L 10 22 L 10 20 L 8 20 z M 14 20 L 14 22 L 16 22 L 16 20 L 14 20 z M 20 20 L 20 22 L 22 22 L 22 20 L 20 20 z "
     />
</svg>
