<svg viewBox="0 0 24 24" xmlns="http://www.w3.org/2000/svg">
  <path
     style="fill:#555753"
     d="M 7 1 L 7 3 L 1 3 L 1 21 L 7 21 L 7 23 L 9 23 L 9 21 L 9 20.878906 L 9 16.121094 L 9 16 L 9 14 L 9 13 L 9 10 L 15 10 L 15 10.957031 L 17.273438 9 L 17 9 L 17 5 L 21 5 L 21 7 L 22 7 C 22.354033 7 22.684647 7.0364722 23 7.0976562 L 23 3 L 17 3 L 17 1 L 7 1 z M 9 3 L 15 3 L 15 8 L 9 8 L 9 3 z M 3 5 L 7 5 L 7 9 L 3 9 L 3 5 z M 21 8 C 20.251237 8 19.6 8.3039097 19.035156 8.8007812 L 13 14 L 16 14 L 20.261719 10.316406 C 20.563865 10 20.728255 10 21 10 L 22 10 L 22 11 C 22 11.552284 22.447715 12 23 12 C 23.552285 12 24 11.552284 24 11 L 24 10 C 24 8.597458 23.684939 8 22 8 L 21 8 z M 3 10 L 7 10 L 7 14 L 3 14 L 3 10 z M 21 11 L 21 19 L 18.121094 19 L 20 20.878906 L 20 21 L 23 21 L 23 13 C 21.907274 13 21 12.092725 21 11 z M 10 14 L 10 15.707031 L 12.792969 18.5 L 10 21.292969 L 10 23 L 11.707031 23 L 14.5 20.207031 L 17.292969 23 L 19 23 L 19 21.292969 L 16.207031 18.5 L 19 15.707031 L 19 14 L 17.292969 14 L 14.5 16.792969 L 11.707031 14 L 10 14 z M 3 15 L 7 15 L 7 19 L 3 19 L 3 15 z "
     />
</svg>
