<svg xmlns="http://www.w3.org/2000/svg" viewBox="0 0 24 24">
  <path
     style="fill:#555753"
     d="M 1 4 L 1 20 L 9.8789062 20 L 11.378906 18.5 L 10.878906 18 L 3 18 L 3 10 L 11 10 L 11 13 L 12.121094 13 L 12.355469 13.234375 L 13 12.679688 L 13 12 L 13 10 L 16.111328 10 L 18.375 8.0507812 C 18.396135 8.0321896 18.421848 8.0182569 18.443359 8 L 3 8 L 3 6 L 21 6 L 21 7 L 22 7 C 22.354033 7 22.684647 7.0364722 23 7.0976562 L 23 4 L 1 4 z M 21 8 C 20.251237 8 19.6 8.3039097 19.035156 8.8007812 L 13 14 L 16 14 L 20.261719 10.316406 C 20.563865 10 20.728255 10 21 10 L 22 10 L 22 11 C 22 11.552284 22.447715 12 23 12 C 23.552285 12 24 11.552284 24 11 L 24 10 C 24 8.597458 23.684939 8 22 8 L 21 8 z M 10 14 L 10 15.707031 L 12.792969 18.5 L 10 21.292969 L 10 23 L 11.707031 23 L 14.5 20.207031 L 17.292969 23 L 19 23 L 19 21.292969 L 16.207031 18.5 L 19 15.707031 L 19 14 L 17.292969 14 L 14.5 16.792969 L 11.707031 14 L 10 14 z "
     />
</svg>
