<svg xmlns="http://www.w3.org/2000/svg" viewBox="0 0 24 24">
  <path
     style="fill:#555753"
     d="M 4 2 L 4 4 L 2 4 L 2 6 L 4 6 L 4 9 L 2 9 L 2 11 L 4 11 L 4 13 L 6 13 L 6 11 L 9 11 L 9 13 L 11 13 L 11 11 L 13 11 L 13 9 L 11 9 L 11 6 L 13 6 L 13 4 L 11 4 L 11 2 L 9 2 L 9 4 L 6 4 L 6 2 L 4 2 z M 14 2 L 14 4 L 15 4 L 15 9 L 20 9 L 20 11 L 22 11 L 22 8 L 16 2 L 14 2 z M 6 6 L 9 6 L 9 9 L 6 9 L 6 6 z M 13 12 L 13 14 L 11 14 L 11 16 L 13 16 L 13 19 L 11 19 L 11 21 L 13 21 L 13 23 L 15 23 L 15 21 L 18 21 L 18 23 L 20 23 L 20 21 L 22 21 L 22 19 L 20 19 L 20 16 L 22 16 L 22 14 L 20 14 L 20 12 L 18 12 L 18 14 L 15 14 L 15 12 L 13 12 z M 5 14 L 5 23 L 10 23 L 10 21 L 7 21 L 7 14 L 5 14 z M 15 16 L 18 16 L 18 19 L 15 19 L 15 16 z "
     />
</svg>
