<svg xmlns="http://www.w3.org/2000/svg" viewBox="0 0 24 24">
  <path
     style="fill:#555753"
     d="M 12 2 A 10 5 0 0 0 2 7 L 2 17 A 10 5 0 0 0 12 22 A 10 5 0 0 0 22 17 L 22 12 L 22 7 A 10 5 0 0 0 12 2 z M 12 4 A 8 3 0 0 1 20 7 A 8 3 0 0 1 12 10 A 8 3 0 0 1 4 7 A 8 3 0 0 1 12 4 z M 4 9.9902344 A 10 5 0 0 0 12 12 A 10 5 0 0 0 20 9.9902344 L 20 12 A 8 3 0 0 1 12 15 A 8 3 0 0 1 4 12 L 4 9.9902344 z M 4 14.990234 A 10 5 0 0 0 12 17 A 10 5 0 0 0 20 14.990234 L 20 17 A 8 3 0 0 1 12 20 A 8 3 0 0 1 4 17 L 4 14.990234 z "
     />
</svg>
