<svg xmlns="http://www.w3.org/2000/svg" viewBox="0 0 24 24">
  <path
     style="fill:#555753"
     d="M 3,3 V 5 H 9 V 3 Z m 13,0 v 1 c 0,0.3476924 0.13,0.580813 0.3125,0.7207031 L 16.679688,5 H 11 V 19 H 4 v 2 h 9 V 7 h 3.679688 L 16.3125,7.28125 C 16.13,7.471551 15.98554,7.770455 16,8 v 1 h 1 c 0.3,0 0.55232,-0.089597 0.75,-0.2792969 1.02,-0.77 1.524849,-1.3214062 2.25,-1.9414062 V 5.1640625 L 17.75,3.28125 C 17.474342,3.0689012 17.366373,3 17,3 H 16.412109 Z M 3,7 V 9 H 9 V 7 Z m 0,4 v 2 h 6 v -2 z m 12,0 v 2 h 6 V 11 Z M 3,15 v 2 h 6 v -2 z m 12,0 v 2 h 6 v -2 z m 0,4 v 2 h 6 v -2 z"
     />
</svg>
