<svg xmlns="http://www.w3.org/2000/svg" viewBox="0 0 24 24">
 <path
     style="fill:#555753"
     d="M 5 1 L 5 2 L 7 4 L 8 4 L 10 2 L 10 1 L 5 1 z M 2 2 L 2 22 L 22 22 L 22 2 L 12 2 L 9.3886719 4 L 16 4 L 16 20 L 8 20 L 8 5 L 7 5 L 7 8 L 4 8 L 4 4 L 5.6503906 4 L 3 2 L 2 2 z M 17 4 L 20 4 L 20 8 L 17 8 L 17 4 z M 4 9 L 7 9 L 7 15 L 4 15 L 4 9 z M 11 9 L 11 11 L 9 11 L 9 13 L 11 13 L 11 15 L 13 15 L 13 13 L 15 13 L 15 11 L 13 11 L 13 9 L 11 9 z M 17 9 L 20 9 L 20 15 L 17 15 L 17 9 z M 4 16 L 7 16 L 7 20 L 4 20 L 4 16 z M 17 16 L 20 16 L 20 20 L 17 20 L 17 16 z "
     />
 <path
     style="fill:#555753;opacity:0.35"
     d="M 9.3886719 4 L 8 5 L 8 8 L 8 10 L 10 10 L 10 8 L 14 8 L 14 10 L 16 10 L 16 8 L 16 4 L 9.3886719 4 z M 8 14 L 8 16 L 8 20 L 16 20 L 16 16 L 16 14 L 14 14 L 14 16 L 10 16 L 10 14 L 8 14 z "
     />
 </svg>
