<svg xmlns="http://www.w3.org/2000/svg" viewBox="0 0 24 24">
 <path
     style="fill:#555753"
     d="m 3.9999887,5.4997958 0,13.8437502 c 0,0.90965 3.134006,1.65625 7.0000013,1.65625 3.865992,0 7,-0.7466 7,-1.65625 l 0,-13.8437502 c 0,0.90964 -3.134008,1.5 -7,1.5 -3.8659953,0 -7.0000013,-0.59036 -7.0000013,-1.5 z m 2,4.5 1.5,0 c 0.84047,0 1.5,0.6822902 1.5,1.5000002 l 0,3 0,0.5 -0.5,0 -2,0 c -0.454486,2e-5 -0.868435,-0.17955 -1.125,-0.46875 -0.256565,-0.2892 -0.3718,-0.67075 -0.375,-1.03125 -0.0032,-0.3605 0.117405,-0.73891 0.375,-1.03125 0.257595,-0.29234 0.664997,-0.46873 1.125,-0.46875 l 1.5,0 0,-0.5 c 0,-0.19237 -0.284443,-0.5 -0.5,-0.5 l -1.5,0 0,-1.0000002 z m 4,2.0000002 0.5000013,0 1.5,0 c 0.454486,0 0.868441,0.17954 1.125,0.46875 0.256559,0.28921 0.3718,0.67075 0.375,1.03125 0.0032,0.3605 -0.117399,0.73892 -0.375,1.03125 -0.257601,0.29233 -0.664997,0.46875 -1.125,0.46875 l -1,0 0,0.5 0,1.5 -1.0000013,0 0,-1.5 0,-3 0,-0.5 z m 4.0000013,0 0.5,0 1.5,0 c 0.454486,10e-6 0.868443,0.17954 1.125,0.46875 0.256557,0.28921 0.3718,0.67075 0.375,1.03125 0.0032,0.3605 -0.117397,0.73892 -0.375,1.03125 -0.257603,0.29233 -0.664997,0.46876 -1.125,0.46875 l -1,0 0,0.5 0,1.5 -1,0 0,-1.5 0,-3 0,-0.5 z m -7.5000013,1 c -0.21199,10e-6 -0.30215,0.0736 -0.375,0.15625 -0.07285,0.0827 -0.1262,0.20426 -0.125,0.34375 0.0012,0.13949 0.0489,0.25795 0.125,0.34375 0.0761,0.0857 0.175265,0.15626 0.375,0.15625 l 1.5,0 0,-1 -1.5,0 z m 4.5000013,0 0,1 1,0 c 0.21199,0 0.302159,-0.0736 0.375,-0.15625 0.07284,-0.0827 0.1262,-0.20426 0.125,-0.34375 -0.0012,-0.13949 -0.04889,-0.25795 -0.125,-0.34375 -0.07611,-0.0858 -0.175265,-0.15625 -0.375,-0.15625 l -1,0 z m 4,0 0,1 1,0 c 0.21199,0 0.302161,-0.0736 0.375,-0.15625 0.07284,-0.0827 0.1262,-0.20426 0.125,-0.34375 -0.0012,-0.13949 -0.04889,-0.25795 -0.125,-0.34375 -0.07611,-0.0858 -0.175265,-0.15625 -0.375,-0.15625 l -1,0 z"
     />
 </svg>
