<svg xmlns="http://www.w3.org/2000/svg" viewBox="0 0 24 24">
  <path
     style="opacity:0.35;fill:#555753"
     d="M 4 4 C 2.338 4 1 5.338 1 7 L 1 18 C 1 19.662 2.338 21 4 21 L 20 21 C 21.662 21 23 19.662 23 18 L 23 7 C 23 5.338 21.662 4 20 4 L 4 4 z "
     />
  <path
     style="fill:#555753"
     d="m 7,5 v 3 h 8 c 1.104569,0 2,0.8954305 2,2 v 1 H 8.5 C 6.0147186,11 4,13.014719 4,15.5 4,17.985281 6.0147186,20 8.5,20 H 17 20 V 10 C 20,7.2385763 17.761424,5 15,5 Z m 1.5,9 H 17 v 3 H 8.5 C 7.6715729,17 7,16.328427 7,15.5 7,14.671573 7.6715729,14 8.5,14 Z"
     />
</svg>
