<svg height="24" viewBox="0 0 24 24" width="24" xmlns="http://www.w3.org/2000/svg"><path d="m11.999671 3.0000006c-.207948.0000386-.410713.064897-.58008.18555l-8.9999997 7.0000004c-.4497631.320398-.5546874.94471-.23437 1.39453.1880285.262699.4913834.418381.81444.41797l.000349 7.001949c0 1.64501 1.355 3 3 3h11.9999897c1.64501.00001 3-1.31839 3-3l-.000329-7.001949c.32306.000414.626419-.155268.81445-.41797.320723-.449313.216689-1.073522-.23242-1.39453l-9.00001-7.0000004c-.169907-.121038-.37341-.1859155-.58202-.18555zm0 2.22852 7 5.5703104.000339 8.201169c.000023.56413-.43591 1.00001-1 1h-5l-.000349-4.999999c.00001-.554-.44599-1-.99999-1h-1c-.554 0-.9999997.446-1.0000097 1l.0003387 5.000009h-3.9999897c-.5641 0-.9999867-.43588-1.00001-1.00001l-.000339-8.201169z" fill="#2e3436"/></svg>