<svg xmlns="http://www.w3.org/2000/svg" viewBox="0 0 24 24">
  <metadata
     id="metadata7838">
    <rdf:RDF>
      <cc:Work
         rdf:about="">
        <dc:format>image/svg+xml</dc:format>
        <dc:type
           rdf:resource="http://purl.org/dc/dcmitype/StillImage" />
        <dc:title>LibreOffice Symbolic Icon Theme SIFR</dc:title>
        <cc:license
           rdf:resource="http://creativecommons.org/licenses/by-sa/3.0/" />
        <dc:rights>
          <cc:Agent>
            <dc:title>The Document Foundation</dc:title>
          </cc:Agent>
        </dc:rights>
        <dc:contributor>
          <cc:Agent>
            <dc:title>Matthias Freund</dc:title>
          </cc:Agent>
        </dc:contributor>
      </cc:Work>
      <cc:License
         rdf:about="http://creativecommons.org/licenses/by-sa/3.0/">
        <cc:permits
           rdf:resource="http://creativecommons.org/ns#Reproduction" />
        <cc:permits
           rdf:resource="http://creativecommons.org/ns#Distribution" />
        <cc:requires
           rdf:resource="http://creativecommons.org/ns#Notice" />
        <cc:requires
           rdf:resource="http://creativecommons.org/ns#Attribution" />
        <cc:permits
           rdf:resource="http://creativecommons.org/ns#DerivativeWorks" />
        <cc:requires
           rdf:resource="http://creativecommons.org/ns#ShareAlike" />
      </cc:License>
    </rdf:RDF>
  </metadata>
 <path 
     style="fill:#555753;fill-opacity:1;stroke:none" 
     d="M 7 8 C 6.69055 8 6.44768 8.0903 6.25 8.28125 L 2 12 C 3.41667 13.073 4.83333 14.64574 6.25 15.71875 C 6.44768 15.9097 6.69055 16 7 16 L 7.5859375 16 L 8 16 L 8 15 C 8 14.74311 7.87017 14.47155 7.6875 14.28125 L 6.1777344 13 L 16.173828 13 A 2.9999971 3.0000048 0 0 0 19 15 A 2.9999971 3.0000048 0 0 0 22 12 A 2.9999971 3.0000048 0 0 0 19 9 A 2.9999971 3.0000048 0 0 0 16.175781 11 L 6.1777344 11 L 7.6875 9.71875 C 7.87017 9.52846 8 9.25689 8 9 L 8 8 L 7.5859375 8 L 7 8 z "
     />
</svg>
