<svg xmlns="http://www.w3.org/2000/svg" viewBox="0 0 24 24">
  <metadata
     id="metadata7838">
    <rdf:RDF>
      <cc:Work
         rdf:about="">
        <dc:format>image/svg+xml</dc:format>
        <dc:type
           rdf:resource="http://purl.org/dc/dcmitype/StillImage" />
        <dc:title>LibreOffice Symbolic Icon Theme SIFR</dc:title>
        <cc:license
           rdf:resource="http://creativecommons.org/licenses/by-sa/3.0/" />
        <dc:rights>
          <cc:Agent>
            <dc:title>The Document Foundation</dc:title>
          </cc:Agent>
        </dc:rights>
        <dc:contributor>
          <cc:Agent>
            <dc:title>Matthias Freund</dc:title>
          </cc:Agent>
        </dc:contributor>
      </cc:Work>
      <cc:License
         rdf:about="http://creativecommons.org/licenses/by-sa/3.0/">
        <cc:permits
           rdf:resource="http://creativecommons.org/ns#Reproduction" />
        <cc:permits
           rdf:resource="http://creativecommons.org/ns#Distribution" />
        <cc:requires
           rdf:resource="http://creativecommons.org/ns#Notice" />
        <cc:requires
           rdf:resource="http://creativecommons.org/ns#Attribution" />
        <cc:permits
           rdf:resource="http://creativecommons.org/ns#DerivativeWorks" />
        <cc:requires
           rdf:resource="http://creativecommons.org/ns#ShareAlike" />
      </cc:License>
    </rdf:RDF>
  </metadata>
 <path 
     style="fill:#555753;fill-opacity:1;stroke:none" 
     d="m 17,8 c 0.30945,0 0.55232,0.0903 0.75,0.28125 L 22,12 c -1.41667,1.073 -2.83333,2.64574 -4.25,3.71875 C 17.55232,15.9097 17.30945,16 17,16 L 16.414062,16 16,16 16,15 c 0,-0.25689 0.12983,-0.52845 0.3125,-0.71875 L 17.822266,13 7.826172,13 A 2.9999971,3.0000048 0 0 1 5,15 2.9999971,3.0000048 0 0 1 2,12 2.9999971,3.0000048 0 0 1 5,9 2.9999971,3.0000048 0 0 1 7.824219,11 L 17.822266,11 16.3125,9.71875 C 16.12983,9.52846 16,9.25689 16,9 L 16,8 16.414062,8 17,8 Z"
     />
</svg>
