<svg viewBox="0 0 24 24" xmlns="http://www.w3.org/2000/svg"><path d="m3.1835938 3.1855469a1.0667733 1.0667733 0 0 0 -1.0507813 1.0820312v17.0664059a1.0667733 1.0667733 0 1 0 2.1347656 0v-11.7343746-5.3320313a1.0667733 1.0667733 0 0 0 -1.0839843-1.0820312zm1.0839843 6.4140625 6.3984379 3.2011716v-2.134765h4.267578v2.134765l6.40039-3.2011716-6.40039-3.1992188v2.1328125h-4.267578v-2.1328125zm17.0664059 0v11.7343746a1.0667733 1.0667733 0 1 0 2.132813 0v-17.0664059a1.0667733 1.0667733 0 0 0 -1.083985-1.0820312 1.0667733 1.0667733 0 0 0 -1.048828 1.0820312z" fill="#555753"/></svg>