<svg xmlns="http://www.w3.org/2000/svg" viewBox="0 0 24 24">
  <path
     style="fill:#555753"
     d="M 16.5 2 A 5.5 5.5 0 0 0 11.027344 7 L 9 7 C 7.338 7 6 8.338 6 10 L 6 11 L 2 11 L 2 22 L 14 22 L 14 18 L 15 18 C 16.662 18 18 16.662 18 15 L 18 12.785156 A 5.5 5.5 0 0 0 22 7.5 A 5.5 5.5 0 0 0 16.5 2 z M 16.5 4 A 3.5 3.5 0 0 1 20 7.5 A 3.5 3.5 0 0 1 18 10.658203 L 18 10 C 18 8.338 16.662 7 15 7 L 13.041016 7 A 3.5 3.5 0 0 1 16.5 4 z M 9 9 L 15 9 C 15.554 9 16 9.446 16 10 L 16 15 C 16 15.554 15.554 16 15 16 L 14 16 L 14 11 L 8 11 L 8 10 C 8 9.446 8.446 9 9 9 z M 4 13 L 12 13 L 12 20 L 4 20 L 4 13 z "
     />
</svg>
