<svg viewBox="0 0 24 24" xmlns="http://www.w3.org/2000/svg"><path d="m10 3c-1.6568543 0-3 1.3431457-3 3v4c0 .552285-.4477153 1-1 1h-1v3h1c.5522847 0 1 .447715 1 1v4c0 1.656854 1.3431457 3 3 3h2v-2h-2c-.5522847 0-1-.447715-1-1v-4c0-1.006287-.5062381-1.945101-1.3457031-2.5.839465-.554899 1.3457031-1.493713 1.3457031-2.5v-4c0-.5522848.4477152-1 1-1h2v-2zm4 0v2h2c.552285 0 1 .4477152 1 1v4c.000892 1.006287.506238 1.945101 1.345703 2.5-.839465.554899-1.344811 1.493713-1.345703 2.5v4c0 .552285-.447715 1-1 1h-2v2h2c1.656854 0 3-1.343146 3-3v-4c0-.552285.501329-1 1-1h1v-3h-1c-.552285 0-1-.447715-1-1v-4c0-1.6568543-1.343146-3-3-3z" fill="#555753"/></svg>