<svg viewBox="0 0 24 24" xmlns="http://www.w3.org/2000/svg"><path d="m6 2c-1.1079995 0-2 .892-2 2v7c0 1.108.8920005 2 2 2h2v-2h-2v-7h8v7h-2v2h2c.36693 0 .704999-.104291 1-.275391v-1.724609-1h1v-6c0-1.108-.892-2-2-2zm3 7v10h1.789062c-.162207-.132552-.323857-.269043-.482421-.421875l-.306641-.294922v-3.283203h1v-6zm7 2v1.503906c.628416.471311.998772 1.210576 1 1.996094 0 1.380712-1.119288 2.5-2.5 2.5-.786206-.000614-1.526324-.371035-1.998047-1h-1.501953v1.857422c1.371429 1.321851 2.804414 1.714844 4.115234 1.714844h2.742188l3.427734 3.427734h1.714844v-1.714844l-3.427734-3.427734v-2.742188c0-1.511964-.368607-2.743805-1.714844-4.115234zm-10 4c-1.1079995 0-2.0087326.892034-2 2v5h2v-5h2v-2zm7.001953 0 .300781.400391c.283558.378077.72467.59924 1.197266.599609.373436 0 .706742-.134964.966797-.353516-.364922-.395458-.88378-.646484-1.466797-.646484zm.998047 5.478516v1.521484h2v-1.427734h-.884766c-.360254 0-.733954-.03022-1.115234-.09375z" fill="#555753"/></svg>