<svg xmlns="http://www.w3.org/2000/svg" viewBox="0 0 24 24">
  <path
     style="fill:#555753"
     d="M 1 1 L 1 10 L 8 10 L 8 8 L 3 8 L 3 1 L 1 1 z M 12 1 L 8 5 L 10 5 L 10 10 L 14 10 L 14 5 L 16 5 L 12 1 z M 21 1 L 21 8 L 16 8 L 16 10 L 23 10 L 23 1 L 21 1 z M 12 2.5 L 13.5 4 L 13 4 L 13 9 L 11 9 L 11 4 L 10.5 4 L 12 2.5 z M 6 11 L 3 15 L 5 15 L 5 18 L 7 18 L 7 15 L 9 15 L 6 11 z M 18 11 L 15 15 L 17 15 L 17 18 L 19 18 L 19 15 L 21 15 L 18 11 z M 1 16 L 1 23 L 11 23 L 11 16 L 9 16 L 9 21 L 3 21 L 3 16 L 1 16 z M 13 16 L 13 23 L 23 23 L 23 16 L 21 16 L 21 21 L 15 21 L 15 16 L 13 16 z "
     />
</svg>
