<svg xmlns="http://www.w3.org/2000/svg" viewBox="0 0 24 24">
  <path
     d="M 10,3 C 8.3431457,3 7,4.3431457 7,6 V 10 c 0,0.552285 -0.4477153,1 -1,1 H 5 v 3 h 1 c 0.5522847,0 1,0.447715 1,1 v 4 c 0,1.656854 1.3431457,3 3,3 H 12 V 20 H 10 c -0.5522847,0 -1,-0.447715 -1,-1 V 15 C 9,13.993713 8.4937619,13.054899 7.6542969,12.5 8.4937619,11.945101 9,11.006287 9,10 V 6 C 9,5.4477152 9.4477152,5 10,5 H 12 V 3 Z M 14,3 v 2 h 2 c 0.552285,0 1,0.4477152 1,1 V 10 c 8.92e-4,1.006287 0.506238,1.945101 1.345703,2.5 C 17.506238,13.054899 17.000892,13.993713 17,15 v 4 c 0,0.552285 -0.447715,1 -1,1 h -2 v 2 h 2 c 1.656854,0 3,-1.343146 3,-3 v -4 c 0,-0.552285 0.501329,-1 1,-1 h 1 v -3 h -1 c -0.552285,0 -1,-0.447715 -1,-1 V 6 C 19,4.3431457 17.656854,3 16,3 Z"
     style="fill:#555753"
     />
</svg>
