<svg xmlns="http://www.w3.org/2000/svg" viewBox="0 0 24 24">
  <path
     style="fill:#555753"
     d="M 10 2 C 7.801297 2 6 3.8012972 6 6 L 6 13 C 6 15.198703 7.801297 17 10 17 C 12.198703 17 14 15.198703 14 13 L 14 6 C 14 3.8012972 12.198703 2 10 2 z M 10 4 C 11.125297 4 12 4.8747028 12 6 L 12 13 C 12 14.125297 11.125297 15 10 15 C 8.874703 15 8 14.125297 8 13 L 8 6 C 8 4.8747028 8.874703 4 10 4 z M 1 14 L 1 17 L 4 17 L 4 14 L 1 14 z M 16 16 C 15.594736 16 15.531728 15.999203 15.300781 16.298828 L 12.300781 19.300781 L 12 19.5625 L 12 20.4375 L 12.300781 20.71875 L 15.300781 23.71875 C 15.470211 23.9 15.650616 24 16 24 L 17 24 L 17 23 C 17 22.73469 16.9 22.470211 16.71875 22.300781 L 15.4375 21 L 23 21 L 23 19 L 15.4375 19 L 16.71875 17.71875 C 16.9069 17.53058 17 17.309973 17 17 L 17 16 L 16 16 z "
     />
</svg>
