<svg xmlns="http://www.w3.org/2000/svg" viewBox="0 0 24 24">
  <path
     style="fill:#555753"
     d="M 5 2 C 5 3.1 4.1 4 3 4 L 3 6 L 5 6 L 5 11 L 7 11 L 7 2 L 5 2 z M 11 3 L 11 5 L 22 5 L 22 3 L 11 3 z M 11 7 L 11 9 L 18 9 L 18 7 L 11 7 z M 5 12 C 3.34 12 2 13.34 2 15 L 4 15 C 4 14.45 4.45 14 5 14 C 5.55 14 6 14.45 6 15 C 6 15.28 5.94 15.42 5.82 15.57 L 2 20.36 L 2 22 L 8 22 L 8 20 L 4.8 20 L 7.3 16.8 C 7.6214145 16.5 8 15.95 8 15 C 8 13.34 6.66 12 5 12 z M 11 14 L 11 16 L 22 16 L 22 14 L 11 14 z M 11 18 L 11 20 L 16 20 L 16 18 L 11 18 z "
     />
</svg>
