<svg xmlns="http://www.w3.org/2000/svg" viewBox="0 0 24 24">
  <path
     style="fill:#555753"
     d="M 9 0 C 7.89543 0 7 0.9 7 2 L 7 10 L 9 10 L 9 4 L 9 2 L 15 2 L 15 7 L 20 7 L 20 10 L 22 10 L 22 7 L 22 6.6894531 C 22.009 6.3023731 21.68178 5.9070962 21.40625 5.6289062 L 16.0625 0.41210938 C 15.77786 0.14281935 15.39605 0 15 0 L 9 0 z M 5 4 C 3.822965 4.0070031 4.177364 3.9870531 3 4.0019531 C 1.895431 4.0019531 1 4.8978332 1 6.0019531 L 1 17 C 1 18.102167 1.895431 19 3 19 L 11 19 L 11 19 L 11 21 L 0 21 L 0 23 L 24 23 L 24 21 L 13 21 L 13 19 L 13 19 L 19 19 L 20 19 C 21.108 18.996094 21.73127 18.072527 22 17 L 23 14 C 23.268731 12.923567 22.1 11.950701 21 12 L 14 12 L 6 12 L 4.65625 16.373047 C 4.56174 16.736017 4.236463 17 3.84375 17 C 3.377346 16.998087 3 16.620507 3 16.154297 L 3 16 C 3 14.3 3 11.55803 3 10 C 3 8.89588 4 8 5 8.0019531 L 5 7.9707031 L 5 3.9707031 z "
     />
</svg>
