<svg viewBox="0 0 24 24" xmlns="http://www.w3.org/2000/svg"><g fill="#2e3436"><path d="m14.5 4a8.5 8.5 0 0 0 -8.5 8.5 8.5 8.5 0 0 0 8.5 8.5 8.5 8.5 0 0 0 1.896484-.234375c-.227152-.395562-.463902-.808332-.638672-1.109375-.054008-.093033-.083681-.145327-.128906-.222656-.265366.004604-.510668.046195-.796875-.00586-1.195045-.217088-2.185357-.906816-2.726562-1.865234-.541207-.958418-.619062-2.162249-.183594-3.294922.196351-.510679.484923-.931749.773437-1.289062a1.006978 1.006978 0 0 1 1.660157.136718l1.068359 1.890625c.029981-.008048.02742.000406.070313-.023437l.908203-.525391c.042373-.024461.030735-.023246.054687-.044922l-1.058593-1.873047a1.006978 1.006978 0 0 1 .748046-1.49414c.230428-.029702.47063-.048325.716797-.050781a1.006978 1.006978 0 0 0 .001953-.001953c.248895-.001863.511484.015105.783204.064453 1.19503.217097 2.185364.906823 2.726562 1.865234s.619034 2.162265.183594 3.294922c-.085391.222075-.238263.409969-.355469.617187l.761719 1.175782a8.5 8.5 0 0 0 2.035156-5.509766 8.5 8.5 0 0 0 -8.5-8.5z" opacity=".35"/><path d="m2 4v2h20v-2zm0 5v2h14.726562c.045632-.001559.090645-.0054.136719-.005859a1.006978 1.006978 0 0 0 .001953-.001953c.071113-.000533.145508.004954.21875.007812h.916016v-2zm0 5v2h9.648438c-.03595-.568396.053158-1.159465.273437-1.732422.035523-.092389.076175-.180902.117187-.267578zm12.855469 0 .568359 1.005859c.029981-.008048.02742.000406.070313-.023437l.908203-.525391c.042373-.024461.030735-.023246.054687-.044922l-.232422-.412109zm5.912109 0c.124937.641572.08688 1.329322-.130859 2h1.363281v-2zm-18.767578 5v2h12v-1.8125c-.138057-.055583-.273418-.11854-.402344-.1875z"/><path d="m16.872073 12.00062c-.20041.002-.40137.0177-.59765.043l1.17187 2.07422c.24106.42608-.0291.91543-.54101 1.21094l-.92383.53512c-.51662.28718-1.0914.24857-1.33203-.17773l-1.17188-2.07422c-.24822.30741-.47543.64891-.61718 1.01758-.67846 1.76471.28457 3.46965 2.15039 3.80859.38982.0709.80079.0545 1.19336.004.0316-.005 2.627917 4.55388 2.627917 4.55388l4.16797.004-3.969717-6.12224c.24817-.30741.44612-.65279.58789-1.02149.67841-1.76466-.28462-3.46964-2.15039-3.80859-.19492-.0354-.39529-.0484-.59571-.0469z" stroke-width="3"/></g></svg>