<svg xmlns="http://www.w3.org/2000/svg" viewBox="0 0 24 24">
  <path
     style="fill:#555753"
     d="M 1 2 L 1 5 L 3 5 L 3 18 L 8 18 L 5 21 L 5 22 L 7 22 L 10.367188 18.632812 C 10.346937 18.613694 10.326825 18.597579 10.306641 18.578125 L 10 18.283203 L 10 16 L 5 16 L 5 5 L 19 5 L 19 10.779297 C 20.156679 12.158906 20.572266 13.615858 20.572266 15.115234 L 20.572266 17.443359 L 21 17.871094 L 21 5 L 23 5 L 23 2 L 1 2 z M 7 6 L 7 8 L 17 8 L 17 6 L 7 6 z M 7 9 L 7 14 L 10 14 L 10 9 L 7 9 z M 12 9 L 12 14 L 15.902344 14 C 15.804585 13.728023 15.638173 13.483024 15.400391 13.304688 L 15 13.003906 L 15 13 L 13 13 L 13 10 L 15 10 L 16 10 L 17 10 L 17 9 L 12 9 z M 8 10 L 9 10 L 9 13 L 8 13 L 8 10 z M 16 11 L 16 12.503906 C 16.628416 12.975217 16.998772 13.714482 17 14.5 C 17 15.880712 15.880712 17 14.5 17 C 13.713794 16.999386 12.973676 16.628965 12.501953 16 L 11 16 L 11 17.857422 C 12.371429 19.179273 13.804414 19.572266 15.115234 19.572266 L 17.857422 19.572266 L 21.285156 23 L 23 23 L 23 21.285156 L 19.572266 17.857422 L 19.572266 15.115234 C 19.572266 13.60327 19.203659 12.371429 17.857422 11 L 16 11 z M 15.572266 20.572266 L 17 22 L 18.871094 22 L 17.443359 20.572266 L 15.572266 20.572266 z "
     />
</svg>
