<svg viewBox="0 0 24 24" xmlns="http://www.w3.org/2000/svg"><g fill="#555753"><path d="m12 4c-5.5228475 0-10 3.581722-10 8s4.4771525 8 10 8c5.522847 0 10-3.581722 10-8v-1h-9v-7zm-1 2.0546875v6.9453125h8.878906c-.650045 2.884299-3.978625 4.996636-7.878906 5-4.418278 0-8-2.686292-8-6 .005121-3.0208094 3.0038411-5.5677135 7-5.9453125z"/><path d="m11 6.0546875v6.9453125h8.878906c-.650045 2.884299-3.978625 4.996636-7.878906 5-4.418278 0-8-2.686292-8-6 .005121-3.0208094 3.0038411-5.5677135 7-5.9453125z" opacity=".35"/></g></svg>