<svg xmlns="http://www.w3.org/2000/svg" viewBox="0 0 24 24">
  <path
     style="fill:#555753"
     d="M 13 1 L 13 15 L 15 15 L 19 15 C 21.209139 15 23 13.209139 23 11 C 23 8.790861 21.209139 7 19 7 L 15 7 L 15 1 L 13 1 z M 3 5 L 3 7 L 9 7 L 9 9 L 4 9 C 2.3431458 9 1 10.343146 1 12 C 1 13.124571 1.625368 14.093783 2.5410156 14.607422 L 4.1484375 13 L 4 13 C 3.4477153 13 3 12.552285 3 12 C 3 11.447715 3.4477153 11 4 11 L 9 11 L 9 13 L 8 13 L 8 14 C 8 14.338033 7.9140787 14.684641 7.7382812 15 L 9 15 L 11 15 L 11 7 C 11 5.89543 10.10457 5 9 5 L 3 5 z M 15 9 L 19 9 C 20.104569 9 21 9.8954305 21 11 C 21 12.104569 20.104569 13 19 13 L 15 13 L 15 9 z M 6 13 C 5.73469 13.00003 5.46942 13.09311 5.28125 13.28125 L 1.28125 17.28125 L 1 17.5625 L 1 18.4375 L 1.28125 18.71875 L 5.28125 22.71875 C 5.46943 22.90696 5.73471 23 6 23 L 7 23 L 7 22 C 7.00004 21.73469 6.90686 21.46943 6.71875 21.28125 L 4.4375 19 L 23 19 L 23 17 L 4.4375 17 L 6.71875 14.71875 C 6.9069 14.53058 7 14.2653 7 14 L 7 13 L 6 13 z "
     />
</svg>
