<svg viewBox="0 0 24 24" xmlns="http://www.w3.org/2000/svg"><path d="m2 2v2h20v-2zm0 3v.4121094.5878906c0 .30945.0903.55232.28125.75l3.8828125 4.25h1.6152344l3.9394531-4.25c.19095-.19768.28125-.395782.28125-.75v-.5878906-.4121094h-1c-.455742 0-.660756.3378988-1 .6835938l-3 3.3164062-3-3.3164062c-.330518-.3857981-.515682-.6835938-1-.6835938zm11 1v2h9v-2zm-6.8359375 7-3.8828125 4.25c-.19095.19768-.28125.44055-.28125.75v.587891.412109h1c.484318 0 .669482-.297796 1-.683594l3-3.316406 3 3.316406c.339244.345695.544258.683594 1 .683594h1v-.412109-.587891c0-.354218-.0903-.55232-.28125-.75l-3.9394531-4.25zm6.8359375 3v2h9v-2zm-11 4v2h20v-2z" fill="#555753"/></svg>