<svg xmlns="http://www.w3.org/2000/svg" viewBox="0 0 24 24">
  <path
     style="fill:#555753"
     d="M 1 2 L 1 4 C 1.5522847 4 2 4.447715 2 5 L 2 8 L 4 8 L 4 2 L 1 2 z M 9 2 C 6.784 2 5 3.784 5 6 L 5 18 C 5 20.216 6.784 22 9 22 L 15 22 C 15.143885 22 15.278425 21.968375 15.417969 21.953125 L 12.464844 19 L 9 19 C 8.446 19 8 18.554 8 18 L 8 6 C 8 5.446 8.446 5 9 5 L 15 5 C 15.554 5 16 5.446 16 6 L 16 15.464844 L 18.953125 18.417969 C 18.968381 18.278425 19 18.143885 19 18 L 19 6 C 19 3.784 17.216 2 15 2 L 9 2 z M 20 2 L 20 8 L 22 8 L 22 5 C 22 4.447715 22.447715 4 23 4 L 23 2 L 20 2 z M 13 14 L 11 16 L 18 23 L 20 21 L 13 14 z "
     />
</svg>
