<svg viewBox="0 0 24 24" xmlns="http://www.w3.org/2000/svg"><path d="m4 2v2h-2v5h2v6h-2v5h2v2h8v-2h-6v-16h13v7h2v-9zm18.279297 10c-.07438 0-.149636.014393-.21875.039062l-4.226563 1.40625c-1.797075.090644-3.293984 1.594688-3.388672 3.388672l-.054687.166016-1.353516 4.058594c-.154245.464591.194132.941406.683594.941406.07438 0 .149636-.014393.21875-.039062l4.060547-1.351563v-.007813l.166016-.048828c1.793984-.08801 3.29804-1.589436 3.388672-3.386718l1.408203-4.22461c.154245-.464604-.194132-.941406-.683594-.941406zm-4.279297 3c1.104569 0 2 .895431 2 2s-.895431 2-2 2-2-.895431-2-2 .895431-2 2-2z" fill="#555753"/></svg>