<svg xmlns="http://www.w3.org/2000/svg" viewBox="0 0 24 24">
  <path
     style="fill:#555753"
     d="m 15,4 c 0.30945,0 0.55232,0.09029 0.75,0.28125 L 21,9.125 v 1.705078 C 19.916535,11.788212 16.833468,14.898121 15.75,15.71875 15.55232,15.9097 15.30945,16 15,16 H 14.414063 14 v -1 c 0,-0.25689 0.12983,-0.52846 0.3125,-0.71875 L 17.822266,11 H 8 c -1.656854,0 -3,1.343146 -3,3 0,1.656854 1.343146,3 3,3 v 2 C 5.238576,19 3,16.761424 3,14 3,11.238576 5.238576,9 8,9 h 9.822266 L 14.3125,5.71875 C 14.12983,5.52846 14,5.2497144 14,5 V 4 h 0.414063 z"
     />
</svg>
