<svg viewBox="0 0 24 24" xmlns="http://www.w3.org/2000/svg"><g fill="#2e3436" stroke-width="2"><path d="m15 2c-1.661992 0-3 1.3380068-3 3v15c0 1.661992 1.338008 3 3 3h5c1.661992 0 3-1.338008 3-3v-11-1c-.000102-.5303959-.210866-1.0390407-.585938-1.4140625l-4-4c-.375021-.375071-.883667-.5858353-1.414062-.5859375h-1zm.5 2h.5v3c0 .999997 1.000003 2 2 2h3v10.5c0 .830996-.669004 1.5-1.5 1.5h-4c-.830996 0-1.5-.669004-1.5-1.5v-14c0-.8309968.669004-1.5 1.5-1.5z"/><path d="m9 2c1.661992 0 3 1.3380068 3 3v15c0 1.661992-1.338008 3-3 3h-5c-1.661992 0-3-1.338008-3-3v-11-1c.000102-.5303959.210866-1.0390407.585938-1.4140625l4-4c.375021-.375071.883667-.5858353 1.414062-.5859375h1zm-.5 2h-.5v3c0 .999997-1.000003 2-2 2h-3v10.5c0 .830996.669004 1.5 1.5 1.5h4c.830996 0 1.5-.669004 1.5-1.5v-14c0-.8309968-.669004-1.5-1.5-1.5z"/></g></svg>