<svg viewBox="0 0 24 24" xmlns="http://www.w3.org/2000/svg"><path d="m5 2v.5136719 18.4863281h1.7792969l3.1035156-3.353516 1.5624995 2.927735c.361829.702173.91354 1.132515 1.453126 1.294922.365574.110827.736225.137044 1.101562.105468v-2.027343c-.195478.040412-.398285.04516-.521484.007812-.09802-.03339-.160339-.08896-.183594-.138672-.945845-1.906757-1.908886-3.806907-2.865234-5.708984l-3.429688 3.708984v-12.816406h.3867188l8.0117192 7h3.126953l-11.5839848-10zm6.736328 11 2.263672 4.902344v-4.902344zm3.263672 0v2h3v6h-3v2h8v-2h-3v-6h3v-2z" fill="#2e3436"/></svg>