<svg xmlns="http://www.w3.org/2000/svg" viewBox="0 0 24 24">
  <path
     style="fill:#555753"
     d="M 2,17 H 12 V 7 H 2 Z M 4,15 V 9 h 6 v 6 z m 10,5 h 1 c 0.26448,0.02085 0.529799,-0.1 0.699219,-0.300781 L 17,18.4375 V 19 22 h 2 v -3 -0.5625 l 1.300781,1.28125 C 20.470211,19.9 20.73469,20 21,20 h 1 v -1 c -0.02066,-0.264484 -0.1,-0.53057 -0.28125,-0.71875 l -3,-3 L 18.4375,15 h -0.875 l -0.28125,0.300781 -3,3 C 14.1,18.470201 14,18.73469 14,19 Z M 14,5 c 0,0.26531 0.1,0.529799 0.28125,0.699219 l 3,3 L 17.5625,9 h 0.875 l 0.28125,-0.28125 3,-3 C 21.9,5.53057 21.979341,5.264484 22,5 V 4 H 21 C 20.73469,4 20.470211,4.1 20.300781,4.28125 L 19,5.5625 V 5 2 H 17 V 5 5.5625 L 15.699219,4.300781 C 15.529799,4.1 15.26448,3.979154 15,4 h -1 z"
     />
</svg>
