<svg viewBox="0 0 24 24" xmlns="http://www.w3.org/2000/svg"><path d="m8 1v8h2v-1h4v1h2v-8zm2 2h4v3h-4zm-4 5c-.30945 0-.55232.0903-.75.28125l-3.25 2.882812v1.615235c.725151.618354 2.233922 2.169859 3.25 2.939453.19768.19095.44055.28125.75.28125h.5878906.4121094v-1c0-.224022-.12983-.528449-.3125-.71875l-1.3710938-1.28125h4.6835938v-2h-4.6835938l1.3710938-1.28125c.18267-.190288.2972775-.4623094.3125-.71875v-1h-.4121094zm11 0v1c.015222.2564406.12983.528462.3125.71875l1.371094 1.28125h-4.683594v2h4.683594l-1.371094 1.28125c-.18267.190301-.3125.494728-.3125.71875v1h.412109.587891c.30945 0 .55232-.0903.75-.28125 1.016078-.769594 2.524849-2.321099 3.25-2.939453v-1.615235l-3.25-2.882812c-.19768-.19095-.44055-.28125-.75-.28125h-.587891zm-9 7v8h8v-8h-2v1h-4v-1zm2 3h4v3h-4z" fill="#555753"/></svg>