<svg viewBox="0 0 24 24" xmlns="http://www.w3.org/2000/svg"><path d="m20.800781 1.0273438-1.601562 1.5957031 1.601562 1.5976562 1.59961 1.5976563 1.599609-1.5976563c0-.2156906.003499-.434719-.050781-.6464843-.03627-.1767787-.135059-.3351894-.199219-.5-.388757-.9986453-1.227971-1.7769258-2.300781-1.9960938-.016-.0032-.032828.0032-.048828 0-.196875-.04672-.39961-.0507812-.59961-.0507812zm-16.800781.9726562c-1.108 0-2 .892-2 2v17c0 1.108.892 2 2 2h1v-9h2v-.609375c.7981563-.796896 1.5964773-1.593627 2.3945312-2.390625h-3.3945312c-.554 0-1-.446-1-1v-4c0-.554.446-1 1-1h9.40625c1.001547-.9997547 2.001945-2.000661 3.003906-3zm13.599609 2.2207031-9.599609 9.5839849v3.195312h3.199219l9.601562-9.5820312zm4.400391 3.4101563c-2.126431 2.1235697-4.253842 4.2461576-6.380859 6.3691406h3.380859v9h1c1.108 0 2-.892 2-2zm-8.382812 8.3691406c-.667944.666693-1.336006 1.333266-2.003907 2h-.613281v3h-2v-3h-2v5h10v-7z" fill="#555753"/></svg>