<svg viewBox="0 0 24 24" xmlns="http://www.w3.org/2000/svg"><path d="m4 1v22h6v-22zm8 1v1.7070312l2.792969 2.7929688-2.792969 2.7929688v1.7070312h1.707031l2.792969-2.7929688 2.792969 2.7929688h1.707031v-1.7070312l-2.792969-2.7929688 2.792969-2.7929688v-1.7070312h-1.707031l-2.792969 2.7929688-2.792969-2.7929688zm-6 1h2v2h-2zm0 4h2v2h-2zm0 4h2v2h-2zm6 2v1.707031l2.792969 2.792969-2.792969 2.792969v1.707031h1.707031l2.792969-2.792969 2.792969 2.792969h1.707031v-1.707031l-2.792969-2.792969 2.792969-2.792969v-1.707031h-1.707031l-2.792969 2.792969-2.792969-2.792969zm-6 2h2v2h-2zm0 4h2v2h-2z" fill="#555753"/></svg>