<svg viewBox="0 0 24 24" xmlns="http://www.w3.org/2000/svg"><g fill="#555753"><path d="m1 4v8.207031 7.792969h10 1.417969c-.717118-.31445-1.433144-.768207-2.111328-1.421875a1.0001 1.0001 0 0 1 -.294922-.578125h-7.011719v-6-6h18v6 5.871094l2 2v-7.664063-8.207031zm15 7v1.503906c.628416.471311.998772 1.210576 1 1.996094 0 1.380712-1.119288 2.5-2.5 2.5-.786206-.000614-1.526324-.371035-1.998047-1h-1.501953v1.857422c1.371429 1.321851 2.804414 1.714844 4.115234 1.714844h2.742188l3.427734 3.427734h1.714844v-1.714844l-3.427734-3.427734v-2.742188c0-1.511964-.368607-2.743805-1.714844-4.115234z"/><path d="m4.5 7c-.277 0-.5.223-.5.5v1c0 .277.223.5.5.5h15c.277 0 .5-.223.5-.5v-1c0-.277-.223-.5-.5-.5zm-.5 3v7h6v-1a1.0001 1.0001 0 0 1 1-1v-5zm8 0v5h.501953a1.0001 1.0001 0 0 1 .800781.400391c.283558.378077.72467.59924 1.197266.599609.839612 0 1.498964-.658719 1.5-1.498047-.000738-.47218-.221864-.913958-.599609-1.197265a1.0001 1.0001 0 0 1 -.400391-.800782v-1.503906a1.0001 1.0001 0 0 1 1-1zm5.857422 0a1.0001 1.0001 0 0 1 .71289.298828c.656101.668379 1.113253 1.356917 1.429688 2.060547v-2.359375z" opacity=".35"/><path d="m16 11v1.503906c.628416.471311.998772 1.210576 1 1.996094 0 1.380712-1.119288 2.5-2.5 2.5-.786206-.000614-1.526324-.371035-1.998047-1h-1.501953v1.857422c1.371429 1.321851 2.804414 1.714844 4.115234 1.714844h2.742188l3.427734 3.427734h1.714844v-1.714844l-3.427734-3.427734v-2.742188c0-1.511964-.368607-2.743805-1.714844-4.115234z"/></g></svg>