<svg viewBox="0 0 24 24" xmlns="http://www.w3.org/2000/svg"><path d="m1 2v2h8v6h2v-8h-2zm12 0v8h2v-6h8v-2h-8zm-7 5c-.26531 0-.5297988.1-.6992188.28125l-4 4-.3007812.28125v.875l.28125.28125 4 4c.18818.18125.45346.28125.71875.28125h1v-1c0-.26531-.1-.529789-.28125-.699219l-2.28125-2.300781h15.125l-2.28125 2.300781c-.18125.16943-.28125.256978-.28125.699219v1h1c.26529 0 .53057-.1.71875-.28125l4-4 .28125-.28125v-.875l-.300781-.28125-4-4c-.16942-.18125-.433909-.28125-.699219-.28125h-1v1c0 .4178371.1.5297987.300781.6992188l2.261719 2.3007812h-15.125l2.2617188-2.3007812c.200781-.1694201.3007812-.3173363.3007812-.6992188v-1zm3 7v6h-8v2h8 2v-8zm4 0v8h2 8v-2h-8v-6z" fill="#555753"/></svg>