<svg viewBox="0 0 24 24" xmlns="http://www.w3.org/2000/svg">
  <path
     style="fill:#555753"
     d="M 18 1 L 18 7.5625 L 15.71875 5.28125 C 15.53057 5.09314 15.26531 4.99996 15 5 L 14 5 L 14 6 C 14 6.26529 14.09304 6.53057 14.28125 6.71875 L 18.28125 10.71875 L 18.5625 11 L 19.4375 11 L 19.71875 10.71875 L 23.71875 6.71875 C 23.90689 6.53058 23.99997 6.26531 24 6 L 24 5 L 23 5 C 22.7347 5 22.46942 5.0931 22.28125 5.28125 L 20 7.5625 L 20 1 L 18 1 z M 4 4 L 4 7 L 12 7 C 13.104569 7 14 7.8954305 14 9 L 14 10 L 5.5 10 C 3.0147186 10 1 12.014719 1 14.5 C 1 16.985281 3.0147186 19 5.5 19 L 17 19 L 17 10.851562 L 13.574219 7.4257812 C 13.170236 7.021863 13 6.499097 13 6 L 13 4.0996094 C 12.67693 4.0340384 12.342421 4 12 4 L 4 4 z M 5.5 13 L 14 13 L 14 16 L 5.5 16 C 4.6715729 16 4 15.328427 4 14.5 C 4 13.671573 4.6715729 13 5.5 13 z "
     />
</svg>
