<svg viewBox="0 0 24 24" xmlns="http://www.w3.org/2000/svg"><g fill="#2e3436"><path d="m5 3c-1.6619932 0-3 1.3380068-3 3v12c0 1.661992 1.3380068 3 3 3h6.287109a7 7 0 0 1 -.970703-2h-4.816406c-.8309976 0-1.5-.669003-1.5-1.5v-11c0-.8309976.6690024-1.5 1.5-1.5h13c.830997 0 1.5.6690024 1.5 1.5v4.177734a7 7 0 0 1 2 1.427735v-6.105469c0-1.6619932-1.338008-3-3-3zm1.5 3c-.8284247 0-1.5.6715753-1.5 1.5s.6715753 1.5 1.5 1.5 1.5-.6715753 1.5-1.5-.6715753-1.5-1.5-1.5zm3.5 1v2h9v-2zm-3.5 3c-.8284247 0-1.5.671576-1.5 1.5s.6715753 1.5 1.5 1.5 1.5-.671576 1.5-1.5-.6715753-1.5-1.5-1.5zm3.5 1v2h1.287109a7 7 0 0 1 2.123047-2zm-5 4v3h5.085938a7 7 0 0 1 -.085938-1 7 7 0 0 1 .316406-2z"/><path d="m17 11a1.0001 1.0001 0 0 0 -.943359.667969l-1.140625 3.248047-3.248047 1.140625a1.0001 1.0001 0 0 0 0 1.886718l3.248047 1.140625 1.140625 3.248047a1.0001 1.0001 0 0 0 1.886718 0l1.140625-3.248047 3.248047-1.140625a1.0001 1.0001 0 0 0 0-1.886718l-3.248047-1.140625-1.140625-3.248047a1.0001 1.0001 0 0 0 -.943359-.667969zm0 5a1 1 0 0 1 1 1 1 1 0 0 1 -1 1 1 1 0 0 1 -1-1 1 1 0 0 1 1-1z"/><path d="m20.537109 12.464843a1.0001 1.0001 0 0 0 -.433593.09766l-1.125001.541015.498047 1.419922 1.419922.498048.541016-1.125a1.0001 1.0001 0 0 0 -.900391-1.431642zm-6.933593.0098a1.0001 1.0001 0 0 0 -.845703.283202 1.0001 1.0001 0 0 0 -.195313 1.138673l.541016 1.125 1.419922-.498048.498047-1.419922-1.125001-.541015a1.0001 1.0001 0 0 0 -.292968-.08789zm-.500001 6.503906-.541015 1.124999a1.0001 1.0001 0 0 0 1.333985 1.333985l1.124999-.541015-.498046-1.419923zm7.79297 0-1.419923.498046-.498046 1.419923 1.124999.541015a1.0001 1.0001 0 0 0 1.333985-1.334018z" opacity=".35"/></g></svg>