<svg viewBox="0 0 24 24" xmlns="http://www.w3.org/2000/svg"><g fill="#2e3436"><path d="m2 15v3c0 1.661984 1.3380137 3 3 3h7 7c1.661986 0 3-1.338016 3-3v-3zm2 1h16v2c0 .553992-.446005 1-1 1h-7-7c-.5539952 0-1-.446008-1-1z"/><path d="m4 16v2c0 .553991.4460054 1 1 1h14c.553994 0 1-.446009 1-1v-2z" opacity=".35" stroke-linecap="square" stroke-opacity=".566502"/><path d="m2 3v3c0 1.661984 1.3380137 3 3 3h7 7c1.661986 0 3-1.338016 3-3v-3zm2 1h16v2c0 .553992-.446005 1-1 1h-7-7c-.5539952 0-1-.446008-1-1z"/><path d="m4 4v2c0 .553991.4460054 1 1 1h14c.553994 0 1-.446009 1-1v-2z" opacity=".35" stroke-linecap="square" stroke-opacity=".566502"/><path d="m2 9v3c0 1.661984 1.3380137 3 3 3h7 7c1.661986 0 3-1.338016 3-3v-3zm2 1h16v2c0 .553992-.446005 1-1 1h-7-7c-.5539952 0-1-.446008-1-1z"/><path d="m4 10v2c0 .553991.4460054 1 1 1h14c.553994 0 1-.446009 1-1v-2z" opacity=".35" stroke-linecap="square" stroke-opacity=".566502"/></g></svg>