<svg xmlns="http://www.w3.org/2000/svg" viewBox="0 0 24 24">
  <path
     style="fill:#555753"
     d="M 13 1 L 13 13 L 13.001953 13 L 15 13 L 19 13 C 21.2 13 23 11.2 23 9 C 23 6.8 21.2 5 19 5 L 15 5 L 15 1 L 13 1 z M 3 3 L 3 5 L 9 5 L 9 7 L 4 7 C 2.3431458 7 1 8.343146 1 10 C 1 11.656854 2.3431458 13 4 13 L 11 13 L 11 5 C 11 3.89543 10.10457 3 9 3 L 3 3 z M 15 7 L 19 7 C 20.104569 7 21 7.8954305 21 9 C 21 10.104569 20.104569 11 19 11 L 15 11 L 15 10 L 15 7 z M 4 9 L 9 9 L 9 11 L 4 11 C 3.4477153 11 3 10.552285 3 10 C 3 9.447715 3.4477153 9 4 9 z M 21 13 L 15 19 L 13 17 L 11 19 L 15 23 L 23 15 L 21 13 z "
     />
</svg>
