<svg xmlns="http://www.w3.org/2000/svg" viewBox="0 0 24 24">
  <path
     style="fill:#555753"
     d="M 12,3 C 10.343146,3 9,4.3431458 9,6 9.0009552,7.2705212 9.8021406,8.4026652 11,8.826172 V 10 H 8 v 2 h 3 v 6.808594 c -1.935839,-0.274129 -3.836666,-1.35009 -5,-2.8 L 7,15.5 l -1,-2 -4,2 1,2 1.236328,-0.644531 C 5.955391,19.207972 8.862559,21 12,21 c 3.137441,0 6.04,-1.792028 7.763672,-4.144531 L 21,17.5 l 1,-2 -4,-2 -1,2 1,0.508594 c -1.16,1.44991 -3.06,2.525871 -5,2.8 V 12 h 3 V 10 H 13 V 8.824219 C 14.197185,8.4009517 14.998218,7.2698043 15,6 15,4.3431458 13.656854,3 12,3 Z m 0,2 c 0.552285,0 1,0.4477153 1,1 0,0.5522847 -0.447715,1 -1,1 -0.552285,0 -1,-0.4477153 -1,-1 0,-0.5522847 0.447715,-1 1,-1 z"
     />
</svg>
