<svg height="24" viewBox="0 0 24 24" width="24" xmlns="http://www.w3.org/2000/svg"><path d="m5 2a3 3 0 0 0 -3 3 3 3 0 0 0 2.46875 2.9511719l2.0292969 8.4550781a3 3 0 0 0 -1.4980469 2.59375 3 3 0 0 0 3 3 3 3 0 0 0 2.826172-2h5.173828v-1-1h-5.175781a3 3 0 0 0 -2.4160159-1.96875l-2.0117187-8.3789062a3 3 0 0 0 1.4296875-1.6523438h8.3515621c.297156.8360295.952798 1.5187686 1.822266 1.8261719v3.7402341l-.027344.433594h.027344v4.175781a3 3 0 0 0 -2 2.824219 3 3 0 0 0 3 3 3 3 0 0 0 3-3 3 3 0 0 0 -2-2.826172v-4.173828-4.1757812c1.197184-.4232672 1.998218-1.5544146 2-2.8242188 0-1.6568542-1.343146-3-3-3-1.30451 0-2.403282.8371952-2.816406 2h-8.3593752a3 3 0 0 0 -2.8242188-2zm0 2a1 1 0 0 1 1 1 1 1 0 0 1 -1 1 1 1 0 0 1 -1-1 1 1 0 0 1 1-1zm14 0c.552285 0 1 .4477153 1 1s-.447715 1-1 1-1-.4477153-1-1 .447715-1 1-1zm-11 14a1 1 0 0 1 1 1 1 1 0 0 1 -1 1 1 1 0 0 1 -1-1 1 1 0 0 1 1-1zm11 0a1 1 0 0 1 1 1 1 1 0 0 1 -1 1 1 1 0 0 1 -1-1 1 1 0 0 1 1-1z" fill="#2e3436"/></svg>