<svg viewBox="0 0 24 24" xmlns="http://www.w3.org/2000/svg">
  <path
     style="fill:#555753"
     d="M 2 3 L 2 22 L 18.871094 22 L 17.443359 20.572266 L 15.115234 20.572266 C 14.265219 20.572266 13.340602 20.404566 12.417969 20 L 10 20 L 10 18.283203 L 10 17 L 10 16 L 10 15 L 10 13 L 14 13 L 14 15.902344 C 14.159551 15.959455 14.325522 15.999864 14.5 16 C 14.677262 16 14.843306 15.966333 15 15.912109 L 15 13.003906 L 15 13 L 15 12 L 15 11 L 15 10 L 15 9 L 20 9 L 20 12 L 19.830078 12 C 20.362899 13.008819 20.572266 14.051312 20.572266 15.115234 L 20.572266 17.443359 L 22 18.871094 L 22 3 L 2 3 z M 4 5 L 9 5 L 9 8 L 4 8 L 4 5 z M 10 5 L 14 5 L 14 8 L 10 8 L 10 5 z M 15 5 L 20 5 L 20 8 L 15 8 L 15 5 z M 4 9 L 9 9 L 9 12 L 4 12 L 4 9 z M 10 9 L 14 9 L 14 12 L 10 12 L 10 9 z M 16 11 L 16 12.503906 C 16.628416 12.975217 16.998772 13.714482 17 14.5 C 17 15.880712 15.880712 17 14.5 17 C 13.713794 16.999386 12.973676 16.628965 12.501953 16 L 11 16 L 11 17.857422 C 12.371429 19.179273 13.804414 19.572266 15.115234 19.572266 L 17.857422 19.572266 L 21.285156 23 L 23 23 L 23 21.285156 L 19.572266 17.857422 L 19.572266 15.115234 C 19.572266 13.60327 19.203659 12.371429 17.857422 11 L 16 11 z M 4 13 L 9 13 L 9 16 L 4 16 L 4 13 z M 4 17 L 9 17 L 9 20 L 4 20 L 4 17 z "
     />
</svg>
