<svg viewBox="0 0 24 24" xmlns="http://www.w3.org/2000/svg"><g fill="#555753"><path d="m3 2v21h7 5.15625 1.84375 3v-8.5l-2 2v4.5h-.84375c-.052092.052075-.104163.10417-.15625.15625v-.15625h-7-5v-17h10l3 3v1.6875c.514218-.515084 1.03384-1.031746 1.546875-1.546875l.292969-.296875.160156-.1617956v-.6819544l-4-4zm7 3v2h5v-2zm11.5 1.5-2 2c.917143.9149461 1.314944 1.3790777 2.232086 2.276567l2.022979-1.9671452c-.099973-1.4725562-1.069793-2.0978217-2.255065-2.3094218zm-3 3-7.5 7.257812v2.242188h2.742188l7.015119-7.251682zm-12.5 1.5v2h7v-2zm0 3v2h3l2-2z"/><path d="m6 5v2h3v-2zm0 3v2h9l2-2zm0 9v2h3v-2z" opacity=".35"/></g></svg>