<svg xmlns="http://www.w3.org/2000/svg" viewBox="0 0 24 24">
  <path
     style="fill:#555753"
     d="M 6.5 1 C 4.569289 0.99999729 3.003232 2.5634326 3 4.4941406 L 3 4.5 L 3 21 C 3 22.108 3.892 23 5 23 L 21.304688 23 L 21.304688 6 L 20 6 L 20 4 L 19 4 L 19 1 L 18.535156 1 L 17 1 L 6.5 1 z M 6.5 3 L 17 3 L 17 4 L 6 4 L 6 5 L 17 5 L 18 5 L 18 6 L 6.5 6 L 6.5 5.9941406 C 5.653134 5.9312391 5.00056 5.2812134 5 4.5 C 5.00056 3.7187866 5.653134 3.0687621 6.5 3.0058594 L 6.5 3 z M 5 8 L 19 8 L 19 21 L 5 21 L 5 8 z M 7 12 L 7 13 L 10 13 L 10 14 L 7.5 14 C 6.6715729 14 6 14.671573 6 15.5 C 6 16.328427 6.6715729 17 7.5 17 L 11 17 L 11 13 C 11 12.447715 10.552285 12 10 12 L 7 12 z M 13 12 L 13 13 L 16.292969 13 L 13 16.292969 L 13 17 L 18 17 L 18 16 L 14.707031 16 L 18 12.707031 L 18 12 L 17.292969 12 L 13 12 z M 7.5 15 L 10 15 L 10 16 L 7.5 16 C 7.2238576 16 7 15.776142 7 15.5 C 7 15.223858 7.2238576 15 7.5 15 z "
     />
  <circle
     r="0"
     cy="10"
     cx="11"
     style="opacity:0.35;fill:#555753"
     />
</svg>
