<svg viewBox="0 0 24 24" xmlns="http://www.w3.org/2000/svg"><path d="m3 2v9h2v-7h8v5h5v6h2v-7l-6-6zm2 10c-2.209139 0-4 1.790861-4 4s1.790861 4 4 4h4.8222656l-1.5097656 1.28125c-.18267.19029-.3125.46186-.3125.71875v1h.4140625.5859375c.30945 0 .55232-.09029.75-.28125l3.25-2.84375v-1.705078c-1.083465-.958134-2.166532-2.068043-3.25-2.888672-.19768-.19095-.44055-.28125-.75-.28125h-.5859375-.4140625v1c0 .25689.12983.52846.3125.71875l1.5097656 1.28125h-4.8222656c-1.1045695 0-2-.895431-2-2s.8954305-2 2-2h1v-2zm9 4v7h9v-7zm1 1h3v2h-3zm4 0h3v2h-3zm-4 3h3v2h-3zm4 0h3v2h-3z" fill="#555753"/></svg>