<svg viewBox="0 0 24 24" xmlns="http://www.w3.org/2000/svg"><path d="m3 2c-.554 0-1 .3794493-1 1v3h2v-2h5.5c.276142 0 .5.2238576.5.5v9.5h4v-9.5c0-.2761424 0-.5.5-.5h5.5v2h2v-3c0-.554-.446-1-1-1zm4 10c-.26529 0-.53057.09304-.71875.28125l-4 4-.28125.28125v.875l.28125.28125 4 4c.18817.18814.45344.28122.71875.28125h1v-1c0-.2653-.0931-.53058-.28125-.71875l-2.28125-2.28125h6.5625 6.5625l-2.28125 2.28125c-.18815.18817-.28125.45345-.28125.71875v1h1c.26531-.00003.53058-.09311.71875-.28125l4-4 .28125-.28125v-.875l-.28125-.28125-4-4c-.18818-.18821-.45346-.28125-.71875-.28125h-1v1c-.00004.26531.09314.53057.28125.71875l2.28125 2.28125h-6.5625-6.5625l2.28125-2.28125c.18811-.18818.28125-.45344.28125-.71875v-1z" fill="#555753"/></svg>