<svg xmlns="http://www.w3.org/2000/svg" viewBox="0 0 24 24">
  <path
     style="fill:#555753"
     d="M 4 2 L 4 20 L 2.71875 18.3125 C 2.52845 18.12983 2.25689 18 2 18 L 1 18 L 1 18.414062 L 1 19 C 1 19.30945 1.0903 19.55232 1.28125 19.75 C 2 20.774166 3.0999997 21.975838 4.0117188 23 L 6.03125 23 L 8.71875 19.75 C 8.9097 19.55232 9 19.30945 9 19 L 9 18.414062 L 9 18 L 8 18 C 7.74311 18 7.47154 18.12983 7.28125 18.3125 L 6 20 L 6 2 L 4 2 z M 10 2 L 10 5 L 18 5 A 2 2 0 0 1 20 7 L 20 8 L 11.5 8 C 9.0147186 8 7 10.014719 7 12.5 C 7 14.985281 9.0147186 17 11.5 17 L 23 17 L 23 10 L 23 7 A 5 5 0 0 0 18 2 L 10 2 z M 11.5 11 L 20 11 L 20 14 L 11.5 14 C 10.671573 14 10 13.328427 10 12.5 C 10 11.671573 10.671573 11 11.5 11 z M 12 18 L 12 18.414062 L 12 19 C 12 19.30945 12.0903 19.55232 12.28125 19.75 C 13 20.774166 14.1 21.975838 15.011719 23 L 17.03125 23 L 19.71875 19.75 C 19.9097 19.55232 20 19.30945 20 19 L 20 18.414062 L 20 18 L 19 18 C 18.74311 18 18.47154 18.12983 18.28125 18.3125 L 17 20 L 17 18 L 15 18 L 15 20 L 13.71875 18.3125 C 13.52845 18.12983 13.25689 18 13 18 L 12 18 z "
     />
</svg>
