<svg viewBox="0 0 24 24" xmlns="http://www.w3.org/2000/svg"><path d="m.609375 0c-.3458 0-.609375.263945-.609375.609375v13.775391c0 .34545.263575.609375.609375.609375h7.0292969c.10707-.5234.6512281-1.516731.8613281-1.994141h-6.5l-.029661-10.8925781 11.029661-.1074219v6c.47745-.21008 1.472654-.2542281 1.996094-.3613281v-7.0292969c0-.34543-.263565-.609375-.609375-.609375zm9.708984 2.9921875-3.818359 4.0078125-1.8066406-1.609375-1.2152079 1.8007812 3.0218485 3.8085938 5.503906-6.2089844zm6.175782 6.0136719c-4.13669 0-7.4902348 3.3538546-7.4902348 7.4902346s3.3535448 7.488281 7.4902348 7.488281c4.1367 0 7.490234-3.351901 7.490234-7.488281s-3.353534-7.4902346-7.490234-7.4902346zm-.0078 1.8964846c3.09473 0 5.603516 2.507022 5.603516 5.601562 0 3.09459-2.508786 5.603516-5.603516 5.603516-3.09474 0-5.603516-2.508926-5.603516-5.603516-.000069-3.09454 2.508776-5.601562 5.603516-5.601562zm.0078 2.609375c-1.64809 0-2.984375 1.336425-2.984375 2.984375 0 1.64799 1.336285 2.982422 2.984375 2.982422 1.64812 0 2.984375-1.334432 2.984375-2.982422 0-1.64795-1.336255-2.984375-2.984375-2.984375zm-13.494141 2.984375v4.498047h.7480469.75 1.5v1.498047l3-2.248047-3-2.25v1.5h-1.5v-2.998047z" fill="#555753"/></svg>