<svg viewBox="0 0 24 24" xmlns="http://www.w3.org/2000/svg"><g fill="#2e3436"><path d="m5 7c-1.6619864 0-3 1.3380136-3 3v9c0 1.661984 1.3380136 3 3 3h3c1.6619864 0 3-1.338016 3-3v-1h2c1.088638 0 2.034899-.576278 2.560547-1.439453-.454603.276839-.9872.439453-1.560547.439453h-3c-.890926 0-1.6858504-.38722-2.234375-1h-4.765625v-3h4v-1h-4v-1.5c0-.8309952.6690048-1.5 1.5-1.5h2.5v-2zm-1 10h5v1.5c0 .830994-.6690048 1.5-1.5 1.5h-2c-.8309952 0-1.5-.669006-1.5-1.5z" opacity=".35"/><path d="m11 2c-1.6619881 0-3 1.3380119-3 3v9c0 1.661986 1.3380119 3 3 3h3c1.661988 0 3-1.338014 3-3v-1h2c1.661986 0 3-1.338014 3-3v-5c0-1.6619881-1.338014-3-3-3zm.5 2h7c.830995 0 1.5.669004 1.5 1.5v1.5h-4v-3h-1v3h-5v-1.5c0-.830996.669004-1.5 1.5-1.5zm-1.5 4h5v3h-5zm6 0h4v1.5c0 .830995-.669005 1.5-1.5 1.5h-2.5zm-6 4h5v1.5c0 .830995-.669004 1.5-1.5 1.5h-2c-.830996 0-1.5-.669005-1.5-1.5z" opacity=".35"/></g></svg>