<svg viewBox="0 0 24 24" xmlns="http://www.w3.org/2000/svg"><path d="m2 21c0 .554.3794493 1 1 1h3v-2h-2v-5.5c0-.276142.2238576-.5.5-.5h9.5v-4h-9.5c-.2761424 0-.5 0-.5-.5v-5.5h2v-2h-3c-.554 0-1 .446-1 1zm10-4c0 .26529.09304.53057.28125.71875l4 4 .28125.28125h.875l.28125-.28125 4-4c.18814-.18817.28122-.45344.28125-.71875v-1h-1c-.2653 0-.53058.0931-.71875.28125l-2.28125 2.28125v-6.5625-6.5625l2.28125 2.28125c.18817.18815.45345.28125.71875.28125h1v-1c-.00003-.26531-.09311-.53058-.28125-.71875l-4-4-.28125-.28125h-.875l-.28125.28125-4 4c-.18821.18818-.28125.45346-.28125.71875v1h1c.26531.00004.53057-.09314.71875-.28125l2.28125-2.28125v6.5625 6.5625l-2.28125-2.28125c-.18818-.18811-.45344-.28129-.71875-.28125h-1z" fill="#555753"/></svg>