<svg viewBox="0 0 24 24" xmlns="http://www.w3.org/2000/svg"><g fill="#2e3436"><path d="m5 3c-1.661988 0-3 1.3380119-3 3v7.638672c.2103018-.267232.9853341-1.263099 2-2.576172v-2.0625c0-.5539958.4460042-1 1-1h2.7871094c.063138-.00262.1254607-.00227.1875 0h11.0253906c.553993 0 1 .4460042 1 1v.00977c.235809-.2707393.684637-.725741 1.386719-.9199262.205985-.0569698.412637-.0839079.613281-.0898438v-2c0-1.6619881-1.338014-3-3-3z"/><path d="m22.082031 8.9902344c-.132723.001-.275307.019803-.429687.0625-.567401.1569341-.757806.4379365-.990235.7167968-.232425.2788608-.397016.6078488-.582031.9355468-.679906 1.225113-1.401271 2.442994-2.060547 3.671875-.000065.000672.000065.001282 0 .001953a4 4 0 0 0 -3.019531-1.378906h-8.40625l1.0078125-1.695312c.0872239-.146791.1250974-.115104.1835937-.158204-.0006176 1.347167 2.0269269 1.327365 2-.019531 0-.676174-.3056506-1.125491-.6640624-1.4941405-.2688084-.2764852-.6169004-.5897389-1.1210938-.6328125-.042016-.00359-.0847411-.00623-.1289062-.0058594-.1324943.0011165-.2753069.0217527-.4296876.0644532-.5035062.1392622-1.0190087.4927412-1.4316406 1.0351562-1.0612753 1.39506-2.3208917 3.274174-3.03125 4.285156a4 4 0 0 0 -.0019531.001953 4 4 0 0 0 -.3808594.527344c-.0088969.011559-.0229873.032448-.03125.042969l.0136719-.009766a4 4 0 0 0 -.578125 2.058594 4 4 0 0 0 4 4 4 4 0 0 0 4-4 4 4 0 0 0 -.5371094-2h2.0839844a4 4 0 0 0 -.546875 2 4 4 0 0 0 4 4 4 4 0 0 0 3.923828-3.267578c.001823.00333.004041.006431.00586.009766.208207-.454627 2.205691-4.466581 2.982421-6.232422.02319-.05272.07037-.109595.105469-.169922.249903 1.182484 1.992969.989766 1.978516-.21875 0-.676177-.30565-1.1254918-.664063-1.4941409-.291209-.2995272-.674867-.6410677-1.25-.6367187zm-16.082031 6.0097656a2 2 0 0 1 2 2 2 2 0 0 1 -2 2 2 2 0 0 1 -2-2 2 2 0 0 1 2-2zm9 0a2 2 0 0 1 2 2 2 2 0 0 1 -2 2 2 2 0 0 1 -2-2 2 2 0 0 1 2-2z"/></g></svg>