<svg viewBox="0 0 24 24" xmlns="http://www.w3.org/2000/svg"><path d="m2 4v2h20v-2zm0 5v2h16v-2zm17 4a1 1 0 0 0 -1 1 1 1 0 0 0 1 1c1.099998 0 2 .900002 2 2s-.900002 2-2 2h-.5625-.023438l.277344-.291016c.390524-.390518.390524-1.023543 0-1.414062-.195262-.195259-.451109-.292969-.707031-.292969s-.511771.097708-.707031.292969l-1.277344 1.291016-.671875.673828-.025391.023437c-.193535.188264-.30273.446794-.302734.716797.000004.270002.109198.528536.302734.716797l.025391.023437.671875.673828 1.277344 1.291016c.19526.195259.451109.292969.707031.292969s.511769-.097711.707031-.292969c.390524-.390519.390524-1.023544 0-1.414062l-.277344-.291016h.023438.5625c2.199996 0 4-1.800004 4-4 0-2.163152-1.741033-3.935246-3.890625-3.994141a1 1 0 0 0 -.109375-.005859zm-17 1v2h14v-2zm0 5v2h11v-2z" fill="#2e3436"/></svg>