<svg xmlns="http://www.w3.org/2000/svg" viewBox="0 0 24 24">
 <path
     style="fill:#555753"
     d="M 4.59375 3 C 3.71015 3 3 3.73199 3 4.625 L 3 19.375 C 3 20.26801 3.71015 21 4.59375 21 L 19.40625 21 C 20.28985 21 21 20.26801 21 19.375 L 21 4.625 C 21 3.73199 20.28985 3 19.40625 3 L 4.59375 3 z M 12.15625 8 L 14 8 L 14 16 L 12 16 L 12 11.5 L 12 11 L 11.5 11 L 10 11 L 10 9.84375 C 10.51236 9.75805 11.04417 9.69636 11.375 9.375 C 11.74269 9.01783 11.94219 8.5262 12.15625 8 z "
     />
 </svg>
