<svg xmlns="http://www.w3.org/2000/svg" viewBox="0 0 24 24">
 <path
     style="fill:#555753"
     d="M 4.5839844 3 C 3.7003844 3 3 3.73199 3 4.625 L 3 19.375 C 3 20.26801 3.7003844 21 4.5839844 21 L 19.416016 21 C 20.299616 21 21 20.26801 21 19.375 L 21 4.625 C 21 3.73199 20.299616 3 19.416016 3 L 4.5839844 3 z M 7 7 L 11 7 L 11 9 L 9 9 L 9 11 L 7 11 L 7 7 z M 13 7 L 17 7 L 17 11 L 15 11 L 15 9 L 13 9 L 13 7 z M 7 13 L 9 13 L 9 15 L 11 15 L 11 17 L 7 17 L 7 13 z M 15 13 L 17 13 L 17 17 L 13 17 L 13 15 L 15 15 L 15 13 z "
     />
 </svg>
