<svg xmlns="http://www.w3.org/2000/svg" viewBox="0 0 16 16">
  <path
     style="fill:#555753"
     d="M 1 1 L 1 12.494141 C 1.189745 11 1.8981611 10.028693 3 9.1445312 L 3 5 L 15 5 L 15 1 L 1 1 z M 8.5 6 C 8.125618 6 7.8 6.1519546 7.5175781 6.4003906 L 2.8 10.675781 L 2.8 10.679688 C 2.2936224 11.149648 2.003727 11.808602 2 12.5 C 2 13.880712 3.119288 15 4.5 15 C 5.880712 15 7 13.880712 7 12.5 C 7 11.959074 6.824555 11.43274 6.5 11 L 8.5019531 11 C 8.1767001 11.432496 8.000563 11.958852 8 12.5 C 8 13.880712 9.119288 15 10.5 15 C 11.880712 15 13 13.880712 13 12.5 C 13.0017 11.310655 12.165317 10.284743 11 10.046875 L 14.130859 7.1582031 C 14.281933 7 14.364128 7 14.5 7 L 15 7 L 15 7.5 C 15 7.776143 15.223858 8 15.5 8 C 15.776142 8 16 7.776143 16 7.5 L 16 7 C 16 6.298729 15.84247 6 15 6 L 14.5 6 C 14.125619 6 13.785393 6.1519546 13.5 6.4003906 L 9.5332031 10 L 5.015625 10 L 8.1308594 7.1582031 C 8.2819324 7 8.364127 7 8.5 7 L 9 7 L 9 7.5 C 9 7.776143 9.223857 8 9.5 8 C 9.776142 8 10 7.776143 10 7.5 L 10 7 C 10 6.298729 9.842469 6 9 6 L 8.5 6 z M 13.607422 9 L 13 9.5605469 L 13 10.3 C 13.586182 10.887693 14.001235 11.614714 14 12.501953 C 14 13.478372 13.589357 14.363083 12.935547 15 L 15 15 L 15 9 L 13.607422 9 z M 4.5 11 C 5.328427 11 6 11.671573 6 12.5 C 6 13.328427 5.328427 14 4.5 14 C 3.671573 14 3 13.328427 3 12.5 C 3 11.671573 3.671573 11 4.5 11 z M 10.5 11 C 11.328427 11 12 11.671573 12 12.5 C 12 13.328427 11.328427 14 10.5 14 C 9.671573 14 9 13.328427 9 12.5 C 9 11.671573 9.671573 11 10.5 11 z M 1 12.5 L 1 15 L 2.0644531 15 C 1.4105457 14.362701 1 13.476906 1 12.5 z "
     />
</svg>
