<svg height="16" width="16" xmlns="http://www.w3.org/2000/svg"><path d="m8 15.937-2.25-3.406-3.438 1.156 1.158-3.437-3.407-2.25 3.406-2.25-1.156-3.438 3.437 1.158 2.25-3.407 2.25 3.406 3.438-1.156-1.157 3.437 3.406 2.25-3.406 2.25 1.156 3.438-3.437-1.158zm0-4.53.719-.688 2-2c.223-.226.331-.561.281-.875v-.844h-.875a1.032 1.032 0 0 0 -.844.281l-.281.282v-2.563h-2v2.563l-.281-.282c-.191-.181-.455-.285-.719-.281h-1v.781a1.465 1.465 0 0 0 0 .094c-.04.304.067.624.281.844l2 2z" fill="#555753" fill-rule="evenodd"/></svg>