<svg xmlns="http://www.w3.org/2000/svg" viewBox="0 0 16 16">
  <path
     style="fill:#555753"
     d="M 2 1 L 2 2 L 4 2 L 4 3 L 2 3 A 1 1 0 0 0 1 4 L 1 5 A 1 1 0 0 0 2 6 L 5 6 L 5 5 L 5 2 A 1 1 0 0 0 4 1 L 2 1 z M 7 2 L 7 4 L 15 4 L 15 2 L 7 2 z M 2 4 L 4 4 L 4 5 L 2 5 L 2 4 z M 7 5 L 7 7 L 11 7 L 11 5 L 7 5 z M 1 9 L 1 14 L 2 14 L 4 14 A 1 1 0 0 0 5 13 L 5 12 A 1 1 0 0 0 4 11 L 2 11 L 2 9 L 1 9 z M 7 10 L 7 12 L 15 12 L 15 10 L 7 10 z M 2 12 L 4 12 L 4 13 L 2 13 L 2 12 z M 7 13 L 7 15 L 11 15 L 11 13 L 7 13 z "
     />
</svg>
