<svg xmlns="http://www.w3.org/2000/svg" viewBox="0 0 16 16">
  <path
     style="fill:#555753"
     d="M 2,1 C 1.446,1 1,1.446 1,2 V 6 C 1,6.554 1.446,7 2,7 H 6 C 6.554,7 7,6.554 7,6 V 2 C 7,1.446 6.554,1 6,1 Z m 9,0 v 1 c 0,0.2653 0.0931,0.53058 0.28125,0.71875 L 11.5625,3 H 8 v 2 h 3.5625 L 11.28125,5.28125 C 11.09314,5.46943 10.99996,5.73469 11,6 v 1 h 1 c 0.26529,0 0.53057,-0.09304 0.71875,-0.28125 l 2,-2 L 15,4.4375 v -0.875 l -0.28125,-0.28125 -2,-2 C 12.53058,1.09311 12.26531,1.0000302 12,1 Z M 3,3 H 5 V 5 H 3 Z m 0,5 v 3.5625 L 2.71875,11.28125 C 2.53057,11.09314 2.26531,10.99996 2,11 H 1 v 1 c 0,0.26529 0.09304,0.53057 0.28125,0.71875 l 2,2 L 3.5625,15 h 0.875 l 0.28125,-0.28125 2,-2 C 6.90689,12.53058 6.9999698,12.26531 7,12 V 11 H 6 C 5.7347,11 5.46942,11.0931 5.28125,11.28125 L 5,11.5625 V 8 Z"
     />
</svg>
