<svg height="16" viewBox="0 0 16 16" width="16" xmlns="http://www.w3.org/2000/svg"><path d="m4.177734 1c-1.09069 0-1.99999.90929-2 2 4.33333-.00001 6.4889356 0 10.822266 0v11c-4.3333304-.00001-6.488936 0-10.822266 0 0 1.0907.90929 2 2 2h8.822266c1.09069 0 2-.90929 2-2v-11c0-1.09069-.9093-2-2-2zm-2.5527344 2.998047a.50005.50005 0 0 0 -.0429687.001953.50219246.50219246 0 1 0 .09375 1h1.8125a.50005.50005 0 1 0 0-1h-1.8125a.50005.50005 0 0 0 -.0507813-.002zm7.3730469 1.001953c-.907839-.078156-1.8429449.192123-2.5664062.746094s-1.2281845 1.386841-1.3808594 2.285156c-.1075645.632893-.042222 1.294328.1855469 1.894531.227769.600204.6168228 1.136871 1.1171875 1.539063s1.1090029.66832 1.7441406.761718c.6351377.0934 1.2956596.01456 1.890625-.226562v-1c-.4532741.298561-1.0004547.454066-1.5429688.4375-.542514-.016566-1.0775052-.20559-1.5117187-.53125s-.7657868-.786559-.9335937-1.302734c-.167807-.516175-.1714204-1.084776-.0117188-1.603516.190338-.618253.6121132-1.158871 1.1542969-1.511719s1.199546-.519039 1.8457031-.488281c.5371541.02557 1.0812041.192714 1.4824221.550781.200609.179034.362776.404431.457031.65625.09426.25182.119622.530658.06055.792969-.05415.240432-.179246.464425-.355469.636719-.176223.172293-.402939.293084-.6445311.341797v-.978516c-.1194003-.297197-.3303549-.556967-.5957061-.736328s-.5840134-.277344-.9042969-.277344-.6389457.09798-.9042969.277344c-.2653512.179361-.4763058.439131-.5957031.736328-.1584634.394438-.1519449.855643.0332031 1.238281.1851481.382638.5501805.677325.9667969.761719.3276221.06637.6657932.0068 1 0 .3335539-.0068.6686824.03916 1 0 .6237671-.07372 1.1964651-.461755 1.5234381-.998047.326972-.536292.411534-1.206909.259765-1.816406s-.532901-1.153443-1.033203-1.533203c-.500303-.37976-1.114441-.598469-1.7402345-.652344zm-7.3730469.998047a.50005.50005 0 0 0 -.0429687.001953.50219246.50219246 0 1 0 .09375 1h1.8125a.50005.50005 0 1 0 0-1h-1.8125a.50005.50005 0 0 0 -.0507813-.002zm7.0292969 1.839844c.1230043.022892.2398159.079729.3339844.162109l.035156 1.023438c-.1034754.104194-.2398253.173684-.3847656.197265-.1449403.02358-.2965658.0016-.4277344-.06445-.1311685-.06602-.2411851-.176181-.3085937-.306641-.067409-.13046-.092353-.280598-.070312-.425781.018779-.123699.071196-.242981.1503906-.339844.079194-.09686.1852337-.171858.3027344-.214843.1175007-.04298.2461364-.05414.3691406-.03125zm-7.0292969.160156a.50005.50005 0 0 0 -.0429687.001953.50219246.50219246 0 1 0 .09375 1h1.8125a.50005.50005 0 1 0 0-1h-1.8125a.50005.50005 0 0 0 -.0507813-.002zm0 2a.50005.50005 0 0 0 -.0429687.001953.50219246.50219246 0 1 0 .09375 1h1.8125a.50005.50005 0 1 0 0-1h-1.8125a.50005.50005 0 0 0 -.0507813-.002zm0 2a.50005.50005 0 0 0 -.0429687.001953.50219246.50219246 0 1 0 .09375 1h1.8125a.50005.50005 0 1 0 0-1h-1.8125a.50005.50005 0 0 0 -.050781-.002z" fill="#555753"/></svg>