<svg xmlns="http://www.w3.org/2000/svg" viewBox="0 0 16 16">
 <path
   style="fill:#555753"
   d="M 5 1 L 5 2 C 5 2.26531 5.09314 2.53057 5.3 2.71875 L 5.5625 3 L 5 3 C 2.8 3 1 4.8 1 7 C 1 9.2 2.8 11 5 11 L 5 9 C 3.895431 9 3 8.10457 3 7 C 3 5.9 3.9 5 5 5 L 5.5625 5 L 5.3 5.3 C 5.1 5.46942 5 5.7347 5 6 L 5 7 L 6 7 C 6.26531 7 6.53058 6.9 6.71875 6.71875 L 8.71875 4.71875 L 9 4.4375 L 9 3.5625 L 8.71875 3.3 L 6.71875 1.3 C 6.53057 1.09304 6.26529 1 6 1 L 5 1 z M 13.5 1 L 8 15 L 15 15 L 15 1 L 13.5 1 z "
   />
<path
   style="opacity:0.35;fill:#555753"
   d="M 1,13.519531 15,8 v 7 H 1 Z"
   />
</svg>
