<svg viewBox="0 0 16 16" xmlns="http://www.w3.org/2000/svg"><g fill="#2e3436"><path d="m3 0c-1.6619966 0-3 1.3380034-3 3v5c0 1.6619966 1.3380034 3 3 3h4.9941406v-2h-4.4941406c-.8309984 0-1.5-.6690016-1.5-1.5v-4c0-.8309984.6690016-1.5 1.5-1.5h9c.830998 0 1.5.6690016 1.5 1.5v4c0 .2497924-.060842.4846594-.167969.6914062l1.683594 1.4414063c.304589-.4696618.484375-1.0289938.484375-1.6328125v-5c0-1.6619966-1.338004-3-3-3z"/><path d="m9 5.3730469v9.0000001l2-2 2 3.626953h2v-1l-2-3.626953h3z"/></g></svg>