<svg xmlns="http://www.w3.org/2000/svg" viewBox="0 0 16 16">
 <path
   style="fill:#555753"
   d="M 4,1 C 2.338,1 1,2.338 1,4 v 8 c 0,1.662 1.338,3 3,3 h 8 c 1.662,0 3,-1.338 3,-3 V 4 C 15,2.338 13.662,1 12,1 Z m 0,1 h 8 c 1.108,0 2,0.892 2,2 v 8 c 0,1.108 -0.892,2 -2,2 H 4 C 2.892,14 2,13.108 2,12 V 4 C 2,2.892 2.892,2 4,2 Z"
   />
<path
   style="fill:#555753;opacity:0.35"
   d="M 4 2 C 2.892 2 2 2.892 2 4 L 2 12 C 2 13.108 2.892 14 4 14 L 12 14 C 13.108 14 14 13.108 14 12 L 14 4 C 14 2.892 13.108 2 12 2 L 4 2 z "
   />
</svg>
