<svg viewBox="0 0 16 16" xmlns="http://www.w3.org/2000/svg"><path d="m0 0v2h6a1 1 0 0 1 1 1v1.5625l-.3-.28125c-.16942-.18815-.4347-.28125-.7-.28125h-1v1c0 .26531.1.53058.28125.7l2 2 .28125.3h.875l.2625-.3 2-2c.2-.16943.3-.43471.3-.7v-1h-1c-.26531 0-.53057.09314-.71875.28125l-.28125.28125v-2.5625a2 2 0 0 0 -2-2zm10 1v2h1c.414214 0 .770067.2524131.921875.6113281.050603.1196384.078125.2506007.078125.3886719v2c.000892 1.006287.506238 1.945101 1.345703 2.5-.839465.554899-1.344811 1.493713-1.345703 2.5v2c0 .552285-.447715 1-1 1h-1v2h1c.207107 0 .410176-.020584.605469-.060547 1.367049-.279739 2.394531-1.489706 2.394531-2.939453v-2c0-.138071.027522-.27.078125-.388672.151808-.358915.507661-.611328.921875-.611328h1v-3h-1c-.552285 0-1-.4477153-1-1v-2c0-1.6568542-1.343146-3-3-3zm-8 3v2c0 .5522847-.4477153 1-1 1h-1v3h1c.5522847 0 1 .447715 1 1v2c0 1.656854 1.3431458 3 3 3h1v-2h-1c-.5522847 0-1-.447715-1-1v-2c-.000223-.251572-.0311786-.498135-.0917969-.736328-.1818548-.713672-.6243075-1.3474977-1.2539062-1.763672.839465-.554899 1.3457031-1.493713 1.3457031-2.5v-2z" fill="#555753"/></svg>