<?xml version="1.0" encoding="UTF-8" standalone="no"?>
<svg
   xmlns:dc="http://purl.org/dc/elements/1.1/"
   xmlns:cc="http://creativecommons.org/ns#"
   xmlns:rdf="http://www.w3.org/1999/02/22-rdf-syntax-ns#"
   xmlns:svg="http://www.w3.org/2000/svg"
   xmlns="http://www.w3.org/2000/svg"
   xmlns:sodipodi="http://sodipodi.sourceforge.net/DTD/sodipodi-0.dtd"
   xmlns:inkscape="http://www.inkscape.org/namespaces/inkscape"
   viewBox="0 0 16 16"
   id="svg2"
   version="1.1"
   inkscape:version="0.91 r13725"
   sodipodi:docname="sc_browseview.svg">
  <defs
     id="defs9" />
  <sodipodi:namedview
     pagecolor="#ffffff"
     bordercolor="#666666"
     borderopacity="1"
     objecttolerance="10"
     gridtolerance="10"
     guidetolerance="10"
     inkscape:pageopacity="0"
     inkscape:pageshadow="2"
     inkscape:window-width="2560"
     inkscape:window-height="1375"
     id="namedview7"
     showgrid="true"
     inkscape:snap-bbox="true"
     inkscape:object-nodes="true"
     inkscape:zoom="29.5"
     inkscape:cx="2.6185655"
     inkscape:cy="13.238934"
     inkscape:window-x="0"
     inkscape:window-y="36"
     inkscape:window-maximized="1"
     inkscape:current-layer="svg2">
    <inkscape:grid
       type="xygrid"
       id="grid4137" />
  </sodipodi:namedview>
  <metadata
     id="metadata7838">
    <rdf:RDF>
      <cc:Work
         rdf:about="">
        <dc:format>image/svg+xml</dc:format>
        <dc:type
           rdf:resource="http://purl.org/dc/dcmitype/StillImage" />
        <dc:title></dc:title>
        <cc:license
           rdf:resource="http://creativecommons.org/licenses/by-sa/3.0/" />
        <dc:rights>
          <cc:Agent>
            <dc:title>The Document Foundation</dc:title>
          </cc:Agent>
        </dc:rights>
        <dc:contributor>
          <cc:Agent>
            <dc:title>Matthias Freund</dc:title>
          </cc:Agent>
        </dc:contributor>
      </cc:Work>
      <cc:License
         rdf:about="http://creativecommons.org/licenses/by-sa/3.0/">
        <cc:permits
           rdf:resource="http://creativecommons.org/ns#Reproduction" />
        <cc:permits
           rdf:resource="http://creativecommons.org/ns#Distribution" />
        <cc:requires
           rdf:resource="http://creativecommons.org/ns#Notice" />
        <cc:requires
           rdf:resource="http://creativecommons.org/ns#Attribution" />
        <cc:permits
           rdf:resource="http://creativecommons.org/ns#DerivativeWorks" />
        <cc:requires
           rdf:resource="http://creativecommons.org/ns#ShareAlike" />
      </cc:License>
    </rdf:RDF>
  </metadata>
  <path
     style="color:#000000;font-style:normal;font-variant:normal;font-weight:normal;font-stretch:normal;font-size:medium;line-height:normal;font-family:Sans;-inkscape-font-specification:Sans;text-indent:0;text-align:start;text-decoration:none;text-decoration-line:none;letter-spacing:normal;word-spacing:normal;text-transform:none;direction:ltr;block-progression:tb;writing-mode:lr-tb;baseline-shift:baseline;text-anchor:start;display:inline;overflow:visible;visibility:visible;fill:#555753;fill-opacity:1;stroke:none;stroke-width:1.99999988;marker:none;enable-background:accumulate"
     d="M 3 0 C 2.4477 0 2 0.44795 2 1 L 2 15 C 2 15.55205 2.4477 16 3 16 L 5 16 L 5 14 L 4 14 L 4 2 L 10 2 L 10 4 L 14 4 L 14 3.5625 C 14.01 3.29858 13.902 3.03344 13.71875 2.84375 L 11.15625 0.28125 C 10.96655 0.09764 10.7015 -0.0061199966 10.4375 0 C 8.0934995 0.00063 5.0072 0.001 3 0 z M 10.5 4.6992188 C 7.3813634 4.6992188 4.8496094 7.2309834 4.8496094 10.349609 C 4.8496094 13.468245 7.3813637 16 10.5 16 C 13.618636 16 16.150391 13.468245 16.150391 10.349609 C 16.148337 7.2322782 13.617461 4.6992187 10.5 4.6992188 z M 10.5 6 C 11.077119 6 11.625198 6.1183856 12.128906 6.3222656 L 12.087891 6.5527344 L 11.326172 6.5527344 L 10.398438 7.3691406 L 10.833984 7.7480469 L 10.976562 7.515625 L 11.078125 7.8105469 L 11.367188 7.5371094 L 11.181641 7.4316406 L 11.587891 7.2226562 L 11.439453 7.8574219 L 11.289062 8.0292969 L 10.621094 8.3378906 L 10.431641 8.6210938 L 9.9785156 8.7539062 L 9.6738281 9.125 L 10.064453 9.3242188 L 10.275391 8.9316406 L 10.621094 8.9941406 L 10.857422 8.7734375 L 11.162109 8.9941406 L 11.289062 9.3652344 L 11.115234 9.4980469 L 11.566406 9.3867188 L 11.505859 9.1933594 L 11.763672 9.3242188 L 11.439453 8.90625 L 11.398438 8.6425781 L 12.041016 8.6699219 L 12.191406 9.4765625 L 12.447266 9.4765625 L 12.236328 10 C 12.048448 9.9895203 11.826866 9.9504594 11.572266 9.8808594 C 11.143406 9.7575194 10.927828 9.6953125 10.923828 9.6953125 C 10.772788 9.6737125 10.621733 9.6539063 10.470703 9.6289062 C 10.296763 9.6001864 10.153253 9.5452436 10.039062 9.4648438 C 9.5560925 9.6706036 9.1837381 9.8119719 8.9238281 9.8886719 L 8.7695312 10.685547 L 9.0019531 11.236328 L 9.8945312 11.449219 L 10.296875 12.027344 C 10.474135 12.712204 10.5848 13.390403 10.625 14.064453 L 11.099609 14.378906 L 11.759766 13.802734 C 11.886196 13.319924 11.947359 12.785309 11.943359 12.193359 C 12.163099 11.917999 12.381813 11.649062 12.601562 11.382812 C 12.581973 11.012512 12.464393 10.627459 12.251953 10.230469 L 12.369141 10.158203 L 12.746094 11.021484 L 13.404297 10.779297 L 13.148438 10.277344 C 13.580617 10.232344 13.807225 10.208984 13.828125 10.208984 C 13.83091 10.208984 14.329974 10.263292 14.847656 10.320312 C 14.847729 10.3303 14.849604 10.339607 14.849609 10.349609 C 14.849609 12.753823 12.904214 14.699219 10.5 14.699219 C 8.0957856 14.699219 6.1503906 12.753823 6.1503906 10.349609 C 6.1503906 9.2279971 6.5853942 8.2162728 7.28125 7.4453125 C 7.296413 7.4754727 7.3062313 7.4954001 7.3515625 7.59375 C 7.4146225 7.73498 7.4876125 7.8046875 7.5703125 7.8046875 C 7.7004325 7.8046875 7.8230169 7.67114 7.9355469 7.40625 C 8.0759569 7.06669 8.2295613 6.833885 8.3945312 6.703125 C 8.5615014 6.571025 8.7250688 6.4794344 8.8867188 6.4277344 C 8.9444788 6.4169344 9.0027 6.4053313 9.0625 6.3945312 C 9.14512 6.3749312 9.1855469 6.3439344 9.1855469 6.3027344 C 9.1855469 6.2778703 9.1734089 6.2541886 9.1660156 6.2304688 C 9.5889123 6.0935508 10.03119 6 10.5 6 z M 9.3300781 7.0488281 L 9.2226562 7.4238281 L 9.5058594 7.3808594 L 9.6738281 7.25 L 9.6113281 7.0488281 L 9.3300781 7.0488281 z M 10.240234 7.4433594 L 10.164062 7.6425781 L 10.302734 7.8984375 L 10.431641 7.9453125 L 10.236328 8.1875 L 10.451172 8.2089844 L 10.683594 7.9667969 L 10.240234 7.4433594 z M 9.9785156 7.7910156 L 9.8710938 7.9667969 L 9.9375 8.1621094 L 10.085938 7.9882812 L 9.9785156 7.7910156 z M 10.730469 9.3027344 L 10.923828 9.5175781 L 10.945312 9.3027344 L 10.730469 9.3027344 z "
     id="4252" />
</svg>
