<svg viewBox="0 0 16 16" xmlns="http://www.w3.org/2000/svg"><path d="m3.5 0c-1.9329966 0-3.5 1.5670034-3.5 3.5s1.5670034 3.5 3.5 3.5h1.5v2h-1.5c-1.9329966 0-3.5 1.567003-3.5 3.5s1.5670034 3.5 3.5 3.5 3.5-1.567003 3.5-3.5v-1.5h2v1.5c0 1.932997 1.567003 3.5 3.5 3.5s3.5-1.567003 3.5-3.5-1.567003-3.5-3.5-3.5h-1.5v-2h1.5c1.932997 0 3.5-1.5670034 3.5-3.5s-1.567003-3.5-3.5-3.5-3.5 1.5670034-3.5 3.5v1.5h-2v-1.5c0-1.9329966-1.5670034-3.5-3.5-3.5zm0 2c.8284271 0 1.5.6715729 1.5 1.5v1.5h-1.5c-.8284271 0-1.5-.6715729-1.5-1.5s.6715729-1.5 1.5-1.5zm9 0c.828427 0 1.5.6715729 1.5 1.5s-.671573 1.5-1.5 1.5h-1.5v-1.5c0-.8284271.671573-1.5 1.5-1.5zm-5.5 5h2v2h-2zm-3.5 4h1.5v1.5c0 .828427-.6715729 1.5-1.5 1.5s-1.5-.671573-1.5-1.5.6715729-1.5 1.5-1.5zm7.5 0h1.5c.828427 0 1.5.671573 1.5 1.5s-.671573 1.5-1.5 1.5-1.5-.671573-1.5-1.5z" fill="#555753"/></svg>