<svg viewBox="0 0 16 16" xmlns="http://www.w3.org/2000/svg"><g fill="#2e3436"><path d="m10.5 0v2h2v-2zm-5.5 1c-1.6568489 0-3 1.3431509-3 3v2c0 .5522829-.4477168 1-1 1h-1v3h1c.5522832 0 1 .447718 1 1v2c0 1.656848 1.3431511 3 3 3h1v-2h-1c-.5522832 0-1-.447718-1-1v-2c0-.251572-.0311786-.498135-.0917969-.736328-.1818542-.7145781-.6243096-1.3474989-1.2539062-1.763672.8394623-.5548972 1.3448111-1.493716 1.3457031-2.5v-2c0-.5522829.4477168-1 1-1h1v-2zm2 2.5v4.5h2v-4.5zm3 .5v2c.000892 1.006284.506241 1.9451028 1.345703 2.5-.839462.5548972-1.344811 1.493716-1.345703 2.5v2c0 .552282-.4477171 1-1 1h-1v2h1c1.656848 0 3-1.343152 3-3v-2c0-.552282.447718-1 1-1h1v-1.3554688c-.157861-.0911605-.3043-.2030174-.433594-.3359374a1.0001 1.0001 0 0 1 -.017578-.0195313l-.009766-.0097656-.658203-.65625-1.296875-1.2910157a1.0001 1.0001 0 0 0 -.001953-.0019531c-.341318-.3413224-.535328-.7853469-.576172-1.2363281-.004465-.031889-.005859-.0625548-.005859-.09375-.001199-.0280096-.003906-.0559941-.003906-.0839844 0-.3133411.075197-.6293873.222656-.9160156z"/><path d="m14 3.5v1l-.296875-.2910156c-.19526-.1952614-.451148-.2929688-.707031-.2929688-.255885 0-.511772.097707-.707032.2929688-.195258.1952614-.292968.4511101-.292968.7070312 0 .2559214.09771.5117709.292968.7070313l1.296876 1.2910156.673828.671875.02344.025391c.188258.1935376.446791.30273.716794.302734.270003-.000004.528533-.109196.716797-.3027344l.023437-.0253906.259766-.2597656v-2.8261719-1h-1z"/><path d="m12.5 0v2c.828427 0 1.5.6715729 1.5 1.5h2c0-1.9329966-1.567003-3.5-3.5-3.5z"/><path d="m10.5 0v2a1.5 1.5 0 0 0 -1.5 1.5h-2a3.5 3.5 0 0 1 3.5-3.5z"/></g></svg>