<svg xmlns="http://www.w3.org/2000/svg" viewBox="0 0 16 16">
  <path
     style="fill:#555753"
     d="M 14 0 L 13 1 L 15 3 L 16 2 C 15.9 0.64 15.1 0.1 14 0 z M 8 1 C 4.1 1 1 4.1 1 8 C 1 11.9 4.1 15 8 15 C 11.9 15 15 11.86 15 8 C 15 6.9 14.77 6 14.35 5 L 12.8 6.63 C 12.9 7.1 13 7.5 13 8 C 13 10.8 10.8 13 8 13 C 6.9 13 5.9 12.6 5 12 L 4 12 L 4 11 C 3.4 10.1 3 9.1 3 8 C 3 5.2 5.2 3 8 3 C 8.5 3 8.9 3.1 9.4 3.2 L 10.9 1.65 C 10 1.24 9. 1 8 1 z M 12 2 L 5 9 L 5 11 L 7 11 L 14 4 L 12 2 z "
     />
</svg>
