<svg xmlns="http://www.w3.org/2000/svg" viewBox="0 0 16 16">
  <path
     style="fill:#555753"
     d="M 12 0 L 12 2.5625 L 11.71875 2.28125 C 11.53057 2.09314 11.26531 1.99996 11 2 L 10 2 L 10 3 C 10 3.26529 10.09304 3.53057 10.28125 3.71875 L 12.28125 5.71875 L 12.5625 6 L 13.4375 6 L 13.71875 5.71875 L 15.71875 3.71875 C 15.90689 3.53058 15.99997 3.26531 16 3 L 16 2 L 15 2 C 14.7347 2 14.46942 2.0931 14.28125 2.28125 L 14 2.5625 L 14 0 L 12 0 z M 0 1 L 0 15 L 16 15 L 16 6.265625 L 15.132812 7.1328125 L 14.265625 8 L 14 8 L 14 11 L 12 10 L 10 11 L 5 7 L 2 10 L 2 3 L 8 3 L 8 1 L 0 1 z M 9.1132812 5.3789062 C 9.047118 5.5752109 9 5.7806957 9 6 C 9 7.1045695 9.8954305 8 11 8 C 11.220173 8 11.425863 7.9548819 11.623047 7.8886719 L 10.867188 7.1328125 L 9.1132812 5.3789062 z "
     />
</svg>
