<svg xmlns="http://www.w3.org/2000/svg" viewBox="0 0 16 16">
  <path
     style="fill:#555753"
     d="M 3 1 C 1.3431481 0.9999984 2.650958e-06 2.3431438 0 4 C 2.650958e-06 5.6568562 1.3431481 7.0000016 3 7 C 4.2705202 6.9990464 5.4026641 6.1978609 5.8261719 5 C 5.8857772 5.0001264 5.9401385 4.9999069 6 5 C 7.5752327 5.00245 9.2485786 4.99724 10.574219 5 C 7.6835355 7 5.2855057 8.9997892 3.4277344 11.017578 C 3.0479397 11.387878 2.7009266 11.709211 2.6445312 12.378906 C 2.6163333 12.713754 2.7544557 13.121708 2.9726562 13.367188 C 3.1908573 13.612659 3.4228348 13.748586 3.6484375 13.810547 C 4.3382387 14 5.4910616 14.01586 6.8867188 14 C 7.5267006 13.992695 8.9925972 13.997332 10.175781 14 A 3 3 0 0 0 13 16 A 3 3 0 0 0 16 13 A 3 3 0 0 0 13 10 A 3 3 0 0 0 10.173828 12 C 8.5896634 12.002498 6.5795335 12.006824 5.4628906 12 C 7 9.7042695 10 8 12.580078 5.9902344 C 12.962543 5.6264263 13.286422 5.3279472 13.396484 4.7128906 C 13.451516 4.4053623 13.375786 3.9944669 13.177734 3.7167969 C 12.979683 3.4391268 12.737131 3.2909727 12.519531 3.2050781 C 12 3 10.792599 2.984083 9.5351562 3 C 8.5549796 3.0124073 7.2809971 3.0036619 6 3 C 5.936304 2.9998179 5.8885116 3.0001631 5.8242188 3 C 5.4009506 1.8028139 4.2698031 1.0017801 3 1 z M 3 3 C 3.5522847 3 4 3.4477153 4 4 C 4 4.5522847 3.5522847 5 3 5 C 2.4477153 5 2 4.5522847 2 4 C 2 3.4477153 2.4477153 3 3 3 z M 13 12 A 1 1 0 0 1 14 13 A 1 1 0 0 1 13 14 A 1 1 0 0 1 12 13 A 1 1 0 0 1 13 12 z "
     />
  <path
     style="opacity:0.35;fill:#555753"
     d="M 3 3 A 1 1 0 0 0 2 4 A 1 1 0 0 0 3 5 A 1 1 0 0 0 4 4 A 1 1 0 0 0 3 3 z M 13 12 A 1 1 0 0 0 12 13 A 1 1 0 0 0 13 14 A 1 1 0 0 0 14 13 A 1 1 0 0 0 13 12 z "
     />
</svg>
