<svg viewBox="0 0 16 16" xmlns="http://www.w3.org/2000/svg"><g fill="#2e3436" transform="matrix(1.0088031 0 0 1.0014609 -445.94089 -462.66315)"><path d="m445.55 462.09c-.39933 0-.78638.0916-1.1433.21572l1.8849 1.8797c.38735.38627.38735 1.0004 0 1.3867l-.71069.70874c-.38735.38628-1.0031.38628-1.3905 0l-1.8849-1.8797c-.12444.35591-.2163.74191-.2163 1.1402 0 1.9061 1.5494 3.4513 3.4608 3.4513.39933 0 .78638-.0916 1.1433-.2157l1.1742 1.171a2.4722 2.4654 0 0 1 .0618 0l2.0703-2.0646-1.2051-1.2018c.12444-.35592.2163-.74191.2163-1.1402 0-1.9061-1.5494-3.4513-3.4608-3.4513zm6.5507 7.8886-2.0703 2.0646a2.4722 2.4654 0 0 1 .0309.0924l1.1433 1.1402c-.12444.35596-.2163.74196-.2163 1.1402 0 1.9061 1.5494 3.4513 3.4608 3.4513.43346 0 .8536-.10141 1.236-.24653l-2.0085-2.003c-.38735-.38629-.38735-1.0312 0-1.4175l.67979-.67792c.19367-.19315.45794-.30816.71069-.30816.25276 0 .51702.11501.7107.30816l1.9467 1.9413c.10485-.32958.1854-.68351.1854-1.0477 0-1.9061-1.5494-3.4513-3.4608-3.4513-.39933 0-.78639.0916-1.1433.2157l-1.2051-1.2018z"/><path d="m455.86 462-1.5425 1.4375c-.45151.42079-.5292 1.1488-.2663 1.7065l-5.8882 5.9958a1.4917 1.4876 0 0 0 -.0311.00025 1.4917 1.4876 0 0 0 -.84016-.1484 1.4917 1.4876 0 0 0 -.86663.44059l-3.9462 3.9973a1.49411 1.49001 0 1 0 2.1294 2.0907l3.9462-3.9973a1.4917 1.4876 0 0 0 .29713-1.7377l5.8885-5.9648c.55782.24837 1.2732.14697 1.7068-.2922l1.41-1.57-2-1.97z"/></g></svg>