<svg xmlns="http://www.w3.org/2000/svg" viewBox="0 0 16 16">
  <path
     style="fill:#555753"
     d="M 6 0 C 3.8 0 2 1.8 2 4 L 2 4.6 L 1.7 4.3 C 1.5 4.1 1.3 4 1 4 L 0 4 L 0 5 C 0 5.3 0.1 5.5 0.3 5.7 L 2.3 7.7 L 2.6 8 L 3.4375 8 L 3.7 7.7 L 5.7 5.7 C 5.9 5.5 6 5.3 6 5 L 6 4 L 5 4 C 4.7 4 4.5 4.1 4.3 4.3 L 4 4.6 L 4 4 C 4 2.9 4.9 2 6 2 C 7.1 2 8 2.9 8 4 L 10 4 C 10 1.8 8.2 0 6 0 z M 13 1 A 2 2 0 0 0 11.3 2 L 11 2 L 11 4 L 11.3 4 A 2 2 0 0 0 12 4.7 L 12 11.3 A 2 2 0 0 0 11.3 12 L 7.7 12 A 2 2 0 0 0 6.4 11 L 5.8 9 L 3.8 9 L 4.6 11.6 A 2 2 0 0 0 4 13 A 2 2 0 0 0 6 15 A 2 2 0 0 0 7.7 14 L 11.3 14 A 2 2 0 0 0 13 15 A 2 2 0 0 0 15 13 A 2 2 0 0 0 14 11.3 L 14 4.7 A 2 2 0 0 0 15 3 A 2 2 0 0 0 13 1 z "
     />
</svg>
