<svg xmlns="http://www.w3.org/2000/svg" viewBox="0 0 16 16">
  <path
     style="fill:#555753"
     d="M 10.5,1 C 9.54,1 8.6538096,1.2902822 8.0019531,1.7714844 7.7669405,1.9171201 7.5493302,2.0732687 7.3574219,2.234375 L 7.4707031,2.1503906 C 7.0963523,2.3833907 6.4854655,2.4216438 5.8300781,2.3261719 5.5023844,2.2784359 5.1779458,2.2038287 4.8828125,2.1367188 4.5465688,2.0459076 4.2900399,2.0418254 4,2 2.8954305,2 2.0078125,2.6044149 2.0078125,3.7089844 c 0,0.05929 -0.034874,0.1175457 -0.082031,0.1777344 C 1.7093661,4.0282904 1.5099991,4.2807461 1.3574219,4.4277344 1.1863301,4.6527164 1.1373617,4.9201717 1.0371094,5.1601562 c -0.095604,0.4267664 0.013321,0.8480905 0.066406,1.25 C 1.2266563,7.0391111 1.5436787,7.5139227 1.8632812,8.0273438 1.9537453,8.1465571 2.0656645,8.2490197 2.1679688,8.359375 2.9918021,9.2357733 3.9619803,9.6281565 5.0058594,9.9101562 5.3290204,9.9696246 5.6612866,10 6,10 c 0.00196,-9e-7 0.0039,3e-6 0.00586,0 C 6.8877292,10.013557 7.6630098,9.750909 8.4453125,9.4238281 9.0652897,9.827292 9.7871604,9.9282569 10.492188,10 c 0.0026,10e-6 0.0052,-5e-6 0.0078,0 0.230215,0 0.454071,-0.020277 0.671875,-0.056641 0.002,-3.433e-4 0.0038,-0.00161 0.0059,-0.00195 0.458449,-0.068532 0.855657,-0.2648125 1.259766,-0.4433593 0.04218,-0.024087 0.07828,-0.054487 0.119141,-0.080078 C 13.235268,8.9992952 13.749217,8.3799791 13.927734,7.6113281 13.975299,7.4141658 14,7.2092424 14,7 c 0.137242,0 0.272383,-0.013822 0.402344,-0.041016 0.781171,-0.1598508 1.39679,-0.7754696 1.55664,-1.5566406 v -0.00195 C 15.985927,5.2710024 16,5.1365906 16,5 16,4.8627585 15.986184,4.727617 15.958984,4.5976562 15.799134,3.8164852 15.183515,3.2008664 14.402344,3.0410156 h -0.002 C 14.271056,3.0140731 14.136591,3 14,3 13.902491,2.0496326 12.970576,1.6132365 12.287109,1.2753906 11.917056,1.1481278 11.548865,1.0785742 11.185547,1.0390625 10.953148,1.0045875 10.721921,0.98479788 10.5,1 Z m 1.136723,2.1660156 c 0.227798,0.078341 0.35198,0.1892658 0.402343,0.21875 C 12.221666,4.2978814 13.038523,5 14,5 12.907275,5 12,5.9072754 12,7 12,7.4286732 11.448908,7.9990795 10.501953,8 10.261354,7.9995272 10.028926,7.948434 9.8203125,7.8730469 l -1.25,-0.8144531 -1.3398437,0.7109374 C 6.8459855,7.9164671 6.4267673,7.9986289 6,8 4.2965839,8 3.0778708,6.8516594 3.03125,5.5664062 3.2236382,5.4314058 3.4503551,5.1967823 3.6074219,5.0585938 3.8065701,4.8260058 4.0029753,4.4275979 4.0078125,4.0117188 v -0.00195 c 0.041455,0.010811 0.227072,0.031608 0.4316406,0.078125 0.2895569,0.065842 0.6710977,0.15409 1.1015625,0.2167969 0.8609296,0.1254138 1.9758682,0.1750589 2.9882813,-0.4550781 0.041954,-0.022337 0.07552,-0.05599 0.113281,-0.083985 C 9.8324535,2.9932156 10.442653,2.94349 11.636723,3.1660156 Z M 4.0078125,4 h 0.011719 c 0.032338,-0.0026 -2.597e-4,1.299e-4 -0.011719,0.00586 z M 5.5,11 C 4.1192881,11 3,11.671573 3,12.5 3,13.328427 4.1192881,14 5.5,14 6.8807119,14 8,13.328427 8,12.5 8,11.671573 6.8807119,11 5.5,11 Z m -4,3 C 0.67157288,14 0,14.447715 0,15 0,15.552285 0.67157288,16 1.5,16 2.3284271,16 3,15.552285 3,15 3,14.447715 2.3284271,14 1.5,14 Z"
     />
  <path
     style="opacity:0.35;fill:#555753"
     d="M 10.5,2 C 9.6447765,2.0129014 8.5316934,2.5536453 8,3 6.6132361,3.8631371 4.5479683,2.979594 4,3 3.5556772,3 3.0000025,3.237367 3.0078125,4 3,4.6716785 2,4.7149135 2,5.5 2,7.4329966 3.790861,9 6,9 6.5566195,8.998524 7.1067602,8.8954142 7.6152344,8.6972656 L 8.5175781,8.21875 9.3984375,8.7929688 C 9.7410203,8.9284247 10.11786,8.999249 10.5,9 11.880712,9 13,8.1045695 13,7 13,6.4477153 13.447715,6 14,6 14.552285,6 15,5.5522847 15,5 15,4.4477153 14.552285,4 14,4 13.447715,4 13,3.5522847 13,3 12.764791,2.3105234 11.297999,1.946327 10.5,2 Z"
     />
</svg>
