<svg viewBox="0 0 16 16" xmlns="http://www.w3.org/2000/svg"><path d="m5 0c-.30945 0-.55232.0903-.75.28125-1.41667 1.07301-2.83333 2.64575-4.25 3.71875l4.25 3.71875c.19768.19095.44055.28125.75.28125h.5859375.4140625v-1c0-.25689-.12983-.52846-.3125-.71875l-1.5097656-1.28125c2.1410808.00292 4.4047142-.00369 6.3964846 0-.6308819.5170049-1.455154 1.1221175-3.1035159 2.1523438-2.0190561 1.26191-3.2833794 2.1246356-4.0429687 2.8652342-.3797947.3703-.7268078.691633-.7832032 1.361328-.028198.334848.1099245.742804.328125.988282.2182011.245471.4501786.381398.6757813.443359.6898012.189453 1.8426241.205313 3.2382813.189453 1.4331987-.006917 4.7998792-.001277 6.1132812 0v-2c-1.864104-.0012-5.7888773.01-7.5371094 0 .6187767-.510784 1.4281102-1.1284082 3.0664063-2.1523438 2.0190561-1.2619091 3.2858511-2.1298057 4.0507811-2.8574218.382465-.3638081.706344-.6622872.816406-1.2773438.055032-.3075283-.020698-.7184237-.21875-.9960937-.198051-.2776701-.440603-.4258242-.658203-.5117188-.519531-.2050781-1.726932-.2209951-2.9843748-.2050781-1.9541261.0098453-3.4290094 0-5.3574218 0l1.5097656-1.28125c.18267-.1903.3125-.46186.3125-.71875v-1h-.4140625z" fill="#555753"/></svg>