<svg height="16" viewBox="0 0 16 16" width="16" xmlns="http://www.w3.org/2000/svg"><path d="m6.6914062.20117188c-2.3690994.03150465-5.5438599.83508812-5.4902343 3.41406252.0572088 2.7506749 3.4323457 1.6646516 3.5605469 2.8867187.2071987 1.9753444-4.10724531 7.9840479 2.4492187 9.1621089 4.3770765.786673 9.0233735-1.914544 8.5566405-7.3632808-.419741-4.9004498-4.513768-7.97495579-8.6074218-8.09960932zm-1.0195312 1.60156252c1.1145346 0 2.0175778.6274754 2.0175781 1.4003906 0 .7727052-.9030435 1.3984375-2.0175781 1.3984375s-2.0214844-.6257323-2.0214844-1.3984375c0-.7729152.9069498-1.4003906 2.0214844-1.4003906zm6.804687 3.1855468c.823196 0 1.499976.6768004 1.5 1.5.000049.8233001-.67675 1.5-1.5 1.5-.823244 0-1.500043-.6766999-1.5-1.5.000029-.8231996.676811-1.5 1.5-1.5zm-.976562 4.0117188a1.5 1.5 0 0 1 1.5 1.5 1.5 1.5 0 0 1 -1.5 1.5 1.5 1.5 0 0 1 -1.5-1.5 1.5 1.5 0 0 1 1.5-1.5zm-4.9863281 2.042969c.8284159-.000038 1.5.671546 1.5 1.5s-.6715841 1.500038-1.5 1.5c-.8284159.000038-1.5-.671546-1.5-1.5s.6715841-1.500038 1.5-1.5z" fill="#555753" fill-rule="evenodd" stroke="#555753" stroke-width=".401908" transform="matrix(1.00000001 0 0 1 .000001 -.000024)"/></svg>