<svg viewBox="0 0 16 16" xmlns="http://www.w3.org/2000/svg"><g fill="#555753"><path d="m13 11c-.552285 0-1 .447715-1 1s.447715 1 1 1 1-.447715 1-1-.447715-1-1-1z" opacity=".35"/><path d="m2.7718282 1.1484375c-.7149738.7147929-1.0210452 1.2116878-1.3476564 1.4902344.00257-.00139.00525-.00251.00781-.00391l8.7984872 8.2187541c-.151285.363343-.229595.752905-.230469 1.146484 0 1.656854 1.343146 3 3 3s3-1.343146 3-3-1.343146-3-3-3c-.5002.0004898-.992338.1260424-1.431641.3652344zm10.2281718 9.8515625c.552285 0 1 .447715 1 1s-.447715 1-1 1-1-.447715-1-1 .447715-1 1-1z"/></g></svg>