<svg viewBox="0 0 16 16" xmlns="http://www.w3.org/2000/svg"><path d="m0 3c0-1.6447 1.35529-3 3-3h5c1.6447 0 3 1.3553 3 3a1 1 0 0 1 -1 1 1 1 0 0 1 -1-1c0-.57129-.4287-1-1-1h-5c-.57131 0-1 .42871-1 1v5c0 .5713.42869 1 1 1a1 1 0 0 1 1 1 1 1 0 0 1 -1 1c-1.64471 0-3-1.3553-3-3zm5 5c0-1.6447 1.3553-3 3-3h5c1.6447 0 3 1.3553 3 3v5c0 1.64471-1.3553 3-3 3h-5c-1.6447 0-3-1.35529-3-3zm2 0v5c0 .5713.4287 1 1 1h5c.5713 0 1-.4287 1-1v-5c0-.57129-.4287-1-1-1h-5c-.5713 0-1 .42871-1 1z" fill="#2e3436" stroke-linecap="round"/></svg>