<svg xmlns="http://www.w3.org/2000/svg" viewBox="0 0 16 16">
  <path
     style="fill:#555753"
     d="M 2 1 C 1.446 1 1 1.446 1 2 L 1 14 C 1 14.554 1.446 15 2 15 L 12.585938 15 L 10.585938 13 L 3 13 L 3 11 L 8.5859375 11 L 6.828125 9.2421875 L 5.5292969 9.2421875 L 5.46875 9 L 3 9 L 3 7 L 3.7578125 7 L 3.7578125 5.5292969 L 5.1757812 5.1757812 L 5.21875 5 L 3 5 L 3 3 L 6 3 L 8 3 L 8 5 L 8 5.21875 L 9.2421875 5.5292969 L 9.2421875 6.828125 L 9.4140625 7 L 13 7 L 13 9 L 11.414062 9 L 15 12.585938 L 15 2 C 15 1.446 14.554 1 14 1 L 2 1 z M 6.5 4 L 6 6 L 4 6.5 L 6 7 L 6.5 9 L 7 7 L 9 6.5 L 7 6 L 6.5 4 z M 9 8 L 8 9 L 15 16 L 16 15 L 9 8 z "
     />
</svg>
