<?xml version="1.0" encoding="UTF-8" standalone="no"?>
<svg
   xmlns:dc="http://purl.org/dc/elements/1.1/"
   xmlns:cc="http://creativecommons.org/ns#"
   xmlns:rdf="http://www.w3.org/1999/02/22-rdf-syntax-ns#"
   xmlns:svg="http://www.w3.org/2000/svg"
   xmlns="http://www.w3.org/2000/svg"
   xmlns:sodipodi="http://sodipodi.sourceforge.net/DTD/sodipodi-0.dtd"
   xmlns:inkscape="http://www.inkscape.org/namespaces/inkscape"
   viewBox="0 0 16 16"
   version="1.1"
   id="svg8"
   sodipodi:docname="sc_deletetable.svg"
   inkscape:version="0.92.3 (2405546, 2018-03-11)">
  <metadata
     id="metadata14">
    <rdf:RDF>
      <cc:Work
         rdf:about="">
        <dc:format>image/svg+xml</dc:format>
        <dc:type
           rdf:resource="http://purl.org/dc/dcmitype/StillImage" />
      </cc:Work>
    </rdf:RDF>
  </metadata>
  <defs
     id="defs12" />
  <sodipodi:namedview
     pagecolor="#ffffff"
     bordercolor="#666666"
     borderopacity="1"
     objecttolerance="10"
     gridtolerance="10"
     guidetolerance="10"
     inkscape:pageopacity="0"
     inkscape:pageshadow="2"
     inkscape:window-width="2560"
     inkscape:window-height="1378"
     id="namedview10"
     showgrid="true"
     inkscape:zoom="41.7193"
     inkscape:cx="1.4577905"
     inkscape:cy="4.2121787"
     inkscape:window-x="0"
     inkscape:window-y="36"
     inkscape:window-maximized="1"
     inkscape:current-layer="svg8">
    <inkscape:grid
       type="xygrid"
       id="grid821" />
  </sodipodi:namedview>
  <path
     style="fill:#ffffff"
     d="M 2 5 L 2 14 L 8 14 L 8 9 C 8 8.446 8.446 8 9 8 L 14 8 L 14 5 L 2 5 z M 10 10 L 10 15 L 15 15 L 15 10 L 10 10 z "
     id="path2-3" />
  <path
     style="opacity:0.35;fill:#555753"
     d="M 2 2 L 2 4 L 14 4 L 14 2 L 2 2 z "
     id="path4-6" />
  <path
     inkscape:connector-curvature="0"
     style="fill:#555753"
     d="M 1,1 V 15 H 8 V 14 H 6 V 11 H 8 V 10 H 6 V 8 h 4 1 4 V 1 Z M 2,2 H 5 V 4 H 2 Z m 4,0 h 4 V 4 H 6 Z m 5,0 h 2.986328 V 4 H 11 Z M 2,5 H 5 V 7 H 2 Z m 4,0 h 4 V 7 H 6 Z m 5,0 h 2.986328 V 7 H 11 Z M 2,8 h 3 v 2 H 2 Z m 8.1875,1 C 9.5248,9 9,9.54899 9,10.21875 v 4.5625 C 9,15.45101 9.5248,16 10.1875,16 H 15 c 0.6627,0 1,-0.54899 1,-1.21875 v -4.5625 C 16,9.54899 15.66271,9 15,9 Z M 10,10 h 1 L 12.5,11.5 14,10 h 1 v 1 L 13.5,12.5 15,14 v 1 H 14 L 12.5,13.5 11,15 H 10 V 14 L 11.5,12.5 10,11 Z m -8,1 h 3 v 3 H 2 Z"
     id="path6-7" />
</svg>
