<?xml version="1.0" encoding="UTF-8" standalone="no"?>
<svg
   xmlns:dc="http://purl.org/dc/elements/1.1/"
   xmlns:cc="http://creativecommons.org/ns#"
   xmlns:rdf="http://www.w3.org/1999/02/22-rdf-syntax-ns#"
   xmlns:svg="http://www.w3.org/2000/svg"
   xmlns="http://www.w3.org/2000/svg"
   xmlns:sodipodi="http://sodipodi.sourceforge.net/DTD/sodipodi-0.dtd"
   xmlns:inkscape="http://www.inkscape.org/namespaces/inkscape"
   viewBox="0 0 16 16"
   version="1.1"
   id="svg5"
   sodipodi:docname="sc_deletetable.svg"
   inkscape:version="0.92.2 (unknown)"
   inkscape:export-filename="/home/matthias/git/icons/sifr_svg/sc_deletetable.png"
   inkscape:export-xdpi="96"
   inkscape:export-ydpi="96">
  <defs
     id="defs9" />
  <sodipodi:namedview
     pagecolor="#ffffff"
     bordercolor="#666666"
     borderopacity="1"
     objecttolerance="10"
     gridtolerance="10"
     guidetolerance="10"
     inkscape:pageopacity="0"
     inkscape:pageshadow="2"
     inkscape:window-width="1920"
     inkscape:window-height="1015"
     id="namedview7"
     showgrid="true"
     inkscape:zoom="32"
     inkscape:cx="2.3170361"
     inkscape:cy="6.0577441"
     inkscape:window-x="0"
     inkscape:window-y="36"
     inkscape:window-maximized="1"
     inkscape:current-layer="svg5"
     inkscape:snap-bbox="true"
     inkscape:snap-bbox-midpoints="true"
     inkscape:snap-bbox-edge-midpoints="true"
     inkscape:bbox-nodes="true"
     inkscape:bbox-paths="true"
     inkscape:object-paths="true"
     inkscape:snap-intersection-paths="true"
     inkscape:snap-smooth-nodes="true"
     inkscape:snap-midpoints="true"
     inkscape:snap-object-midpoints="true">
    <inkscape:grid
       type="xygrid"
       id="grid4486" />
  </sodipodi:namedview>
  <metadata
     id="metadata7838">
    <rdf:RDF>
      <cc:Work
         rdf:about="">
        <dc:format>image/svg+xml</dc:format>
        <dc:type
           rdf:resource="http://purl.org/dc/dcmitype/StillImage" />
        <dc:title />
        <cc:license
           rdf:resource="http://creativecommons.org/licenses/by-sa/4.0/" />
        <dc:rights>
          <cc:Agent>
            <dc:title>The Document Foundation</dc:title>
          </cc:Agent>
        </dc:rights>
        <dc:contributor>
          <cc:Agent>
            <dc:title>Matthias Freund</dc:title>
          </cc:Agent>
        </dc:contributor>
      </cc:Work>
      <cc:License
         rdf:about="http://creativecommons.org/licenses/by-sa/3.0/">
        <cc:permits
           rdf:resource="http://creativecommons.org/ns#Reproduction" />
        <cc:permits
           rdf:resource="http://creativecommons.org/ns#Distribution" />
        <cc:requires
           rdf:resource="http://creativecommons.org/ns#Notice" />
        <cc:requires
           rdf:resource="http://creativecommons.org/ns#Attribution" />
        <cc:permits
           rdf:resource="http://creativecommons.org/ns#DerivativeWorks" />
        <cc:requires
           rdf:resource="http://creativecommons.org/ns#ShareAlike" />
      </cc:License>
    </rdf:RDF>
  </metadata>
  <rect
     style="opacity:1;fill:#fffffd;fill-opacity:1;stroke:none;stroke-width:5.61951494;stroke-miterlimit:4;stroke-dasharray:none;stroke-opacity:1"
     id="rect843"
     width="5"
     height="5"
     x="10"
     y="10" />
  <rect
     style="opacity:0.35;fill:#555753;fill-opacity:1;stroke:none;stroke-width:0.53935987;stroke-opacity:1"
     id="rect1099-7-5-2-3-2-8"
     width="12"
     height="2"
     x="2"
     y="3" />
  <path
     inkscape:connector-curvature="0"
     style="display:inline;fill:#ffffff;fill-opacity:0.99230766;fill-rule:nonzero;stroke:none;stroke-width:3.46410203"
     d="m 2,6 v 8 H 8 V 10.21875 C 8,9.026614 8.972524,8 10.1875,8 H 14 V 6 Z"
     id="rect5509-3-0-6-5-5-9-9-3-9-6-3-9" />
  <path
     inkscape:connector-curvature="0"
     style="opacity:1;fill:#555753;fill-opacity:1;stroke:none;stroke-width:0.68952358;stroke-opacity:1"
     d="M 2,2 V 15 H 8 V 14 H 7 V 12 H 8 V 11 H 7 V 9 H 8.367187 C 8.758248,8.404195 9.425029,8 10.1875,8 H 11 V 6 h 3 v 2 h 1 V 2 Z M 3,3 H 6 V 5 H 3 Z m 4,0 h 3.048828 V 5 H 7 Z m 4,0 h 3 V 5 H 11 Z M 3,6 H 6 V 8 H 3 Z m 4,0 h 3.048828 V 8 H 7 Z M 3,9 h 3 v 2 H 3 Z m 0,3 h 3 v 2 H 3 Z"
     id="rect840-3-6-3-1-7-1-7-7-7"
     sodipodi:nodetypes="cccccccccccscccccccccccccccccccccccccccccccccccccccccc" />
  <path
     inkscape:connector-curvature="0"
     style="color:#bebebe;display:inline;overflow:visible;visibility:visible;fill:#555753;fill-opacity:1;stroke:none;stroke-width:1.99999988;marker:none"
     d="M 10.1875,9 C 9.5248,9 9,9.54899 9,10.21875 v 4.5625 C 9,15.45101 9.5248,16 10.1875,16 H 15 c 0.6627,0 1,-0.54899 1,-1.21875 v -4.5625 C 16,9.54899 15.66271,9 15,9 Z M 10,10 h 1 L 12.5,11.5 14,10 h 1 v 1 L 13.5,12.5 15,14 v 1 H 14 L 12.5,13.5 11,15 H 10 V 14 L 11.5,12.5 10,11 Z"
     id="path8937-3-0-5-3" />
</svg>
