<svg viewBox="0 0 16 16" xmlns="http://www.w3.org/2000/svg"><g fill="#555753"><path d="m1 0v16h7.0644531c-.6539074-.637299-1.0644531-1.523094-1.0644531-2.5a1.0001 1.0001 0 0 0 0-.001953c.000026-.024977.0052992-.049291.0058594-.074219l-.5058594.576172h-3.5v-3.5l3-3 2.3222656 3.28125.515625-.5a1.0001 1.0001 0 0 1 .0234375-.021484l.0371094-.033204-2.8984375-3.726562-3 3v-7.5h10v4.53125c.411046-.3104736.926903-.53125 1.5-.53125h.5v-6zm9 3c-1.1045695 0-2 .8954305-2 2s.8954305 2 2 2c1.104569 0 2-.8954305 2-2s-.895431-2-2-2zm0 1c.552285 0 1 .4477153 1 1s-.447715 1-1 1-1-.4477153-1-1 .447715-1 1-1zm4.5 3c-.374381 0-.714607.1519549-1 .4003906l-3.9667969 3.5996094-1.03125 1c-.3252525.432496-.5013898.958852-.5019531 1.5 0 1.380712 1.1192881 2.5 2.5 2.5 1.380712 0 2.5-1.119288 2.5-2.5.0017-1.189345-.834683-2.215257-2-2.453125l3.130859-2.8886719c.151074-.1582031.233269-.1582031.369141-.1582031h.5v.5c0 .2761424.223858.5.5.5s.5-.2238576.5-.5v-.5c0-.7012708-.15753-1-1-1zm-.15625 2.3203125-1.734375 1.6015625c.793285.650168 1.392165 1.502505 1.390625 2.580078-.000554.976419-.410643 1.86113-1.064453 2.498047h2.064453v-6.1210938c-.261588-.1195117-.4834-.3151641-.65625-.5585937zm-3.84375 2.6796875c.828427 0 1.5.671573 1.5 1.5s-.671573 1.5-1.5 1.5c-.8284271 0-1.5-.671573-1.5-1.5s.6715729-1.5 1.5-1.5z"/><path d="m10 3c-1.1045695 0-2 .8954305-2 2s.8954305 2 2 2c1.104569 0 2-.8954305 2-2s-.895431-2-2-2zm-4 3.5-3 3-2 6.5h7.0644531c-.6539074-.637299-1.0644531-1.523094-1.0644531-2.5a1.0001 1.0001 0 0 0 0-.001953c.0007885-.757465.2478573-1.494229.703125-2.099609a1.0001 1.0001 0 0 1 .1035156-.117188l1.03125-1a1.0001 1.0001 0 0 1 .0234375-.021484l.0371094-.033204zm7.017578 4.044922-.408203.376953c.361412.296209.673699.639169.916016 1.021484zm-2.517578 2.455078c-.287987 0-.5.212013-.5.5s.212013.5.5.5.5-.212013.5-.5-.212013-.5-.5-.5zm3.478516.191406c.011086.101684.021636.204524.021484.310547-.000554.976419-.410643 1.86113-1.064453 2.498047h2.064453z" opacity=".35"/></g></svg>