<svg xmlns="http://www.w3.org/2000/svg" viewBox="0 0 16 16">
  <path
     style="fill:#555753"
     d="M 2 1 L 2 11.683594 L 1.71875 11.3125 C 1.528462 11.12983 1.256892 11 1 11 L 0 11 L 0 11.412109 L 0 12 C 0 12.30945 0.0903 12.55232 0.28125 12.75 L 2.1640625 15 L 3.7792969 15 C 4.3976513 14.274849 4.9491557 13.766078 5.71875 12.75 C 5.9097 12.55232 6 12.30945 6 12 L 6 11.412109 L 6 11 L 5 11 C 4.7759784 11 4.471551 11.12983 4.28125 11.3125 L 4 11.683594 L 4 1 L 2 1 z M 6 1 C 5.44774 1 5 1.44774 5 2 L 6 2 L 14 2 L 15 2 C 15 1.44774 14.55226 1 14 1 L 6 1 z M 5 3 C 5.0113 3.84636 5 3.8326756 5.7304688 4.6660156 L 8 7 L 12 7 L 14.269531 4.6660156 C 15 3.8326756 15 3.83333 15 3 L 5 3 z M 8 8 L 8 14 C 8 14.66788 8.5091381 15.383231 9.28125 14.779297 L 11.746094 13.095703 C 12.018588 12.83475 12.024964 12.720128 12.023438 12.4375 L 12 8 L 8 8 z "
     />
</svg>
