<svg viewBox="0 0 16 16" xmlns="http://www.w3.org/2000/svg"><path d="m4 2v7h11v-7zm1 1h2v1h-2zm3 0h3v1h-3zm4 0h2v1h-2zm-11.46875 2c-.28913 0-.53125.24205-.53125.53125v9.9375c0 .2985.23264.53125.53125.53125h13.8125c.2986 0 .53125-.23265.53125-.53125l1.125-4.916016c0-.2891-.24212-.53125-.53125-.53125h-11.59375l-.875 3.478516c0 .277-.223.5-.5.5s-.5-.223-.5-.5v-4.9960938c0-.2769998.223-.5.5-.5h.4667969v-3.0039062zm4.46875 0h2v1h-2zm3 0h3v1h-3zm4 0h2v1h-2zm-7 2h2v1h-2zm3 0h3v1h-3zm4 0h2v1h-2z" fill="#555753"/></svg>