<svg viewBox="0 0 16 16" xmlns="http://www.w3.org/2000/svg"><path d="m0 1v2h2v-2zm4 0v2h12v-2zm3 4v2h2v-2zm4 0v2h5v-2zm-9 0v1c0 .224022.12983.528449.3125.71875l.371094.28125 1.316406 1-1.316406 1-.371094.28125c-.18267.190288-.338596.463187-.3125.71875v1h.412109.587891c.30945 0 .55232-.0903.75-.28125l2.25-1.8828125v-1.6152344c-.725151-.618354-1.233922-1.1698591-2.25-1.9394531-.19768-.19095-.440922-.2660757-.75-.28125h-.587891zm5 4v2h2v-2zm4 0v2h5v-2zm-4 4v2h2v-2zm4 0v2h5v-2z" fill="#555753"/></svg>