<svg viewBox="0 0 16 16" xmlns="http://www.w3.org/2000/svg"><g fill="#555753"><path d="m4 0c-1.6446968 0-3 1.3553032-3 3v9c0 1.644696 1.3553032 3 3 3h8.130859l-2.130859-2.130859v.130859h-.7773438a1.0314715 1.0314715 0 0 1 -1.4941406.005859l-.0058594-.005859h-.7226562v-.777344l-1-1.076172v1.853516h-2c-.5712988 0-1-.428702-1-1v-.492188a1.0314715 1.0314715 0 0 1 -.625-1.433593l.625-1.2500002v-.8242188h.4121094l.1660156-.3320312-.3339844-.6679688h-.2441406v-.4882812l-.625-1.25a1.0314715 1.0314715 0 0 1 .625-1.4335938v-.828125c0-.5712988.4287012-1 1-1h2v2h-1.328125l1.2890625.2324219 1.0390625-1.1191407v-1.1132812h3v2h-.3417969l.1386719 1h.203125v.6289062l1 .5195313v-1.1484375h3v2h-1.527344a1.0314715 1.0314715 0 0 1 .189453 1h1.337891v2h-1.123047l1 1h.123047v.123047l1.835938 1.837891c.104088-.302818.164062-.624858.164062-.960938v-9c0-1.6446968-1.355304-3-3-3zm7 2h2c.571298 0 1 .4287012 1 1v1h-3z"/><path d="m4 2c-.5712982 0-1 .4287018-1 1v.828125a1.0314715 1.0314715 0 0 1 .4804688-.0429688l1.1914062.2148438h1.328125v-2zm3 0v1.1132812l.7285156-.7832031a1.0314715 1.0314715 0 0 1 1.0664063-.28125 1.0314715 1.0314715 0 0 1 .7109375.8417969l.1523437 1.109375h.3417969v-2zm4 0v2h3v-1c0-.5712982-.428703-1-1-1z" opacity=".35"/><path d="m8.4840871 3.0310107-2.152344 2.316406-3.035156-.546875 1.433594 2.867188-1.433594 2.8671873 3.035156-.546875 2.152344 2.316407.441406-3.203126 2.7617189-1.4335933-2.7617189-1.433594zm2.5078129 6.9609383c-.40625 0-.773438.246093-.925782.625-.1523439.375-.0625.808593.230469 1.089843l3.984375 3.984375c.25.261719.621094.367188.972656.277344.347656-.08984.625-.367188.714844-.714844.08984-.351562-.01563-.722656-.273438-.976562l-3.984374-3.984375c-.1875-.191407-.449219-.300781-.71875-.300781z"/></g></svg>