<svg viewBox="0 0 16 16" xmlns="http://www.w3.org/2000/svg"><g fill="#2e3436"><path d="m0 14c0 1.107999.89200111 2 2 2h3c1.1079989 0 2-.892001 2-2v-11c0-1.107999-.8920011-2-2-2h-3c-1.10799889 0-2 .892001-2 2zm2 0v-3h3v3zm0-4v-3h3v3zm0-4v-3h3v3z" opacity=".99"/><path d="m8 16h2c1.107997 0 2-.892003 2-2v-2.283203c-.142367-.083942-.277562-.183815-.398438-.304688-.385837-.385835-.579622-.898793-.580078-1.412109h-1.021484-1-1v1h2v3h-2zm0-9.7011719c.3002866-.1862321.6442856-.2988281 1-.2988281h-1zm0-3.2988281h2v3h1.021484c.000456-.513316.194241-1.026275.580078-1.412109.120877-.120875.256071-.220746.398438-.304688v-1.283203c0-1.107997-.892003-2-2-2h-2z" opacity=".99"/><path d="m13.015625 5.001953c-.255922 0-.511769.09771-.707031.292969-.390524.390521-.390524 1.023542 0 1.414062l.277344.291016h-.585938-3a1 1 0 0 0 -1 1 1 1 0 0 0 1 1h3 .585938l-.277344.291016c-.390524.3905201-.390524 1.023541 0 1.414062.195262.195258.451109.292969.707031.292969s.511771-.09771.707031-.292969l1.277344-1.291016.671875-.673828.02539-.02344c.193538-.188261.302731-.446792.302735-.716794-.000004-.270003-.109197-.528533-.302734-.716797l-.025391-.023437-.671875-.673829-1.277344-1.291015c-.19526-.195261-.451109-.292969-.707031-.292969z"/></g></svg>