<svg xmlns="http://www.w3.org/2000/svg" viewBox="0 0 16 16">
 <path
     style="fill:#555753"
     d="M 1 1 L 1 3 L 3 3 L 3 1 L 1 1 z M 5.5429688 1 C 5.2423474 1 5 1.2423474 5 1.5429688 L 5 2.4570312 C 5 2.7576526 5.2423474 3 5.5429688 3 L 14.457031 3 C 14.757653 3 15 2.7576526 15 2.4570312 L 15 1.5429688 C 15 1.2423474 14.757653 1 14.457031 1 L 5.5429688 1 z M 11.5625 4 L 11.28125 4.28125 L 9.28125 6.28125 C 9.09304 6.46943 9 6.73471 9 7 L 9 8 L 10 8 C 10.26531 8.00004 10.53057 7.90686 10.71875 7.71875 L 11 7.4375 L 11 9 A 1.0001 1.0001 0 0 0 11 9.0136719 C 10.996357 9.5396063 10.788291 10.041972 10.416016 10.414062 C 10.040457 10.789437 9.5309891 11.000263 9 11 L 8 11 L 7.4375 11 L 7.71875 10.71875 C 7.9069 10.53058 8 10.2653 8 10 L 8 9 L 7 9 C 6.73469 9.00003 6.46942 9.09311 6.28125 9.28125 L 4.28125 11.28125 L 4 11.5625 L 4 12.4375 L 4.28125 12.71875 L 6.28125 14.71875 C 6.46943 14.90696 6.73471 15 7 15 L 8 15 L 8 14 C 8.00004 13.73469 7.90686 13.46943 7.71875 13.28125 L 7.4375 13 L 8 13 L 9 13 C 10.060824 13.000525 11.079777 12.580008 11.830078 11.830078 C 12.533254 11.12725 12.933135 10.185733 12.982422 9.1972656 A 1.0001 1.0001 0 0 0 13 9.0273438 C 13.000063 9.0181397 13.001953 9.0092105 13.001953 9 L 13.001953 8 L 13 8 L 13 7.4375 L 13.28125 7.71875 C 13.46942 7.9069 13.7347 8 14 8 L 15 8 L 15 7 C 14.99997 6.73469 14.90689 6.46942 14.71875 6.28125 L 12.71875 4.28125 L 12.4375 4 L 11.5625 4 z M 1.515625 5 C 1.2304089 5 1 5.2304089 1 5.515625 L 1 14.484375 C 1 14.769591 1.2304089 15 1.515625 15 L 2.484375 15 C 2.7695911 15 3 14.769591 3 14.484375 L 3 5.515625 C 3 5.2304089 2.7695911 5 2.484375 5 L 1.515625 5 z "
     />
 </svg>
