<svg viewBox="0 0 16 16" xmlns="http://www.w3.org/2000/svg"><g fill="#555753"><path d="m0 0v9h1v7h7v-2h-1v-2h1v-1h-1v-2h1c0-.554.446-1 1-1v-2h1v2h1v-2h3v2h2v-7h-7v-1zm2 2h5v5h-5zm7 1h1v2h-1zm2 0h3v2h-3zm-8 6h3v2h-3zm7.1875 0c-.6627 0-1.1875.54899-1.1875 1.21875v4.5625c0 .66976.5248 1.21875 1.1875 1.21875h4.8125c.6627 0 1-.54899 1-1.21875v-4.5625c0-.66976-.33729-1.21875-1-1.21875zm-.1875 1h1l1.5 1.5 1.5-1.5h1v1l-1.5 1.5 1.5 1.5v1h-1l-1.5-1.5-1.5 1.5h-1v-1l1.5-1.5-1.5-1.5zm-7 2h3v2h-3z"/><path d="m2 2h5v5h-5z" opacity=".35"/></g></svg>