<svg viewBox="0 0 16 16" xmlns="http://www.w3.org/2000/svg"><g fill="#2e3436"><path d="m3 1c-1.6446968 0-3 1.3553032-3 3v6c0 1.644696 1.3553032 3 3 3h.0410156c.0943471-.543973.3508649-1.052087.7460938-1.447266l.5527344-.552734h-1.3398438c-.5712988 0-1-.428702-1-1v-6l.0195312-.2011719c.038587-.3974467.3880087-.6996329.7792969-.7792969.0652148-.0132772.1319221-.0195312.2011719-.0195312h.8027344 8.3945316.802734c.06925 0 .135957.0062503.201172.0195312.004629.0009425.009055.0029018.013672.0039063.108484-.0141855.216734-.0240089.324218-.0253906h.001954c.095171-.001312.200352.0021889.316406.0136719.0014.0001414.002506-.0001444.003906 0 .843456.0800678 1.583869.4734214 2.138672 1.0507812v-.0625c0-1.6446968-1.355304-3-3-3zm13 7.6601562-4.339844 4.3398438h.339844 1c1.644694 0 3-1.355306 3-3z"/><path d="m13.551786 3.99988c-.49097.006-.9906.19654-1.4326.63855l-7.6228997 7.62291c-.31768.31764-.4962.74845-.49629 1.19769v2.54097h2.54097c.44924-.00008.88005-.1786 1.1977-.49629l7.6229097-7.6229c1.51544-1.51544.07-3.71839-1.5997-3.87266-.0695-.007-.13995-.009-.21008-.008zm-1.50539 3.05545.89828.89827-.44831.44996-5.0819297 5.08194-.44997.44831-.89828-.89827.44831-.44997 5.0819397-5.08193z" stroke-width=".999998"/></g></svg>