<svg viewBox="0 0 16 16" xmlns="http://www.w3.org/2000/svg"><path d="m10 1c-3.1706633 0-5.8461694 2.1090133-6.7070312 5h-2.2929688v2h2c0 .3407031.0330412.6723111.1 1h-2.1v2h2.6835938c1.1164062 2.362563 3.5257514 4 6.3164062 4 1.610949-.0023 3.149456-.558112 4.375-1.542969l-1.384766-1.457031c-.862807.64711-1.911725 1-2.990234 1-1.6301326 0-3.0637894-.792749-3.9765625-2h2.9765625v-2h-3.9003906c-.065571-.3230704-.0996094-.6575793-.0996094-1h5v-2h-4.578125c.7723848-1.7639645 2.5292121-3 4.578125-3 1.078509.00211 2.127427.3528904 2.990234 1l1.22461-1.5859375c-1.198887-.904975-2.673713-1.4135396-4.214844-1.4140625z" fill="#555753"/></svg>