<svg xmlns="http://www.w3.org/2000/svg" viewBox="0 0 16 16">
 <path
     style="fill:#555753"
     d="M 0 1 L 0 8 L 1 8 L 1 15 L 15 15 L 15 2 L 7 2 L 7 1 L 0 1 z M 1 2 L 6 2 L 6 7 L 1 7 L 1 2 z M 7 3 L 10 3 L 10 6 L 7 6 L 7 3 z M 11 3 L 14 3 L 14 6 L 11 6 L 11 3 z M 7 7 L 10 7 L 10 10 L 6 10 L 6 8 L 7 8 L 7 7 z M 11 7 L 14 7 L 14 10 L 11 10 L 11 7 z M 2 8 L 5 8 L 5 10 L 2 10 L 2 8 z M 2 11 L 5 11 L 5 14 L 2 14 L 2 11 z M 6 11 L 10 11 L 10 14 L 6 14 L 6 11 z M 11 11 L 14 11 L 14 14 L 11 14 L 11 11 z "
     />
 <path
     style="fill:#555753;opacity:0.35"
     d="M 1 2 L 1 7 L 6 7 L 6 2 L 1 2 z "
     />
 </svg>
