<svg height="16" viewBox="0 0 16 16" width="16" xmlns="http://www.w3.org/2000/svg"><g fill="#555753" transform="matrix(1 0 0 -1 0 16)"><path d="m6 0h4v16h-4z" opacity=".35"/><path d="m5 1.5371094c-2.3624155.883475-4 2.7703177-4 4.9628906.00301.1003817.0095304.2006799.0195312.3007812-.0131571.0655859-.01970032.1323264-.0195312.1992188 0 .5522847.4477153 1 1 1s1-.4477153 1-1v-.5c0-1.1410917.7927513-2.1442618 2-2.7832031zm6 0v2.1796875c1.207249.6389413 2 1.6421114 2 2.7832031 0 1.9329966-2.238576 3.5-5 3.5-.1758342-.0002671-.3488403-.0239102-.5234375-.0371094l.03125-.0332031 1.2109375-1.2109375c.18815-.18817.28125-.45345.28125-.71875v-1h-1c-.26531.00003-.53058.09311-.71875.28125l-3 3-.28125.28125v.875l.28125.28125 3 3c.18818.18821.45346.281251.71875.28125h1v-1c.00004-.265309-1.09314-1.530569-1.28125-1.71875l-.28125-.28125h.5625c.090455 0 .1779558-.009.2675781-.01172.0775081.003489.154805.010158.2324219.01172l-.013672-.01953c3.637857-.197232 6.513672-2.5720584 6.513672-5.48047 0-2.1925729-1.637585-4.0794156-4-4.9628906z"/></g></svg>