<svg xmlns="http://www.w3.org/2000/svg" viewBox="0 0 16 16">
  <path
     style="fill:#555753"
     d="M 13 1 C 13 2.1635126 12 3 11 3 L 11 5 L 13 5 L 13 8 L 15 8 L 15 1 L 13 1 z M 7 2 C 5.343146 2 4 3.343146 4 5 L 4 7 L 3 7 L 3 9 L 4 9 L 4 14 L 6 14 L 6 10 L 6 9 L 8 9 L 8 7 L 6 7 L 6 6 L 6 5 C 6 4.447716 6.447715 4 7 4 L 9 4 L 9 2 L 7 2 z M 12 9 L 12 10 C 13.56 11.6 11.433517 13.5 10 12 L 9 12 L 9 13 C 9.8 13.77 10.640391 14 11.4 14 L 13 14 L 15 16 L 16 16 L 16 15 L 14 13 L 14 11.4 C 14 10.5 13.8 9.8 13 9 L 12 9 z "
     />
</svg>
