<svg viewBox="0 0 16 16" xmlns="http://www.w3.org/2000/svg"><g fill="#555753"><path d="m5 3c-1.656854 0-3 2.2385763-3 5 0 2.761424 1.343146 5 3 5h7.794922a4 6 0 0 1 -1.794922-5 4 6 0 0 1 1.792969-5z" opacity=".35"/><path d="m5 2c-1.2787938 0-2.3201674.8519717-2.9785156 1.9492188-.6583483 1.097247-1.0214844 2.5079373-1.0214844 4.0507812 0 1.542844.3631361 2.953534 1.0214844 4.050781.6583482 1.097247 1.6997218 1.949219 2.9785156 1.949219h10.224609l-1.726562-1.710938c-.861446-.85378-1.496861-2.4991495-1.498047-4.289062.000801-1.7894156.636985-3.436529 1.498047-4.2910156l1.722656-1.7089844zm0 2h6.033203c-.609777 1.189762-1.032541 2.5208106-1.033203 4 .000981 1.4795328.424834 2.810334 1.035156 4h-6.035156c-.3780602 0-.8362336-.266119-1.2636719-.978516-.4274382-.712397-.7363281-1.802904-.7363281-3.021484 0-1.2185798.3088899-2.3090873.7363281-3.0214844.4274383-.712397.8856117-.9785156 1.2636719-.9785156z"/></g></svg>