<svg xmlns="http://www.w3.org/2000/svg" viewBox="0 0 16 16">
  <path
     style="fill:#555753"
     d="M 8 1 A 7 7 0 0 0 1 8 A 7 7 0 0 0 8 15 A 7 7 0 0 0 15 8 A 7 7 0 0 0 8 1 z M 7 2.0859375 L 7 7 L 2.0898438 7 A 6 6 0 0 1 7 2.0859375 z M 9 2.0898438 A 6 6 0 0 1 13.914062 7 L 9 7 L 9 2.0898438 z M 2.0859375 9 L 7 9 L 7 13.910156 A 6 6 0 0 1 2.0859375 9 z M 9 9 L 13.910156 9 A 6 6 0 0 1 9 13.914062 L 9 9 z "
     />
  <path
     style="opacity:0.35;fill:#555753"
     d="M 8 2 A 6 6 0 0 0 2 8 A 6 6 0 0 0 8 14 A 6 6 0 0 0 14 8 A 6 6 0 0 0 8 2 z "
     />
</svg>
