<svg xmlns="http://www.w3.org/2000/svg" viewBox="0 0 16 16">
  <path
     style="fill:#555753"
     d="m 0,2 v 10 c 0,1.656854 1.790861,3 4,3 C 5.6930722,14.9982 7.4356437,14.033121 8,12.835938 8.484375,11.917968 9.343146,11 11,11 c 1.656854,0 3,0.895431 3,2 h 1 V 2 Z m 1,1 h 13 v 8.035156 C 13.266765,10.405866 12.201824,10 11,10 9.306211,10.00116 7.8731897,10.802309 7.3085938,12 6.9687499,12.616288 5.6568542,14 4,14 2.3431458,14 1,13.104569 1,12 Z"
     />
  <path
     style="fill:#555753;opacity:0.35"
     d="m 1,3 h 13 v 8.035156 C 13.266765,10.405866 12.201824,10 11,10 9.306211,10.00116 7.8731896,10.802309 7.3085938,12 6.9687498,12.616288 5.6568542,14 4,14 2.3431458,14 1,13.104569 1,12 Z"
     />
</svg>
