<svg viewBox="0 0 16 16" xmlns="http://www.w3.org/2000/svg"><path d="m11 0c-1.4611247 0-2.6761767 1.0446416-2.9433594 2.4277344a4 4 0 0 1 .9433594 2.5722656 4 4 0 0 1 -.0097656.2128906c.5327296.4840706 1.2332506.7871094 2.0097656.7871094 1.656854 0 3-1.3431458 3-3s-1.343146-3-3-3zm-6 2c-1.6568542 0-3 1.3431458-3 3s1.3431458 3 3 3 3-1.3431458 3-3-1.3431458-3-3-3zm6 0c.552285 0 1 .4477153 1 1s-.447715 1-1 1-1-.4477153-1-1 .447715-1 1-1zm-6 2c.5522847 0 1 .4477153 1 1s-.4477153 1-1 1-1-.4477153-1-1 .4477153-1 1-1zm6 3c-1.4046276 0-2.6698607.5830308-3.578125 1.515625a6 6 0 0 1 1.7167969 1.1484375c.5128239-.409301 1.1541781-.6640625 1.8613281-.6640625 1.656854 0 3 1.343146 3 3h-3.349609a6 6 0 0 1 .349609 2h5v-1.941406c.000114-.01953.000114-.039064 0-.058594 0-2.761424-2.238576-5-5-5zm-6 2c-2.7614237 0-5 2.238576-5 5v2h10v-1.941406c.000114-.019531.000114-.039063 0-.058594 0-2.761424-2.238576-5-5-5zm0 2c1.6568542 0 3 1.343146 3 3h-6c0-1.656854 1.3431458-3 3-3z" fill="#2e3436"/></svg>