<svg viewBox="0 0 16 16" xmlns="http://www.w3.org/2000/svg"><g fill="#555753"><path d="m3 1a3 3 0 0 0 -3 3v2a3 3 0 0 0 3 3 3 3 0 0 0 3-3v-2a3 3 0 0 0 -3-3zm9 0-10 13 1 1 10-13zm-9 2a1 1 0 0 1 1 1v2a1 1 0 0 1 -1 1 1 1 0 0 1 -1-1v-2a1 1 0 0 1 1-1zm9 4a3 3 0 0 0 -3 3v2a3 3 0 0 0 3 3 3 3 0 0 0 3-3v-2a3 3 0 0 0 -3-3zm0 2a1 1 0 0 1 1 1v2a1 1 0 0 1 -1 1 1 1 0 0 1 -1-1v-2a1 1 0 0 1 1-1z" opacity=".35"/><path d="m8 6c1.108 0 2 .9 2 2v2h2.541016c.713616-1.2360223 2.03175-2 3.458984-2v8c-1.427234 0-2.745368-.763978-3.458984-2h-4.541016c-1.1 0-2-.892-2-2v-4c0-1.1.9-2 2-2z"/></g></svg>