<svg viewBox="0 0 16 16" xmlns="http://www.w3.org/2000/svg"><path d="m6.4101562 3.6777344-3.0273442 2.5019531c-.260249.2030046-.382812.5203125-.367187.8203125h-.015625v3c0 .554-.446 1-1 1s-1-.446-1-1v-3c-.000494-.7434953.233705-1.07 1-1.4355469zm9.5898438 9.3222656v3h-16v-3z" fill="#18a303"/><path d="m9 1v6a1 1 0 0 0 1 1 1 1 0 0 0 1-1v-6zm-1 1.3671875-4.615234 3.8125c-.424766.3327526-.512677.9489321-.184766 1.3828125l5.25 7.05c.3.433881.9.514393 1.3535156.181641l4.8183598-3.976563c.426585-.332752.5-.95.185547-1.3847654l-2.8074224-3.7648438v1.3320312c0 1.1-.907275 2-2 2-1.1 0-2-.9072751-2-2z" fill="#555753"/></svg>