<svg xmlns="http://www.w3.org/2000/svg" viewBox="0 0 16 16">
  <path
     style="fill:#0369a3"
     d="M 6.4101562,3.6777344 3.382812,6.1796875 C 3.122563,6.3826921 3,6.7 3.015625,7 H 3 L 3,10 C 3,10.554 2.554,11 2,11 1.446,11 1,10.554 1,10 L 1,7 c -4.94e-4,-0.7434953 0.233705,-1.07 1,-1.4355469 z M 16,13 v 3 H 0 v -3 z"
     />
  <path
     style="fill:#555753"
     d="m 9,1 v 6 a 1,1 0 0 0 1,1 1,1 0 0 0 1,-1 V 1 Z m -1,1.3671875 -4.615234,3.8125 C 2.96,6.5124401 2.872089,7.1286196 3.2,7.5625 l 5.25,7.05 c 0.3,0.433881 0.9,0.514393 1.3535156,0.181641 l 4.8183598,-3.976563 c 0.426585,-0.332752 0.5,-0.95 0.185547,-1.3847654 L 12,5.6679688 V 7 c 0,1.1 -0.907275,2 -2,2 -1.1,0 -2,-0.9072751 -2,-2 z"
     />
</svg>
