<svg xmlns="http://www.w3.org/2000/svg" viewBox="0 0 16 16">
 <path
   style="fill:#555753"
   d="M 16,0 H 0 v 8 h 16 z m -1,11.5625 -0.28125,-0.28125 -2,-2 C 12.53058,9.1 12.26531,9 12,9 h -1 v 1 c 0,0.2653 0.0931,0.529799 0.28125,0.699219 L 11.5625,11 H 11 10 v 2 h 1 0.5625 l -0.28125,0.28125 C 11.1,13.46943 11,13.73469 11,14 v 1 h 1 c 0.26529,0 0.529789,-0.1 0.699219,-0.28125 l 2,-2 L 15,12.4375 Z M 14,2 V 6 H 2 V 2 Z M 6,11 H 5 4.4375 L 4.699219,10.699219 C 4.9,10.529799 5,10.2653 5,10 V 9 H 4 C 3.73469,9 3.470201,9.1 3.300781,9.28125 l -2,2 L 1,11.5625 v 0.875 l 0.28125,0.28125 2,2 C 3.46943,14.9 3.73471,15 4,15 H 5 V 14 C 5,13.73469 4.9,13.470211 4.71875,13.300781 L 4.4375,13 H 5 6 Z"
   />
</svg>
