<svg xmlns="http://www.w3.org/2000/svg" viewBox="0 0 16 16">
  <path
     style="fill:#555753"
     d="M 11 0 L 4.25 6.5234375 C 2.6823334 8.00089 1.4614313 9.4764971 0.77148438 10.835938 C 0.078391575 12.201576 -0.17419414 13.439923 0.12304688 14.435547 C 0.2716674 14.93336 0.57833555 15.366808 1.0175781 15.640625 C 1.4568208 15.91444 2.0058878 16.02719 2.6230469 15.994141 C 3.8573651 15.928041 5.406125 15.304664 7.3203125 14 L 7.3613281 13.970703 L 16 5 L 16 3 L 13 0 L 11 0 z M 11.808594 2 L 12.171875 2 L 14 3.828125 L 14 4.1933594 L 6.0917969 12.404297 C 4.4069931 13.533163 3.1530866 13.96391 2.515625 13.998047 C 2.2052138 14.014667 2.091314 13.952799 2.0761719 13.943359 C 2.0847219 13.948659 2.0622585 13.940961 2.0390625 13.863281 C 1.9608646 13.601359 1.9938032 12.845376 2.5546875 11.740234 C 3.078224 10.708682 4.1601159 9.355419 5.6210938 7.9785156 L 5.6308594 7.96875 L 11.808594 2 z "
     />
  <path
     style="opacity:0.35;fill:#555753"
     d="M 11,0 4.25,6.5234375 C 2.6823334,8.00089 1.4614313,9.4764971 0.77148438,10.835938 0.07839158,12.201576 -0.17419414,13.439923 0.12304688,14.435547 0.2716674,14.93336 0.57833555,15.366808 1.0175781,15.640625 1.4568208,15.91444 2.0058878,16.02719 2.6230469,15.994141 3.8573651,15.928041 5.406125,15.304664 7.3203125,14 L 7.3613285,13.9707 16,5 V 3 L 13,0 Z"
     />
</svg>
