<svg xmlns="http://www.w3.org/2000/svg" viewBox="0 0 16 16">
  <path
     style="fill:#555753"
     d="M 2 1 L 2 6 L 14 6 L 14 1 L 12 1 L 12 4 L 4 4 L 4 1 L 2 1 z M 1 7 L 1 9 L 4 9 L 4 7 L 1 7 z M 5 7 L 5 9 L 8 9 L 8 7 L 5 7 z M 9 7 L 9 9 L 11 9 L 11 8 L 12 8 L 12 7 L 9 7 z M 13 7 L 13 8 L 13.4 8 L 13.7 8.3 C 13.934004 8.5240787 14.11815 8.76 14.3 9 L 16 9 L 16 7 L 13 7 z M 12 9 L 12 10 C 13.6 11.6 11.433517 13.497742 10 12 L 9 12 L 9 13 C 9.8 13.77108 10.635355 14 11.4 14 L 13 14 L 15 16 L 16 16 L 16 15 L 14 13 L 14 11.4 C 14 10.518021 13.785305 9.8 13 9 L 12 9 z M 2 10 L 2 15 L 4 15 L 4 12 L 8 12 L 8 11 L 11 11 L 10 10 L 2 10 z "
     />
</svg>
