<svg xmlns="http://www.w3.org/2000/svg" viewBox="0 0 16 16">
  <path
     style="fill:#555753"
     d="M 9 1 L 9 8 L 10 8 L 12 8 C 13.104569 8 14 7.1045695 14 6 C 14 4.8954305 13.104569 4 12 4 L 10 4 L 10 1 L 9 1 z M 3 3 L 3 4 L 6 4 L 6 5 L 3.5 5 C 2.6715729 5 2 5.6715729 2 6.5 C 2 7.328427 2.6715729 8 3.5 8 L 7 8 L 7 4 C 7 3.4477153 6.5522847 3 6 3 L 3 3 z M 10 5 L 12 5 C 12.552285 5 13 5.4477153 13 6 C 13 6.5522847 12.552285 7 12 7 L 10 7 L 10 5 z M 3.5 6 L 6 6 L 6 7 L 3.5 7 C 3.2238576 7 3 6.7761424 3 6.5 C 3 6.2238576 3.2238576 6 3.5 6 z M 4 9 C 3.73469 9.00003 3.46942 9.09311 3.28125 9.28125 L 1.28125 11.28125 L 1 11.5625 L 1 12.4375 L 1.28125 12.71875 L 3.28125 14.71875 C 3.46943 14.90696 3.73471 15 4 15 L 5 15 L 5 14 C 5.00004 13.73469 4.90686 13.46943 4.71875 13.28125 L 4.4375 13 L 15 13 L 15 11 L 4.4375 11 L 4.71875 10.71875 C 4.9069 10.53058 5 10.2653 5 10 L 5 9 L 4 9 z "
     />
</svg>
