<svg viewBox="0 0 16 16" xmlns="http://www.w3.org/2000/svg"><g fill="#555753"><path d="m0 1v14h4v-1a1.0001 1.0001 0 0 1 .2929688-.707031l.2929687-.292969h-2.5859375v-2l3-3 2.5488281 2.037109.5546875-.5546871-3.1035156-2.4824219-3 3v-7h12v1a1.0001 1.0001 0 0 1 .03125 0 1.0001 1.0001 0 0 1 .099609.0078125c.648176.085968 1.319692.2939515 1.869141.7753906v-3.7832031zm11 3c-1.1045695 0-2 .8954305-2 2 0 .7028066.3638752 1.3171396.9121094 1.6738281l.7382816-.7382812a1 1 0 0 1 -.650391-.9355469 1 1 0 0 1 1-1 1 1 0 0 1 1 1 1.0001 1.0001 0 0 1 .292969-.7070312l.380859-.3808594c-.356689-.5482342-.971022-.9121094-1.673828-.9121094zm3 1-1 1 2 2 1-1c-.129005-1.3579461-.925643-1.8575071-2-2zm-2 2-7 7v2h2l7-7zm4 1.4140625-.292969.2929687a1.0001 1.0001 0 0 1 -.707031.2929688 1.0001 1.0001 0 0 1 -.292969.7070312l-.707031.7070308v.585938l-.390625-.195312-.666016.666015 1.056641.529297v1h-2.585938l-1.9999995 2h6.5859375z"/><path d="m11 4c-1.1045695 0-2 .8954305-2 2 0 .7028066.3638752 1.3171396.9121094 1.6738281l1.3808596-1.3808593a1.0001 1.0001 0 0 1 .707031-.2929688 1.0001 1.0001 0 0 1 .292969-.7070312l.380859-.3808594c-.356689-.5482342-.971022-.9121094-1.673828-.9121094zm-6 3-3 3-2 5h4v-1a1.0001 1.0001 0 0 1 .2929688-.707031l3.8105468-3.8105471zm8.609375 3.804688-4.1953125 4.195312h6.5859375l-2-4z" opacity=".35"/></g></svg>