<svg viewBox="0 0 16 16" xmlns="http://www.w3.org/2000/svg"><path d="m1.152248 3.0097558c-.63273999 0-1.14212999.4455-1.14212999.99889v6.9922202c0 .55339.50939.99889 1.14212999.99889h13.70573c.63274 0 1.14214-.4455 1.14214-.99889v-6.9922202c0-.55339-.5094-.99889-1.14214-.99889zm9.86825 2.00847h.48583.48584v.9932699.99327h-.48584-.48583v-.99327zm-6.01733 0h.49688.49687l.50221.5023299.50222.50233v1.4899 1.4899l-.49154.49094-.49153.49092h-.50792-.50792l-.49117-.49129-.49117-.49129v-1.50094-1.50094l.49153-.49093zm4.00775 0h.49688.49687v.9932699.99327h.49688.49687v.49662.49664h-.49687-.49688v.99326.99326h-.49687-.49688v-2.48316zm-4.01916.9711899v1.51197 1.51197h.50793.50791v-1.51197-1.51197h-.50791zm6.02874 2.03068h.48583.48584v.98223.98222h-.48584-.48583v-.98222z" fill="#555753"/></svg>