<svg viewBox="0 0 16 16" xmlns="http://www.w3.org/2000/svg"><path d="m2.6875.04296875-2.6875 3.95703125v.9804688h2.8964844v1.3339843h1.2109375v-1.3339843h.8496093v-.9707032h-.8496093v-3.96679685zm3.4160156 0-.2207031 3.54882815h1.2382813c.093374-.1177871.2062574-.218243.3417968-.2988281.1355462-.0836893.3106437-.125.5214844-.125.1596388 0 .3003349.0246476.4238281.0742187.1265097.0495914.2320687.1218625.3164063.2148437.0873147.0929881.154004.2046106.1992187.3378907.048172.1301764.0722657.276323.0722657.4375-.0000001.182872-.0240937.3457086-.0722657.4882812-.048192.1425794-.1186203.2613365-.2089843.3574219-.0903641.0961054-.2005651.1691787-.3300782.21875-.1265096.0495713-.2680955.0742188-.4277344.0742188-.1626487 0-.3015588-.0210365-.4160156-.0644532-.1144568-.046494-.2107448-.1072501-.2890625-.1816406-.0782785-.0743904-.1403322-.1597807-.1855469-.2558594-.0421453-.0960854-.07549-.1945882-.0996093-.296875l-1.2695313.1074219c.0391556.2417622.1104802.466966.2128906.6777344.1054204.2107684.2470063.3946614.4277344.5527343.1837316.1549756.408769.2772968.6738282.3671876.2650657.0867797.5762239.1308593.9316406.1308593.3855424 0 .7234566-.0563899 1.015625-.1679687.2951848-.114683.5433931-.2695756.7421875-.4648438.1987943-.1983722.3478721-.43152.4472661-.7011718.10241-.2696586.152343-.5591895.152343-.8691407 0-.3037564-.044407-.5837323-.134765-.8378906-.090364-.2572556-.2208935-.4780864-.3925785-.6640625-.1716851-.1859693-.3819133-.3293606-.6289063-.4316406-.2469863-.1053842-.5265926-.1582032-.8398437-.1582032-.2560228 0-.4810537.0413176-.6738281.125-.192768.080592-.352006.1782858-.4785156.2929688l.1035156-1.515625h2.6757812v-.97265625zm7.3984374.03710938c-.198794 0-.386744.03697152-.564453.11132812-.174692.07438705-.328408.17922616-.460938.3125-.129523.13019002-.23133.28507927-.30664.46484375-.075292.1766705-.113281.3685008-.113281.5761719 0 .2045669.037967.3964075.113281.5761719.075304.1766807.177118.3315699.30664.4648437.132531.13019.286246.2349987.460938.3125.177709.0743566.365659.1113281.564453.1113281.198804 0 .385856-.0369711.560547-.1113281.177709-.077481.331414-.18231.460938-.3125.13253-.1332738.23719-.2881631.3125-.4648437.078326-.1797644.117187-.371605.117187-.5761719 0-.2076711-.038918-.3995014-.117187-.5761719-.075304-.17976448-.179971-.33465373-.3125-.46484375-.129523-.13327384-.283229-.2381434-.460938-.3125-.174691-.07435662-.361743-.11132812-.560547-.11132812zm0 .69335937c.10543 0 .201723.02027457.289063.06054688.090368.03719859.170078.09079597.236328.16210937.066275.06818895.116164.15002875.152344.24609375.03913.0929914.060546.1942528.060546.3027344 0 .1053875-.021407.2066693-.060546.3027343-.03615.0929814-.086094.1747808-.152344.2460938-.066265.0712829-.145928.128458-.236328.171875-.087351.040272-.183633.0605469-.289063.0605469-.105421 0-.202569-.0202749-.292969-.0605469-.090368-.0433865-.170934-.100562-.240234-.171875-.066251-.0712931-.11711-.1530718-.15625-.2460938-.03913-.0960854-.060547-.1973468-.060547-.3027343 0-.1084816.021407-.2097124.060547-.3027344.039156-.0960854.09-.1779251.15625-.24609375.069271-.07132351.149834-.12488038.240234-.16210937.090357-.0402722.187548-.06054688.292969-.06054688zm-10.5664061.4042969c-.0061134.046494-.0116648.1116233-.0175781.1953125-.00309.0805851-.0077586.1659754-.0136719.2558593-.0026267.0898907-.0045259.1788384-.0078125.265625v.203125 1.9121094h-1.8300782l1.4453126-2.078125c.0331092-.0526887.0710892-.1162069.1132812-.1875.0451689-.0712863.0877845-.1416043.1269531-.2128906.0421786-.0743633.0782055-.1430635.1113281-.2050781.0331221-.0651049.0572157-.1143529.0722657-.1484375zm12.0449221 2.7832031a1.0290944 1.0290944 0 0 0 -.708985.3105469l-9.9999996 9.9999996a1.0302769 1.0302769 0 1 0 1.4570312 1.457032l10.0000004-10.0000004a1.0290944 1.0290944 0 0 0 -.748047-1.7675781z" fill="#555753"/></svg>