<svg viewBox="0 0 16 16" xmlns="http://www.w3.org/2000/svg"><path d="m6.4746094 3c-3.4209102 0-6.21829991 2.6447609-6.4746094 6h2.0253906c.2518955-2.2466093 2.1353407-4 4.4492188-4s4.1973226 1.7533907 4.4492186 4h.025391l.050781 1v.5625l-1.3007812-1.2617188c-.16942-.2-.4343091-.2863962-.6992188-.3007812h-1v1c0 .26531.1.53058.28125.71875l3 3 .28125.28125h.875l.261719-.28125 3-3c.20696-.18818.300781-.45346.300781-.71875v-1h-1c-.26531 0-.53057.0939212-.71875.3007812l-1.28125 1.2617188v-.5625l-.050781-1c-.256309-3.3552391-3.0536993-6-6.4746096-6z" fill="#555753"/></svg>