<svg xmlns="http://www.w3.org/2000/svg" viewBox="0 0 16 16">
 <path
     style="fill:#555753"
     d="M 4.8125,1 C 4.3541,1.0875 3.99178,1.5334 4,2 V 9 H 6 V 3 h 4 v 3 h 3 v 3 h 2 V 5.5625 C 15.006,5.2984 14.9024,5.03355 14.71875,4.84375 l -3.5625,-3.5625 C 10.96647,1.09755 10.70156,0.99388 10.4375,1 H 5 C 4.9688,0.999 4.93745,0.999 4.90625,1 4.87505,0.999 4.8437,0.999 4.8125,1 Z M 0.53125,5 C 0.24212,5 0,5.24205 0,5.53125 v 9.9375 C 0,15.76725 0.23264,16 0.53125,16 h 13.8125 c 0.2986,0 0.53125,-0.23265 0.53125,-0.53125 L 16,10.552734 c 0,-0.2891 -0.24212,-0.53125 -0.53125,-0.53125 H 3.875 L 3,13.5 C 3,13.777 2.777,14 2.5,14 2.223,14 2,13.777 2,13.5 V 8.5039062 c 0,-0.2769999 0.223,-0.5 0.5,-0.5 H 3 V 5 Z"
     />
 </svg>
