<svg xmlns="http://www.w3.org/2000/svg" viewBox="0 0 16 16">
  <path
     style="fill:#555753"
     d="M 8 1 C 4.8293367 1 2.1538305 3.1090133 1.2929688 6 L 3.421875 6 C 4.1942598 4.2360355 5.9510871 3 8 3 C 10.761424 3 13 5.2385763 13 8 C 13 10.761424 10.761424 13 8 13 C 5.9510871 13 4.1942598 11.763964 3.421875 10 L 1.2929688 10 C 2.1538305 12.890987 4.8293367 15 8 15 C 11.865993 15 15 11.865993 15 8 C 15 4.1340068 11.865993 1 8 1 z M 6 5 L 6 6 C 6 6.2653 6.0931 6.53058 6.28125 6.71875 L 6.5625 7 L 1 7 L 1 9 L 6.5625 9 L 6.28125 9.28125 C 6.09314 9.46943 5.99996 9.73469 6 10 L 6 11 L 7 11 C 7.26529 11 7.53057 10.90696 7.71875 10.71875 L 9.71875 8.71875 L 10 8.4375 L 10 7.5625 L 9.71875 7.28125 L 7.71875 5.28125 C 7.53058 5.09311 7.26531 5 7 5 L 6 5 z "
     />
</svg>
