<?xml version="1.0" encoding="UTF-8" standalone="no"?>
<svg
   xmlns:dc="http://purl.org/dc/elements/1.1/"
   xmlns:cc="http://creativecommons.org/ns#"
   xmlns:rdf="http://www.w3.org/1999/02/22-rdf-syntax-ns#"
   xmlns:svg="http://www.w3.org/2000/svg"
   xmlns="http://www.w3.org/2000/svg"
   xmlns:sodipodi="http://sodipodi.sourceforge.net/DTD/sodipodi-0.dtd"
   xmlns:inkscape="http://www.inkscape.org/namespaces/inkscape"
   viewBox="0 0 16 16"
   version="1.1"
   id="svg4"
   sodipodi:docname="sc_leftpaneimpress.pn.svg"
   inkscape:version="0.92.4 (unknown)">
  <metadata
     id="metadata10">
    <rdf:RDF>
      <cc:Work
         rdf:about="">
        <dc:format>image/svg+xml</dc:format>
        <dc:type
           rdf:resource="http://purl.org/dc/dcmitype/StillImage" />
        <dc:title></dc:title>
      </cc:Work>
    </rdf:RDF>
  </metadata>
  <defs
     id="defs8" />
  <sodipodi:namedview
     pagecolor="#ffffff"
     bordercolor="#666666"
     borderopacity="1"
     objecttolerance="10"
     gridtolerance="10"
     guidetolerance="10"
     inkscape:pageopacity="0"
     inkscape:pageshadow="2"
     inkscape:window-width="1366"
     inkscape:window-height="706"
     id="namedview6"
     showgrid="true"
     inkscape:zoom="20.85965"
     inkscape:cx="2.5118608"
     inkscape:cy="8.1588573"
     inkscape:window-x="0"
     inkscape:window-y="0"
     inkscape:window-maximized="1"
     inkscape:current-layer="svg4">
    <inkscape:grid
       type="xygrid"
       id="grid817" />
  </sodipodi:namedview>
  <path
     d="M 16,1 V 15 H 14 7 v -2 -1 h 2 v 1 h 5 V 3 H 9 V 4 H 7 V 1 h 2 5 z M 6,1 V 4 H 3 v 8 h 3 v 3 H 0 V 1 Z M 8,5 C 8.30945,5 8.55232,5.09029 8.75,5.28125 L 11,7.125 V 8.8300781 C 9.9165351,9.7882118 9.8334677,9.898121 8.75,10.71875 8.55232,10.9097 8.30945,11 8,11 H 7.4140625 7 V 10 C 7,9.74311 7.12983,9.47154 7.3125,9.28125 L 7.8222656,9 H 4 V 7 H 7.8222656 L 7.3125,6.71875 C 7.12983,6.52846 7,6.25689 7,6 V 5 h 0.4140625 z"
     id="path2"
     inkscape:connector-curvature="0"
     style="fill:#555753"
     sodipodi:nodetypes="ccccccccccccccccccccccccccsccccsccsccccccsccs" />
</svg>
