<svg viewBox="0 0 16 16" xmlns="http://www.w3.org/2000/svg"><path d="m0 1v6h9v-6zm12 1v1 .5625l-.300781-.28125c-.16942-.18815-.433919-.28125-.699219-.28125h-1v1c0 .26531.1.53058.28125.71875l2 2 .28125.28125h.875l.28125-.3007812 2-2c.18125-.1694301.28125-.4339288.28125-.6992188v-1h-1c-.26531 0-.53057.1-.71875.28125l-.28125.28125v-.5625-1zm-10 1h2v2h-2zm3 0h2v2h-2zm-5 6v6h9v-6zm12.5625 0-.28125.28125-2 2c-.18125.18817-.28125.45344-.28125.71875v1h1c.2653 0 .529799-.0931.699219-.28125l.300781-.28125v.5625 1h2v-1-.5625l.28125.28125c.18818.18125.45344.28125.71875.28125h1v-1c0-.26529-.1-.529789-.28125-.699219l-2-1.9999998-.28125-.3007812zm-10.5625 2h2v2h-2zm3 0h2v2h-2z" fill="#555753"/></svg>