<svg xmlns="http://www.w3.org/2000/svg" viewBox="0 0 16 16">
  <path
     style="fill:#555753"
     d="M 1 0 L 1 2 L 15 2 L 15 0 L 1 0 z M 1 4 L 1 6 L 8 6 L 8 4 L 1 4 z M 11.164062 4 L 9.28125 6.25 C 9.0903 6.44768 9 6.69055 9 7 L 9 7.5878906 L 9 8 L 10 8 C 10.256892 8 10.528462 7.87017 10.71875 7.6875 L 11 7.3164062 L 12 6 L 13 7.3164062 L 13.28125 7.6875 C 13.471551 7.87017 13.775978 8 14 8 L 15 8 L 15 7.5878906 L 15 7 C 15 6.69055 14.9097 6.44768 14.71875 6.25 C 13.949156 5.233922 13.397651 4.725151 12.779297 4 L 11.164062 4 z M 1 10 L 1 12 L 8 12 L 8 10 L 1 10 z M 1 14 L 1 16 L 15 16 L 15 14 L 1 14 z "
     />
</svg>
