<svg xmlns="http://www.w3.org/2000/svg" viewBox="0 0 16 16">
  <path
     style="fill:#555753"
     d="M 0 1 L 0 7 L 9 7 L 9 1 L 0 1 z M 12 2 L 12 3 L 12 3.5625 L 11.699219 3.28125 C 11.529799 3.0931 11.2653 3 11 3 L 10 3 L 10 4 C 10 4.26531 10.1 4.53058 10.28125 4.71875 L 12.28125 6.71875 L 12.5625 7 L 13.4375 7 L 13.71875 6.6992188 L 15.71875 4.6992188 C 15.9 4.5297887 16 4.26529 16 4 L 16 3 L 15 3 C 14.73469 3 14.46943 3.1 14.28125 3.28125 L 14 3.5625 L 14 3 L 14 2 L 12 2 z M 2 3 L 4 3 L 4 5 L 2 5 L 2 3 z M 5 3 L 7 3 L 7 5 L 5 5 L 5 3 z M 0 9 L 0 15 L 9 15 L 9 9 L 0 9 z M 12.5625 9 L 12.28125 9.28125 L 10.28125 11.28125 C 10.1 11.46942 10 11.73469 10 12 L 10 13 L 11 13 C 11.2653 13 11.529799 12.9069 11.699219 12.71875 L 12 12.4375 L 12 13 L 12 14 L 14 14 L 14 13 L 14 12.4375 L 14.28125 12.71875 C 14.46943 12.9 14.73469 13 15 13 L 16 13 L 16 12 C 16 11.73471 15.9 11.470211 15.71875 11.300781 L 13.71875 9.3007812 L 13.4375 9 L 12.5625 9 z M 2 11 L 4 11 L 4 13 L 2 13 L 2 11 z M 5 11 L 7 11 L 7 13 L 5 13 L 5 11 z "
     />
</svg>
