<svg viewBox="0 0 16 16" xmlns="http://www.w3.org/2000/svg"><path d="m1 1v14h2v-12h8v1.3808594l2 1v-4.3808594zm9 4-6 3v8h9.585938l-1-1h-1.185547c-.858702 0-1.8687072-.270451-2.7734379-1h-2.6269531v-3.699219l2 .84961v-.150391h3v-1.4824219l-1 .4824219-3.1992188-1.5449219 3.1992188-1.4550781 2.199219 1h1.214843l.292969.2929688c.947429.9474289 1.292969 2.0592732 1.292969 3.1074222v1.185547l1 1v-5.585938zm2 4v1c1.56 1.6-.566483 3.5-2 2h-1v1c.8.77 1.640782 1 2.400391 1h1.599609l2 2h1v-1l-2-2v-1.599609c0-.9-.2-1.600391-1-2.400391z" fill="#555753"/></svg>