<svg xmlns="http://www.w3.org/2000/svg" viewBox="0 0 16 16">
  <path
     style="fill:#555753"
     d="M 1,0 V 2 H 15 V 0 Z M 1,6 V 6.4121094 7 C 1,7.30945 1.0903,7.55232 1.28125,7.75 L 3.1640625,10 H 4.7792969 C 5.3976509,9.274849 5.949156,8.766078 6.71875,7.75 6.9097,7.55232 7,7.30945 7,7 V 6.4121094 6 H 6 C 5.775978,6 5.471551,6.12983 5.28125,6.3125 L 5,6.6835938 4,8 3,6.6835938 2.71875,6.3125 C 2.528462,6.12983 2.256892,6 2,6 Z m 7,0 v 2 h 7 V 6 Z m 0,4 v 2 h 7 v -2 z m 0,4 v 2 h 7 v -2 z"
     />
</svg>
