<svg viewBox="0 0 16 16" xmlns="http://www.w3.org/2000/svg"><g fill="#2e3436"><path d="m6 0c-1.1079989 0-2 .89200111-2 2v5c0 1.1079989.8920011 2 2 2h1v1h-1c-1.1079989 0-2.0087326.892035-2 2v4h2v-4h1v2h.8183594c-.0374949-.058372-.0732762-.117266-.1074219-.177734-.5692414-1.008066-.6485267-2.274292-.1953125-3.453125.2064199-.5368668.5067878-.9733268.8027344-1.3398441a1.1926803 1.1926803 0 0 1 1.8144526-.0351563c.307881-.020091.595862-.1090035.84961-.2519531a1.1926803 1.1926803 0 0 1 .908203-1.7148437c.035654-.0045957.073266-.0076361.109375-.0117188.00004-.0052544 0-.0103608 0-.015625v-5c0-1.10799889-.892001-2-2-2zm0 2h4v5h-1v-2h-2v2h-1zm4.847656 8.189453.419922.744141.300781-.173828c-.191409-.241944-.437906-.43816-.720703-.570313zm-.847656 5.447266v.363281h1.388672c-.036368-.065948-.083858-.154524-.117188-.214844-.23814-.0018-.448561.040791-.705078-.005859-.194279-.035292-.382961-.083817-.566406-.142578z"/><path d="m12.640625 8.1679278c-.20041.002-.401376.017669-.597656.042969l1.171875 2.0742182c.24106.42608-.02911.915428-.541016 1.210938l-.923828.535156c-.516619.28718-1.091401.248565-1.332031-.177734l-1.1718752-2.0742191c-.2482198.3074101-.4754377.6489081-.6171876 1.0175781-.6784593 1.764708.2845725 3.469654 2.1503908 3.808594.389819.0709.80079.05441 1.193359.0039.01375-.0022.38015.665612.775391 1.390625h3.958984l-1.908203-2.955078c.24817-.30741.446121-.652785.587891-1.021484.678409-1.764659-.284623-3.4696446-2.150391-3.8085942-.19492-.0354-.395283-.048375-.595703-.046875z" stroke-width="3"/></g></svg>