<svg xmlns="http://www.w3.org/2000/svg" viewBox="0 0 16 16">
  <path
     style="fill:#555753"
     d="M 3 9 C 3 9.5522847 2.5522847 10 2 10 L 2 11 L 3 11 L 3 14 L 4 14 L 4 9 L 3 9 z M 7 10 L 7 12 L 15 12 L 15 10 L 7 10 z M 7 13 L 7 15 L 11 15 L 11 13 L 7 13 z "
     />
  <path
     style="fill:#555753;opacity:0.35"
     d="M 3.5 1 C 2.6715729 1 2 1.6715729 2 2.5 L 3 2.5 C 3 2.223858 3.2238576 2 3.5 2 C 3.7761424 2 4 2.223858 4 2.5 C 4 2.637769 3.969633 2.7084244 3.9121094 2.7871094 L 2 5.1796875 L 2 6 L 5 6 L 5 5 L 3.3984375 5 L 4.6601562 3.4042969 C 4.8107068 3.2401489 5 2.973168 5 2.5 C 5 1.6715729 4.3284271 1 3.5 1 z M 7 2 L 7 4 L 15 4 L 15 2 L 7 2 z M 7 5 L 7 7 L 11 7 L 11 5 L 7 5 z "
     />
</svg>
