<svg viewBox="0 0 16 16" xmlns="http://www.w3.org/2000/svg" xmlns:xlink="http://www.w3.org/1999/xlink"><mask id="a" maskUnits="userSpaceOnUse"><g filter="url(#j)"><path d="m0 0h16v16h-16z" fill-opacity=".3"/></g></mask><mask id="b" maskUnits="userSpaceOnUse"><g filter="url(#j)"><path d="m0 0h16v16h-16z" fill-opacity=".05"/></g></mask><mask id="c" maskUnits="userSpaceOnUse"><g filter="url(#j)"><path d="m0 0h16v16h-16z" fill-opacity=".05"/></g></mask><mask id="d" maskUnits="userSpaceOnUse"><g filter="url(#j)"><path d="m0 0h16v16h-16z" fill-opacity=".05"/></g></mask><mask id="e" maskUnits="userSpaceOnUse"><g filter="url(#j)"><path d="m0 0h16v16h-16z" fill-opacity=".05"/></g></mask><mask id="f" maskUnits="userSpaceOnUse"><g filter="url(#j)"><path d="m0 0h16v16h-16z" fill-opacity=".5"/></g></mask><mask id="g" maskUnits="userSpaceOnUse"><g filter="url(#j)"><path d="m0 0h16v16h-16z" fill-opacity=".05"/></g></mask><mask id="h" maskUnits="userSpaceOnUse"><g filter="url(#j)"><path d="m0 0h16v16h-16z" fill-opacity=".3"/></g></mask><mask id="i" maskUnits="userSpaceOnUse"><g filter="url(#j)"><path d="m0 0h16v16h-16z" fill-opacity=".05"/></g></mask><filter id="j" height="1" width="1" x="0" y="0"><feColorMatrix in="SourceGraphic" type="matrix" values="0 0 0 0 1 0 0 0 0 1 0 0 0 0 1 0 0 0 1 0"/></filter><g fill="#2e3436"><path d="m2.7148442 2.172363c-.371094.02344-.664063.421875-.488282.808594l1.023438 2.304687 1.46875-.566406.566406-1.46875-2.304687-1.027344c-.089844-.03906-.179688-.05469-.265625-.04687zm10.5585938.0039c-.08594-.0039-.171876.01172-.25.05078l-2.308594 1.023434.566407 1.46875 1.472656.566406 1.023437-2.304687c.09375-.214844.04687-.46875-.117187-.632813-.105468-.105468-.246095-.167968-.386718-.171875zm-.523437 8.539059-1.46875.566407-.566407 1.46875 2.308594 1.027343c.476562.210937.964843-.28125.753906-.757813zm-9.5000008 0-1.023438 2.304687c-.214843.476563.277344.96875.753907.757813l2.304687-1.023438-.566406-1.472655zm0 0" fill-rule="evenodd" opacity=".35"/><path d="m8.0000002.000488c-.234375 0-.449219.144531-.53125.367188l-1.976562 5.128906-5.12499995 1.9726565c-.488282.1875-.488282.875 0 1.0625l5.12499995 1.9726565 1.976562 5.128905c.1875.488282.875.488282 1.0625 0l1.9765618-5.128905 5.125-1.9726565c.488282-.1875.488282-.875 0-1.0625l-5.125-1.9726565-1.9765618-5.128906c-.082031-.21875-.2929689-.367188-.53125-.367188zm0 7.0000005c.5507811 0 1 .449219 1 1s-.4492189 1-1 1c-.550781 0-1-.449219-1-1s.449219-1 1-1zm0 0" fill-rule="evenodd"/><path d="m562.46094 212.05859h10.44922c-1.1836.49219-1.29688 2.46094 0 3h-10.44922zm0 0" mask="url(#a)" transform="translate(-620 -79.999512)"/><g fill-rule="evenodd"><path d="m16 748h1v1h-1zm0 0" mask="url(#g)" transform="translate(-620 -79.999512)"/><path d="m17 747h1v1h-1zm0 0" mask="url(#c)" transform="translate(-620 -79.999512)"/><path d="m18 750h1v1h-1zm0 0" mask="url(#b)" transform="translate(-620 -79.999512)"/><path d="m16 750h1v1h-1zm0 0" mask="url(#d)" transform="translate(-620 -79.999512)"/><path d="m17 751h1v1h-1zm0 0" mask="url(#e)" transform="translate(-620 -79.999512)"/><path d="m19 751h1v1h-1zm0 0" mask="url(#i)" transform="translate(-620 -79.999512)"/></g><path d="m136 776v7h7v-7zm0 0" mask="url(#h)" transform="translate(-620 -79.999512)"/><path d="m219 758h3v12h-3zm0 0" mask="url(#f)" transform="translate(-620 -79.999512)"/></g></svg>