<svg xmlns="http://www.w3.org/2000/svg" viewBox="0 0 16 16">
  <path
     style="fill:#555753"
     d="M 3 1 A 1 1 0 0 1 2 2 L 2 3 L 3 3 L 3 6 L 4 6 L 4 1 L 3 1 z M 7 2 L 7 4 L 15 4 L 15 2 L 7 2 z M 7 5 L 7 7 L 11 7 L 11 5 L 7 5 z M 3.5 9 C 2.6715729 9 2 9.6715729 2 10.5 L 3 10.5 C 3 10.223858 3.2238576 10 3.5 10 C 3.7761424 10 4 10.223858 4 10.5 C 4 10.637769 3.969633 10.708424 3.9121094 10.787109 L 2 13.179688 L 2 14 L 5 14 L 5 13 L 3.3984375 13 L 4.6601562 11.404297 C 4.8107068 11.240149 4.9995403 10.973168 5 10.5 C 5 9.6715729 4.3284271 9 3.5 9 z M 7 10 L 7 12 L 15 12 L 15 10 L 7 10 z M 7 13 L 7 15 L 11 15 L 11 13 L 7 13 z "
     />
</svg>
