<svg xmlns="http://www.w3.org/2000/svg" viewBox="0 0 16 16">
  <path
     style="fill:#555753"
     d="M 13 1 L 12 2 L 14 4 L 15 3 C 14.9 1.64 14.1 1.1 13 1 z M 11 3 L 5 9 L 5 11 L 7 11 L 13 5 L 11 3 z M 4 4 L 4 6 L 6.5859375 6 L 8.5332031 4.0527344 C 8.3598094 4.0215624 8.1823677 4 8 4 L 4 4 z M 4.5390625 8.046875 C 3.1023732 8.2697768 2 9.5008408 2 11 C 2 12.656854 3.3431458 14 5 14 L 11 14 L 11 8.4140625 L 9 10.414062 L 9 12 L 7.4140625 12 L 5 12 L 4 12 L 4 11 L 4 8.5859375 L 4.5390625 8.046875 z "
     />
</svg>
