<svg xmlns="http://www.w3.org/2000/svg" viewBox="0 0 16 16">
  <path
     style="fill:#555753"
     d="m 4,2 v 2 h 8 V 2 Z M 2,5 C 1.446,5 1,5.446 1,6 V 7 H 6 C 6.5019841,7 7.0607616,7.1974919 7.4394531,7.5605469 8.0160352,8.0047354 8.5728374,8.5011179 9.1152344,9 H 13 v 2 h 1 c 0.554,0 1,-0.446 1,-1 V 6 C 15,5.446 14.554,5 14,5 Z M 0,8 v 1 c 0,2.209139 1.790861,4 4,4 H 6.8222656 L 5.3125,14.28125 C 5.12983,14.47154 5,14.74311 5,15 v 1 H 5.4140625 6 c 0.30945,0 0.55232,-0.09029 0.75,-0.28125 L 10,12.875 V 11.169922 C 8.916535,10.211788 7.833468,9.1018791 6.75,8.28125 6.55232,8.0903 6.30945,8 6,8 H 5.4140625 5 V 9 C 5,9.2568898 5.12983,9.52846 5.3125,9.71875 L 6.8222656,11 H 4 C 2.895431,11 2,10.104569 2,9 V 8 Z"
     />
</svg>
