<svg viewBox="0 0 16 16" xmlns="http://www.w3.org/2000/svg"><path d="m2.8085938 3.0097656c-1.5075891.0948297-2.70399849 1.2912391-2.79882817 2.7988282v3.3828124c.09884235 1.5713818 1.39307537 2.8085938 2.99023437 2.8085938h10c1.622963 0 2.933312-1.277211 2.994141-2.8847656v-3.2304688c-.0584-1.5433306-1.269758-2.7785734-2.802735-2.875zm2.1835938 1.9902344h1l1 1v3l-1 1h-1l-1-1v-3zm4.0078124 0h.9999998v2h.9921882v-2h1v2h-.992188v.5.5h1v2h-1v-2h-1.0000002v2h-.9999998v-2.5zm-4 .9882813v.0117187 3h1v-3.0117187z" fill="#2e3436"/></svg>