<svg xmlns="http://www.w3.org/2000/svg" viewBox="0 0 16 16">
  <path
     style="opacity:0.35;fill:#555753"
     d="m 11,3.1933598 v 4.3886718 l 0.02539,0.076172 1.755861,5.2675774 L 3.9394531,12.041016 3.0546875,5.8417973 Z"
     />
  <path
     style="fill:#555753"
     d="M 11 1 L 11 2 L 10 2 L 10 2.4726562 L 3 4.8066406 L 3 4 L 2 4 L 2 5 L 1 5 L 1 6 L 2 6 L 2 7 L 2.2089844 7 L 2.9238281 12 L 2 12 L 2 13 L 3 13 L 3 14 L 4 14 L 4 13.052734 L 12 13.851562 L 12 14 L 13 14 L 13 15 L 14 15 L 14 14.052734 L 14.21875 14.074219 L 14.193359 14 L 15 14 L 15 13 L 14 13 L 14 12 L 13.527344 12 L 12.193359 8 L 13 8 L 13 7 L 12 7 L 12 3 L 13 3 L 13 2 L 12 2 L 12 1 L 11 1 z M 11 3.1933594 L 11 4 L 11 7 L 10 7 L 10 8 L 11 8 L 11 9 L 11.472656 9 L 12.78125 12.925781 L 5 12.146484 L 5 12 L 4 12 L 4 11 L 3.7910156 11 L 3.078125 6 L 4 6 L 4 5.5273438 L 11 3.1933594 z "
     />
</svg>
