<svg viewBox="0 0 16 16" xmlns="http://www.w3.org/2000/svg"><path d="m1 0v2h14v-2zm0 3v.4121094.5878906c0 .30945.0903.55232.28125.75l1.8828125 2.25h1.6152344c.618354-.725151 1.1698591-1.233922 1.9394531-2.25.19095-.19768.28125-.44055.28125-.75v-.5878906-.4121094h-1c-.224022 0-.528449.12983-.71875.3125l-.28125.3710938-1 1.3164062-1-1.3164062-.28125-.3710938c-.190288-.18267-.461858-.3125-.71875-.3125zm7 1v2h7v-2zm-4.7792969 5c-.618354.725151-1.1698591 1.233922-1.9394531 2.25-.19095.19768-.28125.44055-.28125.75v.587891.412109h1c.224022 0 .528449-.12983.71875-.3125l.28125-.371094 1-1.316406 1 1.316406.28125.371094c.190288.18267.461858.3125.71875.3125h1v-.412109-.587891c0-.30945-.0903-.55232-.28125-.75l-1.8828125-2.25zm4.7792969 1v2h7v-2zm-7 4v2h14v-2z" fill="#555753"/></svg>