<svg xmlns="http://www.w3.org/2000/svg" viewBox="0 0 16 16">
  <path
     style="fill:#555753"
     d="M 8,4 V 5 C 8,5.25689 8.12983,5.52846 8.3125,5.71875 L 9.822266,7 H 5 V 9 H 9.822266 L 8.3125,10.28125 C 8.12983,10.47155 8,10.74311 8,11 v 1 H 8.4140625 9 C 9.30945,12 9.55232,11.9097 9.75,11.71875 11.16667,10.64574 12.58333,9.073 14,8 L 9.75,4.28125 C 9.55232,4.0903 9.30945,4 9,4 H 8.4140625 Z"
     />
  <path
     style="fill:#555753"
     d="M 8,1 C 4.1340068,1 1,4.1340068 1,8 c 0,3.865993 3.1340068,7 7,7 1.5539326,-0.0023 3.040543,-0.520207 4.243796,-1.440811 C 12.243796,13.559189 11,12 10.990234,12 10.127427,12.64711 9.0785093,12.997891 8,13 5.2385763,13 3,10.761424 3,8 3,5.2385763 5.2385763,3 8,3 c 1.0785093,0.00211 2.127427,0.3528904 2.990234,1 L 12.258836,2.4463499 C 11.052242,1.5207011 9.5597895,1.0005292 8,1 Z"
     />
</svg>
