<svg xmlns="http://www.w3.org/2000/svg" viewBox="0 0 16 16">
  <path
     style="fill:#555753"
     d="M 4 3 C 2.338 3 1 4.338 1 6 L 1 10 C 1 11.662 2.338 13 4 13 L 12 13 C 13.662 13 15 11.662 15 10 L 15 6 C 15 4.338 13.662 3 12 3 L 4 3 z M 4 5 L 12 5 C 12.554 5 13 5.446 13 6 L 13 10 C 13 10.554 12.554 11 12 11 L 4 11 C 3.446 11 3 10.554 3 10 L 3 6 C 3 5.446 3.446 5 4 5 z "
     />
  <path
     style="opacity:0.35;fill:#555753"
     d="M 4 5 C 3.446 5 3 5.446 3 6 L 3 10 C 3 10.554 3.446 11 4 11 L 12 11 C 12.554 11 13 10.554 13 10 L 13 6 C 13 5.446 12.554 5 12 5 L 4 5 z "
     />
</svg>
