<svg xmlns="http://www.w3.org/2000/svg" viewBox="0 0 16 16">
  <path
     style="fill:#555753"
     d="M 3 2 L 3 4 L 8 4 C 8.55 4 9 4.45 9 5 L 9 6 L 4 6 C 2.34 6 1 7.34 1 9 C 1 10.66 2.34 12 4 12 L 6 12 L 6 10 L 4 10 C 3.45 10 3 9.55 3 9 C 3 8.45 3.45 8 4 8 L 11 8 L 11 5 C 11 3.34 9.66 2 8 2 L 3 2 z M 8 10 C 7.46 10 7 10.446 7 11 L 7 15 C 7 15.554 7.446 16 8 16 L 15 16 C 15.554 16 16 15.554 16 15 L 16 11 C 16 10.46 15.554 10 15 10 L 8 10 z M 9 12 L 14 12 L 14 14 L 9 14 L 9 12 z M 1 13 L 1 15 L 6 15 L 6 13 L 1 13 z "
     />
</svg>
