<svg viewBox="0 0 16 16" xmlns="http://www.w3.org/2000/svg"><g fill="#2e3436"><path d="m2.5 2c-.828427 0-1.5.671573-1.5 1.5.000548.599181.2735092.9927488.6757812 1.2460938l2.2304688 1.4648437c.06048.08429.09325.1853155.09375.2890625 0 .276142-.223858.5-.5.5h-2.5v1h2.5c.828427 0 1.5-.671573 1.5-1.5-.000448-.6139-.3201419-1.0294715-.7167969-1.2734375l-2.1796875-1.4238281c-.066732-.08685-.1030986-.1932094-.1035156-.3027344 0-.276142.223858-.5.5-.5h2.5v-1zm5.5 0c-1.1045695 0-2 .8954305-2 2v2c0 1.1045695.8954305 2 2 2h1c.2830724-.0011686.5626727-.062414.8203125-.1796875l.1796875.1796875h1v-1l-.177734-.1777344c.116871-.258388.177456-.5386759.177734-.8222656v-2c0-1.1045695-.895431-2-2-2zm4 0v6h1 2v-1h-2v-5zm-4 1h1c.5522847 0 1 .4477153 1 1v2l-1-1-1 1 1 1h-1c-.5522847 0-1-.4477153-1-1v-2c0-.5522847.4477153-1 1-1z"/><path d="m15.751517 10.664738c.36447-.415682.322498-1.0482292-.0937-1.4121102-.415682-.3644704-1.048229-.322498-1.41211.0937l-4.2964952 4.1883722-1.2382274-1.239544c-.3905079-.390429-1.0235621-.390429-1.41407 0-.3917301.39073-.3917301 1.02529 0 1.41602l1.9940874 1.995394c.4092436.409826 1.0799572.387422 1.4609402-.0488z"/></g></svg>