<svg viewBox="0 0 16 16" xmlns="http://www.w3.org/2000/svg"><g fill="#555753"><path d="m1 2v12h7.0917969l-.0097657-2h-2.0820312v-2h2c0-.3625271.103615-.6914561.2480469-1h-2.2480469v-2h9v-5zm2 2h2v2h-2zm3 0h4v2h-4zm5 0h2v2h-2zm-8 3h2v2h-2zm9 1c-1.656854 0-3 .8954305-3 2 .00135.537594.3272872 1.052189.9 1.427734-.57.282014-.9.672266-.9 1.072266 0 .369206.2743002.725259.7675781 1-.4932779.274741-.7665758.630794-.7675781 1 0 .828427 1.343146 1.5 3 1.5s3-.671573 3-1.5c-.001-.369206-.2743-.725259-.767578-1 .493278-.274741.766576-.630794.767578-1-.000588-.402741-.325059-.788446-.900391-1.070312.576301-.376455.900854-.891796.900391-1.429688 0-1.1045695-1.343146-2-3-2zm-9 2h2v2h-2zm9 2c1.104569 0 2 .223858 2 .5s-.895431.5-2 .5-2-.223858-2-.5.895431-.5 2-.5zm0 2c1.104569 0 2 .223858 2 .5s-.895431.5-2 .5-2-.223858-2-.5.895431-.5 2-.5z"/><path d="m3 4v2h2v-2zm3 0v2h4v-2zm5 0v2h2v-2zm-8 3v2h2v-2zm3 0v2h2.1640625c.5181034-1.1826287 2.1862235-1.9991464 4.0859375-2zm6.25 0c.251562.0005818.502547.015615.75.044922v-.044922zm-4.2402344 2.9316406c-.0008808.0235867-.0097656.0444851-.0097656.0683594h-2v2h2.0097656zm-5.0097656.0683594v2h2v-2zm9 2c-1.104569 0-2 .223858-2 .5s.895431.5 2 .5 2-.223858 2-.5-.895431-.5-2-.5zm0 2c-1.104569 0-2 .223858-2 .5s.895431.5 2 .5 2-.223858 2-.5-.895431-.5-2-.5z" opacity=".35"/></g></svg>