<svg xmlns="http://www.w3.org/2000/svg" viewBox="0 0 16 16">
  <path
     style="fill:#555753"
     d="M 8 1 C 4.1340068 1 1 4.1340068 1 8 C 1 11.865993 4.1340068 15 8 15 C 11.865993 15 15 11.865993 15 8 C 15 4.1340068 11.865993 1 8 1 z M 8 2 C 11.313708 2 14 4.6862915 14 8 C 14.000285 9.2482559 13.592329 10.449574 12.875 11.460938 L 4.5449219 3.1308594 C 5.5542103 2.4126455 6.7529445 2.0023736 8 2 z M 3.125 4.5390625 L 11.455078 12.869141 C 10.445789 13.587355 9.2470556 13.997626 8 14 C 4.6862915 14 2 11.313708 2 8 C 1.9997145 6.7517441 2.4076715 5.5504253 3.125 4.5390625 z "
     />
  <path
     style="fill:#555753;opacity:0.35"
     d="M 8 2 A 6 6 0 0 0 2 8 A 6 6 0 0 0 8 14 A 6 6 0 0 0 14 8 A 6 6 0 0 0 8 2 z "
     />
</svg>
