<svg xmlns="http://www.w3.org/2000/svg" viewBox="0 0 16 16">
  <path
     style="fill:#555753"
     d="M 0,2 V 14 H 1.0507812 C 1.0265754,13.835095 1,13.671219 1,13.5 v -0.002 -0.0039 c 0.1067621,-1.010166 0.536114,-1.76938 1,-2.441407 V 4 h 12 v 2.0585938 c 0.662747,-0.1509619 1.398368,-0.00352 2,0.1269531 V 2 Z m 3,3 v 2 h 3.4707031 l 0.3808594,-0.3457031 0.00586,-0.00391 C 7.2742152,6.2837536 7.8550302,6 8.5,6 H 9 c 0.5394307,0 1.138483,0.096526 1.5625,0.5722656 C 10.687096,6.7120601 10.77021,6.855292 10.833984,7 h 1.619141 l 0.382813,-0.3476562 0.0078,-0.00586 C 12.891662,6.6047771 12.94845,6.5701872 13,6.53125 V 5 Z M 8.5,7 C 8.1256185,7 7.8,7.1519549 7.5175781,7.4003906 L 2.8007812,11.675781 v 0.0039 C 2.2936227,12.149627 2.003727,12.808602 2,13.5 2,14.880712 3.1192881,16 4.5,16 5.8807119,16 7,14.880712 7,13.5 7,12.959074 6.8245553,12.43274 6.5,12 H 8.5019531 C 8.1767006,12.432496 8.0005633,12.958852 8,13.5 8,14.880712 9.1192881,16 10.5,16 11.880712,16 13,14.880712 13,13.5 13.0017,12.310655 12.165317,11.284743 11,11.046875 L 14.130859,8.1582031 C 14.281933,8 14.364128,8 14.5,8 H 15 V 8.5 C 15,8.7761424 15.223858,9 15.5,9 15.776142,9 16,8.7761424 16,8.5 V 8 C 16,7.2987292 15.84247,7 15,7 h -0.5 c -0.374381,0 -0.714607,0.1519549 -1,0.4003906 L 9.5332031,11 H 5.015625 L 8.1308594,8.1582031 C 8.2819325,8 8.3641276,8 8.5,8 H 9 V 8.5 C 9,8.7761424 9.2238576,9 9.5,9 9.7761424,9 10,8.7761424 10,8.5 V 8 C 10,7.2987292 9.8424697,7 9,7 Z M 3,9 v 1.144531 L 4.2636719,9 Z m 1.5,3 C 5.3284271,12 6,12.671573 6,13.5 6,14.328427 5.3284271,15 4.5,15 3.6715729,15 3,14.328427 3,13.5 3,12.671573 3.6715729,12 4.5,12 Z m 6,0 C 11.328427,12 12,12.671573 12,13.5 12,14.328427 11.328427,15 10.5,15 9.6715729,15 9,14.328427 9,13.5 9,12.671573 9.6715729,12 10.5,12 Z"
     />
</svg>
