<svg xmlns="http://www.w3.org/2000/svg" viewBox="0 0 16 16">
  <path
     style="fill:#555753"
     d="M 15,2 H 1 V 4 9 H 3 4 V 7 H 3 V 4 h 10 v 3 h -1 v 2 h 3 V 7 4 Z m 0,8 h -3 v 1 H 4 V 10 H 1 v 4 H 15 Z M 11,8 C 11,7.69055 10.90971,7.44768 10.71875,7.25 L 8.875,5 H 7.1699219 C 6.2117882,6.1 6.101879,6.1665323 5.28125,7.25 5.0903,7.44768 5,7.69055 5,8 V 8.5859375 9 H 6 C 6.25689,9 6.52846,8.87017 6.71875,8.6875 L 7,8.1777344 V 10 H 9 V 8.1777344 L 9.28125,8.6875 C 9.47154,8.87017 9.74311,9 10,9 h 1 V 8.5859375 Z"
     />
</svg>
