<svg viewBox="0 0 16 16" xmlns="http://www.w3.org/2000/svg"><g fill="#555753"><path d="m4 1c-.3 0-.6.0167449-.9082031.0429688 2.7915079.3845145 4.9072688 3.3870312 4.9082031 6.9570312-.002653 3.6-2.14 6.6-4.9550781 6.96.3150781.04.6350781.04.9550781.04 5 0 9-3.134007 9-7 0-3.9-4-7-9-7zm5.6 4.12c.86.88 1.4 1.88 1.4 2.88s-.54 2-1.43 2.88c.25-.88.43-1.88.43-2.88s-.2-2-.4-2.88z"/><path d="m9.57 5.12c.89.88 1.43 1.88 1.43 2.88s-.54 2-1.43 2.88c.25-.9206369.43-1.88.43-2.88s-.17-2-.43-2.88z" opacity=".35"/></g></svg>