<svg viewBox="0 0 16 16" xmlns="http://www.w3.org/2000/svg"><path d="m4 1v1c0 .2653.0931.53058.28125.71875l.28125.28125h-3.5625v2h3.5625l-.28125.28125c-.18811.18818-.28129.45344-.28125.71875v1h1c.26529 0 .53057-.09304.71875-.28125l2-2 .28125-.28125v-.875l-.28125-.28125-2-2c-.18817-.18814-.45344-.2812198-.71875-.28125zm6 0c-.554 0-1 .446-1 1v4c0 .554.446 1 1 1h4c.554 0 1-.446 1-1v-4c0-.554-.446-1-1-1zm1 2h2v2h-2zm-7 6v1c0 .2653.0931.53058.28125.71875l.28125.28125h-3.5625v2h3.5625l-.28125.28125c-.18811.18818-.28129.45344-.28125.71875v1h1c.26529 0 .53057-.09304.71875-.28125l2-2 .28125-.28125v-.875l-.28125-.28125-2-2c-.18817-.18814-.45344-.2812198-.71875-.28125zm6 0c-.554 0-1 .446-1 1v4c0 .554.446 1 1 1h4c.554 0 1-.446 1-1v-4c0-.554-.446-1-1-1zm1 2h2v2h-2z" fill="#555753"/></svg>