<svg xmlns="http://www.w3.org/2000/svg" viewBox="0 0 16 16">
  <path
     style="fill:#555753"
     d="M 2 3 L 2 5 L 6 5 C 6.552285 5 7 5.4477153 7 6 L 7 7 L 3 7 C 1.3431458 7 0 8.3431458 0 10 C 0 11.656854 1.3431458 13 3 13 L 9 13 L 9 6 C 9 4.3431458 7.656854 3 6 3 L 2 3 z M 10 8 L 10 16 L 12 16 L 13.5 16 A 2.5 2.5 0 0 0 16 13.5 A 2.5 2.5 0 0 0 13.5 11 L 12 11 L 12 8 L 10 8 z M 3 9 L 7 9 L 7 11 L 3 11 C 2.4477153 11 2 10.552285 2 10 C 2 9.4477153 2.4477153 9 3 9 z M 12 13 L 13.5 13 A 0.5 0.5 0 0 1 14 13.5 A 0.5 0.5 0 0 1 13.5 14 L 12 14 L 12 13 z "
     />
</svg>
