<?xml version="1.0" encoding="UTF-8" standalone="no"?>
<svg
   xmlns:dc="http://purl.org/dc/elements/1.1/"
   xmlns:cc="http://creativecommons.org/ns#"
   xmlns:rdf="http://www.w3.org/1999/02/22-rdf-syntax-ns#"
   xmlns:svg="http://www.w3.org/2000/svg"
   xmlns="http://www.w3.org/2000/svg"
   xmlns:sodipodi="http://sodipodi.sourceforge.net/DTD/sodipodi-0.dtd"
   xmlns:inkscape="http://www.inkscape.org/namespaces/inkscape"
   viewBox="0 0 16 16"
   version="1.1"
   id="svg4"
   sodipodi:docname="sc_superscript.svg"
   inkscape:version="0.92.3 (2405546, 2018-03-11)">
  <metadata
     id="metadata10">
    <rdf:RDF>
      <cc:Work
         rdf:about="">
        <dc:format>image/svg+xml</dc:format>
        <dc:type
           rdf:resource="http://purl.org/dc/dcmitype/StillImage" />
      </cc:Work>
    </rdf:RDF>
  </metadata>
  <defs
     id="defs8" />
  <sodipodi:namedview
     pagecolor="#ffffff"
     bordercolor="#666666"
     borderopacity="1"
     objecttolerance="10"
     gridtolerance="10"
     guidetolerance="10"
     inkscape:pageopacity="0"
     inkscape:pageshadow="2"
     inkscape:window-width="2560"
     inkscape:window-height="1378"
     id="namedview6"
     showgrid="false"
     inkscape:zoom="41.7193"
     inkscape:cx="16.059257"
     inkscape:cy="9.4739294"
     inkscape:window-x="0"
     inkscape:window-y="36"
     inkscape:window-maximized="1"
     inkscape:current-layer="svg4" />
  <path
     style="fill:#555753"
     d="M 11 0 L 11 7 L 12 7 L 14 7 C 15.104569 7 16 6.1045695 16 5 C 16 3.8954305 15.104569 3 14 3 L 12 3 L 12 0 L 11 0 z M 2 3 L 2 5 L 7 5 C 7.552285 5 8 5.4477153 8 6 L 8 7 L 3 7 C 1.3431458 7 0 8.3431458 0 10 C 0 11.656854 1.3431458 13 3 13 L 10 13 L 10 6 C 10 4.3431458 8.656854 3 7 3 L 2 3 z M 12 4 L 14 4 C 14.552285 4 15 4.4477153 15 5 C 15 5.5522847 14.552285 6 14 6 L 12 6 L 12 4 z M 3 9 L 8 9 L 8 11 L 3 11 C 2.4477153 11 2 10.552285 2 10 C 2 9.4477153 2.4477153 9 3 9 z "
     id="path2" />
</svg>
