<svg viewBox="0 0 16 16" xmlns="http://www.w3.org/2000/svg"><g fill="#2e3436"><path d="m3 0c-.033996 0-.067709.00241416-.1015625.00585938-.033128.00337138-.066887.00700133-.099609.01367187-.010588.0021666-.020787.0053141-.03125.0078125-.048917.01161855-.097477.02779907-.1445312.046875-.02799.0114314-.055377.02523455-.082031.0390625-.00184.00095244-.00402.00098861-.00586.001953-.014045.007395-.027375.0154034-.041016.0234375-.043276.0254281-.085146.0534441-.125.0859375-.00179.001455-.00408.002439-.00586.003906-.024295.0200881-.047567.0417166-.070312.0644531l-1.99999955 2.00000045c-.18524943.1884694-.28910937.4426721-.28710937.7070312h-.00585938v1h1 1v8h-1-1v1h.00585938c-.002.26436.10185994.518561.28710937.707031l2.00000005 2c.022621.02262.045619.04407.070312.06445.00178.0015.00408.0025.00586.0039.023049.01876.047581.03801.072266.05469.017084.01152.035125.0209.052734.03125.013641.008.02697.01604.041016.02344.00184.000964.00402.000953.00586.002.026654.01383.054041.02763.082031.03906.026289.01074.052726.02079.080078.0293.021278.0066.042861.01245.064453.01758.010463.0025.020662.0056.03125.0078.00324.00066.00652.0013.00977.002.029432.0057.05955.0086.089844.01172.033843.003285.0675614.005779.1015572.005779.033996 0 .067709-.0024.1015625-.0059.033617-.0034.067061-.007.099609-.01367.010487-.0021.020822-.0053.03125-.0078.021702-.0052.043326-.01101.064453-.01758.026928-.0083.053794-.01864.080078-.0293.02799-.01143.055377-.02523.082031-.03906.00179-.000931.00407-.000953.00586-.002.013872-.0073.027427-.01545.041016-.02344.017809-.01049.035654-.01971.052734-.03125.052484-.03538.1019957-.07662.1484374-.123047l2-2c.1853903-.188314.2891097-.442593.2871097-.706953h.0058594v-1h-1-1v-8h1 1v-1h-.00586c.0020012-.2643591-.1017191-.5185618-.2871088-.7070312l-2-2.00000005c-.0464418-.0464228-.0959532-.08766528-.1484374-.12304687-.01708-.0115392-.034925-.0207606-.052734-.03125-.013589-.007985-.027143-.0161495-.041016-.0234375-.00179-.00094093-.00407-.001023-.00586-.001953-.0266533-.01382821-.0540409-.02763123-.0820307-.03906263-.0262842-.01065584-.0531499-.02096801-.0800781-.02929688-.021127-.00657125-.0427511-.01239608-.0644531-.01757812-.0104275-.00247669-.0207628-.00567468-.03125-.0078125-.0325486-.00666049-.0659926-.01025786-.0996094-.01367187-.0338536-.00344522-.0675667-.00585938-.1015625-.00585938zm3.5 4c-.2769994 0-.5.2230007-.5.5v1c0 .2769994.2230006.5.5.5h9c.277 0 .5-.2230006.5-.5v-1c0-.2769993-.223-.5-.5-.5zm0 3c-.2769994 0-.5.2230007-.5.5v1c0 .2769994.2230006.5.5.5h1.8496094c.4747042-.5369525 1.3124054-.5369525 1.7871096 0h.982422l-.115235-.203125c-.416476-.7373738.046743-1.6617705.886719-1.7695312.087182-.0112374.177751-.0193599.267578-.0273438zm6.654297 0c.09682.010201.19513.022892.294922.041016.129936.023605.257567.053668.382812.087891-.088378-.079071-.203566-.128907-.332031-.128907zm-6.654297 3c-.2769994 0-.5.223-.5.5v1c0 .277.2230006.5.5.5h.7246094c-.0102818-.54005.0847843-1.094441.2910156-1.630859.0494289-.128557.1032572-.25168.1621094-.369141z"/><path d="m12.640625 8.1679278c-.20041.002-.401376.017669-.597656.042969l1.171875 2.0742182c.24106.42608-.02911.915428-.541016 1.210938l-.923828.535156c-.516619.28718-1.091401.248565-1.332031-.177734l-1.1718752-2.0742191c-.2482198.3074101-.4754377.6489081-.6171876 1.0175781-.6784593 1.764708.2845725 3.469654 2.1503908 3.808594.389819.0709.80079.05441 1.193359.0039.01375-.0022.38015.665612.775391 1.390625h3.958984l-1.908203-2.955078c.24817-.30741.446121-.652785.587891-1.021484.678409-1.764659-.284623-3.4696446-2.150391-3.8085942-.19492-.0354-.395283-.048375-.595703-.046875z" stroke-width="3"/></g></svg>