<svg viewBox="0 0 16 16" xmlns="http://www.w3.org/2000/svg"><g fill="#2e3436"><path d="m3 1c-.5539994.0000225-1 .4460006-1 1v2c0 .5539994.4460006 1 1 1h1v-1c0-.5522841.5483548-1 1-1h2v7.279297l2 1.400391v-8.679688h2c.552284 0 1 .4477159 1 1v1h1c.418235 0 1-.3856973 1-1v-2c0-.5539994-.446001-1.00002249-1-1z"/><path d="m1 8v8h11c0-.5.03462-.975766-.584135-1.408895l-8.3856863-5.8699799c-1.0301787-.7211251-1.1448387-.7211251-2.0301787-.7211251zm2 3.5 3.5 2.5h-3.5z"/><path d="m12 7v2h-2v2h2v2h2v-2h2v-2h-2v-2z"/></g></svg>