<svg viewBox="0 0 16 16" xmlns="http://www.w3.org/2000/svg"><g fill="#2e3436"><path d="m4 0c-1.6446968 0-3 1.3553032-3 3v2h2 3 1 3 1 3 2v-2c0-1.6446968-1.355304-3-3-3zm0 2h2v2h-3v-1c0-.5712988.4287012-1 1-1zm3 0h3v2h-3zm4 0h2c.571298 0 1 .4287012 1 1v1h-3zm-10 7v3c0 1.644696 1.3553032 3 3 3h9c1.644696 0 3-1.355304 3-3v-3h-2v1h-3v-1h-1v1h-3v-1h-1v1h-3v-1zm2 2h3v2h-2c-.5712988 0-1-.428702-1-1zm4 0h3v2h-3zm4 0h3v1c0 .571298-.428702 1-1 1h-2z"/><path d="m16 6h-3v2h3zm-4 0h-3v2h3zm-4 0h-3v2h3zm-4 0h-4v2h4z"/></g></svg>