<svg viewBox="0 0 16 16" xmlns="http://www.w3.org/2000/svg"><g fill="#2e3436"><path d="m2 4c-1.10799778 0-2 .8920022-2 2v3c0 1.107998.89200222 2 2 2h2.2832031c.0839419-.142367.1838148-.277562.3046875-.398438.3858355-.385838.8987932-.579621 1.4121094-.580078v-.021484c0-.3630993.1015202-.7043374.2753906-1h-.2753906v-3h.2753906c-.1738704-.2956626-.2753906-.6369007-.2753906-1v-.0214844c-.5133161-.0004561-1.0262738-.1942394-1.4121094-.5800781-.1208736-.120876-.2207455-.2560708-.3046875-.3984375zm9.716797 0c-.083942.1423669-.183813.277561-.304688.3984375-.385835.3858393-.898793.579622-1.412109.5800781v.0214844c0 .7296252-.4058847 1.3752278-1 1.7246094v1.5507812c.5941153.3493816 1 .9949842 1 1.7246094v.021484c.513316.000457 1.026274.19424 1.412109.580078.120875.120877.220746.256071.304688.398438h1.283203c1.107998 0 2-.892002 2-2v-3c0-1.1079978-.892002-2-2-2zm-9.716797 2h3v3h-3zm8 0h3v3h-3z" opacity=".99"/><path d="m8 0c-.2700017.000004-.5285361.10919657-.7167969.30273438l-.0234375.02539062-.6738281.671875-1.2910156 1.2773438c-.1952606.1952598-.2929688.4511095-.2929688.7070312s.0977114.5117694.2929688.7070312c.3905206.3905237 1.0235428.3905237 1.4140625 0l.2910156-.2773437v.5859375 1c0 .5522841.4477159 1 1 1s1-.4477159 1-1v-1-.5859375l.2910156.2773437c.3905196.3905237 1.0235424.3905237 1.4140624 0 .195259-.1952618.292969-.4511095.292969-.7070312s-.097708-.5117714-.292969-.7070312l-1.2910155-1.2773438-.6738281-.671875-.0234375-.02539062c-.1882638-.19353681-.4467942-.30273038-.7167969-.30273438zm0 9c-.5522841 0-1 .4477159-1 1v1 .585938l-.2910156-.277344c-.3905197-.390524-1.0235419-.390524-1.4140625 0-.1952574.195262-.2929688.451109-.2929688.707031s.0977082.511771.2929688.707031l1.2910156 1.277344.6738281.671875.0234375.025391c.1882608.193537.4467952.30273.7167969.302734.2700027-.000004.5285331-.109198.7167969-.302734l.0234375-.025391.6738281-.671875 1.2910155-1.277344c.195261-.19526.292969-.451109.292969-.707031s-.09771-.511769-.292969-.707031c-.39052-.390524-1.0235428-.390524-1.4140624 0l-.2910156.277344v-.585938-1c0-.5522841-.4477159-1-1-1z"/></g></svg>