<svg viewBox="0 0 16 16" xmlns="http://www.w3.org/2000/svg"><g fill="#555753"><path d="m4.9375 1c-2.1746206 0-3.9375 1.7628571-3.9375 3.9375 0 .4641011.0502856.9376491.2460938 1.3125 1.9962233 3.7259608 4.4083985 4.06579 6.7265624 8.695312v.027344c.0057753.011559.0215606.015701.0273438.027344.00957-.01925.0177808-.035587.0273438-.054688 2.3181652-4.629531 4.7303392-4.9693512 6.7265622-8.695312.195807-.374851.246094-.8483988.246094-1.3125 0-2.1746428-1.762879-3.9375-3.9375-3.9375-1.2477186.1872469-2.3787403.6712977-3.0625 1.4765625-.9543188-.8494779-2.0243498-1.4585634-3.0625-1.4765625zm0 2c.6193767 0 1.1202609.2642262 1.4863281.7128906.5314048.6500641 1.0518423 1.3090562 1.5761719 1.9648438.5033083-.6320343 1.110508-1.3879111 1.5761719-1.9648438.3660616-.4486613.8669461-.7128906 1.4863281-.7128906 1.093754 0 1.9375.8437268 1.9375 1.9375 0 .3147993-.073781.4837319-.019531.3808594-.848709 1.5782169-1.706165 2.3619935-2.875 3.5175781-.6491939.6418315-1.3719118 1.4498995-2.105469 2.4218745-.7335569-.971973-1.4562775-1.7800426-2.1054688-2.4218745-1.168835-1.1555853-2.0262907-1.9393607-2.875-3.5175781.0542497.1028774-.0195312-.0660569-.0195312-.3808594 0-1.0937731.8437466-1.9375 1.9375-1.9375z"/><path d="m4.9375 3c.6193767 0 1.1202609.2642262 1.4863281.7128906.5314048.6500641 1.0518423 1.3090562 1.5761719 1.9648438.5033083-.6320343 1.110508-1.3879111 1.5761719-1.9648438.3660616-.4486613.8669461-.7128906 1.4863281-.7128906 1.093754 0 1.9375.8437268 1.9375 1.9375 0 .3147993-.07378.4837319-.01953.3808594-.848709 1.5782169-1.706165 2.3619935-2.875 3.5175781-.6491949.6418315-1.3719128 1.4498995-2.10547 2.4218745-.7335569-.971973-1.4562775-1.7800426-2.1054688-2.4218745-1.168835-1.1555853-2.0262907-1.9393607-2.875-3.5175781.0542497.1028774-.0195312-.0660569-.0195312-.3808594 0-1.0937731.8437466-1.9375 1.9375-1.9375z" opacity=".35"/></g></svg>