<svg xmlns="http://www.w3.org/2000/svg" viewBox="0 0 16 16">
 <path
     style="fill:#555753"
     d="M 1.0664062 0 C 0.53075815 0.001067 1.4802974e-16 0.36676892 0 1.0664062 L 0 2.1328125 L 0 3.1992188 C 1.06e-05 3.9116454 0.53539815 4.2686341 1.0664062 4.2675781 L 2.1328125 4.2675781 L 2.1328125 3.1992188 C 2.1328125 2.6101094 2.6101093 2.1338792 3.1992188 2.1328125 L 5.3339844 2.1328125 L 5.3339844 9.5996094 L 7.4667969 10.666016 L 7.4667969 2.1328125 L 9.5996094 2.1328125 C 10.188719 2.1338825 10.666016 2.6101093 10.666016 3.1992188 L 10.666016 4.2675781 L 11.732422 4.2675781 C 12.263419 4.2686381 12.800771 3.9116454 12.800781 3.1992188 L 12.800781 2.1328125 L 12.800781 1.0664062 C 12.800781 0.36676892 12.268059 0.00106667 11.732422 0 L 7.4667969 0 L 5.3339844 0 L 1.0664062 0 z M 10.666016 5.3339844 L 10.666016 7.4667969 L 8.5332031 7.4667969 L 8.5332031 9.5996094 L 10.666016 9.5996094 L 10.666016 11.732422 L 12.800781 11.732422 L 12.800781 9.5996094 L 14.933594 9.5996094 L 14.933594 7.4667969 L 12.800781 7.4667969 L 12.800781 5.3339844 L 10.666016 5.3339844 z M 0 8.5332031 L 0 16 L 8.5332031 16 L 14.933594 16 L 0 8.5332031 z M 2.1328125 11.732422 L 6.3964844 13.867188 L 2.1328125 13.867188 L 2.1328125 11.732422 z "
     />
 </svg>
