<svg viewBox="0 0 16 16" xmlns="http://www.w3.org/2000/svg"><g fill="#2e3436"><path d="m13.5 7c-.828426 0-1.5.6715737-1.5 1.5 0 .0150688.001512.02996.001953.0449219l-3.4531249 1.8828121c-.2704636-.264584-.6405804-.427734-1.0488281-.427734-.8284263 0-1.5.671574-1.5 1.5s.6715737 1.5 1.5 1.5c.4082477 0 .7783645-.16315 1.0488281-.427734l3.4531249 1.882812c-.000441.014962-.001953.029853-.001953.044922 0 .828426.671574 1.5 1.5 1.5s1.5-.671574 1.5-1.5-.671574-1.5-1.5-1.5c-.494385 0-.931814.240422-1.205078.609375l-3.3203126-1.845703c.0151742-.085588.0253906-.173728.0253906-.263672s-.0102164-.178084-.0253906-.263672l3.3203126-1.845703c.273264.3689527.710693.609375 1.205078.609375.828426 0 1.5-.6715737 1.5-1.5s-.671574-1.5-1.5-1.5z"/><path d="m5 0c-1.6446994 0-3 1.3553016-3 3v9c0 1.644698 1.3553006 3 3 3v-2c-.5712964 0-1-.428701-1-1v-9c0-.5712994.4287036-1 1-1h4v1.5c0 .999999.500001 1.5 1.5 1.5h1.5v1h2v-1.5a1.0001 1.0001 0 0 0 -.292969-.7070312l-3.5-3.50000005a1.0001 1.0001 0 0 0 -.707031-.29296875z"/></g></svg>