<svg viewBox="0 0 16 16" xmlns="http://www.w3.org/2000/svg"><path d="m7 0v2.5625l-.3-.28125c-.16943-.18125-.43469-.28125-.7-.28125h-1v1c0 .26529 0 .53057.28125.7l2.28125 2.3h.875l2.2625-2.3c.2-.16942.3-.43469.3-.7v-1h-1c-.2653 0-.53058.0931-.71875.28125l-.28125.28125v-2.5625zm-5 7v2h12v-2zm5.5625 3-2.28125 2.28125c-.28125.18818-.28125.45346-.28125.71875v1h1c.26531 0 .53057-.1.7-.3l.3-.2625v2.5625h2v-2.5625l.28125.2625c.18817.2.45345.3.71875.3h1v-1c0-.26531-.1-.53058-.3-.71875l-2.2625-2.28125z" fill="#555753"/></svg>