<svg xmlns="http://www.w3.org/2000/svg" viewBox="0 0 16 16">
  <path
     style="fill:#555753"
     d="M 4 1 C 4 2.6568542 2.6568542 4 1 4 L 1 12 C 2.6568542 12 4 13.343146 4 15 L 12 15 C 12 13.343146 13.343146 12 15 12 L 15 4 C 13.343146 4 12 2.6568542 12 1 L 4 1 z M 4.8691406 2 L 11.132812 2 C 11.496806 3.4059728 12.594275 4.5041906 14 4.8691406 L 14 11.130859 C 12.594275 11.495809 11.496806 12.594027 11.132812 14 L 4.8691406 14 C 4.5041906 12.594275 3.4059728 11.496806 2 11.132812 L 2 4.8671875 C 3.4059727 4.5031947 4.5041904 3.4057245 4.8691406 2 z "
     />
  <path
     style="fill:#555753;opacity:0.35"
     d="M 4.8691406,2 H 11.132812 C 11.496805,3.4059728 12.594275,4.5041906 14,4.8691406 V 11.130859 C 12.594275,11.495809 11.496805,12.594027 11.132812,14 H 4.8691406 C 4.5041906,12.594275 3.4059728,11.496805 2,11.132812 V 4.8671875 C 3.4059727,4.5031947 4.5041904,3.4057245 4.8691406,2 Z"
     />
</svg>
