<svg xmlns="http://www.w3.org/2000/svg" viewBox="0 0 16 16">
  <path
     style="fill:#555753"
     d="M 1 0 L 1 15 L 11.400391 15 C 10.435869 15 9.2857569 14.664424 8.3066406 13.720703 L 8 13.425781 L 8 13 L 7 13 L 7 11 L 11 11 L 11 8 L 13.419922 8 L 14 8 L 14 8.65625 C 14.698872 9.521064 15 10.482178 15 11.400391 L 15 12.585938 L 16 13.585938 L 16 0 L 1 0 z M 3 2 L 6 2 L 6 4 L 3 4 L 3 2 z M 7 2 L 10 2 L 10 4 L 7 4 L 7 2 z M 11 2 L 14 2 L 14 4 L 11 4 L 11 2 z M 3 5 L 6 5 L 6 7 L 3 7 L 3 5 z M 7 5 L 10 5 L 10 7 L 7 7 L 7 5 z M 11 5 L 14 5 L 14 7 L 11 7 L 11 5 z M 3 8 L 6 8 L 6 10 L 3 10 L 3 8 z M 7 8 L 10 8 L 10 10 L 7 10 L 7 8 z M 12 9 L 12 10 C 13.560655 11.623957 11.433517 13.497742 10 12 L 9 12 L 9 13 C 9.8 13.77108 10.635355 14 11.400391 14 L 13 14 L 15 16 L 16 16 L 16 15 L 14 13 L 14 11.400391 C 14 10.518021 13.785305 9.8 13 9 L 12 9 z M 3 11 L 6 11 L 6 13 L 3 13 L 3 11 z "
     />
</svg>
