<svg xmlns="http://www.w3.org/2000/svg" viewBox="0 0 16 16">
  <path
     style="fill:#ffffff"
     d="M 3 2 L 3 6 L 3 14 L 4 14 L 4 10.585938 L 9 5.5859375 L 9 2 L 3 2 z M 13 8.4160156 C 11.138265 10.277588 9.2758007 12.13843 7.4140625 14 L 13 14 L 13 8.4160156 z "
     />
  <path
     style="opacity:0.35;fill:#555753"
     d="M 4 3 L 4 5 L 8 5 L 8 3 L 4 3 z M 10 11 L 10 13 L 12 13 L 12 11 L 10 11 z "
     />
  <path
     style="fill:#555753"
     d="M 2 1 L 2 15 L 14 15 L 14 7.4160156 C 13.666621 7.749303 13.333348 8.0826969 13 8.4160156 L 13 14 L 7.4140625 14 L 4 14 L 3 14 L 3 2 L 9 2 L 9 5.5859375 L 11.792969 2.7929688 L 10 1 L 2 1 z M 14 2 L 13 3 L 15 5 L 16 4 C 15.870995 2.6420539 15.074357 2.1424929 14 2 z M 12 4 L 5 11 L 5 13 L 7 13 L 14 6 L 12 4 z M 4 7 L 4 9 L 5.5859375 9 L 7.5859375 7 L 4 7 z "
     />
</svg>
