<svg xmlns="http://www.w3.org/2000/svg" viewBox="0 0 16 16">
  <path
     style="fill:#555753"
     d="M 3 1 L 3 3 L 7 3 L 7 4 L 3.5 4 A 2.5 2.5 0 0 0 1 6.5 A 2.5 2.5 0 0 0 3.5 9 L 9 9 L 9 7 L 9 6 L 9 4 L 9 3 C 9 1.8954305 8.1045695 1 7 1 L 3 1 z M 12 1 L 12 12.099609 C 11.895514 12.043302 11.781058 12 11.666016 12 L 11 12 L 11 12.248047 L 11 12.599609 C 11 12.785269 11.06021 12.932171 11.1875 13.050781 C 11.90278 13.900791 12.28472 14.15 13 15 L 14.8125 13.050781 C 14.93978 12.932171 15 12.785269 15 12.599609 L 15 12.248047 L 15 12 L 14.333984 12 C 14.218935 12 14.104483 12.043299 14 12.099609 L 14 1 L 12 1 z M 3.5 6 L 7 6 L 7 7 L 3.5 7 A 0.5 0.5 0 0 1 3 6.5 A 0.5 0.5 0 0 1 3.5 6 z M 2 11 L 2 12.099609 C 1.895514 12.043302 1.7810576 12 1.6660156 12 L 1 12 L 1 12.248047 L 1 12.599609 C 1 12.785269 1.06021 12.932171 1.1875 13.050781 C 1.90278 13.900791 2.28472 14.15 3 15 L 4.8125 13.050781 C 4.93978 12.932171 5 12.785269 5 12.599609 L 5 12.248047 L 5 12 L 4.3339844 12 C 4.2189353 12 4.1044834 12.043299 4 12.099609 L 4 11 L 2 11 z M 7 11 L 7 12.099609 C 6.895514 12.043302 6.7810576 12 6.6660156 12 L 6 12 L 6 12.248047 L 6 12.599609 C 6 12.785269 6.06021 12.932171 6.1875 13.050781 C 6.90278 13.900791 7.28472 14.15 8 15 L 9.8125 13.050781 C 9.93978 12.932171 10 12.785269 10 12.599609 L 10 12.248047 L 10 12 L 9.3339844 12 C 9.2189354 12 9.104483 12.043299 9 12.099609 L 9 11 L 7 11 z "
     />
</svg>
