<svg xmlns="http://www.w3.org/2000/svg" viewBox="0 0 16 16">
  <path
     style="fill:#555753"
     d="M 2 1 C 1.446 1 1 1.446 1 2 L 1 14 C 1 14.554 1.446 15 2 15 L 5 15 L 5 13 L 3 13 L 3 11 L 5 11 L 5 9 L 3 9 L 3 7 L 13 7 L 13 8 L 15 8 L 15 2 C 15 1.446 14.554 1 14 1 L 2 1 z M 3 3 L 8 3 L 8 5 L 3 5 L 3 3 z M 6 9 L 6 16 L 16 16 L 16 9 L 6 9 z M 7 10 L 9 10 L 9 12 L 7 12 L 7 10 z M 10 10 L 12 10 L 12 12 L 10 12 L 10 10 z M 13 10 L 15 10 L 15 12 L 13 12 L 13 10 z M 7 13 L 9 13 L 9 15 L 7 15 L 7 13 z M 10 13 L 12 13 L 12 15 L 10 15 L 10 13 z M 13 13 L 15 13 L 15 15 L 13 15 L 13 13 z "
     />
</svg>
