<svg xmlns="http://www.w3.org/2000/svg" viewBox="0 0 16 16">
  <path
     style="fill:#555753"
     d="M 3 1 C 1.892 1 1 1.892 1 3 L 1 13 C 1 14.108 1.892 15 3 15 L 13 15 C 14.108 15 15 14.108 15 13 L 15 3 C 15 1.892 14.108 1 13 1 L 3 1 z M 6.5 3 C 8.4329966 3 10 4.5670034 10 6.5 C 10 7.1 9.853439 7.6531755 9.5761719 8.1640625 L 13 11.591797 L 13 12.285156 C 13 12.870507 12.765941 13 12.332031 13 L 11.4 13 L 8.1347656 9.6 C 7.6312156 9.8589588 7 10 6.5 10 C 4.5670034 10 3 8.4329966 3 6.5 C 3 4.5670034 4.5670034 3 6.5 3 z M 6.5 5 C 5.6715729 5 5 5.6715729 5 6.5 C 5 7.3284271 5.6715729 8 6.5 8 C 7.3284271 8 8 7.3284271 8 6.5 C 8 5.6715729 7.3284271 5 6.5 5 z "
     />
</svg>
