<svg height="52" viewBox="0 0 60 52" width="60" xmlns="http://www.w3.org/2000/svg" xmlns:xlink="http://www.w3.org/1999/xlink"><linearGradient id="a"><stop offset="0" stop-color="#e95420"/><stop offset="1" stop-color="#fe865c"/></linearGradient><linearGradient id="b" gradientTransform="matrix(0 1.3333334 -1.1 0 1158.9983 969.3622)" gradientUnits="userSpaceOnUse" x1="49.5" x2="49.5" xlink:href="#c" y1="1046.3621" y2="1016.3621"/><linearGradient id="c"><stop offset="0" stop-color="#762572"/><stop offset="1" stop-color="#a25f9e"/></linearGradient><linearGradient id="d" gradientTransform="matrix(0 1.3333334 -1.1666666 0 1224.7558 1017.3621)" gradientUnits="userSpaceOnUse" x1="16.500004" x2="16.500004" xlink:href="#a" y1="1046.3622" y2="1028.3621"/><linearGradient id="e" gradientTransform="matrix(0 1.3333334 -.9 0 949.72588 951.3622)" gradientUnits="userSpaceOnUse" x1="49.5" x2="49.5" xlink:href="#c" y1="1046.3621" y2="1016.3621"/><linearGradient id="f" gradientTransform="matrix(0 1.3333334 -.49999998 0 527.18104 999.36215)" gradientUnits="userSpaceOnUse" x1="16.500004" x2="16.500004" xlink:href="#a" y1="1046.3622" y2="1028.3621"/><g transform="translate(0 -1000.3622)"><path d="m0 1000.3621h60v52h-60z" fill="#fff"/><path d="m0 1000.3621h60v52h-60z" fill="#fff"/><path d="m14 1037.3622-12 12" fill="none" stroke="#232629"/><path d="m13 1037.3622h46v.9874h-46z" fill="#232629"/><path d="m13 1002.3622h1v36h-1z" fill="#232629"/><path d="m41 1029.3622v12h-33v-12z" fill="url(#b)"/><path d="m25 1033.3622v12h-21v-12z" fill="url(#d)"/><path d="m35 1011.3622v12h-27v-12z" fill="url(#e)"/><path d="m41 1029.3622h-33l3-3h33z" fill="#987197" fill-rule="evenodd"/><path d="m13 1015.3622v12h-9v-12z" fill="url(#f)"/><g fill-rule="evenodd"><path d="m25 1033.3622h-21l3-3h21z" fill="#fe865c"/><path d="m41 1029.3622v12l3-3v-12z" fill="#945c93"/><path d="m25 1033.3622v12l3-3v-12z" fill="#fe865c"/><path d="m13 1015.3622h-9l3-3h9z" fill="#fe865c"/><path d="m13 1015.3622v12l3-3v-12z" fill="#fe865c"/><path d="m35 1011.3622h-27l3-3h27z" fill="#987197"/><path d="m35 1011.3622v12l3-3v-12z" fill="#945c93"/></g></g></svg>