<svg height="52" viewBox="0 0 60 52" width="60" xmlns="http://www.w3.org/2000/svg" xmlns:xlink="http://www.w3.org/1999/xlink"><linearGradient id="a"><stop offset="0" stop-color="#e95420"/><stop offset="1" stop-color="#fe865c"/></linearGradient><linearGradient id="b" gradientTransform="matrix(0 .88888889 -.8 0 842.08967 976.3622)" gradientUnits="userSpaceOnUse" x1="49.5" x2="49.5" xlink:href="#c" y1="1046.3621" y2="1016.3621"/><linearGradient id="c"><stop offset="0" stop-color="#762572"/><stop offset="1" stop-color="#a25f9e"/></linearGradient><linearGradient id="d" gradientTransform="matrix(0 .88888889 -.83333333 0 876.9685 997.6955)" gradientUnits="userSpaceOnUse" x1="16.500004" x2="16.500004" xlink:href="#a" y1="1046.3622" y2="1028.3622"/><linearGradient id="e" gradientTransform="matrix(0 .88888889 -1.2 0 1260.6345 997.3622)" gradientUnits="userSpaceOnUse" x1="49.5" x2="49.5" xlink:href="#c" y1="1046.3621" y2="1016.3621"/><linearGradient id="f" gradientTransform="matrix(0 .88888889 -1.6666667 0 1748.937 1018.6955)" gradientUnits="userSpaceOnUse" x1="16.500004" x2="16.500004" xlink:href="#a" y1="1046.3622" y2="1028.3622"/><g transform="translate(0 -1000.3622)"><path d="m0 1000.3622h60v52h-60z" fill="#fff"/><g fill="#232629"><path d="m11.646484 1040.0078-8.9999996 9 .7070312.707 9.0000004-9z" fill-rule="evenodd"/><path d="m11 1040.3684h46v.9874h-46z"/><path d="m9 1003.3622h1v38h-1z"/></g><path d="m20 1008.3622h-15l3-3h15z" fill="#fe865c" fill-rule="evenodd"/><path d="m29 1016.3622v8h-24v-8z" fill="url(#b)"/><path d="m41 1037.3622h-9l3-3h9z" fill="#987197" fill-rule="evenodd"/><path d="m29 1016.3622v8l3-3v-8z" fill="#945c93" fill-rule="evenodd"/><path d="m20 1008.3622v8h-15v-8z" fill="url(#d)"/><path d="m41 1037.3622v8h-36v-8z" fill="url(#e)"/><path d="m41 1037.3622v8l3-3v-8z" fill="#945c93" fill-rule="evenodd"/><path d="m35 1029.3622v8h-30v-8z" fill="url(#f)"/><g fill-rule="evenodd"><path d="m20 1008.3622v8l3-3v-8z" fill="#fe865c"/><path d="m35 1029.3622v8l3-3v-8z" fill="#fe865c"/><path d="m35 1029.3622h-30l3-3h30z" fill="#fe865c"/><path d="m29 1016.3622h-9l3-3h9z" fill="#987197"/></g></g></svg>