<svg height="52" viewBox="0 0 60 52" width="60" xmlns="http://www.w3.org/2000/svg" xmlns:xlink="http://www.w3.org/1999/xlink"><linearGradient id="a" gradientTransform="matrix(1 0 0 1.1666667 -2 -174.3937)" gradientUnits="userSpaceOnUse" x1="16" x2="16" xlink:href="#b" y1="1046.3622" y2="1017.6956"/><linearGradient id="b"><stop offset="0" stop-color="#e95420"/><stop offset="1" stop-color="#fe865c"/></linearGradient><linearGradient id="c" gradientTransform="matrix(1 0 0 .9 -26 104.63633)" gradientUnits="userSpaceOnUse" x1="101" x2="36" xlink:href="#d" y1="959.69543" y2="947.19543"/><linearGradient id="d"><stop offset="0" stop-color="#762572"/><stop offset="1" stop-color="#a25f9e"/></linearGradient><linearGradient id="e" gradientTransform="matrix(1 0 0 1.6666666 22 -697.5746)" gradientUnits="userSpaceOnUse" x1="16" x2="16" xlink:href="#b" y1="1046.3622" y2="1020.5621"/><linearGradient id="f" gradientTransform="matrix(1 0 0 .7 -2 313.90874)" gradientUnits="userSpaceOnUse" x1="50" x2="50" xlink:href="#d" y1="1046.3622" y2="984.93353"/><g transform="translate(0 -1000.3622)"><path d="m0 1000.3622h60v52h-60z" fill="#fff"/><path d="m10 1025.3622h9v21h-9z" fill="url(#a)"/><path d="m19 1019.3622h9v27h-9z" fill="url(#c)"/><path d="m34 1016.3622h9v30h-9z" fill="url(#e)"/><path d="m43 1025.3622h9v21h-9z" fill="url(#f)"/><g fill="#232629"><path d="m3 1045.3622h52v1h-52z"/><path d="m6 1003.3622h1v45.999962h-1z"/><path d="m29.896484 1004.7422-16.259765 17.2773.726562.6856 15.740235-16.7227 16.662109 8.8223.46875-.8848z" fill-rule="evenodd"/></g></g></svg>