<svg height="52" viewBox="0 0 60 52" width="60" xmlns="http://www.w3.org/2000/svg" xmlns:xlink="http://www.w3.org/1999/xlink"><linearGradient id="a"><stop offset="0" stop-color="#e95420"/><stop offset="1" stop-color="#fe865c"/></linearGradient><linearGradient id="b"><stop offset="0" stop-color="#762572"/><stop offset="1" stop-color="#945c93"/></linearGradient><linearGradient id="c" gradientTransform="matrix(0 .92590163 -1 0 51 995.21532)" gradientUnits="userSpaceOnUse" x1="11" x2="30" xlink:href="#a" y1="34" y2="34"/><linearGradient id="d" gradientTransform="matrix(0 .92590163 -1 0 51 995.21532)" gradientUnits="userSpaceOnUse" x1="11" x2="30" xlink:href="#b" y1="34" y2="34"/><linearGradient id="e" gradientTransform="matrix(0 .92590163 -1 0 51 1015.5852)" gradientUnits="userSpaceOnUse" x1="11" x2="30" xlink:href="#b" y1="34" y2="34"/><linearGradient id="f" gradientTransform="matrix(0 .92590163 -1 0 51 1015.5852)" gradientUnits="userSpaceOnUse" x1="11" x2="30" xlink:href="#a" y1="34" y2="34"/><g transform="translate(0 -1000.3622)"><path d="m0 1000.3622h60v52h-60z" fill="#fff"/><g fill="#232629"><path d="m11.646484 1040.0078-8.9999996 9 .7070312.707 9.0000004-9z" fill-rule="evenodd"/><path d="m11 1040.3684h46v.9874h-46z"/><path d="m11 1003.3622h1v38h-1z"/></g><path d="m32 1014.8622-24-9.462c-2.0465375-.8068-4 3.9382-4 8.7961s1.7909 8.7961 4 8.7961z" fill="url(#c)"/><path d="m43 1035.0291-35-9.259c-2.1267061-.5626-4 3.9381-4 8.796 0 4.858 1.7909 8.7961 4 8.7961z" fill="url(#f)"/><path d="m43 1035.0291-22-5.8394v-.01c-1.656877 0-3.000032 2.2556-3 5.5345-.000032 3.2789 1.343123 5.5898 3 5.5898z" fill="url(#e)"/><path d="m33 1014.8622-19-7.1356v-.022c-.02465 0-.04932-.032-.074-.032-1.656999 0-3.000204 2.4633-3 6.6031.000185 4.1389 1.432562 6.7128 3.089286 6.7128.02468-.8036-.01762-.01-.03761-.01l.02232.02 19-6.1367z" fill="url(#d)"/></g></svg>