<svg height="52" viewBox="0 0 60 52" width="60" xmlns="http://www.w3.org/2000/svg" xmlns:xlink="http://www.w3.org/1999/xlink"><linearGradient id="a"><stop offset="0" stop-color="#e95420"/><stop offset="1" stop-color="#fe865c"/></linearGradient><linearGradient id="b"><stop offset="0" stop-color="#762572"/><stop offset="1" stop-color="#945c93"/></linearGradient><linearGradient id="c" gradientTransform="matrix(.92307692 0 0 1 2.384615 -1000.3622)" gradientUnits="userSpaceOnUse" x1="19" x2="19" xlink:href="#b" y1="1023.3622" y2="1015.3622"/><linearGradient id="d" gradientTransform="matrix(.92307692 0 0 1 2.384615 -8)" gradientUnits="userSpaceOnUse" x1="19" x2="19" xlink:href="#a" y1="1023.3622" y2="1015.3622"/><linearGradient id="e" gradientTransform="matrix(.92307692 0 0 1 2.384615 12)" gradientUnits="userSpaceOnUse" x1="19" x2="19" xlink:href="#a" y1="1023.3622" y2="1015.3622"/><linearGradient id="f" gradientTransform="matrix(.92307692 0 0 1 2.384615 20)" gradientUnits="userSpaceOnUse" x1="19" x2="19" xlink:href="#b" y1="1023.3622" y2="1015.3622"/><g transform="translate(0 -1000.3622)"><path d="m0 1000.3622h60v52h-60z" fill="#fff"/><g fill="#232629"><path d="m11.646484 1040.0078-8.9999996 9 .7070312.707 9.0000004-9z" fill-rule="evenodd"/><path d="m11 1040.3684h46v.9874h-46z"/><path d="m9 1003.3622h1v38h-1z"/></g><path d="m7 15c-1.0974258-.12542-2 1.790861-2 4s.8954305 4 2 4l35-4z" fill="url(#c)" transform="translate(0 1000.3622)"/><path d="m7 1007.3622c-1.0808776-.2276-2 1.7909-2 4s.8954305 4 2 4l19-4z" fill="url(#d)"/><path d="m7 1035.3622c-1.0990877-.1099-2 1.7909-2 4s.8954305 4 2 4l40-4z" fill="url(#f)"/><path d="m7 1027.3622c-1.093468-.1562-2 1.7909-2 4s.8954305 4 2 4l28-4z" fill="url(#e)"/></g></svg>