<svg height="52" viewBox="0 0 60 52" width="60" xmlns="http://www.w3.org/2000/svg" xmlns:xlink="http://www.w3.org/1999/xlink"><linearGradient id="a"><stop offset="0" stop-color="#762572"/><stop offset="1" stop-color="#945c93"/></linearGradient><linearGradient id="b"><stop offset="0" stop-color="#e95420"/><stop offset="1" stop-color="#fe865c"/></linearGradient><linearGradient id="c" gradientUnits="userSpaceOnUse" x1="12" x2="12" xlink:href="#b" y1="1022.3622" y2="1010.3622"/><linearGradient id="d" gradientUnits="userSpaceOnUse" x1="12" x2="12" xlink:href="#b" y1="1040.3622" y2="1028.3622"/><linearGradient id="e" gradientUnits="userSpaceOnUse" x1="16" x2="16" xlink:href="#a" y1="1035.3622" y2="1023.3622"/><linearGradient id="f" gradientUnits="userSpaceOnUse" x1="16" x2="16" xlink:href="#a" y1="1017.3622" y2="1005.3622"/><g transform="translate(0 -1000.3622)"><path d="m0 1000.3621h60v52h-60z" fill="#fff"/><path d="m0 1000.3621h60v52h-60z" fill="#fff"/><path d="m14 1037.3622-12 12" fill="none" stroke="#232629"/><path d="m13 1037.3622h46v.9874h-46z" fill="#232629"/><path d="m13 1002.3622h1v36h-1z" fill="#232629"/><path d="m11 1005.3622c-1.656854 0-3 2.6863-3 6s1.343146 6 3 6h32v-12z" fill="url(#f)"/><path d="m7 1010.3622a3 6 0 0 0 -3 6 3 6 0 0 0 3 6h12v-12z" fill="url(#c)"/><ellipse cx="1011.3622" cy="-43" fill="#987197" rx="6" ry="3" transform="rotate(90)"/><ellipse cx="1016.3622" cy="-19" fill="#fe865c" rx="6" ry="3" transform="rotate(90)"/><path d="m11 1023.3622c-1.656854 0-3 2.6863-3 6s1.343146 6 3 6h40v-12z" fill="url(#e)"/><path d="m7 1028.3622c-1.6568542 0-3 2.6863-3 6s1.3431458 6 3 6h26v-12z" fill="url(#d)"/><g transform="rotate(90)"><ellipse cx="1029.3622" cy="-51" fill="#987197" rx="6" ry="3"/><ellipse cx="1034.3622" cy="-33" fill="#fe865c" rx="6" ry="3"/></g></g></svg>