<svg height="52" viewBox="0 0 60 52" width="60" xmlns="http://www.w3.org/2000/svg" xmlns:xlink="http://www.w3.org/1999/xlink"><radialGradient id="a" cx="30" cy="1026.3622" gradientTransform="matrix(1 0 0 .92671897 0 73.527409)" gradientUnits="userSpaceOnUse" r="23"><stop offset="0" stop-color="#762572"/><stop offset="1" stop-color="#a25f9e"/></radialGradient><radialGradient id="b" cx="30" cy="21.246092" gradientTransform="matrix(-1.4150445 0 0 -1.3113485 72.45133 1052.5378)" gradientUnits="userSpaceOnUse" r="16.253906"><stop offset="0" stop-color="#e95420"/><stop offset="1" stop-color="#fe865c"/></radialGradient><g transform="translate(0 -1000.3622)"><path d="m0 1000.3622h60v52h-60z" fill="#fff"/><path d="m7.03125 1025.7255c-.0116.2128-.0255.4255-.0312.6387.009 5.7354 2.12874 11.2217 6 15.4531v-2.836c-3.5908-3.6534-5.69607-8.3401-5.96875-13.2558zm5.96875 16.0918h.004l16.2207-14.9629.70703-.6348.70703.6348 16.36719 14.9434c.44029-.4435.70213-.8201 1.09766-1.293 2.81353-3.6032 4.48967-7.9632 4.81445-12.5235.004-.1576.0132-.3146.0137-.4726 0-.3311-.009-.6589-.0254-.9863-.44751 4.6185-2.51379 8.9917-5.90625 12.4433v2.8223l-16.36133-14.9375-.70703-.6348-.70703.6348-16.2207 14.9629h-.004z" fill="#987197"/><path d="m14.5 1040.3622v2.9336a23 23 0 0 0 15.5 6.0664 23 23 0 0 0 15.5-6.0547v-2.9453z" fill="#fe865c"/><path d="m30 1003.3622c-12.70255 0-23 9.5429-23 21.3146.0123 5.3278 2.17724 10.4582 6.06836 14.3803l16.22461-15.0356.70703-.6348.70703.6348 16.21875 15.0302c3.89188-3.9199 6.05888-9.0483 6.07422-14.3749 0-11.7717-10.29745-21.3146-23-21.3146z" fill="url(#a)"/><path d="m30 1025.9872-15.51172 14.375a23 21.314536 0 0 0 15.51172 5.6291 23 21.314536 0 0 0 15.51758-5.6236z" fill="url(#b)" fill-rule="evenodd"/><path d="m30 1023.3876-.70703.6348-16.22461 15.0351c-.0242-.024-.0443-.052-.0684-.076v2.836h.004l16.2207-14.9629.70703-.6348.70703.6348 16.36133 14.9375v-2.8262c-.026.027-.0481.056-.0742.082l-16.21882-15.0255z" fill="#945c93"/></g></svg>