<svg height="52" viewBox="0 0 60 52" width="60" xmlns="http://www.w3.org/2000/svg" xmlns:xlink="http://www.w3.org/1999/xlink"><linearGradient id="a"><stop offset="0" stop-color="#e95420"/><stop offset="1" stop-color="#fe865c"/></linearGradient><linearGradient id="b" gradientTransform="matrix(0 1.6666667 -1.4 0 1469.9069 955.3622)" gradientUnits="userSpaceOnUse" x1="49.5" x2="49.5" xlink:href="#c" y1="1046.3621" y2="1016.3621"/><linearGradient id="c"><stop offset="0" stop-color="#762572"/><stop offset="1" stop-color="#a25f9e"/></linearGradient><linearGradient id="d" gradientTransform="matrix(0 2 -1.5 0 1574.5433 2.9996)" gradientUnits="userSpaceOnUse" x1="16.500004" x2="16.500004" xlink:href="#a" y1="1046.3622" y2="1028.3622"/><linearGradient id="e" gradientTransform="matrix(0 1.6666667 -1.4 0 1469.9069 935.3622)" gradientUnits="userSpaceOnUse" x1="49.5" x2="49.5" xlink:href="#c" y1="1046.3621" y2="1016.3621"/><linearGradient id="f" gradientTransform="matrix(0 2 -.94444444 0 993.23097 -17.0004)" gradientUnits="userSpaceOnUse" x1="16.500004" x2="16.500004" xlink:href="#a" y1="1046.3622" y2="1028.3622"/><g transform="translate(0 -1000.3622)"><path d="m0 1000.3622h60v52h-60z" fill="#fff"/><path d="m12 1040.3622-9 9" fill="none" stroke="#232629"/><path d="m11 1040.3684h46v.9874h-46z" fill="#232629"/><path d="m11 1001.3622h1v40h-1z" fill="#232629"/><path d="m53 1037.3622-48 8v-15z" fill="url(#b)"/><path d="m53 1037.3622-48-7 3-3z" fill="#987197" fill-rule="evenodd"/><path d="m5 30v15l27-4.5v-6.5625z" fill="url(#d)" transform="translate(0 1000.3622)"/><path d="m8 27-3 3 27.054688 3.945312 1.308593-1.308593z" fill="#fe865c" fill-rule="evenodd" transform="translate(0 1000.3622)"/><path d="m53 1017.3622-48 8v-15z" fill="url(#e)"/><path d="m53 1017.3622-48-7 3-3z" fill="#987197" fill-rule="evenodd"/><path d="m8 7-3 3 14 2 2.091797-2.0917969z" fill="#fe865c" fill-rule="evenodd" transform="translate(0 1000.3622)"/><path d="m5 10v15l14-2.333984v-10.625z" fill="url(#f)" transform="translate(0 1000.3622)"/><g fill="#fff" transform="translate(-29 262)"><path d="m38 771.8621a2 2 0 0 0 -2 2 2 2 0 0 0 2 2 2 2 0 0 0 2-2 2 2 0 0 0 -2-2zm0 1a1 1 0 0 1 1 1 1 1 0 0 1 -1 1 1 1 0 0 1 -1-1 1 1 0 0 1 1-1z"/><path d="m42 775.8621a2 2 0 0 0 -2 2 2 2 0 0 0 2 2 2 2 0 0 0 2-2 2 2 0 0 0 -2-2zm0 1a1 1 0 0 1 1 1 1 1 0 0 1 -1 1 1 1 0 0 1 -1-1 1 1 0 0 1 1-1z"/><path d="m42.59961 771.5624-6 8 .80078.5996 6-8z" fill-rule="evenodd"/></g></g></svg>