<svg height="52" viewBox="0 0 60 52" width="60" xmlns="http://www.w3.org/2000/svg" xmlns:xlink="http://www.w3.org/1999/xlink"><linearGradient id="a"><stop offset="0" stop-color="#e95420"/><stop offset="1" stop-color="#fe865c"/></linearGradient><linearGradient id="b" gradientTransform="matrix(.88888889 0 0 .7 0 312.90878)" gradientUnits="userSpaceOnUse" x1="49.5" x2="50.625" xlink:href="#c" y1="1046.3621" y2="1016.3621"/><linearGradient id="c"><stop offset="0" stop-color="#762572"/><stop offset="1" stop-color="#a25f9e"/></linearGradient><linearGradient id="d" gradientTransform="matrix(.88888889 0 0 1.2 -22 -210.2723)" gradientUnits="userSpaceOnUse" x1="49.5" x2="50.625" xlink:href="#c" y1="1046.3621" y2="1016.3621"/><linearGradient id="e" gradientTransform="matrix(.88888889 0 0 1.6666666 21.33333 -698.5746)" gradientUnits="userSpaceOnUse" x1="16.500004" x2="17.625004" xlink:href="#a" y1="1046.3622" y2="1028.3621"/><linearGradient id="f" gradientTransform="matrix(.88888889 0 0 1.5 -.66667 -524.1811)" gradientUnits="userSpaceOnUse" x1="16.500004" x2="16.500004" xlink:href="#a" y1="1046.3622" y2="1028.3622"/><g transform="translate(0 -1000.3622)"><path d="m0 1000.3622h60v52h-60z" fill="#fff"/><path d="m12 1040.3622-9 9" fill="none" stroke="#232629"/><path d="m11 1040.3684h46v.9874h-46z" fill="#232629"/><path d="m11 1003.3622h1v38h-1z" fill="#232629"/><path d="m15 1016.3622 3 29h-8z" fill="url(#f)"/><path d="m37 1015.3622 3 30h-8z" fill="url(#e)"/><g fill-rule="evenodd"><path d="m23 1009.3622 3 36 3-3z" fill="#945c93"/><path d="m45 1024.3622 3 21 3-3z" fill="#945c93"/><g fill="#fe865c"><path d="m37 1015.3622 3 30 3-3z"/><path d="m15 1016.3622 3 29 3-3z"/></g></g><path d="m23 1009.3622 3 36h-8z" fill="url(#d)"/><path d="m45 1024.3622 3 21h-8z" fill="url(#b)"/></g></svg>