<svg height="52" viewBox="0 0 60 52" width="60" xmlns="http://www.w3.org/2000/svg" xmlns:xlink="http://www.w3.org/1999/xlink"><linearGradient id="a"><stop offset="0" stop-color="#e95420"/><stop offset="1" stop-color="#fe865c"/></linearGradient><linearGradient id="b" gradientTransform="matrix(1 0 0 1.5 -2 -523.1811)" gradientUnits="userSpaceOnUse" x1="16" x2="16" xlink:href="#a" y1="1046.3622" y2="1017.6956"/><linearGradient id="c" gradientTransform="matrix(1 0 0 .83333331 -26 174.3938)" gradientUnits="userSpaceOnUse" x1="101" x2="36" xlink:href="#d" y1="959.69543" y2="947.19543"/><linearGradient id="d"><stop offset="0" stop-color="#762572"/><stop offset="1" stop-color="#a25f9e"/></linearGradient><linearGradient id="e" gradientTransform="matrix(1 0 0 1.6666666 22 -697.5746)" gradientUnits="userSpaceOnUse" x1="16" x2="16" xlink:href="#a" y1="1046.3622" y2="1020.5621"/><linearGradient id="f" gradientTransform="matrix(1 0 0 .7 -2 313.90874)" gradientUnits="userSpaceOnUse" x1="50" x2="50" xlink:href="#d" y1="1046.3622" y2="984.93353"/><g transform="translate(0 -1000.3622)"><path d="m0 1000.3622h60v52h-60z" fill="#fff"/><path d="m10 1019.3622h9v27h-9z" fill="url(#b)"/><path d="m19 1021.3622h9v25h-9z" fill="url(#c)"/><path d="m34 1016.3622h9v30h-9z" fill="url(#e)"/><path d="m43 1025.3622h9v21h-9z" fill="url(#f)"/><path d="m3 1045.3622h52v1h-52z" fill="#232629"/><path d="m6 1003.3622h1v45.999962h-1z" fill="#232629"/><path d="m47 1013.362217h1v8.999983h-1z" fill="#762572"/><path d="m47 1017.362217h3v1h-3z" fill="#762572"/><path d="m38 1004.362217h1v8.999983h-1z" fill="#e95420"/><path d="m38 1008.362217h3v1h-3z" fill="#e95420"/><path d="m23 1009.362217h1v8.999983h-1z" fill="#762572"/><path d="m23 1013.362217h3v1h-3z" fill="#762572"/><g fill="#e95420"><path d="m14 1007.362217h1v8.999983h-1z"/><path d="m14 1011.362217h3v1h-3z"/></g></g></svg>