<svg viewBox="0 0 24 24" xmlns="http://www.w3.org/2000/svg"><path d="m17 15v4.09375l-2.28125-2.3125-.71875.71875 3.28125 3.28125.21875.21875.21875-.21875 3.28125-3.28125-.71875-.71875-2.28125 2.3125v-4.09375z" fill="#3daee9"/><path d="m12 4v16h2v-7c0-.552285.447715-1 1-1h2v-1h-2c-.552285 0-1-.447715-1-1v-6zm-9 2v1.2128906.7871094h1c.0000001-.4594384.4244443-.710173.8808594-.7871094h3.6738281c-.338837 3.7806824-2.5313845 6.8475964-6.6152344 8.8984374l.5605469.888672c6.5-2.5 7.5-6.452482 7.5-11z" fill="#eff0f1"/></svg>