<svg height="16" width="16" xmlns="http://www.w3.org/2000/svg" xmlns:xlink="http://www.w3.org/1999/xlink"><radialGradient id="a" cx="9" cy="13.25" gradientTransform="matrix(1 0 0 .39285714 0 8.044643)" gradientUnits="userSpaceOnUse" r="7"><stop offset="0"/><stop offset="1" stop-opacity="0"/></radialGradient><radialGradient id="b" cx="8.318625" cy=".482832" gradientTransform="matrix(.84185778 0 0 .8378013 -2.102293 4.69235)" gradientUnits="userSpaceOnUse" r="7.5"><stop offset="0" stop-color="#e2c8fa"/><stop offset="1" stop-color="#a56de2"/></radialGradient><linearGradient id="c" gradientTransform="matrix(.84185778 0 0 .8378013 -2.102293 4.69235)" gradientUnits="userSpaceOnUse" x1="3" x2="14" y1="2" y2="10"><stop offset="0" stop-color="#fff"/><stop offset=".28888068" stop-color="#fff" stop-opacity=".235294"/><stop offset="1" stop-color="#fff" stop-opacity=".156863"/><stop offset="1" stop-color="#fff" stop-opacity=".392157"/></linearGradient><ellipse cx="9" cy="13.25" fill="url(#a)" rx="7" ry="2.75"/><g stroke-opacity=".5625"><path d="m14.5 7.5a7 7 0 0 1 -7 7 7 7 0 0 1 -7-7 7 7 0 0 1 7-7 7 7 0 0 1 7 7z" fill="url(#b)" stroke="#7239b3"/><path d="m13.5 7.5a6 6 0 0 1 -6 6 6 6 0 0 1 -6-6 6 6 0 0 1 6-6 6 6 0 0 1 6 6z" fill="none" stroke="url(#c)"/></g></svg>