<svg viewBox="0 0 16 16" xmlns="http://www.w3.org/2000/svg" xmlns:xlink="http://www.w3.org/1999/xlink"><linearGradient id="a" gradientUnits="userSpaceOnUse" x1="-6.033898" x2="-6.033898" xlink:href="#d" y1="15" y2="9"/><linearGradient id="b" gradientUnits="userSpaceOnUse" x1="-10.033898" x2="-10.033898" xlink:href="#f" y1="9" y2="15"/><linearGradient id="c" gradientUnits="userSpaceOnUse" x1="-9.033898" x2="-9.033898" xlink:href="#e" y1="13" y2="11"/><linearGradient id="d" gradientTransform="matrix(.28571361 0 0 .30419701 -22.179161 -10.004683)" gradientUnits="userSpaceOnUse" x1="25.132275" x2="25.132275" y1=".985206" y2="47.013336"><stop offset="0" stop-color="#f4f4f4"/><stop offset="1" stop-color="#dbdbdb"/></linearGradient><linearGradient id="e" gradientTransform="matrix(.24324324 0 0 .35135133 2.162164 -.432428)" gradientUnits="userSpaceOnUse" x1="23.99999" x2="23.99999" y1="6.923065" y2="41.076912"><stop offset="0" stop-color="#fff"/><stop offset=".06331655" stop-color="#fff" stop-opacity=".235294"/><stop offset="1" stop-color="#fff" stop-opacity=".156863"/><stop offset="1" stop-color="#fff" stop-opacity=".392157"/></linearGradient><linearGradient id="f" gradientTransform="matrix(.25378586 0 0 .30501865 19.128979 -.685477)" gradientUnits="userSpaceOnUse" x1="-51.786404" x2="-51.786404" y1="50.786446" y2="2.906247"><stop offset="0" stop-opacity=".339506"/><stop offset="1" stop-opacity=".246914"/></linearGradient><linearGradient id="g" gradientUnits="userSpaceOnUse" x1="-9.533898" x2="-9.533898" xlink:href="#e" y1="4" y2="2"/><linearGradient id="h" gradientUnits="userSpaceOnUse" x1="-12.533898" x2="-12.533898" xlink:href="#d" y1="6.759461" y2="0"/><linearGradient id="i" gradientUnits="userSpaceOnUse" x1="-8.533898" x2="-8.533898" xlink:href="#f" y1="0" y2="7"/><g transform="matrix(0 -1 1 0 -.033898 16)"><path d="m-14.533898.5h12l.033956 4.993272-12.033956.006728z" fill="url(#h)" stroke="url(#i)" stroke-linejoin="round" stroke-miterlimit="3" transform="rotate(-90)"/><path d="m-13.533898 1.5h10v3h-10z" fill="none" stroke="url(#g)" stroke-miterlimit="3" transform="rotate(-90)"/><path d="m6.5.033898v17.5h-2l-.00673-17.5" fill="#fcaf3e" stroke="#ce5c00" stroke-linejoin="round" stroke-miterlimit="0"/><path d="m-13.533898 9.5h11l.033955 4.999998-11.033955.000002z" fill="url(#a)" stroke="url(#b)" stroke-linejoin="round" stroke-miterlimit="3" transform="rotate(-90)"/><path d="m-12.533898 10.5h9v3h-9z" fill="none" stroke="url(#c)" stroke-miterlimit="3" transform="rotate(-90)"/><path d="m15.5.03389831v17.49999969h-2v-17.49999969" fill="#fcaf3e" stroke="#ce5c00" stroke-linejoin="round" stroke-miterlimit="0"/></g></svg>