<svg viewBox="0 0 24 24" xmlns="http://www.w3.org/2000/svg" xmlns:xlink="http://www.w3.org/1999/xlink"><linearGradient id="a" gradientTransform="translate(4.5 4.5)" gradientUnits="userSpaceOnUse" x1="9.5" x2="9.5" y1=".5" y2="6.5"><stop offset="0" stop-color="#fff"/><stop offset="1" stop-color="#e9e9e9"/></linearGradient><linearGradient id="b" gradientTransform="matrix(.25378586 0 0 .30501865 23.628979 3.814523)" gradientUnits="userSpaceOnUse" x1="9" x2="9" y1="20" y2="0"><stop offset="0" stop-opacity=".339506"/><stop offset="1" stop-opacity=".246914"/></linearGradient><linearGradient id="c" gradientTransform="matrix(.24324324 0 0 .35135133 4.662164 4.067572)" gradientUnits="userSpaceOnUse" x1="23.999992" x2="23.999992" y1="5.499988" y2="39.653835"><stop offset="0" stop-color="#fff"/><stop offset=".00000001" stop-color="#fff" stop-opacity=".235294"/><stop offset="1" stop-color="#fff" stop-opacity=".156863"/><stop offset="1" stop-color="#fff" stop-opacity=".392157"/></linearGradient><linearGradient id="d" gradientTransform="matrix(.24324324 0 0 .35135133 -3.337836 4.067572)" gradientUnits="userSpaceOnUse" x1="38.388882" x2="54.833328" xlink:href="#c" y1="31.115374" y2="31.115374"/><linearGradient id="e" gradientTransform="matrix(.25378586 0 0 .30501865 31.628979 3.814523)" gradientUnits="userSpaceOnUse" x1="-77.34465" x2="-45.822014" xlink:href="#b" y1="-12.505868" y2="-12.505868"/><linearGradient id="f" gradientTransform="matrix(.25378586 0 0 .30501865 23.628979 3.814523)" gradientUnits="userSpaceOnUse" x1="-77.34465" x2="-45.822014" xlink:href="#b" y1="-1.03116" y2="-1.03116"/><linearGradient id="g" gradientTransform="matrix(.24324324 0 0 .35135133 4.662164 4.067572)" gradientUnits="userSpaceOnUse" x1="38.388882" x2="54.833328" xlink:href="#c" y1="28.26922" y2="28.26922"/><linearGradient id="h" gradientTransform="translate(4.5 12.5)" gradientUnits="userSpaceOnUse" x1="9.5" x2="9.5" xlink:href="#a" y1=".5" y2="6.5"/><path d="m2 2h20v20h-20z" fill="#fff"/><path d="m5 5v6h14v-6z" fill="url(#a)" stroke-width="1.066667"/><path d="m5 13v6h14v-6z" fill="url(#h)" stroke-width="1.066667"/><g fill="none"><g transform="matrix(0 1 -1 0 24 0)"><path d="m4.5 4.5h7v15h-7z" opacity=".5" stroke="url(#f)" stroke-linecap="square"/><path d="m12.5 4.5h7v15h-7z" opacity=".5" stroke="url(#e)" stroke-linecap="square"/><g stroke-linecap="round"><path d="m18.5 18.5h-5v-13h5z" stroke="url(#g)"/><path d="m10.5 18.5h-5v-13h5z" stroke="url(#d)"/></g></g><g stroke="#cc3b02" stroke-linecap="square" stroke-width="2" transform="matrix(0 -1 1 0 0 24)"><path d="m5 5h14"/><path d="m5 19h14"/><path d="m5 12h14"/><path d="m19 5v14"/><path d="m5 5v14"/></g></g></svg>