<svg viewBox="0 0 24 24" xmlns="http://www.w3.org/2000/svg" xmlns:xlink="http://www.w3.org/1999/xlink"><linearGradient id="a" gradientTransform="matrix(.48571543 0 0 .45629666 -1.157131 -.151171)" gradientUnits="userSpaceOnUse" x1="25.132275" x2="25.132275" y1=".985206" y2="47.013336"><stop offset="0" stop-color="#f4f4f4"/><stop offset="1" stop-color="#dbdbdb"/></linearGradient><linearGradient id="b" gradientTransform="matrix(.03696745 0 0 .0082353 -1.361095 18.980547)" gradientUnits="userSpaceOnUse" x1="302.85715" x2="302.85715" y1="366.64789" y2="609.50507"><stop offset="0" stop-opacity="0"/><stop offset=".5"/><stop offset="1" stop-opacity="0"/></linearGradient><radialGradient id="c" cx="605.71429" cy="486.64789" gradientTransform="matrix(.01204859 0 0 .0082353 15.238793 18.980564)" gradientUnits="userSpaceOnUse" r="117.14286" xlink:href="#d"/><linearGradient id="d"><stop offset="0"/><stop offset="1" stop-opacity="0"/></linearGradient><radialGradient id="e" cx="605.71429" cy="486.64789" gradientTransform="matrix(-.01204859 0 0 .0082353 8.761207 18.980564)" gradientUnits="userSpaceOnUse" r="117.14286" xlink:href="#d"/><path d="m1.5 22h21v2h-21z" fill="url(#b)" opacity=".15"/><path d="m22.5 22.000085v1.999891c.620472.0038 1.5-.448075 1.5-1.000075 0-.551999-.692402-.999816-1.5-.999816z" fill="url(#c)" opacity=".15"/><path d="m1.5 22.000085v1.999891c-.62047201.0038-1.5-.448075-1.5-1.000075 0-.551999.69240199-.999816 1.5-.999816z" fill="url(#e)" opacity=".15"/><path d="m23.500052.49982484v21.99320416" fill="none" stroke="#fff" stroke-linecap="round" stroke-width=".999703"/><path d="m2 .9999238c3.895581 0 20.999979.00136 20.999979.00136l.000021 20.9987162h-21v-21.0000539z" fill="url(#a)"/><g fill="none" stroke-linecap="round" stroke-width=".999703"><path d="m1.5069708 22.499923h21.9931792" stroke="#fff"/><path d="m1.5000764.49982484v21.99320416" stroke="#fff"/><path d="m1.5069708.49992304h21.9931792" stroke="#ce5c00"/></g></svg>