<svg viewBox="0 0 24 24" xmlns="http://www.w3.org/2000/svg" xmlns:xlink="http://www.w3.org/1999/xlink"><radialGradient id="a" cx="605.71429" cy="486.64789" gradientTransform="matrix(.01204859 0 0 .0082353 12.238793 15.980564)" gradientUnits="userSpaceOnUse" r="117.14286" xlink:href="#b"/><linearGradient id="b"><stop offset="0"/><stop offset="1" stop-opacity="0"/></linearGradient><radialGradient id="c" cx="605.71429" cy="486.64789" gradientTransform="matrix(-.01204859 0 0 .0082353 11.761207 15.980564)" gradientUnits="userSpaceOnUse" r="117.14286" xlink:href="#b"/><linearGradient id="d" gradientTransform="matrix(.04265475 0 0 .0082353 1.198737 15.980547)" gradientUnits="userSpaceOnUse" x1="302.85715" x2="302.85715" y1="366.64789" y2="609.50507"><stop offset="0" stop-opacity="0"/><stop offset=".5"/><stop offset="1" stop-opacity="0"/></linearGradient><linearGradient id="e" gradientTransform="matrix(-.48571543 0 0 .45629666 25.157131 -.151171)" gradientUnits="userSpaceOnUse" x1="25.132275" x2="25.132275" y1=".985206" y2="47.013336"><stop offset="0" stop-color="#f4f4f4"/><stop offset="1" stop-color="#dbdbdb"/></linearGradient><g transform="matrix(0 1 1 0 0 0)"><path d="m4.5 19h15v2h-15z" fill="url(#d)" opacity=".15"/><path d="m19.5 19.000085v1.999891c.620472.0038 1.5-.448075 1.5-1.000075 0-.551999-.692402-.999816-1.5-.999816z" fill="url(#a)" opacity=".15"/><path d="m4.5 19.000085v1.999891c-.620472.0038-1.5-.448075-1.5-1.000075 0-.551999.692402-.999816 1.5-.999816z" fill="url(#c)" opacity=".15"/></g><g transform="matrix(0 1 1 0 -16 0)"><path d="m4.5 19h15v2h-15z" fill="url(#d)" opacity=".15"/><path d="m19.5 19.000085v1.999891c.620472.0038 1.5-.448075 1.5-1.000075 0-.551999-.692402-.999816-1.5-.999816z" fill="url(#a)" opacity=".15"/><path d="m4.5 19.000085v1.999891c-.620472.0038-1.5-.448075-1.5-1.000075 0-.551999.692402-.999816 1.5-.999816z" fill="url(#c)" opacity=".15"/></g><g transform="matrix(-1 0 0 1 24 -16)"><path d="m4.5 19h15v2h-15z" fill="url(#d)" opacity=".15"/><path d="m19.5 19.000085v1.999891c.620472.0038 1.5-.448075 1.5-1.000075 0-.551999-.692402-.999816-1.5-.999816z" fill="url(#a)" opacity=".15"/><path d="m4.5 19.000085v1.999891c-.620472.0038-1.5-.448075-1.5-1.000075 0-.551999.692402-.999816 1.5-.999816z" fill="url(#c)" opacity=".15"/></g><path d="m20 4h-16v16h16z" fill="url(#e)"/><g transform="matrix(-1 0 0 1 24 0)"><path d="m4.5 19h15v2h-15z" fill="url(#d)" opacity=".15"/><path d="m19.5 19.000085v1.999891c.620472.0038 1.5-.448075 1.5-1.000075 0-.551999-.692402-.999816-1.5-.999816z" fill="url(#a)" opacity=".15"/><path d="m4.5 19.000085v1.999891c-.620472.0038-1.5-.448075-1.5-1.000075 0-.551999.692402-.999816 1.5-.999816z" fill="url(#c)" opacity=".15"/></g><g fill="none" stroke-linecap="round" stroke-width=".999703"><path d="m19.500098 4.5v15" stroke="#fff"/><path d="m4.499948 4.5v15" stroke="#fff"/><path d="m19.5 4.5000985h-15" stroke="#fff"/><path d="m19.5 19.500099h-15" stroke="#ce5c00"/></g></svg>