<svg height="16" width="16" xmlns="http://www.w3.org/2000/svg" xmlns:xlink="http://www.w3.org/1999/xlink"><linearGradient id="a" gradientTransform="matrix(.29751073 0 0 .2972973 .859747 -.139118)" gradientUnits="userSpaceOnUse" x1="12.295501" x2="12.295501" xlink:href="#b" y1="7.272937" y2="40.591042"/><linearGradient id="b"><stop offset="0" stop-color="#fff"/><stop offset=".05749262" stop-color="#fff" stop-opacity=".235294"/><stop offset=".95056331" stop-color="#fff" stop-opacity=".156863"/><stop offset="1" stop-color="#fff" stop-opacity=".392157"/></linearGradient><linearGradient id="c" gradientTransform="matrix(.3726957 0 0 .89471714 -16.017319 -23.6608)" gradientUnits="userSpaceOnUse" x1="56.408016" x2="56.408016" y1="42.392338" y2="26.595999"><stop offset="0" stop-opacity=".32"/><stop offset="1" stop-opacity=".24"/></linearGradient><linearGradient id="d" gradientTransform="matrix(.35789391 0 0 .29504822 -18.485471 -.424826)" gradientUnits="userSpaceOnUse" x1="74.838791" x2="74.838791" y1="4.535933" y2="49.779099"><stop offset="0" stop-color="#f4f4f4"/><stop offset="1" stop-color="#dbdbdb"/></linearGradient><linearGradient id="e" gradientTransform="matrix(.35135145 0 0 .24324333 -.43243 3.162125)" gradientUnits="userSpaceOnUse" x1="23.99999" x2="23.99999" y1="7.538568" y2="40.450089"><stop offset="0" stop-color="#fff"/><stop offset=".0950556" stop-color="#fff" stop-opacity=".235294"/><stop offset=".90652174" stop-color="#fff" stop-opacity=".156863"/><stop offset="1" stop-color="#fff" stop-opacity=".392157"/></linearGradient><linearGradient id="f" gradientTransform="matrix(.29751073 0 0 .2972973 .859747 -.139118)" gradientUnits="userSpaceOnUse" x1="33.010906" x2="33.010906" xlink:href="#b" y1="10.566592" y2="40.907867"/><linearGradient id="g" gradientUnits="userSpaceOnUse" x1="8" x2="8" y1="3.5" y2="14.5"><stop offset="0" stop-color="#9bdb4d"/><stop offset="1" stop-color="#68b723"/></linearGradient><path d="m2.5.99996051c-.052479 0-.1033363.00277-.1542969.00781-.1010961.01020809-.1989156.02946489-.2929687.05859619-.4702657.1456566-.8406716.5160625-.9863282.9863282-.0291313.0940531-.0483881.1918726-.0585937.2929687-.0051028.0505481-.0078125.1023595-.0078125.1542969v2.5 6.0000005h14v-6.0000005-1.5c0-.8396648-.660335-1.5-1.5-1.5h-6.1132812c-.4177444 0-.7602537-.1227918-.9902344-.2871094-.2299808-.1643175-.3449951-.3072928-.515625-.4277344-.2535707-.1789866-.5528878-.28515619-.8808594-.28515619z" fill="url(#d)"/><g stroke-linejoin="round"><path d="m14.5 3.9999605v-.5c0-.5694177-.430582-1-1-1h-6" fill="none" stroke="url(#f)" stroke-linecap="round"/><path d="m7.5 2.4999605c-.4942824 0-1.1015038-.168584-1.3988204-.3808594-.2973165-.2122755-.392089-.3413993-.5117187-.4257812-.1761202-.1242278-.3715379-.1933594-.5894609-.1933594h-2.5c-.5698262 0-1.0000469.4305825-1.0000469 1v1.5" fill="none" stroke="url(#a)" stroke-linecap="round"/><path d="m15.5 5v-1.5c0-1.1079978-.892002-2-2-2h-6.1136406c-.6842055 0-.7740888-.3105548-1.2167969-.62304689-.3305981-.233397-.7325261-.3769926-1.1699219-.3769926h-2.5c-1.1079977 0-2 .89200219-2 1.99999999v2.5" fill="none" stroke="url(#c)"/><rect fill="url(#g)" height="11" rx="1.5" stroke="#206b00" stroke-opacity=".501961" width="15" x=".5" y="3.5"/><rect fill="none" height="9" opacity=".5" rx=".5" stroke="url(#e)" stroke-linecap="round" width="13" x="1.5" y="4.5"/></g></svg>