<svg height="22" viewBox="0 0 5.8208332 5.8208335" width="22" xmlns="http://www.w3.org/2000/svg" xmlns:xlink="http://www.w3.org/1999/xlink"><linearGradient id="a" gradientUnits="userSpaceOnUse" x1="3.175488" x2="5.292155" xlink:href="#b" y1="295.83279" y2="295.83279"/><linearGradient id="b"><stop offset="0" stop-color="#555761"/><stop offset=".3125" stop-color="#abacae" stop-opacity=".988235"/><stop offset=".5625" stop-color="#fafafa" stop-opacity=".988235"/><stop offset=".8125" stop-color="#abacae" stop-opacity=".988235"/><stop offset="1" stop-color="#555761" stop-opacity=".985965"/></linearGradient><linearGradient id="c" gradientUnits="userSpaceOnUse" x1="3.175488" x2="5.292155" xlink:href="#b" y1="295.43591" y2="295.43591"/><linearGradient id="d" gradientUnits="userSpaceOnUse" x1="3.175" x2="5.291667" xlink:href="#b" y1="295.01559" y2="295.01559"/><radialGradient id="e" cx="4.155227" cy="290.80325" gradientUnits="userSpaceOnUse" r="1.202704"><stop offset="0" stop-color="#fff"/><stop offset="1" stop-color="#fff" stop-opacity="0"/></radialGradient><linearGradient id="f" gradientUnits="userSpaceOnUse" x1="12.000002" x2="12.000002" y1=".999953" y2="12.999972"><stop offset="0" stop-color="#ffe16b"/><stop offset="1" stop-color="#f9c440"/></linearGradient><linearGradient id="g" gradientUnits="userSpaceOnUse" x1="12.000002" x2="12.000002" y1="5.000035" y2="9.500007"><stop offset="0" stop-color="#fff"/><stop offset=".42447853" stop-color="#fff" stop-opacity=".235294"/><stop offset=".82089913" stop-color="#fff" stop-opacity=".156863"/><stop offset="1" stop-color="#fff" stop-opacity=".392157"/></linearGradient><g transform="matrix(-.53033009 .53033009 -.53033009 -.53033009 160.8132 156.32307)"><path d="m12 1.5a5.5 5.5 0 0 0 -5.5 5.5 5.5 5.5 0 0 0 .3769531 2.0019531c-.0041476-.0005596-.0075653-.0013968-.0117187-.0019531 1.1383132 3.038854 2.3113692 6.019683 2.6074218 7.824219.0004768.0057.0004768.01 0 .01563v.322265c.6222728.202961 1.5453728.331578 2.5253908.332032.97943-.000114 1.906152-.124232 2.529297-.326172v-.328125c-.000477-.0057-.000477-.01 0-.01563.264301-1.611027 1.147159-4.232522 2.148437-6.9433596a5.5 5.5 0 0 0 .824219-2.8808594 5.5 5.5 0 0 0 -5.5-5.5z" style="stroke:#ad5f00;stroke-width:1.000001;stroke-linecap:round;stroke-linejoin:round;stroke-opacity:.501961;fill:url(#f)" transform="matrix(.35277778 0 0 .35277778 0 288.54548)"/><g stroke-linecap="round" stroke-linejoin="round" stroke-opacity=".501961" stroke-width=".352778"><path d="m4.7624997 296.14008a.52916664.33072916 0 0 1 -.5291666.33072.52916664.33072916 0 0 1 -.5291666-.33072.52916664.33072916 0 0 1 .5291666-.33073.52916664.33072916 0 0 1 .5291666.33073z" fill="#1a1a1a" fill-opacity=".988235" stroke="#000"/><g stroke="#485a6c"><path d="m3.4864469 295.54673c.4409723.223 1.0525519.13992 1.4935242.0164.1411484-.0395.1357088.12581.1357088.27239s-.1283679.21045-.2645833.26458c-.4373171.17381-.7871342.17815-1.2318699-.00081-.1359831-.0547-.2645833-.118-.2645833-.26458s.1318035-.43458.1318035-.28801z" fill="url(#a)"/><path d="m3.4864469 295.14985c.4409723.22301 1.0525519.13993 1.4935242.0164.1411484-.0395.1357088.12582.1357088.2724 0 .14657-.1283679.21044-.2645833.26458-.4373171.1738-.7871342.17815-1.2318699-.00081-.1359831-.0547-.2645833-.11801-.2645833-.26458 0-.14658.1318035-.43459.1318035-.28802z" fill="url(#c)"/><path d="m3.4859587 294.72954c.4409723.22301 1.052552.13993 1.4935243.0164.1411483-.0395.1357087.12582.1357087.2724s-.1283679.21044-.2645833.26458c-.4373171.17381-.7871341.17815-1.2318699-.00081-.1359831-.0547-.2645833-.118-.2645833-.26458s.1318035-.43459.1318035-.28802z" fill="url(#d)"/></g></g><circle cx="4.155228" cy="290.80325" fill="url(#e)" opacity=".683" r="1.202704"/><path d="m12 2.5c-2.4852814 0-4.5 2.0147186-4.5 4.5l1 3.5c.919226 2.207962 1.4639958 4.116404 1.820312 5.802734.479782.109701 1.004223.222373 1.677735.222657.671847-.000085 1.200051-.113239 1.681641-.222657.355466-1.681625.903383-3.598457 1.820312-5.802734l1-3.5c0-2.4852814-2.014719-4.5-4.5-4.5z" style="fill:none;stroke-width:1.000001;stroke-linecap:round;stroke-linejoin:round;stroke-opacity:.501961;stroke:url(#g)" transform="matrix(.35277778 0 0 .35277778 0 288.54548)"/></g></svg>