<svg viewBox="0 0 16 16" xmlns="http://www.w3.org/2000/svg" xmlns:xlink="http://www.w3.org/1999/xlink"><radialGradient id="a" cx="8" cy="7.133924" gradientTransform="matrix(.92721625 -.00000001 0 .78456761 .58227 4.902955)" gradientUnits="userSpaceOnUse" r="7.010231"><stop offset="0" stop-color="#e29ffc"/><stop offset=".5" stop-color="#ad65d6"/><stop offset="1" stop-color="#7a36b1"/></radialGradient><linearGradient id="b" gradientTransform="matrix(.24202947 0 0 .14212699 -4.936236 -6.137016)" gradientUnits="userSpaceOnUse" x1="16.263456" x2="28.913122" y1="67.869316" y2="-12.523698"><stop offset="0" stop-color="#0968ef"/><stop offset="1" stop-color="#aecffc"/></linearGradient><linearGradient id="c" gradientUnits="userSpaceOnUse" x1="6" x2="6" xlink:href="#b" y1="6" y2="-6"/><linearGradient id="d" gradientTransform="matrix(.8660254 .5 -.5 .8660254 4.241669 -4.964101)" gradientUnits="userSpaceOnUse" x1="12.5" x2="13" xlink:href="#b" y1="6" y2="-2.5"/><linearGradient id="e" gradientTransform="matrix(.8660254 -.5 .5 .8660254 -10.758331 7.535899)" gradientUnits="userSpaceOnUse" x1="12.5" x2="13" xlink:href="#b" y1="6" y2="-2.5"/><path d="m7.96875 9.5c-1.7319899.00658-3.4559371.549966-4.7910156 1.521484-1.3350786.971519-2.27031031 2.369383-2.5683594 3.88086a.50005.50005 0 0 0 .4902344.597656h13.7949216a.50005.50005 0 0 0 .490235-.597656c-.299663-1.51961-1.243446-2.924192-2.589844-3.896485s-3.0848519-1.5104922-4.826172-1.505859z" fill="url(#a)"/><path d="m7.96875 9.4863281c-3.9794492.015302-7.13404549 2.6990499-7.42382812 6.0273439h14.91210912c-.292076-3.350674-3.485715-6.0419288-7.488281-6.0273439z" fill="none" stroke="#260063" stroke-opacity=".509804"/><path d="m14.566987 2.151924-3.665064 1.348076 1.732052 1-1.750001 3.031089c-.1385.2398892-.05688.5445129.183013.6830129.239889.1385.544513.056876.683013-.1830127l1.75-3.0310892 1.732051 1z" fill="url(#d)"/><path d="m.566987 2.151924-.665064 3.848076 1.732051-1 1.75 3.0310892c.1385.239889.443124.3215127.683013.1830127s.321513-.4431237.183013-.6830129l-1.75-3.031089 1.732051-1z" fill="url(#e)"/><path d="m7.5 1-2.5 3h2v3.5c0 .277.223.5.5.5s.5-.223.5-.5v-3.5h2z" fill="url(#c)" fill-rule="evenodd"/></svg>