<svg height="128" width="128" xmlns="http://www.w3.org/2000/svg" xmlns:xlink="http://www.w3.org/1999/xlink"><linearGradient id="a" gradientTransform="matrix(.714286 0 0 -1.33333 -288.92976 -1331.5136)" gradientUnits="userSpaceOnUse" x1="525.63947" x2="525.63947" y1="-1078.6444" y2="-1068.7872"><stop offset="0" stop-color="#8ee780"/><stop offset="1" stop-color="#ccf4c6"/></linearGradient><linearGradient id="b" gradientTransform="matrix(.714286 0 0 -.888884 -296.92976 -852.3436)" gradientUnits="userSpaceOnUse" x1="525.63947" x2="525.63947" y1="-1078.6444" y2="-1068.7872"><stop offset="0" stop-color="#f5ce53"/><stop offset="1" stop-color="#fde9a9"/></linearGradient><linearGradient id="c" gradientTransform="matrix(.714286 0 0 -2.11111 -304.92976 -2170.0636)" gradientUnits="userSpaceOnUse" x1="525.63947" x2="525.63947" y1="-1078.6444" y2="-1068.7872"><stop offset="0" stop-color="#f09e6f"/><stop offset="1" stop-color="#f9cfb5"/></linearGradient><linearGradient id="d" gradientUnits="userSpaceOnUse" x1="74.65552" x2="74.65552" y1="95.0298" y2="85.998596"><stop offset="0" stop-color="#a33e03"/><stop offset="1" stop-color="#c15414"/></linearGradient><linearGradient id="e" gradientTransform="matrix(.714286 0 0 -1.55555 -312.92976 -1571.1036)" gradientUnits="userSpaceOnUse" x1="525.63947" x2="525.63947" y1="-1078.6444" y2="-1068.7872"><stop offset="0" stop-color="#63bbee"/><stop offset="1" stop-color="#aadcf7"/></linearGradient><linearGradient id="f" gradientTransform="matrix(.948718 0 0 1.3 -726.38576 1491.7274)" gradientUnits="userSpaceOnUse" x1="829.36053" x2="829.36053" y1="-1064.7994" y2="-1082.3413"><stop offset="0" stop-color="#e4e4e4"/><stop offset="1" stop-color="#f9f9f9"/></linearGradient><linearGradient id="g" gradientUnits="userSpaceOnUse" x1="70.06177" x2="70.06177" y1="109.9985" y2="83.998497"><stop offset="0" stop-color="#727272"/><stop offset="1" stop-color="#9a9a9a"/></linearGradient><linearGradient id="h" gradientUnits="userSpaceOnUse" x1="108" x2="20" y1="122" y2="6"><stop offset="0" stop-color="#18a303"/><stop offset="1" stop-color="#43c330"/></linearGradient><linearGradient id="i" gradientUnits="userSpaceOnUse" x1="108" x2="20" y1="122" y2="6"><stop offset="0" stop-color="#6e6e6e"/><stop offset="1" stop-color="#b0b0b0"/></linearGradient><path d="m26 12v104h76v-80l-2.00977-2.009766c-.0317.0014-.0617.0098-.0937.0098h-5.79296c-1.1649-.000034-2.10357-.938705-2.10357-2.10355v-5.896484l-4-4h-5.89648c-1.16485 0-2.10352-.938671-2.10352-2.103516v-5.792968c0-.03207.008-.06204.01-.09375l-2.01-2.009766z" fill="#fff"/><path d="m28 6c-4.432 0-8 3.568-8 8v100c0 4.432 3.568 8 8 8h72c4.432 0 8-3.568 8-8v-79.765625c0-1.54904-.27441-2.13639-1.125-3.09375l-4.875-4.900391v5.65625c0 1.164845-.93867 2.103516-2.10352 2.103516h-5.79296c-1.16485 0-2.10352-.938671-2.10352-2.103516v-9.896484h-9.89648c-1.16485 0-2.10352-.938671-2.10352-2.103516v-5.792968c0-1.164845.93867-2.103516 2.10352-2.103516h5.73046l-5.05273-5.078125c-.6384-.63281-1.38697-.924835-2.35937-.921875zm-2 6h52v19.921875c.00024 2.1136 1.91291 4.03101 4.01562 4.03125h19.98438v80.046875h-76zm5 41.998047v2 8 2 8 2 8 2 8 2 8.000003 2h60v-2-50.000003h-58z" fill="url(#i)"/><path d="m96 2c-1.108 0-2 .892-2 2v10h-10c-1.108 0-2 .892-2 2v2c0 1.108.892 2 2 2h10v10c0 1.108.892 2 2 2h2c1.108 0 2-.892 2-2v-10h10c1.108 0 2-.892 2-2v-2c0-1.108-.892-2-2-2h-10v-10c0-1.108-.892-2-2-2z" fill="url(#h)"/><g fill="#b3b3b3"><path d="m32.99924 55.998602h17v8h-17z"/><path d="m51.99748 55.998602h17.99994v8h-17.99994z"/><path d="m71.99924 55.998602h17v8h-17z"/></g><g fill="#ddd"><path d="m32.99924 65.998602h17v8h-17z"/><path d="m71.99924 65.998602h17v8h-17z"/><path d="m51.99748 75.998602h17.99994v8h-17.99994z"/><path d="m71.99924 75.998602h17v8h-17z"/><path d="m32.99924 75.998602h17v8h-17z"/><path d="m51.99748 85.998602h17.99994v8h-17.99994z"/><path d="m32.99924 85.998602h17v8h-17z"/><path d="m51.99748 95.998602h17.99994v7.999998h-17.99994z"/><path d="m32.99924 95.998602h17v7.999998h-17z"/></g><path d="m55.99924 81.998602h39v27.999998h-39z" fill="url(#g)"/><path d="m57.99924 83.998602h35v23.999998h-35z" fill="url(#f)"/><path d="m59.99924 90.998602h7v15.999898h-7z" fill="#0369a3"/><path d="m60.99924 105.9986h5v-13.999998h-5z" fill="url(#e)"/><path d="m67.99924 85.998602h7v20.999898h-7z" fill="url(#d)"/><path d="m68.99924 105.9986h5v-18.999998h-5z" fill="url(#c)"/><path d="m75.99924 96.998602h7v9.999898h-7z" fill="#c99c00"/><path d="m76.99924 105.9986h5v-7.999998h-5z" fill="url(#b)"/><path d="m83.99924 92.998602h7v13.999998h-7z" fill="#43c330"/><path d="m84.99924 105.9986h5v-11.999998h-5z" fill="url(#a)"/><path d="m51.99748 65.998602h17.99994v8h-17.99994z" fill="#ddd"/></svg>