<svg viewBox="0 0 128 128" xmlns="http://www.w3.org/2000/svg" xmlns:xlink="http://www.w3.org/1999/xlink"><linearGradient id="a" gradientUnits="userSpaceOnUse" x1="110.96875" x2="110.96875" y1="976.29968" y2="992.375"><stop offset="0" stop-color="#666"/><stop offset="1" stop-color="#333"/></linearGradient><linearGradient id="b" gradientTransform="matrix(1 0 0 1.00011 0 -.10551)" gradientUnits="userSpaceOnUse" x1="122.07292" x2="122.07292" xlink:href="#c" y1="976.37817" y2="992.3916"/><linearGradient id="c"><stop offset="0" stop-color="#a33e03"/><stop offset="1" stop-color="#622502"/></linearGradient><linearGradient id="d" gradientTransform="matrix(1.00399 0 0 1.00959 -1.49914 -9.36636)" gradientUnits="userSpaceOnUse" x1="110.96875" x2="110.96875" xlink:href="#c" y1="976.29968" y2="992.375"/><linearGradient id="e"><stop offset="0" stop-color="#fff" stop-opacity=".65"/><stop offset="1" stop-color="#fff" stop-opacity=".949"/></linearGradient><linearGradient id="f"><stop offset="0" stop-opacity="0"/><stop offset=".49305555"/><stop offset="1" stop-opacity="0"/></linearGradient><radialGradient id="g" cx="152.3331" cy="-754.6377" gradientTransform="matrix(.00000039 .0828876 -.410236 0 467.31 -1076.51)" gradientUnits="userSpaceOnUse" r="15" xlink:href="#h"/><linearGradient id="h"><stop offset="0" stop-opacity=".501961"/><stop offset="1" stop-opacity="0"/></linearGradient><radialGradient id="i" cx="152.3331" cy="-754.6377" gradientTransform="matrix(.00000039 .0828876 -.410236 0 489.408 -1076.51)" gradientUnits="userSpaceOnUse" r="15" xlink:href="#h"/><radialGradient id="j" cx="152.3331" cy="-754.6377" gradientTransform="matrix(.0000019 .13262 -2.00195 0 -722.871 -1085.32)" gradientUnits="userSpaceOnUse" r="15"><stop offset="0" stop-color="#808080" stop-opacity=".502"/><stop offset="1" stop-opacity="0"/></radialGradient><linearGradient id="k" gradientTransform="matrix(.5 0 0 .499998 363 -317.322)" gradientUnits="userSpaceOnUse" x1="850.25" x2="850.25" y1="-1508.6377" y2="-1510.5831"><stop offset="0" stop-color="#808080"/><stop offset="1" stop-color="#333"/></linearGradient><linearGradient id="l" gradientUnits="userSpaceOnUse" x1="809.625" x2="809.625" y1="-1074.7628" y2="-1116.7638"><stop offset="0" stop-color="#d36118"/><stop offset="1" stop-color="#f09e6f"/></linearGradient><linearGradient id="m" gradientTransform="matrix(1 0 0 1.05 0 54.7819)" gradientUnits="userSpaceOnUse" x1="812" x2="812" y1="-1075.6378" y2="-1115.6378"><stop offset="0" stop-color="#edbfa1"/><stop offset="1" stop-color="#fdf1ea"/></linearGradient><radialGradient id="n" cx="-1535.4552" cy="-853" gradientTransform="matrix(-1.62419 0 0 -1.57137 -3568.11 -2128.09)" gradientUnits="userSpaceOnUse" r="10"><stop offset="0" stop-color="#fff"/><stop offset="1" stop-color="#ffd5d5" stop-opacity="0"/></radialGradient><linearGradient id="o" gradientTransform="matrix(.833333 0 0 3.33333 318.167 4153.16)" gradientUnits="userSpaceOnUse" x1="529.25" x2="535" xlink:href="#p" y1="-1568.6378" y2="-1574.6378"/><linearGradient id="p"><stop offset="0" stop-color="#f00"/><stop offset="1" stop-color="#ffc600" stop-opacity="0"/></linearGradient><linearGradient id="q" gradientTransform="matrix(.833333 0 0 3.33333 -1257.83 4153.16)" gradientUnits="userSpaceOnUse" x1="529.25" x2="535" xlink:href="#p" y1="-1568.6378" y2="-1574.6378"/><linearGradient id="r" gradientUnits="userSpaceOnUse" x1="782.62622" x2="782.62622" y1="-1097.5416" y2="-1079.5416"><stop offset="0" stop-color="#b34403"/><stop offset="1" stop-color="#622502"/></linearGradient><linearGradient id="s" gradientTransform="matrix(.491054 0 0 .489842 266.032 -331.951)" gradientUnits="userSpaceOnUse" x1="1008.9972" x2="1116.851" y1="-1589.1378" y2="-1589.1378"><stop offset="0" stop-color="#8e2103"/><stop offset=".16904713" stop-color="#e97f3d"/><stop offset=".8380928" stop-color="#e97f3d"/><stop offset="1" stop-color="#922504"/></linearGradient><linearGradient id="t" gradientTransform="matrix(.491054 0 0 .489842 266.032 -331.951)" gradientUnits="userSpaceOnUse" x1="1078.9924" x2="1078.9924" y1="-1561.0895" y2="-1526.3844"><stop offset="0" stop-color="#999"/><stop offset="1" stop-color="#606060"/></linearGradient><linearGradient id="u" gradientTransform="matrix(.579192 0 0 .734763 271.358 -298.73)" gradientUnits="userSpaceOnUse" x1="714" x2="714" xlink:href="#e" y1="-1063.6378" y2="-1079.1599"/><linearGradient id="v" gradientUnits="userSpaceOnUse" x1="803" x2="793" y1="-1093.6377" y2="-1081.6377"><stop offset="0" stop-color="#18a303"/><stop offset="1" stop-color="#106802"/></linearGradient><linearGradient id="w" gradientTransform="matrix(.982107 0 0 .979684 -174.934 -59.2859)" gradientUnits="userSpaceOnUse" x1="984.29602" x2="990.65985" y1="-1045.339" y2="-1051.7185"><stop offset="0" stop-color="#78db67"/><stop offset="1" stop-color="#ccf4c6"/></linearGradient><linearGradient id="x" gradientTransform="matrix(.491054 0 0 .489842 266.032 -331.951)" gradientUnits="userSpaceOnUse" x1="1031.3417" x2="1095.0468" y1="-1575.7028" y2="-1575.7028"><stop offset="0" stop-color="#8e2103"/><stop offset=".16904713" stop-color="#e76c35"/><stop offset=".8380928" stop-color="#e76c35"/><stop offset="1" stop-color="#922504"/></linearGradient><linearGradient id="y" gradientTransform="matrix(.248447 0 0 .999984 -1112.15 377.619)" gradientUnits="userSpaceOnUse" x1="-17" x2="144" xlink:href="#z" y1="-1194.6378" y2="-1194.6378"/><linearGradient id="z"><stop offset="0" stop-color="#d40000" stop-opacity="0"/><stop offset=".49305555" stop-color="#d40000"/><stop offset="1" stop-color="#d40000" stop-opacity="0"/></linearGradient><linearGradient id="A" gradientTransform="matrix(.248447 0 0 .999984 -1112.15 434.619)" gradientUnits="userSpaceOnUse" x1="-17" x2="144" xlink:href="#z" y1="-1194.6378" y2="-1194.6378"/><linearGradient id="B" gradientTransform="matrix(.317202 0 0 .489842 663.285 -525.928)" gradientUnits="userSpaceOnUse" x1="343.81552" x2="443.49335" xlink:href="#f" y1="-1183.92" y2="-1183.92"/><linearGradient id="C" gradientTransform="matrix(.515454 0 0 .489842 585.338 -532.928)" gradientUnits="userSpaceOnUse" x1="343.81552" x2="443.49335" xlink:href="#f" y1="-1183.92" y2="-1183.92"/><linearGradient id="D" gradientTransform="matrix(.0931679 0 0 1 770.584 97)" gradientUnits="userSpaceOnUse" x1="-17" x2="144" xlink:href="#f" y1="-1194.6378" y2="-1194.6378"/><linearGradient id="E" gradientTransform="matrix(.0931679 0 0 1 770.584 104)" gradientUnits="userSpaceOnUse" x1="-17" x2="144" xlink:href="#f" y1="-1194.6378" y2="-1194.6378"/><linearGradient id="F" gradientTransform="matrix(.0931679 0 0 1 770.584 111)" gradientUnits="userSpaceOnUse" x1="-17" x2="144" xlink:href="#f" y1="-1194.6378" y2="-1194.6378"/><linearGradient id="G" gradientTransform="matrix(.136646 0 0 1 792.323 113)" gradientUnits="userSpaceOnUse" x1="-17" x2="144" xlink:href="#f" y1="-1194.6378" y2="-1194.6378"/><linearGradient id="H" gradientTransform="matrix(.136646 0 0 1 792.323 98)" gradientUnits="userSpaceOnUse" x1="-17" x2="144" xlink:href="#f" y1="-1194.6378" y2="-1194.6378"/><linearGradient id="I" gradientTransform="matrix(.140493 0 0 .999984 792.079 111.981)" gradientUnits="userSpaceOnUse" x1="-17" x2="144" y1="-1194.6378" y2="-1194.6378"><stop offset="0" stop-color="#fff" stop-opacity="0"/><stop offset=".49305555" stop-color="#fff"/><stop offset="1" stop-color="#fff" stop-opacity="0"/></linearGradient><linearGradient id="J" gradientTransform="matrix(.594754 0 0 .48982 554.16 1653.32)" gradientUnits="userSpaceOnUse" x1="343.81552" x2="443.49335" xlink:href="#f" y1="-1183.92" y2="-1183.92"/><linearGradient id="K" gradientTransform="matrix(7.97915 0 0 8.01241 -2383.61 -3106.53)" gradientUnits="userSpaceOnUse" x1="294.3429" x2="294.41818" y1="256.58133" y2="243.13852"><stop offset="0" stop-color="#b3b3b3"/><stop offset="1" stop-color="#e6e6e6"/></linearGradient><linearGradient id="L" gradientTransform="matrix(4.00013 0 0 4 -875.027 1971.85)" gradientUnits="userSpaceOnUse" x1="209.0625" x2="209.0625" xlink:href="#e" y1="-755.38788" y2="-781.62268"/><g transform="translate(62.999907 1166.6296)"><path id="M" d="m-44.99976-1160.6378v2 112 2h1.999997 88.000006 1.999997v-2-70-.8752l-.624971-.6248-41.7500028-42-.4999691-.5h-.875016-46.2500441z" fill="url(#K)"/><path id="N" d="m-40.99984-1156.6378h42.2350277l41.7649723 42v66h-84z" fill="url(#L)"/></g><g transform="translate(-725.00076 1166.6364)"><g fill="url(#a)" transform="matrix(7.99974 0 0 7.9969 -150.968 -8974.56)"><path d="m111.56249 976.3733c-.4584.0875-.57071.28336-.56249.75001v14.50168c.00005.52364.22641.74996.74999.75001h11.50001c.52358-.00005.74994-.22637.74999-.75001v-8.98088c.006-.26409-.0975-.52903-.28125-.71883l-5.27042-5.2707c-.18978-.18372-.45469-.2874-.71875-.28128h-5.97958c-.0623-.006-.12518-.006-.1875 0z" fill="url(#b)"/><path d="m120.32938 976.3765c-.33282.10664-.44483.61349-.18825.85184l3.01199 3.02879c.27825.26531.83246.0383.84712-.34705v-3.02878c-.00003-.26431-.23916-.50477-.502-.5048h-3.01199c-.0519-.008-.105-.008-.15687 0z" fill="url(#d)"/></g><use height="1085" transform="translate(788)" width="5033" xlink:href="#M"/><use height="1085" transform="translate(788)" width="5033" xlink:href="#N"/><path d="m770.7674-1065.087h12.276342v2.449208h-12.276342z" fill="url(#g)" opacity=".5"/><path d="m792.86481-1065.087h12.276342v2.449208h-12.276342z" fill="url(#i)" opacity=".5"/><path d="m758-1067.0464h59.90855v3.918734h-59.90855z" fill="url(#j)" opacity=".4"/><path d="m786.12122-1071.6377-12.12121 7.9999h4.8844l2.69908-.5569 9.4165-7.443z" fill="#4d4d4d"/><path d="m789.99999-1071.6377 12 7.9999h-5.00561l-2.5431-.4389-9.45128-7.561z" fill="#4d4d4d"/><g fill="url(#k)"><path d="m785.12121-1071.6377-12.12121 7.9999h5.87879l10.12122-7.9999z"/><path d="m784.99994-1073.6378h6v3.00002h-6z"/><path d="m791-1071.6377 12 7.9999h-6l-10.00001-7.9999z"/></g><path d="m756-1118.6378h64v45.999985h-64z" fill="#a33e03"/><rect fill="url(#l)" height="42.000023" rx="1" width="60" x="758" y="-1116.6378"/><rect fill="url(#m)" height="42.000023" rx="1" width="60" x="758" y="-1116.6378"/><rect fill="url(#n)" height="31.427435" rx="2" transform="rotate(90)" width="15.674944" x="-1090.3127" y="-803.42743"/><path d="m769-1096.6378h15v4h-15z" fill="#fff" opacity=".75"/><rect fill="url(#o)" height="40" opacity=".35" rx="1" width="10" x="759" y="-1115.6378"/><rect fill="url(#q)" height="40" opacity=".35" rx="1" transform="scale(-1 1)" width="10" x="-817" y="-1115.6378"/><path d="m788-1096.6378h26v18.000017h-26z" fill="#fff" opacity=".75"/><path d="m769-1089.6378h15v4h-15z" fill="#fff" opacity=".75"/><path d="m769-1097.6378h15v4h-15z" fill="url(#r)"/><path d="m769-1082.6378h15v4h-15z" fill="#fff" opacity=".75"/><path d="m769-1090.6378h15v4h-15z" fill="url(#r)"/><path d="m769-1083.6378h15v4h-15z" fill="url(#r)"/><ellipse cx="895.5" cy="651.75" fill="#fff" rx="5.499998" ry="5.250001" transform="matrix(.363636 0 0 .380952 438.364 -1342.92)"/><ellipse cx="895.5" cy="651.75" fill="#d36118" rx="5.499998" ry="5.250001" transform="matrix(.363636 0 0 .380952 438.364 -1343.92)"/><ellipse cx="895.5" cy="651.75" fill="#fff" rx="5.499998" ry="5.250001" transform="matrix(.363636 0 0 .380952 438.364 -1335.92)"/><ellipse cx="895.5" cy="651.75" fill="#d36118" rx="5.499998" ry="5.250001" transform="matrix(.363636 0 0 .380952 438.364 -1336.92)"/><ellipse cx="895.5" cy="651.75" fill="#fff" rx="5.499998" ry="5.250001" transform="matrix(.363636 0 0 .380952 438.364 -1328.92)"/><ellipse cx="895.5" cy="651.75" fill="#d36118" rx="5.499998" ry="5.250001" transform="matrix(.363636 0 0 .380952 438.364 -1329.92)"/><path d="m762-1111.6378h51.999973v4h-51.999973z" fill="#fff" opacity=".75"/><path d="m762-1112.6378h51.999973v4h-51.999973z" fill="url(#s)"/><path d="m788-1097.6378h26v18.000017h-26z" fill="url(#t)"/><path d="m790-1095.6378h22v14.000017h-22z" fill="#e6e6e6"/><path d="m790-1095.6378h22v14.000054h-22z" fill="url(#u)"/><g opacity=".05" transform="matrix(.984128 0 0 1 277.412 -8.99993)"><path d="m521.87097-1081.6378h20.322569v1h-20.322569z"/><path d="m521.87097-1084.6378h20.322569v1h-20.322569z"/><path d="m521.87097-1078.6378h20.322569v1h-20.322569z"/><path d="m521.87097-1075.6378h20.322569v1h-20.322569z"/></g><path d="m792.5-1084.1378 5.5-5.5 4 4 7.5-7.5" fill="none" stroke="url(#v)" stroke-linecap="round" stroke-linejoin="round" stroke-width="3"/><path d="m792.5-1084.1378 5.5-5.5 4 4 7.5-7.5" fill="none" stroke="url(#w)" stroke-linecap="round" stroke-linejoin="round" stroke-width="1.5"/><path d="m772-1104.6378h32v4h-32z" fill="#fff" opacity=".75"/><path d="m772-1105.6378h32v4h-32z" fill="url(#x)"/><path d="m-1116.3738-817h40v1h-40z" fill="url(#y)" opacity=".15" transform="rotate(90)"/><path d="m-1116.3738-760h40v1h-40z" fill="url(#A)" opacity=".15" transform="rotate(90)"/><path d="m772-1105.6378h32v1h-32z" fill="url(#B)" opacity=".5"/><path d="m762-1112.6378h52v1h-52z" fill="url(#C)" opacity=".25"/><path d="m769-1097.6378h15.000031v1.000016h-15.000031z" fill="url(#D)" opacity=".5"/><path d="m769-1090.6378h15.000031v1.000016h-15.000031z" fill="url(#E)" opacity=".5"/><path d="m769-1083.6378h15.000031v1.000016h-15.000031z" fill="url(#F)" opacity=".5"/><path d="m790-1081.6378h22v1.000016h-22z" fill="url(#G)" opacity=".5"/><path d="m790-1096.6378h22v1.000016h-22z" fill="url(#H)" opacity=".25"/><path d="m789.69031-1082.6378h22.619402v1h-22.619402z" fill="url(#I)"/><path d="m758 1073.6378h60v .999954h-60z" fill="url(#J)" opacity=".5" transform="scale(1 -1)"/></g></svg>