<svg xmlns="http://www.w3.org/2000/svg" viewBox="0 0 32 32">
 <path 
     style="fill:#4d4d4d" 
     d="M 6 6 L 6 26 L 7.25 26 L 11 26 L 12.25 26 L 19 26 L 26 26 L 26 25 L 26 18.5 L 26 18 L 26 6 L 24.75 6 L 7.25 6 L 6 6 z M 20.53125 7.25 L 22.25 8.25 L 23.96875 7.25 L 24.75 8.25 L 22.625 9.5 L 22.25 9.75 L 21.875 9.5 L 19.75 8.25 L 20.53125 7.25 z M 7 11 L 15 11 L 25 11 L 25 18 L 25 25 L 19 25 L 18 25 L 15 25 L 8 25 L 7 25 L 7 11 z M 11 13 C 9.8954305 13 9 13.895431 9 15 C 9 16.104569 9.8954305 17 11 17 C 12.104569 17 13 16.104569 13 15 C 13 13.895431 12.104569 13 11 13 z M 15 13 L 15 14 L 23 14 L 23 13 L 15 13 z M 11 14 C 11.552285 14 12 14.447715 12 15 C 12 15.552285 11.552285 16 11 16 C 10.447715 16 10 15.552285 10 15 C 10 14.447715 10.447715 14 11 14 z M 15 16 L 15 17 L 19 17 L 19 16 L 15 16 z M 9 19 L 9 23 L 13 23 L 13 19 L 9 19 z M 15 19 L 15 20 L 23 20 L 23 19 L 15 19 z M 10 20 L 12 20 L 12 22 L 10 22 L 10 20 z M 15 22 L 15 23 L 21 23 L 21 22 L 15 22 z "
     />
 </svg>
