<svg viewBox="0 0 24 24" xmlns="http://www.w3.org/2000/svg"><g fill="#f2f2f7" stroke-width=".33018"><path d="m7.3171615 13.816981h-3.5146141l-1.122097 2.186155h-1.71538964l5.06878294-9.3895016h1.431641l1.818571 9.3895016h-1.5993107zm-2.8439354-1.315562h2.6311239l-.6384345-3.8821974z"/><path d="m14.468917 9.4124281q1.199483.025795 1.863713.9157339.670679.889939.5546 2.276439-.141874 1.592861-1.122097 2.579533-.973774.986671-2.418313.960876-.896387-.02579-1.541271-.483662-.638434-.457868-.935081-1.257523-.290197-.806104-.187016-1.773429l.0129-.135426v-.01935l.06449-.483663q.315993-2.1668076 1.251074-3.4501254.94153-1.2833178 2.43121-1.6057595l.60619-.116079q.947979-.1870162 1.083404-.8447972h1.244625q-.05159.6448834-.315993 1.0576087-.264402.4127253-.760962.6835763-.49656.2644022-1.457436.4514184-.954428.1805673-1.573516.7093716-.612639.5288043-1.031813 1.5025781 1.018916-.9802226 2.231296-.9673249zm-.38693 1.2510739q-.509457-.0129-.915734.238607-.399828.245055-.651332.696474-.245056.451418-.315993 1.038262-.04514.477213-.01935.851246.04514.644883.361134 1.018915.315993.367584.88349.38693.754514.01935 1.270421-.54815.515906-.567498.651332-1.599311l.0129-.135426q.08384-.896387-.251504-1.412294-.328891-.515907-1.025365-.535253z"/><path d="m17.528801 16.003136 1.21238-6.9776379 2.669817.00645q.954428.025795 1.586413.3030952 1.057609.4707648.99957 1.5670667-.06449 1.031813-1.405846 1.554168.541702.161221.851246.5546.315993.393379.303095.947979-.03224.954427-.786758 1.48968-.748064.535253-2.063626.5546zm2.050729-2.972912-.303095 1.734736 1.573515.0064q.625537-.01935.980223-.257954.361134-.238607.419174-.657781.06449-.367583-.16767-.580395-.225709-.21926-.754513-.238607zm.187016-1.122097 1.173688.0064q1.367152 0 1.509027-.838348.05804-.374032-.193465-.573946-.245056-.206363-.889939-.225709l-1.309114-.0064z"/></g><g fill-rule="evenodd"><path d="m6.004237 1h5.995763l-4 4h2l-9 7 3-6h-2z" fill="#ff9f0a"/><path d="m6.484375 2-2.40625 3.0039062a1.0001 1.0001 0 0 1 .8164062 1.4433594l-1.0292968 2.0585938 3.5078125-2.7285156a1.0001 1.0001 0 0 1 -.0800781-1.484375l2.2929687-2.2929688z" fill="#fc0"/></g></svg>