<svg viewBox="0 0 16 16" xmlns="http://www.w3.org/2000/svg" xmlns:xlink="http://www.w3.org/1999/xlink"><linearGradient id="a" gradientUnits="userSpaceOnUse" x1="2.949153" x2="3.144518" y1="7.993501" y2="-.090185"><stop offset="0" stop-color="#409cff"/><stop offset="1" stop-color="#0a84ff"/></linearGradient><path d="m5.9836616 8.9799273v7.0318107h-1.2087956v-2.736037h-1.8131933l-1.6572196 2.736037h-1.29978018l1.76770098-2.918007q-.6758857-.246958-1.0398241-.760371-.35743954-.519912-.35743954-1.208796 0-.961837.72137794-1.5467379.721378-.5913999 1.9301736-.5978988zm-4.3997558 2.1576347q0 .513413.3509406.83186.3509407.311947.9293428.318446h1.9106768v-2.3331056h-1.7287075q-.6693868 0-1.0658198.3314436-.3964329.324945-.3964329.851356z" fill="#f2f2f7"/><path d="m4.9837797 7.8571172q-.1140779-.2281559-.1853767-.8128053-.9197533.9554027-2.1960002.9554027-1.1407793 0-1.87515599-.6416884-.72724683-.6488182-.72724683-1.6398703 0-1.2049481.91262347-1.8680261.91975335-.6702079 2.58101325-.6702079h1.2833767v-.606039q0-.6915975-.4135325-1.0980001-.4135325-.4135325-1.2192079-.4135325-.7058572 0-1.1835585.3564935-.4777014.3564936-.4777014.8627144h-1.32615596q0-.5775195.40640264-1.1122599.41353251-.54187014 1.11225982-.85558445.7058572-.31371432 1.547182-.31371432 1.3332858 0 2.0890521.67020786.7557664.66307801.7842858 1.83237681v3.5506757q0 1.0623507.2709351 1.6897793v.114078zm-2.1888704-1.0053118q.6202988 0 1.1764287-.3208442.55613-.3208442.8056754-.8341949v-1.5828313h-1.0338312q-2.4241561 0-2.4241561 1.4188443 0 .6202987.4135325.9696624.4135325.3493637 1.0623507.3493637z" fill="url(#a)"/><path d="m10.5 0c-.277 0-.5.223-.5.5v10.5h-2.5a.50033631.50033631 0 0 0 -.3535156.853516l3.9999996 4a.50033631.50033631 0 0 0 .707032 0l4-4a.50033631.50033631 0 0 0 -.353516-.853516h-2.5v-10.5c0-.277-.223-.5-.5-.5z" fill="#f2f2f7"/></svg>