<svg height="96" viewBox="0 0 96 96" width="96" xmlns="http://www.w3.org/2000/svg" xmlns:xlink="http://www.w3.org/1999/xlink"><linearGradient id="a" gradientTransform="matrix(0 1 -1 0 88.000041 67.989069)" gradientUnits="userSpaceOnUse" x1="13.010931" x2=".010931" xlink:href="#b" y1="8.000041" y2="8.000041"/><linearGradient id="b" gradientTransform="matrix(0 -1 -1 0 90.000039 21.01093)" gradientUnits="userSpaceOnUse" x1="1.01093" x2="7.01093" y1="8.000039" y2="8.000039"><stop offset="0" stop-color="#0040dd"/><stop offset="1" stop-color="#007aff"/></linearGradient><linearGradient id="c" gradientTransform="matrix(0 -1 -1 0 88.000039 82.01093)" gradientUnits="userSpaceOnUse" x1="1.01093" x2="14.01093" xlink:href="#b" y1="8.000039" y2="8.000039"/><linearGradient id="d" gradientTransform="translate(-2 46)" gradientUnits="userSpaceOnUse" x1="80.5" x2="80.5" xlink:href="#b" y1="22" y2="21"/><linearGradient id="e" gradientTransform="translate(-24 46)" gradientUnits="userSpaceOnUse" x1="80.5" x2="80.5" xlink:href="#b" y1="22" y2="21"/><linearGradient id="f" gradientTransform="matrix(0 -1 1 0 3.000101 125.999509)" gradientUnits="userSpaceOnUse" x1="42.9995" x2="43.9995" xlink:href="#b" y1="58.999901" y2="58.999901"/><path d="m42.066048 59.875572q0 1.558774 1.266505 1.558774 1.266504 0 2.727856-1.363928 1.461351-1.461351 5.553135-6.332522l1.461351 1.169081q-3.799513 5.260865-7.209333 8.183568-3.312397 2.922702-7.306757 2.922702-3.896937 0-3.896937-4.481477 0-1.266505 1.266505-6.429946l5.650558-22.407388q.681964-2.435585.681964-3.409819 0-.779388-.58454-1.363928-.584541-.681964-1.363928-.681964-2.143316 0-5.553136 3.020126-3.312396 2.922702-6.917063 7.891297-3.70209 5.163442-5.845405 10.424306-2.045892 5.163442-4.968595 16.561982h-7.3067564q9.2552254-34.390468 9.2552254-35.462126 0-2.435585-1.948469-2.435585-2.533009 0-6.527369 3.799513-3.9943604 3.70209-8.0861442 9.937189-2.53300903 3.799514-4.2866307 8.280991-1.6561982 4.384054-5.1634414 15.880018h-7.3067567q1.071658-4.189207 3.799513-13.931549 5.7479824-20.264072 5.7479824-22.309964 0-2.143316-3.7995135-2.143316h-2.4355859v-1.558774q9.5474958-1.753622 15.5877481-3.020126l.2922703.194846-5.65055859 20.361496q13.05473919-20.556342 21.72542319-20.556342 2.435586 0 3.994361 1.656198 1.558774 1.656198 1.558774 4.189207 0 2.922703-3.896936 14.80836 7.599027-11.983081 12.957315-16.561982 4.676324-4.091783 8.670685-4.091783 2.435585 0 4.091783 1.753621 1.656199 1.753622 1.656199 4.384054 0 1.558775-.292271 2.727856l-6.624792 24.45328q-.974235 3.896936-.974235 4.384054z" fill="#48484a" stroke-width="2.43559" transform="scale(.98527692 1.0149431)"/><path d="m60.444679 24.136181q3.483623-9.350778 10.084171-9.350778 3.712809 0 6.09634 2.383532 2.383532 2.337694 2.383532 6.004666 0 5.042085-5.225435 9.992497l-7.425617 7.05892h6.921409q3.52946 0 4.537877-.550046 1.008417-.550046 2.016834-3.025251h1.100092l-2.062672 9.671637h-19.068251v-1.054255q7.838151-8.34236 10.405031-12.284354 2.56688-3.987831 2.56688-7.150594 0-2.337694-1.512625-4.079506-1.512626-1.741811-3.941995-1.741811-3.52946 0-5.592131 4.125343z" fill="#48484a" transform="matrix(.98527691 0 0 1.0149431 -5.922475 34.986457)"/><path d="m83 78.515624c-.0041.127164-.05645.247996-.146484.337891l-2.5 3.000102c-.09763.09759-.225574.146382-.353516.146382s-.255882-.04879-.353516-.146382l-2.499959-2.989172c-.314083-.31434-.09279-.851579.351563-.853516h1.501952v-4.5c.0011-.275364.224634-.499966.5-.5l.99996-.01093c.276893.000034.501047.225063.5.501953v4.498047h1.5c.282347-.000101.508786.233416.5.515625z" fill="url(#c)"/><path d="m83 71.484374c-.0041-.127164-.05645-.247996-.146484-.337891l-2.5-3.000102c-.09763-.09759-.225574-.146382-.353516-.146382-.127941 0-.255882.04879-.353516.146382l-2.499959 2.989173c-.314083.31434-.09279.851578.351563.853516h1.501952v6.5c.0011.275364.224634.499966.5.5l.99996.01093c.276893-.000034.501047-.225063.5-.501953v-6.498047h1.5c.282347.0001.508786-.233416.5-.515626z" fill="url(#a)"/><path d="m71.5 66.99975c-.277-.000006-.5.223-.5.5s.223.499994.5.5l11 .00025c.277.000006.5-.223.5-.5s-.223-.499994-.5-.5z" fill="url(#d)" stroke-linecap="square" stroke-opacity=".566502"/><path d="m40.5 67c-.277 0-.5.223-.5.5s.223.5.5.5h20c.277 0 .5-.223.5-.5s-.223-.5-.5-.5z" fill="url(#e)" stroke-linecap="square" stroke-opacity=".566502"/><path d="m72.5 82.000008c-.276999 0-.5.213569-.5.478516v.02148.02148c0 .264947.223001.478516.5.478516h10c.276999 0 .5-.213569.5-.478516v-.02148-.02148c0-.264947-.223001-.478516-.5-.478516z" fill="url(#f)"/></svg>